<?xml version="1.0" encoding="UTF-8" standalone="no"?>
<!DOCTYPE svg PUBLIC "-//W3C//DTD SVG 1.1//EN"
 "http://www.w3.org/Graphics/SVG/1.1/DTD/svg11.dtd">
<!-- Generated by graphviz version 2.26.3 (20100126.1600)
 -->
<!-- Title: application.cpp Pages: 1 -->
<svg width="1058pt" height="320pt"
 viewBox="0.00 0.00 1058.00 320.00" xmlns="http://www.w3.org/2000/svg" xmlns:xlink="http://www.w3.org/1999/xlink">
<g id="graph1" class="graph" transform="scale(1 1) rotate(0) translate(4 316)">
<title>application.cpp</title>
<polygon fill="white" stroke="white" points="-4,5 -4,-316 1055,-316 1055,5 -4,5"/>
<!-- Node1 -->
<g id="node1" class="node"><title>Node1</title>
<polygon fill="#bfbfbf" stroke="black" points="675.5,-291 675.5,-311 756.5,-311 756.5,-291 675.5,-291"/>
<text text-anchor="middle" x="716" y="-298" font-family="FreeSans" font-size="10.00">application.cpp</text>
</g>
<!-- Node2 -->
<g id="node3" class="node"><title>Node2</title>
<a xlink:href="application_8h.html" target="_top" xlink:title="application.h">
<polygon fill="white" stroke="black" points="131.5,-175 131.5,-195 202.5,-195 202.5,-175 131.5,-175"/>
<text text-anchor="middle" x="167" y="-182" font-family="FreeSans" font-size="10.00">application.h</text>
</a>
</g>
<!-- Node1&#45;&gt;Node2 -->
<g id="edge2" class="edge"><title>Node1&#45;&gt;Node2</title>
<path fill="none" stroke="midnightblue" d="M675.184,-292.376C575.019,-271.212 317.604,-216.822 212.613,-194.638"/>
<polygon fill="midnightblue" stroke="midnightblue" points="213.15,-191.174 202.643,-192.531 211.703,-198.023 213.15,-191.174"/>
</g>
<!-- Node17 -->
<g id="node35" class="node"><title>Node17</title>
<a xlink:href="ctexceptions_8h.html" target="_top" xlink:title="Definitions for the classes that are thrown when Cantera experiences an error condition (also contain...">
<polygon fill="white" stroke="black" points="771.5,-117 771.5,-137 908.5,-137 908.5,-117 771.5,-117"/>
<text text-anchor="middle" x="840" y="-124" font-family="FreeSans" font-size="10.00">cantera/base/ctexceptions.h</text>
</a>
</g>
<!-- Node1&#45;&gt;Node17 -->
<g id="edge36" class="edge"><title>Node1&#45;&gt;Node17</title>
<path fill="none" stroke="midnightblue" d="M715.023,-290.87C713.336,-267.612 712.379,-209.655 740,-174 752.043,-158.454 770.477,-147.821 788.252,-140.661"/>
<polygon fill="midnightblue" stroke="midnightblue" points="789.862,-143.796 798.015,-137.03 787.422,-137.235 789.862,-143.796"/>
</g>
<!-- Node19 -->
<g id="node40" class="node"><title>Node19</title>
<a xlink:href="ctml_8h.html" target="_top" xlink:title="CTML (&quot;Cantera Markup Language&quot;) is the variant of XML that Cantera uses to store data...">
<polygon fill="white" stroke="black" points="549.5,-233 549.5,-253 650.5,-253 650.5,-233 549.5,-233"/>
<text text-anchor="middle" x="600" y="-240" font-family="FreeSans" font-size="10.00">cantera/base/ctml.h</text>
</a>
</g>
<!-- Node1&#45;&gt;Node19 -->
<g id="edge42" class="edge"><title>Node1&#45;&gt;Node19</title>
<path fill="none" stroke="midnightblue" d="M695.794,-290.897C677.444,-281.722 650.152,-268.076 629.389,-257.694"/>
<polygon fill="midnightblue" stroke="midnightblue" points="630.873,-254.523 620.363,-253.182 627.742,-260.784 630.873,-254.523"/>
</g>
<!-- Node20 -->
<g id="node43" class="node"><title>Node20</title>
<a xlink:href="xml_8h.html" target="_top" xlink:title="Classes providing support for XML data files. ">
<polygon fill="white" stroke="black" points="641.5,-175 641.5,-195 680.5,-195 680.5,-175 641.5,-175"/>
<text text-anchor="middle" x="661" y="-182" font-family="FreeSans" font-size="10.00">xml.h</text>
</a>
</g>
<!-- Node1&#45;&gt;Node20 -->
<g id="edge76" class="edge"><title>Node1&#45;&gt;Node20</title>
<path fill="none" stroke="midnightblue" d="M711.119,-290.706C701.923,-271.31 681.898,-229.076 670.134,-204.264"/>
<polygon fill="midnightblue" stroke="midnightblue" points="673.238,-202.642 665.791,-195.106 666.913,-205.641 673.238,-202.642"/>
</g>
<!-- Node26 -->
<g id="node61" class="node"><title>Node26</title>
<a xlink:href="stringUtils_8h.html" target="_top" xlink:title="Contains declarations for string manipulation functions within Cantera. ">
<polygon fill="white" stroke="black" points="925.5,-117 925.5,-137 1050.5,-137 1050.5,-117 925.5,-117"/>
<text text-anchor="middle" x="988" y="-124" font-family="FreeSans" font-size="10.00">cantera/base/stringUtils.h</text>
</a>
</g>
<!-- Node1&#45;&gt;Node26 -->
<g id="edge70" class="edge"><title>Node1&#45;&gt;Node26</title>
<path fill="none" stroke="midnightblue" d="M722.28,-290.944C731.776,-276.39 751.031,-249.309 773,-232 827.717,-188.888 903.005,-157.202 948.435,-140.472"/>
<polygon fill="midnightblue" stroke="midnightblue" points="949.722,-143.728 957.933,-137.032 947.339,-137.147 949.722,-143.728"/>
</g>
<!-- Node27 -->
<g id="node66" class="node"><title>Node27</title>
<a xlink:href="units_8h.html" target="_top" xlink:title="Header for units conversion utilities, which are used to translate user input from input files (See I...">
<polygon fill="white" stroke="black" points="432,-175 432,-195 476,-195 476,-175 432,-175"/>
<text text-anchor="middle" x="454" y="-182" font-family="FreeSans" font-size="10.00">units.h</text>
</a>
</g>
<!-- Node1&#45;&gt;Node27 -->
<g id="edge78" class="edge"><title>Node1&#45;&gt;Node27</title>
<path fill="none" stroke="midnightblue" d="M675.401,-294.938C638.81,-288.37 584.271,-275.787 541,-254 514.069,-240.44 487.571,-217.693 471.029,-202.047"/>
<polygon fill="midnightblue" stroke="midnightblue" points="473.372,-199.444 463.75,-195.008 468.506,-204.476 473.372,-199.444"/>
</g>
<!-- Node28 -->
<g id="node71" class="node"><title>Node28</title>
<polygon fill="white" stroke="#bfbfbf" points="781.5,-233 781.5,-253 830.5,-253 830.5,-233 781.5,-233"/>
<text text-anchor="middle" x="806" y="-240" font-family="FreeSans" font-size="10.00">fstream</text>
</g>
<!-- Node1&#45;&gt;Node28 -->
<g id="edge86" class="edge"><title>Node1&#45;&gt;Node28</title>
<path fill="none" stroke="midnightblue" d="M731.677,-290.897C745.401,-282.052 765.572,-269.054 781.438,-258.829"/>
<polygon fill="midnightblue" stroke="midnightblue" points="783.691,-261.541 790.201,-253.182 779.899,-255.657 783.691,-261.541"/>
</g>
<!-- Node29 -->
<g id="node73" class="node"><title>Node29</title>
<polygon fill="white" stroke="#bfbfbf" points="848,-233 848,-253 898,-253 898,-233 848,-233"/>
<text text-anchor="middle" x="873" y="-240" font-family="FreeSans" font-size="10.00">sstream</text>
</g>
<!-- Node1&#45;&gt;Node29 -->
<g id="edge88" class="edge"><title>Node1&#45;&gt;Node29</title>
<path fill="none" stroke="midnightblue" d="M743.347,-290.897C769.675,-281.171 809.598,-266.422 838.183,-255.862"/>
<polygon fill="midnightblue" stroke="midnightblue" points="839.613,-259.065 847.781,-252.317 837.187,-252.499 839.613,-259.065"/>
</g>
<!-- Node30 -->
<g id="node75" class="node"><title>Node30</title>
<polygon fill="white" stroke="#bfbfbf" points="915.5,-233 915.5,-253 974.5,-253 974.5,-233 915.5,-233"/>
<text text-anchor="middle" x="945" y="-240" font-family="FreeSans" font-size="10.00">functional</text>
</g>
<!-- Node1&#45;&gt;Node30 -->
<g id="edge90" class="edge"><title>Node1&#45;&gt;Node30</title>
<path fill="none" stroke="midnightblue" d="M756.735,-291.481C793.369,-282.808 848.887,-269.387 905.355,-254.381"/>
<polygon fill="midnightblue" stroke="midnightblue" points="906.403,-257.724 915.161,-251.761 904.597,-250.961 906.403,-257.724"/>
</g>
<!-- Node3 -->
<g id="node5" class="node"><title>Node3</title>
<a xlink:href="config_8h_source.html" target="_top" xlink:title="cantera/base/config.h">
<polygon fill="white" stroke="black" points="196,-1 196,-21 304,-21 304,-1 196,-1"/>
<text text-anchor="middle" x="250" y="-8" font-family="FreeSans" font-size="10.00">cantera/base/config.h</text>
</a>
</g>
<!-- Node2&#45;&gt;Node3 -->
<g id="edge4" class="edge"><title>Node2&#45;&gt;Node3</title>
<path fill="none" stroke="midnightblue" d="M140.746,-174.944C124.974,-167.375 106.227,-155.309 97,-138 80.2744,-106.624 75.8698,-86.5957 97,-58 107.981,-43.1389 148.847,-31.0338 185.582,-22.8321"/>
<polygon fill="midnightblue" stroke="midnightblue" points="186.77,-26.1562 195.806,-20.6232 185.292,-19.3141 186.77,-26.1562"/>
</g>
<!-- Node4 -->
<g id="node7" class="node"><title>Node4</title>
<a xlink:href="ct__thread_8h.html" target="_top" xlink:title="cantera/base/ct_thread.h">
<polygon fill="white" stroke="black" points="151.5,-117 151.5,-137 274.5,-137 274.5,-117 151.5,-117"/>
<text text-anchor="middle" x="213" y="-124" font-family="FreeSans" font-size="10.00">cantera/base/ct_thread.h</text>
</a>
</g>
<!-- Node2&#45;&gt;Node4 -->
<g id="edge6" class="edge"><title>Node2&#45;&gt;Node4</title>
<path fill="none" stroke="midnightblue" d="M175.013,-174.897C181.463,-166.764 190.699,-155.118 198.449,-145.347"/>
<polygon fill="midnightblue" stroke="midnightblue" points="201.298,-147.387 204.769,-137.378 195.813,-143.038 201.298,-147.387"/>
</g>
<!-- Node7 -->
<g id="node14" class="node"><title>Node7</title>
<a xlink:href="logger_8h.html" target="_top" xlink:title="Header for Base class for &#39;loggers&#39; that write text messages to log files (see Writing messages to th...">
<polygon fill="white" stroke="black" points="291.5,-117 291.5,-137 400.5,-137 400.5,-117 291.5,-117"/>
<text text-anchor="middle" x="346" y="-124" font-family="FreeSans" font-size="10.00">cantera/base/logger.h</text>
</a>
</g>
<!-- Node2&#45;&gt;Node7 -->
<g id="edge14" class="edge"><title>Node2&#45;&gt;Node7</title>
<path fill="none" stroke="midnightblue" d="M198.179,-174.897C227.863,-165.279 272.706,-150.749 305.215,-140.215"/>
<polygon fill="midnightblue" stroke="midnightblue" points="306.444,-143.496 314.878,-137.084 304.286,-136.837 306.444,-143.496"/>
</g>
<!-- Node15 -->
<g id="node31" class="node"><title>Node15</title>
<polygon fill="white" stroke="#bfbfbf" points="105.5,-117 105.5,-137 134.5,-137 134.5,-117 105.5,-117"/>
<text text-anchor="middle" x="120" y="-124" font-family="FreeSans" font-size="10.00">set</text>
</g>
<!-- Node2&#45;&gt;Node15 -->
<g id="edge32" class="edge"><title>Node2&#45;&gt;Node15</title>
<path fill="none" stroke="midnightblue" d="M158.813,-174.897C152.223,-166.764 142.786,-155.118 134.867,-145.347"/>
<polygon fill="midnightblue" stroke="midnightblue" points="137.425,-142.943 128.409,-137.378 131.986,-147.351 137.425,-142.943"/>
</g>
<!-- Node16 -->
<g id="node33" class="node"><title>Node16</title>
<polygon fill="white" stroke="#bfbfbf" points="-0.5,-117 -0.5,-137 50.5,-137 50.5,-117 -0.5,-117"/>
<text text-anchor="middle" x="25" y="-124" font-family="FreeSans" font-size="10.00">memory</text>
</g>
<!-- Node2&#45;&gt;Node16 -->
<g id="edge34" class="edge"><title>Node2&#45;&gt;Node16</title>
<path fill="none" stroke="midnightblue" d="M142.265,-174.897C119.296,-165.515 84.8832,-151.459 59.2707,-140.998"/>
<polygon fill="midnightblue" stroke="midnightblue" points="60.5085,-137.723 49.9275,-137.182 57.8616,-144.203 60.5085,-137.723"/>
</g>
<!-- Node4&#45;&gt;Node3 -->
<g id="edge8" class="edge"><title>Node4&#45;&gt;Node3</title>
<path fill="none" stroke="midnightblue" d="M217.297,-116.65C221.141,-107.196 226.803,-92.7846 231,-80 236.321,-63.792 241.4,-45.1224 244.965,-31.2936"/>
<polygon fill="midnightblue" stroke="midnightblue" points="248.414,-31.9338 247.476,-21.3805 241.628,-30.215 248.414,-31.9338"/>
</g>
<!-- Node5 -->
<g id="node10" class="node"><title>Node5</title>
<polygon fill="white" stroke="#bfbfbf" points="278,-59 278,-79 384,-79 384,-59 278,-59"/>
<text text-anchor="middle" x="331" y="-66" font-family="FreeSans" font-size="10.00">boost/shared_ptr.hpp</text>
</g>
<!-- Node4&#45;&gt;Node5 -->
<g id="edge10" class="edge"><title>Node4&#45;&gt;Node5</title>
<path fill="none" stroke="midnightblue" d="M233.554,-116.897C252.221,-107.722 279.983,-94.0762 301.105,-83.6943"/>
<polygon fill="midnightblue" stroke="midnightblue" points="302.855,-86.734 310.286,-79.1817 299.767,-80.4518 302.855,-86.734"/>
</g>
<!-- Node6 -->
<g id="node12" class="node"><title>Node6</title>
<polygon fill="white" stroke="#bfbfbf" points="105.5,-59 105.5,-79 222.5,-79 222.5,-59 105.5,-59"/>
<text text-anchor="middle" x="164" y="-66" font-family="FreeSans" font-size="10.00">boost/thread/mutex.hpp</text>
</g>
<!-- Node4&#45;&gt;Node6 -->
<g id="edge12" class="edge"><title>Node4&#45;&gt;Node6</title>
<path fill="none" stroke="midnightblue" d="M204.465,-116.897C197.524,-108.682 187.556,-96.8827 179.25,-87.0513"/>
<polygon fill="midnightblue" stroke="midnightblue" points="181.894,-84.7577 172.767,-79.3776 176.547,-89.2752 181.894,-84.7577"/>
</g>
<!-- Node8 -->
<g id="node16" class="node"><title>Node8</title>
<a xlink:href="ct__defs_8h.html" target="_top" xlink:title="This file contains definitions of terms that are used in internal routines and are unlikely to need m...">
<polygon fill="white" stroke="black" points="576,-59 576,-79 632,-79 632,-59 576,-59"/>
<text text-anchor="middle" x="604" y="-66" font-family="FreeSans" font-size="10.00">ct_defs.h</text>
</a>
</g>
<!-- Node7&#45;&gt;Node8 -->
<g id="edge16" class="edge"><title>Node7&#45;&gt;Node8</title>
<path fill="none" stroke="midnightblue" d="M390.646,-116.963C440.123,-105.841 519.081,-88.0904 565.801,-77.5873"/>
<polygon fill="midnightblue" stroke="midnightblue" points="566.833,-80.9428 575.822,-75.3346 565.298,-74.1133 566.833,-80.9428"/>
</g>
<!-- Node14 -->
<g id="node29" class="node"><title>Node14</title>
<polygon fill="white" stroke="#bfbfbf" points="420.5,-59 420.5,-79 473.5,-79 473.5,-59 420.5,-59"/>
<text text-anchor="middle" x="447" y="-66" font-family="FreeSans" font-size="10.00">iostream</text>
</g>
<!-- Node7&#45;&gt;Node14 -->
<g id="edge30" class="edge"><title>Node7&#45;&gt;Node14</title>
<path fill="none" stroke="midnightblue" d="M363.593,-116.897C379.283,-107.887 402.479,-94.5665 420.429,-84.2586"/>
<polygon fill="midnightblue" stroke="midnightblue" points="422.341,-87.1967 429.27,-79.1817 418.855,-81.1264 422.341,-87.1967"/>
</g>
<!-- Node8&#45;&gt;Node3 -->
<g id="edge18" class="edge"><title>Node8&#45;&gt;Node3</title>
<path fill="none" stroke="midnightblue" d="M575.926,-64.4004C519.741,-55.1948 392.197,-34.2978 314.364,-21.5455"/>
<polygon fill="midnightblue" stroke="midnightblue" points="314.626,-18.0419 304.192,-19.8789 313.494,-24.9498 314.626,-18.0419"/>
</g>
<!-- Node9 -->
<g id="node19" class="node"><title>Node9</title>
<polygon fill="white" stroke="#bfbfbf" points="489,-1 489,-21 533,-21 533,-1 489,-1"/>
<text text-anchor="middle" x="511" y="-8" font-family="FreeSans" font-size="10.00">cmath</text>
</g>
<!-- Node8&#45;&gt;Node9 -->
<g id="edge20" class="edge"><title>Node8&#45;&gt;Node9</title>
<path fill="none" stroke="midnightblue" d="M587.801,-58.8972C573.486,-49.9698 552.386,-36.8106 535.923,-26.5431"/>
<polygon fill="midnightblue" stroke="midnightblue" points="537.663,-23.5037 527.326,-21.1817 533.959,-29.4433 537.663,-23.5037"/>
</g>
<!-- Node10 -->
<g id="node21" class="node"><title>Node10</title>
<polygon fill="white" stroke="#bfbfbf" points="551,-1 551,-21 595,-21 595,-1 551,-1"/>
<text text-anchor="middle" x="573" y="-8" font-family="FreeSans" font-size="10.00">cstdlib</text>
</g>
<!-- Node8&#45;&gt;Node10 -->
<g id="edge22" class="edge"><title>Node8&#45;&gt;Node10</title>
<path fill="none" stroke="midnightblue" d="M598.6,-58.8972C594.385,-51.0104 588.404,-39.8209 583.284,-30.2401"/>
<polygon fill="midnightblue" stroke="midnightblue" points="586.347,-28.5471 578.547,-21.3776 580.174,-31.8468 586.347,-28.5471"/>
</g>
<!-- Node11 -->
<g id="node23" class="node"><title>Node11</title>
<polygon fill="white" stroke="#bfbfbf" points="612.5,-1 612.5,-21 655.5,-21 655.5,-1 612.5,-1"/>
<text text-anchor="middle" x="634" y="-8" font-family="FreeSans" font-size="10.00">vector</text>
</g>
<!-- Node8&#45;&gt;Node11 -->
<g id="edge24" class="edge"><title>Node8&#45;&gt;Node11</title>
<path fill="none" stroke="midnightblue" d="M609.226,-58.8972C613.262,-51.0926 618.972,-40.0536 623.893,-30.5401"/>
<polygon fill="midnightblue" stroke="midnightblue" points="627.147,-31.8678 628.632,-21.3776 620.929,-28.6518 627.147,-31.8678"/>
</g>
<!-- Node12 -->
<g id="node25" class="node"><title>Node12</title>
<polygon fill="white" stroke="#bfbfbf" points="672.5,-1 672.5,-21 707.5,-21 707.5,-1 672.5,-1"/>
<text text-anchor="middle" x="690" y="-8" font-family="FreeSans" font-size="10.00">map</text>
</g>
<!-- Node8&#45;&gt;Node12 -->
<g id="edge26" class="edge"><title>Node8&#45;&gt;Node12</title>
<path fill="none" stroke="midnightblue" d="M618.98,-58.8972C632.095,-50.0524 651.368,-37.0539 666.529,-26.829"/>
<polygon fill="midnightblue" stroke="midnightblue" points="668.569,-29.6749 674.903,-21.1817 664.655,-23.8714 668.569,-29.6749"/>
</g>
<!-- Node13 -->
<g id="node27" class="node"><title>Node13</title>
<polygon fill="white" stroke="#bfbfbf" points="858,-1 858,-21 898,-21 898,-1 858,-1"/>
<text text-anchor="middle" x="878" y="-8" font-family="FreeSans" font-size="10.00">string</text>
</g>
<!-- Node8&#45;&gt;Node13 -->
<g id="edge28" class="edge"><title>Node8&#45;&gt;Node13</title>
<path fill="none" stroke="midnightblue" d="M632.035,-63.0656C683.95,-52.0763 794.611,-28.6517 847.982,-17.3541"/>
<polygon fill="midnightblue" stroke="midnightblue" points="848.8,-20.7587 857.858,-15.2636 847.35,-13.9104 848.8,-20.7587"/>
</g>
<!-- Node17&#45;&gt;Node13 -->
<g id="edge40" class="edge"><title>Node17&#45;&gt;Node13</title>
<path fill="none" stroke="midnightblue" d="M844.575,-116.676C848.661,-107.239 854.654,-92.8381 859,-80 864.47,-63.8417 869.538,-45.1685 873.062,-31.3257"/>
<polygon fill="midnightblue" stroke="midnightblue" points="876.513,-31.9494 875.535,-21.3999 869.721,-30.2571 876.513,-31.9494"/>
</g>
<!-- Node18 -->
<g id="node37" class="node"><title>Node18</title>
<polygon fill="white" stroke="#bfbfbf" points="792,-59 792,-79 850,-79 850,-59 792,-59"/>
<text text-anchor="middle" x="821" y="-66" font-family="FreeSans" font-size="10.00">exception</text>
</g>
<!-- Node17&#45;&gt;Node18 -->
<g id="edge38" class="edge"><title>Node17&#45;&gt;Node18</title>
<path fill="none" stroke="midnightblue" d="M836.69,-116.897C834.188,-109.257 830.669,-98.517 827.599,-89.1429"/>
<polygon fill="midnightblue" stroke="midnightblue" points="830.839,-87.7911 824.4,-79.3776 824.187,-89.9703 830.839,-87.7911"/>
</g>
<!-- Node19&#45;&gt;Node8 -->
<g id="edge44" class="edge"><title>Node19&#45;&gt;Node8</title>
<path fill="none" stroke="midnightblue" d="M600.232,-232.893C600.873,-205.023 602.674,-126.675 603.533,-89.3131"/>
<polygon fill="midnightblue" stroke="midnightblue" points="607.036,-89.2128 603.767,-79.135 600.038,-89.0519 607.036,-89.2128"/>
</g>
<!-- Node19&#45;&gt;Node20 -->
<g id="edge46" class="edge"><title>Node19&#45;&gt;Node20</title>
<path fill="none" stroke="midnightblue" d="M610.625,-232.897C619.439,-224.517 632.173,-212.409 642.633,-202.464"/>
<polygon fill="midnightblue" stroke="midnightblue" points="645.25,-204.805 650.086,-195.378 640.427,-199.732 645.25,-204.805"/>
</g>
<!-- Node22 -->
<g id="node49" class="node"><title>Node22</title>
<a xlink:href="Array_8h.html" target="_top" xlink:title="Header file for class Cantera::Array2D. ">
<polygon fill="white" stroke="black" points="529.5,-175 529.5,-195 576.5,-195 576.5,-175 529.5,-175"/>
<text text-anchor="middle" x="553" y="-182" font-family="FreeSans" font-size="10.00">Array.h</text>
</a>
</g>
<!-- Node19&#45;&gt;Node22 -->
<g id="edge54" class="edge"><title>Node19&#45;&gt;Node22</title>
<path fill="none" stroke="midnightblue" d="M591.813,-232.897C585.223,-224.764 575.786,-213.118 567.867,-203.347"/>
<polygon fill="midnightblue" stroke="midnightblue" points="570.425,-200.943 561.409,-195.378 564.986,-205.351 570.425,-200.943"/>
</g>
<!-- Node20&#45;&gt;Node17 -->
<g id="edge48" class="edge"><title>Node20&#45;&gt;Node17</title>
<path fill="none" stroke="midnightblue" d="M680.84,-178.571C709.212,-169.378 762.026,-152.265 799.008,-140.282"/>
<polygon fill="midnightblue" stroke="midnightblue" points="800.551,-143.462 808.985,-137.05 798.393,-136.802 800.551,-143.462"/>
</g>
<!-- Node21 -->
<g id="node46" class="node"><title>Node21</title>
<a xlink:href="global_8h.html" target="_top" xlink:title="This file contains definitions for utility functions and text for modules, inputfiles, logs, textlogs, (see Input File Handling, Diagnostic Output, and Writing messages to the screen). ">
<polygon fill="white" stroke="black" points="632,-117 632,-137 682,-137 682,-117 632,-117"/>
<text text-anchor="middle" x="657" y="-124" font-family="FreeSans" font-size="10.00">global.h</text>
</a>
</g>
<!-- Node20&#45;&gt;Node21 -->
<g id="edge50" class="edge"><title>Node20&#45;&gt;Node21</title>
<path fill="none" stroke="midnightblue" d="M660.303,-174.897C659.782,-167.339 659.052,-156.748 658.41,-147.446"/>
<polygon fill="midnightblue" stroke="midnightblue" points="661.896,-147.113 657.716,-137.378 654.912,-147.595 661.896,-147.113"/>
</g>
<!-- Node21&#45;&gt;Node8 -->
<g id="edge52" class="edge"><title>Node21&#45;&gt;Node8</title>
<path fill="none" stroke="midnightblue" d="M647.768,-116.897C640.261,-108.682 629.479,-96.8827 620.495,-87.0513"/>
<polygon fill="midnightblue" stroke="midnightblue" points="622.812,-84.3987 613.483,-79.3776 617.645,-89.1207 622.812,-84.3987"/>
</g>
<!-- Node22&#45;&gt;Node8 -->
<g id="edge56" class="edge"><title>Node22&#45;&gt;Node8</title>
<path fill="none" stroke="midnightblue" d="M542.681,-174.833C530.009,-161.065 511.527,-135.922 523,-116 532.428,-99.6293 549.985,-88.4368 566.349,-81.0945"/>
<polygon fill="midnightblue" stroke="midnightblue" points="567.865,-84.2551 575.775,-77.2064 565.196,-77.7839 567.865,-84.2551"/>
</g>
<!-- Node22&#45;&gt;Node14 -->
<g id="edge66" class="edge"><title>Node22&#45;&gt;Node14</title>
<path fill="none" stroke="midnightblue" d="M543.593,-174.706C525.475,-154.879 485.55,-111.187 463.115,-86.6358"/>
<polygon fill="midnightblue" stroke="midnightblue" points="465.564,-84.1266 456.234,-79.1055 460.396,-88.8487 465.564,-84.1266"/>
</g>
<!-- Node22&#45;&gt;Node17 -->
<g id="edge58" class="edge"><title>Node22&#45;&gt;Node17</title>
<path fill="none" stroke="midnightblue" d="M576.976,-180.155C621.323,-171.193 717.367,-151.783 780.303,-139.064"/>
<polygon fill="midnightblue" stroke="midnightblue" points="781.383,-142.417 790.491,-137.005 779.996,-135.556 781.383,-142.417"/>
</g>
<!-- Node23 -->
<g id="node53" class="node"><title>Node23</title>
<a xlink:href="utilities_8h.html" target="_top" xlink:title="Various templated functions that carry out common vector operations (see Templated Utility Functions)...">
<polygon fill="white" stroke="black" points="700,-117 700,-137 754,-137 754,-117 700,-117"/>
<text text-anchor="middle" x="727" y="-124" font-family="FreeSans" font-size="10.00">utilities.h</text>
</a>
</g>
<!-- Node22&#45;&gt;Node23 -->
<g id="edge60" class="edge"><title>Node22&#45;&gt;Node23</title>
<path fill="none" stroke="midnightblue" d="M576.829,-177.057C606.055,-167.315 655.916,-150.695 690.109,-139.297"/>
<polygon fill="midnightblue" stroke="midnightblue" points="691.362,-142.569 699.742,-136.086 689.148,-135.928 691.362,-142.569"/>
</g>
<!-- Node25 -->
<g id="node59" class="node"><title>Node25</title>
<polygon fill="white" stroke="#bfbfbf" points="531.5,-117 531.5,-137 576.5,-137 576.5,-117 531.5,-117"/>
<text text-anchor="middle" x="554" y="-124" font-family="FreeSans" font-size="10.00">cstring</text>
</g>
<!-- Node22&#45;&gt;Node25 -->
<g id="edge68" class="edge"><title>Node22&#45;&gt;Node25</title>
<path fill="none" stroke="midnightblue" d="M553.174,-174.897C553.304,-167.339 553.487,-156.748 553.647,-147.446"/>
<polygon fill="midnightblue" stroke="midnightblue" points="557.148,-147.436 553.821,-137.378 550.149,-147.316 557.148,-147.436"/>
</g>
<!-- Node23&#45;&gt;Node8 -->
<g id="edge62" class="edge"><title>Node23&#45;&gt;Node8</title>
<path fill="none" stroke="midnightblue" d="M705.575,-116.897C686.029,-107.68 656.918,-93.9532 634.865,-83.5542"/>
<polygon fill="midnightblue" stroke="midnightblue" points="636.13,-80.2811 625.592,-79.1817 633.144,-86.6125 636.13,-80.2811"/>
</g>
<!-- Node24 -->
<g id="node56" class="node"><title>Node24</title>
<polygon fill="white" stroke="#bfbfbf" points="699,-59 699,-79 755,-79 755,-59 699,-59"/>
<text text-anchor="middle" x="727" y="-66" font-family="FreeSans" font-size="10.00">algorithm</text>
</g>
<!-- Node23&#45;&gt;Node24 -->
<g id="edge64" class="edge"><title>Node23&#45;&gt;Node24</title>
<path fill="none" stroke="midnightblue" d="M727,-116.897C727,-109.339 727,-98.7476 727,-89.4458"/>
<polygon fill="midnightblue" stroke="midnightblue" points="730.5,-89.3776 727,-79.3776 723.5,-89.3776 730.5,-89.3776"/>
</g>
<!-- Node26&#45;&gt;Node8 -->
<g id="edge72" class="edge"><title>Node26&#45;&gt;Node8</title>
<path fill="none" stroke="midnightblue" d="M925.283,-117.267C922.484,-116.838 919.713,-116.414 917,-116 817.842,-100.874 700.952,-83.4227 642.033,-74.6527"/>
<polygon fill="midnightblue" stroke="midnightblue" points="642.47,-71.1792 632.064,-73.1693 641.44,-78.103 642.47,-71.1792"/>
</g>
<!-- Node26&#45;&gt;Node13 -->
<g id="edge74" class="edge"><title>Node26&#45;&gt;Node13</title>
<path fill="none" stroke="midnightblue" d="M978.238,-116.706C959.437,-96.8787 918.005,-53.1873 894.724,-28.6358"/>
<polygon fill="midnightblue" stroke="midnightblue" points="897.003,-25.9535 887.583,-21.1055 891.924,-30.7701 897.003,-25.9535"/>
</g>
<!-- Node27&#45;&gt;Node4 -->
<g id="edge84" class="edge"><title>Node27&#45;&gt;Node4</title>
<path fill="none" stroke="midnightblue" d="M431.759,-179.647C394.07,-170.577 316.7,-151.957 264.823,-139.472"/>
<polygon fill="midnightblue" stroke="midnightblue" points="265.348,-135.998 254.807,-137.061 263.71,-142.804 265.348,-135.998"/>
</g>
<!-- Node27&#45;&gt;Node8 -->
<g id="edge80" class="edge"><title>Node27&#45;&gt;Node8</title>
<path fill="none" stroke="midnightblue" d="M461.307,-174.586C471.876,-160.079 492.628,-133.592 515,-116 531.805,-102.786 552.874,-91.4673 570.294,-83.2507"/>
<polygon fill="midnightblue" stroke="midnightblue" points="571.912,-86.3593 579.546,-79.0127 568.997,-79.9952 571.912,-86.3593"/>
</g>
<!-- Node27&#45;&gt;Node17 -->
<g id="edge82" class="edge"><title>Node27&#45;&gt;Node17</title>
<path fill="none" stroke="midnightblue" d="M476.014,-181.292C489.08,-179.115 505.975,-176.34 521,-174 565.955,-166.998 682.431,-149.939 761.479,-138.418"/>
<polygon fill="midnightblue" stroke="midnightblue" points="762.017,-141.876 771.407,-136.971 761.007,-134.95 762.017,-141.876"/>
</g>
</g>
</svg>
