<?xml version="1.0" encoding="UTF-8" standalone="no"?>
<!DOCTYPE svg PUBLIC "-//W3C//DTD SVG 1.1//EN"
 "http://www.w3.org/Graphics/SVG/1.1/DTD/svg11.dtd">
<!-- Generated by graphviz version 2.40.1 (20161225.0304)
 -->
<!-- Title: AqueousKinetics.cpp Pages: 1 -->
<svg width="546pt" height="319pt"
 viewBox="0.00 0.00 545.50 319.00" xmlns="http://www.w3.org/2000/svg" xmlns:xlink="http://www.w3.org/1999/xlink">
<g id="graph0" class="graph" transform="scale(1 1) rotate(0) translate(4 315)">
<title>AqueousKinetics.cpp</title>
<polygon fill="#ffffff" stroke="transparent" points="-4,4 -4,-315 541.5,-315 541.5,4 -4,4"/>
<!-- Node0 -->
<g id="node1" class="node">
<title>Node0</title>
<polygon fill="#bfbfbf" stroke="#000000" points="102.5,-291.5 102.5,-310.5 220.5,-310.5 220.5,-291.5 102.5,-291.5"/>
<text text-anchor="middle" x="161.5" y="-298.5" font-family="Helvetica,sans-Serif" font-size="10.00" fill="#000000">AqueousKinetics.cpp</text>
</g>
<!-- Node1 -->
<g id="node2" class="node">
<title>Node1</title>
<g id="a_node2"><a xlink:href="AqueousKinetics_8h.html" target="_top" xlink:title="cantera/kinetics/Aqueous\lKinetics.h">
<polygon fill="#ffffff" stroke="#000000" points="140.5,-224.5 140.5,-254.5 280.5,-254.5 280.5,-224.5 140.5,-224.5"/>
<text text-anchor="start" x="148.5" y="-242.5" font-family="Helvetica,sans-Serif" font-size="10.00" fill="#000000">cantera/kinetics/Aqueous</text>
<text text-anchor="middle" x="210.5" y="-231.5" font-family="Helvetica,sans-Serif" font-size="10.00" fill="#000000">Kinetics.h</text>
</a>
</g>
</g>
<!-- Node0&#45;&gt;Node1 -->
<g id="edge1" class="edge">
<title>Node0&#45;&gt;Node1</title>
<path fill="none" stroke="#191970" d="M169.1563,-291.3906C175.2966,-283.6839 184.1728,-272.5434 192.1279,-262.5589"/>
<polygon fill="#191970" stroke="#191970" points="195.0192,-264.5467 198.5133,-254.5446 189.5444,-260.1847 195.0192,-264.5467"/>
</g>
<!-- Node35 -->
<g id="node8" class="node">
<title>Node35</title>
<g id="a_node8"><a xlink:href="Reaction_8h.html" target="_top" xlink:title="cantera/kinetics/Reaction.h">
<polygon fill="#ffffff" stroke="#ff0000" points="53,-56.5 53,-75.5 202,-75.5 202,-56.5 53,-56.5"/>
<text text-anchor="middle" x="127.5" y="-63.5" font-family="Helvetica,sans-Serif" font-size="10.00" fill="#000000">cantera/kinetics/Reaction.h</text>
</a>
</g>
</g>
<!-- Node0&#45;&gt;Node35 -->
<g id="edge12" class="edge">
<title>Node0&#45;&gt;Node35</title>
<path fill="none" stroke="#191970" d="M152.7866,-291.2488C145.5506,-282.4675 135.7763,-268.847 131.5,-255 113.2286,-195.8353 119.7165,-121.2205 124.393,-86.0654"/>
<polygon fill="#191970" stroke="#191970" points="127.9193,-86.1303 125.8711,-75.7353 120.9899,-85.1387 127.9193,-86.1303"/>
</g>
<!-- Node2 -->
<g id="node3" class="node">
<title>Node2</title>
<g id="a_node3"><a xlink:href="BulkKinetics_8h.html" target="_top" xlink:title="BulkKinetics.h">
<polygon fill="#ffffff" stroke="#000000" points="167.5,-168.5 167.5,-187.5 253.5,-187.5 253.5,-168.5 167.5,-168.5"/>
<text text-anchor="middle" x="210.5" y="-175.5" font-family="Helvetica,sans-Serif" font-size="10.00" fill="#000000">BulkKinetics.h</text>
</a>
</g>
</g>
<!-- Node1&#45;&gt;Node2 -->
<g id="edge2" class="edge">
<title>Node1&#45;&gt;Node2</title>
<path fill="none" stroke="#191970" d="M210.5,-224.2977C210.5,-216.3834 210.5,-206.6043 210.5,-198.0759"/>
<polygon fill="#191970" stroke="#191970" points="214.0001,-197.8469 210.5,-187.8469 207.0001,-197.847 214.0001,-197.8469"/>
</g>
<!-- Node3 -->
<g id="node4" class="node">
<title>Node3</title>
<g id="a_node4"><a xlink:href="Kinetics_8h.html" target="_top" xlink:title="Base class for kinetics managers and also contains the kineticsmgr module documentation (see Kinetics...">
<polygon fill="#ffffff" stroke="#000000" points="250,-112.5 250,-131.5 315,-131.5 315,-112.5 250,-112.5"/>
<text text-anchor="middle" x="282.5" y="-119.5" font-family="Helvetica,sans-Serif" font-size="10.00" fill="#000000">Kinetics.h</text>
</a>
</g>
</g>
<!-- Node2&#45;&gt;Node3 -->
<g id="edge3" class="edge">
<title>Node2&#45;&gt;Node3</title>
<path fill="none" stroke="#191970" d="M223.0414,-168.2455C233.7787,-159.8943 249.4473,-147.7076 262.0047,-137.9408"/>
<polygon fill="#191970" stroke="#191970" points="264.3575,-140.5449 270.1023,-131.6427 260.0599,-135.0194 264.3575,-140.5449"/>
</g>
<!-- Node43 -->
<g id="node10" class="node">
<title>Node43</title>
<g id="a_node10"><a xlink:href="RateCoeffMgr_8h.html" target="_top" xlink:title="RateCoeffMgr.h">
<polygon fill="#ffffff" stroke="#000000" points="141,-112.5 141,-131.5 232,-131.5 232,-112.5 141,-112.5"/>
<text text-anchor="middle" x="186.5" y="-119.5" font-family="Helvetica,sans-Serif" font-size="10.00" fill="#000000">RateCoeffMgr.h</text>
</a>
</g>
</g>
<!-- Node2&#45;&gt;Node43 -->
<g id="edge10" class="edge">
<title>Node2&#45;&gt;Node43</title>
<path fill="none" stroke="#191970" d="M206.3195,-168.2455C203.119,-160.7776 198.604,-150.2427 194.6916,-141.1137"/>
<polygon fill="#191970" stroke="#191970" points="197.7888,-139.4554 190.6326,-131.6427 191.3548,-142.2129 197.7888,-139.4554"/>
</g>
<!-- Node4 -->
<g id="node5" class="node">
<title>Node4</title>
<g id="a_node5"><a xlink:href="ThermoPhase_8h.html" target="_top" xlink:title="Header file for class ThermoPhase, the base class for phases with thermodynamic properties, and the text for the Module thermoprops (see Thermodynamic Properties and class ThermoPhase). ">
<polygon fill="#ffffff" stroke="#ff0000" points="335.5,-56.5 335.5,-75.5 505.5,-75.5 505.5,-56.5 335.5,-56.5"/>
<text text-anchor="middle" x="420.5" y="-63.5" font-family="Helvetica,sans-Serif" font-size="10.00" fill="#000000">cantera/thermo/ThermoPhase.h</text>
</a>
</g>
</g>
<!-- Node3&#45;&gt;Node4 -->
<g id="edge4" class="edge">
<title>Node3&#45;&gt;Node4</title>
<path fill="none" stroke="#191970" d="M306.223,-112.3733C328.6737,-103.2629 362.5739,-89.5062 387.6255,-79.3404"/>
<polygon fill="#191970" stroke="#191970" points="389.1365,-82.5045 397.0865,-75.5011 386.5043,-76.0182 389.1365,-82.5045"/>
</g>
<!-- Node23 -->
<g id="node6" class="node">
<title>Node23</title>
<g id="a_node6"><a xlink:href="global_8h.html" target="_top" xlink:title="This file contains definitions for utility functions and text for modules, inputfiles, logs, textlogs, (see Input File Handling, Diagnostic Output, and Writing messages to the screen). ">
<polygon fill="#ffffff" stroke="#ff0000" points="415.5,-.5 415.5,-19.5 537.5,-19.5 537.5,-.5 415.5,-.5"/>
<text text-anchor="middle" x="476.5" y="-7.5" font-family="Helvetica,sans-Serif" font-size="10.00" fill="#000000">cantera/base/global.h</text>
</a>
</g>
</g>
<!-- Node3&#45;&gt;Node23 -->
<g id="edge9" class="edge">
<title>Node3&#45;&gt;Node23</title>
<path fill="none" stroke="#191970" d="M315.4164,-120.4431C373.3296,-116.9395 489.6787,-106.2259 514.5,-76 527.2189,-60.5117 511.5538,-40.2261 496.6581,-26.2542"/>
<polygon fill="#191970" stroke="#191970" points="498.9081,-23.5718 489.0931,-19.5821 494.2778,-28.8217 498.9081,-23.5718"/>
</g>
<!-- Node33 -->
<g id="node7" class="node">
<title>Node33</title>
<g id="a_node7"><a xlink:href="StoichManager_8h.html" target="_top" xlink:title="StoichManager.h">
<polygon fill="#ffffff" stroke="#ff0000" points="220,-56.5 220,-75.5 317,-75.5 317,-56.5 220,-56.5"/>
<text text-anchor="middle" x="268.5" y="-63.5" font-family="Helvetica,sans-Serif" font-size="10.00" fill="#000000">StoichManager.h</text>
</a>
</g>
</g>
<!-- Node3&#45;&gt;Node33 -->
<g id="edge6" class="edge">
<title>Node3&#45;&gt;Node33</title>
<path fill="none" stroke="#191970" d="M280.0614,-112.2455C278.2145,-104.8579 275.6172,-94.4689 273.3522,-85.4087"/>
<polygon fill="#191970" stroke="#191970" points="276.7316,-84.4952 270.9107,-75.6427 269.9406,-86.193 276.7316,-84.4952"/>
</g>
<!-- Node3&#45;&gt;Node35 -->
<g id="edge7" class="edge">
<title>Node3&#45;&gt;Node35</title>
<path fill="none" stroke="#191970" d="M255.8546,-112.3733C230.3036,-103.1419 191.5488,-89.1402 163.3091,-78.9375"/>
<polygon fill="#191970" stroke="#191970" points="164.3921,-75.6074 153.7978,-75.5011 162.0135,-82.1909 164.3921,-75.6074"/>
</g>
<!-- Node4&#45;&gt;Node23 -->
<g id="edge5" class="edge">
<title>Node4&#45;&gt;Node23</title>
<path fill="none" stroke="#191970" d="M430.2545,-56.2455C438.3648,-48.1352 450.0925,-36.4075 459.7081,-26.7919"/>
<polygon fill="#191970" stroke="#191970" points="462.2611,-29.1887 466.8573,-19.6427 457.3113,-24.2389 462.2611,-29.1887"/>
</g>
<!-- Node39 -->
<g id="node9" class="node">
<title>Node39</title>
<g id="a_node9"><a xlink:href="RxnRates_8h.html" target="_top" xlink:title="cantera/kinetics/RxnRates.h">
<polygon fill="#ffffff" stroke="#ff0000" points="0,-.5 0,-19.5 153,-19.5 153,-.5 0,-.5"/>
<text text-anchor="middle" x="76.5" y="-7.5" font-family="Helvetica,sans-Serif" font-size="10.00" fill="#000000">cantera/kinetics/RxnRates.h</text>
</a>
</g>
</g>
<!-- Node35&#45;&gt;Node39 -->
<g id="edge8" class="edge">
<title>Node35&#45;&gt;Node39</title>
<path fill="none" stroke="#191970" d="M118.6165,-56.2455C111.3034,-48.2155 100.7609,-36.6394 92.0533,-27.0781"/>
<polygon fill="#191970" stroke="#191970" points="94.6028,-24.6795 85.2817,-19.6427 89.4273,-29.3928 94.6028,-24.6795"/>
</g>
<!-- Node43&#45;&gt;Node39 -->
<g id="edge11" class="edge">
<title>Node43&#45;&gt;Node39</title>
<path fill="none" stroke="#191970" d="M140.6535,-113.3236C103.3979,-105.2313 55.1736,-92.0178 43.5,-76 32.273,-60.5949 45.2457,-40.8006 58.0795,-26.9238"/>
<polygon fill="#191970" stroke="#191970" points="60.8735,-29.0774 65.4358,-19.5151 55.9062,-24.1452 60.8735,-29.0774"/>
</g>
</g>
</svg>
