<?xml version="1.0" encoding="UTF-8" standalone="no"?>
<!DOCTYPE svg PUBLIC "-//W3C//DTD SVG 1.1//EN"
 "http://www.w3.org/Graphics/SVG/1.1/DTD/svg11.dtd">
<!-- Generated by graphviz version 2.26.3 (20100126.1600)
 -->
<!-- Title: BandMatrix.cpp Pages: 1 -->
<svg width="712pt" height="262pt"
 viewBox="0.00 0.00 712.00 262.00" xmlns="http://www.w3.org/2000/svg" xmlns:xlink="http://www.w3.org/1999/xlink">
<g id="graph1" class="graph" transform="scale(1 1) rotate(0) translate(4 258)">
<title>BandMatrix.cpp</title>
<polygon fill="white" stroke="white" points="-4,5 -4,-258 709,-258 709,5 -4,5"/>
<!-- Node1 -->
<g id="node1" class="node"><title>Node1</title>
<polygon fill="#bfbfbf" stroke="black" points="325.5,-233 325.5,-253 408.5,-253 408.5,-233 325.5,-233"/>
<text text-anchor="middle" x="367" y="-240" font-family="FreeSans" font-size="10.00">BandMatrix.cpp</text>
</g>
<!-- Node2 -->
<g id="node3" class="node"><title>Node2</title>
<a xlink:href="BandMatrix_8h.html" target="_top" xlink:title="Declarations for the class BandMatrix which is a child class of GeneralMatrix for banded matrices han...">
<polygon fill="white" stroke="black" points="164,-175 164,-195 314,-195 314,-175 164,-175"/>
<text text-anchor="middle" x="239" y="-182" font-family="FreeSans" font-size="10.00">cantera/numerics/BandMatrix.h</text>
</a>
</g>
<!-- Node1&#45;&gt;Node2 -->
<g id="edge2" class="edge"><title>Node1&#45;&gt;Node2</title>
<path fill="none" stroke="midnightblue" d="M344.704,-232.897C324.273,-223.639 293.797,-209.83 270.811,-199.415"/>
<polygon fill="midnightblue" stroke="midnightblue" points="272.023,-196.121 261.47,-195.182 269.134,-202.497 272.023,-196.121"/>
</g>
<!-- Node10 -->
<g id="node19" class="node"><title>Node10</title>
<a xlink:href="ctlapack_8h.html" target="_top" xlink:title="ctlapack.h">
<polygon fill="white" stroke="black" points="77.5,-117 77.5,-137 138.5,-137 138.5,-117 77.5,-117"/>
<text text-anchor="middle" x="108" y="-124" font-family="FreeSans" font-size="10.00">ctlapack.h</text>
</a>
</g>
<!-- Node1&#45;&gt;Node10 -->
<g id="edge38" class="edge"><title>Node1&#45;&gt;Node10</title>
<path fill="none" stroke="midnightblue" d="M325.419,-237.485C271.858,-229.759 182.387,-214.556 155,-196 136.987,-183.795 123.938,-162.178 116.225,-146.384"/>
<polygon fill="midnightblue" stroke="midnightblue" points="119.275,-144.637 111.929,-137.003 112.911,-147.552 119.275,-144.637"/>
</g>
<!-- Node11 -->
<g id="node22" class="node"><title>Node11</title>
<a xlink:href="utilities_8h.html" target="_top" xlink:title="Various templated functions that carry out common vector operations (see Templated Utility Functions)...">
<polygon fill="white" stroke="black" points="295.5,-117 295.5,-137 408.5,-137 408.5,-117 295.5,-117"/>
<text text-anchor="middle" x="352" y="-124" font-family="FreeSans" font-size="10.00">cantera/base/utilities.h</text>
</a>
</g>
<!-- Node1&#45;&gt;Node11 -->
<g id="edge40" class="edge"><title>Node1&#45;&gt;Node11</title>
<path fill="none" stroke="midnightblue" d="M365.669,-232.706C363.194,-213.568 357.845,-172.198 354.621,-147.265"/>
<polygon fill="midnightblue" stroke="midnightblue" points="358.06,-146.574 353.307,-137.106 351.118,-147.472 358.06,-146.574"/>
</g>
<!-- Node13 -->
<g id="node27" class="node"><title>Node13</title>
<a xlink:href="ctexceptions_8h.html" target="_top" xlink:title="Definitions for the classes that are thrown when Cantera experiences an error condition (also contain...">
<polygon fill="white" stroke="black" points="567.5,-117 567.5,-137 704.5,-137 704.5,-117 567.5,-117"/>
<text text-anchor="middle" x="636" y="-124" font-family="FreeSans" font-size="10.00">cantera/base/ctexceptions.h</text>
</a>
</g>
<!-- Node1&#45;&gt;Node13 -->
<g id="edge42" class="edge"><title>Node1&#45;&gt;Node13</title>
<path fill="none" stroke="midnightblue" d="M375.198,-232.849C388.025,-217.667 414.352,-189.208 443,-174 465.252,-162.187 524.971,-148.549 572.142,-139.017"/>
<polygon fill="midnightblue" stroke="midnightblue" points="572.879,-142.439 581.999,-137.047 571.507,-135.574 572.879,-142.439"/>
</g>
<!-- Node16 -->
<g id="node38" class="node"><title>Node16</title>
<a xlink:href="stringUtils_8h.html" target="_top" xlink:title="Contains declarations for string manipulation functions within Cantera. ">
<polygon fill="white" stroke="black" points="425.5,-117 425.5,-137 550.5,-137 550.5,-117 425.5,-117"/>
<text text-anchor="middle" x="488" y="-124" font-family="FreeSans" font-size="10.00">cantera/base/stringUtils.h</text>
</a>
</g>
<!-- Node1&#45;&gt;Node16 -->
<g id="edge44" class="edge"><title>Node1&#45;&gt;Node16</title>
<path fill="none" stroke="midnightblue" d="M371.558,-232.597C378.304,-218.103 392.102,-191.632 410,-174 423.338,-160.861 441.027,-149.82 456.187,-141.748"/>
<polygon fill="midnightblue" stroke="midnightblue" points="457.932,-144.787 465.238,-137.114 454.742,-138.556 457.932,-144.787"/>
</g>
<!-- Node17 -->
<g id="node42" class="node"><title>Node17</title>
<a xlink:href="global_8h.html" target="_top" xlink:title="This file contains definitions for utility functions and text for modules, inputfiles, logs, textlogs, (see Input File Handling, Diagnostic Output, and Writing messages to the screen). ">
<polygon fill="white" stroke="black" points="0,-175 0,-195 108,-195 108,-175 0,-175"/>
<text text-anchor="middle" x="54" y="-182" font-family="FreeSans" font-size="10.00">cantera/base/global.h</text>
</a>
</g>
<!-- Node1&#45;&gt;Node17 -->
<g id="edge50" class="edge"><title>Node1&#45;&gt;Node17</title>
<path fill="none" stroke="midnightblue" d="M325.436,-235.298C272.429,-225.476 180.217,-208.388 118.16,-196.889"/>
<polygon fill="midnightblue" stroke="midnightblue" points="118.559,-193.403 108.089,-195.023 117.283,-200.286 118.559,-193.403"/>
</g>
<!-- Node18 -->
<g id="node45" class="node"><title>Node18</title>
<polygon fill="white" stroke="#bfbfbf" points="451.5,-175 451.5,-195 496.5,-195 496.5,-175 451.5,-175"/>
<text text-anchor="middle" x="474" y="-182" font-family="FreeSans" font-size="10.00">cstring</text>
</g>
<!-- Node1&#45;&gt;Node18 -->
<g id="edge54" class="edge"><title>Node1&#45;&gt;Node18</title>
<path fill="none" stroke="midnightblue" d="M385.638,-232.897C402.412,-223.804 427.286,-210.322 446.372,-199.976"/>
<polygon fill="midnightblue" stroke="midnightblue" points="448.093,-203.024 455.217,-195.182 444.757,-196.87 448.093,-203.024"/>
</g>
<!-- Node19 -->
<g id="node47" class="node"><title>Node19</title>
<polygon fill="white" stroke="#bfbfbf" points="513.5,-175 513.5,-195 562.5,-195 562.5,-175 513.5,-175"/>
<text text-anchor="middle" x="538" y="-182" font-family="FreeSans" font-size="10.00">fstream</text>
</g>
<!-- Node1&#45;&gt;Node19 -->
<g id="edge56" class="edge"><title>Node1&#45;&gt;Node19</title>
<path fill="none" stroke="midnightblue" d="M396.786,-232.897C426.575,-222.793 472.345,-207.269 503.649,-196.651"/>
<polygon fill="midnightblue" stroke="midnightblue" points="504.921,-199.916 513.266,-193.389 502.672,-193.287 504.921,-199.916"/>
</g>
<!-- Node3 -->
<g id="node5" class="node"><title>Node3</title>
<a xlink:href="ct__defs_8h.html" target="_top" xlink:title="This file contains definitions of terms that are used in internal routines and are unlikely to need m...">
<polygon fill="white" stroke="black" points="179,-59 179,-79 293,-79 293,-59 179,-59"/>
<text text-anchor="middle" x="236" y="-66" font-family="FreeSans" font-size="10.00">cantera/base/ct_defs.h</text>
</a>
</g>
<!-- Node2&#45;&gt;Node3 -->
<g id="edge4" class="edge"><title>Node2&#45;&gt;Node3</title>
<path fill="none" stroke="midnightblue" d="M220.763,-174.895C208.129,-166.766 192.314,-154.062 185,-138 175.928,-118.078 194.077,-98.291 211.184,-85.0489"/>
<polygon fill="midnightblue" stroke="midnightblue" points="213.339,-87.8096 219.375,-79.1021 209.227,-82.1451 213.339,-87.8096"/>
</g>
<!-- Node2&#45;&gt;Node10 -->
<g id="edge18" class="edge"><title>Node2&#45;&gt;Node10</title>
<path fill="none" stroke="midnightblue" d="M216.182,-174.897C195.178,-165.598 163.803,-151.707 140.242,-141.275"/>
<polygon fill="midnightblue" stroke="midnightblue" points="141.557,-138.03 130.997,-137.182 138.723,-144.431 141.557,-138.03"/>
</g>
<!-- Node2&#45;&gt;Node11 -->
<g id="edge22" class="edge"><title>Node2&#45;&gt;Node11</title>
<path fill="none" stroke="midnightblue" d="M258.683,-174.897C276.479,-165.763 302.905,-152.199 323.098,-141.835"/>
<polygon fill="midnightblue" stroke="midnightblue" points="324.865,-144.862 332.163,-137.182 321.669,-138.634 324.865,-144.862"/>
</g>
<!-- Node2&#45;&gt;Node13 -->
<g id="edge28" class="edge"><title>Node2&#45;&gt;Node13</title>
<path fill="none" stroke="midnightblue" d="M307.699,-174.963C377.221,-164.807 484.571,-149.123 557.433,-138.478"/>
<polygon fill="midnightblue" stroke="midnightblue" points="558.089,-141.92 567.478,-137.011 557.077,-134.993 558.089,-141.92"/>
</g>
<!-- Node15 -->
<g id="node32" class="node"><title>Node15</title>
<a xlink:href="GeneralMatrix_8h.html" target="_top" xlink:title="Declarations for the class GeneralMatrix which is a virtual base class for matrices handled by solver...">
<polygon fill="white" stroke="black" points="194,-117 194,-137 278,-137 278,-117 194,-117"/>
<text text-anchor="middle" x="236" y="-124" font-family="FreeSans" font-size="10.00">GeneralMatrix.h</text>
</a>
</g>
<!-- Node2&#45;&gt;Node15 -->
<g id="edge34" class="edge"><title>Node2&#45;&gt;Node15</title>
<path fill="none" stroke="midnightblue" d="M238.477,-174.897C238.087,-167.339 237.539,-156.748 237.058,-147.446"/>
<polygon fill="midnightblue" stroke="midnightblue" points="240.549,-147.183 236.537,-137.378 233.558,-147.545 240.549,-147.183"/>
</g>
<!-- Node4 -->
<g id="node7" class="node"><title>Node4</title>
<a xlink:href="config_8h_source.html" target="_top" xlink:title="config.h">
<polygon fill="white" stroke="black" points="84,-1 84,-21 134,-21 134,-1 84,-1"/>
<text text-anchor="middle" x="109" y="-8" font-family="FreeSans" font-size="10.00">config.h</text>
</a>
</g>
<!-- Node3&#45;&gt;Node4 -->
<g id="edge6" class="edge"><title>Node3&#45;&gt;Node4</title>
<path fill="none" stroke="midnightblue" d="M213.878,-58.8972C193.606,-49.6391 163.369,-35.83 140.563,-25.4145"/>
<polygon fill="midnightblue" stroke="midnightblue" points="141.845,-22.1522 131.294,-21.1817 138.937,-28.5196 141.845,-22.1522"/>
</g>
<!-- Node5 -->
<g id="node9" class="node"><title>Node5</title>
<polygon fill="white" stroke="#bfbfbf" points="152,-1 152,-21 196,-21 196,-1 152,-1"/>
<text text-anchor="middle" x="174" y="-8" font-family="FreeSans" font-size="10.00">cmath</text>
</g>
<!-- Node3&#45;&gt;Node5 -->
<g id="edge8" class="edge"><title>Node3&#45;&gt;Node5</title>
<path fill="none" stroke="midnightblue" d="M225.2,-58.8972C216.243,-50.5175 203.3,-38.4093 192.668,-28.4638"/>
<polygon fill="midnightblue" stroke="midnightblue" points="194.787,-25.6532 185.093,-21.3776 190.005,-30.7652 194.787,-25.6532"/>
</g>
<!-- Node6 -->
<g id="node11" class="node"><title>Node6</title>
<polygon fill="white" stroke="#bfbfbf" points="214,-1 214,-21 258,-21 258,-1 214,-1"/>
<text text-anchor="middle" x="236" y="-8" font-family="FreeSans" font-size="10.00">cstdlib</text>
</g>
<!-- Node3&#45;&gt;Node6 -->
<g id="edge10" class="edge"><title>Node3&#45;&gt;Node6</title>
<path fill="none" stroke="midnightblue" d="M236,-58.8972C236,-51.339 236,-40.7476 236,-31.4458"/>
<polygon fill="midnightblue" stroke="midnightblue" points="239.5,-31.3776 236,-21.3776 232.5,-31.3776 239.5,-31.3776"/>
</g>
<!-- Node7 -->
<g id="node13" class="node"><title>Node7</title>
<polygon fill="white" stroke="#bfbfbf" points="275.5,-1 275.5,-21 318.5,-21 318.5,-1 275.5,-1"/>
<text text-anchor="middle" x="297" y="-8" font-family="FreeSans" font-size="10.00">vector</text>
</g>
<!-- Node3&#45;&gt;Node7 -->
<g id="edge12" class="edge"><title>Node3&#45;&gt;Node7</title>
<path fill="none" stroke="midnightblue" d="M246.625,-58.8972C255.439,-50.5175 268.173,-38.4093 278.633,-28.4638"/>
<polygon fill="midnightblue" stroke="midnightblue" points="281.25,-30.8047 286.086,-21.3776 276.427,-25.7318 281.25,-30.8047"/>
</g>
<!-- Node8 -->
<g id="node15" class="node"><title>Node8</title>
<polygon fill="white" stroke="#bfbfbf" points="335.5,-1 335.5,-21 370.5,-21 370.5,-1 335.5,-1"/>
<text text-anchor="middle" x="353" y="-8" font-family="FreeSans" font-size="10.00">map</text>
</g>
<!-- Node3&#45;&gt;Node8 -->
<g id="edge14" class="edge"><title>Node3&#45;&gt;Node8</title>
<path fill="none" stroke="midnightblue" d="M256.38,-58.8972C275.684,-49.3278 304.796,-34.896 326.019,-24.3754"/>
<polygon fill="midnightblue" stroke="midnightblue" points="327.746,-27.4258 335.151,-19.8484 324.637,-21.1541 327.746,-27.4258"/>
</g>
<!-- Node9 -->
<g id="node17" class="node"><title>Node9</title>
<polygon fill="white" stroke="#bfbfbf" points="468,-1 468,-21 508,-21 508,-1 468,-1"/>
<text text-anchor="middle" x="488" y="-8" font-family="FreeSans" font-size="10.00">string</text>
</g>
<!-- Node3&#45;&gt;Node9 -->
<g id="edge16" class="edge"><title>Node3&#45;&gt;Node9</title>
<path fill="none" stroke="midnightblue" d="M279.607,-58.9634C330.6,-47.227 413.652,-28.1117 457.945,-17.9175"/>
<polygon fill="midnightblue" stroke="midnightblue" points="458.853,-21.3 467.813,-15.6461 457.283,-14.4783 458.853,-21.3"/>
</g>
<!-- Node10&#45;&gt;Node3 -->
<g id="edge20" class="edge"><title>Node10&#45;&gt;Node3</title>
<path fill="none" stroke="midnightblue" d="M130.296,-116.897C150.727,-107.639 181.203,-93.83 204.189,-83.4145"/>
<polygon fill="midnightblue" stroke="midnightblue" points="205.866,-86.497 213.53,-79.1817 202.977,-80.121 205.866,-86.497"/>
</g>
<!-- Node11&#45;&gt;Node3 -->
<g id="edge24" class="edge"><title>Node11&#45;&gt;Node3</title>
<path fill="none" stroke="midnightblue" d="M331.794,-116.897C313.444,-107.722 286.152,-94.0762 265.389,-83.6943"/>
<polygon fill="midnightblue" stroke="midnightblue" points="266.873,-80.5234 256.363,-79.1817 263.742,-86.7844 266.873,-80.5234"/>
</g>
<!-- Node12 -->
<g id="node25" class="node"><title>Node12</title>
<polygon fill="white" stroke="#bfbfbf" points="324,-59 324,-79 380,-79 380,-59 324,-59"/>
<text text-anchor="middle" x="352" y="-66" font-family="FreeSans" font-size="10.00">algorithm</text>
</g>
<!-- Node11&#45;&gt;Node12 -->
<g id="edge26" class="edge"><title>Node11&#45;&gt;Node12</title>
<path fill="none" stroke="midnightblue" d="M352,-116.897C352,-109.339 352,-98.7476 352,-89.4458"/>
<polygon fill="midnightblue" stroke="midnightblue" points="355.5,-89.3776 352,-79.3776 348.5,-89.3776 355.5,-89.3776"/>
</g>
<!-- Node13&#45;&gt;Node9 -->
<g id="edge32" class="edge"><title>Node13&#45;&gt;Node9</title>
<path fill="none" stroke="midnightblue" d="M635.98,-116.714C635.397,-101.873 632.164,-74.4395 617,-58 591.236,-30.0682 547.533,-18.698 518.226,-14.0944"/>
<polygon fill="midnightblue" stroke="midnightblue" points="518.528,-10.6027 508.14,-12.6864 517.56,-17.5355 518.528,-10.6027"/>
</g>
<!-- Node14 -->
<g id="node29" class="node"><title>Node14</title>
<polygon fill="white" stroke="#bfbfbf" points="550,-59 550,-79 608,-79 608,-59 550,-59"/>
<text text-anchor="middle" x="579" y="-66" font-family="FreeSans" font-size="10.00">exception</text>
</g>
<!-- Node13&#45;&gt;Node14 -->
<g id="edge30" class="edge"><title>Node13&#45;&gt;Node14</title>
<path fill="none" stroke="midnightblue" d="M626.071,-116.897C617.917,-108.6 606.17,-96.6463 596.451,-86.7569"/>
<polygon fill="midnightblue" stroke="midnightblue" points="598.704,-84.0566 589.199,-79.3776 593.712,-88.9632 598.704,-84.0566"/>
</g>
<!-- Node15&#45;&gt;Node3 -->
<g id="edge36" class="edge"><title>Node15&#45;&gt;Node3</title>
<path fill="none" stroke="midnightblue" d="M236,-116.897C236,-109.339 236,-98.7476 236,-89.4458"/>
<polygon fill="midnightblue" stroke="midnightblue" points="239.5,-89.3776 236,-79.3776 232.5,-89.3776 239.5,-89.3776"/>
</g>
<!-- Node16&#45;&gt;Node3 -->
<g id="edge46" class="edge"><title>Node16&#45;&gt;Node3</title>
<path fill="none" stroke="midnightblue" d="M444.393,-116.963C401.346,-107.056 335.451,-91.8895 289.315,-81.2709"/>
<polygon fill="midnightblue" stroke="midnightblue" points="290.025,-77.843 279.495,-79.0108 288.455,-84.6646 290.025,-77.843"/>
</g>
<!-- Node16&#45;&gt;Node9 -->
<g id="edge48" class="edge"><title>Node16&#45;&gt;Node9</title>
<path fill="none" stroke="midnightblue" d="M488,-116.706C488,-97.5683 488,-56.1978 488,-31.2654"/>
<polygon fill="midnightblue" stroke="midnightblue" points="491.5,-31.1055 488,-21.1055 484.5,-31.1056 491.5,-31.1055"/>
</g>
<!-- Node17&#45;&gt;Node3 -->
<g id="edge52" class="edge"><title>Node17&#45;&gt;Node3</title>
<path fill="none" stroke="midnightblue" d="M53.1818,-174.615C52.6033,-159.652 53.8742,-132.066 69,-116 82.9418,-101.191 128.652,-88.9267 168.732,-80.6432"/>
<polygon fill="midnightblue" stroke="midnightblue" points="169.663,-84.0261 178.777,-78.6239 168.284,-77.1634 169.663,-84.0261"/>
</g>
</g>
</svg>
