<?xml version="1.0" encoding="UTF-8" standalone="no"?>
<!DOCTYPE svg PUBLIC "-//W3C//DTD SVG 1.1//EN"
 "http://www.w3.org/Graphics/SVG/1.1/DTD/svg11.dtd">
<!-- Generated by graphviz version 2.38.0 (20151222.1943)
 -->
<!-- Title: BandMatrix.cpp Pages: 1 -->
<svg width="744pt" height="252pt"
 viewBox="0.00 0.00 743.50 252.00" xmlns="http://www.w3.org/2000/svg" xmlns:xlink="http://www.w3.org/1999/xlink">
<g id="graph0" class="graph" transform="scale(1 1) rotate(0) translate(4 248)">
<title>BandMatrix.cpp</title>
<polygon fill="white" stroke="none" points="-4,4 -4,-248 739.5,-248 739.5,4 -4,4"/>
<!-- Node1 -->
<g id="node1" class="node"><title>Node1</title>
<polygon fill="#bfbfbf" stroke="black" points="495.5,-224.5 495.5,-243.5 578.5,-243.5 578.5,-224.5 495.5,-224.5"/>
<text text-anchor="middle" x="537" y="-231.5" font-family="FreeSans" font-size="10.00">BandMatrix.cpp</text>
</g>
<!-- Node2 -->
<g id="node2" class="node"><title>Node2</title>
<g id="a_node2"><a xlink:href="BandMatrix_8h.html" target="_top" xlink:title="Declarations for the class BandMatrix which is a child class of GeneralMatrix for banded matrices han...">
<polygon fill="white" stroke="black" points="270,-168.5 270,-187.5 420,-187.5 420,-168.5 270,-168.5"/>
<text text-anchor="middle" x="345" y="-175.5" font-family="FreeSans" font-size="10.00">cantera/numerics/BandMatrix.h</text>
</a>
</g>
</g>
<!-- Node1&#45;&gt;Node2 -->
<g id="edge1" class="edge"><title>Node1&#45;&gt;Node2</title>
<path fill="none" stroke="midnightblue" d="M506.577,-224.444C473.715,-215.201 421.215,-200.436 385.026,-190.257"/>
<polygon fill="midnightblue" stroke="midnightblue" points="385.855,-186.855 375.281,-187.516 383.96,-193.593 385.855,-186.855"/>
</g>
<!-- Node16 -->
<g id="node16" class="node"><title>Node16</title>
<g id="a_node16"><a xlink:href="ctlapack_8h.html" target="_top" xlink:title="cantera/numerics/ctlapack.h">
<polygon fill="white" stroke="black" points="114,-168.5 114,-187.5 252,-187.5 252,-168.5 114,-168.5"/>
<text text-anchor="middle" x="183" y="-175.5" font-family="FreeSans" font-size="10.00">cantera/numerics/ctlapack.h</text>
</a>
</g>
</g>
<!-- Node1&#45;&gt;Node16 -->
<g id="edge16" class="edge"><title>Node1&#45;&gt;Node16</title>
<path fill="none" stroke="midnightblue" d="M495.351,-226.647C434.517,-217.367 320.774,-200.016 248.623,-189.01"/>
<polygon fill="midnightblue" stroke="midnightblue" points="249.141,-185.549 238.727,-187.501 248.085,-192.469 249.141,-185.549"/>
</g>
<!-- Node17 -->
<g id="node17" class="node"><title>Node17</title>
<g id="a_node17"><a xlink:href="utilities_8h.html" target="_top" xlink:title="Various templated functions that carry out common vector operations (see Templated Utility Functions)...">
<polygon fill="white" stroke="black" points="438.5,-168.5 438.5,-187.5 551.5,-187.5 551.5,-168.5 438.5,-168.5"/>
<text text-anchor="middle" x="495" y="-175.5" font-family="FreeSans" font-size="10.00">cantera/base/utilities.h</text>
</a>
</g>
</g>
<!-- Node1&#45;&gt;Node17 -->
<g id="edge18" class="edge"><title>Node1&#45;&gt;Node17</title>
<path fill="none" stroke="midnightblue" d="M530.065,-224.083C524.071,-216.377 515.248,-205.033 507.952,-195.653"/>
<polygon fill="midnightblue" stroke="midnightblue" points="510.709,-193.496 501.806,-187.751 505.183,-197.793 510.709,-193.496"/>
</g>
<!-- Node21 -->
<g id="node21" class="node"><title>Node21</title>
<g id="a_node21"><a xlink:href="stringUtils_8h.html" target="_top" xlink:title="Contains declarations for string manipulation functions within Cantera. ">
<polygon fill="white" stroke="black" points="610.5,-112.5 610.5,-131.5 735.5,-131.5 735.5,-112.5 610.5,-112.5"/>
<text text-anchor="middle" x="673" y="-119.5" font-family="FreeSans" font-size="10.00">cantera/base/stringUtils.h</text>
</a>
</g>
</g>
<!-- Node1&#45;&gt;Node21 -->
<g id="edge25" class="edge"><title>Node1&#45;&gt;Node21</title>
<path fill="none" stroke="midnightblue" d="M544.159,-224.336C555.266,-211.208 577.701,-185.912 600,-168 614.854,-156.069 633.098,-144.821 647.632,-136.555"/>
<polygon fill="midnightblue" stroke="midnightblue" points="649.54,-139.499 656.574,-131.577 646.135,-133.383 649.54,-139.499"/>
</g>
<!-- Node22 -->
<g id="node22" class="node"><title>Node22</title>
<polygon fill="white" stroke="#bfbfbf" points="608.5,-168.5 608.5,-187.5 653.5,-187.5 653.5,-168.5 608.5,-168.5"/>
<text text-anchor="middle" x="631" y="-175.5" font-family="FreeSans" font-size="10.00">cstring</text>
</g>
<!-- Node1&#45;&gt;Node22 -->
<g id="edge29" class="edge"><title>Node1&#45;&gt;Node22</title>
<path fill="none" stroke="midnightblue" d="M552.103,-224.324C566.903,-215.822 589.694,-202.729 606.982,-192.797"/>
<polygon fill="midnightblue" stroke="midnightblue" points="609.007,-195.671 615.935,-187.655 605.52,-189.601 609.007,-195.671"/>
</g>
<!-- Node23 -->
<g id="node23" class="node"><title>Node23</title>
<polygon fill="white" stroke="#bfbfbf" points="671.5,-168.5 671.5,-187.5 720.5,-187.5 720.5,-168.5 671.5,-168.5"/>
<text text-anchor="middle" x="696" y="-175.5" font-family="FreeSans" font-size="10.00">fstream</text>
</g>
<!-- Node1&#45;&gt;Node23 -->
<g id="edge30" class="edge"><title>Node1&#45;&gt;Node23</title>
<path fill="none" stroke="midnightblue" d="M562.194,-224.444C589.1,-215.306 631.903,-200.769 661.832,-190.604"/>
<polygon fill="midnightblue" stroke="midnightblue" points="663.103,-193.869 671.446,-187.339 660.852,-187.241 663.103,-193.869"/>
</g>
<!-- Node3 -->
<g id="node3" class="node"><title>Node3</title>
<g id="a_node3"><a xlink:href="GeneralMatrix_8h.html" target="_top" xlink:title="Declarations for the class GeneralMatrix which is a virtual base class for matrices handled by solver...">
<polygon fill="white" stroke="black" points="295,-112.5 295,-131.5 379,-131.5 379,-112.5 295,-112.5"/>
<text text-anchor="middle" x="337" y="-119.5" font-family="FreeSans" font-size="10.00">GeneralMatrix.h</text>
</a>
</g>
</g>
<!-- Node2&#45;&gt;Node3 -->
<g id="edge2" class="edge"><title>Node2&#45;&gt;Node3</title>
<path fill="none" stroke="midnightblue" d="M343.679,-168.083C342.619,-160.927 341.094,-150.635 339.769,-141.691"/>
<polygon fill="midnightblue" stroke="midnightblue" points="343.224,-141.13 338.296,-131.751 336.3,-142.156 343.224,-141.13"/>
</g>
<!-- Node4 -->
<g id="node4" class="node"><title>Node4</title>
<g id="a_node4"><a xlink:href="ct__defs_8h.html" target="_top" xlink:title="This file contains definitions of terms that are used in internal routines and are unlikely to need m...">
<polygon fill="white" stroke="black" points="220,-56.5 220,-75.5 334,-75.5 334,-56.5 220,-56.5"/>
<text text-anchor="middle" x="277" y="-63.5" font-family="FreeSans" font-size="10.00">cantera/base/ct_defs.h</text>
</a>
</g>
</g>
<!-- Node3&#45;&gt;Node4 -->
<g id="edge3" class="edge"><title>Node3&#45;&gt;Node4</title>
<path fill="none" stroke="midnightblue" d="M327.36,-112.324C318.49,-104.341 305.125,-92.3128 294.392,-82.6529"/>
<polygon fill="midnightblue" stroke="midnightblue" points="296.59,-79.922 286.815,-75.8339 291.907,-85.1251 296.59,-79.922"/>
</g>
<!-- Node13 -->
<g id="node13" class="node"><title>Node13</title>
<g id="a_node13"><a xlink:href="ctexceptions_8h.html" target="_top" xlink:title="Definitions for the classes that are thrown when Cantera experiences an error condition (also contain...">
<polygon fill="white" stroke="black" points="469.5,-56.5 469.5,-75.5 606.5,-75.5 606.5,-56.5 469.5,-56.5"/>
<text text-anchor="middle" x="538" y="-63.5" font-family="FreeSans" font-size="10.00">cantera/base/ctexceptions.h</text>
</a>
</g>
</g>
<!-- Node3&#45;&gt;Node13 -->
<g id="edge12" class="edge"><title>Node3&#45;&gt;Node13</title>
<path fill="none" stroke="midnightblue" d="M368.849,-112.444C403.398,-103.162 458.682,-88.3093 496.583,-78.127"/>
<polygon fill="midnightblue" stroke="midnightblue" points="497.551,-81.4912 506.3,-75.5164 495.734,-74.7309 497.551,-81.4912"/>
</g>
<!-- Node5 -->
<g id="node5" class="node"><title>Node5</title>
<g id="a_node5"><a xlink:href="config_8h_source.html" target="_top" xlink:title="config.h">
<polygon fill="white" stroke="black" points="321,-0.5 321,-19.5 371,-19.5 371,-0.5 321,-0.5"/>
<text text-anchor="middle" x="346" y="-7.5" font-family="FreeSans" font-size="10.00">config.h</text>
</a>
</g>
</g>
<!-- Node4&#45;&gt;Node5 -->
<g id="edge4" class="edge"><title>Node4&#45;&gt;Node5</title>
<path fill="none" stroke="midnightblue" d="M288.086,-56.324C298.486,-48.1849 314.261,-35.8395 326.722,-26.0874"/>
<polygon fill="midnightblue" stroke="midnightblue" points="328.994,-28.7533 334.712,-19.8339 324.68,-23.2407 328.994,-28.7533"/>
</g>
<!-- Node6 -->
<g id="node6" class="node"><title>Node6</title>
<polygon fill="white" stroke="#bfbfbf" points="389,-0.5 389,-19.5 433,-19.5 433,-0.5 389,-0.5"/>
<text text-anchor="middle" x="411" y="-7.5" font-family="FreeSans" font-size="10.00">cmath</text>
</g>
<!-- Node4&#45;&gt;Node6 -->
<g id="edge5" class="edge"><title>Node4&#45;&gt;Node6</title>
<path fill="none" stroke="midnightblue" d="M298.233,-56.4435C320.384,-47.5171 355.319,-33.4387 380.436,-23.3168"/>
<polygon fill="midnightblue" stroke="midnightblue" points="381.9,-26.5006 389.867,-19.5164 379.283,-20.0079 381.9,-26.5006"/>
</g>
<!-- Node7 -->
<g id="node7" class="node"><title>Node7</title>
<polygon fill="white" stroke="#bfbfbf" points="0,-0.5 0,-19.5 44,-19.5 44,-0.5 0,-0.5"/>
<text text-anchor="middle" x="22" y="-7.5" font-family="FreeSans" font-size="10.00">cstdlib</text>
</g>
<!-- Node4&#45;&gt;Node7 -->
<g id="edge6" class="edge"><title>Node4&#45;&gt;Node7</title>
<path fill="none" stroke="midnightblue" d="M228.236,-56.4294C184.908,-48.539 119.663,-35.9868 54.3471,-20.1756"/>
<polygon fill="midnightblue" stroke="midnightblue" points="54.8359,-16.692 44.2905,-17.715 53.1722,-23.4915 54.8359,-16.692"/>
</g>
<!-- Node8 -->
<g id="node8" class="node"><title>Node8</title>
<polygon fill="white" stroke="#bfbfbf" points="62.5,-0.5 62.5,-19.5 105.5,-19.5 105.5,-0.5 62.5,-0.5"/>
<text text-anchor="middle" x="84" y="-7.5" font-family="FreeSans" font-size="10.00">vector</text>
</g>
<!-- Node4&#45;&gt;Node8 -->
<g id="edge7" class="edge"><title>Node4&#45;&gt;Node8</title>
<path fill="none" stroke="midnightblue" d="M245.389,-56.4952C214.498,-48.1352 165.898,-34.8537 115.397,-20.3621"/>
<polygon fill="midnightblue" stroke="midnightblue" points="116.191,-16.9487 105.613,-17.5461 114.255,-23.6756 116.191,-16.9487"/>
</g>
<!-- Node9 -->
<g id="node9" class="node"><title>Node9</title>
<polygon fill="white" stroke="#bfbfbf" points="123.5,-0.5 123.5,-19.5 158.5,-19.5 158.5,-0.5 123.5,-0.5"/>
<text text-anchor="middle" x="141" y="-7.5" font-family="FreeSans" font-size="10.00">map</text>
</g>
<!-- Node4&#45;&gt;Node9 -->
<g id="edge8" class="edge"><title>Node4&#45;&gt;Node9</title>
<path fill="none" stroke="midnightblue" d="M255.45,-56.4435C231.779,-47.0445 193.722,-31.9336 168.059,-21.7438"/>
<polygon fill="midnightblue" stroke="midnightblue" points="169.142,-18.4084 158.557,-17.971 166.559,-24.9143 169.142,-18.4084"/>
</g>
<!-- Node10 -->
<g id="node10" class="node"><title>Node10</title>
<polygon fill="white" stroke="#bfbfbf" points="451,-0.5 451,-19.5 491,-19.5 491,-0.5 451,-0.5"/>
<text text-anchor="middle" x="471" y="-7.5" font-family="FreeSans" font-size="10.00">string</text>
</g>
<!-- Node4&#45;&gt;Node10 -->
<g id="edge9" class="edge"><title>Node4&#45;&gt;Node10</title>
<path fill="none" stroke="midnightblue" d="M309.653,-56.4521C340.988,-48.1704 389.874,-35.0459 440.864,-20.2622"/>
<polygon fill="midnightblue" stroke="midnightblue" points="442.123,-23.541 450.746,-17.384 440.166,-16.8203 442.123,-23.541"/>
</g>
<!-- Node11 -->
<g id="node11" class="node"><title>Node11</title>
<polygon fill="white" stroke="#bfbfbf" points="177,-0.5 177,-19.5 233,-19.5 233,-0.5 177,-0.5"/>
<text text-anchor="middle" x="205" y="-7.5" font-family="FreeSans" font-size="10.00">algorithm</text>
</g>
<!-- Node4&#45;&gt;Node11 -->
<g id="edge10" class="edge"><title>Node4&#45;&gt;Node11</title>
<path fill="none" stroke="midnightblue" d="M265.432,-56.324C254.58,-48.1849 238.119,-35.8395 225.117,-26.0874"/>
<polygon fill="midnightblue" stroke="midnightblue" points="226.879,-23.0339 216.779,-19.8339 222.679,-28.6339 226.879,-23.0339"/>
</g>
<!-- Node12 -->
<g id="node12" class="node"><title>Node12</title>
<polygon fill="white" stroke="#bfbfbf" points="251.5,-0.5 251.5,-19.5 302.5,-19.5 302.5,-0.5 251.5,-0.5"/>
<text text-anchor="middle" x="277" y="-7.5" font-family="FreeSans" font-size="10.00">memory</text>
</g>
<!-- Node4&#45;&gt;Node12 -->
<g id="edge11" class="edge"><title>Node4&#45;&gt;Node12</title>
<path fill="none" stroke="midnightblue" d="M277,-56.083C277,-49.0059 277,-38.8611 277,-29.9865"/>
<polygon fill="midnightblue" stroke="midnightblue" points="280.5,-29.751 277,-19.7511 273.5,-29.7511 280.5,-29.751"/>
</g>
<!-- Node13&#45;&gt;Node10 -->
<g id="edge14" class="edge"><title>Node13&#45;&gt;Node10</title>
<path fill="none" stroke="midnightblue" d="M527.235,-56.324C517.234,-48.2631 502.113,-36.0765 490.07,-26.3695"/>
<polygon fill="midnightblue" stroke="midnightblue" points="491.943,-23.3841 481.961,-19.8339 487.55,-28.8343 491.943,-23.3841"/>
</g>
<!-- Node14 -->
<g id="node14" class="node"><title>Node14</title>
<polygon fill="white" stroke="#bfbfbf" points="509,-0.5 509,-19.5 567,-19.5 567,-0.5 509,-0.5"/>
<text text-anchor="middle" x="538" y="-7.5" font-family="FreeSans" font-size="10.00">exception</text>
</g>
<!-- Node13&#45;&gt;Node14 -->
<g id="edge13" class="edge"><title>Node13&#45;&gt;Node14</title>
<path fill="none" stroke="midnightblue" d="M538,-56.083C538,-49.0059 538,-38.8611 538,-29.9865"/>
<polygon fill="midnightblue" stroke="midnightblue" points="541.5,-29.751 538,-19.7511 534.5,-29.7511 541.5,-29.751"/>
</g>
<!-- Node15 -->
<g id="node15" class="node"><title>Node15</title>
<polygon fill="white" stroke="#bfbfbf" points="585.5,-0.5 585.5,-19.5 688.5,-19.5 688.5,-0.5 585.5,-0.5"/>
<text text-anchor="middle" x="637" y="-7.5" font-family="FreeSans" font-size="10.00">cantera/ext/format.h</text>
</g>
<!-- Node13&#45;&gt;Node15 -->
<g id="edge15" class="edge"><title>Node13&#45;&gt;Node15</title>
<path fill="none" stroke="midnightblue" d="M553.906,-56.324C569.638,-47.7428 593.942,-34.486 612.209,-24.5224"/>
<polygon fill="midnightblue" stroke="midnightblue" points="614.03,-27.5157 621.133,-19.6545 610.678,-21.3704 614.03,-27.5157"/>
</g>
<!-- Node16&#45;&gt;Node4 -->
<g id="edge17" class="edge"><title>Node16&#45;&gt;Node4</title>
<path fill="none" stroke="midnightblue" d="M190.376,-168.368C206.026,-150.055 242.776,-107.049 263.018,-83.3624"/>
<polygon fill="midnightblue" stroke="midnightblue" points="265.823,-85.4676 269.658,-75.5914 260.501,-80.92 265.823,-85.4676"/>
</g>
<!-- Node17&#45;&gt;Node4 -->
<g id="edge19" class="edge"><title>Node17&#45;&gt;Node4</title>
<path fill="none" stroke="midnightblue" d="M440.08,-168.497C381.758,-158.953 296.51,-143.324 286,-132 274.748,-119.877 273.364,-100.598 274.274,-86.1788"/>
<polygon fill="midnightblue" stroke="midnightblue" points="277.791,-86.1967 275.351,-75.8867 270.829,-85.4681 277.791,-86.1967"/>
</g>
<!-- Node18 -->
<g id="node18" class="node"><title>Node18</title>
<g id="a_node18"><a xlink:href="global_8h.html" target="_top" xlink:title="This file contains definitions for utility functions and text for modules, inputfiles, logs, textlogs, (see Input File Handling, Diagnostic Output, and Writing messages to the screen). ">
<polygon fill="white" stroke="black" points="542,-112.5 542,-131.5 592,-131.5 592,-112.5 542,-112.5"/>
<text text-anchor="middle" x="567" y="-119.5" font-family="FreeSans" font-size="10.00">global.h</text>
</a>
</g>
</g>
<!-- Node17&#45;&gt;Node18 -->
<g id="edge20" class="edge"><title>Node17&#45;&gt;Node18</title>
<path fill="none" stroke="midnightblue" d="M506.568,-168.324C517.42,-160.185 533.881,-147.839 546.883,-138.087"/>
<polygon fill="midnightblue" stroke="midnightblue" points="549.321,-140.634 555.221,-131.834 545.121,-135.034 549.321,-140.634"/>
</g>
<!-- Node19 -->
<g id="node19" class="node"><title>Node19</title>
<polygon fill="white" stroke="#bfbfbf" points="466,-112.5 466,-131.5 524,-131.5 524,-112.5 466,-112.5"/>
<text text-anchor="middle" x="495" y="-119.5" font-family="FreeSans" font-size="10.00">stdexcept</text>
</g>
<!-- Node17&#45;&gt;Node19 -->
<g id="edge23" class="edge"><title>Node17&#45;&gt;Node19</title>
<path fill="none" stroke="midnightblue" d="M495,-168.083C495,-161.006 495,-150.861 495,-141.986"/>
<polygon fill="midnightblue" stroke="midnightblue" points="498.5,-141.751 495,-131.751 491.5,-141.751 498.5,-141.751"/>
</g>
<!-- Node20 -->
<g id="node20" class="node"><title>Node20</title>
<polygon fill="white" stroke="#bfbfbf" points="396.5,-112.5 396.5,-131.5 447.5,-131.5 447.5,-112.5 396.5,-112.5"/>
<text text-anchor="middle" x="422" y="-119.5" font-family="FreeSans" font-size="10.00">numeric</text>
</g>
<!-- Node17&#45;&gt;Node20 -->
<g id="edge24" class="edge"><title>Node17&#45;&gt;Node20</title>
<path fill="none" stroke="midnightblue" d="M483.271,-168.324C472.163,-160.107 455.258,-147.602 442.017,-137.807"/>
<polygon fill="midnightblue" stroke="midnightblue" points="444.063,-134.967 433.942,-131.834 439.9,-140.595 444.063,-134.967"/>
</g>
<!-- Node18&#45;&gt;Node4 -->
<g id="edge21" class="edge"><title>Node18&#45;&gt;Node4</title>
<path fill="none" stroke="midnightblue" d="M541.807,-114.077C538.847,-113.339 535.863,-112.629 533,-112 469.059,-97.9439 395.373,-85.367 343.522,-77.1071"/>
<polygon fill="midnightblue" stroke="midnightblue" points="343.877,-73.6197 333.453,-75.5135 342.782,-80.5337 343.877,-73.6197"/>
</g>
<!-- Node18&#45;&gt;Node15 -->
<g id="edge22" class="edge"><title>Node18&#45;&gt;Node15</title>
<path fill="none" stroke="midnightblue" d="M579.565,-112.392C590.617,-104.216 606.398,-90.9729 616,-76 625.102,-61.8057 630.572,-43.3271 633.636,-29.7021"/>
<polygon fill="midnightblue" stroke="midnightblue" points="637.127,-30.0936 635.671,-19.5993 630.265,-28.7113 637.127,-30.0936"/>
</g>
<!-- Node21&#45;&gt;Node4 -->
<g id="edge26" class="edge"><title>Node21&#45;&gt;Node4</title>
<path fill="none" stroke="midnightblue" d="M610.253,-112.444C537.767,-102.559 418.957,-86.3578 344.511,-76.2061"/>
<polygon fill="midnightblue" stroke="midnightblue" points="344.692,-72.6984 334.311,-74.8151 343.746,-79.6342 344.692,-72.6984"/>
</g>
<!-- Node21&#45;&gt;Node10 -->
<g id="edge28" class="edge"><title>Node21&#45;&gt;Node10</title>
<path fill="none" stroke="midnightblue" d="M614.571,-112.49C554.947,-103.211 469.789,-88.0734 460,-76 449.327,-62.8371 454.68,-43.157 461.091,-28.9015"/>
<polygon fill="midnightblue" stroke="midnightblue" points="464.376,-30.1586 465.732,-19.6509 458.119,-27.0195 464.376,-30.1586"/>
</g>
<!-- Node21&#45;&gt;Node15 -->
<g id="edge27" class="edge"><title>Node21&#45;&gt;Node15</title>
<path fill="none" stroke="midnightblue" d="M670.175,-112.368C664.339,-94.5366 650.842,-53.2953 642.98,-29.2717"/>
<polygon fill="midnightblue" stroke="midnightblue" points="646.249,-28.0067 639.812,-19.5914 639.596,-30.1841 646.249,-28.0067"/>
</g>
</g>
</svg>
