<?xml version="1.0" encoding="UTF-8" standalone="no"?>
<!DOCTYPE svg PUBLIC "-//W3C//DTD SVG 1.1//EN"
 "http://www.w3.org/Graphics/SVG/1.1/DTD/svg11.dtd">
<!-- Generated by graphviz version 2.36.0 (20140111.2315)
 -->
<!-- Title: GasTransport Pages: 1 -->
<svg width="364pt" height="390pt"
 viewBox="0.00 0.00 364.00 390.00" xmlns="http://www.w3.org/2000/svg" xmlns:xlink="http://www.w3.org/1999/xlink">
<g id="graph0" class="graph" transform="scale(1 1) rotate(0) translate(4 386)">
<title>GasTransport</title>
<polygon fill="white" stroke="none" points="-4,4 -4,-386 360,-386 360,4 -4,4"/>
<!-- Node1 -->
<g id="node1" class="node"><title>Node1</title>
<polygon fill="#bfbfbf" stroke="black" points="218,-0.5 218,-19.5 292,-19.5 292,-0.5 218,-0.5"/>
<text text-anchor="middle" x="255" y="-7.5" font-family="FreeSans" font-size="10.00">GasTransport</text>
</g>
<!-- Node2 -->
<g id="node2" class="node"><title>Node2</title>
<g id="a_node2"><a xlink:href="classCantera_1_1Transport.html" target="_top" xlink:title="Base class for transport property managers. ">
<polygon fill="white" stroke="black" points="180.5,-156.5 180.5,-175.5 237.5,-175.5 237.5,-156.5 180.5,-156.5"/>
<text text-anchor="middle" x="209" y="-163.5" font-family="FreeSans" font-size="10.00">Transport</text>
</a>
</g>
</g>
<!-- Node2&#45;&gt;Node1 -->
<g id="edge1" class="edge"><title>Node2&#45;&gt;Node1</title>
<path fill="none" stroke="midnightblue" d="M214.55,-146.42C224.54,-112.974 245.185,-43.8604 252.424,-19.6253"/>
<polygon fill="midnightblue" stroke="midnightblue" points="211.113,-145.696 211.605,-156.279 217.821,-147.699 211.113,-145.696"/>
</g>
<!-- Node3 -->
<g id="node3" class="node"><title>Node3</title>
<g id="a_node3"><a xlink:href="classCantera_1_1ThermoPhase.html" target="_top" xlink:title="Base class for a phase with thermodynamic properties. ">
<polygon fill="white" stroke="black" points="170.5,-224.5 170.5,-243.5 247.5,-243.5 247.5,-224.5 170.5,-224.5"/>
<text text-anchor="middle" x="209" y="-231.5" font-family="FreeSans" font-size="10.00">ThermoPhase</text>
</a>
</g>
</g>
<!-- Node3&#45;&gt;Node2 -->
<g id="edge2" class="edge"><title>Node3&#45;&gt;Node2</title>
<path fill="none" stroke="#9a32cd" stroke-dasharray="5,2" d="M209,-214.041C209,-201.472 209,-185.563 209,-175.841"/>
<polygon fill="#9a32cd" stroke="#9a32cd" points="205.5,-214.372 209,-224.372 212.5,-214.372 205.5,-214.372"/>
<text text-anchor="middle" x="232" y="-197.5" font-family="FreeSans" font-size="10.00"> m_thermo</text>
</g>
<!-- Node4 -->
<g id="node4" class="node"><title>Node4</title>
<g id="a_node4"><a xlink:href="classCantera_1_1Phase.html" target="_top" xlink:title="Class Phase is the base class for phases of matter, managing the species and elements in a phase...">
<polygon fill="white" stroke="black" points="118,-292.5 118,-311.5 162,-311.5 162,-292.5 118,-292.5"/>
<text text-anchor="middle" x="140" y="-299.5" font-family="FreeSans" font-size="10.00">Phase</text>
</a>
</g>
</g>
<!-- Node4&#45;&gt;Node3 -->
<g id="edge3" class="edge"><title>Node4&#45;&gt;Node3</title>
<path fill="none" stroke="midnightblue" d="M156.296,-285.412C169.851,-272.447 188.66,-254.456 199.757,-243.841"/>
<polygon fill="midnightblue" stroke="midnightblue" points="153.828,-282.93 149.021,-292.372 158.666,-287.989 153.828,-282.93"/>
</g>
<!-- Node5 -->
<g id="node5" class="node"><title>Node5</title>
<g id="a_node5"><a xlink:href="classCantera_1_1XML__Node.html" target="_top" xlink:title="Class XML_Node is a tree&#45;based representation of the contents of an XML file. ">
<polygon fill="white" stroke="black" points="-0.5,-361.5 -0.5,-380.5 64.5,-380.5 64.5,-361.5 -0.5,-361.5"/>
<text text-anchor="middle" x="32" y="-368.5" font-family="FreeSans" font-size="10.00">XML_Node</text>
</a>
</g>
</g>
<!-- Node5&#45;&gt;Node4 -->
<g id="edge4" class="edge"><title>Node5&#45;&gt;Node4</title>
<path fill="none" stroke="#9a32cd" stroke-dasharray="5,2" d="M54.6907,-355.923C76.317,-342.507 108.179,-322.741 126.219,-311.549"/>
<polygon fill="#9a32cd" stroke="#9a32cd" points="52.7716,-352.995 46.1191,-361.241 56.4618,-358.943 52.7716,-352.995"/>
<text text-anchor="middle" x="111.5" y="-333.5" font-family="FreeSans" font-size="10.00"> m_xml</text>
</g>
<!-- Node5&#45;&gt;Node5 -->
<g id="edge5" class="edge"><title>Node5&#45;&gt;Node5</title>
<path fill="none" stroke="#9a32cd" stroke-dasharray="5,2" d="M74.791,-376.255C79.1888,-375.22 82,-373.468 82,-371 82,-366.949 74.4296,-364.829 64.7005,-364.639"/>
<polygon fill="#9a32cd" stroke="#9a32cd" points="74.2595,-372.792 64.7005,-377.361 75.0224,-379.75 74.2595,-372.792"/>
<text text-anchor="middle" x="102.5" y="-374" font-family="FreeSans" font-size="10.00"> m_root</text>
<text text-anchor="middle" x="102.5" y="-363" font-family="FreeSans" font-size="10.00">m_parent</text>
</g>
<!-- Node6 -->
<g id="node6" class="node"><title>Node6</title>
<g id="a_node6"><a xlink:href="classCantera_1_1ValueCache.html" target="_top" xlink:title="ValueCache">
<polygon fill="white" stroke="black" points="142,-361.5 142,-380.5 210,-380.5 210,-361.5 142,-361.5"/>
<text text-anchor="middle" x="176" y="-368.5" font-family="FreeSans" font-size="10.00">ValueCache</text>
</a>
</g>
</g>
<!-- Node6&#45;&gt;Node4 -->
<g id="edge6" class="edge"><title>Node6&#45;&gt;Node4</title>
<path fill="none" stroke="#9a32cd" stroke-dasharray="5,2" d="M166.43,-352.188C159.368,-339.046 150.07,-321.742 144.594,-311.549"/>
<polygon fill="#9a32cd" stroke="#9a32cd" points="163.477,-354.089 171.294,-361.241 169.644,-350.775 163.477,-354.089"/>
<text text-anchor="middle" x="182.5" y="-333.5" font-family="FreeSans" font-size="10.00"> m_cache</text>
</g>
<!-- Node7 -->
<g id="node7" class="node"><title>Node7</title>
<g id="a_node7"><a xlink:href="classCantera_1_1MultiSpeciesThermo.html" target="_top" xlink:title="A species thermodynamic property manager for a phase. ">
<polygon fill="white" stroke="black" points="180.5,-292.5 180.5,-311.5 285.5,-311.5 285.5,-292.5 180.5,-292.5"/>
<text text-anchor="middle" x="233" y="-299.5" font-family="FreeSans" font-size="10.00">MultiSpeciesThermo</text>
</a>
</g>
</g>
<!-- Node7&#45;&gt;Node3 -->
<g id="edge7" class="edge"><title>Node7&#45;&gt;Node3</title>
<path fill="none" stroke="#9a32cd" stroke-dasharray="5,2" d="M226.384,-282.807C221.773,-270.124 215.822,-253.762 212.215,-243.841"/>
<polygon fill="#9a32cd" stroke="#9a32cd" points="223.156,-284.17 229.862,-292.372 229.734,-281.778 223.156,-284.17"/>
<text text-anchor="middle" x="252" y="-265.5" font-family="FreeSans" font-size="10.00"> m_spthermo</text>
</g>
<!-- Node8 -->
<g id="node8" class="node"><title>Node8</title>
<g id="a_node8"><a xlink:href="classCantera_1_1DenseMatrix.html" target="_top" xlink:title="A class for full (non&#45;sparse) matrices with Fortran&#45;compatible data storage, which adds matrix operat...">
<polygon fill="white" stroke="black" points="256,-156.5 256,-175.5 326,-175.5 326,-156.5 256,-156.5"/>
<text text-anchor="middle" x="291" y="-163.5" font-family="FreeSans" font-size="10.00">DenseMatrix</text>
</a>
</g>
</g>
<!-- Node8&#45;&gt;Node1 -->
<g id="edge8" class="edge"><title>Node8&#45;&gt;Node1</title>
<path fill="none" stroke="#9a32cd" stroke-dasharray="5,2" d="M286.657,-146.42C278.838,-112.974 262.682,-43.8604 257.016,-19.6253"/>
<polygon fill="#9a32cd" stroke="#9a32cd" points="283.277,-147.338 288.961,-156.279 290.093,-145.745 283.277,-147.338"/>
<text text-anchor="middle" x="320.5" y="-129.5" font-family="FreeSans" font-size="10.00"> m_diam</text>
<text text-anchor="middle" x="320.5" y="-118.5" font-family="FreeSans" font-size="10.00">m_delta</text>
<text text-anchor="middle" x="320.5" y="-107.5" font-family="FreeSans" font-size="10.00">m_epsilon</text>
<text text-anchor="middle" x="320.5" y="-96.5" font-family="FreeSans" font-size="10.00">m_bdiff</text>
<text text-anchor="middle" x="320.5" y="-85.5" font-family="FreeSans" font-size="10.00">m_reducedMass</text>
<text text-anchor="middle" x="320.5" y="-74.5" font-family="FreeSans" font-size="10.00">m_phi</text>
<text text-anchor="middle" x="320.5" y="-63.5" font-family="FreeSans" font-size="10.00">m_wratkj1</text>
<text text-anchor="middle" x="320.5" y="-52.5" font-family="FreeSans" font-size="10.00">m_dipole</text>
<text text-anchor="middle" x="320.5" y="-41.5" font-family="FreeSans" font-size="10.00">m_wratjk</text>
</g>
<!-- Node9 -->
<g id="node9" class="node"><title>Node9</title>
<g id="a_node9"><a xlink:href="classCantera_1_1Array2D.html" target="_top" xlink:title="A class for 2D arrays stored in column&#45;major (Fortran&#45;compatible) form. ">
<polygon fill="white" stroke="black" points="265.5,-224.5 265.5,-243.5 316.5,-243.5 316.5,-224.5 265.5,-224.5"/>
<text text-anchor="middle" x="291" y="-231.5" font-family="FreeSans" font-size="10.00">Array2D</text>
</a>
</g>
</g>
<!-- Node9&#45;&gt;Node8 -->
<g id="edge9" class="edge"><title>Node9&#45;&gt;Node8</title>
<path fill="none" stroke="midnightblue" d="M291,-214.041C291,-201.472 291,-185.563 291,-175.841"/>
<polygon fill="midnightblue" stroke="midnightblue" points="287.5,-214.372 291,-224.372 294.5,-214.372 287.5,-214.372"/>
</g>
</g>
</svg>
