<?xml version="1.0" encoding="UTF-8" standalone="no"?>
<!DOCTYPE svg PUBLIC "-//W3C//DTD SVG 1.1//EN"
 "http://www.w3.org/Graphics/SVG/1.1/DTD/svg11.dtd">
<!-- Generated by graphviz version 2.26.3 (20100126.1600)
 -->
<!-- Title: FreeFlame Pages: 1 -->
<svg width="518pt" height="352pt"
 viewBox="0.00 0.00 518.00 352.00" xmlns="http://www.w3.org/2000/svg" xmlns:xlink="http://www.w3.org/1999/xlink">
<g id="graph1" class="graph" transform="scale(1 1) rotate(0) translate(4 348)">
<title>FreeFlame</title>
<polygon fill="white" stroke="white" points="-4,5 -4,-348 515,-348 515,5 -4,5"/>
<!-- Node1 -->
<g id="node1" class="node"><title>Node1</title>
<polygon fill="#bfbfbf" stroke="black" points="240.5,-1 240.5,-21 303.5,-21 303.5,-1 240.5,-1"/>
<text text-anchor="middle" x="272" y="-8" font-family="FreeSans" font-size="10.00">FreeFlame</text>
</g>
<!-- Node2 -->
<g id="node2" class="node"><title>Node2</title>
<a xlink:href="classCantera_1_1StFlow.html" target="_top" xlink:title="This class represents 1D flow domains that satisfy the one&#45;dimensional similarity solution for chemic...">
<polygon fill="white" stroke="black" points="248.5,-61 248.5,-81 295.5,-81 295.5,-61 248.5,-61"/>
<text text-anchor="middle" x="272" y="-68" font-family="FreeSans" font-size="10.00">StFlow</text>
</a>
</g>
<!-- Node2&#45;&gt;Node1 -->
<g id="edge2" class="edge"><title>Node2&#45;&gt;Node1</title>
<path fill="none" stroke="midnightblue" d="M272,-50.5155C272,-40.562 272,-29.0495 272,-21.0279"/>
<polygon fill="midnightblue" stroke="midnightblue" points="268.5,-50.8218 272,-60.8218 275.5,-50.8219 268.5,-50.8218"/>
</g>
<!-- Node3 -->
<g id="node4" class="node"><title>Node3</title>
<a xlink:href="classCantera_1_1Domain1D.html" target="_top" xlink:title="Base class for one&#45;dimensional domains. ">
<polygon fill="white" stroke="black" points="0,-168 0,-188 62,-188 62,-168 0,-168"/>
<text text-anchor="middle" x="31" y="-175" font-family="FreeSans" font-size="10.00">Domain1D</text>
</a>
</g>
<!-- Node3&#45;&gt;Node2 -->
<g id="edge4" class="edge"><title>Node3&#45;&gt;Node2</title>
<path fill="none" stroke="midnightblue" d="M72.2886,-169.6C88.9511,-164.961 107.791,-158.043 123,-148 146.655,-132.38 140.958,-115.017 165,-100 190.792,-83.8902 225.505,-76.6192 248.303,-73.4132"/>
<polygon fill="midnightblue" stroke="midnightblue" points="71.0499,-166.305 62.2471,-172.201 72.8053,-173.081 71.0499,-166.305"/>
</g>
<!-- Node3&#45;&gt;Node3 -->
<g id="edge6" class="edge"><title>Node3&#45;&gt;Node3</title>
<path fill="none" stroke="#9a32cd" stroke-dasharray="5,2" d="M72.1528,-183.751C76.9088,-182.685 80,-180.769 80,-178 80,-173.57 72.0865,-171.321 62.102,-171.252"/>
<polygon fill="#9a32cd" stroke="#9a32cd" points="71.7073,-180.278 62.102,-184.748 72.3988,-187.243 71.7073,-180.278"/>
<text text-anchor="middle" x="96.5" y="-181" font-family="FreeSans" font-size="10.00"> m_left</text>
<text text-anchor="middle" x="96.5" y="-169" font-family="FreeSans" font-size="10.00">m_right</text>
</g>
<!-- Node4 -->
<g id="node7" class="node"><title>Node4</title>
<a xlink:href="classCantera_1_1Refiner.html" target="_top" xlink:title="Refine Domain1D grids so that profiles satisfy adaptation tolerances. ">
<polygon fill="white" stroke="black" points="33.5,-61 33.5,-81 80.5,-81 80.5,-61 33.5,-61"/>
<text text-anchor="middle" x="57" y="-68" font-family="FreeSans" font-size="10.00">Refiner</text>
</a>
</g>
<!-- Node3&#45;&gt;Node4 -->
<g id="edge10" class="edge"><title>Node3&#45;&gt;Node4</title>
<path fill="none" stroke="#9a32cd" stroke-dasharray="5,2" d="M21.4979,-158.655C14.8637,-142.243 8.70848,-118.488 18,-100 21.9405,-92.1594 29.1158,-85.9032 36.2474,-81.238"/>
<polygon fill="#9a32cd" stroke="#9a32cd" points="18.3047,-160.088 25.5567,-167.812 24.7042,-157.251 18.3047,-160.088"/>
<text text-anchor="middle" x="42" y="-121" font-family="FreeSans" font-size="10.00"> m_domain</text>
</g>
<!-- Node4&#45;&gt;Node3 -->
<g id="edge8" class="edge"><title>Node4&#45;&gt;Node3</title>
<path fill="none" stroke="#9a32cd" stroke-dasharray="5,2" d="M67.0314,-90.4188C68.2583,-93.55 69.3181,-96.8116 70,-100 74.4619,-120.861 79.424,-128.861 70,-148 65.9245,-156.277 58.3466,-162.909 50.9467,-167.812"/>
<polygon fill="#9a32cd" stroke="#9a32cd" points="70.1237,-88.7638 62.7995,-81.1083 63.7511,-91.6603 70.1237,-88.7638"/>
<text text-anchor="middle" x="97.5" y="-121" font-family="FreeSans" font-size="10.00"> m_refiner</text>
</g>
<!-- Node5 -->
<g id="node10" class="node"><title>Node5</title>
<a xlink:href="classCantera_1_1OneDim.html" target="_top" xlink:title="Container class for multiple&#45;domain 1D problems. ">
<polygon fill="white" stroke="black" points="84,-239 84,-259 136,-259 136,-239 84,-239"/>
<text text-anchor="middle" x="110" y="-246" font-family="FreeSans" font-size="10.00">OneDim</text>
</a>
</g>
<!-- Node5&#45;&gt;Node3 -->
<g id="edge12" class="edge"><title>Node5&#45;&gt;Node3</title>
<path fill="none" stroke="#9a32cd" stroke-dasharray="5,2" d="M74.2243,-239.669C63.2578,-235.273 51.9911,-228.957 44,-220 36.0728,-211.115 32.9794,-197.462 31.7724,-188.152"/>
<polygon fill="#9a32cd" stroke="#9a32cd" points="73.0998,-242.984 83.6944,-243.057 75.4577,-236.393 73.0998,-242.984"/>
<text text-anchor="middle" x="72" y="-211" font-family="FreeSans" font-size="10.00"> m_container</text>
</g>
<!-- Node7 -->
<g id="node15" class="node"><title>Node7</title>
<a xlink:href="classCantera_1_1MultiJac.html" target="_top" xlink:title="Class MultiJac evaluates the Jacobian of a system of equations defined by a residual function supplie...">
<polygon fill="white" stroke="red" points="130.5,-168 130.5,-188 183.5,-188 183.5,-168 130.5,-168"/>
<text text-anchor="middle" x="157" y="-175" font-family="FreeSans" font-size="10.00">MultiJac</text>
</a>
</g>
<!-- Node5&#45;&gt;Node7 -->
<g id="edge20" class="edge"><title>Node5&#45;&gt;Node7</title>
<path fill="none" stroke="#9a32cd" stroke-dasharray="5,2" d="M104.091,-228.747C103.174,-221.787 103.492,-214.195 107,-208 112.137,-198.927 121.235,-192.298 130.274,-187.616"/>
<polygon fill="#9a32cd" stroke="#9a32cd" points="100.745,-229.832 106.271,-238.872 107.588,-228.359 100.745,-229.832"/>
<text text-anchor="middle" x="125.5" y="-211" font-family="FreeSans" font-size="10.00"> m_resid</text>
</g>
<!-- Node6 -->
<g id="node12" class="node"><title>Node6</title>
<a xlink:href="classCantera_1_1Func1.html" target="_top" xlink:title="Base class for &#39;functor&#39; classes that evaluate a function of one variable. ">
<polygon fill="white" stroke="black" points="29,-316 29,-336 73,-336 73,-316 29,-316"/>
<text text-anchor="middle" x="51" y="-323" font-family="FreeSans" font-size="10.00">Func1</text>
</a>
</g>
<!-- Node6&#45;&gt;Node5 -->
<g id="edge14" class="edge"><title>Node6&#45;&gt;Node5</title>
<path fill="none" stroke="#9a32cd" stroke-dasharray="5,2" d="M64.9345,-307.814C76.5249,-292.688 92.6076,-271.699 102.097,-259.315"/>
<polygon fill="#9a32cd" stroke="#9a32cd" points="62.0172,-305.867 58.7132,-315.934 67.5736,-310.125 62.0172,-305.867"/>
<text text-anchor="middle" x="114" y="-281" font-family="FreeSans" font-size="10.00"> m_interrupt</text>
</g>
<!-- Node6&#45;&gt;Node6 -->
<g id="edge16" class="edge"><title>Node6&#45;&gt;Node6</title>
<path fill="none" stroke="#9a32cd" stroke-dasharray="5,2" d="M83.4045,-333.048C87.9533,-331.899 91,-329.549 91,-326 91,-320.176 82.7952,-317.582 73.2124,-318.219"/>
<polygon fill="#9a32cd" stroke="#9a32cd" points="82.9358,-329.573 73.2124,-333.781 83.4375,-336.555 82.9358,-329.573"/>
<text text-anchor="middle" x="111.5" y="-335" font-family="FreeSans" font-size="10.00"> m_f1</text>
<text text-anchor="middle" x="111.5" y="-323" font-family="FreeSans" font-size="10.00">m_f2</text>
<text text-anchor="middle" x="111.5" y="-311" font-family="FreeSans" font-size="10.00">m_parent</text>
</g>
<!-- Node7&#45;&gt;Node2 -->
<g id="edge36" class="edge"><title>Node7&#45;&gt;Node2</title>
<path fill="none" stroke="#9a32cd" stroke-dasharray="5,2" d="M163.261,-158.231C169.7,-140.788 181.307,-115.754 199,-100 212.953,-87.5759 232.879,-80.1441 248.388,-75.9194"/>
<polygon fill="#9a32cd" stroke="#9a32cd" points="159.857,-157.366 159.911,-167.961 166.476,-159.645 159.857,-157.366"/>
<text text-anchor="middle" x="213.5" y="-121" font-family="FreeSans" font-size="10.00"> m_jac</text>
</g>
<!-- Node7&#45;&gt;Node5 -->
<g id="edge18" class="edge"><title>Node7&#45;&gt;Node5</title>
<path fill="none" stroke="#9a32cd" stroke-dasharray="5,2" d="M155.622,-198.023C154.393,-205.373 152.131,-213.483 148,-220 143.112,-227.71 135.409,-234.149 128.212,-238.985"/>
<polygon fill="#9a32cd" stroke="#9a32cd" points="159.101,-198.408 156.781,-188.07 152.148,-197.598 159.101,-198.408"/>
<text text-anchor="middle" x="167.5" y="-211" font-family="FreeSans" font-size="10.00"> m_jac</text>
</g>
<!-- Node8 -->
<g id="node18" class="node"><title>Node8</title>
<a xlink:href="classCantera_1_1MultiNewton.html" target="_top" xlink:title="Newton iterator for multi&#45;domain, one&#45;dimensional problems. ">
<polygon fill="white" stroke="black" points="150,-316 150,-336 220,-336 220,-316 150,-316"/>
<text text-anchor="middle" x="185" y="-323" font-family="FreeSans" font-size="10.00">MultiNewton</text>
</a>
</g>
<!-- Node8&#45;&gt;Node5 -->
<g id="edge22" class="edge"><title>Node8&#45;&gt;Node5</title>
<path fill="none" stroke="#9a32cd" stroke-dasharray="5,2" d="M170.64,-307.846C163.048,-298.604 153.378,-287.371 144,-278 137.305,-271.31 129.269,-264.41 122.691,-259.019"/>
<polygon fill="#9a32cd" stroke="#9a32cd" points="167.951,-310.088 176.96,-315.664 173.395,-305.687 167.951,-310.088"/>
<text text-anchor="middle" x="172.5" y="-281" font-family="FreeSans" font-size="10.00"> m_newt</text>
</g>
<!-- Node9 -->
<g id="node20" class="node"><title>Node9</title>
<a xlink:href="classCantera_1_1Transport.html" target="_top" xlink:title="Base class for transport property managers. ">
<polygon fill="white" stroke="black" points="200.5,-168 200.5,-188 257.5,-188 257.5,-168 200.5,-168"/>
<text text-anchor="middle" x="229" y="-175" font-family="FreeSans" font-size="10.00">Transport</text>
</a>
</g>
<!-- Node9&#45;&gt;Node2 -->
<g id="edge24" class="edge"><title>Node9&#45;&gt;Node2</title>
<path fill="none" stroke="#9a32cd" stroke-dasharray="5,2" d="M230.542,-157.776C232.445,-141.439 236.668,-118.247 246,-100 249.633,-92.8961 255.441,-86.1796 260.647,-81.0028"/>
<polygon fill="#9a32cd" stroke="#9a32cd" points="227.047,-157.553 229.561,-167.845 234.014,-158.232 227.047,-157.553"/>
<text text-anchor="middle" x="264.5" y="-121" font-family="FreeSans" font-size="10.00"> m_trans</text>
</g>
<!-- Node10 -->
<g id="node22" class="node"><title>Node10</title>
<a xlink:href="classCantera_1_1ThermoPhase.html" target="_top" xlink:title="Base class for a phase with thermodynamic properties. ">
<polygon fill="white" stroke="black" points="258.5,-239 258.5,-259 335.5,-259 335.5,-239 258.5,-239"/>
<text text-anchor="middle" x="297" y="-246" font-family="FreeSans" font-size="10.00">ThermoPhase</text>
</a>
</g>
<!-- Node10&#45;&gt;Node9 -->
<g id="edge26" class="edge"><title>Node10&#45;&gt;Node9</title>
<path fill="none" stroke="#9a32cd" stroke-dasharray="5,2" d="M269.529,-233.132C264.026,-229.248 258.546,-224.81 254,-220 245.024,-210.503 237.8,-197.233 233.469,-188.166"/>
<polygon fill="#9a32cd" stroke="#9a32cd" points="267.788,-236.177 278.065,-238.753 271.638,-230.33 267.788,-236.177"/>
<text text-anchor="middle" x="277" y="-211" font-family="FreeSans" font-size="10.00"> m_thermo</text>
</g>
<!-- Node15 -->
<g id="node33" class="node"><title>Node15</title>
<a xlink:href="classCantera_1_1IdealGasPhase.html" target="_top" xlink:title="Class IdealGasPhase represents low&#45;density gases that obey the ideal gas equation of state...">
<polygon fill="white" stroke="black" points="275,-168 275,-188 357,-188 357,-168 275,-168"/>
<text text-anchor="middle" x="316" y="-175" font-family="FreeSans" font-size="10.00">IdealGasPhase</text>
</a>
</g>
<!-- Node10&#45;&gt;Node15 -->
<g id="edge40" class="edge"><title>Node10&#45;&gt;Node15</title>
<path fill="none" stroke="midnightblue" d="M302.321,-229.117C305.887,-215.79 310.435,-198.796 313.283,-188.154"/>
<polygon fill="midnightblue" stroke="midnightblue" points="298.926,-228.263 299.722,-238.827 305.688,-230.072 298.926,-228.263"/>
</g>
<!-- Node11 -->
<g id="node24" class="node"><title>Node11</title>
<a xlink:href="classCantera_1_1Phase.html" target="_top" xlink:title="Base class for phases of matter. ">
<polygon fill="white" stroke="red" points="250,-316 250,-336 294,-336 294,-316 250,-316"/>
<text text-anchor="middle" x="272" y="-323" font-family="FreeSans" font-size="10.00">Phase</text>
</a>
</g>
<!-- Node11&#45;&gt;Node10 -->
<g id="edge28" class="edge"><title>Node11&#45;&gt;Node10</title>
<path fill="none" stroke="midnightblue" d="M278.463,-306.094C283.321,-291.131 289.781,-271.236 293.651,-259.315"/>
<polygon fill="midnightblue" stroke="midnightblue" points="275.028,-305.341 275.268,-315.934 281.685,-307.503 275.028,-305.341"/>
</g>
<!-- Node12 -->
<g id="node26" class="node"><title>Node12</title>
<a xlink:href="classCantera_1_1SpeciesThermo.html" target="_top" xlink:title="Pure Virtual base class for the species thermo manager classes. ">
<polygon fill="white" stroke="black" points="312,-316 312,-336 396,-336 396,-316 312,-316"/>
<text text-anchor="middle" x="354" y="-323" font-family="FreeSans" font-size="10.00">SpeciesThermo</text>
</a>
</g>
<!-- Node12&#45;&gt;Node10 -->
<g id="edge30" class="edge"><title>Node12&#45;&gt;Node10</title>
<path fill="none" stroke="#9a32cd" stroke-dasharray="5,2" d="M340.538,-307.814C329.34,-292.688 313.803,-271.699 304.636,-259.315"/>
<polygon fill="#9a32cd" stroke="#9a32cd" points="337.785,-309.979 346.548,-315.934 343.412,-305.814 337.785,-309.979"/>
<text text-anchor="middle" x="355" y="-281" font-family="FreeSans" font-size="10.00"> m_spthermo</text>
</g>
<!-- Node13 -->
<g id="node28" class="node"><title>Node13</title>
<a xlink:href="classCantera_1_1Kinetics.html" target="_top" xlink:title="Public interface for kinetics managers. ">
<polygon fill="white" stroke="black" points="374.5,-168 374.5,-188 425.5,-188 425.5,-168 374.5,-168"/>
<text text-anchor="middle" x="400" y="-175" font-family="FreeSans" font-size="10.00">Kinetics</text>
</a>
</g>
<!-- Node13&#45;&gt;Node2 -->
<g id="edge32" class="edge"><title>Node13&#45;&gt;Node2</title>
<path fill="none" stroke="#9a32cd" stroke-dasharray="5,2" d="M392.477,-158.589C384.76,-141.033 371.17,-115.612 352,-100 335.734,-86.7529 312.899,-79.2791 295.787,-75.2497"/>
<polygon fill="#9a32cd" stroke="#9a32cd" points="389.27,-159.992 396.34,-167.883 395.734,-157.305 389.27,-159.992"/>
<text text-anchor="middle" x="400.5" y="-121" font-family="FreeSans" font-size="10.00"> m_kin</text>
</g>
<!-- Node14 -->
<g id="node30" class="node"><title>Node14</title>
<a xlink:href="classCantera_1_1Array2D.html" target="_top" xlink:title="A class for 2D arrays stored in column&#45;major (Fortran&#45;compatible) form. ">
<polygon fill="white" stroke="black" points="442.5,-168 442.5,-188 493.5,-188 493.5,-168 442.5,-168"/>
<text text-anchor="middle" x="468" y="-175" font-family="FreeSans" font-size="10.00">Array2D</text>
</a>
</g>
<!-- Node14&#45;&gt;Node2 -->
<g id="edge34" class="edge"><title>Node14&#45;&gt;Node2</title>
<path fill="none" stroke="#9a32cd" stroke-dasharray="5,2" d="M460.973,-158.427C453.44,-140.356 439.696,-114.23 419,-100 399.28,-86.441 331.967,-77.3916 295.663,-73.3739"/>
<polygon fill="#9a32cd" stroke="#9a32cd" points="457.715,-159.704 464.61,-167.748 464.236,-157.16 457.715,-159.704"/>
<text text-anchor="middle" x="483" y="-139" font-family="FreeSans" font-size="10.00"> m_dthermal</text>
<text text-anchor="middle" x="483" y="-127" font-family="FreeSans" font-size="10.00">m_wdot</text>
<text text-anchor="middle" x="483" y="-115" font-family="FreeSans" font-size="10.00">m_fixedy</text>
<text text-anchor="middle" x="483" y="-103" font-family="FreeSans" font-size="10.00">m_flux</text>
</g>
<!-- Node15&#45;&gt;Node2 -->
<g id="edge38" class="edge"><title>Node15&#45;&gt;Node2</title>
<path fill="none" stroke="#9a32cd" stroke-dasharray="5,2" d="M307.92,-158.35C298.53,-135.516 283.398,-98.7189 276.142,-81.0723"/>
<polygon fill="#9a32cd" stroke="#9a32cd" points="304.741,-159.823 311.781,-167.74 311.215,-157.161 304.741,-159.823"/>
<text text-anchor="middle" x="325" y="-121" font-family="FreeSans" font-size="10.00"> m_thermo</text>
</g>
</g>
</svg>
