<?xml version="1.0" encoding="UTF-8" standalone="no"?>
<!DOCTYPE svg PUBLIC "-//W3C//DTD SVG 1.1//EN"
 "http://www.w3.org/Graphics/SVG/1.1/DTD/svg11.dtd">
<!-- Generated by graphviz version 2.26.3 (20100126.1600)
 -->
<!-- Title: vcs_VolPhase Pages: 1 -->
<svg width="641pt" height="280pt"
 viewBox="0.00 0.00 641.00 280.00" xmlns="http://www.w3.org/2000/svg" xmlns:xlink="http://www.w3.org/1999/xlink">
<g id="graph1" class="graph" transform="scale(1 1) rotate(0) translate(4 276)">
<title>vcs_VolPhase</title>
<polygon fill="white" stroke="white" points="-4,5 -4,-276 638,-276 638,5 -4,5"/>
<!-- Node1 -->
<g id="node1" class="node"><title>Node1</title>
<polygon fill="#bfbfbf" stroke="black" points="286.5,-1 286.5,-21 363.5,-21 363.5,-1 286.5,-1"/>
<text text-anchor="middle" x="325" y="-8" font-family="FreeSans" font-size="10.00">vcs_VolPhase</text>
</g>
<!-- Node2 -->
<g id="node2" class="node"><title>Node2</title>
<a xlink:href="classCantera_1_1ThermoPhase.html" target="_top" xlink:title="Base class for a phase with thermodynamic properties. ">
<polygon fill="white" stroke="black" points="75.5,-72 75.5,-92 152.5,-92 152.5,-72 75.5,-72"/>
<text text-anchor="middle" x="114" y="-79" font-family="FreeSans" font-size="10.00">ThermoPhase</text>
</a>
</g>
<!-- Node2&#45;&gt;Node1 -->
<g id="edge2" class="edge"><title>Node2&#45;&gt;Node1</title>
<path fill="none" stroke="#9a32cd" stroke-dasharray="5,2" d="M153.457,-68.7231C194.514,-54.9077 257.892,-33.5814 295.027,-21.0857"/>
<polygon fill="#9a32cd" stroke="#9a32cd" points="152.145,-65.4715 143.784,-71.978 154.378,-72.106 152.145,-65.4715"/>
<text text-anchor="middle" x="255" y="-43" font-family="FreeSans" font-size="10.00"> TP_ptr</text>
</g>
<!-- Node3 -->
<g id="node4" class="node"><title>Node3</title>
<a xlink:href="classCantera_1_1Phase.html" target="_top" xlink:title="Base class for phases of matter. ">
<polygon fill="white" stroke="black" points="10,-179 10,-199 54,-199 54,-179 10,-179"/>
<text text-anchor="middle" x="32" y="-186" font-family="FreeSans" font-size="10.00">Phase</text>
</a>
</g>
<!-- Node3&#45;&gt;Node2 -->
<g id="edge4" class="edge"><title>Node3&#45;&gt;Node2</title>
<path fill="none" stroke="midnightblue" d="M46.1233,-170.571C63.5371,-147.848 92.5138,-110.037 106.281,-92.0723"/>
<polygon fill="midnightblue" stroke="midnightblue" points="43.1673,-168.674 39.8625,-178.74 48.7233,-172.932 43.1673,-168.674"/>
</g>
<!-- Node4 -->
<g id="node6" class="node"><title>Node4</title>
<a xlink:href="classCantera_1_1XML__Node.html" target="_top" xlink:title="Class XML_Node is a tree&#45;based representation of the contents of an XML file. ">
<polygon fill="white" stroke="black" points="-0.5,-250 -0.5,-270 64.5,-270 64.5,-250 -0.5,-250"/>
<text text-anchor="middle" x="32" y="-257" font-family="FreeSans" font-size="10.00">XML_Node</text>
</a>
</g>
<!-- Node4&#45;&gt;Node3 -->
<g id="edge6" class="edge"><title>Node4&#45;&gt;Node3</title>
<path fill="none" stroke="#9a32cd" stroke-dasharray="5,2" d="M32,-239.72C32,-226.455 32,-209.691 32,-199.154"/>
<polygon fill="#9a32cd" stroke="#9a32cd" points="28.5001,-239.827 32,-249.827 35.5001,-239.827 28.5001,-239.827"/>
<text text-anchor="middle" x="47.5" y="-221" font-family="FreeSans" font-size="10.00"> m_xml</text>
</g>
<!-- Node4&#45;&gt;Node4 -->
<g id="edge8" class="edge"><title>Node4&#45;&gt;Node4</title>
<path fill="none" stroke="#9a32cd" stroke-dasharray="5,2" d="M74.791,-265.564C79.1888,-264.468 82,-262.614 82,-260 82,-255.711 74.4296,-253.466 64.7005,-253.265"/>
<polygon fill="#9a32cd" stroke="#9a32cd" points="74.2302,-262.105 64.7005,-266.735 75.0374,-269.059 74.2302,-262.105"/>
<text text-anchor="middle" x="102.5" y="-263" font-family="FreeSans" font-size="10.00"> m_root</text>
<text text-anchor="middle" x="102.5" y="-251" font-family="FreeSans" font-size="10.00">m_parent</text>
</g>
<!-- Node5 -->
<g id="node9" class="node"><title>Node5</title>
<a xlink:href="classCantera_1_1SpeciesThermo.html" target="_top" xlink:title="Pure Virtual base class for the species thermo manager classes. ">
<polygon fill="white" stroke="black" points="72,-179 72,-199 156,-199 156,-179 72,-179"/>
<text text-anchor="middle" x="114" y="-186" font-family="FreeSans" font-size="10.00">SpeciesThermo</text>
</a>
</g>
<!-- Node5&#45;&gt;Node2 -->
<g id="edge10" class="edge"><title>Node5&#45;&gt;Node2</title>
<path fill="none" stroke="#9a32cd" stroke-dasharray="5,2" d="M114,-168.73C114,-145.854 114,-109.56 114,-92.0723"/>
<polygon fill="#9a32cd" stroke="#9a32cd" points="110.5,-168.74 114,-178.74 117.5,-168.74 110.5,-168.74"/>
<text text-anchor="middle" x="142" y="-133" font-family="FreeSans" font-size="10.00"> m_spthermo</text>
</g>
<!-- Node6 -->
<g id="node11" class="node"><title>Node6</title>
<a xlink:href="classVCSnonideal_1_1VCS__SOLVE.html" target="_top" xlink:title="This is the main structure used to hold the internal data used in vcs_solve_TP(), and to solve TP sys...">
<polygon fill="white" stroke="black" points="288.5,-72 288.5,-92 361.5,-92 361.5,-72 288.5,-72"/>
<text text-anchor="middle" x="325" y="-79" font-family="FreeSans" font-size="10.00">VCS_SOLVE</text>
</a>
</g>
<!-- Node6&#45;&gt;Node1 -->
<g id="edge12" class="edge"><title>Node6&#45;&gt;Node1</title>
<path fill="none" stroke="#9a32cd" stroke-dasharray="5,2" d="M325,-61.7203C325,-48.4545 325,-31.6909 325,-21.1537"/>
<polygon fill="#9a32cd" stroke="#9a32cd" points="321.5,-61.8274 325,-71.8274 328.5,-61.8275 321.5,-61.8274"/>
<text text-anchor="middle" x="376" y="-43" font-family="FreeSans" font-size="10.00"> m_owningSolverObject</text>
</g>
<!-- Node7 -->
<g id="node13" class="node"><title>Node7</title>
<a xlink:href="classVCSnonideal_1_1IntStarStar.html" target="_top" xlink:title="A class for 2D int arrays stored in column&#45;major (Fortran&#45;compatible) form. ">
<polygon fill="white" stroke="black" points="174,-179 174,-199 238,-199 238,-179 174,-179"/>
<text text-anchor="middle" x="206" y="-186" font-family="FreeSans" font-size="10.00">IntStarStar</text>
</a>
</g>
<!-- Node7&#45;&gt;Node6 -->
<g id="edge14" class="edge"><title>Node7&#45;&gt;Node6</title>
<path fill="none" stroke="#9a32cd" stroke-dasharray="5,2" d="M205.72,-168.625C206.592,-151.386 210.595,-127.137 225,-112 233.872,-102.678 263.669,-94.4669 288.448,-89.0029"/>
<polygon fill="#9a32cd" stroke="#9a32cd" points="202.218,-168.708 205.522,-178.775 209.217,-168.845 202.218,-168.708"/>
<text text-anchor="middle" x="273" y="-133" font-family="FreeSans" font-size="10.00"> m_phaseParticipation</text>
</g>
<!-- Node8 -->
<g id="node15" class="node"><title>Node8</title>
<a xlink:href="classVCSnonideal_1_1VCS__COUNTERS.html" target="_top" xlink:title="Class to keep track of time and iterations. ">
<polygon fill="white" stroke="black" points="277.5,-179 277.5,-199 372.5,-199 372.5,-179 277.5,-179"/>
<text text-anchor="middle" x="325" y="-186" font-family="FreeSans" font-size="10.00">VCS_COUNTERS</text>
</a>
</g>
<!-- Node8&#45;&gt;Node6 -->
<g id="edge16" class="edge"><title>Node8&#45;&gt;Node6</title>
<path fill="none" stroke="#9a32cd" stroke-dasharray="5,2" d="M325,-168.73C325,-145.854 325,-109.56 325,-92.0723"/>
<polygon fill="#9a32cd" stroke="#9a32cd" points="321.5,-168.74 325,-178.74 328.5,-168.74 321.5,-168.74"/>
<text text-anchor="middle" x="349" y="-133" font-family="FreeSans" font-size="10.00"> m_VCount</text>
</g>
<!-- Node9 -->
<g id="node17" class="node"><title>Node9</title>
<a xlink:href="classVCSnonideal_1_1DoubleStarStar.html" target="_top" xlink:title="A class for 2D double arrays stored in column&#45;major (Fortran&#45;compatible) form. ">
<polygon fill="white" stroke="black" points="441.5,-179 441.5,-199 524.5,-199 524.5,-179 441.5,-179"/>
<text text-anchor="middle" x="483" y="-186" font-family="FreeSans" font-size="10.00">DoubleStarStar</text>
</a>
</g>
<!-- Node9&#45;&gt;Node1 -->
<g id="edge20" class="edge"><title>Node9&#45;&gt;Node1</title>
<path fill="none" stroke="#9a32cd" stroke-dasharray="5,2" d="M510.976,-172.665C515.026,-169.031 518.623,-164.805 521,-160 530.461,-140.879 530.241,-131.228 521,-112 492.147,-51.9668 411.969,-26.8817 363.565,-16.971"/>
<polygon fill="#9a32cd" stroke="#9a32cd" points="508.631,-170.053 502.832,-178.919 512.895,-175.604 508.631,-170.053"/>
<text text-anchor="middle" x="571" y="-85" font-family="FreeSans" font-size="10.00"> m_formulaMatrix</text>
<text text-anchor="middle" x="571" y="-73" font-family="FreeSans" font-size="10.00">np_dLnActCoeffdMolNumber</text>
</g>
<!-- Node9&#45;&gt;Node6 -->
<g id="edge18" class="edge"><title>Node9&#45;&gt;Node6</title>
<path fill="none" stroke="#9a32cd" stroke-dasharray="5,2" d="M431.608,-179.022C419.23,-174.743 406.775,-168.653 397,-160 379.287,-144.32 389.848,-129.562 374,-112 366.649,-103.854 356.569,-97.1697 347.461,-92.1947"/>
<polygon fill="#9a32cd" stroke="#9a32cd" points="430.877,-182.459 441.465,-182.08 432.951,-175.774 430.877,-182.459"/>
<text text-anchor="middle" x="459" y="-151" font-family="FreeSans" font-size="10.00"> m_formulaMatrix</text>
<text text-anchor="middle" x="459" y="-139" font-family="FreeSans" font-size="10.00">m_stoichCoeffRxnMatrix</text>
<text text-anchor="middle" x="459" y="-127" font-family="FreeSans" font-size="10.00">m_np_dLnActCoeffdMolNum</text>
<text text-anchor="middle" x="459" y="-115" font-family="FreeSans" font-size="10.00">m_deltaMolNumPhase</text>
</g>
</g>
</svg>
