<?xml version="1.0" encoding="UTF-8" standalone="no"?>
<!DOCTYPE svg PUBLIC "-//W3C//DTD SVG 1.1//EN"
 "http://www.w3.org/Graphics/SVG/1.1/DTD/svg11.dtd">
<!-- Generated by graphviz version 2.40.1 (20161225.0304)
 -->
<!-- Title: LiquidTransport Pages: 1 -->
<svg width="359pt" height="399pt"
 viewBox="0.00 0.00 359.22 399.00" xmlns="http://www.w3.org/2000/svg" xmlns:xlink="http://www.w3.org/1999/xlink">
<g id="graph0" class="graph" transform="scale(1 1) rotate(0) translate(4 395)">
<title>LiquidTransport</title>
<polygon fill="#ffffff" stroke="transparent" points="-4,4 -4,-395 355.2201,-395 355.2201,4 -4,4"/>
<!-- Node2 -->
<g id="node1" class="node">
<title>Node2</title>
<polygon fill="#bfbfbf" stroke="#000000" points="40.7201,-.5 40.7201,-19.5 131.7201,-19.5 131.7201,-.5 40.7201,-.5"/>
<text text-anchor="middle" x="86.2201" y="-7.5" font-family="Helvetica,sans-Serif" font-size="10.00" fill="#000000">LiquidTransport</text>
</g>
<!-- Node3 -->
<g id="node2" class="node">
<title>Node3</title>
<g id="a_node2"><a xlink:href="classCantera_1_1Transport.html" target="_top" xlink:title="Base class for transport property managers. ">
<polygon fill="#ffffff" stroke="#000000" points="285.2201,-134.5 285.2201,-153.5 347.2201,-153.5 347.2201,-134.5 285.2201,-134.5"/>
<text text-anchor="middle" x="316.2201" y="-141.5" font-family="Helvetica,sans-Serif" font-size="10.00" fill="#000000">Transport</text>
</a>
</g>
</g>
<!-- Node3&#45;&gt;Node2 -->
<g id="edge1" class="edge">
<title>Node3&#45;&gt;Node2</title>
<path fill="none" stroke="#191970" d="M312.9033,-124.2712C307.7005,-99.8893 295.1646,-59.0517 267.2201,-38 246.4579,-22.359 178.386,-15.2757 131.904,-12.199"/>
<polygon fill="#191970" stroke="#191970" points="309.484,-125.0248 314.8068,-134.1855 316.3585,-123.7049 309.484,-125.0248"/>
</g>
<!-- Node4 -->
<g id="node3" class="node">
<title>Node4</title>
<g id="a_node3"><a xlink:href="classCantera_1_1ThermoPhase.html" target="_top" xlink:title="Base class for a phase with thermodynamic properties. ">
<polygon fill="#ffffff" stroke="#000000" points="189.7201,-235.5 189.7201,-254.5 272.7201,-254.5 272.7201,-235.5 189.7201,-235.5"/>
<text text-anchor="middle" x="231.2201" y="-242.5" font-family="Helvetica,sans-Serif" font-size="10.00" fill="#000000">ThermoPhase</text>
</a>
</g>
</g>
<!-- Node4&#45;&gt;Node3 -->
<g id="edge2" class="edge">
<title>Node4&#45;&gt;Node3</title>
<path fill="none" stroke="#9a32cd" stroke-dasharray="5,2" d="M264.892,-230.5047C271.1769,-226.7493 277.3045,-222.2523 282.2201,-217 299.7981,-198.2178 309.6722,-168.7231 313.8359,-153.618"/>
<polygon fill="#9a32cd" stroke="#9a32cd" points="262.826,-227.6428 255.6942,-235.4778 266.1554,-233.8004 262.826,-227.6428"/>
<text text-anchor="middle" x="324.2201" y="-203.5" font-family="Helvetica,sans-Serif" font-size="10.00" fill="#000000"> m_thermo</text>
</g>
<!-- Node9 -->
<g id="node8" class="node">
<title>Node9</title>
<g id="a_node8"><a xlink:href="classCantera_1_1LiquidTranInteraction.html" target="_top" xlink:title="Base class to handle transport property evaluation in a mixture. ">
<polygon fill="#ffffff" stroke="#000000" points="147.7201,-134.5 147.7201,-153.5 266.7201,-153.5 266.7201,-134.5 147.7201,-134.5"/>
<text text-anchor="middle" x="207.2201" y="-141.5" font-family="Helvetica,sans-Serif" font-size="10.00" fill="#000000">LiquidTranInteraction</text>
</a>
</g>
</g>
<!-- Node4&#45;&gt;Node9 -->
<g id="edge9" class="edge">
<title>Node4&#45;&gt;Node9</title>
<path fill="none" stroke="#9a32cd" stroke-dasharray="5,2" d="M226.6033,-225.5712C221.4686,-203.9626 213.3839,-169.9395 209.4793,-153.5075"/>
<polygon fill="#9a32cd" stroke="#9a32cd" points="223.2017,-226.3958 228.9189,-235.3157 230.0121,-224.7774 223.2017,-226.3958"/>
<text text-anchor="middle" x="251.2201" y="-203.5" font-family="Helvetica,sans-Serif" font-size="10.00" fill="#000000"> m_thermo</text>
</g>
<!-- Node5 -->
<g id="node4" class="node">
<title>Node5</title>
<g id="a_node4"><a xlink:href="classCantera_1_1Phase.html" target="_top" xlink:title="Class Phase is the base class for phases of matter, managing the species and elements in a phase...">
<polygon fill="#ffffff" stroke="#000000" points="113.2201,-302.5 113.2201,-321.5 159.2201,-321.5 159.2201,-302.5 113.2201,-302.5"/>
<text text-anchor="middle" x="136.2201" y="-309.5" font-family="Helvetica,sans-Serif" font-size="10.00" fill="#000000">Phase</text>
</a>
</g>
</g>
<!-- Node5&#45;&gt;Node4 -->
<g id="edge3" class="edge">
<title>Node5&#45;&gt;Node4</title>
<path fill="none" stroke="#191970" d="M158.1833,-296.5102C176.5355,-283.567 202.1252,-265.5195 217.6341,-254.5817"/>
<polygon fill="#191970" stroke="#191970" points="155.9861,-293.7768 149.8313,-302.4005 160.0206,-299.4973 155.9861,-293.7768"/>
</g>
<!-- Node6 -->
<g id="node5" class="node">
<title>Node6</title>
<g id="a_node5"><a xlink:href="classCantera_1_1XML__Node.html" target="_top" xlink:title="Class XML_Node is a tree&#45;based representation of the contents of an XML file. ">
<polygon fill="#ffffff" stroke="#000000" points="2.2201,-370.5 2.2201,-389.5 70.2201,-389.5 70.2201,-370.5 2.2201,-370.5"/>
<text text-anchor="middle" x="36.2201" y="-377.5" font-family="Helvetica,sans-Serif" font-size="10.00" fill="#000000">XML_Node</text>
</a>
</g>
</g>
<!-- Node6&#45;&gt;Node5 -->
<g id="edge4" class="edge">
<title>Node6&#45;&gt;Node5</title>
<path fill="none" stroke="#9a32cd" stroke-dasharray="5,2" d="M58.8648,-364.6016C78.3411,-351.3577 105.8175,-332.6738 122.2415,-321.5054"/>
<polygon fill="#9a32cd" stroke="#9a32cd" points="56.8488,-361.7399 50.5476,-370.2573 60.785,-367.5284 56.8488,-361.7399"/>
<text text-anchor="middle" x="110.7201" y="-343" font-family="Helvetica,sans-Serif" font-size="10.00" fill="#000000"> m_xml</text>
</g>
<!-- Node6&#45;&gt;Node6 -->
<g id="edge5" class="edge">
<title>Node6&#45;&gt;Node6</title>
<path fill="none" stroke="#9a32cd" stroke-dasharray="5,2" d="M80.3677,-385.333C85.1446,-384.3094 88.2201,-382.5317 88.2201,-380 88.2201,-375.9492 80.3469,-373.8289 70.2286,-373.639"/>
<polygon fill="#9a32cd" stroke="#9a32cd" points="79.8245,-381.87 70.2286,-386.361 80.5306,-388.8343 79.8245,-381.87"/>
<text text-anchor="middle" x="111.7201" y="-383" font-family="Helvetica,sans-Serif" font-size="10.00" fill="#000000"> m_root</text>
<text text-anchor="middle" x="111.7201" y="-372" font-family="Helvetica,sans-Serif" font-size="10.00" fill="#000000">m_parent</text>
</g>
<!-- Node7 -->
<g id="node6" class="node">
<title>Node7</title>
<g id="a_node6"><a xlink:href="classCantera_1_1ValueCache.html" target="_top" xlink:title="ValueCache">
<polygon fill="#ffffff" stroke="#000000" points="153.2201,-370.5 153.2201,-389.5 227.2201,-389.5 227.2201,-370.5 153.2201,-370.5"/>
<text text-anchor="middle" x="190.2201" y="-377.5" font-family="Helvetica,sans-Serif" font-size="10.00" fill="#000000">ValueCache</text>
</a>
</g>
</g>
<!-- Node7&#45;&gt;Node5 -->
<g id="edge6" class="edge">
<title>Node7&#45;&gt;Node5</title>
<path fill="none" stroke="#9a32cd" stroke-dasharray="5,2" d="M175.9936,-362.0852C165.7342,-349.1659 152.2774,-332.2203 143.9426,-321.7247"/>
<polygon fill="#9a32cd" stroke="#9a32cd" points="173.5234,-364.6027 182.4832,-370.2573 179.0052,-360.2495 173.5234,-364.6027"/>
<text text-anchor="middle" x="190.7201" y="-343" font-family="Helvetica,sans-Serif" font-size="10.00" fill="#000000"> m_cache</text>
</g>
<!-- Node8 -->
<g id="node7" class="node">
<title>Node8</title>
<g id="a_node7"><a xlink:href="classCantera_1_1MultiSpeciesThermo.html" target="_top" xlink:title="A species thermodynamic property manager for a phase. ">
<polygon fill="#ffffff" stroke="#000000" points="177.2201,-302.5 177.2201,-321.5 293.2201,-321.5 293.2201,-302.5 177.2201,-302.5"/>
<text text-anchor="middle" x="235.2201" y="-309.5" font-family="Helvetica,sans-Serif" font-size="10.00" fill="#000000">MultiSpeciesThermo</text>
</a>
</g>
</g>
<!-- Node8&#45;&gt;Node4 -->
<g id="edge7" class="edge">
<title>Node8&#45;&gt;Node4</title>
<path fill="none" stroke="#9a32cd" stroke-dasharray="5,2" d="M234.0325,-292.1079C233.2926,-279.714 232.3739,-264.3263 231.7921,-254.5817"/>
<polygon fill="#9a32cd" stroke="#9a32cd" points="230.5571,-292.6269 234.647,-302.4005 237.5447,-292.2097 230.5571,-292.6269"/>
<text text-anchor="middle" x="266.7201" y="-276" font-family="Helvetica,sans-Serif" font-size="10.00" fill="#000000"> m_spthermo</text>
</g>
<!-- Node9&#45;&gt;Node2 -->
<g id="edge8" class="edge">
<title>Node9&#45;&gt;Node2</title>
<path fill="none" stroke="#9a32cd" stroke-dasharray="5,2" d="M191.6633,-126.7718C165.8688,-98.206 115.0838,-41.9648 94.8432,-19.5496"/>
<polygon fill="#9a32cd" stroke="#9a32cd" points="189.2185,-129.2868 198.5181,-134.3631 194.4138,-124.5954 189.2185,-129.2868"/>
<text text-anchor="middle" x="212.2201" y="-85" font-family="Helvetica,sans-Serif" font-size="10.00" fill="#000000"> m_radiusMixModel</text>
<text text-anchor="middle" x="212.2201" y="-74" font-family="Helvetica,sans-Serif" font-size="10.00" fill="#000000">m_diffMixModel</text>
<text text-anchor="middle" x="212.2201" y="-63" font-family="Helvetica,sans-Serif" font-size="10.00" fill="#000000">m_viscMixModel</text>
<text text-anchor="middle" x="212.2201" y="-52" font-family="Helvetica,sans-Serif" font-size="10.00" fill="#000000">m_lambdaMixModel</text>
<text text-anchor="middle" x="212.2201" y="-41" font-family="Helvetica,sans-Serif" font-size="10.00" fill="#000000">m_ionCondMixModel</text>
</g>
<!-- Node10 -->
<g id="node9" class="node">
<title>Node10</title>
<g id="a_node9"><a xlink:href="classCantera_1_1DenseMatrix.html" target="_top" xlink:title="A class for full (non&#45;sparse) matrices with Fortran&#45;compatible data storage, which adds matrix operat...">
<polygon fill="#ffffff" stroke="#000000" points="10.2201,-235.5 10.2201,-254.5 88.2201,-254.5 88.2201,-235.5 10.2201,-235.5"/>
<text text-anchor="middle" x="49.2201" y="-242.5" font-family="Helvetica,sans-Serif" font-size="10.00" fill="#000000">DenseMatrix</text>
</a>
</g>
</g>
<!-- Node10&#45;&gt;Node2 -->
<g id="edge13" class="edge">
<title>Node10&#45;&gt;Node2</title>
<path fill="none" stroke="#9a32cd" stroke-dasharray="5,2" d="M48.4847,-225.216C48.0181,-211.6498 47.4588,-193.2379 47.2201,-177 46.7888,-147.6698 41.8459,-139.8368 47.2201,-111 53.7631,-75.891 72.0767,-37.2619 81.0847,-19.6773"/>
<polygon fill="#9a32cd" stroke="#9a32cd" points="44.9907,-225.4492 48.8457,-235.3177 51.9862,-225.1991 44.9907,-225.4492"/>
<text text-anchor="middle" x="92.7201" y="-169" font-family="Helvetica,sans-Serif" font-size="10.00" fill="#000000"> m_selfDiffSpecies</text>
<text text-anchor="middle" x="92.7201" y="-158" font-family="Helvetica,sans-Serif" font-size="10.00" fill="#000000">m_diff_Dij</text>
<text text-anchor="middle" x="92.7201" y="-147" font-family="Helvetica,sans-Serif" font-size="10.00" fill="#000000">m_mobRatSpecies</text>
<text text-anchor="middle" x="92.7201" y="-136" font-family="Helvetica,sans-Serif" font-size="10.00" fill="#000000">m_bdiff</text>
<text text-anchor="middle" x="92.7201" y="-125" font-family="Helvetica,sans-Serif" font-size="10.00" fill="#000000">m_A</text>
<text text-anchor="middle" x="92.7201" y="-114" font-family="Helvetica,sans-Serif" font-size="10.00" fill="#000000">m_B</text>
</g>
<!-- Node10&#45;&gt;Node9 -->
<g id="edge10" class="edge">
<title>Node10&#45;&gt;Node9</title>
<path fill="none" stroke="#9a32cd" stroke-dasharray="5,2" d="M72.6374,-230.0307C105.5905,-208.9657 164.6969,-171.1825 192.2802,-153.5502"/>
<polygon fill="#9a32cd" stroke="#9a32cd" points="70.6249,-227.1632 64.0843,-235.4982 74.3951,-233.0611 70.6249,-227.1632"/>
<text text-anchor="middle" x="140.2201" y="-209" font-family="Helvetica,sans-Serif" font-size="10.00" fill="#000000"> m_Dij</text>
<text text-anchor="middle" x="140.2201" y="-198" font-family="Helvetica,sans-Serif" font-size="10.00" fill="#000000">m_Eij</text>
</g>
<!-- Node11 -->
<g id="node10" class="node">
<title>Node11</title>
<g id="a_node10"><a xlink:href="classCantera_1_1Array2D.html" target="_top" xlink:title="A class for 2D arrays stored in column&#45;major (Fortran&#45;compatible) form. ">
<polygon fill="#ffffff" stroke="#000000" points="11.2201,-302.5 11.2201,-321.5 67.2201,-321.5 67.2201,-302.5 11.2201,-302.5"/>
<text text-anchor="middle" x="39.2201" y="-309.5" font-family="Helvetica,sans-Serif" font-size="10.00" fill="#000000">Array2D</text>
</a>
</g>
</g>
<!-- Node11&#45;&gt;Node2 -->
<g id="edge12" class="edge">
<title>Node11&#45;&gt;Node2</title>
<path fill="none" stroke="#9a32cd" stroke-dasharray="5,2" d="M23.5533,-294.4587C15.1501,-283.8481 5.6359,-269.5845 1.2201,-255 -1.2201,-246.9407 1.4442,-205.6946 3.2201,-195 15.1105,-123.393 6.7886,-97.6018 48.2201,-38 53.3652,-30.5984 61.1047,-24.3879 68.2591,-19.7114"/>
<polygon fill="#9a32cd" stroke="#9a32cd" points="21.1195,-297.0049 30.2143,-302.4394 26.4935,-292.5194 21.1195,-297.0049"/>
<text text-anchor="middle" x="23.7201" y="-209" font-family="Helvetica,sans-Serif" font-size="10.00" fill="#000000"> m_Vdiff</text>
<text text-anchor="middle" x="23.7201" y="-198" font-family="Helvetica,sans-Serif" font-size="10.00" fill="#000000">m_flux</text>
</g>
<!-- Node11&#45;&gt;Node10 -->
<g id="edge11" class="edge">
<title>Node11&#45;&gt;Node10</title>
<path fill="none" stroke="#191970" d="M42.1326,-292.4863C43.9919,-280.0286 46.3207,-264.4258 47.79,-254.5817"/>
<polygon fill="#191970" stroke="#191970" points="38.6674,-291.9934 40.6528,-302.4005 45.5908,-293.0268 38.6674,-291.9934"/>
</g>
</g>
</svg>
