<?xml version="1.0" encoding="UTF-8" standalone="no"?>
<!DOCTYPE svg PUBLIC "-//W3C//DTD SVG 1.1//EN"
 "http://www.w3.org/Graphics/SVG/1.1/DTD/svg11.dtd">
<!-- Generated by graphviz version 2.40.1 (20161225.0304)
 -->
<!-- Title: SolidTransport Pages: 1 -->
<svg width="293pt" height="328pt"
 viewBox="0.00 0.00 292.72 328.00" xmlns="http://www.w3.org/2000/svg" xmlns:xlink="http://www.w3.org/1999/xlink">
<g id="graph0" class="graph" transform="scale(1 1) rotate(0) translate(4 324)">
<title>SolidTransport</title>
<polygon fill="#ffffff" stroke="transparent" points="-4,4 -4,-324 288.7188,-324 288.7188,4 -4,4"/>
<!-- Node2 -->
<g id="node1" class="node">
<title>Node2</title>
<polygon fill="#bfbfbf" stroke="#000000" points="112.6831,-.5 112.6831,-18.5 193.3462,-18.5 193.3462,-.5 112.6831,-.5"/>
<text text-anchor="middle" x="153.0146" y="-6.5" font-family="Helvetica,sans-Serif" font-size="10.00" fill="#000000">SolidTransport</text>
</g>
<!-- Node3 -->
<g id="node2" class="node">
<title>Node3</title>
<g id="a_node2"><a xlink:href="classCantera_1_1Transport.html" target="_top" xlink:title="Base class for transport property managers. ">
<polygon fill="#ffffff" stroke="#000000" points="83.8013,-105.5 83.8013,-123.5 142.228,-123.5 142.228,-105.5 83.8013,-105.5"/>
<text text-anchor="middle" x="113.0146" y="-111.5" font-family="Helvetica,sans-Serif" font-size="10.00" fill="#000000">Transport</text>
</a>
</g>
</g>
<!-- Node3&#45;&gt;Node2 -->
<g id="edge1" class="edge">
<title>Node3&#45;&gt;Node2</title>
<path fill="none" stroke="#191970" d="M120.205,-95.6253C128.851,-72.9297 143.0111,-35.7593 149.53,-18.6472"/>
<polygon fill="#191970" stroke="#191970" points="116.8537,-94.5911 116.5644,-105.182 123.3951,-97.0831 116.8537,-94.5911"/>
</g>
<!-- Node4 -->
<g id="node3" class="node">
<title>Node4</title>
<g id="a_node3"><a xlink:href="classCantera_1_1ThermoPhase.html" target="_top" xlink:title="Base class for a phase with thermodynamic properties. ">
<polygon fill="#ffffff" stroke="#000000" points="113.6108,-170.5 113.6108,-188.5 192.4185,-188.5 192.4185,-170.5 113.6108,-170.5"/>
<text text-anchor="middle" x="153.0146" y="-176.5" font-family="Helvetica,sans-Serif" font-size="10.00" fill="#000000">ThermoPhase</text>
</a>
</g>
</g>
<!-- Node4&#45;&gt;Node3 -->
<g id="edge2" class="edge">
<title>Node4&#45;&gt;Node3</title>
<path fill="none" stroke="#9a32cd" stroke-dasharray="5,2" d="M131.0059,-163.8252C127.2793,-160.3062 123.7911,-156.3201 121.2217,-152 116.0433,-143.2935 114.121,-131.7058 113.4137,-123.7276"/>
<polygon fill="#9a32cd" stroke="#9a32cd" points="128.8641,-166.5972 138.772,-170.3502 133.3671,-161.2377 128.8641,-166.5972"/>
<text text-anchor="middle" x="145.9111" y="-144" font-family="Helvetica,sans-Serif" font-size="10.00" fill="#000000"> m_thermo</text>
</g>
<!-- Node9 -->
<g id="node8" class="node">
<title>Node9</title>
<g id="a_node8"><a xlink:href="classCantera_1_1LTPspecies.html" target="_top" xlink:title="Class LTPspecies holds transport parameterizations for a specific liquid&#45; phase species. ">
<polygon fill="#ffffff" stroke="#000000" points="160.2603,-105.5 160.2603,-123.5 227.769,-123.5 227.769,-105.5 160.2603,-105.5"/>
<text text-anchor="middle" x="194.0146" y="-111.5" font-family="Helvetica,sans-Serif" font-size="10.00" fill="#000000">LTPspecies</text>
</a>
</g>
</g>
<!-- Node4&#45;&gt;Node9 -->
<g id="edge9" class="edge">
<title>Node4&#45;&gt;Node9</title>
<path fill="none" stroke="#9a32cd" stroke-dasharray="5,2" d="M164.082,-161.9542C171.8144,-149.6956 181.8364,-133.807 188.0967,-123.8821"/>
<polygon fill="#9a32cd" stroke="#9a32cd" points="161.0903,-160.1368 158.7155,-170.462 167.0109,-163.8713 161.0903,-160.1368"/>
<text text-anchor="middle" x="198.9111" y="-144" font-family="Helvetica,sans-Serif" font-size="10.00" fill="#000000"> m_thermo</text>
</g>
<!-- Node5 -->
<g id="node4" class="node">
<title>Node5</title>
<g id="a_node4"><a xlink:href="classCantera_1_1Phase.html" target="_top" xlink:title="Class Phase is the base class for phases of matter, managing the species and elements in a phase...">
<polygon fill="#ffffff" stroke="#000000" points="83.8374,-235.5 83.8374,-253.5 128.1919,-253.5 128.1919,-235.5 83.8374,-235.5"/>
<text text-anchor="middle" x="106.0146" y="-241.5" font-family="Helvetica,sans-Serif" font-size="10.00" fill="#000000">Phase</text>
</a>
</g>
</g>
<!-- Node5&#45;&gt;Node4 -->
<g id="edge3" class="edge">
<title>Node5&#45;&gt;Node4</title>
<path fill="none" stroke="#191970" d="M118.4417,-227.3137C127.3398,-215.0077 138.9838,-198.9043 146.2306,-188.8821"/>
<polygon fill="#191970" stroke="#191970" points="115.5731,-225.3077 112.5498,-235.462 121.2455,-229.4093 115.5731,-225.3077"/>
</g>
<!-- Node6 -->
<g id="node5" class="node">
<title>Node6</title>
<g id="a_node5"><a xlink:href="classCantera_1_1XML__Node.html" target="_top" xlink:title="Class XML_Node is a tree&#45;based representation of the contents of an XML file. ">
<polygon fill="#ffffff" stroke="#000000" points="0,-301 0,-319 66.0293,-319 66.0293,-301 0,-301"/>
<text text-anchor="middle" x="33.0146" y="-307" font-family="Helvetica,sans-Serif" font-size="10.00" fill="#000000">XML_Node</text>
</a>
</g>
</g>
<!-- Node6&#45;&gt;Node5 -->
<g id="edge4" class="edge">
<title>Node6&#45;&gt;Node5</title>
<path fill="none" stroke="#9a32cd" stroke-dasharray="5,2" d="M50.8197,-294.0243C64.9973,-281.3032 84.3298,-263.9569 95.9505,-253.5301"/>
<polygon fill="#9a32cd" stroke="#9a32cd" points="48.2706,-291.609 43.165,-300.8925 52.9455,-296.8192 48.2706,-291.609"/>
<text text-anchor="middle" x="90.1255" y="-274" font-family="Helvetica,sans-Serif" font-size="10.00" fill="#000000"> m_xml</text>
</g>
<!-- Node6&#45;&gt;Node6 -->
<g id="edge5" class="edge">
<title>Node6&#45;&gt;Node6</title>
<path fill="none" stroke="#9a32cd" stroke-dasharray="5,2" d="M76.6741,-314.9457C81.1611,-313.9718 84.0293,-312.3232 84.0293,-310 84.0293,-306.1875 76.3053,-304.1919 66.3787,-304.0132"/>
<polygon fill="#9a32cd" stroke="#9a32cd" points="75.9758,-311.4984 66.3787,-315.9868 76.6801,-318.4628 75.9758,-311.4984"/>
<text text-anchor="middle" x="105.1523" y="-312" font-family="Helvetica,sans-Serif" font-size="10.00" fill="#000000"> m_root</text>
<text text-anchor="middle" x="105.1523" y="-302" font-family="Helvetica,sans-Serif" font-size="10.00" fill="#000000">m_parent</text>
</g>
<!-- Node7 -->
<g id="node6" class="node">
<title>Node7</title>
<g id="a_node6"><a xlink:href="classCantera_1_1ValueCache.html" target="_top" xlink:title="ValueCache">
<polygon fill="#ffffff" stroke="#000000" points="144.1421,-301 144.1421,-319 213.8872,-319 213.8872,-301 144.1421,-301"/>
<text text-anchor="middle" x="179.0146" y="-307" font-family="Helvetica,sans-Serif" font-size="10.00" fill="#000000">ValueCache</text>
</a>
</g>
</g>
<!-- Node7&#45;&gt;Node5 -->
<g id="edge6" class="edge">
<title>Node7&#45;&gt;Node5</title>
<path fill="none" stroke="#9a32cd" stroke-dasharray="5,2" d="M161.2096,-294.0243C147.032,-281.3032 127.6995,-263.9569 116.0788,-253.5301"/>
<polygon fill="#9a32cd" stroke="#9a32cd" points="159.0838,-296.8192 168.8643,-300.8925 163.7587,-291.609 159.0838,-296.8192"/>
<text text-anchor="middle" x="168.6919" y="-274" font-family="Helvetica,sans-Serif" font-size="10.00" fill="#000000"> m_cache</text>
</g>
<!-- Node8 -->
<g id="node7" class="node">
<title>Node8</title>
<g id="a_node7"><a xlink:href="classCantera_1_1MultiSpeciesThermo.html" target="_top" xlink:title="A species thermodynamic property manager for a phase. ">
<polygon fill="#ffffff" stroke="#000000" points="146.4434,-235.5 146.4434,-253.5 253.5859,-253.5 253.5859,-235.5 146.4434,-235.5"/>
<text text-anchor="middle" x="200.0146" y="-241.5" font-family="Helvetica,sans-Serif" font-size="10.00" fill="#000000">MultiSpeciesThermo</text>
</a>
</g>
</g>
<!-- Node8&#45;&gt;Node4 -->
<g id="edge7" class="edge">
<title>Node8&#45;&gt;Node4</title>
<path fill="none" stroke="#9a32cd" stroke-dasharray="5,2" d="M187.5876,-227.3137C178.6894,-215.0077 167.0455,-198.9043 159.7987,-188.8821"/>
<polygon fill="#9a32cd" stroke="#9a32cd" points="184.7838,-229.4093 193.4795,-235.462 190.4562,-225.3077 184.7838,-229.4093"/>
<text text-anchor="middle" x="208.1919" y="-209" font-family="Helvetica,sans-Serif" font-size="10.00" fill="#000000"> m_spthermo</text>
</g>
<!-- Node9&#45;&gt;Node2 -->
<g id="edge8" class="edge">
<title>Node9&#45;&gt;Node2</title>
<path fill="none" stroke="#9a32cd" stroke-dasharray="5,2" d="M186.6445,-95.6253C177.7824,-72.9297 163.2683,-35.7593 156.5864,-18.6472"/>
<polygon fill="#9a32cd" stroke="#9a32cd" points="183.4785,-97.14 190.3762,-105.182 189.9991,-94.5938 183.4785,-97.14"/>
<text text-anchor="middle" x="233.8667" y="-79" font-family="Helvetica,sans-Serif" font-size="10.00" fill="#000000"> m_electConductivity</text>
<text text-anchor="middle" x="233.8667" y="-69" font-family="Helvetica,sans-Serif" font-size="10.00" fill="#000000">m_defectDiffusivity</text>
<text text-anchor="middle" x="233.8667" y="-59" font-family="Helvetica,sans-Serif" font-size="10.00" fill="#000000">m_ionConductivity</text>
<text text-anchor="middle" x="233.8667" y="-49" font-family="Helvetica,sans-Serif" font-size="10.00" fill="#000000">m_thermalConductivity</text>
<text text-anchor="middle" x="233.8667" y="-39" font-family="Helvetica,sans-Serif" font-size="10.00" fill="#000000">m_defectActivity</text>
</g>
</g>
</svg>
