<?xml version="1.0" encoding="UTF-8" standalone="no"?>
<!DOCTYPE svg PUBLIC "-//W3C//DTD SVG 1.1//EN"
 "http://www.w3.org/Graphics/SVG/1.1/DTD/svg11.dtd">
<!-- Generated by graphviz version 2.26.3 (20100126.1600)
 -->
<!-- Title: LiquidTranInteraction Pages: 1 -->
<svg width="245pt" height="254pt"
 viewBox="0.00 0.00 245.00 254.00" xmlns="http://www.w3.org/2000/svg" xmlns:xlink="http://www.w3.org/1999/xlink">
<g id="graph1" class="graph" transform="scale(1 1) rotate(0) translate(4 250)">
<title>LiquidTranInteraction</title>
<polygon fill="white" stroke="white" points="-4,5 -4,-250 242,-250 242,5 -4,5"/>
<!-- Node1 -->
<g id="node1" class="node"><title>Node1</title>
<polygon fill="#bfbfbf" stroke="black" points="105.5,-1 105.5,-21 212.5,-21 212.5,-1 105.5,-1"/>
<text text-anchor="middle" x="159" y="-8" font-family="FreeSans" font-size="10.00">LiquidTranInteraction</text>
</g>
<!-- Node2 -->
<g id="node2" class="node"><title>Node2</title>
<a xlink:href="classCantera_1_1ThermoPhase.html" target="_top" xlink:title="Base class for a phase with thermodynamic properties. ">
<polygon fill="white" stroke="black" points="72.5,-83 72.5,-103 149.5,-103 149.5,-83 72.5,-83"/>
<text text-anchor="middle" x="111" y="-90" font-family="FreeSans" font-size="10.00">ThermoPhase</text>
</a>
</g>
<!-- Node2&#45;&gt;Node1 -->
<g id="edge2" class="edge"><title>Node2&#45;&gt;Node1</title>
<path fill="none" stroke="#9a32cd" stroke-dasharray="5,2" d="M113.354,-73.0235C115.281,-62.5728 118.758,-49.9254 125,-40 129.626,-32.6445 136.712,-26.1743 143.22,-21.2226"/>
<polygon fill="#9a32cd" stroke="#9a32cd" points="109.893,-72.5012 111.856,-82.9127 116.814,-73.5498 109.893,-72.5012"/>
<text text-anchor="middle" x="148" y="-49" font-family="FreeSans" font-size="10.00"> m_thermo</text>
</g>
<!-- Node3 -->
<g id="node4" class="node"><title>Node3</title>
<a xlink:href="classCantera_1_1Phase.html" target="_top" xlink:title="Base class for phases of matter. ">
<polygon fill="white" stroke="black" points="10,-153 10,-173 54,-173 54,-153 10,-153"/>
<text text-anchor="middle" x="32" y="-160" font-family="FreeSans" font-size="10.00">Phase</text>
</a>
</g>
<!-- Node3&#45;&gt;Node2 -->
<g id="edge4" class="edge"><title>Node3&#45;&gt;Node2</title>
<path fill="none" stroke="midnightblue" d="M51.1024,-146.074C66.2965,-132.611 87.0398,-114.231 99.7022,-103.011"/>
<polygon fill="midnightblue" stroke="midnightblue" points="48.4822,-143.719 43.3188,-152.971 53.1245,-148.958 48.4822,-143.719"/>
</g>
<!-- Node4 -->
<g id="node6" class="node"><title>Node4</title>
<a xlink:href="classCantera_1_1XML__Node.html" target="_top" xlink:title="Class XML_Node is a tree&#45;based representation of the contents of an XML file. ">
<polygon fill="white" stroke="black" points="-0.5,-224 -0.5,-244 64.5,-244 64.5,-224 -0.5,-224"/>
<text text-anchor="middle" x="32" y="-231" font-family="FreeSans" font-size="10.00">XML_Node</text>
</a>
</g>
<!-- Node4&#45;&gt;Node3 -->
<g id="edge6" class="edge"><title>Node4&#45;&gt;Node3</title>
<path fill="none" stroke="#9a32cd" stroke-dasharray="5,2" d="M32,-213.72C32,-200.455 32,-183.691 32,-173.154"/>
<polygon fill="#9a32cd" stroke="#9a32cd" points="28.5001,-213.827 32,-223.827 35.5001,-213.827 28.5001,-213.827"/>
<text text-anchor="middle" x="47.5" y="-195" font-family="FreeSans" font-size="10.00"> m_xml</text>
</g>
<!-- Node4&#45;&gt;Node4 -->
<g id="edge8" class="edge"><title>Node4&#45;&gt;Node4</title>
<path fill="none" stroke="#9a32cd" stroke-dasharray="5,2" d="M74.791,-239.564C79.1888,-238.468 82,-236.614 82,-234 82,-229.711 74.4296,-227.466 64.7005,-227.265"/>
<polygon fill="#9a32cd" stroke="#9a32cd" points="74.2302,-236.105 64.7005,-240.735 75.0374,-243.059 74.2302,-236.105"/>
<text text-anchor="middle" x="102.5" y="-237" font-family="FreeSans" font-size="10.00"> m_root</text>
<text text-anchor="middle" x="102.5" y="-225" font-family="FreeSans" font-size="10.00">m_parent</text>
</g>
<!-- Node5 -->
<g id="node9" class="node"><title>Node5</title>
<a xlink:href="classCantera_1_1SpeciesThermo.html" target="_top" xlink:title="Pure Virtual base class for the species thermo manager classes. ">
<polygon fill="white" stroke="black" points="72,-153 72,-173 156,-173 156,-153 72,-153"/>
<text text-anchor="middle" x="114" y="-160" font-family="FreeSans" font-size="10.00">SpeciesThermo</text>
</a>
</g>
<!-- Node5&#45;&gt;Node2 -->
<g id="edge10" class="edge"><title>Node5&#45;&gt;Node2</title>
<path fill="none" stroke="#9a32cd" stroke-dasharray="5,2" d="M113.126,-142.613C112.568,-129.597 111.87,-113.296 111.429,-103.011"/>
<polygon fill="#9a32cd" stroke="#9a32cd" points="109.645,-143.13 113.57,-152.971 116.639,-142.83 109.645,-143.13"/>
<text text-anchor="middle" x="140" y="-125" font-family="FreeSans" font-size="10.00"> m_spthermo</text>
</g>
<!-- Node6 -->
<g id="node11" class="node"><title>Node6</title>
<a xlink:href="classCantera_1_1DenseMatrix.html" target="_top" xlink:title="A class for full (non&#45;sparse) matrices with Fortran&#45;compatible data storage, which adds matrix operat...">
<polygon fill="white" stroke="black" points="167,-83 167,-103 237,-103 237,-83 167,-83"/>
<text text-anchor="middle" x="202" y="-90" font-family="FreeSans" font-size="10.00">DenseMatrix</text>
</a>
</g>
<!-- Node6&#45;&gt;Node1 -->
<g id="edge12" class="edge"><title>Node6&#45;&gt;Node1</title>
<path fill="none" stroke="#9a32cd" stroke-dasharray="5,2" d="M191.873,-73.6888C183.24,-57.226 171.172,-34.2119 164.316,-21.1371"/>
<polygon fill="#9a32cd" stroke="#9a32cd" points="188.984,-75.7144 196.727,-82.9452 195.183,-72.4635 188.984,-75.7144"/>
<text text-anchor="middle" x="199" y="-55" font-family="FreeSans" font-size="10.00"> m_Dij</text>
<text text-anchor="middle" x="199" y="-43" font-family="FreeSans" font-size="10.00">m_Eij</text>
</g>
<!-- Node7 -->
<g id="node13" class="node"><title>Node7</title>
<a xlink:href="classCantera_1_1Array2D.html" target="_top" xlink:title="A class for 2D arrays stored in column&#45;major (Fortran&#45;compatible) form. ">
<polygon fill="white" stroke="black" points="176.5,-153 176.5,-173 227.5,-173 227.5,-153 176.5,-153"/>
<text text-anchor="middle" x="202" y="-160" font-family="FreeSans" font-size="10.00">Array2D</text>
</a>
</g>
<!-- Node7&#45;&gt;Node6 -->
<g id="edge14" class="edge"><title>Node7&#45;&gt;Node6</title>
<path fill="none" stroke="midnightblue" d="M202,-142.613C202,-129.597 202,-113.296 202,-103.011"/>
<polygon fill="midnightblue" stroke="midnightblue" points="198.5,-142.971 202,-152.971 205.5,-142.971 198.5,-142.971"/>
</g>
</g>
</svg>
