<?xml version="1.0" encoding="UTF-8" standalone="no"?>
<!DOCTYPE svg PUBLIC "-//W3C//DTD SVG 1.1//EN"
 "http://www.w3.org/Graphics/SVG/1.1/DTD/svg11.dtd">
<!-- Generated by graphviz version 2.26.3 (20100126.1600)
 -->
<!-- Title: MultiPhase Pages: 1 -->
<svg width="86pt" height="160pt"
 viewBox="0.00 0.00 86.00 160.00" xmlns="http://www.w3.org/2000/svg" xmlns:xlink="http://www.w3.org/1999/xlink">
<g id="graph1" class="graph" transform="scale(1 1) rotate(0) translate(4 156)">
<title>MultiPhase</title>
<polygon fill="white" stroke="white" points="-4,5 -4,-156 83,-156 83,5 -4,5"/>
<!-- Node1 -->
<g id="node1" class="node"><title>Node1</title>
<polygon fill="#bfbfbf" stroke="black" points="2.5,-1 2.5,-21 67.5,-21 67.5,-1 2.5,-1"/>
<text text-anchor="middle" x="35" y="-8" font-family="FreeSans" font-size="10.00">MultiPhase</text>
</g>
<!-- Node2 -->
<g id="node2" class="node"><title>Node2</title>
<a xlink:href="classCantera_1_1DenseMatrix.html" target="_top" xlink:title="A class for full (non&#45;sparse) matrices with Fortran&#45;compatible data storage, which adds matrix operat...">
<polygon fill="white" stroke="black" points="0,-71 0,-91 70,-91 70,-71 0,-71"/>
<text text-anchor="middle" x="35" y="-78" font-family="FreeSans" font-size="10.00">DenseMatrix</text>
</a>
</g>
<!-- Node2&#45;&gt;Node1 -->
<g id="edge2" class="edge"><title>Node2&#45;&gt;Node1</title>
<path fill="none" stroke="#9a32cd" stroke-dasharray="5,2" d="M35,-60.6126C35,-47.5971 35,-31.2956 35,-21.0107"/>
<polygon fill="#9a32cd" stroke="#9a32cd" points="31.5001,-60.9707 35,-70.9707 38.5001,-60.9707 31.5001,-60.9707"/>
<text text-anchor="middle" x="56.5" y="-43" font-family="FreeSans" font-size="10.00"> m_atoms</text>
</g>
<!-- Node3 -->
<g id="node4" class="node"><title>Node3</title>
<a xlink:href="classCantera_1_1Array2D.html" target="_top" xlink:title="A class for 2D arrays stored in column&#45;major (Fortran&#45;compatible) form. ">
<polygon fill="white" stroke="black" points="9.5,-131 9.5,-151 60.5,-151 60.5,-131 9.5,-131"/>
<text text-anchor="middle" x="35" y="-138" font-family="FreeSans" font-size="10.00">Array2D</text>
</a>
</g>
<!-- Node3&#45;&gt;Node2 -->
<g id="edge4" class="edge"><title>Node3&#45;&gt;Node2</title>
<path fill="none" stroke="midnightblue" d="M35,-120.516C35,-110.562 35,-99.0495 35,-91.0279"/>
<polygon fill="midnightblue" stroke="midnightblue" points="31.5001,-120.822 35,-130.822 38.5001,-120.822 31.5001,-120.822"/>
</g>
</g>
</svg>
