<?xml version="1.0" encoding="UTF-8" standalone="no"?>
<!DOCTYPE svg PUBLIC "-//W3C//DTD SVG 1.1//EN"
 "http://www.w3.org/Graphics/SVG/1.1/DTD/svg11.dtd">
<!-- Generated by graphviz version 2.36.0 (20140111.2315)
 -->
<!-- Title: PDSS_SSVol Pages: 1 -->
<svg width="290pt" height="348pt"
 viewBox="0.00 0.00 290.00 348.00" xmlns="http://www.w3.org/2000/svg" xmlns:xlink="http://www.w3.org/1999/xlink">
<g id="graph0" class="graph" transform="scale(1 1) rotate(0) translate(4 344)">
<title>PDSS_SSVol</title>
<polygon fill="white" stroke="none" points="-4,4 -4,-344 286,-344 286,4 -4,4"/>
<!-- Node1 -->
<g id="node1" class="node"><title>Node1</title>
<polygon fill="#bfbfbf" stroke="black" points="54,-0.5 54,-19.5 130,-19.5 130,-0.5 54,-0.5"/>
<text text-anchor="middle" x="92" y="-7.5" font-family="FreeSans" font-size="10.00">PDSS_SSVol</text>
</g>
<!-- Node2 -->
<g id="node2" class="node"><title>Node2</title>
<g id="a_node2"><a xlink:href="classCantera_1_1PDSS__Nondimensional.html" target="_top" xlink:title="Base class for PDSS classes which compute nondimensional properties directly. ">
<polygon fill="white" stroke="black" points="33.5,-58.5 33.5,-77.5 150.5,-77.5 150.5,-58.5 33.5,-58.5"/>
<text text-anchor="middle" x="92" y="-65.5" font-family="FreeSans" font-size="10.00">PDSS_Nondimensional</text>
</a>
</g>
</g>
<!-- Node2&#45;&gt;Node1 -->
<g id="edge1" class="edge"><title>Node2&#45;&gt;Node1</title>
<path fill="none" stroke="midnightblue" d="M92,-47.953C92,-38.2875 92,-27.0312 92,-19.5052"/>
<polygon fill="midnightblue" stroke="midnightblue" points="88.5001,-48.25 92,-58.25 95.5001,-48.25 88.5001,-48.25"/>
</g>
<!-- Node3 -->
<g id="node3" class="node"><title>Node3</title>
<g id="a_node3"><a xlink:href="classCantera_1_1PDSS.html" target="_top" xlink:title="Virtual base class for a species with a pressure dependent standard state. ">
<polygon fill="white" stroke="black" points="70,-116.5 70,-135.5 114,-135.5 114,-116.5 70,-116.5"/>
<text text-anchor="middle" x="92" y="-123.5" font-family="FreeSans" font-size="10.00">PDSS</text>
</a>
</g>
</g>
<!-- Node3&#45;&gt;Node2 -->
<g id="edge2" class="edge"><title>Node3&#45;&gt;Node2</title>
<path fill="none" stroke="midnightblue" d="M92,-105.953C92,-96.2875 92,-85.0312 92,-77.5052"/>
<polygon fill="midnightblue" stroke="midnightblue" points="88.5001,-106.25 92,-116.25 95.5001,-106.25 88.5001,-106.25"/>
</g>
<!-- Node4 -->
<g id="node4" class="node"><title>Node4</title>
<g id="a_node4"><a xlink:href="classCantera_1_1VPSSMgr.html" target="_top" xlink:title="Virtual base class for the classes that manage the calculation of standard state properties for all t...">
<polygon fill="white" stroke="black" points="84.5,-252.5 84.5,-271.5 143.5,-271.5 143.5,-252.5 84.5,-252.5"/>
<text text-anchor="middle" x="114" y="-259.5" font-family="FreeSans" font-size="10.00">VPSSMgr</text>
</a>
</g>
</g>
<!-- Node4&#45;&gt;Node3 -->
<g id="edge3" class="edge"><title>Node4&#45;&gt;Node3</title>
<path fill="none" stroke="#9a32cd" stroke-dasharray="5,2" d="M109.215,-242.361C106.503,-231.277 103.219,-216.904 101,-204 96.7574,-179.328 93.9288,-149.86 92.6991,-135.589"/>
<polygon fill="#9a32cd" stroke="#9a32cd" points="105.848,-243.325 111.675,-252.174 112.638,-241.623 105.848,-243.325"/>
<text text-anchor="middle" x="135" y="-191.5" font-family="FreeSans" font-size="10.00"> m_vpssmgr_ptr</text>
</g>
<!-- Node6 -->
<g id="node6" class="node"><title>Node6</title>
<g id="a_node6"><a xlink:href="classCantera_1_1VPStandardStateTP.html" target="_top" xlink:title="This is a filter class for ThermoPhase that implements some prepatory steps for efficiently handling ...">
<polygon fill="white" stroke="red" points="178,-184.5 178,-203.5 282,-203.5 282,-184.5 178,-184.5"/>
<text text-anchor="middle" x="230" y="-191.5" font-family="FreeSans" font-size="10.00">VPStandardStateTP</text>
</a>
</g>
</g>
<!-- Node4&#45;&gt;Node6 -->
<g id="edge6" class="edge"><title>Node4&#45;&gt;Node6</title>
<path fill="none" stroke="#9a32cd" stroke-dasharray="5,2" d="M120.625,-242.86C124.159,-235.445 129.205,-227.366 136,-222 147.993,-212.529 163.171,-206.38 177.813,-202.388"/>
<polygon fill="#9a32cd" stroke="#9a32cd" points="117.331,-241.666 116.723,-252.244 123.794,-244.354 117.331,-241.666"/>
<text text-anchor="middle" x="165.5" y="-225.5" font-family="FreeSans" font-size="10.00"> m_VPSS_ptr</text>
</g>
<!-- Node5 -->
<g id="node5" class="node"><title>Node5</title>
<g id="a_node5"><a xlink:href="classCantera_1_1MultiSpeciesThermo.html" target="_top" xlink:title="A species thermodynamic property manager for a phase. ">
<polygon fill="white" stroke="black" points="-0.5,-320.5 -0.5,-339.5 104.5,-339.5 104.5,-320.5 -0.5,-320.5"/>
<text text-anchor="middle" x="52" y="-327.5" font-family="FreeSans" font-size="10.00">MultiSpeciesThermo</text>
</a>
</g>
</g>
<!-- Node5&#45;&gt;Node3 -->
<g id="edge7" class="edge"><title>Node5&#45;&gt;Node3</title>
<path fill="none" stroke="#9a32cd" stroke-dasharray="5,2" d="M47.5435,-310.464C43.1037,-288.912 37.889,-252.41 45,-222 53.0028,-187.777 75.2267,-151.739 85.9964,-135.645"/>
<polygon fill="#9a32cd" stroke="#9a32cd" points="44.135,-311.26 49.7253,-320.26 50.9676,-309.738 44.135,-311.26"/>
<text text-anchor="middle" x="73" y="-225.5" font-family="FreeSans" font-size="10.00"> m_spthermo</text>
</g>
<!-- Node5&#45;&gt;Node4 -->
<g id="edge4" class="edge"><title>Node5&#45;&gt;Node4</title>
<path fill="none" stroke="#9a32cd" stroke-dasharray="5,2" d="M66.9858,-313.047C79.138,-300.111 95.8164,-282.357 105.695,-271.841"/>
<polygon fill="#9a32cd" stroke="#9a32cd" points="64.4012,-310.687 60.1054,-320.372 69.5032,-315.48 64.4012,-310.687"/>
<text text-anchor="middle" x="117" y="-293.5" font-family="FreeSans" font-size="10.00"> m_spthermo</text>
</g>
<!-- Node6&#45;&gt;Node3 -->
<g id="edge8" class="edge"><title>Node6&#45;&gt;Node3</title>
<path fill="none" stroke="#9a32cd" stroke-dasharray="5,2" d="M202.891,-180.035C175.423,-166.898 133.706,-146.946 110.046,-135.63"/>
<polygon fill="#9a32cd" stroke="#9a32cd" points="201.427,-183.215 211.959,-184.372 204.448,-176.9 201.427,-183.215"/>
<text text-anchor="middle" x="186.5" y="-157.5" font-family="FreeSans" font-size="10.00"> m_tp</text>
</g>
<!-- Node6&#45;&gt;Node4 -->
<g id="edge5" class="edge"><title>Node6&#45;&gt;Node4</title>
<path fill="none" stroke="#9a32cd" stroke-dasharray="5,2" d="M219.624,-212.29C214.299,-219.887 207.203,-228.348 199,-234 182.553,-245.334 161.098,-252.101 143.859,-256.026"/>
<polygon fill="#9a32cd" stroke="#9a32cd" points="222.692,-213.992 225.197,-203.697 216.819,-210.183 222.692,-213.992"/>
<text text-anchor="middle" x="236.5" y="-225.5" font-family="FreeSans" font-size="10.00"> m_vptp_ptr</text>
</g>
</g>
</svg>
