<?xml version="1.0" encoding="UTF-8" standalone="no"?>
<!DOCTYPE svg PUBLIC "-//W3C//DTD SVG 1.1//EN"
 "http://www.w3.org/Graphics/SVG/1.1/DTD/svg11.dtd">
<!-- Generated by graphviz version 2.40.1 (20161225.0304)
 -->
<!-- Title: KineticsFactory Pages: 1 -->
<svg width="110pt" height="137pt"
 viewBox="0.00 0.00 109.59 137.00" xmlns="http://www.w3.org/2000/svg" xmlns:xlink="http://www.w3.org/1999/xlink">
<g id="graph0" class="graph" transform="scale(1 1) rotate(0) translate(4 133)">
<title>KineticsFactory</title>
<polygon fill="#ffffff" stroke="transparent" points="-4,4 -4,-133 105.5908,-133 105.5908,4 -4,4"/>
<!-- Node0 -->
<g id="node1" class="node">
<title>Node0</title>
<polygon fill="#bfbfbf" stroke="#000000" points="8.6182,-.5 8.6182,-18.5 92.9727,-18.5 92.9727,-.5 8.6182,-.5"/>
<text text-anchor="middle" x="50.7954" y="-6.5" font-family="Helvetica,sans-Serif" font-size="10.00" fill="#000000">KineticsFactory</text>
</g>
<!-- Node1 -->
<g id="node2" class="node">
<title>Node1</title>
<g id="a_node2"><a xlink:href="classCantera_1_1Factory.html" target="_top" xlink:title="Factory\&lt; Kinetics \&gt;">
<polygon fill="#ffffff" stroke="#000000" points="0,-55.5 0,-73.5 101.5908,-73.5 101.5908,-55.5 0,-55.5"/>
<text text-anchor="middle" x="50.7954" y="-61.5" font-family="Helvetica,sans-Serif" font-size="10.00" fill="#000000">Factory&lt; Kinetics &gt;</text>
</a>
</g>
</g>
<!-- Node1&#45;&gt;Node0 -->
<g id="edge1" class="edge">
<title>Node1&#45;&gt;Node0</title>
<path fill="none" stroke="#191970" d="M50.7954,-45.383C50.7954,-36.3738 50.7954,-26.0373 50.7954,-18.7795"/>
<polygon fill="#191970" stroke="#191970" points="47.2955,-45.4178 50.7954,-55.4179 54.2955,-45.4179 47.2955,-45.4178"/>
</g>
<!-- Node2 -->
<g id="node3" class="node">
<title>Node2</title>
<g id="a_node3"><a xlink:href="classCantera_1_1FactoryBase.html" target="_top" xlink:title="Base class for factories. ">
<polygon fill="#ffffff" stroke="#000000" points="14.729,-110.5 14.729,-128.5 86.8618,-128.5 86.8618,-110.5 14.729,-110.5"/>
<text text-anchor="middle" x="50.7954" y="-116.5" font-family="Helvetica,sans-Serif" font-size="10.00" fill="#000000">FactoryBase</text>
</a>
</g>
</g>
<!-- Node2&#45;&gt;Node1 -->
<g id="edge2" class="edge">
<title>Node2&#45;&gt;Node1</title>
<path fill="none" stroke="#191970" d="M50.7954,-100.383C50.7954,-91.3738 50.7954,-81.0373 50.7954,-73.7795"/>
<polygon fill="#191970" stroke="#191970" points="47.2955,-100.4178 50.7954,-110.4179 54.2955,-100.4179 47.2955,-100.4178"/>
</g>
</g>
</svg>
