<?xml version="1.0" encoding="UTF-8" standalone="no"?>
<!DOCTYPE svg PUBLIC "-//W3C//DTD SVG 1.1//EN"
 "http://www.w3.org/Graphics/SVG/1.1/DTD/svg11.dtd">
<!-- Generated by graphviz version 2.28.0 (20120425.2022)
 -->
<!-- Title: MixTransport Pages: 1 -->
<svg width="172pt" height="254pt"
 viewBox="0.00 0.00 172.00 254.00" xmlns="http://www.w3.org/2000/svg" xmlns:xlink="http://www.w3.org/1999/xlink">
<g id="graph1" class="graph" transform="scale(1 1) rotate(0) translate(4 250)">
<title>MixTransport</title>
<polygon fill="white" stroke="white" points="-4,5 -4,-250 169,-250 169,5 -4,5"/>
<!-- Node1 -->
<g id="node1" class="node"><title>Node1</title>
<polygon fill="#bfbfbf" stroke="black" points="53.5,-0.5 53.5,-19.5 128.5,-19.5 128.5,-0.5 53.5,-0.5"/>
<text text-anchor="middle" x="91" y="-7.5" font-family="FreeSans" font-size="10.00">MixTransport</text>
</g>
<!-- Node2 -->
<g id="node2" class="node"><title>Node2</title>
<a xlink:href="classCantera_1_1GasTransport.html" target="_top" xlink:title="Class GasTransport implements some functions and properties that are shared by the MixTransport and M...">
<polygon fill="white" stroke="black" points="51.5,-58.5 51.5,-77.5 130.5,-77.5 130.5,-58.5 51.5,-58.5"/>
<text text-anchor="middle" x="91" y="-65.5" font-family="FreeSans" font-size="10.00">GasTransport</text>
</a>
</g>
<!-- Node2&#45;&gt;Node1 -->
<g id="edge2" class="edge"><title>Node2&#45;&gt;Node1</title>
<path fill="none" stroke="midnightblue" d="M91,-47.953C91,-38.2875 91,-27.0312 91,-19.5052"/>
<polygon fill="midnightblue" stroke="midnightblue" points="87.5001,-48.25 91,-58.25 94.5001,-48.25 87.5001,-48.25"/>
</g>
<!-- Node3 -->
<g id="node4" class="node"><title>Node3</title>
<a xlink:href="classCantera_1_1Transport.html" target="_top" xlink:title="Base class for transport property managers.">
<polygon fill="white" stroke="black" points="12.5,-158.5 12.5,-177.5 71.5,-177.5 71.5,-158.5 12.5,-158.5"/>
<text text-anchor="middle" x="42" y="-165.5" font-family="FreeSans" font-size="10.00">Transport</text>
</a>
</g>
<!-- Node3&#45;&gt;Node2 -->
<g id="edge4" class="edge"><title>Node3&#45;&gt;Node2</title>
<path fill="none" stroke="midnightblue" d="M50.9524,-149.095C61.5563,-127.887 78.7818,-93.4365 86.7313,-77.5374"/>
<polygon fill="midnightblue" stroke="midnightblue" points="47.6901,-147.794 46.3484,-158.303 53.9511,-150.924 47.6901,-147.794"/>
</g>
<!-- Node4 -->
<g id="node6" class="node"><title>Node4</title>
<a xlink:href="classCantera_1_1ThermoPhase.html" target="_top" xlink:title="Base class for a phase with thermodynamic properties.">
<polygon fill="white" stroke="red" points="0,-226.5 0,-245.5 82,-245.5 82,-226.5 0,-226.5"/>
<text text-anchor="middle" x="41" y="-233.5" font-family="FreeSans" font-size="10.00">ThermoPhase</text>
</a>
</g>
<!-- Node4&#45;&gt;Node3 -->
<g id="edge6" class="edge"><title>Node4&#45;&gt;Node3</title>
<path fill="none" stroke="#9a32cd" stroke-dasharray="5,2" d="M41.2873,-216.041C41.4777,-203.472 41.7187,-187.563 41.866,-177.841"/>
<polygon fill="#9a32cd" stroke="#9a32cd" points="37.7827,-216.32 41.1307,-226.372 44.7819,-216.426 37.7827,-216.32"/>
<text text-anchor="middle" x="66" y="-199.5" font-family="FreeSans" font-size="10.00"> m_thermo</text>
</g>
<!-- Node5 -->
<g id="node8" class="node"><title>Node5</title>
<a xlink:href="classCantera_1_1DenseMatrix.html" target="_top" xlink:title="A class for full (non&#45;sparse) matrices with Fortran&#45;compatible data storage, which adds matrix operat...">
<polygon fill="white" stroke="black" points="90,-158.5 90,-177.5 164,-177.5 164,-158.5 90,-158.5"/>
<text text-anchor="middle" x="127" y="-165.5" font-family="FreeSans" font-size="10.00">DenseMatrix</text>
</a>
</g>
<!-- Node5&#45;&gt;Node2 -->
<g id="edge8" class="edge"><title>Node5&#45;&gt;Node2</title>
<path fill="none" stroke="#9a32cd" stroke-dasharray="5,2" d="M120.316,-148.805C112.517,-127.575 99.9501,-93.3642 94.1362,-77.5374"/>
<polygon fill="#9a32cd" stroke="#9a32cd" points="117.072,-150.123 123.805,-158.303 123.642,-147.71 117.072,-150.123"/>
<text text-anchor="middle" x="140" y="-132" font-family="FreeSans" font-size="10.00"> m_bdiff</text>
<text text-anchor="middle" x="140" y="-121" font-family="FreeSans" font-size="10.00">m_phi</text>
<text text-anchor="middle" x="140" y="-110" font-family="FreeSans" font-size="10.00">m_wratkj1</text>
<text text-anchor="middle" x="140" y="-99" font-family="FreeSans" font-size="10.00">m_wratjk</text>
</g>
<!-- Node6 -->
<g id="node10" class="node"><title>Node6</title>
<a xlink:href="classCantera_1_1Array2D.html" target="_top" xlink:title="A class for 2D arrays stored in column&#45;major (Fortran&#45;compatible) form.">
<polygon fill="white" stroke="black" points="100.5,-226.5 100.5,-245.5 153.5,-245.5 153.5,-226.5 100.5,-226.5"/>
<text text-anchor="middle" x="127" y="-233.5" font-family="FreeSans" font-size="10.00">Array2D</text>
</a>
</g>
<!-- Node6&#45;&gt;Node5 -->
<g id="edge10" class="edge"><title>Node6&#45;&gt;Node5</title>
<path fill="none" stroke="midnightblue" d="M127,-216.041C127,-203.472 127,-187.563 127,-177.841"/>
<polygon fill="midnightblue" stroke="midnightblue" points="123.5,-216.372 127,-226.372 130.5,-216.372 123.5,-216.372"/>
</g>
</g>
</svg>
