<?xml version="1.0" encoding="UTF-8" standalone="no"?>
<!DOCTYPE svg PUBLIC "-//W3C//DTD SVG 1.1//EN"
 "http://www.w3.org/Graphics/SVG/1.1/DTD/svg11.dtd">
<!-- Generated by graphviz version 2.40.1 (20161225.0304)
 -->
<!-- Title: ThreeBodyReaction Pages: 1 -->
<svg width="206pt" height="157pt"
 viewBox="0.00 0.00 205.52 157.00" xmlns="http://www.w3.org/2000/svg" xmlns:xlink="http://www.w3.org/1999/xlink">
<g id="graph0" class="graph" transform="scale(1 1) rotate(0) translate(4 153)">
<title>ThreeBodyReaction</title>
<polygon fill="#ffffff" stroke="transparent" points="-4,4 -4,-153 201.522,-153 201.522,4 -4,4"/>
<!-- Node3 -->
<g id="node1" class="node">
<title>Node3</title>
<polygon fill="#bfbfbf" stroke="#000000" points="63.542,-.5 63.542,-18.5 167.9258,-18.5 167.9258,-.5 63.542,-.5"/>
<text text-anchor="middle" x="115.7339" y="-6.5" font-family="Helvetica,sans-Serif" font-size="10.00" fill="#000000">ThreeBodyReaction</text>
</g>
<!-- Node4 -->
<g id="node2" class="node">
<title>Node4</title>
<g id="a_node2"><a xlink:href="classCantera_1_1ElementaryReaction.html" target="_top" xlink:title="A reaction which follows mass&#45;action kinetics with a modified Arrhenius reaction rate. ">
<polygon fill="#ffffff" stroke="#000000" points="11.7119,-65.5 11.7119,-83.5 117.7559,-83.5 117.7559,-65.5 11.7119,-65.5"/>
<text text-anchor="middle" x="64.7339" y="-71.5" font-family="Helvetica,sans-Serif" font-size="10.00" fill="#000000">ElementaryReaction</text>
</a>
</g>
</g>
<!-- Node4&#45;&gt;Node3 -->
<g id="edge1" class="edge">
<title>Node4&#45;&gt;Node3</title>
<path fill="none" stroke="#191970" d="M78.2185,-57.3137C87.874,-45.0077 100.5089,-28.9043 108.3725,-18.8821"/>
<polygon fill="#191970" stroke="#191970" points="75.2445,-55.4341 71.8252,-65.462 80.7517,-59.7551 75.2445,-55.4341"/>
</g>
<!-- Node5 -->
<g id="node3" class="node">
<title>Node5</title>
<g id="a_node3"><a xlink:href="classCantera_1_1Reaction.html" target="_top" xlink:title="Intermediate class which stores data about a reaction and its rate parameterization so that it can be...">
<polygon fill="#ffffff" stroke="#000000" points="0,-130.5 0,-148.5 55.4678,-148.5 55.4678,-130.5 0,-130.5"/>
<text text-anchor="middle" x="27.7339" y="-136.5" font-family="Helvetica,sans-Serif" font-size="10.00" fill="#000000">Reaction</text>
</a>
</g>
</g>
<!-- Node5&#45;&gt;Node4 -->
<g id="edge2" class="edge">
<title>Node5&#45;&gt;Node4</title>
<path fill="none" stroke="#191970" d="M37.9273,-121.5926C44.8765,-109.3846 53.7991,-93.7097 59.3933,-83.8821"/>
<polygon fill="#191970" stroke="#191970" points="34.7839,-120.0399 32.8786,-130.462 40.8673,-123.5028 34.7839,-120.0399"/>
</g>
<!-- Node6 -->
<g id="node4" class="node">
<title>Node6</title>
<g id="a_node4"><a xlink:href="classCantera_1_1Arrhenius.html" target="_top" xlink:title="Arrhenius reaction rate type depends only on temperature. ">
<polygon fill="#ffffff" stroke="#000000" points="73.335,-130.5 73.335,-148.5 132.1328,-148.5 132.1328,-130.5 73.335,-130.5"/>
<text text-anchor="middle" x="102.7339" y="-136.5" font-family="Helvetica,sans-Serif" font-size="10.00" fill="#000000">Arrhenius</text>
</a>
</g>
</g>
<!-- Node6&#45;&gt;Node4 -->
<g id="edge3" class="edge">
<title>Node6&#45;&gt;Node4</title>
<path fill="none" stroke="#9a32cd" stroke-dasharray="5,2" d="M92.265,-121.5926C85.128,-109.3846 75.9642,-93.7097 70.2188,-83.8821"/>
<polygon fill="#9a32cd" stroke="#9a32cd" points="89.3816,-123.5955 97.4501,-130.462 95.4247,-120.0626 89.3816,-123.5955"/>
<text text-anchor="middle" x="96.7388" y="-104" font-family="Helvetica,sans-Serif" font-size="10.00" fill="#000000"> rate</text>
</g>
<!-- Node7 -->
<g id="node5" class="node">
<title>Node7</title>
<g id="a_node5"><a xlink:href="classCantera_1_1ThirdBody.html" target="_top" xlink:title="A class for managing third&#45;body efficiencies, including default values. ">
<polygon fill="#ffffff" stroke="#000000" points="135.9458,-65.5 135.9458,-83.5 197.522,-83.5 197.522,-65.5 135.9458,-65.5"/>
<text text-anchor="middle" x="166.7339" y="-71.5" font-family="Helvetica,sans-Serif" font-size="10.00" fill="#000000">ThirdBody</text>
</a>
</g>
</g>
<!-- Node7&#45;&gt;Node3 -->
<g id="edge4" class="edge">
<title>Node7&#45;&gt;Node3</title>
<path fill="none" stroke="#9a32cd" stroke-dasharray="5,2" d="M153.2493,-57.3137C143.5938,-45.0077 130.9588,-28.9043 123.0953,-18.8821"/>
<polygon fill="#9a32cd" stroke="#9a32cd" points="150.7161,-59.7551 159.6426,-65.462 156.2232,-55.4341 150.7161,-59.7551"/>
<text text-anchor="middle" x="168.4727" y="-39" font-family="Helvetica,sans-Serif" font-size="10.00" fill="#000000"> third_body</text>
</g>
</g>
</svg>
