<?xml version="1.0" encoding="UTF-8" standalone="no"?>
<!DOCTYPE svg PUBLIC "-//W3C//DTD SVG 1.1//EN"
 "http://www.w3.org/Graphics/SVG/1.1/DTD/svg11.dtd">
<!-- Generated by graphviz version 2.38.0 (20140413.2041)
 -->
<!-- Title: LiquidTranInteraction Pages: 1 -->
<svg width="373pt" height="242pt"
 viewBox="0.00 0.00 372.50 242.00" xmlns="http://www.w3.org/2000/svg" xmlns:xlink="http://www.w3.org/1999/xlink">
<g id="graph0" class="graph" transform="scale(1 1) rotate(0) translate(4 238)">
<title>LiquidTranInteraction</title>
<polygon fill="white" stroke="none" points="-4,4 -4,-238 368.5,-238 368.5,4 -4,4"/>
<!-- Node1 -->
<g id="node1" class="node"><title>Node1</title>
<polygon fill="#bfbfbf" stroke="black" points="230,-0.5 230,-19.5 337,-19.5 337,-0.5 230,-0.5"/>
<text text-anchor="middle" x="283.5" y="-7.5" font-family="Helvetica,sans-Serif" font-size="10.00">LiquidTranInteraction</text>
</g>
<!-- Node2 -->
<g id="node2" class="node"><title>Node2</title>
<g id="a_node2"><a xlink:href="classCantera_1_1ThermoPhase.html" target="_top" xlink:title="Base class for a phase with thermodynamic properties. ">
<polygon fill="white" stroke="black" points="195,-78.5 195,-97.5 272,-97.5 272,-78.5 195,-78.5"/>
<text text-anchor="middle" x="233.5" y="-85.5" font-family="Helvetica,sans-Serif" font-size="10.00">ThermoPhase</text>
</a>
</g>
</g>
<!-- Node2&#45;&gt;Node1 -->
<g id="edge1" class="edge"><title>Node2&#45;&gt;Node1</title>
<path fill="none" stroke="#9a32cd" stroke-dasharray="5,2" d="M237.331,-68.54C239.953,-58.8453 244.133,-47.1191 250.5,-38 255.585,-30.7166 263.154,-24.3288 269.761,-19.5973"/>
<polygon fill="#9a32cd" stroke="#9a32cd" points="233.901,-67.8375 235,-78.3751 240.712,-69.452 233.901,-67.8375"/>
<text text-anchor="middle" x="274" y="-46.5" font-family="Helvetica,sans-Serif" font-size="10.00"> m_thermo</text>
</g>
<!-- Node3 -->
<g id="node3" class="node"><title>Node3</title>
<g id="a_node3"><a xlink:href="classCantera_1_1Phase.html" target="_top" xlink:title="Class Phase is the base class for phases of matter, managing the species and elements in a phase...">
<polygon fill="white" stroke="black" points="118.5,-145.5 118.5,-164.5 162.5,-164.5 162.5,-145.5 118.5,-145.5"/>
<text text-anchor="middle" x="140.5" y="-152.5" font-family="Helvetica,sans-Serif" font-size="10.00">Phase</text>
</a>
</g>
</g>
<!-- Node3&#45;&gt;Node2 -->
<g id="edge2" class="edge"><title>Node3&#45;&gt;Node2</title>
<path fill="none" stroke="midnightblue" d="M161.361,-139.42C179.747,-126.569 205.912,-108.282 221.156,-97.6273"/>
<polygon fill="midnightblue" stroke="midnightblue" points="159.234,-136.636 153.042,-145.234 163.244,-142.374 159.234,-136.636"/>
</g>
<!-- Node4 -->
<g id="node4" class="node"><title>Node4</title>
<g id="a_node4"><a xlink:href="classCantera_1_1XML__Node.html" target="_top" xlink:title="Class XML_Node is a tree&#45;based representation of the contents of an XML file. ">
<polygon fill="white" stroke="black" points="0,-213.5 0,-232.5 65,-232.5 65,-213.5 0,-213.5"/>
<text text-anchor="middle" x="32.5" y="-220.5" font-family="Helvetica,sans-Serif" font-size="10.00">XML_Node</text>
</a>
</g>
</g>
<!-- Node4&#45;&gt;Node3 -->
<g id="edge3" class="edge"><title>Node4&#45;&gt;Node3</title>
<path fill="none" stroke="#9a32cd" stroke-dasharray="5,2" d="M55.4283,-207.988C76.9135,-194.858 108.346,-175.65 126.377,-164.63"/>
<polygon fill="#9a32cd" stroke="#9a32cd" points="53.3269,-205.171 46.6191,-213.372 56.977,-211.144 53.3269,-205.171"/>
<text text-anchor="middle" x="113" y="-186" font-family="Helvetica,sans-Serif" font-size="10.00"> m_xml</text>
</g>
<!-- Node4&#45;&gt;Node4 -->
<g id="edge4" class="edge"><title>Node4&#45;&gt;Node4</title>
<path fill="none" stroke="#9a32cd" stroke-dasharray="5,2" d="M75.1447,-228.383C79.9145,-227.367 83,-225.573 83,-223 83,-218.883 75.1012,-216.76 65.0425,-216.631"/>
<polygon fill="#9a32cd" stroke="#9a32cd" points="74.6551,-224.914 65.0425,-229.369 75.3352,-231.881 74.6551,-224.914"/>
<text text-anchor="middle" x="103.5" y="-226" font-family="Helvetica,sans-Serif" font-size="10.00"> m_root</text>
<text text-anchor="middle" x="103.5" y="-215" font-family="Helvetica,sans-Serif" font-size="10.00">m_parent</text>
</g>
<!-- Node5 -->
<g id="node5" class="node"><title>Node5</title>
<g id="a_node5"><a xlink:href="classCantera_1_1ValueCache.html" target="_top" xlink:title="ValueCache">
<polygon fill="white" stroke="black" points="142.5,-213.5 142.5,-232.5 212.5,-232.5 212.5,-213.5 142.5,-213.5"/>
<text text-anchor="middle" x="177.5" y="-220.5" font-family="Helvetica,sans-Serif" font-size="10.00">ValueCache</text>
</a>
</g>
</g>
<!-- Node5&#45;&gt;Node3 -->
<g id="edge5" class="edge"><title>Node5&#45;&gt;Node3</title>
<path fill="none" stroke="#9a32cd" stroke-dasharray="5,2" d="M167.725,-204.563C160.559,-191.781 151.129,-174.96 145.456,-164.841"/>
<polygon fill="#9a32cd" stroke="#9a32cd" points="164.72,-206.36 172.663,-213.372 170.826,-202.937 164.72,-206.36"/>
<text text-anchor="middle" x="183" y="-186" font-family="Helvetica,sans-Serif" font-size="10.00"> m_cache</text>
</g>
<!-- Node6 -->
<g id="node6" class="node"><title>Node6</title>
<g id="a_node6"><a xlink:href="classCantera_1_1MultiSpeciesThermo.html" target="_top" xlink:title="A species thermodynamic property manager for a phase. ">
<polygon fill="white" stroke="black" points="180.5,-145.5 180.5,-164.5 286.5,-164.5 286.5,-145.5 180.5,-145.5"/>
<text text-anchor="middle" x="233.5" y="-152.5" font-family="Helvetica,sans-Serif" font-size="10.00">MultiSpeciesThermo</text>
</a>
</g>
</g>
<!-- Node6&#45;&gt;Node2 -->
<g id="edge6" class="edge"><title>Node6&#45;&gt;Node2</title>
<path fill="none" stroke="#9a32cd" stroke-dasharray="5,2" d="M233.5,-135.037C233.5,-122.67 233.5,-107.12 233.5,-97.6273"/>
<polygon fill="#9a32cd" stroke="#9a32cd" points="230,-135.234 233.5,-145.234 237,-135.234 230,-135.234"/>
<text text-anchor="middle" x="262.5" y="-119" font-family="Helvetica,sans-Serif" font-size="10.00"> m_spthermo</text>
</g>
<!-- Node7 -->
<g id="node7" class="node"><title>Node7</title>
<g id="a_node7"><a xlink:href="classCantera_1_1DenseMatrix.html" target="_top" xlink:title="A class for full (non&#45;sparse) matrices with Fortran&#45;compatible data storage, which adds matrix operat...">
<polygon fill="white" stroke="black" points="292.5,-78.5 292.5,-97.5 364.5,-97.5 364.5,-78.5 292.5,-78.5"/>
<text text-anchor="middle" x="328.5" y="-85.5" font-family="Helvetica,sans-Serif" font-size="10.00">DenseMatrix</text>
</a>
</g>
</g>
<!-- Node7&#45;&gt;Node1 -->
<g id="edge7" class="edge"><title>Node7&#45;&gt;Node1</title>
<path fill="none" stroke="#9a32cd" stroke-dasharray="5,2" d="M318.177,-69.5654C308.93,-53.9486 295.757,-31.7002 288.602,-19.6165"/>
<polygon fill="#9a32cd" stroke="#9a32cd" points="315.231,-71.4603 323.338,-78.2818 321.255,-67.8938 315.231,-71.4603"/>
<text text-anchor="middle" x="326" y="-52" font-family="Helvetica,sans-Serif" font-size="10.00"> m_Dij</text>
<text text-anchor="middle" x="326" y="-41" font-family="Helvetica,sans-Serif" font-size="10.00">m_Eij</text>
</g>
<!-- Node8 -->
<g id="node8" class="node"><title>Node8</title>
<g id="a_node8"><a xlink:href="classCantera_1_1Array2D.html" target="_top" xlink:title="A class for 2D arrays stored in column&#45;major (Fortran&#45;compatible) form. ">
<polygon fill="white" stroke="black" points="304,-145.5 304,-164.5 357,-164.5 357,-145.5 304,-145.5"/>
<text text-anchor="middle" x="330.5" y="-152.5" font-family="Helvetica,sans-Serif" font-size="10.00">Array2D</text>
</a>
</g>
</g>
<!-- Node8&#45;&gt;Node7 -->
<g id="edge8" class="edge"><title>Node8&#45;&gt;Node7</title>
<path fill="none" stroke="midnightblue" d="M329.917,-135.037C329.536,-122.67 329.058,-107.12 328.765,-97.6273"/>
<polygon fill="midnightblue" stroke="midnightblue" points="326.424,-135.346 330.23,-145.234 333.421,-135.131 326.424,-135.346"/>
</g>
</g>
</svg>
