<?xml version="1.0" encoding="UTF-8" standalone="no"?>
<!DOCTYPE svg PUBLIC "-//W3C//DTD SVG 1.1//EN"
 "http://www.w3.org/Graphics/SVG/1.1/DTD/svg11.dtd">
<!-- Generated by graphviz version 2.38.0 (20151222.1943)
 -->
<!-- Title: InterfaceReaction Pages: 1 -->
<svg width="138pt" height="152pt"
 viewBox="0.00 0.00 138.00 152.00" xmlns="http://www.w3.org/2000/svg" xmlns:xlink="http://www.w3.org/1999/xlink">
<g id="graph0" class="graph" transform="scale(1 1) rotate(0) translate(4 148)">
<title>InterfaceReaction</title>
<polygon fill="white" stroke="none" points="-4,4 -4,-148 134,-148 134,4 -4,4"/>
<!-- Node1 -->
<g id="node1" class="node"><title>Node1</title>
<polygon fill="#bfbfbf" stroke="black" points="18,-0.5 18,-19.5 111,-19.5 111,-0.5 18,-0.5"/>
<text text-anchor="middle" x="64.5" y="-7.5" font-family="FreeSans" font-size="10.00">InterfaceReaction</text>
</g>
<!-- Node2 -->
<g id="node2" class="node"><title>Node2</title>
<g id="a_node2"><a xlink:href="classCantera_1_1ElementaryReaction.html" target="_top" xlink:title="A reaction which follows mass&#45;action kinetics with a modified Arrhenius reaction rate. ">
<polygon fill="white" stroke="black" points="13,-57.5 13,-76.5 116,-76.5 116,-57.5 13,-57.5"/>
<text text-anchor="middle" x="64.5" y="-64.5" font-family="FreeSans" font-size="10.00">ElementaryReaction</text>
</a>
</g>
</g>
<!-- Node2&#45;&gt;Node1 -->
<g id="edge1" class="edge"><title>Node2&#45;&gt;Node1</title>
<path fill="none" stroke="midnightblue" d="M64.5,-47.1166C64.5,-37.8173 64.5,-27.0557 64.5,-19.7149"/>
<polygon fill="midnightblue" stroke="midnightblue" points="61.0001,-47.4062 64.5,-57.4062 68.0001,-47.4063 61.0001,-47.4062"/>
</g>
<!-- Node3 -->
<g id="node3" class="node"><title>Node3</title>
<g id="a_node3"><a xlink:href="classCantera_1_1Reaction.html" target="_top" xlink:title="Intermediate class which stores data about a reaction and its rate parameterization so that it can be...">
<polygon fill="white" stroke="black" points="0,-124.5 0,-143.5 55,-143.5 55,-124.5 0,-124.5"/>
<text text-anchor="middle" x="27.5" y="-131.5" font-family="FreeSans" font-size="10.00">Reaction</text>
</a>
</g>
</g>
<!-- Node3&#45;&gt;Node2 -->
<g id="edge2" class="edge"><title>Node3&#45;&gt;Node2</title>
<path fill="none" stroke="midnightblue" d="M37.4418,-115.535C44.6055,-102.95 53.9651,-86.5072 59.5891,-76.6273"/>
<polygon fill="midnightblue" stroke="midnightblue" points="34.3953,-113.812 32.49,-124.234 40.4788,-117.275 34.3953,-113.812"/>
</g>
<!-- Node4 -->
<g id="node4" class="node"><title>Node4</title>
<g id="a_node4"><a xlink:href="classCantera_1_1Arrhenius.html" target="_top" xlink:title="Arrhenius reaction rate type depends only on temperature. ">
<polygon fill="white" stroke="black" points="73,-124.5 73,-143.5 130,-143.5 130,-124.5 73,-124.5"/>
<text text-anchor="middle" x="101.5" y="-131.5" font-family="FreeSans" font-size="10.00">Arrhenius</text>
</a>
</g>
</g>
<!-- Node4&#45;&gt;Node2 -->
<g id="edge3" class="edge"><title>Node4&#45;&gt;Node2</title>
<path fill="none" stroke="#9a32cd" stroke-dasharray="5,2" d="M91.5582,-115.535C84.3945,-102.95 75.0349,-86.5072 69.4109,-76.6273"/>
<polygon fill="#9a32cd" stroke="#9a32cd" points="88.5212,-117.275 96.51,-124.234 94.6047,-113.812 88.5212,-117.275"/>
<text text-anchor="middle" x="94" y="-98" font-family="FreeSans" font-size="10.00"> rate</text>
</g>
</g>
</svg>
