<?xml version="1.0" encoding="UTF-8" standalone="no"?>
<!DOCTYPE svg PUBLIC "-//W3C//DTD SVG 1.1//EN"
 "http://www.w3.org/Graphics/SVG/1.1/DTD/svg11.dtd">
<!-- Generated by graphviz version 2.40.1 (20161225.0304)
 -->
<!-- Title: GasKinetics Pages: 1 -->
<svg width="905pt" height="260pt"
 viewBox="0.00 0.00 905.00 260.00" xmlns="http://www.w3.org/2000/svg" xmlns:xlink="http://www.w3.org/1999/xlink">
<g id="graph0" class="graph" transform="scale(1 1) rotate(0) translate(4 256)">
<title>GasKinetics</title>
<polygon fill="#ffffff" stroke="transparent" points="-4,4 -4,-256 901,-256 901,4 -4,4"/>
<!-- Node4 -->
<g id="node1" class="node">
<title>Node4</title>
<polygon fill="#bfbfbf" stroke="#000000" points="823,-109.5 823,-128.5 897,-128.5 897,-109.5 823,-109.5"/>
<text text-anchor="middle" x="860" y="-116.5" font-family="Helvetica,sans-Serif" font-size="10.00" fill="#000000">GasKinetics</text>
</g>
<!-- Node5 -->
<g id="node2" class="node">
<title>Node5</title>
<g id="a_node2"><a xlink:href="classCantera_1_1BulkKinetics.html" target="_top" xlink:title="Partial specialization of Kinetics for chemistry in a single bulk phase. ">
<polygon fill="#ffffff" stroke="#000000" points="586,-222.5 586,-241.5 663,-241.5 663,-222.5 586,-222.5"/>
<text text-anchor="middle" x="624.5" y="-229.5" font-family="Helvetica,sans-Serif" font-size="10.00" fill="#000000">BulkKinetics</text>
</a>
</g>
</g>
<!-- Node5&#45;&gt;Node4 -->
<g id="edge1" class="edge">
<title>Node5&#45;&gt;Node4</title>
<path fill="none" stroke="#191970" d="M673.5768,-231.8302C712.1023,-229.5477 765.6267,-221.4433 805,-196 831.0779,-179.1482 848.6284,-145.2096 856.0288,-128.5991"/>
<polygon fill="#191970" stroke="#191970" points="672.9542,-228.3559 663.1326,-232.3292 673.2883,-235.3479 672.9542,-228.3559"/>
</g>
<!-- Node6 -->
<g id="node3" class="node">
<title>Node6</title>
<g id="a_node3"><a xlink:href="classCantera_1_1Kinetics.html" target="_top" xlink:title="Public interface for kinetics managers. ">
<polygon fill="#ffffff" stroke="#000000" points="351,-231.5 351,-250.5 407,-250.5 407,-231.5 351,-231.5"/>
<text text-anchor="middle" x="379" y="-238.5" font-family="Helvetica,sans-Serif" font-size="10.00" fill="#000000">Kinetics</text>
</a>
</g>
</g>
<!-- Node6&#45;&gt;Node5 -->
<g id="edge2" class="edge">
<title>Node6&#45;&gt;Node5</title>
<path fill="none" stroke="#191970" d="M417.3058,-239.5957C463.2202,-237.9125 539.7217,-235.108 585.8072,-233.4185"/>
<polygon fill="#191970" stroke="#191970" points="417.027,-236.1035 407.162,-239.9676 417.2835,-243.0988 417.027,-236.1035"/>
</g>
<!-- Node7 -->
<g id="node4" class="node">
<title>Node7</title>
<g id="a_node4"><a xlink:href="classCantera_1_1ValueCache.html" target="_top" xlink:title="ValueCache">
<polygon fill="#ffffff" stroke="#000000" points="128,-231.5 128,-250.5 202,-250.5 202,-231.5 128,-231.5"/>
<text text-anchor="middle" x="165" y="-238.5" font-family="Helvetica,sans-Serif" font-size="10.00" fill="#000000">ValueCache</text>
</a>
</g>
</g>
<!-- Node7&#45;&gt;Node6 -->
<g id="edge3" class="edge">
<title>Node7&#45;&gt;Node6</title>
<path fill="none" stroke="#9a32cd" stroke-dasharray="5,2" d="M212.3588,-241C254.7324,-241 315.4418,-241 350.686,-241"/>
<polygon fill="#9a32cd" stroke="#9a32cd" points="212.276,-237.5001 202.276,-241 212.2759,-244.5001 212.276,-237.5001"/>
<text text-anchor="middle" x="258.5" y="-244" font-family="Helvetica,sans-Serif" font-size="10.00" fill="#000000"> m_cache</text>
</g>
<!-- Node8 -->
<g id="node5" class="node">
<title>Node8</title>
<g id="a_node5"><a xlink:href="classCantera_1_1Rate1.html" target="_top" xlink:title="Rate1\&lt; Cantera::Arrhenius \&gt;">
<polygon fill="#ffffff" stroke="#000000" points="300,-183.5 300,-202.5 458,-202.5 458,-183.5 300,-183.5"/>
<text text-anchor="middle" x="379" y="-190.5" font-family="Helvetica,sans-Serif" font-size="10.00" fill="#000000">Rate1&lt; Cantera::Arrhenius &gt;</text>
</a>
</g>
</g>
<!-- Node8&#45;&gt;Node4 -->
<g id="edge5" class="edge">
<title>Node8&#45;&gt;Node4</title>
<path fill="none" stroke="#9a32cd" stroke-dasharray="5,2" d="M468.2687,-190.7954C555.5445,-186.7693 691.4863,-175.486 805,-144 818.1393,-140.3555 832.117,-133.9656 842.6934,-128.5584"/>
<polygon fill="#9a32cd" stroke="#9a32cd" points="467.9721,-187.3049 458.1353,-191.2403 468.2792,-194.2982 467.9721,-187.3049"/>
<text text-anchor="middle" x="624.5" y="-199" font-family="Helvetica,sans-Serif" font-size="10.00" fill="#000000"> m_falloff_low_rates</text>
<text text-anchor="middle" x="624.5" y="-188" font-family="Helvetica,sans-Serif" font-size="10.00" fill="#000000">m_falloff_high_rates</text>
</g>
<!-- Node8&#45;&gt;Node5 -->
<g id="edge4" class="edge">
<title>Node8&#45;&gt;Node5</title>
<path fill="none" stroke="#9a32cd" stroke-dasharray="5,2" d="M449.1996,-204.1519C493.5469,-211.1969 549.175,-220.0339 585.7247,-225.8402"/>
<polygon fill="#9a32cd" stroke="#9a32cd" points="449.4814,-200.6528 439.0561,-202.5405 448.3831,-207.5661 449.4814,-200.6528"/>
<text text-anchor="middle" x="502.5" y="-218" font-family="Helvetica,sans-Serif" font-size="10.00" fill="#000000"> m_rates</text>
</g>
<!-- Node9 -->
<g id="node6" class="node">
<title>Node9</title>
<g id="a_node6"><a xlink:href="classCantera_1_1Rate1.html" target="_top" xlink:title="Rate1\&lt; Cantera::Plog \&gt;">
<polygon fill="#ffffff" stroke="#000000" points="558,-126.5 558,-145.5 691,-145.5 691,-126.5 558,-126.5"/>
<text text-anchor="middle" x="624.5" y="-133.5" font-family="Helvetica,sans-Serif" font-size="10.00" fill="#000000">Rate1&lt; Cantera::Plog &gt;</text>
</a>
</g>
</g>
<!-- Node9&#45;&gt;Node4 -->
<g id="edge6" class="edge">
<title>Node9&#45;&gt;Node4</title>
<path fill="none" stroke="#9a32cd" stroke-dasharray="5,2" d="M701.2407,-130.4603C742.0534,-127.5142 790.3774,-124.0258 822.9005,-121.6781"/>
<polygon fill="#9a32cd" stroke="#9a32cd" points="700.7626,-126.9856 691.0406,-131.1966 701.2666,-133.9675 700.7626,-126.9856"/>
<text text-anchor="middle" x="762.5" y="-132" font-family="Helvetica,sans-Serif" font-size="10.00" fill="#000000"> m_plog_rates</text>
</g>
<!-- Node10 -->
<g id="node7" class="node">
<title>Node10</title>
<g id="a_node7"><a xlink:href="classCantera_1_1FalloffMgr.html" target="_top" xlink:title="A falloff manager that implements any set of falloff functions. ">
<polygon fill="#ffffff" stroke="#000000" points="592.5,-88.5 592.5,-107.5 656.5,-107.5 656.5,-88.5 592.5,-88.5"/>
<text text-anchor="middle" x="624.5" y="-95.5" font-family="Helvetica,sans-Serif" font-size="10.00" fill="#000000">FalloffMgr</text>
</a>
</g>
</g>
<!-- Node10&#45;&gt;Node4 -->
<g id="edge7" class="edge">
<title>Node10&#45;&gt;Node4</title>
<path fill="none" stroke="#9a32cd" stroke-dasharray="5,2" d="M666.8972,-98.6508C703.5738,-99.6185 757.96,-102.0237 805,-108 810.796,-108.7364 816.8964,-109.7318 822.8401,-110.8244"/>
<polygon fill="#9a32cd" stroke="#9a32cd" points="666.6584,-95.1442 656.5776,-98.4042 666.4911,-102.1422 666.6584,-95.1442"/>
<text text-anchor="middle" x="762.5" y="-111" font-family="Helvetica,sans-Serif" font-size="10.00" fill="#000000"> m_falloffn</text>
</g>
<!-- Node11 -->
<g id="node8" class="node">
<title>Node11</title>
<g id="a_node8"><a xlink:href="classCantera_1_1FalloffFactory.html" target="_top" xlink:title="Factory class to construct falloff function calculators. ">
<polygon fill="#ffffff" stroke="#000000" points="338.5,-88.5 338.5,-107.5 419.5,-107.5 419.5,-88.5 338.5,-88.5"/>
<text text-anchor="middle" x="379" y="-95.5" font-family="Helvetica,sans-Serif" font-size="10.00" fill="#000000">FalloffFactory</text>
</a>
</g>
</g>
<!-- Node11&#45;&gt;Node10 -->
<g id="edge8" class="edge">
<title>Node11&#45;&gt;Node10</title>
<path fill="none" stroke="#9a32cd" stroke-dasharray="5,2" d="M429.568,-98C478.3337,-98 550.6736,-98 592.1409,-98"/>
<polygon fill="#9a32cd" stroke="#9a32cd" points="429.5394,-94.5001 419.5393,-98 429.5393,-101.5001 429.5394,-94.5001"/>
<text text-anchor="middle" x="502.5" y="-101" font-family="Helvetica,sans-Serif" font-size="10.00" fill="#000000"> m_factory</text>
</g>
<!-- Node11&#45;&gt;Node11 -->
<g id="edge11" class="edge">
<title>Node11&#45;&gt;Node11</title>
<path fill="none" stroke="#9a32cd" stroke-dasharray="5,2" d="M356.6787,-117.0292C357.8962,-122.128 365.3367,-126 379,-126 400.3281,-126 406.4933,-116.5653 397.4955,-107.7571"/>
<polygon fill="#9a32cd" stroke="#9a32cd" points="359.9256,-118.3361 360.5045,-107.7571 353.4548,-115.6661 359.9256,-118.3361"/>
<text text-anchor="middle" x="379" y="-129" font-family="Helvetica,sans-Serif" font-size="10.00" fill="#000000"> s_factory</text>
</g>
<!-- Node12 -->
<g id="node9" class="node">
<title>Node12</title>
<g id="a_node9"><a xlink:href="classCantera_1_1Factory.html" target="_top" xlink:title="Factory\&lt; Falloff \&gt;">
<polygon fill="#ffffff" stroke="#000000" points="113,-88.5 113,-107.5 217,-107.5 217,-88.5 113,-88.5"/>
<text text-anchor="middle" x="165" y="-95.5" font-family="Helvetica,sans-Serif" font-size="10.00" fill="#000000">Factory&lt; Falloff &gt;</text>
</a>
</g>
</g>
<!-- Node12&#45;&gt;Node11 -->
<g id="edge9" class="edge">
<title>Node12&#45;&gt;Node11</title>
<path fill="none" stroke="#191970" d="M227.4242,-98C263.2338,-98 307.1544,-98 338.4819,-98"/>
<polygon fill="#191970" stroke="#191970" points="227.0767,-94.5001 217.0766,-98 227.0766,-101.5001 227.0767,-94.5001"/>
</g>
<!-- Node13 -->
<g id="node10" class="node">
<title>Node13</title>
<g id="a_node10"><a xlink:href="classCantera_1_1FactoryBase.html" target="_top" xlink:title="Base class for factories. ">
<polygon fill="#ffffff" stroke="#000000" points="0,-88.5 0,-107.5 76,-107.5 76,-88.5 0,-88.5"/>
<text text-anchor="middle" x="38" y="-95.5" font-family="Helvetica,sans-Serif" font-size="10.00" fill="#000000">FactoryBase</text>
</a>
</g>
</g>
<!-- Node13&#45;&gt;Node12 -->
<g id="edge10" class="edge">
<title>Node13&#45;&gt;Node12</title>
<path fill="none" stroke="#191970" d="M86.1198,-98C94.8496,-98 103.992,-98 112.8317,-98"/>
<polygon fill="#191970" stroke="#191970" points="86.1042,-94.5001 76.1042,-98 86.1042,-101.5001 86.1042,-94.5001"/>
</g>
<!-- Node14 -->
<g id="node11" class="node">
<title>Node14</title>
<g id="a_node11"><a xlink:href="classCantera_1_1Rate1.html" target="_top" xlink:title="Rate1\&lt; Cantera::Chebyshev\lRate \&gt;">
<polygon fill="#ffffff" stroke="#000000" points="547,-39 547,-69 702,-69 702,-39 547,-39"/>
<text text-anchor="start" x="555" y="-57" font-family="Helvetica,sans-Serif" font-size="10.00" fill="#000000">Rate1&lt; Cantera::Chebyshev</text>
<text text-anchor="middle" x="624.5" y="-46" font-family="Helvetica,sans-Serif" font-size="10.00" fill="#000000">Rate &gt;</text>
</a>
</g>
</g>
<!-- Node14&#45;&gt;Node4 -->
<g id="edge12" class="edge">
<title>Node14&#45;&gt;Node4</title>
<path fill="none" stroke="#9a32cd" stroke-dasharray="5,2" d="M712.2481,-62.1897C742.3196,-66.7848 775.7458,-73.9257 805,-85 820.7481,-90.9615 836.9241,-101.6099 847.62,-109.4059"/>
<polygon fill="#9a32cd" stroke="#9a32cd" points="712.5891,-58.7025 702.1895,-60.7269 711.5817,-65.6297 712.5891,-58.7025"/>
<text text-anchor="middle" x="762.5" y="-88" font-family="Helvetica,sans-Serif" font-size="10.00" fill="#000000"> m_cheb_rates</text>
</g>
<!-- Node15 -->
<g id="node12" class="node">
<title>Node15</title>
<g id="a_node12"><a xlink:href="classCantera_1_1ThirdBodyCalc.html" target="_top" xlink:title="Calculate and apply third&#45;body effects on reaction rates, including non&#45; unity third&#45;body efficiencie...">
<polygon fill="#ffffff" stroke="#000000" points="581,-.5 581,-19.5 668,-19.5 668,-.5 581,-.5"/>
<text text-anchor="middle" x="624.5" y="-7.5" font-family="Helvetica,sans-Serif" font-size="10.00" fill="#000000">ThirdBodyCalc</text>
</a>
</g>
</g>
<!-- Node15&#45;&gt;Node4 -->
<g id="edge13" class="edge">
<title>Node15&#45;&gt;Node4</title>
<path fill="none" stroke="#9a32cd" stroke-dasharray="5,2" d="M678.7556,-6.9923C716.8252,-7.4011 767.4336,-13.2256 805,-37 832.8109,-54.6005 849.8429,-91.9252 856.6208,-109.4876"/>
<polygon fill="#9a32cd" stroke="#9a32cd" points="678.3657,-3.4929 668.3718,-7.0102 678.3778,-10.4929 678.3657,-3.4929"/>
<text text-anchor="middle" x="762.5" y="-51" font-family="Helvetica,sans-Serif" font-size="10.00" fill="#000000"> m_falloff_concm</text>
<text text-anchor="middle" x="762.5" y="-40" font-family="Helvetica,sans-Serif" font-size="10.00" fill="#000000">m_3b_concm</text>
</g>
</g>
</svg>
