<?xml version="1.0" encoding="UTF-8" standalone="no"?>
<!DOCTYPE svg PUBLIC "-//W3C//DTD SVG 1.1//EN"
 "http://www.w3.org/Graphics/SVG/1.1/DTD/svg11.dtd">
<!-- Generated by graphviz version 2.40.1 (20161225.0304)
 -->
<!-- Title: Pow1 Pages: 1 -->
<svg width="112pt" height="94pt"
 viewBox="0.00 0.00 112.04 94.00" xmlns="http://www.w3.org/2000/svg" xmlns:xlink="http://www.w3.org/1999/xlink">
<g id="graph0" class="graph" transform="scale(1 1) rotate(0) translate(4 90)">
<title>Pow1</title>
<polygon fill="#ffffff" stroke="transparent" points="-4,4 -4,-90 108.0391,-90 108.0391,4 -4,4"/>
<!-- Node2 -->
<g id="node1" class="node">
<title>Node2</title>
<polygon fill="#bfbfbf" stroke="#000000" points="1.3892,-.5 1.3892,-18.5 42.4038,-18.5 42.4038,-.5 1.3892,-.5"/>
<text text-anchor="middle" x="21.8965" y="-6.5" font-family="Helvetica,sans-Serif" font-size="10.00" fill="#000000">Pow1</text>
</g>
<!-- Node3 -->
<g id="node2" class="node">
<title>Node3</title>
<g id="a_node2"><a xlink:href="classCantera_1_1Func1.html" target="_top" xlink:title="Base class for &#39;functor&#39; classes that evaluate a function of one variable. ">
<polygon fill="#ffffff" stroke="#000000" points="0,-62 0,-80 43.793,-80 43.793,-62 0,-62"/>
<text text-anchor="middle" x="21.8965" y="-68" font-family="Helvetica,sans-Serif" font-size="10.00" fill="#000000">Func1</text>
</a>
</g>
</g>
<!-- Node3&#45;&gt;Node2 -->
<g id="edge1" class="edge">
<title>Node3&#45;&gt;Node2</title>
<path fill="none" stroke="#191970" d="M21.8965,-51.89C21.8965,-40.8023 21.8965,-27.3459 21.8965,-18.6118"/>
<polygon fill="#191970" stroke="#191970" points="18.3966,-51.9254 21.8965,-61.9255 25.3966,-51.9255 18.3966,-51.9254"/>
</g>
<!-- Node3&#45;&gt;Node3 -->
<g id="edge2" class="edge">
<title>Node3&#45;&gt;Node3</title>
<path fill="none" stroke="#9a32cd" stroke-dasharray="5,2" d="M54.2172,-76.3702C58.7541,-75.4942 61.793,-73.7041 61.793,-71 61.793,-66.5625 53.6094,-64.5864 44.0514,-65.0718"/>
<polygon fill="#9a32cd" stroke="#9a32cd" points="53.8445,-72.8853 44.0514,-76.9282 54.2282,-79.8748 53.8445,-72.8853"/>
<text text-anchor="middle" x="82.916" y="-78" font-family="Helvetica,sans-Serif" font-size="10.00" fill="#000000"> m_f1</text>
<text text-anchor="middle" x="82.916" y="-68" font-family="Helvetica,sans-Serif" font-size="10.00" fill="#000000">m_f2</text>
<text text-anchor="middle" x="82.916" y="-58" font-family="Helvetica,sans-Serif" font-size="10.00" fill="#000000">m_parent</text>
</g>
</g>
</svg>
