<?xml version="1.0" encoding="UTF-8" standalone="no"?>
<!DOCTYPE svg PUBLIC "-//W3C//DTD SVG 1.1//EN"
 "http://www.w3.org/Graphics/SVG/1.1/DTD/svg11.dtd">
<!-- Generated by graphviz version 2.40.1 (20161225.0304)
 -->
<!-- Title: PlogReaction Pages: 1 -->
<svg width="124pt" height="95pt"
 viewBox="0.00 0.00 123.50 95.00" xmlns="http://www.w3.org/2000/svg" xmlns:xlink="http://www.w3.org/1999/xlink">
<g id="graph0" class="graph" transform="scale(1 1) rotate(0) translate(4 91)">
<title>PlogReaction</title>
<polygon fill="#ffffff" stroke="transparent" points="-4,4 -4,-91 119.5,-91 119.5,4 -4,4"/>
<!-- Node2 -->
<g id="node1" class="node">
<title>Node2</title>
<polygon fill="#bfbfbf" stroke="#000000" points="22.5,-.5 22.5,-19.5 102.5,-19.5 102.5,-.5 22.5,-.5"/>
<text text-anchor="middle" x="62.5" y="-7.5" font-family="Helvetica,sans-Serif" font-size="10.00" fill="#000000">PlogReaction</text>
</g>
<!-- Node3 -->
<g id="node2" class="node">
<title>Node3</title>
<g id="a_node2"><a xlink:href="classCantera_1_1Reaction.html" target="_top" xlink:title="Intermediate class which stores data about a reaction and its rate parameterization so that it can be...">
<polygon fill="#ffffff" stroke="#000000" points="0,-67.5 0,-86.5 59,-86.5 59,-67.5 0,-67.5"/>
<text text-anchor="middle" x="29.5" y="-74.5" font-family="Helvetica,sans-Serif" font-size="10.00" fill="#000000">Reaction</text>
</a>
</g>
</g>
<!-- Node3&#45;&gt;Node2 -->
<g id="edge1" class="edge">
<title>Node3&#45;&gt;Node2</title>
<path fill="none" stroke="#191970" d="M38.7413,-58.2374C44.9354,-45.6614 52.8341,-29.6246 57.7807,-19.5817"/>
<polygon fill="#191970" stroke="#191970" points="35.5068,-56.8831 34.2281,-67.4005 41.7865,-59.9761 35.5068,-56.8831"/>
</g>
<!-- Node4 -->
<g id="node3" class="node">
<title>Node4</title>
<g id="a_node3"><a xlink:href="classCantera_1_1Plog.html" target="_top" xlink:title="Pressure&#45;dependent reaction rate expressed by logarithmically interpolating between Arrhenius rate ex...">
<polygon fill="#ffffff" stroke="#000000" points="77.5,-67.5 77.5,-86.5 115.5,-86.5 115.5,-67.5 77.5,-67.5"/>
<text text-anchor="middle" x="96.5" y="-74.5" font-family="Helvetica,sans-Serif" font-size="10.00" fill="#000000">Plog</text>
</a>
</g>
</g>
<!-- Node4&#45;&gt;Node2 -->
<g id="edge2" class="edge">
<title>Node4&#45;&gt;Node2</title>
<path fill="none" stroke="#9a32cd" stroke-dasharray="5,2" d="M86.9787,-58.2374C80.5968,-45.6614 72.4588,-29.6246 67.3623,-19.5817"/>
<polygon fill="#9a32cd" stroke="#9a32cd" points="83.9822,-60.0669 91.6286,-67.4005 90.2244,-56.8992 83.9822,-60.0669"/>
<text text-anchor="middle" x="93" y="-41" font-family="Helvetica,sans-Serif" font-size="10.00" fill="#000000"> rate</text>
</g>
</g>
</svg>
