<?xml version="1.0" encoding="UTF-8" standalone="no"?>
<!DOCTYPE svg PUBLIC "-//W3C//DTD SVG 1.1//EN"
 "http://www.w3.org/Graphics/SVG/1.1/DTD/svg11.dtd">
<!-- Generated by graphviz version 2.26.3 (20100126.1600)
 -->
<!-- Title: StoichSubstanceSSTP Pages: 1 -->
<svg width="184pt" height="262pt"
 viewBox="0.00 0.00 184.00 262.00" xmlns="http://www.w3.org/2000/svg" xmlns:xlink="http://www.w3.org/1999/xlink">
<g id="graph1" class="graph" transform="scale(1 1) rotate(0) translate(4 258)">
<title>StoichSubstanceSSTP</title>
<polygon fill="white" stroke="white" points="-4,5 -4,-258 181,-258 181,5 -4,5"/>
<!-- Node1 -->
<g id="node1" class="node"><title>Node1</title>
<polygon fill="#bfbfbf" stroke="black" points="36,-59 36,-79 152,-79 152,-59 36,-59"/>
<text text-anchor="middle" x="94" y="-66" font-family="FreeSans" font-size="10.00">StoichSubstanceSSTP</text>
</g>
<!-- Node5 -->
<g id="node9" class="node"><title>Node5</title>
<a xlink:href="classCantera_1_1electrodeElectron.html" target="_top" xlink:title="Class electrodeElectron represents an electron in a metal using the Standard hydrogen reference elect...">
<polygon fill="white" stroke="black" points="0,-1 0,-21 92,-21 92,-1 0,-1"/>
<text text-anchor="middle" x="46" y="-8" font-family="FreeSans" font-size="10.00">electrodeElectron</text>
</a>
</g>
<!-- Node1&#45;&gt;Node5 -->
<g id="edge8" class="edge"><title>Node1&#45;&gt;Node5</title>
<path fill="none" stroke="midnightblue" d="M79.0877,-50.981C71.0363,-41.2522 61.3839,-29.5889 54.5884,-21.3776"/>
<polygon fill="midnightblue" stroke="midnightblue" points="76.5669,-53.4247 85.639,-58.8972 81.9597,-48.9617 76.5669,-53.4247"/>
</g>
<!-- Node6 -->
<g id="node11" class="node"><title>Node6</title>
<a xlink:href="classCantera_1_1MineralEQ3.html" target="_top" xlink:title="Class MineralEQ3 represents a stoichiometric (fixed composition) incompressible substance based on EQ...">
<polygon fill="white" stroke="black" points="109.5,-1 109.5,-21 176.5,-21 176.5,-1 109.5,-1"/>
<text text-anchor="middle" x="143" y="-8" font-family="FreeSans" font-size="10.00">MineralEQ3</text>
</a>
</g>
<!-- Node1&#45;&gt;Node6 -->
<g id="edge10" class="edge"><title>Node1&#45;&gt;Node6</title>
<path fill="none" stroke="midnightblue" d="M109.223,-50.981C117.442,-41.2522 127.296,-29.5889 134.233,-21.3776"/>
<polygon fill="midnightblue" stroke="midnightblue" points="106.315,-48.9995 102.535,-58.8972 111.662,-53.517 106.315,-48.9995"/>
</g>
<!-- Node2 -->
<g id="node2" class="node"><title>Node2</title>
<a xlink:href="classCantera_1_1SingleSpeciesTP.html" target="_top" xlink:title="The SingleSpeciesTP class is a filter class for ThermoPhase. ">
<polygon fill="white" stroke="black" points="48.5,-117 48.5,-137 139.5,-137 139.5,-117 48.5,-117"/>
<text text-anchor="middle" x="94" y="-124" font-family="FreeSans" font-size="10.00">SingleSpeciesTP</text>
</a>
</g>
<!-- Node2&#45;&gt;Node1 -->
<g id="edge2" class="edge"><title>Node2&#45;&gt;Node1</title>
<path fill="none" stroke="midnightblue" d="M94,-106.89C94,-97.6201 94,-87.0083 94,-79.3776"/>
<polygon fill="midnightblue" stroke="midnightblue" points="90.5001,-106.897 94,-116.897 97.5001,-106.897 90.5001,-106.897"/>
</g>
<!-- Node3 -->
<g id="node4" class="node"><title>Node3</title>
<a xlink:href="classCantera_1_1ThermoPhase.html" target="_top" xlink:title="Base class for a phase with thermodynamic properties. ">
<polygon fill="white" stroke="black" points="55.5,-175 55.5,-195 132.5,-195 132.5,-175 55.5,-175"/>
<text text-anchor="middle" x="94" y="-182" font-family="FreeSans" font-size="10.00">ThermoPhase</text>
</a>
</g>
<!-- Node3&#45;&gt;Node2 -->
<g id="edge4" class="edge"><title>Node3&#45;&gt;Node2</title>
<path fill="none" stroke="midnightblue" d="M94,-164.89C94,-155.62 94,-145.008 94,-137.378"/>
<polygon fill="midnightblue" stroke="midnightblue" points="90.5001,-164.897 94,-174.897 97.5001,-164.897 90.5001,-164.897"/>
</g>
<!-- Node4 -->
<g id="node6" class="node"><title>Node4</title>
<a xlink:href="classCantera_1_1Phase.html" target="_top" xlink:title="Base class for phases of matter. ">
<polygon fill="white" stroke="black" points="72,-233 72,-253 116,-253 116,-233 72,-233"/>
<text text-anchor="middle" x="94" y="-240" font-family="FreeSans" font-size="10.00">Phase</text>
</a>
</g>
<!-- Node4&#45;&gt;Node3 -->
<g id="edge6" class="edge"><title>Node4&#45;&gt;Node3</title>
<path fill="none" stroke="midnightblue" d="M94,-222.89C94,-213.62 94,-203.008 94,-195.378"/>
<polygon fill="midnightblue" stroke="midnightblue" points="90.5001,-222.897 94,-232.897 97.5001,-222.897 90.5001,-222.897"/>
</g>
</g>
</svg>
