<?xml version="1.0" encoding="UTF-8" standalone="no"?>
<!DOCTYPE svg PUBLIC "-//W3C//DTD SVG 1.1//EN"
 "http://www.w3.org/Graphics/SVG/1.1/DTD/svg11.dtd">
<!-- Generated by graphviz version 2.40.1 (20161225.0304)
 -->
<!-- Title: ElectrochemicalReaction Pages: 1 -->
<svg width="148pt" height="209pt"
 viewBox="0.00 0.00 148.00 209.00" xmlns="http://www.w3.org/2000/svg" xmlns:xlink="http://www.w3.org/1999/xlink">
<g id="graph0" class="graph" transform="scale(1 1) rotate(0) translate(4 205)">
<title>ElectrochemicalReaction</title>
<polygon fill="#ffffff" stroke="transparent" points="-4,4 -4,-205 144,-205 144,4 -4,4"/>
<!-- Node4 -->
<g id="node1" class="node">
<title>Node4</title>
<polygon fill="#bfbfbf" stroke="#000000" points="0,-.5 0,-19.5 137,-19.5 137,-.5 0,-.5"/>
<text text-anchor="middle" x="68.5" y="-7.5" font-family="Helvetica,sans-Serif" font-size="10.00" fill="#000000">ElectrochemicalReaction</text>
</g>
<!-- Node5 -->
<g id="node2" class="node">
<title>Node5</title>
<g id="a_node2"><a xlink:href="classCantera_1_1InterfaceReaction.html" target="_top" xlink:title="A reaction occurring on an interface (i.e. a SurfPhase or an EdgePhase) ">
<polygon fill="#ffffff" stroke="#000000" points="17.5,-57.5 17.5,-76.5 119.5,-76.5 119.5,-57.5 17.5,-57.5"/>
<text text-anchor="middle" x="68.5" y="-64.5" font-family="Helvetica,sans-Serif" font-size="10.00" fill="#000000">InterfaceReaction</text>
</a>
</g>
</g>
<!-- Node5&#45;&gt;Node4 -->
<g id="edge1" class="edge">
<title>Node5&#45;&gt;Node4</title>
<path fill="none" stroke="#191970" d="M68.5,-47.2342C68.5,-37.8491 68.5,-27.0651 68.5,-19.5265"/>
<polygon fill="#191970" stroke="#191970" points="65.0001,-47.3307 68.5,-57.3307 72.0001,-47.3308 65.0001,-47.3307"/>
</g>
<!-- Node6 -->
<g id="node3" class="node">
<title>Node6</title>
<g id="a_node3"><a xlink:href="classCantera_1_1ElementaryReaction.html" target="_top" xlink:title="A reaction which follows mass&#45;action kinetics with a modified Arrhenius reaction rate. ">
<polygon fill="#ffffff" stroke="#000000" points="11,-114.5 11,-133.5 126,-133.5 126,-114.5 11,-114.5"/>
<text text-anchor="middle" x="68.5" y="-121.5" font-family="Helvetica,sans-Serif" font-size="10.00" fill="#000000">ElementaryReaction</text>
</a>
</g>
</g>
<!-- Node6&#45;&gt;Node5 -->
<g id="edge2" class="edge">
<title>Node6&#45;&gt;Node5</title>
<path fill="none" stroke="#191970" d="M68.5,-104.2342C68.5,-94.8491 68.5,-84.0651 68.5,-76.5265"/>
<polygon fill="#191970" stroke="#191970" points="65.0001,-104.3307 68.5,-114.3307 72.0001,-104.3308 65.0001,-104.3307"/>
</g>
<!-- Node7 -->
<g id="node4" class="node">
<title>Node7</title>
<g id="a_node4"><a xlink:href="classCantera_1_1Reaction.html" target="_top" xlink:title="Intermediate class which stores data about a reaction and its rate parameterization so that it can be...">
<polygon fill="#ffffff" stroke="#000000" points="0,-181.5 0,-200.5 59,-200.5 59,-181.5 0,-181.5"/>
<text text-anchor="middle" x="29.5" y="-188.5" font-family="Helvetica,sans-Serif" font-size="10.00" fill="#000000">Reaction</text>
</a>
</g>
</g>
<!-- Node7&#45;&gt;Node6 -->
<g id="edge3" class="edge">
<title>Node7&#45;&gt;Node6</title>
<path fill="none" stroke="#191970" d="M40.2047,-172.6099C47.5567,-159.9795 57.0188,-143.7241 62.9226,-133.5817"/>
<polygon fill="#191970" stroke="#191970" points="37.0936,-170.9973 35.0877,-181.4005 43.1434,-174.5188 37.0936,-170.9973"/>
</g>
<!-- Node8 -->
<g id="node5" class="node">
<title>Node8</title>
<g id="a_node5"><a xlink:href="classCantera_1_1Arrhenius.html" target="_top" xlink:title="Arrhenius reaction rate type depends only on temperature. ">
<polygon fill="#ffffff" stroke="#000000" points="77,-181.5 77,-200.5 140,-200.5 140,-181.5 77,-181.5"/>
<text text-anchor="middle" x="108.5" y="-188.5" font-family="Helvetica,sans-Serif" font-size="10.00" fill="#000000">Arrhenius</text>
</a>
</g>
</g>
<!-- Node8&#45;&gt;Node6 -->
<g id="edge4" class="edge">
<title>Node8&#45;&gt;Node6</title>
<path fill="none" stroke="#9a32cd" stroke-dasharray="5,2" d="M97.5208,-172.6099C89.9803,-159.9795 80.2756,-143.7241 74.2204,-133.5817"/>
<polygon fill="#9a32cd" stroke="#9a32cd" points="94.6376,-174.6085 102.769,-181.4005 100.648,-171.0202 94.6376,-174.6085"/>
<text text-anchor="middle" x="102" y="-155" font-family="Helvetica,sans-Serif" font-size="10.00" fill="#000000"> rate</text>
</g>
</g>
</svg>
