<?xml version="1.0" encoding="UTF-8" standalone="no"?>
<!DOCTYPE svg PUBLIC "-//W3C//DTD SVG 1.1//EN"
 "http://www.w3.org/Graphics/SVG/1.1/DTD/svg11.dtd">
<!-- Generated by graphviz version 2.26.3 (20100126.1600)
 -->
<!-- Title: FlowDevice Pages: 1 -->
<svg width="318pt" height="338pt"
 viewBox="0.00 0.00 318.00 338.00" xmlns="http://www.w3.org/2000/svg" xmlns:xlink="http://www.w3.org/1999/xlink">
<g id="graph1" class="graph" transform="scale(1 1) rotate(0) translate(4 334)">
<title>FlowDevice</title>
<polygon fill="white" stroke="white" points="-4,5 -4,-334 315,-334 315,5 -4,5"/>
<!-- Node1 -->
<g id="node1" class="node"><title>Node1</title>
<polygon fill="#bfbfbf" stroke="black" points="158,-1 158,-21 224,-21 224,-1 158,-1"/>
<text text-anchor="middle" x="191" y="-8" font-family="FreeSans" font-size="10.00">FlowDevice</text>
</g>
<!-- Node2 -->
<g id="node2" class="node"><title>Node2</title>
<a xlink:href="classCantera_1_1ReactorBase.html" target="_top" xlink:title="Base class for stirred reactors. ">
<polygon fill="white" stroke="black" points="117,-90 117,-110 189,-110 189,-90 117,-90"/>
<text text-anchor="middle" x="153" y="-97" font-family="FreeSans" font-size="10.00">ReactorBase</text>
</a>
</g>
<!-- Node2&#45;&gt;Node1 -->
<g id="edge2" class="edge"><title>Node2&#45;&gt;Node1</title>
<path fill="none" stroke="#9a32cd" stroke-dasharray="5,2" d="M157.331,-80.0086C160.324,-68.0551 164.874,-52.7605 171,-40 174.176,-33.3839 178.769,-26.5983 182.753,-21.2559"/>
<polygon fill="#9a32cd" stroke="#9a32cd" points="153.892,-79.3438 155.02,-89.8784 160.708,-80.9398 153.892,-79.3438"/>
<text text-anchor="middle" x="186" y="-55" font-family="FreeSans" font-size="10.00"> m_out</text>
<text text-anchor="middle" x="186" y="-43" font-family="FreeSans" font-size="10.00">m_in</text>
</g>
<!-- Node3 -->
<g id="node4" class="node"><title>Node3</title>
<a xlink:href="classCantera_1_1ThermoPhase.html" target="_top" xlink:title="Base class for a phase with thermodynamic properties. ">
<polygon fill="white" stroke="black" points="75.5,-167 75.5,-187 152.5,-187 152.5,-167 75.5,-167"/>
<text text-anchor="middle" x="114" y="-174" font-family="FreeSans" font-size="10.00">ThermoPhase</text>
</a>
</g>
<!-- Node3&#45;&gt;Node2 -->
<g id="edge4" class="edge"><title>Node3&#45;&gt;Node2</title>
<path fill="none" stroke="#9a32cd" stroke-dasharray="5,2" d="M120.217,-157.086C122.628,-150.253 125.625,-142.654 129,-136 133.689,-126.755 140.297,-117.016 145.392,-110.002"/>
<polygon fill="#9a32cd" stroke="#9a32cd" points="116.772,-156.355 116.94,-166.948 123.415,-158.562 116.772,-156.355"/>
<text text-anchor="middle" x="152" y="-139" font-family="FreeSans" font-size="10.00"> m_thermo</text>
</g>
<!-- Node4 -->
<g id="node6" class="node"><title>Node4</title>
<a xlink:href="classCantera_1_1Phase.html" target="_top" xlink:title="Base class for phases of matter. ">
<polygon fill="white" stroke="black" points="10,-237 10,-257 54,-257 54,-237 10,-237"/>
<text text-anchor="middle" x="32" y="-244" font-family="FreeSans" font-size="10.00">Phase</text>
</a>
</g>
<!-- Node4&#45;&gt;Node3 -->
<g id="edge6" class="edge"><title>Node4&#45;&gt;Node3</title>
<path fill="none" stroke="midnightblue" d="M51.3913,-230.446C67.1995,-216.952 89.0082,-198.334 102.273,-187.011"/>
<polygon fill="midnightblue" stroke="midnightblue" points="49.0818,-227.816 43.7486,-236.971 53.6267,-233.14 49.0818,-227.816"/>
</g>
<!-- Node5 -->
<g id="node8" class="node"><title>Node5</title>
<a xlink:href="classCantera_1_1XML__Node.html" target="_top" xlink:title="Class XML_Node is a tree&#45;based representation of the contents of an XML file. ">
<polygon fill="white" stroke="black" points="-0.5,-308 -0.5,-328 64.5,-328 64.5,-308 -0.5,-308"/>
<text text-anchor="middle" x="32" y="-315" font-family="FreeSans" font-size="10.00">XML_Node</text>
</a>
</g>
<!-- Node5&#45;&gt;Node4 -->
<g id="edge8" class="edge"><title>Node5&#45;&gt;Node4</title>
<path fill="none" stroke="#9a32cd" stroke-dasharray="5,2" d="M32,-297.72C32,-284.455 32,-267.691 32,-257.154"/>
<polygon fill="#9a32cd" stroke="#9a32cd" points="28.5001,-297.827 32,-307.827 35.5001,-297.827 28.5001,-297.827"/>
<text text-anchor="middle" x="47.5" y="-279" font-family="FreeSans" font-size="10.00"> m_xml</text>
</g>
<!-- Node5&#45;&gt;Node5 -->
<g id="edge10" class="edge"><title>Node5&#45;&gt;Node5</title>
<path fill="none" stroke="#9a32cd" stroke-dasharray="5,2" d="M74.791,-323.564C79.1888,-322.468 82,-320.614 82,-318 82,-313.711 74.4296,-311.466 64.7005,-311.265"/>
<polygon fill="#9a32cd" stroke="#9a32cd" points="74.2302,-320.105 64.7005,-324.735 75.0374,-327.059 74.2302,-320.105"/>
<text text-anchor="middle" x="102.5" y="-321" font-family="FreeSans" font-size="10.00"> m_root</text>
<text text-anchor="middle" x="102.5" y="-309" font-family="FreeSans" font-size="10.00">m_parent</text>
</g>
<!-- Node6 -->
<g id="node11" class="node"><title>Node6</title>
<a xlink:href="classCantera_1_1SpeciesThermo.html" target="_top" xlink:title="Pure Virtual base class for the species thermo manager classes. ">
<polygon fill="white" stroke="black" points="72,-237 72,-257 156,-257 156,-237 72,-237"/>
<text text-anchor="middle" x="114" y="-244" font-family="FreeSans" font-size="10.00">SpeciesThermo</text>
</a>
</g>
<!-- Node6&#45;&gt;Node3 -->
<g id="edge12" class="edge"><title>Node6&#45;&gt;Node3</title>
<path fill="none" stroke="#9a32cd" stroke-dasharray="5,2" d="M114,-226.613C114,-213.597 114,-197.296 114,-187.011"/>
<polygon fill="#9a32cd" stroke="#9a32cd" points="110.5,-226.971 114,-236.971 117.5,-226.971 110.5,-226.971"/>
<text text-anchor="middle" x="142" y="-209" font-family="FreeSans" font-size="10.00"> m_spthermo</text>
</g>
<!-- Node7 -->
<g id="node13" class="node"><title>Node7</title>
<a xlink:href="classCantera_1_1ReactorNet.html" target="_top" xlink:title="A class representing a network of connected reactors. ">
<polygon fill="white" stroke="black" points="169.5,-167 169.5,-187 234.5,-187 234.5,-167 169.5,-167"/>
<text text-anchor="middle" x="202" y="-174" font-family="FreeSans" font-size="10.00">ReactorNet</text>
</a>
</g>
<!-- Node7&#45;&gt;Node2 -->
<g id="edge14" class="edge"><title>Node7&#45;&gt;Node2</title>
<path fill="none" stroke="#9a32cd" stroke-dasharray="5,2" d="M190.156,-158.389C180.552,-143.296 167.371,-122.583 159.564,-110.315"/>
<polygon fill="#9a32cd" stroke="#9a32cd" points="187.272,-160.376 195.594,-166.934 193.178,-156.618 187.272,-160.376"/>
<text text-anchor="middle" x="198" y="-139" font-family="FreeSans" font-size="10.00"> m_net</text>
</g>
<!-- Node8 -->
<g id="node15" class="node"><title>Node8</title>
<a xlink:href="classCantera_1_1FuncEval.html" target="_top" xlink:title="Virtual base class for ODE right&#45;hand&#45;side function evaluators. ">
<polygon fill="white" stroke="black" points="174,-237 174,-257 230,-257 230,-237 174,-237"/>
<text text-anchor="middle" x="202" y="-244" font-family="FreeSans" font-size="10.00">FuncEval</text>
</a>
</g>
<!-- Node8&#45;&gt;Node7 -->
<g id="edge16" class="edge"><title>Node8&#45;&gt;Node7</title>
<path fill="none" stroke="midnightblue" d="M202,-226.613C202,-213.597 202,-197.296 202,-187.011"/>
<polygon fill="midnightblue" stroke="midnightblue" points="198.5,-226.971 202,-236.971 205.5,-226.971 198.5,-226.971"/>
</g>
<!-- Node9 -->
<g id="node17" class="node"><title>Node9</title>
<a xlink:href="classCantera_1_1Integrator.html" target="_top" xlink:title="Abstract base class for ODE system integrators. ">
<polygon fill="white" stroke="black" points="248,-237 248,-257 306,-257 306,-237 248,-237"/>
<text text-anchor="middle" x="277" y="-244" font-family="FreeSans" font-size="10.00">Integrator</text>
</a>
</g>
<!-- Node9&#45;&gt;Node7 -->
<g id="edge18" class="edge"><title>Node9&#45;&gt;Node7</title>
<path fill="none" stroke="#9a32cd" stroke-dasharray="5,2" d="M258.865,-230.074C244.44,-216.611 224.747,-198.231 212.726,-187.011"/>
<polygon fill="#9a32cd" stroke="#9a32cd" points="256.556,-232.706 266.254,-236.971 261.332,-227.589 256.556,-232.706"/>
<text text-anchor="middle" x="261.5" y="-209" font-family="FreeSans" font-size="10.00"> m_integ</text>
</g>
<!-- Node10 -->
<g id="node19" class="node"><title>Node10</title>
<a xlink:href="classCantera_1_1Func1.html" target="_top" xlink:title="Base class for &#39;functor&#39; classes that evaluate a function of one variable. ">
<polygon fill="white" stroke="black" points="207,-90 207,-110 251,-110 251,-90 207,-90"/>
<text text-anchor="middle" x="229" y="-97" font-family="FreeSans" font-size="10.00">Func1</text>
</a>
</g>
<!-- Node10&#45;&gt;Node1 -->
<g id="edge20" class="edge"><title>Node10&#45;&gt;Node1</title>
<path fill="none" stroke="#9a32cd" stroke-dasharray="5,2" d="M220.612,-80.3548C212.79,-62.0349 201.436,-35.4412 195.308,-21.0904"/>
<polygon fill="#9a32cd" stroke="#9a32cd" points="217.495,-81.9681 224.641,-89.7906 223.933,-79.2194 217.495,-81.9681"/>
<text text-anchor="middle" x="230.5" y="-49" font-family="FreeSans" font-size="10.00"> m_func</text>
</g>
<!-- Node10&#45;&gt;Node10 -->
<g id="edge22" class="edge"><title>Node10&#45;&gt;Node10</title>
<path fill="none" stroke="#9a32cd" stroke-dasharray="5,2" d="M261.405,-107.048C265.953,-105.899 269,-103.549 269,-100 269,-94.1758 260.795,-91.5822 251.212,-92.2192"/>
<polygon fill="#9a32cd" stroke="#9a32cd" points="260.936,-103.573 251.212,-107.781 261.438,-110.555 260.936,-103.573"/>
<text text-anchor="middle" x="289.5" y="-109" font-family="FreeSans" font-size="10.00"> m_f1</text>
<text text-anchor="middle" x="289.5" y="-97" font-family="FreeSans" font-size="10.00">m_f2</text>
<text text-anchor="middle" x="289.5" y="-85" font-family="FreeSans" font-size="10.00">m_parent</text>
</g>
</g>
</svg>
