<?xml version="1.0" encoding="UTF-8" standalone="no"?>
<!DOCTYPE svg PUBLIC "-//W3C//DTD SVG 1.1//EN"
 "http://www.w3.org/Graphics/SVG/1.1/DTD/svg11.dtd">
<!-- Generated by graphviz version 2.40.1 (20161225.0304)
 -->
<!-- Title: ThermoFactory Pages: 1 -->
<svg width="190pt" height="142pt"
 viewBox="0.00 0.00 190.00 142.00" xmlns="http://www.w3.org/2000/svg" xmlns:xlink="http://www.w3.org/1999/xlink">
<g id="graph0" class="graph" transform="scale(1 1) rotate(0) translate(4 138)">
<title>ThermoFactory</title>
<polygon fill="#ffffff" stroke="transparent" points="-4,4 -4,-138 186,-138 186,4 -4,4"/>
<!-- Node3 -->
<g id="node1" class="node">
<title>Node3</title>
<polygon fill="#bfbfbf" stroke="#000000" points="26,-.5 26,-19.5 115,-19.5 115,-.5 26,-.5"/>
<text text-anchor="middle" x="70.5" y="-7.5" font-family="Helvetica,sans-Serif" font-size="10.00" fill="#000000">ThermoFactory</text>
</g>
<!-- Node3&#45;&gt;Node3 -->
<g id="edge3" class="edge">
<title>Node3&#45;&gt;Node3</title>
<path fill="none" stroke="#9a32cd" stroke-dasharray="5,2" d="M125.3258,-14.1012C130.0493,-13.2299 133,-11.8628 133,-10 133,-7.0195 125.4463,-5.3081 115.1631,-4.8657"/>
<polygon fill="#9a32cd" stroke="#9a32cd" points="124.7579,-10.6408 115.1631,-15.1343 125.4659,-17.6049 124.7579,-10.6408"/>
<text text-anchor="middle" x="157.5" y="-7.5" font-family="Helvetica,sans-Serif" font-size="10.00" fill="#000000"> s_factory</text>
</g>
<!-- Node4 -->
<g id="node2" class="node">
<title>Node4</title>
<g id="a_node2"><a xlink:href="classCantera_1_1Factory.html" target="_top" xlink:title="Factory\&lt; ThermoPhase \&gt;">
<polygon fill="#ffffff" stroke="#000000" points="0,-57.5 0,-76.5 141,-76.5 141,-57.5 0,-57.5"/>
<text text-anchor="middle" x="70.5" y="-64.5" font-family="Helvetica,sans-Serif" font-size="10.00" fill="#000000">Factory&lt; ThermoPhase &gt;</text>
</a>
</g>
</g>
<!-- Node4&#45;&gt;Node3 -->
<g id="edge1" class="edge">
<title>Node4&#45;&gt;Node3</title>
<path fill="none" stroke="#191970" d="M70.5,-47.2342C70.5,-37.8491 70.5,-27.0651 70.5,-19.5265"/>
<polygon fill="#191970" stroke="#191970" points="67.0001,-47.3307 70.5,-57.3307 74.0001,-47.3308 67.0001,-47.3307"/>
</g>
<!-- Node5 -->
<g id="node3" class="node">
<title>Node5</title>
<g id="a_node3"><a xlink:href="classCantera_1_1FactoryBase.html" target="_top" xlink:title="Base class for factories. ">
<polygon fill="#ffffff" stroke="#000000" points="32.5,-114.5 32.5,-133.5 108.5,-133.5 108.5,-114.5 32.5,-114.5"/>
<text text-anchor="middle" x="70.5" y="-121.5" font-family="Helvetica,sans-Serif" font-size="10.00" fill="#000000">FactoryBase</text>
</a>
</g>
</g>
<!-- Node5&#45;&gt;Node4 -->
<g id="edge2" class="edge">
<title>Node5&#45;&gt;Node4</title>
<path fill="none" stroke="#191970" d="M70.5,-104.2342C70.5,-94.8491 70.5,-84.0651 70.5,-76.5265"/>
<polygon fill="#191970" stroke="#191970" points="67.0001,-104.3307 70.5,-114.3307 74.0001,-104.3308 67.0001,-104.3307"/>
</g>
</g>
</svg>
