<?xml version="1.0" encoding="UTF-8" standalone="no"?>
<!DOCTYPE svg PUBLIC "-//W3C//DTD SVG 1.1//EN"
 "http://www.w3.org/Graphics/SVG/1.1/DTD/svg11.dtd">
<!-- Generated by graphviz version 2.26.3 (20100126.1600)
 -->
<!-- Title: Falloff Pages: 1 -->
<svg width="218pt" height="88pt"
 viewBox="0.00 0.00 218.00 88.00" xmlns="http://www.w3.org/2000/svg" xmlns:xlink="http://www.w3.org/1999/xlink">
<g id="graph1" class="graph" transform="scale(1 1) rotate(0) translate(4 84)">
<title>Falloff</title>
<polygon fill="white" stroke="white" points="-4,5 -4,-84 215,-84 215,5 -4,5"/>
<!-- Node1 -->
<g id="node1" class="node"><title>Node1</title>
<polygon fill="#bfbfbf" stroke="black" points="82,-59 82,-79 124,-79 124,-59 82,-59"/>
<text text-anchor="middle" x="103" y="-66" font-family="FreeSans" font-size="10.00">Falloff</text>
</g>
<!-- Node2 -->
<g id="node3" class="node"><title>Node2</title>
<a xlink:href="classCantera_1_1SRI3.html" target="_top" xlink:title="The 3&#45;parameter SRI falloff function for F ">
<polygon fill="white" stroke="black" points="0,-1 0,-21 38,-21 38,-1 0,-1"/>
<text text-anchor="middle" x="19" y="-8" font-family="FreeSans" font-size="10.00">SRI3</text>
</a>
</g>
<!-- Node1&#45;&gt;Node2 -->
<g id="edge2" class="edge"><title>Node1&#45;&gt;Node2</title>
<path fill="none" stroke="midnightblue" d="M79.7913,-52.975C65.0709,-42.8109 46.471,-29.9681 33.7459,-21.1817"/>
<polygon fill="midnightblue" stroke="midnightblue" points="78.1506,-56.0954 88.3683,-58.8972 82.128,-50.3351 78.1506,-56.0954"/>
</g>
<!-- Node3 -->
<g id="node5" class="node"><title>Node3</title>
<a xlink:href="classCantera_1_1SRI5.html" target="_top" xlink:title="The 5&#45;parameter SRI falloff function. ">
<polygon fill="white" stroke="black" points="56,-1 56,-21 94,-21 94,-1 56,-1"/>
<text text-anchor="middle" x="75" y="-8" font-family="FreeSans" font-size="10.00">SRI5</text>
</a>
</g>
<!-- Node1&#45;&gt;Node3 -->
<g id="edge4" class="edge"><title>Node1&#45;&gt;Node3</title>
<path fill="none" stroke="midnightblue" d="M93.7275,-49.7926C89.1522,-40.3154 83.8138,-29.2571 80.0099,-21.3776"/>
<polygon fill="midnightblue" stroke="midnightblue" points="90.6233,-51.4133 98.1228,-58.8972 96.9272,-48.37 90.6233,-51.4133"/>
</g>
<!-- Node4 -->
<g id="node7" class="node"><title>Node4</title>
<a xlink:href="classCantera_1_1Troe3.html" target="_top" xlink:title="The 3&#45;parameter Troe falloff parameterization. ">
<polygon fill="white" stroke="black" points="111.5,-1 111.5,-21 152.5,-21 152.5,-1 111.5,-1"/>
<text text-anchor="middle" x="132" y="-8" font-family="FreeSans" font-size="10.00">Troe3</text>
</a>
</g>
<!-- Node1&#45;&gt;Node4 -->
<g id="edge6" class="edge"><title>Node1&#45;&gt;Node4</title>
<path fill="none" stroke="midnightblue" d="M112.604,-49.7926C117.342,-40.3154 122.871,-29.2571 126.811,-21.3776"/>
<polygon fill="midnightblue" stroke="midnightblue" points="109.393,-48.3876 108.051,-58.8972 115.654,-51.5182 109.393,-48.3876"/>
</g>
<!-- Node5 -->
<g id="node9" class="node"><title>Node5</title>
<a xlink:href="classCantera_1_1Troe4.html" target="_top" xlink:title="The 4&#45;parameter Troe falloff parameterization. ">
<polygon fill="white" stroke="black" points="169.5,-1 169.5,-21 210.5,-21 210.5,-1 169.5,-1"/>
<text text-anchor="middle" x="190" y="-8" font-family="FreeSans" font-size="10.00">Troe4</text>
</a>
</g>
<!-- Node1&#45;&gt;Node5 -->
<g id="edge8" class="edge"><title>Node1&#45;&gt;Node5</title>
<path fill="none" stroke="midnightblue" d="M126.607,-53.2619C141.92,-43.0535 161.424,-30.051 174.728,-21.1817"/>
<polygon fill="midnightblue" stroke="midnightblue" points="124.533,-50.4379 118.154,-58.8972 128.416,-56.2623 124.533,-50.4379"/>
</g>
</g>
</svg>
