<?xml version="1.0" encoding="UTF-8" standalone="no"?>
<!DOCTYPE svg PUBLIC "-//W3C//DTD SVG 1.1//EN"
 "http://www.w3.org/Graphics/SVG/1.1/DTD/svg11.dtd">
<!-- Generated by graphviz version 2.40.1 (20161225.0304)
 -->
<!-- Title: LiquidTransportParams Pages: 1 -->
<svg width="368pt" height="377pt"
 viewBox="0.00 0.00 368.00 377.00" xmlns="http://www.w3.org/2000/svg" xmlns:xlink="http://www.w3.org/1999/xlink">
<g id="graph0" class="graph" transform="scale(1 1) rotate(0) translate(4 373)">
<title>LiquidTransportParams</title>
<polygon fill="#ffffff" stroke="transparent" points="-4,4 -4,-373 364,-373 364,4 -4,4"/>
<!-- Node2 -->
<g id="node1" class="node">
<title>Node2</title>
<polygon fill="#bfbfbf" stroke="#000000" points="120.5,-.5 120.5,-19.5 247.5,-19.5 247.5,-.5 120.5,-.5"/>
<text text-anchor="middle" x="184" y="-7.5" font-family="Helvetica,sans-Serif" font-size="10.00" fill="#000000">LiquidTransportParams</text>
</g>
<!-- Node3 -->
<g id="node2" class="node">
<title>Node3</title>
<g id="a_node2"><a xlink:href="classCantera_1_1TransportParams.html" target="_top" xlink:title="Base structure to hold transport model parameters. ">
<polygon fill="#ffffff" stroke="#000000" points="262,-129 262,-148 360,-148 360,-129 262,-129"/>
<text text-anchor="middle" x="311" y="-136" font-family="Helvetica,sans-Serif" font-size="10.00" fill="#000000">TransportParams</text>
</a>
</g>
</g>
<!-- Node3&#45;&gt;Node2 -->
<g id="edge1" class="edge">
<title>Node3&#45;&gt;Node2</title>
<path fill="none" stroke="#191970" d="M309.3966,-118.8748C306.5095,-96.2983 298.4494,-59.5758 276,-38 268.8377,-31.1164 248.4548,-24.5822 228.6899,-19.5599"/>
<polygon fill="#191970" stroke="#191970" points="305.9312,-119.3876 310.4614,-128.965 312.8925,-118.6529 305.9312,-119.3876"/>
</g>
<!-- Node4 -->
<g id="node3" class="node">
<title>Node4</title>
<g id="a_node3"><a xlink:href="classCantera_1_1ThermoPhase.html" target="_top" xlink:title="Base class for a phase with thermodynamic properties. ">
<polygon fill="#ffffff" stroke="#000000" points="178.5,-213.5 178.5,-232.5 261.5,-232.5 261.5,-213.5 178.5,-213.5"/>
<text text-anchor="middle" x="220" y="-220.5" font-family="Helvetica,sans-Serif" font-size="10.00" fill="#000000">ThermoPhase</text>
</a>
</g>
</g>
<!-- Node4&#45;&gt;Node3 -->
<g id="edge2" class="edge">
<title>Node4&#45;&gt;Node3</title>
<path fill="none" stroke="#9a32cd" stroke-dasharray="5,2" d="M247.872,-208.1988C254.1326,-204.2981 260.534,-199.8183 266,-195 282.1799,-180.7373 296.9318,-160.1351 304.8707,-148.1505"/>
<polygon fill="#9a32cd" stroke="#9a32cd" points="245.7636,-205.3787 238.9256,-213.4714 249.3178,-211.4093 245.7636,-205.3787"/>
<text text-anchor="middle" x="305.5" y="-181.5" font-family="Helvetica,sans-Serif" font-size="10.00" fill="#000000"> thermo</text>
</g>
<!-- Node9 -->
<g id="node8" class="node">
<title>Node9</title>
<g id="a_node8"><a xlink:href="classCantera_1_1LiquidTranInteraction.html" target="_top" xlink:title="Base class to handle transport property evaluation in a mixture. ">
<polygon fill="#ffffff" stroke="#000000" points="124.5,-129 124.5,-148 243.5,-148 243.5,-129 124.5,-129"/>
<text text-anchor="middle" x="184" y="-136" font-family="Helvetica,sans-Serif" font-size="10.00" fill="#000000">LiquidTranInteraction</text>
</a>
</g>
</g>
<!-- Node4&#45;&gt;Node9 -->
<g id="edge9" class="edge">
<title>Node4&#45;&gt;Node9</title>
<path fill="none" stroke="#9a32cd" stroke-dasharray="5,2" d="M211.95,-204.1049C204.5434,-186.7198 193.8593,-161.6421 188.0815,-148.0802"/>
<polygon fill="#9a32cd" stroke="#9a32cd" points="208.7308,-205.4787 215.8703,-213.3068 215.1708,-202.7351 208.7308,-205.4787"/>
<text text-anchor="middle" x="235" y="-181.5" font-family="Helvetica,sans-Serif" font-size="10.00" fill="#000000"> m_thermo</text>
</g>
<!-- Node5 -->
<g id="node4" class="node">
<title>Node5</title>
<g id="a_node4"><a xlink:href="classCantera_1_1Phase.html" target="_top" xlink:title="Class Phase is the base class for phases of matter, managing the species and elements in a phase...">
<polygon fill="#ffffff" stroke="#000000" points="121,-280.5 121,-299.5 167,-299.5 167,-280.5 121,-280.5"/>
<text text-anchor="middle" x="144" y="-287.5" font-family="Helvetica,sans-Serif" font-size="10.00" fill="#000000">Phase</text>
</a>
</g>
</g>
<!-- Node5&#45;&gt;Node4 -->
<g id="edge3" class="edge">
<title>Node5&#45;&gt;Node4</title>
<path fill="none" stroke="#191970" d="M162.7844,-273.44C177.363,-260.5879 197.0625,-243.2212 209.1313,-232.5817"/>
<polygon fill="#191970" stroke="#191970" points="160.0757,-271.1621 154.8889,-280.4005 164.7048,-276.413 160.0757,-271.1621"/>
</g>
<!-- Node6 -->
<g id="node5" class="node">
<title>Node6</title>
<g id="a_node5"><a xlink:href="classCantera_1_1XML__Node.html" target="_top" xlink:title="Class XML_Node is a tree&#45;based representation of the contents of an XML file. ">
<polygon fill="#ffffff" stroke="#000000" points="10,-348.5 10,-367.5 78,-367.5 78,-348.5 10,-348.5"/>
<text text-anchor="middle" x="44" y="-355.5" font-family="Helvetica,sans-Serif" font-size="10.00" fill="#000000">XML_Node</text>
</a>
</g>
</g>
<!-- Node6&#45;&gt;Node5 -->
<g id="edge4" class="edge">
<title>Node6&#45;&gt;Node5</title>
<path fill="none" stroke="#9a32cd" stroke-dasharray="5,2" d="M66.6447,-342.6016C86.121,-329.3577 113.5974,-310.6738 130.0214,-299.5054"/>
<polygon fill="#9a32cd" stroke="#9a32cd" points="64.6287,-339.7399 58.3276,-348.2573 68.5649,-345.5284 64.6287,-339.7399"/>
<text text-anchor="middle" x="118.5" y="-321" font-family="Helvetica,sans-Serif" font-size="10.00" fill="#000000"> m_xml</text>
</g>
<!-- Node6&#45;&gt;Node6 -->
<g id="edge5" class="edge">
<title>Node6&#45;&gt;Node6</title>
<path fill="none" stroke="#9a32cd" stroke-dasharray="5,2" d="M88.1476,-363.333C92.9245,-362.3094 96,-360.5317 96,-358 96,-353.9492 88.1268,-351.8289 78.0085,-351.639"/>
<polygon fill="#9a32cd" stroke="#9a32cd" points="87.6044,-359.87 78.0085,-364.361 88.3106,-366.8343 87.6044,-359.87"/>
<text text-anchor="middle" x="119.5" y="-361" font-family="Helvetica,sans-Serif" font-size="10.00" fill="#000000"> m_root</text>
<text text-anchor="middle" x="119.5" y="-350" font-family="Helvetica,sans-Serif" font-size="10.00" fill="#000000">m_parent</text>
</g>
<!-- Node7 -->
<g id="node6" class="node">
<title>Node7</title>
<g id="a_node6"><a xlink:href="classCantera_1_1ValueCache.html" target="_top" xlink:title="ValueCache">
<polygon fill="#ffffff" stroke="#000000" points="161,-348.5 161,-367.5 235,-367.5 235,-348.5 161,-348.5"/>
<text text-anchor="middle" x="198" y="-355.5" font-family="Helvetica,sans-Serif" font-size="10.00" fill="#000000">ValueCache</text>
</a>
</g>
</g>
<!-- Node7&#45;&gt;Node5 -->
<g id="edge6" class="edge">
<title>Node7&#45;&gt;Node5</title>
<path fill="none" stroke="#9a32cd" stroke-dasharray="5,2" d="M183.7735,-340.0852C173.5141,-327.1659 160.0573,-310.2203 151.7225,-299.7247"/>
<polygon fill="#9a32cd" stroke="#9a32cd" points="181.3034,-342.6027 190.2631,-348.2573 186.7852,-338.2495 181.3034,-342.6027"/>
<text text-anchor="middle" x="198.5" y="-321" font-family="Helvetica,sans-Serif" font-size="10.00" fill="#000000"> m_cache</text>
</g>
<!-- Node8 -->
<g id="node7" class="node">
<title>Node8</title>
<g id="a_node7"><a xlink:href="classCantera_1_1MultiSpeciesThermo.html" target="_top" xlink:title="A species thermodynamic property manager for a phase. ">
<polygon fill="#ffffff" stroke="#000000" points="185,-280.5 185,-299.5 301,-299.5 301,-280.5 185,-280.5"/>
<text text-anchor="middle" x="243" y="-287.5" font-family="Helvetica,sans-Serif" font-size="10.00" fill="#000000">MultiSpeciesThermo</text>
</a>
</g>
</g>
<!-- Node8&#45;&gt;Node4 -->
<g id="edge7" class="edge">
<title>Node8&#45;&gt;Node4</title>
<path fill="none" stroke="#9a32cd" stroke-dasharray="5,2" d="M236.4305,-270.8628C232.1332,-258.3444 226.7027,-242.5252 223.2892,-232.5817"/>
<polygon fill="#9a32cd" stroke="#9a32cd" points="233.1474,-272.0787 239.7047,-280.4005 239.7681,-269.8059 233.1474,-272.0787"/>
<text text-anchor="middle" x="265.5" y="-254" font-family="Helvetica,sans-Serif" font-size="10.00" fill="#000000"> m_spthermo</text>
</g>
<!-- Node9&#45;&gt;Node2 -->
<g id="edge8" class="edge">
<title>Node9&#45;&gt;Node2</title>
<path fill="none" stroke="#9a32cd" stroke-dasharray="5,2" d="M184,-118.6733C184,-90.7236 184,-40.8037 184,-19.7705"/>
<polygon fill="#9a32cd" stroke="#9a32cd" points="180.5001,-118.8416 184,-128.8416 187.5001,-118.8416 180.5001,-118.8416"/>
<text text-anchor="middle" x="228" y="-96" font-family="Helvetica,sans-Serif" font-size="10.00" fill="#000000"> hydroRadius</text>
<text text-anchor="middle" x="228" y="-85" font-family="Helvetica,sans-Serif" font-size="10.00" fill="#000000">electCond</text>
<text text-anchor="middle" x="228" y="-74" font-family="Helvetica,sans-Serif" font-size="10.00" fill="#000000">viscosity</text>
<text text-anchor="middle" x="228" y="-63" font-family="Helvetica,sans-Serif" font-size="10.00" fill="#000000">thermalCond</text>
<text text-anchor="middle" x="228" y="-52" font-family="Helvetica,sans-Serif" font-size="10.00" fill="#000000">speciesDiffusivity</text>
<text text-anchor="middle" x="228" y="-41" font-family="Helvetica,sans-Serif" font-size="10.00" fill="#000000">ionConductivity</text>
</g>
<!-- Node10 -->
<g id="node9" class="node">
<title>Node10</title>
<g id="a_node9"><a xlink:href="classCantera_1_1DenseMatrix.html" target="_top" xlink:title="A class for full (non&#45;sparse) matrices with Fortran&#45;compatible data storage, which adds matrix operat...">
<polygon fill="#ffffff" stroke="#000000" points="0,-213.5 0,-232.5 78,-232.5 78,-213.5 0,-213.5"/>
<text text-anchor="middle" x="39" y="-220.5" font-family="Helvetica,sans-Serif" font-size="10.00" fill="#000000">DenseMatrix</text>
</a>
</g>
</g>
<!-- Node10&#45;&gt;Node2 -->
<g id="edge12" class="edge">
<title>Node10&#45;&gt;Node2</title>
<path fill="none" stroke="#9a32cd" stroke-dasharray="5,2" d="M31.5231,-203.9684C24.4567,-182.7613 16.7424,-148.0349 30,-122 57.0777,-68.8256 122.5304,-34.9563 158.7821,-19.6037"/>
<polygon fill="#9a32cd" stroke="#9a32cd" points="28.2588,-205.2338 34.945,-213.4523 34.8433,-202.858 28.2588,-205.2338"/>
<text text-anchor="middle" x="72.5" y="-147" font-family="Helvetica,sans-Serif" font-size="10.00" fill="#000000"> thermalCond_Aij</text>
<text text-anchor="middle" x="72.5" y="-136" font-family="Helvetica,sans-Serif" font-size="10.00" fill="#000000">diff_Dij</text>
<text text-anchor="middle" x="72.5" y="-125" font-family="Helvetica,sans-Serif" font-size="10.00" fill="#000000">radius_Aij</text>
</g>
<!-- Node10&#45;&gt;Node9 -->
<g id="edge10" class="edge">
<title>Node10&#45;&gt;Node9</title>
<path fill="none" stroke="#9a32cd" stroke-dasharray="5,2" d="M64.272,-208.2725C93.9307,-190.9887 142.2573,-162.8259 167.4858,-148.1238"/>
<polygon fill="#9a32cd" stroke="#9a32cd" points="62.2292,-205.412 55.3515,-213.471 65.7537,-211.46 62.2292,-205.412"/>
<text text-anchor="middle" x="141" y="-187" font-family="Helvetica,sans-Serif" font-size="10.00" fill="#000000"> m_Dij</text>
<text text-anchor="middle" x="141" y="-176" font-family="Helvetica,sans-Serif" font-size="10.00" fill="#000000">m_Eij</text>
</g>
<!-- Node11 -->
<g id="node10" class="node">
<title>Node11</title>
<g id="a_node10"><a xlink:href="classCantera_1_1Array2D.html" target="_top" xlink:title="A class for 2D arrays stored in column&#45;major (Fortran&#45;compatible) form. ">
<polygon fill="#ffffff" stroke="#000000" points="11,-280.5 11,-299.5 67,-299.5 67,-280.5 11,-280.5"/>
<text text-anchor="middle" x="39" y="-287.5" font-family="Helvetica,sans-Serif" font-size="10.00" fill="#000000">Array2D</text>
</a>
</g>
</g>
<!-- Node11&#45;&gt;Node10 -->
<g id="edge11" class="edge">
<title>Node11&#45;&gt;Node10</title>
<path fill="none" stroke="#191970" d="M39,-270.1079C39,-257.714 39,-242.3263 39,-232.5817"/>
<polygon fill="#191970" stroke="#191970" points="35.5001,-270.4005 39,-280.4005 42.5001,-270.4006 35.5001,-270.4005"/>
</g>
</g>
</svg>
