<?xml version="1.0" encoding="UTF-8" standalone="no"?>
<!DOCTYPE svg PUBLIC "-//W3C//DTD SVG 1.1//EN"
 "http://www.w3.org/Graphics/SVG/1.1/DTD/svg11.dtd">
<!-- Generated by graphviz version 2.36.0 (20140111.2315)
 -->
<!-- Title: PressureController Pages: 1 -->
<svg width="325pt" height="322pt"
 viewBox="0.00 0.00 325.00 322.00" xmlns="http://www.w3.org/2000/svg" xmlns:xlink="http://www.w3.org/1999/xlink">
<g id="graph0" class="graph" transform="scale(1 1) rotate(0) translate(4 318)">
<title>PressureController</title>
<polygon fill="white" stroke="none" points="-4,4 -4,-318 321,-318 321,4 -4,4"/>
<!-- Node1 -->
<g id="node1" class="node"><title>Node1</title>
<polygon fill="#bfbfbf" stroke="black" points="146.5,-0.5 146.5,-19.5 241.5,-19.5 241.5,-0.5 146.5,-0.5"/>
<text text-anchor="middle" x="194" y="-7.5" font-family="FreeSans" font-size="10.00">PressureController</text>
</g>
<!-- Node2 -->
<g id="node2" class="node"><title>Node2</title>
<g id="a_node2"><a xlink:href="classCantera_1_1FlowDevice.html" target="_top" xlink:title="Base class for &#39;flow devices&#39; (valves, pressure regulators, etc.) connecting reactors. ">
<polygon fill="white" stroke="black" points="161,-68.5 161,-87.5 227,-87.5 227,-68.5 161,-68.5"/>
<text text-anchor="middle" x="194" y="-75.5" font-family="FreeSans" font-size="10.00">FlowDevice</text>
</a>
</g>
</g>
<!-- Node2&#45;&gt;Node1 -->
<g id="edge1" class="edge"><title>Node2&#45;&gt;Node1</title>
<path fill="none" stroke="midnightblue" d="M192.354,-58.0114C191.982,-51.6515 191.759,-44.521 192,-38 192.229,-31.7998 192.754,-24.8151 193.208,-19.5033"/>
<polygon fill="midnightblue" stroke="midnightblue" points="188.889,-58.6142 193.117,-68.3288 195.87,-58.0979 188.889,-58.6142"/>
</g>
<!-- Node2&#45;&gt;Node1 -->
<g id="edge11" class="edge"><title>Node2&#45;&gt;Node1</title>
<path fill="none" stroke="#9a32cd" stroke-dasharray="5,2" d="M194,-58.0413C194,-45.4724 194,-29.5631 194,-19.8411"/>
<polygon fill="#9a32cd" stroke="#9a32cd" points="190.5,-58.3716 194,-68.3717 197.5,-58.3717 190.5,-58.3716"/>
<text text-anchor="middle" x="217" y="-41.5" font-family="FreeSans" font-size="10.00"> m_master</text>
</g>
<!-- Node3 -->
<g id="node3" class="node"><title>Node3</title>
<g id="a_node3"><a xlink:href="classCantera_1_1ReactorBase.html" target="_top" xlink:title="Base class for stirred reactors. ">
<polygon fill="white" stroke="black" points="120,-152.5 120,-171.5 192,-171.5 192,-152.5 120,-152.5"/>
<text text-anchor="middle" x="156" y="-159.5" font-family="FreeSans" font-size="10.00">ReactorBase</text>
</a>
</g>
</g>
<!-- Node3&#45;&gt;Node2 -->
<g id="edge2" class="edge"><title>Node3&#45;&gt;Node2</title>
<path fill="none" stroke="#9a32cd" stroke-dasharray="5,2" d="M160.397,-142.704C163.421,-131.713 167.981,-117.648 174,-106 177.428,-99.3664 182.428,-92.6164 186.571,-87.5248"/>
<polygon fill="#9a32cd" stroke="#9a32cd" points="156.987,-141.91 157.887,-152.466 163.767,-143.653 156.987,-141.91"/>
<text text-anchor="middle" x="189" y="-120" font-family="FreeSans" font-size="10.00"> m_out</text>
<text text-anchor="middle" x="189" y="-109" font-family="FreeSans" font-size="10.00">m_in</text>
</g>
<!-- Node4 -->
<g id="node4" class="node"><title>Node4</title>
<g id="a_node4"><a xlink:href="classCantera_1_1ThermoPhase.html" target="_top" xlink:title="Base class for a phase with thermodynamic properties. ">
<polygon fill="white" stroke="black" points="76.5,-226.5 76.5,-245.5 153.5,-245.5 153.5,-226.5 76.5,-226.5"/>
<text text-anchor="middle" x="115" y="-233.5" font-family="FreeSans" font-size="10.00">ThermoPhase</text>
</a>
</g>
</g>
<!-- Node4&#45;&gt;Node3 -->
<g id="edge3" class="edge"><title>Node4&#45;&gt;Node3</title>
<path fill="none" stroke="#9a32cd" stroke-dasharray="5,2" d="M125.005,-217.43C133.3,-202.863 144.734,-182.784 151.142,-171.531"/>
<polygon fill="#9a32cd" stroke="#9a32cd" points="121.771,-216.036 119.864,-226.458 127.854,-219.5 121.771,-216.036"/>
<text text-anchor="middle" x="160" y="-199.5" font-family="FreeSans" font-size="10.00"> m_thermo</text>
</g>
<!-- Node5 -->
<g id="node5" class="node"><title>Node5</title>
<g id="a_node5"><a xlink:href="classCantera_1_1Phase.html" target="_top" xlink:title="Class Phase is the base class for phases of matter, managing the species and elements in a phase...">
<polygon fill="white" stroke="red" points="0,-294.5 0,-313.5 44,-313.5 44,-294.5 0,-294.5"/>
<text text-anchor="middle" x="22" y="-301.5" font-family="FreeSans" font-size="10.00">Phase</text>
</a>
</g>
</g>
<!-- Node5&#45;&gt;Node4 -->
<g id="edge4" class="edge"><title>Node5&#45;&gt;Node4</title>
<path fill="none" stroke="midnightblue" d="M42.4951,-288.455C60.9711,-275.343 87.5205,-256.502 102.839,-245.63"/>
<polygon fill="midnightblue" stroke="midnightblue" points="40.2876,-285.73 34.1581,-294.372 44.3388,-291.438 40.2876,-285.73"/>
</g>
<!-- Node6 -->
<g id="node6" class="node"><title>Node6</title>
<g id="a_node6"><a xlink:href="classCantera_1_1MultiSpeciesThermo.html" target="_top" xlink:title="A species thermodynamic property manager for a phase. ">
<polygon fill="white" stroke="black" points="62.5,-294.5 62.5,-313.5 167.5,-313.5 167.5,-294.5 62.5,-294.5"/>
<text text-anchor="middle" x="115" y="-301.5" font-family="FreeSans" font-size="10.00">MultiSpeciesThermo</text>
</a>
</g>
</g>
<!-- Node6&#45;&gt;Node4 -->
<g id="edge5" class="edge"><title>Node6&#45;&gt;Node4</title>
<path fill="none" stroke="#9a32cd" stroke-dasharray="5,2" d="M115,-284.041C115,-271.472 115,-255.563 115,-245.841"/>
<polygon fill="#9a32cd" stroke="#9a32cd" points="111.5,-284.372 115,-294.372 118.5,-284.372 111.5,-284.372"/>
<text text-anchor="middle" x="143" y="-267.5" font-family="FreeSans" font-size="10.00"> m_spthermo</text>
</g>
<!-- Node7 -->
<g id="node7" class="node"><title>Node7</title>
<g id="a_node7"><a xlink:href="classCantera_1_1ReactorNet.html" target="_top" xlink:title="A class representing a network of connected reactors. ">
<polygon fill="white" stroke="black" points="181.5,-226.5 181.5,-245.5 246.5,-245.5 246.5,-226.5 181.5,-226.5"/>
<text text-anchor="middle" x="214" y="-233.5" font-family="FreeSans" font-size="10.00">ReactorNet</text>
</a>
</g>
</g>
<!-- Node7&#45;&gt;Node3 -->
<g id="edge6" class="edge"><title>Node7&#45;&gt;Node3</title>
<path fill="none" stroke="#9a32cd" stroke-dasharray="5,2" d="M201.368,-218.216C196.076,-211.28 189.814,-203.194 184,-196 177.2,-187.585 169.19,-178.195 163.484,-171.59"/>
<polygon fill="#9a32cd" stroke="#9a32cd" points="198.615,-220.378 207.445,-226.233 204.194,-216.149 198.615,-220.378"/>
<text text-anchor="middle" x="209" y="-199.5" font-family="FreeSans" font-size="10.00"> m_net</text>
</g>
<!-- Node8 -->
<g id="node8" class="node"><title>Node8</title>
<g id="a_node8"><a xlink:href="classCantera_1_1FuncEval.html" target="_top" xlink:title="Virtual base class for ODE right&#45;hand&#45;side function evaluators. ">
<polygon fill="white" stroke="black" points="186,-294.5 186,-313.5 242,-313.5 242,-294.5 186,-294.5"/>
<text text-anchor="middle" x="214" y="-301.5" font-family="FreeSans" font-size="10.00">FuncEval</text>
</a>
</g>
</g>
<!-- Node8&#45;&gt;Node7 -->
<g id="edge7" class="edge"><title>Node8&#45;&gt;Node7</title>
<path fill="none" stroke="midnightblue" d="M214,-284.041C214,-271.472 214,-255.563 214,-245.841"/>
<polygon fill="midnightblue" stroke="midnightblue" points="210.5,-284.372 214,-294.372 217.5,-284.372 210.5,-284.372"/>
</g>
<!-- Node9 -->
<g id="node9" class="node"><title>Node9</title>
<g id="a_node9"><a xlink:href="classCantera_1_1Integrator.html" target="_top" xlink:title="Abstract base class for ODE system integrators. ">
<polygon fill="white" stroke="black" points="260,-294.5 260,-313.5 318,-313.5 318,-294.5 260,-294.5"/>
<text text-anchor="middle" x="289" y="-301.5" font-family="FreeSans" font-size="10.00">Integrator</text>
</a>
</g>
</g>
<!-- Node9&#45;&gt;Node7 -->
<g id="edge8" class="edge"><title>Node9&#45;&gt;Node7</title>
<path fill="none" stroke="#9a32cd" stroke-dasharray="5,2" d="M271.287,-287.412C256.553,-274.447 236.109,-256.456 224.047,-245.841"/>
<polygon fill="#9a32cd" stroke="#9a32cd" points="269.376,-290.393 279.195,-294.372 274,-285.138 269.376,-290.393"/>
<text text-anchor="middle" x="277.5" y="-267.5" font-family="FreeSans" font-size="10.00"> m_integ</text>
</g>
<!-- Node10 -->
<g id="node10" class="node"><title>Node10</title>
<g id="a_node10"><a xlink:href="classCantera_1_1Func1.html" target="_top" xlink:title="Base class for &#39;functor&#39; classes that evaluate a function of one variable. ">
<polygon fill="white" stroke="black" points="210,-152.5 210,-171.5 254,-171.5 254,-152.5 210,-152.5"/>
<text text-anchor="middle" x="232" y="-159.5" font-family="FreeSans" font-size="10.00">Func1</text>
</a>
</g>
</g>
<!-- Node10&#45;&gt;Node2 -->
<g id="edge9" class="edge"><title>Node10&#45;&gt;Node2</title>
<path fill="none" stroke="#9a32cd" stroke-dasharray="5,2" d="M223.536,-142.736C215.6,-125.61 204.077,-100.744 198.037,-87.7123"/>
<polygon fill="#9a32cd" stroke="#9a32cd" points="220.553,-144.623 227.933,-152.225 226.904,-141.68 220.553,-144.623"/>
<text text-anchor="middle" x="234.5" y="-114.5" font-family="FreeSans" font-size="10.00"> m_func</text>
</g>
<!-- Node10&#45;&gt;Node10 -->
<g id="edge10" class="edge"><title>Node10&#45;&gt;Node10</title>
<path fill="none" stroke="#9a32cd" stroke-dasharray="5,2" d="M264.111,-168.578C268.259,-167.44 271,-165.247 271,-162 271,-156.531 263.224,-154.053 254.051,-154.566"/>
<polygon fill="#9a32cd" stroke="#9a32cd" points="263.718,-165.099 254.051,-169.434 264.312,-172.074 263.718,-165.099"/>
<text text-anchor="middle" x="291.5" y="-170.5" font-family="FreeSans" font-size="10.00"> m_f1</text>
<text text-anchor="middle" x="291.5" y="-159.5" font-family="FreeSans" font-size="10.00">m_f2</text>
<text text-anchor="middle" x="291.5" y="-148.5" font-family="FreeSans" font-size="10.00">m_parent</text>
</g>
</g>
</svg>
