<?xml version="1.0" encoding="UTF-8" standalone="no"?>
<!DOCTYPE svg PUBLIC "-//W3C//DTD SVG 1.1//EN"
 "http://www.w3.org/Graphics/SVG/1.1/DTD/svg11.dtd">
<!-- Generated by graphviz version 2.40.1 (20161225.0304)
 -->
<!-- Title: MultiPhase Pages: 1 -->
<svg width="88pt" height="148pt"
 viewBox="0.00 0.00 87.97 148.00" xmlns="http://www.w3.org/2000/svg" xmlns:xlink="http://www.w3.org/1999/xlink">
<g id="graph0" class="graph" transform="scale(1 1) rotate(0) translate(4 144)">
<title>MultiPhase</title>
<polygon fill="#ffffff" stroke="transparent" points="-4,4 -4,-144 83.9653,-144 83.9653,4 -4,4"/>
<!-- Node1 -->
<g id="node1" class="node">
<title>Node1</title>
<polygon fill="#bfbfbf" stroke="#000000" points="3.3301,-.5 3.3301,-18.5 68.7979,-18.5 68.7979,-.5 3.3301,-.5"/>
<text text-anchor="middle" x="36.064" y="-6.5" font-family="Helvetica,sans-Serif" font-size="10.00" fill="#000000">MultiPhase</text>
</g>
<!-- Node2 -->
<g id="node2" class="node">
<title>Node2</title>
<g id="a_node2"><a xlink:href="classCantera_1_1DenseMatrix.html" target="_top" xlink:title="A class for full (non&#45;sparse) matrices with Fortran&#45;compatible data storage, which adds matrix operat...">
<polygon fill="#ffffff" stroke="#000000" points="0,-65.5 0,-83.5 72.1279,-83.5 72.1279,-65.5 0,-65.5"/>
<text text-anchor="middle" x="36.064" y="-71.5" font-family="Helvetica,sans-Serif" font-size="10.00" fill="#000000">DenseMatrix</text>
</a>
</g>
</g>
<!-- Node2&#45;&gt;Node1 -->
<g id="edge1" class="edge">
<title>Node2&#45;&gt;Node1</title>
<path fill="none" stroke="#9a32cd" stroke-dasharray="5,2" d="M36.064,-55.1265C36.064,-43.1522 36.064,-28.3205 36.064,-18.8821"/>
<polygon fill="#9a32cd" stroke="#9a32cd" points="32.5641,-55.462 36.064,-65.462 39.5641,-55.4621 32.5641,-55.462"/>
<text text-anchor="middle" x="58.0146" y="-39" font-family="Helvetica,sans-Serif" font-size="10.00" fill="#000000"> m_atoms</text>
</g>
<!-- Node3 -->
<g id="node3" class="node">
<title>Node3</title>
<g id="a_node3"><a xlink:href="classCantera_1_1Array2D.html" target="_top" xlink:title="A class for 2D arrays stored in column&#45;major (Fortran&#45;compatible) form. ">
<polygon fill="#ffffff" stroke="#000000" points="9.7266,-121.5 9.7266,-139.5 62.4014,-139.5 62.4014,-121.5 9.7266,-121.5"/>
<text text-anchor="middle" x="36.064" y="-127.5" font-family="Helvetica,sans-Serif" font-size="10.00" fill="#000000">Array2D</text>
</a>
</g>
</g>
<!-- Node3&#45;&gt;Node2 -->
<g id="edge2" class="edge">
<title>Node3&#45;&gt;Node2</title>
<path fill="none" stroke="#191970" d="M36.064,-111.2065C36.064,-101.8384 36.064,-91.0262 36.064,-83.5752"/>
<polygon fill="#191970" stroke="#191970" points="32.5641,-111.2527 36.064,-121.2527 39.5641,-111.2528 32.5641,-111.2527"/>
</g>
</g>
</svg>
