<?xml version="1.0" encoding="UTF-8" standalone="no"?>
<!DOCTYPE svg PUBLIC "-//W3C//DTD SVG 1.1//EN"
 "http://www.w3.org/Graphics/SVG/1.1/DTD/svg11.dtd">
<!-- Generated by graphviz version 2.38.0 (20151222.1943)
 -->
<!-- Title: Wall Pages: 1 -->
<svg width="423pt" height="331pt"
 viewBox="0.00 0.00 423.00 331.00" xmlns="http://www.w3.org/2000/svg" xmlns:xlink="http://www.w3.org/1999/xlink">
<g id="graph0" class="graph" transform="scale(1 1) rotate(0) translate(4 327)">
<title>Wall</title>
<polygon fill="white" stroke="none" points="-4,4 -4,-327 419,-327 419,4 -4,4"/>
<!-- Node1 -->
<g id="node1" class="node"><title>Node1</title>
<polygon fill="#bfbfbf" stroke="black" points="160,-0.5 160,-19.5 195,-19.5 195,-0.5 160,-0.5"/>
<text text-anchor="middle" x="177.5" y="-7.5" font-family="FreeSans" font-size="10.00">Wall</text>
</g>
<!-- Node2 -->
<g id="node2" class="node"><title>Node2</title>
<g id="a_node2"><a xlink:href="classCantera_1_1SurfPhase.html" target="_top" xlink:title="A simple thermodynamic model for a surface phase, assuming an ideal solution model. ">
<polygon fill="white" stroke="black" points="192.5,-85 192.5,-104 254.5,-104 254.5,-85 192.5,-85"/>
<text text-anchor="middle" x="223.5" y="-92" font-family="FreeSans" font-size="10.00">SurfPhase</text>
</a>
</g>
</g>
<!-- Node2&#45;&gt;Node1 -->
<g id="edge1" class="edge"><title>Node2&#45;&gt;Node1</title>
<path fill="none" stroke="#9a32cd" stroke-dasharray="5,2" d="M213.694,-75.9131C204.036,-58.5919 189.688,-32.8594 182.293,-19.5955"/>
<polygon fill="#9a32cd" stroke="#9a32cd" points="210.824,-77.9522 218.75,-84.9818 216.937,-74.5432 210.824,-77.9522"/>
<text text-anchor="middle" x="221.5" y="-46.5" font-family="FreeSans" font-size="10.00"> m_surf</text>
</g>
<!-- Node3 -->
<g id="node3" class="node"><title>Node3</title>
<g id="a_node3"><a xlink:href="classCantera_1_1ThermoPhase.html" target="_top" xlink:title="Base class for a phase with thermodynamic properties. ">
<polygon fill="white" stroke="black" points="203,-158.5 203,-177.5 280,-177.5 280,-158.5 203,-158.5"/>
<text text-anchor="middle" x="241.5" y="-165.5" font-family="FreeSans" font-size="10.00">ThermoPhase</text>
</a>
</g>
</g>
<!-- Node3&#45;&gt;Node2 -->
<g id="edge2" class="edge"><title>Node3&#45;&gt;Node2</title>
<path fill="none" stroke="midnightblue" d="M236.846,-148.513C233.269,-134.305 228.487,-115.309 225.725,-104.339"/>
<polygon fill="midnightblue" stroke="midnightblue" points="233.457,-149.39 239.293,-158.233 240.246,-147.681 233.457,-149.39"/>
</g>
<!-- Node8 -->
<g id="node8" class="node"><title>Node8</title>
<g id="a_node8"><a xlink:href="classCantera_1_1ReactorBase.html" target="_top" xlink:title="Base class for stirred reactors. ">
<polygon fill="white" stroke="black" points="102.5,-85 102.5,-104 174.5,-104 174.5,-85 102.5,-85"/>
<text text-anchor="middle" x="138.5" y="-92" font-family="FreeSans" font-size="10.00">ReactorBase</text>
</a>
</g>
</g>
<!-- Node3&#45;&gt;Node8 -->
<g id="edge9" class="edge"><title>Node3&#45;&gt;Node8</title>
<path fill="none" stroke="#9a32cd" stroke-dasharray="5,2" d="M208.481,-154.426C199.687,-150.41 190.433,-145.546 182.5,-140 167.719,-129.667 153.606,-114.023 145.51,-104.301"/>
<polygon fill="#9a32cd" stroke="#9a32cd" points="207.193,-157.682 217.76,-158.443 209.974,-151.258 207.193,-157.682"/>
<text text-anchor="middle" x="205.5" y="-132" font-family="FreeSans" font-size="10.00"> m_thermo</text>
</g>
<!-- Node4 -->
<g id="node4" class="node"><title>Node4</title>
<g id="a_node4"><a xlink:href="classCantera_1_1Phase.html" target="_top" xlink:title="Class Phase is the base class for phases of matter, managing the species and elements in a phase...">
<polygon fill="white" stroke="black" points="301.5,-234.5 301.5,-253.5 345.5,-253.5 345.5,-234.5 301.5,-234.5"/>
<text text-anchor="middle" x="323.5" y="-241.5" font-family="FreeSans" font-size="10.00">Phase</text>
</a>
</g>
</g>
<!-- Node4&#45;&gt;Node3 -->
<g id="edge3" class="edge"><title>Node4&#45;&gt;Node3</title>
<path fill="none" stroke="midnightblue" d="M318.291,-224.54C314.826,-215.024 309.427,-203.81 301.5,-196 293.119,-187.743 281.769,-181.759 271.196,-177.557"/>
<polygon fill="midnightblue" stroke="midnightblue" points="315.031,-225.834 321.414,-234.29 321.697,-223.699 315.031,-225.834"/>
</g>
<!-- Node5 -->
<g id="node5" class="node"><title>Node5</title>
<g id="a_node5"><a xlink:href="classCantera_1_1XML__Node.html" target="_top" xlink:title="Class XML_Node is a tree&#45;based representation of the contents of an XML file. ">
<polygon fill="white" stroke="black" points="291,-302.5 291,-321.5 356,-321.5 356,-302.5 291,-302.5"/>
<text text-anchor="middle" x="323.5" y="-309.5" font-family="FreeSans" font-size="10.00">XML_Node</text>
</a>
</g>
</g>
<!-- Node5&#45;&gt;Node4 -->
<g id="edge4" class="edge"><title>Node5&#45;&gt;Node4</title>
<path fill="none" stroke="#9a32cd" stroke-dasharray="5,2" d="M323.5,-292.041C323.5,-279.472 323.5,-263.563 323.5,-253.841"/>
<polygon fill="#9a32cd" stroke="#9a32cd" points="320,-292.372 323.5,-302.372 327,-292.372 320,-292.372"/>
<text text-anchor="middle" x="339" y="-275" font-family="FreeSans" font-size="10.00"> m_xml</text>
</g>
<!-- Node5&#45;&gt;Node5 -->
<g id="edge5" class="edge"><title>Node5&#45;&gt;Node5</title>
<path fill="none" stroke="#9a32cd" stroke-dasharray="5,2" d="M366.145,-317.383C370.915,-316.367 374,-314.573 374,-312 374,-307.883 366.101,-305.76 356.042,-305.631"/>
<polygon fill="#9a32cd" stroke="#9a32cd" points="365.655,-313.914 356.042,-318.369 366.335,-320.881 365.655,-313.914"/>
<text text-anchor="middle" x="394.5" y="-315" font-family="FreeSans" font-size="10.00"> m_root</text>
<text text-anchor="middle" x="394.5" y="-304" font-family="FreeSans" font-size="10.00">m_parent</text>
</g>
<!-- Node6 -->
<g id="node6" class="node"><title>Node6</title>
<g id="a_node6"><a xlink:href="classCantera_1_1ValueCache.html" target="_top" xlink:title="ValueCache">
<polygon fill="white" stroke="black" points="96.5,-302.5 96.5,-321.5 164.5,-321.5 164.5,-302.5 96.5,-302.5"/>
<text text-anchor="middle" x="130.5" y="-309.5" font-family="FreeSans" font-size="10.00">ValueCache</text>
</a>
</g>
</g>
<!-- Node6&#45;&gt;Node4 -->
<g id="edge6" class="edge"><title>Node6&#45;&gt;Node4</title>
<path fill="none" stroke="#9a32cd" stroke-dasharray="5,2" d="M165.218,-299.128C204.674,-285.635 267.908,-264.011 301.254,-252.607"/>
<polygon fill="#9a32cd" stroke="#9a32cd" points="164.061,-295.824 155.731,-302.372 166.326,-302.448 164.061,-295.824"/>
<text text-anchor="middle" x="266" y="-275" font-family="FreeSans" font-size="10.00"> m_cache</text>
</g>
<!-- Node12 -->
<g id="node12" class="node"><title>Node12</title>
<g id="a_node12"><a xlink:href="classCantera_1_1Kinetics.html" target="_top" xlink:title="Public interface for kinetics managers. ">
<polygon fill="white" stroke="black" points="0,-196.5 0,-215.5 51,-215.5 51,-196.5 0,-196.5"/>
<text text-anchor="middle" x="25.5" y="-203.5" font-family="FreeSans" font-size="10.00">Kinetics</text>
</a>
</g>
</g>
<!-- Node6&#45;&gt;Node12 -->
<g id="edge14" class="edge"><title>Node6&#45;&gt;Node12</title>
<path fill="none" stroke="#9a32cd" stroke-dasharray="5,2" d="M99.3819,-298.064C79.9264,-288.515 55.7519,-273.75 40.5,-254 31.7051,-242.611 27.9935,-225.929 26.4811,-215.806"/>
<polygon fill="#9a32cd" stroke="#9a32cd" points="97.9533,-301.259 108.494,-302.331 100.922,-294.92 97.9533,-301.259"/>
<text text-anchor="middle" x="95" y="-275" font-family="FreeSans" font-size="10.00"> m_cache</text>
</g>
<!-- Node7 -->
<g id="node7" class="node"><title>Node7</title>
<g id="a_node7"><a xlink:href="classCantera_1_1SpeciesThermo.html" target="_top" xlink:title="Pure Virtual base class for the species thermo manager classes. ">
<polygon fill="white" stroke="black" points="199.5,-234.5 199.5,-253.5 283.5,-253.5 283.5,-234.5 199.5,-234.5"/>
<text text-anchor="middle" x="241.5" y="-241.5" font-family="FreeSans" font-size="10.00">SpeciesThermo</text>
</a>
</g>
</g>
<!-- Node7&#45;&gt;Node3 -->
<g id="edge7" class="edge"><title>Node7&#45;&gt;Node3</title>
<path fill="none" stroke="#9a32cd" stroke-dasharray="5,2" d="M241.5,-224.072C241.5,-209.18 241.5,-189.111 241.5,-177.768"/>
<polygon fill="#9a32cd" stroke="#9a32cd" points="238,-224.221 241.5,-234.221 245,-224.221 238,-224.221"/>
<text text-anchor="middle" x="269.5" y="-203.5" font-family="FreeSans" font-size="10.00"> m_spthermo</text>
</g>
<!-- Node8&#45;&gt;Node1 -->
<g id="edge8" class="edge"><title>Node8&#45;&gt;Node1</title>
<path fill="none" stroke="#9a32cd" stroke-dasharray="5,2" d="M142.773,-74.9841C145.753,-63.8743 150.31,-49.6801 156.5,-38 159.948,-31.4936 164.983,-24.9556 169.258,-19.9431"/>
<polygon fill="#9a32cd" stroke="#9a32cd" points="139.335,-74.3093 140.317,-84.8585 146.128,-75.9993 139.335,-74.3093"/>
<text text-anchor="middle" x="173" y="-52" font-family="FreeSans" font-size="10.00"> m_left</text>
<text text-anchor="middle" x="173" y="-41" font-family="FreeSans" font-size="10.00">m_right</text>
</g>
<!-- Node9 -->
<g id="node9" class="node"><title>Node9</title>
<g id="a_node9"><a xlink:href="classCantera_1_1ReactorNet.html" target="_top" xlink:title="A class representing a network of connected reactors. ">
<polygon fill="white" stroke="black" points="95,-158.5 95,-177.5 160,-177.5 160,-158.5 95,-158.5"/>
<text text-anchor="middle" x="127.5" y="-165.5" font-family="FreeSans" font-size="10.00">ReactorNet</text>
</a>
</g>
</g>
<!-- Node9&#45;&gt;Node8 -->
<g id="edge10" class="edge"><title>Node9&#45;&gt;Node8</title>
<path fill="none" stroke="#9a32cd" stroke-dasharray="5,2" d="M127.013,-148.404C127.11,-142.2 127.499,-135.273 128.5,-129 129.877,-120.369 132.869,-110.848 135.223,-104.17"/>
<polygon fill="#9a32cd" stroke="#9a32cd" points="123.514,-148.515 127.087,-158.489 130.514,-148.464 123.514,-148.515"/>
<text text-anchor="middle" x="143.5" y="-132" font-family="FreeSans" font-size="10.00"> m_net</text>
</g>
<!-- Node10 -->
<g id="node10" class="node"><title>Node10</title>
<g id="a_node10"><a xlink:href="classCantera_1_1FuncEval.html" target="_top" xlink:title="Virtual base class for ODE right&#45;hand&#45;side function evaluators. ">
<polygon fill="white" stroke="black" points="125.5,-234.5 125.5,-253.5 181.5,-253.5 181.5,-234.5 125.5,-234.5"/>
<text text-anchor="middle" x="153.5" y="-241.5" font-family="FreeSans" font-size="10.00">FuncEval</text>
</a>
</g>
</g>
<!-- Node10&#45;&gt;Node9 -->
<g id="edge11" class="edge"><title>Node10&#45;&gt;Node9</title>
<path fill="none" stroke="midnightblue" d="M147.003,-224.509C141.756,-209.575 134.605,-189.222 130.581,-177.768"/>
<polygon fill="midnightblue" stroke="midnightblue" points="143.798,-225.946 150.415,-234.221 150.403,-223.626 143.798,-225.946"/>
</g>
<!-- Node11 -->
<g id="node11" class="node"><title>Node11</title>
<g id="a_node11"><a xlink:href="classCantera_1_1Integrator.html" target="_top" xlink:title="Abstract base class for ODE system integrators. ">
<polygon fill="white" stroke="black" points="49.5,-234.5 49.5,-253.5 107.5,-253.5 107.5,-234.5 49.5,-234.5"/>
<text text-anchor="middle" x="78.5" y="-241.5" font-family="FreeSans" font-size="10.00">Integrator</text>
</a>
</g>
</g>
<!-- Node11&#45;&gt;Node9 -->
<g id="edge12" class="edge"><title>Node11&#45;&gt;Node9</title>
<path fill="none" stroke="#9a32cd" stroke-dasharray="5,2" d="M83.2026,-224.747C86.1088,-215.594 90.4558,-204.648 96.5,-196 101.488,-188.863 108.762,-182.397 115.011,-177.582"/>
<polygon fill="#9a32cd" stroke="#9a32cd" points="79.8202,-223.845 80.4376,-234.422 86.5508,-225.769 79.8202,-223.845"/>
<text text-anchor="middle" x="115" y="-203.5" font-family="FreeSans" font-size="10.00"> m_integ</text>
</g>
<!-- Node12&#45;&gt;Node1 -->
<g id="edge13" class="edge"><title>Node12&#45;&gt;Node1</title>
<path fill="none" stroke="#9a32cd" stroke-dasharray="5,2" d="M32.4258,-186.908C42.9451,-160.944 64.799,-112.454 93.5,-78 114.274,-53.061 145.615,-31.0711 163.56,-19.5426"/>
<polygon fill="#9a32cd" stroke="#9a32cd" points="29.15,-185.674 28.7351,-196.261 35.6614,-188.244 29.15,-185.674"/>
<text text-anchor="middle" x="79.5" y="-132" font-family="FreeSans" font-size="10.00"> m_chem</text>
</g>
<!-- Node13 -->
<g id="node13" class="node"><title>Node13</title>
<g id="a_node13"><a xlink:href="classCantera_1_1Func1.html" target="_top" xlink:title="Base class for &#39;functor&#39; classes that evaluate a function of one variable. ">
<polygon fill="white" stroke="black" points="272.5,-85 272.5,-104 316.5,-104 316.5,-85 272.5,-85"/>
<text text-anchor="middle" x="294.5" y="-92" font-family="FreeSans" font-size="10.00">Func1</text>
</a>
</g>
</g>
<!-- Node13&#45;&gt;Node1 -->
<g id="edge15" class="edge"><title>Node13&#45;&gt;Node1</title>
<path fill="none" stroke="#9a32cd" stroke-dasharray="5,2" d="M281.853,-76.9881C271.931,-64.9202 257.209,-48.8355 241.5,-38 227.106,-28.0714 208.485,-20.728 195.044,-16.2265"/>
<polygon fill="#9a32cd" stroke="#9a32cd" points="279.209,-79.2871 288.174,-84.9329 284.687,-74.9286 279.209,-79.2871"/>
<text text-anchor="middle" x="277.5" y="-52" font-family="FreeSans" font-size="10.00"> m_vf</text>
<text text-anchor="middle" x="277.5" y="-41" font-family="FreeSans" font-size="10.00">m_qf</text>
</g>
<!-- Node13&#45;&gt;Node13 -->
<g id="edge16" class="edge"><title>Node13&#45;&gt;Node13</title>
<path fill="none" stroke="#9a32cd" stroke-dasharray="5,2" d="M326.905,-101.213C331.453,-100.118 334.5,-97.8801 334.5,-94.5 334.5,-88.9531 326.295,-86.483 316.712,-87.0897"/>
<polygon fill="#9a32cd" stroke="#9a32cd" points="326.45,-97.7356 316.712,-101.91 326.928,-104.719 326.45,-97.7356"/>
<text text-anchor="middle" x="355" y="-103" font-family="FreeSans" font-size="10.00"> m_f1</text>
<text text-anchor="middle" x="355" y="-92" font-family="FreeSans" font-size="10.00">m_f2</text>
<text text-anchor="middle" x="355" y="-81" font-family="FreeSans" font-size="10.00">m_parent</text>
</g>
</g>
</svg>
