<?xml version="1.0" encoding="UTF-8" standalone="no"?>
<!DOCTYPE svg PUBLIC "-//W3C//DTD SVG 1.1//EN"
 "http://www.w3.org/Graphics/SVG/1.1/DTD/svg11.dtd">
<!-- Generated by graphviz version 2.36.0 (20140111.2315)
 -->
<!-- Title: LTPspecies_Poly Pages: 1 -->
<svg width="293pt" height="292pt"
 viewBox="0.00 0.00 293.00 292.00" xmlns="http://www.w3.org/2000/svg" xmlns:xlink="http://www.w3.org/1999/xlink">
<g id="graph0" class="graph" transform="scale(1 1) rotate(0) translate(4 288)">
<title>LTPspecies_Poly</title>
<polygon fill="white" stroke="none" points="-4,4 -4,-288 289,-288 289,4 -4,4"/>
<!-- Node1 -->
<g id="node1" class="node"><title>Node1</title>
<polygon fill="#bfbfbf" stroke="black" points="163.5,-0.5 163.5,-19.5 254.5,-19.5 254.5,-0.5 163.5,-0.5"/>
<text text-anchor="middle" x="209" y="-7.5" font-family="FreeSans" font-size="10.00">LTPspecies_Poly</text>
</g>
<!-- Node2 -->
<g id="node2" class="node"><title>Node2</title>
<g id="a_node2"><a xlink:href="classCantera_1_1LTPspecies.html" target="_top" xlink:title="Class LTPspecies holds transport parameterizations for a specific liquid&#45; phase species. ">
<polygon fill="white" stroke="black" points="175.5,-58.5 175.5,-77.5 242.5,-77.5 242.5,-58.5 175.5,-58.5"/>
<text text-anchor="middle" x="209" y="-65.5" font-family="FreeSans" font-size="10.00">LTPspecies</text>
</a>
</g>
</g>
<!-- Node2&#45;&gt;Node1 -->
<g id="edge1" class="edge"><title>Node2&#45;&gt;Node1</title>
<path fill="none" stroke="midnightblue" d="M209,-47.953C209,-38.2875 209,-27.0312 209,-19.5052"/>
<polygon fill="midnightblue" stroke="midnightblue" points="205.5,-48.25 209,-58.25 212.5,-48.25 205.5,-48.25"/>
</g>
<!-- Node3 -->
<g id="node3" class="node"><title>Node3</title>
<g id="a_node3"><a xlink:href="classCantera_1_1ThermoPhase.html" target="_top" xlink:title="Base class for a phase with thermodynamic properties. ">
<polygon fill="white" stroke="black" points="170.5,-126.5 170.5,-145.5 247.5,-145.5 247.5,-126.5 170.5,-126.5"/>
<text text-anchor="middle" x="209" y="-133.5" font-family="FreeSans" font-size="10.00">ThermoPhase</text>
</a>
</g>
</g>
<!-- Node3&#45;&gt;Node2 -->
<g id="edge2" class="edge"><title>Node3&#45;&gt;Node2</title>
<path fill="none" stroke="#9a32cd" stroke-dasharray="5,2" d="M209,-116.041C209,-103.472 209,-87.5631 209,-77.8411"/>
<polygon fill="#9a32cd" stroke="#9a32cd" points="205.5,-116.372 209,-126.372 212.5,-116.372 205.5,-116.372"/>
<text text-anchor="middle" x="232" y="-99.5" font-family="FreeSans" font-size="10.00"> m_thermo</text>
</g>
<!-- Node4 -->
<g id="node4" class="node"><title>Node4</title>
<g id="a_node4"><a xlink:href="classCantera_1_1Phase.html" target="_top" xlink:title="Class Phase is the base class for phases of matter, managing the species and elements in a phase...">
<polygon fill="white" stroke="black" points="118,-194.5 118,-213.5 162,-213.5 162,-194.5 118,-194.5"/>
<text text-anchor="middle" x="140" y="-201.5" font-family="FreeSans" font-size="10.00">Phase</text>
</a>
</g>
</g>
<!-- Node4&#45;&gt;Node3 -->
<g id="edge3" class="edge"><title>Node4&#45;&gt;Node3</title>
<path fill="none" stroke="midnightblue" d="M156.296,-187.412C169.851,-174.447 188.66,-156.456 199.757,-145.841"/>
<polygon fill="midnightblue" stroke="midnightblue" points="153.828,-184.93 149.021,-194.372 158.666,-189.989 153.828,-184.93"/>
</g>
<!-- Node5 -->
<g id="node5" class="node"><title>Node5</title>
<g id="a_node5"><a xlink:href="classCantera_1_1XML__Node.html" target="_top" xlink:title="Class XML_Node is a tree&#45;based representation of the contents of an XML file. ">
<polygon fill="white" stroke="black" points="-0.5,-263.5 -0.5,-282.5 64.5,-282.5 64.5,-263.5 -0.5,-263.5"/>
<text text-anchor="middle" x="32" y="-270.5" font-family="FreeSans" font-size="10.00">XML_Node</text>
</a>
</g>
</g>
<!-- Node5&#45;&gt;Node4 -->
<g id="edge4" class="edge"><title>Node5&#45;&gt;Node4</title>
<path fill="none" stroke="#9a32cd" stroke-dasharray="5,2" d="M54.6907,-257.923C76.317,-244.507 108.179,-224.741 126.219,-213.549"/>
<polygon fill="#9a32cd" stroke="#9a32cd" points="52.7716,-254.995 46.1191,-263.241 56.4618,-260.943 52.7716,-254.995"/>
<text text-anchor="middle" x="111.5" y="-235.5" font-family="FreeSans" font-size="10.00"> m_xml</text>
</g>
<!-- Node5&#45;&gt;Node5 -->
<g id="edge5" class="edge"><title>Node5&#45;&gt;Node5</title>
<path fill="none" stroke="#9a32cd" stroke-dasharray="5,2" d="M74.791,-278.255C79.1888,-277.22 82,-275.468 82,-273 82,-268.949 74.4296,-266.829 64.7005,-266.639"/>
<polygon fill="#9a32cd" stroke="#9a32cd" points="74.2595,-274.792 64.7005,-279.361 75.0224,-281.75 74.2595,-274.792"/>
<text text-anchor="middle" x="102.5" y="-276" font-family="FreeSans" font-size="10.00"> m_root</text>
<text text-anchor="middle" x="102.5" y="-265" font-family="FreeSans" font-size="10.00">m_parent</text>
</g>
<!-- Node6 -->
<g id="node6" class="node"><title>Node6</title>
<g id="a_node6"><a xlink:href="classCantera_1_1ValueCache.html" target="_top" xlink:title="ValueCache">
<polygon fill="white" stroke="black" points="142,-263.5 142,-282.5 210,-282.5 210,-263.5 142,-263.5"/>
<text text-anchor="middle" x="176" y="-270.5" font-family="FreeSans" font-size="10.00">ValueCache</text>
</a>
</g>
</g>
<!-- Node6&#45;&gt;Node4 -->
<g id="edge6" class="edge"><title>Node6&#45;&gt;Node4</title>
<path fill="none" stroke="#9a32cd" stroke-dasharray="5,2" d="M166.43,-254.188C159.368,-241.046 150.07,-223.742 144.594,-213.549"/>
<polygon fill="#9a32cd" stroke="#9a32cd" points="163.477,-256.089 171.294,-263.241 169.644,-252.775 163.477,-256.089"/>
<text text-anchor="middle" x="182.5" y="-235.5" font-family="FreeSans" font-size="10.00"> m_cache</text>
</g>
<!-- Node7 -->
<g id="node7" class="node"><title>Node7</title>
<g id="a_node7"><a xlink:href="classCantera_1_1MultiSpeciesThermo.html" target="_top" xlink:title="A species thermodynamic property manager for a phase. ">
<polygon fill="white" stroke="black" points="180.5,-194.5 180.5,-213.5 285.5,-213.5 285.5,-194.5 180.5,-194.5"/>
<text text-anchor="middle" x="233" y="-201.5" font-family="FreeSans" font-size="10.00">MultiSpeciesThermo</text>
</a>
</g>
</g>
<!-- Node7&#45;&gt;Node3 -->
<g id="edge7" class="edge"><title>Node7&#45;&gt;Node3</title>
<path fill="none" stroke="#9a32cd" stroke-dasharray="5,2" d="M226.384,-184.807C221.773,-172.124 215.822,-155.762 212.215,-145.841"/>
<polygon fill="#9a32cd" stroke="#9a32cd" points="223.156,-186.17 229.862,-194.372 229.734,-183.778 223.156,-186.17"/>
<text text-anchor="middle" x="252" y="-167.5" font-family="FreeSans" font-size="10.00"> m_spthermo</text>
</g>
</g>
</svg>
