<?xml version="1.0" encoding="UTF-8" standalone="no"?>
<!DOCTYPE svg PUBLIC "-//W3C//DTD SVG 1.1//EN"
 "http://www.w3.org/Graphics/SVG/1.1/DTD/svg11.dtd">
<!-- Generated by graphviz version 2.36.0 (20140111.2315)
 -->
<!-- Title: Sim1D Pages: 1 -->
<svg width="198pt" height="177pt"
 viewBox="0.00 0.00 198.40 176.50" xmlns="http://www.w3.org/2000/svg" xmlns:xlink="http://www.w3.org/1999/xlink">
<g id="graph0" class="graph" transform="scale(1 1) rotate(0) translate(4 172.5)">
<title>Sim1D</title>
<polygon fill="white" stroke="none" points="-4,4 -4,-172.5 194.401,-172.5 194.401,4 -4,4"/>
<!-- Node1 -->
<g id="node1" class="node"><title>Node1</title>
<polygon fill="#bfbfbf" stroke="black" points="8.40052,-0.5 8.40052,-19.5 54.4005,-19.5 54.4005,-0.5 8.40052,-0.5"/>
<text text-anchor="middle" x="31.4005" y="-7.5" font-family="FreeSans" font-size="10.00">Sim1D</text>
</g>
<!-- Node2 -->
<g id="node2" class="node"><title>Node2</title>
<g id="a_node2"><a xlink:href="classCantera_1_1OneDim.html" target="_top" xlink:title="Container class for multiple&#45;domain 1D problems. ">
<polygon fill="white" stroke="black" points="96.4005,-58.5 96.4005,-77.5 148.401,-77.5 148.401,-58.5 96.4005,-58.5"/>
<text text-anchor="middle" x="122.401" y="-65.5" font-family="FreeSans" font-size="10.00">OneDim</text>
</a>
</g>
</g>
<!-- Node2&#45;&gt;Node1 -->
<g id="edge1" class="edge"><title>Node2&#45;&gt;Node1</title>
<path fill="none" stroke="midnightblue" d="M99.784,-53.0821C82.7136,-42.5773 59.8334,-28.4972 45.3515,-19.5852"/>
<polygon fill="midnightblue" stroke="midnightblue" points="98.2286,-56.2346 108.58,-58.4948 101.897,-50.273 98.2286,-56.2346"/>
</g>
<!-- Node3 -->
<g id="node3" class="node"><title>Node3</title>
<g id="a_node3"><a xlink:href="classCantera_1_1Func1.html" target="_top" xlink:title="Base class for &#39;functor&#39; classes that evaluate a function of one variable. ">
<polygon fill="white" stroke="black" points="11.4005,-142.5 11.4005,-161.5 55.4005,-161.5 55.4005,-142.5 11.4005,-142.5"/>
<text text-anchor="middle" x="33.4005" y="-149.5" font-family="FreeSans" font-size="10.00">Func1</text>
</a>
</g>
</g>
<!-- Node3&#45;&gt;Node1 -->
<g id="edge4" class="edge"><title>Node3&#45;&gt;Node1</title>
<path fill="none" stroke="#9a32cd" stroke-dasharray="5,2" d="M21.209,-133.834C9.55747,-115.28 -5.19369,-84.7701 2.40052,-58 6.58723,-43.2416 16.8687,-28.5718 23.991,-19.6449"/>
<polygon fill="#9a32cd" stroke="#9a32cd" points="18.4308,-135.977 26.8846,-142.363 24.2585,-132.099 18.4308,-135.977"/>
<text text-anchor="middle" x="44.9005" y="-65.5" font-family="FreeSans" font-size="10.00"> m_steady_callback</text>
</g>
<!-- Node3&#45;&gt;Node2 -->
<g id="edge2" class="edge"><title>Node3&#45;&gt;Node2</title>
<path fill="none" stroke="#9a32cd" stroke-dasharray="5,2" d="M50.4006,-135.337C68.9759,-118.223 98.0661,-91.4205 112.944,-77.7123"/>
<polygon fill="#9a32cd" stroke="#9a32cd" points="47.9079,-132.875 42.9251,-142.225 52.6511,-138.023 47.9079,-132.875"/>
<text text-anchor="middle" x="140.401" y="-110" font-family="FreeSans" font-size="10.00"> m_time_step_callback</text>
<text text-anchor="middle" x="140.401" y="-99" font-family="FreeSans" font-size="10.00">m_interrupt</text>
</g>
<!-- Node3&#45;&gt;Node3 -->
<g id="edge3" class="edge"><title>Node3&#45;&gt;Node3</title>
<path fill="none" stroke="#9a32cd" stroke-dasharray="5,2" d="M65.5118,-159.236C69.6592,-157.984 72.4005,-155.572 72.4005,-152 72.4005,-145.984 64.6246,-143.259 55.4515,-143.823"/>
<polygon fill="#9a32cd" stroke="#9a32cd" points="65.0819,-155.761 55.4515,-160.177 65.7342,-162.73 65.0819,-155.761"/>
<text text-anchor="middle" x="92.9005" y="-160.5" font-family="FreeSans" font-size="10.00"> m_f1</text>
<text text-anchor="middle" x="92.9005" y="-149.5" font-family="FreeSans" font-size="10.00">m_f2</text>
<text text-anchor="middle" x="92.9005" y="-138.5" font-family="FreeSans" font-size="10.00">m_parent</text>
</g>
</g>
</svg>
