<?xml version="1.0" encoding="UTF-8" standalone="no"?>
<!DOCTYPE svg PUBLIC "-//W3C//DTD SVG 1.1//EN"
 "http://www.w3.org/Graphics/SVG/1.1/DTD/svg11.dtd">
<!-- Generated by graphviz version 2.40.1 (20161225.0304)
 -->
<!-- Title: DebyeHuckel Pages: 1 -->
<svg width="412pt" height="296pt"
 viewBox="0.00 0.00 412.00 296.00" xmlns="http://www.w3.org/2000/svg" xmlns:xlink="http://www.w3.org/1999/xlink">
<g id="graph0" class="graph" transform="scale(1 1) rotate(0) translate(4 292)">
<title>DebyeHuckel</title>
<polygon fill="#ffffff" stroke="transparent" points="-4,4 -4,-292 408,-292 408,4 -4,4"/>
<!-- Node5 -->
<g id="node1" class="node">
<title>Node5</title>
<polygon fill="#bfbfbf" stroke="#000000" points="139,-.5 139,-19.5 221,-19.5 221,-.5 139,-.5"/>
<text text-anchor="middle" x="180" y="-7.5" font-family="Helvetica,sans-Serif" font-size="10.00" fill="#000000">DebyeHuckel</text>
</g>
<!-- Node6 -->
<g id="node2" class="node">
<title>Node6</title>
<g id="a_node2"><a xlink:href="classCantera_1_1MolalityVPSSTP.html" target="_top" xlink:title="MolalityVPSSTP">
<polygon fill="#ffffff" stroke="#000000" points="40,-67.5 40,-86.5 132,-86.5 132,-67.5 40,-67.5"/>
<text text-anchor="middle" x="86" y="-74.5" font-family="Helvetica,sans-Serif" font-size="10.00" fill="#000000">MolalityVPSSTP</text>
</a>
</g>
</g>
<!-- Node6&#45;&gt;Node5 -->
<g id="edge1" class="edge">
<title>Node6&#45;&gt;Node5</title>
<path fill="none" stroke="#191970" d="M107.732,-61.5102C125.891,-48.567 151.2114,-30.5195 166.5571,-19.5817"/>
<polygon fill="#191970" stroke="#191970" points="105.5796,-58.7462 99.4679,-67.4005 109.6426,-64.4464 105.5796,-58.7462"/>
</g>
<!-- Node7 -->
<g id="node3" class="node">
<title>Node7</title>
<g id="a_node3"><a xlink:href="classCantera_1_1VPStandardStateTP.html" target="_top" xlink:title="This is a filter class for ThermoPhase that implements some prepatory steps for efficiently handling ...">
<polygon fill="#ffffff" stroke="#000000" points="27,-134.5 27,-153.5 137,-153.5 137,-134.5 27,-134.5"/>
<text text-anchor="middle" x="82" y="-141.5" font-family="Helvetica,sans-Serif" font-size="10.00" fill="#000000">VPStandardStateTP</text>
</a>
</g>
</g>
<!-- Node7&#45;&gt;Node6 -->
<g id="edge2" class="edge">
<title>Node7&#45;&gt;Node6</title>
<path fill="none" stroke="#191970" d="M83.1876,-124.1079C83.9275,-111.714 84.8462,-96.3263 85.428,-86.5817"/>
<polygon fill="#191970" stroke="#191970" points="79.6754,-124.2097 82.5731,-134.4005 86.6629,-124.6269 79.6754,-124.2097"/>
</g>
<!-- Node8 -->
<g id="node4" class="node">
<title>Node8</title>
<g id="a_node4"><a xlink:href="classCantera_1_1ThermoPhase.html" target="_top" xlink:title="Base class for a phase with thermodynamic properties. ">
<polygon fill="#ffffff" stroke="#000000" points="40.5,-201.5 40.5,-220.5 123.5,-220.5 123.5,-201.5 40.5,-201.5"/>
<text text-anchor="middle" x="82" y="-208.5" font-family="Helvetica,sans-Serif" font-size="10.00" fill="#000000">ThermoPhase</text>
</a>
</g>
</g>
<!-- Node8&#45;&gt;Node7 -->
<g id="edge3" class="edge">
<title>Node8&#45;&gt;Node7</title>
<path fill="none" stroke="#191970" d="M82,-191.1079C82,-178.714 82,-163.3263 82,-153.5817"/>
<polygon fill="#191970" stroke="#191970" points="78.5001,-191.4005 82,-201.4005 85.5001,-191.4006 78.5001,-191.4005"/>
</g>
<!-- Node9 -->
<g id="node5" class="node">
<title>Node9</title>
<g id="a_node5"><a xlink:href="classCantera_1_1Phase.html" target="_top" xlink:title="Class Phase is the base class for phases of matter, managing the species and elements in a phase...">
<polygon fill="#ffffff" stroke="#ff0000" points="0,-268.5 0,-287.5 46,-287.5 46,-268.5 0,-268.5"/>
<text text-anchor="middle" x="23" y="-275.5" font-family="Helvetica,sans-Serif" font-size="10.00" fill="#000000">Phase</text>
</a>
</g>
</g>
<!-- Node9&#45;&gt;Node8 -->
<g id="edge4" class="edge">
<title>Node9&#45;&gt;Node8</title>
<path fill="none" stroke="#191970" d="M38.2214,-260.7147C49.4698,-247.941 64.3684,-231.0224 73.5624,-220.5817"/>
<polygon fill="#191970" stroke="#191970" points="35.4354,-258.5825 31.4533,-268.4005 40.6888,-263.2087 35.4354,-258.5825"/>
</g>
<!-- Node12 -->
<g id="node6" class="node">
<title>Node12</title>
<g id="a_node6"><a xlink:href="classCantera_1_1MultiSpeciesThermo.html" target="_top" xlink:title="A species thermodynamic property manager for a phase. ">
<polygon fill="#ffffff" stroke="#000000" points="64,-268.5 64,-287.5 180,-287.5 180,-268.5 64,-268.5"/>
<text text-anchor="middle" x="122" y="-275.5" font-family="Helvetica,sans-Serif" font-size="10.00" fill="#000000">MultiSpeciesThermo</text>
</a>
</g>
</g>
<!-- Node12&#45;&gt;Node8 -->
<g id="edge5" class="edge">
<title>Node12&#45;&gt;Node8</title>
<path fill="none" stroke="#9a32cd" stroke-dasharray="5,2" d="M111.0208,-259.6099C103.4803,-246.9795 93.7756,-230.7241 87.7204,-220.5817"/>
<polygon fill="#9a32cd" stroke="#9a32cd" points="108.1376,-261.6085 116.269,-268.4005 114.148,-258.0202 108.1376,-261.6085"/>
<text text-anchor="middle" x="137.5" y="-242" font-family="Helvetica,sans-Serif" font-size="10.00" fill="#000000"> m_spthermo</text>
</g>
<!-- Node13 -->
<g id="node7" class="node">
<title>Node13</title>
<g id="a_node7"><a xlink:href="classCantera_1_1Array2D.html" target="_top" xlink:title="A class for 2D arrays stored in column&#45;major (Fortran&#45;compatible) form. ">
<polygon fill="#ffffff" stroke="#000000" points="152,-67.5 152,-86.5 208,-86.5 208,-67.5 152,-67.5"/>
<text text-anchor="middle" x="180" y="-74.5" font-family="Helvetica,sans-Serif" font-size="10.00" fill="#000000">Array2D</text>
</a>
</g>
</g>
<!-- Node13&#45;&gt;Node5 -->
<g id="edge6" class="edge">
<title>Node13&#45;&gt;Node5</title>
<path fill="none" stroke="#9a32cd" stroke-dasharray="5,2" d="M180,-57.1079C180,-44.714 180,-29.3263 180,-19.5817"/>
<polygon fill="#9a32cd" stroke="#9a32cd" points="176.5001,-57.4005 180,-67.4005 183.5001,-57.4006 176.5001,-57.4005"/>
<text text-anchor="middle" x="206" y="-41" font-family="Helvetica,sans-Serif" font-size="10.00" fill="#000000"> m_Beta_ij</text>
</g>
<!-- Node14 -->
<g id="node8" class="node">
<title>Node14</title>
<g id="a_node8"><a xlink:href="classCantera_1_1PDSS__Water.html" target="_top" xlink:title="Class for the liquid water pressure dependent standard state. ">
<polygon fill="#ffffff" stroke="#000000" points="227,-67.5 227,-86.5 303,-86.5 303,-67.5 227,-67.5"/>
<text text-anchor="middle" x="265" y="-74.5" font-family="Helvetica,sans-Serif" font-size="10.00" fill="#000000">PDSS_Water</text>
</a>
</g>
</g>
<!-- Node14&#45;&gt;Node5 -->
<g id="edge7" class="edge">
<title>Node14&#45;&gt;Node5</title>
<path fill="none" stroke="#9a32cd" stroke-dasharray="5,2" d="M254.1704,-58.8915C249.2694,-51.7499 243.0024,-43.8685 236,-38 226.9193,-30.3897 215.4191,-24.1839 205.2061,-19.5663"/>
<polygon fill="#9a32cd" stroke="#9a32cd" points="251.2473,-60.817 259.6002,-67.3347 257.1349,-57.0306 251.2473,-60.817"/>
<text text-anchor="middle" x="276" y="-41" font-family="Helvetica,sans-Serif" font-size="10.00" fill="#000000"> m_waterSS</text>
</g>
<!-- Node15 -->
<g id="node9" class="node">
<title>Node15</title>
<g id="a_node9"><a xlink:href="classCantera_1_1PDSS__Molar.html" target="_top" xlink:title="Base class for PDSS classes which compute molar properties directly. ">
<polygon fill="#ffffff" stroke="#000000" points="155,-134.5 155,-153.5 229,-153.5 229,-134.5 155,-134.5"/>
<text text-anchor="middle" x="192" y="-141.5" font-family="Helvetica,sans-Serif" font-size="10.00" fill="#000000">PDSS_Molar</text>
</a>
</g>
</g>
<!-- Node15&#45;&gt;Node14 -->
<g id="edge8" class="edge">
<title>Node15&#45;&gt;Node14</title>
<path fill="none" stroke="#191970" d="M210.0429,-127.44C224.046,-114.5879 242.9679,-97.2212 254.5603,-86.5817"/>
<polygon fill="#191970" stroke="#191970" points="207.4599,-125.0601 202.4591,-134.4005 212.1931,-130.2173 207.4599,-125.0601"/>
</g>
<!-- Node16 -->
<g id="node10" class="node">
<title>Node16</title>
<g id="a_node10"><a xlink:href="classCantera_1_1PDSS.html" target="_top" xlink:title="Virtual base class for a species with a pressure dependent standard state. ">
<polygon fill="#ffffff" stroke="#000000" points="171,-201.5 171,-220.5 213,-220.5 213,-201.5 171,-201.5"/>
<text text-anchor="middle" x="192" y="-208.5" font-family="Helvetica,sans-Serif" font-size="10.00" fill="#000000">PDSS</text>
</a>
</g>
</g>
<!-- Node16&#45;&gt;Node15 -->
<g id="edge9" class="edge">
<title>Node16&#45;&gt;Node15</title>
<path fill="none" stroke="#191970" d="M192,-191.1079C192,-178.714 192,-163.3263 192,-153.5817"/>
<polygon fill="#191970" stroke="#191970" points="188.5001,-191.4005 192,-201.4005 195.5001,-191.4006 188.5001,-191.4005"/>
</g>
<!-- Node17 -->
<g id="node11" class="node">
<title>Node17</title>
<g id="a_node11"><a xlink:href="classCantera_1_1WaterProps.html" target="_top" xlink:title="The WaterProps class is used to house several approximation routines for properties of water...">
<polygon fill="#ffffff" stroke="#000000" points="319,-134.5 319,-153.5 391,-153.5 391,-134.5 319,-134.5"/>
<text text-anchor="middle" x="355" y="-141.5" font-family="Helvetica,sans-Serif" font-size="10.00" fill="#000000">WaterProps</text>
</a>
</g>
</g>
<!-- Node17&#45;&gt;Node14 -->
<g id="edge10" class="edge">
<title>Node17&#45;&gt;Node14</title>
<path fill="none" stroke="#9a32cd" stroke-dasharray="5,2" d="M333.7169,-128.1559C316.3665,-115.2395 292.43,-97.4201 277.8709,-86.5817"/>
<polygon fill="#9a32cd" stroke="#9a32cd" points="331.9938,-131.2365 342.1052,-134.4005 336.1739,-125.6216 331.9938,-131.2365"/>
<text text-anchor="middle" x="351.5" y="-108" font-family="Helvetica,sans-Serif" font-size="10.00" fill="#000000"> m_waterProps</text>
</g>
<!-- Node18 -->
<g id="node12" class="node">
<title>Node18</title>
<g id="a_node12"><a xlink:href="classCantera_1_1WaterPropsIAPWS.html" target="_top" xlink:title="Class for calculating the equation of state of water. ">
<polygon fill="#ffffff" stroke="#000000" points="238,-201.5 238,-220.5 342,-220.5 342,-201.5 238,-201.5"/>
<text text-anchor="middle" x="290" y="-208.5" font-family="Helvetica,sans-Serif" font-size="10.00" fill="#000000">WaterPropsIAPWS</text>
</a>
</g>
</g>
<!-- Node18&#45;&gt;Node14 -->
<g id="edge13" class="edge">
<title>Node18&#45;&gt;Node14</title>
<path fill="none" stroke="#9a32cd" stroke-dasharray="5,2" d="M283.7539,-191.6611C280.4247,-180.7119 276.5095,-166.7052 274,-154 269.2534,-129.9688 266.707,-101.1887 265.6315,-86.5582"/>
<polygon fill="#9a32cd" stroke="#9a32cd" points="280.4847,-192.9333 286.8141,-201.4297 287.1646,-190.8407 280.4847,-192.9333"/>
<text text-anchor="middle" x="292" y="-141.5" font-family="Helvetica,sans-Serif" font-size="10.00" fill="#000000"> m_sub</text>
</g>
<!-- Node18&#45;&gt;Node17 -->
<g id="edge11" class="edge">
<title>Node18&#45;&gt;Node17</title>
<path fill="none" stroke="#9a32cd" stroke-dasharray="5,2" d="M306.4163,-194.0785C318.8485,-181.2639 335.4788,-164.1218 345.7044,-153.5817"/>
<polygon fill="#9a32cd" stroke="#9a32cd" points="303.764,-191.786 299.3129,-201.4005 308.7882,-196.6602 303.764,-191.786"/>
<text text-anchor="middle" x="365" y="-175" font-family="Helvetica,sans-Serif" font-size="10.00" fill="#000000"> m_waterIAPWS</text>
</g>
<!-- Node19 -->
<g id="node13" class="node">
<title>Node19</title>
<g id="a_node13"><a xlink:href="classCantera_1_1WaterPropsIAPWSphi.html" target="_top" xlink:title="Low level class for the real description of water. ">
<polygon fill="#ffffff" stroke="#000000" points="230.5,-268.5 230.5,-287.5 349.5,-287.5 349.5,-268.5 230.5,-268.5"/>
<text text-anchor="middle" x="290" y="-275.5" font-family="Helvetica,sans-Serif" font-size="10.00" fill="#000000">WaterPropsIAPWSphi</text>
</a>
</g>
</g>
<!-- Node19&#45;&gt;Node18 -->
<g id="edge12" class="edge">
<title>Node19&#45;&gt;Node18</title>
<path fill="none" stroke="#9a32cd" stroke-dasharray="5,2" d="M290,-258.1079C290,-245.714 290,-230.3263 290,-220.5817"/>
<polygon fill="#9a32cd" stroke="#9a32cd" points="286.5001,-258.4005 290,-268.4005 293.5001,-258.4006 286.5001,-258.4005"/>
<text text-anchor="middle" x="307" y="-242" font-family="Helvetica,sans-Serif" font-size="10.00" fill="#000000"> m_phi</text>
</g>
</g>
</svg>
