<?xml version="1.0" encoding="UTF-8" standalone="no"?>
<!DOCTYPE svg PUBLIC "-//W3C//DTD SVG 1.1//EN"
 "http://www.w3.org/Graphics/SVG/1.1/DTD/svg11.dtd">
<!-- Generated by graphviz version 2.38.0 (20151222.1943)
 -->
<!-- Title: ThermoPhase Pages: 1 -->
<svg width="278pt" height="164pt"
 viewBox="0.00 0.00 277.50 164.00" xmlns="http://www.w3.org/2000/svg" xmlns:xlink="http://www.w3.org/1999/xlink">
<g id="graph0" class="graph" transform="scale(1 1) rotate(0) translate(4 160)">
<title>ThermoPhase</title>
<polygon fill="white" stroke="none" points="-4,4 -4,-160 273.5,-160 273.5,4 -4,4"/>
<!-- Node1 -->
<g id="node1" class="node"><title>Node1</title>
<polygon fill="#bfbfbf" stroke="black" points="163,-0.5 163,-19.5 240,-19.5 240,-0.5 163,-0.5"/>
<text text-anchor="middle" x="201.5" y="-7.5" font-family="FreeSans" font-size="10.00">ThermoPhase</text>
</g>
<!-- Node2 -->
<g id="node2" class="node"><title>Node2</title>
<g id="a_node2"><a xlink:href="classCantera_1_1Phase.html" target="_top" xlink:title="Class Phase is the base class for phases of matter, managing the species and elements in a phase...">
<polygon fill="white" stroke="black" points="118.5,-67.5 118.5,-86.5 162.5,-86.5 162.5,-67.5 118.5,-67.5"/>
<text text-anchor="middle" x="140.5" y="-74.5" font-family="FreeSans" font-size="10.00">Phase</text>
</a>
</g>
</g>
<!-- Node2&#45;&gt;Node1 -->
<g id="edge1" class="edge"><title>Node2&#45;&gt;Node1</title>
<path fill="none" stroke="midnightblue" d="M155.858,-59.6348C167.788,-46.9228 183.859,-29.7978 193.404,-19.6273"/>
<polygon fill="midnightblue" stroke="midnightblue" points="153.018,-57.5468 148.727,-67.2338 158.122,-62.337 153.018,-57.5468"/>
</g>
<!-- Node3 -->
<g id="node3" class="node"><title>Node3</title>
<g id="a_node3"><a xlink:href="classCantera_1_1XML__Node.html" target="_top" xlink:title="Class XML_Node is a tree&#45;based representation of the contents of an XML file. ">
<polygon fill="white" stroke="black" points="0,-135.5 0,-154.5 65,-154.5 65,-135.5 0,-135.5"/>
<text text-anchor="middle" x="32.5" y="-142.5" font-family="FreeSans" font-size="10.00">XML_Node</text>
</a>
</g>
</g>
<!-- Node3&#45;&gt;Node2 -->
<g id="edge2" class="edge"><title>Node3&#45;&gt;Node2</title>
<path fill="none" stroke="#9a32cd" stroke-dasharray="5,2" d="M55.4283,-129.988C76.9135,-116.858 108.346,-97.6498 126.377,-86.6305"/>
<polygon fill="#9a32cd" stroke="#9a32cd" points="53.3269,-127.171 46.6191,-135.372 56.977,-133.144 53.3269,-127.171"/>
<text text-anchor="middle" x="112" y="-108" font-family="FreeSans" font-size="10.00"> m_xml</text>
</g>
<!-- Node3&#45;&gt;Node3 -->
<g id="edge3" class="edge"><title>Node3&#45;&gt;Node3</title>
<path fill="none" stroke="#9a32cd" stroke-dasharray="5,2" d="M75.1447,-150.383C79.9145,-149.367 83,-147.573 83,-145 83,-140.883 75.1012,-138.76 65.0425,-138.631"/>
<polygon fill="#9a32cd" stroke="#9a32cd" points="74.6551,-146.914 65.0425,-151.369 75.3352,-153.881 74.6551,-146.914"/>
<text text-anchor="middle" x="103.5" y="-148" font-family="FreeSans" font-size="10.00"> m_root</text>
<text text-anchor="middle" x="103.5" y="-137" font-family="FreeSans" font-size="10.00">m_parent</text>
</g>
<!-- Node4 -->
<g id="node4" class="node"><title>Node4</title>
<g id="a_node4"><a xlink:href="classCantera_1_1ValueCache.html" target="_top" xlink:title="ValueCache">
<polygon fill="white" stroke="black" points="142.5,-135.5 142.5,-154.5 210.5,-154.5 210.5,-135.5 142.5,-135.5"/>
<text text-anchor="middle" x="176.5" y="-142.5" font-family="FreeSans" font-size="10.00">ValueCache</text>
</a>
</g>
</g>
<!-- Node4&#45;&gt;Node2 -->
<g id="edge4" class="edge"><title>Node4&#45;&gt;Node2</title>
<path fill="none" stroke="#9a32cd" stroke-dasharray="5,2" d="M166.989,-126.563C160.017,-113.781 150.842,-96.9599 145.322,-86.8411"/>
<polygon fill="#9a32cd" stroke="#9a32cd" points="163.932,-128.269 171.794,-135.372 170.078,-124.917 163.932,-128.269"/>
<text text-anchor="middle" x="183" y="-108" font-family="FreeSans" font-size="10.00"> m_cache</text>
</g>
<!-- Node5 -->
<g id="node5" class="node"><title>Node5</title>
<g id="a_node5"><a xlink:href="classCantera_1_1SpeciesThermo.html" target="_top" xlink:title="Pure Virtual base class for the species thermo manager classes. ">
<polygon fill="white" stroke="black" points="180.5,-67.5 180.5,-86.5 264.5,-86.5 264.5,-67.5 180.5,-67.5"/>
<text text-anchor="middle" x="222.5" y="-74.5" font-family="FreeSans" font-size="10.00">SpeciesThermo</text>
</a>
</g>
</g>
<!-- Node5&#45;&gt;Node1 -->
<g id="edge5" class="edge"><title>Node5&#45;&gt;Node1</title>
<path fill="none" stroke="#9a32cd" stroke-dasharray="5,2" d="M216.495,-57.4145C212.481,-44.9883 207.385,-29.2166 204.287,-19.6273"/>
<polygon fill="#9a32cd" stroke="#9a32cd" points="213.263,-58.7941 219.668,-67.2338 219.924,-56.6421 213.263,-58.7941"/>
<text text-anchor="middle" x="241.5" y="-41" font-family="FreeSans" font-size="10.00"> m_spthermo</text>
</g>
</g>
</svg>
