<?xml version="1.0" encoding="UTF-8" standalone="no"?>
<!DOCTYPE svg PUBLIC "-//W3C//DTD SVG 1.1//EN"
 "http://www.w3.org/Graphics/SVG/1.1/DTD/svg11.dtd">
<!-- Generated by graphviz version 2.26.3 (20100126.1600)
 -->
<!-- Title: AqueousTransport Pages: 1 -->
<svg width="321pt" height="386pt"
 viewBox="0.00 0.00 321.00 386.00" xmlns="http://www.w3.org/2000/svg" xmlns:xlink="http://www.w3.org/1999/xlink">
<g id="graph1" class="graph" transform="scale(1 1) rotate(0) translate(4 382)">
<title>AqueousTransport</title>
<polygon fill="white" stroke="white" points="-4,5 -4,-382 318,-382 318,5 -4,5"/>
<!-- Node1 -->
<g id="node1" class="node"><title>Node1</title>
<polygon fill="#bfbfbf" stroke="black" points="109.5,-1 109.5,-21 204.5,-21 204.5,-1 109.5,-1"/>
<text text-anchor="middle" x="157" y="-8" font-family="FreeSans" font-size="10.00">AqueousTransport</text>
</g>
<!-- Node2 -->
<g id="node2" class="node"><title>Node2</title>
<a xlink:href="classCantera_1_1Transport.html" target="_top" xlink:title="Base class for transport property managers. ">
<polygon fill="white" stroke="black" points="64.5,-144 64.5,-164 121.5,-164 121.5,-144 64.5,-144"/>
<text text-anchor="middle" x="93" y="-151" font-family="FreeSans" font-size="10.00">Transport</text>
</a>
</g>
<!-- Node2&#45;&gt;Node1 -->
<g id="edge2" class="edge"><title>Node2&#45;&gt;Node1</title>
<path fill="none" stroke="midnightblue" d="M101.238,-134.635C110.979,-111.877 127.792,-73.0249 143,-40 145.9,-33.7031 149.275,-26.7024 151.985,-21.157"/>
<polygon fill="midnightblue" stroke="midnightblue" points="97.999,-133.309 97.2918,-143.88 104.437,-136.057 97.999,-133.309"/>
</g>
<!-- Node3 -->
<g id="node4" class="node"><title>Node3</title>
<a xlink:href="classCantera_1_1ThermoPhase.html" target="_top" xlink:title="Base class for a phase with thermodynamic properties. ">
<polygon fill="white" stroke="black" points="54.5,-215 54.5,-235 131.5,-235 131.5,-215 54.5,-215"/>
<text text-anchor="middle" x="93" y="-222" font-family="FreeSans" font-size="10.00">ThermoPhase</text>
</a>
</g>
<!-- Node3&#45;&gt;Node2 -->
<g id="edge4" class="edge"><title>Node3&#45;&gt;Node2</title>
<path fill="none" stroke="#9a32cd" stroke-dasharray="5,2" d="M93,-204.72C93,-191.455 93,-174.691 93,-164.154"/>
<polygon fill="#9a32cd" stroke="#9a32cd" points="89.5001,-204.827 93,-214.827 96.5001,-204.827 89.5001,-204.827"/>
<text text-anchor="middle" x="116" y="-187" font-family="FreeSans" font-size="10.00"> m_thermo</text>
</g>
<!-- Node4 -->
<g id="node6" class="node"><title>Node4</title>
<a xlink:href="classCantera_1_1Phase.html" target="_top" xlink:title="Base class for phases of matter. ">
<polygon fill="white" stroke="black" points="10,-285 10,-305 54,-305 54,-285 10,-285"/>
<text text-anchor="middle" x="32" y="-292" font-family="FreeSans" font-size="10.00">Phase</text>
</a>
</g>
<!-- Node4&#45;&gt;Node3 -->
<g id="edge6" class="edge"><title>Node4&#45;&gt;Node3</title>
<path fill="none" stroke="midnightblue" d="M47.4061,-277.321C59.0732,-263.932 74.6801,-246.023 84.2764,-235.011"/>
<polygon fill="midnightblue" stroke="midnightblue" points="44.6709,-275.132 40.7398,-284.971 49.9483,-279.731 44.6709,-275.132"/>
</g>
<!-- Node5 -->
<g id="node8" class="node"><title>Node5</title>
<a xlink:href="classCantera_1_1XML__Node.html" target="_top" xlink:title="Class XML_Node is a tree&#45;based representation of the contents of an XML file. ">
<polygon fill="white" stroke="black" points="-0.5,-356 -0.5,-376 64.5,-376 64.5,-356 -0.5,-356"/>
<text text-anchor="middle" x="32" y="-363" font-family="FreeSans" font-size="10.00">XML_Node</text>
</a>
</g>
<!-- Node5&#45;&gt;Node4 -->
<g id="edge8" class="edge"><title>Node5&#45;&gt;Node4</title>
<path fill="none" stroke="#9a32cd" stroke-dasharray="5,2" d="M32,-345.72C32,-332.455 32,-315.691 32,-305.154"/>
<polygon fill="#9a32cd" stroke="#9a32cd" points="28.5001,-345.827 32,-355.827 35.5001,-345.827 28.5001,-345.827"/>
<text text-anchor="middle" x="47.5" y="-327" font-family="FreeSans" font-size="10.00"> m_xml</text>
</g>
<!-- Node5&#45;&gt;Node5 -->
<g id="edge10" class="edge"><title>Node5&#45;&gt;Node5</title>
<path fill="none" stroke="#9a32cd" stroke-dasharray="5,2" d="M74.791,-371.564C79.1888,-370.468 82,-368.614 82,-366 82,-361.711 74.4296,-359.466 64.7005,-359.265"/>
<polygon fill="#9a32cd" stroke="#9a32cd" points="74.2302,-368.105 64.7005,-372.735 75.0374,-375.059 74.2302,-368.105"/>
<text text-anchor="middle" x="102.5" y="-369" font-family="FreeSans" font-size="10.00"> m_root</text>
<text text-anchor="middle" x="102.5" y="-357" font-family="FreeSans" font-size="10.00">m_parent</text>
</g>
<!-- Node6 -->
<g id="node11" class="node"><title>Node6</title>
<a xlink:href="classCantera_1_1SpeciesThermo.html" target="_top" xlink:title="Pure Virtual base class for the species thermo manager classes. ">
<polygon fill="white" stroke="black" points="72,-285 72,-305 156,-305 156,-285 72,-285"/>
<text text-anchor="middle" x="114" y="-292" font-family="FreeSans" font-size="10.00">SpeciesThermo</text>
</a>
</g>
<!-- Node6&#45;&gt;Node3 -->
<g id="edge12" class="edge"><title>Node6&#45;&gt;Node3</title>
<path fill="none" stroke="#9a32cd" stroke-dasharray="5,2" d="M108.002,-275.006C104.078,-261.927 99.1198,-245.399 96.0032,-235.011"/>
<polygon fill="#9a32cd" stroke="#9a32cd" points="104.765,-276.398 110.991,-284.971 111.47,-274.387 104.765,-276.398"/>
<text text-anchor="middle" x="133" y="-257" font-family="FreeSans" font-size="10.00"> m_spthermo</text>
</g>
<!-- Node7 -->
<g id="node13" class="node"><title>Node7</title>
<a xlink:href="classCantera_1_1Array2D.html" target="_top" xlink:title="A class for 2D arrays stored in column&#45;major (Fortran&#45;compatible) form. ">
<polygon fill="white" stroke="black" points="166.5,-215 166.5,-235 217.5,-235 217.5,-215 166.5,-215"/>
<text text-anchor="middle" x="192" y="-222" font-family="FreeSans" font-size="10.00">Array2D</text>
</a>
</g>
<!-- Node7&#45;&gt;Node1 -->
<g id="edge14" class="edge"><title>Node7&#45;&gt;Node1</title>
<path fill="none" stroke="#9a32cd" stroke-dasharray="5,2" d="M181.57,-206.05C175.897,-194.769 169.368,-179.971 166,-166 153.177,-112.805 155.031,-46.51 156.349,-21.3398"/>
<polygon fill="#9a32cd" stroke="#9a32cd" points="178.492,-207.716 186.234,-214.949 184.692,-204.467 178.492,-207.716"/>
<text text-anchor="middle" x="181.5" y="-157" font-family="FreeSans" font-size="10.00"> m_flux</text>
<text text-anchor="middle" x="181.5" y="-145" font-family="FreeSans" font-size="10.00">m_B</text>
</g>
<!-- Node8 -->
<g id="node15" class="node"><title>Node8</title>
<a xlink:href="classCantera_1_1DenseMatrix.html" target="_top" xlink:title="A class for full (non&#45;sparse) matrices with Fortran&#45;compatible data storage, which adds matrix operat...">
<polygon fill="white" stroke="black" points="206,-144 206,-164 276,-164 276,-144 206,-144"/>
<text text-anchor="middle" x="241" y="-151" font-family="FreeSans" font-size="10.00">DenseMatrix</text>
</a>
</g>
<!-- Node7&#45;&gt;Node8 -->
<g id="edge18" class="edge"><title>Node7&#45;&gt;Node8</title>
<path fill="none" stroke="midnightblue" d="M204.909,-206.295C214.219,-192.806 226.429,-175.112 233.993,-164.154"/>
<polygon fill="midnightblue" stroke="midnightblue" points="201.82,-204.609 199.021,-214.827 207.581,-208.585 201.82,-204.609"/>
</g>
<!-- Node8&#45;&gt;Node1 -->
<g id="edge16" class="edge"><title>Node8&#45;&gt;Node1</title>
<path fill="none" stroke="#9a32cd" stroke-dasharray="5,2" d="M229.735,-134.823C211.69,-104.103 176.917,-44.9063 162.986,-21.191"/>
<polygon fill="#9a32cd" stroke="#9a32cd" points="226.876,-136.866 234.959,-143.716 232.912,-133.321 226.876,-136.866"/>
<text text-anchor="middle" x="267.5" y="-115" font-family="FreeSans" font-size="10.00"> m_diam</text>
<text text-anchor="middle" x="267.5" y="-103" font-family="FreeSans" font-size="10.00">m_bdiff</text>
<text text-anchor="middle" x="267.5" y="-91" font-family="FreeSans" font-size="10.00">m_DiffCoeff_StefMax</text>
<text text-anchor="middle" x="267.5" y="-79" font-family="FreeSans" font-size="10.00">m_phi</text>
<text text-anchor="middle" x="267.5" y="-67" font-family="FreeSans" font-size="10.00">m_wratkj1</text>
<text text-anchor="middle" x="267.5" y="-55" font-family="FreeSans" font-size="10.00">m_A</text>
<text text-anchor="middle" x="267.5" y="-43" font-family="FreeSans" font-size="10.00">m_wratjk</text>
</g>
</g>
</svg>
