<?xml version="1.0" encoding="UTF-8" standalone="no"?>
<!DOCTYPE svg PUBLIC "-//W3C//DTD SVG 1.1//EN"
 "http://www.w3.org/Graphics/SVG/1.1/DTD/svg11.dtd">
<!-- Generated by graphviz version 2.40.1 (20161225.0304)
 -->
<!-- Title: WaterTransport Pages: 1 -->
<svg width="582pt" height="288pt"
 viewBox="0.00 0.00 581.91 288.00" xmlns="http://www.w3.org/2000/svg" xmlns:xlink="http://www.w3.org/1999/xlink">
<g id="graph0" class="graph" transform="scale(1 1) rotate(0) translate(4 284)">
<title>WaterTransport</title>
<polygon fill="#ffffff" stroke="transparent" points="-4,4 -4,-284 577.9136,-284 577.9136,4 -4,4"/>
<!-- Node2 -->
<g id="node1" class="node">
<title>Node2</title>
<polygon fill="#bfbfbf" stroke="#000000" points="267.6494,-.5 267.6494,-18.5 352.3799,-18.5 352.3799,-.5 267.6494,-.5"/>
<text text-anchor="middle" x="310.0146" y="-6.5" font-family="Helvetica,sans-Serif" font-size="10.00" fill="#000000">WaterTransport</text>
</g>
<!-- Node3 -->
<g id="node2" class="node">
<title>Node3</title>
<g id="a_node2"><a xlink:href="classCantera_1_1Transport.html" target="_top" xlink:title="Base class for transport property managers. ">
<polygon fill="#ffffff" stroke="#000000" points="192.8013,-65.5 192.8013,-83.5 251.228,-83.5 251.228,-65.5 192.8013,-65.5"/>
<text text-anchor="middle" x="222.0146" y="-71.5" font-family="Helvetica,sans-Serif" font-size="10.00" fill="#000000">Transport</text>
</a>
</g>
</g>
<!-- Node3&#45;&gt;Node2 -->
<g id="edge1" class="edge">
<title>Node3&#45;&gt;Node2</title>
<path fill="none" stroke="#191970" d="M242.3527,-59.1236C251.4072,-52.3098 262.2169,-44.2185 272.0146,-37 280.4067,-30.8171 289.9067,-23.9421 297.3087,-18.6128"/>
<polygon fill="#191970" stroke="#191970" points="240.1778,-56.38 234.2997,-65.1948 244.3918,-61.9695 240.1778,-56.38"/>
</g>
<!-- Node4 -->
<g id="node3" class="node">
<title>Node4</title>
<g id="a_node3"><a xlink:href="classCantera_1_1ThermoPhase.html" target="_top" xlink:title="Base class for a phase with thermodynamic properties. ">
<polygon fill="#ffffff" stroke="#000000" points="173.6108,-130.5 173.6108,-148.5 252.4185,-148.5 252.4185,-130.5 173.6108,-130.5"/>
<text text-anchor="middle" x="213.0146" y="-136.5" font-family="Helvetica,sans-Serif" font-size="10.00" fill="#000000">ThermoPhase</text>
</a>
</g>
</g>
<!-- Node4&#45;&gt;Node3 -->
<g id="edge2" class="edge">
<title>Node4&#45;&gt;Node3</title>
<path fill="none" stroke="#9a32cd" stroke-dasharray="5,2" d="M214.2256,-120.0206C214.7095,-114.2063 215.3616,-107.8299 216.2217,-102 217.1331,-95.8216 218.5814,-88.9466 219.8017,-83.6162"/>
<polygon fill="#9a32cd" stroke="#9a32cd" points="210.7188,-119.9915 213.4918,-130.217 217.7007,-120.494 210.7188,-119.9915"/>
<text text-anchor="middle" x="240.9111" y="-104" font-family="Helvetica,sans-Serif" font-size="10.00" fill="#000000"> m_thermo</text>
</g>
<!-- Node5 -->
<g id="node4" class="node">
<title>Node5</title>
<g id="a_node4"><a xlink:href="classCantera_1_1Phase.html" target="_top" xlink:title="Class Phase is the base class for phases of matter, managing the species and elements in a phase...">
<polygon fill="#ffffff" stroke="#000000" points="96.8374,-195.5 96.8374,-213.5 141.1919,-213.5 141.1919,-195.5 96.8374,-195.5"/>
<text text-anchor="middle" x="119.0146" y="-201.5" font-family="Helvetica,sans-Serif" font-size="10.00" fill="#000000">Phase</text>
</a>
</g>
</g>
<!-- Node5&#45;&gt;Node4 -->
<g id="edge3" class="edge">
<title>Node5&#45;&gt;Node4</title>
<path fill="none" stroke="#191970" d="M140.3714,-189.732C158.6265,-177.1088 184.3199,-159.3421 199.7523,-148.6708"/>
<polygon fill="#191970" stroke="#191970" points="138.3194,-186.8957 132.0849,-195.462 142.3007,-192.6532 138.3194,-186.8957"/>
</g>
<!-- Node6 -->
<g id="node5" class="node">
<title>Node6</title>
<g id="a_node5"><a xlink:href="classCantera_1_1XML__Node.html" target="_top" xlink:title="Class XML_Node is a tree&#45;based representation of the contents of an XML file. ">
<polygon fill="#ffffff" stroke="#000000" points="0,-261 0,-279 66.0293,-279 66.0293,-261 0,-261"/>
<text text-anchor="middle" x="33.0146" y="-267" font-family="Helvetica,sans-Serif" font-size="10.00" fill="#000000">XML_Node</text>
</a>
</g>
</g>
<!-- Node6&#45;&gt;Node5 -->
<g id="edge4" class="edge">
<title>Node6&#45;&gt;Node5</title>
<path fill="none" stroke="#9a32cd" stroke-dasharray="5,2" d="M53.0603,-254.7327C69.8383,-241.9541 93.2122,-224.1518 107.1583,-213.5301"/>
<polygon fill="#9a32cd" stroke="#9a32cd" points="50.8073,-252.049 44.9726,-260.8925 55.0487,-257.6178 50.8073,-252.049"/>
<text text-anchor="middle" x="98.1255" y="-234" font-family="Helvetica,sans-Serif" font-size="10.00" fill="#000000"> m_xml</text>
</g>
<!-- Node6&#45;&gt;Node6 -->
<g id="edge5" class="edge">
<title>Node6&#45;&gt;Node6</title>
<path fill="none" stroke="#9a32cd" stroke-dasharray="5,2" d="M76.6741,-274.9457C81.1611,-273.9718 84.0293,-272.3232 84.0293,-270 84.0293,-266.1875 76.3053,-264.1919 66.3787,-264.0132"/>
<polygon fill="#9a32cd" stroke="#9a32cd" points="75.9758,-271.4984 66.3787,-275.9868 76.6801,-278.4628 75.9758,-271.4984"/>
<text text-anchor="middle" x="105.1523" y="-272" font-family="Helvetica,sans-Serif" font-size="10.00" fill="#000000"> m_root</text>
<text text-anchor="middle" x="105.1523" y="-262" font-family="Helvetica,sans-Serif" font-size="10.00" fill="#000000">m_parent</text>
</g>
<!-- Node7 -->
<g id="node6" class="node">
<title>Node7</title>
<g id="a_node6"><a xlink:href="classCantera_1_1ValueCache.html" target="_top" xlink:title="ValueCache">
<polygon fill="#ffffff" stroke="#000000" points="144.1421,-261 144.1421,-279 213.8872,-279 213.8872,-261 144.1421,-261"/>
<text text-anchor="middle" x="179.0146" y="-267" font-family="Helvetica,sans-Serif" font-size="10.00" fill="#000000">ValueCache</text>
</a>
</g>
</g>
<!-- Node7&#45;&gt;Node5 -->
<g id="edge6" class="edge">
<title>Node7&#45;&gt;Node5</title>
<path fill="none" stroke="#9a32cd" stroke-dasharray="5,2" d="M163.7226,-253.3062C152.1357,-240.6572 136.6593,-223.762 127.2865,-213.5301"/>
<polygon fill="#9a32cd" stroke="#9a32cd" points="161.3363,-255.8828 170.6719,-260.8925 166.498,-251.1544 161.3363,-255.8828"/>
<text text-anchor="middle" x="174.6919" y="-234" font-family="Helvetica,sans-Serif" font-size="10.00" fill="#000000"> m_cache</text>
</g>
<!-- Node8 -->
<g id="node7" class="node">
<title>Node8</title>
<g id="a_node7"><a xlink:href="classCantera_1_1MultiSpeciesThermo.html" target="_top" xlink:title="A species thermodynamic property manager for a phase. ">
<polygon fill="#ffffff" stroke="#000000" points="159.4434,-195.5 159.4434,-213.5 266.5859,-213.5 266.5859,-195.5 159.4434,-195.5"/>
<text text-anchor="middle" x="213.0146" y="-201.5" font-family="Helvetica,sans-Serif" font-size="10.00" fill="#000000">MultiSpeciesThermo</text>
</a>
</g>
</g>
<!-- Node8&#45;&gt;Node4 -->
<g id="edge7" class="edge">
<title>Node8&#45;&gt;Node4</title>
<path fill="none" stroke="#9a32cd" stroke-dasharray="5,2" d="M213.0146,-185.1265C213.0146,-173.1522 213.0146,-158.3205 213.0146,-148.8821"/>
<polygon fill="#9a32cd" stroke="#9a32cd" points="209.5147,-185.462 213.0146,-195.462 216.5147,-185.4621 209.5147,-185.462"/>
<text text-anchor="middle" x="242.1919" y="-169" font-family="Helvetica,sans-Serif" font-size="10.00" fill="#000000"> m_spthermo</text>
</g>
<!-- Node9 -->
<g id="node8" class="node">
<title>Node9</title>
<g id="a_node8"><a xlink:href="classCantera_1_1WaterProps.html" target="_top" xlink:title="The WaterProps class is used to house several approximation routines for properties of water...">
<polygon fill="#ffffff" stroke="#000000" points="320.8013,-130.5 320.8013,-148.5 389.228,-148.5 389.228,-130.5 320.8013,-130.5"/>
<text text-anchor="middle" x="355.0146" y="-136.5" font-family="Helvetica,sans-Serif" font-size="10.00" fill="#000000">WaterProps</text>
</a>
</g>
</g>
<!-- Node9&#45;&gt;Node2 -->
<g id="edge8" class="edge">
<title>Node9&#45;&gt;Node2</title>
<path fill="none" stroke="#9a32cd" stroke-dasharray="5,2" d="M348.4698,-120.5928C338.6709,-92.2847 320.5552,-39.9506 313.2216,-18.7646"/>
<polygon fill="#9a32cd" stroke="#9a32cd" points="345.1997,-121.8458 351.7784,-130.1507 351.8146,-119.5559 345.1997,-121.8458"/>
<text text-anchor="middle" x="369.6377" y="-71.5" font-family="Helvetica,sans-Serif" font-size="10.00" fill="#000000"> m_waterProps</text>
</g>
<!-- Node12 -->
<g id="node11" class="node">
<title>Node12</title>
<g id="a_node11"><a xlink:href="classCantera_1_1PDSS__Water.html" target="_top" xlink:title="Class for the liquid water pressure dependent standard state. ">
<polygon fill="#ffffff" stroke="#000000" points="419.4663,-65.5 419.4663,-83.5 494.563,-83.5 494.563,-65.5 419.4663,-65.5"/>
<text text-anchor="middle" x="457.0146" y="-71.5" font-family="Helvetica,sans-Serif" font-size="10.00" fill="#000000">PDSS_Water</text>
</a>
</g>
</g>
<!-- Node9&#45;&gt;Node12 -->
<g id="edge15" class="edge">
<title>Node9&#45;&gt;Node12</title>
<path fill="none" stroke="#9a32cd" stroke-dasharray="5,2" d="M357.9594,-120.0217C359.815,-113.5535 362.8393,-106.7887 367.7686,-102 375.3855,-94.6003 398.5766,-87.5726 419.4082,-82.474"/>
<polygon fill="#9a32cd" stroke="#9a32cd" points="354.4464,-119.7193 355.8103,-130.226 361.2961,-121.162 354.4464,-119.7193"/>
<text text-anchor="middle" x="401.6377" y="-104" font-family="Helvetica,sans-Serif" font-size="10.00" fill="#000000"> m_waterProps</text>
</g>
<!-- Node10 -->
<g id="node9" class="node">
<title>Node10</title>
<g id="a_node9"><a xlink:href="classCantera_1_1WaterPropsIAPWS.html" target="_top" xlink:title="Class for calculating the equation of state of water. ">
<polygon fill="#ffffff" stroke="#000000" points="304.688,-195.5 304.688,-213.5 405.3413,-213.5 405.3413,-195.5 304.688,-195.5"/>
<text text-anchor="middle" x="355.0146" y="-201.5" font-family="Helvetica,sans-Serif" font-size="10.00" fill="#000000">WaterPropsIAPWS</text>
</a>
</g>
</g>
<!-- Node10&#45;&gt;Node2 -->
<g id="edge11" class="edge">
<title>Node10&#45;&gt;Node2</title>
<path fill="none" stroke="#9a32cd" stroke-dasharray="5,2" d="M338.4521,-187.8324C329.1809,-177.5058 318.2621,-163.4834 312.0146,-149 292.4441,-103.6296 302.7941,-41.9844 307.8063,-18.813"/>
<polygon fill="#9a32cd" stroke="#9a32cd" points="336.0213,-190.3571 345.4135,-195.2601 341.1288,-185.5702 336.0213,-190.3571"/>
<text text-anchor="middle" x="319.4111" y="-104" font-family="Helvetica,sans-Serif" font-size="10.00" fill="#000000"> m_sub</text>
</g>
<!-- Node10&#45;&gt;Node9 -->
<g id="edge9" class="edge">
<title>Node10&#45;&gt;Node9</title>
<path fill="none" stroke="#9a32cd" stroke-dasharray="5,2" d="M355.0146,-185.1265C355.0146,-173.1522 355.0146,-158.3205 355.0146,-148.8821"/>
<polygon fill="#9a32cd" stroke="#9a32cd" points="351.5147,-185.462 355.0146,-195.462 358.5147,-185.4621 351.5147,-185.462"/>
<text text-anchor="middle" x="391.6895" y="-169" font-family="Helvetica,sans-Serif" font-size="10.00" fill="#000000"> m_waterIAPWS</text>
</g>
<!-- Node10&#45;&gt;Node12 -->
<g id="edge16" class="edge">
<title>Node10&#45;&gt;Node12</title>
<path fill="none" stroke="#9a32cd" stroke-dasharray="5,2" d="M412.4611,-191.3694C419.787,-187.6999 426.6023,-183.0055 432.0146,-177 456.2947,-150.0594 457.9717,-103.4765 457.4853,-83.7515"/>
<polygon fill="#9a32cd" stroke="#9a32cd" points="410.7523,-188.2957 402.9754,-195.4909 413.5419,-194.7159 410.7523,-188.2957"/>
<text text-anchor="middle" x="470.4111" y="-136.5" font-family="Helvetica,sans-Serif" font-size="10.00" fill="#000000"> m_sub</text>
</g>
<!-- Node11 -->
<g id="node10" class="node">
<title>Node11</title>
<g id="a_node10"><a xlink:href="classCantera_1_1WaterPropsIAPWSphi.html" target="_top" xlink:title="Low level class for the real description of water. ">
<polygon fill="#ffffff" stroke="#000000" points="298.0156,-261 298.0156,-279 412.0137,-279 412.0137,-261 298.0156,-261"/>
<text text-anchor="middle" x="355.0146" y="-267" font-family="Helvetica,sans-Serif" font-size="10.00" fill="#000000">WaterPropsIAPWSphi</text>
</a>
</g>
</g>
<!-- Node11&#45;&gt;Node10 -->
<g id="edge10" class="edge">
<title>Node11&#45;&gt;Node10</title>
<path fill="none" stroke="#9a32cd" stroke-dasharray="5,2" d="M355.0146,-250.723C355.0146,-238.4341 355.0146,-223.0799 355.0146,-213.5301"/>
<polygon fill="#9a32cd" stroke="#9a32cd" points="351.5147,-250.8925 355.0146,-260.8925 358.5147,-250.8925 351.5147,-250.8925"/>
<text text-anchor="middle" x="370.022" y="-234" font-family="Helvetica,sans-Serif" font-size="10.00" fill="#000000"> m_phi</text>
</g>
<!-- Node12&#45;&gt;Node2 -->
<g id="edge12" class="edge">
<title>Node12&#45;&gt;Node2</title>
<path fill="none" stroke="#9a32cd" stroke-dasharray="5,2" d="M427.0595,-61.2545C398.3827,-48.5743 355.8757,-29.7787 330.7547,-18.6708"/>
<polygon fill="#9a32cd" stroke="#9a32cd" points="426.0137,-64.6189 436.5749,-65.462 428.8446,-58.2169 426.0137,-64.6189"/>
<text text-anchor="middle" x="427.1919" y="-39" font-family="Helvetica,sans-Serif" font-size="10.00" fill="#000000"> m_waterPDSS</text>
</g>
<!-- Node13 -->
<g id="node12" class="node">
<title>Node13</title>
<g id="a_node12"><a xlink:href="classCantera_1_1PDSS__Molar.html" target="_top" xlink:title="Base class for PDSS classes which compute molar properties directly. ">
<polygon fill="#ffffff" stroke="#000000" points="500.1157,-130.5 500.1157,-148.5 573.9136,-148.5 573.9136,-130.5 500.1157,-130.5"/>
<text text-anchor="middle" x="537.0146" y="-136.5" font-family="Helvetica,sans-Serif" font-size="10.00" fill="#000000">PDSS_Molar</text>
</a>
</g>
</g>
<!-- Node13&#45;&gt;Node12 -->
<g id="edge13" class="edge">
<title>Node13&#45;&gt;Node12</title>
<path fill="none" stroke="#191970" d="M517.985,-124.0384C502.5102,-111.4651 481.1969,-94.1481 468.3017,-83.6708"/>
<polygon fill="#191970" stroke="#191970" points="515.9227,-126.8725 525.891,-130.462 520.3369,-121.4397 515.9227,-126.8725"/>
</g>
<!-- Node14 -->
<g id="node13" class="node">
<title>Node14</title>
<g id="a_node13"><a xlink:href="classCantera_1_1PDSS.html" target="_top" xlink:title="Virtual base class for a species with a pressure dependent standard state. ">
<polygon fill="#ffffff" stroke="#000000" points="515.3989,-195.5 515.3989,-213.5 558.6304,-213.5 558.6304,-195.5 515.3989,-195.5"/>
<text text-anchor="middle" x="537.0146" y="-201.5" font-family="Helvetica,sans-Serif" font-size="10.00" fill="#000000">PDSS</text>
</a>
</g>
</g>
<!-- Node14&#45;&gt;Node13 -->
<g id="edge14" class="edge">
<title>Node14&#45;&gt;Node13</title>
<path fill="none" stroke="#191970" d="M537.0146,-185.1265C537.0146,-173.1522 537.0146,-158.3205 537.0146,-148.8821"/>
<polygon fill="#191970" stroke="#191970" points="533.5147,-185.462 537.0146,-195.462 540.5147,-185.4621 533.5147,-185.462"/>
</g>
</g>
</svg>
