<?xml version="1.0" encoding="UTF-8" standalone="no"?>
<!DOCTYPE svg PUBLIC "-//W3C//DTD SVG 1.1//EN"
 "http://www.w3.org/Graphics/SVG/1.1/DTD/svg11.dtd">
<!-- Generated by graphviz version 2.38.0 (20140413.2041)
 -->
<!-- Title: Edge Pages: 1 -->
<svg width="442pt" height="430pt"
 viewBox="0.00 0.00 442.00 430.00" xmlns="http://www.w3.org/2000/svg" xmlns:xlink="http://www.w3.org/1999/xlink">
<g id="graph0" class="graph" transform="scale(1 1) rotate(0) translate(4 426)">
<title>Edge</title>
<polygon fill="white" stroke="none" points="-4,4 -4,-426 438,-426 438,4 -4,4"/>
<!-- Node1 -->
<g id="node1" class="node"><title>Node1</title>
<polygon fill="#bfbfbf" stroke="black" points="49.5,-0.5 49.5,-19.5 88.5,-19.5 88.5,-0.5 49.5,-0.5"/>
<text text-anchor="middle" x="69" y="-7.5" font-family="Helvetica,sans-Serif" font-size="10.00">Edge</text>
</g>
<!-- Node2 -->
<g id="node2" class="node"><title>Node2</title>
<g id="a_node2"><a xlink:href="classCantera_1_1EdgePhase.html" target="_top" xlink:title="A thermodynamic phase representing a one dimensional edge between two surfaces. ">
<polygon fill="white" stroke="black" points="35.5,-95.5 35.5,-114.5 102.5,-114.5 102.5,-95.5 35.5,-95.5"/>
<text text-anchor="middle" x="69" y="-102.5" font-family="Helvetica,sans-Serif" font-size="10.00">EdgePhase</text>
</a>
</g>
</g>
<!-- Node2&#45;&gt;Node1 -->
<g id="edge1" class="edge"><title>Node2&#45;&gt;Node1</title>
<path fill="none" stroke="midnightblue" d="M69,-85.3433C69,-65.3306 69,-34.4263 69,-19.5618"/>
<polygon fill="midnightblue" stroke="midnightblue" points="65.5001,-85.4174 69,-95.4175 72.5001,-85.4175 65.5001,-85.4174"/>
</g>
<!-- Node3 -->
<g id="node3" class="node"><title>Node3</title>
<g id="a_node3"><a xlink:href="classCantera_1_1SurfPhase.html" target="_top" xlink:title="A simple thermodynamic model for a surface phase, assuming an ideal solution model. ">
<polygon fill="white" stroke="black" points="38,-200.5 38,-219.5 100,-219.5 100,-200.5 38,-200.5"/>
<text text-anchor="middle" x="69" y="-207.5" font-family="Helvetica,sans-Serif" font-size="10.00">SurfPhase</text>
</a>
</g>
</g>
<!-- Node3&#45;&gt;Node2 -->
<g id="edge2" class="edge"><title>Node3&#45;&gt;Node2</title>
<path fill="none" stroke="midnightblue" d="M69,-189.939C69,-167.534 69,-131.313 69,-114.759"/>
<polygon fill="midnightblue" stroke="midnightblue" points="65.5001,-190.218 69,-200.218 72.5001,-190.218 65.5001,-190.218"/>
</g>
<!-- Node10 -->
<g id="node10" class="node"><title>Node10</title>
<g id="a_node10"><a xlink:href="classCantera_1_1InterfaceKinetics.html" target="_top" xlink:title="A kinetics manager for heterogeneous reaction mechanisms. ">
<polygon fill="white" stroke="black" points="161,-133.5 161,-152.5 251,-152.5 251,-133.5 161,-133.5"/>
<text text-anchor="middle" x="206" y="-140.5" font-family="Helvetica,sans-Serif" font-size="10.00">InterfaceKinetics</text>
</a>
</g>
</g>
<!-- Node3&#45;&gt;Node10 -->
<g id="edge13" class="edge"><title>Node3&#45;&gt;Node10</title>
<path fill="none" stroke="#9a32cd" stroke-dasharray="5,2" d="M96.5188,-195.944C123.654,-183.069 164.358,-163.757 187.732,-152.667"/>
<polygon fill="#9a32cd" stroke="#9a32cd" points="94.7269,-192.92 87.1925,-200.369 97.7275,-199.244 94.7269,-192.92"/>
<text text-anchor="middle" x="163" y="-174" font-family="Helvetica,sans-Serif" font-size="10.00"> m_surf</text>
</g>
<!-- Node4 -->
<g id="node4" class="node"><title>Node4</title>
<g id="a_node4"><a xlink:href="classCantera_1_1ThermoPhase.html" target="_top" xlink:title="Base class for a phase with thermodynamic properties. ">
<polygon fill="white" stroke="black" points="42.5,-257.5 42.5,-276.5 119.5,-276.5 119.5,-257.5 42.5,-257.5"/>
<text text-anchor="middle" x="81" y="-264.5" font-family="Helvetica,sans-Serif" font-size="10.00">ThermoPhase</text>
</a>
</g>
</g>
<!-- Node4&#45;&gt;Node3 -->
<g id="edge3" class="edge"><title>Node4&#45;&gt;Node3</title>
<path fill="none" stroke="midnightblue" d="M76.9468,-247.423C74.9027,-238.054 72.5207,-227.136 70.9014,-219.715"/>
<polygon fill="midnightblue" stroke="midnightblue" points="73.5737,-248.382 79.125,-257.406 80.4128,-246.89 73.5737,-248.382"/>
</g>
<!-- Node5 -->
<g id="node5" class="node"><title>Node5</title>
<g id="a_node5"><a xlink:href="classCantera_1_1Phase.html" target="_top" xlink:title="Class Phase is the base class for phases of matter, managing the species and elements in a phase...">
<polygon fill="white" stroke="black" points="152,-333.5 152,-352.5 196,-352.5 196,-333.5 152,-333.5"/>
<text text-anchor="middle" x="174" y="-340.5" font-family="Helvetica,sans-Serif" font-size="10.00">Phase</text>
</a>
</g>
</g>
<!-- Node5&#45;&gt;Node4 -->
<g id="edge4" class="edge"><title>Node5&#45;&gt;Node4</title>
<path fill="none" stroke="midnightblue" d="M165.451,-324.121C160.104,-314.468 152.439,-302.938 143,-295 133.386,-286.915 120.977,-280.871 109.79,-276.576"/>
<polygon fill="midnightblue" stroke="midnightblue" points="162.472,-325.983 170.161,-333.272 168.696,-322.779 162.472,-325.983"/>
</g>
<!-- Node6 -->
<g id="node6" class="node"><title>Node6</title>
<g id="a_node6"><a xlink:href="classCantera_1_1XML__Node.html" target="_top" xlink:title="Class XML_Node is a tree&#45;based representation of the contents of an XML file. ">
<polygon fill="white" stroke="black" points="10.5,-401.5 10.5,-420.5 75.5,-420.5 75.5,-401.5 10.5,-401.5"/>
<text text-anchor="middle" x="43" y="-408.5" font-family="Helvetica,sans-Serif" font-size="10.00">XML_Node</text>
</a>
</g>
</g>
<!-- Node6&#45;&gt;Node1 -->
<g id="edge17" class="edge"><title>Node6&#45;&gt;Node1</title>
<path fill="none" stroke="#9a32cd" stroke-dasharray="5,2" d="M25.196,-394.136C13.3674,-381.79 0,-363.52 0,-344 0,-344 0,-344 0,-66 0,-40.5702 29.0125,-24.9938 49.4119,-17.1846"/>
<polygon fill="#9a32cd" stroke="#9a32cd" points="22.9879,-396.872 32.5909,-401.348 27.875,-391.86 22.9879,-396.872"/>
<text text-anchor="middle" x="10" y="-207.5" font-family="Helvetica,sans-Serif" font-size="10.00"> m_r</text>
</g>
<!-- Node6&#45;&gt;Node5 -->
<g id="edge5" class="edge"><title>Node6&#45;&gt;Node5</title>
<path fill="none" stroke="#9a32cd" stroke-dasharray="5,2" d="M69.0767,-396.862C95.1541,-383.724 134.508,-363.897 156.87,-352.63"/>
<polygon fill="#9a32cd" stroke="#9a32cd" points="67.4818,-393.747 60.126,-401.372 70.6314,-399.998 67.4818,-393.747"/>
<text text-anchor="middle" x="137.5" y="-374" font-family="Helvetica,sans-Serif" font-size="10.00"> m_xml</text>
</g>
<!-- Node6&#45;&gt;Node6 -->
<g id="edge6" class="edge"><title>Node6&#45;&gt;Node6</title>
<path fill="none" stroke="#9a32cd" stroke-dasharray="5,2" d="M85.6447,-416.383C90.4145,-415.367 93.5,-413.573 93.5,-411 93.5,-406.883 85.6012,-404.76 75.5425,-404.631"/>
<polygon fill="#9a32cd" stroke="#9a32cd" points="85.1551,-412.914 75.5425,-417.369 85.8352,-419.881 85.1551,-412.914"/>
<text text-anchor="middle" x="114" y="-414" font-family="Helvetica,sans-Serif" font-size="10.00"> m_root</text>
<text text-anchor="middle" x="114" y="-403" font-family="Helvetica,sans-Serif" font-size="10.00">m_parent</text>
</g>
<!-- Node7 -->
<g id="node7" class="node"><title>Node7</title>
<g id="a_node7"><a xlink:href="classCantera_1_1ValueCache.html" target="_top" xlink:title="ValueCache">
<polygon fill="white" stroke="black" points="196,-401.5 196,-420.5 266,-420.5 266,-401.5 196,-401.5"/>
<text text-anchor="middle" x="231" y="-408.5" font-family="Helvetica,sans-Serif" font-size="10.00">ValueCache</text>
</a>
</g>
</g>
<!-- Node7&#45;&gt;Node5 -->
<g id="edge7" class="edge"><title>Node7&#45;&gt;Node5</title>
<path fill="none" stroke="#9a32cd" stroke-dasharray="5,2" d="M216.905,-393.68C205.762,-380.777 190.632,-363.258 181.636,-352.841"/>
<polygon fill="#9a32cd" stroke="#9a32cd" points="214.363,-396.091 223.548,-401.372 219.661,-391.516 214.363,-396.091"/>
<text text-anchor="middle" x="227.5" y="-374" font-family="Helvetica,sans-Serif" font-size="10.00"> m_cache</text>
</g>
<!-- Node11 -->
<g id="node11" class="node"><title>Node11</title>
<g id="a_node11"><a xlink:href="classCantera_1_1Kinetics.html" target="_top" xlink:title="Public interface for kinetics managers. ">
<polygon fill="white" stroke="black" points="382,-295.5 382,-314.5 434,-314.5 434,-295.5 382,-295.5"/>
<text text-anchor="middle" x="408" y="-302.5" font-family="Helvetica,sans-Serif" font-size="10.00">Kinetics</text>
</a>
</g>
</g>
<!-- Node7&#45;&gt;Node11 -->
<g id="edge12" class="edge"><title>Node7&#45;&gt;Node11</title>
<path fill="none" stroke="#9a32cd" stroke-dasharray="5,2" d="M254.57,-396.151C291.684,-374.344 362.671,-332.634 393.315,-314.628"/>
<polygon fill="#9a32cd" stroke="#9a32cd" points="252.333,-393.406 245.485,-401.489 255.88,-399.441 252.333,-393.406"/>
<text text-anchor="middle" x="318.5" y="-374" font-family="Helvetica,sans-Serif" font-size="10.00"> m_cache</text>
</g>
<!-- Node8 -->
<g id="node8" class="node"><title>Node8</title>
<g id="a_node8"><a xlink:href="classCantera_1_1MultiSpeciesThermo.html" target="_top" xlink:title="A species thermodynamic property manager for a phase. ">
<polygon fill="white" stroke="black" points="28,-333.5 28,-352.5 134,-352.5 134,-333.5 28,-333.5"/>
<text text-anchor="middle" x="81" y="-340.5" font-family="Helvetica,sans-Serif" font-size="10.00">MultiSpeciesThermo</text>
</a>
</g>
</g>
<!-- Node8&#45;&gt;Node4 -->
<g id="edge8" class="edge"><title>Node8&#45;&gt;Node4</title>
<path fill="none" stroke="#9a32cd" stroke-dasharray="5,2" d="M81,-323.072C81,-308.18 81,-288.111 81,-276.768"/>
<polygon fill="#9a32cd" stroke="#9a32cd" points="77.5001,-323.221 81,-333.221 84.5001,-323.221 77.5001,-323.221"/>
<text text-anchor="middle" x="110" y="-302.5" font-family="Helvetica,sans-Serif" font-size="10.00"> m_spthermo</text>
</g>
<!-- Node9 -->
<g id="node9" class="node"><title>Node9</title>
<g id="a_node9"><a xlink:href="classCantera_1_1EdgeKinetics.html" target="_top" xlink:title="Heterogeneous reactions at one&#45;dimensional interfaces between multiple adjacent two&#45;dimensional surfa...">
<polygon fill="white" stroke="black" points="115,-57.5 115,-76.5 189,-76.5 189,-57.5 115,-57.5"/>
<text text-anchor="middle" x="152" y="-64.5" font-family="Helvetica,sans-Serif" font-size="10.00">EdgeKinetics</text>
</a>
</g>
</g>
<!-- Node9&#45;&gt;Node1 -->
<g id="edge9" class="edge"><title>Node9&#45;&gt;Node1</title>
<path fill="none" stroke="midnightblue" d="M130.608,-51.8244C115.186,-41.605 94.8784,-28.1483 81.8777,-19.5334"/>
<polygon fill="midnightblue" stroke="midnightblue" points="128.762,-54.8 139.031,-57.4062 132.629,-48.9648 128.762,-54.8"/>
</g>
<!-- Node10&#45;&gt;Node9 -->
<g id="edge10" class="edge"><title>Node10&#45;&gt;Node9</title>
<path fill="none" stroke="midnightblue" d="M193.448,-124.799C182.479,-109.768 167,-88.556 158.398,-76.7679"/>
<polygon fill="midnightblue" stroke="midnightblue" points="190.871,-127.206 199.593,-133.221 196.526,-123.08 190.871,-127.206"/>
</g>
<!-- Node11&#45;&gt;Node10 -->
<g id="edge11" class="edge"><title>Node11&#45;&gt;Node10</title>
<path fill="none" stroke="midnightblue" d="M414.69,-285.902C421.618,-263.834 429.342,-226.241 413,-200 395.927,-172.585 306.916,-156.608 251.319,-149.158"/>
<polygon fill="midnightblue" stroke="midnightblue" points="411.376,-284.775 411.461,-295.37 418.002,-287.034 411.376,-284.775"/>
</g>
<!-- Node12 -->
<g id="node12" class="node"><title>Node12</title>
<g id="a_node12"><a xlink:href="classCantera_1_1Rate1.html" target="_top" xlink:title="Rate1\&lt; Cantera::SurfaceArrhenius \&gt;">
<polygon fill="white" stroke="black" points="118,-200.5 118,-219.5 294,-219.5 294,-200.5 118,-200.5"/>
<text text-anchor="middle" x="206" y="-207.5" font-family="Helvetica,sans-Serif" font-size="10.00">Rate1&lt; Cantera::SurfaceArrhenius &gt;</text>
</a>
</g>
</g>
<!-- Node12&#45;&gt;Node10 -->
<g id="edge14" class="edge"><title>Node12&#45;&gt;Node10</title>
<path fill="none" stroke="#9a32cd" stroke-dasharray="5,2" d="M206,-190.037C206,-177.67 206,-162.12 206,-152.627"/>
<polygon fill="#9a32cd" stroke="#9a32cd" points="202.5,-190.234 206,-200.234 209.5,-190.234 202.5,-190.234"/>
<text text-anchor="middle" x="225.5" y="-174" font-family="Helvetica,sans-Serif" font-size="10.00"> m_rates</text>
</g>
<!-- Node13 -->
<g id="node13" class="node"><title>Node13</title>
<g id="a_node13"><a xlink:href="classCantera_1_1ImplicitSurfChem.html" target="_top" xlink:title="Advances the surface coverages of the associated set of SurfacePhase objects in time. ">
<polygon fill="white" stroke="black" points="312,-200.5 312,-219.5 404,-219.5 404,-200.5 312,-200.5"/>
<text text-anchor="middle" x="358" y="-207.5" font-family="Helvetica,sans-Serif" font-size="10.00">ImplicitSurfChem</text>
</a>
</g>
</g>
<!-- Node13&#45;&gt;Node10 -->
<g id="edge15" class="edge"><title>Node13&#45;&gt;Node10</title>
<path fill="none" stroke="#9a32cd" stroke-dasharray="5,2" d="M328.257,-196.281C298.155,-183.409 252.429,-163.855 226.268,-152.667"/>
<polygon fill="#9a32cd" stroke="#9a32cd" points="327.245,-199.655 337.816,-200.369 329.997,-193.218 327.245,-199.655"/>
<text text-anchor="middle" x="321" y="-174" font-family="Helvetica,sans-Serif" font-size="10.00"> m_integrator</text>
</g>
<!-- Node14 -->
<g id="node14" class="node"><title>Node14</title>
<g id="a_node14"><a xlink:href="classCantera_1_1FuncEval.html" target="_top" xlink:title="Virtual base class for ODE right&#45;hand&#45;side function evaluators. ">
<polygon fill="white" stroke="black" points="329,-257.5 329,-276.5 387,-276.5 387,-257.5 329,-257.5"/>
<text text-anchor="middle" x="358" y="-264.5" font-family="Helvetica,sans-Serif" font-size="10.00">FuncEval</text>
</a>
</g>
</g>
<!-- Node14&#45;&gt;Node13 -->
<g id="edge16" class="edge"><title>Node14&#45;&gt;Node13</title>
<path fill="none" stroke="midnightblue" d="M358,-247.117C358,-237.817 358,-227.056 358,-219.715"/>
<polygon fill="midnightblue" stroke="midnightblue" points="354.5,-247.406 358,-257.406 361.5,-247.406 354.5,-247.406"/>
</g>
</g>
</svg>
