<?xml version="1.0" encoding="UTF-8" standalone="no"?>
<!DOCTYPE svg PUBLIC "-//W3C//DTD SVG 1.1//EN"
 "http://www.w3.org/Graphics/SVG/1.1/DTD/svg11.dtd">
<!-- Generated by graphviz version 2.38.0 (20140413.2041)
 -->
<!-- Title: GibbsExcessVPSSTP Pages: 1 -->
<svg width="385pt" height="288pt"
 viewBox="0.00 0.00 384.50 288.00" xmlns="http://www.w3.org/2000/svg" xmlns:xlink="http://www.w3.org/1999/xlink">
<g id="graph0" class="graph" transform="scale(1 1) rotate(0) translate(4 284)">
<title>GibbsExcessVPSSTP</title>
<polygon fill="white" stroke="none" points="-4,4 -4,-284 380.5,-284 380.5,4 -4,4"/>
<!-- Node1 -->
<g id="node1" class="node"><title>Node1</title>
<polygon fill="#bfbfbf" stroke="black" points="224,-0.5 224,-19.5 339,-19.5 339,-0.5 224,-0.5"/>
<text text-anchor="middle" x="281.5" y="-7.5" font-family="Helvetica,sans-Serif" font-size="10.00">GibbsExcessVPSSTP</text>
</g>
<!-- Node2 -->
<g id="node2" class="node"><title>Node2</title>
<g id="a_node2"><a xlink:href="classCantera_1_1VPStandardStateTP.html" target="_top" xlink:title="This is a filter class for ThermoPhase that implements some prepatory steps for efficiently handling ...">
<polygon fill="white" stroke="black" points="157,-67.5 157,-86.5 262,-86.5 262,-67.5 157,-67.5"/>
<text text-anchor="middle" x="209.5" y="-74.5" font-family="Helvetica,sans-Serif" font-size="10.00">VPStandardStateTP</text>
</a>
</g>
</g>
<!-- Node2&#45;&gt;Node1 -->
<g id="edge1" class="edge"><title>Node2&#45;&gt;Node1</title>
<path fill="none" stroke="midnightblue" d="M226.828,-60.3564C240.983,-47.5777 260.463,-29.9915 271.944,-19.6273"/>
<polygon fill="midnightblue" stroke="midnightblue" points="224.288,-57.9348 219.21,-67.2338 228.978,-63.1307 224.288,-57.9348"/>
</g>
<!-- Node3 -->
<g id="node3" class="node"><title>Node3</title>
<g id="a_node3"><a xlink:href="classCantera_1_1ThermoPhase.html" target="_top" xlink:title="Base class for a phase with thermodynamic properties. ">
<polygon fill="white" stroke="black" points="171,-124.5 171,-143.5 248,-143.5 248,-124.5 171,-124.5"/>
<text text-anchor="middle" x="209.5" y="-131.5" font-family="Helvetica,sans-Serif" font-size="10.00">ThermoPhase</text>
</a>
</g>
</g>
<!-- Node3&#45;&gt;Node2 -->
<g id="edge2" class="edge"><title>Node3&#45;&gt;Node2</title>
<path fill="none" stroke="midnightblue" d="M209.5,-114.117C209.5,-104.817 209.5,-94.0557 209.5,-86.7149"/>
<polygon fill="midnightblue" stroke="midnightblue" points="206,-114.406 209.5,-124.406 213,-114.406 206,-114.406"/>
</g>
<!-- Node4 -->
<g id="node4" class="node"><title>Node4</title>
<g id="a_node4"><a xlink:href="classCantera_1_1Phase.html" target="_top" xlink:title="Class Phase is the base class for phases of matter, managing the species and elements in a phase...">
<polygon fill="white" stroke="black" points="118.5,-191.5 118.5,-210.5 162.5,-210.5 162.5,-191.5 118.5,-191.5"/>
<text text-anchor="middle" x="140.5" y="-198.5" font-family="Helvetica,sans-Serif" font-size="10.00">Phase</text>
</a>
</g>
</g>
<!-- Node4&#45;&gt;Node3 -->
<g id="edge3" class="edge"><title>Node4&#45;&gt;Node3</title>
<path fill="none" stroke="midnightblue" d="M157.106,-184.356C170.671,-171.578 189.34,-153.992 200.342,-143.627"/>
<polygon fill="midnightblue" stroke="midnightblue" points="154.685,-181.829 149.806,-191.234 159.485,-186.924 154.685,-181.829"/>
</g>
<!-- Node5 -->
<g id="node5" class="node"><title>Node5</title>
<g id="a_node5"><a xlink:href="classCantera_1_1XML__Node.html" target="_top" xlink:title="Class XML_Node is a tree&#45;based representation of the contents of an XML file. ">
<polygon fill="white" stroke="black" points="0,-259.5 0,-278.5 65,-278.5 65,-259.5 0,-259.5"/>
<text text-anchor="middle" x="32.5" y="-266.5" font-family="Helvetica,sans-Serif" font-size="10.00">XML_Node</text>
</a>
</g>
</g>
<!-- Node5&#45;&gt;Node4 -->
<g id="edge4" class="edge"><title>Node5&#45;&gt;Node4</title>
<path fill="none" stroke="#9a32cd" stroke-dasharray="5,2" d="M55.4283,-253.988C76.9135,-240.858 108.346,-221.65 126.377,-210.63"/>
<polygon fill="#9a32cd" stroke="#9a32cd" points="53.3269,-251.171 46.6191,-259.372 56.977,-257.144 53.3269,-251.171"/>
<text text-anchor="middle" x="113" y="-232" font-family="Helvetica,sans-Serif" font-size="10.00"> m_xml</text>
</g>
<!-- Node5&#45;&gt;Node5 -->
<g id="edge5" class="edge"><title>Node5&#45;&gt;Node5</title>
<path fill="none" stroke="#9a32cd" stroke-dasharray="5,2" d="M75.1447,-274.383C79.9145,-273.367 83,-271.573 83,-269 83,-264.883 75.1012,-262.76 65.0425,-262.631"/>
<polygon fill="#9a32cd" stroke="#9a32cd" points="74.6551,-270.914 65.0425,-275.369 75.3352,-277.881 74.6551,-270.914"/>
<text text-anchor="middle" x="103.5" y="-272" font-family="Helvetica,sans-Serif" font-size="10.00"> m_root</text>
<text text-anchor="middle" x="103.5" y="-261" font-family="Helvetica,sans-Serif" font-size="10.00">m_parent</text>
</g>
<!-- Node6 -->
<g id="node6" class="node"><title>Node6</title>
<g id="a_node6"><a xlink:href="classCantera_1_1ValueCache.html" target="_top" xlink:title="ValueCache">
<polygon fill="white" stroke="black" points="142.5,-259.5 142.5,-278.5 212.5,-278.5 212.5,-259.5 142.5,-259.5"/>
<text text-anchor="middle" x="177.5" y="-266.5" font-family="Helvetica,sans-Serif" font-size="10.00">ValueCache</text>
</a>
</g>
</g>
<!-- Node6&#45;&gt;Node4 -->
<g id="edge6" class="edge"><title>Node6&#45;&gt;Node4</title>
<path fill="none" stroke="#9a32cd" stroke-dasharray="5,2" d="M167.725,-250.563C160.559,-237.781 151.129,-220.96 145.456,-210.841"/>
<polygon fill="#9a32cd" stroke="#9a32cd" points="164.72,-252.36 172.663,-259.372 170.826,-248.937 164.72,-252.36"/>
<text text-anchor="middle" x="183" y="-232" font-family="Helvetica,sans-Serif" font-size="10.00"> m_cache</text>
</g>
<!-- Node7 -->
<g id="node7" class="node"><title>Node7</title>
<g id="a_node7"><a xlink:href="classCantera_1_1MultiSpeciesThermo.html" target="_top" xlink:title="A species thermodynamic property manager for a phase. ">
<polygon fill="white" stroke="black" points="180.5,-191.5 180.5,-210.5 286.5,-210.5 286.5,-191.5 180.5,-191.5"/>
<text text-anchor="middle" x="233.5" y="-198.5" font-family="Helvetica,sans-Serif" font-size="10.00">MultiSpeciesThermo</text>
</a>
</g>
</g>
<!-- Node7&#45;&gt;Node3 -->
<g id="edge7" class="edge"><title>Node7&#45;&gt;Node3</title>
<path fill="none" stroke="#9a32cd" stroke-dasharray="5,2" d="M226.776,-181.79C222.167,-169.308 216.262,-153.314 212.685,-143.627"/>
<polygon fill="#9a32cd" stroke="#9a32cd" points="223.516,-183.065 230.263,-191.234 230.083,-180.641 223.516,-183.065"/>
<text text-anchor="middle" x="252.5" y="-165" font-family="Helvetica,sans-Serif" font-size="10.00"> m_spthermo</text>
</g>
<!-- Node8 -->
<g id="node8" class="node"><title>Node8</title>
<g id="a_node8"><a xlink:href="classCantera_1_1Array2D.html" target="_top" xlink:title="A class for 2D arrays stored in column&#45;major (Fortran&#45;compatible) form. ">
<polygon fill="white" stroke="black" points="280,-67.5 280,-86.5 333,-86.5 333,-67.5 280,-67.5"/>
<text text-anchor="middle" x="306.5" y="-74.5" font-family="Helvetica,sans-Serif" font-size="10.00">Array2D</text>
</a>
</g>
</g>
<!-- Node8&#45;&gt;Node1 -->
<g id="edge8" class="edge"><title>Node8&#45;&gt;Node1</title>
<path fill="none" stroke="#9a32cd" stroke-dasharray="5,2" d="M299.496,-57.79C294.695,-45.3076 288.544,-29.3135 284.818,-19.6273"/>
<polygon fill="#9a32cd" stroke="#9a32cd" points="296.272,-59.1568 303.128,-67.2338 302.805,-56.6439 296.272,-59.1568"/>
<text text-anchor="middle" x="336" y="-41" font-family="Helvetica,sans-Serif" font-size="10.00"> dlnActCoeffdlnN_</text>
</g>
</g>
</svg>
