<?xml version="1.0" encoding="UTF-8" standalone="no"?>
<!DOCTYPE svg PUBLIC "-//W3C//DTD SVG 1.1//EN"
 "http://www.w3.org/Graphics/SVG/1.1/DTD/svg11.dtd">
<!-- Generated by graphviz version 2.40.1 (20161225.0304)
 -->
<!-- Title: PDSS_Water Pages: 1 -->
<svg width="83pt" height="137pt"
 viewBox="0.00 0.00 83.10 137.00" xmlns="http://www.w3.org/2000/svg" xmlns:xlink="http://www.w3.org/1999/xlink">
<g id="graph0" class="graph" transform="scale(1 1) rotate(0) translate(4 133)">
<title>PDSS_Water</title>
<polygon fill="#ffffff" stroke="transparent" points="-4,4 -4,-133 79.0967,-133 79.0967,4 -4,4"/>
<!-- Node0 -->
<g id="node1" class="node">
<title>Node0</title>
<polygon fill="#bfbfbf" stroke="#000000" points="0,-.5 0,-18.5 75.0967,-18.5 75.0967,-.5 0,-.5"/>
<text text-anchor="middle" x="37.5483" y="-6.5" font-family="Helvetica,sans-Serif" font-size="10.00" fill="#000000">PDSS_Water</text>
</g>
<!-- Node1 -->
<g id="node2" class="node">
<title>Node1</title>
<g id="a_node2"><a xlink:href="classCantera_1_1PDSS__Molar.html" target="_top" xlink:title="Base class for PDSS classes which compute molar properties directly. ">
<polygon fill="#ffffff" stroke="#000000" points=".6494,-55.5 .6494,-73.5 74.4473,-73.5 74.4473,-55.5 .6494,-55.5"/>
<text text-anchor="middle" x="37.5483" y="-61.5" font-family="Helvetica,sans-Serif" font-size="10.00" fill="#000000">PDSS_Molar</text>
</a>
</g>
</g>
<!-- Node1&#45;&gt;Node0 -->
<g id="edge1" class="edge">
<title>Node1&#45;&gt;Node0</title>
<path fill="none" stroke="#191970" d="M37.5483,-45.383C37.5483,-36.3738 37.5483,-26.0373 37.5483,-18.7795"/>
<polygon fill="#191970" stroke="#191970" points="34.0484,-45.4178 37.5483,-55.4179 41.0484,-45.4179 34.0484,-45.4178"/>
</g>
<!-- Node2 -->
<g id="node3" class="node">
<title>Node2</title>
<g id="a_node3"><a xlink:href="classCantera_1_1PDSS.html" target="_top" xlink:title="Virtual base class for a species with a pressure dependent standard state. ">
<polygon fill="#ffffff" stroke="#000000" points="15.9326,-110.5 15.9326,-128.5 59.1641,-128.5 59.1641,-110.5 15.9326,-110.5"/>
<text text-anchor="middle" x="37.5483" y="-116.5" font-family="Helvetica,sans-Serif" font-size="10.00" fill="#000000">PDSS</text>
</a>
</g>
</g>
<!-- Node2&#45;&gt;Node1 -->
<g id="edge2" class="edge">
<title>Node2&#45;&gt;Node1</title>
<path fill="none" stroke="#191970" d="M37.5483,-100.383C37.5483,-91.3738 37.5483,-81.0373 37.5483,-73.7795"/>
<polygon fill="#191970" stroke="#191970" points="34.0484,-100.4178 37.5483,-110.4179 41.0484,-100.4179 34.0484,-100.4178"/>
</g>
</g>
</svg>
