<?xml version="1.0" encoding="UTF-8" standalone="no"?>
<!DOCTYPE svg PUBLIC "-//W3C//DTD SVG 1.1//EN"
 "http://www.w3.org/Graphics/SVG/1.1/DTD/svg11.dtd">
<!-- Generated by graphviz version 2.38.0 (20151222.1943)
 -->
<!-- Title: VPStandardStateTP Pages: 1 -->
<svg width="777pt" height="294pt"
 viewBox="0.00 0.00 777.00 294.00" xmlns="http://www.w3.org/2000/svg" xmlns:xlink="http://www.w3.org/1999/xlink">
<g id="graph0" class="graph" transform="scale(1 1) rotate(0) translate(4 290)">
<title>VPStandardStateTP</title>
<polygon fill="white" stroke="none" points="-4,4 -4,-290 773,-290 773,4 -4,4"/>
<!-- Node1 -->
<g id="node1" class="node"><title>Node1</title>
<polygon fill="#bfbfbf" stroke="black" points="193,-114.5 193,-133.5 297,-133.5 297,-114.5 193,-114.5"/>
<text text-anchor="middle" x="245" y="-121.5" font-family="FreeSans" font-size="10.00">VPStandardStateTP</text>
</g>
<!-- Node4 -->
<g id="node4" class="node"><title>Node4</title>
<g id="a_node4"><a xlink:href="classCantera_1_1GibbsExcessVPSSTP.html" target="_top" xlink:title="GibbsExcessVPSSTP">
<polygon fill="white" stroke="black" points="337,-171.5 337,-190.5 447,-190.5 447,-171.5 337,-171.5"/>
<text text-anchor="middle" x="392" y="-178.5" font-family="FreeSans" font-size="10.00">GibbsExcessVPSSTP</text>
</a>
</g>
</g>
<!-- Node1&#45;&gt;Node4 -->
<g id="edge3" class="edge"><title>Node1&#45;&gt;Node4</title>
<path fill="none" stroke="midnightblue" d="M275.75,-137.832C292.423,-145.372 313.688,-154.639 333,-162 341.713,-165.321 351.289,-168.604 360.106,-171.483"/>
<polygon fill="midnightblue" stroke="midnightblue" points="277.064,-134.585 266.513,-133.62 274.16,-140.954 277.064,-134.585"/>
</g>
<!-- Node11 -->
<g id="node11" class="node"><title>Node11</title>
<g id="a_node11"><a xlink:href="classCantera_1_1IdealSolnGasVPSS.html" target="_top" xlink:title="An ideal solution or an ideal gas approximation of a phase. ">
<polygon fill="white" stroke="black" points="341.5,-133.5 341.5,-152.5 442.5,-152.5 442.5,-133.5 341.5,-133.5"/>
<text text-anchor="middle" x="392" y="-140.5" font-family="FreeSans" font-size="10.00">IdealSolnGasVPSS</text>
</a>
</g>
</g>
<!-- Node1&#45;&gt;Node11 -->
<g id="edge10" class="edge"><title>Node1&#45;&gt;Node11</title>
<path fill="none" stroke="midnightblue" d="M307.381,-132.043C318.702,-133.526 330.393,-135.058 341.315,-136.49"/>
<polygon fill="midnightblue" stroke="midnightblue" points="307.492,-128.528 297.122,-130.699 306.582,-135.468 307.492,-128.528"/>
</g>
<!-- Node12 -->
<g id="node12" class="node"><title>Node12</title>
<g id="a_node12"><a xlink:href="classCantera_1_1MaskellSolidSolnPhase.html" target="_top" xlink:title="Class MaskellSolidSolnPhase represents a condensed phase non&#45;ideal solution with 2 species following ...">
<polygon fill="white" stroke="black" points="333,-95.5 333,-114.5 451,-114.5 451,-95.5 333,-95.5"/>
<text text-anchor="middle" x="392" y="-102.5" font-family="FreeSans" font-size="10.00">MaskellSolidSolnPhase</text>
</a>
</g>
</g>
<!-- Node1&#45;&gt;Node12 -->
<g id="edge11" class="edge"><title>Node1&#45;&gt;Node12</title>
<path fill="none" stroke="midnightblue" d="M307.05,-116C315.619,-114.877 324.407,-113.726 332.919,-112.611"/>
<polygon fill="midnightblue" stroke="midnightblue" points="306.582,-112.532 297.122,-117.301 307.492,-119.472 306.582,-112.532"/>
</g>
<!-- Node13 -->
<g id="node13" class="node"><title>Node13</title>
<g id="a_node13"><a xlink:href="classCantera_1_1MolalityVPSSTP.html" target="_top" xlink:title="MolalityVPSSTP">
<polygon fill="white" stroke="black" points="347.5,-47.5 347.5,-66.5 436.5,-66.5 436.5,-47.5 347.5,-47.5"/>
<text text-anchor="middle" x="392" y="-54.5" font-family="FreeSans" font-size="10.00">MolalityVPSSTP</text>
</a>
</g>
</g>
<!-- Node1&#45;&gt;Node13 -->
<g id="edge12" class="edge"><title>Node1&#45;&gt;Node13</title>
<path fill="none" stroke="midnightblue" d="M276.142,-110.072C304.313,-97.0555 345.624,-77.967 370.264,-66.5817"/>
<polygon fill="midnightblue" stroke="midnightblue" points="274.385,-107.029 266.775,-114.401 277.321,-113.383 274.385,-107.029"/>
</g>
<!-- Node2 -->
<g id="node2" class="node"><title>Node2</title>
<g id="a_node2"><a xlink:href="classCantera_1_1ThermoPhase.html" target="_top" xlink:title="Base class for a phase with thermodynamic properties. ">
<polygon fill="white" stroke="black" points="80,-114.5 80,-133.5 157,-133.5 157,-114.5 80,-114.5"/>
<text text-anchor="middle" x="118.5" y="-121.5" font-family="FreeSans" font-size="10.00">ThermoPhase</text>
</a>
</g>
</g>
<!-- Node2&#45;&gt;Node1 -->
<g id="edge1" class="edge"><title>Node2&#45;&gt;Node1</title>
<path fill="none" stroke="midnightblue" d="M167.42,-124C175.683,-124 184.302,-124 192.651,-124"/>
<polygon fill="midnightblue" stroke="midnightblue" points="167.192,-120.5 157.192,-124 167.192,-127.5 167.192,-120.5"/>
</g>
<!-- Node3 -->
<g id="node3" class="node"><title>Node3</title>
<g id="a_node3"><a xlink:href="classCantera_1_1Phase.html" target="_top" xlink:title="Class Phase is the base class for phases of matter, managing the species and elements in a phase...">
<polygon fill="white" stroke="black" points="0,-114.5 0,-133.5 44,-133.5 44,-114.5 0,-114.5"/>
<text text-anchor="middle" x="22" y="-121.5" font-family="FreeSans" font-size="10.00">Phase</text>
</a>
</g>
</g>
<!-- Node3&#45;&gt;Node2 -->
<g id="edge2" class="edge"><title>Node3&#45;&gt;Node2</title>
<path fill="none" stroke="midnightblue" d="M54.5847,-124C62.6723,-124 71.4504,-124 79.8116,-124"/>
<polygon fill="midnightblue" stroke="midnightblue" points="54.4435,-120.5 44.4435,-124 54.4435,-127.5 54.4435,-120.5"/>
</g>
<!-- Node5 -->
<g id="node5" class="node"><title>Node5</title>
<g id="a_node5"><a xlink:href="classCantera_1_1IonsFromNeutralVPSSTP.html" target="_top" xlink:title="IonsFromNeutralVPSSTP">
<polygon fill="white" stroke="black" points="487,-266.5 487,-285.5 614,-285.5 614,-266.5 487,-266.5"/>
<text text-anchor="middle" x="550.5" y="-273.5" font-family="FreeSans" font-size="10.00">IonsFromNeutralVPSSTP</text>
</a>
</g>
</g>
<!-- Node4&#45;&gt;Node5 -->
<g id="edge4" class="edge"><title>Node4&#45;&gt;Node5</title>
<path fill="none" stroke="midnightblue" d="M409.511,-197.722C427.239,-214.817 456.933,-241.058 487,-257 494.114,-260.772 502.089,-263.913 509.901,-266.483"/>
<polygon fill="midnightblue" stroke="midnightblue" points="411.833,-195.097 402.249,-190.581 406.925,-200.088 411.833,-195.097"/>
</g>
<!-- Node6 -->
<g id="node6" class="node"><title>Node6</title>
<g id="a_node6"><a xlink:href="classCantera_1_1MargulesVPSSTP.html" target="_top" xlink:title="MargulesVPSSTP is a derived class of GibbsExcessVPSSTP that employs the Margules approximation for th...">
<polygon fill="white" stroke="black" points="503,-228.5 503,-247.5 598,-247.5 598,-228.5 503,-228.5"/>
<text text-anchor="middle" x="550.5" y="-235.5" font-family="FreeSans" font-size="10.00">MargulesVPSSTP</text>
</a>
</g>
</g>
<!-- Node4&#45;&gt;Node6 -->
<g id="edge5" class="edge"><title>Node4&#45;&gt;Node6</title>
<path fill="none" stroke="midnightblue" d="M424.682,-194.628C442.784,-202.207 465.995,-211.578 487,-219 496.41,-222.325 506.736,-225.609 516.236,-228.488"/>
<polygon fill="midnightblue" stroke="midnightblue" points="425.771,-191.289 415.197,-190.625 423.05,-197.738 425.771,-191.289"/>
</g>
<!-- Node7 -->
<g id="node7" class="node"><title>Node7</title>
<g id="a_node7"><a xlink:href="classCantera_1_1MolarityIonicVPSSTP.html" target="_top" xlink:title="MolarityIonicVPSSTP">
<polygon fill="white" stroke="black" points="495.5,-190.5 495.5,-209.5 605.5,-209.5 605.5,-190.5 495.5,-190.5"/>
<text text-anchor="middle" x="550.5" y="-197.5" font-family="FreeSans" font-size="10.00">MolarityIonicVPSSTP</text>
</a>
</g>
</g>
<!-- Node4&#45;&gt;Node7 -->
<g id="edge6" class="edge"><title>Node4&#45;&gt;Node7</title>
<path fill="none" stroke="midnightblue" d="M457.289,-188.805C469.916,-190.338 483.043,-191.932 495.299,-193.42"/>
<polygon fill="midnightblue" stroke="midnightblue" points="457.646,-185.323 447.297,-187.592 456.802,-192.272 457.646,-185.323"/>
</g>
<!-- Node9 -->
<g id="node9" class="node"><title>Node9</title>
<g id="a_node9"><a xlink:href="classCantera_1_1PhaseCombo__Interaction.html" target="_top" xlink:title="PhaseCombo_Interaction is a derived class of GibbsExcessVPSSTP that employs the Margules approximatio...">
<polygon fill="white" stroke="black" points="488,-152.5 488,-171.5 613,-171.5 613,-152.5 488,-152.5"/>
<text text-anchor="middle" x="550.5" y="-159.5" font-family="FreeSans" font-size="10.00">PhaseCombo_Interaction</text>
</a>
</g>
</g>
<!-- Node4&#45;&gt;Node9 -->
<g id="edge8" class="edge"><title>Node4&#45;&gt;Node9</title>
<path fill="none" stroke="midnightblue" d="M457.255,-173.199C467.347,-171.974 477.759,-170.71 487.791,-169.492"/>
<polygon fill="midnightblue" stroke="midnightblue" points="456.802,-169.728 447.297,-174.408 457.646,-176.677 456.802,-169.728"/>
</g>
<!-- Node10 -->
<g id="node10" class="node"><title>Node10</title>
<g id="a_node10"><a xlink:href="classCantera_1_1RedlichKisterVPSSTP.html" target="_top" xlink:title="RedlichKisterVPSSTP is a derived class of GibbsExcessVPSSTP that employs the Redlich&#45;Kister approxima...">
<polygon fill="white" stroke="black" points="494,-114.5 494,-133.5 607,-133.5 607,-114.5 494,-114.5"/>
<text text-anchor="middle" x="550.5" y="-121.5" font-family="FreeSans" font-size="10.00">RedlichKisterVPSSTP</text>
</a>
</g>
</g>
<!-- Node4&#45;&gt;Node10 -->
<g id="edge9" class="edge"><title>Node4&#45;&gt;Node10</title>
<path fill="none" stroke="midnightblue" d="M435.168,-168.118C440.548,-166.203 445.94,-164.146 451,-162 467.656,-154.937 470.269,-149.884 487,-143 495.495,-139.504 504.871,-136.319 513.721,-133.597"/>
<polygon fill="midnightblue" stroke="midnightblue" points="433.899,-164.853 425.57,-171.401 436.165,-171.476 433.899,-164.853"/>
</g>
<!-- Node8 -->
<g id="node8" class="node"><title>Node8</title>
<g id="a_node8"><a xlink:href="classCantera_1_1MixedSolventElectrolyte.html" target="_top" xlink:title="MixedSolventElectrolyte is a derived class of GibbsExcessVPSSTP that employs the DH and local Margule...">
<polygon fill="white" stroke="black" points="650,-190.5 650,-209.5 769,-209.5 769,-190.5 650,-190.5"/>
<text text-anchor="middle" x="709.5" y="-197.5" font-family="FreeSans" font-size="10.00">MixedSolventElectrolyte</text>
</a>
</g>
</g>
<!-- Node7&#45;&gt;Node8 -->
<g id="edge7" class="edge"><title>Node7&#45;&gt;Node8</title>
<path fill="none" stroke="midnightblue" d="M615.742,-200C627.015,-200 638.694,-200 649.807,-200"/>
<polygon fill="midnightblue" stroke="midnightblue" points="615.531,-196.5 605.53,-200 615.53,-203.5 615.531,-196.5"/>
</g>
<!-- Node14 -->
<g id="node14" class="node"><title>Node14</title>
<g id="a_node14"><a xlink:href="classCantera_1_1DebyeHuckel.html" target="_top" xlink:title="Class DebyeHuckel represents a dilute liquid electrolyte phase which obeys the Debye Huckel formulati...">
<polygon fill="white" stroke="black" points="513.5,-76.5 513.5,-95.5 587.5,-95.5 587.5,-76.5 513.5,-76.5"/>
<text text-anchor="middle" x="550.5" y="-83.5" font-family="FreeSans" font-size="10.00">DebyeHuckel</text>
</a>
</g>
</g>
<!-- Node13&#45;&gt;Node14 -->
<g id="edge13" class="edge"><title>Node13&#45;&gt;Node14</title>
<path fill="none" stroke="midnightblue" d="M446.479,-66.9098C468.503,-70.9909 493.446,-75.6129 513.272,-79.2868"/>
<polygon fill="midnightblue" stroke="midnightblue" points="447.064,-63.4588 436.594,-65.0781 445.789,-70.3416 447.064,-63.4588"/>
</g>
<!-- Node15 -->
<g id="node15" class="node"><title>Node15</title>
<g id="a_node15"><a xlink:href="classCantera_1_1HMWSoln.html" target="_top" xlink:title="Class HMWSoln represents a dilute or concentrated liquid electrolyte phase which obeys the Pitzer for...">
<polygon fill="white" stroke="black" points="520.5,-38.5 520.5,-57.5 580.5,-57.5 580.5,-38.5 520.5,-38.5"/>
<text text-anchor="middle" x="550.5" y="-45.5" font-family="FreeSans" font-size="10.00">HMWSoln</text>
</a>
</g>
</g>
<!-- Node13&#45;&gt;Node15 -->
<g id="edge14" class="edge"><title>Node13&#45;&gt;Node15</title>
<path fill="none" stroke="midnightblue" d="M446.588,-53.9183C471.345,-52.4946 499.77,-50.8599 520.465,-49.6698"/>
<polygon fill="midnightblue" stroke="midnightblue" points="446.377,-50.4245 436.594,-54.493 446.778,-57.413 446.377,-50.4245"/>
</g>
<!-- Node16 -->
<g id="node16" class="node"><title>Node16</title>
<g id="a_node16"><a xlink:href="classCantera_1_1IdealMolalSoln.html" target="_top" xlink:title="This phase is based upon the mixing&#45;rule assumption that all molality&#45;based activity coefficients are...">
<polygon fill="white" stroke="black" points="510.5,-0.5 510.5,-19.5 590.5,-19.5 590.5,-0.5 510.5,-0.5"/>
<text text-anchor="middle" x="550.5" y="-7.5" font-family="FreeSans" font-size="10.00">IdealMolalSoln</text>
</a>
</g>
</g>
<!-- Node13&#45;&gt;Node16 -->
<g id="edge15" class="edge"><title>Node13&#45;&gt;Node16</title>
<path fill="none" stroke="midnightblue" d="M434.283,-44.6018C460.363,-36.7696 493.556,-26.8012 517.609,-19.5776"/>
<polygon fill="midnightblue" stroke="midnightblue" points="433.241,-41.2604 424.67,-47.4888 435.254,-47.9646 433.241,-41.2604"/>
</g>
</g>
</svg>
