<?xml version="1.0" encoding="UTF-8" standalone="no"?>
<!DOCTYPE svg PUBLIC "-//W3C//DTD SVG 1.1//EN"
 "http://www.w3.org/Graphics/SVG/1.1/DTD/svg11.dtd">
<!-- Generated by graphviz version 2.38.0 (20151222.1943)
 -->
<!-- Title: GeneralMatrix Pages: 1 -->
<svg width="166pt" height="140pt"
 viewBox="0.00 0.00 165.50 140.00" xmlns="http://www.w3.org/2000/svg" xmlns:xlink="http://www.w3.org/1999/xlink">
<g id="graph0" class="graph" transform="scale(1 1) rotate(0) translate(4 136)">
<title>GeneralMatrix</title>
<polygon fill="white" stroke="none" points="-4,4 -4,-136 161.5,-136 161.5,4 -4,4"/>
<!-- Node1 -->
<g id="node1" class="node"><title>Node1</title>
<polygon fill="#bfbfbf" stroke="black" points="38,-112.5 38,-131.5 115,-131.5 115,-112.5 38,-112.5"/>
<text text-anchor="middle" x="76.5" y="-119.5" font-family="FreeSans" font-size="10.00">GeneralMatrix</text>
</g>
<!-- Node2 -->
<g id="node2" class="node"><title>Node2</title>
<g id="a_node2"><a xlink:href="classCantera_1_1BandMatrix.html" target="_top" xlink:title="A class for banded matrices, involving matrix inversion processes. ">
<polygon fill="white" stroke="black" points="0,-56.5 0,-75.5 65,-75.5 65,-56.5 0,-56.5"/>
<text text-anchor="middle" x="32.5" y="-63.5" font-family="FreeSans" font-size="10.00">BandMatrix</text>
</a>
</g>
</g>
<!-- Node1&#45;&gt;Node2 -->
<g id="edge1" class="edge"><title>Node1&#45;&gt;Node2</title>
<path fill="none" stroke="midnightblue" d="M62.7655,-104.144C55.0995,-94.7357 45.8667,-83.4046 39.6305,-75.7511"/>
<polygon fill="midnightblue" stroke="midnightblue" points="60.2042,-106.541 69.2343,-112.083 65.6309,-102.12 60.2042,-106.541"/>
</g>
<!-- Node4 -->
<g id="node4" class="node"><title>Node4</title>
<g id="a_node4"><a xlink:href="classCantera_1_1SquareMatrix.html" target="_top" xlink:title="A class for full (non&#45;sparse) matrices with Fortran&#45;compatible data storage. ">
<polygon fill="white" stroke="black" points="83.5,-56.5 83.5,-75.5 157.5,-75.5 157.5,-56.5 83.5,-56.5"/>
<text text-anchor="middle" x="120.5" y="-63.5" font-family="FreeSans" font-size="10.00">SquareMatrix</text>
</a>
</g>
</g>
<!-- Node1&#45;&gt;Node4 -->
<g id="edge3" class="edge"><title>Node1&#45;&gt;Node4</title>
<path fill="none" stroke="midnightblue" d="M90.2345,-104.144C97.9005,-94.7357 107.133,-83.4046 113.369,-75.7511"/>
<polygon fill="midnightblue" stroke="midnightblue" points="87.3691,-102.12 83.7657,-112.083 92.7958,-106.541 87.3691,-102.12"/>
</g>
<!-- Node3 -->
<g id="node3" class="node"><title>Node3</title>
<g id="a_node3"><a xlink:href="classCantera_1_1MultiJac.html" target="_top" xlink:title="Class MultiJac evaluates the Jacobian of a system of equations defined by a residual function supplie...">
<polygon fill="white" stroke="black" points="6,-0.5 6,-19.5 59,-19.5 59,-0.5 6,-0.5"/>
<text text-anchor="middle" x="32.5" y="-7.5" font-family="FreeSans" font-size="10.00">MultiJac</text>
</a>
</g>
</g>
<!-- Node2&#45;&gt;Node3 -->
<g id="edge2" class="edge"><title>Node2&#45;&gt;Node3</title>
<path fill="none" stroke="midnightblue" d="M32.5,-45.8045C32.5,-36.9102 32.5,-26.7798 32.5,-19.7511"/>
<polygon fill="midnightblue" stroke="midnightblue" points="29.0001,-46.083 32.5,-56.083 36.0001,-46.083 29.0001,-46.083"/>
</g>
</g>
</svg>
