<?xml version="1.0" encoding="UTF-8" standalone="no"?>
<!DOCTYPE svg PUBLIC "-//W3C//DTD SVG 1.1//EN"
 "http://www.w3.org/Graphics/SVG/1.1/DTD/svg11.dtd">
<!-- Generated by graphviz version 2.26.3 (20100126.1600)
 -->
<!-- Title: Interface Pages: 1 -->
<svg width="183pt" height="204pt"
 viewBox="0.00 0.00 183.00 204.00" xmlns="http://www.w3.org/2000/svg" xmlns:xlink="http://www.w3.org/1999/xlink">
<g id="graph1" class="graph" transform="scale(1 1) rotate(0) translate(4 200)">
<title>Interface</title>
<polygon fill="white" stroke="white" points="-4,5 -4,-200 180,-200 180,5 -4,5"/>
<!-- Node1 -->
<g id="node1" class="node"><title>Node1</title>
<polygon fill="#bfbfbf" stroke="black" points="56.5,-1 56.5,-21 111.5,-21 111.5,-1 56.5,-1"/>
<text text-anchor="middle" x="84" y="-8" font-family="FreeSans" font-size="10.00">Interface</text>
</g>
<!-- Node2 -->
<g id="node2" class="node"><title>Node2</title>
<a xlink:href="classCantera_1_1SurfPhase.html" target="_top" xlink:title="A simple thermodynamic model for a surface phase, assuming an ideal solution model. ">
<polygon fill="white" stroke="black" points="7,-59 7,-79 69,-79 69,-59 7,-59"/>
<text text-anchor="middle" x="38" y="-66" font-family="FreeSans" font-size="10.00">SurfPhase</text>
</a>
</g>
<!-- Node2&#45;&gt;Node1 -->
<g id="edge2" class="edge"><title>Node2&#45;&gt;Node1</title>
<path fill="none" stroke="midnightblue" d="M52.2909,-50.981C60.0069,-41.2522 69.2571,-29.5889 75.7695,-21.3776"/>
<polygon fill="midnightblue" stroke="midnightblue" points="49.4843,-48.8873 46.0126,-58.8972 54.9688,-53.2371 49.4843,-48.8873"/>
</g>
<!-- Node3 -->
<g id="node4" class="node"><title>Node3</title>
<a xlink:href="classCantera_1_1ThermoPhase.html" target="_top" xlink:title="Base class for a phase with thermodynamic properties. ">
<polygon fill="white" stroke="black" points="-0.5,-117 -0.5,-137 76.5,-137 76.5,-117 -0.5,-117"/>
<text text-anchor="middle" x="38" y="-124" font-family="FreeSans" font-size="10.00">ThermoPhase</text>
</a>
</g>
<!-- Node3&#45;&gt;Node2 -->
<g id="edge4" class="edge"><title>Node3&#45;&gt;Node2</title>
<path fill="none" stroke="midnightblue" d="M38,-106.89C38,-97.6201 38,-87.0083 38,-79.3776"/>
<polygon fill="midnightblue" stroke="midnightblue" points="34.5001,-106.897 38,-116.897 41.5001,-106.897 34.5001,-106.897"/>
</g>
<!-- Node4 -->
<g id="node6" class="node"><title>Node4</title>
<a xlink:href="classCantera_1_1Phase.html" target="_top" xlink:title="Base class for phases of matter. ">
<polygon fill="white" stroke="black" points="16,-175 16,-195 60,-195 60,-175 16,-175"/>
<text text-anchor="middle" x="38" y="-182" font-family="FreeSans" font-size="10.00">Phase</text>
</a>
</g>
<!-- Node4&#45;&gt;Node3 -->
<g id="edge6" class="edge"><title>Node4&#45;&gt;Node3</title>
<path fill="none" stroke="midnightblue" d="M38,-164.89C38,-155.62 38,-145.008 38,-137.378"/>
<polygon fill="midnightblue" stroke="midnightblue" points="34.5001,-164.897 38,-174.897 41.5001,-164.897 34.5001,-164.897"/>
</g>
<!-- Node5 -->
<g id="node8" class="node"><title>Node5</title>
<a xlink:href="classCantera_1_1InterfaceKinetics.html" target="_top" xlink:title="A kinetics manager for heterogeneous reaction mechanisms. ">
<polygon fill="white" stroke="black" points="86.5,-59 86.5,-79 175.5,-79 175.5,-59 86.5,-59"/>
<text text-anchor="middle" x="131" y="-66" font-family="FreeSans" font-size="10.00">InterfaceKinetics</text>
</a>
</g>
<!-- Node5&#45;&gt;Node1 -->
<g id="edge8" class="edge"><title>Node5&#45;&gt;Node1</title>
<path fill="none" stroke="midnightblue" d="M116.398,-50.981C108.515,-41.2522 99.0634,-29.5889 92.4094,-21.3776"/>
<polygon fill="midnightblue" stroke="midnightblue" points="113.798,-53.3314 122.813,-58.8972 119.237,-48.9243 113.798,-53.3314"/>
</g>
<!-- Node6 -->
<g id="node10" class="node"><title>Node6</title>
<a xlink:href="classCantera_1_1Kinetics.html" target="_top" xlink:title="Public interface for kinetics managers. ">
<polygon fill="white" stroke="black" points="105.5,-117 105.5,-137 156.5,-137 156.5,-117 105.5,-117"/>
<text text-anchor="middle" x="131" y="-124" font-family="FreeSans" font-size="10.00">Kinetics</text>
</a>
</g>
<!-- Node6&#45;&gt;Node5 -->
<g id="edge10" class="edge"><title>Node6&#45;&gt;Node5</title>
<path fill="none" stroke="midnightblue" d="M131,-106.89C131,-97.6201 131,-87.0083 131,-79.3776"/>
<polygon fill="midnightblue" stroke="midnightblue" points="127.5,-106.897 131,-116.897 134.5,-106.897 127.5,-106.897"/>
</g>
</g>
</svg>
