<?xml version="1.0" encoding="UTF-8" standalone="no"?>
<!DOCTYPE svg PUBLIC "-//W3C//DTD SVG 1.1//EN"
 "http://www.w3.org/Graphics/SVG/1.1/DTD/svg11.dtd">
<!-- Generated by graphviz version 2.26.3 (20100126.1600)
 -->
<!-- Title: Transport Pages: 1 -->
<svg width="275pt" height="242pt"
 viewBox="0.00 0.00 275.00 242.00" xmlns="http://www.w3.org/2000/svg" xmlns:xlink="http://www.w3.org/1999/xlink">
<g id="graph1" class="graph" transform="scale(1 1) rotate(0) translate(4 238)">
<title>Transport</title>
<polygon fill="white" stroke="white" points="-4,5 -4,-238 272,-238 272,5 -4,5"/>
<!-- Node1 -->
<g id="node1" class="node"><title>Node1</title>
<polygon fill="#bfbfbf" stroke="black" points="171.5,-1 171.5,-21 228.5,-21 228.5,-1 171.5,-1"/>
<text text-anchor="middle" x="200" y="-8" font-family="FreeSans" font-size="10.00">Transport</text>
</g>
<!-- Node2 -->
<g id="node2" class="node"><title>Node2</title>
<a xlink:href="classCantera_1_1ThermoPhase.html" target="_top" xlink:title="Base class for a phase with thermodynamic properties. ">
<polygon fill="white" stroke="black" points="161.5,-71 161.5,-91 238.5,-91 238.5,-71 161.5,-71"/>
<text text-anchor="middle" x="200" y="-78" font-family="FreeSans" font-size="10.00">ThermoPhase</text>
</a>
</g>
<!-- Node2&#45;&gt;Node1 -->
<g id="edge2" class="edge"><title>Node2&#45;&gt;Node1</title>
<path fill="none" stroke="#9a32cd" stroke-dasharray="5,2" d="M200,-60.6126C200,-47.5971 200,-31.2956 200,-21.0107"/>
<polygon fill="#9a32cd" stroke="#9a32cd" points="196.5,-60.9707 200,-70.9707 203.5,-60.9707 196.5,-60.9707"/>
<text text-anchor="middle" x="223" y="-43" font-family="FreeSans" font-size="10.00"> m_thermo</text>
</g>
<!-- Node3 -->
<g id="node4" class="node"><title>Node3</title>
<a xlink:href="classCantera_1_1Phase.html" target="_top" xlink:title="Base class for phases of matter. ">
<polygon fill="white" stroke="black" points="117,-141 117,-161 161,-161 161,-141 117,-141"/>
<text text-anchor="middle" x="139" y="-148" font-family="FreeSans" font-size="10.00">Phase</text>
</a>
</g>
<!-- Node3&#45;&gt;Node2 -->
<g id="edge4" class="edge"><title>Node3&#45;&gt;Node2</title>
<path fill="none" stroke="midnightblue" d="M154.406,-133.321C166.073,-119.932 181.68,-102.023 191.276,-91.0107"/>
<polygon fill="midnightblue" stroke="midnightblue" points="151.671,-131.132 147.74,-140.971 156.948,-135.731 151.671,-131.132"/>
</g>
<!-- Node4 -->
<g id="node6" class="node"><title>Node4</title>
<a xlink:href="classCantera_1_1XML__Node.html" target="_top" xlink:title="Class XML_Node is a tree&#45;based representation of the contents of an XML file. ">
<polygon fill="white" stroke="black" points="-0.5,-212 -0.5,-232 64.5,-232 64.5,-212 -0.5,-212"/>
<text text-anchor="middle" x="32" y="-219" font-family="FreeSans" font-size="10.00">XML_Node</text>
</a>
</g>
<!-- Node4&#45;&gt;Node3 -->
<g id="edge6" class="edge"><title>Node4&#45;&gt;Node3</title>
<path fill="none" stroke="#9a32cd" stroke-dasharray="5,2" d="M55.8965,-206.143C76.6197,-192.393 105.992,-172.903 123.698,-161.154"/>
<polygon fill="#9a32cd" stroke="#9a32cd" points="53.7278,-203.382 47.3305,-211.827 57.5981,-209.215 53.7278,-203.382"/>
<text text-anchor="middle" x="111.5" y="-183" font-family="FreeSans" font-size="10.00"> m_xml</text>
</g>
<!-- Node4&#45;&gt;Node4 -->
<g id="edge8" class="edge"><title>Node4&#45;&gt;Node4</title>
<path fill="none" stroke="#9a32cd" stroke-dasharray="5,2" d="M74.791,-227.564C79.1888,-226.468 82,-224.614 82,-222 82,-217.711 74.4296,-215.466 64.7005,-215.265"/>
<polygon fill="#9a32cd" stroke="#9a32cd" points="74.2302,-224.105 64.7005,-228.735 75.0374,-231.059 74.2302,-224.105"/>
<text text-anchor="middle" x="102.5" y="-225" font-family="FreeSans" font-size="10.00"> m_root</text>
<text text-anchor="middle" x="102.5" y="-213" font-family="FreeSans" font-size="10.00">m_parent</text>
</g>
<!-- Node5 -->
<g id="node9" class="node"><title>Node5</title>
<a xlink:href="classCantera_1_1ValueCache.html" target="_top" xlink:title="ValueCache">
<polygon fill="white" stroke="black" points="141,-212 141,-232 209,-232 209,-212 141,-212"/>
<text text-anchor="middle" x="175" y="-219" font-family="FreeSans" font-size="10.00">ValueCache</text>
</a>
</g>
<!-- Node5&#45;&gt;Node3 -->
<g id="edge10" class="edge"><title>Node5&#45;&gt;Node3</title>
<path fill="none" stroke="#9a32cd" stroke-dasharray="5,2" d="M165.318,-202.905C158.504,-189.466 149.651,-172.007 144.148,-161.154"/>
<polygon fill="#9a32cd" stroke="#9a32cd" points="162.198,-204.491 169.842,-211.827 168.441,-201.326 162.198,-204.491"/>
<text text-anchor="middle" x="181.5" y="-183" font-family="FreeSans" font-size="10.00"> m_cache</text>
</g>
<!-- Node6 -->
<g id="node11" class="node"><title>Node6</title>
<a xlink:href="classCantera_1_1SpeciesThermo.html" target="_top" xlink:title="Pure Virtual base class for the species thermo manager classes. ">
<polygon fill="white" stroke="black" points="179,-141 179,-161 263,-161 263,-141 179,-141"/>
<text text-anchor="middle" x="221" y="-148" font-family="FreeSans" font-size="10.00">SpeciesThermo</text>
</a>
</g>
<!-- Node6&#45;&gt;Node2 -->
<g id="edge12" class="edge"><title>Node6&#45;&gt;Node2</title>
<path fill="none" stroke="#9a32cd" stroke-dasharray="5,2" d="M215.002,-131.006C211.078,-117.927 206.12,-101.399 203.003,-91.0107"/>
<polygon fill="#9a32cd" stroke="#9a32cd" points="211.765,-132.398 217.991,-140.971 218.47,-130.387 211.765,-132.398"/>
<text text-anchor="middle" x="239" y="-113" font-family="FreeSans" font-size="10.00"> m_spthermo</text>
</g>
</g>
</svg>
