<?xml version="1.0" encoding="UTF-8" standalone="no"?>
<!DOCTYPE svg PUBLIC "-//W3C//DTD SVG 1.1//EN"
 "http://www.w3.org/Graphics/SVG/1.1/DTD/svg11.dtd">
<!-- Generated by graphviz version 2.38.0 (20151222.1943)
 -->
<!-- Title: ReactingSurf1D Pages: 1 -->
<svg width="1121pt" height="478pt"
 viewBox="0.00 0.00 1121.00 478.00" xmlns="http://www.w3.org/2000/svg" xmlns:xlink="http://www.w3.org/1999/xlink">
<g id="graph0" class="graph" transform="scale(1 1) rotate(0) translate(4 474)">
<title>ReactingSurf1D</title>
<polygon fill="white" stroke="none" points="-4,4 -4,-474 1117,-474 1117,4 -4,4"/>
<!-- Node1 -->
<g id="node1" class="node"><title>Node1</title>
<polygon fill="#bfbfbf" stroke="black" points="1028,-241.5 1028,-260.5 1113,-260.5 1113,-241.5 1028,-241.5"/>
<text text-anchor="middle" x="1070.5" y="-248.5" font-family="FreeSans" font-size="10.00">ReactingSurf1D</text>
</g>
<!-- Node2 -->
<g id="node2" class="node"><title>Node2</title>
<g id="a_node2"><a xlink:href="classCantera_1_1Bdry1D.html" target="_top" xlink:title="The base class for boundaries between one&#45;dimensional spatial domains. ">
<polygon fill="white" stroke="black" points="943,-187.5 943,-206.5 991,-206.5 991,-187.5 943,-187.5"/>
<text text-anchor="middle" x="967" y="-194.5" font-family="FreeSans" font-size="10.00">Bdry1D</text>
</a>
</g>
</g>
<!-- Node2&#45;&gt;Node1 -->
<g id="edge1" class="edge"><title>Node2&#45;&gt;Node1</title>
<path fill="none" stroke="midnightblue" d="M995.462,-211.61C1013.27,-221.086 1035.97,-233.162 1051.51,-241.429"/>
<polygon fill="midnightblue" stroke="midnightblue" points="996.618,-208.261 986.146,-206.654 993.331,-214.441 996.618,-208.261"/>
</g>
<!-- Node3 -->
<g id="node3" class="node"><title>Node3</title>
<g id="a_node3"><a xlink:href="classCantera_1_1Domain1D.html" target="_top" xlink:title="Base class for one&#45;dimensional domains. ">
<polygon fill="white" stroke="black" points="546.5,-67.5 546.5,-86.5 608.5,-86.5 608.5,-67.5 546.5,-67.5"/>
<text text-anchor="middle" x="577.5" y="-74.5" font-family="FreeSans" font-size="10.00">Domain1D</text>
</a>
</g>
</g>
<!-- Node3&#45;&gt;Node2 -->
<g id="edge2" class="edge"><title>Node3&#45;&gt;Node2</title>
<path fill="none" stroke="midnightblue" d="M618.815,-79.2404C652.919,-81.8642 702.827,-87.4283 745,-99 824.938,-120.934 913.071,-167.353 949.176,-187.423"/>
<polygon fill="midnightblue" stroke="midnightblue" points="618.991,-75.744 608.765,-78.5171 618.488,-82.7259 618.991,-75.744"/>
</g>
<!-- Node3&#45;&gt;Node3 -->
<g id="edge3" class="edge"><title>Node3&#45;&gt;Node3</title>
<path fill="none" stroke="#9a32cd" stroke-dasharray="5,2" d="M553.319,-96.0292C554.638,-101.128 562.698,-105 577.5,-105 600.605,-105 607.284,-95.5653 597.537,-86.7571"/>
<polygon fill="#9a32cd" stroke="#9a32cd" points="556.578,-97.3148 557.463,-86.7571 550.187,-94.4582 556.578,-97.3148"/>
<text text-anchor="middle" x="577.5" y="-119" font-family="FreeSans" font-size="10.00"> m_left</text>
<text text-anchor="middle" x="577.5" y="-108" font-family="FreeSans" font-size="10.00">m_right</text>
</g>
<!-- Node11 -->
<g id="node11" class="node"><title>Node11</title>
<g id="a_node11"><a xlink:href="classCantera_1_1StFlow.html" target="_top" xlink:title="This class represents 1D flow domains that satisfy the one&#45;dimensional similarity solution for chemic...">
<polygon fill="white" stroke="black" points="784,-159.5 784,-178.5 831,-178.5 831,-159.5 784,-159.5"/>
<text text-anchor="middle" x="807.5" y="-166.5" font-family="FreeSans" font-size="10.00">StFlow</text>
</a>
</g>
</g>
<!-- Node3&#45;&gt;Node11 -->
<g id="edge14" class="edge"><title>Node3&#45;&gt;Node11</title>
<path fill="none" stroke="midnightblue" d="M618.809,-85.8514C653.306,-94.238 703.779,-108.462 745,-128 763.321,-136.684 782.454,-150.266 794.417,-159.393"/>
<polygon fill="midnightblue" stroke="midnightblue" points="619.182,-82.3427 608.644,-83.4367 617.564,-89.1532 619.182,-82.3427"/>
</g>
<!-- Node4 -->
<g id="node4" class="node"><title>Node4</title>
<g id="a_node4"><a xlink:href="classCantera_1_1OneDim.html" target="_top" xlink:title="Container class for multiple&#45;domain 1D problems. ">
<polygon fill="white" stroke="black" points="335.5,-52.5 335.5,-71.5 387.5,-71.5 387.5,-52.5 335.5,-52.5"/>
<text text-anchor="middle" x="361.5" y="-59.5" font-family="FreeSans" font-size="10.00">OneDim</text>
</a>
</g>
</g>
<!-- Node4&#45;&gt;Node3 -->
<g id="edge4" class="edge"><title>Node4&#45;&gt;Node3</title>
<path fill="none" stroke="#9a32cd" stroke-dasharray="5,2" d="M398.082,-64.4941C439.546,-67.4004 507.34,-72.1523 546.332,-74.8854"/>
<polygon fill="#9a32cd" stroke="#9a32cd" points="398.109,-60.9875 387.889,-63.7796 397.62,-67.9703 398.109,-60.9875"/>
<text text-anchor="middle" x="446" y="-73" font-family="FreeSans" font-size="10.00"> m_container</text>
</g>
<!-- Node15 -->
<g id="node15" class="node"><title>Node15</title>
<g id="a_node15"><a xlink:href="classCantera_1_1MultiJac.html" target="_top" xlink:title="Class MultiJac evaluates the Jacobian of a system of equations defined by a residual function supplie...">
<polygon fill="white" stroke="black" points="551,-29.5 551,-48.5 604,-48.5 604,-29.5 551,-29.5"/>
<text text-anchor="middle" x="577.5" y="-36.5" font-family="FreeSans" font-size="10.00">MultiJac</text>
</a>
</g>
</g>
<!-- Node4&#45;&gt;Node15 -->
<g id="edge22" class="edge"><title>Node4&#45;&gt;Node15</title>
<path fill="none" stroke="#9a32cd" stroke-dasharray="5,2" d="M397.773,-55.1179C404.472,-53.9604 411.438,-52.8582 418,-52 464.677,-45.8951 519.486,-42.1556 550.89,-40.3387"/>
<polygon fill="#9a32cd" stroke="#9a32cd" points="396.784,-51.7396 387.562,-56.9552 398.023,-58.6289 396.784,-51.7396"/>
<text text-anchor="middle" x="446" y="-55" font-family="FreeSans" font-size="10.00"> m_resid</text>
</g>
<!-- Node5 -->
<g id="node5" class="node"><title>Node5</title>
<g id="a_node5"><a xlink:href="classCantera_1_1Func1.html" target="_top" xlink:title="Base class for &#39;functor&#39; classes that evaluate a function of one variable. ">
<polygon fill="white" stroke="black" points="167,-52.5 167,-71.5 211,-71.5 211,-52.5 167,-52.5"/>
<text text-anchor="middle" x="189" y="-59.5" font-family="FreeSans" font-size="10.00">Func1</text>
</a>
</g>
</g>
<!-- Node5&#45;&gt;Node4 -->
<g id="edge5" class="edge"><title>Node5&#45;&gt;Node4</title>
<path fill="none" stroke="#9a32cd" stroke-dasharray="5,2" d="M221.646,-62C254.485,-62 305.18,-62 335.376,-62"/>
<polygon fill="#9a32cd" stroke="#9a32cd" points="221.249,-58.5001 211.249,-62 221.249,-65.5001 221.249,-58.5001"/>
<text text-anchor="middle" x="277" y="-65" font-family="FreeSans" font-size="10.00"> m_interrupt</text>
</g>
<!-- Node5&#45;&gt;Node5 -->
<g id="edge6" class="edge"><title>Node5&#45;&gt;Node5</title>
<path fill="none" stroke="#9a32cd" stroke-dasharray="5,2" d="M174.268,-81.7663C175.425,-86.4965 180.335,-90 189,-90 203.219,-90 207.329,-80.5653 201.33,-71.7571"/>
<polygon fill="#9a32cd" stroke="#9a32cd" points="177.739,-82.2978 176.67,-71.7571 170.933,-80.6641 177.739,-82.2978"/>
<text text-anchor="middle" x="189" y="-115" font-family="FreeSans" font-size="10.00"> m_f1</text>
<text text-anchor="middle" x="189" y="-104" font-family="FreeSans" font-size="10.00">m_f2</text>
<text text-anchor="middle" x="189" y="-93" font-family="FreeSans" font-size="10.00">m_parent</text>
</g>
<!-- Node6 -->
<g id="node6" class="node"><title>Node6</title>
<g id="a_node6"><a xlink:href="classCantera_1_1ThermoPhase.html" target="_top" xlink:title="Base class for a phase with thermodynamic properties. ">
<polygon fill="white" stroke="black" points="323,-267.5 323,-286.5 400,-286.5 400,-267.5 323,-267.5"/>
<text text-anchor="middle" x="361.5" y="-274.5" font-family="FreeSans" font-size="10.00">ThermoPhase</text>
</a>
</g>
</g>
<!-- Node6&#45;&gt;Node2 -->
<g id="edge7" class="edge"><title>Node6&#45;&gt;Node2</title>
<path fill="none" stroke="#9a32cd" stroke-dasharray="5,2" d="M406.164,-288.792C410.147,-289.632 414.136,-290.387 418,-291 450.557,-296.163 459.055,-294.888 492,-296 588.341,-299.251 845.51,-324.529 925,-270 947.415,-254.624 958.96,-222.76 963.555,-206.7"/>
<polygon fill="#9a32cd" stroke="#9a32cd" points="406.874,-285.364 396.347,-286.564 405.325,-292.19 406.874,-285.364"/>
<text text-anchor="middle" x="713" y="-318" font-family="FreeSans" font-size="10.00"> m_phase_left</text>
<text text-anchor="middle" x="713" y="-307" font-family="FreeSans" font-size="10.00">m_phase_right</text>
</g>
<!-- Node12 -->
<g id="node12" class="node"><title>Node12</title>
<g id="a_node12"><a xlink:href="classCantera_1_1Transport.html" target="_top" xlink:title="Base class for transport property managers. ">
<polygon fill="white" stroke="black" points="549,-145.5 549,-164.5 606,-164.5 606,-145.5 549,-145.5"/>
<text text-anchor="middle" x="577.5" y="-152.5" font-family="FreeSans" font-size="10.00">Transport</text>
</a>
</g>
</g>
<!-- Node6&#45;&gt;Node12 -->
<g id="edge16" class="edge"><title>Node6&#45;&gt;Node12</title>
<path fill="none" stroke="#9a32cd" stroke-dasharray="5,2" d="M378.738,-259.947C401.73,-236.845 446.109,-195.973 492,-174 509.902,-165.429 531.808,-160.645 548.83,-158.022"/>
<polygon fill="#9a32cd" stroke="#9a32cd" points="376.02,-257.721 371.53,-267.317 381.024,-262.615 376.02,-257.721"/>
<text text-anchor="middle" x="446" y="-224" font-family="FreeSans" font-size="10.00"> m_thermo</text>
</g>
<!-- Node17 -->
<g id="node17" class="node"><title>Node17</title>
<g id="a_node17"><a xlink:href="classCantera_1_1IdealGasPhase.html" target="_top" xlink:title="Class IdealGasPhase represents low&#45;density gases that obey the ideal gas equation of state...">
<polygon fill="white" stroke="black" points="536.5,-224.5 536.5,-243.5 618.5,-243.5 618.5,-224.5 536.5,-224.5"/>
<text text-anchor="middle" x="577.5" y="-231.5" font-family="FreeSans" font-size="10.00">IdealGasPhase</text>
</a>
</g>
</g>
<!-- Node6&#45;&gt;Node17 -->
<g id="edge24" class="edge"><title>Node6&#45;&gt;Node17</title>
<path fill="none" stroke="midnightblue" d="M410.534,-267.348C448.374,-259.745 500.52,-249.267 536.203,-242.097"/>
<polygon fill="midnightblue" stroke="midnightblue" points="409.381,-264.01 400.266,-269.411 410.76,-270.873 409.381,-264.01"/>
</g>
<!-- Node18 -->
<g id="node18" class="node"><title>Node18</title>
<g id="a_node18"><a xlink:href="classCantera_1_1SurfPhase.html" target="_top" xlink:title="A simple thermodynamic model for a surface phase, assuming an ideal solution model. ">
<polygon fill="white" stroke="black" points="546.5,-267.5 546.5,-286.5 608.5,-286.5 608.5,-267.5 546.5,-267.5"/>
<text text-anchor="middle" x="577.5" y="-274.5" font-family="FreeSans" font-size="10.00">SurfPhase</text>
</a>
</g>
</g>
<!-- Node6&#45;&gt;Node18 -->
<g id="edge26" class="edge"><title>Node6&#45;&gt;Node18</title>
<path fill="none" stroke="midnightblue" d="M410.449,-277C452.069,-277 511.044,-277 546.361,-277"/>
<polygon fill="midnightblue" stroke="midnightblue" points="410.266,-273.5 400.266,-277 410.266,-280.5 410.266,-273.5"/>
</g>
<!-- Node7 -->
<g id="node7" class="node"><title>Node7</title>
<g id="a_node7"><a xlink:href="classCantera_1_1Phase.html" target="_top" xlink:title="Class Phase is the base class for phases of matter, managing the species and elements in a phase...">
<polygon fill="white" stroke="black" points="167,-267.5 167,-286.5 211,-286.5 211,-267.5 167,-267.5"/>
<text text-anchor="middle" x="189" y="-274.5" font-family="FreeSans" font-size="10.00">Phase</text>
</a>
</g>
</g>
<!-- Node7&#45;&gt;Node6 -->
<g id="edge8" class="edge"><title>Node7&#45;&gt;Node6</title>
<path fill="none" stroke="midnightblue" d="M221.488,-277C250.084,-277 292.315,-277 322.72,-277"/>
<polygon fill="midnightblue" stroke="midnightblue" points="221.249,-273.5 211.249,-277 221.249,-280.5 221.249,-273.5"/>
</g>
<!-- Node8 -->
<g id="node8" class="node"><title>Node8</title>
<g id="a_node8"><a xlink:href="classCantera_1_1XML__Node.html" target="_top" xlink:title="Class XML_Node is a tree&#45;based representation of the contents of an XML file. ">
<polygon fill="white" stroke="black" points="1.5,-267.5 1.5,-286.5 66.5,-286.5 66.5,-267.5 1.5,-267.5"/>
<text text-anchor="middle" x="34" y="-274.5" font-family="FreeSans" font-size="10.00">XML_Node</text>
</a>
</g>
</g>
<!-- Node8&#45;&gt;Node7 -->
<g id="edge9" class="edge"><title>Node8&#45;&gt;Node7</title>
<path fill="none" stroke="#9a32cd" stroke-dasharray="5,2" d="M76.989,-277C106.059,-277 143.541,-277 166.663,-277"/>
<polygon fill="#9a32cd" stroke="#9a32cd" points="76.7017,-273.5 66.7017,-277 76.7017,-280.5 76.7017,-273.5"/>
<text text-anchor="middle" x="107.5" y="-280" font-family="FreeSans" font-size="10.00"> m_xml</text>
</g>
<!-- Node8&#45;&gt;Node8 -->
<g id="edge10" class="edge"><title>Node8&#45;&gt;Node8</title>
<path fill="none" stroke="#9a32cd" stroke-dasharray="5,2" d="M20.7408,-296.766C21.7822,-301.497 26.2019,-305 34,-305 46.7969,-305 50.496,-295.565 45.0973,-286.757"/>
<polygon fill="#9a32cd" stroke="#9a32cd" points="24.2125,-297.271 22.9027,-286.757 17.3703,-295.793 24.2125,-297.271"/>
<text text-anchor="middle" x="34" y="-319" font-family="FreeSans" font-size="10.00"> m_root</text>
<text text-anchor="middle" x="34" y="-308" font-family="FreeSans" font-size="10.00">m_parent</text>
</g>
<!-- Node9 -->
<g id="node9" class="node"><title>Node9</title>
<g id="a_node9"><a xlink:href="classCantera_1_1ValueCache.html" target="_top" xlink:title="ValueCache">
<polygon fill="white" stroke="black" points="0,-346.5 0,-365.5 68,-365.5 68,-346.5 0,-346.5"/>
<text text-anchor="middle" x="34" y="-353.5" font-family="FreeSans" font-size="10.00">ValueCache</text>
</a>
</g>
</g>
<!-- Node9&#45;&gt;Node7 -->
<g id="edge11" class="edge"><title>Node9&#45;&gt;Node7</title>
<path fill="none" stroke="#9a32cd" stroke-dasharray="5,2" d="M61.2516,-341.382C83.8076,-328.955 117.295,-310.824 147,-296 153.318,-292.847 160.261,-289.563 166.609,-286.629"/>
<polygon fill="#9a32cd" stroke="#9a32cd" points="59.3555,-338.431 52.297,-346.332 62.7421,-344.557 59.3555,-338.431"/>
<text text-anchor="middle" x="107.5" y="-329" font-family="FreeSans" font-size="10.00"> m_cache</text>
</g>
<!-- Node13 -->
<g id="node13" class="node"><title>Node13</title>
<g id="a_node13"><a xlink:href="classCantera_1_1Kinetics.html" target="_top" xlink:title="Public interface for kinetics managers. ">
<polygon fill="white" stroke="black" points="552,-353.5 552,-372.5 603,-372.5 603,-353.5 552,-353.5"/>
<text text-anchor="middle" x="577.5" y="-360.5" font-family="FreeSans" font-size="10.00">Kinetics</text>
</a>
</g>
</g>
<!-- Node9&#45;&gt;Node13 -->
<g id="edge18" class="edge"><title>Node9&#45;&gt;Node13</title>
<path fill="none" stroke="#9a32cd" stroke-dasharray="5,2" d="M78.3037,-356.56C186.73,-357.961 467.251,-361.588 551.936,-362.682"/>
<polygon fill="#9a32cd" stroke="#9a32cd" points="78.1026,-353.057 68.0581,-356.427 78.012,-360.056 78.1026,-353.057"/>
<text text-anchor="middle" x="277" y="-362" font-family="FreeSans" font-size="10.00"> m_cache</text>
</g>
<!-- Node10 -->
<g id="node10" class="node"><title>Node10</title>
<g id="a_node10"><a xlink:href="classCantera_1_1SpeciesThermo.html" target="_top" xlink:title="Pure Virtual base class for the species thermo manager classes. ">
<polygon fill="white" stroke="black" points="147,-305.5 147,-324.5 231,-324.5 231,-305.5 147,-305.5"/>
<text text-anchor="middle" x="189" y="-312.5" font-family="FreeSans" font-size="10.00">SpeciesThermo</text>
</a>
</g>
</g>
<!-- Node10&#45;&gt;Node6 -->
<g id="edge12" class="edge"><title>Node10&#45;&gt;Node6</title>
<path fill="none" stroke="#9a32cd" stroke-dasharray="5,2" d="M240.923,-304.844C260.937,-300.73 284.087,-295.818 305,-291 311.004,-289.617 317.355,-288.083 323.533,-286.551"/>
<polygon fill="#9a32cd" stroke="#9a32cd" points="240.169,-301.426 231.073,-306.857 241.571,-308.284 240.169,-301.426"/>
<text text-anchor="middle" x="277" y="-305" font-family="FreeSans" font-size="10.00"> m_spthermo</text>
</g>
<!-- Node11&#45;&gt;Node2 -->
<g id="edge13" class="edge"><title>Node11&#45;&gt;Node2</title>
<path fill="none" stroke="#9a32cd" stroke-dasharray="5,2" d="M841.179,-174.81C871.585,-180.215 916.124,-188.133 942.964,-192.905"/>
<polygon fill="#9a32cd" stroke="#9a32cd" points="841.524,-171.316 831.066,-173.012 840.299,-178.208 841.524,-171.316"/>
<text text-anchor="middle" x="897.5" y="-203" font-family="FreeSans" font-size="10.00"> m_flow_left</text>
<text text-anchor="middle" x="897.5" y="-192" font-family="FreeSans" font-size="10.00">m_flow_right</text>
</g>
<!-- Node12&#45;&gt;Node11 -->
<g id="edge15" class="edge"><title>Node12&#45;&gt;Node11</title>
<path fill="none" stroke="#9a32cd" stroke-dasharray="5,2" d="M616.061,-146.33C635.353,-142.313 659.307,-137.994 681,-136 709.325,-133.397 717.414,-129.066 745,-136 762.862,-140.49 781.194,-151.282 793.141,-159.309"/>
<polygon fill="#9a32cd" stroke="#9a32cd" points="615.196,-142.936 606.151,-148.452 616.662,-149.781 615.196,-142.936"/>
<text text-anchor="middle" x="713" y="-139" font-family="FreeSans" font-size="10.00"> m_trans</text>
</g>
<!-- Node13&#45;&gt;Node11 -->
<g id="edge17" class="edge"><title>Node13&#45;&gt;Node11</title>
<path fill="none" stroke="#9a32cd" stroke-dasharray="5,2" d="M613.58,-362.556C656.358,-361.315 725.396,-356.833 745,-341 797.303,-298.758 805.155,-208.523 806.309,-178.753"/>
<polygon fill="#9a32cd" stroke="#9a32cd" points="613.227,-359.063 603.316,-362.807 613.398,-366.061 613.227,-359.063"/>
<text text-anchor="middle" x="713" y="-360" font-family="FreeSans" font-size="10.00"> m_kin</text>
</g>
<!-- Node19 -->
<g id="node19" class="node"><title>Node19</title>
<g id="a_node19"><a xlink:href="classCantera_1_1InterfaceKinetics.html" target="_top" xlink:title="A kinetics manager for heterogeneous reaction mechanisms. ">
<polygon fill="white" stroke="black" points="763,-379.5 763,-398.5 852,-398.5 852,-379.5 763,-379.5"/>
<text text-anchor="middle" x="807.5" y="-386.5" font-family="FreeSans" font-size="10.00">InterfaceKinetics</text>
</a>
</g>
</g>
<!-- Node13&#45;&gt;Node19 -->
<g id="edge28" class="edge"><title>Node13&#45;&gt;Node19</title>
<path fill="none" stroke="midnightblue" d="M613.458,-367.14C633.27,-369.475 658.518,-372.43 681,-375 708.227,-378.112 738.787,-381.523 762.933,-384.199"/>
<polygon fill="midnightblue" stroke="midnightblue" points="613.692,-363.644 603.35,-365.948 612.871,-370.596 613.692,-363.644"/>
</g>
<!-- Node14 -->
<g id="node14" class="node"><title>Node14</title>
<g id="a_node14"><a xlink:href="classCantera_1_1Array2D.html" target="_top" xlink:title="A class for 2D arrays stored in column&#45;major (Fortran&#45;compatible) form. ">
<polygon fill="white" stroke="black" points="552,-183.5 552,-202.5 603,-202.5 603,-183.5 552,-183.5"/>
<text text-anchor="middle" x="577.5" y="-190.5" font-family="FreeSans" font-size="10.00">Array2D</text>
</a>
</g>
</g>
<!-- Node14&#45;&gt;Node11 -->
<g id="edge19" class="edge"><title>Node14&#45;&gt;Node11</title>
<path fill="none" stroke="#9a32cd" stroke-dasharray="5,2" d="M613.2,-185.191C642.764,-178.542 680.559,-170.051 681,-170 716.717,-165.898 758.528,-166.668 783.74,-167.734"/>
<polygon fill="#9a32cd" stroke="#9a32cd" points="612.149,-181.84 603.161,-187.45 613.685,-188.67 612.149,-181.84"/>
<text text-anchor="middle" x="713" y="-195" font-family="FreeSans" font-size="10.00"> m_dthermal</text>
<text text-anchor="middle" x="713" y="-184" font-family="FreeSans" font-size="10.00">m_wdot</text>
<text text-anchor="middle" x="713" y="-173" font-family="FreeSans" font-size="10.00">m_flux</text>
</g>
<!-- Node15&#45;&gt;Node11 -->
<g id="edge20" class="edge"><title>Node15&#45;&gt;Node11</title>
<path fill="none" stroke="#9a32cd" stroke-dasharray="5,2" d="M614.081,-42.3208C650.113,-47.2165 705.951,-59.1645 745,-88 771.845,-107.823 792.573,-142.526 801.584,-159.333"/>
<polygon fill="#9a32cd" stroke="#9a32cd" points="614.38,-38.8311 604.024,-41.0676 613.515,-45.7774 614.38,-38.8311"/>
<text text-anchor="middle" x="713" y="-91" font-family="FreeSans" font-size="10.00"> m_jac</text>
</g>
<!-- Node16 -->
<g id="node16" class="node"><title>Node16</title>
<g id="a_node16"><a xlink:href="classCantera_1_1BandMatrix.html" target="_top" xlink:title="A class for banded matrices, involving matrix inversion processes. ">
<polygon fill="white" stroke="red" points="329,-0.5 329,-19.5 394,-19.5 394,-0.5 329,-0.5"/>
<text text-anchor="middle" x="361.5" y="-7.5" font-family="FreeSans" font-size="10.00">BandMatrix</text>
</a>
</g>
</g>
<!-- Node16&#45;&gt;Node15 -->
<g id="edge21" class="edge"><title>Node16&#45;&gt;Node15</title>
<path fill="none" stroke="midnightblue" d="M404.058,-15.6317C447.556,-21.5263 514.479,-30.5952 550.839,-35.5226"/>
<polygon fill="midnightblue" stroke="midnightblue" points="404.456,-12.1537 394.076,-14.279 403.516,-19.0903 404.456,-12.1537"/>
</g>
<!-- Node17&#45;&gt;Node11 -->
<g id="edge23" class="edge"><title>Node17&#45;&gt;Node11</title>
<path fill="none" stroke="#9a32cd" stroke-dasharray="5,2" d="M628.856,-228.893C662.467,-224.457 707.254,-216.546 745,-203 761.995,-196.901 779.895,-186.49 791.973,-178.792"/>
<polygon fill="#9a32cd" stroke="#9a32cd" points="628.288,-225.437 618.804,-230.16 629.164,-232.382 628.288,-225.437"/>
<text text-anchor="middle" x="713" y="-223" font-family="FreeSans" font-size="10.00"> m_thermo</text>
</g>
<!-- Node18&#45;&gt;Node1 -->
<g id="edge25" class="edge"><title>Node18&#45;&gt;Node1</title>
<path fill="none" stroke="#9a32cd" stroke-dasharray="5,2" d="M618.957,-271.503C637.784,-269.14 660.5,-266.567 681,-265 807.011,-255.369 956.534,-252.337 1027.76,-251.403"/>
<polygon fill="#9a32cd" stroke="#9a32cd" points="618.411,-268.044 608.936,-272.786 619.3,-274.987 618.411,-268.044"/>
<text text-anchor="middle" x="897.5" y="-258" font-family="FreeSans" font-size="10.00"> m_sphase</text>
</g>
<!-- Node18&#45;&gt;Node19 -->
<g id="edge29" class="edge"><title>Node18&#45;&gt;Node19</title>
<path fill="none" stroke="#9a32cd" stroke-dasharray="5,2" d="M618.683,-268.824C654.455,-263.769 706.875,-262.023 745,-285 780.931,-306.655 798.257,-357.951 804.117,-379.356"/>
<polygon fill="#9a32cd" stroke="#9a32cd" points="617.946,-265.396 608.605,-270.397 619.026,-272.313 617.946,-265.396"/>
<text text-anchor="middle" x="713" y="-288" font-family="FreeSans" font-size="10.00"> m_surf</text>
</g>
<!-- Node19&#45;&gt;Node1 -->
<g id="edge27" class="edge"><title>Node19&#45;&gt;Node1</title>
<path fill="none" stroke="#9a32cd" stroke-dasharray="5,2" d="M838.04,-375.108C861.727,-363.835 895.731,-347.349 925,-332 972.119,-307.291 1026.6,-275.994 1053.19,-260.534"/>
<polygon fill="#9a32cd" stroke="#9a32cd" points="836.412,-372.007 828.877,-379.454 839.412,-378.331 836.412,-372.007"/>
<text text-anchor="middle" x="967" y="-325" font-family="FreeSans" font-size="10.00"> m_kin</text>
</g>
<!-- Node20 -->
<g id="node20" class="node"><title>Node20</title>
<g id="a_node20"><a xlink:href="classCantera_1_1Rate1.html" target="_top" xlink:title="Rate1\&lt; Cantera::SurfaceArrhenius \&gt;">
<polygon fill="white" stroke="black" points="492,-412.5 492,-431.5 663,-431.5 663,-412.5 492,-412.5"/>
<text text-anchor="middle" x="577.5" y="-419.5" font-family="FreeSans" font-size="10.00">Rate1&lt; Cantera::SurfaceArrhenius &gt;</text>
</a>
</g>
</g>
<!-- Node20&#45;&gt;Node19 -->
<g id="edge30" class="edge"><title>Node20&#45;&gt;Node19</title>
<path fill="none" stroke="#9a32cd" stroke-dasharray="5,2" d="M654.159,-411.049C690.274,-405.822 732.2,-399.754 762.915,-395.308"/>
<polygon fill="#9a32cd" stroke="#9a32cd" points="653.537,-407.603 644.141,-412.499 654.539,-414.531 653.537,-407.603"/>
<text text-anchor="middle" x="713" y="-409" font-family="FreeSans" font-size="10.00"> m_rates</text>
</g>
<!-- Node21 -->
<g id="node21" class="node"><title>Node21</title>
<g id="a_node21"><a xlink:href="classCantera_1_1ImplicitSurfChem.html" target="_top" xlink:title="Advances the surface coverages of the associated set of SurfacePhase objects in time. ">
<polygon fill="white" stroke="black" points="531.5,-450.5 531.5,-469.5 623.5,-469.5 623.5,-450.5 531.5,-450.5"/>
<text text-anchor="middle" x="577.5" y="-457.5" font-family="FreeSans" font-size="10.00">ImplicitSurfChem</text>
</a>
</g>
</g>
<!-- Node21&#45;&gt;Node19 -->
<g id="edge31" class="edge"><title>Node21&#45;&gt;Node19</title>
<path fill="none" stroke="#9a32cd" stroke-dasharray="5,2" d="M633.508,-450.832C666.47,-444.43 708.859,-434.583 745,-421 761.224,-414.903 778.655,-405.54 790.802,-398.514"/>
<polygon fill="#9a32cd" stroke="#9a32cd" points="632.772,-447.409 623.598,-452.708 634.074,-454.287 632.772,-447.409"/>
<text text-anchor="middle" x="713" y="-443" font-family="FreeSans" font-size="10.00"> m_integrator</text>
</g>
<!-- Node22 -->
<g id="node22" class="node"><title>Node22</title>
<g id="a_node22"><a xlink:href="classCantera_1_1FuncEval.html" target="_top" xlink:title="Virtual base class for ODE right&#45;hand&#45;side function evaluators. ">
<polygon fill="white" stroke="black" points="333.5,-450.5 333.5,-469.5 389.5,-469.5 389.5,-450.5 333.5,-450.5"/>
<text text-anchor="middle" x="361.5" y="-457.5" font-family="FreeSans" font-size="10.00">FuncEval</text>
</a>
</g>
</g>
<!-- Node22&#45;&gt;Node21 -->
<g id="edge32" class="edge"><title>Node22&#45;&gt;Node21</title>
<path fill="none" stroke="midnightblue" d="M399.844,-460C436.44,-460 492.262,-460 531.335,-460"/>
<polygon fill="midnightblue" stroke="midnightblue" points="399.603,-456.5 389.603,-460 399.603,-463.5 399.603,-456.5"/>
</g>
</g>
</svg>
