<?xml version="1.0" encoding="UTF-8" standalone="no"?>
<!DOCTYPE svg PUBLIC "-//W3C//DTD SVG 1.1//EN"
 "http://www.w3.org/Graphics/SVG/1.1/DTD/svg11.dtd">
<!-- Generated by graphviz version 2.38.0 (20140413.2041)
 -->
<!-- Title: FactoryBase Pages: 1 -->
<svg width="415pt" height="268pt"
 viewBox="0.00 0.00 415.00 267.50" xmlns="http://www.w3.org/2000/svg" xmlns:xlink="http://www.w3.org/1999/xlink">
<g id="graph0" class="graph" transform="scale(1 1) rotate(0) translate(4 263.5)">
<title>FactoryBase</title>
<polygon fill="white" stroke="none" points="-4,4 -4,-263.5 411,-263.5 411,4 -4,4"/>
<!-- Node1 -->
<g id="node1" class="node"><title>Node1</title>
<polygon fill="#bfbfbf" stroke="black" points="0,-126 0,-145 72,-145 72,-126 0,-126"/>
<text text-anchor="middle" x="36" y="-133" font-family="Helvetica,sans-Serif" font-size="10.00">FactoryBase</text>
</g>
<!-- Node2 -->
<g id="node2" class="node"><title>Node2</title>
<g id="a_node2"><a xlink:href="classCantera_1_1Factory.html" target="_top" xlink:title="Factory class that supports registering functions to create objects. ">
<polygon fill="white" stroke="black" points="143,-240 143,-259 243,-259 243,-240 143,-240"/>
<text text-anchor="middle" x="193" y="-247" font-family="Helvetica,sans-Serif" font-size="10.00">Factory&lt; T, Args &gt;</text>
</a>
</g>
</g>
<!-- Node1&#45;&gt;Node2 -->
<g id="edge1" class="edge"><title>Node1&#45;&gt;Node2</title>
<path fill="none" stroke="midnightblue" d="M45.8728,-154.316C57.1669,-176.137 78.7766,-211.532 108,-230.5 118.284,-237.175 130.598,-241.523 142.587,-244.35"/>
<polygon fill="midnightblue" stroke="midnightblue" points="48.8743,-152.49 41.2937,-145.089 42.6039,-155.602 48.8743,-152.49"/>
</g>
<!-- Node3 -->
<g id="node3" class="node"><title>Node3</title>
<g id="a_node3"><a xlink:href="classCantera_1_1Factory.html" target="_top" xlink:title="Factory\&lt; Falloff \&gt;">
<polygon fill="white" stroke="black" points="145.5,-202 145.5,-221 240.5,-221 240.5,-202 145.5,-202"/>
<text text-anchor="middle" x="193" y="-209" font-family="Helvetica,sans-Serif" font-size="10.00">Factory&lt; Falloff &gt;</text>
</a>
</g>
</g>
<!-- Node1&#45;&gt;Node3 -->
<g id="edge2" class="edge"><title>Node1&#45;&gt;Node3</title>
<path fill="none" stroke="midnightblue" d="M53.617,-152.54C67.1125,-165.402 87.2491,-182.49 108,-192.5 119.581,-198.087 132.861,-202.064 145.392,-204.883"/>
<polygon fill="midnightblue" stroke="midnightblue" points="55.7119,-149.692 46.1262,-145.179 50.8055,-154.685 55.7119,-149.692"/>
</g>
<!-- Node5 -->
<g id="node5" class="node"><title>Node5</title>
<g id="a_node5"><a xlink:href="classCantera_1_1Factory.html" target="_top" xlink:title="Factory\&lt; Kinetics \&gt;">
<polygon fill="white" stroke="black" points="141.5,-164 141.5,-183 244.5,-183 244.5,-164 141.5,-164"/>
<text text-anchor="middle" x="193" y="-171" font-family="Helvetica,sans-Serif" font-size="10.00">Factory&lt; Kinetics &gt;</text>
</a>
</g>
</g>
<!-- Node1&#45;&gt;Node5 -->
<g id="edge4" class="edge"><title>Node1&#45;&gt;Node5</title>
<path fill="none" stroke="midnightblue" d="M81.3388,-147.651C90.1561,-149.986 99.3591,-152.367 108,-154.5 121.065,-157.724 135.325,-161.03 148.326,-163.961"/>
<polygon fill="midnightblue" stroke="midnightblue" points="82.1627,-144.248 71.5982,-145.049 80.356,-151.011 82.1627,-144.248"/>
</g>
<!-- Node7 -->
<g id="node7" class="node"><title>Node7</title>
<g id="a_node7"><a xlink:href="classCantera_1_1Factory.html" target="_top" xlink:title="Factory\&lt; ReactorBase \&gt;">
<polygon fill="white" stroke="black" points="130.5,-126 130.5,-145 255.5,-145 255.5,-126 130.5,-126"/>
<text text-anchor="middle" x="193" y="-133" font-family="Helvetica,sans-Serif" font-size="10.00">Factory&lt; ReactorBase &gt;</text>
</a>
</g>
</g>
<!-- Node1&#45;&gt;Node7 -->
<g id="edge6" class="edge"><title>Node1&#45;&gt;Node7</title>
<path fill="none" stroke="midnightblue" d="M82.2575,-135.5C97.3352,-135.5 114.394,-135.5 130.491,-135.5"/>
<polygon fill="midnightblue" stroke="midnightblue" points="82.1719,-132 72.1719,-135.5 82.1719,-139 82.1719,-132"/>
</g>
<!-- Node8 -->
<g id="node8" class="node"><title>Node8</title>
<g id="a_node8"><a xlink:href="classCantera_1_1Factory.html" target="_top" xlink:title="Factory\&lt; ThermoPhase \&gt;">
<polygon fill="white" stroke="black" points="129,-88 129,-107 257,-107 257,-88 129,-88"/>
<text text-anchor="middle" x="193" y="-95" font-family="Helvetica,sans-Serif" font-size="10.00">Factory&lt; ThermoPhase &gt;</text>
</a>
</g>
</g>
<!-- Node1&#45;&gt;Node8 -->
<g id="edge7" class="edge"><title>Node1&#45;&gt;Node8</title>
<path fill="none" stroke="midnightblue" d="M81.3388,-123.349C90.1561,-121.014 99.3591,-118.633 108,-116.5 121.065,-113.276 135.325,-109.97 148.326,-107.039"/>
<polygon fill="midnightblue" stroke="midnightblue" points="80.356,-119.989 71.5982,-125.951 82.1627,-126.752 80.356,-119.989"/>
</g>
<!-- Node10 -->
<g id="node10" class="node"><title>Node10</title>
<g id="a_node10"><a xlink:href="classCantera_1_1Factory.html" target="_top" xlink:title="Factory\&lt; Transport \&gt;">
<polygon fill="white" stroke="black" points="138.5,-50 138.5,-69 247.5,-69 247.5,-50 138.5,-50"/>
<text text-anchor="middle" x="193" y="-57" font-family="Helvetica,sans-Serif" font-size="10.00">Factory&lt; Transport &gt;</text>
</a>
</g>
</g>
<!-- Node1&#45;&gt;Node10 -->
<g id="edge9" class="edge"><title>Node1&#45;&gt;Node10</title>
<path fill="none" stroke="midnightblue" d="M53.617,-118.46C67.1125,-105.598 87.2491,-88.5098 108,-78.5 117.427,-73.9527 127.979,-70.4716 138.336,-67.8137"/>
<polygon fill="midnightblue" stroke="midnightblue" points="50.8055,-116.315 46.1262,-125.821 55.7119,-121.308 50.8055,-116.315"/>
</g>
<!-- Node12 -->
<g id="node12" class="node"><title>Node12</title>
<g id="a_node12"><a xlink:href="classCantera_1_1Factory.html" target="_top" xlink:title="Factory\&lt; VPSSMgr, VPStandard\lStateTP *, MultiSpeciesThermo * \&gt;">
<polygon fill="white" stroke="black" points="108,-0.5 108,-30.5 278,-30.5 278,-0.5 108,-0.5"/>
<text text-anchor="start" x="116" y="-18.5" font-family="Helvetica,sans-Serif" font-size="10.00">Factory&lt; VPSSMgr, VPStandard</text>
<text text-anchor="middle" x="193" y="-7.5" font-family="Helvetica,sans-Serif" font-size="10.00">StateTP *, MultiSpeciesThermo * &gt;</text>
</a>
</g>
</g>
<!-- Node1&#45;&gt;Node12 -->
<g id="edge11" class="edge"><title>Node1&#45;&gt;Node12</title>
<path fill="none" stroke="midnightblue" d="M46.2739,-116.687C57.8304,-95.1604 79.5723,-60.3317 108,-40.5 113.491,-36.6695 119.575,-33.4173 125.888,-30.6576"/>
<polygon fill="midnightblue" stroke="midnightblue" points="43.0454,-115.311 41.5635,-125.802 49.264,-118.525 43.0454,-115.311"/>
</g>
<!-- Node4 -->
<g id="node4" class="node"><title>Node4</title>
<g id="a_node4"><a xlink:href="classCantera_1_1FalloffFactory.html" target="_top" xlink:title="Factory class to construct falloff function calculators. ">
<polygon fill="white" stroke="black" points="322,-202 322,-221 399,-221 399,-202 322,-202"/>
<text text-anchor="middle" x="360.5" y="-209" font-family="Helvetica,sans-Serif" font-size="10.00">FalloffFactory</text>
</a>
</g>
</g>
<!-- Node3&#45;&gt;Node4 -->
<g id="edge3" class="edge"><title>Node3&#45;&gt;Node4</title>
<path fill="none" stroke="midnightblue" d="M250.749,-211.5C274.266,-211.5 300.902,-211.5 321.927,-211.5"/>
<polygon fill="midnightblue" stroke="midnightblue" points="250.541,-208 240.541,-211.5 250.541,-215 250.541,-208"/>
</g>
<!-- Node6 -->
<g id="node6" class="node"><title>Node6</title>
<g id="a_node6"><a xlink:href="classCantera_1_1KineticsFactory.html" target="_top" xlink:title="Factory for kinetics managers. ">
<polygon fill="white" stroke="black" points="318,-164 318,-183 403,-183 403,-164 318,-164"/>
<text text-anchor="middle" x="360.5" y="-171" font-family="Helvetica,sans-Serif" font-size="10.00">KineticsFactory</text>
</a>
</g>
</g>
<!-- Node5&#45;&gt;Node6 -->
<g id="edge5" class="edge"><title>Node5&#45;&gt;Node6</title>
<path fill="none" stroke="midnightblue" d="M254.677,-173.5C275.685,-173.5 298.741,-173.5 317.868,-173.5"/>
<polygon fill="midnightblue" stroke="midnightblue" points="254.555,-170 244.555,-173.5 254.555,-177 254.555,-170"/>
</g>
<!-- Node9 -->
<g id="node9" class="node"><title>Node9</title>
<g id="a_node9"><a xlink:href="classCantera_1_1ThermoFactory.html" target="_top" xlink:title="Factory class for thermodynamic property managers. ">
<polygon fill="white" stroke="black" points="319,-88 319,-107 402,-107 402,-88 319,-88"/>
<text text-anchor="middle" x="360.5" y="-95" font-family="Helvetica,sans-Serif" font-size="10.00">ThermoFactory</text>
</a>
</g>
</g>
<!-- Node8&#45;&gt;Node9 -->
<g id="edge8" class="edge"><title>Node8&#45;&gt;Node9</title>
<path fill="none" stroke="midnightblue" d="M267.317,-97.5C284.927,-97.5 303.113,-97.5 318.631,-97.5"/>
<polygon fill="midnightblue" stroke="midnightblue" points="267.041,-94.0001 257.041,-97.5 267.041,-101 267.041,-94.0001"/>
</g>
<!-- Node11 -->
<g id="node11" class="node"><title>Node11</title>
<g id="a_node11"><a xlink:href="classCantera_1_1TransportFactory.html" target="_top" xlink:title="Factory class for creating new instances of classes derived from Transport. ">
<polygon fill="white" stroke="black" points="315,-50 315,-69 406,-69 406,-50 315,-50"/>
<text text-anchor="middle" x="360.5" y="-57" font-family="Helvetica,sans-Serif" font-size="10.00">TransportFactory</text>
</a>
</g>
</g>
<!-- Node10&#45;&gt;Node11 -->
<g id="edge10" class="edge"><title>Node10&#45;&gt;Node11</title>
<path fill="none" stroke="midnightblue" d="M257.842,-59.5C276.891,-59.5 297.352,-59.5 314.889,-59.5"/>
<polygon fill="midnightblue" stroke="midnightblue" points="257.733,-56.0001 247.733,-59.5 257.733,-63.0001 257.733,-56.0001"/>
</g>
<!-- Node13 -->
<g id="node13" class="node"><title>Node13</title>
<g id="a_node13"><a xlink:href="classCantera_1_1VPSSMgrFactory.html" target="_top" xlink:title="Factory to build instances of classes that manage the standard&#45;state thermodynamic properties of a se...">
<polygon fill="white" stroke="black" points="314,-6 314,-25 407,-25 407,-6 314,-6"/>
<text text-anchor="middle" x="360.5" y="-13" font-family="Helvetica,sans-Serif" font-size="10.00">VPSSMgrFactory</text>
</a>
</g>
</g>
<!-- Node12&#45;&gt;Node13 -->
<g id="edge12" class="edge"><title>Node12&#45;&gt;Node13</title>
<path fill="none" stroke="midnightblue" d="M288.26,-15.5C297.119,-15.5 305.798,-15.5 313.881,-15.5"/>
<polygon fill="midnightblue" stroke="midnightblue" points="288.205,-12.0001 278.205,-15.5 288.204,-19.0001 288.205,-12.0001"/>
</g>
</g>
</svg>
