<?xml version="1.0" encoding="UTF-8" standalone="no"?>
<!DOCTYPE svg PUBLIC "-//W3C//DTD SVG 1.1//EN"
 "http://www.w3.org/Graphics/SVG/1.1/DTD/svg11.dtd">
<!-- Generated by graphviz version 2.26.3 (20100126.1600)
 -->
<!-- Title: RedlichKwongMFTP Pages: 1 -->
<svg width="236pt" height="302pt"
 viewBox="0.00 0.00 236.00 302.00" xmlns="http://www.w3.org/2000/svg" xmlns:xlink="http://www.w3.org/1999/xlink">
<g id="graph1" class="graph" transform="scale(1 1) rotate(0) translate(4 298)">
<title>RedlichKwongMFTP</title>
<polygon fill="white" stroke="white" points="-4,5 -4,-298 233,-298 233,5 -4,5"/>
<!-- Node1 -->
<g id="node1" class="node"><title>Node1</title>
<polygon fill="#bfbfbf" stroke="black" points="109.5,-1 109.5,-21 214.5,-21 214.5,-1 109.5,-1"/>
<text text-anchor="middle" x="162" y="-8" font-family="FreeSans" font-size="10.00">RedlichKwongMFTP</text>
</g>
<!-- Node2 -->
<g id="node2" class="node"><title>Node2</title>
<a xlink:href="classCantera_1_1MixtureFugacityTP.html" target="_top" xlink:title="This is a filter class for ThermoPhase that implements some preparatory steps for efficiently handlin...">
<polygon fill="white" stroke="black" points="44,-71 44,-91 142,-91 142,-71 44,-71"/>
<text text-anchor="middle" x="93" y="-78" font-family="FreeSans" font-size="10.00">MixtureFugacityTP</text>
</a>
</g>
<!-- Node2&#45;&gt;Node1 -->
<g id="edge2" class="edge"><title>Node2&#45;&gt;Node1</title>
<path fill="none" stroke="midnightblue" d="M110.054,-63.6986C123.29,-50.2709 141.175,-32.1267 152.132,-21.0107"/>
<polygon fill="midnightblue" stroke="midnightblue" points="107.413,-61.3919 102.886,-70.9707 112.399,-66.3059 107.413,-61.3919"/>
</g>
<!-- Node3 -->
<g id="node4" class="node"><title>Node3</title>
<a xlink:href="classCantera_1_1ThermoPhase.html" target="_top" xlink:title="Base class for a phase with thermodynamic properties. ">
<polygon fill="white" stroke="black" points="54.5,-131 54.5,-151 131.5,-151 131.5,-131 54.5,-131"/>
<text text-anchor="middle" x="93" y="-138" font-family="FreeSans" font-size="10.00">ThermoPhase</text>
</a>
</g>
<!-- Node3&#45;&gt;Node2 -->
<g id="edge4" class="edge"><title>Node3&#45;&gt;Node2</title>
<path fill="none" stroke="midnightblue" d="M93,-120.516C93,-110.562 93,-99.0495 93,-91.0279"/>
<polygon fill="midnightblue" stroke="midnightblue" points="89.5001,-120.822 93,-130.822 96.5001,-120.822 89.5001,-120.822"/>
</g>
<!-- Node4 -->
<g id="node6" class="node"><title>Node4</title>
<a xlink:href="classCantera_1_1Phase.html" target="_top" xlink:title="Base class for phases of matter. ">
<polygon fill="white" stroke="black" points="10,-201 10,-221 54,-221 54,-201 10,-201"/>
<text text-anchor="middle" x="32" y="-208" font-family="FreeSans" font-size="10.00">Phase</text>
</a>
</g>
<!-- Node4&#45;&gt;Node3 -->
<g id="edge6" class="edge"><title>Node4&#45;&gt;Node3</title>
<path fill="none" stroke="midnightblue" d="M47.4061,-193.321C59.0732,-179.932 74.6801,-162.023 84.2764,-151.011"/>
<polygon fill="midnightblue" stroke="midnightblue" points="44.6709,-191.132 40.7398,-200.971 49.9483,-195.731 44.6709,-191.132"/>
</g>
<!-- Node5 -->
<g id="node8" class="node"><title>Node5</title>
<a xlink:href="classCantera_1_1XML__Node.html" target="_top" xlink:title="Class XML_Node is a tree&#45;based representation of the contents of an XML file. ">
<polygon fill="white" stroke="black" points="-0.5,-272 -0.5,-292 64.5,-292 64.5,-272 -0.5,-272"/>
<text text-anchor="middle" x="32" y="-279" font-family="FreeSans" font-size="10.00">XML_Node</text>
</a>
</g>
<!-- Node5&#45;&gt;Node4 -->
<g id="edge8" class="edge"><title>Node5&#45;&gt;Node4</title>
<path fill="none" stroke="#9a32cd" stroke-dasharray="5,2" d="M32,-261.72C32,-248.455 32,-231.691 32,-221.154"/>
<polygon fill="#9a32cd" stroke="#9a32cd" points="28.5001,-261.827 32,-271.827 35.5001,-261.827 28.5001,-261.827"/>
<text text-anchor="middle" x="47.5" y="-243" font-family="FreeSans" font-size="10.00"> m_xml</text>
</g>
<!-- Node5&#45;&gt;Node5 -->
<g id="edge10" class="edge"><title>Node5&#45;&gt;Node5</title>
<path fill="none" stroke="#9a32cd" stroke-dasharray="5,2" d="M74.791,-287.564C79.1888,-286.468 82,-284.614 82,-282 82,-277.711 74.4296,-275.466 64.7005,-275.265"/>
<polygon fill="#9a32cd" stroke="#9a32cd" points="74.2302,-284.105 64.7005,-288.735 75.0374,-291.059 74.2302,-284.105"/>
<text text-anchor="middle" x="102.5" y="-285" font-family="FreeSans" font-size="10.00"> m_root</text>
<text text-anchor="middle" x="102.5" y="-273" font-family="FreeSans" font-size="10.00">m_parent</text>
</g>
<!-- Node6 -->
<g id="node11" class="node"><title>Node6</title>
<a xlink:href="classCantera_1_1SpeciesThermo.html" target="_top" xlink:title="Pure Virtual base class for the species thermo manager classes. ">
<polygon fill="white" stroke="black" points="72,-201 72,-221 156,-221 156,-201 72,-201"/>
<text text-anchor="middle" x="114" y="-208" font-family="FreeSans" font-size="10.00">SpeciesThermo</text>
</a>
</g>
<!-- Node6&#45;&gt;Node3 -->
<g id="edge12" class="edge"><title>Node6&#45;&gt;Node3</title>
<path fill="none" stroke="#9a32cd" stroke-dasharray="5,2" d="M108.002,-191.006C104.078,-177.927 99.1198,-161.399 96.0032,-151.011"/>
<polygon fill="#9a32cd" stroke="#9a32cd" points="104.765,-192.398 110.991,-200.971 111.47,-190.387 104.765,-192.398"/>
<text text-anchor="middle" x="133" y="-173" font-family="FreeSans" font-size="10.00"> m_spthermo</text>
</g>
<!-- Node7 -->
<g id="node13" class="node"><title>Node7</title>
<a xlink:href="classCantera_1_1Array2D.html" target="_top" xlink:title="A class for 2D arrays stored in column&#45;major (Fortran&#45;compatible) form. ">
<polygon fill="white" stroke="black" points="159.5,-71 159.5,-91 210.5,-91 210.5,-71 159.5,-71"/>
<text text-anchor="middle" x="185" y="-78" font-family="FreeSans" font-size="10.00">Array2D</text>
</a>
</g>
<!-- Node7&#45;&gt;Node1 -->
<g id="edge14" class="edge"><title>Node7&#45;&gt;Node1</title>
<path fill="none" stroke="#9a32cd" stroke-dasharray="5,2" d="M178.559,-61.3973C174.242,-48.2582 168.737,-31.5033 165.289,-21.0107"/>
<polygon fill="#9a32cd" stroke="#9a32cd" points="175.258,-62.5629 181.705,-70.9707 181.908,-60.3778 175.258,-62.5629"/>
<text text-anchor="middle" x="201" y="-43" font-family="FreeSans" font-size="10.00"> a_coeff_vec</text>
</g>
</g>
</svg>
