<?xml version="1.0" encoding="UTF-8" standalone="no"?>
<!DOCTYPE svg PUBLIC "-//W3C//DTD SVG 1.1//EN"
 "http://www.w3.org/Graphics/SVG/1.1/DTD/svg11.dtd">
<!-- Generated by graphviz version 2.38.0 (20140413.2041)
 -->
<!-- Title: PhaseCombo_Interaction Pages: 1 -->
<svg width="243pt" height="276pt"
 viewBox="0.00 0.00 243.00 276.00" xmlns="http://www.w3.org/2000/svg" xmlns:xlink="http://www.w3.org/1999/xlink">
<g id="graph0" class="graph" transform="scale(1 1) rotate(0) translate(4 272)">
<title>PhaseCombo_Interaction</title>
<polygon fill="white" stroke="none" points="-4,4 -4,-272 239,-272 239,4 -4,4"/>
<!-- Node1 -->
<g id="node1" class="node"><title>Node1</title>
<polygon fill="#bfbfbf" stroke="black" points="76.5,-0.5 76.5,-19.5 203.5,-19.5 203.5,-0.5 76.5,-0.5"/>
<text text-anchor="middle" x="140" y="-7.5" font-family="Helvetica,sans-Serif" font-size="10.00">PhaseCombo_Interaction</text>
</g>
<!-- Node2 -->
<g id="node2" class="node"><title>Node2</title>
<g id="a_node2"><a xlink:href="classCantera_1_1GibbsExcessVPSSTP.html" target="_top" xlink:title="GibbsExcessVPSSTP">
<polygon fill="white" stroke="black" points="82.5,-57.5 82.5,-76.5 197.5,-76.5 197.5,-57.5 82.5,-57.5"/>
<text text-anchor="middle" x="140" y="-64.5" font-family="Helvetica,sans-Serif" font-size="10.00">GibbsExcessVPSSTP</text>
</a>
</g>
</g>
<!-- Node2&#45;&gt;Node1 -->
<g id="edge1" class="edge"><title>Node2&#45;&gt;Node1</title>
<path fill="none" stroke="midnightblue" d="M140,-47.1166C140,-37.8173 140,-27.0557 140,-19.7149"/>
<polygon fill="midnightblue" stroke="midnightblue" points="136.5,-47.4062 140,-57.4062 143.5,-47.4063 136.5,-47.4062"/>
</g>
<!-- Node3 -->
<g id="node3" class="node"><title>Node3</title>
<g id="a_node3"><a xlink:href="classCantera_1_1VPStandardStateTP.html" target="_top" xlink:title="This is a filter class for ThermoPhase that implements some prepatory steps for efficiently handling ...">
<polygon fill="white" stroke="black" points="15.5,-124.5 15.5,-143.5 120.5,-143.5 120.5,-124.5 15.5,-124.5"/>
<text text-anchor="middle" x="68" y="-131.5" font-family="Helvetica,sans-Serif" font-size="10.00">VPStandardStateTP</text>
</a>
</g>
</g>
<!-- Node3&#45;&gt;Node2 -->
<g id="edge2" class="edge"><title>Node3&#45;&gt;Node2</title>
<path fill="none" stroke="midnightblue" d="M85.3283,-117.356C99.4832,-104.578 118.963,-86.9915 130.444,-76.6273"/>
<polygon fill="midnightblue" stroke="midnightblue" points="82.7876,-114.935 77.7102,-124.234 87.4783,-120.131 82.7876,-114.935"/>
</g>
<!-- Node4 -->
<g id="node4" class="node"><title>Node4</title>
<g id="a_node4"><a xlink:href="classCantera_1_1ThermoPhase.html" target="_top" xlink:title="Base class for a phase with thermodynamic properties. ">
<polygon fill="white" stroke="black" points="29.5,-181.5 29.5,-200.5 106.5,-200.5 106.5,-181.5 29.5,-181.5"/>
<text text-anchor="middle" x="68" y="-188.5" font-family="Helvetica,sans-Serif" font-size="10.00">ThermoPhase</text>
</a>
</g>
</g>
<!-- Node4&#45;&gt;Node3 -->
<g id="edge3" class="edge"><title>Node4&#45;&gt;Node3</title>
<path fill="none" stroke="midnightblue" d="M68,-171.117C68,-161.817 68,-151.056 68,-143.715"/>
<polygon fill="midnightblue" stroke="midnightblue" points="64.5001,-171.406 68,-181.406 71.5001,-171.406 64.5001,-171.406"/>
</g>
<!-- Node5 -->
<g id="node5" class="node"><title>Node5</title>
<g id="a_node5"><a xlink:href="classCantera_1_1Phase.html" target="_top" xlink:title="Class Phase is the base class for phases of matter, managing the species and elements in a phase...">
<polygon fill="white" stroke="red" points="0,-248.5 0,-267.5 44,-267.5 44,-248.5 0,-248.5"/>
<text text-anchor="middle" x="22" y="-255.5" font-family="Helvetica,sans-Serif" font-size="10.00">Phase</text>
</a>
</g>
</g>
<!-- Node5&#45;&gt;Node4 -->
<g id="edge4" class="edge"><title>Node5&#45;&gt;Node4</title>
<path fill="none" stroke="midnightblue" d="M34.0989,-239.904C43.0376,-227.273 54.834,-210.604 61.8945,-200.627"/>
<polygon fill="midnightblue" stroke="midnightblue" points="31.1235,-238.049 28.2038,-248.234 36.8375,-242.093 31.1235,-238.049"/>
</g>
<!-- Node6 -->
<g id="node6" class="node"><title>Node6</title>
<g id="a_node6"><a xlink:href="classCantera_1_1MultiSpeciesThermo.html" target="_top" xlink:title="A species thermodynamic property manager for a phase. ">
<polygon fill="white" stroke="black" points="62,-248.5 62,-267.5 168,-267.5 168,-248.5 62,-248.5"/>
<text text-anchor="middle" x="115" y="-255.5" font-family="Helvetica,sans-Serif" font-size="10.00">MultiSpeciesThermo</text>
</a>
</g>
</g>
<!-- Node6&#45;&gt;Node4 -->
<g id="edge5" class="edge"><title>Node6&#45;&gt;Node4</title>
<path fill="none" stroke="#9a32cd" stroke-dasharray="5,2" d="M102.638,-239.904C93.505,-227.273 81.4522,-210.604 74.2382,-200.627"/>
<polygon fill="#9a32cd" stroke="#9a32cd" points="99.9656,-242.181 108.661,-248.234 105.638,-238.079 99.9656,-242.181"/>
<text text-anchor="middle" x="124" y="-222" font-family="Helvetica,sans-Serif" font-size="10.00"> m_spthermo</text>
</g>
<!-- Node7 -->
<g id="node7" class="node"><title>Node7</title>
<g id="a_node7"><a xlink:href="classCantera_1_1Array2D.html" target="_top" xlink:title="A class for 2D arrays stored in column&#45;major (Fortran&#45;compatible) form. ">
<polygon fill="white" stroke="black" points="138.5,-124.5 138.5,-143.5 191.5,-143.5 191.5,-124.5 138.5,-124.5"/>
<text text-anchor="middle" x="165" y="-131.5" font-family="Helvetica,sans-Serif" font-size="10.00">Array2D</text>
</a>
</g>
</g>
<!-- Node7&#45;&gt;Node2 -->
<g id="edge6" class="edge"><title>Node7&#45;&gt;Node2</title>
<path fill="none" stroke="#9a32cd" stroke-dasharray="5,2" d="M157.996,-114.79C153.195,-102.308 147.044,-86.3135 143.318,-76.6273"/>
<polygon fill="#9a32cd" stroke="#9a32cd" points="154.772,-116.157 161.628,-124.234 161.305,-113.644 154.772,-116.157"/>
<text text-anchor="middle" x="194.5" y="-98" font-family="Helvetica,sans-Serif" font-size="10.00"> dlnActCoeffdlnN_</text>
</g>
</g>
</svg>
