<?xml version="1.0" encoding="UTF-8" standalone="no"?>
<!DOCTYPE svg PUBLIC "-//W3C//DTD SVG 1.1//EN"
 "http://www.w3.org/Graphics/SVG/1.1/DTD/svg11.dtd">
<!-- Generated by graphviz version 2.38.0 (20151222.1943)
 -->
<!-- Title: Bdry1D Pages: 1 -->
<svg width="460pt" height="140pt"
 viewBox="0.00 0.00 459.50 140.00" xmlns="http://www.w3.org/2000/svg" xmlns:xlink="http://www.w3.org/1999/xlink">
<g id="graph0" class="graph" transform="scale(1 1) rotate(0) translate(4 136)">
<title>Bdry1D</title>
<polygon fill="white" stroke="none" points="-4,4 -4,-136 455.5,-136 455.5,4 -4,4"/>
<!-- Node1 -->
<g id="node1" class="node"><title>Node1</title>
<polygon fill="#bfbfbf" stroke="black" points="197.5,-56.5 197.5,-75.5 245.5,-75.5 245.5,-56.5 197.5,-56.5"/>
<text text-anchor="middle" x="221.5" y="-63.5" font-family="FreeSans" font-size="10.00">Bdry1D</text>
</g>
<!-- Node3 -->
<g id="node3" class="node"><title>Node3</title>
<g id="a_node3"><a xlink:href="classCantera_1_1Inlet1D.html" target="_top" xlink:title="An inlet. ">
<polygon fill="white" stroke="black" points="0,-0.5 0,-19.5 47,-19.5 47,-0.5 0,-0.5"/>
<text text-anchor="middle" x="23.5" y="-7.5" font-family="FreeSans" font-size="10.00">Inlet1D</text>
</a>
</g>
</g>
<!-- Node1&#45;&gt;Node3 -->
<g id="edge2" class="edge"><title>Node1&#45;&gt;Node3</title>
<path fill="none" stroke="midnightblue" d="M187.516,-55.8881C153.946,-46.8634 101.147,-32.6058 55.5,-20 52.8298,-19.2626 50.036,-18.4853 47.2587,-17.709"/>
<polygon fill="midnightblue" stroke="midnightblue" points="186.722,-59.2989 197.288,-58.5133 188.539,-52.5386 186.722,-59.2989"/>
</g>
<!-- Node4 -->
<g id="node4" class="node"><title>Node4</title>
<g id="a_node4"><a xlink:href="classCantera_1_1Outlet1D.html" target="_top" xlink:title="An outlet. ">
<polygon fill="white" stroke="black" points="65,-0.5 65,-19.5 120,-19.5 120,-0.5 65,-0.5"/>
<text text-anchor="middle" x="92.5" y="-7.5" font-family="FreeSans" font-size="10.00">Outlet1D</text>
</a>
</g>
</g>
<!-- Node1&#45;&gt;Node4 -->
<g id="edge3" class="edge"><title>Node1&#45;&gt;Node4</title>
<path fill="none" stroke="midnightblue" d="M191.646,-52.503C167.462,-42.3795 134.038,-28.388 112.845,-19.5164"/>
<polygon fill="midnightblue" stroke="midnightblue" points="190.484,-55.8106 201.06,-56.4435 193.187,-49.3536 190.484,-55.8106"/>
</g>
<!-- Node5 -->
<g id="node5" class="node"><title>Node5</title>
<g id="a_node5"><a xlink:href="classCantera_1_1OutletRes1D.html" target="_top" xlink:title="An outlet with specified composition. ">
<polygon fill="white" stroke="black" points="138,-0.5 138,-19.5 209,-19.5 209,-0.5 138,-0.5"/>
<text text-anchor="middle" x="173.5" y="-7.5" font-family="FreeSans" font-size="10.00">OutletRes1D</text>
</a>
</g>
</g>
<!-- Node1&#45;&gt;Node5 -->
<g id="edge4" class="edge"><title>Node1&#45;&gt;Node5</title>
<path fill="none" stroke="midnightblue" d="M206.772,-48.4314C198.36,-38.9673 188.151,-27.4827 181.279,-19.7511"/>
<polygon fill="midnightblue" stroke="midnightblue" points="204.314,-50.9342 213.574,-56.083 209.546,-46.2836 204.314,-50.9342"/>
</g>
<!-- Node6 -->
<g id="node6" class="node"><title>Node6</title>
<g id="a_node6"><a xlink:href="classCantera_1_1ReactingSurf1D.html" target="_top" xlink:title="A reacting surface. ">
<polygon fill="white" stroke="black" points="227,-0.5 227,-19.5 312,-19.5 312,-0.5 227,-0.5"/>
<text text-anchor="middle" x="269.5" y="-7.5" font-family="FreeSans" font-size="10.00">ReactingSurf1D</text>
</a>
</g>
</g>
<!-- Node1&#45;&gt;Node6 -->
<g id="edge5" class="edge"><title>Node1&#45;&gt;Node6</title>
<path fill="none" stroke="midnightblue" d="M236.228,-48.4314C244.64,-38.9673 254.849,-27.4827 261.721,-19.7511"/>
<polygon fill="midnightblue" stroke="midnightblue" points="233.454,-46.2836 229.426,-56.083 238.686,-50.9342 233.454,-46.2836"/>
</g>
<!-- Node7 -->
<g id="node7" class="node"><title>Node7</title>
<g id="a_node7"><a xlink:href="classCantera_1_1Surf1D.html" target="_top" xlink:title="A non&#45;reacting surface. ">
<polygon fill="white" stroke="black" points="330,-0.5 330,-19.5 377,-19.5 377,-0.5 330,-0.5"/>
<text text-anchor="middle" x="353.5" y="-7.5" font-family="FreeSans" font-size="10.00">Surf1D</text>
</a>
</g>
</g>
<!-- Node1&#45;&gt;Node7 -->
<g id="edge6" class="edge"><title>Node1&#45;&gt;Node7</title>
<path fill="none" stroke="midnightblue" d="M251.719,-52.6377C276.49,-42.504 310.9,-28.4274 332.682,-19.5164"/>
<polygon fill="midnightblue" stroke="midnightblue" points="250.346,-49.4177 242.416,-56.4435 252.997,-55.8966 250.346,-49.4177"/>
</g>
<!-- Node8 -->
<g id="node8" class="node"><title>Node8</title>
<g id="a_node8"><a xlink:href="classCantera_1_1Symm1D.html" target="_top" xlink:title="A symmetry plane. ">
<polygon fill="white" stroke="black" points="395.5,-0.5 395.5,-19.5 451.5,-19.5 451.5,-0.5 395.5,-0.5"/>
<text text-anchor="middle" x="423.5" y="-7.5" font-family="FreeSans" font-size="10.00">Symm1D</text>
</a>
</g>
</g>
<!-- Node1&#45;&gt;Node8 -->
<g id="edge7" class="edge"><title>Node1&#45;&gt;Node8</title>
<path fill="none" stroke="midnightblue" d="M255.545,-55.8988C294.889,-45.3813 358.898,-28.27 395.485,-18.4892"/>
<polygon fill="midnightblue" stroke="midnightblue" points="254.623,-52.5224 245.866,-58.4863 256.431,-59.285 254.623,-52.5224"/>
</g>
<!-- Node2 -->
<g id="node2" class="node"><title>Node2</title>
<g id="a_node2"><a xlink:href="classCantera_1_1Domain1D.html" target="_top" xlink:title="Base class for one&#45;dimensional domains. ">
<polygon fill="white" stroke="black" points="190.5,-112.5 190.5,-131.5 252.5,-131.5 252.5,-112.5 190.5,-112.5"/>
<text text-anchor="middle" x="221.5" y="-119.5" font-family="FreeSans" font-size="10.00">Domain1D</text>
</a>
</g>
</g>
<!-- Node2&#45;&gt;Node1 -->
<g id="edge1" class="edge"><title>Node2&#45;&gt;Node1</title>
<path fill="none" stroke="midnightblue" d="M221.5,-101.805C221.5,-92.9102 221.5,-82.7798 221.5,-75.7511"/>
<polygon fill="midnightblue" stroke="midnightblue" points="218,-102.083 221.5,-112.083 225,-102.083 218,-102.083"/>
</g>
</g>
</svg>
