<?xml version="1.0" encoding="UTF-8" standalone="no"?>
<!DOCTYPE svg PUBLIC "-//W3C//DTD SVG 1.1//EN"
 "http://www.w3.org/Graphics/SVG/1.1/DTD/svg11.dtd">
<!-- Generated by graphviz version 2.26.3 (20100126.1600)
 -->
<!-- Title: SpeciesThermoInterpType Pages: 1 -->
<svg width="312pt" height="408pt"
 viewBox="0.00 0.00 312.00 408.00" xmlns="http://www.w3.org/2000/svg" xmlns:xlink="http://www.w3.org/1999/xlink">
<g id="graph1" class="graph" transform="scale(1 1) rotate(0) translate(4 404)">
<title>SpeciesThermoInterpType</title>
<polygon fill="white" stroke="white" points="-4,5 -4,-404 309,-404 309,5 -4,5"/>
<!-- Node1 -->
<g id="node1" class="node"><title>Node1</title>
<polygon fill="#bfbfbf" stroke="black" points="0,-190 0,-210 130,-210 130,-190 0,-190"/>
<text text-anchor="middle" x="65" y="-197" font-family="FreeSans" font-size="10.00">SpeciesThermoInterpType</text>
</g>
<!-- Node2 -->
<g id="node3" class="node"><title>Node2</title>
<a xlink:href="classCantera_1_1Adsorbate.html" target="_top" xlink:title="An adsorbed surface species. ">
<polygon fill="white" stroke="black" points="205,-380 205,-400 265,-400 265,-380 205,-380"/>
<text text-anchor="middle" x="235" y="-387" font-family="FreeSans" font-size="10.00">Adsorbate</text>
</a>
</g>
<!-- Node1&#45;&gt;Node2 -->
<g id="edge2" class="edge"><title>Node1&#45;&gt;Node2</title>
<path fill="none" stroke="midnightblue" d="M71.2424,-220.123C83.4354,-256.037 113.882,-331.133 166,-371 177.152,-379.53 191.903,-384.232 204.902,-386.823"/>
<polygon fill="midnightblue" stroke="midnightblue" points="74.4719,-218.738 68.0406,-210.318 67.8177,-220.911 74.4719,-218.738"/>
</g>
<!-- Node3 -->
<g id="node5" class="node"><title>Node3</title>
<a xlink:href="classCantera_1_1ConstCpPoly.html" target="_top" xlink:title="A constant&#45;heat capacity species thermodynamic property manager class. ">
<polygon fill="white" stroke="black" points="199,-342 199,-362 271,-362 271,-342 199,-342"/>
<text text-anchor="middle" x="235" y="-349" font-family="FreeSans" font-size="10.00">ConstCpPoly</text>
</a>
</g>
<!-- Node1&#45;&gt;Node3 -->
<g id="edge4" class="edge"><title>Node1&#45;&gt;Node3</title>
<path fill="none" stroke="midnightblue" d="M74.3635,-219.268C89.5139,-248.387 122.184,-303.344 166,-333 175.672,-339.547 187.545,-343.847 198.697,-346.669"/>
<polygon fill="midnightblue" stroke="midnightblue" points="77.3798,-217.476 69.7458,-210.13 71.1321,-220.633 77.3798,-217.476"/>
</g>
<!-- Node4 -->
<g id="node7" class="node"><title>Node4</title>
<a xlink:href="classCantera_1_1Mu0Poly.html" target="_top" xlink:title="The Mu0Poly class implements an interpolation of the Gibbs free energy based on a piecewise constant ...">
<polygon fill="white" stroke="black" points="208,-304 208,-324 262,-324 262,-304 208,-304"/>
<text text-anchor="middle" x="235" y="-311" font-family="FreeSans" font-size="10.00">Mu0Poly</text>
</a>
</g>
<!-- Node1&#45;&gt;Node4 -->
<g id="edge6" class="edge"><title>Node1&#45;&gt;Node4</title>
<path fill="none" stroke="midnightblue" d="M79.3349,-218.03C97.3404,-239.483 130.239,-274.915 166,-295 178.892,-302.241 194.708,-306.855 207.943,-309.721"/>
<polygon fill="midnightblue" stroke="midnightblue" points="82.0322,-215.8 72.98,-210.295 76.6233,-220.244 82.0322,-215.8"/>
</g>
<!-- Node5 -->
<g id="node9" class="node"><title>Node5</title>
<a xlink:href="classCantera_1_1Nasa9Poly1.html" target="_top" xlink:title="The NASA 9 polynomial parameterization for one temperature range. ">
<polygon fill="white" stroke="black" points="201,-266 201,-286 269,-286 269,-266 201,-266"/>
<text text-anchor="middle" x="235" y="-273" font-family="FreeSans" font-size="10.00">Nasa9Poly1</text>
</a>
</g>
<!-- Node1&#45;&gt;Node5 -->
<g id="edge8" class="edge"><title>Node1&#45;&gt;Node5</title>
<path fill="none" stroke="midnightblue" d="M88.5862,-215.514C108.54,-228.091 138.238,-245.548 166,-257 177.027,-261.549 189.486,-265.358 200.754,-268.342"/>
<polygon fill="midnightblue" stroke="midnightblue" points="90.4567,-212.556 80.146,-210.118 86.6861,-218.453 90.4567,-212.556"/>
</g>
<!-- Node6 -->
<g id="node11" class="node"><title>Node6</title>
<a xlink:href="classCantera_1_1Nasa9PolyMultiTempRegion.html" target="_top" xlink:title="The NASA 9 polynomial parameterization for a single species encompassing multiple temperature regions...">
<polygon fill="white" stroke="black" points="166,-228 166,-248 304,-248 304,-228 166,-228"/>
<text text-anchor="middle" x="235" y="-235" font-family="FreeSans" font-size="10.00">Nasa9PolyMultiTempRegion</text>
</a>
</g>
<!-- Node1&#45;&gt;Node6 -->
<g id="edge10" class="edge"><title>Node1&#45;&gt;Node6</title>
<path fill="none" stroke="midnightblue" d="M119.923,-212.277C142.566,-217.338 168.478,-223.13 189.974,-227.935"/>
<polygon fill="midnightblue" stroke="midnightblue" points="120.633,-208.849 110.111,-210.084 119.106,-215.681 120.633,-208.849"/>
</g>
<!-- Node7 -->
<g id="node13" class="node"><title>Node7</title>
<a xlink:href="classCantera_1_1NasaPoly1.html" target="_top" xlink:title="The NASA polynomial parameterization for one temperature range. ">
<polygon fill="white" stroke="black" points="204,-190 204,-210 266,-210 266,-190 204,-190"/>
<text text-anchor="middle" x="235" y="-197" font-family="FreeSans" font-size="10.00">NasaPoly1</text>
</a>
</g>
<!-- Node1&#45;&gt;Node7 -->
<g id="edge12" class="edge"><title>Node1&#45;&gt;Node7</title>
<path fill="none" stroke="midnightblue" d="M140.421,-200C162.766,-200 186.006,-200 203.856,-200"/>
<polygon fill="midnightblue" stroke="midnightblue" points="140.24,-196.5 130.24,-200 140.24,-203.5 140.24,-196.5"/>
</g>
<!-- Node8 -->
<g id="node15" class="node"><title>Node8</title>
<a xlink:href="classCantera_1_1NasaPoly2.html" target="_top" xlink:title="The NASA polynomial parameterization for two temperature ranges. ">
<polygon fill="white" stroke="black" points="204,-152 204,-172 266,-172 266,-152 204,-152"/>
<text text-anchor="middle" x="235" y="-159" font-family="FreeSans" font-size="10.00">NasaPoly2</text>
</a>
</g>
<!-- Node1&#45;&gt;Node8 -->
<g id="edge14" class="edge"><title>Node1&#45;&gt;Node8</title>
<path fill="none" stroke="midnightblue" d="M120.099,-187.684C147.882,-181.473 180.55,-174.171 203.936,-168.944"/>
<polygon fill="midnightblue" stroke="midnightblue" points="119.106,-184.319 110.111,-189.916 120.633,-191.151 119.106,-184.319"/>
</g>
<!-- Node9 -->
<g id="node17" class="node"><title>Node9</title>
<a xlink:href="classCantera_1_1ShomatePoly.html" target="_top" xlink:title="The Shomate polynomial parameterization for one temperature range for one species. ">
<polygon fill="white" stroke="black" points="198,-114 198,-134 272,-134 272,-114 198,-114"/>
<text text-anchor="middle" x="235" y="-121" font-family="FreeSans" font-size="10.00">ShomatePoly</text>
</a>
</g>
<!-- Node1&#45;&gt;Node9 -->
<g id="edge16" class="edge"><title>Node1&#45;&gt;Node9</title>
<path fill="none" stroke="midnightblue" d="M88.5862,-184.486C108.54,-171.909 138.238,-154.452 166,-143 176.108,-138.83 187.42,-135.282 197.914,-132.421"/>
<polygon fill="midnightblue" stroke="midnightblue" points="86.6861,-181.547 80.146,-189.882 90.4567,-187.444 86.6861,-181.547"/>
</g>
<!-- Node10 -->
<g id="node19" class="node"><title>Node10</title>
<a xlink:href="classCantera_1_1ShomatePoly2.html" target="_top" xlink:title="The Shomate polynomial parameterization for two temperature ranges for one species. ">
<polygon fill="white" stroke="black" points="195,-76 195,-96 275,-96 275,-76 195,-76"/>
<text text-anchor="middle" x="235" y="-83" font-family="FreeSans" font-size="10.00">ShomatePoly2</text>
</a>
</g>
<!-- Node1&#45;&gt;Node10 -->
<g id="edge18" class="edge"><title>Node1&#45;&gt;Node10</title>
<path fill="none" stroke="midnightblue" d="M79.3349,-181.97C97.3404,-160.517 130.239,-125.085 166,-105 174.775,-100.071 184.905,-96.3597 194.654,-93.588"/>
<polygon fill="midnightblue" stroke="midnightblue" points="76.6233,-179.756 72.98,-189.705 82.0322,-184.2 76.6233,-179.756"/>
</g>
<!-- Node11 -->
<g id="node21" class="node"><title>Node11</title>
<a xlink:href="classCantera_1_1StatMech.html" target="_top" xlink:title="Statistical mechanics. ">
<polygon fill="white" stroke="black" points="205.5,-38 205.5,-58 264.5,-58 264.5,-38 205.5,-38"/>
<text text-anchor="middle" x="235" y="-45" font-family="FreeSans" font-size="10.00">StatMech</text>
</a>
</g>
<!-- Node1&#45;&gt;Node11 -->
<g id="edge20" class="edge"><title>Node1&#45;&gt;Node11</title>
<path fill="none" stroke="midnightblue" d="M74.3635,-180.732C89.5139,-151.613 122.184,-96.656 166,-67 177.627,-59.1302 192.434,-54.5061 205.347,-51.7955"/>
<polygon fill="midnightblue" stroke="midnightblue" points="71.1321,-179.367 69.7458,-189.87 77.3798,-182.524 71.1321,-179.367"/>
</g>
<!-- Node12 -->
<g id="node23" class="node"><title>Node12</title>
<a xlink:href="classCantera_1_1STITbyPDSS.html" target="_top" xlink:title="Class for the thermodynamic manager for an individual species&#39; reference state which uses the PDSS ba...">
<polygon fill="white" stroke="black" points="197.5,-0 197.5,-20 272.5,-20 272.5,-0 197.5,-0"/>
<text text-anchor="middle" x="235" y="-7" font-family="FreeSans" font-size="10.00">STITbyPDSS</text>
</a>
</g>
<!-- Node1&#45;&gt;Node12 -->
<g id="edge22" class="edge"><title>Node1&#45;&gt;Node12</title>
<path fill="none" stroke="midnightblue" d="M71.2424,-179.877C83.4354,-143.963 113.882,-68.8675 166,-29 174.981,-22.1304 186.295,-17.7438 197.15,-14.9431"/>
<polygon fill="midnightblue" stroke="midnightblue" points="67.8177,-179.089 68.0406,-189.682 74.4719,-181.262 67.8177,-179.089"/>
</g>
</g>
</svg>
