<?xml version="1.0" encoding="UTF-8" standalone="no"?>
<!DOCTYPE svg PUBLIC "-//W3C//DTD SVG 1.1//EN"
 "http://www.w3.org/Graphics/SVG/1.1/DTD/svg11.dtd">
<!-- Generated by graphviz version 2.40.1 (20161225.0304)
 -->
<!-- Title: VPStandardStateTP Pages: 1 -->
<svg width="790pt" height="286pt"
 viewBox="0.00 0.00 790.36 286.00" xmlns="http://www.w3.org/2000/svg" xmlns:xlink="http://www.w3.org/1999/xlink">
<g id="graph0" class="graph" transform="scale(1 1) rotate(0) translate(4 282)">
<title>VPStandardStateTP</title>
<polygon fill="#ffffff" stroke="transparent" points="-4,4 -4,-282 786.3574,-282 786.3574,4 -4,4"/>
<!-- Node0 -->
<g id="node1" class="node">
<title>Node0</title>
<polygon fill="#bfbfbf" stroke="#000000" points="195.1621,-110.5 195.1621,-128.5 301.2158,-128.5 301.2158,-110.5 195.1621,-110.5"/>
<text text-anchor="middle" x="248.189" y="-116.5" font-family="Helvetica,sans-Serif" font-size="10.00" fill="#000000">VPStandardStateTP</text>
</g>
<!-- Node3 -->
<g id="node4" class="node">
<title>Node3</title>
<g id="a_node4"><a xlink:href="classCantera_1_1GibbsExcessVPSSTP.html" target="_top" xlink:title="GibbsExcessVPSSTP">
<polygon fill="#ffffff" stroke="#000000" points="340.5605,-166.5 340.5605,-184.5 454.373,-184.5 454.373,-166.5 340.5605,-166.5"/>
<text text-anchor="middle" x="397.4668" y="-172.5" font-family="Helvetica,sans-Serif" font-size="10.00" fill="#000000">GibbsExcessVPSSTP</text>
</a>
</g>
</g>
<!-- Node0&#45;&gt;Node3 -->
<g id="edge3" class="edge">
<title>Node0&#45;&gt;Node3</title>
<path fill="none" stroke="#191970" d="M277.9859,-132.6583C295.1573,-140.0455 317.2355,-149.2138 337.2158,-156.5 346.7988,-159.9946 357.3706,-163.4576 366.9482,-166.4509"/>
<polygon fill="#191970" stroke="#191970" points="279.0625,-129.3103 268.4956,-128.5423 276.2772,-135.7323 279.0625,-129.3103"/>
</g>
<!-- Node10 -->
<g id="node11" class="node">
<title>Node10</title>
<g id="a_node11"><a xlink:href="classCantera_1_1IdealSolnGasVPSS.html" target="_top" xlink:title="An ideal solution or an ideal gas approximation of a phase. ">
<polygon fill="#ffffff" stroke="#000000" points="346.1074,-129.5 346.1074,-147.5 448.8262,-147.5 448.8262,-129.5 346.1074,-129.5"/>
<text text-anchor="middle" x="397.4668" y="-135.5" font-family="Helvetica,sans-Serif" font-size="10.00" fill="#000000">IdealSolnGasVPSS</text>
</a>
</g>
</g>
<!-- Node0&#45;&gt;Node10 -->
<g id="edge10" class="edge">
<title>Node0&#45;&gt;Node10</title>
<path fill="none" stroke="#191970" d="M311.3061,-127.5335C322.9063,-129.01 334.8869,-130.5349 346.0906,-131.9609"/>
<polygon fill="#191970" stroke="#191970" points="311.601,-124.0429 301.2391,-126.2522 310.7171,-130.9869 311.601,-124.0429"/>
</g>
<!-- Node11 -->
<g id="node12" class="node">
<title>Node11</title>
<g id="a_node12"><a xlink:href="classCantera_1_1MaskellSolidSolnPhase.html" target="_top" xlink:title="Class MaskellSolidSolnPhase represents a condensed phase non&#45;ideal solution with 2 species following ...">
<polygon fill="#ffffff" stroke="#000000" points="337.2158,-92.5 337.2158,-110.5 457.7178,-110.5 457.7178,-92.5 337.2158,-92.5"/>
<text text-anchor="middle" x="397.4668" y="-98.5" font-family="Helvetica,sans-Serif" font-size="10.00" fill="#000000">MaskellSolidSolnPhase</text>
</a>
</g>
</g>
<!-- Node0&#45;&gt;Node11 -->
<g id="edge11" class="edge">
<title>Node0&#45;&gt;Node11</title>
<path fill="none" stroke="#191970" d="M311.2213,-111.8995C319.8315,-110.8613 328.6529,-109.7976 337.212,-108.7656"/>
<polygon fill="#191970" stroke="#191970" points="310.7481,-108.4311 301.2391,-113.1032 311.5862,-115.3808 310.7481,-108.4311"/>
</g>
<!-- Node12 -->
<g id="node13" class="node">
<title>Node12</title>
<g id="a_node13"><a xlink:href="classCantera_1_1MolalityVPSSTP.html" target="_top" xlink:title="MolalityVPSSTP">
<polygon fill="#ffffff" stroke="#000000" points="352.7896,-55.5 352.7896,-73.5 442.144,-73.5 442.144,-55.5 352.7896,-55.5"/>
<text text-anchor="middle" x="397.4668" y="-61.5" font-family="Helvetica,sans-Serif" font-size="10.00" fill="#000000">MolalityVPSSTP</text>
</a>
</g>
</g>
<!-- Node0&#45;&gt;Node12 -->
<g id="edge12" class="edge">
<title>Node0&#45;&gt;Node12</title>
<path fill="none" stroke="#191970" d="M277.9442,-106.2263C295.1022,-98.8017 317.1808,-89.6345 337.2158,-82.5 346.1633,-79.3138 355.9879,-76.2143 365.0601,-73.5106"/>
<polygon fill="#191970" stroke="#191970" points="276.226,-103.1574 268.4632,-110.3678 279.0281,-109.5721 276.226,-103.1574"/>
</g>
<!-- Node1 -->
<g id="node2" class="node">
<title>Node1</title>
<g id="a_node2"><a xlink:href="classCantera_1_1ThermoPhase.html" target="_top" xlink:title="Base class for a phase with thermodynamic properties. ">
<polygon fill="#ffffff" stroke="#000000" points="80.3545,-110.5 80.3545,-128.5 159.1621,-128.5 159.1621,-110.5 80.3545,-110.5"/>
<text text-anchor="middle" x="119.7583" y="-116.5" font-family="Helvetica,sans-Serif" font-size="10.00" fill="#000000">ThermoPhase</text>
</a>
</g>
</g>
<!-- Node1&#45;&gt;Node0 -->
<g id="edge1" class="edge">
<title>Node1&#45;&gt;Node0</title>
<path fill="none" stroke="#191970" d="M169.5848,-119.5C177.8495,-119.5 186.4494,-119.5 194.7979,-119.5"/>
<polygon fill="#191970" stroke="#191970" points="169.3397,-116.0001 159.3397,-119.5 169.3397,-123.0001 169.3397,-116.0001"/>
</g>
<!-- Node2 -->
<g id="node3" class="node">
<title>Node2</title>
<g id="a_node3"><a xlink:href="classCantera_1_1Phase.html" target="_top" xlink:title="Class Phase is the base class for phases of matter, managing the species and elements in a phase...">
<polygon fill="#ffffff" stroke="#000000" points="0,-110.5 0,-128.5 44.3545,-128.5 44.3545,-110.5 0,-110.5"/>
<text text-anchor="middle" x="22.1772" y="-116.5" font-family="Helvetica,sans-Serif" font-size="10.00" fill="#000000">Phase</text>
</a>
</g>
</g>
<!-- Node2&#45;&gt;Node1 -->
<g id="edge2" class="edge">
<title>Node2&#45;&gt;Node1</title>
<path fill="none" stroke="#191970" d="M54.9314,-119.5C62.9837,-119.5 71.6916,-119.5 80.0332,-119.5"/>
<polygon fill="#191970" stroke="#191970" points="54.8096,-116.0001 44.8096,-119.5 54.8095,-123.0001 54.8096,-116.0001"/>
</g>
<!-- Node4 -->
<g id="node5" class="node">
<title>Node4</title>
<g id="a_node5"><a xlink:href="classCantera_1_1IonsFromNeutralVPSSTP.html" target="_top" xlink:title="IonsFromNeutralVPSSTP">
<polygon fill="#ffffff" stroke="#000000" points="493.7178,-259.5 493.7178,-277.5 623.6436,-277.5 623.6436,-259.5 493.7178,-259.5"/>
<text text-anchor="middle" x="558.6807" y="-265.5" font-family="Helvetica,sans-Serif" font-size="10.00" fill="#000000">IonsFromNeutralVPSSTP</text>
</a>
</g>
</g>
<!-- Node3&#45;&gt;Node4 -->
<g id="edge4" class="edge">
<title>Node3&#45;&gt;Node4</title>
<path fill="none" stroke="#191970" d="M414.207,-191.5325C432.4288,-208.1847 463.08,-233.9375 493.7178,-249.5 501.5753,-253.4912 510.4046,-256.7746 518.9619,-259.4224"/>
<polygon fill="#191970" stroke="#191970" points="416.4573,-188.8455 406.7541,-184.5912 411.6865,-193.9679 416.4573,-188.8455"/>
</g>
<!-- Node5 -->
<g id="node6" class="node">
<title>Node5</title>
<g id="a_node6"><a xlink:href="classCantera_1_1MargulesVPSSTP.html" target="_top" xlink:title="MargulesVPSSTP is a derived class of GibbsExcessVPSSTP that employs the Margules approximation for th...">
<polygon fill="#ffffff" stroke="#000000" points="510.3877,-222.5 510.3877,-240.5 606.9736,-240.5 606.9736,-222.5 510.3877,-222.5"/>
<text text-anchor="middle" x="558.6807" y="-228.5" font-family="Helvetica,sans-Serif" font-size="10.00" fill="#000000">MargulesVPSSTP</text>
</a>
</g>
</g>
<!-- Node3&#45;&gt;Node5 -->
<g id="edge5" class="edge">
<title>Node3&#45;&gt;Node5</title>
<path fill="none" stroke="#191970" d="M428.9421,-188.3533C447.6279,-195.7943 471.8648,-205.118 493.7178,-212.5 504.0712,-215.9974 515.4756,-219.4612 525.801,-222.4543"/>
<polygon fill="#191970" stroke="#191970" points="430.0355,-185.0209 419.4513,-184.546 427.4292,-191.5176 430.0355,-185.0209"/>
</g>
<!-- Node6 -->
<g id="node7" class="node">
<title>Node6</title>
<g id="a_node7"><a xlink:href="classCantera_1_1MolarityIonicVPSSTP.html" target="_top" xlink:title="MolarityIonicVPSSTP">
<polygon fill="#ffffff" stroke="#000000" points="502.8877,-185.5 502.8877,-203.5 614.4736,-203.5 614.4736,-185.5 502.8877,-185.5"/>
<text text-anchor="middle" x="558.6807" y="-191.5" font-family="Helvetica,sans-Serif" font-size="10.00" fill="#000000">MolarityIonicVPSSTP</text>
</a>
</g>
</g>
<!-- Node3&#45;&gt;Node6 -->
<g id="edge6" class="edge">
<title>Node3&#45;&gt;Node6</title>
<path fill="none" stroke="#191970" d="M464.7543,-183.4302C477.3682,-184.9168 490.4296,-186.4562 502.6565,-187.8972"/>
<polygon fill="#191970" stroke="#191970" points="465.0997,-179.9468 454.7587,-182.2522 464.2803,-186.8987 465.0997,-179.9468"/>
</g>
<!-- Node8 -->
<g id="node9" class="node">
<title>Node8</title>
<g id="a_node9"><a xlink:href="classCantera_1_1PhaseCombo__Interaction.html" target="_top" xlink:title="PhaseCombo_Interaction is a derived class of GibbsExcessVPSSTP that employs the Margules approximatio...">
<polygon fill="#ffffff" stroke="#000000" points="494.2573,-148.5 494.2573,-166.5 623.104,-166.5 623.104,-148.5 494.2573,-148.5"/>
<text text-anchor="middle" x="558.6807" y="-154.5" font-family="Helvetica,sans-Serif" font-size="10.00" fill="#000000">PhaseCombo_Interaction</text>
</a>
</g>
</g>
<!-- Node3&#45;&gt;Node8 -->
<g id="edge8" class="edge">
<title>Node3&#45;&gt;Node8</title>
<path fill="none" stroke="#191970" d="M464.7739,-167.985C474.5004,-166.899 484.4926,-165.7833 494.1628,-164.7036"/>
<polygon fill="#191970" stroke="#191970" points="464.3085,-164.5151 454.7587,-169.1032 465.0854,-171.4719 464.3085,-164.5151"/>
</g>
<!-- Node9 -->
<g id="node10" class="node">
<title>Node9</title>
<g id="a_node10"><a xlink:href="classCantera_1_1RedlichKisterVPSSTP.html" target="_top" xlink:title="RedlichKisterVPSSTP is a derived class of GibbsExcessVPSSTP that employs the Redlich&#45;Kister approxima...">
<polygon fill="#ffffff" stroke="#000000" points="501.4961,-111.5 501.4961,-129.5 615.8652,-129.5 615.8652,-111.5 501.4961,-111.5"/>
<text text-anchor="middle" x="558.6807" y="-117.5" font-family="Helvetica,sans-Serif" font-size="10.00" fill="#000000">RedlichKisterVPSSTP</text>
</a>
</g>
</g>
<!-- Node3&#45;&gt;Node9 -->
<g id="edge9" class="edge">
<title>Node3&#45;&gt;Node9</title>
<path fill="none" stroke="#191970" d="M439.1273,-163.3109C445.4149,-161.1989 451.7796,-158.9032 457.7178,-156.5 474.2998,-149.7891 477.0203,-144.9183 493.7178,-138.5 502.457,-135.1408 512.0782,-132.1233 521.1767,-129.5619"/>
<polygon fill="#191970" stroke="#191970" points="437.8171,-160.0562 429.3826,-166.4678 439.9745,-166.7154 437.8171,-160.0562"/>
</g>
<!-- Node7 -->
<g id="node8" class="node">
<title>Node7</title>
<g id="a_node8"><a xlink:href="classCantera_1_1MixedSolventElectrolyte.html" target="_top" xlink:title="MixedSolventElectrolyte is a derived class of GibbsExcessVPSSTP that employs the DH and local Margule...">
<polygon fill="#ffffff" stroke="#000000" points="659.6436,-185.5 659.6436,-203.5 782.3574,-203.5 782.3574,-185.5 659.6436,-185.5"/>
<text text-anchor="middle" x="721.0005" y="-191.5" font-family="Helvetica,sans-Serif" font-size="10.00" fill="#000000">MixedSolventElectrolyte</text>
</a>
</g>
</g>
<!-- Node6&#45;&gt;Node7 -->
<g id="edge7" class="edge">
<title>Node6&#45;&gt;Node7</title>
<path fill="none" stroke="#191970" d="M624.5497,-194.5C636.0913,-194.5 648.0609,-194.5 659.4788,-194.5"/>
<polygon fill="#191970" stroke="#191970" points="624.542,-191.0001 614.5419,-194.5 624.5419,-198.0001 624.542,-191.0001"/>
</g>
<!-- Node13 -->
<g id="node14" class="node">
<title>Node13</title>
<g id="a_node14"><a xlink:href="classCantera_1_1DebyeHuckel.html" target="_top" xlink:title="Class DebyeHuckel represents a dilute liquid electrolyte phase which obeys the Debye Huckel formulati...">
<polygon fill="#ffffff" stroke="#000000" points="520.9443,-74.5 520.9443,-92.5 596.417,-92.5 596.417,-74.5 520.9443,-74.5"/>
<text text-anchor="middle" x="558.6807" y="-80.5" font-family="Helvetica,sans-Serif" font-size="10.00" fill="#000000">DebyeHuckel</text>
</a>
</g>
</g>
<!-- Node12&#45;&gt;Node13 -->
<g id="edge13" class="edge">
<title>Node12&#45;&gt;Node13</title>
<path fill="none" stroke="#191970" d="M452.4783,-70.9834C474.9887,-73.6364 500.4706,-76.6396 520.8307,-79.0392"/>
<polygon fill="#191970" stroke="#191970" points="452.7148,-67.4872 442.3738,-69.7926 451.8954,-74.439 452.7148,-67.4872"/>
</g>
<!-- Node14 -->
<g id="node15" class="node">
<title>Node14</title>
<g id="a_node15"><a xlink:href="classCantera_1_1HMWSoln.html" target="_top" xlink:title="Class HMWSoln represents a dilute or concentrated liquid electrolyte phase which obeys the Pitzer for...">
<polygon fill="#ffffff" stroke="#000000" points="528.1782,-37.5 528.1782,-55.5 589.1831,-55.5 589.1831,-37.5 528.1782,-37.5"/>
<text text-anchor="middle" x="558.6807" y="-43.5" font-family="Helvetica,sans-Serif" font-size="10.00" fill="#000000">HMWSoln</text>
</a>
</g>
</g>
<!-- Node12&#45;&gt;Node14 -->
<g id="edge14" class="edge">
<title>Node12&#45;&gt;Node14</title>
<path fill="none" stroke="#191970" d="M452.5265,-58.3524C477.6704,-55.545 506.513,-52.3247 527.7818,-49.9499"/>
<polygon fill="#191970" stroke="#191970" points="451.9237,-54.8979 442.3738,-59.486 452.7005,-61.8547 451.9237,-54.8979"/>
</g>
<!-- Node15 -->
<g id="node16" class="node">
<title>Node15</title>
<g id="a_node16"><a xlink:href="classCantera_1_1IdealMolalSoln.html" target="_top" xlink:title="This phase is based upon the mixing&#45;rule assumption that all molality&#45;based activity coefficients are...">
<polygon fill="#ffffff" stroke="#000000" points="517.8828,-.5 517.8828,-18.5 599.4785,-18.5 599.4785,-.5 517.8828,-.5"/>
<text text-anchor="middle" x="558.6807" y="-6.5" font-family="Helvetica,sans-Serif" font-size="10.00" fill="#000000">IdealMolalSoln</text>
</a>
</g>
</g>
<!-- Node12&#45;&gt;Node15 -->
<g id="edge15" class="edge">
<title>Node12&#45;&gt;Node15</title>
<path fill="none" stroke="#191970" d="M428.9036,-51.5314C447.5762,-44.0509 471.8128,-34.7262 493.7178,-27.5 503.387,-24.3102 513.987,-21.2096 523.7684,-18.5059"/>
<polygon fill="#191970" stroke="#191970" points="427.3814,-48.3715 419.4209,-55.363 430.0039,-54.8617 427.3814,-48.3715"/>
</g>
</g>
</svg>
