<?xml version="1.0" encoding="UTF-8" standalone="no"?>
<!DOCTYPE svg PUBLIC "-//W3C//DTD SVG 1.1//EN"
 "http://www.w3.org/Graphics/SVG/1.1/DTD/svg11.dtd">
<!-- Generated by graphviz version 2.40.1 (20161225.0304)
 -->
<!-- Title: Phase Pages: 1 -->
<svg width="233pt" height="97pt"
 viewBox="0.00 0.00 233.00 97.00" xmlns="http://www.w3.org/2000/svg" xmlns:xlink="http://www.w3.org/1999/xlink">
<g id="graph0" class="graph" transform="scale(1 1) rotate(0) translate(4 93)">
<title>Phase</title>
<polygon fill="#ffffff" stroke="transparent" points="-4,4 -4,-93 229,-93 229,4 -4,4"/>
<!-- Node39 -->
<g id="node1" class="node">
<title>Node39</title>
<polygon fill="#bfbfbf" stroke="#000000" points="126,-.5 126,-19.5 172,-19.5 172,-.5 126,-.5"/>
<text text-anchor="middle" x="149" y="-7.5" font-family="Helvetica,sans-Serif" font-size="10.00" fill="#000000">Phase</text>
</g>
<!-- Node40 -->
<g id="node2" class="node">
<title>Node40</title>
<g id="a_node2"><a xlink:href="classCantera_1_1XML__Node.html" target="_top" xlink:title="Class XML_Node is a tree&#45;based representation of the contents of an XML file. ">
<polygon fill="#ffffff" stroke="#000000" points="0,-68.5 0,-87.5 68,-87.5 68,-68.5 0,-68.5"/>
<text text-anchor="middle" x="34" y="-75.5" font-family="Helvetica,sans-Serif" font-size="10.00" fill="#000000">XML_Node</text>
</a>
</g>
</g>
<!-- Node40&#45;&gt;Node39 -->
<g id="edge1" class="edge">
<title>Node40&#45;&gt;Node39</title>
<path fill="none" stroke="#9a32cd" stroke-dasharray="5,2" d="M59.1385,-63.1355C81.5828,-49.8641 113.7818,-30.8247 132.9246,-19.5054"/>
<polygon fill="#9a32cd" stroke="#9a32cd" points="57.303,-60.1547 50.4767,-68.2573 60.8659,-66.1801 57.303,-60.1547"/>
<text text-anchor="middle" x="117.5" y="-41" font-family="Helvetica,sans-Serif" font-size="10.00" fill="#000000"> m_xml</text>
</g>
<!-- Node40&#45;&gt;Node40 -->
<g id="edge2" class="edge">
<title>Node40&#45;&gt;Node40</title>
<path fill="none" stroke="#9a32cd" stroke-dasharray="5,2" d="M78.1476,-83.333C82.9245,-82.3094 86,-80.5317 86,-78 86,-73.9492 78.1268,-71.8289 68.0085,-71.639"/>
<polygon fill="#9a32cd" stroke="#9a32cd" points="77.6044,-79.87 68.0085,-84.361 78.3106,-86.8343 77.6044,-79.87"/>
<text text-anchor="middle" x="109.5" y="-81" font-family="Helvetica,sans-Serif" font-size="10.00" fill="#000000"> m_root</text>
<text text-anchor="middle" x="109.5" y="-70" font-family="Helvetica,sans-Serif" font-size="10.00" fill="#000000">m_parent</text>
</g>
<!-- Node41 -->
<g id="node3" class="node">
<title>Node41</title>
<g id="a_node3"><a xlink:href="classCantera_1_1ValueCache.html" target="_top" xlink:title="ValueCache">
<polygon fill="#ffffff" stroke="#000000" points="151,-68.5 151,-87.5 225,-87.5 225,-68.5 151,-68.5"/>
<text text-anchor="middle" x="188" y="-75.5" font-family="Helvetica,sans-Serif" font-size="10.00" fill="#000000">ValueCache</text>
</a>
</g>
</g>
<!-- Node41&#45;&gt;Node39 -->
<g id="edge3" class="edge">
<title>Node41&#45;&gt;Node39</title>
<path fill="none" stroke="#9a32cd" stroke-dasharray="5,2" d="M177.2953,-59.3354C169.9433,-46.5165 160.4812,-30.0185 154.5774,-19.7247"/>
<polygon fill="#9a32cd" stroke="#9a32cd" points="174.401,-61.324 182.4123,-68.2573 180.4732,-57.8414 174.401,-61.324"/>
<text text-anchor="middle" x="193.5" y="-41" font-family="Helvetica,sans-Serif" font-size="10.00" fill="#000000"> m_cache</text>
</g>
</g>
</svg>
