<?xml version="1.0" encoding="UTF-8" standalone="no"?>
<!DOCTYPE svg PUBLIC "-//W3C//DTD SVG 1.1//EN"
 "http://www.w3.org/Graphics/SVG/1.1/DTD/svg11.dtd">
<!-- Generated by graphviz version 2.36.0 (20140111.2315)
 -->
<!-- Title: MolarityIonicVPSSTP Pages: 1 -->
<svg width="338pt" height="290pt"
 viewBox="0.00 0.00 338.00 290.00" xmlns="http://www.w3.org/2000/svg" xmlns:xlink="http://www.w3.org/1999/xlink">
<g id="graph0" class="graph" transform="scale(1 1) rotate(0) translate(4 286)">
<title>MolarityIonicVPSSTP</title>
<polygon fill="white" stroke="none" points="-4,4 -4,-286 334,-286 334,4 -4,4"/>
<!-- Node1 -->
<g id="node1" class="node"><title>Node1</title>
<polygon fill="#bfbfbf" stroke="black" points="187,-0.5 187,-19.5 297,-19.5 297,-0.5 187,-0.5"/>
<text text-anchor="middle" x="242" y="-7.5" font-family="FreeSans" font-size="10.00">MolarityIonicVPSSTP</text>
</g>
<!-- Node2 -->
<g id="node2" class="node"><title>Node2</title>
<g id="a_node2"><a xlink:href="classCantera_1_1GibbsExcessVPSSTP.html" target="_top" xlink:title="GibbsExcessVPSSTP">
<polygon fill="white" stroke="black" points="187,-58.5 187,-77.5 297,-77.5 297,-58.5 187,-58.5"/>
<text text-anchor="middle" x="242" y="-65.5" font-family="FreeSans" font-size="10.00">GibbsExcessVPSSTP</text>
</a>
</g>
</g>
<!-- Node2&#45;&gt;Node1 -->
<g id="edge1" class="edge"><title>Node2&#45;&gt;Node1</title>
<path fill="none" stroke="midnightblue" d="M242,-47.953C242,-38.2875 242,-27.0312 242,-19.5052"/>
<polygon fill="midnightblue" stroke="midnightblue" points="238.5,-48.25 242,-58.25 245.5,-48.25 238.5,-48.25"/>
</g>
<!-- Node3 -->
<g id="node3" class="node"><title>Node3</title>
<g id="a_node3"><a xlink:href="classCantera_1_1VPStandardStateTP.html" target="_top" xlink:title="This is a filter class for ThermoPhase that implements some prepatory steps for efficiently handling ...">
<polygon fill="white" stroke="black" points="107,-126.5 107,-145.5 211,-145.5 211,-126.5 107,-126.5"/>
<text text-anchor="middle" x="159" y="-133.5" font-family="FreeSans" font-size="10.00">VPStandardStateTP</text>
</a>
</g>
</g>
<!-- Node3&#45;&gt;Node2 -->
<g id="edge2" class="edge"><title>Node3&#45;&gt;Node2</title>
<path fill="none" stroke="midnightblue" d="M184.05,-121.03C190.431,-117.099 197.138,-112.624 203,-108 214.878,-98.63 226.95,-85.9702 234.452,-77.6507"/>
<polygon fill="midnightblue" stroke="midnightblue" points="181.886,-118.245 175.071,-126.357 185.458,-124.265 181.886,-118.245"/>
</g>
<!-- Node7 -->
<g id="node7" class="node"><title>Node7</title>
<g id="a_node7"><a xlink:href="classCantera_1_1VPSSMgr.html" target="_top" xlink:title="Virtual base class for the classes that manage the calculation of standard state properties for all t...">
<polygon fill="white" stroke="black" points="48.5,-58.5 48.5,-77.5 107.5,-77.5 107.5,-58.5 48.5,-58.5"/>
<text text-anchor="middle" x="78" y="-65.5" font-family="FreeSans" font-size="10.00">VPSSMgr</text>
</a>
</g>
</g>
<!-- Node3&#45;&gt;Node7 -->
<g id="edge8" class="edge"><title>Node3&#45;&gt;Node7</title>
<path fill="none" stroke="#9a32cd" stroke-dasharray="5,2" d="M152.106,-116.543C148.721,-109.413 144.05,-101.634 138,-96 129.223,-87.8258 117.552,-81.8148 106.838,-77.5677"/>
<polygon fill="#9a32cd" stroke="#9a32cd" points="149.06,-118.329 156.154,-126.198 155.515,-115.622 149.06,-118.329"/>
<text text-anchor="middle" x="173.5" y="-99.5" font-family="FreeSans" font-size="10.00"> m_vptp_ptr</text>
</g>
<!-- Node4 -->
<g id="node4" class="node"><title>Node4</title>
<g id="a_node4"><a xlink:href="classCantera_1_1ThermoPhase.html" target="_top" xlink:title="Base class for a phase with thermodynamic properties. ">
<polygon fill="white" stroke="black" points="112.5,-194.5 112.5,-213.5 189.5,-213.5 189.5,-194.5 112.5,-194.5"/>
<text text-anchor="middle" x="151" y="-201.5" font-family="FreeSans" font-size="10.00">ThermoPhase</text>
</a>
</g>
</g>
<!-- Node4&#45;&gt;Node3 -->
<g id="edge3" class="edge"><title>Node4&#45;&gt;Node3</title>
<path fill="none" stroke="midnightblue" d="M153.252,-184.425C154.782,-171.798 156.738,-155.662 157.928,-145.841"/>
<polygon fill="midnightblue" stroke="midnightblue" points="149.775,-184.023 152.046,-194.372 156.724,-184.866 149.775,-184.023"/>
</g>
<!-- Node5 -->
<g id="node5" class="node"><title>Node5</title>
<g id="a_node5"><a xlink:href="classCantera_1_1Phase.html" target="_top" xlink:title="Class Phase is the base class for phases of matter, managing the species and elements in a phase...">
<polygon fill="white" stroke="red" points="129,-262.5 129,-281.5 173,-281.5 173,-262.5 129,-262.5"/>
<text text-anchor="middle" x="151" y="-269.5" font-family="FreeSans" font-size="10.00">Phase</text>
</a>
</g>
</g>
<!-- Node5&#45;&gt;Node4 -->
<g id="edge4" class="edge"><title>Node5&#45;&gt;Node4</title>
<path fill="none" stroke="midnightblue" d="M151,-252.041C151,-239.472 151,-223.563 151,-213.841"/>
<polygon fill="midnightblue" stroke="midnightblue" points="147.5,-252.372 151,-262.372 154.5,-252.372 147.5,-252.372"/>
</g>
<!-- Node6 -->
<g id="node6" class="node"><title>Node6</title>
<g id="a_node6"><a xlink:href="classCantera_1_1MultiSpeciesThermo.html" target="_top" xlink:title="A species thermodynamic property manager for a phase. ">
<polygon fill="white" stroke="black" points="-0.5,-262.5 -0.5,-281.5 104.5,-281.5 104.5,-262.5 -0.5,-262.5"/>
<text text-anchor="middle" x="52" y="-269.5" font-family="FreeSans" font-size="10.00">MultiSpeciesThermo</text>
</a>
</g>
</g>
<!-- Node6&#45;&gt;Node4 -->
<g id="edge5" class="edge"><title>Node6&#45;&gt;Node4</title>
<path fill="none" stroke="#9a32cd" stroke-dasharray="5,2" d="M65.7632,-254.718C72.7648,-247.131 81.7404,-238.391 91,-232 101.999,-224.408 115.477,-218.116 126.87,-213.522"/>
<polygon fill="#9a32cd" stroke="#9a32cd" points="63.0302,-252.525 59.0205,-262.332 68.2706,-257.166 63.0302,-252.525"/>
<text text-anchor="middle" x="119" y="-235.5" font-family="FreeSans" font-size="10.00"> m_spthermo</text>
</g>
<!-- Node6&#45;&gt;Node7 -->
<g id="edge7" class="edge"><title>Node6&#45;&gt;Node7</title>
<path fill="none" stroke="#9a32cd" stroke-dasharray="5,2" d="M53.1548,-251.981C55.3172,-219.704 60.7159,-152.225 71,-96 72.1152,-89.9028 73.8652,-83.1528 75.3364,-77.9271"/>
<polygon fill="#9a32cd" stroke="#9a32cd" points="49.6471,-251.991 52.5014,-262.195 56.6328,-252.438 49.6471,-251.991"/>
<text text-anchor="middle" x="90" y="-167.5" font-family="FreeSans" font-size="10.00"> m_spthermo</text>
</g>
<!-- Node7&#45;&gt;Node3 -->
<g id="edge6" class="edge"><title>Node7&#45;&gt;Node3</title>
<path fill="none" stroke="#9a32cd" stroke-dasharray="5,2" d="M74.2275,-87.7254C73.8521,-94.6872 74.7788,-102.277 79,-108 85.7865,-117.202 95.8643,-123.303 106.598,-127.338"/>
<polygon fill="#9a32cd" stroke="#9a32cd" points="77.7166,-88.0423 75.6028,-77.6605 70.7811,-87.0945 77.7166,-88.0423"/>
<text text-anchor="middle" x="108.5" y="-99.5" font-family="FreeSans" font-size="10.00"> m_VPSS_ptr</text>
</g>
<!-- Node8 -->
<g id="node8" class="node"><title>Node8</title>
<g id="a_node8"><a xlink:href="classCantera_1_1Array2D.html" target="_top" xlink:title="A class for 2D arrays stored in column&#45;major (Fortran&#45;compatible) form. ">
<polygon fill="white" stroke="black" points="233.5,-126.5 233.5,-145.5 284.5,-145.5 284.5,-126.5 233.5,-126.5"/>
<text text-anchor="middle" x="259" y="-133.5" font-family="FreeSans" font-size="10.00">Array2D</text>
</a>
</g>
</g>
<!-- Node8&#45;&gt;Node2 -->
<g id="edge9" class="edge"><title>Node8&#45;&gt;Node2</title>
<path fill="none" stroke="#9a32cd" stroke-dasharray="5,2" d="M254.216,-116.425C250.963,-103.798 246.807,-87.6623 244.277,-77.8411"/>
<polygon fill="#9a32cd" stroke="#9a32cd" points="250.894,-117.561 256.778,-126.372 257.673,-115.815 250.894,-117.561"/>
<text text-anchor="middle" x="291.5" y="-99.5" font-family="FreeSans" font-size="10.00"> dlnActCoeffdlnN_</text>
</g>
</g>
</svg>
