<?xml version="1.0" encoding="UTF-8" standalone="no"?>
<!DOCTYPE svg PUBLIC "-//W3C//DTD SVG 1.1//EN"
 "http://www.w3.org/Graphics/SVG/1.1/DTD/svg11.dtd">
<!-- Generated by graphviz version 2.26.3 (20100126.1600)
 -->
<!-- Title: FlowDevice Pages: 1 -->
<svg width="278pt" height="88pt"
 viewBox="0.00 0.00 278.00 88.00" xmlns="http://www.w3.org/2000/svg" xmlns:xlink="http://www.w3.org/1999/xlink">
<g id="graph1" class="graph" transform="scale(1 1) rotate(0) translate(4 84)">
<title>FlowDevice</title>
<polygon fill="white" stroke="white" points="-4,5 -4,-84 275,-84 275,5 -4,5"/>
<!-- Node1 -->
<g id="node1" class="node"><title>Node1</title>
<polygon fill="#bfbfbf" stroke="black" points="132,-59 132,-79 198,-79 198,-59 132,-59"/>
<text text-anchor="middle" x="165" y="-66" font-family="FreeSans" font-size="10.00">FlowDevice</text>
</g>
<!-- Node2 -->
<g id="node3" class="node"><title>Node2</title>
<a xlink:href="classCantera_1_1MassFlowController.html" target="_top" xlink:title="A class for mass flow controllers. ">
<polygon fill="white" stroke="black" points="-0.5,-1 -0.5,-21 100.5,-21 100.5,-1 -0.5,-1"/>
<text text-anchor="middle" x="50" y="-8" font-family="FreeSans" font-size="10.00">MassFlowController</text>
</a>
</g>
<!-- Node1&#45;&gt;Node2 -->
<g id="edge2" class="edge"><title>Node1&#45;&gt;Node2</title>
<path fill="none" stroke="midnightblue" d="M135.763,-54.2544C115.25,-43.9086 88.3487,-30.3411 70.1878,-21.1817"/>
<polygon fill="midnightblue" stroke="midnightblue" points="134.464,-57.519 144.969,-58.8972 137.616,-51.2689 134.464,-57.519"/>
</g>
<!-- Node3 -->
<g id="node5" class="node"><title>Node3</title>
<a xlink:href="classCantera_1_1PressureController.html" target="_top" xlink:title="A class for flow controllers where the flow rate is equal to the flow rate of a &quot;master&quot; mass flow co...">
<polygon fill="white" stroke="black" points="117.5,-1 117.5,-21 212.5,-21 212.5,-1 117.5,-1"/>
<text text-anchor="middle" x="165" y="-8" font-family="FreeSans" font-size="10.00">PressureController</text>
</a>
</g>
<!-- Node1&#45;&gt;Node3 -->
<g id="edge4" class="edge"><title>Node1&#45;&gt;Node3</title>
<path fill="none" stroke="midnightblue" d="M165,-48.8902C165,-39.6201 165,-29.0083 165,-21.3776"/>
<polygon fill="midnightblue" stroke="midnightblue" points="161.5,-48.8971 165,-58.8972 168.5,-48.8972 161.5,-48.8971"/>
</g>
<!-- Node4 -->
<g id="node7" class="node"><title>Node4</title>
<a xlink:href="classCantera_1_1Valve.html" target="_top" xlink:title="Supply a mass flow rate that is a function of the pressure drop across the valve. ...">
<polygon fill="white" stroke="black" points="230,-1 230,-21 270,-21 270,-1 230,-1"/>
<text text-anchor="middle" x="250" y="-8" font-family="FreeSans" font-size="10.00">Valve</text>
</a>
</g>
<!-- Node1&#45;&gt;Node4 -->
<g id="edge6" class="edge"><title>Node1&#45;&gt;Node4</title>
<path fill="none" stroke="midnightblue" d="M188.485,-52.975C203.381,-42.8109 222.202,-29.9681 235.079,-21.1817"/>
<polygon fill="midnightblue" stroke="midnightblue" points="186.093,-50.3697 179.806,-58.8972 190.039,-56.1518 186.093,-50.3697"/>
</g>
</g>
</svg>
