<?xml version="1.0" encoding="UTF-8" standalone="no"?>
<!DOCTYPE svg PUBLIC "-//W3C//DTD SVG 1.1//EN"
 "http://www.w3.org/Graphics/SVG/1.1/DTD/svg11.dtd">
<!-- Generated by graphviz version 2.40.1 (20161225.0304)
 -->
<!-- Title: WaterSSTP Pages: 1 -->
<svg width="332pt" height="288pt"
 viewBox="0.00 0.00 332.01 288.00" xmlns="http://www.w3.org/2000/svg" xmlns:xlink="http://www.w3.org/1999/xlink">
<g id="graph0" class="graph" transform="scale(1 1) rotate(0) translate(4 284)">
<title>WaterSSTP</title>
<polygon fill="#ffffff" stroke="transparent" points="-4,4 -4,-284 328.0137,-284 328.0137,4 -4,4"/>
<!-- Node4 -->
<g id="node1" class="node">
<title>Node4</title>
<polygon fill="#bfbfbf" stroke="#000000" points="174.8037,-.5 174.8037,-18.5 243.2256,-18.5 243.2256,-.5 174.8037,-.5"/>
<text text-anchor="middle" x="209.0146" y="-6.5" font-family="Helvetica,sans-Serif" font-size="10.00" fill="#000000">WaterSSTP</text>
</g>
<!-- Node5 -->
<g id="node2" class="node">
<title>Node5</title>
<g id="a_node2"><a xlink:href="classCantera_1_1SingleSpeciesTP.html" target="_top" xlink:title="The SingleSpeciesTP class is a filter class for ThermoPhase. ">
<polygon fill="#ffffff" stroke="#000000" points="106.9385,-65.5 106.9385,-83.5 199.0908,-83.5 199.0908,-65.5 106.9385,-65.5"/>
<text text-anchor="middle" x="153.0146" y="-71.5" font-family="Helvetica,sans-Serif" font-size="10.00" fill="#000000">SingleSpeciesTP</text>
</a>
</g>
</g>
<!-- Node5&#45;&gt;Node4 -->
<g id="edge1" class="edge">
<title>Node5&#45;&gt;Node4</title>
<path fill="none" stroke="#191970" d="M167.5134,-57.6711C178.1535,-45.321 192.2132,-29.0016 200.9316,-18.8821"/>
<polygon fill="#191970" stroke="#191970" points="164.6767,-55.6014 160.8012,-65.462 169.98,-60.1704 164.6767,-55.6014"/>
</g>
<!-- Node6 -->
<g id="node3" class="node">
<title>Node6</title>
<g id="a_node3"><a xlink:href="classCantera_1_1ThermoPhase.html" target="_top" xlink:title="Base class for a phase with thermodynamic properties. ">
<polygon fill="#ffffff" stroke="#000000" points="113.6108,-130.5 113.6108,-148.5 192.4185,-148.5 192.4185,-130.5 113.6108,-130.5"/>
<text text-anchor="middle" x="153.0146" y="-136.5" font-family="Helvetica,sans-Serif" font-size="10.00" fill="#000000">ThermoPhase</text>
</a>
</g>
</g>
<!-- Node6&#45;&gt;Node5 -->
<g id="edge2" class="edge">
<title>Node6&#45;&gt;Node5</title>
<path fill="none" stroke="#191970" d="M153.0146,-120.1265C153.0146,-108.1522 153.0146,-93.3205 153.0146,-83.8821"/>
<polygon fill="#191970" stroke="#191970" points="149.5147,-120.462 153.0146,-130.462 156.5147,-120.4621 149.5147,-120.462"/>
</g>
<!-- Node7 -->
<g id="node4" class="node">
<title>Node7</title>
<g id="a_node4"><a xlink:href="classCantera_1_1Phase.html" target="_top" xlink:title="Class Phase is the base class for phases of matter, managing the species and elements in a phase...">
<polygon fill="#ffffff" stroke="#000000" points="83.8374,-195.5 83.8374,-213.5 128.1919,-213.5 128.1919,-195.5 83.8374,-195.5"/>
<text text-anchor="middle" x="106.0146" y="-201.5" font-family="Helvetica,sans-Serif" font-size="10.00" fill="#000000">Phase</text>
</a>
</g>
</g>
<!-- Node7&#45;&gt;Node6 -->
<g id="edge3" class="edge">
<title>Node7&#45;&gt;Node6</title>
<path fill="none" stroke="#191970" d="M118.4417,-187.3137C127.3398,-175.0077 138.9838,-158.9043 146.2306,-148.8821"/>
<polygon fill="#191970" stroke="#191970" points="115.5731,-185.3077 112.5498,-195.462 121.2455,-189.4093 115.5731,-185.3077"/>
</g>
<!-- Node8 -->
<g id="node5" class="node">
<title>Node8</title>
<g id="a_node5"><a xlink:href="classCantera_1_1XML__Node.html" target="_top" xlink:title="Class XML_Node is a tree&#45;based representation of the contents of an XML file. ">
<polygon fill="#ffffff" stroke="#000000" points="0,-261 0,-279 66.0293,-279 66.0293,-261 0,-261"/>
<text text-anchor="middle" x="33.0146" y="-267" font-family="Helvetica,sans-Serif" font-size="10.00" fill="#000000">XML_Node</text>
</a>
</g>
</g>
<!-- Node8&#45;&gt;Node7 -->
<g id="edge4" class="edge">
<title>Node8&#45;&gt;Node7</title>
<path fill="none" stroke="#9a32cd" stroke-dasharray="5,2" d="M50.8197,-254.0243C64.9973,-241.3032 84.3298,-223.9569 95.9505,-213.5301"/>
<polygon fill="#9a32cd" stroke="#9a32cd" points="48.2706,-251.609 43.165,-260.8925 52.9455,-256.8192 48.2706,-251.609"/>
<text text-anchor="middle" x="90.1255" y="-234" font-family="Helvetica,sans-Serif" font-size="10.00" fill="#000000"> m_xml</text>
</g>
<!-- Node8&#45;&gt;Node8 -->
<g id="edge5" class="edge">
<title>Node8&#45;&gt;Node8</title>
<path fill="none" stroke="#9a32cd" stroke-dasharray="5,2" d="M76.6741,-274.9457C81.1611,-273.9718 84.0293,-272.3232 84.0293,-270 84.0293,-266.1875 76.3053,-264.1919 66.3787,-264.0132"/>
<polygon fill="#9a32cd" stroke="#9a32cd" points="75.9758,-271.4984 66.3787,-275.9868 76.6801,-278.4628 75.9758,-271.4984"/>
<text text-anchor="middle" x="105.1523" y="-272" font-family="Helvetica,sans-Serif" font-size="10.00" fill="#000000"> m_root</text>
<text text-anchor="middle" x="105.1523" y="-262" font-family="Helvetica,sans-Serif" font-size="10.00" fill="#000000">m_parent</text>
</g>
<!-- Node9 -->
<g id="node6" class="node">
<title>Node9</title>
<g id="a_node6"><a xlink:href="classCantera_1_1ValueCache.html" target="_top" xlink:title="ValueCache">
<polygon fill="#ffffff" stroke="#000000" points="144.1421,-261 144.1421,-279 213.8872,-279 213.8872,-261 144.1421,-261"/>
<text text-anchor="middle" x="179.0146" y="-267" font-family="Helvetica,sans-Serif" font-size="10.00" fill="#000000">ValueCache</text>
</a>
</g>
</g>
<!-- Node9&#45;&gt;Node7 -->
<g id="edge6" class="edge">
<title>Node9&#45;&gt;Node7</title>
<path fill="none" stroke="#9a32cd" stroke-dasharray="5,2" d="M161.2096,-254.0243C147.032,-241.3032 127.6995,-223.9569 116.0788,-213.5301"/>
<polygon fill="#9a32cd" stroke="#9a32cd" points="159.0838,-256.8192 168.8643,-260.8925 163.7587,-251.609 159.0838,-256.8192"/>
<text text-anchor="middle" x="168.6919" y="-234" font-family="Helvetica,sans-Serif" font-size="10.00" fill="#000000"> m_cache</text>
</g>
<!-- Node10 -->
<g id="node7" class="node">
<title>Node10</title>
<g id="a_node7"><a xlink:href="classCantera_1_1MultiSpeciesThermo.html" target="_top" xlink:title="A species thermodynamic property manager for a phase. ">
<polygon fill="#ffffff" stroke="#000000" points="146.4434,-195.5 146.4434,-213.5 253.5859,-213.5 253.5859,-195.5 146.4434,-195.5"/>
<text text-anchor="middle" x="200.0146" y="-201.5" font-family="Helvetica,sans-Serif" font-size="10.00" fill="#000000">MultiSpeciesThermo</text>
</a>
</g>
</g>
<!-- Node10&#45;&gt;Node6 -->
<g id="edge7" class="edge">
<title>Node10&#45;&gt;Node6</title>
<path fill="none" stroke="#9a32cd" stroke-dasharray="5,2" d="M187.5876,-187.3137C178.6894,-175.0077 167.0455,-158.9043 159.7987,-148.8821"/>
<polygon fill="#9a32cd" stroke="#9a32cd" points="184.7838,-189.4093 193.4795,-195.462 190.4562,-185.3077 184.7838,-189.4093"/>
<text text-anchor="middle" x="209.1919" y="-169" font-family="Helvetica,sans-Serif" font-size="10.00" fill="#000000"> m_spthermo</text>
</g>
<!-- Node11 -->
<g id="node8" class="node">
<title>Node11</title>
<g id="a_node8"><a xlink:href="classCantera_1_1WaterPropsIAPWS.html" target="_top" xlink:title="Class for calculating the equation of state of water. ">
<polygon fill="#ffffff" stroke="#000000" points="216.688,-65.5 216.688,-83.5 317.3413,-83.5 317.3413,-65.5 216.688,-65.5"/>
<text text-anchor="middle" x="267.0146" y="-71.5" font-family="Helvetica,sans-Serif" font-size="10.00" fill="#000000">WaterPropsIAPWS</text>
</a>
</g>
</g>
<!-- Node11&#45;&gt;Node4 -->
<g id="edge8" class="edge">
<title>Node11&#45;&gt;Node4</title>
<path fill="none" stroke="#9a32cd" stroke-dasharray="5,2" d="M251.9981,-57.6711C240.978,-45.321 226.4161,-29.0016 217.3864,-18.8821"/>
<polygon fill="#9a32cd" stroke="#9a32cd" points="249.6806,-60.3309 258.95,-65.462 254.9036,-55.6703 249.6806,-60.3309"/>
<text text-anchor="middle" x="258.4111" y="-39" font-family="Helvetica,sans-Serif" font-size="10.00" fill="#000000"> m_sub</text>
</g>
<!-- Node12 -->
<g id="node9" class="node">
<title>Node12</title>
<g id="a_node9"><a xlink:href="classCantera_1_1WaterPropsIAPWSphi.html" target="_top" xlink:title="Low level class for the real description of water. ">
<polygon fill="#ffffff" stroke="#000000" points="210.0156,-130.5 210.0156,-148.5 324.0137,-148.5 324.0137,-130.5 210.0156,-130.5"/>
<text text-anchor="middle" x="267.0146" y="-136.5" font-family="Helvetica,sans-Serif" font-size="10.00" fill="#000000">WaterPropsIAPWSphi</text>
</a>
</g>
</g>
<!-- Node12&#45;&gt;Node11 -->
<g id="edge9" class="edge">
<title>Node12&#45;&gt;Node11</title>
<path fill="none" stroke="#9a32cd" stroke-dasharray="5,2" d="M267.0146,-120.1265C267.0146,-108.1522 267.0146,-93.3205 267.0146,-83.8821"/>
<polygon fill="#9a32cd" stroke="#9a32cd" points="263.5147,-120.462 267.0146,-130.462 270.5147,-120.4621 263.5147,-120.462"/>
<text text-anchor="middle" x="282.022" y="-104" font-family="Helvetica,sans-Serif" font-size="10.00" fill="#000000"> m_phi</text>
</g>
</g>
</svg>
