<?xml version="1.0" encoding="UTF-8" standalone="no"?>
<!DOCTYPE svg PUBLIC "-//W3C//DTD SVG 1.1//EN"
 "http://www.w3.org/Graphics/SVG/1.1/DTD/svg11.dtd">
<!-- Generated by graphviz version 2.26.3 (20100126.1600)
 -->
<!-- Title: clockWC.h Pages: 1 -->
<svg width="1146pt" height="88pt"
 viewBox="0.00 0.00 1146.00 88.00" xmlns="http://www.w3.org/2000/svg" xmlns:xlink="http://www.w3.org/1999/xlink">
<g id="graph1" class="graph" transform="scale(1 1) rotate(0) translate(4 84)">
<title>clockWC.h</title>
<polygon fill="white" stroke="white" points="-4,5 -4,-84 1143,-84 1143,5 -4,5"/>
<!-- Node1 -->
<g id="node1" class="node"><title>Node1</title>
<polygon fill="#bfbfbf" stroke="black" points="546.5,-59 546.5,-79 609.5,-79 609.5,-59 546.5,-59"/>
<text text-anchor="middle" x="578" y="-66" font-family="FreeSans" font-size="10.00">clockWC.h</text>
</g>
<!-- Node2 -->
<g id="node3" class="node"><title>Node2</title>
<a xlink:href="clockWC_8cpp.html" target="_top" xlink:title="Definitions for a simple class that implements an Ansi C wall clock timer (see Cantera::clockWC). ">
<polygon fill="white" stroke="black" points="0,-1 0,-21 74,-21 74,-1 0,-1"/>
<text text-anchor="middle" x="37" y="-8" font-family="FreeSans" font-size="10.00">clockWC.cpp</text>
</a>
</g>
<!-- Node1&#45;&gt;Node2 -->
<g id="edge2" class="edge"><title>Node1&#45;&gt;Node2</title>
<path fill="none" stroke="midnightblue" d="M536.144,-67.0081C450.558,-62.5001 249.558,-49.6819 83,-22 80.0839,-21.5154 77.0784,-20.9495 74.0661,-20.3348"/>
<polygon fill="midnightblue" stroke="midnightblue" points="536.072,-70.509 546.239,-67.5293 536.433,-63.5183 536.072,-70.509"/>
</g>
<!-- Node3 -->
<g id="node5" class="node"><title>Node3</title>
<a xlink:href="vcs__inest_8cpp.html" target="_top" xlink:title="Implementation methods for obtaining a good initial guess. ">
<polygon fill="white" stroke="black" points="92,-1 92,-21 166,-21 166,-1 92,-1"/>
<text text-anchor="middle" x="129" y="-8" font-family="FreeSans" font-size="10.00">vcs_inest.cpp</text>
</a>
</g>
<!-- Node1&#45;&gt;Node3 -->
<g id="edge4" class="edge"><title>Node1&#45;&gt;Node3</title>
<path fill="none" stroke="midnightblue" d="M536.246,-65.7743C462.807,-59.7355 305.893,-45.1985 175,-22 172.089,-21.4841 169.088,-20.8958 166.078,-20.2656"/>
<polygon fill="midnightblue" stroke="midnightblue" points="536.212,-69.283 546.462,-66.6036 536.778,-62.3059 536.212,-69.283"/>
</g>
<!-- Node4 -->
<g id="node7" class="node"><title>Node4</title>
<a xlink:href="vcs__MultiPhaseEquil_8cpp.html" target="_top" xlink:title="Driver routine for the VCSnonideal equilibrium solver package. ">
<polygon fill="white" stroke="black" points="183.5,-1 183.5,-21 306.5,-21 306.5,-1 183.5,-1"/>
<text text-anchor="middle" x="245" y="-8" font-family="FreeSans" font-size="10.00">vcs_MultiPhaseEquil.cpp</text>
</a>
</g>
<!-- Node1&#45;&gt;Node4 -->
<g id="edge6" class="edge"><title>Node1&#45;&gt;Node4</title>
<path fill="none" stroke="midnightblue" d="M536.299,-61.7368C477.326,-51.4652 369.337,-32.6563 302.702,-21.0502"/>
<polygon fill="midnightblue" stroke="midnightblue" points="535.92,-65.2233 546.372,-63.4912 537.121,-58.3271 535.92,-65.2233"/>
</g>
<!-- Node5 -->
<g id="node9" class="node"><title>Node5</title>
<a xlink:href="vcs__rank_8cpp.html" target="_top" xlink:title="vcs_rank.cpp">
<polygon fill="white" stroke="black" points="323.5,-1 323.5,-21 396.5,-21 396.5,-1 323.5,-1"/>
<text text-anchor="middle" x="360" y="-8" font-family="FreeSans" font-size="10.00">vcs_rank.cpp</text>
</a>
</g>
<!-- Node1&#45;&gt;Node5 -->
<g id="edge8" class="edge"><title>Node1&#45;&gt;Node5</title>
<path fill="none" stroke="midnightblue" d="M536.512,-57.9618C496.182,-47.2319 435.512,-31.0904 396.842,-20.802"/>
<polygon fill="midnightblue" stroke="midnightblue" points="535.737,-61.3775 546.301,-60.5663 537.537,-54.6128 535.737,-61.3775"/>
</g>
<!-- Node6 -->
<g id="node11" class="node"><title>Node6</title>
<a xlink:href="vcs__solve_8cpp.html" target="_top" xlink:title="vcs_solve.cpp">
<polygon fill="white" stroke="black" points="414,-1 414,-21 490,-21 490,-1 414,-1"/>
<text text-anchor="middle" x="452" y="-8" font-family="FreeSans" font-size="10.00">vcs_solve.cpp</text>
</a>
</g>
<!-- Node1&#45;&gt;Node6 -->
<g id="edge10" class="edge"><title>Node1&#45;&gt;Node6</title>
<path fill="none" stroke="midnightblue" d="M546.878,-54.674C524.293,-44.2778 494.287,-30.4654 474.119,-21.1817"/>
<polygon fill="midnightblue" stroke="midnightblue" points="545.505,-57.895 556.052,-58.8972 548.432,-51.5363 545.505,-57.895"/>
</g>
<!-- Node7 -->
<g id="node13" class="node"><title>Node7</title>
<a xlink:href="vcs__solve__phaseStability_8cpp.html" target="_top" xlink:title="vcs_solve_phaseStability.cpp">
<polygon fill="white" stroke="black" points="507.5,-1 507.5,-21 648.5,-21 648.5,-1 507.5,-1"/>
<text text-anchor="middle" x="578" y="-8" font-family="FreeSans" font-size="10.00">vcs_solve_phaseStability.cpp</text>
</a>
</g>
<!-- Node1&#45;&gt;Node7 -->
<g id="edge12" class="edge"><title>Node1&#45;&gt;Node7</title>
<path fill="none" stroke="midnightblue" d="M578,-48.8902C578,-39.6201 578,-29.0083 578,-21.3776"/>
<polygon fill="midnightblue" stroke="midnightblue" points="574.5,-48.8971 578,-58.8972 581.5,-48.8972 574.5,-48.8971"/>
</g>
<!-- Node8 -->
<g id="node15" class="node"><title>Node8</title>
<a xlink:href="vcs__solve__TP_8cpp.html" target="_top" xlink:title="Implementation file that contains the main algorithm for finding an equilibrium. ">
<polygon fill="white" stroke="black" points="666,-1 666,-21 760,-21 760,-1 666,-1"/>
<text text-anchor="middle" x="713" y="-8" font-family="FreeSans" font-size="10.00">vcs_solve_TP.cpp</text>
</a>
</g>
<!-- Node1&#45;&gt;Node8 -->
<g id="edge14" class="edge"><title>Node1&#45;&gt;Node8</title>
<path fill="none" stroke="midnightblue" d="M611.021,-54.813C635.256,-44.4012 667.596,-30.5069 689.301,-21.1817"/>
<polygon fill="midnightblue" stroke="midnightblue" points="609.322,-51.7339 601.515,-58.8972 612.085,-58.1655 609.322,-51.7339"/>
</g>
<!-- Node9 -->
<g id="node17" class="node"><title>Node9</title>
<a xlink:href="solveSP_8cpp_source.html" target="_top" xlink:title="solveSP.cpp">
<polygon fill="white" stroke="black" points="778,-1 778,-21 848,-21 848,-1 778,-1"/>
<text text-anchor="middle" x="813" y="-8" font-family="FreeSans" font-size="10.00">solveSP.cpp</text>
</a>
</g>
<!-- Node1&#45;&gt;Node9 -->
<g id="edge16" class="edge"><title>Node1&#45;&gt;Node9</title>
<path fill="none" stroke="midnightblue" d="M619.639,-58.8007C658.339,-49.3102 717.581,-34.7539 769,-22 771.904,-21.2797 774.916,-20.5308 777.938,-19.7778"/>
<polygon fill="midnightblue" stroke="midnightblue" points="618.656,-55.4381 609.777,-61.2187 620.322,-62.2368 618.656,-55.4381"/>
</g>
<!-- Node10 -->
<g id="node19" class="node"><title>Node10</title>
<a xlink:href="NonlinearSolver_8cpp.html" target="_top" xlink:title="Damped Newton solver for 0D and 1D problems. ">
<polygon fill="white" stroke="black" points="866,-1 866,-21 968,-21 968,-1 866,-1"/>
<text text-anchor="middle" x="917" y="-8" font-family="FreeSans" font-size="10.00">NonlinearSolver.cpp</text>
</a>
</g>
<!-- Node1&#45;&gt;Node10 -->
<g id="edge18" class="edge"><title>Node1&#45;&gt;Node10</title>
<path fill="none" stroke="midnightblue" d="M619.818,-62.1486C674.411,-53.1597 772.921,-36.7884 857,-22 859.92,-21.4863 862.92,-20.9534 865.946,-20.4117"/>
<polygon fill="midnightblue" stroke="midnightblue" points="619.125,-58.7155 609.825,-63.7922 620.261,-65.6227 619.125,-58.7155"/>
</g>
<!-- Node11 -->
<g id="node21" class="node"><title>Node11</title>
<a xlink:href="solveProb_8cpp.html" target="_top" xlink:title="Implicit solver for nonlinear problems. ">
<polygon fill="white" stroke="black" points="985.5,-1 985.5,-21 1062.5,-21 1062.5,-1 985.5,-1"/>
<text text-anchor="middle" x="1024" y="-8" font-family="FreeSans" font-size="10.00">solveProb.cpp</text>
</a>
</g>
<!-- Node1&#45;&gt;Node11 -->
<g id="edge20" class="edge"><title>Node1&#45;&gt;Node11</title>
<path fill="none" stroke="midnightblue" d="M619.88,-65.631C692.802,-59.4167 847.675,-44.6764 977,-22 979.724,-21.5224 982.527,-20.9851 985.342,-20.4115"/>
<polygon fill="midnightblue" stroke="midnightblue" points="619.399,-62.159 609.728,-66.4859 619.986,-69.1343 619.399,-62.159"/>
</g>
<!-- Node12 -->
<g id="node23" class="node"><title>Node12</title>
<a xlink:href="Cantera_8h.html" target="_top" xlink:title="Basic include file to be used in all Cantera application environments. ">
<polygon fill="white" stroke="black" points="1080,-1 1080,-21 1138,-21 1138,-1 1080,-1"/>
<text text-anchor="middle" x="1109" y="-8" font-family="FreeSans" font-size="10.00">Cantera.h</text>
</a>
</g>
<!-- Node1&#45;&gt;Node12 -->
<g id="edge22" class="edge"><title>Node1&#45;&gt;Node12</title>
<path fill="none" stroke="midnightblue" d="M619.803,-67.6454C705.255,-64.3006 905.809,-53.4971 1071,-22 1073.83,-21.4597 1076.76,-20.8006 1079.67,-20.0763"/>
<polygon fill="midnightblue" stroke="midnightblue" points="619.584,-64.1511 609.723,-68.026 619.848,-71.1461 619.584,-64.1511"/>
</g>
</g>
</svg>
