<?xml version="1.0" encoding="UTF-8" standalone="no"?>
<!DOCTYPE svg PUBLIC "-//W3C//DTD SVG 1.1//EN"
 "http://www.w3.org/Graphics/SVG/1.1/DTD/svg11.dtd">
<!-- Generated by graphviz version 2.28.0 (20120425.2022)
 -->
<!-- Title: ConstDensityThermo.h Pages: 1 -->
<svg width="732pt" height="420pt"
 viewBox="0.00 0.00 732.22 420.00" xmlns="http://www.w3.org/2000/svg" xmlns:xlink="http://www.w3.org/1999/xlink">
<g id="graph1" class="graph" transform="scale(1 1) rotate(0) translate(4 416)">
<title>ConstDensityThermo.h</title>
<polygon fill="white" stroke="white" points="-4,5 -4,-416 729.221,-416 729.221,5 -4,5"/>
<!-- Node1 -->
<g id="node1" class="node"><title>Node1</title>
<polygon fill="#bfbfbf" stroke="black" points="62.2208,-392.5 62.2208,-411.5 182.221,-411.5 182.221,-392.5 62.2208,-392.5"/>
<text text-anchor="middle" x="122.221" y="-399.5" font-family="FreeSans" font-size="10.00">ConstDensityThermo.h</text>
</g>
<!-- Node2 -->
<g id="node3" class="node"><title>Node2</title>
<a xlink:href="ct__defs_8h.html" target="_top" xlink:title="This file contains definitions of terms that are used in internal routines and are unlikely to need m...">
<polygon fill="white" stroke="black" points="496.721,-56.5 496.721,-75.5 615.721,-75.5 615.721,-56.5 496.721,-56.5"/>
<text text-anchor="middle" x="556.221" y="-63.5" font-family="FreeSans" font-size="10.00">cantera/base/ct_defs.h</text>
</a>
</g>
<!-- Node1&#45;&gt;Node2 -->
<g id="edge2" class="edge"><title>Node1&#45;&gt;Node2</title>
<path fill="none" stroke="midnightblue" d="M122.221,-392.442C122.221,-373.936 122.221,-328.812 122.221,-291 122.221,-291 122.221,-291 122.221,-177 122.221,-146.902 118.147,-131.325 141.221,-112 167.082,-90.3407 374.843,-76.3837 486.235,-70.3821"/>
<polygon fill="midnightblue" stroke="midnightblue" points="486.577,-73.869 496.377,-69.8433 486.206,-66.8789 486.577,-73.869"/>
</g>
<!-- Node9 -->
<g id="node17" class="node"><title>Node9</title>
<a xlink:href="mix__defs_8h.html" target="_top" xlink:title="mix_defs.h">
<polygon fill="white" stroke="black" points="28.7208,-336.5 28.7208,-355.5 93.7208,-355.5 93.7208,-336.5 28.7208,-336.5"/>
<text text-anchor="middle" x="61.2208" y="-343.5" font-family="FreeSans" font-size="10.00">mix_defs.h</text>
</a>
</g>
<!-- Node1&#45;&gt;Node9 -->
<g id="edge16" class="edge"><title>Node1&#45;&gt;Node9</title>
<path fill="none" stroke="midnightblue" d="M112.42,-392.324C103.403,-384.341 89.8148,-372.313 78.9027,-362.653"/>
<polygon fill="midnightblue" stroke="midnightblue" points="81.0074,-359.842 71.1998,-355.834 76.3675,-365.083 81.0074,-359.842"/>
</g>
<!-- Node10 -->
<g id="node19" class="node"><title>Node10</title>
<a xlink:href="ThermoPhase_8h.html" target="_top" xlink:title="Header file for class ThermoPhase, the base class for phases with thermodynamic properties, and the text for the Module thermoprops (see Thermodynamic Properties and class ThermoPhase). ">
<polygon fill="white" stroke="black" points="351.721,-336.5 351.721,-355.5 440.721,-355.5 440.721,-336.5 351.721,-336.5"/>
<text text-anchor="middle" x="396.221" y="-343.5" font-family="FreeSans" font-size="10.00">ThermoPhase.h</text>
</a>
</g>
<!-- Node1&#45;&gt;Node10 -->
<g id="edge18" class="edge"><title>Node1&#45;&gt;Node10</title>
<path fill="none" stroke="midnightblue" d="M165.637,-392.444C213.736,-382.964 291.316,-367.675 343.027,-357.483"/>
<polygon fill="midnightblue" stroke="midnightblue" points="343.873,-360.884 353.008,-355.516 342.52,-354.016 343.873,-360.884"/>
</g>
<!-- Node13 -->
<g id="node26" class="node"><title>Node13</title>
<a xlink:href="utilities_8h.html" target="_top" xlink:title="Various templated functions that carry out common vector operations (see Templated Utility Functions)...">
<polygon fill="white" stroke="black" points="298.221,-112.5 298.221,-131.5 352.221,-131.5 352.221,-112.5 298.221,-112.5"/>
<text text-anchor="middle" x="325.221" y="-119.5" font-family="FreeSans" font-size="10.00">utilities.h</text>
</a>
</g>
<!-- Node1&#45;&gt;Node13 -->
<g id="edge68" class="edge"><title>Node1&#45;&gt;Node13</title>
<path fill="none" stroke="midnightblue" d="M82.8428,-392.487C61.2706,-385.914 35.6572,-374.678 19.2208,-356 -0.662325,-333.405 0.220775,-321.098 0.220775,-291 0.220775,-291 0.220775,-291 0.220775,-233 0.220775,-217.938 203.128,-158.002 288.29,-133.51"/>
<polygon fill="midnightblue" stroke="midnightblue" points="289.423,-136.826 298.07,-130.704 287.493,-130.097 289.423,-136.826"/>
</g>
<!-- Node23 -->
<g id="node54" class="node"><title>Node23</title>
<a xlink:href="SpeciesThermo_8h.html" target="_top" xlink:title="Virtual base class for the calculation of multiple&#45;species thermodynamic reference&#45;state property man...">
<polygon fill="white" stroke="black" points="440.721,-280.5 440.721,-299.5 537.721,-299.5 537.721,-280.5 440.721,-280.5"/>
<text text-anchor="middle" x="489.221" y="-287.5" font-family="FreeSans" font-size="10.00">SpeciesThermo.h</text>
</a>
</g>
<!-- Node1&#45;&gt;Node23 -->
<g id="edge66" class="edge"><title>Node1&#45;&gt;Node23</title>
<path fill="none" stroke="midnightblue" d="M182.549,-398.79C264.7,-394.765 406.442,-383.902 449.221,-356 465.993,-345.06 476.903,-324.385 483.026,-309.281"/>
<polygon fill="midnightblue" stroke="midnightblue" points="486.309,-310.495 486.514,-299.902 479.748,-308.055 486.309,-310.495"/>
</g>
<!-- Node3 -->
<g id="node5" class="node"><title>Node3</title>
<a xlink:href="config_8h_source.html" target="_top" xlink:title="config.h">
<polygon fill="white" stroke="black" points="370.721,-0.5 370.721,-19.5 421.721,-19.5 421.721,-0.5 370.721,-0.5"/>
<text text-anchor="middle" x="396.221" y="-7.5" font-family="FreeSans" font-size="10.00">config.h</text>
</a>
</g>
<!-- Node2&#45;&gt;Node3 -->
<g id="edge4" class="edge"><title>Node2&#45;&gt;Node3</title>
<path fill="none" stroke="midnightblue" d="M530.868,-56.4435C503.951,-47.3591 461.224,-32.9388 431.134,-22.7831"/>
<polygon fill="midnightblue" stroke="midnightblue" points="432.049,-19.3981 421.455,-19.5164 429.81,-26.0305 432.049,-19.3981"/>
</g>
<!-- Node4 -->
<g id="node7" class="node"><title>Node4</title>
<polygon fill="white" stroke="#bfbfbf" points="440.221,-0.5 440.221,-19.5 484.221,-19.5 484.221,-0.5 440.221,-0.5"/>
<text text-anchor="middle" x="462.221" y="-7.5" font-family="FreeSans" font-size="10.00">cmath</text>
</g>
<!-- Node2&#45;&gt;Node4 -->
<g id="edge6" class="edge"><title>Node2&#45;&gt;Node4</title>
<path fill="none" stroke="midnightblue" d="M541.118,-56.324C526.317,-47.8215 503.527,-34.7288 486.239,-24.7975"/>
<polygon fill="midnightblue" stroke="midnightblue" points="487.701,-21.6009 477.286,-19.6545 484.214,-27.6707 487.701,-21.6009"/>
</g>
<!-- Node5 -->
<g id="node9" class="node"><title>Node5</title>
<polygon fill="white" stroke="#bfbfbf" points="502.721,-0.5 502.721,-19.5 547.721,-19.5 547.721,-0.5 502.721,-0.5"/>
<text text-anchor="middle" x="525.221" y="-7.5" font-family="FreeSans" font-size="10.00">cstdlib</text>
</g>
<!-- Node2&#45;&gt;Node5 -->
<g id="edge8" class="edge"><title>Node2&#45;&gt;Node5</title>
<path fill="none" stroke="midnightblue" d="M551.102,-56.083C546.813,-48.6127 540.563,-37.7244 535.278,-28.5199"/>
<polygon fill="midnightblue" stroke="midnightblue" points="538.259,-26.6811 530.245,-19.7511 532.188,-30.1662 538.259,-26.6811"/>
</g>
<!-- Node6 -->
<g id="node11" class="node"><title>Node6</title>
<polygon fill="white" stroke="#bfbfbf" points="566.221,-0.5 566.221,-19.5 610.221,-19.5 610.221,-0.5 566.221,-0.5"/>
<text text-anchor="middle" x="588.221" y="-7.5" font-family="FreeSans" font-size="10.00">vector</text>
</g>
<!-- Node2&#45;&gt;Node6 -->
<g id="edge10" class="edge"><title>Node2&#45;&gt;Node6</title>
<path fill="none" stroke="midnightblue" d="M561.505,-56.083C565.932,-48.6127 572.384,-37.7244 577.839,-28.5199"/>
<polygon fill="midnightblue" stroke="midnightblue" points="580.948,-30.1383 583.035,-19.7511 574.926,-26.5697 580.948,-30.1383"/>
</g>
<!-- Node7 -->
<g id="node13" class="node"><title>Node7</title>
<polygon fill="white" stroke="#bfbfbf" points="628.221,-0.5 628.221,-19.5 664.221,-19.5 664.221,-0.5 628.221,-0.5"/>
<text text-anchor="middle" x="646.221" y="-7.5" font-family="FreeSans" font-size="10.00">map</text>
</g>
<!-- Node2&#45;&gt;Node7 -->
<g id="edge12" class="edge"><title>Node2&#45;&gt;Node7</title>
<path fill="none" stroke="midnightblue" d="M570.681,-56.324C584.72,-47.9002 606.269,-34.9709 622.764,-25.0741"/>
<polygon fill="midnightblue" stroke="midnightblue" points="625.022,-27.8007 631.797,-19.6545 621.421,-21.7983 625.022,-27.8007"/>
</g>
<!-- Node8 -->
<g id="node15" class="node"><title>Node8</title>
<polygon fill="white" stroke="#bfbfbf" points="682.721,-0.5 682.721,-19.5 723.721,-19.5 723.721,-0.5 682.721,-0.5"/>
<text text-anchor="middle" x="703.221" y="-7.5" font-family="FreeSans" font-size="10.00">string</text>
</g>
<!-- Node2&#45;&gt;Node8 -->
<g id="edge14" class="edge"><title>Node2&#45;&gt;Node8</title>
<path fill="none" stroke="midnightblue" d="M579.513,-56.4435C604.749,-47.1732 645.111,-32.3464 672.827,-22.1652"/>
<polygon fill="midnightblue" stroke="midnightblue" points="674.234,-25.3769 682.414,-18.6433 671.82,-18.8062 674.234,-25.3769"/>
</g>
<!-- Node11 -->
<g id="node21" class="node"><title>Node11</title>
<a xlink:href="Phase_8h.html" target="_top" xlink:title="Header file for class Phase. ">
<polygon fill="white" stroke="black" points="369.721,-280.5 369.721,-299.5 422.721,-299.5 422.721,-280.5 369.721,-280.5"/>
<text text-anchor="middle" x="396.221" y="-287.5" font-family="FreeSans" font-size="10.00">Phase.h</text>
</a>
</g>
<!-- Node10&#45;&gt;Node11 -->
<g id="edge20" class="edge"><title>Node10&#45;&gt;Node11</title>
<path fill="none" stroke="midnightblue" d="M396.221,-336.083C396.221,-329.006 396.221,-318.861 396.221,-309.986"/>
<polygon fill="midnightblue" stroke="midnightblue" points="399.721,-309.751 396.221,-299.751 392.721,-309.751 399.721,-309.751"/>
</g>
<!-- Node10&#45;&gt;Node23 -->
<g id="edge62" class="edge"><title>Node10&#45;&gt;Node23</title>
<path fill="none" stroke="midnightblue" d="M411.163,-336.324C425.806,-327.822 448.354,-314.729 465.458,-304.797"/>
<polygon fill="midnightblue" stroke="midnightblue" points="467.425,-307.703 474.316,-299.655 463.91,-301.649 467.425,-307.703"/>
</g>
<!-- Node12 -->
<g id="node23" class="node"><title>Node12</title>
<a xlink:href="vec__functions_8h.html" target="_top" xlink:title="Templates for operations on vector&#45;like objects. ">
<polygon fill="white" stroke="black" points="250.721,-168.5 250.721,-187.5 397.721,-187.5 397.721,-168.5 250.721,-168.5"/>
<text text-anchor="middle" x="324.221" y="-175.5" font-family="FreeSans" font-size="10.00">cantera/base/vec_functions.h</text>
</a>
</g>
<!-- Node11&#45;&gt;Node12 -->
<g id="edge22" class="edge"><title>Node11&#45;&gt;Node12</title>
<path fill="none" stroke="midnightblue" d="M390.571,-280.368C378.689,-262.215 350.927,-219.802 335.342,-195.99"/>
<polygon fill="midnightblue" stroke="midnightblue" points="338.249,-194.042 329.844,-187.591 332.392,-197.875 338.249,-194.042"/>
</g>
<!-- Node19 -->
<g id="node40" class="node"><title>Node19</title>
<a xlink:href="ctml_8h.html" target="_top" xlink:title="CTML (&quot;Cantera Markup Language&quot;) is the variant of XML that Cantera uses to store data...">
<polygon fill="white" stroke="black" points="384.221,-224.5 384.221,-243.5 488.221,-243.5 488.221,-224.5 384.221,-224.5"/>
<text text-anchor="middle" x="436.221" y="-231.5" font-family="FreeSans" font-size="10.00">cantera/base/ctml.h</text>
</a>
</g>
<!-- Node11&#45;&gt;Node19 -->
<g id="edge42" class="edge"><title>Node11&#45;&gt;Node19</title>
<path fill="none" stroke="midnightblue" d="M402.826,-280.083C408.476,-272.455 416.766,-261.264 423.672,-251.941"/>
<polygon fill="midnightblue" stroke="midnightblue" points="426.599,-253.87 429.738,-243.751 420.974,-249.703 426.599,-253.87"/>
</g>
<!-- Node22 -->
<g id="node51" class="node"><title>Node22</title>
<a xlink:href="Elements_8h.html" target="_top" xlink:title="Contains the LookupWtElements function and the definitions of element constraint types. ">
<polygon fill="white" stroke="black" points="506.221,-224.5 506.221,-243.5 642.221,-243.5 642.221,-224.5 506.221,-224.5"/>
<text text-anchor="middle" x="574.221" y="-231.5" font-family="FreeSans" font-size="10.00">cantera/thermo/Elements.h</text>
</a>
</g>
<!-- Node11&#45;&gt;Node22 -->
<g id="edge58" class="edge"><title>Node11&#45;&gt;Node22</title>
<path fill="none" stroke="midnightblue" d="M422.869,-280.916C452.97,-271.784 502.192,-256.851 536.293,-246.506"/>
<polygon fill="midnightblue" stroke="midnightblue" points="537.364,-249.839 545.917,-243.587 535.332,-243.14 537.364,-249.839"/>
</g>
<!-- Node12&#45;&gt;Node2 -->
<g id="edge24" class="edge"><title>Node12&#45;&gt;Node2</title>
<path fill="none" stroke="midnightblue" d="M332.067,-168.052C344.796,-154.076 371.347,-127.105 399.221,-112 429.345,-95.6751 466.012,-84.7353 496.333,-77.7341"/>
<polygon fill="midnightblue" stroke="midnightblue" points="497.35,-81.0936 506.353,-75.5088 495.832,-74.26 497.35,-81.0936"/>
</g>
<!-- Node12&#45;&gt;Node13 -->
<g id="edge26" class="edge"><title>Node12&#45;&gt;Node13</title>
<path fill="none" stroke="midnightblue" d="M324.386,-168.083C324.517,-161.006 324.705,-150.861 324.869,-141.986"/>
<polygon fill="midnightblue" stroke="midnightblue" points="328.373,-141.814 325.059,-131.751 321.374,-141.685 328.373,-141.814"/>
</g>
<!-- Node14 -->
<g id="node29" class="node"><title>Node14</title>
<polygon fill="white" stroke="#bfbfbf" points="176.221,-56.5 176.221,-75.5 234.221,-75.5 234.221,-56.5 176.221,-56.5"/>
<text text-anchor="middle" x="205.221" y="-63.5" font-family="FreeSans" font-size="10.00">algorithm</text>
</g>
<!-- Node12&#45;&gt;Node14 -->
<g id="edge36" class="edge"><title>Node12&#45;&gt;Node14</title>
<path fill="none" stroke="midnightblue" d="M252.299,-168.456C207.238,-161.455 155.148,-149.767 141.221,-132 126.04,-112.634 152.863,-92.8322 176.294,-80.2569"/>
<polygon fill="midnightblue" stroke="midnightblue" points="178.017,-83.3069 185.339,-75.6491 174.84,-77.0695 178.017,-83.3069"/>
</g>
<!-- Node15 -->
<g id="node31" class="node"><title>Node15</title>
<polygon fill="white" stroke="#bfbfbf" points="228.221,-112.5 228.221,-131.5 280.221,-131.5 280.221,-112.5 228.221,-112.5"/>
<text text-anchor="middle" x="254.221" y="-119.5" font-family="FreeSans" font-size="10.00">numeric</text>
</g>
<!-- Node12&#45;&gt;Node15 -->
<g id="edge32" class="edge"><title>Node12&#45;&gt;Node15</title>
<path fill="none" stroke="midnightblue" d="M312.974,-168.324C302.423,-160.185 286.42,-147.839 273.779,-138.087"/>
<polygon fill="midnightblue" stroke="midnightblue" points="275.728,-135.171 265.672,-131.834 271.452,-140.713 275.728,-135.171"/>
</g>
<!-- Node16 -->
<g id="node33" class="node"><title>Node16</title>
<polygon fill="white" stroke="#bfbfbf" points="150.721,-112.5 150.721,-131.5 209.721,-131.5 209.721,-112.5 150.721,-112.5"/>
<text text-anchor="middle" x="180.221" y="-119.5" font-family="FreeSans" font-size="10.00">functional</text>
</g>
<!-- Node12&#45;&gt;Node16 -->
<g id="edge34" class="edge"><title>Node12&#45;&gt;Node16</title>
<path fill="none" stroke="midnightblue" d="M301.404,-168.444C277.389,-159.438 239.392,-145.189 212.352,-135.049"/>
<polygon fill="midnightblue" stroke="midnightblue" points="213.524,-131.751 202.931,-131.516 211.066,-138.305 213.524,-131.751"/>
</g>
<!-- Node17 -->
<g id="node36" class="node"><title>Node17</title>
<polygon fill="white" stroke="#bfbfbf" points="408.221,-112.5 408.221,-131.5 464.221,-131.5 464.221,-112.5 408.221,-112.5"/>
<text text-anchor="middle" x="436.221" y="-119.5" font-family="FreeSans" font-size="10.00">iostream</text>
</g>
<!-- Node12&#45;&gt;Node17 -->
<g id="edge38" class="edge"><title>Node12&#45;&gt;Node17</title>
<path fill="none" stroke="midnightblue" d="M342.216,-168.324C360.258,-159.625 388.268,-146.12 409.024,-136.113"/>
<polygon fill="midnightblue" stroke="midnightblue" points="410.783,-139.15 418.271,-131.655 407.743,-132.845 410.783,-139.15"/>
</g>
<!-- Node18 -->
<g id="node38" class="node"><title>Node18</title>
<polygon fill="white" stroke="#bfbfbf" points="482.221,-112.5 482.221,-131.5 528.221,-131.5 528.221,-112.5 482.221,-112.5"/>
<text text-anchor="middle" x="505.221" y="-119.5" font-family="FreeSans" font-size="10.00">cstring</text>
</g>
<!-- Node12&#45;&gt;Node18 -->
<g id="edge40" class="edge"><title>Node12&#45;&gt;Node18</title>
<path fill="none" stroke="midnightblue" d="M352.901,-168.444C385.332,-158.768 438.051,-143.04 472.179,-132.858"/>
<polygon fill="midnightblue" stroke="midnightblue" points="473.549,-136.102 482.131,-129.889 471.548,-129.394 473.549,-136.102"/>
</g>
<!-- Node13&#45;&gt;Node2 -->
<g id="edge28" class="edge"><title>Node13&#45;&gt;Node2</title>
<path fill="none" stroke="midnightblue" d="M352.627,-114.593C391.373,-105.536 462.685,-88.8655 509.784,-77.8554"/>
<polygon fill="midnightblue" stroke="midnightblue" points="510.797,-81.213 519.738,-75.5285 509.203,-74.3968 510.797,-81.213"/>
</g>
<!-- Node13&#45;&gt;Node14 -->
<g id="edge30" class="edge"><title>Node13&#45;&gt;Node14</title>
<path fill="none" stroke="midnightblue" d="M306.206,-112.444C286.633,-103.636 255.913,-89.8116 233.492,-79.722"/>
<polygon fill="midnightblue" stroke="midnightblue" points="234.702,-76.4284 224.146,-75.5164 231.829,-82.8119 234.702,-76.4284"/>
</g>
<!-- Node19&#45;&gt;Node2 -->
<g id="edge44" class="edge"><title>Node19&#45;&gt;Node2</title>
<path fill="none" stroke="midnightblue" d="M467.388,-224.458C487.763,-217.508 513.741,-205.877 531.221,-188 550.276,-168.511 550.541,-158.658 556.221,-132 559.495,-116.634 559.208,-98.7579 558.265,-85.6456"/>
<polygon fill="midnightblue" stroke="midnightblue" points="561.736,-85.1718 557.34,-75.532 554.765,-85.8092 561.736,-85.1718"/>
</g>
<!-- Node20 -->
<g id="node43" class="node"><title>Node20</title>
<a xlink:href="xml_8h.html" target="_top" xlink:title="Classes providing support for XML data files. ">
<polygon fill="white" stroke="red" points="416.221,-168.5 416.221,-187.5 456.221,-187.5 456.221,-168.5 416.221,-168.5"/>
<text text-anchor="middle" x="436.221" y="-175.5" font-family="FreeSans" font-size="10.00">xml.h</text>
</a>
</g>
<!-- Node19&#45;&gt;Node20 -->
<g id="edge46" class="edge"><title>Node19&#45;&gt;Node20</title>
<path fill="none" stroke="midnightblue" d="M436.221,-224.083C436.221,-217.006 436.221,-206.861 436.221,-197.986"/>
<polygon fill="midnightblue" stroke="midnightblue" points="439.721,-197.751 436.221,-187.751 432.721,-197.751 439.721,-197.751"/>
</g>
<!-- Node21 -->
<g id="node45" class="node"><title>Node21</title>
<a xlink:href="Array_8h.html" target="_top" xlink:title="Header file for class Cantera::Array2D. ">
<polygon fill="white" stroke="red" points="474.221,-168.5 474.221,-187.5 522.221,-187.5 522.221,-168.5 474.221,-168.5"/>
<text text-anchor="middle" x="498.221" y="-175.5" font-family="FreeSans" font-size="10.00">Array.h</text>
</a>
</g>
<!-- Node19&#45;&gt;Node21 -->
<g id="edge48" class="edge"><title>Node19&#45;&gt;Node21</title>
<path fill="none" stroke="midnightblue" d="M446.182,-224.324C455.347,-216.341 469.158,-204.313 480.249,-194.653"/>
<polygon fill="midnightblue" stroke="midnightblue" points="482.836,-197.041 488.078,-187.834 478.239,-191.762 482.836,-197.041"/>
</g>
<!-- Node21&#45;&gt;Node2 -->
<g id="edge50" class="edge"><title>Node21&#45;&gt;Node2</title>
<path fill="none" stroke="midnightblue" d="M507.89,-168.247C516.706,-159.772 529.5,-146.159 537.221,-132 545.136,-117.485 550.089,-99.3027 552.945,-85.8624"/>
<polygon fill="midnightblue" stroke="midnightblue" points="556.415,-86.354 554.87,-75.8723 549.541,-85.0293 556.415,-86.354"/>
</g>
<!-- Node21&#45;&gt;Node13 -->
<g id="edge52" class="edge"><title>Node21&#45;&gt;Node13</title>
<path fill="none" stroke="midnightblue" d="M474.166,-169.492C445.222,-160.457 396.305,-145.188 362.468,-134.626"/>
<polygon fill="midnightblue" stroke="midnightblue" points="363.079,-131.15 352.49,-131.512 360.993,-137.832 363.079,-131.15"/>
</g>
<!-- Node21&#45;&gt;Node17 -->
<g id="edge54" class="edge"><title>Node21&#45;&gt;Node17</title>
<path fill="none" stroke="midnightblue" d="M488.259,-168.324C479.094,-160.341 465.284,-148.313 454.193,-138.653"/>
<polygon fill="midnightblue" stroke="midnightblue" points="456.203,-135.762 446.363,-131.834 451.605,-141.041 456.203,-135.762"/>
</g>
<!-- Node21&#45;&gt;Node18 -->
<g id="edge56" class="edge"><title>Node21&#45;&gt;Node18</title>
<path fill="none" stroke="midnightblue" d="M499.377,-168.083C500.304,-160.927 501.638,-150.635 502.798,-141.691"/>
<polygon fill="midnightblue" stroke="midnightblue" points="506.272,-142.118 504.086,-131.751 499.33,-141.218 506.272,-142.118"/>
</g>
<!-- Node22&#45;&gt;Node2 -->
<g id="edge60" class="edge"><title>Node22&#45;&gt;Node2</title>
<path fill="none" stroke="midnightblue" d="M583.509,-224.395C591.801,-216.025 603.365,-202.483 608.221,-188 618.959,-155.975 622.262,-142.721 608.221,-112 602.443,-99.3602 591.169,-88.911 580.59,-81.2737"/>
<polygon fill="midnightblue" stroke="midnightblue" points="582.263,-78.1817 572.004,-75.5333 578.372,-84.0009 582.263,-78.1817"/>
</g>
<!-- Node23&#45;&gt;Node2 -->
<g id="edge64" class="edge"><title>Node23&#45;&gt;Node2</title>
<path fill="none" stroke="midnightblue" d="M537.76,-282.063C580.3,-274.871 637.443,-262.126 651.221,-244 672.669,-215.782 714.014,-237.737 626.221,-112 616.544,-98.1407 601.091,-87.5502 587.163,-80.1355"/>
<polygon fill="midnightblue" stroke="midnightblue" points="588.366,-76.8252 577.853,-75.5084 585.25,-83.0936 588.366,-76.8252"/>
</g>
</g>
</svg>
