<?xml version="1.0" encoding="UTF-8" standalone="no"?>
<!DOCTYPE svg PUBLIC "-//W3C//DTD SVG 1.1//EN"
 "http://www.w3.org/Graphics/SVG/1.1/DTD/svg11.dtd">
<!-- Generated by graphviz version 2.28.0 (20120425.2022)
 -->
<!-- Title: ct2ctml.cpp Pages: 1 -->
<svg width="1191pt" height="320pt"
 viewBox="0.00 0.00 1191.04 320.00" xmlns="http://www.w3.org/2000/svg" xmlns:xlink="http://www.w3.org/1999/xlink">
<g id="graph1" class="graph" transform="scale(1 1) rotate(0) translate(4 316)">
<title>ct2ctml.cpp</title>
<polygon fill="white" stroke="white" points="-4,5 -4,-316 1188.04,-316 1188.04,5 -4,5"/>
<!-- Node1 -->
<g id="node1" class="node"><title>Node1</title>
<polygon fill="#bfbfbf" stroke="black" points="693.539,-292.5 693.539,-311.5 758.539,-311.5 758.539,-292.5 693.539,-292.5"/>
<text text-anchor="middle" x="726.039" y="-299.5" font-family="FreeSans" font-size="10.00">ct2ctml.cpp</text>
</g>
<!-- Node2 -->
<g id="node3" class="node"><title>Node2</title>
<a xlink:href="ct__defs_8h.html" target="_top" xlink:title="This file contains definitions of terms that are used in internal routines and are unlikely to need m...">
<polygon fill="white" stroke="black" points="238.539,-56.5 238.539,-75.5 357.539,-75.5 357.539,-56.5 238.539,-56.5"/>
<text text-anchor="middle" x="298.039" y="-63.5" font-family="FreeSans" font-size="10.00">cantera/base/ct_defs.h</text>
</a>
</g>
<!-- Node1&#45;&gt;Node2 -->
<g id="edge2" class="edge"><title>Node1&#45;&gt;Node2</title>
<path fill="none" stroke="midnightblue" d="M693.336,-299.676C598.223,-295.559 323.012,-281.694 237.039,-256 124.644,-222.409 64.4383,-232.563 4.03938,-132 -0.537311,-124.38 -1.75104,-118.744 4.03938,-112 32.3679,-79.0055 150.694,-69.9481 228.324,-67.6122"/>
<polygon fill="midnightblue" stroke="midnightblue" points="228.621,-71.1056 238.523,-67.3367 228.432,-64.1081 228.621,-71.1056"/>
</g>
<!-- Node6 -->
<g id="node11" class="node"><title>Node6</title>
<polygon fill="white" stroke="#bfbfbf" points="641.039,-0.5 641.039,-19.5 685.039,-19.5 685.039,-0.5 641.039,-0.5"/>
<text text-anchor="middle" x="663.039" y="-7.5" font-family="FreeSans" font-size="10.00">vector</text>
</g>
<!-- Node1&#45;&gt;Node6 -->
<g id="edge68" class="edge"><title>Node1&#45;&gt;Node6</title>
<path fill="none" stroke="midnightblue" d="M730.699,-292.41C740.846,-272.874 764.039,-223.368 764.039,-179 764.039,-179 764.039,-179 764.039,-121 764.039,-90.2048 759.827,-79.5969 740.039,-56 727.928,-41.5571 709.924,-30.6745 694.37,-23.2321"/>
<polygon fill="midnightblue" stroke="midnightblue" points="695.631,-19.9616 685.076,-19.0417 692.754,-26.3429 695.631,-19.9616"/>
</g>
<!-- Node8 -->
<g id="node15" class="node"><title>Node8</title>
<polygon fill="white" stroke="#bfbfbf" points="476.539,-0.5 476.539,-19.5 517.539,-19.5 517.539,-0.5 476.539,-0.5"/>
<text text-anchor="middle" x="497.039" y="-7.5" font-family="FreeSans" font-size="10.00">string</text>
</g>
<!-- Node1&#45;&gt;Node8 -->
<g id="edge60" class="edge"><title>Node1&#45;&gt;Node8</title>
<path fill="none" stroke="midnightblue" d="M726.039,-292.421C726.039,-272.502 726.039,-221.573 726.039,-179 726.039,-179 726.039,-179 726.039,-121 726.039,-34.0686 590.296,-15.7922 527.83,-11.984"/>
<polygon fill="midnightblue" stroke="midnightblue" points="527.935,-8.48473 517.765,-11.4578 527.569,-15.4752 527.935,-8.48473"/>
</g>
<!-- Node9 -->
<g id="node17" class="node"><title>Node9</title>
<a xlink:href="ctexceptions_8h.html" target="_top" xlink:title="Definitions for the classes that are thrown when Cantera experiences an error condition (also contain...">
<polygon fill="white" stroke="black" points="516.539,-112.5 516.539,-131.5 659.539,-131.5 659.539,-112.5 516.539,-112.5"/>
<text text-anchor="middle" x="588.039" y="-119.5" font-family="FreeSans" font-size="10.00">cantera/base/ctexceptions.h</text>
</a>
</g>
<!-- Node1&#45;&gt;Node9 -->
<g id="edge16" class="edge"><title>Node1&#45;&gt;Node9</title>
<path fill="none" stroke="midnightblue" d="M714.029,-292.199C702.896,-283.69 686.26,-270.055 674.039,-256 641.243,-218.281 611.661,-167.07 597.264,-140.545"/>
<polygon fill="midnightblue" stroke="midnightblue" points="600.318,-138.834 592.515,-131.668 594.146,-142.136 600.318,-138.834"/>
</g>
<!-- Node10 -->
<g id="node19" class="node"><title>Node10</title>
<polygon fill="white" stroke="#bfbfbf" points="598.039,-56.5 598.039,-75.5 658.039,-75.5 658.039,-56.5 598.039,-56.5"/>
<text text-anchor="middle" x="628.039" y="-63.5" font-family="FreeSans" font-size="10.00">exception</text>
</g>
<!-- Node1&#45;&gt;Node10 -->
<g id="edge62" class="edge"><title>Node1&#45;&gt;Node10</title>
<path fill="none" stroke="midnightblue" d="M723.342,-292.377C720.514,-283.322 715.945,-268.666 712.039,-256 692.322,-192.05 700.802,-170.353 668.039,-112 662.052,-101.336 653.182,-91.0202 645.316,-82.9616"/>
<polygon fill="midnightblue" stroke="midnightblue" points="647.521,-80.2222 637.927,-75.7262 642.623,-85.2235 647.521,-80.2222"/>
</g>
<!-- Node11 -->
<g id="node22" class="node"><title>Node11</title>
<a xlink:href="ctml_8h.html" target="_top" xlink:title="CTML (&quot;Cantera Markup Language&quot;) is the variant of XML that Cantera uses to store data...">
<polygon fill="white" stroke="black" points="246.039,-230.5 246.039,-249.5 350.039,-249.5 350.039,-230.5 246.039,-230.5"/>
<text text-anchor="middle" x="298.039" y="-237.5" font-family="FreeSans" font-size="10.00">cantera/base/ctml.h</text>
</a>
</g>
<!-- Node1&#45;&gt;Node11 -->
<g id="edge22" class="edge"><title>Node1&#45;&gt;Node11</title>
<path fill="none" stroke="midnightblue" d="M693.519,-296.441C622.537,-286.49 452.71,-262.683 360.377,-249.739"/>
<polygon fill="midnightblue" stroke="midnightblue" points="360.719,-246.253 350.329,-248.33 359.747,-253.185 360.719,-246.253"/>
</g>
<!-- Node13 -->
<g id="node28" class="node"><title>Node13</title>
<a xlink:href="global_8h.html" target="_top" xlink:title="This file contains definitions for utility functions and text for modules, inputfiles, logs, textlogs, HTML_logs (see Input File Handling, Diagnostic Output, Writing messages to the screen and Writing HTML Logfiles). ">
<polygon fill="white" stroke="black" points="299.039,-112.5 299.039,-131.5 351.039,-131.5 351.039,-112.5 299.039,-112.5"/>
<text text-anchor="middle" x="325.039" y="-119.5" font-family="FreeSans" font-size="10.00">global.h</text>
</a>
</g>
<!-- Node1&#45;&gt;Node13 -->
<g id="edge50" class="edge"><title>Node1&#45;&gt;Node13</title>
<path fill="none" stroke="midnightblue" d="M696.861,-292.477C669.427,-284.166 627.403,-270.663 592.039,-256 500.038,-217.852 395.58,-161.959 349.305,-136.513"/>
<polygon fill="midnightblue" stroke="midnightblue" points="350.785,-133.332 340.339,-131.563 347.401,-139.46 350.785,-133.332"/>
</g>
<!-- Node19 -->
<g id="node45" class="node"><title>Node19</title>
<a xlink:href="stringUtils_8h.html" target="_top" xlink:title="Contains declarations for string manipulation functions within Cantera. ">
<polygon fill="white" stroke="black" points="369.539,-112.5 369.539,-131.5 498.539,-131.5 498.539,-112.5 369.539,-112.5"/>
<text text-anchor="middle" x="434.039" y="-119.5" font-family="FreeSans" font-size="10.00">cantera/base/stringUtils.h</text>
</a>
</g>
<!-- Node1&#45;&gt;Node19 -->
<g id="edge52" class="edge"><title>Node1&#45;&gt;Node19</title>
<path fill="none" stroke="midnightblue" d="M710.276,-292.425C694.049,-283.529 668.093,-269.11 646.039,-256 575.802,-214.246 494.351,-162.063 456.067,-137.307"/>
<polygon fill="midnightblue" stroke="midnightblue" points="457.592,-134.125 447.296,-131.627 453.787,-140.001 457.592,-134.125"/>
</g>
<!-- Node20 -->
<g id="node49" class="node"><title>Node20</title>
<polygon fill="white" stroke="#bfbfbf" points="792.539,-225 792.539,-255 903.539,-255 903.539,-225 792.539,-225"/>
<text text-anchor="start" x="800.539" y="-243" font-family="FreeSans" font-size="10.00">../../ext/libexecstream</text>
<text text-anchor="middle" x="848.039" y="-232" font-family="FreeSans" font-size="10.00">/exec&#45;stream.h</text>
</g>
<!-- Node1&#45;&gt;Node20 -->
<g id="edge58" class="edge"><title>Node1&#45;&gt;Node20</title>
<path fill="none" stroke="midnightblue" d="M743.519,-292.403C760.814,-283.898 787.849,-270.602 810.09,-259.663"/>
<polygon fill="midnightblue" stroke="midnightblue" points="811.858,-262.695 819.286,-255.141 808.768,-256.413 811.858,-262.695"/>
</g>
<!-- Node21 -->
<g id="node53" class="node"><title>Node21</title>
<polygon fill="white" stroke="#bfbfbf" points="922.039,-230.5 922.039,-249.5 972.039,-249.5 972.039,-230.5 922.039,-230.5"/>
<text text-anchor="middle" x="947.039" y="-237.5" font-family="FreeSans" font-size="10.00">istream</text>
</g>
<!-- Node1&#45;&gt;Node21 -->
<g id="edge64" class="edge"><title>Node1&#45;&gt;Node21</title>
<path fill="none" stroke="midnightblue" d="M758.761,-294.815C796.281,-287.327 859.393,-273.513 912.039,-256 914.454,-255.197 916.935,-254.296 919.406,-253.345"/>
<polygon fill="midnightblue" stroke="midnightblue" points="920.805,-256.554 928.735,-249.529 918.155,-250.075 920.805,-256.554"/>
</g>
<!-- Node22 -->
<g id="node55" class="node"><title>Node22</title>
<polygon fill="white" stroke="#bfbfbf" points="990.539,-230.5 990.539,-249.5 1043.54,-249.5 1043.54,-230.5 990.539,-230.5"/>
<text text-anchor="middle" x="1017.04" y="-237.5" font-family="FreeSans" font-size="10.00">ostream</text>
</g>
<!-- Node1&#45;&gt;Node22 -->
<g id="edge66" class="edge"><title>Node1&#45;&gt;Node22</title>
<path fill="none" stroke="midnightblue" d="M758.767,-297.561C807.809,-291.888 902.947,-278.856 981.039,-256 983.689,-255.224 986.409,-254.315 989.108,-253.335"/>
<polygon fill="midnightblue" stroke="midnightblue" points="990.614,-256.503 998.636,-249.583 988.049,-249.99 990.614,-256.503"/>
</g>
<!-- Node23 -->
<g id="node58" class="node"><title>Node23</title>
<polygon fill="white" stroke="#bfbfbf" points="1062.04,-230.5 1062.04,-249.5 1112.04,-249.5 1112.04,-230.5 1062.04,-230.5"/>
<text text-anchor="middle" x="1087.04" y="-237.5" font-family="FreeSans" font-size="10.00">fstream</text>
</g>
<!-- Node1&#45;&gt;Node23 -->
<g id="edge70" class="edge"><title>Node1&#45;&gt;Node23</title>
<path fill="none" stroke="midnightblue" d="M758.547,-299.393C817.856,-295.83 947.172,-285.139 1052.04,-256 1054.69,-255.262 1057.41,-254.367 1060.1,-253.385"/>
<polygon fill="midnightblue" stroke="midnightblue" points="1061.6,-256.557 1069.57,-249.576 1058.98,-250.064 1061.6,-256.557"/>
</g>
<!-- Node24 -->
<g id="node60" class="node"><title>Node24</title>
<polygon fill="white" stroke="#bfbfbf" points="1130.54,-230.5 1130.54,-249.5 1183.54,-249.5 1183.54,-230.5 1130.54,-230.5"/>
<text text-anchor="middle" x="1157.04" y="-237.5" font-family="FreeSans" font-size="10.00">sstream</text>
</g>
<!-- Node1&#45;&gt;Node24 -->
<g id="edge72" class="edge"><title>Node1&#45;&gt;Node24</title>
<path fill="none" stroke="midnightblue" d="M758.6,-300.37C826.882,-298.382 989.603,-290.138 1121.04,-256 1123.87,-255.266 1126.76,-254.354 1129.62,-253.344"/>
<polygon fill="midnightblue" stroke="midnightblue" points="1131.03,-256.552 1139.07,-249.653 1128.48,-250.032 1131.03,-256.552"/>
</g>
<!-- Node3 -->
<g id="node5" class="node"><title>Node3</title>
<a xlink:href="config_8h_source.html" target="_top" xlink:title="config.h">
<polygon fill="white" stroke="black" points="311.539,-0.5 311.539,-19.5 362.539,-19.5 362.539,-0.5 311.539,-0.5"/>
<text text-anchor="middle" x="337.039" y="-7.5" font-family="FreeSans" font-size="10.00">config.h</text>
</a>
</g>
<!-- Node2&#45;&gt;Node3 -->
<g id="edge4" class="edge"><title>Node2&#45;&gt;Node3</title>
<path fill="none" stroke="midnightblue" d="M304.479,-56.083C309.988,-48.4554 318.071,-37.2645 324.804,-27.9408"/>
<polygon fill="midnightblue" stroke="midnightblue" points="327.702,-29.9071 330.719,-19.7511 322.027,-25.8087 327.702,-29.9071"/>
</g>
<!-- Node4 -->
<g id="node7" class="node"><title>Node4</title>
<polygon fill="white" stroke="#bfbfbf" points="381.039,-0.5 381.039,-19.5 425.039,-19.5 425.039,-0.5 381.039,-0.5"/>
<text text-anchor="middle" x="403.039" y="-7.5" font-family="FreeSans" font-size="10.00">cmath</text>
</g>
<!-- Node2&#45;&gt;Node4 -->
<g id="edge6" class="edge"><title>Node2&#45;&gt;Node4</title>
<path fill="none" stroke="midnightblue" d="M314.909,-56.324C331.748,-47.6641 357.846,-34.2424 377.277,-24.249"/>
<polygon fill="midnightblue" stroke="midnightblue" points="378.919,-27.3405 386.211,-19.6545 375.718,-21.1155 378.919,-27.3405"/>
</g>
<!-- Node5 -->
<g id="node9" class="node"><title>Node5</title>
<polygon fill="white" stroke="#bfbfbf" points="193.539,-0.5 193.539,-19.5 238.539,-19.5 238.539,-0.5 193.539,-0.5"/>
<text text-anchor="middle" x="216.039" y="-7.5" font-family="FreeSans" font-size="10.00">cstdlib</text>
</g>
<!-- Node2&#45;&gt;Node5 -->
<g id="edge8" class="edge"><title>Node2&#45;&gt;Node5</title>
<path fill="none" stroke="midnightblue" d="M284.865,-56.324C272.193,-47.979 252.806,-35.2122 237.834,-25.3524"/>
<polygon fill="midnightblue" stroke="midnightblue" points="239.458,-22.2313 229.181,-19.6545 235.608,-28.0776 239.458,-22.2313"/>
</g>
<!-- Node2&#45;&gt;Node6 -->
<g id="edge10" class="edge"><title>Node2&#45;&gt;Node6</title>
<path fill="none" stroke="midnightblue" d="M355.875,-56.4435C433.594,-44.9453 569.093,-24.899 630.789,-15.7713"/>
<polygon fill="midnightblue" stroke="midnightblue" points="631.35,-19.2265 640.73,-14.3006 630.325,-12.3019 631.35,-19.2265"/>
</g>
<!-- Node7 -->
<g id="node13" class="node"><title>Node7</title>
<polygon fill="white" stroke="#bfbfbf" points="257.039,-0.5 257.039,-19.5 293.039,-19.5 293.039,-0.5 257.039,-0.5"/>
<text text-anchor="middle" x="275.039" y="-7.5" font-family="FreeSans" font-size="10.00">map</text>
</g>
<!-- Node2&#45;&gt;Node7 -->
<g id="edge12" class="edge"><title>Node2&#45;&gt;Node7</title>
<path fill="none" stroke="midnightblue" d="M294.241,-56.083C291.127,-48.77 286.617,-38.1814 282.75,-29.1034"/>
<polygon fill="midnightblue" stroke="midnightblue" points="285.905,-27.5798 278.767,-19.7511 279.465,-30.3229 285.905,-27.5798"/>
</g>
<!-- Node2&#45;&gt;Node8 -->
<g id="edge14" class="edge"><title>Node2&#45;&gt;Node8</title>
<path fill="none" stroke="midnightblue" d="M329.572,-56.4435C367.138,-46.2497 429.464,-29.3371 466.56,-19.2707"/>
<polygon fill="midnightblue" stroke="midnightblue" points="467.578,-22.6211 476.313,-16.6243 465.745,-15.8654 467.578,-22.6211"/>
</g>
<!-- Node9&#45;&gt;Node8 -->
<g id="edge20" class="edge"><title>Node9&#45;&gt;Node8</title>
<path fill="none" stroke="midnightblue" d="M580.899,-112.368C565.748,-94.0547 530.171,-51.0489 510.576,-27.3624"/>
<polygon fill="midnightblue" stroke="midnightblue" points="513.218,-25.0656 504.147,-19.5914 507.824,-29.5276 513.218,-25.0656"/>
</g>
<!-- Node9&#45;&gt;Node10 -->
<g id="edge18" class="edge"><title>Node9&#45;&gt;Node10</title>
<path fill="none" stroke="midnightblue" d="M594.645,-112.083C600.295,-104.455 608.584,-93.2645 615.491,-83.9408"/>
<polygon fill="midnightblue" stroke="midnightblue" points="618.417,-85.87 621.557,-75.7511 612.792,-81.7034 618.417,-85.87"/>
</g>
<!-- Node11&#45;&gt;Node2 -->
<g id="edge24" class="edge"><title>Node11&#45;&gt;Node2</title>
<path fill="none" stroke="midnightblue" d="M296.598,-230.365C293.366,-209.827 286.119,-156.454 290.039,-112 290.816,-103.197 292.431,-93.5357 294.008,-85.4298"/>
<polygon fill="midnightblue" stroke="midnightblue" points="297.45,-86.0689 296.052,-75.5666 290.595,-84.648 297.45,-86.0689"/>
</g>
<!-- Node12 -->
<g id="node25" class="node"><title>Node12</title>
<a xlink:href="xml_8h.html" target="_top" xlink:title="Classes providing support for XML data files. ">
<polygon fill="white" stroke="black" points="305.039,-168.5 305.039,-187.5 345.039,-187.5 345.039,-168.5 305.039,-168.5"/>
<text text-anchor="middle" x="325.039" y="-175.5" font-family="FreeSans" font-size="10.00">xml.h</text>
</a>
</g>
<!-- Node11&#45;&gt;Node12 -->
<g id="edge26" class="edge"><title>Node11&#45;&gt;Node12</title>
<path fill="none" stroke="midnightblue" d="M301.908,-230.403C305.838,-221.671 312.039,-207.889 317.032,-196.794"/>
<polygon fill="midnightblue" stroke="midnightblue" points="320.266,-198.136 321.178,-187.581 313.883,-195.264 320.266,-198.136"/>
</g>
<!-- Node14 -->
<g id="node31" class="node"><title>Node14</title>
<a xlink:href="Array_8h.html" target="_top" xlink:title="Header file for class Cantera::Array2D. ">
<polygon fill="white" stroke="black" points="176.039,-168.5 176.039,-187.5 224.039,-187.5 224.039,-168.5 176.039,-168.5"/>
<text text-anchor="middle" x="200.039" y="-175.5" font-family="FreeSans" font-size="10.00">Array.h</text>
</a>
</g>
<!-- Node11&#45;&gt;Node14 -->
<g id="edge34" class="edge"><title>Node11&#45;&gt;Node14</title>
<path fill="none" stroke="midnightblue" d="M283.998,-230.403C267.988,-220.601 241.589,-204.439 222.665,-192.853"/>
<polygon fill="midnightblue" stroke="midnightblue" points="224.41,-189.817 214.054,-187.581 220.755,-195.787 224.41,-189.817"/>
</g>
<!-- Node12&#45;&gt;Node9 -->
<g id="edge28" class="edge"><title>Node12&#45;&gt;Node9</title>
<path fill="none" stroke="midnightblue" d="M345.24,-172.852C385.749,-164.535 478.017,-145.59 536.426,-133.597"/>
<polygon fill="midnightblue" stroke="midnightblue" points="537.471,-136.956 546.562,-131.516 536.063,-130.099 537.471,-136.956"/>
</g>
<!-- Node12&#45;&gt;Node13 -->
<g id="edge30" class="edge"><title>Node12&#45;&gt;Node13</title>
<path fill="none" stroke="midnightblue" d="M325.039,-168.083C325.039,-161.006 325.039,-150.861 325.039,-141.986"/>
<polygon fill="midnightblue" stroke="midnightblue" points="328.539,-141.751 325.039,-131.751 321.539,-141.751 328.539,-141.751"/>
</g>
<!-- Node13&#45;&gt;Node2 -->
<g id="edge32" class="edge"><title>Node13&#45;&gt;Node2</title>
<path fill="none" stroke="midnightblue" d="M320.581,-112.083C316.885,-104.691 311.516,-93.9533 306.945,-84.8111"/>
<polygon fill="midnightblue" stroke="midnightblue" points="310.018,-83.1301 302.415,-75.7511 303.757,-86.2606 310.018,-83.1301"/>
</g>
<!-- Node14&#45;&gt;Node2 -->
<g id="edge36" class="edge"><title>Node14&#45;&gt;Node2</title>
<path fill="none" stroke="midnightblue" d="M207.731,-168.122C218.632,-155.563 239.235,-131.919 257.039,-112 265.686,-102.326 275.469,-91.582 283.309,-83.0186"/>
<polygon fill="midnightblue" stroke="midnightblue" points="285.95,-85.3177 290.131,-75.5827 280.791,-80.5857 285.95,-85.3177"/>
</g>
<!-- Node14&#45;&gt;Node9 -->
<g id="edge38" class="edge"><title>Node14&#45;&gt;Node9</title>
<path fill="none" stroke="midnightblue" d="M224.311,-173.622C281.819,-165.618 428.181,-145.248 516.722,-132.926"/>
<polygon fill="midnightblue" stroke="midnightblue" points="517.271,-136.383 526.693,-131.538 516.306,-129.45 517.271,-136.383"/>
</g>
<!-- Node15 -->
<g id="node35" class="node"><title>Node15</title>
<a xlink:href="utilities_8h.html" target="_top" xlink:title="Various templated functions that carry out common vector operations (see Templated Utility Functions)...">
<polygon fill="white" stroke="black" points="13.0394,-112.5 13.0394,-131.5 67.0394,-131.5 67.0394,-112.5 13.0394,-112.5"/>
<text text-anchor="middle" x="40.0394" y="-119.5" font-family="FreeSans" font-size="10.00">utilities.h</text>
</a>
</g>
<!-- Node14&#45;&gt;Node15 -->
<g id="edge40" class="edge"><title>Node14&#45;&gt;Node15</title>
<path fill="none" stroke="midnightblue" d="M175.739,-168.799C148.956,-159.759 105.638,-145.14 75.1631,-134.854"/>
<polygon fill="midnightblue" stroke="midnightblue" points="75.9571,-131.428 65.3629,-131.547 73.7186,-138.061 75.9571,-131.428"/>
</g>
<!-- Node17 -->
<g id="node40" class="node"><title>Node17</title>
<polygon fill="white" stroke="#bfbfbf" points="85.0394,-112.5 85.0394,-131.5 141.039,-131.5 141.039,-112.5 85.0394,-112.5"/>
<text text-anchor="middle" x="113.039" y="-119.5" font-family="FreeSans" font-size="10.00">iostream</text>
</g>
<!-- Node14&#45;&gt;Node17 -->
<g id="edge46" class="edge"><title>Node14&#45;&gt;Node17</title>
<path fill="none" stroke="midnightblue" d="M186.061,-168.324C172.49,-159.9 151.659,-146.971 135.714,-137.074"/>
<polygon fill="midnightblue" stroke="midnightblue" points="137.325,-133.954 126.983,-131.655 133.633,-139.902 137.325,-133.954"/>
</g>
<!-- Node18 -->
<g id="node42" class="node"><title>Node18</title>
<polygon fill="white" stroke="#bfbfbf" points="159.039,-112.5 159.039,-131.5 205.039,-131.5 205.039,-112.5 159.039,-112.5"/>
<text text-anchor="middle" x="182.039" y="-119.5" font-family="FreeSans" font-size="10.00">cstring</text>
</g>
<!-- Node14&#45;&gt;Node18 -->
<g id="edge48" class="edge"><title>Node14&#45;&gt;Node18</title>
<path fill="none" stroke="midnightblue" d="M197.067,-168.083C194.656,-160.849 191.176,-150.409 188.172,-141.397"/>
<polygon fill="midnightblue" stroke="midnightblue" points="191.439,-140.131 184.956,-131.751 184.798,-142.345 191.439,-140.131"/>
</g>
<!-- Node15&#45;&gt;Node2 -->
<g id="edge42" class="edge"><title>Node15&#45;&gt;Node2</title>
<path fill="none" stroke="midnightblue" d="M67.135,-114.087C70.1349,-113.363 73.1489,-112.654 76.0394,-112 132.738,-99.1731 197.977,-86.1555 242.989,-77.4442"/>
<polygon fill="midnightblue" stroke="midnightblue" points="243.687,-80.8743 252.843,-75.5435 242.361,-74.001 243.687,-80.8743"/>
</g>
<!-- Node16 -->
<g id="node38" class="node"><title>Node16</title>
<polygon fill="white" stroke="#bfbfbf" points="11.0394,-56.5 11.0394,-75.5 69.0394,-75.5 69.0394,-56.5 11.0394,-56.5"/>
<text text-anchor="middle" x="40.0394" y="-63.5" font-family="FreeSans" font-size="10.00">algorithm</text>
</g>
<!-- Node15&#45;&gt;Node16 -->
<g id="edge44" class="edge"><title>Node15&#45;&gt;Node16</title>
<path fill="none" stroke="midnightblue" d="M40.0394,-112.083C40.0394,-105.006 40.0394,-94.8611 40.0394,-85.9865"/>
<polygon fill="midnightblue" stroke="midnightblue" points="43.5395,-85.751 40.0394,-75.7511 36.5395,-85.7511 43.5395,-85.751"/>
</g>
<!-- Node19&#45;&gt;Node2 -->
<g id="edge54" class="edge"><title>Node19&#45;&gt;Node2</title>
<path fill="none" stroke="midnightblue" d="M412.49,-112.444C390.008,-103.517 354.552,-89.4387 329.06,-79.3168"/>
<polygon fill="midnightblue" stroke="midnightblue" points="330.074,-75.9539 319.488,-75.5164 327.491,-82.4598 330.074,-75.9539"/>
</g>
<!-- Node19&#45;&gt;Node8 -->
<g id="edge56" class="edge"><title>Node19&#45;&gt;Node8</title>
<path fill="none" stroke="midnightblue" d="M438.983,-112.368C449.334,-94.2957 473.457,-52.1764 487.127,-28.3074"/>
<polygon fill="midnightblue" stroke="midnightblue" points="490.186,-30.0085 492.119,-19.5914 484.112,-26.5295 490.186,-30.0085"/>
</g>
</g>
</svg>
