<?xml version="1.0" encoding="UTF-8" standalone="no"?>
<!DOCTYPE svg PUBLIC "-//W3C//DTD SVG 1.1//EN"
 "http://www.w3.org/Graphics/SVG/1.1/DTD/svg11.dtd">
<!-- Generated by graphviz version 2.36.0 (20140111.2315)
 -->
<!-- Title: ctexceptions.h Pages: 1 -->
<svg width="3962pt" height="196pt"
 viewBox="0.00 0.00 3962.00 196.00" xmlns="http://www.w3.org/2000/svg" xmlns:xlink="http://www.w3.org/1999/xlink">
<g id="graph0" class="graph" transform="scale(1 1) rotate(0) translate(4 192)">
<title>ctexceptions.h</title>
<polygon fill="white" stroke="none" points="-4,4 -4,-192 3958,-192 3958,4 -4,4"/>
<!-- Node1 -->
<g id="node1" class="node"><title>Node1</title>
<polygon fill="#bfbfbf" stroke="black" points="2010,-168.5 2010,-187.5 2088,-187.5 2088,-168.5 2010,-168.5"/>
<text text-anchor="middle" x="2049" y="-175.5" font-family="FreeSans" font-size="10.00">ctexceptions.h</text>
</g>
<!-- Node2 -->
<g id="node2" class="node"><title>Node2</title>
<g id="a_node2"><a xlink:href="units_8h.html" target="_top" xlink:title="Header for units conversion utilities, which are used to translate user input from input files (See I...">
<polygon fill="white" stroke="black" points="107,-112.5 107,-131.5 151,-131.5 151,-112.5 107,-112.5"/>
<text text-anchor="middle" x="129" y="-119.5" font-family="FreeSans" font-size="10.00">units.h</text>
</a>
</g>
</g>
<!-- Node1&#45;&gt;Node2 -->
<g id="edge1" class="edge"><title>Node1&#45;&gt;Node2</title>
<path fill="none" stroke="midnightblue" d="M1999.48,-175.844C1797.6,-171.095 1016.96,-152.371 375,-132 292.346,-129.377 194.096,-125.577 151.049,-123.878"/>
<polygon fill="midnightblue" stroke="midnightblue" points="1999.68,-179.35 2009.76,-176.086 1999.84,-172.352 1999.68,-179.35"/>
</g>
<!-- Node5 -->
<g id="node5" class="node"><title>Node5</title>
<g id="a_node5"><a xlink:href="checkFinite_8cpp.html" target="_top" xlink:title="Declarations for routines that check for the presence of NaNs in the code. ">
<polygon fill="white" stroke="black" points="649.5,-112.5 649.5,-131.5 734.5,-131.5 734.5,-112.5 649.5,-112.5"/>
<text text-anchor="middle" x="692" y="-119.5" font-family="FreeSans" font-size="10.00">checkFinite.cpp</text>
</a>
</g>
</g>
<!-- Node1&#45;&gt;Node5 -->
<g id="edge4" class="edge"><title>Node1&#45;&gt;Node5</title>
<path fill="none" stroke="midnightblue" d="M1999.65,-176.227C1792.65,-172.84 993.607,-158.299 743,-132 740.228,-131.709 737.38,-131.357 734.514,-130.962"/>
<polygon fill="midnightblue" stroke="midnightblue" points="1999.85,-179.73 2009.9,-176.393 1999.96,-172.731 1999.85,-179.73"/>
</g>
<!-- Node6 -->
<g id="node6" class="node"><title>Node6</title>
<g id="a_node6"><a xlink:href="ctexceptions_8cpp.html" target="_top" xlink:title="ctexceptions.cpp">
<polygon fill="white" stroke="black" points="752.5,-112.5 752.5,-131.5 841.5,-131.5 841.5,-112.5 752.5,-112.5"/>
<text text-anchor="middle" x="797" y="-119.5" font-family="FreeSans" font-size="10.00">ctexceptions.cpp</text>
</a>
</g>
</g>
<!-- Node1&#45;&gt;Node6 -->
<g id="edge5" class="edge"><title>Node1&#45;&gt;Node6</title>
<path fill="none" stroke="midnightblue" d="M1999.54,-177.454C1835.45,-178.467 1294.28,-177.861 850,-132 847.308,-131.722 844.545,-131.392 841.763,-131.024"/>
<polygon fill="midnightblue" stroke="midnightblue" points="1999.82,-180.952 2009.8,-177.385 1999.77,-173.952 1999.82,-180.952"/>
</g>
<!-- Node7 -->
<g id="node7" class="node"><title>Node7</title>
<g id="a_node7"><a xlink:href="stringUtils_8cpp.html" target="_top" xlink:title="Contains definitions for string manipulation functions within Cantera. ">
<polygon fill="white" stroke="black" points="859.5,-112.5 859.5,-131.5 936.5,-131.5 936.5,-112.5 859.5,-112.5"/>
<text text-anchor="middle" x="898" y="-119.5" font-family="FreeSans" font-size="10.00">stringUtils.cpp</text>
</a>
</g>
</g>
<!-- Node1&#45;&gt;Node7 -->
<g id="edge6" class="edge"><title>Node1&#45;&gt;Node7</title>
<path fill="none" stroke="midnightblue" d="M1999.84,-177.209C1845.11,-177.393 1354.42,-174.346 951,-132 946.359,-131.513 941.509,-130.873 936.709,-130.158"/>
<polygon fill="midnightblue" stroke="midnightblue" points="1999.98,-180.709 2009.97,-177.192 1999.96,-173.709 1999.98,-180.709"/>
</g>
<!-- Node8 -->
<g id="node8" class="node"><title>Node8</title>
<g id="a_node8"><a xlink:href="vcs__elem_8cpp.html" target="_top" xlink:title="This file contains the algorithm for checking the satisfaction of the element abundances constraints ...">
<polygon fill="white" stroke="black" points="935.5,-56.5 935.5,-75.5 1010.5,-75.5 1010.5,-56.5 935.5,-56.5"/>
<text text-anchor="middle" x="973" y="-63.5" font-family="FreeSans" font-size="10.00">vcs_elem.cpp</text>
</a>
</g>
</g>
<!-- Node1&#45;&gt;Node8 -->
<g id="edge7" class="edge"><title>Node1&#45;&gt;Node8</title>
<path fill="none" stroke="midnightblue" d="M1999.71,-176.627C1795.23,-174.864 1022.52,-165.968 984,-132 968.033,-117.92 969.461,-89.9869 971.436,-75.7638"/>
<polygon fill="midnightblue" stroke="midnightblue" points="1999.83,-180.128 2009.86,-176.713 1999.89,-173.129 1999.83,-180.128"/>
</g>
<!-- Node9 -->
<g id="node9" class="node"><title>Node9</title>
<g id="a_node9"><a xlink:href="vcs__elem__rearrange_8cpp.html" target="_top" xlink:title="Contains implementations for rearranging the element columns, and it contains the algorithm for choos...">
<polygon fill="white" stroke="black" points="1127.5,-112.5 1127.5,-131.5 1248.5,-131.5 1248.5,-112.5 1127.5,-112.5"/>
<text text-anchor="middle" x="1188" y="-119.5" font-family="FreeSans" font-size="10.00">vcs_elem_rearrange.cpp</text>
</a>
</g>
</g>
<!-- Node1&#45;&gt;Node9 -->
<g id="edge8" class="edge"><title>Node1&#45;&gt;Node9</title>
<path fill="none" stroke="midnightblue" d="M1999.48,-175.406C1874.78,-171.126 1537.81,-157.914 1258,-132 1254.95,-131.718 1251.83,-131.404 1248.68,-131.069"/>
<polygon fill="midnightblue" stroke="midnightblue" points="1999.72,-178.916 2009.83,-175.757 1999.96,-171.92 1999.72,-178.916"/>
</g>
<!-- Node10 -->
<g id="node10" class="node"><title>Node10</title>
<g id="a_node10"><a xlink:href="vcs__nondim_8cpp.html" target="_top" xlink:title="Nondimensionalization routines within VCSnonideal. ">
<polygon fill="white" stroke="black" points="1267,-112.5 1267,-131.5 1353,-131.5 1353,-112.5 1267,-112.5"/>
<text text-anchor="middle" x="1310" y="-119.5" font-family="FreeSans" font-size="10.00">vcs_nondim.cpp</text>
</a>
</g>
</g>
<!-- Node1&#45;&gt;Node10 -->
<g id="edge9" class="edge"><title>Node1&#45;&gt;Node10</title>
<path fill="none" stroke="midnightblue" d="M1999.67,-175.563C1886.57,-171.876 1599.96,-160.306 1362,-132 1359.09,-131.654 1356.09,-131.253 1353.08,-130.818"/>
<polygon fill="midnightblue" stroke="midnightblue" points="1999.64,-179.064 2009.75,-175.885 1999.87,-172.067 1999.64,-179.064"/>
</g>
<!-- Node11 -->
<g id="node11" class="node"><title>Node11</title>
<g id="a_node11"><a xlink:href="vcs__phaseStability_8cpp.html" target="_top" xlink:title="Implementation class for functions associated with determining the stability of a phase (see Class VC...">
<polygon fill="white" stroke="black" points="1371,-112.5 1371,-131.5 1485,-131.5 1485,-112.5 1371,-112.5"/>
<text text-anchor="middle" x="1428" y="-119.5" font-family="FreeSans" font-size="10.00">vcs_phaseStability.cpp</text>
</a>
</g>
</g>
<!-- Node1&#45;&gt;Node11 -->
<g id="edge10" class="edge"><title>Node1&#45;&gt;Node11</title>
<path fill="none" stroke="midnightblue" d="M1999.82,-173.918C1902.88,-167.643 1680.38,-152.248 1494,-132 1491.13,-131.688 1488.18,-131.351 1485.21,-130.997"/>
<polygon fill="midnightblue" stroke="midnightblue" points="1999.7,-177.418 2009.9,-174.567 2000.15,-170.432 1999.7,-177.418"/>
</g>
<!-- Node12 -->
<g id="node12" class="node"><title>Node12</title>
<g id="a_node12"><a xlink:href="vcs__report_8cpp.html" target="_top" xlink:title="vcs_report.cpp">
<polygon fill="white" stroke="black" points="1503.5,-112.5 1503.5,-131.5 1582.5,-131.5 1582.5,-112.5 1503.5,-112.5"/>
<text text-anchor="middle" x="1543" y="-119.5" font-family="FreeSans" font-size="10.00">vcs_report.cpp</text>
</a>
</g>
</g>
<!-- Node1&#45;&gt;Node12 -->
<g id="edge11" class="edge"><title>Node1&#45;&gt;Node12</title>
<path fill="none" stroke="midnightblue" d="M1999.73,-173.505C1915.79,-167.248 1739.78,-152.81 1592,-132 1588.92,-131.566 1585.73,-131.076 1582.53,-130.554"/>
<polygon fill="midnightblue" stroke="midnightblue" points="1999.51,-176.998 2009.74,-174.245 2000.03,-170.017 1999.51,-176.998"/>
</g>
<!-- Node13 -->
<g id="node13" class="node"><title>Node13</title>
<g id="a_node13"><a xlink:href="vcs__rxnadj_8cpp.html" target="_top" xlink:title="Routines for carrying out various adjustments to the reaction steps. ">
<polygon fill="white" stroke="black" points="1601,-112.5 1601,-131.5 1681,-131.5 1681,-112.5 1601,-112.5"/>
<text text-anchor="middle" x="1641" y="-119.5" font-family="FreeSans" font-size="10.00">vcs_rxnadj.cpp</text>
</a>
</g>
</g>
<!-- Node1&#45;&gt;Node13 -->
<g id="edge12" class="edge"><title>Node1&#45;&gt;Node13</title>
<path fill="none" stroke="midnightblue" d="M1999.67,-171.717C1930.36,-164.089 1800.27,-149.024 1690,-132 1687.09,-131.551 1684.1,-131.063 1681.08,-130.554"/>
<polygon fill="midnightblue" stroke="midnightblue" points="1999.53,-175.222 2009.85,-172.832 2000.29,-168.264 1999.53,-175.222"/>
</g>
<!-- Node14 -->
<g id="node14" class="node"><title>Node14</title>
<g id="a_node14"><a xlink:href="vcs__solve_8cpp.html" target="_top" xlink:title="vcs_solve.cpp">
<polygon fill="white" stroke="black" points="1699,-112.5 1699,-131.5 1775,-131.5 1775,-112.5 1699,-112.5"/>
<text text-anchor="middle" x="1737" y="-119.5" font-family="FreeSans" font-size="10.00">vcs_solve.cpp</text>
</a>
</g>
</g>
<!-- Node1&#45;&gt;Node14 -->
<g id="edge13" class="edge"><title>Node1&#45;&gt;Node14</title>
<path fill="none" stroke="midnightblue" d="M1999.71,-168.947C1946.45,-160.173 1859.13,-145.57 1784,-132 1781.14,-131.483 1778.18,-130.939 1775.21,-130.386"/>
<polygon fill="midnightblue" stroke="midnightblue" points="1999.46,-172.453 2009.89,-170.623 2000.59,-165.546 1999.46,-172.453"/>
</g>
<!-- Node15 -->
<g id="node15" class="node"><title>Node15</title>
<g id="a_node15"><a xlink:href="vcs__solve__TP_8cpp.html" target="_top" xlink:title="Implementation file that contains the main algorithm for finding an equilibrium. ">
<polygon fill="white" stroke="black" points="1044,-56.5 1044,-75.5 1138,-75.5 1138,-56.5 1044,-56.5"/>
<text text-anchor="middle" x="1091" y="-63.5" font-family="FreeSans" font-size="10.00">vcs_solve_TP.cpp</text>
</a>
</g>
</g>
<!-- Node1&#45;&gt;Node15 -->
<g id="edge14" class="edge"><title>Node1&#45;&gt;Node15</title>
<path fill="none" stroke="midnightblue" d="M1999.77,-176.072C1812.66,-172.36 1154.32,-157.53 1118,-132 1099.21,-118.789 1093.45,-89.9267 1091.72,-75.5257"/>
<polygon fill="midnightblue" stroke="midnightblue" points="1999.81,-179.574 2009.87,-176.271 1999.94,-172.575 1999.81,-179.574"/>
</g>
<!-- Node16 -->
<g id="node16" class="node"><title>Node16</title>
<g id="a_node16"><a xlink:href="vcs__species__thermo_8cpp.html" target="_top" xlink:title="Implementation for the VCS_SPECIES_THERMO object. ">
<polygon fill="white" stroke="black" points="1793,-112.5 1793,-131.5 1915,-131.5 1915,-112.5 1793,-112.5"/>
<text text-anchor="middle" x="1854" y="-119.5" font-family="FreeSans" font-size="10.00">vcs_species_thermo.cpp</text>
</a>
</g>
</g>
<!-- Node1&#45;&gt;Node16 -->
<g id="edge15" class="edge"><title>Node1&#45;&gt;Node16</title>
<path fill="none" stroke="midnightblue" d="M2008.19,-165.699C1971.39,-155.507 1918.07,-140.743 1884.75,-131.516"/>
<polygon fill="midnightblue" stroke="midnightblue" points="2007.53,-169.148 2018.1,-168.444 2009.4,-162.402 2007.53,-169.148"/>
</g>
<!-- Node17 -->
<g id="node17" class="node"><title>Node17</title>
<g id="a_node17"><a xlink:href="vcs__util_8cpp.html" target="_top" xlink:title="Internal definitions for utility functions for the VCSnonideal package. ">
<polygon fill="white" stroke="black" points="1933.5,-112.5 1933.5,-131.5 2000.5,-131.5 2000.5,-112.5 1933.5,-112.5"/>
<text text-anchor="middle" x="1967" y="-119.5" font-family="FreeSans" font-size="10.00">vcs_util.cpp</text>
</a>
</g>
</g>
<!-- Node1&#45;&gt;Node17 -->
<g id="edge16" class="edge"><title>Node1&#45;&gt;Node17</title>
<path fill="none" stroke="midnightblue" d="M2027.17,-162.622C2012.19,-152.757 1992.8,-139.992 1980.14,-131.655"/>
<polygon fill="midnightblue" stroke="midnightblue" points="2025.55,-165.747 2035.83,-168.324 2029.4,-159.901 2025.55,-165.747"/>
</g>
<!-- Node18 -->
<g id="node18" class="node"><title>Node18</title>
<g id="a_node18"><a xlink:href="Falloff_8cpp.html" target="_top" xlink:title="Definitions for member functions of classes derived from Falloff. ">
<polygon fill="white" stroke="black" points="2019,-112.5 2019,-131.5 2079,-131.5 2079,-112.5 2019,-112.5"/>
<text text-anchor="middle" x="2049" y="-119.5" font-family="FreeSans" font-size="10.00">Falloff.cpp</text>
</a>
</g>
</g>
<!-- Node1&#45;&gt;Node18 -->
<g id="edge17" class="edge"><title>Node1&#45;&gt;Node18</title>
<path fill="none" stroke="midnightblue" d="M2049,-157.805C2049,-148.91 2049,-138.78 2049,-131.751"/>
<polygon fill="midnightblue" stroke="midnightblue" points="2045.5,-158.083 2049,-168.083 2052.5,-158.083 2045.5,-158.083"/>
</g>
<!-- Node19 -->
<g id="node19" class="node"><title>Node19</title>
<g id="a_node19"><a xlink:href="polyfit_8cpp.html" target="_top" xlink:title="polyfit.cpp">
<polygon fill="white" stroke="black" points="2097.5,-112.5 2097.5,-131.5 2156.5,-131.5 2156.5,-112.5 2097.5,-112.5"/>
<text text-anchor="middle" x="2127" y="-119.5" font-family="FreeSans" font-size="10.00">polyfit.cpp</text>
</a>
</g>
</g>
<!-- Node1&#45;&gt;Node19 -->
<g id="edge18" class="edge"><title>Node1&#45;&gt;Node19</title>
<path fill="none" stroke="midnightblue" d="M2069.77,-162.622C2084.02,-152.757 2102.46,-139.992 2114.5,-131.655"/>
<polygon fill="midnightblue" stroke="midnightblue" points="2067.76,-159.754 2061.53,-168.324 2071.75,-165.51 2067.76,-159.754"/>
</g>
<!-- Node20 -->
<g id="node20" class="node"><title>Node20</title>
<g id="a_node20"><a xlink:href="MultiSpeciesThermo_8cpp.html" target="_top" xlink:title="Declarations for a thermodynamic property manager for multiple species in a phase (see Species Refere...">
<polygon fill="white" stroke="black" points="2174.5,-112.5 2174.5,-131.5 2297.5,-131.5 2297.5,-112.5 2174.5,-112.5"/>
<text text-anchor="middle" x="2236" y="-119.5" font-family="FreeSans" font-size="10.00">MultiSpeciesThermo.cpp</text>
</a>
</g>
</g>
<!-- Node1&#45;&gt;Node20 -->
<g id="edge19" class="edge"><title>Node1&#45;&gt;Node20</title>
<path fill="none" stroke="midnightblue" d="M2088.59,-165.568C2123.87,-155.381 2174.69,-140.703 2206.51,-131.516"/>
<polygon fill="midnightblue" stroke="midnightblue" points="2087.27,-162.307 2078.63,-168.444 2089.21,-169.032 2087.27,-162.307"/>
</g>
<!-- Node21 -->
<g id="node21" class="node"><title>Node21</title>
<g id="a_node21"><a xlink:href="Nasa9PolyMultiTempRegion_8cpp.html" target="_top" xlink:title="Definitions for a single&#45;species standard state object derived from SpeciesThermoInterpType based on ...">
<polygon fill="white" stroke="black" points="2316,-112.5 2316,-131.5 2472,-131.5 2472,-112.5 2316,-112.5"/>
<text text-anchor="middle" x="2394" y="-119.5" font-family="FreeSans" font-size="10.00">Nasa9PolyMultiTempRegion.cpp</text>
</a>
</g>
</g>
<!-- Node1&#45;&gt;Node21 -->
<g id="edge20" class="edge"><title>Node1&#45;&gt;Node21</title>
<path fill="none" stroke="midnightblue" d="M2098.46,-169.259C2162.36,-159.257 2273.24,-141.901 2339.5,-131.53"/>
<polygon fill="midnightblue" stroke="midnightblue" points="2097.58,-165.854 2088.24,-170.858 2098.66,-172.77 2097.58,-165.854"/>
</g>
<!-- Node22 -->
<g id="node22" class="node"><title>Node22</title>
<g id="a_node22"><a xlink:href="Species_8cpp_source.html" target="_top" xlink:title="Species.cpp">
<polygon fill="white" stroke="black" points="2572.5,-56.5 2572.5,-75.5 2641.5,-75.5 2641.5,-56.5 2572.5,-56.5"/>
<text text-anchor="middle" x="2607" y="-63.5" font-family="FreeSans" font-size="10.00">Species.cpp</text>
</a>
</g>
</g>
<!-- Node1&#45;&gt;Node22 -->
<g id="edge21" class="edge"><title>Node1&#45;&gt;Node22</title>
<path fill="none" stroke="midnightblue" d="M2098.26,-176.965C2232.95,-176.358 2599.78,-171.098 2636,-132 2651.45,-115.32 2629.71,-89.0382 2616.26,-75.5743"/>
<polygon fill="midnightblue" stroke="midnightblue" points="2098.2,-173.465 2088.22,-177.003 2098.23,-180.465 2098.2,-173.465"/>
</g>
<!-- Node23 -->
<g id="node23" class="node"><title>Node23</title>
<g id="a_node23"><a xlink:href="VPSSMgrFactory_8h.html" target="_top" xlink:title="Header for factory to build instances of classes that manage the standard&#45;state thermodynamic propert...">
<polygon fill="white" stroke="black" points="817.5,-56.5 817.5,-75.5 916.5,-75.5 916.5,-56.5 817.5,-56.5"/>
<text text-anchor="middle" x="867" y="-63.5" font-family="FreeSans" font-size="10.00">VPSSMgrFactory.h</text>
</a>
</g>
</g>
<!-- Node1&#45;&gt;Node23 -->
<g id="edge22" class="edge"><title>Node1&#45;&gt;Node23</title>
<path fill="none" stroke="midnightblue" d="M1999.53,-177.325C1755.32,-178.694 688.237,-181.802 640,-132 633.816,-125.615 634.359,-118.869 640,-112 645.649,-105.121 752.298,-86.1949 817.377,-75.2021"/>
<polygon fill="midnightblue" stroke="midnightblue" points="1999.89,-180.824 2009.87,-177.266 1999.85,-173.824 1999.89,-180.824"/>
</g>
<!-- Node26 -->
<g id="node26" class="node"><title>Node26</title>
<g id="a_node26"><a xlink:href="WaterPropsIAPWS_8cpp.html" target="_top" xlink:title="Definitions for a class for calculating the equation of state of water from the IAPWS 1995 Formulatio...">
<polygon fill="white" stroke="black" points="2684.5,-112.5 2684.5,-131.5 2801.5,-131.5 2801.5,-112.5 2684.5,-112.5"/>
<text text-anchor="middle" x="2743" y="-119.5" font-family="FreeSans" font-size="10.00">WaterPropsIAPWS.cpp</text>
</a>
</g>
</g>
<!-- Node1&#45;&gt;Node26 -->
<g id="edge25" class="edge"><title>Node1&#45;&gt;Node26</title>
<path fill="none" stroke="midnightblue" d="M2098.3,-174.273C2203.47,-168.27 2457.61,-152.775 2670,-132 2674.7,-131.54 2679.57,-131.025 2684.46,-130.481"/>
<polygon fill="midnightblue" stroke="midnightblue" points="2098.08,-170.78 2088.29,-174.841 2098.47,-177.769 2098.08,-170.78"/>
</g>
<!-- Node27 -->
<g id="node27" class="node"><title>Node27</title>
<g id="a_node27"><a xlink:href="TransportData_8cpp.html" target="_top" xlink:title="TransportData.cpp">
<polygon fill="white" stroke="black" points="2819.5,-112.5 2819.5,-131.5 2914.5,-131.5 2914.5,-112.5 2819.5,-112.5"/>
<text text-anchor="middle" x="2867" y="-119.5" font-family="FreeSans" font-size="10.00">TransportData.cpp</text>
</a>
</g>
</g>
<!-- Node1&#45;&gt;Node27 -->
<g id="edge26" class="edge"><title>Node1&#45;&gt;Node27</title>
<path fill="none" stroke="midnightblue" d="M2098.42,-175.747C2219.86,-172.305 2542.47,-160.961 2810,-132 2813.09,-131.666 2816.26,-131.28 2819.46,-130.861"/>
<polygon fill="midnightblue" stroke="midnightblue" points="2098.22,-172.251 2088.32,-176.028 2098.41,-179.248 2098.22,-172.251"/>
</g>
<!-- Node28 -->
<g id="node28" class="node"><title>Node28</title>
<g id="a_node28"><a xlink:href="xml_8h.html" target="_top" xlink:title="Classes providing support for XML data files. ">
<polygon fill="white" stroke="red" points="384.5,-112.5 384.5,-131.5 423.5,-131.5 423.5,-112.5 384.5,-112.5"/>
<text text-anchor="middle" x="404" y="-119.5" font-family="FreeSans" font-size="10.00">xml.h</text>
</a>
</g>
</g>
<!-- Node1&#45;&gt;Node28 -->
<g id="edge27" class="edge"><title>Node1&#45;&gt;Node28</title>
<path fill="none" stroke="midnightblue" d="M1999.54,-176.831C1764.35,-175.841 757.71,-169.453 446,-132 438.596,-131.11 430.568,-129.543 423.533,-127.962"/>
<polygon fill="midnightblue" stroke="midnightblue" points="1999.82,-180.332 2009.83,-176.873 1999.84,-173.332 1999.82,-180.332"/>
</g>
<!-- Node35 -->
<g id="node35" class="node"><title>Node35</title>
<g id="a_node35"><a xlink:href="FactoryBase_8h.html" target="_top" xlink:title="File contains the FactoryBase class declarations. ">
<polygon fill="white" stroke="red" points="515,-112.5 515,-131.5 593,-131.5 593,-112.5 515,-112.5"/>
<text text-anchor="middle" x="554" y="-119.5" font-family="FreeSans" font-size="10.00">FactoryBase.h</text>
</a>
</g>
</g>
<!-- Node1&#45;&gt;Node35 -->
<g id="edge35" class="edge"><title>Node1&#45;&gt;Node35</title>
<path fill="none" stroke="midnightblue" d="M1999.64,-176.369C1779.49,-173.414 885.926,-159.902 607,-132 602.542,-131.554 597.893,-130.959 593.281,-130.286"/>
<polygon fill="midnightblue" stroke="midnightblue" points="1999.86,-179.872 2009.9,-176.505 1999.95,-172.873 1999.86,-179.872"/>
</g>
<!-- Node36 -->
<g id="node36" class="node"><title>Node36</title>
<g id="a_node36"><a xlink:href="plots_8h.html" target="_top" xlink:title="Contains declarations for utility functions for outputing to plotting programs. ">
<polygon fill="white" stroke="red" points="2933,-112.5 2933,-131.5 2977,-131.5 2977,-112.5 2933,-112.5"/>
<text text-anchor="middle" x="2955" y="-119.5" font-family="FreeSans" font-size="10.00">plots.h</text>
</a>
</g>
</g>
<!-- Node1&#45;&gt;Node36 -->
<g id="edge38" class="edge"><title>Node1&#45;&gt;Node36</title>
<path fill="none" stroke="midnightblue" d="M2098.24,-175.907C2258.23,-172.13 2762.36,-158.387 2923,-132 2926.19,-131.476 2929.51,-130.751 2932.76,-129.937"/>
<polygon fill="midnightblue" stroke="midnightblue" points="2098.12,-172.409 2088.21,-176.142 2098.29,-179.407 2098.12,-172.409"/>
</g>
<!-- Node37 -->
<g id="node37" class="node"><title>Node37</title>
<g id="a_node37"><a xlink:href="funcWrapper_8h_source.html" target="_top" xlink:title="funcWrapper.h">
<polygon fill="white" stroke="black" points="2994.5,-112.5 2994.5,-131.5 3073.5,-131.5 3073.5,-112.5 2994.5,-112.5"/>
<text text-anchor="middle" x="3034" y="-119.5" font-family="FreeSans" font-size="10.00">funcWrapper.h</text>
</a>
</g>
</g>
<!-- Node1&#45;&gt;Node37 -->
<g id="edge39" class="edge"><title>Node1&#45;&gt;Node37</title>
<path fill="none" stroke="midnightblue" d="M2098.78,-176.942C2238.81,-176.278 2647.92,-170.882 2985,-132 2988.09,-131.643 2991.29,-131.209 2994.49,-130.726"/>
<polygon fill="midnightblue" stroke="midnightblue" points="2098.37,-173.444 2088.39,-176.985 2098.4,-180.444 2098.37,-173.444"/>
</g>
<!-- Node38 -->
<g id="node38" class="node"><title>Node38</title>
<g id="a_node38"><a xlink:href="Phase_8h.html" target="_top" xlink:title="Header file for class Phase. ">
<polygon fill="white" stroke="red" points="3091.5,-112.5 3091.5,-131.5 3142.5,-131.5 3142.5,-112.5 3091.5,-112.5"/>
<text text-anchor="middle" x="3117" y="-119.5" font-family="FreeSans" font-size="10.00">Phase.h</text>
</a>
</g>
</g>
<!-- Node1&#45;&gt;Node38 -->
<g id="edge40" class="edge"><title>Node1&#45;&gt;Node38</title>
<path fill="none" stroke="midnightblue" d="M2098.26,-176.213C2276.65,-173.151 2888.65,-160.75 3082,-132 3084.98,-131.557 3088.07,-130.964 3091.13,-130.292"/>
<polygon fill="midnightblue" stroke="midnightblue" points="2098.06,-172.716 2088.12,-176.385 2098.17,-179.715 2098.06,-172.716"/>
</g>
<!-- Node39 -->
<g id="node39" class="node"><title>Node39</title>
<g id="a_node39"><a xlink:href="SpeciesThermoInterpType_8h.html" target="_top" xlink:title="Pure Virtual Base class for individual species reference state thermodynamic managers and text for th...">
<polygon fill="white" stroke="red" points="2490.5,-112.5 2490.5,-131.5 2627.5,-131.5 2627.5,-112.5 2490.5,-112.5"/>
<text text-anchor="middle" x="2559" y="-119.5" font-family="FreeSans" font-size="10.00">SpeciesThermoInterpType.h</text>
</a>
</g>
</g>
<!-- Node1&#45;&gt;Node39 -->
<g id="edge41" class="edge"><title>Node1&#45;&gt;Node39</title>
<path fill="none" stroke="midnightblue" d="M2098.33,-172.041C2178.57,-163.934 2342.37,-147.217 2481,-132 2483.98,-131.673 2487.03,-131.335 2490.1,-130.992"/>
<polygon fill="midnightblue" stroke="midnightblue" points="2097.63,-168.594 2088.03,-173.08 2098.33,-175.558 2097.63,-168.594"/>
</g>
<!-- Node40 -->
<g id="node40" class="node"><title>Node40</title>
<g id="a_node40"><a xlink:href="StoichManager_8h.html" target="_top" xlink:title="StoichManager.h">
<polygon fill="white" stroke="red" points="3160.5,-112.5 3160.5,-131.5 3249.5,-131.5 3249.5,-112.5 3160.5,-112.5"/>
<text text-anchor="middle" x="3205" y="-119.5" font-family="FreeSans" font-size="10.00">StoichManager.h</text>
</a>
</g>
</g>
<!-- Node1&#45;&gt;Node40 -->
<g id="edge43" class="edge"><title>Node1&#45;&gt;Node40</title>
<path fill="none" stroke="midnightblue" d="M2098.33,-177.167C2253.61,-177.225 2746.04,-173.851 3151,-132 3154.03,-131.687 3157.14,-131.312 3160.27,-130.895"/>
<polygon fill="midnightblue" stroke="midnightblue" points="2098.17,-173.667 2088.17,-177.158 2098.16,-180.667 2098.17,-173.667"/>
</g>
<!-- Node41 -->
<g id="node41" class="node"><title>Node41</title>
<g id="a_node41"><a xlink:href="ChemEquil_8h.html" target="_top" xlink:title="Chemical equilibrium. ">
<polygon fill="white" stroke="red" points="3267.5,-112.5 3267.5,-131.5 3338.5,-131.5 3338.5,-112.5 3267.5,-112.5"/>
<text text-anchor="middle" x="3303" y="-119.5" font-family="FreeSans" font-size="10.00">ChemEquil.h</text>
</a>
</g>
</g>
<!-- Node1&#45;&gt;Node41 -->
<g id="edge44" class="edge"><title>Node1&#45;&gt;Node41</title>
<path fill="none" stroke="midnightblue" d="M2098.23,-176.221C2295.29,-172.939 3027.71,-159.138 3258,-132 3261.01,-131.646 3264.11,-131.198 3267.22,-130.693"/>
<polygon fill="midnightblue" stroke="midnightblue" points="2098.11,-172.722 2088.17,-176.387 2098.23,-179.721 2098.11,-172.722"/>
</g>
<!-- Node42 -->
<g id="node42" class="node"><title>Node42</title>
<g id="a_node42"><a xlink:href="RxnRates_8h.html" target="_top" xlink:title="RxnRates.h">
<polygon fill="white" stroke="red" points="3356.5,-112.5 3356.5,-131.5 3421.5,-131.5 3421.5,-112.5 3356.5,-112.5"/>
<text text-anchor="middle" x="3389" y="-119.5" font-family="FreeSans" font-size="10.00">RxnRates.h</text>
</a>
</g>
</g>
<!-- Node1&#45;&gt;Node42 -->
<g id="edge45" class="edge"><title>Node1&#45;&gt;Node42</title>
<path fill="none" stroke="midnightblue" d="M2098.42,-176.453C2304.8,-173.991 3098.58,-162.678 3347,-132 3349.96,-131.634 3353.02,-131.163 3356.08,-130.629"/>
<polygon fill="midnightblue" stroke="midnightblue" points="2098.15,-172.956 2088.19,-176.574 2098.23,-179.956 2098.15,-172.956"/>
</g>
<!-- Node43 -->
<g id="node43" class="node"><title>Node43</title>
<g id="a_node43"><a xlink:href="FuncEval_8h.html" target="_top" xlink:title="FuncEval.h">
<polygon fill="white" stroke="red" points="3440,-112.5 3440,-131.5 3504,-131.5 3504,-112.5 3440,-112.5"/>
<text text-anchor="middle" x="3472" y="-119.5" font-family="FreeSans" font-size="10.00">FuncEval.h</text>
</a>
</g>
</g>
<!-- Node1&#45;&gt;Node43 -->
<g id="edge46" class="edge"><title>Node1&#45;&gt;Node43</title>
<path fill="none" stroke="midnightblue" d="M2098.38,-176.573C2312.82,-174.536 3164.38,-164.522 3430,-132 3433.26,-131.601 3436.63,-131.074 3440,-130.473"/>
<polygon fill="midnightblue" stroke="midnightblue" points="2098.04,-173.076 2088.07,-176.669 2098.1,-180.076 2098.04,-173.076"/>
</g>
<!-- Node44 -->
<g id="node44" class="node"><title>Node44</title>
<g id="a_node44"><a xlink:href="ResidEval_8h.html" target="_top" xlink:title="ResidEval.h">
<polygon fill="white" stroke="red" points="3522,-112.5 3522,-131.5 3588,-131.5 3588,-112.5 3522,-112.5"/>
<text text-anchor="middle" x="3555" y="-119.5" font-family="FreeSans" font-size="10.00">ResidEval.h</text>
</a>
</g>
</g>
<!-- Node1&#45;&gt;Node44 -->
<g id="edge47" class="edge"><title>Node1&#45;&gt;Node44</title>
<path fill="none" stroke="midnightblue" d="M2098.08,-176.681C2319.89,-175.056 3230.04,-166.381 3513,-132 3515.81,-131.658 3518.72,-131.22 3521.62,-130.72"/>
<polygon fill="midnightblue" stroke="midnightblue" points="2098.02,-173.181 2088.05,-176.753 2098.07,-180.181 2098.02,-173.181"/>
</g>
<!-- Node45 -->
<g id="node45" class="node"><title>Node45</title>
<g id="a_node45"><a xlink:href="DenseMatrix_8h.html" target="_top" xlink:title="Headers for the DenseMatrix object, which deals with dense rectangular matrices and description of th...">
<polygon fill="white" stroke="red" points="993.5,-112.5 993.5,-131.5 1070.5,-131.5 1070.5,-112.5 993.5,-112.5"/>
<text text-anchor="middle" x="1032" y="-119.5" font-family="FreeSans" font-size="10.00">DenseMatrix.h</text>
</a>
</g>
</g>
<!-- Node1&#45;&gt;Node45 -->
<g id="edge48" class="edge"><title>Node1&#45;&gt;Node45</title>
<path fill="none" stroke="midnightblue" d="M1999.69,-176.81C1857.41,-175.809 1433.99,-169.636 1085,-132 1080.36,-131.5 1075.51,-130.851 1070.71,-130.132"/>
<polygon fill="midnightblue" stroke="midnightblue" points="1999.82,-180.311 2009.84,-176.876 1999.87,-173.311 1999.82,-180.311"/>
</g>
<!-- Node46 -->
<g id="node46" class="node"><title>Node46</title>
<g id="a_node46"><a xlink:href="GeneralMatrix_8h.html" target="_top" xlink:title="Declarations for the class GeneralMatrix which is a virtual base class for matrices handled by solver...">
<polygon fill="white" stroke="red" points="3606,-112.5 3606,-131.5 3690,-131.5 3690,-112.5 3606,-112.5"/>
<text text-anchor="middle" x="3648" y="-119.5" font-family="FreeSans" font-size="10.00">GeneralMatrix.h</text>
</a>
</g>
</g>
<!-- Node1&#45;&gt;Node46 -->
<g id="edge51" class="edge"><title>Node1&#45;&gt;Node46</title>
<path fill="none" stroke="midnightblue" d="M2098.24,-176.535C2327.98,-174.215 3296.04,-162.764 3597,-132 3599.86,-131.707 3602.81,-131.347 3605.77,-130.941"/>
<polygon fill="midnightblue" stroke="midnightblue" points="2098.14,-173.035 2088.17,-176.635 2098.21,-180.035 2098.14,-173.035"/>
</g>
<!-- Node47 -->
<g id="node47" class="node"><title>Node47</title>
<g id="a_node47"><a xlink:href="CVodesIntegrator_8h.html" target="_top" xlink:title="CVodesIntegrator.h">
<polygon fill="white" stroke="red" points="3708,-112.5 3708,-131.5 3806,-131.5 3806,-112.5 3708,-112.5"/>
<text text-anchor="middle" x="3757" y="-119.5" font-family="FreeSans" font-size="10.00">CVodesIntegrator.h</text>
</a>
</g>
</g>
<!-- Node1&#45;&gt;Node47 -->
<g id="edge52" class="edge"><title>Node1&#45;&gt;Node47</title>
<path fill="none" stroke="midnightblue" d="M2098.3,-176.481C2337.15,-173.839 3375.65,-160.872 3698,-132 3701.2,-131.713 3704.49,-131.364 3707.8,-130.972"/>
<polygon fill="midnightblue" stroke="midnightblue" points="2098.15,-172.982 2088.18,-176.592 2098.22,-179.982 2098.15,-172.982"/>
</g>
<!-- Node48 -->
<g id="node48" class="node"><title>Node48</title>
<g id="a_node48"><a xlink:href="Domain1D_8h.html" target="_top" xlink:title="Domain1D.h">
<polygon fill="white" stroke="red" points="3824.5,-112.5 3824.5,-131.5 3893.5,-131.5 3893.5,-112.5 3824.5,-112.5"/>
<text text-anchor="middle" x="3859" y="-119.5" font-family="FreeSans" font-size="10.00">Domain1D.h</text>
</a>
</g>
</g>
<!-- Node1&#45;&gt;Node48 -->
<g id="edge53" class="edge"><title>Node1&#45;&gt;Node48</title>
<path fill="none" stroke="midnightblue" d="M2098.54,-176.888C2348,-176.148 3468.27,-170.689 3814,-132 3817.33,-131.628 3820.77,-131.136 3824.21,-130.573"/>
<polygon fill="midnightblue" stroke="midnightblue" points="2098.33,-173.388 2088.34,-176.917 2098.35,-180.388 2098.33,-173.388"/>
</g>
<!-- Node49 -->
<g id="node49" class="node"><title>Node49</title>
<g id="a_node49"><a xlink:href="Sub_8h.html" target="_top" xlink:title="Sub.h">
<polygon fill="white" stroke="red" points="455.5,-112.5 455.5,-131.5 496.5,-131.5 496.5,-112.5 455.5,-112.5"/>
<text text-anchor="middle" x="476" y="-119.5" font-family="FreeSans" font-size="10.00">Sub.h</text>
</a>
</g>
</g>
<!-- Node1&#45;&gt;Node49 -->
<g id="edge54" class="edge"><title>Node1&#45;&gt;Node49</title>
<path fill="none" stroke="midnightblue" d="M1999.82,-177.297C1770.37,-178.416 803.684,-180.134 506,-132 502.994,-131.514 499.868,-130.81 496.817,-130.006"/>
<polygon fill="midnightblue" stroke="midnightblue" points="1999.89,-180.796 2009.87,-177.246 1999.86,-173.797 1999.89,-180.796"/>
</g>
<!-- Node50 -->
<g id="node50" class="node"><title>Node50</title>
<g id="a_node50"><a xlink:href="Wall_8h.html" target="_top" xlink:title="Header file for class Wall. ">
<polygon fill="white" stroke="red" points="3911.5,-112.5 3911.5,-131.5 3954.5,-131.5 3954.5,-112.5 3911.5,-112.5"/>
<text text-anchor="middle" x="3933" y="-119.5" font-family="FreeSans" font-size="10.00">Wall.h</text>
</a>
</g>
</g>
<!-- Node1&#45;&gt;Node50 -->
<g id="edge56" class="edge"><title>Node1&#45;&gt;Node50</title>
<path fill="none" stroke="midnightblue" d="M2098.42,-176.562C2374.43,-174.013 3719.5,-160.221 3902,-132 3905.1,-131.52 3908.33,-130.82 3911.48,-130.018"/>
<polygon fill="midnightblue" stroke="midnightblue" points="2098.27,-173.063 2088.3,-176.655 2098.34,-180.063 2098.27,-173.063"/>
</g>
<!-- Node3 -->
<g id="node3" class="node"><title>Node3</title>
<g id="a_node3"><a xlink:href="application_8cpp.html" target="_top" xlink:title="application.cpp">
<polygon fill="white" stroke="black" points="-0.5,-56.5 -0.5,-75.5 80.5,-75.5 80.5,-56.5 -0.5,-56.5"/>
<text text-anchor="middle" x="40" y="-63.5" font-family="FreeSans" font-size="10.00">application.cpp</text>
</a>
</g>
</g>
<!-- Node2&#45;&gt;Node3 -->
<g id="edge2" class="edge"><title>Node2&#45;&gt;Node3</title>
<path fill="none" stroke="midnightblue" d="M105.762,-106.901C89.4422,-96.9986 68.1348,-84.0705 54.2639,-75.6545"/>
<polygon fill="midnightblue" stroke="midnightblue" points="104.336,-110.129 114.701,-112.324 107.967,-104.144 104.336,-110.129"/>
</g>
<!-- Node4 -->
<g id="node4" class="node"><title>Node4</title>
<g id="a_node4"><a xlink:href="global_8cpp.html" target="_top" xlink:title="global.cpp">
<polygon fill="white" stroke="black" points="99,-56.5 99,-75.5 159,-75.5 159,-56.5 99,-56.5"/>
<text text-anchor="middle" x="129" y="-63.5" font-family="FreeSans" font-size="10.00">global.cpp</text>
</a>
</g>
</g>
<!-- Node2&#45;&gt;Node4 -->
<g id="edge3" class="edge"><title>Node2&#45;&gt;Node4</title>
<path fill="none" stroke="midnightblue" d="M129,-101.805C129,-92.9102 129,-82.7798 129,-75.7511"/>
<polygon fill="midnightblue" stroke="midnightblue" points="125.5,-102.083 129,-112.083 132.5,-102.083 125.5,-102.083"/>
</g>
<!-- Node24 -->
<g id="node24" class="node"><title>Node24</title>
<g id="a_node24"><a xlink:href="ThermoFactory_8cpp.html" target="_top" xlink:title="Definitions for the factory class that can create known ThermoPhase objects (see Thermodynamic Proper...">
<polygon fill="white" stroke="black" points="755,-0.5 755,-19.5 855,-19.5 855,-0.5 755,-0.5"/>
<text text-anchor="middle" x="805" y="-7.5" font-family="FreeSans" font-size="10.00">ThermoFactory.cpp</text>
</a>
</g>
</g>
<!-- Node23&#45;&gt;Node24 -->
<g id="edge23" class="edge"><title>Node23&#45;&gt;Node24</title>
<path fill="none" stroke="midnightblue" d="M849.246,-49.5372C838.192,-39.9087 824.369,-27.8694 815.143,-19.8339"/>
<polygon fill="midnightblue" stroke="midnightblue" points="847.199,-52.3954 857.039,-56.324 851.797,-47.1168 847.199,-52.3954"/>
</g>
<!-- Node25 -->
<g id="node25" class="node"><title>Node25</title>
<g id="a_node25"><a xlink:href="VPSSMgrFactory_8cpp.html" target="_top" xlink:title="Definitions for factory to build instances of classes that manage the calculation of standard state p...">
<polygon fill="white" stroke="black" points="873,-0.5 873,-19.5 983,-19.5 983,-0.5 873,-0.5"/>
<text text-anchor="middle" x="928" y="-7.5" font-family="FreeSans" font-size="10.00">VPSSMgrFactory.cpp</text>
</a>
</g>
</g>
<!-- Node23&#45;&gt;Node25 -->
<g id="edge24" class="edge"><title>Node23&#45;&gt;Node25</title>
<path fill="none" stroke="midnightblue" d="M884.467,-49.5372C895.344,-39.9087 908.944,-27.8694 918.021,-19.8339"/>
<polygon fill="midnightblue" stroke="midnightblue" points="881.968,-47.0749 876.801,-56.324 886.608,-52.3162 881.968,-47.0749"/>
</g>
<!-- Node28&#45;&gt;Node4 -->
<g id="edge28" class="edge"><title>Node28&#45;&gt;Node4</title>
<path fill="none" stroke="midnightblue" d="M374.459,-115.743C329.698,-107.693 242.06,-91.6001 168,-76 165.144,-75.3984 162.176,-74.752 159.208,-74.0917"/>
<polygon fill="midnightblue" stroke="midnightblue" points="373.908,-119.2 384.368,-117.52 375.143,-112.31 373.908,-119.2"/>
</g>
<!-- Node29 -->
<g id="node29" class="node"><title>Node29</title>
<g id="a_node29"><a xlink:href="xml_8cpp.html" target="_top" xlink:title="Classes providing support for XML data files. ">
<polygon fill="white" stroke="black" points="177,-56.5 177,-75.5 227,-75.5 227,-56.5 177,-56.5"/>
<text text-anchor="middle" x="202" y="-63.5" font-family="FreeSans" font-size="10.00">xml.cpp</text>
</a>
</g>
</g>
<!-- Node28&#45;&gt;Node29 -->
<g id="edge29" class="edge"><title>Node28&#45;&gt;Node29</title>
<path fill="none" stroke="midnightblue" d="M374.361,-113.077C334.555,-102.435 264.513,-83.7113 227.146,-73.7223"/>
<polygon fill="midnightblue" stroke="midnightblue" points="373.699,-116.523 384.264,-115.724 375.507,-109.76 373.699,-116.523"/>
</g>
<!-- Node30 -->
<g id="node30" class="node"><title>Node30</title>
<g id="a_node30"><a xlink:href="KineticsFactory_8cpp.html" target="_top" xlink:title="KineticsFactory.cpp">
<polygon fill="white" stroke="black" points="245.5,-56.5 245.5,-75.5 346.5,-75.5 346.5,-56.5 245.5,-56.5"/>
<text text-anchor="middle" x="296" y="-63.5" font-family="FreeSans" font-size="10.00">KineticsFactory.cpp</text>
</a>
</g>
</g>
<!-- Node28&#45;&gt;Node30 -->
<g id="edge30" class="edge"><title>Node28&#45;&gt;Node30</title>
<path fill="none" stroke="midnightblue" d="M377.452,-107.726C357.454,-97.7271 330.613,-84.3065 313.309,-75.6545"/>
<polygon fill="midnightblue" stroke="midnightblue" points="376.138,-110.982 386.648,-112.324 379.269,-104.721 376.138,-110.982"/>
</g>
<!-- Node31 -->
<g id="node31" class="node"><title>Node31</title>
<g id="a_node31"><a xlink:href="Sim1D_8cpp.html" target="_top" xlink:title="Sim1D.cpp">
<polygon fill="white" stroke="black" points="365,-56.5 365,-75.5 429,-75.5 429,-56.5 365,-56.5"/>
<text text-anchor="middle" x="397" y="-63.5" font-family="FreeSans" font-size="10.00">Sim1D.cpp</text>
</a>
</g>
</g>
<!-- Node28&#45;&gt;Node31 -->
<g id="edge31" class="edge"><title>Node28&#45;&gt;Node31</title>
<path fill="none" stroke="midnightblue" d="M401.55,-102.101C400.388,-93.1357 399.056,-82.8579 398.134,-75.7511"/>
<polygon fill="midnightblue" stroke="midnightblue" points="398.088,-102.616 402.844,-112.083 405.029,-101.716 398.088,-102.616"/>
</g>
<!-- Node32 -->
<g id="node32" class="node"><title>Node32</title>
<g id="a_node32"><a xlink:href="MaskellSolidSolnPhase_8cpp.html" target="_top" xlink:title="Implementation file for an ideal solid solution model with incompressible thermodynamics (see Thermod...">
<polygon fill="white" stroke="black" points="447,-56.5 447,-75.5 583,-75.5 583,-56.5 447,-56.5"/>
<text text-anchor="middle" x="515" y="-63.5" font-family="FreeSans" font-size="10.00">MaskellSolidSolnPhase.cpp</text>
</a>
</g>
</g>
<!-- Node28&#45;&gt;Node32 -->
<g id="edge32" class="edge"><title>Node28&#45;&gt;Node32</title>
<path fill="none" stroke="midnightblue" d="M431.005,-107.862C451.588,-97.8492 479.345,-84.3458 497.21,-75.6545"/>
<polygon fill="midnightblue" stroke="midnightblue" points="429.295,-104.802 421.834,-112.324 432.358,-111.097 429.295,-104.802"/>
</g>
<!-- Node33 -->
<g id="node33" class="node"><title>Node33</title>
<g id="a_node33"><a xlink:href="PureFluidPhase_8cpp.html" target="_top" xlink:title="Definitions for a ThermoPhase object for a pure fluid phase consisting of gas, liquid, mixed&#45;gas&#45;liquid and supercritical fluid (see Thermodynamic Properties and class PureFluidPhase). ">
<polygon fill="white" stroke="black" points="696.5,-56.5 696.5,-75.5 799.5,-75.5 799.5,-56.5 696.5,-56.5"/>
<text text-anchor="middle" x="748" y="-63.5" font-family="FreeSans" font-size="10.00">PureFluidPhase.cpp</text>
</a>
</g>
</g>
<!-- Node28&#45;&gt;Node33 -->
<g id="edge33" class="edge"><title>Node28&#45;&gt;Node33</title>
<path fill="none" stroke="midnightblue" d="M433.625,-114.407C437.772,-113.556 441.987,-112.728 446,-112 452.12,-110.889 611.701,-87.2035 696.355,-74.6531"/>
<polygon fill="midnightblue" stroke="midnightblue" points="432.664,-111.033 423.607,-116.53 434.115,-117.881 432.664,-111.033"/>
</g>
<!-- Node34 -->
<g id="node34" class="node"><title>Node34</title>
<g id="a_node34"><a xlink:href="VPSSMgr_8cpp.html" target="_top" xlink:title="Definition file for a virtual base class that manages the calculation of standard state properties fo...">
<polygon fill="white" stroke="black" points="601.5,-56.5 601.5,-75.5 678.5,-75.5 678.5,-56.5 601.5,-56.5"/>
<text text-anchor="middle" x="640" y="-63.5" font-family="FreeSans" font-size="10.00">VPSSMgr.cpp</text>
</a>
</g>
</g>
<!-- Node28&#45;&gt;Node34 -->
<g id="edge34" class="edge"><title>Node28&#45;&gt;Node34</title>
<path fill="none" stroke="midnightblue" d="M433.524,-114.244C476.346,-104.446 555.678,-86.2941 602.555,-75.5679"/>
<polygon fill="midnightblue" stroke="midnightblue" points="432.683,-110.846 423.715,-116.489 434.244,-117.67 432.683,-110.846"/>
</g>
<!-- Node35&#45;&gt;Node4 -->
<g id="edge36" class="edge"><title>Node35&#45;&gt;Node4</title>
<path fill="none" stroke="midnightblue" d="M505.305,-112.044C505.203,-112.03 505.102,-112.015 505,-112 355.93,-90.3789 316.544,-100.981 168,-76 165.122,-75.516 162.138,-74.9486 159.162,-74.3381"/>
<polygon fill="midnightblue" stroke="midnightblue" points="504.573,-115.472 514.995,-113.562 505.657,-108.557 504.573,-115.472"/>
</g>
<!-- Node35&#45;&gt;Node23 -->
<g id="edge37" class="edge"><title>Node35&#45;&gt;Node23</title>
<path fill="none" stroke="midnightblue" d="M603.124,-112.525C661.701,-102.419 759.033,-85.6269 817.692,-75.5069"/>
<polygon fill="midnightblue" stroke="midnightblue" points="602.268,-109.121 593.009,-114.27 603.458,-116.019 602.268,-109.121"/>
</g>
<!-- Node39&#45;&gt;Node22 -->
<g id="edge42" class="edge"><title>Node39&#45;&gt;Node22</title>
<path fill="none" stroke="midnightblue" d="M2573.73,-104.431C2582.14,-94.9673 2592.35,-83.4827 2599.22,-75.7511"/>
<polygon fill="midnightblue" stroke="midnightblue" points="2570.95,-102.284 2566.93,-112.083 2576.19,-106.934 2570.95,-102.284"/>
</g>
<!-- Node45&#45;&gt;Node8 -->
<g id="edge49" class="edge"><title>Node45&#45;&gt;Node8</title>
<path fill="none" stroke="midnightblue" d="M1015.11,-105.537C1004.59,-95.9087 991.431,-83.8694 982.652,-75.8339"/>
<polygon fill="midnightblue" stroke="midnightblue" points="1012.78,-108.154 1022.52,-112.324 1017.51,-102.99 1012.78,-108.154"/>
</g>
<!-- Node45&#45;&gt;Node15 -->
<g id="edge50" class="edge"><title>Node45&#45;&gt;Node15</title>
<path fill="none" stroke="midnightblue" d="M1048.89,-105.537C1059.41,-95.9087 1072.57,-83.8694 1081.35,-75.8339"/>
<polygon fill="midnightblue" stroke="midnightblue" points="1046.49,-102.99 1041.48,-112.324 1051.22,-108.154 1046.49,-102.99"/>
</g>
<!-- Node49&#45;&gt;Node33 -->
<g id="edge55" class="edge"><title>Node49&#45;&gt;Node33</title>
<path fill="none" stroke="midnightblue" d="M506.613,-112.079C577.77,-95.07 649.179,-82.5854 696.202,-74.974"/>
<polygon fill="midnightblue" stroke="midnightblue" points="505.473,-108.754 496.577,-114.509 507.12,-115.557 505.473,-108.754"/>
</g>
</g>
</svg>
