<?xml version="1.0" encoding="UTF-8" standalone="no"?>
<!DOCTYPE svg PUBLIC "-//W3C//DTD SVG 1.1//EN"
 "http://www.w3.org/Graphics/SVG/1.1/DTD/svg11.dtd">
<!-- Generated by graphviz version 2.36.0 (20140111.2315)
 -->
<!-- Title: ctml.h Pages: 1 -->
<svg width="543pt" height="252pt"
 viewBox="0.00 0.00 543.00 252.00" xmlns="http://www.w3.org/2000/svg" xmlns:xlink="http://www.w3.org/1999/xlink">
<g id="graph0" class="graph" transform="scale(1 1) rotate(0) translate(4 248)">
<title>ctml.h</title>
<polygon fill="white" stroke="none" points="-4,4 -4,-248 539,-248 539,4 -4,4"/>
<!-- Node1 -->
<g id="node1" class="node"><title>Node1</title>
<polygon fill="#bfbfbf" stroke="black" points="280.5,-224.5 280.5,-243.5 323.5,-243.5 323.5,-224.5 280.5,-224.5"/>
<text text-anchor="middle" x="302" y="-231.5" font-family="FreeSans" font-size="10.00">ctml.h</text>
</g>
<!-- Node2 -->
<g id="node2" class="node"><title>Node2</title>
<g id="a_node2"><a xlink:href="ct__defs_8h.html" target="_top" xlink:title="This file contains definitions of terms that are used in internal routines and are unlikely to need m...">
<polygon fill="white" stroke="black" points="243,-56.5 243,-75.5 299,-75.5 299,-56.5 243,-56.5"/>
<text text-anchor="middle" x="271" y="-63.5" font-family="FreeSans" font-size="10.00">ct_defs.h</text>
</a>
</g>
</g>
<!-- Node1&#45;&gt;Node2 -->
<g id="edge1" class="edge"><title>Node1&#45;&gt;Node2</title>
<path fill="none" stroke="midnightblue" d="M300.333,-224.075C295.454,-197.945 281.124,-121.211 274.469,-85.577"/>
<polygon fill="midnightblue" stroke="midnightblue" points="277.876,-84.7556 272.6,-75.5681 270.995,-86.0407 277.876,-84.7556"/>
</g>
<!-- Node11 -->
<g id="node11" class="node"><title>Node11</title>
<g id="a_node11"><a xlink:href="xml_8h.html" target="_top" xlink:title="Classes providing support for XML data files. ">
<polygon fill="white" stroke="black" points="330.5,-168.5 330.5,-187.5 369.5,-187.5 369.5,-168.5 330.5,-168.5"/>
<text text-anchor="middle" x="350" y="-175.5" font-family="FreeSans" font-size="10.00">xml.h</text>
</a>
</g>
</g>
<!-- Node1&#45;&gt;Node11 -->
<g id="edge10" class="edge"><title>Node1&#45;&gt;Node11</title>
<path fill="none" stroke="midnightblue" d="M309.926,-224.083C316.846,-216.298 327.065,-204.801 335.452,-195.367"/>
<polygon fill="midnightblue" stroke="midnightblue" points="338.194,-197.55 342.221,-187.751 332.962,-192.9 338.194,-197.55"/>
</g>
<!-- Node3 -->
<g id="node3" class="node"><title>Node3</title>
<g id="a_node3"><a xlink:href="config_8h_source.html" target="_top" xlink:title="config.h">
<polygon fill="white" stroke="black" points="0,-0.5 0,-19.5 50,-19.5 50,-0.5 0,-0.5"/>
<text text-anchor="middle" x="25" y="-7.5" font-family="FreeSans" font-size="10.00">config.h</text>
</a>
</g>
</g>
<!-- Node2&#45;&gt;Node3 -->
<g id="edge2" class="edge"><title>Node2&#45;&gt;Node3</title>
<path fill="none" stroke="midnightblue" d="M242.78,-59.4735C203.889,-51.7567 131.407,-37.0163 60.2448,-20.2086"/>
<polygon fill="midnightblue" stroke="midnightblue" points="60.7543,-16.7322 50.2159,-17.8237 59.1348,-23.5423 60.7543,-16.7322"/>
</g>
<!-- Node4 -->
<g id="node4" class="node"><title>Node4</title>
<polygon fill="white" stroke="#bfbfbf" points="68,-0.5 68,-19.5 112,-19.5 112,-0.5 68,-0.5"/>
<text text-anchor="middle" x="90" y="-7.5" font-family="FreeSans" font-size="10.00">cmath</text>
</g>
<!-- Node2&#45;&gt;Node4 -->
<g id="edge3" class="edge"><title>Node2&#45;&gt;Node4</title>
<path fill="none" stroke="midnightblue" d="M242.719,-56.5625C210.011,-46.8043 156.287,-30.7762 122.056,-20.5637"/>
<polygon fill="midnightblue" stroke="midnightblue" points="122.687,-17.0995 112.104,-17.5944 120.686,-23.8073 122.687,-17.0995"/>
</g>
<!-- Node5 -->
<g id="node5" class="node"><title>Node5</title>
<polygon fill="white" stroke="#bfbfbf" points="130,-0.5 130,-19.5 174,-19.5 174,-0.5 130,-0.5"/>
<text text-anchor="middle" x="152" y="-7.5" font-family="FreeSans" font-size="10.00">cstdlib</text>
</g>
<!-- Node2&#45;&gt;Node5 -->
<g id="edge4" class="edge"><title>Node2&#45;&gt;Node5</title>
<path fill="none" stroke="midnightblue" d="M252.144,-56.4435C232.734,-47.6356 202.27,-33.8116 180.035,-23.722"/>
<polygon fill="midnightblue" stroke="midnightblue" points="181.32,-20.4615 170.768,-19.5164 178.428,-26.836 181.32,-20.4615"/>
</g>
<!-- Node6 -->
<g id="node6" class="node"><title>Node6</title>
<polygon fill="white" stroke="#bfbfbf" points="192.5,-0.5 192.5,-19.5 235.5,-19.5 235.5,-0.5 192.5,-0.5"/>
<text text-anchor="middle" x="214" y="-7.5" font-family="FreeSans" font-size="10.00">vector</text>
</g>
<!-- Node2&#45;&gt;Node6 -->
<g id="edge5" class="edge"><title>Node2&#45;&gt;Node6</title>
<path fill="none" stroke="midnightblue" d="M261.842,-56.324C253.499,-48.4196 240.968,-36.5482 230.823,-26.9377"/>
<polygon fill="midnightblue" stroke="midnightblue" points="232.991,-24.1705 223.325,-19.8339 228.177,-29.2522 232.991,-24.1705"/>
</g>
<!-- Node7 -->
<g id="node7" class="node"><title>Node7</title>
<polygon fill="white" stroke="#bfbfbf" points="253.5,-0.5 253.5,-19.5 288.5,-19.5 288.5,-0.5 253.5,-0.5"/>
<text text-anchor="middle" x="271" y="-7.5" font-family="FreeSans" font-size="10.00">map</text>
</g>
<!-- Node2&#45;&gt;Node7 -->
<g id="edge6" class="edge"><title>Node2&#45;&gt;Node7</title>
<path fill="none" stroke="midnightblue" d="M271,-56.083C271,-49.0059 271,-38.8611 271,-29.9865"/>
<polygon fill="midnightblue" stroke="midnightblue" points="274.5,-29.751 271,-19.7511 267.5,-29.7511 274.5,-29.751"/>
</g>
<!-- Node8 -->
<g id="node8" class="node"><title>Node8</title>
<polygon fill="white" stroke="#bfbfbf" points="451,-0.5 451,-19.5 491,-19.5 491,-0.5 451,-0.5"/>
<text text-anchor="middle" x="471" y="-7.5" font-family="FreeSans" font-size="10.00">string</text>
</g>
<!-- Node2&#45;&gt;Node8 -->
<g id="edge7" class="edge"><title>Node2&#45;&gt;Node8</title>
<path fill="none" stroke="midnightblue" d="M299.053,-57.874C332.818,-49.2276 391.197,-34.058 441,-20 441.098,-19.9723 441.196,-19.9445 441.295,-19.9167"/>
<polygon fill="midnightblue" stroke="midnightblue" points="442.064,-23.3378 450.693,-17.19 440.114,-16.6151 442.064,-23.3378"/>
</g>
<!-- Node9 -->
<g id="node9" class="node"><title>Node9</title>
<polygon fill="white" stroke="#bfbfbf" points="307,-0.5 307,-19.5 363,-19.5 363,-0.5 307,-0.5"/>
<text text-anchor="middle" x="335" y="-7.5" font-family="FreeSans" font-size="10.00">algorithm</text>
</g>
<!-- Node2&#45;&gt;Node9 -->
<g id="edge8" class="edge"><title>Node2&#45;&gt;Node9</title>
<path fill="none" stroke="midnightblue" d="M281.283,-56.324C290.836,-48.2631 305.28,-36.0765 316.784,-26.3695"/>
<polygon fill="midnightblue" stroke="midnightblue" points="319.144,-28.9577 324.53,-19.8339 314.63,-23.6076 319.144,-28.9577"/>
</g>
<!-- Node10 -->
<g id="node10" class="node"><title>Node10</title>
<polygon fill="white" stroke="#bfbfbf" points="381.5,-0.5 381.5,-19.5 432.5,-19.5 432.5,-0.5 381.5,-0.5"/>
<text text-anchor="middle" x="407" y="-7.5" font-family="FreeSans" font-size="10.00">memory</text>
</g>
<!-- Node2&#45;&gt;Node10 -->
<g id="edge9" class="edge"><title>Node2&#45;&gt;Node10</title>
<path fill="none" stroke="midnightblue" d="M292.55,-56.4435C315.031,-47.5171 350.488,-33.4387 375.98,-23.3168"/>
<polygon fill="midnightblue" stroke="midnightblue" points="377.549,-26.4598 385.551,-19.5164 374.965,-19.9539 377.549,-26.4598"/>
</g>
<!-- Node12 -->
<g id="node12" class="node"><title>Node12</title>
<g id="a_node12"><a xlink:href="ctexceptions_8h.html" target="_top" xlink:title="Definitions for the classes that are thrown when Cantera experiences an error condition (also contain...">
<polygon fill="white" stroke="black" points="404,-112.5 404,-131.5 482,-131.5 482,-112.5 404,-112.5"/>
<text text-anchor="middle" x="443" y="-119.5" font-family="FreeSans" font-size="10.00">ctexceptions.h</text>
</a>
</g>
</g>
<!-- Node11&#45;&gt;Node12 -->
<g id="edge11" class="edge"><title>Node11&#45;&gt;Node12</title>
<path fill="none" stroke="midnightblue" d="M364.942,-168.324C379.585,-159.822 402.134,-146.729 419.238,-136.797"/>
<polygon fill="midnightblue" stroke="midnightblue" points="421.205,-139.703 428.095,-131.655 417.69,-133.649 421.205,-139.703"/>
</g>
<!-- Node15 -->
<g id="node15" class="node"><title>Node15</title>
<g id="a_node15"><a xlink:href="global_8h.html" target="_top" xlink:title="This file contains definitions for utility functions and text for modules, inputfiles, logs, textlogs, (see Input File Handling, Diagnostic Output, and Writing messages to the screen). ">
<polygon fill="white" stroke="black" points="325,-112.5 325,-131.5 375,-131.5 375,-112.5 325,-112.5"/>
<text text-anchor="middle" x="350" y="-119.5" font-family="FreeSans" font-size="10.00">global.h</text>
</a>
</g>
</g>
<!-- Node11&#45;&gt;Node15 -->
<g id="edge15" class="edge"><title>Node11&#45;&gt;Node15</title>
<path fill="none" stroke="midnightblue" d="M350,-168.083C350,-161.006 350,-150.861 350,-141.986"/>
<polygon fill="midnightblue" stroke="midnightblue" points="353.5,-141.751 350,-131.751 346.5,-141.751 353.5,-141.751"/>
</g>
<!-- Node12&#45;&gt;Node8 -->
<g id="edge13" class="edge"><title>Node12&#45;&gt;Node8</title>
<path fill="none" stroke="midnightblue" d="M445.197,-112.368C449.716,-94.617 460.139,-53.6664 466.266,-29.5974"/>
<polygon fill="midnightblue" stroke="midnightblue" points="469.738,-30.1458 468.813,-19.5914 462.954,-28.419 469.738,-30.1458"/>
</g>
<!-- Node13 -->
<g id="node13" class="node"><title>Node13</title>
<polygon fill="white" stroke="#bfbfbf" points="477,-56.5 477,-75.5 535,-75.5 535,-56.5 477,-56.5"/>
<text text-anchor="middle" x="506" y="-63.5" font-family="FreeSans" font-size="10.00">exception</text>
</g>
<!-- Node12&#45;&gt;Node13 -->
<g id="edge12" class="edge"><title>Node12&#45;&gt;Node13</title>
<path fill="none" stroke="midnightblue" d="M453.122,-112.324C462.526,-104.263 476.744,-92.0765 488.069,-82.3695"/>
<polygon fill="midnightblue" stroke="midnightblue" points="490.379,-84.9993 495.694,-75.8339 485.823,-79.6844 490.379,-84.9993"/>
</g>
<!-- Node14 -->
<g id="node14" class="node"><title>Node14</title>
<polygon fill="white" stroke="#bfbfbf" points="317.5,-56.5 317.5,-75.5 420.5,-75.5 420.5,-56.5 317.5,-56.5"/>
<text text-anchor="middle" x="369" y="-63.5" font-family="FreeSans" font-size="10.00">cantera/ext/format.h</text>
</g>
<!-- Node12&#45;&gt;Node14 -->
<g id="edge14" class="edge"><title>Node12&#45;&gt;Node14</title>
<path fill="none" stroke="midnightblue" d="M431.111,-112.324C419.85,-104.107 402.713,-91.6017 389.291,-81.8069"/>
<polygon fill="midnightblue" stroke="midnightblue" points="391.247,-78.9014 381.106,-75.8339 387.12,-84.5559 391.247,-78.9014"/>
</g>
<!-- Node15&#45;&gt;Node2 -->
<g id="edge16" class="edge"><title>Node15&#45;&gt;Node2</title>
<path fill="none" stroke="midnightblue" d="M337.307,-112.324C325.099,-103.979 306.422,-91.2122 291.997,-81.3524"/>
<polygon fill="midnightblue" stroke="midnightblue" points="293.892,-78.4082 283.661,-75.6545 289.942,-84.1871 293.892,-78.4082"/>
</g>
<!-- Node15&#45;&gt;Node14 -->
<g id="edge17" class="edge"><title>Node15&#45;&gt;Node14</title>
<path fill="none" stroke="midnightblue" d="M353.137,-112.083C355.683,-104.849 359.356,-94.4087 362.527,-85.3968"/>
<polygon fill="midnightblue" stroke="midnightblue" points="365.903,-86.3459 365.921,-75.7511 359.3,-84.0225 365.903,-86.3459"/>
</g>
</g>
</svg>
