<?xml version="1.0" encoding="UTF-8" standalone="no"?>
<!DOCTYPE svg PUBLIC "-//W3C//DTD SVG 1.1//EN"
 "http://www.w3.org/Graphics/SVG/1.1/DTD/svg11.dtd">
<!-- Generated by graphviz version 2.36.0 (20140111.2315)
 -->
<!-- Title: ctml.h Pages: 1 -->
<svg width="5869pt" height="84pt"
 viewBox="0.00 0.00 5869.00 84.00" xmlns="http://www.w3.org/2000/svg" xmlns:xlink="http://www.w3.org/1999/xlink">
<g id="graph0" class="graph" transform="scale(1 1) rotate(0) translate(4 80)">
<title>ctml.h</title>
<polygon fill="white" stroke="none" points="-4,4 -4,-80 5865,-80 5865,4 -4,4"/>
<!-- Node1 -->
<g id="node1" class="node"><title>Node1</title>
<polygon fill="#bfbfbf" stroke="black" points="2753.5,-56.5 2753.5,-75.5 2796.5,-75.5 2796.5,-56.5 2753.5,-56.5"/>
<text text-anchor="middle" x="2775" y="-63.5" font-family="FreeSans" font-size="10.00">ctml.h</text>
</g>
<!-- Node2 -->
<g id="node2" class="node"><title>Node2</title>
<g id="a_node2"><a xlink:href="application_8cpp.html" target="_top" xlink:title="application.cpp">
<polygon fill="white" stroke="black" points="-0.5,-0.5 -0.5,-19.5 80.5,-19.5 80.5,-0.5 -0.5,-0.5"/>
<text text-anchor="middle" x="40" y="-7.5" font-family="FreeSans" font-size="10.00">application.cpp</text>
</a>
</g>
</g>
<!-- Node1&#45;&gt;Node2 -->
<g id="edge1" class="edge"><title>Node1&#45;&gt;Node2</title>
<path fill="none" stroke="midnightblue" d="M2743.15,-64.7854C2459.17,-62.8306 365.782,-47.5473 89,-20 86.2458,-19.7259 83.4146,-19.3797 80.5686,-18.9837"/>
<polygon fill="midnightblue" stroke="midnightblue" points="2743.17,-68.2856 2753.2,-64.8542 2743.22,-61.2857 2743.17,-68.2856"/>
</g>
<!-- Node3 -->
<g id="node3" class="node"><title>Node3</title>
<g id="a_node3"><a xlink:href="ct2ctml_8cpp.html" target="_top" xlink:title="Driver for the system call to the python executable that converts cti files to ctml files (see Input ...">
<polygon fill="white" stroke="black" points="98.5,-0.5 98.5,-19.5 165.5,-19.5 165.5,-0.5 98.5,-0.5"/>
<text text-anchor="middle" x="132" y="-7.5" font-family="FreeSans" font-size="10.00">ct2ctml.cpp</text>
</a>
</g>
</g>
<!-- Node1&#45;&gt;Node3 -->
<g id="edge2" class="edge"><title>Node1&#45;&gt;Node3</title>
<path fill="none" stroke="midnightblue" d="M2742.87,-64.8219C2462.91,-63.2207 441.186,-50.645 174,-20 171.333,-19.6941 168.585,-19.2962 165.833,-18.8384"/>
<polygon fill="midnightblue" stroke="midnightblue" points="2743.13,-68.3234 2753.15,-64.8802 2743.17,-61.3235 2743.13,-68.3234"/>
</g>
<!-- Node4 -->
<g id="node4" class="node"><title>Node4</title>
<g id="a_node4"><a xlink:href="ctml_8cpp.html" target="_top" xlink:title="Definitions for functions to read and write CTML. ">
<polygon fill="white" stroke="black" points="183.5,-0.5 183.5,-19.5 236.5,-19.5 236.5,-0.5 183.5,-0.5"/>
<text text-anchor="middle" x="210" y="-7.5" font-family="FreeSans" font-size="10.00">ctml.cpp</text>
</a>
</g>
</g>
<!-- Node1&#45;&gt;Node4 -->
<g id="edge3" class="edge"><title>Node1&#45;&gt;Node4</title>
<path fill="none" stroke="midnightblue" d="M2743.32,-64.8856C2469.3,-63.8371 504.093,-55.1223 245,-20 242.264,-19.6292 239.435,-19.1199 236.626,-18.5308"/>
<polygon fill="midnightblue" stroke="midnightblue" points="2743.37,-68.3857 2753.39,-64.9235 2743.4,-61.3857 2743.37,-68.3857"/>
</g>
<!-- Node5 -->
<g id="node5" class="node"><title>Node5</title>
<g id="a_node5"><a xlink:href="stringUtils_8cpp.html" target="_top" xlink:title="Contains definitions for string manipulation functions within Cantera. ">
<polygon fill="white" stroke="black" points="254.5,-0.5 254.5,-19.5 331.5,-19.5 331.5,-0.5 254.5,-0.5"/>
<text text-anchor="middle" x="293" y="-7.5" font-family="FreeSans" font-size="10.00">stringUtils.cpp</text>
</a>
</g>
</g>
<!-- Node1&#45;&gt;Node5 -->
<g id="edge4" class="edge"><title>Node1&#45;&gt;Node5</title>
<path fill="none" stroke="midnightblue" d="M2743,-65.1433C2492.12,-66.1574 837.889,-70.8175 341,-20 337.964,-19.6895 334.832,-19.2883 331.692,-18.8281"/>
<polygon fill="midnightblue" stroke="midnightblue" points="2743.26,-68.6424 2753.25,-65.1007 2743.23,-61.6424 2743.26,-68.6424"/>
</g>
<!-- Node6 -->
<g id="node6" class="node"><title>Node6</title>
<g id="a_node6"><a xlink:href="importKinetics_8cpp.html" target="_top" xlink:title="Declarations of global routines for the importing of kinetics data from XML files (see Input File Han...">
<polygon fill="white" stroke="black" points="350,-0.5 350,-19.5 446,-19.5 446,-0.5 350,-0.5"/>
<text text-anchor="middle" x="398" y="-7.5" font-family="FreeSans" font-size="10.00">importKinetics.cpp</text>
</a>
</g>
</g>
<!-- Node1&#45;&gt;Node6 -->
<g id="edge5" class="edge"><title>Node1&#45;&gt;Node6</title>
<path fill="none" stroke="midnightblue" d="M2743.02,-64.9836C2498.98,-64.7679 928.277,-61.7552 455,-20 452.106,-19.7447 449.136,-19.4317 446.145,-19.0774"/>
<polygon fill="midnightblue" stroke="midnightblue" points="2743.32,-68.4837 2753.32,-64.9917 2743.32,-61.4837 2743.32,-68.4837"/>
</g>
<!-- Node7 -->
<g id="node7" class="node"><title>Node7</title>
<g id="a_node7"><a xlink:href="boundaries1D_8cpp.html" target="_top" xlink:title="boundaries1D.cpp">
<polygon fill="white" stroke="black" points="464.5,-0.5 464.5,-19.5 557.5,-19.5 557.5,-0.5 464.5,-0.5"/>
<text text-anchor="middle" x="511" y="-7.5" font-family="FreeSans" font-size="10.00">boundaries1D.cpp</text>
</a>
</g>
</g>
<!-- Node1&#45;&gt;Node7 -->
<g id="edge6" class="edge"><title>Node1&#45;&gt;Node7</title>
<path fill="none" stroke="midnightblue" d="M2743.11,-64.9594C2506.14,-64.5667 1016.43,-60.4973 567,-20 563.96,-19.7261 560.835,-19.3865 557.69,-19.0012"/>
<polygon fill="midnightblue" stroke="midnightblue" points="2743.43,-68.4598 2753.43,-64.9755 2743.44,-61.4598 2743.43,-68.4598"/>
</g>
<!-- Node8 -->
<g id="node8" class="node"><title>Node8</title>
<g id="a_node8"><a xlink:href="Domain1D_8cpp.html" target="_top" xlink:title="Domain1D.cpp">
<polygon fill="white" stroke="black" points="576,-0.5 576,-19.5 656,-19.5 656,-0.5 576,-0.5"/>
<text text-anchor="middle" x="616" y="-7.5" font-family="FreeSans" font-size="10.00">Domain1D.cpp</text>
</a>
</g>
</g>
<!-- Node1&#45;&gt;Node8 -->
<g id="edge7" class="edge"><title>Node1&#45;&gt;Node8</title>
<path fill="none" stroke="midnightblue" d="M2743.44,-65.0218C2513.53,-65.0762 1093.34,-63.6209 665,-20 662.074,-19.7021 659.062,-19.3245 656.036,-18.8938"/>
<polygon fill="midnightblue" stroke="midnightblue" points="2743.48,-68.5218 2753.48,-65.0182 2743.48,-61.5218 2743.48,-68.5218"/>
</g>
<!-- Node9 -->
<g id="node9" class="node"><title>Node9</title>
<g id="a_node9"><a xlink:href="OneDim_8cpp.html" target="_top" xlink:title="OneDim.cpp">
<polygon fill="white" stroke="black" points="674,-0.5 674,-19.5 744,-19.5 744,-0.5 674,-0.5"/>
<text text-anchor="middle" x="709" y="-7.5" font-family="FreeSans" font-size="10.00">OneDim.cpp</text>
</a>
</g>
</g>
<!-- Node1&#45;&gt;Node9 -->
<g id="edge8" class="edge"><title>Node1&#45;&gt;Node9</title>
<path fill="none" stroke="midnightblue" d="M2743.36,-65.0746C2518.74,-65.488 1162.18,-66.0234 753,-20 750.211,-19.6863 747.336,-19.2828 744.454,-18.821"/>
<polygon fill="midnightblue" stroke="midnightblue" points="2743.49,-68.5745 2753.48,-65.0546 2743.47,-61.5745 2743.49,-68.5745"/>
</g>
<!-- Node10 -->
<g id="node10" class="node"><title>Node10</title>
<g id="a_node10"><a xlink:href="StFlow_8cpp.html" target="_top" xlink:title="StFlow.cpp">
<polygon fill="white" stroke="black" points="762.5,-0.5 762.5,-19.5 827.5,-19.5 827.5,-0.5 762.5,-0.5"/>
<text text-anchor="middle" x="795" y="-7.5" font-family="FreeSans" font-size="10.00">StFlow.cpp</text>
</a>
</g>
</g>
<!-- Node1&#45;&gt;Node10 -->
<g id="edge9" class="edge"><title>Node1&#45;&gt;Node10</title>
<path fill="none" stroke="midnightblue" d="M2742.98,-65.0803C2522.61,-65.5089 1227.94,-66.011 837,-20 834.038,-19.6513 830.976,-19.1919 827.917,-18.6648"/>
<polygon fill="midnightblue" stroke="midnightblue" points="2743.22,-68.5799 2753.21,-65.0588 2743.2,-61.5799 2743.22,-68.5799"/>
</g>
<!-- Node11 -->
<g id="node11" class="node"><title>Node11</title>
<g id="a_node11"><a xlink:href="ConstDensityThermo_8cpp.html" target="_top" xlink:title="Declarations for a Thermo manager for incompressible ThermoPhases (see Thermodynamic Properties and C...">
<polygon fill="white" stroke="black" points="846,-0.5 846,-19.5 970,-19.5 970,-0.5 846,-0.5"/>
<text text-anchor="middle" x="908" y="-7.5" font-family="FreeSans" font-size="10.00">ConstDensityThermo.cpp</text>
</a>
</g>
</g>
<!-- Node1&#45;&gt;Node11 -->
<g id="edge10" class="edge"><title>Node1&#45;&gt;Node11</title>
<path fill="none" stroke="midnightblue" d="M2743.42,-64.646C2533.88,-62.2315 1341.63,-47.4563 979,-20 976.15,-19.7842 973.24,-19.5346 970.302,-19.2589"/>
<polygon fill="midnightblue" stroke="midnightblue" points="2743.41,-68.146 2753.45,-64.7607 2743.49,-61.1464 2743.41,-68.146"/>
</g>
<!-- Node12 -->
<g id="node12" class="node"><title>Node12</title>
<g id="a_node12"><a xlink:href="DebyeHuckel_8cpp.html" target="_top" xlink:title="Declarations for the DebyeHuckel ThermoPhase object, which models dilute electrolyte solutions (see T...">
<polygon fill="white" stroke="black" points="988,-0.5 988,-19.5 1080,-19.5 1080,-0.5 988,-0.5"/>
<text text-anchor="middle" x="1034" y="-7.5" font-family="FreeSans" font-size="10.00">DebyeHuckel.cpp</text>
</a>
</g>
</g>
<!-- Node1&#45;&gt;Node12 -->
<g id="edge11" class="edge"><title>Node1&#45;&gt;Node12</title>
<path fill="none" stroke="midnightblue" d="M2743.16,-64.7401C2540.45,-62.9967 1427.66,-52.0789 1089,-20 1086.11,-19.7263 1083.14,-19.3931 1080.15,-19.0182"/>
<polygon fill="midnightblue" stroke="midnightblue" points="2743.39,-68.2421 2753.42,-64.8271 2743.45,-61.2423 2743.39,-68.2421"/>
</g>
<!-- Node13 -->
<g id="node13" class="node"><title>Node13</title>
<g id="a_node13"><a xlink:href="Elements_8cpp.html" target="_top" xlink:title="This file contains a database of atomic weights. ">
<polygon fill="white" stroke="black" points="1098,-0.5 1098,-19.5 1172,-19.5 1172,-0.5 1098,-0.5"/>
<text text-anchor="middle" x="1135" y="-7.5" font-family="FreeSans" font-size="10.00">Elements.cpp</text>
</a>
</g>
</g>
<!-- Node1&#45;&gt;Node13 -->
<g id="edge12" class="edge"><title>Node1&#45;&gt;Node13</title>
<path fill="none" stroke="midnightblue" d="M2743.06,-64.8172C2546.55,-63.5845 1499.65,-55.4254 1181,-20 1178.09,-19.6763 1175.09,-19.2657 1172.08,-18.799"/>
<polygon fill="midnightblue" stroke="midnightblue" points="2743.26,-68.3184 2753.28,-64.8799 2743.3,-61.3186 2743.26,-68.3184"/>
</g>
<!-- Node14 -->
<g id="node14" class="node"><title>Node14</title>
<g id="a_node14"><a xlink:href="FixedChemPotSSTP_8cpp.html" target="_top" xlink:title="Definition file for the FixedChemPotSSTP class, which represents a fixed&#45;composition incompressible s...">
<polygon fill="white" stroke="black" points="1190.5,-0.5 1190.5,-19.5 1315.5,-19.5 1315.5,-0.5 1190.5,-0.5"/>
<text text-anchor="middle" x="1253" y="-7.5" font-family="FreeSans" font-size="10.00">FixedChemPotSSTP.cpp</text>
</a>
</g>
</g>
<!-- Node1&#45;&gt;Node14 -->
<g id="edge13" class="edge"><title>Node1&#45;&gt;Node14</title>
<path fill="none" stroke="midnightblue" d="M2742.96,-65.1116C2587.03,-65.423 1892.05,-64.1431 1325,-20 1321.99,-19.7654 1318.9,-19.4956 1315.79,-19.1994"/>
<polygon fill="midnightblue" stroke="midnightblue" points="2743.25,-68.611 2753.24,-65.087 2743.24,-61.611 2743.25,-68.611"/>
</g>
<!-- Node15 -->
<g id="node15" class="node"><title>Node15</title>
<g id="a_node15"><a xlink:href="HMWSoln__input_8cpp.html" target="_top" xlink:title="Definitions for the HMWSoln ThermoPhase object, which models concentrated electrolyte solutions (see ...">
<polygon fill="white" stroke="black" points="1334,-0.5 1334,-19.5 1438,-19.5 1438,-0.5 1334,-0.5"/>
<text text-anchor="middle" x="1386" y="-7.5" font-family="FreeSans" font-size="10.00">HMWSoln_input.cpp</text>
</a>
</g>
</g>
<!-- Node1&#45;&gt;Node15 -->
<g id="edge14" class="edge"><title>Node1&#45;&gt;Node15</title>
<path fill="none" stroke="midnightblue" d="M2743.31,-65.2407C2595.95,-66.0842 1963.09,-66.6663 1447,-20 1444.12,-19.7397 1441.17,-19.4342 1438.2,-19.0959"/>
<polygon fill="midnightblue" stroke="midnightblue" points="2743.47,-68.7398 2753.45,-65.1776 2743.43,-61.74 2743.47,-68.7398"/>
</g>
<!-- Node16 -->
<g id="node16" class="node"><title>Node16</title>
<g id="a_node16"><a xlink:href="IdealMolalSoln_8cpp.html" target="_top" xlink:title="ThermoPhase object for the ideal molal equation of state (see Thermodynamic Properties and class Idea...">
<polygon fill="white" stroke="black" points="1456,-0.5 1456,-19.5 1554,-19.5 1554,-0.5 1456,-0.5"/>
<text text-anchor="middle" x="1505" y="-7.5" font-family="FreeSans" font-size="10.00">IdealMolalSoln.cpp</text>
</a>
</g>
</g>
<!-- Node1&#45;&gt;Node16 -->
<g id="edge15" class="edge"><title>Node1&#45;&gt;Node16</title>
<path fill="none" stroke="midnightblue" d="M2743,-65.1824C2602.98,-65.6926 2030.33,-64.7796 1563,-20 1560.16,-19.7279 1557.25,-19.4076 1554.31,-19.0529"/>
<polygon fill="midnightblue" stroke="midnightblue" points="2743.43,-68.6808 2753.42,-65.1387 2743.4,-61.6808 2743.43,-68.6808"/>
</g>
<!-- Node17 -->
<g id="node17" class="node"><title>Node17</title>
<g id="a_node17"><a xlink:href="IdealSolidSolnPhase_8cpp.html" target="_top" xlink:title="Implementation file for an ideal solid solution model with incompressible thermodynamics (see Thermod...">
<polygon fill="white" stroke="black" points="1572,-0.5 1572,-19.5 1696,-19.5 1696,-0.5 1572,-0.5"/>
<text text-anchor="middle" x="1634" y="-7.5" font-family="FreeSans" font-size="10.00">IdealSolidSolnPhase.cpp</text>
</a>
</g>
</g>
<!-- Node1&#45;&gt;Node17 -->
<g id="edge16" class="edge"><title>Node1&#45;&gt;Node17</title>
<path fill="none" stroke="midnightblue" d="M2743.1,-64.6369C2613.54,-62.9557 2114.11,-54.4706 1705,-20 1702.15,-19.7601 1699.24,-19.4906 1696.31,-19.1988"/>
<polygon fill="midnightblue" stroke="midnightblue" points="2743.43,-68.1413 2753.48,-64.7671 2743.52,-61.1418 2743.43,-68.1413"/>
</g>
<!-- Node18 -->
<g id="node18" class="node"><title>Node18</title>
<g id="a_node18"><a xlink:href="LatticePhase_8cpp.html" target="_top" xlink:title="Definitions for a simple thermodynamics model of a bulk phase derived from ThermoPhase, assuming a lattice of solid atoms (see Thermodynamic Properties and class LatticePhase). ">
<polygon fill="white" stroke="black" points="1714.5,-0.5 1714.5,-19.5 1805.5,-19.5 1805.5,-0.5 1714.5,-0.5"/>
<text text-anchor="middle" x="1760" y="-7.5" font-family="FreeSans" font-size="10.00">LatticePhase.cpp</text>
</a>
</g>
</g>
<!-- Node1&#45;&gt;Node18 -->
<g id="edge17" class="edge"><title>Node1&#45;&gt;Node18</title>
<path fill="none" stroke="midnightblue" d="M2743.2,-64.8751C2621.99,-64.1106 2177.55,-58.6706 1814,-20 1811.26,-19.7085 1808.45,-19.3675 1805.61,-18.992"/>
<polygon fill="midnightblue" stroke="midnightblue" points="2743.26,-68.3754 2753.28,-64.9324 2743.3,-61.3756 2743.26,-68.3754"/>
</g>
<!-- Node19 -->
<g id="node19" class="node"><title>Node19</title>
<g id="a_node19"><a xlink:href="LatticeSolidPhase_8cpp.html" target="_top" xlink:title="Definitions for a simple thermodynamics model of a bulk solid phase derived from ThermoPhase, assuming an ideal solution model based on a lattice of solid atoms (see Thermodynamic Properties and class LatticeSolidPhase). ">
<polygon fill="white" stroke="black" points="1823.5,-0.5 1823.5,-19.5 1936.5,-19.5 1936.5,-0.5 1823.5,-0.5"/>
<text text-anchor="middle" x="1880" y="-7.5" font-family="FreeSans" font-size="10.00">LatticeSolidPhase.cpp</text>
</a>
</g>
</g>
<!-- Node1&#45;&gt;Node19 -->
<g id="edge18" class="edge"><title>Node1&#45;&gt;Node19</title>
<path fill="none" stroke="midnightblue" d="M2743.35,-64.2351C2633.04,-61.3668 2255.36,-49.8469 1945,-20 1942.28,-19.7383 1939.5,-19.4465 1936.69,-19.1326"/>
<polygon fill="midnightblue" stroke="midnightblue" points="2743.38,-67.737 2753.47,-64.4932 2743.56,-60.7393 2743.38,-67.737"/>
</g>
<!-- Node20 -->
<g id="node20" class="node"><title>Node20</title>
<g id="a_node20"><a xlink:href="MargulesVPSSTP_8cpp.html" target="_top" xlink:title="Definitions for ThermoPhase object for phases which employ excess gibbs free energy formulations rela...">
<polygon fill="white" stroke="black" points="1954.5,-0.5 1954.5,-19.5 2067.5,-19.5 2067.5,-0.5 1954.5,-0.5"/>
<text text-anchor="middle" x="2011" y="-7.5" font-family="FreeSans" font-size="10.00">MargulesVPSSTP.cpp</text>
</a>
</g>
</g>
<!-- Node1&#45;&gt;Node20 -->
<g id="edge19" class="edge"><title>Node1&#45;&gt;Node20</title>
<path fill="none" stroke="midnightblue" d="M2742.95,-63.774C2643.69,-59.7971 2332.55,-45.9842 2076,-20 2073.28,-19.7245 2070.5,-19.4215 2067.69,-19.0987"/>
<polygon fill="midnightblue" stroke="midnightblue" points="2743.08,-67.2817 2753.21,-64.1799 2743.36,-60.2871 2743.08,-67.2817"/>
</g>
<!-- Node21 -->
<g id="node21" class="node"><title>Node21</title>
<g id="a_node21"><a xlink:href="MetalSHEelectrons_8cpp.html" target="_top" xlink:title="Definition file for the MetalSHEElectrons class, which represents the electrons in a metal that are c...">
<polygon fill="white" stroke="black" points="2085.5,-0.5 2085.5,-19.5 2202.5,-19.5 2202.5,-0.5 2085.5,-0.5"/>
<text text-anchor="middle" x="2144" y="-7.5" font-family="FreeSans" font-size="10.00">MetalSHEelectrons.cpp</text>
</a>
</g>
</g>
<!-- Node1&#45;&gt;Node21 -->
<g id="edge20" class="edge"><title>Node1&#45;&gt;Node21</title>
<path fill="none" stroke="midnightblue" d="M2743.32,-63.0733C2657.48,-57.7237 2413.32,-41.6435 2211,-20 2208.32,-19.7129 2205.57,-19.4047 2202.8,-19.0815"/>
<polygon fill="midnightblue" stroke="midnightblue" points="2743.25,-66.5757 2753.45,-63.7004 2743.68,-59.5891 2743.25,-66.5757"/>
</g>
<!-- Node22 -->
<g id="node22" class="node"><title>Node22</title>
<g id="a_node22"><a xlink:href="MineralEQ3_8cpp.html" target="_top" xlink:title="Definition file for the MineralEQ3 class, which represents a fixed&#45;composition incompressible substan...">
<polygon fill="white" stroke="black" points="2220.5,-0.5 2220.5,-19.5 2305.5,-19.5 2305.5,-0.5 2220.5,-0.5"/>
<text text-anchor="middle" x="2263" y="-7.5" font-family="FreeSans" font-size="10.00">MineralEQ3.cpp</text>
</a>
</g>
</g>
<!-- Node1&#45;&gt;Node22 -->
<g id="edge21" class="edge"><title>Node1&#45;&gt;Node22</title>
<path fill="none" stroke="midnightblue" d="M2743.14,-62.7437C2668.13,-57.2456 2474.61,-41.9767 2314,-20 2311.24,-19.6221 2308.4,-19.2038 2305.54,-18.7604"/>
<polygon fill="midnightblue" stroke="midnightblue" points="2743.1,-66.2501 2753.33,-63.4837 2743.61,-59.2685 2743.1,-66.2501"/>
</g>
<!-- Node23 -->
<g id="node23" class="node"><title>Node23</title>
<g id="a_node23"><a xlink:href="MixedSolventElectrolyte_8cpp.html" target="_top" xlink:title="Definitions for ThermoPhase object for phases which employ excess gibbs free energy formulations rela...">
<polygon fill="white" stroke="black" points="2323.5,-0.5 2323.5,-19.5 2460.5,-19.5 2460.5,-0.5 2323.5,-0.5"/>
<text text-anchor="middle" x="2392" y="-7.5" font-family="FreeSans" font-size="10.00">MixedSolventElectrolyte.cpp</text>
</a>
</g>
</g>
<!-- Node1&#45;&gt;Node23 -->
<g id="edge22" class="edge"><title>Node1&#45;&gt;Node23</title>
<path fill="none" stroke="midnightblue" d="M2743.06,-60.497C2679.19,-51.4917 2534.8,-31.1336 2452.47,-19.5264"/>
<polygon fill="midnightblue" stroke="midnightblue" points="2742.92,-64.0115 2753.31,-61.942 2743.9,-57.0801 2742.92,-64.0115"/>
</g>
<!-- Node24 -->
<g id="node24" class="node"><title>Node24</title>
<g id="a_node24"><a xlink:href="MixtureFugacityTP_8cpp.html" target="_top" xlink:title="Methods file for a derived class of ThermoPhase that handles non&#45;ideal mixtures based on the fugacity...">
<polygon fill="white" stroke="black" points="2479,-0.5 2479,-19.5 2595,-19.5 2595,-0.5 2479,-0.5"/>
<text text-anchor="middle" x="2537" y="-7.5" font-family="FreeSans" font-size="10.00">MixtureFugacityTP.cpp</text>
</a>
</g>
</g>
<!-- Node1&#45;&gt;Node24 -->
<g id="edge23" class="edge"><title>Node1&#45;&gt;Node24</title>
<path fill="none" stroke="midnightblue" d="M2743.69,-57.8962C2700.1,-48.0062 2621.24,-30.1131 2574.55,-19.5188"/>
<polygon fill="midnightblue" stroke="midnightblue" points="2742.93,-61.3131 2753.46,-60.1126 2744.48,-54.4866 2742.93,-61.3131"/>
</g>
<!-- Node25 -->
<g id="node25" class="node"><title>Node25</title>
<g id="a_node25"><a xlink:href="MolalityVPSSTP_8cpp.html" target="_top" xlink:title="Definitions for intermediate ThermoPhase object for phases which employ molality based activity coeff...">
<polygon fill="white" stroke="black" points="2613.5,-0.5 2613.5,-19.5 2720.5,-19.5 2720.5,-0.5 2613.5,-0.5"/>
<text text-anchor="middle" x="2667" y="-7.5" font-family="FreeSans" font-size="10.00">MolalityVPSSTP.cpp</text>
</a>
</g>
</g>
<!-- Node1&#45;&gt;Node25 -->
<g id="edge24" class="edge"><title>Node1&#45;&gt;Node25</title>
<path fill="none" stroke="midnightblue" d="M2748.45,-51.7261C2728.45,-41.7271 2701.61,-28.3065 2684.31,-19.6545"/>
<polygon fill="midnightblue" stroke="midnightblue" points="2747.14,-54.9823 2757.65,-56.324 2750.27,-48.7213 2747.14,-54.9823"/>
</g>
<!-- Node26 -->
<g id="node26" class="node"><title>Node26</title>
<g id="a_node26"><a xlink:href="Mu0Poly_8cpp.html" target="_top" xlink:title="Definitions for a single&#45;species standard state object derived from SpeciesThermoInterpType based on ...">
<polygon fill="white" stroke="black" points="2739,-0.5 2739,-19.5 2811,-19.5 2811,-0.5 2739,-0.5"/>
<text text-anchor="middle" x="2775" y="-7.5" font-family="FreeSans" font-size="10.00">Mu0Poly.cpp</text>
</a>
</g>
</g>
<!-- Node1&#45;&gt;Node26 -->
<g id="edge25" class="edge"><title>Node1&#45;&gt;Node26</title>
<path fill="none" stroke="midnightblue" d="M2775,-45.8045C2775,-36.9102 2775,-26.7798 2775,-19.7511"/>
<polygon fill="midnightblue" stroke="midnightblue" points="2771.5,-46.083 2775,-56.083 2778.5,-46.083 2771.5,-46.083"/>
</g>
<!-- Node27 -->
<g id="node27" class="node"><title>Node27</title>
<g id="a_node27"><a xlink:href="PDSS_8cpp.html" target="_top" xlink:title="Implementation of a pressure dependent standard state virtual function (see class PDSS)...">
<polygon fill="white" stroke="black" points="2829,-0.5 2829,-19.5 2891,-19.5 2891,-0.5 2829,-0.5"/>
<text text-anchor="middle" x="2860" y="-7.5" font-family="FreeSans" font-size="10.00">PDSS.cpp</text>
</a>
</g>
</g>
<!-- Node1&#45;&gt;Node27 -->
<g id="edge26" class="edge"><title>Node1&#45;&gt;Node27</title>
<path fill="none" stroke="midnightblue" d="M2797.19,-50.9005C2812.78,-40.9986 2833.13,-28.0705 2846.38,-19.6545"/>
<polygon fill="midnightblue" stroke="midnightblue" points="2795.22,-48.0073 2788.66,-56.324 2798.97,-53.9158 2795.22,-48.0073"/>
</g>
<!-- Node28 -->
<g id="node28" class="node"><title>Node28</title>
<g id="a_node28"><a xlink:href="PDSS__ConstVol_8cpp.html" target="_top" xlink:title="Implementation of a pressure dependent standard state virtual function. ">
<polygon fill="white" stroke="black" points="2909.5,-0.5 2909.5,-19.5 3014.5,-19.5 3014.5,-0.5 2909.5,-0.5"/>
<text text-anchor="middle" x="2962" y="-7.5" font-family="FreeSans" font-size="10.00">PDSS_ConstVol.cpp</text>
</a>
</g>
</g>
<!-- Node1&#45;&gt;Node28 -->
<g id="edge27" class="edge"><title>Node1&#45;&gt;Node28</title>
<path fill="none" stroke="midnightblue" d="M2806.56,-55.8873C2841.68,-45.7454 2898,-29.4824 2932.33,-19.5667"/>
<polygon fill="midnightblue" stroke="midnightblue" points="2805.45,-52.5628 2796.82,-58.6998 2807.4,-59.288 2805.45,-52.5628"/>
</g>
<!-- Node29 -->
<g id="node29" class="node"><title>Node29</title>
<g id="a_node29"><a xlink:href="PDSS__HKFT_8cpp.html" target="_top" xlink:title="Definitions for the class PDSS_HKFT (pressure dependent standard state) which handles calculations fo...">
<polygon fill="white" stroke="black" points="3033,-0.5 3033,-19.5 3125,-19.5 3125,-0.5 3033,-0.5"/>
<text text-anchor="middle" x="3079" y="-7.5" font-family="FreeSans" font-size="10.00">PDSS_HKFT.cpp</text>
</a>
</g>
</g>
<!-- Node1&#45;&gt;Node29 -->
<g id="edge28" class="edge"><title>Node1&#45;&gt;Node29</title>
<path fill="none" stroke="midnightblue" d="M2806.89,-59.3346C2860.91,-49.739 2970.6,-30.2549 3032.96,-19.179"/>
<polygon fill="midnightblue" stroke="midnightblue" points="2806.1,-55.9214 2796.86,-61.1165 2807.32,-62.8135 2806.1,-55.9214"/>
</g>
<!-- Node30 -->
<g id="node30" class="node"><title>Node30</title>
<g id="a_node30"><a xlink:href="PDSS__IdealGas_8cpp.html" target="_top" xlink:title="Implementation of a pressure dependent standard state virtual function. ">
<polygon fill="white" stroke="black" points="3143.5,-0.5 3143.5,-19.5 3248.5,-19.5 3248.5,-0.5 3143.5,-0.5"/>
<text text-anchor="middle" x="3196" y="-7.5" font-family="FreeSans" font-size="10.00">PDSS_IdealGas.cpp</text>
</a>
</g>
</g>
<!-- Node1&#45;&gt;Node30 -->
<g id="edge29" class="edge"><title>Node1&#45;&gt;Node30</title>
<path fill="none" stroke="midnightblue" d="M2806.93,-61.2095C2869.65,-53.7154 3013.37,-36.314 3134,-20 3137.02,-19.5918 3140.12,-19.1653 3143.24,-18.7293"/>
<polygon fill="midnightblue" stroke="midnightblue" points="2806.39,-57.7487 2796.87,-62.4085 2807.22,-64.6995 2806.39,-57.7487"/>
</g>
<!-- Node31 -->
<g id="node31" class="node"><title>Node31</title>
<g id="a_node31"><a xlink:href="PDSS__IonsFromNeutral_8cpp.html" target="_top" xlink:title="Implementation of a pressure dependent standard state virtual function. ">
<polygon fill="white" stroke="black" points="3267,-0.5 3267,-19.5 3405,-19.5 3405,-0.5 3267,-0.5"/>
<text text-anchor="middle" x="3336" y="-7.5" font-family="FreeSans" font-size="10.00">PDSS_IonsFromNeutral.cpp</text>
</a>
</g>
</g>
<!-- Node1&#45;&gt;Node31 -->
<g id="edge30" class="edge"><title>Node1&#45;&gt;Node31</title>
<path fill="none" stroke="midnightblue" d="M2806.66,-62.2691C2883.74,-55.5697 3087.34,-37.5825 3257,-20 3260.16,-19.6727 3263.39,-19.3316 3266.65,-18.9818"/>
<polygon fill="midnightblue" stroke="midnightblue" points="2806.29,-58.7872 2796.63,-63.1383 2806.9,-65.761 2806.29,-58.7872"/>
</g>
<!-- Node32 -->
<g id="node32" class="node"><title>Node32</title>
<g id="a_node32"><a xlink:href="PDSS__SSVol_8cpp.html" target="_top" xlink:title="Implementation of a pressure dependent standard state virtual function. ">
<polygon fill="white" stroke="black" points="3423,-0.5 3423,-19.5 3517,-19.5 3517,-0.5 3423,-0.5"/>
<text text-anchor="middle" x="3470" y="-7.5" font-family="FreeSans" font-size="10.00">PDSS_SSVol.cpp</text>
</a>
</g>
</g>
<!-- Node1&#45;&gt;Node32 -->
<g id="edge31" class="edge"><title>Node1&#45;&gt;Node32</title>
<path fill="none" stroke="midnightblue" d="M2806.77,-63.7651C2900.15,-59.9199 3181.8,-46.7816 3414,-20 3416.93,-19.6615 3419.95,-19.2788 3422.99,-18.8668"/>
<polygon fill="midnightblue" stroke="midnightblue" points="2806.43,-60.276 2796.58,-64.1784 2806.71,-67.2702 2806.43,-60.276"/>
</g>
<!-- Node33 -->
<g id="node33" class="node"><title>Node33</title>
<g id="a_node33"><a xlink:href="PDSS__Water_8cpp.html" target="_top" xlink:title="PDSS_Water.cpp">
<polygon fill="white" stroke="black" points="3535,-0.5 3535,-19.5 3627,-19.5 3627,-0.5 3535,-0.5"/>
<text text-anchor="middle" x="3581" y="-7.5" font-family="FreeSans" font-size="10.00">PDSS_Water.cpp</text>
</a>
</g>
</g>
<!-- Node1&#45;&gt;Node33 -->
<g id="edge32" class="edge"><title>Node1&#45;&gt;Node33</title>
<path fill="none" stroke="midnightblue" d="M2806.68,-64.2618C2910.28,-61.6004 3248.3,-50.9591 3526,-20 3528.88,-19.6784 3531.85,-19.3086 3534.83,-18.9062"/>
<polygon fill="midnightblue" stroke="midnightblue" points="2806.49,-60.7655 2796.58,-64.515 2806.66,-67.7633 2806.49,-60.7655"/>
</g>
<!-- Node34 -->
<g id="node34" class="node"><title>Node34</title>
<g id="a_node34"><a xlink:href="Phase_8cpp.html" target="_top" xlink:title="Definition file for class Phase. ">
<polygon fill="white" stroke="black" points="3645,-0.5 3645,-19.5 3707,-19.5 3707,-0.5 3645,-0.5"/>
<text text-anchor="middle" x="3676" y="-7.5" font-family="FreeSans" font-size="10.00">Phase.cpp</text>
</a>
</g>
</g>
<!-- Node1&#45;&gt;Node34 -->
<g id="edge33" class="edge"><title>Node1&#45;&gt;Node34</title>
<path fill="none" stroke="midnightblue" d="M2806.83,-65.2703C2920.19,-65.823 3314.58,-64.2355 3636,-20 3638.82,-19.6118 3641.74,-19.1252 3644.65,-18.5804"/>
<polygon fill="midnightblue" stroke="midnightblue" points="2806.77,-61.77 2796.75,-65.2115 2806.73,-68.7698 2806.77,-61.77"/>
</g>
<!-- Node35 -->
<g id="node35" class="node"><title>Node35</title>
<g id="a_node35"><a xlink:href="PhaseCombo__Interaction_8cpp.html" target="_top" xlink:title="PhaseCombo_Interaction.cpp">
<polygon fill="white" stroke="black" points="3725.5,-0.5 3725.5,-19.5 3868.5,-19.5 3868.5,-0.5 3725.5,-0.5"/>
<text text-anchor="middle" x="3797" y="-7.5" font-family="FreeSans" font-size="10.00">PhaseCombo_Interaction.cpp</text>
</a>
</g>
</g>
<!-- Node1&#45;&gt;Node35 -->
<g id="edge34" class="edge"><title>Node1&#45;&gt;Node35</title>
<path fill="none" stroke="midnightblue" d="M2806.81,-64.1869C2926.23,-60.9834 3359.23,-48.0134 3715,-20 3718.43,-19.7302 3721.93,-19.4319 3725.47,-19.1128"/>
<polygon fill="midnightblue" stroke="midnightblue" points="2806.45,-60.695 2796.55,-64.4586 2806.64,-67.6925 2806.45,-60.695"/>
</g>
<!-- Node36 -->
<g id="node36" class="node"><title>Node36</title>
<g id="a_node36"><a xlink:href="RedlichKisterVPSSTP_8cpp.html" target="_top" xlink:title="Definitions for ThermoPhase object for phases which employ excess gibbs free energy formulations rela...">
<polygon fill="white" stroke="black" points="3886.5,-0.5 3886.5,-19.5 4017.5,-19.5 4017.5,-0.5 3886.5,-0.5"/>
<text text-anchor="middle" x="3952" y="-7.5" font-family="FreeSans" font-size="10.00">RedlichKisterVPSSTP.cpp</text>
</a>
</g>
</g>
<!-- Node1&#45;&gt;Node36 -->
<g id="edge35" class="edge"><title>Node1&#45;&gt;Node36</title>
<path fill="none" stroke="midnightblue" d="M2807.01,-64.6126C2939.09,-62.8198 3454.66,-53.911 3877,-20 3880.01,-19.7586 3883.08,-19.4879 3886.18,-19.1952"/>
<polygon fill="midnightblue" stroke="midnightblue" points="2806.74,-61.1157 2796.79,-64.7473 2806.83,-68.1151 2806.74,-61.1157"/>
</g>
<!-- Node37 -->
<g id="node37" class="node"><title>Node37</title>
<g id="a_node37"><a xlink:href="RedlichKwongMFTP_8cpp.html" target="_top" xlink:title="Definition file for a derived class of ThermoPhase that assumes either an ideal gas or ideal solution...">
<polygon fill="white" stroke="black" points="4035.5,-0.5 4035.5,-19.5 4158.5,-19.5 4158.5,-0.5 4035.5,-0.5"/>
<text text-anchor="middle" x="4097" y="-7.5" font-family="FreeSans" font-size="10.00">RedlichKwongMFTP.cpp</text>
</a>
</g>
</g>
<!-- Node1&#45;&gt;Node37 -->
<g id="edge36" class="edge"><title>Node1&#45;&gt;Node37</title>
<path fill="none" stroke="midnightblue" d="M2807.1,-64.9085C2949.92,-64.2778 3542.02,-59.2991 4026,-20 4029.1,-19.7486 4032.26,-19.4605 4035.46,-19.1452"/>
<polygon fill="midnightblue" stroke="midnightblue" points="2806.84,-61.4094 2796.86,-64.9495 2806.87,-68.4093 2806.84,-61.4094"/>
</g>
<!-- Node38 -->
<g id="node38" class="node"><title>Node38</title>
<g id="a_node38"><a xlink:href="SpeciesThermoFactory_8cpp.html" target="_top" xlink:title="Definitions for factory to build instances of classes that manage the standard&#45;state thermodynamic pr...">
<polygon fill="white" stroke="black" points="4177,-0.5 4177,-19.5 4311,-19.5 4311,-0.5 4177,-0.5"/>
<text text-anchor="middle" x="4244" y="-7.5" font-family="FreeSans" font-size="10.00">SpeciesThermoFactory.cpp</text>
</a>
</g>
</g>
<!-- Node1&#45;&gt;Node38 -->
<g id="edge37" class="edge"><title>Node1&#45;&gt;Node38</title>
<path fill="none" stroke="midnightblue" d="M2806.73,-64.9595C2958.3,-64.5593 3623.64,-60.4653 4167,-20 4170.22,-19.7601 4173.52,-19.4861 4176.84,-19.1865"/>
<polygon fill="midnightblue" stroke="midnightblue" points="2806.71,-61.4594 2796.72,-64.9824 2806.72,-68.4594 2806.71,-61.4594"/>
</g>
<!-- Node39 -->
<g id="node39" class="node"><title>Node39</title>
<g id="a_node39"><a xlink:href="StoichSubstance_8cpp.html" target="_top" xlink:title="This file contains the class definitions for the StoichSubstance ThermoPhase class. ">
<polygon fill="white" stroke="black" points="4329,-0.5 4329,-19.5 4437,-19.5 4437,-0.5 4329,-0.5"/>
<text text-anchor="middle" x="4383" y="-7.5" font-family="FreeSans" font-size="10.00">StoichSubstance.cpp</text>
</a>
</g>
</g>
<!-- Node1&#45;&gt;Node39 -->
<g id="edge38" class="edge"><title>Node1&#45;&gt;Node39</title>
<path fill="none" stroke="midnightblue" d="M2806.84,-64.5629C2999.43,-61.8445 4010.85,-46.4994 4320,-20 4322.86,-19.7547 4325.79,-19.4663 4328.75,-19.1463"/>
<polygon fill="midnightblue" stroke="midnightblue" points="2806.51,-61.0671 2796.56,-64.7069 2806.6,-68.0664 2806.51,-61.0671"/>
</g>
<!-- Node40 -->
<g id="node40" class="node"><title>Node40</title>
<g id="a_node40"><a xlink:href="StoichSubstanceSSTP_8cpp.html" target="_top" xlink:title="Definition file for the StoichSubstanceSSTP class, which represents a fixed&#45;composition incompressibl...">
<polygon fill="white" stroke="black" points="4455,-0.5 4455,-19.5 4589,-19.5 4589,-0.5 4455,-0.5"/>
<text text-anchor="middle" x="4522" y="-7.5" font-family="FreeSans" font-size="10.00">StoichSubstanceSSTP.cpp</text>
</a>
</g>
</g>
<!-- Node1&#45;&gt;Node40 -->
<g id="edge39" class="edge"><title>Node1&#45;&gt;Node40</title>
<path fill="none" stroke="midnightblue" d="M2806.93,-65.2206C2976.22,-66.1645 3786.07,-67.8609 4446,-20 4448.92,-19.7886 4451.89,-19.547 4454.89,-19.282"/>
<polygon fill="midnightblue" stroke="midnightblue" points="2806.73,-61.7194 2796.71,-65.16 2806.69,-68.7193 2806.73,-61.7194"/>
</g>
<!-- Node41 -->
<g id="node41" class="node"><title>Node41</title>
<g id="a_node41"><a xlink:href="SurfPhase_8cpp.html" target="_top" xlink:title="Definitions for a simple thermodynamic model of a surface phase derived from ThermoPhase, assuming an ideal solution model (see Thermodynamic Properties and class SurfPhase). ">
<polygon fill="white" stroke="black" points="4607,-0.5 4607,-19.5 4687,-19.5 4687,-0.5 4607,-0.5"/>
<text text-anchor="middle" x="4647" y="-7.5" font-family="FreeSans" font-size="10.00">SurfPhase.cpp</text>
</a>
</g>
</g>
<!-- Node1&#45;&gt;Node41 -->
<g id="edge40" class="edge"><title>Node1&#45;&gt;Node41</title>
<path fill="none" stroke="midnightblue" d="M2806.74,-64.8985C3018.63,-64.1189 4230.63,-58.0341 4598,-20 4600.93,-19.6972 4603.94,-19.316 4606.96,-18.8827"/>
<polygon fill="midnightblue" stroke="midnightblue" points="2806.6,-61.399 2796.61,-64.9345 2806.62,-68.3989 2806.6,-61.399"/>
</g>
<!-- Node42 -->
<g id="node42" class="node"><title>Node42</title>
<g id="a_node42"><a xlink:href="ThermoPhase_8cpp.html" target="_top" xlink:title="Definition file for class ThermoPhase, the base class for phases with thermodynamic properties (see c...">
<polygon fill="white" stroke="black" points="4705.5,-0.5 4705.5,-19.5 4800.5,-19.5 4800.5,-0.5 4705.5,-0.5"/>
<text text-anchor="middle" x="4753" y="-7.5" font-family="FreeSans" font-size="10.00">ThermoPhase.cpp</text>
</a>
</g>
</g>
<!-- Node1&#45;&gt;Node42 -->
<g id="edge41" class="edge"><title>Node1&#45;&gt;Node42</title>
<path fill="none" stroke="midnightblue" d="M2806.72,-64.8363C3024.98,-63.6228 4307.39,-55.0739 4696,-20 4699.09,-19.7208 4702.27,-19.3773 4705.47,-18.9891"/>
<polygon fill="midnightblue" stroke="midnightblue" points="2806.56,-61.337 2796.58,-64.8916 2806.6,-68.3369 2806.56,-61.337"/>
</g>
<!-- Node43 -->
<g id="node43" class="node"><title>Node43</title>
<g id="a_node43"><a xlink:href="VPSSMgr__ConstVol_8cpp.html" target="_top" xlink:title="Definition file for a derived class that handles the calculation of standard state thermo properties ...">
<polygon fill="white" stroke="black" points="4818.5,-0.5 4818.5,-19.5 4939.5,-19.5 4939.5,-0.5 4818.5,-0.5"/>
<text text-anchor="middle" x="4879" y="-7.5" font-family="FreeSans" font-size="10.00">VPSSMgr_ConstVol.cpp</text>
</a>
</g>
</g>
<!-- Node1&#45;&gt;Node43 -->
<g id="edge42" class="edge"><title>Node1&#45;&gt;Node43</title>
<path fill="none" stroke="midnightblue" d="M2806.79,-64.7585C3032.54,-62.9742 4395.96,-51.0339 4809,-20 4812.05,-19.7705 4815.18,-19.5 4818.33,-19.1987"/>
<polygon fill="midnightblue" stroke="midnightblue" points="2806.6,-61.2598 2796.63,-64.838 2806.65,-68.2596 2806.6,-61.2598"/>
</g>
<!-- Node44 -->
<g id="node44" class="node"><title>Node44</title>
<g id="a_node44"><a xlink:href="VPSSMgr__General_8cpp.html" target="_top" xlink:title="Definition file for a derived class that handles the calculation of standard state thermo properties ...">
<polygon fill="white" stroke="black" points="4958,-0.5 4958,-19.5 5074,-19.5 5074,-0.5 4958,-0.5"/>
<text text-anchor="middle" x="5016" y="-7.5" font-family="FreeSans" font-size="10.00">VPSSMgr_General.cpp</text>
</a>
</g>
</g>
<!-- Node1&#45;&gt;Node44 -->
<g id="edge43" class="edge"><title>Node1&#45;&gt;Node44</title>
<path fill="none" stroke="midnightblue" d="M2806.75,-64.8268C3041.05,-63.4756 4505.41,-53.7669 4948,-20 4951.21,-19.7554 4954.49,-19.4623 4957.81,-19.1336"/>
<polygon fill="midnightblue" stroke="midnightblue" points="2806.51,-61.328 2796.53,-64.8848 2806.55,-68.3278 2806.51,-61.328"/>
</g>
<!-- Node45 -->
<g id="node45" class="node"><title>Node45</title>
<g id="a_node45"><a xlink:href="VPSSMgr__IdealGas_8cpp.html" target="_top" xlink:title="Definition file for a derived class that handles the calculation of standard state thermo properties ...">
<polygon fill="white" stroke="black" points="5092.5,-0.5 5092.5,-19.5 5213.5,-19.5 5213.5,-0.5 5092.5,-0.5"/>
<text text-anchor="middle" x="5153" y="-7.5" font-family="FreeSans" font-size="10.00">VPSSMgr_IdealGas.cpp</text>
</a>
</g>
</g>
<!-- Node1&#45;&gt;Node45 -->
<g id="edge44" class="edge"><title>Node1&#45;&gt;Node45</title>
<path fill="none" stroke="midnightblue" d="M2806.8,-64.8465C3049.38,-63.6056 4610.8,-54.3622 5082,-20 5085.35,-19.756 5088.78,-19.4634 5092.23,-19.1351"/>
<polygon fill="midnightblue" stroke="midnightblue" points="2806.54,-61.3477 2796.55,-64.8981 2806.57,-68.3476 2806.54,-61.3477"/>
</g>
<!-- Node46 -->
<g id="node46" class="node"><title>Node46</title>
<g id="a_node46"><a xlink:href="VPSSMgr__Water__ConstVol_8cpp.html" target="_top" xlink:title="Definition file for a derived class that handles the calculation of standard state thermo properties ...">
<polygon fill="white" stroke="black" points="5232,-0.5 5232,-19.5 5384,-19.5 5384,-0.5 5232,-0.5"/>
<text text-anchor="middle" x="5308" y="-7.5" font-family="FreeSans" font-size="10.00">VPSSMgr_Water_ConstVol.cpp</text>
</a>
</g>
</g>
<!-- Node1&#45;&gt;Node46 -->
<g id="edge45" class="edge"><title>Node1&#45;&gt;Node46</title>
<path fill="none" stroke="midnightblue" d="M2806.75,-64.7922C3057.41,-63.0955 4720.54,-50.7933 5222,-20 5225.15,-19.8068 5228.36,-19.5847 5231.6,-19.3398"/>
<polygon fill="midnightblue" stroke="midnightblue" points="2806.49,-61.2937 2796.52,-64.8609 2806.54,-68.2936 2806.49,-61.2937"/>
</g>
<!-- Node47 -->
<g id="node47" class="node"><title>Node47</title>
<g id="a_node47"><a xlink:href="VPSSMgrFactory_8cpp.html" target="_top" xlink:title="Definitions for factory to build instances of classes that manage the calculation of standard state p...">
<polygon fill="white" stroke="black" points="5402,-0.5 5402,-19.5 5512,-19.5 5512,-0.5 5402,-0.5"/>
<text text-anchor="middle" x="5457" y="-7.5" font-family="FreeSans" font-size="10.00">VPSSMgrFactory.cpp</text>
</a>
</g>
</g>
<!-- Node1&#45;&gt;Node47 -->
<g id="edge46" class="edge"><title>Node1&#45;&gt;Node47</title>
<path fill="none" stroke="midnightblue" d="M2806.94,-64.991C3068.05,-64.8365 4855.76,-62.2317 5393,-20 5395.91,-19.7714 5398.89,-19.4964 5401.89,-19.1867"/>
<polygon fill="midnightblue" stroke="midnightblue" points="2806.63,-61.491 2796.64,-64.9962 2806.64,-68.491 2806.63,-61.491"/>
</g>
<!-- Node48 -->
<g id="node48" class="node"><title>Node48</title>
<g id="a_node48"><a xlink:href="WaterProps_8cpp.html" target="_top" xlink:title="WaterProps.cpp">
<polygon fill="white" stroke="black" points="5530.5,-0.5 5530.5,-19.5 5615.5,-19.5 5615.5,-0.5 5530.5,-0.5"/>
<text text-anchor="middle" x="5573" y="-7.5" font-family="FreeSans" font-size="10.00">WaterProps.cpp</text>
</a>
</g>
</g>
<!-- Node1&#45;&gt;Node48 -->
<g id="edge47" class="edge"><title>Node1&#45;&gt;Node48</title>
<path fill="none" stroke="midnightblue" d="M2806.67,-64.7794C3093.44,-62.7426 5237.6,-46.6849 5521,-20 5524.01,-19.7166 5527.11,-19.3567 5530.22,-18.9447"/>
<polygon fill="midnightblue" stroke="midnightblue" points="2806.51,-61.2803 2796.54,-64.851 2806.56,-68.2801 2806.51,-61.2803"/>
</g>
<!-- Node49 -->
<g id="node49" class="node"><title>Node49</title>
<g id="a_node49"><a xlink:href="LiquidTranInteraction_8cpp.html" target="_top" xlink:title="Source code for liquid mixture transport property evaluations. ">
<polygon fill="white" stroke="black" points="5633.5,-0.5 5633.5,-19.5 5758.5,-19.5 5758.5,-0.5 5633.5,-0.5"/>
<text text-anchor="middle" x="5696" y="-7.5" font-family="FreeSans" font-size="10.00">LiquidTranInteraction.cpp</text>
</a>
</g>
</g>
<!-- Node1&#45;&gt;Node49 -->
<g id="edge48" class="edge"><title>Node1&#45;&gt;Node49</title>
<path fill="none" stroke="midnightblue" d="M2806.75,-64.975C3079.86,-64.6889 5036.91,-61.2075 5624,-20 5627.02,-19.7883 5630.1,-19.5372 5633.21,-19.256"/>
<polygon fill="midnightblue" stroke="midnightblue" points="2806.71,-61.4749 2796.71,-64.9848 2806.72,-68.4749 2806.71,-61.4749"/>
</g>
<!-- Node50 -->
<g id="node50" class="node"><title>Node50</title>
<g id="a_node50"><a xlink:href="LTPspecies_8cpp.html" target="_top" xlink:title="\ definitions for the LTPspecies objects and its children, which is the virtual base class for descri...">
<polygon fill="white" stroke="black" points="5776.5,-0.5 5776.5,-19.5 5861.5,-19.5 5861.5,-0.5 5776.5,-0.5"/>
<text text-anchor="middle" x="5819" y="-7.5" font-family="FreeSans" font-size="10.00">LTPspecies.cpp</text>
</a>
</g>
</g>
<!-- Node1&#45;&gt;Node50 -->
<g id="edge49" class="edge"><title>Node1&#45;&gt;Node50</title>
<path fill="none" stroke="midnightblue" d="M2807.14,-64.8223C3109.98,-63.1082 5457.41,-48.9408 5767,-20 5770.01,-19.7186 5773.11,-19.3602 5776.22,-18.9493"/>
<polygon fill="midnightblue" stroke="midnightblue" points="2806.84,-61.3238 2796.86,-64.8801 2806.88,-68.3237 2806.84,-61.3238"/>
</g>
</g>
</svg>
