<?xml version="1.0" encoding="UTF-8" standalone="no"?>
<!DOCTYPE svg PUBLIC "-//W3C//DTD SVG 1.1//EN"
 "http://www.w3.org/Graphics/SVG/1.1/DTD/svg11.dtd">
<!-- Generated by graphviz version 2.38.0 (20151222.1943)
 -->
<!-- Title: DenseMatrix.h Pages: 1 -->
<svg width="608pt" height="308pt"
 viewBox="0.00 0.00 607.50 308.00" xmlns="http://www.w3.org/2000/svg" xmlns:xlink="http://www.w3.org/1999/xlink">
<g id="graph0" class="graph" transform="scale(1 1) rotate(0) translate(4 304)">
<title>DenseMatrix.h</title>
<polygon fill="white" stroke="none" points="-4,4 -4,-304 603.5,-304 603.5,4 -4,4"/>
<!-- Node1 -->
<g id="node1" class="node"><title>Node1</title>
<polygon fill="#bfbfbf" stroke="black" points="269,-280.5 269,-299.5 346,-299.5 346,-280.5 269,-280.5"/>
<text text-anchor="middle" x="307.5" y="-287.5" font-family="FreeSans" font-size="10.00">DenseMatrix.h</text>
</g>
<!-- Node2 -->
<g id="node2" class="node"><title>Node2</title>
<g id="a_node2"><a xlink:href="ct__defs_8h.html" target="_top" xlink:title="This file contains definitions of terms that are used in internal routines and are unlikely to need m...">
<polygon fill="white" stroke="black" points="312.5,-56.5 312.5,-75.5 426.5,-75.5 426.5,-56.5 312.5,-56.5"/>
<text text-anchor="middle" x="369.5" y="-63.5" font-family="FreeSans" font-size="10.00">cantera/base/ct_defs.h</text>
</a>
</g>
</g>
<!-- Node1&#45;&gt;Node2 -->
<g id="edge1" class="edge"><title>Node1&#45;&gt;Node2</title>
<path fill="none" stroke="midnightblue" d="M322.977,-280.357C347.778,-265.411 395.096,-232.058 409.5,-188 421.646,-150.849 397.98,-107.351 382.145,-83.9575"/>
<polygon fill="midnightblue" stroke="midnightblue" points="384.794,-81.642 376.159,-75.5022 379.08,-85.6864 384.794,-81.642"/>
</g>
<!-- Node11 -->
<g id="node11" class="node"><title>Node11</title>
<g id="a_node11"><a xlink:href="ctexceptions_8h.html" target="_top" xlink:title="Definitions for the classes that are thrown when Cantera experiences an error condition (also contain...">
<polygon fill="white" stroke="black" points="0,-112.5 0,-131.5 137,-131.5 137,-112.5 0,-112.5"/>
<text text-anchor="middle" x="68.5" y="-119.5" font-family="FreeSans" font-size="10.00">cantera/base/ctexceptions.h</text>
</a>
</g>
</g>
<!-- Node1&#45;&gt;Node11 -->
<g id="edge10" class="edge"><title>Node1&#45;&gt;Node11</title>
<path fill="none" stroke="midnightblue" d="M294.987,-280.309C256.187,-253.36 137.622,-171.01 89.314,-137.457"/>
<polygon fill="midnightblue" stroke="midnightblue" points="91.0992,-134.435 80.8893,-131.605 87.1059,-140.184 91.0992,-134.435"/>
</g>
<!-- Node14 -->
<g id="node14" class="node"><title>Node14</title>
<g id="a_node14"><a xlink:href="Array_8h.html" target="_top" xlink:title="Header file for class Cantera::Array2D. ">
<polygon fill="white" stroke="black" points="255,-224.5 255,-243.5 360,-243.5 360,-224.5 255,-224.5"/>
<text text-anchor="middle" x="307.5" y="-231.5" font-family="FreeSans" font-size="10.00">cantera/base/Array.h</text>
</a>
</g>
</g>
<!-- Node1&#45;&gt;Node14 -->
<g id="edge14" class="edge"><title>Node1&#45;&gt;Node14</title>
<path fill="none" stroke="midnightblue" d="M307.5,-280.083C307.5,-273.006 307.5,-262.861 307.5,-253.986"/>
<polygon fill="midnightblue" stroke="midnightblue" points="311,-253.751 307.5,-243.751 304,-253.751 311,-253.751"/>
</g>
<!-- Node3 -->
<g id="node3" class="node"><title>Node3</title>
<g id="a_node3"><a xlink:href="config_8h_source.html" target="_top" xlink:title="config.h">
<polygon fill="white" stroke="black" points="549.5,-0.5 549.5,-19.5 599.5,-19.5 599.5,-0.5 549.5,-0.5"/>
<text text-anchor="middle" x="574.5" y="-7.5" font-family="FreeSans" font-size="10.00">config.h</text>
</a>
</g>
</g>
<!-- Node2&#45;&gt;Node3 -->
<g id="edge2" class="edge"><title>Node2&#45;&gt;Node3</title>
<path fill="none" stroke="midnightblue" d="M401.967,-56.4709C434.351,-47.9605 485.79,-34.4335 539.249,-20.3277"/>
<polygon fill="midnightblue" stroke="midnightblue" points="540.474,-23.6242 549.25,-17.6881 538.688,-16.8559 540.474,-23.6242"/>
</g>
<!-- Node4 -->
<g id="node4" class="node"><title>Node4</title>
<polygon fill="white" stroke="#bfbfbf" points="166.5,-0.5 166.5,-19.5 210.5,-19.5 210.5,-0.5 166.5,-0.5"/>
<text text-anchor="middle" x="188.5" y="-7.5" font-family="FreeSans" font-size="10.00">cmath</text>
</g>
<!-- Node2&#45;&gt;Node4 -->
<g id="edge3" class="edge"><title>Node2&#45;&gt;Node4</title>
<path fill="none" stroke="midnightblue" d="M340.82,-56.4435C308.118,-46.6872 254.788,-30.7764 220.69,-20.6036"/>
<polygon fill="midnightblue" stroke="midnightblue" points="221.353,-17.1489 210.769,-17.6439 219.351,-23.8568 221.353,-17.1489"/>
</g>
<!-- Node5 -->
<g id="node5" class="node"><title>Node5</title>
<polygon fill="white" stroke="#bfbfbf" points="228.5,-0.5 228.5,-19.5 272.5,-19.5 272.5,-0.5 228.5,-0.5"/>
<text text-anchor="middle" x="250.5" y="-7.5" font-family="FreeSans" font-size="10.00">cstdlib</text>
</g>
<!-- Node2&#45;&gt;Node5 -->
<g id="edge4" class="edge"><title>Node2&#45;&gt;Node5</title>
<path fill="none" stroke="midnightblue" d="M350.644,-56.4435C331.234,-47.6356 300.77,-33.8116 278.535,-23.722"/>
<polygon fill="midnightblue" stroke="midnightblue" points="279.82,-20.4615 269.268,-19.5164 276.928,-26.836 279.82,-20.4615"/>
</g>
<!-- Node6 -->
<g id="node6" class="node"><title>Node6</title>
<polygon fill="white" stroke="#bfbfbf" points="291,-0.5 291,-19.5 334,-19.5 334,-0.5 291,-0.5"/>
<text text-anchor="middle" x="312.5" y="-7.5" font-family="FreeSans" font-size="10.00">vector</text>
</g>
<!-- Node2&#45;&gt;Node6 -->
<g id="edge5" class="edge"><title>Node2&#45;&gt;Node6</title>
<path fill="none" stroke="midnightblue" d="M360.342,-56.324C351.999,-48.4196 339.468,-36.5482 329.323,-26.9377"/>
<polygon fill="midnightblue" stroke="midnightblue" points="331.491,-24.1705 321.825,-19.8339 326.677,-29.2522 331.491,-24.1705"/>
</g>
<!-- Node7 -->
<g id="node7" class="node"><title>Node7</title>
<polygon fill="white" stroke="#bfbfbf" points="352,-0.5 352,-19.5 387,-19.5 387,-0.5 352,-0.5"/>
<text text-anchor="middle" x="369.5" y="-7.5" font-family="FreeSans" font-size="10.00">map</text>
</g>
<!-- Node2&#45;&gt;Node7 -->
<g id="edge6" class="edge"><title>Node2&#45;&gt;Node7</title>
<path fill="none" stroke="midnightblue" d="M369.5,-56.083C369.5,-49.0059 369.5,-38.8611 369.5,-29.9865"/>
<polygon fill="midnightblue" stroke="midnightblue" points="373,-29.751 369.5,-19.7511 366,-29.7511 373,-29.751"/>
</g>
<!-- Node8 -->
<g id="node8" class="node"><title>Node8</title>
<polygon fill="white" stroke="#bfbfbf" points="99.5,-0.5 99.5,-19.5 139.5,-19.5 139.5,-0.5 99.5,-0.5"/>
<text text-anchor="middle" x="119.5" y="-7.5" font-family="FreeSans" font-size="10.00">string</text>
</g>
<!-- Node2&#45;&gt;Node8 -->
<g id="edge7" class="edge"><title>Node2&#45;&gt;Node8</title>
<path fill="none" stroke="midnightblue" d="M328.002,-56.4908C285.218,-47.6477 216.606,-33.2705 157.5,-20 154.862,-19.4078 152.124,-18.7817 149.381,-18.1466"/>
<polygon fill="midnightblue" stroke="midnightblue" points="150.13,-14.7274 139.595,-15.8521 148.532,-21.5426 150.13,-14.7274"/>
</g>
<!-- Node9 -->
<g id="node9" class="node"><title>Node9</title>
<polygon fill="white" stroke="#bfbfbf" points="405.5,-0.5 405.5,-19.5 461.5,-19.5 461.5,-0.5 405.5,-0.5"/>
<text text-anchor="middle" x="433.5" y="-7.5" font-family="FreeSans" font-size="10.00">algorithm</text>
</g>
<!-- Node2&#45;&gt;Node9 -->
<g id="edge8" class="edge"><title>Node2&#45;&gt;Node9</title>
<path fill="none" stroke="midnightblue" d="M379.783,-56.324C389.336,-48.2631 403.78,-36.0765 415.284,-26.3695"/>
<polygon fill="midnightblue" stroke="midnightblue" points="417.644,-28.9577 423.03,-19.8339 413.13,-23.6076 417.644,-28.9577"/>
</g>
<!-- Node10 -->
<g id="node10" class="node"><title>Node10</title>
<polygon fill="white" stroke="#bfbfbf" points="480,-0.5 480,-19.5 531,-19.5 531,-0.5 480,-0.5"/>
<text text-anchor="middle" x="505.5" y="-7.5" font-family="FreeSans" font-size="10.00">memory</text>
</g>
<!-- Node2&#45;&gt;Node10 -->
<g id="edge9" class="edge"><title>Node2&#45;&gt;Node10</title>
<path fill="none" stroke="midnightblue" d="M391.05,-56.4435C413.531,-47.5171 448.988,-33.4387 474.48,-23.3168"/>
<polygon fill="midnightblue" stroke="midnightblue" points="476.049,-26.4598 484.051,-19.5164 473.465,-19.9539 476.049,-26.4598"/>
</g>
<!-- Node11&#45;&gt;Node8 -->
<g id="edge12" class="edge"><title>Node11&#45;&gt;Node8</title>
<path fill="none" stroke="midnightblue" d="M72.5019,-112.368C80.8066,-94.4563 100.063,-52.9233 111.179,-28.9482"/>
<polygon fill="midnightblue" stroke="midnightblue" points="114.486,-30.136 115.517,-19.5914 108.135,-27.1916 114.486,-30.136"/>
</g>
<!-- Node12 -->
<g id="node12" class="node"><title>Node12</title>
<polygon fill="white" stroke="#bfbfbf" points="14.5,-56.5 14.5,-75.5 72.5,-75.5 72.5,-56.5 14.5,-56.5"/>
<text text-anchor="middle" x="43.5" y="-63.5" font-family="FreeSans" font-size="10.00">exception</text>
</g>
<!-- Node11&#45;&gt;Node12 -->
<g id="edge11" class="edge"><title>Node11&#45;&gt;Node12</title>
<path fill="none" stroke="midnightblue" d="M64.3718,-112.083C60.9861,-104.77 56.084,-94.1814 51.8812,-85.1034"/>
<polygon fill="midnightblue" stroke="midnightblue" points="54.9289,-83.3553 47.5514,-75.7511 48.5766,-86.2962 54.9289,-83.3553"/>
</g>
<!-- Node13 -->
<g id="node13" class="node"><title>Node13</title>
<polygon fill="white" stroke="#bfbfbf" points="129,-56.5 129,-75.5 232,-75.5 232,-56.5 129,-56.5"/>
<text text-anchor="middle" x="180.5" y="-63.5" font-family="FreeSans" font-size="10.00">cantera/ext/format.h</text>
</g>
<!-- Node11&#45;&gt;Node13 -->
<g id="edge13" class="edge"><title>Node11&#45;&gt;Node13</title>
<path fill="none" stroke="midnightblue" d="M86.4947,-112.324C104.538,-103.625 132.547,-90.1202 153.303,-80.113"/>
<polygon fill="midnightblue" stroke="midnightblue" points="155.062,-83.1502 162.55,-75.6545 152.022,-76.8449 155.062,-83.1502"/>
</g>
<!-- Node15 -->
<g id="node15" class="node"><title>Node15</title>
<g id="a_node15"><a xlink:href="utilities_8h.html" target="_top" xlink:title="Various templated functions that carry out common vector operations (see Templated Utility Functions)...">
<polygon fill="white" stroke="black" points="212.5,-168.5 212.5,-187.5 266.5,-187.5 266.5,-168.5 212.5,-168.5"/>
<text text-anchor="middle" x="239.5" y="-175.5" font-family="FreeSans" font-size="10.00">utilities.h</text>
</a>
</g>
</g>
<!-- Node14&#45;&gt;Node15 -->
<g id="edge15" class="edge"><title>Node14&#45;&gt;Node15</title>
<path fill="none" stroke="midnightblue" d="M296.575,-224.324C286.325,-216.185 270.779,-203.839 258.499,-194.087"/>
<polygon fill="midnightblue" stroke="midnightblue" points="260.632,-191.312 250.624,-187.834 256.279,-196.794 260.632,-191.312"/>
</g>
<!-- Node19 -->
<g id="node19" class="node"><title>Node19</title>
<polygon fill="white" stroke="#bfbfbf" points="348,-168.5 348,-187.5 401,-187.5 401,-168.5 348,-168.5"/>
<text text-anchor="middle" x="374.5" y="-175.5" font-family="FreeSans" font-size="10.00">iostream</text>
</g>
<!-- Node14&#45;&gt;Node19 -->
<g id="edge22" class="edge"><title>Node14&#45;&gt;Node19</title>
<path fill="none" stroke="midnightblue" d="M318.265,-224.324C328.266,-216.263 343.387,-204.077 355.43,-194.369"/>
<polygon fill="midnightblue" stroke="midnightblue" points="357.95,-196.834 363.539,-187.834 353.557,-191.384 357.95,-196.834"/>
</g>
<!-- Node20 -->
<g id="node20" class="node"><title>Node20</title>
<polygon fill="white" stroke="#bfbfbf" points="285,-168.5 285,-187.5 330,-187.5 330,-168.5 285,-168.5"/>
<text text-anchor="middle" x="307.5" y="-175.5" font-family="FreeSans" font-size="10.00">cstring</text>
</g>
<!-- Node14&#45;&gt;Node20 -->
<g id="edge23" class="edge"><title>Node14&#45;&gt;Node20</title>
<path fill="none" stroke="midnightblue" d="M307.5,-224.083C307.5,-217.006 307.5,-206.861 307.5,-197.986"/>
<polygon fill="midnightblue" stroke="midnightblue" points="311,-197.751 307.5,-187.751 304,-197.751 311,-197.751"/>
</g>
<!-- Node15&#45;&gt;Node2 -->
<g id="edge16" class="edge"><title>Node15&#45;&gt;Node2</title>
<path fill="none" stroke="midnightblue" d="M266.713,-170.22C298.281,-161.794 347.539,-146.721 359.5,-132 369.953,-119.135 371.766,-99.9553 371.377,-85.7617"/>
<polygon fill="midnightblue" stroke="midnightblue" points="374.862,-85.4134 370.716,-75.6635 367.877,-85.8709 374.862,-85.4134"/>
</g>
<!-- Node16 -->
<g id="node16" class="node"><title>Node16</title>
<g id="a_node16"><a xlink:href="global_8h.html" target="_top" xlink:title="This file contains definitions for utility functions and text for modules, inputfiles, logs, textlogs, (see Input File Handling, Diagnostic Output, and Writing messages to the screen). ">
<polygon fill="white" stroke="black" points="155.5,-112.5 155.5,-131.5 205.5,-131.5 205.5,-112.5 155.5,-112.5"/>
<text text-anchor="middle" x="180.5" y="-119.5" font-family="FreeSans" font-size="10.00">global.h</text>
</a>
</g>
</g>
<!-- Node15&#45;&gt;Node16 -->
<g id="edge17" class="edge"><title>Node15&#45;&gt;Node16</title>
<path fill="none" stroke="midnightblue" d="M230.021,-168.324C221.299,-160.341 208.157,-148.313 197.602,-138.653"/>
<polygon fill="midnightblue" stroke="midnightblue" points="199.892,-136.004 190.152,-131.834 195.166,-141.167 199.892,-136.004"/>
</g>
<!-- Node17 -->
<g id="node17" class="node"><title>Node17</title>
<polygon fill="white" stroke="#bfbfbf" points="223.5,-112.5 223.5,-131.5 281.5,-131.5 281.5,-112.5 223.5,-112.5"/>
<text text-anchor="middle" x="252.5" y="-119.5" font-family="FreeSans" font-size="10.00">stdexcept</text>
</g>
<!-- Node15&#45;&gt;Node17 -->
<g id="edge20" class="edge"><title>Node15&#45;&gt;Node17</title>
<path fill="none" stroke="midnightblue" d="M241.647,-168.083C243.369,-160.927 245.847,-150.635 248,-141.691"/>
<polygon fill="midnightblue" stroke="midnightblue" points="251.455,-142.293 250.393,-131.751 244.65,-140.654 251.455,-142.293"/>
</g>
<!-- Node18 -->
<g id="node18" class="node"><title>Node18</title>
<polygon fill="white" stroke="#bfbfbf" points="300,-112.5 300,-131.5 351,-131.5 351,-112.5 300,-112.5"/>
<text text-anchor="middle" x="325.5" y="-119.5" font-family="FreeSans" font-size="10.00">numeric</text>
</g>
<!-- Node15&#45;&gt;Node18 -->
<g id="edge21" class="edge"><title>Node15&#45;&gt;Node18</title>
<path fill="none" stroke="midnightblue" d="M253.317,-168.324C266.733,-159.9 287.324,-146.971 303.086,-137.074"/>
<polygon fill="midnightblue" stroke="midnightblue" points="305.109,-139.936 311.717,-131.655 301.387,-134.008 305.109,-139.936"/>
</g>
<!-- Node16&#45;&gt;Node2 -->
<g id="edge18" class="edge"><title>Node16&#45;&gt;Node2</title>
<path fill="none" stroke="midnightblue" d="M205.598,-113.829C237.263,-104.782 292.1,-89.1144 329.551,-78.4139"/>
<polygon fill="midnightblue" stroke="midnightblue" points="330.966,-81.6497 339.62,-75.5371 329.043,-74.9191 330.966,-81.6497"/>
</g>
<!-- Node16&#45;&gt;Node13 -->
<g id="edge19" class="edge"><title>Node16&#45;&gt;Node13</title>
<path fill="none" stroke="midnightblue" d="M180.5,-112.083C180.5,-105.006 180.5,-94.8611 180.5,-85.9865"/>
<polygon fill="midnightblue" stroke="midnightblue" points="184,-85.751 180.5,-75.7511 177,-85.7511 184,-85.751"/>
</g>
</g>
</svg>
