<?xml version="1.0" encoding="UTF-8" standalone="no"?>
<!DOCTYPE svg PUBLIC "-//W3C//DTD SVG 1.1//EN"
 "http://www.w3.org/Graphics/SVG/1.1/DTD/svg11.dtd">
<!-- Generated by graphviz version 2.28.0 (20120425.2022)
 -->
<!-- Title: thermo Pages: 1 -->
<svg width="153pt" height="223pt"
 viewBox="0.00 0.00 153.00 223.00" xmlns="http://www.w3.org/2000/svg" xmlns:xlink="http://www.w3.org/1999/xlink">
<g id="graph1" class="graph" transform="scale(1 1) rotate(0) translate(4 219)">
<title>thermo</title>
<polygon fill="white" stroke="white" points="-4,5 -4,-219 150,-219 150,5 -4,5"/>
<g id="graph2" class="cluster"><title>clusterdir_6fbe91f1050ba110875dc8b0702a61ee</title>
<a xlink:href="dir_6fbe91f1050ba110875dc8b0702a61ee.html" target="_top" xlink:title="cantera">
<polygon fill="#ddddee" stroke="black" points="8,-136 8,-207 78,-207 78,-136 8,-136"/>
<text text-anchor="middle" x="43" y="-195" font-family="FreeSans" font-size="10.00">cantera</text>
</a>
</g>
<!-- dir_3cc50e07c07b6e5dfebd896073e0298f -->
<g id="node2" class="node"><title>dir_3cc50e07c07b6e5dfebd896073e0298f</title>
<a xlink:href="dir_3cc50e07c07b6e5dfebd896073e0298f.html" target="_top" xlink:title="thermo">
<polygon fill="#eeeeff" stroke="black" points="70,-180 16,-180 16,-144 70,-144 70,-180"/>
<text text-anchor="middle" x="43" y="-159.5" font-family="FreeSans" font-size="10.00">thermo</text>
</a>
</g>
<!-- dir_a54d9e5dfc2a2dbb65ec20bef473969d -->
<g id="node3" class="node"><title>dir_a54d9e5dfc2a2dbb65ec20bef473969d</title>
<a xlink:href="dir_a54d9e5dfc2a2dbb65ec20bef473969d.html" target="_top" xlink:title="base">
<polygon fill="none" stroke="black" points="70,-36 16,-36 16,-0 70,-0 70,-36"/>
<text text-anchor="middle" x="43" y="-15.5" font-family="FreeSans" font-size="10.00">base</text>
</a>
</g>
<!-- dir_3cc50e07c07b6e5dfebd896073e0298f&#45;&gt;dir_a54d9e5dfc2a2dbb65ec20bef473969d -->
<g id="edge7" class="edge"><title>dir_3cc50e07c07b6e5dfebd896073e0298f&#45;&gt;dir_a54d9e5dfc2a2dbb65ec20bef473969d</title>
<path fill="none" stroke="black" d="M27.3901,-143.774C19.6271,-134.03 11.0541,-121.184 7,-108 2.29721,-92.7067 2.29721,-87.2933 7,-72 10.0089,-62.2153 15.507,-52.6161 21.3157,-44.3336"/>
<polygon fill="black" stroke="black" points="24.1948,-46.3279 27.3901,-36.2264 18.5928,-42.1306 24.1948,-46.3279"/>
<a xlink:href="dir_000002_000009.html" target="_top" xlink:title="37">
<text text-anchor="middle" x="24.3117" y="-48.4071" font-family="FreeSans" font-size="10.00">37</text>
</a>
</g>
<!-- dir_27c871881f99b5d19593ee4ab0e66513 -->
<g id="node4" class="node"><title>dir_27c871881f99b5d19593ee4ab0e66513</title>
<a xlink:href="dir_27c871881f99b5d19593ee4ab0e66513.html" target="_top" xlink:title="tpx">
<polygon fill="none" stroke="black" points="70,-108 16,-108 16,-72 70,-72 70,-108"/>
<text text-anchor="middle" x="43" y="-87.5" font-family="FreeSans" font-size="10.00">tpx</text>
</a>
</g>
<!-- dir_3cc50e07c07b6e5dfebd896073e0298f&#45;&gt;dir_27c871881f99b5d19593ee4ab0e66513 -->
<g id="edge9" class="edge"><title>dir_3cc50e07c07b6e5dfebd896073e0298f&#45;&gt;dir_27c871881f99b5d19593ee4ab0e66513</title>
<path fill="none" stroke="black" d="M43,-143.697C43,-135.983 43,-126.712 43,-118.112"/>
<polygon fill="black" stroke="black" points="46.5001,-118.104 43,-108.104 39.5001,-118.104 46.5001,-118.104"/>
<a xlink:href="dir_000002_000023.html" target="_top" xlink:title="1">
<text text-anchor="middle" x="49.3393" y="-119.199" font-family="FreeSans" font-size="10.00">1</text>
</a>
</g>
<!-- dir_8bf842952c463ead18ee9fb35e4c5251 -->
<g id="node5" class="node"><title>dir_8bf842952c463ead18ee9fb35e4c5251</title>
<a xlink:href="dir_8bf842952c463ead18ee9fb35e4c5251.html" target="_top" xlink:title="numerics">
<polygon fill="none" stroke="black" points="145.25,-108 88.75,-108 88.75,-72 145.25,-72 145.25,-108"/>
<text text-anchor="middle" x="117" y="-87.5" font-family="FreeSans" font-size="10.00">numerics</text>
</a>
</g>
<!-- dir_3cc50e07c07b6e5dfebd896073e0298f&#45;&gt;dir_8bf842952c463ead18ee9fb35e4c5251 -->
<g id="edge11" class="edge"><title>dir_3cc50e07c07b6e5dfebd896073e0298f&#45;&gt;dir_8bf842952c463ead18ee9fb35e4c5251</title>
<path fill="none" stroke="black" d="M61.2921,-143.697C70.4326,-135.05 81.6401,-124.449 91.6,-115.027"/>
<polygon fill="black" stroke="black" points="94.0588,-117.519 98.9183,-108.104 89.2484,-112.434 94.0588,-117.519"/>
<a xlink:href="dir_000002_000011.html" target="_top" xlink:title="1">
<text text-anchor="middle" x="93.3986" y="-119.552" font-family="FreeSans" font-size="10.00">1</text>
</a>
</g>
<!-- dir_27c871881f99b5d19593ee4ab0e66513&#45;&gt;dir_a54d9e5dfc2a2dbb65ec20bef473969d -->
<g id="edge3" class="edge"><title>dir_27c871881f99b5d19593ee4ab0e66513&#45;&gt;dir_a54d9e5dfc2a2dbb65ec20bef473969d</title>
<path fill="none" stroke="black" d="M43,-71.6966C43,-63.9827 43,-54.7125 43,-46.1124"/>
<polygon fill="black" stroke="black" points="46.5001,-46.1043 43,-36.1043 39.5001,-46.1044 46.5001,-46.1043"/>
<a xlink:href="dir_000023_000009.html" target="_top" xlink:title="1">
<text text-anchor="middle" x="49.3393" y="-47.199" font-family="FreeSans" font-size="10.00">1</text>
</a>
</g>
<!-- dir_8bf842952c463ead18ee9fb35e4c5251&#45;&gt;dir_a54d9e5dfc2a2dbb65ec20bef473969d -->
<g id="edge5" class="edge"><title>dir_8bf842952c463ead18ee9fb35e4c5251&#45;&gt;dir_a54d9e5dfc2a2dbb65ec20bef473969d</title>
<path fill="none" stroke="black" d="M98.7079,-71.6966C89.5674,-63.0503 78.3599,-52.4486 68.4,-43.027"/>
<polygon fill="black" stroke="black" points="70.7516,-40.4337 61.0817,-36.1043 65.9412,-45.519 70.7516,-40.4337"/>
<a xlink:href="dir_000011_000009.html" target="_top" xlink:title="23">
<text text-anchor="middle" x="75.3141" y="-38.3413" font-family="FreeSans" font-size="10.00">23</text>
</a>
</g>
</g>
</svg>
