<?xml version="1.0" encoding="UTF-8" standalone="no"?>
<!DOCTYPE svg PUBLIC "-//W3C//DTD SVG 1.1//EN"
 "http://www.w3.org/Graphics/SVG/1.1/DTD/svg11.dtd">
<!-- Generated by graphviz version 2.36.0 (20140111.2315)
 -->
<!-- Title: cantera Pages: 1 -->
<svg width="494pt" height="471pt"
 viewBox="0.00 0.00 494.00 471.00" xmlns="http://www.w3.org/2000/svg" xmlns:xlink="http://www.w3.org/1999/xlink">
<g id="graph0" class="graph" transform="scale(1 1) rotate(0) translate(4 467)">
<title>cantera</title>
<polygon fill="white" stroke="none" points="-4,4 -4,-467 490,-467 490,4 -4,4"/>
<g id="clust1" class="cluster"><title>clusterdir_d44c64559bbebec7f509842c48db8b23</title>
<g id="a_clust1"><a xlink:href="dir_d44c64559bbebec7f509842c48db8b23.html" target="_top" xlink:title="include">
<polygon fill="#ddddee" stroke="black" points="8,-8 8,-455 478,-455 478,-8 8,-8"/>
<text text-anchor="middle" x="243" y="-443" font-family="FreeSans" font-size="10.00">include</text>
</a>
</g>
</g>
<g id="clust2" class="cluster"><title>clusterdir_6fbe91f1050ba110875dc8b0702a61ee</title>
<g id="a_clust2"><a xlink:href="dir_6fbe91f1050ba110875dc8b0702a61ee.html" target="_top">
<polygon fill="#eeeeff" stroke="black" points="16,-16 16,-428 470,-428 470,-16 16,-16"/>
</a>
</g>
</g>
<!-- dir_6fbe91f1050ba110875dc8b0702a61ee -->
<g id="node1" class="node"><title>dir_6fbe91f1050ba110875dc8b0702a61ee</title>
<text text-anchor="middle" x="220" y="-399.5" font-family="FreeSans" font-size="10.00">cantera</text>
</g>
<!-- dir_a54d9e5dfc2a2dbb65ec20bef473969d -->
<g id="node2" class="node"><title>dir_a54d9e5dfc2a2dbb65ec20bef473969d</title>
<g id="a_node2"><a xlink:href="dir_a54d9e5dfc2a2dbb65ec20bef473969d.html" target="_top" xlink:title="base">
<polygon fill="white" stroke="black" points="280,-60 226,-60 226,-24 280,-24 280,-60"/>
<text text-anchor="middle" x="253" y="-39.5" font-family="FreeSans" font-size="10.00">base</text>
</a>
</g>
</g>
<!-- dir_6fbe91f1050ba110875dc8b0702a61ee&#45;&gt;dir_a54d9e5dfc2a2dbb65ec20bef473969d -->
<g id="edge2" class="edge"><title>dir_6fbe91f1050ba110875dc8b0702a61ee&#45;&gt;dir_a54d9e5dfc2a2dbb65ec20bef473969d</title>
<path fill="none" stroke="black" d="M247.284,-399.888C287.212,-396.951 362.113,-386.319 411,-348 446.708,-320.011 461,-304.37 461,-259 461,-259 461,-259 461,-185 461,-103.161 349.81,-65.0854 290.021,-50.5269"/>
<polygon fill="black" stroke="black" points="290.726,-47.0974 280.192,-48.2325 289.135,-53.9142 290.726,-47.0974"/>
<g id="a_edge2&#45;headlabel"><a xlink:href="dir_000001_000009.html" target="_top" xlink:title="123">
<text text-anchor="middle" x="294.872" y="-42.6496" font-family="FreeSans" font-size="10.00">123</text>
</a>
</g>
</g>
<!-- dir_b6602fa85e55c10ff974e6d590939819 -->
<g id="node4" class="node"><title>dir_b6602fa85e55c10ff974e6d590939819</title>
<g id="a_node4"><a xlink:href="dir_b6602fa85e55c10ff974e6d590939819.html" target="_top" xlink:title="equil">
<polygon fill="white" stroke="black" points="270,-276 216,-276 216,-240 270,-240 270,-276"/>
<text text-anchor="middle" x="243" y="-255.5" font-family="FreeSans" font-size="10.00">equil</text>
</a>
</g>
</g>
<!-- dir_6fbe91f1050ba110875dc8b0702a61ee&#45;&gt;dir_b6602fa85e55c10ff974e6d590939819 -->
<g id="edge3" class="edge"><title>dir_6fbe91f1050ba110875dc8b0702a61ee&#45;&gt;dir_b6602fa85e55c10ff974e6d590939819</title>
<path fill="none" stroke="black" d="M224.779,-383.933C227.522,-373.603 230.841,-360.126 233,-348 236.657,-327.464 239.227,-304.01 240.845,-286.336"/>
<polygon fill="black" stroke="black" points="244.351,-286.422 241.731,-276.156 237.378,-285.815 244.351,-286.422"/>
<g id="a_edge3&#45;headlabel"><a xlink:href="dir_000001_000015.html" target="_top" xlink:title="4">
<text text-anchor="middle" x="246.868" y="-287.749" font-family="FreeSans" font-size="10.00">4</text>
</a>
</g>
</g>
<!-- dir_28819bef72f6570b005694d295d15d08 -->
<g id="node5" class="node"><title>dir_28819bef72f6570b005694d295d15d08</title>
<g id="a_node5"><a xlink:href="dir_28819bef72f6570b005694d295d15d08.html" target="_top" xlink:title="kinetics">
<polygon fill="white" stroke="black" points="178,-276 124,-276 124,-240 178,-240 178,-276"/>
<text text-anchor="middle" x="151" y="-255.5" font-family="FreeSans" font-size="10.00">kinetics</text>
</a>
</g>
</g>
<!-- dir_6fbe91f1050ba110875dc8b0702a61ee&#45;&gt;dir_28819bef72f6570b005694d295d15d08 -->
<g id="edge5" class="edge"><title>dir_6fbe91f1050ba110875dc8b0702a61ee&#45;&gt;dir_28819bef72f6570b005694d295d15d08</title>
<path fill="none" stroke="black" d="M193.533,-383.994C181.553,-374.835 168.436,-362.446 161,-348 151.184,-328.932 149.043,-304.575 149.155,-286.164"/>
<polygon fill="black" stroke="black" points="152.656,-286.191 149.441,-276.096 145.659,-285.992 152.656,-286.191"/>
<g id="a_edge5&#45;headlabel"><a xlink:href="dir_000001_000006.html" target="_top" xlink:title="17">
<text text-anchor="middle" x="155.392" y="-287.365" font-family="FreeSans" font-size="10.00">17</text>
</a>
</g>
</g>
<!-- dir_8bf842952c463ead18ee9fb35e4c5251 -->
<g id="node6" class="node"><title>dir_8bf842952c463ead18ee9fb35e4c5251</title>
<g id="a_node6"><a xlink:href="dir_8bf842952c463ead18ee9fb35e4c5251.html" target="_top" xlink:title="numerics">
<polygon fill="white" stroke="black" points="223.5,-132 168.5,-132 168.5,-96 223.5,-96 223.5,-132"/>
<text text-anchor="middle" x="196" y="-111.5" font-family="FreeSans" font-size="10.00">numerics</text>
</a>
</g>
</g>
<!-- dir_6fbe91f1050ba110875dc8b0702a61ee&#45;&gt;dir_8bf842952c463ead18ee9fb35e4c5251 -->
<g id="edge6" class="edge"><title>dir_6fbe91f1050ba110875dc8b0702a61ee&#45;&gt;dir_8bf842952c463ead18ee9fb35e4c5251</title>
<path fill="none" stroke="black" d="M192.809,-401.311C154.757,-400.091 86.7291,-391.518 55,-348 20.4238,-300.578 36.818,-254.125 108,-168 121.517,-151.645 141.476,-139.045 158.97,-130.242"/>
<polygon fill="black" stroke="black" points="160.867,-133.214 168.379,-125.742 157.847,-126.899 160.867,-133.214"/>
<g id="a_edge6&#45;headlabel"><a xlink:href="dir_000001_000011.html" target="_top" xlink:title="35">
<text text-anchor="middle" x="158.849" y="-134.826" font-family="FreeSans" font-size="10.00">35</text>
</a>
</g>
</g>
<!-- dir_f46b18a6c00d0db8bc9244fc17f43dd7 -->
<g id="node7" class="node"><title>dir_f46b18a6c00d0db8bc9244fc17f43dd7</title>
<g id="a_node7"><a xlink:href="dir_f46b18a6c00d0db8bc9244fc17f43dd7.html" target="_top" xlink:title="oneD">
<polygon fill="white" stroke="black" points="224,-348 170,-348 170,-312 224,-312 224,-348"/>
<text text-anchor="middle" x="197" y="-327.5" font-family="FreeSans" font-size="10.00">oneD</text>
</a>
</g>
</g>
<!-- dir_6fbe91f1050ba110875dc8b0702a61ee&#45;&gt;dir_f46b18a6c00d0db8bc9244fc17f43dd7 -->
<g id="edge4" class="edge"><title>dir_6fbe91f1050ba110875dc8b0702a61ee&#45;&gt;dir_f46b18a6c00d0db8bc9244fc17f43dd7</title>
<path fill="none" stroke="black" d="M214.315,-383.697C211.752,-375.898 208.667,-366.509 205.815,-357.829"/>
<polygon fill="black" stroke="black" points="209.067,-356.512 202.62,-348.104 202.416,-358.697 209.067,-356.512"/>
<g id="a_edge4&#45;headlabel"><a xlink:href="dir_000001_000020.html" target="_top" xlink:title="7">
<text text-anchor="middle" x="212.886" y="-356.541" font-family="FreeSans" font-size="10.00">7</text>
</a>
</g>
</g>
<!-- dir_3cc50e07c07b6e5dfebd896073e0298f -->
<g id="node8" class="node"><title>dir_3cc50e07c07b6e5dfebd896073e0298f</title>
<g id="a_node8"><a xlink:href="dir_3cc50e07c07b6e5dfebd896073e0298f.html" target="_top" xlink:title="thermo">
<polygon fill="white" stroke="black" points="316,-204 262,-204 262,-168 316,-168 316,-204"/>
<text text-anchor="middle" x="289" y="-183.5" font-family="FreeSans" font-size="10.00">thermo</text>
</a>
</g>
</g>
<!-- dir_6fbe91f1050ba110875dc8b0702a61ee&#45;&gt;dir_3cc50e07c07b6e5dfebd896073e0298f -->
<g id="edge7" class="edge"><title>dir_6fbe91f1050ba110875dc8b0702a61ee&#45;&gt;dir_3cc50e07c07b6e5dfebd896073e0298f</title>
<path fill="none" stroke="black" d="M233.582,-383.63C250.662,-360.574 279.073,-317.876 290,-276 295.291,-255.722 294.695,-231.951 292.965,-214.079"/>
<polygon fill="black" stroke="black" points="296.432,-213.591 291.818,-204.054 289.478,-214.387 296.432,-213.591"/>
<g id="a_edge7&#45;headlabel"><a xlink:href="dir_000001_000002.html" target="_top" xlink:title="41">
<text text-anchor="middle" x="299.662" y="-214.339" font-family="FreeSans" font-size="10.00">41</text>
</a>
</g>
</g>
<!-- dir_e06e40b6a3c4e04950e39aba62791861 -->
<g id="node10" class="node"><title>dir_e06e40b6a3c4e04950e39aba62791861</title>
<g id="a_node10"><a xlink:href="dir_e06e40b6a3c4e04950e39aba62791861.html" target="_top" xlink:title="transport">
<polygon fill="white" stroke="black" points="402,-276 348,-276 348,-240 402,-240 402,-276"/>
<text text-anchor="middle" x="375" y="-255.5" font-family="FreeSans" font-size="10.00">transport</text>
</a>
</g>
</g>
<!-- dir_6fbe91f1050ba110875dc8b0702a61ee&#45;&gt;dir_e06e40b6a3c4e04950e39aba62791861 -->
<g id="edge1" class="edge"><title>dir_6fbe91f1050ba110875dc8b0702a61ee&#45;&gt;dir_e06e40b6a3c4e04950e39aba62791861</title>
<path fill="none" stroke="black" d="M247.23,-389.715C267.231,-380.514 294.246,-366.098 314,-348 315.419,-346.7 340.177,-310.359 357.709,-284.524"/>
<polygon fill="black" stroke="black" points="360.617,-286.471 363.334,-276.23 354.824,-282.542 360.617,-286.471"/>
<g id="a_edge1&#45;headlabel"><a xlink:href="dir_000001_000008.html" target="_top" xlink:title="8">
<text text-anchor="middle" x="360.949" y="-288.54" font-family="FreeSans" font-size="10.00">8</text>
</a>
</g>
</g>
<!-- dir_c2f88de04d55f3b00cc7dddcabb0c3f5 -->
<g id="node11" class="node"><title>dir_c2f88de04d55f3b00cc7dddcabb0c3f5</title>
<g id="a_node11"><a xlink:href="dir_c2f88de04d55f3b00cc7dddcabb0c3f5.html" target="_top" xlink:title="zeroD">
<polygon fill="white" stroke="black" points="118,-348 64,-348 64,-312 118,-312 118,-348"/>
<text text-anchor="middle" x="91" y="-327.5" font-family="FreeSans" font-size="10.00">zeroD</text>
</a>
</g>
</g>
<!-- dir_6fbe91f1050ba110875dc8b0702a61ee&#45;&gt;dir_c2f88de04d55f3b00cc7dddcabb0c3f5 -->
<g id="edge8" class="edge"><title>dir_6fbe91f1050ba110875dc8b0702a61ee&#45;&gt;dir_c2f88de04d55f3b00cc7dddcabb0c3f5</title>
<path fill="none" stroke="black" d="M192.957,-386.326C173.779,-375.919 147.839,-361.843 126.924,-350.494"/>
<polygon fill="black" stroke="black" points="128.466,-347.348 118.007,-345.655 125.127,-353.501 128.466,-347.348"/>
<g id="a_edge8&#45;headlabel"><a xlink:href="dir_000001_000018.html" target="_top" xlink:title="4">
<text text-anchor="middle" x="132.979" y="-344.067" font-family="FreeSans" font-size="10.00">4</text>
</a>
</g>
</g>
<!-- dir_5490827e5992e1ca34b709b90d1ef656 -->
<g id="node3" class="node"><title>dir_5490827e5992e1ca34b709b90d1ef656</title>
<g id="a_node3"><a xlink:href="dir_5490827e5992e1ca34b709b90d1ef656.html" target="_top" xlink:title="cython">
<polygon fill="white" stroke="black" points="402,-348 348,-348 348,-312 402,-312 402,-348"/>
<text text-anchor="middle" x="375" y="-327.5" font-family="FreeSans" font-size="10.00">cython</text>
</a>
</g>
</g>
<!-- dir_5490827e5992e1ca34b709b90d1ef656&#45;&gt;dir_a54d9e5dfc2a2dbb65ec20bef473969d -->
<g id="edge14" class="edge"><title>dir_5490827e5992e1ca34b709b90d1ef656&#45;&gt;dir_a54d9e5dfc2a2dbb65ec20bef473969d</title>
<path fill="none" stroke="black" d="M393.604,-311.756C402.531,-302.198 412.29,-289.527 417,-276 439.743,-210.681 373.764,-112.007 359,-96 340.408,-75.8431 312.445,-62.309 289.906,-53.9652"/>
<polygon fill="black" stroke="black" points="290.9,-50.6047 280.305,-50.5974 288.583,-57.2101 290.9,-50.6047"/>
<g id="a_edge14&#45;headlabel"><a xlink:href="dir_000021_000009.html" target="_top" xlink:title="2">
<text text-anchor="middle" x="295.232" y="-46.6152" font-family="FreeSans" font-size="10.00">2</text>
</a>
</g>
</g>
<!-- dir_5490827e5992e1ca34b709b90d1ef656&#45;&gt;dir_28819bef72f6570b005694d295d15d08 -->
<g id="edge15" class="edge"><title>dir_5490827e5992e1ca34b709b90d1ef656&#45;&gt;dir_28819bef72f6570b005694d295d15d08</title>
<path fill="none" stroke="black" d="M347.98,-320.556C307.954,-308.048 232.798,-284.562 187.783,-270.495"/>
<polygon fill="black" stroke="black" points="188.704,-267.116 178.115,-267.474 186.616,-273.797 188.704,-267.116"/>
<g id="a_edge15&#45;headlabel"><a xlink:href="dir_000021_000006.html" target="_top" xlink:title="1">
<text text-anchor="middle" x="192.982" y="-262.978" font-family="FreeSans" font-size="10.00">1</text>
</a>
</g>
</g>
<!-- dir_5490827e5992e1ca34b709b90d1ef656&#45;&gt;dir_8bf842952c463ead18ee9fb35e4c5251 -->
<g id="edge16" class="edge"><title>dir_5490827e5992e1ca34b709b90d1ef656&#45;&gt;dir_8bf842952c463ead18ee9fb35e4c5251</title>
<path fill="none" stroke="black" d="M390.61,-311.774C398.373,-302.03 406.946,-289.184 411,-276 415.703,-260.707 416.856,-254.89 411,-240 382.421,-167.336 286.927,-134.956 233.321,-122.206"/>
<polygon fill="black" stroke="black" points="234.034,-118.779 223.507,-119.98 232.485,-125.606 234.034,-118.779"/>
<g id="a_edge16&#45;headlabel"><a xlink:href="dir_000021_000011.html" target="_top" xlink:title="1">
<text text-anchor="middle" x="238.168" y="-114.305" font-family="FreeSans" font-size="10.00">1</text>
</a>
</g>
</g>
<!-- dir_5490827e5992e1ca34b709b90d1ef656&#45;&gt;dir_3cc50e07c07b6e5dfebd896073e0298f -->
<g id="edge17" class="edge"><title>dir_5490827e5992e1ca34b709b90d1ef656&#45;&gt;dir_3cc50e07c07b6e5dfebd896073e0298f</title>
<path fill="none" stroke="black" d="M362.62,-311.58C355.494,-301.356 346.494,-288.106 339,-276 326.25,-255.402 312.861,-231.427 303.15,-213.554"/>
<polygon fill="black" stroke="black" points="305.992,-211.449 298.161,-204.312 299.832,-214.774 305.992,-211.449"/>
<g id="a_edge17&#45;headlabel"><a xlink:href="dir_000021_000002.html" target="_top" xlink:title="1">
<text text-anchor="middle" x="310.198" y="-210.763" font-family="FreeSans" font-size="10.00">1</text>
</a>
</g>
</g>
<!-- dir_5490827e5992e1ca34b709b90d1ef656&#45;&gt;dir_e06e40b6a3c4e04950e39aba62791861 -->
<g id="edge13" class="edge"><title>dir_5490827e5992e1ca34b709b90d1ef656&#45;&gt;dir_e06e40b6a3c4e04950e39aba62791861</title>
<path fill="none" stroke="black" d="M375,-311.697C375,-303.983 375,-294.712 375,-286.112"/>
<polygon fill="black" stroke="black" points="378.5,-286.104 375,-276.104 371.5,-286.104 378.5,-286.104"/>
<g id="a_edge13&#45;headlabel"><a xlink:href="dir_000021_000008.html" target="_top" xlink:title="1">
<text text-anchor="middle" x="381.339" y="-287.199" font-family="FreeSans" font-size="10.00">1</text>
</a>
</g>
</g>
<!-- dir_b6602fa85e55c10ff974e6d590939819&#45;&gt;dir_a54d9e5dfc2a2dbb65ec20bef473969d -->
<g id="edge18" class="edge"><title>dir_b6602fa85e55c10ff974e6d590939819&#45;&gt;dir_a54d9e5dfc2a2dbb65ec20bef473969d</title>
<path fill="none" stroke="black" d="M243.801,-239.849C245.531,-202.832 249.627,-115.181 251.72,-70.3863"/>
<polygon fill="black" stroke="black" points="255.224,-70.385 252.195,-60.2325 248.232,-70.0581 255.224,-70.385"/>
<g id="a_edge18&#45;headlabel"><a xlink:href="dir_000015_000009.html" target="_top" xlink:title="11">
<text text-anchor="middle" x="257.893" y="-71.6082" font-family="FreeSans" font-size="10.00">11</text>
</a>
</g>
</g>
<!-- dir_b6602fa85e55c10ff974e6d590939819&#45;&gt;dir_8bf842952c463ead18ee9fb35e4c5251 -->
<g id="edge19" class="edge"><title>dir_b6602fa85e55c10ff974e6d590939819&#45;&gt;dir_8bf842952c463ead18ee9fb35e4c5251</title>
<path fill="none" stroke="black" d="M237.331,-239.871C229.285,-215.564 214.475,-170.819 204.941,-142.013"/>
<polygon fill="black" stroke="black" points="208.154,-140.583 201.689,-132.189 201.509,-142.783 208.154,-140.583"/>
<g id="a_edge19&#45;headlabel"><a xlink:href="dir_000015_000011.html" target="_top" xlink:title="2">
<text text-anchor="middle" x="211.979" y="-140.603" font-family="FreeSans" font-size="10.00">2</text>
</a>
</g>
</g>
<!-- dir_b6602fa85e55c10ff974e6d590939819&#45;&gt;dir_3cc50e07c07b6e5dfebd896073e0298f -->
<g id="edge20" class="edge"><title>dir_b6602fa85e55c10ff974e6d590939819&#45;&gt;dir_3cc50e07c07b6e5dfebd896073e0298f</title>
<path fill="none" stroke="black" d="M254.371,-239.697C259.718,-231.559 266.204,-221.689 272.111,-212.701"/>
<polygon fill="black" stroke="black" points="275.193,-214.384 277.76,-204.104 269.343,-210.539 275.193,-214.384"/>
<g id="a_edge20&#45;headlabel"><a xlink:href="dir_000015_000002.html" target="_top" xlink:title="2">
<text text-anchor="middle" x="275.592" y="-216.447" font-family="FreeSans" font-size="10.00">2</text>
</a>
</g>
</g>
<!-- dir_28819bef72f6570b005694d295d15d08&#45;&gt;dir_a54d9e5dfc2a2dbb65ec20bef473969d -->
<g id="edge26" class="edge"><title>dir_28819bef72f6570b005694d295d15d08&#45;&gt;dir_a54d9e5dfc2a2dbb65ec20bef473969d</title>
<path fill="none" stroke="black" d="M146.851,-239.927C140.277,-208.712 130.9,-141.471 159,-96 171.753,-75.3626 195.656,-62.0424 216.165,-53.9173"/>
<polygon fill="black" stroke="black" points="217.425,-57.1832 225.596,-50.4394 215.003,-50.6155 217.425,-57.1832"/>
<g id="a_edge26&#45;headlabel"><a xlink:href="dir_000006_000009.html" target="_top" xlink:title="24">
<text text-anchor="middle" x="215.035" y="-58.5908" font-family="FreeSans" font-size="10.00">24</text>
</a>
</g>
</g>
<!-- dir_28819bef72f6570b005694d295d15d08&#45;&gt;dir_8bf842952c463ead18ee9fb35e4c5251 -->
<g id="edge27" class="edge"><title>dir_28819bef72f6570b005694d295d15d08&#45;&gt;dir_8bf842952c463ead18ee9fb35e4c5251</title>
<path fill="none" stroke="black" d="M156.428,-239.871C164.131,-215.564 178.311,-170.819 187.439,-142.013"/>
<polygon fill="black" stroke="black" points="190.868,-142.779 190.553,-132.189 184.195,-140.665 190.868,-142.779"/>
<g id="a_edge27&#45;headlabel"><a xlink:href="dir_000006_000011.html" target="_top" xlink:title="4">
<text text-anchor="middle" x="192.489" y="-144.564" font-family="FreeSans" font-size="10.00">4</text>
</a>
</g>
</g>
<!-- dir_28819bef72f6570b005694d295d15d08&#45;&gt;dir_3cc50e07c07b6e5dfebd896073e0298f -->
<g id="edge28" class="edge"><title>dir_28819bef72f6570b005694d295d15d08&#45;&gt;dir_3cc50e07c07b6e5dfebd896073e0298f</title>
<path fill="none" stroke="black" d="M178.264,-243.17C199.528,-232.384 229.262,-217.302 252.565,-205.481"/>
<polygon fill="black" stroke="black" points="254.457,-208.446 261.792,-200.801 251.291,-202.203 254.457,-208.446"/>
<g id="a_edge28&#45;headlabel"><a xlink:href="dir_000006_000002.html" target="_top" xlink:title="7">
<text text-anchor="middle" x="252.536" y="-210.104" font-family="FreeSans" font-size="10.00">7</text>
</a>
</g>
</g>
<!-- dir_8bf842952c463ead18ee9fb35e4c5251&#45;&gt;dir_a54d9e5dfc2a2dbb65ec20bef473969d -->
<g id="edge29" class="edge"><title>dir_8bf842952c463ead18ee9fb35e4c5251&#45;&gt;dir_a54d9e5dfc2a2dbb65ec20bef473969d</title>
<path fill="none" stroke="black" d="M210.09,-95.6966C216.923,-87.3046 225.257,-77.0705 232.756,-67.8613"/>
<polygon fill="black" stroke="black" points="235.472,-70.0687 239.072,-60.1043 230.044,-65.6487 235.472,-70.0687"/>
<g id="a_edge29&#45;headlabel"><a xlink:href="dir_000011_000009.html" target="_top" xlink:title="23">
<text text-anchor="middle" x="235.404" y="-72.1489" font-family="FreeSans" font-size="10.00">23</text>
</a>
</g>
</g>
<!-- dir_f46b18a6c00d0db8bc9244fc17f43dd7&#45;&gt;dir_a54d9e5dfc2a2dbb65ec20bef473969d -->
<g id="edge22" class="edge"><title>dir_f46b18a6c00d0db8bc9244fc17f43dd7&#45;&gt;dir_a54d9e5dfc2a2dbb65ec20bef473969d</title>
<path fill="none" stroke="black" d="M169.948,-319.581C150.817,-311.332 126.589,-297.29 115,-276 107.35,-261.947 112.636,-255.824 115,-240 124.886,-173.813 117.078,-148.163 159,-96 173.826,-77.552 196.91,-64.4049 216.491,-55.8194"/>
<polygon fill="black" stroke="black" points="217.876,-59.0339 225.771,-51.9679 215.193,-52.5687 217.876,-59.0339"/>
<g id="a_edge22&#45;headlabel"><a xlink:href="dir_000020_000009.html" target="_top" xlink:title="6">
<text text-anchor="middle" x="215.645" y="-60.5342" font-family="FreeSans" font-size="10.00">6</text>
</a>
</g>
</g>
<!-- dir_f46b18a6c00d0db8bc9244fc17f43dd7&#45;&gt;dir_28819bef72f6570b005694d295d15d08 -->
<g id="edge23" class="edge"><title>dir_f46b18a6c00d0db8bc9244fc17f43dd7&#45;&gt;dir_28819bef72f6570b005694d295d15d08</title>
<path fill="none" stroke="black" d="M185.629,-311.697C180.282,-303.559 173.796,-293.689 167.889,-284.701"/>
<polygon fill="black" stroke="black" points="170.657,-282.539 162.24,-276.104 164.807,-286.384 170.657,-282.539"/>
<g id="a_edge23&#45;headlabel"><a xlink:href="dir_000020_000006.html" target="_top" xlink:title="2">
<text text-anchor="middle" x="175.004" y="-281.484" font-family="FreeSans" font-size="10.00">2</text>
</a>
</g>
</g>
<!-- dir_f46b18a6c00d0db8bc9244fc17f43dd7&#45;&gt;dir_8bf842952c463ead18ee9fb35e4c5251 -->
<g id="edge24" class="edge"><title>dir_f46b18a6c00d0db8bc9244fc17f43dd7&#45;&gt;dir_8bf842952c463ead18ee9fb35e4c5251</title>
<path fill="none" stroke="black" d="M196.92,-311.849C196.747,-274.832 196.337,-187.181 196.128,-142.386"/>
<polygon fill="black" stroke="black" points="199.627,-142.216 196.081,-132.232 192.627,-142.249 199.627,-142.216"/>
<g id="a_edge24&#45;headlabel"><a xlink:href="dir_000020_000011.html" target="_top" xlink:title="3">
<text text-anchor="middle" x="202.483" y="-143.297" font-family="FreeSans" font-size="10.00">3</text>
</a>
</g>
</g>
<!-- dir_f46b18a6c00d0db8bc9244fc17f43dd7&#45;&gt;dir_3cc50e07c07b6e5dfebd896073e0298f -->
<g id="edge25" class="edge"><title>dir_f46b18a6c00d0db8bc9244fc17f43dd7&#45;&gt;dir_3cc50e07c07b6e5dfebd896073e0298f</title>
<path fill="none" stroke="black" d="M224.158,-318.825C242.819,-310.335 266.417,-296.32 279,-276 290.359,-257.656 292.342,-233.049 291.776,-214.358"/>
<polygon fill="black" stroke="black" points="295.257,-213.916 291.2,-204.129 288.268,-214.31 295.257,-213.916"/>
<g id="a_edge25&#45;headlabel"><a xlink:href="dir_000020_000002.html" target="_top" xlink:title="2">
<text text-anchor="middle" x="298.294" y="-214.846" font-family="FreeSans" font-size="10.00">2</text>
</a>
</g>
</g>
<!-- dir_f46b18a6c00d0db8bc9244fc17f43dd7&#45;&gt;dir_e06e40b6a3c4e04950e39aba62791861 -->
<g id="edge21" class="edge"><title>dir_f46b18a6c00d0db8bc9244fc17f43dd7&#45;&gt;dir_e06e40b6a3c4e04950e39aba62791861</title>
<path fill="none" stroke="black" d="M224.034,-318.369C254.485,-306.394 304.146,-286.864 338.137,-273.497"/>
<polygon fill="black" stroke="black" points="339.686,-276.649 347.711,-269.732 337.124,-270.134 339.686,-276.649"/>
<g id="a_edge21&#45;headlabel"><a xlink:href="dir_000020_000008.html" target="_top" xlink:title="1">
<text text-anchor="middle" x="337.38" y="-278.106" font-family="FreeSans" font-size="10.00">1</text>
</a>
</g>
</g>
<!-- dir_3cc50e07c07b6e5dfebd896073e0298f&#45;&gt;dir_a54d9e5dfc2a2dbb65ec20bef473969d -->
<g id="edge30" class="edge"><title>dir_3cc50e07c07b6e5dfebd896073e0298f&#45;&gt;dir_a54d9e5dfc2a2dbb65ec20bef473969d</title>
<path fill="none" stroke="black" d="M283.497,-167.903C280.254,-157.563 276.177,-144.084 273,-132 267.597,-111.452 262.365,-87.999 258.607,-70.3282"/>
<polygon fill="black" stroke="black" points="261.951,-69.2179 256.47,-60.1505 255.1,-70.6564 261.951,-69.2179"/>
<g id="a_edge30&#45;headlabel"><a xlink:href="dir_000002_000009.html" target="_top" xlink:title="38">
<text text-anchor="middle" x="265.468" y="-69.6524" font-family="FreeSans" font-size="10.00">38</text>
</a>
</g>
</g>
<!-- dir_3cc50e07c07b6e5dfebd896073e0298f&#45;&gt;dir_8bf842952c463ead18ee9fb35e4c5251 -->
<g id="edge32" class="edge"><title>dir_3cc50e07c07b6e5dfebd896073e0298f&#45;&gt;dir_8bf842952c463ead18ee9fb35e4c5251</title>
<path fill="none" stroke="black" d="M266.011,-167.697C254.186,-158.796 239.608,-147.823 226.821,-138.199"/>
<polygon fill="black" stroke="black" points="228.819,-135.322 218.724,-132.104 224.609,-140.915 228.819,-135.322"/>
<g id="a_edge32&#45;headlabel"><a xlink:href="dir_000002_000011.html" target="_top" xlink:title="1">
<text text-anchor="middle" x="233.398" y="-132.715" font-family="FreeSans" font-size="10.00">1</text>
</a>
</g>
</g>
<!-- dir_27c871881f99b5d19593ee4ab0e66513 -->
<g id="node9" class="node"><title>dir_27c871881f99b5d19593ee4ab0e66513</title>
<g id="a_node9"><a xlink:href="dir_27c871881f99b5d19593ee4ab0e66513.html" target="_top" xlink:title="tpx">
<polygon fill="white" stroke="black" points="336,-132 282,-132 282,-96 336,-96 336,-132"/>
<text text-anchor="middle" x="309" y="-111.5" font-family="FreeSans" font-size="10.00">tpx</text>
</a>
</g>
</g>
<!-- dir_3cc50e07c07b6e5dfebd896073e0298f&#45;&gt;dir_27c871881f99b5d19593ee4ab0e66513 -->
<g id="edge31" class="edge"><title>dir_3cc50e07c07b6e5dfebd896073e0298f&#45;&gt;dir_27c871881f99b5d19593ee4ab0e66513</title>
<path fill="none" stroke="black" d="M293.944,-167.697C296.172,-159.898 298.855,-150.509 301.335,-141.829"/>
<polygon fill="black" stroke="black" points="304.731,-142.681 304.113,-132.104 298,-140.758 304.731,-142.681"/>
<g id="a_edge31&#45;headlabel"><a xlink:href="dir_000002_000022.html" target="_top" xlink:title="1">
<text text-anchor="middle" x="306.474" y="-144.417" font-family="FreeSans" font-size="10.00">1</text>
</a>
</g>
</g>
<!-- dir_27c871881f99b5d19593ee4ab0e66513&#45;&gt;dir_a54d9e5dfc2a2dbb65ec20bef473969d -->
<g id="edge12" class="edge"><title>dir_27c871881f99b5d19593ee4ab0e66513&#45;&gt;dir_a54d9e5dfc2a2dbb65ec20bef473969d</title>
<path fill="none" stroke="black" d="M295.157,-95.6966C288.511,-87.3893 280.422,-77.2771 273.113,-68.1407"/>
<polygon fill="black" stroke="black" points="275.664,-65.7266 266.683,-60.1043 270.197,-70.0995 275.664,-65.7266"/>
<g id="a_edge12&#45;headlabel"><a xlink:href="dir_000022_000009.html" target="_top" xlink:title="1">
<text text-anchor="middle" x="280.126" y="-64.2598" font-family="FreeSans" font-size="10.00">1</text>
</a>
</g>
</g>
<!-- dir_e06e40b6a3c4e04950e39aba62791861&#45;&gt;dir_a54d9e5dfc2a2dbb65ec20bef473969d -->
<g id="edge9" class="edge"><title>dir_e06e40b6a3c4e04950e39aba62791861&#45;&gt;dir_a54d9e5dfc2a2dbb65ec20bef473969d</title>
<path fill="none" stroke="black" d="M376.25,-239.704C377.637,-208.127 376.385,-140.319 345,-96 331.604,-77.0828 309.169,-63.9618 289.808,-55.5073"/>
<polygon fill="black" stroke="black" points="290.896,-52.171 280.316,-51.6162 288.241,-58.6479 290.896,-52.171"/>
<g id="a_edge9&#45;headlabel"><a xlink:href="dir_000008_000009.html" target="_top" xlink:title="9">
<text text-anchor="middle" x="295.299" y="-48.4073" font-family="FreeSans" font-size="10.00">9</text>
</a>
</g>
</g>
<!-- dir_e06e40b6a3c4e04950e39aba62791861&#45;&gt;dir_8bf842952c463ead18ee9fb35e4c5251 -->
<g id="edge10" class="edge"><title>dir_e06e40b6a3c4e04950e39aba62791861&#45;&gt;dir_8bf842952c463ead18ee9fb35e4c5251</title>
<path fill="none" stroke="black" d="M369.242,-239.675C361.863,-219.894 347.298,-187.731 325,-168 298.838,-144.85 261.189,-130.96 233.313,-123.245"/>
<polygon fill="black" stroke="black" points="234.084,-119.829 223.524,-120.676 232.308,-126.6 234.084,-119.829"/>
<g id="a_edge10&#45;headlabel"><a xlink:href="dir_000008_000011.html" target="_top" xlink:title="11">
<text text-anchor="middle" x="238.282" y="-115.495" font-family="FreeSans" font-size="10.00">11</text>
</a>
</g>
</g>
<!-- dir_e06e40b6a3c4e04950e39aba62791861&#45;&gt;dir_3cc50e07c07b6e5dfebd896073e0298f -->
<g id="edge11" class="edge"><title>dir_e06e40b6a3c4e04950e39aba62791861&#45;&gt;dir_3cc50e07c07b6e5dfebd896073e0298f</title>
<path fill="none" stroke="black" d="M353.742,-239.697C342.911,-230.881 329.582,-220.032 317.84,-210.474"/>
<polygon fill="black" stroke="black" points="319.979,-207.703 310.014,-204.104 315.56,-213.132 319.979,-207.703"/>
<g id="a_edge11&#45;headlabel"><a xlink:href="dir_000008_000002.html" target="_top" xlink:title="2">
<text text-anchor="middle" x="324.559" y="-205.27" font-family="FreeSans" font-size="10.00">2</text>
</a>
</g>
</g>
<!-- dir_c2f88de04d55f3b00cc7dddcabb0c3f5&#45;&gt;dir_a54d9e5dfc2a2dbb65ec20bef473969d -->
<g id="edge33" class="edge"><title>dir_c2f88de04d55f3b00cc7dddcabb0c3f5&#45;&gt;dir_a54d9e5dfc2a2dbb65ec20bef473969d</title>
<path fill="none" stroke="black" d="M86.5922,-311.787C82.6377,-293.749 78.1443,-264.659 83,-240 96.3629,-172.14 94.4976,-146.271 142,-96 162.02,-74.8132 192.249,-61.1519 216.107,-53.0145"/>
<polygon fill="black" stroke="black" points="217.45,-56.2589 225.894,-49.8593 215.303,-49.5966 217.45,-56.2589"/>
<g id="a_edge33&#45;headlabel"><a xlink:href="dir_000018_000009.html" target="_top" xlink:title="8">
<text text-anchor="middle" x="214.9" y="-57.5641" font-family="FreeSans" font-size="10.00">8</text>
</a>
</g>
</g>
<!-- dir_c2f88de04d55f3b00cc7dddcabb0c3f5&#45;&gt;dir_28819bef72f6570b005694d295d15d08 -->
<g id="edge34" class="edge"><title>dir_c2f88de04d55f3b00cc7dddcabb0c3f5&#45;&gt;dir_28819bef72f6570b005694d295d15d08</title>
<path fill="none" stroke="black" d="M105.831,-311.697C113.025,-303.305 121.797,-293.07 129.69,-283.861"/>
<polygon fill="black" stroke="black" points="132.489,-285.975 136.339,-276.104 127.174,-281.419 132.489,-285.975"/>
<g id="a_edge34&#45;headlabel"><a xlink:href="dir_000018_000006.html" target="_top" xlink:title="2">
<text text-anchor="middle" x="132.305" y="-288.052" font-family="FreeSans" font-size="10.00">2</text>
</a>
</g>
</g>
<!-- dir_c2f88de04d55f3b00cc7dddcabb0c3f5&#45;&gt;dir_8bf842952c463ead18ee9fb35e4c5251 -->
<g id="edge35" class="edge"><title>dir_c2f88de04d55f3b00cc7dddcabb0c3f5&#45;&gt;dir_8bf842952c463ead18ee9fb35e4c5251</title>
<path fill="none" stroke="black" d="M88.168,-311.984C85.8325,-293.602 84.1699,-263.759 93,-240 108.116,-199.329 142.429,-162.275 167.306,-139.252"/>
<polygon fill="black" stroke="black" points="169.944,-141.586 175.015,-132.284 165.25,-136.393 169.944,-141.586"/>
<g id="a_edge35&#45;headlabel"><a xlink:href="dir_000018_000011.html" target="_top" xlink:title="4">
<text text-anchor="middle" x="169.181" y="-143.603" font-family="FreeSans" font-size="10.00">4</text>
</a>
</g>
</g>
<!-- dir_c2f88de04d55f3b00cc7dddcabb0c3f5&#45;&gt;dir_3cc50e07c07b6e5dfebd896073e0298f -->
<g id="edge36" class="edge"><title>dir_c2f88de04d55f3b00cc7dddcabb0c3f5&#45;&gt;dir_3cc50e07c07b6e5dfebd896073e0298f</title>
<path fill="none" stroke="black" d="M90.9132,-311.882C91.7536,-291.993 96.1869,-259.43 115,-240 151.094,-202.722 212.539,-191.463 251.921,-188.18"/>
<polygon fill="black" stroke="black" points="252.186,-191.67 261.916,-187.478 251.696,-184.688 252.186,-191.67"/>
<g id="a_edge36&#45;headlabel"><a xlink:href="dir_000018_000002.html" target="_top" xlink:title="1">
<text text-anchor="middle" x="248.799" y="-192.254" font-family="FreeSans" font-size="10.00">1</text>
</a>
</g>
</g>
</g>
</svg>
