<?xml version="1.0" encoding="UTF-8" standalone="no"?>
<!DOCTYPE svg PUBLIC "-//W3C//DTD SVG 1.1//EN"
 "http://www.w3.org/Graphics/SVG/1.1/DTD/svg11.dtd">
<!-- Generated by graphviz version 2.38.0 (20140413.2041)
 -->
<!-- Title: cython Pages: 1 -->
<svg width="338pt" height="367pt"
 viewBox="0.00 0.00 338.00 367.00" xmlns="http://www.w3.org/2000/svg" xmlns:xlink="http://www.w3.org/1999/xlink">
<g id="graph0" class="graph" transform="scale(1 1) rotate(0) translate(4 363)">
<title>cython</title>
<polygon fill="white" stroke="none" points="-4,4 -4,-363 334,-363 334,4 -4,4"/>
<g id="clust1" class="cluster"><title>clusterdir_6fbe91f1050ba110875dc8b0702a61ee</title>
<g id="a_clust1"><a xlink:href="dir_6fbe91f1050ba110875dc8b0702a61ee.html" target="_top" xlink:title="cantera">
<polygon fill="#ddddee" stroke="black" points="117,-280 117,-351 187,-351 187,-280 117,-280"/>
<text text-anchor="middle" x="152" y="-339" font-family="Helvetica,sans-Serif" font-size="10.00">cantera</text>
</a>
</g>
</g>
<!-- dir_5490827e5992e1ca34b709b90d1ef656 -->
<g id="node1" class="node"><title>dir_5490827e5992e1ca34b709b90d1ef656</title>
<g id="a_node1"><a xlink:href="dir_5490827e5992e1ca34b709b90d1ef656.html" target="_top" xlink:title="cython">
<polygon fill="#eeeeff" stroke="black" points="179,-324 125,-324 125,-288 179,-288 179,-324"/>
<text text-anchor="middle" x="152" y="-303.5" font-family="Helvetica,sans-Serif" font-size="10.00">cython</text>
</a>
</g>
</g>
<!-- dir_690289abfa5e09db35ec6757548a6dfc -->
<g id="node2" class="node"><title>dir_690289abfa5e09db35ec6757548a6dfc</title>
<g id="a_node2"><a xlink:href="dir_690289abfa5e09db35ec6757548a6dfc.html" target="_top" xlink:title="clib">
<polygon fill="none" stroke="black" points="54,-252 0,-252 0,-216 54,-216 54,-252"/>
<text text-anchor="middle" x="27" y="-231.5" font-family="Helvetica,sans-Serif" font-size="10.00">clib</text>
</a>
</g>
</g>
<!-- dir_5490827e5992e1ca34b709b90d1ef656&#45;&gt;dir_690289abfa5e09db35ec6757548a6dfc -->
<g id="edge4" class="edge"><title>dir_5490827e5992e1ca34b709b90d1ef656&#45;&gt;dir_690289abfa5e09db35ec6757548a6dfc</title>
<path fill="none" stroke="black" d="M124.877,-289.811C106.695,-279.629 82.5569,-266.112 62.8015,-255.049"/>
<polygon fill="black" stroke="black" points="64.5054,-251.992 54.0702,-250.159 61.0851,-258.099 64.5054,-251.992"/>
<g id="a_edge4&#45;headlabel"><a xlink:href="dir_000021_000014.html" target="_top" xlink:title="1">
<text text-anchor="middle" x="69.029" y="-248.771" font-family="Helvetica,sans-Serif" font-size="10.00">1</text>
</a>
</g>
</g>
<!-- dir_e06e40b6a3c4e04950e39aba62791861 -->
<g id="node3" class="node"><title>dir_e06e40b6a3c4e04950e39aba62791861</title>
<g id="a_node3"><a xlink:href="dir_e06e40b6a3c4e04950e39aba62791861.html" target="_top" xlink:title="transport">
<polygon fill="none" stroke="black" points="212.5,-252 157.5,-252 157.5,-216 212.5,-216 212.5,-252"/>
<text text-anchor="middle" x="185" y="-231.5" font-family="Helvetica,sans-Serif" font-size="10.00">transport</text>
</a>
</g>
</g>
<!-- dir_5490827e5992e1ca34b709b90d1ef656&#45;&gt;dir_e06e40b6a3c4e04950e39aba62791861 -->
<g id="edge5" class="edge"><title>dir_5490827e5992e1ca34b709b90d1ef656&#45;&gt;dir_e06e40b6a3c4e04950e39aba62791861</title>
<path fill="none" stroke="black" d="M160.157,-287.697C163.914,-279.728 168.453,-270.1 172.618,-261.264"/>
<polygon fill="black" stroke="black" points="175.838,-262.642 176.937,-252.104 169.506,-259.657 175.838,-262.642"/>
<g id="a_edge5&#45;headlabel"><a xlink:href="dir_000021_000020.html" target="_top" xlink:title="1">
<text text-anchor="middle" x="176.874" y="-264.604" font-family="Helvetica,sans-Serif" font-size="10.00">1</text>
</a>
</g>
</g>
<!-- dir_a54d9e5dfc2a2dbb65ec20bef473969d -->
<g id="node4" class="node"><title>dir_a54d9e5dfc2a2dbb65ec20bef473969d</title>
<g id="a_node4"><a xlink:href="dir_a54d9e5dfc2a2dbb65ec20bef473969d.html" target="_top" xlink:title="base">
<polygon fill="none" stroke="black" points="241,-36 187,-36 187,-0 241,-0 241,-36"/>
<text text-anchor="middle" x="214" y="-15.5" font-family="Helvetica,sans-Serif" font-size="10.00">base</text>
</a>
</g>
</g>
<!-- dir_5490827e5992e1ca34b709b90d1ef656&#45;&gt;dir_a54d9e5dfc2a2dbb65ec20bef473969d -->
<g id="edge6" class="edge"><title>dir_5490827e5992e1ca34b709b90d1ef656&#45;&gt;dir_a54d9e5dfc2a2dbb65ec20bef473969d</title>
<path fill="none" stroke="black" d="M147.536,-287.953C145.065,-277.63 142.248,-264.153 141,-252 132.744,-171.593 131.692,-144.711 167,-72 172.018,-61.6665 179.631,-51.818 187.278,-43.4761"/>
<polygon fill="black" stroke="black" points="189.809,-45.8936 194.236,-36.2681 184.772,-41.0318 189.809,-45.8936"/>
<g id="a_edge6&#45;headlabel"><a xlink:href="dir_000021_000007.html" target="_top" xlink:title="2">
<text text-anchor="middle" x="189.355" y="-47.9517" font-family="Helvetica,sans-Serif" font-size="10.00">2</text>
</a>
</g>
</g>
<!-- dir_28819bef72f6570b005694d295d15d08 -->
<g id="node5" class="node"><title>dir_28819bef72f6570b005694d295d15d08</title>
<g id="a_node5"><a xlink:href="dir_28819bef72f6570b005694d295d15d08.html" target="_top" xlink:title="kinetics">
<polygon fill="none" stroke="black" points="330,-252 276,-252 276,-216 330,-216 330,-252"/>
<text text-anchor="middle" x="303" y="-231.5" font-family="Helvetica,sans-Serif" font-size="10.00">kinetics</text>
</a>
</g>
</g>
<!-- dir_5490827e5992e1ca34b709b90d1ef656&#45;&gt;dir_28819bef72f6570b005694d295d15d08 -->
<g id="edge7" class="edge"><title>dir_5490827e5992e1ca34b709b90d1ef656&#45;&gt;dir_28819bef72f6570b005694d295d15d08</title>
<path fill="none" stroke="black" d="M179.345,-292.324C203.825,-280.975 239.897,-264.253 266.771,-251.795"/>
<polygon fill="black" stroke="black" points="268.258,-254.963 275.858,-247.582 265.314,-248.613 268.258,-254.963"/>
<g id="a_edge7&#45;headlabel"><a xlink:href="dir_000021_000006.html" target="_top" xlink:title="1">
<text text-anchor="middle" x="266.191" y="-256.551" font-family="Helvetica,sans-Serif" font-size="10.00">1</text>
</a>
</g>
</g>
<!-- dir_8bf842952c463ead18ee9fb35e4c5251 -->
<g id="node6" class="node"><title>dir_8bf842952c463ead18ee9fb35e4c5251</title>
<g id="a_node6"><a xlink:href="dir_8bf842952c463ead18ee9fb35e4c5251.html" target="_top" xlink:title="numerics">
<polygon fill="none" stroke="black" points="242,-108 186,-108 186,-72 242,-72 242,-108"/>
<text text-anchor="middle" x="214" y="-87.5" font-family="Helvetica,sans-Serif" font-size="10.00">numerics</text>
</a>
</g>
</g>
<!-- dir_5490827e5992e1ca34b709b90d1ef656&#45;&gt;dir_8bf842952c463ead18ee9fb35e4c5251 -->
<g id="edge8" class="edge"><title>dir_5490827e5992e1ca34b709b90d1ef656&#45;&gt;dir_8bf842952c463ead18ee9fb35e4c5251</title>
<path fill="none" stroke="black" d="M148.399,-287.986C145.216,-269.861 141.936,-240.471 148,-216 157.199,-178.874 179.661,-140.621 195.827,-116.375"/>
<polygon fill="black" stroke="black" points="198.724,-118.339 201.461,-108.103 192.938,-114.397 198.724,-118.339"/>
<g id="a_edge8&#45;headlabel"><a xlink:href="dir_000021_000009.html" target="_top" xlink:title="1">
<text text-anchor="middle" x="199.046" y="-120.408" font-family="Helvetica,sans-Serif" font-size="10.00">1</text>
</a>
</g>
</g>
<!-- dir_3cc50e07c07b6e5dfebd896073e0298f -->
<g id="node7" class="node"><title>dir_3cc50e07c07b6e5dfebd896073e0298f</title>
<g id="a_node7"><a xlink:href="dir_3cc50e07c07b6e5dfebd896073e0298f.html" target="_top" xlink:title="thermo">
<polygon fill="none" stroke="black" points="278,-180 224,-180 224,-144 278,-144 278,-180"/>
<text text-anchor="middle" x="251" y="-159.5" font-family="Helvetica,sans-Serif" font-size="10.00">thermo</text>
</a>
</g>
</g>
<!-- dir_5490827e5992e1ca34b709b90d1ef656&#45;&gt;dir_3cc50e07c07b6e5dfebd896073e0298f -->
<g id="edge9" class="edge"><title>dir_5490827e5992e1ca34b709b90d1ef656&#45;&gt;dir_3cc50e07c07b6e5dfebd896073e0298f</title>
<path fill="none" stroke="black" d="M179.089,-289.637C193.314,-280.358 210.022,-267.362 221,-252 234.217,-233.505 241.935,-208.759 246.225,-190.056"/>
<polygon fill="black" stroke="black" points="249.685,-190.606 248.319,-180.1 242.835,-189.166 249.685,-190.606"/>
<g id="a_edge9&#45;headlabel"><a xlink:href="dir_000021_000002.html" target="_top" xlink:title="1">
<text text-anchor="middle" x="251.724" y="-192.209" font-family="Helvetica,sans-Serif" font-size="10.00">1</text>
</a>
</g>
</g>
<!-- dir_e06e40b6a3c4e04950e39aba62791861&#45;&gt;dir_a54d9e5dfc2a2dbb65ec20bef473969d -->
<g id="edge1" class="edge"><title>dir_e06e40b6a3c4e04950e39aba62791861&#45;&gt;dir_a54d9e5dfc2a2dbb65ec20bef473969d</title>
<path fill="none" stroke="black" d="M180.265,-215.58C172.928,-185.492 161.214,-122.189 177,-72 180.099,-62.1483 185.751,-52.5302 191.721,-44.2511"/>
<polygon fill="black" stroke="black" points="194.629,-46.2111 197.963,-36.1544 189.086,-41.9371 194.629,-46.2111"/>
<g id="a_edge1&#45;headlabel"><a xlink:href="dir_000020_000007.html" target="_top" xlink:title="3">
<text text-anchor="middle" x="194.683" y="-48.2914" font-family="Helvetica,sans-Serif" font-size="10.00">3</text>
</a>
</g>
</g>
<!-- dir_e06e40b6a3c4e04950e39aba62791861&#45;&gt;dir_8bf842952c463ead18ee9fb35e4c5251 -->
<g id="edge2" class="edge"><title>dir_e06e40b6a3c4e04950e39aba62791861&#45;&gt;dir_8bf842952c463ead18ee9fb35e4c5251</title>
<path fill="none" stroke="black" d="M188.498,-215.871C193.462,-191.564 202.6,-146.819 208.483,-118.013"/>
<polygon fill="black" stroke="black" points="211.918,-118.687 210.49,-108.189 205.059,-117.287 211.918,-118.687"/>
<g id="a_edge2&#45;headlabel"><a xlink:href="dir_000020_000009.html" target="_top" xlink:title="6">
<text text-anchor="middle" x="213.98" y="-120.277" font-family="Helvetica,sans-Serif" font-size="10.00">6</text>
</a>
</g>
</g>
<!-- dir_e06e40b6a3c4e04950e39aba62791861&#45;&gt;dir_3cc50e07c07b6e5dfebd896073e0298f -->
<g id="edge3" class="edge"><title>dir_e06e40b6a3c4e04950e39aba62791861&#45;&gt;dir_3cc50e07c07b6e5dfebd896073e0298f</title>
<path fill="none" stroke="black" d="M201.315,-215.697C209.307,-207.22 219.072,-196.864 227.822,-187.583"/>
<polygon fill="black" stroke="black" points="230.559,-189.781 234.873,-180.104 225.466,-184.979 230.559,-189.781"/>
<g id="a_edge3&#45;headlabel"><a xlink:href="dir_000020_000002.html" target="_top" xlink:title="2">
<text text-anchor="middle" x="230.159" y="-191.844" font-family="Helvetica,sans-Serif" font-size="10.00">2</text>
</a>
</g>
</g>
<!-- dir_28819bef72f6570b005694d295d15d08&#45;&gt;dir_a54d9e5dfc2a2dbb65ec20bef473969d -->
<g id="edge10" class="edge"><title>dir_28819bef72f6570b005694d295d15d08&#45;&gt;dir_a54d9e5dfc2a2dbb65ec20bef473969d</title>
<path fill="none" stroke="black" d="M307.005,-215.965C310.57,-197.823 314.328,-168.419 308,-144 297.491,-103.443 265.5,-66.3645 241.742,-43.3058"/>
<polygon fill="black" stroke="black" points="244.027,-40.6498 234.355,-36.3252 239.219,-45.7374 244.027,-40.6498"/>
<g id="a_edge10&#45;headlabel"><a xlink:href="dir_000006_000007.html" target="_top" xlink:title="13">
<text text-anchor="middle" x="248.59" y="-38.5551" font-family="Helvetica,sans-Serif" font-size="10.00">13</text>
</a>
</g>
</g>
<!-- dir_28819bef72f6570b005694d295d15d08&#45;&gt;dir_8bf842952c463ead18ee9fb35e4c5251 -->
<g id="edge11" class="edge"><title>dir_28819bef72f6570b005694d295d15d08&#45;&gt;dir_8bf842952c463ead18ee9fb35e4c5251</title>
<path fill="none" stroke="black" d="M303.593,-215.919C303.466,-196.943 300.851,-166.075 287,-144 278.192,-129.961 264.192,-118.473 250.798,-109.825"/>
<polygon fill="black" stroke="black" points="252.506,-106.767 242.144,-104.554 248.864,-112.745 252.506,-106.767"/>
<g id="a_edge11&#45;headlabel"><a xlink:href="dir_000006_000009.html" target="_top" xlink:title="3">
<text text-anchor="middle" x="257.052" y="-103.712" font-family="Helvetica,sans-Serif" font-size="10.00">3</text>
</a>
</g>
</g>
<!-- dir_28819bef72f6570b005694d295d15d08&#45;&gt;dir_3cc50e07c07b6e5dfebd896073e0298f -->
<g id="edge12" class="edge"><title>dir_28819bef72f6570b005694d295d15d08&#45;&gt;dir_3cc50e07c07b6e5dfebd896073e0298f</title>
<path fill="none" stroke="black" d="M290.146,-215.697C283.975,-207.389 276.463,-197.277 269.676,-188.141"/>
<polygon fill="black" stroke="black" points="272.479,-186.045 263.706,-180.104 266.86,-190.219 272.479,-186.045"/>
<g id="a_edge12&#45;headlabel"><a xlink:href="dir_000006_000002.html" target="_top" xlink:title="3">
<text text-anchor="middle" x="276.902" y="-184.737" font-family="Helvetica,sans-Serif" font-size="10.00">3</text>
</a>
</g>
</g>
<!-- dir_8bf842952c463ead18ee9fb35e4c5251&#45;&gt;dir_a54d9e5dfc2a2dbb65ec20bef473969d -->
<g id="edge13" class="edge"><title>dir_8bf842952c463ead18ee9fb35e4c5251&#45;&gt;dir_a54d9e5dfc2a2dbb65ec20bef473969d</title>
<path fill="none" stroke="black" d="M214,-71.6966C214,-63.9827 214,-54.7125 214,-46.1124"/>
<polygon fill="black" stroke="black" points="217.5,-46.1043 214,-36.1043 210.5,-46.1044 217.5,-46.1043"/>
<g id="a_edge13&#45;headlabel"><a xlink:href="dir_000009_000007.html" target="_top" xlink:title="20">
<text text-anchor="middle" x="220.339" y="-47.199" font-family="Helvetica,sans-Serif" font-size="10.00">20</text>
</a>
</g>
</g>
<!-- dir_3cc50e07c07b6e5dfebd896073e0298f&#45;&gt;dir_a54d9e5dfc2a2dbb65ec20bef473969d -->
<g id="edge14" class="edge"><title>dir_3cc50e07c07b6e5dfebd896073e0298f&#45;&gt;dir_a54d9e5dfc2a2dbb65ec20bef473969d</title>
<path fill="none" stroke="black" d="M253.992,-143.809C256.49,-125.538 258.557,-96.0254 251,-72 247.901,-62.1483 242.249,-52.5302 236.279,-44.2511"/>
<polygon fill="black" stroke="black" points="238.914,-41.9371 230.037,-36.1544 233.371,-46.2111 238.914,-41.9371"/>
<g id="a_edge14&#45;headlabel"><a xlink:href="dir_000002_000007.html" target="_top" xlink:title="22">
<text text-anchor="middle" x="243.358" y="-40.5503" font-family="Helvetica,sans-Serif" font-size="10.00">22</text>
</a>
</g>
</g>
<!-- dir_3cc50e07c07b6e5dfebd896073e0298f&#45;&gt;dir_8bf842952c463ead18ee9fb35e4c5251 -->
<g id="edge15" class="edge"><title>dir_3cc50e07c07b6e5dfebd896073e0298f&#45;&gt;dir_8bf842952c463ead18ee9fb35e4c5251</title>
<path fill="none" stroke="black" d="M241.854,-143.697C237.597,-135.644 232.444,-125.894 227.734,-116.982"/>
<polygon fill="black" stroke="black" points="230.808,-115.31 223.041,-108.104 224.62,-118.581 230.808,-115.31"/>
<g id="a_edge15&#45;headlabel"><a xlink:href="dir_000002_000009.html" target="_top" xlink:title="1">
<text text-anchor="middle" x="234.998" y="-114.661" font-family="Helvetica,sans-Serif" font-size="10.00">1</text>
</a>
</g>
</g>
</g>
</svg>
