<?xml version="1.0" encoding="UTF-8" standalone="no"?>
<!DOCTYPE svg PUBLIC "-//W3C//DTD SVG 1.1//EN"
 "http://www.w3.org/Graphics/SVG/1.1/DTD/svg11.dtd">
<!-- Generated by graphviz version 2.38.0 (20151222.1943)
 -->
<!-- Title: zeroD Pages: 1 -->
<svg width="193pt" height="367pt"
 viewBox="0.00 0.00 193.41 367.00" xmlns="http://www.w3.org/2000/svg" xmlns:xlink="http://www.w3.org/1999/xlink">
<g id="graph0" class="graph" transform="scale(1 1) rotate(0) translate(4 363)">
<title>zeroD</title>
<polygon fill="white" stroke="none" points="-4,4 -4,-363 189.411,-363 189.411,4 -4,4"/>
<g id="clust1" class="cluster"><title>clusterdir_958a053200baec2a078ee38e36bca84f</title>
<g id="a_clust1"><a xlink:href="dir_958a053200baec2a078ee38e36bca84f.html" target="_top" xlink:title="cantera">
<polygon fill="#ddddee" stroke="black" points="40.4108,-280 40.4108,-351 110.411,-351 110.411,-280 40.4108,-280"/>
<text text-anchor="middle" x="75.4108" y="-339" font-family="FreeSans" font-size="10.00">cantera</text>
</a>
</g>
</g>
<!-- dir_61c02d9c21bc2915c9bea8f22e6736b7 -->
<g id="node1" class="node"><title>dir_61c02d9c21bc2915c9bea8f22e6736b7</title>
<g id="a_node1"><a xlink:href="dir_61c02d9c21bc2915c9bea8f22e6736b7.html" target="_top" xlink:title="zeroD">
<polygon fill="#eeeeff" stroke="black" points="102.411,-324 48.4108,-324 48.4108,-288 102.411,-288 102.411,-324"/>
<text text-anchor="middle" x="75.4108" y="-303.5" font-family="FreeSans" font-size="10.00">zeroD</text>
</a>
</g>
</g>
<!-- dir_0bf1783caf6b59d51a126da3c05f5e1b -->
<g id="node2" class="node"><title>dir_0bf1783caf6b59d51a126da3c05f5e1b</title>
<g id="a_node2"><a xlink:href="dir_0bf1783caf6b59d51a126da3c05f5e1b.html" target="_top" xlink:title="numerics">
<polygon fill="none" stroke="black" points="120.411,-108 64.4108,-108 64.4108,-72 120.411,-72 120.411,-108"/>
<text text-anchor="middle" x="92.4108" y="-87.5" font-family="FreeSans" font-size="10.00">numerics</text>
</a>
</g>
</g>
<!-- dir_61c02d9c21bc2915c9bea8f22e6736b7&#45;&gt;dir_0bf1783caf6b59d51a126da3c05f5e1b -->
<g id="edge2" class="edge"><title>dir_61c02d9c21bc2915c9bea8f22e6736b7&#45;&gt;dir_0bf1783caf6b59d51a126da3c05f5e1b</title>
<path fill="none" stroke="black" d="M78.8467,-287.886C80.7915,-277.54 83.0918,-264.061 84.4108,-252 89.5,-205.463 91.3541,-151.002 92.028,-118.841"/>
<polygon fill="black" stroke="black" points="95.5346,-118.509 92.2205,-108.446 88.5358,-118.379 95.5346,-118.509"/>
<g id="a_edge2&#45;headlabel"><a xlink:href="dir_000016_000009.html" target="_top" xlink:title="4">
<text text-anchor="middle" x="98.307" y="-119.655" font-family="FreeSans" font-size="10.00">4</text>
</a>
</g>
</g>
<!-- dir_c53bff57929a2302105943cf35b48ed4 -->
<g id="node3" class="node"><title>dir_c53bff57929a2302105943cf35b48ed4</title>
<g id="a_node3"><a xlink:href="dir_c53bff57929a2302105943cf35b48ed4.html" target="_top" xlink:title="kinetics">
<polygon fill="none" stroke="black" points="75.4108,-252 21.4108,-252 21.4108,-216 75.4108,-216 75.4108,-252"/>
<text text-anchor="middle" x="48.4108" y="-231.5" font-family="FreeSans" font-size="10.00">kinetics</text>
</a>
</g>
</g>
<!-- dir_61c02d9c21bc2915c9bea8f22e6736b7&#45;&gt;dir_c53bff57929a2302105943cf35b48ed4 -->
<g id="edge3" class="edge"><title>dir_61c02d9c21bc2915c9bea8f22e6736b7&#45;&gt;dir_c53bff57929a2302105943cf35b48ed4</title>
<path fill="none" stroke="black" d="M68.7366,-287.697C65.6959,-279.813 62.0281,-270.304 58.6501,-261.546"/>
<polygon fill="black" stroke="black" points="61.8725,-260.175 55.0082,-252.104 55.3414,-262.694 61.8725,-260.175"/>
<g id="a_edge3&#45;headlabel"><a xlink:href="dir_000016_000006.html" target="_top" xlink:title="1">
<text text-anchor="middle" x="65.815" y="-260.007" font-family="FreeSans" font-size="10.00">1</text>
</a>
</g>
</g>
<!-- dir_df8bbd95cfa6ce53c3ced1e4816254cf -->
<g id="node4" class="node"><title>dir_df8bbd95cfa6ce53c3ced1e4816254cf</title>
<g id="a_node4"><a xlink:href="dir_df8bbd95cfa6ce53c3ced1e4816254cf.html" target="_top" xlink:title="base">
<polygon fill="none" stroke="black" points="86.4108,-36 32.4108,-36 32.4108,-0 86.4108,-0 86.4108,-36"/>
<text text-anchor="middle" x="59.4108" y="-15.5" font-family="FreeSans" font-size="10.00">base</text>
</a>
</g>
</g>
<!-- dir_61c02d9c21bc2915c9bea8f22e6736b7&#45;&gt;dir_df8bbd95cfa6ce53c3ced1e4816254cf -->
<g id="edge4" class="edge"><title>dir_61c02d9c21bc2915c9bea8f22e6736b7&#45;&gt;dir_df8bbd95cfa6ce53c3ced1e4816254cf</title>
<path fill="none" stroke="black" d="M48.4008,-290.074C34.9056,-281.005 19.8908,-268.068 12.4108,-252 -20.2025,-181.944 20.0446,-89.707 44.01,-45.2235"/>
<polygon fill="black" stroke="black" points="47.2071,-46.6747 48.9873,-36.2305 41.0825,-43.285 47.2071,-46.6747"/>
<g id="a_edge4&#45;headlabel"><a xlink:href="dir_000016_000007.html" target="_top" xlink:title="6">
<text text-anchor="middle" x="47.9507" y="-48.6946" font-family="FreeSans" font-size="10.00">6</text>
</a>
</g>
</g>
<!-- dir_c352ff4fbcee11f66db9e319dd9b7eb3 -->
<g id="node5" class="node"><title>dir_c352ff4fbcee11f66db9e319dd9b7eb3</title>
<g id="a_node5"><a xlink:href="dir_c352ff4fbcee11f66db9e319dd9b7eb3.html" target="_top" xlink:title="thermo">
<polygon fill="none" stroke="black" points="185.411,-180 131.411,-180 131.411,-144 185.411,-144 185.411,-180"/>
<text text-anchor="middle" x="158.411" y="-159.5" font-family="FreeSans" font-size="10.00">thermo</text>
</a>
</g>
</g>
<!-- dir_61c02d9c21bc2915c9bea8f22e6736b7&#45;&gt;dir_c352ff4fbcee11f66db9e319dd9b7eb3 -->
<g id="edge5" class="edge"><title>dir_61c02d9c21bc2915c9bea8f22e6736b7&#45;&gt;dir_c352ff4fbcee11f66db9e319dd9b7eb3</title>
<path fill="none" stroke="black" d="M90.9124,-287.63C99.3719,-277.64 109.667,-264.604 117.411,-252 129.733,-231.942 140.713,-207.565 148.202,-189.398"/>
<polygon fill="black" stroke="black" points="151.494,-190.594 151.99,-180.011 145.002,-187.975 151.494,-190.594"/>
<g id="a_edge5&#45;headlabel"><a xlink:href="dir_000016_000002.html" target="_top" xlink:title="1">
<text text-anchor="middle" x="152.782" y="-192.49" font-family="FreeSans" font-size="10.00">1</text>
</a>
</g>
</g>
<!-- dir_0bf1783caf6b59d51a126da3c05f5e1b&#45;&gt;dir_df8bbd95cfa6ce53c3ced1e4816254cf -->
<g id="edge1" class="edge"><title>dir_0bf1783caf6b59d51a126da3c05f5e1b&#45;&gt;dir_df8bbd95cfa6ce53c3ced1e4816254cf</title>
<path fill="none" stroke="black" d="M84.2535,-71.6966C80.497,-63.7284 75.9577,-54.0995 71.7924,-45.2641"/>
<polygon fill="black" stroke="black" points="74.9043,-43.6571 67.4742,-36.1043 68.5727,-46.6421 74.9043,-43.6571"/>
<g id="a_edge1&#45;headlabel"><a xlink:href="dir_000009_000007.html" target="_top" xlink:title="18">
<text text-anchor="middle" x="79.0053" y="-43.1978" font-family="FreeSans" font-size="10.00">18</text>
</a>
</g>
</g>
<!-- dir_c53bff57929a2302105943cf35b48ed4&#45;&gt;dir_0bf1783caf6b59d51a126da3c05f5e1b -->
<g id="edge6" class="edge"><title>dir_c53bff57929a2302105943cf35b48ed4&#45;&gt;dir_0bf1783caf6b59d51a126da3c05f5e1b</title>
<path fill="none" stroke="black" d="M53.7182,-215.871C61.2502,-191.564 75.1148,-146.819 84.0405,-118.013"/>
<polygon fill="black" stroke="black" points="87.4679,-118.777 87.0845,-108.189 80.7815,-116.705 87.4679,-118.777"/>
<g id="a_edge6&#45;headlabel"><a xlink:href="dir_000006_000009.html" target="_top" xlink:title="3">
<text text-anchor="middle" x="89.1161" y="-120.551" font-family="FreeSans" font-size="10.00">3</text>
</a>
</g>
</g>
<!-- dir_c53bff57929a2302105943cf35b48ed4&#45;&gt;dir_df8bbd95cfa6ce53c3ced1e4816254cf -->
<g id="edge7" class="edge"><title>dir_c53bff57929a2302105943cf35b48ed4&#45;&gt;dir_df8bbd95cfa6ce53c3ced1e4816254cf</title>
<path fill="none" stroke="black" d="M48.9854,-215.599C50.0017,-186.06 52.3054,-124.226 55.4108,-72 55.9058,-63.6739 56.55,-54.6199 57.1762,-46.39"/>
<polygon fill="black" stroke="black" points="60.6846,-46.4189 57.9751,-36.1764 53.7059,-45.873 60.6846,-46.4189"/>
<g id="a_edge7&#45;headlabel"><a xlink:href="dir_000006_000007.html" target="_top" xlink:title="13">
<text text-anchor="middle" x="63.235" y="-47.724" font-family="FreeSans" font-size="10.00">13</text>
</a>
</g>
</g>
<!-- dir_c53bff57929a2302105943cf35b48ed4&#45;&gt;dir_c352ff4fbcee11f66db9e319dd9b7eb3 -->
<g id="edge8" class="edge"><title>dir_c53bff57929a2302105943cf35b48ed4&#45;&gt;dir_c352ff4fbcee11f66db9e319dd9b7eb3</title>
<path fill="none" stroke="black" d="M75.3198,-215.876C89.5691,-206.808 107.257,-195.552 122.646,-185.759"/>
<polygon fill="black" stroke="black" points="124.841,-188.511 131.398,-180.19 121.083,-182.606 124.841,-188.511"/>
<g id="a_edge8&#45;headlabel"><a xlink:href="dir_000006_000002.html" target="_top" xlink:title="3">
<text text-anchor="middle" x="123.332" y="-190.337" font-family="FreeSans" font-size="10.00">3</text>
</a>
</g>
</g>
<!-- dir_c352ff4fbcee11f66db9e319dd9b7eb3&#45;&gt;dir_0bf1783caf6b59d51a126da3c05f5e1b -->
<g id="edge9" class="edge"><title>dir_c352ff4fbcee11f66db9e319dd9b7eb3&#45;&gt;dir_0bf1783caf6b59d51a126da3c05f5e1b</title>
<path fill="none" stroke="black" d="M142.096,-143.697C134.104,-135.22 124.339,-124.864 115.589,-115.583"/>
<polygon fill="black" stroke="black" points="117.944,-112.979 108.538,-108.104 112.851,-117.781 117.944,-112.979"/>
<g id="a_edge9&#45;headlabel"><a xlink:href="dir_000002_000009.html" target="_top" xlink:title="1">
<text text-anchor="middle" x="122.476" y="-111.147" font-family="FreeSans" font-size="10.00">1</text>
</a>
</g>
</g>
<!-- dir_c352ff4fbcee11f66db9e319dd9b7eb3&#45;&gt;dir_df8bbd95cfa6ce53c3ced1e4816254cf -->
<g id="edge10" class="edge"><title>dir_c352ff4fbcee11f66db9e319dd9b7eb3&#45;&gt;dir_df8bbd95cfa6ce53c3ced1e4816254cf</title>
<path fill="none" stroke="black" d="M155.981,-143.882C152.608,-124.872 145.06,-93.9734 129.411,-72 120.358,-59.289 107.351,-48.2684 95.0004,-39.6191"/>
<polygon fill="black" stroke="black" points="96.8716,-36.66 86.6114,-34.0182 92.9848,-42.4818 96.8716,-36.66"/>
<g id="a_edge10&#45;headlabel"><a xlink:href="dir_000002_000007.html" target="_top" xlink:title="20">
<text text-anchor="middle" x="101.438" y="-33.7946" font-family="FreeSans" font-size="10.00">20</text>
</a>
</g>
</g>
</g>
</svg>
