<?xml version="1.0" encoding="UTF-8" standalone="no"?>
<!DOCTYPE svg PUBLIC "-//W3C//DTD SVG 1.1//EN"
 "http://www.w3.org/Graphics/SVG/1.1/DTD/svg11.dtd">
<!-- Generated by graphviz version 2.40.1 (20161225.0304)
 -->
<!-- Title: Domain1D.h Pages: 1 -->
<svg width="899pt" height="247pt"
 viewBox="0.00 0.00 899.25 247.00" xmlns="http://www.w3.org/2000/svg" xmlns:xlink="http://www.w3.org/1999/xlink">
<g id="graph0" class="graph" transform="scale(1 1) rotate(0) translate(4 243)">
<title>Domain1D.h</title>
<polygon fill="#ffffff" stroke="transparent" points="-4,4 -4,-243 895.2461,-243 895.2461,4 -4,4"/>
<!-- Node18 -->
<g id="node1" class="node">
<title>Node18</title>
<polygon fill="#bfbfbf" stroke="#000000" points="400.9976,-220.5 400.9976,-238.5 472.5786,-238.5 472.5786,-220.5 400.9976,-220.5"/>
<text text-anchor="middle" x="436.7881" y="-226.5" font-family="Helvetica,sans-Serif" font-size="10.00" fill="#000000">Domain1D.h</text>
</g>
<!-- Node19 -->
<g id="node2" class="node">
<title>Node19</title>
<g id="a_node2"><a xlink:href="Domain1D_8cpp.html" target="_top" xlink:title="Domain1D.cpp">
<polygon fill="#ffffff" stroke="#000000" points="28.7168,-55.5 28.7168,-73.5 110.8594,-73.5 110.8594,-55.5 28.7168,-55.5"/>
<text text-anchor="middle" x="69.7881" y="-61.5" font-family="Helvetica,sans-Serif" font-size="10.00" fill="#000000">Domain1D.cpp</text>
</a>
</g>
</g>
<!-- Node18&#45;&gt;Node19 -->
<g id="edge1" class="edge">
<title>Node18&#45;&gt;Node19</title>
<path fill="none" stroke="#191970" d="M390.7426,-224.091C349.5441,-218.0627 288.2061,-206.1088 238.7881,-184 171.8735,-154.0635 104.2874,-95.9546 79.5914,-73.5831"/>
<polygon fill="#191970" stroke="#191970" points="390.3737,-227.5735 400.7634,-225.4985 391.3475,-220.6415 390.3737,-227.5735"/>
</g>
<!-- Node20 -->
<g id="node3" class="node">
<title>Node20</title>
<g id="a_node3"><a xlink:href="Inlet1D_8h.html" target="_top" xlink:title="Boundary objects for one&#45;dimensional simulations. ">
<polygon fill="#ffffff" stroke="#000000" points="408.7759,-110.5 408.7759,-128.5 464.8003,-128.5 464.8003,-110.5 408.7759,-110.5"/>
<text text-anchor="middle" x="436.7881" y="-116.5" font-family="Helvetica,sans-Serif" font-size="10.00" fill="#000000">Inlet1D.h</text>
</a>
</g>
</g>
<!-- Node18&#45;&gt;Node20 -->
<g id="edge2" class="edge">
<title>Node18&#45;&gt;Node20</title>
<path fill="none" stroke="#191970" d="M436.7881,-210.1899C436.7881,-186.2569 436.7881,-146.4552 436.7881,-128.6261"/>
<polygon fill="#191970" stroke="#191970" points="433.2882,-210.4982 436.7881,-220.4982 440.2882,-210.4983 433.2882,-210.4982"/>
</g>
<!-- Node22 -->
<g id="node5" class="node">
<title>Node22</title>
<g id="a_node5"><a xlink:href="onedim_8h.html" target="_top" xlink:title="onedim.h">
<polygon fill="#ffffff" stroke="#000000" points="507.2192,-55.5 507.2192,-73.5 564.3569,-73.5 564.3569,-55.5 507.2192,-55.5"/>
<text text-anchor="middle" x="535.7881" y="-61.5" font-family="Helvetica,sans-Serif" font-size="10.00" fill="#000000">onedim.h</text>
</a>
</g>
</g>
<!-- Node18&#45;&gt;Node22 -->
<g id="edge30" class="edge">
<title>Node18&#45;&gt;Node22</title>
<path fill="none" stroke="#191970" d="M447.6315,-211.4276C468.6791,-176.3482 514.3926,-100.1592 530.2432,-73.7414"/>
<polygon fill="#191970" stroke="#191970" points="444.5382,-209.7804 442.3944,-220.1561 450.5406,-213.3819 444.5382,-209.7804"/>
</g>
<!-- Node23 -->
<g id="node6" class="node">
<title>Node23</title>
<g id="a_node6"><a xlink:href="StFlow_8h.html" target="_top" xlink:title="StFlow.h">
<polygon fill="#ffffff" stroke="#000000" points="579.6108,-165.5 579.6108,-183.5 633.9653,-183.5 633.9653,-165.5 579.6108,-165.5"/>
<text text-anchor="middle" x="606.7881" y="-171.5" font-family="Helvetica,sans-Serif" font-size="10.00" fill="#000000">StFlow.h</text>
</a>
</g>
</g>
<!-- Node18&#45;&gt;Node23 -->
<g id="edge5" class="edge">
<title>Node18&#45;&gt;Node23</title>
<path fill="none" stroke="#191970" d="M474.6963,-217.2356C506.496,-206.9474 551.1441,-192.5025 579.5189,-183.3224"/>
<polygon fill="#191970" stroke="#191970" points="473.2972,-214.0095 464.8601,-220.4179 475.452,-220.6697 473.2972,-214.0095"/>
</g>
<!-- Node29 -->
<g id="node12" class="node">
<title>Node29</title>
<g id="a_node12"><a xlink:href="OneDim_8h.html" target="_top" xlink:title="OneDim.h">
<polygon fill="#ffffff" stroke="#000000" points="248.2808,-165.5 248.2808,-183.5 309.2954,-183.5 309.2954,-165.5 248.2808,-165.5"/>
<text text-anchor="middle" x="278.7881" y="-171.5" font-family="Helvetica,sans-Serif" font-size="10.00" fill="#000000">OneDim.h</text>
</a>
</g>
</g>
<!-- Node18&#45;&gt;Node29 -->
<g id="edge15" class="edge">
<title>Node18&#45;&gt;Node29</title>
<path fill="none" stroke="#191970" d="M401.2306,-217.1224C371.8921,-206.9096 330.9524,-192.6584 304.6547,-183.5042"/>
<polygon fill="#191970" stroke="#191970" points="400.1028,-220.4357 410.6976,-220.4179 402.4041,-213.8248 400.1028,-220.4357"/>
</g>
<!-- Node21 -->
<g id="node4" class="node">
<title>Node21</title>
<g id="a_node4"><a xlink:href="boundaries1D_8cpp.html" target="_top" xlink:title="boundaries1D.cpp">
<polygon fill="#ffffff" stroke="#000000" points="392.2046,-55.5 392.2046,-73.5 489.3716,-73.5 489.3716,-55.5 392.2046,-55.5"/>
<text text-anchor="middle" x="440.7881" y="-61.5" font-family="Helvetica,sans-Serif" font-size="10.00" fill="#000000">boundaries1D.cpp</text>
</a>
</g>
</g>
<!-- Node20&#45;&gt;Node21 -->
<g id="edge3" class="edge">
<title>Node20&#45;&gt;Node21</title>
<path fill="none" stroke="#191970" d="M438.1784,-100.383C438.8336,-91.3738 439.5854,-81.0373 440.1132,-73.7795"/>
<polygon fill="#191970" stroke="#191970" points="434.6833,-100.1903 437.4486,-110.4179 441.6648,-100.6981 434.6833,-100.1903"/>
</g>
<!-- Node20&#45;&gt;Node22 -->
<g id="edge4" class="edge">
<title>Node20&#45;&gt;Node22</title>
<path fill="none" stroke="#191970" d="M461.9739,-105.5079C480.0143,-95.4854 503.7872,-82.2783 519.416,-73.5956"/>
<polygon fill="#191970" stroke="#191970" points="460.1777,-102.5018 453.1359,-110.4179 463.5773,-108.6209 460.1777,-102.5018"/>
</g>
<!-- Node23&#45;&gt;Node20 -->
<g id="edge11" class="edge">
<title>Node23&#45;&gt;Node20</title>
<path fill="none" stroke="#191970" d="M569.7294,-162.5104C538.1839,-152.3045 493.5482,-137.8636 464.8825,-128.5894"/>
<polygon fill="#191970" stroke="#191970" points="568.8828,-165.9151 579.4746,-165.6633 571.0376,-159.255 568.8828,-165.9151"/>
</g>
<!-- Node23&#45;&gt;Node21 -->
<g id="edge6" class="edge">
<title>Node23&#45;&gt;Node21</title>
<path fill="none" stroke="#191970" d="M584.6828,-159.8519C549.875,-136.7865 483.3004,-92.6708 454.5603,-73.6261"/>
<polygon fill="#191970" stroke="#191970" points="582.9343,-162.892 593.2036,-165.4982 586.801,-157.0568 582.9343,-162.892"/>
</g>
<!-- Node23&#45;&gt;Node22 -->
<g id="edge14" class="edge">
<title>Node23&#45;&gt;Node22</title>
<path fill="none" stroke="#191970" d="M595.3614,-156.7966C580.0517,-133.0774 553.448,-91.8604 541.6786,-73.6261"/>
<polygon fill="#191970" stroke="#191970" points="592.6142,-158.9944 600.9779,-165.4982 598.4955,-155.1983 592.6142,-158.9944"/>
</g>
<!-- Node24 -->
<g id="node7" class="node">
<title>Node24</title>
<g id="a_node7"><a xlink:href="IonFlow_8cpp.html" target="_top" xlink:title="IonFlow.cpp">
<polygon fill="#ffffff" stroke="#000000" points="651.1035,-55.5 651.1035,-73.5 720.4727,-73.5 720.4727,-55.5 651.1035,-55.5"/>
<text text-anchor="middle" x="685.7881" y="-61.5" font-family="Helvetica,sans-Serif" font-size="10.00" fill="#000000">IonFlow.cpp</text>
</a>
</g>
</g>
<!-- Node23&#45;&gt;Node24 -->
<g id="edge7" class="edge">
<title>Node23&#45;&gt;Node24</title>
<path fill="none" stroke="#191970" d="M619.2759,-157.1118C636.2736,-133.4442 666.0802,-91.9414 679.2339,-73.6261"/>
<polygon fill="#191970" stroke="#191970" points="616.2435,-155.3342 613.253,-165.4982 621.9292,-159.4176 616.2435,-155.3342"/>
</g>
<!-- Node25 -->
<g id="node8" class="node">
<title>Node25</title>
<g id="a_node8"><a xlink:href="refine_8cpp.html" target="_top" xlink:title="refine.cpp">
<polygon fill="#ffffff" stroke="#000000" points="748.8301,-110.5 748.8301,-128.5 808.7461,-128.5 808.7461,-110.5 748.8301,-110.5"/>
<text text-anchor="middle" x="778.7881" y="-116.5" font-family="Helvetica,sans-Serif" font-size="10.00" fill="#000000">refine.cpp</text>
</a>
</g>
</g>
<!-- Node23&#45;&gt;Node25 -->
<g id="edge8" class="edge">
<title>Node23&#45;&gt;Node25</title>
<path fill="none" stroke="#191970" d="M643.9169,-162.6274C675.9103,-152.397 721.4106,-137.8474 750.5182,-128.5398"/>
<polygon fill="#191970" stroke="#191970" points="642.5009,-159.4056 634.042,-165.7851 644.6329,-166.073 642.5009,-159.4056"/>
</g>
<!-- Node26 -->
<g id="node9" class="node">
<title>Node26</title>
<g id="a_node9"><a xlink:href="Sim1D_8cpp.html" target="_top" xlink:title="Sim1D.cpp">
<polygon fill="#ffffff" stroke="#000000" points="312.335,-.5 312.335,-18.5 377.2412,-18.5 377.2412,-.5 312.335,-.5"/>
<text text-anchor="middle" x="344.7881" y="-6.5" font-family="Helvetica,sans-Serif" font-size="10.00" fill="#000000">Sim1D.cpp</text>
</a>
</g>
</g>
<!-- Node23&#45;&gt;Node26 -->
<g id="edge9" class="edge">
<title>Node23&#45;&gt;Node26</title>
<path fill="none" stroke="#191970" d="M607.2781,-155.1091C606.8273,-128.5067 601.8057,-81.0357 573.7881,-55 545.654,-28.8561 433.6917,-16.4859 377.4222,-11.8233"/>
<polygon fill="#191970" stroke="#191970" points="603.7771,-155.3973 607.2377,-165.411 610.777,-155.4248 603.7771,-155.3973"/>
</g>
<!-- Node27 -->
<g id="node10" class="node">
<title>Node27</title>
<g id="a_node10"><a xlink:href="StFlow_8cpp.html" target="_top" xlink:title="StFlow.cpp">
<polygon fill="#ffffff" stroke="#000000" points="826.3301,-110.5 826.3301,-128.5 891.2461,-128.5 891.2461,-110.5 826.3301,-110.5"/>
<text text-anchor="middle" x="858.7881" y="-116.5" font-family="Helvetica,sans-Serif" font-size="10.00" fill="#000000">StFlow.cpp</text>
</a>
</g>
</g>
<!-- Node23&#45;&gt;Node27 -->
<g id="edge10" class="edge">
<title>Node23&#45;&gt;Node27</title>
<path fill="none" stroke="#191970" d="M643.9582,-166.6643C686.1379,-157.7309 756.9754,-142.6013 817.7881,-129 820.4977,-128.394 823.3062,-127.7585 826.1247,-127.1158"/>
<polygon fill="#191970" stroke="#191970" points="643.1899,-163.2493 634.1309,-168.7434 644.6388,-170.0977 643.1899,-163.2493"/>
</g>
<!-- Node28 -->
<g id="node11" class="node">
<title>Node28</title>
<g id="a_node11"><a xlink:href="IonFlow_8h.html" target="_top" xlink:title="IonFlow.h">
<polygon fill="#ffffff" stroke="#000000" points="672.3843,-110.5 672.3843,-128.5 731.1919,-128.5 731.1919,-110.5 672.3843,-110.5"/>
<text text-anchor="middle" x="701.7881" y="-116.5" font-family="Helvetica,sans-Serif" font-size="10.00" fill="#000000">IonFlow.h</text>
</a>
</g>
</g>
<!-- Node23&#45;&gt;Node28 -->
<g id="edge12" class="edge">
<title>Node23&#45;&gt;Node28</title>
<path fill="none" stroke="#191970" d="M631.4341,-160.2313C648.6857,-150.2435 671.2178,-137.1986 686.0775,-128.5956"/>
<polygon fill="#191970" stroke="#191970" points="629.376,-157.3785 622.4754,-165.4179 632.8833,-163.4365 629.376,-157.3785"/>
</g>
<!-- Node28&#45;&gt;Node24 -->
<g id="edge13" class="edge">
<title>Node28&#45;&gt;Node24</title>
<path fill="none" stroke="#191970" d="M696.313,-100.6796C693.6721,-91.6014 690.6222,-81.1171 688.4876,-73.7795"/>
<polygon fill="#191970" stroke="#191970" points="692.992,-101.7936 699.146,-110.4179 699.7133,-99.8382 692.992,-101.7936"/>
</g>
<!-- Node29&#45;&gt;Node21 -->
<g id="edge16" class="edge">
<title>Node29&#45;&gt;Node21</title>
<path fill="none" stroke="#191970" d="M288.7812,-156.4535C297.4751,-142.1796 311.2579,-122.6174 327.7881,-110 350.7352,-92.4845 381.3379,-80.7118 404.9082,-73.5374"/>
<polygon fill="#191970" stroke="#191970" points="285.6137,-154.9377 283.6041,-165.3402 291.6621,-158.4613 285.6137,-154.9377"/>
</g>
<!-- Node30 -->
<g id="node13" class="node">
<title>Node30</title>
<g id="a_node13"><a xlink:href="OneDim_8cpp.html" target="_top" xlink:title="OneDim.cpp">
<polygon fill="#ffffff" stroke="#000000" points="0,-.5 0,-18.5 71.5762,-18.5 71.5762,-.5 0,-.5"/>
<text text-anchor="middle" x="35.7881" y="-6.5" font-family="Helvetica,sans-Serif" font-size="10.00" fill="#000000">OneDim.cpp</text>
</a>
</g>
</g>
<!-- Node29&#45;&gt;Node30 -->
<g id="edge17" class="edge">
<title>Node29&#45;&gt;Node30</title>
<path fill="none" stroke="#191970" d="M238.0321,-164.6415C171.7142,-147.6831 45.2632,-111.2109 19.7881,-74 8.0565,-56.8639 20.7326,-31.9377 29.293,-18.6479"/>
<polygon fill="#191970" stroke="#191970" points="237.5821,-168.1377 248.1348,-167.1928 239.2961,-161.3508 237.5821,-168.1377"/>
</g>
<!-- Node31 -->
<g id="node14" class="node">
<title>Node31</title>
<g id="a_node14"><a xlink:href="MultiJac_8h.html" target="_top" xlink:title="MultiJac.h">
<polygon fill="#ffffff" stroke="#000000" points="219.2808,-110.5 219.2808,-128.5 280.2954,-128.5 280.2954,-110.5 219.2808,-110.5"/>
<text text-anchor="middle" x="249.7881" y="-116.5" font-family="Helvetica,sans-Serif" font-size="10.00" fill="#000000">MultiJac.h</text>
</a>
</g>
</g>
<!-- Node29&#45;&gt;Node31 -->
<g id="edge18" class="edge">
<title>Node29&#45;&gt;Node31</title>
<path fill="none" stroke="#191970" d="M263.1356,-156.8553C257.421,-147.519 251.958,-136.4361 249.4741,-128.7795"/>
<polygon fill="#191970" stroke="#191970" points="260.3794,-159.0313 268.833,-165.4179 266.2072,-155.1536 260.3794,-159.0313"/>
</g>
<!-- Node35 -->
<g id="node18" class="node">
<title>Node35</title>
<g id="a_node18"><a xlink:href="Sim1D_8h.html" target="_top" xlink:title="Sim1D.h">
<polygon fill="#ffffff" stroke="#000000" points="336.6157,-110.5 336.6157,-128.5 390.9604,-128.5 390.9604,-110.5 336.6157,-110.5"/>
<text text-anchor="middle" x="363.7881" y="-116.5" font-family="Helvetica,sans-Serif" font-size="10.00" fill="#000000">Sim1D.h</text>
</a>
</g>
</g>
<!-- Node29&#45;&gt;Node35 -->
<g id="edge27" class="edge">
<title>Node29&#45;&gt;Node35</title>
<path fill="none" stroke="#191970" d="M301.2698,-159.953C316.6482,-150.0023 336.5588,-137.1189 349.7312,-128.5956"/>
<polygon fill="#191970" stroke="#191970" points="299.3184,-157.0468 292.8241,-165.4179 303.1212,-162.9238 299.3184,-157.0468"/>
</g>
<!-- Node31&#45;&gt;Node19 -->
<g id="edge19" class="edge">
<title>Node31&#45;&gt;Node19</title>
<path fill="none" stroke="#191970" d="M210.1485,-107.3879C176.6683,-97.1578 129.4763,-82.7381 99.2564,-73.5042"/>
<polygon fill="#191970" stroke="#191970" points="209.4784,-110.8428 220.0647,-110.4179 211.524,-104.1484 209.4784,-110.8428"/>
</g>
<!-- Node31&#45;&gt;Node26 -->
<g id="edge21" class="edge">
<title>Node31&#45;&gt;Node26</title>
<path fill="none" stroke="#191970" d="M272.5418,-104.3234C283.6959,-96.1792 296.8343,-85.4696 306.7881,-74 322.1216,-56.3316 334.679,-31.6215 340.7835,-18.5072"/>
<polygon fill="#191970" stroke="#191970" points="270.2701,-101.6428 264.1206,-110.2703 274.3081,-107.3608 270.2701,-101.6428"/>
</g>
<!-- Node31&#45;&gt;Node29 -->
<g id="edge22" class="edge">
<title>Node31&#45;&gt;Node29</title>
<path fill="none" stroke="#191970" d="M265.5884,-137.3866C271.2985,-146.7527 276.7334,-157.8207 279.1656,-165.4179"/>
<polygon fill="#191970" stroke="#191970" points="268.3276,-135.1839 259.8877,-128.7795 262.4916,-139.0493 268.3276,-135.1839"/>
</g>
<!-- Node32 -->
<g id="node15" class="node">
<title>Node32</title>
<g id="a_node15"><a xlink:href="MultiJac_8cpp.html" target="_top" xlink:title="Implementation file for class MultiJac. ">
<polygon fill="#ffffff" stroke="#000000" points="226,-55.5 226,-73.5 297.5762,-73.5 297.5762,-55.5 226,-55.5"/>
<text text-anchor="middle" x="261.7881" y="-61.5" font-family="Helvetica,sans-Serif" font-size="10.00" fill="#000000">MultiJac.cpp</text>
</a>
</g>
</g>
<!-- Node31&#45;&gt;Node32 -->
<g id="edge20" class="edge">
<title>Node31&#45;&gt;Node32</title>
<path fill="none" stroke="#191970" d="M253.9591,-100.383C255.9247,-91.3738 258.1799,-81.0373 259.7635,-73.7795"/>
<polygon fill="#191970" stroke="#191970" points="250.4818,-99.9016 251.7696,-110.4179 257.3209,-101.3938 250.4818,-99.9016"/>
</g>
<!-- Node33 -->
<g id="node16" class="node">
<title>Node33</title>
<g id="a_node16"><a xlink:href="MultiNewton_8h.html" target="_top" xlink:title="MultiNewton.h">
<polygon fill="#ffffff" stroke="#000000" points="129.1084,-55.5 129.1084,-73.5 208.4678,-73.5 208.4678,-55.5 129.1084,-55.5"/>
<text text-anchor="middle" x="168.7881" y="-61.5" font-family="Helvetica,sans-Serif" font-size="10.00" fill="#000000">MultiNewton.h</text>
</a>
</g>
</g>
<!-- Node31&#45;&gt;Node33 -->
<g id="edge23" class="edge">
<title>Node31&#45;&gt;Node33</title>
<path fill="none" stroke="#191970" d="M227.9524,-104.6733C213.3556,-94.7619 194.6187,-82.0393 182.1835,-73.5956"/>
<polygon fill="#191970" stroke="#191970" points="226.1734,-107.6959 236.4126,-110.4179 230.1056,-101.9047 226.1734,-107.6959"/>
</g>
<!-- Node33&#45;&gt;Node26 -->
<g id="edge26" class="edge">
<title>Node33&#45;&gt;Node26</title>
<path fill="none" stroke="#191970" d="M207.5468,-52.3879C240.283,-42.1578 286.4263,-27.7381 315.9746,-18.5042"/>
<polygon fill="#191970" stroke="#191970" points="206.3517,-49.0944 197.8509,-55.4179 208.4397,-55.7757 206.3517,-49.0944"/>
</g>
<!-- Node33&#45;&gt;Node30 -->
<g id="edge25" class="edge">
<title>Node33&#45;&gt;Node30</title>
<path fill="none" stroke="#191970" d="M137.2629,-51.4633C112.7788,-41.3383 79.4533,-27.5571 57.783,-18.5956"/>
<polygon fill="#191970" stroke="#191970" points="136.2473,-54.8307 146.8258,-55.4179 138.9224,-48.362 136.2473,-54.8307"/>
</g>
<!-- Node34 -->
<g id="node17" class="node">
<title>Node34</title>
<g id="a_node17"><a xlink:href="MultiNewton_8cpp.html" target="_top" xlink:title="Damped Newton solver for 1D multi&#45;domain problems. ">
<polygon fill="#ffffff" stroke="#000000" points="123.8276,-.5 123.8276,-18.5 213.7485,-18.5 213.7485,-.5 123.8276,-.5"/>
<text text-anchor="middle" x="168.7881" y="-6.5" font-family="Helvetica,sans-Serif" font-size="10.00" fill="#000000">MultiNewton.cpp</text>
</a>
</g>
</g>
<!-- Node33&#45;&gt;Node34 -->
<g id="edge24" class="edge">
<title>Node33&#45;&gt;Node34</title>
<path fill="none" stroke="#191970" d="M168.7881,-45.383C168.7881,-36.3738 168.7881,-26.0373 168.7881,-18.7795"/>
<polygon fill="#191970" stroke="#191970" points="165.2882,-45.4178 168.7881,-55.4179 172.2882,-45.4179 165.2882,-45.4178"/>
</g>
<!-- Node35&#45;&gt;Node22 -->
<g id="edge29" class="edge">
<title>Node35&#45;&gt;Node22</title>
<path fill="none" stroke="#191970" d="M400.9169,-107.6274C432.9103,-97.397 478.4106,-82.8474 507.5182,-73.5398"/>
<polygon fill="#191970" stroke="#191970" points="399.5009,-104.4056 391.042,-110.7851 401.6329,-111.073 399.5009,-104.4056"/>
</g>
<!-- Node35&#45;&gt;Node26 -->
<g id="edge28" class="edge">
<title>Node35&#45;&gt;Node26</title>
<path fill="none" stroke="#191970" d="M360.5089,-100.5152C356.3814,-76.6191 349.458,-36.5362 346.3644,-18.6261"/>
<polygon fill="#191970" stroke="#191970" points="357.0822,-101.2399 362.2332,-110.4982 363.98,-100.0484 357.0822,-101.2399"/>
</g>
</g>
</svg>
