<?xml version="1.0" encoding="UTF-8" standalone="no"?>
<!DOCTYPE svg PUBLIC "-//W3C//DTD SVG 1.1//EN"
 "http://www.w3.org/Graphics/SVG/1.1/DTD/svg11.dtd">
<!-- Generated by graphviz version 2.36.0 (20140111.2315)
 -->
<!-- Title: Domain1D.h Pages: 1 -->
<svg width="843pt" height="252pt"
 viewBox="0.00 0.00 842.55 252.00" xmlns="http://www.w3.org/2000/svg" xmlns:xlink="http://www.w3.org/1999/xlink">
<g id="graph0" class="graph" transform="scale(1 1) rotate(0) translate(4 248)">
<title>Domain1D.h</title>
<polygon fill="white" stroke="none" points="-4,4 -4,-248 838.548,-248 838.548,4 -4,4"/>
<!-- Node1 -->
<g id="node1" class="node"><title>Node1</title>
<polygon fill="#bfbfbf" stroke="black" points="299.048,-224.5 299.048,-243.5 368.048,-243.5 368.048,-224.5 299.048,-224.5"/>
<text text-anchor="middle" x="333.548" y="-231.5" font-family="FreeSans" font-size="10.00">Domain1D.h</text>
</g>
<!-- Node2 -->
<g id="node2" class="node"><title>Node2</title>
<g id="a_node2"><a xlink:href="Domain1D_8cpp.html" target="_top" xlink:title="Domain1D.cpp">
<polygon fill="white" stroke="black" points="26.548,-56.5 26.548,-75.5 106.548,-75.5 106.548,-56.5 26.548,-56.5"/>
<text text-anchor="middle" x="66.548" y="-63.5" font-family="FreeSans" font-size="10.00">Domain1D.cpp</text>
</a>
</g>
</g>
<!-- Node1&#45;&gt;Node2 -->
<g id="edge1" class="edge"><title>Node1&#45;&gt;Node2</title>
<path fill="none" stroke="midnightblue" d="M310.794,-218.853C257.09,-185.465 123.723,-102.547 80.3888,-75.6051"/>
<polygon fill="midnightblue" stroke="midnightblue" points="309.228,-222.001 319.569,-224.309 312.924,-216.056 309.228,-222.001"/>
</g>
<!-- Node3 -->
<g id="node3" class="node"><title>Node3</title>
<g id="a_node3"><a xlink:href="Inlet1D_8h.html" target="_top" xlink:title="Boundary objects for one&#45;dimensional simulations. ">
<polygon fill="white" stroke="black" points="573.048,-112.5 573.048,-131.5 628.048,-131.5 628.048,-112.5 573.048,-112.5"/>
<text text-anchor="middle" x="600.548" y="-119.5" font-family="FreeSans" font-size="10.00">Inlet1D.h</text>
</a>
</g>
</g>
<!-- Node1&#45;&gt;Node3 -->
<g id="edge2" class="edge"><title>Node1&#45;&gt;Node3</title>
<path fill="none" stroke="midnightblue" d="M364.02,-220.446C418.855,-197.855 532.8,-150.911 579.694,-131.591"/>
<polygon fill="midnightblue" stroke="midnightblue" points="362.412,-217.323 354.499,-224.368 365.078,-223.795 362.412,-217.323"/>
</g>
<!-- Node5 -->
<g id="node5" class="node"><title>Node5</title>
<g id="a_node5"><a xlink:href="onedim_8h.html" target="_top" xlink:title="onedim.h">
<polygon fill="white" stroke="black" points="329.548,-0.5 329.548,-19.5 385.548,-19.5 385.548,-0.5 329.548,-0.5"/>
<text text-anchor="middle" x="357.548" y="-7.5" font-family="FreeSans" font-size="10.00">onedim.h</text>
</a>
</g>
</g>
<!-- Node1&#45;&gt;Node5 -->
<g id="edge28" class="edge"><title>Node1&#45;&gt;Node5</title>
<path fill="none" stroke="midnightblue" d="M288.784,-225.886C183.034,-207.318 -67.2076,-152.051 17.548,-56 60.0767,-7.8034 240.959,-29.3827 304.548,-20 312.673,-18.8011 321.475,-17.363 329.528,-15.9918"/>
<polygon fill="midnightblue" stroke="midnightblue" points="288.401,-229.372 298.85,-227.619 289.589,-222.473 288.401,-229.372"/>
</g>
<!-- Node6 -->
<g id="node6" class="node"><title>Node6</title>
<g id="a_node6"><a xlink:href="StFlow_8h.html" target="_top" xlink:title="StFlow.h">
<polygon fill="white" stroke="black" points="601.548,-168.5 601.548,-187.5 655.548,-187.5 655.548,-168.5 601.548,-168.5"/>
<text text-anchor="middle" x="628.548" y="-175.5" font-family="FreeSans" font-size="10.00">StFlow.h</text>
</a>
</g>
</g>
<!-- Node1&#45;&gt;Node6 -->
<g id="edge5" class="edge"><title>Node1&#45;&gt;Node6</title>
<path fill="none" stroke="midnightblue" d="M378.139,-224.838C440.121,-213.492 550.425,-193.3 601.372,-183.975"/>
<polygon fill="midnightblue" stroke="midnightblue" points="377.462,-221.403 368.256,-226.647 378.723,-228.289 377.462,-221.403"/>
</g>
<!-- Node10 -->
<g id="node10" class="node"><title>Node10</title>
<g id="a_node10"><a xlink:href="OneDim_8h.html" target="_top" xlink:title="OneDim.h">
<polygon fill="white" stroke="black" points="304.048,-168.5 304.048,-187.5 363.048,-187.5 363.048,-168.5 304.048,-168.5"/>
<text text-anchor="middle" x="333.548" y="-175.5" font-family="FreeSans" font-size="10.00">OneDim.h</text>
</a>
</g>
</g>
<!-- Node1&#45;&gt;Node10 -->
<g id="edge11" class="edge"><title>Node1&#45;&gt;Node10</title>
<path fill="none" stroke="midnightblue" d="M333.548,-213.805C333.548,-204.91 333.548,-194.78 333.548,-187.751"/>
<polygon fill="midnightblue" stroke="midnightblue" points="330.048,-214.083 333.548,-224.083 337.048,-214.083 330.048,-214.083"/>
</g>
<!-- Node4 -->
<g id="node4" class="node"><title>Node4</title>
<g id="a_node4"><a xlink:href="boundaries1D_8cpp.html" target="_top" xlink:title="boundaries1D.cpp">
<polygon fill="white" stroke="black" points="506.048,-56.5 506.048,-75.5 599.048,-75.5 599.048,-56.5 506.048,-56.5"/>
<text text-anchor="middle" x="552.548" y="-63.5" font-family="FreeSans" font-size="10.00">boundaries1D.cpp</text>
</a>
</g>
</g>
<!-- Node3&#45;&gt;Node4 -->
<g id="edge3" class="edge"><title>Node3&#45;&gt;Node4</title>
<path fill="none" stroke="midnightblue" d="M585.82,-104.431C577.408,-94.9673 567.199,-83.4827 560.327,-75.7511"/>
<polygon fill="midnightblue" stroke="midnightblue" points="583.362,-106.934 592.622,-112.083 588.594,-102.284 583.362,-106.934"/>
</g>
<!-- Node3&#45;&gt;Node5 -->
<g id="edge4" class="edge"><title>Node3&#45;&gt;Node5</title>
<path fill="none" stroke="midnightblue" d="M608.981,-102.954C614.296,-88.6151 618.327,-68.8926 607.548,-56 579.544,-22.5051 445.307,-13.9034 385.919,-11.725"/>
<polygon fill="midnightblue" stroke="midnightblue" points="605.714,-101.694 605.076,-112.269 612.17,-104.4 605.714,-101.694"/>
</g>
<!-- Node6&#45;&gt;Node3 -->
<g id="edge9" class="edge"><title>Node6&#45;&gt;Node3</title>
<path fill="none" stroke="midnightblue" d="M619.206,-158.983C614.453,-149.817 608.892,-139.092 605.086,-131.751"/>
<polygon fill="midnightblue" stroke="midnightblue" points="616.214,-160.817 623.924,-168.083 622.428,-157.594 616.214,-160.817"/>
</g>
<!-- Node6&#45;&gt;Node5 -->
<g id="edge10" class="edge"><title>Node6&#45;&gt;Node5</title>
<path fill="none" stroke="midnightblue" d="M634.939,-158.782C643.016,-132.056 652.819,-82.5286 625.548,-56 591.73,-23.1029 447.178,-14.1417 385.555,-11.7953"/>
<polygon fill="midnightblue" stroke="midnightblue" points="631.572,-157.818 631.8,-168.41 638.227,-159.987 631.572,-157.818"/>
</g>
<!-- Node7 -->
<g id="node7" class="node"><title>Node7</title>
<g id="a_node7"><a xlink:href="refine_8cpp.html" target="_top" xlink:title="refine.cpp">
<polygon fill="white" stroke="black" points="693.548,-112.5 693.548,-131.5 751.548,-131.5 751.548,-112.5 693.548,-112.5"/>
<text text-anchor="middle" x="722.548" y="-119.5" font-family="FreeSans" font-size="10.00">refine.cpp</text>
</a>
</g>
</g>
<!-- Node6&#45;&gt;Node7 -->
<g id="edge6" class="edge"><title>Node6&#45;&gt;Node7</title>
<path fill="none" stroke="midnightblue" d="M652.61,-163.177C669.907,-153.241 692.696,-140.149 707.483,-131.655"/>
<polygon fill="midnightblue" stroke="midnightblue" points="650.578,-160.308 643.651,-168.324 654.065,-166.378 650.578,-160.308"/>
</g>
<!-- Node8 -->
<g id="node8" class="node"><title>Node8</title>
<g id="a_node8"><a xlink:href="Sim1D_8cpp.html" target="_top" xlink:title="Sim1D.cpp">
<polygon fill="white" stroke="black" points="385.548,-56.5 385.548,-75.5 449.548,-75.5 449.548,-56.5 385.548,-56.5"/>
<text text-anchor="middle" x="417.548" y="-63.5" font-family="FreeSans" font-size="10.00">Sim1D.cpp</text>
</a>
</g>
</g>
<!-- Node6&#45;&gt;Node8 -->
<g id="edge7" class="edge"><title>Node6&#45;&gt;Node8</title>
<path fill="none" stroke="midnightblue" d="M603.103,-163.735C559.271,-140.884 470.702,-94.7108 434.028,-75.5914"/>
<polygon fill="midnightblue" stroke="midnightblue" points="601.506,-166.849 611.991,-168.368 604.742,-160.642 601.506,-166.849"/>
</g>
<!-- Node9 -->
<g id="node9" class="node"><title>Node9</title>
<g id="a_node9"><a xlink:href="StFlow_8cpp.html" target="_top" xlink:title="StFlow.cpp">
<polygon fill="white" stroke="black" points="770.048,-112.5 770.048,-131.5 835.048,-131.5 835.048,-112.5 770.048,-112.5"/>
<text text-anchor="middle" x="802.548" y="-119.5" font-family="FreeSans" font-size="10.00">StFlow.cpp</text>
</a>
</g>
</g>
<!-- Node6&#45;&gt;Node9 -->
<g id="edge8" class="edge"><title>Node6&#45;&gt;Node9</title>
<path fill="none" stroke="midnightblue" d="M665.409,-165.56C698.185,-155.389 745.374,-140.744 774.977,-131.556"/>
<polygon fill="midnightblue" stroke="midnightblue" points="664.249,-162.256 655.736,-168.562 666.324,-168.941 664.249,-162.256"/>
</g>
<!-- Node10&#45;&gt;Node4 -->
<g id="edge12" class="edge"><title>Node10&#45;&gt;Node4</title>
<path fill="none" stroke="midnightblue" d="M372.996,-171.797C406.479,-166.024 454.798,-154.395 491.548,-132 516.128,-117.021 537.192,-89.4952 546.873,-75.5621"/>
<polygon fill="midnightblue" stroke="midnightblue" points="372.418,-168.345 363.111,-173.407 373.543,-175.254 372.418,-168.345"/>
</g>
<!-- Node10&#45;&gt;Node5 -->
<g id="edge27" class="edge"><title>Node10&#45;&gt;Node5</title>
<path fill="none" stroke="midnightblue" d="M363.36,-164.012C394.693,-148.399 441.728,-118.834 458.548,-76 471.848,-42.1308 420.088,-24.2337 385.784,-16.2709"/>
<polygon fill="midnightblue" stroke="midnightblue" points="361.695,-160.929 354.191,-168.409 364.721,-167.241 361.695,-160.929"/>
</g>
<!-- Node11 -->
<g id="node11" class="node"><title>Node11</title>
<g id="a_node11"><a xlink:href="OneDim_8cpp.html" target="_top" xlink:title="OneDim.cpp">
<polygon fill="white" stroke="black" points="23.548,-0.5 23.548,-19.5 93.548,-19.5 93.548,-0.5 23.548,-0.5"/>
<text text-anchor="middle" x="58.548" y="-7.5" font-family="FreeSans" font-size="10.00">OneDim.cpp</text>
</a>
</g>
</g>
<!-- Node10&#45;&gt;Node11 -->
<g id="edge13" class="edge"><title>Node10&#45;&gt;Node11</title>
<path fill="none" stroke="midnightblue" d="M293.447,-177.936C223.813,-177.106 81.8388,-164.043 17.548,-76 3.3853,-56.6048 29.4087,-32.3491 46.1083,-19.6566"/>
<polygon fill="midnightblue" stroke="midnightblue" points="293.565,-181.436 303.579,-177.975 293.593,-174.436 293.565,-181.436"/>
</g>
<!-- Node12 -->
<g id="node12" class="node"><title>Node12</title>
<g id="a_node12"><a xlink:href="MultiJac_8h.html" target="_top" xlink:title="MultiJac.h">
<polygon fill="white" stroke="black" points="266.048,-112.5 266.048,-131.5 327.048,-131.5 327.048,-112.5 266.048,-112.5"/>
<text text-anchor="middle" x="296.548" y="-119.5" font-family="FreeSans" font-size="10.00">MultiJac.h</text>
</a>
</g>
</g>
<!-- Node10&#45;&gt;Node12 -->
<g id="edge14" class="edge"><title>Node10&#45;&gt;Node12</title>
<path fill="none" stroke="midnightblue" d="M315.691,-160.144C308.385,-150.736 301.014,-139.405 297.413,-131.751"/>
<polygon fill="midnightblue" stroke="midnightblue" points="313.195,-162.618 322.272,-168.083 318.585,-158.15 313.195,-162.618"/>
</g>
<!-- Node16 -->
<g id="node16" class="node"><title>Node16</title>
<g id="a_node16"><a xlink:href="Sim1D_8h.html" target="_top" xlink:title="Sim1D.h">
<polygon fill="white" stroke="black" points="345.048,-112.5 345.048,-131.5 398.048,-131.5 398.048,-112.5 345.048,-112.5"/>
<text text-anchor="middle" x="371.548" y="-119.5" font-family="FreeSans" font-size="10.00">Sim1D.h</text>
</a>
</g>
</g>
<!-- Node10&#45;&gt;Node16 -->
<g id="edge24" class="edge"><title>Node10&#45;&gt;Node16</title>
<path fill="none" stroke="midnightblue" d="M345.613,-159.855C352.193,-150.505 360.059,-139.327 365.39,-131.751"/>
<polygon fill="midnightblue" stroke="midnightblue" points="342.716,-157.891 339.823,-168.083 348.44,-161.919 342.716,-157.891"/>
</g>
<!-- Node12&#45;&gt;Node2 -->
<g id="edge15" class="edge"><title>Node12&#45;&gt;Node2</title>
<path fill="none" stroke="midnightblue" d="M256.088,-111.501C212.751,-101.326 144.6,-85.3251 102.91,-75.5371"/>
<polygon fill="midnightblue" stroke="midnightblue" points="255.471,-114.951 266.006,-113.829 257.071,-108.136 255.471,-114.951"/>
</g>
<!-- Node12&#45;&gt;Node5 -->
<g id="edge23" class="edge"><title>Node12&#45;&gt;Node5</title>
<path fill="none" stroke="midnightblue" d="M306.352,-103.32C319.634,-79.3697 342.826,-37.5484 352.784,-19.5914"/>
<polygon fill="midnightblue" stroke="midnightblue" points="303.123,-101.926 301.335,-112.368 309.245,-105.321 303.123,-101.926"/>
</g>
<!-- Node12&#45;&gt;Node8 -->
<g id="edge17" class="edge"><title>Node12&#45;&gt;Node8</title>
<path fill="none" stroke="midnightblue" d="M324.854,-108.368C347.513,-98.2553 378.674,-84.3486 398.465,-75.5164"/>
<polygon fill="midnightblue" stroke="midnightblue" points="323.426,-105.172 315.721,-112.444 326.279,-111.564 323.426,-105.172"/>
</g>
<!-- Node12&#45;&gt;Node10 -->
<g id="edge18" class="edge"><title>Node12&#45;&gt;Node10</title>
<path fill="none" stroke="midnightblue" d="M314.247,-139.653C321.552,-149.033 328.95,-160.377 332.605,-168.083"/>
<polygon fill="midnightblue" stroke="midnightblue" points="316.76,-137.202 307.675,-131.751 311.379,-141.678 316.76,-137.202"/>
</g>
<!-- Node13 -->
<g id="node13" class="node"><title>Node13</title>
<g id="a_node13"><a xlink:href="MultiJac_8cpp.html" target="_top" xlink:title="Implementation file for class MultiJac. ">
<polygon fill="white" stroke="black" points="125.048,-56.5 125.048,-75.5 196.048,-75.5 196.048,-56.5 125.048,-56.5"/>
<text text-anchor="middle" x="160.548" y="-63.5" font-family="FreeSans" font-size="10.00">MultiJac.cpp</text>
</a>
</g>
</g>
<!-- Node12&#45;&gt;Node13 -->
<g id="edge16" class="edge"><title>Node12&#45;&gt;Node13</title>
<path fill="none" stroke="midnightblue" d="M265.413,-108.638C239.891,-98.504 204.439,-84.4274 181.997,-75.5164"/>
<polygon fill="midnightblue" stroke="midnightblue" points="264.413,-112.006 274.998,-112.444 266.996,-105.5 264.413,-112.006"/>
</g>
<!-- Node14 -->
<g id="node14" class="node"><title>Node14</title>
<g id="a_node14"><a xlink:href="MultiNewton_8h.html" target="_top" xlink:title="MultiNewton.h">
<polygon fill="white" stroke="black" points="214.048,-56.5 214.048,-75.5 291.048,-75.5 291.048,-56.5 214.048,-56.5"/>
<text text-anchor="middle" x="252.548" y="-63.5" font-family="FreeSans" font-size="10.00">MultiNewton.h</text>
</a>
</g>
</g>
<!-- Node12&#45;&gt;Node14 -->
<g id="edge19" class="edge"><title>Node12&#45;&gt;Node14</title>
<path fill="none" stroke="midnightblue" d="M282.813,-104.144C275.147,-94.7357 265.915,-83.4046 259.679,-75.7511"/>
<polygon fill="midnightblue" stroke="midnightblue" points="280.252,-106.541 289.282,-112.083 285.679,-102.12 280.252,-106.541"/>
</g>
<!-- Node14&#45;&gt;Node5 -->
<g id="edge22" class="edge"><title>Node14&#45;&gt;Node5</title>
<path fill="none" stroke="midnightblue" d="M278.358,-51.7261C297.801,-41.7271 323.896,-28.3065 340.72,-19.6545"/>
<polygon fill="midnightblue" stroke="midnightblue" points="276.71,-48.6379 269.418,-56.324 279.912,-54.8629 276.71,-48.6379"/>
</g>
<!-- Node14&#45;&gt;Node11 -->
<g id="edge21" class="edge"><title>Node14&#45;&gt;Node11</title>
<path fill="none" stroke="midnightblue" d="M211.947,-53.6986C175.333,-43.507 122.291,-28.7429 89.1441,-19.5164"/>
<polygon fill="midnightblue" stroke="midnightblue" points="211.236,-57.1337 221.808,-56.4435 213.113,-50.3901 211.236,-57.1337"/>
</g>
<!-- Node15 -->
<g id="node15" class="node"><title>Node15</title>
<g id="a_node15"><a xlink:href="MultiNewton_8cpp.html" target="_top" xlink:title="Damped Newton solver for 1D multi&#45;domain problems. ">
<polygon fill="white" stroke="black" points="208.548,-0.5 208.548,-19.5 296.548,-19.5 296.548,-0.5 208.548,-0.5"/>
<text text-anchor="middle" x="252.548" y="-7.5" font-family="FreeSans" font-size="10.00">MultiNewton.cpp</text>
</a>
</g>
</g>
<!-- Node14&#45;&gt;Node15 -->
<g id="edge20" class="edge"><title>Node14&#45;&gt;Node15</title>
<path fill="none" stroke="midnightblue" d="M252.548,-45.8045C252.548,-36.9102 252.548,-26.7798 252.548,-19.7511"/>
<polygon fill="midnightblue" stroke="midnightblue" points="249.048,-46.083 252.548,-56.083 256.048,-46.083 249.048,-46.083"/>
</g>
<!-- Node16&#45;&gt;Node5 -->
<g id="edge26" class="edge"><title>Node16&#45;&gt;Node5</title>
<path fill="none" stroke="midnightblue" d="M369.174,-102.348C366.108,-78.2538 360.896,-37.3079 358.641,-19.5914"/>
<polygon fill="midnightblue" stroke="midnightblue" points="365.715,-102.89 370.449,-112.368 372.659,-102.007 365.715,-102.89"/>
</g>
<!-- Node16&#45;&gt;Node8 -->
<g id="edge25" class="edge"><title>Node16&#45;&gt;Node8</title>
<path fill="none" stroke="midnightblue" d="M385.662,-104.431C393.724,-94.9673 403.507,-83.4827 410.093,-75.7511"/>
<polygon fill="midnightblue" stroke="midnightblue" points="382.964,-102.201 379.144,-112.083 388.293,-106.74 382.964,-102.201"/>
</g>
</g>
</svg>
