<?xml version="1.0" encoding="UTF-8" standalone="no"?>
<!DOCTYPE svg PUBLIC "-//W3C//DTD SVG 1.1//EN"
 "http://www.w3.org/Graphics/SVG/1.1/DTD/svg11.dtd">
<!-- Generated by graphviz version 2.26.3 (20100126.1600)
 -->
<!-- Title: DustyGasTransport.h Pages: 1 -->
<svg width="328pt" height="88pt"
 viewBox="0.00 0.00 328.00 88.00" xmlns="http://www.w3.org/2000/svg" xmlns:xlink="http://www.w3.org/1999/xlink">
<g id="graph1" class="graph" transform="scale(1 1) rotate(0) translate(4 84)">
<title>DustyGasTransport.h</title>
<polygon fill="white" stroke="white" points="-4,5 -4,-84 325,-84 325,5 -4,5"/>
<!-- Node1 -->
<g id="node1" class="node"><title>Node1</title>
<polygon fill="#bfbfbf" stroke="black" points="134,-59 134,-79 240,-79 240,-59 134,-59"/>
<text text-anchor="middle" x="187" y="-66" font-family="FreeSans" font-size="10.00">DustyGasTransport.h</text>
</g>
<!-- Node2 -->
<g id="node3" class="node"><title>Node2</title>
<a xlink:href="DustyGasTransport_8cpp.html" target="_top" xlink:title="Implementation file for class DustyGasTransport. ">
<polygon fill="white" stroke="black" points="0,-1 0,-21 116,-21 116,-1 0,-1"/>
<text text-anchor="middle" x="58" y="-8" font-family="FreeSans" font-size="10.00">DustyGasTransport.cpp</text>
</a>
</g>
<!-- Node1&#45;&gt;Node2 -->
<g id="edge2" class="edge"><title>Node1&#45;&gt;Node2</title>
<path fill="none" stroke="midnightblue" d="M155.137,-54.674C132.014,-44.2778 101.294,-30.4654 80.6454,-21.1817"/>
<polygon fill="midnightblue" stroke="midnightblue" points="153.974,-57.9886 164.53,-58.8972 156.845,-51.6042 153.974,-57.9886"/>
</g>
<!-- Node3 -->
<g id="node5" class="node"><title>Node3</title>
<a xlink:href="TransportFactory_8cpp.html" target="_top" xlink:title="Implementation file for class TransportFactory. ">
<polygon fill="white" stroke="black" points="133.5,-1 133.5,-21 240.5,-21 240.5,-1 133.5,-1"/>
<text text-anchor="middle" x="187" y="-8" font-family="FreeSans" font-size="10.00">TransportFactory.cpp</text>
</a>
</g>
<!-- Node1&#45;&gt;Node3 -->
<g id="edge4" class="edge"><title>Node1&#45;&gt;Node3</title>
<path fill="none" stroke="midnightblue" d="M187,-48.8902C187,-39.6201 187,-29.0083 187,-21.3776"/>
<polygon fill="midnightblue" stroke="midnightblue" points="183.5,-48.8971 187,-58.8972 190.5,-48.8972 183.5,-48.8971"/>
</g>
<!-- Node4 -->
<g id="node7" class="node"><title>Node4</title>
<a xlink:href="transport_8h.html" target="_top" xlink:title="Support for transport property calculation from C++ application programs. ">
<polygon fill="white" stroke="black" points="258,-1 258,-21 320,-21 320,-1 258,-1"/>
<text text-anchor="middle" x="289" y="-8" font-family="FreeSans" font-size="10.00">transport.h</text>
</a>
</g>
<!-- Node1&#45;&gt;Node4 -->
<g id="edge6" class="edge"><title>Node1&#45;&gt;Node4</title>
<path fill="none" stroke="midnightblue" d="M213.676,-53.8314C231.773,-43.5411 255.205,-30.2168 271.094,-21.1817"/>
<polygon fill="midnightblue" stroke="midnightblue" points="211.73,-50.9116 204.767,-58.8972 215.19,-56.9966 211.73,-50.9116"/>
</g>
</g>
</svg>
