<?xml version="1.0" encoding="UTF-8" standalone="no"?>
<!DOCTYPE svg PUBLIC "-//W3C//DTD SVG 1.1//EN"
 "http://www.w3.org/Graphics/SVG/1.1/DTD/svg11.dtd">
<!-- Generated by graphviz version 2.40.1 (20161225.0304)
 -->
<!-- Title: DustyGasTransport.h Pages: 1 -->
<svg width="958pt" height="357pt"
 viewBox="0.00 0.00 958.20 357.00" xmlns="http://www.w3.org/2000/svg" xmlns:xlink="http://www.w3.org/1999/xlink">
<g id="graph0" class="graph" transform="scale(1 1) rotate(0) translate(4 353)">
<title>DustyGasTransport.h</title>
<polygon fill="#ffffff" stroke="transparent" points="-4,4 -4,-353 954.2049,-353 954.2049,4 -4,4"/>
<!-- Node0 -->
<g id="node1" class="node">
<title>Node0</title>
<polygon fill="#bfbfbf" stroke="#000000" points="669.0063,-330.5 669.0063,-348.5 779.6743,-348.5 779.6743,-330.5 669.0063,-330.5"/>
<text text-anchor="middle" x="724.3403" y="-336.5" font-family="Helvetica,sans-Serif" font-size="10.00" fill="#000000">DustyGasTransport.h</text>
</g>
<!-- Node1 -->
<g id="node2" class="node">
<title>Node1</title>
<g id="a_node2"><a xlink:href="TransportBase_8h.html" target="_top" xlink:title="Headers for the Transport object, which is the virtual base class for all transport property evaluato...">
<polygon fill="#ffffff" stroke="#000000" points="643.5605,-275.5 643.5605,-293.5 733.1201,-293.5 733.1201,-275.5 643.5605,-275.5"/>
<text text-anchor="middle" x="688.3403" y="-281.5" font-family="Helvetica,sans-Serif" font-size="10.00" fill="#000000">TransportBase.h</text>
</a>
</g>
</g>
<!-- Node0&#45;&gt;Node1 -->
<g id="edge1" class="edge">
<title>Node0&#45;&gt;Node1</title>
<path fill="none" stroke="#191970" d="M718.3957,-330.4179C713.423,-322.8207 706.1784,-311.7527 700.0479,-302.3866"/>
<polygon fill="#191970" stroke="#191970" points="702.8193,-300.2297 694.4142,-293.7795 696.9623,-304.0633 702.8193,-300.2297"/>
</g>
<!-- Node31 -->
<g id="node13" class="node">
<title>Node31</title>
<g id="a_node13"><a xlink:href="DenseMatrix_8h.html" target="_top" xlink:title="Headers for the DenseMatrix object, which deals with dense rectangular matrices and description of th...">
<polygon fill="#ffffff" stroke="#000000" points="744.3677,-220.5 744.3677,-238.5 904.313,-238.5 904.313,-220.5 744.3677,-220.5"/>
<text text-anchor="middle" x="824.3403" y="-226.5" font-family="Helvetica,sans-Serif" font-size="10.00" fill="#000000">cantera/numerics/DenseMatrix.h</text>
</a>
</g>
</g>
<!-- Node0&#45;&gt;Node31 -->
<g id="edge18" class="edge">
<title>Node0&#45;&gt;Node31</title>
<path fill="none" stroke="#191970" d="M732.5238,-330.4982C749.2978,-312.0467 787.8018,-269.6924 809.2373,-246.1134"/>
<polygon fill="#191970" stroke="#191970" points="811.9069,-248.3799 816.0438,-238.6261 806.7273,-243.6712 811.9069,-248.3799"/>
</g>
<!-- Node2 -->
<g id="node3" class="node">
<title>Node2</title>
<g id="a_node3"><a xlink:href="ThermoPhase_8h.html" target="_top" xlink:title="Header file for class ThermoPhase, the base class for phases with thermodynamic properties, and the text for the Module thermoprops (see Thermodynamic Properties and class ThermoPhase). ">
<polygon fill="#ffffff" stroke="#000000" points="557.7495,-220.5 557.7495,-238.5 714.9312,-238.5 714.9312,-220.5 557.7495,-220.5"/>
<text text-anchor="middle" x="636.3403" y="-226.5" font-family="Helvetica,sans-Serif" font-size="10.00" fill="#000000">cantera/thermo/ThermoPhase.h</text>
</a>
</g>
</g>
<!-- Node1&#45;&gt;Node2 -->
<g id="edge2" class="edge">
<title>Node1&#45;&gt;Node2</title>
<path fill="none" stroke="#191970" d="M679.7536,-275.4179C672.2715,-267.5041 661.2288,-255.8243 652.1531,-246.2251"/>
<polygon fill="#191970" stroke="#191970" points="654.5271,-243.6414 645.1136,-238.7795 649.4405,-248.4505 654.5271,-243.6414"/>
</g>
<!-- Node3 -->
<g id="node4" class="node">
<title>Node3</title>
<g id="a_node4"><a xlink:href="Phase_8h.html" target="_top" xlink:title="Header file for class Phase. ">
<polygon fill="#ffffff" stroke="#000000" points="348.9932,-110.5 348.9932,-128.5 401.6875,-128.5 401.6875,-110.5 348.9932,-110.5"/>
<text text-anchor="middle" x="375.3403" y="-116.5" font-family="Helvetica,sans-Serif" font-size="10.00" fill="#000000">Phase.h</text>
</a>
</g>
</g>
<!-- Node2&#45;&gt;Node3 -->
<g id="edge3" class="edge">
<title>Node2&#45;&gt;Node3</title>
<path fill="none" stroke="#191970" d="M614.9816,-220.4982C568.907,-201.0798 460.018,-155.1879 406.3458,-132.5674"/>
<polygon fill="#191970" stroke="#191970" points="407.5685,-129.2847 396.9942,-128.6261 404.8499,-135.7352 407.5685,-129.2847"/>
</g>
<!-- Node28 -->
<g id="node10" class="node">
<title>Node28</title>
<g id="a_node10"><a xlink:href="MultiSpeciesThermo_8h.html" target="_top" xlink:title="Header for a general species thermodynamic property manager for a phase (see MultiSpeciesThermo). ">
<polygon fill="#ffffff" stroke="#000000" points="556.5991,-165.5 556.5991,-183.5 672.0815,-183.5 672.0815,-165.5 556.5991,-165.5"/>
<text text-anchor="middle" x="614.3403" y="-171.5" font-family="Helvetica,sans-Serif" font-size="10.00" fill="#000000">MultiSpeciesThermo.h</text>
</a>
</g>
</g>
<!-- Node2&#45;&gt;Node28 -->
<g id="edge11" class="edge">
<title>Node2&#45;&gt;Node28</title>
<path fill="none" stroke="#191970" d="M632.7075,-220.4179C629.7636,-213.0581 625.5167,-202.441 621.8481,-193.2695"/>
<polygon fill="#191970" stroke="#191970" points="625.0158,-191.7643 618.0521,-183.7795 618.5164,-194.3641 625.0158,-191.7643"/>
</g>
<!-- Node21 -->
<g id="node12" class="node">
<title>Node21</title>
<g id="a_node12"><a xlink:href="global_8h.html" target="_top" xlink:title="This file contains definitions for utility functions and text for modules, inputfiles, logs, textlogs, (see Input File Handling, Diagnostic Output, and Writing messages to the screen). ">
<polygon fill="#ffffff" stroke="#ff0000" points="654.5278,-55.5 654.5278,-73.5 766.1528,-73.5 766.1528,-55.5 654.5278,-55.5"/>
<text text-anchor="middle" x="710.3403" y="-61.5" font-family="Helvetica,sans-Serif" font-size="10.00" fill="#000000">cantera/base/global.h</text>
</a>
</g>
</g>
<!-- Node2&#45;&gt;Node21 -->
<g id="edge17" class="edge">
<title>Node2&#45;&gt;Node21</title>
<path fill="none" stroke="#191970" d="M648.5121,-220.3748C658.7901,-212.0223 673.1114,-198.7468 681.3403,-184 699.3015,-151.8123 706.2264,-108.6852 708.8317,-84.0158"/>
<polygon fill="#191970" stroke="#191970" points="712.3405,-84.0791 709.7711,-73.8006 705.3699,-83.438 712.3405,-84.0791"/>
</g>
<!-- Node4 -->
<g id="node5" class="node">
<title>Node4</title>
<g id="a_node5"><a xlink:href="ctexceptions_8h.html" target="_top" xlink:title="Definitions for the classes that are thrown when Cantera experiences an error condition (also contain...">
<polygon fill="#ffffff" stroke="#ff0000" points="458.0796,-55.5 458.0796,-73.5 598.6011,-73.5 598.6011,-55.5 458.0796,-55.5"/>
<text text-anchor="middle" x="528.3403" y="-61.5" font-family="Helvetica,sans-Serif" font-size="10.00" fill="#000000">cantera/base/ctexceptions.h</text>
</a>
</g>
</g>
<!-- Node3&#45;&gt;Node4 -->
<g id="edge4" class="edge">
<title>Node3&#45;&gt;Node4</title>
<path fill="none" stroke="#191970" d="M400.6052,-110.4179C426.0397,-101.2748 465.4585,-87.1046 493.7789,-76.924"/>
<polygon fill="#191970" stroke="#191970" points="495.0658,-80.1808 503.2923,-73.5042 492.6978,-73.5935 495.0658,-80.1808"/>
</g>
<!-- Node18 -->
<g id="node6" class="node">
<title>Node18</title>
<g id="a_node6"><a xlink:href="Elements_8h.html" target="_top" xlink:title="Contains the getElementWeight function and the definitions of element constraint types. ">
<polygon fill="#ffffff" stroke="#000000" points="156.311,-55.5 156.311,-73.5 292.3696,-73.5 292.3696,-55.5 156.311,-55.5"/>
<text text-anchor="middle" x="224.3403" y="-61.5" font-family="Helvetica,sans-Serif" font-size="10.00" fill="#000000">cantera/thermo/Elements.h</text>
</a>
</g>
</g>
<!-- Node3&#45;&gt;Node18 -->
<g id="edge5" class="edge">
<title>Node3&#45;&gt;Node18</title>
<path fill="none" stroke="#191970" d="M350.4058,-110.4179C325.4134,-101.3147 286.7397,-87.2283 258.8167,-77.0576"/>
<polygon fill="#191970" stroke="#191970" points="259.655,-73.6381 249.061,-73.5042 257.2592,-80.2153 259.655,-73.6381"/>
</g>
<!-- Node19 -->
<g id="node8" class="node">
<title>Node19</title>
<g id="a_node8"><a xlink:href="Species_8h.html" target="_top" xlink:title="Declaration for class Cantera::Species. ">
<polygon fill="#ffffff" stroke="#ff0000" points="310.3652,-55.5 310.3652,-73.5 440.3154,-73.5 440.3154,-55.5 310.3652,-55.5"/>
<text text-anchor="middle" x="375.3403" y="-61.5" font-family="Helvetica,sans-Serif" font-size="10.00" fill="#000000">cantera/thermo/Species.h</text>
</a>
</g>
</g>
<!-- Node3&#45;&gt;Node19 -->
<g id="edge7" class="edge">
<title>Node3&#45;&gt;Node19</title>
<path fill="none" stroke="#191970" d="M375.3403,-110.4179C375.3403,-103.2164 375.3403,-92.8962 375.3403,-83.8632"/>
<polygon fill="#191970" stroke="#191970" points="378.8404,-83.7794 375.3403,-73.7795 371.8404,-83.7795 378.8404,-83.7794"/>
</g>
<!-- Node26 -->
<g id="node9" class="node">
<title>Node26</title>
<g id="a_node9"><a xlink:href="ValueCache_8h.html" target="_top" xlink:title="cantera/base/ValueCache.h">
<polygon fill="#ffffff" stroke="#ff0000" points="0,-55.5 0,-73.5 138.6807,-73.5 138.6807,-55.5 0,-55.5"/>
<text text-anchor="middle" x="69.3403" y="-61.5" font-family="Helvetica,sans-Serif" font-size="10.00" fill="#000000">cantera/base/ValueCache.h</text>
</a>
</g>
</g>
<!-- Node3&#45;&gt;Node26 -->
<g id="edge9" class="edge">
<title>Node3&#45;&gt;Node26</title>
<path fill="none" stroke="#191970" d="M348.9861,-114.7631C300.5174,-106.0514 196.1049,-87.2845 129.4789,-75.3092"/>
<polygon fill="#191970" stroke="#191970" points="129.9912,-71.8453 119.5297,-73.521 128.7528,-78.7349 129.9912,-71.8453"/>
</g>
<!-- Node6 -->
<g id="node7" class="node">
<title>Node6</title>
<g id="a_node7"><a xlink:href="ct__defs_8h.html" target="_top" xlink:title="This file contains definitions of terms that are used in internal routines and are unlikely to need m...">
<polygon fill="#ffffff" stroke="#ff0000" points="598.0498,-.5 598.0498,-18.5 654.6309,-18.5 654.6309,-.5 598.0498,-.5"/>
<text text-anchor="middle" x="626.3403" y="-6.5" font-family="Helvetica,sans-Serif" font-size="10.00" fill="#000000">ct_defs.h</text>
</a>
</g>
</g>
<!-- Node18&#45;&gt;Node6 -->
<g id="edge6" class="edge">
<title>Node18&#45;&gt;Node6</title>
<path fill="none" stroke="#191970" d="M290.2723,-55.4795C375.0205,-43.8846 519.3929,-24.1321 587.9775,-14.7486"/>
<polygon fill="#191970" stroke="#191970" points="588.4891,-18.2113 597.9223,-13.388 587.5402,-11.276 588.4891,-18.2113"/>
</g>
<!-- Node19&#45;&gt;Node6 -->
<g id="edge8" class="edge">
<title>Node19&#45;&gt;Node6</title>
<path fill="none" stroke="#191970" d="M416.5068,-55.4795C464.0889,-45.0531 541.7735,-28.0306 588.085,-17.8826"/>
<polygon fill="#191970" stroke="#191970" points="589.0087,-21.2634 598.0278,-15.704 587.5103,-14.4256 589.0087,-21.2634"/>
</g>
<!-- Node26&#45;&gt;Node6 -->
<g id="edge10" class="edge">
<title>Node26&#45;&gt;Node6</title>
<path fill="none" stroke="#191970" d="M139.0709,-55.9144C141.8632,-55.6 144.6279,-55.294 147.3403,-55 310.8691,-37.2779 506.2248,-19.8994 587.6975,-12.8208"/>
<polygon fill="#191970" stroke="#191970" points="588.3091,-16.2811 597.9695,-11.9306 587.7046,-9.3072 588.3091,-16.2811"/>
</g>
<!-- Node29 -->
<g id="node11" class="node">
<title>Node29</title>
<g id="a_node11"><a xlink:href="SpeciesThermoInterpType_8h.html" target="_top" xlink:title="Pure Virtual Base class for individual species reference state thermodynamic managers and text for th...">
<polygon fill="#ffffff" stroke="#ff0000" points="540.5278,-110.5 540.5278,-128.5 682.1528,-128.5 682.1528,-110.5 540.5278,-110.5"/>
<text text-anchor="middle" x="611.3403" y="-116.5" font-family="Helvetica,sans-Serif" font-size="10.00" fill="#000000">SpeciesThermoInterpType.h</text>
</a>
</g>
</g>
<!-- Node28&#45;&gt;Node29 -->
<g id="edge12" class="edge">
<title>Node28&#45;&gt;Node29</title>
<path fill="none" stroke="#191970" d="M613.8449,-165.4179C613.4521,-158.2164 612.8892,-147.8962 612.3965,-138.8632"/>
<polygon fill="#191970" stroke="#191970" points="615.886,-138.574 611.8465,-128.7795 608.8964,-138.9553 615.886,-138.574"/>
</g>
<!-- Node29&#45;&gt;Node4 -->
<g id="edge14" class="edge">
<title>Node29&#45;&gt;Node4</title>
<path fill="none" stroke="#191970" d="M597.6346,-110.4179C584.8992,-101.9788 565.7009,-89.257 550.7391,-79.3426"/>
<polygon fill="#191970" stroke="#191970" points="552.3357,-76.2019 542.0665,-73.5956 548.469,-82.037 552.3357,-76.2019"/>
</g>
<!-- Node29&#45;&gt;Node6 -->
<g id="edge13" class="edge">
<title>Node29&#45;&gt;Node6</title>
<path fill="none" stroke="#191970" d="M612.5678,-110.4982C614.9961,-92.6913 620.46,-52.6225 623.7288,-28.6515"/>
<polygon fill="#191970" stroke="#191970" points="627.2125,-29.0074 625.0959,-18.6261 620.2767,-28.0615 627.2125,-29.0074"/>
</g>
<!-- Node29&#45;&gt;Node21 -->
<g id="edge15" class="edge">
<title>Node29&#45;&gt;Node21</title>
<path fill="none" stroke="#191970" d="M627.6882,-110.4179C643.3085,-101.7399 667.0801,-88.5334 685.1265,-78.5077"/>
<polygon fill="#191970" stroke="#191970" points="686.9264,-81.5117 693.9682,-73.5956 683.5269,-75.3925 686.9264,-81.5117"/>
</g>
<!-- Node21&#45;&gt;Node6 -->
<g id="edge16" class="edge">
<title>Node21&#45;&gt;Node6</title>
<path fill="none" stroke="#191970" d="M696.4694,-55.4179C683.5806,-46.9788 664.151,-34.257 649.009,-24.3426"/>
<polygon fill="#191970" stroke="#191970" points="650.5153,-21.1454 640.2318,-18.5956 646.6808,-27.0017 650.5153,-21.1454"/>
</g>
<!-- Node31&#45;&gt;Node4 -->
<g id="edge20" class="edge">
<title>Node31&#45;&gt;Node4</title>
<path fill="none" stroke="#191970" d="M807.1584,-220.4695C780.7306,-206.8764 728.2393,-181.0449 681.3403,-165 616.4718,-142.8073 575.0269,-181.8387 531.3403,-129 521.0822,-116.5929 521.3891,-97.8082 523.6357,-83.7058"/>
<polygon fill="#191970" stroke="#191970" points="527.1255,-84.1079 525.6886,-73.611 520.2659,-82.7129 527.1255,-84.1079"/>
</g>
<!-- Node31&#45;&gt;Node6 -->
<g id="edge19" class="edge">
<title>Node31&#45;&gt;Node6</title>
<path fill="none" stroke="#191970" d="M843.1808,-220.443C870.9395,-205.8127 921.2763,-174.002 937.3403,-129 948.3971,-98.0254 958.8472,-79.8824 937.3403,-55 919.7104,-34.603 743.9588,-18.5823 664.7258,-12.3367"/>
<polygon fill="#191970" stroke="#191970" points="664.9013,-8.8399 654.6604,-11.5551 664.3593,-15.8189 664.9013,-8.8399"/>
</g>
<!-- Node32 -->
<g id="node14" class="node">
<title>Node32</title>
<g id="a_node14"><a xlink:href="Array_8h.html" target="_top" xlink:title="Header file for class Cantera::Array2D. ">
<polygon fill="#ffffff" stroke="#000000" points="775.2954,-165.5 775.2954,-183.5 883.3853,-183.5 883.3853,-165.5 775.2954,-165.5"/>
<text text-anchor="middle" x="829.3403" y="-171.5" font-family="Helvetica,sans-Serif" font-size="10.00" fill="#000000">cantera/base/Array.h</text>
</a>
</g>
</g>
<!-- Node31&#45;&gt;Node32 -->
<g id="edge21" class="edge">
<title>Node31&#45;&gt;Node32</title>
<path fill="none" stroke="#191970" d="M825.166,-220.4179C825.8207,-213.2164 826.7589,-202.8962 827.58,-193.8632"/>
<polygon fill="#191970" stroke="#191970" points="831.0769,-194.0553 828.4967,-183.7795 824.1057,-193.4215 831.0769,-194.0553"/>
</g>
<!-- Node33 -->
<g id="node15" class="node">
<title>Node33</title>
<g id="a_node15"><a xlink:href="utilities_8h.html" target="_top" xlink:title="Various templated functions that carry out common vector operations (see Templated Utility Functions)...">
<polygon fill="#ffffff" stroke="#000000" points="873.8872,-110.5 873.8872,-128.5 928.7935,-128.5 928.7935,-110.5 873.8872,-110.5"/>
<text text-anchor="middle" x="901.3403" y="-116.5" font-family="Helvetica,sans-Serif" font-size="10.00" fill="#000000">utilities.h</text>
</a>
</g>
</g>
<!-- Node32&#45;&gt;Node33 -->
<g id="edge22" class="edge">
<title>Node32&#45;&gt;Node33</title>
<path fill="none" stroke="#191970" d="M841.2297,-165.4179C852.0039,-157.1876 868.1105,-144.8839 880.94,-135.0836"/>
<polygon fill="#191970" stroke="#191970" points="883.3706,-137.6313 889.1927,-128.7795 879.1213,-132.0685 883.3706,-137.6313"/>
</g>
<!-- Node36 -->
<g id="node18" class="node">
<title>Node36</title>
<polygon fill="#ffffff" stroke="#bfbfbf" points="738.168,-110.5 738.168,-128.5 792.5127,-128.5 792.5127,-110.5 738.168,-110.5"/>
<text text-anchor="middle" x="765.3403" y="-116.5" font-family="Helvetica,sans-Serif" font-size="10.00" fill="#000000">iostream</text>
</g>
<!-- Node32&#45;&gt;Node36 -->
<g id="edge27" class="edge">
<title>Node32&#45;&gt;Node36</title>
<path fill="none" stroke="#191970" d="M818.772,-165.4179C809.287,-157.2667 795.1529,-145.1201 783.8037,-135.3669"/>
<polygon fill="#191970" stroke="#191970" points="786.0037,-132.6427 776.1382,-128.7795 781.4413,-137.9516 786.0037,-132.6427"/>
</g>
<!-- Node37 -->
<g id="node19" class="node">
<title>Node37</title>
<polygon fill="#ffffff" stroke="#bfbfbf" points="810.6138,-110.5 810.6138,-128.5 856.0669,-128.5 856.0669,-110.5 810.6138,-110.5"/>
<text text-anchor="middle" x="833.3403" y="-116.5" font-family="Helvetica,sans-Serif" font-size="10.00" fill="#000000">cstring</text>
</g>
<!-- Node32&#45;&gt;Node37 -->
<g id="edge28" class="edge">
<title>Node32&#45;&gt;Node37</title>
<path fill="none" stroke="#191970" d="M830.0009,-165.4179C830.5246,-158.2164 831.2752,-147.8962 831.9321,-138.8632"/>
<polygon fill="#191970" stroke="#191970" points="835.4308,-139.007 832.6655,-128.7795 828.4492,-138.4992 835.4308,-139.007"/>
</g>
<!-- Node33&#45;&gt;Node6 -->
<g id="edge23" class="edge">
<title>Node33&#45;&gt;Node6</title>
<path fill="none" stroke="#191970" d="M909.2141,-110.0567C919.6094,-96.3991 935.0781,-71.0191 921.3403,-55 904.828,-35.7456 741.0182,-19.3286 664.8783,-12.6714"/>
<polygon fill="#191970" stroke="#191970" points="665.0046,-9.1694 654.7409,-11.7976 664.4033,-16.1436 665.0046,-9.1694"/>
</g>
<!-- Node33&#45;&gt;Node21 -->
<g id="edge24" class="edge">
<title>Node33&#45;&gt;Node21</title>
<path fill="none" stroke="#191970" d="M873.5673,-111.5025C841.5073,-102.2706 788.4668,-86.9972 751.5839,-76.3764"/>
<polygon fill="#191970" stroke="#191970" points="752.2184,-72.917 741.6404,-73.5131 750.2814,-79.6436 752.2184,-72.917"/>
</g>
<!-- Node34 -->
<g id="node16" class="node">
<title>Node34</title>
<polygon fill="#ffffff" stroke="#bfbfbf" points="783.939,-55.5 783.939,-73.5 842.7417,-73.5 842.7417,-55.5 783.939,-55.5"/>
<text text-anchor="middle" x="813.3403" y="-61.5" font-family="Helvetica,sans-Serif" font-size="10.00" fill="#000000">stdexcept</text>
</g>
<!-- Node33&#45;&gt;Node34 -->
<g id="edge25" class="edge">
<title>Node33&#45;&gt;Node34</title>
<path fill="none" stroke="#191970" d="M886.8089,-110.4179C873.179,-101.8992 852.5668,-89.0166 836.6407,-79.0627"/>
<polygon fill="#191970" stroke="#191970" points="838.2283,-75.9277 827.8933,-73.5956 834.5183,-81.8637 838.2283,-75.9277"/>
</g>
<!-- Node35 -->
<g id="node17" class="node">
<title>Node35</title>
<polygon fill="#ffffff" stroke="#bfbfbf" points="860.5571,-55.5 860.5571,-73.5 912.1235,-73.5 912.1235,-55.5 860.5571,-55.5"/>
<text text-anchor="middle" x="886.3403" y="-61.5" font-family="Helvetica,sans-Serif" font-size="10.00" fill="#000000">numeric</text>
</g>
<!-- Node33&#45;&gt;Node35 -->
<g id="edge26" class="edge">
<title>Node33&#45;&gt;Node35</title>
<path fill="none" stroke="#191970" d="M898.8634,-110.4179C896.8778,-103.1372 894.0228,-92.669 891.5401,-83.5659"/>
<polygon fill="#191970" stroke="#191970" points="894.879,-82.5062 888.8711,-73.7795 888.1257,-84.348 894.879,-82.5062"/>
</g>
</g>
</svg>
