<?xml version="1.0" encoding="UTF-8" standalone="no"?>
<!DOCTYPE svg PUBLIC "-//W3C//DTD SVG 1.1//EN"
 "http://www.w3.org/Graphics/SVG/1.1/DTD/svg11.dtd">
<!-- Generated by graphviz version 2.40.1 (20161225.0304)
 -->
<!-- Title: DustyGasTransport.h Pages: 1 -->
<svg width="272pt" height="84pt"
 viewBox="0.00 0.00 271.50 84.00" xmlns="http://www.w3.org/2000/svg" xmlns:xlink="http://www.w3.org/1999/xlink">
<g id="graph0" class="graph" transform="scale(1 1) rotate(0) translate(4 80)">
<title>DustyGasTransport.h</title>
<polygon fill="#ffffff" stroke="transparent" points="-4,4 -4,-80 267.5,-80 267.5,4 -4,4"/>
<!-- Node38 -->
<g id="node1" class="node">
<title>Node38</title>
<polygon fill="#bfbfbf" stroke="#000000" points="75.5,-56.5 75.5,-75.5 193.5,-75.5 193.5,-56.5 75.5,-56.5"/>
<text text-anchor="middle" x="134.5" y="-63.5" font-family="Helvetica,sans-Serif" font-size="10.00" fill="#000000">DustyGasTransport.h</text>
</g>
<!-- Node39 -->
<g id="node2" class="node">
<title>Node39</title>
<g id="a_node2"><a xlink:href="DustyGasTransport_8cpp.html" target="_top" xlink:title="Implementation file for class DustyGasTransport. ">
<polygon fill="#ffffff" stroke="#000000" points="0,-.5 0,-19.5 129,-19.5 129,-.5 0,-.5"/>
<text text-anchor="middle" x="64.5" y="-7.5" font-family="Helvetica,sans-Serif" font-size="10.00" fill="#000000">DustyGasTransport.cpp</text>
</a>
</g>
</g>
<!-- Node38&#45;&gt;Node39 -->
<g id="edge1" class="edge">
<title>Node38&#45;&gt;Node39</title>
<path fill="none" stroke="#191970" d="M114.41,-49.928C102.1747,-40.1397 86.9493,-27.9595 76.5533,-19.6427"/>
<polygon fill="#191970" stroke="#191970" points="112.3118,-52.7316 122.3069,-56.2455 116.6847,-47.2655 112.3118,-52.7316"/>
</g>
<!-- Node40 -->
<g id="node3" class="node">
<title>Node40</title>
<g id="a_node3"><a xlink:href="TransportFactory_8cpp.html" target="_top" xlink:title="Implementation file for class TransportFactory. ">
<polygon fill="#ffffff" stroke="#000000" points="147.5,-.5 147.5,-19.5 263.5,-19.5 263.5,-.5 147.5,-.5"/>
<text text-anchor="middle" x="205.5" y="-7.5" font-family="Helvetica,sans-Serif" font-size="10.00" fill="#000000">TransportFactory.cpp</text>
</a>
</g>
</g>
<!-- Node38&#45;&gt;Node40 -->
<g id="edge2" class="edge">
<title>Node38&#45;&gt;Node40</title>
<path fill="none" stroke="#191970" d="M154.877,-49.928C167.2871,-40.1397 182.73,-27.9595 193.2745,-19.6427"/>
<polygon fill="#191970" stroke="#191970" points="152.5514,-47.3046 146.8673,-56.2455 156.8864,-52.8007 152.5514,-47.3046"/>
</g>
</g>
</svg>
