<?xml version="1.0" encoding="UTF-8" standalone="no"?>
<!DOCTYPE svg PUBLIC "-//W3C//DTD SVG 1.1//EN"
 "http://www.w3.org/Graphics/SVG/1.1/DTD/svg11.dtd">
<!-- Generated by graphviz version 2.28.0 (20120425.2022)
 -->
<!-- Title: DustyGasTransport.cpp Pages: 1 -->
<svg width="832pt" height="544pt"
 viewBox="0.00 0.00 832.00 544.00" xmlns="http://www.w3.org/2000/svg" xmlns:xlink="http://www.w3.org/1999/xlink">
<g id="graph1" class="graph" transform="scale(1 1) rotate(0) translate(4 540)">
<title>DustyGasTransport.cpp</title>
<polygon fill="white" stroke="white" points="-4,5 -4,-540 829,-540 829,5 -4,5"/>
<!-- Node1 -->
<g id="node1" class="node"><title>Node1</title>
<polygon fill="#bfbfbf" stroke="black" points="503,-516.5 503,-535.5 625,-535.5 625,-516.5 503,-516.5"/>
<text text-anchor="middle" x="564" y="-523.5" font-family="FreeSans" font-size="10.00">DustyGasTransport.cpp</text>
</g>
<!-- Node2 -->
<g id="node3" class="node"><title>Node2</title>
<a xlink:href="ThermoPhase_8h.html" target="_top" xlink:title="Header file for class ThermoPhase, the base class for phases with thermodynamic properties, and the text for the Module thermoprops (see Thermodynamic Properties and class ThermoPhase). ">
<polygon fill="white" stroke="black" points="484,-336.5 484,-355.5 644,-355.5 644,-336.5 484,-336.5"/>
<text text-anchor="middle" x="564" y="-343.5" font-family="FreeSans" font-size="10.00">cantera/thermo/ThermoPhase.h</text>
</a>
</g>
<!-- Node1&#45;&gt;Node2 -->
<g id="edge2" class="edge"><title>Node1&#45;&gt;Node2</title>
<path fill="none" stroke="midnightblue" d="M564,-516.415C564,-489.227 564,-404.563 564,-366.217"/>
<polygon fill="midnightblue" stroke="midnightblue" points="567.5,-365.918 564,-355.918 560.5,-365.919 567.5,-365.918"/>
</g>
<!-- Node18 -->
<g id="node44" class="node"><title>Node18</title>
<a xlink:href="DustyGasTransport_8h.html" target="_top" xlink:title="Headers for the DustyGasTransport object, which models transport properties in porous media using the...">
<polygon fill="white" stroke="black" points="594,-449 594,-479 734,-479 734,-449 594,-449"/>
<text text-anchor="start" x="602" y="-467" font-family="FreeSans" font-size="10.00">cantera/transport/DustyGas</text>
<text text-anchor="middle" x="664" y="-456" font-family="FreeSans" font-size="10.00">Transport.h</text>
</a>
</g>
<!-- Node1&#45;&gt;Node18 -->
<g id="edge52" class="edge"><title>Node1&#45;&gt;Node18</title>
<path fill="none" stroke="midnightblue" d="M578.328,-516.403C592.124,-508.125 613.482,-495.311 631.421,-484.547"/>
<polygon fill="midnightblue" stroke="midnightblue" points="633.658,-487.287 640.432,-479.141 630.056,-481.285 633.658,-487.287"/>
</g>
<!-- Node21 -->
<g id="node54" class="node"><title>Node21</title>
<a xlink:href="stringUtils_8h.html" target="_top" xlink:title="Contains declarations for string manipulation functions within Cantera. ">
<polygon fill="white" stroke="black" points="-0.5,-112.5 -0.5,-131.5 128.5,-131.5 128.5,-112.5 -0.5,-112.5"/>
<text text-anchor="middle" x="64" y="-119.5" font-family="FreeSans" font-size="10.00">cantera/base/stringUtils.h</text>
</a>
</g>
<!-- Node1&#45;&gt;Node21 -->
<g id="edge66" class="edge"><title>Node1&#45;&gt;Node21</title>
<path fill="none" stroke="midnightblue" d="M502.913,-519.658C388.421,-507.949 153,-475.105 153,-403 153,-403 153,-403 153,-233 153,-190.846 113.01,-155.779 86.6419,-137.239"/>
<polygon fill="midnightblue" stroke="midnightblue" points="88.5441,-134.3 78.2994,-131.599 84.6234,-140.099 88.5441,-134.3"/>
</g>
<!-- Node3 -->
<g id="node5" class="node"><title>Node3</title>
<a xlink:href="Phase_8h.html" target="_top" xlink:title="Header file for class Phase. ">
<polygon fill="white" stroke="black" points="469.5,-280.5 469.5,-299.5 522.5,-299.5 522.5,-280.5 469.5,-280.5"/>
<text text-anchor="middle" x="496" y="-287.5" font-family="FreeSans" font-size="10.00">Phase.h</text>
</a>
</g>
<!-- Node2&#45;&gt;Node3 -->
<g id="edge4" class="edge"><title>Node2&#45;&gt;Node3</title>
<path fill="none" stroke="midnightblue" d="M553.075,-336.324C542.825,-328.185 527.279,-315.839 514.999,-306.087"/>
<polygon fill="midnightblue" stroke="midnightblue" points="517.132,-303.312 507.124,-299.834 512.779,-308.794 517.132,-303.312"/>
</g>
<!-- Node17 -->
<g id="node41" class="node"><title>Node17</title>
<a xlink:href="SpeciesThermo_8h.html" target="_top" xlink:title="Virtual base class for the calculation of multiple&#45;species thermodynamic reference&#45;state property man...">
<polygon fill="white" stroke="black" points="591.5,-280.5 591.5,-299.5 688.5,-299.5 688.5,-280.5 591.5,-280.5"/>
<text text-anchor="middle" x="640" y="-287.5" font-family="FreeSans" font-size="10.00">SpeciesThermo.h</text>
</a>
</g>
<!-- Node2&#45;&gt;Node17 -->
<g id="edge48" class="edge"><title>Node2&#45;&gt;Node17</title>
<path fill="none" stroke="midnightblue" d="M576.211,-336.324C587.776,-328.107 605.375,-315.602 619.161,-305.807"/>
<polygon fill="midnightblue" stroke="midnightblue" points="621.443,-308.479 627.567,-299.834 617.388,-302.773 621.443,-308.479"/>
</g>
<!-- Node4 -->
<g id="node7" class="node"><title>Node4</title>
<a xlink:href="vec__functions_8h.html" target="_top" xlink:title="Templates for operations on vector&#45;like objects. ">
<polygon fill="white" stroke="black" points="277.5,-168.5 277.5,-187.5 424.5,-187.5 424.5,-168.5 277.5,-168.5"/>
<text text-anchor="middle" x="351" y="-175.5" font-family="FreeSans" font-size="10.00">cantera/base/vec_functions.h</text>
</a>
</g>
<!-- Node3&#45;&gt;Node4 -->
<g id="edge6" class="edge"><title>Node3&#45;&gt;Node4</title>
<path fill="none" stroke="midnightblue" d="M474.626,-280.351C456.437,-272.419 430.134,-259.559 410,-244 391.996,-230.087 374.925,-210.295 363.822,-196.213"/>
<polygon fill="midnightblue" stroke="midnightblue" points="366.306,-193.7 357.438,-187.902 360.755,-197.965 366.306,-193.7"/>
</g>
<!-- Node13 -->
<g id="node27" class="node"><title>Node13</title>
<a xlink:href="ctml_8h.html" target="_top" xlink:title="CTML (&quot;Cantera Markup Language&quot;) is the variant of XML that Cantera uses to store data...">
<polygon fill="white" stroke="black" points="419,-224.5 419,-243.5 523,-243.5 523,-224.5 419,-224.5"/>
<text text-anchor="middle" x="471" y="-231.5" font-family="FreeSans" font-size="10.00">cantera/base/ctml.h</text>
</a>
</g>
<!-- Node3&#45;&gt;Node13 -->
<g id="edge28" class="edge"><title>Node3&#45;&gt;Node13</title>
<path fill="none" stroke="midnightblue" d="M491.872,-280.083C488.486,-272.77 483.584,-262.181 479.381,-253.103"/>
<polygon fill="midnightblue" stroke="midnightblue" points="482.429,-251.355 475.051,-243.751 476.077,-254.296 482.429,-251.355"/>
</g>
<!-- Node16 -->
<g id="node38" class="node"><title>Node16</title>
<a xlink:href="Elements_8h.html" target="_top" xlink:title="Contains the LookupWtElements function and the definitions of element constraint types. ">
<polygon fill="white" stroke="black" points="541,-224.5 541,-243.5 677,-243.5 677,-224.5 541,-224.5"/>
<text text-anchor="middle" x="609" y="-231.5" font-family="FreeSans" font-size="10.00">cantera/thermo/Elements.h</text>
</a>
</g>
<!-- Node3&#45;&gt;Node16 -->
<g id="edge44" class="edge"><title>Node3&#45;&gt;Node16</title>
<path fill="none" stroke="midnightblue" d="M513.905,-280.444C532.254,-271.675 561.005,-257.935 582.094,-247.858"/>
<polygon fill="midnightblue" stroke="midnightblue" points="583.665,-250.986 591.179,-243.516 580.647,-244.67 583.665,-250.986"/>
</g>
<!-- Node5 -->
<g id="node9" class="node"><title>Node5</title>
<a xlink:href="ct__defs_8h.html" target="_top" xlink:title="This file contains definitions of terms that are used in internal routines and are unlikely to need m...">
<polygon fill="white" stroke="red" points="563,-56.5 563,-75.5 619,-75.5 619,-56.5 563,-56.5"/>
<text text-anchor="middle" x="591" y="-63.5" font-family="FreeSans" font-size="10.00">ct_defs.h</text>
</a>
</g>
<!-- Node4&#45;&gt;Node5 -->
<g id="edge8" class="edge"><title>Node4&#45;&gt;Node5</title>
<path fill="none" stroke="midnightblue" d="M349.686,-168.499C348.07,-154.653 347.147,-127.25 362,-112 387.948,-85.3582 494.437,-73.7858 552.614,-69.3702"/>
<polygon fill="midnightblue" stroke="midnightblue" points="553.163,-72.8397 562.885,-68.627 552.658,-65.8579 553.163,-72.8397"/>
</g>
<!-- Node7 -->
<g id="node13" class="node"><title>Node7</title>
<a xlink:href="utilities_8h.html" target="_top" xlink:title="Various templated functions that carry out common vector operations (see Templated Utility Functions)...">
<polygon fill="white" stroke="black" points="445,-112.5 445,-131.5 499,-131.5 499,-112.5 445,-112.5"/>
<text text-anchor="middle" x="472" y="-119.5" font-family="FreeSans" font-size="10.00">utilities.h</text>
</a>
</g>
<!-- Node4&#45;&gt;Node7 -->
<g id="edge12" class="edge"><title>Node4&#45;&gt;Node7</title>
<path fill="none" stroke="midnightblue" d="M370.173,-168.444C389.909,-159.636 420.885,-145.812 443.493,-135.722"/>
<polygon fill="midnightblue" stroke="midnightblue" points="445.211,-138.788 452.917,-131.516 442.359,-132.396 445.211,-138.788"/>
</g>
<!-- Node8 -->
<g id="node16" class="node"><title>Node8</title>
<polygon fill="white" stroke="#bfbfbf" points="285,-56.5 285,-75.5 343,-75.5 343,-56.5 285,-56.5"/>
<text text-anchor="middle" x="314" y="-63.5" font-family="FreeSans" font-size="10.00">algorithm</text>
</g>
<!-- Node4&#45;&gt;Node8 -->
<g id="edge22" class="edge"><title>Node4&#45;&gt;Node8</title>
<path fill="none" stroke="midnightblue" d="M284.988,-168.497C241.264,-161.354 189.552,-149.478 176,-132 170.553,-124.975 170.779,-119.194 176,-112 187.804,-95.7346 238.472,-82.2686 274.991,-74.428"/>
<polygon fill="midnightblue" stroke="midnightblue" points="275.797,-77.8353 284.872,-72.368 274.368,-70.9826 275.797,-77.8353"/>
</g>
<!-- Node9 -->
<g id="node18" class="node"><title>Node9</title>
<polygon fill="white" stroke="#bfbfbf" points="185,-112.5 185,-131.5 237,-131.5 237,-112.5 185,-112.5"/>
<text text-anchor="middle" x="211" y="-119.5" font-family="FreeSans" font-size="10.00">numeric</text>
</g>
<!-- Node4&#45;&gt;Node9 -->
<g id="edge18" class="edge"><title>Node4&#45;&gt;Node9</title>
<path fill="none" stroke="midnightblue" d="M328.817,-168.444C305.572,-159.478 268.851,-145.314 242.585,-135.183"/>
<polygon fill="midnightblue" stroke="midnightblue" points="243.669,-131.85 233.08,-131.516 241.15,-138.381 243.669,-131.85"/>
</g>
<!-- Node10 -->
<g id="node20" class="node"><title>Node10</title>
<polygon fill="white" stroke="#bfbfbf" points="255.5,-112.5 255.5,-131.5 314.5,-131.5 314.5,-112.5 255.5,-112.5"/>
<text text-anchor="middle" x="285" y="-119.5" font-family="FreeSans" font-size="10.00">functional</text>
</g>
<!-- Node4&#45;&gt;Node10 -->
<g id="edge20" class="edge"><title>Node4&#45;&gt;Node10</title>
<path fill="none" stroke="midnightblue" d="M340.396,-168.324C330.544,-160.263 315.649,-148.077 303.785,-138.369"/>
<polygon fill="midnightblue" stroke="midnightblue" points="305.753,-135.457 295.797,-131.834 301.32,-140.875 305.753,-135.457"/>
</g>
<!-- Node11 -->
<g id="node23" class="node"><title>Node11</title>
<polygon fill="white" stroke="#bfbfbf" points="371,-112.5 371,-131.5 427,-131.5 427,-112.5 371,-112.5"/>
<text text-anchor="middle" x="399" y="-119.5" font-family="FreeSans" font-size="10.00">iostream</text>
</g>
<!-- Node4&#45;&gt;Node11 -->
<g id="edge24" class="edge"><title>Node4&#45;&gt;Node11</title>
<path fill="none" stroke="midnightblue" d="M358.926,-168.083C365.846,-160.298 376.065,-148.801 384.452,-139.367"/>
<polygon fill="midnightblue" stroke="midnightblue" points="387.194,-141.55 391.221,-131.751 381.962,-136.9 387.194,-141.55"/>
</g>
<!-- Node12 -->
<g id="node25" class="node"><title>Node12</title>
<polygon fill="white" stroke="#bfbfbf" points="517,-112.5 517,-131.5 563,-131.5 563,-112.5 517,-112.5"/>
<text text-anchor="middle" x="540" y="-119.5" font-family="FreeSans" font-size="10.00">cstring</text>
</g>
<!-- Node4&#45;&gt;Node12 -->
<g id="edge26" class="edge"><title>Node4&#45;&gt;Node12</title>
<path fill="none" stroke="midnightblue" d="M380.948,-168.444C415.242,-158.645 471.263,-142.639 506.847,-132.472"/>
<polygon fill="midnightblue" stroke="midnightblue" points="508.093,-135.756 516.746,-129.644 506.17,-129.026 508.093,-135.756"/>
</g>
<!-- Node6 -->
<g id="node11" class="node"><title>Node6</title>
<polygon fill="white" stroke="#bfbfbf" points="394.5,-0.5 394.5,-19.5 435.5,-19.5 435.5,-0.5 394.5,-0.5"/>
<text text-anchor="middle" x="415" y="-7.5" font-family="FreeSans" font-size="10.00">string</text>
</g>
<!-- Node5&#45;&gt;Node6 -->
<g id="edge10" class="edge"><title>Node5&#45;&gt;Node6</title>
<path fill="none" stroke="midnightblue" d="M563.112,-56.4435C530.962,-46.5794 478.308,-30.424 445.208,-20.2685"/>
<polygon fill="midnightblue" stroke="midnightblue" points="446.195,-16.9102 435.608,-17.323 444.142,-23.6023 446.195,-16.9102"/>
</g>
<!-- Node7&#45;&gt;Node5 -->
<g id="edge14" class="edge"><title>Node7&#45;&gt;Node5</title>
<path fill="none" stroke="midnightblue" d="M490.856,-112.444C510.266,-103.636 540.73,-89.8116 562.965,-79.722"/>
<polygon fill="midnightblue" stroke="midnightblue" points="564.572,-82.836 572.232,-75.5164 561.68,-76.4615 564.572,-82.836"/>
</g>
<!-- Node7&#45;&gt;Node8 -->
<g id="edge16" class="edge"><title>Node7&#45;&gt;Node8</title>
<path fill="none" stroke="midnightblue" d="M446.964,-112.444C420.384,-103.359 378.191,-88.9388 348.477,-78.7831"/>
<polygon fill="midnightblue" stroke="midnightblue" points="349.513,-75.4386 338.918,-75.5164 347.249,-82.0625 349.513,-75.4386"/>
</g>
<!-- Node13&#45;&gt;Node5 -->
<g id="edge30" class="edge"><title>Node13&#45;&gt;Node5</title>
<path fill="none" stroke="midnightblue" d="M506.306,-224.465C527.336,-217.734 553.13,-206.343 570,-188 595.774,-159.976 595.808,-112.172 593.472,-85.8193"/>
<polygon fill="midnightblue" stroke="midnightblue" points="596.927,-85.2202 592.355,-75.663 589.969,-85.9858 596.927,-85.2202"/>
</g>
<!-- Node14 -->
<g id="node30" class="node"><title>Node14</title>
<a xlink:href="xml_8h.html" target="_top" xlink:title="Classes providing support for XML data files. ">
<polygon fill="white" stroke="red" points="451,-168.5 451,-187.5 491,-187.5 491,-168.5 451,-168.5"/>
<text text-anchor="middle" x="471" y="-175.5" font-family="FreeSans" font-size="10.00">xml.h</text>
</a>
</g>
<!-- Node13&#45;&gt;Node14 -->
<g id="edge32" class="edge"><title>Node13&#45;&gt;Node14</title>
<path fill="none" stroke="midnightblue" d="M471,-224.083C471,-217.006 471,-206.861 471,-197.986"/>
<polygon fill="midnightblue" stroke="midnightblue" points="474.5,-197.751 471,-187.751 467.5,-197.751 474.5,-197.751"/>
</g>
<!-- Node15 -->
<g id="node32" class="node"><title>Node15</title>
<a xlink:href="Array_8h.html" target="_top" xlink:title="Header file for class Cantera::Array2D. ">
<polygon fill="white" stroke="red" points="513,-168.5 513,-187.5 561,-187.5 561,-168.5 513,-168.5"/>
<text text-anchor="middle" x="537" y="-175.5" font-family="FreeSans" font-size="10.00">Array.h</text>
</a>
</g>
<!-- Node13&#45;&gt;Node15 -->
<g id="edge34" class="edge"><title>Node13&#45;&gt;Node15</title>
<path fill="none" stroke="midnightblue" d="M481.604,-224.324C491.456,-216.263 506.351,-204.077 518.215,-194.369"/>
<polygon fill="midnightblue" stroke="midnightblue" points="520.68,-196.875 526.203,-187.834 516.247,-191.457 520.68,-196.875"/>
</g>
<!-- Node15&#45;&gt;Node5 -->
<g id="edge36" class="edge"><title>Node15&#45;&gt;Node5</title>
<path fill="none" stroke="midnightblue" d="M545.33,-168.386C553.217,-159.801 564.88,-145.923 572,-132 579.528,-117.28 584.518,-99.1181 587.488,-85.7376"/>
<polygon fill="midnightblue" stroke="midnightblue" points="590.945,-86.3013 589.518,-75.803 584.087,-84.8997 590.945,-86.3013"/>
</g>
<!-- Node15&#45;&gt;Node7 -->
<g id="edge38" class="edge"><title>Node15&#45;&gt;Node7</title>
<path fill="none" stroke="midnightblue" d="M526.557,-168.324C516.854,-160.263 502.185,-148.077 490.5,-138.369"/>
<polygon fill="midnightblue" stroke="midnightblue" points="492.562,-135.532 482.633,-131.834 488.089,-140.916 492.562,-135.532"/>
</g>
<!-- Node15&#45;&gt;Node11 -->
<g id="edge40" class="edge"><title>Node15&#45;&gt;Node11</title>
<path fill="none" stroke="midnightblue" d="M515.133,-168.444C492.221,-159.478 456.025,-145.314 430.134,-135.183"/>
<polygon fill="midnightblue" stroke="midnightblue" points="431.352,-131.901 420.764,-131.516 428.801,-138.42 431.352,-131.901"/>
</g>
<!-- Node15&#45;&gt;Node12 -->
<g id="edge42" class="edge"><title>Node15&#45;&gt;Node12</title>
<path fill="none" stroke="midnightblue" d="M537.495,-168.083C537.889,-161.006 538.452,-150.861 538.945,-141.986"/>
<polygon fill="midnightblue" stroke="midnightblue" points="542.454,-141.93 539.514,-131.751 535.464,-141.542 542.454,-141.93"/>
</g>
<!-- Node16&#45;&gt;Node5 -->
<g id="edge46" class="edge"><title>Node16&#45;&gt;Node5</title>
<path fill="none" stroke="midnightblue" d="M618.288,-224.395C626.581,-216.025 638.144,-202.483 643,-188 653.738,-155.975 657.042,-142.721 643,-112 637.223,-99.3602 625.948,-88.911 615.369,-81.2737"/>
<polygon fill="midnightblue" stroke="midnightblue" points="617.042,-78.1817 606.783,-75.5333 613.151,-84.0009 617.042,-78.1817"/>
</g>
<!-- Node17&#45;&gt;Node5 -->
<g id="edge50" class="edge"><title>Node17&#45;&gt;Node5</title>
<path fill="none" stroke="midnightblue" d="M653.787,-280.189C664.826,-272.241 679.502,-259.447 686,-244 701.471,-207.223 714.5,-188.622 661,-112 651.323,-98.1407 635.87,-87.5502 621.942,-80.1355"/>
<polygon fill="midnightblue" stroke="midnightblue" points="623.145,-76.8252 612.633,-75.5084 620.03,-83.0936 623.145,-76.8252"/>
</g>
<!-- Node19 -->
<g id="node46" class="node"><title>Node19</title>
<a xlink:href="TransportBase_8h.html" target="_top" xlink:title="Headers for the Transport object, which is the virtual base class for all transport property evaluato...">
<polygon fill="white" stroke="black" points="618.5,-392.5 618.5,-411.5 709.5,-411.5 709.5,-392.5 618.5,-392.5"/>
<text text-anchor="middle" x="664" y="-399.5" font-family="FreeSans" font-size="10.00">TransportBase.h</text>
</a>
</g>
<!-- Node18&#45;&gt;Node19 -->
<g id="edge54" class="edge"><title>Node18&#45;&gt;Node19</title>
<path fill="none" stroke="midnightblue" d="M664,-448.781C664,-440.781 664,-430.689 664,-422.017"/>
<polygon fill="midnightblue" stroke="midnightblue" points="667.5,-421.73 664,-411.731 660.5,-421.731 667.5,-421.73"/>
</g>
<!-- Node20 -->
<g id="node49" class="node"><title>Node20</title>
<a xlink:href="DenseMatrix_8h.html" target="_top" xlink:title="Headers for the DenseMatrix object, which deals with dense rectangular matrices and description of th...">
<polygon fill="white" stroke="black" points="662.5,-336.5 662.5,-355.5 823.5,-355.5 823.5,-336.5 662.5,-336.5"/>
<text text-anchor="middle" x="743" y="-343.5" font-family="FreeSans" font-size="10.00">cantera/numerics/DenseMatrix.h</text>
</a>
</g>
<!-- Node18&#45;&gt;Node20 -->
<g id="edge64" class="edge"><title>Node18&#45;&gt;Node20</title>
<path fill="none" stroke="midnightblue" d="M682.805,-448.859C694.248,-439.455 708.45,-426.246 718,-412 727.668,-397.578 734.357,-378.881 738.366,-365.245"/>
<polygon fill="midnightblue" stroke="midnightblue" points="741.749,-366.141 741.012,-355.572 734.997,-364.294 741.749,-366.141"/>
</g>
<!-- Node19&#45;&gt;Node2 -->
<g id="edge56" class="edge"><title>Node19&#45;&gt;Node2</title>
<path fill="none" stroke="midnightblue" d="M647.933,-392.324C632.042,-383.743 607.493,-370.486 589.042,-360.522"/>
<polygon fill="midnightblue" stroke="midnightblue" points="590.489,-357.326 580.027,-355.655 587.163,-363.486 590.489,-357.326"/>
</g>
<!-- Node19&#45;&gt;Node20 -->
<g id="edge58" class="edge"><title>Node19&#45;&gt;Node20</title>
<path fill="none" stroke="midnightblue" d="M676.693,-392.324C688.901,-383.979 707.578,-371.212 722.003,-361.352"/>
<polygon fill="midnightblue" stroke="midnightblue" points="724.058,-364.187 730.339,-355.655 720.108,-358.408 724.058,-364.187"/>
</g>
<!-- Node20&#45;&gt;Node5 -->
<g id="edge60" class="edge"><title>Node20&#45;&gt;Node5</title>
<path fill="none" stroke="midnightblue" d="M748.284,-336.231C758.725,-318.043 781,-274.601 781,-235 781,-235 781,-235 781,-177 781,-107.533 684.7,-81.2245 629.217,-71.8317"/>
<polygon fill="midnightblue" stroke="midnightblue" points="629.46,-68.3265 619.035,-70.2194 628.365,-75.2404 629.46,-68.3265"/>
</g>
<!-- Node20&#45;&gt;Node15 -->
<g id="edge62" class="edge"><title>Node20&#45;&gt;Node15</title>
<path fill="none" stroke="midnightblue" d="M741.406,-336.209C736.911,-313.982 722.041,-255.099 686,-224 653.509,-195.964 603.988,-185.395 571.071,-181.411"/>
<polygon fill="midnightblue" stroke="midnightblue" points="571.325,-177.918 561.009,-180.334 570.58,-184.878 571.325,-177.918"/>
</g>
<!-- Node21&#45;&gt;Node5 -->
<g id="edge68" class="edge"><title>Node21&#45;&gt;Node5</title>
<path fill="none" stroke="midnightblue" d="M128.621,-114.379C239.662,-103 463.356,-80.0792 552.784,-70.9159"/>
<polygon fill="midnightblue" stroke="midnightblue" points="553.168,-74.3949 562.759,-69.8937 552.455,-67.4314 553.168,-74.3949"/>
</g>
<!-- Node21&#45;&gt;Node6 -->
<g id="edge70" class="edge"><title>Node21&#45;&gt;Node6</title>
<path fill="none" stroke="midnightblue" d="M91.2503,-112.46C155.751,-92.2462 317.397,-41.5879 384.775,-20.4722"/>
<polygon fill="midnightblue" stroke="midnightblue" points="385.885,-23.7923 394.381,-17.4619 383.791,-17.1127 385.885,-23.7923"/>
</g>
</g>
</svg>
