<?xml version="1.0" encoding="UTF-8" standalone="no"?>
<!DOCTYPE svg PUBLIC "-//W3C//DTD SVG 1.1//EN"
 "http://www.w3.org/Graphics/SVG/1.1/DTD/svg11.dtd">
<!-- Generated by graphviz version 2.40.1 (20161225.0304)
 -->
<!-- Title: EdgePhase.h Pages: 1 -->
<svg width="220pt" height="84pt"
 viewBox="0.00 0.00 220.00 84.00" xmlns="http://www.w3.org/2000/svg" xmlns:xlink="http://www.w3.org/1999/xlink">
<g id="graph0" class="graph" transform="scale(1 1) rotate(0) translate(4 80)">
<title>EdgePhase.h</title>
<polygon fill="#ffffff" stroke="transparent" points="-4,4 -4,-80 216,-80 216,4 -4,4"/>
<!-- Node31 -->
<g id="node1" class="node">
<title>Node31</title>
<polygon fill="#bfbfbf" stroke="#000000" points="60.5,-56.5 60.5,-75.5 139.5,-75.5 139.5,-56.5 60.5,-56.5"/>
<text text-anchor="middle" x="100" y="-63.5" font-family="Helvetica,sans-Serif" font-size="10.00" fill="#000000">EdgePhase.h</text>
</g>
<!-- Node32 -->
<g id="node2" class="node">
<title>Node32</title>
<g id="a_node2"><a xlink:href="SurfPhase_8cpp.html" target="_top" xlink:title="Definitions for a simple thermodynamic model of a surface phase derived from ThermoPhase, assuming an ideal solution model (see Thermodynamic Properties and class SurfPhase). ">
<polygon fill="#ffffff" stroke="#000000" points="0,-.5 0,-19.5 86,-19.5 86,-.5 0,-.5"/>
<text text-anchor="middle" x="43" y="-7.5" font-family="Helvetica,sans-Serif" font-size="10.00" fill="#000000">SurfPhase.cpp</text>
</a>
</g>
</g>
<!-- Node31&#45;&gt;Node32 -->
<g id="edge1" class="edge">
<title>Node31&#45;&gt;Node32</title>
<path fill="none" stroke="#191970" d="M82.7729,-49.0751C72.9659,-39.4402 61.036,-27.7196 52.8149,-19.6427"/>
<polygon fill="#191970" stroke="#191970" points="80.4851,-51.734 90.0714,-56.2455 85.3909,-46.7406 80.4851,-51.734"/>
</g>
<!-- Node33 -->
<g id="node3" class="node">
<title>Node33</title>
<g id="a_node3"><a xlink:href="ThermoFactory_8cpp.html" target="_top" xlink:title="Definitions for the factory class that can create known ThermoPhase objects (see Thermodynamic Proper...">
<polygon fill="#ffffff" stroke="#000000" points="104,-.5 104,-19.5 212,-19.5 212,-.5 104,-.5"/>
<text text-anchor="middle" x="158" y="-7.5" font-family="Helvetica,sans-Serif" font-size="10.00" fill="#000000">ThermoFactory.cpp</text>
</a>
</g>
</g>
<!-- Node31&#45;&gt;Node33 -->
<g id="edge2" class="edge">
<title>Node31&#45;&gt;Node33</title>
<path fill="none" stroke="#191970" d="M117.5293,-49.0751C127.5083,-39.4402 139.6476,-27.7196 148.0129,-19.6427"/>
<polygon fill="#191970" stroke="#191970" points="114.8658,-46.7817 110.1028,-56.2455 119.728,-51.8175 114.8658,-46.7817"/>
</g>
</g>
</svg>
