<?xml version="1.0" encoding="UTF-8" standalone="no"?>
<!DOCTYPE svg PUBLIC "-//W3C//DTD SVG 1.1//EN"
 "http://www.w3.org/Graphics/SVG/1.1/DTD/svg11.dtd">
<!-- Generated by graphviz version 2.26.3 (20100126.1600)
 -->
<!-- Title: electrolyteThermo.h Pages: 1 -->
<svg width="1079pt" height="448pt"
 viewBox="0.00 0.00 1079.38 448.00" xmlns="http://www.w3.org/2000/svg" xmlns:xlink="http://www.w3.org/1999/xlink">
<g id="graph1" class="graph" transform="scale(1 1) rotate(0) translate(4 444)">
<title>electrolyteThermo.h</title>
<polygon fill="white" stroke="white" points="-4,5 -4,-444 1076.38,-444 1076.38,5 -4,5"/>
<!-- Node1 -->
<g id="node1" class="node"><title>Node1</title>
<polygon fill="#bfbfbf" stroke="black" points="559.879,-419 559.879,-439 660.879,-439 660.879,-419 559.879,-419"/>
<text text-anchor="middle" x="610.379" y="-426" font-family="FreeSans" font-size="10.00">electrolyteThermo.h</text>
</g>
<!-- Node2 -->
<g id="node3" class="node"><title>Node2</title>
<a xlink:href="electrolytes_8h.html" target="_top" xlink:title="Header file for a common definitions used in electrolytes thermodynamics. ">
<polygon fill="white" stroke="black" points="477.379,-303 477.379,-323 583.379,-323 583.379,-303 477.379,-303"/>
<text text-anchor="middle" x="530.379" y="-310" font-family="FreeSans" font-size="10.00">thermo/electrolytes.h</text>
</a>
</g>
<!-- Node1&#45;&gt;Node2 -->
<g id="edge2" class="edge"><title>Node1&#45;&gt;Node2</title>
<path fill="none" stroke="midnightblue" d="M605.642,-418.751C599.036,-404.889 586.292,-379.64 572.379,-360 565.093,-349.714 555.86,-339.169 547.908,-330.681"/>
<polygon fill="midnightblue" stroke="midnightblue" points="550.229,-328.044 540.781,-323.248 545.176,-332.888 550.229,-328.044"/>
</g>
<!-- Node3 -->
<g id="node5" class="node"><title>Node3</title>
<a xlink:href="MolalityVPSSTP_8h.html" target="_top" xlink:title="Header for intermediate ThermoPhase object for phases which employ molality based activity coefficien...">
<polygon fill="white" stroke="black" points="330.879,-303 330.879,-323 459.879,-323 459.879,-303 330.879,-303"/>
<text text-anchor="middle" x="395.379" y="-310" font-family="FreeSans" font-size="10.00">thermo/MolalityVPSSTP.h</text>
</a>
</g>
<!-- Node1&#45;&gt;Node3 -->
<g id="edge4" class="edge"><title>Node1&#45;&gt;Node3</title>
<path fill="none" stroke="midnightblue" d="M559.848,-421.335C527.687,-414.704 486.243,-402.786 454.379,-382 434.482,-369.021 417.563,-347.408 407.012,-331.826"/>
<polygon fill="midnightblue" stroke="midnightblue" points="409.681,-329.51 401.296,-323.035 403.813,-333.326 409.681,-329.51"/>
</g>
<!-- Node4 -->
<g id="node7" class="node"><title>Node4</title>
<a xlink:href="VPStandardStateTP_8h.html" target="_top" xlink:title="Header file for a derived class of ThermoPhase that handles variable pressure standard state methods ...">
<polygon fill="white" stroke="black" points="372.379,-239 372.379,-259 484.379,-259 484.379,-239 372.379,-239"/>
<text text-anchor="middle" x="428.379" y="-246" font-family="FreeSans" font-size="10.00">VPStandardStateTP.h</text>
</a>
</g>
<!-- Node1&#45;&gt;Node4 -->
<g id="edge28" class="edge"><title>Node1&#45;&gt;Node4</title>
<path fill="none" stroke="midnightblue" d="M612.234,-418.675C615.858,-395.008 621.198,-336.249 592.379,-302 584.639,-292.801 521.986,-274.265 476.415,-261.74"/>
<polygon fill="midnightblue" stroke="midnightblue" points="477.257,-258.342 466.688,-259.086 475.414,-265.095 477.257,-258.342"/>
</g>
<!-- Node13 -->
<g id="node28" class="node"><title>Node13</title>
<a xlink:href="IdealMolalSoln_8h.html" target="_top" xlink:title="ThermoPhase object for the ideal molal equation of state (see Thermodynamic Properties and class Idea...">
<polygon fill="white" stroke="black" points="286.879,-361 286.879,-381 407.879,-381 407.879,-361 286.879,-361"/>
<text text-anchor="middle" x="347.379" y="-368" font-family="FreeSans" font-size="10.00">thermo/IdealMolalSoln.h</text>
</a>
</g>
<!-- Node1&#45;&gt;Node13 -->
<g id="edge30" class="edge"><title>Node1&#45;&gt;Node13</title>
<path fill="none" stroke="midnightblue" d="M564.868,-418.963C519.848,-409.035 450.883,-393.826 402.719,-383.204"/>
<polygon fill="midnightblue" stroke="midnightblue" points="403.292,-379.747 392.773,-381.011 401.784,-386.582 403.292,-379.747"/>
</g>
<!-- Node14 -->
<g id="node31" class="node"><title>Node14</title>
<a xlink:href="WaterPropsIAPWS_8h.html" target="_top" xlink:title="Headers for a class for calculating the equation of state of water from the IAPWS 1995 Formulation ba...">
<polygon fill="white" stroke="black" points="21.3789,-117 21.3789,-137 161.379,-137 161.379,-117 21.3789,-117"/>
<text text-anchor="middle" x="91.3789" y="-124" font-family="FreeSans" font-size="10.00">thermo/WaterPropsIAPWS.h</text>
</a>
</g>
<!-- Node1&#45;&gt;Node14 -->
<g id="edge34" class="edge"><title>Node1&#45;&gt;Node14</title>
<path fill="none" stroke="midnightblue" d="M559.787,-428.244C424.441,-425.771 61.5122,-416.004 20.3789,-382 -4.13683,-361.734 1.37894,-344.808 1.37894,-313 1.37894,-313 1.37894,-313 1.37894,-249 1.37894,-203.875 41.7448,-164.473 68.4098,-143.368"/>
<polygon fill="midnightblue" stroke="midnightblue" points="70.6954,-146.026 76.5173,-137.174 66.446,-140.463 70.6954,-146.026"/>
</g>
<!-- Node16 -->
<g id="node37" class="node"><title>Node16</title>
<a xlink:href="WaterProps_8h.html" target="_top" xlink:title="Header for a class used to house several approximation routines for properties of water...">
<polygon fill="white" stroke="black" points="964.879,-175 964.879,-195 1071.88,-195 1071.88,-175 964.879,-175"/>
<text text-anchor="middle" x="1018.38" y="-182" font-family="FreeSans" font-size="10.00">thermo/WaterProps.h</text>
</a>
</g>
<!-- Node1&#45;&gt;Node16 -->
<g id="edge42" class="edge"><title>Node1&#45;&gt;Node16</title>
<path fill="none" stroke="midnightblue" d="M660.951,-426.563C723.007,-422.384 830.769,-411.241 918.379,-382 970.06,-364.751 998.414,-370.76 1026.38,-324 1048.6,-286.842 1035.81,-233.634 1026.12,-205.026"/>
<polygon fill="midnightblue" stroke="midnightblue" points="1029.32,-203.576 1022.64,-195.351 1022.73,-205.946 1029.32,-203.576"/>
</g>
<!-- Node17 -->
<g id="node40" class="node"><title>Node17</title>
<a xlink:href="PDSS_8h.html" target="_top" xlink:title="Declarations for the virtual base class PDSS (pressure dependent standard state) which handles calcul...">
<polygon fill="white" stroke="black" points="833.379,-239 833.379,-259 917.379,-259 917.379,-239 833.379,-239"/>
<text text-anchor="middle" x="875.379" y="-246" font-family="FreeSans" font-size="10.00">thermo/PDSS.h</text>
</a>
</g>
<!-- Node1&#45;&gt;Node17 -->
<g id="edge46" class="edge"><title>Node1&#45;&gt;Node17</title>
<path fill="none" stroke="midnightblue" d="M660.962,-421.911C717.725,-411.146 808.158,-385.028 856.379,-324 868.761,-308.329 873.169,-285.562 874.689,-269.227"/>
<polygon fill="midnightblue" stroke="midnightblue" points="878.191,-269.318 875.343,-259.113 871.205,-268.866 878.191,-269.318"/>
</g>
<!-- Node18 -->
<g id="node44" class="node"><title>Node18</title>
<a xlink:href="PDSS__Water_8h.html" target="_top" xlink:title="Implementation of a pressure dependent standard state virtual function for a Pure Water Phase (see Sp...">
<polygon fill="white" stroke="black" points="732.879,-303 732.879,-323 847.879,-323 847.879,-303 732.879,-303"/>
<text text-anchor="middle" x="790.379" y="-310" font-family="FreeSans" font-size="10.00">thermo/PDSS_Water.h</text>
</a>
</g>
<!-- Node1&#45;&gt;Node18 -->
<g id="edge52" class="edge"><title>Node1&#45;&gt;Node18</title>
<path fill="none" stroke="midnightblue" d="M641.979,-418.842C664.607,-410.763 695.22,-398.145 719.379,-382 741.083,-367.496 762.024,-345.916 775.468,-330.761"/>
<polygon fill="midnightblue" stroke="midnightblue" points="778.215,-332.936 782.123,-323.088 772.927,-328.349 778.215,-332.936"/>
</g>
<!-- Node19 -->
<g id="node49" class="node"><title>Node19</title>
<a xlink:href="PDSS__HKFT_8h.html" target="_top" xlink:title="Declarations for the class PDSS_HKFT (pressure dependent standard state) which handles calculations f...">
<polygon fill="white" stroke="black" points="902.879,-303 902.879,-323 1017.88,-323 1017.88,-303 902.879,-303"/>
<text text-anchor="middle" x="960.379" y="-310" font-family="FreeSans" font-size="10.00">thermo/PDSS_HKFT.h</text>
</a>
</g>
<!-- Node1&#45;&gt;Node19 -->
<g id="edge60" class="edge"><title>Node1&#45;&gt;Node19</title>
<path fill="none" stroke="midnightblue" d="M661.146,-424.103C730.394,-416.806 850.328,-401.788 889.379,-382 913.053,-370.004 933.998,-347.377 946.894,-331.308"/>
<polygon fill="midnightblue" stroke="midnightblue" points="949.844,-333.214 953.196,-323.164 944.308,-328.93 949.844,-333.214"/>
</g>
<!-- Node20 -->
<g id="node52" class="node"><title>Node20</title>
<a xlink:href="HMWSoln_8h.html" target="_top" xlink:title="Headers for the HMWSoln ThermoPhase object, which models concentrated electrolyte solutions (see Ther...">
<polygon fill="white" stroke="black" points="462.879,-361 462.879,-381 563.879,-381 563.879,-361 462.879,-361"/>
<text text-anchor="middle" x="513.379" y="-368" font-family="FreeSans" font-size="10.00">thermo/HMWSoln.h</text>
</a>
</g>
<!-- Node1&#45;&gt;Node20 -->
<g id="edge64" class="edge"><title>Node1&#45;&gt;Node20</title>
<path fill="none" stroke="midnightblue" d="M593.483,-418.897C578.553,-409.97 556.545,-396.811 539.373,-386.543"/>
<polygon fill="midnightblue" stroke="midnightblue" points="540.786,-383.31 530.407,-381.182 537.193,-389.318 540.786,-383.31"/>
</g>
<!-- Node21 -->
<g id="node56" class="node"><title>Node21</title>
<a xlink:href="DebyeHuckel_8h.html" target="_top" xlink:title="Headers for the DebyeHuckel ThermoPhase object, which models dilute electrolyte solutions (see Thermo...">
<polygon fill="white" stroke="black" points="155.379,-361 155.379,-381 269.379,-381 269.379,-361 155.379,-361"/>
<text text-anchor="middle" x="212.379" y="-368" font-family="FreeSans" font-size="10.00">thermo/DebyeHuckel.h</text>
</a>
</g>
<!-- Node1&#45;&gt;Node21 -->
<g id="edge70" class="edge"><title>Node1&#45;&gt;Node21</title>
<path fill="none" stroke="midnightblue" d="M559.7,-422.219C496.575,-413.685 385.153,-398.335 279.779,-382.19"/>
<polygon fill="midnightblue" stroke="midnightblue" points="280.018,-378.686 269.603,-380.625 278.955,-385.605 280.018,-378.686"/>
</g>
<!-- Node23 -->
<g id="node63" class="node"><title>Node23</title>
<a xlink:href="WaterSSTP_8h.html" target="_top" xlink:title="Declares a ThermoPhase class consisting of pure water (see Thermodynamic Properties and class WaterSS...">
<polygon fill="white" stroke="black" points="28.8789,-361 28.8789,-381 137.879,-381 137.879,-361 28.8789,-361"/>
<text text-anchor="middle" x="83.3789" y="-368" font-family="FreeSans" font-size="10.00">thermo/WaterSSTP.h</text>
</a>
</g>
<!-- Node1&#45;&gt;Node23 -->
<g id="edge80" class="edge"><title>Node1&#45;&gt;Node23</title>
<path fill="none" stroke="midnightblue" d="M559.772,-425.073C476.176,-418.324 303.784,-403.3 148.2,-382.18"/>
<polygon fill="midnightblue" stroke="midnightblue" points="148.359,-378.67 137.977,-380.78 147.41,-385.605 148.359,-378.67"/>
</g>
<!-- Node25 -->
<g id="node68" class="node"><title>Node25</title>
<a xlink:href="VPSSMgr__Water__HKFT_8h.html" target="_top" xlink:title="Declaration file for a derived class that handles the calculation of standard state thermo properties...">
<polygon fill="white" stroke="black" points="641.879,-233 641.879,-265 764.879,-265 764.879,-233 641.879,-233"/>
<text text-anchor="start" x="649.879" y="-252" font-family="FreeSans" font-size="10.00">thermo/VPSSMgr_Water</text>
<text text-anchor="middle" x="703.379" y="-240" font-family="FreeSans" font-size="10.00">_HKFT.h</text>
</a>
</g>
<!-- Node1&#45;&gt;Node25 -->
<g id="edge86" class="edge"><title>Node1&#45;&gt;Node25</title>
<path fill="none" stroke="midnightblue" d="M624.531,-418.917C635.708,-410.278 650.946,-396.896 660.379,-382 681.676,-348.368 693.336,-303.226 698.964,-275.136"/>
<polygon fill="midnightblue" stroke="midnightblue" points="702.412,-275.74 700.833,-265.264 695.534,-274.438 702.412,-275.74"/>
</g>
<!-- Node26 -->
<g id="node71" class="node"><title>Node26</title>
<a xlink:href="VPSSMgr__Water__ConstVol_8h.html" target="_top" xlink:title="Declaration file for a derived class that handles the calculation of standard state thermo properties...">
<polygon fill="white" stroke="black" points="501.879,-233 501.879,-265 624.879,-265 624.879,-233 501.879,-233"/>
<text text-anchor="start" x="509.879" y="-252" font-family="FreeSans" font-size="10.00">thermo/VPSSMgr_Water</text>
<text text-anchor="middle" x="563.379" y="-240" font-family="FreeSans" font-size="10.00">_ConstVol.h</text>
</a>
</g>
<!-- Node1&#45;&gt;Node26 -->
<g id="edge90" class="edge"><title>Node1&#45;&gt;Node26</title>
<path fill="none" stroke="midnightblue" d="M620.349,-418.834C628.318,-409.945 638.873,-396.26 643.379,-382 654.093,-348.097 660.201,-333.324 643.379,-302 636.27,-288.763 624.241,-278.274 611.641,-270.241"/>
<polygon fill="midnightblue" stroke="midnightblue" points="613.27,-267.139 602.88,-265.068 609.711,-273.166 613.27,-267.139"/>
</g>
<!-- Node3&#45;&gt;Node4 -->
<g id="edge6" class="edge"><title>Node3&#45;&gt;Node4</title>
<path fill="none" stroke="midnightblue" d="M400.681,-302.717C405.472,-293.425 412.648,-279.508 418.496,-268.168"/>
<polygon fill="midnightblue" stroke="midnightblue" points="421.727,-269.538 423.199,-259.046 415.505,-266.33 421.727,-269.538"/>
</g>
<!-- Node5 -->
<g id="node9" class="node"><title>Node5</title>
<a xlink:href="ThermoPhase_8h.html" target="_top" xlink:title="Header file for class ThermoPhase, the base class for phases with thermodynamic properties, and the text for the Module thermoprops (see Thermodynamic Properties and class ThermoPhase). ">
<polygon fill="white" stroke="black" points="386.379,-175 386.379,-195 470.379,-195 470.379,-175 386.379,-175"/>
<text text-anchor="middle" x="428.379" y="-182" font-family="FreeSans" font-size="10.00">ThermoPhase.h</text>
</a>
</g>
<!-- Node4&#45;&gt;Node5 -->
<g id="edge8" class="edge"><title>Node4&#45;&gt;Node5</title>
<path fill="none" stroke="midnightblue" d="M428.379,-238.717C428.379,-229.707 428.379,-216.347 428.379,-205.205"/>
<polygon fill="midnightblue" stroke="midnightblue" points="431.879,-205.046 428.379,-195.046 424.879,-205.046 431.879,-205.046"/>
</g>
<!-- Node10 -->
<g id="node19" class="node"><title>Node10</title>
<a xlink:href="VPSSMgr_8h.html" target="_top" xlink:title="Declaration file for a virtual base class that manages the calculation of standard state properties f...">
<polygon fill="white" stroke="black" points="615.879,-175 615.879,-195 682.879,-195 682.879,-175 615.879,-175"/>
<text text-anchor="middle" x="649.379" y="-182" font-family="FreeSans" font-size="10.00">VPSSMgr.h</text>
</a>
</g>
<!-- Node4&#45;&gt;Node10 -->
<g id="edge18" class="edge"><title>Node4&#45;&gt;Node10</title>
<path fill="none" stroke="midnightblue" d="M463.397,-238.859C502.046,-227.667 564.292,-209.641 606,-197.562"/>
<polygon fill="midnightblue" stroke="midnightblue" points="606.98,-200.922 615.612,-194.779 605.033,-194.199 606.98,-200.922"/>
</g>
<!-- Node6 -->
<g id="node11" class="node"><title>Node6</title>
<a xlink:href="Phase_8h.html" target="_top" xlink:title="Header file for class Phase. ">
<polygon fill="white" stroke="red" points="491.879,-117 491.879,-137 542.879,-137 542.879,-117 491.879,-117"/>
<text text-anchor="middle" x="517.379" y="-124" font-family="FreeSans" font-size="10.00">Phase.h</text>
</a>
</g>
<!-- Node5&#45;&gt;Node6 -->
<g id="edge10" class="edge"><title>Node5&#45;&gt;Node6</title>
<path fill="none" stroke="midnightblue" d="M443.882,-174.897C457.454,-166.052 477.4,-153.054 493.09,-142.829"/>
<polygon fill="midnightblue" stroke="midnightblue" points="495.288,-145.574 501.755,-137.182 491.466,-139.709 495.288,-145.574"/>
</g>
<!-- Node7 -->
<g id="node13" class="node"><title>Node7</title>
<a xlink:href="SpeciesThermo_8h.html" target="_top" xlink:title="Virtual base class for the calculation of multiple&#45;species thermodynamic reference&#45;state property man...">
<polygon fill="white" stroke="black" points="382.379,-117 382.379,-137 474.379,-137 474.379,-117 382.379,-117"/>
<text text-anchor="middle" x="428.379" y="-124" font-family="FreeSans" font-size="10.00">SpeciesThermo.h</text>
</a>
</g>
<!-- Node5&#45;&gt;Node7 -->
<g id="edge12" class="edge"><title>Node5&#45;&gt;Node7</title>
<path fill="none" stroke="midnightblue" d="M428.379,-174.897C428.379,-167.339 428.379,-156.748 428.379,-147.446"/>
<polygon fill="midnightblue" stroke="midnightblue" points="431.879,-147.378 428.379,-137.378 424.879,-147.378 431.879,-147.378"/>
</g>
<!-- Node8 -->
<g id="node15" class="node"><title>Node8</title>
<a xlink:href="ct__defs_8h.html" target="_top" xlink:title="This file contains definitions of terms that are used in internal routines and are unlikely to need m...">
<polygon fill="white" stroke="red" points="621.379,-59 621.379,-79 677.379,-79 677.379,-59 621.379,-59"/>
<text text-anchor="middle" x="649.379" y="-66" font-family="FreeSans" font-size="10.00">ct_defs.h</text>
</a>
</g>
<!-- Node7&#45;&gt;Node8 -->
<g id="edge14" class="edge"><title>Node7&#45;&gt;Node8</title>
<path fill="none" stroke="midnightblue" d="M466.622,-116.963C507.167,-106.323 570.823,-89.6165 611.304,-78.9926"/>
<polygon fill="midnightblue" stroke="midnightblue" points="612.284,-82.3539 621.068,-76.43 610.507,-75.5832 612.284,-82.3539"/>
</g>
<!-- Node9 -->
<g id="node17" class="node"><title>Node9</title>
<a xlink:href="config_8h_source.html" target="_top" xlink:title="config.h">
<polygon fill="white" stroke="black" points="153.379,-1 153.379,-21 203.379,-21 203.379,-1 153.379,-1"/>
<text text-anchor="middle" x="178.379" y="-8" font-family="FreeSans" font-size="10.00">config.h</text>
</a>
</g>
<!-- Node8&#45;&gt;Node9 -->
<g id="edge16" class="edge"><title>Node8&#45;&gt;Node9</title>
<path fill="none" stroke="midnightblue" d="M621.326,-65.5455C539.792,-55.5053 302.982,-26.3439 213.328,-15.3038"/>
<polygon fill="midnightblue" stroke="midnightblue" points="213.743,-11.8285 203.39,-14.0799 212.887,-18.776 213.743,-11.8285"/>
</g>
<!-- Node10&#45;&gt;Node8 -->
<g id="edge20" class="edge"><title>Node10&#45;&gt;Node8</title>
<path fill="none" stroke="midnightblue" d="M647.444,-174.963C645.721,-165.48 643.329,-150.834 642.379,-138 641.657,-128.249 641.657,-125.751 642.379,-116 643.04,-107.076 644.397,-97.2766 645.743,-88.9457"/>
<polygon fill="midnightblue" stroke="midnightblue" points="649.201,-89.4851 647.444,-79.0369 642.302,-88.3002 649.201,-89.4851"/>
</g>
<!-- Node11 -->
<g id="node22" class="node"><title>Node11</title>
<a xlink:href="mix__defs_8h.html" target="_top" xlink:title="mix_defs.h">
<polygon fill="white" stroke="black" points="820.379,-117 820.379,-137 882.379,-137 882.379,-117 820.379,-117"/>
<text text-anchor="middle" x="851.379" y="-124" font-family="FreeSans" font-size="10.00">mix_defs.h</text>
</a>
</g>
<!-- Node10&#45;&gt;Node11 -->
<g id="edge22" class="edge"><title>Node10&#45;&gt;Node11</title>
<path fill="none" stroke="midnightblue" d="M683.189,-175.292C718.094,-165.27 772.593,-149.622 810.039,-138.87"/>
<polygon fill="midnightblue" stroke="midnightblue" points="811.472,-142.1 820.118,-135.976 809.54,-135.372 811.472,-142.1"/>
</g>
<!-- Node12 -->
<g id="node24" class="node"><title>Node12</title>
<a xlink:href="global_8h.html" target="_top" xlink:title="This file contains definitions for utility functions and text for modules, inputfiles, logs, textlogs, (see Input File Handling, Diagnostic Output, and Writing messages to the screen). ">
<polygon fill="white" stroke="black" points="651.379,-117 651.379,-137 701.379,-137 701.379,-117 651.379,-117"/>
<text text-anchor="middle" x="676.379" y="-124" font-family="FreeSans" font-size="10.00">global.h</text>
</a>
</g>
<!-- Node10&#45;&gt;Node12 -->
<g id="edge24" class="edge"><title>Node10&#45;&gt;Node12</title>
<path fill="none" stroke="midnightblue" d="M654.082,-174.897C657.715,-167.093 662.854,-156.054 667.283,-146.54"/>
<polygon fill="midnightblue" stroke="midnightblue" points="670.501,-147.921 671.548,-137.378 664.155,-144.966 670.501,-147.921"/>
</g>
<!-- Node12&#45;&gt;Node8 -->
<g id="edge26" class="edge"><title>Node12&#45;&gt;Node8</title>
<path fill="none" stroke="midnightblue" d="M671.676,-116.897C668.043,-109.093 662.904,-98.0536 658.475,-88.5401"/>
<polygon fill="midnightblue" stroke="midnightblue" points="661.603,-86.9663 654.21,-79.3776 655.257,-89.9206 661.603,-86.9663"/>
</g>
<!-- Node13&#45;&gt;Node3 -->
<g id="edge32" class="edge"><title>Node13&#45;&gt;Node3</title>
<path fill="none" stroke="midnightblue" d="M355.74,-360.897C362.471,-352.764 372.109,-341.118 380.195,-331.347"/>
<polygon fill="midnightblue" stroke="midnightblue" points="383.111,-333.313 386.791,-323.378 377.718,-328.85 383.111,-333.313"/>
</g>
<!-- Node14&#45;&gt;Node9 -->
<g id="edge40" class="edge"><title>Node14&#45;&gt;Node9</title>
<path fill="none" stroke="midnightblue" d="M113.448,-116.886C128.502,-108.903 147.748,-96.3828 159.379,-80 169.581,-65.6291 174.311,-46.0003 176.5,-31.352"/>
<polygon fill="midnightblue" stroke="midnightblue" points="179.991,-31.6411 177.728,-21.2908 173.042,-30.7932 179.991,-31.6411"/>
</g>
<!-- Node15 -->
<g id="node33" class="node"><title>Node15</title>
<a xlink:href="WaterPropsIAPWSphi_8h.html" target="_top" xlink:title="Header for Lowest level of the classes which support a real water model (see class WaterPropsIAPWS an...">
<polygon fill="white" stroke="black" points="31.8789,-59 31.8789,-79 150.879,-79 150.879,-59 31.8789,-59"/>
<text text-anchor="middle" x="91.3789" y="-66" font-family="FreeSans" font-size="10.00">WaterPropsIAPWSphi.h</text>
</a>
</g>
<!-- Node14&#45;&gt;Node15 -->
<g id="edge36" class="edge"><title>Node14&#45;&gt;Node15</title>
<path fill="none" stroke="midnightblue" d="M91.3789,-116.897C91.3789,-109.339 91.3789,-98.7476 91.3789,-89.4458"/>
<polygon fill="midnightblue" stroke="midnightblue" points="94.879,-89.3776 91.3789,-79.3776 87.879,-89.3776 94.879,-89.3776"/>
</g>
<!-- Node15&#45;&gt;Node9 -->
<g id="edge38" class="edge"><title>Node15&#45;&gt;Node9</title>
<path fill="none" stroke="midnightblue" d="M106.533,-58.8972C119.8,-50.0524 139.298,-37.0539 154.635,-26.829"/>
<polygon fill="midnightblue" stroke="midnightblue" points="156.727,-29.6409 163.106,-21.1817 152.844,-23.8165 156.727,-29.6409"/>
</g>
<!-- Node16&#45;&gt;Node8 -->
<g id="edge44" class="edge"><title>Node16&#45;&gt;Node8</title>
<path fill="none" stroke="midnightblue" d="M1008.13,-174.897C991.863,-159.511 958.483,-130.469 924.379,-116 882.353,-98.1702 753.11,-81.1144 687.882,-73.3602"/>
<polygon fill="midnightblue" stroke="midnightblue" points="687.95,-69.8442 677.61,-72.1532 687.133,-76.7964 687.95,-69.8442"/>
</g>
<!-- Node17&#45;&gt;Node8 -->
<g id="edge48" class="edge"><title>Node17&#45;&gt;Node8</title>
<path fill="none" stroke="midnightblue" d="M881.014,-238.942C893.754,-214.713 921.412,-152.427 891.379,-116 866.028,-85.2516 749.498,-74.3675 687.861,-70.7186"/>
<polygon fill="midnightblue" stroke="midnightblue" points="687.922,-67.2167 677.743,-70.1555 687.533,-74.2058 687.922,-67.2167"/>
</g>
<!-- Node17&#45;&gt;Node11 -->
<g id="edge50" class="edge"><title>Node17&#45;&gt;Node11</title>
<path fill="none" stroke="midnightblue" d="M873.333,-238.598C869.345,-218.329 860.475,-173.238 855.313,-146.997"/>
<polygon fill="midnightblue" stroke="midnightblue" points="858.717,-146.169 853.353,-137.032 851.849,-147.52 858.717,-146.169"/>
</g>
<!-- Node18&#45;&gt;Node4 -->
<g id="edge58" class="edge"><title>Node18&#45;&gt;Node4</title>
<path fill="none" stroke="midnightblue" d="M732.858,-305.615C672.803,-297.504 576.027,-283.303 493.379,-266 487.16,-264.698 480.645,-263.181 474.242,-261.598"/>
<polygon fill="midnightblue" stroke="midnightblue" points="474.883,-258.15 464.329,-259.08 473.159,-264.934 474.883,-258.15"/>
</g>
<!-- Node18&#45;&gt;Node8 -->
<g id="edge54" class="edge"><title>Node18&#45;&gt;Node8</title>
<path fill="none" stroke="midnightblue" d="M789.2,-302.761C787.187,-287.131 782.4,-256.546 773.379,-232 753.14,-176.933 748.439,-160.647 710.379,-116 700.219,-104.082 686.585,-93.23 674.784,-84.9638"/>
<polygon fill="midnightblue" stroke="midnightblue" points="676.45,-81.8662 666.204,-79.1719 672.534,-87.668 676.45,-81.8662"/>
</g>
<!-- Node18&#45;&gt;Node17 -->
<g id="edge56" class="edge"><title>Node18&#45;&gt;Node17</title>
<path fill="none" stroke="midnightblue" d="M804.036,-302.717C817.498,-292.581 838.272,-276.939 853.938,-265.144"/>
<polygon fill="midnightblue" stroke="midnightblue" points="856.153,-267.857 862.036,-259.046 851.942,-262.265 856.153,-267.857"/>
</g>
<!-- Node19&#45;&gt;Node17 -->
<g id="edge62" class="edge"><title>Node19&#45;&gt;Node17</title>
<path fill="none" stroke="midnightblue" d="M946.722,-302.717C933.26,-292.581 912.486,-276.939 896.82,-265.144"/>
<polygon fill="midnightblue" stroke="midnightblue" points="898.816,-262.265 888.722,-259.046 894.605,-267.857 898.816,-262.265"/>
</g>
<!-- Node20&#45;&gt;Node2 -->
<g id="edge68" class="edge"><title>Node20&#45;&gt;Node2</title>
<path fill="none" stroke="midnightblue" d="M516.34,-360.897C518.58,-353.257 521.727,-342.517 524.475,-333.143"/>
<polygon fill="midnightblue" stroke="midnightblue" points="527.883,-333.958 527.337,-323.378 521.166,-331.989 527.883,-333.958"/>
</g>
<!-- Node20&#45;&gt;Node3 -->
<g id="edge66" class="edge"><title>Node20&#45;&gt;Node3</title>
<path fill="none" stroke="midnightblue" d="M492.825,-360.897C474.158,-351.722 446.396,-338.076 425.274,-327.694"/>
<polygon fill="midnightblue" stroke="midnightblue" points="426.612,-324.452 416.093,-323.182 423.524,-330.734 426.612,-324.452"/>
</g>
<!-- Node21&#45;&gt;Node2 -->
<g id="edge74" class="edge"><title>Node21&#45;&gt;Node2</title>
<path fill="none" stroke="midnightblue" d="M267.407,-360.963C323.114,-350.803 409.141,-335.113 467.505,-324.468"/>
<polygon fill="midnightblue" stroke="midnightblue" points="468.136,-327.91 477.346,-322.673 466.88,-321.024 468.136,-327.91"/>
</g>
<!-- Node21&#45;&gt;Node3 -->
<g id="edge72" class="edge"><title>Node21&#45;&gt;Node3</title>
<path fill="none" stroke="midnightblue" d="M244.255,-360.897C274.602,-351.279 320.447,-336.749 353.683,-326.215"/>
<polygon fill="midnightblue" stroke="midnightblue" points="355.086,-329.442 363.562,-323.084 352.971,-322.769 355.086,-329.442"/>
</g>
<!-- Node22 -->
<g id="node60" class="node"><title>Node22</title>
<a xlink:href="Array_8h.html" target="_top" xlink:title="Header file for class Cantera::Array2D. ">
<polygon fill="white" stroke="red" points="273.879,-175 273.879,-195 320.879,-195 320.879,-175 273.879,-175"/>
<text text-anchor="middle" x="297.379" y="-182" font-family="FreeSans" font-size="10.00">Array.h</text>
</a>
</g>
<!-- Node21&#45;&gt;Node22 -->
<g id="edge76" class="edge"><title>Node21&#45;&gt;Node22</title>
<path fill="none" stroke="midnightblue" d="M216.949,-361C230.497,-331.353 270.614,-243.569 288.545,-204.33"/>
<polygon fill="midnightblue" stroke="midnightblue" points="291.813,-205.6 292.786,-195.05 285.447,-202.69 291.813,-205.6"/>
</g>
<!-- Node22&#45;&gt;Node8 -->
<g id="edge78" class="edge"><title>Node22&#45;&gt;Node8</title>
<path fill="none" stroke="midnightblue" d="M305.241,-174.849C317.819,-159.398 344.054,-130.271 373.379,-116 414.676,-95.9023 545.406,-79.8647 611.025,-72.8449"/>
<polygon fill="midnightblue" stroke="midnightblue" points="611.774,-76.2855 621.352,-71.7572 611.041,-69.324 611.774,-76.2855"/>
</g>
<!-- Node24 -->
<g id="node65" class="node"><title>Node24</title>
<a xlink:href="SingleSpeciesTP_8h.html" target="_top" xlink:title="Header for the SingleSpeciesTP class, which is a filter class for ThermoPhase, that eases the constru...">
<polygon fill="white" stroke="black" points="79.3789,-239 79.3789,-259 177.379,-259 177.379,-239 79.3789,-239"/>
<text text-anchor="middle" x="128.379" y="-246" font-family="FreeSans" font-size="10.00">SingleSpeciesTP.h</text>
</a>
</g>
<!-- Node23&#45;&gt;Node24 -->
<g id="edge82" class="edge"><title>Node23&#45;&gt;Node24</title>
<path fill="none" stroke="midnightblue" d="M87.2156,-360.598C94.7252,-340.239 111.473,-294.835 121.132,-268.647"/>
<polygon fill="midnightblue" stroke="midnightblue" points="124.502,-269.626 124.678,-259.032 117.934,-267.203 124.502,-269.626"/>
</g>
<!-- Node24&#45;&gt;Node5 -->
<g id="edge84" class="edge"><title>Node24&#45;&gt;Node5</title>
<path fill="none" stroke="midnightblue" d="M175.584,-238.93C230.221,-227.274 319.919,-208.138 376.476,-196.073"/>
<polygon fill="midnightblue" stroke="midnightblue" points="377.241,-199.488 386.291,-193.979 375.78,-192.642 377.241,-199.488"/>
</g>
<!-- Node25&#45;&gt;Node10 -->
<g id="edge88" class="edge"><title>Node25&#45;&gt;Node10</title>
<path fill="none" stroke="midnightblue" d="M689.752,-232.85C682.098,-223.778 672.524,-212.431 664.621,-203.065"/>
<polygon fill="midnightblue" stroke="midnightblue" points="667.059,-200.527 657.935,-195.141 661.709,-205.041 667.059,-200.527"/>
</g>
<!-- Node26&#45;&gt;Node10 -->
<g id="edge92" class="edge"><title>Node26&#45;&gt;Node10</title>
<path fill="none" stroke="midnightblue" d="M585.08,-232.85C598.018,-223.222 614.397,-211.033 627.385,-201.367"/>
<polygon fill="midnightblue" stroke="midnightblue" points="629.819,-203.919 635.752,-195.141 625.64,-198.303 629.819,-203.919"/>
</g>
</g>
</svg>
