<?xml version="1.0" encoding="UTF-8" standalone="no"?>
<!DOCTYPE svg PUBLIC "-//W3C//DTD SVG 1.1//EN"
 "http://www.w3.org/Graphics/SVG/1.1/DTD/svg11.dtd">
<!-- Generated by graphviz version 2.36.0 (20140111.2315)
 -->
<!-- Title: ElectrodeKinetics.cpp Pages: 1 -->
<svg width="831pt" height="388pt"
 viewBox="0.00 0.00 831.00 388.00" xmlns="http://www.w3.org/2000/svg" xmlns:xlink="http://www.w3.org/1999/xlink">
<g id="graph0" class="graph" transform="scale(1 1) rotate(0) translate(4 384)">
<title>ElectrodeKinetics.cpp</title>
<polygon fill="white" stroke="none" points="-4,4 -4,-384 827,-384 827,4 -4,4"/>
<!-- Node1 -->
<g id="node1" class="node"><title>Node1</title>
<polygon fill="#bfbfbf" stroke="black" points="449,-360.5 449,-379.5 559,-379.5 559,-360.5 449,-360.5"/>
<text text-anchor="middle" x="504" y="-367.5" font-family="FreeSans" font-size="10.00">ElectrodeKinetics.cpp</text>
</g>
<!-- Node2 -->
<g id="node2" class="node"><title>Node2</title>
<g id="a_node2"><a xlink:href="ElectrodeKinetics_8h.html" target="_top" xlink:title="cantera/kinetics/Electrode\lKinetics.h">
<polygon fill="white" stroke="black" points="394,-293 394,-323 522,-323 522,-293 394,-293"/>
<text text-anchor="start" x="402" y="-311" font-family="FreeSans" font-size="10.00">cantera/kinetics/Electrode</text>
<text text-anchor="middle" x="458" y="-300" font-family="FreeSans" font-size="10.00">Kinetics.h</text>
</a>
</g>
</g>
<!-- Node1&#45;&gt;Node2 -->
<g id="edge1" class="edge"><title>Node1&#45;&gt;Node2</title>
<path fill="none" stroke="midnightblue" d="M497.409,-360.403C491.587,-352.809 482.837,-341.396 475.06,-331.252"/>
<polygon fill="midnightblue" stroke="midnightblue" points="477.703,-328.947 468.841,-323.141 472.148,-333.206 477.703,-328.947"/>
</g>
<!-- Node9 -->
<g id="node9" class="node"><title>Node9</title>
<g id="a_node9"><a xlink:href="utilities_8h.html" target="_top" xlink:title="Various templated functions that carry out common vector operations (see Templated Utility Functions)...">
<polygon fill="white" stroke="black" points="620.5,-180.5 620.5,-199.5 733.5,-199.5 733.5,-180.5 620.5,-180.5"/>
<text text-anchor="middle" x="677" y="-187.5" font-family="FreeSans" font-size="10.00">cantera/base/utilities.h</text>
</a>
</g>
</g>
<!-- Node1&#45;&gt;Node9 -->
<g id="edge23" class="edge"><title>Node1&#45;&gt;Node9</title>
<path fill="none" stroke="midnightblue" d="M510.894,-360.167C522.428,-345.546 546.583,-315.586 569,-292 599.289,-260.131 637.388,-225.699 659.291,-206.396"/>
<polygon fill="midnightblue" stroke="midnightblue" points="661.888,-208.774 667.102,-199.551 657.274,-203.51 661.888,-208.774"/>
</g>
<!-- Node18 -->
<g id="node18" class="node"><title>Node18</title>
<g id="a_node18"><a xlink:href="SurfPhase_8h.html" target="_top" xlink:title="Header for a simple thermodynamics model of a surface phase derived from ThermoPhase, assuming an ideal solution model (see Thermodynamic Properties and class SurfPhase). ">
<polygon fill="white" stroke="black" points="196.5,-180.5 196.5,-199.5 333.5,-199.5 333.5,-180.5 196.5,-180.5"/>
<text text-anchor="middle" x="265" y="-187.5" font-family="FreeSans" font-size="10.00">cantera/thermo/SurfPhase.h</text>
</a>
</g>
</g>
<!-- Node1&#45;&gt;Node18 -->
<g id="edge20" class="edge"><title>Node1&#45;&gt;Node18</title>
<path fill="none" stroke="midnightblue" d="M468.838,-360.472C443.969,-353.346 410.628,-341.5 385,-324 337.236,-291.384 295.539,-235.965 276.302,-208.088"/>
<polygon fill="midnightblue" stroke="midnightblue" points="279.169,-206.079 270.663,-199.763 273.373,-210.005 279.169,-206.079"/>
</g>
<!-- Node19 -->
<g id="node19" class="node"><title>Node19</title>
<polygon fill="white" stroke="#bfbfbf" points="578,-298.5 578,-317.5 620,-317.5 620,-298.5 578,-298.5"/>
<text text-anchor="middle" x="599" y="-305.5" font-family="FreeSans" font-size="10.00">cstdio</text>
</g>
<!-- Node1&#45;&gt;Node19 -->
<g id="edge24" class="edge"><title>Node1&#45;&gt;Node19</title>
<path fill="none" stroke="midnightblue" d="M517.611,-360.403C533.061,-350.646 558.49,-334.585 576.816,-323.011"/>
<polygon fill="midnightblue" stroke="midnightblue" points="578.828,-325.88 585.414,-317.581 575.09,-319.961 578.828,-325.88"/>
</g>
<!-- Node3 -->
<g id="node3" class="node"><title>Node3</title>
<g id="a_node3"><a xlink:href="InterfaceKinetics_8h.html" target="_top" xlink:title="InterfaceKinetics.h">
<polygon fill="white" stroke="black" points="409.5,-236.5 409.5,-255.5 506.5,-255.5 506.5,-236.5 409.5,-236.5"/>
<text text-anchor="middle" x="458" y="-243.5" font-family="FreeSans" font-size="10.00">InterfaceKinetics.h</text>
</a>
</g>
</g>
<!-- Node2&#45;&gt;Node3 -->
<g id="edge2" class="edge"><title>Node2&#45;&gt;Node3</title>
<path fill="none" stroke="midnightblue" d="M458,-292.781C458,-284.781 458,-274.689 458,-266.017"/>
<polygon fill="midnightblue" stroke="midnightblue" points="461.5,-265.73 458,-255.731 454.5,-265.731 461.5,-265.73"/>
</g>
<!-- Node4 -->
<g id="node4" class="node"><title>Node4</title>
<g id="a_node4"><a xlink:href="mix__defs_8h.html" target="_top" xlink:title="cantera/thermo/mix\l_defs.h">
<polygon fill="white" stroke="black" points="349,-113 349,-143 449,-143 449,-113 349,-113"/>
<text text-anchor="start" x="357" y="-131" font-family="FreeSans" font-size="10.00">cantera/thermo/mix</text>
<text text-anchor="middle" x="399" y="-120" font-family="FreeSans" font-size="10.00">_defs.h</text>
</a>
</g>
</g>
<!-- Node3&#45;&gt;Node4 -->
<g id="edge3" class="edge"><title>Node3&#45;&gt;Node4</title>
<path fill="none" stroke="midnightblue" d="M453.565,-236.281C444.583,-218.621 423.976,-178.106 410.815,-152.229"/>
<polygon fill="midnightblue" stroke="midnightblue" points="413.828,-150.433 406.175,-143.106 407.589,-153.606 413.828,-150.433"/>
</g>
<!-- Node5 -->
<g id="node5" class="node"><title>Node5</title>
<g id="a_node5"><a xlink:href="Kinetics_8h.html" target="_top" xlink:title="Base class for kinetics managers and also contains the kineticsmgr module documentation (see Kinetics...">
<polygon fill="white" stroke="black" points="351.5,-180.5 351.5,-199.5 410.5,-199.5 410.5,-180.5 351.5,-180.5"/>
<text text-anchor="middle" x="381" y="-187.5" font-family="FreeSans" font-size="10.00">Kinetics.h</text>
</a>
</g>
</g>
<!-- Node3&#45;&gt;Node5 -->
<g id="edge4" class="edge"><title>Node3&#45;&gt;Node5</title>
<path fill="none" stroke="midnightblue" d="M445.629,-236.324C433.842,-228.058 415.868,-215.453 401.864,-205.632"/>
<polygon fill="midnightblue" stroke="midnightblue" points="403.538,-202.531 393.341,-199.655 399.518,-208.262 403.538,-202.531"/>
</g>
<!-- Node7 -->
<g id="node7" class="node"><title>Node7</title>
<g id="a_node7"><a xlink:href="RxnMolChange_8h_source.html" target="_top" xlink:title="cantera/kinetics/RxnMolChange.h">
<polygon fill="white" stroke="black" points="452.5,-56.5 452.5,-75.5 613.5,-75.5 613.5,-56.5 452.5,-56.5"/>
<text text-anchor="middle" x="533" y="-63.5" font-family="FreeSans" font-size="10.00">cantera/kinetics/RxnMolChange.h</text>
</a>
</g>
</g>
<!-- Node3&#45;&gt;Node7 -->
<g id="edge7" class="edge"><title>Node3&#45;&gt;Node7</title>
<path fill="none" stroke="midnightblue" d="M459.2,-236.458C462.519,-214.655 473.126,-155.593 496,-112 501.569,-101.387 509.91,-90.9572 517.264,-82.8151"/>
<polygon fill="midnightblue" stroke="midnightblue" points="519.835,-85.1902 524.149,-75.5135 514.742,-80.3877 519.835,-85.1902"/>
</g>
<!-- Node3&#45;&gt;Node9 -->
<g id="edge9" class="edge"><title>Node3&#45;&gt;Node9</title>
<path fill="none" stroke="midnightblue" d="M492.701,-236.444C530.585,-227.102 591.349,-212.119 632.662,-201.933"/>
<polygon fill="midnightblue" stroke="midnightblue" points="633.59,-205.309 642.461,-199.516 631.914,-198.512 633.59,-205.309"/>
</g>
<!-- Node14 -->
<g id="node14" class="node"><title>Node14</title>
<g id="a_node14"><a xlink:href="RateCoeffMgr_8h.html" target="_top" xlink:title="RateCoeffMgr.h">
<polygon fill="white" stroke="black" points="505.5,-180.5 505.5,-199.5 588.5,-199.5 588.5,-180.5 505.5,-180.5"/>
<text text-anchor="middle" x="547" y="-187.5" font-family="FreeSans" font-size="10.00">RateCoeffMgr.h</text>
</a>
</g>
</g>
<!-- Node3&#45;&gt;Node14 -->
<g id="edge16" class="edge"><title>Node3&#45;&gt;Node14</title>
<path fill="none" stroke="midnightblue" d="M472.299,-236.324C486.183,-227.9 507.492,-214.971 523.804,-205.074"/>
<polygon fill="midnightblue" stroke="midnightblue" points="526.002,-207.834 532.736,-199.655 522.371,-201.85 526.002,-207.834"/>
</g>
<!-- Node16 -->
<g id="node16" class="node"><title>Node16</title>
<g id="a_node16"><a xlink:href="ReactionStoichMgr_8h.html" target="_top" xlink:title="Header file declaring class ReactionStoichMgr. ">
<polygon fill="white" stroke="black" points="49.5,-180.5 49.5,-199.5 156.5,-199.5 156.5,-180.5 49.5,-180.5"/>
<text text-anchor="middle" x="103" y="-187.5" font-family="FreeSans" font-size="10.00">ReactionStoichMgr.h</text>
</a>
</g>
</g>
<!-- Node3&#45;&gt;Node16 -->
<g id="edge18" class="edge"><title>Node3&#45;&gt;Node16</title>
<path fill="none" stroke="midnightblue" d="M409.383,-237.605C346.307,-228.01 236.121,-211.249 166.498,-200.659"/>
<polygon fill="midnightblue" stroke="midnightblue" points="166.943,-197.186 156.531,-199.143 165.891,-204.107 166.943,-197.186"/>
</g>
<!-- Node5&#45;&gt;Node4 -->
<g id="edge6" class="edge"><title>Node5&#45;&gt;Node4</title>
<path fill="none" stroke="midnightblue" d="M383.579,-180.403C385.743,-173.189 388.942,-162.528 391.865,-152.782"/>
<polygon fill="midnightblue" stroke="midnightblue" points="395.237,-153.725 394.758,-143.141 388.532,-151.713 395.237,-153.725"/>
</g>
<!-- Node6 -->
<g id="node6" class="node"><title>Node6</title>
<g id="a_node6"><a xlink:href="ThermoPhase_8h.html" target="_top" xlink:title="Header file for class ThermoPhase, the base class for phases with thermodynamic properties, and the text for the Module thermoprops (see Thermodynamic Properties and class ThermoPhase). ">
<polygon fill="white" stroke="red" points="179,-118.5 179,-137.5 331,-137.5 331,-118.5 179,-118.5"/>
<text text-anchor="middle" x="255" y="-125.5" font-family="FreeSans" font-size="10.00">cantera/thermo/ThermoPhase.h</text>
</a>
</g>
</g>
<!-- Node5&#45;&gt;Node6 -->
<g id="edge5" class="edge"><title>Node5&#45;&gt;Node6</title>
<path fill="none" stroke="midnightblue" d="M362.947,-180.403C341.802,-170.334 306.56,-153.552 282.122,-141.915"/>
<polygon fill="midnightblue" stroke="midnightblue" points="283.553,-138.72 273.019,-137.581 280.543,-145.04 283.553,-138.72"/>
</g>
<!-- Node8 -->
<g id="node8" class="node"><title>Node8</title>
<polygon fill="white" stroke="#bfbfbf" points="617.5,-0.5 617.5,-19.5 660.5,-19.5 660.5,-0.5 617.5,-0.5"/>
<text text-anchor="middle" x="639" y="-7.5" font-family="FreeSans" font-size="10.00">vector</text>
</g>
<!-- Node7&#45;&gt;Node8 -->
<g id="edge8" class="edge"><title>Node7&#45;&gt;Node8</title>
<path fill="none" stroke="midnightblue" d="M550.031,-56.324C567.03,-47.6641 593.376,-34.2424 612.993,-24.249"/>
<polygon fill="midnightblue" stroke="midnightblue" points="614.69,-27.3125 622.012,-19.6545 611.512,-21.0752 614.69,-27.3125"/>
</g>
<!-- Node10 -->
<g id="node10" class="node"><title>Node10</title>
<g id="a_node10"><a xlink:href="ct__defs_8h.html" target="_top" xlink:title="This file contains definitions of terms that are used in internal routines and are unlikely to need m...">
<polygon fill="white" stroke="red" points="688,-56.5 688,-75.5 802,-75.5 802,-56.5 688,-56.5"/>
<text text-anchor="middle" x="745" y="-63.5" font-family="FreeSans" font-size="10.00">cantera/base/ct_defs.h</text>
</a>
</g>
</g>
<!-- Node9&#45;&gt;Node10 -->
<g id="edge10" class="edge"><title>Node9&#45;&gt;Node10</title>
<path fill="none" stroke="midnightblue" d="M689.51,-180.465C700.472,-172.337 716.018,-159.125 725,-144 735.772,-125.86 740.81,-101.954 743.121,-85.6204"/>
<polygon fill="midnightblue" stroke="midnightblue" points="746.596,-86.0346 744.323,-75.6867 739.647,-85.194 746.596,-86.0346"/>
</g>
<!-- Node11 -->
<g id="node11" class="node"><title>Node11</title>
<g id="a_node11"><a xlink:href="global_8h.html" target="_top" xlink:title="This file contains definitions for utility functions and text for modules, inputfiles, logs, textlogs, (see Input File Handling, Diagnostic Output, and Writing messages to the screen). ">
<polygon fill="white" stroke="black" points="773,-118.5 773,-137.5 823,-137.5 823,-118.5 773,-118.5"/>
<text text-anchor="middle" x="798" y="-125.5" font-family="FreeSans" font-size="10.00">global.h</text>
</a>
</g>
</g>
<!-- Node9&#45;&gt;Node11 -->
<g id="edge12" class="edge"><title>Node9&#45;&gt;Node11</title>
<path fill="none" stroke="midnightblue" d="M694.336,-180.403C714.553,-170.379 748.187,-153.701 771.642,-142.07"/>
<polygon fill="midnightblue" stroke="midnightblue" points="773.292,-145.159 780.696,-137.581 770.182,-138.887 773.292,-145.159"/>
</g>
<!-- Node12 -->
<g id="node12" class="node"><title>Node12</title>
<polygon fill="white" stroke="#bfbfbf" points="589,-118.5 589,-137.5 647,-137.5 647,-118.5 589,-118.5"/>
<text text-anchor="middle" x="618" y="-125.5" font-family="FreeSans" font-size="10.00">stdexcept</text>
</g>
<!-- Node9&#45;&gt;Node12 -->
<g id="edge14" class="edge"><title>Node9&#45;&gt;Node12</title>
<path fill="none" stroke="midnightblue" d="M668.547,-180.403C659.434,-171.136 644.73,-156.183 633.524,-144.788"/>
<polygon fill="midnightblue" stroke="midnightblue" points="635.945,-142.257 626.438,-137.581 630.953,-147.165 635.945,-142.257"/>
</g>
<!-- Node13 -->
<g id="node13" class="node"><title>Node13</title>
<polygon fill="white" stroke="#bfbfbf" points="665.5,-118.5 665.5,-137.5 716.5,-137.5 716.5,-118.5 665.5,-118.5"/>
<text text-anchor="middle" x="691" y="-125.5" font-family="FreeSans" font-size="10.00">numeric</text>
</g>
<!-- Node9&#45;&gt;Node13 -->
<g id="edge15" class="edge"><title>Node9&#45;&gt;Node13</title>
<path fill="none" stroke="midnightblue" d="M679.006,-180.403C681.002,-171.849 684.128,-158.45 686.689,-147.476"/>
<polygon fill="midnightblue" stroke="midnightblue" points="690.134,-148.114 688.998,-137.581 683.317,-146.524 690.134,-148.114"/>
</g>
<!-- Node10&#45;&gt;Node8 -->
<g id="edge11" class="edge"><title>Node10&#45;&gt;Node8</title>
<path fill="none" stroke="midnightblue" d="M727.969,-56.324C710.97,-47.6641 684.624,-34.2424 665.007,-24.249"/>
<polygon fill="midnightblue" stroke="midnightblue" points="666.488,-21.0752 655.988,-19.6545 663.31,-27.3125 666.488,-21.0752"/>
</g>
<!-- Node11&#45;&gt;Node10 -->
<g id="edge13" class="edge"><title>Node11&#45;&gt;Node10</title>
<path fill="none" stroke="midnightblue" d="M790.406,-118.403C782.299,-109.225 769.265,-94.4699 759.237,-83.1173"/>
<polygon fill="midnightblue" stroke="midnightblue" points="761.823,-80.7582 752.58,-75.5806 756.577,-85.3925 761.823,-80.7582"/>
</g>
<!-- Node15 -->
<g id="node15" class="node"><title>Node15</title>
<g id="a_node15"><a xlink:href="RxnRates_8h.html" target="_top" xlink:title="RxnRates.h">
<polygon fill="white" stroke="red" points="505.5,-118.5 505.5,-137.5 570.5,-137.5 570.5,-118.5 505.5,-118.5"/>
<text text-anchor="middle" x="538" y="-125.5" font-family="FreeSans" font-size="10.00">RxnRates.h</text>
</a>
</g>
</g>
<!-- Node14&#45;&gt;Node15 -->
<g id="edge17" class="edge"><title>Node14&#45;&gt;Node15</title>
<path fill="none" stroke="midnightblue" d="M545.711,-180.403C544.427,-171.849 542.417,-158.45 540.771,-147.476"/>
<polygon fill="midnightblue" stroke="midnightblue" points="544.232,-146.951 539.287,-137.581 537.309,-147.989 544.232,-146.951"/>
</g>
<!-- Node17 -->
<g id="node17" class="node"><title>Node17</title>
<g id="a_node17"><a xlink:href="StoichManager_8h.html" target="_top" xlink:title="cantera/kinetics/StoichManager.h">
<polygon fill="white" stroke="red" points="-0.5,-118.5 -0.5,-137.5 160.5,-137.5 160.5,-118.5 -0.5,-118.5"/>
<text text-anchor="middle" x="80" y="-125.5" font-family="FreeSans" font-size="10.00">cantera/kinetics/StoichManager.h</text>
</a>
</g>
</g>
<!-- Node16&#45;&gt;Node17 -->
<g id="edge19" class="edge"><title>Node16&#45;&gt;Node17</title>
<path fill="none" stroke="midnightblue" d="M99.7047,-180.403C96.3913,-171.76 91.1818,-158.17 86.9514,-147.134"/>
<polygon fill="midnightblue" stroke="midnightblue" points="90.1368,-145.665 83.2892,-137.581 83.6005,-148.171 90.1368,-145.665"/>
</g>
<!-- Node18&#45;&gt;Node4 -->
<g id="edge21" class="edge"><title>Node18&#45;&gt;Node4</title>
<path fill="none" stroke="midnightblue" d="M284.199,-180.403C303.514,-171.755 333.888,-158.155 358.543,-147.115"/>
<polygon fill="midnightblue" stroke="midnightblue" points="359.98,-150.306 367.677,-143.025 357.12,-143.918 359.98,-150.306"/>
</g>
<!-- Node18&#45;&gt;Node6 -->
<g id="edge22" class="edge"><title>Node18&#45;&gt;Node6</title>
<path fill="none" stroke="midnightblue" d="M263.567,-180.403C262.141,-171.849 259.908,-158.45 258.079,-147.476"/>
<polygon fill="midnightblue" stroke="midnightblue" points="261.527,-146.869 256.43,-137.581 254.622,-148.02 261.527,-146.869"/>
</g>
</g>
</svg>
