<?xml version="1.0" encoding="UTF-8" standalone="no"?>
<!DOCTYPE svg PUBLIC "-//W3C//DTD SVG 1.1//EN"
 "http://www.w3.org/Graphics/SVG/1.1/DTD/svg11.dtd">
<!-- Generated by graphviz version 2.28.0 (20120425.2022)
 -->
<!-- Title: equilibrate.cpp Pages: 1 -->
<svg width="852pt" height="488pt"
 viewBox="0.00 0.00 851.91 488.00" xmlns="http://www.w3.org/2000/svg" xmlns:xlink="http://www.w3.org/1999/xlink">
<g id="graph1" class="graph" transform="scale(1 1) rotate(0) translate(4 484)">
<title>equilibrate.cpp</title>
<polygon fill="white" stroke="white" points="-4,5 -4,-484 848.909,-484 848.909,5 -4,5"/>
<!-- Node1 -->
<g id="node1" class="node"><title>Node1</title>
<polygon fill="#bfbfbf" stroke="black" points="298.5,-460.5 298.5,-479.5 379.5,-479.5 379.5,-460.5 298.5,-460.5"/>
<text text-anchor="middle" x="339" y="-467.5" font-family="FreeSans" font-size="10.00">equilibrate.cpp</text>
</g>
<!-- Node2 -->
<g id="node3" class="node"><title>Node2</title>
<a xlink:href="equil_8h.html" target="_top" xlink:title="This file contains the definition of some high level general equilibration routines. ">
<polygon fill="white" stroke="black" points="-0.5,-342.5 -0.5,-361.5 106.5,-361.5 106.5,-342.5 -0.5,-342.5"/>
<text text-anchor="middle" x="53" y="-349.5" font-family="FreeSans" font-size="10.00">cantera/equil/equil.h</text>
</a>
</g>
<!-- Node1&#45;&gt;Node2 -->
<g id="edge2" class="edge"><title>Node1&#45;&gt;Node2</title>
<path fill="none" stroke="midnightblue" d="M317.97,-460.47C267.972,-440.191 141.834,-389.03 83.4801,-365.363"/>
<polygon fill="midnightblue" stroke="midnightblue" points="84.6434,-362.057 74.0611,-361.542 82.0124,-368.544 84.6434,-362.057"/>
</g>
<!-- Node19 -->
<g id="node42" class="node"><title>Node19</title>
<a xlink:href="ChemEquil_8h.html" target="_top" xlink:title="Chemical equilibrium. ">
<polygon fill="white" stroke="black" points="430,-404.5 430,-423.5 564,-423.5 564,-404.5 430,-404.5"/>
<text text-anchor="middle" x="497" y="-411.5" font-family="FreeSans" font-size="10.00">cantera/equil/ChemEquil.h</text>
</a>
</g>
<!-- Node1&#45;&gt;Node19 -->
<g id="edge46" class="edge"><title>Node1&#45;&gt;Node19</title>
<path fill="none" stroke="midnightblue" d="M364.036,-460.444C390.616,-451.359 432.809,-436.939 462.523,-426.783"/>
<polygon fill="midnightblue" stroke="midnightblue" points="463.751,-430.062 472.082,-423.516 461.487,-423.439 463.751,-430.062"/>
</g>
<!-- Node20 -->
<g id="node49" class="node"><title>Node20</title>
<a xlink:href="MultiPhaseEquil_8h.html" target="_top" xlink:title="MultiPhaseEquil.h">
<polygon fill="white" stroke="black" points="291.5,-342.5 291.5,-361.5 386.5,-361.5 386.5,-342.5 291.5,-342.5"/>
<text text-anchor="middle" x="339" y="-349.5" font-family="FreeSans" font-size="10.00">MultiPhaseEquil.h</text>
</a>
</g>
<!-- Node1&#45;&gt;Node20 -->
<g id="edge66" class="edge"><title>Node1&#45;&gt;Node20</title>
<path fill="none" stroke="midnightblue" d="M339,-460.281C339,-441.547 339,-397.098 339,-371.682"/>
<polygon fill="midnightblue" stroke="midnightblue" points="342.5,-371.505 339,-361.505 335.5,-371.505 342.5,-371.505"/>
</g>
<!-- Node22 -->
<g id="node56" class="node"><title>Node22</title>
<a xlink:href="vcs__MultiPhaseEquil_8h.html" target="_top" xlink:title="Interface class for the vcsnonlinear solver. ">
<polygon fill="white" stroke="black" points="124.5,-337 124.5,-367 273.5,-367 273.5,-337 124.5,-337"/>
<text text-anchor="start" x="132.5" y="-355" font-family="FreeSans" font-size="10.00">cantera/equil/vcs_MultiPhase</text>
<text text-anchor="middle" x="199" y="-344" font-family="FreeSans" font-size="10.00">Equil.h</text>
</a>
</g>
<!-- Node1&#45;&gt;Node22 -->
<g id="edge68" class="edge"><title>Node1&#45;&gt;Node22</title>
<path fill="none" stroke="midnightblue" d="M328.477,-460.281C306.412,-441.998 254.785,-399.222 223.801,-373.549"/>
<polygon fill="midnightblue" stroke="midnightblue" points="225.958,-370.791 216.025,-367.106 221.492,-376.181 225.958,-370.791"/>
</g>
<!-- Node23 -->
<g id="node61" class="node"><title>Node23</title>
<a xlink:href="global_8h.html" target="_top" xlink:title="This file contains definitions for utility functions and text for modules, inputfiles, logs, textlogs, HTML_logs (see Input File Handling, Diagnostic Output, Writing messages to the screen and Writing HTML Logfiles). ">
<polygon fill="white" stroke="black" points="710,-404.5 710,-423.5 762,-423.5 762,-404.5 710,-404.5"/>
<text text-anchor="middle" x="736" y="-411.5" font-family="FreeSans" font-size="10.00">global.h</text>
</a>
</g>
<!-- Node1&#45;&gt;Node23 -->
<g id="edge76" class="edge"><title>Node1&#45;&gt;Node23</title>
<path fill="none" stroke="midnightblue" d="M379.62,-463.475C457.224,-452.919 625.425,-430.04 699.604,-419.951"/>
<polygon fill="midnightblue" stroke="midnightblue" points="700.407,-423.374 709.844,-418.558 699.463,-416.438 700.407,-423.374"/>
</g>
<!-- Node3 -->
<g id="node5" class="node"><title>Node3</title>
<a xlink:href="MultiPhase_8h.html" target="_top" xlink:title="Headers for the MultiPhase object that is used to set up multiphase equilibrium problems (see Equilib...">
<polygon fill="white" stroke="black" points="227,-280.5 227,-299.5 301,-299.5 301,-280.5 227,-280.5"/>
<text text-anchor="middle" x="264" y="-287.5" font-family="FreeSans" font-size="10.00">MultiPhase.h</text>
</a>
</g>
<!-- Node2&#45;&gt;Node3 -->
<g id="edge4" class="edge"><title>Node2&#45;&gt;Node3</title>
<path fill="none" stroke="midnightblue" d="M83.2312,-342.403C120.287,-331.866 183.193,-313.978 224.164,-302.328"/>
<polygon fill="midnightblue" stroke="midnightblue" points="225.164,-305.682 233.825,-299.581 223.249,-298.949 225.164,-305.682"/>
</g>
<!-- Node18 -->
<g id="node40" class="node"><title>Node18</title>
<a xlink:href="vcs__defs_8h.html" target="_top" xlink:title="Defines and definitions within the vcs package. ">
<polygon fill="white" stroke="black" points="63.5,-280.5 63.5,-299.5 128.5,-299.5 128.5,-280.5 63.5,-280.5"/>
<text text-anchor="middle" x="96" y="-287.5" font-family="FreeSans" font-size="10.00">vcs_defs.h</text>
</a>
</g>
<!-- Node2&#45;&gt;Node18 -->
<g id="edge44" class="edge"><title>Node2&#45;&gt;Node18</title>
<path fill="none" stroke="midnightblue" d="M59.1609,-342.403C65.6109,-333.403 75.9041,-319.041 83.9726,-307.782"/>
<polygon fill="midnightblue" stroke="midnightblue" points="86.8702,-309.748 89.8506,-299.581 81.1805,-305.67 86.8702,-309.748"/>
</g>
<!-- Node4 -->
<g id="node7" class="node"><title>Node4</title>
<a xlink:href="ct__defs_8h.html" target="_top" xlink:title="This file contains definitions of terms that are used in internal routines and are unlikely to need m...">
<polygon fill="white" stroke="black" points="472.5,-56.5 472.5,-75.5 591.5,-75.5 591.5,-56.5 472.5,-56.5"/>
<text text-anchor="middle" x="532" y="-63.5" font-family="FreeSans" font-size="10.00">cantera/base/ct_defs.h</text>
</a>
</g>
<!-- Node3&#45;&gt;Node4 -->
<g id="edge6" class="edge"><title>Node3&#45;&gt;Node4</title>
<path fill="none" stroke="midnightblue" d="M262.326,-280.12C257.458,-251.329 246.442,-159.675 293,-112 316.089,-88.3574 400.302,-76.803 462.255,-71.3935"/>
<polygon fill="midnightblue" stroke="midnightblue" points="462.708,-74.868 472.381,-70.5462 462.124,-67.8924 462.708,-74.868"/>
</g>
<!-- Node11 -->
<g id="node21" class="node"><title>Node11</title>
<a xlink:href="DenseMatrix_8h.html" target="_top" xlink:title="Headers for the DenseMatrix object, which deals with dense rectangular matrices and description of th...">
<polygon fill="white" stroke="black" points="552.5,-224.5 552.5,-243.5 713.5,-243.5 713.5,-224.5 552.5,-224.5"/>
<text text-anchor="middle" x="633" y="-231.5" font-family="FreeSans" font-size="10.00">cantera/numerics/DenseMatrix.h</text>
</a>
</g>
<!-- Node3&#45;&gt;Node11 -->
<g id="edge20" class="edge"><title>Node3&#45;&gt;Node11</title>
<path fill="none" stroke="midnightblue" d="M301.071,-283.575C362.638,-274.565 486.883,-256.383 564.674,-244.999"/>
<polygon fill="midnightblue" stroke="midnightblue" points="565.474,-248.419 574.862,-243.508 564.46,-241.493 565.474,-248.419"/>
</g>
<!-- Node14 -->
<g id="node30" class="node"><title>Node14</title>
<a xlink:href="ThermoPhase_8h.html" target="_top" xlink:title="Header file for class ThermoPhase, the base class for phases with thermodynamic properties, and the text for the Module thermoprops (see Thermodynamic Properties and class ThermoPhase). ">
<polygon fill="white" stroke="black" points="335,-224.5 335,-243.5 495,-243.5 495,-224.5 335,-224.5"/>
<text text-anchor="middle" x="415" y="-231.5" font-family="FreeSans" font-size="10.00">cantera/thermo/ThermoPhase.h</text>
</a>
</g>
<!-- Node3&#45;&gt;Node14 -->
<g id="edge32" class="edge"><title>Node3&#45;&gt;Node14</title>
<path fill="none" stroke="midnightblue" d="M287.926,-280.444C313.219,-271.399 353.302,-257.064 381.68,-246.916"/>
<polygon fill="midnightblue" stroke="midnightblue" points="382.948,-250.179 391.186,-243.516 380.591,-243.588 382.948,-250.179"/>
</g>
<!-- Node5 -->
<g id="node9" class="node"><title>Node5</title>
<a xlink:href="config_8h_source.html" target="_top" xlink:title="config.h">
<polygon fill="white" stroke="black" points="506.5,-0.5 506.5,-19.5 557.5,-19.5 557.5,-0.5 506.5,-0.5"/>
<text text-anchor="middle" x="532" y="-7.5" font-family="FreeSans" font-size="10.00">config.h</text>
</a>
</g>
<!-- Node4&#45;&gt;Node5 -->
<g id="edge8" class="edge"><title>Node4&#45;&gt;Node5</title>
<path fill="none" stroke="midnightblue" d="M532,-56.083C532,-49.0059 532,-38.8611 532,-29.9865"/>
<polygon fill="midnightblue" stroke="midnightblue" points="535.5,-29.751 532,-19.7511 528.5,-29.7511 535.5,-29.751"/>
</g>
<!-- Node6 -->
<g id="node11" class="node"><title>Node6</title>
<polygon fill="white" stroke="#bfbfbf" points="576,-0.5 576,-19.5 620,-19.5 620,-0.5 576,-0.5"/>
<text text-anchor="middle" x="598" y="-7.5" font-family="FreeSans" font-size="10.00">cmath</text>
</g>
<!-- Node4&#45;&gt;Node6 -->
<g id="edge10" class="edge"><title>Node4&#45;&gt;Node6</title>
<path fill="none" stroke="midnightblue" d="M542.604,-56.324C552.456,-48.2631 567.351,-36.0765 579.215,-26.3695"/>
<polygon fill="midnightblue" stroke="midnightblue" points="581.68,-28.8752 587.203,-19.8339 577.247,-23.4575 581.68,-28.8752"/>
</g>
<!-- Node7 -->
<g id="node13" class="node"><title>Node7</title>
<polygon fill="white" stroke="#bfbfbf" points="638.5,-0.5 638.5,-19.5 683.5,-19.5 683.5,-0.5 638.5,-0.5"/>
<text text-anchor="middle" x="661" y="-7.5" font-family="FreeSans" font-size="10.00">cstdlib</text>
</g>
<!-- Node4&#45;&gt;Node7 -->
<g id="edge12" class="edge"><title>Node4&#45;&gt;Node7</title>
<path fill="none" stroke="midnightblue" d="M552.44,-56.4435C573.67,-47.5566 607.099,-33.5632 631.255,-23.4514"/>
<polygon fill="midnightblue" stroke="midnightblue" points="632.782,-26.6064 640.655,-19.5164 630.079,-20.1493 632.782,-26.6064"/>
</g>
<!-- Node8 -->
<g id="node15" class="node"><title>Node8</title>
<polygon fill="white" stroke="#bfbfbf" points="390,-0.5 390,-19.5 434,-19.5 434,-0.5 390,-0.5"/>
<text text-anchor="middle" x="412" y="-7.5" font-family="FreeSans" font-size="10.00">vector</text>
</g>
<!-- Node4&#45;&gt;Node8 -->
<g id="edge14" class="edge"><title>Node4&#45;&gt;Node8</title>
<path fill="none" stroke="midnightblue" d="M512.986,-56.4435C493.412,-47.6356 462.692,-33.8116 440.271,-23.722"/>
<polygon fill="midnightblue" stroke="midnightblue" points="441.481,-20.4284 430.925,-19.5164 438.608,-26.8119 441.481,-20.4284"/>
</g>
<!-- Node9 -->
<g id="node17" class="node"><title>Node9</title>
<polygon fill="white" stroke="#bfbfbf" points="452,-0.5 452,-19.5 488,-19.5 488,-0.5 452,-0.5"/>
<text text-anchor="middle" x="470" y="-7.5" font-family="FreeSans" font-size="10.00">map</text>
</g>
<!-- Node4&#45;&gt;Node9 -->
<g id="edge16" class="edge"><title>Node4&#45;&gt;Node9</title>
<path fill="none" stroke="midnightblue" d="M522.039,-56.324C512.873,-48.3414 499.063,-36.3128 487.972,-26.6529"/>
<polygon fill="midnightblue" stroke="midnightblue" points="489.982,-23.7624 480.143,-19.8339 485.385,-29.041 489.982,-23.7624"/>
</g>
<!-- Node10 -->
<g id="node19" class="node"><title>Node10</title>
<polygon fill="white" stroke="#bfbfbf" points="716.5,-0.5 716.5,-19.5 757.5,-19.5 757.5,-0.5 716.5,-0.5"/>
<text text-anchor="middle" x="737" y="-7.5" font-family="FreeSans" font-size="10.00">string</text>
</g>
<!-- Node4&#45;&gt;Node10 -->
<g id="edge18" class="edge"><title>Node4&#45;&gt;Node10</title>
<path fill="none" stroke="midnightblue" d="M564.483,-56.4435C603.388,-46.1953 668.073,-29.1565 706.211,-19.1103"/>
<polygon fill="midnightblue" stroke="midnightblue" points="707.442,-22.4055 716.221,-16.4736 705.659,-15.6364 707.442,-22.4055"/>
</g>
<!-- Node11&#45;&gt;Node4 -->
<g id="edge22" class="edge"><title>Node11&#45;&gt;Node4</title>
<path fill="none" stroke="midnightblue" d="M622.286,-224.305C613.062,-216.069 600.409,-202.789 595,-188 583.277,-155.947 622.727,-141.75 606,-112 597.779,-97.3782 582.669,-86.9543 568.237,-79.8465"/>
<polygon fill="midnightblue" stroke="midnightblue" points="569.484,-76.5693 558.929,-75.6437 566.603,-82.9491 569.484,-76.5693"/>
</g>
<!-- Node12 -->
<g id="node24" class="node"><title>Node12</title>
<a xlink:href="Array_8h.html" target="_top" xlink:title="Header file for class Cantera::Array2D. ">
<polygon fill="white" stroke="red" points="604,-168.5 604,-187.5 714,-187.5 714,-168.5 604,-168.5"/>
<text text-anchor="middle" x="659" y="-175.5" font-family="FreeSans" font-size="10.00">cantera/base/Array.h</text>
</a>
</g>
<!-- Node11&#45;&gt;Node12 -->
<g id="edge24" class="edge"><title>Node11&#45;&gt;Node12</title>
<path fill="none" stroke="midnightblue" d="M637.293,-224.083C640.852,-216.691 646.022,-205.953 650.424,-196.811"/>
<polygon fill="midnightblue" stroke="midnightblue" points="653.602,-198.279 654.787,-187.751 647.295,-195.243 653.602,-198.279"/>
</g>
<!-- Node12&#45;&gt;Node4 -->
<g id="edge26" class="edge"><title>Node12&#45;&gt;Node4</title>
<path fill="none" stroke="midnightblue" d="M658.761,-168.292C657.932,-154.645 654.429,-128.117 640,-112 625.504,-95.8081 604.26,-85.2904 584.441,-78.5322"/>
<polygon fill="midnightblue" stroke="midnightblue" points="585.452,-75.181 574.862,-75.5082 583.344,-81.8563 585.452,-75.181"/>
</g>
<!-- Node13 -->
<g id="node27" class="node"><title>Node13</title>
<a xlink:href="ctexceptions_8h.html" target="_top" xlink:title="Definitions for the classes that are thrown when Cantera experiences an error condition (also contain...">
<polygon fill="white" stroke="red" points="735,-112.5 735,-131.5 815,-131.5 815,-112.5 735,-112.5"/>
<text text-anchor="middle" x="775" y="-119.5" font-family="FreeSans" font-size="10.00">ctexceptions.h</text>
</a>
</g>
<!-- Node12&#45;&gt;Node13 -->
<g id="edge28" class="edge"><title>Node12&#45;&gt;Node13</title>
<path fill="none" stroke="midnightblue" d="M677.381,-168.444C696.216,-159.675 725.731,-145.935 747.379,-135.858"/>
<polygon fill="midnightblue" stroke="midnightblue" points="749.117,-138.91 756.705,-131.516 746.162,-132.564 749.117,-138.91"/>
</g>
<!-- Node13&#45;&gt;Node10 -->
<g id="edge30" class="edge"><title>Node13&#45;&gt;Node10</title>
<path fill="none" stroke="midnightblue" d="M772.018,-112.368C765.858,-94.5366 751.611,-53.2953 743.312,-29.2717"/>
<polygon fill="midnightblue" stroke="midnightblue" points="746.541,-27.9005 739.968,-19.5914 739.925,-30.1862 746.541,-27.9005"/>
</g>
<!-- Node15 -->
<g id="node32" class="node"><title>Node15</title>
<a xlink:href="Phase_8h.html" target="_top" xlink:title="Header file for class Phase. ">
<polygon fill="white" stroke="red" points="427.5,-168.5 427.5,-187.5 480.5,-187.5 480.5,-168.5 427.5,-168.5"/>
<text text-anchor="middle" x="454" y="-175.5" font-family="FreeSans" font-size="10.00">Phase.h</text>
</a>
</g>
<!-- Node14&#45;&gt;Node15 -->
<g id="edge34" class="edge"><title>Node14&#45;&gt;Node15</title>
<path fill="none" stroke="midnightblue" d="M421.44,-224.083C426.949,-216.455 435.031,-205.264 441.765,-195.941"/>
<polygon fill="midnightblue" stroke="midnightblue" points="444.662,-197.907 447.68,-187.751 438.987,-193.809 444.662,-197.907"/>
</g>
<!-- Node17 -->
<g id="node37" class="node"><title>Node17</title>
<a xlink:href="SpeciesThermo_8h.html" target="_top" xlink:title="Virtual base class for the calculation of multiple&#45;species thermodynamic reference&#45;state property man...">
<polygon fill="white" stroke="black" points="335.5,-112.5 335.5,-131.5 432.5,-131.5 432.5,-112.5 335.5,-112.5"/>
<text text-anchor="middle" x="384" y="-119.5" font-family="FreeSans" font-size="10.00">SpeciesThermo.h</text>
</a>
</g>
<!-- Node14&#45;&gt;Node17 -->
<g id="edge40" class="edge"><title>Node14&#45;&gt;Node17</title>
<path fill="none" stroke="midnightblue" d="M412.567,-224.368C407.542,-206.537 395.92,-165.295 389.149,-141.272"/>
<polygon fill="midnightblue" stroke="midnightblue" points="392.503,-140.267 386.421,-131.591 385.765,-142.166 392.503,-140.267"/>
</g>
<!-- Node16 -->
<g id="node34" class="node"><title>Node16</title>
<a xlink:href="vec__functions_8h.html" target="_top" xlink:title="Templates for operations on vector&#45;like objects. ">
<polygon fill="white" stroke="red" points="450.5,-112.5 450.5,-131.5 597.5,-131.5 597.5,-112.5 450.5,-112.5"/>
<text text-anchor="middle" x="524" y="-119.5" font-family="FreeSans" font-size="10.00">cantera/base/vec_functions.h</text>
</a>
</g>
<!-- Node15&#45;&gt;Node16 -->
<g id="edge36" class="edge"><title>Node15&#45;&gt;Node16</title>
<path fill="none" stroke="midnightblue" d="M465.247,-168.324C475.797,-160.185 491.801,-147.839 504.442,-138.087"/>
<polygon fill="midnightblue" stroke="midnightblue" points="506.769,-140.713 512.549,-131.834 502.493,-135.171 506.769,-140.713"/>
</g>
<!-- Node16&#45;&gt;Node4 -->
<g id="edge38" class="edge"><title>Node16&#45;&gt;Node4</title>
<path fill="none" stroke="midnightblue" d="M525.321,-112.083C526.381,-104.927 527.906,-94.6353 529.231,-85.6911"/>
<polygon fill="midnightblue" stroke="midnightblue" points="532.7,-86.1561 530.704,-75.7511 525.776,-85.1302 532.7,-86.1561"/>
</g>
<!-- Node17&#45;&gt;Node4 -->
<g id="edge42" class="edge"><title>Node17&#45;&gt;Node4</title>
<path fill="none" stroke="midnightblue" d="M407.451,-112.444C432.133,-103.438 471.185,-89.1891 498.977,-79.049"/>
<polygon fill="midnightblue" stroke="midnightblue" points="500.464,-82.2321 508.659,-75.5164 498.065,-75.6561 500.464,-82.2321"/>
</g>
<!-- Node19&#45;&gt;Node4 -->
<g id="edge48" class="edge"><title>Node19&#45;&gt;Node4</title>
<path fill="none" stroke="midnightblue" d="M564.271,-407.919C636.801,-398.34 742,-370.709 742,-291 742,-291 742,-291 742,-233 742,-168.037 715.973,-144.973 660,-112 634.378,-96.9066 602.899,-85.7562 577.57,-78.3304"/>
<polygon fill="midnightblue" stroke="midnightblue" points="578.413,-74.9312 567.837,-75.5695 576.502,-81.6656 578.413,-74.9312"/>
</g>
<!-- Node19&#45;&gt;Node11 -->
<g id="edge56" class="edge"><title>Node19&#45;&gt;Node11</title>
<path fill="none" stroke="midnightblue" d="M505.736,-404.357C514.499,-395.525 528.207,-381.262 539,-368 571.284,-328.329 604.877,-278.316 621.81,-252.384"/>
<polygon fill="midnightblue" stroke="midnightblue" points="624.94,-253.99 627.447,-243.696 619.068,-250.18 624.94,-253.99"/>
</g>
<!-- Node19&#45;&gt;Node13 -->
<g id="edge52" class="edge"><title>Node19&#45;&gt;Node13</title>
<path fill="none" stroke="midnightblue" d="M564.258,-409.165C631.284,-403.999 728.13,-392.461 756,-368 782.941,-344.355 780,-326.846 780,-291 780,-291 780,-291 780,-233 780,-200.915 777.851,-163.62 776.371,-141.737"/>
<polygon fill="midnightblue" stroke="midnightblue" points="779.847,-141.281 775.654,-131.552 772.865,-141.773 779.847,-141.281"/>
</g>
<!-- Node19&#45;&gt;Node14 -->
<g id="edge54" class="edge"><title>Node19&#45;&gt;Node14</title>
<path fill="none" stroke="midnightblue" d="M477.449,-404.349C462.991,-396.879 444.124,-384.654 434,-368 412.16,-332.075 411.656,-280.804 413.27,-253.607"/>
<polygon fill="midnightblue" stroke="midnightblue" points="416.767,-253.777 414.035,-243.54 409.787,-253.246 416.767,-253.777"/>
</g>
<!-- Node19&#45;&gt;Node16 -->
<g id="edge50" class="edge"><title>Node19&#45;&gt;Node16</title>
<path fill="none" stroke="midnightblue" d="M498.787,-404.412C500.604,-395.385 503.376,-380.752 505,-368 515.667,-284.236 521.197,-183.544 523.157,-142.171"/>
<polygon fill="midnightblue" stroke="midnightblue" points="526.665,-142.081 523.626,-131.932 519.672,-141.761 526.665,-142.081"/>
</g>
<!-- Node19&#45;&gt;Node20 -->
<g id="edge58" class="edge"><title>Node19&#45;&gt;Node20</title>
<path fill="none" stroke="midnightblue" d="M474.362,-404.403C447.26,-394.111 401.69,-376.806 370.996,-365.15"/>
<polygon fill="midnightblue" stroke="midnightblue" points="372.187,-361.859 361.596,-361.581 369.702,-368.403 372.187,-361.859"/>
</g>
<!-- Node21 -->
<g id="node53" class="node"><title>Node21</title>
<polygon fill="white" stroke="#bfbfbf" points="443.5,-342.5 443.5,-361.5 496.5,-361.5 496.5,-342.5 443.5,-342.5"/>
<text text-anchor="middle" x="470" y="-349.5" font-family="FreeSans" font-size="10.00">memory</text>
</g>
<!-- Node19&#45;&gt;Node21 -->
<g id="edge64" class="edge"><title>Node19&#45;&gt;Node21</title>
<path fill="none" stroke="midnightblue" d="M493.132,-404.403C489.202,-395.671 483,-381.889 478.007,-370.794"/>
<polygon fill="midnightblue" stroke="midnightblue" points="481.157,-369.264 473.861,-361.581 474.773,-372.136 481.157,-369.264"/>
</g>
<!-- Node20&#45;&gt;Node3 -->
<g id="edge62" class="edge"><title>Node20&#45;&gt;Node3</title>
<path fill="none" stroke="midnightblue" d="M328.254,-342.403C316.447,-332.958 297.257,-317.606 282.918,-306.134"/>
<polygon fill="midnightblue" stroke="midnightblue" points="284.721,-303.095 274.726,-299.581 280.348,-308.561 284.721,-303.095"/>
</g>
<!-- Node20&#45;&gt;Node4 -->
<g id="edge60" class="edge"><title>Node20&#45;&gt;Node4</title>
<path fill="none" stroke="midnightblue" d="M334.9,-342.375C319.476,-308.535 268.668,-183.208 326,-112 343.011,-90.8714 409.363,-79.1248 462.228,-72.9785"/>
<polygon fill="midnightblue" stroke="midnightblue" points="462.714,-76.4461 472.264,-71.8589 461.938,-69.4893 462.714,-76.4461"/>
</g>
<!-- Node22&#45;&gt;Node3 -->
<g id="edge72" class="edge"><title>Node22&#45;&gt;Node3</title>
<path fill="none" stroke="midnightblue" d="M214.404,-336.781C224.239,-327.703 236.993,-315.929 247.105,-306.595"/>
<polygon fill="midnightblue" stroke="midnightblue" points="249.568,-309.085 254.542,-299.731 244.82,-303.942 249.568,-309.085"/>
</g>
<!-- Node22&#45;&gt;Node4 -->
<g id="edge70" class="edge"><title>Node22&#45;&gt;Node4</title>
<path fill="none" stroke="midnightblue" d="M199,-336.713C199,-314.82 199,-271.653 199,-235 199,-235 199,-235 199,-177 199,-132.553 234.795,-130.949 275,-112 334.376,-84.0152 408.879,-73.2934 462.359,-69.2579"/>
<polygon fill="midnightblue" stroke="midnightblue" points="462.695,-72.7431 472.428,-68.5581 462.209,-65.76 462.695,-72.7431"/>
</g>
<!-- Node22&#45;&gt;Node18 -->
<g id="edge74" class="edge"><title>Node22&#45;&gt;Node18</title>
<path fill="none" stroke="midnightblue" d="M174.851,-336.933C158.25,-327.262 136.306,-314.479 119.784,-304.855"/>
<polygon fill="midnightblue" stroke="midnightblue" points="121.166,-301.609 110.763,-299.6 117.642,-307.658 121.166,-301.609"/>
</g>
<!-- Node23&#45;&gt;Node4 -->
<g id="edge78" class="edge"><title>Node23&#45;&gt;Node4</title>
<path fill="none" stroke="midnightblue" d="M752.251,-404.35C782.184,-387.104 843,-345.373 843,-291 843,-291 843,-291 843,-177 843,-146.902 846.634,-131.838 824,-112 791.856,-83.8271 677.807,-73.2642 602.121,-69.3229"/>
<polygon fill="midnightblue" stroke="midnightblue" points="601.868,-65.8063 591.708,-68.8095 601.523,-72.7978 601.868,-65.8063"/>
</g>
</g>
</svg>
