<?xml version="1.0" encoding="UTF-8" standalone="no"?>
<!DOCTYPE svg PUBLIC "-//W3C//DTD SVG 1.1//EN"
 "http://www.w3.org/Graphics/SVG/1.1/DTD/svg11.dtd">
<!-- Generated by graphviz version 2.36.0 (20140111.2315)
 -->
<!-- Title: Falloff.cpp Pages: 1 -->
<svg width="598pt" height="264pt"
 viewBox="0.00 0.00 598.00 264.00" xmlns="http://www.w3.org/2000/svg" xmlns:xlink="http://www.w3.org/1999/xlink">
<g id="graph0" class="graph" transform="scale(1 1) rotate(0) translate(4 260)">
<title>Falloff.cpp</title>
<polygon fill="white" stroke="none" points="-4,4 -4,-260 594,-260 594,4 -4,4"/>
<!-- Node1 -->
<g id="node1" class="node"><title>Node1</title>
<polygon fill="#bfbfbf" stroke="black" points="343,-236.5 343,-255.5 403,-255.5 403,-236.5 343,-236.5"/>
<text text-anchor="middle" x="373" y="-243.5" font-family="FreeSans" font-size="10.00">Falloff.cpp</text>
</g>
<!-- Node2 -->
<g id="node2" class="node"><title>Node2</title>
<g id="a_node2"><a xlink:href="stringUtils_8h.html" target="_top" xlink:title="Contains declarations for string manipulation functions within Cantera. ">
<polygon fill="white" stroke="black" points="310.5,-180.5 310.5,-199.5 435.5,-199.5 435.5,-180.5 310.5,-180.5"/>
<text text-anchor="middle" x="373" y="-187.5" font-family="FreeSans" font-size="10.00">cantera/base/stringUtils.h</text>
</a>
</g>
</g>
<!-- Node1&#45;&gt;Node2 -->
<g id="edge1" class="edge"><title>Node1&#45;&gt;Node2</title>
<path fill="none" stroke="midnightblue" d="M373,-236.083C373,-229.006 373,-218.861 373,-209.986"/>
<polygon fill="midnightblue" stroke="midnightblue" points="376.5,-209.751 373,-199.751 369.5,-209.751 376.5,-209.751"/>
</g>
<!-- Node15 -->
<g id="node15" class="node"><title>Node15</title>
<g id="a_node15"><a xlink:href="ctexceptions_8h.html" target="_top" xlink:title="Definitions for the classes that are thrown when Cantera experiences an error condition (also contain...">
<polygon fill="white" stroke="black" points="453.5,-180.5 453.5,-199.5 590.5,-199.5 590.5,-180.5 453.5,-180.5"/>
<text text-anchor="middle" x="522" y="-187.5" font-family="FreeSans" font-size="10.00">cantera/base/ctexceptions.h</text>
</a>
</g>
</g>
<!-- Node1&#45;&gt;Node15 -->
<g id="edge16" class="edge"><title>Node1&#45;&gt;Node15</title>
<path fill="none" stroke="midnightblue" d="M396.609,-236.444C421.458,-227.438 460.774,-213.189 488.754,-203.049"/>
<polygon fill="midnightblue" stroke="midnightblue" points="490.292,-206.214 498.501,-199.516 487.907,-199.633 490.292,-206.214"/>
</g>
<!-- Node17 -->
<g id="node17" class="node"><title>Node17</title>
<g id="a_node17"><a xlink:href="Falloff_8h_source.html" target="_top" xlink:title="cantera/kinetics/Falloff.h">
<polygon fill="white" stroke="black" points="171.5,-180.5 171.5,-199.5 292.5,-199.5 292.5,-180.5 171.5,-180.5"/>
<text text-anchor="middle" x="232" y="-187.5" font-family="FreeSans" font-size="10.00">cantera/kinetics/Falloff.h</text>
</a>
</g>
</g>
<!-- Node1&#45;&gt;Node17 -->
<g id="edge19" class="edge"><title>Node1&#45;&gt;Node17</title>
<path fill="none" stroke="midnightblue" d="M350.658,-236.444C327.247,-227.478 290.264,-213.314 263.81,-203.183"/>
<polygon fill="midnightblue" stroke="midnightblue" points="264.828,-199.824 254.237,-199.516 262.324,-206.361 264.828,-199.824"/>
</g>
<!-- Node3 -->
<g id="node3" class="node"><title>Node3</title>
<g id="a_node3"><a xlink:href="ct__defs_8h.html" target="_top" xlink:title="This file contains definitions of terms that are used in internal routines and are unlikely to need m...">
<polygon fill="white" stroke="black" points="249,-56.5 249,-75.5 305,-75.5 305,-56.5 249,-56.5"/>
<text text-anchor="middle" x="277" y="-63.5" font-family="FreeSans" font-size="10.00">ct_defs.h</text>
</a>
</g>
</g>
<!-- Node2&#45;&gt;Node3 -->
<g id="edge2" class="edge"><title>Node2&#45;&gt;Node3</title>
<path fill="none" stroke="midnightblue" d="M366.096,-180.226C350.182,-160.002 310.71,-109.84 290.061,-83.5989"/>
<polygon fill="midnightblue" stroke="midnightblue" points="292.776,-81.3888 283.842,-75.6944 287.275,-85.7175 292.776,-81.3888"/>
</g>
<!-- Node9 -->
<g id="node9" class="node"><title>Node9</title>
<polygon fill="white" stroke="#bfbfbf" points="451,-0.5 451,-19.5 491,-19.5 491,-0.5 451,-0.5"/>
<text text-anchor="middle" x="471" y="-7.5" font-family="FreeSans" font-size="10.00">string</text>
</g>
<!-- Node2&#45;&gt;Node9 -->
<g id="edge15" class="edge"><title>Node2&#45;&gt;Node9</title>
<path fill="none" stroke="midnightblue" d="M372.074,-180.315C370.12,-157.663 367.775,-95.7896 395,-56 406.043,-39.8609 424.944,-28.634 441.134,-21.4304"/>
<polygon fill="midnightblue" stroke="midnightblue" points="442.859,-24.5051 450.77,-17.4571 440.191,-18.0337 442.859,-24.5051"/>
</g>
<!-- Node12 -->
<g id="node12" class="node"><title>Node12</title>
<g id="a_node12"><a xlink:href="fmt_8h.html" target="_top" xlink:title="Wrapper for either system&#45;installed or local headers for fmt. ">
<polygon fill="white" stroke="black" points="399.5,-118.5 399.5,-137.5 496.5,-137.5 496.5,-118.5 399.5,-118.5"/>
<text text-anchor="middle" x="448" y="-125.5" font-family="FreeSans" font-size="10.00">cantera/base/fmt.h</text>
</a>
</g>
</g>
<!-- Node2&#45;&gt;Node12 -->
<g id="edge11" class="edge"><title>Node2&#45;&gt;Node12</title>
<path fill="none" stroke="midnightblue" d="M383.746,-180.403C395.553,-170.958 414.743,-155.606 429.082,-144.134"/>
<polygon fill="midnightblue" stroke="midnightblue" points="431.652,-146.561 437.274,-137.581 427.279,-141.095 431.652,-146.561"/>
</g>
<!-- Node4 -->
<g id="node4" class="node"><title>Node4</title>
<g id="a_node4"><a xlink:href="config_8h_source.html" target="_top" xlink:title="config.h">
<polygon fill="white" stroke="black" points="321,-0.5 321,-19.5 371,-19.5 371,-0.5 321,-0.5"/>
<text text-anchor="middle" x="346" y="-7.5" font-family="FreeSans" font-size="10.00">config.h</text>
</a>
</g>
</g>
<!-- Node3&#45;&gt;Node4 -->
<g id="edge3" class="edge"><title>Node3&#45;&gt;Node4</title>
<path fill="none" stroke="midnightblue" d="M288.086,-56.324C298.486,-48.1849 314.261,-35.8395 326.722,-26.0874"/>
<polygon fill="midnightblue" stroke="midnightblue" points="328.994,-28.7533 334.712,-19.8339 324.68,-23.2407 328.994,-28.7533"/>
</g>
<!-- Node5 -->
<g id="node5" class="node"><title>Node5</title>
<polygon fill="white" stroke="#bfbfbf" points="389,-0.5 389,-19.5 433,-19.5 433,-0.5 389,-0.5"/>
<text text-anchor="middle" x="411" y="-7.5" font-family="FreeSans" font-size="10.00">cmath</text>
</g>
<!-- Node3&#45;&gt;Node5 -->
<g id="edge4" class="edge"><title>Node3&#45;&gt;Node5</title>
<path fill="none" stroke="midnightblue" d="M298.233,-56.4435C320.384,-47.5171 355.319,-33.4387 380.436,-23.3168"/>
<polygon fill="midnightblue" stroke="midnightblue" points="381.9,-26.5006 389.867,-19.5164 379.283,-20.0079 381.9,-26.5006"/>
</g>
<!-- Node6 -->
<g id="node6" class="node"><title>Node6</title>
<polygon fill="white" stroke="#bfbfbf" points="0,-0.5 0,-19.5 44,-19.5 44,-0.5 0,-0.5"/>
<text text-anchor="middle" x="22" y="-7.5" font-family="FreeSans" font-size="10.00">cstdlib</text>
</g>
<!-- Node3&#45;&gt;Node6 -->
<g id="edge5" class="edge"><title>Node3&#45;&gt;Node6</title>
<path fill="none" stroke="midnightblue" d="M248.895,-60.1401C208.124,-52.9206 130.012,-38.4549 54.4494,-20.1969"/>
<polygon fill="midnightblue" stroke="midnightblue" points="54.8355,-16.6884 44.2905,-17.715 53.1742,-23.4884 54.8355,-16.6884"/>
</g>
<!-- Node7 -->
<g id="node7" class="node"><title>Node7</title>
<polygon fill="white" stroke="#bfbfbf" points="62.5,-0.5 62.5,-19.5 105.5,-19.5 105.5,-0.5 62.5,-0.5"/>
<text text-anchor="middle" x="84" y="-7.5" font-family="FreeSans" font-size="10.00">vector</text>
</g>
<!-- Node3&#45;&gt;Node7 -->
<g id="edge6" class="edge"><title>Node3&#45;&gt;Node7</title>
<path fill="none" stroke="midnightblue" d="M248.97,-57.4636C218.357,-49.1889 167.644,-35.3526 115.385,-20.3583"/>
<polygon fill="midnightblue" stroke="midnightblue" points="116.191,-16.9484 105.613,-17.5461 114.255,-23.6754 116.191,-16.9484"/>
</g>
<!-- Node8 -->
<g id="node8" class="node"><title>Node8</title>
<polygon fill="white" stroke="#bfbfbf" points="123.5,-0.5 123.5,-19.5 158.5,-19.5 158.5,-0.5 123.5,-0.5"/>
<text text-anchor="middle" x="141" y="-7.5" font-family="FreeSans" font-size="10.00">map</text>
</g>
<!-- Node3&#45;&gt;Node8 -->
<g id="edge7" class="edge"><title>Node3&#45;&gt;Node8</title>
<path fill="none" stroke="midnightblue" d="M255.45,-56.4435C231.779,-47.0445 193.722,-31.9336 168.059,-21.7438"/>
<polygon fill="midnightblue" stroke="midnightblue" points="169.142,-18.4084 158.557,-17.971 166.559,-24.9143 169.142,-18.4084"/>
</g>
<!-- Node3&#45;&gt;Node9 -->
<g id="edge8" class="edge"><title>Node3&#45;&gt;Node9</title>
<path fill="none" stroke="midnightblue" d="M305.206,-57.4781C337.926,-48.7018 393.467,-33.6491 441,-20 441.098,-19.9719 441.196,-19.9437 441.295,-19.9154"/>
<polygon fill="midnightblue" stroke="midnightblue" points="442.073,-23.3346 450.686,-17.1651 440.105,-16.6167 442.073,-23.3346"/>
</g>
<!-- Node10 -->
<g id="node10" class="node"><title>Node10</title>
<polygon fill="white" stroke="#bfbfbf" points="177,-0.5 177,-19.5 233,-19.5 233,-0.5 177,-0.5"/>
<text text-anchor="middle" x="205" y="-7.5" font-family="FreeSans" font-size="10.00">algorithm</text>
</g>
<!-- Node3&#45;&gt;Node10 -->
<g id="edge9" class="edge"><title>Node3&#45;&gt;Node10</title>
<path fill="none" stroke="midnightblue" d="M265.432,-56.324C254.58,-48.1849 238.119,-35.8395 225.117,-26.0874"/>
<polygon fill="midnightblue" stroke="midnightblue" points="226.879,-23.0339 216.779,-19.8339 222.679,-28.6339 226.879,-23.0339"/>
</g>
<!-- Node11 -->
<g id="node11" class="node"><title>Node11</title>
<polygon fill="white" stroke="#bfbfbf" points="251.5,-0.5 251.5,-19.5 302.5,-19.5 302.5,-0.5 251.5,-0.5"/>
<text text-anchor="middle" x="277" y="-7.5" font-family="FreeSans" font-size="10.00">memory</text>
</g>
<!-- Node3&#45;&gt;Node11 -->
<g id="edge10" class="edge"><title>Node3&#45;&gt;Node11</title>
<path fill="none" stroke="midnightblue" d="M277,-56.083C277,-49.0059 277,-38.8611 277,-29.9865"/>
<polygon fill="midnightblue" stroke="midnightblue" points="280.5,-29.751 277,-19.7511 273.5,-29.7511 280.5,-29.751"/>
</g>
<!-- Node12&#45;&gt;Node3 -->
<g id="edge12" class="edge"><title>Node12&#45;&gt;Node3</title>
<path fill="none" stroke="midnightblue" d="M423.5,-118.403C394.04,-108.067 344.421,-90.6564 311.198,-78.9994"/>
<polygon fill="midnightblue" stroke="midnightblue" points="312.05,-75.5889 301.455,-75.5806 309.732,-82.1941 312.05,-75.5889"/>
</g>
<!-- Node13 -->
<g id="node13" class="node"><title>Node13</title>
<polygon fill="white" stroke="#bfbfbf" points="498.5,-56.5 498.5,-75.5 567.5,-75.5 567.5,-56.5 498.5,-56.5"/>
<text text-anchor="middle" x="533" y="-63.5" font-family="FreeSans" font-size="10.00">fmt/format.h</text>
</g>
<!-- Node12&#45;&gt;Node13 -->
<g id="edge13" class="edge"><title>Node12&#45;&gt;Node13</title>
<path fill="none" stroke="midnightblue" d="M460.178,-118.403C473.812,-108.78 496.132,-93.0242 512.474,-81.4891"/>
<polygon fill="midnightblue" stroke="midnightblue" points="514.693,-84.2069 520.844,-75.5806 510.656,-78.4881 514.693,-84.2069"/>
</g>
<!-- Node14 -->
<g id="node14" class="node"><title>Node14</title>
<polygon fill="white" stroke="#bfbfbf" points="404,-56.5 404,-75.5 480,-75.5 480,-56.5 404,-56.5"/>
<text text-anchor="middle" x="442" y="-63.5" font-family="FreeSans" font-size="10.00">fmt/ostream.h</text>
</g>
<!-- Node12&#45;&gt;Node14 -->
<g id="edge14" class="edge"><title>Node12&#45;&gt;Node14</title>
<path fill="none" stroke="midnightblue" d="M447.14,-118.403C446.294,-109.938 444.973,-96.7283 443.882,-85.8199"/>
<polygon fill="midnightblue" stroke="midnightblue" points="447.336,-85.1827 442.858,-75.5806 440.371,-85.8793 447.336,-85.1827"/>
</g>
<!-- Node15&#45;&gt;Node12 -->
<g id="edge17" class="edge"><title>Node15&#45;&gt;Node12</title>
<path fill="none" stroke="midnightblue" d="M511.398,-180.403C499.748,-170.958 480.814,-155.606 466.665,-144.134"/>
<polygon fill="midnightblue" stroke="midnightblue" points="468.555,-141.16 458.583,-137.581 464.146,-146.597 468.555,-141.16"/>
</g>
<!-- Node16 -->
<g id="node16" class="node"><title>Node16</title>
<polygon fill="white" stroke="#bfbfbf" points="514,-118.5 514,-137.5 572,-137.5 572,-118.5 514,-118.5"/>
<text text-anchor="middle" x="543" y="-125.5" font-family="FreeSans" font-size="10.00">exception</text>
</g>
<!-- Node15&#45;&gt;Node16 -->
<g id="edge18" class="edge"><title>Node15&#45;&gt;Node16</title>
<path fill="none" stroke="midnightblue" d="M525.009,-180.403C528.034,-171.76 532.79,-158.17 536.653,-147.134"/>
<polygon fill="midnightblue" stroke="midnightblue" points="539.997,-148.175 539.997,-137.581 533.39,-145.863 539.997,-148.175"/>
</g>
<!-- Node18 -->
<g id="node18" class="node"><title>Node18</title>
<g id="a_node18"><a xlink:href="reaction__defs_8h.html" target="_top" xlink:title="This file defines some constants used to specify reaction types. ">
<polygon fill="white" stroke="black" points="178,-113 178,-143 300,-143 300,-113 178,-113"/>
<text text-anchor="start" x="186" y="-131" font-family="FreeSans" font-size="10.00">cantera/kinetics/reaction</text>
<text text-anchor="middle" x="239" y="-120" font-family="FreeSans" font-size="10.00">_defs.h</text>
</a>
</g>
</g>
<!-- Node17&#45;&gt;Node18 -->
<g id="edge20" class="edge"><title>Node17&#45;&gt;Node18</title>
<path fill="none" stroke="midnightblue" d="M233.003,-180.403C233.836,-173.265 235.062,-162.752 236.189,-153.09"/>
<polygon fill="midnightblue" stroke="midnightblue" points="239.668,-153.479 237.35,-143.141 232.715,-152.668 239.668,-153.479"/>
</g>
<!-- Node18&#45;&gt;Node3 -->
<g id="edge21" class="edge"><title>Node18&#45;&gt;Node3</title>
<path fill="none" stroke="midnightblue" d="M248.005,-112.781C253.413,-104.242 260.332,-93.3184 266.054,-84.2834"/>
<polygon fill="midnightblue" stroke="midnightblue" points="269.077,-86.0514 271.471,-75.7305 263.163,-82.306 269.077,-86.0514"/>
</g>
</g>
</svg>
