<?xml version="1.0" encoding="UTF-8" standalone="no"?>
<!DOCTYPE svg PUBLIC "-//W3C//DTD SVG 1.1//EN"
 "http://www.w3.org/Graphics/SVG/1.1/DTD/svg11.dtd">
<!-- Generated by graphviz version 2.36.0 (20140111.2315)
 -->
<!-- Title: FalloffFactory.h Pages: 1 -->
<svg width="589pt" height="196pt"
 viewBox="0.00 0.00 589.00 196.00" xmlns="http://www.w3.org/2000/svg" xmlns:xlink="http://www.w3.org/1999/xlink">
<g id="graph0" class="graph" transform="scale(1 1) rotate(0) translate(4 192)">
<title>FalloffFactory.h</title>
<polygon fill="white" stroke="none" points="-4,4 -4,-192 585,-192 585,4 -4,4"/>
<!-- Node1 -->
<g id="node1" class="node"><title>Node1</title>
<polygon fill="#bfbfbf" stroke="black" points="232,-168.5 232,-187.5 314,-187.5 314,-168.5 232,-168.5"/>
<text text-anchor="middle" x="273" y="-175.5" font-family="FreeSans" font-size="10.00">FalloffFactory.h</text>
</g>
<!-- Node2 -->
<g id="node2" class="node"><title>Node2</title>
<g id="a_node2"><a xlink:href="ct__defs_8h.html" target="_top" xlink:title="This file contains definitions of terms that are used in internal routines and are unlikely to need m...">
<polygon fill="white" stroke="black" points="93,-56.5 93,-75.5 207,-75.5 207,-56.5 93,-56.5"/>
<text text-anchor="middle" x="150" y="-63.5" font-family="FreeSans" font-size="10.00">cantera/base/ct_defs.h</text>
</a>
</g>
</g>
<!-- Node1&#45;&gt;Node2 -->
<g id="edge1" class="edge"><title>Node1&#45;&gt;Node2</title>
<path fill="none" stroke="midnightblue" d="M231.968,-170.133C208.388,-164.056 180.138,-152.768 163,-132 152.365,-119.113 149.612,-99.9364 149.221,-85.7494"/>
<polygon fill="midnightblue" stroke="midnightblue" points="152.721,-85.6869 149.308,-75.657 145.722,-85.6263 152.721,-85.6869"/>
</g>
<!-- Node9 -->
<g id="node9" class="node"><title>Node9</title>
<g id="a_node9"><a xlink:href="reaction__defs_8h.html" target="_top" xlink:title="This file defines some constants used to specify reaction types. ">
<polygon fill="white" stroke="black" points="172,-112.5 172,-131.5 254,-131.5 254,-112.5 172,-112.5"/>
<text text-anchor="middle" x="213" y="-119.5" font-family="FreeSans" font-size="10.00">reaction_defs.h</text>
</a>
</g>
</g>
<!-- Node1&#45;&gt;Node9 -->
<g id="edge8" class="edge"><title>Node1&#45;&gt;Node9</title>
<path fill="none" stroke="midnightblue" d="M263.36,-168.324C254.49,-160.341 241.125,-148.313 230.392,-138.653"/>
<polygon fill="midnightblue" stroke="midnightblue" points="232.59,-135.922 222.815,-131.834 227.907,-141.125 232.59,-135.922"/>
</g>
<!-- Node10 -->
<g id="node10" class="node"><title>Node10</title>
<g id="a_node10"><a xlink:href="FactoryBase_8h.html" target="_top" xlink:title="File contains the FactoryBase class declarations. ">
<polygon fill="white" stroke="black" points="444.5,-112.5 444.5,-131.5 581.5,-131.5 581.5,-112.5 444.5,-112.5"/>
<text text-anchor="middle" x="513" y="-119.5" font-family="FreeSans" font-size="10.00">cantera/base/FactoryBase.h</text>
</a>
</g>
</g>
<!-- Node1&#45;&gt;Node10 -->
<g id="edge10" class="edge"><title>Node1&#45;&gt;Node10</title>
<path fill="none" stroke="midnightblue" d="M311.029,-168.444C352.808,-159.043 419.982,-143.929 465.27,-133.739"/>
<polygon fill="midnightblue" stroke="midnightblue" points="466.161,-137.126 475.149,-131.516 464.625,-130.297 466.161,-137.126"/>
</g>
<!-- Node11 -->
<g id="node11" class="node"><title>Node11</title>
<g id="a_node11"><a xlink:href="ct__thread_8h.html" target="_top" xlink:title="cantera/base/ct_thread.h">
<polygon fill="white" stroke="black" points="272.5,-112.5 272.5,-131.5 395.5,-131.5 395.5,-112.5 272.5,-112.5"/>
<text text-anchor="middle" x="334" y="-119.5" font-family="FreeSans" font-size="10.00">cantera/base/ct_thread.h</text>
</a>
</g>
</g>
<!-- Node1&#45;&gt;Node11 -->
<g id="edge12" class="edge"><title>Node1&#45;&gt;Node11</title>
<path fill="none" stroke="midnightblue" d="M282.801,-168.324C291.818,-160.341 305.406,-148.313 316.318,-138.653"/>
<polygon fill="midnightblue" stroke="midnightblue" points="318.853,-141.083 324.021,-131.834 314.213,-135.842 318.853,-141.083"/>
</g>
<!-- Node3 -->
<g id="node3" class="node"><title>Node3</title>
<g id="a_node3"><a xlink:href="config_8h_source.html" target="_top" xlink:title="config.h">
<polygon fill="white" stroke="black" points="236,-0.5 236,-19.5 286,-19.5 286,-0.5 236,-0.5"/>
<text text-anchor="middle" x="261" y="-7.5" font-family="FreeSans" font-size="10.00">config.h</text>
</a>
</g>
</g>
<!-- Node2&#45;&gt;Node3 -->
<g id="edge2" class="edge"><title>Node2&#45;&gt;Node3</title>
<path fill="none" stroke="midnightblue" d="M167.834,-56.324C185.716,-47.6247 213.475,-34.1202 234.046,-24.113"/>
<polygon fill="midnightblue" stroke="midnightblue" points="235.749,-27.1765 243.21,-19.6545 232.687,-20.8819 235.749,-27.1765"/>
</g>
<!-- Node4 -->
<g id="node4" class="node"><title>Node4</title>
<polygon fill="white" stroke="#bfbfbf" points="174,-0.5 174,-19.5 218,-19.5 218,-0.5 174,-0.5"/>
<text text-anchor="middle" x="196" y="-7.5" font-family="FreeSans" font-size="10.00">cmath</text>
</g>
<!-- Node2&#45;&gt;Node4 -->
<g id="edge3" class="edge"><title>Node2&#45;&gt;Node4</title>
<path fill="none" stroke="midnightblue" d="M157.596,-56.083C164.227,-48.2982 174.021,-36.8015 182.058,-27.3665"/>
<polygon fill="midnightblue" stroke="midnightblue" points="184.725,-29.6332 188.545,-19.7511 179.396,-25.0939 184.725,-29.6332"/>
</g>
<!-- Node5 -->
<g id="node5" class="node"><title>Node5</title>
<polygon fill="white" stroke="#bfbfbf" points="0,-0.5 0,-19.5 44,-19.5 44,-0.5 0,-0.5"/>
<text text-anchor="middle" x="22" y="-7.5" font-family="FreeSans" font-size="10.00">cstdlib</text>
</g>
<!-- Node2&#45;&gt;Node5 -->
<g id="edge4" class="edge"><title>Node2&#45;&gt;Node5</title>
<path fill="none" stroke="midnightblue" d="M129.718,-56.4435C108.653,-47.5566 75.4832,-33.5632 51.5145,-23.4514"/>
<polygon fill="midnightblue" stroke="midnightblue" points="52.7612,-20.1787 42.1871,-19.5164 50.0403,-26.6283 52.7612,-20.1787"/>
</g>
<!-- Node6 -->
<g id="node6" class="node"><title>Node6</title>
<polygon fill="white" stroke="#bfbfbf" points="406.5,-0.5 406.5,-19.5 449.5,-19.5 449.5,-0.5 406.5,-0.5"/>
<text text-anchor="middle" x="428" y="-7.5" font-family="FreeSans" font-size="10.00">vector</text>
</g>
<!-- Node2&#45;&gt;Node6 -->
<g id="edge5" class="edge"><title>Node2&#45;&gt;Node6</title>
<path fill="none" stroke="midnightblue" d="M194.05,-56.4435C250.509,-45.4766 347.004,-26.7331 396.573,-17.1045"/>
<polygon fill="midnightblue" stroke="midnightblue" points="397.258,-20.537 406.407,-15.1943 395.923,-13.6654 397.258,-20.537"/>
</g>
<!-- Node7 -->
<g id="node7" class="node"><title>Node7</title>
<polygon fill="white" stroke="#bfbfbf" points="62.5,-0.5 62.5,-19.5 97.5,-19.5 97.5,-0.5 62.5,-0.5"/>
<text text-anchor="middle" x="80" y="-7.5" font-family="FreeSans" font-size="10.00">map</text>
</g>
<!-- Node2&#45;&gt;Node7 -->
<g id="edge6" class="edge"><title>Node2&#45;&gt;Node7</title>
<path fill="none" stroke="midnightblue" d="M138.753,-56.324C128.203,-48.1849 112.199,-35.8395 99.5578,-26.0874"/>
<polygon fill="midnightblue" stroke="midnightblue" points="101.507,-23.1707 91.4513,-19.8339 97.2314,-28.7132 101.507,-23.1707"/>
</g>
<!-- Node8 -->
<g id="node8" class="node"><title>Node8</title>
<polygon fill="white" stroke="#bfbfbf" points="116,-0.5 116,-19.5 156,-19.5 156,-0.5 116,-0.5"/>
<text text-anchor="middle" x="136" y="-7.5" font-family="FreeSans" font-size="10.00">string</text>
</g>
<!-- Node2&#45;&gt;Node8 -->
<g id="edge7" class="edge"><title>Node2&#45;&gt;Node8</title>
<path fill="none" stroke="midnightblue" d="M147.688,-56.083C145.833,-48.9272 143.165,-38.6353 140.846,-29.6911"/>
<polygon fill="midnightblue" stroke="midnightblue" points="144.166,-28.5527 138.269,-19.7511 137.391,-30.3094 144.166,-28.5527"/>
</g>
<!-- Node9&#45;&gt;Node2 -->
<g id="edge9" class="edge"><title>Node9&#45;&gt;Node2</title>
<path fill="none" stroke="midnightblue" d="M202.878,-112.324C193.474,-104.263 179.256,-92.0765 167.931,-82.3695"/>
<polygon fill="midnightblue" stroke="midnightblue" points="170.177,-79.6844 160.306,-75.8339 165.621,-84.9993 170.177,-79.6844"/>
</g>
<!-- Node10&#45;&gt;Node6 -->
<g id="edge11" class="edge"><title>Node10&#45;&gt;Node6</title>
<path fill="none" stroke="midnightblue" d="M518.246,-112.259C525.432,-99.0301 536.239,-73.6034 525,-56 510.706,-33.6112 482.088,-22.1918 459.623,-16.4739"/>
<polygon fill="midnightblue" stroke="midnightblue" points="460.337,-13.0468 449.808,-14.229 458.776,-19.8706 460.337,-13.0468"/>
</g>
<!-- Node11&#45;&gt;Node3 -->
<g id="edge13" class="edge"><title>Node11&#45;&gt;Node3</title>
<path fill="none" stroke="midnightblue" d="M311.617,-112.486C295.996,-105.279 276.188,-93.3292 266,-76 257.844,-62.127 257.205,-43.6128 258.25,-29.8927"/>
<polygon fill="midnightblue" stroke="midnightblue" points="261.756,-30.0308 259.395,-19.7025 254.8,-29.2491 261.756,-30.0308"/>
</g>
<!-- Node12 -->
<g id="node12" class="node"><title>Node12</title>
<polygon fill="white" stroke="#bfbfbf" points="275,-56.5 275,-75.5 381,-75.5 381,-56.5 275,-56.5"/>
<text text-anchor="middle" x="328" y="-63.5" font-family="FreeSans" font-size="10.00">boost/shared_ptr.hpp</text>
</g>
<!-- Node11&#45;&gt;Node12 -->
<g id="edge14" class="edge"><title>Node11&#45;&gt;Node12</title>
<path fill="none" stroke="midnightblue" d="M333.009,-112.083C332.214,-104.927 331.071,-94.6353 330.077,-85.6911"/>
<polygon fill="midnightblue" stroke="midnightblue" points="333.555,-85.3034 328.972,-75.7511 326.598,-86.0765 333.555,-85.3034"/>
</g>
<!-- Node13 -->
<g id="node13" class="node"><title>Node13</title>
<polygon fill="white" stroke="#bfbfbf" points="399.5,-56.5 399.5,-75.5 516.5,-75.5 516.5,-56.5 399.5,-56.5"/>
<text text-anchor="middle" x="458" y="-63.5" font-family="FreeSans" font-size="10.00">boost/thread/mutex.hpp</text>
</g>
<!-- Node11&#45;&gt;Node13 -->
<g id="edge15" class="edge"><title>Node11&#45;&gt;Node13</title>
<path fill="none" stroke="midnightblue" d="M353.648,-112.444C373.965,-103.596 405.903,-89.6875 429.098,-79.5865"/>
<polygon fill="midnightblue" stroke="midnightblue" points="430.673,-82.7181 438.444,-75.5164 427.878,-76.3002 430.673,-82.7181"/>
</g>
</g>
</svg>
