<?xml version="1.0" encoding="UTF-8" standalone="no"?>
<!DOCTYPE svg PUBLIC "-//W3C//DTD SVG 1.1//EN"
 "http://www.w3.org/Graphics/SVG/1.1/DTD/svg11.dtd">
<!-- Generated by graphviz version 2.38.0 (20151222.1943)
 -->
<!-- Title: FalloffFactory.h Pages: 1 -->
<svg width="499pt" height="263pt"
 viewBox="0.00 0.00 499.00 263.00" xmlns="http://www.w3.org/2000/svg" xmlns:xlink="http://www.w3.org/1999/xlink">
<g id="graph0" class="graph" transform="scale(1 1) rotate(0) translate(4 259)">
<title>FalloffFactory.h</title>
<polygon fill="white" stroke="none" points="-4,4 -4,-259 495,-259 495,4 -4,4"/>
<!-- Node1 -->
<g id="node1" class="node"><title>Node1</title>
<polygon fill="#bfbfbf" stroke="black" points="100.5,-235.5 100.5,-254.5 182.5,-254.5 182.5,-235.5 100.5,-235.5"/>
<text text-anchor="middle" x="141.5" y="-242.5" font-family="FreeSans" font-size="10.00">FalloffFactory.h</text>
</g>
<!-- Node2 -->
<g id="node2" class="node"><title>Node2</title>
<g id="a_node2"><a xlink:href="FactoryBase_8h.html" target="_top" xlink:title="File contains the FactoryBase class declarations. ">
<polygon fill="white" stroke="black" points="0,-179.5 0,-198.5 137,-198.5 137,-179.5 0,-179.5"/>
<text text-anchor="middle" x="68.5" y="-186.5" font-family="FreeSans" font-size="10.00">cantera/base/FactoryBase.h</text>
</a>
</g>
</g>
<!-- Node1&#45;&gt;Node2 -->
<g id="edge1" class="edge"><title>Node1&#45;&gt;Node2</title>
<path fill="none" stroke="midnightblue" d="M129.771,-235.324C118.663,-227.107 101.758,-214.602 88.5167,-204.807"/>
<polygon fill="midnightblue" stroke="midnightblue" points="90.5631,-201.967 80.4421,-198.834 86.4001,-207.595 90.5631,-201.967"/>
</g>
<!-- Node5 -->
<g id="node5" class="node"><title>Node5</title>
<g id="a_node5"><a xlink:href="Falloff_8h_source.html" target="_top" xlink:title="cantera/kinetics/Falloff.h">
<polygon fill="white" stroke="black" points="155,-179.5 155,-198.5 276,-198.5 276,-179.5 155,-179.5"/>
<text text-anchor="middle" x="215.5" y="-186.5" font-family="FreeSans" font-size="10.00">cantera/kinetics/Falloff.h</text>
</a>
</g>
</g>
<!-- Node1&#45;&gt;Node5 -->
<g id="edge4" class="edge"><title>Node1&#45;&gt;Node5</title>
<path fill="none" stroke="midnightblue" d="M153.389,-235.324C164.65,-227.107 181.787,-214.602 195.209,-204.807"/>
<polygon fill="midnightblue" stroke="midnightblue" points="197.38,-207.556 203.394,-198.834 193.253,-201.901 197.38,-207.556"/>
</g>
<!-- Node3 -->
<g id="node3" class="node"><title>Node3</title>
<polygon fill="white" stroke="#bfbfbf" points="0,-0.5 0,-19.5 43,-19.5 43,-0.5 0,-0.5"/>
<text text-anchor="middle" x="21.5" y="-7.5" font-family="FreeSans" font-size="10.00">vector</text>
</g>
<!-- Node2&#45;&gt;Node3 -->
<g id="edge2" class="edge"><title>Node2&#45;&gt;Node3</title>
<path fill="none" stroke="midnightblue" d="M61.5221,-179.27C54.9802,-170.598 45.4821,-156.658 40.5,-143 26.4006,-104.348 22.7204,-55.7528 21.7881,-29.643"/>
<polygon fill="midnightblue" stroke="midnightblue" points="25.2867,-29.5404 21.5299,-19.634 18.289,-29.721 25.2867,-29.5404"/>
</g>
<!-- Node4 -->
<g id="node4" class="node"><title>Node4</title>
<polygon fill="white" stroke="#bfbfbf" points="50,-118 50,-137 93,-137 93,-118 50,-118"/>
<text text-anchor="middle" x="71.5" y="-125" font-family="FreeSans" font-size="10.00">mutex</text>
</g>
<!-- Node2&#45;&gt;Node4 -->
<g id="edge3" class="edge"><title>Node2&#45;&gt;Node4</title>
<path fill="none" stroke="midnightblue" d="M68.9298,-179.475C69.3531,-171.08 70.0136,-157.981 70.559,-147.163"/>
<polygon fill="midnightblue" stroke="midnightblue" points="74.0629,-147.173 71.071,-137.009 67.0718,-146.82 74.0629,-147.173"/>
</g>
<!-- Node6 -->
<g id="node6" class="node"><title>Node6</title>
<g id="a_node6"><a xlink:href="reaction__defs_8h.html" target="_top" xlink:title="This file defines some constants used to specify reaction types. ">
<polygon fill="white" stroke="black" points="154.5,-112.5 154.5,-142.5 276.5,-142.5 276.5,-112.5 154.5,-112.5"/>
<text text-anchor="start" x="162.5" y="-130.5" font-family="FreeSans" font-size="10.00">cantera/kinetics/reaction</text>
<text text-anchor="middle" x="215.5" y="-119.5" font-family="FreeSans" font-size="10.00">_defs.h</text>
</a>
</g>
</g>
<!-- Node5&#45;&gt;Node6 -->
<g id="edge5" class="edge"><title>Node5&#45;&gt;Node6</title>
<path fill="none" stroke="midnightblue" d="M215.5,-179.475C215.5,-172.471 215.5,-162.192 215.5,-152.696"/>
<polygon fill="midnightblue" stroke="midnightblue" points="219,-152.523 215.5,-142.523 212,-152.523 219,-152.523"/>
</g>
<!-- Node7 -->
<g id="node7" class="node"><title>Node7</title>
<g id="a_node7"><a xlink:href="ct__defs_8h.html" target="_top" xlink:title="This file contains definitions of terms that are used in internal routines and are unlikely to need m...">
<polygon fill="white" stroke="black" points="158.5,-56.5 158.5,-75.5 272.5,-75.5 272.5,-56.5 158.5,-56.5"/>
<text text-anchor="middle" x="215.5" y="-63.5" font-family="FreeSans" font-size="10.00">cantera/base/ct_defs.h</text>
</a>
</g>
</g>
<!-- Node6&#45;&gt;Node7 -->
<g id="edge6" class="edge"><title>Node6&#45;&gt;Node7</title>
<path fill="none" stroke="midnightblue" d="M215.5,-112.399C215.5,-104.466 215.5,-94.458 215.5,-85.8583"/>
<polygon fill="midnightblue" stroke="midnightblue" points="219,-85.6577 215.5,-75.6578 212,-85.6578 219,-85.6577"/>
</g>
<!-- Node7&#45;&gt;Node3 -->
<g id="edge10" class="edge"><title>Node7&#45;&gt;Node3</title>
<path fill="none" stroke="midnightblue" d="M184.218,-56.4954C153.302,-48.0615 104.415,-34.6474 52.8295,-20.066"/>
<polygon fill="midnightblue" stroke="midnightblue" points="53.7451,-16.6877 43.1697,-17.3307 51.8378,-23.4229 53.7451,-16.6877"/>
</g>
<!-- Node8 -->
<g id="node8" class="node"><title>Node8</title>
<g id="a_node8"><a xlink:href="config_8h_source.html" target="_top" xlink:title="config.h">
<polygon fill="white" stroke="black" points="61.5,-0.5 61.5,-19.5 111.5,-19.5 111.5,-0.5 61.5,-0.5"/>
<text text-anchor="middle" x="86.5" y="-7.5" font-family="FreeSans" font-size="10.00">config.h</text>
</a>
</g>
</g>
<!-- Node7&#45;&gt;Node8 -->
<g id="edge7" class="edge"><title>Node7&#45;&gt;Node8</title>
<path fill="none" stroke="midnightblue" d="M195.06,-56.4435C173.83,-47.5566 140.401,-33.5632 116.245,-23.4514"/>
<polygon fill="midnightblue" stroke="midnightblue" points="117.421,-20.1493 106.845,-19.5164 114.718,-26.6064 117.421,-20.1493"/>
</g>
<!-- Node9 -->
<g id="node9" class="node"><title>Node9</title>
<polygon fill="white" stroke="#bfbfbf" points="129.5,-0.5 129.5,-19.5 173.5,-19.5 173.5,-0.5 129.5,-0.5"/>
<text text-anchor="middle" x="151.5" y="-7.5" font-family="FreeSans" font-size="10.00">cmath</text>
</g>
<!-- Node7&#45;&gt;Node9 -->
<g id="edge8" class="edge"><title>Node7&#45;&gt;Node9</title>
<path fill="none" stroke="midnightblue" d="M205.217,-56.324C195.664,-48.2631 181.22,-36.0765 169.716,-26.3695"/>
<polygon fill="midnightblue" stroke="midnightblue" points="171.87,-23.6076 161.97,-19.8339 167.356,-28.9577 171.87,-23.6076"/>
</g>
<!-- Node10 -->
<g id="node10" class="node"><title>Node10</title>
<polygon fill="white" stroke="#bfbfbf" points="191.5,-0.5 191.5,-19.5 235.5,-19.5 235.5,-0.5 191.5,-0.5"/>
<text text-anchor="middle" x="213.5" y="-7.5" font-family="FreeSans" font-size="10.00">cstdlib</text>
</g>
<!-- Node7&#45;&gt;Node10 -->
<g id="edge9" class="edge"><title>Node7&#45;&gt;Node10</title>
<path fill="none" stroke="midnightblue" d="M215.17,-56.083C214.908,-49.0059 214.532,-38.8611 214.203,-29.9865"/>
<polygon fill="midnightblue" stroke="midnightblue" points="217.692,-29.6147 213.824,-19.7511 210.697,-29.8738 217.692,-29.6147"/>
</g>
<!-- Node11 -->
<g id="node11" class="node"><title>Node11</title>
<polygon fill="white" stroke="#bfbfbf" points="254,-0.5 254,-19.5 289,-19.5 289,-0.5 254,-0.5"/>
<text text-anchor="middle" x="271.5" y="-7.5" font-family="FreeSans" font-size="10.00">map</text>
</g>
<!-- Node7&#45;&gt;Node11 -->
<g id="edge11" class="edge"><title>Node7&#45;&gt;Node11</title>
<path fill="none" stroke="midnightblue" d="M224.497,-56.324C232.694,-48.4196 245.006,-36.5482 254.972,-26.9377"/>
<polygon fill="midnightblue" stroke="midnightblue" points="257.57,-29.2947 262.339,-19.8339 252.711,-24.2558 257.57,-29.2947"/>
</g>
<!-- Node12 -->
<g id="node12" class="node"><title>Node12</title>
<polygon fill="white" stroke="#bfbfbf" points="307.5,-0.5 307.5,-19.5 347.5,-19.5 347.5,-0.5 307.5,-0.5"/>
<text text-anchor="middle" x="327.5" y="-7.5" font-family="FreeSans" font-size="10.00">string</text>
</g>
<!-- Node7&#45;&gt;Node12 -->
<g id="edge12" class="edge"><title>Node7&#45;&gt;Node12</title>
<path fill="none" stroke="midnightblue" d="M233.495,-56.324C251.538,-47.6247 279.547,-34.1202 300.303,-24.113"/>
<polygon fill="midnightblue" stroke="midnightblue" points="302.062,-27.1502 309.55,-19.6545 299.022,-20.8449 302.062,-27.1502"/>
</g>
<!-- Node13 -->
<g id="node13" class="node"><title>Node13</title>
<polygon fill="white" stroke="#bfbfbf" points="365.5,-0.5 365.5,-19.5 421.5,-19.5 421.5,-0.5 365.5,-0.5"/>
<text text-anchor="middle" x="393.5" y="-7.5" font-family="FreeSans" font-size="10.00">algorithm</text>
</g>
<!-- Node7&#45;&gt;Node13 -->
<g id="edge13" class="edge"><title>Node7&#45;&gt;Node13</title>
<path fill="none" stroke="midnightblue" d="M243.705,-56.4435C273.91,-47.2801 322.011,-32.6876 355.529,-22.5192"/>
<polygon fill="midnightblue" stroke="midnightblue" points="356.874,-25.7688 365.427,-19.5164 354.842,-19.0703 356.874,-25.7688"/>
</g>
<!-- Node14 -->
<g id="node14" class="node"><title>Node14</title>
<polygon fill="white" stroke="#bfbfbf" points="440,-0.5 440,-19.5 491,-19.5 491,-0.5 440,-0.5"/>
<text text-anchor="middle" x="465.5" y="-7.5" font-family="FreeSans" font-size="10.00">memory</text>
</g>
<!-- Node7&#45;&gt;Node14 -->
<g id="edge14" class="edge"><title>Node7&#45;&gt;Node14</title>
<path fill="none" stroke="midnightblue" d="M259.277,-56.4426C300.686,-48.2127 364.805,-35.1216 429.891,-20.0561"/>
<polygon fill="midnightblue" stroke="midnightblue" points="430.973,-23.3978 439.919,-17.7208 429.385,-16.5802 430.973,-23.3978"/>
</g>
</g>
</svg>
