<?xml version="1.0" encoding="UTF-8" standalone="no"?>
<!DOCTYPE svg PUBLIC "-//W3C//DTD SVG 1.1//EN"
 "http://www.w3.org/Graphics/SVG/1.1/DTD/svg11.dtd">
<!-- Generated by graphviz version 2.26.3 (20100126.1600)
 -->
<!-- Title: FixedChemPotSSTP.cpp Pages: 1 -->
<svg width="1008pt" height="402pt"
 viewBox="0.00 0.00 1008.00 402.00" xmlns="http://www.w3.org/2000/svg" xmlns:xlink="http://www.w3.org/1999/xlink">
<g id="graph1" class="graph" transform="scale(1 1) rotate(0) translate(4 398)">
<title>FixedChemPotSSTP.cpp</title>
<polygon fill="white" stroke="white" points="-4,5 -4,-398 1005,-398 1005,5 -4,5"/>
<!-- Node1 -->
<g id="node1" class="node"><title>Node1</title>
<polygon fill="#bfbfbf" stroke="black" points="484.5,-373 484.5,-393 609.5,-393 609.5,-373 484.5,-373"/>
<text text-anchor="middle" x="547" y="-380" font-family="FreeSans" font-size="10.00">FixedChemPotSSTP.cpp</text>
</g>
<!-- Node2 -->
<g id="node3" class="node"><title>Node2</title>
<a xlink:href="ct__defs_8h.html" target="_top" xlink:title="This file contains definitions of terms that are used in internal routines and are unlikely to need m...">
<polygon fill="white" stroke="black" points="593,-59 593,-79 707,-79 707,-59 593,-59"/>
<text text-anchor="middle" x="650" y="-66" font-family="FreeSans" font-size="10.00">cantera/base/ct_defs.h</text>
</a>
</g>
<!-- Node1&#45;&gt;Node2 -->
<g id="edge2" class="edge"><title>Node1&#45;&gt;Node2</title>
<path fill="none" stroke="midnightblue" d="M560.427,-372.828C585.741,-352.379 638,-303.555 638,-249 638,-249 638,-249 638,-185 638,-151.246 643.089,-112.258 646.639,-89.1693"/>
<polygon fill="midnightblue" stroke="midnightblue" points="650.11,-89.6313 648.229,-79.2047 643.197,-88.5282 650.11,-89.6313"/>
</g>
<!-- Node9 -->
<g id="node17" class="node"><title>Node9</title>
<a xlink:href="mix__defs_8h.html" target="_top" xlink:title="cantera/thermo/mix\l_defs.h">
<polygon fill="white" stroke="black" points="318,-233 318,-265 418,-265 418,-233 318,-233"/>
<text text-anchor="start" x="326" y="-252" font-family="FreeSans" font-size="10.00">cantera/thermo/mix</text>
<text text-anchor="middle" x="368" y="-240" font-family="FreeSans" font-size="10.00">_defs.h</text>
</a>
</g>
<!-- Node1&#45;&gt;Node9 -->
<g id="edge16" class="edge"><title>Node1&#45;&gt;Node9</title>
<path fill="none" stroke="midnightblue" d="M496.404,-372.987C471.022,-365.97 441.068,-354.447 419,-336 399.439,-319.649 385.63,-293.751 377.358,-274.456"/>
<polygon fill="midnightblue" stroke="midnightblue" points="380.545,-273 373.537,-265.054 374.06,-275.636 380.545,-273"/>
</g>
<!-- Node10 -->
<g id="node19" class="node"><title>Node10</title>
<a xlink:href="FixedChemPotSSTP_8h.html" target="_top" xlink:title="Header file for the FixedChemPotSSTP class, which represents a fixed&#45;composition incompressible subst...">
<polygon fill="white" stroke="black" points="428,-303 428,-335 562,-335 562,-303 428,-303"/>
<text text-anchor="start" x="436" y="-322" font-family="FreeSans" font-size="10.00">cantera/thermo/FixedChem</text>
<text text-anchor="middle" x="495" y="-310" font-family="FreeSans" font-size="10.00">PotSSTP.h</text>
</a>
</g>
<!-- Node1&#45;&gt;Node10 -->
<g id="edge18" class="edge"><title>Node1&#45;&gt;Node10</title>
<path fill="none" stroke="midnightblue" d="M538.645,-372.717C532.121,-364.688 522.79,-353.203 514.429,-342.913"/>
<polygon fill="midnightblue" stroke="midnightblue" points="517.027,-340.559 508.004,-335.005 511.594,-344.974 517.027,-340.559"/>
</g>
<!-- Node14 -->
<g id="node28" class="node"><title>Node14</title>
<a xlink:href="SpeciesThermo_8h.html" target="_top" xlink:title="Virtual base class for the calculation of multiple&#45;species thermodynamic reference&#45;state property man...">
<polygon fill="white" stroke="black" points="518,-117 518,-137 610,-137 610,-117 518,-117"/>
<text text-anchor="middle" x="564" y="-124" font-family="FreeSans" font-size="10.00">SpeciesThermo.h</text>
</a>
</g>
<!-- Node1&#45;&gt;Node14 -->
<g id="edge34" class="edge"><title>Node1&#45;&gt;Node14</title>
<path fill="none" stroke="midnightblue" d="M553.933,-372.706C559.697,-363.522 567.502,-349.48 571,-336 589.094,-266.275 584.98,-245.472 576,-174 574.876,-165.053 572.593,-155.368 570.317,-147.127"/>
<polygon fill="midnightblue" stroke="midnightblue" points="573.608,-145.915 567.427,-137.31 566.893,-147.891 573.608,-145.915"/>
</g>
<!-- Node15 -->
<g id="node33" class="node"><title>Node15</title>
<a xlink:href="ThermoFactory_8h.html" target="_top" xlink:title="Headers for the factory class that can create known ThermoPhase objects (see Thermodynamic Properties...">
<polygon fill="white" stroke="black" points="142,-239 142,-259 300,-259 300,-239 142,-239"/>
<text text-anchor="middle" x="221" y="-246" font-family="FreeSans" font-size="10.00">cantera/thermo/ThermoFactory.h</text>
</a>
</g>
<!-- Node1&#45;&gt;Node15 -->
<g id="edge36" class="edge"><title>Node1&#45;&gt;Node15</title>
<path fill="none" stroke="midnightblue" d="M504.456,-372.943C471.762,-364.635 425.785,-351.681 387,-336 335.11,-315.02 278.003,-282.953 246.119,-264.172"/>
<polygon fill="midnightblue" stroke="midnightblue" points="247.83,-261.117 237.444,-259.022 244.256,-267.136 247.83,-261.117"/>
</g>
<!-- Node23 -->
<g id="node54" class="node"><title>Node23</title>
<a xlink:href="SimpleThermo_8h.html" target="_top" xlink:title="Header for the SimpleThermo (constant heat capacity) species reference&#45;state model for multiple speci...">
<polygon fill="white" stroke="black" points="700.5,-239 700.5,-259 855.5,-259 855.5,-239 700.5,-239"/>
<text text-anchor="middle" x="778" y="-246" font-family="FreeSans" font-size="10.00">cantera/thermo/SimpleThermo.h</text>
</a>
</g>
<!-- Node1&#45;&gt;Node23 -->
<g id="edge62" class="edge"><title>Node1&#45;&gt;Node23</title>
<path fill="none" stroke="midnightblue" d="M573.104,-372.88C594.751,-364.122 626.066,-350.595 652,-336 690.583,-314.287 732.293,-284.003 756.731,-265.491"/>
<polygon fill="midnightblue" stroke="midnightblue" points="759.092,-268.092 764.915,-259.241 754.843,-262.528 759.092,-268.092"/>
</g>
<!-- Node3 -->
<g id="node5" class="node"><title>Node3</title>
<a xlink:href="config_8h_source.html" target="_top" xlink:title="config.h">
<polygon fill="white" stroke="black" points="318,-1 318,-21 368,-21 368,-1 318,-1"/>
<text text-anchor="middle" x="343" y="-8" font-family="FreeSans" font-size="10.00">config.h</text>
</a>
</g>
<!-- Node2&#45;&gt;Node3 -->
<g id="edge4" class="edge"><title>Node2&#45;&gt;Node3</title>
<path fill="none" stroke="midnightblue" d="M596.875,-58.9634C534.289,-47.1393 432.059,-27.8254 378.413,-17.6903"/>
<polygon fill="midnightblue" stroke="midnightblue" points="378.833,-14.2079 368.357,-15.7906 377.534,-21.0863 378.833,-14.2079"/>
</g>
<!-- Node4 -->
<g id="node7" class="node"><title>Node4</title>
<polygon fill="white" stroke="#bfbfbf" points="566,-1 566,-21 610,-21 610,-1 566,-1"/>
<text text-anchor="middle" x="588" y="-8" font-family="FreeSans" font-size="10.00">cmath</text>
</g>
<!-- Node2&#45;&gt;Node4 -->
<g id="edge6" class="edge"><title>Node2&#45;&gt;Node4</title>
<path fill="none" stroke="midnightblue" d="M639.2,-58.8972C630.243,-50.5175 617.3,-38.4093 606.668,-28.4638"/>
<polygon fill="midnightblue" stroke="midnightblue" points="608.787,-25.6532 599.093,-21.3776 604.005,-30.7652 608.787,-25.6532"/>
</g>
<!-- Node5 -->
<g id="node9" class="node"><title>Node5</title>
<polygon fill="white" stroke="#bfbfbf" points="628,-1 628,-21 672,-21 672,-1 628,-1"/>
<text text-anchor="middle" x="650" y="-8" font-family="FreeSans" font-size="10.00">cstdlib</text>
</g>
<!-- Node2&#45;&gt;Node5 -->
<g id="edge8" class="edge"><title>Node2&#45;&gt;Node5</title>
<path fill="none" stroke="midnightblue" d="M650,-58.8972C650,-51.339 650,-40.7476 650,-31.4458"/>
<polygon fill="midnightblue" stroke="midnightblue" points="653.5,-31.3776 650,-21.3776 646.5,-31.3776 653.5,-31.3776"/>
</g>
<!-- Node6 -->
<g id="node11" class="node"><title>Node6</title>
<polygon fill="white" stroke="#bfbfbf" points="241.5,-1 241.5,-21 284.5,-21 284.5,-1 241.5,-1"/>
<text text-anchor="middle" x="263" y="-8" font-family="FreeSans" font-size="10.00">vector</text>
</g>
<!-- Node2&#45;&gt;Node6 -->
<g id="edge10" class="edge"><title>Node2&#45;&gt;Node6</title>
<path fill="none" stroke="midnightblue" d="M592.707,-62.8366C524.728,-55.1241 408.11,-40.6342 309,-22 304.428,-21.1404 299.626,-20.1225 294.921,-19.0585"/>
<polygon fill="midnightblue" stroke="midnightblue" points="295.436,-15.5841 284.9,-16.699 293.832,-22.3978 295.436,-15.5841"/>
</g>
<!-- Node7 -->
<g id="node13" class="node"><title>Node7</title>
<polygon fill="white" stroke="#bfbfbf" points="689.5,-1 689.5,-21 724.5,-21 724.5,-1 689.5,-1"/>
<text text-anchor="middle" x="707" y="-8" font-family="FreeSans" font-size="10.00">map</text>
</g>
<!-- Node2&#45;&gt;Node7 -->
<g id="edge12" class="edge"><title>Node2&#45;&gt;Node7</title>
<path fill="none" stroke="midnightblue" d="M659.929,-58.8972C668.083,-50.5996 679.83,-38.6463 689.549,-28.7569"/>
<polygon fill="midnightblue" stroke="midnightblue" points="692.288,-30.9632 696.801,-21.3776 687.296,-26.0566 692.288,-30.9632"/>
</g>
<!-- Node8 -->
<g id="node15" class="node"><title>Node8</title>
<polygon fill="white" stroke="#bfbfbf" points="753,-1 753,-21 793,-21 793,-1 753,-1"/>
<text text-anchor="middle" x="773" y="-8" font-family="FreeSans" font-size="10.00">string</text>
</g>
<!-- Node2&#45;&gt;Node8 -->
<g id="edge14" class="edge"><title>Node2&#45;&gt;Node8</title>
<path fill="none" stroke="midnightblue" d="M671.425,-58.8972C691.33,-49.5108 721.157,-35.4464 743.345,-24.9835"/>
<polygon fill="midnightblue" stroke="midnightblue" points="745.085,-28.0327 752.637,-20.6019 742.1,-21.7013 745.085,-28.0327"/>
</g>
<!-- Node10&#45;&gt;Node9 -->
<g id="edge20" class="edge"><title>Node10&#45;&gt;Node9</title>
<path fill="none" stroke="midnightblue" d="M465.864,-302.941C448.162,-293.184 425.362,-280.617 406.223,-270.068"/>
<polygon fill="midnightblue" stroke="midnightblue" points="407.888,-266.989 397.441,-265.227 404.509,-273.119 407.888,-266.989"/>
</g>
<!-- Node11 -->
<g id="node22" class="node"><title>Node11</title>
<a xlink:href="SingleSpeciesTP_8h.html" target="_top" xlink:title="Header for the SingleSpeciesTP class, which is a filter class for ThermoPhase, that eases the constru...">
<polygon fill="white" stroke="black" points="436,-239 436,-259 534,-259 534,-239 436,-239"/>
<text text-anchor="middle" x="485" y="-246" font-family="FreeSans" font-size="10.00">SingleSpeciesTP.h</text>
</a>
</g>
<!-- Node10&#45;&gt;Node11 -->
<g id="edge22" class="edge"><title>Node10&#45;&gt;Node11</title>
<path fill="none" stroke="midnightblue" d="M492.681,-302.765C491.259,-292.813 489.427,-279.987 487.908,-269.359"/>
<polygon fill="midnightblue" stroke="midnightblue" points="491.349,-268.696 486.47,-259.291 484.42,-269.686 491.349,-268.696"/>
</g>
<!-- Node10&#45;&gt;Node14 -->
<g id="edge32" class="edge"><title>Node10&#45;&gt;Node14</title>
<path fill="none" stroke="midnightblue" d="M514.376,-302.812C524.563,-293.192 536.296,-280.132 543,-266 561.479,-227.045 564.455,-175.661 564.524,-147.553"/>
<polygon fill="midnightblue" stroke="midnightblue" points="568.022,-147.317 564.42,-137.354 561.022,-147.389 568.022,-147.317"/>
</g>
<!-- Node12 -->
<g id="node24" class="node"><title>Node12</title>
<a xlink:href="ThermoPhase_8h.html" target="_top" xlink:title="Header file for class ThermoPhase, the base class for phases with thermodynamic properties, and the text for the Module thermoprops (see Thermodynamic Properties and class ThermoPhase). ">
<polygon fill="white" stroke="black" points="438,-175 438,-195 522,-195 522,-175 438,-175"/>
<text text-anchor="middle" x="480" y="-182" font-family="FreeSans" font-size="10.00">ThermoPhase.h</text>
</a>
</g>
<!-- Node11&#45;&gt;Node12 -->
<g id="edge24" class="edge"><title>Node11&#45;&gt;Node12</title>
<path fill="none" stroke="midnightblue" d="M484.197,-238.717C483.493,-229.707 482.449,-216.347 481.579,-205.205"/>
<polygon fill="midnightblue" stroke="midnightblue" points="485.053,-204.743 480.785,-195.046 478.074,-205.288 485.053,-204.743"/>
</g>
<!-- Node13 -->
<g id="node26" class="node"><title>Node13</title>
<a xlink:href="Phase_8h.html" target="_top" xlink:title="Header file for class Phase. ">
<polygon fill="white" stroke="red" points="449.5,-117 449.5,-137 500.5,-137 500.5,-117 449.5,-117"/>
<text text-anchor="middle" x="475" y="-124" font-family="FreeSans" font-size="10.00">Phase.h</text>
</a>
</g>
<!-- Node12&#45;&gt;Node13 -->
<g id="edge26" class="edge"><title>Node12&#45;&gt;Node13</title>
<path fill="none" stroke="midnightblue" d="M479.129,-174.897C478.478,-167.339 477.564,-156.748 476.763,-147.446"/>
<polygon fill="midnightblue" stroke="midnightblue" points="480.241,-147.04 475.895,-137.378 473.267,-147.641 480.241,-147.04"/>
</g>
<!-- Node12&#45;&gt;Node14 -->
<g id="edge28" class="edge"><title>Node12&#45;&gt;Node14</title>
<path fill="none" stroke="midnightblue" d="M494.632,-174.897C507.322,-166.135 525.915,-153.297 540.659,-143.116"/>
<polygon fill="midnightblue" stroke="midnightblue" points="543.014,-145.744 549.254,-137.182 539.036,-139.983 543.014,-145.744"/>
</g>
<!-- Node14&#45;&gt;Node2 -->
<g id="edge30" class="edge"><title>Node14&#45;&gt;Node2</title>
<path fill="none" stroke="midnightblue" d="M578.98,-116.897C592.095,-108.052 611.368,-95.0539 626.529,-84.829"/>
<polygon fill="midnightblue" stroke="midnightblue" points="628.569,-87.6749 634.903,-79.1817 624.655,-81.8714 628.569,-87.6749"/>
</g>
<!-- Node15&#45;&gt;Node12 -->
<g id="edge38" class="edge"><title>Node15&#45;&gt;Node12</title>
<path fill="none" stroke="midnightblue" d="M261.754,-238.93C307.201,-227.699 380.744,-209.526 429.727,-197.423"/>
<polygon fill="midnightblue" stroke="midnightblue" points="430.616,-200.808 439.484,-195.012 428.936,-194.013 430.616,-200.808"/>
</g>
<!-- Node16 -->
<g id="node36" class="node"><title>Node16</title>
<a xlink:href="xml_8h.html" target="_top" xlink:title="Classes providing support for XML data files. ">
<polygon fill="white" stroke="black" points="665.5,-175 665.5,-195 704.5,-195 704.5,-175 665.5,-175"/>
<text text-anchor="middle" x="685" y="-182" font-family="FreeSans" font-size="10.00">xml.h</text>
</a>
</g>
<!-- Node15&#45;&gt;Node16 -->
<g id="edge40" class="edge"><title>Node15&#45;&gt;Node16</title>
<path fill="none" stroke="midnightblue" d="M269.772,-238.979C282.511,-236.526 296.245,-234.027 309,-232 437.363,-211.602 591.545,-194.695 655.24,-188.04"/>
<polygon fill="midnightblue" stroke="midnightblue" points="655.778,-191.503 665.363,-186.989 655.055,-184.54 655.778,-191.503"/>
</g>
<!-- Node19 -->
<g id="node44" class="node"><title>Node19</title>
<a xlink:href="ct__thread_8h.html" target="_top" xlink:title="cantera/base/ct_thread.h">
<polygon fill="white" stroke="black" points="171.5,-175 171.5,-195 294.5,-195 294.5,-175 171.5,-175"/>
<text text-anchor="middle" x="233" y="-182" font-family="FreeSans" font-size="10.00">cantera/base/ct_thread.h</text>
</a>
</g>
<!-- Node15&#45;&gt;Node19 -->
<g id="edge50" class="edge"><title>Node15&#45;&gt;Node19</title>
<path fill="none" stroke="midnightblue" d="M222.928,-238.717C224.617,-229.707 227.122,-216.347 229.211,-205.205"/>
<polygon fill="midnightblue" stroke="midnightblue" points="232.713,-205.52 231.116,-195.046 225.833,-204.23 232.713,-205.52"/>
</g>
<!-- Node22 -->
<g id="node51" class="node"><title>Node22</title>
<a xlink:href="FactoryBase_8h.html" target="_top" xlink:title="File contains the FactoryBase class declarations. ">
<polygon fill="white" stroke="black" points="-0.5,-59 -0.5,-79 136.5,-79 136.5,-59 -0.5,-59"/>
<text text-anchor="middle" x="68" y="-66" font-family="FreeSans" font-size="10.00">cantera/base/FactoryBase.h</text>
</a>
</g>
<!-- Node15&#45;&gt;Node22 -->
<g id="edge58" class="edge"><title>Node15&#45;&gt;Node22</title>
<path fill="none" stroke="midnightblue" d="M208.372,-238.666C196.175,-228.415 177.474,-211.969 163,-196 130.227,-159.841 97.2983,-112.877 80.1382,-87.4006"/>
<polygon fill="midnightblue" stroke="midnightblue" points="83.0233,-85.4186 74.5589,-79.0464 77.2021,-89.3063 83.0233,-85.4186"/>
</g>
<!-- Node17 -->
<g id="node38" class="node"><title>Node17</title>
<a xlink:href="ctexceptions_8h.html" target="_top" xlink:title="Definitions for the classes that are thrown when Cantera experiences an error condition (also contain...">
<polygon fill="white" stroke="red" points="734,-117 734,-137 812,-137 812,-117 734,-117"/>
<text text-anchor="middle" x="773" y="-124" font-family="FreeSans" font-size="10.00">ctexceptions.h</text>
</a>
</g>
<!-- Node16&#45;&gt;Node17 -->
<g id="edge42" class="edge"><title>Node16&#45;&gt;Node17</title>
<path fill="none" stroke="midnightblue" d="M700.328,-174.897C713.748,-166.052 733.47,-153.054 748.984,-142.829"/>
<polygon fill="midnightblue" stroke="midnightblue" points="751.128,-145.607 757.552,-137.182 747.276,-139.762 751.128,-145.607"/>
</g>
<!-- Node18 -->
<g id="node41" class="node"><title>Node18</title>
<a xlink:href="global_8h.html" target="_top" xlink:title="This file contains definitions for utility functions and text for modules, inputfiles, logs, textlogs, (see Input File Handling, Diagnostic Output, and Writing messages to the screen). ">
<polygon fill="white" stroke="black" points="666,-117 666,-137 716,-137 716,-117 666,-117"/>
<text text-anchor="middle" x="691" y="-124" font-family="FreeSans" font-size="10.00">global.h</text>
</a>
</g>
<!-- Node16&#45;&gt;Node18 -->
<g id="edge46" class="edge"><title>Node16&#45;&gt;Node18</title>
<path fill="none" stroke="midnightblue" d="M686.045,-174.897C686.827,-167.339 687.923,-156.748 688.885,-147.446"/>
<polygon fill="midnightblue" stroke="midnightblue" points="692.379,-147.685 689.926,-137.378 685.416,-146.964 692.379,-147.685"/>
</g>
<!-- Node17&#45;&gt;Node8 -->
<g id="edge44" class="edge"><title>Node17&#45;&gt;Node8</title>
<path fill="none" stroke="midnightblue" d="M773,-116.706C773,-97.5683 773,-56.1978 773,-31.2654"/>
<polygon fill="midnightblue" stroke="midnightblue" points="776.5,-31.1055 773,-21.1055 769.5,-31.1056 776.5,-31.1055"/>
</g>
<!-- Node18&#45;&gt;Node2 -->
<g id="edge48" class="edge"><title>Node18&#45;&gt;Node2</title>
<path fill="none" stroke="midnightblue" d="M683.858,-116.897C678.167,-108.846 670.043,-97.3532 663.179,-87.6435"/>
<polygon fill="midnightblue" stroke="midnightblue" points="665.966,-85.5231 657.336,-79.3776 660.25,-89.5637 665.966,-85.5231"/>
</g>
<!-- Node19&#45;&gt;Node3 -->
<g id="edge52" class="edge"><title>Node19&#45;&gt;Node3</title>
<path fill="none" stroke="midnightblue" d="M216.479,-174.821C197.638,-161.842 170.912,-138.391 183,-116 209.37,-67.1541 269.466,-37.343 308.037,-22.5258"/>
<polygon fill="midnightblue" stroke="midnightblue" points="309.656,-25.6592 317.822,-18.9099 307.229,-19.0932 309.656,-25.6592"/>
</g>
<!-- Node20 -->
<g id="node47" class="node"><title>Node20</title>
<polygon fill="white" stroke="#bfbfbf" points="192,-117 192,-137 298,-137 298,-117 192,-117"/>
<text text-anchor="middle" x="245" y="-124" font-family="FreeSans" font-size="10.00">boost/shared_ptr.hpp</text>
</g>
<!-- Node19&#45;&gt;Node20 -->
<g id="edge54" class="edge"><title>Node19&#45;&gt;Node20</title>
<path fill="none" stroke="midnightblue" d="M235.09,-174.897C236.654,-167.339 238.845,-156.748 240.77,-147.446"/>
<polygon fill="midnightblue" stroke="midnightblue" points="244.254,-147.879 242.853,-137.378 237.399,-146.461 244.254,-147.879"/>
</g>
<!-- Node21 -->
<g id="node49" class="node"><title>Node21</title>
<polygon fill="white" stroke="#bfbfbf" points="315.5,-117 315.5,-137 432.5,-137 432.5,-117 315.5,-117"/>
<text text-anchor="middle" x="374" y="-124" font-family="FreeSans" font-size="10.00">boost/thread/mutex.hpp</text>
</g>
<!-- Node19&#45;&gt;Node21 -->
<g id="edge56" class="edge"><title>Node19&#45;&gt;Node21</title>
<path fill="none" stroke="midnightblue" d="M257.56,-174.897C280.368,-165.515 314.539,-151.459 339.971,-140.998"/>
<polygon fill="midnightblue" stroke="midnightblue" points="341.331,-144.223 349.248,-137.182 338.668,-137.749 341.331,-144.223"/>
</g>
<!-- Node22&#45;&gt;Node6 -->
<g id="edge60" class="edge"><title>Node22&#45;&gt;Node6</title>
<path fill="none" stroke="midnightblue" d="M101.966,-58.8972C138.514,-48.0265 196.158,-30.8811 231.657,-20.3226"/>
<polygon fill="midnightblue" stroke="midnightblue" points="232.893,-23.6065 241.48,-17.4007 230.897,-16.897 232.893,-23.6065"/>
</g>
<!-- Node23&#45;&gt;Node18 -->
<g id="edge80" class="edge"><title>Node23&#45;&gt;Node18</title>
<path fill="none" stroke="midnightblue" d="M770.582,-238.598C755.806,-217.877 722.528,-171.212 704.027,-145.268"/>
<polygon fill="midnightblue" stroke="midnightblue" points="706.81,-143.142 698.154,-137.032 701.111,-147.206 706.81,-143.142"/>
</g>
<!-- Node24 -->
<g id="node56" class="node"><title>Node24</title>
<a xlink:href="SpeciesThermoMgr_8h.html" target="_top" xlink:title="This file contains descriptions of templated subclasses of the virtual base class, SpeciesThermo, which includes SpeciesThermoDuo (see Managers for Calculating Reference&#45;State Thermodynamics and class SpeciesThermoDuo) ">
<polygon fill="white" stroke="black" points="760,-175 760,-195 868,-195 868,-175 760,-175"/>
<text text-anchor="middle" x="814" y="-182" font-family="FreeSans" font-size="10.00">SpeciesThermoMgr.h</text>
</a>
</g>
<!-- Node23&#45;&gt;Node24 -->
<g id="edge64" class="edge"><title>Node23&#45;&gt;Node24</title>
<path fill="none" stroke="midnightblue" d="M783.784,-238.717C789.064,-229.332 796.998,-215.226 803.411,-203.825"/>
<polygon fill="midnightblue" stroke="midnightblue" points="806.497,-205.478 808.349,-195.046 800.396,-202.046 806.497,-205.478"/>
</g>
<!-- Node26 -->
<g id="node65" class="node"><title>Node26</title>
<a xlink:href="speciesThermoTypes_8h.html" target="_top" xlink:title="Contains const definitions for types of species reference&#45;state thermodynamics managers (see Species ...">
<polygon fill="white" stroke="black" points="885.5,-175 885.5,-195 1000.5,-195 1000.5,-175 885.5,-175"/>
<text text-anchor="middle" x="943" y="-182" font-family="FreeSans" font-size="10.00">speciesThermoTypes.h</text>
</a>
</g>
<!-- Node23&#45;&gt;Node26 -->
<g id="edge78" class="edge"><title>Node23&#45;&gt;Node26</title>
<path fill="none" stroke="midnightblue" d="M804.145,-238.859C832.023,-228.045 876.348,-210.853 907.4,-198.808"/>
<polygon fill="midnightblue" stroke="midnightblue" points="908.92,-201.973 916.978,-195.094 906.389,-195.447 908.92,-201.973"/>
</g>
<!-- Node24&#45;&gt;Node2 -->
<g id="edge66" class="edge"><title>Node24&#45;&gt;Node2</title>
<path fill="none" stroke="midnightblue" d="M818.958,-174.924C825.34,-160.347 834.138,-133.237 821,-116 808.127,-99.1117 759.479,-86.7773 717.346,-78.9926"/>
<polygon fill="midnightblue" stroke="midnightblue" points="717.82,-75.5219 707.36,-77.208 716.589,-82.4128 717.82,-75.5219"/>
</g>
<!-- Node24&#45;&gt;Node14 -->
<g id="edge76" class="edge"><title>Node24&#45;&gt;Node14</title>
<path fill="none" stroke="midnightblue" d="M770.739,-174.963C728.033,-165.056 662.662,-149.89 616.892,-139.271"/>
<polygon fill="midnightblue" stroke="midnightblue" points="617.682,-135.861 607.15,-137.011 616.1,-142.68 617.682,-135.861"/>
</g>
<!-- Node24&#45;&gt;Node17 -->
<g id="edge68" class="edge"><title>Node24&#45;&gt;Node17</title>
<path fill="none" stroke="midnightblue" d="M806.858,-174.897C801.167,-166.846 793.043,-155.353 786.179,-145.643"/>
<polygon fill="midnightblue" stroke="midnightblue" points="788.966,-143.523 780.336,-137.378 783.25,-147.564 788.966,-143.523"/>
</g>
<!-- Node25 -->
<g id="node60" class="node"><title>Node25</title>
<a xlink:href="stringUtils_8h.html" target="_top" xlink:title="Contains declarations for string manipulation functions within Cantera. ">
<polygon fill="white" stroke="black" points="867.5,-117 867.5,-137 992.5,-137 992.5,-117 867.5,-117"/>
<text text-anchor="middle" x="930" y="-124" font-family="FreeSans" font-size="10.00">cantera/base/stringUtils.h</text>
</a>
</g>
<!-- Node24&#45;&gt;Node25 -->
<g id="edge70" class="edge"><title>Node24&#45;&gt;Node25</title>
<path fill="none" stroke="midnightblue" d="M834.206,-174.897C852.556,-165.722 879.848,-152.076 900.611,-141.694"/>
<polygon fill="midnightblue" stroke="midnightblue" points="902.258,-144.784 909.637,-137.182 899.127,-138.523 902.258,-144.784"/>
</g>
<!-- Node25&#45;&gt;Node2 -->
<g id="edge72" class="edge"><title>Node25&#45;&gt;Node2</title>
<path fill="none" stroke="midnightblue" d="M881.547,-116.963C833.417,-106.993 759.579,-91.6986 708.274,-81.0711"/>
<polygon fill="midnightblue" stroke="midnightblue" points="708.83,-77.612 698.328,-79.0108 707.41,-84.4665 708.83,-77.612"/>
</g>
<!-- Node25&#45;&gt;Node8 -->
<g id="edge74" class="edge"><title>Node25&#45;&gt;Node8</title>
<path fill="none" stroke="midnightblue" d="M916.342,-116.909C889.085,-96.77 827.739,-51.4444 794.834,-27.132"/>
<polygon fill="midnightblue" stroke="midnightblue" points="796.861,-24.2781 786.738,-21.1506 792.701,-29.9081 796.861,-24.2781"/>
</g>
</g>
</svg>
