<?xml version="1.0" encoding="UTF-8" standalone="no"?>
<!DOCTYPE svg PUBLIC "-//W3C//DTD SVG 1.1//EN"
 "http://www.w3.org/Graphics/SVG/1.1/DTD/svg11.dtd">
<!-- Generated by graphviz version 2.26.3 (20100126.1600)
 -->
<!-- Title: FixedChemPotSSTP.h Pages: 1 -->
<svg width="250pt" height="88pt"
 viewBox="0.00 0.00 250.00 88.00" xmlns="http://www.w3.org/2000/svg" xmlns:xlink="http://www.w3.org/1999/xlink">
<g id="graph1" class="graph" transform="scale(1 1) rotate(0) translate(4 84)">
<title>FixedChemPotSSTP.h</title>
<polygon fill="white" stroke="white" points="-4,5 -4,-84 247,-84 247,5 -4,5"/>
<!-- Node1 -->
<g id="node1" class="node"><title>Node1</title>
<polygon fill="#bfbfbf" stroke="black" points="70,-59 70,-79 184,-79 184,-59 70,-59"/>
<text text-anchor="middle" x="127" y="-66" font-family="FreeSans" font-size="10.00">FixedChemPotSSTP.h</text>
</g>
<!-- Node2 -->
<g id="node3" class="node"><title>Node2</title>
<a xlink:href="FixedChemPotSSTP_8cpp.html" target="_top" xlink:title="Definition file for the FixedChemPotSSTP class, which represents a fixed&#45;composition incompressible s...">
<polygon fill="white" stroke="black" points="-0.5,-1 -0.5,-21 124.5,-21 124.5,-1 -0.5,-1"/>
<text text-anchor="middle" x="62" y="-8" font-family="FreeSans" font-size="10.00">FixedChemPotSSTP.cpp</text>
</a>
</g>
<!-- Node1&#45;&gt;Node2 -->
<g id="edge2" class="edge"><title>Node1&#45;&gt;Node2</title>
<path fill="none" stroke="midnightblue" d="M108.117,-52.1504C96.9659,-42.2003 83.2042,-29.9207 73.6301,-21.3776"/>
<polygon fill="midnightblue" stroke="midnightblue" points="105.886,-54.8508 115.678,-58.8972 110.547,-49.6278 105.886,-54.8508"/>
</g>
<!-- Node3 -->
<g id="node5" class="node"><title>Node3</title>
<a xlink:href="ThermoFactory_8cpp.html" target="_top" xlink:title="Definitions for the factory class that can create known ThermoPhase objects (see Thermodynamic Proper...">
<polygon fill="white" stroke="black" points="142,-1 142,-21 242,-21 242,-1 142,-1"/>
<text text-anchor="middle" x="192" y="-8" font-family="FreeSans" font-size="10.00">ThermoFactory.cpp</text>
</a>
</g>
<!-- Node1&#45;&gt;Node3 -->
<g id="edge4" class="edge"><title>Node1&#45;&gt;Node3</title>
<path fill="none" stroke="midnightblue" d="M145.883,-52.1504C157.034,-42.2003 170.796,-29.9207 180.37,-21.3776"/>
<polygon fill="midnightblue" stroke="midnightblue" points="143.453,-49.6278 138.322,-58.8972 148.114,-54.8508 143.453,-49.6278"/>
</g>
</g>
</svg>
