<?xml version="1.0" encoding="UTF-8" standalone="no"?>
<!DOCTYPE svg PUBLIC "-//W3C//DTD SVG 1.1//EN"
 "http://www.w3.org/Graphics/SVG/1.1/DTD/svg11.dtd">
<!-- Generated by graphviz version 2.36.0 (20140111.2315)
 -->
<!-- Title: flowControllers.h Pages: 1 -->
<svg width="977pt" height="476pt"
 viewBox="0.00 0.00 977.00 476.00" xmlns="http://www.w3.org/2000/svg" xmlns:xlink="http://www.w3.org/1999/xlink">
<g id="graph0" class="graph" transform="scale(1 1) rotate(0) translate(4 472)">
<title>flowControllers.h</title>
<polygon fill="white" stroke="none" points="-4,4 -4,-472 973,-472 973,4 -4,4"/>
<!-- Node1 -->
<g id="node1" class="node"><title>Node1</title>
<polygon fill="#bfbfbf" stroke="black" points="590,-448.5 590,-467.5 676,-467.5 676,-448.5 590,-448.5"/>
<text text-anchor="middle" x="633" y="-455.5" font-family="FreeSans" font-size="10.00">flowControllers.h</text>
</g>
<!-- Node2 -->
<g id="node2" class="node"><title>Node2</title>
<g id="a_node2"><a xlink:href="FlowDevice_8h.html" target="_top" xlink:title="FlowDevice.h">
<polygon fill="white" stroke="black" points="756,-224.5 756,-243.5 830,-243.5 830,-224.5 756,-224.5"/>
<text text-anchor="middle" x="793" y="-231.5" font-family="FreeSans" font-size="10.00">FlowDevice.h</text>
</a>
</g>
</g>
<!-- Node1&#45;&gt;Node2 -->
<g id="edge1" class="edge"><title>Node1&#45;&gt;Node2</title>
<path fill="none" stroke="midnightblue" d="M643.878,-448.404C654.338,-439.831 670.249,-425.962 682,-412 726.874,-358.684 766.912,-285.702 784.098,-252.601"/>
<polygon fill="midnightblue" stroke="midnightblue" points="787.227,-254.17 788.678,-243.675 780.999,-250.974 787.227,-254.17"/>
</g>
<!-- Node17 -->
<g id="node17" class="node"><title>Node17</title>
<g id="a_node17"><a xlink:href="ReactorBase_8h.html" target="_top" xlink:title="ReactorBase.h">
<polygon fill="white" stroke="black" points="593,-392.5 593,-411.5 673,-411.5 673,-392.5 593,-392.5"/>
<text text-anchor="middle" x="633" y="-399.5" font-family="FreeSans" font-size="10.00">ReactorBase.h</text>
</a>
</g>
</g>
<!-- Node1&#45;&gt;Node17 -->
<g id="edge21" class="edge"><title>Node1&#45;&gt;Node17</title>
<path fill="none" stroke="midnightblue" d="M633,-448.083C633,-441.006 633,-430.861 633,-421.986"/>
<polygon fill="midnightblue" stroke="midnightblue" points="636.5,-421.751 633,-411.751 629.5,-421.751 636.5,-421.751"/>
</g>
<!-- Node26 -->
<g id="node26" class="node"><title>Node26</title>
<g id="a_node26"><a xlink:href="Func1_8h.html" target="_top" xlink:title="cantera/numerics/Func1.h">
<polygon fill="white" stroke="black" points="447,-392.5 447,-411.5 575,-411.5 575,-392.5 447,-392.5"/>
<text text-anchor="middle" x="511" y="-399.5" font-family="FreeSans" font-size="10.00">cantera/numerics/Func1.h</text>
</a>
</g>
</g>
<!-- Node1&#45;&gt;Node26 -->
<g id="edge38" class="edge"><title>Node1&#45;&gt;Node26</title>
<path fill="none" stroke="midnightblue" d="M613.669,-448.444C593.68,-439.596 562.257,-425.687 539.436,-415.586"/>
<polygon fill="midnightblue" stroke="midnightblue" points="540.802,-412.363 530.241,-411.516 537.968,-418.764 540.802,-412.363"/>
</g>
<!-- Node3 -->
<g id="node3" class="node"><title>Node3</title>
<g id="a_node3"><a xlink:href="ct__defs_8h.html" target="_top" xlink:title="This file contains definitions of terms that are used in internal routines and are unlikely to need m...">
<polygon fill="white" stroke="black" points="474,-56.5 474,-75.5 588,-75.5 588,-56.5 474,-56.5"/>
<text text-anchor="middle" x="531" y="-63.5" font-family="FreeSans" font-size="10.00">cantera/base/ct_defs.h</text>
</a>
</g>
</g>
<!-- Node2&#45;&gt;Node3 -->
<g id="edge2" class="edge"><title>Node2&#45;&gt;Node3</title>
<path fill="none" stroke="midnightblue" d="M796.531,-224.09C801.228,-210.641 807.666,-184.93 796,-168 782.487,-148.389 638.024,-100.728 568.274,-78.6191"/>
<polygon fill="midnightblue" stroke="midnightblue" points="569.139,-75.222 558.549,-75.549 567.031,-81.8973 569.139,-75.222"/>
</g>
<!-- Node12 -->
<g id="node12" class="node"><title>Node12</title>
<g id="a_node12"><a xlink:href="global_8h.html" target="_top" xlink:title="This file contains definitions for utility functions and text for modules, inputfiles, logs, textlogs, (see Input File Handling, Diagnostic Output, and Writing messages to the screen). ">
<polygon fill="white" stroke="black" points="679,-168.5 679,-187.5 787,-187.5 787,-168.5 679,-168.5"/>
<text text-anchor="middle" x="733" y="-175.5" font-family="FreeSans" font-size="10.00">cantera/base/global.h</text>
</a>
</g>
</g>
<!-- Node2&#45;&gt;Node12 -->
<g id="edge11" class="edge"><title>Node2&#45;&gt;Node12</title>
<path fill="none" stroke="midnightblue" d="M783.36,-224.324C774.49,-216.341 761.125,-204.313 750.392,-194.653"/>
<polygon fill="midnightblue" stroke="midnightblue" points="752.59,-191.922 742.815,-187.834 747.907,-197.125 752.59,-191.922"/>
</g>
<!-- Node16 -->
<g id="node16" class="node"><title>Node16</title>
<g id="a_node16"><a xlink:href="stringUtils_8h.html" target="_top" xlink:title="Contains declarations for string manipulation functions within Cantera. ">
<polygon fill="white" stroke="black" points="843.5,-168.5 843.5,-187.5 968.5,-187.5 968.5,-168.5 843.5,-168.5"/>
<text text-anchor="middle" x="906" y="-175.5" font-family="FreeSans" font-size="10.00">cantera/base/stringUtils.h</text>
</a>
</g>
</g>
<!-- Node2&#45;&gt;Node16 -->
<g id="edge17" class="edge"><title>Node2&#45;&gt;Node16</title>
<path fill="none" stroke="midnightblue" d="M810.905,-224.444C829.254,-215.675 858.005,-201.935 879.094,-191.858"/>
<polygon fill="midnightblue" stroke="midnightblue" points="880.665,-194.986 888.179,-187.516 877.647,-188.67 880.665,-194.986"/>
</g>
<!-- Node4 -->
<g id="node4" class="node"><title>Node4</title>
<g id="a_node4"><a xlink:href="config_8h_source.html" target="_top" xlink:title="config.h">
<polygon fill="white" stroke="black" points="711,-0.5 711,-19.5 761,-19.5 761,-0.5 711,-0.5"/>
<text text-anchor="middle" x="736" y="-7.5" font-family="FreeSans" font-size="10.00">config.h</text>
</a>
</g>
</g>
<!-- Node3&#45;&gt;Node4 -->
<g id="edge3" class="edge"><title>Node3&#45;&gt;Node4</title>
<path fill="none" stroke="midnightblue" d="M563.483,-56.4435C601,-46.561 662.489,-30.3639 701.029,-20.2118"/>
<polygon fill="midnightblue" stroke="midnightblue" points="701.999,-23.5757 710.778,-17.6439 700.216,-16.8066 701.999,-23.5757"/>
</g>
<!-- Node5 -->
<g id="node5" class="node"><title>Node5</title>
<polygon fill="white" stroke="#bfbfbf" points="328,-0.5 328,-19.5 372,-19.5 372,-0.5 328,-0.5"/>
<text text-anchor="middle" x="350" y="-7.5" font-family="FreeSans" font-size="10.00">cmath</text>
</g>
<!-- Node3&#45;&gt;Node5 -->
<g id="edge4" class="edge"><title>Node3&#45;&gt;Node5</title>
<path fill="none" stroke="midnightblue" d="M502.32,-56.4435C469.618,-46.6872 416.288,-30.7764 382.19,-20.6036"/>
<polygon fill="midnightblue" stroke="midnightblue" points="382.853,-17.1489 372.269,-17.6439 380.851,-23.8568 382.853,-17.1489"/>
</g>
<!-- Node6 -->
<g id="node6" class="node"><title>Node6</title>
<polygon fill="white" stroke="#bfbfbf" points="390,-0.5 390,-19.5 434,-19.5 434,-0.5 390,-0.5"/>
<text text-anchor="middle" x="412" y="-7.5" font-family="FreeSans" font-size="10.00">cstdlib</text>
</g>
<!-- Node3&#45;&gt;Node6 -->
<g id="edge5" class="edge"><title>Node3&#45;&gt;Node6</title>
<path fill="none" stroke="midnightblue" d="M512.144,-56.4435C492.734,-47.6356 462.27,-33.8116 440.035,-23.722"/>
<polygon fill="midnightblue" stroke="midnightblue" points="441.32,-20.4615 430.768,-19.5164 438.428,-26.836 441.32,-20.4615"/>
</g>
<!-- Node7 -->
<g id="node7" class="node"><title>Node7</title>
<polygon fill="white" stroke="#bfbfbf" points="452.5,-0.5 452.5,-19.5 495.5,-19.5 495.5,-0.5 452.5,-0.5"/>
<text text-anchor="middle" x="474" y="-7.5" font-family="FreeSans" font-size="10.00">vector</text>
</g>
<!-- Node3&#45;&gt;Node7 -->
<g id="edge6" class="edge"><title>Node3&#45;&gt;Node7</title>
<path fill="none" stroke="midnightblue" d="M521.842,-56.324C513.499,-48.4196 500.968,-36.5482 490.823,-26.9377"/>
<polygon fill="midnightblue" stroke="midnightblue" points="492.991,-24.1705 483.325,-19.8339 488.177,-29.2522 492.991,-24.1705"/>
</g>
<!-- Node8 -->
<g id="node8" class="node"><title>Node8</title>
<polygon fill="white" stroke="#bfbfbf" points="513.5,-0.5 513.5,-19.5 548.5,-19.5 548.5,-0.5 513.5,-0.5"/>
<text text-anchor="middle" x="531" y="-7.5" font-family="FreeSans" font-size="10.00">map</text>
</g>
<!-- Node3&#45;&gt;Node8 -->
<g id="edge7" class="edge"><title>Node3&#45;&gt;Node8</title>
<path fill="none" stroke="midnightblue" d="M531,-56.083C531,-49.0059 531,-38.8611 531,-29.9865"/>
<polygon fill="midnightblue" stroke="midnightblue" points="534.5,-29.751 531,-19.7511 527.5,-29.7511 534.5,-29.751"/>
</g>
<!-- Node9 -->
<g id="node9" class="node"><title>Node9</title>
<polygon fill="white" stroke="#bfbfbf" points="850,-0.5 850,-19.5 890,-19.5 890,-0.5 850,-0.5"/>
<text text-anchor="middle" x="870" y="-7.5" font-family="FreeSans" font-size="10.00">string</text>
</g>
<!-- Node3&#45;&gt;Node9 -->
<g id="edge8" class="edge"><title>Node3&#45;&gt;Node9</title>
<path fill="none" stroke="midnightblue" d="M584.716,-56.4435C656.776,-44.9649 782.318,-24.967 839.754,-15.8179"/>
<polygon fill="midnightblue" stroke="midnightblue" points="840.333,-19.2699 849.658,-14.2403 839.232,-12.3571 840.333,-19.2699"/>
</g>
<!-- Node10 -->
<g id="node10" class="node"><title>Node10</title>
<polygon fill="white" stroke="#bfbfbf" points="567,-0.5 567,-19.5 623,-19.5 623,-0.5 567,-0.5"/>
<text text-anchor="middle" x="595" y="-7.5" font-family="FreeSans" font-size="10.00">algorithm</text>
</g>
<!-- Node3&#45;&gt;Node10 -->
<g id="edge9" class="edge"><title>Node3&#45;&gt;Node10</title>
<path fill="none" stroke="midnightblue" d="M541.283,-56.324C550.836,-48.2631 565.28,-36.0765 576.784,-26.3695"/>
<polygon fill="midnightblue" stroke="midnightblue" points="579.144,-28.9577 584.53,-19.8339 574.63,-23.6076 579.144,-28.9577"/>
</g>
<!-- Node11 -->
<g id="node11" class="node"><title>Node11</title>
<polygon fill="white" stroke="#bfbfbf" points="641.5,-0.5 641.5,-19.5 692.5,-19.5 692.5,-0.5 641.5,-0.5"/>
<text text-anchor="middle" x="667" y="-7.5" font-family="FreeSans" font-size="10.00">memory</text>
</g>
<!-- Node3&#45;&gt;Node11 -->
<g id="edge10" class="edge"><title>Node3&#45;&gt;Node11</title>
<path fill="none" stroke="midnightblue" d="M552.55,-56.4435C575.031,-47.5171 610.488,-33.4387 635.98,-23.3168"/>
<polygon fill="midnightblue" stroke="midnightblue" points="637.549,-26.4598 645.551,-19.5164 634.965,-19.9539 637.549,-26.4598"/>
</g>
<!-- Node12&#45;&gt;Node3 -->
<g id="edge12" class="edge"><title>Node12&#45;&gt;Node3</title>
<path fill="none" stroke="midnightblue" d="M717.149,-168.368C682.117,-149.292 597.885,-103.422 555.801,-80.5054"/>
<polygon fill="midnightblue" stroke="midnightblue" points="557.233,-77.3001 546.777,-75.5914 553.885,-83.4477 557.233,-77.3001"/>
</g>
<!-- Node13 -->
<g id="node13" class="node"><title>Node13</title>
<g id="a_node13"><a xlink:href="fmt_8h.html" target="_top" xlink:title="Wrapper for either system&#45;installed or local headers for fmt. ">
<polygon fill="white" stroke="black" points="780.5,-112.5 780.5,-131.5 877.5,-131.5 877.5,-112.5 780.5,-112.5"/>
<text text-anchor="middle" x="829" y="-119.5" font-family="FreeSans" font-size="10.00">cantera/base/fmt.h</text>
</a>
</g>
</g>
<!-- Node12&#45;&gt;Node13 -->
<g id="edge13" class="edge"><title>Node12&#45;&gt;Node13</title>
<path fill="none" stroke="midnightblue" d="M748.424,-168.324C763.54,-159.822 786.815,-146.729 804.471,-136.797"/>
<polygon fill="midnightblue" stroke="midnightblue" points="806.614,-139.608 813.614,-131.655 803.183,-133.507 806.614,-139.608"/>
</g>
<!-- Node13&#45;&gt;Node3 -->
<g id="edge14" class="edge"><title>Node13&#45;&gt;Node3</title>
<path fill="none" stroke="midnightblue" d="M781.781,-112.444C729.251,-102.925 644.39,-87.5472 588.152,-77.3563"/>
<polygon fill="midnightblue" stroke="midnightblue" points="588.462,-73.8556 577.998,-75.5164 587.214,-80.7435 588.462,-73.8556"/>
</g>
<!-- Node14 -->
<g id="node14" class="node"><title>Node14</title>
<polygon fill="white" stroke="#bfbfbf" points="708.5,-56.5 708.5,-75.5 777.5,-75.5 777.5,-56.5 708.5,-56.5"/>
<text text-anchor="middle" x="743" y="-63.5" font-family="FreeSans" font-size="10.00">fmt/format.h</text>
</g>
<!-- Node13&#45;&gt;Node14 -->
<g id="edge15" class="edge"><title>Node13&#45;&gt;Node14</title>
<path fill="none" stroke="midnightblue" d="M815.183,-112.324C801.767,-103.9 781.176,-90.9709 765.414,-81.0741"/>
<polygon fill="midnightblue" stroke="midnightblue" points="767.113,-78.0081 756.783,-75.6545 763.391,-83.9364 767.113,-78.0081"/>
</g>
<!-- Node15 -->
<g id="node15" class="node"><title>Node15</title>
<polygon fill="white" stroke="#bfbfbf" points="796,-56.5 796,-75.5 872,-75.5 872,-56.5 796,-56.5"/>
<text text-anchor="middle" x="834" y="-63.5" font-family="FreeSans" font-size="10.00">fmt/ostream.h</text>
</g>
<!-- Node13&#45;&gt;Node15 -->
<g id="edge16" class="edge"><title>Node13&#45;&gt;Node15</title>
<path fill="none" stroke="midnightblue" d="M829.826,-112.083C830.481,-105.006 831.42,-94.8611 832.242,-85.9865"/>
<polygon fill="midnightblue" stroke="midnightblue" points="835.753,-86.0312 833.19,-75.7511 828.783,-85.3858 835.753,-86.0312"/>
</g>
<!-- Node16&#45;&gt;Node3 -->
<g id="edge18" class="edge"><title>Node16&#45;&gt;Node3</title>
<path fill="none" stroke="midnightblue" d="M877.217,-168.447C849.651,-160.012 807.041,-146.335 771,-132 751.415,-124.21 747.94,-118.829 728,-112 683.271,-96.6809 631.04,-85.0197 591.601,-77.4106"/>
<polygon fill="midnightblue" stroke="midnightblue" points="592.083,-73.9397 581.606,-75.5159 590.78,-80.8173 592.083,-73.9397"/>
</g>
<!-- Node16&#45;&gt;Node9 -->
<g id="edge20" class="edge"><title>Node16&#45;&gt;Node9</title>
<path fill="none" stroke="midnightblue" d="M904.347,-168.469C900.486,-148.666 890.483,-98.0601 881,-56 879.03,-47.262 876.692,-37.6096 874.679,-29.4924"/>
<polygon fill="midnightblue" stroke="midnightblue" points="878.027,-28.4541 872.201,-19.6051 871.237,-30.156 878.027,-28.4541"/>
</g>
<!-- Node16&#45;&gt;Node13 -->
<g id="edge19" class="edge"><title>Node16&#45;&gt;Node13</title>
<path fill="none" stroke="midnightblue" d="M893.629,-168.324C881.842,-160.058 863.868,-147.453 849.864,-137.632"/>
<polygon fill="midnightblue" stroke="midnightblue" points="851.538,-134.531 841.341,-131.655 847.518,-140.262 851.538,-134.531"/>
</g>
<!-- Node18 -->
<g id="node18" class="node"><title>Node18</title>
<g id="a_node18"><a xlink:href="ThermoPhase_8h.html" target="_top" xlink:title="Header file for class ThermoPhase, the base class for phases with thermodynamic properties, and the text for the Module thermoprops (see Thermodynamic Properties and class ThermoPhase). ">
<polygon fill="white" stroke="black" points="557,-336.5 557,-355.5 709,-355.5 709,-336.5 557,-336.5"/>
<text text-anchor="middle" x="633" y="-343.5" font-family="FreeSans" font-size="10.00">cantera/thermo/ThermoPhase.h</text>
</a>
</g>
</g>
<!-- Node17&#45;&gt;Node18 -->
<g id="edge22" class="edge"><title>Node17&#45;&gt;Node18</title>
<path fill="none" stroke="midnightblue" d="M633,-392.083C633,-385.006 633,-374.861 633,-365.986"/>
<polygon fill="midnightblue" stroke="midnightblue" points="636.5,-365.751 633,-355.751 629.5,-365.751 636.5,-365.751"/>
</g>
<!-- Node18&#45;&gt;Node12 -->
<g id="edge37" class="edge"><title>Node18&#45;&gt;Node12</title>
<path fill="none" stroke="midnightblue" d="M640.173,-336.315C647.346,-327.45 658.504,-313.163 667,-300 689.823,-264.642 712.438,-220.756 724.358,-196.749"/>
<polygon fill="midnightblue" stroke="midnightblue" points="727.507,-198.278 728.782,-187.76 721.226,-195.187 727.507,-198.278"/>
</g>
<!-- Node19 -->
<g id="node19" class="node"><title>Node19</title>
<g id="a_node19"><a xlink:href="Phase_8h.html" target="_top" xlink:title="Header file for class Phase. ">
<polygon fill="white" stroke="black" points="337.5,-224.5 337.5,-243.5 388.5,-243.5 388.5,-224.5 337.5,-224.5"/>
<text text-anchor="middle" x="363" y="-231.5" font-family="FreeSans" font-size="10.00">Phase.h</text>
</a>
</g>
</g>
<!-- Node18&#45;&gt;Node19 -->
<g id="edge23" class="edge"><title>Node18&#45;&gt;Node19</title>
<path fill="none" stroke="midnightblue" d="M611.814,-336.368C564.2,-316.97 448.589,-269.87 393.356,-247.367"/>
<polygon fill="midnightblue" stroke="midnightblue" points="394.67,-244.123 384.088,-243.591 392.028,-250.606 394.67,-244.123"/>
</g>
<!-- Node24 -->
<g id="node24" class="node"><title>Node24</title>
<g id="a_node24"><a xlink:href="MultiSpeciesThermo_8h.html" target="_top" xlink:title="Header for a general species thermodynamic property manager for a phase (see MultiSpeciesThermo). ">
<polygon fill="white" stroke="black" points="545.5,-280.5 545.5,-299.5 658.5,-299.5 658.5,-280.5 545.5,-280.5"/>
<text text-anchor="middle" x="602" y="-287.5" font-family="FreeSans" font-size="10.00">MultiSpeciesThermo.h</text>
</a>
</g>
</g>
<!-- Node18&#45;&gt;Node24 -->
<g id="edge32" class="edge"><title>Node18&#45;&gt;Node24</title>
<path fill="none" stroke="midnightblue" d="M627.881,-336.083C623.592,-328.613 617.342,-317.724 612.058,-308.52"/>
<polygon fill="midnightblue" stroke="midnightblue" points="615.038,-306.681 607.024,-299.751 608.967,-310.166 615.038,-306.681"/>
</g>
<!-- Node20 -->
<g id="node20" class="node"><title>Node20</title>
<g id="a_node20"><a xlink:href="ctexceptions_8h.html" target="_top" xlink:title="Definitions for the classes that are thrown when Cantera experiences an error condition (also contain...">
<polygon fill="white" stroke="red" points="523.5,-168.5 523.5,-187.5 660.5,-187.5 660.5,-168.5 523.5,-168.5"/>
<text text-anchor="middle" x="592" y="-175.5" font-family="FreeSans" font-size="10.00">cantera/base/ctexceptions.h</text>
</a>
</g>
</g>
<!-- Node19&#45;&gt;Node20 -->
<g id="edge24" class="edge"><title>Node19&#45;&gt;Node20</title>
<path fill="none" stroke="midnightblue" d="M388.824,-226.91C426.856,-217.942 498.521,-201.043 545.765,-189.903"/>
<polygon fill="midnightblue" stroke="midnightblue" points="546.817,-193.251 555.747,-187.549 545.21,-186.437 546.817,-193.251"/>
</g>
<!-- Node21 -->
<g id="node21" class="node"><title>Node21</title>
<g id="a_node21"><a xlink:href="Elements_8h.html" target="_top" xlink:title="Contains the getElementWeight function and the definitions of element constraint types. ">
<polygon fill="white" stroke="black" points="297,-112.5 297,-131.5 429,-131.5 429,-112.5 297,-112.5"/>
<text text-anchor="middle" x="363" y="-119.5" font-family="FreeSans" font-size="10.00">cantera/thermo/Elements.h</text>
</a>
</g>
</g>
<!-- Node19&#45;&gt;Node21 -->
<g id="edge26" class="edge"><title>Node19&#45;&gt;Node21</title>
<path fill="none" stroke="midnightblue" d="M363,-224.368C363,-206.617 363,-165.666 363,-141.597"/>
<polygon fill="midnightblue" stroke="midnightblue" points="366.5,-141.591 363,-131.591 359.5,-141.591 366.5,-141.591"/>
</g>
<!-- Node22 -->
<g id="node22" class="node"><title>Node22</title>
<g id="a_node22"><a xlink:href="Species_8h.html" target="_top" xlink:title="Declaration for class Cantera::Species. ">
<polygon fill="white" stroke="black" points="-0.5,-112.5 -0.5,-131.5 126.5,-131.5 126.5,-112.5 -0.5,-112.5"/>
<text text-anchor="middle" x="63" y="-119.5" font-family="FreeSans" font-size="10.00">cantera/thermo/Species.h</text>
</a>
</g>
</g>
<!-- Node19&#45;&gt;Node22 -->
<g id="edge28" class="edge"><title>Node19&#45;&gt;Node22</title>
<path fill="none" stroke="midnightblue" d="M339.46,-224.368C286.336,-204.89 157.034,-157.479 95.97,-135.089"/>
<polygon fill="midnightblue" stroke="midnightblue" points="97.0248,-131.748 86.4311,-131.591 94.615,-138.32 97.0248,-131.748"/>
</g>
<!-- Node23 -->
<g id="node23" class="node"><title>Node23</title>
<g id="a_node23"><a xlink:href="ValueCache_8h.html" target="_top" xlink:title="cantera/base/ValueCache.h">
<polygon fill="white" stroke="red" points="145,-112.5 145,-131.5 279,-131.5 279,-112.5 145,-112.5"/>
<text text-anchor="middle" x="212" y="-119.5" font-family="FreeSans" font-size="10.00">cantera/base/ValueCache.h</text>
</a>
</g>
</g>
<!-- Node19&#45;&gt;Node23 -->
<g id="edge30" class="edge"><title>Node19&#45;&gt;Node23</title>
<path fill="none" stroke="midnightblue" d="M351.151,-224.368C325.35,-205.573 263.846,-160.768 231.95,-137.533"/>
<polygon fill="midnightblue" stroke="midnightblue" points="233.937,-134.651 223.794,-131.591 229.816,-140.309 233.937,-134.651"/>
</g>
<!-- Node20&#45;&gt;Node13 -->
<g id="edge25" class="edge"><title>Node20&#45;&gt;Node13</title>
<path fill="none" stroke="midnightblue" d="M629.553,-168.444C670.811,-159.043 737.144,-143.929 781.866,-133.739"/>
<polygon fill="midnightblue" stroke="midnightblue" points="782.65,-137.151 791.622,-131.516 781.095,-130.326 782.65,-137.151"/>
</g>
<!-- Node21&#45;&gt;Node3 -->
<g id="edge27" class="edge"><title>Node21&#45;&gt;Node3</title>
<path fill="none" stroke="midnightblue" d="M389.62,-112.444C418.006,-103.32 463.137,-88.8133 494.753,-78.6509"/>
<polygon fill="midnightblue" stroke="midnightblue" points="496.055,-81.9087 504.504,-75.5164 493.913,-75.2445 496.055,-81.9087"/>
</g>
<!-- Node22&#45;&gt;Node3 -->
<g id="edge29" class="edge"><title>Node22&#45;&gt;Node3</title>
<path fill="none" stroke="midnightblue" d="M126.697,-113.112C129.842,-112.733 132.957,-112.361 136,-112 250.954,-98.366 384.828,-83.2815 463.489,-74.4992"/>
<polygon fill="midnightblue" stroke="midnightblue" points="464.194,-77.9424 473.744,-73.3551 463.417,-70.9856 464.194,-77.9424"/>
</g>
<!-- Node23&#45;&gt;Node3 -->
<g id="edge31" class="edge"><title>Node23&#45;&gt;Node3</title>
<path fill="none" stroke="midnightblue" d="M262.546,-112.444C319.012,-102.885 410.374,-87.4195 470.569,-77.2298"/>
<polygon fill="midnightblue" stroke="midnightblue" points="471.414,-80.6365 480.69,-75.5164 470.246,-73.7346 471.414,-80.6365"/>
</g>
<!-- Node25 -->
<g id="node25" class="node"><title>Node25</title>
<g id="a_node25"><a xlink:href="SpeciesThermoInterpType_8h.html" target="_top" xlink:title="Pure Virtual Base class for individual species reference state thermodynamic managers and text for th...">
<polygon fill="white" stroke="red" points="527.5,-224.5 527.5,-243.5 664.5,-243.5 664.5,-224.5 527.5,-224.5"/>
<text text-anchor="middle" x="596" y="-231.5" font-family="FreeSans" font-size="10.00">SpeciesThermoInterpType.h</text>
</a>
</g>
</g>
<!-- Node24&#45;&gt;Node25 -->
<g id="edge33" class="edge"><title>Node24&#45;&gt;Node25</title>
<path fill="none" stroke="midnightblue" d="M601.009,-280.083C600.214,-272.927 599.071,-262.635 598.077,-253.691"/>
<polygon fill="midnightblue" stroke="midnightblue" points="601.555,-253.303 596.972,-243.751 594.598,-254.076 601.555,-253.303"/>
</g>
<!-- Node25&#45;&gt;Node3 -->
<g id="edge34" class="edge"><title>Node25&#45;&gt;Node3</title>
<path fill="none" stroke="midnightblue" d="M564.191,-224.385C546.054,-217.661 524.836,-206.306 514,-188 494.807,-155.574 510.432,-109.893 521.799,-84.9617"/>
<polygon fill="midnightblue" stroke="midnightblue" points="525.1,-86.1735 526.295,-75.6463 518.796,-83.1305 525.1,-86.1735"/>
</g>
<!-- Node25&#45;&gt;Node12 -->
<g id="edge36" class="edge"><title>Node25&#45;&gt;Node12</title>
<path fill="none" stroke="midnightblue" d="M617.708,-224.444C640.355,-215.517 676.072,-201.439 701.752,-191.317"/>
<polygon fill="midnightblue" stroke="midnightblue" points="703.374,-194.44 711.394,-187.516 700.807,-187.927 703.374,-194.44"/>
</g>
<!-- Node25&#45;&gt;Node20 -->
<g id="edge35" class="edge"><title>Node25&#45;&gt;Node20</title>
<path fill="none" stroke="midnightblue" d="M595.339,-224.083C594.815,-217.006 594.064,-206.861 593.406,-197.986"/>
<polygon fill="midnightblue" stroke="midnightblue" points="596.877,-197.465 592.648,-187.751 589.897,-197.982 596.877,-197.465"/>
</g>
<!-- Node26&#45;&gt;Node3 -->
<g id="edge39" class="edge"><title>Node26&#45;&gt;Node3</title>
<path fill="none" stroke="midnightblue" d="M502.67,-392.386C494.783,-383.801 483.12,-369.923 476,-356 462.296,-329.203 457,-321.098 457,-291 457,-291 457,-291 457,-177 457,-137.61 490.07,-101.726 511.996,-82.264"/>
<polygon fill="midnightblue" stroke="midnightblue" points="514.427,-84.7902 519.761,-75.6358 509.883,-79.466 514.427,-84.7902"/>
</g>
<!-- Node27 -->
<g id="node27" class="node"><title>Node27</title>
<polygon fill="white" stroke="#bfbfbf" points="485.5,-336.5 485.5,-355.5 538.5,-355.5 538.5,-336.5 485.5,-336.5"/>
<text text-anchor="middle" x="512" y="-343.5" font-family="FreeSans" font-size="10.00">iostream</text>
</g>
<!-- Node26&#45;&gt;Node27 -->
<g id="edge40" class="edge"><title>Node26&#45;&gt;Node27</title>
<path fill="none" stroke="midnightblue" d="M511.165,-392.083C511.296,-385.006 511.484,-374.861 511.648,-365.986"/>
<polygon fill="midnightblue" stroke="midnightblue" points="515.152,-365.814 511.838,-355.751 508.153,-365.685 515.152,-365.814"/>
</g>
</g>
</svg>
