<?xml version="1.0" encoding="UTF-8" standalone="no"?>
<!DOCTYPE svg PUBLIC "-//W3C//DTD SVG 1.1//EN"
 "http://www.w3.org/Graphics/SVG/1.1/DTD/svg11.dtd">
<!-- Generated by graphviz version 2.28.0 (20120425.2022)
 -->
<!-- Title: flowControllers.h Pages: 1 -->
<svg width="935pt" height="364pt"
 viewBox="0.00 0.00 935.00 364.00" xmlns="http://www.w3.org/2000/svg" xmlns:xlink="http://www.w3.org/1999/xlink">
<g id="graph1" class="graph" transform="scale(1 1) rotate(0) translate(4 360)">
<title>flowControllers.h</title>
<polygon fill="white" stroke="white" points="-4,5 -4,-360 932,-360 932,5 -4,5"/>
<!-- Node1 -->
<g id="node1" class="node"><title>Node1</title>
<polygon fill="#bfbfbf" stroke="black" points="341.5,-336.5 341.5,-355.5 432.5,-355.5 432.5,-336.5 341.5,-336.5"/>
<text text-anchor="middle" x="387" y="-343.5" font-family="FreeSans" font-size="10.00">flowControllers.h</text>
</g>
<!-- Node2 -->
<g id="node3" class="node"><title>Node2</title>
<a xlink:href="FlowDevice_8h.html" target="_top" xlink:title="FlowDevice.h">
<polygon fill="white" stroke="black" points="210,-168.5 210,-187.5 288,-187.5 288,-168.5 210,-168.5"/>
<text text-anchor="middle" x="249" y="-175.5" font-family="FreeSans" font-size="10.00">FlowDevice.h</text>
</a>
</g>
<!-- Node1&#45;&gt;Node2 -->
<g id="edge2" class="edge"><title>Node1&#45;&gt;Node2</title>
<path fill="none" stroke="midnightblue" d="M375.805,-336.347C365.012,-327.732 348.519,-313.833 336,-300 305.039,-265.791 274.996,-220.527 259.616,-196.21"/>
<polygon fill="midnightblue" stroke="midnightblue" points="262.569,-194.33 254.299,-187.708 256.634,-198.042 262.569,-194.33"/>
</g>
<!-- Node12 -->
<g id="node26" class="node"><title>Node12</title>
<a xlink:href="ReactorBase_8h.html" target="_top" xlink:title="ReactorBase.h">
<polygon fill="white" stroke="black" points="345.5,-280.5 345.5,-299.5 428.5,-299.5 428.5,-280.5 345.5,-280.5"/>
<text text-anchor="middle" x="387" y="-287.5" font-family="FreeSans" font-size="10.00">ReactorBase.h</text>
</a>
</g>
<!-- Node1&#45;&gt;Node12 -->
<g id="edge28" class="edge"><title>Node1&#45;&gt;Node12</title>
<path fill="none" stroke="midnightblue" d="M387,-336.083C387,-329.006 387,-318.861 387,-309.986"/>
<polygon fill="midnightblue" stroke="midnightblue" points="390.5,-309.751 387,-299.751 383.5,-309.751 390.5,-309.751"/>
</g>
<!-- Node20 -->
<g id="node46" class="node"><title>Node20</title>
<a xlink:href="Func1_8h.html" target="_top" xlink:title="cantera/numerics/Func1.h">
<polygon fill="white" stroke="black" points="796.5,-112.5 796.5,-131.5 927.5,-131.5 927.5,-112.5 796.5,-112.5"/>
<text text-anchor="middle" x="862" y="-119.5" font-family="FreeSans" font-size="10.00">cantera/numerics/Func1.h</text>
</a>
</g>
<!-- Node1&#45;&gt;Node20 -->
<g id="edge52" class="edge"><title>Node1&#45;&gt;Node20</title>
<path fill="none" stroke="midnightblue" d="M405.33,-336.433C478.139,-302.405 747.183,-176.662 834.465,-135.869"/>
<polygon fill="midnightblue" stroke="midnightblue" points="836.148,-138.946 843.725,-131.541 833.184,-132.604 836.148,-138.946"/>
</g>
<!-- Node3 -->
<g id="node5" class="node"><title>Node3</title>
<a xlink:href="ct__defs_8h.html" target="_top" xlink:title="This file contains definitions of terms that are used in internal routines and are unlikely to need m...">
<polygon fill="white" stroke="black" points="267.5,-56.5 267.5,-75.5 386.5,-75.5 386.5,-56.5 267.5,-56.5"/>
<text text-anchor="middle" x="327" y="-63.5" font-family="FreeSans" font-size="10.00">cantera/base/ct_defs.h</text>
</a>
</g>
<!-- Node2&#45;&gt;Node3 -->
<g id="edge4" class="edge"><title>Node2&#45;&gt;Node3</title>
<path fill="none" stroke="midnightblue" d="M255.121,-168.368C267.993,-150.215 298.068,-107.802 314.952,-83.9902"/>
<polygon fill="midnightblue" stroke="midnightblue" points="317.979,-85.7733 320.908,-75.5914 312.269,-81.7243 317.979,-85.7733"/>
</g>
<!-- Node10 -->
<g id="node19" class="node"><title>Node10</title>
<a xlink:href="global_8h.html" target="_top" xlink:title="This file contains definitions for utility functions and text for modules, inputfiles, logs, textlogs, HTML_logs (see Input File Handling, Diagnostic Output, Writing messages to the screen and Writing HTML Logfiles). ">
<polygon fill="white" stroke="black" points="147,-112.5 147,-131.5 261,-131.5 261,-112.5 147,-112.5"/>
<text text-anchor="middle" x="204" y="-119.5" font-family="FreeSans" font-size="10.00">cantera/base/global.h</text>
</a>
</g>
<!-- Node2&#45;&gt;Node10 -->
<g id="edge18" class="edge"><title>Node2&#45;&gt;Node10</title>
<path fill="none" stroke="midnightblue" d="M241.569,-168.083C235.147,-160.377 225.694,-149.033 217.878,-139.653"/>
<polygon fill="midnightblue" stroke="midnightblue" points="220.383,-137.193 211.293,-131.751 215.006,-141.674 220.383,-137.193"/>
</g>
<!-- Node11 -->
<g id="node22" class="node"><title>Node11</title>
<a xlink:href="stringUtils_8h.html" target="_top" xlink:title="Contains declarations for string manipulation functions within Cantera. ">
<polygon fill="white" stroke="black" points="-0.5,-112.5 -0.5,-131.5 128.5,-131.5 128.5,-112.5 -0.5,-112.5"/>
<text text-anchor="middle" x="64" y="-119.5" font-family="FreeSans" font-size="10.00">cantera/base/stringUtils.h</text>
</a>
</g>
<!-- Node2&#45;&gt;Node11 -->
<g id="edge22" class="edge"><title>Node2&#45;&gt;Node11</title>
<path fill="none" stroke="midnightblue" d="M219.686,-168.444C188.158,-159.241 137.869,-144.562 103.014,-134.388"/>
<polygon fill="midnightblue" stroke="midnightblue" points="103.757,-130.959 93.1767,-131.516 101.795,-137.678 103.757,-130.959"/>
</g>
<!-- Node4 -->
<g id="node7" class="node"><title>Node4</title>
<a xlink:href="config_8h_source.html" target="_top" xlink:title="config.h">
<polygon fill="white" stroke="black" points="363.5,-0.5 363.5,-19.5 414.5,-19.5 414.5,-0.5 363.5,-0.5"/>
<text text-anchor="middle" x="389" y="-7.5" font-family="FreeSans" font-size="10.00">config.h</text>
</a>
</g>
<!-- Node3&#45;&gt;Node4 -->
<g id="edge6" class="edge"><title>Node3&#45;&gt;Node4</title>
<path fill="none" stroke="midnightblue" d="M336.961,-56.324C346.127,-48.3414 359.937,-36.3128 371.028,-26.6529"/>
<polygon fill="midnightblue" stroke="midnightblue" points="373.615,-29.041 378.857,-19.8339 369.018,-23.7624 373.615,-29.041"/>
</g>
<!-- Node5 -->
<g id="node9" class="node"><title>Node5</title>
<polygon fill="white" stroke="#bfbfbf" points="433,-0.5 433,-19.5 477,-19.5 477,-0.5 433,-0.5"/>
<text text-anchor="middle" x="455" y="-7.5" font-family="FreeSans" font-size="10.00">cmath</text>
</g>
<!-- Node3&#45;&gt;Node5 -->
<g id="edge8" class="edge"><title>Node3&#45;&gt;Node5</title>
<path fill="none" stroke="midnightblue" d="M347.282,-56.4435C368.347,-47.5566 401.517,-33.5632 425.486,-23.4514"/>
<polygon fill="midnightblue" stroke="midnightblue" points="426.96,-26.6283 434.813,-19.5164 424.239,-20.1787 426.96,-26.6283"/>
</g>
<!-- Node6 -->
<g id="node11" class="node"><title>Node6</title>
<polygon fill="white" stroke="#bfbfbf" points="183.5,-0.5 183.5,-19.5 228.5,-19.5 228.5,-0.5 183.5,-0.5"/>
<text text-anchor="middle" x="206" y="-7.5" font-family="FreeSans" font-size="10.00">cstdlib</text>
</g>
<!-- Node3&#45;&gt;Node6 -->
<g id="edge10" class="edge"><title>Node3&#45;&gt;Node6</title>
<path fill="none" stroke="midnightblue" d="M307.827,-56.4435C288.091,-47.6356 257.115,-33.8116 234.507,-23.722"/>
<polygon fill="midnightblue" stroke="midnightblue" points="235.641,-20.3957 225.083,-19.5164 232.789,-26.788 235.641,-20.3957"/>
</g>
<!-- Node7 -->
<g id="node13" class="node"><title>Node7</title>
<polygon fill="white" stroke="#bfbfbf" points="247,-0.5 247,-19.5 291,-19.5 291,-0.5 247,-0.5"/>
<text text-anchor="middle" x="269" y="-7.5" font-family="FreeSans" font-size="10.00">vector</text>
</g>
<!-- Node3&#45;&gt;Node7 -->
<g id="edge12" class="edge"><title>Node3&#45;&gt;Node7</title>
<path fill="none" stroke="midnightblue" d="M317.681,-56.324C309.107,-48.3414 296.188,-36.3128 285.812,-26.6529"/>
<polygon fill="midnightblue" stroke="midnightblue" points="288.192,-24.0865 278.488,-19.8339 283.422,-29.2098 288.192,-24.0865"/>
</g>
<!-- Node8 -->
<g id="node15" class="node"><title>Node8</title>
<polygon fill="white" stroke="#bfbfbf" points="309,-0.5 309,-19.5 345,-19.5 345,-0.5 309,-0.5"/>
<text text-anchor="middle" x="327" y="-7.5" font-family="FreeSans" font-size="10.00">map</text>
</g>
<!-- Node3&#45;&gt;Node8 -->
<g id="edge14" class="edge"><title>Node3&#45;&gt;Node8</title>
<path fill="none" stroke="midnightblue" d="M327,-56.083C327,-49.0059 327,-38.8611 327,-29.9865"/>
<polygon fill="midnightblue" stroke="midnightblue" points="330.5,-29.751 327,-19.7511 323.5,-29.7511 330.5,-29.751"/>
</g>
<!-- Node9 -->
<g id="node17" class="node"><title>Node9</title>
<polygon fill="white" stroke="#bfbfbf" points="104.5,-0.5 104.5,-19.5 145.5,-19.5 145.5,-0.5 104.5,-0.5"/>
<text text-anchor="middle" x="125" y="-7.5" font-family="FreeSans" font-size="10.00">string</text>
</g>
<!-- Node3&#45;&gt;Node9 -->
<g id="edge16" class="edge"><title>Node3&#45;&gt;Node9</title>
<path fill="none" stroke="midnightblue" d="M294.992,-56.4435C256.758,-46.2225 193.257,-29.2468 155.638,-19.1904"/>
<polygon fill="midnightblue" stroke="midnightblue" points="156.321,-15.7502 145.757,-16.5488 154.513,-22.5127 156.321,-15.7502"/>
</g>
<!-- Node10&#45;&gt;Node3 -->
<g id="edge20" class="edge"><title>Node10&#45;&gt;Node3</title>
<path fill="none" stroke="midnightblue" d="M223.49,-112.444C243.642,-103.596 275.323,-89.6875 298.331,-79.5865"/>
<polygon fill="midnightblue" stroke="midnightblue" points="299.852,-82.7411 307.601,-75.5164 297.038,-76.3316 299.852,-82.7411"/>
</g>
<!-- Node11&#45;&gt;Node3 -->
<g id="edge24" class="edge"><title>Node11&#45;&gt;Node3</title>
<path fill="none" stroke="midnightblue" d="M105.673,-112.444C151.745,-102.984 225.996,-87.7384 275.631,-77.5472"/>
<polygon fill="midnightblue" stroke="midnightblue" points="276.43,-80.9563 285.522,-75.5164 275.022,-74.0993 276.43,-80.9563"/>
</g>
<!-- Node11&#45;&gt;Node9 -->
<g id="edge26" class="edge"><title>Node11&#45;&gt;Node9</title>
<path fill="none" stroke="midnightblue" d="M68.7866,-112.368C78.7642,-94.376 101.958,-52.5503 115.225,-28.6267"/>
<polygon fill="midnightblue" stroke="midnightblue" points="118.447,-30.0342 120.236,-19.5914 112.325,-26.6393 118.447,-30.0342"/>
</g>
<!-- Node13 -->
<g id="node28" class="node"><title>Node13</title>
<a xlink:href="ThermoPhase_8h.html" target="_top" xlink:title="Header file for class ThermoPhase, the base class for phases with thermodynamic properties, and the text for the Module thermoprops (see Thermodynamic Properties and class ThermoPhase). ">
<polygon fill="white" stroke="black" points="307,-224.5 307,-243.5 467,-243.5 467,-224.5 307,-224.5"/>
<text text-anchor="middle" x="387" y="-231.5" font-family="FreeSans" font-size="10.00">cantera/thermo/ThermoPhase.h</text>
</a>
</g>
<!-- Node12&#45;&gt;Node13 -->
<g id="edge30" class="edge"><title>Node12&#45;&gt;Node13</title>
<path fill="none" stroke="midnightblue" d="M387,-280.083C387,-273.006 387,-262.861 387,-253.986"/>
<polygon fill="midnightblue" stroke="midnightblue" points="390.5,-253.751 387,-243.751 383.5,-253.751 390.5,-253.751"/>
</g>
<!-- Node14 -->
<g id="node30" class="node"><title>Node14</title>
<a xlink:href="Phase_8h.html" target="_top" xlink:title="Header file for class Phase. ">
<polygon fill="white" stroke="black" points="465.5,-168.5 465.5,-187.5 518.5,-187.5 518.5,-168.5 465.5,-168.5"/>
<text text-anchor="middle" x="492" y="-175.5" font-family="FreeSans" font-size="10.00">Phase.h</text>
</a>
</g>
<!-- Node13&#45;&gt;Node14 -->
<g id="edge32" class="edge"><title>Node13&#45;&gt;Node14</title>
<path fill="none" stroke="midnightblue" d="M403.87,-224.324C420.709,-215.664 446.807,-202.242 466.238,-192.249"/>
<polygon fill="midnightblue" stroke="midnightblue" points="467.88,-195.341 475.172,-187.655 464.678,-189.116 467.88,-195.341"/>
</g>
<!-- Node19 -->
<g id="node43" class="node"><title>Node19</title>
<a xlink:href="SpeciesThermo_8h.html" target="_top" xlink:title="Virtual base class for the calculation of multiple&#45;species thermodynamic reference&#45;state property man...">
<polygon fill="white" stroke="black" points="314.5,-168.5 314.5,-187.5 411.5,-187.5 411.5,-168.5 314.5,-168.5"/>
<text text-anchor="middle" x="363" y="-175.5" font-family="FreeSans" font-size="10.00">SpeciesThermo.h</text>
</a>
</g>
<!-- Node13&#45;&gt;Node19 -->
<g id="edge48" class="edge"><title>Node13&#45;&gt;Node19</title>
<path fill="none" stroke="midnightblue" d="M383.037,-224.083C379.787,-216.77 375.081,-206.181 371.046,-197.103"/>
<polygon fill="midnightblue" stroke="midnightblue" points="374.149,-195.468 366.889,-187.751 367.752,-198.311 374.149,-195.468"/>
</g>
<!-- Node15 -->
<g id="node32" class="node"><title>Node15</title>
<a xlink:href="vec__functions_8h.html" target="_top" xlink:title="Templates for operations on vector&#45;like objects. ">
<polygon fill="white" stroke="red" points="631.5,-112.5 631.5,-131.5 778.5,-131.5 778.5,-112.5 631.5,-112.5"/>
<text text-anchor="middle" x="705" y="-119.5" font-family="FreeSans" font-size="10.00">cantera/base/vec_functions.h</text>
</a>
</g>
<!-- Node14&#45;&gt;Node15 -->
<g id="edge34" class="edge"><title>Node14&#45;&gt;Node15</title>
<path fill="none" stroke="midnightblue" d="M518.546,-170.27C554.371,-161.188 618.643,-144.893 661.56,-134.013"/>
<polygon fill="midnightblue" stroke="midnightblue" points="662.612,-137.357 671.445,-131.507 660.892,-130.572 662.612,-137.357"/>
</g>
<!-- Node17 -->
<g id="node37" class="node"><title>Node17</title>
<a xlink:href="ctml_8h.html" target="_top" xlink:title="CTML (&quot;Cantera Markup Language&quot;) is the variant of XML that Cantera uses to store data...">
<polygon fill="white" stroke="red" points="509,-112.5 509,-131.5 613,-131.5 613,-112.5 509,-112.5"/>
<text text-anchor="middle" x="561" y="-119.5" font-family="FreeSans" font-size="10.00">cantera/base/ctml.h</text>
</a>
</g>
<!-- Node14&#45;&gt;Node17 -->
<g id="edge40" class="edge"><title>Node14&#45;&gt;Node17</title>
<path fill="none" stroke="midnightblue" d="M503.086,-168.324C513.486,-160.185 529.261,-147.839 541.722,-138.087"/>
<polygon fill="midnightblue" stroke="midnightblue" points="543.994,-140.753 549.712,-131.834 539.68,-135.241 543.994,-140.753"/>
</g>
<!-- Node18 -->
<g id="node40" class="node"><title>Node18</title>
<a xlink:href="Elements_8h.html" target="_top" xlink:title="Contains the LookupWtElements function and the definitions of element constraint types. ">
<polygon fill="white" stroke="black" points="355,-112.5 355,-131.5 491,-131.5 491,-112.5 355,-112.5"/>
<text text-anchor="middle" x="423" y="-119.5" font-family="FreeSans" font-size="10.00">cantera/thermo/Elements.h</text>
</a>
</g>
<!-- Node14&#45;&gt;Node18 -->
<g id="edge44" class="edge"><title>Node14&#45;&gt;Node18</title>
<path fill="none" stroke="midnightblue" d="M480.914,-168.324C470.514,-160.185 454.739,-147.839 442.278,-138.087"/>
<polygon fill="midnightblue" stroke="midnightblue" points="444.32,-135.241 434.288,-131.834 440.006,-140.753 444.32,-135.241"/>
</g>
<!-- Node15&#45;&gt;Node3 -->
<g id="edge36" class="edge"><title>Node15&#45;&gt;Node3</title>
<path fill="none" stroke="midnightblue" d="M645.105,-112.444C577.643,-102.806 468.144,-87.1635 396.847,-76.9782"/>
<polygon fill="midnightblue" stroke="midnightblue" points="397.009,-73.4659 386.615,-75.5164 396.019,-80.3955 397.009,-73.4659"/>
</g>
<!-- Node16 -->
<g id="node35" class="node"><title>Node16</title>
<polygon fill="white" stroke="#bfbfbf" points="755,-56.5 755,-75.5 811,-75.5 811,-56.5 755,-56.5"/>
<text text-anchor="middle" x="783" y="-63.5" font-family="FreeSans" font-size="10.00">iostream</text>
</g>
<!-- Node15&#45;&gt;Node16 -->
<g id="edge38" class="edge"><title>Node15&#45;&gt;Node16</title>
<path fill="none" stroke="midnightblue" d="M717.532,-112.324C729.586,-103.979 748.027,-91.2122 762.269,-81.3524"/>
<polygon fill="midnightblue" stroke="midnightblue" points="764.269,-84.2243 770.499,-75.6545 760.285,-78.469 764.269,-84.2243"/>
</g>
<!-- Node17&#45;&gt;Node3 -->
<g id="edge42" class="edge"><title>Node17&#45;&gt;Node3</title>
<path fill="none" stroke="midnightblue" d="M523.922,-112.444C483.272,-103.063 417.968,-87.9926 373.816,-77.8036"/>
<polygon fill="midnightblue" stroke="midnightblue" points="374.435,-74.3547 363.905,-75.5164 372.861,-81.1755 374.435,-74.3547"/>
</g>
<!-- Node18&#45;&gt;Node3 -->
<g id="edge46" class="edge"><title>Node18&#45;&gt;Node3</title>
<path fill="none" stroke="midnightblue" d="M407.576,-112.324C392.46,-103.822 369.185,-90.7288 351.529,-80.7975"/>
<polygon fill="midnightblue" stroke="midnightblue" points="352.817,-77.5066 342.386,-75.6545 349.386,-83.6077 352.817,-77.5066"/>
</g>
<!-- Node19&#45;&gt;Node3 -->
<g id="edge50" class="edge"><title>Node19&#45;&gt;Node3</title>
<path fill="none" stroke="midnightblue" d="M359.543,-168.444C355.959,-159.443 350.292,-144.831 346,-132 340.814,-116.495 335.655,-98.6547 332.025,-85.5916"/>
<polygon fill="midnightblue" stroke="midnightblue" points="335.387,-84.6172 329.368,-75.8983 328.636,-86.4678 335.387,-84.6172"/>
</g>
<!-- Node20&#45;&gt;Node3 -->
<g id="edge54" class="edge"><title>Node20&#45;&gt;Node3</title>
<path fill="none" stroke="midnightblue" d="M796.159,-113.016C793.064,-112.667 789.999,-112.327 787,-112 648.741,-96.9436 486.842,-81.6478 396.687,-73.3382"/>
<polygon fill="midnightblue" stroke="midnightblue" points="396.868,-69.84 386.589,-72.409 396.226,-76.8106 396.868,-69.84"/>
</g>
<!-- Node20&#45;&gt;Node16 -->
<g id="edge56" class="edge"><title>Node20&#45;&gt;Node16</title>
<path fill="none" stroke="midnightblue" d="M849.307,-112.324C837.099,-103.979 818.422,-91.2122 803.997,-81.3524"/>
<polygon fill="midnightblue" stroke="midnightblue" points="805.892,-78.4082 795.661,-75.6545 801.942,-84.1871 805.892,-78.4082"/>
</g>
</g>
</svg>
