<?xml version="1.0" encoding="UTF-8" standalone="no"?>
<!DOCTYPE svg PUBLIC "-//W3C//DTD SVG 1.1//EN"
 "http://www.w3.org/Graphics/SVG/1.1/DTD/svg11.dtd">
<!-- Generated by graphviz version 2.38.0 (20140413.2041)
 -->
<!-- Title: FlowDevice.h Pages: 1 -->
<svg width="652pt" height="252pt"
 viewBox="0.00 0.00 651.50 252.00" xmlns="http://www.w3.org/2000/svg" xmlns:xlink="http://www.w3.org/1999/xlink">
<g id="graph0" class="graph" transform="scale(1 1) rotate(0) translate(4 248)">
<title>FlowDevice.h</title>
<polygon fill="white" stroke="none" points="-4,4 -4,-248 647.5,-248 647.5,4 -4,4"/>
<!-- Node1 -->
<g id="node1" class="node"><title>Node1</title>
<polygon fill="#bfbfbf" stroke="black" points="241.5,-224.5 241.5,-243.5 318.5,-243.5 318.5,-224.5 241.5,-224.5"/>
<text text-anchor="middle" x="280" y="-231.5" font-family="Helvetica,sans-Serif" font-size="10.00">FlowDevice.h</text>
</g>
<!-- Node2 -->
<g id="node2" class="node"><title>Node2</title>
<g id="a_node2"><a xlink:href="ct__defs_8h.html" target="_top" xlink:title="This file contains definitions of terms that are used in internal routines and are unlikely to need m...">
<polygon fill="white" stroke="black" points="158,-56.5 158,-75.5 274,-75.5 274,-56.5 158,-56.5"/>
<text text-anchor="middle" x="216" y="-63.5" font-family="Helvetica,sans-Serif" font-size="10.00">cantera/base/ct_defs.h</text>
</a>
</g>
</g>
<!-- Node1&#45;&gt;Node2 -->
<g id="edge1" class="edge"><title>Node1&#45;&gt;Node2</title>
<path fill="none" stroke="midnightblue" d="M258.517,-224.36C243.608,-217.09 224.889,-205.117 216,-188 198.956,-155.181 205.353,-110.282 211.012,-85.4347"/>
<polygon fill="midnightblue" stroke="midnightblue" points="214.454,-86.0944 213.473,-75.5451 207.661,-84.4039 214.454,-86.0944"/>
</g>
<!-- Node11 -->
<g id="node11" class="node"><title>Node11</title>
<g id="a_node11"><a xlink:href="global_8h.html" target="_top" xlink:title="This file contains definitions for utility functions and text for modules, inputfiles, logs, textlogs, (see Input File Handling, Diagnostic Output, and Writing messages to the screen). ">
<polygon fill="white" stroke="black" points="225,-168.5 225,-187.5 335,-187.5 335,-168.5 225,-168.5"/>
<text text-anchor="middle" x="280" y="-175.5" font-family="Helvetica,sans-Serif" font-size="10.00">cantera/base/global.h</text>
</a>
</g>
</g>
<!-- Node1&#45;&gt;Node11 -->
<g id="edge10" class="edge"><title>Node1&#45;&gt;Node11</title>
<path fill="none" stroke="midnightblue" d="M280,-224.083C280,-217.006 280,-206.861 280,-197.986"/>
<polygon fill="midnightblue" stroke="midnightblue" points="283.5,-197.751 280,-187.751 276.5,-197.751 283.5,-197.751"/>
</g>
<!-- Node15 -->
<g id="node15" class="node"><title>Node15</title>
<g id="a_node15"><a xlink:href="stringUtils_8h.html" target="_top" xlink:title="Contains declarations for string manipulation functions within Cantera. ">
<polygon fill="white" stroke="black" points="353,-168.5 353,-187.5 481,-187.5 481,-168.5 353,-168.5"/>
<text text-anchor="middle" x="417" y="-175.5" font-family="Helvetica,sans-Serif" font-size="10.00">cantera/base/stringUtils.h</text>
</a>
</g>
</g>
<!-- Node1&#45;&gt;Node15 -->
<g id="edge16" class="edge"><title>Node1&#45;&gt;Node15</title>
<path fill="none" stroke="midnightblue" d="M301.708,-224.444C324.355,-215.517 360.072,-201.439 385.752,-191.317"/>
<polygon fill="midnightblue" stroke="midnightblue" points="387.374,-194.44 395.394,-187.516 384.807,-187.927 387.374,-194.44"/>
</g>
<!-- Node3 -->
<g id="node3" class="node"><title>Node3</title>
<g id="a_node3"><a xlink:href="config_8h_source.html" target="_top" xlink:title="config.h">
<polygon fill="white" stroke="black" points="260.5,-0.5 260.5,-19.5 311.5,-19.5 311.5,-0.5 260.5,-0.5"/>
<text text-anchor="middle" x="286" y="-7.5" font-family="Helvetica,sans-Serif" font-size="10.00">config.h</text>
</a>
</g>
</g>
<!-- Node2&#45;&gt;Node3 -->
<g id="edge2" class="edge"><title>Node2&#45;&gt;Node3</title>
<path fill="none" stroke="midnightblue" d="M227.247,-56.324C237.797,-48.1849 253.801,-35.8395 266.442,-26.0874"/>
<polygon fill="midnightblue" stroke="midnightblue" points="268.769,-28.7132 274.549,-19.8339 264.493,-23.1707 268.769,-28.7132"/>
</g>
<!-- Node4 -->
<g id="node4" class="node"><title>Node4</title>
<polygon fill="white" stroke="#bfbfbf" points="330,-0.5 330,-19.5 374,-19.5 374,-0.5 330,-0.5"/>
<text text-anchor="middle" x="352" y="-7.5" font-family="Helvetica,sans-Serif" font-size="10.00">cmath</text>
</g>
<!-- Node2&#45;&gt;Node4 -->
<g id="edge3" class="edge"><title>Node2&#45;&gt;Node4</title>
<path fill="none" stroke="midnightblue" d="M237.55,-56.4435C260.031,-47.5171 295.488,-33.4387 320.98,-23.3168"/>
<polygon fill="midnightblue" stroke="midnightblue" points="322.549,-26.4598 330.551,-19.5164 319.965,-19.9539 322.549,-26.4598"/>
</g>
<!-- Node5 -->
<g id="node5" class="node"><title>Node5</title>
<polygon fill="white" stroke="#bfbfbf" points="392.5,-0.5 392.5,-19.5 437.5,-19.5 437.5,-0.5 392.5,-0.5"/>
<text text-anchor="middle" x="415" y="-7.5" font-family="Helvetica,sans-Serif" font-size="10.00">cstdlib</text>
</g>
<!-- Node2&#45;&gt;Node5 -->
<g id="edge4" class="edge"><title>Node2&#45;&gt;Node5</title>
<path fill="none" stroke="midnightblue" d="M248.043,-56.4772C279.712,-48.0294 329.796,-34.6039 382.429,-20.1351"/>
<polygon fill="midnightblue" stroke="midnightblue" points="383.571,-23.4512 392.283,-17.4223 381.713,-16.7023 383.571,-23.4512"/>
</g>
<!-- Node6 -->
<g id="node6" class="node"><title>Node6</title>
<polygon fill="white" stroke="#bfbfbf" points="0,-0.5 0,-19.5 44,-19.5 44,-0.5 0,-0.5"/>
<text text-anchor="middle" x="22" y="-7.5" font-family="Helvetica,sans-Serif" font-size="10.00">vector</text>
</g>
<!-- Node2&#45;&gt;Node6 -->
<g id="edge5" class="edge"><title>Node2&#45;&gt;Node6</title>
<path fill="none" stroke="midnightblue" d="M184.718,-56.4954C153.866,-48.079 105.117,-34.7031 53.9286,-20.2369"/>
<polygon fill="midnightblue" stroke="midnightblue" points="54.5804,-16.784 44.0052,-17.4274 52.6735,-23.5193 54.5804,-16.784"/>
</g>
<!-- Node7 -->
<g id="node7" class="node"><title>Node7</title>
<polygon fill="white" stroke="#bfbfbf" points="62.5,-0.5 62.5,-19.5 97.5,-19.5 97.5,-0.5 62.5,-0.5"/>
<text text-anchor="middle" x="80" y="-7.5" font-family="Helvetica,sans-Serif" font-size="10.00">map</text>
</g>
<!-- Node2&#45;&gt;Node7 -->
<g id="edge6" class="edge"><title>Node2&#45;&gt;Node7</title>
<path fill="none" stroke="midnightblue" d="M194.45,-56.4435C170.779,-47.0445 132.722,-31.9336 107.059,-21.7438"/>
<polygon fill="midnightblue" stroke="midnightblue" points="108.142,-18.4084 97.5565,-17.971 105.559,-24.9143 108.142,-18.4084"/>
</g>
<!-- Node8 -->
<g id="node8" class="node"><title>Node8</title>
<polygon fill="white" stroke="#bfbfbf" points="460.5,-0.5 460.5,-19.5 501.5,-19.5 501.5,-0.5 460.5,-0.5"/>
<text text-anchor="middle" x="481" y="-7.5" font-family="Helvetica,sans-Serif" font-size="10.00">string</text>
</g>
<!-- Node2&#45;&gt;Node8 -->
<g id="edge7" class="edge"><title>Node2&#45;&gt;Node8</title>
<path fill="none" stroke="midnightblue" d="M264.188,-56.4198C310.843,-47.9128 383.496,-34.138 446,-20 447.453,-19.6713 448.938,-19.326 450.436,-18.9703"/>
<polygon fill="midnightblue" stroke="midnightblue" points="451.45,-22.3251 460.32,-16.5311 449.773,-15.529 451.45,-22.3251"/>
</g>
<!-- Node9 -->
<g id="node9" class="node"><title>Node9</title>
<polygon fill="white" stroke="#bfbfbf" points="116,-0.5 116,-19.5 172,-19.5 172,-0.5 116,-0.5"/>
<text text-anchor="middle" x="144" y="-7.5" font-family="Helvetica,sans-Serif" font-size="10.00">algorithm</text>
</g>
<!-- Node2&#45;&gt;Node9 -->
<g id="edge8" class="edge"><title>Node2&#45;&gt;Node9</title>
<path fill="none" stroke="midnightblue" d="M204.432,-56.324C193.58,-48.1849 177.119,-35.8395 164.117,-26.0874"/>
<polygon fill="midnightblue" stroke="midnightblue" points="165.879,-23.0339 155.779,-19.8339 161.679,-28.6339 165.879,-23.0339"/>
</g>
<!-- Node10 -->
<g id="node10" class="node"><title>Node10</title>
<polygon fill="white" stroke="#bfbfbf" points="190,-0.5 190,-19.5 242,-19.5 242,-0.5 190,-0.5"/>
<text text-anchor="middle" x="216" y="-7.5" font-family="Helvetica,sans-Serif" font-size="10.00">memory</text>
</g>
<!-- Node2&#45;&gt;Node10 -->
<g id="edge9" class="edge"><title>Node2&#45;&gt;Node10</title>
<path fill="none" stroke="midnightblue" d="M216,-56.083C216,-49.0059 216,-38.8611 216,-29.9865"/>
<polygon fill="midnightblue" stroke="midnightblue" points="219.5,-29.751 216,-19.7511 212.5,-29.7511 219.5,-29.751"/>
</g>
<!-- Node11&#45;&gt;Node2 -->
<g id="edge11" class="edge"><title>Node11&#45;&gt;Node2</title>
<path fill="none" stroke="midnightblue" d="M274.978,-168.368C264.463,-150.296 239.957,-108.176 226.07,-84.3074"/>
<polygon fill="midnightblue" stroke="midnightblue" points="229.053,-82.4748 220.999,-75.5914 223.002,-85.9951 229.053,-82.4748"/>
</g>
<!-- Node12 -->
<g id="node12" class="node"><title>Node12</title>
<g id="a_node12"><a xlink:href="fmt_8h.html" target="_top" xlink:title="Wrapper for either system&#45;installed or local headers for fmt. ">
<polygon fill="white" stroke="black" points="301,-112.5 301,-131.5 399,-131.5 399,-112.5 301,-112.5"/>
<text text-anchor="middle" x="350" y="-119.5" font-family="Helvetica,sans-Serif" font-size="10.00">cantera/base/fmt.h</text>
</a>
</g>
</g>
<!-- Node11&#45;&gt;Node12 -->
<g id="edge12" class="edge"><title>Node11&#45;&gt;Node12</title>
<path fill="none" stroke="midnightblue" d="M291.247,-168.324C301.797,-160.185 317.801,-147.839 330.442,-138.087"/>
<polygon fill="midnightblue" stroke="midnightblue" points="332.769,-140.713 338.549,-131.834 328.493,-135.171 332.769,-140.713"/>
</g>
<!-- Node12&#45;&gt;Node2 -->
<g id="edge13" class="edge"><title>Node12&#45;&gt;Node2</title>
<path fill="none" stroke="midnightblue" d="M328.767,-112.444C306.616,-103.517 271.681,-89.4387 246.564,-79.3168"/>
<polygon fill="midnightblue" stroke="midnightblue" points="247.717,-76.0079 237.133,-75.5164 245.1,-82.5006 247.717,-76.0079"/>
</g>
<!-- Node13 -->
<g id="node13" class="node"><title>Node13</title>
<polygon fill="white" stroke="#bfbfbf" points="292,-56.5 292,-75.5 362,-75.5 362,-56.5 292,-56.5"/>
<text text-anchor="middle" x="327" y="-63.5" font-family="Helvetica,sans-Serif" font-size="10.00">fmt/format.h</text>
</g>
<!-- Node12&#45;&gt;Node13 -->
<g id="edge14" class="edge"><title>Node12&#45;&gt;Node13</title>
<path fill="none" stroke="midnightblue" d="M346.202,-112.083C343.087,-104.77 338.577,-94.1814 334.711,-85.1034"/>
<polygon fill="midnightblue" stroke="midnightblue" points="337.866,-83.5798 330.727,-75.7511 331.426,-86.3229 337.866,-83.5798"/>
</g>
<!-- Node14 -->
<g id="node14" class="node"><title>Node14</title>
<polygon fill="white" stroke="#bfbfbf" points="380.5,-56.5 380.5,-75.5 457.5,-75.5 457.5,-56.5 380.5,-56.5"/>
<text text-anchor="middle" x="419" y="-63.5" font-family="Helvetica,sans-Serif" font-size="10.00">fmt/ostream.h</text>
</g>
<!-- Node12&#45;&gt;Node14 -->
<g id="edge15" class="edge"><title>Node12&#45;&gt;Node14</title>
<path fill="none" stroke="midnightblue" d="M361.086,-112.324C371.486,-104.185 387.261,-91.8395 399.722,-82.0874"/>
<polygon fill="midnightblue" stroke="midnightblue" points="401.994,-84.7533 407.712,-75.8339 397.68,-79.2407 401.994,-84.7533"/>
</g>
<!-- Node15&#45;&gt;Node2 -->
<g id="edge17" class="edge"><title>Node15&#45;&gt;Node2</title>
<path fill="none" stroke="midnightblue" d="M383.186,-168.436C357.176,-161.012 320.914,-148.807 292,-132 268.697,-118.454 245.707,-97.4324 231.22,-82.9841"/>
<polygon fill="midnightblue" stroke="midnightblue" points="233.6,-80.4119 224.099,-75.7228 228.602,-85.3132 233.6,-80.4119"/>
</g>
<!-- Node15&#45;&gt;Node8 -->
<g id="edge20" class="edge"><title>Node15&#45;&gt;Node8</title>
<path fill="none" stroke="midnightblue" d="M422.016,-168.371C431.766,-151.272 453.418,-111.654 466,-76 471.365,-60.7956 475.331,-42.9049 477.833,-29.7462"/>
<polygon fill="midnightblue" stroke="midnightblue" points="481.335,-30.0476 479.653,-19.5871 474.444,-28.8132 481.335,-30.0476"/>
</g>
<!-- Node15&#45;&gt;Node12 -->
<g id="edge18" class="edge"><title>Node15&#45;&gt;Node12</title>
<path fill="none" stroke="midnightblue" d="M406.235,-168.324C396.234,-160.263 381.113,-148.077 369.07,-138.369"/>
<polygon fill="midnightblue" stroke="midnightblue" points="370.943,-135.384 360.961,-131.834 366.55,-140.834 370.943,-135.384"/>
</g>
<!-- Node16 -->
<g id="node16" class="node"><title>Node16</title>
<polygon fill="white" stroke="#bfbfbf" points="514.5,-112.5 514.5,-131.5 643.5,-131.5 643.5,-112.5 514.5,-112.5"/>
<text text-anchor="middle" x="579" y="-119.5" font-family="Helvetica,sans-Serif" font-size="10.00">boost/algorithm/string.hpp</text>
</g>
<!-- Node15&#45;&gt;Node16 -->
<g id="edge19" class="edge"><title>Node15&#45;&gt;Node16</title>
<path fill="none" stroke="midnightblue" d="M442.669,-168.444C469.923,-159.359 513.184,-144.939 543.651,-134.783"/>
<polygon fill="midnightblue" stroke="midnightblue" points="545.071,-137.999 553.451,-131.516 542.857,-131.358 545.071,-137.999"/>
</g>
</g>
</svg>
