<?xml version="1.0" encoding="UTF-8" standalone="no"?>
<!DOCTYPE svg PUBLIC "-//W3C//DTD SVG 1.1//EN"
 "http://www.w3.org/Graphics/SVG/1.1/DTD/svg11.dtd">
<!-- Generated by graphviz version 2.36.0 (20140111.2315)
 -->
<!-- Title: flowControllers.h Pages: 1 -->
<svg width="1063pt" height="364pt"
 viewBox="0.00 0.00 1063.00 364.00" xmlns="http://www.w3.org/2000/svg" xmlns:xlink="http://www.w3.org/1999/xlink">
<g id="graph0" class="graph" transform="scale(1 1) rotate(0) translate(4 360)">
<title>flowControllers.h</title>
<polygon fill="white" stroke="none" points="-4,4 -4,-360 1059,-360 1059,4 -4,4"/>
<!-- Node1 -->
<g id="node1" class="node"><title>Node1</title>
<polygon fill="#bfbfbf" stroke="black" points="631,-336.5 631,-355.5 717,-355.5 717,-336.5 631,-336.5"/>
<text text-anchor="middle" x="674" y="-343.5" font-family="FreeSans" font-size="10.00">flowControllers.h</text>
</g>
<!-- Node2 -->
<g id="node2" class="node"><title>Node2</title>
<g id="a_node2"><a xlink:href="FlowDevice_8h.html" target="_top" xlink:title="FlowDevice.h">
<polygon fill="white" stroke="black" points="157,-168.5 157,-187.5 231,-187.5 231,-168.5 157,-168.5"/>
<text text-anchor="middle" x="194" y="-175.5" font-family="FreeSans" font-size="10.00">FlowDevice.h</text>
</a>
</g>
</g>
<!-- Node1&#45;&gt;Node2 -->
<g id="edge1" class="edge"><title>Node1&#45;&gt;Node2</title>
<path fill="none" stroke="midnightblue" d="M649.204,-336.425C569.545,-308.876 320.02,-222.582 228.282,-190.856"/>
<polygon fill="midnightblue" stroke="midnightblue" points="229.243,-187.485 218.648,-187.524 226.955,-194.1 229.243,-187.485"/>
</g>
<!-- Node12 -->
<g id="node12" class="node"><title>Node12</title>
<g id="a_node12"><a xlink:href="ReactorBase_8h.html" target="_top" xlink:title="ReactorBase.h">
<polygon fill="white" stroke="black" points="634,-280.5 634,-299.5 714,-299.5 714,-280.5 634,-280.5"/>
<text text-anchor="middle" x="674" y="-287.5" font-family="FreeSans" font-size="10.00">ReactorBase.h</text>
</a>
</g>
</g>
<!-- Node1&#45;&gt;Node12 -->
<g id="edge14" class="edge"><title>Node1&#45;&gt;Node12</title>
<path fill="none" stroke="midnightblue" d="M674,-336.083C674,-329.006 674,-318.861 674,-309.986"/>
<polygon fill="midnightblue" stroke="midnightblue" points="677.5,-309.751 674,-299.751 670.5,-309.751 677.5,-309.751"/>
</g>
<!-- Node21 -->
<g id="node21" class="node"><title>Node21</title>
<g id="a_node21"><a xlink:href="Func1_8h.html" target="_top" xlink:title="cantera/numerics/Func1.h">
<polygon fill="white" stroke="black" points="927,-112.5 927,-131.5 1055,-131.5 1055,-112.5 927,-112.5"/>
<text text-anchor="middle" x="991" y="-119.5" font-family="FreeSans" font-size="10.00">cantera/numerics/Func1.h</text>
</a>
</g>
</g>
<!-- Node1&#45;&gt;Node21 -->
<g id="edge28" class="edge"><title>Node1&#45;&gt;Node21</title>
<path fill="none" stroke="midnightblue" d="M686.427,-336.297C734.661,-302.518 909.793,-179.871 970.282,-137.509"/>
<polygon fill="midnightblue" stroke="midnightblue" points="972.476,-140.246 978.659,-131.643 968.46,-134.512 972.476,-140.246"/>
</g>
<!-- Node3 -->
<g id="node3" class="node"><title>Node3</title>
<g id="a_node3"><a xlink:href="ct__defs_8h.html" target="_top" xlink:title="This file contains definitions of terms that are used in internal routines and are unlikely to need m...">
<polygon fill="white" stroke="black" points="368,-56.5 368,-75.5 482,-75.5 482,-56.5 368,-56.5"/>
<text text-anchor="middle" x="425" y="-63.5" font-family="FreeSans" font-size="10.00">cantera/base/ct_defs.h</text>
</a>
</g>
</g>
<!-- Node2&#45;&gt;Node3 -->
<g id="edge2" class="edge"><title>Node2&#45;&gt;Node3</title>
<path fill="none" stroke="midnightblue" d="M186.417,-168.455C175.446,-155.031 157.922,-128.803 172,-112 195.301,-84.1893 291.122,-73.5525 357.906,-69.4931"/>
<polygon fill="midnightblue" stroke="midnightblue" points="358.164,-72.9841 367.948,-68.9185 357.764,-65.9956 358.164,-72.9841"/>
</g>
<!-- Node10 -->
<g id="node10" class="node"><title>Node10</title>
<g id="a_node10"><a xlink:href="global_8h.html" target="_top" xlink:title="This file contains definitions for utility functions and text for modules, inputfiles, logs, textlogs, (see Input File Handling, Diagnostic Output, and Writing messages to the screen). ">
<polygon fill="white" stroke="black" points="181,-112.5 181,-131.5 289,-131.5 289,-112.5 181,-112.5"/>
<text text-anchor="middle" x="235" y="-119.5" font-family="FreeSans" font-size="10.00">cantera/base/global.h</text>
</a>
</g>
</g>
<!-- Node2&#45;&gt;Node10 -->
<g id="edge9" class="edge"><title>Node2&#45;&gt;Node10</title>
<path fill="none" stroke="midnightblue" d="M200.77,-168.083C206.562,-160.455 215.058,-149.264 222.138,-139.941"/>
<polygon fill="midnightblue" stroke="midnightblue" points="225.096,-141.832 228.356,-131.751 219.521,-137.599 225.096,-141.832"/>
</g>
<!-- Node11 -->
<g id="node11" class="node"><title>Node11</title>
<g id="a_node11"><a xlink:href="stringUtils_8h.html" target="_top" xlink:title="Contains declarations for string manipulation functions within Cantera. ">
<polygon fill="white" stroke="black" points="-0.5,-112.5 -0.5,-131.5 124.5,-131.5 124.5,-112.5 -0.5,-112.5"/>
<text text-anchor="middle" x="62" y="-119.5" font-family="FreeSans" font-size="10.00">cantera/base/stringUtils.h</text>
</a>
</g>
</g>
<!-- Node2&#45;&gt;Node11 -->
<g id="edge11" class="edge"><title>Node2&#45;&gt;Node11</title>
<path fill="none" stroke="midnightblue" d="M173.084,-168.444C151.264,-159.517 116.85,-145.439 92.1078,-135.317"/>
<polygon fill="midnightblue" stroke="midnightblue" points="93.3987,-132.063 82.8179,-131.516 90.7482,-138.542 93.3987,-132.063"/>
</g>
<!-- Node4 -->
<g id="node4" class="node"><title>Node4</title>
<g id="a_node4"><a xlink:href="config_8h_source.html" target="_top" xlink:title="config.h">
<polygon fill="white" stroke="black" points="400,-0.5 400,-19.5 450,-19.5 450,-0.5 400,-0.5"/>
<text text-anchor="middle" x="425" y="-7.5" font-family="FreeSans" font-size="10.00">config.h</text>
</a>
</g>
</g>
<!-- Node3&#45;&gt;Node4 -->
<g id="edge3" class="edge"><title>Node3&#45;&gt;Node4</title>
<path fill="none" stroke="midnightblue" d="M425,-56.083C425,-49.0059 425,-38.8611 425,-29.9865"/>
<polygon fill="midnightblue" stroke="midnightblue" points="428.5,-29.751 425,-19.7511 421.5,-29.7511 428.5,-29.751"/>
</g>
<!-- Node5 -->
<g id="node5" class="node"><title>Node5</title>
<polygon fill="white" stroke="#bfbfbf" points="468,-0.5 468,-19.5 512,-19.5 512,-0.5 468,-0.5"/>
<text text-anchor="middle" x="490" y="-7.5" font-family="FreeSans" font-size="10.00">cmath</text>
</g>
<!-- Node3&#45;&gt;Node5 -->
<g id="edge4" class="edge"><title>Node3&#45;&gt;Node5</title>
<path fill="none" stroke="midnightblue" d="M435.443,-56.324C445.146,-48.2631 459.815,-36.0765 471.5,-26.3695"/>
<polygon fill="midnightblue" stroke="midnightblue" points="473.911,-28.9163 479.367,-19.8339 469.438,-23.532 473.911,-28.9163"/>
</g>
<!-- Node6 -->
<g id="node6" class="node"><title>Node6</title>
<polygon fill="white" stroke="#bfbfbf" points="530,-0.5 530,-19.5 574,-19.5 574,-0.5 530,-0.5"/>
<text text-anchor="middle" x="552" y="-7.5" font-family="FreeSans" font-size="10.00">cstdlib</text>
</g>
<!-- Node3&#45;&gt;Node6 -->
<g id="edge5" class="edge"><title>Node3&#45;&gt;Node6</title>
<path fill="none" stroke="midnightblue" d="M445.124,-56.4435C466.024,-47.5566 498.935,-33.5632 522.716,-23.4514"/>
<polygon fill="midnightblue" stroke="midnightblue" points="524.138,-26.6504 531.971,-19.5164 521.398,-20.2085 524.138,-26.6504"/>
</g>
<!-- Node7 -->
<g id="node7" class="node"><title>Node7</title>
<polygon fill="white" stroke="#bfbfbf" points="285.5,-0.5 285.5,-19.5 328.5,-19.5 328.5,-0.5 285.5,-0.5"/>
<text text-anchor="middle" x="307" y="-7.5" font-family="FreeSans" font-size="10.00">vector</text>
</g>
<!-- Node3&#45;&gt;Node7 -->
<g id="edge6" class="edge"><title>Node3&#45;&gt;Node7</title>
<path fill="none" stroke="midnightblue" d="M406.303,-56.4435C387.056,-47.6356 356.848,-33.8116 334.8,-23.722"/>
<polygon fill="midnightblue" stroke="midnightblue" points="336.16,-20.4951 325.61,-19.5164 333.247,-26.8603 336.16,-20.4951"/>
</g>
<!-- Node8 -->
<g id="node8" class="node"><title>Node8</title>
<polygon fill="white" stroke="#bfbfbf" points="346.5,-0.5 346.5,-19.5 381.5,-19.5 381.5,-0.5 346.5,-0.5"/>
<text text-anchor="middle" x="364" y="-7.5" font-family="FreeSans" font-size="10.00">map</text>
</g>
<!-- Node3&#45;&gt;Node8 -->
<g id="edge7" class="edge"><title>Node3&#45;&gt;Node8</title>
<path fill="none" stroke="midnightblue" d="M415.199,-56.324C406.182,-48.3414 392.594,-36.3128 381.682,-26.6529"/>
<polygon fill="midnightblue" stroke="midnightblue" points="383.787,-23.8416 373.979,-19.8339 379.147,-29.083 383.787,-23.8416"/>
</g>
<!-- Node9 -->
<g id="node9" class="node"><title>Node9</title>
<polygon fill="white" stroke="#bfbfbf" points="181,-0.5 181,-19.5 221,-19.5 221,-0.5 181,-0.5"/>
<text text-anchor="middle" x="201" y="-7.5" font-family="FreeSans" font-size="10.00">string</text>
</g>
<!-- Node3&#45;&gt;Node9 -->
<g id="edge8" class="edge"><title>Node3&#45;&gt;Node9</title>
<path fill="none" stroke="midnightblue" d="M389.507,-56.4435C345.815,-45.9108 272.369,-28.205 231.24,-18.2899"/>
<polygon fill="midnightblue" stroke="midnightblue" points="231.816,-14.8287 221.274,-15.8876 230.176,-21.6337 231.816,-14.8287"/>
</g>
<!-- Node10&#45;&gt;Node3 -->
<g id="edge10" class="edge"><title>Node10&#45;&gt;Node3</title>
<path fill="none" stroke="midnightblue" d="M265.106,-112.444C297.626,-103.201 349.579,-88.4356 385.391,-78.2572"/>
<polygon fill="midnightblue" stroke="midnightblue" points="386.373,-81.617 395.035,-75.5164 384.459,-74.8837 386.373,-81.617"/>
</g>
<!-- Node11&#45;&gt;Node3 -->
<g id="edge12" class="edge"><title>Node11&#45;&gt;Node3</title>
<path fill="none" stroke="midnightblue" d="M119.518,-112.444C184.17,-102.826 289.026,-87.2275 357.503,-77.0409"/>
<polygon fill="midnightblue" stroke="midnightblue" points="358.375,-80.4498 367.751,-75.5164 357.344,-73.526 358.375,-80.4498"/>
</g>
<!-- Node11&#45;&gt;Node9 -->
<g id="edge13" class="edge"><title>Node11&#45;&gt;Node9</title>
<path fill="none" stroke="midnightblue" d="M72.9071,-112.368C96.5566,-93.6531 152.791,-49.1509 182.257,-25.8324"/>
<polygon fill="midnightblue" stroke="midnightblue" points="184.474,-28.5416 190.144,-19.5914 180.13,-23.0525 184.474,-28.5416"/>
</g>
<!-- Node13 -->
<g id="node13" class="node"><title>Node13</title>
<g id="a_node13"><a xlink:href="ThermoPhase_8h.html" target="_top" xlink:title="Header file for class ThermoPhase, the base class for phases with thermodynamic properties, and the text for the Module thermoprops (see Thermodynamic Properties and class ThermoPhase). ">
<polygon fill="white" stroke="black" points="598,-224.5 598,-243.5 750,-243.5 750,-224.5 598,-224.5"/>
<text text-anchor="middle" x="674" y="-231.5" font-family="FreeSans" font-size="10.00">cantera/thermo/ThermoPhase.h</text>
</a>
</g>
</g>
<!-- Node12&#45;&gt;Node13 -->
<g id="edge15" class="edge"><title>Node12&#45;&gt;Node13</title>
<path fill="none" stroke="midnightblue" d="M674,-280.083C674,-273.006 674,-262.861 674,-253.986"/>
<polygon fill="midnightblue" stroke="midnightblue" points="677.5,-253.751 674,-243.751 670.5,-253.751 677.5,-253.751"/>
</g>
<!-- Node14 -->
<g id="node14" class="node"><title>Node14</title>
<g id="a_node14"><a xlink:href="Phase_8h.html" target="_top" xlink:title="Header file for class Phase. ">
<polygon fill="white" stroke="black" points="618.5,-168.5 618.5,-187.5 669.5,-187.5 669.5,-168.5 618.5,-168.5"/>
<text text-anchor="middle" x="644" y="-175.5" font-family="FreeSans" font-size="10.00">Phase.h</text>
</a>
</g>
</g>
<!-- Node13&#45;&gt;Node14 -->
<g id="edge16" class="edge"><title>Node13&#45;&gt;Node14</title>
<path fill="none" stroke="midnightblue" d="M669.046,-224.083C664.896,-216.613 658.847,-205.724 653.733,-196.52"/>
<polygon fill="midnightblue" stroke="midnightblue" points="656.778,-194.793 648.862,-187.751 650.659,-198.192 656.778,-194.793"/>
</g>
<!-- Node20 -->
<g id="node20" class="node"><title>Node20</title>
<g id="a_node20"><a xlink:href="SpeciesThermo_8h.html" target="_top" xlink:title="Virtual base class for the calculation of multiple&#45;species thermodynamic reference&#45;state property man...">
<polygon fill="white" stroke="black" points="770,-168.5 770,-187.5 862,-187.5 862,-168.5 770,-168.5"/>
<text text-anchor="middle" x="816" y="-175.5" font-family="FreeSans" font-size="10.00">SpeciesThermo.h</text>
</a>
</g>
</g>
<!-- Node13&#45;&gt;Node20 -->
<g id="edge26" class="edge"><title>Node13&#45;&gt;Node20</title>
<path fill="none" stroke="midnightblue" d="M696.5,-224.444C720.077,-215.478 757.322,-201.314 783.964,-191.183"/>
<polygon fill="midnightblue" stroke="midnightblue" points="785.502,-194.342 793.605,-187.516 783.014,-187.8 785.502,-194.342"/>
</g>
<!-- Node15 -->
<g id="node15" class="node"><title>Node15</title>
<g id="a_node15"><a xlink:href="vec__functions_8h.html" target="_top" xlink:title="Templates for operations on vector&#45;like objects. ">
<polygon fill="white" stroke="red" points="729,-112.5 729,-131.5 871,-131.5 871,-112.5 729,-112.5"/>
<text text-anchor="middle" x="800" y="-119.5" font-family="FreeSans" font-size="10.00">cantera/base/vec_functions.h</text>
</a>
</g>
</g>
<!-- Node14&#45;&gt;Node15 -->
<g id="edge17" class="edge"><title>Node14&#45;&gt;Node15</title>
<path fill="none" stroke="midnightblue" d="M668.719,-168.444C694.848,-159.399 736.259,-145.064 765.576,-134.916"/>
<polygon fill="midnightblue" stroke="midnightblue" points="767.092,-138.095 775.397,-131.516 764.802,-131.48 767.092,-138.095"/>
</g>
<!-- Node17 -->
<g id="node17" class="node"><title>Node17</title>
<g id="a_node17"><a xlink:href="ctml_8h.html" target="_top" xlink:title="CTML (&quot;Cantera Markup Language&quot;) is the variant of XML that Cantera uses to store data...">
<polygon fill="white" stroke="red" points="307.5,-112.5 307.5,-131.5 408.5,-131.5 408.5,-112.5 307.5,-112.5"/>
<text text-anchor="middle" x="358" y="-119.5" font-family="FreeSans" font-size="10.00">cantera/base/ctml.h</text>
</a>
</g>
</g>
<!-- Node14&#45;&gt;Node17 -->
<g id="edge20" class="edge"><title>Node14&#45;&gt;Node17</title>
<path fill="none" stroke="midnightblue" d="M618.368,-172.16C572.391,-163.479 474.953,-145.082 413.185,-133.419"/>
<polygon fill="midnightblue" stroke="midnightblue" points="413.691,-129.953 403.215,-131.537 412.392,-136.832 413.691,-129.953"/>
</g>
<!-- Node18 -->
<g id="node18" class="node"><title>Node18</title>
<g id="a_node18"><a xlink:href="Elements_8h.html" target="_top" xlink:title="Contains the LookupWtElements function and the definitions of element constraint types. ">
<polygon fill="white" stroke="black" points="427,-112.5 427,-131.5 559,-131.5 559,-112.5 427,-112.5"/>
<text text-anchor="middle" x="493" y="-119.5" font-family="FreeSans" font-size="10.00">cantera/thermo/Elements.h</text>
</a>
</g>
</g>
<!-- Node14&#45;&gt;Node18 -->
<g id="edge22" class="edge"><title>Node14&#45;&gt;Node18</title>
<path fill="none" stroke="midnightblue" d="M620.074,-168.444C594.781,-159.399 554.698,-145.064 526.32,-134.916"/>
<polygon fill="midnightblue" stroke="midnightblue" points="527.409,-131.588 516.814,-131.516 525.052,-138.179 527.409,-131.588"/>
</g>
<!-- Node19 -->
<g id="node19" class="node"><title>Node19</title>
<g id="a_node19"><a xlink:href="ValueCache_8h.html" target="_top" xlink:title="cantera/base/ValueCache.h">
<polygon fill="white" stroke="red" points="577,-112.5 577,-131.5 711,-131.5 711,-112.5 577,-112.5"/>
<text text-anchor="middle" x="644" y="-119.5" font-family="FreeSans" font-size="10.00">cantera/base/ValueCache.h</text>
</a>
</g>
</g>
<!-- Node14&#45;&gt;Node19 -->
<g id="edge24" class="edge"><title>Node14&#45;&gt;Node19</title>
<path fill="none" stroke="midnightblue" d="M644,-168.083C644,-161.006 644,-150.861 644,-141.986"/>
<polygon fill="midnightblue" stroke="midnightblue" points="647.5,-141.751 644,-131.751 640.5,-141.751 647.5,-141.751"/>
</g>
<!-- Node15&#45;&gt;Node3 -->
<g id="edge18" class="edge"><title>Node15&#45;&gt;Node3</title>
<path fill="none" stroke="midnightblue" d="M740.58,-112.444C673.063,-102.721 563.104,-86.8869 492.43,-76.7099"/>
<polygon fill="midnightblue" stroke="midnightblue" points="492.694,-73.2119 482.297,-75.2508 491.696,-80.1404 492.694,-73.2119"/>
</g>
<!-- Node16 -->
<g id="node16" class="node"><title>Node16</title>
<polygon fill="white" stroke="#bfbfbf" points="868.5,-56.5 868.5,-75.5 921.5,-75.5 921.5,-56.5 868.5,-56.5"/>
<text text-anchor="middle" x="895" y="-63.5" font-family="FreeSans" font-size="10.00">iostream</text>
</g>
<!-- Node15&#45;&gt;Node16 -->
<g id="edge19" class="edge"><title>Node15&#45;&gt;Node16</title>
<path fill="none" stroke="midnightblue" d="M815.263,-112.324C830.221,-103.822 853.255,-90.7288 870.727,-80.7975"/>
<polygon fill="midnightblue" stroke="midnightblue" points="872.81,-83.639 879.774,-75.6545 869.351,-77.5534 872.81,-83.639"/>
</g>
<!-- Node17&#45;&gt;Node3 -->
<g id="edge21" class="edge"><title>Node17&#45;&gt;Node3</title>
<path fill="none" stroke="midnightblue" d="M368.765,-112.324C378.766,-104.263 393.887,-92.0765 405.93,-82.3695"/>
<polygon fill="midnightblue" stroke="midnightblue" points="408.45,-84.8343 414.039,-75.8339 404.057,-79.3841 408.45,-84.8343"/>
</g>
<!-- Node18&#45;&gt;Node3 -->
<g id="edge23" class="edge"><title>Node18&#45;&gt;Node3</title>
<path fill="none" stroke="midnightblue" d="M482.075,-112.324C471.825,-104.185 456.279,-91.8395 443.999,-82.0874"/>
<polygon fill="midnightblue" stroke="midnightblue" points="446.132,-79.3119 436.124,-75.8339 441.779,-84.7937 446.132,-79.3119"/>
</g>
<!-- Node19&#45;&gt;Node3 -->
<g id="edge25" class="edge"><title>Node19&#45;&gt;Node3</title>
<path fill="none" stroke="midnightblue" d="M609.299,-112.444C571.415,-103.102 510.651,-88.1194 469.338,-77.9326"/>
<polygon fill="midnightblue" stroke="midnightblue" points="470.086,-74.5123 459.539,-75.5164 468.41,-81.3088 470.086,-74.5123"/>
</g>
<!-- Node20&#45;&gt;Node3 -->
<g id="edge27" class="edge"><title>Node20&#45;&gt;Node3</title>
<path fill="none" stroke="midnightblue" d="M835.475,-168.393C860.592,-156.155 898.927,-132.891 880,-112 854.495,-83.8485 612.736,-72.6369 492.386,-68.7718"/>
<polygon fill="midnightblue" stroke="midnightblue" points="492.285,-65.267 482.181,-68.4523 492.066,-72.2636 492.285,-65.267"/>
</g>
<!-- Node21&#45;&gt;Node3 -->
<g id="edge29" class="edge"><title>Node21&#45;&gt;Node3</title>
<path fill="none" stroke="midnightblue" d="M926.74,-113.467C922.091,-112.959 917.474,-112.464 913,-112 762.912,-96.4232 586.568,-80.8315 492.38,-72.7215"/>
<polygon fill="midnightblue" stroke="midnightblue" points="492.403,-69.2107 482.14,-71.8414 491.803,-76.185 492.403,-69.2107"/>
</g>
<!-- Node21&#45;&gt;Node16 -->
<g id="edge30" class="edge"><title>Node21&#45;&gt;Node16</title>
<path fill="none" stroke="midnightblue" d="M975.576,-112.324C960.46,-103.822 937.185,-90.7288 919.529,-80.7975"/>
<polygon fill="midnightblue" stroke="midnightblue" points="920.817,-77.5066 910.386,-75.6545 917.386,-83.6077 920.817,-77.5066"/>
</g>
</g>
</svg>
