<?xml version="1.0" encoding="UTF-8" standalone="no"?>
<!DOCTYPE svg PUBLIC "-//W3C//DTD SVG 1.1//EN"
 "http://www.w3.org/Graphics/SVG/1.1/DTD/svg11.dtd">
<!-- Generated by graphviz version 2.40.1 (20161225.0304)
 -->
<!-- Title: Func1.h Pages: 1 -->
<svg width="1003pt" height="140pt"
 viewBox="0.00 0.00 1003.00 140.00" xmlns="http://www.w3.org/2000/svg" xmlns:xlink="http://www.w3.org/1999/xlink">
<g id="graph0" class="graph" transform="scale(1 1) rotate(0) translate(4 136)">
<title>Func1.h</title>
<polygon fill="#ffffff" stroke="transparent" points="-4,4 -4,-136 999,-136 999,4 -4,4"/>
<!-- Node11 -->
<g id="node1" class="node">
<title>Node11</title>
<polygon fill="#bfbfbf" stroke="#000000" points="322,-112.5 322,-131.5 375,-131.5 375,-112.5 322,-112.5"/>
<text text-anchor="middle" x="348.5" y="-119.5" font-family="Helvetica,sans-Serif" font-size="10.00" fill="#000000">Func1.h</text>
</g>
<!-- Node12 -->
<g id="node2" class="node">
<title>Node12</title>
<g id="a_node2"><a xlink:href="Func1_8cpp.html" target="_top" xlink:title="Func1.cpp">
<polygon fill="#ffffff" stroke="#000000" points="0,-56.5 0,-75.5 65,-75.5 65,-56.5 0,-56.5"/>
<text text-anchor="middle" x="32.5" y="-63.5" font-family="Helvetica,sans-Serif" font-size="10.00" fill="#000000">Func1.cpp</text>
</a>
</g>
</g>
<!-- Node11&#45;&gt;Node12 -->
<g id="edge1" class="edge">
<title>Node11&#45;&gt;Node12</title>
<path fill="none" stroke="#191970" d="M311.9208,-116.7562C259.0786,-108.9829 158.4068,-93.4312 73.5,-76 70.7727,-75.4401 67.9517,-74.8261 65.1249,-74.1863"/>
<polygon fill="#191970" stroke="#191970" points="311.4315,-120.2217 321.8327,-118.2053 312.4442,-113.2954 311.4315,-120.2217"/>
</g>
<!-- Node13 -->
<g id="node3" class="node">
<title>Node13</title>
<g id="a_node3"><a xlink:href="OneDim_8cpp.html" target="_top" xlink:title="OneDim.cpp">
<polygon fill="#ffffff" stroke="#000000" points="83,-56.5 83,-75.5 160,-75.5 160,-56.5 83,-56.5"/>
<text text-anchor="middle" x="121.5" y="-63.5" font-family="Helvetica,sans-Serif" font-size="10.00" fill="#000000">OneDim.cpp</text>
</a>
</g>
</g>
<!-- Node11&#45;&gt;Node13 -->
<g id="edge2" class="edge">
<title>Node11&#45;&gt;Node13</title>
<path fill="none" stroke="#191970" d="M311.8297,-112.9536C270.1983,-102.6833 202.5738,-86.0006 160.1421,-75.5328"/>
<polygon fill="#191970" stroke="#191970" points="311.0214,-116.3591 321.5687,-115.3562 312.6981,-109.5628 311.0214,-116.3591"/>
</g>
<!-- Node14 -->
<g id="node4" class="node">
<title>Node14</title>
<g id="a_node4"><a xlink:href="Sim1D_8cpp.html" target="_top" xlink:title="Sim1D.cpp">
<polygon fill="#ffffff" stroke="#000000" points="178,-56.5 178,-75.5 247,-75.5 247,-56.5 178,-56.5"/>
<text text-anchor="middle" x="212.5" y="-63.5" font-family="Helvetica,sans-Serif" font-size="10.00" fill="#000000">Sim1D.cpp</text>
</a>
</g>
</g>
<!-- Node11&#45;&gt;Node14 -->
<g id="edge3" class="edge">
<title>Node11&#45;&gt;Node14</title>
<path fill="none" stroke="#191970" d="M315.7601,-108.5189C290.9917,-98.3201 257.595,-84.5685 235.5742,-75.5011"/>
<polygon fill="#191970" stroke="#191970" points="314.5413,-111.8021 325.1208,-112.3733 317.2066,-105.3293 314.5413,-111.8021"/>
</g>
<!-- Node15 -->
<g id="node5" class="node">
<title>Node15</title>
<g id="a_node5"><a xlink:href="FlowDevice_8cpp.html" target="_top" xlink:title="FlowDevice.cpp">
<polygon fill="#ffffff" stroke="#000000" points="265,-56.5 265,-75.5 358,-75.5 358,-56.5 265,-56.5"/>
<text text-anchor="middle" x="311.5" y="-63.5" font-family="Helvetica,sans-Serif" font-size="10.00" fill="#000000">FlowDevice.cpp</text>
</a>
</g>
</g>
<!-- Node11&#45;&gt;Node15 -->
<g id="edge4" class="edge">
<title>Node11&#45;&gt;Node15</title>
<path fill="none" stroke="#191970" d="M336.3624,-103.6296C330.1907,-94.2887 322.9434,-83.3197 317.8711,-75.6427"/>
<polygon fill="#191970" stroke="#191970" points="333.6223,-105.8316 342.0551,-112.2455 339.4627,-101.9728 333.6223,-105.8316"/>
</g>
<!-- Node16 -->
<g id="node6" class="node">
<title>Node16</title>
<g id="a_node6"><a xlink:href="Wall_8cpp.html" target="_top" xlink:title="Wall.cpp">
<polygon fill="#ffffff" stroke="#000000" points="357.5,-.5 357.5,-19.5 415.5,-19.5 415.5,-.5 357.5,-.5"/>
<text text-anchor="middle" x="386.5" y="-7.5" font-family="Helvetica,sans-Serif" font-size="10.00" fill="#000000">Wall.cpp</text>
</a>
</g>
</g>
<!-- Node11&#45;&gt;Node16 -->
<g id="edge5" class="edge">
<title>Node11&#45;&gt;Node16</title>
<path fill="none" stroke="#191970" d="M356.3997,-102.8076C359.6746,-94.6043 363.4198,-84.8879 366.5,-76 373.3219,-56.3158 380.1098,-32.8994 383.7583,-19.918"/>
<polygon fill="#191970" stroke="#191970" points="353.1004,-101.6304 352.5886,-112.2129 359.588,-104.2593 353.1004,-101.6304"/>
</g>
<!-- Node17 -->
<g id="node7" class="node">
<title>Node17</title>
<g id="a_node7"><a xlink:href="funcWrapper_8h_source.html" target="_top" xlink:title="funcWrapper.h">
<polygon fill="#ffffff" stroke="#000000" points="414.5,-56.5 414.5,-75.5 500.5,-75.5 500.5,-56.5 414.5,-56.5"/>
<text text-anchor="middle" x="457.5" y="-63.5" font-family="Helvetica,sans-Serif" font-size="10.00" fill="#000000">funcWrapper.h</text>
</a>
</g>
</g>
<!-- Node11&#45;&gt;Node17 -->
<g id="edge6" class="edge">
<title>Node11&#45;&gt;Node17</title>
<path fill="none" stroke="#191970" d="M376.5342,-107.5971C396.0746,-97.558 421.6092,-84.4393 438.7312,-75.6427"/>
<polygon fill="#191970" stroke="#191970" points="374.7817,-104.5625 367.4864,-112.2455 377.9806,-110.7889 374.7817,-104.5625"/>
</g>
<!-- Node18 -->
<g id="node8" class="node">
<title>Node18</title>
<g id="a_node8"><a xlink:href="flowControllers_8h.html" target="_top" xlink:title="Some flow devices derived from class FlowDevice. ">
<polygon fill="#ffffff" stroke="#000000" points="519,-56.5 519,-75.5 618,-75.5 618,-56.5 519,-56.5"/>
<text text-anchor="middle" x="568.5" y="-63.5" font-family="Helvetica,sans-Serif" font-size="10.00" fill="#000000">flowControllers.h</text>
</a>
</g>
</g>
<!-- Node11&#45;&gt;Node18 -->
<g id="edge7" class="edge">
<title>Node11&#45;&gt;Node18</title>
<path fill="none" stroke="#191970" d="M384.7318,-112.7774C425.0595,-102.5121 489.9232,-86.0014 530.8252,-75.5899"/>
<polygon fill="#191970" stroke="#191970" points="383.8647,-109.3864 375.0371,-115.2451 385.5915,-116.1701 383.8647,-109.3864"/>
</g>
<!-- Node19 -->
<g id="node9" class="node">
<title>Node19</title>
<g id="a_node9"><a xlink:href="Wall_8h.html" target="_top" xlink:title="Header file for class Wall. ">
<polygon fill="#ffffff" stroke="#000000" points="636,-56.5 636,-75.5 683,-75.5 683,-56.5 636,-56.5"/>
<text text-anchor="middle" x="659.5" y="-63.5" font-family="Helvetica,sans-Serif" font-size="10.00" fill="#000000">Wall.h</text>
</a>
</g>
</g>
<!-- Node11&#45;&gt;Node19 -->
<g id="edge8" class="edge">
<title>Node11&#45;&gt;Node19</title>
<path fill="none" stroke="#191970" d="M385.3565,-117.5894C439.056,-110.7882 541.75,-96.3624 627.5,-76 630.2183,-75.3545 633.0422,-74.5995 635.8365,-73.7988"/>
<polygon fill="#191970" stroke="#191970" points="384.7781,-114.1344 375.2894,-118.8475 385.6462,-121.0804 384.7781,-114.1344"/>
</g>
<!-- Node19&#45;&gt;Node16 -->
<g id="edge13" class="edge">
<title>Node19&#45;&gt;Node16</title>
<path fill="none" stroke="#191970" d="M626.0964,-55.8793C536.7291,-34.6294 510.9336,-39.0035 424.5,-20 421.7017,-19.3848 418.7987,-18.7022 415.9008,-17.991"/>
<polygon fill="#191970" stroke="#191970" points="625.2861,-59.2841 635.8287,-58.2338 626.9321,-52.4804 625.2861,-59.2841"/>
</g>
<!-- Node20 -->
<g id="node10" class="node">
<title>Node20</title>
<g id="a_node10"><a xlink:href="ConstPressureReactor_8cpp.html" target="_top" xlink:title="A constant pressure zero&#45;dimensional reactor. ">
<polygon fill="#ffffff" stroke="#000000" points="434,-.5 434,-19.5 577,-19.5 577,-.5 434,-.5"/>
<text text-anchor="middle" x="505.5" y="-7.5" font-family="Helvetica,sans-Serif" font-size="10.00" fill="#000000">ConstPressureReactor.cpp</text>
</a>
</g>
</g>
<!-- Node19&#45;&gt;Node20 -->
<g id="edge9" class="edge">
<title>Node19&#45;&gt;Node20</title>
<path fill="none" stroke="#191970" d="M626.3082,-53.9303C598.0319,-43.648 557.944,-29.0706 531.8334,-19.5758"/>
<polygon fill="#191970" stroke="#191970" points="625.1809,-57.2445 635.775,-57.3727 627.5732,-50.666 625.1809,-57.2445"/>
</g>
<!-- Node21 -->
<g id="node11" class="node">
<title>Node21</title>
<g id="a_node11"><a xlink:href="IdealGasReactor_8cpp.html" target="_top" xlink:title="A zero&#45;dimensional reactor. ">
<polygon fill="#ffffff" stroke="#000000" points="595.5,-.5 595.5,-19.5 711.5,-19.5 711.5,-.5 595.5,-.5"/>
<text text-anchor="middle" x="653.5" y="-7.5" font-family="Helvetica,sans-Serif" font-size="10.00" fill="#000000">IdealGasReactor.cpp</text>
</a>
</g>
</g>
<!-- Node19&#45;&gt;Node21 -->
<g id="edge10" class="edge">
<title>Node19&#45;&gt;Node21</title>
<path fill="none" stroke="#191970" d="M657.374,-46.1575C656.4095,-37.155 655.3128,-26.9199 654.5331,-19.6427"/>
<polygon fill="#191970" stroke="#191970" points="653.9094,-46.6753 658.4549,-56.2455 660.8695,-45.9296 653.9094,-46.6753"/>
</g>
<!-- Node22 -->
<g id="node12" class="node">
<title>Node22</title>
<g id="a_node12"><a xlink:href="Reactor_8cpp.html" target="_top" xlink:title="A zero&#45;dimensional reactor. ">
<polygon fill="#ffffff" stroke="#000000" points="730,-.5 730,-19.5 803,-19.5 803,-.5 730,-.5"/>
<text text-anchor="middle" x="766.5" y="-7.5" font-family="Helvetica,sans-Serif" font-size="10.00" fill="#000000">Reactor.cpp</text>
</a>
</g>
</g>
<!-- Node19&#45;&gt;Node22 -->
<g id="edge11" class="edge">
<title>Node19&#45;&gt;Node22</title>
<path fill="none" stroke="#191970" d="M687.0199,-51.5971C706.2017,-41.558 731.2678,-28.4393 748.0756,-19.6427"/>
<polygon fill="#191970" stroke="#191970" points="685.375,-48.5075 678.138,-56.2455 688.6209,-54.7095 685.375,-48.5075"/>
</g>
<!-- Node23 -->
<g id="node13" class="node">
<title>Node23</title>
<g id="a_node13"><a xlink:href="ReactorNet_8cpp.html" target="_top" xlink:title="ReactorNet.cpp">
<polygon fill="#ffffff" stroke="#000000" points="821,-.5 821,-19.5 912,-19.5 912,-.5 821,-.5"/>
<text text-anchor="middle" x="866.5" y="-7.5" font-family="Helvetica,sans-Serif" font-size="10.00" fill="#000000">ReactorNet.cpp</text>
</a>
</g>
</g>
<!-- Node19&#45;&gt;Node23 -->
<g id="edge12" class="edge">
<title>Node19&#45;&gt;Node23</title>
<path fill="none" stroke="#191970" d="M693.3071,-56.8541C731.3186,-46.5708 792.7542,-29.9505 831.3193,-19.5175"/>
<polygon fill="#191970" stroke="#191970" points="691.9845,-53.586 683.2455,-59.5761 693.8126,-60.3431 691.9845,-53.586"/>
</g>
<!-- Node24 -->
<g id="node14" class="node">
<title>Node24</title>
<g id="a_node14"><a xlink:href="zerodim_8h_source.html" target="_top" xlink:title="zerodim.h">
<polygon fill="#ffffff" stroke="#000000" points="930,-.5 930,-19.5 995,-19.5 995,-.5 930,-.5"/>
<text text-anchor="middle" x="962.5" y="-7.5" font-family="Helvetica,sans-Serif" font-size="10.00" fill="#000000">zerodim.h</text>
</a>
</g>
</g>
<!-- Node19&#45;&gt;Node24 -->
<g id="edge14" class="edge">
<title>Node19&#45;&gt;Node24</title>
<path fill="none" stroke="#191970" d="M693.0099,-60.8367C742.9657,-52.9767 839.845,-37.107 921.5,-20 924.225,-19.4291 927.0444,-18.8074 929.8701,-18.1624"/>
<polygon fill="#191970" stroke="#191970" points="692.423,-57.3858 683.0844,-62.3899 693.5053,-64.3016 692.423,-57.3858"/>
</g>
</g>
</svg>
