<?xml version="1.0" encoding="UTF-8" standalone="no"?>
<!DOCTYPE svg PUBLIC "-//W3C//DTD SVG 1.1//EN"
 "http://www.w3.org/Graphics/SVG/1.1/DTD/svg11.dtd">
<!-- Generated by graphviz version 2.28.0 (20120425.2022)
 -->
<!-- Title: Func1.h Pages: 1 -->
<svg width="820pt" height="140pt"
 viewBox="0.00 0.00 820.00 140.00" xmlns="http://www.w3.org/2000/svg" xmlns:xlink="http://www.w3.org/1999/xlink">
<g id="graph1" class="graph" transform="scale(1 1) rotate(0) translate(4 136)">
<title>Func1.h</title>
<polygon fill="white" stroke="white" points="-4,5 -4,-136 817,-136 817,5 -4,5"/>
<!-- Node1 -->
<g id="node1" class="node"><title>Node1</title>
<polygon fill="#bfbfbf" stroke="black" points="223,-112.5 223,-131.5 273,-131.5 273,-112.5 223,-112.5"/>
<text text-anchor="middle" x="248" y="-119.5" font-family="FreeSans" font-size="10.00">Func1.h</text>
</g>
<!-- Node2 -->
<g id="node3" class="node"><title>Node2</title>
<a xlink:href="Func1_8cpp.html" target="_top" xlink:title="Func1.cpp">
<polygon fill="white" stroke="black" points="-0.5,-56.5 -0.5,-75.5 60.5,-75.5 60.5,-56.5 -0.5,-56.5"/>
<text text-anchor="middle" x="30" y="-63.5" font-family="FreeSans" font-size="10.00">Func1.cpp</text>
</a>
</g>
<!-- Node1&#45;&gt;Node2 -->
<g id="edge2" class="edge"><title>Node1&#45;&gt;Node2</title>
<path fill="none" stroke="midnightblue" d="M213.179,-112.375C171.053,-101.94 100.802,-84.5382 60.6457,-74.5911"/>
<polygon fill="midnightblue" stroke="midnightblue" points="212.444,-115.798 222.993,-114.806 214.128,-109.004 212.444,-115.798"/>
</g>
<!-- Node3 -->
<g id="node5" class="node"><title>Node3</title>
<a xlink:href="OneDim_8cpp.html" target="_top" xlink:title="OneDim.cpp">
<polygon fill="white" stroke="black" points="78.5,-56.5 78.5,-75.5 149.5,-75.5 149.5,-56.5 78.5,-56.5"/>
<text text-anchor="middle" x="114" y="-63.5" font-family="FreeSans" font-size="10.00">OneDim.cpp</text>
</a>
</g>
<!-- Node1&#45;&gt;Node3 -->
<g id="edge4" class="edge"><title>Node1&#45;&gt;Node3</title>
<path fill="none" stroke="midnightblue" d="M217.323,-108.638C192.177,-98.504 157.246,-84.4274 135.133,-75.5164"/>
<polygon fill="midnightblue" stroke="midnightblue" points="216.184,-111.952 226.767,-112.444 218.8,-105.459 216.184,-111.952"/>
</g>
<!-- Node4 -->
<g id="node7" class="node"><title>Node4</title>
<a xlink:href="FlowDevice_8cpp.html" target="_top" xlink:title="FlowDevice.cpp">
<polygon fill="white" stroke="black" points="167.5,-56.5 167.5,-75.5 256.5,-75.5 256.5,-56.5 167.5,-56.5"/>
<text text-anchor="middle" x="212" y="-63.5" font-family="FreeSans" font-size="10.00">FlowDevice.cpp</text>
</a>
</g>
<!-- Node1&#45;&gt;Node4 -->
<g id="edge6" class="edge"><title>Node1&#45;&gt;Node4</title>
<path fill="none" stroke="midnightblue" d="M236.377,-103.566C230.183,-94.2747 222.832,-83.2484 217.834,-75.7511"/>
<polygon fill="midnightblue" stroke="midnightblue" points="233.596,-105.704 242.055,-112.083 239.42,-101.821 233.596,-105.704"/>
</g>
<!-- Node5 -->
<g id="node9" class="node"><title>Node5</title>
<a xlink:href="Wall_8cpp.html" target="_top" xlink:title="Wall.cpp">
<polygon fill="white" stroke="black" points="220,-0.5 220,-19.5 274,-19.5 274,-0.5 220,-0.5"/>
<text text-anchor="middle" x="247" y="-7.5" font-family="FreeSans" font-size="10.00">Wall.cpp</text>
</a>
</g>
<!-- Node1&#45;&gt;Node5 -->
<g id="edge8" class="edge"><title>Node1&#45;&gt;Node5</title>
<path fill="none" stroke="midnightblue" d="M257.157,-103.06C262.68,-90.0879 268.098,-72.0873 265,-56 262.454,-42.78 256.059,-28.5069 251.621,-19.6611"/>
<polygon fill="midnightblue" stroke="midnightblue" points="253.924,-101.711 252.866,-112.252 260.267,-104.671 253.924,-101.711"/>
</g>
<!-- Node6 -->
<g id="node11" class="node"><title>Node6</title>
<a xlink:href="flowControllers_8h.html" target="_top" xlink:title="Some flow devices derived from class FlowDevice. ">
<polygon fill="white" stroke="black" points="313.5,-56.5 313.5,-75.5 404.5,-75.5 404.5,-56.5 313.5,-56.5"/>
<text text-anchor="middle" x="359" y="-63.5" font-family="FreeSans" font-size="10.00">flowControllers.h</text>
</a>
</g>
<!-- Node1&#45;&gt;Node6 -->
<g id="edge10" class="edge"><title>Node1&#45;&gt;Node6</title>
<path fill="none" stroke="midnightblue" d="M275.005,-107.862C295.588,-97.8492 323.345,-84.3458 341.21,-75.6545"/>
<polygon fill="midnightblue" stroke="midnightblue" points="273.295,-104.802 265.834,-112.324 276.358,-111.097 273.295,-104.802"/>
</g>
<!-- Node7 -->
<g id="node13" class="node"><title>Node7</title>
<a xlink:href="Wall_8h.html" target="_top" xlink:title="Header file for class Wall. ">
<polygon fill="white" stroke="black" points="461,-56.5 461,-75.5 505,-75.5 505,-56.5 461,-56.5"/>
<text text-anchor="middle" x="483" y="-63.5" font-family="FreeSans" font-size="10.00">Wall.h</text>
</a>
</g>
<!-- Node1&#45;&gt;Node7 -->
<g id="edge12" class="edge"><title>Node1&#45;&gt;Node7</title>
<path fill="none" stroke="midnightblue" d="M282.998,-112.958C332.051,-101.686 419.829,-81.5159 460.799,-72.1015"/>
<polygon fill="midnightblue" stroke="midnightblue" points="282.111,-109.57 273.149,-115.221 283.679,-116.393 282.111,-109.57"/>
</g>
<!-- Node7&#45;&gt;Node5 -->
<g id="edge22" class="edge"><title>Node7&#45;&gt;Node5</title>
<path fill="none" stroke="midnightblue" d="M451.077,-57.9486C411.741,-49.221 342.879,-33.8172 284,-20 280.782,-19.2448 277.41,-18.4413 274.066,-17.6372"/>
<polygon fill="midnightblue" stroke="midnightblue" points="450.367,-61.376 460.887,-60.1225 451.881,-54.5418 450.367,-61.376"/>
</g>
<!-- Node8 -->
<g id="node15" class="node"><title>Node8</title>
<a xlink:href="ConstPressureReactor_8cpp.html" target="_top" xlink:title="A constant pressure zero&#45;dimensional reactor. ">
<polygon fill="white" stroke="black" points="292.5,-0.5 292.5,-19.5 429.5,-19.5 429.5,-0.5 292.5,-0.5"/>
<text text-anchor="middle" x="361" y="-7.5" font-family="FreeSans" font-size="10.00">ConstPressureReactor.cpp</text>
</a>
</g>
<!-- Node7&#45;&gt;Node8 -->
<g id="edge14" class="edge"><title>Node7&#45;&gt;Node8</title>
<path fill="none" stroke="midnightblue" d="M454.461,-52.3678C431.614,-42.2553 400.195,-28.3486 380.241,-19.5164"/>
<polygon fill="midnightblue" stroke="midnightblue" points="453.108,-55.5965 463.669,-56.4435 455.941,-49.1955 453.108,-55.5965"/>
</g>
<!-- Node9 -->
<g id="node17" class="node"><title>Node9</title>
<a xlink:href="Reactor_8cpp.html" target="_top" xlink:title="A zero&#45;dimensional reactor. ">
<polygon fill="white" stroke="black" points="448,-0.5 448,-19.5 518,-19.5 518,-0.5 448,-0.5"/>
<text text-anchor="middle" x="483" y="-7.5" font-family="FreeSans" font-size="10.00">Reactor.cpp</text>
</a>
</g>
<!-- Node7&#45;&gt;Node9 -->
<g id="edge16" class="edge"><title>Node7&#45;&gt;Node9</title>
<path fill="none" stroke="midnightblue" d="M483,-45.8045C483,-36.9102 483,-26.7798 483,-19.7511"/>
<polygon fill="midnightblue" stroke="midnightblue" points="479.5,-46.083 483,-56.083 486.5,-46.083 479.5,-46.083"/>
</g>
<!-- Node10 -->
<g id="node19" class="node"><title>Node10</title>
<a xlink:href="ReactorBase_8cpp.html" target="_top" xlink:title="ReactorBase.cpp">
<polygon fill="white" stroke="black" points="536,-0.5 536,-19.5 630,-19.5 630,-0.5 536,-0.5"/>
<text text-anchor="middle" x="583" y="-7.5" font-family="FreeSans" font-size="10.00">ReactorBase.cpp</text>
</a>
</g>
<!-- Node7&#45;&gt;Node10 -->
<g id="edge18" class="edge"><title>Node7&#45;&gt;Node10</title>
<path fill="none" stroke="midnightblue" d="M508.088,-51.4526C526.549,-41.4835 551.097,-28.2279 566.973,-19.6545"/>
<polygon fill="midnightblue" stroke="midnightblue" points="506.203,-48.4928 499.067,-56.324 509.529,-54.6521 506.203,-48.4928"/>
</g>
<!-- Node11 -->
<g id="node21" class="node"><title>Node11</title>
<a xlink:href="ReactorNet_8cpp.html" target="_top" xlink:title="ReactorNet.cpp">
<polygon fill="white" stroke="black" points="648.5,-0.5 648.5,-19.5 733.5,-19.5 733.5,-0.5 648.5,-0.5"/>
<text text-anchor="middle" x="691" y="-7.5" font-family="FreeSans" font-size="10.00">ReactorNet.cpp</text>
</a>
</g>
<!-- Node7&#45;&gt;Node11 -->
<g id="edge20" class="edge"><title>Node7&#45;&gt;Node11</title>
<path fill="none" stroke="midnightblue" d="M514.989,-56.6951C553.765,-46.6284 618.773,-29.7512 657.999,-19.5676"/>
<polygon fill="midnightblue" stroke="midnightblue" points="514.059,-53.3204 505.26,-59.2211 515.818,-60.0958 514.059,-53.3204"/>
</g>
<!-- Node12 -->
<g id="node24" class="node"><title>Node12</title>
<a xlink:href="zerodim_8h_source.html" target="_top" xlink:title="zerodim.h">
<polygon fill="white" stroke="black" points="751.5,-0.5 751.5,-19.5 812.5,-19.5 812.5,-0.5 751.5,-0.5"/>
<text text-anchor="middle" x="782" y="-7.5" font-family="FreeSans" font-size="10.00">zerodim.h</text>
</a>
</g>
<!-- Node7&#45;&gt;Node12 -->
<g id="edge24" class="edge"><title>Node7&#45;&gt;Node12</title>
<path fill="none" stroke="midnightblue" d="M515.26,-59.9195C564.348,-52.0703 660.686,-36.2015 742,-20 745.072,-19.388 748.269,-18.7205 751.458,-18.0347"/>
<polygon fill="midnightblue" stroke="midnightblue" points="514.567,-56.4856 505.242,-61.5148 515.668,-63.3985 514.567,-56.4856"/>
</g>
</g>
</svg>
