<?xml version="1.0" encoding="UTF-8" standalone="no"?>
<!DOCTYPE svg PUBLIC "-//W3C//DTD SVG 1.1//EN"
 "http://www.w3.org/Graphics/SVG/1.1/DTD/svg11.dtd">
<!-- Generated by graphviz version 2.28.0 (20120425.2022)
 -->
<!-- Title: FuncEval.h Pages: 1 -->
<svg width="1014pt" height="252pt"
 viewBox="0.00 0.00 1014.00 252.00" xmlns="http://www.w3.org/2000/svg" xmlns:xlink="http://www.w3.org/1999/xlink">
<g id="graph1" class="graph" transform="scale(1 1) rotate(0) translate(4 248)">
<title>FuncEval.h</title>
<polygon fill="white" stroke="white" points="-4,5 -4,-248 1011,-248 1011,5 -4,5"/>
<!-- Node1 -->
<g id="node1" class="node"><title>Node1</title>
<polygon fill="#bfbfbf" stroke="black" points="407,-224.5 407,-243.5 471,-243.5 471,-224.5 407,-224.5"/>
<text text-anchor="middle" x="439" y="-231.5" font-family="FreeSans" font-size="10.00">FuncEval.h</text>
</g>
<!-- Node2 -->
<g id="node3" class="node"><title>Node2</title>
<a xlink:href="CVodeInt_8h.html" target="_top" xlink:title="CVodeInt.h">
<polygon fill="white" stroke="black" points="109.5,-112.5 109.5,-131.5 174.5,-131.5 174.5,-112.5 109.5,-112.5"/>
<text text-anchor="middle" x="142" y="-119.5" font-family="FreeSans" font-size="10.00">CVodeInt.h</text>
</a>
</g>
<!-- Node1&#45;&gt;Node2 -->
<g id="edge2" class="edge"><title>Node1&#45;&gt;Node2</title>
<path fill="none" stroke="midnightblue" d="M406.235,-220.865C345.689,-198.44 217.685,-151.032 165.197,-131.591"/>
<polygon fill="midnightblue" stroke="midnightblue" points="405.102,-224.177 415.695,-224.368 407.533,-217.613 405.102,-224.177"/>
</g>
<!-- Node5 -->
<g id="node9" class="node"><title>Node5</title>
<a xlink:href="Integrator_8h.html" target="_top" xlink:title="Integrator.h">
<polygon fill="white" stroke="black" points="363,-168.5 363,-187.5 429,-187.5 429,-168.5 363,-168.5"/>
<text text-anchor="middle" x="396" y="-175.5" font-family="FreeSans" font-size="10.00">Integrator.h</text>
</a>
</g>
<!-- Node1&#45;&gt;Node5 -->
<g id="edge8" class="edge"><title>Node1&#45;&gt;Node5</title>
<path fill="none" stroke="midnightblue" d="M425.578,-216.144C418.086,-206.736 409.063,-195.405 402.968,-187.751"/>
<polygon fill="midnightblue" stroke="midnightblue" points="422.932,-218.44 431.899,-224.083 428.408,-214.08 422.932,-218.44"/>
</g>
<!-- Node9 -->
<g id="node19" class="node"><title>Node9</title>
<a xlink:href="ImplicitSurfChem_8h.html" target="_top" xlink:title="Declarations for the implicit integration of surface site density equations (see Kinetics Managers an...">
<polygon fill="white" stroke="black" points="461,-112.5 461,-131.5 559,-131.5 559,-112.5 461,-112.5"/>
<text text-anchor="middle" x="510" y="-119.5" font-family="FreeSans" font-size="10.00">ImplicitSurfChem.h</text>
</a>
</g>
<!-- Node1&#45;&gt;Node9 -->
<g id="edge48" class="edge"><title>Node1&#45;&gt;Node9</title>
<path fill="none" stroke="midnightblue" d="M450,-215.957C465.387,-192.118 492.761,-149.709 504.455,-131.591"/>
<polygon fill="midnightblue" stroke="midnightblue" points="447.054,-214.069 444.571,-224.368 452.935,-217.865 447.054,-214.069"/>
</g>
<!-- Node15 -->
<g id="node34" class="node"><title>Node15</title>
<a xlink:href="ReactorNet_8h.html" target="_top" xlink:title="ReactorNet.h">
<polygon fill="white" stroke="black" points="735,-112.5 735,-131.5 809,-131.5 809,-112.5 735,-112.5"/>
<text text-anchor="middle" x="772" y="-119.5" font-family="FreeSans" font-size="10.00">ReactorNet.h</text>
</a>
</g>
<!-- Node1&#45;&gt;Node15 -->
<g id="edge50" class="edge"><title>Node1&#45;&gt;Node15</title>
<path fill="none" stroke="midnightblue" d="M474.597,-221.241C541.98,-198.983 686.716,-151.172 745.934,-131.61"/>
<polygon fill="midnightblue" stroke="midnightblue" points="473.25,-218 464.853,-224.46 475.446,-224.647 473.25,-218"/>
</g>
<!-- Node3 -->
<g id="node5" class="node"><title>Node3</title>
<a xlink:href="CVodeInt_8cpp.html" target="_top" xlink:title="CVodeInt.cpp">
<polygon fill="white" stroke="black" points="-0.5,-56.5 -0.5,-75.5 74.5,-75.5 74.5,-56.5 -0.5,-56.5"/>
<text text-anchor="middle" x="37" y="-63.5" font-family="FreeSans" font-size="10.00">CVodeInt.cpp</text>
</a>
</g>
<!-- Node2&#45;&gt;Node3 -->
<g id="edge4" class="edge"><title>Node2&#45;&gt;Node3</title>
<path fill="none" stroke="midnightblue" d="M116.19,-107.726C96.7471,-97.7271 70.6516,-84.3065 53.8282,-75.6545"/>
<polygon fill="midnightblue" stroke="midnightblue" points="114.636,-110.863 125.13,-112.324 117.838,-104.638 114.636,-110.863"/>
</g>
<!-- Node4 -->
<g id="node7" class="node"><title>Node4</title>
<a xlink:href="ODE__integrators_8cpp_source.html" target="_top" xlink:title="ODE_integrators.cpp">
<polygon fill="white" stroke="black" points="93,-56.5 93,-75.5 201,-75.5 201,-56.5 93,-56.5"/>
<text text-anchor="middle" x="147" y="-63.5" font-family="FreeSans" font-size="10.00">ODE_integrators.cpp</text>
</a>
</g>
<!-- Node2&#45;&gt;Node4 -->
<g id="edge6" class="edge"><title>Node2&#45;&gt;Node4</title>
<path fill="none" stroke="midnightblue" d="M143.75,-102.101C144.58,-93.1357 145.532,-82.8579 146.19,-75.7511"/>
<polygon fill="midnightblue" stroke="midnightblue" points="140.263,-101.803 142.826,-112.083 147.233,-102.448 140.263,-101.803"/>
</g>
<!-- Node5&#45;&gt;Node2 -->
<g id="edge12" class="edge"><title>Node5&#45;&gt;Node2</title>
<path fill="none" stroke="midnightblue" d="M352.857,-167.828C302.478,-157.117 220.267,-139.64 174.812,-129.976"/>
<polygon fill="midnightblue" stroke="midnightblue" points="352.285,-171.284 362.794,-169.94 353.74,-164.437 352.285,-171.284"/>
</g>
<!-- Node5&#45;&gt;Node4 -->
<g id="edge14" class="edge"><title>Node5&#45;&gt;Node4</title>
<path fill="none" stroke="midnightblue" d="M352.65,-171.457C316.176,-165.498 263.485,-153.787 222,-132 193.626,-117.099 166.891,-89.5379 154.392,-75.5796"/>
<polygon fill="midnightblue" stroke="midnightblue" points="352.531,-174.981 362.95,-173.058 353.606,-168.064 352.531,-174.981"/>
</g>
<!-- Node6 -->
<g id="node11" class="node"><title>Node6</title>
<a xlink:href="ImplicitSurfChem_8cpp.html" target="_top" xlink:title="Definitions for the implicit integration of surface site density equations (see Kinetics Managers and...">
<polygon fill="white" stroke="black" points="539.5,-0.5 539.5,-19.5 648.5,-19.5 648.5,-0.5 539.5,-0.5"/>
<text text-anchor="middle" x="594" y="-7.5" font-family="FreeSans" font-size="10.00">ImplicitSurfChem.cpp</text>
</a>
</g>
<!-- Node5&#45;&gt;Node6 -->
<g id="edge10" class="edge"><title>Node5&#45;&gt;Node6</title>
<path fill="none" stroke="midnightblue" d="M376.193,-161.88C367.156,-153.948 357.127,-143.496 351,-132 334.947,-101.881 318.072,-82.1538 340,-56 364.924,-26.2719 472.445,-16.1712 539.352,-12.7474"/>
<polygon fill="midnightblue" stroke="midnightblue" points="374.14,-164.724 384.073,-168.412 378.608,-159.335 374.14,-164.724"/>
</g>
<!-- Node7 -->
<g id="node15" class="node"><title>Node7</title>
<a xlink:href="ReactorNet_8cpp_source.html" target="_top" xlink:title="ReactorNet.cpp">
<polygon fill="white" stroke="black" points="681.5,-56.5 681.5,-75.5 766.5,-75.5 766.5,-56.5 681.5,-56.5"/>
<text text-anchor="middle" x="724" y="-63.5" font-family="FreeSans" font-size="10.00">ReactorNet.cpp</text>
</a>
</g>
<!-- Node5&#45;&gt;Node7 -->
<g id="edge16" class="edge"><title>Node5&#45;&gt;Node7</title>
<path fill="none" stroke="midnightblue" d="M439.028,-167.382C473.896,-159.182 524.105,-146.45 567,-132 618.161,-114.766 676.405,-88.9559 705.462,-75.6377"/>
<polygon fill="midnightblue" stroke="midnightblue" points="438.119,-164 429.172,-169.676 439.705,-170.818 438.119,-164"/>
</g>
<!-- Node8 -->
<g id="node17" class="node"><title>Node8</title>
<a xlink:href="integrators_8h.html" target="_top" xlink:title="ODE integrators.">
<polygon fill="white" stroke="black" points="360.5,-112.5 360.5,-131.5 431.5,-131.5 431.5,-112.5 360.5,-112.5"/>
<text text-anchor="middle" x="396" y="-119.5" font-family="FreeSans" font-size="10.00">integrators.h</text>
</a>
</g>
<!-- Node5&#45;&gt;Node8 -->
<g id="edge18" class="edge"><title>Node5&#45;&gt;Node8</title>
<path fill="none" stroke="midnightblue" d="M396,-157.805C396,-148.91 396,-138.78 396,-131.751"/>
<polygon fill="midnightblue" stroke="midnightblue" points="392.5,-158.083 396,-168.083 399.5,-158.083 392.5,-158.083"/>
</g>
<!-- Node5&#45;&gt;Node9 -->
<g id="edge20" class="edge"><title>Node5&#45;&gt;Node9</title>
<path fill="none" stroke="midnightblue" d="M423.242,-164.096C444.54,-154.007 473.542,-140.27 492.021,-131.516"/>
<polygon fill="midnightblue" stroke="midnightblue" points="421.603,-161 414.064,-168.444 424.599,-167.326 421.603,-161"/>
</g>
<!-- Node13 -->
<g id="node30" class="node"><title>Node13</title>
<a xlink:href="BEulerInt_8h.html" target="_top" xlink:title="BEulerInt.h">
<polygon fill="white" stroke="black" points="231,-112.5 231,-131.5 293,-131.5 293,-112.5 231,-112.5"/>
<text text-anchor="middle" x="262" y="-119.5" font-family="FreeSans" font-size="10.00">BEulerInt.h</text>
</a>
</g>
<!-- Node5&#45;&gt;Node13 -->
<g id="edge34" class="edge"><title>Node5&#45;&gt;Node13</title>
<path fill="none" stroke="midnightblue" d="M365.323,-164.638C340.177,-154.504 305.246,-140.427 283.133,-131.516"/>
<polygon fill="midnightblue" stroke="midnightblue" points="364.184,-167.952 374.767,-168.444 366.8,-161.459 364.184,-167.952"/>
</g>
<!-- Node5&#45;&gt;Node15 -->
<g id="edge38" class="edge"><title>Node5&#45;&gt;Node15</title>
<path fill="none" stroke="midnightblue" d="M439,-170.824C513.338,-160.148 664.635,-138.419 734.766,-128.347"/>
<polygon fill="midnightblue" stroke="midnightblue" points="438.439,-167.369 429.038,-172.255 439.434,-174.298 438.439,-167.369"/>
</g>
<!-- Node9&#45;&gt;Node6 -->
<g id="edge22" class="edge"><title>Node9&#45;&gt;Node6</title>
<path fill="none" stroke="midnightblue" d="M569.083,-114.126C593.016,-108.108 618.402,-96.8848 633,-76 646.571,-56.5844 621.777,-32.337 605.859,-19.6513"/>
<polygon fill="midnightblue" stroke="midnightblue" points="568.292,-110.717 559.306,-116.329 569.831,-117.546 568.292,-110.717"/>
</g>
<!-- Node10 -->
<g id="node22" class="node"><title>Node10</title>
<a xlink:href="InterfaceKinetics_8cpp.html" target="_top" xlink:title="InterfaceKinetics.cpp">
<polygon fill="white" stroke="black" points="349,-56.5 349,-75.5 457,-75.5 457,-56.5 349,-56.5"/>
<text text-anchor="middle" x="403" y="-63.5" font-family="FreeSans" font-size="10.00">InterfaceKinetics.cpp</text>
</a>
</g>
<!-- Node9&#45;&gt;Node10 -->
<g id="edge24" class="edge"><title>Node9&#45;&gt;Node10</title>
<path fill="none" stroke="midnightblue" d="M483.698,-107.726C463.885,-97.7271 437.293,-84.3065 420.149,-75.6545"/>
<polygon fill="midnightblue" stroke="midnightblue" points="482.304,-110.943 492.809,-112.324 485.458,-104.694 482.304,-110.943"/>
</g>
<!-- Node11 -->
<g id="node24" class="node"><title>Node11</title>
<a xlink:href="Kinetics_8cpp.html" target="_top" xlink:title="Declarations for the base class for kinetics &#160;managers (see Kinetics Managers and class Kinetics)...">
<polygon fill="white" stroke="black" points="475,-56.5 475,-75.5 545,-75.5 545,-56.5 475,-56.5"/>
<text text-anchor="middle" x="510" y="-63.5" font-family="FreeSans" font-size="10.00">Kinetics.cpp</text>
</a>
</g>
<!-- Node9&#45;&gt;Node11 -->
<g id="edge26" class="edge"><title>Node9&#45;&gt;Node11</title>
<path fill="none" stroke="midnightblue" d="M510,-101.805C510,-92.9102 510,-82.7798 510,-75.7511"/>
<polygon fill="midnightblue" stroke="midnightblue" points="506.5,-102.083 510,-112.083 513.5,-102.083 506.5,-102.083"/>
</g>
<!-- Node12 -->
<g id="node26" class="node"><title>Node12</title>
<a xlink:href="solveSP_8h.html" target="_top" xlink:title=" &#160;Header file for implicit surface problem solver &#160;(see Chemical Kinetics and class solveSP)...">
<polygon fill="white" stroke="red" points="563,-56.5 563,-75.5 625,-75.5 625,-56.5 563,-56.5"/>
<text text-anchor="middle" x="594" y="-63.5" font-family="FreeSans" font-size="10.00">solveSP.h</text>
</a>
</g>
<!-- Node9&#45;&gt;Node12 -->
<g id="edge28" class="edge"><title>Node9&#45;&gt;Node12</title>
<path fill="none" stroke="midnightblue" d="M526.722,-106.342C540.859,-96.5169 560.788,-83.9132 575.427,-75.6545"/>
<polygon fill="midnightblue" stroke="midnightblue" points="524.467,-103.652 518.381,-112.324 528.547,-109.34 524.467,-103.652"/>
</g>
<!-- Node12&#45;&gt;Node6 -->
<g id="edge30" class="edge"><title>Node12&#45;&gt;Node6</title>
<path fill="none" stroke="midnightblue" d="M594,-45.8045C594,-36.9102 594,-26.7798 594,-19.7511"/>
<polygon fill="midnightblue" stroke="midnightblue" points="590.5,-46.083 594,-56.083 597.5,-46.083 590.5,-46.083"/>
</g>
<!-- Node12&#45;&gt;Node9 -->
<g id="edge32" class="edge"><title>Node12&#45;&gt;Node9</title>
<path fill="none" stroke="midnightblue" d="M577.064,-81.8069C562.952,-91.6017 543.173,-104.107 528.611,-112.324"/>
<polygon fill="midnightblue" stroke="midnightblue" points="579.313,-84.5009 585.407,-75.8339 575.239,-78.8091 579.313,-84.5009"/>
</g>
<!-- Node14 -->
<g id="node32" class="node"><title>Node14</title>
<a xlink:href="BEulerInt_8cpp.html" target="_top" xlink:title="BEulerInt.cpp">
<polygon fill="white" stroke="black" points="219.5,-56.5 219.5,-75.5 292.5,-75.5 292.5,-56.5 219.5,-56.5"/>
<text text-anchor="middle" x="256" y="-63.5" font-family="FreeSans" font-size="10.00">BEulerInt.cpp</text>
</a>
</g>
<!-- Node13&#45;&gt;Node14 -->
<g id="edge36" class="edge"><title>Node13&#45;&gt;Node14</title>
<path fill="none" stroke="midnightblue" d="M259.9,-102.101C258.904,-93.1357 257.762,-82.8579 256.972,-75.7511"/>
<polygon fill="midnightblue" stroke="midnightblue" points="256.426,-102.531 261.009,-112.083 263.383,-101.758 256.426,-102.531"/>
</g>
<!-- Node15&#45;&gt;Node7 -->
<g id="edge42" class="edge"><title>Node15&#45;&gt;Node7</title>
<path fill="none" stroke="midnightblue" d="M757.272,-104.431C748.86,-94.9673 738.651,-83.4827 731.779,-75.7511"/>
<polygon fill="midnightblue" stroke="midnightblue" points="754.814,-106.934 764.074,-112.083 760.046,-102.284 754.814,-106.934"/>
</g>
<!-- Node16 -->
<g id="node36" class="node"><title>Node16</title>
<a xlink:href="Reactor_8cpp.html" target="_top" xlink:title="A zero&#45;dimensional reactor.">
<polygon fill="white" stroke="black" points="785,-56.5 785,-75.5 855,-75.5 855,-56.5 785,-56.5"/>
<text text-anchor="middle" x="820" y="-63.5" font-family="FreeSans" font-size="10.00">Reactor.cpp</text>
</a>
</g>
<!-- Node15&#45;&gt;Node16 -->
<g id="edge40" class="edge"><title>Node15&#45;&gt;Node16</title>
<path fill="none" stroke="midnightblue" d="M786.728,-104.431C795.14,-94.9673 805.349,-83.4827 812.221,-75.7511"/>
<polygon fill="midnightblue" stroke="midnightblue" points="783.954,-102.284 779.926,-112.083 789.186,-106.934 783.954,-102.284"/>
</g>
<!-- Node17 -->
<g id="node39" class="node"><title>Node17</title>
<a xlink:href="Wall_8cpp_source.html" target="_top" xlink:title="Wall.cpp">
<polygon fill="white" stroke="black" points="873,-56.5 873,-75.5 927,-75.5 927,-56.5 873,-56.5"/>
<text text-anchor="middle" x="900" y="-63.5" font-family="FreeSans" font-size="10.00">Wall.cpp</text>
</a>
</g>
<!-- Node15&#45;&gt;Node17 -->
<g id="edge44" class="edge"><title>Node15&#45;&gt;Node17</title>
<path fill="none" stroke="midnightblue" d="M801.623,-108.503C825.619,-98.3795 858.784,-84.388 879.813,-75.5164"/>
<polygon fill="midnightblue" stroke="midnightblue" points="800.135,-105.332 792.282,-112.444 802.856,-111.781 800.135,-105.332"/>
</g>
<!-- Node18 -->
<g id="node41" class="node"><title>Node18</title>
<a xlink:href="zerodim_8h_source.html" target="_top" xlink:title="zerodim.h">
<polygon fill="white" stroke="black" points="945.5,-56.5 945.5,-75.5 1006.5,-75.5 1006.5,-56.5 945.5,-56.5"/>
<text text-anchor="middle" x="976" y="-63.5" font-family="FreeSans" font-size="10.00">zerodim.h</text>
</a>
</g>
<!-- Node15&#45;&gt;Node18 -->
<g id="edge46" class="edge"><title>Node15&#45;&gt;Node18</title>
<path fill="none" stroke="midnightblue" d="M814.104,-109.855C853.24,-99.4952 910.596,-84.313 945.493,-75.0755"/>
<polygon fill="midnightblue" stroke="midnightblue" points="813.096,-106.501 804.324,-112.444 814.887,-113.268 813.096,-106.501"/>
</g>
</g>
</svg>
