<?xml version="1.0" encoding="UTF-8" standalone="no"?>
<!DOCTYPE svg PUBLIC "-//W3C//DTD SVG 1.1//EN"
 "http://www.w3.org/Graphics/SVG/1.1/DTD/svg11.dtd">
<!-- Generated by graphviz version 2.38.0 (20140413.2041)
 -->
<!-- Title: Func1.h Pages: 1 -->
<svg width="954pt" height="140pt"
 viewBox="0.00 0.00 953.50 140.00" xmlns="http://www.w3.org/2000/svg" xmlns:xlink="http://www.w3.org/1999/xlink">
<g id="graph0" class="graph" transform="scale(1 1) rotate(0) translate(4 136)">
<title>Func1.h</title>
<polygon fill="white" stroke="none" points="-4,4 -4,-136 949.5,-136 949.5,4 -4,4"/>
<!-- Node1 -->
<g id="node1" class="node"><title>Node1</title>
<polygon fill="#bfbfbf" stroke="black" points="306,-112.5 306,-131.5 358,-131.5 358,-112.5 306,-112.5"/>
<text text-anchor="middle" x="332" y="-119.5" font-family="Helvetica,sans-Serif" font-size="10.00">Func1.h</text>
</g>
<!-- Node2 -->
<g id="node2" class="node"><title>Node2</title>
<g id="a_node2"><a xlink:href="Func1_8cpp.html" target="_top" xlink:title="Func1.cpp">
<polygon fill="white" stroke="black" points="-3.55271e-15,-56.5 -3.55271e-15,-75.5 62,-75.5 62,-56.5 -3.55271e-15,-56.5"/>
<text text-anchor="middle" x="31" y="-63.5" font-family="Helvetica,sans-Serif" font-size="10.00">Func1.cpp</text>
</a>
</g>
</g>
<!-- Node1&#45;&gt;Node2 -->
<g id="edge1" class="edge"><title>Node1&#45;&gt;Node2</title>
<path fill="none" stroke="midnightblue" d="M295.662,-115.237C245.31,-107.132 151.529,-91.603 72,-76 68.8535,-75.3827 65.5774,-74.7117 62.3092,-74.0237"/>
<polygon fill="midnightblue" stroke="midnightblue" points="295.298,-118.723 305.726,-116.851 296.407,-111.812 295.298,-118.723"/>
</g>
<!-- Node3 -->
<g id="node3" class="node"><title>Node3</title>
<g id="a_node3"><a xlink:href="OneDim_8cpp.html" target="_top" xlink:title="OneDim.cpp">
<polygon fill="white" stroke="black" points="80.5,-56.5 80.5,-75.5 151.5,-75.5 151.5,-56.5 80.5,-56.5"/>
<text text-anchor="middle" x="116" y="-63.5" font-family="Helvetica,sans-Serif" font-size="10.00">OneDim.cpp</text>
</a>
</g>
</g>
<!-- Node1&#45;&gt;Node3 -->
<g id="edge2" class="edge"><title>Node1&#45;&gt;Node3</title>
<path fill="none" stroke="midnightblue" d="M296.219,-112.055C255.724,-101.931 190.223,-85.5559 150.335,-75.5837"/>
<polygon fill="midnightblue" stroke="midnightblue" points="295.395,-115.456 305.945,-114.486 297.093,-108.665 295.395,-115.456"/>
</g>
<!-- Node4 -->
<g id="node4" class="node"><title>Node4</title>
<g id="a_node4"><a xlink:href="Sim1D_8cpp.html" target="_top" xlink:title="Sim1D.cpp">
<polygon fill="white" stroke="black" points="169.5,-56.5 169.5,-75.5 234.5,-75.5 234.5,-56.5 169.5,-56.5"/>
<text text-anchor="middle" x="202" y="-63.5" font-family="Helvetica,sans-Serif" font-size="10.00">Sim1D.cpp</text>
</a>
</g>
</g>
<!-- Node1&#45;&gt;Node4 -->
<g id="edge3" class="edge"><title>Node1&#45;&gt;Node4</title>
<path fill="none" stroke="midnightblue" d="M301.915,-108.503C277.543,-98.3795 243.86,-84.388 222.503,-75.5164"/>
<polygon fill="midnightblue" stroke="midnightblue" points="300.823,-111.84 311.401,-112.444 303.509,-105.375 300.823,-111.84"/>
</g>
<!-- Node5 -->
<g id="node5" class="node"><title>Node5</title>
<g id="a_node5"><a xlink:href="FlowDevice_8cpp.html" target="_top" xlink:title="FlowDevice.cpp">
<polygon fill="white" stroke="black" points="252.5,-56.5 252.5,-75.5 339.5,-75.5 339.5,-56.5 252.5,-56.5"/>
<text text-anchor="middle" x="296" y="-63.5" font-family="Helvetica,sans-Serif" font-size="10.00">FlowDevice.cpp</text>
</a>
</g>
</g>
<!-- Node1&#45;&gt;Node5 -->
<g id="edge4" class="edge"><title>Node1&#45;&gt;Node5</title>
<path fill="none" stroke="midnightblue" d="M320.377,-103.566C314.183,-94.2747 306.832,-83.2484 301.834,-75.7511"/>
<polygon fill="midnightblue" stroke="midnightblue" points="317.596,-105.704 326.055,-112.083 323.42,-101.821 317.596,-105.704"/>
</g>
<!-- Node6 -->
<g id="node6" class="node"><title>Node6</title>
<g id="a_node6"><a xlink:href="Wall_8cpp.html" target="_top" xlink:title="Wall.cpp">
<polygon fill="white" stroke="black" points="340.5,-0.5 340.5,-19.5 395.5,-19.5 395.5,-0.5 340.5,-0.5"/>
<text text-anchor="middle" x="368" y="-7.5" font-family="Helvetica,sans-Serif" font-size="10.00">Wall.cpp</text>
</a>
</g>
</g>
<!-- Node1&#45;&gt;Node6 -->
<g id="edge5" class="edge"><title>Node1&#45;&gt;Node6</title>
<path fill="none" stroke="midnightblue" d="M339.215,-102.863C342.367,-94.7038 346.016,-84.9212 349,-76 355.639,-56.1535 362.231,-32.4812 365.632,-19.8983"/>
<polygon fill="midnightblue" stroke="midnightblue" points="335.85,-101.856 335.457,-112.444 342.367,-104.412 335.85,-101.856"/>
</g>
<!-- Node7 -->
<g id="node7" class="node"><title>Node7</title>
<g id="a_node7"><a xlink:href="funcWrapper_8h_source.html" target="_top" xlink:title="funcWrapper.h">
<polygon fill="white" stroke="black" points="396,-56.5 396,-75.5 476,-75.5 476,-56.5 396,-56.5"/>
<text text-anchor="middle" x="436" y="-63.5" font-family="Helvetica,sans-Serif" font-size="10.00">funcWrapper.h</text>
</a>
</g>
</g>
<!-- Node1&#45;&gt;Node7 -->
<g id="edge6" class="edge"><title>Node1&#45;&gt;Node7</title>
<path fill="none" stroke="midnightblue" d="M357.828,-107.59C377.057,-97.6052 402.745,-84.2672 419.332,-75.6545"/>
<polygon fill="midnightblue" stroke="midnightblue" points="355.971,-104.61 348.709,-112.324 359.197,-110.822 355.971,-104.61"/>
</g>
<!-- Node8 -->
<g id="node8" class="node"><title>Node8</title>
<g id="a_node8"><a xlink:href="flowControllers_8h.html" target="_top" xlink:title="Some flow devices derived from class FlowDevice. ">
<polygon fill="white" stroke="black" points="494,-56.5 494,-75.5 584,-75.5 584,-56.5 494,-56.5"/>
<text text-anchor="middle" x="539" y="-63.5" font-family="Helvetica,sans-Serif" font-size="10.00">flowControllers.h</text>
</a>
</g>
</g>
<!-- Node1&#45;&gt;Node8 -->
<g id="edge7" class="edge"><title>Node1&#45;&gt;Node8</title>
<path fill="none" stroke="midnightblue" d="M368.087,-111.586C407.042,-101.424 468.548,-85.3787 506.182,-75.5611"/>
<polygon fill="midnightblue" stroke="midnightblue" points="367.009,-108.25 358.217,-114.161 368.776,-115.023 367.009,-108.25"/>
</g>
<!-- Node9 -->
<g id="node9" class="node"><title>Node9</title>
<g id="a_node9"><a xlink:href="Wall_8h.html" target="_top" xlink:title="Header file for class Wall. ">
<polygon fill="white" stroke="black" points="602,-56.5 602,-75.5 646,-75.5 646,-56.5 602,-56.5"/>
<text text-anchor="middle" x="624" y="-63.5" font-family="Helvetica,sans-Serif" font-size="10.00">Wall.h</text>
</a>
</g>
</g>
<!-- Node1&#45;&gt;Node9 -->
<g id="edge8" class="edge"><title>Node1&#45;&gt;Node9</title>
<path fill="none" stroke="midnightblue" d="M368.24,-116.06C418.876,-108.862 513.523,-94.3279 593,-76 595.84,-75.3452 598.805,-74.585 601.727,-73.7893"/>
<polygon fill="midnightblue" stroke="midnightblue" points="367.539,-112.624 358.124,-117.484 368.514,-119.556 367.539,-112.624"/>
</g>
<!-- Node9&#45;&gt;Node6 -->
<g id="edge13" class="edge"><title>Node9&#45;&gt;Node6</title>
<path fill="none" stroke="midnightblue" d="M591.816,-55.8928C508.554,-36.2351 485.05,-37.389 405,-20 402.028,-19.3545 398.93,-18.6503 395.846,-17.9295"/>
<polygon fill="midnightblue" stroke="midnightblue" points="591.176,-59.3383 601.715,-58.2605 592.804,-52.5303 591.176,-59.3383"/>
</g>
<!-- Node10 -->
<g id="node10" class="node"><title>Node10</title>
<g id="a_node10"><a xlink:href="ConstPressureReactor_8cpp.html" target="_top" xlink:title="A constant pressure zero&#45;dimensional reactor. ">
<polygon fill="white" stroke="black" points="413.5,-0.5 413.5,-19.5 548.5,-19.5 548.5,-0.5 413.5,-0.5"/>
<text text-anchor="middle" x="481" y="-7.5" font-family="Helvetica,sans-Serif" font-size="10.00">ConstPressureReactor.cpp</text>
</a>
</g>
</g>
<!-- Node9&#45;&gt;Node10 -->
<g id="edge9" class="edge"><title>Node9&#45;&gt;Node10</title>
<path fill="none" stroke="midnightblue" d="M592.277,-53.0208C565.453,-42.8913 527.673,-28.6249 503.765,-19.5966"/>
<polygon fill="midnightblue" stroke="midnightblue" points="591.378,-56.4224 601.97,-56.6808 593.851,-49.8737 591.378,-56.4224"/>
</g>
<!-- Node11 -->
<g id="node11" class="node"><title>Node11</title>
<g id="a_node11"><a xlink:href="IdealGasReactor_8cpp.html" target="_top" xlink:title="A zero&#45;dimensional reactor. ">
<polygon fill="white" stroke="black" points="566.5,-0.5 566.5,-19.5 675.5,-19.5 675.5,-0.5 566.5,-0.5"/>
<text text-anchor="middle" x="621" y="-7.5" font-family="Helvetica,sans-Serif" font-size="10.00">IdealGasReactor.cpp</text>
</a>
</g>
</g>
<!-- Node9&#45;&gt;Node11 -->
<g id="edge10" class="edge"><title>Node9&#45;&gt;Node11</title>
<path fill="none" stroke="midnightblue" d="M622.934,-45.8045C622.439,-36.9102 621.877,-26.7798 621.486,-19.7511"/>
<polygon fill="midnightblue" stroke="midnightblue" points="619.455,-46.2926 623.505,-56.083 626.444,-45.9042 619.455,-46.2926"/>
</g>
<!-- Node12 -->
<g id="node12" class="node"><title>Node12</title>
<g id="a_node12"><a xlink:href="Reactor_8cpp.html" target="_top" xlink:title="A zero&#45;dimensional reactor. ">
<polygon fill="white" stroke="black" points="694,-0.5 694,-19.5 764,-19.5 764,-0.5 694,-0.5"/>
<text text-anchor="middle" x="729" y="-7.5" font-family="Helvetica,sans-Serif" font-size="10.00">Reactor.cpp</text>
</a>
</g>
</g>
<!-- Node9&#45;&gt;Node12 -->
<g id="edge11" class="edge"><title>Node9&#45;&gt;Node12</title>
<path fill="none" stroke="midnightblue" d="M649.81,-51.7261C669.253,-41.7271 695.348,-28.3065 712.172,-19.6545"/>
<polygon fill="midnightblue" stroke="midnightblue" points="648.162,-48.6379 640.87,-56.324 651.364,-54.8629 648.162,-48.6379"/>
</g>
<!-- Node13 -->
<g id="node13" class="node"><title>Node13</title>
<g id="a_node13"><a xlink:href="ReactorNet_8cpp.html" target="_top" xlink:title="ReactorNet.cpp">
<polygon fill="white" stroke="black" points="782,-0.5 782,-19.5 868,-19.5 868,-0.5 782,-0.5"/>
<text text-anchor="middle" x="825" y="-7.5" font-family="Helvetica,sans-Serif" font-size="10.00">ReactorNet.cpp</text>
</a>
</g>
</g>
<!-- Node9&#45;&gt;Node13 -->
<g id="edge12" class="edge"><title>Node9&#45;&gt;Node13</title>
<path fill="none" stroke="midnightblue" d="M656.197,-56.35C693.781,-46.2528 755.556,-29.6567 793.038,-19.5868"/>
<polygon fill="midnightblue" stroke="midnightblue" points="655.028,-53.04 646.278,-59.0147 656.844,-59.8002 655.028,-53.04"/>
</g>
<!-- Node14 -->
<g id="node14" class="node"><title>Node14</title>
<g id="a_node14"><a xlink:href="zerodim_8h_source.html" target="_top" xlink:title="zerodim.h">
<polygon fill="white" stroke="black" points="886.5,-0.5 886.5,-19.5 945.5,-19.5 945.5,-0.5 886.5,-0.5"/>
<text text-anchor="middle" x="916" y="-7.5" font-family="Helvetica,sans-Serif" font-size="10.00">zerodim.h</text>
</a>
</g>
</g>
<!-- Node9&#45;&gt;Node14 -->
<g id="edge14" class="edge"><title>Node9&#45;&gt;Node14</title>
<path fill="none" stroke="midnightblue" d="M656.19,-59.8126C704.351,-51.9298 797.96,-36.1385 877,-20 879.996,-19.3883 883.114,-18.7211 886.223,-18.0354"/>
<polygon fill="midnightblue" stroke="midnightblue" points="655.375,-56.3991 646.069,-61.4621 656.501,-63.3079 655.375,-56.3991"/>
</g>
</g>
</svg>
