<?xml version="1.0" encoding="UTF-8" standalone="no"?>
<!DOCTYPE svg PUBLIC "-//W3C//DTD SVG 1.1//EN"
 "http://www.w3.org/Graphics/SVG/1.1/DTD/svg11.dtd">
<!-- Generated by graphviz version 2.26.3 (20100126.1600)
 -->
<!-- Title: GasKinetics.cpp Pages: 1 -->
<svg width="1294pt" height="448pt"
 viewBox="0.00 0.00 1294.00 448.00" xmlns="http://www.w3.org/2000/svg" xmlns:xlink="http://www.w3.org/1999/xlink">
<g id="graph1" class="graph" transform="scale(1 1) rotate(0) translate(4 444)">
<title>GasKinetics.cpp</title>
<polygon fill="white" stroke="white" points="-4,5 -4,-444 1291,-444 1291,5 -4,5"/>
<!-- Node1 -->
<g id="node1" class="node"><title>Node1</title>
<polygon fill="#bfbfbf" stroke="black" points="400,-419 400,-439 486,-439 486,-419 400,-419"/>
<text text-anchor="middle" x="443" y="-426" font-family="FreeSans" font-size="10.00">GasKinetics.cpp</text>
</g>
<!-- Node2 -->
<g id="node3" class="node"><title>Node2</title>
<a xlink:href="GasKinetics_8h.html" target="_top" xlink:title="cantera/kinetics/GasKinetics.h">
<polygon fill="white" stroke="black" points="369.5,-361 369.5,-381 516.5,-381 516.5,-361 369.5,-361"/>
<text text-anchor="middle" x="443" y="-368" font-family="FreeSans" font-size="10.00">cantera/kinetics/GasKinetics.h</text>
</a>
</g>
<!-- Node1&#45;&gt;Node2 -->
<g id="edge2" class="edge"><title>Node1&#45;&gt;Node2</title>
<path fill="none" stroke="midnightblue" d="M443,-418.897C443,-411.339 443,-400.748 443,-391.446"/>
<polygon fill="midnightblue" stroke="midnightblue" points="446.5,-391.378 443,-381.378 439.5,-391.378 446.5,-391.378"/>
</g>
<!-- Node17 -->
<g id="node39" class="node"><title>Node17</title>
<a xlink:href="ThirdBodyMgr_8h.html" target="_top" xlink:title="ThirdBodyMgr.h">
<polygon fill="white" stroke="black" points="154,-303 154,-323 238,-323 238,-303 154,-303"/>
<text text-anchor="middle" x="196" y="-310" font-family="FreeSans" font-size="10.00">ThirdBodyMgr.h</text>
</a>
</g>
<!-- Node1&#45;&gt;Node17 -->
<g id="edge100" class="edge"><title>Node1&#45;&gt;Node17</title>
<path fill="none" stroke="midnightblue" d="M421.512,-418.909C377.627,-398.299 277.572,-351.309 226.79,-327.46"/>
<polygon fill="midnightblue" stroke="midnightblue" points="228.153,-324.234 217.614,-323.151 225.177,-330.57 228.153,-324.234"/>
</g>
<!-- Node18 -->
<g id="node44" class="node"><title>Node18</title>
<a xlink:href="Enhanced3BConc_8h.html" target="_top" xlink:title="Enhanced3BConc.h">
<polygon fill="white" stroke="black" points="-0.5,-239 -0.5,-259 100.5,-259 100.5,-239 -0.5,-239"/>
<text text-anchor="middle" x="50" y="-246" font-family="FreeSans" font-size="10.00">Enhanced3BConc.h</text>
</a>
</g>
<!-- Node1&#45;&gt;Node18 -->
<g id="edge98" class="edge"><title>Node1&#45;&gt;Node18</title>
<path fill="none" stroke="midnightblue" d="M399.961,-419.077C340.09,-404.135 229.507,-372.358 145,-324 116.056,-307.438 86.4907,-282.588 68.1966,-266.091"/>
<polygon fill="midnightblue" stroke="midnightblue" points="70.3656,-263.331 60.6271,-259.159 65.6378,-268.494 70.3656,-263.331"/>
</g>
<!-- Node24 -->
<g id="node60" class="node"><title>Node24</title>
<a xlink:href="RateCoeffMgr_8h.html" target="_top" xlink:title="RateCoeffMgr.h">
<polygon fill="white" stroke="black" points="822.5,-303 822.5,-323 905.5,-323 905.5,-303 822.5,-303"/>
<text text-anchor="middle" x="864" y="-310" font-family="FreeSans" font-size="10.00">RateCoeffMgr.h</text>
</a>
</g>
<!-- Node1&#45;&gt;Node24 -->
<g id="edge102" class="edge"><title>Node1&#45;&gt;Node24</title>
<path fill="none" stroke="midnightblue" d="M479.625,-418.909C556.231,-397.801 733.259,-349.024 817.642,-325.773"/>
<polygon fill="midnightblue" stroke="midnightblue" points="818.75,-329.099 827.461,-323.068 816.89,-322.35 818.75,-329.099"/>
</g>
<!-- Node26 -->
<g id="node66" class="node"><title>Node26</title>
<a xlink:href="ReactionData_8h.html" target="_top" xlink:title="ReactionData.h">
<polygon fill="white" stroke="black" points="1049.5,-175 1049.5,-195 1132.5,-195 1132.5,-175 1049.5,-175"/>
<text text-anchor="middle" x="1091" y="-182" font-family="FreeSans" font-size="10.00">ReactionData.h</text>
</a>
</g>
<!-- Node1&#45;&gt;Node26 -->
<g id="edge96" class="edge"><title>Node1&#45;&gt;Node26</title>
<path fill="none" stroke="midnightblue" d="M486.157,-423.797C570.603,-412.667 762.646,-382.65 914,-324 963.349,-304.877 976.616,-298.99 1018,-266 1041.32,-247.41 1063.58,-221.025 1077.26,-203.479"/>
<polygon fill="midnightblue" stroke="midnightblue" points="1080.3,-205.269 1083.59,-195.198 1074.74,-201.018 1080.3,-205.269"/>
</g>
<!-- Node3 -->
<g id="node5" class="node"><title>Node3</title>
<a xlink:href="mix__defs_8h.html" target="_top" xlink:title="cantera/thermo/mix\l_defs.h">
<polygon fill="white" stroke="black" points="266,-233 266,-265 366,-265 366,-233 266,-233"/>
<text text-anchor="start" x="274" y="-252" font-family="FreeSans" font-size="10.00">cantera/thermo/mix</text>
<text text-anchor="middle" x="316" y="-240" font-family="FreeSans" font-size="10.00">_defs.h</text>
</a>
</g>
<!-- Node2&#45;&gt;Node3 -->
<g id="edge4" class="edge"><title>Node2&#45;&gt;Node3</title>
<path fill="none" stroke="midnightblue" d="M432.172,-360.598C411.885,-341.11 367.71,-298.674 340.057,-272.11"/>
<polygon fill="midnightblue" stroke="midnightblue" points="342.366,-269.475 332.73,-265.071 337.516,-274.523 342.366,-269.475"/>
</g>
<!-- Node4 -->
<g id="node7" class="node"><title>Node4</title>
<a xlink:href="Kinetics_8h.html" target="_top" xlink:title="Base class for kinetics managers and also contains the kineticsmgr module documentation (see Kinetics...">
<polygon fill="white" stroke="black" points="413.5,-303 413.5,-323 472.5,-323 472.5,-303 413.5,-303"/>
<text text-anchor="middle" x="443" y="-310" font-family="FreeSans" font-size="10.00">Kinetics.h</text>
</a>
</g>
<!-- Node2&#45;&gt;Node4 -->
<g id="edge6" class="edge"><title>Node2&#45;&gt;Node4</title>
<path fill="none" stroke="midnightblue" d="M443,-360.897C443,-353.339 443,-342.748 443,-333.446"/>
<polygon fill="midnightblue" stroke="midnightblue" points="446.5,-333.378 443,-323.378 439.5,-333.378 446.5,-333.378"/>
</g>
<!-- Node12 -->
<g id="node25" class="node"><title>Node12</title>
<a xlink:href="utilities_8h.html" target="_top" xlink:title="Various templated functions that carry out common vector operations (see Templated Utility Functions)...">
<polygon fill="white" stroke="black" points="194,-239 194,-259 248,-259 248,-239 194,-239"/>
<text text-anchor="middle" x="221" y="-246" font-family="FreeSans" font-size="10.00">utilities.h</text>
</a>
</g>
<!-- Node2&#45;&gt;Node12 -->
<g id="edge26" class="edge"><title>Node2&#45;&gt;Node12</title>
<path fill="none" stroke="midnightblue" d="M424.454,-360.808C385.262,-339.27 293.87,-289.046 248.112,-263.9"/>
<polygon fill="midnightblue" stroke="midnightblue" points="249.786,-260.826 239.337,-259.077 246.415,-266.961 249.786,-260.826"/>
</g>
<!-- Node14 -->
<g id="node30" class="node"><title>Node14</title>
<a xlink:href="ReactionStoichMgr_8h.html" target="_top" xlink:title="Header file declaring class ReactionStoichMgr. ">
<polygon fill="white" stroke="black" points="527.5,-303 527.5,-323 634.5,-323 634.5,-303 527.5,-303"/>
<text text-anchor="middle" x="581" y="-310" font-family="FreeSans" font-size="10.00">ReactionStoichMgr.h</text>
</a>
</g>
<!-- Node2&#45;&gt;Node14 -->
<g id="edge32" class="edge"><title>Node2&#45;&gt;Node14</title>
<path fill="none" stroke="midnightblue" d="M467.038,-360.897C489.262,-351.556 522.509,-337.583 547.365,-327.136"/>
<polygon fill="midnightblue" stroke="midnightblue" points="548.912,-330.283 556.775,-323.182 546.2,-323.83 548.912,-330.283"/>
</g>
<!-- Node2&#45;&gt;Node17 -->
<g id="edge44" class="edge"><title>Node2&#45;&gt;Node17</title>
<path fill="none" stroke="midnightblue" d="M400.258,-360.963C358.025,-351.046 293.356,-335.861 248.129,-325.241"/>
<polygon fill="midnightblue" stroke="midnightblue" points="248.754,-321.793 238.219,-322.914 247.154,-328.607 248.754,-321.793"/>
</g>
<!-- Node19 -->
<g id="node47" class="node"><title>Node19</title>
<a xlink:href="FalloffMgr_8h.html" target="_top" xlink:title="FalloffMgr.h">
<polygon fill="white" stroke="black" points="592,-239 592,-259 658,-259 658,-239 592,-239"/>
<text text-anchor="middle" x="625" y="-246" font-family="FreeSans" font-size="10.00">FalloffMgr.h</text>
</a>
</g>
<!-- Node2&#45;&gt;Node19 -->
<g id="edge56" class="edge"><title>Node2&#45;&gt;Node19</title>
<path fill="none" stroke="midnightblue" d="M452.577,-360.678C466.307,-346.28 492.826,-319.922 519,-302 541.672,-286.476 569.536,-272.726 591.005,-263.123"/>
<polygon fill="midnightblue" stroke="midnightblue" points="592.626,-266.234 600.378,-259.011 589.814,-259.823 592.626,-266.234"/>
</g>
<!-- Node2&#45;&gt;Node24 -->
<g id="edge72" class="edge"><title>Node2&#45;&gt;Node24</title>
<path fill="none" stroke="midnightblue" d="M515.852,-360.963C600.478,-349.305 737.96,-330.364 812.312,-320.121"/>
<polygon fill="midnightblue" stroke="midnightblue" points="812.944,-323.567 822.372,-318.735 811.988,-316.633 812.944,-323.567"/>
</g>
<!-- Node4&#45;&gt;Node3 -->
<g id="edge24" class="edge"><title>Node4&#45;&gt;Node3</title>
<path fill="none" stroke="midnightblue" d="M422.876,-302.859C405.251,-293.977 379.085,-280.791 357.055,-269.689"/>
<polygon fill="midnightblue" stroke="midnightblue" points="358.409,-266.452 347.904,-265.078 355.259,-272.703 358.409,-266.452"/>
</g>
<!-- Node5 -->
<g id="node9" class="node"><title>Node5</title>
<a xlink:href="ctexceptions_8h.html" target="_top" xlink:title="Definitions for the classes that are thrown when Cantera experiences an error condition (also contain...">
<polygon fill="white" stroke="black" points="1149.5,-175 1149.5,-195 1286.5,-195 1286.5,-175 1149.5,-175"/>
<text text-anchor="middle" x="1218" y="-182" font-family="FreeSans" font-size="10.00">cantera/base/ctexceptions.h</text>
</a>
</g>
<!-- Node4&#45;&gt;Node5 -->
<g id="edge8" class="edge"><title>Node4&#45;&gt;Node5</title>
<path fill="none" stroke="midnightblue" d="M472.533,-308.223C486.579,-306.08 503.625,-303.665 519,-302 740.062,-278.059 801.421,-316.348 1018,-266 1081.81,-251.166 1151.77,-218.802 1189.7,-199.779"/>
<polygon fill="midnightblue" stroke="midnightblue" points="1191.74,-202.668 1199.07,-195.021 1188.57,-196.426 1191.74,-202.668"/>
</g>
<!-- Node8 -->
<g id="node15" class="node"><title>Node8</title>
<a xlink:href="ThermoPhase_8h.html" target="_top" xlink:title="Header file for class ThermoPhase, the base class for phases with thermodynamic properties, and the text for the Module thermoprops (see Thermodynamic Properties and class ThermoPhase). ">
<polygon fill="white" stroke="black" points="384,-239 384,-259 536,-259 536,-239 384,-239"/>
<text text-anchor="middle" x="460" y="-246" font-family="FreeSans" font-size="10.00">cantera/thermo/ThermoPhase.h</text>
</a>
</g>
<!-- Node4&#45;&gt;Node8 -->
<g id="edge14" class="edge"><title>Node4&#45;&gt;Node8</title>
<path fill="none" stroke="midnightblue" d="M445.731,-302.717C448.15,-293.613 451.747,-280.068 454.725,-268.858"/>
<polygon fill="midnightblue" stroke="midnightblue" points="458.147,-269.61 457.331,-259.046 451.381,-267.812 458.147,-269.61"/>
</g>
<!-- Node6 -->
<g id="node11" class="node"><title>Node6</title>
<polygon fill="white" stroke="#bfbfbf" points="1132,-117 1132,-137 1190,-137 1190,-117 1132,-117"/>
<text text-anchor="middle" x="1161" y="-124" font-family="FreeSans" font-size="10.00">exception</text>
</g>
<!-- Node5&#45;&gt;Node6 -->
<g id="edge10" class="edge"><title>Node5&#45;&gt;Node6</title>
<path fill="none" stroke="midnightblue" d="M1208.07,-174.897C1199.92,-166.6 1188.17,-154.646 1178.45,-144.757"/>
<polygon fill="midnightblue" stroke="midnightblue" points="1180.7,-142.057 1171.2,-137.378 1175.71,-146.963 1180.7,-142.057"/>
</g>
<!-- Node7 -->
<g id="node13" class="node"><title>Node7</title>
<polygon fill="white" stroke="#bfbfbf" points="928,-1 928,-21 968,-21 968,-1 928,-1"/>
<text text-anchor="middle" x="948" y="-8" font-family="FreeSans" font-size="10.00">string</text>
</g>
<!-- Node5&#45;&gt;Node7 -->
<g id="edge12" class="edge"><title>Node5&#45;&gt;Node7</title>
<path fill="none" stroke="midnightblue" d="M1217.88,-174.806C1217.17,-160.082 1213.77,-132.79 1199,-116 1139.88,-48.8204 1030.8,-23.5679 978.084,-14.9785"/>
<polygon fill="midnightblue" stroke="midnightblue" points="978.441,-11.4923 968.026,-13.4322 977.378,-18.4111 978.441,-11.4923"/>
</g>
<!-- Node9 -->
<g id="node17" class="node"><title>Node9</title>
<a xlink:href="Phase_8h.html" target="_top" xlink:title="Header file for class Phase. ">
<polygon fill="white" stroke="red" points="434.5,-175 434.5,-195 485.5,-195 485.5,-175 434.5,-175"/>
<text text-anchor="middle" x="460" y="-182" font-family="FreeSans" font-size="10.00">Phase.h</text>
</a>
</g>
<!-- Node8&#45;&gt;Node9 -->
<g id="edge16" class="edge"><title>Node8&#45;&gt;Node9</title>
<path fill="none" stroke="midnightblue" d="M460,-238.717C460,-229.707 460,-216.347 460,-205.205"/>
<polygon fill="midnightblue" stroke="midnightblue" points="463.5,-205.046 460,-195.046 456.5,-205.046 463.5,-205.046"/>
</g>
<!-- Node10 -->
<g id="node19" class="node"><title>Node10</title>
<a xlink:href="SpeciesThermo_8h.html" target="_top" xlink:title="Virtual base class for the calculation of multiple&#45;species thermodynamic reference&#45;state property man...">
<polygon fill="white" stroke="black" points="282,-117 282,-137 374,-137 374,-117 282,-117"/>
<text text-anchor="middle" x="328" y="-124" font-family="FreeSans" font-size="10.00">SpeciesThermo.h</text>
</a>
</g>
<!-- Node8&#45;&gt;Node10 -->
<g id="edge18" class="edge"><title>Node8&#45;&gt;Node10</title>
<path fill="none" stroke="midnightblue" d="M448.746,-238.598C425.934,-217.515 374.064,-169.574 346.316,-143.928"/>
<polygon fill="midnightblue" stroke="midnightblue" points="348.574,-141.249 338.855,-137.032 343.823,-146.39 348.574,-141.249"/>
</g>
<!-- Node11 -->
<g id="node21" class="node"><title>Node11</title>
<a xlink:href="ct__defs_8h.html" target="_top" xlink:title="This file contains definitions of terms that are used in internal routines and are unlikely to need m...">
<polygon fill="white" stroke="red" points="540,-59 540,-79 596,-79 596,-59 540,-59"/>
<text text-anchor="middle" x="568" y="-66" font-family="FreeSans" font-size="10.00">ct_defs.h</text>
</a>
</g>
<!-- Node10&#45;&gt;Node11 -->
<g id="edge20" class="edge"><title>Node10&#45;&gt;Node11</title>
<path fill="none" stroke="midnightblue" d="M369.531,-116.963C414.617,-106.068 486.021,-88.8116 529.77,-78.2388"/>
<polygon fill="midnightblue" stroke="midnightblue" points="530.833,-81.5828 539.731,-75.8316 529.189,-74.7786 530.833,-81.5828"/>
</g>
<!-- Node11&#45;&gt;Node7 -->
<g id="edge22" class="edge"><title>Node11&#45;&gt;Node7</title>
<path fill="none" stroke="midnightblue" d="M596.251,-64.688C665.947,-54.0502 845.635,-26.6241 917.567,-15.645"/>
<polygon fill="midnightblue" stroke="midnightblue" points="918.406,-19.0576 927.764,-14.0887 917.35,-12.1377 918.406,-19.0576"/>
</g>
<!-- Node12&#45;&gt;Node11 -->
<g id="edge28" class="edge"><title>Node12&#45;&gt;Node11</title>
<path fill="none" stroke="midnightblue" d="M221.689,-238.694C223.978,-213.345 233.611,-147.725 273,-116 311.802,-84.748 458.533,-73.9322 529.328,-70.4808"/>
<polygon fill="midnightblue" stroke="midnightblue" points="529.777,-73.9638 539.605,-70.0057 529.454,-66.9713 529.777,-73.9638"/>
</g>
<!-- Node13 -->
<g id="node28" class="node"><title>Node13</title>
<polygon fill="white" stroke="#bfbfbf" points="157,-175 157,-195 213,-195 213,-175 157,-175"/>
<text text-anchor="middle" x="185" y="-182" font-family="FreeSans" font-size="10.00">algorithm</text>
</g>
<!-- Node12&#45;&gt;Node13 -->
<g id="edge30" class="edge"><title>Node12&#45;&gt;Node13</title>
<path fill="none" stroke="midnightblue" d="M215.216,-238.717C209.936,-229.332 202.002,-215.226 195.589,-203.825"/>
<polygon fill="midnightblue" stroke="midnightblue" points="198.604,-202.046 190.651,-195.046 192.503,-205.478 198.604,-202.046"/>
</g>
<!-- Node14&#45;&gt;Node11 -->
<g id="edge34" class="edge"><title>Node14&#45;&gt;Node11</title>
<path fill="none" stroke="midnightblue" d="M577.593,-302.782C572.06,-286.915 560.191,-255.713 545,-232 526.484,-203.096 521.246,-194.878 494,-174 465.286,-151.997 440.103,-168.72 421,-138 394.258,-94.9958 477.416,-78.3697 529.414,-72.2769"/>
<polygon fill="midnightblue" stroke="midnightblue" points="530.108,-75.7222 539.672,-71.1625 529.352,-68.7632 530.108,-75.7222"/>
</g>
<!-- Node15 -->
<g id="node33" class="node"><title>Node15</title>
<a xlink:href="StoichManager_8h.html" target="_top" xlink:title="cantera/kinetics/StoichManager.h">
<polygon fill="white" stroke="black" points="675.5,-239 675.5,-259 836.5,-259 836.5,-239 675.5,-239"/>
<text text-anchor="middle" x="756" y="-246" font-family="FreeSans" font-size="10.00">cantera/kinetics/StoichManager.h</text>
</a>
</g>
<!-- Node14&#45;&gt;Node15 -->
<g id="edge36" class="edge"><title>Node14&#45;&gt;Node15</title>
<path fill="none" stroke="midnightblue" d="M608.729,-302.859C638.426,-291.999 685.716,-274.704 718.669,-262.652"/>
<polygon fill="midnightblue" stroke="midnightblue" points="720.211,-265.815 728.4,-259.094 717.807,-259.241 720.211,-265.815"/>
</g>
<!-- Node16 -->
<g id="node35" class="node"><title>Node16</title>
<a xlink:href="stringUtils_8h.html" target="_top" xlink:title="Contains declarations for string manipulation functions within Cantera. ">
<polygon fill="white" stroke="black" points="799.5,-175 799.5,-195 924.5,-195 924.5,-175 799.5,-175"/>
<text text-anchor="middle" x="862" y="-182" font-family="FreeSans" font-size="10.00">cantera/base/stringUtils.h</text>
</a>
</g>
<!-- Node15&#45;&gt;Node16 -->
<g id="edge38" class="edge"><title>Node15&#45;&gt;Node16</title>
<path fill="none" stroke="midnightblue" d="M773.031,-238.717C790.208,-228.346 816.93,-212.212 836.608,-200.331"/>
<polygon fill="midnightblue" stroke="midnightblue" points="838.609,-203.211 845.361,-195.046 834.991,-197.219 838.609,-203.211"/>
</g>
<!-- Node16&#45;&gt;Node7 -->
<g id="edge42" class="edge"><title>Node16&#45;&gt;Node7</title>
<path fill="none" stroke="midnightblue" d="M874.291,-174.983C884.36,-166.187 898.317,-152.552 907,-138 927.672,-103.355 939.191,-57.0843 944.445,-31.031"/>
<polygon fill="midnightblue" stroke="midnightblue" points="947.885,-31.6747 946.321,-21.1959 941.009,-30.3628 947.885,-31.6747"/>
</g>
<!-- Node16&#45;&gt;Node11 -->
<g id="edge40" class="edge"><title>Node16&#45;&gt;Node11</title>
<path fill="none" stroke="midnightblue" d="M872.65,-174.559C886.201,-160.019 906.132,-133.493 891,-116 872.573,-94.6973 687.938,-78.1343 606.382,-71.7983"/>
<polygon fill="midnightblue" stroke="midnightblue" points="606.283,-68.2806 596.045,-71.0073 605.749,-75.2602 606.283,-68.2806"/>
</g>
<!-- Node17&#45;&gt;Node11 -->
<g id="edge48" class="edge"><title>Node17&#45;&gt;Node11</title>
<path fill="none" stroke="midnightblue" d="M187.02,-302.998C166.906,-279.327 121.975,-218.523 148,-174 174.512,-128.644 201.298,-133.025 251,-116 347.575,-82.9185 468.557,-73.114 529.349,-70.2139"/>
<polygon fill="midnightblue" stroke="midnightblue" points="529.793,-73.6979 539.63,-69.7627 529.486,-66.7046 529.793,-73.6979"/>
</g>
<!-- Node17&#45;&gt;Node12 -->
<g id="edge50" class="edge"><title>Node17&#45;&gt;Node12</title>
<path fill="none" stroke="midnightblue" d="M200.017,-302.717C203.61,-293.519 208.973,-279.789 213.378,-268.512"/>
<polygon fill="midnightblue" stroke="midnightblue" points="216.697,-269.634 217.076,-259.046 210.177,-267.087 216.697,-269.634"/>
</g>
<!-- Node17&#45;&gt;Node13 -->
<g id="edge46" class="edge"><title>Node17&#45;&gt;Node13</title>
<path fill="none" stroke="midnightblue" d="M192.858,-302.667C190.16,-293.224 186.48,-278.82 185,-266 182.615,-245.342 182.985,-221.523 183.724,-205.088"/>
<polygon fill="midnightblue" stroke="midnightblue" points="187.223,-205.192 184.264,-195.018 180.233,-204.816 187.223,-205.192"/>
</g>
<!-- Node17&#45;&gt;Node18 -->
<g id="edge52" class="edge"><title>Node17&#45;&gt;Node18</title>
<path fill="none" stroke="midnightblue" d="M172.866,-302.859C148.411,-292.139 109.655,-275.15 82.2169,-263.122"/>
<polygon fill="midnightblue" stroke="midnightblue" points="83.5898,-259.903 73.0259,-259.094 80.7794,-266.314 83.5898,-259.903"/>
</g>
<!-- Node18&#45;&gt;Node11 -->
<g id="edge54" class="edge"><title>Node18&#45;&gt;Node11</title>
<path fill="none" stroke="midnightblue" d="M51.4914,-238.865C55.8375,-213.323 71.0259,-146.21 114,-116 147.726,-92.2911 426.628,-76.0702 529.811,-70.8303"/>
<polygon fill="midnightblue" stroke="midnightblue" points="529.991,-74.3258 539.803,-70.3294 529.641,-67.3346 529.991,-74.3258"/>
</g>
<!-- Node20 -->
<g id="node49" class="node"><title>Node20</title>
<a xlink:href="reaction__defs_8h.html" target="_top" xlink:title="This file defines some constants used to specify reaction types. ">
<polygon fill="white" stroke="black" points="800,-117 800,-137 882,-137 882,-117 800,-117"/>
<text text-anchor="middle" x="841" y="-124" font-family="FreeSans" font-size="10.00">reaction_defs.h</text>
</a>
</g>
<!-- Node19&#45;&gt;Node20 -->
<g id="edge58" class="edge"><title>Node19&#45;&gt;Node20</title>
<path fill="none" stroke="midnightblue" d="M643.045,-238.808C681.098,-217.315 769.728,-167.255 814.341,-142.057"/>
<polygon fill="midnightblue" stroke="midnightblue" points="816.173,-145.042 823.159,-137.077 812.73,-138.947 816.173,-145.042"/>
</g>
<!-- Node21 -->
<g id="node52" class="node"><title>Node21</title>
<a xlink:href="FalloffFactory_8h.html" target="_top" xlink:title="Parameterizations for reaction falloff functions. ">
<polygon fill="white" stroke="black" points="604,-175 604,-195 686,-195 686,-175 604,-175"/>
<text text-anchor="middle" x="645" y="-182" font-family="FreeSans" font-size="10.00">FalloffFactory.h</text>
</a>
</g>
<!-- Node19&#45;&gt;Node21 -->
<g id="edge62" class="edge"><title>Node19&#45;&gt;Node21</title>
<path fill="none" stroke="midnightblue" d="M628.213,-238.717C631.058,-229.613 635.291,-216.068 638.794,-204.858"/>
<polygon fill="midnightblue" stroke="midnightblue" points="642.218,-205.635 641.861,-195.046 635.537,-203.547 642.218,-205.635"/>
</g>
<!-- Node20&#45;&gt;Node11 -->
<g id="edge60" class="edge"><title>Node20&#45;&gt;Node11</title>
<path fill="none" stroke="midnightblue" d="M799.834,-118.254C747.297,-107.092 657.127,-87.9355 606.104,-77.0954"/>
<polygon fill="midnightblue" stroke="midnightblue" points="606.65,-73.6334 596.141,-74.9787 605.196,-80.4805 606.65,-73.6334"/>
</g>
<!-- Node21&#45;&gt;Node11 -->
<g id="edge64" class="edge"><title>Node21&#45;&gt;Node11</title>
<path fill="none" stroke="midnightblue" d="M669.183,-174.803C695.625,-162.169 732.106,-139.429 715,-116 702.019,-98.2215 645.14,-83.9023 606.064,-75.9262"/>
<polygon fill="midnightblue" stroke="midnightblue" points="606.549,-72.4542 596.059,-73.9419 605.187,-79.3205 606.549,-72.4542"/>
</g>
<!-- Node21&#45;&gt;Node20 -->
<g id="edge66" class="edge"><title>Node21&#45;&gt;Node20</title>
<path fill="none" stroke="midnightblue" d="M679.141,-174.897C711.923,-165.196 761.592,-150.498 797.259,-139.944"/>
<polygon fill="midnightblue" stroke="midnightblue" points="798.327,-143.278 806.922,-137.084 796.34,-136.566 798.327,-143.278"/>
</g>
<!-- Node22 -->
<g id="node56" class="node"><title>Node22</title>
<a xlink:href="FactoryBase_8h.html" target="_top" xlink:title="File contains the FactoryBase class declarations. ">
<polygon fill="white" stroke="red" points="429.5,-117 429.5,-137 566.5,-137 566.5,-117 429.5,-117"/>
<text text-anchor="middle" x="498" y="-124" font-family="FreeSans" font-size="10.00">cantera/base/FactoryBase.h</text>
</a>
</g>
<!-- Node21&#45;&gt;Node22 -->
<g id="edge68" class="edge"><title>Node21&#45;&gt;Node22</title>
<path fill="none" stroke="midnightblue" d="M619.395,-174.897C595.511,-165.474 559.678,-151.335 533.128,-140.86"/>
<polygon fill="midnightblue" stroke="midnightblue" points="534.392,-137.596 523.805,-137.182 531.823,-144.108 534.392,-137.596"/>
</g>
<!-- Node23 -->
<g id="node58" class="node"><title>Node23</title>
<a xlink:href="ct__thread_8h.html" target="_top" xlink:title="cantera/base/ct_thread.h">
<polygon fill="white" stroke="red" points="583.5,-117 583.5,-137 706.5,-137 706.5,-117 583.5,-117"/>
<text text-anchor="middle" x="645" y="-124" font-family="FreeSans" font-size="10.00">cantera/base/ct_thread.h</text>
</a>
</g>
<!-- Node21&#45;&gt;Node23 -->
<g id="edge70" class="edge"><title>Node21&#45;&gt;Node23</title>
<path fill="none" stroke="midnightblue" d="M645,-174.897C645,-167.339 645,-156.748 645,-147.446"/>
<polygon fill="midnightblue" stroke="midnightblue" points="648.5,-147.378 645,-137.378 641.5,-147.378 648.5,-147.378"/>
</g>
<!-- Node24&#45;&gt;Node5 -->
<g id="edge92" class="edge"><title>Node24&#45;&gt;Node5</title>
<path fill="none" stroke="midnightblue" d="M905.555,-309.19C972.533,-302.514 1100.91,-287.353 1141,-266 1168.81,-251.186 1192.33,-222.564 1205.81,-203.618"/>
<polygon fill="midnightblue" stroke="midnightblue" points="1208.81,-205.423 1211.59,-195.198 1203.04,-201.46 1208.81,-205.423"/>
</g>
<!-- Node24&#45;&gt;Node11 -->
<g id="edge90" class="edge"><title>Node24&#45;&gt;Node11</title>
<path fill="none" stroke="midnightblue" d="M863.941,-302.831C863.372,-286.479 860.233,-253.954 845,-232 828.557,-208.302 811.954,-215.822 791,-196 758.713,-165.457 767.581,-141.242 731,-116 693.435,-90.0784 641.619,-78.317 606.571,-73.071"/>
<polygon fill="midnightblue" stroke="midnightblue" points="606.653,-69.549 596.267,-71.6436 605.692,-76.4827 606.653,-69.549"/>
</g>
<!-- Node24&#45;&gt;Node12 -->
<g id="edge74" class="edge"><title>Node24&#45;&gt;Node12</title>
<path fill="none" stroke="midnightblue" d="M822.079,-310.637C693.686,-303.276 311.276,-280.394 257,-266 254.182,-265.253 251.314,-264.29 248.491,-263.203"/>
<polygon fill="midnightblue" stroke="midnightblue" points="249.762,-259.939 239.196,-259.163 246.971,-266.359 249.762,-259.939"/>
</g>
<!-- Node24&#45;&gt;Node16 -->
<g id="edge94" class="edge"><title>Node24&#45;&gt;Node16</title>
<path fill="none" stroke="midnightblue" d="M867.996,-302.741C871.427,-293.347 876.109,-278.974 878,-266 880.18,-251.047 880.468,-246.908 878,-232 876.476,-222.792 873.378,-212.965 870.311,-204.69"/>
<polygon fill="midnightblue" stroke="midnightblue" points="873.493,-203.216 866.563,-195.201 866.982,-205.788 873.493,-203.216"/>
</g>
<!-- Node25 -->
<g id="node63" class="node"><title>Node25</title>
<a xlink:href="RxnRates_8h.html" target="_top" xlink:title="RxnRates.h">
<polygon fill="white" stroke="black" points="944.5,-239 944.5,-259 1009.5,-259 1009.5,-239 944.5,-239"/>
<text text-anchor="middle" x="977" y="-246" font-family="FreeSans" font-size="10.00">RxnRates.h</text>
</a>
</g>
<!-- Node24&#45;&gt;Node25 -->
<g id="edge76" class="edge"><title>Node24&#45;&gt;Node25</title>
<path fill="none" stroke="midnightblue" d="M881.905,-302.859C900.337,-292.42 929.265,-276.036 950.378,-264.078"/>
<polygon fill="midnightblue" stroke="midnightblue" points="952.202,-267.067 959.179,-259.094 948.752,-260.976 952.202,-267.067"/>
</g>
<!-- Node25&#45;&gt;Node5 -->
<g id="edge84" class="edge"><title>Node25&#45;&gt;Node5</title>
<path fill="none" stroke="midnightblue" d="M1009.5,-240.369C1050.89,-229.379 1122.71,-210.304 1170.3,-197.666"/>
<polygon fill="midnightblue" stroke="midnightblue" points="1171.31,-201.022 1180.07,-195.072 1169.51,-194.256 1171.31,-201.022"/>
</g>
<!-- Node25&#45;&gt;Node16 -->
<g id="edge86" class="edge"><title>Node25&#45;&gt;Node16</title>
<path fill="none" stroke="midnightblue" d="M958.778,-238.859C940.02,-228.42 910.58,-212.036 889.093,-200.078"/>
<polygon fill="midnightblue" stroke="midnightblue" points="890.577,-196.898 880.137,-195.094 887.173,-203.015 890.577,-196.898"/>
</g>
<!-- Node25&#45;&gt;Node20 -->
<g id="edge78" class="edge"><title>Node25&#45;&gt;Node20</title>
<path fill="none" stroke="midnightblue" d="M973.209,-238.807C966.945,-223.137 953.095,-192.957 933,-174 917.919,-159.773 897.7,-148.811 880.057,-141.067"/>
<polygon fill="midnightblue" stroke="midnightblue" points="881.146,-137.728 870.57,-137.095 878.443,-144.185 881.146,-137.728"/>
</g>
<!-- Node25&#45;&gt;Node26 -->
<g id="edge80" class="edge"><title>Node25&#45;&gt;Node26</title>
<path fill="none" stroke="midnightblue" d="M995.064,-238.859C1013.66,-228.42 1042.84,-212.036 1064.14,-200.078"/>
<polygon fill="midnightblue" stroke="midnightblue" points="1066.01,-203.041 1073.02,-195.094 1062.59,-196.937 1066.01,-203.041"/>
</g>
<!-- Node27 -->
<g id="node71" class="node"><title>Node27</title>
<polygon fill="white" stroke="#bfbfbf" points="979.5,-175 979.5,-195 1032.5,-195 1032.5,-175 979.5,-175"/>
<text text-anchor="middle" x="1006" y="-182" font-family="FreeSans" font-size="10.00">iostream</text>
</g>
<!-- Node25&#45;&gt;Node27 -->
<g id="edge88" class="edge"><title>Node25&#45;&gt;Node27</title>
<path fill="none" stroke="midnightblue" d="M981.659,-238.717C985.87,-229.425 992.176,-215.508 997.315,-204.168"/>
<polygon fill="midnightblue" stroke="midnightblue" points="1000.51,-205.599 1001.45,-195.046 994.132,-202.71 1000.51,-205.599"/>
</g>
<!-- Node26&#45;&gt;Node20 -->
<g id="edge82" class="edge"><title>Node26&#45;&gt;Node20</title>
<path fill="none" stroke="midnightblue" d="M1049.44,-175.357C1006.23,-165.334 938.555,-149.633 892.109,-138.857"/>
<polygon fill="midnightblue" stroke="midnightblue" points="892.779,-135.42 882.246,-136.569 891.197,-142.239 892.779,-135.42"/>
</g>
</g>
</svg>
