<?xml version="1.0" encoding="UTF-8" standalone="no"?>
<!DOCTYPE svg PUBLIC "-//W3C//DTD SVG 1.1//EN"
 "http://www.w3.org/Graphics/SVG/1.1/DTD/svg11.dtd">
<!-- Generated by graphviz version 2.38.0 (20140413.2041)
 -->
<!-- Title: GasKinetics.cpp Pages: 1 -->
<svg width="826pt" height="386pt"
 viewBox="0.00 0.00 825.67 386.00" xmlns="http://www.w3.org/2000/svg" xmlns:xlink="http://www.w3.org/1999/xlink">
<g id="graph0" class="graph" transform="scale(1 1) rotate(0) translate(4 382)">
<title>GasKinetics.cpp</title>
<polygon fill="white" stroke="none" points="-4,4 -4,-382 821.668,-382 821.668,4 -4,4"/>
<!-- Node1 -->
<g id="node1" class="node"><title>Node1</title>
<polygon fill="#bfbfbf" stroke="black" points="451.523,-358.5 451.523,-377.5 540.523,-377.5 540.523,-358.5 451.523,-358.5"/>
<text text-anchor="middle" x="496.023" y="-365.5" font-family="Helvetica,sans-Serif" font-size="10.00">GasKinetics.cpp</text>
</g>
<!-- Node2 -->
<g id="node2" class="node"><title>Node2</title>
<g id="a_node2"><a xlink:href="GasKinetics_8h.html" target="_top" xlink:title="cantera/kinetics/GasKinetics.h">
<polygon fill="white" stroke="black" points="421.023,-302.5 421.023,-321.5 571.023,-321.5 571.023,-302.5 421.023,-302.5"/>
<text text-anchor="middle" x="496.023" y="-309.5" font-family="Helvetica,sans-Serif" font-size="10.00">cantera/kinetics/GasKinetics.h</text>
</a>
</g>
</g>
<!-- Node1&#45;&gt;Node2 -->
<g id="edge1" class="edge"><title>Node1&#45;&gt;Node2</title>
<path fill="none" stroke="midnightblue" d="M496.023,-358.083C496.023,-351.006 496.023,-340.861 496.023,-331.986"/>
<polygon fill="midnightblue" stroke="midnightblue" points="499.523,-331.751 496.023,-321.751 492.523,-331.751 499.523,-331.751"/>
</g>
<!-- Node3 -->
<g id="node3" class="node"><title>Node3</title>
<g id="a_node3"><a xlink:href="BulkKinetics_8h.html" target="_top" xlink:title="BulkKinetics.h">
<polygon fill="white" stroke="black" points="492.023,-246.5 492.023,-265.5 572.023,-265.5 572.023,-246.5 492.023,-246.5"/>
<text text-anchor="middle" x="532.023" y="-253.5" font-family="Helvetica,sans-Serif" font-size="10.00">BulkKinetics.h</text>
</a>
</g>
</g>
<!-- Node2&#45;&gt;Node3 -->
<g id="edge2" class="edge"><title>Node2&#45;&gt;Node3</title>
<path fill="none" stroke="midnightblue" d="M501.967,-302.083C507,-294.534 514.36,-283.495 520.536,-274.23"/>
<polygon fill="midnightblue" stroke="midnightblue" points="523.554,-276.013 526.189,-265.751 517.729,-272.13 523.554,-276.013"/>
</g>
<!-- Node9 -->
<g id="node9" class="node"><title>Node9</title>
<g id="a_node9"><a xlink:href="Reaction_8h.html" target="_top" xlink:title="cantera/kinetics/Reaction.h">
<polygon fill="white" stroke="black" points="393.023,-129 393.023,-148 529.023,-148 529.023,-129 393.023,-129"/>
<text text-anchor="middle" x="461.023" y="-136" font-family="Helvetica,sans-Serif" font-size="10.00">cantera/kinetics/Reaction.h</text>
</a>
</g>
</g>
<!-- Node2&#45;&gt;Node9 -->
<g id="edge27" class="edge"><title>Node2&#45;&gt;Node9</title>
<path fill="none" stroke="midnightblue" d="M493.249,-302.446C490.403,-293.447 485.984,-278.837 483.023,-266 474.285,-228.122 467.243,-183.151 463.641,-158.325"/>
<polygon fill="midnightblue" stroke="midnightblue" points="467.068,-157.562 462.195,-148.154 460.138,-158.547 467.068,-157.562"/>
</g>
<!-- Node15 -->
<g id="node15" class="node"><title>Node15</title>
<g id="a_node15"><a xlink:href="ThirdBodyCalc_8h.html" target="_top" xlink:title="ThirdBodyCalc.h">
<polygon fill="white" stroke="black" points="727.523,-246.5 727.523,-265.5 816.523,-265.5 816.523,-246.5 727.523,-246.5"/>
<text text-anchor="middle" x="772.023" y="-253.5" font-family="Helvetica,sans-Serif" font-size="10.00">ThirdBodyCalc.h</text>
</a>
</g>
</g>
<!-- Node2&#45;&gt;Node15 -->
<g id="edge18" class="edge"><title>Node2&#45;&gt;Node15</title>
<path fill="none" stroke="midnightblue" d="M539.756,-302.444C588.206,-292.964 666.352,-277.675 718.441,-267.483"/>
<polygon fill="midnightblue" stroke="midnightblue" points="719.352,-270.871 728.494,-265.516 718.008,-264.002 719.352,-270.871"/>
</g>
<!-- Node17 -->
<g id="node17" class="node"><title>Node17</title>
<g id="a_node17"><a xlink:href="FalloffMgr_8h.html" target="_top" xlink:title="FalloffMgr.h">
<polygon fill="white" stroke="black" points="244.023,-190.5 244.023,-209.5 312.023,-209.5 312.023,-190.5 244.023,-190.5"/>
<text text-anchor="middle" x="278.023" y="-197.5" font-family="Helvetica,sans-Serif" font-size="10.00">FalloffMgr.h</text>
</a>
</g>
</g>
<!-- Node2&#45;&gt;Node17 -->
<g id="edge21" class="edge"><title>Node2&#45;&gt;Node17</title>
<path fill="none" stroke="midnightblue" d="M478.917,-302.368C440.951,-283.211 349.439,-237.036 304.217,-214.217"/>
<polygon fill="midnightblue" stroke="midnightblue" points="305.554,-210.972 295.049,-209.591 302.4,-217.221 305.554,-210.972"/>
</g>
<!-- Node4 -->
<g id="node4" class="node"><title>Node4</title>
<g id="a_node4"><a xlink:href="Kinetics_8h.html" target="_top" xlink:title="Base class for kinetics managers and also contains the kineticsmgr module documentation (see Kinetics...">
<polygon fill="white" stroke="black" points="634.023,-190.5 634.023,-209.5 694.023,-209.5 694.023,-190.5 634.023,-190.5"/>
<text text-anchor="middle" x="664.023" y="-197.5" font-family="Helvetica,sans-Serif" font-size="10.00">Kinetics.h</text>
</a>
</g>
</g>
<!-- Node3&#45;&gt;Node4 -->
<g id="edge3" class="edge"><title>Node3&#45;&gt;Node4</title>
<path fill="none" stroke="midnightblue" d="M552.939,-246.444C574.759,-237.517 609.173,-223.439 633.915,-213.317"/>
<polygon fill="midnightblue" stroke="midnightblue" points="635.275,-216.542 643.205,-209.516 632.624,-210.063 635.275,-216.542"/>
</g>
<!-- Node14 -->
<g id="node14" class="node"><title>Node14</title>
<g id="a_node14"><a xlink:href="RateCoeffMgr_8h.html" target="_top" xlink:title="RateCoeffMgr.h">
<polygon fill="white" stroke="black" points="489.023,-190.5 489.023,-209.5 575.023,-209.5 575.023,-190.5 489.023,-190.5"/>
<text text-anchor="middle" x="532.023" y="-197.5" font-family="Helvetica,sans-Serif" font-size="10.00">RateCoeffMgr.h</text>
</a>
</g>
</g>
<!-- Node3&#45;&gt;Node14 -->
<g id="edge16" class="edge"><title>Node3&#45;&gt;Node14</title>
<path fill="none" stroke="midnightblue" d="M532.023,-246.083C532.023,-239.006 532.023,-228.861 532.023,-219.986"/>
<polygon fill="midnightblue" stroke="midnightblue" points="535.523,-219.751 532.023,-209.751 528.523,-219.751 535.523,-219.751"/>
</g>
<!-- Node5 -->
<g id="node5" class="node"><title>Node5</title>
<g id="a_node5"><a xlink:href="ThermoPhase_8h.html" target="_top" xlink:title="Header file for class ThermoPhase, the base class for phases with thermodynamic properties, and the text for the Module thermoprops (see Thermodynamic Properties and class ThermoPhase). ">
<polygon fill="white" stroke="red" points="644.023,-67.5 644.023,-86.5 798.023,-86.5 798.023,-67.5 644.023,-67.5"/>
<text text-anchor="middle" x="721.023" y="-74.5" font-family="Helvetica,sans-Serif" font-size="10.00">cantera/thermo/ThermoPhase.h</text>
</a>
</g>
</g>
<!-- Node4&#45;&gt;Node5 -->
<g id="edge4" class="edge"><title>Node4&#45;&gt;Node5</title>
<path fill="none" stroke="midnightblue" d="M694.044,-194.561C717.788,-189.299 749.448,-177.99 765.023,-154 772.525,-142.444 770.224,-135.758 765.023,-123 760.223,-111.225 750.694,-100.856 741.728,-93.0486"/>
<polygon fill="midnightblue" stroke="midnightblue" points="743.778,-90.2048 733.804,-86.6314 739.372,-95.6448 743.778,-90.2048"/>
</g>
<!-- Node6 -->
<g id="node6" class="node"><title>Node6</title>
<g id="a_node6"><a xlink:href="global_8h.html" target="_top" xlink:title="This file contains definitions for utility functions and text for modules, inputfiles, logs, textlogs, (see Input File Handling, Diagnostic Output, and Writing messages to the screen). ">
<polygon fill="white" stroke="red" points="589.023,-6 589.023,-25 699.023,-25 699.023,-6 589.023,-6"/>
<text text-anchor="middle" x="644.023" y="-13" font-family="Helvetica,sans-Serif" font-size="10.00">cantera/base/global.h</text>
</a>
</g>
</g>
<!-- Node4&#45;&gt;Node6 -->
<g id="edge15" class="edge"><title>Node4&#45;&gt;Node6</title>
<path fill="none" stroke="midnightblue" d="M694.221,-194.621C720.61,-189.304 758.311,-177.883 782.023,-154 810.368,-125.45 830.893,-99.3849 807.023,-67 784.705,-36.7215 744.43,-24.055 709.5,-18.9787"/>
<polygon fill="midnightblue" stroke="midnightblue" points="709.696,-15.4756 699.334,-17.6877 708.814,-22.4198 709.696,-15.4756"/>
</g>
<!-- Node7 -->
<g id="node7" class="node"><title>Node7</title>
<g id="a_node7"><a xlink:href="StoichManager_8h.html" target="_top" xlink:title="StoichManager.h">
<polygon fill="white" stroke="red" points="547.023,-129 547.023,-148 637.023,-148 637.023,-129 547.023,-129"/>
<text text-anchor="middle" x="592.023" y="-136" font-family="Helvetica,sans-Serif" font-size="10.00">StoichManager.h</text>
</a>
</g>
</g>
<!-- Node4&#45;&gt;Node7 -->
<g id="edge6" class="edge"><title>Node4&#45;&gt;Node7</title>
<path fill="none" stroke="midnightblue" d="M653.707,-190.475C642.372,-181.108 623.949,-165.884 610.184,-154.508"/>
<polygon fill="midnightblue" stroke="midnightblue" points="612.258,-151.681 602.319,-148.009 607.798,-157.077 612.258,-151.681"/>
</g>
<!-- Node8 -->
<g id="node8" class="node"><title>Node8</title>
<g id="a_node8"><a xlink:href="mix__defs_8h.html" target="_top" xlink:title="cantera/thermo/mix\l_defs.h">
<polygon fill="white" stroke="black" points="655.523,-123.5 655.523,-153.5 756.523,-153.5 756.523,-123.5 655.523,-123.5"/>
<text text-anchor="start" x="663.523" y="-141.5" font-family="Helvetica,sans-Serif" font-size="10.00">cantera/thermo/mix</text>
<text text-anchor="middle" x="706.023" y="-130.5" font-family="Helvetica,sans-Serif" font-size="10.00">_defs.h</text>
</a>
</g>
</g>
<!-- Node4&#45;&gt;Node8 -->
<g id="edge7" class="edge"><title>Node4&#45;&gt;Node8</title>
<path fill="none" stroke="midnightblue" d="M670.04,-190.475C675.303,-183.019 683.186,-171.852 690.233,-161.869"/>
<polygon fill="midnightblue" stroke="midnightblue" points="693.217,-163.711 696.124,-153.523 687.498,-159.674 693.217,-163.711"/>
</g>
<!-- Node4&#45;&gt;Node9 -->
<g id="edge8" class="edge"><title>Node4&#45;&gt;Node9</title>
<path fill="none" stroke="midnightblue" d="M634.938,-190.475C599.438,-180.07 539.277,-162.437 499.849,-150.88"/>
<polygon fill="midnightblue" stroke="midnightblue" points="500.634,-147.463 490.054,-148.009 498.666,-154.181 500.634,-147.463"/>
</g>
<!-- Node5&#45;&gt;Node6 -->
<g id="edge5" class="edge"><title>Node5&#45;&gt;Node6</title>
<path fill="none" stroke="midnightblue" d="M709.99,-67.4751C697.754,-58.0199 677.794,-42.5961 663.03,-31.1871"/>
<polygon fill="midnightblue" stroke="midnightblue" points="665.087,-28.3541 655.034,-25.0091 660.807,-33.8931 665.087,-28.3541"/>
</g>
<!-- Node10 -->
<g id="node10" class="node"><title>Node10</title>
<g id="a_node10"><a xlink:href="utilities_8h.html" target="_top" xlink:title="Various templated functions that carry out common vector operations (see Templated Utility Functions)...">
<polygon fill="white" stroke="red" points="510.523,-67.5 510.523,-86.5 625.523,-86.5 625.523,-67.5 510.523,-67.5"/>
<text text-anchor="middle" x="568.023" y="-74.5" font-family="Helvetica,sans-Serif" font-size="10.00">cantera/base/utilities.h</text>
</a>
</g>
</g>
<!-- Node9&#45;&gt;Node10 -->
<g id="edge9" class="edge"><title>Node9&#45;&gt;Node10</title>
<path fill="none" stroke="midnightblue" d="M476.353,-128.975C493.992,-119.166 523.182,-102.935 543.88,-91.425"/>
<polygon fill="midnightblue" stroke="midnightblue" points="545.682,-94.4279 552.721,-86.5091 542.28,-88.3102 545.682,-94.4279"/>
</g>
<!-- Node11 -->
<g id="node11" class="node"><title>Node11</title>
<g id="a_node11"><a xlink:href="RxnRates_8h.html" target="_top" xlink:title="cantera/kinetics/RxnRates.h">
<polygon fill="white" stroke="red" points="351.523,-67.5 351.523,-86.5 492.523,-86.5 492.523,-67.5 351.523,-67.5"/>
<text text-anchor="middle" x="422.023" y="-74.5" font-family="Helvetica,sans-Serif" font-size="10.00">cantera/kinetics/RxnRates.h</text>
</a>
</g>
</g>
<!-- Node9&#45;&gt;Node11 -->
<g id="edge11" class="edge"><title>Node9&#45;&gt;Node11</title>
<path fill="none" stroke="midnightblue" d="M455.435,-128.975C449.643,-120.138 440.434,-106.089 433.149,-94.975"/>
<polygon fill="midnightblue" stroke="midnightblue" points="436.009,-92.9539 427.6,-86.5091 430.155,-96.7913 436.009,-92.9539"/>
</g>
<!-- Node13 -->
<g id="node13" class="node"><title>Node13</title>
<g id="a_node13"><a xlink:href="Falloff_8h_source.html" target="_top" xlink:title="cantera/kinetics/Falloff.h">
<polygon fill="white" stroke="black" points="171.023,-67.5 171.023,-86.5 295.023,-86.5 295.023,-67.5 171.023,-67.5"/>
<text text-anchor="middle" x="233.023" y="-74.5" font-family="Helvetica,sans-Serif" font-size="10.00">cantera/kinetics/Falloff.h</text>
</a>
</g>
</g>
<!-- Node9&#45;&gt;Node13 -->
<g id="edge13" class="edge"><title>Node9&#45;&gt;Node13</title>
<path fill="none" stroke="midnightblue" d="M428.356,-128.975C388.145,-118.482 319.765,-100.637 275.507,-89.087"/>
<polygon fill="midnightblue" stroke="midnightblue" points="276.189,-85.6477 265.629,-86.5091 274.421,-92.4208 276.189,-85.6477"/>
</g>
<!-- Node10&#45;&gt;Node6 -->
<g id="edge10" class="edge"><title>Node10&#45;&gt;Node6</title>
<path fill="none" stroke="midnightblue" d="M578.912,-67.4751C590.989,-58.0199 610.69,-42.5961 625.263,-31.1871"/>
<polygon fill="midnightblue" stroke="midnightblue" points="627.438,-33.9295 633.154,-25.0091 623.122,-28.4177 627.438,-33.9295"/>
</g>
<!-- Node12 -->
<g id="node12" class="node"><title>Node12</title>
<g id="a_node12"><a xlink:href="reaction__defs_8h.html" target="_top" xlink:title="This file defines some constants used to specify reaction types. ">
<polygon fill="white" stroke="red" points="171.523,-0.5 171.523,-30.5 294.523,-30.5 294.523,-0.5 171.523,-0.5"/>
<text text-anchor="start" x="179.523" y="-18.5" font-family="Helvetica,sans-Serif" font-size="10.00">cantera/kinetics/reaction</text>
<text text-anchor="middle" x="233.023" y="-7.5" font-family="Helvetica,sans-Serif" font-size="10.00">_defs.h</text>
</a>
</g>
</g>
<!-- Node11&#45;&gt;Node12 -->
<g id="edge12" class="edge"><title>Node11&#45;&gt;Node12</title>
<path fill="none" stroke="midnightblue" d="M394.944,-67.4751C366.954,-58.6635 322.499,-44.6684 287.245,-33.5698"/>
<polygon fill="midnightblue" stroke="midnightblue" points="288.156,-30.1874 277.566,-30.523 286.054,-36.8644 288.156,-30.1874"/>
</g>
<!-- Node13&#45;&gt;Node12 -->
<g id="edge14" class="edge"><title>Node13&#45;&gt;Node12</title>
<path fill="none" stroke="midnightblue" d="M233.023,-67.4751C233.023,-60.471 233.023,-50.1919 233.023,-40.6956"/>
<polygon fill="midnightblue" stroke="midnightblue" points="236.523,-40.5229 233.023,-30.523 229.523,-40.523 236.523,-40.5229"/>
</g>
<!-- Node14&#45;&gt;Node11 -->
<g id="edge17" class="edge"><title>Node14&#45;&gt;Node11</title>
<path fill="none" stroke="midnightblue" d="M488.904,-198.863C454.387,-196.185 407.929,-186.256 384.023,-154 369.831,-134.852 388.688,-109.603 404.531,-93.5796"/>
<polygon fill="midnightblue" stroke="midnightblue" points="407.102,-95.9638 411.908,-86.522 402.263,-90.9055 407.102,-95.9638"/>
</g>
<!-- Node15&#45;&gt;Node10 -->
<g id="edge19" class="edge"><title>Node15&#45;&gt;Node10</title>
<path fill="none" stroke="midnightblue" d="M781.043,-246.34C789.095,-237.932 800.321,-224.363 805.023,-210 818.263,-169.554 799.446,-148.024 765.023,-123 744.491,-108.075 684.225,-95.6445 635.706,-87.6574"/>
<polygon fill="midnightblue" stroke="midnightblue" points="635.979,-84.1563 625.549,-86.0212 634.865,-91.0672 635.979,-84.1563"/>
</g>
<!-- Node16 -->
<g id="node16" class="node"><title>Node16</title>
<polygon fill="white" stroke="#bfbfbf" points="747.523,-190.5 747.523,-209.5 796.523,-209.5 796.523,-190.5 747.523,-190.5"/>
<text text-anchor="middle" x="772.023" y="-197.5" font-family="Helvetica,sans-Serif" font-size="10.00">cassert</text>
</g>
<!-- Node15&#45;&gt;Node16 -->
<g id="edge20" class="edge"><title>Node15&#45;&gt;Node16</title>
<path fill="none" stroke="midnightblue" d="M772.023,-246.083C772.023,-239.006 772.023,-228.861 772.023,-219.986"/>
<polygon fill="midnightblue" stroke="midnightblue" points="775.523,-219.751 772.023,-209.751 768.523,-219.751 775.523,-219.751"/>
</g>
<!-- Node17&#45;&gt;Node6 -->
<g id="edge26" class="edge"><title>Node17&#45;&gt;Node6</title>
<path fill="none" stroke="midnightblue" d="M279.456,-190.166C283.869,-166.044 299.612,-98.7425 342.023,-67 378.476,-39.7164 501.376,-26.3342 578.703,-20.4659"/>
<polygon fill="midnightblue" stroke="midnightblue" points="579.115,-23.9451 588.831,-19.7203 578.601,-16.964 579.115,-23.9451"/>
</g>
<!-- Node17&#45;&gt;Node12 -->
<g id="edge22" class="edge"><title>Node17&#45;&gt;Node12</title>
<path fill="none" stroke="midnightblue" d="M243.632,-196.669C183.022,-190.49 58.4584,-168.059 4.02272,-87 -0.932904,-79.6207 -1.54491,-73.9292 4.02272,-67 23.5485,-42.6992 101.661,-29.4007 161.279,-22.6373"/>
<polygon fill="midnightblue" stroke="midnightblue" points="161.865,-26.0942 171.426,-21.5283 161.104,-19.1357 161.865,-26.0942"/>
</g>
<!-- Node18 -->
<g id="node18" class="node"><title>Node18</title>
<g id="a_node18"><a xlink:href="FalloffFactory_8h.html" target="_top" xlink:title="Parameterizations for reaction falloff functions. ">
<polygon fill="white" stroke="black" points="190.523,-129 190.523,-148 275.523,-148 275.523,-129 190.523,-129"/>
<text text-anchor="middle" x="233.023" y="-136" font-family="Helvetica,sans-Serif" font-size="10.00">FalloffFactory.h</text>
</a>
</g>
</g>
<!-- Node17&#45;&gt;Node18 -->
<g id="edge23" class="edge"><title>Node17&#45;&gt;Node18</title>
<path fill="none" stroke="midnightblue" d="M271.575,-190.475C264.825,-181.55 254.053,-167.307 245.61,-156.143"/>
<polygon fill="midnightblue" stroke="midnightblue" points="248.282,-153.874 239.458,-148.009 242.699,-158.096 248.282,-153.874"/>
</g>
<!-- Node18&#45;&gt;Node13 -->
<g id="edge25" class="edge"><title>Node18&#45;&gt;Node13</title>
<path fill="none" stroke="midnightblue" d="M233.023,-128.975C233.023,-120.58 233.023,-107.481 233.023,-96.6631"/>
<polygon fill="midnightblue" stroke="midnightblue" points="236.523,-96.5091 233.023,-86.5091 229.523,-96.5091 236.523,-96.5091"/>
</g>
<!-- Node19 -->
<g id="node19" class="node"><title>Node19</title>
<g id="a_node19"><a xlink:href="FactoryBase_8h.html" target="_top" xlink:title="File contains the FactoryBase class declarations. ">
<polygon fill="white" stroke="red" points="13.0227,-67.5 13.0227,-86.5 153.023,-86.5 153.023,-67.5 13.0227,-67.5"/>
<text text-anchor="middle" x="83.0227" y="-74.5" font-family="Helvetica,sans-Serif" font-size="10.00">cantera/base/FactoryBase.h</text>
</a>
</g>
</g>
<!-- Node18&#45;&gt;Node19 -->
<g id="edge24" class="edge"><title>Node18&#45;&gt;Node19</title>
<path fill="none" stroke="midnightblue" d="M211.531,-128.975C185.912,-118.813 142.913,-101.756 113.778,-90.1996"/>
<polygon fill="midnightblue" stroke="midnightblue" points="115.06,-86.9429 104.474,-86.5091 112.479,-93.4497 115.06,-86.9429"/>
</g>
</g>
</svg>
