<?xml version="1.0" encoding="UTF-8" standalone="no"?>
<!DOCTYPE svg PUBLIC "-//W3C//DTD SVG 1.1//EN"
 "http://www.w3.org/Graphics/SVG/1.1/DTD/svg11.dtd">
<!-- Generated by graphviz version 2.38.0 (20140413.2041)
 -->
<!-- Title: GasTransport.h Pages: 1 -->
<svg width="497pt" height="196pt"
 viewBox="0.00 0.00 497.00 196.00" xmlns="http://www.w3.org/2000/svg" xmlns:xlink="http://www.w3.org/1999/xlink">
<g id="graph0" class="graph" transform="scale(1 1) rotate(0) translate(4 192)">
<title>GasTransport.h</title>
<polygon fill="white" stroke="none" points="-4,4 -4,-192 493,-192 493,4 -4,4"/>
<!-- Node1 -->
<g id="node1" class="node"><title>Node1</title>
<polygon fill="#bfbfbf" stroke="black" points="118,-168.5 118,-187.5 202,-187.5 202,-168.5 118,-168.5"/>
<text text-anchor="middle" x="160" y="-175.5" font-family="Helvetica,sans-Serif" font-size="10.00">GasTransport.h</text>
</g>
<!-- Node2 -->
<g id="node2" class="node"><title>Node2</title>
<g id="a_node2"><a xlink:href="GasTransport_8cpp.html" target="_top" xlink:title="GasTransport.cpp">
<polygon fill="white" stroke="black" points="0.5,-112.5 0.5,-131.5 95.5,-131.5 95.5,-112.5 0.5,-112.5"/>
<text text-anchor="middle" x="48" y="-119.5" font-family="Helvetica,sans-Serif" font-size="10.00">GasTransport.cpp</text>
</a>
</g>
</g>
<!-- Node1&#45;&gt;Node2 -->
<g id="edge1" class="edge"><title>Node1&#45;&gt;Node2</title>
<path fill="none" stroke="midnightblue" d="M132.751,-163.862C111.984,-153.849 83.9766,-140.346 65.9501,-131.655"/>
<polygon fill="midnightblue" stroke="midnightblue" points="131.477,-167.134 142.005,-168.324 134.518,-160.828 131.477,-167.134"/>
</g>
<!-- Node3 -->
<g id="node3" class="node"><title>Node3</title>
<g id="a_node3"><a xlink:href="HighPressureGasTransport_8h.html" target="_top" xlink:title="Interface for class HighPressureGasTransport. ">
<polygon fill="white" stroke="black" points="5.5,-56.5 5.5,-75.5 148.5,-75.5 148.5,-56.5 5.5,-56.5"/>
<text text-anchor="middle" x="77" y="-63.5" font-family="Helvetica,sans-Serif" font-size="10.00">HighPressureGasTransport.h</text>
</a>
</g>
</g>
<!-- Node1&#45;&gt;Node3 -->
<g id="edge2" class="edge"><title>Node1&#45;&gt;Node3</title>
<path fill="none" stroke="midnightblue" d="M147.378,-160.272C129.437,-136.494 97.2135,-93.7889 83.4826,-75.5914"/>
<polygon fill="midnightblue" stroke="midnightblue" points="144.67,-162.494 153.487,-168.368 150.258,-158.278 144.67,-162.494"/>
</g>
<!-- Node6 -->
<g id="node6" class="node"><title>Node6</title>
<g id="a_node6"><a xlink:href="MixTransport_8h.html" target="_top" xlink:title="Headers for the MixTransport object, which models transport properties in ideal gas solutions using a...">
<polygon fill="white" stroke="black" points="328,-112.5 328,-131.5 410,-131.5 410,-112.5 328,-112.5"/>
<text text-anchor="middle" x="369" y="-119.5" font-family="Helvetica,sans-Serif" font-size="10.00">MixTransport.h</text>
</a>
</g>
</g>
<!-- Node1&#45;&gt;Node6 -->
<g id="edge5" class="edge"><title>Node1&#45;&gt;Node6</title>
<path fill="none" stroke="midnightblue" d="M202.984,-165.894C242.452,-155.697 300.1,-140.802 336.038,-131.516"/>
<polygon fill="midnightblue" stroke="midnightblue" points="201.923,-162.553 193.117,-168.444 203.674,-169.331 201.923,-162.553"/>
</g>
<!-- Node8 -->
<g id="node8" class="node"><title>Node8</title>
<g id="a_node8"><a xlink:href="MultiTransport_8h.html" target="_top" xlink:title="Interface for class MultiTransport. ">
<polygon fill="white" stroke="black" points="152.5,-112.5 152.5,-131.5 239.5,-131.5 239.5,-112.5 152.5,-112.5"/>
<text text-anchor="middle" x="196" y="-119.5" font-family="Helvetica,sans-Serif" font-size="10.00">MultiTransport.h</text>
</a>
</g>
</g>
<!-- Node1&#45;&gt;Node8 -->
<g id="edge8" class="edge"><title>Node1&#45;&gt;Node8</title>
<path fill="none" stroke="midnightblue" d="M171.623,-159.566C177.817,-150.275 185.168,-139.248 190.166,-131.751"/>
<polygon fill="midnightblue" stroke="midnightblue" points="168.58,-157.821 165.945,-168.083 174.404,-161.704 168.58,-157.821"/>
</g>
<!-- Node4 -->
<g id="node4" class="node"><title>Node4</title>
<g id="a_node4"><a xlink:href="HighPressureGasTransport_8cpp.html" target="_top" xlink:title="Implementation file for class HighPressureGasTransport. ">
<polygon fill="white" stroke="black" points="0,-0.5 0,-19.5 154,-19.5 154,-0.5 0,-0.5"/>
<text text-anchor="middle" x="77" y="-7.5" font-family="Helvetica,sans-Serif" font-size="10.00">HighPressureGasTransport.cpp</text>
</a>
</g>
</g>
<!-- Node3&#45;&gt;Node4 -->
<g id="edge3" class="edge"><title>Node3&#45;&gt;Node4</title>
<path fill="none" stroke="midnightblue" d="M77,-45.8045C77,-36.9102 77,-26.7798 77,-19.7511"/>
<polygon fill="midnightblue" stroke="midnightblue" points="73.5001,-46.083 77,-56.083 80.5001,-46.083 73.5001,-46.083"/>
</g>
<!-- Node5 -->
<g id="node5" class="node"><title>Node5</title>
<g id="a_node5"><a xlink:href="TransportFactory_8cpp.html" target="_top" xlink:title="Implementation file for class TransportFactory. ">
<polygon fill="white" stroke="black" points="172,-0.5 172,-19.5 282,-19.5 282,-0.5 172,-0.5"/>
<text text-anchor="middle" x="227" y="-7.5" font-family="Helvetica,sans-Serif" font-size="10.00">TransportFactory.cpp</text>
</a>
</g>
</g>
<!-- Node3&#45;&gt;Node5 -->
<g id="edge4" class="edge"><title>Node3&#45;&gt;Node5</title>
<path fill="none" stroke="midnightblue" d="M110.225,-53.0392C138.448,-42.8786 178.262,-28.5457 203.343,-19.5164"/>
<polygon fill="midnightblue" stroke="midnightblue" points="108.991,-49.7632 100.768,-56.4435 111.362,-56.3494 108.991,-49.7632"/>
</g>
<!-- Node6&#45;&gt;Node5 -->
<g id="edge7" class="edge"><title>Node6&#45;&gt;Node5</title>
<path fill="none" stroke="midnightblue" d="M367.958,-102.013C366.208,-87.6971 361.663,-68.4637 350,-56 332.133,-36.9067 305.497,-25.8866 281.577,-19.5395"/>
<polygon fill="midnightblue" stroke="midnightblue" points="364.492,-102.556 368.844,-112.216 371.466,-101.95 364.492,-102.556"/>
</g>
<!-- Node7 -->
<g id="node7" class="node"><title>Node7</title>
<g id="a_node7"><a xlink:href="MixTransport_8cpp.html" target="_top" xlink:title="Mixture&#45;averaged transport properties for ideal gas mixtures. ">
<polygon fill="white" stroke="black" points="397,-56.5 397,-75.5 489,-75.5 489,-56.5 397,-56.5"/>
<text text-anchor="middle" x="443" y="-63.5" font-family="Helvetica,sans-Serif" font-size="10.00">MixTransport.cpp</text>
</a>
</g>
</g>
<!-- Node6&#45;&gt;Node7 -->
<g id="edge6" class="edge"><title>Node6&#45;&gt;Node7</title>
<path fill="none" stroke="midnightblue" d="M389.034,-106.38C402.409,-96.6204 419.559,-84.1057 430.894,-75.8339"/>
<polygon fill="midnightblue" stroke="midnightblue" points="386.904,-103.602 380.889,-112.324 391.03,-109.257 386.904,-103.602"/>
</g>
<!-- Node8&#45;&gt;Node3 -->
<g id="edge12" class="edge"><title>Node8&#45;&gt;Node3</title>
<path fill="none" stroke="midnightblue" d="M167.863,-108.232C145.604,-98.1312 115.144,-84.3091 95.7677,-75.5164"/>
<polygon fill="midnightblue" stroke="midnightblue" points="166.591,-111.498 177.144,-112.444 169.484,-105.124 166.591,-111.498"/>
</g>
<!-- Node8&#45;&gt;Node4 -->
<g id="edge9" class="edge"><title>Node8&#45;&gt;Node4</title>
<path fill="none" stroke="midnightblue" d="M188.497,-103.323C181.826,-89.1978 170.97,-69.5837 157,-56 140.206,-39.6698 116.32,-27.2561 99.0252,-19.6455"/>
<polygon fill="midnightblue" stroke="midnightblue" points="185.315,-104.78 192.6,-112.473 191.703,-101.916 185.315,-104.78"/>
</g>
<!-- Node8&#45;&gt;Node5 -->
<g id="edge11" class="edge"><title>Node8&#45;&gt;Node5</title>
<path fill="none" stroke="midnightblue" d="M201.165,-102.674C207.942,-78.6248 219.563,-37.3881 224.579,-19.5914"/>
<polygon fill="midnightblue" stroke="midnightblue" points="197.776,-101.794 198.433,-112.368 204.514,-103.693 197.776,-101.794"/>
</g>
<!-- Node9 -->
<g id="node9" class="node"><title>Node9</title>
<g id="a_node9"><a xlink:href="MultiTransport_8cpp.html" target="_top" xlink:title="Implementation file for class MultiTransport. ">
<polygon fill="white" stroke="black" points="243,-56.5 243,-75.5 341,-75.5 341,-56.5 243,-56.5"/>
<text text-anchor="middle" x="292" y="-63.5" font-family="Helvetica,sans-Serif" font-size="10.00">MultiTransport.cpp</text>
</a>
</g>
</g>
<!-- Node8&#45;&gt;Node9 -->
<g id="edge10" class="edge"><title>Node8&#45;&gt;Node9</title>
<path fill="none" stroke="midnightblue" d="M220.574,-107.177C238.239,-97.2407 261.513,-84.1492 276.614,-75.6545"/>
<polygon fill="midnightblue" stroke="midnightblue" points="218.424,-104.371 211.424,-112.324 221.856,-110.472 218.424,-104.371"/>
</g>
</g>
</svg>
