<?xml version="1.0" encoding="UTF-8" standalone="no"?>
<!DOCTYPE svg PUBLIC "-//W3C//DTD SVG 1.1//EN"
 "http://www.w3.org/Graphics/SVG/1.1/DTD/svg11.dtd">
<!-- Generated by graphviz version 2.36.0 (20140111.2315)
 -->
<!-- Title: GibbsExcessVPSSTP.cpp Pages: 1 -->
<svg width="724pt" height="432pt"
 viewBox="0.00 0.00 724.00 432.00" xmlns="http://www.w3.org/2000/svg" xmlns:xlink="http://www.w3.org/1999/xlink">
<g id="graph0" class="graph" transform="scale(1 1) rotate(0) translate(4 428)">
<title>GibbsExcessVPSSTP.cpp</title>
<polygon fill="white" stroke="none" points="-4,4 -4,-428 720,-428 720,4 -4,4"/>
<!-- Node1 -->
<g id="node1" class="node"><title>Node1</title>
<polygon fill="#bfbfbf" stroke="black" points="396,-404.5 396,-423.5 524,-423.5 524,-404.5 396,-404.5"/>
<text text-anchor="middle" x="460" y="-411.5" font-family="FreeSans" font-size="10.00">GibbsExcessVPSSTP.cpp</text>
</g>
<!-- Node2 -->
<g id="node2" class="node"><title>Node2</title>
<g id="a_node2"><a xlink:href="GibbsExcessVPSSTP_8h.html" target="_top" xlink:title="Header for intermediate ThermoPhase object for phases which employ Gibbs excess free energy based for...">
<polygon fill="white" stroke="black" points="325,-337 325,-367 465,-367 465,-337 325,-337"/>
<text text-anchor="start" x="333" y="-355" font-family="FreeSans" font-size="10.00">cantera/thermo/GibbsExcess</text>
<text text-anchor="middle" x="395" y="-344" font-family="FreeSans" font-size="10.00">VPSSTP.h</text>
</a>
</g>
</g>
<!-- Node1&#45;&gt;Node2 -->
<g id="edge1" class="edge"><title>Node1&#45;&gt;Node2</title>
<path fill="none" stroke="midnightblue" d="M450.687,-404.403C442.131,-396.505 429.1,-384.477 417.794,-374.041"/>
<polygon fill="midnightblue" stroke="midnightblue" points="420.041,-371.352 410.319,-367.141 415.293,-376.495 420.041,-371.352"/>
</g>
<!-- Node19 -->
<g id="node19" class="node"><title>Node19</title>
<g id="a_node19"><a xlink:href="stringUtils_8h.html" target="_top" xlink:title="Contains declarations for string manipulation functions within Cantera. ">
<polygon fill="white" stroke="black" points="591.5,-168.5 591.5,-187.5 716.5,-187.5 716.5,-168.5 591.5,-168.5"/>
<text text-anchor="middle" x="654" y="-175.5" font-family="FreeSans" font-size="10.00">cantera/base/stringUtils.h</text>
</a>
</g>
</g>
<!-- Node1&#45;&gt;Node19 -->
<g id="edge22" class="edge"><title>Node1&#45;&gt;Node19</title>
<path fill="none" stroke="midnightblue" d="M467.135,-404.394C495.649,-370.001 601.727,-242.051 640.064,-195.81"/>
<polygon fill="midnightblue" stroke="midnightblue" points="642.905,-197.866 646.593,-187.934 637.516,-193.398 642.905,-197.866"/>
</g>
<!-- Node3 -->
<g id="node3" class="node"><title>Node3</title>
<g id="a_node3"><a xlink:href="VPStandardStateTP_8h.html" target="_top" xlink:title="Header file for a derived class of ThermoPhase that handles variable pressure standard state methods ...">
<polygon fill="white" stroke="black" points="339,-280.5 339,-299.5 451,-299.5 451,-280.5 339,-280.5"/>
<text text-anchor="middle" x="395" y="-287.5" font-family="FreeSans" font-size="10.00">VPStandardStateTP.h</text>
</a>
</g>
</g>
<!-- Node2&#45;&gt;Node3 -->
<g id="edge2" class="edge"><title>Node2&#45;&gt;Node3</title>
<path fill="none" stroke="midnightblue" d="M395,-336.781C395,-328.781 395,-318.689 395,-310.017"/>
<polygon fill="midnightblue" stroke="midnightblue" points="398.5,-309.73 395,-299.731 391.5,-309.731 398.5,-309.73"/>
</g>
<!-- Node13 -->
<g id="node13" class="node"><title>Node13</title>
<g id="a_node13"><a xlink:href="Array_8h.html" target="_top" xlink:title="Header file for class Cantera::Array2D. ">
<polygon fill="white" stroke="black" points="182.5,-280.5 182.5,-299.5 287.5,-299.5 287.5,-280.5 182.5,-280.5"/>
<text text-anchor="middle" x="235" y="-287.5" font-family="FreeSans" font-size="10.00">cantera/base/Array.h</text>
</a>
</g>
</g>
<!-- Node2&#45;&gt;Node13 -->
<g id="edge14" class="edge"><title>Node2&#45;&gt;Node13</title>
<path fill="none" stroke="midnightblue" d="M357.487,-336.933C330.132,-326.674 293.439,-312.915 267.365,-303.137"/>
<polygon fill="midnightblue" stroke="midnightblue" points="268.526,-299.834 257.933,-299.6 266.068,-306.388 268.526,-299.834"/>
</g>
<!-- Node4 -->
<g id="node4" class="node"><title>Node4</title>
<g id="a_node4"><a xlink:href="ThermoPhase_8h.html" target="_top" xlink:title="Header file for class ThermoPhase, the base class for phases with thermodynamic properties, and the text for the Module thermoprops (see Thermodynamic Properties and class ThermoPhase). ">
<polygon fill="white" stroke="black" points="309,-224.5 309,-243.5 393,-243.5 393,-224.5 309,-224.5"/>
<text text-anchor="middle" x="351" y="-231.5" font-family="FreeSans" font-size="10.00">ThermoPhase.h</text>
</a>
</g>
</g>
<!-- Node3&#45;&gt;Node4 -->
<g id="edge3" class="edge"><title>Node3&#45;&gt;Node4</title>
<path fill="none" stroke="midnightblue" d="M387.734,-280.083C381.455,-272.377 372.212,-261.033 364.569,-251.653"/>
<polygon fill="midnightblue" stroke="midnightblue" points="367.161,-249.293 358.131,-243.751 361.734,-253.714 367.161,-249.293"/>
</g>
<!-- Node11 -->
<g id="node11" class="node"><title>Node11</title>
<g id="a_node11"><a xlink:href="VPSSMgr_8h.html" target="_top" xlink:title="Declaration file for a virtual base class that manages the calculation of standard state properties f...">
<polygon fill="white" stroke="black" points="411.5,-224.5 411.5,-243.5 478.5,-243.5 478.5,-224.5 411.5,-224.5"/>
<text text-anchor="middle" x="445" y="-231.5" font-family="FreeSans" font-size="10.00">VPSSMgr.h</text>
</a>
</g>
</g>
<!-- Node3&#45;&gt;Node11 -->
<g id="edge11" class="edge"><title>Node3&#45;&gt;Node11</title>
<path fill="none" stroke="midnightblue" d="M403.256,-280.083C410.465,-272.298 421.11,-260.801 429.846,-251.367"/>
<polygon fill="midnightblue" stroke="midnightblue" points="432.671,-253.467 436.897,-243.751 427.535,-248.711 432.671,-253.467"/>
</g>
<!-- Node5 -->
<g id="node5" class="node"><title>Node5</title>
<g id="a_node5"><a xlink:href="Phase_8h.html" target="_top" xlink:title="Header file for class Phase. ">
<polygon fill="white" stroke="red" points="184.5,-168.5 184.5,-187.5 235.5,-187.5 235.5,-168.5 184.5,-168.5"/>
<text text-anchor="middle" x="210" y="-175.5" font-family="FreeSans" font-size="10.00">Phase.h</text>
</a>
</g>
</g>
<!-- Node4&#45;&gt;Node5 -->
<g id="edge4" class="edge"><title>Node4&#45;&gt;Node5</title>
<path fill="none" stroke="midnightblue" d="M328.658,-224.444C305.247,-215.478 268.264,-201.314 241.81,-191.183"/>
<polygon fill="midnightblue" stroke="midnightblue" points="242.828,-187.824 232.237,-187.516 240.324,-194.361 242.828,-187.824"/>
</g>
<!-- Node6 -->
<g id="node6" class="node"><title>Node6</title>
<g id="a_node6"><a xlink:href="MultiSpeciesThermo_8h.html" target="_top" xlink:title="Header for a general species thermodynamic property manager for a phase (see MultiSpeciesThermo). ">
<polygon fill="white" stroke="red" points="380.5,-168.5 380.5,-187.5 493.5,-187.5 493.5,-168.5 380.5,-168.5"/>
<text text-anchor="middle" x="437" y="-175.5" font-family="FreeSans" font-size="10.00">MultiSpeciesThermo.h</text>
</a>
</g>
</g>
<!-- Node4&#45;&gt;Node6 -->
<g id="edge5" class="edge"><title>Node4&#45;&gt;Node6</title>
<path fill="none" stroke="midnightblue" d="M364.817,-224.324C378.233,-215.9 398.824,-202.971 414.586,-193.074"/>
<polygon fill="midnightblue" stroke="midnightblue" points="416.609,-195.936 423.217,-187.655 412.887,-190.008 416.609,-195.936"/>
</g>
<!-- Node7 -->
<g id="node7" class="node"><title>Node7</title>
<g id="a_node7"><a xlink:href="global_8h.html" target="_top" xlink:title="This file contains definitions for utility functions and text for modules, inputfiles, logs, textlogs, (see Input File Handling, Diagnostic Output, and Writing messages to the screen). ">
<polygon fill="white" stroke="black" points="254,-168.5 254,-187.5 362,-187.5 362,-168.5 254,-168.5"/>
<text text-anchor="middle" x="308" y="-175.5" font-family="FreeSans" font-size="10.00">cantera/base/global.h</text>
</a>
</g>
</g>
<!-- Node4&#45;&gt;Node7 -->
<g id="edge6" class="edge"><title>Node4&#45;&gt;Node7</title>
<path fill="none" stroke="midnightblue" d="M343.899,-224.083C337.763,-216.377 328.73,-205.033 321.261,-195.653"/>
<polygon fill="midnightblue" stroke="midnightblue" points="323.936,-193.394 314.968,-187.751 318.46,-197.754 323.936,-193.394"/>
</g>
<!-- Node8 -->
<g id="node8" class="node"><title>Node8</title>
<g id="a_node8"><a xlink:href="ct__defs_8h.html" target="_top" xlink:title="This file contains definitions of terms that are used in internal routines and are unlikely to need m...">
<polygon fill="white" stroke="red" points="444,-56.5 444,-75.5 500,-75.5 500,-56.5 444,-56.5"/>
<text text-anchor="middle" x="472" y="-63.5" font-family="FreeSans" font-size="10.00">ct_defs.h</text>
</a>
</g>
</g>
<!-- Node7&#45;&gt;Node8 -->
<g id="edge7" class="edge"><title>Node7&#45;&gt;Node8</title>
<path fill="none" stroke="midnightblue" d="M320.869,-168.368C349.011,-149.492 416.262,-104.385 450.774,-81.2367"/>
<polygon fill="midnightblue" stroke="midnightblue" points="452.836,-84.0685 459.191,-75.5914 448.936,-78.2551 452.836,-84.0685"/>
</g>
<!-- Node10 -->
<g id="node10" class="node"><title>Node10</title>
<g id="a_node10"><a xlink:href="fmt_8h.html" target="_top" xlink:title="Wrapper for either system&#45;installed or local headers for fmt. ">
<polygon fill="white" stroke="red" points="423.5,-112.5 423.5,-131.5 520.5,-131.5 520.5,-112.5 423.5,-112.5"/>
<text text-anchor="middle" x="472" y="-119.5" font-family="FreeSans" font-size="10.00">cantera/base/fmt.h</text>
</a>
</g>
</g>
<!-- Node7&#45;&gt;Node10 -->
<g id="edge9" class="edge"><title>Node7&#45;&gt;Node10</title>
<path fill="none" stroke="midnightblue" d="M333.986,-168.444C361.696,-159.32 405.752,-144.813 436.616,-134.651"/>
<polygon fill="midnightblue" stroke="midnightblue" points="437.732,-137.968 446.135,-131.516 435.542,-131.32 437.732,-137.968"/>
</g>
<!-- Node9 -->
<g id="node9" class="node"><title>Node9</title>
<polygon fill="white" stroke="#bfbfbf" points="538,-0.5 538,-19.5 578,-19.5 578,-0.5 538,-0.5"/>
<text text-anchor="middle" x="558" y="-7.5" font-family="FreeSans" font-size="10.00">string</text>
</g>
<!-- Node8&#45;&gt;Node9 -->
<g id="edge8" class="edge"><title>Node8&#45;&gt;Node9</title>
<path fill="none" stroke="midnightblue" d="M485.817,-56.324C499.233,-47.9002 519.824,-34.9709 535.586,-25.0741"/>
<polygon fill="midnightblue" stroke="midnightblue" points="537.609,-27.9364 544.217,-19.6545 533.887,-22.0081 537.609,-27.9364"/>
</g>
<!-- Node10&#45;&gt;Node8 -->
<g id="edge10" class="edge"><title>Node10&#45;&gt;Node8</title>
<path fill="none" stroke="midnightblue" d="M472,-112.083C472,-105.006 472,-94.8611 472,-85.9865"/>
<polygon fill="midnightblue" stroke="midnightblue" points="475.5,-85.751 472,-75.7511 468.5,-85.7511 475.5,-85.751"/>
</g>
<!-- Node11&#45;&gt;Node7 -->
<g id="edge13" class="edge"><title>Node11&#45;&gt;Node7</title>
<path fill="none" stroke="midnightblue" d="M423.292,-224.444C400.645,-215.517 364.928,-201.439 339.248,-191.317"/>
<polygon fill="midnightblue" stroke="midnightblue" points="340.193,-187.927 329.606,-187.516 337.626,-194.44 340.193,-187.927"/>
</g>
<!-- Node12 -->
<g id="node12" class="node"><title>Node12</title>
<g id="a_node12"><a xlink:href="mix__defs_8h.html" target="_top" xlink:title="mix_defs.h">
<polygon fill="white" stroke="black" points="512,-168.5 512,-187.5 574,-187.5 574,-168.5 512,-168.5"/>
<text text-anchor="middle" x="543" y="-175.5" font-family="FreeSans" font-size="10.00">mix_defs.h</text>
</a>
</g>
</g>
<!-- Node11&#45;&gt;Node12 -->
<g id="edge12" class="edge"><title>Node11&#45;&gt;Node12</title>
<path fill="none" stroke="midnightblue" d="M460.745,-224.324C476.319,-215.743 500.377,-202.486 518.459,-192.522"/>
<polygon fill="midnightblue" stroke="midnightblue" points="520.224,-195.546 527.294,-187.655 516.846,-189.415 520.224,-195.546"/>
</g>
<!-- Node14 -->
<g id="node14" class="node"><title>Node14</title>
<g id="a_node14"><a xlink:href="utilities_8h.html" target="_top" xlink:title="Various templated functions that carry out common vector operations (see Templated Utility Functions)...">
<polygon fill="white" stroke="black" points="102,-224.5 102,-243.5 156,-243.5 156,-224.5 102,-224.5"/>
<text text-anchor="middle" x="129" y="-231.5" font-family="FreeSans" font-size="10.00">utilities.h</text>
</a>
</g>
</g>
<!-- Node13&#45;&gt;Node14 -->
<g id="edge15" class="edge"><title>Node13&#45;&gt;Node14</title>
<path fill="none" stroke="midnightblue" d="M217.969,-280.324C200.97,-271.664 174.624,-258.242 155.007,-248.249"/>
<polygon fill="midnightblue" stroke="midnightblue" points="156.488,-245.075 145.988,-243.655 153.31,-251.312 156.488,-245.075"/>
</g>
<!-- Node17 -->
<g id="node17" class="node"><title>Node17</title>
<polygon fill="white" stroke="#bfbfbf" points="174.5,-224.5 174.5,-243.5 227.5,-243.5 227.5,-224.5 174.5,-224.5"/>
<text text-anchor="middle" x="201" y="-231.5" font-family="FreeSans" font-size="10.00">iostream</text>
</g>
<!-- Node13&#45;&gt;Node17 -->
<g id="edge20" class="edge"><title>Node13&#45;&gt;Node17</title>
<path fill="none" stroke="midnightblue" d="M229.386,-280.083C224.633,-272.534 217.682,-261.495 211.848,-252.23"/>
<polygon fill="midnightblue" stroke="midnightblue" points="214.8,-250.349 206.51,-243.751 208.876,-254.078 214.8,-250.349"/>
</g>
<!-- Node18 -->
<g id="node18" class="node"><title>Node18</title>
<polygon fill="white" stroke="#bfbfbf" points="245.5,-224.5 245.5,-243.5 290.5,-243.5 290.5,-224.5 245.5,-224.5"/>
<text text-anchor="middle" x="268" y="-231.5" font-family="FreeSans" font-size="10.00">cstring</text>
</g>
<!-- Node13&#45;&gt;Node18 -->
<g id="edge21" class="edge"><title>Node13&#45;&gt;Node18</title>
<path fill="none" stroke="midnightblue" d="M240.449,-280.083C245.014,-272.613 251.668,-261.724 257.293,-252.52"/>
<polygon fill="midnightblue" stroke="midnightblue" points="260.424,-254.109 262.652,-243.751 254.451,-250.459 260.424,-254.109"/>
</g>
<!-- Node14&#45;&gt;Node7 -->
<g id="edge17" class="edge"><title>Node14&#45;&gt;Node7</title>
<path fill="none" stroke="midnightblue" d="M156.186,-224.799C186.54,-215.641 235.879,-200.757 270.032,-190.454"/>
<polygon fill="midnightblue" stroke="midnightblue" points="271.106,-193.786 279.669,-187.547 269.085,-187.084 271.106,-193.786"/>
</g>
<!-- Node14&#45;&gt;Node8 -->
<g id="edge16" class="edge"><title>Node14&#45;&gt;Node8</title>
<path fill="none" stroke="midnightblue" d="M133.032,-224.079C139.771,-210.14 154.617,-183.219 175,-168 255.278,-108.06 373.54,-82.1112 433.746,-72.2534"/>
<polygon fill="midnightblue" stroke="midnightblue" points="434.608,-75.6609 443.942,-70.648 433.519,-68.7461 434.608,-75.6609"/>
</g>
<!-- Node15 -->
<g id="node15" class="node"><title>Node15</title>
<polygon fill="white" stroke="#bfbfbf" points="0,-168.5 0,-187.5 58,-187.5 58,-168.5 0,-168.5"/>
<text text-anchor="middle" x="29" y="-175.5" font-family="FreeSans" font-size="10.00">stdexcept</text>
</g>
<!-- Node14&#45;&gt;Node15 -->
<g id="edge18" class="edge"><title>Node14&#45;&gt;Node15</title>
<path fill="none" stroke="midnightblue" d="M112.933,-224.324C97.0422,-215.743 72.4926,-202.486 54.0415,-192.522"/>
<polygon fill="midnightblue" stroke="midnightblue" points="55.489,-189.326 45.0269,-187.655 52.1629,-195.486 55.489,-189.326"/>
</g>
<!-- Node16 -->
<g id="node16" class="node"><title>Node16</title>
<polygon fill="white" stroke="#bfbfbf" points="76.5,-168.5 76.5,-187.5 127.5,-187.5 127.5,-168.5 76.5,-168.5"/>
<text text-anchor="middle" x="102" y="-175.5" font-family="FreeSans" font-size="10.00">numeric</text>
</g>
<!-- Node14&#45;&gt;Node16 -->
<g id="edge19" class="edge"><title>Node14&#45;&gt;Node16</title>
<path fill="none" stroke="midnightblue" d="M124.541,-224.083C120.846,-216.691 115.477,-205.953 110.906,-196.811"/>
<polygon fill="midnightblue" stroke="midnightblue" points="113.978,-195.13 106.376,-187.751 107.717,-198.261 113.978,-195.13"/>
</g>
<!-- Node19&#45;&gt;Node8 -->
<g id="edge23" class="edge"><title>Node19&#45;&gt;Node8</title>
<path fill="none" stroke="midnightblue" d="M639.719,-168.368C608.355,-149.412 533.219,-104.001 495.068,-80.9424"/>
<polygon fill="midnightblue" stroke="midnightblue" points="496.584,-77.7687 486.215,-75.5914 492.963,-83.7595 496.584,-77.7687"/>
</g>
<!-- Node19&#45;&gt;Node9 -->
<g id="edge25" class="edge"><title>Node19&#45;&gt;Node9</title>
<path fill="none" stroke="midnightblue" d="M648.839,-168.075C633.597,-141.719 588.58,-63.878 568.213,-28.6608"/>
<polygon fill="midnightblue" stroke="midnightblue" points="570.991,-26.4726 562.955,-19.5681 564.932,-29.977 570.991,-26.4726"/>
</g>
<!-- Node19&#45;&gt;Node10 -->
<g id="edge24" class="edge"><title>Node19&#45;&gt;Node10</title>
<path fill="none" stroke="midnightblue" d="M625.162,-168.444C594.144,-159.241 544.671,-144.562 510.382,-134.388"/>
<polygon fill="midnightblue" stroke="midnightblue" points="511.286,-131.006 500.704,-131.516 509.295,-137.716 511.286,-131.006"/>
</g>
</g>
</svg>
