<?xml version="1.0" encoding="UTF-8" standalone="no"?>
<!DOCTYPE svg PUBLIC "-//W3C//DTD SVG 1.1//EN"
 "http://www.w3.org/Graphics/SVG/1.1/DTD/svg11.dtd">
<!-- Generated by graphviz version 2.36.0 (20140111.2315)
 -->
<!-- Title: global.cpp Pages: 1 -->
<svg width="806pt" height="252pt"
 viewBox="0.00 0.00 805.63 252.00" xmlns="http://www.w3.org/2000/svg" xmlns:xlink="http://www.w3.org/1999/xlink">
<g id="graph0" class="graph" transform="scale(1 1) rotate(0) translate(4 248)">
<title>global.cpp</title>
<polygon fill="white" stroke="none" points="-4,4 -4,-248 801.631,-248 801.631,4 -4,4"/>
<!-- Node1 -->
<g id="node1" class="node"><title>Node1</title>
<polygon fill="#bfbfbf" stroke="black" points="333,-224.5 333,-243.5 393,-243.5 393,-224.5 333,-224.5"/>
<text text-anchor="middle" x="363" y="-231.5" font-family="FreeSans" font-size="10.00">global.cpp</text>
</g>
<!-- Node2 -->
<g id="node2" class="node"><title>Node2</title>
<g id="a_node2"><a xlink:href="global_8h.html" target="_top" xlink:title="This file contains definitions for utility functions and text for modules, inputfiles, logs, textlogs, (see Input File Handling, Diagnostic Output, and Writing messages to the screen). ">
<polygon fill="white" stroke="black" points="252,-112.5 252,-131.5 360,-131.5 360,-112.5 252,-112.5"/>
<text text-anchor="middle" x="306" y="-119.5" font-family="FreeSans" font-size="10.00">cantera/base/global.h</text>
</a>
</g>
</g>
<!-- Node1&#45;&gt;Node2 -->
<g id="edge1" class="edge"><title>Node1&#45;&gt;Node2</title>
<path fill="none" stroke="midnightblue" d="M358.527,-224.368C349.204,-206.376 327.531,-164.55 315.134,-140.627"/>
<polygon fill="midnightblue" stroke="midnightblue" points="318.16,-138.86 310.452,-131.591 311.945,-142.081 318.16,-138.86"/>
</g>
<!-- Node10 -->
<g id="node10" class="node"><title>Node10</title>
<g id="a_node10"><a xlink:href="ctexceptions_8h.html" target="_top" xlink:title="Definitions for the classes that are thrown when Cantera experiences an error condition (also contain...">
<polygon fill="white" stroke="black" points="96.5,-112.5 96.5,-131.5 233.5,-131.5 233.5,-112.5 96.5,-112.5"/>
<text text-anchor="middle" x="165" y="-119.5" font-family="FreeSans" font-size="10.00">cantera/base/ctexceptions.h</text>
</a>
</g>
</g>
<!-- Node1&#45;&gt;Node10 -->
<g id="edge9" class="edge"><title>Node1&#45;&gt;Node10</title>
<path fill="none" stroke="midnightblue" d="M332.877,-231.212C298.277,-227.76 241.357,-217.644 203,-188 187.52,-176.036 177.151,-155.843 171.209,-141.133"/>
<polygon fill="midnightblue" stroke="midnightblue" points="174.424,-139.737 167.655,-131.587 167.864,-142.18 174.424,-139.737"/>
</g>
<!-- Node12 -->
<g id="node12" class="node"><title>Node12</title>
<g id="a_node12"><a xlink:href="FactoryBase_8h.html" target="_top" xlink:title="File contains the FactoryBase class declarations. ">
<polygon fill="white" stroke="black" points="-0.5,-56.5 -0.5,-75.5 136.5,-75.5 136.5,-56.5 -0.5,-56.5"/>
<text text-anchor="middle" x="68" y="-63.5" font-family="FreeSans" font-size="10.00">cantera/base/FactoryBase.h</text>
</a>
</g>
</g>
<!-- Node1&#45;&gt;Node12 -->
<g id="edge12" class="edge"><title>Node1&#45;&gt;Node12</title>
<path fill="none" stroke="midnightblue" d="M332.972,-231.844C274.946,-227.843 147.79,-210.122 87,-132 76.6312,-118.675 71.9165,-99.8449 69.7753,-85.8795"/>
<polygon fill="midnightblue" stroke="midnightblue" points="73.2451,-85.4187 68.5509,-75.9206 66.2974,-86.2729 73.2451,-85.4187"/>
</g>
<!-- Node13 -->
<g id="node13" class="node"><title>Node13</title>
<g id="a_node13"><a xlink:href="xml_8h.html" target="_top" xlink:title="Classes providing support for XML data files. ">
<polygon fill="white" stroke="black" points="212,-168.5 212,-187.5 310,-187.5 310,-168.5 212,-168.5"/>
<text text-anchor="middle" x="261" y="-175.5" font-family="FreeSans" font-size="10.00">cantera/base/xml.h</text>
</a>
</g>
</g>
<!-- Node1&#45;&gt;Node13 -->
<g id="edge14" class="edge"><title>Node1&#45;&gt;Node13</title>
<path fill="none" stroke="midnightblue" d="M346.612,-224.324C330.329,-215.703 305.133,-202.364 286.284,-192.386"/>
<polygon fill="midnightblue" stroke="midnightblue" points="287.823,-189.24 277.347,-187.655 284.548,-195.427 287.823,-189.24"/>
</g>
<!-- Node14 -->
<g id="node14" class="node"><title>Node14</title>
<g id="a_node14"><a xlink:href="application_8h.html" target="_top" xlink:title="application.h">
<polygon fill="white" stroke="black" points="489.5,-168.5 489.5,-187.5 560.5,-187.5 560.5,-168.5 489.5,-168.5"/>
<text text-anchor="middle" x="525" y="-175.5" font-family="FreeSans" font-size="10.00">application.h</text>
</a>
</g>
</g>
<!-- Node1&#45;&gt;Node14 -->
<g id="edge17" class="edge"><title>Node1&#45;&gt;Node14</title>
<path fill="none" stroke="midnightblue" d="M388.669,-224.444C415.923,-215.359 459.184,-200.939 489.651,-190.783"/>
<polygon fill="midnightblue" stroke="midnightblue" points="491.071,-193.999 499.451,-187.516 488.857,-187.358 491.071,-193.999"/>
</g>
<!-- Node22 -->
<g id="node22" class="node"><title>Node22</title>
<g id="a_node22"><a xlink:href="units_8h.html" target="_top" xlink:title="Header for units conversion utilities, which are used to translate user input from input files (See I...">
<polygon fill="white" stroke="black" points="366,-168.5 366,-187.5 410,-187.5 410,-168.5 366,-168.5"/>
<text text-anchor="middle" x="388" y="-175.5" font-family="FreeSans" font-size="10.00">units.h</text>
</a>
</g>
</g>
<!-- Node1&#45;&gt;Node22 -->
<g id="edge28" class="edge"><title>Node1&#45;&gt;Node22</title>
<path fill="none" stroke="midnightblue" d="M367.128,-224.083C370.514,-216.77 375.416,-206.181 379.619,-197.103"/>
<polygon fill="midnightblue" stroke="midnightblue" points="382.923,-198.296 383.949,-187.751 376.571,-195.355 382.923,-198.296"/>
</g>
<!-- Node23 -->
<g id="node23" class="node"><title>Node23</title>
<polygon fill="white" stroke="#bfbfbf" points="579,-168.5 579,-187.5 621,-187.5 621,-168.5 579,-168.5"/>
<text text-anchor="middle" x="600" y="-175.5" font-family="FreeSans" font-size="10.00">cstdio</text>
</g>
<!-- Node1&#45;&gt;Node23 -->
<g id="edge32" class="edge"><title>Node1&#45;&gt;Node23</title>
<path fill="none" stroke="midnightblue" d="M393.171,-227.074C433.445,-219.012 506.91,-203.776 569,-188 569.098,-187.975 569.197,-187.95 569.296,-187.925"/>
<polygon fill="midnightblue" stroke="midnightblue" points="569.963,-191.37 578.706,-185.387 568.14,-184.611 569.963,-191.37"/>
</g>
<!-- Node24 -->
<g id="node24" class="node"><title>Node24</title>
<polygon fill="white" stroke="#bfbfbf" points="639,-168.5 639,-187.5 689,-187.5 689,-168.5 639,-168.5"/>
<text text-anchor="middle" x="664" y="-175.5" font-family="FreeSans" font-size="10.00">stdarg.h</text>
</g>
<!-- Node1&#45;&gt;Node24 -->
<g id="edge33" class="edge"><title>Node1&#45;&gt;Node24</title>
<path fill="none" stroke="midnightblue" d="M393.075,-228.755C442.529,-221.586 544.02,-206.081 629,-188 629.1,-187.979 629.2,-187.957 629.3,-187.936"/>
<polygon fill="midnightblue" stroke="midnightblue" points="629.865,-191.398 638.825,-185.743 628.294,-184.576 629.865,-191.398"/>
</g>
<!-- Node3 -->
<g id="node3" class="node"><title>Node3</title>
<g id="a_node3"><a xlink:href="ct__defs_8h.html" target="_top" xlink:title="This file contains definitions of terms that are used in internal routines and are unlikely to need m...">
<polygon fill="white" stroke="black" points="278,-56.5 278,-75.5 334,-75.5 334,-56.5 278,-56.5"/>
<text text-anchor="middle" x="306" y="-63.5" font-family="FreeSans" font-size="10.00">ct_defs.h</text>
</a>
</g>
</g>
<!-- Node2&#45;&gt;Node3 -->
<g id="edge2" class="edge"><title>Node2&#45;&gt;Node3</title>
<path fill="none" stroke="midnightblue" d="M306,-112.083C306,-105.006 306,-94.8611 306,-85.9865"/>
<polygon fill="midnightblue" stroke="midnightblue" points="309.5,-85.751 306,-75.7511 302.5,-85.7511 309.5,-85.751"/>
</g>
<!-- Node4 -->
<g id="node4" class="node"><title>Node4</title>
<g id="a_node4"><a xlink:href="config_8h_source.html" target="_top" xlink:title="config.h">
<polygon fill="white" stroke="black" points="597,-0.5 597,-19.5 647,-19.5 647,-0.5 597,-0.5"/>
<text text-anchor="middle" x="622" y="-7.5" font-family="FreeSans" font-size="10.00">config.h</text>
</a>
</g>
</g>
<!-- Node3&#45;&gt;Node4 -->
<g id="edge3" class="edge"><title>Node3&#45;&gt;Node4</title>
<path fill="none" stroke="midnightblue" d="M334.231,-57.8908C337.185,-57.2195 340.149,-56.5758 343,-56 430.243,-38.382 533.939,-23.1366 586.962,-15.7479"/>
<polygon fill="midnightblue" stroke="midnightblue" points="587.445,-19.2145 596.871,-14.3766 586.486,-12.2806 587.445,-19.2145"/>
</g>
<!-- Node5 -->
<g id="node5" class="node"><title>Node5</title>
<polygon fill="white" stroke="#bfbfbf" points="222,-0.5 222,-19.5 266,-19.5 266,-0.5 222,-0.5"/>
<text text-anchor="middle" x="244" y="-7.5" font-family="FreeSans" font-size="10.00">cmath</text>
</g>
<!-- Node3&#45;&gt;Node5 -->
<g id="edge4" class="edge"><title>Node3&#45;&gt;Node5</title>
<path fill="none" stroke="midnightblue" d="M296.039,-56.324C286.873,-48.3414 273.063,-36.3128 261.972,-26.6529"/>
<polygon fill="midnightblue" stroke="midnightblue" points="263.982,-23.7624 254.143,-19.8339 259.385,-29.041 263.982,-23.7624"/>
</g>
<!-- Node6 -->
<g id="node6" class="node"><title>Node6</title>
<polygon fill="white" stroke="#bfbfbf" points="284,-0.5 284,-19.5 328,-19.5 328,-0.5 284,-0.5"/>
<text text-anchor="middle" x="306" y="-7.5" font-family="FreeSans" font-size="10.00">cstdlib</text>
</g>
<!-- Node3&#45;&gt;Node6 -->
<g id="edge5" class="edge"><title>Node3&#45;&gt;Node6</title>
<path fill="none" stroke="midnightblue" d="M306,-56.083C306,-49.0059 306,-38.8611 306,-29.9865"/>
<polygon fill="midnightblue" stroke="midnightblue" points="309.5,-29.751 306,-19.7511 302.5,-29.7511 309.5,-29.751"/>
</g>
<!-- Node7 -->
<g id="node7" class="node"><title>Node7</title>
<polygon fill="white" stroke="#bfbfbf" points="74.5,-0.5 74.5,-19.5 117.5,-19.5 117.5,-0.5 74.5,-0.5"/>
<text text-anchor="middle" x="96" y="-7.5" font-family="FreeSans" font-size="10.00">vector</text>
</g>
<!-- Node3&#45;&gt;Node7 -->
<g id="edge6" class="edge"><title>Node3&#45;&gt;Node7</title>
<path fill="none" stroke="midnightblue" d="M277.678,-57.7173C238.542,-47.6537 168.157,-29.5546 127.437,-19.0837"/>
<polygon fill="midnightblue" stroke="midnightblue" points="128.074,-15.6338 117.517,-16.533 126.331,-22.4132 128.074,-15.6338"/>
</g>
<!-- Node8 -->
<g id="node8" class="node"><title>Node8</title>
<polygon fill="white" stroke="#bfbfbf" points="346.5,-0.5 346.5,-19.5 381.5,-19.5 381.5,-0.5 346.5,-0.5"/>
<text text-anchor="middle" x="364" y="-7.5" font-family="FreeSans" font-size="10.00">map</text>
</g>
<!-- Node3&#45;&gt;Node8 -->
<g id="edge7" class="edge"><title>Node3&#45;&gt;Node8</title>
<path fill="none" stroke="midnightblue" d="M315.319,-56.324C323.893,-48.3414 336.812,-36.3128 347.188,-26.6529"/>
<polygon fill="midnightblue" stroke="midnightblue" points="349.578,-29.2098 354.512,-19.8339 344.808,-24.0865 349.578,-29.2098"/>
</g>
<!-- Node9 -->
<g id="node9" class="node"><title>Node9</title>
<polygon fill="white" stroke="#bfbfbf" points="154,-0.5 154,-19.5 194,-19.5 194,-0.5 154,-0.5"/>
<text text-anchor="middle" x="174" y="-7.5" font-family="FreeSans" font-size="10.00">string</text>
</g>
<!-- Node3&#45;&gt;Node9 -->
<g id="edge8" class="edge"><title>Node3&#45;&gt;Node9</title>
<path fill="none" stroke="midnightblue" d="M285.084,-56.4435C263.136,-47.4646 228.445,-33.2729 203.672,-23.1386"/>
<polygon fill="midnightblue" stroke="midnightblue" points="204.965,-19.886 194.384,-19.339 202.314,-26.3648 204.965,-19.886"/>
</g>
<!-- Node10&#45;&gt;Node9 -->
<g id="edge11" class="edge"><title>Node10&#45;&gt;Node9</title>
<path fill="none" stroke="midnightblue" d="M165.706,-112.368C167.159,-94.617 170.509,-53.6664 172.478,-29.5974"/>
<polygon fill="midnightblue" stroke="midnightblue" points="175.97,-29.8436 173.297,-19.5914 168.993,-29.2727 175.97,-29.8436"/>
</g>
<!-- Node11 -->
<g id="node11" class="node"><title>Node11</title>
<polygon fill="white" stroke="#bfbfbf" points="193,-56.5 193,-75.5 251,-75.5 251,-56.5 193,-56.5"/>
<text text-anchor="middle" x="222" y="-63.5" font-family="FreeSans" font-size="10.00">exception</text>
</g>
<!-- Node10&#45;&gt;Node11 -->
<g id="edge10" class="edge"><title>Node10&#45;&gt;Node11</title>
<path fill="none" stroke="midnightblue" d="M174.158,-112.324C182.501,-104.42 195.032,-92.5482 205.177,-82.9377"/>
<polygon fill="midnightblue" stroke="midnightblue" points="207.823,-85.2522 212.675,-75.8339 203.009,-80.1705 207.823,-85.2522"/>
</g>
<!-- Node12&#45;&gt;Node7 -->
<g id="edge13" class="edge"><title>Node12&#45;&gt;Node7</title>
<path fill="none" stroke="midnightblue" d="M72.6236,-56.083C76.4563,-48.6913 82.0242,-37.9533 86.7646,-28.8111"/>
<polygon fill="midnightblue" stroke="midnightblue" points="89.9663,-30.2398 91.4624,-19.7511 83.752,-27.0175 89.9663,-30.2398"/>
</g>
<!-- Node13&#45;&gt;Node2 -->
<g id="edge16" class="edge"><title>Node13&#45;&gt;Node2</title>
<path fill="none" stroke="midnightblue" d="M268.431,-168.083C274.853,-160.377 284.306,-149.033 292.122,-139.653"/>
<polygon fill="midnightblue" stroke="midnightblue" points="294.994,-141.674 298.707,-131.751 289.617,-137.193 294.994,-141.674"/>
</g>
<!-- Node13&#45;&gt;Node10 -->
<g id="edge15" class="edge"><title>Node13&#45;&gt;Node10</title>
<path fill="none" stroke="midnightblue" d="M245.576,-168.324C230.46,-159.822 207.185,-146.729 189.529,-136.797"/>
<polygon fill="midnightblue" stroke="midnightblue" points="190.817,-133.507 180.386,-131.655 187.386,-139.608 190.817,-133.507"/>
</g>
<!-- Node14&#45;&gt;Node4 -->
<g id="edge18" class="edge"><title>Node14&#45;&gt;Node4</title>
<path fill="none" stroke="midnightblue" d="M560.839,-169.712C563.935,-169.119 567.021,-168.54 570,-168 618.96,-159.119 758.768,-169.908 791,-132 810.387,-109.199 782.384,-72.595 763,-56 732.924,-30.2513 687.973,-19.1962 656.949,-14.4748"/>
<polygon fill="midnightblue" stroke="midnightblue" points="657.388,-11.0022 647.003,-13.1044 656.432,-17.9367 657.388,-11.0022"/>
</g>
<!-- Node15 -->
<g id="node15" class="node"><title>Node15</title>
<g id="a_node15"><a xlink:href="ct__thread_8h.html" target="_top" xlink:title="cantera/base/ct_thread.h">
<polygon fill="white" stroke="black" points="416.5,-112.5 416.5,-131.5 539.5,-131.5 539.5,-112.5 416.5,-112.5"/>
<text text-anchor="middle" x="478" y="-119.5" font-family="FreeSans" font-size="10.00">cantera/base/ct_thread.h</text>
</a>
</g>
</g>
<!-- Node14&#45;&gt;Node15 -->
<g id="edge19" class="edge"><title>Node14&#45;&gt;Node15</title>
<path fill="none" stroke="midnightblue" d="M517.239,-168.083C510.463,-160.298 500.457,-148.801 492.245,-139.367"/>
<polygon fill="midnightblue" stroke="midnightblue" points="494.822,-136.996 485.617,-131.751 489.542,-141.592 494.822,-136.996"/>
</g>
<!-- Node18 -->
<g id="node18" class="node"><title>Node18</title>
<g id="a_node18"><a xlink:href="logger_8h.html" target="_top" xlink:title="Header for Base class for &#39;loggers&#39; that write text messages to log files (see Writing messages to th...">
<polygon fill="white" stroke="black" points="673.5,-112.5 673.5,-131.5 782.5,-131.5 782.5,-112.5 673.5,-112.5"/>
<text text-anchor="middle" x="728" y="-119.5" font-family="FreeSans" font-size="10.00">cantera/base/logger.h</text>
</a>
</g>
</g>
<!-- Node14&#45;&gt;Node18 -->
<g id="edge23" class="edge"><title>Node14&#45;&gt;Node18</title>
<path fill="none" stroke="midnightblue" d="M557.166,-168.444C592.059,-159.162 647.893,-144.309 686.171,-134.127"/>
<polygon fill="midnightblue" stroke="midnightblue" points="687.22,-137.47 695.985,-131.516 685.421,-130.705 687.22,-137.47"/>
</g>
<!-- Node20 -->
<g id="node20" class="node"><title>Node20</title>
<polygon fill="white" stroke="#bfbfbf" points="557.5,-112.5 557.5,-131.5 586.5,-131.5 586.5,-112.5 557.5,-112.5"/>
<text text-anchor="middle" x="572" y="-119.5" font-family="FreeSans" font-size="10.00">set</text>
</g>
<!-- Node14&#45;&gt;Node20 -->
<g id="edge26" class="edge"><title>Node14&#45;&gt;Node20</title>
<path fill="none" stroke="midnightblue" d="M532.761,-168.083C539.537,-160.298 549.543,-148.801 557.755,-139.367"/>
<polygon fill="midnightblue" stroke="midnightblue" points="560.458,-141.592 564.383,-131.751 555.178,-136.996 560.458,-141.592"/>
</g>
<!-- Node21 -->
<g id="node21" class="node"><title>Node21</title>
<polygon fill="white" stroke="#bfbfbf" points="604.5,-112.5 604.5,-131.5 655.5,-131.5 655.5,-112.5 604.5,-112.5"/>
<text text-anchor="middle" x="630" y="-119.5" font-family="FreeSans" font-size="10.00">memory</text>
</g>
<!-- Node14&#45;&gt;Node21 -->
<g id="edge27" class="edge"><title>Node14&#45;&gt;Node21</title>
<path fill="none" stroke="midnightblue" d="M541.87,-168.324C558.709,-159.664 584.807,-146.242 604.238,-136.249"/>
<polygon fill="midnightblue" stroke="midnightblue" points="605.88,-139.341 613.172,-131.655 602.678,-133.116 605.88,-139.341"/>
</g>
<!-- Node15&#45;&gt;Node4 -->
<g id="edge20" class="edge"><title>Node15&#45;&gt;Node4</title>
<path fill="none" stroke="midnightblue" d="M532.89,-112.448C556.978,-106.098 583.845,-95.0792 602,-76 613.817,-63.5818 618.663,-44.3422 620.644,-30.0129"/>
<polygon fill="midnightblue" stroke="midnightblue" points="624.153,-30.1042 621.698,-19.798 617.19,-29.3862 624.153,-30.1042"/>
</g>
<!-- Node16 -->
<g id="node16" class="node"><title>Node16</title>
<polygon fill="white" stroke="#bfbfbf" points="488,-56.5 488,-75.5 594,-75.5 594,-56.5 488,-56.5"/>
<text text-anchor="middle" x="541" y="-63.5" font-family="FreeSans" font-size="10.00">boost/shared_ptr.hpp</text>
</g>
<!-- Node15&#45;&gt;Node16 -->
<g id="edge21" class="edge"><title>Node15&#45;&gt;Node16</title>
<path fill="none" stroke="midnightblue" d="M488.122,-112.324C497.526,-104.263 511.744,-92.0765 523.069,-82.3695"/>
<polygon fill="midnightblue" stroke="midnightblue" points="525.379,-84.9993 530.694,-75.8339 520.823,-79.6844 525.379,-84.9993"/>
</g>
<!-- Node17 -->
<g id="node17" class="node"><title>Node17</title>
<polygon fill="white" stroke="#bfbfbf" points="352.5,-56.5 352.5,-75.5 469.5,-75.5 469.5,-56.5 352.5,-56.5"/>
<text text-anchor="middle" x="411" y="-63.5" font-family="FreeSans" font-size="10.00">boost/thread/mutex.hpp</text>
</g>
<!-- Node15&#45;&gt;Node17 -->
<g id="edge22" class="edge"><title>Node15&#45;&gt;Node17</title>
<path fill="none" stroke="midnightblue" d="M467.235,-112.324C457.234,-104.263 442.113,-92.0765 430.07,-82.3695"/>
<polygon fill="midnightblue" stroke="midnightblue" points="431.943,-79.3841 421.961,-75.8339 427.55,-84.8343 431.943,-79.3841"/>
</g>
<!-- Node18&#45;&gt;Node3 -->
<g id="edge24" class="edge"><title>Node18&#45;&gt;Node3</title>
<path fill="none" stroke="midnightblue" d="M673.201,-113.191C670.089,-112.78 667.006,-112.38 664,-112 524.771,-94.4067 486.089,-100.713 344.154,-76.004"/>
<polygon fill="midnightblue" stroke="midnightblue" points="344.659,-72.5393 334.204,-74.251 343.445,-79.4331 344.659,-72.5393"/>
</g>
<!-- Node19 -->
<g id="node19" class="node"><title>Node19</title>
<polygon fill="white" stroke="#bfbfbf" points="701.5,-56.5 701.5,-75.5 754.5,-75.5 754.5,-56.5 701.5,-56.5"/>
<text text-anchor="middle" x="728" y="-63.5" font-family="FreeSans" font-size="10.00">iostream</text>
</g>
<!-- Node18&#45;&gt;Node19 -->
<g id="edge25" class="edge"><title>Node18&#45;&gt;Node19</title>
<path fill="none" stroke="midnightblue" d="M728,-112.083C728,-105.006 728,-94.8611 728,-85.9865"/>
<polygon fill="midnightblue" stroke="midnightblue" points="731.5,-85.751 728,-75.7511 724.5,-85.7511 731.5,-85.751"/>
</g>
<!-- Node22&#45;&gt;Node3 -->
<g id="edge29" class="edge"><title>Node22&#45;&gt;Node3</title>
<path fill="none" stroke="midnightblue" d="M387.261,-168.22C385.765,-154.939 381.389,-129.447 369,-112 359.732,-98.9483 345.453,-88.3012 332.83,-80.6461"/>
<polygon fill="midnightblue" stroke="midnightblue" points="334.446,-77.5378 324.028,-75.6092 330.969,-83.6136 334.446,-77.5378"/>
</g>
<!-- Node22&#45;&gt;Node10 -->
<g id="edge30" class="edge"><title>Node22&#45;&gt;Node10</title>
<path fill="none" stroke="midnightblue" d="M365.803,-171.625C329.675,-162.876 257.449,-145.387 210.188,-133.942"/>
<polygon fill="midnightblue" stroke="midnightblue" points="210.755,-130.479 200.212,-131.527 209.107,-137.282 210.755,-130.479"/>
</g>
<!-- Node22&#45;&gt;Node15 -->
<g id="edge31" class="edge"><title>Node22&#45;&gt;Node15</title>
<path fill="none" stroke="midnightblue" d="M402.46,-168.324C416.5,-159.9 438.048,-146.971 454.543,-137.074"/>
<polygon fill="midnightblue" stroke="midnightblue" points="456.802,-139.801 463.576,-131.655 453.2,-133.798 456.802,-139.801"/>
</g>
</g>
</svg>
