<?xml version="1.0" encoding="UTF-8" standalone="no"?>
<!DOCTYPE svg PUBLIC "-//W3C//DTD SVG 1.1//EN"
 "http://www.w3.org/Graphics/SVG/1.1/DTD/svg11.dtd">
<!-- Generated by graphviz version 2.38.0 (20151222.1943)
 -->
<!-- Title: Writing messages to the screen Pages: 1 -->
<svg width="430pt" height="79pt"
 viewBox="0.00 0.00 430.00 78.50" xmlns="http://www.w3.org/2000/svg" xmlns:xlink="http://www.w3.org/1999/xlink">
<g id="graph0" class="graph" transform="scale(1 1) rotate(0) translate(4 74.5)">
<title>Writing messages to the screen</title>
<polygon fill="white" stroke="none" points="-4,4 -4,-74.5 426,-74.5 426,4 -4,4"/>
<!-- Node2 -->
<g id="node1" class="node"><title>Node2</title>
<g id="a_node1"><a xlink:href="group__globalData.html" target="_top" xlink:title="Global Data">
<polygon fill="white" stroke="black" points="355,-6 355,-25 422,-25 422,-6 355,-6"/>
<text text-anchor="middle" x="388.5" y="-13" font-family="FreeSans" font-size="10.00">Global Data</text>
</a>
</g>
</g>
<!-- Node1 -->
<g id="node2" class="node"><title>Node1</title>
<g id="a_node2"><a xlink:href="group__logs.html" target="_top" xlink:title="Diagnostic Output">
<polygon fill="white" stroke="black" points="0,-6 0,-25 93,-25 93,-6 0,-6"/>
<text text-anchor="middle" x="46.5" y="-13" font-family="FreeSans" font-size="10.00">Diagnostic Output</text>
</a>
</g>
</g>
<!-- Node0 -->
<g id="node3" class="node"><title>Node0</title>
<polygon fill="#bfbfbf" stroke="black" points="130,-0.5 130,-30.5 232,-30.5 232,-0.5 130,-0.5"/>
<text text-anchor="start" x="138" y="-18.5" font-family="FreeSans" font-size="10.00">Writing messages to</text>
<text text-anchor="middle" x="181" y="-7.5" font-family="FreeSans" font-size="10.00"> the screen</text>
</g>
<!-- Node1&#45;&gt;Node0 -->
<g id="edge1" class="edge"><title>Node1&#45;&gt;Node0</title>
<path fill="none" stroke="black" d="M103.272,-15.5C112.069,-15.5 121.119,-15.5 129.781,-15.5"/>
<polygon fill="black" stroke="black" points="103.099,-12.0001 93.099,-15.5 103.099,-19.0001 103.099,-12.0001"/>
</g>
<!-- Node0&#45;&gt;Node2 -->
<g id="edge2" class="edge"><title>Node0&#45;&gt;Node2</title>
<path fill="none" stroke="orange" stroke-dasharray="5,2" d="M232.008,-15.5C270.264,-15.5 321.902,-15.5 354.958,-15.5"/>
<text text-anchor="start" x="250" y="-62.5" font-family="FreeSans" font-size="10.00">Cantera::Application</text>
<text text-anchor="middle" x="293.5" y="-51.5" font-family="FreeSans" font-size="10.00">::Messages</text>
<text text-anchor="start" x="250" y="-40.5" font-family="FreeSans" font-size="10.00">Cantera::Application</text>
<text text-anchor="middle" x="293.5" y="-29.5" font-family="FreeSans" font-size="10.00">::ThreadMessages</text>
<text text-anchor="middle" x="293.5" y="-18.5" font-family="FreeSans" font-size="10.00">Cantera::Application</text>
</g>
</g>
</svg>
