<?xml version="1.0" encoding="UTF-8" standalone="no"?>
<!DOCTYPE svg PUBLIC "-//W3C//DTD SVG 1.1//EN"
 "http://www.w3.org/Graphics/SVG/1.1/DTD/svg11.dtd">
<!-- Generated by graphviz version 2.38.0 (20151222.1943)
 -->
<!-- Title: HighPressureGasTransport.cpp Pages: 1 -->
<svg width="1144pt" height="565pt"
 viewBox="0.00 0.00 1143.50 565.00" xmlns="http://www.w3.org/2000/svg" xmlns:xlink="http://www.w3.org/1999/xlink">
<g id="graph0" class="graph" transform="scale(1 1) rotate(0) translate(4 561)">
<title>HighPressureGasTransport.cpp</title>
<polygon fill="white" stroke="none" points="-4,4 -4,-561 1139.5,-561 1139.5,4 -4,4"/>
<!-- Node1 -->
<g id="node1" class="node"><title>Node1</title>
<polygon fill="#bfbfbf" stroke="black" points="497,-537.5 497,-556.5 646,-556.5 646,-537.5 497,-537.5"/>
<text text-anchor="middle" x="571.5" y="-544.5" font-family="FreeSans" font-size="10.00">HighPressureGasTransport.cpp</text>
</g>
<!-- Node2 -->
<g id="node2" class="node"><title>Node2</title>
<g id="a_node2"><a xlink:href="HighPressureGasTransport_8h.html" target="_top" xlink:title="Interface for class HighPressureGasTransport. ">
<polygon fill="white" stroke="black" points="404,-403.5 404,-433.5 553,-433.5 553,-403.5 404,-403.5"/>
<text text-anchor="start" x="412" y="-421.5" font-family="FreeSans" font-size="10.00">cantera/transport/HighPressure</text>
<text text-anchor="middle" x="478.5" y="-410.5" font-family="FreeSans" font-size="10.00">GasTransport.h</text>
</a>
</g>
</g>
<!-- Node1&#45;&gt;Node2 -->
<g id="edge1" class="edge"><title>Node1&#45;&gt;Node2</title>
<path fill="none" stroke="midnightblue" d="M565.108,-537.305C550.827,-517.88 515.948,-470.438 495.07,-442.038"/>
<polygon fill="midnightblue" stroke="midnightblue" points="497.821,-439.872 489.078,-433.888 492.181,-444.018 497.821,-439.872"/>
</g>
<!-- Node13 -->
<g id="node13" class="node"><title>Node13</title>
<g id="a_node13"><a xlink:href="utilities_8h.html" target="_top" xlink:title="Various templated functions that carry out common vector operations (see Templated Utility Functions)...">
<polygon fill="white" stroke="red" points="368.5,-112.5 368.5,-131.5 422.5,-131.5 422.5,-112.5 368.5,-112.5"/>
<text text-anchor="middle" x="395.5" y="-119.5" font-family="FreeSans" font-size="10.00">utilities.h</text>
</a>
</g>
</g>
<!-- Node1&#45;&gt;Node13 -->
<g id="edge25" class="edge"><title>Node1&#45;&gt;Node13</title>
<path fill="none" stroke="midnightblue" d="M509.34,-537.469C405.377,-521.44 207.5,-482.639 207.5,-419.5 207.5,-419.5 207.5,-419.5 207.5,-356 207.5,-313.778 232.847,-307.943 264.5,-280 288.676,-258.658 305.338,-267.427 327.5,-244 353.452,-216.566 346.545,-200.663 365.5,-168 370.979,-158.559 377.668,-148.413 383.338,-140.149"/>
<polygon fill="midnightblue" stroke="midnightblue" points="386.341,-141.962 389.189,-131.757 380.599,-137.959 386.341,-141.962"/>
</g>
<!-- Node14 -->
<g id="node14" class="node"><title>Node14</title>
<g id="a_node14"><a xlink:href="MultiTransport_8h.html" target="_top" xlink:title="Interface for class MultiTransport. ">
<polygon fill="white" stroke="black" points="272,-347.5 272,-366.5 433,-366.5 433,-347.5 272,-347.5"/>
<text text-anchor="middle" x="352.5" y="-354.5" font-family="FreeSans" font-size="10.00">cantera/transport/MultiTransport.h</text>
</a>
</g>
</g>
<!-- Node1&#45;&gt;Node14 -->
<g id="edge49" class="edge"><title>Node1&#45;&gt;Node14</title>
<path fill="none" stroke="midnightblue" d="M551.441,-537.406C516.04,-521.425 441.761,-484.15 394.5,-434 378.555,-417.08 366.579,-392.965 359.577,-376.464"/>
<polygon fill="midnightblue" stroke="midnightblue" points="362.693,-374.833 355.702,-366.872 356.202,-377.455 362.693,-374.833"/>
</g>
<!-- Node17 -->
<g id="node17" class="node"><title>Node17</title>
<g id="a_node17"><a xlink:href="ctlapack_8h.html" target="_top" xlink:title="cantera/numerics/ctlapack.h">
<polygon fill="white" stroke="black" points="536.5,-112.5 536.5,-131.5 674.5,-131.5 674.5,-112.5 536.5,-112.5"/>
<text text-anchor="middle" x="605.5" y="-119.5" font-family="FreeSans" font-size="10.00">cantera/numerics/ctlapack.h</text>
</a>
</g>
</g>
<!-- Node1&#45;&gt;Node17 -->
<g id="edge23" class="edge"><title>Node1&#45;&gt;Node17</title>
<path fill="none" stroke="midnightblue" d="M574.585,-537.232C581.472,-516.848 597.5,-464.566 597.5,-419.5 597.5,-419.5 597.5,-419.5 597.5,-233 597.5,-200.863 600.939,-163.584 603.307,-141.719"/>
<polygon fill="midnightblue" stroke="midnightblue" points="606.812,-141.872 604.454,-131.542 599.856,-141.087 606.812,-141.872"/>
</g>
<!-- Node18 -->
<g id="node18" class="node"><title>Node18</title>
<g id="a_node18"><a xlink:href="TransportParams_8h.html" target="_top" xlink:title="Class that holds the data that is read in from the XML file, and which is used for processing of the ...">
<polygon fill="white" stroke="black" points="626,-280.5 626,-310.5 759,-310.5 759,-280.5 626,-280.5"/>
<text text-anchor="start" x="634" y="-298.5" font-family="FreeSans" font-size="10.00">cantera/transport/Transport</text>
<text text-anchor="middle" x="692.5" y="-287.5" font-family="FreeSans" font-size="10.00">Params.h</text>
</a>
</g>
</g>
<!-- Node1&#45;&gt;Node18 -->
<g id="edge26" class="edge"><title>Node1&#45;&gt;Node18</title>
<path fill="none" stroke="midnightblue" d="M581.467,-537.318C590.545,-528.893 603.69,-515.314 611.5,-501 645.536,-438.619 623.036,-410.717 654.5,-347 659.455,-336.965 666.494,-326.91 673.17,-318.443"/>
<polygon fill="midnightblue" stroke="midnightblue" points="675.996,-320.517 679.634,-310.566 670.585,-316.076 675.996,-320.517"/>
</g>
<!-- Node19 -->
<g id="node19" class="node"><title>Node19</title>
<g id="a_node19"><a xlink:href="IdealGasPhase_8h.html" target="_top" xlink:title="ThermoPhase object for the ideal gas equation of state &#45; workhorse for Cantera (see Thermodynamic Pro...">
<polygon fill="white" stroke="black" points="977.5,-476 977.5,-495 1135.5,-495 1135.5,-476 977.5,-476"/>
<text text-anchor="middle" x="1056.5" y="-483" font-family="FreeSans" font-size="10.00">cantera/thermo/IdealGasPhase.h</text>
</a>
</g>
</g>
<!-- Node1&#45;&gt;Node19 -->
<g id="edge29" class="edge"><title>Node1&#45;&gt;Node19</title>
<path fill="none" stroke="midnightblue" d="M640.989,-537.475C729.946,-526.562 883.715,-507.697 977.171,-496.232"/>
<polygon fill="midnightblue" stroke="midnightblue" points="977.641,-499.701 987.14,-495.009 976.788,-492.753 977.641,-499.701"/>
</g>
<!-- Node21 -->
<g id="node21" class="node"><title>Node21</title>
<g id="a_node21"><a xlink:href="TransportFactory_8h.html" target="_top" xlink:title="Header file defining class TransportFactory (see TransportFactory) ">
<polygon fill="white" stroke="black" points="733,-470.5 733,-500.5 866,-500.5 866,-470.5 733,-470.5"/>
<text text-anchor="start" x="741" y="-488.5" font-family="FreeSans" font-size="10.00">cantera/transport/Transport</text>
<text text-anchor="middle" x="799.5" y="-477.5" font-family="FreeSans" font-size="10.00">Factory.h</text>
</a>
</g>
</g>
<!-- Node1&#45;&gt;Node21 -->
<g id="edge32" class="edge"><title>Node1&#45;&gt;Node21</title>
<path fill="none" stroke="midnightblue" d="M604.167,-537.475C638.437,-528.532 693.169,-514.249 735.99,-503.074"/>
<polygon fill="midnightblue" stroke="midnightblue" points="736.973,-506.435 745.765,-500.523 735.205,-499.662 736.973,-506.435"/>
</g>
<!-- Node28 -->
<g id="node28" class="node"><title>Node28</title>
<g id="a_node28"><a xlink:href="stringUtils_8h.html" target="_top" xlink:title="Contains declarations for string manipulation functions within Cantera. ">
<polygon fill="white" stroke="black" points="0,-168.5 0,-187.5 125,-187.5 125,-168.5 0,-168.5"/>
<text text-anchor="middle" x="62.5" y="-175.5" font-family="FreeSans" font-size="10.00">cantera/base/stringUtils.h</text>
</a>
</g>
</g>
<!-- Node1&#45;&gt;Node28 -->
<g id="edge45" class="edge"><title>Node1&#45;&gt;Node28</title>
<path fill="none" stroke="midnightblue" d="M496.943,-541.426C403.001,-534.922 247.318,-521.47 193.5,-501 134.268,-478.471 76.5,-482.872 76.5,-419.5 76.5,-419.5 76.5,-419.5 76.5,-294.5 76.5,-260.114 70.309,-220.385 66.1609,-197.625"/>
<polygon fill="midnightblue" stroke="midnightblue" points="69.5717,-196.825 64.2731,-187.65 62.6937,-198.126 69.5717,-196.825"/>
</g>
<!-- Node3 -->
<g id="node3" class="node"><title>Node3</title>
<g id="a_node3"><a xlink:href="GasTransport_8h.html" target="_top" xlink:title="GasTransport.h">
<polygon fill="white" stroke="black" points="487.5,-286 487.5,-305 569.5,-305 569.5,-286 487.5,-286"/>
<text text-anchor="middle" x="528.5" y="-293" font-family="FreeSans" font-size="10.00">GasTransport.h</text>
</a>
</g>
</g>
<!-- Node2&#45;&gt;Node3 -->
<g id="edge2" class="edge"><title>Node2&#45;&gt;Node3</title>
<path fill="none" stroke="midnightblue" d="M484.432,-403.145C493.581,-381.005 511.117,-338.567 521.088,-314.437"/>
<polygon fill="midnightblue" stroke="midnightblue" points="524.382,-315.631 524.966,-305.052 517.912,-312.958 524.382,-315.631"/>
</g>
<!-- Node6 -->
<g id="node6" class="node"><title>Node6</title>
<g id="a_node6"><a xlink:href="DenseMatrix_8h.html" target="_top" xlink:title="Headers for the DenseMatrix object, which deals with dense rectangular matrices and description of th...">
<polygon fill="white" stroke="black" points="382,-224.5 382,-243.5 537,-243.5 537,-224.5 382,-224.5"/>
<text text-anchor="middle" x="459.5" y="-231.5" font-family="FreeSans" font-size="10.00">cantera/numerics/DenseMatrix.h</text>
</a>
</g>
</g>
<!-- Node2&#45;&gt;Node6 -->
<g id="edge15" class="edge"><title>Node2&#45;&gt;Node6</title>
<path fill="none" stroke="midnightblue" d="M477.041,-403.483C473.669,-371.097 465.334,-291.037 461.495,-254.159"/>
<polygon fill="midnightblue" stroke="midnightblue" points="464.935,-253.403 460.418,-243.819 457.973,-254.127 464.935,-253.403"/>
</g>
<!-- Node2&#45;&gt;Node14 -->
<g id="edge16" class="edge"><title>Node2&#45;&gt;Node14</title>
<path fill="none" stroke="midnightblue" d="M448.64,-403.399C427.877,-393.595 400.4,-380.619 380.139,-371.052"/>
<polygon fill="midnightblue" stroke="midnightblue" points="381.371,-367.763 370.834,-366.658 378.382,-374.093 381.371,-367.763"/>
</g>
<!-- Node4 -->
<g id="node4" class="node"><title>Node4</title>
<g id="a_node4"><a xlink:href="TransportBase_8h.html" target="_top" xlink:title="Headers for the Transport object, which is the virtual base class for all transport property evaluato...">
<polygon fill="white" stroke="black" points="789.5,-224.5 789.5,-243.5 875.5,-243.5 875.5,-224.5 789.5,-224.5"/>
<text text-anchor="middle" x="832.5" y="-231.5" font-family="FreeSans" font-size="10.00">TransportBase.h</text>
</a>
</g>
</g>
<!-- Node3&#45;&gt;Node4 -->
<g id="edge3" class="edge"><title>Node3&#45;&gt;Node4</title>
<path fill="none" stroke="midnightblue" d="M569.815,-286.414C624.141,-275.781 719.668,-257.084 779.331,-245.406"/>
<polygon fill="midnightblue" stroke="midnightblue" points="780.17,-248.809 789.311,-243.453 778.825,-241.939 780.17,-248.809"/>
</g>
<!-- Node3&#45;&gt;Node6 -->
<g id="edge5" class="edge"><title>Node3&#45;&gt;Node6</title>
<path fill="none" stroke="midnightblue" d="M518.614,-285.975C507.854,-276.697 490.429,-261.671 477.279,-250.331"/>
<polygon fill="midnightblue" stroke="midnightblue" points="479.227,-247.389 469.368,-243.509 474.655,-252.69 479.227,-247.389"/>
</g>
<!-- Node5 -->
<g id="node5" class="node"><title>Node5</title>
<g id="a_node5"><a xlink:href="ThermoPhase_8h.html" target="_top" xlink:title="Header file for class ThermoPhase, the base class for phases with thermodynamic properties, and the text for the Module thermoprops (see Thermodynamic Properties and class ThermoPhase). ">
<polygon fill="white" stroke="red" points="827.5,-168.5 827.5,-187.5 979.5,-187.5 979.5,-168.5 827.5,-168.5"/>
<text text-anchor="middle" x="903.5" y="-175.5" font-family="FreeSans" font-size="10.00">cantera/thermo/ThermoPhase.h</text>
</a>
</g>
</g>
<!-- Node4&#45;&gt;Node5 -->
<g id="edge4" class="edge"><title>Node4&#45;&gt;Node5</title>
<path fill="none" stroke="midnightblue" d="M843.907,-224.324C854.609,-216.185 870.841,-203.839 883.663,-194.087"/>
<polygon fill="midnightblue" stroke="midnightblue" points="886.044,-196.673 891.885,-187.834 881.807,-191.102 886.044,-196.673"/>
</g>
<!-- Node7 -->
<g id="node7" class="node"><title>Node7</title>
<g id="a_node7"><a xlink:href="ct__defs_8h.html" target="_top" xlink:title="This file contains definitions of terms that are used in internal routines and are unlikely to need m...">
<polygon fill="white" stroke="red" points="338.5,-56.5 338.5,-75.5 452.5,-75.5 452.5,-56.5 338.5,-56.5"/>
<text text-anchor="middle" x="395.5" y="-63.5" font-family="FreeSans" font-size="10.00">cantera/base/ct_defs.h</text>
</a>
</g>
</g>
<!-- Node6&#45;&gt;Node7 -->
<g id="edge6" class="edge"><title>Node6&#45;&gt;Node7</title>
<path fill="none" stroke="midnightblue" d="M468.163,-224.281C479.353,-211.911 496.497,-188.49 488.5,-168 473.977,-130.787 438.612,-99.0118 415.918,-81.503"/>
<polygon fill="midnightblue" stroke="midnightblue" points="418.014,-78.6997 407.911,-75.5094 413.819,-84.3037 418.014,-78.6997"/>
</g>
<!-- Node10 -->
<g id="node10" class="node"><title>Node10</title>
<g id="a_node10"><a xlink:href="ctexceptions_8h.html" target="_top" xlink:title="Definitions for the classes that are thrown when Cantera experiences an error condition (also contain...">
<polygon fill="white" stroke="red" points="143,-168.5 143,-187.5 280,-187.5 280,-168.5 143,-168.5"/>
<text text-anchor="middle" x="211.5" y="-175.5" font-family="FreeSans" font-size="10.00">cantera/base/ctexceptions.h</text>
</a>
</g>
</g>
<!-- Node6&#45;&gt;Node10 -->
<g id="edge9" class="edge"><title>Node6&#45;&gt;Node10</title>
<path fill="none" stroke="midnightblue" d="M420.204,-224.444C376.941,-215.023 307.327,-199.866 260.527,-189.675"/>
<polygon fill="midnightblue" stroke="midnightblue" points="261.128,-186.224 250.612,-187.516 259.639,-193.064 261.128,-186.224"/>
</g>
<!-- Node12 -->
<g id="node12" class="node"><title>Node12</title>
<g id="a_node12"><a xlink:href="Array_8h.html" target="_top" xlink:title="Header file for class Cantera::Array2D. ">
<polygon fill="white" stroke="red" points="375,-168.5 375,-187.5 480,-187.5 480,-168.5 375,-168.5"/>
<text text-anchor="middle" x="427.5" y="-175.5" font-family="FreeSans" font-size="10.00">cantera/base/Array.h</text>
</a>
</g>
</g>
<!-- Node6&#45;&gt;Node12 -->
<g id="edge12" class="edge"><title>Node6&#45;&gt;Node12</title>
<path fill="none" stroke="midnightblue" d="M454.216,-224.083C449.789,-216.613 443.337,-205.724 437.882,-196.52"/>
<polygon fill="midnightblue" stroke="midnightblue" points="440.795,-194.57 432.686,-187.751 434.773,-198.138 440.795,-194.57"/>
</g>
<!-- Node8 -->
<g id="node8" class="node"><title>Node8</title>
<polygon fill="white" stroke="#bfbfbf" points="715,-0.5 715,-19.5 758,-19.5 758,-0.5 715,-0.5"/>
<text text-anchor="middle" x="736.5" y="-7.5" font-family="FreeSans" font-size="10.00">vector</text>
</g>
<!-- Node7&#45;&gt;Node8 -->
<g id="edge7" class="edge"><title>Node7&#45;&gt;Node8</title>
<path fill="none" stroke="midnightblue" d="M449.532,-56.4435C521.488,-45.0488 646.456,-25.2592 704.797,-16.0205"/>
<polygon fill="midnightblue" stroke="midnightblue" points="705.557,-19.4437 714.887,-14.4226 704.463,-12.5298 705.557,-19.4437"/>
</g>
<!-- Node9 -->
<g id="node9" class="node"><title>Node9</title>
<polygon fill="white" stroke="#bfbfbf" points="240.5,-0.5 240.5,-19.5 280.5,-19.5 280.5,-0.5 240.5,-0.5"/>
<text text-anchor="middle" x="260.5" y="-7.5" font-family="FreeSans" font-size="10.00">string</text>
</g>
<!-- Node7&#45;&gt;Node9 -->
<g id="edge8" class="edge"><title>Node7&#45;&gt;Node9</title>
<path fill="none" stroke="midnightblue" d="M374.109,-56.4435C351.53,-47.4121 315.767,-33.1067 290.403,-22.9612"/>
<polygon fill="midnightblue" stroke="midnightblue" points="291.492,-19.6272 280.907,-19.1629 288.892,-26.1266 291.492,-19.6272"/>
</g>
<!-- Node10&#45;&gt;Node9 -->
<g id="edge10" class="edge"><title>Node10&#45;&gt;Node9</title>
<path fill="none" stroke="midnightblue" d="M218.672,-168.289C225.407,-159.631 235.215,-145.701 240.5,-132 253.802,-97.5149 258.26,-54.1602 259.752,-29.8219"/>
<polygon fill="midnightblue" stroke="midnightblue" points="263.263,-29.6876 260.272,-19.5238 256.272,-29.3346 263.263,-29.6876"/>
</g>
<!-- Node11 -->
<g id="node11" class="node"><title>Node11</title>
<polygon fill="white" stroke="#bfbfbf" points="129,-112.5 129,-131.5 232,-131.5 232,-112.5 129,-112.5"/>
<text text-anchor="middle" x="180.5" y="-119.5" font-family="FreeSans" font-size="10.00">cantera/ext/format.h</text>
</g>
<!-- Node10&#45;&gt;Node11 -->
<g id="edge11" class="edge"><title>Node10&#45;&gt;Node11</title>
<path fill="none" stroke="midnightblue" d="M206.381,-168.083C202.092,-160.613 195.842,-149.724 190.558,-140.52"/>
<polygon fill="midnightblue" stroke="midnightblue" points="193.538,-138.681 185.524,-131.751 187.467,-142.166 193.538,-138.681"/>
</g>
<!-- Node12&#45;&gt;Node13 -->
<g id="edge13" class="edge"><title>Node12&#45;&gt;Node13</title>
<path fill="none" stroke="midnightblue" d="M422.216,-168.083C417.789,-160.613 411.337,-149.724 405.882,-140.52"/>
<polygon fill="midnightblue" stroke="midnightblue" points="408.795,-138.57 400.686,-131.751 402.773,-142.138 408.795,-138.57"/>
</g>
<!-- Node13&#45;&gt;Node7 -->
<g id="edge14" class="edge"><title>Node13&#45;&gt;Node7</title>
<path fill="none" stroke="midnightblue" d="M395.5,-112.083C395.5,-105.006 395.5,-94.8611 395.5,-85.9865"/>
<polygon fill="midnightblue" stroke="midnightblue" points="399,-85.751 395.5,-75.7511 392,-85.7511 399,-85.751"/>
</g>
<!-- Node14&#45;&gt;Node3 -->
<g id="edge17" class="edge"><title>Node14&#45;&gt;Node3</title>
<path fill="none" stroke="midnightblue" d="M377.717,-347.475C408.168,-337.18 459.549,-319.81 493.743,-308.25"/>
<polygon fill="midnightblue" stroke="midnightblue" points="494.978,-311.527 503.33,-305.009 492.736,-304.896 494.978,-311.527"/>
</g>
<!-- Node15 -->
<g id="node15" class="node"><title>Node15</title>
<g id="a_node15"><a xlink:href="SquareMatrix_8h.html" target="_top" xlink:title="Dense, Square (not sparse) matrices. ">
<polygon fill="white" stroke="black" points="273.5,-286 273.5,-305 431.5,-305 431.5,-286 273.5,-286"/>
<text text-anchor="middle" x="352.5" y="-293" font-family="FreeSans" font-size="10.00">cantera/numerics/SquareMatrix.h</text>
</a>
</g>
</g>
<!-- Node14&#45;&gt;Node15 -->
<g id="edge18" class="edge"><title>Node14&#45;&gt;Node15</title>
<path fill="none" stroke="midnightblue" d="M352.5,-347.475C352.5,-339.08 352.5,-325.981 352.5,-315.163"/>
<polygon fill="midnightblue" stroke="midnightblue" points="356,-315.009 352.5,-305.009 349,-315.009 356,-315.009"/>
</g>
<!-- Node15&#45;&gt;Node6 -->
<g id="edge19" class="edge"><title>Node15&#45;&gt;Node6</title>
<path fill="none" stroke="midnightblue" d="M367.83,-285.975C385.47,-276.166 414.66,-259.935 435.358,-248.425"/>
<polygon fill="midnightblue" stroke="midnightblue" points="437.159,-251.428 444.198,-243.509 433.757,-245.31 437.159,-251.428"/>
</g>
<!-- Node16 -->
<g id="node16" class="node"><title>Node16</title>
<g id="a_node16"><a xlink:href="GeneralMatrix_8h.html" target="_top" xlink:title="Declarations for the class GeneralMatrix which is a virtual base class for matrices handled by solver...">
<polygon fill="white" stroke="black" points="234.5,-224.5 234.5,-243.5 318.5,-243.5 318.5,-224.5 234.5,-224.5"/>
<text text-anchor="middle" x="276.5" y="-231.5" font-family="FreeSans" font-size="10.00">GeneralMatrix.h</text>
</a>
</g>
</g>
<!-- Node15&#45;&gt;Node16 -->
<g id="edge20" class="edge"><title>Node15&#45;&gt;Node16</title>
<path fill="none" stroke="midnightblue" d="M341.611,-285.975C329.534,-276.52 309.833,-261.096 295.26,-249.687"/>
<polygon fill="midnightblue" stroke="midnightblue" points="297.4,-246.918 287.369,-243.509 293.085,-252.429 297.4,-246.918"/>
</g>
<!-- Node16&#45;&gt;Node7 -->
<g id="edge21" class="edge"><title>Node16&#45;&gt;Node7</title>
<path fill="none" stroke="midnightblue" d="M282.124,-224.34C295.229,-204.266 329.004,-153.131 359.5,-112 366.576,-102.456 374.834,-92.0837 381.654,-83.705"/>
<polygon fill="midnightblue" stroke="midnightblue" points="384.492,-85.7636 388.132,-75.8134 379.082,-81.3224 384.492,-85.7636"/>
</g>
<!-- Node16&#45;&gt;Node10 -->
<g id="edge22" class="edge"><title>Node16&#45;&gt;Node10</title>
<path fill="none" stroke="midnightblue" d="M266.057,-224.324C256.354,-216.263 241.685,-204.077 230,-194.369"/>
<polygon fill="midnightblue" stroke="midnightblue" points="232.062,-191.532 222.133,-187.834 227.589,-196.916 232.062,-191.532"/>
</g>
<!-- Node17&#45;&gt;Node7 -->
<g id="edge24" class="edge"><title>Node17&#45;&gt;Node7</title>
<path fill="none" stroke="midnightblue" d="M572.225,-112.444C536.052,-103.142 478.123,-88.246 438.519,-78.062"/>
<polygon fill="midnightblue" stroke="midnightblue" points="439.176,-74.6172 428.619,-75.5164 437.433,-81.3966 439.176,-74.6172"/>
</g>
<!-- Node18&#45;&gt;Node4 -->
<g id="edge28" class="edge"><title>Node18&#45;&gt;Node4</title>
<path fill="none" stroke="midnightblue" d="M725.678,-280.399C749.063,-270.461 780.112,-257.265 802.706,-247.662"/>
<polygon fill="midnightblue" stroke="midnightblue" points="804.294,-250.79 812.129,-243.658 801.556,-244.348 804.294,-250.79"/>
</g>
<!-- Node18&#45;&gt;Node6 -->
<g id="edge27" class="edge"><title>Node18&#45;&gt;Node6</title>
<path fill="none" stroke="midnightblue" d="M637.577,-280.475C596.327,-269.941 540.622,-255.716 502.567,-245.998"/>
<polygon fill="midnightblue" stroke="midnightblue" points="503.366,-242.59 492.811,-243.506 501.634,-249.372 503.366,-242.59"/>
</g>
<!-- Node19&#45;&gt;Node5 -->
<g id="edge31" class="edge"><title>Node19&#45;&gt;Node5</title>
<path fill="none" stroke="midnightblue" d="M1066.31,-475.995C1076.11,-466.789 1090.54,-451.112 1096.5,-434 1101.03,-420.988 1101.3,-415.916 1096.5,-403 1061.13,-307.757 965.088,-225.893 923.332,-193.65"/>
<polygon fill="midnightblue" stroke="midnightblue" points="925.366,-190.8 915.287,-187.536 921.131,-196.373 925.366,-190.8"/>
</g>
<!-- Node20 -->
<g id="node20" class="node"><title>Node20</title>
<g id="a_node20"><a xlink:href="mix__defs_8h.html" target="_top" xlink:title="mix_defs.h">
<polygon fill="white" stroke="black" points="1025.5,-409 1025.5,-428 1087.5,-428 1087.5,-409 1025.5,-409"/>
<text text-anchor="middle" x="1056.5" y="-416" font-family="FreeSans" font-size="10.00">mix_defs.h</text>
</a>
</g>
</g>
<!-- Node19&#45;&gt;Node20 -->
<g id="edge30" class="edge"><title>Node19&#45;&gt;Node20</title>
<path fill="none" stroke="midnightblue" d="M1056.5,-475.734C1056.5,-466.183 1056.5,-450.618 1056.5,-438.283"/>
<polygon fill="midnightblue" stroke="midnightblue" points="1060,-438.127 1056.5,-428.127 1053,-438.127 1060,-438.127"/>
</g>
<!-- Node21&#45;&gt;Node4 -->
<g id="edge33" class="edge"><title>Node21&#45;&gt;Node4</title>
<path fill="none" stroke="midnightblue" d="M810.842,-470.299C832.618,-442.018 879.62,-375.785 896.5,-311 899.974,-297.667 902.85,-292.227 896.5,-280 889.347,-266.226 875.829,-255.783 863.053,-248.441"/>
<polygon fill="midnightblue" stroke="midnightblue" points="864.458,-245.225 853.983,-243.64 861.183,-251.412 864.458,-245.225"/>
</g>
<!-- Node22 -->
<g id="node22" class="node"><title>Node22</title>
<g id="a_node22"><a xlink:href="FactoryBase_8h.html" target="_top" xlink:title="File contains the FactoryBase class declarations. ">
<polygon fill="white" stroke="black" points="870,-409 870,-428 1007,-428 1007,-409 870,-409"/>
<text text-anchor="middle" x="938.5" y="-416" font-family="FreeSans" font-size="10.00">cantera/base/FactoryBase.h</text>
</a>
</g>
</g>
<!-- Node21&#45;&gt;Node22 -->
<g id="edge34" class="edge"><title>Node21&#45;&gt;Node22</title>
<path fill="none" stroke="midnightblue" d="M829.661,-470.396C853.942,-459.041 887.775,-443.22 911.248,-432.244"/>
<polygon fill="midnightblue" stroke="midnightblue" points="912.732,-435.414 920.308,-428.007 909.767,-429.073 912.732,-435.414"/>
</g>
<!-- Node24 -->
<g id="node24" class="node"><title>Node24</title>
<g id="a_node24"><a xlink:href="LiquidTransportParams_8h.html" target="_top" xlink:title="Header file defining class LiquidTransportParams. ">
<polygon fill="white" stroke="black" points="690,-409 690,-428 813,-428 813,-409 690,-409"/>
<text text-anchor="middle" x="751.5" y="-416" font-family="FreeSans" font-size="10.00">LiquidTransportParams.h</text>
</a>
</g>
</g>
<!-- Node21&#45;&gt;Node24 -->
<g id="edge37" class="edge"><title>Node21&#45;&gt;Node24</title>
<path fill="none" stroke="midnightblue" d="M789.085,-470.396C781.675,-460.361 771.688,-446.838 763.872,-436.253"/>
<polygon fill="midnightblue" stroke="midnightblue" points="766.677,-434.16 757.921,-428.195 761.046,-438.318 766.677,-434.16"/>
</g>
<!-- Node22&#45;&gt;Node8 -->
<g id="edge35" class="edge"><title>Node22&#45;&gt;Node8</title>
<path fill="none" stroke="midnightblue" d="M963.35,-408.907C1003.33,-393.316 1077.5,-356.33 1077.5,-296.5 1077.5,-296.5 1077.5,-296.5 1077.5,-121 1077.5,-56.35 852.69,-24.1661 768.14,-14.348"/>
<polygon fill="midnightblue" stroke="midnightblue" points="768.42,-10.8575 758.09,-13.2102 767.633,-17.813 768.42,-10.8575"/>
</g>
<!-- Node23 -->
<g id="node23" class="node"><title>Node23</title>
<polygon fill="white" stroke="#bfbfbf" points="917,-347.5 917,-366.5 960,-366.5 960,-347.5 917,-347.5"/>
<text text-anchor="middle" x="938.5" y="-354.5" font-family="FreeSans" font-size="10.00">mutex</text>
</g>
<!-- Node22&#45;&gt;Node23 -->
<g id="edge36" class="edge"><title>Node22&#45;&gt;Node23</title>
<path fill="none" stroke="midnightblue" d="M938.5,-408.975C938.5,-400.58 938.5,-387.481 938.5,-376.663"/>
<polygon fill="midnightblue" stroke="midnightblue" points="942,-376.509 938.5,-366.509 935,-376.509 942,-376.509"/>
</g>
<!-- Node24&#45;&gt;Node18 -->
<g id="edge38" class="edge"><title>Node24&#45;&gt;Node18</title>
<path fill="none" stroke="midnightblue" d="M762.015,-408.607C776.753,-395.027 800.383,-368.439 787.5,-347 779.055,-332.946 765.231,-322.593 750.711,-315.054"/>
<polygon fill="midnightblue" stroke="midnightblue" points="752.154,-311.865 741.622,-310.716 749.139,-318.182 752.154,-311.865"/>
</g>
<!-- Node25 -->
<g id="node25" class="node"><title>Node25</title>
<g id="a_node25"><a xlink:href="LiquidTranInteraction_8h.html" target="_top" xlink:title="Header file defining the class LiquidTranInteraction and classes which derive from LiquidTranInteract...">
<polygon fill="white" stroke="black" points="664,-347.5 664,-366.5 779,-366.5 779,-347.5 664,-347.5"/>
<text text-anchor="middle" x="721.5" y="-354.5" font-family="FreeSans" font-size="10.00">LiquidTranInteraction.h</text>
</a>
</g>
</g>
<!-- Node24&#45;&gt;Node25 -->
<g id="edge39" class="edge"><title>Node24&#45;&gt;Node25</title>
<path fill="none" stroke="midnightblue" d="M747.202,-408.975C742.835,-400.315 735.945,-386.649 730.397,-375.645"/>
<polygon fill="midnightblue" stroke="midnightblue" points="733.418,-373.863 725.79,-366.509 727.167,-377.014 733.418,-373.863"/>
</g>
<!-- Node25&#45;&gt;Node18 -->
<g id="edge40" class="edge"><title>Node25&#45;&gt;Node18</title>
<path fill="none" stroke="midnightblue" d="M717.345,-347.475C713.821,-340.245 708.596,-329.525 703.846,-319.779"/>
<polygon fill="midnightblue" stroke="midnightblue" points="706.862,-317.979 699.335,-310.523 700.57,-321.046 706.862,-317.979"/>
</g>
<!-- Node26 -->
<g id="node26" class="node"><title>Node26</title>
<g id="a_node26"><a xlink:href="LiquidTransportData_8h.html" target="_top" xlink:title="Header file defining class LiquidTransportData. ">
<polygon fill="white" stroke="red" points="777.5,-286 777.5,-305 887.5,-305 887.5,-286 777.5,-286"/>
<text text-anchor="middle" x="832.5" y="-293" font-family="FreeSans" font-size="10.00">LiquidTransportData.h</text>
</a>
</g>
</g>
<!-- Node25&#45;&gt;Node26 -->
<g id="edge41" class="edge"><title>Node25&#45;&gt;Node26</title>
<path fill="none" stroke="midnightblue" d="M737.404,-347.475C755.785,-337.622 786.256,-321.288 807.745,-309.77"/>
<polygon fill="midnightblue" stroke="midnightblue" points="809.466,-312.818 816.626,-305.009 806.159,-306.649 809.466,-312.818"/>
</g>
<!-- Node27 -->
<g id="node27" class="node"><title>Node27</title>
<g id="a_node27"><a xlink:href="xml_8h.html" target="_top" xlink:title="Classes providing support for XML data files. ">
<polygon fill="white" stroke="red" points="118.5,-224.5 118.5,-243.5 216.5,-243.5 216.5,-224.5 118.5,-224.5"/>
<text text-anchor="middle" x="167.5" y="-231.5" font-family="FreeSans" font-size="10.00">cantera/base/xml.h</text>
</a>
</g>
</g>
<!-- Node25&#45;&gt;Node27 -->
<g id="edge43" class="edge"><title>Node25&#45;&gt;Node27</title>
<path fill="none" stroke="midnightblue" d="M663.828,-354.325C557.658,-350.584 335.629,-339.523 264.5,-311 231.267,-297.673 200.027,-269.287 182.38,-251.23"/>
<polygon fill="midnightblue" stroke="midnightblue" points="184.696,-248.586 175.269,-243.751 179.623,-253.41 184.696,-248.586"/>
</g>
<!-- Node26&#45;&gt;Node4 -->
<g id="edge42" class="edge"><title>Node26&#45;&gt;Node4</title>
<path fill="none" stroke="midnightblue" d="M832.5,-285.975C832.5,-277.58 832.5,-264.481 832.5,-253.663"/>
<polygon fill="midnightblue" stroke="midnightblue" points="836,-253.509 832.5,-243.509 829,-253.509 836,-253.509"/>
</g>
<!-- Node27&#45;&gt;Node10 -->
<g id="edge44" class="edge"><title>Node27&#45;&gt;Node10</title>
<path fill="none" stroke="midnightblue" d="M174.766,-224.083C181.045,-216.377 190.288,-205.033 197.931,-195.653"/>
<polygon fill="midnightblue" stroke="midnightblue" points="200.766,-197.714 204.369,-187.751 195.339,-193.293 200.766,-197.714"/>
</g>
<!-- Node28&#45;&gt;Node7 -->
<g id="edge46" class="edge"><title>Node28&#45;&gt;Node7</title>
<path fill="none" stroke="midnightblue" d="M67.4782,-168.114C76.058,-153.716 95.0848,-125.537 119.5,-112 154.405,-92.6471 258.318,-79.5913 328.202,-72.7267"/>
<polygon fill="midnightblue" stroke="midnightblue" points="328.635,-76.2013 338.254,-71.7588 327.964,-69.2335 328.635,-76.2013"/>
</g>
<!-- Node28&#45;&gt;Node9 -->
<g id="edge48" class="edge"><title>Node28&#45;&gt;Node9</title>
<path fill="none" stroke="midnightblue" d="M64.7856,-168.068C68.6069,-154.59 77.3992,-128.842 92.5,-112 131.541,-68.4584 193.869,-37.8624 230.628,-22.4519"/>
<polygon fill="midnightblue" stroke="midnightblue" points="232.344,-25.5318 240.277,-18.5099 229.696,-19.0517 232.344,-25.5318"/>
</g>
<!-- Node28&#45;&gt;Node11 -->
<g id="edge47" class="edge"><title>Node28&#45;&gt;Node11</title>
<path fill="none" stroke="midnightblue" d="M81.1975,-168.444C100.444,-159.636 130.652,-145.812 152.7,-135.722"/>
<polygon fill="midnightblue" stroke="midnightblue" points="154.253,-138.86 161.89,-131.516 151.34,-132.495 154.253,-138.86"/>
</g>
</g>
</svg>
