<?xml version="1.0" encoding="UTF-8" standalone="no"?>
<!DOCTYPE svg PUBLIC "-//W3C//DTD SVG 1.1//EN"
 "http://www.w3.org/Graphics/SVG/1.1/DTD/svg11.dtd">
<!-- Generated by graphviz version 2.26.3 (20100126.1600)
 -->
<!-- Title: HMWSoln.h Pages: 1 -->
<svg width="354pt" height="320pt"
 viewBox="0.00 0.00 354.00 320.00" xmlns="http://www.w3.org/2000/svg" xmlns:xlink="http://www.w3.org/1999/xlink">
<g id="graph1" class="graph" transform="scale(1 1) rotate(0) translate(4 316)">
<title>HMWSoln.h</title>
<polygon fill="white" stroke="white" points="-4,5 -4,-316 351,-316 351,5 -4,5"/>
<!-- Node1 -->
<g id="node1" class="node"><title>Node1</title>
<polygon fill="#bfbfbf" stroke="black" points="187,-291 187,-311 255,-311 255,-291 187,-291"/>
<text text-anchor="middle" x="221" y="-298" font-family="FreeSans" font-size="10.00">HMWSoln.h</text>
</g>
<!-- Node2 -->
<g id="node3" class="node"><title>Node2</title>
<a xlink:href="MolalityVPSSTP_8h.html" target="_top" xlink:title="Header for intermediate ThermoPhase object for phases which employ molality based activity coefficien...">
<polygon fill="white" stroke="black" points="122,-233 122,-253 218,-253 218,-233 122,-233"/>
<text text-anchor="middle" x="170" y="-240" font-family="FreeSans" font-size="10.00">MolalityVPSSTP.h</text>
</a>
</g>
<!-- Node1&#45;&gt;Node2 -->
<g id="edge2" class="edge"><title>Node1&#45;&gt;Node2</title>
<path fill="none" stroke="midnightblue" d="M212.116,-290.897C204.893,-282.682 194.518,-270.883 185.873,-261.051"/>
<polygon fill="midnightblue" stroke="midnightblue" points="188.357,-258.576 179.125,-253.378 183.1,-263.199 188.357,-258.576"/>
</g>
<!-- Node11 -->
<g id="node23" class="node"><title>Node11</title>
<a xlink:href="electrolytes_8h.html" target="_top" xlink:title="Header file for a common definitions used in electrolytes thermodynamics. ">
<polygon fill="white" stroke="black" points="235.5,-233 235.5,-253 308.5,-253 308.5,-233 235.5,-233"/>
<text text-anchor="middle" x="272" y="-240" font-family="FreeSans" font-size="10.00">electrolytes.h</text>
</a>
</g>
<!-- Node1&#45;&gt;Node11 -->
<g id="edge24" class="edge"><title>Node1&#45;&gt;Node11</title>
<path fill="none" stroke="midnightblue" d="M229.884,-290.897C237.107,-282.682 247.482,-270.883 256.127,-261.051"/>
<polygon fill="midnightblue" stroke="midnightblue" points="258.9,-263.199 262.875,-253.378 253.643,-258.576 258.9,-263.199"/>
</g>
<!-- Node3 -->
<g id="node5" class="node"><title>Node3</title>
<a xlink:href="VPStandardStateTP_8h.html" target="_top" xlink:title="Header file for a derived class of ThermoPhase that handles variable pressure standard state methods ...">
<polygon fill="white" stroke="black" points="114,-175 114,-195 226,-195 226,-175 114,-175"/>
<text text-anchor="middle" x="170" y="-182" font-family="FreeSans" font-size="10.00">VPStandardStateTP.h</text>
</a>
</g>
<!-- Node2&#45;&gt;Node3 -->
<g id="edge4" class="edge"><title>Node2&#45;&gt;Node3</title>
<path fill="none" stroke="midnightblue" d="M170,-232.897C170,-225.339 170,-214.748 170,-205.446"/>
<polygon fill="midnightblue" stroke="midnightblue" points="173.5,-205.378 170,-195.378 166.5,-205.378 173.5,-205.378"/>
</g>
<!-- Node4 -->
<g id="node7" class="node"><title>Node4</title>
<a xlink:href="ThermoPhase_8h.html" target="_top" xlink:title="Header file for class ThermoPhase, the base class for phases with thermodynamic properties, and the text for the Module thermoprops (see Thermodynamic Properties and class ThermoPhase). ">
<polygon fill="white" stroke="black" points="72,-117 72,-137 156,-137 156,-117 72,-117"/>
<text text-anchor="middle" x="114" y="-124" font-family="FreeSans" font-size="10.00">ThermoPhase.h</text>
</a>
</g>
<!-- Node3&#45;&gt;Node4 -->
<g id="edge6" class="edge"><title>Node3&#45;&gt;Node4</title>
<path fill="none" stroke="midnightblue" d="M160.246,-174.897C152.234,-166.6 140.693,-154.646 131.145,-144.757"/>
<polygon fill="midnightblue" stroke="midnightblue" points="133.484,-142.141 124.02,-137.378 128.448,-147.003 133.484,-142.141"/>
</g>
<!-- Node8 -->
<g id="node15" class="node"><title>Node8</title>
<a xlink:href="VPSSMgr_8h.html" target="_top" xlink:title="Declaration file for a virtual base class that manages the calculation of standard state properties f...">
<polygon fill="white" stroke="black" points="193.5,-117 193.5,-137 260.5,-137 260.5,-117 193.5,-117"/>
<text text-anchor="middle" x="227" y="-124" font-family="FreeSans" font-size="10.00">VPSSMgr.h</text>
</a>
</g>
<!-- Node3&#45;&gt;Node8 -->
<g id="edge14" class="edge"><title>Node3&#45;&gt;Node8</title>
<path fill="none" stroke="midnightblue" d="M179.929,-174.897C188.083,-166.6 199.83,-154.646 209.549,-144.757"/>
<polygon fill="midnightblue" stroke="midnightblue" points="212.288,-146.963 216.801,-137.378 207.296,-142.057 212.288,-146.963"/>
</g>
<!-- Node5 -->
<g id="node9" class="node"><title>Node5</title>
<a xlink:href="Phase_8h.html" target="_top" xlink:title="Header file for class Phase. ">
<polygon fill="white" stroke="red" points="-0.5,-59 -0.5,-79 50.5,-79 50.5,-59 -0.5,-59"/>
<text text-anchor="middle" x="25" y="-66" font-family="FreeSans" font-size="10.00">Phase.h</text>
</a>
</g>
<!-- Node4&#45;&gt;Node5 -->
<g id="edge8" class="edge"><title>Node4&#45;&gt;Node5</title>
<path fill="none" stroke="midnightblue" d="M98.4974,-116.897C84.9253,-108.052 64.9793,-95.0539 49.2894,-84.829"/>
<polygon fill="midnightblue" stroke="midnightblue" points="50.9125,-81.7092 40.6236,-79.1817 47.0906,-87.5738 50.9125,-81.7092"/>
</g>
<!-- Node6 -->
<g id="node11" class="node"><title>Node6</title>
<a xlink:href="SpeciesThermo_8h.html" target="_top" xlink:title="Virtual base class for the calculation of multiple&#45;species thermodynamic reference&#45;state property man...">
<polygon fill="white" stroke="black" points="68,-59 68,-79 160,-79 160,-59 68,-59"/>
<text text-anchor="middle" x="114" y="-66" font-family="FreeSans" font-size="10.00">SpeciesThermo.h</text>
</a>
</g>
<!-- Node4&#45;&gt;Node6 -->
<g id="edge10" class="edge"><title>Node4&#45;&gt;Node6</title>
<path fill="none" stroke="midnightblue" d="M114,-116.897C114,-109.339 114,-98.7476 114,-89.4458"/>
<polygon fill="midnightblue" stroke="midnightblue" points="117.5,-89.3776 114,-79.3776 110.5,-89.3776 117.5,-89.3776"/>
</g>
<!-- Node7 -->
<g id="node13" class="node"><title>Node7</title>
<a xlink:href="ct__defs_8h.html" target="_top" xlink:title="This file contains definitions of terms that are used in internal routines and are unlikely to need m...">
<polygon fill="white" stroke="red" points="160,-1 160,-21 216,-21 216,-1 160,-1"/>
<text text-anchor="middle" x="188" y="-8" font-family="FreeSans" font-size="10.00">ct_defs.h</text>
</a>
</g>
<!-- Node6&#45;&gt;Node7 -->
<g id="edge12" class="edge"><title>Node6&#45;&gt;Node7</title>
<path fill="none" stroke="midnightblue" d="M126.89,-58.8972C137.896,-50.271 153.942,-37.6938 166.831,-27.592"/>
<polygon fill="midnightblue" stroke="midnightblue" points="169.048,-30.3012 174.76,-21.3776 164.73,-24.7918 169.048,-30.3012"/>
</g>
<!-- Node8&#45;&gt;Node7 -->
<g id="edge16" class="edge"><title>Node8&#45;&gt;Node7</title>
<path fill="none" stroke="midnightblue" d="M222.146,-116.703C217.821,-107.284 211.496,-92.8949 207,-80 201.383,-63.892 196.326,-45.2152 192.844,-31.3581"/>
<polygon fill="midnightblue" stroke="midnightblue" points="196.188,-30.299 190.408,-21.4195 189.389,-31.9652 196.188,-30.299"/>
</g>
<!-- Node9 -->
<g id="node18" class="node"><title>Node9</title>
<a xlink:href="mix__defs_8h.html" target="_top" xlink:title="mix_defs.h">
<polygon fill="white" stroke="black" points="216,-59 216,-79 278,-79 278,-59 216,-59"/>
<text text-anchor="middle" x="247" y="-66" font-family="FreeSans" font-size="10.00">mix_defs.h</text>
</a>
</g>
<!-- Node8&#45;&gt;Node9 -->
<g id="edge18" class="edge"><title>Node8&#45;&gt;Node9</title>
<path fill="none" stroke="midnightblue" d="M230.484,-116.897C233.147,-109.175 236.901,-98.2857 240.158,-88.841"/>
<polygon fill="midnightblue" stroke="midnightblue" points="243.47,-89.9723 243.422,-79.3776 236.853,-87.6903 243.47,-89.9723"/>
</g>
<!-- Node10 -->
<g id="node20" class="node"><title>Node10</title>
<a xlink:href="global_8h.html" target="_top" xlink:title="This file contains definitions for utility functions and text for modules, inputfiles, logs, textlogs, (see Input File Handling, Diagnostic Output, and Writing messages to the screen). ">
<polygon fill="white" stroke="black" points="296,-59 296,-79 346,-79 346,-59 296,-59"/>
<text text-anchor="middle" x="321" y="-66" font-family="FreeSans" font-size="10.00">global.h</text>
</a>
</g>
<!-- Node8&#45;&gt;Node10 -->
<g id="edge20" class="edge"><title>Node8&#45;&gt;Node10</title>
<path fill="none" stroke="midnightblue" d="M243.374,-116.897C257.842,-107.97 279.169,-94.8106 295.809,-84.5431"/>
<polygon fill="midnightblue" stroke="midnightblue" points="297.826,-87.4114 304.499,-79.1817 294.15,-81.4541 297.826,-87.4114"/>
</g>
<!-- Node10&#45;&gt;Node7 -->
<g id="edge22" class="edge"><title>Node10&#45;&gt;Node7</title>
<path fill="none" stroke="midnightblue" d="M297.833,-58.8972C276.509,-49.5978 244.655,-35.7066 220.735,-25.2752"/>
<polygon fill="midnightblue" stroke="midnightblue" points="221.913,-21.9708 211.348,-21.1817 219.115,-28.3873 221.913,-21.9708"/>
</g>
</g>
</svg>
