<?xml version="1.0" encoding="UTF-8" standalone="no"?>
<!DOCTYPE svg PUBLIC "-//W3C//DTD SVG 1.1//EN"
 "http://www.w3.org/Graphics/SVG/1.1/DTD/svg11.dtd">
<!-- Generated by graphviz version 2.38.0 (20140413.2041)
 -->
<!-- Title: HMWSoln.h Pages: 1 -->
<svg width="454pt" height="84pt"
 viewBox="0.00 0.00 453.50 84.00" xmlns="http://www.w3.org/2000/svg" xmlns:xlink="http://www.w3.org/1999/xlink">
<g id="graph0" class="graph" transform="scale(1 1) rotate(0) translate(4 80)">
<title>HMWSoln.h</title>
<polygon fill="white" stroke="none" points="-4,4 -4,-80 449.5,-80 449.5,4 -4,4"/>
<!-- Node1 -->
<g id="node1" class="node"><title>Node1</title>
<polygon fill="#bfbfbf" stroke="black" points="178,-56.5 178,-75.5 248,-75.5 248,-56.5 178,-56.5"/>
<text text-anchor="middle" x="213" y="-63.5" font-family="Helvetica,sans-Serif" font-size="10.00">HMWSoln.h</text>
</g>
<!-- Node2 -->
<g id="node2" class="node"><title>Node2</title>
<g id="a_node2"><a xlink:href="HMWSoln_8cpp.html" target="_top" xlink:title="Definitions for the HMWSoln ThermoPhase object, which models concentrated electrolyte solutions (see ...">
<polygon fill="white" stroke="black" points="0,-0.5 0,-19.5 80,-19.5 80,-0.5 0,-0.5"/>
<text text-anchor="middle" x="40" y="-7.5" font-family="Helvetica,sans-Serif" font-size="10.00">HMWSoln.cpp</text>
</a>
</g>
</g>
<!-- Node1&#45;&gt;Node2 -->
<g id="edge1" class="edge"><title>Node1&#45;&gt;Node2</title>
<path fill="none" stroke="midnightblue" d="M175.953,-53.4363C143.336,-43.2551 96.5903,-28.664 67.2841,-19.5164"/>
<polygon fill="midnightblue" stroke="midnightblue" points="174.999,-56.8049 185.588,-56.4435 177.085,-50.1228 174.999,-56.8049"/>
</g>
<!-- Node3 -->
<g id="node3" class="node"><title>Node3</title>
<g id="a_node3"><a xlink:href="HMWSoln__input_8cpp.html" target="_top" xlink:title="Definitions for the HMWSoln ThermoPhase object, which models concentrated electrolyte solutions (see ...">
<polygon fill="white" stroke="black" points="98.5,-0.5 98.5,-19.5 205.5,-19.5 205.5,-0.5 98.5,-0.5"/>
<text text-anchor="middle" x="152" y="-7.5" font-family="Helvetica,sans-Serif" font-size="10.00">HMWSoln_input.cpp</text>
</a>
</g>
</g>
<!-- Node1&#45;&gt;Node3 -->
<g id="edge2" class="edge"><title>Node1&#45;&gt;Node3</title>
<path fill="none" stroke="midnightblue" d="M195.533,-49.5372C184.656,-39.9087 171.056,-27.8694 161.979,-19.8339"/>
<polygon fill="midnightblue" stroke="midnightblue" points="193.392,-52.3162 203.199,-56.324 198.032,-47.0749 193.392,-52.3162"/>
</g>
<!-- Node4 -->
<g id="node4" class="node"><title>Node4</title>
<g id="a_node4"><a xlink:href="ThermoFactory_8cpp.html" target="_top" xlink:title="Definitions for the factory class that can create known ThermoPhase objects (see Thermodynamic Proper...">
<polygon fill="white" stroke="black" points="223.5,-0.5 223.5,-19.5 324.5,-19.5 324.5,-0.5 223.5,-0.5"/>
<text text-anchor="middle" x="274" y="-7.5" font-family="Helvetica,sans-Serif" font-size="10.00">ThermoFactory.cpp</text>
</a>
</g>
</g>
<!-- Node1&#45;&gt;Node4 -->
<g id="edge3" class="edge"><title>Node1&#45;&gt;Node4</title>
<path fill="none" stroke="midnightblue" d="M230.467,-49.5372C241.344,-39.9087 254.944,-27.8694 264.021,-19.8339"/>
<polygon fill="midnightblue" stroke="midnightblue" points="227.968,-47.0749 222.801,-56.324 232.608,-52.3162 227.968,-47.0749"/>
</g>
<!-- Node5 -->
<g id="node5" class="node"><title>Node5</title>
<g id="a_node5"><a xlink:href="electrolyteThermo_8h.html" target="_top" xlink:title="Support for thermo property calculation from C++ application programs. ">
<polygon fill="white" stroke="black" points="342.5,-0.5 342.5,-19.5 445.5,-19.5 445.5,-0.5 342.5,-0.5"/>
<text text-anchor="middle" x="394" y="-7.5" font-family="Helvetica,sans-Serif" font-size="10.00">electrolyteThermo.h</text>
</a>
</g>
</g>
<!-- Node1&#45;&gt;Node5 -->
<g id="edge4" class="edge"><title>Node1&#45;&gt;Node5</title>
<path fill="none" stroke="midnightblue" d="M251.319,-53.5677C285.464,-43.381 334.661,-28.7034 365.454,-19.5164"/>
<polygon fill="midnightblue" stroke="midnightblue" points="250.262,-50.2306 241.68,-56.4435 252.263,-56.9385 250.262,-50.2306"/>
</g>
</g>
</svg>
