<?xml version="1.0" encoding="UTF-8" standalone="no"?>
<!DOCTYPE svg PUBLIC "-//W3C//DTD SVG 1.1//EN"
 "http://www.w3.org/Graphics/SVG/1.1/DTD/svg11.dtd">
<!-- Generated by graphviz version 2.26.3 (20100126.1600)
 -->
<!-- Title: IDA_Solver.cpp Pages: 1 -->
<svg width="1121pt" height="390pt"
 viewBox="0.00 0.00 1121.00 390.00" xmlns="http://www.w3.org/2000/svg" xmlns:xlink="http://www.w3.org/1999/xlink">
<g id="graph1" class="graph" transform="scale(1 1) rotate(0) translate(4 386)">
<title>IDA_Solver.cpp</title>
<polygon fill="white" stroke="white" points="-4,5 -4,-386 1118,-386 1118,5 -4,5"/>
<!-- Node1 -->
<g id="node1" class="node"><title>Node1</title>
<polygon fill="#bfbfbf" stroke="black" points="611.5,-361 611.5,-381 694.5,-381 694.5,-361 611.5,-361"/>
<text text-anchor="middle" x="653" y="-368" font-family="FreeSans" font-size="10.00">IDA_Solver.cpp</text>
</g>
<!-- Node2 -->
<g id="node3" class="node"><title>Node2</title>
<a xlink:href="IDA__Solver_8h.html" target="_top" xlink:title="Header file for class IDA_Solver. ">
<polygon fill="white" stroke="black" points="111,-291 111,-323 221,-323 221,-291 111,-291"/>
<text text-anchor="start" x="119" y="-310" font-family="FreeSans" font-size="10.00">cantera/numerics/IDA</text>
<text text-anchor="middle" x="166" y="-298" font-family="FreeSans" font-size="10.00">_Solver.h</text>
</a>
</g>
<!-- Node1&#45;&gt;Node2 -->
<g id="edge2" class="edge"><title>Node1&#45;&gt;Node2</title>
<path fill="none" stroke="midnightblue" d="M611.479,-365.543C526.751,-354.409 333.363,-328.994 231.515,-315.61"/>
<polygon fill="midnightblue" stroke="midnightblue" points="231.725,-312.107 221.354,-314.274 230.813,-319.048 231.725,-312.107"/>
</g>
<!-- Node12 -->
<g id="node27" class="node"><title>Node12</title>
<a xlink:href="stringUtils_8h.html" target="_top" xlink:title="Contains declarations for string manipulation functions within Cantera. ">
<polygon fill="white" stroke="black" points="258.5,-117 258.5,-137 383.5,-137 383.5,-117 258.5,-117"/>
<text text-anchor="middle" x="321" y="-124" font-family="FreeSans" font-size="10.00">cantera/base/stringUtils.h</text>
</a>
</g>
<!-- Node1&#45;&gt;Node12 -->
<g id="edge30" class="edge"><title>Node1&#45;&gt;Node12</title>
<path fill="none" stroke="midnightblue" d="M611.359,-367.7C529.632,-360.816 354.531,-343.9 336,-324 290.489,-275.128 305.527,-186.647 315.339,-147.073"/>
<polygon fill="midnightblue" stroke="midnightblue" points="318.755,-147.843 317.913,-137.282 311.985,-146.063 318.755,-147.843"/>
</g>
<!-- Node13 -->
<g id="node31" class="node"><title>Node13</title>
<polygon fill="white" stroke="#bfbfbf" points="345,-297 345,-317 469,-317 469,-297 345,-297"/>
<text text-anchor="middle" x="407" y="-304" font-family="FreeSans" font-size="10.00">sundials/sundials_types.h</text>
</g>
<!-- Node1&#45;&gt;Node13 -->
<g id="edge36" class="edge"><title>Node1&#45;&gt;Node13</title>
<path fill="none" stroke="midnightblue" d="M614.292,-360.93C571.306,-349.746 501.857,-331.678 455.333,-319.575"/>
<polygon fill="midnightblue" stroke="midnightblue" points="456.041,-316.142 445.482,-317.012 454.279,-322.917 456.041,-316.142"/>
</g>
<!-- Node14 -->
<g id="node33" class="node"><title>Node14</title>
<polygon fill="white" stroke="#bfbfbf" points="486.5,-297 486.5,-317 609.5,-317 609.5,-297 486.5,-297"/>
<text text-anchor="middle" x="548" y="-304" font-family="FreeSans" font-size="10.00">sundials/sundials_math.h</text>
</g>
<!-- Node1&#45;&gt;Node14 -->
<g id="edge38" class="edge"><title>Node1&#45;&gt;Node14</title>
<path fill="none" stroke="midnightblue" d="M636.13,-360.717C619.115,-350.346 592.645,-334.212 573.153,-322.331"/>
<polygon fill="midnightblue" stroke="midnightblue" points="574.843,-319.262 564.482,-317.046 571.199,-325.239 574.843,-319.262"/>
</g>
<!-- Node15 -->
<g id="node35" class="node"><title>Node15</title>
<polygon fill="white" stroke="#bfbfbf" points="626.5,-297 626.5,-317 679.5,-317 679.5,-297 626.5,-297"/>
<text text-anchor="middle" x="653" y="-304" font-family="FreeSans" font-size="10.00">ida/ida.h</text>
</g>
<!-- Node1&#45;&gt;Node15 -->
<g id="edge40" class="edge"><title>Node1&#45;&gt;Node15</title>
<path fill="none" stroke="midnightblue" d="M653,-360.717C653,-351.707 653,-338.347 653,-327.205"/>
<polygon fill="midnightblue" stroke="midnightblue" points="656.5,-327.046 653,-317.046 649.5,-327.046 656.5,-327.046"/>
</g>
<!-- Node16 -->
<g id="node37" class="node"><title>Node16</title>
<polygon fill="white" stroke="#bfbfbf" points="696.5,-297 696.5,-317 779.5,-317 779.5,-297 696.5,-297"/>
<text text-anchor="middle" x="738" y="-304" font-family="FreeSans" font-size="10.00">ida/ida_dense.h</text>
</g>
<!-- Node1&#45;&gt;Node16 -->
<g id="edge42" class="edge"><title>Node1&#45;&gt;Node16</title>
<path fill="none" stroke="midnightblue" d="M666.657,-360.717C680.119,-350.581 700.893,-334.939 716.559,-323.144"/>
<polygon fill="midnightblue" stroke="midnightblue" points="718.774,-325.857 724.657,-317.046 714.563,-320.265 718.774,-325.857"/>
</g>
<!-- Node17 -->
<g id="node39" class="node"><title>Node17</title>
<polygon fill="white" stroke="#bfbfbf" points="797,-297 797,-317 881,-317 881,-297 797,-297"/>
<text text-anchor="middle" x="839" y="-304" font-family="FreeSans" font-size="10.00">ida/ida_spgmr.h</text>
</g>
<!-- Node1&#45;&gt;Node17 -->
<g id="edge44" class="edge"><title>Node1&#45;&gt;Node17</title>
<path fill="none" stroke="midnightblue" d="M682.472,-360.859C714.171,-349.952 764.732,-332.555 799.775,-320.497"/>
<polygon fill="midnightblue" stroke="midnightblue" points="801.349,-323.657 809.666,-317.094 799.071,-317.038 801.349,-323.657"/>
</g>
<!-- Node18 -->
<g id="node41" class="node"><title>Node18</title>
<polygon fill="white" stroke="#bfbfbf" points="898.5,-297 898.5,-317 977.5,-317 977.5,-297 898.5,-297"/>
<text text-anchor="middle" x="938" y="-304" font-family="FreeSans" font-size="10.00">ida/ida_band.h</text>
</g>
<!-- Node1&#45;&gt;Node18 -->
<g id="edge46" class="edge"><title>Node1&#45;&gt;Node18</title>
<path fill="none" stroke="midnightblue" d="M694.525,-364.636C742.176,-356.903 822.45,-342.555 890,-324 894.028,-322.894 898.204,-321.616 902.337,-320.269"/>
<polygon fill="midnightblue" stroke="midnightblue" points="903.47,-323.581 911.81,-317.046 901.216,-316.954 903.47,-323.581"/>
</g>
<!-- Node19 -->
<g id="node43" class="node"><title>Node19</title>
<polygon fill="white" stroke="#bfbfbf" points="995,-297 995,-317 1113,-317 1113,-297 995,-297"/>
<text text-anchor="middle" x="1054" y="-304" font-family="FreeSans" font-size="10.00">nvector/nvector_serial.h</text>
</g>
<!-- Node1&#45;&gt;Node19 -->
<g id="edge48" class="edge"><title>Node1&#45;&gt;Node19</title>
<path fill="none" stroke="midnightblue" d="M694.504,-366.558C757.736,-359.472 881.846,-344.311 986,-324 992.741,-322.685 999.814,-321.124 1006.75,-319.489"/>
<polygon fill="midnightblue" stroke="midnightblue" points="1007.85,-322.822 1016.75,-317.061 1006.2,-316.019 1007.85,-322.822"/>
</g>
<!-- Node3 -->
<g id="node5" class="node"><title>Node3</title>
<a xlink:href="DAE__Solver_8h.html" target="_top" xlink:title="Header file for class DAE_Solver. ">
<polygon fill="white" stroke="black" points="189,-233 189,-253 265,-253 265,-233 189,-233"/>
<text text-anchor="middle" x="227" y="-240" font-family="FreeSans" font-size="10.00">DAE_Solver.h</text>
</a>
</g>
<!-- Node2&#45;&gt;Node3 -->
<g id="edge4" class="edge"><title>Node2&#45;&gt;Node3</title>
<path fill="none" stroke="midnightblue" d="M181.393,-290.85C190.216,-281.593 201.297,-269.967 210.326,-260.494"/>
<polygon fill="midnightblue" stroke="midnightblue" points="212.969,-262.794 217.334,-253.141 207.901,-257.965 212.969,-262.794"/>
</g>
<!-- Node8 -->
<g id="node15" class="node"><title>Node8</title>
<a xlink:href="ctexceptions_8h.html" target="_top" xlink:title="Definitions for the classes that are thrown when Cantera experiences an error condition (also contain...">
<polygon fill="white" stroke="red" points="-0.5,-59 -0.5,-79 136.5,-79 136.5,-59 -0.5,-59"/>
<text text-anchor="middle" x="68" y="-66" font-family="FreeSans" font-size="10.00">cantera/base/ctexceptions.h</text>
</a>
</g>
<!-- Node2&#45;&gt;Node8 -->
<g id="edge26" class="edge"><title>Node2&#45;&gt;Node8</title>
<path fill="none" stroke="midnightblue" d="M110.695,-300.028C81.704,-293.291 48.4696,-280.045 30,-254 -5.49342,-203.948 4.11863,-173.325 26,-116 30.3176,-104.689 38.7483,-94.3755 46.9303,-86.3106"/>
<polygon fill="midnightblue" stroke="midnightblue" points="49.5578,-88.6497 54.5563,-79.308 44.8233,-83.4936 49.5578,-88.6497"/>
</g>
<!-- Node11 -->
<g id="node25" class="node"><title>Node11</title>
<polygon fill="white" stroke="#bfbfbf" points="38.5,-233 38.5,-253 171.5,-253 171.5,-233 38.5,-233"/>
<text text-anchor="middle" x="105" y="-240" font-family="FreeSans" font-size="10.00">sundials/sundials_nvector.h</text>
</g>
<!-- Node2&#45;&gt;Node11 -->
<g id="edge28" class="edge"><title>Node2&#45;&gt;Node11</title>
<path fill="none" stroke="midnightblue" d="M150.607,-290.85C141.784,-281.593 130.703,-269.967 121.674,-260.494"/>
<polygon fill="midnightblue" stroke="midnightblue" points="124.099,-257.965 114.666,-253.141 119.031,-262.794 124.099,-257.965"/>
</g>
<!-- Node4 -->
<g id="node7" class="node"><title>Node4</title>
<a xlink:href="ResidJacEval_8h.html" target="_top" xlink:title="Dense, Square (not sparse) matrices. ">
<polygon fill="white" stroke="black" points="77,-175 77,-195 159,-195 159,-175 77,-175"/>
<text text-anchor="middle" x="118" y="-182" font-family="FreeSans" font-size="10.00">ResidJacEval.h</text>
</a>
</g>
<!-- Node3&#45;&gt;Node4 -->
<g id="edge6" class="edge"><title>Node3&#45;&gt;Node4</title>
<path fill="none" stroke="midnightblue" d="M208.014,-232.897C190.926,-223.804 165.587,-210.322 146.144,-199.976"/>
<polygon fill="midnightblue" stroke="midnightblue" points="147.607,-196.789 137.135,-195.182 144.318,-202.969 147.607,-196.789"/>
</g>
<!-- Node10 -->
<g id="node21" class="node"><title>Node10</title>
<a xlink:href="global_8h.html" target="_top" xlink:title="This file contains definitions for utility functions and text for modules, inputfiles, logs, textlogs, (see Input File Handling, Diagnostic Output, and Writing messages to the screen). ">
<polygon fill="white" stroke="black" points="177,-175 177,-195 285,-195 285,-175 177,-175"/>
<text text-anchor="middle" x="231" y="-182" font-family="FreeSans" font-size="10.00">cantera/base/global.h</text>
</a>
</g>
<!-- Node3&#45;&gt;Node10 -->
<g id="edge22" class="edge"><title>Node3&#45;&gt;Node10</title>
<path fill="none" stroke="midnightblue" d="M227.697,-232.897C228.218,-225.339 228.948,-214.748 229.59,-205.446"/>
<polygon fill="midnightblue" stroke="midnightblue" points="233.088,-205.595 230.284,-195.378 226.104,-205.113 233.088,-205.595"/>
</g>
<!-- Node5 -->
<g id="node9" class="node"><title>Node5</title>
<a xlink:href="ResidEval_8h.html" target="_top" xlink:title="ResidEval.h">
<polygon fill="white" stroke="red" points="35,-117 35,-137 101,-137 101,-117 35,-117"/>
<text text-anchor="middle" x="68" y="-124" font-family="FreeSans" font-size="10.00">ResidEval.h</text>
</a>
</g>
<!-- Node4&#45;&gt;Node5 -->
<g id="edge8" class="edge"><title>Node4&#45;&gt;Node5</title>
<path fill="none" stroke="midnightblue" d="M109.291,-174.897C102.208,-166.682 92.0368,-154.883 83.5615,-145.051"/>
<polygon fill="midnightblue" stroke="midnightblue" points="86.1266,-142.666 76.9462,-137.378 80.8247,-147.237 86.1266,-142.666"/>
</g>
<!-- Node9 -->
<g id="node18" class="node"><title>Node9</title>
<a xlink:href="GeneralMatrix_8h.html" target="_top" xlink:title="Declarations for the class GeneralMatrix which is a virtual base class for matrices handled by solver...">
<polygon fill="white" stroke="black" points="119,-117 119,-137 203,-137 203,-117 119,-117"/>
<text text-anchor="middle" x="161" y="-124" font-family="FreeSans" font-size="10.00">GeneralMatrix.h</text>
</a>
</g>
<!-- Node4&#45;&gt;Node9 -->
<g id="edge18" class="edge"><title>Node4&#45;&gt;Node9</title>
<path fill="none" stroke="midnightblue" d="M125.49,-174.897C131.459,-166.846 139.98,-155.353 147.178,-145.643"/>
<polygon fill="midnightblue" stroke="midnightblue" points="150.162,-147.495 153.306,-137.378 144.539,-143.326 150.162,-147.495"/>
</g>
<!-- Node6 -->
<g id="node11" class="node"><title>Node6</title>
<a xlink:href="ct__defs_8h.html" target="_top" xlink:title="This file contains definitions of terms that are used in internal routines and are unlikely to need m...">
<polygon fill="white" stroke="red" points="164,-59 164,-79 278,-79 278,-59 164,-59"/>
<text text-anchor="middle" x="221" y="-66" font-family="FreeSans" font-size="10.00">cantera/base/ct_defs.h</text>
</a>
</g>
<!-- Node5&#45;&gt;Node6 -->
<g id="edge10" class="edge"><title>Node5&#45;&gt;Node6</title>
<path fill="none" stroke="midnightblue" d="M94.6506,-116.897C119.585,-107.445 157.034,-93.2486 184.693,-82.7635"/>
<polygon fill="midnightblue" stroke="midnightblue" points="186.289,-85.9017 194.399,-79.0842 183.807,-79.3562 186.289,-85.9017"/>
</g>
<!-- Node5&#45;&gt;Node8 -->
<g id="edge14" class="edge"><title>Node5&#45;&gt;Node8</title>
<path fill="none" stroke="midnightblue" d="M68,-116.897C68,-109.339 68,-98.7476 68,-89.4458"/>
<polygon fill="midnightblue" stroke="midnightblue" points="71.5001,-89.3776 68,-79.3776 64.5001,-89.3776 71.5001,-89.3776"/>
</g>
<!-- Node7 -->
<g id="node13" class="node"><title>Node7</title>
<polygon fill="white" stroke="#bfbfbf" points="201,-1 201,-21 241,-21 241,-1 201,-1"/>
<text text-anchor="middle" x="221" y="-8" font-family="FreeSans" font-size="10.00">string</text>
</g>
<!-- Node6&#45;&gt;Node7 -->
<g id="edge12" class="edge"><title>Node6&#45;&gt;Node7</title>
<path fill="none" stroke="midnightblue" d="M221,-58.8972C221,-51.339 221,-40.7476 221,-31.4458"/>
<polygon fill="midnightblue" stroke="midnightblue" points="224.5,-31.3776 221,-21.3776 217.5,-31.3776 224.5,-31.3776"/>
</g>
<!-- Node8&#45;&gt;Node7 -->
<g id="edge16" class="edge"><title>Node8&#45;&gt;Node7</title>
<path fill="none" stroke="midnightblue" d="M94.6506,-58.8972C121.644,-48.6645 163.303,-32.8719 191.331,-22.247"/>
<polygon fill="midnightblue" stroke="midnightblue" points="192.878,-25.4037 200.988,-18.5862 190.397,-18.8582 192.878,-25.4037"/>
</g>
<!-- Node9&#45;&gt;Node6 -->
<g id="edge20" class="edge"><title>Node9&#45;&gt;Node6</title>
<path fill="none" stroke="midnightblue" d="M171.451,-116.897C180.12,-108.517 192.646,-96.4093 202.934,-86.4638"/>
<polygon fill="midnightblue" stroke="midnightblue" points="205.507,-88.8443 210.265,-79.3776 200.642,-83.8114 205.507,-88.8443"/>
</g>
<!-- Node10&#45;&gt;Node6 -->
<g id="edge24" class="edge"><title>Node10&#45;&gt;Node6</title>
<path fill="none" stroke="midnightblue" d="M230.113,-174.706C228.463,-155.568 224.896,-114.198 222.747,-89.2654"/>
<polygon fill="midnightblue" stroke="midnightblue" points="226.217,-88.7679 221.871,-79.1055 219.243,-89.3692 226.217,-88.7679"/>
</g>
<!-- Node12&#45;&gt;Node6 -->
<g id="edge32" class="edge"><title>Node12&#45;&gt;Node6</title>
<path fill="none" stroke="midnightblue" d="M303.581,-116.897C288.047,-107.887 265.08,-94.5665 247.308,-84.2586"/>
<polygon fill="midnightblue" stroke="midnightblue" points="248.961,-81.1713 238.555,-79.1817 245.449,-87.2265 248.961,-81.1713"/>
</g>
<!-- Node12&#45;&gt;Node7 -->
<g id="edge34" class="edge"><title>Node12&#45;&gt;Node7</title>
<path fill="none" stroke="midnightblue" d="M317.744,-116.729C312.824,-102.392 302.403,-76.1057 287,-58 276.365,-45.4986 261.714,-34.6294 248.917,-26.5016"/>
<polygon fill="midnightblue" stroke="midnightblue" points="250.373,-23.2905 240.01,-21.0836 246.735,-29.2709 250.373,-23.2905"/>
</g>
</g>
</svg>
