<?xml version="1.0" encoding="UTF-8" standalone="no"?>
<!DOCTYPE svg PUBLIC "-//W3C//DTD SVG 1.1//EN"
 "http://www.w3.org/Graphics/SVG/1.1/DTD/svg11.dtd">
<!-- Generated by graphviz version 2.40.1 (20161225.0304)
 -->
<!-- Title: IdealSolnGasVPSS.cpp Pages: 1 -->
<svg width="872pt" height="477pt"
 viewBox="0.00 0.00 872.31 477.00" xmlns="http://www.w3.org/2000/svg" xmlns:xlink="http://www.w3.org/1999/xlink">
<g id="graph0" class="graph" transform="scale(1 1) rotate(0) translate(4 473)">
<title>IdealSolnGasVPSS.cpp</title>
<polygon fill="#ffffff" stroke="transparent" points="-4,4 -4,-473 868.3063,-473 868.3063,4 -4,4"/>
<!-- Node0 -->
<g id="node1" class="node">
<title>Node0</title>
<polygon fill="#bfbfbf" stroke="#000000" points="418.0803,-450.5 418.0803,-468.5 539.7004,-468.5 539.7004,-450.5 418.0803,-450.5"/>
<text text-anchor="middle" x="478.8903" y="-456.5" font-family="Helvetica,sans-Serif" font-size="10.00" fill="#000000">IdealSolnGasVPSS.cpp</text>
</g>
<!-- Node1 -->
<g id="node2" class="node">
<title>Node1</title>
<g id="a_node2"><a xlink:href="IdealSolnGasVPSS_8h.html" target="_top" xlink:title="Definition file for a derived class of ThermoPhase that assumes either an ideal gas or ideal solution...">
<polygon fill="#ffffff" stroke="#000000" points="293.0236,-385.5 293.0236,-413.5 420.757,-413.5 420.757,-385.5 293.0236,-385.5"/>
<text text-anchor="start" x="301.0236" y="-401.5" font-family="Helvetica,sans-Serif" font-size="10.00" fill="#000000">cantera/thermo/IdealSoln</text>
<text text-anchor="middle" x="356.8903" y="-391.5" font-family="Helvetica,sans-Serif" font-size="10.00" fill="#000000">GasVPSS.h</text>
</a>
</g>
</g>
<!-- Node0&#45;&gt;Node1 -->
<g id="edge1" class="edge">
<title>Node0&#45;&gt;Node1</title>
<path fill="none" stroke="#191970" d="M460.3611,-450.3873C442.9799,-441.8392 416.4659,-428.7995 394.6294,-418.0602"/>
<polygon fill="#191970" stroke="#191970" points="396.1156,-414.8908 385.5975,-413.6183 393.0264,-421.1723 396.1156,-414.8908"/>
</g>
<!-- Node32 -->
<g id="node13" class="node">
<title>Node32</title>
<g id="a_node13"><a xlink:href="PDSS_8h.html" target="_top" xlink:title="Declarations for the virtual base class PDSS (pressure dependent standard state) which handles calcul...">
<polygon fill="#ffffff" stroke="#000000" points="202.1047,-275.5 202.1047,-293.5 253.676,-293.5 253.676,-275.5 202.1047,-275.5"/>
<text text-anchor="middle" x="227.8903" y="-281.5" font-family="Helvetica,sans-Serif" font-size="10.00" fill="#000000">PDSS.h</text>
</a>
</g>
</g>
<!-- Node0&#45;&gt;Node32 -->
<g id="edge16" class="edge">
<title>Node0&#45;&gt;Node32</title>
<path fill="none" stroke="#191970" d="M418.0418,-451.3841C368.6831,-443.7182 304.0999,-430.8825 283.8903,-414 249.7035,-385.4413 235.828,-332.1058 230.6584,-303.6079"/>
<polygon fill="#191970" stroke="#191970" points="234.104,-302.9906 229.0328,-293.6883 227.1962,-304.1227 234.104,-302.9906"/>
</g>
<!-- Node33 -->
<g id="node14" class="node">
<title>Node33</title>
<g id="a_node14"><a xlink:href="ThermoFactory_8h.html" target="_top" xlink:title="Headers for the factory class that can create known ThermoPhase objects (see Thermodynamic Properties...">
<polygon fill="#ffffff" stroke="#000000" points="398.1755,-330.5 398.1755,-348.5 559.6052,-348.5 559.6052,-330.5 398.1755,-330.5"/>
<text text-anchor="middle" x="478.8903" y="-336.5" font-family="Helvetica,sans-Serif" font-size="10.00" fill="#000000">cantera/thermo/ThermoFactory.h</text>
</a>
</g>
</g>
<!-- Node0&#45;&gt;Node33 -->
<g id="edge17" class="edge">
<title>Node0&#45;&gt;Node33</title>
<path fill="none" stroke="#191970" d="M478.8903,-450.4805C478.8903,-431.1085 478.8903,-385.155 478.8903,-358.8576"/>
<polygon fill="#191970" stroke="#191970" points="482.3904,-358.6241 478.8903,-348.6242 475.3904,-358.6242 482.3904,-358.6241"/>
</g>
<!-- Node38 -->
<g id="node20" class="node">
<title>Node38</title>
<g id="a_node20"><a xlink:href="stringUtils_8h.html" target="_top" xlink:title="Contains declarations for string manipulation functions within Cantera. ">
<polygon fill="#ffffff" stroke="#000000" points="735.4743,-165.5 735.4743,-183.5 864.3063,-183.5 864.3063,-165.5 735.4743,-165.5"/>
<text text-anchor="middle" x="799.8903" y="-171.5" font-family="Helvetica,sans-Serif" font-size="10.00" fill="#000000">cantera/base/stringUtils.h</text>
</a>
</g>
</g>
<!-- Node0&#45;&gt;Node38 -->
<g id="edge29" class="edge">
<title>Node0&#45;&gt;Node38</title>
<path fill="none" stroke="#191970" d="M519.7612,-450.4916C595.919,-432.5168 751.8903,-389.5899 751.8903,-339.5 751.8903,-339.5 751.8903,-339.5 751.8903,-284.5 751.8903,-249.2884 772.8071,-212.6307 787.0252,-191.7801"/>
<polygon fill="#191970" stroke="#191970" points="789.8828,-193.8011 792.8077,-183.618 784.1709,-189.7545 789.8828,-193.8011"/>
</g>
<!-- Node39 -->
<g id="node21" class="node">
<title>Node39</title>
<g id="a_node21"><a xlink:href="utilities_8h.html" target="_top" xlink:title="Various templated functions that carry out common vector operations (see Templated Utility Functions)...">
<polygon fill="#ffffff" stroke="#000000" points="553.1393,-220.5 553.1393,-238.5 668.6413,-238.5 668.6413,-220.5 553.1393,-220.5"/>
<text text-anchor="middle" x="610.8903" y="-226.5" font-family="Helvetica,sans-Serif" font-size="10.00" fill="#000000">cantera/base/utilities.h</text>
</a>
</g>
</g>
<!-- Node0&#45;&gt;Node39 -->
<g id="edge33" class="edge">
<title>Node0&#45;&gt;Node39</title>
<path fill="none" stroke="#191970" d="M488.3184,-450.2861C506.2477,-432.309 545.5478,-390.658 568.8903,-349 587.5341,-315.7274 600.1936,-272.6889 606.4201,-248.3889"/>
<polygon fill="#191970" stroke="#191970" points="609.8267,-249.1926 608.8266,-238.6451 603.0309,-247.5141 609.8267,-249.1926"/>
</g>
<!-- Node2 -->
<g id="node3" class="node">
<title>Node2</title>
<g id="a_node3"><a xlink:href="VPStandardStateTP_8h.html" target="_top" xlink:title="Header file for a derived class of ThermoPhase that handles variable pressure standard state methods ...">
<polygon fill="#ffffff" stroke="#000000" points="267.3381,-330.5 267.3381,-348.5 380.4426,-348.5 380.4426,-330.5 267.3381,-330.5"/>
<text text-anchor="middle" x="323.8903" y="-336.5" font-family="Helvetica,sans-Serif" font-size="10.00" fill="#000000">VPStandardStateTP.h</text>
</a>
</g>
</g>
<!-- Node1&#45;&gt;Node2 -->
<g id="edge2" class="edge">
<title>Node1&#45;&gt;Node2</title>
<path fill="none" stroke="#191970" d="M349.0698,-385.2808C344.4788,-376.9336 338.6345,-366.3076 333.7323,-357.3946"/>
<polygon fill="#191970" stroke="#191970" points="336.7726,-355.6596 328.8866,-348.5842 330.6391,-359.0331 336.7726,-355.6596"/>
</g>
<!-- Node3 -->
<g id="node4" class="node">
<title>Node3</title>
<g id="a_node4"><a xlink:href="ThermoPhase_8h.html" target="_top" xlink:title="Header file for class ThermoPhase, the base class for phases with thermodynamic properties, and the text for the Module thermoprops (see Thermodynamic Properties and class ThermoPhase). ">
<polygon fill="#ffffff" stroke="#000000" points="310.3166,-275.5 310.3166,-293.5 397.464,-293.5 397.464,-275.5 310.3166,-275.5"/>
<text text-anchor="middle" x="353.8903" y="-281.5" font-family="Helvetica,sans-Serif" font-size="10.00" fill="#000000">ThermoPhase.h</text>
</a>
</g>
</g>
<!-- Node2&#45;&gt;Node3 -->
<g id="edge3" class="edge">
<title>Node2&#45;&gt;Node3</title>
<path fill="none" stroke="#191970" d="M328.8442,-330.4179C332.945,-322.8998 338.8996,-311.9829 343.974,-302.6799"/>
<polygon fill="#191970" stroke="#191970" points="347.1129,-304.2344 348.8288,-293.7795 340.9676,-300.8824 347.1129,-304.2344"/>
</g>
<!-- Node2&#45;&gt;Node32 -->
<g id="edge14" class="edge">
<title>Node2&#45;&gt;Node32</title>
<path fill="none" stroke="#191970" d="M308.0379,-330.4179C293.0299,-321.8195 270.2619,-308.7754 252.8231,-298.7844"/>
<polygon fill="#191970" stroke="#191970" points="254.1831,-295.5299 243.7663,-293.5956 250.7033,-301.6037 254.1831,-295.5299"/>
</g>
<!-- Node4 -->
<g id="node5" class="node">
<title>Node4</title>
<g id="a_node5"><a xlink:href="Phase_8h.html" target="_top" xlink:title="Header file for class Phase. ">
<polygon fill="#ffffff" stroke="#ff0000" points="326.5431,-220.5 326.5431,-238.5 379.2375,-238.5 379.2375,-220.5 326.5431,-220.5"/>
<text text-anchor="middle" x="352.8903" y="-226.5" font-family="Helvetica,sans-Serif" font-size="10.00" fill="#000000">Phase.h</text>
</a>
</g>
</g>
<!-- Node3&#45;&gt;Node4 -->
<g id="edge4" class="edge">
<title>Node3&#45;&gt;Node4</title>
<path fill="none" stroke="#191970" d="M353.7252,-275.4179C353.5942,-268.2164 353.4066,-257.8962 353.2424,-248.8632"/>
<polygon fill="#191970" stroke="#191970" points="356.7403,-248.7141 353.059,-238.7795 349.7415,-248.8415 356.7403,-248.7141"/>
</g>
<!-- Node29 -->
<g id="node11" class="node">
<title>Node29</title>
<g id="a_node11"><a xlink:href="MultiSpeciesThermo_8h.html" target="_top" xlink:title="Header for a general species thermodynamic property manager for a phase (see MultiSpeciesThermo). ">
<polygon fill="#ffffff" stroke="#ff0000" points="193.1491,-220.5 193.1491,-238.5 308.6315,-238.5 308.6315,-220.5 193.1491,-220.5"/>
<text text-anchor="middle" x="250.8903" y="-226.5" font-family="Helvetica,sans-Serif" font-size="10.00" fill="#000000">MultiSpeciesThermo.h</text>
</a>
</g>
</g>
<!-- Node3&#45;&gt;Node29 -->
<g id="edge10" class="edge">
<title>Node3&#45;&gt;Node29</title>
<path fill="none" stroke="#191970" d="M336.882,-275.4179C320.556,-266.7001 295.6713,-253.4122 276.8649,-243.3699"/>
<polygon fill="#191970" stroke="#191970" points="278.3937,-240.2186 267.9239,-238.5956 275.0965,-246.3934 278.3937,-240.2186"/>
</g>
<!-- Node22 -->
<g id="node12" class="node">
<title>Node22</title>
<g id="a_node12"><a xlink:href="global_8h.html" target="_top" xlink:title="This file contains definitions for utility functions and text for modules, inputfiles, logs, textlogs, (see Input File Handling, Diagnostic Output, and Writing messages to the screen). ">
<polygon fill="#ffffff" stroke="#000000" points="422.0778,-165.5 422.0778,-183.5 533.7028,-183.5 533.7028,-165.5 422.0778,-165.5"/>
<text text-anchor="middle" x="477.8903" y="-171.5" font-family="Helvetica,sans-Serif" font-size="10.00" fill="#000000">cantera/base/global.h</text>
</a>
</g>
</g>
<!-- Node3&#45;&gt;Node22 -->
<g id="edge11" class="edge">
<title>Node3&#45;&gt;Node22</title>
<path fill="none" stroke="#191970" d="M364.1106,-275.2765C378.0374,-262.7235 403.7756,-239.5795 425.8903,-220 437.1172,-210.0601 449.7781,-198.9791 459.7959,-190.2412"/>
<polygon fill="#191970" stroke="#191970" points="462.2593,-192.7371 467.4997,-183.529 457.6608,-187.4593 462.2593,-192.7371"/>
</g>
<!-- Node5 -->
<g id="node6" class="node">
<title>Node5</title>
<g id="a_node6"><a xlink:href="ctexceptions_8h.html" target="_top" xlink:title="Definitions for the classes that are thrown when Cantera experiences an error condition (also contain...">
<polygon fill="#ffffff" stroke="#ff0000" points="263.6296,-165.5 263.6296,-183.5 404.1511,-183.5 404.1511,-165.5 263.6296,-165.5"/>
<text text-anchor="middle" x="333.8903" y="-171.5" font-family="Helvetica,sans-Serif" font-size="10.00" fill="#000000">cantera/base/ctexceptions.h</text>
</a>
</g>
</g>
<!-- Node4&#45;&gt;Node5 -->
<g id="edge5" class="edge">
<title>Node4&#45;&gt;Node5</title>
<path fill="none" stroke="#191970" d="M349.7528,-220.4179C347.2104,-213.0581 343.5427,-202.441 340.3743,-193.2695"/>
<polygon fill="#191970" stroke="#191970" points="343.6694,-192.0885 337.0959,-183.7795 337.053,-194.3742 343.6694,-192.0885"/>
</g>
<!-- Node6 -->
<g id="node7" class="node">
<title>Node6</title>
<g id="a_node7"><a xlink:href="fmt_8h.html" target="_top" xlink:title="Wrapper for either system&#45;installed or local headers for fmt. ">
<polygon fill="#ffffff" stroke="#ff0000" points="397.4792,-110.5 397.4792,-128.5 496.3014,-128.5 496.3014,-110.5 397.4792,-110.5"/>
<text text-anchor="middle" x="446.8903" y="-116.5" font-family="Helvetica,sans-Serif" font-size="10.00" fill="#000000">cantera/base/fmt.h</text>
</a>
</g>
</g>
<!-- Node5&#45;&gt;Node6 -->
<g id="edge6" class="edge">
<title>Node5&#45;&gt;Node6</title>
<path fill="none" stroke="#191970" d="M352.55,-165.4179C370.6246,-156.6205 398.2611,-143.1691 418.9575,-133.0956"/>
<polygon fill="#191970" stroke="#191970" points="420.7432,-136.1191 428.2029,-128.5956 417.6797,-129.825 420.7432,-136.1191"/>
</g>
<!-- Node7 -->
<g id="node8" class="node">
<title>Node7</title>
<g id="a_node8"><a xlink:href="ct__defs_8h.html" target="_top" xlink:title="This file contains definitions of terms that are used in internal routines and are unlikely to need m...">
<polygon fill="#ffffff" stroke="#ff0000" points="495.5998,-55.5 495.5998,-73.5 552.1808,-73.5 552.1808,-55.5 495.5998,-55.5"/>
<text text-anchor="middle" x="523.8903" y="-61.5" font-family="Helvetica,sans-Serif" font-size="10.00" fill="#000000">ct_defs.h</text>
</a>
</g>
</g>
<!-- Node6&#45;&gt;Node7 -->
<g id="edge7" class="edge">
<title>Node6&#45;&gt;Node7</title>
<path fill="none" stroke="#191970" d="M459.6053,-110.4179C471.3086,-102.0584 488.895,-89.4966 502.7168,-79.6239"/>
<polygon fill="#191970" stroke="#191970" points="505.0534,-82.2561 511.1564,-73.5956 500.9847,-76.56 505.0534,-82.2561"/>
</g>
<!-- Node11 -->
<g id="node9" class="node">
<title>Node11</title>
<polygon fill="#ffffff" stroke="#bfbfbf" points="245.2746,-.5 245.2746,-18.5 288.506,-18.5 288.506,-.5 245.2746,-.5"/>
<text text-anchor="middle" x="266.8903" y="-6.5" font-family="Helvetica,sans-Serif" font-size="10.00" fill="#000000">vector</text>
</g>
<!-- Node7&#45;&gt;Node11 -->
<g id="edge8" class="edge">
<title>Node7&#45;&gt;Node11</title>
<path fill="none" stroke="#191970" d="M495.4049,-58.4039C447.0885,-48.0638 349.4021,-27.1582 298.8355,-16.3365"/>
<polygon fill="#191970" stroke="#191970" points="299.3061,-12.8581 288.795,-14.1878 297.8412,-19.7031 299.3061,-12.8581"/>
</g>
<!-- Node13 -->
<g id="node10" class="node">
<title>Node13</title>
<polygon fill="#ffffff" stroke="#bfbfbf" points="560.6637,-.5 560.6637,-18.5 601.1169,-18.5 601.1169,-.5 560.6637,-.5"/>
<text text-anchor="middle" x="580.8903" y="-6.5" font-family="Helvetica,sans-Serif" font-size="10.00" fill="#000000">string</text>
</g>
<!-- Node7&#45;&gt;Node13 -->
<g id="edge9" class="edge">
<title>Node7&#45;&gt;Node13</title>
<path fill="none" stroke="#191970" d="M533.3027,-55.4179C541.5862,-47.425 553.8512,-35.5903 563.8548,-25.9377"/>
<polygon fill="#191970" stroke="#191970" points="566.5075,-28.2419 571.2734,-18.7795 561.6469,-23.2045 566.5075,-28.2419"/>
</g>
<!-- Node22&#45;&gt;Node6 -->
<g id="edge13" class="edge">
<title>Node22&#45;&gt;Node6</title>
<path fill="none" stroke="#191970" d="M472.7713,-165.4179C468.5338,-157.8998 462.3807,-146.9829 457.1371,-137.6799"/>
<polygon fill="#191970" stroke="#191970" points="460.0798,-135.7724 452.1205,-128.7795 453.9817,-139.2096 460.0798,-135.7724"/>
</g>
<!-- Node22&#45;&gt;Node7 -->
<g id="edge12" class="edge">
<title>Node22&#45;&gt;Node7</title>
<path fill="none" stroke="#191970" d="M484.1819,-165.4506C490.166,-156.5179 499.0918,-142.3042 504.8903,-129 511.3763,-114.1183 516.4223,-96.3718 519.6788,-83.2642"/>
<polygon fill="#191970" stroke="#191970" points="523.0902,-84.0467 521.9857,-73.5096 516.2781,-82.4356 523.0902,-84.0467"/>
</g>
<!-- Node32&#45;&gt;Node7 -->
<g id="edge15" class="edge">
<title>Node32&#45;&gt;Node7</title>
<path fill="none" stroke="#191970" d="M201.943,-282.0808C153.0037,-276.9899 49.7422,-263.565 24.8903,-239 1.1415,-215.5254 -9.3263,-190.786 11.8903,-165 72.1857,-91.7187 376.7514,-71.0706 485.3524,-65.9886"/>
<polygon fill="#191970" stroke="#191970" points="485.7005,-69.4766 495.5334,-65.5314 485.3864,-62.4837 485.7005,-69.4766"/>
</g>
<!-- Node33&#45;&gt;Node3 -->
<g id="edge18" class="edge">
<title>Node33&#45;&gt;Node3</title>
<path fill="none" stroke="#191970" d="M458.2491,-330.4179C437.9837,-321.5011 406.8518,-307.803 383.8614,-297.6873"/>
<polygon fill="#191970" stroke="#191970" points="385.1249,-294.4195 374.5622,-293.5956 382.3057,-300.8267 385.1249,-294.4195"/>
</g>
<!-- Node34 -->
<g id="node15" class="node">
<title>Node34</title>
<g id="a_node15"><a xlink:href="xml_8h.html" target="_top" xlink:title="Classes providing support for XML data files. ">
<polygon fill="#ffffff" stroke="#000000" points="434.6467,-220.5 434.6467,-238.5 535.134,-238.5 535.134,-220.5 434.6467,-220.5"/>
<text text-anchor="middle" x="484.8903" y="-226.5" font-family="Helvetica,sans-Serif" font-size="10.00" fill="#000000">cantera/base/xml.h</text>
</a>
</g>
</g>
<!-- Node33&#45;&gt;Node34 -->
<g id="edge19" class="edge">
<title>Node33&#45;&gt;Node34</title>
<path fill="none" stroke="#191970" d="M479.3813,-330.4982C480.3526,-312.6913 482.5382,-272.6225 483.8457,-248.6515"/>
<polygon fill="#191970" stroke="#191970" points="487.3426,-248.802 484.3925,-238.6261 480.353,-248.4206 487.3426,-248.802"/>
</g>
<!-- Node35 -->
<g id="node16" class="node">
<title>Node35</title>
<g id="a_node16"><a xlink:href="FactoryBase_8h.html" target="_top" xlink:title="File contains the FactoryBase class declarations. ">
<polygon fill="#ffffff" stroke="#000000" points="34.3561,-220.5 34.3561,-238.5 175.4245,-238.5 175.4245,-220.5 34.3561,-220.5"/>
<text text-anchor="middle" x="104.8903" y="-226.5" font-family="Helvetica,sans-Serif" font-size="10.00" fill="#000000">cantera/base/FactoryBase.h</text>
</a>
</g>
</g>
<!-- Node33&#45;&gt;Node35 -->
<g id="edge22" class="edge">
<title>Node33&#45;&gt;Node35</title>
<path fill="none" stroke="#191970" d="M432.3335,-330.4505C395.9289,-322.6973 344.3742,-310.2164 300.8903,-294 283.1982,-287.4021 280.481,-281.8637 262.8903,-275 227.0167,-261.0026 185.077,-249.1227 153.4257,-241.0154"/>
<polygon fill="#191970" stroke="#191970" points="154.0841,-237.5719 143.5316,-238.5179 152.3708,-244.359 154.0841,-237.5719"/>
</g>
<!-- Node34&#45;&gt;Node5 -->
<g id="edge20" class="edge">
<title>Node34&#45;&gt;Node5</title>
<path fill="none" stroke="#191970" d="M459.9557,-220.4179C434.9633,-211.3147 396.2897,-197.2283 368.3667,-187.0576"/>
<polygon fill="#191970" stroke="#191970" points="369.205,-183.6381 358.611,-183.5042 366.8092,-190.2153 369.205,-183.6381"/>
</g>
<!-- Node34&#45;&gt;Node22 -->
<g id="edge21" class="edge">
<title>Node34&#45;&gt;Node22</title>
<path fill="none" stroke="#191970" d="M483.7344,-220.4179C482.8178,-213.2164 481.5044,-202.8962 480.3547,-193.8632"/>
<polygon fill="#191970" stroke="#191970" points="483.806,-193.2575 479.0713,-183.7795 476.862,-194.1414 483.806,-193.2575"/>
</g>
<!-- Node35&#45;&gt;Node5 -->
<g id="edge27" class="edge">
<title>Node35&#45;&gt;Node5</title>
<path fill="none" stroke="#191970" d="M142.4486,-220.4795C181.8012,-211.0279 243.7223,-196.1561 286.4316,-185.8984"/>
<polygon fill="#191970" stroke="#191970" points="287.4054,-189.2641 296.3115,-183.5255 285.7707,-182.4577 287.4054,-189.2641"/>
</g>
<!-- Node35&#45;&gt;Node11 -->
<g id="edge23" class="edge">
<title>Node35&#45;&gt;Node11</title>
<path fill="none" stroke="#191970" d="M68.3648,-220.47C36.1749,-210.5255 -3.4048,-192.2417 11.8903,-165 60.4039,-78.5941 178.5902,-34.5376 235.3918,-17.7538"/>
<polygon fill="#191970" stroke="#191970" points="236.6011,-21.0484 245.253,-14.9332 234.676,-14.3183 236.6011,-21.0484"/>
</g>
<!-- Node35&#45;&gt;Node22 -->
<g id="edge28" class="edge">
<title>Node35&#45;&gt;Node22</title>
<path fill="none" stroke="#191970" d="M166.066,-220.4795C233.732,-210.5019 342.3638,-194.4838 411.9018,-184.2302"/>
<polygon fill="#191970" stroke="#191970" points="412.4859,-187.682 421.8683,-182.7606 411.4647,-180.7569 412.4859,-187.682"/>
</g>
<!-- Node36 -->
<g id="node17" class="node">
<title>Node36</title>
<polygon fill="#ffffff" stroke="#bfbfbf" points="202.2746,-165.5 202.2746,-183.5 245.506,-183.5 245.506,-165.5 202.2746,-165.5"/>
<text text-anchor="middle" x="223.8903" y="-171.5" font-family="Helvetica,sans-Serif" font-size="10.00" fill="#000000">mutex</text>
</g>
<!-- Node35&#45;&gt;Node36 -->
<g id="edge24" class="edge">
<title>Node35&#45;&gt;Node36</title>
<path fill="none" stroke="#191970" d="M124.5407,-220.4179C143.7473,-211.5409 173.2066,-197.9253 195.0643,-187.823"/>
<polygon fill="#191970" stroke="#191970" points="196.6017,-190.9682 204.2107,-183.5956 193.6649,-184.614 196.6017,-190.9682"/>
</g>
<!-- Node23 -->
<g id="node18" class="node">
<title>Node23</title>
<polygon fill="#ffffff" stroke="#bfbfbf" points="20.5876,-165.5 20.5876,-183.5 107.193,-183.5 107.193,-165.5 20.5876,-165.5"/>
<text text-anchor="middle" x="63.8903" y="-171.5" font-family="Helvetica,sans-Serif" font-size="10.00" fill="#000000">unordered_map</text>
</g>
<!-- Node35&#45;&gt;Node23 -->
<g id="edge25" class="edge">
<title>Node35&#45;&gt;Node23</title>
<path fill="none" stroke="#191970" d="M98.12,-220.4179C92.3386,-212.6624 83.861,-201.29 76.7893,-191.8035"/>
<polygon fill="#191970" stroke="#191970" points="79.5905,-189.7051 70.8077,-183.7795 73.9783,-193.8888 79.5905,-189.7051"/>
</g>
<!-- Node37 -->
<g id="node19" class="node">
<title>Node37</title>
<polygon fill="#ffffff" stroke="#bfbfbf" points="125.4865,-165.5 125.4865,-183.5 184.2941,-183.5 184.2941,-165.5 125.4865,-165.5"/>
<text text-anchor="middle" x="154.8903" y="-171.5" font-family="Helvetica,sans-Serif" font-size="10.00" fill="#000000">functional</text>
</g>
<!-- Node35&#45;&gt;Node37 -->
<g id="edge26" class="edge">
<title>Node35&#45;&gt;Node37</title>
<path fill="none" stroke="#191970" d="M113.1468,-220.4179C120.3411,-212.5041 130.9591,-200.8243 139.6857,-191.2251"/>
<polygon fill="#191970" stroke="#191970" points="142.3175,-193.5332 146.4544,-183.7795 137.1379,-188.8245 142.3175,-193.5332"/>
</g>
<!-- Node38&#45;&gt;Node6 -->
<g id="edge31" class="edge">
<title>Node38&#45;&gt;Node6</title>
<path fill="none" stroke="#191970" d="M741.9948,-165.4795C677.1055,-155.3692 572.409,-139.0567 506.7351,-128.8243"/>
<polygon fill="#191970" stroke="#191970" points="506.9616,-125.3174 496.5419,-127.2361 505.8839,-132.2339 506.9616,-125.3174"/>
</g>
<!-- Node38&#45;&gt;Node7 -->
<g id="edge30" class="edge">
<title>Node38&#45;&gt;Node7</title>
<path fill="none" stroke="#191970" d="M777.3041,-165.4982C728.4805,-146.0396 612.9564,-99.9974 556.3252,-77.4269"/>
<polygon fill="#191970" stroke="#191970" points="557.3739,-74.0772 546.7886,-73.6261 554.7822,-80.5798 557.3739,-74.0772"/>
</g>
<!-- Node38&#45;&gt;Node13 -->
<g id="edge32" class="edge">
<title>Node38&#45;&gt;Node13</title>
<path fill="none" stroke="#191970" d="M787.804,-165.3939C751.908,-138.349 645.6558,-58.2959 601.0083,-24.6574"/>
<polygon fill="#191970" stroke="#191970" points="603.0323,-21.8001 592.9393,-18.578 598.82,-27.3909 603.0323,-21.8001"/>
</g>
<!-- Node39&#45;&gt;Node7 -->
<g id="edge34" class="edge">
<title>Node39&#45;&gt;Node7</title>
<path fill="none" stroke="#191970" d="M604.2986,-220.3248C597.9453,-211.2988 588.2404,-197.018 580.8903,-184 561.3001,-149.3031 542.105,-106.8026 531.7524,-82.9759"/>
<polygon fill="#191970" stroke="#191970" points="534.9329,-81.5124 527.7646,-73.7107 528.5032,-84.2798 534.9329,-81.5124"/>
</g>
<!-- Node39&#45;&gt;Node22 -->
<g id="edge35" class="edge">
<title>Node39&#45;&gt;Node22</title>
<path fill="none" stroke="#191970" d="M588.9281,-220.4179C567.1731,-211.4215 533.6489,-197.5581 509.1264,-187.4172"/>
<polygon fill="#191970" stroke="#191970" points="510.4637,-184.1828 499.8852,-183.5956 507.7887,-190.6515 510.4637,-184.1828"/>
</g>
<!-- Node40 -->
<g id="node22" class="node">
<title>Node40</title>
<polygon fill="#ffffff" stroke="#bfbfbf" points="589.4889,-165.5 589.4889,-183.5 648.2917,-183.5 648.2917,-165.5 589.4889,-165.5"/>
<text text-anchor="middle" x="618.8903" y="-171.5" font-family="Helvetica,sans-Serif" font-size="10.00" fill="#000000">stdexcept</text>
</g>
<!-- Node39&#45;&gt;Node40 -->
<g id="edge36" class="edge">
<title>Node39&#45;&gt;Node40</title>
<path fill="none" stroke="#191970" d="M612.2113,-220.4179C613.2588,-213.2164 614.76,-202.8962 616.0738,-193.8632"/>
<polygon fill="#191970" stroke="#191970" points="619.5646,-194.1791 617.5406,-183.7795 612.6375,-193.1715 619.5646,-194.1791"/>
</g>
<!-- Node41 -->
<g id="node23" class="node">
<title>Node41</title>
<polygon fill="#ffffff" stroke="#bfbfbf" points="666.1071,-165.5 666.1071,-183.5 717.6735,-183.5 717.6735,-165.5 666.1071,-165.5"/>
<text text-anchor="middle" x="691.8903" y="-171.5" font-family="Helvetica,sans-Serif" font-size="10.00" fill="#000000">numeric</text>
</g>
<!-- Node39&#45;&gt;Node41 -->
<g id="edge37" class="edge">
<title>Node39&#45;&gt;Node41</title>
<path fill="none" stroke="#191970" d="M624.2658,-220.4179C636.6943,-211.9788 655.43,-199.257 670.0313,-189.3426"/>
<polygon fill="#191970" stroke="#191970" points="672.188,-192.1088 678.4949,-183.5956 668.2557,-186.3176 672.188,-192.1088"/>
</g>
</g>
</svg>
