<?xml version="1.0" encoding="UTF-8" standalone="no"?>
<!DOCTYPE svg PUBLIC "-//W3C//DTD SVG 1.1//EN"
 "http://www.w3.org/Graphics/SVG/1.1/DTD/svg11.dtd">
<!-- Generated by graphviz version 2.26.3 (20100126.1600)
 -->
<!-- Title: IdealGasPhase.h Pages: 1 -->
<svg width="883pt" height="204pt"
 viewBox="0.00 0.00 883.00 204.00" xmlns="http://www.w3.org/2000/svg" xmlns:xlink="http://www.w3.org/1999/xlink">
<g id="graph1" class="graph" transform="scale(1 1) rotate(0) translate(4 200)">
<title>IdealGasPhase.h</title>
<polygon fill="white" stroke="white" points="-4,5 -4,-200 880,-200 880,5 -4,5"/>
<!-- Node1 -->
<g id="node1" class="node"><title>Node1</title>
<polygon fill="#bfbfbf" stroke="black" points="356.5,-175 356.5,-195 445.5,-195 445.5,-175 356.5,-175"/>
<text text-anchor="middle" x="401" y="-182" font-family="FreeSans" font-size="10.00">IdealGasPhase.h</text>
</g>
<!-- Node2 -->
<g id="node3" class="node"><title>Node2</title>
<a xlink:href="IdealGasPhase_8cpp.html" target="_top" xlink:title="ThermoPhase object for the ideal gas equation of state &#45; workhorse for Cantera (see Thermodynamic Pro...">
<polygon fill="white" stroke="black" points="0,-117 0,-137 100,-137 100,-117 0,-117"/>
<text text-anchor="middle" x="50" y="-124" font-family="FreeSans" font-size="10.00">IdealGasPhase.cpp</text>
</a>
</g>
<!-- Node1&#45;&gt;Node2 -->
<g id="edge2" class="edge"><title>Node1&#45;&gt;Node2</title>
<path fill="none" stroke="midnightblue" d="M346.256,-176.602C287.53,-167.497 191.563,-152.339 109,-138 106.126,-137.501 103.174,-136.979 100.197,-136.446"/>
<polygon fill="midnightblue" stroke="midnightblue" points="346.002,-180.105 356.42,-178.175 347.073,-173.187 346.002,-180.105"/>
</g>
<!-- Node3 -->
<g id="node5" class="node"><title>Node3</title>
<a xlink:href="ThermoFactory_8cpp.html" target="_top" xlink:title="Definitions for the factory class that can create known ThermoPhase objects (see Thermodynamic Proper...">
<polygon fill="white" stroke="black" points="118,-117 118,-137 218,-137 218,-117 118,-117"/>
<text text-anchor="middle" x="168" y="-124" font-family="FreeSans" font-size="10.00">ThermoFactory.cpp</text>
</a>
</g>
<!-- Node1&#45;&gt;Node3 -->
<g id="edge4" class="edge"><title>Node1&#45;&gt;Node3</title>
<path fill="none" stroke="midnightblue" d="M350.786,-172.5C308.139,-161.884 247.73,-146.847 208.216,-137.011"/>
<polygon fill="midnightblue" stroke="midnightblue" points="350.131,-175.944 360.68,-174.963 351.822,-169.151 350.131,-175.944"/>
</g>
<!-- Node4 -->
<g id="node7" class="node"><title>Node4</title>
<a xlink:href="MultiTransport_8cpp.html" target="_top" xlink:title="Implementation file for class MultiTransport. ">
<polygon fill="white" stroke="black" points="236,-117 236,-137 332,-137 332,-117 236,-117"/>
<text text-anchor="middle" x="284" y="-124" font-family="FreeSans" font-size="10.00">MultiTransport.cpp</text>
</a>
</g>
<!-- Node1&#45;&gt;Node4 -->
<g id="edge6" class="edge"><title>Node1&#45;&gt;Node4</title>
<path fill="none" stroke="midnightblue" d="M371.538,-170.395C350.632,-160.031 323.099,-146.383 304.539,-137.182"/>
<polygon fill="midnightblue" stroke="midnightblue" points="370.106,-173.591 380.62,-174.897 373.215,-167.32 370.106,-173.591"/>
</g>
<!-- Node5 -->
<g id="node9" class="node"><title>Node5</title>
<a xlink:href="PecosTransport_8cpp.html" target="_top" xlink:title="Mixture&#45;averaged transport properties. ">
<polygon fill="white" stroke="black" points="350,-117 350,-137 452,-137 452,-117 350,-117"/>
<text text-anchor="middle" x="401" y="-124" font-family="FreeSans" font-size="10.00">PecosTransport.cpp</text>
</a>
</g>
<!-- Node1&#45;&gt;Node5 -->
<g id="edge8" class="edge"><title>Node1&#45;&gt;Node5</title>
<path fill="none" stroke="midnightblue" d="M401,-164.89C401,-155.62 401,-145.008 401,-137.378"/>
<polygon fill="midnightblue" stroke="midnightblue" points="397.5,-164.897 401,-174.897 404.5,-164.897 397.5,-164.897"/>
</g>
<!-- Node6 -->
<g id="node11" class="node"><title>Node6</title>
<a xlink:href="TransportFactory_8cpp.html" target="_top" xlink:title="Implementation file for class TransportFactory. ">
<polygon fill="white" stroke="black" points="469.5,-117 469.5,-137 576.5,-137 576.5,-117 469.5,-117"/>
<text text-anchor="middle" x="523" y="-124" font-family="FreeSans" font-size="10.00">TransportFactory.cpp</text>
</a>
</g>
<!-- Node1&#45;&gt;Node6 -->
<g id="edge10" class="edge"><title>Node1&#45;&gt;Node6</title>
<path fill="none" stroke="midnightblue" d="M431.427,-170.535C453.261,-160.155 482.143,-146.424 501.583,-137.182"/>
<polygon fill="midnightblue" stroke="midnightblue" points="429.779,-167.443 422.251,-174.897 432.785,-173.764 429.779,-167.443"/>
</g>
<!-- Node7 -->
<g id="node13" class="node"><title>Node7</title>
<a xlink:href="IdealGasMix_8h.html" target="_top" xlink:title="IdealGasMix.h">
<polygon fill="white" stroke="black" points="593.5,-117 593.5,-137 670.5,-137 670.5,-117 593.5,-117"/>
<text text-anchor="middle" x="632" y="-124" font-family="FreeSans" font-size="10.00">IdealGasMix.h</text>
</a>
</g>
<!-- Node1&#45;&gt;Node7 -->
<g id="edge12" class="edge"><title>Node1&#45;&gt;Node7</title>
<path fill="none" stroke="midnightblue" d="M450.876,-172.477C493.57,-161.757 554.168,-146.542 593.284,-136.721"/>
<polygon fill="midnightblue" stroke="midnightblue" points="449.82,-169.133 440.973,-174.963 451.525,-175.923 449.82,-169.133"/>
</g>
<!-- Node8 -->
<g id="node15" class="node"><title>Node8</title>
<a xlink:href="StFlow_8h.html" target="_top" xlink:title="StFlow.h">
<polygon fill="white" stroke="black" points="688,-117 688,-137 742,-137 742,-117 688,-117"/>
<text text-anchor="middle" x="715" y="-124" font-family="FreeSans" font-size="10.00">StFlow.h</text>
</a>
</g>
<!-- Node1&#45;&gt;Node8 -->
<g id="edge14" class="edge"><title>Node1&#45;&gt;Node8</title>
<path fill="none" stroke="midnightblue" d="M455.772,-177.87C512.144,-170.035 602.313,-156.119 679,-138 681.926,-137.309 684.962,-136.511 687.975,-135.667"/>
<polygon fill="midnightblue" stroke="midnightblue" points="455.08,-174.432 445.65,-179.262 456.034,-181.367 455.08,-174.432"/>
</g>
<!-- Node9 -->
<g id="node17" class="node"><title>Node9</title>
<a xlink:href="refine_8cpp.html" target="_top" xlink:title="refine.cpp">
<polygon fill="white" stroke="black" points="525,-59 525,-79 583,-79 583,-59 525,-59"/>
<text text-anchor="middle" x="554" y="-66" font-family="FreeSans" font-size="10.00">refine.cpp</text>
</a>
</g>
<!-- Node8&#45;&gt;Node9 -->
<g id="edge16" class="edge"><title>Node8&#45;&gt;Node9</title>
<path fill="none" stroke="midnightblue" d="M678.227,-113.753C648.973,-103.214 608.657,-88.6903 581.987,-79.0821"/>
<polygon fill="midnightblue" stroke="midnightblue" points="677.094,-117.065 687.689,-117.161 679.467,-110.479 677.094,-117.065"/>
</g>
<!-- Node10 -->
<g id="node19" class="node"><title>Node10</title>
<a xlink:href="Sim1D_8cpp.html" target="_top" xlink:title="Sim1D.cpp">
<polygon fill="white" stroke="black" points="601,-59 601,-79 665,-79 665,-59 601,-59"/>
<text text-anchor="middle" x="633" y="-66" font-family="FreeSans" font-size="10.00">Sim1D.cpp</text>
</a>
</g>
<!-- Node8&#45;&gt;Node10 -->
<g id="edge18" class="edge"><title>Node8&#45;&gt;Node10</title>
<path fill="none" stroke="midnightblue" d="M692.344,-110.975C677.974,-100.811 659.817,-87.9681 647.395,-79.1817"/>
<polygon fill="midnightblue" stroke="midnightblue" points="690.531,-113.98 700.717,-116.897 694.574,-108.265 690.531,-113.98"/>
</g>
<!-- Node11 -->
<g id="node21" class="node"><title>Node11</title>
<a xlink:href="StFlow_8cpp.html" target="_top" xlink:title="StFlow.cpp">
<polygon fill="white" stroke="black" points="682.5,-59 682.5,-79 747.5,-79 747.5,-59 682.5,-59"/>
<text text-anchor="middle" x="715" y="-66" font-family="FreeSans" font-size="10.00">StFlow.cpp</text>
</a>
</g>
<!-- Node8&#45;&gt;Node11 -->
<g id="edge20" class="edge"><title>Node8&#45;&gt;Node11</title>
<path fill="none" stroke="midnightblue" d="M715,-106.89C715,-97.6201 715,-87.0083 715,-79.3776"/>
<polygon fill="midnightblue" stroke="midnightblue" points="711.5,-106.897 715,-116.897 718.5,-106.897 711.5,-106.897"/>
</g>
<!-- Node12 -->
<g id="node23" class="node"><title>Node12</title>
<a xlink:href="Inlet1D_8h.html" target="_top" xlink:title="Boundary objects for one&#45;dimensional simulations. ">
<polygon fill="white" stroke="black" points="764.5,-59 764.5,-79 819.5,-79 819.5,-59 764.5,-59"/>
<text text-anchor="middle" x="792" y="-66" font-family="FreeSans" font-size="10.00">Inlet1D.h</text>
</a>
</g>
<!-- Node8&#45;&gt;Node12 -->
<g id="edge22" class="edge"><title>Node8&#45;&gt;Node12</title>
<path fill="none" stroke="midnightblue" d="M736.657,-110.687C750.09,-100.569 766.928,-87.8852 778.483,-79.1817"/>
<polygon fill="midnightblue" stroke="midnightblue" points="734.294,-108.085 728.412,-116.897 738.506,-113.676 734.294,-108.085"/>
</g>
<!-- Node14 -->
<g id="node27" class="node"><title>Node14</title>
<a xlink:href="onedim_8h.html" target="_top" xlink:title="onedim.h">
<polygon fill="white" stroke="black" points="819,-1 819,-21 875,-21 875,-1 819,-1"/>
<text text-anchor="middle" x="847" y="-8" font-family="FreeSans" font-size="10.00">onedim.h</text>
</a>
</g>
<!-- Node8&#45;&gt;Node14 -->
<g id="edge28" class="edge"><title>Node8&#45;&gt;Node14</title>
<path fill="none" stroke="midnightblue" d="M752.066,-120.385C776.892,-114.081 808.485,-102.13 828,-80 842.792,-63.2252 846.176,-35.9274 846.882,-21.1978"/>
<polygon fill="midnightblue" stroke="midnightblue" points="751.181,-116.997 742.239,-122.68 752.773,-123.814 751.181,-116.997"/>
</g>
<!-- Node13 -->
<g id="node25" class="node"><title>Node13</title>
<a xlink:href="boundaries1D_8cpp.html" target="_top" xlink:title="boundaries1D.cpp">
<polygon fill="white" stroke="black" points="708.5,-1 708.5,-21 801.5,-21 801.5,-1 708.5,-1"/>
<text text-anchor="middle" x="755" y="-8" font-family="FreeSans" font-size="10.00">boundaries1D.cpp</text>
</a>
</g>
<!-- Node12&#45;&gt;Node13 -->
<g id="edge24" class="edge"><title>Node12&#45;&gt;Node13</title>
<path fill="none" stroke="midnightblue" d="M780.128,-50.3891C773.999,-40.7824 766.753,-29.423 761.62,-21.3776"/>
<polygon fill="midnightblue" stroke="midnightblue" points="777.226,-52.3489 785.555,-58.8972 783.128,-48.5842 777.226,-52.3489"/>
</g>
<!-- Node12&#45;&gt;Node14 -->
<g id="edge26" class="edge"><title>Node12&#45;&gt;Node14</title>
<path fill="none" stroke="midnightblue" d="M808.53,-51.5682C817.864,-41.7249 829.215,-29.7548 837.159,-21.3776"/>
<polygon fill="midnightblue" stroke="midnightblue" points="805.922,-49.2326 801.58,-58.8972 811.001,-54.0492 805.922,-49.2326"/>
</g>
</g>
</svg>
