<?xml version="1.0" encoding="UTF-8" standalone="no"?>
<!DOCTYPE svg PUBLIC "-//W3C//DTD SVG 1.1//EN"
 "http://www.w3.org/Graphics/SVG/1.1/DTD/svg11.dtd">
<!-- Generated by graphviz version 2.38.0 (20140413.2041)
 -->
<!-- Title: IdealGasPhase.cpp Pages: 1 -->
<svg width="1155pt" height="420pt"
 viewBox="0.00 0.00 1154.50 420.00" xmlns="http://www.w3.org/2000/svg" xmlns:xlink="http://www.w3.org/1999/xlink">
<g id="graph0" class="graph" transform="scale(1 1) rotate(0) translate(4 416)">
<title>IdealGasPhase.cpp</title>
<polygon fill="white" stroke="none" points="-4,4 -4,-416 1150.5,-416 1150.5,4 -4,4"/>
<!-- Node1 -->
<g id="node1" class="node"><title>Node1</title>
<polygon fill="#bfbfbf" stroke="black" points="698,-392.5 698,-411.5 800,-411.5 800,-392.5 698,-392.5"/>
<text text-anchor="middle" x="749" y="-399.5" font-family="Helvetica,sans-Serif" font-size="10.00">IdealGasPhase.cpp</text>
</g>
<!-- Node2 -->
<g id="node2" class="node"><title>Node2</title>
<g id="a_node2"><a xlink:href="IdealGasPhase_8h.html" target="_top" xlink:title="ThermoPhase object for the ideal gas equation of state &#45; workhorse for Cantera (see Thermodynamic Pro...">
<polygon fill="white" stroke="black" points="491,-336.5 491,-355.5 651,-355.5 651,-336.5 491,-336.5"/>
<text text-anchor="middle" x="571" y="-343.5" font-family="Helvetica,sans-Serif" font-size="10.00">cantera/thermo/IdealGasPhase.h</text>
</a>
</g>
</g>
<!-- Node1&#45;&gt;Node2 -->
<g id="edge1" class="edge"><title>Node1&#45;&gt;Node2</title>
<path fill="none" stroke="midnightblue" d="M720.795,-392.444C690.59,-383.28 642.489,-368.688 608.971,-358.519"/>
<polygon fill="midnightblue" stroke="midnightblue" points="609.658,-355.07 599.073,-355.516 607.626,-361.769 609.658,-355.07"/>
</g>
<!-- Node15 -->
<g id="node15" class="node"><title>Node15</title>
<g id="a_node15"><a xlink:href="ThermoFactory_8h.html" target="_top" xlink:title="Headers for the factory class that can create known ThermoPhase objects (see Thermodynamic Properties...">
<polygon fill="white" stroke="black" points="669.5,-336.5 669.5,-355.5 828.5,-355.5 828.5,-336.5 669.5,-336.5"/>
<text text-anchor="middle" x="749" y="-343.5" font-family="Helvetica,sans-Serif" font-size="10.00">cantera/thermo/ThermoFactory.h</text>
</a>
</g>
</g>
<!-- Node1&#45;&gt;Node15 -->
<g id="edge20" class="edge"><title>Node1&#45;&gt;Node15</title>
<path fill="none" stroke="midnightblue" d="M749,-392.083C749,-385.006 749,-374.861 749,-365.986"/>
<polygon fill="midnightblue" stroke="midnightblue" points="752.5,-365.751 749,-355.751 745.5,-365.751 752.5,-365.751"/>
</g>
<!-- Node20 -->
<g id="node20" class="node"><title>Node20</title>
<g id="a_node20"><a xlink:href="utilities_8h.html" target="_top" xlink:title="Various templated functions that carry out common vector operations (see Templated Utility Functions)...">
<polygon fill="white" stroke="black" points="932.5,-168.5 932.5,-187.5 1047.5,-187.5 1047.5,-168.5 932.5,-168.5"/>
<text text-anchor="middle" x="990" y="-175.5" font-family="Helvetica,sans-Serif" font-size="10.00">cantera/base/utilities.h</text>
</a>
</g>
</g>
<!-- Node1&#45;&gt;Node20 -->
<g id="edge30" class="edge"><title>Node1&#45;&gt;Node20</title>
<path fill="none" stroke="midnightblue" d="M771.353,-392.416C790.019,-384.608 816.751,-371.89 837,-356 899.214,-307.18 955.293,-230.241 978.583,-196.191"/>
<polygon fill="midnightblue" stroke="midnightblue" points="981.565,-198.029 984.261,-187.783 975.764,-194.112 981.565,-198.029"/>
</g>
<!-- Node3 -->
<g id="node3" class="node"><title>Node3</title>
<g id="a_node3"><a xlink:href="mix__defs_8h.html" target="_top" xlink:title="mix_defs.h">
<polygon fill="white" stroke="black" points="497.5,-280.5 497.5,-299.5 562.5,-299.5 562.5,-280.5 497.5,-280.5"/>
<text text-anchor="middle" x="530" y="-287.5" font-family="Helvetica,sans-Serif" font-size="10.00">mix_defs.h</text>
</a>
</g>
</g>
<!-- Node2&#45;&gt;Node3 -->
<g id="edge2" class="edge"><title>Node2&#45;&gt;Node3</title>
<path fill="none" stroke="midnightblue" d="M564.23,-336.083C558.438,-328.455 549.942,-317.264 542.862,-307.941"/>
<polygon fill="midnightblue" stroke="midnightblue" points="545.479,-305.599 536.644,-299.751 539.904,-309.832 545.479,-305.599"/>
</g>
<!-- Node4 -->
<g id="node4" class="node"><title>Node4</title>
<g id="a_node4"><a xlink:href="ThermoPhase_8h.html" target="_top" xlink:title="Header file for class ThermoPhase, the base class for phases with thermodynamic properties, and the text for the Module thermoprops (see Thermodynamic Properties and class ThermoPhase). ">
<polygon fill="white" stroke="black" points="581,-280.5 581,-299.5 667,-299.5 667,-280.5 581,-280.5"/>
<text text-anchor="middle" x="624" y="-287.5" font-family="Helvetica,sans-Serif" font-size="10.00">ThermoPhase.h</text>
</a>
</g>
</g>
<!-- Node2&#45;&gt;Node4 -->
<g id="edge3" class="edge"><title>Node2&#45;&gt;Node4</title>
<path fill="none" stroke="midnightblue" d="M579.752,-336.083C587.47,-328.22 598.905,-316.569 608.217,-307.081"/>
<polygon fill="midnightblue" stroke="midnightblue" points="610.904,-309.34 615.411,-299.751 605.908,-304.436 610.904,-309.34"/>
</g>
<!-- Node5 -->
<g id="node5" class="node"><title>Node5</title>
<g id="a_node5"><a xlink:href="Phase_8h.html" target="_top" xlink:title="Header file for class Phase. ">
<polygon fill="white" stroke="black" points="340.5,-168.5 340.5,-187.5 393.5,-187.5 393.5,-168.5 340.5,-168.5"/>
<text text-anchor="middle" x="367" y="-175.5" font-family="Helvetica,sans-Serif" font-size="10.00">Phase.h</text>
</a>
</g>
</g>
<!-- Node4&#45;&gt;Node5 -->
<g id="edge4" class="edge"><title>Node4&#45;&gt;Node5</title>
<path fill="none" stroke="midnightblue" d="M583.669,-280.474C551.949,-273.003 507.072,-260.717 470,-244 439.076,-230.056 406.46,-208.061 386.417,-193.583"/>
<polygon fill="midnightblue" stroke="midnightblue" points="388.278,-190.607 378.145,-187.515 384.138,-196.252 388.278,-190.607"/>
</g>
<!-- Node12 -->
<g id="node12" class="node"><title>Node12</title>
<g id="a_node12"><a xlink:href="MultiSpeciesThermo_8h.html" target="_top" xlink:title="Header for a general species thermodynamic property manager for a phase (see MultiSpeciesThermo). ">
<polygon fill="white" stroke="black" points="479,-224.5 479,-243.5 593,-243.5 593,-224.5 479,-224.5"/>
<text text-anchor="middle" x="536" y="-231.5" font-family="Helvetica,sans-Serif" font-size="10.00">MultiSpeciesThermo.h</text>
</a>
</g>
</g>
<!-- Node4&#45;&gt;Node12 -->
<g id="edge13" class="edge"><title>Node4&#45;&gt;Node12</title>
<path fill="none" stroke="midnightblue" d="M609.861,-280.324C596.134,-271.9 575.064,-258.971 558.936,-249.074"/>
<polygon fill="midnightblue" stroke="midnightblue" points="560.457,-245.902 550.104,-243.655 556.796,-251.868 560.457,-245.902"/>
</g>
<!-- Node14 -->
<g id="node14" class="node"><title>Node14</title>
<g id="a_node14"><a xlink:href="global_8h.html" target="_top" xlink:title="This file contains definitions for utility functions and text for modules, inputfiles, logs, textlogs, (see Input File Handling, Diagnostic Output, and Writing messages to the screen). ">
<polygon fill="white" stroke="red" points="650,-112.5 650,-131.5 760,-131.5 760,-112.5 650,-112.5"/>
<text text-anchor="middle" x="705" y="-119.5" font-family="Helvetica,sans-Serif" font-size="10.00">cantera/base/global.h</text>
</a>
</g>
</g>
<!-- Node4&#45;&gt;Node14 -->
<g id="edge19" class="edge"><title>Node4&#45;&gt;Node14</title>
<path fill="none" stroke="midnightblue" d="M623.528,-280.341C622.793,-259.389 623.362,-204.962 646,-168 653.935,-155.044 667.081,-144.474 678.952,-136.843"/>
<polygon fill="midnightblue" stroke="midnightblue" points="680.915,-139.747 687.675,-131.588 677.303,-133.75 680.915,-139.747"/>
</g>
<!-- Node6 -->
<g id="node6" class="node"><title>Node6</title>
<g id="a_node6"><a xlink:href="ctexceptions_8h.html" target="_top" xlink:title="Definitions for the classes that are thrown when Cantera experiences an error condition (also contain...">
<polygon fill="white" stroke="red" points="492,-112.5 492,-131.5 632,-131.5 632,-112.5 492,-112.5"/>
<text text-anchor="middle" x="562" y="-119.5" font-family="Helvetica,sans-Serif" font-size="10.00">cantera/base/ctexceptions.h</text>
</a>
</g>
</g>
<!-- Node5&#45;&gt;Node6 -->
<g id="edge5" class="edge"><title>Node5&#45;&gt;Node6</title>
<path fill="none" stroke="midnightblue" d="M393.705,-169.605C426.643,-160.483 482.97,-144.885 521.305,-134.269"/>
<polygon fill="midnightblue" stroke="midnightblue" points="522.419,-137.593 531.122,-131.551 520.55,-130.847 522.419,-137.593"/>
</g>
<!-- Node7 -->
<g id="node7" class="node"><title>Node7</title>
<g id="a_node7"><a xlink:href="Elements_8h.html" target="_top" xlink:title="Contains the getElementWeight function and the definitions of element constraint types. ">
<polygon fill="white" stroke="black" points="0,-112.5 0,-131.5 134,-131.5 134,-112.5 0,-112.5"/>
<text text-anchor="middle" x="67" y="-119.5" font-family="Helvetica,sans-Serif" font-size="10.00">cantera/thermo/Elements.h</text>
</a>
</g>
</g>
<!-- Node5&#45;&gt;Node7 -->
<g id="edge6" class="edge"><title>Node5&#45;&gt;Node7</title>
<path fill="none" stroke="midnightblue" d="M340.377,-172.208C292.123,-163.522 189.213,-144.998 124.333,-133.32"/>
<polygon fill="midnightblue" stroke="midnightblue" points="124.722,-129.834 114.261,-131.507 123.482,-136.723 124.722,-129.834"/>
</g>
<!-- Node10 -->
<g id="node10" class="node"><title>Node10</title>
<g id="a_node10"><a xlink:href="Species_8h.html" target="_top" xlink:title="Declaration for class Cantera::Species. ">
<polygon fill="white" stroke="black" points="152,-112.5 152,-131.5 280,-131.5 280,-112.5 152,-112.5"/>
<text text-anchor="middle" x="216" y="-119.5" font-family="Helvetica,sans-Serif" font-size="10.00">cantera/thermo/Species.h</text>
</a>
</g>
</g>
<!-- Node5&#45;&gt;Node10 -->
<g id="edge9" class="edge"><title>Node5&#45;&gt;Node10</title>
<path fill="none" stroke="midnightblue" d="M343.074,-168.444C317.781,-159.399 277.698,-145.064 249.32,-134.916"/>
<polygon fill="midnightblue" stroke="midnightblue" points="250.409,-131.588 239.814,-131.516 248.052,-138.179 250.409,-131.588"/>
</g>
<!-- Node11 -->
<g id="node11" class="node"><title>Node11</title>
<g id="a_node11"><a xlink:href="ValueCache_8h.html" target="_top" xlink:title="cantera/base/ValueCache.h">
<polygon fill="white" stroke="red" points="298.5,-112.5 298.5,-131.5 435.5,-131.5 435.5,-112.5 298.5,-112.5"/>
<text text-anchor="middle" x="367" y="-119.5" font-family="Helvetica,sans-Serif" font-size="10.00">cantera/base/ValueCache.h</text>
</a>
</g>
</g>
<!-- Node5&#45;&gt;Node11 -->
<g id="edge11" class="edge"><title>Node5&#45;&gt;Node11</title>
<path fill="none" stroke="midnightblue" d="M367,-168.083C367,-161.006 367,-150.861 367,-141.986"/>
<polygon fill="midnightblue" stroke="midnightblue" points="370.5,-141.751 367,-131.751 363.5,-141.751 370.5,-141.751"/>
</g>
<!-- Node8 -->
<g id="node8" class="node"><title>Node8</title>
<g id="a_node8"><a xlink:href="ct__defs_8h.html" target="_top" xlink:title="This file contains definitions of terms that are used in internal routines and are unlikely to need m...">
<polygon fill="white" stroke="red" points="435.5,-56.5 435.5,-75.5 492.5,-75.5 492.5,-56.5 435.5,-56.5"/>
<text text-anchor="middle" x="464" y="-63.5" font-family="Helvetica,sans-Serif" font-size="10.00">ct_defs.h</text>
</a>
</g>
</g>
<!-- Node7&#45;&gt;Node8 -->
<g id="edge7" class="edge"><title>Node7&#45;&gt;Node8</title>
<path fill="none" stroke="midnightblue" d="M129.906,-112.444C212.883,-101.157 356.414,-81.6339 425.136,-72.2862"/>
<polygon fill="midnightblue" stroke="midnightblue" points="425.673,-75.7455 435.11,-70.9296 424.73,-68.8094 425.673,-75.7455"/>
</g>
<!-- Node9 -->
<g id="node9" class="node"><title>Node9</title>
<polygon fill="white" stroke="#bfbfbf" points="686,-0.5 686,-19.5 730,-19.5 730,-0.5 686,-0.5"/>
<text text-anchor="middle" x="708" y="-7.5" font-family="Helvetica,sans-Serif" font-size="10.00">vector</text>
</g>
<!-- Node8&#45;&gt;Node9 -->
<g id="edge8" class="edge"><title>Node8&#45;&gt;Node9</title>
<path fill="none" stroke="midnightblue" d="M492.948,-58.5934C538.933,-48.4166 628.34,-28.6296 676.106,-18.0584"/>
<polygon fill="midnightblue" stroke="midnightblue" points="676.907,-21.466 685.915,-15.8878 675.395,-14.6313 676.907,-21.466"/>
</g>
<!-- Node10&#45;&gt;Node8 -->
<g id="edge10" class="edge"><title>Node10&#45;&gt;Node8</title>
<path fill="none" stroke="midnightblue" d="M255.296,-112.444C301.897,-102.297 379.071,-85.4927 425.375,-75.4102"/>
<polygon fill="midnightblue" stroke="midnightblue" points="426.299,-78.7912 435.325,-73.2437 424.809,-71.9515 426.299,-78.7912"/>
</g>
<!-- Node11&#45;&gt;Node8 -->
<g id="edge12" class="edge"><title>Node11&#45;&gt;Node8</title>
<path fill="none" stroke="midnightblue" d="M382.585,-112.324C397.999,-103.743 421.812,-90.486 439.71,-80.5224"/>
<polygon fill="midnightblue" stroke="midnightblue" points="441.419,-83.5767 448.454,-75.6545 438.014,-77.4606 441.419,-83.5767"/>
</g>
<!-- Node13 -->
<g id="node13" class="node"><title>Node13</title>
<g id="a_node13"><a xlink:href="SpeciesThermoInterpType_8h.html" target="_top" xlink:title="Pure Virtual Base class for individual species reference state thermodynamic managers and text for th...">
<polygon fill="white" stroke="red" points="459,-168.5 459,-187.5 599,-187.5 599,-168.5 459,-168.5"/>
<text text-anchor="middle" x="529" y="-175.5" font-family="Helvetica,sans-Serif" font-size="10.00">SpeciesThermoInterpType.h</text>
</a>
</g>
</g>
<!-- Node12&#45;&gt;Node13 -->
<g id="edge14" class="edge"><title>Node12&#45;&gt;Node13</title>
<path fill="none" stroke="midnightblue" d="M534.844,-224.083C533.916,-216.927 532.582,-206.635 531.423,-197.691"/>
<polygon fill="midnightblue" stroke="midnightblue" points="534.891,-197.218 530.134,-187.751 527.949,-198.118 534.891,-197.218"/>
</g>
<!-- Node13&#45;&gt;Node6 -->
<g id="edge16" class="edge"><title>Node13&#45;&gt;Node6</title>
<path fill="none" stroke="midnightblue" d="M534.449,-168.083C539.014,-160.613 545.668,-149.724 551.293,-140.52"/>
<polygon fill="midnightblue" stroke="midnightblue" points="554.424,-142.109 556.652,-131.751 548.451,-138.459 554.424,-142.109"/>
</g>
<!-- Node13&#45;&gt;Node8 -->
<g id="edge15" class="edge"><title>Node13&#45;&gt;Node8</title>
<path fill="none" stroke="midnightblue" d="M517.127,-168.288C506.7,-160.041 491.851,-146.753 483,-132 474.4,-117.665 469.492,-99.202 466.827,-85.6187"/>
<polygon fill="midnightblue" stroke="midnightblue" points="470.24,-84.8108 465.085,-75.5542 463.342,-86.0047 470.24,-84.8108"/>
</g>
<!-- Node13&#45;&gt;Node14 -->
<g id="edge17" class="edge"><title>Node13&#45;&gt;Node14</title>
<path fill="none" stroke="midnightblue" d="M556.888,-168.444C586.754,-159.28 634.315,-144.688 667.456,-134.519"/>
<polygon fill="midnightblue" stroke="midnightblue" points="668.709,-137.796 677.243,-131.516 666.656,-131.104 668.709,-137.796"/>
</g>
<!-- Node14&#45;&gt;Node8 -->
<g id="edge18" class="edge"><title>Node14&#45;&gt;Node8</title>
<path fill="none" stroke="midnightblue" d="M666.813,-112.444C621.869,-102.373 547.661,-85.7456 502.557,-75.6394"/>
<polygon fill="midnightblue" stroke="midnightblue" points="503.098,-72.1738 492.575,-73.4026 501.567,-79.0044 503.098,-72.1738"/>
</g>
<!-- Node15&#45;&gt;Node4 -->
<g id="edge21" class="edge"><title>Node15&#45;&gt;Node4</title>
<path fill="none" stroke="midnightblue" d="M729.193,-336.444C708.713,-327.596 676.517,-313.687 653.135,-303.586"/>
<polygon fill="midnightblue" stroke="midnightblue" points="654.282,-300.269 643.714,-299.516 651.506,-306.695 654.282,-300.269"/>
</g>
<!-- Node16 -->
<g id="node16" class="node"><title>Node16</title>
<g id="a_node16"><a xlink:href="xml_8h.html" target="_top" xlink:title="Classes providing support for XML data files. ">
<polygon fill="white" stroke="black" points="655,-168.5 655,-187.5 755,-187.5 755,-168.5 655,-168.5"/>
<text text-anchor="middle" x="705" y="-175.5" font-family="Helvetica,sans-Serif" font-size="10.00">cantera/base/xml.h</text>
</a>
</g>
</g>
<!-- Node15&#45;&gt;Node16 -->
<g id="edge22" class="edge"><title>Node15&#45;&gt;Node16</title>
<path fill="none" stroke="midnightblue" d="M746.634,-336.075C739.708,-309.945 719.369,-233.211 709.924,-197.577"/>
<polygon fill="midnightblue" stroke="midnightblue" points="713.216,-196.338 707.271,-187.568 706.45,-198.131 713.216,-196.338"/>
</g>
<!-- Node17 -->
<g id="node17" class="node"><title>Node17</title>
<g id="a_node17"><a xlink:href="FactoryBase_8h.html" target="_top" xlink:title="File contains the FactoryBase class declarations. ">
<polygon fill="white" stroke="black" points="773,-168.5 773,-187.5 913,-187.5 913,-168.5 773,-168.5"/>
<text text-anchor="middle" x="843" y="-175.5" font-family="Helvetica,sans-Serif" font-size="10.00">cantera/base/FactoryBase.h</text>
</a>
</g>
</g>
<!-- Node15&#45;&gt;Node17 -->
<g id="edge25" class="edge"><title>Node15&#45;&gt;Node17</title>
<path fill="none" stroke="midnightblue" d="M754.054,-336.075C768.978,-309.719 813.057,-231.878 832.999,-196.661"/>
<polygon fill="midnightblue" stroke="midnightblue" points="836.266,-197.994 838.148,-187.568 830.175,-194.545 836.266,-197.994"/>
</g>
<!-- Node16&#45;&gt;Node6 -->
<g id="edge23" class="edge"><title>Node16&#45;&gt;Node6</title>
<path fill="none" stroke="midnightblue" d="M682.341,-168.444C658.598,-159.478 621.091,-145.314 594.262,-135.183"/>
<polygon fill="midnightblue" stroke="midnightblue" points="595.144,-131.775 584.553,-131.516 592.671,-138.324 595.144,-131.775"/>
</g>
<!-- Node16&#45;&gt;Node14 -->
<g id="edge24" class="edge"><title>Node16&#45;&gt;Node14</title>
<path fill="none" stroke="midnightblue" d="M705,-168.083C705,-161.006 705,-150.861 705,-141.986"/>
<polygon fill="midnightblue" stroke="midnightblue" points="708.5,-141.751 705,-131.751 701.5,-141.751 708.5,-141.751"/>
</g>
<!-- Node17&#45;&gt;Node6 -->
<g id="edge29" class="edge"><title>Node17&#45;&gt;Node6</title>
<path fill="none" stroke="midnightblue" d="M798.475,-168.444C749.044,-158.944 669.254,-143.611 616.222,-133.42"/>
<polygon fill="midnightblue" stroke="midnightblue" points="616.798,-129.967 606.317,-131.516 615.477,-136.841 616.798,-129.967"/>
</g>
<!-- Node17&#45;&gt;Node9 -->
<g id="edge26" class="edge"><title>Node17&#45;&gt;Node9</title>
<path fill="none" stroke="midnightblue" d="M875.289,-168.413C907.64,-158.1 950.332,-138.779 933,-112 889.994,-45.5544 791.781,-22.4056 740.512,-14.6707"/>
<polygon fill="midnightblue" stroke="midnightblue" points="740.71,-11.1643 730.321,-13.2441 739.739,-18.0968 740.71,-11.1643"/>
</g>
<!-- Node18 -->
<g id="node18" class="node"><title>Node18</title>
<polygon fill="white" stroke="#bfbfbf" points="880,-112.5 880,-131.5 924,-131.5 924,-112.5 880,-112.5"/>
<text text-anchor="middle" x="902" y="-119.5" font-family="Helvetica,sans-Serif" font-size="10.00">mutex</text>
</g>
<!-- Node17&#45;&gt;Node18 -->
<g id="edge27" class="edge"><title>Node17&#45;&gt;Node18</title>
<path fill="none" stroke="midnightblue" d="M852.479,-168.324C861.201,-160.341 874.343,-148.313 884.898,-138.653"/>
<polygon fill="midnightblue" stroke="midnightblue" points="887.334,-141.167 892.348,-131.834 882.608,-136.004 887.334,-141.167"/>
</g>
<!-- Node19 -->
<g id="node19" class="node"><title>Node19</title>
<polygon fill="white" stroke="#bfbfbf" points="778.5,-112.5 778.5,-131.5 861.5,-131.5 861.5,-112.5 778.5,-112.5"/>
<text text-anchor="middle" x="820" y="-119.5" font-family="Helvetica,sans-Serif" font-size="10.00">unordered_map</text>
</g>
<!-- Node17&#45;&gt;Node19 -->
<g id="edge28" class="edge"><title>Node17&#45;&gt;Node19</title>
<path fill="none" stroke="midnightblue" d="M839.202,-168.083C836.087,-160.77 831.577,-150.181 827.711,-141.103"/>
<polygon fill="midnightblue" stroke="midnightblue" points="830.866,-139.58 823.727,-131.751 824.426,-142.323 830.866,-139.58"/>
</g>
<!-- Node20&#45;&gt;Node8 -->
<g id="edge31" class="edge"><title>Node20&#45;&gt;Node8</title>
<path fill="none" stroke="midnightblue" d="M985.388,-168.4C977.083,-153.887 958.116,-124.861 933,-112 858.187,-73.6895 601.241,-67.8883 502.801,-67.0902"/>
<polygon fill="midnightblue" stroke="midnightblue" points="502.712,-63.5896 492.688,-67.0215 502.664,-70.5894 502.712,-63.5896"/>
</g>
<!-- Node20&#45;&gt;Node14 -->
<g id="edge32" class="edge"><title>Node20&#45;&gt;Node14</title>
<path fill="none" stroke="midnightblue" d="M944.841,-168.444C894.706,-158.944 813.78,-143.611 759.994,-133.42"/>
<polygon fill="midnightblue" stroke="midnightblue" points="760.425,-129.939 749.948,-131.516 759.121,-136.817 760.425,-129.939"/>
</g>
<!-- Node21 -->
<g id="node21" class="node"><title>Node21</title>
<polygon fill="white" stroke="#bfbfbf" points="1018.5,-112.5 1018.5,-131.5 1077.5,-131.5 1077.5,-112.5 1018.5,-112.5"/>
<text text-anchor="middle" x="1048" y="-119.5" font-family="Helvetica,sans-Serif" font-size="10.00">stdexcept</text>
</g>
<!-- Node20&#45;&gt;Node21 -->
<g id="edge33" class="edge"><title>Node20&#45;&gt;Node21</title>
<path fill="none" stroke="midnightblue" d="M999.319,-168.324C1007.89,-160.341 1020.81,-148.313 1031.19,-138.653"/>
<polygon fill="midnightblue" stroke="midnightblue" points="1033.58,-141.21 1038.51,-131.834 1028.81,-136.086 1033.58,-141.21"/>
</g>
<!-- Node22 -->
<g id="node22" class="node"><title>Node22</title>
<polygon fill="white" stroke="#bfbfbf" points="1095.5,-112.5 1095.5,-131.5 1146.5,-131.5 1146.5,-112.5 1095.5,-112.5"/>
<text text-anchor="middle" x="1121" y="-119.5" font-family="Helvetica,sans-Serif" font-size="10.00">numeric</text>
</g>
<!-- Node20&#45;&gt;Node22 -->
<g id="edge34" class="edge"><title>Node20&#45;&gt;Node22</title>
<path fill="none" stroke="midnightblue" d="M1010.76,-168.444C1032.32,-159.557 1066.26,-145.563 1090.79,-135.451"/>
<polygon fill="midnightblue" stroke="midnightblue" points="1092.43,-138.563 1100.34,-131.516 1089.76,-132.092 1092.43,-138.563"/>
</g>
</g>
</svg>
