<?xml version="1.0" encoding="UTF-8" standalone="no"?>
<!DOCTYPE svg PUBLIC "-//W3C//DTD SVG 1.1//EN"
 "http://www.w3.org/Graphics/SVG/1.1/DTD/svg11.dtd">
<!-- Generated by graphviz version 2.38.0 (20151222.1943)
 -->
<!-- Title: IdealSolidSolnPhase.cpp Pages: 1 -->
<svg width="1167pt" height="375pt"
 viewBox="0.00 0.00 1167.00 375.00" xmlns="http://www.w3.org/2000/svg" xmlns:xlink="http://www.w3.org/1999/xlink">
<g id="graph0" class="graph" transform="scale(1 1) rotate(0) translate(4 371)">
<title>IdealSolidSolnPhase.cpp</title>
<polygon fill="white" stroke="none" points="-4,4 -4,-371 1163,-371 1163,4 -4,4"/>
<!-- Node1 -->
<g id="node1" class="node"><title>Node1</title>
<polygon fill="#bfbfbf" stroke="black" points="338.5,-347.5 338.5,-366.5 462.5,-366.5 462.5,-347.5 338.5,-347.5"/>
<text text-anchor="middle" x="400.5" y="-354.5" font-family="FreeSans" font-size="10.00">IdealSolidSolnPhase.cpp</text>
</g>
<!-- Node2 -->
<g id="node2" class="node"><title>Node2</title>
<g id="a_node2"><a xlink:href="IdealSolidSolnPhase_8h.html" target="_top" xlink:title="Header file for an ideal solid solution model with incompressible thermodynamics (see Thermodynamic P...">
<polygon fill="white" stroke="black" points="336.5,-280.5 336.5,-310.5 464.5,-310.5 464.5,-280.5 336.5,-280.5"/>
<text text-anchor="start" x="344.5" y="-298.5" font-family="FreeSans" font-size="10.00">cantera/thermo/IdealSolid</text>
<text text-anchor="middle" x="400.5" y="-287.5" font-family="FreeSans" font-size="10.00">SolnPhase.h</text>
</a>
</g>
</g>
<!-- Node1&#45;&gt;Node2 -->
<g id="edge1" class="edge"><title>Node1&#45;&gt;Node2</title>
<path fill="none" stroke="midnightblue" d="M400.5,-347.475C400.5,-340.471 400.5,-330.192 400.5,-320.696"/>
<polygon fill="midnightblue" stroke="midnightblue" points="404,-320.523 400.5,-310.523 397,-320.523 404,-320.523"/>
</g>
<!-- Node15 -->
<g id="node15" class="node"><title>Node15</title>
<g id="a_node15"><a xlink:href="ThermoFactory_8h.html" target="_top" xlink:title="Headers for the factory class that can create known ThermoPhase objects (see Thermodynamic Properties...">
<polygon fill="white" stroke="black" points="482.5,-286 482.5,-305 640.5,-305 640.5,-286 482.5,-286"/>
<text text-anchor="middle" x="561.5" y="-293" font-family="FreeSans" font-size="10.00">cantera/thermo/ThermoFactory.h</text>
</a>
</g>
</g>
<!-- Node1&#45;&gt;Node15 -->
<g id="edge20" class="edge"><title>Node1&#45;&gt;Node15</title>
<path fill="none" stroke="midnightblue" d="M423.567,-347.475C451.185,-337.269 497.62,-320.108 528.896,-308.549"/>
<polygon fill="midnightblue" stroke="midnightblue" points="530.309,-311.759 538.475,-305.009 527.882,-305.193 530.309,-311.759"/>
</g>
<!-- Node19 -->
<g id="node19" class="node"><title>Node19</title>
<g id="a_node19"><a xlink:href="stringUtils_8h.html" target="_top" xlink:title="Contains declarations for string manipulation functions within Cantera. ">
<polygon fill="white" stroke="black" points="0,-112.5 0,-131.5 125,-131.5 125,-112.5 0,-112.5"/>
<text text-anchor="middle" x="62.5" y="-119.5" font-family="FreeSans" font-size="10.00">cantera/base/stringUtils.h</text>
</a>
</g>
</g>
<!-- Node1&#45;&gt;Node19 -->
<g id="edge28" class="edge"><title>Node1&#45;&gt;Node19</title>
<path fill="none" stroke="midnightblue" d="M380.625,-347.351C362.003,-338.95 333.645,-325.387 310.5,-311 219.208,-254.254 120.026,-172.161 80.3566,-138.392"/>
<polygon fill="midnightblue" stroke="midnightblue" points="82.2805,-135.432 72.4062,-131.592 77.7302,-140.752 82.2805,-135.432"/>
</g>
<!-- Node20 -->
<g id="node20" class="node"><title>Node20</title>
<g id="a_node20"><a xlink:href="ctml_8h.html" target="_top" xlink:title="CTML (&quot;Cantera Markup Language&quot;) is the variant of XML that Cantera uses to store data...">
<polygon fill="white" stroke="black" points="258,-224.5 258,-243.5 359,-243.5 359,-224.5 258,-224.5"/>
<text text-anchor="middle" x="308.5" y="-231.5" font-family="FreeSans" font-size="10.00">cantera/base/ctml.h</text>
</a>
</g>
</g>
<!-- Node1&#45;&gt;Node20 -->
<g id="edge32" class="edge"><title>Node1&#45;&gt;Node20</title>
<path fill="none" stroke="midnightblue" d="M377.735,-347.48C361.376,-340.21 340.072,-328.182 327.5,-311 315.232,-294.234 310.84,-270.418 309.292,-253.934"/>
<polygon fill="midnightblue" stroke="midnightblue" points="312.779,-253.612 308.614,-243.87 305.795,-254.083 312.779,-253.612"/>
</g>
<!-- Node21 -->
<g id="node21" class="node"><title>Node21</title>
<g id="a_node21"><a xlink:href="utilities_8h.html" target="_top" xlink:title="Various templated functions that carry out common vector operations (see Templated Utility Functions)...">
<polygon fill="white" stroke="black" points="1018,-168.5 1018,-187.5 1131,-187.5 1131,-168.5 1018,-168.5"/>
<text text-anchor="middle" x="1074.5" y="-175.5" font-family="FreeSans" font-size="10.00">cantera/base/utilities.h</text>
</a>
</g>
</g>
<!-- Node1&#45;&gt;Node21 -->
<g id="edge35" class="edge"><title>Node1&#45;&gt;Node21</title>
<path fill="none" stroke="midnightblue" d="M462.711,-350.923C568.981,-340.677 790.917,-312.383 965.5,-244 998.74,-230.98 1033.57,-208.404 1054.66,-193.583"/>
<polygon fill="midnightblue" stroke="midnightblue" points="1056.97,-196.233 1063.07,-187.569 1052.9,-190.539 1056.97,-196.233"/>
</g>
<!-- Node3 -->
<g id="node3" class="node"><title>Node3</title>
<g id="a_node3"><a xlink:href="ThermoPhase_8h.html" target="_top" xlink:title="Header file for class ThermoPhase, the base class for phases with thermodynamic properties, and the text for the Module thermoprops (see Thermodynamic Properties and class ThermoPhase). ">
<polygon fill="white" stroke="black" points="502.5,-224.5 502.5,-243.5 586.5,-243.5 586.5,-224.5 502.5,-224.5"/>
<text text-anchor="middle" x="544.5" y="-231.5" font-family="FreeSans" font-size="10.00">ThermoPhase.h</text>
</a>
</g>
</g>
<!-- Node2&#45;&gt;Node3 -->
<g id="edge2" class="edge"><title>Node2&#45;&gt;Node3</title>
<path fill="none" stroke="midnightblue" d="M434.626,-280.399C458.787,-270.416 490.902,-257.147 514.167,-247.534"/>
<polygon fill="midnightblue" stroke="midnightblue" points="515.641,-250.711 523.547,-243.658 512.968,-244.242 515.641,-250.711"/>
</g>
<!-- Node4 -->
<g id="node4" class="node"><title>Node4</title>
<g id="a_node4"><a xlink:href="Phase_8h.html" target="_top" xlink:title="Header file for class Phase. ">
<polygon fill="white" stroke="black" points="519,-168.5 519,-187.5 570,-187.5 570,-168.5 519,-168.5"/>
<text text-anchor="middle" x="544.5" y="-175.5" font-family="FreeSans" font-size="10.00">Phase.h</text>
</a>
</g>
</g>
<!-- Node3&#45;&gt;Node4 -->
<g id="edge3" class="edge"><title>Node3&#45;&gt;Node4</title>
<path fill="none" stroke="midnightblue" d="M544.5,-224.083C544.5,-217.006 544.5,-206.861 544.5,-197.986"/>
<polygon fill="midnightblue" stroke="midnightblue" points="548,-197.751 544.5,-187.751 541,-197.751 548,-197.751"/>
</g>
<!-- Node13 -->
<g id="node13" class="node"><title>Node13</title>
<g id="a_node13"><a xlink:href="SpeciesThermo_8h.html" target="_top" xlink:title="Virtual base class for the calculation of multiple&#45;species thermodynamic reference&#45;state property man...">
<polygon fill="white" stroke="black" points="648.5,-168.5 648.5,-187.5 740.5,-187.5 740.5,-168.5 648.5,-168.5"/>
<text text-anchor="middle" x="694.5" y="-175.5" font-family="FreeSans" font-size="10.00">SpeciesThermo.h</text>
</a>
</g>
</g>
<!-- Node3&#45;&gt;Node13 -->
<g id="edge15" class="edge"><title>Node3&#45;&gt;Node13</title>
<path fill="none" stroke="midnightblue" d="M568.268,-224.444C593.393,-215.399 633.211,-201.064 661.4,-190.916"/>
<polygon fill="midnightblue" stroke="midnightblue" points="662.62,-194.197 670.843,-187.516 660.249,-187.611 662.62,-194.197"/>
</g>
<!-- Node14 -->
<g id="node14" class="node"><title>Node14</title>
<g id="a_node14"><a xlink:href="global_8h.html" target="_top" xlink:title="This file contains definitions for utility functions and text for modules, inputfiles, logs, textlogs, (see Input File Handling, Diagnostic Output, and Writing messages to the screen). ">
<polygon fill="white" stroke="black" points="336.5,-112.5 336.5,-131.5 444.5,-131.5 444.5,-112.5 336.5,-112.5"/>
<text text-anchor="middle" x="390.5" y="-119.5" font-family="FreeSans" font-size="10.00">cantera/base/global.h</text>
</a>
</g>
</g>
<!-- Node3&#45;&gt;Node14 -->
<g id="edge17" class="edge"><title>Node3&#45;&gt;Node14</title>
<path fill="none" stroke="midnightblue" d="M532.416,-224.368C506.102,-205.573 443.376,-160.768 410.847,-137.533"/>
<polygon fill="midnightblue" stroke="midnightblue" points="412.7,-134.556 402.528,-131.591 408.631,-140.252 412.7,-134.556"/>
</g>
<!-- Node5 -->
<g id="node5" class="node"><title>Node5</title>
<g id="a_node5"><a xlink:href="ctexceptions_8h.html" target="_top" xlink:title="Definitions for the classes that are thrown when Cantera experiences an error condition (also contain...">
<polygon fill="white" stroke="red" points="143,-112.5 143,-131.5 280,-131.5 280,-112.5 143,-112.5"/>
<text text-anchor="middle" x="211.5" y="-119.5" font-family="FreeSans" font-size="10.00">cantera/base/ctexceptions.h</text>
</a>
</g>
</g>
<!-- Node4&#45;&gt;Node5 -->
<g id="edge4" class="edge"><title>Node4&#45;&gt;Node5</title>
<path fill="none" stroke="midnightblue" d="M518.923,-172.852C466.995,-164.432 347.893,-145.118 274.115,-133.154"/>
<polygon fill="midnightblue" stroke="midnightblue" points="274.448,-129.662 264.017,-131.516 273.327,-136.572 274.448,-129.662"/>
</g>
<!-- Node8 -->
<g id="node8" class="node"><title>Node8</title>
<g id="a_node8"><a xlink:href="Elements_8h.html" target="_top" xlink:title="Contains the getElementWeight function and the definitions of element constraint types. ">
<polygon fill="white" stroke="black" points="462.5,-112.5 462.5,-131.5 594.5,-131.5 594.5,-112.5 462.5,-112.5"/>
<text text-anchor="middle" x="528.5" y="-119.5" font-family="FreeSans" font-size="10.00">cantera/thermo/Elements.h</text>
</a>
</g>
</g>
<!-- Node4&#45;&gt;Node8 -->
<g id="edge7" class="edge"><title>Node4&#45;&gt;Node8</title>
<path fill="none" stroke="midnightblue" d="M541.858,-168.083C539.714,-160.849 536.621,-150.409 533.951,-141.397"/>
<polygon fill="midnightblue" stroke="midnightblue" points="537.29,-140.345 531.093,-131.751 530.578,-142.333 537.29,-140.345"/>
</g>
<!-- Node11 -->
<g id="node11" class="node"><title>Node11</title>
<g id="a_node11"><a xlink:href="Species_8h.html" target="_top" xlink:title="Declaration for class Cantera::Species. ">
<polygon fill="white" stroke="black" points="613,-112.5 613,-131.5 740,-131.5 740,-112.5 613,-112.5"/>
<text text-anchor="middle" x="676.5" y="-119.5" font-family="FreeSans" font-size="10.00">cantera/thermo/Species.h</text>
</a>
</g>
</g>
<!-- Node4&#45;&gt;Node11 -->
<g id="edge11" class="edge"><title>Node4&#45;&gt;Node11</title>
<path fill="none" stroke="midnightblue" d="M565.416,-168.444C587.236,-159.517 621.65,-145.439 646.392,-135.317"/>
<polygon fill="midnightblue" stroke="midnightblue" points="647.752,-138.542 655.682,-131.516 645.101,-132.063 647.752,-138.542"/>
</g>
<!-- Node12 -->
<g id="node12" class="node"><title>Node12</title>
<g id="a_node12"><a xlink:href="ValueCache_8h.html" target="_top" xlink:title="cantera/base/ValueCache.h">
<polygon fill="white" stroke="red" points="758.5,-112.5 758.5,-131.5 892.5,-131.5 892.5,-112.5 758.5,-112.5"/>
<text text-anchor="middle" x="825.5" y="-119.5" font-family="FreeSans" font-size="10.00">cantera/base/ValueCache.h</text>
</a>
</g>
</g>
<!-- Node4&#45;&gt;Node12 -->
<g id="edge13" class="edge"><title>Node4&#45;&gt;Node12</title>
<path fill="none" stroke="midnightblue" d="M570.432,-172.017C615.835,-163.292 710.625,-145.076 770.995,-133.474"/>
<polygon fill="midnightblue" stroke="midnightblue" points="771.951,-136.855 781.11,-131.53 770.63,-129.981 771.951,-136.855"/>
</g>
<!-- Node6 -->
<g id="node6" class="node"><title>Node6</title>
<polygon fill="white" stroke="#bfbfbf" points="254.5,-0.5 254.5,-19.5 294.5,-19.5 294.5,-0.5 254.5,-0.5"/>
<text text-anchor="middle" x="274.5" y="-7.5" font-family="FreeSans" font-size="10.00">string</text>
</g>
<!-- Node5&#45;&gt;Node6 -->
<g id="edge5" class="edge"><title>Node5&#45;&gt;Node6</title>
<path fill="none" stroke="midnightblue" d="M222.153,-112.421C231.868,-104.069 245.97,-90.5394 254.5,-76 262.995,-61.5203 268.224,-43.0733 271.193,-29.5329"/>
<polygon fill="midnightblue" stroke="midnightblue" points="274.669,-29.9972 273.179,-19.5078 267.802,-28.6373 274.669,-29.9972"/>
</g>
<!-- Node7 -->
<g id="node7" class="node"><title>Node7</title>
<polygon fill="white" stroke="#bfbfbf" points="143,-56.5 143,-75.5 246,-75.5 246,-56.5 143,-56.5"/>
<text text-anchor="middle" x="194.5" y="-63.5" font-family="FreeSans" font-size="10.00">cantera/ext/format.h</text>
</g>
<!-- Node5&#45;&gt;Node7 -->
<g id="edge6" class="edge"><title>Node5&#45;&gt;Node7</title>
<path fill="none" stroke="midnightblue" d="M208.693,-112.083C206.415,-104.849 203.129,-94.4087 200.292,-85.3968"/>
<polygon fill="midnightblue" stroke="midnightblue" points="203.596,-84.2385 197.255,-75.7511 196.919,-86.3406 203.596,-84.2385"/>
</g>
<!-- Node9 -->
<g id="node9" class="node"><title>Node9</title>
<g id="a_node9"><a xlink:href="ct__defs_8h.html" target="_top" xlink:title="This file contains definitions of terms that are used in internal routines and are unlikely to need m...">
<polygon fill="white" stroke="red" points="545.5,-56.5 545.5,-75.5 659.5,-75.5 659.5,-56.5 545.5,-56.5"/>
<text text-anchor="middle" x="602.5" y="-63.5" font-family="FreeSans" font-size="10.00">cantera/base/ct_defs.h</text>
</a>
</g>
</g>
<!-- Node8&#45;&gt;Node9 -->
<g id="edge8" class="edge"><title>Node8&#45;&gt;Node9</title>
<path fill="none" stroke="midnightblue" d="M540.389,-112.324C551.65,-104.107 568.787,-91.6017 582.209,-81.8069"/>
<polygon fill="midnightblue" stroke="midnightblue" points="584.38,-84.5559 590.394,-75.8339 580.253,-78.9014 584.38,-84.5559"/>
</g>
<!-- Node9&#45;&gt;Node6 -->
<g id="edge10" class="edge"><title>Node9&#45;&gt;Node6</title>
<path fill="none" stroke="midnightblue" d="M550.527,-56.4435C481.119,-45.0166 360.431,-25.1472 304.52,-15.9423"/>
<polygon fill="midnightblue" stroke="midnightblue" points="304.984,-12.4716 294.548,-14.3006 303.847,-19.3787 304.984,-12.4716"/>
</g>
<!-- Node10 -->
<g id="node10" class="node"><title>Node10</title>
<polygon fill="white" stroke="#bfbfbf" points="778,-0.5 778,-19.5 821,-19.5 821,-0.5 778,-0.5"/>
<text text-anchor="middle" x="799.5" y="-7.5" font-family="FreeSans" font-size="10.00">vector</text>
</g>
<!-- Node9&#45;&gt;Node10 -->
<g id="edge9" class="edge"><title>Node9&#45;&gt;Node10</title>
<path fill="none" stroke="midnightblue" d="M633.715,-56.4435C670.507,-46.3584 731.29,-29.6971 768.143,-19.5952"/>
<polygon fill="midnightblue" stroke="midnightblue" points="769.145,-22.9499 777.864,-16.9308 767.294,-16.199 769.145,-22.9499"/>
</g>
<!-- Node11&#45;&gt;Node9 -->
<g id="edge12" class="edge"><title>Node11&#45;&gt;Node9</title>
<path fill="none" stroke="midnightblue" d="M664.611,-112.324C653.35,-104.107 636.213,-91.6017 622.791,-81.8069"/>
<polygon fill="midnightblue" stroke="midnightblue" points="624.747,-78.9014 614.606,-75.8339 620.62,-84.5559 624.747,-78.9014"/>
</g>
<!-- Node12&#45;&gt;Node9 -->
<g id="edge14" class="edge"><title>Node12&#45;&gt;Node9</title>
<path fill="none" stroke="midnightblue" d="M790.165,-112.444C751.589,-103.102 689.715,-88.1194 647.647,-77.9326"/>
<polygon fill="midnightblue" stroke="midnightblue" points="648.213,-74.4683 637.67,-75.5164 646.565,-81.2717 648.213,-74.4683"/>
</g>
<!-- Node13&#45;&gt;Node9 -->
<g id="edge16" class="edge"><title>Node13&#45;&gt;Node9</title>
<path fill="none" stroke="midnightblue" d="M740.631,-177.032C814.76,-175.541 947.636,-165.599 901.5,-112 872.249,-78.0172 748.893,-69.3499 670.051,-67.3441"/>
<polygon fill="midnightblue" stroke="midnightblue" points="669.789,-63.8375 659.713,-67.1126 669.632,-70.8357 669.789,-63.8375"/>
</g>
<!-- Node14&#45;&gt;Node7 -->
<g id="edge19" class="edge"><title>Node14&#45;&gt;Node7</title>
<path fill="none" stroke="midnightblue" d="M359.443,-112.444C325.897,-103.201 272.303,-88.4356 235.359,-78.2572"/>
<polygon fill="midnightblue" stroke="midnightblue" points="235.982,-74.7984 225.411,-75.5164 234.123,-81.5469 235.982,-74.7984"/>
</g>
<!-- Node14&#45;&gt;Node9 -->
<g id="edge18" class="edge"><title>Node14&#45;&gt;Node9</title>
<path fill="none" stroke="midnightblue" d="M424.092,-112.444C460.687,-103.122 519.338,-88.1828 559.326,-77.9972"/>
<polygon fill="midnightblue" stroke="midnightblue" points="560.239,-81.3766 569.065,-75.5164 558.511,-74.5932 560.239,-81.3766"/>
</g>
<!-- Node15&#45;&gt;Node3 -->
<g id="edge21" class="edge"><title>Node15&#45;&gt;Node3</title>
<path fill="none" stroke="midnightblue" d="M559.064,-285.975C556.641,-277.492 552.844,-264.204 549.735,-253.322"/>
<polygon fill="midnightblue" stroke="midnightblue" points="553.044,-252.163 546.931,-243.509 546.313,-254.086 553.044,-252.163"/>
</g>
<!-- Node16 -->
<g id="node16" class="node"><title>Node16</title>
<g id="a_node16"><a xlink:href="xml_8h.html" target="_top" xlink:title="Classes providing support for XML data files. ">
<polygon fill="white" stroke="black" points="181.5,-168.5 181.5,-187.5 279.5,-187.5 279.5,-168.5 181.5,-168.5"/>
<text text-anchor="middle" x="230.5" y="-175.5" font-family="FreeSans" font-size="10.00">cantera/base/xml.h</text>
</a>
</g>
</g>
<!-- Node15&#45;&gt;Node16 -->
<g id="edge22" class="edge"><title>Node15&#45;&gt;Node16</title>
<path fill="none" stroke="midnightblue" d="M509.856,-285.949C497.919,-283.984 485.268,-281.911 473.5,-280 423.519,-271.884 286.244,-277.754 248.5,-244 235.563,-232.431 231.573,-212.469 230.506,-197.711"/>
<polygon fill="midnightblue" stroke="midnightblue" points="234.002,-197.539 230.16,-187.665 227.006,-197.78 234.002,-197.539"/>
</g>
<!-- Node17 -->
<g id="node17" class="node"><title>Node17</title>
<g id="a_node17"><a xlink:href="FactoryBase_8h.html" target="_top" xlink:title="File contains the FactoryBase class declarations. ">
<polygon fill="white" stroke="black" points="819,-224.5 819,-243.5 956,-243.5 956,-224.5 819,-224.5"/>
<text text-anchor="middle" x="887.5" y="-231.5" font-family="FreeSans" font-size="10.00">cantera/base/FactoryBase.h</text>
</a>
</g>
</g>
<!-- Node15&#45;&gt;Node17 -->
<g id="edge25" class="edge"><title>Node15&#45;&gt;Node17</title>
<path fill="none" stroke="midnightblue" d="M608.208,-285.975C666.912,-275.261 767.608,-256.882 830.704,-245.366"/>
<polygon fill="midnightblue" stroke="midnightblue" points="831.67,-248.748 840.879,-243.509 830.413,-241.862 831.67,-248.748"/>
</g>
<!-- Node16&#45;&gt;Node5 -->
<g id="edge23" class="edge"><title>Node16&#45;&gt;Node5</title>
<path fill="none" stroke="midnightblue" d="M227.363,-168.083C224.817,-160.849 221.144,-150.409 217.973,-141.397"/>
<polygon fill="midnightblue" stroke="midnightblue" points="221.2,-140.023 214.579,-131.751 214.597,-142.346 221.2,-140.023"/>
</g>
<!-- Node16&#45;&gt;Node14 -->
<g id="edge24" class="edge"><title>Node16&#45;&gt;Node14</title>
<path fill="none" stroke="midnightblue" d="M255.852,-168.444C282.769,-159.359 325.496,-144.939 355.587,-134.783"/>
<polygon fill="midnightblue" stroke="midnightblue" points="356.91,-138.031 365.266,-131.516 354.672,-131.398 356.91,-138.031"/>
</g>
<!-- Node17&#45;&gt;Node10 -->
<g id="edge26" class="edge"><title>Node17&#45;&gt;Node10</title>
<path fill="none" stroke="midnightblue" d="M895.868,-224.197C903.357,-215.687 913.852,-202.051 918.5,-188 929.112,-155.92 934.82,-142.605 920.5,-112 901.247,-70.8496 856.071,-40.5926 826.696,-24.408"/>
<polygon fill="midnightblue" stroke="midnightblue" points="828.238,-21.2639 817.767,-19.6518 824.947,-27.4422 828.238,-21.2639"/>
</g>
<!-- Node18 -->
<g id="node18" class="node"><title>Node18</title>
<polygon fill="white" stroke="#bfbfbf" points="866,-168.5 866,-187.5 909,-187.5 909,-168.5 866,-168.5"/>
<text text-anchor="middle" x="887.5" y="-175.5" font-family="FreeSans" font-size="10.00">mutex</text>
</g>
<!-- Node17&#45;&gt;Node18 -->
<g id="edge27" class="edge"><title>Node17&#45;&gt;Node18</title>
<path fill="none" stroke="midnightblue" d="M887.5,-224.083C887.5,-217.006 887.5,-206.861 887.5,-197.986"/>
<polygon fill="midnightblue" stroke="midnightblue" points="891,-197.751 887.5,-187.751 884,-197.751 891,-197.751"/>
</g>
<!-- Node19&#45;&gt;Node6 -->
<g id="edge31" class="edge"><title>Node19&#45;&gt;Node6</title>
<path fill="none" stroke="midnightblue" d="M69.8756,-112.125C81.8551,-98.2502 106.893,-71.4154 133.5,-56 168.747,-35.5786 214.411,-23.1927 244.074,-16.7215"/>
<polygon fill="midnightblue" stroke="midnightblue" points="245.156,-20.0712 254.229,-14.6011 243.725,-13.2189 245.156,-20.0712"/>
</g>
<!-- Node19&#45;&gt;Node7 -->
<g id="edge30" class="edge"><title>Node19&#45;&gt;Node7</title>
<path fill="none" stroke="midnightblue" d="M83.4158,-112.444C105.236,-103.517 139.65,-89.4387 164.392,-79.3168"/>
<polygon fill="midnightblue" stroke="midnightblue" points="165.752,-82.5422 173.682,-75.5164 163.101,-76.0634 165.752,-82.5422"/>
</g>
<!-- Node19&#45;&gt;Node9 -->
<g id="edge29" class="edge"><title>Node19&#45;&gt;Node9</title>
<path fill="none" stroke="midnightblue" d="M125.208,-112.946C128.009,-112.619 130.783,-112.302 133.5,-112 276.358,-96.0958 444.08,-80.8223 535.218,-72.8076"/>
<polygon fill="midnightblue" stroke="midnightblue" points="535.752,-76.2742 545.408,-71.9137 535.14,-69.301 535.752,-76.2742"/>
</g>
<!-- Node20&#45;&gt;Node9 -->
<g id="edge33" class="edge"><title>Node20&#45;&gt;Node9</title>
<path fill="none" stroke="midnightblue" d="M306.804,-224.188C303.074,-201.912 296.775,-142.923 327.5,-112 355.815,-83.5016 463.135,-73.0404 535.032,-69.2075"/>
<polygon fill="midnightblue" stroke="midnightblue" points="535.557,-72.6856 545.369,-68.6887 535.206,-65.6944 535.557,-72.6856"/>
</g>
<!-- Node20&#45;&gt;Node16 -->
<g id="edge34" class="edge"><title>Node20&#45;&gt;Node16</title>
<path fill="none" stroke="midnightblue" d="M295.968,-224.324C283.914,-215.979 265.473,-203.212 251.231,-193.352"/>
<polygon fill="midnightblue" stroke="midnightblue" points="253.215,-190.469 243.001,-187.655 249.231,-196.224 253.215,-190.469"/>
</g>
<!-- Node21&#45;&gt;Node9 -->
<g id="edge36" class="edge"><title>Node21&#45;&gt;Node9</title>
<path fill="none" stroke="midnightblue" d="M1057.92,-168.307C1030.25,-154.186 972.522,-126.397 920.5,-112 835.824,-88.5667 734.911,-76.9319 669.829,-71.4492"/>
<polygon fill="midnightblue" stroke="midnightblue" points="669.951,-67.9476 659.699,-70.6212 669.38,-74.9243 669.951,-67.9476"/>
</g>
<!-- Node21&#45;&gt;Node14 -->
<g id="edge37" class="edge"><title>Node21&#45;&gt;Node14</title>
<path fill="none" stroke="midnightblue" d="M1017.75,-173.396C889.546,-165.173 579.62,-144.826 454.842,-132.055"/>
<polygon fill="midnightblue" stroke="midnightblue" points="455.077,-128.561 444.766,-130.997 454.346,-135.522 455.077,-128.561"/>
</g>
<!-- Node22 -->
<g id="node22" class="node"><title>Node22</title>
<polygon fill="white" stroke="#bfbfbf" points="1031.5,-112.5 1031.5,-131.5 1089.5,-131.5 1089.5,-112.5 1031.5,-112.5"/>
<text text-anchor="middle" x="1060.5" y="-119.5" font-family="FreeSans" font-size="10.00">stdexcept</text>
</g>
<!-- Node21&#45;&gt;Node22 -->
<g id="edge38" class="edge"><title>Node21&#45;&gt;Node22</title>
<path fill="none" stroke="midnightblue" d="M1072.19,-168.083C1070.33,-160.927 1067.66,-150.635 1065.35,-141.691"/>
<polygon fill="midnightblue" stroke="midnightblue" points="1068.67,-140.553 1062.77,-131.751 1061.89,-142.309 1068.67,-140.553"/>
</g>
<!-- Node23 -->
<g id="node23" class="node"><title>Node23</title>
<polygon fill="white" stroke="#bfbfbf" points="1108,-112.5 1108,-131.5 1159,-131.5 1159,-112.5 1108,-112.5"/>
<text text-anchor="middle" x="1133.5" y="-119.5" font-family="FreeSans" font-size="10.00">numeric</text>
</g>
<!-- Node21&#45;&gt;Node23 -->
<g id="edge39" class="edge"><title>Node21&#45;&gt;Node23</title>
<path fill="none" stroke="midnightblue" d="M1083.98,-168.324C1092.7,-160.341 1105.84,-148.313 1116.4,-138.653"/>
<polygon fill="midnightblue" stroke="midnightblue" points="1118.83,-141.167 1123.85,-131.834 1114.11,-136.004 1118.83,-141.167"/>
</g>
</g>
</svg>
