<?xml version="1.0" encoding="UTF-8" standalone="no"?>
<!DOCTYPE svg PUBLIC "-//W3C//DTD SVG 1.1//EN"
 "http://www.w3.org/Graphics/SVG/1.1/DTD/svg11.dtd">
<!-- Generated by graphviz version 2.28.0 (20120425.2022)
 -->
<!-- Title: IdealSolidSolnPhase.cpp Pages: 1 -->
<svg width="1049pt" height="432pt"
 viewBox="0.00 0.00 1049.00 432.00" xmlns="http://www.w3.org/2000/svg" xmlns:xlink="http://www.w3.org/1999/xlink">
<g id="graph1" class="graph" transform="scale(1 1) rotate(0) translate(4 428)">
<title>IdealSolidSolnPhase.cpp</title>
<polygon fill="white" stroke="white" points="-4,5 -4,-428 1046,-428 1046,5 -4,5"/>
<!-- Node1 -->
<g id="node1" class="node"><title>Node1</title>
<polygon fill="#bfbfbf" stroke="black" points="692,-404.5 692,-423.5 822,-423.5 822,-404.5 692,-404.5"/>
<text text-anchor="middle" x="757" y="-411.5" font-family="FreeSans" font-size="10.00">IdealSolidSolnPhase.cpp</text>
</g>
<!-- Node2 -->
<g id="node3" class="node"><title>Node2</title>
<a xlink:href="IdealSolidSolnPhase_8h.html" target="_top" xlink:title="Header file for an ideal solid solution model with incompressible thermodynamics (see Thermodynamic P...">
<polygon fill="white" stroke="black" points="621.5,-337 621.5,-367 754.5,-367 754.5,-337 621.5,-337"/>
<text text-anchor="start" x="629.5" y="-355" font-family="FreeSans" font-size="10.00">cantera/thermo/IdealSolid</text>
<text text-anchor="middle" x="688" y="-344" font-family="FreeSans" font-size="10.00">SolnPhase.h</text>
</a>
</g>
<!-- Node1&#45;&gt;Node2 -->
<g id="edge2" class="edge"><title>Node1&#45;&gt;Node2</title>
<path fill="none" stroke="midnightblue" d="M747.114,-404.403C737.944,-396.429 723.932,-384.245 711.851,-373.74"/>
<polygon fill="midnightblue" stroke="midnightblue" points="714.105,-371.062 704.262,-367.141 709.511,-376.344 714.105,-371.062"/>
</g>
<!-- Node20 -->
<g id="node47" class="node"><title>Node20</title>
<a xlink:href="stringUtils_8h.html" target="_top" xlink:title="Contains declarations for string manipulation functions within Cantera. ">
<polygon fill="white" stroke="black" points="911.5,-112.5 911.5,-131.5 1040.5,-131.5 1040.5,-112.5 911.5,-112.5"/>
<text text-anchor="middle" x="976" y="-119.5" font-family="FreeSans" font-size="10.00">cantera/base/stringUtils.h</text>
</a>
</g>
<!-- Node1&#45;&gt;Node20 -->
<g id="edge54" class="edge"><title>Node1&#45;&gt;Node20</title>
<path fill="none" stroke="midnightblue" d="M783.077,-404.419C824.574,-388.93 901,-352.109 901,-291 901,-291 901,-291 901,-233 901,-193.444 934.517,-157.616 956.739,-138.209"/>
<polygon fill="midnightblue" stroke="midnightblue" points="959.201,-140.712 964.609,-131.602 954.7,-135.351 959.201,-140.712"/>
</g>
<!-- Node3 -->
<g id="node5" class="node"><title>Node3</title>
<a xlink:href="mix__defs_8h.html" target="_top" xlink:title="mix_defs.h">
<polygon fill="white" stroke="black" points="655.5,-280.5 655.5,-299.5 720.5,-299.5 720.5,-280.5 655.5,-280.5"/>
<text text-anchor="middle" x="688" y="-287.5" font-family="FreeSans" font-size="10.00">mix_defs.h</text>
</a>
</g>
<!-- Node2&#45;&gt;Node3 -->
<g id="edge4" class="edge"><title>Node2&#45;&gt;Node3</title>
<path fill="none" stroke="midnightblue" d="M688,-336.781C688,-328.781 688,-318.689 688,-310.017"/>
<polygon fill="midnightblue" stroke="midnightblue" points="691.5,-309.73 688,-299.731 684.5,-309.731 691.5,-309.73"/>
</g>
<!-- Node4 -->
<g id="node7" class="node"><title>Node4</title>
<a xlink:href="ThermoPhase_8h.html" target="_top" xlink:title="Header file for class ThermoPhase, the base class for phases with thermodynamic properties, and the text for the Module thermoprops (see Thermodynamic Properties and class ThermoPhase). ">
<polygon fill="white" stroke="black" points="582.5,-224.5 582.5,-243.5 671.5,-243.5 671.5,-224.5 582.5,-224.5"/>
<text text-anchor="middle" x="627" y="-231.5" font-family="FreeSans" font-size="10.00">ThermoPhase.h</text>
</a>
</g>
<!-- Node2&#45;&gt;Node4 -->
<g id="edge6" class="edge"><title>Node2&#45;&gt;Node4</title>
<path fill="none" stroke="midnightblue" d="M673.775,-336.977C664.693,-327.32 653.295,-313.788 646,-300 638.268,-285.386 633.297,-267.214 630.388,-253.802"/>
<polygon fill="midnightblue" stroke="midnightblue" points="633.79,-252.968 628.413,-243.839 626.924,-254.329 633.79,-252.968"/>
</g>
<!-- Node14 -->
<g id="node29" class="node"><title>Node14</title>
<a xlink:href="SpeciesThermo_8h.html" target="_top" xlink:title="Virtual base class for the calculation of multiple&#45;species thermodynamic reference&#45;state property man...">
<polygon fill="white" stroke="black" points="700.5,-168.5 700.5,-187.5 797.5,-187.5 797.5,-168.5 700.5,-168.5"/>
<text text-anchor="middle" x="749" y="-175.5" font-family="FreeSans" font-size="10.00">SpeciesThermo.h</text>
</a>
</g>
<!-- Node2&#45;&gt;Node14 -->
<g id="edge52" class="edge"><title>Node2&#45;&gt;Node14</title>
<path fill="none" stroke="midnightblue" d="M702.826,-336.76C711.844,-327.219 722.786,-313.897 729,-300 744.156,-266.105 747.944,-222.242 748.819,-197.719"/>
<polygon fill="midnightblue" stroke="midnightblue" points="752.32,-197.716 749.049,-187.639 745.322,-197.557 752.32,-197.716"/>
</g>
<!-- Node15 -->
<g id="node32" class="node"><title>Node15</title>
<a xlink:href="ThermoFactory_8h.html" target="_top" xlink:title="Headers for the factory class that can create known ThermoPhase objects (see Thermodynamic Properties...">
<polygon fill="white" stroke="black" points="431,-280.5 431,-299.5 525,-299.5 525,-280.5 431,-280.5"/>
<text text-anchor="middle" x="478" y="-287.5" font-family="FreeSans" font-size="10.00">ThermoFactory.h</text>
</a>
</g>
<!-- Node2&#45;&gt;Node15 -->
<g id="edge34" class="edge"><title>Node2&#45;&gt;Node15</title>
<path fill="none" stroke="midnightblue" d="M638.764,-336.933C601.801,-326.372 551.849,-312.1 517.487,-302.282"/>
<polygon fill="midnightblue" stroke="midnightblue" points="518.371,-298.895 507.794,-299.513 516.448,-305.625 518.371,-298.895"/>
</g>
<!-- Node5 -->
<g id="node9" class="node"><title>Node5</title>
<a xlink:href="Phase_8h.html" target="_top" xlink:title="Header file for class Phase. ">
<polygon fill="white" stroke="black" points="600.5,-168.5 600.5,-187.5 653.5,-187.5 653.5,-168.5 600.5,-168.5"/>
<text text-anchor="middle" x="627" y="-175.5" font-family="FreeSans" font-size="10.00">Phase.h</text>
</a>
</g>
<!-- Node4&#45;&gt;Node5 -->
<g id="edge8" class="edge"><title>Node4&#45;&gt;Node5</title>
<path fill="none" stroke="midnightblue" d="M627,-224.083C627,-217.006 627,-206.861 627,-197.986"/>
<polygon fill="midnightblue" stroke="midnightblue" points="630.5,-197.751 627,-187.751 623.5,-197.751 630.5,-197.751"/>
</g>
<!-- Node4&#45;&gt;Node14 -->
<g id="edge30" class="edge"><title>Node4&#45;&gt;Node14</title>
<path fill="none" stroke="midnightblue" d="M646.331,-224.444C666.32,-215.596 697.743,-201.687 720.564,-191.586"/>
<polygon fill="midnightblue" stroke="midnightblue" points="722.032,-194.764 729.759,-187.516 719.198,-188.363 722.032,-194.764"/>
</g>
<!-- Node6 -->
<g id="node11" class="node"><title>Node6</title>
<a xlink:href="vec__functions_8h.html" target="_top" xlink:title="Templates for operations on vector&#45;like objects. ">
<polygon fill="white" stroke="red" points="553.5,-112.5 553.5,-131.5 700.5,-131.5 700.5,-112.5 553.5,-112.5"/>
<text text-anchor="middle" x="627" y="-119.5" font-family="FreeSans" font-size="10.00">cantera/base/vec_functions.h</text>
</a>
</g>
<!-- Node5&#45;&gt;Node6 -->
<g id="edge10" class="edge"><title>Node5&#45;&gt;Node6</title>
<path fill="none" stroke="midnightblue" d="M627,-168.083C627,-161.006 627,-150.861 627,-141.986"/>
<polygon fill="midnightblue" stroke="midnightblue" points="630.5,-141.751 627,-131.751 623.5,-141.751 630.5,-141.751"/>
</g>
<!-- Node11 -->
<g id="node21" class="node"><title>Node11</title>
<a xlink:href="ctml_8h.html" target="_top" xlink:title="CTML (&quot;Cantera Markup Language&quot;) is the variant of XML that Cantera uses to store data...">
<polygon fill="white" stroke="red" points="431,-112.5 431,-131.5 535,-131.5 535,-112.5 431,-112.5"/>
<text text-anchor="middle" x="483" y="-119.5" font-family="FreeSans" font-size="10.00">cantera/base/ctml.h</text>
</a>
</g>
<!-- Node5&#45;&gt;Node11 -->
<g id="edge20" class="edge"><title>Node5&#45;&gt;Node11</title>
<path fill="none" stroke="midnightblue" d="M604.183,-168.444C580.168,-159.438 542.171,-145.189 515.131,-135.049"/>
<polygon fill="midnightblue" stroke="midnightblue" points="516.303,-131.751 505.71,-131.516 513.845,-138.305 516.303,-131.751"/>
</g>
<!-- Node13 -->
<g id="node26" class="node"><title>Node13</title>
<a xlink:href="Elements_8h.html" target="_top" xlink:title="Contains the LookupWtElements function and the definitions of element constraint types. ">
<polygon fill="white" stroke="black" points="719,-112.5 719,-131.5 855,-131.5 855,-112.5 719,-112.5"/>
<text text-anchor="middle" x="787" y="-119.5" font-family="FreeSans" font-size="10.00">cantera/thermo/Elements.h</text>
</a>
</g>
<!-- Node5&#45;&gt;Node13 -->
<g id="edge26" class="edge"><title>Node5&#45;&gt;Node13</title>
<path fill="none" stroke="midnightblue" d="M652.352,-168.444C679.269,-159.359 721.996,-144.939 752.087,-134.783"/>
<polygon fill="midnightblue" stroke="midnightblue" points="753.41,-138.031 761.766,-131.516 751.172,-131.398 753.41,-138.031"/>
</g>
<!-- Node7 -->
<g id="node13" class="node"><title>Node7</title>
<a xlink:href="ct__defs_8h.html" target="_top" xlink:title="This file contains definitions of terms that are used in internal routines and are unlikely to need m...">
<polygon fill="white" stroke="red" points="672,-56.5 672,-75.5 728,-75.5 728,-56.5 672,-56.5"/>
<text text-anchor="middle" x="700" y="-63.5" font-family="FreeSans" font-size="10.00">ct_defs.h</text>
</a>
</g>
<!-- Node6&#45;&gt;Node7 -->
<g id="edge12" class="edge"><title>Node6&#45;&gt;Node7</title>
<path fill="none" stroke="midnightblue" d="M638.729,-112.324C649.837,-104.107 666.742,-91.6017 679.983,-81.8069"/>
<polygon fill="midnightblue" stroke="midnightblue" points="682.1,-84.5948 688.058,-75.8339 677.937,-78.9671 682.1,-84.5948"/>
</g>
<!-- Node8 -->
<g id="node15" class="node"><title>Node8</title>
<a xlink:href="config_8h_source.html" target="_top" xlink:title="config.h">
<polygon fill="white" stroke="black" points="410.5,-0.5 410.5,-19.5 461.5,-19.5 461.5,-0.5 410.5,-0.5"/>
<text text-anchor="middle" x="436" y="-7.5" font-family="FreeSans" font-size="10.00">config.h</text>
</a>
</g>
<!-- Node7&#45;&gt;Node8 -->
<g id="edge14" class="edge"><title>Node7&#45;&gt;Node8</title>
<path fill="none" stroke="midnightblue" d="M671.747,-59.2211C623.362,-49.3241 524.737,-29.1507 471.679,-18.298"/>
<polygon fill="midnightblue" stroke="midnightblue" points="472.202,-14.8326 461.704,-16.2576 470.799,-21.6906 472.202,-14.8326"/>
</g>
<!-- Node9 -->
<g id="node17" class="node"><title>Node9</title>
<polygon fill="white" stroke="#bfbfbf" points="331,-0.5 331,-19.5 375,-19.5 375,-0.5 331,-0.5"/>
<text text-anchor="middle" x="353" y="-7.5" font-family="FreeSans" font-size="10.00">vector</text>
</g>
<!-- Node7&#45;&gt;Node9 -->
<g id="edge16" class="edge"><title>Node7&#45;&gt;Node9</title>
<path fill="none" stroke="midnightblue" d="M671.915,-61.1168C618.878,-53.7074 500.381,-36.7899 401,-20 396.036,-19.1614 390.793,-18.2276 385.667,-17.288"/>
<polygon fill="midnightblue" stroke="midnightblue" points="385.908,-13.7728 375.436,-15.3796 384.625,-20.6541 385.908,-13.7728"/>
</g>
<!-- Node10 -->
<g id="node19" class="node"><title>Node10</title>
<polygon fill="white" stroke="#bfbfbf" points="780.5,-0.5 780.5,-19.5 821.5,-19.5 821.5,-0.5 780.5,-0.5"/>
<text text-anchor="middle" x="801" y="-7.5" font-family="FreeSans" font-size="10.00">string</text>
</g>
<!-- Node7&#45;&gt;Node10 -->
<g id="edge18" class="edge"><title>Node7&#45;&gt;Node10</title>
<path fill="none" stroke="midnightblue" d="M716.227,-56.324C732.351,-47.7034 757.3,-34.3643 775.964,-24.3855"/>
<polygon fill="midnightblue" stroke="midnightblue" points="777.644,-27.456 784.813,-19.6545 774.344,-21.283 777.644,-27.456"/>
</g>
<!-- Node11&#45;&gt;Node7 -->
<g id="edge22" class="edge"><title>Node11&#45;&gt;Node7</title>
<path fill="none" stroke="midnightblue" d="M517.384,-112.444C556.826,-102.629 621.297,-86.5852 662.141,-76.421"/>
<polygon fill="midnightblue" stroke="midnightblue" points="663.128,-79.7823 671.987,-73.971 661.438,-72.9895 663.128,-79.7823"/>
</g>
<!-- Node12 -->
<g id="node24" class="node"><title>Node12</title>
<a xlink:href="xml_8h.html" target="_top" xlink:title="Classes providing support for XML data files. ">
<polygon fill="white" stroke="red" points="423,-56.5 423,-75.5 463,-75.5 463,-56.5 423,-56.5"/>
<text text-anchor="middle" x="443" y="-63.5" font-family="FreeSans" font-size="10.00">xml.h</text>
</a>
</g>
<!-- Node11&#45;&gt;Node12 -->
<g id="edge24" class="edge"><title>Node11&#45;&gt;Node12</title>
<path fill="none" stroke="midnightblue" d="M476.395,-112.083C470.745,-104.455 462.455,-93.2645 455.549,-83.9408"/>
<polygon fill="midnightblue" stroke="midnightblue" points="458.247,-81.7034 449.482,-75.7511 452.622,-85.87 458.247,-81.7034"/>
</g>
<!-- Node13&#45;&gt;Node7 -->
<g id="edge28" class="edge"><title>Node13&#45;&gt;Node7</title>
<path fill="none" stroke="midnightblue" d="M773.022,-112.324C759.45,-103.9 738.62,-90.9709 722.675,-81.0741"/>
<polygon fill="midnightblue" stroke="midnightblue" points="724.286,-77.9544 713.943,-75.6545 720.594,-83.9019 724.286,-77.9544"/>
</g>
<!-- Node14&#45;&gt;Node7 -->
<g id="edge32" class="edge"><title>Node14&#45;&gt;Node7</title>
<path fill="none" stroke="midnightblue" d="M795.929,-168.475C836.706,-158.934 886.042,-140.905 864,-112 848.793,-92.0583 781.549,-78.7669 738.028,-72.081"/>
<polygon fill="midnightblue" stroke="midnightblue" points="738.464,-68.6073 728.058,-70.6004 737.435,-75.5314 738.464,-68.6073"/>
</g>
<!-- Node15&#45;&gt;Node4 -->
<g id="edge36" class="edge"><title>Node15&#45;&gt;Node4</title>
<path fill="none" stroke="midnightblue" d="M501.609,-280.444C526.458,-271.438 565.774,-257.189 593.754,-247.049"/>
<polygon fill="midnightblue" stroke="midnightblue" points="595.292,-250.214 603.501,-243.516 592.907,-243.633 595.292,-250.214"/>
</g>
<!-- Node15&#45;&gt;Node12 -->
<g id="edge38" class="edge"><title>Node15&#45;&gt;Node12</title>
<path fill="none" stroke="midnightblue" d="M478.455,-280.212C479.156,-259.432 478.737,-206.151 459,-168 448.457,-147.622 430.925,-153.137 422,-132 415.318,-116.176 422.92,-97.45 430.781,-84.1718"/>
<polygon fill="midnightblue" stroke="midnightblue" points="433.845,-85.8796 436.351,-75.5853 427.973,-82.0703 433.845,-85.8796"/>
</g>
<!-- Node16 -->
<g id="node36" class="node"><title>Node16</title>
<a xlink:href="ct__thread_8h.html" target="_top" xlink:title="cantera/base/ct_thread.h">
<polygon fill="white" stroke="black" points="259,-224.5 259,-243.5 387,-243.5 387,-224.5 259,-224.5"/>
<text text-anchor="middle" x="323" y="-231.5" font-family="FreeSans" font-size="10.00">cantera/base/ct_thread.h</text>
</a>
</g>
<!-- Node15&#45;&gt;Node16 -->
<g id="edge40" class="edge"><title>Node15&#45;&gt;Node16</title>
<path fill="none" stroke="midnightblue" d="M453.44,-280.444C427.477,-271.399 386.332,-257.064 357.203,-246.916"/>
<polygon fill="midnightblue" stroke="midnightblue" points="358.04,-243.501 347.445,-243.516 355.737,-250.112 358.04,-243.501"/>
</g>
<!-- Node19 -->
<g id="node43" class="node"><title>Node19</title>
<a xlink:href="FactoryBase_8h.html" target="_top" xlink:title="File contains the FactoryBase class declarations. ">
<polygon fill="white" stroke="black" points="0,-56.5 0,-75.5 144,-75.5 144,-56.5 0,-56.5"/>
<text text-anchor="middle" x="72" y="-63.5" font-family="FreeSans" font-size="10.00">cantera/base/FactoryBase.h</text>
</a>
</g>
<!-- Node15&#45;&gt;Node19 -->
<g id="edge48" class="edge"><title>Node15&#45;&gt;Node19</title>
<path fill="none" stroke="midnightblue" d="M430.881,-286.536C383.218,-282.509 308.435,-271.906 250,-244 172.023,-206.762 108.055,-121.025 83.1736,-84.2566"/>
<polygon fill="midnightblue" stroke="midnightblue" points="85.903,-82.0396 77.4575,-75.6423 80.0702,-85.91 85.903,-82.0396"/>
</g>
<!-- Node16&#45;&gt;Node8 -->
<g id="edge42" class="edge"><title>Node16&#45;&gt;Node8</title>
<path fill="none" stroke="midnightblue" d="M258.74,-225.007C217.017,-216.69 173.412,-200.161 191,-168 235.934,-85.8376 344.254,-40.3443 400.604,-21.4955"/>
<polygon fill="midnightblue" stroke="midnightblue" points="401.739,-24.8068 410.167,-18.3863 399.574,-18.1498 401.739,-24.8068"/>
</g>
<!-- Node17 -->
<g id="node39" class="node"><title>Node17</title>
<polygon fill="white" stroke="#bfbfbf" points="340,-168.5 340,-187.5 450,-187.5 450,-168.5 340,-168.5"/>
<text text-anchor="middle" x="395" y="-175.5" font-family="FreeSans" font-size="10.00">boost/shared_ptr.hpp</text>
</g>
<!-- Node16&#45;&gt;Node17 -->
<g id="edge44" class="edge"><title>Node16&#45;&gt;Node17</title>
<path fill="none" stroke="midnightblue" d="M334.568,-224.324C345.42,-216.185 361.881,-203.839 374.883,-194.087"/>
<polygon fill="midnightblue" stroke="midnightblue" points="377.321,-196.634 383.221,-187.834 373.121,-191.034 377.321,-196.634"/>
</g>
<!-- Node18 -->
<g id="node41" class="node"><title>Node18</title>
<polygon fill="white" stroke="#bfbfbf" points="200.5,-168.5 200.5,-187.5 321.5,-187.5 321.5,-168.5 200.5,-168.5"/>
<text text-anchor="middle" x="261" y="-175.5" font-family="FreeSans" font-size="10.00">boost/thread/mutex.hpp</text>
</g>
<!-- Node16&#45;&gt;Node18 -->
<g id="edge46" class="edge"><title>Node16&#45;&gt;Node18</title>
<path fill="none" stroke="midnightblue" d="M313.039,-224.324C303.873,-216.341 290.063,-204.313 278.972,-194.653"/>
<polygon fill="midnightblue" stroke="midnightblue" points="280.982,-191.762 271.143,-187.834 276.385,-197.041 280.982,-191.762"/>
</g>
<!-- Node19&#45;&gt;Node9 -->
<g id="edge50" class="edge"><title>Node19&#45;&gt;Node9</title>
<path fill="none" stroke="midnightblue" d="M116.525,-56.4435C173.45,-45.5043 270.636,-26.828 320.853,-17.1778"/>
<polygon fill="midnightblue" stroke="midnightblue" points="321.664,-20.586 330.824,-15.2616 320.343,-13.7117 321.664,-20.586"/>
</g>
<!-- Node20&#45;&gt;Node7 -->
<g id="edge56" class="edge"><title>Node20&#45;&gt;Node7</title>
<path fill="none" stroke="midnightblue" d="M932.267,-112.444C878.798,-101.982 789.164,-84.4451 738.297,-74.4929"/>
<polygon fill="midnightblue" stroke="midnightblue" points="738.846,-71.0341 728.36,-72.5488 737.502,-77.9038 738.846,-71.0341"/>
</g>
<!-- Node20&#45;&gt;Node10 -->
<g id="edge58" class="edge"><title>Node20&#45;&gt;Node10</title>
<path fill="none" stroke="midnightblue" d="M962.268,-112.368C932.11,-93.4121 859.865,-48.0006 823.181,-24.9424"/>
<polygon fill="midnightblue" stroke="midnightblue" points="824.997,-21.9499 814.668,-19.5914 821.272,-27.8764 824.997,-21.9499"/>
</g>
</g>
</svg>
