<?xml version="1.0" encoding="UTF-8" standalone="no"?>
<!DOCTYPE svg PUBLIC "-//W3C//DTD SVG 1.1//EN"
 "http://www.w3.org/Graphics/SVG/1.1/DTD/svg11.dtd">
<!-- Generated by graphviz version 2.36.0 (20140111.2315)
 -->
<!-- Title: IdealSolidSolnPhase.cpp Pages: 1 -->
<svg width="993pt" height="432pt"
 viewBox="0.00 0.00 993.00 432.00" xmlns="http://www.w3.org/2000/svg" xmlns:xlink="http://www.w3.org/1999/xlink">
<g id="graph0" class="graph" transform="scale(1 1) rotate(0) translate(4 428)">
<title>IdealSolidSolnPhase.cpp</title>
<polygon fill="white" stroke="none" points="-4,4 -4,-428 989,-428 989,4 -4,4"/>
<!-- Node1 -->
<g id="node1" class="node"><title>Node1</title>
<polygon fill="#bfbfbf" stroke="black" points="603,-404.5 603,-423.5 727,-423.5 727,-404.5 603,-404.5"/>
<text text-anchor="middle" x="665" y="-411.5" font-family="FreeSans" font-size="10.00">IdealSolidSolnPhase.cpp</text>
</g>
<!-- Node2 -->
<g id="node2" class="node"><title>Node2</title>
<g id="a_node2"><a xlink:href="IdealSolidSolnPhase_8h.html" target="_top" xlink:title="Header file for an ideal solid solution model with incompressible thermodynamics (see Thermodynamic P...">
<polygon fill="white" stroke="black" points="461,-337 461,-367 589,-367 589,-337 461,-337"/>
<text text-anchor="start" x="469" y="-355" font-family="FreeSans" font-size="10.00">cantera/thermo/IdealSolid</text>
<text text-anchor="middle" x="525" y="-344" font-family="FreeSans" font-size="10.00">SolnPhase.h</text>
</a>
</g>
</g>
<!-- Node1&#45;&gt;Node2 -->
<g id="edge1" class="edge"><title>Node1&#45;&gt;Node2</title>
<path fill="none" stroke="midnightblue" d="M644.941,-404.403C624.673,-395.717 592.747,-382.035 566.929,-370.969"/>
<polygon fill="midnightblue" stroke="midnightblue" points="568.296,-367.748 557.726,-367.025 565.538,-374.182 568.296,-367.748"/>
</g>
<!-- Node21 -->
<g id="node21" class="node"><title>Node21</title>
<g id="a_node21"><a xlink:href="stringUtils_8h.html" target="_top" xlink:title="Contains declarations for string manipulation functions within Cantera. ">
<polygon fill="white" stroke="black" points="860.5,-112.5 860.5,-131.5 985.5,-131.5 985.5,-112.5 860.5,-112.5"/>
<text text-anchor="middle" x="923" y="-119.5" font-family="FreeSans" font-size="10.00">cantera/base/stringUtils.h</text>
</a>
</g>
</g>
<!-- Node1&#45;&gt;Node21 -->
<g id="edge29" class="edge"><title>Node1&#45;&gt;Node21</title>
<path fill="none" stroke="midnightblue" d="M690.208,-404.381C730.765,-388.728 806,-351.533 806,-291 806,-291 806,-291 806,-233 806,-185.599 857.604,-152.642 892.269,-135.85"/>
<polygon fill="midnightblue" stroke="midnightblue" points="893.945,-138.931 901.54,-131.544 890.997,-132.582 893.945,-138.931"/>
</g>
<!-- Node3 -->
<g id="node3" class="node"><title>Node3</title>
<g id="a_node3"><a xlink:href="mix__defs_8h.html" target="_top" xlink:title="mix_defs.h">
<polygon fill="white" stroke="black" points="276,-280.5 276,-299.5 338,-299.5 338,-280.5 276,-280.5"/>
<text text-anchor="middle" x="307" y="-287.5" font-family="FreeSans" font-size="10.00">mix_defs.h</text>
</a>
</g>
</g>
<!-- Node2&#45;&gt;Node3 -->
<g id="edge2" class="edge"><title>Node2&#45;&gt;Node3</title>
<path fill="none" stroke="midnightblue" d="M473.889,-336.933C435.517,-326.372 383.663,-312.1 347.991,-302.282"/>
<polygon fill="midnightblue" stroke="midnightblue" points="348.5,-298.792 337.929,-299.513 346.642,-305.541 348.5,-298.792"/>
</g>
<!-- Node4 -->
<g id="node4" class="node"><title>Node4</title>
<g id="a_node4"><a xlink:href="ThermoPhase_8h.html" target="_top" xlink:title="Header file for class ThermoPhase, the base class for phases with thermodynamic properties, and the text for the Module thermoprops (see Thermodynamic Properties and class ThermoPhase). ">
<polygon fill="white" stroke="black" points="483,-224.5 483,-243.5 567,-243.5 567,-224.5 483,-224.5"/>
<text text-anchor="middle" x="525" y="-231.5" font-family="FreeSans" font-size="10.00">ThermoPhase.h</text>
</a>
</g>
</g>
<!-- Node2&#45;&gt;Node4 -->
<g id="edge3" class="edge"><title>Node2&#45;&gt;Node4</title>
<path fill="none" stroke="midnightblue" d="M525,-336.776C525,-315.971 525,-277.198 525,-253.981"/>
<polygon fill="midnightblue" stroke="midnightblue" points="528.5,-253.707 525,-243.707 521.5,-253.707 528.5,-253.707"/>
</g>
<!-- Node15 -->
<g id="node15" class="node"><title>Node15</title>
<g id="a_node15"><a xlink:href="SpeciesThermo_8h.html" target="_top" xlink:title="Virtual base class for the calculation of multiple&#45;species thermodynamic reference&#45;state property man...">
<polygon fill="white" stroke="black" points="569,-168.5 569,-187.5 661,-187.5 661,-168.5 569,-168.5"/>
<text text-anchor="middle" x="615" y="-175.5" font-family="FreeSans" font-size="10.00">SpeciesThermo.h</text>
</a>
</g>
</g>
<!-- Node2&#45;&gt;Node15 -->
<g id="edge28" class="edge"><title>Node2&#45;&gt;Node15</title>
<path fill="none" stroke="midnightblue" d="M532.365,-336.925C548.649,-305.805 587.685,-231.201 605.656,-196.858"/>
<polygon fill="midnightblue" stroke="midnightblue" points="608.973,-198.068 610.508,-187.585 602.771,-194.822 608.973,-198.068"/>
</g>
<!-- Node16 -->
<g id="node16" class="node"><title>Node16</title>
<g id="a_node16"><a xlink:href="ThermoFactory_8h.html" target="_top" xlink:title="Headers for the factory class that can create known ThermoPhase objects (see Thermodynamic Properties...">
<polygon fill="white" stroke="black" points="355.5,-280.5 355.5,-299.5 444.5,-299.5 444.5,-280.5 355.5,-280.5"/>
<text text-anchor="middle" x="400" y="-287.5" font-family="FreeSans" font-size="10.00">ThermoFactory.h</text>
</a>
</g>
</g>
<!-- Node2&#45;&gt;Node16 -->
<g id="edge19" class="edge"><title>Node2&#45;&gt;Node16</title>
<path fill="none" stroke="midnightblue" d="M495.693,-336.933C474.981,-326.991 447.417,-313.76 427.193,-304.053"/>
<polygon fill="midnightblue" stroke="midnightblue" points="428.447,-300.772 417.917,-299.6 425.417,-307.083 428.447,-300.772"/>
</g>
<!-- Node5 -->
<g id="node5" class="node"><title>Node5</title>
<g id="a_node5"><a xlink:href="Phase_8h.html" target="_top" xlink:title="Header file for class Phase. ">
<polygon fill="white" stroke="black" points="499.5,-168.5 499.5,-187.5 550.5,-187.5 550.5,-168.5 499.5,-168.5"/>
<text text-anchor="middle" x="525" y="-175.5" font-family="FreeSans" font-size="10.00">Phase.h</text>
</a>
</g>
</g>
<!-- Node4&#45;&gt;Node5 -->
<g id="edge4" class="edge"><title>Node4&#45;&gt;Node5</title>
<path fill="none" stroke="midnightblue" d="M525,-224.083C525,-217.006 525,-206.861 525,-197.986"/>
<polygon fill="midnightblue" stroke="midnightblue" points="528.5,-197.751 525,-187.751 521.5,-197.751 528.5,-197.751"/>
</g>
<!-- Node4&#45;&gt;Node15 -->
<g id="edge17" class="edge"><title>Node4&#45;&gt;Node15</title>
<path fill="none" stroke="midnightblue" d="M539.46,-224.324C553.5,-215.9 575.048,-202.971 591.543,-193.074"/>
<polygon fill="midnightblue" stroke="midnightblue" points="593.802,-195.801 600.576,-187.655 590.2,-189.798 593.802,-195.801"/>
</g>
<!-- Node6 -->
<g id="node6" class="node"><title>Node6</title>
<g id="a_node6"><a xlink:href="vec__functions_8h.html" target="_top" xlink:title="Templates for operations on vector&#45;like objects. ">
<polygon fill="white" stroke="red" points="662,-112.5 662,-131.5 804,-131.5 804,-112.5 662,-112.5"/>
<text text-anchor="middle" x="733" y="-119.5" font-family="FreeSans" font-size="10.00">cantera/base/vec_functions.h</text>
</a>
</g>
</g>
<!-- Node5&#45;&gt;Node6 -->
<g id="edge5" class="edge"><title>Node5&#45;&gt;Node6</title>
<path fill="none" stroke="midnightblue" d="M550.505,-170.379C585.354,-161.331 648.315,-144.985 690.393,-134.061"/>
<polygon fill="midnightblue" stroke="midnightblue" points="691.285,-137.446 700.085,-131.545 689.526,-130.671 691.285,-137.446"/>
</g>
<!-- Node11 -->
<g id="node11" class="node"><title>Node11</title>
<g id="a_node11"><a xlink:href="ctml_8h.html" target="_top" xlink:title="CTML (&quot;Cantera Markup Language&quot;) is the variant of XML that Cantera uses to store data...">
<polygon fill="white" stroke="red" points="240.5,-112.5 240.5,-131.5 341.5,-131.5 341.5,-112.5 240.5,-112.5"/>
<text text-anchor="middle" x="291" y="-119.5" font-family="FreeSans" font-size="10.00">cantera/base/ctml.h</text>
</a>
</g>
</g>
<!-- Node5&#45;&gt;Node11 -->
<g id="edge10" class="edge"><title>Node5&#45;&gt;Node11</title>
<path fill="none" stroke="midnightblue" d="M499.407,-170.327C496.243,-169.529 493.049,-168.737 490,-168 439.056,-155.693 380.524,-142.58 340.194,-133.704"/>
<polygon fill="midnightblue" stroke="midnightblue" points="340.866,-130.268 330.348,-131.541 339.364,-137.105 340.866,-130.268"/>
</g>
<!-- Node13 -->
<g id="node13" class="node"><title>Node13</title>
<g id="a_node13"><a xlink:href="Elements_8h.html" target="_top" xlink:title="Contains the LookupWtElements function and the definitions of element constraint types. ">
<polygon fill="white" stroke="black" points="360,-112.5 360,-131.5 492,-131.5 492,-112.5 360,-112.5"/>
<text text-anchor="middle" x="426" y="-119.5" font-family="FreeSans" font-size="10.00">cantera/thermo/Elements.h</text>
</a>
</g>
</g>
<!-- Node5&#45;&gt;Node13 -->
<g id="edge13" class="edge"><title>Node5&#45;&gt;Node13</title>
<path fill="none" stroke="midnightblue" d="M509.094,-168.324C493.362,-159.743 469.058,-146.486 450.791,-136.522"/>
<polygon fill="midnightblue" stroke="midnightblue" points="452.322,-133.37 441.867,-131.655 448.97,-139.516 452.322,-133.37"/>
</g>
<!-- Node14 -->
<g id="node14" class="node"><title>Node14</title>
<g id="a_node14"><a xlink:href="ValueCache_8h.html" target="_top" xlink:title="cantera/base/ValueCache.h">
<polygon fill="white" stroke="red" points="510,-112.5 510,-131.5 644,-131.5 644,-112.5 510,-112.5"/>
<text text-anchor="middle" x="577" y="-119.5" font-family="FreeSans" font-size="10.00">cantera/base/ValueCache.h</text>
</a>
</g>
</g>
<!-- Node5&#45;&gt;Node14 -->
<g id="edge15" class="edge"><title>Node5&#45;&gt;Node14</title>
<path fill="none" stroke="midnightblue" d="M533.587,-168.083C541.159,-160.22 552.378,-148.569 561.514,-139.081"/>
<polygon fill="midnightblue" stroke="midnightblue" points="564.158,-141.382 568.573,-131.751 559.115,-136.527 564.158,-141.382"/>
</g>
<!-- Node7 -->
<g id="node7" class="node"><title>Node7</title>
<g id="a_node7"><a xlink:href="ct__defs_8h.html" target="_top" xlink:title="This file contains definitions of terms that are used in internal routines and are unlikely to need m...">
<polygon fill="white" stroke="red" points="549,-56.5 549,-75.5 605,-75.5 605,-56.5 549,-56.5"/>
<text text-anchor="middle" x="577" y="-63.5" font-family="FreeSans" font-size="10.00">ct_defs.h</text>
</a>
</g>
</g>
<!-- Node6&#45;&gt;Node7 -->
<g id="edge6" class="edge"><title>Node6&#45;&gt;Node7</title>
<path fill="none" stroke="midnightblue" d="M708.281,-112.444C682.152,-103.399 640.741,-89.064 611.424,-78.9158"/>
<polygon fill="midnightblue" stroke="midnightblue" points="612.198,-75.4801 601.603,-75.5164 609.908,-82.0951 612.198,-75.4801"/>
</g>
<!-- Node8 -->
<g id="node8" class="node"><title>Node8</title>
<g id="a_node8"><a xlink:href="config_8h_source.html" target="_top" xlink:title="config.h">
<polygon fill="white" stroke="black" points="374,-0.5 374,-19.5 424,-19.5 424,-0.5 374,-0.5"/>
<text text-anchor="middle" x="399" y="-7.5" font-family="FreeSans" font-size="10.00">config.h</text>
</a>
</g>
</g>
<!-- Node7&#45;&gt;Node8 -->
<g id="edge7" class="edge"><title>Node7&#45;&gt;Node8</title>
<path fill="none" stroke="midnightblue" d="M548.795,-56.4435C517.702,-47.0106 467.644,-31.8245 434.052,-21.6337"/>
<polygon fill="midnightblue" stroke="midnightblue" points="434.78,-18.1972 424.195,-18.6433 432.748,-24.8957 434.78,-18.1972"/>
</g>
<!-- Node9 -->
<g id="node9" class="node"><title>Node9</title>
<polygon fill="white" stroke="#bfbfbf" points="268.5,-0.5 268.5,-19.5 311.5,-19.5 311.5,-0.5 268.5,-0.5"/>
<text text-anchor="middle" x="290" y="-7.5" font-family="FreeSans" font-size="10.00">vector</text>
</g>
<!-- Node7&#45;&gt;Node9 -->
<g id="edge8" class="edge"><title>Node7&#45;&gt;Node9</title>
<path fill="none" stroke="midnightblue" d="M548.959,-59.7239C495.293,-49.6265 378.383,-27.6295 321.861,-16.9947"/>
<polygon fill="midnightblue" stroke="midnightblue" points="322.193,-13.4958 311.718,-15.0863 320.898,-20.3751 322.193,-13.4958"/>
</g>
<!-- Node10 -->
<g id="node10" class="node"><title>Node10</title>
<polygon fill="white" stroke="#bfbfbf" points="657,-0.5 657,-19.5 697,-19.5 697,-0.5 657,-0.5"/>
<text text-anchor="middle" x="677" y="-7.5" font-family="FreeSans" font-size="10.00">string</text>
</g>
<!-- Node7&#45;&gt;Node10 -->
<g id="edge9" class="edge"><title>Node7&#45;&gt;Node10</title>
<path fill="none" stroke="midnightblue" d="M593.067,-56.324C608.958,-47.7428 633.507,-34.486 651.958,-24.5224"/>
<polygon fill="midnightblue" stroke="midnightblue" points="653.837,-27.4857 660.973,-19.6545 650.511,-21.3264 653.837,-27.4857"/>
</g>
<!-- Node11&#45;&gt;Node7 -->
<g id="edge11" class="edge"><title>Node11&#45;&gt;Node7</title>
<path fill="none" stroke="midnightblue" d="M336.318,-112.444C392.282,-101.877 486.483,-84.0907 538.897,-74.1942"/>
<polygon fill="midnightblue" stroke="midnightblue" points="539.623,-77.6192 548.8,-72.3245 538.324,-70.7407 539.623,-77.6192"/>
</g>
<!-- Node12 -->
<g id="node12" class="node"><title>Node12</title>
<g id="a_node12"><a xlink:href="xml_8h.html" target="_top" xlink:title="Classes providing support for XML data files. ">
<polygon fill="white" stroke="red" points="154.5,-56.5 154.5,-75.5 193.5,-75.5 193.5,-56.5 154.5,-56.5"/>
<text text-anchor="middle" x="174" y="-63.5" font-family="FreeSans" font-size="10.00">xml.h</text>
</a>
</g>
</g>
<!-- Node11&#45;&gt;Node12 -->
<g id="edge12" class="edge"><title>Node11&#45;&gt;Node12</title>
<path fill="none" stroke="midnightblue" d="M272.461,-112.444C253.377,-103.636 223.425,-89.8116 201.564,-79.722"/>
<polygon fill="midnightblue" stroke="midnightblue" points="202.999,-76.5292 192.452,-75.5164 200.065,-82.8849 202.999,-76.5292"/>
</g>
<!-- Node13&#45;&gt;Node7 -->
<g id="edge14" class="edge"><title>Node13&#45;&gt;Node7</title>
<path fill="none" stroke="midnightblue" d="M449.926,-112.444C475.219,-103.399 515.302,-89.064 543.68,-78.9158"/>
<polygon fill="midnightblue" stroke="midnightblue" points="544.948,-82.1794 553.186,-75.5164 542.591,-75.5882 544.948,-82.1794"/>
</g>
<!-- Node14&#45;&gt;Node7 -->
<g id="edge16" class="edge"><title>Node14&#45;&gt;Node7</title>
<path fill="none" stroke="midnightblue" d="M577,-112.083C577,-105.006 577,-94.8611 577,-85.9865"/>
<polygon fill="midnightblue" stroke="midnightblue" points="580.5,-85.751 577,-75.7511 573.5,-85.7511 580.5,-85.751"/>
</g>
<!-- Node15&#45;&gt;Node7 -->
<g id="edge18" class="edge"><title>Node15&#45;&gt;Node7</title>
<path fill="none" stroke="midnightblue" d="M661.225,-176.7C732.27,-174.639 855.84,-163.78 813,-112 788.356,-82.2135 675.661,-71.9693 615.353,-68.584"/>
<polygon fill="midnightblue" stroke="midnightblue" points="615.256,-65.0742 605.086,-68.0457 614.889,-72.0646 615.256,-65.0742"/>
</g>
<!-- Node16&#45;&gt;Node4 -->
<g id="edge20" class="edge"><title>Node16&#45;&gt;Node4</title>
<path fill="none" stroke="midnightblue" d="M419.807,-280.444C440.287,-271.596 472.483,-257.687 495.865,-247.586"/>
<polygon fill="midnightblue" stroke="midnightblue" points="497.494,-250.695 505.286,-243.516 494.718,-244.269 497.494,-250.695"/>
</g>
<!-- Node16&#45;&gt;Node12 -->
<g id="edge21" class="edge"><title>Node16&#45;&gt;Node12</title>
<path fill="none" stroke="midnightblue" d="M365.724,-280.461C340.085,-273.15 304.803,-261.078 277,-244 245.918,-224.908 237.01,-218.498 217,-188 195.471,-155.186 183.217,-110.285 177.663,-85.4362"/>
<polygon fill="midnightblue" stroke="midnightblue" points="181.065,-84.6063 175.574,-75.5458 174.217,-86.0534 181.065,-84.6063"/>
</g>
<!-- Node17 -->
<g id="node17" class="node"><title>Node17</title>
<g id="a_node17"><a xlink:href="ct__thread_8h.html" target="_top" xlink:title="cantera/base/ct_thread.h">
<polygon fill="white" stroke="black" points="286.5,-224.5 286.5,-243.5 409.5,-243.5 409.5,-224.5 286.5,-224.5"/>
<text text-anchor="middle" x="348" y="-231.5" font-family="FreeSans" font-size="10.00">cantera/base/ct_thread.h</text>
</a>
</g>
</g>
<!-- Node16&#45;&gt;Node17 -->
<g id="edge22" class="edge"><title>Node16&#45;&gt;Node17</title>
<path fill="none" stroke="midnightblue" d="M391.413,-280.083C383.841,-272.22 372.622,-260.569 363.486,-251.081"/>
<polygon fill="midnightblue" stroke="midnightblue" points="365.885,-248.527 356.427,-243.751 360.842,-253.382 365.885,-248.527"/>
</g>
<!-- Node20 -->
<g id="node20" class="node"><title>Node20</title>
<g id="a_node20"><a xlink:href="FactoryBase_8h.html" target="_top" xlink:title="File contains the FactoryBase class declarations. ">
<polygon fill="white" stroke="black" points="-0.5,-56.5 -0.5,-75.5 136.5,-75.5 136.5,-56.5 -0.5,-56.5"/>
<text text-anchor="middle" x="68" y="-63.5" font-family="FreeSans" font-size="10.00">cantera/base/FactoryBase.h</text>
</a>
</g>
</g>
<!-- Node16&#45;&gt;Node20 -->
<g id="edge26" class="edge"><title>Node16&#45;&gt;Node20</title>
<path fill="none" stroke="midnightblue" d="M362.464,-280.475C323.032,-271.116 264.011,-255.847 244,-244 170.403,-200.429 105.677,-118.838 79.8874,-83.7466"/>
<polygon fill="midnightblue" stroke="midnightblue" points="82.6267,-81.5617 73.9278,-75.5135 76.9563,-85.6663 82.6267,-81.5617"/>
</g>
<!-- Node17&#45;&gt;Node8 -->
<g id="edge23" class="edge"><title>Node17&#45;&gt;Node8</title>
<path fill="none" stroke="midnightblue" d="M288.324,-224.432C266.575,-218.103 244.122,-207.106 231,-188 211.877,-160.157 214.371,-141.401 231,-112 259.42,-61.7541 323.936,-33.7512 364.236,-20.5748"/>
<polygon fill="midnightblue" stroke="midnightblue" points="365.427,-23.8694 373.924,-17.5397 363.335,-17.1895 365.427,-23.8694"/>
</g>
<!-- Node18 -->
<g id="node18" class="node"><title>Node18</title>
<polygon fill="white" stroke="#bfbfbf" points="240,-168.5 240,-187.5 346,-187.5 346,-168.5 240,-168.5"/>
<text text-anchor="middle" x="293" y="-175.5" font-family="FreeSans" font-size="10.00">boost/shared_ptr.hpp</text>
</g>
<!-- Node17&#45;&gt;Node18 -->
<g id="edge24" class="edge"><title>Node17&#45;&gt;Node18</title>
<path fill="none" stroke="midnightblue" d="M338.918,-224.083C330.829,-216.141 318.805,-204.335 309.09,-194.797"/>
<polygon fill="midnightblue" stroke="midnightblue" points="311.501,-192.26 301.913,-187.751 306.597,-197.254 311.501,-192.26"/>
</g>
<!-- Node19 -->
<g id="node19" class="node"><title>Node19</title>
<polygon fill="white" stroke="#bfbfbf" points="364.5,-168.5 364.5,-187.5 481.5,-187.5 481.5,-168.5 364.5,-168.5"/>
<text text-anchor="middle" x="423" y="-175.5" font-family="FreeSans" font-size="10.00">boost/thread/mutex.hpp</text>
</g>
<!-- Node17&#45;&gt;Node19 -->
<g id="edge25" class="edge"><title>Node17&#45;&gt;Node19</title>
<path fill="none" stroke="midnightblue" d="M360.05,-224.324C371.463,-216.107 388.831,-203.602 402.435,-193.807"/>
<polygon fill="midnightblue" stroke="midnightblue" points="404.66,-196.517 410.731,-187.834 400.57,-190.837 404.66,-196.517"/>
</g>
<!-- Node20&#45;&gt;Node9 -->
<g id="edge27" class="edge"><title>Node20&#45;&gt;Node9</title>
<path fill="none" stroke="midnightblue" d="M103.177,-56.4435C146.006,-46.0255 217.686,-28.5899 258.687,-18.6166"/>
<polygon fill="midnightblue" stroke="midnightblue" points="259.525,-22.0151 268.414,-16.2506 257.87,-15.2134 259.525,-22.0151"/>
</g>
<!-- Node21&#45;&gt;Node7 -->
<g id="edge30" class="edge"><title>Node21&#45;&gt;Node7</title>
<path fill="none" stroke="midnightblue" d="M868.175,-112.444C797.564,-101.423 676.639,-82.5507 615.218,-72.9647"/>
<polygon fill="midnightblue" stroke="midnightblue" points="615.597,-69.4816 605.177,-71.3976 614.518,-76.3978 615.597,-69.4816"/>
</g>
<!-- Node21&#45;&gt;Node10 -->
<g id="edge31" class="edge"><title>Node21&#45;&gt;Node10</title>
<path fill="none" stroke="midnightblue" d="M903.697,-112.368C860.585,-93.0908 756.287,-46.4536 705.602,-23.7894"/>
<polygon fill="midnightblue" stroke="midnightblue" points="706.771,-20.4784 696.214,-19.5914 703.914,-26.8686 706.771,-20.4784"/>
</g>
</g>
</svg>
