<?xml version="1.0" encoding="UTF-8" standalone="no"?>
<!DOCTYPE svg PUBLIC "-//W3C//DTD SVG 1.1//EN"
 "http://www.w3.org/Graphics/SVG/1.1/DTD/svg11.dtd">
<!-- Generated by graphviz version 2.38.0 (20140413.2041)
 -->
<!-- Title: IdealSolidSolnPhase.cpp Pages: 1 -->
<svg width="1081pt" height="487pt"
 viewBox="0.00 0.00 1080.50 487.00" xmlns="http://www.w3.org/2000/svg" xmlns:xlink="http://www.w3.org/1999/xlink">
<g id="graph0" class="graph" transform="scale(1 1) rotate(0) translate(4 483)">
<title>IdealSolidSolnPhase.cpp</title>
<polygon fill="white" stroke="none" points="-4,4 -4,-483 1076.5,-483 1076.5,4 -4,4"/>
<!-- Node1 -->
<g id="node1" class="node"><title>Node1</title>
<polygon fill="#bfbfbf" stroke="black" points="679.5,-459.5 679.5,-478.5 804.5,-478.5 804.5,-459.5 679.5,-459.5"/>
<text text-anchor="middle" x="742" y="-466.5" font-family="Helvetica,sans-Serif" font-size="10.00">IdealSolidSolnPhase.cpp</text>
</g>
<!-- Node2 -->
<g id="node2" class="node"><title>Node2</title>
<g id="a_node2"><a xlink:href="IdealSolidSolnPhase_8h.html" target="_top" xlink:title="Header file for an ideal solid solution model with incompressible thermodynamics (see Thermodynamic P...">
<polygon fill="white" stroke="black" points="578,-392.5 578,-422.5 706,-422.5 706,-392.5 578,-392.5"/>
<text text-anchor="start" x="586" y="-410.5" font-family="Helvetica,sans-Serif" font-size="10.00">cantera/thermo/IdealSolid</text>
<text text-anchor="middle" x="642" y="-399.5" font-family="Helvetica,sans-Serif" font-size="10.00">SolnPhase.h</text>
</a>
</g>
</g>
<!-- Node1&#45;&gt;Node2 -->
<g id="edge1" class="edge"><title>Node1&#45;&gt;Node2</title>
<path fill="none" stroke="midnightblue" d="M727.672,-459.475C713.876,-451.266 692.518,-438.558 674.579,-427.885"/>
<polygon fill="midnightblue" stroke="midnightblue" points="675.952,-424.629 665.568,-422.523 672.372,-430.644 675.952,-424.629"/>
</g>
<!-- Node16 -->
<g id="node16" class="node"><title>Node16</title>
<g id="a_node16"><a xlink:href="ThermoFactory_8h.html" target="_top" xlink:title="Headers for the factory class that can create known ThermoPhase objects (see Thermodynamic Properties...">
<polygon fill="white" stroke="black" points="383.5,-398 383.5,-417 542.5,-417 542.5,-398 383.5,-398"/>
<text text-anchor="middle" x="463" y="-405" font-family="Helvetica,sans-Serif" font-size="10.00">cantera/thermo/ThermoFactory.h</text>
</a>
</g>
</g>
<!-- Node1&#45;&gt;Node16 -->
<g id="edge23" class="edge"><title>Node1&#45;&gt;Node16</title>
<path fill="none" stroke="midnightblue" d="M702.026,-459.475C652.2,-448.849 567.026,-430.685 512.95,-419.152"/>
<polygon fill="midnightblue" stroke="midnightblue" points="513.41,-415.672 502.9,-417.009 511.95,-422.518 513.41,-415.672"/>
</g>
<!-- Node21 -->
<g id="node21" class="node"><title>Node21</title>
<g id="a_node21"><a xlink:href="stringUtils_8h.html" target="_top" xlink:title="Contains declarations for string manipulation functions within Cantera. ">
<polygon fill="white" stroke="black" points="944,-168.5 944,-187.5 1072,-187.5 1072,-168.5 944,-168.5"/>
<text text-anchor="middle" x="1008" y="-175.5" font-family="Helvetica,sans-Serif" font-size="10.00">cantera/base/stringUtils.h</text>
</a>
</g>
</g>
<!-- Node1&#45;&gt;Node21 -->
<g id="edge33" class="edge"><title>Node1&#45;&gt;Node21</title>
<path fill="none" stroke="midnightblue" d="M804.766,-459.831C868.541,-447.597 958,-417.815 958,-347 958,-347 958,-347 958,-289 958,-253.184 980.24,-216.214 995.055,-195.56"/>
<polygon fill="midnightblue" stroke="midnightblue" points="997.878,-197.629 1001.05,-187.519 992.265,-193.446 997.878,-197.629"/>
</g>
<!-- Node23 -->
<g id="node23" class="node"><title>Node23</title>
<g id="a_node23"><a xlink:href="ctml_8h.html" target="_top" xlink:title="CTML (&quot;Cantera Markup Language&quot;) is the variant of XML that Cantera uses to store data...">
<polygon fill="white" stroke="black" points="690.5,-280.5 690.5,-299.5 793.5,-299.5 793.5,-280.5 690.5,-280.5"/>
<text text-anchor="middle" x="742" y="-287.5" font-family="Helvetica,sans-Serif" font-size="10.00">cantera/base/ctml.h</text>
</a>
</g>
</g>
<!-- Node1&#45;&gt;Node23 -->
<g id="edge38" class="edge"><title>Node1&#45;&gt;Node23</title>
<path fill="none" stroke="midnightblue" d="M742,-459.463C742,-432.428 742,-348.239 742,-310.109"/>
<polygon fill="midnightblue" stroke="midnightblue" points="745.5,-309.868 742,-299.868 738.5,-309.868 745.5,-309.868"/>
</g>
<!-- Node24 -->
<g id="node24" class="node"><title>Node24</title>
<g id="a_node24"><a xlink:href="utilities_8h.html" target="_top" xlink:title="Various templated functions that carry out common vector operations (see Templated Utility Functions)...">
<polygon fill="white" stroke="black" points="764.5,-224.5 764.5,-243.5 879.5,-243.5 879.5,-224.5 764.5,-224.5"/>
<text text-anchor="middle" x="822" y="-231.5" font-family="Helvetica,sans-Serif" font-size="10.00">cantera/base/utilities.h</text>
</a>
</g>
</g>
<!-- Node1&#45;&gt;Node24 -->
<g id="edge41" class="edge"><title>Node1&#45;&gt;Node24</title>
<path fill="none" stroke="midnightblue" d="M745.261,-459.303C754.515,-434.531 781.592,-361.428 802,-300 807.177,-284.419 812.631,-266.585 816.534,-253.544"/>
<polygon fill="midnightblue" stroke="midnightblue" points="819.914,-254.454 819.407,-243.871 813.204,-252.46 819.914,-254.454"/>
</g>
<!-- Node3 -->
<g id="node3" class="node"><title>Node3</title>
<g id="a_node3"><a xlink:href="ThermoPhase_8h.html" target="_top" xlink:title="Header file for class ThermoPhase, the base class for phases with thermodynamic properties, and the text for the Module thermoprops (see Thermodynamic Properties and class ThermoPhase). ">
<polygon fill="white" stroke="black" points="534,-336.5 534,-355.5 620,-355.5 620,-336.5 534,-336.5"/>
<text text-anchor="middle" x="577" y="-343.5" font-family="Helvetica,sans-Serif" font-size="10.00">ThermoPhase.h</text>
</a>
</g>
</g>
<!-- Node2&#45;&gt;Node3 -->
<g id="edge2" class="edge"><title>Node2&#45;&gt;Node3</title>
<path fill="none" stroke="midnightblue" d="M626.596,-392.399C616.761,-383.397 604.007,-371.721 593.895,-362.465"/>
<polygon fill="midnightblue" stroke="midnightblue" points="596.198,-359.828 586.458,-355.658 591.471,-364.992 596.198,-359.828"/>
</g>
<!-- Node4 -->
<g id="node4" class="node"><title>Node4</title>
<g id="a_node4"><a xlink:href="Phase_8h.html" target="_top" xlink:title="Header file for class Phase. ">
<polygon fill="white" stroke="black" points="304.5,-224.5 304.5,-243.5 357.5,-243.5 357.5,-224.5 304.5,-224.5"/>
<text text-anchor="middle" x="331" y="-231.5" font-family="Helvetica,sans-Serif" font-size="10.00">Phase.h</text>
</a>
</g>
</g>
<!-- Node3&#45;&gt;Node4 -->
<g id="edge3" class="edge"><title>Node3&#45;&gt;Node4</title>
<path fill="none" stroke="midnightblue" d="M564.738,-336.456C545.061,-323.034 504.891,-296.809 468,-280 435.029,-264.977 395.551,-252.558 367.462,-244.6"/>
<polygon fill="midnightblue" stroke="midnightblue" points="368.234,-241.182 357.661,-241.873 366.357,-247.926 368.234,-241.182"/>
</g>
<!-- Node13 -->
<g id="node13" class="node"><title>Node13</title>
<g id="a_node13"><a xlink:href="MultiSpeciesThermo_8h.html" target="_top" xlink:title="Header for a general species thermodynamic property manager for a phase (see MultiSpeciesThermo). ">
<polygon fill="white" stroke="black" points="520,-280.5 520,-299.5 634,-299.5 634,-280.5 520,-280.5"/>
<text text-anchor="middle" x="577" y="-287.5" font-family="Helvetica,sans-Serif" font-size="10.00">MultiSpeciesThermo.h</text>
</a>
</g>
</g>
<!-- Node3&#45;&gt;Node13 -->
<g id="edge15" class="edge"><title>Node3&#45;&gt;Node13</title>
<path fill="none" stroke="midnightblue" d="M577,-336.083C577,-329.006 577,-318.861 577,-309.986"/>
<polygon fill="midnightblue" stroke="midnightblue" points="580.5,-309.751 577,-299.751 573.5,-309.751 580.5,-309.751"/>
</g>
<!-- Node15 -->
<g id="node15" class="node"><title>Node15</title>
<g id="a_node15"><a xlink:href="global_8h.html" target="_top" xlink:title="This file contains definitions for utility functions and text for modules, inputfiles, logs, textlogs, (see Input File Handling, Diagnostic Output, and Writing messages to the screen). ">
<polygon fill="white" stroke="black" points="592,-168.5 592,-187.5 702,-187.5 702,-168.5 592,-168.5"/>
<text text-anchor="middle" x="647" y="-175.5" font-family="Helvetica,sans-Serif" font-size="10.00">cantera/base/global.h</text>
</a>
</g>
</g>
<!-- Node3&#45;&gt;Node15 -->
<g id="edge22" class="edge"><title>Node3&#45;&gt;Node15</title>
<path fill="none" stroke="midnightblue" d="M598.963,-336.443C614.243,-329.215 633.512,-317.257 643,-300 660.827,-267.577 656.028,-222.529 651.291,-197.551"/>
<polygon fill="midnightblue" stroke="midnightblue" points="654.682,-196.67 649.2,-187.604 647.832,-198.11 654.682,-196.67"/>
</g>
<!-- Node5 -->
<g id="node5" class="node"><title>Node5</title>
<g id="a_node5"><a xlink:href="ctexceptions_8h.html" target="_top" xlink:title="Definitions for the classes that are thrown when Cantera experiences an error condition (also contain...">
<polygon fill="white" stroke="red" points="381,-168.5 381,-187.5 521,-187.5 521,-168.5 381,-168.5"/>
<text text-anchor="middle" x="451" y="-175.5" font-family="Helvetica,sans-Serif" font-size="10.00">cantera/base/ctexceptions.h</text>
</a>
</g>
</g>
<!-- Node4&#45;&gt;Node5 -->
<g id="edge4" class="edge"><title>Node4&#45;&gt;Node5</title>
<path fill="none" stroke="midnightblue" d="M350.014,-224.444C369.588,-215.636 400.308,-201.812 422.729,-191.722"/>
<polygon fill="midnightblue" stroke="midnightblue" points="424.392,-194.812 432.075,-187.516 421.519,-188.428 424.392,-194.812"/>
</g>
<!-- Node10 -->
<g id="node10" class="node"><title>Node10</title>
<g id="a_node10"><a xlink:href="Elements_8h.html" target="_top" xlink:title="Contains the getElementWeight function and the definitions of element constraint types. ">
<polygon fill="white" stroke="black" points="402,-112.5 402,-131.5 536,-131.5 536,-112.5 402,-112.5"/>
<text text-anchor="middle" x="469" y="-119.5" font-family="Helvetica,sans-Serif" font-size="10.00">cantera/thermo/Elements.h</text>
</a>
</g>
</g>
<!-- Node4&#45;&gt;Node10 -->
<g id="edge9" class="edge"><title>Node4&#45;&gt;Node10</title>
<path fill="none" stroke="midnightblue" d="M334.53,-224.314C340.449,-210.697 353.563,-184.21 372,-168 388.74,-153.282 411.116,-142.471 430.158,-135.14"/>
<polygon fill="midnightblue" stroke="midnightblue" points="431.578,-138.347 439.764,-131.621 429.17,-131.774 431.578,-138.347"/>
</g>
<!-- Node11 -->
<g id="node11" class="node"><title>Node11</title>
<g id="a_node11"><a xlink:href="Species_8h.html" target="_top" xlink:title="Declaration for class Cantera::Species. ">
<polygon fill="white" stroke="black" points="100,-112.5 100,-131.5 228,-131.5 228,-112.5 100,-112.5"/>
<text text-anchor="middle" x="164" y="-119.5" font-family="Helvetica,sans-Serif" font-size="10.00">cantera/thermo/Species.h</text>
</a>
</g>
</g>
<!-- Node4&#45;&gt;Node11 -->
<g id="edge11" class="edge"><title>Node4&#45;&gt;Node11</title>
<path fill="none" stroke="midnightblue" d="M317.896,-224.368C289.239,-205.492 220.757,-160.385 185.614,-137.237"/>
<polygon fill="midnightblue" stroke="midnightblue" points="187.32,-134.169 177.043,-131.591 183.469,-140.015 187.32,-134.169"/>
</g>
<!-- Node12 -->
<g id="node12" class="node"><title>Node12</title>
<g id="a_node12"><a xlink:href="ValueCache_8h.html" target="_top" xlink:title="cantera/base/ValueCache.h">
<polygon fill="white" stroke="red" points="246.5,-112.5 246.5,-131.5 383.5,-131.5 383.5,-112.5 246.5,-112.5"/>
<text text-anchor="middle" x="315" y="-119.5" font-family="Helvetica,sans-Serif" font-size="10.00">cantera/base/ValueCache.h</text>
</a>
</g>
</g>
<!-- Node4&#45;&gt;Node12 -->
<g id="edge13" class="edge"><title>Node4&#45;&gt;Node12</title>
<path fill="none" stroke="midnightblue" d="M329.745,-224.368C327.162,-206.617 321.206,-165.666 317.705,-141.597"/>
<polygon fill="midnightblue" stroke="midnightblue" points="321.153,-140.983 316.25,-131.591 314.226,-141.991 321.153,-140.983"/>
</g>
<!-- Node6 -->
<g id="node6" class="node"><title>Node6</title>
<g id="a_node6"><a xlink:href="fmt_8h.html" target="_top" xlink:title="Wrapper for either system&#45;installed or local headers for fmt. ">
<polygon fill="white" stroke="red" points="630,-112.5 630,-131.5 728,-131.5 728,-112.5 630,-112.5"/>
<text text-anchor="middle" x="679" y="-119.5" font-family="Helvetica,sans-Serif" font-size="10.00">cantera/base/fmt.h</text>
</a>
</g>
</g>
<!-- Node5&#45;&gt;Node6 -->
<g id="edge5" class="edge"><title>Node5&#45;&gt;Node6</title>
<path fill="none" stroke="midnightblue" d="M487.127,-168.444C526.651,-159.083 590.097,-144.056 633.113,-133.868"/>
<polygon fill="midnightblue" stroke="midnightblue" points="634.118,-137.227 643.042,-131.516 632.504,-130.415 634.118,-137.227"/>
</g>
<!-- Node7 -->
<g id="node7" class="node"><title>Node7</title>
<g id="a_node7"><a xlink:href="ct__defs_8h.html" target="_top" xlink:title="This file contains definitions of terms that are used in internal routines and are unlikely to need m...">
<polygon fill="white" stroke="red" points="573.5,-56.5 573.5,-75.5 630.5,-75.5 630.5,-56.5 573.5,-56.5"/>
<text text-anchor="middle" x="602" y="-63.5" font-family="Helvetica,sans-Serif" font-size="10.00">ct_defs.h</text>
</a>
</g>
</g>
<!-- Node6&#45;&gt;Node7 -->
<g id="edge6" class="edge"><title>Node6&#45;&gt;Node7</title>
<path fill="none" stroke="midnightblue" d="M666.629,-112.324C654.842,-104.058 636.868,-91.4527 622.864,-81.6322"/>
<polygon fill="midnightblue" stroke="midnightblue" points="624.538,-78.5307 614.341,-75.6545 620.518,-84.2619 624.538,-78.5307"/>
</g>
<!-- Node8 -->
<g id="node8" class="node"><title>Node8</title>
<polygon fill="white" stroke="#bfbfbf" points="300,-0.5 300,-19.5 344,-19.5 344,-0.5 300,-0.5"/>
<text text-anchor="middle" x="322" y="-7.5" font-family="Helvetica,sans-Serif" font-size="10.00">vector</text>
</g>
<!-- Node7&#45;&gt;Node8 -->
<g id="edge7" class="edge"><title>Node7&#45;&gt;Node8</title>
<path fill="none" stroke="midnightblue" d="M573.351,-59.4748C520.713,-49.3232 408.973,-27.7734 353.96,-17.1638"/>
<polygon fill="midnightblue" stroke="midnightblue" points="354.543,-13.7118 344.062,-15.2547 353.218,-20.5851 354.543,-13.7118"/>
</g>
<!-- Node9 -->
<g id="node9" class="node"><title>Node9</title>
<polygon fill="white" stroke="#bfbfbf" points="611.5,-0.5 611.5,-19.5 652.5,-19.5 652.5,-0.5 611.5,-0.5"/>
<text text-anchor="middle" x="632" y="-7.5" font-family="Helvetica,sans-Serif" font-size="10.00">string</text>
</g>
<!-- Node7&#45;&gt;Node9 -->
<g id="edge8" class="edge"><title>Node7&#45;&gt;Node9</title>
<path fill="none" stroke="midnightblue" d="M606.954,-56.083C611.104,-48.6127 617.153,-37.7244 622.267,-28.5199"/>
<polygon fill="midnightblue" stroke="midnightblue" points="625.341,-30.1924 627.138,-19.7511 619.222,-26.7929 625.341,-30.1924"/>
</g>
<!-- Node10&#45;&gt;Node7 -->
<g id="edge10" class="edge"><title>Node10&#45;&gt;Node7</title>
<path fill="none" stroke="midnightblue" d="M490.074,-112.444C512.06,-103.517 546.734,-89.4387 571.664,-79.3168"/>
<polygon fill="midnightblue" stroke="midnightblue" points="573.076,-82.5213 581.024,-75.5164 570.442,-76.0355 573.076,-82.5213"/>
</g>
<!-- Node11&#45;&gt;Node7 -->
<g id="edge12" class="edge"><title>Node11&#45;&gt;Node7</title>
<path fill="none" stroke="midnightblue" d="M228.158,-113.09C320.523,-101.703 488.122,-81.0397 563.479,-71.7492"/>
<polygon fill="midnightblue" stroke="midnightblue" points="563.986,-75.2132 573.483,-70.5158 563.129,-68.2658 563.986,-75.2132"/>
</g>
<!-- Node12&#45;&gt;Node7 -->
<g id="edge14" class="edge"><title>Node12&#45;&gt;Node7</title>
<path fill="none" stroke="midnightblue" d="M360.476,-112.444C416.488,-101.905 510.667,-84.1845 563.347,-74.2727"/>
<polygon fill="midnightblue" stroke="midnightblue" points="564.126,-77.6877 573.306,-72.3989 562.831,-70.8084 564.126,-77.6877"/>
</g>
<!-- Node14 -->
<g id="node14" class="node"><title>Node14</title>
<g id="a_node14"><a xlink:href="SpeciesThermoInterpType_8h.html" target="_top" xlink:title="Pure Virtual Base class for individual species reference state thermodynamic managers and text for th...">
<polygon fill="white" stroke="red" points="494,-224.5 494,-243.5 634,-243.5 634,-224.5 494,-224.5"/>
<text text-anchor="middle" x="564" y="-231.5" font-family="Helvetica,sans-Serif" font-size="10.00">SpeciesThermoInterpType.h</text>
</a>
</g>
</g>
<!-- Node13&#45;&gt;Node14 -->
<g id="edge16" class="edge"><title>Node13&#45;&gt;Node14</title>
<path fill="none" stroke="midnightblue" d="M574.853,-280.083C573.131,-272.927 570.653,-262.635 568.5,-253.691"/>
<polygon fill="midnightblue" stroke="midnightblue" points="571.85,-252.654 566.107,-243.751 565.045,-254.293 571.85,-252.654"/>
</g>
<!-- Node14&#45;&gt;Node5 -->
<g id="edge18" class="edge"><title>Node14&#45;&gt;Node5</title>
<path fill="none" stroke="midnightblue" d="M546.095,-224.444C527.746,-215.675 498.995,-201.935 477.906,-191.858"/>
<polygon fill="midnightblue" stroke="midnightblue" points="479.353,-188.67 468.821,-187.516 476.335,-194.986 479.353,-188.67"/>
</g>
<!-- Node14&#45;&gt;Node7 -->
<g id="edge17" class="edge"><title>Node14&#45;&gt;Node7</title>
<path fill="none" stroke="midnightblue" d="M566.043,-224.075C572.025,-197.945 589.59,-121.211 597.747,-85.577"/>
<polygon fill="midnightblue" stroke="midnightblue" points="601.219,-86.097 600.039,-75.5681 594.395,-84.5349 601.219,-86.097"/>
</g>
<!-- Node14&#45;&gt;Node15 -->
<g id="edge19" class="edge"><title>Node14&#45;&gt;Node15</title>
<path fill="none" stroke="midnightblue" d="M577.335,-224.324C590.162,-215.979 609.785,-203.212 624.94,-193.352"/>
<polygon fill="midnightblue" stroke="midnightblue" points="627.224,-196.042 633.698,-187.655 623.407,-190.174 627.224,-196.042"/>
</g>
<!-- Node15&#45;&gt;Node6 -->
<g id="edge21" class="edge"><title>Node15&#45;&gt;Node6</title>
<path fill="none" stroke="midnightblue" d="M652.284,-168.083C656.711,-160.613 663.163,-149.724 668.618,-140.52"/>
<polygon fill="midnightblue" stroke="midnightblue" points="671.727,-142.138 673.814,-131.751 665.705,-138.57 671.727,-142.138"/>
</g>
<!-- Node15&#45;&gt;Node7 -->
<g id="edge20" class="edge"><title>Node15&#45;&gt;Node7</title>
<path fill="none" stroke="midnightblue" d="M641.168,-168.361C635.414,-159.533 626.677,-145.273 621,-132 614.498,-116.799 609.407,-98.6845 606.137,-85.4444"/>
<polygon fill="midnightblue" stroke="midnightblue" points="609.528,-84.5719 603.829,-75.6402 602.714,-86.1762 609.528,-84.5719"/>
</g>
<!-- Node16&#45;&gt;Node3 -->
<g id="edge24" class="edge"><title>Node16&#45;&gt;Node3</title>
<path fill="none" stroke="midnightblue" d="M479.333,-397.975C498.211,-388.122 529.507,-371.788 551.576,-360.27"/>
<polygon fill="midnightblue" stroke="midnightblue" points="553.451,-363.239 560.697,-355.509 550.212,-357.033 553.451,-363.239"/>
</g>
<!-- Node17 -->
<g id="node17" class="node"><title>Node17</title>
<g id="a_node17"><a xlink:href="xml_8h.html" target="_top" xlink:title="Classes providing support for XML data files. ">
<polygon fill="white" stroke="black" points="376,-224.5 376,-243.5 476,-243.5 476,-224.5 376,-224.5"/>
<text text-anchor="middle" x="426" y="-231.5" font-family="Helvetica,sans-Serif" font-size="10.00">cantera/base/xml.h</text>
</a>
</g>
</g>
<!-- Node16&#45;&gt;Node17 -->
<g id="edge25" class="edge"><title>Node16&#45;&gt;Node17</title>
<path fill="none" stroke="midnightblue" d="M461.114,-397.76C455.349,-371.036 437.87,-290.017 429.961,-253.362"/>
<polygon fill="midnightblue" stroke="midnightblue" points="433.368,-252.556 427.838,-243.519 426.526,-254.033 433.368,-252.556"/>
</g>
<!-- Node18 -->
<g id="node18" class="node"><title>Node18</title>
<g id="a_node18"><a xlink:href="FactoryBase_8h.html" target="_top" xlink:title="File contains the FactoryBase class declarations. ">
<polygon fill="white" stroke="black" points="89,-224.5 89,-243.5 229,-243.5 229,-224.5 89,-224.5"/>
<text text-anchor="middle" x="159" y="-231.5" font-family="Helvetica,sans-Serif" font-size="10.00">cantera/base/FactoryBase.h</text>
</a>
</g>
</g>
<!-- Node16&#45;&gt;Node18 -->
<g id="edge28" class="edge"><title>Node16&#45;&gt;Node18</title>
<path fill="none" stroke="midnightblue" d="M447.925,-397.995C398.796,-370.28 243.033,-282.407 182.956,-248.515"/>
<polygon fill="midnightblue" stroke="midnightblue" points="184.596,-245.421 174.166,-243.556 181.156,-251.518 184.596,-245.421"/>
</g>
<!-- Node17&#45;&gt;Node5 -->
<g id="edge26" class="edge"><title>Node17&#45;&gt;Node5</title>
<path fill="none" stroke="midnightblue" d="M430.128,-224.083C433.514,-216.77 438.416,-206.181 442.619,-197.103"/>
<polygon fill="midnightblue" stroke="midnightblue" points="445.923,-198.296 446.949,-187.751 439.571,-195.355 445.923,-198.296"/>
</g>
<!-- Node17&#45;&gt;Node15 -->
<g id="edge27" class="edge"><title>Node17&#45;&gt;Node15</title>
<path fill="none" stroke="midnightblue" d="M461.018,-224.444C499.248,-215.102 560.567,-200.119 602.257,-189.933"/>
<polygon fill="midnightblue" stroke="midnightblue" points="603.262,-193.29 612.146,-187.516 601.601,-186.49 603.262,-193.29"/>
</g>
<!-- Node18&#45;&gt;Node5 -->
<g id="edge32" class="edge"><title>Node18&#45;&gt;Node5</title>
<path fill="none" stroke="midnightblue" d="M205.268,-224.444C256.741,-214.925 339.893,-199.547 394.999,-189.356"/>
<polygon fill="midnightblue" stroke="midnightblue" points="395.751,-192.777 404.948,-187.516 394.478,-185.893 395.751,-192.777"/>
</g>
<!-- Node18&#45;&gt;Node8 -->
<g id="edge29" class="edge"><title>Node18&#45;&gt;Node8</title>
<path fill="none" stroke="midnightblue" d="M145.393,-224.229C133.865,-216.132 117.705,-203.098 108,-188 89.2849,-158.884 72.0516,-140.965 91,-112 135.61,-43.8072 237.507,-21.3828 289.774,-14.2232"/>
<polygon fill="midnightblue" stroke="midnightblue" points="290.354,-17.6779 299.836,-12.9508 289.475,-10.7332 290.354,-17.6779"/>
</g>
<!-- Node19 -->
<g id="node19" class="node"><title>Node19</title>
<polygon fill="white" stroke="#bfbfbf" points="0,-168.5 0,-187.5 44,-187.5 44,-168.5 0,-168.5"/>
<text text-anchor="middle" x="22" y="-175.5" font-family="Helvetica,sans-Serif" font-size="10.00">mutex</text>
</g>
<!-- Node18&#45;&gt;Node19 -->
<g id="edge30" class="edge"><title>Node18&#45;&gt;Node19</title>
<path fill="none" stroke="midnightblue" d="M137.292,-224.444C114.645,-215.517 78.9279,-201.439 53.2482,-191.317"/>
<polygon fill="midnightblue" stroke="midnightblue" points="54.1934,-187.927 43.6065,-187.516 51.6264,-194.44 54.1934,-187.927"/>
</g>
<!-- Node20 -->
<g id="node20" class="node"><title>Node20</title>
<polygon fill="white" stroke="#bfbfbf" points="117.5,-168.5 117.5,-187.5 200.5,-187.5 200.5,-168.5 117.5,-168.5"/>
<text text-anchor="middle" x="159" y="-175.5" font-family="Helvetica,sans-Serif" font-size="10.00">unordered_map</text>
</g>
<!-- Node18&#45;&gt;Node20 -->
<g id="edge31" class="edge"><title>Node18&#45;&gt;Node20</title>
<path fill="none" stroke="midnightblue" d="M159,-224.083C159,-217.006 159,-206.861 159,-197.986"/>
<polygon fill="midnightblue" stroke="midnightblue" points="162.5,-197.751 159,-187.751 155.5,-197.751 162.5,-197.751"/>
</g>
<!-- Node21&#45;&gt;Node6 -->
<g id="edge35" class="edge"><title>Node21&#45;&gt;Node6</title>
<path fill="none" stroke="midnightblue" d="M955.869,-168.444C896.655,-158.725 800.231,-142.898 738.224,-132.721"/>
<polygon fill="midnightblue" stroke="midnightblue" points="738.635,-129.241 728.2,-131.075 737.501,-136.149 738.635,-129.241"/>
</g>
<!-- Node21&#45;&gt;Node7 -->
<g id="edge34" class="edge"><title>Node21&#45;&gt;Node7</title>
<path fill="none" stroke="midnightblue" d="M987.301,-168.374C944.899,-150.702 852.109,-112.032 852,-112 778.738,-90.4213 690.188,-77.4444 640.562,-71.3065"/>
<polygon fill="midnightblue" stroke="midnightblue" points="640.931,-67.8256 630.583,-70.0999 640.091,-74.775 640.931,-67.8256"/>
</g>
<!-- Node21&#45;&gt;Node9 -->
<g id="edge37" class="edge"><title>Node21&#45;&gt;Node9</title>
<path fill="none" stroke="midnightblue" d="M993.783,-168.375C971.924,-155.298 928.543,-130.066 890,-112 809.692,-74.358 711.227,-38.5443 662.421,-21.4526"/>
<polygon fill="midnightblue" stroke="midnightblue" points="663.379,-18.0802 652.785,-18.0956 661.077,-24.6906 663.379,-18.0802"/>
</g>
<!-- Node22 -->
<g id="node22" class="node"><title>Node22</title>
<polygon fill="white" stroke="#bfbfbf" points="943.5,-112.5 943.5,-131.5 1072.5,-131.5 1072.5,-112.5 943.5,-112.5"/>
<text text-anchor="middle" x="1008" y="-119.5" font-family="Helvetica,sans-Serif" font-size="10.00">boost/algorithm/string.hpp</text>
</g>
<!-- Node21&#45;&gt;Node22 -->
<g id="edge36" class="edge"><title>Node21&#45;&gt;Node22</title>
<path fill="none" stroke="midnightblue" d="M1008,-168.083C1008,-161.006 1008,-150.861 1008,-141.986"/>
<polygon fill="midnightblue" stroke="midnightblue" points="1011.5,-141.751 1008,-131.751 1004.5,-141.751 1011.5,-141.751"/>
</g>
<!-- Node23&#45;&gt;Node7 -->
<g id="edge39" class="edge"><title>Node23&#45;&gt;Node7</title>
<path fill="none" stroke="midnightblue" d="M743.023,-280.236C746.556,-248.34 756.974,-138.904 737,-112 714.904,-82.2382 672.336,-71.9051 640.882,-68.4499"/>
<polygon fill="midnightblue" stroke="midnightblue" points="640.963,-64.9429 630.687,-67.5237 640.33,-71.9142 640.963,-64.9429"/>
</g>
<!-- Node23&#45;&gt;Node17 -->
<g id="edge40" class="edge"><title>Node23&#45;&gt;Node17</title>
<path fill="none" stroke="midnightblue" d="M691.929,-280.444C635.994,-270.885 545.492,-255.419 485.863,-245.23"/>
<polygon fill="midnightblue" stroke="midnightblue" points="486.284,-241.751 475.837,-243.516 485.104,-248.651 486.284,-241.751"/>
</g>
<!-- Node24&#45;&gt;Node7 -->
<g id="edge42" class="edge"><title>Node24&#45;&gt;Node7</title>
<path fill="none" stroke="midnightblue" d="M823.173,-224.202C824.516,-211.334 825.644,-186.861 818,-168 805.688,-137.62 797.74,-129.467 770,-112 730.116,-86.8868 676.411,-75.6684 640.567,-70.7371"/>
<polygon fill="midnightblue" stroke="midnightblue" points="640.868,-67.2471 630.505,-69.4532 639.982,-74.1908 640.868,-67.2471"/>
</g>
<!-- Node24&#45;&gt;Node15 -->
<g id="edge43" class="edge"><title>Node24&#45;&gt;Node15</title>
<path fill="none" stroke="midnightblue" d="M794.271,-224.444C764.574,-215.28 717.284,-200.688 684.331,-190.519"/>
<polygon fill="midnightblue" stroke="midnightblue" points="685.187,-187.121 674.6,-187.516 683.123,-193.809 685.187,-187.121"/>
</g>
<!-- Node25 -->
<g id="node25" class="node"><title>Node25</title>
<polygon fill="white" stroke="#bfbfbf" points="866.5,-168.5 866.5,-187.5 925.5,-187.5 925.5,-168.5 866.5,-168.5"/>
<text text-anchor="middle" x="896" y="-175.5" font-family="Helvetica,sans-Serif" font-size="10.00">stdexcept</text>
</g>
<!-- Node24&#45;&gt;Node25 -->
<g id="edge44" class="edge"><title>Node24&#45;&gt;Node25</title>
<path fill="none" stroke="midnightblue" d="M833.889,-224.324C845.15,-216.107 862.287,-203.602 875.709,-193.807"/>
<polygon fill="midnightblue" stroke="midnightblue" points="877.88,-196.556 883.894,-187.834 873.753,-190.901 877.88,-196.556"/>
</g>
<!-- Node26 -->
<g id="node26" class="node"><title>Node26</title>
<polygon fill="white" stroke="#bfbfbf" points="758.5,-168.5 758.5,-187.5 809.5,-187.5 809.5,-168.5 758.5,-168.5"/>
<text text-anchor="middle" x="784" y="-175.5" font-family="Helvetica,sans-Serif" font-size="10.00">numeric</text>
</g>
<!-- Node24&#45;&gt;Node26 -->
<g id="edge45" class="edge"><title>Node24&#45;&gt;Node26</title>
<path fill="none" stroke="midnightblue" d="M815.725,-224.083C810.358,-216.455 802.482,-205.264 795.921,-195.941"/>
<polygon fill="midnightblue" stroke="midnightblue" points="798.775,-193.915 790.158,-187.751 793.051,-197.943 798.775,-193.915"/>
</g>
</g>
</svg>
