<?xml version="1.0" encoding="UTF-8" standalone="no"?>
<!DOCTYPE svg PUBLIC "-//W3C//DTD SVG 1.1//EN"
 "http://www.w3.org/Graphics/SVG/1.1/DTD/svg11.dtd">
<!-- Generated by graphviz version 2.26.3 (20100126.1600)
 -->
<!-- Title: ImplicitSurfChem.cpp Pages: 1 -->
<svg width="1085pt" height="530pt"
 viewBox="0.00 0.00 1084.64 530.00" xmlns="http://www.w3.org/2000/svg" xmlns:xlink="http://www.w3.org/1999/xlink">
<g id="graph1" class="graph" transform="scale(1 1) rotate(0) translate(4 526)">
<title>ImplicitSurfChem.cpp</title>
<polygon fill="white" stroke="white" points="-4,5 -4,-526 1081.64,-526 1081.64,5 -4,5"/>
<!-- Node1 -->
<g id="node1" class="node"><title>Node1</title>
<polygon fill="#bfbfbf" stroke="black" points="696,-501 696,-521 806,-521 806,-501 696,-501"/>
<text text-anchor="middle" x="751" y="-508" font-family="FreeSans" font-size="10.00">ImplicitSurfChem.cpp</text>
</g>
<!-- Node2 -->
<g id="node3" class="node"><title>Node2</title>
<a xlink:href="ImplicitSurfChem_8h.html" target="_top" xlink:title="Declarations for the implicit integration of surface site density equations (see Kinetics Managers an...">
<polygon fill="white" stroke="black" points="691.5,-431 691.5,-463 810.5,-463 810.5,-431 691.5,-431"/>
<text text-anchor="start" x="699.5" y="-450" font-family="FreeSans" font-size="10.00">cantera/kinetics/Implicit</text>
<text text-anchor="middle" x="751" y="-438" font-family="FreeSans" font-size="10.00">SurfChem.h</text>
</a>
</g>
<!-- Node1&#45;&gt;Node2 -->
<g id="edge2" class="edge"><title>Node1&#45;&gt;Node2</title>
<path fill="none" stroke="midnightblue" d="M751,-500.717C751,-493.244 751,-482.779 751,-473.068"/>
<polygon fill="midnightblue" stroke="midnightblue" points="754.5,-473.005 751,-463.005 747.5,-473.005 754.5,-473.005"/>
</g>
<!-- Node11 -->
<g id="node21" class="node"><title>Node11</title>
<a xlink:href="Integrator_8h.html" target="_top" xlink:title="cantera/numerics/Integrator.h">
<polygon fill="white" stroke="black" points="818.5,-373 818.5,-393 961.5,-393 961.5,-373 818.5,-373"/>
<text text-anchor="middle" x="890" y="-380" font-family="FreeSans" font-size="10.00">cantera/numerics/Integrator.h</text>
</a>
</g>
<!-- Node1&#45;&gt;Node11 -->
<g id="edge100" class="edge"><title>Node1&#45;&gt;Node11</title>
<path fill="none" stroke="midnightblue" d="M768.055,-500.865C782.346,-491.997 802.929,-478.322 819,-464 840.874,-444.505 862.57,-418.53 876.111,-401.311"/>
<polygon fill="midnightblue" stroke="midnightblue" points="879.049,-403.234 882.406,-393.185 873.515,-398.947 879.049,-403.234"/>
</g>
<!-- Node25 -->
<g id="node66" class="node"><title>Node25</title>
<a xlink:href="solveSP_8h.html" target="_top" xlink:title="Header file for implicit surface problem solver (see Chemical Kinetics and class solveSP). ">
<polygon fill="white" stroke="black" points="628.5,-373 628.5,-393 687.5,-393 687.5,-373 628.5,-373"/>
<text text-anchor="middle" x="658" y="-380" font-family="FreeSans" font-size="10.00">solveSP.h</text>
</a>
</g>
<!-- Node1&#45;&gt;Node25 -->
<g id="edge102" class="edge"><title>Node1&#45;&gt;Node25</title>
<path fill="none" stroke="midnightblue" d="M729.406,-500.947C714.379,-492.919 694.965,-480.318 683,-464 669.793,-445.989 663.459,-420.867 660.49,-403.395"/>
<polygon fill="midnightblue" stroke="midnightblue" points="663.905,-402.553 658.987,-393.169 656.979,-403.572 663.905,-402.553"/>
</g>
<!-- Node3 -->
<g id="node5" class="node"><title>Node3</title>
<a xlink:href="FuncEval_8h.html" target="_top" xlink:title="cantera/numerics/FuncEval.h">
<polygon fill="white" stroke="black" points="780.5,-309 780.5,-329 921.5,-329 921.5,-309 780.5,-309"/>
<text text-anchor="middle" x="851" y="-316" font-family="FreeSans" font-size="10.00">cantera/numerics/FuncEval.h</text>
</a>
</g>
<!-- Node2&#45;&gt;Node3 -->
<g id="edge4" class="edge"><title>Node2&#45;&gt;Node3</title>
<path fill="none" stroke="midnightblue" d="M763.665,-430.789C782.376,-406.838 817.294,-362.144 836.832,-337.135"/>
<polygon fill="midnightblue" stroke="midnightblue" points="839.652,-339.211 843.05,-329.176 834.135,-334.902 839.652,-339.211"/>
</g>
<!-- Node2&#45;&gt;Node11 -->
<g id="edge20" class="edge"><title>Node2&#45;&gt;Node11</title>
<path fill="none" stroke="midnightblue" d="M786.076,-430.85C808.394,-420.574 837.048,-407.381 858.613,-397.451"/>
<polygon fill="midnightblue" stroke="midnightblue" points="860.355,-400.503 867.975,-393.141 857.428,-394.144 860.355,-400.503"/>
</g>
<!-- Node13 -->
<g id="node28" class="node"><title>Node13</title>
<a xlink:href="InterfaceKinetics_8h.html" target="_top" xlink:title="cantera/kinetics/Interface\lKinetics.h">
<polygon fill="white" stroke="black" points="595,-303 595,-335 721,-335 721,-303 595,-303"/>
<text text-anchor="start" x="603" y="-322" font-family="FreeSans" font-size="10.00">cantera/kinetics/Interface</text>
<text text-anchor="middle" x="658" y="-310" font-family="FreeSans" font-size="10.00">Kinetics.h</text>
</a>
</g>
<!-- Node2&#45;&gt;Node13 -->
<g id="edge30" class="edge"><title>Node2&#45;&gt;Node13</title>
<path fill="none" stroke="midnightblue" d="M739.221,-430.789C723.149,-408.668 694.22,-368.851 675.577,-343.192"/>
<polygon fill="midnightblue" stroke="midnightblue" points="678.392,-341.112 669.683,-335.08 672.729,-345.227 678.392,-341.112"/>
</g>
<!-- Node24 -->
<g id="node62" class="node"><title>Node24</title>
<a xlink:href="SurfPhase_8h.html" target="_top" xlink:title="Header for a simple thermodynamics model of a surface phase derived from ThermoPhase, assuming an ideal solution model (see Thermodynamic Properties and class SurfPhase). ">
<polygon fill="white" stroke="black" points="755.5,-245 755.5,-265 892.5,-265 892.5,-245 755.5,-245"/>
<text text-anchor="middle" x="824" y="-252" font-family="FreeSans" font-size="10.00">cantera/thermo/SurfPhase.h</text>
</a>
</g>
<!-- Node2&#45;&gt;Node24 -->
<g id="edge76" class="edge"><title>Node2&#45;&gt;Node24</title>
<path fill="none" stroke="midnightblue" d="M749.896,-430.675C748.722,-402.617 749.501,-344.197 772,-302 778.441,-289.92 789.263,-279.38 799.372,-271.36"/>
<polygon fill="midnightblue" stroke="midnightblue" points="801.659,-274.021 807.584,-265.238 797.475,-268.409 801.659,-274.021"/>
</g>
<!-- Node2&#45;&gt;Node25 -->
<g id="edge82" class="edge"><title>Node2&#45;&gt;Node25</title>
<path fill="none" stroke="midnightblue" d="M721.58,-430.85C706.534,-421.222 688.814,-409.033 675.808,-399.367"/>
<polygon fill="midnightblue" stroke="midnightblue" points="677.721,-396.424 667.647,-393.141 673.474,-401.989 677.721,-396.424"/>
</g>
<!-- Node4 -->
<g id="node7" class="node"><title>Node4</title>
<a xlink:href="ct__defs_8h.html" target="_top" xlink:title="This file contains definitions of terms that are used in internal routines and are unlikely to need m...">
<polygon fill="white" stroke="black" points="481,-59 481,-79 595,-79 595,-59 481,-59"/>
<text text-anchor="middle" x="538" y="-66" font-family="FreeSans" font-size="10.00">cantera/base/ct_defs.h</text>
</a>
</g>
<!-- Node3&#45;&gt;Node4 -->
<g id="edge6" class="edge"><title>Node3&#45;&gt;Node4</title>
<path fill="none" stroke="midnightblue" d="M870.302,-308.856C912.679,-285.292 1007,-224.976 967,-174 922.804,-117.682 714.842,-87.6584 605.53,-75.5332"/>
<polygon fill="midnightblue" stroke="midnightblue" points="605.588,-72.0189 595.268,-74.4153 604.83,-78.9777 605.588,-72.0189"/>
</g>
<!-- Node5 -->
<g id="node9" class="node"><title>Node5</title>
<a xlink:href="config_8h_source.html" target="_top" xlink:title="config.h">
<polygon fill="white" stroke="black" points="573,-1 573,-21 623,-21 623,-1 573,-1"/>
<text text-anchor="middle" x="598" y="-8" font-family="FreeSans" font-size="10.00">config.h</text>
</a>
</g>
<!-- Node4&#45;&gt;Node5 -->
<g id="edge8" class="edge"><title>Node4&#45;&gt;Node5</title>
<path fill="none" stroke="midnightblue" d="M548.451,-58.8972C557.12,-50.5175 569.646,-38.4093 579.934,-28.4638"/>
<polygon fill="midnightblue" stroke="midnightblue" points="582.507,-30.8443 587.265,-21.3776 577.642,-25.8114 582.507,-30.8443"/>
</g>
<!-- Node6 -->
<g id="node11" class="node"><title>Node6</title>
<polygon fill="white" stroke="#bfbfbf" points="641,-1 641,-21 685,-21 685,-1 641,-1"/>
<text text-anchor="middle" x="663" y="-8" font-family="FreeSans" font-size="10.00">cmath</text>
</g>
<!-- Node4&#45;&gt;Node6 -->
<g id="edge10" class="edge"><title>Node4&#45;&gt;Node6</title>
<path fill="none" stroke="midnightblue" d="M559.773,-58.8972C579.726,-49.6391 609.487,-35.83 631.934,-25.4145"/>
<polygon fill="midnightblue" stroke="midnightblue" points="633.459,-28.5656 641.057,-21.1817 630.513,-22.2158 633.459,-28.5656"/>
</g>
<!-- Node7 -->
<g id="node13" class="node"><title>Node7</title>
<polygon fill="white" stroke="#bfbfbf" points="399,-1 399,-21 443,-21 443,-1 399,-1"/>
<text text-anchor="middle" x="421" y="-8" font-family="FreeSans" font-size="10.00">cstdlib</text>
</g>
<!-- Node4&#45;&gt;Node7 -->
<g id="edge12" class="edge"><title>Node4&#45;&gt;Node7</title>
<path fill="none" stroke="midnightblue" d="M517.62,-58.8972C499.111,-49.7218 471.585,-36.0762 450.642,-25.6943"/>
<polygon fill="midnightblue" stroke="midnightblue" points="452.053,-22.4874 441.539,-21.1817 448.944,-28.759 452.053,-22.4874"/>
</g>
<!-- Node8 -->
<g id="node15" class="node"><title>Node8</title>
<polygon fill="white" stroke="#bfbfbf" points="460.5,-1 460.5,-21 503.5,-21 503.5,-1 460.5,-1"/>
<text text-anchor="middle" x="482" y="-8" font-family="FreeSans" font-size="10.00">vector</text>
</g>
<!-- Node4&#45;&gt;Node8 -->
<g id="edge14" class="edge"><title>Node4&#45;&gt;Node8</title>
<path fill="none" stroke="midnightblue" d="M528.246,-58.8972C520.234,-50.5996 508.693,-38.6463 499.145,-28.7569"/>
<polygon fill="midnightblue" stroke="midnightblue" points="501.484,-26.1406 492.02,-21.3776 496.448,-31.0027 501.484,-26.1406"/>
</g>
<!-- Node9 -->
<g id="node17" class="node"><title>Node9</title>
<polygon fill="white" stroke="#bfbfbf" points="520.5,-1 520.5,-21 555.5,-21 555.5,-1 520.5,-1"/>
<text text-anchor="middle" x="538" y="-8" font-family="FreeSans" font-size="10.00">map</text>
</g>
<!-- Node4&#45;&gt;Node9 -->
<g id="edge16" class="edge"><title>Node4&#45;&gt;Node9</title>
<path fill="none" stroke="midnightblue" d="M538,-58.8972C538,-51.339 538,-40.7476 538,-31.4458"/>
<polygon fill="midnightblue" stroke="midnightblue" points="541.5,-31.3776 538,-21.3776 534.5,-31.3776 541.5,-31.3776"/>
</g>
<!-- Node10 -->
<g id="node19" class="node"><title>Node10</title>
<polygon fill="white" stroke="#bfbfbf" points="329,-1 329,-21 369,-21 369,-1 329,-1"/>
<text text-anchor="middle" x="349" y="-8" font-family="FreeSans" font-size="10.00">string</text>
</g>
<!-- Node4&#45;&gt;Node10 -->
<g id="edge18" class="edge"><title>Node4&#45;&gt;Node10</title>
<path fill="none" stroke="midnightblue" d="M505.079,-58.8972C469.52,-47.9849 413.357,-30.7499 378.985,-20.2017"/>
<polygon fill="midnightblue" stroke="midnightblue" points="379.651,-16.7451 369.064,-17.1572 377.597,-23.4371 379.651,-16.7451"/>
</g>
<!-- Node11&#45;&gt;Node3 -->
<g id="edge22" class="edge"><title>Node11&#45;&gt;Node3</title>
<path fill="none" stroke="midnightblue" d="M883.734,-372.717C878.015,-363.332 869.419,-349.226 862.471,-337.825"/>
<polygon fill="midnightblue" stroke="midnightblue" points="865.314,-335.764 857.122,-329.046 859.337,-339.407 865.314,-335.764"/>
</g>
<!-- Node11&#45;&gt;Node4 -->
<g id="edge24" class="edge"><title>Node11&#45;&gt;Node4</title>
<path fill="none" stroke="midnightblue" d="M948.532,-372.923C990.088,-364.604 1041.05,-351.646 1056,-336 1081.55,-309.265 1075,-291.977 1075,-255 1075,-255 1075,-255 1075,-191 1075,-120.412 1002.33,-137.185 935,-116 875.194,-97.1834 702.074,-81.5171 605.365,-73.9263"/>
<polygon fill="midnightblue" stroke="midnightblue" points="605.348,-70.4145 595.107,-73.1289 604.806,-77.3934 605.348,-70.4145"/>
</g>
<!-- Node12 -->
<g id="node25" class="node"><title>Node12</title>
<a xlink:href="global_8h.html" target="_top" xlink:title="This file contains definitions for utility functions and text for modules, inputfiles, logs, textlogs, (see Input File Handling, Diagnostic Output, and Writing messages to the screen). ">
<polygon fill="white" stroke="black" points="939,-309 939,-329 1047,-329 1047,-309 939,-309"/>
<text text-anchor="middle" x="993" y="-316" font-family="FreeSans" font-size="10.00">cantera/base/global.h</text>
</a>
</g>
<!-- Node11&#45;&gt;Node12 -->
<g id="edge26" class="edge"><title>Node11&#45;&gt;Node12</title>
<path fill="none" stroke="midnightblue" d="M906.549,-372.717C923.24,-362.346 949.205,-346.212 968.326,-334.331"/>
<polygon fill="midnightblue" stroke="midnightblue" points="970.185,-337.297 976.832,-329.046 966.491,-331.351 970.185,-337.297"/>
</g>
<!-- Node12&#45;&gt;Node4 -->
<g id="edge28" class="edge"><title>Node12&#45;&gt;Node4</title>
<path fill="none" stroke="midnightblue" d="M995.385,-308.962C1000.72,-284.06 1011.18,-218.268 985,-174 960.2,-132.073 937.845,-132.466 892,-116 840.715,-97.5803 692.942,-82.2956 605.375,-74.5259"/>
<polygon fill="midnightblue" stroke="midnightblue" points="605.535,-71.0265 595.267,-73.6386 604.923,-77.9997 605.535,-71.0265"/>
</g>
<!-- Node14 -->
<g id="node30" class="node"><title>Node14</title>
<a xlink:href="mix__defs_8h.html" target="_top" xlink:title="cantera/thermo/mix\l_defs.h">
<polygon fill="white" stroke="black" points="688,-175 688,-207 788,-207 788,-175 688,-175"/>
<text text-anchor="start" x="696" y="-194" font-family="FreeSans" font-size="10.00">cantera/thermo/mix</text>
<text text-anchor="middle" x="738" y="-182" font-family="FreeSans" font-size="10.00">_defs.h</text>
</a>
</g>
<!-- Node13&#45;&gt;Node14 -->
<g id="edge32" class="edge"><title>Node13&#45;&gt;Node14</title>
<path fill="none" stroke="midnightblue" d="M676.91,-302.837C687.463,-293.032 700.213,-279.782 709,-266 718.695,-250.793 725.99,-231.834 730.839,-216.783"/>
<polygon fill="midnightblue" stroke="midnightblue" points="734.228,-217.668 733.804,-207.082 727.534,-215.622 734.228,-217.668"/>
</g>
<!-- Node15 -->
<g id="node32" class="node"><title>Node15</title>
<a xlink:href="Kinetics_8h.html" target="_top" xlink:title="Base class for kinetics managers and also contains the kineticsmgr module documentation (see Kinetics...">
<polygon fill="white" stroke="black" points="641.5,-245 641.5,-265 700.5,-265 700.5,-245 641.5,-245"/>
<text text-anchor="middle" x="671" y="-252" font-family="FreeSans" font-size="10.00">Kinetics.h</text>
</a>
</g>
<!-- Node13&#45;&gt;Node15 -->
<g id="edge34" class="edge"><title>Node13&#45;&gt;Node15</title>
<path fill="none" stroke="midnightblue" d="M661.28,-302.85C662.992,-294.426 665.101,-284.041 666.917,-275.1"/>
<polygon fill="midnightblue" stroke="midnightblue" points="670.379,-275.638 668.94,-265.141 663.519,-274.244 670.379,-275.638"/>
</g>
<!-- Node18 -->
<g id="node40" class="node"><title>Node18</title>
<a xlink:href="utilities_8h.html" target="_top" xlink:title="Various templated functions that carry out common vector operations (see Templated Utility Functions)...">
<polygon fill="white" stroke="red" points="578,-181 578,-201 632,-201 632,-181 578,-181"/>
<text text-anchor="middle" x="605" y="-188" font-family="FreeSans" font-size="10.00">utilities.h</text>
</a>
</g>
<!-- Node13&#45;&gt;Node18 -->
<g id="edge44" class="edge"><title>Node13&#45;&gt;Node18</title>
<path fill="none" stroke="midnightblue" d="M649.987,-302.921C644.898,-292.494 638.297,-278.562 633,-266 625.265,-247.656 617.421,-226.361 612.01,-211.159"/>
<polygon fill="midnightblue" stroke="midnightblue" points="615.16,-209.566 608.537,-201.296 608.557,-211.891 615.16,-209.566"/>
</g>
<!-- Node19 -->
<g id="node43" class="node"><title>Node19</title>
<a xlink:href="RateCoeffMgr_8h.html" target="_top" xlink:title="RateCoeffMgr.h">
<polygon fill="white" stroke="black" points="273.5,-245 273.5,-265 356.5,-265 356.5,-245 273.5,-245"/>
<text text-anchor="middle" x="315" y="-252" font-family="FreeSans" font-size="10.00">RateCoeffMgr.h</text>
</a>
</g>
<!-- Node13&#45;&gt;Node19 -->
<g id="edge48" class="edge"><title>Node13&#45;&gt;Node19</title>
<path fill="none" stroke="midnightblue" d="M594.689,-307.187C529.18,-294.964 428.077,-276.099 367.054,-264.713"/>
<polygon fill="midnightblue" stroke="midnightblue" points="367.353,-261.208 356.88,-262.814 366.069,-268.089 367.353,-261.208"/>
</g>
<!-- Node22 -->
<g id="node56" class="node"><title>Node22</title>
<a xlink:href="ReactionStoichMgr_8h.html" target="_top" xlink:title="Header file declaring class ReactionStoichMgr. ">
<polygon fill="white" stroke="black" points="479.5,-245 479.5,-265 586.5,-265 586.5,-245 479.5,-245"/>
<text text-anchor="middle" x="533" y="-252" font-family="FreeSans" font-size="10.00">ReactionStoichMgr.h</text>
</a>
</g>
<!-- Node13&#45;&gt;Node22 -->
<g id="edge68" class="edge"><title>Node13&#45;&gt;Node22</title>
<path fill="none" stroke="midnightblue" d="M626.457,-302.85C606.568,-292.667 581.083,-279.618 561.751,-269.721"/>
<polygon fill="midnightblue" stroke="midnightblue" points="563.303,-266.583 552.807,-265.141 560.113,-272.814 563.303,-266.583"/>
</g>
<!-- Node15&#45;&gt;Node14 -->
<g id="edge42" class="edge"><title>Node15&#45;&gt;Node14</title>
<path fill="none" stroke="midnightblue" d="M681.765,-244.717C690.421,-236.449 702.911,-224.518 713.922,-214"/>
<polygon fill="midnightblue" stroke="midnightblue" points="716.431,-216.444 721.244,-207.005 711.596,-211.382 716.431,-216.444"/>
</g>
<!-- Node16 -->
<g id="node34" class="node"><title>Node16</title>
<a xlink:href="ctexceptions_8h.html" target="_top" xlink:title="Definitions for the classes that are thrown when Cantera experiences an error condition (also contain...">
<polygon fill="white" stroke="red" points="132.5,-117 132.5,-137 269.5,-137 269.5,-117 132.5,-117"/>
<text text-anchor="middle" x="201" y="-124" font-family="FreeSans" font-size="10.00">cantera/base/ctexceptions.h</text>
</a>
</g>
<!-- Node15&#45;&gt;Node16 -->
<g id="edge36" class="edge"><title>Node15&#45;&gt;Node16</title>
<path fill="none" stroke="midnightblue" d="M670.521,-244.819C669.095,-227.216 663.434,-191.321 641,-174 579.154,-126.251 374.054,-146.147 279.932,-138.019"/>
<polygon fill="midnightblue" stroke="midnightblue" points="280.133,-134.522 269.828,-136.982 279.418,-141.485 280.133,-134.522"/>
</g>
<!-- Node17 -->
<g id="node37" class="node"><title>Node17</title>
<a xlink:href="ThermoPhase_8h.html" target="_top" xlink:title="Header file for class ThermoPhase, the base class for phases with thermodynamic properties, and the text for the Module thermoprops (see Thermodynamic Properties and class ThermoPhase). ">
<polygon fill="white" stroke="red" points="806,-181 806,-201 958,-201 958,-181 806,-181"/>
<text text-anchor="middle" x="882" y="-188" font-family="FreeSans" font-size="10.00">cantera/thermo/ThermoPhase.h</text>
</a>
</g>
<!-- Node15&#45;&gt;Node17 -->
<g id="edge40" class="edge"><title>Node15&#45;&gt;Node17</title>
<path fill="none" stroke="midnightblue" d="M700.784,-245.966C736.885,-235.016 797.986,-216.483 839.145,-203.999"/>
<polygon fill="midnightblue" stroke="midnightblue" points="840.34,-207.294 848.894,-201.042 838.308,-200.595 840.34,-207.294"/>
</g>
<!-- Node16&#45;&gt;Node10 -->
<g id="edge38" class="edge"><title>Node16&#45;&gt;Node10</title>
<path fill="none" stroke="midnightblue" d="M213.875,-116.909C239.46,-96.8557 296.907,-51.8297 328.02,-27.4435"/>
<polygon fill="midnightblue" stroke="midnightblue" points="330.338,-30.0741 336.049,-21.1506 326.02,-24.5647 330.338,-30.0741"/>
</g>
<!-- Node18&#45;&gt;Node4 -->
<g id="edge46" class="edge"><title>Node18&#45;&gt;Node4</title>
<path fill="none" stroke="midnightblue" d="M599.446,-180.801C591.578,-166.364 576.728,-139.145 564,-116 558.907,-106.739 553.227,-96.465 548.478,-87.8908"/>
<polygon fill="midnightblue" stroke="midnightblue" points="551.502,-86.1269 543.594,-79.077 545.38,-89.5202 551.502,-86.1269"/>
</g>
<!-- Node19&#45;&gt;Node4 -->
<g id="edge62" class="edge"><title>Node19&#45;&gt;Node4</title>
<path fill="none" stroke="midnightblue" d="M317.514,-244.849C322.076,-228.231 333.134,-194.977 353,-174 376.244,-149.456 390.516,-154.535 420,-138 452.161,-119.965 488.75,-98.4043 512.545,-84.2416"/>
<polygon fill="midnightblue" stroke="midnightblue" points="514.508,-87.1461 521.305,-79.0182 510.923,-81.1339 514.508,-87.1461"/>
</g>
<!-- Node19&#45;&gt;Node16 -->
<g id="edge64" class="edge"><title>Node19&#45;&gt;Node16</title>
<path fill="none" stroke="midnightblue" d="M276.422,-244.987C245.092,-235.982 204.584,-222.046 195,-208 182.824,-190.155 187.371,-164.659 192.985,-147.061"/>
<polygon fill="midnightblue" stroke="midnightblue" points="196.417,-147.858 196.479,-137.263 189.823,-145.506 196.417,-147.858"/>
</g>
<!-- Node19&#45;&gt;Node18 -->
<g id="edge50" class="edge"><title>Node19&#45;&gt;Node18</title>
<path fill="none" stroke="midnightblue" d="M356.844,-246.045C400.38,-236.693 470.515,-221.528 531,-208 543.039,-205.307 556.165,-202.312 567.975,-199.594"/>
<polygon fill="midnightblue" stroke="midnightblue" points="568.996,-202.95 577.954,-197.292 567.423,-196.13 568.996,-202.95"/>
</g>
<!-- Node20 -->
<g id="node46" class="node"><title>Node20</title>
<a xlink:href="RxnRates_8h.html" target="_top" xlink:title="RxnRates.h">
<polygon fill="white" stroke="red" points="203.5,-181 203.5,-201 268.5,-201 268.5,-181 203.5,-181"/>
<text text-anchor="middle" x="236" y="-188" font-family="FreeSans" font-size="10.00">RxnRates.h</text>
</a>
</g>
<!-- Node19&#45;&gt;Node20 -->
<g id="edge52" class="edge"><title>Node19&#45;&gt;Node20</title>
<path fill="none" stroke="midnightblue" d="M302.307,-244.717C289.911,-234.675 270.844,-219.228 256.333,-207.473"/>
<polygon fill="midnightblue" stroke="midnightblue" points="258.374,-204.621 248.401,-201.046 253.968,-210.061 258.374,-204.621"/>
</g>
<!-- Node21 -->
<g id="node49" class="node"><title>Node21</title>
<a xlink:href="stringUtils_8h.html" target="_top" xlink:title="Contains declarations for string manipulation functions within Cantera. ">
<polygon fill="white" stroke="black" points="286.5,-117 286.5,-137 411.5,-137 411.5,-117 286.5,-117"/>
<text text-anchor="middle" x="349" y="-124" font-family="FreeSans" font-size="10.00">cantera/base/stringUtils.h</text>
</a>
</g>
<!-- Node19&#45;&gt;Node21 -->
<g id="edge66" class="edge"><title>Node19&#45;&gt;Node21</title>
<path fill="none" stroke="midnightblue" d="M314.086,-244.992C312.998,-229.407 312.202,-198.576 320,-174 323.237,-163.799 329.165,-153.558 334.821,-145.251"/>
<polygon fill="midnightblue" stroke="midnightblue" points="337.697,-147.247 340.713,-137.09 332.021,-143.15 337.697,-147.247"/>
</g>
<!-- Node20&#45;&gt;Node16 -->
<g id="edge54" class="edge"><title>Node20&#45;&gt;Node16</title>
<path fill="none" stroke="midnightblue" d="M230.377,-180.717C225.244,-171.332 217.53,-157.226 211.295,-145.825"/>
<polygon fill="midnightblue" stroke="midnightblue" points="214.363,-144.141 206.494,-137.046 208.221,-147.499 214.363,-144.141"/>
</g>
<!-- Node20&#45;&gt;Node21 -->
<g id="edge56" class="edge"><title>Node20&#45;&gt;Node21</title>
<path fill="none" stroke="midnightblue" d="M253.905,-180.859C272.337,-170.42 301.265,-154.036 322.378,-142.078"/>
<polygon fill="midnightblue" stroke="midnightblue" points="324.202,-145.067 331.179,-137.094 320.752,-138.976 324.202,-145.067"/>
</g>
<!-- Node21&#45;&gt;Node4 -->
<g id="edge58" class="edge"><title>Node21&#45;&gt;Node4</title>
<path fill="none" stroke="midnightblue" d="M381.921,-116.897C413.398,-107.238 461.019,-92.6237 495.38,-82.0792"/>
<polygon fill="midnightblue" stroke="midnightblue" points="496.606,-85.364 505.139,-79.0842 494.553,-78.672 496.606,-85.364"/>
</g>
<!-- Node21&#45;&gt;Node10 -->
<g id="edge60" class="edge"><title>Node21&#45;&gt;Node10</title>
<path fill="none" stroke="midnightblue" d="M349,-116.706C349,-97.5683 349,-56.1978 349,-31.2654"/>
<polygon fill="midnightblue" stroke="midnightblue" points="352.5,-31.1055 349,-21.1055 345.5,-31.1056 352.5,-31.1055"/>
</g>
<!-- Node22&#45;&gt;Node4 -->
<g id="edge70" class="edge"><title>Node22&#45;&gt;Node4</title>
<path fill="none" stroke="midnightblue" d="M533.269,-245C534.061,-215.543 536.396,-128.687 537.46,-89.0872"/>
<polygon fill="midnightblue" stroke="midnightblue" points="540.96,-89.1401 537.73,-79.0496 533.962,-88.9519 540.96,-89.1401"/>
</g>
<!-- Node23 -->
<g id="node59" class="node"><title>Node23</title>
<a xlink:href="StoichManager_8h.html" target="_top" xlink:title="cantera/kinetics/StoichManager.h">
<polygon fill="white" stroke="black" points="361.5,-181 361.5,-201 522.5,-201 522.5,-181 361.5,-181"/>
<text text-anchor="middle" x="442" y="-188" font-family="FreeSans" font-size="10.00">cantera/kinetics/StoichManager.h</text>
</a>
</g>
<!-- Node22&#45;&gt;Node23 -->
<g id="edge72" class="edge"><title>Node22&#45;&gt;Node23</title>
<path fill="none" stroke="midnightblue" d="M518.379,-244.717C503.833,-234.487 481.314,-218.649 464.49,-206.817"/>
<polygon fill="midnightblue" stroke="midnightblue" points="466.478,-203.936 456.284,-201.046 462.451,-209.662 466.478,-203.936"/>
</g>
<!-- Node23&#45;&gt;Node21 -->
<g id="edge74" class="edge"><title>Node23&#45;&gt;Node21</title>
<path fill="none" stroke="midnightblue" d="M427.058,-180.717C412.192,-170.487 389.178,-154.649 371.985,-142.817"/>
<polygon fill="midnightblue" stroke="midnightblue" points="373.82,-139.832 363.598,-137.046 369.852,-145.599 373.82,-139.832"/>
</g>
<!-- Node24&#45;&gt;Node14 -->
<g id="edge78" class="edge"><title>Node24&#45;&gt;Node14</title>
<path fill="none" stroke="midnightblue" d="M810.183,-244.717C798.752,-236.21 782.111,-223.827 767.687,-213.093"/>
<polygon fill="midnightblue" stroke="midnightblue" points="769.619,-210.168 759.507,-207.005 765.44,-215.783 769.619,-210.168"/>
</g>
<!-- Node24&#45;&gt;Node17 -->
<g id="edge80" class="edge"><title>Node24&#45;&gt;Node17</title>
<path fill="none" stroke="midnightblue" d="M833.319,-244.717C842.165,-234.956 855.637,-220.09 866.168,-208.47"/>
<polygon fill="midnightblue" stroke="midnightblue" points="868.774,-210.806 872.896,-201.046 863.587,-206.106 868.774,-210.806"/>
</g>
<!-- Node25&#45;&gt;Node2 -->
<g id="edge84" class="edge"><title>Node25&#45;&gt;Node2</title>
<path fill="none" stroke="midnightblue" d="M677.825,-393.141C691.698,-401.609 710.147,-413.99 725.126,-424.746"/>
<polygon fill="midnightblue" stroke="midnightblue" points="723.345,-427.779 733.485,-430.85 727.473,-422.126 723.345,-427.779"/>
</g>
<!-- Node25&#45;&gt;Node13 -->
<g id="edge86" class="edge"><title>Node25&#45;&gt;Node13</title>
<path fill="none" stroke="midnightblue" d="M658,-372.717C658,-365.244 658,-354.779 658,-345.068"/>
<polygon fill="midnightblue" stroke="midnightblue" points="661.5,-345.005 658,-335.005 654.5,-345.005 661.5,-345.005"/>
</g>
<!-- Node26 -->
<g id="node70" class="node"><title>Node26</title>
<a xlink:href="SquareMatrix_8h.html" target="_top" xlink:title="Dense, Square (not sparse) matrices. ">
<polygon fill="white" stroke="black" points="27,-245 27,-265 185,-265 185,-245 27,-245"/>
<text text-anchor="middle" x="106" y="-252" font-family="FreeSans" font-size="10.00">cantera/numerics/SquareMatrix.h</text>
</a>
</g>
<!-- Node25&#45;&gt;Node26 -->
<g id="edge88" class="edge"><title>Node25&#45;&gt;Node26</title>
<path fill="none" stroke="midnightblue" d="M628.322,-376.118C539.306,-355.477 273.677,-293.882 159.325,-267.365"/>
<polygon fill="midnightblue" stroke="midnightblue" points="159.926,-263.912 149.394,-265.062 158.345,-270.731 159.926,-263.912"/>
</g>
<!-- Node27 -->
<g id="node72" class="node"><title>Node27</title>
<a xlink:href="DenseMatrix_8h.html" target="_top" xlink:title="Headers for the DenseMatrix object, which deals with dense rectangular matrices and description of th...">
<polygon fill="white" stroke="red" points="-0.5,-117 -0.5,-137 76.5,-137 76.5,-117 -0.5,-117"/>
<text text-anchor="middle" x="38" y="-124" font-family="FreeSans" font-size="10.00">DenseMatrix.h</text>
</a>
</g>
<!-- Node26&#45;&gt;Node27 -->
<g id="edge90" class="edge"><title>Node26&#45;&gt;Node27</title>
<path fill="none" stroke="midnightblue" d="M90.6523,-244.891C79.0491,-236.423 63.6819,-223.286 55,-208 44.289,-189.141 40.2987,-164.363 38.8275,-147.201"/>
<polygon fill="midnightblue" stroke="midnightblue" points="42.3165,-146.916 38.1792,-137.162 35.331,-147.367 42.3165,-146.916"/>
</g>
<!-- Node28 -->
<g id="node75" class="node"><title>Node28</title>
<a xlink:href="GeneralMatrix_8h.html" target="_top" xlink:title="Declarations for the class GeneralMatrix which is a virtual base class for matrices handled by solver...">
<polygon fill="white" stroke="black" points="64,-181 64,-201 148,-201 148,-181 64,-181"/>
<text text-anchor="middle" x="106" y="-188" font-family="FreeSans" font-size="10.00">GeneralMatrix.h</text>
</a>
</g>
<!-- Node26&#45;&gt;Node28 -->
<g id="edge94" class="edge"><title>Node26&#45;&gt;Node28</title>
<path fill="none" stroke="midnightblue" d="M106,-244.717C106,-235.707 106,-222.347 106,-211.205"/>
<polygon fill="midnightblue" stroke="midnightblue" points="109.5,-211.046 106,-201.046 102.5,-211.046 109.5,-211.046"/>
</g>
<!-- Node27&#45;&gt;Node4 -->
<g id="edge92" class="edge"><title>Node27&#45;&gt;Node4</title>
<path fill="none" stroke="midnightblue" d="M76.7058,-118.501C81.5065,-117.585 86.3574,-116.724 91,-116 225.051,-95.0952 383.202,-80.9066 470.884,-73.954"/>
<polygon fill="midnightblue" stroke="midnightblue" points="471.266,-77.4348 480.962,-73.1622 470.718,-70.4563 471.266,-77.4348"/>
</g>
<!-- Node28&#45;&gt;Node4 -->
<g id="edge96" class="edge"><title>Node28&#45;&gt;Node4</title>
<path fill="none" stroke="midnightblue" d="M105.117,-180.945C104.295,-164.616 105.343,-132.5 124,-116 149.418,-93.5192 359.998,-78.7432 470.645,-72.4551"/>
<polygon fill="midnightblue" stroke="midnightblue" points="470.919,-75.9453 480.707,-71.891 470.527,-68.9563 470.919,-75.9453"/>
</g>
<!-- Node28&#45;&gt;Node16 -->
<g id="edge98" class="edge"><title>Node28&#45;&gt;Node16</title>
<path fill="none" stroke="midnightblue" d="M121.263,-180.717C136.449,-170.487 159.958,-154.649 177.521,-142.817"/>
<polygon fill="midnightblue" stroke="midnightblue" points="179.75,-145.536 186.088,-137.046 175.839,-139.731 179.75,-145.536"/>
</g>
</g>
</svg>
