<?xml version="1.0" encoding="UTF-8" standalone="no"?>
<!DOCTYPE svg PUBLIC "-//W3C//DTD SVG 1.1//EN"
 "http://www.w3.org/Graphics/SVG/1.1/DTD/svg11.dtd">
<!-- Generated by graphviz version 2.38.0 (20140413.2041)
 -->
<!-- Title: ImplicitSurfChem.cpp Pages: 1 -->
<svg width="954pt" height="509pt"
 viewBox="0.00 0.00 954.00 509.00" xmlns="http://www.w3.org/2000/svg" xmlns:xlink="http://www.w3.org/1999/xlink">
<g id="graph0" class="graph" transform="scale(1 1) rotate(0) translate(4 505)">
<title>ImplicitSurfChem.cpp</title>
<polygon fill="white" stroke="none" points="-4,4 -4,-505 950,-505 950,4 -4,4"/>
<!-- Node1 -->
<g id="node1" class="node"><title>Node1</title>
<polygon fill="#bfbfbf" stroke="black" points="476.5,-481.5 476.5,-500.5 587.5,-500.5 587.5,-481.5 476.5,-481.5"/>
<text text-anchor="middle" x="532" y="-488.5" font-family="Helvetica,sans-Serif" font-size="10.00">ImplicitSurfChem.cpp</text>
</g>
<!-- Node2 -->
<g id="node2" class="node"><title>Node2</title>
<g id="a_node2"><a xlink:href="ImplicitSurfChem_8h.html" target="_top" xlink:title="Declarations for the implicit integration of surface site density equations (see Kinetics Managers an...">
<polygon fill="white" stroke="black" points="472,-414.5 472,-444.5 592,-444.5 592,-414.5 472,-414.5"/>
<text text-anchor="start" x="480" y="-432.5" font-family="Helvetica,sans-Serif" font-size="10.00">cantera/kinetics/Implicit</text>
<text text-anchor="middle" x="532" y="-421.5" font-family="Helvetica,sans-Serif" font-size="10.00">SurfChem.h</text>
</a>
</g>
</g>
<!-- Node1&#45;&gt;Node2 -->
<g id="edge1" class="edge"><title>Node1&#45;&gt;Node2</title>
<path fill="none" stroke="midnightblue" d="M532,-481.475C532,-474.471 532,-464.192 532,-454.696"/>
<polygon fill="midnightblue" stroke="midnightblue" points="535.5,-454.523 532,-444.523 528.5,-454.523 535.5,-454.523"/>
</g>
<!-- Node17 -->
<g id="node17" class="node"><title>Node17</title>
<g id="a_node17"><a xlink:href="solveSP_8h.html" target="_top" xlink:title="Header file for implicit surface problem solver (see Chemical Kinetics and class solveSP). ">
<polygon fill="white" stroke="black" points="370,-358.5 370,-377.5 504,-377.5 504,-358.5 370,-358.5"/>
<text text-anchor="middle" x="437" y="-365.5" font-family="Helvetica,sans-Serif" font-size="10.00">cantera/kinetics/solveSP.h</text>
</a>
</g>
</g>
<!-- Node1&#45;&gt;Node17 -->
<g id="edge35" class="edge"><title>Node1&#45;&gt;Node17</title>
<path fill="none" stroke="midnightblue" d="M512.147,-481.497C496.745,-473.967 475.911,-461.592 463,-445 449.919,-428.189 443.191,-404.381 439.893,-387.912"/>
<polygon fill="midnightblue" stroke="midnightblue" points="443.304,-387.099 438.121,-377.859 436.41,-388.314 443.304,-387.099"/>
</g>
<!-- Node20 -->
<g id="node20" class="node"><title>Node20</title>
<g id="a_node20"><a xlink:href="SurfPhase_8h.html" target="_top" xlink:title="Header for a simple thermodynamics model of a surface phase derived from ThermoPhase, assuming an ideal solution model (see Thermodynamic Properties and class SurfPhase). ">
<polygon fill="white" stroke="black" points="530.5,-235.5 530.5,-254.5 669.5,-254.5 669.5,-235.5 530.5,-235.5"/>
<text text-anchor="middle" x="600" y="-242.5" font-family="Helvetica,sans-Serif" font-size="10.00">cantera/thermo/SurfPhase.h</text>
</a>
</g>
</g>
<!-- Node1&#45;&gt;Node20 -->
<g id="edge36" class="edge"><title>Node1&#45;&gt;Node20</title>
<path fill="none" stroke="midnightblue" d="M555.788,-481.499C571.721,-474.413 591.463,-462.605 601,-445 633.063,-385.81 615.74,-301.442 605.633,-264.51"/>
<polygon fill="midnightblue" stroke="midnightblue" points="608.925,-263.291 602.791,-254.652 602.199,-265.23 608.925,-263.291"/>
</g>
<!-- Node3 -->
<g id="node3" class="node"><title>Node3</title>
<g id="a_node3"><a xlink:href="Integrator_8h.html" target="_top" xlink:title="cantera/numerics/Integrator.h">
<polygon fill="white" stroke="black" points="802,-174 802,-193 946,-193 946,-174 802,-174"/>
<text text-anchor="middle" x="874" y="-181" font-family="Helvetica,sans-Serif" font-size="10.00">cantera/numerics/Integrator.h</text>
</a>
</g>
</g>
<!-- Node2&#45;&gt;Node3 -->
<g id="edge2" class="edge"><title>Node2&#45;&gt;Node3</title>
<path fill="none" stroke="midnightblue" d="M551.866,-414.327C612.072,-371.373 792.127,-242.913 853.355,-199.229"/>
<polygon fill="midnightblue" stroke="midnightblue" points="855.705,-201.852 861.812,-193.195 851.639,-196.154 855.705,-201.852"/>
</g>
<!-- Node8 -->
<g id="node8" class="node"><title>Node8</title>
<g id="a_node8"><a xlink:href="InterfaceKinetics_8h.html" target="_top" xlink:title="cantera/kinetics/Interface\lKinetics.h">
<polygon fill="white" stroke="black" points="373.5,-291.5 373.5,-321.5 500.5,-321.5 500.5,-291.5 373.5,-291.5"/>
<text text-anchor="start" x="381.5" y="-309.5" font-family="Helvetica,sans-Serif" font-size="10.00">cantera/kinetics/Interface</text>
<text text-anchor="middle" x="437" y="-298.5" font-family="Helvetica,sans-Serif" font-size="10.00">Kinetics.h</text>
</a>
</g>
</g>
<!-- Node2&#45;&gt;Node8 -->
<g id="edge9" class="edge"><title>Node2&#45;&gt;Node8</title>
<path fill="none" stroke="midnightblue" d="M531.107,-414.267C529.525,-399.061 525.143,-374.874 513,-358 503.828,-345.254 490.364,-334.807 477.307,-326.79"/>
<polygon fill="midnightblue" stroke="midnightblue" points="478.799,-323.61 468.391,-321.63 475.293,-329.668 478.799,-323.61"/>
</g>
<!-- Node2&#45;&gt;Node17 -->
<g id="edge28" class="edge"><title>Node2&#45;&gt;Node17</title>
<path fill="none" stroke="midnightblue" d="M509.486,-414.399C494.401,-404.951 474.615,-392.559 459.527,-383.109"/>
<polygon fill="midnightblue" stroke="midnightblue" points="461.156,-380 450.823,-377.658 457.441,-385.932 461.156,-380"/>
</g>
<!-- Node4 -->
<g id="node4" class="node"><title>Node4</title>
<g id="a_node4"><a xlink:href="FuncEval_8h.html" target="_top" xlink:title="FuncEval.h">
<polygon fill="white" stroke="black" points="583,-112.5 583,-131.5 649,-131.5 649,-112.5 583,-112.5"/>
<text text-anchor="middle" x="616" y="-119.5" font-family="Helvetica,sans-Serif" font-size="10.00">FuncEval.h</text>
</a>
</g>
</g>
<!-- Node3&#45;&gt;Node4 -->
<g id="edge3" class="edge"><title>Node3&#45;&gt;Node4</title>
<path fill="none" stroke="midnightblue" d="M837.035,-173.975C789.977,-163.123 708.825,-144.407 659.034,-132.925"/>
<polygon fill="midnightblue" stroke="midnightblue" points="659.742,-129.496 649.211,-130.659 658.169,-136.317 659.742,-129.496"/>
</g>
<!-- Node7 -->
<g id="node7" class="node"><title>Node7</title>
<g id="a_node7"><a xlink:href="global_8h.html" target="_top" xlink:title="This file contains definitions for utility functions and text for modules, inputfiles, logs, textlogs, (see Input File Handling, Diagnostic Output, and Writing messages to the screen). ">
<polygon fill="white" stroke="red" points="466,-56.5 466,-75.5 576,-75.5 576,-56.5 466,-56.5"/>
<text text-anchor="middle" x="521" y="-63.5" font-family="Helvetica,sans-Serif" font-size="10.00">cantera/base/global.h</text>
</a>
</g>
</g>
<!-- Node3&#45;&gt;Node7 -->
<g id="edge8" class="edge"><title>Node3&#45;&gt;Node7</title>
<path fill="none" stroke="midnightblue" d="M847.756,-173.913C785.468,-153.533 628.608,-102.209 557.296,-78.8759"/>
<polygon fill="midnightblue" stroke="midnightblue" points="558.009,-75.4268 547.417,-75.6434 555.833,-82.0797 558.009,-75.4268"/>
</g>
<!-- Node5 -->
<g id="node5" class="node"><title>Node5</title>
<g id="a_node5"><a xlink:href="ct__defs_8h.html" target="_top" xlink:title="This file contains definitions of terms that are used in internal routines and are unlikely to need m...">
<polygon fill="white" stroke="red" points="305,-0.5 305,-19.5 421,-19.5 421,-0.5 305,-0.5"/>
<text text-anchor="middle" x="363" y="-7.5" font-family="Helvetica,sans-Serif" font-size="10.00">cantera/base/ct_defs.h</text>
</a>
</g>
</g>
<!-- Node4&#45;&gt;Node5 -->
<g id="edge4" class="edge"><title>Node4&#45;&gt;Node5</title>
<path fill="none" stroke="midnightblue" d="M614.426,-112.288C611.389,-98.1392 603.33,-70.3107 585,-56 561.436,-37.603 487.56,-25.1857 431.442,-18.1344"/>
<polygon fill="midnightblue" stroke="midnightblue" points="431.538,-14.6201 421.187,-16.88 430.688,-21.5683 431.538,-14.6201"/>
</g>
<!-- Node6 -->
<g id="node6" class="node"><title>Node6</title>
<g id="a_node6"><a xlink:href="ctexceptions_8h.html" target="_top" xlink:title="Definitions for the classes that are thrown when Cantera experiences an error condition (also contain...">
<polygon fill="white" stroke="red" points="274,-56.5 274,-75.5 414,-75.5 414,-56.5 274,-56.5"/>
<text text-anchor="middle" x="344" y="-63.5" font-family="Helvetica,sans-Serif" font-size="10.00">cantera/base/ctexceptions.h</text>
</a>
</g>
</g>
<!-- Node4&#45;&gt;Node6 -->
<g id="edge5" class="edge"><title>Node4&#45;&gt;Node6</title>
<path fill="none" stroke="midnightblue" d="M582.919,-114.433C536.67,-105.251 452.179,-88.4768 397.072,-77.5363"/>
<polygon fill="midnightblue" stroke="midnightblue" points="397.63,-74.0789 387.14,-75.5645 396.267,-80.9449 397.63,-74.0789"/>
</g>
<!-- Node4&#45;&gt;Node7 -->
<g id="edge6" class="edge"><title>Node4&#45;&gt;Node7</title>
<path fill="none" stroke="midnightblue" d="M600.737,-112.324C585.779,-103.822 562.745,-90.7288 545.273,-80.7975"/>
<polygon fill="midnightblue" stroke="midnightblue" points="546.649,-77.5534 536.226,-75.6545 543.19,-83.639 546.649,-77.5534"/>
</g>
<!-- Node7&#45;&gt;Node5 -->
<g id="edge7" class="edge"><title>Node7&#45;&gt;Node5</title>
<path fill="none" stroke="midnightblue" d="M495.964,-56.4435C469.384,-47.3591 427.191,-32.9388 397.477,-22.7831"/>
<polygon fill="midnightblue" stroke="midnightblue" points="398.513,-19.4386 387.918,-19.5164 396.249,-26.0625 398.513,-19.4386"/>
</g>
<!-- Node9 -->
<g id="node9" class="node"><title>Node9</title>
<g id="a_node9"><a xlink:href="mix__defs_8h.html" target="_top" xlink:title="cantera/thermo/mix\l_defs.h">
<polygon fill="white" stroke="black" points="682.5,-168.5 682.5,-198.5 783.5,-198.5 783.5,-168.5 682.5,-168.5"/>
<text text-anchor="start" x="690.5" y="-186.5" font-family="Helvetica,sans-Serif" font-size="10.00">cantera/thermo/mix</text>
<text text-anchor="middle" x="733" y="-175.5" font-family="Helvetica,sans-Serif" font-size="10.00">_defs.h</text>
</a>
</g>
</g>
<!-- Node8&#45;&gt;Node9 -->
<g id="edge10" class="edge"><title>Node8&#45;&gt;Node9</title>
<path fill="none" stroke="midnightblue" d="M500.56,-304.01C551.905,-300.157 624.218,-288.525 678,-255 696.611,-243.399 711.431,-223.132 720.976,-207.297"/>
<polygon fill="midnightblue" stroke="midnightblue" points="724.034,-209 725.975,-198.584 717.962,-205.516 724.034,-209"/>
</g>
<!-- Node10 -->
<g id="node10" class="node"><title>Node10</title>
<g id="a_node10"><a xlink:href="Kinetics_8h.html" target="_top" xlink:title="Base class for kinetics managers and also contains the kineticsmgr module documentation (see Kinetics...">
<polygon fill="white" stroke="black" points="452,-235.5 452,-254.5 512,-254.5 512,-235.5 452,-235.5"/>
<text text-anchor="middle" x="482" y="-242.5" font-family="Helvetica,sans-Serif" font-size="10.00">Kinetics.h</text>
</a>
</g>
</g>
<!-- Node8&#45;&gt;Node10 -->
<g id="edge11" class="edge"><title>Node8&#45;&gt;Node10</title>
<path fill="none" stroke="midnightblue" d="M447.664,-291.399C454.136,-282.842 462.434,-271.871 469.251,-262.857"/>
<polygon fill="midnightblue" stroke="midnightblue" points="472.211,-264.745 475.452,-254.658 466.628,-260.522 472.211,-264.745"/>
</g>
<!-- Node13 -->
<g id="node13" class="node"><title>Node13</title>
<g id="a_node13"><a xlink:href="Reaction_8h.html" target="_top" xlink:title="cantera/kinetics/Reaction.h">
<polygon fill="white" stroke="red" points="242,-174 242,-193 378,-193 378,-174 242,-174"/>
<text text-anchor="middle" x="310" y="-181" font-family="Helvetica,sans-Serif" font-size="10.00">cantera/kinetics/Reaction.h</text>
</a>
</g>
</g>
<!-- Node8&#45;&gt;Node13 -->
<g id="edge24" class="edge"><title>Node8&#45;&gt;Node13</title>
<path fill="none" stroke="midnightblue" d="M394.6,-291.385C375.543,-283.259 354.014,-271.357 339,-255 325.605,-240.407 317.96,-218.779 313.92,-203.331"/>
<polygon fill="midnightblue" stroke="midnightblue" points="317.274,-202.301 311.585,-193.363 310.459,-203.898 317.274,-202.301"/>
</g>
<!-- Node14 -->
<g id="node14" class="node"><title>Node14</title>
<g id="a_node14"><a xlink:href="utilities_8h.html" target="_top" xlink:title="Various templated functions that carry out common vector operations (see Templated Utility Functions)...">
<polygon fill="white" stroke="red" points="106.5,-112.5 106.5,-131.5 221.5,-131.5 221.5,-112.5 106.5,-112.5"/>
<text text-anchor="middle" x="164" y="-119.5" font-family="Helvetica,sans-Serif" font-size="10.00">cantera/base/utilities.h</text>
</a>
</g>
</g>
<!-- Node8&#45;&gt;Node14 -->
<g id="edge25" class="edge"><title>Node8&#45;&gt;Node14</title>
<path fill="none" stroke="midnightblue" d="M399.142,-291.484C355.867,-274.227 284.393,-241.861 233,-199 211.29,-180.895 189.993,-156.047 176.932,-139.764"/>
<polygon fill="midnightblue" stroke="midnightblue" points="179.512,-137.383 170.573,-131.696 174.014,-141.716 179.512,-137.383"/>
</g>
<!-- Node16 -->
<g id="node16" class="node"><title>Node16</title>
<g id="a_node16"><a xlink:href="RateCoeffMgr_8h.html" target="_top" xlink:title="RateCoeffMgr.h">
<polygon fill="white" stroke="black" points="348,-235.5 348,-254.5 434,-254.5 434,-235.5 348,-235.5"/>
<text text-anchor="middle" x="391" y="-242.5" font-family="Helvetica,sans-Serif" font-size="10.00">RateCoeffMgr.h</text>
</a>
</g>
</g>
<!-- Node8&#45;&gt;Node16 -->
<g id="edge26" class="edge"><title>Node8&#45;&gt;Node16</title>
<path fill="none" stroke="midnightblue" d="M426.099,-291.399C419.414,-282.753 410.824,-271.642 403.815,-262.576"/>
<polygon fill="midnightblue" stroke="midnightblue" points="406.579,-260.428 397.693,-254.658 401.041,-264.71 406.579,-260.428"/>
</g>
<!-- Node10&#45;&gt;Node7 -->
<g id="edge23" class="edge"><title>Node10&#45;&gt;Node7</title>
<path fill="none" stroke="midnightblue" d="M483.881,-235.463C489.838,-208.428 508.388,-124.239 516.79,-86.109"/>
<polygon fill="midnightblue" stroke="midnightblue" points="520.312,-86.3873 519.046,-75.8684 513.476,-84.881 520.312,-86.3873"/>
</g>
<!-- Node10&#45;&gt;Node9 -->
<g id="edge16" class="edge"><title>Node10&#45;&gt;Node9</title>
<path fill="none" stroke="midnightblue" d="M512.116,-236.961C547.851,-228.596 609.5,-214.127 672.198,-199.184"/>
<polygon fill="midnightblue" stroke="midnightblue" points="673.351,-202.507 682.266,-196.782 671.727,-195.698 673.351,-202.507"/>
</g>
<!-- Node11 -->
<g id="node11" class="node"><title>Node11</title>
<g id="a_node11"><a xlink:href="ThermoPhase_8h.html" target="_top" xlink:title="Header file for class ThermoPhase, the base class for phases with thermodynamic properties, and the text for the Module thermoprops (see Thermodynamic Properties and class ThermoPhase). ">
<polygon fill="white" stroke="red" points="510,-174 510,-193 664,-193 664,-174 510,-174"/>
<text text-anchor="middle" x="587" y="-181" font-family="Helvetica,sans-Serif" font-size="10.00">cantera/thermo/ThermoPhase.h</text>
</a>
</g>
</g>
<!-- Node10&#45;&gt;Node11 -->
<g id="edge12" class="edge"><title>Node10&#45;&gt;Node11</title>
<path fill="none" stroke="midnightblue" d="M497.044,-235.475C514.275,-225.711 542.74,-209.581 563.034,-198.081"/>
<polygon fill="midnightblue" stroke="midnightblue" points="565.009,-200.984 571.984,-193.009 561.558,-194.894 565.009,-200.984"/>
</g>
<!-- Node12 -->
<g id="node12" class="node"><title>Node12</title>
<g id="a_node12"><a xlink:href="StoichManager_8h.html" target="_top" xlink:title="StoichManager.h">
<polygon fill="white" stroke="red" points="399,-112.5 399,-131.5 489,-131.5 489,-112.5 399,-112.5"/>
<text text-anchor="middle" x="444" y="-119.5" font-family="Helvetica,sans-Serif" font-size="10.00">StoichManager.h</text>
</a>
</g>
</g>
<!-- Node10&#45;&gt;Node12 -->
<g id="edge14" class="edge"><title>Node10&#45;&gt;Node12</title>
<path fill="none" stroke="midnightblue" d="M479.267,-235.298C473.105,-215.676 458.019,-167.638 449.714,-141.193"/>
<polygon fill="midnightblue" stroke="midnightblue" points="453.044,-140.115 446.708,-131.623 446.365,-142.212 453.044,-140.115"/>
</g>
<!-- Node10&#45;&gt;Node13 -->
<g id="edge17" class="edge"><title>Node10&#45;&gt;Node13</title>
<path fill="none" stroke="midnightblue" d="M457.357,-235.475C427.725,-225.225 377.815,-207.959 344.398,-196.399"/>
<polygon fill="midnightblue" stroke="midnightblue" points="345.192,-192.971 334.598,-193.009 342.904,-199.586 345.192,-192.971"/>
</g>
<!-- Node11&#45;&gt;Node7 -->
<g id="edge13" class="edge"><title>Node11&#45;&gt;Node7</title>
<path fill="none" stroke="midnightblue" d="M582.039,-173.819C571.241,-154.922 545.428,-109.748 531.069,-84.6206"/>
<polygon fill="midnightblue" stroke="midnightblue" points="534.019,-82.728 526.018,-75.782 527.941,-86.201 534.019,-82.728"/>
</g>
<!-- Node12&#45;&gt;Node6 -->
<g id="edge15" class="edge"><title>Node12&#45;&gt;Node6</title>
<path fill="none" stroke="midnightblue" d="M427.933,-112.324C412.042,-103.743 387.493,-90.486 369.042,-80.5224"/>
<polygon fill="midnightblue" stroke="midnightblue" points="370.489,-77.3264 360.027,-75.6545 367.163,-83.4857 370.489,-77.3264"/>
</g>
<!-- Node13&#45;&gt;Node14 -->
<g id="edge18" class="edge"><title>Node13&#45;&gt;Node14</title>
<path fill="none" stroke="midnightblue" d="M289.082,-173.975C264.254,-163.857 222.657,-146.905 194.306,-135.351"/>
<polygon fill="midnightblue" stroke="midnightblue" points="195.461,-132.042 184.879,-131.509 192.819,-138.524 195.461,-132.042"/>
</g>
<!-- Node15 -->
<g id="node15" class="node"><title>Node15</title>
<g id="a_node15"><a xlink:href="RxnRates_8h.html" target="_top" xlink:title="cantera/kinetics/RxnRates.h">
<polygon fill="white" stroke="red" points="239.5,-112.5 239.5,-131.5 380.5,-131.5 380.5,-112.5 239.5,-112.5"/>
<text text-anchor="middle" x="310" y="-119.5" font-family="Helvetica,sans-Serif" font-size="10.00">cantera/kinetics/RxnRates.h</text>
</a>
</g>
</g>
<!-- Node13&#45;&gt;Node15 -->
<g id="edge21" class="edge"><title>Node13&#45;&gt;Node15</title>
<path fill="none" stroke="midnightblue" d="M310,-173.975C310,-165.58 310,-152.481 310,-141.663"/>
<polygon fill="midnightblue" stroke="midnightblue" points="313.5,-141.509 310,-131.509 306.5,-141.509 313.5,-141.509"/>
</g>
<!-- Node14&#45;&gt;Node5 -->
<g id="edge19" class="edge"><title>Node14&#45;&gt;Node5</title>
<path fill="none" stroke="midnightblue" d="M176.095,-112.417C194.709,-99.394 231.716,-74.233 265,-56 287.053,-43.9194 312.941,-32.1286 332.569,-23.6486"/>
<polygon fill="midnightblue" stroke="midnightblue" points="334.112,-26.7956 341.933,-19.6486 331.362,-20.3583 334.112,-26.7956"/>
</g>
<!-- Node14&#45;&gt;Node7 -->
<g id="edge20" class="edge"><title>Node14&#45;&gt;Node7</title>
<path fill="none" stroke="midnightblue" d="M220.568,-112.444C284.525,-102.769 388.488,-87.0438 455.803,-76.8617"/>
<polygon fill="midnightblue" stroke="midnightblue" points="456.506,-80.2953 465.87,-75.339 455.459,-73.374 456.506,-80.2953"/>
</g>
<!-- Node15&#45;&gt;Node6 -->
<g id="edge22" class="edge"><title>Node15&#45;&gt;Node6</title>
<path fill="none" stroke="midnightblue" d="M315.614,-112.083C320.367,-104.534 327.318,-93.4948 333.152,-84.2298"/>
<polygon fill="midnightblue" stroke="midnightblue" points="336.124,-86.0783 338.49,-75.7511 330.2,-82.3486 336.124,-86.0783"/>
</g>
<!-- Node16&#45;&gt;Node15 -->
<g id="edge27" class="edge"><title>Node16&#45;&gt;Node15</title>
<path fill="none" stroke="midnightblue" d="M393.039,-235.252C396.024,-220.256 399.925,-189.212 387,-168 377.926,-153.108 361.933,-142.61 346.865,-135.521"/>
<polygon fill="midnightblue" stroke="midnightblue" points="348.24,-132.303 337.673,-131.54 345.458,-138.726 348.24,-132.303"/>
</g>
<!-- Node17&#45;&gt;Node8 -->
<g id="edge29" class="edge"><title>Node17&#45;&gt;Node8</title>
<path fill="none" stroke="midnightblue" d="M437,-358.475C437,-351.471 437,-341.192 437,-331.696"/>
<polygon fill="midnightblue" stroke="midnightblue" points="440.5,-331.523 437,-321.523 433.5,-331.523 440.5,-331.523"/>
</g>
<!-- Node18 -->
<g id="node18" class="node"><title>Node18</title>
<g id="a_node18"><a xlink:href="DenseMatrix_8h.html" target="_top" xlink:title="Headers for the DenseMatrix object, which deals with dense rectangular matrices and description of th...">
<polygon fill="white" stroke="black" points="0,-235.5 0,-254.5 158,-254.5 158,-235.5 0,-235.5"/>
<text text-anchor="middle" x="79" y="-242.5" font-family="Helvetica,sans-Serif" font-size="10.00">cantera/numerics/DenseMatrix.h</text>
</a>
</g>
</g>
<!-- Node17&#45;&gt;Node18 -->
<g id="edge30" class="edge"><title>Node17&#45;&gt;Node18</title>
<path fill="none" stroke="midnightblue" d="M411.826,-358.492C349.199,-337.324 186.25,-282.249 114.173,-257.888"/>
<polygon fill="midnightblue" stroke="midnightblue" points="115.219,-254.547 104.625,-254.661 112.978,-261.179 115.219,-254.547"/>
</g>
<!-- Node18&#45;&gt;Node5 -->
<g id="edge31" class="edge"><title>Node18&#45;&gt;Node5</title>
<path fill="none" stroke="midnightblue" d="M74.8888,-235.277C70.9413,-226.383 65.255,-212.074 63,-199 56.3752,-160.593 48.5935,-141.555 74,-112 129.447,-47.4987 228.51,-24.1712 294.988,-15.746"/>
<polygon fill="midnightblue" stroke="midnightblue" points="295.441,-19.2169 304.958,-14.5627 294.616,-12.2657 295.441,-19.2169"/>
</g>
<!-- Node18&#45;&gt;Node6 -->
<g id="edge32" class="edge"><title>Node18&#45;&gt;Node6</title>
<path fill="none" stroke="midnightblue" d="M76.5176,-235.467C74.0434,-226.485 70.4147,-211.888 69,-199 64.5677,-158.623 64.5084,-136.378 97,-112 122.885,-92.5791 201.838,-80.5483 263.59,-73.8683"/>
<polygon fill="midnightblue" stroke="midnightblue" points="264.152,-77.3286 273.731,-72.8021 263.42,-70.367 264.152,-77.3286"/>
</g>
<!-- Node19 -->
<g id="node19" class="node"><title>Node19</title>
<g id="a_node19"><a xlink:href="Array_8h.html" target="_top" xlink:title="Header file for class Cantera::Array2D. ">
<polygon fill="white" stroke="red" points="78.5,-174 78.5,-193 185.5,-193 185.5,-174 78.5,-174"/>
<text text-anchor="middle" x="132" y="-181" font-family="Helvetica,sans-Serif" font-size="10.00">cantera/base/Array.h</text>
</a>
</g>
</g>
<!-- Node18&#45;&gt;Node19 -->
<g id="edge33" class="edge"><title>Node18&#45;&gt;Node19</title>
<path fill="none" stroke="midnightblue" d="M86.5936,-235.475C94.7011,-226.373 107.735,-211.741 117.763,-200.483"/>
<polygon fill="midnightblue" stroke="midnightblue" points="120.383,-202.804 124.42,-193.009 115.156,-198.148 120.383,-202.804"/>
</g>
<!-- Node19&#45;&gt;Node14 -->
<g id="edge34" class="edge"><title>Node19&#45;&gt;Node14</title>
<path fill="none" stroke="midnightblue" d="M136.585,-173.975C141.242,-165.315 148.592,-151.649 154.51,-140.645"/>
<polygon fill="midnightblue" stroke="midnightblue" points="157.77,-141.974 159.424,-131.509 151.605,-138.658 157.77,-141.974"/>
</g>
<!-- Node20&#45;&gt;Node9 -->
<g id="edge37" class="edge"><title>Node20&#45;&gt;Node9</title>
<path fill="none" stroke="midnightblue" d="M619.056,-235.475C638.079,-226.965 667.91,-213.619 692.277,-202.718"/>
<polygon fill="midnightblue" stroke="midnightblue" points="693.956,-205.802 701.655,-198.523 691.097,-199.412 693.956,-205.802"/>
</g>
<!-- Node20&#45;&gt;Node11 -->
<g id="edge38" class="edge"><title>Node20&#45;&gt;Node11</title>
<path fill="none" stroke="midnightblue" d="M598.137,-235.475C596.284,-226.992 593.381,-213.704 591.003,-202.822"/>
<polygon fill="midnightblue" stroke="midnightblue" points="594.413,-202.032 588.859,-193.009 587.574,-203.526 594.413,-202.032"/>
</g>
</g>
</svg>
