<?xml version="1.0" encoding="UTF-8" standalone="no"?>
<!DOCTYPE svg PUBLIC "-//W3C//DTD SVG 1.1//EN"
 "http://www.w3.org/Graphics/SVG/1.1/DTD/svg11.dtd">
<!-- Generated by graphviz version 2.36.0 (20140111.2315)
 -->
<!-- Title: importKinetics.cpp Pages: 1 -->
<svg width="1475pt" height="456pt"
 viewBox="0.00 0.00 1475.00 456.00" xmlns="http://www.w3.org/2000/svg" xmlns:xlink="http://www.w3.org/1999/xlink">
<g id="graph0" class="graph" transform="scale(1 1) rotate(0) translate(4 452)">
<title>importKinetics.cpp</title>
<polygon fill="white" stroke="none" points="-4,4 -4,-452 1471,-452 1471,4 -4,4"/>
<!-- Node1 -->
<g id="node1" class="node"><title>Node1</title>
<polygon fill="#bfbfbf" stroke="black" points="977.005,-428.5 977.005,-447.5 1073,-447.5 1073,-428.5 977.005,-428.5"/>
<text text-anchor="middle" x="1025" y="-435.5" font-family="FreeSans" font-size="10.00">importKinetics.cpp</text>
</g>
<!-- Node2 -->
<g id="node2" class="node"><title>Node2</title>
<g id="a_node2"><a xlink:href="importKinetics_8h.html" target="_top" xlink:title="Definitions of global routines for the importing of data from XML files (see Input File Handling)...">
<polygon fill="white" stroke="black" points="630.505,-372.5 630.505,-391.5 787.505,-391.5 787.505,-372.5 630.505,-372.5"/>
<text text-anchor="middle" x="709.005" y="-379.5" font-family="FreeSans" font-size="10.00">cantera/kinetics/importKinetics.h</text>
</a>
</g>
</g>
<!-- Node1&#45;&gt;Node2 -->
<g id="edge1" class="edge"><title>Node1&#45;&gt;Node2</title>
<path fill="none" stroke="midnightblue" d="M976.667,-428.74C920.935,-419.216 829.282,-403.554 769.031,-393.258"/>
<polygon fill="midnightblue" stroke="midnightblue" points="769.349,-389.761 758.902,-391.527 768.17,-396.661 769.349,-389.761"/>
</g>
<!-- Node13 -->
<g id="node13" class="node"><title>Node13</title>
<g id="a_node13"><a xlink:href="stringUtils_8h.html" target="_top" xlink:title="Contains declarations for string manipulation functions within Cantera. ">
<polygon fill="white" stroke="red" points="1160.5,-124.5 1160.5,-143.5 1285.5,-143.5 1285.5,-124.5 1160.5,-124.5"/>
<text text-anchor="middle" x="1223" y="-131.5" font-family="FreeSans" font-size="10.00">cantera/base/stringUtils.h</text>
</a>
</g>
</g>
<!-- Node1&#45;&gt;Node13 -->
<g id="edge47" class="edge"><title>Node1&#45;&gt;Node13</title>
<path fill="none" stroke="midnightblue" d="M1073.22,-429.098C1156.16,-414.129 1317,-378.464 1317,-327 1317,-327 1317,-327 1317,-263 1317,-213.99 1271.68,-171.326 1243.98,-149.826"/>
<polygon fill="midnightblue" stroke="midnightblue" points="1245.78,-146.805 1235.68,-143.608 1241.58,-152.406 1245.78,-146.805"/>
</g>
<!-- Node16 -->
<g id="node16" class="node"><title>Node16</title>
<g id="a_node16"><a xlink:href="ThermoFactory_8h.html" target="_top" xlink:title="Headers for the factory class that can create known ThermoPhase objects (see Thermodynamic Properties...">
<polygon fill="white" stroke="black" points="310.005,-254.5 310.005,-273.5 468.005,-273.5 468.005,-254.5 310.005,-254.5"/>
<text text-anchor="middle" x="389.005" y="-261.5" font-family="FreeSans" font-size="10.00">cantera/thermo/ThermoFactory.h</text>
</a>
</g>
</g>
<!-- Node1&#45;&gt;Node16 -->
<g id="edge20" class="edge"><title>Node1&#45;&gt;Node16</title>
<path fill="none" stroke="midnightblue" d="M976.808,-437.605C899.784,-437.26 744.999,-431.158 621.005,-392 536.689,-365.373 447.951,-306.947 409.15,-279.625"/>
<polygon fill="midnightblue" stroke="midnightblue" points="410.985,-276.636 400.809,-273.687 406.925,-282.338 410.985,-276.636"/>
</g>
<!-- Node22 -->
<g id="node22" class="node"><title>Node22</title>
<g id="a_node22"><a xlink:href="ReactionData_8h.html" target="_top" xlink:title="cantera/kinetics/Reaction\lData.h">
<polygon fill="white" stroke="black" points="1163,-249 1163,-279 1289,-279 1289,-249 1163,-249"/>
<text text-anchor="start" x="1171" y="-267" font-family="FreeSans" font-size="10.00">cantera/kinetics/Reaction</text>
<text text-anchor="middle" x="1226" y="-256" font-family="FreeSans" font-size="10.00">Data.h</text>
</a>
</g>
</g>
<!-- Node1&#45;&gt;Node22 -->
<g id="edge31" class="edge"><title>Node1&#45;&gt;Node22</title>
<path fill="none" stroke="midnightblue" d="M1050.52,-428.48C1088.04,-414.723 1158.08,-384.185 1199,-336 1210.34,-322.655 1217.18,-304.054 1221.14,-289.239"/>
<polygon fill="midnightblue" stroke="midnightblue" points="1224.61,-289.79 1223.53,-279.249 1217.8,-288.157 1224.61,-289.79"/>
</g>
<!-- Node27 -->
<g id="node27" class="node"><title>Node27</title>
<g id="a_node27"><a xlink:href="Reaction_8h.html" target="_top" xlink:title="cantera/kinetics/Reaction.h">
<polygon fill="white" stroke="black" points="958.005,-372.5 958.005,-391.5 1092,-391.5 1092,-372.5 958.005,-372.5"/>
<text text-anchor="middle" x="1025" y="-379.5" font-family="FreeSans" font-size="10.00">cantera/kinetics/Reaction.h</text>
</a>
</g>
</g>
<!-- Node1&#45;&gt;Node27 -->
<g id="edge39" class="edge"><title>Node1&#45;&gt;Node27</title>
<path fill="none" stroke="midnightblue" d="M1025,-428.083C1025,-421.006 1025,-410.861 1025,-401.986"/>
<polygon fill="midnightblue" stroke="midnightblue" points="1028.5,-401.751 1025,-391.751 1021.5,-401.751 1028.5,-401.751"/>
</g>
<!-- Node30 -->
<g id="node30" class="node"><title>Node30</title>
<g id="a_node30"><a xlink:href="ctml_8h.html" target="_top" xlink:title="CTML (&quot;Cantera Markup Language&quot;) is the variant of XML that Cantera uses to store data...">
<polygon fill="white" stroke="black" points="781.505,-254.5 781.505,-273.5 882.505,-273.5 882.505,-254.5 781.505,-254.5"/>
<text text-anchor="middle" x="832.005" y="-261.5" font-family="FreeSans" font-size="10.00">cantera/base/ctml.h</text>
</a>
</g>
</g>
<!-- Node1&#45;&gt;Node30 -->
<g id="edge48" class="edge"><title>Node1&#45;&gt;Node30</title>
<path fill="none" stroke="midnightblue" d="M1007.49,-428.479C991.466,-420.267 967.508,-406.917 949.005,-392 906.206,-357.496 864.688,-307.258 844.576,-281.532"/>
<polygon fill="midnightblue" stroke="midnightblue" points="847.271,-279.295 838.388,-273.52 841.731,-283.574 847.271,-279.295"/>
</g>
<!-- Node31 -->
<g id="node31" class="node"><title>Node31</title>
<polygon fill="white" stroke="#bfbfbf" points="1345.5,-372.5 1345.5,-391.5 1390.5,-391.5 1390.5,-372.5 1345.5,-372.5"/>
<text text-anchor="middle" x="1368" y="-379.5" font-family="FreeSans" font-size="10.00">cstring</text>
</g>
<!-- Node1&#45;&gt;Node31 -->
<g id="edge51" class="edge"><title>Node1&#45;&gt;Node31</title>
<path fill="none" stroke="midnightblue" d="M1073.2,-431.314C1133.69,-423.857 1240.48,-409.626 1331,-392 1332.46,-391.716 1333.95,-391.412 1335.46,-391.094"/>
<polygon fill="midnightblue" stroke="midnightblue" points="1336.4,-394.47 1345.38,-388.855 1334.85,-387.642 1336.4,-394.47"/>
</g>
<!-- Node3 -->
<g id="node3" class="node"><title>Node3</title>
<g id="a_node3"><a xlink:href="Kinetics_8h.html" target="_top" xlink:title="Base class for kinetics managers and also contains the kineticsmgr module documentation (see Kinetics...">
<polygon fill="white" stroke="black" points="642.505,-254.5 642.505,-273.5 701.505,-273.5 701.505,-254.5 642.505,-254.5"/>
<text text-anchor="middle" x="672.005" y="-261.5" font-family="FreeSans" font-size="10.00">Kinetics.h</text>
</a>
</g>
</g>
<!-- Node2&#45;&gt;Node3 -->
<g id="edge2" class="edge"><title>Node2&#45;&gt;Node3</title>
<path fill="none" stroke="midnightblue" d="M706.224,-372.281C700.221,-353.463 685.942,-308.697 677.854,-283.34"/>
<polygon fill="midnightblue" stroke="midnightblue" points="681.091,-281.968 674.717,-273.505 674.422,-284.095 681.091,-281.968"/>
</g>
<!-- Node4 -->
<g id="node4" class="node"><title>Node4</title>
<g id="a_node4"><a xlink:href="ThermoPhase_8h.html" target="_top" xlink:title="Header file for class ThermoPhase, the base class for phases with thermodynamic properties, and the text for the Module thermoprops (see Thermodynamic Properties and class ThermoPhase). ">
<polygon fill="white" stroke="black" points="313.005,-186.5 313.005,-205.5 465.005,-205.5 465.005,-186.5 313.005,-186.5"/>
<text text-anchor="middle" x="389.005" y="-193.5" font-family="FreeSans" font-size="10.00">cantera/thermo/ThermoPhase.h</text>
</a>
</g>
</g>
<!-- Node3&#45;&gt;Node4 -->
<g id="edge3" class="edge"><title>Node3&#45;&gt;Node4</title>
<path fill="none" stroke="midnightblue" d="M642.254,-256.062C593.02,-244.58 494.231,-221.54 435.649,-207.878"/>
<polygon fill="midnightblue" stroke="midnightblue" points="436.437,-204.468 425.903,-205.605 434.847,-211.285 436.437,-204.468"/>
</g>
<!-- Node11 -->
<g id="node11" class="node"><title>Node11</title>
<g id="a_node11"><a xlink:href="smart__ptr_8h_source.html" target="_top" xlink:title="cantera/base/smart\l_ptr.h">
<polygon fill="white" stroke="red" points="579.505,-57 579.505,-87 678.505,-87 678.505,-57 579.505,-57"/>
<text text-anchor="start" x="587.505" y="-75" font-family="FreeSans" font-size="10.00">cantera/base/smart</text>
<text text-anchor="middle" x="629.005" y="-64" font-family="FreeSans" font-size="10.00">_ptr.h</text>
</a>
</g>
</g>
<!-- Node3&#45;&gt;Node11 -->
<g id="edge19" class="edge"><title>Node3&#45;&gt;Node11</title>
<path fill="none" stroke="midnightblue" d="M661.738,-254.486C651.478,-245.251 636.342,-229.467 630.005,-212 616.137,-173.78 620.089,-125.664 624.413,-97.2303"/>
<polygon fill="midnightblue" stroke="midnightblue" points="627.866,-97.7965 626.051,-87.3583 620.961,-96.6502 627.866,-97.7965"/>
</g>
<!-- Node12 -->
<g id="node12" class="node"><title>Node12</title>
<g id="a_node12"><a xlink:href="StoichManager_8h.html" target="_top" xlink:title="StoichManager.h">
<polygon fill="white" stroke="black" points="793.505,-186.5 793.505,-205.5 882.505,-205.5 882.505,-186.5 793.505,-186.5"/>
<text text-anchor="middle" x="838.005" y="-193.5" font-family="FreeSans" font-size="10.00">StoichManager.h</text>
</a>
</g>
</g>
<!-- Node3&#45;&gt;Node12 -->
<g id="edge12" class="edge"><title>Node3&#45;&gt;Node12</title>
<path fill="none" stroke="midnightblue" d="M693.706,-254.372C722.617,-242.877 773.947,-222.469 806.951,-209.346"/>
<polygon fill="midnightblue" stroke="midnightblue" points="808.561,-212.473 816.561,-205.526 805.975,-205.968 808.561,-212.473"/>
</g>
<!-- Node14 -->
<g id="node14" class="node"><title>Node14</title>
<g id="a_node14"><a xlink:href="mix__defs_8h.html" target="_top" xlink:title="cantera/thermo/mix\l_defs.h">
<polygon fill="white" stroke="black" points="483.005,-181 483.005,-211 583.005,-211 583.005,-181 483.005,-181"/>
<text text-anchor="start" x="491.005" y="-199" font-family="FreeSans" font-size="10.00">cantera/thermo/mix</text>
<text text-anchor="middle" x="533.005" y="-188" font-family="FreeSans" font-size="10.00">_defs.h</text>
</a>
</g>
</g>
<!-- Node3&#45;&gt;Node14 -->
<g id="edge16" class="edge"><title>Node3&#45;&gt;Node14</title>
<path fill="none" stroke="midnightblue" d="M653.833,-254.372C633.097,-244.526 598.588,-228.141 571.747,-215.396"/>
<polygon fill="midnightblue" stroke="midnightblue" points="573.143,-212.184 562.608,-211.056 570.14,-218.507 573.143,-212.184"/>
</g>
<!-- Node15 -->
<g id="node15" class="node"><title>Node15</title>
<g id="a_node15"><a xlink:href="global_8h.html" target="_top" xlink:title="This file contains definitions for utility functions and text for modules, inputfiles, logs, textlogs, (see Input File Handling, Diagnostic Output, and Writing messages to the screen). ">
<polygon fill="white" stroke="black" points="775.005,-124.5 775.005,-143.5 883.005,-143.5 883.005,-124.5 775.005,-124.5"/>
<text text-anchor="middle" x="829.005" y="-131.5" font-family="FreeSans" font-size="10.00">cantera/base/global.h</text>
</a>
</g>
</g>
<!-- Node3&#45;&gt;Node15 -->
<g id="edge17" class="edge"><title>Node3&#45;&gt;Node15</title>
<path fill="none" stroke="midnightblue" d="M685.304,-254.475C700.232,-244.733 724.983,-228.055 745.005,-212 769.675,-192.218 796.286,-167.12 812.796,-151.057"/>
<polygon fill="midnightblue" stroke="midnightblue" points="815.345,-153.459 820.037,-143.96 810.445,-148.46 815.345,-153.459"/>
</g>
<!-- Node5 -->
<g id="node5" class="node"><title>Node5</title>
<g id="a_node5"><a xlink:href="Phase_8h.html" target="_top" xlink:title="Header file for class Phase. ">
<polygon fill="white" stroke="red" points="363.505,-124.5 363.505,-143.5 414.505,-143.5 414.505,-124.5 363.505,-124.5"/>
<text text-anchor="middle" x="389.005" y="-131.5" font-family="FreeSans" font-size="10.00">Phase.h</text>
</a>
</g>
</g>
<!-- Node4&#45;&gt;Node5 -->
<g id="edge4" class="edge"><title>Node4&#45;&gt;Node5</title>
<path fill="none" stroke="midnightblue" d="M389.005,-186.403C389.005,-177.938 389.005,-164.728 389.005,-153.82"/>
<polygon fill="midnightblue" stroke="midnightblue" points="392.505,-153.581 389.005,-143.581 385.505,-153.581 392.505,-153.581"/>
</g>
<!-- Node7 -->
<g id="node7" class="node"><title>Node7</title>
<g id="a_node7"><a xlink:href="SpeciesThermo_8h.html" target="_top" xlink:title="Virtual base class for the calculation of multiple&#45;species thermodynamic reference&#45;state property man...">
<polygon fill="white" stroke="black" points="509.005,-124.5 509.005,-143.5 601.005,-143.5 601.005,-124.5 509.005,-124.5"/>
<text text-anchor="middle" x="555.005" y="-131.5" font-family="FreeSans" font-size="10.00">SpeciesThermo.h</text>
</a>
</g>
</g>
<!-- Node4&#45;&gt;Node7 -->
<g id="edge6" class="edge"><title>Node4&#45;&gt;Node7</title>
<path fill="none" stroke="midnightblue" d="M412.788,-186.403C441.387,-176.067 489.555,-158.656 521.806,-146.999"/>
<polygon fill="midnightblue" stroke="midnightblue" points="523.05,-150.271 531.265,-143.581 520.671,-143.688 523.05,-150.271"/>
</g>
<!-- Node6 -->
<g id="node6" class="node"><title>Node6</title>
<g id="a_node6"><a xlink:href="ctexceptions_8h.html" target="_top" xlink:title="Definitions for the classes that are thrown when Cantera experiences an error condition (also contain...">
<polygon fill="white" stroke="red" points="402.505,-62.5 402.505,-81.5 539.505,-81.5 539.505,-62.5 402.505,-62.5"/>
<text text-anchor="middle" x="471.005" y="-69.5" font-family="FreeSans" font-size="10.00">cantera/base/ctexceptions.h</text>
</a>
</g>
</g>
<!-- Node5&#45;&gt;Node6 -->
<g id="edge5" class="edge"><title>Node5&#45;&gt;Node6</title>
<path fill="none" stroke="midnightblue" d="M400.753,-124.403C413.906,-114.78 435.438,-99.0242 451.203,-87.4891"/>
<polygon fill="midnightblue" stroke="midnightblue" points="453.274,-90.3103 459.278,-81.5806 449.141,-84.6611 453.274,-90.3103"/>
</g>
<!-- Node8 -->
<g id="node8" class="node"><title>Node8</title>
<g id="a_node8"><a xlink:href="ct__defs_8h.html" target="_top" xlink:title="This file contains definitions of terms that are used in internal routines and are unlikely to need m...">
<polygon fill="white" stroke="red" points="832.005,-62.5 832.005,-81.5 946.005,-81.5 946.005,-62.5 832.005,-62.5"/>
<text text-anchor="middle" x="889.005" y="-69.5" font-family="FreeSans" font-size="10.00">cantera/base/ct_defs.h</text>
</a>
</g>
</g>
<!-- Node7&#45;&gt;Node8 -->
<g id="edge7" class="edge"><title>Node7&#45;&gt;Node8</title>
<path fill="none" stroke="midnightblue" d="M601.095,-124.72C661.143,-113.933 766.144,-95.0708 831.384,-83.3509"/>
<polygon fill="midnightblue" stroke="midnightblue" points="832.277,-86.7467 841.501,-81.5336 831.039,-79.857 832.277,-86.7467"/>
</g>
<!-- Node7&#45;&gt;Node11 -->
<g id="edge10" class="edge"><title>Node7&#45;&gt;Node11</title>
<path fill="none" stroke="midnightblue" d="M565.607,-124.403C575.536,-116.353 590.756,-104.013 603.794,-93.4406"/>
<polygon fill="midnightblue" stroke="midnightblue" points="606.001,-96.1575 611.564,-87.1408 601.592,-90.7202 606.001,-96.1575"/>
</g>
<!-- Node9 -->
<g id="node9" class="node"><title>Node9</title>
<g id="a_node9"><a xlink:href="config_8h_source.html" target="_top" xlink:title="config.h">
<polygon fill="white" stroke="black" points="604.005,-0.5 604.005,-19.5 654.005,-19.5 654.005,-0.5 604.005,-0.5"/>
<text text-anchor="middle" x="629.005" y="-7.5" font-family="FreeSans" font-size="10.00">config.h</text>
</a>
</g>
</g>
<!-- Node8&#45;&gt;Node9 -->
<g id="edge8" class="edge"><title>Node8&#45;&gt;Node9</title>
<path fill="none" stroke="midnightblue" d="M852.029,-62.4672C801.899,-50.8987 713.014,-30.3867 663.954,-19.0652"/>
<polygon fill="midnightblue" stroke="midnightblue" points="664.649,-15.6336 654.118,-16.7953 663.074,-22.4543 664.649,-15.6336"/>
</g>
<!-- Node10 -->
<g id="node10" class="node"><title>Node10</title>
<polygon fill="white" stroke="#bfbfbf" points="769.505,-0.5 769.505,-19.5 812.505,-19.5 812.505,-0.5 769.505,-0.5"/>
<text text-anchor="middle" x="791.005" y="-7.5" font-family="FreeSans" font-size="10.00">vector</text>
</g>
<!-- Node8&#45;&gt;Node10 -->
<g id="edge9" class="edge"><title>Node8&#45;&gt;Node10</title>
<path fill="none" stroke="midnightblue" d="M874.964,-62.4035C858.954,-52.6014 832.554,-36.4385 813.631,-24.8526"/>
<polygon fill="midnightblue" stroke="midnightblue" points="815.376,-21.8172 805.02,-19.5806 811.721,-27.7872 815.376,-21.8172"/>
</g>
<!-- Node11&#45;&gt;Node9 -->
<g id="edge11" class="edge"><title>Node11&#45;&gt;Node9</title>
<path fill="none" stroke="midnightblue" d="M629.005,-56.7808C629.005,-48.7812 629.005,-38.6887 629.005,-30.0168"/>
<polygon fill="midnightblue" stroke="midnightblue" points="632.505,-29.7305 629.005,-19.7305 625.505,-29.7306 632.505,-29.7305"/>
</g>
<!-- Node12&#45;&gt;Node6 -->
<g id="edge15" class="edge"><title>Node12&#45;&gt;Node6</title>
<path fill="none" stroke="midnightblue" d="M793.087,-187.625C777.833,-185.155 760.683,-182.416 745.005,-180 690.618,-171.619 543.326,-177.933 500.005,-144 483.823,-131.325 476.611,-108.118 473.436,-91.6907"/>
<polygon fill="midnightblue" stroke="midnightblue" points="476.86,-90.9341 471.822,-81.6136 469.948,-92.0413 476.86,-90.9341"/>
</g>
<!-- Node12&#45;&gt;Node13 -->
<g id="edge13" class="edge"><title>Node12&#45;&gt;Node13</title>
<path fill="none" stroke="midnightblue" d="M882.545,-188.059C950.362,-177.49 1079.87,-157.306 1158.14,-145.109"/>
<polygon fill="midnightblue" stroke="midnightblue" points="1159.02,-148.514 1168.36,-143.516 1157.94,-141.597 1159.02,-148.514"/>
</g>
<!-- Node13&#45;&gt;Node8 -->
<g id="edge14" class="edge"><title>Node13&#45;&gt;Node8</title>
<path fill="none" stroke="midnightblue" d="M1175.51,-124.467C1115.16,-113.626 1011.09,-94.9318 946.376,-83.3062"/>
<polygon fill="midnightblue" stroke="midnightblue" points="946.801,-79.8267 936.34,-81.5034 945.564,-86.7164 946.801,-79.8267"/>
</g>
<!-- Node15&#45;&gt;Node8 -->
<g id="edge18" class="edge"><title>Node15&#45;&gt;Node8</title>
<path fill="none" stroke="midnightblue" d="M837.601,-124.403C846.869,-115.136 861.822,-100.183 873.217,-88.7876"/>
<polygon fill="midnightblue" stroke="midnightblue" points="875.828,-91.1266 880.424,-81.5806 870.878,-86.1768 875.828,-91.1266"/>
</g>
<!-- Node16&#45;&gt;Node4 -->
<g id="edge21" class="edge"><title>Node16&#45;&gt;Node4</title>
<path fill="none" stroke="midnightblue" d="M389.005,-254.372C389.005,-244.643 389.005,-228.528 389.005,-215.85"/>
<polygon fill="midnightblue" stroke="midnightblue" points="392.505,-215.841 389.005,-205.841 385.505,-215.841 392.505,-215.841"/>
</g>
<!-- Node17 -->
<g id="node17" class="node"><title>Node17</title>
<g id="a_node17"><a xlink:href="xml_8h.html" target="_top" xlink:title="Classes providing support for XML data files. ">
<polygon fill="white" stroke="black" points="639.005,-186.5 639.005,-205.5 737.005,-205.5 737.005,-186.5 639.005,-186.5"/>
<text text-anchor="middle" x="688.005" y="-193.5" font-family="FreeSans" font-size="10.00">cantera/base/xml.h</text>
</a>
</g>
</g>
<!-- Node16&#45;&gt;Node17 -->
<g id="edge22" class="edge"><title>Node16&#45;&gt;Node17</title>
<path fill="none" stroke="midnightblue" d="M427.787,-254.439C482.009,-242.471 580.436,-220.744 639.459,-207.716"/>
<polygon fill="midnightblue" stroke="midnightblue" points="640.28,-211.119 649.291,-205.546 638.771,-204.283 640.28,-211.119"/>
</g>
<!-- Node18 -->
<g id="node18" class="node"><title>Node18</title>
<g id="a_node18"><a xlink:href="ct__thread_8h.html" target="_top" xlink:title="cantera/base/ct_thread.h">
<polygon fill="white" stroke="black" points="69.5046,-186.5 69.5046,-205.5 192.505,-205.5 192.505,-186.5 69.5046,-186.5"/>
<text text-anchor="middle" x="131.005" y="-193.5" font-family="FreeSans" font-size="10.00">cantera/base/ct_thread.h</text>
</a>
</g>
</g>
<!-- Node16&#45;&gt;Node18 -->
<g id="edge25" class="edge"><title>Node16&#45;&gt;Node18</title>
<path fill="none" stroke="midnightblue" d="M355.54,-254.439C309.14,-242.57 225.224,-221.103 174.163,-208.041"/>
<polygon fill="midnightblue" stroke="midnightblue" points="174.965,-204.633 164.41,-205.546 173.23,-211.415 174.965,-204.633"/>
</g>
<!-- Node21 -->
<g id="node21" class="node"><title>Node21</title>
<g id="a_node21"><a xlink:href="FactoryBase_8h.html" target="_top" xlink:title="File contains the FactoryBase class declarations. ">
<polygon fill="white" stroke="black" points="227.505,-62.5 227.505,-81.5 364.505,-81.5 364.505,-62.5 227.505,-62.5"/>
<text text-anchor="middle" x="296.005" y="-69.5" font-family="FreeSans" font-size="10.00">cantera/base/FactoryBase.h</text>
</a>
</g>
</g>
<!-- Node16&#45;&gt;Node21 -->
<g id="edge29" class="edge"><title>Node16&#45;&gt;Node21</title>
<path fill="none" stroke="midnightblue" d="M361.796,-254.433C342.121,-246.691 316.829,-233.205 304.005,-212 281.246,-174.37 286.795,-120.022 291.911,-91.7235"/>
<polygon fill="midnightblue" stroke="midnightblue" points="295.402,-92.1137 293.926,-81.6222 288.537,-90.7444 295.402,-92.1137"/>
</g>
<!-- Node17&#45;&gt;Node6 -->
<g id="edge23" class="edge"><title>Node17&#45;&gt;Node6</title>
<path fill="none" stroke="midnightblue" d="M638.852,-186.963C577.065,-176.364 477.729,-157.482 467.005,-144 455.264,-129.242 458.958,-106.818 463.848,-91.1299"/>
<polygon fill="midnightblue" stroke="midnightblue" points="467.211,-92.1173 467.249,-81.5225 460.613,-89.7812 467.211,-92.1173"/>
</g>
<!-- Node17&#45;&gt;Node15 -->
<g id="edge24" class="edge"><title>Node17&#45;&gt;Node15</title>
<path fill="none" stroke="midnightblue" d="M708.206,-186.403C732.079,-176.245 772.006,-159.255 799.377,-147.607"/>
<polygon fill="midnightblue" stroke="midnightblue" points="801.009,-150.717 808.84,-143.581 798.268,-144.276 801.009,-150.717"/>
</g>
<!-- Node18&#45;&gt;Node9 -->
<g id="edge26" class="edge"><title>Node18&#45;&gt;Node9</title>
<path fill="none" stroke="midnightblue" d="M82.7704,-186.43C38.216,-176.298 -17.7486,-156.564 6.00461,-124 76.0392,-27.987 472.211,-13.5507 593.63,-11.3826"/>
<polygon fill="midnightblue" stroke="midnightblue" points="593.915,-14.8785 603.857,-11.2179 593.802,-7.87943 593.915,-14.8785"/>
</g>
<!-- Node19 -->
<g id="node19" class="node"><title>Node19</title>
<polygon fill="white" stroke="#bfbfbf" points="15.0046,-124.5 15.0046,-143.5 121.005,-143.5 121.005,-124.5 15.0046,-124.5"/>
<text text-anchor="middle" x="68.0046" y="-131.5" font-family="FreeSans" font-size="10.00">boost/shared_ptr.hpp</text>
</g>
<!-- Node18&#45;&gt;Node19 -->
<g id="edge27" class="edge"><title>Node18&#45;&gt;Node19</title>
<path fill="none" stroke="midnightblue" d="M121.978,-186.403C112.248,-177.136 96.5466,-162.183 84.5816,-150.788"/>
<polygon fill="midnightblue" stroke="midnightblue" points="86.6694,-147.943 77.0142,-143.581 81.8418,-153.012 86.6694,-147.943"/>
</g>
<!-- Node20 -->
<g id="node20" class="node"><title>Node20</title>
<polygon fill="white" stroke="#bfbfbf" points="139.505,-124.5 139.505,-143.5 256.505,-143.5 256.505,-124.5 139.505,-124.5"/>
<text text-anchor="middle" x="198.005" y="-131.5" font-family="FreeSans" font-size="10.00">boost/thread/mutex.hpp</text>
</g>
<!-- Node18&#45;&gt;Node20 -->
<g id="edge28" class="edge"><title>Node18&#45;&gt;Node20</title>
<path fill="none" stroke="midnightblue" d="M140.604,-186.403C151.052,-177.047 167.972,-161.895 180.741,-150.46"/>
<polygon fill="midnightblue" stroke="midnightblue" points="183.308,-152.859 188.423,-143.581 178.638,-147.644 183.308,-152.859"/>
</g>
<!-- Node21&#45;&gt;Node10 -->
<g id="edge30" class="edge"><title>Node21&#45;&gt;Node10</title>
<path fill="none" stroke="midnightblue" d="M348.555,-62.4731C362.949,-60.2468 378.564,-57.9321 393.005,-56 529.085,-37.7931 691.999,-20.9034 759.414,-14.1289"/>
<polygon fill="midnightblue" stroke="midnightblue" points="759.794,-17.6085 769.395,-13.1298 759.096,-10.6433 759.794,-17.6085"/>
</g>
<!-- Node23 -->
<g id="node23" class="node"><title>Node23</title>
<g id="a_node23"><a xlink:href="reaction__defs_8h.html" target="_top" xlink:title="This file defines some constants used to specify reaction types. ">
<polygon fill="white" stroke="black" points="1345,-181 1345,-211 1467,-211 1467,-181 1345,-181"/>
<text text-anchor="start" x="1353" y="-199" font-family="FreeSans" font-size="10.00">cantera/kinetics/reaction</text>
<text text-anchor="middle" x="1406" y="-188" font-family="FreeSans" font-size="10.00">_defs.h</text>
</a>
</g>
</g>
<!-- Node22&#45;&gt;Node23 -->
<g id="edge32" class="edge"><title>Node22&#45;&gt;Node23</title>
<path fill="none" stroke="midnightblue" d="M1264.62,-248.841C1292,-238.802 1328.92,-225.265 1358.16,-214.542"/>
<polygon fill="midnightblue" stroke="midnightblue" points="1359.58,-217.751 1367.76,-211.022 1357.17,-211.178 1359.58,-217.751"/>
</g>
<!-- Node24 -->
<g id="node24" class="node"><title>Node24</title>
<g id="a_node24"><a xlink:href="utilities_8h.html" target="_top" xlink:title="Various templated functions that carry out common vector operations (see Templated Utility Functions)...">
<polygon fill="white" stroke="black" points="1015.5,-186.5 1015.5,-205.5 1128.5,-205.5 1128.5,-186.5 1015.5,-186.5"/>
<text text-anchor="middle" x="1072" y="-193.5" font-family="FreeSans" font-size="10.00">cantera/base/utilities.h</text>
</a>
</g>
</g>
<!-- Node22&#45;&gt;Node24 -->
<g id="edge34" class="edge"><title>Node22&#45;&gt;Node24</title>
<path fill="none" stroke="midnightblue" d="M1192.97,-248.841C1165.85,-237.221 1127.8,-220.912 1101.65,-209.706"/>
<polygon fill="midnightblue" stroke="midnightblue" points="1102.83,-206.404 1092.26,-205.682 1100.08,-212.838 1102.83,-206.404"/>
</g>
<!-- Node23&#45;&gt;Node8 -->
<g id="edge33" class="edge"><title>Node23&#45;&gt;Node8</title>
<path fill="none" stroke="midnightblue" d="M1389.05,-180.829C1368.14,-164.206 1330.83,-137.241 1294,-124 1180.33,-83.1307 1038.47,-74.076 956.365,-72.588"/>
<polygon fill="midnightblue" stroke="midnightblue" points="956.216,-69.0855 946.165,-72.4367 956.112,-76.0847 956.216,-69.0855"/>
</g>
<!-- Node24&#45;&gt;Node8 -->
<g id="edge35" class="edge"><title>Node24&#45;&gt;Node8</title>
<path fill="none" stroke="midnightblue" d="M1059.14,-186.421C1028.11,-165.734 948.89,-112.923 910.503,-87.3321"/>
<polygon fill="midnightblue" stroke="midnightblue" points="912.366,-84.3675 902.104,-81.7326 908.483,-90.1918 912.366,-84.3675"/>
</g>
<!-- Node24&#45;&gt;Node15 -->
<g id="edge36" class="edge"><title>Node24&#45;&gt;Node15</title>
<path fill="none" stroke="midnightblue" d="M1037.45,-186.467C994.355,-175.827 920.622,-157.622 873.39,-145.959"/>
<polygon fill="midnightblue" stroke="midnightblue" points="873.991,-142.503 863.443,-143.503 872.313,-149.299 873.991,-142.503"/>
</g>
<!-- Node25 -->
<g id="node25" class="node"><title>Node25</title>
<polygon fill="white" stroke="#bfbfbf" points="1015,-124.5 1015,-143.5 1073,-143.5 1073,-124.5 1015,-124.5"/>
<text text-anchor="middle" x="1044" y="-131.5" font-family="FreeSans" font-size="10.00">stdexcept</text>
</g>
<!-- Node24&#45;&gt;Node25 -->
<g id="edge37" class="edge"><title>Node24&#45;&gt;Node25</title>
<path fill="none" stroke="midnightblue" d="M1067.99,-186.403C1063.92,-177.671 1057.49,-163.889 1052.31,-152.794"/>
<polygon fill="midnightblue" stroke="midnightblue" points="1055.41,-151.162 1048.01,-143.581 1049.07,-154.123 1055.41,-151.162"/>
</g>
<!-- Node26 -->
<g id="node26" class="node"><title>Node26</title>
<polygon fill="white" stroke="#bfbfbf" points="1091.5,-124.5 1091.5,-143.5 1142.5,-143.5 1142.5,-124.5 1091.5,-124.5"/>
<text text-anchor="middle" x="1117" y="-131.5" font-family="FreeSans" font-size="10.00">numeric</text>
</g>
<!-- Node24&#45;&gt;Node26 -->
<g id="edge38" class="edge"><title>Node24&#45;&gt;Node26</title>
<path fill="none" stroke="midnightblue" d="M1078.45,-186.403C1085.2,-177.403 1095.97,-163.041 1104.42,-151.782"/>
<polygon fill="midnightblue" stroke="midnightblue" points="1107.37,-153.681 1110.57,-143.581 1101.77,-149.481 1107.37,-153.681"/>
</g>
<!-- Node27&#45;&gt;Node11 -->
<g id="edge41" class="edge"><title>Node27&#45;&gt;Node11</title>
<path fill="none" stroke="midnightblue" d="M1005.92,-372.416C973.471,-356.361 911.005,-318.508 911.005,-265 911.005,-265 911.005,-265 911.005,-195 911.005,-162.334 915.896,-146.277 892.005,-124 863.167,-97.1118 757.168,-83.4691 688.863,-77.3212"/>
<polygon fill="midnightblue" stroke="midnightblue" points="688.923,-73.8133 678.657,-76.4328 688.316,-80.7869 688.923,-73.8133"/>
</g>
<!-- Node27&#45;&gt;Node24 -->
<g id="edge40" class="edge"><title>Node27&#45;&gt;Node24</title>
<path fill="none" stroke="midnightblue" d="M1025.17,-372.354C1025.82,-350.793 1028.95,-293.137 1044,-248 1047.98,-236.071 1054.72,-223.682 1060.58,-214.103"/>
<polygon fill="midnightblue" stroke="midnightblue" points="1063.59,-215.892 1066.02,-205.581 1057.69,-212.125 1063.59,-215.892"/>
</g>
<!-- Node28 -->
<g id="node28" class="node"><title>Node28</title>
<g id="a_node28"><a xlink:href="RxnRates_8h.html" target="_top" xlink:title="cantera/kinetics/RxnRates.h">
<polygon fill="white" stroke="black" points="1053.5,-316.5 1053.5,-335.5 1190.5,-335.5 1190.5,-316.5 1053.5,-316.5"/>
<text text-anchor="middle" x="1122" y="-323.5" font-family="FreeSans" font-size="10.00">cantera/kinetics/RxnRates.h</text>
</a>
</g>
</g>
<!-- Node27&#45;&gt;Node28 -->
<g id="edge42" class="edge"><title>Node27&#45;&gt;Node28</title>
<path fill="none" stroke="midnightblue" d="M1040.59,-372.324C1056,-363.743 1079.82,-350.486 1097.71,-340.522"/>
<polygon fill="midnightblue" stroke="midnightblue" points="1099.42,-343.577 1106.46,-335.655 1096.02,-337.461 1099.42,-343.577"/>
</g>
<!-- Node28&#45;&gt;Node6 -->
<g id="edge44" class="edge"><title>Node28&#45;&gt;Node6</title>
<path fill="none" stroke="midnightblue" d="M1106.61,-316.453C1090.77,-307.58 1065.45,-293.179 1044,-280 974.795,-237.464 965.372,-212.692 891.005,-180 856.541,-164.85 619.288,-107.996 517.366,-83.9009"/>
<polygon fill="midnightblue" stroke="midnightblue" points="517.895,-80.4294 507.358,-81.5373 516.286,-87.242 517.895,-80.4294"/>
</g>
<!-- Node28&#45;&gt;Node13 -->
<g id="edge45" class="edge"><title>Node28&#45;&gt;Node13</title>
<path fill="none" stroke="midnightblue" d="M1125.13,-316.259C1130.43,-301.77 1141.79,-271.994 1154,-248 1172,-212.671 1197.07,-173.654 1211.51,-151.955"/>
<polygon fill="midnightblue" stroke="midnightblue" points="1214.5,-153.781 1217.16,-143.527 1208.69,-149.88 1214.5,-153.781"/>
</g>
<!-- Node28&#45;&gt;Node22 -->
<g id="edge43" class="edge"><title>Node28&#45;&gt;Node22</title>
<path fill="none" stroke="midnightblue" d="M1136.91,-316.403C1151.39,-308.049 1173.87,-295.075 1192.64,-284.252"/>
<polygon fill="midnightblue" stroke="midnightblue" points="1194.58,-287.17 1201.49,-279.141 1191.08,-281.106 1194.58,-287.17"/>
</g>
<!-- Node29 -->
<g id="node29" class="node"><title>Node29</title>
<polygon fill="white" stroke="#bfbfbf" points="1053.5,-254.5 1053.5,-273.5 1106.5,-273.5 1106.5,-254.5 1053.5,-254.5"/>
<text text-anchor="middle" x="1080" y="-261.5" font-family="FreeSans" font-size="10.00">iostream</text>
</g>
<!-- Node28&#45;&gt;Node29 -->
<g id="edge46" class="edge"><title>Node28&#45;&gt;Node29</title>
<path fill="none" stroke="midnightblue" d="M1115.99,-316.403C1109.69,-307.403 1099.63,-293.041 1091.75,-281.782"/>
<polygon fill="midnightblue" stroke="midnightblue" points="1094.61,-279.766 1086.01,-273.581 1088.88,-283.78 1094.61,-279.766"/>
</g>
<!-- Node30&#45;&gt;Node8 -->
<g id="edge49" class="edge"><title>Node30&#45;&gt;Node8</title>
<path fill="none" stroke="midnightblue" d="M847.893,-254.496C862.122,-245.893 882.078,-231.142 891.005,-212 909.472,-172.398 900.817,-119.285 894.167,-91.5816"/>
<polygon fill="midnightblue" stroke="midnightblue" points="897.499,-90.4859 891.608,-81.6795 890.721,-92.2371 897.499,-90.4859"/>
</g>
<!-- Node30&#45;&gt;Node17 -->
<g id="edge50" class="edge"><title>Node30&#45;&gt;Node17</title>
<path fill="none" stroke="midnightblue" d="M813.179,-254.372C788.492,-243.057 744.962,-223.105 716.298,-209.968"/>
<polygon fill="midnightblue" stroke="midnightblue" points="717.384,-206.615 706.835,-205.63 714.467,-212.979 717.384,-206.615"/>
</g>
</g>
</svg>
