<?xml version="1.0" encoding="UTF-8" standalone="no"?>
<!DOCTYPE svg PUBLIC "-//W3C//DTD SVG 1.1//EN"
 "http://www.w3.org/Graphics/SVG/1.1/DTD/svg11.dtd">
<!-- Generated by graphviz version 2.38.0 (20140413.2041)
 -->
<!-- Title: importKinetics.cpp Pages: 1 -->
<svg width="1230pt" height="431pt"
 viewBox="0.00 0.00 1230.00 431.00" xmlns="http://www.w3.org/2000/svg" xmlns:xlink="http://www.w3.org/1999/xlink">
<g id="graph0" class="graph" transform="scale(1 1) rotate(0) translate(4 427)">
<title>importKinetics.cpp</title>
<polygon fill="white" stroke="none" points="-4,4 -4,-427 1226,-427 1226,4 -4,4"/>
<!-- Node1 -->
<g id="node1" class="node"><title>Node1</title>
<polygon fill="#bfbfbf" stroke="black" points="675,-403.5 675,-422.5 773,-422.5 773,-403.5 675,-403.5"/>
<text text-anchor="middle" x="724" y="-410.5" font-family="Helvetica,sans-Serif" font-size="10.00">importKinetics.cpp</text>
</g>
<!-- Node2 -->
<g id="node2" class="node"><title>Node2</title>
<g id="a_node2"><a xlink:href="importKinetics_8h.html" target="_top" xlink:title="Definitions of global routines for the importing of data from XML files (see Input File Handling)...">
<polygon fill="white" stroke="black" points="483.5,-347.5 483.5,-366.5 642.5,-366.5 642.5,-347.5 483.5,-347.5"/>
<text text-anchor="middle" x="563" y="-354.5" font-family="Helvetica,sans-Serif" font-size="10.00">cantera/kinetics/importKinetics.h</text>
</a>
</g>
</g>
<!-- Node1&#45;&gt;Node2 -->
<g id="edge1" class="edge"><title>Node1&#45;&gt;Node2</title>
<path fill="none" stroke="midnightblue" d="M698.489,-403.444C671.404,-394.359 628.41,-379.939 598.131,-369.783"/>
<polygon fill="midnightblue" stroke="midnightblue" points="598.986,-366.378 588.392,-366.516 596.76,-373.015 598.986,-366.378"/>
</g>
<!-- Node12 -->
<g id="node12" class="node"><title>Node12</title>
<g id="a_node12"><a xlink:href="stringUtils_8h.html" target="_top" xlink:title="Contains declarations for string manipulation functions within Cantera. ">
<polygon fill="white" stroke="red" points="705,-112.5 705,-131.5 833,-131.5 833,-112.5 705,-112.5"/>
<text text-anchor="middle" x="769" y="-119.5" font-family="Helvetica,sans-Serif" font-size="10.00">cantera/base/stringUtils.h</text>
</a>
</g>
</g>
<!-- Node1&#45;&gt;Node12 -->
<g id="edge35" class="edge"><title>Node1&#45;&gt;Node12</title>
<path fill="none" stroke="midnightblue" d="M773.052,-409.609C884.662,-402.832 1148,-378.713 1148,-302 1148,-302 1148,-302 1148,-238.5 1148,-206.049 1153.48,-189.299 1129,-168 1087.66,-132.039 936.242,-124.172 843.456,-122.823"/>
<polygon fill="midnightblue" stroke="midnightblue" points="843.319,-119.322 833.277,-122.698 843.233,-126.321 843.319,-119.322"/>
</g>
<!-- Node14 -->
<g id="node14" class="node"><title>Node14</title>
<g id="a_node14"><a xlink:href="Reaction_8h.html" target="_top" xlink:title="cantera/kinetics/Reaction.h">
<polygon fill="white" stroke="black" points="741,-230 741,-249 877,-249 877,-230 741,-230"/>
<text text-anchor="middle" x="809" y="-237" font-family="Helvetica,sans-Serif" font-size="10.00">cantera/kinetics/Reaction.h</text>
</a>
</g>
</g>
<!-- Node1&#45;&gt;Node14 -->
<g id="edge34" class="edge"><title>Node1&#45;&gt;Node14</title>
<path fill="none" stroke="midnightblue" d="M728.332,-403.26C741.634,-376.421 782.079,-294.818 800.133,-258.39"/>
<polygon fill="midnightblue" stroke="midnightblue" points="803.473,-259.534 804.778,-249.019 797.201,-256.425 803.473,-259.534"/>
</g>
<!-- Node18 -->
<g id="node18" class="node"><title>Node18</title>
<g id="a_node18"><a xlink:href="ThermoFactory_8h.html" target="_top" xlink:title="Headers for the factory class that can create known ThermoPhase objects (see Thermodynamic Properties...">
<polygon fill="white" stroke="black" points="260.5,-291.5 260.5,-310.5 419.5,-310.5 419.5,-291.5 260.5,-291.5"/>
<text text-anchor="middle" x="340" y="-298.5" font-family="Helvetica,sans-Serif" font-size="10.00">cantera/thermo/ThermoFactory.h</text>
</a>
</g>
</g>
<!-- Node1&#45;&gt;Node18 -->
<g id="edge24" class="edge"><title>Node1&#45;&gt;Node18</title>
<path fill="none" stroke="midnightblue" d="M674.636,-407.148C623.493,-401.193 541.721,-389.057 474,-367 433.273,-353.735 389.144,-330.42 363.07,-315.616"/>
<polygon fill="midnightblue" stroke="midnightblue" points="364.734,-312.535 354.321,-310.581 361.242,-318.602 364.734,-312.535"/>
</g>
<!-- Node23 -->
<g id="node23" class="node"><title>Node23</title>
<g id="a_node23"><a xlink:href="ctml_8h.html" target="_top" xlink:title="CTML (&quot;Cantera Markup Language&quot;) is the variant of XML that Cantera uses to store data...">
<polygon fill="white" stroke="black" points="619.5,-230 619.5,-249 722.5,-249 722.5,-230 619.5,-230"/>
<text text-anchor="middle" x="671" y="-237" font-family="Helvetica,sans-Serif" font-size="10.00">cantera/base/ctml.h</text>
</a>
</g>
</g>
<!-- Node1&#45;&gt;Node23 -->
<g id="edge36" class="edge"><title>Node1&#45;&gt;Node23</title>
<path fill="none" stroke="midnightblue" d="M721.299,-403.26C713.04,-376.536 688.002,-295.517 676.674,-258.862"/>
<polygon fill="midnightblue" stroke="midnightblue" points="679.929,-257.54 673.633,-249.019 673.242,-259.607 679.929,-257.54"/>
</g>
<!-- Node24 -->
<g id="node24" class="node"><title>Node24</title>
<polygon fill="white" stroke="#bfbfbf" points="1176,-347.5 1176,-366.5 1222,-366.5 1222,-347.5 1176,-347.5"/>
<text text-anchor="middle" x="1199" y="-354.5" font-family="Helvetica,sans-Serif" font-size="10.00">cstring</text>
</g>
<!-- Node1&#45;&gt;Node24 -->
<g id="edge39" class="edge"><title>Node1&#45;&gt;Node24</title>
<path fill="none" stroke="midnightblue" d="M773.234,-409.136C854.605,-403.914 1022.07,-391.092 1162,-367 1163.25,-366.785 1164.51,-366.553 1165.79,-366.306"/>
<polygon fill="midnightblue" stroke="midnightblue" points="1166.57,-369.718 1175.61,-364.198 1165.1,-362.874 1166.57,-369.718"/>
</g>
<!-- Node3 -->
<g id="node3" class="node"><title>Node3</title>
<g id="a_node3"><a xlink:href="Kinetics_8h.html" target="_top" xlink:title="Base class for kinetics managers and also contains the kineticsmgr module documentation (see Kinetics...">
<polygon fill="white" stroke="black" points="527,-291.5 527,-310.5 587,-310.5 587,-291.5 527,-291.5"/>
<text text-anchor="middle" x="557" y="-298.5" font-family="Helvetica,sans-Serif" font-size="10.00">Kinetics.h</text>
</a>
</g>
</g>
<!-- Node2&#45;&gt;Node3 -->
<g id="edge2" class="edge"><title>Node2&#45;&gt;Node3</title>
<path fill="none" stroke="midnightblue" d="M562.009,-347.083C561.214,-339.927 560.071,-329.635 559.077,-320.691"/>
<polygon fill="midnightblue" stroke="midnightblue" points="562.555,-320.303 557.972,-310.751 555.598,-321.076 562.555,-320.303"/>
</g>
<!-- Node4 -->
<g id="node4" class="node"><title>Node4</title>
<g id="a_node4"><a xlink:href="ThermoPhase_8h.html" target="_top" xlink:title="Header file for class ThermoPhase, the base class for phases with thermodynamic properties, and the text for the Module thermoprops (see Thermodynamic Properties and class ThermoPhase). ">
<polygon fill="white" stroke="black" points="210,-230 210,-249 364,-249 364,-230 210,-230"/>
<text text-anchor="middle" x="287" y="-237" font-family="Helvetica,sans-Serif" font-size="10.00">cantera/thermo/ThermoPhase.h</text>
</a>
</g>
</g>
<!-- Node3&#45;&gt;Node4 -->
<g id="edge3" class="edge"><title>Node3&#45;&gt;Node4</title>
<path fill="none" stroke="midnightblue" d="M526.813,-293.348C480.436,-283.128 391.205,-263.464 335.632,-251.217"/>
<polygon fill="midnightblue" stroke="midnightblue" points="336.184,-247.755 325.665,-249.021 334.678,-254.591 336.184,-247.755"/>
</g>
<!-- Node8 -->
<g id="node8" class="node"><title>Node8</title>
<g id="a_node8"><a xlink:href="global_8h.html" target="_top" xlink:title="This file contains definitions for utility functions and text for modules, inputfiles, logs, textlogs, (see Input File Handling, Diagnostic Output, and Writing messages to the screen). ">
<polygon fill="white" stroke="red" points="505,-112.5 505,-131.5 615,-131.5 615,-112.5 505,-112.5"/>
<text text-anchor="middle" x="560" y="-119.5" font-family="Helvetica,sans-Serif" font-size="10.00">cantera/base/global.h</text>
</a>
</g>
</g>
<!-- Node3&#45;&gt;Node8 -->
<g id="edge23" class="edge"><title>Node3&#45;&gt;Node8</title>
<path fill="none" stroke="midnightblue" d="M555.051,-291.309C550.581,-270.129 540.461,-214.194 547,-168 548.268,-159.042 550.889,-149.372 553.448,-141.3"/>
<polygon fill="midnightblue" stroke="midnightblue" points="556.771,-142.398 556.656,-131.803 550.139,-140.157 556.771,-142.398"/>
</g>
<!-- Node11 -->
<g id="node11" class="node"><title>Node11</title>
<g id="a_node11"><a xlink:href="StoichManager_8h.html" target="_top" xlink:title="StoichManager.h">
<polygon fill="white" stroke="black" points="556,-168.5 556,-187.5 646,-187.5 646,-168.5 556,-168.5"/>
<text text-anchor="middle" x="601" y="-175.5" font-family="Helvetica,sans-Serif" font-size="10.00">StoichManager.h</text>
</a>
</g>
</g>
<!-- Node3&#45;&gt;Node11 -->
<g id="edge10" class="edge"><title>Node3&#45;&gt;Node11</title>
<path fill="none" stroke="midnightblue" d="M560.164,-291.298C567.3,-271.676 584.768,-223.638 594.384,-197.193"/>
<polygon fill="midnightblue" stroke="midnightblue" points="597.736,-198.217 597.864,-187.623 591.158,-195.825 597.736,-198.217"/>
</g>
<!-- Node13 -->
<g id="node13" class="node"><title>Node13</title>
<g id="a_node13"><a xlink:href="mix__defs_8h.html" target="_top" xlink:title="cantera/thermo/mix\l_defs.h">
<polygon fill="white" stroke="black" points="420.5,-224.5 420.5,-254.5 521.5,-254.5 521.5,-224.5 420.5,-224.5"/>
<text text-anchor="start" x="428.5" y="-242.5" font-family="Helvetica,sans-Serif" font-size="10.00">cantera/thermo/mix</text>
<text text-anchor="middle" x="471" y="-231.5" font-family="Helvetica,sans-Serif" font-size="10.00">_defs.h</text>
</a>
</g>
</g>
<!-- Node3&#45;&gt;Node13 -->
<g id="edge14" class="edge"><title>Node3&#45;&gt;Node13</title>
<path fill="none" stroke="midnightblue" d="M544.678,-291.475C533.031,-283.417 515.117,-271.023 499.87,-260.474"/>
<polygon fill="midnightblue" stroke="midnightblue" points="501.484,-257.334 491.268,-254.523 497.501,-263.091 501.484,-257.334"/>
</g>
<!-- Node3&#45;&gt;Node14 -->
<g id="edge15" class="edge"><title>Node3&#45;&gt;Node14</title>
<path fill="none" stroke="midnightblue" d="M587.397,-292.823C631.087,-282.507 711.981,-263.407 763.01,-251.359"/>
<polygon fill="midnightblue" stroke="midnightblue" points="763.87,-254.752 772.798,-249.048 762.261,-247.939 763.87,-254.752"/>
</g>
<!-- Node5 -->
<g id="node5" class="node"><title>Node5</title>
<g id="a_node5"><a xlink:href="Phase_8h.html" target="_top" xlink:title="Header file for class Phase. ">
<polygon fill="white" stroke="red" points="158.5,-168.5 158.5,-187.5 211.5,-187.5 211.5,-168.5 158.5,-168.5"/>
<text text-anchor="middle" x="185" y="-175.5" font-family="Helvetica,sans-Serif" font-size="10.00">Phase.h</text>
</a>
</g>
</g>
<!-- Node4&#45;&gt;Node5 -->
<g id="edge4" class="edge"><title>Node4&#45;&gt;Node5</title>
<path fill="none" stroke="midnightblue" d="M272.386,-229.975C255.647,-220.211 227.996,-204.081 208.281,-192.581"/>
<polygon fill="midnightblue" stroke="midnightblue" points="209.988,-189.525 199.587,-187.509 206.461,-195.571 209.988,-189.525"/>
</g>
<!-- Node7 -->
<g id="node7" class="node"><title>Node7</title>
<g id="a_node7"><a xlink:href="MultiSpeciesThermo_8h.html" target="_top" xlink:title="Header for a general species thermodynamic property manager for a phase (see MultiSpeciesThermo). ">
<polygon fill="white" stroke="red" points="230,-168.5 230,-187.5 344,-187.5 344,-168.5 230,-168.5"/>
<text text-anchor="middle" x="287" y="-175.5" font-family="Helvetica,sans-Serif" font-size="10.00">MultiSpeciesThermo.h</text>
</a>
</g>
</g>
<!-- Node4&#45;&gt;Node7 -->
<g id="edge6" class="edge"><title>Node4&#45;&gt;Node7</title>
<path fill="none" stroke="midnightblue" d="M287,-229.975C287,-221.58 287,-208.481 287,-197.663"/>
<polygon fill="midnightblue" stroke="midnightblue" points="290.5,-197.509 287,-187.509 283.5,-197.509 290.5,-197.509"/>
</g>
<!-- Node4&#45;&gt;Node8 -->
<g id="edge7" class="edge"><title>Node4&#45;&gt;Node8</title>
<path fill="none" stroke="midnightblue" d="M297.218,-229.822C315.091,-215.063 353.69,-185.02 391,-168 425.923,-152.069 467.568,-140.898 500.779,-133.671"/>
<polygon fill="midnightblue" stroke="midnightblue" points="501.738,-137.046 510.799,-131.554 500.291,-130.197 501.738,-137.046"/>
</g>
<!-- Node6 -->
<g id="node6" class="node"><title>Node6</title>
<g id="a_node6"><a xlink:href="ctexceptions_8h.html" target="_top" xlink:title="Definitions for the classes that are thrown when Cantera experiences an error condition (also contain...">
<polygon fill="white" stroke="red" points="347,-112.5 347,-131.5 487,-131.5 487,-112.5 347,-112.5"/>
<text text-anchor="middle" x="417" y="-119.5" font-family="Helvetica,sans-Serif" font-size="10.00">cantera/base/ctexceptions.h</text>
</a>
</g>
</g>
<!-- Node5&#45;&gt;Node6 -->
<g id="edge5" class="edge"><title>Node5&#45;&gt;Node6</title>
<path fill="none" stroke="midnightblue" d="M211.722,-170.259C214.848,-169.488 217.993,-168.721 221,-168 271.284,-155.943 328.989,-142.775 368.697,-133.817"/>
<polygon fill="midnightblue" stroke="midnightblue" points="369.655,-137.189 378.641,-131.577 368.116,-130.36 369.655,-137.189"/>
</g>
<!-- Node9 -->
<g id="node9" class="node"><title>Node9</title>
<g id="a_node9"><a xlink:href="ct__defs_8h.html" target="_top" xlink:title="This file contains definitions of terms that are used in internal routines and are unlikely to need m...">
<polygon fill="white" stroke="red" points="645.5,-56.5 645.5,-75.5 702.5,-75.5 702.5,-56.5 645.5,-56.5"/>
<text text-anchor="middle" x="674" y="-63.5" font-family="Helvetica,sans-Serif" font-size="10.00">ct_defs.h</text>
</a>
</g>
</g>
<!-- Node8&#45;&gt;Node9 -->
<g id="edge8" class="edge"><title>Node8&#45;&gt;Node9</title>
<path fill="none" stroke="midnightblue" d="M578.064,-112.444C596.575,-103.675 625.581,-89.9355 646.855,-79.8579"/>
<polygon fill="midnightblue" stroke="midnightblue" points="648.482,-82.9604 656.021,-75.5164 645.485,-76.6343 648.482,-82.9604"/>
</g>
<!-- Node10 -->
<g id="node10" class="node"><title>Node10</title>
<polygon fill="white" stroke="#bfbfbf" points="432,-0.5 432,-19.5 476,-19.5 476,-0.5 432,-0.5"/>
<text text-anchor="middle" x="454" y="-7.5" font-family="Helvetica,sans-Serif" font-size="10.00">vector</text>
</g>
<!-- Node9&#45;&gt;Node10 -->
<g id="edge9" class="edge"><title>Node9&#45;&gt;Node10</title>
<path fill="none" stroke="midnightblue" d="M645.239,-57.9404C604.136,-47.8515 528.84,-29.3698 486.014,-18.8581"/>
<polygon fill="midnightblue" stroke="midnightblue" points="486.667,-15.4144 476.121,-16.4296 484.998,-22.2126 486.667,-15.4144"/>
</g>
<!-- Node11&#45;&gt;Node6 -->
<g id="edge13" class="edge"><title>Node11&#45;&gt;Node6</title>
<path fill="none" stroke="midnightblue" d="M571.845,-168.444C540.487,-159.241 490.469,-144.562 455.803,-134.388"/>
<polygon fill="midnightblue" stroke="midnightblue" points="456.6,-130.974 446.019,-131.516 454.629,-137.691 456.6,-130.974"/>
</g>
<!-- Node11&#45;&gt;Node12 -->
<g id="edge11" class="edge"><title>Node11&#45;&gt;Node12</title>
<path fill="none" stroke="midnightblue" d="M627.62,-168.444C656.006,-159.32 701.137,-144.813 732.753,-134.651"/>
<polygon fill="midnightblue" stroke="midnightblue" points="734.055,-137.909 742.504,-131.516 731.913,-131.244 734.055,-137.909"/>
</g>
<!-- Node12&#45;&gt;Node9 -->
<g id="edge12" class="edge"><title>Node12&#45;&gt;Node9</title>
<path fill="none" stroke="midnightblue" d="M753.737,-112.324C738.779,-103.822 715.745,-90.7288 698.273,-80.7975"/>
<polygon fill="midnightblue" stroke="midnightblue" points="699.649,-77.5534 689.226,-75.6545 696.19,-83.639 699.649,-77.5534"/>
</g>
<!-- Node15 -->
<g id="node15" class="node"><title>Node15</title>
<g id="a_node15"><a xlink:href="utilities_8h.html" target="_top" xlink:title="Various templated functions that carry out common vector operations (see Templated Utility Functions)...">
<polygon fill="white" stroke="red" points="1004.5,-168.5 1004.5,-187.5 1119.5,-187.5 1119.5,-168.5 1004.5,-168.5"/>
<text text-anchor="middle" x="1062" y="-175.5" font-family="Helvetica,sans-Serif" font-size="10.00">cantera/base/utilities.h</text>
</a>
</g>
</g>
<!-- Node14&#45;&gt;Node15 -->
<g id="edge16" class="edge"><title>Node14&#45;&gt;Node15</title>
<path fill="none" stroke="midnightblue" d="M845.249,-229.975C890.15,-219.415 966.706,-201.411 1015.78,-189.869"/>
<polygon fill="midnightblue" stroke="midnightblue" points="1016.89,-193.206 1025.82,-187.509 1015.28,-186.391 1016.89,-193.206"/>
</g>
<!-- Node16 -->
<g id="node16" class="node"><title>Node16</title>
<g id="a_node16"><a xlink:href="RxnRates_8h.html" target="_top" xlink:title="cantera/kinetics/RxnRates.h">
<polygon fill="white" stroke="red" points="702.5,-168.5 702.5,-187.5 843.5,-187.5 843.5,-168.5 702.5,-168.5"/>
<text text-anchor="middle" x="773" y="-175.5" font-family="Helvetica,sans-Serif" font-size="10.00">cantera/kinetics/RxnRates.h</text>
</a>
</g>
</g>
<!-- Node14&#45;&gt;Node16 -->
<g id="edge19" class="edge"><title>Node14&#45;&gt;Node16</title>
<path fill="none" stroke="midnightblue" d="M803.842,-229.975C798.549,-221.227 790.165,-207.369 783.473,-196.309"/>
<polygon fill="midnightblue" stroke="midnightblue" points="786.32,-194.253 778.148,-187.509 780.33,-197.877 786.32,-194.253"/>
</g>
<!-- Node17 -->
<g id="node17" class="node"><title>Node17</title>
<g id="a_node17"><a xlink:href="Falloff_8h_source.html" target="_top" xlink:title="cantera/kinetics/Falloff.h">
<polygon fill="white" stroke="red" points="862,-168.5 862,-187.5 986,-187.5 986,-168.5 862,-168.5"/>
<text text-anchor="middle" x="924" y="-175.5" font-family="Helvetica,sans-Serif" font-size="10.00">cantera/kinetics/Falloff.h</text>
</a>
</g>
</g>
<!-- Node14&#45;&gt;Node17 -->
<g id="edge22" class="edge"><title>Node14&#45;&gt;Node17</title>
<path fill="none" stroke="midnightblue" d="M825.477,-229.975C844.605,-220.078 876.373,-203.642 898.652,-192.115"/>
<polygon fill="midnightblue" stroke="midnightblue" points="900.281,-195.213 907.554,-187.509 897.064,-188.996 900.281,-195.213"/>
</g>
<!-- Node15&#45;&gt;Node8 -->
<g id="edge18" class="edge"><title>Node15&#45;&gt;Node8</title>
<path fill="none" stroke="midnightblue" d="M1004.27,-169.132C1001.14,-168.74 998.03,-168.36 995,-168 864.05,-152.435 710.55,-137.276 625.379,-129.137"/>
<polygon fill="midnightblue" stroke="midnightblue" points="625.624,-125.645 615.337,-128.18 624.96,-132.613 625.624,-125.645"/>
</g>
<!-- Node15&#45;&gt;Node9 -->
<g id="edge17" class="edge"><title>Node15&#45;&gt;Node9</title>
<path fill="none" stroke="midnightblue" d="M1033.94,-168.458C992.184,-155.807 911.196,-131.486 842,-112 797.749,-99.5388 746.711,-85.9831 712.61,-77.0423"/>
<polygon fill="midnightblue" stroke="midnightblue" points="713.158,-73.5678 702.598,-74.4221 711.386,-80.3397 713.158,-73.5678"/>
</g>
<!-- Node16&#45;&gt;Node6 -->
<g id="edge20" class="edge"><title>Node16&#45;&gt;Node6</title>
<path fill="none" stroke="midnightblue" d="M716.591,-168.444C653.185,-158.826 550.352,-143.228 483.196,-133.041"/>
<polygon fill="midnightblue" stroke="midnightblue" points="483.557,-129.556 473.145,-131.516 482.507,-136.477 483.557,-129.556"/>
</g>
<!-- Node16&#45;&gt;Node12 -->
<g id="edge21" class="edge"><title>Node16&#45;&gt;Node12</title>
<path fill="none" stroke="midnightblue" d="M772.339,-168.083C771.815,-161.006 771.064,-150.861 770.406,-141.986"/>
<polygon fill="midnightblue" stroke="midnightblue" points="773.877,-141.465 769.648,-131.751 766.897,-141.982 773.877,-141.465"/>
</g>
<!-- Node18&#45;&gt;Node4 -->
<g id="edge25" class="edge"><title>Node18&#45;&gt;Node4</title>
<path fill="none" stroke="midnightblue" d="M332.406,-291.475C324.299,-282.373 311.265,-267.741 301.237,-256.483"/>
<polygon fill="midnightblue" stroke="midnightblue" points="303.844,-254.148 294.58,-249.009 298.617,-258.804 303.844,-254.148"/>
</g>
<!-- Node19 -->
<g id="node19" class="node"><title>Node19</title>
<g id="a_node19"><a xlink:href="xml_8h.html" target="_top" xlink:title="Classes providing support for XML data files. ">
<polygon fill="white" stroke="black" points="400,-168.5 400,-187.5 500,-187.5 500,-168.5 400,-168.5"/>
<text text-anchor="middle" x="450" y="-175.5" font-family="Helvetica,sans-Serif" font-size="10.00">cantera/base/xml.h</text>
</a>
</g>
</g>
<!-- Node18&#45;&gt;Node19 -->
<g id="edge26" class="edge"><title>Node18&#45;&gt;Node19</title>
<path fill="none" stroke="midnightblue" d="M347.911,-291.298C366.225,-271.153 411.767,-221.056 435.341,-195.125"/>
<polygon fill="midnightblue" stroke="midnightblue" points="438.024,-197.377 442.161,-187.623 432.844,-192.668 438.024,-197.377"/>
</g>
<!-- Node20 -->
<g id="node20" class="node"><title>Node20</title>
<g id="a_node20"><a xlink:href="FactoryBase_8h.html" target="_top" xlink:title="File contains the FactoryBase class declarations. ">
<polygon fill="white" stroke="black" points="0,-168.5 0,-187.5 140,-187.5 140,-168.5 0,-168.5"/>
<text text-anchor="middle" x="70" y="-175.5" font-family="Helvetica,sans-Serif" font-size="10.00">cantera/base/FactoryBase.h</text>
</a>
</g>
</g>
<!-- Node18&#45;&gt;Node20 -->
<g id="edge29" class="edge"><title>Node18&#45;&gt;Node20</title>
<path fill="none" stroke="midnightblue" d="M306.97,-291.449C278.335,-283.535 236.098,-270.648 201,-255 160.577,-236.977 116.675,-209.797 91.3461,-193.294"/>
<polygon fill="midnightblue" stroke="midnightblue" points="93.1734,-190.307 82.8956,-187.734 89.3257,-196.155 93.1734,-190.307"/>
</g>
<!-- Node19&#45;&gt;Node6 -->
<g id="edge27" class="edge"><title>Node19&#45;&gt;Node6</title>
<path fill="none" stroke="midnightblue" d="M444.551,-168.083C439.986,-160.613 433.332,-149.724 427.707,-140.52"/>
<polygon fill="midnightblue" stroke="midnightblue" points="430.549,-138.459 422.348,-131.751 424.576,-142.109 430.549,-138.459"/>
</g>
<!-- Node19&#45;&gt;Node8 -->
<g id="edge28" class="edge"><title>Node19&#45;&gt;Node8</title>
<path fill="none" stroke="midnightblue" d="M467.673,-168.324C485.394,-159.625 512.903,-146.12 533.288,-136.113"/>
<polygon fill="midnightblue" stroke="midnightblue" points="534.936,-139.203 542.37,-131.655 531.851,-132.919 534.936,-139.203"/>
</g>
<!-- Node20&#45;&gt;Node6 -->
<g id="edge33" class="edge"><title>Node20&#45;&gt;Node6</title>
<path fill="none" stroke="midnightblue" d="M124.983,-168.444C186.659,-158.846 286.608,-143.292 352.074,-133.104"/>
<polygon fill="midnightblue" stroke="midnightblue" points="352.931,-136.513 362.274,-131.516 351.855,-129.596 352.931,-136.513"/>
</g>
<!-- Node20&#45;&gt;Node10 -->
<g id="edge30" class="edge"><title>Node20&#45;&gt;Node10</title>
<path fill="none" stroke="midnightblue" d="M89.8369,-168.425C153.038,-141.103 349.901,-56.0011 424.733,-23.6519"/>
<polygon fill="midnightblue" stroke="midnightblue" points="426.261,-26.8044 434.051,-19.6237 423.483,-20.3791 426.261,-26.8044"/>
</g>
<!-- Node21 -->
<g id="node21" class="node"><title>Node21</title>
<polygon fill="white" stroke="#bfbfbf" points="7,-112.5 7,-131.5 51,-131.5 51,-112.5 7,-112.5"/>
<text text-anchor="middle" x="29" y="-119.5" font-family="Helvetica,sans-Serif" font-size="10.00">mutex</text>
</g>
<!-- Node20&#45;&gt;Node21 -->
<g id="edge31" class="edge"><title>Node20&#45;&gt;Node21</title>
<path fill="none" stroke="midnightblue" d="M63.2297,-168.083C57.4384,-160.455 48.9415,-149.264 41.8625,-139.941"/>
<polygon fill="midnightblue" stroke="midnightblue" points="44.479,-137.599 35.6443,-131.751 38.9039,-141.832 44.479,-137.599"/>
</g>
<!-- Node22 -->
<g id="node22" class="node"><title>Node22</title>
<polygon fill="white" stroke="#bfbfbf" points="69.5,-112.5 69.5,-131.5 152.5,-131.5 152.5,-112.5 69.5,-112.5"/>
<text text-anchor="middle" x="111" y="-119.5" font-family="Helvetica,sans-Serif" font-size="10.00">unordered_map</text>
</g>
<!-- Node20&#45;&gt;Node22 -->
<g id="edge32" class="edge"><title>Node20&#45;&gt;Node22</title>
<path fill="none" stroke="midnightblue" d="M76.7703,-168.083C82.5616,-160.455 91.0585,-149.264 98.1375,-139.941"/>
<polygon fill="midnightblue" stroke="midnightblue" points="101.096,-141.832 104.356,-131.751 95.521,-137.599 101.096,-141.832"/>
</g>
<!-- Node23&#45;&gt;Node9 -->
<g id="edge37" class="edge"><title>Node23&#45;&gt;Node9</title>
<path fill="none" stroke="midnightblue" d="M671.153,-229.76C671.618,-203.151 673.025,-122.715 673.67,-85.8382"/>
<polygon fill="midnightblue" stroke="midnightblue" points="677.175,-85.5791 673.851,-75.5194 670.177,-85.4566 677.175,-85.5791"/>
</g>
<!-- Node23&#45;&gt;Node19 -->
<g id="edge38" class="edge"><title>Node23&#45;&gt;Node19</title>
<path fill="none" stroke="midnightblue" d="M639.336,-229.975C600.442,-219.504 534.358,-201.712 491.452,-190.16"/>
<polygon fill="midnightblue" stroke="midnightblue" points="492.171,-186.729 481.605,-187.509 490.351,-193.489 492.171,-186.729"/>
</g>
</g>
</svg>
