<?xml version="1.0" encoding="UTF-8" standalone="no"?>
<!DOCTYPE svg PUBLIC "-//W3C//DTD SVG 1.1//EN"
 "http://www.w3.org/Graphics/SVG/1.1/DTD/svg11.dtd">
<!-- Generated by graphviz version 2.38.0 (20140413.2041)
 -->
<!-- Title: IncompressibleSolid.h Pages: 1 -->
<svg width="1112pt" height="431pt"
 viewBox="0.00 0.00 1111.50 431.00" xmlns="http://www.w3.org/2000/svg" xmlns:xlink="http://www.w3.org/1999/xlink">
<g id="graph0" class="graph" transform="scale(1 1) rotate(0) translate(4 427)">
<title>IncompressibleSolid.h</title>
<polygon fill="white" stroke="none" points="-4,4 -4,-427 1107.5,-427 1107.5,4 -4,4"/>
<!-- Node1 -->
<g id="node1" class="node"><title>Node1</title>
<polygon fill="#bfbfbf" stroke="black" points="299.5,-403.5 299.5,-422.5 412.5,-422.5 412.5,-403.5 299.5,-403.5"/>
<text text-anchor="middle" x="356" y="-410.5" font-family="Helvetica,sans-Serif" font-size="10.00">IncompressibleSolid.h</text>
</g>
<!-- Node2 -->
<g id="node2" class="node"><title>Node2</title>
<g id="a_node2"><a xlink:href="ConstDensityThermo_8h.html" target="_top" xlink:title="Header for a Thermo manager for incompressible ThermoPhases (see Thermodynamic Properties and ConstDe...">
<polygon fill="white" stroke="black" points="213.5,-291.5 213.5,-310.5 364.5,-310.5 364.5,-291.5 213.5,-291.5"/>
<text text-anchor="middle" x="289" y="-298.5" font-family="Helvetica,sans-Serif" font-size="10.00">thermo/ConstDensityThermo.h</text>
</a>
</g>
</g>
<!-- Node1&#45;&gt;Node2 -->
<g id="edge1" class="edge"><title>Node1&#45;&gt;Node2</title>
<path fill="none" stroke="midnightblue" d="M350.743,-403.368C339.735,-385.296 314.08,-343.176 299.542,-319.307"/>
<polygon fill="midnightblue" stroke="midnightblue" points="302.424,-317.311 294.233,-310.591 296.446,-320.953 302.424,-317.311"/>
</g>
<!-- Node16 -->
<g id="node16" class="node"><title>Node16</title>
<g id="a_node16"><a xlink:href="importKinetics_8h.html" target="_top" xlink:title="Definitions of global routines for the importing of data from XML files (see Input File Handling)...">
<polygon fill="white" stroke="black" points="344,-347.5 344,-366.5 468,-366.5 468,-347.5 344,-347.5"/>
<text text-anchor="middle" x="406" y="-354.5" font-family="Helvetica,sans-Serif" font-size="10.00">kinetics/importKinetics.h</text>
</a>
</g>
</g>
<!-- Node1&#45;&gt;Node16 -->
<g id="edge23" class="edge"><title>Node1&#45;&gt;Node16</title>
<path fill="none" stroke="midnightblue" d="M364.256,-403.083C371.465,-395.298 382.11,-383.801 390.846,-374.367"/>
<polygon fill="midnightblue" stroke="midnightblue" points="393.671,-376.467 397.897,-366.751 388.535,-371.711 393.671,-376.467"/>
</g>
<!-- Node3 -->
<g id="node3" class="node"><title>Node3</title>
<g id="a_node3"><a xlink:href="ThermoPhase_8h.html" target="_top" xlink:title="Header file for class ThermoPhase, the base class for phases with thermodynamic properties, and the text for the Module thermoprops (see Thermodynamic Properties and class ThermoPhase). ">
<polygon fill="white" stroke="black" points="246,-230 246,-249 332,-249 332,-230 246,-230"/>
<text text-anchor="middle" x="289" y="-237" font-family="Helvetica,sans-Serif" font-size="10.00">ThermoPhase.h</text>
</a>
</g>
</g>
<!-- Node2&#45;&gt;Node3 -->
<g id="edge2" class="edge"><title>Node2&#45;&gt;Node3</title>
<path fill="none" stroke="midnightblue" d="M289,-291.475C289,-283.08 289,-269.981 289,-259.163"/>
<polygon fill="midnightblue" stroke="midnightblue" points="292.5,-259.009 289,-249.009 285.5,-259.009 292.5,-259.009"/>
</g>
<!-- Node13 -->
<g id="node13" class="node"><title>Node13</title>
<g id="a_node13"><a xlink:href="utilities_8h.html" target="_top" xlink:title="Various templated functions that carry out common vector operations (see Templated Utility Functions)...">
<polygon fill="white" stroke="black" points="80.5,-112.5 80.5,-131.5 195.5,-131.5 195.5,-112.5 80.5,-112.5"/>
<text text-anchor="middle" x="138" y="-119.5" font-family="Helvetica,sans-Serif" font-size="10.00">cantera/base/utilities.h</text>
</a>
</g>
</g>
<!-- Node2&#45;&gt;Node13 -->
<g id="edge18" class="edge"><title>Node2&#45;&gt;Node13</title>
<path fill="none" stroke="midnightblue" d="M277.629,-291.331C266.657,-282.704 249.864,-268.796 237,-255 201.332,-216.749 166.184,-165.917 148.957,-139.906"/>
<polygon fill="midnightblue" stroke="midnightblue" points="151.865,-137.958 143.453,-131.515 146.012,-141.797 151.865,-137.958"/>
</g>
<!-- Node4 -->
<g id="node4" class="node"><title>Node4</title>
<g id="a_node4"><a xlink:href="Phase_8h.html" target="_top" xlink:title="Header file for class Phase. ">
<polygon fill="white" stroke="black" points="782.5,-112.5 782.5,-131.5 835.5,-131.5 835.5,-112.5 782.5,-112.5"/>
<text text-anchor="middle" x="809" y="-119.5" font-family="Helvetica,sans-Serif" font-size="10.00">Phase.h</text>
</a>
</g>
</g>
<!-- Node3&#45;&gt;Node4 -->
<g id="edge3" class="edge"><title>Node3&#45;&gt;Node4</title>
<path fill="none" stroke="midnightblue" d="M329.563,-229.981C411.252,-212.737 601.614,-172.111 772.363,-132.098"/>
<polygon fill="midnightblue" stroke="midnightblue" points="773.349,-135.462 782.284,-129.769 771.749,-128.647 773.349,-135.462"/>
</g>
<!-- Node10 -->
<g id="node10" class="node"><title>Node10</title>
<g id="a_node10"><a xlink:href="MultiSpeciesThermo_8h.html" target="_top" xlink:title="Header for a general species thermodynamic property manager for a phase (see MultiSpeciesThermo). ">
<polygon fill="white" stroke="black" points="227,-168.5 227,-187.5 341,-187.5 341,-168.5 227,-168.5"/>
<text text-anchor="middle" x="284" y="-175.5" font-family="Helvetica,sans-Serif" font-size="10.00">MultiSpeciesThermo.h</text>
</a>
</g>
</g>
<!-- Node3&#45;&gt;Node10 -->
<g id="edge11" class="edge"><title>Node3&#45;&gt;Node10</title>
<path fill="none" stroke="midnightblue" d="M288.284,-229.975C287.578,-221.58 286.477,-208.481 285.568,-197.663"/>
<polygon fill="midnightblue" stroke="midnightblue" points="289.04,-197.181 284.715,-187.509 282.065,-197.767 289.04,-197.181"/>
</g>
<!-- Node12 -->
<g id="node12" class="node"><title>Node12</title>
<g id="a_node12"><a xlink:href="global_8h.html" target="_top" xlink:title="This file contains definitions for utility functions and text for modules, inputfiles, logs, textlogs, (see Input File Handling, Diagnostic Output, and Writing messages to the screen). ">
<polygon fill="white" stroke="red" points="0,-56.5 0,-75.5 110,-75.5 110,-56.5 0,-56.5"/>
<text text-anchor="middle" x="55" y="-63.5" font-family="Helvetica,sans-Serif" font-size="10.00">cantera/base/global.h</text>
</a>
</g>
</g>
<!-- Node3&#45;&gt;Node12 -->
<g id="edge17" class="edge"><title>Node3&#45;&gt;Node12</title>
<path fill="none" stroke="midnightblue" d="M249.113,-229.949C199.744,-217.246 116.624,-188.551 71,-132 60.4053,-118.868 56.6816,-99.7242 55.443,-85.6117"/>
<polygon fill="midnightblue" stroke="midnightblue" points="58.9356,-85.3788 54.8987,-75.5833 51.9459,-85.7583 58.9356,-85.3788"/>
</g>
<!-- Node5 -->
<g id="node5" class="node"><title>Node5</title>
<g id="a_node5"><a xlink:href="ctexceptions_8h.html" target="_top" xlink:title="Definitions for the classes that are thrown when Cantera experiences an error condition (also contain...">
<polygon fill="white" stroke="red" points="510,-56.5 510,-75.5 650,-75.5 650,-56.5 510,-56.5"/>
<text text-anchor="middle" x="580" y="-63.5" font-family="Helvetica,sans-Serif" font-size="10.00">cantera/base/ctexceptions.h</text>
</a>
</g>
</g>
<!-- Node4&#45;&gt;Node5 -->
<g id="edge4" class="edge"><title>Node4&#45;&gt;Node5</title>
<path fill="none" stroke="midnightblue" d="M782.275,-114.269C779.15,-113.496 776.006,-112.726 773,-112 723.314,-99.9975 666.296,-86.7703 627.19,-77.7822"/>
<polygon fill="midnightblue" stroke="midnightblue" points="627.931,-74.3614 617.402,-75.535 626.365,-81.1839 627.931,-74.3614"/>
</g>
<!-- Node6 -->
<g id="node6" class="node"><title>Node6</title>
<g id="a_node6"><a xlink:href="Elements_8h.html" target="_top" xlink:title="Contains the getElementWeight function and the definitions of element constraint types. ">
<polygon fill="white" stroke="black" points="668,-56.5 668,-75.5 802,-75.5 802,-56.5 668,-56.5"/>
<text text-anchor="middle" x="735" y="-63.5" font-family="Helvetica,sans-Serif" font-size="10.00">cantera/thermo/Elements.h</text>
</a>
</g>
</g>
<!-- Node4&#45;&gt;Node6 -->
<g id="edge5" class="edge"><title>Node4&#45;&gt;Node6</title>
<path fill="none" stroke="midnightblue" d="M797.111,-112.324C785.85,-104.107 768.713,-91.6017 755.291,-81.8069"/>
<polygon fill="midnightblue" stroke="midnightblue" points="757.247,-78.9014 747.106,-75.8339 753.12,-84.5559 757.247,-78.9014"/>
</g>
<!-- Node8 -->
<g id="node8" class="node"><title>Node8</title>
<g id="a_node8"><a xlink:href="Species_8h.html" target="_top" xlink:title="Declaration for class Cantera::Species. ">
<polygon fill="white" stroke="black" points="820,-56.5 820,-75.5 948,-75.5 948,-56.5 820,-56.5"/>
<text text-anchor="middle" x="884" y="-63.5" font-family="Helvetica,sans-Serif" font-size="10.00">cantera/thermo/Species.h</text>
</a>
</g>
</g>
<!-- Node4&#45;&gt;Node8 -->
<g id="edge7" class="edge"><title>Node4&#45;&gt;Node8</title>
<path fill="none" stroke="midnightblue" d="M821.05,-112.324C832.463,-104.107 849.831,-91.6017 863.435,-81.8069"/>
<polygon fill="midnightblue" stroke="midnightblue" points="865.66,-84.5174 871.731,-75.8339 861.57,-78.8366 865.66,-84.5174"/>
</g>
<!-- Node9 -->
<g id="node9" class="node"><title>Node9</title>
<g id="a_node9"><a xlink:href="ValueCache_8h.html" target="_top" xlink:title="cantera/base/ValueCache.h">
<polygon fill="white" stroke="red" points="966.5,-56.5 966.5,-75.5 1103.5,-75.5 1103.5,-56.5 966.5,-56.5"/>
<text text-anchor="middle" x="1035" y="-63.5" font-family="Helvetica,sans-Serif" font-size="10.00">cantera/base/ValueCache.h</text>
</a>
</g>
</g>
<!-- Node4&#45;&gt;Node9 -->
<g id="edge9" class="edge"><title>Node4&#45;&gt;Node9</title>
<path fill="none" stroke="midnightblue" d="M835.813,-114.593C873.721,-105.536 943.489,-88.8655 989.568,-77.8554"/>
<polygon fill="midnightblue" stroke="midnightblue" points="990.394,-81.2567 999.307,-75.5285 988.767,-74.4484 990.394,-81.2567"/>
</g>
<!-- Node7 -->
<g id="node7" class="node"><title>Node7</title>
<g id="a_node7"><a xlink:href="ct__defs_8h.html" target="_top" xlink:title="This file contains definitions of terms that are used in internal routines and are unlikely to need m...">
<polygon fill="white" stroke="red" points="399.5,-0.5 399.5,-19.5 456.5,-19.5 456.5,-0.5 399.5,-0.5"/>
<text text-anchor="middle" x="428" y="-7.5" font-family="Helvetica,sans-Serif" font-size="10.00">ct_defs.h</text>
</a>
</g>
</g>
<!-- Node6&#45;&gt;Node7 -->
<g id="edge6" class="edge"><title>Node6&#45;&gt;Node7</title>
<path fill="none" stroke="midnightblue" d="M686.355,-56.4435C625.52,-45.743 522.597,-27.6392 466.785,-17.8222"/>
<polygon fill="midnightblue" stroke="midnightblue" points="467.06,-14.3169 456.605,-16.0315 465.848,-21.211 467.06,-14.3169"/>
</g>
<!-- Node8&#45;&gt;Node7 -->
<g id="edge8" class="edge"><title>Node8&#45;&gt;Node7</title>
<path fill="none" stroke="midnightblue" d="M819.908,-57.0773C816.897,-56.7117 813.916,-56.351 811,-56 685.183,-40.8529 536.037,-23.5037 466.844,-15.4897"/>
<polygon fill="midnightblue" stroke="midnightblue" points="467.17,-12.0042 456.834,-14.3308 466.365,-18.9577 467.17,-12.0042"/>
</g>
<!-- Node9&#45;&gt;Node7 -->
<g id="edge10" class="edge"><title>Node9&#45;&gt;Node7</title>
<path fill="none" stroke="midnightblue" d="M966.109,-56.9374C963.031,-56.6131 959.984,-56.299 957,-56 773.689,-37.6318 554.15,-20.5145 466.698,-13.8918"/>
<polygon fill="midnightblue" stroke="midnightblue" points="466.935,-10.3998 456.699,-13.1368 466.407,-17.3799 466.935,-10.3998"/>
</g>
<!-- Node11 -->
<g id="node11" class="node"><title>Node11</title>
<g id="a_node11"><a xlink:href="SpeciesThermoInterpType_8h.html" target="_top" xlink:title="Pure Virtual Base class for individual species reference state thermodynamic managers and text for th...">
<polygon fill="white" stroke="red" points="214,-112.5 214,-131.5 354,-131.5 354,-112.5 214,-112.5"/>
<text text-anchor="middle" x="284" y="-119.5" font-family="Helvetica,sans-Serif" font-size="10.00">SpeciesThermoInterpType.h</text>
</a>
</g>
</g>
<!-- Node10&#45;&gt;Node11 -->
<g id="edge12" class="edge"><title>Node10&#45;&gt;Node11</title>
<path fill="none" stroke="midnightblue" d="M284,-168.083C284,-161.006 284,-150.861 284,-141.986"/>
<polygon fill="midnightblue" stroke="midnightblue" points="287.5,-141.751 284,-131.751 280.5,-141.751 287.5,-141.751"/>
</g>
<!-- Node11&#45;&gt;Node5 -->
<g id="edge14" class="edge"><title>Node11&#45;&gt;Node5</title>
<path fill="none" stroke="midnightblue" d="M330.902,-112.444C383.08,-102.925 467.371,-87.5472 523.232,-77.3563"/>
<polygon fill="midnightblue" stroke="midnightblue" points="524.108,-80.7544 533.317,-75.5164 522.852,-73.868 524.108,-80.7544"/>
</g>
<!-- Node11&#45;&gt;Node7 -->
<g id="edge13" class="edge"><title>Node11&#45;&gt;Node7</title>
<path fill="none" stroke="midnightblue" d="M292.284,-112.441C305.083,-99.4507 330.729,-74.331 355,-56 370.398,-44.3703 388.916,-32.9819 403.448,-24.5714"/>
<polygon fill="midnightblue" stroke="midnightblue" points="405.392,-27.4922 412.349,-19.5019 401.928,-21.4096 405.392,-27.4922"/>
</g>
<!-- Node11&#45;&gt;Node12 -->
<g id="edge15" class="edge"><title>Node11&#45;&gt;Node12</title>
<path fill="none" stroke="midnightblue" d="M247.714,-112.444C208.017,-103.083 144.293,-88.0561 101.088,-77.868"/>
<polygon fill="midnightblue" stroke="midnightblue" points="101.652,-74.4051 91.116,-75.5164 100.046,-81.2182 101.652,-74.4051"/>
</g>
<!-- Node12&#45;&gt;Node7 -->
<g id="edge16" class="edge"><title>Node12&#45;&gt;Node7</title>
<path fill="none" stroke="midnightblue" d="M110.037,-57.0321C186.404,-45.9764 322.603,-26.2586 389.19,-16.6186"/>
<polygon fill="midnightblue" stroke="midnightblue" points="389.864,-20.0576 399.259,-15.1609 388.861,-13.1299 389.864,-20.0576"/>
</g>
<!-- Node13&#45;&gt;Node7 -->
<g id="edge19" class="edge"><title>Node13&#45;&gt;Node7</title>
<path fill="none" stroke="midnightblue" d="M137.815,-112.332C138.023,-98.2478 140.639,-70.5093 157,-56 190.786,-26.038 322.876,-15.7796 389.347,-12.4693"/>
<polygon fill="midnightblue" stroke="midnightblue" points="389.602,-15.9613 399.427,-11.9957 389.274,-8.969 389.602,-15.9613"/>
</g>
<!-- Node13&#45;&gt;Node12 -->
<g id="edge20" class="edge"><title>Node13&#45;&gt;Node12</title>
<path fill="none" stroke="midnightblue" d="M124.665,-112.324C111.838,-103.979 92.215,-91.2122 77.0602,-81.3524"/>
<polygon fill="midnightblue" stroke="midnightblue" points="78.5932,-78.1742 68.3023,-75.6545 74.7757,-84.0417 78.5932,-78.1742"/>
</g>
<!-- Node14 -->
<g id="node14" class="node"><title>Node14</title>
<polygon fill="white" stroke="#bfbfbf" points="166.5,-56.5 166.5,-75.5 225.5,-75.5 225.5,-56.5 166.5,-56.5"/>
<text text-anchor="middle" x="196" y="-63.5" font-family="Helvetica,sans-Serif" font-size="10.00">stdexcept</text>
</g>
<!-- Node13&#45;&gt;Node14 -->
<g id="edge21" class="edge"><title>Node13&#45;&gt;Node14</title>
<path fill="none" stroke="midnightblue" d="M147.319,-112.324C155.893,-104.341 168.812,-92.3128 179.188,-82.6529"/>
<polygon fill="midnightblue" stroke="midnightblue" points="181.578,-85.2098 186.512,-75.8339 176.808,-80.0865 181.578,-85.2098"/>
</g>
<!-- Node15 -->
<g id="node15" class="node"><title>Node15</title>
<polygon fill="white" stroke="#bfbfbf" points="243.5,-56.5 243.5,-75.5 294.5,-75.5 294.5,-56.5 243.5,-56.5"/>
<text text-anchor="middle" x="269" y="-63.5" font-family="Helvetica,sans-Serif" font-size="10.00">numeric</text>
</g>
<!-- Node13&#45;&gt;Node15 -->
<g id="edge22" class="edge"><title>Node13&#45;&gt;Node15</title>
<path fill="none" stroke="midnightblue" d="M158.757,-112.444C180.316,-103.557 214.263,-89.5632 238.794,-79.4514"/>
<polygon fill="midnightblue" stroke="midnightblue" points="240.428,-82.5634 248.34,-75.5164 237.761,-76.0917 240.428,-82.5634"/>
</g>
<!-- Node17 -->
<g id="node17" class="node"><title>Node17</title>
<g id="a_node17"><a xlink:href="Kinetics_8h.html" target="_top" xlink:title="Base class for kinetics managers and also contains the kineticsmgr module documentation (see Kinetics...">
<polygon fill="white" stroke="black" points="385,-291.5 385,-310.5 445,-310.5 445,-291.5 385,-291.5"/>
<text text-anchor="middle" x="415" y="-298.5" font-family="Helvetica,sans-Serif" font-size="10.00">Kinetics.h</text>
</a>
</g>
</g>
<!-- Node16&#45;&gt;Node17 -->
<g id="edge24" class="edge"><title>Node16&#45;&gt;Node17</title>
<path fill="none" stroke="midnightblue" d="M407.486,-347.083C408.679,-339.927 410.394,-329.635 411.885,-320.691"/>
<polygon fill="midnightblue" stroke="midnightblue" points="415.35,-321.19 413.541,-310.751 408.445,-320.04 415.35,-321.19"/>
</g>
<!-- Node17&#45;&gt;Node3 -->
<g id="edge25" class="edge"><title>Node17&#45;&gt;Node3</title>
<path fill="none" stroke="midnightblue" d="M396.947,-291.475C375.802,-281.49 340.56,-264.848 316.122,-253.307"/>
<polygon fill="midnightblue" stroke="midnightblue" points="317.556,-250.114 307.019,-249.009 314.567,-256.444 317.556,-250.114"/>
</g>
<!-- Node17&#45;&gt;Node12 -->
<g id="edge37" class="edge"><title>Node17&#45;&gt;Node12</title>
<path fill="none" stroke="midnightblue" d="M384.702,-293.234C341.351,-283.401 263.889,-265.223 237,-255 176.612,-232.04 159.213,-227.384 108,-188 81.3147,-167.479 69.6343,-163.203 57,-132 51.0413,-117.284 51.0256,-99.1218 52.2216,-85.7401"/>
<polygon fill="midnightblue" stroke="midnightblue" points="55.6976,-86.1487 53.4075,-75.8044 48.7469,-85.3191 55.6976,-86.1487"/>
</g>
<!-- Node18 -->
<g id="node18" class="node"><title>Node18</title>
<g id="a_node18"><a xlink:href="StoichManager_8h.html" target="_top" xlink:title="StoichManager.h">
<polygon fill="white" stroke="black" points="674,-112.5 674,-131.5 764,-131.5 764,-112.5 674,-112.5"/>
<text text-anchor="middle" x="719" y="-119.5" font-family="Helvetica,sans-Serif" font-size="10.00">StoichManager.h</text>
</a>
</g>
</g>
<!-- Node17&#45;&gt;Node18 -->
<g id="edge26" class="edge"><title>Node17&#45;&gt;Node18</title>
<path fill="none" stroke="midnightblue" d="M429.038,-291.47C452.392,-277.308 500.737,-248.115 542,-224 596.446,-192.18 660.88,-155.707 695,-136.487"/>
<polygon fill="midnightblue" stroke="midnightblue" points="696.788,-139.496 703.786,-131.541 693.355,-133.396 696.788,-139.496"/>
</g>
<!-- Node20 -->
<g id="node20" class="node"><title>Node20</title>
<g id="a_node20"><a xlink:href="mix__defs_8h.html" target="_top" xlink:title="cantera/thermo/mix\l_defs.h">
<polygon fill="white" stroke="black" points="551.5,-224.5 551.5,-254.5 652.5,-254.5 652.5,-224.5 551.5,-224.5"/>
<text text-anchor="start" x="559.5" y="-242.5" font-family="Helvetica,sans-Serif" font-size="10.00">cantera/thermo/mix</text>
<text text-anchor="middle" x="602" y="-231.5" font-family="Helvetica,sans-Serif" font-size="10.00">_defs.h</text>
</a>
</g>
</g>
<!-- Node17&#45;&gt;Node20 -->
<g id="edge30" class="edge"><title>Node17&#45;&gt;Node20</title>
<path fill="none" stroke="midnightblue" d="M441.793,-291.475C469.486,-282.664 513.471,-268.668 548.352,-257.57"/>
<polygon fill="midnightblue" stroke="midnightblue" points="549.46,-260.89 557.928,-254.523 547.337,-254.22 549.46,-260.89"/>
</g>
<!-- Node21 -->
<g id="node21" class="node"><title>Node21</title>
<g id="a_node21"><a xlink:href="Reaction_8h.html" target="_top" xlink:title="cantera/kinetics/Reaction.h">
<polygon fill="white" stroke="black" points="359,-168.5 359,-187.5 495,-187.5 495,-168.5 359,-168.5"/>
<text text-anchor="middle" x="427" y="-175.5" font-family="Helvetica,sans-Serif" font-size="10.00">cantera/kinetics/Reaction.h</text>
</a>
</g>
</g>
<!-- Node17&#45;&gt;Node21 -->
<g id="edge31" class="edge"><title>Node17&#45;&gt;Node21</title>
<path fill="none" stroke="midnightblue" d="M415.863,-291.298C417.792,-271.85 422.489,-224.49 425.125,-197.904"/>
<polygon fill="midnightblue" stroke="midnightblue" points="428.641,-197.92 426.145,-187.623 421.675,-197.229 428.641,-197.92"/>
</g>
<!-- Node18&#45;&gt;Node5 -->
<g id="edge29" class="edge"><title>Node18&#45;&gt;Node5</title>
<path fill="none" stroke="midnightblue" d="M696.975,-112.444C673.896,-103.478 637.438,-89.314 611.359,-79.1827"/>
<polygon fill="midnightblue" stroke="midnightblue" points="612.511,-75.8753 601.922,-75.5164 609.976,-82.4002 612.511,-75.8753"/>
</g>
<!-- Node19 -->
<g id="node19" class="node"><title>Node19</title>
<g id="a_node19"><a xlink:href="stringUtils_8h.html" target="_top" xlink:title="Contains declarations for string manipulation functions within Cantera. ">
<polygon fill="white" stroke="red" points="364,-56.5 364,-75.5 492,-75.5 492,-56.5 364,-56.5"/>
<text text-anchor="middle" x="428" y="-63.5" font-family="Helvetica,sans-Serif" font-size="10.00">cantera/base/stringUtils.h</text>
</a>
</g>
</g>
<!-- Node18&#45;&gt;Node19 -->
<g id="edge27" class="edge"><title>Node18&#45;&gt;Node19</title>
<path fill="none" stroke="midnightblue" d="M673.851,-112.622C622.753,-103.14 539.461,-87.6834 484.197,-77.4282"/>
<polygon fill="midnightblue" stroke="midnightblue" points="484.689,-73.9599 474.218,-75.5765 483.411,-80.8424 484.689,-73.9599"/>
</g>
<!-- Node19&#45;&gt;Node7 -->
<g id="edge28" class="edge"><title>Node19&#45;&gt;Node7</title>
<path fill="none" stroke="midnightblue" d="M428,-56.083C428,-49.0059 428,-38.8611 428,-29.9865"/>
<polygon fill="midnightblue" stroke="midnightblue" points="431.5,-29.751 428,-19.7511 424.5,-29.7511 431.5,-29.751"/>
</g>
<!-- Node21&#45;&gt;Node13 -->
<g id="edge32" class="edge"><title>Node21&#45;&gt;Node13</title>
<path fill="none" stroke="midnightblue" d="M381.207,-168.444C330.263,-158.925 247.966,-143.547 193.426,-133.356"/>
<polygon fill="midnightblue" stroke="midnightblue" points="194.051,-129.913 183.579,-131.516 192.766,-136.794 194.051,-129.913"/>
</g>
<!-- Node22 -->
<g id="node22" class="node"><title>Node22</title>
<g id="a_node22"><a xlink:href="RxnRates_8h.html" target="_top" xlink:title="cantera/kinetics/RxnRates.h">
<polygon fill="white" stroke="red" points="514.5,-112.5 514.5,-131.5 655.5,-131.5 655.5,-112.5 514.5,-112.5"/>
<text text-anchor="middle" x="585" y="-119.5" font-family="Helvetica,sans-Serif" font-size="10.00">cantera/kinetics/RxnRates.h</text>
</a>
</g>
</g>
<!-- Node21&#45;&gt;Node22 -->
<g id="edge33" class="edge"><title>Node21&#45;&gt;Node22</title>
<path fill="none" stroke="midnightblue" d="M452.036,-168.444C478.616,-159.359 520.809,-144.939 550.523,-134.783"/>
<polygon fill="midnightblue" stroke="midnightblue" points="551.751,-138.062 560.082,-131.516 549.487,-131.439 551.751,-138.062"/>
</g>
<!-- Node23 -->
<g id="node23" class="node"><title>Node23</title>
<g id="a_node23"><a xlink:href="Falloff_8h_source.html" target="_top" xlink:title="cantera/kinetics/Falloff.h">
<polygon fill="white" stroke="red" points="372,-112.5 372,-131.5 496,-131.5 496,-112.5 372,-112.5"/>
<text text-anchor="middle" x="434" y="-119.5" font-family="Helvetica,sans-Serif" font-size="10.00">cantera/kinetics/Falloff.h</text>
</a>
</g>
</g>
<!-- Node21&#45;&gt;Node23 -->
<g id="edge36" class="edge"><title>Node21&#45;&gt;Node23</title>
<path fill="none" stroke="midnightblue" d="M428.156,-168.083C429.084,-160.927 430.418,-150.635 431.577,-141.691"/>
<polygon fill="midnightblue" stroke="midnightblue" points="435.051,-142.118 432.866,-131.751 428.109,-141.218 435.051,-142.118"/>
</g>
<!-- Node22&#45;&gt;Node5 -->
<g id="edge34" class="edge"><title>Node22&#45;&gt;Node5</title>
<path fill="none" stroke="midnightblue" d="M584.174,-112.083C583.519,-105.006 582.58,-94.8611 581.758,-85.9865"/>
<polygon fill="midnightblue" stroke="midnightblue" points="585.217,-85.3858 580.81,-75.7511 578.247,-86.0312 585.217,-85.3858"/>
</g>
<!-- Node22&#45;&gt;Node19 -->
<g id="edge35" class="edge"><title>Node22&#45;&gt;Node19</title>
<path fill="none" stroke="midnightblue" d="M560.123,-112.444C533.711,-103.359 491.785,-88.9388 462.258,-78.7831"/>
<polygon fill="midnightblue" stroke="midnightblue" points="463.355,-75.4593 452.761,-75.5164 461.079,-82.0787 463.355,-75.4593"/>
</g>
</g>
</svg>
