<?xml version="1.0" encoding="UTF-8" standalone="no"?>
<!DOCTYPE svg PUBLIC "-//W3C//DTD SVG 1.1//EN"
 "http://www.w3.org/Graphics/SVG/1.1/DTD/svg11.dtd">
<!-- Generated by graphviz version 2.36.0 (20140111.2315)
 -->
<!-- Title: IncompressibleSolid.h Pages: 1 -->
<svg width="1120pt" height="376pt"
 viewBox="0.00 0.00 1120.00 376.00" xmlns="http://www.w3.org/2000/svg" xmlns:xlink="http://www.w3.org/1999/xlink">
<g id="graph0" class="graph" transform="scale(1 1) rotate(0) translate(4 372)">
<title>IncompressibleSolid.h</title>
<polygon fill="white" stroke="none" points="-4,4 -4,-372 1116,-372 1116,4 -4,4"/>
<!-- Node1 -->
<g id="node1" class="node"><title>Node1</title>
<polygon fill="#bfbfbf" stroke="black" points="622,-348.5 622,-367.5 732,-367.5 732,-348.5 622,-348.5"/>
<text text-anchor="middle" x="677" y="-355.5" font-family="FreeSans" font-size="10.00">IncompressibleSolid.h</text>
</g>
<!-- Node2 -->
<g id="node2" class="node"><title>Node2</title>
<g id="a_node2"><a xlink:href="ConstDensityThermo_8h.html" target="_top" xlink:title="Header for a Thermo manager for incompressible ThermoPhases (see Thermodynamic Properties and ConstDe...">
<polygon fill="white" stroke="black" points="527,-236.5 527,-255.5 673,-255.5 673,-236.5 527,-236.5"/>
<text text-anchor="middle" x="600" y="-243.5" font-family="FreeSans" font-size="10.00">thermo/ConstDensityThermo.h</text>
</a>
</g>
</g>
<!-- Node1&#45;&gt;Node2 -->
<g id="edge1" class="edge"><title>Node1&#45;&gt;Node2</title>
<path fill="none" stroke="midnightblue" d="M670.958,-348.368C658.251,-330.215 628.561,-287.802 611.893,-263.99"/>
<polygon fill="midnightblue" stroke="midnightblue" points="614.616,-261.777 606.014,-255.591 608.881,-265.791 614.616,-261.777"/>
</g>
<!-- Node16 -->
<g id="node16" class="node"><title>Node16</title>
<g id="a_node16"><a xlink:href="importKinetics_8h.html" target="_top" xlink:title="Definitions of global routines for the importing of data from XML files (see Input File Handling)...">
<polygon fill="white" stroke="black" points="667,-292.5 667,-311.5 789,-311.5 789,-292.5 667,-292.5"/>
<text text-anchor="middle" x="728" y="-299.5" font-family="FreeSans" font-size="10.00">kinetics/importKinetics.h</text>
</a>
</g>
</g>
<!-- Node1&#45;&gt;Node16 -->
<g id="edge22" class="edge"><title>Node1&#45;&gt;Node16</title>
<path fill="none" stroke="midnightblue" d="M685.422,-348.083C692.848,-340.22 703.852,-328.569 712.812,-319.081"/>
<polygon fill="midnightblue" stroke="midnightblue" points="715.413,-321.424 719.735,-311.751 710.324,-316.618 715.413,-321.424"/>
</g>
<!-- Node3 -->
<g id="node3" class="node"><title>Node3</title>
<g id="a_node3"><a xlink:href="ThermoPhase_8h.html" target="_top" xlink:title="Header file for class ThermoPhase, the base class for phases with thermodynamic properties, and the text for the Module thermoprops (see Thermodynamic Properties and class ThermoPhase). ">
<polygon fill="white" stroke="black" points="488,-174.5 488,-193.5 572,-193.5 572,-174.5 488,-174.5"/>
<text text-anchor="middle" x="530" y="-181.5" font-family="FreeSans" font-size="10.00">ThermoPhase.h</text>
</a>
</g>
</g>
<!-- Node2&#45;&gt;Node3 -->
<g id="edge2" class="edge"><title>Node2&#45;&gt;Node3</title>
<path fill="none" stroke="midnightblue" d="M589.971,-236.403C578.951,-226.958 561.04,-211.606 547.657,-200.134"/>
<polygon fill="midnightblue" stroke="midnightblue" points="549.881,-197.431 540.011,-193.581 545.325,-202.746 549.881,-197.431"/>
</g>
<!-- Node13 -->
<g id="node13" class="node"><title>Node13</title>
<g id="a_node13"><a xlink:href="utilities_8h.html" target="_top" xlink:title="Various templated functions that carry out common vector operations (see Templated Utility Functions)...">
<polygon fill="white" stroke="black" points="521.5,-112.5 521.5,-131.5 634.5,-131.5 634.5,-112.5 521.5,-112.5"/>
<text text-anchor="middle" x="578" y="-119.5" font-family="FreeSans" font-size="10.00">cantera/base/utilities.h</text>
</a>
</g>
</g>
<!-- Node2&#45;&gt;Node13 -->
<g id="edge17" class="edge"><title>Node2&#45;&gt;Node13</title>
<path fill="none" stroke="midnightblue" d="M598.418,-236.226C594.866,-216.53 586.194,-168.437 581.372,-141.7"/>
<polygon fill="midnightblue" stroke="midnightblue" points="584.787,-140.915 579.568,-131.694 577.898,-142.157 584.787,-140.915"/>
</g>
<!-- Node4 -->
<g id="node4" class="node"><title>Node4</title>
<g id="a_node4"><a xlink:href="Phase_8h.html" target="_top" xlink:title="Header file for class Phase. ">
<polygon fill="white" stroke="black" points="340.5,-112.5 340.5,-131.5 391.5,-131.5 391.5,-112.5 340.5,-112.5"/>
<text text-anchor="middle" x="366" y="-119.5" font-family="FreeSans" font-size="10.00">Phase.h</text>
</a>
</g>
</g>
<!-- Node3&#45;&gt;Node4 -->
<g id="edge3" class="edge"><title>Node3&#45;&gt;Node4</title>
<path fill="none" stroke="midnightblue" d="M506.503,-174.403C478.371,-164.111 431.071,-146.806 399.211,-135.15"/>
<polygon fill="midnightblue" stroke="midnightblue" points="400.047,-131.73 389.454,-131.581 397.642,-138.303 400.047,-131.73"/>
</g>
<!-- Node11 -->
<g id="node11" class="node"><title>Node11</title>
<g id="a_node11"><a xlink:href="SpeciesThermo_8h.html" target="_top" xlink:title="Virtual base class for the calculation of multiple&#45;species thermodynamic reference&#45;state property man...">
<polygon fill="white" stroke="black" points="411,-112.5 411,-131.5 503,-131.5 503,-112.5 411,-112.5"/>
<text text-anchor="middle" x="457" y="-119.5" font-family="FreeSans" font-size="10.00">SpeciesThermo.h</text>
</a>
</g>
</g>
<!-- Node3&#45;&gt;Node11 -->
<g id="edge12" class="edge"><title>Node3&#45;&gt;Node11</title>
<path fill="none" stroke="midnightblue" d="M519.541,-174.403C508.049,-164.958 489.37,-149.606 475.413,-138.134"/>
<polygon fill="midnightblue" stroke="midnightblue" points="477.388,-135.226 467.44,-131.581 472.943,-140.634 477.388,-135.226"/>
</g>
<!-- Node12 -->
<g id="node12" class="node"><title>Node12</title>
<g id="a_node12"><a xlink:href="global_8h.html" target="_top" xlink:title="This file contains definitions for utility functions and text for modules, inputfiles, logs, textlogs, (see Input File Handling, Diagnostic Output, and Writing messages to the screen). ">
<polygon fill="white" stroke="black" points="670,-56.5 670,-75.5 778,-75.5 778,-56.5 670,-56.5"/>
<text text-anchor="middle" x="724" y="-63.5" font-family="FreeSans" font-size="10.00">cantera/base/global.h</text>
</a>
</g>
</g>
<!-- Node3&#45;&gt;Node12 -->
<g id="edge14" class="edge"><title>Node3&#45;&gt;Node12</title>
<path fill="none" stroke="midnightblue" d="M553.369,-174.458C576.841,-165.424 613.643,-150.003 643,-132 666.603,-117.525 691.035,-97.0275 706.809,-82.9408"/>
<polygon fill="midnightblue" stroke="midnightblue" points="709.566,-85.1649 714.621,-75.8534 704.863,-79.9805 709.566,-85.1649"/>
</g>
<!-- Node5 -->
<g id="node5" class="node"><title>Node5</title>
<g id="a_node5"><a xlink:href="ctexceptions_8h.html" target="_top" xlink:title="Definitions for the classes that are thrown when Cantera experiences an error condition (also contain...">
<polygon fill="white" stroke="red" points="796.5,-56.5 796.5,-75.5 933.5,-75.5 933.5,-56.5 796.5,-56.5"/>
<text text-anchor="middle" x="865" y="-63.5" font-family="FreeSans" font-size="10.00">cantera/base/ctexceptions.h</text>
</a>
</g>
</g>
<!-- Node4&#45;&gt;Node5 -->
<g id="edge4" class="edge"><title>Node4&#45;&gt;Node5</title>
<path fill="none" stroke="midnightblue" d="M391.857,-114.037C395.252,-113.27 398.698,-112.564 402,-112 568.18,-83.6268 614.326,-93.4546 785.966,-76.0747"/>
<polygon fill="midnightblue" stroke="midnightblue" points="786.516,-79.5366 796.105,-75.0313 785.8,-72.5734 786.516,-79.5366"/>
</g>
<!-- Node7 -->
<g id="node7" class="node"><title>Node7</title>
<g id="a_node7"><a xlink:href="Elements_8h.html" target="_top" xlink:title="Contains the LookupWtElements function and the definitions of element constraint types. ">
<polygon fill="white" stroke="black" points="152,-56.5 152,-75.5 284,-75.5 284,-56.5 152,-56.5"/>
<text text-anchor="middle" x="218" y="-63.5" font-family="FreeSans" font-size="10.00">cantera/thermo/Elements.h</text>
</a>
</g>
</g>
<!-- Node4&#45;&gt;Node7 -->
<g id="edge6" class="edge"><title>Node4&#45;&gt;Node7</title>
<path fill="none" stroke="midnightblue" d="M342.549,-112.444C317.867,-103.438 278.815,-89.1891 251.023,-79.049"/>
<polygon fill="midnightblue" stroke="midnightblue" points="251.935,-75.6561 241.341,-75.5164 249.536,-82.2321 251.935,-75.6561"/>
</g>
<!-- Node9 -->
<g id="node9" class="node"><title>Node9</title>
<g id="a_node9"><a xlink:href="Species_8h.html" target="_top" xlink:title="Declaration for class Cantera::Species. ">
<polygon fill="white" stroke="black" points="302.5,-56.5 302.5,-75.5 429.5,-75.5 429.5,-56.5 302.5,-56.5"/>
<text text-anchor="middle" x="366" y="-63.5" font-family="FreeSans" font-size="10.00">cantera/thermo/Species.h</text>
</a>
</g>
</g>
<!-- Node4&#45;&gt;Node9 -->
<g id="edge8" class="edge"><title>Node4&#45;&gt;Node9</title>
<path fill="none" stroke="midnightblue" d="M366,-112.083C366,-105.006 366,-94.8611 366,-85.9865"/>
<polygon fill="midnightblue" stroke="midnightblue" points="369.5,-85.751 366,-75.7511 362.5,-85.7511 369.5,-85.751"/>
</g>
<!-- Node10 -->
<g id="node10" class="node"><title>Node10</title>
<g id="a_node10"><a xlink:href="ValueCache_8h.html" target="_top" xlink:title="cantera/base/ValueCache.h">
<polygon fill="white" stroke="red" points="0,-56.5 0,-75.5 134,-75.5 134,-56.5 0,-56.5"/>
<text text-anchor="middle" x="67" y="-63.5" font-family="FreeSans" font-size="10.00">cantera/base/ValueCache.h</text>
</a>
</g>
</g>
<!-- Node4&#45;&gt;Node10 -->
<g id="edge10" class="edge"><title>Node4&#45;&gt;Node10</title>
<path fill="none" stroke="midnightblue" d="M340.249,-116.349C292.515,-107.729 189.253,-89.0791 124.23,-77.3359"/>
<polygon fill="midnightblue" stroke="midnightblue" points="124.6,-73.8461 114.137,-75.5131 123.356,-80.7347 124.6,-73.8461"/>
</g>
<!-- Node6 -->
<g id="node6" class="node"><title>Node6</title>
<polygon fill="white" stroke="#bfbfbf" points="813.5,-0.5 813.5,-19.5 916.5,-19.5 916.5,-0.5 813.5,-0.5"/>
<text text-anchor="middle" x="865" y="-7.5" font-family="FreeSans" font-size="10.00">cantera/ext/format.h</text>
</g>
<!-- Node5&#45;&gt;Node6 -->
<g id="edge5" class="edge"><title>Node5&#45;&gt;Node6</title>
<path fill="none" stroke="midnightblue" d="M865,-56.083C865,-49.0059 865,-38.8611 865,-29.9865"/>
<polygon fill="midnightblue" stroke="midnightblue" points="868.5,-29.751 865,-19.7511 861.5,-29.7511 868.5,-29.751"/>
</g>
<!-- Node8 -->
<g id="node8" class="node"><title>Node8</title>
<g id="a_node8"><a xlink:href="ct__defs_8h.html" target="_top" xlink:title="This file contains definitions of terms that are used in internal routines and are unlikely to need m...">
<polygon fill="white" stroke="red" points="401,-0.5 401,-19.5 515,-19.5 515,-0.5 401,-0.5"/>
<text text-anchor="middle" x="458" y="-7.5" font-family="FreeSans" font-size="10.00">cantera/base/ct_defs.h</text>
</a>
</g>
</g>
<!-- Node7&#45;&gt;Node8 -->
<g id="edge7" class="edge"><title>Node7&#45;&gt;Node8</title>
<path fill="none" stroke="midnightblue" d="M256.029,-56.4435C297.808,-47.0431 364.982,-31.9291 410.27,-21.7393"/>
<polygon fill="midnightblue" stroke="midnightblue" points="411.161,-25.1263 420.149,-19.5164 409.625,-18.297 411.161,-25.1263"/>
</g>
<!-- Node9&#45;&gt;Node8 -->
<g id="edge9" class="edge"><title>Node9&#45;&gt;Node8</title>
<path fill="none" stroke="midnightblue" d="M380.781,-56.324C395.267,-47.8215 417.573,-34.7288 434.493,-24.7975"/>
<polygon fill="midnightblue" stroke="midnightblue" points="436.403,-27.735 443.255,-19.6545 432.859,-21.6981 436.403,-27.735"/>
</g>
<!-- Node10&#45;&gt;Node8 -->
<g id="edge11" class="edge"><title>Node10&#45;&gt;Node8</title>
<path fill="none" stroke="midnightblue" d="M128.955,-56.4435C200.32,-46.5876 317.162,-30.4508 390.706,-20.2938"/>
<polygon fill="midnightblue" stroke="midnightblue" points="391.36,-23.7368 400.787,-18.9015 390.402,-16.8026 391.36,-23.7368"/>
</g>
<!-- Node11&#45;&gt;Node8 -->
<g id="edge13" class="edge"><title>Node11&#45;&gt;Node8</title>
<path fill="none" stroke="midnightblue" d="M457.078,-112.368C457.24,-94.617 457.612,-53.6664 457.831,-29.5974"/>
<polygon fill="midnightblue" stroke="midnightblue" points="461.331,-29.6229 457.922,-19.5914 454.331,-29.5592 461.331,-29.6229"/>
</g>
<!-- Node12&#45;&gt;Node6 -->
<g id="edge16" class="edge"><title>Node12&#45;&gt;Node6</title>
<path fill="none" stroke="midnightblue" d="M746.342,-56.4435C769.753,-47.4776 806.736,-33.314 833.19,-23.1827"/>
<polygon fill="midnightblue" stroke="midnightblue" points="834.676,-26.3615 842.763,-19.5164 832.172,-19.8245 834.676,-26.3615"/>
</g>
<!-- Node12&#45;&gt;Node8 -->
<g id="edge15" class="edge"><title>Node12&#45;&gt;Node8</title>
<path fill="none" stroke="midnightblue" d="M681.852,-56.4435C635.254,-46.9839 560.156,-31.7384 509.955,-21.5472"/>
<polygon fill="midnightblue" stroke="midnightblue" points="510.448,-18.076 499.951,-19.5164 509.055,-24.936 510.448,-18.076"/>
</g>
<!-- Node13&#45;&gt;Node8 -->
<g id="edge18" class="edge"><title>Node13&#45;&gt;Node8</title>
<path fill="none" stroke="midnightblue" d="M575.684,-112.38C571.666,-98.8543 562.24,-72.4892 546,-56 531.675,-41.4554 511.659,-30.7107 494.336,-23.3753"/>
<polygon fill="midnightblue" stroke="midnightblue" points="495.626,-20.1218 485.042,-19.6483 493.021,-26.6189 495.626,-20.1218"/>
</g>
<!-- Node13&#45;&gt;Node12 -->
<g id="edge19" class="edge"><title>Node13&#45;&gt;Node12</title>
<path fill="none" stroke="midnightblue" d="M601.134,-112.444C625.482,-103.438 664.007,-89.1891 691.423,-79.049"/>
<polygon fill="midnightblue" stroke="midnightblue" points="692.809,-82.2681 700.974,-75.5164 690.381,-75.7028 692.809,-82.2681"/>
</g>
<!-- Node14 -->
<g id="node14" class="node"><title>Node14</title>
<polygon fill="white" stroke="#bfbfbf" points="594,-56.5 594,-75.5 652,-75.5 652,-56.5 594,-56.5"/>
<text text-anchor="middle" x="623" y="-63.5" font-family="FreeSans" font-size="10.00">stdexcept</text>
</g>
<!-- Node13&#45;&gt;Node14 -->
<g id="edge20" class="edge"><title>Node13&#45;&gt;Node14</title>
<path fill="none" stroke="midnightblue" d="M585.431,-112.083C591.853,-104.377 601.306,-93.0333 609.122,-83.6531"/>
<polygon fill="midnightblue" stroke="midnightblue" points="611.994,-85.674 615.707,-75.7511 606.617,-81.1927 611.994,-85.674"/>
</g>
<!-- Node15 -->
<g id="node15" class="node"><title>Node15</title>
<polygon fill="white" stroke="#bfbfbf" points="486.5,-56.5 486.5,-75.5 537.5,-75.5 537.5,-56.5 486.5,-56.5"/>
<text text-anchor="middle" x="512" y="-63.5" font-family="FreeSans" font-size="10.00">numeric</text>
</g>
<!-- Node13&#45;&gt;Node15 -->
<g id="edge21" class="edge"><title>Node13&#45;&gt;Node15</title>
<path fill="none" stroke="midnightblue" d="M567.396,-112.324C557.544,-104.263 542.649,-92.0765 530.785,-82.3695"/>
<polygon fill="midnightblue" stroke="midnightblue" points="532.753,-79.4575 522.797,-75.8339 528.32,-84.8752 532.753,-79.4575"/>
</g>
<!-- Node17 -->
<g id="node17" class="node"><title>Node17</title>
<g id="a_node17"><a xlink:href="Kinetics_8h.html" target="_top" xlink:title="Base class for kinetics managers and also contains the kineticsmgr module documentation (see Kinetics...">
<polygon fill="white" stroke="black" points="712.5,-236.5 712.5,-255.5 771.5,-255.5 771.5,-236.5 712.5,-236.5"/>
<text text-anchor="middle" x="742" y="-243.5" font-family="FreeSans" font-size="10.00">Kinetics.h</text>
</a>
</g>
</g>
<!-- Node16&#45;&gt;Node17 -->
<g id="edge23" class="edge"><title>Node16&#45;&gt;Node17</title>
<path fill="none" stroke="midnightblue" d="M730.312,-292.083C732.167,-284.927 734.835,-274.635 737.154,-265.691"/>
<polygon fill="midnightblue" stroke="midnightblue" points="740.609,-266.309 739.731,-255.751 733.834,-264.553 740.609,-266.309"/>
</g>
<!-- Node17&#45;&gt;Node3 -->
<g id="edge24" class="edge"><title>Node17&#45;&gt;Node3</title>
<path fill="none" stroke="midnightblue" d="M712.075,-236.531C674.854,-225.996 611.182,-207.976 569.855,-196.28"/>
<polygon fill="midnightblue" stroke="midnightblue" points="570.69,-192.879 560.115,-193.523 568.784,-199.614 570.69,-192.879"/>
</g>
<!-- Node17&#45;&gt;Node12 -->
<g id="edge37" class="edge"><title>Node17&#45;&gt;Node12</title>
<path fill="none" stroke="midnightblue" d="M736.362,-236.481C730.946,-227.745 723.136,-213.556 720,-200 710.747,-160.006 716.267,-111.45 720.51,-85.4898"/>
<polygon fill="midnightblue" stroke="midnightblue" points="723.973,-86.0053 722.257,-75.5503 717.078,-84.7932 723.973,-86.0053"/>
</g>
<!-- Node18 -->
<g id="node18" class="node"><title>Node18</title>
<g id="a_node18"><a xlink:href="StoichManager_8h.html" target="_top" xlink:title="StoichManager.h">
<polygon fill="white" stroke="black" points="1023.5,-112.5 1023.5,-131.5 1112.5,-131.5 1112.5,-112.5 1023.5,-112.5"/>
<text text-anchor="middle" x="1068" y="-119.5" font-family="FreeSans" font-size="10.00">StoichManager.h</text>
</a>
</g>
</g>
<!-- Node17&#45;&gt;Node18 -->
<g id="edge25" class="edge"><title>Node17&#45;&gt;Node18</title>
<path fill="none" stroke="midnightblue" d="M771.708,-238.051C798.944,-230.924 839.811,-218.284 872,-200 891.199,-189.095 890.505,-178.365 910,-168 942.268,-150.843 981.816,-139.588 1013.27,-132.624"/>
<polygon fill="midnightblue" stroke="midnightblue" points="1014.13,-136.02 1023.18,-130.512 1012.67,-129.174 1014.13,-136.02"/>
</g>
<!-- Node20 -->
<g id="node20" class="node"><title>Node20</title>
<g id="a_node20"><a xlink:href="mix__defs_8h.html" target="_top" xlink:title="cantera/thermo/mix\l_defs.h">
<polygon fill="white" stroke="black" points="919,-169 919,-199 1019,-199 1019,-169 919,-169"/>
<text text-anchor="start" x="927" y="-187" font-family="FreeSans" font-size="10.00">cantera/thermo/mix</text>
<text text-anchor="middle" x="969" y="-176" font-family="FreeSans" font-size="10.00">_defs.h</text>
</a>
</g>
</g>
<!-- Node17&#45;&gt;Node20 -->
<g id="edge30" class="edge"><title>Node17&#45;&gt;Node20</title>
<path fill="none" stroke="midnightblue" d="M771.676,-237.156C806.424,-227.972 864.853,-212.528 909.136,-200.823"/>
<polygon fill="midnightblue" stroke="midnightblue" points="910.151,-204.175 918.925,-198.236 908.362,-197.407 910.151,-204.175"/>
</g>
<!-- Node21 -->
<g id="node21" class="node"><title>Node21</title>
<g id="a_node21"><a xlink:href="Reaction_8h.html" target="_top" xlink:title="cantera/kinetics/Reaction.h">
<polygon fill="white" stroke="black" points="729,-174.5 729,-193.5 863,-193.5 863,-174.5 729,-174.5"/>
<text text-anchor="middle" x="796" y="-181.5" font-family="FreeSans" font-size="10.00">cantera/kinetics/Reaction.h</text>
</a>
</g>
</g>
<!-- Node17&#45;&gt;Node21 -->
<g id="edge31" class="edge"><title>Node17&#45;&gt;Node21</title>
<path fill="none" stroke="midnightblue" d="M749.737,-236.403C757.997,-227.225 771.277,-212.47 781.494,-201.117"/>
<polygon fill="midnightblue" stroke="midnightblue" points="784.189,-203.355 788.277,-193.581 778.986,-198.672 784.189,-203.355"/>
</g>
<!-- Node18&#45;&gt;Node5 -->
<g id="edge29" class="edge"><title>Node18&#45;&gt;Node5</title>
<path fill="none" stroke="midnightblue" d="M1035.83,-112.444C1000.94,-103.162 945.107,-88.3093 906.829,-78.127"/>
<polygon fill="midnightblue" stroke="midnightblue" points="907.579,-74.7048 897.015,-75.5164 905.78,-81.4696 907.579,-74.7048"/>
</g>
<!-- Node19 -->
<g id="node19" class="node"><title>Node19</title>
<g id="a_node19"><a xlink:href="stringUtils_8h.html" target="_top" xlink:title="Contains declarations for string manipulation functions within Cantera. ">
<polygon fill="white" stroke="red" points="951.5,-56.5 951.5,-75.5 1076.5,-75.5 1076.5,-56.5 951.5,-56.5"/>
<text text-anchor="middle" x="1014" y="-63.5" font-family="FreeSans" font-size="10.00">cantera/base/stringUtils.h</text>
</a>
</g>
</g>
<!-- Node18&#45;&gt;Node19 -->
<g id="edge26" class="edge"><title>Node18&#45;&gt;Node19</title>
<path fill="none" stroke="midnightblue" d="M1059.08,-112.083C1051.22,-104.22 1039.57,-92.5688 1030.08,-83.0813"/>
<polygon fill="midnightblue" stroke="midnightblue" points="1032.3,-80.3473 1022.75,-75.7511 1027.35,-85.2971 1032.3,-80.3473"/>
</g>
<!-- Node19&#45;&gt;Node6 -->
<g id="edge28" class="edge"><title>Node19&#45;&gt;Node6</title>
<path fill="none" stroke="midnightblue" d="M990.391,-56.4435C965.542,-47.4381 926.226,-33.1891 898.246,-23.049"/>
<polygon fill="midnightblue" stroke="midnightblue" points="899.093,-19.6332 888.499,-19.5164 896.708,-26.2144 899.093,-19.6332"/>
</g>
<!-- Node19&#45;&gt;Node8 -->
<g id="edge27" class="edge"><title>Node19&#45;&gt;Node8</title>
<path fill="none" stroke="midnightblue" d="M951.185,-57.0294C948.08,-56.6727 945.006,-56.3275 942,-56 793.415,-39.8102 618.762,-24.4831 525.229,-16.574"/>
<polygon fill="midnightblue" stroke="midnightblue" points="525.317,-13.069 515.058,-15.7162 524.728,-20.0443 525.317,-13.069"/>
</g>
<!-- Node21&#45;&gt;Node13 -->
<g id="edge32" class="edge"><title>Node21&#45;&gt;Node13</title>
<path fill="none" stroke="midnightblue" d="M764.766,-174.403C726.4,-163.844 661.213,-145.903 618.889,-134.254"/>
<polygon fill="midnightblue" stroke="midnightblue" points="619.746,-130.86 609.176,-131.581 617.889,-137.609 619.746,-130.86"/>
</g>
<!-- Node22 -->
<g id="node22" class="node"><title>Node22</title>
<g id="a_node22"><a xlink:href="RxnRates_8h.html" target="_top" xlink:title="cantera/kinetics/RxnRates.h">
<polygon fill="white" stroke="red" points="868.5,-112.5 868.5,-131.5 1005.5,-131.5 1005.5,-112.5 868.5,-112.5"/>
<text text-anchor="middle" x="937" y="-119.5" font-family="FreeSans" font-size="10.00">cantera/kinetics/RxnRates.h</text>
</a>
</g>
</g>
<!-- Node21&#45;&gt;Node22 -->
<g id="edge33" class="edge"><title>Node21&#45;&gt;Node22</title>
<path fill="none" stroke="midnightblue" d="M816.202,-174.403C840.074,-164.245 880.002,-147.255 907.373,-135.607"/>
<polygon fill="midnightblue" stroke="midnightblue" points="909.005,-138.717 916.836,-131.581 906.264,-132.276 909.005,-138.717"/>
</g>
<!-- Node23 -->
<g id="node23" class="node"><title>Node23</title>
<g id="a_node23"><a xlink:href="Falloff_8h_source.html" target="_top" xlink:title="cantera/kinetics/Falloff.h">
<polygon fill="white" stroke="red" points="729.5,-112.5 729.5,-131.5 850.5,-131.5 850.5,-112.5 729.5,-112.5"/>
<text text-anchor="middle" x="790" y="-119.5" font-family="FreeSans" font-size="10.00">cantera/kinetics/Falloff.h</text>
</a>
</g>
</g>
<!-- Node21&#45;&gt;Node23 -->
<g id="edge36" class="edge"><title>Node21&#45;&gt;Node23</title>
<path fill="none" stroke="midnightblue" d="M795.14,-174.403C794.294,-165.938 792.973,-152.728 791.882,-141.82"/>
<polygon fill="midnightblue" stroke="midnightblue" points="795.336,-141.183 790.858,-131.581 788.371,-141.879 795.336,-141.183"/>
</g>
<!-- Node22&#45;&gt;Node5 -->
<g id="edge34" class="edge"><title>Node22&#45;&gt;Node5</title>
<path fill="none" stroke="midnightblue" d="M925.432,-112.324C914.58,-104.185 898.119,-91.8395 885.117,-82.0874"/>
<polygon fill="midnightblue" stroke="midnightblue" points="886.879,-79.0339 876.779,-75.8339 882.679,-84.6339 886.879,-79.0339"/>
</g>
<!-- Node22&#45;&gt;Node19 -->
<g id="edge35" class="edge"><title>Node22&#45;&gt;Node19</title>
<path fill="none" stroke="midnightblue" d="M949.371,-112.324C961.158,-104.058 979.132,-91.4527 993.136,-81.6322"/>
<polygon fill="midnightblue" stroke="midnightblue" points="995.482,-84.2619 1001.66,-75.6545 991.462,-78.5307 995.482,-84.2619"/>
</g>
</g>
</svg>
