<?xml version="1.0" encoding="UTF-8" standalone="no"?>
<!DOCTYPE svg PUBLIC "-//W3C//DTD SVG 1.1//EN"
 "http://www.w3.org/Graphics/SVG/1.1/DTD/svg11.dtd">
<!-- Generated by graphviz version 2.26.3 (20100126.1600)
 -->
<!-- Title: Inlet1D.h Pages: 1 -->
<svg width="1516pt" height="576pt"
 viewBox="0.00 0.00 1516.00 576.00" xmlns="http://www.w3.org/2000/svg" xmlns:xlink="http://www.w3.org/1999/xlink">
<g id="graph1" class="graph" transform="scale(1 1) rotate(0) translate(4 572)">
<title>Inlet1D.h</title>
<polygon fill="white" stroke="white" points="-4,5 -4,-572 1513,-572 1513,5 -4,5"/>
<!-- Node1 -->
<g id="node1" class="node"><title>Node1</title>
<polygon fill="#bfbfbf" stroke="black" points="993.5,-547 993.5,-567 1048.5,-567 1048.5,-547 993.5,-547"/>
<text text-anchor="middle" x="1021" y="-554" font-family="FreeSans" font-size="10.00">Inlet1D.h</text>
</g>
<!-- Node2 -->
<g id="node3" class="node"><title>Node2</title>
<a xlink:href="Domain1D_8h.html" target="_top" xlink:title="Domain1D.h">
<polygon fill="white" stroke="black" points="1309.5,-233 1309.5,-253 1378.5,-253 1378.5,-233 1309.5,-233"/>
<text text-anchor="middle" x="1344" y="-240" font-family="FreeSans" font-size="10.00">Domain1D.h</text>
</a>
</g>
<!-- Node1&#45;&gt;Node2 -->
<g id="edge2" class="edge"><title>Node1&#45;&gt;Node2</title>
<path fill="none" stroke="midnightblue" d="M1048.85,-550.709C1100.73,-537.16 1207,-500.011 1207,-423 1207,-423 1207,-423 1207,-359 1207,-307.354 1264.41,-273.964 1304.9,-256.836"/>
<polygon fill="midnightblue" stroke="midnightblue" points="1306.32,-260.035 1314.27,-253.029 1303.69,-253.549 1306.32,-260.035"/>
</g>
<!-- Node11 -->
<g id="node26" class="node"><title>Node11</title>
<a xlink:href="SurfPhase_8h.html" target="_top" xlink:title="Header for a simple thermodynamics model of a surface phase derived from ThermoPhase, assuming an ideal solution model (see Thermodynamic Properties and class SurfPhase). ">
<polygon fill="white" stroke="black" points="613.5,-413 613.5,-433 750.5,-433 750.5,-413 613.5,-413"/>
<text text-anchor="middle" x="682" y="-420" font-family="FreeSans" font-size="10.00">cantera/thermo/SurfPhase.h</text>
</a>
</g>
<!-- Node1&#45;&gt;Node11 -->
<g id="edge30" class="edge"><title>Node1&#45;&gt;Node11</title>
<path fill="none" stroke="midnightblue" d="M995.52,-546.928C935.494,-523.201 785.125,-463.763 716.781,-436.748"/>
<polygon fill="midnightblue" stroke="midnightblue" points="717.9,-433.427 707.313,-433.006 715.327,-439.937 717.9,-433.427"/>
</g>
<!-- Node18 -->
<g id="node42" class="node"><title>Node18</title>
<a xlink:href="ctml_8h.html" target="_top" xlink:title="CTML (&quot;Cantera Markup Language&quot;) is the variant of XML that Cantera uses to store data...">
<polygon fill="white" stroke="black" points="613.5,-233 613.5,-253 714.5,-253 714.5,-233 613.5,-233"/>
<text text-anchor="middle" x="664" y="-240" font-family="FreeSans" font-size="10.00">cantera/base/ctml.h</text>
</a>
</g>
<!-- Node1&#45;&gt;Node18 -->
<g id="edge160" class="edge"><title>Node1&#45;&gt;Node18</title>
<path fill="none" stroke="midnightblue" d="M1003.84,-546.969C988.884,-537.953 966.847,-524.011 949,-510 920.413,-487.558 739.784,-315.407 681.855,-260.071"/>
<polygon fill="midnightblue" stroke="midnightblue" points="684.172,-257.444 674.524,-253.065 679.336,-262.504 684.172,-257.444"/>
</g>
<!-- Node23 -->
<g id="node61" class="node"><title>Node23</title>
<a xlink:href="InterfaceKinetics_8h.html" target="_top" xlink:title="cantera/kinetics/Interface\lKinetics.h">
<polygon fill="white" stroke="black" points="958,-477 958,-509 1084,-509 1084,-477 958,-477"/>
<text text-anchor="start" x="966" y="-496" font-family="FreeSans" font-size="10.00">cantera/kinetics/Interface</text>
<text text-anchor="middle" x="1021" y="-484" font-family="FreeSans" font-size="10.00">Kinetics.h</text>
</a>
</g>
<!-- Node1&#45;&gt;Node23 -->
<g id="edge76" class="edge"><title>Node1&#45;&gt;Node23</title>
<path fill="none" stroke="midnightblue" d="M1021,-546.717C1021,-539.244 1021,-528.779 1021,-519.068"/>
<polygon fill="midnightblue" stroke="midnightblue" points="1024.5,-519.005 1021,-509.005 1017.5,-519.005 1024.5,-519.005"/>
</g>
<!-- Node31 -->
<g id="node93" class="node"><title>Node31</title>
<a xlink:href="StFlow_8h.html" target="_top" xlink:title="StFlow.h">
<polygon fill="white" stroke="black" points="559,-483 559,-503 613,-503 613,-483 559,-483"/>
<text text-anchor="middle" x="586" y="-490" font-family="FreeSans" font-size="10.00">StFlow.h</text>
</a>
</g>
<!-- Node1&#45;&gt;Node31 -->
<g id="edge124" class="edge"><title>Node1&#45;&gt;Node31</title>
<path fill="none" stroke="midnightblue" d="M993.459,-552.948C918.16,-541.869 708.784,-511.065 623.188,-498.471"/>
<polygon fill="midnightblue" stroke="midnightblue" points="623.545,-494.986 613.142,-496.993 622.526,-501.912 623.545,-494.986"/>
</g>
<!-- Node36 -->
<g id="node114" class="node"><title>Node36</title>
<a xlink:href="OneDim_8h.html" target="_top" xlink:title="OneDim.h">
<polygon fill="white" stroke="black" points="1234.5,-483 1234.5,-503 1293.5,-503 1293.5,-483 1234.5,-483"/>
<text text-anchor="middle" x="1264" y="-490" font-family="FreeSans" font-size="10.00">OneDim.h</text>
</a>
</g>
<!-- Node1&#45;&gt;Node36 -->
<g id="edge156" class="edge"><title>Node1&#45;&gt;Node36</title>
<path fill="none" stroke="midnightblue" d="M1048.51,-551.856C1087.39,-544.291 1160.42,-528.984 1221,-510 1224.14,-509.016 1227.38,-507.911 1230.6,-506.749"/>
<polygon fill="midnightblue" stroke="midnightblue" points="1232,-509.964 1240.11,-503.157 1229.52,-503.415 1232,-509.964"/>
</g>
<!-- Node37 -->
<g id="node118" class="node"><title>Node37</title>
<polygon fill="white" stroke="#bfbfbf" points="1311,-483 1311,-503 1353,-503 1353,-483 1311,-483"/>
<text text-anchor="middle" x="1332" y="-490" font-family="FreeSans" font-size="10.00">cstdio</text>
</g>
<!-- Node1&#45;&gt;Node37 -->
<g id="edge162" class="edge"><title>Node1&#45;&gt;Node37</title>
<path fill="none" stroke="midnightblue" d="M1048.52,-555.579C1099.77,-552.246 1212.72,-541.645 1302,-510 1303.86,-509.34 1305.74,-508.568 1307.61,-507.723"/>
<polygon fill="midnightblue" stroke="midnightblue" points="1309.33,-510.773 1316.61,-503.081 1306.12,-504.551 1309.33,-510.773"/>
</g>
<!-- Node3 -->
<g id="node5" class="node"><title>Node3</title>
<a xlink:href="xml_8h.html" target="_top" xlink:title="Classes providing support for XML data files. ">
<polygon fill="white" stroke="black" points="1052,-175 1052,-195 1150,-195 1150,-175 1052,-175"/>
<text text-anchor="middle" x="1101" y="-182" font-family="FreeSans" font-size="10.00">cantera/base/xml.h</text>
</a>
</g>
<!-- Node2&#45;&gt;Node3 -->
<g id="edge4" class="edge"><title>Node2&#45;&gt;Node3</title>
<path fill="none" stroke="midnightblue" d="M1309.44,-234.752C1268.58,-224.999 1200.18,-208.673 1152.94,-197.396"/>
<polygon fill="midnightblue" stroke="midnightblue" points="1153.73,-193.988 1143.19,-195.071 1152.11,-200.797 1153.73,-193.988"/>
</g>
<!-- Node4 -->
<g id="node7" class="node"><title>Node4</title>
<a xlink:href="ctexceptions_8h.html" target="_top" xlink:title="Definitions for the classes that are thrown when Cantera experiences an error condition (also contain...">
<polygon fill="white" stroke="black" points="1146,-117 1146,-137 1224,-137 1224,-117 1146,-117"/>
<text text-anchor="middle" x="1185" y="-124" font-family="FreeSans" font-size="10.00">ctexceptions.h</text>
</a>
</g>
<!-- Node2&#45;&gt;Node4 -->
<g id="edge24" class="edge"><title>Node2&#45;&gt;Node4</title>
<path fill="none" stroke="midnightblue" d="M1367.95,-232.986C1395.22,-220.177 1433.7,-196.902 1415,-174 1392.65,-146.617 1294.98,-134.764 1234.34,-129.967"/>
<polygon fill="midnightblue" stroke="midnightblue" points="1234.44,-126.465 1224.2,-129.204 1233.91,-133.445 1234.44,-126.465"/>
</g>
<!-- Node9 -->
<g id="node18" class="node"><title>Node9</title>
<a xlink:href="stringUtils_8h.html" target="_top" xlink:title="Contains declarations for string manipulation functions within Cantera. ">
<polygon fill="white" stroke="black" points="1281.5,-175 1281.5,-195 1406.5,-195 1406.5,-175 1281.5,-175"/>
<text text-anchor="middle" x="1344" y="-182" font-family="FreeSans" font-size="10.00">cantera/base/stringUtils.h</text>
</a>
</g>
<!-- Node2&#45;&gt;Node9 -->
<g id="edge18" class="edge"><title>Node2&#45;&gt;Node9</title>
<path fill="none" stroke="midnightblue" d="M1344,-232.897C1344,-225.339 1344,-214.748 1344,-205.446"/>
<polygon fill="midnightblue" stroke="midnightblue" points="1347.5,-205.378 1344,-195.378 1340.5,-205.378 1347.5,-205.378"/>
</g>
<!-- Node10 -->
<g id="node23" class="node"><title>Node10</title>
<a xlink:href="refine_8h_source.html" target="_top" xlink:title="refine.h">
<polygon fill="white" stroke="black" points="1461.5,-175 1461.5,-195 1508.5,-195 1508.5,-175 1461.5,-175"/>
<text text-anchor="middle" x="1485" y="-182" font-family="FreeSans" font-size="10.00">refine.h</text>
</a>
</g>
<!-- Node2&#45;&gt;Node10 -->
<g id="edge26" class="edge"><title>Node2&#45;&gt;Node10</title>
<path fill="none" stroke="midnightblue" d="M1368.56,-232.897C1391.65,-223.4 1426.38,-209.114 1451.9,-198.614"/>
<polygon fill="midnightblue" stroke="midnightblue" points="1453.27,-201.835 1461.19,-194.794 1450.61,-195.361 1453.27,-201.835"/>
</g>
<!-- Node3&#45;&gt;Node4 -->
<g id="edge6" class="edge"><title>Node3&#45;&gt;Node4</title>
<path fill="none" stroke="midnightblue" d="M1115.63,-174.897C1128.32,-166.135 1146.92,-153.297 1161.66,-143.116"/>
<polygon fill="midnightblue" stroke="midnightblue" points="1164.01,-145.744 1170.25,-137.182 1160.04,-139.983 1164.01,-145.744"/>
</g>
<!-- Node7 -->
<g id="node13" class="node"><title>Node7</title>
<a xlink:href="global_8h.html" target="_top" xlink:title="This file contains definitions for utility functions and text for modules, inputfiles, logs, textlogs, (see Input File Handling, Diagnostic Output, and Writing messages to the screen). ">
<polygon fill="white" stroke="black" points="1069,-117 1069,-137 1119,-137 1119,-117 1069,-117"/>
<text text-anchor="middle" x="1094" y="-124" font-family="FreeSans" font-size="10.00">global.h</text>
</a>
</g>
<!-- Node3&#45;&gt;Node7 -->
<g id="edge12" class="edge"><title>Node3&#45;&gt;Node7</title>
<path fill="none" stroke="midnightblue" d="M1099.78,-174.897C1098.87,-167.339 1097.59,-156.748 1096.47,-147.446"/>
<polygon fill="midnightblue" stroke="midnightblue" points="1099.93,-146.886 1095.25,-137.378 1092.98,-147.725 1099.93,-146.886"/>
</g>
<!-- Node5 -->
<g id="node9" class="node"><title>Node5</title>
<polygon fill="white" stroke="#bfbfbf" points="1127,-59 1127,-79 1185,-79 1185,-59 1127,-59"/>
<text text-anchor="middle" x="1156" y="-66" font-family="FreeSans" font-size="10.00">exception</text>
</g>
<!-- Node4&#45;&gt;Node5 -->
<g id="edge8" class="edge"><title>Node4&#45;&gt;Node5</title>
<path fill="none" stroke="midnightblue" d="M1179.95,-116.897C1176.05,-109.093 1170.53,-98.0536 1165.77,-88.5401"/>
<polygon fill="midnightblue" stroke="midnightblue" points="1168.79,-86.7566 1161.19,-79.3776 1162.53,-89.8872 1168.79,-86.7566"/>
</g>
<!-- Node6 -->
<g id="node11" class="node"><title>Node6</title>
<polygon fill="white" stroke="#bfbfbf" points="1193,-1 1193,-21 1233,-21 1233,-1 1193,-1"/>
<text text-anchor="middle" x="1213" y="-8" font-family="FreeSans" font-size="10.00">string</text>
</g>
<!-- Node4&#45;&gt;Node6 -->
<g id="edge10" class="edge"><title>Node4&#45;&gt;Node6</title>
<path fill="none" stroke="midnightblue" d="M1187.48,-116.706C1192.13,-97.4821 1202.18,-55.8247 1208.19,-30.9294"/>
<polygon fill="midnightblue" stroke="midnightblue" points="1211.62,-31.6476 1210.56,-21.1055 1204.81,-30.0051 1211.62,-31.6476"/>
</g>
<!-- Node8 -->
<g id="node15" class="node"><title>Node8</title>
<a xlink:href="ct__defs_8h.html" target="_top" xlink:title="This file contains definitions of terms that are used in internal routines and are unlikely to need m...">
<polygon fill="white" stroke="red" points="647,-59 647,-79 703,-79 703,-59 647,-59"/>
<text text-anchor="middle" x="675" y="-66" font-family="FreeSans" font-size="10.00">ct_defs.h</text>
</a>
</g>
<!-- Node7&#45;&gt;Node8 -->
<g id="edge14" class="edge"><title>Node7&#45;&gt;Node8</title>
<path fill="none" stroke="midnightblue" d="M1068.97,-121.722C1059.32,-119.781 1048.17,-117.655 1038,-116 920.118,-96.8118 779.67,-80.4654 713.328,-73.1304"/>
<polygon fill="midnightblue" stroke="midnightblue" points="713.655,-69.6453 703.332,-72.0315 712.89,-76.6034 713.655,-69.6453"/>
</g>
<!-- Node8&#45;&gt;Node6 -->
<g id="edge16" class="edge"><title>Node8&#45;&gt;Node6</title>
<path fill="none" stroke="midnightblue" d="M703.168,-65.9633C795.393,-56.0209 1087.82,-24.4951 1182.85,-14.2503"/>
<polygon fill="midnightblue" stroke="midnightblue" points="1183.37,-17.7148 1192.94,-13.163 1182.62,-10.7552 1183.37,-17.7148"/>
</g>
<!-- Node9&#45;&gt;Node6 -->
<g id="edge22" class="edge"><title>Node9&#45;&gt;Node6</title>
<path fill="none" stroke="midnightblue" d="M1336.39,-174.893C1315.05,-146.542 1254.38,-65.9586 1226.87,-29.4176"/>
<polygon fill="midnightblue" stroke="midnightblue" points="1229.44,-27.0188 1220.63,-21.135 1223.85,-31.2291 1229.44,-27.0188"/>
</g>
<!-- Node9&#45;&gt;Node8 -->
<g id="edge20" class="edge"><title>Node9&#45;&gt;Node8</title>
<path fill="none" stroke="midnightblue" d="M1332,-174.814C1312.63,-159.035 1272.63,-129.137 1233,-116 1136.21,-83.9158 823.395,-72.8547 713.558,-69.9058"/>
<polygon fill="midnightblue" stroke="midnightblue" points="713.364,-66.3997 703.276,-69.6377 713.181,-73.3973 713.364,-66.3997"/>
</g>
<!-- Node10&#45;&gt;Node8 -->
<g id="edge28" class="edge"><title>Node10&#45;&gt;Node8</title>
<path fill="none" stroke="midnightblue" d="M1461.5,-175.512C1422.32,-160.148 1340.85,-130.122 1269,-116 1161.82,-94.9328 827.232,-76.6388 713.379,-70.8797"/>
<polygon fill="midnightblue" stroke="midnightblue" points="713.228,-67.3678 703.065,-70.3618 712.877,-74.359 713.228,-67.3678"/>
</g>
<!-- Node12 -->
<g id="node28" class="node"><title>Node12</title>
<a xlink:href="mix__defs_8h.html" target="_top" xlink:title="mix_defs.h">
<polygon fill="white" stroke="black" points="671,-349 671,-369 733,-369 733,-349 671,-349"/>
<text text-anchor="middle" x="702" y="-356" font-family="FreeSans" font-size="10.00">mix_defs.h</text>
</a>
</g>
<!-- Node11&#45;&gt;Node12 -->
<g id="edge32" class="edge"><title>Node11&#45;&gt;Node12</title>
<path fill="none" stroke="midnightblue" d="M685.213,-412.717C688.058,-403.613 692.291,-390.068 695.794,-378.858"/>
<polygon fill="midnightblue" stroke="midnightblue" points="699.218,-379.635 698.861,-369.046 692.537,-377.547 699.218,-379.635"/>
</g>
<!-- Node13 -->
<g id="node30" class="node"><title>Node13</title>
<a xlink:href="ThermoPhase_8h.html" target="_top" xlink:title="Header file for class ThermoPhase, the base class for phases with thermodynamic properties, and the text for the Module thermoprops (see Thermodynamic Properties and class ThermoPhase). ">
<polygon fill="white" stroke="black" points="466,-349 466,-369 550,-369 550,-349 466,-349"/>
<text text-anchor="middle" x="508" y="-356" font-family="FreeSans" font-size="10.00">ThermoPhase.h</text>
</a>
</g>
<!-- Node11&#45;&gt;Node13 -->
<g id="edge34" class="edge"><title>Node11&#45;&gt;Node13</title>
<path fill="none" stroke="midnightblue" d="M654.429,-412.859C624.903,-401.999 577.882,-384.704 545.117,-372.652"/>
<polygon fill="midnightblue" stroke="midnightblue" points="546.035,-369.261 535.442,-369.094 543.619,-375.831 546.035,-369.261"/>
</g>
<!-- Node14 -->
<g id="node32" class="node"><title>Node14</title>
<a xlink:href="Phase_8h.html" target="_top" xlink:title="Header file for class Phase. ">
<polygon fill="white" stroke="black" points="469.5,-291 469.5,-311 520.5,-311 520.5,-291 469.5,-291"/>
<text text-anchor="middle" x="495" y="-298" font-family="FreeSans" font-size="10.00">Phase.h</text>
</a>
</g>
<!-- Node13&#45;&gt;Node14 -->
<g id="edge36" class="edge"><title>Node13&#45;&gt;Node14</title>
<path fill="none" stroke="midnightblue" d="M505.736,-348.897C504.023,-341.257 501.616,-330.517 499.515,-321.143"/>
<polygon fill="midnightblue" stroke="midnightblue" points="502.928,-320.37 497.326,-311.378 496.098,-321.901 502.928,-320.37"/>
</g>
<!-- Node22 -->
<g id="node58" class="node"><title>Node22</title>
<a xlink:href="SpeciesThermo_8h.html" target="_top" xlink:title="Virtual base class for the calculation of multiple&#45;species thermodynamic reference&#45;state property man...">
<polygon fill="white" stroke="black" points="318,-291 318,-311 410,-311 410,-291 318,-291"/>
<text text-anchor="middle" x="364" y="-298" font-family="FreeSans" font-size="10.00">SpeciesThermo.h</text>
</a>
</g>
<!-- Node13&#45;&gt;Node22 -->
<g id="edge72" class="edge"><title>Node13&#45;&gt;Node22</title>
<path fill="none" stroke="midnightblue" d="M482.917,-348.897C459.624,-339.515 424.727,-325.459 398.753,-314.998"/>
<polygon fill="midnightblue" stroke="midnightblue" points="399.862,-311.671 389.279,-311.182 397.247,-318.164 399.862,-311.671"/>
</g>
<!-- Node15 -->
<g id="node34" class="node"><title>Node15</title>
<a xlink:href="vec__functions_8h.html" target="_top" xlink:title="Templates for operations on vector&#45;like objects. ">
<polygon fill="white" stroke="red" points="576,-175 576,-195 718,-195 718,-175 576,-175"/>
<text text-anchor="middle" x="647" y="-182" font-family="FreeSans" font-size="10.00">cantera/base/vec_functions.h</text>
</a>
</g>
<!-- Node14&#45;&gt;Node15 -->
<g id="edge38" class="edge"><title>Node14&#45;&gt;Node15</title>
<path fill="none" stroke="midnightblue" d="M505.464,-290.563C519.83,-276.488 546.759,-250.999 572,-232 587.308,-220.478 605.496,-209.03 620.128,-200.317"/>
<polygon fill="midnightblue" stroke="midnightblue" points="622.311,-203.094 629.163,-195.014 618.767,-197.057 622.311,-203.094"/>
</g>
<!-- Node14&#45;&gt;Node18 -->
<g id="edge48" class="edge"><title>Node14&#45;&gt;Node18</title>
<path fill="none" stroke="midnightblue" d="M520.667,-292.191C548.45,-282.656 593.077,-267.341 625.157,-256.331"/>
<polygon fill="midnightblue" stroke="midnightblue" points="626.355,-259.62 634.677,-253.063 624.082,-252.999 626.355,-259.62"/>
</g>
<!-- Node20 -->
<g id="node52" class="node"><title>Node20</title>
<a xlink:href="Elements_8h.html" target="_top" xlink:title="Contains the LookupWtElements function and the definitions of element constraint types. ">
<polygon fill="white" stroke="black" points="330,-117 330,-137 462,-137 462,-117 330,-117"/>
<text text-anchor="middle" x="396" y="-124" font-family="FreeSans" font-size="10.00">cantera/thermo/Elements.h</text>
</a>
</g>
<!-- Node14&#45;&gt;Node20 -->
<g id="edge64" class="edge"><title>Node14&#45;&gt;Node20</title>
<path fill="none" stroke="midnightblue" d="M489.249,-290.893C473.187,-262.663 427.658,-182.641 406.745,-145.884"/>
<polygon fill="midnightblue" stroke="midnightblue" points="409.754,-144.096 401.766,-137.135 403.67,-147.557 409.754,-144.096"/>
</g>
<!-- Node21 -->
<g id="node55" class="node"><title>Node21</title>
<a xlink:href="ValueCache_8h.html" target="_top" xlink:title="cantera/base/ValueCache.h">
<polygon fill="white" stroke="red" points="238,-233 238,-253 372,-253 372,-233 238,-233"/>
<text text-anchor="middle" x="305" y="-240" font-family="FreeSans" font-size="10.00">cantera/base/ValueCache.h</text>
</a>
</g>
<!-- Node14&#45;&gt;Node21 -->
<g id="edge68" class="edge"><title>Node14&#45;&gt;Node21</title>
<path fill="none" stroke="midnightblue" d="M469.376,-293.178C438.133,-283.641 384.88,-267.384 347.473,-255.965"/>
<polygon fill="midnightblue" stroke="midnightblue" points="348.438,-252.601 337.851,-253.028 346.394,-259.296 348.438,-252.601"/>
</g>
<!-- Node15&#45;&gt;Node8 -->
<g id="edge40" class="edge"><title>Node15&#45;&gt;Node8</title>
<path fill="none" stroke="midnightblue" d="M649.485,-174.706C654.125,-155.482 664.18,-113.825 670.189,-88.9294"/>
<polygon fill="midnightblue" stroke="midnightblue" points="673.617,-89.6476 672.561,-79.1055 666.812,-88.0051 673.617,-89.6476"/>
</g>
<!-- Node16 -->
<g id="node37" class="node"><title>Node16</title>
<a xlink:href="utilities_8h.html" target="_top" xlink:title="Various templated functions that carry out common vector operations (see Templated Utility Functions)...">
<polygon fill="white" stroke="red" points="540,-117 540,-137 594,-137 594,-117 540,-117"/>
<text text-anchor="middle" x="567" y="-124" font-family="FreeSans" font-size="10.00">utilities.h</text>
</a>
</g>
<!-- Node15&#45;&gt;Node16 -->
<g id="edge42" class="edge"><title>Node15&#45;&gt;Node16</title>
<path fill="none" stroke="midnightblue" d="M633.065,-174.897C620.979,-166.135 603.271,-153.297 589.23,-143.116"/>
<polygon fill="midnightblue" stroke="midnightblue" points="591.194,-140.218 581.044,-137.182 587.085,-145.885 591.194,-140.218"/>
</g>
<!-- Node17 -->
<g id="node40" class="node"><title>Node17</title>
<polygon fill="white" stroke="#bfbfbf" points="729.5,-117 729.5,-137 782.5,-137 782.5,-117 729.5,-117"/>
<text text-anchor="middle" x="756" y="-124" font-family="FreeSans" font-size="10.00">iostream</text>
</g>
<!-- Node15&#45;&gt;Node17 -->
<g id="edge46" class="edge"><title>Node15&#45;&gt;Node17</title>
<path fill="none" stroke="midnightblue" d="M665.986,-174.897C683.074,-165.804 708.413,-152.322 727.856,-141.976"/>
<polygon fill="midnightblue" stroke="midnightblue" points="729.682,-144.969 736.865,-137.182 726.393,-138.789 729.682,-144.969"/>
</g>
<!-- Node16&#45;&gt;Node8 -->
<g id="edge44" class="edge"><title>Node16&#45;&gt;Node8</title>
<path fill="none" stroke="midnightblue" d="M585.812,-116.897C602.743,-107.804 627.849,-94.3218 647.114,-83.9757"/>
<polygon fill="midnightblue" stroke="midnightblue" points="648.887,-86.9965 656.041,-79.1817 645.575,-80.8295 648.887,-86.9965"/>
</g>
<!-- Node18&#45;&gt;Node3 -->
<g id="edge52" class="edge"><title>Node18&#45;&gt;Node3</title>
<path fill="none" stroke="midnightblue" d="M714.556,-236.29C795.924,-225.491 955.533,-204.307 1041.99,-192.833"/>
<polygon fill="midnightblue" stroke="midnightblue" points="1042.45,-196.302 1051.9,-191.517 1041.53,-189.363 1042.45,-196.302"/>
</g>
<!-- Node18&#45;&gt;Node8 -->
<g id="edge50" class="edge"><title>Node18&#45;&gt;Node8</title>
<path fill="none" stroke="midnightblue" d="M621.105,-232.937C587.507,-224.112 544.717,-210.461 534,-196 512.815,-167.414 510.105,-144.799 531,-116 543.617,-98.6097 598.793,-84.2714 637.059,-76.1738"/>
<polygon fill="midnightblue" stroke="midnightblue" points="637.78,-79.5987 646.87,-74.1548 636.369,-72.7424 637.78,-79.5987"/>
</g>
<!-- Node19 -->
<g id="node46" class="node"><title>Node19</title>
<a xlink:href="Array_8h.html" target="_top" xlink:title="Header file for class Cantera::Array2D. ">
<polygon fill="white" stroke="red" points="735.5,-175 735.5,-195 782.5,-195 782.5,-175 735.5,-175"/>
<text text-anchor="middle" x="759" y="-182" font-family="FreeSans" font-size="10.00">Array.h</text>
</a>
</g>
<!-- Node18&#45;&gt;Node19 -->
<g id="edge54" class="edge"><title>Node18&#45;&gt;Node19</title>
<path fill="none" stroke="midnightblue" d="M680.548,-232.897C695.17,-223.97 716.724,-210.811 733.541,-200.543"/>
<polygon fill="midnightblue" stroke="midnightblue" points="735.612,-203.38 742.323,-195.182 731.964,-197.405 735.612,-203.38"/>
</g>
<!-- Node19&#45;&gt;Node4 -->
<g id="edge58" class="edge"><title>Node19&#45;&gt;Node4</title>
<path fill="none" stroke="midnightblue" d="M782.819,-182.501C841.603,-176.216 998.23,-158.764 1128,-138 1130.53,-137.596 1133.11,-137.164 1135.72,-136.713"/>
<polygon fill="midnightblue" stroke="midnightblue" points="1136.58,-140.114 1145.81,-134.904 1135.35,-133.224 1136.58,-140.114"/>
</g>
<!-- Node19&#45;&gt;Node8 -->
<g id="edge56" class="edge"><title>Node19&#45;&gt;Node8</title>
<path fill="none" stroke="midnightblue" d="M750.268,-174.762C742.379,-165.383 730.572,-151.019 721,-138 708.805,-121.412 695.881,-101.826 686.847,-87.7676"/>
<polygon fill="midnightblue" stroke="midnightblue" points="689.599,-85.5728 681.272,-79.0223 683.696,-89.336 689.599,-85.5728"/>
</g>
<!-- Node19&#45;&gt;Node16 -->
<g id="edge60" class="edge"><title>Node19&#45;&gt;Node16</title>
<path fill="none" stroke="midnightblue" d="M735.274,-176.71C732.491,-175.778 729.687,-174.856 727,-174 685.058,-160.638 636.497,-146.569 603.975,-137.346"/>
<polygon fill="midnightblue" stroke="midnightblue" points="604.583,-133.881 594.008,-134.529 602.679,-140.617 604.583,-133.881"/>
</g>
<!-- Node19&#45;&gt;Node17 -->
<g id="edge62" class="edge"><title>Node19&#45;&gt;Node17</title>
<path fill="none" stroke="midnightblue" d="M758.477,-174.897C758.087,-167.339 757.539,-156.748 757.058,-147.446"/>
<polygon fill="midnightblue" stroke="midnightblue" points="760.549,-147.183 756.537,-137.378 753.558,-147.545 760.549,-147.183"/>
</g>
<!-- Node20&#45;&gt;Node8 -->
<g id="edge66" class="edge"><title>Node20&#45;&gt;Node8</title>
<path fill="none" stroke="midnightblue" d="M444.28,-116.963C498.882,-105.612 586.688,-87.3588 636.759,-76.9497"/>
<polygon fill="midnightblue" stroke="midnightblue" points="637.767,-80.3151 646.845,-74.8529 636.342,-73.4616 637.767,-80.3151"/>
</g>
<!-- Node21&#45;&gt;Node8 -->
<g id="edge70" class="edge"><title>Node21&#45;&gt;Node8</title>
<path fill="none" stroke="midnightblue" d="M302.612,-232.683C297.692,-208.509 289.364,-147.848 321,-116 343.016,-93.8363 549.805,-77.4381 636.765,-71.4658"/>
<polygon fill="midnightblue" stroke="midnightblue" points="637.014,-74.957 646.755,-70.7894 636.542,-67.973 637.014,-74.957"/>
</g>
<!-- Node22&#45;&gt;Node8 -->
<g id="edge74" class="edge"><title>Node22&#45;&gt;Node8</title>
<path fill="none" stroke="midnightblue" d="M317.872,-290.956C283.097,-282.339 239.639,-268.969 229,-254 192.257,-202.301 177.123,-195.677 303,-116 357.924,-81.2346 553.544,-72.108 636.917,-69.7753"/>
<polygon fill="midnightblue" stroke="midnightblue" points="637.074,-73.2725 646.979,-69.5118 636.891,-66.2749 637.074,-73.2725"/>
</g>
<!-- Node23&#45;&gt;Node12 -->
<g id="edge78" class="edge"><title>Node23&#45;&gt;Node12</title>
<path fill="none" stroke="midnightblue" d="M989.166,-476.945C952.462,-458.707 890.096,-428.557 835,-406 804.554,-393.535 769.437,-381.21 742.936,-372.31"/>
<polygon fill="midnightblue" stroke="midnightblue" points="743.822,-368.916 733.228,-369.074 741.608,-375.557 743.822,-368.916"/>
</g>
<!-- Node23&#45;&gt;Node16 -->
<g id="edge88" class="edge"><title>Node23&#45;&gt;Node16</title>
<path fill="none" stroke="midnightblue" d="M996.963,-476.715C970.233,-458.794 925.598,-429.423 886,-406 763.79,-333.711 715.622,-343.016 605,-254 578.485,-232.663 566.853,-227.903 555,-196 549.061,-180.015 553.231,-160.835 558.216,-146.758"/>
<polygon fill="midnightblue" stroke="midnightblue" points="561.603,-147.713 562.033,-137.126 555.095,-145.134 561.603,-147.713"/>
</g>
<!-- Node24 -->
<g id="node64" class="node"><title>Node24</title>
<a xlink:href="Kinetics_8h.html" target="_top" xlink:title="Base class for kinetics managers and also contains the kineticsmgr module documentation (see Kinetics...">
<polygon fill="white" stroke="black" points="767.5,-413 767.5,-433 826.5,-433 826.5,-413 767.5,-413"/>
<text text-anchor="middle" x="797" y="-420" font-family="FreeSans" font-size="10.00">Kinetics.h</text>
</a>
</g>
<!-- Node23&#45;&gt;Node24 -->
<g id="edge80" class="edge"><title>Node23&#45;&gt;Node24</title>
<path fill="none" stroke="midnightblue" d="M969.61,-476.941C929.114,-464.286 873.489,-446.903 836.449,-435.328"/>
<polygon fill="midnightblue" stroke="midnightblue" points="837.111,-431.868 826.523,-432.226 835.023,-438.549 837.111,-431.868"/>
</g>
<!-- Node25 -->
<g id="node70" class="node"><title>Node25</title>
<a xlink:href="RateCoeffMgr_8h.html" target="_top" xlink:title="RateCoeffMgr.h">
<polygon fill="white" stroke="black" points="896.5,-291 896.5,-311 979.5,-311 979.5,-291 896.5,-291"/>
<text text-anchor="middle" x="938" y="-298" font-family="FreeSans" font-size="10.00">RateCoeffMgr.h</text>
</a>
</g>
<!-- Node23&#45;&gt;Node25 -->
<g id="edge90" class="edge"><title>Node23&#45;&gt;Node25</title>
<path fill="none" stroke="midnightblue" d="M1014.07,-476.96C998.966,-442.03 963.142,-359.159 946.62,-320.939"/>
<polygon fill="midnightblue" stroke="midnightblue" points="949.686,-319.211 942.505,-311.421 943.26,-321.989 949.686,-319.211"/>
</g>
<!-- Node29 -->
<g id="node87" class="node"><title>Node29</title>
<a xlink:href="ReactionStoichMgr_8h.html" target="_top" xlink:title="Header file declaring class ReactionStoichMgr. ">
<polygon fill="white" stroke="black" points="996.5,-291 996.5,-311 1103.5,-311 1103.5,-291 996.5,-291"/>
<text text-anchor="middle" x="1050" y="-298" font-family="FreeSans" font-size="10.00">ReactionStoichMgr.h</text>
</a>
</g>
<!-- Node23&#45;&gt;Node29 -->
<g id="edge116" class="edge"><title>Node23&#45;&gt;Node29</title>
<path fill="none" stroke="midnightblue" d="M1025.93,-476.906C1028.95,-466.474 1032.68,-452.54 1035,-440 1042.72,-398.232 1046.9,-348.614 1048.77,-321.397"/>
<polygon fill="midnightblue" stroke="midnightblue" points="1052.27,-321.397 1049.43,-311.192 1045.29,-320.944 1052.27,-321.397"/>
</g>
<!-- Node24&#45;&gt;Node4 -->
<g id="edge82" class="edge"><title>Node24&#45;&gt;Node4</title>
<path fill="none" stroke="midnightblue" d="M815.842,-412.989C820.717,-410.563 826.001,-408.074 831,-406 891.82,-380.769 1052.87,-340.961 1112,-312 1127.83,-304.247 1129.07,-297.541 1145,-290 1194.56,-266.543 1230.37,-298.067 1263,-254 1290.99,-216.203 1239.91,-168.058 1207.94,-143.312"/>
<polygon fill="midnightblue" stroke="midnightblue" points="1209.99,-140.475 1199.89,-137.262 1205.78,-146.07 1209.99,-140.475"/>
</g>
<!-- Node24&#45;&gt;Node12 -->
<g id="edge86" class="edge"><title>Node24&#45;&gt;Node12</title>
<path fill="none" stroke="midnightblue" d="M781.737,-412.717C766.551,-402.487 743.042,-386.649 725.479,-374.817"/>
<polygon fill="midnightblue" stroke="midnightblue" points="727.161,-371.731 716.912,-369.046 723.25,-377.536 727.161,-371.731"/>
</g>
<!-- Node24&#45;&gt;Node13 -->
<g id="edge84" class="edge"><title>Node24&#45;&gt;Node13</title>
<path fill="none" stroke="midnightblue" d="M776.832,-412.919C771.168,-410.381 764.933,-407.854 759,-406 691.898,-385.031 611.618,-372.006 560.233,-365.129"/>
<polygon fill="midnightblue" stroke="midnightblue" points="560.408,-361.622 550.038,-363.795 559.499,-368.563 560.408,-361.622"/>
</g>
<!-- Node25&#45;&gt;Node4 -->
<g id="edge112" class="edge"><title>Node25&#45;&gt;Node4</title>
<path fill="none" stroke="midnightblue" d="M950.33,-290.825C969.033,-275.873 1006.2,-248.009 1042,-232 1099.86,-206.126 1139.46,-244.725 1180,-196 1191.13,-182.627 1191.26,-162.298 1189.28,-147.166"/>
<polygon fill="midnightblue" stroke="midnightblue" points="1192.72,-146.511 1187.6,-137.239 1185.82,-147.684 1192.72,-146.511"/>
</g>
<!-- Node25&#45;&gt;Node8 -->
<g id="edge110" class="edge"><title>Node25&#45;&gt;Node8</title>
<path fill="none" stroke="midnightblue" d="M926.105,-290.749C915.784,-281.592 900.704,-267.566 889,-254 839.859,-197.043 850.004,-162.662 791,-116 768.034,-97.8376 737.106,-85.7734 712.96,-78.4198"/>
<polygon fill="midnightblue" stroke="midnightblue" points="713.65,-74.9756 703.071,-75.5526 711.701,-81.6988 713.65,-74.9756"/>
</g>
<!-- Node25&#45;&gt;Node9 -->
<g id="edge114" class="edge"><title>Node25&#45;&gt;Node9</title>
<path fill="none" stroke="midnightblue" d="M961.28,-290.865C982.456,-281.556 1014.51,-267.236 1042,-254 1061.34,-244.688 1064.66,-238.879 1085,-232 1146.21,-211.294 1218.81,-199.123 1271.55,-192.376"/>
<polygon fill="midnightblue" stroke="midnightblue" points="1272,-195.847 1281.49,-191.138 1271.13,-188.901 1272,-195.847"/>
</g>
<!-- Node25&#45;&gt;Node16 -->
<g id="edge92" class="edge"><title>Node25&#45;&gt;Node16</title>
<path fill="none" stroke="midnightblue" d="M907.668,-290.918C857.297,-274.235 758.433,-241.756 723,-232 654.397,-213.112 611.298,-251.685 567,-196 556.198,-182.421 557.62,-162.12 560.89,-147.049"/>
<polygon fill="midnightblue" stroke="midnightblue" points="564.33,-147.73 563.451,-137.171 557.554,-145.973 564.33,-147.73"/>
</g>
<!-- Node26 -->
<g id="node73" class="node"><title>Node26</title>
<a xlink:href="RxnRates_8h.html" target="_top" xlink:title="RxnRates.h">
<polygon fill="white" stroke="black" points="897.5,-233 897.5,-253 962.5,-253 962.5,-233 897.5,-233"/>
<text text-anchor="middle" x="930" y="-240" font-family="FreeSans" font-size="10.00">RxnRates.h</text>
</a>
</g>
<!-- Node25&#45;&gt;Node26 -->
<g id="edge94" class="edge"><title>Node25&#45;&gt;Node26</title>
<path fill="none" stroke="midnightblue" d="M936.607,-290.897C935.564,-283.339 934.103,-272.748 932.82,-263.446"/>
<polygon fill="midnightblue" stroke="midnightblue" points="936.265,-262.806 931.431,-253.378 929.331,-263.762 936.265,-262.806"/>
</g>
<!-- Node26&#45;&gt;Node4 -->
<g id="edge104" class="edge"><title>Node26&#45;&gt;Node4</title>
<path fill="none" stroke="midnightblue" d="M962.537,-238.099C1022.15,-228.865 1144.14,-208.679 1159,-196 1173.26,-183.83 1179.71,-163.002 1182.63,-147.406"/>
<polygon fill="midnightblue" stroke="midnightblue" points="1186.14,-147.584 1184.18,-137.172 1179.22,-146.533 1186.14,-147.584"/>
</g>
<!-- Node26&#45;&gt;Node9 -->
<g id="edge106" class="edge"><title>Node26&#45;&gt;Node9</title>
<path fill="none" stroke="midnightblue" d="M962.832,-238.4C1029.19,-229.103 1180.68,-207.881 1271.43,-195.167"/>
<polygon fill="midnightblue" stroke="midnightblue" points="1271.95,-198.628 1281.37,-193.774 1270.98,-191.696 1271.95,-198.628"/>
</g>
<!-- Node26&#45;&gt;Node17 -->
<g id="edge108" class="edge"><title>Node26&#45;&gt;Node17</title>
<path fill="none" stroke="midnightblue" d="M914.863,-232.909C884.527,-212.684 816.087,-167.058 779.734,-142.823"/>
<polygon fill="midnightblue" stroke="midnightblue" points="781.488,-139.785 771.226,-137.151 777.605,-145.61 781.488,-139.785"/>
</g>
<!-- Node27 -->
<g id="node75" class="node"><title>Node27</title>
<a xlink:href="reaction__defs_8h.html" target="_top" xlink:title="This file defines some constants used to specify reaction types. ">
<polygon fill="white" stroke="black" points="845,-117 845,-137 927,-137 927,-117 845,-117"/>
<text text-anchor="middle" x="886" y="-124" font-family="FreeSans" font-size="10.00">reaction_defs.h</text>
</a>
</g>
<!-- Node26&#45;&gt;Node27 -->
<g id="edge96" class="edge"><title>Node26&#45;&gt;Node27</title>
<path fill="none" stroke="midnightblue" d="M923.763,-232.86C918.241,-223.546 910.263,-209.224 905,-196 898.619,-179.968 893.57,-161.024 890.285,-147.046"/>
<polygon fill="midnightblue" stroke="midnightblue" points="893.646,-146.039 888.038,-137.051 886.817,-147.575 893.646,-146.039"/>
</g>
<!-- Node28 -->
<g id="node78" class="node"><title>Node28</title>
<a xlink:href="ReactionData_8h.html" target="_top" xlink:title="ReactionData.h">
<polygon fill="white" stroke="black" points="913.5,-175 913.5,-195 996.5,-195 996.5,-175 913.5,-175"/>
<text text-anchor="middle" x="955" y="-182" font-family="FreeSans" font-size="10.00">ReactionData.h</text>
</a>
</g>
<!-- Node26&#45;&gt;Node28 -->
<g id="edge100" class="edge"><title>Node26&#45;&gt;Node28</title>
<path fill="none" stroke="midnightblue" d="M934.355,-232.897C937.683,-225.175 942.377,-214.286 946.448,-204.841"/>
<polygon fill="midnightblue" stroke="midnightblue" points="949.783,-205.946 950.527,-195.378 943.354,-203.175 949.783,-205.946"/>
</g>
<!-- Node27&#45;&gt;Node8 -->
<g id="edge98" class="edge"><title>Node27&#45;&gt;Node8</title>
<path fill="none" stroke="midnightblue" d="M849.247,-116.897C811.095,-106.41 751.697,-90.0827 713.066,-79.4637"/>
<polygon fill="midnightblue" stroke="midnightblue" points="713.808,-76.0377 703.237,-76.762 711.952,-82.7874 713.808,-76.0377"/>
</g>
<!-- Node28&#45;&gt;Node27 -->
<g id="edge102" class="edge"><title>Node28&#45;&gt;Node27</title>
<path fill="none" stroke="midnightblue" d="M942.981,-174.897C932.817,-166.353 918.041,-153.933 906.083,-143.881"/>
<polygon fill="midnightblue" stroke="midnightblue" points="908.253,-141.133 898.346,-137.378 903.749,-146.491 908.253,-141.133"/>
</g>
<!-- Node29&#45;&gt;Node8 -->
<g id="edge118" class="edge"><title>Node29&#45;&gt;Node8</title>
<path fill="none" stroke="midnightblue" d="M1048.31,-290.947C1044.13,-268.336 1031.65,-212.449 1005,-174 982.176,-141.076 972.27,-133.012 936,-116 897.088,-97.7485 776.115,-81.1205 713.47,-73.4555"/>
<polygon fill="midnightblue" stroke="midnightblue" points="713.558,-69.9408 703.21,-72.2166 712.719,-76.8903 713.558,-69.9408"/>
</g>
<!-- Node30 -->
<g id="node90" class="node"><title>Node30</title>
<a xlink:href="StoichManager_8h.html" target="_top" xlink:title="cantera/kinetics/StoichManager.h">
<polygon fill="white" stroke="black" points="1093.5,-233 1093.5,-253 1254.5,-253 1254.5,-233 1093.5,-233"/>
<text text-anchor="middle" x="1174" y="-240" font-family="FreeSans" font-size="10.00">cantera/kinetics/StoichManager.h</text>
</a>
</g>
<!-- Node29&#45;&gt;Node30 -->
<g id="edge120" class="edge"><title>Node29&#45;&gt;Node30</title>
<path fill="none" stroke="midnightblue" d="M1071.6,-290.897C1091.3,-281.68 1120.65,-267.953 1142.88,-257.554"/>
<polygon fill="midnightblue" stroke="midnightblue" points="1144.66,-260.589 1152.23,-253.182 1141.69,-254.248 1144.66,-260.589"/>
</g>
<!-- Node30&#45;&gt;Node9 -->
<g id="edge122" class="edge"><title>Node30&#45;&gt;Node9</title>
<path fill="none" stroke="midnightblue" d="M1203.61,-232.897C1231.68,-223.321 1274.02,-208.874 1304.87,-198.352"/>
<polygon fill="midnightblue" stroke="midnightblue" points="1306.11,-201.626 1314.44,-195.084 1303.85,-195.001 1306.11,-201.626"/>
</g>
<!-- Node31&#45;&gt;Node2 -->
<g id="edge136" class="edge"><title>Node31&#45;&gt;Node2</title>
<path fill="none" stroke="midnightblue" d="M613.311,-488.859C659.583,-481.474 756.058,-464.476 835,-440 977.374,-395.857 1008.33,-371.509 1145,-312 1166.52,-302.631 1171.08,-298.393 1193,-290 1228.24,-276.502 1269.18,-263.948 1299.53,-255.217"/>
<polygon fill="midnightblue" stroke="midnightblue" points="1300.73,-258.513 1309.39,-252.406 1298.81,-251.781 1300.73,-258.513"/>
</g>
<!-- Node31&#45;&gt;Node19 -->
<g id="edge138" class="edge"><title>Node31&#45;&gt;Node19</title>
<path fill="none" stroke="midnightblue" d="M586,-482.914C586,-460.587 586,-405.295 586,-359 586,-359 586,-359 586,-301 586,-269.192 582.714,-254.696 605,-232 642.443,-193.868 669.99,-211.023 725.374,-196.198"/>
<polygon fill="midnightblue" stroke="midnightblue" points="726.667,-199.466 735.273,-193.286 724.692,-192.75 726.667,-199.466"/>
</g>
<!-- Node31&#45;&gt;Node24 -->
<g id="edge150" class="edge"><title>Node31&#45;&gt;Node24</title>
<path fill="none" stroke="midnightblue" d="M613.017,-485.838C647.355,-476.483 708.267,-459.036 759,-440 761.368,-439.111 763.799,-438.148 766.232,-437.147"/>
<polygon fill="midnightblue" stroke="midnightblue" points="767.678,-440.335 775.489,-433.177 764.919,-433.901 767.678,-440.335"/>
</g>
<!-- Node32 -->
<g id="node95" class="node"><title>Node32</title>
<a xlink:href="TransportBase_8h.html" target="_top" xlink:title="Headers for the Transport object, which is the virtual base class for all transport property evaluato...">
<polygon fill="white" stroke="black" points="249.5,-407 249.5,-439 382.5,-439 382.5,-407 249.5,-407"/>
<text text-anchor="start" x="257.5" y="-426" font-family="FreeSans" font-size="10.00">cantera/transport/Transport</text>
<text text-anchor="middle" x="316" y="-414" font-family="FreeSans" font-size="10.00">Base.h</text>
</a>
</g>
<!-- Node31&#45;&gt;Node32 -->
<g id="edge126" class="edge"><title>Node31&#45;&gt;Node32</title>
<path fill="none" stroke="midnightblue" d="M558.875,-485.968C519.2,-475.682 443.953,-456.173 387.681,-441.584"/>
<polygon fill="midnightblue" stroke="midnightblue" points="388.321,-438.134 377.763,-439.013 386.564,-444.91 388.321,-438.134"/>
</g>
<!-- Node34 -->
<g id="node104" class="node"><title>Node34</title>
<a xlink:href="IdealGasPhase_8h.html" target="_top" xlink:title="ThermoPhase object for the ideal gas equation of state &#45; workhorse for Cantera (see Thermodynamic Pro...">
<polygon fill="white" stroke="black" points="400,-413 400,-433 558,-433 558,-413 400,-413"/>
<text text-anchor="middle" x="479" y="-420" font-family="FreeSans" font-size="10.00">cantera/thermo/IdealGasPhase.h</text>
</a>
</g>
<!-- Node31&#45;&gt;Node34 -->
<g id="edge140" class="edge"><title>Node31&#45;&gt;Node34</title>
<path fill="none" stroke="midnightblue" d="M570.67,-482.971C552.951,-471.379 523.577,-452.163 502.863,-438.611"/>
<polygon fill="midnightblue" stroke="midnightblue" points="504.587,-435.556 494.302,-433.011 500.754,-441.414 504.587,-435.556"/>
</g>
<!-- Node35 -->
<g id="node111" class="node"><title>Node35</title>
<a xlink:href="funcs_8h.html" target="_top" xlink:title="Header for a file containing miscellaneous numerical functions. ">
<polygon fill="white" stroke="black" points="1.5,-349 1.5,-369 126.5,-369 126.5,-349 1.5,-349"/>
<text text-anchor="middle" x="64" y="-356" font-family="FreeSans" font-size="10.00">cantera/numerics/funcs.h</text>
</a>
</g>
<!-- Node31&#45;&gt;Node35 -->
<g id="edge152" class="edge"><title>Node31&#45;&gt;Node35</title>
<path fill="none" stroke="midnightblue" d="M558.598,-491.369C499.466,-487.294 355.947,-474.403 241,-440 185.365,-423.349 124.666,-392.554 90.7708,-374.107"/>
<polygon fill="midnightblue" stroke="midnightblue" points="92.3965,-371.007 81.9477,-369.253 89.0225,-377.14 92.3965,-371.007"/>
</g>
<!-- Node32&#45;&gt;Node13 -->
<g id="edge128" class="edge"><title>Node32&#45;&gt;Node13</title>
<path fill="none" stroke="midnightblue" d="M364.45,-406.85C396.488,-396.171 437.979,-382.34 468.109,-372.297"/>
<polygon fill="midnightblue" stroke="midnightblue" points="469.481,-375.529 477.861,-369.046 467.268,-368.888 469.481,-375.529"/>
</g>
<!-- Node33 -->
<g id="node98" class="node"><title>Node33</title>
<a xlink:href="DenseMatrix_8h.html" target="_top" xlink:title="Headers for the DenseMatrix object, which deals with dense rectangular matrices and description of th...">
<polygon fill="white" stroke="black" points="27.5,-233 27.5,-253 182.5,-253 182.5,-233 27.5,-233"/>
<text text-anchor="middle" x="105" y="-240" font-family="FreeSans" font-size="10.00">cantera/numerics/DenseMatrix.h</text>
</a>
</g>
<!-- Node32&#45;&gt;Node33 -->
<g id="edge130" class="edge"><title>Node32&#45;&gt;Node33</title>
<path fill="none" stroke="midnightblue" d="M296.903,-406.709C256.936,-372.614 164.85,-294.057 124.519,-259.651"/>
<polygon fill="midnightblue" stroke="midnightblue" points="126.615,-256.839 116.736,-253.012 122.072,-262.165 126.615,-256.839"/>
</g>
<!-- Node33&#45;&gt;Node8 -->
<g id="edge132" class="edge"><title>Node33&#45;&gt;Node8</title>
<path fill="none" stroke="midnightblue" d="M108.806,-232.832C118.745,-207.883 148.075,-143.659 196,-116 233.865,-94.1471 529.942,-76.6132 636.747,-70.9412"/>
<polygon fill="midnightblue" stroke="midnightblue" points="636.968,-74.4345 646.77,-70.4143 636.601,-67.4442 636.968,-74.4345"/>
</g>
<!-- Node33&#45;&gt;Node19 -->
<g id="edge134" class="edge"><title>Node33&#45;&gt;Node19</title>
<path fill="none" stroke="midnightblue" d="M182.706,-235.911C198.046,-234.567 214.028,-233.205 229,-232 446.955,-214.456 507.81,-239.682 725.606,-195.867"/>
<polygon fill="midnightblue" stroke="midnightblue" points="726.325,-199.292 735.425,-193.866 724.927,-192.433 726.325,-199.292"/>
</g>
<!-- Node34&#45;&gt;Node12 -->
<g id="edge142" class="edge"><title>Node34&#45;&gt;Node12</title>
<path fill="none" stroke="midnightblue" d="M514.335,-412.859C554.243,-401.406 619.086,-382.796 661.138,-370.727"/>
<polygon fill="midnightblue" stroke="midnightblue" points="662.142,-374.08 670.788,-367.958 660.211,-367.352 662.142,-374.08"/>
</g>
<!-- Node34&#45;&gt;Node13 -->
<g id="edge144" class="edge"><title>Node34&#45;&gt;Node13</title>
<path fill="none" stroke="midnightblue" d="M483.659,-412.717C487.87,-403.425 494.176,-389.508 499.315,-378.168"/>
<polygon fill="midnightblue" stroke="midnightblue" points="502.508,-379.599 503.448,-369.046 496.132,-376.71 502.508,-379.599"/>
</g>
<!-- Node34&#45;&gt;Node16 -->
<g id="edge148" class="edge"><title>Node34&#45;&gt;Node16</title>
<path fill="none" stroke="midnightblue" d="M473.353,-412.826C467.93,-402.428 460.116,-385.633 457,-370 439.64,-282.894 442.99,-245.265 496,-174 505.964,-160.605 520.955,-149.881 534.598,-142.079"/>
<polygon fill="midnightblue" stroke="midnightblue" points="536.607,-144.972 543.75,-137.147 533.286,-138.81 536.607,-144.972"/>
</g>
<!-- Node34&#45;&gt;Node22 -->
<g id="edge146" class="edge"><title>Node34&#45;&gt;Node22</title>
<path fill="none" stroke="midnightblue" d="M467.763,-412.719C456.445,-402.239 438.614,-385.381 424,-370 408.063,-353.226 390.824,-333.187 378.932,-319.037"/>
<polygon fill="midnightblue" stroke="midnightblue" points="381.375,-316.501 372.278,-311.069 376.002,-320.988 381.375,-316.501"/>
</g>
<!-- Node35&#45;&gt;Node8 -->
<g id="edge154" class="edge"><title>Node35&#45;&gt;Node8</title>
<path fill="none" stroke="midnightblue" d="M53.7173,-348.859C35.626,-329.881 0,-286.931 0,-243 0,-243 0,-243 0,-185 0,-105.103 88.45,-135.225 166,-116 255.328,-93.8551 534.025,-76.742 636.604,-71.0435"/>
<polygon fill="midnightblue" stroke="midnightblue" points="637.024,-74.5258 646.816,-70.4817 636.639,-67.5364 637.024,-74.5258"/>
</g>
<!-- Node36&#45;&gt;Node2 -->
<g id="edge158" class="edge"><title>Node36&#45;&gt;Node2</title>
<path fill="none" stroke="midnightblue" d="M1267.24,-482.89C1279.25,-445.359 1321.41,-313.591 1337.6,-262.993"/>
<polygon fill="midnightblue" stroke="midnightblue" points="1341.01,-263.827 1340.72,-253.236 1334.34,-261.693 1341.01,-263.827"/>
</g>
</g>
</svg>
