<?xml version="1.0" encoding="UTF-8" standalone="no"?>
<!DOCTYPE svg PUBLIC "-//W3C//DTD SVG 1.1//EN"
 "http://www.w3.org/Graphics/SVG/1.1/DTD/svg11.dtd">
<!-- Generated by graphviz version 2.36.0 (20140111.2315)
 -->
<!-- Title: InterfaceKinetics.cpp Pages: 1 -->
<svg width="746pt" height="568pt"
 viewBox="0.00 0.00 746.46 568.00" xmlns="http://www.w3.org/2000/svg" xmlns:xlink="http://www.w3.org/1999/xlink">
<g id="graph0" class="graph" transform="scale(1 1) rotate(0) translate(4 564)">
<title>InterfaceKinetics.cpp</title>
<polygon fill="white" stroke="none" points="-4,4 -4,-564 742.462,-564 742.462,4 -4,4"/>
<!-- Node1 -->
<g id="node1" class="node"><title>Node1</title>
<polygon fill="#bfbfbf" stroke="black" points="391.962,-540.5 391.962,-559.5 498.962,-559.5 498.962,-540.5 391.962,-540.5"/>
<text text-anchor="middle" x="445.462" y="-547.5" font-family="FreeSans" font-size="10.00">InterfaceKinetics.cpp</text>
</g>
<!-- Node2 -->
<g id="node2" class="node"><title>Node2</title>
<g id="a_node2"><a xlink:href="InterfaceKinetics_8h.html" target="_top" xlink:title="cantera/kinetics/Interface\lKinetics.h">
<polygon fill="white" stroke="black" points="278.462,-405 278.462,-435 404.462,-435 404.462,-405 278.462,-405"/>
<text text-anchor="start" x="286.462" y="-423" font-family="FreeSans" font-size="10.00">cantera/kinetics/Interface</text>
<text text-anchor="middle" x="341.462" y="-412" font-family="FreeSans" font-size="10.00">Kinetics.h</text>
</a>
</g>
</g>
<!-- Node1&#45;&gt;Node2 -->
<g id="edge1" class="edge"><title>Node1&#45;&gt;Node2</title>
<path fill="none" stroke="midnightblue" d="M445.423,-540.481C444.942,-525.266 442.004,-493.044 426.462,-472 416.386,-458.358 401.472,-447.662 386.937,-439.664"/>
<polygon fill="midnightblue" stroke="midnightblue" points="388.473,-436.518 377.983,-435.032 385.256,-442.736 388.473,-436.518"/>
</g>
<!-- Node16 -->
<g id="node16" class="node"><title>Node16</title>
<g id="a_node16"><a xlink:href="RateCoeffMgr_8h.html" target="_top" xlink:title="RateCoeffMgr.h">
<polygon fill="white" stroke="black" points="472.962,-348.5 472.962,-367.5 555.962,-367.5 555.962,-348.5 472.962,-348.5"/>
<text text-anchor="middle" x="514.462" y="-355.5" font-family="FreeSans" font-size="10.00">RateCoeffMgr.h</text>
</a>
</g>
</g>
<!-- Node1&#45;&gt;Node16 -->
<g id="edge34" class="edge"><title>Node1&#45;&gt;Node16</title>
<path fill="none" stroke="midnightblue" d="M448.606,-540.342C459.135,-511.348 493.309,-417.246 507.833,-377.253"/>
<polygon fill="midnightblue" stroke="midnightblue" points="511.175,-378.303 511.299,-367.708 504.596,-375.913 511.175,-378.303"/>
</g>
<!-- Node18 -->
<g id="node18" class="node"><title>Node18</title>
<g id="a_node18"><a xlink:href="ReactionData_8h.html" target="_top" xlink:title="ReactionData.h">
<polygon fill="white" stroke="red" points="64.9616,-224.5 64.9616,-243.5 147.962,-243.5 147.962,-224.5 64.9616,-224.5"/>
<text text-anchor="middle" x="106.462" y="-231.5" font-family="FreeSans" font-size="10.00">ReactionData.h</text>
</a>
</g>
</g>
<!-- Node1&#45;&gt;Node18 -->
<g id="edge33" class="edge"><title>Node1&#45;&gt;Node18</title>
<path fill="none" stroke="midnightblue" d="M391.673,-547.451C310.475,-544.155 161.497,-534.081 118.462,-504 84.241,-480.08 74.4616,-462.752 74.4616,-421 74.4616,-421 74.4616,-421 74.4616,-357 74.4616,-319.022 89.1493,-276.507 98.6232,-253.033"/>
<polygon fill="midnightblue" stroke="midnightblue" points="101.908,-254.249 102.538,-243.673 95.4505,-251.548 101.908,-254.249"/>
</g>
<!-- Node23 -->
<g id="node23" class="node"><title>Node23</title>
<g id="a_node23"><a xlink:href="EdgeKinetics_8h.html" target="_top" xlink:title="cantera/kinetics/EdgeKinetics.h">
<polygon fill="white" stroke="black" points="265.462,-478.5 265.462,-497.5 417.462,-497.5 417.462,-478.5 265.462,-478.5"/>
<text text-anchor="middle" x="341.462" y="-485.5" font-family="FreeSans" font-size="10.00">cantera/kinetics/EdgeKinetics.h</text>
</a>
</g>
</g>
<!-- Node1&#45;&gt;Node23 -->
<g id="edge31" class="edge"><title>Node1&#45;&gt;Node23</title>
<path fill="none" stroke="midnightblue" d="M430.561,-540.403C413.493,-530.557 385.3,-514.291 365.199,-502.695"/>
<polygon fill="midnightblue" stroke="midnightblue" points="366.745,-499.546 356.335,-497.581 363.247,-505.61 366.745,-499.546"/>
</g>
<!-- Node24 -->
<g id="node24" class="node"><title>Node24</title>
<g id="a_node24"><a xlink:href="ImplicitSurfChem_8h.html" target="_top" xlink:title="Declarations for the implicit integration of surface site density equations (see Kinetics Managers an...">
<polygon fill="white" stroke="black" points="127.962,-473 127.962,-503 246.962,-503 246.962,-473 127.962,-473"/>
<text text-anchor="start" x="135.962" y="-491" font-family="FreeSans" font-size="10.00">cantera/kinetics/Implicit</text>
<text text-anchor="middle" x="187.462" y="-480" font-family="FreeSans" font-size="10.00">SurfChem.h</text>
</a>
</g>
</g>
<!-- Node1&#45;&gt;Node24 -->
<g id="edge35" class="edge"><title>Node1&#45;&gt;Node24</title>
<path fill="none" stroke="midnightblue" d="M408.77,-540.467C369.464,-531.326 306.147,-516.601 257.288,-505.239"/>
<polygon fill="midnightblue" stroke="midnightblue" points="257.941,-501.797 247.408,-502.941 256.356,-508.615 257.941,-501.797"/>
</g>
<!-- Node27 -->
<g id="node27" class="node"><title>Node27</title>
<g id="a_node27"><a xlink:href="SurfPhase_8h.html" target="_top" xlink:title="Header for a simple thermodynamics model of a surface phase derived from ThermoPhase, assuming an ideal solution model (see Thermodynamic Properties and class SurfPhase). ">
<polygon fill="white" stroke="black" points="573.962,-348.5 573.962,-367.5 710.962,-367.5 710.962,-348.5 573.962,-348.5"/>
<text text-anchor="middle" x="642.462" y="-355.5" font-family="FreeSans" font-size="10.00">cantera/thermo/SurfPhase.h</text>
</a>
</g>
</g>
<!-- Node1&#45;&gt;Node27 -->
<g id="edge41" class="edge"><title>Node1&#45;&gt;Node27</title>
<path fill="none" stroke="midnightblue" d="M454.438,-540.342C485.141,-510.73 586.261,-413.204 626.111,-374.769"/>
<polygon fill="midnightblue" stroke="midnightblue" points="628.664,-377.17 633.432,-367.708 623.805,-372.131 628.664,-377.17"/>
</g>
<!-- Node28 -->
<g id="node28" class="node"><title>Node28</title>
<polygon fill="white" stroke="#bfbfbf" points="549.462,-478.5 549.462,-497.5 591.462,-497.5 591.462,-478.5 549.462,-478.5"/>
<text text-anchor="middle" x="570.462" y="-485.5" font-family="FreeSans" font-size="10.00">cstdio</text>
</g>
<!-- Node1&#45;&gt;Node28 -->
<g id="edge44" class="edge"><title>Node1&#45;&gt;Node28</title>
<path fill="none" stroke="midnightblue" d="M463.371,-540.403C484.349,-530.334 519.311,-513.552 543.555,-501.915"/>
<polygon fill="midnightblue" stroke="midnightblue" points="545.085,-505.063 552.585,-497.581 542.056,-498.753 545.085,-505.063"/>
</g>
<!-- Node3 -->
<g id="node3" class="node"><title>Node3</title>
<g id="a_node3"><a xlink:href="mix__defs_8h.html" target="_top" xlink:title="cantera/thermo/mix\l_defs.h">
<polygon fill="white" stroke="black" points="384.462,-281 384.462,-311 484.462,-311 484.462,-281 384.462,-281"/>
<text text-anchor="start" x="392.462" y="-299" font-family="FreeSans" font-size="10.00">cantera/thermo/mix</text>
<text text-anchor="middle" x="434.462" y="-288" font-family="FreeSans" font-size="10.00">_defs.h</text>
</a>
</g>
</g>
<!-- Node2&#45;&gt;Node3 -->
<g id="edge2" class="edge"><title>Node2&#45;&gt;Node3</title>
<path fill="none" stroke="midnightblue" d="M349.345,-404.866C357.796,-390.148 371.966,-366.677 386.462,-348 394.419,-337.748 404.084,-327.179 412.651,-318.34"/>
<polygon fill="midnightblue" stroke="midnightblue" points="415.293,-320.645 419.826,-311.069 410.311,-315.729 415.293,-320.645"/>
</g>
<!-- Node4 -->
<g id="node4" class="node"><title>Node4</title>
<g id="a_node4"><a xlink:href="Kinetics_8h.html" target="_top" xlink:title="Base class for kinetics managers and also contains the kineticsmgr module documentation (see Kinetics...">
<polygon fill="white" stroke="black" points="395.962,-348.5 395.962,-367.5 454.962,-367.5 454.962,-348.5 395.962,-348.5"/>
<text text-anchor="middle" x="425.462" y="-355.5" font-family="FreeSans" font-size="10.00">Kinetics.h</text>
</a>
</g>
</g>
<!-- Node2&#45;&gt;Node4 -->
<g id="edge3" class="edge"><title>Node2&#45;&gt;Node4</title>
<path fill="none" stroke="midnightblue" d="M361.368,-404.781C374.455,-395.433 391.543,-383.227 404.784,-373.77"/>
<polygon fill="midnightblue" stroke="midnightblue" points="407.136,-376.391 413.239,-367.731 403.067,-370.695 407.136,-376.391"/>
</g>
<!-- Node11 -->
<g id="node11" class="node"><title>Node11</title>
<g id="a_node11"><a xlink:href="RxnMolChange_8h_source.html" target="_top" xlink:title="cantera/kinetics/RxnMolChange.h">
<polygon fill="white" stroke="black" points="40.9616,-56.5 40.9616,-75.5 201.962,-75.5 201.962,-56.5 40.9616,-56.5"/>
<text text-anchor="middle" x="121.462" y="-63.5" font-family="FreeSans" font-size="10.00">cantera/kinetics/RxnMolChange.h</text>
</a>
</g>
</g>
<!-- Node2&#45;&gt;Node11 -->
<g id="edge11" class="edge"><title>Node2&#45;&gt;Node11</title>
<path fill="none" stroke="midnightblue" d="M288.15,-404.98C219.011,-383.508 101.791,-335.05 55.4616,-244 28.8441,-191.689 23.3363,-163.516 51.4616,-112 59.2802,-97.6789 73.824,-87.2355 87.6374,-80.0358"/>
<polygon fill="midnightblue" stroke="midnightblue" points="89.481,-83.0338 96.9922,-75.5617 86.4608,-76.7188 89.481,-83.0338"/>
</g>
<!-- Node12 -->
<g id="node12" class="node"><title>Node12</title>
<g id="a_node12"><a xlink:href="utilities_8h.html" target="_top" xlink:title="Various templated functions that carry out common vector operations (see Templated Utility Functions)...">
<polygon fill="white" stroke="black" points="221.962,-168.5 221.962,-187.5 334.962,-187.5 334.962,-168.5 221.962,-168.5"/>
<text text-anchor="middle" x="278.462" y="-175.5" font-family="FreeSans" font-size="10.00">cantera/base/utilities.h</text>
</a>
</g>
</g>
<!-- Node2&#45;&gt;Node12 -->
<g id="edge13" class="edge"><title>Node2&#45;&gt;Node12</title>
<path fill="none" stroke="midnightblue" d="M287.229,-404.941C265.034,-397.018 240.409,-385.169 222.462,-368 202.495,-348.9 201.616,-338.937 195.462,-312 192.294,-298.135 190.666,-293.389 195.462,-280 208.242,-244.319 239.666,-212.212 259.973,-194.198"/>
<polygon fill="midnightblue" stroke="midnightblue" points="262.361,-196.76 267.655,-187.583 257.794,-191.456 262.361,-196.76"/>
</g>
<!-- Node2&#45;&gt;Node16 -->
<g id="edge19" class="edge"><title>Node2&#45;&gt;Node16</title>
<path fill="none" stroke="midnightblue" d="M382.022,-404.933C411.95,-394.553 452.214,-380.589 480.463,-370.792"/>
<polygon fill="midnightblue" stroke="midnightblue" points="481.616,-374.096 489.917,-367.513 479.322,-367.483 481.616,-374.096"/>
</g>
<!-- Node21 -->
<g id="node21" class="node"><title>Node21</title>
<g id="a_node21"><a xlink:href="ReactionStoichMgr_8h.html" target="_top" xlink:title="Header file declaring class ReactionStoichMgr. ">
<polygon fill="white" stroke="black" points="231.962,-348.5 231.962,-367.5 338.962,-367.5 338.962,-348.5 231.962,-348.5"/>
<text text-anchor="middle" x="285.462" y="-355.5" font-family="FreeSans" font-size="10.00">ReactionStoichMgr.h</text>
</a>
</g>
</g>
<!-- Node2&#45;&gt;Node21 -->
<g id="edge27" class="edge"><title>Node2&#45;&gt;Node21</title>
<path fill="none" stroke="midnightblue" d="M328.19,-404.781C319.885,-395.882 309.163,-384.394 300.537,-375.152"/>
<polygon fill="midnightblue" stroke="midnightblue" points="302.992,-372.653 293.61,-367.731 297.875,-377.429 302.992,-372.653"/>
</g>
<!-- Node4&#45;&gt;Node3 -->
<g id="edge10" class="edge"><title>Node4&#45;&gt;Node3</title>
<path fill="none" stroke="midnightblue" d="M426.751,-348.403C427.822,-341.265 429.399,-330.752 430.848,-321.09"/>
<polygon fill="midnightblue" stroke="midnightblue" points="434.318,-321.549 432.34,-311.141 427.396,-320.511 434.318,-321.549"/>
</g>
<!-- Node5 -->
<g id="node5" class="node"><title>Node5</title>
<g id="a_node5"><a xlink:href="ThermoPhase_8h.html" target="_top" xlink:title="Header file for class ThermoPhase, the base class for phases with thermodynamic properties, and the text for the Module thermoprops (see Thermodynamic Properties and class ThermoPhase). ">
<polygon fill="white" stroke="black" points="586.462,-286.5 586.462,-305.5 738.462,-305.5 738.462,-286.5 586.462,-286.5"/>
<text text-anchor="middle" x="662.462" y="-293.5" font-family="FreeSans" font-size="10.00">cantera/thermo/ThermoPhase.h</text>
</a>
</g>
</g>
<!-- Node4&#45;&gt;Node5 -->
<g id="edge4" class="edge"><title>Node4&#45;&gt;Node5</title>
<path fill="none" stroke="midnightblue" d="M454.999,-349.522C496.24,-339.081 571.36,-320.064 618.996,-308.004"/>
<polygon fill="midnightblue" stroke="midnightblue" points="619.886,-311.389 628.722,-305.542 618.168,-304.603 619.886,-311.389"/>
</g>
<!-- Node6 -->
<g id="node6" class="node"><title>Node6</title>
<g id="a_node6"><a xlink:href="Phase_8h.html" target="_top" xlink:title="Header file for class Phase. ">
<polygon fill="white" stroke="red" points="590.962,-224.5 590.962,-243.5 641.962,-243.5 641.962,-224.5 590.962,-224.5"/>
<text text-anchor="middle" x="616.462" y="-231.5" font-family="FreeSans" font-size="10.00">Phase.h</text>
</a>
</g>
</g>
<!-- Node5&#45;&gt;Node6 -->
<g id="edge5" class="edge"><title>Node5&#45;&gt;Node6</title>
<path fill="none" stroke="midnightblue" d="M655.871,-286.403C648.971,-277.403 637.96,-263.041 629.328,-251.782"/>
<polygon fill="midnightblue" stroke="midnightblue" points="631.902,-249.387 623.04,-243.581 626.347,-253.646 631.902,-249.387"/>
</g>
<!-- Node8 -->
<g id="node8" class="node"><title>Node8</title>
<g id="a_node8"><a xlink:href="SpeciesThermo_8h.html" target="_top" xlink:title="Virtual base class for the calculation of multiple&#45;species thermodynamic reference&#45;state property man...">
<polygon fill="white" stroke="black" points="606.462,-168.5 606.462,-187.5 698.462,-187.5 698.462,-168.5 606.462,-168.5"/>
<text text-anchor="middle" x="652.462" y="-175.5" font-family="FreeSans" font-size="10.00">SpeciesThermo.h</text>
</a>
</g>
</g>
<!-- Node5&#45;&gt;Node8 -->
<g id="edge7" class="edge"><title>Node5&#45;&gt;Node8</title>
<path fill="none" stroke="midnightblue" d="M661.71,-286.281C660.095,-267.547 656.263,-223.098 654.072,-197.682"/>
<polygon fill="midnightblue" stroke="midnightblue" points="657.541,-197.167 653.195,-187.505 650.567,-197.768 657.541,-197.167"/>
</g>
<!-- Node7 -->
<g id="node7" class="node"><title>Node7</title>
<g id="a_node7"><a xlink:href="ctexceptions_8h.html" target="_top" xlink:title="Definitions for the classes that are thrown when Cantera experiences an error condition (also contain...">
<polygon fill="white" stroke="red" points="432.962,-168.5 432.962,-187.5 569.962,-187.5 569.962,-168.5 432.962,-168.5"/>
<text text-anchor="middle" x="501.462" y="-175.5" font-family="FreeSans" font-size="10.00">cantera/base/ctexceptions.h</text>
</a>
</g>
</g>
<!-- Node6&#45;&gt;Node7 -->
<g id="edge6" class="edge"><title>Node6&#45;&gt;Node7</title>
<path fill="none" stroke="midnightblue" d="M598.239,-224.444C579.566,-215.675 550.306,-201.935 528.844,-191.858"/>
<polygon fill="midnightblue" stroke="midnightblue" points="530.138,-188.599 519.598,-187.516 527.163,-194.935 530.138,-188.599"/>
</g>
<!-- Node9 -->
<g id="node9" class="node"><title>Node9</title>
<g id="a_node9"><a xlink:href="ct__defs_8h.html" target="_top" xlink:title="This file contains definitions of terms that are used in internal routines and are unlikely to need m...">
<polygon fill="white" stroke="red" points="264.462,-56.5 264.462,-75.5 378.462,-75.5 378.462,-56.5 264.462,-56.5"/>
<text text-anchor="middle" x="321.462" y="-63.5" font-family="FreeSans" font-size="10.00">cantera/base/ct_defs.h</text>
</a>
</g>
</g>
<!-- Node8&#45;&gt;Node9 -->
<g id="edge8" class="edge"><title>Node8&#45;&gt;Node9</title>
<path fill="none" stroke="midnightblue" d="M626.764,-168.46C568.106,-148.966 424.249,-101.159 357.086,-78.839"/>
<polygon fill="midnightblue" stroke="midnightblue" points="357.964,-75.4427 347.371,-75.6104 355.757,-82.0855 357.964,-75.4427"/>
</g>
<!-- Node10 -->
<g id="node10" class="node"><title>Node10</title>
<polygon fill="white" stroke="#bfbfbf" points="199.962,-0.5 199.962,-19.5 242.962,-19.5 242.962,-0.5 199.962,-0.5"/>
<text text-anchor="middle" x="221.462" y="-7.5" font-family="FreeSans" font-size="10.00">vector</text>
</g>
<!-- Node9&#45;&gt;Node10 -->
<g id="edge9" class="edge"><title>Node9&#45;&gt;Node10</title>
<path fill="none" stroke="midnightblue" d="M305.395,-56.324C289.504,-47.7428 264.954,-34.486 246.503,-24.5224"/>
<polygon fill="midnightblue" stroke="midnightblue" points="247.951,-21.3264 237.488,-19.6545 244.624,-27.4857 247.951,-21.3264"/>
</g>
<!-- Node11&#45;&gt;Node10 -->
<g id="edge12" class="edge"><title>Node11&#45;&gt;Node10</title>
<path fill="none" stroke="midnightblue" d="M137.528,-56.324C153.419,-47.7428 177.969,-34.486 196.42,-24.5224"/>
<polygon fill="midnightblue" stroke="midnightblue" points="198.299,-27.4857 205.435,-19.6545 194.973,-21.3264 198.299,-27.4857"/>
</g>
<!-- Node12&#45;&gt;Node9 -->
<g id="edge14" class="edge"><title>Node12&#45;&gt;Node9</title>
<path fill="none" stroke="midnightblue" d="M301.916,-168.408C317.623,-161.28 337.08,-149.458 346.462,-132 354.912,-116.274 345.298,-97.0651 335.646,-83.6225"/>
<polygon fill="midnightblue" stroke="midnightblue" points="338.394,-81.4545 329.487,-75.7161 332.871,-85.756 338.394,-81.4545"/>
</g>
<!-- Node13 -->
<g id="node13" class="node"><title>Node13</title>
<g id="a_node13"><a xlink:href="global_8h.html" target="_top" xlink:title="This file contains definitions for utility functions and text for modules, inputfiles, logs, textlogs, (see Input File Handling, Diagnostic Output, and Writing messages to the screen). ">
<polygon fill="white" stroke="black" points="142.462,-112.5 142.462,-131.5 192.462,-131.5 192.462,-112.5 142.462,-112.5"/>
<text text-anchor="middle" x="167.462" y="-119.5" font-family="FreeSans" font-size="10.00">global.h</text>
</a>
</g>
</g>
<!-- Node12&#45;&gt;Node13 -->
<g id="edge15" class="edge"><title>Node12&#45;&gt;Node13</title>
<path fill="none" stroke="midnightblue" d="M260.627,-168.324C242.746,-159.625 214.987,-146.12 194.416,-136.113"/>
<polygon fill="midnightblue" stroke="midnightblue" points="195.775,-132.882 185.251,-131.655 192.713,-139.177 195.775,-132.882"/>
</g>
<!-- Node14 -->
<g id="node14" class="node"><title>Node14</title>
<polygon fill="white" stroke="#bfbfbf" points="280.462,-112.5 280.462,-131.5 338.462,-131.5 338.462,-112.5 280.462,-112.5"/>
<text text-anchor="middle" x="309.462" y="-119.5" font-family="FreeSans" font-size="10.00">stdexcept</text>
</g>
<!-- Node12&#45;&gt;Node14 -->
<g id="edge17" class="edge"><title>Node12&#45;&gt;Node14</title>
<path fill="none" stroke="midnightblue" d="M283.581,-168.083C287.869,-160.613 294.12,-149.724 299.404,-140.52"/>
<polygon fill="midnightblue" stroke="midnightblue" points="302.494,-142.166 304.438,-131.751 296.424,-138.681 302.494,-142.166"/>
</g>
<!-- Node15 -->
<g id="node15" class="node"><title>Node15</title>
<polygon fill="white" stroke="#bfbfbf" points="210.962,-112.5 210.962,-131.5 261.962,-131.5 261.962,-112.5 210.962,-112.5"/>
<text text-anchor="middle" x="236.462" y="-119.5" font-family="FreeSans" font-size="10.00">numeric</text>
</g>
<!-- Node12&#45;&gt;Node15 -->
<g id="edge18" class="edge"><title>Node12&#45;&gt;Node15</title>
<path fill="none" stroke="midnightblue" d="M271.526,-168.083C265.532,-160.377 256.71,-149.033 249.414,-139.653"/>
<polygon fill="midnightblue" stroke="midnightblue" points="252.17,-137.496 243.268,-131.751 246.645,-141.793 252.17,-137.496"/>
</g>
<!-- Node13&#45;&gt;Node9 -->
<g id="edge16" class="edge"><title>Node13&#45;&gt;Node9</title>
<path fill="none" stroke="midnightblue" d="M191.863,-112.444C217.658,-103.399 258.538,-89.064 287.479,-78.9158"/>
<polygon fill="midnightblue" stroke="midnightblue" points="288.895,-82.1283 297.174,-75.5164 286.579,-75.5226 288.895,-82.1283"/>
</g>
<!-- Node17 -->
<g id="node17" class="node"><title>Node17</title>
<g id="a_node17"><a xlink:href="RxnRates_8h.html" target="_top" xlink:title="RxnRates.h">
<polygon fill="white" stroke="black" points="502.962,-286.5 502.962,-305.5 567.962,-305.5 567.962,-286.5 502.962,-286.5"/>
<text text-anchor="middle" x="535.462" y="-293.5" font-family="FreeSans" font-size="10.00">RxnRates.h</text>
</a>
</g>
</g>
<!-- Node16&#45;&gt;Node17 -->
<g id="edge20" class="edge"><title>Node16&#45;&gt;Node17</title>
<path fill="none" stroke="midnightblue" d="M517.47,-348.403C520.496,-339.76 525.252,-326.17 529.115,-315.134"/>
<polygon fill="midnightblue" stroke="midnightblue" points="532.458,-316.175 532.458,-305.581 525.851,-313.863 532.458,-316.175"/>
</g>
<!-- Node17&#45;&gt;Node7 -->
<g id="edge23" class="edge"><title>Node17&#45;&gt;Node7</title>
<path fill="none" stroke="midnightblue" d="M530.139,-286.326C524.338,-276.451 515.247,-259.654 510.462,-244 505.825,-228.833 503.57,-210.939 502.477,-197.769"/>
<polygon fill="midnightblue" stroke="midnightblue" points="505.956,-197.339 501.785,-187.6 498.972,-197.814 505.956,-197.339"/>
</g>
<!-- Node17&#45;&gt;Node18 -->
<g id="edge21" class="edge"><title>Node17&#45;&gt;Node18</title>
<path fill="none" stroke="midnightblue" d="M514.376,-286.414C507.774,-284.013 500.398,-281.62 493.462,-280 375.506,-252.457 233.205,-241.428 158.338,-237.287"/>
<polygon fill="midnightblue" stroke="midnightblue" points="158.403,-233.785 148.231,-236.747 158.03,-240.776 158.403,-233.785"/>
</g>
<!-- Node19 -->
<g id="node19" class="node"><title>Node19</title>
<g id="a_node19"><a xlink:href="stringUtils_8h.html" target="_top" xlink:title="Contains declarations for string manipulation functions within Cantera. ">
<polygon fill="white" stroke="red" points="337.962,-224.5 337.962,-243.5 462.962,-243.5 462.962,-224.5 337.962,-224.5"/>
<text text-anchor="middle" x="400.462" y="-231.5" font-family="FreeSans" font-size="10.00">cantera/base/stringUtils.h</text>
</a>
</g>
</g>
<!-- Node17&#45;&gt;Node19 -->
<g id="edge24" class="edge"><title>Node17&#45;&gt;Node19</title>
<path fill="none" stroke="midnightblue" d="M516.119,-286.403C493.363,-276.29 455.37,-259.404 429.174,-247.761"/>
<polygon fill="midnightblue" stroke="midnightblue" points="430.328,-244.444 419.768,-243.581 427.485,-250.84 430.328,-244.444"/>
</g>
<!-- Node20 -->
<g id="node20" class="node"><title>Node20</title>
<polygon fill="white" stroke="#bfbfbf" points="519.962,-224.5 519.962,-243.5 572.962,-243.5 572.962,-224.5 519.962,-224.5"/>
<text text-anchor="middle" x="546.462" y="-231.5" font-family="FreeSans" font-size="10.00">iostream</text>
</g>
<!-- Node17&#45;&gt;Node20 -->
<g id="edge26" class="edge"><title>Node17&#45;&gt;Node20</title>
<path fill="none" stroke="midnightblue" d="M537.038,-286.403C538.606,-277.849 541.062,-264.45 543.074,-253.476"/>
<polygon fill="midnightblue" stroke="midnightblue" points="546.528,-254.048 544.888,-243.581 539.642,-252.785 546.528,-254.048"/>
</g>
<!-- Node18&#45;&gt;Node12 -->
<g id="edge22" class="edge"><title>Node18&#45;&gt;Node12</title>
<path fill="none" stroke="midnightblue" d="M133.715,-224.444C162.903,-215.28 209.383,-200.688 241.771,-190.519"/>
<polygon fill="midnightblue" stroke="midnightblue" points="242.843,-193.851 251.335,-187.516 240.746,-187.173 242.843,-193.851"/>
</g>
<!-- Node19&#45;&gt;Node9 -->
<g id="edge25" class="edge"><title>Node19&#45;&gt;Node9</title>
<path fill="none" stroke="midnightblue" d="M399.061,-224.267C395.471,-203.606 384.624,-150.563 362.462,-112 356.3,-101.279 347.207,-90.9579 339.148,-82.9109"/>
<polygon fill="midnightblue" stroke="midnightblue" points="341.233,-80.0623 331.582,-75.6912 336.4,-85.1268 341.233,-80.0623"/>
</g>
<!-- Node22 -->
<g id="node22" class="node"><title>Node22</title>
<g id="a_node22"><a xlink:href="StoichManager_8h.html" target="_top" xlink:title="cantera/kinetics/StoichManager.h">
<polygon fill="white" stroke="black" points="204.962,-286.5 204.962,-305.5 365.962,-305.5 365.962,-286.5 204.962,-286.5"/>
<text text-anchor="middle" x="285.462" y="-293.5" font-family="FreeSans" font-size="10.00">cantera/kinetics/StoichManager.h</text>
</a>
</g>
</g>
<!-- Node21&#45;&gt;Node22 -->
<g id="edge28" class="edge"><title>Node21&#45;&gt;Node22</title>
<path fill="none" stroke="midnightblue" d="M285.462,-348.403C285.462,-339.938 285.462,-326.728 285.462,-315.82"/>
<polygon fill="midnightblue" stroke="midnightblue" points="288.962,-315.581 285.462,-305.581 281.962,-315.581 288.962,-315.581"/>
</g>
<!-- Node22&#45;&gt;Node7 -->
<g id="edge30" class="edge"><title>Node22&#45;&gt;Node7</title>
<path fill="none" stroke="midnightblue" d="M288.353,-286.059C293.73,-270.89 306.737,-240.187 328.462,-224 355.52,-203.838 390.803,-192.685 422.442,-186.526"/>
<polygon fill="midnightblue" stroke="midnightblue" points="423.352,-189.918 432.571,-184.696 422.108,-183.029 423.352,-189.918"/>
</g>
<!-- Node22&#45;&gt;Node19 -->
<g id="edge29" class="edge"><title>Node22&#45;&gt;Node19</title>
<path fill="none" stroke="midnightblue" d="M301.938,-286.403C321.067,-276.423 352.835,-259.849 375.113,-248.225"/>
<polygon fill="midnightblue" stroke="midnightblue" points="376.769,-251.309 384.015,-243.581 373.531,-245.103 376.769,-251.309"/>
</g>
<!-- Node23&#45;&gt;Node2 -->
<g id="edge32" class="edge"><title>Node23&#45;&gt;Node2</title>
<path fill="none" stroke="midnightblue" d="M341.462,-478.372C341.462,-469.971 341.462,-456.811 341.462,-445.213"/>
<polygon fill="midnightblue" stroke="midnightblue" points="344.962,-445.181 341.462,-435.181 337.962,-445.181 344.962,-445.181"/>
</g>
<!-- Node24&#45;&gt;Node2 -->
<g id="edge40" class="edge"><title>Node24&#45;&gt;Node2</title>
<path fill="none" stroke="midnightblue" d="M220.498,-472.841C243.617,-462.933 274.687,-449.618 299.549,-438.963"/>
<polygon fill="midnightblue" stroke="midnightblue" points="300.931,-442.178 308.744,-435.022 298.174,-435.744 300.931,-442.178"/>
</g>
<!-- Node25 -->
<g id="node25" class="node"><title>Node25</title>
<g id="a_node25"><a xlink:href="Integrator_8h.html" target="_top" xlink:title="cantera/numerics/Integrator.h">
<polygon fill="white" stroke="black" points="60.9616,-168.5 60.9616,-187.5 203.962,-187.5 203.962,-168.5 60.9616,-168.5"/>
<text text-anchor="middle" x="132.462" y="-175.5" font-family="FreeSans" font-size="10.00">cantera/numerics/Integrator.h</text>
</a>
</g>
</g>
<!-- Node24&#45;&gt;Node25 -->
<g id="edge36" class="edge"><title>Node24&#45;&gt;Node25</title>
<path fill="none" stroke="midnightblue" d="M151.242,-472.89C111.36,-455.149 49.3308,-420.507 22.4616,-368 2.24092,-328.486 -27.984,-333.538 55.4616,-224 66.4175,-209.618 83.3983,-198.994 98.6286,-191.692"/>
<polygon fill="midnightblue" stroke="midnightblue" points="100.124,-194.857 107.816,-187.57 97.2593,-188.47 100.124,-194.857"/>
</g>
<!-- Node25&#45;&gt;Node13 -->
<g id="edge39" class="edge"><title>Node25&#45;&gt;Node13</title>
<path fill="none" stroke="midnightblue" d="M138.241,-168.083C143.134,-160.534 150.289,-149.495 156.294,-140.23"/>
<polygon fill="midnightblue" stroke="midnightblue" points="159.288,-142.046 161.79,-131.751 153.414,-138.239 159.288,-142.046"/>
</g>
<!-- Node26 -->
<g id="node26" class="node"><title>Node26</title>
<g id="a_node26"><a xlink:href="FuncEval_8h.html" target="_top" xlink:title="FuncEval.h">
<polygon fill="white" stroke="black" points="60.4616,-112.5 60.4616,-131.5 124.462,-131.5 124.462,-112.5 60.4616,-112.5"/>
<text text-anchor="middle" x="92.4616" y="-119.5" font-family="FreeSans" font-size="10.00">FuncEval.h</text>
</a>
</g>
</g>
<!-- Node25&#45;&gt;Node26 -->
<g id="edge37" class="edge"><title>Node25&#45;&gt;Node26</title>
<path fill="none" stroke="midnightblue" d="M125.856,-168.083C120.206,-160.455 111.917,-149.264 105.01,-139.941"/>
<polygon fill="midnightblue" stroke="midnightblue" points="107.709,-137.703 98.9438,-131.751 102.084,-141.87 107.709,-137.703"/>
</g>
<!-- Node26&#45;&gt;Node9 -->
<g id="edge38" class="edge"><title>Node26&#45;&gt;Node9</title>
<path fill="none" stroke="midnightblue" d="M124.786,-113.378C164.101,-104.107 230.735,-88.3942 275.407,-77.8599"/>
<polygon fill="midnightblue" stroke="midnightblue" points="276.215,-81.2655 285.145,-75.5637 274.609,-74.4523 276.215,-81.2655"/>
</g>
<!-- Node27&#45;&gt;Node3 -->
<g id="edge42" class="edge"><title>Node27&#45;&gt;Node3</title>
<path fill="none" stroke="midnightblue" d="M612.66,-348.403C581.49,-339.412 531.765,-325.068 492.752,-313.815"/>
<polygon fill="midnightblue" stroke="midnightblue" points="493.661,-310.434 483.083,-311.025 491.721,-317.16 493.661,-310.434"/>
</g>
<!-- Node27&#45;&gt;Node5 -->
<g id="edge43" class="edge"><title>Node27&#45;&gt;Node5</title>
<path fill="none" stroke="midnightblue" d="M645.327,-348.403C648.208,-339.76 652.738,-326.17 656.417,-315.134"/>
<polygon fill="midnightblue" stroke="midnightblue" points="659.759,-316.174 659.601,-305.581 653.119,-313.961 659.759,-316.174"/>
</g>
</g>
</svg>
