<?xml version="1.0" encoding="UTF-8" standalone="no"?>
<!DOCTYPE svg PUBLIC "-//W3C//DTD SVG 1.1//EN"
 "http://www.w3.org/Graphics/SVG/1.1/DTD/svg11.dtd">
<!-- Generated by graphviz version 2.38.0 (20140413.2041)
 -->
<!-- Title: InterfaceKinetics.h Pages: 1 -->
<svg width="630pt" height="196pt"
 viewBox="0.00 0.00 630.00 196.00" xmlns="http://www.w3.org/2000/svg" xmlns:xlink="http://www.w3.org/1999/xlink">
<g id="graph0" class="graph" transform="scale(1 1) rotate(0) translate(4 192)">
<title>InterfaceKinetics.h</title>
<polygon fill="white" stroke="none" points="-4,4 -4,-192 626,-192 626,4 -4,4"/>
<!-- Node1 -->
<g id="node1" class="node"><title>Node1</title>
<polygon fill="#bfbfbf" stroke="black" points="263.5,-168.5 263.5,-187.5 361.5,-187.5 361.5,-168.5 263.5,-168.5"/>
<text text-anchor="middle" x="312.5" y="-175.5" font-family="Helvetica,sans-Serif" font-size="10.00">InterfaceKinetics.h</text>
</g>
<!-- Node2 -->
<g id="node2" class="node"><title>Node2</title>
<g id="a_node2"><a xlink:href="InterfaceKinetics_8cpp.html" target="_top" xlink:title="InterfaceKinetics.cpp">
<polygon fill="white" stroke="black" points="0,-0.5 0,-19.5 109,-19.5 109,-0.5 0,-0.5"/>
<text text-anchor="middle" x="54.5" y="-7.5" font-family="Helvetica,sans-Serif" font-size="10.00">InterfaceKinetics.cpp</text>
</a>
</g>
</g>
<!-- Node1&#45;&gt;Node2 -->
<g id="edge1" class="edge"><title>Node1&#45;&gt;Node2</title>
<path fill="none" stroke="midnightblue" d="M257.699,-166.199C227.878,-159.006 190.965,-147.91 160.5,-132 125.184,-113.557 116.195,-106.449 90.5,-76 75.3586,-58.0571 63.5508,-32.7737 57.9896,-19.656"/>
<polygon fill="midnightblue" stroke="midnightblue" points="256.987,-169.627 267.521,-168.49 258.577,-162.81 256.987,-169.627"/>
</g>
<!-- Node3 -->
<g id="node3" class="node"><title>Node3</title>
<g id="a_node3"><a xlink:href="KineticsFactory_8cpp.html" target="_top" xlink:title="KineticsFactory.cpp">
<polygon fill="white" stroke="black" points="295.5,-56.5 295.5,-75.5 399.5,-75.5 399.5,-56.5 295.5,-56.5"/>
<text text-anchor="middle" x="347.5" y="-63.5" font-family="Helvetica,sans-Serif" font-size="10.00">KineticsFactory.cpp</text>
</a>
</g>
</g>
<!-- Node1&#45;&gt;Node3 -->
<g id="edge2" class="edge"><title>Node1&#45;&gt;Node3</title>
<path fill="none" stroke="midnightblue" d="M301.963,-159.164C295.493,-145.768 289.643,-127.194 296.5,-112 303.688,-96.0708 319.611,-83.5195 331.766,-75.7643"/>
<polygon fill="midnightblue" stroke="midnightblue" points="299.026,-161.093 306.832,-168.257 305.197,-157.789 299.026,-161.093"/>
</g>
<!-- Node4 -->
<g id="node4" class="node"><title>Node4</title>
<g id="a_node4"><a xlink:href="Interface_8h.html" target="_top" xlink:title="Declaration and Definition for the class Interface. ">
<polygon fill="white" stroke="black" points="407,-112.5 407,-131.5 470,-131.5 470,-112.5 407,-112.5"/>
<text text-anchor="middle" x="438.5" y="-119.5" font-family="Helvetica,sans-Serif" font-size="10.00">Interface.h</text>
</a>
</g>
</g>
<!-- Node1&#45;&gt;Node4 -->
<g id="edge3" class="edge"><title>Node1&#45;&gt;Node4</title>
<path fill="none" stroke="midnightblue" d="M341.66,-164.503C365.281,-154.38 397.928,-140.388 418.628,-131.516"/>
<polygon fill="midnightblue" stroke="midnightblue" points="340.278,-161.287 332.465,-168.444 343.035,-167.721 340.278,-161.287"/>
</g>
<!-- Node5 -->
<g id="node5" class="node"><title>Node5</title>
<g id="a_node5"><a xlink:href="EdgeKinetics_8h.html" target="_top" xlink:title="EdgeKinetics.h">
<polygon fill="white" stroke="black" points="306,-112.5 306,-131.5 389,-131.5 389,-112.5 306,-112.5"/>
<text text-anchor="middle" x="347.5" y="-119.5" font-family="Helvetica,sans-Serif" font-size="10.00">EdgeKinetics.h</text>
</a>
</g>
</g>
<!-- Node1&#45;&gt;Node5 -->
<g id="edge4" class="edge"><title>Node1&#45;&gt;Node5</title>
<path fill="none" stroke="midnightblue" d="M323.8,-159.566C329.822,-150.275 336.969,-139.248 341.828,-131.751"/>
<polygon fill="midnightblue" stroke="midnightblue" points="320.781,-157.788 318.28,-168.083 326.656,-161.595 320.781,-157.788"/>
</g>
<!-- Node6 -->
<g id="node6" class="node"><title>Node6</title>
<g id="a_node6"><a xlink:href="ImplicitSurfChem_8h.html" target="_top" xlink:title="Declarations for the implicit integration of surface site density equations (see Kinetics Managers an...">
<polygon fill="white" stroke="black" points="100,-56.5 100,-75.5 201,-75.5 201,-56.5 100,-56.5"/>
<text text-anchor="middle" x="150.5" y="-63.5" font-family="Helvetica,sans-Serif" font-size="10.00">ImplicitSurfChem.h</text>
</a>
</g>
</g>
<!-- Node1&#45;&gt;Node6 -->
<g id="edge6" class="edge"><title>Node1&#45;&gt;Node6</title>
<path fill="none" stroke="midnightblue" d="M253.472,-168.292C227.848,-161.92 199.063,-150.928 178.5,-132 161.866,-116.688 154.678,-89.8081 151.951,-75.8991"/>
<polygon fill="midnightblue" stroke="midnightblue" points="252.952,-171.764 263.482,-170.593 254.521,-164.942 252.952,-171.764"/>
</g>
<!-- Node9 -->
<g id="node9" class="node"><title>Node9</title>
<g id="a_node9"><a xlink:href="solveSP_8h.html" target="_top" xlink:title="Header file for implicit surface problem solver (see Chemical Kinetics and class solveSP). ">
<polygon fill="white" stroke="black" points="187.5,-112.5 187.5,-131.5 249.5,-131.5 249.5,-112.5 187.5,-112.5"/>
<text text-anchor="middle" x="218.5" y="-119.5" font-family="Helvetica,sans-Serif" font-size="10.00">solveSP.h</text>
</a>
</g>
</g>
<!-- Node1&#45;&gt;Node9 -->
<g id="edge10" class="edge"><title>Node1&#45;&gt;Node9</title>
<path fill="none" stroke="midnightblue" d="M288.438,-163.177C271.141,-153.241 248.352,-140.149 233.565,-131.655"/>
<polygon fill="midnightblue" stroke="midnightblue" points="286.983,-166.378 297.397,-168.324 290.47,-160.308 286.983,-166.378"/>
</g>
<!-- Node10 -->
<g id="node10" class="node"><title>Node10</title>
<g id="a_node10"><a xlink:href="Inlet1D_8h.html" target="_top" xlink:title="Boundary objects for one&#45;dimensional simulations. ">
<polygon fill="white" stroke="black" points="488.5,-112.5 488.5,-131.5 544.5,-131.5 544.5,-112.5 488.5,-112.5"/>
<text text-anchor="middle" x="516.5" y="-119.5" font-family="Helvetica,sans-Serif" font-size="10.00">Inlet1D.h</text>
</a>
</g>
</g>
<!-- Node1&#45;&gt;Node10 -->
<g id="edge14" class="edge"><title>Node1&#45;&gt;Node10</title>
<path fill="none" stroke="midnightblue" d="M354.557,-165.867C394.557,-155.279 453.621,-139.644 488.269,-130.473"/>
<polygon fill="midnightblue" stroke="midnightblue" points="353.596,-162.501 344.824,-168.444 355.387,-169.268 353.596,-162.501"/>
</g>
<!-- Node13 -->
<g id="node13" class="node"><title>Node13</title>
<g id="a_node13"><a xlink:href="surface_8h.html" target="_top" xlink:title="surface.h">
<polygon fill="white" stroke="black" points="563,-112.5 563,-131.5 620,-131.5 620,-112.5 563,-112.5"/>
<text text-anchor="middle" x="591.5" y="-119.5" font-family="Helvetica,sans-Serif" font-size="10.00">surface.h</text>
</a>
</g>
</g>
<!-- Node1&#45;&gt;Node13 -->
<g id="edge17" class="edge"><title>Node1&#45;&gt;Node13</title>
<path fill="none" stroke="midnightblue" d="M371.645,-166.772C420.529,-158.124 491.688,-145.083 553.5,-132 556.551,-131.354 559.733,-130.65 562.899,-129.929"/>
<polygon fill="midnightblue" stroke="midnightblue" points="370.804,-163.367 361.564,-168.55 372.019,-170.26 370.804,-163.367"/>
</g>
<!-- Node5&#45;&gt;Node3 -->
<g id="edge5" class="edge"><title>Node5&#45;&gt;Node3</title>
<path fill="none" stroke="midnightblue" d="M347.5,-101.805C347.5,-92.9102 347.5,-82.7798 347.5,-75.7511"/>
<polygon fill="midnightblue" stroke="midnightblue" points="344,-102.083 347.5,-112.083 351,-102.083 344,-102.083"/>
</g>
<!-- Node6&#45;&gt;Node2 -->
<g id="edge8" class="edge"><title>Node6&#45;&gt;Node2</title>
<path fill="none" stroke="midnightblue" d="M125.926,-51.1774C108.261,-41.2407 84.9875,-28.1492 69.8858,-19.6545"/>
<polygon fill="midnightblue" stroke="midnightblue" points="124.644,-54.4718 135.076,-56.324 128.076,-48.3708 124.644,-54.4718"/>
</g>
<!-- Node7 -->
<g id="node7" class="node"><title>Node7</title>
<g id="a_node7"><a xlink:href="ImplicitSurfChem_8cpp.html" target="_top" xlink:title="Definitions for the implicit integration of surface site density equations (see Kinetics Managers and...">
<polygon fill="white" stroke="black" points="218,-0.5 218,-19.5 329,-19.5 329,-0.5 218,-0.5"/>
<text text-anchor="middle" x="273.5" y="-7.5" font-family="Helvetica,sans-Serif" font-size="10.00">ImplicitSurfChem.cpp</text>
</a>
</g>
</g>
<!-- Node6&#45;&gt;Node7 -->
<g id="edge7" class="edge"><title>Node6&#45;&gt;Node7</title>
<path fill="none" stroke="midnightblue" d="M179.273,-52.3678C202.307,-42.2553 233.984,-28.3486 254.101,-19.5164"/>
<polygon fill="midnightblue" stroke="midnightblue" points="177.739,-49.2188 169.99,-56.4435 180.553,-55.6283 177.739,-49.2188"/>
</g>
<!-- Node8 -->
<g id="node8" class="node"><title>Node8</title>
<g id="a_node8"><a xlink:href="solveSP_8cpp_source.html" target="_top" xlink:title="solveSP.cpp">
<polygon fill="white" stroke="black" points="127.5,-0.5 127.5,-19.5 199.5,-19.5 199.5,-0.5 127.5,-0.5"/>
<text text-anchor="middle" x="163.5" y="-7.5" font-family="Helvetica,sans-Serif" font-size="10.00">solveSP.cpp</text>
</a>
</g>
</g>
<!-- Node6&#45;&gt;Node8 -->
<g id="edge9" class="edge"><title>Node6&#45;&gt;Node8</title>
<path fill="none" stroke="midnightblue" d="M155.05,-46.1005C157.208,-37.1357 159.682,-26.8579 161.393,-19.7511"/>
<polygon fill="midnightblue" stroke="midnightblue" points="151.585,-45.5415 152.647,-56.083 158.39,-47.18 151.585,-45.5415"/>
</g>
<!-- Node9&#45;&gt;Node6 -->
<g id="edge13" class="edge"><title>Node9&#45;&gt;Node6</title>
<path fill="none" stroke="midnightblue" d="M199.738,-106.101C187.5,-96.3824 171.941,-84.0269 161.624,-75.8339"/>
<polygon fill="midnightblue" stroke="midnightblue" points="197.567,-108.846 207.575,-112.324 201.92,-103.364 197.567,-108.846"/>
</g>
<!-- Node9&#45;&gt;Node7 -->
<g id="edge11" class="edge"><title>Node9&#45;&gt;Node7</title>
<path fill="none" stroke="midnightblue" d="M228.489,-103.733C233.192,-95.4265 238.789,-85.279 243.5,-76 253.627,-56.0517 264.344,-32.0207 269.815,-19.5104"/>
<polygon fill="midnightblue" stroke="midnightblue" points="225.415,-102.058 223.486,-112.476 231.491,-105.535 225.415,-102.058"/>
</g>
<!-- Node9&#45;&gt;Node8 -->
<g id="edge12" class="edge"><title>Node9&#45;&gt;Node8</title>
<path fill="none" stroke="midnightblue" d="M219.069,-102.458C218.761,-88.9129 216.793,-70.4641 209.5,-56 201.855,-40.8368 187.072,-27.8156 176.322,-19.7385"/>
<polygon fill="midnightblue" stroke="midnightblue" points="215.569,-102.47 219.019,-112.487 222.569,-102.505 215.569,-102.47"/>
</g>
<!-- Node11 -->
<g id="node11" class="node"><title>Node11</title>
<g id="a_node11"><a xlink:href="boundaries1D_8cpp.html" target="_top" xlink:title="boundaries1D.cpp">
<polygon fill="white" stroke="black" points="527,-56.5 527,-75.5 622,-75.5 622,-56.5 527,-56.5"/>
<text text-anchor="middle" x="574.5" y="-63.5" font-family="Helvetica,sans-Serif" font-size="10.00">boundaries1D.cpp</text>
</a>
</g>
</g>
<!-- Node10&#45;&gt;Node11 -->
<g id="edge15" class="edge"><title>Node10&#45;&gt;Node11</title>
<path fill="none" stroke="midnightblue" d="M533.413,-105.253C543.703,-95.6731 556.466,-83.7906 565.012,-75.8339"/>
<polygon fill="midnightblue" stroke="midnightblue" points="530.753,-102.948 525.819,-112.324 535.523,-108.071 530.753,-102.948"/>
</g>
<!-- Node12 -->
<g id="node12" class="node"><title>Node12</title>
<g id="a_node12"><a xlink:href="onedim_8h.html" target="_top" xlink:title="onedim.h">
<polygon fill="white" stroke="black" points="452.5,-56.5 452.5,-75.5 508.5,-75.5 508.5,-56.5 452.5,-56.5"/>
<text text-anchor="middle" x="480.5" y="-63.5" font-family="Helvetica,sans-Serif" font-size="10.00">onedim.h</text>
</a>
</g>
</g>
<!-- Node10&#45;&gt;Node12 -->
<g id="edge16" class="edge"><title>Node10&#45;&gt;Node12</title>
<path fill="none" stroke="midnightblue" d="M504.877,-103.566C498.683,-94.2747 491.332,-83.2484 486.334,-75.7511"/>
<polygon fill="midnightblue" stroke="midnightblue" points="502.096,-105.704 510.555,-112.083 507.92,-101.821 502.096,-105.704"/>
</g>
</g>
</svg>
