<?xml version="1.0" encoding="UTF-8" standalone="no"?>
<!DOCTYPE svg PUBLIC "-//W3C//DTD SVG 1.1//EN"
 "http://www.w3.org/Graphics/SVG/1.1/DTD/svg11.dtd">
<!-- Generated by graphviz version 2.40.1 (20161225.0304)
 -->
<!-- Title: IonFlow.cpp Pages: 1 -->
<svg width="823pt" height="422pt"
 viewBox="0.00 0.00 822.59 422.00" xmlns="http://www.w3.org/2000/svg" xmlns:xlink="http://www.w3.org/1999/xlink">
<g id="graph0" class="graph" transform="scale(1 1) rotate(0) translate(4 418)">
<title>IonFlow.cpp</title>
<polygon fill="#ffffff" stroke="transparent" points="-4,4 -4,-418 818.5859,-418 818.5859,4 -4,4"/>
<!-- Node0 -->
<g id="node1" class="node">
<title>Node0</title>
<polygon fill="#bfbfbf" stroke="#000000" points="501.042,-395.5 501.042,-413.5 570.4111,-413.5 570.4111,-395.5 501.042,-395.5"/>
<text text-anchor="middle" x="535.7266" y="-401.5" font-family="Helvetica,sans-Serif" font-size="10.00" fill="#000000">IonFlow.cpp</text>
</g>
<!-- Node1 -->
<g id="node2" class="node">
<title>Node1</title>
<g id="a_node2"><a xlink:href="IonFlow_8h.html" target="_top" xlink:title="cantera/oneD/IonFlow.h">
<polygon fill="#ffffff" stroke="#000000" points="385.9141,-340.5 385.9141,-358.5 507.5391,-358.5 507.5391,-340.5 385.9141,-340.5"/>
<text text-anchor="middle" x="446.7266" y="-346.5" font-family="Helvetica,sans-Serif" font-size="10.00" fill="#000000">cantera/oneD/IonFlow.h</text>
</a>
</g>
</g>
<!-- Node0&#45;&gt;Node1 -->
<g id="edge1" class="edge">
<title>Node0&#45;&gt;Node1</title>
<path fill="none" stroke="#191970" d="M521.03,-395.4179C507.2452,-386.8992 486.3988,-374.0166 470.2917,-364.0627"/>
<polygon fill="#191970" stroke="#191970" points="471.7916,-360.8753 461.4449,-358.5956 468.1117,-366.83 471.7916,-360.8753"/>
</g>
<!-- Node2 -->
<g id="node3" class="node">
<title>Node2</title>
<g id="a_node3"><a xlink:href="StFlow_8h.html" target="_top" xlink:title="cantera/oneD/StFlow.h">
<polygon fill="#ffffff" stroke="#000000" points="388.1406,-280.5 388.1406,-298.5 505.3125,-298.5 505.3125,-280.5 388.1406,-280.5"/>
<text text-anchor="middle" x="446.7266" y="-286.5" font-family="Helvetica,sans-Serif" font-size="10.00" fill="#000000">cantera/oneD/StFlow.h</text>
</a>
</g>
</g>
<!-- Node0&#45;&gt;Node2 -->
<g id="edge28" class="edge">
<title>Node0&#45;&gt;Node2</title>
<path fill="none" stroke="#191970" d="M534.9079,-395.3554C533.3299,-382.0698 528.8697,-357.1485 516.7266,-340 505.9287,-324.7513 489.0433,-312.3766 474.5619,-303.6938"/>
<polygon fill="#191970" stroke="#191970" points="475.9035,-300.4304 465.4809,-298.528 472.4423,-306.5148 475.9035,-300.4304"/>
</g>
<!-- Node48 -->
<g id="node19" class="node">
<title>Node48</title>
<g id="a_node19"><a xlink:href="ctml_8h.html" target="_top" xlink:title="CTML (&quot;Cantera Markup Language&quot;) is the variant of XML that Cantera uses to store data...">
<polygon fill="#ffffff" stroke="#000000" points="569.0938,-165.5 569.0938,-183.5 672.3594,-183.5 672.3594,-165.5 569.0938,-165.5"/>
<text text-anchor="middle" x="620.7266" y="-171.5" font-family="Helvetica,sans-Serif" font-size="10.00" fill="#000000">cantera/base/ctml.h</text>
</a>
</g>
</g>
<!-- Node0&#45;&gt;Node48 -->
<g id="edge29" class="edge">
<title>Node0&#45;&gt;Node48</title>
<path fill="none" stroke="#191970" d="M539.0587,-395.4837C551.645,-361.4267 596.4552,-240.1755 613.8001,-193.2423"/>
<polygon fill="#191970" stroke="#191970" points="617.1415,-194.2971 617.3251,-183.7039 610.5756,-191.8705 617.1415,-194.2971"/>
</g>
<!-- Node50 -->
<g id="node21" class="node">
<title>Node50</title>
<g id="a_node21"><a xlink:href="TransportBase_8h.html" target="_top" xlink:title="Headers for the Transport object, which is the virtual base class for all transport property evaluato...">
<polygon fill="#ffffff" stroke="#000000" points="169.3262,-275.5 169.3262,-303.5 306.127,-303.5 306.127,-275.5 169.3262,-275.5"/>
<text text-anchor="start" x="177.3262" y="-291.5" font-family="Helvetica,sans-Serif" font-size="10.00" fill="#000000">cantera/transport/Transport</text>
<text text-anchor="middle" x="237.7266" y="-281.5" font-family="Helvetica,sans-Serif" font-size="10.00" fill="#000000">Base.h</text>
</a>
</g>
</g>
<!-- Node0&#45;&gt;Node50 -->
<g id="edge34" class="edge">
<title>Node0&#45;&gt;Node50</title>
<path fill="none" stroke="#191970" d="M501.0038,-396.5328C468.3792,-388.5884 418.4673,-375.2464 376.7266,-359 339.68,-344.5806 299.2319,-323.7364 271.5703,-308.6398"/>
<polygon fill="#191970" stroke="#191970" points="273.1512,-305.5148 262.703,-303.758 269.7752,-311.6469 273.1512,-305.5148"/>
</g>
<!-- Node51 -->
<g id="node22" class="node">
<title>Node51</title>
<g id="a_node22"><a xlink:href="funcs_8h.html" target="_top" xlink:title="Header for a file containing miscellaneous numerical functions. ">
<polygon fill="#ffffff" stroke="#000000" points="686.8672,-340.5 686.8672,-358.5 814.5859,-358.5 814.5859,-340.5 686.8672,-340.5"/>
<text text-anchor="middle" x="750.7266" y="-346.5" font-family="Helvetica,sans-Serif" font-size="10.00" fill="#000000">cantera/numerics/funcs.h</text>
</a>
</g>
</g>
<!-- Node0&#45;&gt;Node51 -->
<g id="edge36" class="edge">
<title>Node0&#45;&gt;Node51</title>
<path fill="none" stroke="#191970" d="M570.7485,-395.5409C607.4959,-386.1404 665.3934,-371.3294 705.5568,-361.0551"/>
<polygon fill="#191970" stroke="#191970" points="706.5414,-364.416 715.362,-358.5467 704.8065,-357.6343 706.5414,-364.416"/>
</g>
<!-- Node1&#45;&gt;Node2 -->
<g id="edge2" class="edge">
<title>Node1&#45;&gt;Node2</title>
<path fill="none" stroke="#191970" d="M446.7266,-340.3873C446.7266,-332.0174 446.7266,-319.3414 446.7266,-308.735"/>
<polygon fill="#191970" stroke="#191970" points="450.2267,-308.6984 446.7266,-298.6985 443.2267,-308.6985 450.2267,-308.6984"/>
</g>
<!-- Node3 -->
<g id="node4" class="node">
<title>Node3</title>
<g id="a_node4"><a xlink:href="Domain1D_8h.html" target="_top" xlink:title="Domain1D.h">
<polygon fill="#ffffff" stroke="#000000" points="516.936,-110.5 516.936,-128.5 588.5171,-128.5 588.5171,-110.5 516.936,-110.5"/>
<text text-anchor="middle" x="552.7266" y="-116.5" font-family="Helvetica,sans-Serif" font-size="10.00" fill="#000000">Domain1D.h</text>
</a>
</g>
</g>
<!-- Node2&#45;&gt;Node3 -->
<g id="edge3" class="edge">
<title>Node2&#45;&gt;Node3</title>
<path fill="none" stroke="#191970" d="M467.9984,-280.4131C485.0229,-272.0655 508.2128,-258.09 521.7266,-239 543.3119,-208.5077 549.8747,-164.1389 551.8652,-138.9261"/>
<polygon fill="#191970" stroke="#191970" points="555.3668,-139.0068 552.4955,-128.8084 548.3804,-138.5714 555.3668,-139.0068"/>
</g>
<!-- Node21 -->
<g id="node10" class="node">
<title>Node21</title>
<g id="a_node10"><a xlink:href="Array_8h.html" target="_top" xlink:title="Header file for class Cantera::Array2D. ">
<polygon fill="#ffffff" stroke="#000000" points="36.6816,-220.5 36.6816,-238.5 144.7715,-238.5 144.7715,-220.5 36.6816,-220.5"/>
<text text-anchor="middle" x="90.7266" y="-226.5" font-family="Helvetica,sans-Serif" font-size="10.00" fill="#000000">cantera/base/Array.h</text>
</a>
</g>
</g>
<!-- Node2&#45;&gt;Node21 -->
<g id="edge11" class="edge">
<title>Node2&#45;&gt;Node21</title>
<path fill="none" stroke="#191970" d="M393.0443,-280.4524C329.1182,-269.6784 222.4644,-251.703 154.4248,-240.2357"/>
<polygon fill="#191970" stroke="#191970" points="154.7053,-236.7336 144.2626,-238.5229 153.5419,-243.6363 154.7053,-236.7336"/>
</g>
<!-- Node27 -->
<g id="node14" class="node">
<title>Node27</title>
<g id="a_node14"><a xlink:href="IdealGasPhase_8h.html" target="_top" xlink:title="ThermoPhase object for the ideal gas equation of state &#45; workhorse for Cantera (see Thermodynamic Pro...">
<polygon fill="#ffffff" stroke="#000000" points="200.3501,-220.5 200.3501,-238.5 363.103,-238.5 363.103,-220.5 200.3501,-220.5"/>
<text text-anchor="middle" x="281.7266" y="-226.5" font-family="Helvetica,sans-Serif" font-size="10.00" fill="#000000">cantera/thermo/IdealGasPhase.h</text>
</a>
</g>
</g>
<!-- Node2&#45;&gt;Node27 -->
<g id="edge17" class="edge">
<title>Node2&#45;&gt;Node27</title>
<path fill="none" stroke="#191970" d="M421.6666,-280.3873C393.5199,-270.1521 347.6649,-253.4776 316.1642,-242.0228"/>
<polygon fill="#191970" stroke="#191970" points="317.0758,-238.6301 306.4817,-238.5019 314.6835,-245.2086 317.0758,-238.6301"/>
</g>
<!-- Node42 -->
<g id="node16" class="node">
<title>Node42</title>
<g id="a_node16"><a xlink:href="Kinetics_8h.html" target="_top" xlink:title="Base class for kinetics managers and also contains the kineticsmgr module documentation (see Kinetics...">
<polygon fill="#ffffff" stroke="#000000" points="380.9214,-220.5 380.9214,-238.5 512.5317,-238.5 512.5317,-220.5 380.9214,-220.5"/>
<text text-anchor="middle" x="446.7266" y="-226.5" font-family="Helvetica,sans-Serif" font-size="10.00" fill="#000000">cantera/kinetics/Kinetics.h</text>
</a>
</g>
</g>
<!-- Node2&#45;&gt;Node42 -->
<g id="edge20" class="edge">
<title>Node2&#45;&gt;Node42</title>
<path fill="none" stroke="#191970" d="M446.7266,-280.3873C446.7266,-272.0174 446.7266,-259.3414 446.7266,-248.735"/>
<polygon fill="#191970" stroke="#191970" points="450.2267,-248.6984 446.7266,-238.6985 443.2267,-248.6985 450.2267,-248.6984"/>
</g>
<!-- Node4 -->
<g id="node5" class="node">
<title>Node4</title>
<g id="a_node5"><a xlink:href="stringUtils_8h.html" target="_top" xlink:title="Contains declarations for string manipulation functions within Cantera. ">
<polygon fill="#ffffff" stroke="#ff0000" points="614.3105,-55.5 614.3105,-73.5 743.1426,-73.5 743.1426,-55.5 614.3105,-55.5"/>
<text text-anchor="middle" x="678.7266" y="-61.5" font-family="Helvetica,sans-Serif" font-size="10.00" fill="#000000">cantera/base/stringUtils.h</text>
</a>
</g>
</g>
<!-- Node3&#45;&gt;Node4 -->
<g id="edge4" class="edge">
<title>Node3&#45;&gt;Node4</title>
<path fill="none" stroke="#191970" d="M573.5329,-110.4179C593.9605,-101.5011 625.3414,-87.803 648.5158,-77.6873"/>
<polygon fill="#191970" stroke="#191970" points="650.1246,-80.804 657.8893,-73.5956 647.3242,-74.3885 650.1246,-80.804"/>
</g>
<!-- Node17 -->
<g id="node7" class="node">
<title>Node17</title>
<g id="a_node7"><a xlink:href="ctexceptions_8h.html" target="_top" xlink:title="Definitions for the classes that are thrown when Cantera experiences an error condition (also contain...">
<polygon fill="#ffffff" stroke="#ff0000" points="455.4658,-55.5 455.4658,-73.5 595.9873,-73.5 595.9873,-55.5 455.4658,-55.5"/>
<text text-anchor="middle" x="525.7266" y="-61.5" font-family="Helvetica,sans-Serif" font-size="10.00" fill="#000000">cantera/base/ctexceptions.h</text>
</a>
</g>
</g>
<!-- Node3&#45;&gt;Node17 -->
<g id="edge6" class="edge">
<title>Node3&#45;&gt;Node17</title>
<path fill="none" stroke="#191970" d="M548.2681,-110.4179C544.6162,-102.9789 539.3308,-92.2123 534.7957,-82.9742"/>
<polygon fill="#191970" stroke="#191970" points="537.8306,-81.2138 530.2819,-73.7795 531.5469,-84.2985 537.8306,-81.2138"/>
</g>
<!-- Node19 -->
<g id="node8" class="node">
<title>Node19</title>
<g id="a_node8"><a xlink:href="global_8h.html" target="_top" xlink:title="This file contains definitions for utility functions and text for modules, inputfiles, logs, textlogs, (see Input File Handling, Diagnostic Output, and Writing messages to the screen). ">
<polygon fill="#ffffff" stroke="#ff0000" points="258.9141,-55.5 258.9141,-73.5 370.5391,-73.5 370.5391,-55.5 258.9141,-55.5"/>
<text text-anchor="middle" x="314.7266" y="-61.5" font-family="Helvetica,sans-Serif" font-size="10.00" fill="#000000">cantera/base/global.h</text>
</a>
</g>
</g>
<!-- Node3&#45;&gt;Node19 -->
<g id="edge7" class="edge">
<title>Node3&#45;&gt;Node19</title>
<path fill="none" stroke="#191970" d="M516.8379,-111.2064C476.0319,-101.7764 409.184,-86.3284 363.6306,-75.8014"/>
<polygon fill="#191970" stroke="#191970" points="364.2122,-72.3436 353.6809,-73.502 362.636,-79.1638 364.2122,-72.3436"/>
</g>
<!-- Node20 -->
<g id="node9" class="node">
<title>Node20</title>
<g id="a_node9"><a xlink:href="refine_8h_source.html" target="_top" xlink:title="refine.h">
<polygon fill="#ffffff" stroke="#000000" points="388.0493,-55.5 388.0493,-73.5 437.4038,-73.5 437.4038,-55.5 388.0493,-55.5"/>
<text text-anchor="middle" x="412.7266" y="-61.5" font-family="Helvetica,sans-Serif" font-size="10.00" fill="#000000">refine.h</text>
</a>
</g>
</g>
<!-- Node3&#45;&gt;Node20 -->
<g id="edge9" class="edge">
<title>Node3&#45;&gt;Node20</title>
<path fill="none" stroke="#191970" d="M529.6084,-110.4179C506.6071,-101.3817 471.1073,-87.4353 445.2645,-77.2828"/>
<polygon fill="#191970" stroke="#191970" points="446.4664,-73.9946 435.8791,-73.5956 443.9068,-80.5098 446.4664,-73.9946"/>
</g>
<!-- Node5 -->
<g id="node6" class="node">
<title>Node5</title>
<g id="a_node6"><a xlink:href="ct__defs_8h.html" target="_top" xlink:title="This file contains definitions of terms that are used in internal routines and are unlikely to need m...">
<polygon fill="#ffffff" stroke="#ff0000" points="517.436,-.5 517.436,-18.5 574.0171,-18.5 574.0171,-.5 517.436,-.5"/>
<text text-anchor="middle" x="545.7266" y="-6.5" font-family="Helvetica,sans-Serif" font-size="10.00" fill="#000000">ct_defs.h</text>
</a>
</g>
</g>
<!-- Node4&#45;&gt;Node5 -->
<g id="edge5" class="edge">
<title>Node4&#45;&gt;Node5</title>
<path fill="none" stroke="#191970" d="M656.7643,-55.4179C635.0094,-46.4215 601.4851,-32.5581 576.9626,-22.4172"/>
<polygon fill="#191970" stroke="#191970" points="578.3,-19.1828 567.7214,-18.5956 575.6249,-25.6515 578.3,-19.1828"/>
</g>
<!-- Node19&#45;&gt;Node5 -->
<g id="edge8" class="edge">
<title>Node19&#45;&gt;Node5</title>
<path fill="none" stroke="#191970" d="M352.6128,-55.4795C395.3901,-45.2944 464.6037,-28.815 507.5146,-18.5981"/>
<polygon fill="#191970" stroke="#191970" points="508.3832,-21.9892 517.3006,-16.2681 506.7618,-15.1795 508.3832,-21.9892"/>
</g>
<!-- Node20&#45;&gt;Node5 -->
<g id="edge10" class="edge">
<title>Node20&#45;&gt;Node5</title>
<path fill="none" stroke="#191970" d="M434.6888,-55.4179C456.4437,-46.4215 489.968,-32.5581 514.4905,-22.4172"/>
<polygon fill="#191970" stroke="#191970" points="515.8282,-25.6515 523.7317,-18.5956 513.1531,-19.1828 515.8282,-25.6515"/>
</g>
<!-- Node22 -->
<g id="node11" class="node">
<title>Node22</title>
<g id="a_node11"><a xlink:href="utilities_8h.html" target="_top" xlink:title="Various templated functions that carry out common vector operations (see Templated Utility Functions)...">
<polygon fill="#ffffff" stroke="#ff0000" points="210.2734,-110.5 210.2734,-128.5 265.1797,-128.5 265.1797,-110.5 210.2734,-110.5"/>
<text text-anchor="middle" x="237.7266" y="-116.5" font-family="Helvetica,sans-Serif" font-size="10.00" fill="#000000">utilities.h</text>
</a>
</g>
</g>
<!-- Node21&#45;&gt;Node22 -->
<g id="edge12" class="edge">
<title>Node21&#45;&gt;Node22</title>
<path fill="none" stroke="#191970" d="M100.3586,-220.2114C114.0917,-207.1803 140.3429,-183.0466 164.7266,-165 180.0877,-153.6311 198.3325,-142.2589 212.7397,-133.7275"/>
<polygon fill="#191970" stroke="#191970" points="214.7155,-136.6267 221.5842,-128.56 211.1842,-130.5827 214.7155,-136.6267"/>
</g>
<!-- Node25 -->
<g id="node12" class="node">
<title>Node25</title>
<polygon fill="#ffffff" stroke="#bfbfbf" points="63.5542,-165.5 63.5542,-183.5 117.8989,-183.5 117.8989,-165.5 63.5542,-165.5"/>
<text text-anchor="middle" x="90.7266" y="-171.5" font-family="Helvetica,sans-Serif" font-size="10.00" fill="#000000">iostream</text>
</g>
<!-- Node21&#45;&gt;Node25 -->
<g id="edge15" class="edge">
<title>Node21&#45;&gt;Node25</title>
<path fill="none" stroke="#191970" d="M90.7266,-220.4179C90.7266,-213.2164 90.7266,-202.8962 90.7266,-193.8632"/>
<polygon fill="#191970" stroke="#191970" points="94.2267,-193.7794 90.7266,-183.7795 87.2267,-193.7795 94.2267,-193.7794"/>
</g>
<!-- Node26 -->
<g id="node13" class="node">
<title>Node26</title>
<polygon fill="#ffffff" stroke="#bfbfbf" points="0,-165.5 0,-183.5 45.4531,-183.5 45.4531,-165.5 0,-165.5"/>
<text text-anchor="middle" x="22.7266" y="-171.5" font-family="Helvetica,sans-Serif" font-size="10.00" fill="#000000">cstring</text>
</g>
<!-- Node21&#45;&gt;Node26 -->
<g id="edge16" class="edge">
<title>Node21&#45;&gt;Node26</title>
<path fill="none" stroke="#191970" d="M79.4977,-220.4179C69.3221,-212.1876 54.1103,-199.8839 41.9935,-190.0836"/>
<polygon fill="#191970" stroke="#191970" points="44.1755,-187.3469 34.1993,-183.7795 39.7734,-192.7895 44.1755,-187.3469"/>
</g>
<!-- Node22&#45;&gt;Node5 -->
<g id="edge13" class="edge">
<title>Node22&#45;&gt;Node5</title>
<path fill="none" stroke="#191970" d="M236.4233,-110.0637C235.055,-95.9405 234.8398,-69.4262 249.7266,-55 267.98,-37.3113 431.0646,-20.097 507.0633,-12.9538"/>
<polygon fill="#191970" stroke="#191970" points="507.5515,-16.4236 517.185,-12.0137 506.9041,-9.4536 507.5515,-16.4236"/>
</g>
<!-- Node22&#45;&gt;Node19 -->
<g id="edge14" class="edge">
<title>Node22&#45;&gt;Node19</title>
<path fill="none" stroke="#191970" d="M250.4415,-110.4179C262.1448,-102.0584 279.7313,-89.4966 293.5531,-79.6239"/>
<polygon fill="#191970" stroke="#191970" points="295.8897,-82.2561 301.9927,-73.5956 291.821,-76.56 295.8897,-82.2561"/>
</g>
<!-- Node28 -->
<g id="node15" class="node">
<title>Node28</title>
<g id="a_node15"><a xlink:href="ThermoPhase_8h.html" target="_top" xlink:title="Header file for class ThermoPhase, the base class for phases with thermodynamic properties, and the text for the Module thermoprops (see Thermodynamic Properties and class ThermoPhase). ">
<polygon fill="#ffffff" stroke="#ff0000" points="174.1528,-165.5 174.1528,-183.5 261.3003,-183.5 261.3003,-165.5 174.1528,-165.5"/>
<text text-anchor="middle" x="217.7266" y="-171.5" font-family="Helvetica,sans-Serif" font-size="10.00" fill="#000000">ThermoPhase.h</text>
</a>
</g>
</g>
<!-- Node27&#45;&gt;Node28 -->
<g id="edge18" class="edge">
<title>Node27&#45;&gt;Node28</title>
<path fill="none" stroke="#191970" d="M271.1583,-220.4179C261.6733,-212.2667 247.5391,-200.1201 236.1899,-190.3669"/>
<polygon fill="#191970" stroke="#191970" points="238.3899,-187.6427 228.5245,-183.7795 233.8275,-192.9516 238.3899,-187.6427"/>
</g>
<!-- Node28&#45;&gt;Node19 -->
<g id="edge19" class="edge">
<title>Node28&#45;&gt;Node19</title>
<path fill="none" stroke="#191970" d="M231.2038,-165.4489C243.2402,-156.9479 260.8999,-143.4094 273.7266,-129 286.3632,-114.8041 297.6943,-96.302 305.2248,-82.7563"/>
<polygon fill="#191970" stroke="#191970" points="308.3341,-84.3644 310.0009,-73.9014 302.1732,-81.0413 308.3341,-84.3644"/>
</g>
<!-- Node42&#45;&gt;Node19 -->
<g id="edge27" class="edge">
<title>Node42&#45;&gt;Node19</title>
<path fill="none" stroke="#191970" d="M445.0564,-220.0927C442.3914,-206.9205 436.2609,-182.6203 424.7266,-165 401.131,-128.9544 361.6797,-97.2732 336.99,-79.5338"/>
<polygon fill="#191970" stroke="#191970" points="338.8117,-76.5361 328.6184,-73.6468 334.785,-82.2621 338.8117,-76.5361"/>
</g>
<!-- Node42&#45;&gt;Node28 -->
<g id="edge21" class="edge">
<title>Node42&#45;&gt;Node28</title>
<path fill="none" stroke="#191970" d="M409.1683,-220.4795C369.8157,-211.0279 307.8946,-196.1561 265.1853,-185.8984"/>
<polygon fill="#191970" stroke="#191970" points="265.8462,-182.4577 255.3053,-183.5255 264.2114,-189.2641 265.8462,-182.4577"/>
</g>
<!-- Node43 -->
<g id="node17" class="node">
<title>Node43</title>
<g id="a_node17"><a xlink:href="StoichManager_8h.html" target="_top" xlink:title="StoichManager.h">
<polygon fill="#ffffff" stroke="#000000" points="606.1997,-110.5 606.1997,-128.5 697.2534,-128.5 697.2534,-110.5 606.1997,-110.5"/>
<text text-anchor="middle" x="651.7266" y="-116.5" font-family="Helvetica,sans-Serif" font-size="10.00" fill="#000000">StoichManager.h</text>
</a>
</g>
</g>
<!-- Node42&#45;&gt;Node43 -->
<g id="edge22" class="edge">
<title>Node42&#45;&gt;Node43</title>
<path fill="none" stroke="#191970" d="M461.919,-220.4454C483.465,-207.6923 524.2301,-183.8869 559.7266,-165 580.7946,-153.7901 604.999,-141.8561 623.2917,-133.0238"/>
<polygon fill="#191970" stroke="#191970" points="625.0321,-136.0706 632.5293,-128.5844 622,-129.7614 625.0321,-136.0706"/>
</g>
<!-- Node44 -->
<g id="node18" class="node">
<title>Node44</title>
<g id="a_node18"><a xlink:href="Reaction_8h.html" target="_top" xlink:title="cantera/kinetics/Reaction.h">
<polygon fill="#ffffff" stroke="#ff0000" points="279.6948,-165.5 279.6948,-183.5 415.7583,-183.5 415.7583,-165.5 279.6948,-165.5"/>
<text text-anchor="middle" x="347.7266" y="-171.5" font-family="Helvetica,sans-Serif" font-size="10.00" fill="#000000">cantera/kinetics/Reaction.h</text>
</a>
</g>
</g>
<!-- Node42&#45;&gt;Node44 -->
<g id="edge25" class="edge">
<title>Node42&#45;&gt;Node44</title>
<path fill="none" stroke="#191970" d="M430.3787,-220.4179C414.7584,-211.7399 390.9868,-198.5334 372.9404,-188.5077"/>
<polygon fill="#191970" stroke="#191970" points="374.54,-185.3925 364.0987,-183.5956 371.1405,-191.5117 374.54,-185.3925"/>
</g>
<!-- Node43&#45;&gt;Node4 -->
<g id="edge23" class="edge">
<title>Node43&#45;&gt;Node4</title>
<path fill="none" stroke="#191970" d="M656.1851,-110.4179C659.8369,-102.9789 665.1223,-92.2123 669.6574,-82.9742"/>
<polygon fill="#191970" stroke="#191970" points="672.9062,-84.2985 674.1712,-73.7795 666.6226,-81.2138 672.9062,-84.2985"/>
</g>
<!-- Node43&#45;&gt;Node17 -->
<g id="edge24" class="edge">
<title>Node43&#45;&gt;Node17</title>
<path fill="none" stroke="#191970" d="M630.9202,-110.4179C610.4927,-101.5011 579.1117,-87.803 555.9374,-77.6873"/>
<polygon fill="#191970" stroke="#191970" points="557.1289,-74.3885 546.5638,-73.5956 554.3285,-80.804 557.1289,-74.3885"/>
</g>
<!-- Node44&#45;&gt;Node22 -->
<g id="edge26" class="edge">
<title>Node44&#45;&gt;Node22</title>
<path fill="none" stroke="#191970" d="M329.5623,-165.4179C311.9676,-156.6205 285.0648,-143.1691 264.9178,-133.0956"/>
<polygon fill="#191970" stroke="#191970" points="266.4274,-129.9373 255.9178,-128.5956 263.2968,-136.1983 266.4274,-129.9373"/>
</g>
<!-- Node48&#45;&gt;Node5 -->
<g id="edge30" class="edge">
<title>Node48&#45;&gt;Node5</title>
<path fill="none" stroke="#191970" d="M645.5326,-165.4938C693.1417,-146.8693 789.4149,-101.9211 751.7266,-55 731.1378,-29.3674 638.113,-17.3093 584.376,-12.3927"/>
<polygon fill="#191970" stroke="#191970" points="584.4522,-8.8861 574.1855,-11.5027 583.8431,-15.8596 584.4522,-8.8861"/>
</g>
<!-- Node49 -->
<g id="node20" class="node">
<title>Node49</title>
<g id="a_node20"><a xlink:href="xml_8h.html" target="_top" xlink:title="Classes providing support for XML data files. ">
<polygon fill="#ffffff" stroke="#000000" points="458.7808,-110.5 458.7808,-128.5 498.6724,-128.5 498.6724,-110.5 458.7808,-110.5"/>
<text text-anchor="middle" x="478.7266" y="-116.5" font-family="Helvetica,sans-Serif" font-size="10.00" fill="#000000">xml.h</text>
</a>
</g>
</g>
<!-- Node48&#45;&gt;Node49 -->
<g id="edge31" class="edge">
<title>Node48&#45;&gt;Node49</title>
<path fill="none" stroke="#191970" d="M597.2782,-165.4179C572.9704,-156.0029 534.9005,-141.2575 508.4865,-131.0267"/>
<polygon fill="#191970" stroke="#191970" points="509.5759,-127.6954 498.9868,-127.3473 507.0476,-134.2229 509.5759,-127.6954"/>
</g>
<!-- Node49&#45;&gt;Node17 -->
<g id="edge32" class="edge">
<title>Node49&#45;&gt;Node17</title>
<path fill="none" stroke="#191970" d="M486.4877,-110.4179C493.1827,-102.5833 503.0319,-91.0575 511.1876,-81.5137"/>
<polygon fill="#191970" stroke="#191970" points="513.9611,-83.6556 517.7968,-73.7795 508.6395,-79.108 513.9611,-83.6556"/>
</g>
<!-- Node49&#45;&gt;Node19 -->
<g id="edge33" class="edge">
<title>Node49&#45;&gt;Node19</title>
<path fill="none" stroke="#191970" d="M458.6169,-112.7559C432.0296,-103.8394 384.6889,-87.963 351.594,-76.8641"/>
<polygon fill="#191970" stroke="#191970" points="352.4132,-73.4473 341.8193,-73.586 350.1875,-80.084 352.4132,-73.4473"/>
</g>
<!-- Node50&#45;&gt;Node28 -->
<g id="edge35" class="edge">
<title>Node50&#45;&gt;Node28</title>
<path fill="none" stroke="#191970" d="M219.311,-275.2903C209.0682,-266.1752 197.293,-253.3772 191.7266,-239 185.4929,-222.8996 194.3361,-204.6606 203.3576,-191.696"/>
<polygon fill="#191970" stroke="#191970" points="206.2008,-193.739 209.4486,-183.6543 200.6207,-189.5126 206.2008,-193.739"/>
</g>
<!-- Node51&#45;&gt;Node5 -->
<g id="edge37" class="edge">
<title>Node51&#45;&gt;Node5</title>
<path fill="none" stroke="#191970" d="M758.7912,-340.2884C774.728,-321.1009 808.7266,-274.8528 808.7266,-229.5 808.7266,-229.5 808.7266,-229.5 808.7266,-119.5 808.7266,-86.0004 797.1136,-74.2918 769.7266,-55 740.3153,-34.2824 640.2002,-20.0874 584.2882,-13.5683"/>
<polygon fill="#191970" stroke="#191970" points="584.3911,-10.0575 574.0593,-12.4038 583.5992,-17.0125 584.3911,-10.0575"/>
</g>
</g>
</svg>
