<?xml version="1.0" encoding="UTF-8" standalone="no"?>
<!DOCTYPE svg PUBLIC "-//W3C//DTD SVG 1.1//EN"
 "http://www.w3.org/Graphics/SVG/1.1/DTD/svg11.dtd">
<!-- Generated by graphviz version 2.38.0 (20140413.2041)
 -->
<!-- Title: IonsFromNeutralVPSSTP.cpp Pages: 1 -->
<svg width="858pt" height="498pt"
 viewBox="0.00 0.00 858.00 498.00" xmlns="http://www.w3.org/2000/svg" xmlns:xlink="http://www.w3.org/1999/xlink">
<g id="graph0" class="graph" transform="scale(1 1) rotate(0) translate(4 494)">
<title>IonsFromNeutralVPSSTP.cpp</title>
<polygon fill="white" stroke="none" points="-4,4 -4,-494 854,-494 854,4 -4,4"/>
<!-- Node1 -->
<g id="node1" class="node"><title>Node1</title>
<polygon fill="#bfbfbf" stroke="black" points="480,-470.5 480,-489.5 628,-489.5 628,-470.5 480,-470.5"/>
<text text-anchor="middle" x="554" y="-477.5" font-family="Helvetica,sans-Serif" font-size="10.00">IonsFromNeutralVPSSTP.cpp</text>
</g>
<!-- Node2 -->
<g id="node2" class="node"><title>Node2</title>
<g id="a_node2"><a xlink:href="IonsFromNeutralVPSSTP_8h.html" target="_top" xlink:title="Header for intermediate ThermoPhase object for phases which consist of ions whose thermodynamics is c...">
<polygon fill="white" stroke="black" points="475,-403.5 475,-433.5 633,-433.5 633,-403.5 475,-403.5"/>
<text text-anchor="start" x="483" y="-421.5" font-family="Helvetica,sans-Serif" font-size="10.00">cantera/thermo/IonsFromNeutral</text>
<text text-anchor="middle" x="554" y="-410.5" font-family="Helvetica,sans-Serif" font-size="10.00">VPSSTP.h</text>
</a>
</g>
</g>
<!-- Node1&#45;&gt;Node2 -->
<g id="edge1" class="edge"><title>Node1&#45;&gt;Node2</title>
<path fill="none" stroke="midnightblue" d="M554,-470.475C554,-463.471 554,-453.192 554,-443.696"/>
<polygon fill="midnightblue" stroke="midnightblue" points="557.5,-443.523 554,-433.523 550.5,-443.523 557.5,-443.523"/>
</g>
<!-- Node17 -->
<g id="node17" class="node"><title>Node17</title>
<g id="a_node17"><a xlink:href="ThermoFactory_8h.html" target="_top" xlink:title="Headers for the factory class that can create known ThermoPhase objects (see Thermodynamic Properties...">
<polygon fill="white" stroke="black" points="241.5,-280.5 241.5,-299.5 400.5,-299.5 400.5,-280.5 241.5,-280.5"/>
<text text-anchor="middle" x="321" y="-287.5" font-family="Helvetica,sans-Serif" font-size="10.00">cantera/thermo/ThermoFactory.h</text>
</a>
</g>
</g>
<!-- Node1&#45;&gt;Node17 -->
<g id="edge21" class="edge"><title>Node1&#45;&gt;Node17</title>
<path fill="none" stroke="midnightblue" d="M533.062,-470.474C514.558,-462.444 487.282,-449.373 466,-434 411.975,-394.974 358.894,-335.888 334.658,-307.443"/>
<polygon fill="midnightblue" stroke="midnightblue" points="337.215,-305.045 328.094,-299.655 331.863,-309.557 337.215,-305.045"/>
</g>
<!-- Node23 -->
<g id="node23" class="node"><title>Node23</title>
<g id="a_node23"><a xlink:href="PDSS__IonsFromNeutral_8h.html" target="_top" xlink:title="Declarations for the class PDSS_IonsFromNeutral ( which handles calculations for a single ion in a fl...">
<polygon fill="white" stroke="black" points="187.5,-336.5 187.5,-366.5 300.5,-366.5 300.5,-336.5 187.5,-336.5"/>
<text text-anchor="start" x="195.5" y="-354.5" font-family="Helvetica,sans-Serif" font-size="10.00">cantera/thermo/PDSS</text>
<text text-anchor="middle" x="244" y="-343.5" font-family="Helvetica,sans-Serif" font-size="10.00">_IonsFromNeutral.h</text>
</a>
</g>
</g>
<!-- Node1&#45;&gt;Node23 -->
<g id="edge32" class="edge"><title>Node1&#45;&gt;Node23</title>
<path fill="none" stroke="midnightblue" d="M514.387,-470.47C481.499,-462.773 433.832,-450.184 394,-434 350.952,-416.509 304.372,-389.874 274.731,-371.855"/>
<polygon fill="midnightblue" stroke="midnightblue" points="276.453,-368.806 266.099,-366.56 272.793,-374.772 276.453,-368.806"/>
</g>
<!-- Node24 -->
<g id="node24" class="node"><title>Node24</title>
<g id="a_node24"><a xlink:href="stringUtils_8h.html" target="_top" xlink:title="Contains declarations for string manipulation functions within Cantera. ">
<polygon fill="white" stroke="black" points="603,-168.5 603,-187.5 731,-187.5 731,-168.5 603,-168.5"/>
<text text-anchor="middle" x="667" y="-175.5" font-family="Helvetica,sans-Serif" font-size="10.00">cantera/base/stringUtils.h</text>
</a>
</g>
</g>
<!-- Node1&#45;&gt;Node24 -->
<g id="edge34" class="edge"><title>Node1&#45;&gt;Node24</title>
<path fill="none" stroke="midnightblue" d="M613.569,-470.493C678.115,-457.519 772,-426.013 772,-352.5 772,-352.5 772,-352.5 772,-289 772,-258.902 772.078,-247.279 753,-224 740.767,-209.074 722.268,-198.497 705.558,-191.364"/>
<polygon fill="midnightblue" stroke="midnightblue" points="706.572,-188.001 695.986,-187.556 703.984,-194.505 706.572,-188.001"/>
</g>
<!-- Node26 -->
<g id="node26" class="node"><title>Node26</title>
<polygon fill="white" stroke="#bfbfbf" points="800,-409 800,-428 850,-428 850,-409 800,-409"/>
<text text-anchor="middle" x="825" y="-416" font-family="Helvetica,sans-Serif" font-size="10.00">fstream</text>
</g>
<!-- Node1&#45;&gt;Node26 -->
<g id="edge39" class="edge"><title>Node1&#45;&gt;Node26</title>
<path fill="none" stroke="midnightblue" d="M611.82,-470.496C659.133,-462.892 727.539,-450.417 786,-434 788.647,-433.257 791.369,-432.414 794.085,-431.517"/>
<polygon fill="midnightblue" stroke="midnightblue" points="795.479,-434.738 803.753,-428.119 793.158,-428.134 795.479,-434.738"/>
</g>
<!-- Node3 -->
<g id="node3" class="node"><title>Node3</title>
<g id="a_node3"><a xlink:href="GibbsExcessVPSSTP_8h.html" target="_top" xlink:title="Header for intermediate ThermoPhase object for phases which employ Gibbs excess free energy based for...">
<polygon fill="white" stroke="black" points="492.5,-342 492.5,-361 615.5,-361 615.5,-342 492.5,-342"/>
<text text-anchor="middle" x="554" y="-349" font-family="Helvetica,sans-Serif" font-size="10.00">GibbsExcessVPSSTP.h</text>
</a>
</g>
</g>
<!-- Node2&#45;&gt;Node3 -->
<g id="edge2" class="edge"><title>Node2&#45;&gt;Node3</title>
<path fill="none" stroke="midnightblue" d="M554,-403.396C554,-394.064 554,-381.714 554,-371.517"/>
<polygon fill="midnightblue" stroke="midnightblue" points="557.5,-371.195 554,-361.195 550.5,-371.195 557.5,-371.195"/>
</g>
<!-- Node4 -->
<g id="node4" class="node"><title>Node4</title>
<g id="a_node4"><a xlink:href="VPStandardStateTP_8h.html" target="_top" xlink:title="Header file for a derived class of ThermoPhase that handles variable pressure standard state methods ...">
<polygon fill="white" stroke="black" points="423.5,-280.5 423.5,-299.5 536.5,-299.5 536.5,-280.5 423.5,-280.5"/>
<text text-anchor="middle" x="480" y="-287.5" font-family="Helvetica,sans-Serif" font-size="10.00">VPStandardStateTP.h</text>
</a>
</g>
</g>
<!-- Node3&#45;&gt;Node4 -->
<g id="edge3" class="edge"><title>Node3&#45;&gt;Node4</title>
<path fill="none" stroke="midnightblue" d="M543.398,-341.975C531.748,-332.608 512.814,-317.384 498.665,-306.008"/>
<polygon fill="midnightblue" stroke="midnightblue" points="500.569,-303.048 490.583,-299.509 496.183,-308.503 500.569,-303.048"/>
</g>
<!-- Node13 -->
<g id="node13" class="node"><title>Node13</title>
<g id="a_node13"><a xlink:href="Array_8h.html" target="_top" xlink:title="Header file for class Cantera::Array2D. ">
<polygon fill="white" stroke="black" points="574.5,-280.5 574.5,-299.5 681.5,-299.5 681.5,-280.5 574.5,-280.5"/>
<text text-anchor="middle" x="628" y="-287.5" font-family="Helvetica,sans-Serif" font-size="10.00">cantera/base/Array.h</text>
</a>
</g>
</g>
<!-- Node3&#45;&gt;Node13 -->
<g id="edge15" class="edge"><title>Node3&#45;&gt;Node13</title>
<path fill="none" stroke="midnightblue" d="M564.602,-341.975C576.252,-332.608 595.186,-317.384 609.335,-306.008"/>
<polygon fill="midnightblue" stroke="midnightblue" points="611.817,-308.503 617.417,-299.509 607.431,-303.048 611.817,-308.503"/>
</g>
<!-- Node5 -->
<g id="node5" class="node"><title>Node5</title>
<g id="a_node5"><a xlink:href="ThermoPhase_8h.html" target="_top" xlink:title="Header file for class ThermoPhase, the base class for phases with thermodynamic properties, and the text for the Module thermoprops (see Thermodynamic Properties and class ThermoPhase). ">
<polygon fill="white" stroke="red" points="362,-224.5 362,-243.5 448,-243.5 448,-224.5 362,-224.5"/>
<text text-anchor="middle" x="405" y="-231.5" font-family="Helvetica,sans-Serif" font-size="10.00">ThermoPhase.h</text>
</a>
</g>
</g>
<!-- Node4&#45;&gt;Node5 -->
<g id="edge4" class="edge"><title>Node4&#45;&gt;Node5</title>
<path fill="none" stroke="midnightblue" d="M467.95,-280.324C456.537,-272.107 439.169,-259.602 425.565,-249.807"/>
<polygon fill="midnightblue" stroke="midnightblue" points="427.43,-246.837 417.269,-243.834 423.34,-252.517 427.43,-246.837"/>
</g>
<!-- Node11 -->
<g id="node11" class="node"><title>Node11</title>
<g id="a_node11"><a xlink:href="VPSSMgr_8h.html" target="_top" xlink:title="Declaration file for a virtual base class that manages the calculation of standard state properties f...">
<polygon fill="white" stroke="red" points="466,-224.5 466,-243.5 534,-243.5 534,-224.5 466,-224.5"/>
<text text-anchor="middle" x="500" y="-231.5" font-family="Helvetica,sans-Serif" font-size="10.00">VPSSMgr.h</text>
</a>
</g>
</g>
<!-- Node4&#45;&gt;Node11 -->
<g id="edge11" class="edge"><title>Node4&#45;&gt;Node11</title>
<path fill="none" stroke="midnightblue" d="M483.303,-280.083C485.982,-272.849 489.849,-262.409 493.186,-253.397"/>
<polygon fill="midnightblue" stroke="midnightblue" points="496.568,-254.344 496.759,-243.751 490.004,-251.913 496.568,-254.344"/>
</g>
<!-- Node12 -->
<g id="node12" class="node"><title>Node12</title>
<g id="a_node12"><a xlink:href="PDSS_8h.html" target="_top" xlink:title="Declarations for the virtual base class PDSS (pressure dependent standard state) which handles calcul...">
<polygon fill="white" stroke="red" points="172.5,-224.5 172.5,-243.5 225.5,-243.5 225.5,-224.5 172.5,-224.5"/>
<text text-anchor="middle" x="199" y="-231.5" font-family="Helvetica,sans-Serif" font-size="10.00">PDSS.h</text>
</a>
</g>
</g>
<!-- Node4&#45;&gt;Node12 -->
<g id="edge13" class="edge"><title>Node4&#45;&gt;Node12</title>
<path fill="none" stroke="midnightblue" d="M428.19,-280.464C380.705,-272.421 308.231,-259.591 235.896,-244.079"/>
<polygon fill="midnightblue" stroke="midnightblue" points="236.206,-240.566 225.692,-241.873 234.727,-247.408 236.206,-240.566"/>
</g>
<!-- Node6 -->
<g id="node6" class="node"><title>Node6</title>
<g id="a_node6"><a xlink:href="global_8h.html" target="_top" xlink:title="This file contains definitions for utility functions and text for modules, inputfiles, logs, textlogs, (see Input File Handling, Diagnostic Output, and Writing messages to the screen). ">
<polygon fill="white" stroke="black" points="398,-168.5 398,-187.5 508,-187.5 508,-168.5 398,-168.5"/>
<text text-anchor="middle" x="453" y="-175.5" font-family="Helvetica,sans-Serif" font-size="10.00">cantera/base/global.h</text>
</a>
</g>
</g>
<!-- Node5&#45;&gt;Node6 -->
<g id="edge5" class="edge"><title>Node5&#45;&gt;Node6</title>
<path fill="none" stroke="midnightblue" d="M412.926,-224.083C419.846,-216.298 430.065,-204.801 438.452,-195.367"/>
<polygon fill="midnightblue" stroke="midnightblue" points="441.194,-197.55 445.221,-187.751 435.962,-192.9 441.194,-197.55"/>
</g>
<!-- Node7 -->
<g id="node7" class="node"><title>Node7</title>
<g id="a_node7"><a xlink:href="ct__defs_8h.html" target="_top" xlink:title="This file contains definitions of terms that are used in internal routines and are unlikely to need m...">
<polygon fill="white" stroke="red" points="469.5,-56.5 469.5,-75.5 526.5,-75.5 526.5,-56.5 469.5,-56.5"/>
<text text-anchor="middle" x="498" y="-63.5" font-family="Helvetica,sans-Serif" font-size="10.00">ct_defs.h</text>
</a>
</g>
</g>
<!-- Node6&#45;&gt;Node7 -->
<g id="edge6" class="edge"><title>Node6&#45;&gt;Node7</title>
<path fill="none" stroke="midnightblue" d="M458.832,-168.361C464.586,-159.533 473.323,-145.273 479,-132 485.502,-116.799 490.593,-98.6845 493.863,-85.4444"/>
<polygon fill="midnightblue" stroke="midnightblue" points="497.286,-86.1762 496.171,-75.6402 490.472,-84.5719 497.286,-86.1762"/>
</g>
<!-- Node10 -->
<g id="node10" class="node"><title>Node10</title>
<g id="a_node10"><a xlink:href="fmt_8h.html" target="_top" xlink:title="Wrapper for either system&#45;installed or local headers for fmt. ">
<polygon fill="white" stroke="red" points="372,-112.5 372,-131.5 470,-131.5 470,-112.5 372,-112.5"/>
<text text-anchor="middle" x="421" y="-119.5" font-family="Helvetica,sans-Serif" font-size="10.00">cantera/base/fmt.h</text>
</a>
</g>
</g>
<!-- Node6&#45;&gt;Node10 -->
<g id="edge9" class="edge"><title>Node6&#45;&gt;Node10</title>
<path fill="none" stroke="midnightblue" d="M447.716,-168.083C443.289,-160.613 436.837,-149.724 431.382,-140.52"/>
<polygon fill="midnightblue" stroke="midnightblue" points="434.295,-138.57 426.186,-131.751 428.273,-142.138 434.295,-138.57"/>
</g>
<!-- Node8 -->
<g id="node8" class="node"><title>Node8</title>
<polygon fill="white" stroke="#bfbfbf" points="248,-0.5 248,-19.5 292,-19.5 292,-0.5 248,-0.5"/>
<text text-anchor="middle" x="270" y="-7.5" font-family="Helvetica,sans-Serif" font-size="10.00">vector</text>
</g>
<!-- Node7&#45;&gt;Node8 -->
<g id="edge7" class="edge"><title>Node7&#45;&gt;Node8</title>
<path fill="none" stroke="midnightblue" d="M469.124,-58.1609C426.414,-48.0454 346.67,-29.1587 302.152,-18.6149"/>
<polygon fill="midnightblue" stroke="midnightblue" points="302.699,-15.1477 292.161,-16.2487 301.085,-21.9592 302.699,-15.1477"/>
</g>
<!-- Node9 -->
<g id="node9" class="node"><title>Node9</title>
<polygon fill="white" stroke="#bfbfbf" points="507.5,-0.5 507.5,-19.5 548.5,-19.5 548.5,-0.5 507.5,-0.5"/>
<text text-anchor="middle" x="528" y="-7.5" font-family="Helvetica,sans-Serif" font-size="10.00">string</text>
</g>
<!-- Node7&#45;&gt;Node9 -->
<g id="edge8" class="edge"><title>Node7&#45;&gt;Node9</title>
<path fill="none" stroke="midnightblue" d="M502.954,-56.083C507.104,-48.6127 513.153,-37.7244 518.267,-28.5199"/>
<polygon fill="midnightblue" stroke="midnightblue" points="521.341,-30.1924 523.138,-19.7511 515.222,-26.7929 521.341,-30.1924"/>
</g>
<!-- Node10&#45;&gt;Node7 -->
<g id="edge10" class="edge"><title>Node10&#45;&gt;Node7</title>
<path fill="none" stroke="midnightblue" d="M433.371,-112.324C445.158,-104.058 463.132,-91.4527 477.136,-81.6322"/>
<polygon fill="midnightblue" stroke="midnightblue" points="479.482,-84.2619 485.659,-75.6545 475.462,-78.5307 479.482,-84.2619"/>
</g>
<!-- Node11&#45;&gt;Node6 -->
<g id="edge12" class="edge"><title>Node11&#45;&gt;Node6</title>
<path fill="none" stroke="midnightblue" d="M492.239,-224.083C485.463,-216.298 475.457,-204.801 467.245,-195.367"/>
<polygon fill="midnightblue" stroke="midnightblue" points="469.822,-192.996 460.617,-187.751 464.542,-197.592 469.822,-192.996"/>
</g>
<!-- Node12&#45;&gt;Node7 -->
<g id="edge14" class="edge"><title>Node12&#45;&gt;Node7</title>
<path fill="none" stroke="midnightblue" d="M201.179,-224.24C205.008,-210.522 214.181,-183.898 231,-168 296.098,-106.464 402.374,-81.4737 459.227,-72.0991"/>
<polygon fill="midnightblue" stroke="midnightblue" points="459.911,-75.5347 469.247,-70.5251 458.825,-68.6195 459.911,-75.5347"/>
</g>
<!-- Node14 -->
<g id="node14" class="node"><title>Node14</title>
<g id="a_node14"><a xlink:href="utilities_8h.html" target="_top" xlink:title="Various templated functions that carry out common vector operations (see Templated Utility Functions)...">
<polygon fill="white" stroke="red" points="688,-224.5 688,-243.5 744,-243.5 744,-224.5 688,-224.5"/>
<text text-anchor="middle" x="716" y="-231.5" font-family="Helvetica,sans-Serif" font-size="10.00">utilities.h</text>
</a>
</g>
</g>
<!-- Node13&#45;&gt;Node14 -->
<g id="edge16" class="edge"><title>Node13&#45;&gt;Node14</title>
<path fill="none" stroke="midnightblue" d="M642.139,-280.324C655.866,-271.9 676.936,-258.971 693.064,-249.074"/>
<polygon fill="midnightblue" stroke="midnightblue" points="695.204,-251.868 701.896,-243.655 691.543,-245.902 695.204,-251.868"/>
</g>
<!-- Node15 -->
<g id="node15" class="node"><title>Node15</title>
<polygon fill="white" stroke="#bfbfbf" points="552,-224.5 552,-243.5 606,-243.5 606,-224.5 552,-224.5"/>
<text text-anchor="middle" x="579" y="-231.5" font-family="Helvetica,sans-Serif" font-size="10.00">iostream</text>
</g>
<!-- Node13&#45;&gt;Node15 -->
<g id="edge19" class="edge"><title>Node13&#45;&gt;Node15</title>
<path fill="none" stroke="midnightblue" d="M619.909,-280.083C612.845,-272.298 602.412,-260.801 593.851,-251.367"/>
<polygon fill="midnightblue" stroke="midnightblue" points="596.253,-248.805 586.941,-243.751 591.069,-253.509 596.253,-248.805"/>
</g>
<!-- Node16 -->
<g id="node16" class="node"><title>Node16</title>
<polygon fill="white" stroke="#bfbfbf" points="624,-224.5 624,-243.5 670,-243.5 670,-224.5 624,-224.5"/>
<text text-anchor="middle" x="647" y="-231.5" font-family="Helvetica,sans-Serif" font-size="10.00">cstring</text>
</g>
<!-- Node13&#45;&gt;Node16 -->
<g id="edge20" class="edge"><title>Node13&#45;&gt;Node16</title>
<path fill="none" stroke="midnightblue" d="M631.137,-280.083C633.683,-272.849 637.356,-262.409 640.527,-253.397"/>
<polygon fill="midnightblue" stroke="midnightblue" points="643.903,-254.346 643.921,-243.751 637.3,-252.023 643.903,-254.346"/>
</g>
<!-- Node14&#45;&gt;Node6 -->
<g id="edge18" class="edge"><title>Node14&#45;&gt;Node6</title>
<path fill="none" stroke="midnightblue" d="M687.747,-225.998C684.797,-225.306 681.84,-224.628 679,-224 621.257,-211.234 554.846,-198.207 509.029,-189.477"/>
<polygon fill="midnightblue" stroke="midnightblue" points="509.478,-186 499,-187.572 508.171,-192.877 509.478,-186"/>
</g>
<!-- Node14&#45;&gt;Node7 -->
<g id="edge17" class="edge"><title>Node14&#45;&gt;Node7</title>
<path fill="none" stroke="midnightblue" d="M687.83,-224.56C656.817,-214.932 609.314,-199.089 594,-188 554.52,-159.411 522.704,-110.415 507.574,-84.4065"/>
<polygon fill="midnightblue" stroke="midnightblue" points="510.588,-82.6268 502.611,-75.6546 504.499,-86.0798 510.588,-82.6268"/>
</g>
<!-- Node17&#45;&gt;Node5 -->
<g id="edge22" class="edge"><title>Node17&#45;&gt;Node5</title>
<path fill="none" stroke="midnightblue" d="M334.496,-280.324C347.6,-271.9 367.712,-258.971 383.107,-249.074"/>
<polygon fill="midnightblue" stroke="midnightblue" points="385.018,-252.006 391.537,-243.655 381.233,-246.118 385.018,-252.006"/>
</g>
<!-- Node18 -->
<g id="node18" class="node"><title>Node18</title>
<g id="a_node18"><a xlink:href="xml_8h.html" target="_top" xlink:title="Classes providing support for XML data files. ">
<polygon fill="white" stroke="black" points="244,-224.5 244,-243.5 344,-243.5 344,-224.5 244,-224.5"/>
<text text-anchor="middle" x="294" y="-231.5" font-family="Helvetica,sans-Serif" font-size="10.00">cantera/base/xml.h</text>
</a>
</g>
</g>
<!-- Node17&#45;&gt;Node18 -->
<g id="edge23" class="edge"><title>Node17&#45;&gt;Node18</title>
<path fill="none" stroke="midnightblue" d="M316.541,-280.083C312.846,-272.691 307.477,-261.953 302.906,-252.811"/>
<polygon fill="midnightblue" stroke="midnightblue" points="305.978,-251.13 298.376,-243.751 299.717,-254.261 305.978,-251.13"/>
</g>
<!-- Node20 -->
<g id="node20" class="node"><title>Node20</title>
<g id="a_node20"><a xlink:href="FactoryBase_8h.html" target="_top" xlink:title="File contains the FactoryBase class declarations. ">
<polygon fill="white" stroke="black" points="14,-224.5 14,-243.5 154,-243.5 154,-224.5 14,-224.5"/>
<text text-anchor="middle" x="84" y="-231.5" font-family="Helvetica,sans-Serif" font-size="10.00">cantera/base/FactoryBase.h</text>
</a>
</g>
</g>
<!-- Node17&#45;&gt;Node20 -->
<g id="edge27" class="edge"><title>Node17&#45;&gt;Node20</title>
<path fill="none" stroke="midnightblue" d="M283.447,-280.444C242.189,-271.043 175.856,-255.929 131.134,-245.739"/>
<polygon fill="midnightblue" stroke="midnightblue" points="131.905,-242.326 121.378,-243.516 130.35,-249.151 131.905,-242.326"/>
</g>
<!-- Node18&#45;&gt;Node6 -->
<g id="edge26" class="edge"><title>Node18&#45;&gt;Node6</title>
<path fill="none" stroke="midnightblue" d="M319.194,-224.444C345.943,-215.359 388.403,-200.939 418.305,-190.783"/>
<polygon fill="midnightblue" stroke="midnightblue" points="419.581,-194.046 427.924,-187.516 417.329,-187.418 419.581,-194.046"/>
</g>
<!-- Node19 -->
<g id="node19" class="node"><title>Node19</title>
<g id="a_node19"><a xlink:href="ctexceptions_8h.html" target="_top" xlink:title="Definitions for the classes that are thrown when Cantera experiences an error condition (also contain...">
<polygon fill="white" stroke="red" points="240,-168.5 240,-187.5 380,-187.5 380,-168.5 240,-168.5"/>
<text text-anchor="middle" x="310" y="-175.5" font-family="Helvetica,sans-Serif" font-size="10.00">cantera/base/ctexceptions.h</text>
</a>
</g>
</g>
<!-- Node18&#45;&gt;Node19 -->
<g id="edge24" class="edge"><title>Node18&#45;&gt;Node19</title>
<path fill="none" stroke="midnightblue" d="M296.642,-224.083C298.786,-216.849 301.879,-206.409 304.549,-197.397"/>
<polygon fill="midnightblue" stroke="midnightblue" points="307.922,-198.333 307.407,-187.751 301.21,-196.345 307.922,-198.333"/>
</g>
<!-- Node19&#45;&gt;Node10 -->
<g id="edge25" class="edge"><title>Node19&#45;&gt;Node10</title>
<path fill="none" stroke="midnightblue" d="M327.834,-168.324C345.716,-159.625 373.475,-146.12 394.046,-136.113"/>
<polygon fill="midnightblue" stroke="midnightblue" points="395.749,-139.177 403.21,-131.655 392.687,-132.882 395.749,-139.177"/>
</g>
<!-- Node20&#45;&gt;Node8 -->
<g id="edge28" class="edge"><title>Node20&#45;&gt;Node8</title>
<path fill="none" stroke="midnightblue" d="M83.0299,-224.442C81.9575,-211.451 81.4788,-186.332 91,-168 126.365,-99.9084 204.552,-48.0196 244.87,-24.6352"/>
<polygon fill="midnightblue" stroke="midnightblue" points="246.827,-27.5486 253.795,-19.5671 243.371,-21.4616 246.827,-27.5486"/>
</g>
<!-- Node20&#45;&gt;Node19 -->
<g id="edge31" class="edge"><title>Node20&#45;&gt;Node19</title>
<path fill="none" stroke="midnightblue" d="M119.81,-224.444C158.988,-215.083 221.877,-200.056 264.515,-189.868"/>
<polygon fill="midnightblue" stroke="midnightblue" points="265.444,-193.245 274.357,-187.516 263.818,-186.436 265.444,-193.245"/>
</g>
<!-- Node21 -->
<g id="node21" class="node"><title>Node21</title>
<polygon fill="white" stroke="#bfbfbf" points="0,-168.5 0,-187.5 44,-187.5 44,-168.5 0,-168.5"/>
<text text-anchor="middle" x="22" y="-175.5" font-family="Helvetica,sans-Serif" font-size="10.00">mutex</text>
</g>
<!-- Node20&#45;&gt;Node21 -->
<g id="edge29" class="edge"><title>Node20&#45;&gt;Node21</title>
<path fill="none" stroke="midnightblue" d="M74.0386,-224.324C64.8734,-216.341 51.0628,-204.313 39.9718,-194.653"/>
<polygon fill="midnightblue" stroke="midnightblue" points="41.9822,-191.762 32.1426,-187.834 37.3847,-197.041 41.9822,-191.762"/>
</g>
<!-- Node22 -->
<g id="node22" class="node"><title>Node22</title>
<polygon fill="white" stroke="#bfbfbf" points="100.5,-168.5 100.5,-187.5 183.5,-187.5 183.5,-168.5 100.5,-168.5"/>
<text text-anchor="middle" x="142" y="-175.5" font-family="Helvetica,sans-Serif" font-size="10.00">unordered_map</text>
</g>
<!-- Node20&#45;&gt;Node22 -->
<g id="edge30" class="edge"><title>Node20&#45;&gt;Node22</title>
<path fill="none" stroke="midnightblue" d="M93.3187,-224.324C101.893,-216.341 114.812,-204.313 125.188,-194.653"/>
<polygon fill="midnightblue" stroke="midnightblue" points="127.578,-197.21 132.512,-187.834 122.808,-192.086 127.578,-197.21"/>
</g>
<!-- Node23&#45;&gt;Node12 -->
<g id="edge33" class="edge"><title>Node23&#45;&gt;Node12</title>
<path fill="none" stroke="midnightblue" d="M238.482,-336.337C230.337,-315.433 215.095,-276.31 206.118,-253.27"/>
<polygon fill="midnightblue" stroke="midnightblue" points="209.269,-251.717 202.378,-243.669 202.747,-254.258 209.269,-251.717"/>
</g>
<!-- Node24&#45;&gt;Node7 -->
<g id="edge35" class="edge"><title>Node24&#45;&gt;Node7</title>
<path fill="none" stroke="midnightblue" d="M652.394,-168.432C637.364,-159.543 613.339,-145.129 593,-132 566.91,-115.159 537.491,-94.8139 518.397,-81.4237"/>
<polygon fill="midnightblue" stroke="midnightblue" points="520.349,-78.5177 510.156,-75.6267 516.321,-84.2431 520.349,-78.5177"/>
</g>
<!-- Node24&#45;&gt;Node9 -->
<g id="edge38" class="edge"><title>Node24&#45;&gt;Node9</title>
<path fill="none" stroke="midnightblue" d="M691.227,-168.434C718.363,-157.412 756.631,-136.712 741,-112 700.439,-47.8765 606.914,-23.6584 558.412,-15.1773"/>
<polygon fill="midnightblue" stroke="midnightblue" points="558.935,-11.7165 548.501,-13.555 557.805,-18.6245 558.935,-11.7165"/>
</g>
<!-- Node24&#45;&gt;Node10 -->
<g id="edge36" class="edge"><title>Node24&#45;&gt;Node10</title>
<path fill="none" stroke="midnightblue" d="M628.021,-168.444C585.106,-159.023 516.054,-143.866 469.631,-133.675"/>
<polygon fill="midnightblue" stroke="midnightblue" points="470.315,-130.242 459.797,-131.516 468.814,-137.079 470.315,-130.242"/>
</g>
<!-- Node25 -->
<g id="node25" class="node"><title>Node25</title>
<polygon fill="white" stroke="#bfbfbf" points="602.5,-112.5 602.5,-131.5 731.5,-131.5 731.5,-112.5 602.5,-112.5"/>
<text text-anchor="middle" x="667" y="-119.5" font-family="Helvetica,sans-Serif" font-size="10.00">boost/algorithm/string.hpp</text>
</g>
<!-- Node24&#45;&gt;Node25 -->
<g id="edge37" class="edge"><title>Node24&#45;&gt;Node25</title>
<path fill="none" stroke="midnightblue" d="M667,-168.083C667,-161.006 667,-150.861 667,-141.986"/>
<polygon fill="midnightblue" stroke="midnightblue" points="670.5,-141.751 667,-131.751 663.5,-141.751 670.5,-141.751"/>
</g>
</g>
</svg>
