<?xml version="1.0" encoding="UTF-8" standalone="no"?>
<!DOCTYPE svg PUBLIC "-//W3C//DTD SVG 1.1//EN"
 "http://www.w3.org/Graphics/SVG/1.1/DTD/svg11.dtd">
<!-- Generated by graphviz version 2.26.3 (20100126.1600)
 -->
<!-- Title: IonsFromNeutralVPSSTP.h Pages: 1 -->
<svg width="720pt" height="88pt"
 viewBox="0.00 0.00 720.00 88.00" xmlns="http://www.w3.org/2000/svg" xmlns:xlink="http://www.w3.org/1999/xlink">
<g id="graph1" class="graph" transform="scale(1 1) rotate(0) translate(4 84)">
<title>IonsFromNeutralVPSSTP.h</title>
<polygon fill="white" stroke="white" points="-4,5 -4,-84 717,-84 717,5 -4,5"/>
<!-- Node1 -->
<g id="node1" class="node"><title>Node1</title>
<polygon fill="#bfbfbf" stroke="black" points="301,-59 301,-79 435,-79 435,-59 301,-59"/>
<text text-anchor="middle" x="368" y="-66" font-family="FreeSans" font-size="10.00">IonsFromNeutralVPSSTP.h</text>
</g>
<!-- Node2 -->
<g id="node3" class="node"><title>Node2</title>
<a xlink:href="IonsFromNeutralVPSSTP_8cpp.html" target="_top" xlink:title="Definitions for the object which treats ionic liquids as made of ions as species even though the ther...">
<polygon fill="white" stroke="black" points="-0.5,-1 -0.5,-21 144.5,-21 144.5,-1 -0.5,-1"/>
<text text-anchor="middle" x="72" y="-8" font-family="FreeSans" font-size="10.00">IonsFromNeutralVPSSTP.cpp</text>
</a>
</g>
<!-- Node1&#45;&gt;Node2 -->
<g id="edge2" class="edge"><title>Node1&#45;&gt;Node2</title>
<path fill="none" stroke="midnightblue" d="M306.932,-57.0341C252.628,-46.3934 174.135,-31.013 123.09,-21.0108"/>
<polygon fill="midnightblue" stroke="midnightblue" points="306.292,-60.4751 316.779,-58.9634 307.638,-53.6057 306.292,-60.4751"/>
</g>
<!-- Node3 -->
<g id="node5" class="node"><title>Node3</title>
<a xlink:href="PDSS__IonsFromNeutral_8cpp.html" target="_top" xlink:title="Implementation of a pressure dependent standard state virtual function. ">
<polygon fill="white" stroke="black" points="162,-1 162,-21 300,-21 300,-1 162,-1"/>
<text text-anchor="middle" x="231" y="-8" font-family="FreeSans" font-size="10.00">PDSS_IonsFromNeutral.cpp</text>
</a>
</g>
<!-- Node1&#45;&gt;Node3 -->
<g id="edge4" class="edge"><title>Node1&#45;&gt;Node3</title>
<path fill="none" stroke="midnightblue" d="M334.817,-54.9516C310.188,-44.5248 277.174,-30.5483 255.05,-21.1817"/>
<polygon fill="midnightblue" stroke="midnightblue" points="333.563,-58.2216 344.136,-58.8972 336.292,-51.7755 333.563,-58.2216"/>
</g>
<!-- Node4 -->
<g id="node7" class="node"><title>Node4</title>
<a xlink:href="ThermoFactory_8cpp.html" target="_top" xlink:title="Definitions for the factory class that can create known ThermoPhase objects (see Thermodynamic Proper...">
<polygon fill="white" stroke="black" points="318,-1 318,-21 418,-21 418,-1 318,-1"/>
<text text-anchor="middle" x="368" y="-8" font-family="FreeSans" font-size="10.00">ThermoFactory.cpp</text>
</a>
</g>
<!-- Node1&#45;&gt;Node4 -->
<g id="edge6" class="edge"><title>Node1&#45;&gt;Node4</title>
<path fill="none" stroke="midnightblue" d="M368,-48.8902C368,-39.6201 368,-29.0083 368,-21.3776"/>
<polygon fill="midnightblue" stroke="midnightblue" points="364.5,-48.8971 368,-58.8972 371.5,-48.8972 364.5,-48.8971"/>
</g>
<!-- Node5 -->
<g id="node9" class="node"><title>Node5</title>
<a xlink:href="LiquidTranInteraction_8cpp.html" target="_top" xlink:title="Source code for liquid mixture transport property evaluations. ">
<polygon fill="white" stroke="black" points="435.5,-1 435.5,-21 560.5,-21 560.5,-1 435.5,-1"/>
<text text-anchor="middle" x="498" y="-8" font-family="FreeSans" font-size="10.00">LiquidTranInteraction.cpp</text>
</a>
</g>
<!-- Node1&#45;&gt;Node5 -->
<g id="edge8" class="edge"><title>Node1&#45;&gt;Node5</title>
<path fill="none" stroke="midnightblue" d="M399.798,-54.813C423.135,-44.4012 454.278,-30.5069 475.179,-21.1817"/>
<polygon fill="midnightblue" stroke="midnightblue" points="398.351,-51.6264 390.644,-58.8972 401.203,-58.019 398.351,-51.6264"/>
</g>
<!-- Node6 -->
<g id="node11" class="node"><title>Node6</title>
<a xlink:href="LiquidTransportParams_8cpp.html" target="_top" xlink:title="Source code for liquid mixture transport property evaluations. ">
<polygon fill="white" stroke="black" points="578,-1 578,-21 712,-21 712,-1 578,-1"/>
<text text-anchor="middle" x="645" y="-8" font-family="FreeSans" font-size="10.00">LiquidTransportParams.cpp</text>
</a>
</g>
<!-- Node1&#45;&gt;Node6 -->
<g id="edge10" class="edge"><title>Node1&#45;&gt;Node6</title>
<path fill="none" stroke="midnightblue" d="M425.781,-56.9014C476.575,-46.2658 549.619,-30.9715 597.19,-21.0108"/>
<polygon fill="midnightblue" stroke="midnightblue" points="425.004,-53.4882 415.933,-58.9634 426.439,-60.3396 425.004,-53.4882"/>
</g>
</g>
</svg>
