<?xml version="1.0" encoding="UTF-8" standalone="no"?>
<!DOCTYPE svg PUBLIC "-//W3C//DTD SVG 1.1//EN"
 "http://www.w3.org/Graphics/SVG/1.1/DTD/svg11.dtd">
<!-- Generated by graphviz version 2.36.0 (20140111.2315)
 -->
<!-- Title: Kinetics.cpp Pages: 1 -->
<svg width="926pt" height="388pt"
 viewBox="0.00 0.00 925.93 388.00" xmlns="http://www.w3.org/2000/svg" xmlns:xlink="http://www.w3.org/1999/xlink">
<g id="graph0" class="graph" transform="scale(1 1) rotate(0) translate(4 384)">
<title>Kinetics.cpp</title>
<polygon fill="white" stroke="none" points="-4,4 -4,-384 921.933,-384 921.933,4 -4,4"/>
<!-- Node1 -->
<g id="node1" class="node"><title>Node1</title>
<polygon fill="#bfbfbf" stroke="black" points="629.433,-360.5 629.433,-379.5 698.433,-379.5 698.433,-360.5 629.433,-360.5"/>
<text text-anchor="middle" x="663.933" y="-367.5" font-family="FreeSans" font-size="10.00">Kinetics.cpp</text>
</g>
<!-- Node2 -->
<g id="node2" class="node"><title>Node2</title>
<g id="a_node2"><a xlink:href="Kinetics_8h.html" target="_top" xlink:title="Base class for kinetics managers and also contains the kineticsmgr module documentation (see Kinetics...">
<polygon fill="white" stroke="black" points="467.933,-304.5 467.933,-323.5 597.933,-323.5 597.933,-304.5 467.933,-304.5"/>
<text text-anchor="middle" x="532.933" y="-311.5" font-family="FreeSans" font-size="10.00">cantera/kinetics/Kinetics.h</text>
</a>
</g>
</g>
<!-- Node1&#45;&gt;Node2 -->
<g id="edge1" class="edge"><title>Node1&#45;&gt;Node2</title>
<path fill="none" stroke="midnightblue" d="M643.176,-360.444C621.617,-351.557 587.67,-337.563 563.139,-327.451"/>
<polygon fill="midnightblue" stroke="midnightblue" points="564.173,-324.092 553.593,-323.516 561.505,-330.563 564.173,-324.092"/>
</g>
<!-- Node13 -->
<g id="node13" class="node"><title>Node13</title>
<g id="a_node13"><a xlink:href="ReactionData_8h.html" target="_top" xlink:title="cantera/kinetics/Reaction\lData.h">
<polygon fill="white" stroke="black" points="600.933,-237 600.933,-267 726.933,-267 726.933,-237 600.933,-237"/>
<text text-anchor="start" x="608.933" y="-255" font-family="FreeSans" font-size="10.00">cantera/kinetics/Reaction</text>
<text text-anchor="middle" x="663.933" y="-244" font-family="FreeSans" font-size="10.00">Data.h</text>
</a>
</g>
</g>
<!-- Node1&#45;&gt;Node13 -->
<g id="edge16" class="edge"><title>Node1&#45;&gt;Node13</title>
<path fill="none" stroke="midnightblue" d="M663.933,-360.281C663.933,-342.854 663.933,-303.173 663.933,-277.262"/>
<polygon fill="midnightblue" stroke="midnightblue" points="667.433,-277.106 663.933,-267.106 660.433,-277.106 667.433,-277.106"/>
</g>
<!-- Node19 -->
<g id="node19" class="node"><title>Node19</title>
<g id="a_node19"><a xlink:href="stringUtils_8h.html" target="_top" xlink:title="Contains declarations for string manipulation functions within Cantera. ">
<polygon fill="white" stroke="black" points="792.433,-112.5 792.433,-131.5 917.433,-131.5 917.433,-112.5 792.433,-112.5"/>
<text text-anchor="middle" x="854.933" y="-119.5" font-family="FreeSans" font-size="10.00">cantera/base/stringUtils.h</text>
</a>
</g>
</g>
<!-- Node1&#45;&gt;Node19 -->
<g id="edge25" class="edge"><title>Node1&#45;&gt;Node19</title>
<path fill="none" stroke="midnightblue" d="M670.731,-360.245C698.638,-324.302 804.681,-187.723 841.915,-139.767"/>
<polygon fill="midnightblue" stroke="midnightblue" points="844.849,-141.696 848.217,-131.65 839.32,-137.403 844.849,-141.696"/>
</g>
<!-- Node3 -->
<g id="node3" class="node"><title>Node3</title>
<g id="a_node3"><a xlink:href="ThermoPhase_8h.html" target="_top" xlink:title="Header file for class ThermoPhase, the base class for phases with thermodynamic properties, and the text for the Module thermoprops (see Thermodynamic Properties and class ThermoPhase). ">
<polygon fill="white" stroke="black" points="312.933,-242.5 312.933,-261.5 464.933,-261.5 464.933,-242.5 312.933,-242.5"/>
<text text-anchor="middle" x="388.933" y="-249.5" font-family="FreeSans" font-size="10.00">cantera/thermo/ThermoPhase.h</text>
</a>
</g>
</g>
<!-- Node2&#45;&gt;Node3 -->
<g id="edge2" class="edge"><title>Node2&#45;&gt;Node3</title>
<path fill="none" stroke="midnightblue" d="M512.302,-304.403C487.814,-294.2 446.786,-277.105 418.824,-265.454"/>
<polygon fill="midnightblue" stroke="midnightblue" points="420.104,-262.196 409.527,-261.581 417.411,-268.658 420.104,-262.196"/>
</g>
<!-- Node12 -->
<g id="node12" class="node"><title>Node12</title>
<g id="a_node12"><a xlink:href="mix__defs_8h.html" target="_top" xlink:title="cantera/thermo/mix\l_defs.h">
<polygon fill="white" stroke="black" points="482.933,-237 482.933,-267 582.933,-267 582.933,-237 482.933,-237"/>
<text text-anchor="start" x="490.933" y="-255" font-family="FreeSans" font-size="10.00">cantera/thermo/mix</text>
<text text-anchor="middle" x="532.933" y="-244" font-family="FreeSans" font-size="10.00">_defs.h</text>
</a>
</g>
</g>
<!-- Node2&#45;&gt;Node12 -->
<g id="edge15" class="edge"><title>Node2&#45;&gt;Node12</title>
<path fill="none" stroke="midnightblue" d="M532.933,-304.403C532.933,-297.341 532.933,-286.975 532.933,-277.399"/>
<polygon fill="midnightblue" stroke="midnightblue" points="536.433,-277.141 532.933,-267.141 529.433,-277.141 536.433,-277.141"/>
</g>
<!-- Node4 -->
<g id="node4" class="node"><title>Node4</title>
<g id="a_node4"><a xlink:href="Phase_8h.html" target="_top" xlink:title="Header file for class Phase. ">
<polygon fill="white" stroke="black" points="205.433,-174.5 205.433,-193.5 256.433,-193.5 256.433,-174.5 205.433,-174.5"/>
<text text-anchor="middle" x="230.933" y="-181.5" font-family="FreeSans" font-size="10.00">Phase.h</text>
</a>
</g>
</g>
<!-- Node3&#45;&gt;Node4 -->
<g id="edge3" class="edge"><title>Node3&#45;&gt;Node4</title>
<path fill="none" stroke="midnightblue" d="M368.278,-242.372C340.954,-230.958 292.592,-210.756 261.157,-197.625"/>
<polygon fill="midnightblue" stroke="midnightblue" points="262.17,-194.255 251.594,-193.63 259.472,-200.715 262.17,-194.255"/>
</g>
<!-- Node11 -->
<g id="node11" class="node"><title>Node11</title>
<g id="a_node11"><a xlink:href="SpeciesThermo_8h.html" target="_top" xlink:title="Virtual base class for the calculation of multiple&#45;species thermodynamic reference&#45;state property man...">
<polygon fill="white" stroke="black" points="346.933,-174.5 346.933,-193.5 438.933,-193.5 438.933,-174.5 346.933,-174.5"/>
<text text-anchor="middle" x="392.933" y="-181.5" font-family="FreeSans" font-size="10.00">SpeciesThermo.h</text>
</a>
</g>
</g>
<!-- Node3&#45;&gt;Node11 -->
<g id="edge13" class="edge"><title>Node3&#45;&gt;Node11</title>
<path fill="none" stroke="midnightblue" d="M389.456,-242.372C390.046,-232.643 391.022,-216.528 391.791,-203.85"/>
<polygon fill="midnightblue" stroke="midnightblue" points="395.286,-204.035 392.397,-193.841 388.299,-203.611 395.286,-204.035"/>
</g>
<!-- Node5 -->
<g id="node5" class="node"><title>Node5</title>
<g id="a_node5"><a xlink:href="ctexceptions_8h.html" target="_top" xlink:title="Definitions for the classes that are thrown when Cantera experiences an error condition (also contain...">
<polygon fill="white" stroke="red" points="110.433,-56.5 110.433,-75.5 247.433,-75.5 247.433,-56.5 110.433,-56.5"/>
<text text-anchor="middle" x="178.933" y="-63.5" font-family="FreeSans" font-size="10.00">cantera/base/ctexceptions.h</text>
</a>
</g>
</g>
<!-- Node4&#45;&gt;Node5 -->
<g id="edge4" class="edge"><title>Node4&#45;&gt;Node5</title>
<path fill="none" stroke="midnightblue" d="M205.15,-181.032C151.833,-176.371 32.3789,-162.667 7.93326,-132 -21.822,-94.6715 42.31,-78.7695 100.339,-72.0016"/>
<polygon fill="midnightblue" stroke="midnightblue" points="100.766,-75.4759 110.329,-70.9163 100.01,-68.5168 100.766,-75.4759"/>
</g>
<!-- Node7 -->
<g id="node7" class="node"><title>Node7</title>
<g id="a_node7"><a xlink:href="Elements_8h.html" target="_top" xlink:title="Contains the LookupWtElements function and the definitions of element constraint types. ">
<polygon fill="white" stroke="black" points="16.9333,-112.5 16.9333,-131.5 148.933,-131.5 148.933,-112.5 16.9333,-112.5"/>
<text text-anchor="middle" x="82.9333" y="-119.5" font-family="FreeSans" font-size="10.00">cantera/thermo/Elements.h</text>
</a>
</g>
</g>
<!-- Node4&#45;&gt;Node7 -->
<g id="edge6" class="edge"><title>Node4&#45;&gt;Node7</title>
<path fill="none" stroke="midnightblue" d="M209.728,-174.403C184.561,-164.2 142.393,-147.105 113.654,-135.454"/>
<polygon fill="midnightblue" stroke="midnightblue" points="114.681,-132.094 104.099,-131.581 112.051,-138.581 114.681,-132.094"/>
</g>
<!-- Node9 -->
<g id="node9" class="node"><title>Node9</title>
<g id="a_node9"><a xlink:href="Species_8h.html" target="_top" xlink:title="Declaration for class Cantera::Species. ">
<polygon fill="white" stroke="black" points="167.433,-112.5 167.433,-131.5 294.433,-131.5 294.433,-112.5 167.433,-112.5"/>
<text text-anchor="middle" x="230.933" y="-119.5" font-family="FreeSans" font-size="10.00">cantera/thermo/Species.h</text>
</a>
</g>
</g>
<!-- Node4&#45;&gt;Node9 -->
<g id="edge9" class="edge"><title>Node4&#45;&gt;Node9</title>
<path fill="none" stroke="midnightblue" d="M230.933,-174.403C230.933,-165.938 230.933,-152.728 230.933,-141.82"/>
<polygon fill="midnightblue" stroke="midnightblue" points="234.433,-141.581 230.933,-131.581 227.433,-141.581 234.433,-141.581"/>
</g>
<!-- Node10 -->
<g id="node10" class="node"><title>Node10</title>
<g id="a_node10"><a xlink:href="ValueCache_8h.html" target="_top" xlink:title="cantera/base/ValueCache.h">
<polygon fill="white" stroke="red" points="312.933,-112.5 312.933,-131.5 446.933,-131.5 446.933,-112.5 312.933,-112.5"/>
<text text-anchor="middle" x="379.933" y="-119.5" font-family="FreeSans" font-size="10.00">cantera/base/ValueCache.h</text>
</a>
</g>
</g>
<!-- Node4&#45;&gt;Node10 -->
<g id="edge11" class="edge"><title>Node4&#45;&gt;Node10</title>
<path fill="none" stroke="midnightblue" d="M252.281,-174.403C277.619,-164.2 320.071,-147.105 349.005,-135.454"/>
<polygon fill="midnightblue" stroke="midnightblue" points="350.656,-138.563 358.625,-131.581 348.041,-132.069 350.656,-138.563"/>
</g>
<!-- Node6 -->
<g id="node6" class="node"><title>Node6</title>
<polygon fill="white" stroke="#bfbfbf" points="473.933,-0.5 473.933,-19.5 513.933,-19.5 513.933,-0.5 473.933,-0.5"/>
<text text-anchor="middle" x="493.933" y="-7.5" font-family="FreeSans" font-size="10.00">string</text>
</g>
<!-- Node5&#45;&gt;Node6 -->
<g id="edge5" class="edge"><title>Node5&#45;&gt;Node6</title>
<path fill="none" stroke="midnightblue" d="M228.846,-56.4435C294.877,-45.124 409.234,-25.5199 463.573,-16.2047"/>
<polygon fill="midnightblue" stroke="midnightblue" points="464.343,-19.6237 473.608,-14.4843 463.16,-12.7244 464.343,-19.6237"/>
</g>
<!-- Node8 -->
<g id="node8" class="node"><title>Node8</title>
<g id="a_node8"><a xlink:href="ct__defs_8h.html" target="_top" xlink:title="This file contains definitions of terms that are used in internal routines and are unlikely to need m...">
<polygon fill="white" stroke="red" points="436.933,-56.5 436.933,-75.5 550.933,-75.5 550.933,-56.5 436.933,-56.5"/>
<text text-anchor="middle" x="493.933" y="-63.5" font-family="FreeSans" font-size="10.00">cantera/base/ct_defs.h</text>
</a>
</g>
</g>
<!-- Node7&#45;&gt;Node8 -->
<g id="edge7" class="edge"><title>Node7&#45;&gt;Node8</title>
<path fill="none" stroke="midnightblue" d="M148.057,-112.444C224.201,-102.439 349.596,-85.964 426.654,-75.8396"/>
<polygon fill="midnightblue" stroke="midnightblue" points="427.273,-79.2884 436.732,-74.5155 426.362,-72.348 427.273,-79.2884"/>
</g>
<!-- Node8&#45;&gt;Node6 -->
<g id="edge8" class="edge"><title>Node8&#45;&gt;Node6</title>
<path fill="none" stroke="midnightblue" d="M493.933,-56.083C493.933,-49.0059 493.933,-38.8611 493.933,-29.9865"/>
<polygon fill="midnightblue" stroke="midnightblue" points="497.433,-29.751 493.933,-19.7511 490.433,-29.7511 497.433,-29.751"/>
</g>
<!-- Node9&#45;&gt;Node8 -->
<g id="edge10" class="edge"><title>Node9&#45;&gt;Node8</title>
<path fill="none" stroke="midnightblue" d="M272.606,-112.444C318.678,-102.984 392.93,-87.7384 442.564,-77.5472"/>
<polygon fill="midnightblue" stroke="midnightblue" points="443.363,-80.9563 452.455,-75.5164 441.955,-74.0993 443.363,-80.9563"/>
</g>
<!-- Node10&#45;&gt;Node8 -->
<g id="edge12" class="edge"><title>Node10&#45;&gt;Node8</title>
<path fill="none" stroke="midnightblue" d="M397.997,-112.444C416.508,-103.675 445.514,-89.9355 466.789,-79.8579"/>
<polygon fill="midnightblue" stroke="midnightblue" points="468.415,-82.9604 475.954,-75.5164 465.418,-76.6343 468.415,-82.9604"/>
</g>
<!-- Node11&#45;&gt;Node8 -->
<g id="edge14" class="edge"><title>Node11&#45;&gt;Node8</title>
<path fill="none" stroke="midnightblue" d="M406.17,-174.416C419.797,-165.123 441.079,-149.293 455.933,-132 468.286,-117.619 478.838,-98.6702 485.666,-84.9451"/>
<polygon fill="midnightblue" stroke="midnightblue" points="488.965,-86.1605 490.129,-75.6298 482.652,-83.1359 488.965,-86.1605"/>
</g>
<!-- Node14 -->
<g id="node14" class="node"><title>Node14</title>
<g id="a_node14"><a xlink:href="reaction__defs_8h.html" target="_top" xlink:title="This file defines some constants used to specify reaction types. ">
<polygon fill="white" stroke="black" points="463.933,-169 463.933,-199 585.933,-199 585.933,-169 463.933,-169"/>
<text text-anchor="start" x="471.933" y="-187" font-family="FreeSans" font-size="10.00">cantera/kinetics/reaction</text>
<text text-anchor="middle" x="524.933" y="-176" font-family="FreeSans" font-size="10.00">_defs.h</text>
</a>
</g>
</g>
<!-- Node13&#45;&gt;Node14 -->
<g id="edge17" class="edge"><title>Node13&#45;&gt;Node14</title>
<path fill="none" stroke="midnightblue" d="M634.114,-236.841C613.593,-227.098 586.131,-214.058 563.883,-203.494"/>
<polygon fill="midnightblue" stroke="midnightblue" points="565.238,-200.263 554.703,-199.135 562.235,-206.586 565.238,-200.263"/>
</g>
<!-- Node15 -->
<g id="node15" class="node"><title>Node15</title>
<g id="a_node15"><a xlink:href="utilities_8h.html" target="_top" xlink:title="Various templated functions that carry out common vector operations (see Templated Utility Functions)...">
<polygon fill="white" stroke="black" points="607.433,-174.5 607.433,-193.5 720.433,-193.5 720.433,-174.5 607.433,-174.5"/>
<text text-anchor="middle" x="663.933" y="-181.5" font-family="FreeSans" font-size="10.00">cantera/base/utilities.h</text>
</a>
</g>
</g>
<!-- Node13&#45;&gt;Node15 -->
<g id="edge19" class="edge"><title>Node13&#45;&gt;Node15</title>
<path fill="none" stroke="midnightblue" d="M663.933,-236.679C663.933,-227.101 663.933,-214.394 663.933,-203.977"/>
<polygon fill="midnightblue" stroke="midnightblue" points="667.433,-203.828 663.933,-193.828 660.433,-203.828 667.433,-203.828"/>
</g>
<!-- Node14&#45;&gt;Node8 -->
<g id="edge18" class="edge"><title>Node14&#45;&gt;Node8</title>
<path fill="none" stroke="midnightblue" d="M521.132,-168.776C515.547,-147.876 505.116,-108.844 498.921,-85.6638"/>
<polygon fill="midnightblue" stroke="midnightblue" points="502.223,-84.4643 496.26,-75.707 495.461,-86.2716 502.223,-84.4643"/>
</g>
<!-- Node15&#45;&gt;Node8 -->
<g id="edge20" class="edge"><title>Node15&#45;&gt;Node8</title>
<path fill="none" stroke="midnightblue" d="M645.604,-174.487C626.161,-165.134 594.871,-149.146 569.933,-132 547.964,-116.895 525.004,-96.5227 510.148,-82.6378"/>
<polygon fill="midnightblue" stroke="midnightblue" points="512.454,-80.0007 502.786,-75.666 507.64,-85.0834 512.454,-80.0007"/>
</g>
<!-- Node16 -->
<g id="node16" class="node"><title>Node16</title>
<g id="a_node16"><a xlink:href="global_8h.html" target="_top" xlink:title="This file contains definitions for utility functions and text for modules, inputfiles, logs, textlogs, (see Input File Handling, Diagnostic Output, and Writing messages to the screen). ">
<polygon fill="white" stroke="black" points="578.933,-112.5 578.933,-131.5 628.933,-131.5 628.933,-112.5 578.933,-112.5"/>
<text text-anchor="middle" x="603.933" y="-119.5" font-family="FreeSans" font-size="10.00">global.h</text>
</a>
</g>
</g>
<!-- Node15&#45;&gt;Node16 -->
<g id="edge21" class="edge"><title>Node15&#45;&gt;Node16</title>
<path fill="none" stroke="midnightblue" d="M655.337,-174.403C646.069,-165.136 631.116,-150.183 619.721,-138.788"/>
<polygon fill="midnightblue" stroke="midnightblue" points="622.06,-136.177 612.514,-131.581 617.11,-141.127 622.06,-136.177"/>
</g>
<!-- Node17 -->
<g id="node17" class="node"><title>Node17</title>
<polygon fill="white" stroke="#bfbfbf" points="646.933,-112.5 646.933,-131.5 704.933,-131.5 704.933,-112.5 646.933,-112.5"/>
<text text-anchor="middle" x="675.933" y="-119.5" font-family="FreeSans" font-size="10.00">stdexcept</text>
</g>
<!-- Node15&#45;&gt;Node17 -->
<g id="edge23" class="edge"><title>Node15&#45;&gt;Node17</title>
<path fill="none" stroke="midnightblue" d="M665.653,-174.403C667.363,-165.849 670.043,-152.45 672.238,-141.476"/>
<polygon fill="midnightblue" stroke="midnightblue" points="675.688,-142.073 674.217,-131.581 668.824,-140.7 675.688,-142.073"/>
</g>
<!-- Node18 -->
<g id="node18" class="node"><title>Node18</title>
<polygon fill="white" stroke="#bfbfbf" points="723.433,-112.5 723.433,-131.5 774.433,-131.5 774.433,-112.5 723.433,-112.5"/>
<text text-anchor="middle" x="748.933" y="-119.5" font-family="FreeSans" font-size="10.00">numeric</text>
</g>
<!-- Node15&#45;&gt;Node18 -->
<g id="edge24" class="edge"><title>Node15&#45;&gt;Node18</title>
<path fill="none" stroke="midnightblue" d="M676.112,-174.403C689.745,-164.78 712.066,-149.024 728.407,-137.489"/>
<polygon fill="midnightblue" stroke="midnightblue" points="730.626,-140.207 736.777,-131.581 726.589,-134.488 730.626,-140.207"/>
</g>
<!-- Node16&#45;&gt;Node8 -->
<g id="edge22" class="edge"><title>Node16&#45;&gt;Node8</title>
<path fill="none" stroke="midnightblue" d="M586.26,-112.324C568.539,-103.625 541.03,-90.1202 520.645,-80.113"/>
<polygon fill="midnightblue" stroke="midnightblue" points="522.082,-76.9195 511.563,-75.6545 518.997,-83.2031 522.082,-76.9195"/>
</g>
<!-- Node19&#45;&gt;Node6 -->
<g id="edge27" class="edge"><title>Node19&#45;&gt;Node6</title>
<path fill="none" stroke="midnightblue" d="M826.907,-112.46C760.254,-92.1502 592.735,-41.1059 524.038,-20.1732"/>
<polygon fill="midnightblue" stroke="midnightblue" points="524.853,-16.7627 514.267,-17.1958 522.812,-23.4587 524.853,-16.7627"/>
</g>
<!-- Node19&#45;&gt;Node8 -->
<g id="edge26" class="edge"><title>Node19&#45;&gt;Node8</title>
<path fill="none" stroke="midnightblue" d="M797.732,-112.444C733.436,-102.826 629.158,-87.2275 561.058,-77.0409"/>
<polygon fill="midnightblue" stroke="midnightblue" points="561.275,-73.5344 550.867,-75.5164 560.239,-80.4574 561.275,-73.5344"/>
</g>
</g>
</svg>
