<?xml version="1.0" encoding="UTF-8" standalone="no"?>
<!DOCTYPE svg PUBLIC "-//W3C//DTD SVG 1.1//EN"
 "http://www.w3.org/Graphics/SVG/1.1/DTD/svg11.dtd">
<!-- Generated by graphviz version 2.36.0 (20140111.2315)
 -->
<!-- Title: KineticsFactory.cpp Pages: 1 -->
<svg width="1126pt" height="412pt"
 viewBox="0.00 0.00 1126.00 412.00" xmlns="http://www.w3.org/2000/svg" xmlns:xlink="http://www.w3.org/1999/xlink">
<g id="graph0" class="graph" transform="scale(1 1) rotate(0) translate(4 408)">
<title>KineticsFactory.cpp</title>
<polygon fill="white" stroke="none" points="-4,4 -4,-408 1122,-408 1122,4 -4,4"/>
<!-- Node1 -->
<g id="node1" class="node"><title>Node1</title>
<polygon fill="#bfbfbf" stroke="black" points="330.5,-384.5 330.5,-403.5 431.5,-403.5 431.5,-384.5 330.5,-384.5"/>
<text text-anchor="middle" x="381" y="-391.5" font-family="FreeSans" font-size="10.00">KineticsFactory.cpp</text>
</g>
<!-- Node2 -->
<g id="node2" class="node"><title>Node2</title>
<g id="a_node2"><a xlink:href="KineticsFactory_8h.html" target="_top" xlink:title="cantera/kinetics/Kinetics\lFactory.h">
<polygon fill="white" stroke="black" points="758,-249 758,-279 880,-279 880,-249 758,-249"/>
<text text-anchor="start" x="766" y="-267" font-family="FreeSans" font-size="10.00">cantera/kinetics/Kinetics</text>
<text text-anchor="middle" x="819" y="-256" font-family="FreeSans" font-size="10.00">Factory.h</text>
</a>
</g>
</g>
<!-- Node1&#45;&gt;Node2 -->
<g id="edge1" class="edge"><title>Node1&#45;&gt;Node2</title>
<path fill="none" stroke="midnightblue" d="M431.798,-392.892C525.115,-391.78 719.294,-384.946 774,-348 794.38,-334.236 806.329,-308.096 812.728,-288.815"/>
<polygon fill="midnightblue" stroke="midnightblue" points="816.093,-289.781 815.658,-279.195 809.396,-287.742 816.093,-289.781"/>
</g>
<!-- Node20 -->
<g id="node20" class="node"><title>Node20</title>
<g id="a_node20"><a xlink:href="GasKinetics_8h.html" target="_top" xlink:title="cantera/kinetics/GasKinetics.h">
<polygon fill="white" stroke="black" points="618.5,-322.5 618.5,-341.5 765.5,-341.5 765.5,-322.5 618.5,-322.5"/>
<text text-anchor="middle" x="692" y="-329.5" font-family="FreeSans" font-size="10.00">cantera/kinetics/GasKinetics.h</text>
</a>
</g>
</g>
<!-- Node1&#45;&gt;Node20 -->
<g id="edge25" class="edge"><title>Node1&#45;&gt;Node20</title>
<path fill="none" stroke="midnightblue" d="M425.228,-384.467C481.189,-373.671 577.523,-355.086 637.834,-343.45"/>
<polygon fill="midnightblue" stroke="midnightblue" points="638.768,-346.834 647.924,-341.503 637.442,-339.961 638.768,-346.834"/>
</g>
<!-- Node27 -->
<g id="node27" class="node"><title>Node27</title>
<g id="a_node27"><a xlink:href="InterfaceKinetics_8h.html" target="_top" xlink:title="cantera/kinetics/Interface\lKinetics.h">
<polygon fill="white" stroke="black" points="318,-249 318,-279 444,-279 444,-249 318,-249"/>
<text text-anchor="start" x="326" y="-267" font-family="FreeSans" font-size="10.00">cantera/kinetics/Interface</text>
<text text-anchor="middle" x="381" y="-256" font-family="FreeSans" font-size="10.00">Kinetics.h</text>
</a>
</g>
</g>
<!-- Node1&#45;&gt;Node27 -->
<g id="edge40" class="edge"><title>Node1&#45;&gt;Node27</title>
<path fill="none" stroke="midnightblue" d="M347.201,-384.388C328.607,-377.735 307.11,-366.453 296,-348 288.664,-335.816 288.993,-328.376 296,-316 303.86,-302.118 317.172,-291.603 330.957,-283.836"/>
<polygon fill="midnightblue" stroke="midnightblue" points="332.772,-286.837 340.032,-279.121 329.545,-280.626 332.772,-286.837"/>
</g>
<!-- Node28 -->
<g id="node28" class="node"><title>Node28</title>
<g id="a_node28"><a xlink:href="EdgeKinetics_8h.html" target="_top" xlink:title="cantera/kinetics/EdgeKinetics.h">
<polygon fill="white" stroke="black" points="305,-322.5 305,-341.5 457,-341.5 457,-322.5 305,-322.5"/>
<text text-anchor="middle" x="381" y="-329.5" font-family="FreeSans" font-size="10.00">cantera/kinetics/EdgeKinetics.h</text>
</a>
</g>
</g>
<!-- Node1&#45;&gt;Node28 -->
<g id="edge46" class="edge"><title>Node1&#45;&gt;Node28</title>
<path fill="none" stroke="midnightblue" d="M381,-384.403C381,-375.938 381,-362.728 381,-351.82"/>
<polygon fill="midnightblue" stroke="midnightblue" points="384.5,-351.581 381,-341.581 377.5,-351.581 384.5,-351.581"/>
</g>
<!-- Node29 -->
<g id="node29" class="node"><title>Node29</title>
<g id="a_node29"><a xlink:href="importKinetics_8h.html" target="_top" xlink:title="Definitions of global routines for the importing of data from XML files (see Input File Handling)...">
<polygon fill="white" stroke="black" points="91.5,-322.5 91.5,-341.5 248.5,-341.5 248.5,-322.5 91.5,-322.5"/>
<text text-anchor="middle" x="170" y="-329.5" font-family="FreeSans" font-size="10.00">cantera/kinetics/importKinetics.h</text>
</a>
</g>
</g>
<!-- Node1&#45;&gt;Node29 -->
<g id="edge48" class="edge"><title>Node1&#45;&gt;Node29</title>
<path fill="none" stroke="midnightblue" d="M350.769,-384.403C313.713,-373.866 250.807,-355.978 209.836,-344.328"/>
<polygon fill="midnightblue" stroke="midnightblue" points="210.751,-340.949 200.175,-341.581 208.836,-347.682 210.751,-340.949"/>
</g>
<!-- Node30 -->
<g id="node30" class="node"><title>Node30</title>
<g id="a_node30"><a xlink:href="AqueousKinetics_8h.html" target="_top" xlink:title="cantera/kinetics/Aqueous\lKinetics.h">
<polygon fill="white" stroke="black" points="475.5,-317 475.5,-347 600.5,-347 600.5,-317 475.5,-317"/>
<text text-anchor="start" x="483.5" y="-335" font-family="FreeSans" font-size="10.00">cantera/kinetics/Aqueous</text>
<text text-anchor="middle" x="538" y="-324" font-family="FreeSans" font-size="10.00">Kinetics.h</text>
</a>
</g>
</g>
<!-- Node1&#45;&gt;Node30 -->
<g id="edge50" class="edge"><title>Node1&#45;&gt;Node30</title>
<path fill="none" stroke="midnightblue" d="M403.494,-384.403C426.424,-375.641 462.655,-361.794 491.74,-350.679"/>
<polygon fill="midnightblue" stroke="midnightblue" points="493.209,-353.865 501.3,-347.025 490.71,-347.326 493.209,-353.865"/>
</g>
<!-- Node31 -->
<g id="node31" class="node"><title>Node31</title>
<g id="a_node31"><a xlink:href="xml_8h.html" target="_top" xlink:title="Classes providing support for XML data files. ">
<polygon fill="white" stroke="black" points="0,-68.5 0,-87.5 98,-87.5 98,-68.5 0,-68.5"/>
<text text-anchor="middle" x="49" y="-75.5" font-family="FreeSans" font-size="10.00">cantera/base/xml.h</text>
</a>
</g>
</g>
<!-- Node1&#45;&gt;Node31 -->
<g id="edge52" class="edge"><title>Node1&#45;&gt;Node31</title>
<path fill="none" stroke="midnightblue" d="M330.227,-389.882C256.248,-384.586 123.153,-371.997 82,-348 41.5239,-324.398 17,-311.855 17,-265 17,-265 17,-265 17,-201 17,-163.022 31.6878,-120.507 41.1617,-97.0331"/>
<polygon fill="midnightblue" stroke="midnightblue" points="44.4469,-98.2489 45.0762,-87.6728 37.9889,-95.5481 44.4469,-98.2489"/>
</g>
<!-- Node3 -->
<g id="node3" class="node"><title>Node3</title>
<g id="a_node3"><a xlink:href="Kinetics_8h.html" target="_top" xlink:title="Base class for kinetics managers and also contains the kineticsmgr module documentation (see Kinetics...">
<polygon fill="white" stroke="black" points="322.5,-192.5 322.5,-211.5 381.5,-211.5 381.5,-192.5 322.5,-192.5"/>
<text text-anchor="middle" x="352" y="-199.5" font-family="FreeSans" font-size="10.00">Kinetics.h</text>
</a>
</g>
</g>
<!-- Node2&#45;&gt;Node3 -->
<g id="edge2" class="edge"><title>Node2&#45;&gt;Node3</title>
<path fill="none" stroke="midnightblue" d="M757.948,-255.156C660.818,-242.677 473.739,-218.641 391.934,-208.131"/>
<polygon fill="midnightblue" stroke="midnightblue" points="391.935,-204.602 381.57,-206.799 391.042,-211.545 391.935,-204.602"/>
</g>
<!-- Node17 -->
<g id="node17" class="node"><title>Node17</title>
<g id="a_node17"><a xlink:href="FactoryBase_8h.html" target="_top" xlink:title="File contains the FactoryBase class declarations. ">
<polygon fill="white" stroke="black" points="981.5,-68.5 981.5,-87.5 1118.5,-87.5 1118.5,-68.5 981.5,-68.5"/>
<text text-anchor="middle" x="1050" y="-75.5" font-family="FreeSans" font-size="10.00">cantera/base/FactoryBase.h</text>
</a>
</g>
</g>
<!-- Node2&#45;&gt;Node17 -->
<g id="edge22" class="edge"><title>Node2&#45;&gt;Node17</title>
<path fill="none" stroke="midnightblue" d="M836.743,-248.867C879.431,-214.865 987.561,-128.735 1031.25,-93.9317"/>
<polygon fill="midnightblue" stroke="midnightblue" points="1033.45,-96.6541 1039.1,-87.686 1029.09,-91.1787 1033.45,-96.6541"/>
</g>
<!-- Node4 -->
<g id="node4" class="node"><title>Node4</title>
<g id="a_node4"><a xlink:href="ThermoPhase_8h.html" target="_top" xlink:title="Header file for class ThermoPhase, the base class for phases with thermodynamic properties, and the text for the Module thermoprops (see Thermodynamic Properties and class ThermoPhase). ">
<polygon fill="white" stroke="black" points="163,-130.5 163,-149.5 315,-149.5 315,-130.5 163,-130.5"/>
<text text-anchor="middle" x="239" y="-137.5" font-family="FreeSans" font-size="10.00">cantera/thermo/ThermoPhase.h</text>
</a>
</g>
</g>
<!-- Node3&#45;&gt;Node4 -->
<g id="edge3" class="edge"><title>Node3&#45;&gt;Node4</title>
<path fill="none" stroke="midnightblue" d="M335.81,-192.403C317.098,-182.468 286.077,-165.997 264.201,-154.381"/>
<polygon fill="midnightblue" stroke="midnightblue" points="265.634,-151.179 255.16,-149.581 262.351,-157.362 265.634,-151.179"/>
</g>
<!-- Node8 -->
<g id="node8" class="node"><title>Node8</title>
<g id="a_node8"><a xlink:href="global_8h.html" target="_top" xlink:title="This file contains definitions for utility functions and text for modules, inputfiles, logs, textlogs, (see Input File Handling, Diagnostic Output, and Writing messages to the screen). ">
<polygon fill="white" stroke="red" points="289,-6.5 289,-25.5 397,-25.5 397,-6.5 289,-6.5"/>
<text text-anchor="middle" x="343" y="-13.5" font-family="FreeSans" font-size="10.00">cantera/base/global.h</text>
</a>
</g>
</g>
<!-- Node3&#45;&gt;Node8 -->
<g id="edge21" class="edge"><title>Node3&#45;&gt;Node8</title>
<path fill="none" stroke="midnightblue" d="M351.566,-192.125C350.179,-163.769 345.834,-74.9299 343.92,-35.8108"/>
<polygon fill="midnightblue" stroke="midnightblue" points="347.414,-35.6027 343.43,-25.7857 340.423,-35.9447 347.414,-35.6027"/>
</g>
<!-- Node9 -->
<g id="node9" class="node"><title>Node9</title>
<g id="a_node9"><a xlink:href="StoichManager_8h.html" target="_top" xlink:title="StoichManager.h">
<polygon fill="white" stroke="black" points="371.5,-68.5 371.5,-87.5 460.5,-87.5 460.5,-68.5 371.5,-68.5"/>
<text text-anchor="middle" x="416" y="-75.5" font-family="FreeSans" font-size="10.00">StoichManager.h</text>
</a>
</g>
</g>
<!-- Node3&#45;&gt;Node9 -->
<g id="edge8" class="edge"><title>Node3&#45;&gt;Node9</title>
<path fill="none" stroke="midnightblue" d="M356.603,-192.226C367.074,-172.266 392.843,-123.144 406.747,-96.6378"/>
<polygon fill="midnightblue" stroke="midnightblue" points="409.893,-98.1759 411.439,-87.6944 403.694,-94.924 409.893,-98.1759"/>
</g>
<!-- Node11 -->
<g id="node11" class="node"><title>Node11</title>
<g id="a_node11"><a xlink:href="mix__defs_8h.html" target="_top" xlink:title="cantera/thermo/mix\l_defs.h">
<polygon fill="white" stroke="black" points="45,-125 45,-155 145,-155 145,-125 45,-125"/>
<text text-anchor="start" x="53" y="-143" font-family="FreeSans" font-size="10.00">cantera/thermo/mix</text>
<text text-anchor="middle" x="95" y="-132" font-family="FreeSans" font-size="10.00">_defs.h</text>
</a>
</g>
</g>
<!-- Node3&#45;&gt;Node11 -->
<g id="edge11" class="edge"><title>Node3&#45;&gt;Node11</title>
<path fill="none" stroke="midnightblue" d="M322.425,-194.525C285.567,-186.402 220.4,-171.864 155.224,-156.263"/>
<polygon fill="midnightblue" stroke="midnightblue" points="155.731,-152.786 145.19,-153.853 154.096,-159.592 155.731,-152.786"/>
</g>
<!-- Node12 -->
<g id="node12" class="node"><title>Node12</title>
<g id="a_node12"><a xlink:href="Reaction_8h.html" target="_top" xlink:title="cantera/kinetics/Reaction.h">
<polygon fill="white" stroke="black" points="575,-130.5 575,-149.5 709,-149.5 709,-130.5 575,-130.5"/>
<text text-anchor="middle" x="642" y="-137.5" font-family="FreeSans" font-size="10.00">cantera/kinetics/Reaction.h</text>
</a>
</g>
</g>
<!-- Node3&#45;&gt;Node12 -->
<g id="edge12" class="edge"><title>Node3&#45;&gt;Node12</title>
<path fill="none" stroke="midnightblue" d="M381.672,-194.861C430.799,-184.697 529.63,-164.249 590.387,-151.679"/>
<polygon fill="midnightblue" stroke="midnightblue" points="591.449,-155.033 600.532,-149.58 590.03,-148.178 591.449,-155.033"/>
</g>
<!-- Node5 -->
<g id="node5" class="node"><title>Node5</title>
<g id="a_node5"><a xlink:href="Phase_8h.html" target="_top" xlink:title="Header file for class Phase. ">
<polygon fill="white" stroke="red" points="115.5,-68.5 115.5,-87.5 166.5,-87.5 166.5,-68.5 115.5,-68.5"/>
<text text-anchor="middle" x="141" y="-75.5" font-family="FreeSans" font-size="10.00">Phase.h</text>
</a>
</g>
</g>
<!-- Node4&#45;&gt;Node5 -->
<g id="edge4" class="edge"><title>Node4&#45;&gt;Node5</title>
<path fill="none" stroke="midnightblue" d="M224.959,-130.403C208.949,-120.601 182.55,-104.439 163.626,-92.8526"/>
<polygon fill="midnightblue" stroke="midnightblue" points="165.371,-89.8172 155.015,-87.5806 161.716,-95.7872 165.371,-89.8172"/>
</g>
<!-- Node7 -->
<g id="node7" class="node"><title>Node7</title>
<g id="a_node7"><a xlink:href="SpeciesThermo_8h.html" target="_top" xlink:title="Virtual base class for the calculation of multiple&#45;species thermodynamic reference&#45;state property man...">
<polygon fill="white" stroke="red" points="185,-68.5 185,-87.5 277,-87.5 277,-68.5 185,-68.5"/>
<text text-anchor="middle" x="231" y="-75.5" font-family="FreeSans" font-size="10.00">SpeciesThermo.h</text>
</a>
</g>
</g>
<!-- Node4&#45;&gt;Node7 -->
<g id="edge6" class="edge"><title>Node4&#45;&gt;Node7</title>
<path fill="none" stroke="midnightblue" d="M237.854,-130.403C236.725,-121.938 234.964,-108.728 233.509,-97.8199"/>
<polygon fill="midnightblue" stroke="midnightblue" points="236.935,-97.0303 232.144,-87.5806 229.997,-97.9555 236.935,-97.0303"/>
</g>
<!-- Node4&#45;&gt;Node8 -->
<g id="edge7" class="edge"><title>Node4&#45;&gt;Node8</title>
<path fill="none" stroke="midnightblue" d="M247.166,-130.5C256.688,-120.506 272.806,-103.333 286,-88 301.539,-69.9407 318.538,-48.536 329.892,-33.9848"/>
<polygon fill="midnightblue" stroke="midnightblue" points="332.8,-35.9465 336.169,-25.9014 327.271,-31.6535 332.8,-35.9465"/>
</g>
<!-- Node6 -->
<g id="node6" class="node"><title>Node6</title>
<g id="a_node6"><a xlink:href="ctexceptions_8h.html" target="_top" xlink:title="Definitions for the classes that are thrown when Cantera experiences an error condition (also contain...">
<polygon fill="white" stroke="red" points="103.5,-6.5 103.5,-25.5 240.5,-25.5 240.5,-6.5 103.5,-6.5"/>
<text text-anchor="middle" x="172" y="-13.5" font-family="FreeSans" font-size="10.00">cantera/base/ctexceptions.h</text>
</a>
</g>
</g>
<!-- Node5&#45;&gt;Node6 -->
<g id="edge5" class="edge"><title>Node5&#45;&gt;Node6</title>
<path fill="none" stroke="midnightblue" d="M145.442,-68.4035C149.953,-59.6707 157.074,-45.8893 162.807,-34.7936"/>
<polygon fill="midnightblue" stroke="midnightblue" points="166.086,-36.0714 167.567,-25.5806 159.867,-32.8583 166.086,-36.0714"/>
</g>
<!-- Node9&#45;&gt;Node6 -->
<g id="edge10" class="edge"><title>Node9&#45;&gt;Node6</title>
<path fill="none" stroke="midnightblue" d="M381.3,-68.4672C338.03,-57.8272 263.994,-39.6215 216.568,-27.9593"/>
<polygon fill="midnightblue" stroke="midnightblue" points="217.127,-24.4926 206.58,-25.5034 215.455,-31.2901 217.127,-24.4926"/>
</g>
<!-- Node10 -->
<g id="node10" class="node"><title>Node10</title>
<g id="a_node10"><a xlink:href="stringUtils_8h.html" target="_top" xlink:title="Contains declarations for string manipulation functions within Cantera. ">
<polygon fill="white" stroke="red" points="515.5,-6.5 515.5,-25.5 640.5,-25.5 640.5,-6.5 515.5,-6.5"/>
<text text-anchor="middle" x="578" y="-13.5" font-family="FreeSans" font-size="10.00">cantera/base/stringUtils.h</text>
</a>
</g>
</g>
<!-- Node9&#45;&gt;Node10 -->
<g id="edge9" class="edge"><title>Node9&#45;&gt;Node10</title>
<path fill="none" stroke="midnightblue" d="M439.211,-68.4035C466.999,-58.1113 513.723,-40.8064 545.194,-29.1504"/>
<polygon fill="midnightblue" stroke="midnightblue" points="546.671,-32.3359 554.832,-25.5806 544.239,-25.7717 546.671,-32.3359"/>
</g>
<!-- Node13 -->
<g id="node13" class="node"><title>Node13</title>
<g id="a_node13"><a xlink:href="utilities_8h.html" target="_top" xlink:title="Various templated functions that carry out common vector operations (see Templated Utility Functions)...">
<polygon fill="white" stroke="red" points="478.5,-68.5 478.5,-87.5 591.5,-87.5 591.5,-68.5 478.5,-68.5"/>
<text text-anchor="middle" x="535" y="-75.5" font-family="FreeSans" font-size="10.00">cantera/base/utilities.h</text>
</a>
</g>
</g>
<!-- Node12&#45;&gt;Node13 -->
<g id="edge13" class="edge"><title>Node12&#45;&gt;Node13</title>
<path fill="none" stroke="midnightblue" d="M626.67,-130.403C609.03,-120.512 579.84,-104.144 559.142,-92.5378"/>
<polygon fill="midnightblue" stroke="midnightblue" points="560.736,-89.4188 550.302,-87.5806 557.312,-95.5244 560.736,-89.4188"/>
</g>
<!-- Node14 -->
<g id="node14" class="node"><title>Node14</title>
<g id="a_node14"><a xlink:href="RxnRates_8h.html" target="_top" xlink:title="cantera/kinetics/RxnRates.h">
<polygon fill="white" stroke="red" points="609.5,-68.5 609.5,-87.5 746.5,-87.5 746.5,-68.5 609.5,-68.5"/>
<text text-anchor="middle" x="678" y="-75.5" font-family="FreeSans" font-size="10.00">cantera/kinetics/RxnRates.h</text>
</a>
</g>
</g>
<!-- Node12&#45;&gt;Node14 -->
<g id="edge15" class="edge"><title>Node12&#45;&gt;Node14</title>
<path fill="none" stroke="midnightblue" d="M647.158,-130.403C652.451,-121.582 660.835,-107.608 667.527,-96.4548"/>
<polygon fill="midnightblue" stroke="midnightblue" points="670.708,-97.9563 672.852,-87.5806 664.705,-94.3548 670.708,-97.9563"/>
</g>
<!-- Node16 -->
<g id="node16" class="node"><title>Node16</title>
<g id="a_node16"><a xlink:href="Falloff_8h_source.html" target="_top" xlink:title="cantera/kinetics/Falloff.h">
<polygon fill="white" stroke="black" points="803.5,-68.5 803.5,-87.5 924.5,-87.5 924.5,-68.5 803.5,-68.5"/>
<text text-anchor="middle" x="864" y="-75.5" font-family="FreeSans" font-size="10.00">cantera/kinetics/Falloff.h</text>
</a>
</g>
</g>
<!-- Node12&#45;&gt;Node16 -->
<g id="edge19" class="edge"><title>Node12&#45;&gt;Node16</title>
<path fill="none" stroke="midnightblue" d="M673.807,-130.403C712.877,-119.844 779.26,-101.903 822.361,-90.2538"/>
<polygon fill="midnightblue" stroke="midnightblue" points="823.511,-93.5685 832.252,-87.5806 821.685,-86.811 823.511,-93.5685"/>
</g>
<!-- Node13&#45;&gt;Node8 -->
<g id="edge14" class="edge"><title>Node13&#45;&gt;Node8</title>
<path fill="none" stroke="midnightblue" d="M507.491,-68.4035C474.129,-57.9777 417.738,-40.3557 380.437,-28.6992"/>
<polygon fill="midnightblue" stroke="midnightblue" points="381.047,-25.2227 370.458,-25.5806 378.959,-31.9041 381.047,-25.2227"/>
</g>
<!-- Node14&#45;&gt;Node6 -->
<g id="edge17" class="edge"><title>Node14&#45;&gt;Node6</title>
<path fill="none" stroke="midnightblue" d="M609.098,-69.039C606.023,-68.6871 602.98,-68.3395 600,-68 457.801,-51.7975 422.002,-49.8459 280,-32 267.551,-30.4355 254.308,-28.6756 241.518,-26.9264"/>
<polygon fill="midnightblue" stroke="midnightblue" points="241.765,-23.4274 231.381,-25.5297 240.81,-30.3619 241.765,-23.4274"/>
</g>
<!-- Node14&#45;&gt;Node10 -->
<g id="edge18" class="edge"><title>Node14&#45;&gt;Node10</title>
<path fill="none" stroke="midnightblue" d="M663.672,-68.4035C647.336,-58.6014 620.398,-42.4385 601.088,-30.8526"/>
<polygon fill="midnightblue" stroke="midnightblue" points="602.677,-27.7244 592.301,-25.5806 599.075,-33.7268 602.677,-27.7244"/>
</g>
<!-- Node15 -->
<g id="node15" class="node"><title>Node15</title>
<g id="a_node15"><a xlink:href="reaction__defs_8h.html" target="_top" xlink:title="This file defines some constants used to specify reaction types. ">
<polygon fill="white" stroke="red" points="803,-1 803,-31 925,-31 925,-1 803,-1"/>
<text text-anchor="start" x="811" y="-19" font-family="FreeSans" font-size="10.00">cantera/kinetics/reaction</text>
<text text-anchor="middle" x="864" y="-8" font-family="FreeSans" font-size="10.00">_defs.h</text>
</a>
</g>
</g>
<!-- Node14&#45;&gt;Node15 -->
<g id="edge16" class="edge"><title>Node14&#45;&gt;Node15</title>
<path fill="none" stroke="midnightblue" d="M704.649,-68.4035C732.286,-59.4882 776.236,-45.311 810.986,-34.1014"/>
<polygon fill="midnightblue" stroke="midnightblue" points="812.079,-37.4264 820.522,-31.0253 809.93,-30.7644 812.079,-37.4264"/>
</g>
<!-- Node16&#45;&gt;Node15 -->
<g id="edge20" class="edge"><title>Node16&#45;&gt;Node15</title>
<path fill="none" stroke="midnightblue" d="M864,-68.4035C864,-61.3405 864,-50.975 864,-41.399"/>
<polygon fill="midnightblue" stroke="midnightblue" points="867.5,-41.1408 864,-31.1408 860.5,-41.1408 867.5,-41.1408"/>
</g>
<!-- Node18 -->
<g id="node18" class="node"><title>Node18</title>
<polygon fill="white" stroke="#bfbfbf" points="997.5,-6.5 997.5,-25.5 1040.5,-25.5 1040.5,-6.5 997.5,-6.5"/>
<text text-anchor="middle" x="1019" y="-13.5" font-family="FreeSans" font-size="10.00">vector</text>
</g>
<!-- Node17&#45;&gt;Node18 -->
<g id="edge23" class="edge"><title>Node17&#45;&gt;Node18</title>
<path fill="none" stroke="midnightblue" d="M1045.56,-68.4035C1041.05,-59.6707 1033.93,-45.8893 1028.19,-34.7936"/>
<polygon fill="midnightblue" stroke="midnightblue" points="1031.13,-32.8583 1023.43,-25.5806 1024.91,-36.0714 1031.13,-32.8583"/>
</g>
<!-- Node19 -->
<g id="node19" class="node"><title>Node19</title>
<polygon fill="white" stroke="#bfbfbf" points="1058.5,-6.5 1058.5,-25.5 1101.5,-25.5 1101.5,-6.5 1058.5,-6.5"/>
<text text-anchor="middle" x="1080" y="-13.5" font-family="FreeSans" font-size="10.00">mutex</text>
</g>
<!-- Node17&#45;&gt;Node19 -->
<g id="edge24" class="edge"><title>Node17&#45;&gt;Node19</title>
<path fill="none" stroke="midnightblue" d="M1054.3,-68.4035C1058.66,-59.6707 1065.56,-45.8893 1071.1,-34.7936"/>
<polygon fill="midnightblue" stroke="midnightblue" points="1074.37,-36.0901 1075.71,-25.5806 1068.11,-32.9596 1074.37,-36.0901"/>
</g>
<!-- Node20&#45;&gt;Node12 -->
<g id="edge39" class="edge"><title>Node20&#45;&gt;Node12</title>
<path fill="none" stroke="midnightblue" d="M691.904,-322.264C691.416,-299.926 688.541,-239.163 672,-192 667.767,-179.932 660.556,-167.539 654.265,-157.993"/>
<polygon fill="midnightblue" stroke="midnightblue" points="656.979,-155.762 648.424,-149.512 651.213,-159.733 656.979,-155.762"/>
</g>
<!-- Node21 -->
<g id="node21" class="node"><title>Node21</title>
<g id="a_node21"><a xlink:href="BulkKinetics_8h.html" target="_top" xlink:title="BulkKinetics.h">
<polygon fill="white" stroke="black" points="480,-254.5 480,-273.5 558,-273.5 558,-254.5 480,-254.5"/>
<text text-anchor="middle" x="519" y="-261.5" font-family="FreeSans" font-size="10.00">BulkKinetics.h</text>
</a>
</g>
</g>
<!-- Node20&#45;&gt;Node21 -->
<g id="edge26" class="edge"><title>Node20&#45;&gt;Node21</title>
<path fill="none" stroke="midnightblue" d="M669.383,-322.372C639.123,-310.827 585.297,-290.293 550.919,-277.177"/>
<polygon fill="midnightblue" stroke="midnightblue" points="551.939,-273.82 541.348,-273.526 549.444,-280.36 551.939,-273.82"/>
</g>
<!-- Node23 -->
<g id="node23" class="node"><title>Node23</title>
<g id="a_node23"><a xlink:href="ThirdBodyCalc_8h.html" target="_top" xlink:title="ThirdBodyCalc.h">
<polygon fill="white" stroke="black" points="576.5,-254.5 576.5,-273.5 663.5,-273.5 663.5,-254.5 576.5,-254.5"/>
<text text-anchor="middle" x="620" y="-261.5" font-family="FreeSans" font-size="10.00">ThirdBodyCalc.h</text>
</a>
</g>
</g>
<!-- Node20&#45;&gt;Node23 -->
<g id="edge30" class="edge"><title>Node20&#45;&gt;Node23</title>
<path fill="none" stroke="midnightblue" d="M682.587,-322.372C671.116,-311.856 651.508,-293.882 637.29,-280.85"/>
<polygon fill="midnightblue" stroke="midnightblue" points="639.381,-278.018 629.645,-273.841 634.651,-283.178 639.381,-278.018"/>
</g>
<!-- Node25 -->
<g id="node25" class="node"><title>Node25</title>
<g id="a_node25"><a xlink:href="FalloffMgr_8h.html" target="_top" xlink:title="FalloffMgr.h">
<polygon fill="white" stroke="black" points="786,-192.5 786,-211.5 852,-211.5 852,-192.5 786,-192.5"/>
<text text-anchor="middle" x="819" y="-199.5" font-family="FreeSans" font-size="10.00">FalloffMgr.h</text>
</a>
</g>
</g>
<!-- Node20&#45;&gt;Node25 -->
<g id="edge33" class="edge"><title>Node20&#45;&gt;Node25</title>
<path fill="none" stroke="midnightblue" d="M696.389,-322.413C704.892,-306.372 724.909,-271.368 749,-248 761.891,-235.495 778.769,-224.524 792.722,-216.545"/>
<polygon fill="midnightblue" stroke="midnightblue" points="794.766,-219.415 801.829,-211.518 791.383,-213.287 794.766,-219.415"/>
</g>
<!-- Node21&#45;&gt;Node3 -->
<g id="edge27" class="edge"><title>Node21&#45;&gt;Node3</title>
<path fill="none" stroke="midnightblue" d="M495.073,-254.403C466.303,-244.067 417.844,-226.656 385.398,-214.999"/>
<polygon fill="midnightblue" stroke="midnightblue" points="386.477,-211.668 375.883,-211.581 384.11,-218.256 386.477,-211.668"/>
</g>
<!-- Node22 -->
<g id="node22" class="node"><title>Node22</title>
<g id="a_node22"><a xlink:href="RateCoeffMgr_8h.html" target="_top" xlink:title="RateCoeffMgr.h">
<polygon fill="white" stroke="black" points="476.5,-192.5 476.5,-211.5 559.5,-211.5 559.5,-192.5 476.5,-192.5"/>
<text text-anchor="middle" x="518" y="-199.5" font-family="FreeSans" font-size="10.00">RateCoeffMgr.h</text>
</a>
</g>
</g>
<!-- Node21&#45;&gt;Node22 -->
<g id="edge28" class="edge"><title>Node21&#45;&gt;Node22</title>
<path fill="none" stroke="midnightblue" d="M518.857,-254.403C518.716,-245.938 518.495,-232.728 518.314,-221.82"/>
<polygon fill="midnightblue" stroke="midnightblue" points="521.809,-221.521 518.143,-211.581 514.81,-221.638 521.809,-221.521"/>
</g>
<!-- Node22&#45;&gt;Node14 -->
<g id="edge29" class="edge"><title>Node22&#45;&gt;Node14</title>
<path fill="none" stroke="midnightblue" d="M559.554,-197.639C612.229,-192.417 698.546,-180.317 718,-156 733.204,-136.995 713.286,-111.31 696.521,-94.9458"/>
<polygon fill="midnightblue" stroke="midnightblue" points="698.433,-91.9466 688.712,-87.7313 693.682,-97.0882 698.433,-91.9466"/>
</g>
<!-- Node23&#45;&gt;Node13 -->
<g id="edge31" class="edge"><title>Node23&#45;&gt;Node13</title>
<path fill="none" stroke="midnightblue" d="M615.263,-254.245C605.537,-236.138 582.818,-193.154 566,-156 557.019,-136.16 547.838,-112.91 541.824,-97.1909"/>
<polygon fill="midnightblue" stroke="midnightblue" points="545.023,-95.7567 538.207,-87.6457 538.477,-98.2371 545.023,-95.7567"/>
</g>
<!-- Node24 -->
<g id="node24" class="node"><title>Node24</title>
<polygon fill="white" stroke="#bfbfbf" points="616.5,-192.5 616.5,-211.5 663.5,-211.5 663.5,-192.5 616.5,-192.5"/>
<text text-anchor="middle" x="640" y="-199.5" font-family="FreeSans" font-size="10.00">cassert</text>
</g>
<!-- Node23&#45;&gt;Node24 -->
<g id="edge32" class="edge"><title>Node23&#45;&gt;Node24</title>
<path fill="none" stroke="midnightblue" d="M622.866,-254.403C625.747,-245.76 630.277,-232.17 633.955,-221.134"/>
<polygon fill="midnightblue" stroke="midnightblue" points="637.298,-222.174 637.14,-211.581 630.657,-219.961 637.298,-222.174"/>
</g>
<!-- Node25&#45;&gt;Node8 -->
<g id="edge38" class="edge"><title>Node25&#45;&gt;Node8</title>
<path fill="none" stroke="midnightblue" d="M817.719,-192.356C813.631,-168.117 798.502,-99.2364 755,-68 741.055,-57.9872 519.604,-34.624 407.283,-23.3325"/>
<polygon fill="midnightblue" stroke="midnightblue" points="407.392,-19.8259 397.093,-22.3111 406.694,-26.791 407.392,-19.8259"/>
</g>
<!-- Node25&#45;&gt;Node15 -->
<g id="edge34" class="edge"><title>Node25&#45;&gt;Node15</title>
<path fill="none" stroke="midnightblue" d="M852.423,-192.82C872.948,-186.15 898.238,-174.697 914,-156 934.226,-132.008 928.738,-119.089 933,-88 934.207,-79.1935 937.003,-75.9365 933,-68 926.468,-55.05 914.924,-44.5732 903.124,-36.5616"/>
<polygon fill="midnightblue" stroke="midnightblue" points="904.882,-33.5324 894.555,-31.1635 901.151,-39.4551 904.882,-33.5324"/>
</g>
<!-- Node26 -->
<g id="node26" class="node"><title>Node26</title>
<g id="a_node26"><a xlink:href="FalloffFactory_8h.html" target="_top" xlink:title="Parameterizations for reaction falloff functions. ">
<polygon fill="white" stroke="black" points="823,-130.5 823,-149.5 905,-149.5 905,-130.5 823,-130.5"/>
<text text-anchor="middle" x="864" y="-137.5" font-family="FreeSans" font-size="10.00">FalloffFactory.h</text>
</a>
</g>
</g>
<!-- Node25&#45;&gt;Node26 -->
<g id="edge35" class="edge"><title>Node25&#45;&gt;Node26</title>
<path fill="none" stroke="midnightblue" d="M825.447,-192.403C832.197,-183.403 842.969,-169.041 851.413,-157.782"/>
<polygon fill="midnightblue" stroke="midnightblue" points="854.365,-159.681 857.565,-149.581 848.765,-155.481 854.365,-159.681"/>
</g>
<!-- Node26&#45;&gt;Node16 -->
<g id="edge37" class="edge"><title>Node26&#45;&gt;Node16</title>
<path fill="none" stroke="midnightblue" d="M864,-130.403C864,-121.938 864,-108.728 864,-97.8199"/>
<polygon fill="midnightblue" stroke="midnightblue" points="867.5,-97.5806 864,-87.5806 860.5,-97.5806 867.5,-97.5806"/>
</g>
<!-- Node26&#45;&gt;Node17 -->
<g id="edge36" class="edge"><title>Node26&#45;&gt;Node17</title>
<path fill="none" stroke="midnightblue" d="M890.649,-130.403C922.969,-119.978 977.597,-102.356 1013.73,-90.6992"/>
<polygon fill="midnightblue" stroke="midnightblue" points="1014.96,-93.9817 1023.4,-87.5806 1012.81,-87.3197 1014.96,-93.9817"/>
</g>
<!-- Node27&#45;&gt;Node3 -->
<g id="edge42" class="edge"><title>Node27&#45;&gt;Node3</title>
<path fill="none" stroke="midnightblue" d="M374.127,-248.781C370.087,-240.422 364.942,-229.777 360.631,-220.856"/>
<polygon fill="midnightblue" stroke="midnightblue" points="363.723,-219.211 356.22,-211.731 357.42,-222.257 363.723,-219.211"/>
</g>
<!-- Node27&#45;&gt;Node11 -->
<g id="edge41" class="edge"><title>Node27&#45;&gt;Node11</title>
<path fill="none" stroke="midnightblue" d="M347.913,-248.886C295.928,-226.71 195.142,-183.718 137.74,-159.232"/>
<polygon fill="midnightblue" stroke="midnightblue" points="138.802,-155.88 128.231,-155.175 136.055,-162.318 138.802,-155.88"/>
</g>
<!-- Node27&#45;&gt;Node12 -->
<g id="edge43" class="edge"><title>Node27&#45;&gt;Node12</title>
<path fill="none" stroke="midnightblue" d="M394.309,-248.994C410.199,-233.039 438.252,-207.218 467,-192 503.657,-172.595 548.648,-159.692 583.832,-151.72"/>
<polygon fill="midnightblue" stroke="midnightblue" points="584.929,-155.062 593.947,-149.501 583.43,-148.225 584.929,-155.062"/>
</g>
<!-- Node27&#45;&gt;Node13 -->
<g id="edge44" class="edge"><title>Node27&#45;&gt;Node13</title>
<path fill="none" stroke="midnightblue" d="M390.753,-248.806C400.907,-234.241 417.471,-211.078 433,-192 462.292,-156.014 499.381,-116.238 519.796,-94.7971"/>
<polygon fill="midnightblue" stroke="midnightblue" points="522.37,-97.1694 526.752,-87.5233 517.311,-92.3312 522.37,-97.1694"/>
</g>
<!-- Node27&#45;&gt;Node22 -->
<g id="edge45" class="edge"><title>Node27&#45;&gt;Node22</title>
<path fill="none" stroke="midnightblue" d="M413.12,-248.933C436.131,-238.855 466.856,-225.399 489.099,-215.657"/>
<polygon fill="midnightblue" stroke="midnightblue" points="490.607,-218.818 498.363,-211.6 487.799,-212.406 490.607,-218.818"/>
</g>
<!-- Node28&#45;&gt;Node27 -->
<g id="edge47" class="edge"><title>Node28&#45;&gt;Node27</title>
<path fill="none" stroke="midnightblue" d="M381,-322.372C381,-313.971 381,-300.811 381,-289.213"/>
<polygon fill="midnightblue" stroke="midnightblue" points="384.5,-289.181 381,-279.181 377.5,-289.181 384.5,-289.181"/>
</g>
<!-- Node29&#45;&gt;Node3 -->
<g id="edge49" class="edge"><title>Node29&#45;&gt;Node3</title>
<path fill="none" stroke="midnightblue" d="M182.224,-322.403C212.919,-300.815 293.496,-244.146 331.545,-217.386"/>
<polygon fill="midnightblue" stroke="midnightblue" points="333.663,-220.175 339.829,-211.56 329.636,-214.45 333.663,-220.175"/>
</g>
<!-- Node30&#45;&gt;Node21 -->
<g id="edge51" class="edge"><title>Node30&#45;&gt;Node21</title>
<path fill="none" stroke="midnightblue" d="M533.877,-316.679C531.091,-306.999 527.384,-294.123 524.367,-283.645"/>
<polygon fill="midnightblue" stroke="midnightblue" points="527.671,-282.47 521.541,-273.828 520.945,-284.406 527.671,-282.47"/>
</g>
<!-- Node31&#45;&gt;Node6 -->
<g id="edge53" class="edge"><title>Node31&#45;&gt;Node6</title>
<path fill="none" stroke="midnightblue" d="M66.6229,-68.4035C87.1737,-58.3787 121.364,-41.7006 145.207,-30.0699"/>
<polygon fill="midnightblue" stroke="midnightblue" points="146.957,-33.1106 154.41,-25.5806 143.888,-26.8192 146.957,-33.1106"/>
</g>
<!-- Node31&#45;&gt;Node8 -->
<g id="edge54" class="edge"><title>Node31&#45;&gt;Node8</title>
<path fill="none" stroke="midnightblue" d="M90.8108,-68.4672C143.603,-57.6933 234.405,-39.1623 291.441,-27.5223"/>
<polygon fill="midnightblue" stroke="midnightblue" points="292.235,-30.9324 301.333,-25.5034 290.835,-24.0737 292.235,-30.9324"/>
</g>
</g>
</svg>
