<?xml version="1.0" encoding="UTF-8" standalone="no"?>
<!DOCTYPE svg PUBLIC "-//W3C//DTD SVG 1.1//EN"
 "http://www.w3.org/Graphics/SVG/1.1/DTD/svg11.dtd">
<!-- Generated by graphviz version 2.36.0 (20140111.2315)
 -->
<!-- Title: Kinetics.h Pages: 1 -->
<svg width="1219pt" height="444pt"
 viewBox="0.00 0.00 1219.00 444.00" xmlns="http://www.w3.org/2000/svg" xmlns:xlink="http://www.w3.org/1999/xlink">
<g id="graph0" class="graph" transform="scale(1 1) rotate(0) translate(4 440)">
<title>Kinetics.h</title>
<polygon fill="white" stroke="none" points="-4,4 -4,-440 1215,-440 1215,4 -4,4"/>
<!-- Node1 -->
<g id="node1" class="node"><title>Node1</title>
<polygon fill="#bfbfbf" stroke="black" points="643.5,-416.5 643.5,-435.5 702.5,-435.5 702.5,-416.5 643.5,-416.5"/>
<text text-anchor="middle" x="673" y="-423.5" font-family="FreeSans" font-size="10.00">Kinetics.h</text>
</g>
<!-- Node2 -->
<g id="node2" class="node"><title>Node2</title>
<g id="a_node2"><a xlink:href="ThermoPhase_8h.html" target="_top" xlink:title="Header file for class ThermoPhase, the base class for phases with thermodynamic properties, and the text for the Module thermoprops (see Thermodynamic Properties and class ThermoPhase). ">
<polygon fill="white" stroke="black" points="423,-354.5 423,-373.5 575,-373.5 575,-354.5 423,-354.5"/>
<text text-anchor="middle" x="499" y="-361.5" font-family="FreeSans" font-size="10.00">cantera/thermo/ThermoPhase.h</text>
</a>
</g>
</g>
<!-- Node1&#45;&gt;Node2 -->
<g id="edge1" class="edge"><title>Node1&#45;&gt;Node2</title>
<path fill="none" stroke="midnightblue" d="M648.07,-416.403C617.964,-406.022 567.168,-388.506 533.362,-376.849"/>
<polygon fill="midnightblue" stroke="midnightblue" points="534.478,-373.532 523.884,-373.581 532.196,-380.149 534.478,-373.532"/>
</g>
<!-- Node16 -->
<g id="node16" class="node"><title>Node16</title>
<g id="a_node16"><a xlink:href="global_8h.html" target="_top" xlink:title="This file contains definitions for utility functions and text for modules, inputfiles, logs, textlogs, (see Input File Handling, Diagnostic Output, and Writing messages to the screen). ">
<polygon fill="white" stroke="black" points="564,-174.5 564,-193.5 672,-193.5 672,-174.5 564,-174.5"/>
<text text-anchor="middle" x="618" y="-181.5" font-family="FreeSans" font-size="10.00">cantera/base/global.h</text>
</a>
</g>
</g>
<!-- Node1&#45;&gt;Node16 -->
<g id="edge45" class="edge"><title>Node1&#45;&gt;Node16</title>
<path fill="none" stroke="midnightblue" d="M671.043,-416.458C663.125,-381.907 633.362,-252.036 622.234,-203.475"/>
<polygon fill="midnightblue" stroke="midnightblue" points="625.637,-202.656 619.992,-193.69 618.814,-204.219 625.637,-202.656"/>
</g>
<!-- Node17 -->
<g id="node17" class="node"><title>Node17</title>
<g id="a_node17"><a xlink:href="StoichManager_8h.html" target="_top" xlink:title="StoichManager.h">
<polygon fill="white" stroke="black" points="646.5,-236.5 646.5,-255.5 735.5,-255.5 735.5,-236.5 646.5,-236.5"/>
<text text-anchor="middle" x="691" y="-243.5" font-family="FreeSans" font-size="10.00">StoichManager.h</text>
</a>
</g>
</g>
<!-- Node1&#45;&gt;Node17 -->
<g id="edge24" class="edge"><title>Node1&#45;&gt;Node17</title>
<path fill="none" stroke="midnightblue" d="M673.868,-416.415C676.618,-389.227 685.179,-304.563 689.057,-266.217"/>
<polygon fill="midnightblue" stroke="midnightblue" points="692.574,-266.22 690.098,-255.918 685.61,-265.516 692.574,-266.22"/>
</g>
<!-- Node19 -->
<g id="node19" class="node"><title>Node19</title>
<g id="a_node19"><a xlink:href="mix__defs_8h.html" target="_top" xlink:title="cantera/thermo/mix\l_defs.h">
<polygon fill="white" stroke="black" points="701,-349 701,-379 801,-379 801,-349 701,-349"/>
<text text-anchor="start" x="709" y="-367" font-family="FreeSans" font-size="10.00">cantera/thermo/mix</text>
<text text-anchor="middle" x="751" y="-356" font-family="FreeSans" font-size="10.00">_defs.h</text>
</a>
</g>
</g>
<!-- Node1&#45;&gt;Node19 -->
<g id="edge30" class="edge"><title>Node1&#45;&gt;Node19</title>
<path fill="none" stroke="midnightblue" d="M684.175,-416.403C694.641,-408.353 710.684,-396.013 724.427,-385.441"/>
<polygon fill="midnightblue" stroke="midnightblue" points="726.825,-388.012 732.617,-379.141 722.557,-382.464 726.825,-388.012"/>
</g>
<!-- Node20 -->
<g id="node20" class="node"><title>Node20</title>
<g id="a_node20"><a xlink:href="Reaction_8h.html" target="_top" xlink:title="cantera/kinetics/Reaction.h">
<polygon fill="white" stroke="black" points="863,-292.5 863,-311.5 997,-311.5 997,-292.5 863,-292.5"/>
<text text-anchor="middle" x="930" y="-299.5" font-family="FreeSans" font-size="10.00">cantera/kinetics/Reaction.h</text>
</a>
</g>
</g>
<!-- Node1&#45;&gt;Node20 -->
<g id="edge31" class="edge"><title>Node1&#45;&gt;Node20</title>
<path fill="none" stroke="midnightblue" d="M702.694,-417.589C731.019,-409.982 774.505,-396.881 810,-380 847.496,-362.168 887.372,-334.647 910.413,-317.789"/>
<polygon fill="midnightblue" stroke="midnightblue" points="912.7,-320.451 918.654,-311.687 908.534,-314.825 912.7,-320.451"/>
</g>
<!-- Node3 -->
<g id="node3" class="node"><title>Node3</title>
<g id="a_node3"><a xlink:href="Phase_8h.html" target="_top" xlink:title="Header file for class Phase. ">
<polygon fill="white" stroke="black" points="183.5,-236.5 183.5,-255.5 234.5,-255.5 234.5,-236.5 183.5,-236.5"/>
<text text-anchor="middle" x="209" y="-243.5" font-family="FreeSans" font-size="10.00">Phase.h</text>
</a>
</g>
</g>
<!-- Node2&#45;&gt;Node3 -->
<g id="edge2" class="edge"><title>Node2&#45;&gt;Node3</title>
<path fill="none" stroke="midnightblue" d="M477.676,-354.47C426.979,-334.191 299.076,-283.03 239.906,-259.363"/>
<polygon fill="midnightblue" stroke="midnightblue" points="240.94,-256.007 230.356,-255.542 238.341,-262.506 240.94,-256.007"/>
</g>
<!-- Node13 -->
<g id="node13" class="node"><title>Node13</title>
<g id="a_node13"><a xlink:href="MultiSpeciesThermo_8h.html" target="_top" xlink:title="Header for a general species thermodynamic property manager for a phase (see MultiSpeciesThermo). ">
<polygon fill="white" stroke="black" points="426.5,-292.5 426.5,-311.5 539.5,-311.5 539.5,-292.5 426.5,-292.5"/>
<text text-anchor="middle" x="483" y="-299.5" font-family="FreeSans" font-size="10.00">MultiSpeciesThermo.h</text>
</a>
</g>
</g>
<!-- Node2&#45;&gt;Node13 -->
<g id="edge15" class="edge"><title>Node2&#45;&gt;Node13</title>
<path fill="none" stroke="midnightblue" d="M496.708,-354.403C494.426,-345.849 490.853,-332.45 487.927,-321.476"/>
<polygon fill="midnightblue" stroke="midnightblue" points="491.247,-320.341 485.288,-311.581 484.483,-322.145 491.247,-320.341"/>
</g>
<!-- Node2&#45;&gt;Node16 -->
<g id="edge23" class="edge"><title>Node2&#45;&gt;Node16</title>
<path fill="none" stroke="midnightblue" d="M508.811,-354.257C519.31,-344.586 536.062,-328.217 548,-312 574.629,-275.826 598.142,-228.387 609.947,-202.955"/>
<polygon fill="midnightblue" stroke="midnightblue" points="613.165,-204.334 614.137,-193.784 606.798,-201.425 613.165,-204.334"/>
</g>
<!-- Node4 -->
<g id="node4" class="node"><title>Node4</title>
<g id="a_node4"><a xlink:href="ctexceptions_8h.html" target="_top" xlink:title="Definitions for the classes that are thrown when Cantera experiences an error condition (also contain...">
<polygon fill="white" stroke="black" points="408.5,-174.5 408.5,-193.5 545.5,-193.5 545.5,-174.5 408.5,-174.5"/>
<text text-anchor="middle" x="477" y="-181.5" font-family="FreeSans" font-size="10.00">cantera/base/ctexceptions.h</text>
</a>
</g>
</g>
<!-- Node3&#45;&gt;Node4 -->
<g id="edge3" class="edge"><title>Node3&#45;&gt;Node4</title>
<path fill="none" stroke="midnightblue" d="M234.697,-239.247C279.437,-229.23 372.288,-208.443 429.168,-195.709"/>
<polygon fill="midnightblue" stroke="midnightblue" points="430.013,-199.106 439.007,-193.506 428.483,-192.275 430.013,-199.106"/>
</g>
<!-- Node9 -->
<g id="node9" class="node"><title>Node9</title>
<g id="a_node9"><a xlink:href="Elements_8h.html" target="_top" xlink:title="Contains the getElementWeight function and the definitions of element constraint types. ">
<polygon fill="white" stroke="black" points="105,-112.5 105,-131.5 237,-131.5 237,-112.5 105,-112.5"/>
<text text-anchor="middle" x="171" y="-119.5" font-family="FreeSans" font-size="10.00">cantera/thermo/Elements.h</text>
</a>
</g>
</g>
<!-- Node3&#45;&gt;Node9 -->
<g id="edge8" class="edge"><title>Node3&#45;&gt;Node9</title>
<path fill="none" stroke="midnightblue" d="M206.267,-236.226C200.105,-216.442 185.019,-168.007 176.714,-141.344"/>
<polygon fill="midnightblue" stroke="midnightblue" points="180.024,-140.201 173.708,-131.694 173.34,-142.283 180.024,-140.201"/>
</g>
<!-- Node10 -->
<g id="node10" class="node"><title>Node10</title>
<g id="a_node10"><a xlink:href="Species_8h.html" target="_top" xlink:title="Declaration for class Cantera::Species. ">
<polygon fill="white" stroke="black" points="255.5,-112.5 255.5,-131.5 382.5,-131.5 382.5,-112.5 255.5,-112.5"/>
<text text-anchor="middle" x="319" y="-119.5" font-family="FreeSans" font-size="10.00">cantera/thermo/Species.h</text>
</a>
</g>
</g>
<!-- Node3&#45;&gt;Node10 -->
<g id="edge10" class="edge"><title>Node3&#45;&gt;Node10</title>
<path fill="none" stroke="midnightblue" d="M209.564,-236.358C210.99,-220.947 215.954,-188.426 233,-168 245.365,-153.183 263.878,-142.617 280.563,-135.464"/>
<polygon fill="midnightblue" stroke="midnightblue" points="282.133,-138.606 290.116,-131.641 279.532,-132.108 282.133,-138.606"/>
</g>
<!-- Node11 -->
<g id="node11" class="node"><title>Node11</title>
<g id="a_node11"><a xlink:href="ValueCache_8h.html" target="_top" xlink:title="cantera/base/ValueCache.h">
<polygon fill="white" stroke="black" points="0,-174.5 0,-193.5 134,-193.5 134,-174.5 0,-174.5"/>
<text text-anchor="middle" x="67" y="-181.5" font-family="FreeSans" font-size="10.00">cantera/base/ValueCache.h</text>
</a>
</g>
</g>
<!-- Node3&#45;&gt;Node11 -->
<g id="edge12" class="edge"><title>Node3&#45;&gt;Node11</title>
<path fill="none" stroke="midnightblue" d="M188.655,-236.403C164.613,-226.245 124.403,-209.255 96.8375,-197.607"/>
<polygon fill="midnightblue" stroke="midnightblue" points="97.8811,-194.249 87.3074,-193.581 95.1566,-200.697 97.8811,-194.249"/>
</g>
<!-- Node5 -->
<g id="node5" class="node"><title>Node5</title>
<g id="a_node5"><a xlink:href="fmt_8h.html" target="_top" xlink:title="Wrapper for either system&#45;installed or local headers for fmt. ">
<polygon fill="white" stroke="red" points="527.5,-112.5 527.5,-131.5 624.5,-131.5 624.5,-112.5 527.5,-112.5"/>
<text text-anchor="middle" x="576" y="-119.5" font-family="FreeSans" font-size="10.00">cantera/base/fmt.h</text>
</a>
</g>
</g>
<!-- Node4&#45;&gt;Node5 -->
<g id="edge4" class="edge"><title>Node4&#45;&gt;Node5</title>
<path fill="none" stroke="midnightblue" d="M491.184,-174.403C507.358,-164.601 534.026,-148.439 553.143,-136.853"/>
<polygon fill="midnightblue" stroke="midnightblue" points="555.104,-139.757 561.842,-131.581 551.476,-133.77 555.104,-139.757"/>
</g>
<!-- Node8 -->
<g id="node8" class="node"><title>Node8</title>
<polygon fill="white" stroke="#bfbfbf" points="448,-112.5 448,-131.5 506,-131.5 506,-112.5 448,-112.5"/>
<text text-anchor="middle" x="477" y="-119.5" font-family="FreeSans" font-size="10.00">exception</text>
</g>
<!-- Node4&#45;&gt;Node8 -->
<g id="edge7" class="edge"><title>Node4&#45;&gt;Node8</title>
<path fill="none" stroke="midnightblue" d="M477,-174.403C477,-165.938 477,-152.728 477,-141.82"/>
<polygon fill="midnightblue" stroke="midnightblue" points="480.5,-141.581 477,-131.581 473.5,-141.581 480.5,-141.581"/>
</g>
<!-- Node6 -->
<g id="node6" class="node"><title>Node6</title>
<g id="a_node6"><a xlink:href="ct__defs_8h.html" target="_top" xlink:title="This file contains definitions of terms that are used in internal routines and are unlikely to need m...">
<polygon fill="white" stroke="red" points="586,-56.5 586,-75.5 642,-75.5 642,-56.5 586,-56.5"/>
<text text-anchor="middle" x="614" y="-63.5" font-family="FreeSans" font-size="10.00">ct_defs.h</text>
</a>
</g>
</g>
<!-- Node5&#45;&gt;Node6 -->
<g id="edge5" class="edge"><title>Node5&#45;&gt;Node6</title>
<path fill="none" stroke="midnightblue" d="M582.275,-112.083C587.642,-104.455 595.518,-93.2645 602.079,-83.9408"/>
<polygon fill="midnightblue" stroke="midnightblue" points="604.949,-85.9434 607.842,-75.7511 599.225,-81.9149 604.949,-85.9434"/>
</g>
<!-- Node7 -->
<g id="node7" class="node"><title>Node7</title>
<polygon fill="white" stroke="#bfbfbf" points="656,-0.5 656,-19.5 696,-19.5 696,-0.5 656,-0.5"/>
<text text-anchor="middle" x="676" y="-7.5" font-family="FreeSans" font-size="10.00">string</text>
</g>
<!-- Node6&#45;&gt;Node7 -->
<g id="edge6" class="edge"><title>Node6&#45;&gt;Node7</title>
<path fill="none" stroke="midnightblue" d="M623.961,-56.324C633.127,-48.3414 646.937,-36.3128 658.028,-26.6529"/>
<polygon fill="midnightblue" stroke="midnightblue" points="660.615,-29.041 665.857,-19.8339 656.018,-23.7624 660.615,-29.041"/>
</g>
<!-- Node9&#45;&gt;Node6 -->
<g id="edge9" class="edge"><title>Node9&#45;&gt;Node6</title>
<path fill="none" stroke="midnightblue" d="M237.322,-112.916C331.377,-101.451 500.453,-80.841 575.875,-71.6473"/>
<polygon fill="midnightblue" stroke="midnightblue" points="576.376,-75.1123 585.879,-70.4279 575.528,-68.1637 576.376,-75.1123"/>
</g>
<!-- Node10&#45;&gt;Node6 -->
<g id="edge11" class="edge"><title>Node10&#45;&gt;Node6</title>
<path fill="none" stroke="midnightblue" d="M365.744,-112.444C423.774,-101.821 521.661,-83.9028 575.551,-74.0382"/>
<polygon fill="midnightblue" stroke="midnightblue" points="576.511,-77.4206 585.717,-72.1772 575.251,-70.535 576.511,-77.4206"/>
</g>
<!-- Node11&#45;&gt;Node6 -->
<g id="edge13" class="edge"><title>Node11&#45;&gt;Node6</title>
<path fill="none" stroke="midnightblue" d="M57.909,-174.056C44.1125,-159.423 21.1837,-130.181 38,-112 74.4399,-72.6022 452.504,-67.6271 575.539,-67.055"/>
<polygon fill="midnightblue" stroke="midnightblue" points="575.646,-70.5547 585.632,-67.0155 575.619,-63.5548 575.646,-70.5547"/>
</g>
<!-- Node12 -->
<g id="node12" class="node"><title>Node12</title>
<polygon fill="white" stroke="#bfbfbf" points="47.5,-112.5 47.5,-131.5 86.5,-131.5 86.5,-112.5 47.5,-112.5"/>
<text text-anchor="middle" x="67" y="-119.5" font-family="FreeSans" font-size="10.00">limits</text>
</g>
<!-- Node11&#45;&gt;Node12 -->
<g id="edge14" class="edge"><title>Node11&#45;&gt;Node12</title>
<path fill="none" stroke="midnightblue" d="M67,-174.403C67,-165.938 67,-152.728 67,-141.82"/>
<polygon fill="midnightblue" stroke="midnightblue" points="70.5001,-141.581 67,-131.581 63.5001,-141.581 70.5001,-141.581"/>
</g>
<!-- Node14 -->
<g id="node14" class="node"><title>Node14</title>
<g id="a_node14"><a xlink:href="SpeciesThermoInterpType_8h.html" target="_top" xlink:title="Pure Virtual Base class for individual species reference state thermodynamic managers and text for th...">
<polygon fill="white" stroke="black" points="408.5,-236.5 408.5,-255.5 545.5,-255.5 545.5,-236.5 408.5,-236.5"/>
<text text-anchor="middle" x="477" y="-243.5" font-family="FreeSans" font-size="10.00">SpeciesThermoInterpType.h</text>
</a>
</g>
</g>
<!-- Node13&#45;&gt;Node14 -->
<g id="edge16" class="edge"><title>Node13&#45;&gt;Node14</title>
<path fill="none" stroke="midnightblue" d="M482.009,-292.083C481.214,-284.927 480.071,-274.635 479.077,-265.691"/>
<polygon fill="midnightblue" stroke="midnightblue" points="482.555,-265.303 477.972,-255.751 475.598,-266.076 482.555,-265.303"/>
</g>
<!-- Node14&#45;&gt;Node4 -->
<g id="edge19" class="edge"><title>Node14&#45;&gt;Node4</title>
<path fill="none" stroke="midnightblue" d="M477,-236.403C477,-227.938 477,-214.728 477,-203.82"/>
<polygon fill="midnightblue" stroke="midnightblue" points="480.5,-203.581 477,-193.581 473.5,-203.581 480.5,-203.581"/>
</g>
<!-- Node14&#45;&gt;Node6 -->
<g id="edge17" class="edge"><title>Node14&#45;&gt;Node6</title>
<path fill="none" stroke="midnightblue" d="M408.4,-242.724C332.575,-237.59 226.077,-221.044 266,-168 300.766,-121.808 336.45,-151.149 391,-132 412.807,-124.345 417.086,-119.341 439,-112 485.295,-96.4916 539.981,-83.2076 575.745,-75.1753"/>
<polygon fill="midnightblue" stroke="midnightblue" points="576.752,-78.537 585.756,-72.9531 575.235,-71.7033 576.752,-78.537"/>
</g>
<!-- Node15 -->
<g id="node15" class="node"><title>Node15</title>
<g id="a_node15"><a xlink:href="speciesThermoTypes_8h.html" target="_top" xlink:title="Contains const definitions for types of species reference&#45;state thermodynamics managers (see Species ...">
<polygon fill="white" stroke="black" points="275.5,-174.5 275.5,-193.5 390.5,-193.5 390.5,-174.5 275.5,-174.5"/>
<text text-anchor="middle" x="333" y="-181.5" font-family="FreeSans" font-size="10.00">speciesThermoTypes.h</text>
</a>
</g>
</g>
<!-- Node14&#45;&gt;Node15 -->
<g id="edge18" class="edge"><title>Node14&#45;&gt;Node15</title>
<path fill="none" stroke="midnightblue" d="M456.368,-236.403C431.881,-226.2 390.853,-209.105 362.891,-197.454"/>
<polygon fill="midnightblue" stroke="midnightblue" points="364.17,-194.196 353.593,-193.581 361.478,-200.658 364.17,-194.196"/>
</g>
<!-- Node14&#45;&gt;Node16 -->
<g id="edge20" class="edge"><title>Node14&#45;&gt;Node16</title>
<path fill="none" stroke="midnightblue" d="M497.202,-236.403C521.074,-226.245 561.002,-209.255 588.373,-197.607"/>
<polygon fill="midnightblue" stroke="midnightblue" points="590.005,-200.717 597.836,-193.581 587.264,-194.276 590.005,-200.717"/>
</g>
<!-- Node16&#45;&gt;Node5 -->
<g id="edge22" class="edge"><title>Node16&#45;&gt;Node5</title>
<path fill="none" stroke="midnightblue" d="M611.982,-174.403C605.682,-165.403 595.629,-151.041 587.748,-139.782"/>
<polygon fill="midnightblue" stroke="midnightblue" points="590.608,-137.766 582.006,-131.581 584.874,-141.78 590.608,-137.766"/>
</g>
<!-- Node16&#45;&gt;Node6 -->
<g id="edge21" class="edge"><title>Node16&#45;&gt;Node6</title>
<path fill="none" stroke="midnightblue" d="M622.176,-174.265C628.049,-160.878 637.55,-134.473 633,-112 631.107,-102.649 627.208,-92.8267 623.433,-84.7526"/>
<polygon fill="midnightblue" stroke="midnightblue" points="626.475,-83.0106 618.876,-75.6279 620.212,-86.1381 626.475,-83.0106"/>
</g>
<!-- Node17&#45;&gt;Node4 -->
<g id="edge29" class="edge"><title>Node17&#45;&gt;Node4</title>
<path fill="none" stroke="midnightblue" d="M660.339,-236.403C622.756,-225.866 558.956,-207.978 517.402,-196.328"/>
<polygon fill="midnightblue" stroke="midnightblue" points="518.178,-192.91 507.604,-193.581 516.288,-199.65 518.178,-192.91"/>
</g>
<!-- Node18 -->
<g id="node18" class="node"><title>Node18</title>
<g id="a_node18"><a xlink:href="stringUtils_8h.html" target="_top" xlink:title="Contains declarations for string manipulation functions within Cantera. ">
<polygon fill="white" stroke="black" points="690.5,-174.5 690.5,-193.5 815.5,-193.5 815.5,-174.5 690.5,-174.5"/>
<text text-anchor="middle" x="753" y="-181.5" font-family="FreeSans" font-size="10.00">cantera/base/stringUtils.h</text>
</a>
</g>
</g>
<!-- Node17&#45;&gt;Node18 -->
<g id="edge25" class="edge"><title>Node17&#45;&gt;Node18</title>
<path fill="none" stroke="midnightblue" d="M699.883,-236.403C709.459,-227.136 724.911,-212.183 736.686,-200.788"/>
<polygon fill="midnightblue" stroke="midnightblue" points="739.381,-203.05 744.133,-193.581 734.513,-198.02 739.381,-203.05"/>
</g>
<!-- Node18&#45;&gt;Node5 -->
<g id="edge27" class="edge"><title>Node18&#45;&gt;Node5</title>
<path fill="none" stroke="midnightblue" d="M727.64,-174.403C697.016,-164.022 645.343,-146.506 610.954,-134.849"/>
<polygon fill="midnightblue" stroke="midnightblue" points="611.907,-131.476 601.313,-131.581 609.66,-138.106 611.907,-131.476"/>
</g>
<!-- Node18&#45;&gt;Node6 -->
<g id="edge26" class="edge"><title>Node18&#45;&gt;Node6</title>
<path fill="none" stroke="midnightblue" d="M742.552,-174.281C718.992,-154.619 661.488,-106.63 632.034,-82.0498"/>
<polygon fill="midnightblue" stroke="midnightblue" points="634.111,-79.2249 624.191,-75.5048 629.626,-84.5993 634.111,-79.2249"/>
</g>
<!-- Node18&#45;&gt;Node7 -->
<g id="edge28" class="edge"><title>Node18&#45;&gt;Node7</title>
<path fill="none" stroke="midnightblue" d="M749.076,-174.234C737.026,-147.317 700.388,-65.4763 684.032,-28.9424"/>
<polygon fill="midnightblue" stroke="midnightblue" points="687.106,-27.2412 679.825,-19.5442 680.717,-30.1015 687.106,-27.2412"/>
</g>
<!-- Node21 -->
<g id="node21" class="node"><title>Node21</title>
<g id="a_node21"><a xlink:href="utilities_8h.html" target="_top" xlink:title="Various templated functions that carry out common vector operations (see Templated Utility Functions)...">
<polygon fill="white" stroke="black" points="802.5,-236.5 802.5,-255.5 915.5,-255.5 915.5,-236.5 802.5,-236.5"/>
<text text-anchor="middle" x="859" y="-243.5" font-family="FreeSans" font-size="10.00">cantera/base/utilities.h</text>
</a>
</g>
</g>
<!-- Node20&#45;&gt;Node21 -->
<g id="edge32" class="edge"><title>Node20&#45;&gt;Node21</title>
<path fill="none" stroke="midnightblue" d="M918.593,-292.324C907.891,-284.185 891.659,-271.839 878.837,-262.087"/>
<polygon fill="midnightblue" stroke="midnightblue" points="880.693,-259.102 870.615,-255.834 876.456,-264.673 880.693,-259.102"/>
</g>
<!-- Node24 -->
<g id="node24" class="node"><title>Node24</title>
<g id="a_node24"><a xlink:href="RxnRates_8h.html" target="_top" xlink:title="cantera/kinetics/RxnRates.h">
<polygon fill="white" stroke="black" points="933.5,-236.5 933.5,-255.5 1070.5,-255.5 1070.5,-236.5 933.5,-236.5"/>
<text text-anchor="middle" x="1002" y="-243.5" font-family="FreeSans" font-size="10.00">cantera/kinetics/RxnRates.h</text>
</a>
</g>
</g>
<!-- Node20&#45;&gt;Node24 -->
<g id="edge37" class="edge"><title>Node20&#45;&gt;Node24</title>
<path fill="none" stroke="midnightblue" d="M941.568,-292.324C952.42,-284.185 968.881,-271.839 981.883,-262.087"/>
<polygon fill="midnightblue" stroke="midnightblue" points="984.321,-264.634 990.221,-255.834 980.121,-259.034 984.321,-264.634"/>
</g>
<!-- Node27 -->
<g id="node27" class="node"><title>Node27</title>
<g id="a_node27"><a xlink:href="Falloff_8h_source.html" target="_top" xlink:title="cantera/kinetics/Falloff.h">
<polygon fill="white" stroke="black" points="1088.5,-236.5 1088.5,-255.5 1209.5,-255.5 1209.5,-236.5 1088.5,-236.5"/>
<text text-anchor="middle" x="1149" y="-243.5" font-family="FreeSans" font-size="10.00">cantera/kinetics/Falloff.h</text>
</a>
</g>
</g>
<!-- Node20&#45;&gt;Node27 -->
<g id="edge43" class="edge"><title>Node20&#45;&gt;Node27</title>
<path fill="none" stroke="midnightblue" d="M964.701,-292.444C1002.58,-283.102 1063.35,-268.119 1104.66,-257.933"/>
<polygon fill="midnightblue" stroke="midnightblue" points="1105.59,-261.309 1114.46,-255.516 1103.91,-254.512 1105.59,-261.309"/>
</g>
<!-- Node21&#45;&gt;Node6 -->
<g id="edge33" class="edge"><title>Node21&#45;&gt;Node6</title>
<path fill="none" stroke="midnightblue" d="M868.262,-236.348C883.045,-221.475 908.777,-190.491 893,-168 837.907,-89.4647 715.328,-71.7429 652.601,-67.9166"/>
<polygon fill="midnightblue" stroke="midnightblue" points="652.509,-64.4071 642.34,-67.3829 652.145,-71.3977 652.509,-64.4071"/>
</g>
<!-- Node21&#45;&gt;Node16 -->
<g id="edge34" class="edge"><title>Node21&#45;&gt;Node16</title>
<path fill="none" stroke="midnightblue" d="M824.727,-236.467C781.989,-225.827 708.863,-207.622 662.02,-195.959"/>
<polygon fill="midnightblue" stroke="midnightblue" points="662.705,-192.523 652.155,-193.503 661.013,-199.316 662.705,-192.523"/>
</g>
<!-- Node22 -->
<g id="node22" class="node"><title>Node22</title>
<polygon fill="white" stroke="#bfbfbf" points="941,-174.5 941,-193.5 999,-193.5 999,-174.5 941,-174.5"/>
<text text-anchor="middle" x="970" y="-181.5" font-family="FreeSans" font-size="10.00">stdexcept</text>
</g>
<!-- Node21&#45;&gt;Node22 -->
<g id="edge35" class="edge"><title>Node21&#45;&gt;Node22</title>
<path fill="none" stroke="midnightblue" d="M874.904,-236.403C893.285,-226.468 923.756,-209.997 945.245,-198.381"/>
<polygon fill="midnightblue" stroke="midnightblue" points="946.993,-201.415 954.126,-193.581 943.665,-195.257 946.993,-201.415"/>
</g>
<!-- Node23 -->
<g id="node23" class="node"><title>Node23</title>
<polygon fill="white" stroke="#bfbfbf" points="833.5,-174.5 833.5,-193.5 884.5,-193.5 884.5,-174.5 833.5,-174.5"/>
<text text-anchor="middle" x="859" y="-181.5" font-family="FreeSans" font-size="10.00">numeric</text>
</g>
<!-- Node21&#45;&gt;Node23 -->
<g id="edge36" class="edge"><title>Node21&#45;&gt;Node23</title>
<path fill="none" stroke="midnightblue" d="M859,-236.403C859,-227.938 859,-214.728 859,-203.82"/>
<polygon fill="midnightblue" stroke="midnightblue" points="862.5,-203.581 859,-193.581 855.5,-203.581 862.5,-203.581"/>
</g>
<!-- Node24&#45;&gt;Node4 -->
<g id="edge40" class="edge"><title>Node24&#45;&gt;Node4</title>
<path fill="none" stroke="midnightblue" d="M933.104,-236.984C930.028,-236.647 926.982,-236.317 924,-236 760.147,-218.556 718.082,-223.584 555,-200 545.98,-198.696 536.418,-197.065 527.195,-195.363"/>
<polygon fill="midnightblue" stroke="midnightblue" points="527.84,-191.923 517.363,-193.501 526.537,-198.801 527.84,-191.923"/>
</g>
<!-- Node24&#45;&gt;Node18 -->
<g id="edge41" class="edge"><title>Node24&#45;&gt;Node18</title>
<path fill="none" stroke="midnightblue" d="M966.589,-236.467C922.34,-225.805 846.562,-207.545 798.177,-195.886"/>
<polygon fill="midnightblue" stroke="midnightblue" points="798.831,-192.443 788.289,-193.503 797.191,-199.249 798.831,-192.443"/>
</g>
<!-- Node25 -->
<g id="node25" class="node"><title>Node25</title>
<g id="a_node25"><a xlink:href="reaction__defs_8h.html" target="_top" xlink:title="This file defines some constants used to specify reaction types. ">
<polygon fill="white" stroke="black" points="1089,-169 1089,-199 1211,-199 1211,-169 1089,-169"/>
<text text-anchor="start" x="1097" y="-187" font-family="FreeSans" font-size="10.00">cantera/kinetics/reaction</text>
<text text-anchor="middle" x="1150" y="-176" font-family="FreeSans" font-size="10.00">_defs.h</text>
</a>
</g>
</g>
<!-- Node24&#45;&gt;Node25 -->
<g id="edge38" class="edge"><title>Node24&#45;&gt;Node25</title>
<path fill="none" stroke="midnightblue" d="M1023.2,-236.403C1044.73,-227.679 1078.68,-213.914 1106.03,-202.824"/>
<polygon fill="midnightblue" stroke="midnightblue" points="1107.45,-206.026 1115.4,-199.025 1104.82,-199.539 1107.45,-206.026"/>
</g>
<!-- Node26 -->
<g id="node26" class="node"><title>Node26</title>
<polygon fill="white" stroke="#bfbfbf" points="1017.5,-174.5 1017.5,-193.5 1070.5,-193.5 1070.5,-174.5 1017.5,-174.5"/>
<text text-anchor="middle" x="1044" y="-181.5" font-family="FreeSans" font-size="10.00">iostream</text>
</g>
<!-- Node24&#45;&gt;Node26 -->
<g id="edge42" class="edge"><title>Node24&#45;&gt;Node26</title>
<path fill="none" stroke="midnightblue" d="M1008.02,-236.403C1014.32,-227.403 1024.37,-213.041 1032.25,-201.782"/>
<polygon fill="midnightblue" stroke="midnightblue" points="1035.13,-203.78 1037.99,-193.581 1029.39,-199.766 1035.13,-203.78"/>
</g>
<!-- Node25&#45;&gt;Node6 -->
<g id="edge39" class="edge"><title>Node25&#45;&gt;Node6</title>
<path fill="none" stroke="midnightblue" d="M1112.26,-168.867C1068.33,-152.917 993.332,-127.218 927,-112 829.325,-89.5916 711.803,-76.2601 652.4,-70.4542"/>
<polygon fill="midnightblue" stroke="midnightblue" points="652.634,-66.9606 642.345,-69.4894 651.965,-73.9286 652.634,-66.9606"/>
</g>
<!-- Node27&#45;&gt;Node25 -->
<g id="edge44" class="edge"><title>Node27&#45;&gt;Node25</title>
<path fill="none" stroke="midnightblue" d="M1149.14,-236.403C1149.26,-229.341 1149.43,-218.975 1149.59,-209.399"/>
<polygon fill="midnightblue" stroke="midnightblue" points="1153.1,-209.198 1149.76,-199.141 1146.1,-209.081 1153.1,-209.198"/>
</g>
</g>
</svg>
