<?xml version="1.0" encoding="UTF-8" standalone="no"?>
<!DOCTYPE svg PUBLIC "-//W3C//DTD SVG 1.1//EN"
 "http://www.w3.org/Graphics/SVG/1.1/DTD/svg11.dtd">
<!-- Generated by graphviz version 2.36.0 (20140111.2315)
 -->
<!-- Title: KineticsFactory.h Pages: 1 -->
<svg width="957pt" height="376pt"
 viewBox="0.00 0.00 957.00 376.00" xmlns="http://www.w3.org/2000/svg" xmlns:xlink="http://www.w3.org/1999/xlink">
<g id="graph0" class="graph" transform="scale(1 1) rotate(0) translate(4 372)">
<title>KineticsFactory.h</title>
<polygon fill="white" stroke="none" points="-4,4 -4,-372 953,-372 953,4 -4,4"/>
<!-- Node1 -->
<g id="node1" class="node"><title>Node1</title>
<polygon fill="#bfbfbf" stroke="black" points="137.5,-348.5 137.5,-367.5 228.5,-367.5 228.5,-348.5 137.5,-348.5"/>
<text text-anchor="middle" x="183" y="-355.5" font-family="FreeSans" font-size="10.00">KineticsFactory.h</text>
</g>
<!-- Node2 -->
<g id="node2" class="node"><title>Node2</title>
<g id="a_node2"><a xlink:href="Kinetics_8h.html" target="_top" xlink:title="Base class for kinetics managers and also contains the kineticsmgr module documentation (see Kinetics...">
<polygon fill="white" stroke="black" points="153.5,-292.5 153.5,-311.5 212.5,-311.5 212.5,-292.5 153.5,-292.5"/>
<text text-anchor="middle" x="183" y="-299.5" font-family="FreeSans" font-size="10.00">Kinetics.h</text>
</a>
</g>
</g>
<!-- Node1&#45;&gt;Node2 -->
<g id="edge1" class="edge"><title>Node1&#45;&gt;Node2</title>
<path fill="none" stroke="midnightblue" d="M183,-348.083C183,-341.006 183,-330.861 183,-321.986"/>
<polygon fill="midnightblue" stroke="midnightblue" points="186.5,-321.751 183,-311.751 179.5,-321.751 186.5,-321.751"/>
</g>
<!-- Node14 -->
<g id="node14" class="node"><title>Node14</title>
<g id="a_node14"><a xlink:href="FactoryBase_8h.html" target="_top" xlink:title="File contains the FactoryBase class declarations. ">
<polygon fill="white" stroke="black" points="79.5,-56.5 79.5,-75.5 216.5,-75.5 216.5,-56.5 79.5,-56.5"/>
<text text-anchor="middle" x="148" y="-63.5" font-family="FreeSans" font-size="10.00">cantera/base/FactoryBase.h</text>
</a>
</g>
</g>
<!-- Node1&#45;&gt;Node14 -->
<g id="edge16" class="edge"><title>Node1&#45;&gt;Node14</title>
<path fill="none" stroke="midnightblue" d="M137.293,-348.737C83.0901,-335.998 0,-305.888 0,-241 0,-241 0,-241 0,-177 0,-124.022 61.8437,-93.5711 105.577,-78.6612"/>
<polygon fill="midnightblue" stroke="midnightblue" points="106.73,-81.9668 115.154,-75.542 104.562,-75.3109 106.73,-81.9668"/>
</g>
<!-- Node15 -->
<g id="node15" class="node"><title>Node15</title>
<g id="a_node15"><a xlink:href="ct__thread_8h.html" target="_top" xlink:title="cantera/base/ct_thread.h">
<polygon fill="white" stroke="black" points="658.5,-292.5 658.5,-311.5 781.5,-311.5 781.5,-292.5 658.5,-292.5"/>
<text text-anchor="middle" x="720" y="-299.5" font-family="FreeSans" font-size="10.00">cantera/base/ct_thread.h</text>
</a>
</g>
</g>
<!-- Node1&#45;&gt;Node15 -->
<g id="edge18" class="edge"><title>Node1&#45;&gt;Node15</title>
<path fill="none" stroke="midnightblue" d="M228.784,-352.396C322.248,-342.997 535.624,-321.541 647.892,-310.251"/>
<polygon fill="midnightblue" stroke="midnightblue" points="648.505,-313.707 658.104,-309.224 647.804,-306.742 648.505,-313.707"/>
</g>
<!-- Node3 -->
<g id="node3" class="node"><title>Node3</title>
<g id="a_node3"><a xlink:href="ThermoPhase_8h.html" target="_top" xlink:title="Header file for class ThermoPhase, the base class for phases with thermodynamic properties, and the text for the Module thermoprops (see Thermodynamic Properties and class ThermoPhase). ">
<polygon fill="white" stroke="black" points="179,-230.5 179,-249.5 331,-249.5 331,-230.5 179,-230.5"/>
<text text-anchor="middle" x="255" y="-237.5" font-family="FreeSans" font-size="10.00">cantera/thermo/ThermoPhase.h</text>
</a>
</g>
</g>
<!-- Node2&#45;&gt;Node3 -->
<g id="edge2" class="edge"><title>Node2&#45;&gt;Node3</title>
<path fill="none" stroke="midnightblue" d="M193.316,-292.403C204.651,-282.958 223.073,-267.606 236.839,-256.134"/>
<polygon fill="midnightblue" stroke="midnightblue" points="239.262,-258.671 244.703,-249.581 234.78,-253.294 239.262,-258.671"/>
</g>
<!-- Node13 -->
<g id="node13" class="node"><title>Node13</title>
<g id="a_node13"><a xlink:href="mix__defs_8h.html" target="_top" xlink:title="cantera/thermo/mix\l_defs.h">
<polygon fill="white" stroke="black" points="61,-225 61,-255 161,-255 161,-225 61,-225"/>
<text text-anchor="start" x="69" y="-243" font-family="FreeSans" font-size="10.00">cantera/thermo/mix</text>
<text text-anchor="middle" x="111" y="-232" font-family="FreeSans" font-size="10.00">_defs.h</text>
</a>
</g>
</g>
<!-- Node2&#45;&gt;Node13 -->
<g id="edge15" class="edge"><title>Node2&#45;&gt;Node13</title>
<path fill="none" stroke="midnightblue" d="M172.684,-292.403C163.115,-284.429 148.494,-272.245 135.888,-261.74"/>
<polygon fill="midnightblue" stroke="midnightblue" points="137.892,-258.854 127.969,-255.141 133.411,-264.231 137.892,-258.854"/>
</g>
<!-- Node4 -->
<g id="node4" class="node"><title>Node4</title>
<g id="a_node4"><a xlink:href="Phase_8h.html" target="_top" xlink:title="Header file for class Phase. ">
<polygon fill="white" stroke="black" points="263.5,-168.5 263.5,-187.5 314.5,-187.5 314.5,-168.5 263.5,-168.5"/>
<text text-anchor="middle" x="289" y="-175.5" font-family="FreeSans" font-size="10.00">Phase.h</text>
</a>
</g>
</g>
<!-- Node3&#45;&gt;Node4 -->
<g id="edge3" class="edge"><title>Node3&#45;&gt;Node4</title>
<path fill="none" stroke="midnightblue" d="M259.871,-230.403C264.87,-221.582 272.789,-207.608 279.109,-196.455"/>
<polygon fill="midnightblue" stroke="midnightblue" points="282.253,-198.006 284.138,-187.581 276.162,-194.555 282.253,-198.006"/>
</g>
<!-- Node12 -->
<g id="node12" class="node"><title>Node12</title>
<g id="a_node12"><a xlink:href="SpeciesThermo_8h.html" target="_top" xlink:title="Virtual base class for the calculation of multiple&#45;species thermodynamic reference&#45;state property man...">
<polygon fill="white" stroke="black" points="91,-168.5 91,-187.5 183,-187.5 183,-168.5 91,-168.5"/>
<text text-anchor="middle" x="137" y="-175.5" font-family="FreeSans" font-size="10.00">SpeciesThermo.h</text>
</a>
</g>
</g>
<!-- Node3&#45;&gt;Node12 -->
<g id="edge13" class="edge"><title>Node3&#45;&gt;Node12</title>
<path fill="none" stroke="midnightblue" d="M238.093,-230.403C218.466,-220.423 185.869,-203.849 163.01,-192.225"/>
<polygon fill="midnightblue" stroke="midnightblue" points="164.375,-188.993 153.875,-187.581 161.203,-195.233 164.375,-188.993"/>
</g>
<!-- Node5 -->
<g id="node5" class="node"><title>Node5</title>
<g id="a_node5"><a xlink:href="ctexceptions_8h.html" target="_top" xlink:title="Definitions for the classes that are thrown when Cantera experiences an error condition (also contain...">
<polygon fill="white" stroke="red" points="66.5,-112.5 66.5,-131.5 203.5,-131.5 203.5,-112.5 66.5,-112.5"/>
<text text-anchor="middle" x="135" y="-119.5" font-family="FreeSans" font-size="10.00">cantera/base/ctexceptions.h</text>
</a>
</g>
</g>
<!-- Node4&#45;&gt;Node5 -->
<g id="edge4" class="edge"><title>Node4&#45;&gt;Node5</title>
<path fill="none" stroke="midnightblue" d="M264.598,-168.444C238.803,-159.399 197.923,-145.064 168.982,-134.916"/>
<polygon fill="midnightblue" stroke="midnightblue" points="169.882,-131.523 159.288,-131.516 167.566,-138.128 169.882,-131.523"/>
</g>
<!-- Node6 -->
<g id="node6" class="node"><title>Node6</title>
<g id="a_node6"><a xlink:href="Elements_8h.html" target="_top" xlink:title="Contains the LookupWtElements function and the definitions of element constraint types. ">
<polygon fill="white" stroke="black" points="374,-112.5 374,-131.5 506,-131.5 506,-112.5 374,-112.5"/>
<text text-anchor="middle" x="440" y="-119.5" font-family="FreeSans" font-size="10.00">cantera/thermo/Elements.h</text>
</a>
</g>
</g>
<!-- Node4&#45;&gt;Node6 -->
<g id="edge5" class="edge"><title>Node4&#45;&gt;Node6</title>
<path fill="none" stroke="midnightblue" d="M312.926,-168.444C338.219,-159.399 378.302,-145.064 406.68,-134.916"/>
<polygon fill="midnightblue" stroke="midnightblue" points="407.948,-138.179 416.186,-131.516 405.591,-131.588 407.948,-138.179"/>
</g>
<!-- Node10 -->
<g id="node10" class="node"><title>Node10</title>
<g id="a_node10"><a xlink:href="Species_8h.html" target="_top" xlink:title="Declaration for class Cantera::Species. ">
<polygon fill="white" stroke="black" points="524.5,-112.5 524.5,-131.5 651.5,-131.5 651.5,-112.5 524.5,-112.5"/>
<text text-anchor="middle" x="588" y="-119.5" font-family="FreeSans" font-size="10.00">cantera/thermo/Species.h</text>
</a>
</g>
</g>
<!-- Node4&#45;&gt;Node10 -->
<g id="edge9" class="edge"><title>Node4&#45;&gt;Node10</title>
<path fill="none" stroke="midnightblue" d="M314.751,-172.349C362.485,-163.729 465.747,-145.079 530.77,-133.336"/>
<polygon fill="midnightblue" stroke="midnightblue" points="531.644,-136.735 540.863,-131.513 530.4,-129.846 531.644,-136.735"/>
</g>
<!-- Node11 -->
<g id="node11" class="node"><title>Node11</title>
<g id="a_node11"><a xlink:href="ValueCache_8h.html" target="_top" xlink:title="cantera/base/ValueCache.h">
<polygon fill="white" stroke="red" points="222,-112.5 222,-131.5 356,-131.5 356,-112.5 222,-112.5"/>
<text text-anchor="middle" x="289" y="-119.5" font-family="FreeSans" font-size="10.00">cantera/base/ValueCache.h</text>
</a>
</g>
</g>
<!-- Node4&#45;&gt;Node11 -->
<g id="edge11" class="edge"><title>Node4&#45;&gt;Node11</title>
<path fill="none" stroke="midnightblue" d="M289,-168.083C289,-161.006 289,-150.861 289,-141.986"/>
<polygon fill="midnightblue" stroke="midnightblue" points="292.5,-141.751 289,-131.751 285.5,-141.751 292.5,-141.751"/>
</g>
<!-- Node7 -->
<g id="node7" class="node"><title>Node7</title>
<g id="a_node7"><a xlink:href="ct__defs_8h.html" target="_top" xlink:title="This file contains definitions of terms that are used in internal routines and are unlikely to need m...">
<polygon fill="white" stroke="red" points="307,-56.5 307,-75.5 421,-75.5 421,-56.5 307,-56.5"/>
<text text-anchor="middle" x="364" y="-63.5" font-family="FreeSans" font-size="10.00">cantera/base/ct_defs.h</text>
</a>
</g>
</g>
<!-- Node6&#45;&gt;Node7 -->
<g id="edge6" class="edge"><title>Node6&#45;&gt;Node7</title>
<path fill="none" stroke="midnightblue" d="M427.789,-112.324C416.224,-104.107 398.625,-91.6017 384.839,-81.8069"/>
<polygon fill="midnightblue" stroke="midnightblue" points="386.612,-78.7729 376.433,-75.8339 382.557,-84.4791 386.612,-78.7729"/>
</g>
<!-- Node8 -->
<g id="node8" class="node"><title>Node8</title>
<g id="a_node8"><a xlink:href="config_8h_source.html" target="_top" xlink:title="config.h">
<polygon fill="white" stroke="black" points="409,-0.5 409,-19.5 459,-19.5 459,-0.5 409,-0.5"/>
<text text-anchor="middle" x="434" y="-7.5" font-family="FreeSans" font-size="10.00">config.h</text>
</a>
</g>
</g>
<!-- Node7&#45;&gt;Node8 -->
<g id="edge7" class="edge"><title>Node7&#45;&gt;Node8</title>
<path fill="none" stroke="midnightblue" d="M375.247,-56.324C385.797,-48.1849 401.801,-35.8395 414.442,-26.0874"/>
<polygon fill="midnightblue" stroke="midnightblue" points="416.769,-28.7132 422.549,-19.8339 412.493,-23.1707 416.769,-28.7132"/>
</g>
<!-- Node9 -->
<g id="node9" class="node"><title>Node9</title>
<polygon fill="white" stroke="#bfbfbf" points="272.5,-0.5 272.5,-19.5 315.5,-19.5 315.5,-0.5 272.5,-0.5"/>
<text text-anchor="middle" x="294" y="-7.5" font-family="FreeSans" font-size="10.00">vector</text>
</g>
<!-- Node7&#45;&gt;Node9 -->
<g id="edge8" class="edge"><title>Node7&#45;&gt;Node9</title>
<path fill="none" stroke="midnightblue" d="M352.753,-56.324C342.203,-48.1849 326.199,-35.8395 313.558,-26.0874"/>
<polygon fill="midnightblue" stroke="midnightblue" points="315.507,-23.1707 305.451,-19.8339 311.231,-28.7132 315.507,-23.1707"/>
</g>
<!-- Node10&#45;&gt;Node7 -->
<g id="edge10" class="edge"><title>Node10&#45;&gt;Node7</title>
<path fill="none" stroke="midnightblue" d="M552.507,-112.444C513.676,-103.083 451.344,-88.0561 409.082,-77.868"/>
<polygon fill="midnightblue" stroke="midnightblue" points="409.869,-74.4576 399.327,-75.5164 408.229,-81.2626 409.869,-74.4576"/>
</g>
<!-- Node11&#45;&gt;Node7 -->
<g id="edge12" class="edge"><title>Node11&#45;&gt;Node7</title>
<path fill="none" stroke="midnightblue" d="M301.05,-112.324C312.463,-104.107 329.831,-91.6017 343.435,-81.8069"/>
<polygon fill="midnightblue" stroke="midnightblue" points="345.66,-84.5174 351.731,-75.8339 341.57,-78.8366 345.66,-84.5174"/>
</g>
<!-- Node12&#45;&gt;Node7 -->
<g id="edge14" class="edge"><title>Node12&#45;&gt;Node7</title>
<path fill="none" stroke="midnightblue" d="M111.105,-168.419C80.6617,-156.998 36.6997,-135.493 57,-112 72.4627,-94.1056 211.176,-79.5859 296.769,-72.2316"/>
<polygon fill="midnightblue" stroke="midnightblue" points="297.263,-75.7024 306.932,-71.3705 296.672,-68.7274 297.263,-75.7024"/>
</g>
<!-- Node14&#45;&gt;Node9 -->
<g id="edge17" class="edge"><title>Node14&#45;&gt;Node9</title>
<path fill="none" stroke="midnightblue" d="M171.134,-56.4435C195.912,-47.2792 235.371,-32.6846 262.864,-22.5161"/>
<polygon fill="midnightblue" stroke="midnightblue" points="264.237,-25.74 272.402,-18.9883 261.809,-19.1747 264.237,-25.74"/>
</g>
<!-- Node15&#45;&gt;Node8 -->
<g id="edge19" class="edge"><title>Node15&#45;&gt;Node8</title>
<path fill="none" stroke="midnightblue" d="M715.095,-292.44C704.414,-272.967 680,-223.58 680,-179 680,-179 680,-179 680,-121 680,-29.9639 537.867,-13.7684 469.676,-11.2369"/>
<polygon fill="midnightblue" stroke="midnightblue" points="469.497,-7.73035 459.4,-10.9386 469.294,-14.7274 469.497,-7.73035"/>
</g>
<!-- Node16 -->
<g id="node16" class="node"><title>Node16</title>
<polygon fill="white" stroke="#bfbfbf" points="708,-230.5 708,-249.5 814,-249.5 814,-230.5 708,-230.5"/>
<text text-anchor="middle" x="761" y="-237.5" font-family="FreeSans" font-size="10.00">boost/shared_ptr.hpp</text>
</g>
<!-- Node15&#45;&gt;Node16 -->
<g id="edge20" class="edge"><title>Node15&#45;&gt;Node16</title>
<path fill="none" stroke="midnightblue" d="M725.874,-292.403C731.963,-283.493 741.645,-269.325 749.303,-258.118"/>
<polygon fill="midnightblue" stroke="midnightblue" points="752.384,-259.812 755.137,-249.581 746.605,-255.862 752.384,-259.812"/>
</g>
<!-- Node17 -->
<g id="node17" class="node"><title>Node17</title>
<polygon fill="white" stroke="#bfbfbf" points="832.5,-230.5 832.5,-249.5 949.5,-249.5 949.5,-230.5 832.5,-230.5"/>
<text text-anchor="middle" x="891" y="-237.5" font-family="FreeSans" font-size="10.00">boost/thread/mutex.hpp</text>
</g>
<!-- Node15&#45;&gt;Node17 -->
<g id="edge21" class="edge"><title>Node15&#45;&gt;Node17</title>
<path fill="none" stroke="midnightblue" d="M744.5,-292.403C773.96,-282.067 823.579,-264.656 856.802,-252.999"/>
<polygon fill="midnightblue" stroke="midnightblue" points="858.268,-256.194 866.545,-249.581 855.95,-249.589 858.268,-256.194"/>
</g>
</g>
</svg>
