<?xml version="1.0" encoding="UTF-8" standalone="no"?>
<!DOCTYPE svg PUBLIC "-//W3C//DTD SVG 1.1//EN"
 "http://www.w3.org/Graphics/SVG/1.1/DTD/svg11.dtd">
<!-- Generated by graphviz version 2.40.1 (20161225.0304)
 -->
<!-- Title: KineticsFactory.h Pages: 1 -->
<svg width="1422pt" height="477pt"
 viewBox="0.00 0.00 1421.81 477.00" xmlns="http://www.w3.org/2000/svg" xmlns:xlink="http://www.w3.org/1999/xlink">
<g id="graph0" class="graph" transform="scale(1 1) rotate(0) translate(4 473)">
<title>KineticsFactory.h</title>
<polygon fill="#ffffff" stroke="transparent" points="-4,4 -4,-473 1417.8052,-473 1417.8052,4 -4,4"/>
<!-- Node0 -->
<g id="node1" class="node">
<title>Node0</title>
<polygon fill="#bfbfbf" stroke="#000000" points="683.4229,-450.5 683.4229,-468.5 775.3799,-468.5 775.3799,-450.5 683.4229,-450.5"/>
<text text-anchor="middle" x="729.4014" y="-456.5" font-family="Helvetica,sans-Serif" font-size="10.00" fill="#000000">KineticsFactory.h</text>
</g>
<!-- Node1 -->
<g id="node2" class="node">
<title>Node1</title>
<g id="a_node2"><a xlink:href="Kinetics_8h.html" target="_top" xlink:title="Base class for kinetics managers and also contains the kineticsmgr module documentation (see Kinetics...">
<polygon fill="#ffffff" stroke="#000000" points="575.7241,-395.5 575.7241,-413.5 635.0786,-413.5 635.0786,-395.5 575.7241,-395.5"/>
<text text-anchor="middle" x="605.4014" y="-401.5" font-family="Helvetica,sans-Serif" font-size="10.00" fill="#000000">Kinetics.h</text>
</a>
</g>
</g>
<!-- Node0&#45;&gt;Node1 -->
<g id="edge1" class="edge">
<title>Node0&#45;&gt;Node1</title>
<path fill="none" stroke="#191970" d="M708.9253,-450.4179C688.822,-441.5011 657.9391,-427.803 635.1326,-417.6873"/>
<polygon fill="#191970" stroke="#191970" points="636.4681,-414.4508 625.9079,-413.5956 633.6299,-420.8496 636.4681,-414.4508"/>
</g>
<!-- Node41 -->
<g id="node26" class="node">
<title>Node41</title>
<g id="a_node26"><a xlink:href="FactoryBase_8h.html" target="_top" xlink:title="File contains the FactoryBase class declarations. ">
<polygon fill="#ffffff" stroke="#000000" points="1089.8672,-230.5 1089.8672,-248.5 1230.9355,-248.5 1230.9355,-230.5 1089.8672,-230.5"/>
<text text-anchor="middle" x="1160.4014" y="-236.5" font-family="Helvetica,sans-Serif" font-size="10.00" fill="#000000">cantera/base/FactoryBase.h</text>
</a>
</g>
</g>
<!-- Node0&#45;&gt;Node41 -->
<g id="edge44" class="edge">
<title>Node0&#45;&gt;Node41</title>
<path fill="none" stroke="#191970" d="M747.1006,-450.4656C814.0759,-416.2787 1052.2866,-294.6862 1133.2442,-253.3621"/>
<polygon fill="#191970" stroke="#191970" points="1134.9999,-256.3956 1142.3154,-248.7318 1131.8174,-250.1609 1134.9999,-256.3956"/>
</g>
<!-- Node2 -->
<g id="node3" class="node">
<title>Node2</title>
<g id="a_node3"><a xlink:href="ThermoPhase_8h.html" target="_top" xlink:title="Header file for class ThermoPhase, the base class for phases with thermodynamic properties, and the text for the Module thermoprops (see Thermodynamic Properties and class ThermoPhase). ">
<polygon fill="#ffffff" stroke="#000000" points="649.8105,-340.5 649.8105,-358.5 806.9922,-358.5 806.9922,-340.5 649.8105,-340.5"/>
<text text-anchor="middle" x="728.4014" y="-346.5" font-family="Helvetica,sans-Serif" font-size="10.00" fill="#000000">cantera/thermo/ThermoPhase.h</text>
</a>
</g>
</g>
<!-- Node1&#45;&gt;Node2 -->
<g id="edge2" class="edge">
<title>Node1&#45;&gt;Node2</title>
<path fill="none" stroke="#191970" d="M625.7123,-395.4179C645.6535,-386.5011 676.2873,-372.803 698.9099,-362.6873"/>
<polygon fill="#191970" stroke="#191970" points="700.3601,-365.8728 708.0602,-358.5956 697.5026,-359.4826 700.3601,-365.8728"/>
</g>
<!-- Node21 -->
<g id="node15" class="node">
<title>Node21</title>
<g id="a_node15"><a xlink:href="global_8h.html" target="_top" xlink:title="This file contains definitions for utility functions and text for modules, inputfiles, logs, textlogs, (see Input File Handling, Diagnostic Output, and Writing messages to the screen). ">
<polygon fill="#ffffff" stroke="#000000" points="545.5889,-170.5 545.5889,-188.5 657.2139,-188.5 657.2139,-170.5 545.5889,-170.5"/>
<text text-anchor="middle" x="601.4014" y="-176.5" font-family="Helvetica,sans-Serif" font-size="10.00" fill="#000000">cantera/base/global.h</text>
</a>
</g>
</g>
<!-- Node1&#45;&gt;Node21 -->
<g id="edge43" class="edge">
<title>Node1&#45;&gt;Node21</title>
<path fill="none" stroke="#191970" d="M605.2396,-395.4011C604.6455,-361.9821 602.5755,-245.5442 601.7475,-198.9712"/>
<polygon fill="#191970" stroke="#191970" points="605.2469,-198.8979 601.5696,-188.9617 598.248,-199.0224 605.2469,-198.8979"/>
</g>
<!-- Node31 -->
<g id="node16" class="node">
<title>Node31</title>
<g id="a_node16"><a xlink:href="StoichManager_8h.html" target="_top" xlink:title="StoichManager.h">
<polygon fill="#ffffff" stroke="#000000" points="485.8745,-230.5 485.8745,-248.5 576.9282,-248.5 576.9282,-230.5 485.8745,-230.5"/>
<text text-anchor="middle" x="531.4014" y="-236.5" font-family="Helvetica,sans-Serif" font-size="10.00" fill="#000000">StoichManager.h</text>
</a>
</g>
</g>
<!-- Node1&#45;&gt;Node31 -->
<g id="edge23" class="edge">
<title>Node1&#45;&gt;Node31</title>
<path fill="none" stroke="#191970" d="M601.2108,-395.1561C589.3562,-368.7235 555.4224,-293.0604 539.6479,-257.8875"/>
<polygon fill="#191970" stroke="#191970" points="542.8317,-256.4335 535.546,-248.7414 536.4447,-259.2981 542.8317,-256.4335"/>
</g>
<!-- Node33 -->
<g id="node18" class="node">
<title>Node33</title>
<g id="a_node18"><a xlink:href="Reaction_8h.html" target="_top" xlink:title="cantera/kinetics/Reaction.h">
<polygon fill="#ffffff" stroke="#000000" points="253.3696,-285.5 253.3696,-303.5 389.4331,-303.5 389.4331,-285.5 253.3696,-285.5"/>
<text text-anchor="middle" x="321.4014" y="-291.5" font-family="Helvetica,sans-Serif" font-size="10.00" fill="#000000">cantera/kinetics/Reaction.h</text>
</a>
</g>
</g>
<!-- Node1&#45;&gt;Node33 -->
<g id="edge29" class="edge">
<title>Node1&#45;&gt;Node33</title>
<path fill="none" stroke="#191970" d="M582.1605,-395.4982C531.8177,-375.9993 412.5566,-329.8066 354.4152,-307.2871"/>
<polygon fill="#191970" stroke="#191970" points="355.5525,-303.9742 344.9634,-303.6261 353.0242,-310.5017 355.5525,-303.9742"/>
</g>
<!-- Node3 -->
<g id="node4" class="node">
<title>Node3</title>
<g id="a_node4"><a xlink:href="Phase_8h.html" target="_top" xlink:title="Header file for class Phase. ">
<polygon fill="#ffffff" stroke="#000000" points="855.0542,-230.5 855.0542,-248.5 907.7485,-248.5 907.7485,-230.5 855.0542,-230.5"/>
<text text-anchor="middle" x="881.4014" y="-236.5" font-family="Helvetica,sans-Serif" font-size="10.00" fill="#000000">Phase.h</text>
</a>
</g>
</g>
<!-- Node2&#45;&gt;Node3 -->
<g id="edge3" class="edge">
<title>Node2&#45;&gt;Node3</title>
<path fill="none" stroke="#191970" d="M744.9297,-340.3983C760.4244,-331.6522 784.0392,-317.7681 803.4014,-304 824.9089,-288.7064 848.027,-269.1576 863.4634,-255.6103"/>
<polygon fill="#191970" stroke="#191970" points="866.0247,-258.0171 871.1898,-248.7665 861.3834,-252.7771 866.0247,-258.0171"/>
</g>
<!-- Node28 -->
<g id="node13" class="node">
<title>Node28</title>
<g id="a_node13"><a xlink:href="MultiSpeciesThermo_8h.html" target="_top" xlink:title="Header for a general species thermodynamic property manager for a phase (see MultiSpeciesThermo). ">
<polygon fill="#ffffff" stroke="#000000" points="678.6602,-285.5 678.6602,-303.5 794.1426,-303.5 794.1426,-285.5 678.6602,-285.5"/>
<text text-anchor="middle" x="736.4014" y="-291.5" font-family="Helvetica,sans-Serif" font-size="10.00" fill="#000000">MultiSpeciesThermo.h</text>
</a>
</g>
</g>
<!-- Node2&#45;&gt;Node28 -->
<g id="edge15" class="edge">
<title>Node2&#45;&gt;Node28</title>
<path fill="none" stroke="#191970" d="M729.7224,-340.4179C730.7699,-333.2164 732.271,-322.8962 733.5849,-313.8632"/>
<polygon fill="#191970" stroke="#191970" points="737.0757,-314.1791 735.0516,-303.7795 730.1486,-313.1715 737.0757,-314.1791"/>
</g>
<!-- Node2&#45;&gt;Node21 -->
<g id="edge22" class="edge">
<title>Node2&#45;&gt;Node21</title>
<path fill="none" stroke="#191970" d="M713.4235,-340.4756C700.5765,-332.1876 682.171,-318.9503 669.4014,-304 641.0031,-270.7521 619.2887,-223.7404 608.6459,-198.0466"/>
<polygon fill="#191970" stroke="#191970" points="611.8756,-196.6969 604.8888,-188.7322 605.3838,-199.3155 611.8756,-196.6969"/>
</g>
<!-- Node4 -->
<g id="node5" class="node">
<title>Node4</title>
<g id="a_node5"><a xlink:href="ctexceptions_8h.html" target="_top" xlink:title="Definitions for the classes that are thrown when Cantera experiences an error condition (also contain...">
<polygon fill="#ffffff" stroke="#ff0000" points="675.1406,-170.5 675.1406,-188.5 815.6621,-188.5 815.6621,-170.5 675.1406,-170.5"/>
<text text-anchor="middle" x="745.4014" y="-176.5" font-family="Helvetica,sans-Serif" font-size="10.00" fill="#000000">cantera/base/ctexceptions.h</text>
</a>
</g>
</g>
<!-- Node3&#45;&gt;Node4 -->
<g id="edge4" class="edge">
<title>Node3&#45;&gt;Node4</title>
<path fill="none" stroke="#191970" d="M860.7459,-230.3873C837.9479,-220.3294 801.0551,-204.0531 775.1456,-192.6225"/>
<polygon fill="#191970" stroke="#191970" points="776.3676,-189.3361 765.8056,-188.5019 773.542,-195.7405 776.3676,-189.3361"/>
</g>
<!-- Node18 -->
<g id="node10" class="node">
<title>Node18</title>
<g id="a_node10"><a xlink:href="Elements_8h.html" target="_top" xlink:title="Contains the getElementWeight function and the definitions of element constraint types. ">
<polygon fill="#ffffff" stroke="#000000" points="996.3721,-110.5 996.3721,-128.5 1132.4307,-128.5 1132.4307,-110.5 996.3721,-110.5"/>
<text text-anchor="middle" x="1064.4014" y="-116.5" font-family="Helvetica,sans-Serif" font-size="10.00" fill="#000000">cantera/thermo/Elements.h</text>
</a>
</g>
</g>
<!-- Node3&#45;&gt;Node18 -->
<g id="edge9" class="edge">
<title>Node3&#45;&gt;Node18</title>
<path fill="none" stroke="#191970" d="M895.1561,-230.4805C926.5531,-209.8923 1003.7364,-159.2803 1042.0622,-134.1486"/>
<polygon fill="#191970" stroke="#191970" points="1044.0438,-137.0346 1050.487,-128.6242 1040.2053,-131.1809 1044.0438,-137.0346"/>
</g>
<!-- Node19 -->
<g id="node11" class="node">
<title>Node19</title>
<g id="a_node11"><a xlink:href="Species_8h.html" target="_top" xlink:title="Declaration for class Cantera::Species. ">
<polygon fill="#ffffff" stroke="#ff0000" points="692.4263,-110.5 692.4263,-128.5 822.3765,-128.5 822.3765,-110.5 692.4263,-110.5"/>
<text text-anchor="middle" x="757.4014" y="-116.5" font-family="Helvetica,sans-Serif" font-size="10.00" fill="#000000">cantera/thermo/Species.h</text>
</a>
</g>
</g>
<!-- Node3&#45;&gt;Node19 -->
<g id="edge11" class="edge">
<title>Node3&#45;&gt;Node19</title>
<path fill="none" stroke="#191970" d="M880.7704,-230.0687C879.2649,-214.6489 874.2134,-183.8725 857.4014,-165 843.5722,-149.476 823.3905,-138.923 804.7729,-131.9222"/>
<polygon fill="#191970" stroke="#191970" points="805.8164,-128.5793 795.2216,-128.5775 803.5029,-135.1859 805.8164,-128.5793"/>
</g>
<!-- Node26 -->
<g id="node12" class="node">
<title>Node26</title>
<g id="a_node12"><a xlink:href="ValueCache_8h.html" target="_top" xlink:title="cantera/base/ValueCache.h">
<polygon fill="#ffffff" stroke="#ff0000" points="840.061,-110.5 840.061,-128.5 978.7417,-128.5 978.7417,-110.5 840.061,-110.5"/>
<text text-anchor="middle" x="909.4014" y="-116.5" font-family="Helvetica,sans-Serif" font-size="10.00" fill="#000000">cantera/base/ValueCache.h</text>
</a>
</g>
</g>
<!-- Node3&#45;&gt;Node26 -->
<g id="edge13" class="edge">
<title>Node3&#45;&gt;Node26</title>
<path fill="none" stroke="#191970" d="M884.609,-230.1751C887.6713,-221.0381 892.2704,-206.6774 895.4014,-194 899.9777,-175.47 903.8622,-154.0245 906.3699,-138.9141"/>
<polygon fill="#191970" stroke="#191970" points="909.8726,-139.1767 908.0078,-128.7473 902.9618,-138.0632 909.8726,-139.1767"/>
</g>
<!-- Node5 -->
<g id="node6" class="node">
<title>Node5</title>
<g id="a_node6"><a xlink:href="fmt_8h.html" target="_top" xlink:title="Wrapper for either system&#45;installed or local headers for fmt. ">
<polygon fill="#ffffff" stroke="#ff0000" points="499.9902,-110.5 499.9902,-128.5 598.8125,-128.5 598.8125,-110.5 499.9902,-110.5"/>
<text text-anchor="middle" x="549.4014" y="-116.5" font-family="Helvetica,sans-Serif" font-size="10.00" fill="#000000">cantera/base/fmt.h</text>
</a>
</g>
</g>
<!-- Node4&#45;&gt;Node5 -->
<g id="edge5" class="edge">
<title>Node4&#45;&gt;Node5</title>
<path fill="none" stroke="#191970" d="M715.6332,-170.3873C681.6194,-159.9749 625.8354,-142.8982 588.3808,-131.4325"/>
<polygon fill="#191970" stroke="#191970" points="589.394,-128.0824 578.8075,-128.5019 587.345,-134.7758 589.394,-128.0824"/>
</g>
<!-- Node6 -->
<g id="node7" class="node">
<title>Node6</title>
<g id="a_node7"><a xlink:href="ct__defs_8h.html" target="_top" xlink:title="This file contains definitions of terms that are used in internal routines and are unlikely to need m...">
<polygon fill="#ffffff" stroke="#ff0000" points="598.1108,-55.5 598.1108,-73.5 654.6919,-73.5 654.6919,-55.5 598.1108,-55.5"/>
<text text-anchor="middle" x="626.4014" y="-61.5" font-family="Helvetica,sans-Serif" font-size="10.00" fill="#000000">ct_defs.h</text>
</a>
</g>
</g>
<!-- Node5&#45;&gt;Node6 -->
<g id="edge6" class="edge">
<title>Node5&#45;&gt;Node6</title>
<path fill="none" stroke="#191970" d="M562.1164,-110.4179C573.8196,-102.0584 591.4061,-89.4966 605.2279,-79.6239"/>
<polygon fill="#191970" stroke="#191970" points="607.5645,-82.2561 613.6675,-73.5956 603.4958,-76.56 607.5645,-82.2561"/>
</g>
<!-- Node10 -->
<g id="node8" class="node">
<title>Node10</title>
<polygon fill="#ffffff" stroke="#bfbfbf" points="634.7856,-.5 634.7856,-18.5 678.0171,-18.5 678.0171,-.5 634.7856,-.5"/>
<text text-anchor="middle" x="656.4014" y="-6.5" font-family="Helvetica,sans-Serif" font-size="10.00" fill="#000000">vector</text>
</g>
<!-- Node6&#45;&gt;Node10 -->
<g id="edge7" class="edge">
<title>Node6&#45;&gt;Node10</title>
<path fill="none" stroke="#191970" d="M631.3553,-55.4179C635.456,-47.8998 641.4107,-36.9829 646.4851,-27.6799"/>
<polygon fill="#191970" stroke="#191970" points="649.6239,-29.2344 651.3398,-18.7795 643.4786,-25.8824 649.6239,-29.2344"/>
</g>
<!-- Node12 -->
<g id="node9" class="node">
<title>Node12</title>
<polygon fill="#ffffff" stroke="#bfbfbf" points="495.1748,-.5 495.1748,-18.5 535.6279,-18.5 535.6279,-.5 495.1748,-.5"/>
<text text-anchor="middle" x="515.4014" y="-6.5" font-family="Helvetica,sans-Serif" font-size="10.00" fill="#000000">string</text>
</g>
<!-- Node6&#45;&gt;Node12 -->
<g id="edge8" class="edge">
<title>Node6&#45;&gt;Node12</title>
<path fill="none" stroke="#191970" d="M608.072,-55.4179C590.3173,-46.6205 563.1699,-33.1691 542.8398,-23.0956"/>
<polygon fill="#191970" stroke="#191970" points="544.2723,-19.8994 533.758,-18.5956 541.1644,-26.1716 544.2723,-19.8994"/>
</g>
<!-- Node18&#45;&gt;Node6 -->
<g id="edge10" class="edge">
<title>Node18&#45;&gt;Node6</title>
<path fill="none" stroke="#191970" d="M995.9639,-110.9063C902.859,-99.215 739.3855,-78.6875 665.0968,-69.359"/>
<polygon fill="#191970" stroke="#191970" points="665.1605,-65.8396 654.8023,-68.0663 664.2883,-72.7851 665.1605,-65.8396"/>
</g>
<!-- Node19&#45;&gt;Node6 -->
<g id="edge12" class="edge">
<title>Node19&#45;&gt;Node6</title>
<path fill="none" stroke="#191970" d="M735.7694,-110.4179C714.4364,-101.4613 681.6135,-87.6806 657.4888,-77.552"/>
<polygon fill="#191970" stroke="#191970" points="658.6407,-74.2397 648.0655,-73.5956 655.9309,-80.6939 658.6407,-74.2397"/>
</g>
<!-- Node26&#45;&gt;Node6 -->
<g id="edge14" class="edge">
<title>Node26&#45;&gt;Node6</title>
<path fill="none" stroke="#191970" d="M862.9866,-110.4795C807.6798,-99.7308 716.3019,-81.9718 664.7948,-71.9616"/>
<polygon fill="#191970" stroke="#191970" points="665.2259,-68.48 654.7418,-70.0079 663.8904,-75.3514 665.2259,-68.48"/>
</g>
<!-- Node29 -->
<g id="node14" class="node">
<title>Node29</title>
<g id="a_node14"><a xlink:href="SpeciesThermoInterpType_8h.html" target="_top" xlink:title="Pure Virtual Base class for individual species reference state thermodynamic managers and text for th...">
<polygon fill="#ffffff" stroke="#ff0000" points="672.5889,-230.5 672.5889,-248.5 814.2139,-248.5 814.2139,-230.5 672.5889,-230.5"/>
<text text-anchor="middle" x="743.4014" y="-236.5" font-family="Helvetica,sans-Serif" font-size="10.00" fill="#000000">SpeciesThermoInterpType.h</text>
</a>
</g>
</g>
<!-- Node28&#45;&gt;Node29 -->
<g id="edge16" class="edge">
<title>Node28&#45;&gt;Node29</title>
<path fill="none" stroke="#191970" d="M737.5573,-285.4179C738.4738,-278.2164 739.7873,-267.8962 740.937,-258.8632"/>
<polygon fill="#191970" stroke="#191970" points="744.4297,-259.1414 742.2203,-248.7795 737.4857,-258.2575 744.4297,-259.1414"/>
</g>
<!-- Node29&#45;&gt;Node4 -->
<g id="edge18" class="edge">
<title>Node29&#45;&gt;Node4</title>
<path fill="none" stroke="#191970" d="M743.7051,-230.3873C743.9841,-222.0174 744.4067,-209.3414 744.7602,-198.735"/>
<polygon fill="#191970" stroke="#191970" points="748.2596,-198.8096 745.0948,-188.6985 741.2634,-198.5763 748.2596,-198.8096"/>
</g>
<!-- Node29&#45;&gt;Node6 -->
<g id="edge17" class="edge">
<title>Node29&#45;&gt;Node6</title>
<path fill="none" stroke="#191970" d="M775.2553,-230.4349C793.0882,-223.5472 813.8104,-212.0967 824.4014,-194 830.9115,-182.8761 832.3079,-175.1789 824.4014,-165 784.7259,-113.9219 738.5903,-162.7238 683.4014,-129 664.1543,-117.2389 647.7886,-96.9245 637.5974,-82.2313"/>
<polygon fill="#191970" stroke="#191970" points="640.2704,-79.9295 631.8236,-73.5339 634.4384,-83.801 640.2704,-79.9295"/>
</g>
<!-- Node29&#45;&gt;Node21 -->
<g id="edge19" class="edge">
<title>Node29&#45;&gt;Node21</title>
<path fill="none" stroke="#191970" d="M721.8346,-230.3873C697.926,-220.2851 659.1707,-203.9096 632.101,-192.4717"/>
<polygon fill="#191970" stroke="#191970" points="633.2796,-189.1701 622.7058,-188.5019 630.555,-195.6181 633.2796,-189.1701"/>
</g>
<!-- Node21&#45;&gt;Node5 -->
<g id="edge21" class="edge">
<title>Node21&#45;&gt;Node5</title>
<path fill="none" stroke="#191970" d="M593.5037,-170.3873C585.7153,-161.4007 573.6246,-147.4499 564.0711,-136.4267"/>
<polygon fill="#191970" stroke="#191970" points="566.5676,-133.9631 557.3734,-128.6985 561.2778,-138.5477 566.5676,-133.9631"/>
</g>
<!-- Node21&#45;&gt;Node6 -->
<g id="edge20" class="edge">
<title>Node21&#45;&gt;Node6</title>
<path fill="none" stroke="#191970" d="M603.3631,-170.4761C607.414,-151.842 616.7805,-108.7561 622.2414,-83.6357"/>
<polygon fill="#191970" stroke="#191970" points="625.6751,-84.3167 624.3793,-73.8014 618.8348,-82.8296 625.6751,-84.3167"/>
</g>
<!-- Node31&#45;&gt;Node4 -->
<g id="edge28" class="edge">
<title>Node31&#45;&gt;Node4</title>
<path fill="none" stroke="#191970" d="M563.9034,-230.3873C601.2779,-219.9084 662.7264,-202.6799 703.6228,-191.2136"/>
<polygon fill="#191970" stroke="#191970" points="704.6109,-194.5716 713.2947,-188.5019 702.7211,-187.8315 704.6109,-194.5716"/>
</g>
<!-- Node32 -->
<g id="node17" class="node">
<title>Node32</title>
<g id="a_node17"><a xlink:href="stringUtils_8h.html" target="_top" xlink:title="Contains declarations for string manipulation functions within Cantera. ">
<polygon fill="#ffffff" stroke="#000000" points="398.9854,-170.5 398.9854,-188.5 527.8174,-188.5 527.8174,-170.5 398.9854,-170.5"/>
<text text-anchor="middle" x="463.4014" y="-176.5" font-family="Helvetica,sans-Serif" font-size="10.00" fill="#000000">cantera/base/stringUtils.h</text>
</a>
</g>
</g>
<!-- Node31&#45;&gt;Node32 -->
<g id="edge24" class="edge">
<title>Node31&#45;&gt;Node32</title>
<path fill="none" stroke="#191970" d="M521.0736,-230.3873C510.5893,-221.1364 494.143,-206.625 481.4914,-195.4618"/>
<polygon fill="#191970" stroke="#191970" points="483.6404,-192.6903 473.8263,-188.6985 479.009,-197.9392 483.6404,-192.6903"/>
</g>
<!-- Node32&#45;&gt;Node5 -->
<g id="edge26" class="edge">
<title>Node32&#45;&gt;Node5</title>
<path fill="none" stroke="#191970" d="M476.4629,-170.3873C490.1807,-160.8168 511.9685,-145.6159 528.1636,-134.3171"/>
<polygon fill="#191970" stroke="#191970" points="530.3,-137.0942 536.4987,-128.5019 526.2947,-131.3533 530.3,-137.0942"/>
</g>
<!-- Node32&#45;&gt;Node6 -->
<g id="edge25" class="edge">
<title>Node32&#45;&gt;Node6</title>
<path fill="none" stroke="#191970" d="M464.5899,-170.4775C466.997,-155.7702 473.8044,-126.6064 491.4014,-110 517.7899,-85.0969 558.2676,-73.7936 588.0207,-68.6813"/>
<polygon fill="#191970" stroke="#191970" points="588.7142,-72.1156 598.0568,-67.119 587.6375,-65.1989 588.7142,-72.1156"/>
</g>
<!-- Node32&#45;&gt;Node12 -->
<g id="edge27" class="edge">
<title>Node32&#45;&gt;Node12</title>
<path fill="none" stroke="#191970" d="M463.9781,-170.3533C464.9903,-156.9182 467.5618,-131.1511 473.4014,-110 481.6297,-80.1967 496.4795,-47.4684 506.1365,-27.708"/>
<polygon fill="#191970" stroke="#191970" points="509.327,-29.1528 510.6506,-18.6409 503.0606,-26.033 509.327,-29.1528"/>
</g>
<!-- Node34 -->
<g id="node19" class="node">
<title>Node34</title>
<g id="a_node19"><a xlink:href="utilities_8h.html" target="_top" xlink:title="Various templated functions that carry out common vector operations (see Templated Utility Functions)...">
<polygon fill="#ffffff" stroke="#000000" points="50.6504,-230.5 50.6504,-248.5 166.1523,-248.5 166.1523,-230.5 50.6504,-230.5"/>
<text text-anchor="middle" x="108.4014" y="-236.5" font-family="Helvetica,sans-Serif" font-size="10.00" fill="#000000">cantera/base/utilities.h</text>
</a>
</g>
</g>
<!-- Node33&#45;&gt;Node34 -->
<g id="edge30" class="edge">
<title>Node33&#45;&gt;Node34</title>
<path fill="none" stroke="#191970" d="M286.2287,-285.4179C249.8149,-276.0152 192.8118,-261.2961 153.1971,-251.067"/>
<polygon fill="#191970" stroke="#191970" points="153.8297,-247.6156 143.2722,-248.5042 152.0796,-254.3933 153.8297,-247.6156"/>
</g>
<!-- Node37 -->
<g id="node22" class="node">
<title>Node37</title>
<g id="a_node22"><a xlink:href="RxnRates_8h.html" target="_top" xlink:title="cantera/kinetics/RxnRates.h">
<polygon fill="#ffffff" stroke="#000000" points="326.1504,-230.5 326.1504,-248.5 466.6523,-248.5 466.6523,-230.5 326.1504,-230.5"/>
<text text-anchor="middle" x="396.4014" y="-236.5" font-family="Helvetica,sans-Serif" font-size="10.00" fill="#000000">cantera/kinetics/RxnRates.h</text>
</a>
</g>
</g>
<!-- Node33&#45;&gt;Node37 -->
<g id="edge35" class="edge">
<title>Node33&#45;&gt;Node37</title>
<path fill="none" stroke="#191970" d="M333.7861,-285.4179C345.1854,-277.0584 362.3151,-264.4966 375.7779,-254.6239"/>
<polygon fill="#191970" stroke="#191970" points="378.004,-257.3317 383.9982,-248.5956 373.8644,-251.6869 378.004,-257.3317"/>
</g>
<!-- Node40 -->
<g id="node25" class="node">
<title>Node40</title>
<g id="a_node25"><a xlink:href="Falloff_8h_source.html" target="_top" xlink:title="cantera/kinetics/Falloff.h">
<polygon fill="#ffffff" stroke="#000000" points="184.5757,-230.5 184.5757,-248.5 308.2271,-248.5 308.2271,-230.5 184.5757,-230.5"/>
<text text-anchor="middle" x="246.4014" y="-236.5" font-family="Helvetica,sans-Serif" font-size="10.00" fill="#000000">cantera/kinetics/Falloff.h</text>
</a>
</g>
</g>
<!-- Node33&#45;&gt;Node40 -->
<g id="edge41" class="edge">
<title>Node33&#45;&gt;Node40</title>
<path fill="none" stroke="#191970" d="M309.0166,-285.4179C297.6173,-277.0584 280.4877,-264.4966 267.0249,-254.6239"/>
<polygon fill="#191970" stroke="#191970" points="268.9383,-251.6869 258.8045,-248.5956 264.7988,-257.3317 268.9383,-251.6869"/>
</g>
<!-- Node34&#45;&gt;Node6 -->
<g id="edge31" class="edge">
<title>Node34&#45;&gt;Node6</title>
<path fill="none" stroke="#191970" d="M113.9571,-230.3098C124.083,-214.3891 147.1279,-181.7778 175.4014,-165 246.0515,-123.0753 492.3508,-83.9036 588.005,-69.9171"/>
<polygon fill="#191970" stroke="#191970" points="588.7161,-73.3507 598.1102,-68.4515 587.7113,-66.4232 588.7161,-73.3507"/>
</g>
<!-- Node34&#45;&gt;Node21 -->
<g id="edge32" class="edge">
<title>Node34&#45;&gt;Node21</title>
<path fill="none" stroke="#191970" d="M166.4867,-231.1138C169.5001,-230.7258 172.4855,-230.352 175.4014,-230 335.4797,-210.6778 377.2062,-219.5992 536.4014,-194 542.2518,-193.0592 548.3648,-191.914 554.4009,-190.6839"/>
<polygon fill="#191970" stroke="#191970" points="555.3718,-194.0558 564.4265,-188.5547 553.9175,-187.2086 555.3718,-194.0558"/>
</g>
<!-- Node35 -->
<g id="node20" class="node">
<title>Node35</title>
<polygon fill="#ffffff" stroke="#bfbfbf" points="0,-170.5 0,-188.5 58.8027,-188.5 58.8027,-170.5 0,-170.5"/>
<text text-anchor="middle" x="29.4014" y="-176.5" font-family="Helvetica,sans-Serif" font-size="10.00" fill="#000000">stdexcept</text>
</g>
<!-- Node34&#45;&gt;Node35 -->
<g id="edge33" class="edge">
<title>Node34&#45;&gt;Node35</title>
<path fill="none" stroke="#191970" d="M96.403,-230.3873C83.9184,-220.9054 64.1574,-205.897 49.3251,-194.6319"/>
<polygon fill="#191970" stroke="#191970" points="51.3343,-191.7629 41.2538,-188.5019 47.1005,-197.3374 51.3343,-191.7629"/>
</g>
<!-- Node36 -->
<g id="node21" class="node">
<title>Node36</title>
<polygon fill="#ffffff" stroke="#bfbfbf" points="76.6182,-170.5 76.6182,-188.5 128.1846,-188.5 128.1846,-170.5 76.6182,-170.5"/>
<text text-anchor="middle" x="102.4014" y="-176.5" font-family="Helvetica,sans-Serif" font-size="10.00" fill="#000000">numeric</text>
</g>
<!-- Node34&#45;&gt;Node36 -->
<g id="edge34" class="edge">
<title>Node34&#45;&gt;Node36</title>
<path fill="none" stroke="#191970" d="M107.4901,-230.3873C106.6531,-222.0174 105.3855,-209.3414 104.3249,-198.735"/>
<polygon fill="#191970" stroke="#191970" points="107.799,-198.3005 103.3212,-188.6985 100.8337,-198.9971 107.799,-198.3005"/>
</g>
<!-- Node37&#45;&gt;Node4 -->
<g id="edge38" class="edge">
<title>Node37&#45;&gt;Node4</title>
<path fill="none" stroke="#191970" d="M451.2562,-230.4965C505.837,-221.4813 591.9636,-207.1027 666.4014,-194 673.0448,-192.8306 679.9984,-191.5854 686.9078,-190.3348"/>
<polygon fill="#191970" stroke="#191970" points="687.7455,-193.7399 696.9577,-188.5068 686.4928,-186.8529 687.7455,-193.7399"/>
</g>
<!-- Node37&#45;&gt;Node32 -->
<g id="edge39" class="edge">
<title>Node37&#45;&gt;Node32</title>
<path fill="none" stroke="#191970" d="M406.5772,-230.3873C416.9074,-221.1364 433.1118,-206.625 445.5773,-195.4618"/>
<polygon fill="#191970" stroke="#191970" points="448.0151,-197.977 453.1297,-188.6985 443.3453,-192.7624 448.0151,-197.977"/>
</g>
<!-- Node38 -->
<g id="node23" class="node">
<title>Node38</title>
<g id="a_node23"><a xlink:href="reaction__defs_8h.html" target="_top" xlink:title="This file defines some constants used to specify reaction types. ">
<polygon fill="#ffffff" stroke="#000000" points="184.4854,-165.5 184.4854,-193.5 308.3174,-193.5 308.3174,-165.5 184.4854,-165.5"/>
<text text-anchor="start" x="192.4854" y="-181.5" font-family="Helvetica,sans-Serif" font-size="10.00" fill="#000000">cantera/kinetics/reaction</text>
<text text-anchor="middle" x="246.4014" y="-171.5" font-family="Helvetica,sans-Serif" font-size="10.00" fill="#000000">_defs.h</text>
</a>
</g>
</g>
<!-- Node37&#45;&gt;Node38 -->
<g id="edge36" class="edge">
<title>Node37&#45;&gt;Node38</title>
<path fill="none" stroke="#191970" d="M373.6196,-230.3873C351.699,-221.619 317.9636,-208.1249 290.7394,-197.2352"/>
<polygon fill="#191970" stroke="#191970" points="291.9961,-193.9683 281.4114,-193.504 289.3963,-200.4677 291.9961,-193.9683"/>
</g>
<!-- Node39 -->
<g id="node24" class="node">
<title>Node39</title>
<polygon fill="#ffffff" stroke="#bfbfbf" points="326.229,-170.5 326.229,-188.5 380.5737,-188.5 380.5737,-170.5 326.229,-170.5"/>
<text text-anchor="middle" x="353.4014" y="-176.5" font-family="Helvetica,sans-Serif" font-size="10.00" fill="#000000">iostream</text>
</g>
<!-- Node37&#45;&gt;Node39 -->
<g id="edge40" class="edge">
<title>Node37&#45;&gt;Node39</title>
<path fill="none" stroke="#191970" d="M389.8706,-230.3873C383.5565,-221.5769 373.8229,-207.9951 365.9992,-197.0784"/>
<polygon fill="#191970" stroke="#191970" points="368.6637,-194.7878 359.9936,-188.6985 362.974,-198.8655 368.6637,-194.7878"/>
</g>
<!-- Node38&#45;&gt;Node6 -->
<g id="edge37" class="edge">
<title>Node38&#45;&gt;Node6</title>
<path fill="none" stroke="#191970" d="M292.0215,-165.4147C337.8354,-151.2973 410.4659,-128.9921 473.4014,-110 512.3732,-98.2394 556.9963,-84.9944 587.9536,-75.8407"/>
<polygon fill="#191970" stroke="#191970" points="589.3022,-79.0918 597.9004,-72.9013 587.3184,-72.3788 589.3022,-79.0918"/>
</g>
<!-- Node40&#45;&gt;Node38 -->
<g id="edge42" class="edge">
<title>Node40&#45;&gt;Node38</title>
<path fill="none" stroke="#191970" d="M246.4014,-230.3873C246.4014,-223.3369 246.4014,-213.2311 246.4014,-203.8806"/>
<polygon fill="#191970" stroke="#191970" points="249.9015,-203.8476 246.4014,-193.8477 242.9015,-203.8477 249.9015,-203.8476"/>
</g>
<!-- Node41&#45;&gt;Node4 -->
<g id="edge49" class="edge">
<title>Node41&#45;&gt;Node4</title>
<path fill="none" stroke="#191970" d="M1097.8223,-230.4524C1022.6897,-219.5899 896.9265,-201.4072 817.711,-189.9544"/>
<polygon fill="#191970" stroke="#191970" points="818.2079,-186.4899 807.81,-188.5229 817.2062,-193.4179 818.2079,-186.4899"/>
</g>
<!-- Node41&#45;&gt;Node10 -->
<g id="edge45" class="edge">
<title>Node41&#45;&gt;Node10</title>
<path fill="none" stroke="#191970" d="M1162.2448,-230.1641C1166.3189,-206.5452 1173.3605,-143.8906 1141.4014,-110 1078.7091,-43.5189 785.8295,-18.155 688.1785,-11.4584"/>
<polygon fill="#191970" stroke="#191970" points="688.2526,-7.9556 678.0419,-10.7828 687.787,-14.9401 688.2526,-7.9556"/>
</g>
<!-- Node41&#45;&gt;Node21 -->
<g id="edge50" class="edge">
<title>Node41&#45;&gt;Node21</title>
<path fill="none" stroke="#191970" d="M1089.6984,-235.8321C993.4876,-230.194 816.1519,-217.501 666.4014,-194 660.4743,-193.0698 654.2794,-191.921 648.1688,-190.6804"/>
<polygon fill="#191970" stroke="#191970" points="648.5355,-187.1803 638.0268,-188.5282 647.0824,-194.0279 648.5355,-187.1803"/>
</g>
<!-- Node42 -->
<g id="node27" class="node">
<title>Node42</title>
<polygon fill="#ffffff" stroke="#bfbfbf" points="1188.7856,-170.5 1188.7856,-188.5 1232.0171,-188.5 1232.0171,-170.5 1188.7856,-170.5"/>
<text text-anchor="middle" x="1210.4014" y="-176.5" font-family="Helvetica,sans-Serif" font-size="10.00" fill="#000000">mutex</text>
</g>
<!-- Node41&#45;&gt;Node42 -->
<g id="edge46" class="edge">
<title>Node41&#45;&gt;Node42</title>
<path fill="none" stroke="#191970" d="M1167.9953,-230.3873C1175.4841,-221.4007 1187.1098,-207.4499 1196.2958,-196.4267"/>
<polygon fill="#191970" stroke="#191970" points="1199.0229,-198.6214 1202.736,-188.6985 1193.6453,-194.14 1199.0229,-198.6214"/>
</g>
<!-- Node22 -->
<g id="node28" class="node">
<title>Node22</title>
<polygon fill="#ffffff" stroke="#bfbfbf" points="1250.0986,-170.5 1250.0986,-188.5 1336.7041,-188.5 1336.7041,-170.5 1250.0986,-170.5"/>
<text text-anchor="middle" x="1293.4014" y="-176.5" font-family="Helvetica,sans-Serif" font-size="10.00" fill="#000000">unordered_map</text>
</g>
<!-- Node41&#45;&gt;Node22 -->
<g id="edge47" class="edge">
<title>Node41&#45;&gt;Node22</title>
<path fill="none" stroke="#191970" d="M1180.6012,-230.3873C1202.8963,-220.3294 1238.9753,-204.0531 1264.3132,-192.6225"/>
<polygon fill="#191970" stroke="#191970" points="1265.7711,-195.8045 1273.4472,-188.5019 1262.8926,-189.4237 1265.7711,-195.8045"/>
</g>
<!-- Node43 -->
<g id="node29" class="node">
<title>Node43</title>
<polygon fill="#ffffff" stroke="#bfbfbf" points="1354.9976,-170.5 1354.9976,-188.5 1413.8052,-188.5 1413.8052,-170.5 1354.9976,-170.5"/>
<text text-anchor="middle" x="1384.4014" y="-176.5" font-family="Helvetica,sans-Serif" font-size="10.00" fill="#000000">functional</text>
</g>
<!-- Node41&#45;&gt;Node43 -->
<g id="edge48" class="edge">
<title>Node41&#45;&gt;Node43</title>
<path fill="none" stroke="#191970" d="M1203.0283,-230.4773C1240.7709,-222.1429 1297.1931,-208.8365 1345.4014,-194 1347.533,-193.344 1349.7178,-192.6353 1351.9118,-191.8961"/>
<polygon fill="#191970" stroke="#191970" points="1353.1884,-195.1573 1361.4545,-188.5299 1350.8597,-188.5559 1353.1884,-195.1573"/>
</g>
</g>
</svg>
