<?xml version="1.0" encoding="UTF-8" standalone="no"?>
<!DOCTYPE svg PUBLIC "-//W3C//DTD SVG 1.1//EN"
 "http://www.w3.org/Graphics/SVG/1.1/DTD/svg11.dtd">
<!-- Generated by graphviz version 2.38.0 (20151222.1943)
 -->
<!-- Title: KineticsFactory.h Pages: 1 -->
<svg width="1324pt" height="386pt"
 viewBox="0.00 0.00 1323.50 386.00" xmlns="http://www.w3.org/2000/svg" xmlns:xlink="http://www.w3.org/1999/xlink">
<g id="graph0" class="graph" transform="scale(1 1) rotate(0) translate(4 382)">
<title>KineticsFactory.h</title>
<polygon fill="white" stroke="none" points="-4,4 -4,-382 1319.5,-382 1319.5,4 -4,4"/>
<!-- Node1 -->
<g id="node1" class="node"><title>Node1</title>
<polygon fill="#bfbfbf" stroke="black" points="890,-358.5 890,-377.5 981,-377.5 981,-358.5 890,-358.5"/>
<text text-anchor="middle" x="935.5" y="-365.5" font-family="FreeSans" font-size="10.00">KineticsFactory.h</text>
</g>
<!-- Node2 -->
<g id="node2" class="node"><title>Node2</title>
<g id="a_node2"><a xlink:href="Kinetics_8h.html" target="_top" xlink:title="Base class for kinetics managers and also contains the kineticsmgr module documentation (see Kinetics...">
<polygon fill="white" stroke="black" points="679,-302.5 679,-321.5 738,-321.5 738,-302.5 679,-302.5"/>
<text text-anchor="middle" x="708.5" y="-309.5" font-family="FreeSans" font-size="10.00">Kinetics.h</text>
</a>
</g>
</g>
<!-- Node1&#45;&gt;Node2 -->
<g id="edge1" class="edge"><title>Node1&#45;&gt;Node2</title>
<path fill="none" stroke="midnightblue" d="M899.531,-358.444C858.213,-348.615 790.637,-332.539 747.92,-322.377"/>
<polygon fill="midnightblue" stroke="midnightblue" points="748.69,-318.963 738.152,-320.054 747.07,-325.773 748.69,-318.963"/>
</g>
<!-- Node26 -->
<g id="node26" class="node"><title>Node26</title>
<g id="a_node26"><a xlink:href="FactoryBase_8h.html" target="_top" xlink:title="File contains the FactoryBase class declarations. ">
<polygon fill="white" stroke="black" points="1056,-302.5 1056,-321.5 1193,-321.5 1193,-302.5 1056,-302.5"/>
<text text-anchor="middle" x="1124.5" y="-309.5" font-family="FreeSans" font-size="10.00">cantera/base/FactoryBase.h</text>
</a>
</g>
</g>
<!-- Node1&#45;&gt;Node26 -->
<g id="edge42" class="edge"><title>Node1&#45;&gt;Node26</title>
<path fill="none" stroke="midnightblue" d="M965.448,-358.444C997.658,-349.241 1049.03,-334.562 1084.64,-324.388"/>
<polygon fill="midnightblue" stroke="midnightblue" points="1086.04,-327.629 1094.69,-321.516 1084.12,-320.898 1086.04,-327.629"/>
</g>
<!-- Node3 -->
<g id="node3" class="node"><title>Node3</title>
<g id="a_node3"><a xlink:href="ThermoPhase_8h.html" target="_top" xlink:title="Header file for class ThermoPhase, the base class for phases with thermodynamic properties, and the text for the Module thermoprops (see Thermodynamic Properties and class ThermoPhase). ">
<polygon fill="white" stroke="black" points="791.5,-241 791.5,-260 943.5,-260 943.5,-241 791.5,-241"/>
<text text-anchor="middle" x="867.5" y="-248" font-family="FreeSans" font-size="10.00">cantera/thermo/ThermoPhase.h</text>
</a>
</g>
</g>
<!-- Node2&#45;&gt;Node3 -->
<g id="edge2" class="edge"><title>Node2&#45;&gt;Node3</title>
<path fill="none" stroke="midnightblue" d="M731.281,-302.475C758.555,-292.269 804.413,-275.108 835.301,-263.549"/>
<polygon fill="midnightblue" stroke="midnightblue" points="836.622,-266.792 844.761,-260.009 834.169,-260.236 836.622,-266.792"/>
</g>
<!-- Node14 -->
<g id="node14" class="node"><title>Node14</title>
<g id="a_node14"><a xlink:href="global_8h.html" target="_top" xlink:title="This file contains definitions for utility functions and text for modules, inputfiles, logs, textlogs, (see Input File Handling, Diagnostic Output, and Writing messages to the screen). ">
<polygon fill="white" stroke="black" points="693.5,-118 693.5,-137 801.5,-137 801.5,-118 693.5,-118"/>
<text text-anchor="middle" x="747.5" y="-125" font-family="FreeSans" font-size="10.00">cantera/base/global.h</text>
</a>
</g>
</g>
<!-- Node2&#45;&gt;Node14 -->
<g id="edge41" class="edge"><title>Node2&#45;&gt;Node14</title>
<path fill="none" stroke="midnightblue" d="M713.246,-302.311C717.874,-293.444 724.749,-279.155 728.5,-266 740.3,-224.616 744.883,-174.062 746.576,-147.268"/>
<polygon fill="midnightblue" stroke="midnightblue" points="750.084,-147.221 747.151,-137.041 743.095,-146.828 750.084,-147.221"/>
</g>
<!-- Node15 -->
<g id="node15" class="node"><title>Node15</title>
<g id="a_node15"><a xlink:href="StoichManager_8h.html" target="_top" xlink:title="StoichManager.h">
<polygon fill="white" stroke="black" points="107,-179.5 107,-198.5 196,-198.5 196,-179.5 107,-179.5"/>
<text text-anchor="middle" x="151.5" y="-186.5" font-family="FreeSans" font-size="10.00">StoichManager.h</text>
</a>
</g>
</g>
<!-- Node2&#45;&gt;Node15 -->
<g id="edge20" class="edge"><title>Node2&#45;&gt;Node15</title>
<path fill="none" stroke="midnightblue" d="M678.666,-307.974C624.174,-302.134 505.076,-287.918 406.5,-266 326.09,-248.121 233.978,-218.276 185.479,-201.809"/>
<polygon fill="midnightblue" stroke="midnightblue" points="186.407,-198.427 175.812,-198.507 184.144,-205.051 186.407,-198.427"/>
</g>
<!-- Node17 -->
<g id="node17" class="node"><title>Node17</title>
<g id="a_node17"><a xlink:href="mix__defs_8h.html" target="_top" xlink:title="cantera/thermo/mix\l_defs.h">
<polygon fill="white" stroke="black" points="619.5,-235.5 619.5,-265.5 719.5,-265.5 719.5,-235.5 619.5,-235.5"/>
<text text-anchor="start" x="627.5" y="-253.5" font-family="FreeSans" font-size="10.00">cantera/thermo/mix</text>
<text text-anchor="middle" x="669.5" y="-242.5" font-family="FreeSans" font-size="10.00">_defs.h</text>
</a>
</g>
</g>
<!-- Node2&#45;&gt;Node17 -->
<g id="edge26" class="edge"><title>Node2&#45;&gt;Node17</title>
<path fill="none" stroke="midnightblue" d="M702.912,-302.475C698.075,-295.094 690.853,-284.077 684.36,-274.171"/>
<polygon fill="midnightblue" stroke="midnightblue" points="687.101,-271.968 678.692,-265.523 681.246,-275.805 687.101,-271.968"/>
</g>
<!-- Node18 -->
<g id="node18" class="node"><title>Node18</title>
<g id="a_node18"><a xlink:href="Reaction_8h.html" target="_top" xlink:title="cantera/kinetics/Reaction.h">
<polygon fill="white" stroke="black" points="415.5,-241 415.5,-260 549.5,-260 549.5,-241 415.5,-241"/>
<text text-anchor="middle" x="482.5" y="-248" font-family="FreeSans" font-size="10.00">cantera/kinetics/Reaction.h</text>
</a>
</g>
</g>
<!-- Node2&#45;&gt;Node18 -->
<g id="edge27" class="edge"><title>Node2&#45;&gt;Node18</title>
<path fill="none" stroke="midnightblue" d="M678.954,-303.221C639.577,-292.854 569.651,-274.445 524.72,-262.615"/>
<polygon fill="midnightblue" stroke="midnightblue" points="525.54,-259.212 514.978,-260.051 523.757,-265.981 525.54,-259.212"/>
</g>
<!-- Node4 -->
<g id="node4" class="node"><title>Node4</title>
<g id="a_node4"><a xlink:href="Phase_8h.html" target="_top" xlink:title="Header file for class Phase. ">
<polygon fill="white" stroke="black" points="858,-179.5 858,-198.5 909,-198.5 909,-179.5 858,-179.5"/>
<text text-anchor="middle" x="883.5" y="-186.5" font-family="FreeSans" font-size="10.00">Phase.h</text>
</a>
</g>
</g>
<!-- Node3&#45;&gt;Node4 -->
<g id="edge3" class="edge"><title>Node3&#45;&gt;Node4</title>
<path fill="none" stroke="midnightblue" d="M869.792,-240.975C872.074,-232.492 875.647,-219.204 878.573,-208.322"/>
<polygon fill="midnightblue" stroke="midnightblue" points="881.995,-209.075 881.212,-198.509 875.235,-207.257 881.995,-209.075"/>
</g>
<!-- Node13 -->
<g id="node13" class="node"><title>Node13</title>
<g id="a_node13"><a xlink:href="SpeciesThermo_8h.html" target="_top" xlink:title="Virtual base class for the calculation of multiple&#45;species thermodynamic reference&#45;state property man...">
<polygon fill="white" stroke="black" points="1061.5,-179.5 1061.5,-198.5 1153.5,-198.5 1153.5,-179.5 1061.5,-179.5"/>
<text text-anchor="middle" x="1107.5" y="-186.5" font-family="FreeSans" font-size="10.00">SpeciesThermo.h</text>
</a>
</g>
</g>
<!-- Node3&#45;&gt;Node13 -->
<g id="edge15" class="edge"><title>Node3&#45;&gt;Node13</title>
<path fill="none" stroke="midnightblue" d="M901.886,-240.975C944.391,-230.437 1016.8,-212.486 1063.37,-200.941"/>
<polygon fill="midnightblue" stroke="midnightblue" points="1064.31,-204.313 1073.18,-198.509 1062.63,-197.518 1064.31,-204.313"/>
</g>
<!-- Node3&#45;&gt;Node14 -->
<g id="edge17" class="edge"><title>Node3&#45;&gt;Node14</title>
<path fill="none" stroke="midnightblue" d="M858.87,-240.798C838.805,-220.566 788.778,-170.122 763.159,-144.289"/>
<polygon fill="midnightblue" stroke="midnightblue" points="765.579,-141.759 756.052,-137.123 760.608,-146.688 765.579,-141.759"/>
</g>
<!-- Node5 -->
<g id="node5" class="node"><title>Node5</title>
<g id="a_node5"><a xlink:href="ctexceptions_8h.html" target="_top" xlink:title="Definitions for the classes that are thrown when Cantera experiences an error condition (also contain...">
<polygon fill="white" stroke="red" points="214,-118 214,-137 351,-137 351,-118 214,-118"/>
<text text-anchor="middle" x="282.5" y="-125" font-family="FreeSans" font-size="10.00">cantera/base/ctexceptions.h</text>
</a>
</g>
</g>
<!-- Node4&#45;&gt;Node5 -->
<g id="edge4" class="edge"><title>Node4&#45;&gt;Node5</title>
<path fill="none" stroke="midnightblue" d="M857.824,-186.684C781.685,-182.591 550.597,-168.784 360.5,-143 351.965,-141.842 342.946,-140.385 334.189,-138.844"/>
<polygon fill="midnightblue" stroke="midnightblue" points="334.537,-135.35 324.073,-137.009 333.287,-142.237 334.537,-135.35"/>
</g>
<!-- Node8 -->
<g id="node8" class="node"><title>Node8</title>
<g id="a_node8"><a xlink:href="Elements_8h.html" target="_top" xlink:title="Contains the LookupWtElements function and the definitions of element constraint types. ">
<polygon fill="white" stroke="black" points="1117.5,-118 1117.5,-137 1249.5,-137 1249.5,-118 1117.5,-118"/>
<text text-anchor="middle" x="1183.5" y="-125" font-family="FreeSans" font-size="10.00">cantera/thermo/Elements.h</text>
</a>
</g>
</g>
<!-- Node4&#45;&gt;Node8 -->
<g id="edge7" class="edge"><title>Node4&#45;&gt;Node8</title>
<path fill="none" stroke="midnightblue" d="M909.078,-182.927C957.969,-173.23 1065.59,-151.885 1130.59,-138.995"/>
<polygon fill="midnightblue" stroke="midnightblue" points="1131.51,-142.38 1140.63,-137.002 1130.14,-135.514 1131.51,-142.38"/>
</g>
<!-- Node11 -->
<g id="node11" class="node"><title>Node11</title>
<g id="a_node11"><a xlink:href="Species_8h.html" target="_top" xlink:title="Declaration for class Cantera::Species. ">
<polygon fill="white" stroke="black" points="820,-118 820,-137 947,-137 947,-118 820,-118"/>
<text text-anchor="middle" x="883.5" y="-125" font-family="FreeSans" font-size="10.00">cantera/thermo/Species.h</text>
</a>
</g>
</g>
<!-- Node4&#45;&gt;Node11 -->
<g id="edge11" class="edge"><title>Node4&#45;&gt;Node11</title>
<path fill="none" stroke="midnightblue" d="M883.5,-179.475C883.5,-171.08 883.5,-157.981 883.5,-147.163"/>
<polygon fill="midnightblue" stroke="midnightblue" points="887,-147.009 883.5,-137.009 880,-147.009 887,-147.009"/>
</g>
<!-- Node12 -->
<g id="node12" class="node"><title>Node12</title>
<g id="a_node12"><a xlink:href="ValueCache_8h.html" target="_top" xlink:title="cantera/base/ValueCache.h">
<polygon fill="white" stroke="red" points="965.5,-118 965.5,-137 1099.5,-137 1099.5,-118 965.5,-118"/>
<text text-anchor="middle" x="1032.5" y="-125" font-family="FreeSans" font-size="10.00">cantera/base/ValueCache.h</text>
</a>
</g>
</g>
<!-- Node4&#45;&gt;Node12 -->
<g id="edge13" class="edge"><title>Node4&#45;&gt;Node12</title>
<path fill="none" stroke="midnightblue" d="M904.848,-179.475C930.186,-169.357 972.638,-152.405 1001.57,-140.851"/>
<polygon fill="midnightblue" stroke="midnightblue" points="1003.2,-143.968 1011.19,-137.009 1000.61,-137.467 1003.2,-143.968"/>
</g>
<!-- Node6 -->
<g id="node6" class="node"><title>Node6</title>
<polygon fill="white" stroke="#bfbfbf" points="307.5,-0.5 307.5,-19.5 347.5,-19.5 347.5,-0.5 307.5,-0.5"/>
<text text-anchor="middle" x="327.5" y="-7.5" font-family="FreeSans" font-size="10.00">string</text>
</g>
<!-- Node5&#45;&gt;Node6 -->
<g id="edge5" class="edge"><title>Node5&#45;&gt;Node6</title>
<path fill="none" stroke="midnightblue" d="M287.369,-117.758C292.763,-107.842 301.49,-91.0866 307.5,-76 313.644,-60.5754 319.073,-42.4832 322.719,-29.3083"/>
<polygon fill="midnightblue" stroke="midnightblue" points="326.122,-30.1304 325.338,-19.5646 319.362,-28.3132 326.122,-30.1304"/>
</g>
<!-- Node7 -->
<g id="node7" class="node"><title>Node7</title>
<polygon fill="white" stroke="#bfbfbf" points="196,-56.5 196,-75.5 299,-75.5 299,-56.5 196,-56.5"/>
<text text-anchor="middle" x="247.5" y="-63.5" font-family="FreeSans" font-size="10.00">cantera/ext/format.h</text>
</g>
<!-- Node5&#45;&gt;Node7 -->
<g id="edge6" class="edge"><title>Node5&#45;&gt;Node7</title>
<path fill="none" stroke="midnightblue" d="M277.485,-117.975C272.339,-109.227 264.188,-95.3691 257.682,-84.3093"/>
<polygon fill="midnightblue" stroke="midnightblue" points="260.592,-82.3539 252.505,-75.5091 254.559,-85.903 260.592,-82.3539"/>
</g>
<!-- Node9 -->
<g id="node9" class="node"><title>Node9</title>
<g id="a_node9"><a xlink:href="ct__defs_8h.html" target="_top" xlink:title="This file contains definitions of terms that are used in internal routines and are unlikely to need m...">
<polygon fill="white" stroke="red" points="758.5,-56.5 758.5,-75.5 872.5,-75.5 872.5,-56.5 758.5,-56.5"/>
<text text-anchor="middle" x="815.5" y="-63.5" font-family="FreeSans" font-size="10.00">cantera/base/ct_defs.h</text>
</a>
</g>
</g>
<!-- Node8&#45;&gt;Node9 -->
<g id="edge8" class="edge"><title>Node8&#45;&gt;Node9</title>
<path fill="none" stroke="midnightblue" d="M1140.72,-117.933C1130.2,-115.908 1118.95,-113.813 1108.5,-112 1031.21,-98.5977 942.077,-85.2013 882.612,-76.5555"/>
<polygon fill="midnightblue" stroke="midnightblue" points="882.996,-73.0747 872.598,-75.1037 881.992,-80.0023 882.996,-73.0747"/>
</g>
<!-- Node9&#45;&gt;Node6 -->
<g id="edge10" class="edge"><title>Node9&#45;&gt;Node6</title>
<path fill="none" stroke="midnightblue" d="M758.085,-58.6467C654.132,-47.1437 438.102,-23.2387 358.135,-14.3899"/>
<polygon fill="midnightblue" stroke="midnightblue" points="358.104,-10.8653 347.78,-13.2441 357.334,-17.8228 358.104,-10.8653"/>
</g>
<!-- Node10 -->
<g id="node10" class="node"><title>Node10</title>
<polygon fill="white" stroke="#bfbfbf" points="1044,-0.5 1044,-19.5 1087,-19.5 1087,-0.5 1044,-0.5"/>
<text text-anchor="middle" x="1065.5" y="-7.5" font-family="FreeSans" font-size="10.00">vector</text>
</g>
<!-- Node9&#45;&gt;Node10 -->
<g id="edge9" class="edge"><title>Node9&#45;&gt;Node10</title>
<path fill="none" stroke="midnightblue" d="M855.113,-56.4435C904.673,-45.7385 988.537,-27.6241 1033.97,-17.8098"/>
<polygon fill="midnightblue" stroke="midnightblue" points="1034.82,-21.2074 1043.86,-15.6749 1033.34,-14.3652 1034.82,-21.2074"/>
</g>
<!-- Node11&#45;&gt;Node9 -->
<g id="edge12" class="edge"><title>Node11&#45;&gt;Node9</title>
<path fill="none" stroke="midnightblue" d="M873.757,-117.975C863.153,-108.697 845.981,-93.6706 833.021,-82.331"/>
<polygon fill="midnightblue" stroke="midnightblue" points="835.055,-79.4601 825.225,-75.5091 830.446,-84.7282 835.055,-79.4601"/>
</g>
<!-- Node12&#45;&gt;Node9 -->
<g id="edge14" class="edge"><title>Node12&#45;&gt;Node9</title>
<path fill="none" stroke="midnightblue" d="M1001.41,-117.975C963.219,-107.504 898.331,-89.7118 856.201,-78.1601"/>
<polygon fill="midnightblue" stroke="midnightblue" points="857.103,-74.7781 846.533,-75.5091 855.252,-81.5289 857.103,-74.7781"/>
</g>
<!-- Node13&#45;&gt;Node9 -->
<g id="edge16" class="edge"><title>Node13&#45;&gt;Node9</title>
<path fill="none" stroke="midnightblue" d="M1153.63,-181.434C1209.73,-171.63 1292.93,-150.108 1258.5,-112 1233.82,-84.6901 1000.68,-73.1089 882.908,-68.9686"/>
<polygon fill="midnightblue" stroke="midnightblue" points="883.026,-65.4707 872.912,-68.6254 882.786,-72.4666 883.026,-65.4707"/>
</g>
<!-- Node14&#45;&gt;Node7 -->
<g id="edge19" class="edge"><title>Node14&#45;&gt;Node7</title>
<path fill="none" stroke="midnightblue" d="M693.28,-118.498C677.853,-116.301 661.025,-113.981 645.5,-112 526.674,-96.8396 387.548,-81.706 309.248,-73.4278"/>
<polygon fill="midnightblue" stroke="midnightblue" points="309.389,-69.9233 299.077,-72.3549 308.654,-76.8847 309.389,-69.9233"/>
</g>
<!-- Node14&#45;&gt;Node9 -->
<g id="edge18" class="edge"><title>Node14&#45;&gt;Node9</title>
<path fill="none" stroke="midnightblue" d="M757.243,-117.975C767.847,-108.697 785.019,-93.6706 797.979,-82.331"/>
<polygon fill="midnightblue" stroke="midnightblue" points="800.554,-84.7282 805.775,-75.5091 795.945,-79.4601 800.554,-84.7282"/>
</g>
<!-- Node15&#45;&gt;Node5 -->
<g id="edge25" class="edge"><title>Node15&#45;&gt;Node5</title>
<path fill="none" stroke="midnightblue" d="M170.269,-179.475C192.351,-169.445 229.219,-152.7 254.639,-141.155"/>
<polygon fill="midnightblue" stroke="midnightblue" points="256.108,-144.331 263.766,-137.009 253.213,-137.958 256.108,-144.331"/>
</g>
<!-- Node16 -->
<g id="node16" class="node"><title>Node16</title>
<g id="a_node16"><a xlink:href="stringUtils_8h.html" target="_top" xlink:title="Contains declarations for string manipulation functions within Cantera. ">
<polygon fill="white" stroke="black" points="0,-118 0,-137 125,-137 125,-118 0,-118"/>
<text text-anchor="middle" x="62.5" y="-125" font-family="FreeSans" font-size="10.00">cantera/base/stringUtils.h</text>
</a>
</g>
</g>
<!-- Node15&#45;&gt;Node16 -->
<g id="edge21" class="edge"><title>Node15&#45;&gt;Node16</title>
<path fill="none" stroke="midnightblue" d="M138.748,-179.475C124.473,-169.931 101.103,-154.307 83.9921,-142.868"/>
<polygon fill="midnightblue" stroke="midnightblue" points="85.4864,-139.657 75.2279,-137.009 81.596,-145.477 85.4864,-139.657"/>
</g>
<!-- Node16&#45;&gt;Node6 -->
<g id="edge24" class="edge"><title>Node16&#45;&gt;Node6</title>
<path fill="none" stroke="midnightblue" d="M75.4245,-117.946C97.4707,-103.636 144.084,-74.5843 186.5,-56 223.602,-39.7441 268.476,-26.4449 297.482,-18.6251"/>
<polygon fill="midnightblue" stroke="midnightblue" points="298.636,-21.9402 307.406,-15.9967 296.843,-15.1735 298.636,-21.9402"/>
</g>
<!-- Node16&#45;&gt;Node7 -->
<g id="edge23" class="edge"><title>Node16&#45;&gt;Node7</title>
<path fill="none" stroke="midnightblue" d="M89.006,-117.975C121.152,-107.636 175.487,-90.1611 211.427,-78.6017"/>
<polygon fill="midnightblue" stroke="midnightblue" points="212.595,-81.9028 221.043,-75.5091 210.452,-75.239 212.595,-81.9028"/>
</g>
<!-- Node16&#45;&gt;Node9 -->
<g id="edge22" class="edge"><title>Node16&#45;&gt;Node9</title>
<path fill="none" stroke="midnightblue" d="M99.5554,-117.944C110.44,-115.699 122.403,-113.492 133.5,-112 357.411,-81.8901 625.506,-71.6764 748.207,-68.4189"/>
<polygon fill="midnightblue" stroke="midnightblue" points="748.3,-71.9178 758.206,-68.1604 748.119,-64.9201 748.3,-71.9178"/>
</g>
<!-- Node19 -->
<g id="node19" class="node"><title>Node19</title>
<g id="a_node19"><a xlink:href="utilities_8h.html" target="_top" xlink:title="Various templated functions that carry out common vector operations (see Templated Utility Functions)...">
<polygon fill="white" stroke="black" points="555,-179.5 555,-198.5 668,-198.5 668,-179.5 555,-179.5"/>
<text text-anchor="middle" x="611.5" y="-186.5" font-family="FreeSans" font-size="10.00">cantera/base/utilities.h</text>
</a>
</g>
</g>
<!-- Node18&#45;&gt;Node19 -->
<g id="edge28" class="edge"><title>Node18&#45;&gt;Node19</title>
<path fill="none" stroke="midnightblue" d="M500.983,-240.975C522.632,-230.99 558.713,-214.348 583.732,-202.807"/>
<polygon fill="midnightblue" stroke="midnightblue" points="585.437,-205.876 593.052,-198.509 582.505,-199.519 585.437,-205.876"/>
</g>
<!-- Node22 -->
<g id="node22" class="node"><title>Node22</title>
<g id="a_node22"><a xlink:href="RxnRates_8h.html" target="_top" xlink:title="cantera/kinetics/RxnRates.h">
<polygon fill="white" stroke="black" points="214,-179.5 214,-198.5 351,-198.5 351,-179.5 214,-179.5"/>
<text text-anchor="middle" x="282.5" y="-186.5" font-family="FreeSans" font-size="10.00">cantera/kinetics/RxnRates.h</text>
</a>
</g>
</g>
<!-- Node18&#45;&gt;Node22 -->
<g id="edge33" class="edge"><title>Node18&#45;&gt;Node22</title>
<path fill="none" stroke="midnightblue" d="M453.845,-240.975C418.944,-230.592 359.85,-213.012 321,-201.454"/>
<polygon fill="midnightblue" stroke="midnightblue" points="321.685,-198.006 311.102,-198.509 319.689,-204.715 321.685,-198.006"/>
</g>
<!-- Node25 -->
<g id="node25" class="node"><title>Node25</title>
<g id="a_node25"><a xlink:href="Falloff_8h_source.html" target="_top" xlink:title="cantera/kinetics/Falloff.h">
<polygon fill="white" stroke="black" points="393,-179.5 393,-198.5 514,-198.5 514,-179.5 393,-179.5"/>
<text text-anchor="middle" x="453.5" y="-186.5" font-family="FreeSans" font-size="10.00">cantera/kinetics/Falloff.h</text>
</a>
</g>
</g>
<!-- Node18&#45;&gt;Node25 -->
<g id="edge39" class="edge"><title>Node18&#45;&gt;Node25</title>
<path fill="none" stroke="midnightblue" d="M478.345,-240.975C474.124,-232.315 467.463,-218.649 462.1,-207.645"/>
<polygon fill="midnightblue" stroke="midnightblue" points="465.175,-205.965 457.647,-198.509 458.882,-209.032 465.175,-205.965"/>
</g>
<!-- Node19&#45;&gt;Node9 -->
<g id="edge29" class="edge"><title>Node19&#45;&gt;Node9</title>
<path fill="none" stroke="midnightblue" d="M617.532,-179.426C628.908,-163.855 655.047,-130.804 684.5,-112 709.104,-96.292 739.828,-85.3629 765.337,-78.2124"/>
<polygon fill="midnightblue" stroke="midnightblue" points="766.445,-81.5388 775.193,-75.5622 764.627,-74.7789 766.445,-81.5388"/>
</g>
<!-- Node19&#45;&gt;Node14 -->
<g id="edge30" class="edge"><title>Node19&#45;&gt;Node14</title>
<path fill="none" stroke="midnightblue" d="M630.985,-179.475C653.91,-169.445 692.185,-152.7 718.575,-141.155"/>
<polygon fill="midnightblue" stroke="midnightblue" points="720.292,-144.224 728.051,-137.009 717.486,-137.811 720.292,-144.224"/>
</g>
<!-- Node20 -->
<g id="node20" class="node"><title>Node20</title>
<polygon fill="white" stroke="#bfbfbf" points="509.5,-118 509.5,-137 567.5,-137 567.5,-118 509.5,-118"/>
<text text-anchor="middle" x="538.5" y="-125" font-family="FreeSans" font-size="10.00">stdexcept</text>
</g>
<!-- Node19&#45;&gt;Node20 -->
<g id="edge31" class="edge"><title>Node19&#45;&gt;Node20</title>
<path fill="none" stroke="midnightblue" d="M601.041,-179.475C589.549,-170.108 570.87,-154.884 556.913,-143.508"/>
<polygon fill="midnightblue" stroke="midnightblue" points="558.902,-140.614 548.94,-137.009 554.48,-146.04 558.902,-140.614"/>
</g>
<!-- Node21 -->
<g id="node21" class="node"><title>Node21</title>
<polygon fill="white" stroke="#bfbfbf" points="586,-118 586,-137 637,-137 637,-118 586,-118"/>
<text text-anchor="middle" x="611.5" y="-125" font-family="FreeSans" font-size="10.00">numeric</text>
</g>
<!-- Node19&#45;&gt;Node21 -->
<g id="edge32" class="edge"><title>Node19&#45;&gt;Node21</title>
<path fill="none" stroke="midnightblue" d="M611.5,-179.475C611.5,-171.08 611.5,-157.981 611.5,-147.163"/>
<polygon fill="midnightblue" stroke="midnightblue" points="615,-147.009 611.5,-137.009 608,-147.009 615,-147.009"/>
</g>
<!-- Node22&#45;&gt;Node5 -->
<g id="edge36" class="edge"><title>Node22&#45;&gt;Node5</title>
<path fill="none" stroke="midnightblue" d="M282.5,-179.475C282.5,-171.08 282.5,-157.981 282.5,-147.163"/>
<polygon fill="midnightblue" stroke="midnightblue" points="286,-147.009 282.5,-137.009 279,-147.009 286,-147.009"/>
</g>
<!-- Node22&#45;&gt;Node16 -->
<g id="edge37" class="edge"><title>Node22&#45;&gt;Node16</title>
<path fill="none" stroke="midnightblue" d="M250.979,-179.475C212.261,-169.004 146.476,-151.212 103.764,-139.66"/>
<polygon fill="midnightblue" stroke="midnightblue" points="104.529,-136.241 93.9622,-137.009 102.702,-142.999 104.529,-136.241"/>
</g>
<!-- Node23 -->
<g id="node23" class="node"><title>Node23</title>
<g id="a_node23"><a xlink:href="reaction__defs_8h.html" target="_top" xlink:title="This file defines some constants used to specify reaction types. ">
<polygon fill="white" stroke="black" points="369.5,-112.5 369.5,-142.5 491.5,-142.5 491.5,-112.5 369.5,-112.5"/>
<text text-anchor="start" x="377.5" y="-130.5" font-family="FreeSans" font-size="10.00">cantera/kinetics/reaction</text>
<text text-anchor="middle" x="430.5" y="-119.5" font-family="FreeSans" font-size="10.00">_defs.h</text>
</a>
</g>
</g>
<!-- Node22&#45;&gt;Node23 -->
<g id="edge34" class="edge"><title>Node22&#45;&gt;Node23</title>
<path fill="none" stroke="midnightblue" d="M303.705,-179.475C325.154,-170.852 358.952,-157.264 386.261,-146.285"/>
<polygon fill="midnightblue" stroke="midnightblue" points="387.647,-149.501 395.619,-142.523 385.035,-143.006 387.647,-149.501"/>
</g>
<!-- Node24 -->
<g id="node24" class="node"><title>Node24</title>
<polygon fill="white" stroke="#bfbfbf" points="143,-118 143,-137 196,-137 196,-118 143,-118"/>
<text text-anchor="middle" x="169.5" y="-125" font-family="FreeSans" font-size="10.00">iostream</text>
</g>
<!-- Node22&#45;&gt;Node24 -->
<g id="edge38" class="edge"><title>Node22&#45;&gt;Node24</title>
<path fill="none" stroke="midnightblue" d="M266.31,-179.475C247.598,-169.622 216.577,-153.288 194.701,-141.77"/>
<polygon fill="midnightblue" stroke="midnightblue" points="196.139,-138.571 185.66,-137.009 192.878,-144.765 196.139,-138.571"/>
</g>
<!-- Node23&#45;&gt;Node9 -->
<g id="edge35" class="edge"><title>Node23&#45;&gt;Node9</title>
<path fill="none" stroke="midnightblue" d="M491.54,-113.622C494.567,-113.057 497.566,-112.513 500.5,-112 585.729,-97.0998 684.576,-83.588 748.477,-75.3429"/>
<polygon fill="midnightblue" stroke="midnightblue" points="748.953,-78.8107 758.426,-74.0654 748.061,-71.8677 748.953,-78.8107"/>
</g>
<!-- Node25&#45;&gt;Node23 -->
<g id="edge40" class="edge"><title>Node25&#45;&gt;Node23</title>
<path fill="none" stroke="midnightblue" d="M450.205,-179.475C447.439,-172.32 443.352,-161.748 439.617,-152.084"/>
<polygon fill="midnightblue" stroke="midnightblue" points="442.791,-150.588 435.921,-142.523 436.262,-153.112 442.791,-150.588"/>
</g>
<!-- Node26&#45;&gt;Node10 -->
<g id="edge43" class="edge"><title>Node26&#45;&gt;Node10</title>
<path fill="none" stroke="midnightblue" d="M1172.2,-302.39C1228.78,-289.111 1315.5,-257.713 1315.5,-190 1315.5,-190 1315.5,-190 1315.5,-126.5 1315.5,-31.4225 1164.64,-14.3626 1097.3,-11.4837"/>
<polygon fill="midnightblue" stroke="midnightblue" points="1097.36,-7.98376 1087.25,-11.1336 1097.12,-14.9795 1097.36,-7.98376"/>
</g>
<!-- Node27 -->
<g id="node27" class="node"><title>Node27</title>
<polygon fill="white" stroke="#bfbfbf" points="1103,-241 1103,-260 1146,-260 1146,-241 1103,-241"/>
<text text-anchor="middle" x="1124.5" y="-248" font-family="FreeSans" font-size="10.00">mutex</text>
</g>
<!-- Node26&#45;&gt;Node27 -->
<g id="edge44" class="edge"><title>Node26&#45;&gt;Node27</title>
<path fill="none" stroke="midnightblue" d="M1124.5,-302.475C1124.5,-294.08 1124.5,-280.981 1124.5,-270.163"/>
<polygon fill="midnightblue" stroke="midnightblue" points="1128,-270.009 1124.5,-260.009 1121,-270.009 1128,-270.009"/>
</g>
</g>
</svg>
