<?xml version="1.0" encoding="UTF-8" standalone="no"?>
<!DOCTYPE svg PUBLIC "-//W3C//DTD SVG 1.1//EN"
 "http://www.w3.org/Graphics/SVG/1.1/DTD/svg11.dtd">
<!-- Generated by graphviz version 2.26.3 (20100126.1600)
 -->
<!-- Title: LatticeSolidPhase.h Pages: 1 -->
<svg width="782pt" height="494pt"
 viewBox="0.00 0.00 782.00 494.00" xmlns="http://www.w3.org/2000/svg" xmlns:xlink="http://www.w3.org/1999/xlink">
<g id="graph1" class="graph" transform="scale(1 1) rotate(0) translate(4 490)">
<title>LatticeSolidPhase.h</title>
<polygon fill="white" stroke="white" points="-4,5 -4,-490 779,-490 779,5 -4,5"/>
<!-- Node1 -->
<g id="node1" class="node"><title>Node1</title>
<polygon fill="#bfbfbf" stroke="black" points="153,-465 153,-485 255,-485 255,-465 153,-465"/>
<text text-anchor="middle" x="204" y="-472" font-family="FreeSans" font-size="10.00">LatticeSolidPhase.h</text>
</g>
<!-- Node2 -->
<g id="node3" class="node"><title>Node2</title>
<a xlink:href="config_8h_source.html" target="_top" xlink:title="cantera/base/config.h">
<polygon fill="white" stroke="black" points="53,-1 53,-21 161,-21 161,-1 53,-1"/>
<text text-anchor="middle" x="107" y="-8" font-family="FreeSans" font-size="10.00">cantera/base/config.h</text>
</a>
</g>
<!-- Node1&#45;&gt;Node2 -->
<g id="edge2" class="edge"><title>Node1&#45;&gt;Node2</title>
<path fill="none" stroke="midnightblue" d="M152.786,-468.411C92.3568,-457.434 0,-429.178 0,-359 0,-359 0,-359 0,-127 0,-80.8673 46.2892,-45.2377 77.9759,-26.2522"/>
<polygon fill="midnightblue" stroke="midnightblue" points="79.9588,-29.1491 86.8741,-21.1224 76.4626,-23.0847 79.9588,-29.1491"/>
</g>
<!-- Node3 -->
<g id="node5" class="node"><title>Node3</title>
<a xlink:href="ct__defs_8h.html" target="_top" xlink:title="This file contains definitions of terms that are used in internal routines and are unlikely to need m...">
<polygon fill="white" stroke="black" points="254,-59 254,-79 368,-79 368,-59 254,-59"/>
<text text-anchor="middle" x="311" y="-66" font-family="FreeSans" font-size="10.00">cantera/base/ct_defs.h</text>
</a>
</g>
<!-- Node1&#45;&gt;Node3 -->
<g id="edge4" class="edge"><title>Node1&#45;&gt;Node3</title>
<path fill="none" stroke="midnightblue" d="M255.085,-469.99C394.992,-455.586 774,-411.702 774,-359 774,-359 774,-359 774,-185 774,-145.223 751.95,-134.993 717,-116 660.173,-85.1173 478.4,-74.3847 378.447,-70.7646"/>
<polygon fill="midnightblue" stroke="midnightblue" points="378.267,-67.2563 368.151,-70.4064 378.024,-74.2521 378.267,-67.2563"/>
</g>
<!-- Node9 -->
<g id="node18" class="node"><title>Node9</title>
<a xlink:href="mix__defs_8h.html" target="_top" xlink:title="mix_defs.h">
<polygon fill="white" stroke="black" points="66,-349 66,-369 128,-369 128,-349 66,-349"/>
<text text-anchor="middle" x="97" y="-356" font-family="FreeSans" font-size="10.00">mix_defs.h</text>
</a>
</g>
<!-- Node1&#45;&gt;Node9 -->
<g id="edge18" class="edge"><title>Node1&#45;&gt;Node9</title>
<path fill="none" stroke="midnightblue" d="M192.772,-464.872C182.62,-455.567 167.408,-441.25 155,-428 139.409,-411.352 122.771,-391.295 111.332,-377.107"/>
<polygon fill="midnightblue" stroke="midnightblue" points="113.917,-374.736 104.937,-369.114 108.451,-379.109 113.917,-374.736"/>
</g>
<!-- Node10 -->
<g id="node20" class="node"><title>Node10</title>
<a xlink:href="ThermoPhase_8h.html" target="_top" xlink:title="Header file for class ThermoPhase, the base class for phases with thermodynamic properties, and the text for the Module thermoprops (see Thermodynamic Properties and class ThermoPhase). ">
<polygon fill="white" stroke="black" points="260,-349 260,-369 344,-369 344,-349 260,-349"/>
<text text-anchor="middle" x="302" y="-356" font-family="FreeSans" font-size="10.00">ThermoPhase.h</text>
</a>
</g>
<!-- Node1&#45;&gt;Node10 -->
<g id="edge20" class="edge"><title>Node1&#45;&gt;Node10</title>
<path fill="none" stroke="midnightblue" d="M215.895,-464.749C226.216,-455.592 241.296,-441.566 253,-428 266.857,-411.939 280.669,-392.048 290.079,-377.755"/>
<polygon fill="midnightblue" stroke="midnightblue" points="293.079,-379.562 295.584,-369.267 287.206,-375.753 293.079,-379.562"/>
</g>
<!-- Node13 -->
<g id="node27" class="node"><title>Node13</title>
<a xlink:href="utilities_8h.html" target="_top" xlink:title="Various templated functions that carry out common vector operations (see Templated Utility Functions)...">
<polygon fill="white" stroke="black" points="150,-117 150,-137 204,-137 204,-117 150,-117"/>
<text text-anchor="middle" x="177" y="-124" font-family="FreeSans" font-size="10.00">utilities.h</text>
</a>
</g>
<!-- Node1&#45;&gt;Node13 -->
<g id="edge84" class="edge"><title>Node1&#45;&gt;Node13</title>
<path fill="none" stroke="midnightblue" d="M176.426,-464.914C140.996,-450.245 81.182,-419.27 57,-370 52.6919,-361.222 54.5931,-357.477 57,-348 67.9367,-304.939 137.329,-190.664 165.319,-145.624"/>
<polygon fill="midnightblue" stroke="midnightblue" points="168.304,-147.451 170.627,-137.114 162.365,-143.746 168.304,-147.451"/>
</g>
<!-- Node23 -->
<g id="node55" class="node"><title>Node23</title>
<a xlink:href="SpeciesThermo_8h.html" target="_top" xlink:title="Virtual base class for the calculation of multiple&#45;species thermodynamic reference&#45;state property man...">
<polygon fill="white" stroke="black" points="362,-291 362,-311 454,-311 454,-291 362,-291"/>
<text text-anchor="middle" x="408" y="-298" font-family="FreeSans" font-size="10.00">SpeciesThermo.h</text>
</a>
</g>
<!-- Node1&#45;&gt;Node23 -->
<g id="edge68" class="edge"><title>Node1&#45;&gt;Node23</title>
<path fill="none" stroke="midnightblue" d="M230.781,-464.987C268.29,-449.742 336.521,-417.39 378,-370 390.323,-355.921 398.248,-335.996 402.838,-321.175"/>
<polygon fill="midnightblue" stroke="midnightblue" points="406.238,-322.017 405.607,-311.441 399.505,-320.102 406.238,-322.017"/>
</g>
<!-- Node24 -->
<g id="node59" class="node"><title>Node24</title>
<a xlink:href="LatticePhase_8h.html" target="_top" xlink:title="Header for a simple thermodynamics model of a bulk phase derived from ThermoPhase, assuming a lattice of solid atoms (see Thermodynamic Properties and class LatticePhase). ">
<polygon fill="white" stroke="black" points="164,-407 164,-427 244,-427 244,-407 164,-407"/>
<text text-anchor="middle" x="204" y="-414" font-family="FreeSans" font-size="10.00">LatticePhase.h</text>
</a>
</g>
<!-- Node1&#45;&gt;Node24 -->
<g id="edge70" class="edge"><title>Node1&#45;&gt;Node24</title>
<path fill="none" stroke="midnightblue" d="M204,-464.897C204,-457.339 204,-446.748 204,-437.446"/>
<polygon fill="midnightblue" stroke="midnightblue" points="207.5,-437.378 204,-427.378 200.5,-437.378 207.5,-437.378"/>
</g>
<!-- Node3&#45;&gt;Node2 -->
<g id="edge6" class="edge"><title>Node3&#45;&gt;Node2</title>
<path fill="none" stroke="midnightblue" d="M275.466,-58.8972C241.345,-49.1962 189.649,-34.4981 152.526,-23.9436"/>
<polygon fill="midnightblue" stroke="midnightblue" points="153.045,-20.4524 142.469,-21.0842 151.13,-27.1856 153.045,-20.4524"/>
</g>
<!-- Node4 -->
<g id="node8" class="node"><title>Node4</title>
<polygon fill="white" stroke="#bfbfbf" points="179,-1 179,-21 223,-21 223,-1 179,-1"/>
<text text-anchor="middle" x="201" y="-8" font-family="FreeSans" font-size="10.00">cmath</text>
</g>
<!-- Node3&#45;&gt;Node4 -->
<g id="edge8" class="edge"><title>Node3&#45;&gt;Node4</title>
<path fill="none" stroke="midnightblue" d="M291.839,-58.8972C274.595,-49.8045 249.024,-36.3218 229.402,-25.9757"/>
<polygon fill="midnightblue" stroke="midnightblue" points="230.788,-22.7498 220.31,-21.1817 227.523,-28.9418 230.788,-22.7498"/>
</g>
<!-- Node5 -->
<g id="node10" class="node"><title>Node5</title>
<polygon fill="white" stroke="#bfbfbf" points="241,-1 241,-21 285,-21 285,-1 241,-1"/>
<text text-anchor="middle" x="263" y="-8" font-family="FreeSans" font-size="10.00">cstdlib</text>
</g>
<!-- Node3&#45;&gt;Node5 -->
<g id="edge10" class="edge"><title>Node3&#45;&gt;Node5</title>
<path fill="none" stroke="midnightblue" d="M302.639,-58.8972C295.908,-50.7639 286.27,-39.1183 278.184,-29.3468"/>
<polygon fill="midnightblue" stroke="midnightblue" points="280.66,-26.8501 271.588,-21.3776 275.268,-31.3131 280.66,-26.8501"/>
</g>
<!-- Node6 -->
<g id="node12" class="node"><title>Node6</title>
<polygon fill="white" stroke="#bfbfbf" points="302.5,-1 302.5,-21 345.5,-21 345.5,-1 302.5,-1"/>
<text text-anchor="middle" x="324" y="-8" font-family="FreeSans" font-size="10.00">vector</text>
</g>
<!-- Node3&#45;&gt;Node6 -->
<g id="edge12" class="edge"><title>Node3&#45;&gt;Node6</title>
<path fill="none" stroke="midnightblue" d="M313.264,-58.8972C314.977,-51.2569 317.384,-40.517 319.485,-31.1429"/>
<polygon fill="midnightblue" stroke="midnightblue" points="322.902,-31.901 321.674,-21.3776 316.072,-30.37 322.902,-31.901"/>
</g>
<!-- Node7 -->
<g id="node14" class="node"><title>Node7</title>
<polygon fill="white" stroke="#bfbfbf" points="362.5,-1 362.5,-21 397.5,-21 397.5,-1 362.5,-1"/>
<text text-anchor="middle" x="380" y="-8" font-family="FreeSans" font-size="10.00">map</text>
</g>
<!-- Node3&#45;&gt;Node7 -->
<g id="edge14" class="edge"><title>Node3&#45;&gt;Node7</title>
<path fill="none" stroke="midnightblue" d="M323.019,-58.8972C333.183,-50.3532 347.959,-37.933 359.917,-27.8813"/>
<polygon fill="midnightblue" stroke="midnightblue" points="362.251,-30.4914 367.654,-21.3776 357.747,-25.133 362.251,-30.4914"/>
</g>
<!-- Node8 -->
<g id="node16" class="node"><title>Node8</title>
<polygon fill="white" stroke="#bfbfbf" points="415,-1 415,-21 455,-21 455,-1 415,-1"/>
<text text-anchor="middle" x="435" y="-8" font-family="FreeSans" font-size="10.00">string</text>
</g>
<!-- Node3&#45;&gt;Node8 -->
<g id="edge16" class="edge"><title>Node3&#45;&gt;Node8</title>
<path fill="none" stroke="midnightblue" d="M332.599,-58.8972C352.878,-49.412 383.37,-35.1495 405.809,-24.654"/>
<polygon fill="midnightblue" stroke="midnightblue" points="407.304,-27.8187 414.879,-20.4114 404.338,-21.478 407.304,-27.8187"/>
</g>
<!-- Node11 -->
<g id="node22" class="node"><title>Node11</title>
<a xlink:href="Phase_8h.html" target="_top" xlink:title="Header file for class Phase. ">
<polygon fill="white" stroke="black" points="293.5,-291 293.5,-311 344.5,-311 344.5,-291 293.5,-291"/>
<text text-anchor="middle" x="319" y="-298" font-family="FreeSans" font-size="10.00">Phase.h</text>
</a>
</g>
<!-- Node10&#45;&gt;Node11 -->
<g id="edge22" class="edge"><title>Node10&#45;&gt;Node11</title>
<path fill="none" stroke="midnightblue" d="M304.961,-348.897C307.201,-341.257 310.348,-330.517 313.096,-321.143"/>
<polygon fill="midnightblue" stroke="midnightblue" points="316.504,-321.958 315.958,-311.378 309.787,-319.989 316.504,-321.958"/>
</g>
<!-- Node10&#45;&gt;Node23 -->
<g id="edge64" class="edge"><title>Node10&#45;&gt;Node23</title>
<path fill="none" stroke="midnightblue" d="M320.464,-348.897C337.006,-339.846 361.498,-326.444 380.372,-316.117"/>
<polygon fill="midnightblue" stroke="midnightblue" points="382.3,-319.052 389.392,-311.182 378.939,-312.911 382.3,-319.052"/>
</g>
<!-- Node12 -->
<g id="node24" class="node"><title>Node12</title>
<a xlink:href="vec__functions_8h.html" target="_top" xlink:title="Templates for operations on vector&#45;like objects. ">
<polygon fill="white" stroke="black" points="418,-175 418,-195 560,-195 560,-175 418,-175"/>
<text text-anchor="middle" x="489" y="-182" font-family="FreeSans" font-size="10.00">cantera/base/vec_functions.h</text>
</a>
</g>
<!-- Node11&#45;&gt;Node12 -->
<g id="edge24" class="edge"><title>Node11&#45;&gt;Node12</title>
<path fill="none" stroke="midnightblue" d="M333.789,-290.909C363.428,-270.684 430.294,-225.058 465.811,-200.823"/>
<polygon fill="midnightblue" stroke="midnightblue" points="467.837,-203.678 474.124,-195.151 463.891,-197.896 467.837,-203.678"/>
</g>
<!-- Node19 -->
<g id="node41" class="node"><title>Node19</title>
<a xlink:href="ctml_8h.html" target="_top" xlink:title="CTML (&quot;Cantera Markup Language&quot;) is the variant of XML that Cantera uses to store data...">
<polygon fill="white" stroke="black" points="267.5,-233 267.5,-253 368.5,-253 368.5,-233 267.5,-233"/>
<text text-anchor="middle" x="318" y="-240" font-family="FreeSans" font-size="10.00">cantera/base/ctml.h</text>
</a>
</g>
<!-- Node11&#45;&gt;Node19 -->
<g id="edge44" class="edge"><title>Node11&#45;&gt;Node19</title>
<path fill="none" stroke="midnightblue" d="M318.826,-290.897C318.696,-283.339 318.513,-272.748 318.353,-263.446"/>
<polygon fill="midnightblue" stroke="midnightblue" points="321.851,-263.316 318.179,-253.378 314.852,-263.436 321.851,-263.316"/>
</g>
<!-- Node22 -->
<g id="node52" class="node"><title>Node22</title>
<a xlink:href="Elements_8h.html" target="_top" xlink:title="Contains the LookupWtElements function and the definitions of element constraint types. ">
<polygon fill="white" stroke="black" points="524,-233 524,-253 656,-253 656,-233 524,-233"/>
<text text-anchor="middle" x="590" y="-240" font-family="FreeSans" font-size="10.00">cantera/thermo/Elements.h</text>
</a>
</g>
<!-- Node11&#45;&gt;Node22 -->
<g id="edge60" class="edge"><title>Node11&#45;&gt;Node22</title>
<path fill="none" stroke="midnightblue" d="M344.525,-292.387C347.371,-291.533 350.238,-290.718 353,-290 408.337,-275.614 471.934,-263.224 519.308,-254.782"/>
<polygon fill="midnightblue" stroke="midnightblue" points="519.923,-258.227 529.162,-253.041 518.706,-251.334 519.923,-258.227"/>
</g>
<!-- Node12&#45;&gt;Node3 -->
<g id="edge26" class="edge"><title>Node12&#45;&gt;Node3</title>
<path fill="none" stroke="midnightblue" d="M518.601,-174.985C550.302,-162.698 593.465,-140.463 573,-116 548.674,-86.9217 447.904,-75.8105 378.673,-71.5803"/>
<polygon fill="midnightblue" stroke="midnightblue" points="378.46,-68.0623 368.275,-70.9817 378.058,-75.0507 378.46,-68.0623"/>
</g>
<!-- Node12&#45;&gt;Node13 -->
<g id="edge28" class="edge"><title>Node12&#45;&gt;Node13</title>
<path fill="none" stroke="midnightblue" d="M435.01,-174.963C371.927,-163.236 269.215,-144.142 214.344,-133.942"/>
<polygon fill="midnightblue" stroke="midnightblue" points="214.826,-130.472 204.354,-132.085 213.546,-137.354 214.826,-130.472"/>
</g>
<!-- Node14 -->
<g id="node30" class="node"><title>Node14</title>
<polygon fill="white" stroke="#bfbfbf" points="163,-59 163,-79 219,-79 219,-59 163,-59"/>
<text text-anchor="middle" x="191" y="-66" font-family="FreeSans" font-size="10.00">algorithm</text>
</g>
<!-- Node12&#45;&gt;Node14 -->
<g id="edge38" class="edge"><title>Node12&#45;&gt;Node14</title>
<path fill="none" stroke="midnightblue" d="M487.666,-174.96C485.069,-159.657 477.83,-130.725 459,-116 383.025,-56.5874 339.823,-97.6283 245,-80 239.899,-79.0516 234.535,-78.0113 229.249,-76.9607"/>
<polygon fill="midnightblue" stroke="midnightblue" points="229.765,-73.4943 219.27,-74.949 228.381,-80.3562 229.765,-73.4943"/>
</g>
<!-- Node15 -->
<g id="node32" class="node"><title>Node15</title>
<polygon fill="white" stroke="#bfbfbf" points="619.5,-117 619.5,-137 670.5,-137 670.5,-117 619.5,-117"/>
<text text-anchor="middle" x="645" y="-124" font-family="FreeSans" font-size="10.00">numeric</text>
</g>
<!-- Node12&#45;&gt;Node15 -->
<g id="edge34" class="edge"><title>Node12&#45;&gt;Node15</title>
<path fill="none" stroke="midnightblue" d="M516.173,-174.897C542.176,-165.229 581.529,-150.598 609.895,-140.052"/>
<polygon fill="midnightblue" stroke="midnightblue" points="611.277,-143.272 619.431,-136.506 608.838,-136.711 611.277,-143.272"/>
</g>
<!-- Node16 -->
<g id="node34" class="node"><title>Node16</title>
<polygon fill="white" stroke="#bfbfbf" points="505.5,-117 505.5,-137 564.5,-137 564.5,-117 505.5,-117"/>
<text text-anchor="middle" x="535" y="-124" font-family="FreeSans" font-size="10.00">functional</text>
</g>
<!-- Node12&#45;&gt;Node16 -->
<g id="edge36" class="edge"><title>Node12&#45;&gt;Node16</title>
<path fill="none" stroke="midnightblue" d="M497.013,-174.897C503.463,-166.764 512.699,-155.118 520.449,-145.347"/>
<polygon fill="midnightblue" stroke="midnightblue" points="523.298,-147.387 526.769,-137.378 517.813,-143.038 523.298,-147.387"/>
</g>
<!-- Node17 -->
<g id="node37" class="node"><title>Node17</title>
<polygon fill="white" stroke="#bfbfbf" points="397.5,-117 397.5,-137 450.5,-137 450.5,-117 397.5,-117"/>
<text text-anchor="middle" x="424" y="-124" font-family="FreeSans" font-size="10.00">iostream</text>
</g>
<!-- Node12&#45;&gt;Node17 -->
<g id="edge40" class="edge"><title>Node12&#45;&gt;Node17</title>
<path fill="none" stroke="midnightblue" d="M477.678,-174.897C468.195,-166.435 454.451,-154.172 443.244,-144.172"/>
<polygon fill="midnightblue" stroke="midnightblue" points="445.422,-141.424 435.63,-137.378 440.761,-146.647 445.422,-141.424"/>
</g>
<!-- Node18 -->
<g id="node39" class="node"><title>Node18</title>
<polygon fill="white" stroke="#bfbfbf" points="335.5,-117 335.5,-137 380.5,-137 380.5,-117 335.5,-117"/>
<text text-anchor="middle" x="358" y="-124" font-family="FreeSans" font-size="10.00">cstring</text>
</g>
<!-- Node12&#45;&gt;Node18 -->
<g id="edge42" class="edge"><title>Node12&#45;&gt;Node18</title>
<path fill="none" stroke="midnightblue" d="M466.182,-174.897C445.049,-165.541 413.418,-151.536 389.81,-141.084"/>
<polygon fill="midnightblue" stroke="midnightblue" points="391.118,-137.835 380.557,-136.987 388.284,-144.236 391.118,-137.835"/>
</g>
<!-- Node13&#45;&gt;Node3 -->
<g id="edge30" class="edge"><title>Node13&#45;&gt;Node3</title>
<path fill="none" stroke="midnightblue" d="M200.341,-116.897C221.826,-107.598 253.919,-93.7066 278.019,-83.2752"/>
<polygon fill="midnightblue" stroke="midnightblue" points="279.69,-86.366 287.477,-79.1817 276.909,-79.9419 279.69,-86.366"/>
</g>
<!-- Node13&#45;&gt;Node14 -->
<g id="edge32" class="edge"><title>Node13&#45;&gt;Node14</title>
<path fill="none" stroke="midnightblue" d="M179.439,-116.897C181.283,-109.257 183.875,-98.517 186.138,-89.1429"/>
<polygon fill="midnightblue" stroke="midnightblue" points="189.551,-89.9197 188.495,-79.3776 182.746,-88.2772 189.551,-89.9197"/>
</g>
<!-- Node19&#45;&gt;Node3 -->
<g id="edge46" class="edge"><title>Node19&#45;&gt;Node3</title>
<path fill="none" stroke="midnightblue" d="M309.5,-232.974C302.455,-223.961 292.977,-210.02 289,-196 278.42,-158.704 292.236,-113.722 302.274,-88.5395"/>
<polygon fill="midnightblue" stroke="midnightblue" points="305.618,-89.6145 306.262,-79.0392 299.164,-86.9049 305.618,-89.6145"/>
</g>
<!-- Node20 -->
<g id="node44" class="node"><title>Node20</title>
<a xlink:href="xml_8h.html" target="_top" xlink:title="Classes providing support for XML data files. ">
<polygon fill="white" stroke="red" points="297.5,-175 297.5,-195 336.5,-195 336.5,-175 297.5,-175"/>
<text text-anchor="middle" x="317" y="-182" font-family="FreeSans" font-size="10.00">xml.h</text>
</a>
</g>
<!-- Node19&#45;&gt;Node20 -->
<g id="edge48" class="edge"><title>Node19&#45;&gt;Node20</title>
<path fill="none" stroke="midnightblue" d="M317.826,-232.897C317.696,-225.339 317.513,-214.748 317.353,-205.446"/>
<polygon fill="midnightblue" stroke="midnightblue" points="320.851,-205.316 317.179,-195.378 313.852,-205.436 320.851,-205.316"/>
</g>
<!-- Node21 -->
<g id="node46" class="node"><title>Node21</title>
<a xlink:href="Array_8h.html" target="_top" xlink:title="Header file for class Cantera::Array2D. ">
<polygon fill="white" stroke="red" points="353.5,-175 353.5,-195 400.5,-195 400.5,-175 353.5,-175"/>
<text text-anchor="middle" x="377" y="-182" font-family="FreeSans" font-size="10.00">Array.h</text>
</a>
</g>
<!-- Node19&#45;&gt;Node21 -->
<g id="edge50" class="edge"><title>Node19&#45;&gt;Node21</title>
<path fill="none" stroke="midnightblue" d="M328.277,-232.897C336.801,-224.517 349.118,-212.409 359.235,-202.464"/>
<polygon fill="midnightblue" stroke="midnightblue" points="361.766,-204.884 366.443,-195.378 356.859,-199.892 361.766,-204.884"/>
</g>
<!-- Node21&#45;&gt;Node3 -->
<g id="edge52" class="edge"><title>Node21&#45;&gt;Node3</title>
<path fill="none" stroke="midnightblue" d="M362.043,-174.775C350.717,-166.244 335.674,-153.077 327,-138 318.387,-123.029 314.409,-103.716 312.572,-89.3316"/>
<polygon fill="midnightblue" stroke="midnightblue" points="316.017,-88.6181 311.511,-79.0294 309.054,-89.3354 316.017,-88.6181"/>
</g>
<!-- Node21&#45;&gt;Node13 -->
<g id="edge54" class="edge"><title>Node21&#45;&gt;Node13</title>
<path fill="none" stroke="midnightblue" d="M353.285,-176.676C350.5,-175.749 347.692,-174.839 345,-174 300.32,-160.084 248.372,-145.844 214.207,-136.741"/>
<polygon fill="midnightblue" stroke="midnightblue" points="214.766,-133.269 204.203,-134.087 212.971,-140.035 214.766,-133.269"/>
</g>
<!-- Node21&#45;&gt;Node17 -->
<g id="edge56" class="edge"><title>Node21&#45;&gt;Node17</title>
<path fill="none" stroke="midnightblue" d="M385.187,-174.897C391.777,-166.764 401.214,-155.118 409.133,-145.347"/>
<polygon fill="midnightblue" stroke="midnightblue" points="412.014,-147.351 415.591,-137.378 406.575,-142.943 412.014,-147.351"/>
</g>
<!-- Node21&#45;&gt;Node18 -->
<g id="edge58" class="edge"><title>Node21&#45;&gt;Node18</title>
<path fill="none" stroke="midnightblue" d="M373.69,-174.897C371.188,-167.257 367.669,-156.517 364.599,-147.143"/>
<polygon fill="midnightblue" stroke="midnightblue" points="367.839,-145.791 361.4,-137.378 361.187,-147.97 367.839,-145.791"/>
</g>
<!-- Node22&#45;&gt;Node3 -->
<g id="edge62" class="edge"><title>Node22&#45;&gt;Node3</title>
<path fill="none" stroke="midnightblue" d="M606.538,-232.896C640.987,-210.649 714.404,-156.214 679,-116 659.481,-93.8291 478.962,-79.2983 378.213,-72.8429"/>
<polygon fill="midnightblue" stroke="midnightblue" points="378.325,-69.3431 368.124,-72.2064 377.884,-76.3292 378.325,-69.3431"/>
</g>
<!-- Node23&#45;&gt;Node3 -->
<g id="edge66" class="edge"><title>Node23&#45;&gt;Node3</title>
<path fill="none" stroke="midnightblue" d="M454.269,-298.34C519.745,-293.635 634.847,-281.602 665,-254 711.441,-211.488 738.743,-163.134 697,-116 676.263,-92.5844 483.252,-78.4396 378.268,-72.4144"/>
<polygon fill="midnightblue" stroke="midnightblue" points="378.263,-68.9087 368.082,-71.8395 377.869,-75.8976 378.263,-68.9087"/>
</g>
<!-- Node24&#45;&gt;Node2 -->
<g id="edge72" class="edge"><title>Node24&#45;&gt;Node2</title>
<path fill="none" stroke="midnightblue" d="M194.368,-406.967C171.151,-381.678 114,-312.381 114,-243 114,-243 114,-243 114,-127 114,-93.3636 111.031,-54.3404 108.96,-31.2124"/>
<polygon fill="midnightblue" stroke="midnightblue" points="112.443,-30.8622 108.033,-21.2289 105.473,-31.5098 112.443,-30.8622"/>
</g>
<!-- Node24&#45;&gt;Node3 -->
<g id="edge74" class="edge"><title>Node24&#45;&gt;Node3</title>
<path fill="none" stroke="midnightblue" d="M208.131,-406.956C215.92,-387.084 232,-341.192 232,-301 232,-301 232,-301 232,-185 232,-143.806 266.456,-106.429 289.857,-85.7942"/>
<polygon fill="midnightblue" stroke="midnightblue" points="292.245,-88.3577 297.599,-79.2148 287.712,-83.0237 292.245,-88.3577"/>
</g>
<!-- Node24&#45;&gt;Node9 -->
<g id="edge76" class="edge"><title>Node24&#45;&gt;Node9</title>
<path fill="none" stroke="midnightblue" d="M185.362,-406.897C168.588,-397.804 143.714,-384.322 124.628,-373.976"/>
<polygon fill="midnightblue" stroke="midnightblue" points="126.243,-370.87 115.783,-369.182 122.907,-377.024 126.243,-370.87"/>
</g>
<!-- Node24&#45;&gt;Node10 -->
<g id="edge78" class="edge"><title>Node24&#45;&gt;Node10</title>
<path fill="none" stroke="midnightblue" d="M221.07,-406.897C236.154,-397.97 258.389,-384.811 275.738,-374.543"/>
<polygon fill="midnightblue" stroke="midnightblue" points="277.973,-377.287 284.797,-369.182 274.408,-371.263 277.973,-377.287"/>
</g>
<!-- Node24&#45;&gt;Node13 -->
<g id="edge82" class="edge"><title>Node24&#45;&gt;Node13</title>
<path fill="none" stroke="midnightblue" d="M202.524,-406.784C199.743,-386.611 194,-340.214 194,-301 194,-301 194,-301 194,-243 194,-209.066 186.79,-170.133 181.761,-147.104"/>
<polygon fill="midnightblue" stroke="midnightblue" points="185.133,-146.147 179.508,-137.168 178.306,-147.694 185.133,-146.147"/>
</g>
<!-- Node24&#45;&gt;Node23 -->
<g id="edge80" class="edge"><title>Node24&#45;&gt;Node23</title>
<path fill="none" stroke="midnightblue" d="M244.157,-410.969C275.879,-404.717 320.13,-392.57 353,-370 372.034,-356.931 387.72,-335.334 397.402,-319.78"/>
<polygon fill="midnightblue" stroke="midnightblue" points="400.518,-321.389 402.631,-311.007 394.505,-317.805 400.518,-321.389"/>
</g>
</g>
</svg>
