<?xml version="1.0" encoding="UTF-8" standalone="no"?>
<!DOCTYPE svg PUBLIC "-//W3C//DTD SVG 1.1//EN"
 "http://www.w3.org/Graphics/SVG/1.1/DTD/svg11.dtd">
<!-- Generated by graphviz version 2.26.3 (20100126.1600)
 -->
<!-- Title: LatticePhase.h Pages: 1 -->
<svg width="728pt" height="436pt"
 viewBox="0.00 0.00 728.00 436.00" xmlns="http://www.w3.org/2000/svg" xmlns:xlink="http://www.w3.org/1999/xlink">
<g id="graph1" class="graph" transform="scale(1 1) rotate(0) translate(4 432)">
<title>LatticePhase.h</title>
<polygon fill="white" stroke="white" points="-4,5 -4,-432 725,-432 725,5 -4,5"/>
<!-- Node1 -->
<g id="node1" class="node"><title>Node1</title>
<polygon fill="#bfbfbf" stroke="black" points="455,-407 455,-427 535,-427 535,-407 455,-407"/>
<text text-anchor="middle" x="495" y="-414" font-family="FreeSans" font-size="10.00">LatticePhase.h</text>
</g>
<!-- Node2 -->
<g id="node3" class="node"><title>Node2</title>
<a xlink:href="config_8h_source.html" target="_top" xlink:title="cantera/base/config.h">
<polygon fill="white" stroke="black" points="81,-1 81,-21 189,-21 189,-1 81,-1"/>
<text text-anchor="middle" x="135" y="-8" font-family="FreeSans" font-size="10.00">cantera/base/config.h</text>
</a>
</g>
<!-- Node1&#45;&gt;Node2 -->
<g id="edge2" class="edge"><title>Node1&#45;&gt;Node2</title>
<path fill="none" stroke="midnightblue" d="M454.911,-416.152C337.069,-412.584 0,-394.231 0,-301 0,-301 0,-301 0,-127 0,-75.7572 56.6455,-42.2276 96.5508,-24.9646"/>
<polygon fill="midnightblue" stroke="midnightblue" points="98.1454,-28.0922 106.039,-21.0254 95.4614,-21.6272 98.1454,-28.0922"/>
</g>
<!-- Node3 -->
<g id="node5" class="node"><title>Node3</title>
<a xlink:href="ct__defs_8h.html" target="_top" xlink:title="This file contains definitions of terms that are used in internal routines and are unlikely to need m...">
<polygon fill="white" stroke="black" points="424,-59 424,-79 538,-79 538,-59 424,-59"/>
<text text-anchor="middle" x="481" y="-66" font-family="FreeSans" font-size="10.00">cantera/base/ct_defs.h</text>
</a>
</g>
<!-- Node1&#45;&gt;Node3 -->
<g id="edge4" class="edge"><title>Node1&#45;&gt;Node3</title>
<path fill="none" stroke="midnightblue" d="M523.961,-406.975C563.628,-391.181 630,-356.468 630,-301 630,-301 630,-301 630,-185 630,-131.359 569.13,-98.8992 525.201,-82.4582"/>
<polygon fill="midnightblue" stroke="midnightblue" points="526.153,-79.0813 515.558,-79.0005 523.79,-85.6705 526.153,-79.0813"/>
</g>
<!-- Node9 -->
<g id="node18" class="node"><title>Node9</title>
<a xlink:href="mix__defs_8h.html" target="_top" xlink:title="mix_defs.h">
<polygon fill="white" stroke="black" points="658,-349 658,-369 720,-369 720,-349 658,-349"/>
<text text-anchor="middle" x="689" y="-356" font-family="FreeSans" font-size="10.00">mix_defs.h</text>
</a>
</g>
<!-- Node1&#45;&gt;Node9 -->
<g id="edge18" class="edge"><title>Node1&#45;&gt;Node9</title>
<path fill="none" stroke="midnightblue" d="M528.792,-406.897C561.892,-397.001 612.385,-381.906 647.816,-371.313"/>
<polygon fill="midnightblue" stroke="midnightblue" points="649.259,-374.535 657.837,-368.317 647.254,-367.828 649.259,-374.535"/>
</g>
<!-- Node10 -->
<g id="node20" class="node"><title>Node10</title>
<a xlink:href="ThermoPhase_8h.html" target="_top" xlink:title="Header file for class ThermoPhase, the base class for phases with thermodynamic properties, and the text for the Module thermoprops (see Thermodynamic Properties and class ThermoPhase). ">
<polygon fill="white" stroke="black" points="418,-349 418,-369 502,-369 502,-349 418,-349"/>
<text text-anchor="middle" x="460" y="-356" font-family="FreeSans" font-size="10.00">ThermoPhase.h</text>
</a>
</g>
<!-- Node1&#45;&gt;Node10 -->
<g id="edge20" class="edge"><title>Node1&#45;&gt;Node10</title>
<path fill="none" stroke="midnightblue" d="M488.903,-406.897C484.095,-398.928 477.251,-387.587 471.43,-377.941"/>
<polygon fill="midnightblue" stroke="midnightblue" points="474.426,-376.131 466.262,-369.378 468.432,-379.748 474.426,-376.131"/>
</g>
<!-- Node13 -->
<g id="node27" class="node"><title>Node13</title>
<a xlink:href="utilities_8h.html" target="_top" xlink:title="Various templated functions that carry out common vector operations (see Templated Utility Functions)...">
<polygon fill="white" stroke="black" points="210,-117 210,-137 264,-137 264,-117 210,-117"/>
<text text-anchor="middle" x="237" y="-124" font-family="FreeSans" font-size="10.00">utilities.h</text>
</a>
</g>
<!-- Node1&#45;&gt;Node13 -->
<g id="edge70" class="edge"><title>Node1&#45;&gt;Node13</title>
<path fill="none" stroke="midnightblue" d="M454.734,-410.546C371.247,-396.024 187,-357.568 187,-301 187,-301 187,-301 187,-243 187,-211.192 192.859,-202.967 206,-174 210.508,-164.064 216.978,-153.856 222.843,-145.504"/>
<polygon fill="midnightblue" stroke="midnightblue" points="225.784,-147.411 228.847,-137.269 220.128,-143.287 225.784,-147.411"/>
</g>
<!-- Node23 -->
<g id="node55" class="node"><title>Node23</title>
<a xlink:href="SpeciesThermo_8h.html" target="_top" xlink:title="Virtual base class for the calculation of multiple&#45;species thermodynamic reference&#45;state property man...">
<polygon fill="white" stroke="black" points="484,-291 484,-311 576,-311 576,-291 484,-291"/>
<text text-anchor="middle" x="530" y="-298" font-family="FreeSans" font-size="10.00">SpeciesThermo.h</text>
</a>
</g>
<!-- Node1&#45;&gt;Node23 -->
<g id="edge68" class="edge"><title>Node1&#45;&gt;Node23</title>
<path fill="none" stroke="midnightblue" d="M498.607,-406.971C501.97,-397.494 507.047,-382.852 511,-370 516.015,-353.695 521.116,-335.032 524.768,-321.231"/>
<polygon fill="midnightblue" stroke="midnightblue" points="528.21,-321.903 527.357,-311.343 521.438,-320.13 528.21,-321.903"/>
</g>
<!-- Node3&#45;&gt;Node2 -->
<g id="edge6" class="edge"><title>Node3&#45;&gt;Node2</title>
<path fill="none" stroke="midnightblue" d="M423.865,-59.4225C362.01,-49.0538 263.583,-32.5543 199.126,-21.7494"/>
<polygon fill="midnightblue" stroke="midnightblue" points="199.524,-18.2675 189.083,-20.066 198.367,-25.1711 199.524,-18.2675"/>
</g>
<!-- Node4 -->
<g id="node8" class="node"><title>Node4</title>
<polygon fill="white" stroke="#bfbfbf" points="574,-1 574,-21 618,-21 618,-1 574,-1"/>
<text text-anchor="middle" x="596" y="-8" font-family="FreeSans" font-size="10.00">cmath</text>
</g>
<!-- Node3&#45;&gt;Node4 -->
<g id="edge8" class="edge"><title>Node3&#45;&gt;Node4</title>
<path fill="none" stroke="midnightblue" d="M501.031,-58.8972C519.224,-49.7218 546.28,-36.0762 566.865,-25.6943"/>
<polygon fill="midnightblue" stroke="midnightblue" points="568.46,-28.8099 575.812,-21.1817 565.307,-22.5598 568.46,-28.8099"/>
</g>
<!-- Node5 -->
<g id="node10" class="node"><title>Node5</title>
<polygon fill="white" stroke="#bfbfbf" points="342,-1 342,-21 386,-21 386,-1 342,-1"/>
<text text-anchor="middle" x="364" y="-8" font-family="FreeSans" font-size="10.00">cstdlib</text>
</g>
<!-- Node3&#45;&gt;Node5 -->
<g id="edge10" class="edge"><title>Node3&#45;&gt;Node5</title>
<path fill="none" stroke="midnightblue" d="M460.62,-58.8972C442.111,-49.7218 414.585,-36.0762 393.642,-25.6943"/>
<polygon fill="midnightblue" stroke="midnightblue" points="395.053,-22.4874 384.539,-21.1817 391.944,-28.759 395.053,-22.4874"/>
</g>
<!-- Node6 -->
<g id="node12" class="node"><title>Node6</title>
<polygon fill="white" stroke="#bfbfbf" points="403.5,-1 403.5,-21 446.5,-21 446.5,-1 403.5,-1"/>
<text text-anchor="middle" x="425" y="-8" font-family="FreeSans" font-size="10.00">vector</text>
</g>
<!-- Node3&#45;&gt;Node6 -->
<g id="edge12" class="edge"><title>Node3&#45;&gt;Node6</title>
<path fill="none" stroke="midnightblue" d="M471.246,-58.8972C463.234,-50.5996 451.693,-38.6463 442.145,-28.7569"/>
<polygon fill="midnightblue" stroke="midnightblue" points="444.484,-26.1406 435.02,-21.3776 439.448,-31.0027 444.484,-26.1406"/>
</g>
<!-- Node7 -->
<g id="node14" class="node"><title>Node7</title>
<polygon fill="white" stroke="#bfbfbf" points="463.5,-1 463.5,-21 498.5,-21 498.5,-1 463.5,-1"/>
<text text-anchor="middle" x="481" y="-8" font-family="FreeSans" font-size="10.00">map</text>
</g>
<!-- Node3&#45;&gt;Node7 -->
<g id="edge14" class="edge"><title>Node3&#45;&gt;Node7</title>
<path fill="none" stroke="midnightblue" d="M481,-58.8972C481,-51.339 481,-40.7476 481,-31.4458"/>
<polygon fill="midnightblue" stroke="midnightblue" points="484.5,-31.3776 481,-21.3776 477.5,-31.3776 484.5,-31.3776"/>
</g>
<!-- Node8 -->
<g id="node16" class="node"><title>Node8</title>
<polygon fill="white" stroke="#bfbfbf" points="516,-1 516,-21 556,-21 556,-1 516,-1"/>
<text text-anchor="middle" x="536" y="-8" font-family="FreeSans" font-size="10.00">string</text>
</g>
<!-- Node3&#45;&gt;Node8 -->
<g id="edge16" class="edge"><title>Node3&#45;&gt;Node8</title>
<path fill="none" stroke="midnightblue" d="M490.58,-58.8972C498.449,-50.5996 509.784,-38.6463 519.162,-28.7569"/>
<polygon fill="midnightblue" stroke="midnightblue" points="521.818,-31.0422 526.159,-21.3776 516.739,-26.2255 521.818,-31.0422"/>
</g>
<!-- Node11 -->
<g id="node22" class="node"><title>Node11</title>
<a xlink:href="Phase_8h.html" target="_top" xlink:title="Header file for class Phase. ">
<polygon fill="white" stroke="black" points="364.5,-291 364.5,-311 415.5,-311 415.5,-291 364.5,-291"/>
<text text-anchor="middle" x="390" y="-298" font-family="FreeSans" font-size="10.00">Phase.h</text>
</a>
</g>
<!-- Node10&#45;&gt;Node11 -->
<g id="edge22" class="edge"><title>Node10&#45;&gt;Node11</title>
<path fill="none" stroke="midnightblue" d="M447.807,-348.897C437.495,-340.353 422.505,-327.933 410.374,-317.881"/>
<polygon fill="midnightblue" stroke="midnightblue" points="412.458,-315.063 402.525,-311.378 407.992,-320.453 412.458,-315.063"/>
</g>
<!-- Node10&#45;&gt;Node23 -->
<g id="edge64" class="edge"><title>Node10&#45;&gt;Node23</title>
<path fill="none" stroke="midnightblue" d="M472.193,-348.897C482.505,-340.353 497.495,-327.933 509.626,-317.881"/>
<polygon fill="midnightblue" stroke="midnightblue" points="512.008,-320.453 517.475,-311.378 507.542,-315.063 512.008,-320.453"/>
</g>
<!-- Node12 -->
<g id="node24" class="node"><title>Node12</title>
<a xlink:href="vec__functions_8h.html" target="_top" xlink:title="Templates for operations on vector&#45;like objects. ">
<polygon fill="white" stroke="black" points="215,-175 215,-195 357,-195 357,-175 215,-175"/>
<text text-anchor="middle" x="286" y="-182" font-family="FreeSans" font-size="10.00">cantera/base/vec_functions.h</text>
</a>
</g>
<!-- Node11&#45;&gt;Node12 -->
<g id="edge24" class="edge"><title>Node11&#45;&gt;Node12</title>
<path fill="none" stroke="midnightblue" d="M364.45,-292.987C345.39,-285.735 320.13,-273.208 305,-254 294.094,-240.155 289.441,-220.47 287.459,-205.666"/>
<polygon fill="midnightblue" stroke="midnightblue" points="290.915,-205.062 286.405,-195.475 283.953,-205.782 290.915,-205.062"/>
</g>
<!-- Node19 -->
<g id="node41" class="node"><title>Node19</title>
<a xlink:href="ctml_8h.html" target="_top" xlink:title="CTML (&quot;Cantera Markup Language&quot;) is the variant of XML that Cantera uses to store data...">
<polygon fill="white" stroke="black" points="313.5,-233 313.5,-253 414.5,-253 414.5,-233 313.5,-233"/>
<text text-anchor="middle" x="364" y="-240" font-family="FreeSans" font-size="10.00">cantera/base/ctml.h</text>
</a>
</g>
<!-- Node11&#45;&gt;Node19 -->
<g id="edge44" class="edge"><title>Node11&#45;&gt;Node19</title>
<path fill="none" stroke="midnightblue" d="M385.471,-290.897C381.973,-283.093 377.024,-272.054 372.759,-262.54"/>
<polygon fill="midnightblue" stroke="midnightblue" points="375.936,-261.071 368.652,-253.378 369.549,-263.934 375.936,-261.071"/>
</g>
<!-- Node22 -->
<g id="node52" class="node"><title>Node22</title>
<a xlink:href="Elements_8h.html" target="_top" xlink:title="Contains the LookupWtElements function and the definitions of element constraint types. ">
<polygon fill="white" stroke="black" points="432,-233 432,-253 564,-253 564,-233 432,-233"/>
<text text-anchor="middle" x="498" y="-240" font-family="FreeSans" font-size="10.00">cantera/thermo/Elements.h</text>
</a>
</g>
<!-- Node11&#45;&gt;Node22 -->
<g id="edge60" class="edge"><title>Node11&#45;&gt;Node22</title>
<path fill="none" stroke="midnightblue" d="M408.812,-290.897C425.743,-281.804 450.849,-268.322 470.114,-257.976"/>
<polygon fill="midnightblue" stroke="midnightblue" points="471.887,-260.996 479.041,-253.182 468.575,-254.829 471.887,-260.996"/>
</g>
<!-- Node12&#45;&gt;Node3 -->
<g id="edge26" class="edge"><title>Node12&#45;&gt;Node3</title>
<path fill="none" stroke="midnightblue" d="M286.792,-174.984C288.523,-159.978 293.977,-131.746 311,-116 326.263,-101.881 373.172,-89.5157 413.857,-81.0164"/>
<polygon fill="midnightblue" stroke="midnightblue" points="414.674,-84.422 423.773,-78.9941 413.275,-77.5632 414.674,-84.422"/>
</g>
<!-- Node12&#45;&gt;Node13 -->
<g id="edge28" class="edge"><title>Node12&#45;&gt;Node13</title>
<path fill="none" stroke="midnightblue" d="M277.465,-174.897C270.524,-166.682 260.556,-154.883 252.25,-145.051"/>
<polygon fill="midnightblue" stroke="midnightblue" points="254.894,-142.758 245.767,-137.378 249.547,-147.275 254.894,-142.758"/>
</g>
<!-- Node14 -->
<g id="node30" class="node"><title>Node14</title>
<polygon fill="white" stroke="#bfbfbf" points="119,-59 119,-79 175,-79 175,-59 119,-59"/>
<text text-anchor="middle" x="147" y="-66" font-family="FreeSans" font-size="10.00">algorithm</text>
</g>
<!-- Node12&#45;&gt;Node14 -->
<g id="edge38" class="edge"><title>Node12&#45;&gt;Node14</title>
<path fill="none" stroke="midnightblue" d="M214.732,-180.039C155.098,-174.228 76.6877,-162.139 57,-138 37.2362,-113.768 76.6359,-93.0451 109.396,-80.8042"/>
<polygon fill="midnightblue" stroke="midnightblue" points="110.6,-84.091 118.84,-77.4319 108.246,-77.4986 110.6,-84.091"/>
</g>
<!-- Node15 -->
<g id="node32" class="node"><title>Node15</title>
<polygon fill="white" stroke="#bfbfbf" points="65.5,-117 65.5,-137 116.5,-137 116.5,-117 65.5,-117"/>
<text text-anchor="middle" x="91" y="-124" font-family="FreeSans" font-size="10.00">numeric</text>
</g>
<!-- Node12&#45;&gt;Node15 -->
<g id="edge34" class="edge"><title>Node12&#45;&gt;Node15</title>
<path fill="none" stroke="midnightblue" d="M250.42,-174.932C219.78,-166.192 174.149,-153.007 126.21,-138.324"/>
<polygon fill="midnightblue" stroke="midnightblue" points="127.182,-134.961 116.595,-135.368 125.125,-141.652 127.182,-134.961"/>
</g>
<!-- Node16 -->
<g id="node34" class="node"><title>Node16</title>
<polygon fill="white" stroke="#bfbfbf" points="133.5,-117 133.5,-137 192.5,-137 192.5,-117 133.5,-117"/>
<text text-anchor="middle" x="163" y="-124" font-family="FreeSans" font-size="10.00">functional</text>
</g>
<!-- Node12&#45;&gt;Node16 -->
<g id="edge36" class="edge"><title>Node12&#45;&gt;Node16</title>
<path fill="none" stroke="midnightblue" d="M264.575,-174.897C245.029,-165.68 215.918,-151.953 193.865,-141.554"/>
<polygon fill="midnightblue" stroke="midnightblue" points="195.13,-138.281 184.592,-137.182 192.144,-144.612 195.13,-138.281"/>
</g>
<!-- Node17 -->
<g id="node37" class="node"><title>Node17</title>
<polygon fill="white" stroke="#bfbfbf" points="319.5,-117 319.5,-137 372.5,-137 372.5,-117 319.5,-117"/>
<text text-anchor="middle" x="346" y="-124" font-family="FreeSans" font-size="10.00">iostream</text>
</g>
<!-- Node12&#45;&gt;Node17 -->
<g id="edge40" class="edge"><title>Node12&#45;&gt;Node17</title>
<path fill="none" stroke="midnightblue" d="M296.451,-174.897C305.12,-166.517 317.646,-154.409 327.934,-144.464"/>
<polygon fill="midnightblue" stroke="midnightblue" points="330.507,-146.844 335.265,-137.378 325.642,-141.811 330.507,-146.844"/>
</g>
<!-- Node18 -->
<g id="node39" class="node"><title>Node18</title>
<polygon fill="white" stroke="#bfbfbf" points="389.5,-117 389.5,-137 434.5,-137 434.5,-117 389.5,-117"/>
<text text-anchor="middle" x="412" y="-124" font-family="FreeSans" font-size="10.00">cstring</text>
</g>
<!-- Node12&#45;&gt;Node18 -->
<g id="edge42" class="edge"><title>Node12&#45;&gt;Node18</title>
<path fill="none" stroke="midnightblue" d="M307.948,-174.897C328.06,-165.639 358.059,-151.83 380.686,-141.415"/>
<polygon fill="midnightblue" stroke="midnightblue" points="382.261,-144.542 389.881,-137.182 379.334,-138.184 382.261,-144.542"/>
</g>
<!-- Node13&#45;&gt;Node3 -->
<g id="edge30" class="edge"><title>Node13&#45;&gt;Node3</title>
<path fill="none" stroke="midnightblue" d="M264.313,-119.531C268.876,-118.324 273.567,-117.108 278,-116 327.932,-103.526 385.061,-90.4004 425.967,-81.2004"/>
<polygon fill="midnightblue" stroke="midnightblue" points="426.75,-84.6118 435.742,-79.0074 425.218,-77.7816 426.75,-84.6118"/>
</g>
<!-- Node13&#45;&gt;Node14 -->
<g id="edge32" class="edge"><title>Node13&#45;&gt;Node14</title>
<path fill="none" stroke="midnightblue" d="M221.323,-116.897C207.599,-108.052 187.428,-95.0539 171.562,-84.829"/>
<polygon fill="midnightblue" stroke="midnightblue" points="173.101,-81.6567 162.799,-79.1817 169.309,-87.5407 173.101,-81.6567"/>
</g>
<!-- Node19&#45;&gt;Node3 -->
<g id="edge46" class="edge"><title>Node19&#45;&gt;Node3</title>
<path fill="none" stroke="midnightblue" d="M382.114,-232.991C396.35,-224.488 416.04,-211.255 430,-196 450.172,-173.956 452.753,-165.683 464,-138 470.449,-122.126 474.904,-103.169 477.63,-89.1457"/>
<polygon fill="midnightblue" stroke="midnightblue" points="481.11,-89.574 479.451,-79.1098 474.222,-88.3241 481.11,-89.574"/>
</g>
<!-- Node20 -->
<g id="node44" class="node"><title>Node20</title>
<a xlink:href="xml_8h.html" target="_top" xlink:title="Classes providing support for XML data files. ">
<polygon fill="white" stroke="red" points="482.5,-175 482.5,-195 521.5,-195 521.5,-175 482.5,-175"/>
<text text-anchor="middle" x="502" y="-182" font-family="FreeSans" font-size="10.00">xml.h</text>
</a>
</g>
<!-- Node19&#45;&gt;Node20 -->
<g id="edge48" class="edge"><title>Node19&#45;&gt;Node20</title>
<path fill="none" stroke="midnightblue" d="M388.038,-232.897C411.626,-222.983 447.63,-207.851 472.841,-197.255"/>
<polygon fill="midnightblue" stroke="midnightblue" points="474.393,-200.4 482.255,-193.298 471.68,-193.946 474.393,-200.4"/>
</g>
<!-- Node21 -->
<g id="node46" class="node"><title>Node21</title>
<a xlink:href="Array_8h.html" target="_top" xlink:title="Header file for class Cantera::Array2D. ">
<polygon fill="white" stroke="red" points="374.5,-175 374.5,-195 421.5,-195 421.5,-175 374.5,-175"/>
<text text-anchor="middle" x="398" y="-182" font-family="FreeSans" font-size="10.00">Array.h</text>
</a>
</g>
<!-- Node19&#45;&gt;Node21 -->
<g id="edge50" class="edge"><title>Node19&#45;&gt;Node21</title>
<path fill="none" stroke="midnightblue" d="M369.922,-232.897C374.546,-225.01 381.105,-213.821 386.721,-204.24"/>
<polygon fill="midnightblue" stroke="midnightblue" points="389.879,-205.775 391.917,-195.378 383.84,-202.235 389.879,-205.775"/>
</g>
<!-- Node21&#45;&gt;Node3 -->
<g id="edge52" class="edge"><title>Node21&#45;&gt;Node3</title>
<path fill="none" stroke="midnightblue" d="M409.213,-174.884C418.877,-165.813 432.835,-151.839 443,-138 454.466,-122.39 464.875,-102.934 471.888,-88.6648"/>
<polygon fill="midnightblue" stroke="midnightblue" points="475.201,-89.8514 476.361,-79.3203 468.887,-86.8292 475.201,-89.8514"/>
</g>
<!-- Node21&#45;&gt;Node13 -->
<g id="edge54" class="edge"><title>Node21&#45;&gt;Node13</title>
<path fill="none" stroke="midnightblue" d="M374.244,-176.442C347.724,-166.888 304.487,-151.312 273.63,-140.196"/>
<polygon fill="midnightblue" stroke="midnightblue" points="274.678,-136.853 264.084,-136.757 272.306,-143.439 274.678,-136.853"/>
</g>
<!-- Node21&#45;&gt;Node17 -->
<g id="edge56" class="edge"><title>Node21&#45;&gt;Node17</title>
<path fill="none" stroke="midnightblue" d="M388.942,-174.897C381.577,-166.682 370.998,-154.883 362.184,-145.051"/>
<polygon fill="midnightblue" stroke="midnightblue" points="364.586,-142.487 355.304,-137.378 359.374,-147.16 364.586,-142.487"/>
</g>
<!-- Node21&#45;&gt;Node18 -->
<g id="edge58" class="edge"><title>Node21&#45;&gt;Node18</title>
<path fill="none" stroke="midnightblue" d="M400.439,-174.897C402.283,-167.257 404.875,-156.517 407.138,-147.143"/>
<polygon fill="midnightblue" stroke="midnightblue" points="410.551,-147.92 409.495,-137.378 403.746,-146.277 410.551,-147.92"/>
</g>
<!-- Node22&#45;&gt;Node3 -->
<g id="edge62" class="edge"><title>Node22&#45;&gt;Node3</title>
<path fill="none" stroke="midnightblue" d="M507.673,-232.777C515.403,-223.855 525.64,-210.151 530,-196 532.879,-186.656 531.312,-183.689 530,-174 526.412,-147.501 525.406,-140.186 514,-116 509.202,-105.827 502.225,-95.4927 495.92,-87.115"/>
<polygon fill="midnightblue" stroke="midnightblue" points="498.632,-84.9008 489.713,-79.1815 493.119,-89.2142 498.632,-84.9008"/>
</g>
<!-- Node23&#45;&gt;Node3 -->
<g id="edge66" class="edge"><title>Node23&#45;&gt;Node3</title>
<path fill="none" stroke="midnightblue" d="M543.756,-290.761C553.99,-282.222 567.154,-269.051 573,-254 576.54,-244.886 574.653,-241.637 573,-232 563.756,-178.106 562.102,-161.65 532,-116 524.336,-104.377 513.191,-93.6659 503.273,-85.4135"/>
<polygon fill="midnightblue" stroke="midnightblue" points="505.338,-82.5834 495.334,-79.0937 500.978,-88.0601 505.338,-82.5834"/>
</g>
</g>
</svg>
