<?xml version="1.0" encoding="UTF-8" standalone="no"?>
<!DOCTYPE svg PUBLIC "-//W3C//DTD SVG 1.1//EN"
 "http://www.w3.org/Graphics/SVG/1.1/DTD/svg11.dtd">
<!-- Generated by graphviz version 2.40.1 (20161225.0304)
 -->
<!-- Title: LiquidTransport.h Pages: 1 -->
<svg width="1104pt" height="588pt"
 viewBox="0.00 0.00 1103.54 588.00" xmlns="http://www.w3.org/2000/svg" xmlns:xlink="http://www.w3.org/1999/xlink">
<g id="graph0" class="graph" transform="scale(1 1) rotate(0) translate(4 584)">
<title>LiquidTransport.h</title>
<polygon fill="#ffffff" stroke="transparent" points="-4,4 -4,-584 1099.5421,-584 1099.5421,4 -4,4"/>
<!-- Node0 -->
<g id="node1" class="node">
<title>Node0</title>
<polygon fill="#bfbfbf" stroke="#000000" points="759.5,-560.5 759.5,-579.5 859.5,-579.5 859.5,-560.5 759.5,-560.5"/>
<text text-anchor="middle" x="809.5" y="-567.5" font-family="Helvetica,sans-Serif" font-size="10.00" fill="#000000">LiquidTransport.h</text>
</g>
<!-- Node1 -->
<g id="node2" class="node">
<title>Node1</title>
<g id="a_node2"><a xlink:href="TransportBase_8h.html" target="_top" xlink:title="Headers for the Transport object, which is the virtual base class for all transport property evaluato...">
<polygon fill="#ffffff" stroke="#000000" points="518,-280.5 518,-299.5 613,-299.5 613,-280.5 518,-280.5"/>
<text text-anchor="middle" x="565.5" y="-287.5" font-family="Helvetica,sans-Serif" font-size="10.00" fill="#000000">TransportBase.h</text>
</a>
</g>
</g>
<!-- Node0&#45;&gt;Node1 -->
<g id="edge1" class="edge">
<title>Node0&#45;&gt;Node1</title>
<path fill="none" stroke="#191970" d="M759.409,-560.7768C678.3735,-544.4116 527.5,-507.3201 527.5,-458 527.5,-458 527.5,-458 527.5,-402 527.5,-367.6118 543.7634,-330.2832 555.011,-308.5791"/>
<polygon fill="#191970" stroke="#191970" points="558.2317,-309.9804 559.893,-299.5166 552.069,-306.6605 558.2317,-309.9804"/>
</g>
<!-- Node31 -->
<g id="node13" class="node">
<title>Node31</title>
<g id="a_node13"><a xlink:href="DenseMatrix_8h.html" target="_top" xlink:title="Headers for the DenseMatrix object, which deals with dense rectangular matrices and description of th...">
<polygon fill="#ffffff" stroke="#000000" points="852,-224.5 852,-243.5 1027,-243.5 1027,-224.5 852,-224.5"/>
<text text-anchor="middle" x="939.5" y="-231.5" font-family="Helvetica,sans-Serif" font-size="10.00" fill="#000000">cantera/numerics/DenseMatrix.h</text>
</a>
</g>
</g>
<!-- Node0&#45;&gt;Node31 -->
<g id="edge18" class="edge">
<title>Node0&#45;&gt;Node31</title>
<path fill="none" stroke="#191970" d="M837.0697,-560.4257C875.23,-545.2096 939.5,-511.6227 939.5,-458 939.5,-458 939.5,-458 939.5,-346 939.5,-313.7116 939.5,-276.1872 939.5,-253.8048"/>
<polygon fill="#191970" stroke="#191970" points="943.0001,-253.5883 939.5,-243.5884 936.0001,-253.5884 943.0001,-253.5883"/>
</g>
<!-- Node38 -->
<g id="node20" class="node">
<title>Node38</title>
<g id="a_node20"><a xlink:href="LiquidTransportParams_8h.html" target="_top" xlink:title="Header file defining class LiquidTransportParams. ">
<polygon fill="#ffffff" stroke="#000000" points="741.5,-504.5 741.5,-523.5 877.5,-523.5 877.5,-504.5 741.5,-504.5"/>
<text text-anchor="middle" x="809.5" y="-511.5" font-family="Helvetica,sans-Serif" font-size="10.00" fill="#000000">LiquidTransportParams.h</text>
</a>
</g>
</g>
<!-- Node0&#45;&gt;Node38 -->
<g id="edge29" class="edge">
<title>Node0&#45;&gt;Node38</title>
<path fill="none" stroke="#191970" d="M809.5,-560.2455C809.5,-552.9382 809.5,-542.6944 809.5,-533.7046"/>
<polygon fill="#191970" stroke="#191970" points="813.0001,-533.6426 809.5,-523.6427 806.0001,-533.6427 813.0001,-533.6426"/>
</g>
<!-- Node2 -->
<g id="node3" class="node">
<title>Node2</title>
<g id="a_node3"><a xlink:href="ThermoPhase_8h.html" target="_top" xlink:title="Header file for class ThermoPhase, the base class for phases with thermodynamic properties, and the text for the Module thermoprops (see Thermodynamic Properties and class ThermoPhase). ">
<polygon fill="#ffffff" stroke="#000000" points="465.5,-224.5 465.5,-243.5 635.5,-243.5 635.5,-224.5 465.5,-224.5"/>
<text text-anchor="middle" x="550.5" y="-231.5" font-family="Helvetica,sans-Serif" font-size="10.00" fill="#000000">cantera/thermo/ThermoPhase.h</text>
</a>
</g>
</g>
<!-- Node1&#45;&gt;Node2 -->
<g id="edge2" class="edge">
<title>Node1&#45;&gt;Node2</title>
<path fill="none" stroke="#191970" d="M562.8872,-280.2455C560.9084,-272.8579 558.1256,-262.4689 555.6988,-253.4087"/>
<polygon fill="#191970" stroke="#191970" points="559.0511,-252.3966 553.0829,-243.6427 552.2895,-254.2078 559.0511,-252.3966"/>
</g>
<!-- Node3 -->
<g id="node4" class="node">
<title>Node3</title>
<g id="a_node4"><a xlink:href="Phase_8h.html" target="_top" xlink:title="Header file for class Phase. ">
<polygon fill="#ffffff" stroke="#000000" points="377,-112.5 377,-131.5 432,-131.5 432,-112.5 377,-112.5"/>
<text text-anchor="middle" x="404.5" y="-119.5" font-family="Helvetica,sans-Serif" font-size="10.00" fill="#000000">Phase.h</text>
</a>
</g>
</g>
<!-- Node2&#45;&gt;Node3 -->
<g id="edge3" class="edge">
<title>Node2&#45;&gt;Node3</title>
<path fill="none" stroke="#191970" d="M531.1415,-224.477C514.6047,-215.9418 490.5407,-202.5526 471.5,-188 452.197,-173.247 432.6982,-153.3467 419.7524,-139.2669"/>
<polygon fill="#191970" stroke="#191970" points="422.2419,-136.8015 412.9384,-131.7324 417.0501,-141.4968 422.2419,-136.8015"/>
</g>
<!-- Node28 -->
<g id="node10" class="node">
<title>Node28</title>
<g id="a_node10"><a xlink:href="MultiSpeciesThermo_8h.html" target="_top" xlink:title="Header for a general species thermodynamic property manager for a phase (see MultiSpeciesThermo). ">
<polygon fill="#ffffff" stroke="#000000" points="481,-168.5 481,-187.5 606,-187.5 606,-168.5 481,-168.5"/>
<text text-anchor="middle" x="543.5" y="-175.5" font-family="Helvetica,sans-Serif" font-size="10.00" fill="#000000">MultiSpeciesThermo.h</text>
</a>
</g>
</g>
<!-- Node2&#45;&gt;Node28 -->
<g id="edge11" class="edge">
<title>Node2&#45;&gt;Node28</title>
<path fill="none" stroke="#191970" d="M549.2807,-224.2455C548.3673,-216.9382 547.0868,-206.6944 545.9631,-197.7046"/>
<polygon fill="#191970" stroke="#191970" points="549.4187,-197.1313 544.7053,-187.6427 542.4728,-197.9996 549.4187,-197.1313"/>
</g>
<!-- Node21 -->
<g id="node12" class="node">
<title>Node21</title>
<g id="a_node12"><a xlink:href="global_8h.html" target="_top" xlink:title="This file contains definitions for utility functions and text for modules, inputfiles, logs, textlogs, (see Input File Handling, Diagnostic Output, and Writing messages to the screen). ">
<polygon fill="#ffffff" stroke="#ff0000" points="703.5,-56.5 703.5,-75.5 825.5,-75.5 825.5,-56.5 703.5,-56.5"/>
<text text-anchor="middle" x="764.5" y="-63.5" font-family="Helvetica,sans-Serif" font-size="10.00" fill="#000000">cantera/base/global.h</text>
</a>
</g>
</g>
<!-- Node2&#45;&gt;Node21 -->
<g id="edge17" class="edge">
<title>Node2&#45;&gt;Node21</title>
<path fill="none" stroke="#191970" d="M564.7836,-224.3466C577.9567,-215.3012 597.9216,-201.2283 614.5,-188 654.3714,-156.1857 660.6286,-143.8143 700.5,-112 713.8404,-101.3553 729.3737,-90.1638 741.7963,-81.4851"/>
<polygon fill="#191970" stroke="#191970" points="743.9883,-84.2244 750.2164,-75.6534 740.0027,-78.4699 743.9883,-84.2244"/>
</g>
<!-- Node4 -->
<g id="node5" class="node">
<title>Node4</title>
<g id="a_node5"><a xlink:href="ctexceptions_8h.html" target="_top" xlink:title="Definitions for the classes that are thrown when Cantera experiences an error condition (also contain...">
<polygon fill="#ffffff" stroke="#ff0000" points="531.5,-56.5 531.5,-75.5 685.5,-75.5 685.5,-56.5 531.5,-56.5"/>
<text text-anchor="middle" x="608.5" y="-63.5" font-family="Helvetica,sans-Serif" font-size="10.00" fill="#000000">cantera/base/ctexceptions.h</text>
</a>
</g>
</g>
<!-- Node3&#45;&gt;Node4 -->
<g id="edge4" class="edge">
<title>Node3&#45;&gt;Node4</title>
<path fill="none" stroke="#191970" d="M432.0123,-114.4476C465.7999,-105.1726 523.5639,-89.3158 563.7675,-78.2795"/>
<polygon fill="#191970" stroke="#191970" points="564.8684,-81.6069 573.5851,-75.5845 563.0153,-74.8566 564.8684,-81.6069"/>
</g>
<!-- Node18 -->
<g id="node6" class="node">
<title>Node18</title>
<g id="a_node6"><a xlink:href="Elements_8h.html" target="_top" xlink:title="Contains the getElementWeight function and the definitions of element constraint types. ">
<polygon fill="#ffffff" stroke="#000000" points="167,-56.5 167,-75.5 316,-75.5 316,-56.5 167,-56.5"/>
<text text-anchor="middle" x="241.5" y="-63.5" font-family="Helvetica,sans-Serif" font-size="10.00" fill="#000000">cantera/thermo/Elements.h</text>
</a>
</g>
</g>
<!-- Node3&#45;&gt;Node18 -->
<g id="edge5" class="edge">
<title>Node3&#45;&gt;Node18</title>
<path fill="none" stroke="#191970" d="M376.8493,-112.5004C349.9198,-103.2485 308.7927,-89.119 278.941,-78.8632"/>
<polygon fill="#191970" stroke="#191970" points="279.881,-75.4854 269.2864,-75.5462 277.6066,-82.1056 279.881,-75.4854"/>
</g>
<!-- Node19 -->
<g id="node8" class="node">
<title>Node19</title>
<g id="a_node8"><a xlink:href="Species_8h.html" target="_top" xlink:title="Declaration for class Cantera::Species. ">
<polygon fill="#ffffff" stroke="#ff0000" points="334,-56.5 334,-75.5 475,-75.5 475,-56.5 334,-56.5"/>
<text text-anchor="middle" x="404.5" y="-63.5" font-family="Helvetica,sans-Serif" font-size="10.00" fill="#000000">cantera/thermo/Species.h</text>
</a>
</g>
</g>
<!-- Node3&#45;&gt;Node19 -->
<g id="edge7" class="edge">
<title>Node3&#45;&gt;Node19</title>
<path fill="none" stroke="#191970" d="M404.5,-112.2455C404.5,-104.9382 404.5,-94.6944 404.5,-85.7046"/>
<polygon fill="#191970" stroke="#191970" points="408.0001,-85.6426 404.5,-75.6427 401.0001,-85.6427 408.0001,-85.6426"/>
</g>
<!-- Node26 -->
<g id="node9" class="node">
<title>Node26</title>
<g id="a_node9"><a xlink:href="ValueCache_8h.html" target="_top" xlink:title="cantera/base/ValueCache.h">
<polygon fill="#ffffff" stroke="#ff0000" points="0,-56.5 0,-75.5 149,-75.5 149,-56.5 0,-56.5"/>
<text text-anchor="middle" x="74.5" y="-63.5" font-family="Helvetica,sans-Serif" font-size="10.00" fill="#000000">cantera/base/ValueCache.h</text>
</a>
</g>
</g>
<!-- Node3&#45;&gt;Node26 -->
<g id="edge9" class="edge">
<title>Node3&#45;&gt;Node26</title>
<path fill="none" stroke="#191970" d="M376.932,-117.3218C325.2982,-108.5597 212.7148,-89.4546 140.4244,-77.1872"/>
<polygon fill="#191970" stroke="#191970" points="140.9465,-73.7258 130.5019,-75.5034 139.7754,-80.6272 140.9465,-73.7258"/>
</g>
<!-- Node6 -->
<g id="node7" class="node">
<title>Node6</title>
<g id="a_node7"><a xlink:href="ct__defs_8h.html" target="_top" xlink:title="This file contains definitions of terms that are used in internal routines and are unlikely to need m...">
<polygon fill="#ffffff" stroke="#ff0000" points="603,-.5 603,-19.5 664,-19.5 664,-.5 603,-.5"/>
<text text-anchor="middle" x="633.5" y="-7.5" font-family="Helvetica,sans-Serif" font-size="10.00" fill="#000000">ct_defs.h</text>
</a>
</g>
</g>
<!-- Node18&#45;&gt;Node6 -->
<g id="edge6" class="edge">
<title>Node18&#45;&gt;Node6</title>
<path fill="none" stroke="#191970" d="M308.4418,-56.4369C390.0157,-44.7835 525.2797,-25.46 592.6925,-15.8296"/>
<polygon fill="#191970" stroke="#191970" points="593.5062,-19.249 602.9107,-14.3699 592.5162,-12.3194 593.5062,-19.249"/>
</g>
<!-- Node19&#45;&gt;Node6 -->
<g id="edge8" class="edge">
<title>Node19&#45;&gt;Node6</title>
<path fill="none" stroke="#191970" d="M443.6063,-56.4369C485.2652,-46.2496 550.8935,-30.2007 593.0568,-19.89"/>
<polygon fill="#191970" stroke="#191970" points="594.0986,-23.2385 602.981,-17.4632 592.4358,-16.4388 594.0986,-23.2385"/>
</g>
<!-- Node26&#45;&gt;Node6 -->
<g id="edge10" class="edge">
<title>Node26&#45;&gt;Node6</title>
<path fill="none" stroke="#191970" d="M149.1472,-56.9222C151.9667,-56.6061 154.7585,-56.2976 157.5,-56 318.4137,-38.5336 510.2965,-20.9925 592.6587,-13.62"/>
<polygon fill="#191970" stroke="#191970" points="593.1972,-17.0859 602.8461,-12.71 592.5743,-10.1137 593.1972,-17.0859"/>
</g>
<!-- Node29 -->
<g id="node11" class="node">
<title>Node29</title>
<g id="a_node11"><a xlink:href="SpeciesThermoInterpType_8h.html" target="_top" xlink:title="Pure Virtual Base class for individual species reference state thermodynamic managers and text for th...">
<polygon fill="#ffffff" stroke="#ff0000" points="463.5,-112.5 463.5,-131.5 615.5,-131.5 615.5,-112.5 463.5,-112.5"/>
<text text-anchor="middle" x="539.5" y="-119.5" font-family="Helvetica,sans-Serif" font-size="10.00" fill="#000000">SpeciesThermoInterpType.h</text>
</a>
</g>
</g>
<!-- Node28&#45;&gt;Node29 -->
<g id="edge12" class="edge">
<title>Node28&#45;&gt;Node29</title>
<path fill="none" stroke="#191970" d="M542.8033,-168.2455C542.2813,-160.9382 541.5496,-150.6944 540.9075,-141.7046"/>
<polygon fill="#191970" stroke="#191970" points="544.3924,-141.3679 540.1888,-131.6427 537.4102,-141.8667 544.3924,-141.3679"/>
</g>
<!-- Node29&#45;&gt;Node4 -->
<g id="edge14" class="edge">
<title>Node29&#45;&gt;Node4</title>
<path fill="none" stroke="#191970" d="M551.5189,-112.2455C561.7098,-103.9746 576.5362,-91.9416 588.5107,-82.2232"/>
<polygon fill="#191970" stroke="#191970" points="591.0598,-84.662 596.6188,-75.6427 586.6486,-79.2268 591.0598,-84.662"/>
</g>
<!-- Node29&#45;&gt;Node6 -->
<g id="edge13" class="edge">
<title>Node29&#45;&gt;Node6</title>
<path fill="none" stroke="#191970" d="M532.4688,-112.2299C523.5893,-98.5803 510.8003,-73.513 522.5,-56 538.1333,-32.5988 568.117,-21.0869 592.984,-15.4322"/>
<polygon fill="#191970" stroke="#191970" points="593.8176,-18.8345 602.9201,-13.4127 592.4233,-11.9747 593.8176,-18.8345"/>
</g>
<!-- Node29&#45;&gt;Node21 -->
<g id="edge15" class="edge">
<title>Node29&#45;&gt;Node21</title>
<path fill="none" stroke="#191970" d="M577.9232,-112.4369C616.1875,-102.9133 675.0337,-88.2672 716.3849,-77.9753"/>
<polygon fill="#191970" stroke="#191970" points="717.3766,-81.3353 726.2353,-75.5237 715.6859,-74.5426 717.3766,-81.3353"/>
</g>
<!-- Node21&#45;&gt;Node6 -->
<g id="edge16" class="edge">
<title>Node21&#45;&gt;Node6</title>
<path fill="none" stroke="#191970" d="M741.9803,-56.3733C720.7628,-47.3032 688.7724,-33.6279 665.0231,-23.4755"/>
<polygon fill="#191970" stroke="#191970" points="666.2967,-20.2136 655.7258,-19.5011 663.5452,-26.6502 666.2967,-20.2136"/>
</g>
<!-- Node31&#45;&gt;Node4 -->
<g id="edge20" class="edge">
<title>Node31&#45;&gt;Node4</title>
<path fill="none" stroke="#191970" d="M911.6969,-224.3958C866.1522,-208.1716 773.4204,-173.0609 700.5,-132 674.1517,-117.1635 646.2499,-96.3266 628.1751,-82.0575"/>
<polygon fill="#191970" stroke="#191970" points="630.1378,-79.1456 620.1413,-75.6353 625.7669,-84.6133 630.1378,-79.1456"/>
</g>
<!-- Node31&#45;&gt;Node6 -->
<g id="edge19" class="edge">
<title>Node31&#45;&gt;Node6</title>
<path fill="none" stroke="#191970" d="M969.2437,-224.4998C1006.327,-210.816 1067.8364,-181.5942 1092.5,-132 1106.5218,-103.8046 1064.9589,-56.9976 1063.5,-56 1031.7385,-34.2816 775.1186,-17.8496 674.1231,-12.164"/>
<polygon fill="#191970" stroke="#191970" points="674.1812,-8.6619 664.0022,-11.601 673.7923,-15.6511 674.1812,-8.6619"/>
</g>
<!-- Node32 -->
<g id="node14" class="node">
<title>Node32</title>
<g id="a_node14"><a xlink:href="Array_8h.html" target="_top" xlink:title="Header file for class Cantera::Array2D. ">
<polygon fill="#ffffff" stroke="#000000" points="893.5,-168.5 893.5,-187.5 1009.5,-187.5 1009.5,-168.5 893.5,-168.5"/>
<text text-anchor="middle" x="951.5" y="-175.5" font-family="Helvetica,sans-Serif" font-size="10.00" fill="#000000">cantera/base/Array.h</text>
</a>
</g>
</g>
<!-- Node31&#45;&gt;Node32 -->
<g id="edge21" class="edge">
<title>Node31&#45;&gt;Node32</title>
<path fill="none" stroke="#191970" d="M941.5902,-224.2455C943.1561,-216.9382 945.3512,-206.6944 947.2776,-197.7046"/>
<polygon fill="#191970" stroke="#191970" points="950.7607,-198.1541 949.4337,-187.6427 943.916,-196.6873 950.7607,-198.1541"/>
</g>
<!-- Node33 -->
<g id="node15" class="node">
<title>Node33</title>
<g id="a_node15"><a xlink:href="utilities_8h.html" target="_top" xlink:title="Various templated functions that carry out common vector operations (see Templated Utility Functions)...">
<polygon fill="#ffffff" stroke="#000000" points="1021.5,-112.5 1021.5,-131.5 1083.5,-131.5 1083.5,-112.5 1021.5,-112.5"/>
<text text-anchor="middle" x="1052.5" y="-119.5" font-family="Helvetica,sans-Serif" font-size="10.00" fill="#000000">utilities.h</text>
</a>
</g>
</g>
<!-- Node32&#45;&gt;Node33 -->
<g id="edge22" class="edge">
<title>Node32&#45;&gt;Node33</title>
<path fill="none" stroke="#191970" d="M969.0929,-168.2455C984.879,-159.4928 1008.2639,-146.527 1026.2587,-136.5496"/>
<polygon fill="#191970" stroke="#191970" points="1028.0603,-139.5528 1035.1087,-131.6427 1024.6659,-133.4308 1028.0603,-139.5528"/>
</g>
<!-- Node36 -->
<g id="node18" class="node">
<title>Node36</title>
<polygon fill="#ffffff" stroke="#bfbfbf" points="943.5,-112.5 943.5,-131.5 1003.5,-131.5 1003.5,-112.5 943.5,-112.5"/>
<text text-anchor="middle" x="973.5" y="-119.5" font-family="Helvetica,sans-Serif" font-size="10.00" fill="#000000">iostream</text>
</g>
<!-- Node32&#45;&gt;Node36 -->
<g id="edge27" class="edge">
<title>Node32&#45;&gt;Node36</title>
<path fill="none" stroke="#191970" d="M955.3321,-168.2455C958.2659,-160.7776 962.4047,-150.2427 965.991,-141.1137"/>
<polygon fill="#191970" stroke="#191970" points="969.3129,-142.23 969.7118,-131.6427 962.7976,-139.6704 969.3129,-142.23"/>
</g>
<!-- Node37 -->
<g id="node19" class="node">
<title>Node37</title>
<polygon fill="#ffffff" stroke="#bfbfbf" points="875.5,-112.5 875.5,-131.5 925.5,-131.5 925.5,-112.5 875.5,-112.5"/>
<text text-anchor="middle" x="900.5" y="-119.5" font-family="Helvetica,sans-Serif" font-size="10.00" fill="#000000">cstring</text>
</g>
<!-- Node32&#45;&gt;Node37 -->
<g id="edge28" class="edge">
<title>Node32&#45;&gt;Node37</title>
<path fill="none" stroke="#191970" d="M942.6165,-168.2455C935.3034,-160.2155 924.7609,-148.6394 916.0533,-139.0781"/>
<polygon fill="#191970" stroke="#191970" points="918.6028,-136.6795 909.2817,-131.6427 913.4273,-141.3928 918.6028,-136.6795"/>
</g>
<!-- Node33&#45;&gt;Node6 -->
<g id="edge23" class="edge">
<title>Node33&#45;&gt;Node6</title>
<path fill="none" stroke="#191970" d="M1054.6216,-112.3503C1057.1702,-97.9066 1059.422,-70.7858 1044.5,-56 1018.5114,-30.2485 773.3693,-16.3431 674.5214,-11.7445"/>
<polygon fill="#191970" stroke="#191970" points="674.4657,-8.2384 664.3165,-11.2788 674.1465,-15.2311 674.4657,-8.2384"/>
</g>
<!-- Node33&#45;&gt;Node21 -->
<g id="edge24" class="edge">
<title>Node33&#45;&gt;Node21</title>
<path fill="none" stroke="#191970" d="M1021.1,-113.9559C1018.1979,-113.2712 1015.2978,-112.6086 1012.5,-112 951.4521,-98.7205 881.4223,-85.9553 831.3829,-77.2557"/>
<polygon fill="#191970" stroke="#191970" points="831.7853,-73.7733 821.3349,-75.5167 830.5915,-80.6708 831.7853,-73.7733"/>
</g>
<!-- Node34 -->
<g id="node16" class="node">
<title>Node34</title>
<polygon fill="#ffffff" stroke="#bfbfbf" points="896,-56.5 896,-75.5 961,-75.5 961,-56.5 896,-56.5"/>
<text text-anchor="middle" x="928.5" y="-63.5" font-family="Helvetica,sans-Serif" font-size="10.00" fill="#000000">stdexcept</text>
</g>
<!-- Node33&#45;&gt;Node34 -->
<g id="edge25" class="edge">
<title>Node33&#45;&gt;Node34</title>
<path fill="none" stroke="#191970" d="M1031.1836,-112.3733C1011.2784,-103.3838 981.3564,-89.8706 958.94,-79.7471"/>
<polygon fill="#191970" stroke="#191970" points="960.0925,-76.4272 949.5382,-75.5011 957.2113,-82.8068 960.0925,-76.4272"/>
</g>
<!-- Node35 -->
<g id="node17" class="node">
<title>Node35</title>
<polygon fill="#ffffff" stroke="#bfbfbf" points="979.5,-56.5 979.5,-75.5 1035.5,-75.5 1035.5,-56.5 979.5,-56.5"/>
<text text-anchor="middle" x="1007.5" y="-63.5" font-family="Helvetica,sans-Serif" font-size="10.00" fill="#000000">numeric</text>
</g>
<!-- Node33&#45;&gt;Node35 -->
<g id="edge26" class="edge">
<title>Node33&#45;&gt;Node35</title>
<path fill="none" stroke="#191970" d="M1044.6616,-112.2455C1038.338,-104.3761 1029.2776,-93.101 1021.6864,-83.6542"/>
<polygon fill="#191970" stroke="#191970" points="1024.2408,-81.2454 1015.2486,-75.6427 1018.7842,-85.6302 1024.2408,-81.2454"/>
</g>
<!-- Node39 -->
<g id="node21" class="node">
<title>Node39</title>
<g id="a_node21"><a xlink:href="TransportParams_8h.html" target="_top" xlink:title="Class that holds the data that is read in from the XML file, and which is used for processing of the ...">
<polygon fill="#ffffff" stroke="#000000" points="804,-392.5 804,-411.5 911,-411.5 911,-392.5 804,-392.5"/>
<text text-anchor="middle" x="857.5" y="-399.5" font-family="Helvetica,sans-Serif" font-size="10.00" fill="#000000">TransportParams.h</text>
</a>
</g>
</g>
<!-- Node38&#45;&gt;Node39 -->
<g id="edge30" class="edge">
<title>Node38&#45;&gt;Node39</title>
<path fill="none" stroke="#191970" d="M818.7084,-504.2086C826.4817,-495.4015 837.3068,-481.7658 843.5,-468 850.1079,-453.3122 853.6563,-435.3622 855.5255,-421.8916"/>
<polygon fill="#191970" stroke="#191970" points="859.0201,-422.1443 856.7309,-411.7997 852.0695,-421.314 859.0201,-422.1443"/>
</g>
<!-- Node40 -->
<g id="node22" class="node">
<title>Node40</title>
<g id="a_node22"><a xlink:href="LiquidTranInteraction_8h.html" target="_top" xlink:title="Header file defining the class LiquidTranInteraction and classes which derive from LiquidTranInteract...">
<polygon fill="#ffffff" stroke="#000000" points="706.5,-448.5 706.5,-467.5 834.5,-467.5 834.5,-448.5 706.5,-448.5"/>
<text text-anchor="middle" x="770.5" y="-455.5" font-family="Helvetica,sans-Serif" font-size="10.00" fill="#000000">LiquidTranInteraction.h</text>
</a>
</g>
</g>
<!-- Node38&#45;&gt;Node40 -->
<g id="edge33" class="edge">
<title>Node38&#45;&gt;Node40</title>
<path fill="none" stroke="#191970" d="M802.7067,-504.2455C797.2822,-496.4564 789.5339,-485.3308 782.9967,-475.9439"/>
<polygon fill="#191970" stroke="#191970" points="785.8025,-473.8485 777.2154,-467.6427 780.0583,-477.849 785.8025,-473.8485"/>
</g>
<!-- Node39&#45;&gt;Node1 -->
<g id="edge32" class="edge">
<title>Node39&#45;&gt;Node1</title>
<path fill="none" stroke="#191970" d="M832.6042,-392.4509C780.3464,-372.4069 659.149,-325.9202 599.67,-303.1063"/>
<polygon fill="#191970" stroke="#191970" points="600.9229,-299.8383 590.3327,-299.5249 598.416,-306.374 600.9229,-299.8383"/>
</g>
<!-- Node39&#45;&gt;Node31 -->
<g id="edge31" class="edge">
<title>Node39&#45;&gt;Node31</title>
<path fill="none" stroke="#191970" d="M862.1436,-392.4862C875.2181,-365.6994 912.5296,-289.2565 930.1145,-253.2289"/>
<polygon fill="#191970" stroke="#191970" points="933.462,-254.3498 934.7031,-243.8279 927.1713,-251.2793 933.462,-254.3498"/>
</g>
<!-- Node40&#45;&gt;Node39 -->
<g id="edge34" class="edge">
<title>Node40&#45;&gt;Node39</title>
<path fill="none" stroke="#191970" d="M785.6542,-448.2455C799.0027,-439.6534 818.6586,-427.0014 834.0383,-417.1018"/>
<polygon fill="#191970" stroke="#191970" points="836.0051,-419.9982 842.5194,-411.6427 832.2164,-414.1121 836.0051,-419.9982"/>
</g>
<!-- Node41 -->
<g id="node23" class="node">
<title>Node41</title>
<g id="a_node23"><a xlink:href="LiquidTransportData_8h.html" target="_top" xlink:title="Header file defining class LiquidTransportData. ">
<polygon fill="#ffffff" stroke="#000000" points="597,-392.5 597,-411.5 720,-411.5 720,-392.5 597,-392.5"/>
<text text-anchor="middle" x="658.5" y="-399.5" font-family="Helvetica,sans-Serif" font-size="10.00" fill="#000000">LiquidTransportData.h</text>
</a>
</g>
</g>
<!-- Node40&#45;&gt;Node41 -->
<g id="edge35" class="edge">
<title>Node40&#45;&gt;Node41</title>
<path fill="none" stroke="#191970" d="M751.2465,-448.3733C733.4288,-439.4644 706.7253,-426.1127 686.5406,-416.0203"/>
<polygon fill="#191970" stroke="#191970" points="688.0118,-412.8428 677.5022,-411.5011 684.8813,-419.1038 688.0118,-412.8428"/>
</g>
<!-- Node44 -->
<g id="node26" class="node">
<title>Node44</title>
<g id="a_node26"><a xlink:href="xml_8h.html" target="_top" xlink:title="Classes providing support for XML data files. ">
<polygon fill="#ffffff" stroke="#000000" points="709.5,-112.5 709.5,-131.5 819.5,-131.5 819.5,-112.5 709.5,-112.5"/>
<text text-anchor="middle" x="764.5" y="-119.5" font-family="Helvetica,sans-Serif" font-size="10.00" fill="#000000">cantera/base/xml.h</text>
</a>
</g>
</g>
<!-- Node40&#45;&gt;Node44 -->
<g id="edge41" class="edge">
<title>Node40&#45;&gt;Node44</title>
<path fill="none" stroke="#191970" d="M771.2164,-448.4181C772.5989,-429.0718 775.5,-383.9544 775.5,-346 775.5,-346 775.5,-346 775.5,-234 775.5,-201.5562 770.8718,-164.078 767.6195,-141.7472"/>
<polygon fill="#191970" stroke="#191970" points="771.0343,-140.9203 766.076,-131.5573 764.1132,-141.9687 771.0343,-140.9203"/>
</g>
<!-- Node41&#45;&gt;Node1 -->
<g id="edge36" class="edge">
<title>Node41&#45;&gt;Node1</title>
<path fill="none" stroke="#191970" d="M634.2051,-392.4669C617.909,-384.8914 597.1826,-372.7712 584.5,-356 574.3987,-342.6422 569.6622,-324.075 567.4444,-310.0355"/>
<polygon fill="#191970" stroke="#191970" points="570.8927,-309.4076 566.1514,-299.9328 563.9493,-310.2963 570.8927,-309.4076"/>
</g>
<!-- Node42 -->
<g id="node24" class="node">
<title>Node42</title>
<g id="a_node24"><a xlink:href="LTPspecies_8h.html" target="_top" xlink:title="Header file defining class LTPspecies and its child classes. ">
<polygon fill="#ffffff" stroke="#000000" points="593.5,-336.5 593.5,-355.5 671.5,-355.5 671.5,-336.5 593.5,-336.5"/>
<text text-anchor="middle" x="632.5" y="-343.5" font-family="Helvetica,sans-Serif" font-size="10.00" fill="#000000">LTPspecies.h</text>
</a>
</g>
</g>
<!-- Node41&#45;&gt;Node42 -->
<g id="edge37" class="edge">
<title>Node41&#45;&gt;Node42</title>
<path fill="none" stroke="#191970" d="M653.9711,-392.2455C650.4666,-384.6973 645.5073,-374.0158 641.2377,-364.8197"/>
<polygon fill="#191970" stroke="#191970" points="644.3627,-363.2389 636.977,-355.6427 638.0136,-366.1867 644.3627,-363.2389"/>
</g>
<!-- Node43 -->
<g id="node25" class="node">
<title>Node43</title>
<g id="a_node25"><a xlink:href="TransportData_8h.html" target="_top" xlink:title="TransportData.h">
<polygon fill="#ffffff" stroke="#000000" points="653.5,-280.5 653.5,-299.5 747.5,-299.5 747.5,-280.5 653.5,-280.5"/>
<text text-anchor="middle" x="700.5" y="-287.5" font-family="Helvetica,sans-Serif" font-size="10.00" fill="#000000">TransportData.h</text>
</a>
</g>
</g>
<!-- Node41&#45;&gt;Node43 -->
<g id="edge39" class="edge">
<title>Node41&#45;&gt;Node43</title>
<path fill="none" stroke="#191970" d="M663.6612,-392.32C668.4274,-383.1397 675.504,-368.8744 680.5,-356 686.4558,-340.6524 691.7835,-322.7514 695.4396,-309.4674"/>
<polygon fill="#191970" stroke="#191970" points="698.8889,-310.1173 698.0947,-299.5523 692.1271,-308.3066 698.8889,-310.1173"/>
</g>
<!-- Node42&#45;&gt;Node1 -->
<g id="edge38" class="edge">
<title>Node42&#45;&gt;Node1</title>
<path fill="none" stroke="#191970" d="M620.8295,-336.2455C610.9339,-327.9746 596.5373,-315.9416 584.9099,-306.2232"/>
<polygon fill="#191970" stroke="#191970" points="586.9542,-303.3703 577.0368,-299.6427 582.465,-308.7413 586.9542,-303.3703"/>
</g>
<!-- Node43&#45;&gt;Node6 -->
<g id="edge40" class="edge">
<title>Node43&#45;&gt;Node6</title>
<path fill="none" stroke="#191970" d="M713.9081,-280.4384C758.7985,-247.2993 897.5239,-135.0766 834.5,-56 814.8379,-31.3298 726.9756,-18.8253 674.1414,-13.4286"/>
<polygon fill="#191970" stroke="#191970" points="674.3658,-9.9339 664.0722,-12.4425 673.6834,-16.9006 674.3658,-9.9339"/>
</g>
<!-- Node44&#45;&gt;Node4 -->
<g id="edge42" class="edge">
<title>Node44&#45;&gt;Node4</title>
<path fill="none" stroke="#191970" d="M737.6826,-112.3733C711.9668,-103.1419 672.962,-89.1402 644.5401,-78.9375"/>
<polygon fill="#191970" stroke="#191970" points="645.5619,-75.5857 634.9674,-75.5011 643.1968,-82.174 645.5619,-75.5857"/>
</g>
<!-- Node44&#45;&gt;Node21 -->
<g id="edge43" class="edge">
<title>Node44&#45;&gt;Node21</title>
<path fill="none" stroke="#191970" d="M764.5,-112.2455C764.5,-104.9382 764.5,-94.6944 764.5,-85.7046"/>
<polygon fill="#191970" stroke="#191970" points="768.0001,-85.6426 764.5,-75.6427 761.0001,-85.6427 768.0001,-85.6426"/>
</g>
</g>
</svg>
