<?xml version="1.0" encoding="UTF-8" standalone="no"?>
<!DOCTYPE svg PUBLIC "-//W3C//DTD SVG 1.1//EN"
 "http://www.w3.org/Graphics/SVG/1.1/DTD/svg11.dtd">
<!-- Generated by graphviz version 2.38.0 (20140413.2041)
 -->
<!-- Title: logger.h Pages: 1 -->
<svg width="279pt" height="140pt"
 viewBox="0.00 0.00 278.50 140.00" xmlns="http://www.w3.org/2000/svg" xmlns:xlink="http://www.w3.org/1999/xlink">
<g id="graph0" class="graph" transform="scale(1 1) rotate(0) translate(4 136)">
<title>logger.h</title>
<polygon fill="white" stroke="none" points="-4,4 -4,-136 274.5,-136 274.5,4 -4,4"/>
<!-- Node1 -->
<g id="node1" class="node"><title>Node1</title>
<polygon fill="#bfbfbf" stroke="black" points="163.5,-112.5 163.5,-131.5 214.5,-131.5 214.5,-112.5 163.5,-112.5"/>
<text text-anchor="middle" x="189" y="-119.5" font-family="Helvetica,sans-Serif" font-size="10.00">logger.h</text>
</g>
<!-- Node2 -->
<g id="node2" class="node"><title>Node2</title>
<g id="a_node2"><a xlink:href="application_8h.html" target="_top" xlink:title="application.h">
<polygon fill="white" stroke="black" points="110.5,-56.5 110.5,-75.5 181.5,-75.5 181.5,-56.5 110.5,-56.5"/>
<text text-anchor="middle" x="146" y="-63.5" font-family="Helvetica,sans-Serif" font-size="10.00">application.h</text>
</a>
</g>
</g>
<!-- Node1&#45;&gt;Node2 -->
<g id="edge1" class="edge"><title>Node1&#45;&gt;Node2</title>
<path fill="none" stroke="midnightblue" d="M175.578,-104.144C168.086,-94.7357 159.063,-83.4046 152.968,-75.7511"/>
<polygon fill="midnightblue" stroke="midnightblue" points="172.932,-106.44 181.899,-112.083 178.408,-102.08 172.932,-106.44"/>
</g>
<!-- Node6 -->
<g id="node6" class="node"><title>Node6</title>
<g id="a_node6"><a xlink:href="wrappers_8h_source.html" target="_top" xlink:title="wrappers.h">
<polygon fill="white" stroke="black" points="199.5,-56.5 199.5,-75.5 264.5,-75.5 264.5,-56.5 199.5,-56.5"/>
<text text-anchor="middle" x="232" y="-63.5" font-family="Helvetica,sans-Serif" font-size="10.00">wrappers.h</text>
</a>
</g>
</g>
<!-- Node1&#45;&gt;Node6 -->
<g id="edge5" class="edge"><title>Node1&#45;&gt;Node6</title>
<path fill="none" stroke="midnightblue" d="M202.422,-104.144C209.914,-94.7357 218.937,-83.4046 225.032,-75.7511"/>
<polygon fill="midnightblue" stroke="midnightblue" points="199.592,-102.08 196.101,-112.083 205.068,-106.44 199.592,-102.08"/>
</g>
<!-- Node3 -->
<g id="node3" class="node"><title>Node3</title>
<g id="a_node3"><a xlink:href="application_8cpp.html" target="_top" xlink:title="application.cpp">
<polygon fill="white" stroke="black" points="0,-0.5 0,-19.5 82,-19.5 82,-0.5 0,-0.5"/>
<text text-anchor="middle" x="41" y="-7.5" font-family="Helvetica,sans-Serif" font-size="10.00">application.cpp</text>
</a>
</g>
</g>
<!-- Node2&#45;&gt;Node3 -->
<g id="edge2" class="edge"><title>Node2&#45;&gt;Node3</title>
<path fill="none" stroke="midnightblue" d="M120.19,-51.7261C100.747,-41.7271 74.6516,-28.3065 57.8282,-19.6545"/>
<polygon fill="midnightblue" stroke="midnightblue" points="118.636,-54.8629 129.13,-56.324 121.838,-48.6379 118.636,-54.8629"/>
</g>
<!-- Node4 -->
<g id="node4" class="node"><title>Node4</title>
<g id="a_node4"><a xlink:href="ctexceptions_8cpp.html" target="_top" xlink:title="ctexceptions.cpp">
<polygon fill="white" stroke="black" points="100.5,-0.5 100.5,-19.5 191.5,-19.5 191.5,-0.5 100.5,-0.5"/>
<text text-anchor="middle" x="146" y="-7.5" font-family="Helvetica,sans-Serif" font-size="10.00">ctexceptions.cpp</text>
</a>
</g>
</g>
<!-- Node2&#45;&gt;Node4 -->
<g id="edge3" class="edge"><title>Node2&#45;&gt;Node4</title>
<path fill="none" stroke="midnightblue" d="M146,-45.8045C146,-36.9102 146,-26.7798 146,-19.7511"/>
<polygon fill="midnightblue" stroke="midnightblue" points="142.5,-46.083 146,-56.083 149.5,-46.083 142.5,-46.083"/>
</g>
<!-- Node5 -->
<g id="node5" class="node"><title>Node5</title>
<g id="a_node5"><a xlink:href="global_8cpp.html" target="_top" xlink:title="global.cpp">
<polygon fill="white" stroke="black" points="209.5,-0.5 209.5,-19.5 270.5,-19.5 270.5,-0.5 209.5,-0.5"/>
<text text-anchor="middle" x="240" y="-7.5" font-family="Helvetica,sans-Serif" font-size="10.00">global.cpp</text>
</a>
</g>
</g>
<!-- Node2&#45;&gt;Node5 -->
<g id="edge4" class="edge"><title>Node2&#45;&gt;Node5</title>
<path fill="none" stroke="midnightblue" d="M170.062,-51.1774C187.359,-41.2407 210.148,-28.1492 224.935,-19.6545"/>
<polygon fill="midnightblue" stroke="midnightblue" points="168.03,-48.3078 161.103,-56.324 171.517,-54.3775 168.03,-48.3078"/>
</g>
</g>
</svg>
