<?xml version="1.0" encoding="UTF-8" standalone="no"?>
<!DOCTYPE svg PUBLIC "-//W3C//DTD SVG 1.1//EN"
 "http://www.w3.org/Graphics/SVG/1.1/DTD/svg11.dtd">
<!-- Generated by graphviz version 2.28.0 (20120425.2022)
 -->
<!-- Title: LTPspecies.h Pages: 1 -->
<svg width="1462pt" height="308pt"
 viewBox="0.00 0.00 1462.06 308.00" xmlns="http://www.w3.org/2000/svg" xmlns:xlink="http://www.w3.org/1999/xlink">
<g id="graph1" class="graph" transform="scale(1 1) rotate(0) translate(4 304)">
<title>LTPspecies.h</title>
<polygon fill="white" stroke="white" points="-4,5 -4,-304 1459.06,-304 1459.06,5 -4,5"/>
<!-- Node1 -->
<g id="node1" class="node"><title>Node1</title>
<polygon fill="#bfbfbf" stroke="black" points="1136,-280.5 1136,-299.5 1214,-299.5 1214,-280.5 1136,-280.5"/>
<text text-anchor="middle" x="1175" y="-287.5" font-family="FreeSans" font-size="10.00">LTPspecies.h</text>
</g>
<!-- Node2 -->
<g id="node3" class="node"><title>Node2</title>
<a xlink:href="LTPspecies_8cpp.html" target="_top" xlink:title="\ definitions for the LTPspecies objects and its children, which is the virtual base class for descri...">
<polygon fill="white" stroke="black" points="967.5,-224.5 967.5,-243.5 1056.5,-243.5 1056.5,-224.5 967.5,-224.5"/>
<text text-anchor="middle" x="1012" y="-231.5" font-family="FreeSans" font-size="10.00">LTPspecies.cpp</text>
</a>
</g>
<!-- Node1&#45;&gt;Node2 -->
<g id="edge2" class="edge"><title>Node1&#45;&gt;Node2</title>
<path fill="none" stroke="midnightblue" d="M1139.3,-277.172C1108.6,-267.004 1065.08,-252.585 1037.71,-243.516"/>
<polygon fill="midnightblue" stroke="midnightblue" points="1138.58,-280.621 1149.17,-280.444 1140.78,-273.976 1138.58,-280.621"/>
</g>
<!-- Node3 -->
<g id="node5" class="node"><title>Node3</title>
<a xlink:href="LiquidTransportData_8h.html" target="_top" xlink:title="Header file defining class LiquidTransportData.">
<polygon fill="white" stroke="black" points="1074,-224.5 1074,-243.5 1190,-243.5 1190,-224.5 1074,-224.5"/>
<text text-anchor="middle" x="1132" y="-231.5" font-family="FreeSans" font-size="10.00">LiquidTransportData.h</text>
</a>
</g>
<!-- Node1&#45;&gt;Node3 -->
<g id="edge4" class="edge"><title>Node1&#45;&gt;Node3</title>
<path fill="none" stroke="midnightblue" d="M1161.58,-272.144C1154.09,-262.736 1145.06,-251.405 1138.97,-243.751"/>
<polygon fill="midnightblue" stroke="midnightblue" points="1158.93,-274.44 1167.9,-280.083 1164.41,-270.08 1158.93,-274.44"/>
</g>
<!-- Node20 -->
<g id="node54" class="node"><title>Node20</title>
<a xlink:href="SolidTransport_8h.html" target="_top" xlink:title="Header file for defining the class SolidTransport, which handles transport of ions within solid phase...">
<polygon fill="white" stroke="black" points="1345,-112.5 1345,-131.5 1435,-131.5 1435,-112.5 1345,-112.5"/>
<text text-anchor="middle" x="1390" y="-119.5" font-family="FreeSans" font-size="10.00">SolidTransport.h</text>
</a>
</g>
<!-- Node1&#45;&gt;Node20 -->
<g id="edge68" class="edge"><title>Node1&#45;&gt;Node20</title>
<path fill="none" stroke="midnightblue" d="M1194.41,-274.014C1238.34,-240.095 1344.25,-158.324 1378.85,-131.605"/>
<polygon fill="midnightblue" stroke="midnightblue" points="1192.03,-271.427 1186.26,-280.309 1196.31,-276.968 1192.03,-271.427"/>
</g>
<!-- Node22 -->
<g id="node59" class="node"><title>Node22</title>
<a xlink:href="SolidTransportData_8h.html" target="_top" xlink:title="Header file defining class SolidTransportData.">
<polygon fill="white" stroke="black" points="1163,-112.5 1163,-131.5 1275,-131.5 1275,-112.5 1163,-112.5"/>
<text text-anchor="middle" x="1219" y="-119.5" font-family="FreeSans" font-size="10.00">SolidTransportData.h</text>
</a>
</g>
<!-- Node1&#45;&gt;Node22 -->
<g id="edge74" class="edge"><title>Node1&#45;&gt;Node22</title>
<path fill="none" stroke="midnightblue" d="M1185.49,-271.527C1189.95,-263.405 1194.84,-253.467 1198,-244 1211.57,-203.35 1216.78,-151.94 1218.39,-131.726"/>
<polygon fill="midnightblue" stroke="midnightblue" points="1182.35,-269.964 1180.4,-280.379 1188.42,-273.45 1182.35,-269.964"/>
</g>
<!-- Node4 -->
<g id="node7" class="node"><title>Node4</title>
<a xlink:href="LiquidTransportData_8cpp.html" target="_top" xlink:title="Source code for liquid transport property evaluations.">
<polygon fill="white" stroke="black" points="929,-168.5 929,-187.5 1055,-187.5 1055,-168.5 929,-168.5"/>
<text text-anchor="middle" x="992" y="-175.5" font-family="FreeSans" font-size="10.00">LiquidTransportData.cpp</text>
</a>
</g>
<!-- Node3&#45;&gt;Node4 -->
<g id="edge6" class="edge"><title>Node3&#45;&gt;Node4</title>
<path fill="none" stroke="midnightblue" d="M1100.3,-220.772C1074,-210.629 1037.28,-196.467 1014.08,-187.516"/>
<polygon fill="midnightblue" stroke="midnightblue" points="1099.23,-224.11 1109.82,-224.444 1101.75,-217.579 1099.23,-224.11"/>
</g>
<!-- Node5 -->
<g id="node9" class="node"><title>Node5</title>
<a xlink:href="LiquidTransportParams_8h.html" target="_top" xlink:title="Header file defining class LiquidTransportParams.">
<polygon fill="white" stroke="black" points="534,-112.5 534,-131.5 662,-131.5 662,-112.5 534,-112.5"/>
<text text-anchor="middle" x="598" y="-119.5" font-family="FreeSans" font-size="10.00">LiquidTransportParams.h</text>
</a>
</g>
<!-- Node3&#45;&gt;Node5 -->
<g id="edge8" class="edge"><title>Node3&#45;&gt;Node5</title>
<path fill="none" stroke="midnightblue" d="M1080.45,-222.381C974.851,-200.628 735.808,-151.387 639.431,-131.535"/>
<polygon fill="midnightblue" stroke="midnightblue" points="1080.04,-225.87 1090.54,-224.46 1081.45,-219.014 1080.04,-225.87"/>
</g>
<!-- Node19 -->
<g id="node50" class="node"><title>Node19</title>
<a xlink:href="LiquidTranInteraction_8h.html" target="_top" xlink:title="Header file defining the class LiquidTranInteraction and classes which derive from LiquidTranInteract...">
<polygon fill="white" stroke="black" points="1073,-168.5 1073,-187.5 1191,-187.5 1191,-168.5 1073,-168.5"/>
<text text-anchor="middle" x="1132" y="-175.5" font-family="FreeSans" font-size="10.00">LiquidTranInteraction.h</text>
</a>
</g>
<!-- Node3&#45;&gt;Node19 -->
<g id="edge62" class="edge"><title>Node3&#45;&gt;Node19</title>
<path fill="none" stroke="midnightblue" d="M1132,-213.805C1132,-204.91 1132,-194.78 1132,-187.751"/>
<polygon fill="midnightblue" stroke="midnightblue" points="1128.5,-214.083 1132,-224.083 1135.5,-214.083 1128.5,-214.083"/>
</g>
<!-- Node6 -->
<g id="node11" class="node"><title>Node6</title>
<a xlink:href="AqueousTransport_8cpp.html" target="_top" xlink:title="Transport properties for aqueous systems.">
<polygon fill="white" stroke="black" points="872,-0.5 872,-19.5 990,-19.5 990,-0.5 872,-0.5"/>
<text text-anchor="middle" x="931" y="-7.5" font-family="FreeSans" font-size="10.00">AqueousTransport.cpp</text>
</a>
</g>
<!-- Node5&#45;&gt;Node6 -->
<g id="edge10" class="edge"><title>Node5&#45;&gt;Node6</title>
<path fill="none" stroke="midnightblue" d="M672.406,-119.275C753.428,-115.879 876.141,-105.813 911,-76 927.689,-61.7262 930.685,-33.881 931.075,-19.7203"/>
<polygon fill="midnightblue" stroke="midnightblue" points="672.104,-115.784 662.249,-119.675 672.379,-122.778 672.104,-115.784"/>
</g>
<!-- Node7 -->
<g id="node13" class="node"><title>Node7</title>
<a xlink:href="LiquidTranInteraction_8cpp_source.html" target="_top" xlink:title="LiquidTranInteraction.cpp">
<polygon fill="white" stroke="black" points="382,-56.5 382,-75.5 510,-75.5 510,-56.5 382,-56.5"/>
<text text-anchor="middle" x="446" y="-63.5" font-family="FreeSans" font-size="10.00">LiquidTranInteraction.cpp</text>
</a>
</g>
<!-- Node5&#45;&gt;Node7 -->
<g id="edge12" class="edge"><title>Node5&#45;&gt;Node7</title>
<path fill="none" stroke="midnightblue" d="M564.332,-109.039C535.732,-98.8786 495.388,-84.5457 469.972,-75.5164"/>
<polygon fill="midnightblue" stroke="midnightblue" points="563.32,-112.394 573.915,-112.444 565.664,-105.798 563.32,-112.394"/>
</g>
<!-- Node8 -->
<g id="node15" class="node"><title>Node8</title>
<a xlink:href="LiquidTransport_8cpp.html" target="_top" xlink:title="Mixture&#45;averaged transport properties for ideal gas mixtures.">
<polygon fill="white" stroke="black" points="0,-0.5 0,-19.5 104,-19.5 104,-0.5 0,-0.5"/>
<text text-anchor="middle" x="52" y="-7.5" font-family="FreeSans" font-size="10.00">LiquidTransport.cpp</text>
</a>
</g>
<!-- Node5&#45;&gt;Node8 -->
<g id="edge14" class="edge"><title>Node5&#45;&gt;Node8</title>
<path fill="none" stroke="midnightblue" d="M523.559,-120.543C378.108,-118.872 67.4784,-111.178 35,-76 20.441,-60.2309 35.5928,-33.5508 45.2673,-19.7906"/>
<polygon fill="midnightblue" stroke="midnightblue" points="523.702,-124.045 533.739,-120.653 523.778,-117.045 523.702,-124.045"/>
</g>
<!-- Node9 -->
<g id="node17" class="node"><title>Node9</title>
<a xlink:href="LiquidTransportParams_8cpp.html" target="_top" xlink:title="Source code for liquid mixture transport property evaluations.">
<polygon fill="white" stroke="black" points="528.5,-56.5 528.5,-75.5 667.5,-75.5 667.5,-56.5 528.5,-56.5"/>
<text text-anchor="middle" x="598" y="-63.5" font-family="FreeSans" font-size="10.00">LiquidTransportParams.cpp</text>
</a>
</g>
<!-- Node5&#45;&gt;Node9 -->
<g id="edge16" class="edge"><title>Node5&#45;&gt;Node9</title>
<path fill="none" stroke="midnightblue" d="M598,-101.805C598,-92.9102 598,-82.7798 598,-75.7511"/>
<polygon fill="midnightblue" stroke="midnightblue" points="594.5,-102.083 598,-112.083 601.5,-102.083 594.5,-102.083"/>
</g>
<!-- Node10 -->
<g id="node19" class="node"><title>Node10</title>
<a xlink:href="SimpleTransport_8cpp.html" target="_top" xlink:title="Simple mostly constant transport properties.">
<polygon fill="white" stroke="black" points="682,-0.5 682,-19.5 790,-19.5 790,-0.5 682,-0.5"/>
<text text-anchor="middle" x="736" y="-7.5" font-family="FreeSans" font-size="10.00">SimpleTransport.cpp</text>
</a>
</g>
<!-- Node5&#45;&gt;Node10 -->
<g id="edge18" class="edge"><title>Node5&#45;&gt;Node10</title>
<path fill="none" stroke="midnightblue" d="M523.609,-121.463C441.674,-119.485 327.187,-107.842 373,-56 393.106,-33.2481 585.766,-19.3756 681.939,-13.8136"/>
<polygon fill="midnightblue" stroke="midnightblue" points="523.61,-124.964 533.677,-121.663 523.748,-117.965 523.61,-124.964"/>
</g>
<!-- Node11 -->
<g id="node21" class="node"><title>Node11</title>
<a xlink:href="TransportBase_8cpp.html" target="_top" xlink:title="Mixture&#45;averaged transport properties for ideal gas mixtures.">
<polygon fill="white" stroke="black" points="122.5,-0.5 122.5,-19.5 223.5,-19.5 223.5,-0.5 122.5,-0.5"/>
<text text-anchor="middle" x="173" y="-7.5" font-family="FreeSans" font-size="10.00">TransportBase.cpp</text>
</a>
</g>
<!-- Node5&#45;&gt;Node11 -->
<g id="edge20" class="edge"><title>Node5&#45;&gt;Node11</title>
<path fill="none" stroke="midnightblue" d="M523.481,-117.58C411.523,-111.746 210.354,-98.2865 186,-76 170.209,-61.5494 170.502,-33.7843 171.842,-19.6807"/>
<polygon fill="midnightblue" stroke="midnightblue" points="523.532,-121.088 533.698,-118.105 523.891,-114.097 523.532,-121.088"/>
</g>
<!-- Node12 -->
<g id="node23" class="node"><title>Node12</title>
<a xlink:href="TransportFactory_8cpp.html" target="_top" xlink:title="Implementation file for class TransportFactory.">
<polygon fill="white" stroke="black" points="1023.5,-0.5 1023.5,-19.5 1134.5,-19.5 1134.5,-0.5 1023.5,-0.5"/>
<text text-anchor="middle" x="1079" y="-7.5" font-family="FreeSans" font-size="10.00">TransportFactory.cpp</text>
</a>
</g>
<!-- Node5&#45;&gt;Node12 -->
<g id="edge22" class="edge"><title>Node5&#45;&gt;Node12</title>
<path fill="none" stroke="midnightblue" d="M672.06,-119.207C799.089,-115.382 1047.58,-104.332 1075,-76 1089.63,-60.8897 1085.11,-33.4235 1081.55,-19.5327"/>
<polygon fill="midnightblue" stroke="midnightblue" points="671.906,-115.71 662.013,-119.502 672.112,-122.707 671.906,-115.71"/>
</g>
<!-- Node13 -->
<g id="node25" class="node"><title>Node13</title>
<a xlink:href="WaterTransport_8cpp_source.html" target="_top" xlink:title="WaterTransport.cpp">
<polygon fill="white" stroke="black" points="250,-0.5 250,-19.5 354,-19.5 354,-0.5 250,-0.5"/>
<text text-anchor="middle" x="302" y="-7.5" font-family="FreeSans" font-size="10.00">WaterTransport.cpp</text>
</a>
</g>
<!-- Node5&#45;&gt;Node13 -->
<g id="edge24" class="edge"><title>Node5&#45;&gt;Node13</title>
<path fill="none" stroke="midnightblue" d="M523.967,-119.476C474.433,-115.584 409.349,-104.727 359,-76 334.752,-62.1652 315.65,-34.121 307.016,-19.8188"/>
<polygon fill="midnightblue" stroke="midnightblue" points="523.751,-122.97 533.973,-120.185 524.246,-115.987 523.751,-122.97"/>
</g>
<!-- Node14 -->
<g id="node27" class="node"><title>Node14</title>
<a xlink:href="AqueousTransport_8h.html" target="_top" xlink:title="Header file defining class AqueousTransport.">
<polygon fill="white" stroke="black" points="959.5,-56.5 959.5,-75.5 1066.5,-75.5 1066.5,-56.5 959.5,-56.5"/>
<text text-anchor="middle" x="1013" y="-63.5" font-family="FreeSans" font-size="10.00">AqueousTransport.h</text>
</a>
</g>
<!-- Node5&#45;&gt;Node14 -->
<g id="edge26" class="edge"><title>Node5&#45;&gt;Node14</title>
<path fill="none" stroke="midnightblue" d="M672.365,-111.413C742.634,-102.341 850.992,-88.3167 945,-76 949.605,-75.3967 954.385,-74.7683 959.18,-74.1365"/>
<polygon fill="midnightblue" stroke="midnightblue" points="671.75,-107.964 662.28,-112.715 672.646,-114.906 671.75,-107.964"/>
</g>
<!-- Node15 -->
<g id="node31" class="node"><title>Node15</title>
<a xlink:href="LiquidTransport_8h.html" target="_top" xlink:title="Header file defining class LiquidTransport.">
<polygon fill="white" stroke="red" points="44,-56.5 44,-75.5 138,-75.5 138,-56.5 44,-56.5"/>
<text text-anchor="middle" x="91" y="-63.5" font-family="FreeSans" font-size="10.00">LiquidTransport.h</text>
</a>
</g>
<!-- Node5&#45;&gt;Node15 -->
<g id="edge32" class="edge"><title>Node5&#45;&gt;Node15</title>
<path fill="none" stroke="midnightblue" d="M523.413,-114.529C434.75,-106.594 282.378,-92.1867 152,-76 147.538,-75.4461 142.899,-74.8316 138.259,-74.1915"/>
<polygon fill="midnightblue" stroke="midnightblue" points="523.368,-118.039 533.64,-115.441 523.99,-111.067 523.368,-118.039"/>
</g>
<!-- Node16 -->
<g id="node36" class="node"><title>Node16</title>
<a xlink:href="SimpleTransport_8h.html" target="_top" xlink:title="Header file for the class SimpleTransport which provides simple transport properties for liquids and ...">
<polygon fill="white" stroke="black" points="805,-56.5 805,-75.5 903,-75.5 903,-56.5 805,-56.5"/>
<text text-anchor="middle" x="854" y="-63.5" font-family="FreeSans" font-size="10.00">SimpleTransport.h</text>
</a>
</g>
<!-- Node5&#45;&gt;Node16 -->
<g id="edge40" class="edge"><title>Node5&#45;&gt;Node16</title>
<path fill="none" stroke="midnightblue" d="M648.51,-110.346C696.889,-100.141 768.951,-84.94 813.626,-75.5164"/>
<polygon fill="midnightblue" stroke="midnightblue" points="647.626,-106.955 638.564,-112.444 649.071,-113.804 647.626,-106.955"/>
</g>
<!-- Node17 -->
<g id="node40" class="node"><title>Node17</title>
<a xlink:href="TransportFactory_8h.html" target="_top" xlink:title="Header file defining class TransportFactory (see TransportFactory)">
<polygon fill="white" stroke="red" points="685.5,-56.5 685.5,-75.5 786.5,-75.5 786.5,-56.5 685.5,-56.5"/>
<text text-anchor="middle" x="736" y="-63.5" font-family="FreeSans" font-size="10.00">TransportFactory.h</text>
</a>
</g>
<!-- Node5&#45;&gt;Node17 -->
<g id="edge46" class="edge"><title>Node5&#45;&gt;Node17</title>
<path fill="none" stroke="midnightblue" d="M629.249,-108.772C655.171,-98.6287 691.362,-84.4669 714.236,-75.5164"/>
<polygon fill="midnightblue" stroke="midnightblue" points="627.904,-105.54 619.867,-112.444 630.454,-112.059 627.904,-105.54"/>
</g>
<!-- Node18 -->
<g id="node47" class="node"><title>Node18</title>
<a xlink:href="WaterTransport_8h.html" target="_top" xlink:title="Header file defining class LiquidTransport.">
<polygon fill="white" stroke="black" points="194.5,-56.5 194.5,-75.5 287.5,-75.5 287.5,-56.5 194.5,-56.5"/>
<text text-anchor="middle" x="241" y="-63.5" font-family="FreeSans" font-size="10.00">WaterTransport.h</text>
</a>
</g>
<!-- Node5&#45;&gt;Node18 -->
<g id="edge58" class="edge"><title>Node5&#45;&gt;Node18</title>
<path fill="none" stroke="midnightblue" d="M531.255,-110.904C460.262,-100.166 349.813,-83.459 287.633,-74.0537"/>
<polygon fill="midnightblue" stroke="midnightblue" points="531.021,-114.408 541.432,-112.444 532.068,-107.487 531.021,-114.408"/>
</g>
<!-- Node14&#45;&gt;Node6 -->
<g id="edge28" class="edge"><title>Node14&#45;&gt;Node6</title>
<path fill="none" stroke="midnightblue" d="M991.167,-50.6221C976.187,-40.7574 956.803,-27.9919 944.142,-19.6545"/>
<polygon fill="midnightblue" stroke="midnightblue" points="989.549,-53.7471 999.825,-56.324 993.399,-47.9009 989.549,-53.7471"/>
</g>
<!-- Node14&#45;&gt;Node12 -->
<g id="edge30" class="edge"><title>Node14&#45;&gt;Node12</title>
<path fill="none" stroke="midnightblue" d="M1031.55,-49.8197C1043.38,-40.1452 1058.29,-27.9481 1068.2,-19.8339"/>
<polygon fill="midnightblue" stroke="midnightblue" points="1029.13,-47.2827 1023.6,-56.324 1033.56,-52.7004 1029.13,-47.2827"/>
</g>
<!-- Node15&#45;&gt;Node8 -->
<g id="edge34" class="edge"><title>Node15&#45;&gt;Node8</title>
<path fill="none" stroke="midnightblue" d="M78.6178,-47.8554C71.8646,-38.5048 63.7914,-27.3265 58.3202,-19.7511"/>
<polygon fill="midnightblue" stroke="midnightblue" points="75.8676,-50.0254 84.5599,-56.083 81.5424,-45.927 75.8676,-50.0254"/>
</g>
<!-- Node15&#45;&gt;Node11 -->
<g id="edge36" class="edge"><title>Node15&#45;&gt;Node11</title>
<path fill="none" stroke="midnightblue" d="M112.833,-50.6221C127.813,-40.7574 147.197,-27.9919 159.858,-19.6545"/>
<polygon fill="midnightblue" stroke="midnightblue" points="110.601,-47.9009 104.175,-56.324 114.451,-53.7471 110.601,-47.9009"/>
</g>
<!-- Node15&#45;&gt;Node12 -->
<g id="edge38" class="edge"><title>Node15&#45;&gt;Node12</title>
<path fill="none" stroke="midnightblue" d="M148.515,-59.0833C160.872,-57.9431 173.863,-56.8431 186,-56 546.818,-30.9359 638.416,-48.2336 999,-20 1006.8,-19.389 1015.02,-18.6147 1023.1,-17.7777"/>
<polygon fill="midnightblue" stroke="midnightblue" points="147.944,-55.6215 138.317,-60.0457 148.602,-62.5905 147.944,-55.6215"/>
</g>
<!-- Node16&#45;&gt;Node10 -->
<g id="edge42" class="edge"><title>Node16&#45;&gt;Node10</title>
<path fill="none" stroke="midnightblue" d="M826.1,-52.2321C804.027,-42.1312 773.824,-28.3091 754.61,-19.5164"/>
<polygon fill="midnightblue" stroke="midnightblue" points="824.753,-55.4648 835.303,-56.4435 827.666,-49.0997 824.753,-55.4648"/>
</g>
<!-- Node16&#45;&gt;Node12 -->
<g id="edge44" class="edge"><title>Node16&#45;&gt;Node12</title>
<path fill="none" stroke="midnightblue" d="M899.465,-54.0884C941.973,-43.8865 1004.58,-28.8612 1043.51,-19.5164"/>
<polygon fill="midnightblue" stroke="midnightblue" points="898.559,-50.7064 889.652,-56.4435 900.193,-57.5131 898.559,-50.7064"/>
</g>
<!-- Node17&#45;&gt;Node6 -->
<g id="edge48" class="edge"><title>Node17&#45;&gt;Node6</title>
<path fill="none" stroke="midnightblue" d="M776.81,-53.6986C813.613,-43.507 866.929,-28.7429 900.246,-19.5164"/>
<polygon fill="midnightblue" stroke="midnightblue" points="775.602,-50.4016 766.898,-56.4435 777.47,-57.1477 775.602,-50.4016"/>
</g>
<!-- Node17&#45;&gt;Node8 -->
<g id="edge50" class="edge"><title>Node17&#45;&gt;Node8</title>
<path fill="none" stroke="midnightblue" d="M675.172,-56.0126C424.955,-29.8182 359.061,-45.9741 113,-20 110.126,-19.6966 107.179,-19.3571 104.207,-18.9924"/>
<polygon fill="midnightblue" stroke="midnightblue" points="674.987,-59.5125 685.3,-57.0853 675.724,-52.5514 674.987,-59.5125"/>
</g>
<!-- Node17&#45;&gt;Node10 -->
<g id="edge52" class="edge"><title>Node17&#45;&gt;Node10</title>
<path fill="none" stroke="midnightblue" d="M736,-45.8045C736,-36.9102 736,-26.7798 736,-19.7511"/>
<polygon fill="midnightblue" stroke="midnightblue" points="732.5,-46.083 736,-56.083 739.5,-46.083 732.5,-46.083"/>
</g>
<!-- Node17&#45;&gt;Node11 -->
<g id="edge54" class="edge"><title>Node17&#45;&gt;Node11</title>
<path fill="none" stroke="midnightblue" d="M675.357,-56.0044C481.623,-33.8283 430.681,-40.3889 241,-20 235.435,-19.4018 229.621,-18.7199 223.838,-18.0052"/>
<polygon fill="midnightblue" stroke="midnightblue" points="674.957,-59.4813 685.293,-57.1523 675.76,-52.5276 674.957,-59.4813"/>
</g>
<!-- Node17&#45;&gt;Node12 -->
<g id="edge56" class="edge"><title>Node17&#45;&gt;Node12</title>
<path fill="none" stroke="midnightblue" d="M796.659,-55.4502C861.305,-45.2726 962.712,-29.3077 1024.78,-19.536"/>
<polygon fill="midnightblue" stroke="midnightblue" points="795.945,-52.0194 786.611,-57.0321 797.034,-58.9343 795.945,-52.0194"/>
</g>
<!-- Node18&#45;&gt;Node13 -->
<g id="edge60" class="edge"><title>Node18&#45;&gt;Node13</title>
<path fill="none" stroke="midnightblue" d="M258.467,-49.5372C269.344,-39.9087 282.944,-27.8694 292.021,-19.8339"/>
<polygon fill="midnightblue" stroke="midnightblue" points="255.968,-47.0749 250.801,-56.324 260.608,-52.3162 255.968,-47.0749"/>
</g>
<!-- Node19&#45;&gt;Node5 -->
<g id="edge66" class="edge"><title>Node19&#45;&gt;Node5</title>
<path fill="none" stroke="midnightblue" d="M1062.41,-167.852C913.131,-150.916 750.047,-136.132 662.147,-128.472"/>
<polygon fill="midnightblue" stroke="midnightblue" points="1062.34,-171.367 1072.68,-169.023 1063.14,-164.412 1062.34,-171.367"/>
</g>
<!-- Node19&#45;&gt;Node12 -->
<g id="edge64" class="edge"><title>Node19&#45;&gt;Node12</title>
<path fill="none" stroke="midnightblue" d="M1126.06,-158.395C1114.63,-122.585 1089.96,-45.3423 1081.74,-19.5681"/>
<polygon fill="midnightblue" stroke="midnightblue" points="1122.77,-159.613 1129.15,-168.075 1129.44,-157.484 1122.77,-159.613"/>
</g>
<!-- Node20&#45;&gt;Node12 -->
<g id="edge72" class="edge"><title>Node20&#45;&gt;Node12</title>
<path fill="none" stroke="midnightblue" d="M1416.63,-107.473C1438.97,-94.3849 1464.9,-73.9483 1449,-56 1428.54,-32.9002 1233.15,-19.2405 1134.87,-13.778"/>
<polygon fill="midnightblue" stroke="midnightblue" points="1414.74,-104.515 1407.71,-112.438 1418.15,-110.63 1414.74,-104.515"/>
</g>
<!-- Node21 -->
<g id="node56" class="node"><title>Node21</title>
<a xlink:href="SolidTransport_8cpp.html" target="_top" xlink:title="Definition file for the class SolidTransport, which handles transport of ions within solid phases (se...">
<polygon fill="white" stroke="black" points="1339.5,-56.5 1339.5,-75.5 1440.5,-75.5 1440.5,-56.5 1339.5,-56.5"/>
<text text-anchor="middle" x="1390" y="-63.5" font-family="FreeSans" font-size="10.00">SolidTransport.cpp</text>
</a>
</g>
<!-- Node20&#45;&gt;Node21 -->
<g id="edge70" class="edge"><title>Node20&#45;&gt;Node21</title>
<path fill="none" stroke="midnightblue" d="M1390,-101.805C1390,-92.9102 1390,-82.7798 1390,-75.7511"/>
<polygon fill="midnightblue" stroke="midnightblue" points="1386.5,-102.083 1390,-112.083 1393.5,-102.083 1386.5,-102.083"/>
</g>
<!-- Node22&#45;&gt;Node12 -->
<g id="edge80" class="edge"><title>Node22&#45;&gt;Node12</title>
<path fill="none" stroke="midnightblue" d="M1202.59,-104.884C1188.38,-91.2558 1167.03,-71.5255 1147,-56 1129.21,-42.2088 1107.29,-28.1898 1093.23,-19.546"/>
<polygon fill="midnightblue" stroke="midnightblue" points="1200.45,-107.681 1210.06,-112.126 1205.32,-102.654 1200.45,-107.681"/>
</g>
<!-- Node22&#45;&gt;Node17 -->
<g id="edge82" class="edge"><title>Node22&#45;&gt;Node17</title>
<path fill="none" stroke="midnightblue" d="M1152.71,-114.836C1069.35,-106.88 921.873,-92.1283 796,-76 792.97,-75.6118 789.857,-75.196 786.718,-74.7639"/>
<polygon fill="midnightblue" stroke="midnightblue" points="1152.52,-118.333 1162.8,-115.796 1153.18,-111.364 1152.52,-118.333"/>
</g>
<!-- Node22&#45;&gt;Node21 -->
<g id="edge76" class="edge"><title>Node22&#45;&gt;Node21</title>
<path fill="none" stroke="midnightblue" d="M1256.04,-109.304C1288.26,-99.1294 1334.19,-84.6246 1363.03,-75.5164"/>
<polygon fill="midnightblue" stroke="midnightblue" points="1254.58,-106.095 1246.1,-112.444 1256.69,-112.77 1254.58,-106.095"/>
</g>
<!-- Node23 -->
<g id="node62" class="node"><title>Node23</title>
<a xlink:href="SolidTransportData_8cpp.html" target="_top" xlink:title="Source code for solid transport property evaluations.">
<polygon fill="white" stroke="black" points="1199,-56.5 1199,-75.5 1321,-75.5 1321,-56.5 1199,-56.5"/>
<text text-anchor="middle" x="1260" y="-63.5" font-family="FreeSans" font-size="10.00">SolidTransportData.cpp</text>
</a>
</g>
<!-- Node22&#45;&gt;Node23 -->
<g id="edge78" class="edge"><title>Node22&#45;&gt;Node23</title>
<path fill="none" stroke="midnightblue" d="M1232.02,-103.855C1239.12,-94.5048 1247.6,-83.3265 1253.36,-75.7511"/>
<polygon fill="midnightblue" stroke="midnightblue" points="1229.03,-102.002 1225.77,-112.083 1234.61,-106.235 1229.03,-102.002"/>
</g>
</g>
</svg>
