<?xml version="1.0" encoding="UTF-8" standalone="no"?>
<!DOCTYPE svg PUBLIC "-//W3C//DTD SVG 1.1//EN"
 "http://www.w3.org/Graphics/SVG/1.1/DTD/svg11.dtd">
<!-- Generated by graphviz version 2.38.0 (20151222.1943)
 -->
<!-- Title: LTPspecies.h Pages: 1 -->
<svg width="1058pt" height="308pt"
 viewBox="0.00 0.00 1058.00 308.00" xmlns="http://www.w3.org/2000/svg" xmlns:xlink="http://www.w3.org/1999/xlink">
<g id="graph0" class="graph" transform="scale(1 1) rotate(0) translate(4 304)">
<title>LTPspecies.h</title>
<polygon fill="white" stroke="none" points="-4,4 -4,-304 1054,-304 1054,4 -4,4"/>
<!-- Node1 -->
<g id="node1" class="node"><title>Node1</title>
<polygon fill="#bfbfbf" stroke="black" points="665.5,-280.5 665.5,-299.5 739.5,-299.5 739.5,-280.5 665.5,-280.5"/>
<text text-anchor="middle" x="702.5" y="-287.5" font-family="FreeSans" font-size="10.00">LTPspecies.h</text>
</g>
<!-- Node2 -->
<g id="node2" class="node"><title>Node2</title>
<g id="a_node2"><a xlink:href="LTPspecies_8cpp.html" target="_top" xlink:title="\ definitions for the LTPspecies objects and its children, which is the virtual base class for descri...">
<polygon fill="white" stroke="black" points="486,-224.5 486,-243.5 571,-243.5 571,-224.5 486,-224.5"/>
<text text-anchor="middle" x="528.5" y="-231.5" font-family="FreeSans" font-size="10.00">LTPspecies.cpp</text>
</a>
</g>
</g>
<!-- Node1&#45;&gt;Node2 -->
<g id="edge1" class="edge"><title>Node1&#45;&gt;Node2</title>
<path fill="none" stroke="midnightblue" d="M665.239,-277.436C632.433,-267.255 585.417,-252.664 555.942,-243.516"/>
<polygon fill="midnightblue" stroke="midnightblue" points="664.341,-280.822 674.929,-280.444 666.416,-274.137 664.341,-280.822"/>
</g>
<!-- Node3 -->
<g id="node3" class="node"><title>Node3</title>
<g id="a_node3"><a xlink:href="LiquidTransportData_8h.html" target="_top" xlink:title="Header file defining class LiquidTransportData. ">
<polygon fill="white" stroke="black" points="589.5,-224.5 589.5,-243.5 699.5,-243.5 699.5,-224.5 589.5,-224.5"/>
<text text-anchor="middle" x="644.5" y="-231.5" font-family="FreeSans" font-size="10.00">LiquidTransportData.h</text>
</a>
</g>
</g>
<!-- Node1&#45;&gt;Node3 -->
<g id="edge2" class="edge"><title>Node1&#45;&gt;Node3</title>
<path fill="none" stroke="midnightblue" d="M685.587,-273.253C675.297,-263.673 662.534,-251.791 653.988,-243.834"/>
<polygon fill="midnightblue" stroke="midnightblue" points="683.477,-276.071 693.181,-280.324 688.247,-270.948 683.477,-276.071"/>
</g>
<!-- Node14 -->
<g id="node14" class="node"><title>Node14</title>
<g id="a_node14"><a xlink:href="SolidTransport_8h.html" target="_top" xlink:title="Header file for defining the class SolidTransport, which handles transport of ions within solid phase...">
<polygon fill="white" stroke="black" points="717.5,-224.5 717.5,-243.5 803.5,-243.5 803.5,-224.5 717.5,-224.5"/>
<text text-anchor="middle" x="760.5" y="-231.5" font-family="FreeSans" font-size="10.00">SolidTransport.h</text>
</a>
</g>
</g>
<!-- Node1&#45;&gt;Node14 -->
<g id="edge15" class="edge"><title>Node1&#45;&gt;Node14</title>
<path fill="none" stroke="midnightblue" d="M719.413,-273.253C729.703,-263.673 742.466,-251.791 751.012,-243.834"/>
<polygon fill="midnightblue" stroke="midnightblue" points="716.753,-270.948 711.819,-280.324 721.523,-276.071 716.753,-270.948"/>
</g>
<!-- Node16 -->
<g id="node16" class="node"><title>Node16</title>
<g id="a_node16"><a xlink:href="SolidTransportData_8h.html" target="_top" xlink:title="Header file defining class SolidTransportData. ">
<polygon fill="white" stroke="black" points="841,-224.5 841,-243.5 948,-243.5 948,-224.5 841,-224.5"/>
<text text-anchor="middle" x="894.5" y="-231.5" font-family="FreeSans" font-size="10.00">SolidTransportData.h</text>
</a>
</g>
</g>
<!-- Node1&#45;&gt;Node16 -->
<g id="edge18" class="edge"><title>Node1&#45;&gt;Node16</title>
<path fill="none" stroke="midnightblue" d="M742.683,-277.699C778.919,-267.507 831.414,-252.743 864.219,-243.516"/>
<polygon fill="midnightblue" stroke="midnightblue" points="741.602,-274.367 732.923,-280.444 743.497,-281.105 741.602,-274.367"/>
</g>
<!-- Node4 -->
<g id="node4" class="node"><title>Node4</title>
<g id="a_node4"><a xlink:href="LiquidTransportData_8cpp.html" target="_top" xlink:title="Source code for liquid transport property evaluations. ">
<polygon fill="white" stroke="black" points="448,-168.5 448,-187.5 569,-187.5 569,-168.5 448,-168.5"/>
<text text-anchor="middle" x="508.5" y="-175.5" font-family="FreeSans" font-size="10.00">LiquidTransportData.cpp</text>
</a>
</g>
</g>
<!-- Node3&#45;&gt;Node4 -->
<g id="edge3" class="edge"><title>Node3&#45;&gt;Node4</title>
<path fill="none" stroke="midnightblue" d="M613.365,-220.638C587.843,-210.504 552.391,-196.427 529.949,-187.516"/>
<polygon fill="midnightblue" stroke="midnightblue" points="612.365,-224.006 622.95,-224.444 614.948,-217.5 612.365,-224.006"/>
</g>
<!-- Node5 -->
<g id="node5" class="node"><title>Node5</title>
<g id="a_node5"><a xlink:href="LiquidTranInteraction_8h.html" target="_top" xlink:title="Header file defining the class LiquidTranInteraction and classes which derive from LiquidTranInteract...">
<polygon fill="white" stroke="black" points="587,-168.5 587,-187.5 702,-187.5 702,-168.5 587,-168.5"/>
<text text-anchor="middle" x="644.5" y="-175.5" font-family="FreeSans" font-size="10.00">LiquidTranInteraction.h</text>
</a>
</g>
</g>
<!-- Node3&#45;&gt;Node5 -->
<g id="edge4" class="edge"><title>Node3&#45;&gt;Node5</title>
<path fill="none" stroke="midnightblue" d="M644.5,-213.805C644.5,-204.91 644.5,-194.78 644.5,-187.751"/>
<polygon fill="midnightblue" stroke="midnightblue" points="641,-214.083 644.5,-224.083 648,-214.083 641,-214.083"/>
</g>
<!-- Node6 -->
<g id="node6" class="node"><title>Node6</title>
<g id="a_node6"><a xlink:href="LiquidTransportParams_8h.html" target="_top" xlink:title="Header file defining class LiquidTransportParams. ">
<polygon fill="white" stroke="black" points="390,-112.5 390,-131.5 513,-131.5 513,-112.5 390,-112.5"/>
<text text-anchor="middle" x="451.5" y="-119.5" font-family="FreeSans" font-size="10.00">LiquidTransportParams.h</text>
</a>
</g>
</g>
<!-- Node5&#45;&gt;Node6 -->
<g id="edge5" class="edge"><title>Node5&#45;&gt;Node6</title>
<path fill="none" stroke="midnightblue" d="M604.108,-165.699C567.683,-155.507 514.914,-140.743 481.938,-131.516"/>
<polygon fill="midnightblue" stroke="midnightblue" points="603.345,-169.12 613.919,-168.444 605.231,-162.378 603.345,-169.12"/>
</g>
<!-- Node7 -->
<g id="node7" class="node"><title>Node7</title>
<g id="a_node7"><a xlink:href="LiquidTranInteraction_8cpp.html" target="_top" xlink:title="Source code for liquid mixture transport property evaluations. ">
<polygon fill="white" stroke="black" points="0,-56.5 0,-75.5 125,-75.5 125,-56.5 0,-56.5"/>
<text text-anchor="middle" x="62.5" y="-63.5" font-family="FreeSans" font-size="10.00">LiquidTranInteraction.cpp</text>
</a>
</g>
</g>
<!-- Node6&#45;&gt;Node7 -->
<g id="edge6" class="edge"><title>Node6&#45;&gt;Node7</title>
<path fill="none" stroke="midnightblue" d="M379.766,-111.042C306.296,-100.843 193.297,-85.1569 123.85,-75.5164"/>
<polygon fill="midnightblue" stroke="midnightblue" points="379.475,-114.535 389.862,-112.444 380.438,-107.602 379.475,-114.535"/>
</g>
<!-- Node8 -->
<g id="node8" class="node"><title>Node8</title>
<g id="a_node8"><a xlink:href="LiquidTransportParams_8cpp.html" target="_top" xlink:title="Source code for liquid mixture transport property evaluations. ">
<polygon fill="white" stroke="black" points="143.5,-56.5 143.5,-75.5 277.5,-75.5 277.5,-56.5 143.5,-56.5"/>
<text text-anchor="middle" x="210.5" y="-63.5" font-family="FreeSans" font-size="10.00">LiquidTransportParams.cpp</text>
</a>
</g>
</g>
<!-- Node6&#45;&gt;Node8 -->
<g id="edge7" class="edge"><title>Node6&#45;&gt;Node8</title>
<path fill="none" stroke="midnightblue" d="M403.377,-110.217C357.838,-100.013 290.39,-84.9006 248.509,-75.5164"/>
<polygon fill="midnightblue" stroke="midnightblue" points="402.79,-113.672 413.313,-112.444 404.32,-106.842 402.79,-113.672"/>
</g>
<!-- Node9 -->
<g id="node9" class="node"><title>Node9</title>
<g id="a_node9"><a xlink:href="LiquidTransport_8h.html" target="_top" xlink:title="Header file defining class LiquidTransport. ">
<polygon fill="white" stroke="red" points="295.5,-56.5 295.5,-75.5 385.5,-75.5 385.5,-56.5 295.5,-56.5"/>
<text text-anchor="middle" x="340.5" y="-63.5" font-family="FreeSans" font-size="10.00">LiquidTransport.h</text>
</a>
</g>
</g>
<!-- Node6&#45;&gt;Node9 -->
<g id="edge8" class="edge"><title>Node6&#45;&gt;Node9</title>
<path fill="none" stroke="midnightblue" d="M424.495,-107.862C403.912,-97.8492 376.155,-84.3458 358.29,-75.6545"/>
<polygon fill="midnightblue" stroke="midnightblue" points="423.142,-111.097 433.666,-112.324 426.205,-104.802 423.142,-111.097"/>
</g>
<!-- Node11 -->
<g id="node11" class="node"><title>Node11</title>
<g id="a_node11"><a xlink:href="SimpleTransport_8h.html" target="_top" xlink:title="Header file for the class SimpleTransport which provides simple transport properties for liquids and ...">
<polygon fill="white" stroke="red" points="404,-56.5 404,-75.5 499,-75.5 499,-56.5 404,-56.5"/>
<text text-anchor="middle" x="451.5" y="-63.5" font-family="FreeSans" font-size="10.00">SimpleTransport.h</text>
</a>
</g>
</g>
<!-- Node6&#45;&gt;Node11 -->
<g id="edge10" class="edge"><title>Node6&#45;&gt;Node11</title>
<path fill="none" stroke="midnightblue" d="M451.5,-101.805C451.5,-92.9102 451.5,-82.7798 451.5,-75.7511"/>
<polygon fill="midnightblue" stroke="midnightblue" points="448,-102.083 451.5,-112.083 455,-102.083 448,-102.083"/>
</g>
<!-- Node12 -->
<g id="node12" class="node"><title>Node12</title>
<g id="a_node12"><a xlink:href="TransportFactory_8h.html" target="_top" xlink:title="Header file defining class TransportFactory (see TransportFactory) ">
<polygon fill="white" stroke="red" points="517,-56.5 517,-75.5 614,-75.5 614,-56.5 517,-56.5"/>
<text text-anchor="middle" x="565.5" y="-63.5" font-family="FreeSans" font-size="10.00">TransportFactory.h</text>
</a>
</g>
</g>
<!-- Node6&#45;&gt;Node12 -->
<g id="edge12" class="edge"><title>Node6&#45;&gt;Node12</title>
<path fill="none" stroke="midnightblue" d="M478.742,-108.096C500.04,-98.0073 529.042,-84.2697 547.521,-75.5164"/>
<polygon fill="midnightblue" stroke="midnightblue" points="477.103,-105 469.564,-112.444 480.099,-111.326 477.103,-105"/>
</g>
<!-- Node13 -->
<g id="node13" class="node"><title>Node13</title>
<g id="a_node13"><a xlink:href="WaterTransport_8h.html" target="_top" xlink:title="Header file defining class WaterTransport. ">
<polygon fill="white" stroke="red" points="632.5,-56.5 632.5,-75.5 722.5,-75.5 722.5,-56.5 632.5,-56.5"/>
<text text-anchor="middle" x="677.5" y="-63.5" font-family="FreeSans" font-size="10.00">WaterTransport.h</text>
</a>
</g>
</g>
<!-- Node6&#45;&gt;Node13 -->
<g id="edge14" class="edge"><title>Node6&#45;&gt;Node13</title>
<path fill="none" stroke="midnightblue" d="M497.167,-110.088C539.864,-99.8865 602.748,-84.8612 641.857,-75.5164"/>
<polygon fill="midnightblue" stroke="midnightblue" points="496.223,-106.715 487.31,-112.444 497.85,-113.524 496.223,-106.715"/>
</g>
<!-- Node10 -->
<g id="node10" class="node"><title>Node10</title>
<g id="a_node10"><a xlink:href="TransportFactory_8cpp.html" target="_top" xlink:title="Implementation file for class TransportFactory. ">
<polygon fill="white" stroke="black" points="512,-0.5 512,-19.5 619,-19.5 619,-0.5 512,-0.5"/>
<text text-anchor="middle" x="565.5" y="-7.5" font-family="FreeSans" font-size="10.00">TransportFactory.cpp</text>
</a>
</g>
</g>
<!-- Node9&#45;&gt;Node10 -->
<g id="edge9" class="edge"><title>Node9&#45;&gt;Node10</title>
<path fill="none" stroke="midnightblue" d="M385.965,-54.0884C428.473,-43.8865 491.079,-28.8612 530.015,-19.5164"/>
<polygon fill="midnightblue" stroke="midnightblue" points="385.059,-50.7064 376.152,-56.4435 386.693,-57.5131 385.059,-50.7064"/>
</g>
<!-- Node11&#45;&gt;Node10 -->
<g id="edge11" class="edge"><title>Node11&#45;&gt;Node10</title>
<path fill="none" stroke="midnightblue" d="M478.742,-52.096C500.04,-42.0073 529.042,-28.2697 547.521,-19.5164"/>
<polygon fill="midnightblue" stroke="midnightblue" points="477.103,-48.9995 469.564,-56.4435 480.099,-55.3257 477.103,-48.9995"/>
</g>
<!-- Node12&#45;&gt;Node10 -->
<g id="edge13" class="edge"><title>Node12&#45;&gt;Node10</title>
<path fill="none" stroke="midnightblue" d="M565.5,-45.8045C565.5,-36.9102 565.5,-26.7798 565.5,-19.7511"/>
<polygon fill="midnightblue" stroke="midnightblue" points="562,-46.083 565.5,-56.083 569,-46.083 562,-46.083"/>
</g>
<!-- Node14&#45;&gt;Node10 -->
<g id="edge17" class="edge"><title>Node14&#45;&gt;Node10</title>
<path fill="none" stroke="midnightblue" d="M763.405,-214.279C767.798,-178.642 771.788,-100.637 731.5,-56 716.445,-39.32 661.719,-26.6994 619.17,-19.13"/>
<polygon fill="midnightblue" stroke="midnightblue" points="759.927,-213.879 762.02,-224.265 766.86,-214.841 759.927,-213.879"/>
</g>
<!-- Node15 -->
<g id="node15" class="node"><title>Node15</title>
<g id="a_node15"><a xlink:href="SolidTransport_8cpp.html" target="_top" xlink:title="Definition file for the class SolidTransport, which handles transport of ions within solid phases (se...">
<polygon fill="white" stroke="black" points="779,-168.5 779,-187.5 876,-187.5 876,-168.5 779,-168.5"/>
<text text-anchor="middle" x="827.5" y="-175.5" font-family="FreeSans" font-size="10.00">SolidTransport.cpp</text>
</a>
</g>
</g>
<!-- Node14&#45;&gt;Node15 -->
<g id="edge16" class="edge"><title>Node14&#45;&gt;Node15</title>
<path fill="none" stroke="midnightblue" d="M779.335,-217.82C791.338,-208.145 806.472,-195.948 816.539,-187.834"/>
<polygon fill="midnightblue" stroke="midnightblue" points="776.854,-215.324 771.265,-224.324 781.247,-220.774 776.854,-215.324"/>
</g>
<!-- Node16&#45;&gt;Node10 -->
<g id="edge21" class="edge"><title>Node16&#45;&gt;Node10</title>
<path fill="none" stroke="midnightblue" d="M895.401,-214.282C895.258,-200.65 893.352,-182.168 885.5,-168 847.873,-100.111 820.815,-90.9302 751.5,-56 709.667,-34.9188 657.49,-23.4087 619.055,-17.3217"/>
<polygon fill="midnightblue" stroke="midnightblue" points="891.9,-214.324 895.198,-224.392 898.898,-214.465 891.9,-214.324"/>
</g>
<!-- Node16&#45;&gt;Node15 -->
<g id="edge19" class="edge"><title>Node16&#45;&gt;Node15</title>
<path fill="none" stroke="midnightblue" d="M875.665,-217.82C863.662,-208.145 848.528,-195.948 838.461,-187.834"/>
<polygon fill="midnightblue" stroke="midnightblue" points="873.753,-220.774 883.735,-224.324 878.146,-215.324 873.753,-220.774"/>
</g>
<!-- Node17 -->
<g id="node17" class="node"><title>Node17</title>
<g id="a_node17"><a xlink:href="SolidTransportData_8cpp.html" target="_top" xlink:title="Source code for solid transport property evaluations. ">
<polygon fill="white" stroke="black" points="933,-168.5 933,-187.5 1050,-187.5 1050,-168.5 933,-168.5"/>
<text text-anchor="middle" x="991.5" y="-175.5" font-family="FreeSans" font-size="10.00">SolidTransportData.cpp</text>
</a>
</g>
</g>
<!-- Node16&#45;&gt;Node17 -->
<g id="edge20" class="edge"><title>Node16&#45;&gt;Node17</title>
<path fill="none" stroke="midnightblue" d="M918.835,-219.453C936.743,-209.483 960.554,-196.228 975.954,-187.655"/>
<polygon fill="midnightblue" stroke="midnightblue" points="917.12,-216.402 910.085,-224.324 920.525,-222.518 917.12,-216.402"/>
</g>
</g>
</svg>
