<?xml version="1.0" encoding="UTF-8" standalone="no"?>
<!DOCTYPE svg PUBLIC "-//W3C//DTD SVG 1.1//EN"
 "http://www.w3.org/Graphics/SVG/1.1/DTD/svg11.dtd">
<!-- Generated by graphviz version 2.40.1 (20161225.0304)
 -->
<!-- Title: MargulesVPSSTP.cpp Pages: 1 -->
<svg width="829pt" height="467pt"
 viewBox="0.00 0.00 828.80 467.00" xmlns="http://www.w3.org/2000/svg" xmlns:xlink="http://www.w3.org/1999/xlink">
<g id="graph0" class="graph" transform="scale(1 1) rotate(0) translate(4 463)">
<title>MargulesVPSSTP.cpp</title>
<polygon fill="#ffffff" stroke="transparent" points="-4,4 -4,-463 824.7983,-463 824.7983,4 -4,4"/>
<!-- Node0 -->
<g id="node1" class="node">
<title>Node0</title>
<polygon fill="#bfbfbf" stroke="#000000" points="492.6992,-440.5 492.6992,-458.5 606.8975,-458.5 606.8975,-440.5 492.6992,-440.5"/>
<text text-anchor="middle" x="549.7983" y="-446.5" font-family="Helvetica,sans-Serif" font-size="10.00" fill="#000000">MargulesVPSSTP.cpp</text>
</g>
<!-- Node1 -->
<g id="node2" class="node">
<title>Node1</title>
<g id="a_node2"><a xlink:href="MargulesVPSSTP_8h.html" target="_top" xlink:title="(see Thermodynamic Properties and class MargulesVPSSTP). ">
<polygon fill="#ffffff" stroke="#000000" points="517.9629,-385.5 517.9629,-403.5 691.6338,-403.5 691.6338,-385.5 517.9629,-385.5"/>
<text text-anchor="middle" x="604.7983" y="-391.5" font-family="Helvetica,sans-Serif" font-size="10.00" fill="#000000">cantera/thermo/MargulesVPSSTP.h</text>
</a>
</g>
</g>
<!-- Node0&#45;&gt;Node1 -->
<g id="edge1" class="edge">
<title>Node0&#45;&gt;Node1</title>
<path fill="none" stroke="#191970" d="M558.8805,-440.4179C566.8733,-432.425 578.708,-420.5903 588.3606,-410.9377"/>
<polygon fill="#191970" stroke="#191970" points="590.9227,-413.3254 595.5189,-403.7795 585.9729,-408.3757 590.9227,-413.3254"/>
</g>
<!-- Node40 -->
<g id="node16" class="node">
<title>Node40</title>
<g id="a_node16"><a xlink:href="ThermoFactory_8h.html" target="_top" xlink:title="Headers for the factory class that can create known ThermoPhase objects (see Thermodynamic Properties...">
<polygon fill="#ffffff" stroke="#000000" points="253.0835,-275.5 253.0835,-293.5 414.5132,-293.5 414.5132,-275.5 253.0835,-275.5"/>
<text text-anchor="middle" x="333.7983" y="-281.5" font-family="Helvetica,sans-Serif" font-size="10.00" fill="#000000">cantera/thermo/ThermoFactory.h</text>
</a>
</g>
</g>
<!-- Node0&#45;&gt;Node40 -->
<g id="edge19" class="edge">
<title>Node0&#45;&gt;Node40</title>
<path fill="none" stroke="#191970" d="M537.8776,-440.3939C502.4733,-413.349 397.6767,-333.2959 353.6407,-299.6574"/>
<polygon fill="#191970" stroke="#191970" points="355.7536,-296.8671 345.6823,-293.578 351.5043,-302.4298 355.7536,-296.8671"/>
</g>
<!-- Node45 -->
<g id="node23" class="node">
<title>Node45</title>
<g id="a_node23"><a xlink:href="stringUtils_8h.html" target="_top" xlink:title="Contains declarations for string manipulation functions within Cantera. ">
<polygon fill="#ffffff" stroke="#000000" points="674.3823,-165.5 674.3823,-183.5 803.2143,-183.5 803.2143,-165.5 674.3823,-165.5"/>
<text text-anchor="middle" x="738.7983" y="-171.5" font-family="Helvetica,sans-Serif" font-size="10.00" fill="#000000">cantera/base/stringUtils.h</text>
</a>
</g>
</g>
<!-- Node0&#45;&gt;Node45 -->
<g id="edge32" class="edge">
<title>Node0&#45;&gt;Node45</title>
<path fill="none" stroke="#191970" d="M597.0029,-440.4425C674.6462,-424.1804 820.7983,-387.2301 820.7983,-339.5 820.7983,-339.5 820.7983,-339.5 820.7983,-284.5 820.7983,-254.6154 819.0622,-244.3935 801.7983,-220 792.6416,-207.0617 778.6209,-196.416 766.1291,-188.6836"/>
<polygon fill="#191970" stroke="#191970" points="767.7941,-185.6028 757.3947,-183.5769 764.2609,-191.6457 767.7941,-185.6028"/>
</g>
<!-- Node46 -->
<g id="node24" class="node">
<title>Node46</title>
<g id="a_node24"><a xlink:href="ctml_8h.html" target="_top" xlink:title="CTML (&quot;Cantera Markup Language&quot;) is the variant of XML that Cantera uses to store data...">
<polygon fill="#ffffff" stroke="#000000" points="432.1655,-275.5 432.1655,-293.5 535.4311,-293.5 535.4311,-275.5 432.1655,-275.5"/>
<text text-anchor="middle" x="483.7983" y="-281.5" font-family="Helvetica,sans-Serif" font-size="10.00" fill="#000000">cantera/base/ctml.h</text>
</a>
</g>
</g>
<!-- Node0&#45;&gt;Node46 -->
<g id="edge36" class="edge">
<title>Node0&#45;&gt;Node46</title>
<path fill="none" stroke="#191970" d="M538.6193,-440.2087C529.1977,-431.7497 516.1156,-418.4113 508.7983,-404 492.2303,-371.3696 486.6388,-328.397 484.7541,-303.875"/>
<polygon fill="#191970" stroke="#191970" points="488.2365,-303.4846 484.1087,-293.7269 481.2506,-303.929 488.2365,-303.4846"/>
</g>
<!-- Node2 -->
<g id="node3" class="node">
<title>Node2</title>
<g id="a_node3"><a xlink:href="GibbsExcessVPSSTP_8h.html" target="_top" xlink:title="Header for intermediate ThermoPhase object for phases which employ Gibbs excess free energy based for...">
<polygon fill="#ffffff" stroke="#000000" points="549.3667,-330.5 549.3667,-348.5 670.23,-348.5 670.23,-330.5 549.3667,-330.5"/>
<text text-anchor="middle" x="609.7983" y="-336.5" font-family="Helvetica,sans-Serif" font-size="10.00" fill="#000000">GibbsExcessVPSSTP.h</text>
</a>
</g>
</g>
<!-- Node1&#45;&gt;Node2 -->
<g id="edge2" class="edge">
<title>Node1&#45;&gt;Node2</title>
<path fill="none" stroke="#191970" d="M605.624,-385.4179C606.2787,-378.2164 607.2169,-367.8962 608.038,-358.8632"/>
<polygon fill="#191970" stroke="#191970" points="611.5349,-359.0553 608.9547,-348.7795 604.5637,-358.4215 611.5349,-359.0553"/>
</g>
<!-- Node3 -->
<g id="node4" class="node">
<title>Node3</title>
<g id="a_node4"><a xlink:href="VPStandardStateTP_8h.html" target="_top" xlink:title="Header file for a derived class of ThermoPhase that handles variable pressure standard state methods ...">
<polygon fill="#ffffff" stroke="#000000" points="553.2461,-275.5 553.2461,-293.5 666.3506,-293.5 666.3506,-275.5 553.2461,-275.5"/>
<text text-anchor="middle" x="609.7983" y="-281.5" font-family="Helvetica,sans-Serif" font-size="10.00" fill="#000000">VPStandardStateTP.h</text>
</a>
</g>
</g>
<!-- Node2&#45;&gt;Node3 -->
<g id="edge3" class="edge">
<title>Node2&#45;&gt;Node3</title>
<path fill="none" stroke="#191970" d="M609.7983,-330.4179C609.7983,-323.2164 609.7983,-312.8962 609.7983,-303.8632"/>
<polygon fill="#191970" stroke="#191970" points="613.2984,-303.7794 609.7983,-293.7795 606.2984,-303.7795 613.2984,-303.7794"/>
</g>
<!-- Node34 -->
<g id="node12" class="node">
<title>Node34</title>
<g id="a_node12"><a xlink:href="Array_8h.html" target="_top" xlink:title="Header file for class Cantera::Array2D. ">
<polygon fill="#ffffff" stroke="#000000" points="684.7534,-275.5 684.7534,-293.5 792.8433,-293.5 792.8433,-275.5 684.7534,-275.5"/>
<text text-anchor="middle" x="738.7983" y="-281.5" font-family="Helvetica,sans-Serif" font-size="10.00" fill="#000000">cantera/base/Array.h</text>
</a>
</g>
</g>
<!-- Node2&#45;&gt;Node34 -->
<g id="edge13" class="edge">
<title>Node2&#45;&gt;Node34</title>
<path fill="none" stroke="#191970" d="M631.1001,-330.4179C652.1073,-321.4613 684.4292,-307.6806 708.1855,-297.552"/>
<polygon fill="#191970" stroke="#191970" points="709.6389,-300.7372 717.465,-293.5956 706.8934,-294.2981 709.6389,-300.7372"/>
</g>
<!-- Node4 -->
<g id="node5" class="node">
<title>Node4</title>
<g id="a_node5"><a xlink:href="ThermoPhase_8h.html" target="_top" xlink:title="Header file for class ThermoPhase, the base class for phases with thermodynamic properties, and the text for the Module thermoprops (see Thermodynamic Properties and class ThermoPhase). ">
<polygon fill="#ffffff" stroke="#ff0000" points="421.2246,-220.5 421.2246,-238.5 508.3721,-238.5 508.3721,-220.5 421.2246,-220.5"/>
<text text-anchor="middle" x="464.7983" y="-226.5" font-family="Helvetica,sans-Serif" font-size="10.00" fill="#000000">ThermoPhase.h</text>
</a>
</g>
</g>
<!-- Node3&#45;&gt;Node4 -->
<g id="edge4" class="edge">
<title>Node3&#45;&gt;Node4</title>
<path fill="none" stroke="#191970" d="M585.8545,-275.4179C561.9269,-266.3419 524.9399,-252.3123 498.1452,-242.1488"/>
<polygon fill="#191970" stroke="#191970" points="499.369,-238.8697 488.7777,-238.5956 496.8864,-245.4147 499.369,-238.8697"/>
</g>
<!-- Node33 -->
<g id="node11" class="node">
<title>Node33</title>
<g id="a_node11"><a xlink:href="PDSS_8h.html" target="_top" xlink:title="Declarations for the virtual base class PDSS (pressure dependent standard state) which handles calcul...">
<polygon fill="#ffffff" stroke="#000000" points="621.0127,-110.5 621.0127,-128.5 672.584,-128.5 672.584,-110.5 621.0127,-110.5"/>
<text text-anchor="middle" x="646.7983" y="-116.5" font-family="Helvetica,sans-Serif" font-size="10.00" fill="#000000">PDSS.h</text>
</a>
</g>
</g>
<!-- Node3&#45;&gt;Node33 -->
<g id="edge11" class="edge">
<title>Node3&#45;&gt;Node33</title>
<path fill="none" stroke="#191970" d="M614.1342,-275.293C618.2286,-266.2435 624.2546,-251.9458 627.7983,-239 637.2836,-204.3493 642.575,-162.6655 645.0428,-138.8086"/>
<polygon fill="#191970" stroke="#191970" points="648.5475,-138.9302 646.0335,-128.638 641.5805,-138.2515 648.5475,-138.9302"/>
</g>
<!-- Node23 -->
<g id="node6" class="node">
<title>Node23</title>
<g id="a_node6"><a xlink:href="global_8h.html" target="_top" xlink:title="This file contains definitions for utility functions and text for modules, inputfiles, logs, textlogs, (see Input File Handling, Diagnostic Output, and Writing messages to the screen). ">
<polygon fill="#ffffff" stroke="#000000" points="413.9858,-165.5 413.9858,-183.5 525.6108,-183.5 525.6108,-165.5 413.9858,-165.5"/>
<text text-anchor="middle" x="469.7983" y="-171.5" font-family="Helvetica,sans-Serif" font-size="10.00" fill="#000000">cantera/base/global.h</text>
</a>
</g>
</g>
<!-- Node4&#45;&gt;Node23 -->
<g id="edge5" class="edge">
<title>Node4&#45;&gt;Node23</title>
<path fill="none" stroke="#191970" d="M465.624,-220.4179C466.2787,-213.2164 467.2169,-202.8962 468.038,-193.8632"/>
<polygon fill="#191970" stroke="#191970" points="471.5349,-194.0553 468.9547,-183.7795 464.5637,-193.4215 471.5349,-194.0553"/>
</g>
<!-- Node8 -->
<g id="node7" class="node">
<title>Node8</title>
<g id="a_node7"><a xlink:href="ct__defs_8h.html" target="_top" xlink:title="This file contains definitions of terms that are used in internal routines and are unlikely to need m...">
<polygon fill="#ffffff" stroke="#ff0000" points="544.5078,-55.5 544.5078,-73.5 601.0889,-73.5 601.0889,-55.5 544.5078,-55.5"/>
<text text-anchor="middle" x="572.7983" y="-61.5" font-family="Helvetica,sans-Serif" font-size="10.00" fill="#000000">ct_defs.h</text>
</a>
</g>
</g>
<!-- Node23&#45;&gt;Node8 -->
<g id="edge6" class="edge">
<title>Node23&#45;&gt;Node8</title>
<path fill="none" stroke="#191970" d="M478.2273,-165.4982C495.5046,-147.0467 535.1636,-104.6924 557.2422,-81.1134"/>
<polygon fill="#191970" stroke="#191970" points="559.9728,-83.3179 564.2529,-73.6261 554.8631,-78.5334 559.9728,-83.3179"/>
</g>
<!-- Node7 -->
<g id="node10" class="node">
<title>Node7</title>
<g id="a_node10"><a xlink:href="fmt_8h.html" target="_top" xlink:title="Wrapper for either system&#45;installed or local headers for fmt. ">
<polygon fill="#ffffff" stroke="#ff0000" points="389.3872,-110.5 389.3872,-128.5 488.2095,-128.5 488.2095,-110.5 389.3872,-110.5"/>
<text text-anchor="middle" x="438.7983" y="-116.5" font-family="Helvetica,sans-Serif" font-size="10.00" fill="#000000">cantera/base/fmt.h</text>
</a>
</g>
</g>
<!-- Node23&#45;&gt;Node7 -->
<g id="edge9" class="edge">
<title>Node23&#45;&gt;Node7</title>
<path fill="none" stroke="#191970" d="M464.6793,-165.4179C460.4419,-157.8998 454.2887,-146.9829 449.0452,-137.6799"/>
<polygon fill="#191970" stroke="#191970" points="451.9878,-135.7724 444.0286,-128.7795 445.8897,-139.2096 451.9878,-135.7724"/>
</g>
<!-- Node12 -->
<g id="node8" class="node">
<title>Node12</title>
<polygon fill="#ffffff" stroke="#bfbfbf" points="329.1826,-.5 329.1826,-18.5 372.4141,-18.5 372.4141,-.5 329.1826,-.5"/>
<text text-anchor="middle" x="350.7983" y="-6.5" font-family="Helvetica,sans-Serif" font-size="10.00" fill="#000000">vector</text>
</g>
<!-- Node8&#45;&gt;Node12 -->
<g id="edge7" class="edge">
<title>Node8&#45;&gt;Node12</title>
<path fill="none" stroke="#191970" d="M544.2302,-57.4223C502.5987,-47.1082 425.5258,-28.0135 382.2985,-17.3041"/>
<polygon fill="#191970" stroke="#191970" points="383.1386,-13.9065 372.5904,-14.8989 381.4552,-20.7011 383.1386,-13.9065"/>
</g>
<!-- Node14 -->
<g id="node9" class="node">
<title>Node14</title>
<polygon fill="#ffffff" stroke="#bfbfbf" points="644.5718,-.5 644.5718,-18.5 685.0249,-18.5 685.0249,-.5 644.5718,-.5"/>
<text text-anchor="middle" x="664.7983" y="-6.5" font-family="Helvetica,sans-Serif" font-size="10.00" fill="#000000">string</text>
</g>
<!-- Node8&#45;&gt;Node14 -->
<g id="edge8" class="edge">
<title>Node8&#45;&gt;Node14</title>
<path fill="none" stroke="#191970" d="M587.9903,-55.4179C602.3729,-46.8195 624.1922,-33.7754 640.9044,-23.7844"/>
<polygon fill="#191970" stroke="#191970" points="642.7966,-26.731 649.5838,-18.5956 639.2047,-20.7228 642.7966,-26.731"/>
</g>
<!-- Node7&#45;&gt;Node8 -->
<g id="edge10" class="edge">
<title>Node7&#45;&gt;Node8</title>
<path fill="none" stroke="#191970" d="M460.9257,-110.4179C482.8442,-101.4215 516.6205,-87.5581 541.3274,-77.4172"/>
<polygon fill="#191970" stroke="#191970" points="542.716,-80.6306 550.6381,-73.5956 540.058,-74.1549 542.716,-80.6306"/>
</g>
<!-- Node33&#45;&gt;Node8 -->
<g id="edge12" class="edge">
<title>Node33&#45;&gt;Node8</title>
<path fill="none" stroke="#191970" d="M634.5787,-110.4179C623.3314,-102.0584 606.4302,-89.4966 593.1469,-79.6239"/>
<polygon fill="#191970" stroke="#191970" points="595.1499,-76.7518 585.0361,-73.5956 590.9742,-82.37 595.1499,-76.7518"/>
</g>
<!-- Node35 -->
<g id="node13" class="node">
<title>Node35</title>
<g id="a_node13"><a xlink:href="utilities_8h.html" target="_top" xlink:title="Various templated functions that carry out common vector operations (see Templated Utility Functions)...">
<polygon fill="#ffffff" stroke="#ff0000" points="564.3452,-220.5 564.3452,-238.5 619.2515,-238.5 619.2515,-220.5 564.3452,-220.5"/>
<text text-anchor="middle" x="591.7983" y="-226.5" font-family="Helvetica,sans-Serif" font-size="10.00" fill="#000000">utilities.h</text>
</a>
</g>
</g>
<!-- Node34&#45;&gt;Node35 -->
<g id="edge14" class="edge">
<title>Node34&#45;&gt;Node35</title>
<path fill="none" stroke="#191970" d="M714.5243,-275.4179C690.2666,-266.3419 652.7694,-252.3123 625.6052,-242.1488"/>
<polygon fill="#191970" stroke="#191970" points="626.7009,-238.8219 616.1085,-238.5956 624.2479,-245.378 626.7009,-238.8219"/>
</g>
<!-- Node38 -->
<g id="node14" class="node">
<title>Node38</title>
<polygon fill="#ffffff" stroke="#bfbfbf" points="738.626,-220.5 738.626,-238.5 792.9707,-238.5 792.9707,-220.5 738.626,-220.5"/>
<text text-anchor="middle" x="765.7983" y="-226.5" font-family="Helvetica,sans-Serif" font-size="10.00" fill="#000000">iostream</text>
</g>
<!-- Node34&#45;&gt;Node38 -->
<g id="edge17" class="edge">
<title>Node34&#45;&gt;Node38</title>
<path fill="none" stroke="#191970" d="M743.2568,-275.4179C746.9087,-267.9789 752.1941,-257.2123 756.7292,-247.9742"/>
<polygon fill="#191970" stroke="#191970" points="759.978,-249.2985 761.243,-238.7795 753.6943,-246.2138 759.978,-249.2985"/>
</g>
<!-- Node39 -->
<g id="node15" class="node">
<title>Node39</title>
<polygon fill="#ffffff" stroke="#bfbfbf" points="675.0718,-220.5 675.0718,-238.5 720.5249,-238.5 720.5249,-220.5 675.0718,-220.5"/>
<text text-anchor="middle" x="697.7983" y="-226.5" font-family="Helvetica,sans-Serif" font-size="10.00" fill="#000000">cstring</text>
</g>
<!-- Node34&#45;&gt;Node39 -->
<g id="edge18" class="edge">
<title>Node34&#45;&gt;Node39</title>
<path fill="none" stroke="#191970" d="M732.028,-275.4179C726.2467,-267.6624 717.7691,-256.29 710.6973,-246.8035"/>
<polygon fill="#191970" stroke="#191970" points="713.4986,-244.7051 704.7157,-238.7795 707.8863,-248.8888 713.4986,-244.7051"/>
</g>
<!-- Node35&#45;&gt;Node23 -->
<g id="edge16" class="edge">
<title>Node35&#45;&gt;Node23</title>
<path fill="none" stroke="#191970" d="M571.6525,-220.4179C551.9618,-211.5409 521.7598,-197.9253 499.3511,-187.823"/>
<polygon fill="#191970" stroke="#191970" points="500.529,-184.5148 489.9741,-183.5956 497.652,-190.8963 500.529,-184.5148"/>
</g>
<!-- Node35&#45;&gt;Node8 -->
<g id="edge15" class="edge">
<title>Node35&#45;&gt;Node8</title>
<path fill="none" stroke="#191970" d="M590.7224,-220.1561C587.7047,-193.9504 579.1151,-119.3557 575.021,-83.8021"/>
<polygon fill="#191970" stroke="#191970" points="578.4836,-83.2753 573.8625,-73.7414 571.5295,-84.0762 578.4836,-83.2753"/>
</g>
<!-- Node40&#45;&gt;Node4 -->
<g id="edge20" class="edge">
<title>Node40&#45;&gt;Node4</title>
<path fill="none" stroke="#191970" d="M355.4303,-275.4179C376.7633,-266.4613 409.5862,-252.6806 433.7109,-242.552"/>
<polygon fill="#191970" stroke="#191970" points="435.2688,-245.6939 443.1342,-238.5956 432.559,-239.2397 435.2688,-245.6939"/>
</g>
<!-- Node41 -->
<g id="node17" class="node">
<title>Node41</title>
<g id="a_node17"><a xlink:href="xml_8h.html" target="_top" xlink:title="Classes providing support for XML data files. ">
<polygon fill="#ffffff" stroke="#000000" points="302.5547,-220.5 302.5547,-238.5 403.042,-238.5 403.042,-220.5 302.5547,-220.5"/>
<text text-anchor="middle" x="352.7983" y="-226.5" font-family="Helvetica,sans-Serif" font-size="10.00" fill="#000000">cantera/base/xml.h</text>
</a>
</g>
</g>
<!-- Node40&#45;&gt;Node41 -->
<g id="edge21" class="edge">
<title>Node40&#45;&gt;Node41</title>
<path fill="none" stroke="#191970" d="M336.9358,-275.4179C339.4783,-268.0581 343.146,-257.441 346.3143,-248.2695"/>
<polygon fill="#191970" stroke="#191970" points="349.6356,-249.3742 349.5927,-238.7795 343.0193,-247.0885 349.6356,-249.3742"/>
</g>
<!-- Node42 -->
<g id="node19" class="node">
<title>Node42</title>
<g id="a_node19"><a xlink:href="FactoryBase_8h.html" target="_top" xlink:title="File contains the FactoryBase class declarations. ">
<polygon fill="#ffffff" stroke="#000000" points="143.2642,-220.5 143.2642,-238.5 284.3325,-238.5 284.3325,-220.5 143.2642,-220.5"/>
<text text-anchor="middle" x="213.7983" y="-226.5" font-family="Helvetica,sans-Serif" font-size="10.00" fill="#000000">cantera/base/FactoryBase.h</text>
</a>
</g>
</g>
<!-- Node40&#45;&gt;Node42 -->
<g id="edge25" class="edge">
<title>Node40&#45;&gt;Node42</title>
<path fill="none" stroke="#191970" d="M313.9828,-275.4179C294.6148,-266.5409 264.908,-252.9253 242.8666,-242.823"/>
<polygon fill="#191970" stroke="#191970" points="244.1923,-239.5805 233.6433,-238.5956 241.2757,-245.944 244.1923,-239.5805"/>
</g>
<!-- Node41&#45;&gt;Node23 -->
<g id="edge24" class="edge">
<title>Node41&#45;&gt;Node23</title>
<path fill="none" stroke="#191970" d="M372.1185,-220.4179C390.9176,-211.5807 419.7069,-198.0473 441.1672,-187.9591"/>
<polygon fill="#191970" stroke="#191970" points="442.8885,-191.0174 450.4495,-183.5956 439.9105,-184.6824 442.8885,-191.0174"/>
</g>
<!-- Node6 -->
<g id="node18" class="node">
<title>Node6</title>
<g id="a_node18"><a xlink:href="ctexceptions_8h.html" target="_top" xlink:title="Definitions for the classes that are thrown when Cantera experiences an error condition (also contain...">
<polygon fill="#ffffff" stroke="#ff0000" points="255.5376,-165.5 255.5376,-183.5 396.0591,-183.5 396.0591,-165.5 255.5376,-165.5"/>
<text text-anchor="middle" x="325.7983" y="-171.5" font-family="Helvetica,sans-Serif" font-size="10.00" fill="#000000">cantera/base/ctexceptions.h</text>
</a>
</g>
</g>
<!-- Node41&#45;&gt;Node6 -->
<g id="edge22" class="edge">
<title>Node41&#45;&gt;Node6</title>
<path fill="none" stroke="#191970" d="M348.3398,-220.4179C344.688,-212.9789 339.4026,-202.2123 334.8675,-192.9742"/>
<polygon fill="#191970" stroke="#191970" points="337.9023,-191.2138 330.3537,-183.7795 331.6186,-194.2985 337.9023,-191.2138"/>
</g>
<!-- Node6&#45;&gt;Node7 -->
<g id="edge23" class="edge">
<title>Node6&#45;&gt;Node7</title>
<path fill="none" stroke="#191970" d="M344.458,-165.4179C362.5326,-156.6205 390.1691,-143.1691 410.8655,-133.0956"/>
<polygon fill="#191970" stroke="#191970" points="412.6512,-136.1191 420.111,-128.5956 409.5877,-129.825 412.6512,-136.1191"/>
</g>
<!-- Node42&#45;&gt;Node23 -->
<g id="edge31" class="edge">
<title>Node42&#45;&gt;Node23</title>
<path fill="none" stroke="#191970" d="M255.7849,-220.4795C300.1486,-210.9482 370.1692,-195.9047 417.9482,-185.6397"/>
<polygon fill="#191970" stroke="#191970" points="418.7472,-189.048 427.7889,-183.5255 417.2768,-182.2041 418.7472,-189.048"/>
</g>
<!-- Node42&#45;&gt;Node12 -->
<g id="edge26" class="edge">
<title>Node42&#45;&gt;Node12</title>
<path fill="none" stroke="#191970" d="M143.006,-223.5739C89.0653,-217.4173 21.1872,-205.5599 3.7983,-184 -1.503,-177.427 -.7923,-172.0877 3.7983,-165 75.6532,-54.06 247.3722,-21.5357 318.7906,-12.6294"/>
<polygon fill="#191970" stroke="#191970" points="319.4444,-16.0768 328.9693,-11.437 318.63,-9.1243 319.4444,-16.0768"/>
</g>
<!-- Node42&#45;&gt;Node6 -->
<g id="edge30" class="edge">
<title>Node42&#45;&gt;Node6</title>
<path fill="none" stroke="#191970" d="M232.2929,-220.4179C250.2075,-211.6205 277.5994,-198.1691 298.1127,-188.0956"/>
<polygon fill="#191970" stroke="#191970" points="299.843,-191.1452 307.2763,-183.5956 296.7574,-184.8619 299.843,-191.1452"/>
</g>
<!-- Node43 -->
<g id="node20" class="node">
<title>Node43</title>
<polygon fill="#ffffff" stroke="#bfbfbf" points="194.1826,-165.5 194.1826,-183.5 237.4141,-183.5 237.4141,-165.5 194.1826,-165.5"/>
<text text-anchor="middle" x="215.7983" y="-171.5" font-family="Helvetica,sans-Serif" font-size="10.00" fill="#000000">mutex</text>
</g>
<!-- Node42&#45;&gt;Node43 -->
<g id="edge27" class="edge">
<title>Node42&#45;&gt;Node43</title>
<path fill="none" stroke="#191970" d="M214.1286,-220.4179C214.3905,-213.2164 214.7657,-202.8962 215.0942,-193.8632"/>
<polygon fill="#191970" stroke="#191970" points="218.5951,-193.9001 215.4609,-183.7795 211.5997,-193.6456 218.5951,-193.9001"/>
</g>
<!-- Node24 -->
<g id="node21" class="node">
<title>Node24</title>
<polygon fill="#ffffff" stroke="#bfbfbf" points="12.4956,-165.5 12.4956,-183.5 99.1011,-183.5 99.1011,-165.5 12.4956,-165.5"/>
<text text-anchor="middle" x="55.7983" y="-171.5" font-family="Helvetica,sans-Serif" font-size="10.00" fill="#000000">unordered_map</text>
</g>
<!-- Node42&#45;&gt;Node24 -->
<g id="edge28" class="edge">
<title>Node42&#45;&gt;Node24</title>
<path fill="none" stroke="#191970" d="M187.7078,-220.4179C161.4422,-211.2748 120.7352,-197.1046 91.4892,-186.924"/>
<polygon fill="#191970" stroke="#191970" points="92.2598,-183.4863 81.665,-183.5042 89.9585,-190.0973 92.2598,-183.4863"/>
</g>
<!-- Node44 -->
<g id="node22" class="node">
<title>Node44</title>
<polygon fill="#ffffff" stroke="#bfbfbf" points="117.3945,-165.5 117.3945,-183.5 176.2021,-183.5 176.2021,-165.5 117.3945,-165.5"/>
<text text-anchor="middle" x="146.7983" y="-171.5" font-family="Helvetica,sans-Serif" font-size="10.00" fill="#000000">functional</text>
</g>
<!-- Node42&#45;&gt;Node44 -->
<g id="edge29" class="edge">
<title>Node42&#45;&gt;Node44</title>
<path fill="none" stroke="#191970" d="M202.7346,-220.4179C192.8051,-212.2667 178.0083,-200.1201 166.1272,-190.3669"/>
<polygon fill="#191970" stroke="#191970" points="168.0524,-187.4192 158.1024,-183.7795 163.611,-192.8297 168.0524,-187.4192"/>
</g>
<!-- Node45&#45;&gt;Node8 -->
<g id="edge33" class="edge">
<title>Node45&#45;&gt;Node8</title>
<path fill="none" stroke="#191970" d="M732.8074,-165.4157C723.3938,-151.7524 703.9145,-125.8305 681.7983,-110 660.3974,-94.6814 633.0584,-83.2864 611.1142,-75.7311"/>
<polygon fill="#191970" stroke="#191970" points="612.0455,-72.3526 601.4521,-72.5296 609.8437,-78.9973 612.0455,-72.3526"/>
</g>
<!-- Node45&#45;&gt;Node14 -->
<g id="edge35" class="edge">
<title>Node45&#45;&gt;Node14</title>
<path fill="none" stroke="#191970" d="M734.6077,-165.1561C722.7531,-138.7235 688.8194,-63.0604 673.0448,-27.8875"/>
<polygon fill="#191970" stroke="#191970" points="676.2287,-26.4335 668.943,-18.7414 669.8416,-29.2981 676.2287,-26.4335"/>
</g>
<!-- Node45&#45;&gt;Node7 -->
<g id="edge34" class="edge">
<title>Node45&#45;&gt;Node7</title>
<path fill="none" stroke="#191970" d="M689.5954,-165.4795C637.1716,-155.8684 554.1758,-140.6525 498.1601,-130.383"/>
<polygon fill="#191970" stroke="#191970" points="498.4954,-126.8862 488.0282,-128.5255 497.2331,-133.7715 498.4954,-126.8862"/>
</g>
<!-- Node46&#45;&gt;Node8 -->
<g id="edge37" class="edge">
<title>Node46&#45;&gt;Node8</title>
<path fill="none" stroke="#191970" d="M492.0978,-275.3628C499.6921,-266.5917 510.783,-252.6906 517.7983,-239 545.0099,-185.8962 561.9011,-116.7666 568.9657,-83.7245"/>
<polygon fill="#191970" stroke="#191970" points="572.4561,-84.1294 571.0556,-73.6275 565.6013,-82.7105 572.4561,-84.1294"/>
</g>
<!-- Node46&#45;&gt;Node41 -->
<g id="edge38" class="edge">
<title>Node46&#45;&gt;Node41</title>
<path fill="none" stroke="#191970" d="M462.1663,-275.4179C440.8334,-266.4613 408.0104,-252.6806 383.8858,-242.552"/>
<polygon fill="#191970" stroke="#191970" points="385.0377,-239.2397 374.4625,-238.5956 382.3279,-245.6939 385.0377,-239.2397"/>
</g>
</g>
</svg>
