<?xml version="1.0" encoding="UTF-8" standalone="no"?>
<!DOCTYPE svg PUBLIC "-//W3C//DTD SVG 1.1//EN"
 "http://www.w3.org/Graphics/SVG/1.1/DTD/svg11.dtd">
<!-- Generated by graphviz version 2.26.3 (20100126.1600)
 -->
<!-- Title: MaskellSolidSolnPhase.cpp Pages: 1 -->
<svg width="977pt" height="564pt"
 viewBox="0.00 0.00 977.00 564.00" xmlns="http://www.w3.org/2000/svg" xmlns:xlink="http://www.w3.org/1999/xlink">
<g id="graph1" class="graph" transform="scale(1 1) rotate(0) translate(4 560)">
<title>MaskellSolidSolnPhase.cpp</title>
<polygon fill="white" stroke="white" points="-4,5 -4,-560 974,-560 974,5 -4,5"/>
<!-- Node1 -->
<g id="node1" class="node"><title>Node1</title>
<polygon fill="#bfbfbf" stroke="black" points="758,-535 758,-555 894,-555 894,-535 758,-535"/>
<text text-anchor="middle" x="826" y="-542" font-family="FreeSans" font-size="10.00">MaskellSolidSolnPhase.cpp</text>
</g>
<!-- Node2 -->
<g id="node3" class="node"><title>Node2</title>
<a xlink:href="MaskellSolidSolnPhase_8h.html" target="_top" xlink:title="Header file for a solid solution model following Maskell, Shaw, and Tye. ">
<polygon fill="white" stroke="black" points="651,-465 651,-497 791,-497 791,-465 651,-465"/>
<text text-anchor="start" x="659" y="-484" font-family="FreeSans" font-size="10.00">cantera/thermo/MaskellSolid</text>
<text text-anchor="middle" x="721" y="-472" font-family="FreeSans" font-size="10.00">SolnPhase.h</text>
</a>
</g>
<!-- Node1&#45;&gt;Node2 -->
<g id="edge2" class="edge"><title>Node1&#45;&gt;Node2</title>
<path fill="none" stroke="midnightblue" d="M809.13,-534.717C794.913,-526.051 774.095,-513.362 756.262,-502.493"/>
<polygon fill="midnightblue" stroke="midnightblue" points="757.619,-499.221 747.259,-497.005 753.976,-505.199 757.619,-499.221"/>
</g>
<!-- Node11 -->
<g id="node21" class="node"><title>Node11</title>
<polygon fill="white" stroke="#bfbfbf" points="336.5,-175 336.5,-195 389.5,-195 389.5,-175 336.5,-175"/>
<text text-anchor="middle" x="363" y="-182" font-family="FreeSans" font-size="10.00">iostream</text>
</g>
<!-- Node1&#45;&gt;Node11 -->
<g id="edge84" class="edge"><title>Node1&#45;&gt;Node11</title>
<path fill="none" stroke="midnightblue" d="M757.588,-535.361C651.654,-518.49 460,-479.351 460,-417 460,-417 460,-417 460,-359 460,-327.192 463.041,-312.934 441,-290 404.476,-251.996 359.104,-296.554 328,-254 316.162,-237.805 330.048,-217.023 343.672,-202.517"/>
<polygon fill="midnightblue" stroke="midnightblue" points="346.432,-204.709 351.05,-195.174 341.493,-199.748 346.432,-204.709"/>
</g>
<!-- Node25 -->
<g id="node63" class="node"><title>Node25</title>
<a xlink:href="stringUtils_8h.html" target="_top" xlink:title="Contains declarations for string manipulation functions within Cantera. ">
<polygon fill="white" stroke="black" points="804.5,-117 804.5,-137 929.5,-137 929.5,-117 804.5,-117"/>
<text text-anchor="middle" x="867" y="-124" font-family="FreeSans" font-size="10.00">cantera/base/stringUtils.h</text>
</a>
</g>
<!-- Node1&#45;&gt;Node25 -->
<g id="edge76" class="edge"><title>Node1&#45;&gt;Node25</title>
<path fill="none" stroke="midnightblue" d="M836.181,-534.731C855.375,-514.231 895,-465.976 895,-417 895,-417 895,-417 895,-243 895,-208.303 883.016,-169.358 874.729,-146.573"/>
<polygon fill="midnightblue" stroke="midnightblue" points="877.938,-145.163 871.131,-137.044 871.389,-147.636 877.938,-145.163"/>
</g>
<!-- Node26 -->
<g id="node67" class="node"><title>Node26</title>
<polygon fill="white" stroke="#bfbfbf" points="922.5,-471 922.5,-491 969.5,-491 969.5,-471 922.5,-471"/>
<text text-anchor="middle" x="946" y="-478" font-family="FreeSans" font-size="10.00">cassert</text>
</g>
<!-- Node1&#45;&gt;Node26 -->
<g id="edge82" class="edge"><title>Node1&#45;&gt;Node26</title>
<path fill="none" stroke="midnightblue" d="M845.014,-534.859C864.675,-524.373 895.583,-507.889 918.03,-495.917"/>
<polygon fill="midnightblue" stroke="midnightblue" points="919.898,-498.888 927.075,-491.094 916.604,-492.711 919.898,-498.888"/>
</g>
<!-- Node3 -->
<g id="node5" class="node"><title>Node3</title>
<a xlink:href="mix__defs_8h.html" target="_top" xlink:title="mix_defs.h">
<polygon fill="white" stroke="black" points="805,-291 805,-311 867,-311 867,-291 805,-291"/>
<text text-anchor="middle" x="836" y="-298" font-family="FreeSans" font-size="10.00">mix_defs.h</text>
</a>
</g>
<!-- Node2&#45;&gt;Node3 -->
<g id="edge4" class="edge"><title>Node2&#45;&gt;Node3</title>
<path fill="none" stroke="midnightblue" d="M779.547,-464.93C798.058,-456.887 816.635,-445.089 828,-428 849.41,-395.808 845.287,-348.281 840.534,-321.429"/>
<polygon fill="midnightblue" stroke="midnightblue" points="843.903,-320.423 838.532,-311.291 837.036,-321.78 843.903,-320.423"/>
</g>
<!-- Node4 -->
<g id="node7" class="node"><title>Node4</title>
<a xlink:href="ThermoPhase_8h.html" target="_top" xlink:title="Header file for class ThermoPhase, the base class for phases with thermodynamic properties, and the text for the Module thermoprops (see Thermodynamic Properties and class ThermoPhase). ">
<polygon fill="white" stroke="black" points="640,-349 640,-369 724,-369 724,-349 640,-349"/>
<text text-anchor="middle" x="682" y="-356" font-family="FreeSans" font-size="10.00">ThermoPhase.h</text>
</a>
</g>
<!-- Node2&#45;&gt;Node4 -->
<g id="edge6" class="edge"><title>Node2&#45;&gt;Node4</title>
<path fill="none" stroke="midnightblue" d="M712.958,-464.592C708.133,-454.272 702.148,-440.574 698,-428 692.711,-411.966 688.493,-393.284 685.718,-379.406"/>
<polygon fill="midnightblue" stroke="midnightblue" points="689.13,-378.611 683.81,-369.449 682.255,-379.929 689.13,-378.611"/>
</g>
<!-- Node17 -->
<g id="node37" class="node"><title>Node17</title>
<a xlink:href="SpeciesThermo_8h.html" target="_top" xlink:title="Virtual base class for the calculation of multiple&#45;species thermodynamic reference&#45;state property man...">
<polygon fill="white" stroke="black" points="488,-291 488,-311 580,-311 580,-291 488,-291"/>
<text text-anchor="middle" x="534" y="-298" font-family="FreeSans" font-size="10.00">SpeciesThermo.h</text>
</a>
</g>
<!-- Node2&#45;&gt;Node17 -->
<g id="edge74" class="edge"><title>Node2&#45;&gt;Node17</title>
<path fill="none" stroke="midnightblue" d="M650.622,-466.459C611.075,-456.842 567.084,-443.227 554,-428 528.174,-397.944 528.55,-348.495 531.207,-321.007"/>
<polygon fill="midnightblue" stroke="midnightblue" points="534.691,-321.342 532.372,-311.004 527.738,-320.532 534.691,-321.342"/>
</g>
<!-- Node18 -->
<g id="node40" class="node"><title>Node18</title>
<a xlink:href="VPStandardStateTP_8h.html" target="_top" xlink:title="Header file for a derived class of ThermoPhase that handles variable pressure standard state methods ...">
<polygon fill="white" stroke="black" points="707,-407 707,-427 819,-427 819,-407 707,-407"/>
<text text-anchor="middle" x="763" y="-414" font-family="FreeSans" font-size="10.00">VPStandardStateTP.h</text>
</a>
</g>
<!-- Node2&#45;&gt;Node18 -->
<g id="edge44" class="edge"><title>Node2&#45;&gt;Node18</title>
<path fill="none" stroke="midnightblue" d="M731.598,-464.85C737.431,-455.963 744.695,-444.893 750.767,-435.64"/>
<polygon fill="midnightblue" stroke="midnightblue" points="753.785,-437.422 756.345,-427.141 747.932,-433.581 753.785,-437.422"/>
</g>
<!-- Node20 -->
<g id="node48" class="node"><title>Node20</title>
<a xlink:href="ThermoFactory_8h.html" target="_top" xlink:title="Headers for the factory class that can create known ThermoPhase objects (see Thermodynamic Properties...">
<polygon fill="white" stroke="black" points="562.5,-407 562.5,-427 651.5,-427 651.5,-407 562.5,-407"/>
<text text-anchor="middle" x="607" y="-414" font-family="FreeSans" font-size="10.00">ThermoFactory.h</text>
</a>
</g>
<!-- Node2&#45;&gt;Node20 -->
<g id="edge56" class="edge"><title>Node2&#45;&gt;Node20</title>
<path fill="none" stroke="midnightblue" d="M692.233,-464.85C674.424,-454.852 651.695,-442.092 634.188,-432.264"/>
<polygon fill="midnightblue" stroke="midnightblue" points="635.497,-428.984 625.064,-427.141 632.07,-435.088 635.497,-428.984"/>
</g>
<!-- Node5 -->
<g id="node9" class="node"><title>Node5</title>
<a xlink:href="Phase_8h.html" target="_top" xlink:title="Header file for class Phase. ">
<polygon fill="white" stroke="black" points="597.5,-291 597.5,-311 648.5,-311 648.5,-291 597.5,-291"/>
<text text-anchor="middle" x="623" y="-298" font-family="FreeSans" font-size="10.00">Phase.h</text>
</a>
</g>
<!-- Node4&#45;&gt;Node5 -->
<g id="edge8" class="edge"><title>Node4&#45;&gt;Node5</title>
<path fill="none" stroke="midnightblue" d="M671.723,-348.897C663.199,-340.517 650.882,-328.409 640.765,-318.464"/>
<polygon fill="midnightblue" stroke="midnightblue" points="643.141,-315.892 633.557,-311.378 638.234,-320.884 643.141,-315.892"/>
</g>
<!-- Node4&#45;&gt;Node17 -->
<g id="edge40" class="edge"><title>Node4&#45;&gt;Node17</title>
<path fill="none" stroke="midnightblue" d="M656.22,-348.897C632.175,-339.474 596.097,-325.335 569.366,-314.86"/>
<polygon fill="midnightblue" stroke="midnightblue" points="570.568,-311.572 559.981,-311.182 568.014,-318.089 570.568,-311.572"/>
</g>
<!-- Node6 -->
<g id="node11" class="node"><title>Node6</title>
<a xlink:href="vec__functions_8h.html" target="_top" xlink:title="Templates for operations on vector&#45;like objects. ">
<polygon fill="white" stroke="red" points="337,-233 337,-253 479,-253 479,-233 337,-233"/>
<text text-anchor="middle" x="408" y="-240" font-family="FreeSans" font-size="10.00">cantera/base/vec_functions.h</text>
</a>
</g>
<!-- Node5&#45;&gt;Node6 -->
<g id="edge10" class="edge"><title>Node5&#45;&gt;Node6</title>
<path fill="none" stroke="midnightblue" d="M597.43,-292.549C594.593,-291.665 591.74,-290.798 589,-290 545.551,-277.342 495.754,-264.534 459.404,-255.492"/>
<polygon fill="midnightblue" stroke="midnightblue" points="460.073,-252.052 449.525,-253.045 458.39,-258.847 460.073,-252.052"/>
</g>
<!-- Node12 -->
<g id="node23" class="node"><title>Node12</title>
<a xlink:href="ctml_8h.html" target="_top" xlink:title="CTML (&quot;Cantera Markup Language&quot;) is the variant of XML that Cantera uses to store data...">
<polygon fill="white" stroke="red" points="572.5,-233 572.5,-253 673.5,-253 673.5,-233 572.5,-233"/>
<text text-anchor="middle" x="623" y="-240" font-family="FreeSans" font-size="10.00">cantera/base/ctml.h</text>
</a>
</g>
<!-- Node5&#45;&gt;Node12 -->
<g id="edge22" class="edge"><title>Node5&#45;&gt;Node12</title>
<path fill="none" stroke="midnightblue" d="M623,-290.897C623,-283.339 623,-272.748 623,-263.446"/>
<polygon fill="midnightblue" stroke="midnightblue" points="626.5,-263.378 623,-253.378 619.5,-263.378 626.5,-263.378"/>
</g>
<!-- Node15 -->
<g id="node31" class="node"><title>Node15</title>
<a xlink:href="Elements_8h.html" target="_top" xlink:title="Contains the LookupWtElements function and the definitions of element constraint types. ">
<polygon fill="white" stroke="black" points="485,-175 485,-195 617,-195 617,-175 485,-175"/>
<text text-anchor="middle" x="551" y="-182" font-family="FreeSans" font-size="10.00">cantera/thermo/Elements.h</text>
</a>
</g>
<!-- Node5&#45;&gt;Node15 -->
<g id="edge32" class="edge"><title>Node5&#45;&gt;Node15</title>
<path fill="none" stroke="midnightblue" d="M604.31,-290.988C590.94,-282.827 573.663,-270.041 564,-254 555.166,-239.334 552.112,-219.991 551.155,-205.518"/>
<polygon fill="midnightblue" stroke="midnightblue" points="554.638,-204.999 550.767,-195.137 547.643,-205.261 554.638,-204.999"/>
</g>
<!-- Node16 -->
<g id="node34" class="node"><title>Node16</title>
<a xlink:href="ValueCache_8h.html" target="_top" xlink:title="cantera/base/ValueCache.h">
<polygon fill="white" stroke="red" points="445,-117 445,-137 579,-137 579,-117 445,-117"/>
<text text-anchor="middle" x="512" y="-124" font-family="FreeSans" font-size="10.00">cantera/base/ValueCache.h</text>
</a>
</g>
<!-- Node5&#45;&gt;Node16 -->
<g id="edge36" class="edge"><title>Node5&#45;&gt;Node16</title>
<path fill="none" stroke="midnightblue" d="M597.271,-291.632C562.155,-277.254 500.757,-246.036 476,-196 467.285,-178.385 480.095,-158.512 492.783,-144.633"/>
<polygon fill="midnightblue" stroke="midnightblue" points="495.56,-146.801 500.076,-137.217 490.569,-141.893 495.56,-146.801"/>
</g>
<!-- Node7 -->
<g id="node13" class="node"><title>Node7</title>
<a xlink:href="ct__defs_8h.html" target="_top" xlink:title="This file contains definitions of terms that are used in internal routines and are unlikely to need m...">
<polygon fill="white" stroke="red" points="579,-59 579,-79 635,-79 635,-59 579,-59"/>
<text text-anchor="middle" x="607" y="-66" font-family="FreeSans" font-size="10.00">ct_defs.h</text>
</a>
</g>
<!-- Node6&#45;&gt;Node7 -->
<g id="edge12" class="edge"><title>Node6&#45;&gt;Node7</title>
<path fill="none" stroke="midnightblue" d="M407.019,-232.845C405.314,-209.022 404.587,-149.065 436,-116 454.1,-96.9485 524.094,-82.4066 568.727,-74.8312"/>
<polygon fill="midnightblue" stroke="midnightblue" points="569.364,-78.2735 578.659,-73.1889 568.222,-71.3673 569.364,-78.2735"/>
</g>
<!-- Node6&#45;&gt;Node11 -->
<g id="edge20" class="edge"><title>Node6&#45;&gt;Node11</title>
<path fill="none" stroke="midnightblue" d="M400.162,-232.897C393.851,-224.764 384.816,-213.118 377.235,-203.347"/>
<polygon fill="midnightblue" stroke="midnightblue" points="379.947,-201.133 371.052,-195.378 374.416,-205.424 379.947,-201.133"/>
</g>
<!-- Node8 -->
<g id="node15" class="node"><title>Node8</title>
<a xlink:href="config_8h_source.html" target="_top" xlink:title="config.h">
<polygon fill="white" stroke="black" points="360,-1 360,-21 410,-21 410,-1 360,-1"/>
<text text-anchor="middle" x="385" y="-8" font-family="FreeSans" font-size="10.00">config.h</text>
</a>
</g>
<!-- Node7&#45;&gt;Node8 -->
<g id="edge14" class="edge"><title>Node7&#45;&gt;Node8</title>
<path fill="none" stroke="midnightblue" d="M578.884,-61.6543C538.486,-51.1 464.06,-31.6552 420.103,-20.1712"/>
<polygon fill="midnightblue" stroke="midnightblue" points="420.712,-16.7128 410.152,-17.5713 418.943,-23.4855 420.712,-16.7128"/>
</g>
<!-- Node9 -->
<g id="node17" class="node"><title>Node9</title>
<polygon fill="white" stroke="#bfbfbf" points="283.5,-1 283.5,-21 326.5,-21 326.5,-1 283.5,-1"/>
<text text-anchor="middle" x="305" y="-8" font-family="FreeSans" font-size="10.00">vector</text>
</g>
<!-- Node7&#45;&gt;Node9 -->
<g id="edge16" class="edge"><title>Node7&#45;&gt;Node9</title>
<path fill="none" stroke="midnightblue" d="M578.872,-64.3393C531.639,-56.4004 433.455,-39.4151 351,-22 346.448,-21.0386 341.658,-19.964 336.958,-18.8734"/>
<polygon fill="midnightblue" stroke="midnightblue" points="337.478,-15.3997 326.941,-16.4979 335.863,-22.2108 337.478,-15.3997"/>
</g>
<!-- Node10 -->
<g id="node19" class="node"><title>Node10</title>
<polygon fill="white" stroke="#bfbfbf" points="666,-1 666,-21 706,-21 706,-1 666,-1"/>
<text text-anchor="middle" x="686" y="-8" font-family="FreeSans" font-size="10.00">string</text>
</g>
<!-- Node7&#45;&gt;Node10 -->
<g id="edge18" class="edge"><title>Node7&#45;&gt;Node10</title>
<path fill="none" stroke="midnightblue" d="M620.761,-58.8972C632.695,-50.1351 650.182,-37.2965 664.048,-27.1164"/>
<polygon fill="midnightblue" stroke="midnightblue" points="666.142,-29.921 672.132,-21.1817 662,-24.2785 666.142,-29.921"/>
</g>
<!-- Node12&#45;&gt;Node7 -->
<g id="edge24" class="edge"><title>Node12&#45;&gt;Node7</title>
<path fill="none" stroke="midnightblue" d="M623.83,-232.924C624.568,-223.413 625.594,-208.749 626,-196 626.312,-186.227 626.874,-183.739 626,-174 623.319,-144.127 616.43,-110.043 611.727,-89.0218"/>
<polygon fill="midnightblue" stroke="midnightblue" points="615.088,-88.0185 609.441,-79.0542 608.265,-89.5836 615.088,-88.0185"/>
</g>
<!-- Node13 -->
<g id="node26" class="node"><title>Node13</title>
<a xlink:href="xml_8h.html" target="_top" xlink:title="Classes providing support for XML data files. ">
<polygon fill="white" stroke="red" points="672.5,-175 672.5,-195 711.5,-195 711.5,-175 672.5,-175"/>
<text text-anchor="middle" x="692" y="-182" font-family="FreeSans" font-size="10.00">xml.h</text>
</a>
</g>
<!-- Node12&#45;&gt;Node13 -->
<g id="edge26" class="edge"><title>Node12&#45;&gt;Node13</title>
<path fill="none" stroke="midnightblue" d="M635.019,-232.897C645.183,-224.353 659.959,-211.933 671.917,-201.881"/>
<polygon fill="midnightblue" stroke="midnightblue" points="674.251,-204.491 679.654,-195.378 669.747,-199.133 674.251,-204.491"/>
</g>
<!-- Node14 -->
<g id="node28" class="node"><title>Node14</title>
<a xlink:href="global_8h.html" target="_top" xlink:title="This file contains definitions for utility functions and text for modules, inputfiles, logs, textlogs, (see Input File Handling, Diagnostic Output, and Writing messages to the screen). ">
<polygon fill="white" stroke="black" points="673,-117 673,-137 723,-137 723,-117 673,-117"/>
<text text-anchor="middle" x="698" y="-124" font-family="FreeSans" font-size="10.00">global.h</text>
</a>
</g>
<!-- Node13&#45;&gt;Node14 -->
<g id="edge28" class="edge"><title>Node13&#45;&gt;Node14</title>
<path fill="none" stroke="midnightblue" d="M693.045,-174.897C693.827,-167.339 694.923,-156.748 695.885,-147.446"/>
<polygon fill="midnightblue" stroke="midnightblue" points="699.379,-147.685 696.926,-137.378 692.416,-146.964 699.379,-147.685"/>
</g>
<!-- Node14&#45;&gt;Node7 -->
<g id="edge30" class="edge"><title>Node14&#45;&gt;Node7</title>
<path fill="none" stroke="midnightblue" d="M682.149,-116.897C668.272,-108.052 647.878,-95.0539 631.835,-84.829"/>
<polygon fill="midnightblue" stroke="midnightblue" points="633.289,-81.605 622.975,-79.1817 629.526,-87.5079 633.289,-81.605"/>
</g>
<!-- Node15&#45;&gt;Node7 -->
<g id="edge34" class="edge"><title>Node15&#45;&gt;Node7</title>
<path fill="none" stroke="midnightblue" d="M561.165,-174.65C569.48,-165.65 580.976,-151.904 588,-138 595.781,-122.599 600.711,-103.601 603.594,-89.4422"/>
<polygon fill="midnightblue" stroke="midnightblue" points="607.095,-89.7564 605.482,-79.2851 600.213,-88.4769 607.095,-89.7564"/>
</g>
<!-- Node16&#45;&gt;Node7 -->
<g id="edge38" class="edge"><title>Node16&#45;&gt;Node7</title>
<path fill="none" stroke="midnightblue" d="M528.548,-116.897C543.17,-107.97 564.724,-94.8106 581.541,-84.5431"/>
<polygon fill="midnightblue" stroke="midnightblue" points="583.612,-87.3798 590.323,-79.1817 579.964,-81.4053 583.612,-87.3798"/>
</g>
<!-- Node17&#45;&gt;Node7 -->
<g id="edge42" class="edge"><title>Node17&#45;&gt;Node7</title>
<path fill="none" stroke="midnightblue" d="M487.692,-293.546C430.068,-283.804 337.978,-266.511 328,-254 305.83,-226.202 310.98,-205.217 328,-174 350.78,-132.22 374.321,-134.885 418,-116 467.999,-94.3821 529.918,-81.3594 568.953,-74.6752"/>
<polygon fill="midnightblue" stroke="midnightblue" points="569.553,-78.1237 578.845,-73.0336 568.407,-71.2181 569.553,-78.1237"/>
</g>
<!-- Node18&#45;&gt;Node4 -->
<g id="edge46" class="edge"><title>Node18&#45;&gt;Node4</title>
<path fill="none" stroke="midnightblue" d="M748.891,-406.897C736.654,-398.135 718.724,-385.297 704.507,-375.116"/>
<polygon fill="midnightblue" stroke="midnightblue" points="706.387,-372.158 696.219,-369.182 702.312,-377.849 706.387,-372.158"/>
</g>
<!-- Node19 -->
<g id="node43" class="node"><title>Node19</title>
<a xlink:href="VPSSMgr_8h.html" target="_top" xlink:title="Declaration file for a virtual base class that manages the calculation of standard state properties f...">
<polygon fill="white" stroke="black" points="742.5,-349 742.5,-369 809.5,-369 809.5,-349 742.5,-349"/>
<text text-anchor="middle" x="776" y="-356" font-family="FreeSans" font-size="10.00">VPSSMgr.h</text>
</a>
</g>
<!-- Node18&#45;&gt;Node19 -->
<g id="edge48" class="edge"><title>Node18&#45;&gt;Node19</title>
<path fill="none" stroke="midnightblue" d="M765.264,-406.897C766.977,-399.257 769.384,-388.517 771.485,-379.143"/>
<polygon fill="midnightblue" stroke="midnightblue" points="774.902,-379.901 773.674,-369.378 768.072,-378.37 774.902,-379.901"/>
</g>
<!-- Node19&#45;&gt;Node3 -->
<g id="edge52" class="edge"><title>Node19&#45;&gt;Node3</title>
<path fill="none" stroke="midnightblue" d="M786.451,-348.897C795.12,-340.517 807.646,-328.409 817.934,-318.464"/>
<polygon fill="midnightblue" stroke="midnightblue" points="820.507,-320.844 825.265,-311.378 815.642,-315.811 820.507,-320.844"/>
</g>
<!-- Node19&#45;&gt;Node7 -->
<g id="edge50" class="edge"><title>Node19&#45;&gt;Node7</title>
<path fill="none" stroke="midnightblue" d="M776.148,-348.759C776.426,-328.541 777,-282.071 777,-243 777,-243 777,-243 777,-185 777,-121.488 695.039,-90.2491 644.936,-77.086"/>
<polygon fill="midnightblue" stroke="midnightblue" points="645.623,-73.6498 635.072,-74.6182 643.924,-80.4406 645.623,-73.6498"/>
</g>
<!-- Node19&#45;&gt;Node14 -->
<g id="edge54" class="edge"><title>Node19&#45;&gt;Node14</title>
<path fill="none" stroke="midnightblue" d="M773.144,-348.876C763.633,-315.278 732.906,-207.687 720,-174 716.432,-164.688 711.837,-154.642 707.77,-146.237"/>
<polygon fill="midnightblue" stroke="midnightblue" points="710.903,-144.678 703.331,-137.268 704.629,-147.783 710.903,-144.678"/>
</g>
<!-- Node20&#45;&gt;Node4 -->
<g id="edge58" class="edge"><title>Node20&#45;&gt;Node4</title>
<path fill="none" stroke="midnightblue" d="M620.064,-406.897C631.287,-398.218 647.683,-385.538 660.786,-375.405"/>
<polygon fill="midnightblue" stroke="midnightblue" points="663.065,-378.068 668.834,-369.182 658.782,-372.53 663.065,-378.068"/>
</g>
<!-- Node20&#45;&gt;Node13 -->
<g id="edge60" class="edge"><title>Node20&#45;&gt;Node13</title>
<path fill="none" stroke="midnightblue" d="M609.546,-406.797C613.212,-392.987 620.69,-367.799 631,-348 640.116,-330.495 647.258,-329.165 657,-312 670.856,-287.587 674.365,-281.012 682,-254 686.52,-238.008 689.068,-219.322 690.459,-205.433"/>
<polygon fill="midnightblue" stroke="midnightblue" points="693.946,-205.735 691.342,-195.465 686.973,-205.117 693.946,-205.735"/>
</g>
<!-- Node21 -->
<g id="node52" class="node"><title>Node21</title>
<a xlink:href="ct__thread_8h.html" target="_top" xlink:title="cantera/base/ct_thread.h">
<polygon fill="white" stroke="black" points="249.5,-349 249.5,-369 372.5,-369 372.5,-349 249.5,-349"/>
<text text-anchor="middle" x="311" y="-356" font-family="FreeSans" font-size="10.00">cantera/base/ct_thread.h</text>
</a>
</g>
<!-- Node20&#45;&gt;Node21 -->
<g id="edge62" class="edge"><title>Node20&#45;&gt;Node21</title>
<path fill="none" stroke="midnightblue" d="M562.365,-408.254C511.707,-398.328 428.777,-382.078 372.129,-370.978"/>
<polygon fill="midnightblue" stroke="midnightblue" points="372.709,-367.525 362.222,-369.037 371.363,-374.394 372.709,-367.525"/>
</g>
<!-- Node24 -->
<g id="node59" class="node"><title>Node24</title>
<a xlink:href="FactoryBase_8h.html" target="_top" xlink:title="File contains the FactoryBase class declarations. ">
<polygon fill="white" stroke="black" points="-0.5,-59 -0.5,-79 136.5,-79 136.5,-59 -0.5,-59"/>
<text text-anchor="middle" x="68" y="-66" font-family="FreeSans" font-size="10.00">cantera/base/FactoryBase.h</text>
</a>
</g>
<!-- Node20&#45;&gt;Node24 -->
<g id="edge70" class="edge"><title>Node20&#45;&gt;Node24</title>
<path fill="none" stroke="midnightblue" d="M562.403,-415.829C492.527,-412.988 353.585,-403.264 241,-370 172.94,-349.892 97,-371.968 97,-301 97,-301 97,-301 97,-185 97,-150.234 84.5884,-111.31 76.0047,-88.5477"/>
<polygon fill="midnightblue" stroke="midnightblue" points="79.1834,-87.066 72.279,-79.0298 72.665,-89.6176 79.1834,-87.066"/>
</g>
<!-- Node21&#45;&gt;Node8 -->
<g id="edge64" class="edge"><title>Node21&#45;&gt;Node8</title>
<path fill="none" stroke="midnightblue" d="M249.808,-348.996C226.033,-342.224 200.391,-330.902 183,-312 161.463,-288.592 164,-274.808 164,-243 164,-243 164,-243 164,-127 164,-85.5424 287.469,-41.2525 349.833,-21.5261"/>
<polygon fill="midnightblue" stroke="midnightblue" points="351.144,-24.7835 359.648,-18.4647 349.06,-18.101 351.144,-24.7835"/>
</g>
<!-- Node22 -->
<g id="node55" class="node"><title>Node22</title>
<polygon fill="white" stroke="#bfbfbf" points="326,-291 326,-311 432,-311 432,-291 326,-291"/>
<text text-anchor="middle" x="379" y="-298" font-family="FreeSans" font-size="10.00">boost/shared_ptr.hpp</text>
</g>
<!-- Node21&#45;&gt;Node22 -->
<g id="edge66" class="edge"><title>Node21&#45;&gt;Node22</title>
<path fill="none" stroke="midnightblue" d="M322.845,-348.897C332.862,-340.353 347.423,-327.933 359.208,-317.881"/>
<polygon fill="midnightblue" stroke="midnightblue" points="361.496,-320.53 366.833,-311.378 356.953,-315.204 361.496,-320.53"/>
</g>
<!-- Node23 -->
<g id="node57" class="node"><title>Node23</title>
<polygon fill="white" stroke="#bfbfbf" points="191.5,-291 191.5,-311 308.5,-311 308.5,-291 191.5,-291"/>
<text text-anchor="middle" x="250" y="-298" font-family="FreeSans" font-size="10.00">boost/thread/mutex.hpp</text>
</g>
<!-- Node21&#45;&gt;Node23 -->
<g id="edge68" class="edge"><title>Node21&#45;&gt;Node23</title>
<path fill="none" stroke="midnightblue" d="M300.375,-348.897C291.561,-340.517 278.827,-328.409 268.367,-318.464"/>
<polygon fill="midnightblue" stroke="midnightblue" points="270.573,-315.732 260.914,-311.378 265.75,-320.805 270.573,-315.732"/>
</g>
<!-- Node24&#45;&gt;Node9 -->
<g id="edge72" class="edge"><title>Node24&#45;&gt;Node9</title>
<path fill="none" stroke="midnightblue" d="M109.012,-58.9634C155.766,-47.5214 231.179,-29.0659 273.532,-18.7011"/>
<polygon fill="midnightblue" stroke="midnightblue" points="274.418,-22.0876 283.299,-16.3107 272.754,-15.2883 274.418,-22.0876"/>
</g>
<!-- Node25&#45;&gt;Node7 -->
<g id="edge78" class="edge"><title>Node25&#45;&gt;Node7</title>
<path fill="none" stroke="midnightblue" d="M822.008,-116.963C771.908,-105.787 691.811,-87.9193 644.817,-77.4361"/>
<polygon fill="midnightblue" stroke="midnightblue" points="645.554,-74.0146 635.032,-75.2533 644.03,-80.8467 645.554,-74.0146"/>
</g>
<!-- Node25&#45;&gt;Node10 -->
<g id="edge80" class="edge"><title>Node25&#45;&gt;Node10</title>
<path fill="none" stroke="midnightblue" d="M851.254,-116.909C819.697,-96.6844 748.505,-51.0582 710.689,-26.8228"/>
<polygon fill="midnightblue" stroke="midnightblue" points="712.146,-23.5997 701.838,-21.1506 708.369,-29.4932 712.146,-23.5997"/>
</g>
</g>
</svg>
