<?xml version="1.0" encoding="UTF-8" standalone="no"?>
<!DOCTYPE svg PUBLIC "-//W3C//DTD SVG 1.1//EN"
 "http://www.w3.org/Graphics/SVG/1.1/DTD/svg11.dtd">
<!-- Generated by graphviz version 2.40.1 (20161225.0304)
 -->
<!-- Title: Metal.h Pages: 1 -->
<svg width="1234pt" height="412pt"
 viewBox="0.00 0.00 1233.54 412.00" xmlns="http://www.w3.org/2000/svg" xmlns:xlink="http://www.w3.org/1999/xlink">
<g id="graph0" class="graph" transform="scale(1 1) rotate(0) translate(4 408)">
<title>Metal.h</title>
<polygon fill="#ffffff" stroke="transparent" points="-4,4 -4,-408 1229.5424,-408 1229.5424,4 -4,4"/>
<!-- Node0 -->
<g id="node1" class="node">
<title>Node0</title>
<polygon fill="#bfbfbf" stroke="#000000" points="544.3545,-385.5 544.3545,-403.5 593.1475,-403.5 593.1475,-385.5 544.3545,-385.5"/>
<text text-anchor="middle" x="568.751" y="-391.5" font-family="Helvetica,sans-Serif" font-size="10.00" fill="#000000">Metal.h</text>
</g>
<!-- Node1 -->
<g id="node2" class="node">
<title>Node1</title>
<g id="a_node2"><a xlink:href="MetalPhase_8h.html" target="_top" xlink:title="thermo/MetalPhase.h">
<polygon fill="#ffffff" stroke="#000000" points="593.2266,-275.5 593.2266,-293.5 704.2754,-293.5 704.2754,-275.5 593.2266,-275.5"/>
<text text-anchor="middle" x="648.751" y="-281.5" font-family="Helvetica,sans-Serif" font-size="10.00" fill="#000000">thermo/MetalPhase.h</text>
</a>
</g>
</g>
<!-- Node0&#45;&gt;Node1 -->
<g id="edge1" class="edge">
<title>Node0&#45;&gt;Node1</title>
<path fill="none" stroke="#191970" d="M575.2977,-385.4982C588.5998,-367.2079 618.9834,-325.4304 636.2161,-301.7354"/>
<polygon fill="#191970" stroke="#191970" points="639.0626,-303.7721 642.1138,-293.6261 633.4014,-299.6549 639.0626,-303.7721"/>
</g>
<!-- Node33 -->
<g id="node15" class="node">
<title>Node33</title>
<g id="a_node15"><a xlink:href="importKinetics_8h.html" target="_top" xlink:title="Definitions of global routines for the importing of data from XML files (see Input File Handling)...">
<polygon fill="#ffffff" stroke="#000000" points="462.1206,-330.5 462.1206,-348.5 585.3813,-348.5 585.3813,-330.5 462.1206,-330.5"/>
<text text-anchor="middle" x="523.751" y="-336.5" font-family="Helvetica,sans-Serif" font-size="10.00" fill="#000000">kinetics/importKinetics.h</text>
</a>
</g>
</g>
<!-- Node0&#45;&gt;Node33 -->
<g id="edge23" class="edge">
<title>Node0&#45;&gt;Node33</title>
<path fill="none" stroke="#191970" d="M561.3201,-385.4179C554.9748,-377.6624 545.6701,-366.29 537.9084,-356.8035"/>
<polygon fill="#191970" stroke="#191970" points="540.3845,-354.3027 531.3433,-348.7795 534.9668,-358.7354 540.3845,-354.3027"/>
</g>
<!-- Node2 -->
<g id="node3" class="node">
<title>Node2</title>
<g id="a_node3"><a xlink:href="ThermoPhase_8h.html" target="_top" xlink:title="Header file for class ThermoPhase, the base class for phases with thermodynamic properties, and the text for the Module thermoprops (see Thermodynamic Properties and class ThermoPhase). ">
<polygon fill="#ffffff" stroke="#000000" points="605.1772,-220.5 605.1772,-238.5 692.3247,-238.5 692.3247,-220.5 605.1772,-220.5"/>
<text text-anchor="middle" x="648.751" y="-226.5" font-family="Helvetica,sans-Serif" font-size="10.00" fill="#000000">ThermoPhase.h</text>
</a>
</g>
</g>
<!-- Node1&#45;&gt;Node2 -->
<g id="edge2" class="edge">
<title>Node1&#45;&gt;Node2</title>
<path fill="none" stroke="#191970" d="M648.751,-275.4179C648.751,-268.2164 648.751,-257.8962 648.751,-248.8632"/>
<polygon fill="#191970" stroke="#191970" points="652.2511,-248.7794 648.751,-238.7795 645.2511,-248.7795 652.2511,-248.7794"/>
</g>
<!-- Node31 -->
<g id="node13" class="node">
<title>Node31</title>
<g id="a_node13"><a xlink:href="ctml_8h.html" target="_top" xlink:title="CTML (&quot;Cantera Markup Language&quot;) is the variant of XML that Cantera uses to store data...">
<polygon fill="#ffffff" stroke="#000000" points="792.1182,-165.5 792.1182,-183.5 895.3838,-183.5 895.3838,-165.5 792.1182,-165.5"/>
<text text-anchor="middle" x="843.751" y="-171.5" font-family="Helvetica,sans-Serif" font-size="10.00" fill="#000000">cantera/base/ctml.h</text>
</a>
</g>
</g>
<!-- Node1&#45;&gt;Node31 -->
<g id="edge18" class="edge">
<title>Node1&#45;&gt;Node31</title>
<path fill="none" stroke="#191970" d="M664.7086,-275.4982C698.6322,-256.3619 778.133,-211.5153 818.8131,-188.5675"/>
<polygon fill="#191970" stroke="#191970" points="820.5827,-191.5878 827.5728,-183.6261 817.1434,-185.491 820.5827,-191.5878"/>
</g>
<!-- Node3 -->
<g id="node4" class="node">
<title>Node3</title>
<g id="a_node4"><a xlink:href="Phase_8h.html" target="_top" xlink:title="Header file for class Phase. ">
<polygon fill="#ffffff" stroke="#000000" points="837.4038,-110.5 837.4038,-128.5 890.0981,-128.5 890.0981,-110.5 837.4038,-110.5"/>
<text text-anchor="middle" x="863.751" y="-116.5" font-family="Helvetica,sans-Serif" font-size="10.00" fill="#000000">Phase.h</text>
</a>
</g>
</g>
<!-- Node2&#45;&gt;Node3 -->
<g id="edge3" class="edge">
<title>Node2&#45;&gt;Node3</title>
<path fill="none" stroke="#191970" d="M668.7605,-220.3997C688.287,-211.4293 718.7648,-197.1885 744.751,-184 777.6798,-167.288 815.021,-146.7898 838.9504,-133.4505"/>
<polygon fill="#191970" stroke="#191970" points="840.7087,-136.4774 847.7292,-128.5424 837.2927,-130.3675 840.7087,-136.4774"/>
</g>
<!-- Node28 -->
<g id="node10" class="node">
<title>Node28</title>
<g id="a_node10"><a xlink:href="MultiSpeciesThermo_8h.html" target="_top" xlink:title="Header for a general species thermodynamic property manager for a phase (see MultiSpeciesThermo). ">
<polygon fill="#ffffff" stroke="#000000" points="620.0098,-165.5 620.0098,-183.5 735.4922,-183.5 735.4922,-165.5 620.0098,-165.5"/>
<text text-anchor="middle" x="677.751" y="-171.5" font-family="Helvetica,sans-Serif" font-size="10.00" fill="#000000">MultiSpeciesThermo.h</text>
</a>
</g>
</g>
<!-- Node2&#45;&gt;Node28 -->
<g id="edge11" class="edge">
<title>Node2&#45;&gt;Node28</title>
<path fill="none" stroke="#191970" d="M653.5397,-220.4179C657.5038,-212.8998 663.26,-201.9829 668.1652,-192.6799"/>
<polygon fill="#191970" stroke="#191970" points="671.29,-194.2576 672.8582,-183.7795 665.098,-190.9927 671.29,-194.2576"/>
</g>
<!-- Node21 -->
<g id="node12" class="node">
<title>Node21</title>
<g id="a_node12"><a xlink:href="global_8h.html" target="_top" xlink:title="This file contains definitions for utility functions and text for modules, inputfiles, logs, textlogs, (see Input File Handling, Diagnostic Output, and Writing messages to the screen). ">
<polygon fill="#ffffff" stroke="#ff0000" points="444.9385,-55.5 444.9385,-73.5 556.5635,-73.5 556.5635,-55.5 444.9385,-55.5"/>
<text text-anchor="middle" x="500.751" y="-61.5" font-family="Helvetica,sans-Serif" font-size="10.00" fill="#000000">cantera/base/global.h</text>
</a>
</g>
</g>
<!-- Node2&#45;&gt;Node21 -->
<g id="edge17" class="edge">
<title>Node2&#45;&gt;Node21</title>
<path fill="none" stroke="#191970" d="M639.945,-220.2227C631.7893,-211.3525 619.6182,-197.3845 610.751,-184 590.3318,-153.1784 597.7027,-137.2823 572.751,-110 560.7991,-96.9318 544.2717,-86.1325 530.0657,-78.3395"/>
<polygon fill="#191970" stroke="#191970" points="531.619,-75.202 521.1371,-73.6588 528.3688,-81.4018 531.619,-75.202"/>
</g>
<!-- Node4 -->
<g id="node5" class="node">
<title>Node4</title>
<g id="a_node5"><a xlink:href="ctexceptions_8h.html" target="_top" xlink:title="Definitions for the classes that are thrown when Cantera experiences an error condition (also contain...">
<polygon fill="#ffffff" stroke="#ff0000" points="574.4902,-55.5 574.4902,-73.5 715.0117,-73.5 715.0117,-55.5 574.4902,-55.5"/>
<text text-anchor="middle" x="644.751" y="-61.5" font-family="Helvetica,sans-Serif" font-size="10.00" fill="#000000">cantera/base/ctexceptions.h</text>
</a>
</g>
</g>
<!-- Node3&#45;&gt;Node4 -->
<g id="edge4" class="edge">
<title>Node3&#45;&gt;Node4</title>
<path fill="none" stroke="#191970" d="M837.3947,-112.2776C834.4806,-111.4995 831.5545,-110.727 828.751,-110 782.6026,-98.0328 729.7565,-85.0381 692.5739,-76.0118"/>
<polygon fill="#191970" stroke="#191970" points="693.0635,-72.5292 682.5205,-73.5753 691.4147,-79.3322 693.0635,-72.5292"/>
</g>
<!-- Node18 -->
<g id="node6" class="node">
<title>Node18</title>
<g id="a_node6"><a xlink:href="Elements_8h.html" target="_top" xlink:title="Contains the getElementWeight function and the definitions of element constraint types. ">
<polygon fill="#ffffff" stroke="#000000" points="1074.7217,-55.5 1074.7217,-73.5 1210.7803,-73.5 1210.7803,-55.5 1074.7217,-55.5"/>
<text text-anchor="middle" x="1142.751" y="-61.5" font-family="Helvetica,sans-Serif" font-size="10.00" fill="#000000">cantera/thermo/Elements.h</text>
</a>
</g>
</g>
<!-- Node3&#45;&gt;Node18 -->
<g id="edge5" class="edge">
<title>Node3&#45;&gt;Node18</title>
<path fill="none" stroke="#191970" d="M890.2502,-114.2761C935.1899,-105.4171 1027.2716,-87.2647 1086.9425,-75.5017"/>
<polygon fill="#191970" stroke="#191970" points="1087.8236,-78.8954 1096.9578,-73.5273 1086.4696,-72.0276 1087.8236,-78.8954"/>
</g>
<!-- Node19 -->
<g id="node8" class="node">
<title>Node19</title>
<g id="a_node8"><a xlink:href="Species_8h.html" target="_top" xlink:title="Declaration for class Cantera::Species. ">
<polygon fill="#ffffff" stroke="#ff0000" points="770.7759,-55.5 770.7759,-73.5 900.7261,-73.5 900.7261,-55.5 770.7759,-55.5"/>
<text text-anchor="middle" x="835.751" y="-61.5" font-family="Helvetica,sans-Serif" font-size="10.00" fill="#000000">cantera/thermo/Species.h</text>
</a>
</g>
</g>
<!-- Node3&#45;&gt;Node19 -->
<g id="edge7" class="edge">
<title>Node3&#45;&gt;Node19</title>
<path fill="none" stroke="#191970" d="M859.1273,-110.4179C855.3403,-102.9789 849.8591,-92.2123 845.156,-82.9742"/>
<polygon fill="#191970" stroke="#191970" points="848.131,-81.1032 840.4751,-73.7795 841.8929,-84.279 848.131,-81.1032"/>
</g>
<!-- Node26 -->
<g id="node9" class="node">
<title>Node26</title>
<g id="a_node9"><a xlink:href="ValueCache_8h.html" target="_top" xlink:title="cantera/base/ValueCache.h">
<polygon fill="#ffffff" stroke="#ff0000" points="918.4106,-55.5 918.4106,-73.5 1057.0913,-73.5 1057.0913,-55.5 918.4106,-55.5"/>
<text text-anchor="middle" x="987.751" y="-61.5" font-family="Helvetica,sans-Serif" font-size="10.00" fill="#000000">cantera/base/ValueCache.h</text>
</a>
</g>
</g>
<!-- Node3&#45;&gt;Node26 -->
<g id="edge9" class="edge">
<title>Node3&#45;&gt;Node26</title>
<path fill="none" stroke="#191970" d="M884.2271,-110.4179C904.3304,-101.5011 935.2132,-87.803 958.0197,-77.6873"/>
<polygon fill="#191970" stroke="#191970" points="959.5224,-80.8496 967.2445,-73.5956 956.6842,-74.4508 959.5224,-80.8496"/>
</g>
<!-- Node6 -->
<g id="node7" class="node">
<title>Node6</title>
<g id="a_node7"><a xlink:href="ct__defs_8h.html" target="_top" xlink:title="This file contains definitions of terms that are used in internal routines and are unlikely to need m...">
<polygon fill="#ffffff" stroke="#ff0000" points="760.4604,-.5 760.4604,-18.5 817.0415,-18.5 817.0415,-.5 760.4604,-.5"/>
<text text-anchor="middle" x="788.751" y="-6.5" font-family="Helvetica,sans-Serif" font-size="10.00" fill="#000000">ct_defs.h</text>
</a>
</g>
</g>
<!-- Node18&#45;&gt;Node6 -->
<g id="edge6" class="edge">
<title>Node18&#45;&gt;Node6</title>
<path fill="none" stroke="#191970" d="M1084.6915,-55.4795C1012.0056,-44.1865 889.5134,-25.1552 827.3843,-15.5024"/>
<polygon fill="#191970" stroke="#191970" points="827.6478,-12.0014 817.229,-13.9246 826.5731,-18.9184 827.6478,-12.0014"/>
</g>
<!-- Node19&#45;&gt;Node6 -->
<g id="edge8" class="edge">
<title>Node19&#45;&gt;Node6</title>
<path fill="none" stroke="#191970" d="M827.9899,-55.4179C821.2949,-47.5833 811.4456,-36.0575 803.2899,-26.5137"/>
<polygon fill="#191970" stroke="#191970" points="805.8381,-24.108 796.6807,-18.7795 800.5164,-28.6556 805.8381,-24.108"/>
</g>
<!-- Node26&#45;&gt;Node6 -->
<g id="edge10" class="edge">
<title>Node26&#45;&gt;Node6</title>
<path fill="none" stroke="#191970" d="M954.8902,-55.4179C919.7746,-45.7126 864.1648,-30.343 827.08,-20.0935"/>
<polygon fill="#191970" stroke="#191970" points="827.7149,-16.6378 817.1439,-17.3473 825.8501,-23.3848 827.7149,-16.6378"/>
</g>
<!-- Node29 -->
<g id="node11" class="node">
<title>Node29</title>
<g id="a_node11"><a xlink:href="SpeciesThermoInterpType_8h.html" target="_top" xlink:title="Pure Virtual Base class for individual species reference state thermodynamic managers and text for th...">
<polygon fill="#ffffff" stroke="#ff0000" points="677.9385,-110.5 677.9385,-128.5 819.5635,-128.5 819.5635,-110.5 677.9385,-110.5"/>
<text text-anchor="middle" x="748.751" y="-116.5" font-family="Helvetica,sans-Serif" font-size="10.00" fill="#000000">SpeciesThermoInterpType.h</text>
</a>
</g>
</g>
<!-- Node28&#45;&gt;Node29 -->
<g id="edge12" class="edge">
<title>Node28&#45;&gt;Node29</title>
<path fill="none" stroke="#191970" d="M689.4752,-165.4179C700.0997,-157.1876 715.9827,-144.8839 728.634,-135.0836"/>
<polygon fill="#191970" stroke="#191970" points="731.0099,-137.6704 736.772,-128.7795 726.7231,-132.1365 731.0099,-137.6704"/>
</g>
<!-- Node29&#45;&gt;Node4 -->
<g id="edge14" class="edge">
<title>Node29&#45;&gt;Node4</title>
<path fill="none" stroke="#191970" d="M731.5775,-110.4179C715.093,-101.7001 689.9667,-88.4122 670.9777,-78.3699"/>
<polygon fill="#191970" stroke="#191970" points="672.4262,-75.1767 661.95,-73.5956 669.1537,-81.3646 672.4262,-75.1767"/>
</g>
<!-- Node29&#45;&gt;Node6 -->
<g id="edge13" class="edge">
<title>Node29&#45;&gt;Node6</title>
<path fill="none" stroke="#191970" d="M749.603,-110.4707C751.0175,-97.7475 754.4509,-73.9775 761.751,-55 765.4486,-45.3875 771.0867,-35.4669 776.2562,-27.3521"/>
<polygon fill="#191970" stroke="#191970" points="779.3338,-29.0451 781.965,-18.7821 773.5081,-25.1642 779.3338,-29.0451"/>
</g>
<!-- Node29&#45;&gt;Node21 -->
<g id="edge15" class="edge">
<title>Node29&#45;&gt;Node21</title>
<path fill="none" stroke="#191970" d="M708.0765,-110.4795C665.1891,-100.9681 597.5504,-85.9676 551.2716,-75.7042"/>
<polygon fill="#191970" stroke="#191970" points="551.9683,-72.2737 541.4476,-73.5255 550.4526,-79.1077 551.9683,-72.2737"/>
</g>
<!-- Node21&#45;&gt;Node6 -->
<g id="edge16" class="edge">
<title>Node21&#45;&gt;Node6</title>
<path fill="none" stroke="#191970" d="M547.9858,-55.4795C604.5369,-44.6798 698.1456,-26.8031 750.4227,-16.8196"/>
<polygon fill="#191970" stroke="#191970" points="751.1379,-20.2464 760.3038,-14.9326 749.8248,-13.3706 751.1379,-20.2464"/>
</g>
<!-- Node31&#45;&gt;Node6 -->
<g id="edge19" class="edge">
<title>Node31&#45;&gt;Node6</title>
<path fill="none" stroke="#191970" d="M895.5823,-167.2822C1009.0271,-150.4327 1265.6861,-106.0397 1219.751,-55 1193.7123,-26.0678 928.1688,-14.1799 827.3208,-10.6854"/>
<polygon fill="#191970" stroke="#191970" points="827.3631,-7.1849 817.2507,-10.3455 827.127,-14.1809 827.3631,-7.1849"/>
</g>
<!-- Node32 -->
<g id="node14" class="node">
<title>Node32</title>
<g id="a_node14"><a xlink:href="xml_8h.html" target="_top" xlink:title="Classes providing support for XML data files. ">
<polygon fill="#ffffff" stroke="#000000" points="619.8052,-110.5 619.8052,-128.5 659.6968,-128.5 659.6968,-110.5 619.8052,-110.5"/>
<text text-anchor="middle" x="639.751" y="-116.5" font-family="Helvetica,sans-Serif" font-size="10.00" fill="#000000">xml.h</text>
</a>
</g>
</g>
<!-- Node31&#45;&gt;Node32 -->
<g id="edge20" class="edge">
<title>Node31&#45;&gt;Node32</title>
<path fill="none" stroke="#191970" d="M806.3556,-165.4926C772.8801,-157.2706 722.2591,-144.4488 669.7961,-129.1835"/>
<polygon fill="#191970" stroke="#191970" points="670.5632,-125.7612 659.9824,-126.3053 668.5931,-132.4782 670.5632,-125.7612"/>
</g>
<!-- Node32&#45;&gt;Node4 -->
<g id="edge21" class="edge">
<title>Node32&#45;&gt;Node4</title>
<path fill="none" stroke="#191970" d="M640.5766,-110.4179C641.2313,-103.2164 642.1695,-92.8962 642.9907,-83.8632"/>
<polygon fill="#191970" stroke="#191970" points="646.4876,-84.0553 643.9074,-73.7795 639.5163,-83.4215 646.4876,-84.0553"/>
</g>
<!-- Node32&#45;&gt;Node21 -->
<g id="edge22" class="edge">
<title>Node32&#45;&gt;Node21</title>
<path fill="none" stroke="#191970" d="M619.5392,-111.5025C596.8729,-102.5338 559.7964,-87.8633 533.0902,-77.2961"/>
<polygon fill="#191970" stroke="#191970" points="534.3524,-74.0316 523.7661,-73.6067 531.7769,-80.5405 534.3524,-74.0316"/>
</g>
<!-- Node34 -->
<g id="node16" class="node">
<title>Node34</title>
<g id="a_node16"><a xlink:href="Kinetics_8h.html" target="_top" xlink:title="Base class for kinetics managers and also contains the kineticsmgr module documentation (see Kinetics...">
<polygon fill="#ffffff" stroke="#000000" points="488.0737,-275.5 488.0737,-293.5 547.4282,-293.5 547.4282,-275.5 488.0737,-275.5"/>
<text text-anchor="middle" x="517.751" y="-281.5" font-family="Helvetica,sans-Serif" font-size="10.00" fill="#000000">Kinetics.h</text>
</a>
</g>
</g>
<!-- Node33&#45;&gt;Node34 -->
<g id="edge24" class="edge">
<title>Node33&#45;&gt;Node34</title>
<path fill="none" stroke="#191970" d="M522.7602,-330.4179C521.9746,-323.2164 520.8487,-312.8962 519.8633,-303.8632"/>
<polygon fill="#191970" stroke="#191970" points="523.3272,-303.3409 518.7633,-293.7795 516.3685,-304.1001 523.3272,-303.3409"/>
</g>
<!-- Node34&#45;&gt;Node2 -->
<g id="edge25" class="edge">
<title>Node34&#45;&gt;Node2</title>
<path fill="none" stroke="#191970" d="M539.383,-275.4179C560.7159,-266.4613 593.5389,-252.6806 617.6635,-242.552"/>
<polygon fill="#191970" stroke="#191970" points="619.2214,-245.6939 627.0869,-238.5956 616.5116,-239.2397 619.2214,-245.6939"/>
</g>
<!-- Node34&#45;&gt;Node21 -->
<g id="edge38" class="edge">
<title>Node34&#45;&gt;Node21</title>
<path fill="none" stroke="#191970" d="M488.0032,-281.3035C386.4032,-269.3042 64.73,-221.7954 162.751,-110 201.2805,-66.0561 359.9501,-80.8986 434.76,-73.881"/>
<polygon fill="#191970" stroke="#191970" points="435.2019,-77.3534 444.7383,-72.7373 434.4047,-70.3989 435.2019,-77.3534"/>
</g>
<!-- Node35 -->
<g id="node17" class="node">
<title>Node35</title>
<g id="a_node17"><a xlink:href="StoichManager_8h.html" target="_top" xlink:title="StoichManager.h">
<polygon fill="#ffffff" stroke="#000000" points="472.2241,-110.5 472.2241,-128.5 563.2778,-128.5 563.2778,-110.5 472.2241,-110.5"/>
<text text-anchor="middle" x="517.751" y="-116.5" font-family="Helvetica,sans-Serif" font-size="10.00" fill="#000000">StoichManager.h</text>
</a>
</g>
</g>
<!-- Node34&#45;&gt;Node35 -->
<g id="edge26" class="edge">
<title>Node34&#45;&gt;Node35</title>
<path fill="none" stroke="#191970" d="M517.751,-275.1561C517.751,-248.9504 517.751,-174.3557 517.751,-138.8021"/>
<polygon fill="#191970" stroke="#191970" points="521.2511,-138.7414 517.751,-128.7414 514.2511,-138.7414 521.2511,-138.7414"/>
</g>
<!-- Node37 -->
<g id="node19" class="node">
<title>Node37</title>
<g id="a_node19"><a xlink:href="Reaction_8h.html" target="_top" xlink:title="cantera/kinetics/Reaction.h">
<polygon fill="#ffffff" stroke="#000000" points="243.7192,-165.5 243.7192,-183.5 379.7827,-183.5 379.7827,-165.5 243.7192,-165.5"/>
<text text-anchor="middle" x="311.751" y="-171.5" font-family="Helvetica,sans-Serif" font-size="10.00" fill="#000000">cantera/kinetics/Reaction.h</text>
</a>
</g>
</g>
<!-- Node34&#45;&gt;Node37 -->
<g id="edge30" class="edge">
<title>Node34&#45;&gt;Node37</title>
<path fill="none" stroke="#191970" d="M500.8931,-275.4982C464.9805,-256.3216 380.7167,-211.3263 337.8248,-188.4229"/>
<polygon fill="#191970" stroke="#191970" points="339.3116,-185.2491 328.8418,-183.6261 336.0143,-191.4239 339.3116,-185.2491"/>
</g>
<!-- Node35&#45;&gt;Node4 -->
<g id="edge29" class="edge">
<title>Node35&#45;&gt;Node4</title>
<path fill="none" stroke="#191970" d="M538.7224,-110.4179C559.3121,-101.5011 590.9421,-87.803 614.3004,-77.6873"/>
<polygon fill="#191970" stroke="#191970" points="615.9628,-80.7815 623.7484,-73.5956 613.181,-74.358 615.9628,-80.7815"/>
</g>
<!-- Node36 -->
<g id="node18" class="node">
<title>Node36</title>
<g id="a_node18"><a xlink:href="stringUtils_8h.html" target="_top" xlink:title="Contains declarations for string manipulation functions within Cantera. ">
<polygon fill="#ffffff" stroke="#ff0000" points="298.335,-55.5 298.335,-73.5 427.167,-73.5 427.167,-55.5 298.335,-55.5"/>
<text text-anchor="middle" x="362.751" y="-61.5" font-family="Helvetica,sans-Serif" font-size="10.00" fill="#000000">cantera/base/stringUtils.h</text>
</a>
</g>
</g>
<!-- Node35&#45;&gt;Node36 -->
<g id="edge27" class="edge">
<title>Node35&#45;&gt;Node36</title>
<path fill="none" stroke="#191970" d="M492.1559,-110.4179C466.3889,-101.2748 426.4548,-87.1046 397.7642,-76.924"/>
<polygon fill="#191970" stroke="#191970" points="398.7212,-73.5499 388.1265,-73.5042 396.3803,-80.1469 398.7212,-73.5499"/>
</g>
<!-- Node36&#45;&gt;Node6 -->
<g id="edge28" class="edge">
<title>Node36&#45;&gt;Node6</title>
<path fill="none" stroke="#191970" d="M427.237,-56.1036C430.1143,-55.7304 432.9626,-55.3611 435.751,-55 550.1062,-40.1892 685.316,-22.7938 750.2117,-14.4519"/>
<polygon fill="#191970" stroke="#191970" points="750.9083,-17.8912 760.3805,-13.1449 750.0159,-10.9483 750.9083,-17.8912"/>
</g>
<!-- Node38 -->
<g id="node20" class="node">
<title>Node38</title>
<g id="a_node20"><a xlink:href="utilities_8h.html" target="_top" xlink:title="Various templated functions that carry out common vector operations (see Templated Utility Functions)...">
<polygon fill="#ffffff" stroke="#ff0000" points="0,-110.5 0,-128.5 115.502,-128.5 115.502,-110.5 0,-110.5"/>
<text text-anchor="middle" x="57.751" y="-116.5" font-family="Helvetica,sans-Serif" font-size="10.00" fill="#000000">cantera/base/utilities.h</text>
</a>
</g>
</g>
<!-- Node37&#45;&gt;Node38 -->
<g id="edge31" class="edge">
<title>Node37&#45;&gt;Node38</title>
<path fill="none" stroke="#191970" d="M270.0925,-165.4795C226.1674,-155.9681 156.8923,-140.9676 109.4939,-130.7042"/>
<polygon fill="#191970" stroke="#191970" points="109.9465,-127.2211 99.4322,-128.5255 108.465,-134.0626 109.9465,-127.2211"/>
</g>
<!-- Node41 -->
<g id="node21" class="node">
<title>Node41</title>
<g id="a_node21"><a xlink:href="RxnRates_8h.html" target="_top" xlink:title="cantera/kinetics/RxnRates.h">
<polygon fill="#ffffff" stroke="#ff0000" points="313.5,-110.5 313.5,-128.5 454.002,-128.5 454.002,-110.5 313.5,-110.5"/>
<text text-anchor="middle" x="383.751" y="-116.5" font-family="Helvetica,sans-Serif" font-size="10.00" fill="#000000">cantera/kinetics/RxnRates.h</text>
</a>
</g>
</g>
<!-- Node37&#45;&gt;Node41 -->
<g id="edge34" class="edge">
<title>Node37&#45;&gt;Node41</title>
<path fill="none" stroke="#191970" d="M323.6403,-165.4179C334.4145,-157.1876 350.5211,-144.8839 363.3507,-135.0836"/>
<polygon fill="#191970" stroke="#191970" points="365.7812,-137.6313 371.6033,-128.7795 361.5319,-132.0685 365.7812,-137.6313"/>
</g>
<!-- Node44 -->
<g id="node22" class="node">
<title>Node44</title>
<g id="a_node22"><a xlink:href="Falloff_8h_source.html" target="_top" xlink:title="cantera/kinetics/Falloff.h">
<polygon fill="#ffffff" stroke="#ff0000" points="171.9253,-110.5 171.9253,-128.5 295.5767,-128.5 295.5767,-110.5 171.9253,-110.5"/>
<text text-anchor="middle" x="233.751" y="-116.5" font-family="Helvetica,sans-Serif" font-size="10.00" fill="#000000">cantera/kinetics/Falloff.h</text>
</a>
</g>
</g>
<!-- Node37&#45;&gt;Node44 -->
<g id="edge37" class="edge">
<title>Node37&#45;&gt;Node44</title>
<path fill="none" stroke="#191970" d="M298.8709,-165.4179C287.0156,-157.0584 269.2007,-144.4966 255.1994,-134.6239"/>
<polygon fill="#191970" stroke="#191970" points="256.8398,-131.498 246.6502,-128.5956 252.8059,-137.2188 256.8398,-131.498"/>
</g>
<!-- Node38&#45;&gt;Node6 -->
<g id="edge32" class="edge">
<title>Node38&#45;&gt;Node6</title>
<path fill="none" stroke="#191970" d="M84.1793,-110.4664C126.8665,-96.2601 213.8807,-68.8884 289.751,-55 459.6147,-23.9057 666.0876,-13.6755 750.2567,-10.6489"/>
<polygon fill="#191970" stroke="#191970" points="750.4998,-14.1427 760.3728,-10.299 750.2578,-7.1469 750.4998,-14.1427"/>
</g>
<!-- Node38&#45;&gt;Node21 -->
<g id="edge33" class="edge">
<title>Node38&#45;&gt;Node21</title>
<path fill="none" stroke="#191970" d="M115.5104,-111.8063C120.3267,-111.1868 125.1218,-110.5777 129.751,-110 262.4502,-93.4405 298.3224,-91.9657 434.746,-74.1021"/>
<polygon fill="#191970" stroke="#191970" points="435.2867,-77.5612 444.745,-72.7871 434.374,-70.6209 435.2867,-77.5612"/>
</g>
<!-- Node41&#45;&gt;Node4 -->
<g id="edge35" class="edge">
<title>Node41&#45;&gt;Node4</title>
<path fill="none" stroke="#191970" d="M426.5576,-110.4795C471.7878,-100.9482 543.176,-85.9047 591.8881,-75.6397"/>
<polygon fill="#191970" stroke="#191970" points="592.8576,-79.0123 601.921,-73.5255 591.4142,-72.1628 592.8576,-79.0123"/>
</g>
<!-- Node41&#45;&gt;Node36 -->
<g id="edge36" class="edge">
<title>Node41&#45;&gt;Node36</title>
<path fill="none" stroke="#191970" d="M380.2833,-110.4179C377.4732,-103.0581 373.4194,-92.441 369.9175,-83.2695"/>
<polygon fill="#191970" stroke="#191970" points="373.1309,-81.8732 366.294,-73.7795 366.5914,-84.3701 373.1309,-81.8732"/>
</g>
</g>
</svg>
