<?xml version="1.0" encoding="UTF-8" standalone="no"?>
<!DOCTYPE svg PUBLIC "-//W3C//DTD SVG 1.1//EN"
 "http://www.w3.org/Graphics/SVG/1.1/DTD/svg11.dtd">
<!-- Generated by graphviz version 2.36.0 (20140111.2315)
 -->
<!-- Title: MetalSHEelectrons.cpp Pages: 1 -->
<svg width="560pt" height="364pt"
 viewBox="0.00 0.00 559.58 364.00" xmlns="http://www.w3.org/2000/svg" xmlns:xlink="http://www.w3.org/1999/xlink">
<g id="graph0" class="graph" transform="scale(1 1) rotate(0) translate(4 360)">
<title>MetalSHEelectrons.cpp</title>
<polygon fill="white" stroke="none" points="-4,4 -4,-360 555.575,-360 555.575,4 -4,4"/>
<!-- Node1 -->
<g id="node1" class="node"><title>Node1</title>
<polygon fill="#bfbfbf" stroke="black" points="116.075,-336.5 116.075,-355.5 233.075,-355.5 233.075,-336.5 116.075,-336.5"/>
<text text-anchor="middle" x="174.575" y="-343.5" font-family="FreeSans" font-size="10.00">MetalSHEelectrons.cpp</text>
</g>
<!-- Node2 -->
<g id="node2" class="node"><title>Node2</title>
<g id="a_node2"><a xlink:href="ct__defs_8h.html" target="_top" xlink:title="This file contains definitions of terms that are used in internal routines and are unlikely to need m...">
<polygon fill="white" stroke="black" points="110.575,-56.5 110.575,-75.5 224.575,-75.5 224.575,-56.5 110.575,-56.5"/>
<text text-anchor="middle" x="167.575" y="-63.5" font-family="FreeSans" font-size="10.00">cantera/base/ct_defs.h</text>
</a>
</g>
</g>
<!-- Node1&#45;&gt;Node2 -->
<g id="edge1" class="edge"><title>Node1&#45;&gt;Node2</title>
<path fill="none" stroke="midnightblue" d="M115.734,-341.446C83.4077,-336.5 44.8611,-325.239 19.5755,-300 -1.72636,-278.737 0.575452,-265.098 0.575452,-235 0.575452,-235 0.575452,-235 0.575452,-177 0.575452,-146.902 -1.5918,-133.397 19.5755,-112 40.8635,-90.4811 72.0952,-79.1877 100.388,-73.2871"/>
<polygon fill="midnightblue" stroke="midnightblue" points="101.079,-76.7186 110.252,-71.417 99.7749,-69.8411 101.079,-76.7186"/>
</g>
<!-- Node9 -->
<g id="node9" class="node"><title>Node9</title>
<g id="a_node9"><a xlink:href="MetalSHEelectrons_8h.html" target="_top" xlink:title="Header file for the MetalSHEElectrons class, which represents the electrons in a metal that are consi...">
<polygon fill="white" stroke="black" points="29.0755,-280.5 29.0755,-299.5 204.075,-299.5 204.075,-280.5 29.0755,-280.5"/>
<text text-anchor="middle" x="116.575" y="-287.5" font-family="FreeSans" font-size="10.00">cantera/thermo/MetalSHEelectrons.h</text>
</a>
</g>
</g>
<!-- Node1&#45;&gt;Node9 -->
<g id="edge8" class="edge"><title>Node1&#45;&gt;Node9</title>
<path fill="none" stroke="midnightblue" d="M165.257,-336.324C156.683,-328.341 143.763,-316.313 133.388,-306.653"/>
<polygon fill="midnightblue" stroke="midnightblue" points="135.768,-304.086 126.064,-299.834 130.998,-309.21 135.768,-304.086"/>
</g>
<!-- Node11 -->
<g id="node11" class="node"><title>Node11</title>
<g id="a_node11"><a xlink:href="SingleSpeciesTP_8h.html" target="_top" xlink:title="Header for the SingleSpeciesTP class, which is a filter class for ThermoPhase, that eases the constru...">
<polygon fill="white" stroke="black" points="123.575,-224.5 123.575,-243.5 221.575,-243.5 221.575,-224.5 123.575,-224.5"/>
<text text-anchor="middle" x="172.575" y="-231.5" font-family="FreeSans" font-size="10.00">SingleSpeciesTP.h</text>
</a>
</g>
</g>
<!-- Node1&#45;&gt;Node11 -->
<g id="edge15" class="edge"><title>Node1&#45;&gt;Node11</title>
<path fill="none" stroke="midnightblue" d="M185.784,-336.224C199.724,-324.163 220.751,-301.504 212.575,-280 208.24,-268.598 199.545,-258.239 191.366,-250.343"/>
<polygon fill="midnightblue" stroke="midnightblue" points="193.616,-247.66 183.841,-243.573 188.934,-252.863 193.616,-247.66"/>
</g>
<!-- Node15 -->
<g id="node15" class="node"><title>Node15</title>
<g id="a_node15"><a xlink:href="ThermoFactory_8h.html" target="_top" xlink:title="Headers for the factory class that can create known ThermoPhase objects (see Thermodynamic Properties...">
<polygon fill="white" stroke="black" points="254.575,-224.5 254.575,-243.5 412.575,-243.5 412.575,-224.5 254.575,-224.5"/>
<text text-anchor="middle" x="333.575" y="-231.5" font-family="FreeSans" font-size="10.00">cantera/thermo/ThermoFactory.h</text>
</a>
</g>
</g>
<!-- Node1&#45;&gt;Node15 -->
<g id="edge16" class="edge"><title>Node1&#45;&gt;Node15</title>
<path fill="none" stroke="midnightblue" d="M187.052,-336.368C214.22,-317.573 278.983,-272.768 312.568,-249.533"/>
<polygon fill="midnightblue" stroke="midnightblue" points="314.924,-252.159 321.157,-243.591 310.942,-246.403 314.924,-252.159"/>
</g>
<!-- Node3 -->
<g id="node3" class="node"><title>Node3</title>
<g id="a_node3"><a xlink:href="config_8h_source.html" target="_top" xlink:title="config.h">
<polygon fill="white" stroke="black" points="306.575,-0.5 306.575,-19.5 356.575,-19.5 356.575,-0.5 306.575,-0.5"/>
<text text-anchor="middle" x="331.575" y="-7.5" font-family="FreeSans" font-size="10.00">config.h</text>
</a>
</g>
</g>
<!-- Node2&#45;&gt;Node3 -->
<g id="edge2" class="edge"><title>Node2&#45;&gt;Node3</title>
<path fill="none" stroke="midnightblue" d="M193.562,-56.4435C221.516,-47.2391 266.107,-32.5568 297.005,-22.3829"/>
<polygon fill="midnightblue" stroke="midnightblue" points="298.114,-25.7028 306.517,-19.2508 295.924,-19.0539 298.114,-25.7028"/>
</g>
<!-- Node4 -->
<g id="node4" class="node"><title>Node4</title>
<polygon fill="white" stroke="#bfbfbf" points="54.5755,-0.5 54.5755,-19.5 98.5755,-19.5 98.5755,-0.5 54.5755,-0.5"/>
<text text-anchor="middle" x="76.5755" y="-7.5" font-family="FreeSans" font-size="10.00">cmath</text>
</g>
<!-- Node2&#45;&gt;Node4 -->
<g id="edge3" class="edge"><title>Node2&#45;&gt;Node4</title>
<path fill="none" stroke="midnightblue" d="M152.955,-56.324C138.627,-47.8215 116.563,-34.7288 99.8267,-24.7975"/>
<polygon fill="midnightblue" stroke="midnightblue" points="101.546,-21.7478 91.1599,-19.6545 97.9736,-27.7677 101.546,-21.7478"/>
</g>
<!-- Node5 -->
<g id="node5" class="node"><title>Node5</title>
<polygon fill="white" stroke="#bfbfbf" points="116.575,-0.5 116.575,-19.5 160.575,-19.5 160.575,-0.5 116.575,-0.5"/>
<text text-anchor="middle" x="138.575" y="-7.5" font-family="FreeSans" font-size="10.00">cstdlib</text>
</g>
<!-- Node2&#45;&gt;Node5 -->
<g id="edge4" class="edge"><title>Node2&#45;&gt;Node5</title>
<path fill="none" stroke="midnightblue" d="M162.787,-56.083C158.817,-48.6913 153.05,-37.9533 148.141,-28.8111"/>
<polygon fill="midnightblue" stroke="midnightblue" points="151.09,-26.9051 143.275,-19.7511 144.923,-30.217 151.09,-26.9051"/>
</g>
<!-- Node6 -->
<g id="node6" class="node"><title>Node6</title>
<polygon fill="white" stroke="#bfbfbf" points="415.075,-0.5 415.075,-19.5 458.075,-19.5 458.075,-0.5 415.075,-0.5"/>
<text text-anchor="middle" x="436.575" y="-7.5" font-family="FreeSans" font-size="10.00">vector</text>
</g>
<!-- Node2&#45;&gt;Node6 -->
<g id="edge5" class="edge"><title>Node2&#45;&gt;Node6</title>
<path fill="none" stroke="midnightblue" d="M210.199,-56.4435C264.441,-45.5549 356.869,-27.0005 405.131,-17.3123"/>
<polygon fill="midnightblue" stroke="midnightblue" points="405.893,-20.7292 415.009,-15.3294 404.516,-13.8661 405.893,-20.7292"/>
</g>
<!-- Node7 -->
<g id="node7" class="node"><title>Node7</title>
<polygon fill="white" stroke="#bfbfbf" points="179.075,-0.5 179.075,-19.5 214.075,-19.5 214.075,-0.5 179.075,-0.5"/>
<text text-anchor="middle" x="196.575" y="-7.5" font-family="FreeSans" font-size="10.00">map</text>
</g>
<!-- Node2&#45;&gt;Node7 -->
<g id="edge6" class="edge"><title>Node2&#45;&gt;Node7</title>
<path fill="none" stroke="midnightblue" d="M172.364,-56.083C176.334,-48.6913 182.101,-37.9533 187.01,-28.8111"/>
<polygon fill="midnightblue" stroke="midnightblue" points="190.228,-30.217 191.876,-19.7511 184.061,-26.9051 190.228,-30.217"/>
</g>
<!-- Node8 -->
<g id="node8" class="node"><title>Node8</title>
<polygon fill="white" stroke="#bfbfbf" points="232.575,-0.5 232.575,-19.5 272.575,-19.5 272.575,-0.5 232.575,-0.5"/>
<text text-anchor="middle" x="252.575" y="-7.5" font-family="FreeSans" font-size="10.00">string</text>
</g>
<!-- Node2&#45;&gt;Node8 -->
<g id="edge7" class="edge"><title>Node2&#45;&gt;Node8</title>
<path fill="none" stroke="midnightblue" d="M181.232,-56.324C194.492,-47.9002 214.843,-34.9709 230.422,-25.0741"/>
<polygon fill="midnightblue" stroke="midnightblue" points="232.389,-27.9711 238.953,-19.6545 228.635,-22.0626 232.389,-27.9711"/>
</g>
<!-- Node10 -->
<g id="node10" class="node"><title>Node10</title>
<g id="a_node10"><a xlink:href="mix__defs_8h.html" target="_top" xlink:title="mix_defs.h">
<polygon fill="white" stroke="black" points="43.5755,-224.5 43.5755,-243.5 105.575,-243.5 105.575,-224.5 43.5755,-224.5"/>
<text text-anchor="middle" x="74.5755" y="-231.5" font-family="FreeSans" font-size="10.00">mix_defs.h</text>
</a>
</g>
</g>
<!-- Node9&#45;&gt;Node10 -->
<g id="edge9" class="edge"><title>Node9&#45;&gt;Node10</title>
<path fill="none" stroke="midnightblue" d="M109.64,-280.083C103.646,-272.377 94.8236,-261.033 87.5278,-251.653"/>
<polygon fill="midnightblue" stroke="midnightblue" points="90.284,-249.496 81.3818,-243.751 84.7586,-253.793 90.284,-249.496"/>
</g>
<!-- Node9&#45;&gt;Node11 -->
<g id="edge10" class="edge"><title>Node9&#45;&gt;Node11</title>
<path fill="none" stroke="midnightblue" d="M125.573,-280.324C133.77,-272.42 146.081,-260.548 156.047,-250.938"/>
<polygon fill="midnightblue" stroke="midnightblue" points="158.645,-253.295 163.414,-243.834 153.786,-248.256 158.645,-253.295"/>
</g>
<!-- Node12 -->
<g id="node12" class="node"><title>Node12</title>
<g id="a_node12"><a xlink:href="ThermoPhase_8h.html" target="_top" xlink:title="Header file for class ThermoPhase, the base class for phases with thermodynamic properties, and the text for the Module thermoprops (see Thermodynamic Properties and class ThermoPhase). ">
<polygon fill="white" stroke="black" points="116.575,-168.5 116.575,-187.5 200.575,-187.5 200.575,-168.5 116.575,-168.5"/>
<text text-anchor="middle" x="158.575" y="-175.5" font-family="FreeSans" font-size="10.00">ThermoPhase.h</text>
</a>
</g>
</g>
<!-- Node11&#45;&gt;Node12 -->
<g id="edge11" class="edge"><title>Node11&#45;&gt;Node12</title>
<path fill="none" stroke="midnightblue" d="M170.264,-224.083C168.408,-216.927 165.74,-206.635 163.421,-197.691"/>
<polygon fill="midnightblue" stroke="midnightblue" points="166.742,-196.553 160.844,-187.751 159.966,-198.309 166.742,-196.553"/>
</g>
<!-- Node13 -->
<g id="node13" class="node"><title>Node13</title>
<g id="a_node13"><a xlink:href="Phase_8h.html" target="_top" xlink:title="Header file for class Phase. ">
<polygon fill="white" stroke="red" points="29.0755,-112.5 29.0755,-131.5 80.0755,-131.5 80.0755,-112.5 29.0755,-112.5"/>
<text text-anchor="middle" x="54.5755" y="-119.5" font-family="FreeSans" font-size="10.00">Phase.h</text>
</a>
</g>
</g>
<!-- Node12&#45;&gt;Node13 -->
<g id="edge12" class="edge"><title>Node12&#45;&gt;Node13</title>
<path fill="none" stroke="midnightblue" d="M141.866,-168.324C125.264,-159.703 99.5733,-146.364 80.355,-136.386"/>
<polygon fill="midnightblue" stroke="midnightblue" points="81.7312,-133.156 71.2434,-131.655 78.5055,-139.369 81.7312,-133.156"/>
</g>
<!-- Node14 -->
<g id="node14" class="node"><title>Node14</title>
<g id="a_node14"><a xlink:href="SpeciesThermo_8h.html" target="_top" xlink:title="Virtual base class for the calculation of multiple&#45;species thermodynamic reference&#45;state property man...">
<polygon fill="white" stroke="black" points="98.5755,-112.5 98.5755,-131.5 190.575,-131.5 190.575,-112.5 98.5755,-112.5"/>
<text text-anchor="middle" x="144.575" y="-119.5" font-family="FreeSans" font-size="10.00">SpeciesThermo.h</text>
</a>
</g>
</g>
<!-- Node12&#45;&gt;Node14 -->
<g id="edge13" class="edge"><title>Node12&#45;&gt;Node14</title>
<path fill="none" stroke="midnightblue" d="M156.264,-168.083C154.408,-160.927 151.74,-150.635 149.421,-141.691"/>
<polygon fill="midnightblue" stroke="midnightblue" points="152.742,-140.553 146.844,-131.751 145.966,-142.309 152.742,-140.553"/>
</g>
<!-- Node14&#45;&gt;Node2 -->
<g id="edge14" class="edge"><title>Node14&#45;&gt;Node2</title>
<path fill="none" stroke="midnightblue" d="M148.373,-112.083C151.488,-104.77 155.998,-94.1814 159.865,-85.1034"/>
<polygon fill="midnightblue" stroke="midnightblue" points="163.15,-86.3229 163.848,-75.7511 156.709,-83.5798 163.15,-86.3229"/>
</g>
<!-- Node15&#45;&gt;Node12 -->
<g id="edge17" class="edge"><title>Node15&#45;&gt;Node12</title>
<path fill="none" stroke="midnightblue" d="M305.846,-224.444C276.15,-215.28 228.859,-200.688 195.906,-190.519"/>
<polygon fill="midnightblue" stroke="midnightblue" points="196.762,-187.121 186.175,-187.516 194.698,-193.809 196.762,-187.121"/>
</g>
<!-- Node16 -->
<g id="node16" class="node"><title>Node16</title>
<g id="a_node16"><a xlink:href="xml_8h.html" target="_top" xlink:title="Classes providing support for XML data files. ">
<polygon fill="white" stroke="red" points="413.075,-168.5 413.075,-187.5 452.075,-187.5 452.075,-168.5 413.075,-168.5"/>
<text text-anchor="middle" x="432.575" y="-175.5" font-family="FreeSans" font-size="10.00">xml.h</text>
</a>
</g>
</g>
<!-- Node15&#45;&gt;Node16 -->
<g id="edge18" class="edge"><title>Node15&#45;&gt;Node16</title>
<path fill="none" stroke="midnightblue" d="M349.482,-224.324C365.214,-215.743 389.518,-202.486 407.784,-192.522"/>
<polygon fill="midnightblue" stroke="midnightblue" points="409.606,-195.516 416.709,-187.655 406.254,-189.37 409.606,-195.516"/>
</g>
<!-- Node17 -->
<g id="node17" class="node"><title>Node17</title>
<g id="a_node17"><a xlink:href="ct__thread_8h.html" target="_top" xlink:title="cantera/base/ct_thread.h">
<polygon fill="white" stroke="black" points="272.075,-168.5 272.075,-187.5 395.075,-187.5 395.075,-168.5 272.075,-168.5"/>
<text text-anchor="middle" x="333.575" y="-175.5" font-family="FreeSans" font-size="10.00">cantera/base/ct_thread.h</text>
</a>
</g>
</g>
<!-- Node15&#45;&gt;Node17 -->
<g id="edge19" class="edge"><title>Node15&#45;&gt;Node17</title>
<path fill="none" stroke="midnightblue" d="M333.575,-224.083C333.575,-217.006 333.575,-206.861 333.575,-197.986"/>
<polygon fill="midnightblue" stroke="midnightblue" points="337.076,-197.751 333.575,-187.751 330.076,-197.751 337.076,-197.751"/>
</g>
<!-- Node20 -->
<g id="node20" class="node"><title>Node20</title>
<g id="a_node20"><a xlink:href="FactoryBase_8h.html" target="_top" xlink:title="File contains the FactoryBase class declarations. ">
<polygon fill="white" stroke="black" points="415.075,-56.5 415.075,-75.5 552.075,-75.5 552.075,-56.5 415.075,-56.5"/>
<text text-anchor="middle" x="483.575" y="-63.5" font-family="FreeSans" font-size="10.00">cantera/base/FactoryBase.h</text>
</a>
</g>
</g>
<!-- Node15&#45;&gt;Node20 -->
<g id="edge23" class="edge"><title>Node15&#45;&gt;Node20</title>
<path fill="none" stroke="midnightblue" d="M379.474,-224.445C405.357,-217.843 437.107,-206.593 460.575,-188 483.767,-169.626 488.238,-160.389 496.575,-132 501.182,-116.317 496.675,-98.0284 491.75,-84.8527"/>
<polygon fill="midnightblue" stroke="midnightblue" points="494.945,-83.4213 487.876,-75.5297 488.481,-86.1073 494.945,-83.4213"/>
</g>
<!-- Node17&#45;&gt;Node3 -->
<g id="edge20" class="edge"><title>Node17&#45;&gt;Node3</title>
<path fill="none" stroke="midnightblue" d="M333.824,-168.374C334.072,-159.316 334.435,-144.659 334.575,-132 334.979,-95.7049 333.472,-53.3008 332.449,-29.5561"/>
<polygon fill="midnightblue" stroke="midnightblue" points="335.943,-29.3394 331.996,-19.5071 328.95,-29.6545 335.943,-29.3394"/>
</g>
<!-- Node18 -->
<g id="node18" class="node"><title>Node18</title>
<polygon fill="white" stroke="#bfbfbf" points="382.575,-112.5 382.575,-131.5 488.575,-131.5 488.575,-112.5 382.575,-112.5"/>
<text text-anchor="middle" x="435.575" y="-119.5" font-family="FreeSans" font-size="10.00">boost/shared_ptr.hpp</text>
</g>
<!-- Node17&#45;&gt;Node18 -->
<g id="edge21" class="edge"><title>Node17&#45;&gt;Node18</title>
<path fill="none" stroke="midnightblue" d="M349.964,-168.324C366.247,-159.703 391.443,-146.364 410.292,-136.386"/>
<polygon fill="midnightblue" stroke="midnightblue" points="412.028,-139.427 419.228,-131.655 408.753,-133.24 412.028,-139.427"/>
</g>
<!-- Node19 -->
<g id="node19" class="node"><title>Node19</title>
<polygon fill="white" stroke="#bfbfbf" points="209.075,-112.5 209.075,-131.5 326.075,-131.5 326.075,-112.5 209.075,-112.5"/>
<text text-anchor="middle" x="267.575" y="-119.5" font-family="FreeSans" font-size="10.00">boost/thread/mutex.hpp</text>
</g>
<!-- Node17&#45;&gt;Node19 -->
<g id="edge22" class="edge"><title>Node17&#45;&gt;Node19</title>
<path fill="none" stroke="midnightblue" d="M322.971,-168.324C313.119,-160.263 298.225,-148.077 286.36,-138.369"/>
<polygon fill="midnightblue" stroke="midnightblue" points="288.328,-135.457 278.372,-131.834 283.896,-140.875 288.328,-135.457"/>
</g>
<!-- Node20&#45;&gt;Node6 -->
<g id="edge24" class="edge"><title>Node20&#45;&gt;Node6</title>
<path fill="none" stroke="midnightblue" d="M475.814,-56.083C469.039,-48.2982 459.032,-36.8015 450.82,-27.3665"/>
<polygon fill="midnightblue" stroke="midnightblue" points="453.397,-24.9963 444.192,-19.7511 448.117,-29.592 453.397,-24.9963"/>
</g>
</g>
</svg>
