<?xml version="1.0" encoding="UTF-8" standalone="no"?>
<!DOCTYPE svg PUBLIC "-//W3C//DTD SVG 1.1//EN"
 "http://www.w3.org/Graphics/SVG/1.1/DTD/svg11.dtd">
<!-- Generated by graphviz version 2.36.0 (20140111.2315)
 -->
<!-- Title: MineralEQ3.h Pages: 1 -->
<svg width="587pt" height="364pt"
 viewBox="0.00 0.00 586.77 364.00" xmlns="http://www.w3.org/2000/svg" xmlns:xlink="http://www.w3.org/1999/xlink">
<g id="graph0" class="graph" transform="scale(1 1) rotate(0) translate(4 360)">
<title>MineralEQ3.h</title>
<polygon fill="white" stroke="none" points="-4,4 -4,-360 582.766,-360 582.766,4 -4,4"/>
<!-- Node1 -->
<g id="node1" class="node"><title>Node1</title>
<polygon fill="#bfbfbf" stroke="black" points="314,-336.5 314,-355.5 388,-355.5 388,-336.5 314,-336.5"/>
<text text-anchor="middle" x="351" y="-343.5" font-family="FreeSans" font-size="10.00">MineralEQ3.h</text>
</g>
<!-- Node2 -->
<g id="node2" class="node"><title>Node2</title>
<g id="a_node2"><a xlink:href="mix__defs_8h.html" target="_top" xlink:title="mix_defs.h">
<polygon fill="white" stroke="black" points="238,-224.5 238,-243.5 300,-243.5 300,-224.5 238,-224.5"/>
<text text-anchor="middle" x="269" y="-231.5" font-family="FreeSans" font-size="10.00">mix_defs.h</text>
</a>
</g>
</g>
<!-- Node1&#45;&gt;Node2 -->
<g id="edge1" class="edge"><title>Node1&#45;&gt;Node2</title>
<path fill="none" stroke="midnightblue" d="M344.566,-336.368C330.973,-318.135 299.136,-275.426 281.431,-251.675"/>
<polygon fill="midnightblue" stroke="midnightblue" points="284.187,-249.517 275.405,-243.591 278.575,-253.701 284.187,-249.517"/>
</g>
<!-- Node3 -->
<g id="node3" class="node"><title>Node3</title>
<g id="a_node3"><a xlink:href="SingleSpeciesTP_8h.html" target="_top" xlink:title="Header for the SingleSpeciesTP class, which is a filter class for ThermoPhase, that eases the constru...">
<polygon fill="white" stroke="black" points="320,-224.5 320,-243.5 418,-243.5 418,-224.5 320,-224.5"/>
<text text-anchor="middle" x="369" y="-231.5" font-family="FreeSans" font-size="10.00">SingleSpeciesTP.h</text>
</a>
</g>
</g>
<!-- Node1&#45;&gt;Node3 -->
<g id="edge2" class="edge"><title>Node1&#45;&gt;Node3</title>
<path fill="none" stroke="midnightblue" d="M342.955,-336.154C332.593,-323.633 316.833,-300.034 325,-280 329.8,-268.225 339.329,-257.856 348.295,-250.049"/>
<polygon fill="midnightblue" stroke="midnightblue" points="350.65,-252.645 356.219,-243.631 346.245,-247.205 350.65,-252.645"/>
</g>
<!-- Node11 -->
<g id="node11" class="node"><title>Node11</title>
<g id="a_node11"><a xlink:href="SpeciesThermo_8h.html" target="_top" xlink:title="Virtual base class for the calculation of multiple&#45;species thermodynamic reference&#45;state property man...">
<polygon fill="white" stroke="black" points="423,-112.5 423,-131.5 515,-131.5 515,-112.5 423,-112.5"/>
<text text-anchor="middle" x="469" y="-119.5" font-family="FreeSans" font-size="10.00">SpeciesThermo.h</text>
</a>
</g>
</g>
<!-- Node1&#45;&gt;Node11 -->
<g id="edge15" class="edge"><title>Node1&#45;&gt;Node11</title>
<path fill="none" stroke="midnightblue" d="M388.211,-341.152C414.67,-336.266 448.503,-325.175 466,-300 499.712,-251.495 484.495,-176.054 474.816,-141.463"/>
<polygon fill="midnightblue" stroke="midnightblue" points="478.135,-140.346 471.937,-131.754 471.424,-142.336 478.135,-140.346"/>
</g>
<!-- Node12 -->
<g id="node12" class="node"><title>Node12</title>
<g id="a_node12"><a xlink:href="StoichSubstanceSSTP_8h.html" target="_top" xlink:title="Header file for the StoichSubstanceSSTP class, which represents a fixed&#45;composition incompressible su...">
<polygon fill="white" stroke="black" points="334,-280.5 334,-299.5 458,-299.5 458,-280.5 334,-280.5"/>
<text text-anchor="middle" x="396" y="-287.5" font-family="FreeSans" font-size="10.00">StoichSubstanceSSTP.h</text>
</a>
</g>
</g>
<!-- Node1&#45;&gt;Node12 -->
<g id="edge16" class="edge"><title>Node1&#45;&gt;Node12</title>
<path fill="none" stroke="midnightblue" d="M358.431,-336.083C364.853,-328.377 374.306,-317.033 382.122,-307.653"/>
<polygon fill="midnightblue" stroke="midnightblue" points="384.994,-309.674 388.707,-299.751 379.617,-305.193 384.994,-309.674"/>
</g>
<!-- Node4 -->
<g id="node4" class="node"><title>Node4</title>
<g id="a_node4"><a xlink:href="ThermoPhase_8h.html" target="_top" xlink:title="Header file for class ThermoPhase, the base class for phases with thermodynamic properties, and the text for the Module thermoprops (see Thermodynamic Properties and class ThermoPhase). ">
<polygon fill="white" stroke="black" points="327,-168.5 327,-187.5 411,-187.5 411,-168.5 327,-168.5"/>
<text text-anchor="middle" x="369" y="-175.5" font-family="FreeSans" font-size="10.00">ThermoPhase.h</text>
</a>
</g>
</g>
<!-- Node3&#45;&gt;Node4 -->
<g id="edge3" class="edge"><title>Node3&#45;&gt;Node4</title>
<path fill="none" stroke="midnightblue" d="M369,-224.083C369,-217.006 369,-206.861 369,-197.986"/>
<polygon fill="midnightblue" stroke="midnightblue" points="372.5,-197.751 369,-187.751 365.5,-197.751 372.5,-197.751"/>
</g>
<!-- Node5 -->
<g id="node5" class="node"><title>Node5</title>
<g id="a_node5"><a xlink:href="Phase_8h.html" target="_top" xlink:title="Header file for class Phase. ">
<polygon fill="white" stroke="black" points="337.5,-112.5 337.5,-131.5 388.5,-131.5 388.5,-112.5 337.5,-112.5"/>
<text text-anchor="middle" x="363" y="-119.5" font-family="FreeSans" font-size="10.00">Phase.h</text>
</a>
</g>
</g>
<!-- Node4&#45;&gt;Node5 -->
<g id="edge4" class="edge"><title>Node4&#45;&gt;Node5</title>
<path fill="none" stroke="midnightblue" d="M368.009,-168.083C367.214,-160.927 366.071,-150.635 365.077,-141.691"/>
<polygon fill="midnightblue" stroke="midnightblue" points="368.555,-141.303 363.972,-131.751 361.598,-142.076 368.555,-141.303"/>
</g>
<!-- Node4&#45;&gt;Node11 -->
<g id="edge13" class="edge"><title>Node4&#45;&gt;Node11</title>
<path fill="none" stroke="midnightblue" d="M385.067,-168.324C400.958,-159.743 425.507,-146.486 443.958,-136.522"/>
<polygon fill="midnightblue" stroke="midnightblue" points="445.837,-139.486 452.973,-131.655 442.511,-133.326 445.837,-139.486"/>
</g>
<!-- Node6 -->
<g id="node6" class="node"><title>Node6</title>
<g id="a_node6"><a xlink:href="vec__functions_8h.html" target="_top" xlink:title="Templates for operations on vector&#45;like objects. ">
<polygon fill="white" stroke="red" points="152,-56.5 152,-75.5 294,-75.5 294,-56.5 152,-56.5"/>
<text text-anchor="middle" x="223" y="-63.5" font-family="FreeSans" font-size="10.00">cantera/base/vec_functions.h</text>
</a>
</g>
</g>
<!-- Node5&#45;&gt;Node6 -->
<g id="edge5" class="edge"><title>Node5&#45;&gt;Node6</title>
<path fill="none" stroke="midnightblue" d="M340.817,-112.444C317.572,-103.478 280.851,-89.314 254.585,-79.1827"/>
<polygon fill="midnightblue" stroke="midnightblue" points="255.669,-75.8497 245.08,-75.5164 253.15,-82.3807 255.669,-75.8497"/>
</g>
<!-- Node8 -->
<g id="node8" class="node"><title>Node8</title>
<g id="a_node8"><a xlink:href="ctml_8h.html" target="_top" xlink:title="CTML (&quot;Cantera Markup Language&quot;) is the variant of XML that Cantera uses to store data...">
<polygon fill="white" stroke="red" points="312.5,-56.5 312.5,-75.5 413.5,-75.5 413.5,-56.5 312.5,-56.5"/>
<text text-anchor="middle" x="363" y="-63.5" font-family="FreeSans" font-size="10.00">cantera/base/ctml.h</text>
</a>
</g>
</g>
<!-- Node5&#45;&gt;Node8 -->
<g id="edge7" class="edge"><title>Node5&#45;&gt;Node8</title>
<path fill="none" stroke="midnightblue" d="M363,-112.083C363,-105.006 363,-94.8611 363,-85.9865"/>
<polygon fill="midnightblue" stroke="midnightblue" points="366.5,-85.751 363,-75.7511 359.5,-85.7511 366.5,-85.751"/>
</g>
<!-- Node9 -->
<g id="node9" class="node"><title>Node9</title>
<g id="a_node9"><a xlink:href="Elements_8h.html" target="_top" xlink:title="Contains the LookupWtElements function and the definitions of element constraint types. ">
<polygon fill="white" stroke="black" points="432,-56.5 432,-75.5 564,-75.5 564,-56.5 432,-56.5"/>
<text text-anchor="middle" x="498" y="-63.5" font-family="FreeSans" font-size="10.00">cantera/thermo/Elements.h</text>
</a>
</g>
</g>
<!-- Node5&#45;&gt;Node9 -->
<g id="edge9" class="edge"><title>Node5&#45;&gt;Node9</title>
<path fill="none" stroke="midnightblue" d="M384.391,-112.444C406.707,-103.517 441.903,-89.4387 467.208,-79.3168"/>
<polygon fill="midnightblue" stroke="midnightblue" points="468.724,-82.4801 476.709,-75.5164 466.124,-75.9807 468.724,-82.4801"/>
</g>
<!-- Node10 -->
<g id="node10" class="node"><title>Node10</title>
<g id="a_node10"><a xlink:href="ValueCache_8h.html" target="_top" xlink:title="cantera/base/ValueCache.h">
<polygon fill="white" stroke="red" points="0,-56.5 0,-75.5 134,-75.5 134,-56.5 0,-56.5"/>
<text text-anchor="middle" x="67" y="-63.5" font-family="FreeSans" font-size="10.00">cantera/base/ValueCache.h</text>
</a>
</g>
</g>
<!-- Node5&#45;&gt;Node10 -->
<g id="edge11" class="edge"><title>Node5&#45;&gt;Node10</title>
<path fill="none" stroke="midnightblue" d="M337.25,-116.302C289.92,-107.668 188.07,-89.0872 123.808,-77.3636"/>
<polygon fill="midnightblue" stroke="midnightblue" points="124.297,-73.8951 113.831,-75.5435 123.041,-80.7815 124.297,-73.8951"/>
</g>
<!-- Node7 -->
<g id="node7" class="node"><title>Node7</title>
<g id="a_node7"><a xlink:href="ct__defs_8h.html" target="_top" xlink:title="This file contains definitions of terms that are used in internal routines and are unlikely to need m...">
<polygon fill="white" stroke="red" points="335,-0.5 335,-19.5 391,-19.5 391,-0.5 335,-0.5"/>
<text text-anchor="middle" x="363" y="-7.5" font-family="FreeSans" font-size="10.00">ct_defs.h</text>
</a>
</g>
</g>
<!-- Node6&#45;&gt;Node7 -->
<g id="edge6" class="edge"><title>Node6&#45;&gt;Node7</title>
<path fill="none" stroke="midnightblue" d="M245.183,-56.4435C268.428,-47.4776 305.149,-33.314 331.415,-23.1827"/>
<polygon fill="midnightblue" stroke="midnightblue" points="332.85,-26.3807 340.92,-19.5164 330.331,-19.8497 332.85,-26.3807"/>
</g>
<!-- Node8&#45;&gt;Node7 -->
<g id="edge8" class="edge"><title>Node8&#45;&gt;Node7</title>
<path fill="none" stroke="midnightblue" d="M363,-56.083C363,-49.0059 363,-38.8611 363,-29.9865"/>
<polygon fill="midnightblue" stroke="midnightblue" points="366.5,-29.751 363,-19.7511 359.5,-29.7511 366.5,-29.751"/>
</g>
<!-- Node9&#45;&gt;Node7 -->
<g id="edge10" class="edge"><title>Node9&#45;&gt;Node7</title>
<path fill="none" stroke="midnightblue" d="M476.609,-56.4435C454.293,-47.5171 419.097,-33.4387 393.792,-23.3168"/>
<polygon fill="midnightblue" stroke="midnightblue" points="394.876,-19.9807 384.291,-19.5164 392.276,-26.4801 394.876,-19.9807"/>
</g>
<!-- Node10&#45;&gt;Node7 -->
<g id="edge12" class="edge"><title>Node10&#45;&gt;Node7</title>
<path fill="none" stroke="midnightblue" d="M113.902,-56.4435C172.251,-45.7989 270.757,-27.8281 324.758,-17.9766"/>
<polygon fill="midnightblue" stroke="midnightblue" points="325.412,-21.4151 334.621,-16.1772 324.156,-14.5288 325.412,-21.4151"/>
</g>
<!-- Node11&#45;&gt;Node7 -->
<g id="edge14" class="edge"><title>Node11&#45;&gt;Node7</title>
<path fill="none" stroke="midnightblue" d="M507.8,-112.464C545.798,-102.31 595.02,-83.238 573,-56 551.804,-29.7811 455.757,-18.1489 401.19,-13.5788"/>
<polygon fill="midnightblue" stroke="midnightblue" points="401.434,-10.0873 391.188,-12.7812 400.878,-17.0651 401.434,-10.0873"/>
</g>
<!-- Node12&#45;&gt;Node2 -->
<g id="edge17" class="edge"><title>Node12&#45;&gt;Node2</title>
<path fill="none" stroke="midnightblue" d="M375.876,-280.444C354.976,-271.557 322.065,-257.563 298.284,-247.451"/>
<polygon fill="midnightblue" stroke="midnightblue" points="299.602,-244.208 289.029,-243.516 296.862,-250.65 299.602,-244.208"/>
</g>
<!-- Node12&#45;&gt;Node3 -->
<g id="edge18" class="edge"><title>Node12&#45;&gt;Node3</title>
<path fill="none" stroke="midnightblue" d="M391.541,-280.083C387.846,-272.691 382.477,-261.953 377.906,-252.811"/>
<polygon fill="midnightblue" stroke="midnightblue" points="380.978,-251.13 373.376,-243.751 374.717,-254.261 380.978,-251.13"/>
</g>
<!-- Node12&#45;&gt;Node11 -->
<g id="edge19" class="edge"><title>Node12&#45;&gt;Node11</title>
<path fill="none" stroke="midnightblue" d="M402.652,-280.427C409.231,-271.65 419.267,-257.43 426,-244 443.424,-209.246 457.062,-165.695 463.988,-141.457"/>
<polygon fill="midnightblue" stroke="midnightblue" points="467.448,-142.079 466.761,-131.506 460.705,-140.199 467.448,-142.079"/>
</g>
</g>
</svg>
