<?xml version="1.0" encoding="UTF-8" standalone="no"?>
<!DOCTYPE svg PUBLIC "-//W3C//DTD SVG 1.1//EN"
 "http://www.w3.org/Graphics/SVG/1.1/DTD/svg11.dtd">
<!-- Generated by graphviz version 2.28.0 (20120425.2022)
 -->
<!-- Title: MixTransport.cpp Pages: 1 -->
<svg width="1252pt" height="780pt"
 viewBox="0.00 0.00 1252.00 780.00" xmlns="http://www.w3.org/2000/svg" xmlns:xlink="http://www.w3.org/1999/xlink">
<g id="graph1" class="graph" transform="scale(1 1) rotate(0) translate(4 776)">
<title>MixTransport.cpp</title>
<polygon fill="white" stroke="white" points="-4,5 -4,-776 1249,-776 1249,5 -4,5"/>
<!-- Node1 -->
<g id="node1" class="node"><title>Node1</title>
<polygon fill="#bfbfbf" stroke="black" points="742.5,-752.5 742.5,-771.5 835.5,-771.5 835.5,-752.5 742.5,-752.5"/>
<text text-anchor="middle" x="789" y="-759.5" font-family="FreeSans" font-size="10.00">MixTransport.cpp</text>
</g>
<!-- Node2 -->
<g id="node3" class="node"><title>Node2</title>
<a xlink:href="ThermoPhase_8h.html" target="_top" xlink:title="Header file for class ThermoPhase, the base class for phases with thermodynamic properties, and the text for the Module thermoprops (see Thermodynamic Properties and class ThermoPhase). ">
<polygon fill="white" stroke="black" points="791,-336.5 791,-355.5 951,-355.5 951,-336.5 791,-336.5"/>
<text text-anchor="middle" x="871" y="-343.5" font-family="FreeSans" font-size="10.00">cantera/thermo/ThermoPhase.h</text>
</a>
</g>
<!-- Node1&#45;&gt;Node2 -->
<g id="edge2" class="edge"><title>Node1&#45;&gt;Node2</title>
<path fill="none" stroke="midnightblue" d="M835.66,-758.021C905.982,-750.723 1031,-725.574 1031,-639 1031,-639 1031,-639 1031,-581 1031,-487.962 1002.48,-461.827 941,-392 929.442,-378.873 913.161,-368.098 899.209,-360.386"/>
<polygon fill="midnightblue" stroke="midnightblue" points="900.488,-357.104 890.008,-355.545 897.228,-363.299 900.488,-357.104"/>
</g>
<!-- Node9 -->
<g id="node17" class="node"><title>Node9</title>
<a xlink:href="utilities_8h.html" target="_top" xlink:title="Various templated functions that carry out common vector operations (see Templated Utility Functions)...">
<polygon fill="white" stroke="black" points="394,-112.5 394,-131.5 448,-131.5 448,-112.5 394,-112.5"/>
<text text-anchor="middle" x="421" y="-119.5" font-family="FreeSans" font-size="10.00">utilities.h</text>
</a>
</g>
<!-- Node1&#45;&gt;Node9 -->
<g id="edge72" class="edge"><title>Node1&#45;&gt;Node9</title>
<path fill="none" stroke="midnightblue" d="M742.299,-758.742C572.807,-749.936 0,-714.584 0,-639 0,-639 0,-639 0,-525 0,-310.295 289.955,-175.087 388.599,-135.301"/>
<polygon fill="midnightblue" stroke="midnightblue" points="390.065,-138.485 398.066,-131.54 387.481,-131.979 390.065,-138.485"/>
</g>
<!-- Node20 -->
<g id="node48" class="node"><title>Node20</title>
<a xlink:href="MixTransport_8h.html" target="_top" xlink:title="Headers for the MixTransport object, which models transport properties in ideal gas solutions using a...">
<polygon fill="white" stroke="black" points="765.5,-516.5 765.5,-535.5 926.5,-535.5 926.5,-516.5 765.5,-516.5"/>
<text text-anchor="middle" x="846" y="-523.5" font-family="FreeSans" font-size="10.00">cantera/transport/MixTransport.h</text>
</a>
</g>
<!-- Node1&#45;&gt;Node20 -->
<g id="edge56" class="edge"><title>Node1&#45;&gt;Node20</title>
<path fill="none" stroke="midnightblue" d="M791.096,-752.394C799.352,-718.502 829.739,-593.756 841.401,-545.88"/>
<polygon fill="midnightblue" stroke="midnightblue" points="844.858,-546.478 843.824,-535.934 838.056,-544.821 844.858,-546.478"/>
</g>
<!-- Node24 -->
<g id="node61" class="node"><title>Node24</title>
<a xlink:href="TransportParams_8h.html" target="_top" xlink:title="Class that holds the data that is read in from the xml file, and which is used for processing of the ...">
<polygon fill="white" stroke="black" points="457.5,-449 457.5,-479 594.5,-479 594.5,-449 457.5,-449"/>
<text text-anchor="start" x="465.5" y="-467" font-family="FreeSans" font-size="10.00">cantera/transport/Transport</text>
<text text-anchor="middle" x="526" y="-456" font-family="FreeSans" font-size="10.00">Params.h</text>
</a>
</g>
<!-- Node1&#45;&gt;Node24 -->
<g id="edge74" class="edge"><title>Node1&#45;&gt;Node24</title>
<path fill="none" stroke="midnightblue" d="M742.301,-757.043C673.13,-750.598 547.277,-736.464 507,-716 426.027,-674.86 437.511,-622.47 362,-572 327.551,-548.975 298.956,-570.496 276,-536 271.075,-528.6 270.378,-522.885 276,-516 297.376,-489.823 382.086,-476.733 447.037,-470.428"/>
<polygon fill="midnightblue" stroke="midnightblue" points="447.647,-473.887 457.279,-469.474 446.998,-466.917 447.647,-473.887"/>
</g>
<!-- Node25 -->
<g id="node65" class="node"><title>Node25</title>
<a xlink:href="TransportFactory_8h.html" target="_top" xlink:title="Header file defining class TransportFactory (see TransportFactory) ">
<polygon fill="white" stroke="black" points="516.5,-685 516.5,-715 653.5,-715 653.5,-685 516.5,-685"/>
<text text-anchor="start" x="524.5" y="-703" font-family="FreeSans" font-size="10.00">cantera/transport/Transport</text>
<text text-anchor="middle" x="585" y="-692" font-family="FreeSans" font-size="10.00">Factory.h</text>
</a>
</g>
<!-- Node1&#45;&gt;Node25 -->
<g id="edge80" class="edge"><title>Node1&#45;&gt;Node25</title>
<path fill="none" stroke="midnightblue" d="M759.772,-752.403C729.33,-743.45 680.845,-729.19 642.657,-717.958"/>
<polygon fill="midnightblue" stroke="midnightblue" points="643.267,-714.489 632.686,-715.025 641.292,-721.205 643.267,-714.489"/>
</g>
<!-- Node36 -->
<g id="node109" class="node"><title>Node36</title>
<a xlink:href="stringUtils_8h.html" target="_top" xlink:title="Contains declarations for string manipulation functions within Cantera. ">
<polygon fill="white" stroke="black" points="1114.5,-112.5 1114.5,-131.5 1243.5,-131.5 1243.5,-112.5 1114.5,-112.5"/>
<text text-anchor="middle" x="1179" y="-119.5" font-family="FreeSans" font-size="10.00">cantera/base/stringUtils.h</text>
</a>
</g>
<!-- Node1&#45;&gt;Node36 -->
<g id="edge146" class="edge"><title>Node1&#45;&gt;Node36</title>
<path fill="none" stroke="midnightblue" d="M835.854,-755.436C934.792,-742.378 1156,-705.724 1156,-639 1156,-639 1156,-639 1156,-233 1156,-200.12 1165.97,-162.86 1172.78,-141.235"/>
<polygon fill="midnightblue" stroke="midnightblue" points="1176.11,-142.303 1175.9,-131.711 1169.46,-140.125 1176.11,-142.303"/>
</g>
<!-- Node3 -->
<g id="node5" class="node"><title>Node3</title>
<a xlink:href="Phase_8h.html" target="_top" xlink:title="Header file for class Phase. ">
<polygon fill="white" stroke="black" points="770.5,-280.5 770.5,-299.5 823.5,-299.5 823.5,-280.5 770.5,-280.5"/>
<text text-anchor="middle" x="797" y="-287.5" font-family="FreeSans" font-size="10.00">Phase.h</text>
</a>
</g>
<!-- Node2&#45;&gt;Node3 -->
<g id="edge4" class="edge"><title>Node2&#45;&gt;Node3</title>
<path fill="none" stroke="midnightblue" d="M859.111,-336.324C847.85,-328.107 830.713,-315.602 817.291,-305.807"/>
<polygon fill="midnightblue" stroke="midnightblue" points="819.247,-302.901 809.106,-299.834 815.12,-308.556 819.247,-302.901"/>
</g>
<!-- Node19 -->
<g id="node45" class="node"><title>Node19</title>
<a xlink:href="SpeciesThermo_8h.html" target="_top" xlink:title="Virtual base class for the calculation of multiple&#45;species thermodynamic reference&#45;state property man...">
<polygon fill="white" stroke="black" points="884.5,-280.5 884.5,-299.5 981.5,-299.5 981.5,-280.5 884.5,-280.5"/>
<text text-anchor="middle" x="933" y="-287.5" font-family="FreeSans" font-size="10.00">SpeciesThermo.h</text>
</a>
</g>
<!-- Node2&#45;&gt;Node19 -->
<g id="edge52" class="edge"><title>Node2&#45;&gt;Node19</title>
<path fill="none" stroke="midnightblue" d="M880.961,-336.324C890.127,-328.341 903.937,-316.313 915.028,-306.653"/>
<polygon fill="midnightblue" stroke="midnightblue" points="917.615,-309.041 922.857,-299.834 913.018,-303.762 917.615,-309.041"/>
</g>
<!-- Node4 -->
<g id="node7" class="node"><title>Node4</title>
<a xlink:href="vec__functions_8h.html" target="_top" xlink:title="Templates for operations on vector&#45;like objects. ">
<polygon fill="white" stroke="black" points="592.5,-168.5 592.5,-187.5 739.5,-187.5 739.5,-168.5 592.5,-168.5"/>
<text text-anchor="middle" x="666" y="-175.5" font-family="FreeSans" font-size="10.00">cantera/base/vec_functions.h</text>
</a>
</g>
<!-- Node3&#45;&gt;Node4 -->
<g id="edge6" class="edge"><title>Node3&#45;&gt;Node4</title>
<path fill="none" stroke="midnightblue" d="M770.157,-282.25C748.42,-275.614 718.196,-263.582 698,-244 684.759,-231.162 676.189,-211.707 671.282,-197.426"/>
<polygon fill="midnightblue" stroke="midnightblue" points="674.565,-196.199 668.227,-187.709 667.887,-198.299 674.565,-196.199"/>
</g>
<!-- Node15 -->
<g id="node31" class="node"><title>Node15</title>
<a xlink:href="ctml_8h.html" target="_top" xlink:title="CTML (&quot;Cantera Markup Language&quot;) is the variant of XML that Cantera uses to store data...">
<polygon fill="white" stroke="black" points="861,-224.5 861,-243.5 965,-243.5 965,-224.5 861,-224.5"/>
<text text-anchor="middle" x="913" y="-231.5" font-family="FreeSans" font-size="10.00">cantera/base/ctml.h</text>
</a>
</g>
<!-- Node3&#45;&gt;Node15 -->
<g id="edge32" class="edge"><title>Node3&#45;&gt;Node15</title>
<path fill="none" stroke="midnightblue" d="M815.381,-280.444C834.216,-271.675 863.731,-257.935 885.379,-247.858"/>
<polygon fill="midnightblue" stroke="midnightblue" points="887.117,-250.91 894.705,-243.516 884.162,-244.564 887.117,-250.91"/>
</g>
<!-- Node18 -->
<g id="node42" class="node"><title>Node18</title>
<a xlink:href="Elements_8h.html" target="_top" xlink:title="Contains the LookupWtElements function and the definitions of element constraint types. ">
<polygon fill="white" stroke="black" points="707,-224.5 707,-243.5 843,-243.5 843,-224.5 707,-224.5"/>
<text text-anchor="middle" x="775" y="-231.5" font-family="FreeSans" font-size="10.00">cantera/thermo/Elements.h</text>
</a>
</g>
<!-- Node3&#45;&gt;Node18 -->
<g id="edge48" class="edge"><title>Node3&#45;&gt;Node18</title>
<path fill="none" stroke="midnightblue" d="M793.367,-280.083C790.388,-272.77 786.074,-262.181 782.375,-253.103"/>
<polygon fill="midnightblue" stroke="midnightblue" points="785.58,-251.691 778.565,-243.751 779.097,-254.333 785.58,-251.691"/>
</g>
<!-- Node5 -->
<g id="node9" class="node"><title>Node5</title>
<a xlink:href="ct__defs_8h.html" target="_top" xlink:title="This file contains definitions of terms that are used in internal routines and are unlikely to need m...">
<polygon fill="white" stroke="red" points="848,-56.5 848,-75.5 904,-75.5 904,-56.5 848,-56.5"/>
<text text-anchor="middle" x="876" y="-63.5" font-family="FreeSans" font-size="10.00">ct_defs.h</text>
</a>
</g>
<!-- Node4&#45;&gt;Node5 -->
<g id="edge8" class="edge"><title>Node4&#45;&gt;Node5</title>
<path fill="none" stroke="midnightblue" d="M720.404,-168.493C750.842,-161.936 788.481,-150.715 818,-132 837.489,-119.644 854.35,-98.9268 864.793,-84.2044"/>
<polygon fill="midnightblue" stroke="midnightblue" points="867.955,-85.7788 870.691,-75.5434 862.169,-81.8385 867.955,-85.7788"/>
</g>
<!-- Node4&#45;&gt;Node9 -->
<g id="edge16" class="edge"><title>Node4&#45;&gt;Node9</title>
<path fill="none" stroke="midnightblue" d="M627.179,-168.444C580.766,-158.214 503.653,-141.217 458.042,-131.164"/>
<polygon fill="midnightblue" stroke="midnightblue" points="458.779,-127.743 448.26,-129.008 457.273,-134.579 458.779,-127.743"/>
</g>
<!-- Node10 -->
<g id="node20" class="node"><title>Node10</title>
<polygon fill="white" stroke="#bfbfbf" points="507,-56.5 507,-75.5 565,-75.5 565,-56.5 507,-56.5"/>
<text text-anchor="middle" x="536" y="-63.5" font-family="FreeSans" font-size="10.00">algorithm</text>
</g>
<!-- Node4&#45;&gt;Node10 -->
<g id="edge26" class="edge"><title>Node4&#45;&gt;Node10</title>
<path fill="none" stroke="midnightblue" d="M663.613,-168.305C659.473,-154.676 649.755,-128.172 633,-112 616.774,-96.3388 594.106,-85.4081 574.763,-78.2449"/>
<polygon fill="midnightblue" stroke="midnightblue" points="575.886,-74.9297 565.291,-74.9322 573.575,-81.5373 575.886,-74.9297"/>
</g>
<!-- Node11 -->
<g id="node22" class="node"><title>Node11</title>
<polygon fill="white" stroke="#bfbfbf" points="680,-112.5 680,-131.5 732,-131.5 732,-112.5 680,-112.5"/>
<text text-anchor="middle" x="706" y="-119.5" font-family="FreeSans" font-size="10.00">numeric</text>
</g>
<!-- Node4&#45;&gt;Node11 -->
<g id="edge22" class="edge"><title>Node4&#45;&gt;Node11</title>
<path fill="none" stroke="midnightblue" d="M672.605,-168.083C678.255,-160.455 686.545,-149.264 693.451,-139.941"/>
<polygon fill="midnightblue" stroke="midnightblue" points="696.378,-141.87 699.518,-131.751 690.753,-137.703 696.378,-141.87"/>
</g>
<!-- Node12 -->
<g id="node24" class="node"><title>Node12</title>
<polygon fill="white" stroke="#bfbfbf" points="750.5,-112.5 750.5,-131.5 809.5,-131.5 809.5,-112.5 750.5,-112.5"/>
<text text-anchor="middle" x="780" y="-119.5" font-family="FreeSans" font-size="10.00">functional</text>
</g>
<!-- Node4&#45;&gt;Node12 -->
<g id="edge24" class="edge"><title>Node4&#45;&gt;Node12</title>
<path fill="none" stroke="midnightblue" d="M684.064,-168.444C702.575,-159.675 731.581,-145.935 752.855,-135.858"/>
<polygon fill="midnightblue" stroke="midnightblue" points="754.482,-138.96 762.021,-131.516 751.485,-132.634 754.482,-138.96"/>
</g>
<!-- Node13 -->
<g id="node27" class="node"><title>Node13</title>
<polygon fill="white" stroke="#bfbfbf" points="504,-112.5 504,-131.5 560,-131.5 560,-112.5 504,-112.5"/>
<text text-anchor="middle" x="532" y="-119.5" font-family="FreeSans" font-size="10.00">iostream</text>
</g>
<!-- Node4&#45;&gt;Node13 -->
<g id="edge28" class="edge"><title>Node4&#45;&gt;Node13</title>
<path fill="none" stroke="midnightblue" d="M644.767,-168.444C622.616,-159.517 587.681,-145.439 562.564,-135.317"/>
<polygon fill="midnightblue" stroke="midnightblue" points="563.717,-132.008 553.133,-131.516 561.1,-138.501 563.717,-132.008"/>
</g>
<!-- Node14 -->
<g id="node29" class="node"><title>Node14</title>
<polygon fill="white" stroke="#bfbfbf" points="578,-112.5 578,-131.5 624,-131.5 624,-112.5 578,-112.5"/>
<text text-anchor="middle" x="601" y="-119.5" font-family="FreeSans" font-size="10.00">cstring</text>
</g>
<!-- Node4&#45;&gt;Node14 -->
<g id="edge30" class="edge"><title>Node4&#45;&gt;Node14</title>
<path fill="none" stroke="midnightblue" d="M655.557,-168.324C645.854,-160.263 631.185,-148.077 619.5,-138.369"/>
<polygon fill="midnightblue" stroke="midnightblue" points="621.562,-135.532 611.633,-131.834 617.089,-140.916 621.562,-135.532"/>
</g>
<!-- Node6 -->
<g id="node11" class="node"><title>Node6</title>
<a xlink:href="config_8h_source.html" target="_top" xlink:title="config.h">
<polygon fill="white" stroke="black" points="308.5,-0.5 308.5,-19.5 359.5,-19.5 359.5,-0.5 308.5,-0.5"/>
<text text-anchor="middle" x="334" y="-7.5" font-family="FreeSans" font-size="10.00">config.h</text>
</a>
</g>
<!-- Node5&#45;&gt;Node6 -->
<g id="edge10" class="edge"><title>Node5&#45;&gt;Node6</title>
<path fill="none" stroke="midnightblue" d="M847.623,-62.1728C756.323,-53.0764 470.262,-24.576 369.529,-14.5398"/>
<polygon fill="midnightblue" stroke="midnightblue" points="369.845,-11.0541 359.548,-13.5453 369.151,-18.0196 369.845,-11.0541"/>
</g>
<!-- Node7 -->
<g id="node13" class="node"><title>Node7</title>
<polygon fill="white" stroke="#bfbfbf" points="714,-0.5 714,-19.5 758,-19.5 758,-0.5 714,-0.5"/>
<text text-anchor="middle" x="736" y="-7.5" font-family="FreeSans" font-size="10.00">vector</text>
</g>
<!-- Node5&#45;&gt;Node7 -->
<g id="edge12" class="edge"><title>Node5&#45;&gt;Node7</title>
<path fill="none" stroke="midnightblue" d="M853.817,-56.4435C830.572,-47.4776 793.851,-33.314 767.585,-23.1827"/>
<polygon fill="midnightblue" stroke="midnightblue" points="768.669,-19.8497 758.08,-19.5164 766.15,-26.3807 768.669,-19.8497"/>
</g>
<!-- Node8 -->
<g id="node15" class="node"><title>Node8</title>
<polygon fill="white" stroke="#bfbfbf" points="944.5,-0.5 944.5,-19.5 985.5,-19.5 985.5,-0.5 944.5,-0.5"/>
<text text-anchor="middle" x="965" y="-7.5" font-family="FreeSans" font-size="10.00">string</text>
</g>
<!-- Node5&#45;&gt;Node8 -->
<g id="edge14" class="edge"><title>Node5&#45;&gt;Node8</title>
<path fill="none" stroke="midnightblue" d="M890.299,-56.324C904.183,-47.9002 925.492,-34.9709 941.804,-25.0741"/>
<polygon fill="midnightblue" stroke="midnightblue" points="944.002,-27.8341 950.736,-19.6545 940.371,-21.8495 944.002,-27.8341"/>
</g>
<!-- Node9&#45;&gt;Node5 -->
<g id="edge18" class="edge"><title>Node9&#45;&gt;Node5</title>
<path fill="none" stroke="midnightblue" d="M448.268,-114.585C452.837,-113.634 457.541,-112.73 462,-112 599.37,-89.5242 764.281,-75.4026 837.607,-69.7819"/>
<polygon fill="midnightblue" stroke="midnightblue" points="838.04,-73.2593 847.747,-69.0144 837.512,-66.2793 838.04,-73.2593"/>
</g>
<!-- Node9&#45;&gt;Node10 -->
<g id="edge20" class="edge"><title>Node9&#45;&gt;Node10</title>
<path fill="none" stroke="midnightblue" d="M439.222,-112.444C457.896,-103.675 487.156,-89.9355 508.617,-79.8579"/>
<polygon fill="midnightblue" stroke="midnightblue" points="510.299,-82.935 517.863,-75.5164 507.324,-76.5988 510.299,-82.935"/>
</g>
<!-- Node15&#45;&gt;Node5 -->
<g id="edge34" class="edge"><title>Node15&#45;&gt;Node5</title>
<path fill="none" stroke="midnightblue" d="M917.093,-224.311C926.16,-203.743 945.775,-150.889 928,-112 922.223,-99.3602 910.948,-88.911 900.369,-81.2737"/>
<polygon fill="midnightblue" stroke="midnightblue" points="902.042,-78.1817 891.783,-75.5333 898.151,-84.0009 902.042,-78.1817"/>
</g>
<!-- Node16 -->
<g id="node34" class="node"><title>Node16</title>
<a xlink:href="xml_8h.html" target="_top" xlink:title="Classes providing support for XML data files. ">
<polygon fill="white" stroke="red" points="1021,-168.5 1021,-187.5 1061,-187.5 1061,-168.5 1021,-168.5"/>
<text text-anchor="middle" x="1041" y="-175.5" font-family="FreeSans" font-size="10.00">xml.h</text>
</a>
</g>
<!-- Node15&#45;&gt;Node16 -->
<g id="edge36" class="edge"><title>Node15&#45;&gt;Node16</title>
<path fill="none" stroke="midnightblue" d="M933.282,-224.444C954.347,-215.557 987.517,-201.563 1011.49,-191.451"/>
<polygon fill="midnightblue" stroke="midnightblue" points="1012.96,-194.628 1020.81,-187.516 1010.24,-188.179 1012.96,-194.628"/>
</g>
<!-- Node17 -->
<g id="node36" class="node"><title>Node17</title>
<a xlink:href="Array_8h.html" target="_top" xlink:title="Header file for class Cantera::Array2D. ">
<polygon fill="white" stroke="red" points="508,-168.5 508,-187.5 556,-187.5 556,-168.5 508,-168.5"/>
<text text-anchor="middle" x="532" y="-175.5" font-family="FreeSans" font-size="10.00">Array.h</text>
</a>
</g>
<!-- Node15&#45;&gt;Node17 -->
<g id="edge38" class="edge"><title>Node15&#45;&gt;Node17</title>
<path fill="none" stroke="midnightblue" d="M860.763,-225.246C857.799,-224.82 854.862,-224.403 852,-224 732.555,-207.197 702.197,-206.485 583,-188 577.503,-187.147 571.683,-186.181 566.019,-185.206"/>
<polygon fill="midnightblue" stroke="midnightblue" points="566.547,-181.746 556.093,-183.464 565.337,-188.64 566.547,-181.746"/>
</g>
<!-- Node17&#45;&gt;Node5 -->
<g id="edge40" class="edge"><title>Node17&#45;&gt;Node5</title>
<path fill="none" stroke="midnightblue" d="M520.839,-168.491C504.904,-155.344 479.214,-129.761 495,-112 517.555,-86.6242 745.865,-73.1245 837.874,-68.6802"/>
<polygon fill="midnightblue" stroke="midnightblue" points="838.061,-72.1753 847.885,-68.2065 837.73,-65.1831 838.061,-72.1753"/>
</g>
<!-- Node17&#45;&gt;Node9 -->
<g id="edge42" class="edge"><title>Node17&#45;&gt;Node9</title>
<path fill="none" stroke="midnightblue" d="M514.166,-168.324C496.284,-159.625 468.525,-146.12 447.954,-136.113"/>
<polygon fill="midnightblue" stroke="midnightblue" points="449.313,-132.882 438.79,-131.655 446.251,-139.177 449.313,-132.882"/>
</g>
<!-- Node17&#45;&gt;Node13 -->
<g id="edge44" class="edge"><title>Node17&#45;&gt;Node13</title>
<path fill="none" stroke="midnightblue" d="M532,-168.083C532,-161.006 532,-150.861 532,-141.986"/>
<polygon fill="midnightblue" stroke="midnightblue" points="535.5,-141.751 532,-131.751 528.5,-141.751 535.5,-141.751"/>
</g>
<!-- Node17&#45;&gt;Node14 -->
<g id="edge46" class="edge"><title>Node17&#45;&gt;Node14</title>
<path fill="none" stroke="midnightblue" d="M543.086,-168.324C553.486,-160.185 569.261,-147.839 581.722,-138.087"/>
<polygon fill="midnightblue" stroke="midnightblue" points="583.994,-140.753 589.712,-131.834 579.68,-135.241 583.994,-140.753"/>
</g>
<!-- Node18&#45;&gt;Node5 -->
<g id="edge50" class="edge"><title>Node18&#45;&gt;Node5</title>
<path fill="none" stroke="midnightblue" d="M792.831,-224.285C820.298,-209.68 871.701,-177.339 890,-132 896.197,-116.646 891.055,-98.0915 885.334,-84.7435"/>
<polygon fill="midnightblue" stroke="midnightblue" points="888.483,-83.2156 881.025,-75.6902 882.163,-86.2239 888.483,-83.2156"/>
</g>
<!-- Node19&#45;&gt;Node5 -->
<g id="edge54" class="edge"><title>Node19&#45;&gt;Node5</title>
<path fill="none" stroke="midnightblue" d="M944.541,-280.49C954.479,-272.379 968.122,-259.178 974,-244 989.255,-204.607 992.349,-177.887 945,-112 935.167,-98.3176 919.771,-87.6981 906.015,-80.2202"/>
<polygon fill="midnightblue" stroke="midnightblue" points="907.341,-76.9677 896.842,-75.5461 904.163,-83.2047 907.341,-76.9677"/>
</g>
<!-- Node21 -->
<g id="node50" class="node"><title>Node21</title>
<a xlink:href="GasTransport_8h.html" target="_top" xlink:title="GasTransport.h">
<polygon fill="white" stroke="black" points="765,-454.5 765,-473.5 851,-473.5 851,-454.5 765,-454.5"/>
<text text-anchor="middle" x="808" y="-461.5" font-family="FreeSans" font-size="10.00">GasTransport.h</text>
</a>
</g>
<!-- Node20&#45;&gt;Node21 -->
<g id="edge58" class="edge"><title>Node20&#45;&gt;Node21</title>
<path fill="none" stroke="midnightblue" d="M840.556,-516.403C834.912,-507.493 825.939,-493.325 818.841,-482.118"/>
<polygon fill="midnightblue" stroke="midnightblue" points="821.742,-480.156 813.434,-473.581 815.828,-483.901 821.742,-480.156"/>
</g>
<!-- Node23 -->
<g id="node55" class="node"><title>Node23</title>
<a xlink:href="DenseMatrix_8h.html" target="_top" xlink:title="Headers for the DenseMatrix object, which deals with dense rectangular matrices and description of th...">
<polygon fill="white" stroke="black" points="451.5,-336.5 451.5,-355.5 612.5,-355.5 612.5,-336.5 451.5,-336.5"/>
<text text-anchor="middle" x="532" y="-343.5" font-family="FreeSans" font-size="10.00">cantera/numerics/DenseMatrix.h</text>
</a>
</g>
<!-- Node20&#45;&gt;Node23 -->
<g id="edge70" class="edge"><title>Node20&#45;&gt;Node23</title>
<path fill="none" stroke="midnightblue" d="M851.306,-516.472C860.032,-501.242 875.018,-468.998 860,-448 829.075,-404.762 681.91,-372.731 595.57,-357.289"/>
<polygon fill="midnightblue" stroke="midnightblue" points="596.067,-353.823 585.611,-355.534 594.851,-360.717 596.067,-353.823"/>
</g>
<!-- Node22 -->
<g id="node52" class="node"><title>Node22</title>
<a xlink:href="TransportBase_8h.html" target="_top" xlink:title="Headers for the Transport object, which is the virtual base class for all transport property evaluato...">
<polygon fill="white" stroke="black" points="596.5,-392.5 596.5,-411.5 687.5,-411.5 687.5,-392.5 596.5,-392.5"/>
<text text-anchor="middle" x="642" y="-399.5" font-family="FreeSans" font-size="10.00">TransportBase.h</text>
</a>
</g>
<!-- Node21&#45;&gt;Node22 -->
<g id="edge60" class="edge"><title>Node21&#45;&gt;Node22</title>
<path fill="none" stroke="midnightblue" d="M784.216,-454.403C755.618,-444.067 707.449,-426.656 675.198,-414.999"/>
<polygon fill="midnightblue" stroke="midnightblue" points="676.334,-411.688 665.74,-411.581 673.954,-418.271 676.334,-411.688"/>
</g>
<!-- Node22&#45;&gt;Node2 -->
<g id="edge62" class="edge"><title>Node22&#45;&gt;Node2</title>
<path fill="none" stroke="midnightblue" d="M678.286,-392.444C717.983,-383.083 781.707,-368.056 824.912,-357.868"/>
<polygon fill="midnightblue" stroke="midnightblue" points="825.954,-361.218 834.884,-355.516 824.348,-354.405 825.954,-361.218"/>
</g>
<!-- Node22&#45;&gt;Node23 -->
<g id="edge64" class="edge"><title>Node22&#45;&gt;Node23</title>
<path fill="none" stroke="midnightblue" d="M624.327,-392.324C606.606,-383.625 579.097,-370.12 558.712,-360.113"/>
<polygon fill="midnightblue" stroke="midnightblue" points="560.149,-356.919 549.63,-355.655 557.064,-363.203 560.149,-356.919"/>
</g>
<!-- Node23&#45;&gt;Node5 -->
<g id="edge66" class="edge"><title>Node23&#45;&gt;Node5</title>
<path fill="none" stroke="midnightblue" d="M518.927,-336.435C471.45,-304.354 314.555,-189.196 385,-112 415.359,-78.7312 727.653,-69.7497 837.798,-67.607"/>
<polygon fill="midnightblue" stroke="midnightblue" points="837.877,-71.1063 847.81,-67.4205 837.747,-64.1075 837.877,-71.1063"/>
</g>
<!-- Node23&#45;&gt;Node17 -->
<g id="edge68" class="edge"><title>Node23&#45;&gt;Node17</title>
<path fill="none" stroke="midnightblue" d="M532,-336.075C532,-309.945 532,-233.211 532,-197.577"/>
<polygon fill="midnightblue" stroke="midnightblue" points="535.5,-197.568 532,-187.568 528.5,-197.568 535.5,-197.568"/>
</g>
<!-- Node24&#45;&gt;Node22 -->
<g id="edge78" class="edge"><title>Node24&#45;&gt;Node22</title>
<path fill="none" stroke="midnightblue" d="M553.197,-448.933C572.243,-439.081 597.533,-426 616.251,-416.318"/>
<polygon fill="midnightblue" stroke="midnightblue" points="618.099,-419.303 625.373,-411.6 614.883,-413.086 618.099,-419.303"/>
</g>
<!-- Node24&#45;&gt;Node23 -->
<g id="edge76" class="edge"><title>Node24&#45;&gt;Node23</title>
<path fill="none" stroke="midnightblue" d="M526.736,-448.776C527.812,-427.971 529.817,-389.198 531.018,-365.981"/>
<polygon fill="midnightblue" stroke="midnightblue" points="534.528,-365.874 531.55,-355.707 527.538,-365.513 534.528,-365.874"/>
</g>
<!-- Node25&#45;&gt;Node5 -->
<g id="edge82" class="edge"><title>Node25&#45;&gt;Node5</title>
<path fill="none" stroke="midnightblue" d="M647.188,-684.998C785.603,-652.033 1107,-564.749 1107,-465 1107,-465 1107,-465 1107,-289 1107,-232.764 1105.66,-211.486 1070,-168 1029.35,-118.422 957.926,-90.3063 914.009,-76.909"/>
<polygon fill="midnightblue" stroke="midnightblue" points="914.856,-73.5099 904.274,-74.043 912.879,-80.2249 914.856,-73.5099"/>
</g>
<!-- Node25&#45;&gt;Node22 -->
<g id="edge92" class="edge"><title>Node25&#45;&gt;Node22</title>
<path fill="none" stroke="midnightblue" d="M611.903,-684.953C641.78,-667.648 688.383,-635.159 708,-592 734.607,-533.461 729.157,-501.839 694,-448 686.248,-436.129 674.499,-425.589 664.129,-417.699"/>
<polygon fill="midnightblue" stroke="midnightblue" points="666.016,-414.744 655.861,-411.723 661.916,-420.417 666.016,-414.744"/>
</g>
<!-- Node26 -->
<g id="node68" class="node"><title>Node26</title>
<a xlink:href="ct__thread_8h.html" target="_top" xlink:title="cantera/base/ct_thread.h">
<polygon fill="white" stroke="black" points="162,-628.5 162,-647.5 290,-647.5 290,-628.5 162,-628.5"/>
<text text-anchor="middle" x="226" y="-635.5" font-family="FreeSans" font-size="10.00">cantera/base/ct_thread.h</text>
</a>
</g>
<!-- Node25&#45;&gt;Node26 -->
<g id="edge84" class="edge"><title>Node25&#45;&gt;Node26</title>
<path fill="none" stroke="midnightblue" d="M516.206,-687.502C449.822,-676.408 350.295,-659.774 286.76,-649.155"/>
<polygon fill="midnightblue" stroke="midnightblue" points="287.323,-645.7 276.883,-647.504 286.169,-652.605 287.323,-645.7"/>
</g>
<!-- Node29 -->
<g id="node76" class="node"><title>Node29</title>
<a xlink:href="FactoryBase_8h.html" target="_top" xlink:title="File contains the FactoryBase class declarations. ">
<polygon fill="white" stroke="black" points="104,-392.5 104,-411.5 248,-411.5 248,-392.5 104,-392.5"/>
<text text-anchor="middle" x="176" y="-399.5" font-family="FreeSans" font-size="10.00">cantera/base/FactoryBase.h</text>
</a>
</g>
<!-- Node25&#45;&gt;Node29 -->
<g id="edge94" class="edge"><title>Node25&#45;&gt;Node29</title>
<path fill="none" stroke="midnightblue" d="M516.276,-698.684C369.363,-696.149 38,-679.713 38,-583 38,-583 38,-583 38,-525 38,-469.343 101.787,-432.974 142.627,-415.392"/>
<polygon fill="midnightblue" stroke="midnightblue" points="144.063,-418.586 151.962,-411.525 141.384,-412.118 144.063,-418.586"/>
</g>
<!-- Node30 -->
<g id="node79" class="node"><title>Node30</title>
<a xlink:href="LiquidTransportParams_8h.html" target="_top" xlink:title="Header file defining class LiquidTransportParams. ">
<polygon fill="white" stroke="black" points="521,-628.5 521,-647.5 649,-647.5 649,-628.5 521,-628.5"/>
<text text-anchor="middle" x="585" y="-635.5" font-family="FreeSans" font-size="10.00">LiquidTransportParams.h</text>
</a>
</g>
<!-- Node25&#45;&gt;Node30 -->
<g id="edge98" class="edge"><title>Node25&#45;&gt;Node30</title>
<path fill="none" stroke="midnightblue" d="M585,-684.781C585,-676.781 585,-666.689 585,-658.017"/>
<polygon fill="midnightblue" stroke="midnightblue" points="588.5,-657.73 585,-647.731 581.5,-657.731 588.5,-657.73"/>
</g>
<!-- Node35 -->
<g id="node103" class="node"><title>Node35</title>
<a xlink:href="SolidTransportData_8h.html" target="_top" xlink:title="Header file defining class SolidTransportData. ">
<polygon fill="white" stroke="black" points="117,-516.5 117,-535.5 229,-535.5 229,-516.5 117,-516.5"/>
<text text-anchor="middle" x="173" y="-523.5" font-family="FreeSans" font-size="10.00">SolidTransportData.h</text>
</a>
</g>
<!-- Node25&#45;&gt;Node35 -->
<g id="edge136" class="edge"><title>Node25&#45;&gt;Node35</title>
<path fill="none" stroke="midnightblue" d="M564.78,-684.839C526.779,-658.842 441.368,-603.307 362,-572 321.561,-556.048 273.935,-544.753 236.61,-537.468"/>
<polygon fill="midnightblue" stroke="midnightblue" points="236.848,-533.95 226.37,-535.519 235.539,-540.827 236.848,-533.95"/>
</g>
<!-- Node26&#45;&gt;Node6 -->
<g id="edge86" class="edge"><title>Node26&#45;&gt;Node6</title>
<path fill="none" stroke="midnightblue" d="M164.597,-628.456C140.02,-622.133 113.265,-611.134 95,-592 74.2182,-570.229 76,-557.098 76,-527 76,-527 76,-527 76,-121 76,-25.5905 227.144,-11.7917 298.063,-10.5684"/>
<polygon fill="midnightblue" stroke="midnightblue" points="298.353,-14.0659 308.319,-10.4701 298.286,-7.06621 298.353,-14.0659"/>
</g>
<!-- Node27 -->
<g id="node71" class="node"><title>Node27</title>
<polygon fill="white" stroke="#bfbfbf" points="104,-572.5 104,-591.5 214,-591.5 214,-572.5 104,-572.5"/>
<text text-anchor="middle" x="159" y="-579.5" font-family="FreeSans" font-size="10.00">boost/shared_ptr.hpp</text>
</g>
<!-- Node26&#45;&gt;Node27 -->
<g id="edge88" class="edge"><title>Node26&#45;&gt;Node27</title>
<path fill="none" stroke="midnightblue" d="M215.235,-628.324C205.234,-620.263 190.113,-608.077 178.07,-598.369"/>
<polygon fill="midnightblue" stroke="midnightblue" points="179.943,-595.384 169.961,-591.834 175.55,-600.834 179.943,-595.384"/>
</g>
<!-- Node28 -->
<g id="node73" class="node"><title>Node28</title>
<polygon fill="white" stroke="#bfbfbf" points="232.5,-572.5 232.5,-591.5 353.5,-591.5 353.5,-572.5 232.5,-572.5"/>
<text text-anchor="middle" x="293" y="-579.5" font-family="FreeSans" font-size="10.00">boost/thread/mutex.hpp</text>
</g>
<!-- Node26&#45;&gt;Node28 -->
<g id="edge90" class="edge"><title>Node26&#45;&gt;Node28</title>
<path fill="none" stroke="midnightblue" d="M236.765,-628.324C246.766,-620.263 261.887,-608.077 273.93,-598.369"/>
<polygon fill="midnightblue" stroke="midnightblue" points="276.45,-600.834 282.039,-591.834 272.057,-595.384 276.45,-600.834"/>
</g>
<!-- Node29&#45;&gt;Node7 -->
<g id="edge96" class="edge"><title>Node29&#45;&gt;Node7</title>
<path fill="none" stroke="midnightblue" d="M166.852,-392.253C149.605,-374.77 114,-333.528 114,-291 114,-291 114,-291 114,-121 114,-60.5294 575.752,-22.6023 703.558,-13.2627"/>
<polygon fill="midnightblue" stroke="midnightblue" points="704.141,-16.7299 713.863,-12.5191 703.637,-9.74807 704.141,-16.7299"/>
</g>
<!-- Node30&#45;&gt;Node16 -->
<g id="edge132" class="edge"><title>Node30&#45;&gt;Node16</title>
<path fill="none" stroke="midnightblue" d="M645.809,-628.488C775.801,-608.583 1069,-553.842 1069,-465 1069,-465 1069,-465 1069,-289 1069,-255.79 1056.87,-218.634 1048.57,-197.12"/>
<polygon fill="midnightblue" stroke="midnightblue" points="1051.75,-195.628 1044.78,-187.649 1045.25,-198.233 1051.75,-195.628"/>
</g>
<!-- Node30&#45;&gt;Node22 -->
<g id="edge100" class="edge"><title>Node30&#45;&gt;Node22</title>
<path fill="none" stroke="midnightblue" d="M633.049,-628.458C653.942,-622.101 676.47,-611.074 689,-592 725.468,-536.485 678.292,-454.878 654.368,-419.913"/>
<polygon fill="midnightblue" stroke="midnightblue" points="657.209,-417.868 648.588,-411.709 651.486,-421.9 657.209,-417.868"/>
</g>
<!-- Node30&#45;&gt;Node24 -->
<g id="edge102" class="edge"><title>Node30&#45;&gt;Node24</title>
<path fill="none" stroke="midnightblue" d="M576.249,-628.286C568.437,-619.84 557.549,-606.246 553,-592 542.598,-559.424 575.965,-548.391 565,-516 561.371,-505.279 554.484,-495.039 547.495,-486.585"/>
<polygon fill="midnightblue" stroke="midnightblue" points="550.106,-484.254 540.867,-479.069 544.857,-488.884 550.106,-484.254"/>
</g>
<!-- Node31 -->
<g id="node83" class="node"><title>Node31</title>
<a xlink:href="LiquidTransportData_8h.html" target="_top" xlink:title="Header file defining class LiquidTransportData. ">
<polygon fill="white" stroke="black" points="285,-516.5 285,-535.5 401,-535.5 401,-516.5 285,-516.5"/>
<text text-anchor="middle" x="343" y="-523.5" font-family="FreeSans" font-size="10.00">LiquidTransportData.h</text>
</a>
</g>
<!-- Node30&#45;&gt;Node31 -->
<g id="edge104" class="edge"><title>Node30&#45;&gt;Node31</title>
<path fill="none" stroke="midnightblue" d="M566.011,-628.368C523.6,-609.091 420.998,-562.454 371.137,-539.789"/>
<polygon fill="midnightblue" stroke="midnightblue" points="372.453,-536.543 361.901,-535.591 369.556,-542.916 372.453,-536.543"/>
</g>
<!-- Node33 -->
<g id="node91" class="node"><title>Node33</title>
<a xlink:href="LiquidTranInteraction_8h.html" target="_top" xlink:title="Header file defining the class LiquidTranInteraction and classes which derive from LiquidTranInteract...">
<polygon fill="white" stroke="black" points="562,-572.5 562,-591.5 680,-591.5 680,-572.5 562,-572.5"/>
<text text-anchor="middle" x="621" y="-579.5" font-family="FreeSans" font-size="10.00">LiquidTranInteraction.h</text>
</a>
</g>
<!-- Node30&#45;&gt;Node33 -->
<g id="edge116" class="edge"><title>Node30&#45;&gt;Node33</title>
<path fill="none" stroke="midnightblue" d="M590.945,-628.083C595.977,-620.534 603.337,-609.495 609.513,-600.23"/>
<polygon fill="midnightblue" stroke="midnightblue" points="612.531,-602.013 615.166,-591.751 606.707,-598.13 612.531,-602.013"/>
</g>
<!-- Node34 -->
<g id="node98" class="node"><title>Node34</title>
<a xlink:href="XML__Writer_8h_source.html" target="_top" xlink:title="cantera/base/XML_Writer.h">
<polygon fill="white" stroke="black" points="419.5,-516.5 419.5,-535.5 556.5,-535.5 556.5,-516.5 419.5,-516.5"/>
<text text-anchor="middle" x="488" y="-523.5" font-family="FreeSans" font-size="10.00">cantera/base/XML_Writer.h</text>
</a>
</g>
<!-- Node30&#45;&gt;Node34 -->
<g id="edge134" class="edge"><title>Node30&#45;&gt;Node34</title>
<path fill="none" stroke="midnightblue" d="M567.994,-628.422C553.714,-620.534 533.531,-607.699 520,-592 508.09,-578.182 499.404,-559.159 494.112,-545.263"/>
<polygon fill="midnightblue" stroke="midnightblue" points="497.393,-544.044 490.729,-535.807 490.802,-546.402 497.393,-544.044"/>
</g>
<!-- Node31&#45;&gt;Node22 -->
<g id="edge106" class="edge"><title>Node31&#45;&gt;Node22</title>
<path fill="none" stroke="midnightblue" d="M399.984,-516.462C474.021,-505.177 594.862,-486.017 603,-480 622.158,-465.835 632.563,-439.562 637.697,-421.686"/>
<polygon fill="midnightblue" stroke="midnightblue" points="641.132,-422.382 640.244,-411.824 634.355,-420.631 641.132,-422.382"/>
</g>
<!-- Node31&#45;&gt;Node29 -->
<g id="edge108" class="edge"><title>Node31&#45;&gt;Node29</title>
<path fill="none" stroke="midnightblue" d="M327.035,-516.382C311.533,-507.794 287.545,-493.914 268,-480 240.586,-460.485 211.131,-434.933 193.13,-418.737"/>
<polygon fill="midnightblue" stroke="midnightblue" points="195.03,-415.735 185.273,-411.606 190.325,-420.918 195.03,-415.735"/>
</g>
<!-- Node32 -->
<g id="node87" class="node"><title>Node32</title>
<a xlink:href="LTPspecies_8h.html" target="_top" xlink:title="Header file defining class LTPspecies and its child classes. ">
<polygon fill="white" stroke="black" points="277,-454.5 277,-473.5 355,-473.5 355,-454.5 277,-454.5"/>
<text text-anchor="middle" x="316" y="-461.5" font-family="FreeSans" font-size="10.00">LTPspecies.h</text>
</a>
</g>
<!-- Node31&#45;&gt;Node32 -->
<g id="edge110" class="edge"><title>Node31&#45;&gt;Node32</title>
<path fill="none" stroke="midnightblue" d="M339.132,-516.403C335.202,-507.671 329,-493.889 324.007,-482.794"/>
<polygon fill="midnightblue" stroke="midnightblue" points="327.157,-481.264 319.861,-473.581 320.773,-484.136 327.157,-481.264"/>
</g>
<!-- Node32&#45;&gt;Node22 -->
<g id="edge112" class="edge"><title>Node32&#45;&gt;Node22</title>
<path fill="none" stroke="midnightblue" d="M355.323,-455.763C412.871,-445.171 520.313,-425.396 586.069,-413.294"/>
<polygon fill="midnightblue" stroke="midnightblue" points="587.049,-416.673 596.25,-411.42 585.782,-409.788 587.049,-416.673"/>
</g>
<!-- Node32&#45;&gt;Node29 -->
<g id="edge114" class="edge"><title>Node32&#45;&gt;Node29</title>
<path fill="none" stroke="midnightblue" d="M295.941,-454.403C272.238,-444.245 232.594,-427.255 205.417,-415.607"/>
<polygon fill="midnightblue" stroke="midnightblue" points="206.592,-412.303 196.021,-411.581 203.834,-418.737 206.592,-412.303"/>
</g>
<!-- Node33&#45;&gt;Node5 -->
<g id="edge118" class="edge"><title>Node33&#45;&gt;Node5</title>
<path fill="none" stroke="midnightblue" d="M680.029,-581.347C761.668,-580.424 902.669,-573.294 935,-536 963.715,-502.876 923.685,-496.829 878,-448 795.39,-359.705 736.237,-358.71 698,-244 695.189,-235.567 693.705,-231.783 698,-224 707.264,-207.212 831.171,-146.25 844,-132 856.206,-118.443 864.852,-99.3847 870.055,-85.4097"/>
<polygon fill="midnightblue" stroke="midnightblue" points="873.387,-86.4839 873.364,-75.8891 866.775,-84.1857 873.387,-86.4839"/>
</g>
<!-- Node33&#45;&gt;Node16 -->
<g id="edge126" class="edge"><title>Node33&#45;&gt;Node16</title>
<path fill="none" stroke="midnightblue" d="M680.207,-580.098C767.243,-577.667 924.257,-568.731 969,-536 1021.64,-497.493 1031,-468.218 1031,-403 1031,-403 1031,-403 1031,-289 1031,-256.816 1035.3,-219.552 1038.26,-197.702"/>
<polygon fill="midnightblue" stroke="midnightblue" points="1041.76,-197.925 1039.69,-187.534 1034.83,-196.947 1041.76,-197.925"/>
</g>
<!-- Node33&#45;&gt;Node22 -->
<g id="edge120" class="edge"><title>Node33&#45;&gt;Node22</title>
<path fill="none" stroke="midnightblue" d="M622.013,-572.415C625.22,-545.227 635.209,-460.563 639.733,-422.217"/>
<polygon fill="midnightblue" stroke="midnightblue" points="643.252,-422.26 640.948,-411.918 636.3,-421.439 643.252,-422.26"/>
</g>
<!-- Node33&#45;&gt;Node24 -->
<g id="edge122" class="edge"><title>Node33&#45;&gt;Node24</title>
<path fill="none" stroke="midnightblue" d="M619.81,-572.194C617.642,-558.88 612.013,-533.344 599,-516 589.501,-503.34 575.926,-492.649 563.052,-484.378"/>
<polygon fill="midnightblue" stroke="midnightblue" points="564.671,-481.265 554.311,-479.043 561.024,-487.24 564.671,-481.265"/>
</g>
<!-- Node33&#45;&gt;Node31 -->
<g id="edge124" class="edge"><title>Node33&#45;&gt;Node31</title>
<path fill="none" stroke="midnightblue" d="M576.95,-572.444C528.149,-562.964 449.437,-547.675 396.97,-537.483"/>
<polygon fill="midnightblue" stroke="midnightblue" points="397.328,-533.988 386.844,-535.516 395.993,-540.859 397.328,-533.988"/>
</g>
<!-- Node33&#45;&gt;Node34 -->
<g id="edge128" class="edge"><title>Node33&#45;&gt;Node34</title>
<path fill="none" stroke="midnightblue" d="M599.926,-572.444C577.94,-563.517 543.266,-549.439 518.336,-539.317"/>
<polygon fill="midnightblue" stroke="midnightblue" points="519.558,-536.035 508.976,-535.516 516.924,-542.521 519.558,-536.035"/>
</g>
<!-- Node34&#45;&gt;Node13 -->
<g id="edge130" class="edge"><title>Node34&#45;&gt;Node13</title>
<path fill="none" stroke="midnightblue" d="M472.053,-516.27C442.679,-498.887 383,-456.934 383,-403 383,-403 383,-403 383,-233 383,-177.698 450.255,-147.054 494.395,-132.896"/>
<polygon fill="midnightblue" stroke="midnightblue" points="495.437,-136.238 503.974,-129.964 493.388,-129.544 495.437,-136.238"/>
</g>
<!-- Node35&#45;&gt;Node22 -->
<g id="edge138" class="edge"><title>Node35&#45;&gt;Node22</title>
<path fill="none" stroke="midnightblue" d="M180.344,-516.464C195.072,-499.996 230.071,-464.055 268,-448 324.106,-424.25 496.653,-411.234 586.428,-405.908"/>
<polygon fill="midnightblue" stroke="midnightblue" points="586.648,-409.401 596.428,-405.326 586.241,-402.413 586.648,-409.401"/>
</g>
<!-- Node35&#45;&gt;Node24 -->
<g id="edge140" class="edge"><title>Node35&#45;&gt;Node24</title>
<path fill="none" stroke="midnightblue" d="M223.201,-516.467C281.71,-506.522 379.104,-489.968 447.605,-478.325"/>
<polygon fill="midnightblue" stroke="midnightblue" points="448.222,-481.77 457.494,-476.644 447.049,-474.869 448.222,-481.77"/>
</g>
<!-- Node35&#45;&gt;Node29 -->
<g id="edge142" class="edge"><title>Node35&#45;&gt;Node29</title>
<path fill="none" stroke="midnightblue" d="M173.216,-516.226C173.7,-496.53 174.883,-448.437 175.54,-421.7"/>
<polygon fill="midnightblue" stroke="midnightblue" points="179.039,-421.777 175.786,-411.694 172.041,-421.605 179.039,-421.777"/>
</g>
<!-- Node35&#45;&gt;Node32 -->
<g id="edge144" class="edge"><title>Node35&#45;&gt;Node32</title>
<path fill="none" stroke="midnightblue" d="M193.488,-516.403C217.806,-506.2 258.549,-489.105 286.317,-477.454"/>
<polygon fill="midnightblue" stroke="midnightblue" points="287.683,-480.677 295.55,-473.581 284.974,-474.222 287.683,-480.677"/>
</g>
<!-- Node36&#45;&gt;Node5 -->
<g id="edge148" class="edge"><title>Node36&#45;&gt;Node5</title>
<path fill="none" stroke="midnightblue" d="M1130.99,-112.444C1070.95,-101.743 969.365,-83.6392 914.28,-73.8222"/>
<polygon fill="midnightblue" stroke="midnightblue" points="914.691,-70.3404 904.232,-72.0315 913.463,-77.2318 914.691,-70.3404"/>
</g>
<!-- Node36&#45;&gt;Node8 -->
<g id="edge150" class="edge"><title>Node36&#45;&gt;Node8</title>
<path fill="none" stroke="midnightblue" d="M1162.21,-112.368C1124.94,-93.2113 1035.11,-47.0355 990.713,-24.2172"/>
<polygon fill="midnightblue" stroke="midnightblue" points="992.208,-21.0502 981.714,-19.5914 989.008,-27.2759 992.208,-21.0502"/>
</g>
</g>
</svg>
