<?xml version="1.0" encoding="UTF-8" standalone="no"?>
<!DOCTYPE svg PUBLIC "-//W3C//DTD SVG 1.1//EN"
 "http://www.w3.org/Graphics/SVG/1.1/DTD/svg11.dtd">
<!-- Generated by graphviz version 2.26.3 (20100126.1600)
 -->
<!-- Title: MixtureFugacityTP.cpp Pages: 1 -->
<svg width="968pt" height="494pt"
 viewBox="0.00 0.00 968.00 494.00" xmlns="http://www.w3.org/2000/svg" xmlns:xlink="http://www.w3.org/1999/xlink">
<g id="graph1" class="graph" transform="scale(1 1) rotate(0) translate(4 490)">
<title>MixtureFugacityTP.cpp</title>
<polygon fill="white" stroke="white" points="-4,5 -4,-490 965,-490 965,5 -4,5"/>
<!-- Node1 -->
<g id="node1" class="node"><title>Node1</title>
<polygon fill="#bfbfbf" stroke="black" points="569,-465 569,-485 685,-485 685,-465 569,-465"/>
<text text-anchor="middle" x="627" y="-472" font-family="FreeSans" font-size="10.00">MixtureFugacityTP.cpp</text>
</g>
<!-- Node2 -->
<g id="node3" class="node"><title>Node2</title>
<a xlink:href="MixtureFugacityTP_8h.html" target="_top" xlink:title="Header file for a derived class of ThermoPhase that handles non&#45;ideal mixtures based on the fugacity ...">
<polygon fill="white" stroke="black" points="414.5,-407 414.5,-427 587.5,-427 587.5,-407 414.5,-407"/>
<text text-anchor="middle" x="501" y="-414" font-family="FreeSans" font-size="10.00">cantera/thermo/MixtureFugacityTP.h</text>
</a>
</g>
<!-- Node1&#45;&gt;Node2 -->
<g id="edge2" class="edge"><title>Node1&#45;&gt;Node2</title>
<path fill="none" stroke="midnightblue" d="M605.052,-464.897C584.94,-455.639 554.941,-441.83 532.314,-431.415"/>
<polygon fill="midnightblue" stroke="midnightblue" points="533.666,-428.184 523.119,-427.182 530.739,-434.542 533.666,-428.184"/>
</g>
<!-- Node9 -->
<g id="node18" class="node"><title>Node9</title>
<a xlink:href="xml_8h.html" target="_top" xlink:title="Classes providing support for XML data files. ">
<polygon fill="white" stroke="black" points="225.5,-175 225.5,-195 264.5,-195 264.5,-175 225.5,-175"/>
<text text-anchor="middle" x="245" y="-182" font-family="FreeSans" font-size="10.00">xml.h</text>
</a>
</g>
<!-- Node1&#45;&gt;Node9 -->
<g id="edge70" class="edge"><title>Node1&#45;&gt;Node9</title>
<path fill="none" stroke="midnightblue" d="M568.617,-466.882C523.384,-459.573 459.603,-447.021 406,-428 299.225,-390.111 238.141,-408.638 179,-312 155.726,-273.97 197.504,-226.857 224.576,-202.079"/>
<polygon fill="midnightblue" stroke="midnightblue" points="227.247,-204.389 232.417,-195.141 222.608,-199.146 227.247,-204.389"/>
</g>
<!-- Node15 -->
<g id="node35" class="node"><title>Node15</title>
<a xlink:href="VPSSMgr_8h.html" target="_top" xlink:title="Declaration file for a virtual base class that manages the calculation of standard state properties f...">
<polygon fill="white" stroke="black" points="593.5,-349 593.5,-369 660.5,-369 660.5,-349 593.5,-349"/>
<text text-anchor="middle" x="627" y="-356" font-family="FreeSans" font-size="10.00">VPSSMgr.h</text>
</a>
</g>
<!-- Node1&#45;&gt;Node15 -->
<g id="edge56" class="edge"><title>Node1&#45;&gt;Node15</title>
<path fill="none" stroke="midnightblue" d="M627,-464.706C627,-445.568 627,-404.198 627,-379.265"/>
<polygon fill="midnightblue" stroke="midnightblue" points="630.5,-379.105 627,-369.106 623.5,-379.106 630.5,-379.105"/>
</g>
<!-- Node19 -->
<g id="node48" class="node"><title>Node19</title>
<a xlink:href="PDSS_8h.html" target="_top" xlink:title="Declarations for the virtual base class PDSS (pressure dependent standard state) which handles calcul...">
<polygon fill="white" stroke="black" points="689.5,-349 689.5,-369 808.5,-369 808.5,-349 689.5,-349"/>
<text text-anchor="middle" x="749" y="-356" font-family="FreeSans" font-size="10.00">cantera/thermo/PDSS.h</text>
</a>
</g>
<!-- Node1&#45;&gt;Node19 -->
<g id="edge58" class="edge"><title>Node1&#45;&gt;Node19</title>
<path fill="none" stroke="midnightblue" d="M637.827,-464.706C658.861,-444.706 705.432,-400.426 731.121,-376"/>
<polygon fill="midnightblue" stroke="midnightblue" points="733.536,-378.533 738.372,-369.106 728.713,-373.46 733.536,-378.533"/>
</g>
<!-- Node20 -->
<g id="node52" class="node"><title>Node20</title>
<a xlink:href="stringUtils_8h.html" target="_top" xlink:title="Contains declarations for string manipulation functions within Cantera. ">
<polygon fill="white" stroke="black" points="835.5,-117 835.5,-137 960.5,-137 960.5,-117 835.5,-117"/>
<text text-anchor="middle" x="898" y="-124" font-family="FreeSans" font-size="10.00">cantera/base/stringUtils.h</text>
</a>
</g>
<!-- Node1&#45;&gt;Node20 -->
<g id="edge64" class="edge"><title>Node1&#45;&gt;Node20</title>
<path fill="none" stroke="midnightblue" d="M666.636,-464.982C735.976,-446.284 872,-403.885 872,-359 872,-359 872,-359 872,-243 872,-208.435 883.128,-169.449 890.823,-146.62"/>
<polygon fill="midnightblue" stroke="midnightblue" points="894.165,-147.666 894.164,-137.071 887.558,-145.354 894.165,-147.666"/>
</g>
<!-- Node3 -->
<g id="node5" class="node"><title>Node3</title>
<a xlink:href="ThermoPhase_8h.html" target="_top" xlink:title="Header file for class ThermoPhase, the base class for phases with thermodynamic properties, and the text for the Module thermoprops (see Thermodynamic Properties and class ThermoPhase). ">
<polygon fill="white" stroke="black" points="435,-349 435,-369 519,-369 519,-349 435,-349"/>
<text text-anchor="middle" x="477" y="-356" font-family="FreeSans" font-size="10.00">ThermoPhase.h</text>
</a>
</g>
<!-- Node2&#45;&gt;Node3 -->
<g id="edge4" class="edge"><title>Node2&#45;&gt;Node3</title>
<path fill="none" stroke="midnightblue" d="M496.82,-406.897C493.624,-399.175 489.118,-388.286 485.21,-378.841"/>
<polygon fill="midnightblue" stroke="midnightblue" points="488.352,-377.28 481.294,-369.378 481.884,-379.956 488.352,-377.28"/>
</g>
<!-- Node2&#45;&gt;Node15 -->
<g id="edge40" class="edge"><title>Node2&#45;&gt;Node15</title>
<path fill="none" stroke="midnightblue" d="M522.948,-406.897C543.06,-397.639 573.059,-383.83 595.686,-373.415"/>
<polygon fill="midnightblue" stroke="midnightblue" points="597.261,-376.542 604.881,-369.182 594.334,-370.184 597.261,-376.542"/>
</g>
<!-- Node17 -->
<g id="node41" class="node"><title>Node17</title>
<a xlink:href="ResidEval_8h.html" target="_top" xlink:title="cantera/numerics/ResidEval.h">
<polygon fill="white" stroke="black" points="27.5,-175 27.5,-195 170.5,-195 170.5,-175 27.5,-175"/>
<text text-anchor="middle" x="99" y="-182" font-family="FreeSans" font-size="10.00">cantera/numerics/ResidEval.h</text>
</a>
</g>
<!-- Node2&#45;&gt;Node17 -->
<g id="edge48" class="edge"><title>Node2&#45;&gt;Node17</title>
<path fill="none" stroke="midnightblue" d="M423.418,-406.964C353.438,-394.609 250.775,-367.929 179,-312 142.183,-283.311 117.722,-232.596 106.35,-204.721"/>
<polygon fill="midnightblue" stroke="midnightblue" points="109.545,-203.281 102.635,-195.25 103.029,-205.837 109.545,-203.281"/>
</g>
<!-- Node4 -->
<g id="node7" class="node"><title>Node4</title>
<a xlink:href="Phase_8h.html" target="_top" xlink:title="Header file for class Phase. ">
<polygon fill="white" stroke="black" points="451.5,-291 451.5,-311 502.5,-311 502.5,-291 451.5,-291"/>
<text text-anchor="middle" x="477" y="-298" font-family="FreeSans" font-size="10.00">Phase.h</text>
</a>
</g>
<!-- Node3&#45;&gt;Node4 -->
<g id="edge6" class="edge"><title>Node3&#45;&gt;Node4</title>
<path fill="none" stroke="midnightblue" d="M477,-348.897C477,-341.339 477,-330.748 477,-321.446"/>
<polygon fill="midnightblue" stroke="midnightblue" points="480.5,-321.378 477,-311.378 473.5,-321.378 480.5,-321.378"/>
</g>
<!-- Node14 -->
<g id="node32" class="node"><title>Node14</title>
<a xlink:href="SpeciesThermo_8h.html" target="_top" xlink:title="Virtual base class for the calculation of multiple&#45;species thermodynamic reference&#45;state property man...">
<polygon fill="white" stroke="black" points="188,-291 188,-311 280,-311 280,-291 188,-291"/>
<text text-anchor="middle" x="234" y="-298" font-family="FreeSans" font-size="10.00">SpeciesThermo.h</text>
</a>
</g>
<!-- Node3&#45;&gt;Node14 -->
<g id="edge36" class="edge"><title>Node3&#45;&gt;Node14</title>
<path fill="none" stroke="midnightblue" d="M434.95,-348.963C393.528,-339.077 330.166,-323.953 285.691,-313.338"/>
<polygon fill="midnightblue" stroke="midnightblue" points="286.481,-309.928 275.942,-311.011 284.856,-316.737 286.481,-309.928"/>
</g>
<!-- Node5 -->
<g id="node9" class="node"><title>Node5</title>
<a xlink:href="vec__functions_8h.html" target="_top" xlink:title="Templates for operations on vector&#45;like objects. ">
<polygon fill="white" stroke="red" points="376,-175 376,-195 518,-195 518,-175 376,-175"/>
<text text-anchor="middle" x="447" y="-182" font-family="FreeSans" font-size="10.00">cantera/base/vec_functions.h</text>
</a>
</g>
<!-- Node4&#45;&gt;Node5 -->
<g id="edge8" class="edge"><title>Node4&#45;&gt;Node5</title>
<path fill="none" stroke="midnightblue" d="M468.888,-290.895C462.148,-281.832 453.033,-267.862 449,-254 444.351,-238.02 444.157,-219.072 444.953,-205.079"/>
<polygon fill="midnightblue" stroke="midnightblue" points="448.445,-205.313 445.738,-195.07 441.467,-204.766 448.445,-205.313"/>
</g>
<!-- Node8 -->
<g id="node15" class="node"><title>Node8</title>
<a xlink:href="ctml_8h.html" target="_top" xlink:title="CTML (&quot;Cantera Markup Language&quot;) is the variant of XML that Cantera uses to store data...">
<polygon fill="white" stroke="red" points="301.5,-233 301.5,-253 402.5,-253 402.5,-233 301.5,-233"/>
<text text-anchor="middle" x="352" y="-240" font-family="FreeSans" font-size="10.00">cantera/base/ctml.h</text>
</a>
</g>
<!-- Node4&#45;&gt;Node8 -->
<g id="edge14" class="edge"><title>Node4&#45;&gt;Node8</title>
<path fill="none" stroke="midnightblue" d="M455.227,-290.897C435.274,-281.639 405.513,-267.83 383.066,-257.415"/>
<polygon fill="midnightblue" stroke="midnightblue" points="384.487,-254.216 373.943,-253.182 381.541,-260.566 384.487,-254.216"/>
</g>
<!-- Node12 -->
<g id="node26" class="node"><title>Node12</title>
<a xlink:href="Elements_8h.html" target="_top" xlink:title="Contains the LookupWtElements function and the definitions of element constraint types. ">
<polygon fill="white" stroke="black" points="458,-233 458,-253 590,-253 590,-233 458,-233"/>
<text text-anchor="middle" x="524" y="-240" font-family="FreeSans" font-size="10.00">cantera/thermo/Elements.h</text>
</a>
</g>
<!-- Node4&#45;&gt;Node12 -->
<g id="edge28" class="edge"><title>Node4&#45;&gt;Node12</title>
<path fill="none" stroke="midnightblue" d="M485.187,-290.897C491.777,-282.764 501.214,-271.118 509.133,-261.347"/>
<polygon fill="midnightblue" stroke="midnightblue" points="512.014,-263.351 515.591,-253.378 506.575,-258.943 512.014,-263.351"/>
</g>
<!-- Node13 -->
<g id="node29" class="node"><title>Node13</title>
<a xlink:href="ValueCache_8h.html" target="_top" xlink:title="cantera/base/ValueCache.h">
<polygon fill="white" stroke="red" points="608,-233 608,-253 742,-253 742,-233 608,-233"/>
<text text-anchor="middle" x="675" y="-240" font-family="FreeSans" font-size="10.00">cantera/base/ValueCache.h</text>
</a>
</g>
<!-- Node4&#45;&gt;Node13 -->
<g id="edge32" class="edge"><title>Node4&#45;&gt;Node13</title>
<path fill="none" stroke="midnightblue" d="M502.885,-293.418C535.451,-283.878 591.866,-267.352 631.198,-255.831"/>
<polygon fill="midnightblue" stroke="midnightblue" points="632.191,-259.187 640.804,-253.017 630.223,-252.469 632.191,-259.187"/>
</g>
<!-- Node6 -->
<g id="node11" class="node"><title>Node6</title>
<a xlink:href="ct__defs_8h.html" target="_top" xlink:title="This file contains definitions of terms that are used in internal routines and are unlikely to need m...">
<polygon fill="white" stroke="red" points="483,-59 483,-79 539,-79 539,-59 483,-59"/>
<text text-anchor="middle" x="511" y="-66" font-family="FreeSans" font-size="10.00">ct_defs.h</text>
</a>
</g>
<!-- Node5&#45;&gt;Node6 -->
<g id="edge10" class="edge"><title>Node5&#45;&gt;Node6</title>
<path fill="none" stroke="midnightblue" d="M452.68,-174.706C463.428,-155.223 486.89,-112.7 500.554,-87.9339"/>
<polygon fill="midnightblue" stroke="midnightblue" points="503.658,-89.5521 505.425,-79.1055 497.529,-86.1705 503.658,-89.5521"/>
</g>
<!-- Node7 -->
<g id="node13" class="node"><title>Node7</title>
<polygon fill="white" stroke="#bfbfbf" points="491,-1 491,-21 531,-21 531,-1 491,-1"/>
<text text-anchor="middle" x="511" y="-8" font-family="FreeSans" font-size="10.00">string</text>
</g>
<!-- Node6&#45;&gt;Node7 -->
<g id="edge12" class="edge"><title>Node6&#45;&gt;Node7</title>
<path fill="none" stroke="midnightblue" d="M511,-58.8972C511,-51.339 511,-40.7476 511,-31.4458"/>
<polygon fill="midnightblue" stroke="midnightblue" points="514.5,-31.3776 511,-21.3776 507.5,-31.3776 514.5,-31.3776"/>
</g>
<!-- Node8&#45;&gt;Node6 -->
<g id="edge16" class="edge"><title>Node8&#45;&gt;Node6</title>
<path fill="none" stroke="midnightblue" d="M352.012,-232.779C352.49,-218.5 355.089,-192.283 367,-174 394.592,-131.647 445.614,-100.588 478.923,-83.6571"/>
<polygon fill="midnightblue" stroke="midnightblue" points="480.815,-86.6264 488.23,-79.0589 477.714,-80.3506 480.815,-86.6264"/>
</g>
<!-- Node8&#45;&gt;Node9 -->
<g id="edge18" class="edge"><title>Node8&#45;&gt;Node9</title>
<path fill="none" stroke="midnightblue" d="M333.362,-232.897C316.588,-223.804 291.714,-210.322 272.628,-199.976"/>
<polygon fill="midnightblue" stroke="midnightblue" points="274.243,-196.87 263.783,-195.182 270.907,-203.024 274.243,-196.87"/>
</g>
<!-- Node10 -->
<g id="node20" class="node"><title>Node10</title>
<a xlink:href="ctexceptions_8h.html" target="_top" xlink:title="Definitions for the classes that are thrown when Cantera experiences an error condition (also contain...">
<polygon fill="white" stroke="red" points="60,-117 60,-137 138,-137 138,-117 60,-117"/>
<text text-anchor="middle" x="99" y="-124" font-family="FreeSans" font-size="10.00">ctexceptions.h</text>
</a>
</g>
<!-- Node9&#45;&gt;Node10 -->
<g id="edge20" class="edge"><title>Node9&#45;&gt;Node10</title>
<path fill="none" stroke="midnightblue" d="M225.31,-177.178C201.915,-167.884 162.46,-152.21 133.862,-140.849"/>
<polygon fill="midnightblue" stroke="midnightblue" points="134.83,-137.468 124.244,-137.028 132.245,-143.973 134.83,-137.468"/>
</g>
<!-- Node11 -->
<g id="node23" class="node"><title>Node11</title>
<a xlink:href="global_8h.html" target="_top" xlink:title="This file contains definitions for utility functions and text for modules, inputfiles, logs, textlogs, (see Input File Handling, Diagnostic Output, and Writing messages to the screen). ">
<polygon fill="white" stroke="black" points="267,-117 267,-137 317,-137 317,-117 267,-117"/>
<text text-anchor="middle" x="292" y="-124" font-family="FreeSans" font-size="10.00">global.h</text>
</a>
</g>
<!-- Node9&#45;&gt;Node11 -->
<g id="edge24" class="edge"><title>Node9&#45;&gt;Node11</title>
<path fill="none" stroke="midnightblue" d="M253.187,-174.897C259.777,-166.764 269.214,-155.118 277.133,-145.347"/>
<polygon fill="midnightblue" stroke="midnightblue" points="280.014,-147.351 283.591,-137.378 274.575,-142.943 280.014,-147.351"/>
</g>
<!-- Node10&#45;&gt;Node7 -->
<g id="edge22" class="edge"><title>Node10&#45;&gt;Node7</title>
<path fill="none" stroke="midnightblue" d="M134.842,-116.909C214.869,-94.3766 406.882,-40.3148 481.054,-19.4315"/>
<polygon fill="midnightblue" stroke="midnightblue" points="482.037,-22.7909 490.714,-16.7117 480.139,-16.0529 482.037,-22.7909"/>
</g>
<!-- Node11&#45;&gt;Node6 -->
<g id="edge26" class="edge"><title>Node11&#45;&gt;Node6</title>
<path fill="none" stroke="midnightblue" d="M317.122,-120.347C355.271,-110.243 428.091,-90.9577 472.816,-79.1125"/>
<polygon fill="midnightblue" stroke="midnightblue" points="473.956,-82.4314 482.727,-76.4878 472.164,-75.6647 473.956,-82.4314"/>
</g>
<!-- Node12&#45;&gt;Node6 -->
<g id="edge30" class="edge"><title>Node12&#45;&gt;Node6</title>
<path fill="none" stroke="midnightblue" d="M524.83,-232.924C525.568,-223.413 526.594,-208.749 527,-196 527.312,-186.227 527.739,-183.75 527,-174 524.745,-144.231 518.943,-110.119 514.982,-89.0639"/>
<polygon fill="midnightblue" stroke="midnightblue" points="518.387,-88.2342 513.056,-79.0779 511.513,-89.5597 518.387,-88.2342"/>
</g>
<!-- Node13&#45;&gt;Node6 -->
<g id="edge34" class="edge"><title>Node13&#45;&gt;Node6</title>
<path fill="none" stroke="midnightblue" d="M665.474,-232.893C638.526,-204.302 561.509,-122.589 527.492,-86.4981"/>
<polygon fill="midnightblue" stroke="midnightblue" points="529.958,-84.0115 520.552,-79.135 524.864,-88.8127 529.958,-84.0115"/>
</g>
<!-- Node14&#45;&gt;Node6 -->
<g id="edge38" class="edge"><title>Node14&#45;&gt;Node6</title>
<path fill="none" stroke="midnightblue" d="M229.723,-290.861C221.125,-268.993 203.661,-215.977 217,-174 226.56,-143.914 231.415,-133.024 258,-116 293.031,-93.5673 410.978,-78.9004 472.669,-72.5718"/>
<polygon fill="midnightblue" stroke="midnightblue" points="473.184,-76.0378 482.784,-71.5572 472.485,-69.0728 473.184,-76.0378"/>
</g>
<!-- Node15&#45;&gt;Node6 -->
<g id="edge42" class="edge"><title>Node15&#45;&gt;Node6</title>
<path fill="none" stroke="midnightblue" d="M639.299,-348.643C670.558,-322.312 750.618,-254.824 751,-254 755.112,-245.129 755.577,-240.641 751,-232 708.077,-150.962 604.813,-102.746 548.749,-81.6553"/>
<polygon fill="midnightblue" stroke="midnightblue" points="549.778,-78.3048 539.184,-78.1486 547.368,-84.877 549.778,-78.3048"/>
</g>
<!-- Node15&#45;&gt;Node11 -->
<g id="edge46" class="edge"><title>Node15&#45;&gt;Node11</title>
<path fill="none" stroke="midnightblue" d="M593.346,-353.696C515.683,-340.68 327.91,-304.5 293,-254 270.85,-221.958 278.794,-173.661 285.846,-146.801"/>
<polygon fill="midnightblue" stroke="midnightblue" points="289.259,-147.595 288.629,-137.019 282.526,-145.68 289.259,-147.595"/>
</g>
<!-- Node16 -->
<g id="node38" class="node"><title>Node16</title>
<a xlink:href="mix__defs_8h.html" target="_top" xlink:title="mix_defs.h">
<polygon fill="white" stroke="black" points="718,-291 718,-311 780,-311 780,-291 718,-291"/>
<text text-anchor="middle" x="749" y="-298" font-family="FreeSans" font-size="10.00">mix_defs.h</text>
</a>
</g>
<!-- Node15&#45;&gt;Node16 -->
<g id="edge44" class="edge"><title>Node15&#45;&gt;Node16</title>
<path fill="none" stroke="midnightblue" d="M648.251,-348.897C667.638,-339.68 696.512,-325.953 718.386,-315.554"/>
<polygon fill="midnightblue" stroke="midnightblue" points="720.055,-318.636 727.583,-311.182 717.049,-312.314 720.055,-318.636"/>
</g>
<!-- Node17&#45;&gt;Node6 -->
<g id="edge50" class="edge"><title>Node17&#45;&gt;Node6</title>
<path fill="none" stroke="midnightblue" d="M108.816,-174.791C124.416,-159.261 156.54,-130.031 190,-116 240.435,-94.8505 399.073,-78.742 472.728,-72.1971"/>
<polygon fill="midnightblue" stroke="midnightblue" points="473.299,-75.6606 482.955,-71.3014 472.688,-68.6873 473.299,-75.6606"/>
</g>
<!-- Node17&#45;&gt;Node10 -->
<g id="edge52" class="edge"><title>Node17&#45;&gt;Node10</title>
<path fill="none" stroke="midnightblue" d="M99,-174.897C99,-167.339 99,-156.748 99,-147.446"/>
<polygon fill="midnightblue" stroke="midnightblue" points="102.5,-147.378 99,-137.378 95.5001,-147.378 102.5,-147.378"/>
</g>
<!-- Node18 -->
<g id="node45" class="node"><title>Node18</title>
<polygon fill="white" stroke="#bfbfbf" points="0,-117 0,-137 42,-137 42,-117 0,-117"/>
<text text-anchor="middle" x="21" y="-124" font-family="FreeSans" font-size="10.00">cstdio</text>
</g>
<!-- Node17&#45;&gt;Node18 -->
<g id="edge54" class="edge"><title>Node17&#45;&gt;Node18</title>
<path fill="none" stroke="midnightblue" d="M85.4134,-174.897C73.7411,-166.218 56.6895,-153.538 43.0622,-143.405"/>
<polygon fill="midnightblue" stroke="midnightblue" points="44.8057,-140.34 34.6926,-137.182 40.6287,-145.957 44.8057,-140.34"/>
</g>
<!-- Node19&#45;&gt;Node6 -->
<g id="edge60" class="edge"><title>Node19&#45;&gt;Node6</title>
<path fill="none" stroke="midnightblue" d="M760.027,-348.805C769.04,-339.899 781.48,-326.204 789,-312 803.883,-283.889 808,-274.808 808,-243 808,-243 808,-243 808,-185 808,-130.102 629.714,-90.6387 549.408,-75.6475"/>
<polygon fill="midnightblue" stroke="midnightblue" points="549.676,-72.1384 539.209,-73.7771 548.413,-79.0236 549.676,-72.1384"/>
</g>
<!-- Node19&#45;&gt;Node16 -->
<g id="edge62" class="edge"><title>Node19&#45;&gt;Node16</title>
<path fill="none" stroke="midnightblue" d="M749,-348.897C749,-341.339 749,-330.748 749,-321.446"/>
<polygon fill="midnightblue" stroke="midnightblue" points="752.5,-321.378 749,-311.378 745.5,-321.378 752.5,-321.378"/>
</g>
<!-- Node20&#45;&gt;Node6 -->
<g id="edge66" class="edge"><title>Node20&#45;&gt;Node6</title>
<path fill="none" stroke="midnightblue" d="M835.392,-117.617C754.573,-105.505 616.406,-84.7973 549.524,-74.7736"/>
<polygon fill="midnightblue" stroke="midnightblue" points="549.83,-71.2804 539.421,-73.2595 548.792,-78.2031 549.83,-71.2804"/>
</g>
<!-- Node20&#45;&gt;Node7 -->
<g id="edge68" class="edge"><title>Node20&#45;&gt;Node7</title>
<path fill="none" stroke="midnightblue" d="M864.333,-116.909C789.841,-94.5803 612.053,-41.2897 541.046,-20.0059"/>
<polygon fill="midnightblue" stroke="midnightblue" points="541.953,-16.6241 531.369,-17.1054 539.943,-23.3293 541.953,-16.6241"/>
</g>
</g>
</svg>
