<?xml version="1.0" encoding="UTF-8" standalone="no"?>
<!DOCTYPE svg PUBLIC "-//W3C//DTD SVG 1.1//EN"
 "http://www.w3.org/Graphics/SVG/1.1/DTD/svg11.dtd">
<!-- Generated by graphviz version 2.38.0 (20151222.1943)
 -->
<!-- Title: MolalityVPSSTP.h Pages: 1 -->
<svg width="775pt" height="308pt"
 viewBox="0.00 0.00 774.50 308.00" xmlns="http://www.w3.org/2000/svg" xmlns:xlink="http://www.w3.org/1999/xlink">
<g id="graph0" class="graph" transform="scale(1 1) rotate(0) translate(4 304)">
<title>MolalityVPSSTP.h</title>
<polygon fill="white" stroke="none" points="-4,4 -4,-304 770.5,-304 770.5,4 -4,4"/>
<!-- Node1 -->
<g id="node1" class="node"><title>Node1</title>
<polygon fill="#bfbfbf" stroke="black" points="518.5,-280.5 518.5,-299.5 614.5,-299.5 614.5,-280.5 518.5,-280.5"/>
<text text-anchor="middle" x="566.5" y="-287.5" font-family="FreeSans" font-size="10.00">MolalityVPSSTP.h</text>
</g>
<!-- Node2 -->
<g id="node2" class="node"><title>Node2</title>
<g id="a_node2"><a xlink:href="VPStandardStateTP_8h.html" target="_top" xlink:title="Header file for a derived class of ThermoPhase that handles variable pressure standard state methods ...">
<polygon fill="white" stroke="black" points="510.5,-224.5 510.5,-243.5 622.5,-243.5 622.5,-224.5 510.5,-224.5"/>
<text text-anchor="middle" x="566.5" y="-231.5" font-family="FreeSans" font-size="10.00">VPStandardStateTP.h</text>
</a>
</g>
</g>
<!-- Node1&#45;&gt;Node2 -->
<g id="edge1" class="edge"><title>Node1&#45;&gt;Node2</title>
<path fill="none" stroke="midnightblue" d="M566.5,-280.083C566.5,-273.006 566.5,-262.861 566.5,-253.986"/>
<polygon fill="midnightblue" stroke="midnightblue" points="570,-253.751 566.5,-243.751 563,-253.751 570,-253.751"/>
</g>
<!-- Node3 -->
<g id="node3" class="node"><title>Node3</title>
<g id="a_node3"><a xlink:href="ThermoPhase_8h.html" target="_top" xlink:title="Header file for class ThermoPhase, the base class for phases with thermodynamic properties, and the text for the Module thermoprops (see Thermodynamic Properties and class ThermoPhase). ">
<polygon fill="white" stroke="black" points="465.5,-168.5 465.5,-187.5 549.5,-187.5 549.5,-168.5 465.5,-168.5"/>
<text text-anchor="middle" x="507.5" y="-175.5" font-family="FreeSans" font-size="10.00">ThermoPhase.h</text>
</a>
</g>
</g>
<!-- Node2&#45;&gt;Node3 -->
<g id="edge2" class="edge"><title>Node2&#45;&gt;Node3</title>
<path fill="none" stroke="midnightblue" d="M557.021,-224.324C548.299,-216.341 535.157,-204.313 524.602,-194.653"/>
<polygon fill="midnightblue" stroke="midnightblue" points="526.892,-192.004 517.152,-187.834 522.166,-197.167 526.892,-192.004"/>
</g>
<!-- Node13 -->
<g id="node13" class="node"><title>Node13</title>
<g id="a_node13"><a xlink:href="VPSSMgr_8h.html" target="_top" xlink:title="Declaration file for a virtual base class that manages the calculation of standard state properties f...">
<polygon fill="white" stroke="black" points="599,-168.5 599,-187.5 666,-187.5 666,-168.5 599,-168.5"/>
<text text-anchor="middle" x="632.5" y="-175.5" font-family="FreeSans" font-size="10.00">VPSSMgr.h</text>
</a>
</g>
</g>
<!-- Node2&#45;&gt;Node13 -->
<g id="edge17" class="edge"><title>Node2&#45;&gt;Node13</title>
<path fill="none" stroke="midnightblue" d="M577.104,-224.324C586.956,-216.263 601.851,-204.077 613.715,-194.369"/>
<polygon fill="midnightblue" stroke="midnightblue" points="616.18,-196.875 621.703,-187.834 611.747,-191.457 616.18,-196.875"/>
</g>
<!-- Node4 -->
<g id="node4" class="node"><title>Node4</title>
<g id="a_node4"><a xlink:href="Phase_8h.html" target="_top" xlink:title="Header file for class Phase. ">
<polygon fill="white" stroke="black" points="338,-112.5 338,-131.5 389,-131.5 389,-112.5 338,-112.5"/>
<text text-anchor="middle" x="363.5" y="-119.5" font-family="FreeSans" font-size="10.00">Phase.h</text>
</a>
</g>
</g>
<!-- Node3&#45;&gt;Node4 -->
<g id="edge3" class="edge"><title>Node3&#45;&gt;Node4</title>
<path fill="none" stroke="midnightblue" d="M484.683,-168.444C460.668,-159.438 422.671,-145.189 395.631,-135.049"/>
<polygon fill="midnightblue" stroke="midnightblue" points="396.803,-131.751 386.21,-131.516 394.345,-138.305 396.803,-131.751"/>
</g>
<!-- Node11 -->
<g id="node11" class="node"><title>Node11</title>
<g id="a_node11"><a xlink:href="SpeciesThermo_8h.html" target="_top" xlink:title="Virtual base class for the calculation of multiple&#45;species thermodynamic reference&#45;state property man...">
<polygon fill="white" stroke="black" points="430.5,-112.5 430.5,-131.5 522.5,-131.5 522.5,-112.5 430.5,-112.5"/>
<text text-anchor="middle" x="476.5" y="-119.5" font-family="FreeSans" font-size="10.00">SpeciesThermo.h</text>
</a>
</g>
</g>
<!-- Node3&#45;&gt;Node11 -->
<g id="edge12" class="edge"><title>Node3&#45;&gt;Node11</title>
<path fill="none" stroke="midnightblue" d="M502.381,-168.083C498.092,-160.613 491.842,-149.724 486.558,-140.52"/>
<polygon fill="midnightblue" stroke="midnightblue" points="489.538,-138.681 481.524,-131.751 483.467,-142.166 489.538,-138.681"/>
</g>
<!-- Node12 -->
<g id="node12" class="node"><title>Node12</title>
<g id="a_node12"><a xlink:href="global_8h.html" target="_top" xlink:title="This file contains definitions for utility functions and text for modules, inputfiles, logs, textlogs, (see Input File Handling, Diagnostic Output, and Writing messages to the screen). ">
<polygon fill="white" stroke="black" points="578.5,-112.5 578.5,-131.5 686.5,-131.5 686.5,-112.5 578.5,-112.5"/>
<text text-anchor="middle" x="632.5" y="-119.5" font-family="FreeSans" font-size="10.00">cantera/base/global.h</text>
</a>
</g>
</g>
<!-- Node3&#45;&gt;Node12 -->
<g id="edge14" class="edge"><title>Node3&#45;&gt;Node12</title>
<path fill="none" stroke="midnightblue" d="M527.307,-168.444C547.787,-159.596 579.983,-145.687 603.365,-135.586"/>
<polygon fill="midnightblue" stroke="midnightblue" points="604.994,-138.695 612.786,-131.516 602.218,-132.269 604.994,-138.695"/>
</g>
<!-- Node5 -->
<g id="node5" class="node"><title>Node5</title>
<g id="a_node5"><a xlink:href="ctexceptions_8h.html" target="_top" xlink:title="Definitions for the classes that are thrown when Cantera experiences an error condition (also contain...">
<polygon fill="white" stroke="red" points="486,-56.5 486,-75.5 623,-75.5 623,-56.5 486,-56.5"/>
<text text-anchor="middle" x="554.5" y="-63.5" font-family="FreeSans" font-size="10.00">cantera/base/ctexceptions.h</text>
</a>
</g>
</g>
<!-- Node4&#45;&gt;Node5 -->
<g id="edge4" class="edge"><title>Node4&#45;&gt;Node5</title>
<path fill="none" stroke="midnightblue" d="M389.259,-113.717C421.414,-104.626 476.762,-88.9784 514.462,-78.3197"/>
<polygon fill="midnightblue" stroke="midnightblue" points="515.446,-81.6787 524.117,-75.59 513.542,-74.9427 515.446,-81.6787"/>
</g>
<!-- Node7 -->
<g id="node7" class="node"><title>Node7</title>
<g id="a_node7"><a xlink:href="Elements_8h.html" target="_top" xlink:title="Contains the LookupWtElements function and the definitions of element constraint types. ">
<polygon fill="white" stroke="black" points="297.5,-56.5 297.5,-75.5 429.5,-75.5 429.5,-56.5 297.5,-56.5"/>
<text text-anchor="middle" x="363.5" y="-63.5" font-family="FreeSans" font-size="10.00">cantera/thermo/Elements.h</text>
</a>
</g>
</g>
<!-- Node4&#45;&gt;Node7 -->
<g id="edge6" class="edge"><title>Node4&#45;&gt;Node7</title>
<path fill="none" stroke="midnightblue" d="M363.5,-112.083C363.5,-105.006 363.5,-94.8611 363.5,-85.9865"/>
<polygon fill="midnightblue" stroke="midnightblue" points="367,-85.751 363.5,-75.7511 360,-85.7511 367,-85.751"/>
</g>
<!-- Node9 -->
<g id="node9" class="node"><title>Node9</title>
<g id="a_node9"><a xlink:href="Species_8h.html" target="_top" xlink:title="Declaration for class Cantera::Species. ">
<polygon fill="white" stroke="black" points="0,-56.5 0,-75.5 127,-75.5 127,-56.5 0,-56.5"/>
<text text-anchor="middle" x="63.5" y="-63.5" font-family="FreeSans" font-size="10.00">cantera/thermo/Species.h</text>
</a>
</g>
</g>
<!-- Node4&#45;&gt;Node9 -->
<g id="edge8" class="edge"><title>Node4&#45;&gt;Node9</title>
<path fill="none" stroke="midnightblue" d="M337.922,-116.396C290.174,-107.801 186.408,-89.1234 121.043,-77.3577"/>
<polygon fill="midnightblue" stroke="midnightblue" points="121.358,-73.8583 110.896,-75.5313 120.118,-80.7476 121.358,-73.8583"/>
</g>
<!-- Node10 -->
<g id="node10" class="node"><title>Node10</title>
<g id="a_node10"><a xlink:href="ValueCache_8h.html" target="_top" xlink:title="cantera/base/ValueCache.h">
<polygon fill="white" stroke="red" points="145.5,-56.5 145.5,-75.5 279.5,-75.5 279.5,-56.5 145.5,-56.5"/>
<text text-anchor="middle" x="212.5" y="-63.5" font-family="FreeSans" font-size="10.00">cantera/base/ValueCache.h</text>
</a>
</g>
</g>
<!-- Node4&#45;&gt;Node10 -->
<g id="edge10" class="edge"><title>Node4&#45;&gt;Node10</title>
<path fill="none" stroke="midnightblue" d="M339.574,-112.444C314.281,-103.399 274.198,-89.064 245.82,-78.9158"/>
<polygon fill="midnightblue" stroke="midnightblue" points="246.909,-75.5882 236.314,-75.5164 244.552,-82.1794 246.909,-75.5882"/>
</g>
<!-- Node6 -->
<g id="node6" class="node"><title>Node6</title>
<polygon fill="white" stroke="#bfbfbf" points="570,-0.5 570,-19.5 673,-19.5 673,-0.5 570,-0.5"/>
<text text-anchor="middle" x="621.5" y="-7.5" font-family="FreeSans" font-size="10.00">cantera/ext/format.h</text>
</g>
<!-- Node5&#45;&gt;Node6 -->
<g id="edge5" class="edge"><title>Node5&#45;&gt;Node6</title>
<path fill="none" stroke="midnightblue" d="M565.265,-56.324C575.266,-48.2631 590.387,-36.0765 602.43,-26.3695"/>
<polygon fill="midnightblue" stroke="midnightblue" points="604.95,-28.8343 610.539,-19.8339 600.557,-23.3841 604.95,-28.8343"/>
</g>
<!-- Node8 -->
<g id="node8" class="node"><title>Node8</title>
<g id="a_node8"><a xlink:href="ct__defs_8h.html" target="_top" xlink:title="This file contains definitions of terms that are used in internal routines and are unlikely to need m...">
<polygon fill="white" stroke="red" points="306.5,-0.5 306.5,-19.5 420.5,-19.5 420.5,-0.5 306.5,-0.5"/>
<text text-anchor="middle" x="363.5" y="-7.5" font-family="FreeSans" font-size="10.00">cantera/base/ct_defs.h</text>
</a>
</g>
</g>
<!-- Node7&#45;&gt;Node8 -->
<g id="edge7" class="edge"><title>Node7&#45;&gt;Node8</title>
<path fill="none" stroke="midnightblue" d="M363.5,-56.083C363.5,-49.0059 363.5,-38.8611 363.5,-29.9865"/>
<polygon fill="midnightblue" stroke="midnightblue" points="367,-29.751 363.5,-19.7511 360,-29.7511 367,-29.751"/>
</g>
<!-- Node9&#45;&gt;Node8 -->
<g id="edge9" class="edge"><title>Node9&#45;&gt;Node8</title>
<path fill="none" stroke="midnightblue" d="M111.036,-56.4435C164.028,-46.9049 249.703,-31.4834 306.317,-21.293"/>
<polygon fill="midnightblue" stroke="midnightblue" points="306.965,-24.7327 316.187,-19.5164 305.725,-17.8434 306.965,-24.7327"/>
</g>
<!-- Node10&#45;&gt;Node8 -->
<g id="edge11" class="edge"><title>Node10&#45;&gt;Node8</title>
<path fill="none" stroke="midnightblue" d="M236.426,-56.4435C261.719,-47.3986 301.802,-33.064 330.18,-22.9158"/>
<polygon fill="midnightblue" stroke="midnightblue" points="331.448,-26.1794 339.686,-19.5164 329.091,-19.5882 331.448,-26.1794"/>
</g>
<!-- Node11&#45;&gt;Node8 -->
<g id="edge13" class="edge"><title>Node11&#45;&gt;Node8</title>
<path fill="none" stroke="midnightblue" d="M473.003,-112.087C467.376,-98.6337 455.226,-72.9179 438.5,-56 425.451,-42.8017 407.766,-31.9484 392.846,-24.2094"/>
<polygon fill="midnightblue" stroke="midnightblue" points="394.031,-20.8902 383.517,-19.5802 390.919,-27.1606 394.031,-20.8902"/>
</g>
<!-- Node12&#45;&gt;Node6 -->
<g id="edge16" class="edge"><title>Node12&#45;&gt;Node6</title>
<path fill="none" stroke="midnightblue" d="M642.192,-112.384C654.728,-100.137 674.004,-76.8606 665.5,-56 660.7,-44.2251 651.171,-33.8564 642.205,-26.0486"/>
<polygon fill="midnightblue" stroke="midnightblue" points="644.255,-23.2048 634.281,-19.6314 639.85,-28.6448 644.255,-23.2048"/>
</g>
<!-- Node12&#45;&gt;Node8 -->
<g id="edge15" class="edge"><title>Node12&#45;&gt;Node8</title>
<path fill="none" stroke="midnightblue" d="M635.519,-112.205C639.63,-98.4383 645.035,-71.7496 631.5,-56 606.075,-26.4145 501.669,-16.2742 430.928,-12.8024"/>
<polygon fill="midnightblue" stroke="midnightblue" points="430.898,-9.29751 420.749,-12.3371 430.579,-16.2902 430.898,-9.29751"/>
</g>
<!-- Node13&#45;&gt;Node12 -->
<g id="edge19" class="edge"><title>Node13&#45;&gt;Node12</title>
<path fill="none" stroke="midnightblue" d="M632.5,-168.083C632.5,-161.006 632.5,-150.861 632.5,-141.986"/>
<polygon fill="midnightblue" stroke="midnightblue" points="636,-141.751 632.5,-131.751 629,-141.751 636,-141.751"/>
</g>
<!-- Node14 -->
<g id="node14" class="node"><title>Node14</title>
<g id="a_node14"><a xlink:href="mix__defs_8h.html" target="_top" xlink:title="mix_defs.h">
<polygon fill="white" stroke="black" points="704.5,-112.5 704.5,-131.5 766.5,-131.5 766.5,-112.5 704.5,-112.5"/>
<text text-anchor="middle" x="735.5" y="-119.5" font-family="FreeSans" font-size="10.00">mix_defs.h</text>
</a>
</g>
</g>
<!-- Node13&#45;&gt;Node14 -->
<g id="edge18" class="edge"><title>Node13&#45;&gt;Node14</title>
<path fill="none" stroke="midnightblue" d="M649.049,-168.324C665.492,-159.703 690.935,-146.364 709.968,-136.386"/>
<polygon fill="midnightblue" stroke="midnightblue" points="711.761,-139.398 718.992,-131.655 708.511,-133.198 711.761,-139.398"/>
</g>
</g>
</svg>
