<?xml version="1.0" encoding="UTF-8" standalone="no"?>
<!DOCTYPE svg PUBLIC "-//W3C//DTD SVG 1.1//EN"
 "http://www.w3.org/Graphics/SVG/1.1/DTD/svg11.dtd">
<!-- Generated by graphviz version 2.28.0 (20120425.2022)
 -->
<!-- Title: Mu0Poly.cpp Pages: 1 -->
<svg width="976pt" height="320pt"
 viewBox="0.00 0.00 976.00 320.00" xmlns="http://www.w3.org/2000/svg" xmlns:xlink="http://www.w3.org/1999/xlink">
<g id="graph1" class="graph" transform="scale(1 1) rotate(0) translate(4 316)">
<title>Mu0Poly.cpp</title>
<polygon fill="white" stroke="white" points="-4,5 -4,-316 973,-316 973,5 -4,5"/>
<!-- Node1 -->
<g id="node1" class="node"><title>Node1</title>
<polygon fill="#bfbfbf" stroke="black" points="432.5,-292.5 432.5,-311.5 505.5,-311.5 505.5,-292.5 432.5,-292.5"/>
<text text-anchor="middle" x="469" y="-299.5" font-family="FreeSans" font-size="10.00">Mu0Poly.cpp</text>
</g>
<!-- Node2 -->
<g id="node3" class="node"><title>Node2</title>
<a xlink:href="Mu0Poly_8h.html" target="_top" xlink:title="Header for a single&#45;species standard state object derived from SpeciesThermoInterpType based on a pie...">
<polygon fill="white" stroke="black" points="250.5,-236.5 250.5,-255.5 383.5,-255.5 383.5,-236.5 250.5,-236.5"/>
<text text-anchor="middle" x="317" y="-243.5" font-family="FreeSans" font-size="10.00">cantera/thermo/Mu0Poly.h</text>
</a>
</g>
<!-- Node1&#45;&gt;Node2 -->
<g id="edge2" class="edge"><title>Node1&#45;&gt;Node2</title>
<path fill="none" stroke="midnightblue" d="M444.915,-292.444C419.455,-283.399 379.106,-269.064 350.541,-258.916"/>
<polygon fill="midnightblue" stroke="midnightblue" points="351.567,-255.566 340.972,-255.516 349.223,-262.162 351.567,-255.566"/>
</g>
<!-- Node11 -->
<g id="node21" class="node"><title>Node11</title>
<a xlink:href="speciesThermoTypes_8h.html" target="_top" xlink:title="Contains const definitions for types of species reference&#45;state thermodynamics managers (see Species ...">
<polygon fill="white" stroke="black" points="136.5,-112.5 136.5,-131.5 261.5,-131.5 261.5,-112.5 136.5,-112.5"/>
<text text-anchor="middle" x="199" y="-119.5" font-family="FreeSans" font-size="10.00">speciesThermoTypes.h</text>
</a>
</g>
<!-- Node1&#45;&gt;Node11 -->
<g id="edge28" class="edge"><title>Node1&#45;&gt;Node11</title>
<path fill="none" stroke="midnightblue" d="M432.046,-297.661C375.394,-291.9 270.527,-278.494 241,-256 205.46,-228.926 199.333,-171.791 198.682,-141.99"/>
<polygon fill="midnightblue" stroke="midnightblue" points="202.181,-141.693 198.656,-131.702 195.181,-141.71 202.181,-141.693"/>
</g>
<!-- Node12 -->
<g id="node23" class="node"><title>Node12</title>
<a xlink:href="ctexceptions_8h.html" target="_top" xlink:title="Definitions for the classes that are thrown when Cantera experiences an error condition (also contain...">
<polygon fill="white" stroke="black" points="825.5,-112.5 825.5,-131.5 968.5,-131.5 968.5,-112.5 825.5,-112.5"/>
<text text-anchor="middle" x="897" y="-119.5" font-family="FreeSans" font-size="10.00">cantera/base/ctexceptions.h</text>
</a>
</g>
<!-- Node1&#45;&gt;Node12 -->
<g id="edge22" class="edge"><title>Node1&#45;&gt;Node12</title>
<path fill="none" stroke="midnightblue" d="M490.513,-292.477C513.093,-283.503 549.604,-268.913 581,-256 686.937,-212.428 812.175,-159.205 867.83,-135.465"/>
<polygon fill="midnightblue" stroke="midnightblue" points="869.259,-138.661 877.083,-131.516 866.511,-132.222 869.259,-138.661"/>
</g>
<!-- Node14 -->
<g id="node29" class="node"><title>Node14</title>
<a xlink:href="SpeciesThermo_8h.html" target="_top" xlink:title="Virtual base class for the calculation of multiple&#45;species thermodynamic reference&#45;state property man...">
<polygon fill="white" stroke="black" points="-0.5,-236.5 -0.5,-255.5 166.5,-255.5 166.5,-236.5 -0.5,-236.5"/>
<text text-anchor="middle" x="83" y="-243.5" font-family="FreeSans" font-size="10.00">cantera/thermo/SpeciesThermo.h</text>
</a>
</g>
<!-- Node1&#45;&gt;Node14 -->
<g id="edge30" class="edge"><title>Node1&#45;&gt;Node14</title>
<path fill="none" stroke="midnightblue" d="M432.338,-295.871C368.568,-286.95 236.185,-268.43 153.946,-256.925"/>
<polygon fill="midnightblue" stroke="midnightblue" points="154.314,-253.443 143.926,-255.523 153.344,-260.375 154.314,-253.443"/>
</g>
<!-- Node15 -->
<g id="node32" class="node"><title>Node15</title>
<a xlink:href="xml_8h.html" target="_top" xlink:title="Classes providing support for XML data files. ">
<polygon fill="white" stroke="black" points="511,-174.5 511,-193.5 613,-193.5 613,-174.5 511,-174.5"/>
<text text-anchor="middle" x="562" y="-181.5" font-family="FreeSans" font-size="10.00">cantera/base/xml.h</text>
</a>
</g>
<!-- Node1&#45;&gt;Node15 -->
<g id="edge34" class="edge"><title>Node1&#45;&gt;Node15</title>
<path fill="none" stroke="midnightblue" d="M484.8,-292.459C498.284,-284.509 517.433,-271.563 530,-256 542.714,-240.256 551.5,-218.652 556.604,-203.422"/>
<polygon fill="midnightblue" stroke="midnightblue" points="560.021,-204.223 559.675,-193.634 553.342,-202.128 560.021,-204.223"/>
</g>
<!-- Node17 -->
<g id="node38" class="node"><title>Node17</title>
<a xlink:href="ctml_8h.html" target="_top" xlink:title="CTML (&quot;Cantera Markup Language&quot;) is the variant of XML that Cantera uses to store data...">
<polygon fill="white" stroke="black" points="417,-236.5 417,-255.5 521,-255.5 521,-236.5 417,-236.5"/>
<text text-anchor="middle" x="469" y="-243.5" font-family="FreeSans" font-size="10.00">cantera/base/ctml.h</text>
</a>
</g>
<!-- Node1&#45;&gt;Node17 -->
<g id="edge42" class="edge"><title>Node1&#45;&gt;Node17</title>
<path fill="none" stroke="midnightblue" d="M469,-292.083C469,-285.006 469,-274.861 469,-265.986"/>
<polygon fill="midnightblue" stroke="midnightblue" points="472.5,-265.751 469,-255.751 465.5,-265.751 472.5,-265.751"/>
</g>
<!-- Node23 -->
<g id="node55" class="node"><title>Node23</title>
<a xlink:href="stringUtils_8h.html" target="_top" xlink:title="Contains declarations for string manipulation functions within Cantera. ">
<polygon fill="white" stroke="black" points="678.5,-112.5 678.5,-131.5 807.5,-131.5 807.5,-112.5 678.5,-112.5"/>
<text text-anchor="middle" x="743" y="-119.5" font-family="FreeSans" font-size="10.00">cantera/base/stringUtils.h</text>
</a>
</g>
<!-- Node1&#45;&gt;Node23 -->
<g id="edge64" class="edge"><title>Node1&#45;&gt;Node23</title>
<path fill="none" stroke="midnightblue" d="M485.938,-292.363C502.726,-283.651 529.04,-269.581 551,-256 615.9,-215.864 689.134,-162.867 723.38,-137.606"/>
<polygon fill="midnightblue" stroke="midnightblue" points="725.638,-140.289 731.594,-131.527 721.473,-134.663 725.638,-140.289"/>
</g>
<!-- Node3 -->
<g id="node5" class="node"><title>Node3</title>
<a xlink:href="SpeciesThermoInterpType_8h.html" target="_top" xlink:title="Pure Virtual Base class for individual species reference state thermodynamic managers and text for th...">
<polygon fill="white" stroke="black" points="222,-169 222,-199 382,-199 382,-169 222,-169"/>
<text text-anchor="start" x="230" y="-187" font-family="FreeSans" font-size="10.00">cantera/thermo/SpeciesThermo</text>
<text text-anchor="middle" x="302" y="-176" font-family="FreeSans" font-size="10.00">InterpType.h</text>
</a>
</g>
<!-- Node2&#45;&gt;Node3 -->
<g id="edge4" class="edge"><title>Node2&#45;&gt;Node3</title>
<path fill="none" stroke="midnightblue" d="M314.851,-236.403C313.066,-229.265 310.438,-218.752 308.023,-209.09"/>
<polygon fill="midnightblue" stroke="midnightblue" points="311.356,-207.993 305.535,-199.141 304.565,-209.691 311.356,-207.993"/>
</g>
<!-- Node4 -->
<g id="node7" class="node"><title>Node4</title>
<a xlink:href="ct__defs_8h.html" target="_top" xlink:title="This file contains definitions of terms that are used in internal routines and are unlikely to need m...">
<polygon fill="white" stroke="black" points="388.5,-56.5 388.5,-75.5 507.5,-75.5 507.5,-56.5 388.5,-56.5"/>
<text text-anchor="middle" x="448" y="-63.5" font-family="FreeSans" font-size="10.00">cantera/base/ct_defs.h</text>
</a>
</g>
<!-- Node3&#45;&gt;Node4 -->
<g id="edge6" class="edge"><title>Node3&#45;&gt;Node4</title>
<path fill="none" stroke="midnightblue" d="M301.357,-168.926C301.411,-153.151 303.934,-127.73 318,-112 333.671,-94.4753 356.51,-83.7742 378.689,-77.2403"/>
<polygon fill="midnightblue" stroke="midnightblue" points="379.722,-80.5869 388.466,-74.6048 377.9,-73.8282 379.722,-80.5869"/>
</g>
<!-- Node3&#45;&gt;Node11 -->
<g id="edge20" class="edge"><title>Node3&#45;&gt;Node11</title>
<path fill="none" stroke="midnightblue" d="M277.851,-168.933C261.25,-159.262 239.306,-146.479 222.784,-136.855"/>
<polygon fill="midnightblue" stroke="midnightblue" points="224.166,-133.609 213.763,-131.6 220.642,-139.658 224.166,-133.609"/>
</g>
<!-- Node5 -->
<g id="node9" class="node"><title>Node5</title>
<a xlink:href="config_8h_source.html" target="_top" xlink:title="config.h">
<polygon fill="white" stroke="black" points="293.5,-0.5 293.5,-19.5 344.5,-19.5 344.5,-0.5 293.5,-0.5"/>
<text text-anchor="middle" x="319" y="-7.5" font-family="FreeSans" font-size="10.00">config.h</text>
</a>
</g>
<!-- Node4&#45;&gt;Node5 -->
<g id="edge8" class="edge"><title>Node4&#45;&gt;Node5</title>
<path fill="none" stroke="midnightblue" d="M427.56,-56.4435C406.33,-47.5566 372.901,-33.5632 348.745,-23.4514"/>
<polygon fill="midnightblue" stroke="midnightblue" points="349.921,-20.1493 339.345,-19.5164 347.218,-26.6064 349.921,-20.1493"/>
</g>
<!-- Node6 -->
<g id="node11" class="node"><title>Node6</title>
<polygon fill="white" stroke="#bfbfbf" points="363,-0.5 363,-19.5 407,-19.5 407,-0.5 363,-0.5"/>
<text text-anchor="middle" x="385" y="-7.5" font-family="FreeSans" font-size="10.00">cmath</text>
</g>
<!-- Node4&#45;&gt;Node6 -->
<g id="edge10" class="edge"><title>Node4&#45;&gt;Node6</title>
<path fill="none" stroke="midnightblue" d="M437.878,-56.324C428.474,-48.2631 414.256,-36.0765 402.931,-26.3695"/>
<polygon fill="midnightblue" stroke="midnightblue" points="405.177,-23.6844 395.306,-19.8339 400.621,-28.9993 405.177,-23.6844"/>
</g>
<!-- Node7 -->
<g id="node13" class="node"><title>Node7</title>
<polygon fill="white" stroke="#bfbfbf" points="425.5,-0.5 425.5,-19.5 470.5,-19.5 470.5,-0.5 425.5,-0.5"/>
<text text-anchor="middle" x="448" y="-7.5" font-family="FreeSans" font-size="10.00">cstdlib</text>
</g>
<!-- Node4&#45;&gt;Node7 -->
<g id="edge12" class="edge"><title>Node4&#45;&gt;Node7</title>
<path fill="none" stroke="midnightblue" d="M448,-56.083C448,-49.0059 448,-38.8611 448,-29.9865"/>
<polygon fill="midnightblue" stroke="midnightblue" points="451.5,-29.751 448,-19.7511 444.5,-29.7511 451.5,-29.751"/>
</g>
<!-- Node8 -->
<g id="node15" class="node"><title>Node8</title>
<polygon fill="white" stroke="#bfbfbf" points="489,-0.5 489,-19.5 533,-19.5 533,-0.5 489,-0.5"/>
<text text-anchor="middle" x="511" y="-7.5" font-family="FreeSans" font-size="10.00">vector</text>
</g>
<!-- Node4&#45;&gt;Node8 -->
<g id="edge14" class="edge"><title>Node4&#45;&gt;Node8</title>
<path fill="none" stroke="midnightblue" d="M458.122,-56.324C467.526,-48.2631 481.744,-36.0765 493.069,-26.3695"/>
<polygon fill="midnightblue" stroke="midnightblue" points="495.379,-28.9993 500.694,-19.8339 490.823,-23.6844 495.379,-28.9993"/>
</g>
<!-- Node9 -->
<g id="node17" class="node"><title>Node9</title>
<polygon fill="white" stroke="#bfbfbf" points="551,-0.5 551,-19.5 587,-19.5 587,-0.5 551,-0.5"/>
<text text-anchor="middle" x="569" y="-7.5" font-family="FreeSans" font-size="10.00">map</text>
</g>
<!-- Node4&#45;&gt;Node9 -->
<g id="edge16" class="edge"><title>Node4&#45;&gt;Node9</title>
<path fill="none" stroke="midnightblue" d="M467.173,-56.4435C487.141,-47.532 518.616,-33.4856 541.288,-23.3674"/>
<polygon fill="midnightblue" stroke="midnightblue" points="543.003,-26.4346 550.709,-19.1629 540.151,-20.0422 543.003,-26.4346"/>
</g>
<!-- Node10 -->
<g id="node19" class="node"><title>Node10</title>
<polygon fill="white" stroke="#bfbfbf" points="722.5,-0.5 722.5,-19.5 763.5,-19.5 763.5,-0.5 722.5,-0.5"/>
<text text-anchor="middle" x="743" y="-7.5" font-family="FreeSans" font-size="10.00">string</text>
</g>
<!-- Node4&#45;&gt;Node10 -->
<g id="edge18" class="edge"><title>Node4&#45;&gt;Node10</title>
<path fill="none" stroke="midnightblue" d="M494.744,-56.4435C555.693,-45.2867 660.609,-26.0817 712.338,-16.6127"/>
<polygon fill="midnightblue" stroke="midnightblue" points="713.034,-20.0435 722.241,-14.8 711.774,-13.1579 713.034,-20.0435"/>
</g>
<!-- Node12&#45;&gt;Node10 -->
<g id="edge26" class="edge"><title>Node12&#45;&gt;Node10</title>
<path fill="none" stroke="midnightblue" d="M896.742,-112.159C895.862,-98.3294 892.165,-71.5561 877,-56 849.571,-27.8626 804.031,-17.3188 773.767,-13.3678"/>
<polygon fill="midnightblue" stroke="midnightblue" points="774.086,-9.88157 763.754,-12.2272 773.293,-16.8366 774.086,-9.88157"/>
</g>
<!-- Node13 -->
<g id="node25" class="node"><title>Node13</title>
<polygon fill="white" stroke="#bfbfbf" points="809,-56.5 809,-75.5 869,-75.5 869,-56.5 809,-56.5"/>
<text text-anchor="middle" x="839" y="-63.5" font-family="FreeSans" font-size="10.00">exception</text>
</g>
<!-- Node12&#45;&gt;Node13 -->
<g id="edge24" class="edge"><title>Node12&#45;&gt;Node13</title>
<path fill="none" stroke="midnightblue" d="M887.681,-112.324C879.107,-104.341 866.188,-92.3128 855.812,-82.6529"/>
<polygon fill="midnightblue" stroke="midnightblue" points="858.192,-80.0865 848.488,-75.8339 853.422,-85.2098 858.192,-80.0865"/>
</g>
<!-- Node14&#45;&gt;Node4 -->
<g id="edge32" class="edge"><title>Node14&#45;&gt;Node4</title>
<path fill="none" stroke="midnightblue" d="M82.9578,-236.49C83.3413,-212.604 87.9685,-144.563 127,-112 164.022,-81.1139 295.299,-71.4137 378.066,-68.3757"/>
<polygon fill="midnightblue" stroke="midnightblue" points="378.285,-71.8703 388.159,-68.0293 378.044,-64.8745 378.285,-71.8703"/>
</g>
<!-- Node15&#45;&gt;Node12 -->
<g id="edge36" class="edge"><title>Node15&#45;&gt;Node12</title>
<path fill="none" stroke="midnightblue" d="M609.642,-174.467C670.169,-163.626 774.547,-144.932 839.457,-133.306"/>
<polygon fill="midnightblue" stroke="midnightblue" points="840.296,-136.712 849.523,-131.503 839.062,-129.821 840.296,-136.712"/>
</g>
<!-- Node16 -->
<g id="node35" class="node"><title>Node16</title>
<a xlink:href="global_8h.html" target="_top" xlink:title="This file contains definitions for utility functions and text for modules, inputfiles, logs, textlogs, HTML_logs (see Input File Handling, Diagnostic Output, Writing messages to the screen and Writing HTML Logfiles). ">
<polygon fill="white" stroke="black" points="536,-112.5 536,-131.5 588,-131.5 588,-112.5 536,-112.5"/>
<text text-anchor="middle" x="562" y="-119.5" font-family="FreeSans" font-size="10.00">global.h</text>
</a>
</g>
<!-- Node15&#45;&gt;Node16 -->
<g id="edge38" class="edge"><title>Node15&#45;&gt;Node16</title>
<path fill="none" stroke="midnightblue" d="M562,-174.403C562,-165.938 562,-152.728 562,-141.82"/>
<polygon fill="midnightblue" stroke="midnightblue" points="565.5,-141.581 562,-131.581 558.5,-141.581 565.5,-141.581"/>
</g>
<!-- Node16&#45;&gt;Node4 -->
<g id="edge40" class="edge"><title>Node16&#45;&gt;Node4</title>
<path fill="none" stroke="midnightblue" d="M543.936,-112.444C525.425,-103.675 496.419,-89.9355 475.145,-79.8579"/>
<polygon fill="midnightblue" stroke="midnightblue" points="476.515,-76.6343 465.979,-75.5164 473.518,-82.9604 476.515,-76.6343"/>
</g>
<!-- Node17&#45;&gt;Node4 -->
<g id="edge44" class="edge"><title>Node17&#45;&gt;Node4</title>
<path fill="none" stroke="midnightblue" d="M459,-236.301C439.791,-218.845 398.284,-177.32 383,-132 380.159,-123.577 378.875,-119.874 383,-112 390.279,-98.1082 404.009,-87.6523 416.983,-80.3328"/>
<polygon fill="midnightblue" stroke="midnightblue" points="418.928,-83.2662 426.192,-75.553 415.704,-77.0532 418.928,-83.2662"/>
</g>
<!-- Node17&#45;&gt;Node15 -->
<g id="edge46" class="edge"><title>Node17&#45;&gt;Node15</title>
<path fill="none" stroke="midnightblue" d="M482.325,-236.403C497.38,-226.691 522.116,-210.732 540.037,-199.17"/>
<polygon fill="midnightblue" stroke="midnightblue" points="542.195,-201.943 548.7,-193.581 538.4,-196.061 542.195,-201.943"/>
</g>
<!-- Node18 -->
<g id="node42" class="node"><title>Node18</title>
<a xlink:href="Array_8h.html" target="_top" xlink:title="Header file for class Cantera::Array2D. ">
<polygon fill="white" stroke="black" points="445,-174.5 445,-193.5 493,-193.5 493,-174.5 445,-174.5"/>
<text text-anchor="middle" x="469" y="-181.5" font-family="FreeSans" font-size="10.00">Array.h</text>
</a>
</g>
<!-- Node17&#45;&gt;Node18 -->
<g id="edge48" class="edge"><title>Node17&#45;&gt;Node18</title>
<path fill="none" stroke="midnightblue" d="M469,-236.403C469,-227.938 469,-214.728 469,-203.82"/>
<polygon fill="midnightblue" stroke="midnightblue" points="472.5,-203.581 469,-193.581 465.5,-203.581 472.5,-203.581"/>
</g>
<!-- Node18&#45;&gt;Node4 -->
<g id="edge50" class="edge"><title>Node18&#45;&gt;Node4</title>
<path fill="none" stroke="midnightblue" d="M444.94,-174.997C425.966,-167.265 400.801,-153.518 389,-132 377.892,-111.746 400.62,-92.6901 421.011,-80.5134"/>
<polygon fill="midnightblue" stroke="midnightblue" points="422.79,-83.5286 429.793,-75.578 419.36,-77.4263 422.79,-83.5286"/>
</g>
<!-- Node18&#45;&gt;Node12 -->
<g id="edge52" class="edge"><title>Node18&#45;&gt;Node12</title>
<path fill="none" stroke="midnightblue" d="M485.07,-174.478C490.335,-172.02 496.299,-169.578 502,-168 505.753,-166.961 700.691,-145.004 815.271,-132.152"/>
<polygon fill="midnightblue" stroke="midnightblue" points="815.871,-135.606 825.418,-131.014 815.09,-128.65 815.871,-135.606"/>
</g>
<!-- Node19 -->
<g id="node46" class="node"><title>Node19</title>
<a xlink:href="utilities_8h.html" target="_top" xlink:title="Various templated functions that carry out common vector operations (see Templated Utility Functions)...">
<polygon fill="white" stroke="black" points="606,-112.5 606,-131.5 660,-131.5 660,-112.5 606,-112.5"/>
<text text-anchor="middle" x="633" y="-119.5" font-family="FreeSans" font-size="10.00">utilities.h</text>
</a>
</g>
<!-- Node18&#45;&gt;Node19 -->
<g id="edge54" class="edge"><title>Node18&#45;&gt;Node19</title>
<path fill="none" stroke="midnightblue" d="M487.021,-174.432C491.847,-172.242 497.088,-169.955 502,-168 533.402,-155.503 569.809,-143.164 596.26,-134.577"/>
<polygon fill="midnightblue" stroke="midnightblue" points="597.434,-137.876 605.879,-131.477 595.287,-131.213 597.434,-137.876"/>
</g>
<!-- Node21 -->
<g id="node51" class="node"><title>Node21</title>
<polygon fill="white" stroke="#bfbfbf" points="398,-112.5 398,-131.5 454,-131.5 454,-112.5 398,-112.5"/>
<text text-anchor="middle" x="426" y="-119.5" font-family="FreeSans" font-size="10.00">iostream</text>
</g>
<!-- Node18&#45;&gt;Node21 -->
<g id="edge60" class="edge"><title>Node18&#45;&gt;Node21</title>
<path fill="none" stroke="midnightblue" d="M462.839,-174.403C456.389,-165.403 446.096,-151.041 438.027,-139.782"/>
<polygon fill="midnightblue" stroke="midnightblue" points="440.82,-137.67 432.149,-131.581 435.13,-141.748 440.82,-137.67"/>
</g>
<!-- Node22 -->
<g id="node53" class="node"><title>Node22</title>
<polygon fill="white" stroke="#bfbfbf" points="472,-112.5 472,-131.5 518,-131.5 518,-112.5 472,-112.5"/>
<text text-anchor="middle" x="495" y="-119.5" font-family="FreeSans" font-size="10.00">cstring</text>
</g>
<!-- Node18&#45;&gt;Node22 -->
<g id="edge62" class="edge"><title>Node18&#45;&gt;Node22</title>
<path fill="none" stroke="midnightblue" d="M472.725,-174.403C476.509,-165.671 482.481,-151.889 487.289,-140.794"/>
<polygon fill="midnightblue" stroke="midnightblue" points="490.517,-142.148 491.282,-131.581 484.094,-139.365 490.517,-142.148"/>
</g>
<!-- Node19&#45;&gt;Node4 -->
<g id="edge56" class="edge"><title>Node19&#45;&gt;Node4</title>
<path fill="none" stroke="midnightblue" d="M605.703,-113.032C574.417,-103.9 522.883,-88.8578 487.285,-78.467"/>
<polygon fill="midnightblue" stroke="midnightblue" points="487.824,-74.9782 477.244,-75.536 485.862,-81.6978 487.824,-74.9782"/>
</g>
<!-- Node20 -->
<g id="node49" class="node"><title>Node20</title>
<polygon fill="white" stroke="#bfbfbf" points="604,-56.5 604,-75.5 662,-75.5 662,-56.5 604,-56.5"/>
<text text-anchor="middle" x="633" y="-63.5" font-family="FreeSans" font-size="10.00">algorithm</text>
</g>
<!-- Node19&#45;&gt;Node20 -->
<g id="edge58" class="edge"><title>Node19&#45;&gt;Node20</title>
<path fill="none" stroke="midnightblue" d="M633,-112.083C633,-105.006 633,-94.8611 633,-85.9865"/>
<polygon fill="midnightblue" stroke="midnightblue" points="636.5,-85.751 633,-75.7511 629.5,-85.7511 636.5,-85.751"/>
</g>
<!-- Node23&#45;&gt;Node4 -->
<g id="edge66" class="edge"><title>Node23&#45;&gt;Node4</title>
<path fill="none" stroke="midnightblue" d="M696.256,-112.444C644.255,-102.925 560.249,-87.5472 504.576,-77.3563"/>
<polygon fill="midnightblue" stroke="midnightblue" points="504.992,-73.8743 494.525,-75.5164 503.731,-80.7599 504.992,-73.8743"/>
</g>
<!-- Node23&#45;&gt;Node10 -->
<g id="edge68" class="edge"><title>Node23&#45;&gt;Node10</title>
<path fill="none" stroke="midnightblue" d="M743,-112.368C743,-94.617 743,-53.6664 743,-29.5974"/>
<polygon fill="midnightblue" stroke="midnightblue" points="746.5,-29.5914 743,-19.5914 739.5,-29.5915 746.5,-29.5914"/>
</g>
</g>
</svg>
