<?xml version="1.0" encoding="UTF-8" standalone="no"?>
<!DOCTYPE svg PUBLIC "-//W3C//DTD SVG 1.1//EN"
 "http://www.w3.org/Graphics/SVG/1.1/DTD/svg11.dtd">
<!-- Generated by graphviz version 2.38.0 (20140413.2041)
 -->
<!-- Title: Mu0Poly.cpp Pages: 1 -->
<svg width="696pt" height="375pt"
 viewBox="0.00 0.00 695.69 375.00" xmlns="http://www.w3.org/2000/svg" xmlns:xlink="http://www.w3.org/1999/xlink">
<g id="graph0" class="graph" transform="scale(1 1) rotate(0) translate(4 371)">
<title>Mu0Poly.cpp</title>
<polygon fill="white" stroke="none" points="-4,4 -4,-371 691.688,-371 691.688,4 -4,4"/>
<!-- Node1 -->
<g id="node1" class="node"><title>Node1</title>
<polygon fill="#bfbfbf" stroke="black" points="240.188,-347.5 240.188,-366.5 314.188,-366.5 314.188,-347.5 240.188,-347.5"/>
<text text-anchor="middle" x="277.188" y="-354.5" font-family="Helvetica,sans-Serif" font-size="10.00">Mu0Poly.cpp</text>
</g>
<!-- Node2 -->
<g id="node2" class="node"><title>Node2</title>
<g id="a_node2"><a xlink:href="Mu0Poly_8h.html" target="_top" xlink:title="Header for a single&#45;species standard state object derived from SpeciesThermoInterpType based on a pie...">
<polygon fill="white" stroke="black" points="211.688,-291.5 211.688,-310.5 342.688,-310.5 342.688,-291.5 211.688,-291.5"/>
<text text-anchor="middle" x="277.188" y="-298.5" font-family="Helvetica,sans-Serif" font-size="10.00">cantera/thermo/Mu0Poly.h</text>
</a>
</g>
</g>
<!-- Node1&#45;&gt;Node2 -->
<g id="edge1" class="edge"><title>Node1&#45;&gt;Node2</title>
<path fill="none" stroke="midnightblue" d="M277.188,-347.083C277.188,-340.006 277.188,-329.861 277.188,-320.986"/>
<polygon fill="midnightblue" stroke="midnightblue" points="280.689,-320.751 277.188,-310.751 273.689,-320.751 280.689,-320.751"/>
</g>
<!-- Node18 -->
<g id="node18" class="node"><title>Node18</title>
<g id="a_node18"><a xlink:href="ctml_8h.html" target="_top" xlink:title="CTML (&quot;Cantera Markup Language&quot;) is the variant of XML that Cantera uses to store data...">
<polygon fill="white" stroke="black" points="86.6885,-291.5 86.6885,-310.5 189.688,-310.5 189.688,-291.5 86.6885,-291.5"/>
<text text-anchor="middle" x="138.188" y="-298.5" font-family="Helvetica,sans-Serif" font-size="10.00">cantera/base/ctml.h</text>
</a>
</g>
</g>
<!-- Node1&#45;&gt;Node18 -->
<g id="edge20" class="edge"><title>Node1&#45;&gt;Node18</title>
<path fill="none" stroke="midnightblue" d="M255.164,-347.444C232.085,-338.478 195.626,-324.314 169.548,-314.183"/>
<polygon fill="midnightblue" stroke="midnightblue" points="170.699,-310.875 160.11,-310.516 168.164,-317.4 170.699,-310.875"/>
</g>
<!-- Node20 -->
<g id="node20" class="node"><title>Node20</title>
<g id="a_node20"><a xlink:href="stringUtils_8h.html" target="_top" xlink:title="Contains declarations for string manipulation functions within Cantera. ">
<polygon fill="white" stroke="black" points="474.188,-168.5 474.188,-187.5 602.188,-187.5 602.188,-168.5 474.188,-168.5"/>
<text text-anchor="middle" x="538.188" y="-175.5" font-family="Helvetica,sans-Serif" font-size="10.00">cantera/base/stringUtils.h</text>
</a>
</g>
</g>
<!-- Node1&#45;&gt;Node20 -->
<g id="edge25" class="edge"><title>Node1&#45;&gt;Node20</title>
<path fill="none" stroke="midnightblue" d="M291.834,-347.494C306.896,-338.653 330.946,-324.277 351.188,-311 413.415,-270.186 484.667,-218.45 518.443,-193.611"/>
<polygon fill="midnightblue" stroke="midnightblue" points="520.594,-196.373 526.567,-187.623 516.44,-190.739 520.594,-196.373"/>
</g>
<!-- Node3 -->
<g id="node3" class="node"><title>Node3</title>
<g id="a_node3"><a xlink:href="SpeciesThermoInterpType_8h.html" target="_top" xlink:title="Pure Virtual Base class for individual species reference state thermodynamic managers and text for th...">
<polygon fill="white" stroke="black" points="200.688,-224.5 200.688,-254.5 353.688,-254.5 353.688,-224.5 200.688,-224.5"/>
<text text-anchor="start" x="208.688" y="-242.5" font-family="Helvetica,sans-Serif" font-size="10.00">cantera/thermo/SpeciesThermo</text>
<text text-anchor="middle" x="277.188" y="-231.5" font-family="Helvetica,sans-Serif" font-size="10.00">InterpType.h</text>
</a>
</g>
</g>
<!-- Node2&#45;&gt;Node3 -->
<g id="edge2" class="edge"><title>Node2&#45;&gt;Node3</title>
<path fill="none" stroke="midnightblue" d="M277.188,-291.475C277.188,-284.471 277.188,-274.192 277.188,-264.696"/>
<polygon fill="midnightblue" stroke="midnightblue" points="280.689,-264.523 277.188,-254.523 273.689,-264.523 280.689,-264.523"/>
</g>
<!-- Node4 -->
<g id="node4" class="node"><title>Node4</title>
<g id="a_node4"><a xlink:href="ct__defs_8h.html" target="_top" xlink:title="This file contains definitions of terms that are used in internal routines and are unlikely to need m...">
<polygon fill="white" stroke="black" points="244.188,-56.5 244.188,-75.5 360.188,-75.5 360.188,-56.5 244.188,-56.5"/>
<text text-anchor="middle" x="302.188" y="-63.5" font-family="Helvetica,sans-Serif" font-size="10.00">cantera/base/ct_defs.h</text>
</a>
</g>
</g>
<!-- Node3&#45;&gt;Node4 -->
<g id="edge3" class="edge"><title>Node3&#45;&gt;Node4</title>
<path fill="none" stroke="midnightblue" d="M353.721,-230.942C381.142,-224.112 409.398,-211.419 426.188,-188 458.504,-142.927 379.942,-100.011 333.458,-79.5277"/>
<polygon fill="midnightblue" stroke="midnightblue" points="334.647,-76.2294 324.077,-75.5045 331.888,-82.6627 334.647,-76.2294"/>
</g>
<!-- Node13 -->
<g id="node13" class="node"><title>Node13</title>
<g id="a_node13"><a xlink:href="speciesThermoTypes_8h.html" target="_top" xlink:title="Contains const definitions for types of species reference&#45;state thermodynamics managers (see Species ...">
<polygon fill="white" stroke="black" points="298.688,-168.5 298.688,-187.5 417.688,-187.5 417.688,-168.5 298.688,-168.5"/>
<text text-anchor="middle" x="358.188" y="-175.5" font-family="Helvetica,sans-Serif" font-size="10.00">speciesThermoTypes.h</text>
</a>
</g>
</g>
<!-- Node3&#45;&gt;Node13 -->
<g id="edge12" class="edge"><title>Node3&#45;&gt;Node13</title>
<path fill="none" stroke="midnightblue" d="M296.384,-224.399C309.004,-215.129 325.482,-203.025 338.249,-193.647"/>
<polygon fill="midnightblue" stroke="midnightblue" points="340.415,-196.399 346.402,-187.658 336.271,-190.757 340.415,-196.399"/>
</g>
<!-- Node14 -->
<g id="node14" class="node"><title>Node14</title>
<g id="a_node14"><a xlink:href="ctexceptions_8h.html" target="_top" xlink:title="Definitions for the classes that are thrown when Cantera experiences an error condition (also contain...">
<polygon fill="white" stroke="black" points="12.1885,-168.5 12.1885,-187.5 152.188,-187.5 152.188,-168.5 12.1885,-168.5"/>
<text text-anchor="middle" x="82.1885" y="-175.5" font-family="Helvetica,sans-Serif" font-size="10.00">cantera/base/ctexceptions.h</text>
</a>
</g>
</g>
<!-- Node3&#45;&gt;Node14 -->
<g id="edge13" class="edge"><title>Node3&#45;&gt;Node14</title>
<path fill="none" stroke="midnightblue" d="M230.976,-224.399C197.135,-214.073 151.769,-200.231 120.061,-190.556"/>
<polygon fill="midnightblue" stroke="midnightblue" points="120.864,-187.142 110.278,-187.571 118.821,-193.837 120.864,-187.142"/>
</g>
<!-- Node17 -->
<g id="node17" class="node"><title>Node17</title>
<g id="a_node17"><a xlink:href="global_8h.html" target="_top" xlink:title="This file contains definitions for utility functions and text for modules, inputfiles, logs, textlogs, (see Input File Handling, Diagnostic Output, and Writing messages to the screen). ">
<polygon fill="white" stroke="black" points="170.188,-168.5 170.188,-187.5 280.188,-187.5 280.188,-168.5 170.188,-168.5"/>
<text text-anchor="middle" x="225.188" y="-175.5" font-family="Helvetica,sans-Serif" font-size="10.00">cantera/base/global.h</text>
</a>
</g>
</g>
<!-- Node3&#45;&gt;Node17 -->
<g id="edge17" class="edge"><title>Node3&#45;&gt;Node17</title>
<path fill="none" stroke="midnightblue" d="M264.865,-224.399C257.231,-215.664 247.398,-204.413 239.431,-195.296"/>
<polygon fill="midnightblue" stroke="midnightblue" points="241.971,-192.884 232.755,-187.658 236.7,-197.491 241.971,-192.884"/>
</g>
<!-- Node5 -->
<g id="node5" class="node"><title>Node5</title>
<g id="a_node5"><a xlink:href="config_8h_source.html" target="_top" xlink:title="config.h">
<polygon fill="white" stroke="black" points="377.688,-0.5 377.688,-19.5 428.688,-19.5 428.688,-0.5 377.688,-0.5"/>
<text text-anchor="middle" x="403.188" y="-7.5" font-family="Helvetica,sans-Serif" font-size="10.00">config.h</text>
</a>
</g>
</g>
<!-- Node4&#45;&gt;Node5 -->
<g id="edge4" class="edge"><title>Node4&#45;&gt;Node5</title>
<path fill="none" stroke="midnightblue" d="M318.416,-56.324C334.54,-47.7034 359.489,-34.3643 378.153,-24.3855"/>
<polygon fill="midnightblue" stroke="midnightblue" points="379.833,-27.456 387.001,-19.6545 376.532,-21.283 379.833,-27.456"/>
</g>
<!-- Node6 -->
<g id="node6" class="node"><title>Node6</title>
<polygon fill="white" stroke="#bfbfbf" points="447.188,-0.5 447.188,-19.5 491.188,-19.5 491.188,-0.5 447.188,-0.5"/>
<text text-anchor="middle" x="469.188" y="-7.5" font-family="Helvetica,sans-Serif" font-size="10.00">cmath</text>
</g>
<!-- Node4&#45;&gt;Node6 -->
<g id="edge5" class="edge"><title>Node4&#45;&gt;Node6</title>
<path fill="none" stroke="midnightblue" d="M328.65,-56.4435C358.195,-46.8902 405.988,-31.436 437.501,-21.2461"/>
<polygon fill="midnightblue" stroke="midnightblue" points="438.679,-24.5438 447.117,-18.1368 436.525,-17.8833 438.679,-24.5438"/>
</g>
<!-- Node7 -->
<g id="node7" class="node"><title>Node7</title>
<polygon fill="white" stroke="#bfbfbf" points="53.6885,-0.5 53.6885,-19.5 98.6885,-19.5 98.6885,-0.5 53.6885,-0.5"/>
<text text-anchor="middle" x="76.1885" y="-7.5" font-family="Helvetica,sans-Serif" font-size="10.00">cstdlib</text>
</g>
<!-- Node4&#45;&gt;Node7 -->
<g id="edge6" class="edge"><title>Node4&#45;&gt;Node7</title>
<path fill="none" stroke="midnightblue" d="M263.043,-56.4778C225.84,-48.2544 168.099,-35.1712 108.795,-20.0631"/>
<polygon fill="midnightblue" stroke="midnightblue" points="109.435,-16.6141 98.8792,-17.5215 107.697,-23.3949 109.435,-16.6141"/>
</g>
<!-- Node8 -->
<g id="node8" class="node"><title>Node8</title>
<polygon fill="white" stroke="#bfbfbf" points="117.188,-0.5 117.188,-19.5 161.188,-19.5 161.188,-0.5 117.188,-0.5"/>
<text text-anchor="middle" x="139.188" y="-7.5" font-family="Helvetica,sans-Serif" font-size="10.00">vector</text>
</g>
<!-- Node4&#45;&gt;Node8 -->
<g id="edge7" class="edge"><title>Node4&#45;&gt;Node8</title>
<path fill="none" stroke="midnightblue" d="M276.361,-56.4435C247.81,-46.985 201.799,-31.7421 171.037,-21.551"/>
<polygon fill="midnightblue" stroke="midnightblue" points="171.83,-18.1266 161.236,-18.3042 169.628,-24.7715 171.83,-18.1266"/>
</g>
<!-- Node9 -->
<g id="node9" class="node"><title>Node9</title>
<polygon fill="white" stroke="#bfbfbf" points="179.688,-0.5 179.688,-19.5 214.688,-19.5 214.688,-0.5 179.688,-0.5"/>
<text text-anchor="middle" x="197.188" y="-7.5" font-family="Helvetica,sans-Serif" font-size="10.00">map</text>
</g>
<!-- Node4&#45;&gt;Node9 -->
<g id="edge8" class="edge"><title>Node4&#45;&gt;Node9</title>
<path fill="none" stroke="midnightblue" d="M285.318,-56.324C268.48,-47.6641 242.382,-34.2424 222.95,-24.249"/>
<polygon fill="midnightblue" stroke="midnightblue" points="224.51,-21.1155 214.017,-19.6545 221.309,-27.3405 224.51,-21.1155"/>
</g>
<!-- Node10 -->
<g id="node10" class="node"><title>Node10</title>
<polygon fill="white" stroke="#bfbfbf" points="509.688,-0.5 509.688,-19.5 550.688,-19.5 550.688,-0.5 509.688,-0.5"/>
<text text-anchor="middle" x="530.188" y="-7.5" font-family="Helvetica,sans-Serif" font-size="10.00">string</text>
</g>
<!-- Node4&#45;&gt;Node10 -->
<g id="edge9" class="edge"><title>Node4&#45;&gt;Node10</title>
<path fill="none" stroke="midnightblue" d="M343.724,-56.4195C381.806,-48.3609 439.96,-35.5756 499.611,-20.0077"/>
<polygon fill="midnightblue" stroke="midnightblue" points="500.804,-23.3129 509.584,-17.3822 499.022,-16.5435 500.804,-23.3129"/>
</g>
<!-- Node11 -->
<g id="node11" class="node"><title>Node11</title>
<polygon fill="white" stroke="#bfbfbf" points="233.188,-0.5 233.188,-19.5 289.188,-19.5 289.188,-0.5 233.188,-0.5"/>
<text text-anchor="middle" x="261.188" y="-7.5" font-family="Helvetica,sans-Serif" font-size="10.00">algorithm</text>
</g>
<!-- Node4&#45;&gt;Node11 -->
<g id="edge10" class="edge"><title>Node4&#45;&gt;Node11</title>
<path fill="none" stroke="midnightblue" d="M295.418,-56.083C289.627,-48.4554 281.13,-37.2645 274.051,-27.9408"/>
<polygon fill="midnightblue" stroke="midnightblue" points="276.668,-25.5991 267.833,-19.7511 271.092,-29.8321 276.668,-25.5991"/>
</g>
<!-- Node12 -->
<g id="node12" class="node"><title>Node12</title>
<polygon fill="white" stroke="#bfbfbf" points="307.188,-0.5 307.188,-19.5 359.188,-19.5 359.188,-0.5 307.188,-0.5"/>
<text text-anchor="middle" x="333.188" y="-7.5" font-family="Helvetica,sans-Serif" font-size="10.00">memory</text>
</g>
<!-- Node4&#45;&gt;Node12 -->
<g id="edge11" class="edge"><title>Node4&#45;&gt;Node12</title>
<path fill="none" stroke="midnightblue" d="M307.308,-56.083C311.596,-48.6127 317.847,-37.7244 323.131,-28.5199"/>
<polygon fill="midnightblue" stroke="midnightblue" points="326.221,-30.1662 328.165,-19.7511 320.151,-26.6811 326.221,-30.1662"/>
</g>
<!-- Node15 -->
<g id="node15" class="node"><title>Node15</title>
<g id="a_node15"><a xlink:href="fmt_8h.html" target="_top" xlink:title="Wrapper for either system&#45;installed or local headers for fmt. ">
<polygon fill="white" stroke="red" points="253.188,-112.5 253.188,-131.5 351.188,-131.5 351.188,-112.5 253.188,-112.5"/>
<text text-anchor="middle" x="302.188" y="-119.5" font-family="Helvetica,sans-Serif" font-size="10.00">cantera/base/fmt.h</text>
</a>
</g>
</g>
<!-- Node14&#45;&gt;Node15 -->
<g id="edge14" class="edge"><title>Node14&#45;&gt;Node15</title>
<path fill="none" stroke="midnightblue" d="M117.048,-168.444C155.105,-159.102 216.146,-144.119 257.648,-133.933"/>
<polygon fill="midnightblue" stroke="midnightblue" points="258.615,-137.299 267.492,-131.516 256.946,-130.501 258.615,-137.299"/>
</g>
<!-- Node16 -->
<g id="node16" class="node"><title>Node16</title>
<polygon fill="white" stroke="#bfbfbf" points="52.6885,-112.5 52.6885,-131.5 111.688,-131.5 111.688,-112.5 52.6885,-112.5"/>
<text text-anchor="middle" x="82.1885" y="-119.5" font-family="Helvetica,sans-Serif" font-size="10.00">exception</text>
</g>
<!-- Node14&#45;&gt;Node16 -->
<g id="edge16" class="edge"><title>Node14&#45;&gt;Node16</title>
<path fill="none" stroke="midnightblue" d="M82.1885,-168.083C82.1885,-161.006 82.1885,-150.861 82.1885,-141.986"/>
<polygon fill="midnightblue" stroke="midnightblue" points="85.6886,-141.751 82.1885,-131.751 78.6886,-141.751 85.6886,-141.751"/>
</g>
<!-- Node15&#45;&gt;Node4 -->
<g id="edge15" class="edge"><title>Node15&#45;&gt;Node4</title>
<path fill="none" stroke="midnightblue" d="M302.188,-112.083C302.188,-105.006 302.188,-94.8611 302.188,-85.9865"/>
<polygon fill="midnightblue" stroke="midnightblue" points="305.689,-85.751 302.188,-75.7511 298.689,-85.7511 305.689,-85.751"/>
</g>
<!-- Node17&#45;&gt;Node4 -->
<g id="edge18" class="edge"><title>Node17&#45;&gt;Node4</title>
<path fill="none" stroke="midnightblue" d="M226.015,-168.28C227.624,-155.079 232.148,-129.688 244.188,-112 252.761,-99.4068 265.973,-88.763 277.623,-80.9937"/>
<polygon fill="midnightblue" stroke="midnightblue" points="279.536,-83.9251 286.124,-75.6281 275.8,-78.0055 279.536,-83.9251"/>
</g>
<!-- Node17&#45;&gt;Node15 -->
<g id="edge19" class="edge"><title>Node17&#45;&gt;Node15</title>
<path fill="none" stroke="midnightblue" d="M237.56,-168.324C249.347,-160.058 267.321,-147.453 281.324,-137.632"/>
<polygon fill="midnightblue" stroke="midnightblue" points="283.67,-140.262 289.848,-131.655 279.651,-134.531 283.67,-140.262"/>
</g>
<!-- Node18&#45;&gt;Node4 -->
<g id="edge21" class="edge"><title>Node18&#45;&gt;Node4</title>
<path fill="none" stroke="midnightblue" d="M115.524,-291.456C72.2213,-273.597 -16.3184,-228.871 3.1885,-168 12.5227,-138.873 17.2952,-128.28 43.1885,-112 74.1785,-92.5152 168.031,-79.78 233.794,-72.9863"/>
<polygon fill="midnightblue" stroke="midnightblue" points="234.495,-76.4334 244.093,-71.9469 233.792,-69.4688 234.495,-76.4334"/>
</g>
<!-- Node19 -->
<g id="node19" class="node"><title>Node19</title>
<g id="a_node19"><a xlink:href="xml_8h.html" target="_top" xlink:title="Classes providing support for XML data files. ">
<polygon fill="white" stroke="black" points="117.688,-230 117.688,-249 158.688,-249 158.688,-230 117.688,-230"/>
<text text-anchor="middle" x="138.188" y="-237" font-family="Helvetica,sans-Serif" font-size="10.00">xml.h</text>
</a>
</g>
</g>
<!-- Node18&#45;&gt;Node19 -->
<g id="edge22" class="edge"><title>Node18&#45;&gt;Node19</title>
<path fill="none" stroke="midnightblue" d="M138.188,-291.475C138.188,-283.08 138.188,-269.981 138.188,-259.163"/>
<polygon fill="midnightblue" stroke="midnightblue" points="141.689,-259.009 138.188,-249.009 134.689,-259.009 141.689,-259.009"/>
</g>
<!-- Node19&#45;&gt;Node14 -->
<g id="edge23" class="edge"><title>Node19&#45;&gt;Node14</title>
<path fill="none" stroke="midnightblue" d="M130.165,-229.975C121.599,-220.873 107.827,-206.241 97.2313,-194.983"/>
<polygon fill="midnightblue" stroke="midnightblue" points="99.5994,-192.392 90.197,-187.509 94.502,-197.19 99.5994,-192.392"/>
</g>
<!-- Node19&#45;&gt;Node17 -->
<g id="edge24" class="edge"><title>Node19&#45;&gt;Node17</title>
<path fill="none" stroke="midnightblue" d="M150.653,-229.975C164.608,-220.431 187.453,-204.807 204.179,-193.368"/>
<polygon fill="midnightblue" stroke="midnightblue" points="206.468,-196.043 212.747,-187.509 202.517,-190.265 206.468,-196.043"/>
</g>
<!-- Node20&#45;&gt;Node4 -->
<g id="edge26" class="edge"><title>Node20&#45;&gt;Node4</title>
<path fill="none" stroke="midnightblue" d="M529.955,-168.063C516.614,-154.102 488.866,-127.153 460.188,-112 429.489,-95.7788 392.257,-84.809 361.649,-77.7644"/>
<polygon fill="midnightblue" stroke="midnightblue" points="362.061,-74.271 351.541,-75.5239 360.547,-81.1051 362.061,-74.271"/>
</g>
<!-- Node20&#45;&gt;Node10 -->
<g id="edge29" class="edge"><title>Node20&#45;&gt;Node10</title>
<path fill="none" stroke="midnightblue" d="M537.758,-168.075C536.499,-141.945 532.801,-65.2106 531.084,-29.577"/>
<polygon fill="midnightblue" stroke="midnightblue" points="534.579,-29.388 530.601,-19.5681 527.587,-29.725 534.579,-29.388"/>
</g>
<!-- Node20&#45;&gt;Node15 -->
<g id="edge27" class="edge"><title>Node20&#45;&gt;Node15</title>
<path fill="none" stroke="midnightblue" d="M500.794,-168.444C459.797,-159.063 393.934,-143.993 349.404,-133.804"/>
<polygon fill="midnightblue" stroke="midnightblue" points="349.937,-130.335 339.408,-131.516 348.376,-137.159 349.937,-130.335"/>
</g>
<!-- Node21 -->
<g id="node21" class="node"><title>Node21</title>
<polygon fill="white" stroke="#bfbfbf" points="558.688,-112.5 558.688,-131.5 687.688,-131.5 687.688,-112.5 558.688,-112.5"/>
<text text-anchor="middle" x="623.188" y="-119.5" font-family="Helvetica,sans-Serif" font-size="10.00">boost/algorithm/string.hpp</text>
</g>
<!-- Node20&#45;&gt;Node21 -->
<g id="edge28" class="edge"><title>Node20&#45;&gt;Node21</title>
<path fill="none" stroke="midnightblue" d="M551.845,-168.324C565.105,-159.9 585.457,-146.971 601.035,-137.074"/>
<polygon fill="midnightblue" stroke="midnightblue" points="603.002,-139.971 609.566,-131.655 599.248,-134.063 603.002,-139.971"/>
</g>
</g>
</svg>
