<?xml version="1.0" encoding="UTF-8" standalone="no"?>
<!DOCTYPE svg PUBLIC "-//W3C//DTD SVG 1.1//EN"
 "http://www.w3.org/Graphics/SVG/1.1/DTD/svg11.dtd">
<!-- Generated by graphviz version 2.38.0 (20151222.1943)
 -->
<!-- Title: MultiTransport.h Pages: 1 -->
<svg width="453pt" height="140pt"
 viewBox="0.00 0.00 452.50 140.00" xmlns="http://www.w3.org/2000/svg" xmlns:xlink="http://www.w3.org/1999/xlink">
<g id="graph0" class="graph" transform="scale(1 1) rotate(0) translate(4 136)">
<title>MultiTransport.h</title>
<polygon fill="white" stroke="none" points="-4,4 -4,-136 448.5,-136 448.5,4 -4,4"/>
<!-- Node1 -->
<g id="node1" class="node"><title>Node1</title>
<polygon fill="#bfbfbf" stroke="black" points="179.5,-112.5 179.5,-131.5 265.5,-131.5 265.5,-112.5 179.5,-112.5"/>
<text text-anchor="middle" x="222.5" y="-119.5" font-family="FreeSans" font-size="10.00">MultiTransport.h</text>
</g>
<!-- Node2 -->
<g id="node2" class="node"><title>Node2</title>
<g id="a_node2"><a xlink:href="HighPressureGasTransport_8cpp.html" target="_top" xlink:title="Implementation file for class HighPressureGasTransport. ">
<polygon fill="white" stroke="black" points="0,-0.5 0,-19.5 149,-19.5 149,-0.5 0,-0.5"/>
<text text-anchor="middle" x="74.5" y="-7.5" font-family="FreeSans" font-size="10.00">HighPressureGasTransport.cpp</text>
</a>
</g>
</g>
<!-- Node1&#45;&gt;Node2 -->
<g id="edge1" class="edge"><title>Node1&#45;&gt;Node2</title>
<path fill="none" stroke="midnightblue" d="M192.043,-108.056C174.914,-100.062 153.603,-88.8818 136.5,-76 113.828,-58.9238 92.0562,-33.2747 81.3635,-19.8732"/>
<polygon fill="midnightblue" stroke="midnightblue" points="191.029,-111.439 201.582,-112.384 193.921,-105.065 191.029,-111.439"/>
</g>
<!-- Node3 -->
<g id="node3" class="node"><title>Node3</title>
<g id="a_node3"><a xlink:href="MultiTransport_8cpp.html" target="_top" xlink:title="Implementation file for class MultiTransport. ">
<polygon fill="white" stroke="black" points="348.5,-56.5 348.5,-75.5 444.5,-75.5 444.5,-56.5 348.5,-56.5"/>
<text text-anchor="middle" x="396.5" y="-63.5" font-family="FreeSans" font-size="10.00">MultiTransport.cpp</text>
</a>
</g>
</g>
<!-- Node1&#45;&gt;Node3 -->
<g id="edge2" class="edge"><title>Node1&#45;&gt;Node3</title>
<path fill="none" stroke="midnightblue" d="M259.761,-109.436C292.567,-99.2551 339.583,-84.664 369.058,-75.5164"/>
<polygon fill="midnightblue" stroke="midnightblue" points="258.584,-106.137 250.071,-112.444 260.659,-112.822 258.584,-106.137"/>
</g>
<!-- Node4 -->
<g id="node4" class="node"><title>Node4</title>
<g id="a_node4"><a xlink:href="TransportFactory_8cpp.html" target="_top" xlink:title="Implementation file for class TransportFactory. ">
<polygon fill="white" stroke="black" points="167,-0.5 167,-19.5 274,-19.5 274,-0.5 167,-0.5"/>
<text text-anchor="middle" x="220.5" y="-7.5" font-family="FreeSans" font-size="10.00">TransportFactory.cpp</text>
</a>
</g>
</g>
<!-- Node1&#45;&gt;Node4 -->
<g id="edge3" class="edge"><title>Node1&#45;&gt;Node4</title>
<path fill="none" stroke="midnightblue" d="M183.295,-108.46C168.078,-101.457 152.236,-91.0304 143.5,-76 128.643,-50.4388 166.959,-30.2989 194.718,-19.5623"/>
<polygon fill="midnightblue" stroke="midnightblue" points="182.045,-111.731 192.619,-112.387 184.762,-105.28 182.045,-111.731"/>
</g>
<!-- Node5 -->
<g id="node5" class="node"><title>Node5</title>
<g id="a_node5"><a xlink:href="HighPressureGasTransport_8h.html" target="_top" xlink:title="Interface for class HighPressureGasTransport. ">
<polygon fill="white" stroke="black" points="153,-56.5 153,-75.5 292,-75.5 292,-56.5 153,-56.5"/>
<text text-anchor="middle" x="222.5" y="-63.5" font-family="FreeSans" font-size="10.00">HighPressureGasTransport.h</text>
</a>
</g>
</g>
<!-- Node1&#45;&gt;Node5 -->
<g id="edge4" class="edge"><title>Node1&#45;&gt;Node5</title>
<path fill="none" stroke="midnightblue" d="M222.5,-101.805C222.5,-92.9102 222.5,-82.7798 222.5,-75.7511"/>
<polygon fill="midnightblue" stroke="midnightblue" points="219,-102.083 222.5,-112.083 226,-102.083 219,-102.083"/>
</g>
<!-- Node6 -->
<g id="node6" class="node"><title>Node6</title>
<g id="a_node6"><a xlink:href="transport_8h.html" target="_top" xlink:title="Support for transport property calculation from C++ application programs. ">
<polygon fill="white" stroke="black" points="291.5,-0.5 291.5,-19.5 353.5,-19.5 353.5,-0.5 291.5,-0.5"/>
<text text-anchor="middle" x="322.5" y="-7.5" font-family="FreeSans" font-size="10.00">transport.h</text>
</a>
</g>
</g>
<!-- Node1&#45;&gt;Node6 -->
<g id="edge8" class="edge"><title>Node1&#45;&gt;Node6</title>
<path fill="none" stroke="midnightblue" d="M256.022,-108.227C271.435,-100.865 288.841,-90.2145 300.5,-76 314.402,-59.0509 319.685,-32.887 321.557,-19.5106"/>
<polygon fill="midnightblue" stroke="midnightblue" points="254.441,-105.1 246.752,-112.388 257.308,-111.486 254.441,-105.1"/>
</g>
<!-- Node5&#45;&gt;Node2 -->
<g id="edge5" class="edge"><title>Node5&#45;&gt;Node2</title>
<path fill="none" stroke="midnightblue" d="M189.353,-52.9058C161.528,-42.7536 122.48,-28.5063 97.8413,-19.5164"/>
<polygon fill="midnightblue" stroke="midnightblue" points="188.455,-56.3038 199.049,-56.4435 190.854,-49.7279 188.455,-56.3038"/>
</g>
<!-- Node5&#45;&gt;Node4 -->
<g id="edge6" class="edge"><title>Node5&#45;&gt;Node4</title>
<path fill="none" stroke="midnightblue" d="M221.789,-45.8045C221.46,-36.9102 221.084,-26.7798 220.824,-19.7511"/>
<polygon fill="midnightblue" stroke="midnightblue" points="218.302,-46.2194 222.17,-56.083 225.297,-45.9603 218.302,-46.2194"/>
</g>
<!-- Node5&#45;&gt;Node6 -->
<g id="edge7" class="edge"><title>Node5&#45;&gt;Node6</title>
<path fill="none" stroke="midnightblue" d="M247.588,-51.4526C266.049,-41.4835 290.597,-28.2279 306.473,-19.6545"/>
<polygon fill="midnightblue" stroke="midnightblue" points="245.703,-48.4928 238.567,-56.324 249.029,-54.6521 245.703,-48.4928"/>
</g>
</g>
</svg>
