<?xml version="1.0" encoding="UTF-8" standalone="no"?>
<!DOCTYPE svg PUBLIC "-//W3C//DTD SVG 1.1//EN"
 "http://www.w3.org/Graphics/SVG/1.1/DTD/svg11.dtd">
<!-- Generated by graphviz version 2.28.0 (20120425.2022)
 -->
<!-- Title: MultiTransport.cpp Pages: 1 -->
<svg width="1359pt" height="612pt"
 viewBox="0.00 0.00 1359.00 612.00" xmlns="http://www.w3.org/2000/svg" xmlns:xlink="http://www.w3.org/1999/xlink">
<g id="graph1" class="graph" transform="scale(1 1) rotate(0) translate(4 608)">
<title>MultiTransport.cpp</title>
<polygon fill="white" stroke="white" points="-4,5 -4,-608 1356,-608 1356,5 -4,5"/>
<!-- Node1 -->
<g id="node1" class="node"><title>Node1</title>
<polygon fill="#bfbfbf" stroke="black" points="915,-584.5 915,-603.5 1013,-603.5 1013,-584.5 915,-584.5"/>
<text text-anchor="middle" x="964" y="-591.5" font-family="FreeSans" font-size="10.00">MultiTransport.cpp</text>
</g>
<!-- Node2 -->
<g id="node3" class="node"><title>Node2</title>
<a xlink:href="MultiTransport_8h.html" target="_top" xlink:title="Interface for class MultiTransport. ">
<polygon fill="white" stroke="black" points="751.5,-460.5 751.5,-479.5 916.5,-479.5 916.5,-460.5 751.5,-460.5"/>
<text text-anchor="middle" x="834" y="-467.5" font-family="FreeSans" font-size="10.00">cantera/transport/MultiTransport.h</text>
</a>
</g>
<!-- Node1&#45;&gt;Node2 -->
<g id="edge2" class="edge"><title>Node1&#45;&gt;Node2</title>
<path fill="none" stroke="midnightblue" d="M914.987,-586.082C890.645,-580.076 862.9,-568.875 846,-548 832.858,-531.767 831.203,-507.111 831.959,-490.094"/>
<polygon fill="midnightblue" stroke="midnightblue" points="835.479,-489.97 832.756,-479.731 828.499,-489.433 835.479,-489.97"/>
</g>
<!-- Node12 -->
<g id="node25" class="node"><title>Node12</title>
<a xlink:href="ctlapack_8h.html" target="_top" xlink:title="cantera/numerics/ctlapack.h">
<polygon fill="white" stroke="black" points="888,-112.5 888,-131.5 1030,-131.5 1030,-112.5 888,-112.5"/>
<text text-anchor="middle" x="959" y="-119.5" font-family="FreeSans" font-size="10.00">cantera/numerics/ctlapack.h</text>
</a>
</g>
<!-- Node1&#45;&gt;Node12 -->
<g id="edge26" class="edge"><title>Node1&#45;&gt;Node12</title>
<path fill="none" stroke="midnightblue" d="M966.254,-584.492C971.287,-564.723 983,-514.086 983,-471 983,-471 983,-471 983,-295 983,-246.358 965.512,-236.329 960,-188 958.239,-172.562 958.083,-154.93 958.315,-141.929"/>
<polygon fill="midnightblue" stroke="midnightblue" points="961.815,-141.958 958.588,-131.867 954.818,-141.768 961.815,-141.958"/>
</g>
<!-- Node13 -->
<g id="node28" class="node"><title>Node13</title>
<a xlink:href="utilities_8h.html" target="_top" xlink:title="Various templated functions that carry out common vector operations (see Templated Utility Functions)...">
<polygon fill="white" stroke="red" points="1147,-168.5 1147,-187.5 1201,-187.5 1201,-168.5 1147,-168.5"/>
<text text-anchor="middle" x="1174" y="-175.5" font-family="FreeSans" font-size="10.00">utilities.h</text>
</a>
</g>
<!-- Node1&#45;&gt;Node13 -->
<g id="edge30" class="edge"><title>Node1&#45;&gt;Node13</title>
<path fill="none" stroke="midnightblue" d="M971.773,-584.273C979.149,-575.604 990.102,-561.665 997,-548 1013.15,-515.999 1021,-506.846 1021,-471 1021,-471 1021,-471 1021,-295 1021,-236.894 1091.94,-204.135 1137.21,-189.146"/>
<polygon fill="midnightblue" stroke="midnightblue" points="1138.52,-192.402 1147,-186.047 1136.41,-185.728 1138.52,-192.402"/>
</g>
<!-- Node14 -->
<g id="node31" class="node"><title>Node14</title>
<a xlink:href="L__matrix_8h.html" target="_top" xlink:title="Functions to evaluate portions of the L matrix needed for multicomponent transport properties...">
<polygon fill="white" stroke="black" points="855,-522.5 855,-541.5 917,-541.5 917,-522.5 855,-522.5"/>
<text text-anchor="middle" x="886" y="-529.5" font-family="FreeSans" font-size="10.00">L_matrix.h</text>
</a>
</g>
<!-- Node1&#45;&gt;Node14 -->
<g id="edge34" class="edge"><title>Node1&#45;&gt;Node14</title>
<path fill="none" stroke="midnightblue" d="M952.825,-584.403C940.429,-574.869 920.21,-559.315 905.254,-547.811"/>
<polygon fill="midnightblue" stroke="midnightblue" points="907.215,-544.904 897.155,-541.581 902.947,-550.452 907.215,-544.904"/>
</g>
<!-- Node15 -->
<g id="node34" class="node"><title>Node15</title>
<a xlink:href="TransportParams_8h.html" target="_top" xlink:title="Class that holds the data that is read in from the xml file, and which is used for processing of the ...">
<polygon fill="white" stroke="black" points="540.5,-281 540.5,-311 677.5,-311 677.5,-281 540.5,-281"/>
<text text-anchor="start" x="548.5" y="-299" font-family="FreeSans" font-size="10.00">cantera/transport/Transport</text>
<text text-anchor="middle" x="609" y="-288" font-family="FreeSans" font-size="10.00">Params.h</text>
</a>
</g>
<!-- Node1&#45;&gt;Node15 -->
<g id="edge38" class="edge"><title>Node1&#45;&gt;Node15</title>
<path fill="none" stroke="midnightblue" d="M963.745,-584.47C962.635,-561.666 956.702,-498.418 925,-460 859.803,-380.989 746.349,-335.92 674.597,-313.989"/>
<polygon fill="midnightblue" stroke="midnightblue" points="675.342,-310.559 664.758,-311.047 673.336,-317.265 675.342,-310.559"/>
</g>
<!-- Node16 -->
<g id="node38" class="node"><title>Node16</title>
<a xlink:href="IdealGasPhase_8h.html" target="_top" xlink:title="ThermoPhase object for the ideal gas equation of state &#45; workhorse for Cantera (see Thermodynamic Pro...">
<polygon fill="white" stroke="black" points="1091,-224.5 1091,-243.5 1257,-243.5 1257,-224.5 1091,-224.5"/>
<text text-anchor="middle" x="1174" y="-231.5" font-family="FreeSans" font-size="10.00">cantera/thermo/IdealGasPhase.h</text>
</a>
</g>
<!-- Node1&#45;&gt;Node16 -->
<g id="edge44" class="edge"><title>Node1&#45;&gt;Node16</title>
<path fill="none" stroke="midnightblue" d="M986.222,-584.374C1023.6,-568.243 1095,-529.738 1095,-471 1095,-471 1095,-471 1095,-357 1095,-312.533 1132.43,-271.475 1155.77,-250.204"/>
<polygon fill="midnightblue" stroke="midnightblue" points="1158.15,-252.767 1163.35,-243.532 1153.53,-247.512 1158.15,-252.767"/>
</g>
<!-- Node18 -->
<g id="node45" class="node"><title>Node18</title>
<a xlink:href="TransportFactory_8h.html" target="_top" xlink:title="Header file defining class TransportFactory (see TransportFactory) ">
<polygon fill="white" stroke="black" points="494.5,-517 494.5,-547 631.5,-547 631.5,-517 494.5,-517"/>
<text text-anchor="start" x="502.5" y="-535" font-family="FreeSans" font-size="10.00">cantera/transport/Transport</text>
<text text-anchor="middle" x="563" y="-524" font-family="FreeSans" font-size="10.00">Factory.h</text>
</a>
</g>
<!-- Node1&#45;&gt;Node18 -->
<g id="edge54" class="edge"><title>Node1&#45;&gt;Node18</title>
<path fill="none" stroke="midnightblue" d="M914.83,-585.643C846.739,-575.455 722.981,-556.937 641.884,-544.803"/>
<polygon fill="midnightblue" stroke="midnightblue" points="642.129,-541.301 631.721,-543.282 641.093,-548.224 642.129,-541.301"/>
</g>
<!-- Node30 -->
<g id="node89" class="node"><title>Node30</title>
<a xlink:href="stringUtils_8h.html" target="_top" xlink:title="Contains declarations for string manipulation functions within Cantera. ">
<polygon fill="white" stroke="black" points="1202.5,-112.5 1202.5,-131.5 1331.5,-131.5 1331.5,-112.5 1202.5,-112.5"/>
<text text-anchor="middle" x="1267" y="-119.5" font-family="FreeSans" font-size="10.00">cantera/base/stringUtils.h</text>
</a>
</g>
<!-- Node1&#45;&gt;Node30 -->
<g id="edge118" class="edge"><title>Node1&#45;&gt;Node30</title>
<path fill="none" stroke="midnightblue" d="M1013.01,-587.974C1117.15,-575.934 1351,-541.095 1351,-471 1351,-471 1351,-471 1351,-233 1351,-191.731 1313.19,-156.325 1288.31,-137.49"/>
<polygon fill="midnightblue" stroke="midnightblue" points="1290.27,-134.592 1280.12,-131.537 1286.15,-140.251 1290.27,-134.592"/>
</g>
<!-- Node3 -->
<g id="node5" class="node"><title>Node3</title>
<a xlink:href="GasTransport_8h.html" target="_top" xlink:title="GasTransport.h">
<polygon fill="white" stroke="black" points="772,-286.5 772,-305.5 858,-305.5 858,-286.5 772,-286.5"/>
<text text-anchor="middle" x="815" y="-293.5" font-family="FreeSans" font-size="10.00">GasTransport.h</text>
</a>
</g>
<!-- Node2&#45;&gt;Node3 -->
<g id="edge4" class="edge"><title>Node2&#45;&gt;Node3</title>
<path fill="none" stroke="midnightblue" d="M833.032,-460.234C830.084,-433.548 821.172,-352.877 817.087,-315.893"/>
<polygon fill="midnightblue" stroke="midnightblue" points="820.521,-315.099 815.944,-305.544 813.563,-315.868 820.521,-315.099"/>
</g>
<!-- Node11 -->
<g id="node21" class="node"><title>Node11</title>
<a xlink:href="DenseMatrix_8h.html" target="_top" xlink:title="Headers for the DenseMatrix object, which deals with dense rectangular matrices and description of th...">
<polygon fill="white" stroke="red" points="682.5,-168.5 682.5,-187.5 843.5,-187.5 843.5,-168.5 682.5,-168.5"/>
<text text-anchor="middle" x="763" y="-175.5" font-family="FreeSans" font-size="10.00">cantera/numerics/DenseMatrix.h</text>
</a>
</g>
<!-- Node2&#45;&gt;Node11 -->
<g id="edge24" class="edge"><title>Node2&#45;&gt;Node11</title>
<path fill="none" stroke="midnightblue" d="M838.819,-460.325C853.437,-432.793 894.629,-345.347 867,-280 850.676,-241.391 811.574,-210.27 786.241,-193.235"/>
<polygon fill="midnightblue" stroke="midnightblue" points="787.889,-190.132 777.598,-187.609 784.069,-195.998 787.889,-190.132"/>
</g>
<!-- Node4 -->
<g id="node7" class="node"><title>Node4</title>
<a xlink:href="TransportBase_8h.html" target="_top" xlink:title="Headers for the Transport object, which is the virtual base class for all transport property evaluato...">
<polygon fill="white" stroke="black" points="611.5,-224.5 611.5,-243.5 702.5,-243.5 702.5,-224.5 611.5,-224.5"/>
<text text-anchor="middle" x="657" y="-231.5" font-family="FreeSans" font-size="10.00">TransportBase.h</text>
</a>
</g>
<!-- Node3&#45;&gt;Node4 -->
<g id="edge6" class="edge"><title>Node3&#45;&gt;Node4</title>
<path fill="none" stroke="midnightblue" d="M792.362,-286.403C765.26,-276.111 719.69,-258.806 688.996,-247.15"/>
<polygon fill="midnightblue" stroke="midnightblue" points="690.187,-243.859 679.596,-243.581 687.702,-250.403 690.187,-243.859"/>
</g>
<!-- Node5 -->
<g id="node9" class="node"><title>Node5</title>
<a xlink:href="ThermoPhase_8h.html" target="_top" xlink:title="Header file for class ThermoPhase, the base class for phases with thermodynamic properties, and the text for the Module thermoprops (see Thermodynamic Properties and class ThermoPhase). ">
<polygon fill="white" stroke="red" points="969,-168.5 969,-187.5 1129,-187.5 1129,-168.5 969,-168.5"/>
<text text-anchor="middle" x="1049" y="-175.5" font-family="FreeSans" font-size="10.00">cantera/thermo/ThermoPhase.h</text>
</a>
</g>
<!-- Node4&#45;&gt;Node5 -->
<g id="edge8" class="edge"><title>Node4&#45;&gt;Node5</title>
<path fill="none" stroke="midnightblue" d="M702.735,-226.7C770.232,-217.402 897.148,-199.918 977.153,-188.897"/>
<polygon fill="midnightblue" stroke="midnightblue" points="977.724,-192.352 987.153,-187.52 976.768,-185.417 977.724,-192.352"/>
</g>
<!-- Node4&#45;&gt;Node11 -->
<g id="edge20" class="edge"><title>Node4&#45;&gt;Node11</title>
<path fill="none" stroke="midnightblue" d="M674.031,-224.324C691.03,-215.664 717.376,-202.242 736.993,-192.249"/>
<polygon fill="midnightblue" stroke="midnightblue" points="738.69,-195.312 746.012,-187.655 735.512,-189.075 738.69,-195.312"/>
</g>
<!-- Node6 -->
<g id="node11" class="node"><title>Node6</title>
<a xlink:href="SpeciesThermo_8h.html" target="_top" xlink:title="Virtual base class for the calculation of multiple&#45;species thermodynamic reference&#45;state property man...">
<polygon fill="white" stroke="black" points="1048.5,-112.5 1048.5,-131.5 1145.5,-131.5 1145.5,-112.5 1048.5,-112.5"/>
<text text-anchor="middle" x="1097" y="-119.5" font-family="FreeSans" font-size="10.00">SpeciesThermo.h</text>
</a>
</g>
<!-- Node5&#45;&gt;Node6 -->
<g id="edge10" class="edge"><title>Node5&#45;&gt;Node6</title>
<path fill="none" stroke="midnightblue" d="M1056.93,-168.083C1063.85,-160.298 1074.07,-148.801 1082.45,-139.367"/>
<polygon fill="midnightblue" stroke="midnightblue" points="1085.19,-141.55 1089.22,-131.751 1079.96,-136.9 1085.19,-141.55"/>
</g>
<!-- Node7 -->
<g id="node13" class="node"><title>Node7</title>
<a xlink:href="ct__defs_8h.html" target="_top" xlink:title="This file contains definitions of terms that are used in internal routines and are unlikely to need m...">
<polygon fill="white" stroke="red" points="881,-56.5 881,-75.5 937,-75.5 937,-56.5 881,-56.5"/>
<text text-anchor="middle" x="909" y="-63.5" font-family="FreeSans" font-size="10.00">ct_defs.h</text>
</a>
</g>
<!-- Node6&#45;&gt;Node7 -->
<g id="edge12" class="edge"><title>Node6&#45;&gt;Node7</title>
<path fill="none" stroke="midnightblue" d="M1067.21,-112.444C1034.7,-103.105 982.559,-88.1287 947.095,-77.9421"/>
<polygon fill="midnightblue" stroke="midnightblue" points="947.692,-74.4723 937.115,-75.0755 945.76,-81.2002 947.692,-74.4723"/>
</g>
<!-- Node8 -->
<g id="node15" class="node"><title>Node8</title>
<a xlink:href="config_8h_source.html" target="_top" xlink:title="config.h">
<polygon fill="white" stroke="black" points="177.5,-0.5 177.5,-19.5 228.5,-19.5 228.5,-0.5 177.5,-0.5"/>
<text text-anchor="middle" x="203" y="-7.5" font-family="FreeSans" font-size="10.00">config.h</text>
</a>
</g>
<!-- Node7&#45;&gt;Node8 -->
<g id="edge14" class="edge"><title>Node7&#45;&gt;Node8</title>
<path fill="none" stroke="midnightblue" d="M880.888,-62.8498C769.871,-54.3584 362.005,-23.1618 238.605,-13.7233"/>
<polygon fill="midnightblue" stroke="midnightblue" points="238.792,-10.2275 228.554,-12.9546 238.258,-17.2071 238.792,-10.2275"/>
</g>
<!-- Node9 -->
<g id="node17" class="node"><title>Node9</title>
<polygon fill="white" stroke="#bfbfbf" points="652,-0.5 652,-19.5 696,-19.5 696,-0.5 652,-0.5"/>
<text text-anchor="middle" x="674" y="-7.5" font-family="FreeSans" font-size="10.00">vector</text>
</g>
<!-- Node7&#45;&gt;Node9 -->
<g id="edge16" class="edge"><title>Node7&#45;&gt;Node9</title>
<path fill="none" stroke="midnightblue" d="M880.654,-58.4863C836.618,-48.3676 752.057,-28.9364 705.93,-18.3371"/>
<polygon fill="midnightblue" stroke="midnightblue" points="706.688,-14.9201 696.158,-16.0916 705.12,-21.7423 706.688,-14.9201"/>
</g>
<!-- Node10 -->
<g id="node19" class="node"><title>Node10</title>
<polygon fill="white" stroke="#bfbfbf" points="916.5,-0.5 916.5,-19.5 957.5,-19.5 957.5,-0.5 916.5,-0.5"/>
<text text-anchor="middle" x="937" y="-7.5" font-family="FreeSans" font-size="10.00">string</text>
</g>
<!-- Node7&#45;&gt;Node10 -->
<g id="edge18" class="edge"><title>Node7&#45;&gt;Node10</title>
<path fill="none" stroke="midnightblue" d="M913.624,-56.083C917.456,-48.6913 923.024,-37.9533 927.765,-28.8111"/>
<polygon fill="midnightblue" stroke="midnightblue" points="930.966,-30.2398 932.462,-19.7511 924.752,-27.0175 930.966,-30.2398"/>
</g>
<!-- Node11&#45;&gt;Node7 -->
<g id="edge22" class="edge"><title>Node11&#45;&gt;Node7</title>
<path fill="none" stroke="midnightblue" d="M773.627,-168.433C789.303,-155.853 819.621,-131.735 846,-112 859.857,-101.633 875.711,-90.3117 888.048,-81.618"/>
<polygon fill="midnightblue" stroke="midnightblue" points="890.157,-84.4135 896.331,-75.8033 886.135,-78.6843 890.157,-84.4135"/>
</g>
<!-- Node12&#45;&gt;Node7 -->
<g id="edge28" class="edge"><title>Node12&#45;&gt;Node7</title>
<path fill="none" stroke="midnightblue" d="M950.744,-112.083C943.535,-104.298 932.89,-92.8015 924.154,-83.3665"/>
<polygon fill="midnightblue" stroke="midnightblue" points="926.465,-80.7108 917.103,-75.7511 921.329,-85.4666 926.465,-80.7108"/>
</g>
<!-- Node13&#45;&gt;Node7 -->
<g id="edge32" class="edge"><title>Node13&#45;&gt;Node7</title>
<path fill="none" stroke="midnightblue" d="M1174.01,-168.352C1173.53,-154.295 1170.41,-126.595 1154,-112 1123.99,-85.3054 1008.54,-73.6577 947.439,-69.2754"/>
<polygon fill="midnightblue" stroke="midnightblue" points="947.624,-65.78 937.407,-68.5863 947.144,-72.7635 947.624,-65.78"/>
</g>
<!-- Node14&#45;&gt;Node2 -->
<g id="edge36" class="edge"><title>Node14&#45;&gt;Node2</title>
<path fill="none" stroke="midnightblue" d="M878.55,-522.403C870.672,-513.314 858.055,-498.756 848.256,-487.449"/>
<polygon fill="midnightblue" stroke="midnightblue" points="850.631,-484.845 841.437,-479.581 845.341,-489.43 850.631,-484.845"/>
</g>
<!-- Node15&#45;&gt;Node4 -->
<g id="edge42" class="edge"><title>Node15&#45;&gt;Node4</title>
<path fill="none" stroke="midnightblue" d="M620.375,-280.781C627.35,-272.062 636.314,-260.857 643.628,-251.715"/>
<polygon fill="midnightblue" stroke="midnightblue" points="646.502,-253.726 650.016,-243.731 641.036,-249.353 646.502,-253.726"/>
</g>
<!-- Node15&#45;&gt;Node11 -->
<g id="edge40" class="edge"><title>Node15&#45;&gt;Node11</title>
<path fill="none" stroke="midnightblue" d="M646.674,-280.826C666.984,-272.083 691.754,-259.559 711,-244 727.801,-230.417 742.713,-210.531 752.213,-196.336"/>
<polygon fill="midnightblue" stroke="midnightblue" points="755.393,-197.864 757.881,-187.566 749.514,-194.064 755.393,-197.864"/>
</g>
<!-- Node16&#45;&gt;Node5 -->
<g id="edge48" class="edge"><title>Node16&#45;&gt;Node5</title>
<path fill="none" stroke="midnightblue" d="M1154.19,-224.444C1133.71,-215.596 1101.52,-201.687 1078.14,-191.586"/>
<polygon fill="midnightblue" stroke="midnightblue" points="1079.28,-188.269 1068.71,-187.516 1076.51,-194.695 1079.28,-188.269"/>
</g>
<!-- Node16&#45;&gt;Node6 -->
<g id="edge50" class="edge"><title>Node16&#45;&gt;Node6</title>
<path fill="none" stroke="midnightblue" d="M1223.55,-224.417C1265.73,-214.922 1316.1,-197.003 1293,-168 1276.08,-146.749 1207.3,-134.706 1155.96,-128.528"/>
<polygon fill="midnightblue" stroke="midnightblue" points="1156.28,-125.042 1145.95,-127.37 1155.48,-131.996 1156.28,-125.042"/>
</g>
<!-- Node16&#45;&gt;Node13 -->
<g id="edge52" class="edge"><title>Node16&#45;&gt;Node13</title>
<path fill="none" stroke="midnightblue" d="M1174,-224.083C1174,-217.006 1174,-206.861 1174,-197.986"/>
<polygon fill="midnightblue" stroke="midnightblue" points="1177.5,-197.751 1174,-187.751 1170.5,-197.751 1177.5,-197.751"/>
</g>
<!-- Node17 -->
<g id="node40" class="node"><title>Node17</title>
<a xlink:href="mix__defs_8h.html" target="_top" xlink:title="mix_defs.h">
<polygon fill="white" stroke="black" points="1219.5,-168.5 1219.5,-187.5 1284.5,-187.5 1284.5,-168.5 1219.5,-168.5"/>
<text text-anchor="middle" x="1252" y="-175.5" font-family="FreeSans" font-size="10.00">mix_defs.h</text>
</a>
</g>
<!-- Node16&#45;&gt;Node17 -->
<g id="edge46" class="edge"><title>Node16&#45;&gt;Node17</title>
<path fill="none" stroke="midnightblue" d="M1186.53,-224.324C1198.59,-215.979 1217.03,-203.212 1231.27,-193.352"/>
<polygon fill="midnightblue" stroke="midnightblue" points="1233.27,-196.224 1239.5,-187.655 1229.28,-190.469 1233.27,-196.224"/>
</g>
<!-- Node18&#45;&gt;Node4 -->
<g id="edge66" class="edge"><title>Node18&#45;&gt;Node4</title>
<path fill="none" stroke="midnightblue" d="M589.488,-516.978C604.584,-507.973 623.019,-495.141 636,-480 672.095,-437.899 673.281,-420.549 691,-368 703.594,-330.651 717.084,-316.415 702,-280 697.08,-268.121 687.333,-257.743 678.166,-249.956"/>
<polygon fill="midnightblue" stroke="midnightblue" points="680.083,-247.01 670.064,-243.564 675.747,-252.506 680.083,-247.01"/>
</g>
<!-- Node18&#45;&gt;Node7 -->
<g id="edge56" class="edge"><title>Node18&#45;&gt;Node7</title>
<path fill="none" stroke="midnightblue" d="M600.039,-516.998C667.11,-489.424 807.253,-421.115 867,-312 909.768,-233.894 850.653,-196.416 879,-112 882.468,-101.672 888.955,-91.4618 895.012,-83.3843"/>
<polygon fill="midnightblue" stroke="midnightblue" points="897.759,-85.5539 901.253,-75.5518 892.284,-81.1919 897.759,-85.5539"/>
</g>
<!-- Node19 -->
<g id="node48" class="node"><title>Node19</title>
<a xlink:href="ct__thread_8h.html" target="_top" xlink:title="cantera/base/ct_thread.h">
<polygon fill="white" stroke="black" points="121,-460.5 121,-479.5 249,-479.5 249,-460.5 121,-460.5"/>
<text text-anchor="middle" x="185" y="-467.5" font-family="FreeSans" font-size="10.00">cantera/base/ct_thread.h</text>
</a>
</g>
<!-- Node18&#45;&gt;Node19 -->
<g id="edge58" class="edge"><title>Node18&#45;&gt;Node19</title>
<path fill="none" stroke="midnightblue" d="M494.109,-520.065C424.229,-508.973 316.947,-491.944 248.913,-481.145"/>
<polygon fill="midnightblue" stroke="midnightblue" points="249.181,-477.644 238.756,-479.533 248.084,-484.557 249.181,-477.644"/>
</g>
<!-- Node22 -->
<g id="node56" class="node"><title>Node22</title>
<a xlink:href="FactoryBase_8h.html" target="_top" xlink:title="File contains the FactoryBase class declarations. ">
<polygon fill="white" stroke="black" points="58,-224.5 58,-243.5 202,-243.5 202,-224.5 58,-224.5"/>
<text text-anchor="middle" x="130" y="-231.5" font-family="FreeSans" font-size="10.00">cantera/base/FactoryBase.h</text>
</a>
</g>
<!-- Node18&#45;&gt;Node22 -->
<g id="edge68" class="edge"><title>Node18&#45;&gt;Node22</title>
<path fill="none" stroke="midnightblue" d="M494.239,-528.678C385.142,-524.09 177.98,-511.432 112,-480 54.6225,-452.666 37.9368,-408.629 57,-348 69.0143,-309.789 97.6934,-272.061 115.317,-251.318"/>
<polygon fill="midnightblue" stroke="midnightblue" points="118.184,-253.355 122.112,-243.516 112.905,-248.758 118.184,-253.355"/>
</g>
<!-- Node23 -->
<g id="node59" class="node"><title>Node23</title>
<a xlink:href="LiquidTransportParams_8h.html" target="_top" xlink:title="Header file defining class LiquidTransportParams. ">
<polygon fill="white" stroke="black" points="499,-460.5 499,-479.5 627,-479.5 627,-460.5 499,-460.5"/>
<text text-anchor="middle" x="563" y="-467.5" font-family="FreeSans" font-size="10.00">LiquidTransportParams.h</text>
</a>
</g>
<!-- Node18&#45;&gt;Node23 -->
<g id="edge72" class="edge"><title>Node18&#45;&gt;Node23</title>
<path fill="none" stroke="midnightblue" d="M563,-516.781C563,-508.781 563,-498.689 563,-490.017"/>
<polygon fill="midnightblue" stroke="midnightblue" points="566.5,-489.73 563,-479.731 559.5,-489.731 566.5,-489.73"/>
</g>
<!-- Node29 -->
<g id="node83" class="node"><title>Node29</title>
<a xlink:href="SolidTransportData_8h.html" target="_top" xlink:title="Header file defining class SolidTransportData. ">
<polygon fill="white" stroke="black" points="66,-348.5 66,-367.5 178,-367.5 178,-348.5 66,-348.5"/>
<text text-anchor="middle" x="122" y="-355.5" font-family="FreeSans" font-size="10.00">SolidTransportData.h</text>
</a>
</g>
<!-- Node18&#45;&gt;Node29 -->
<g id="edge108" class="edge"><title>Node18&#45;&gt;Node29</title>
<path fill="none" stroke="midnightblue" d="M534.617,-516.945C494.492,-496.937 419.042,-458.801 356,-424 340.652,-415.527 338.304,-410.446 322,-404 278.918,-386.966 227.939,-375.62 188.233,-368.582"/>
<polygon fill="midnightblue" stroke="midnightblue" points="188.582,-365.091 178.132,-366.841 187.392,-371.989 188.582,-365.091"/>
</g>
<!-- Node19&#45;&gt;Node8 -->
<g id="edge60" class="edge"><title>Node19&#45;&gt;Node8</title>
<path fill="none" stroke="midnightblue" d="M130.089,-460.493C104.652,-454.126 75.5777,-443.081 55,-424 9.89638,-382.177 0,-358.51 0,-297 0,-297 0,-297 0,-121 0,-45.9055 108.712,-21.8109 167.026,-14.2882"/>
<polygon fill="midnightblue" stroke="midnightblue" points="167.773,-17.7241 177.29,-13.0678 166.947,-10.773 167.773,-17.7241"/>
</g>
<!-- Node20 -->
<g id="node51" class="node"><title>Node20</title>
<polygon fill="white" stroke="#bfbfbf" points="64,-404.5 64,-423.5 174,-423.5 174,-404.5 64,-404.5"/>
<text text-anchor="middle" x="119" y="-411.5" font-family="FreeSans" font-size="10.00">boost/shared_ptr.hpp</text>
</g>
<!-- Node19&#45;&gt;Node20 -->
<g id="edge62" class="edge"><title>Node19&#45;&gt;Node20</title>
<path fill="none" stroke="midnightblue" d="M174.396,-460.324C164.544,-452.263 149.649,-440.077 137.785,-430.369"/>
<polygon fill="midnightblue" stroke="midnightblue" points="139.753,-427.457 129.797,-423.834 135.32,-432.875 139.753,-427.457"/>
</g>
<!-- Node21 -->
<g id="node53" class="node"><title>Node21</title>
<polygon fill="white" stroke="#bfbfbf" points="192.5,-404.5 192.5,-423.5 313.5,-423.5 313.5,-404.5 192.5,-404.5"/>
<text text-anchor="middle" x="253" y="-411.5" font-family="FreeSans" font-size="10.00">boost/thread/mutex.hpp</text>
</g>
<!-- Node19&#45;&gt;Node21 -->
<g id="edge64" class="edge"><title>Node19&#45;&gt;Node21</title>
<path fill="none" stroke="midnightblue" d="M195.925,-460.324C206.175,-452.185 221.721,-439.839 234.001,-430.087"/>
<polygon fill="midnightblue" stroke="midnightblue" points="236.221,-432.794 241.876,-423.834 231.868,-427.312 236.221,-432.794"/>
</g>
<!-- Node22&#45;&gt;Node9 -->
<g id="edge70" class="edge"><title>Node22&#45;&gt;Node9</title>
<path fill="none" stroke="midnightblue" d="M141.316,-224.467C170.461,-202.844 251.072,-145.261 326,-112 437.155,-62.6576 578.878,-30.2421 641.617,-17.326"/>
<polygon fill="midnightblue" stroke="midnightblue" points="642.588,-20.7004 651.692,-15.2806 641.195,-13.8403 642.588,-20.7004"/>
</g>
<!-- Node23&#45;&gt;Node4 -->
<g id="edge74" class="edge"><title>Node23&#45;&gt;Node4</title>
<path fill="none" stroke="midnightblue" d="M583.744,-460.376C599.952,-452.777 622.148,-440.369 637,-424 673.51,-383.761 675.89,-365.384 686,-312 688.646,-298.026 690.015,-293.644 686,-280 682.988,-269.765 676.845,-259.66 670.986,-251.627"/>
<polygon fill="midnightblue" stroke="midnightblue" points="673.586,-249.269 664.673,-243.541 668.068,-253.577 673.586,-249.269"/>
</g>
<!-- Node23&#45;&gt;Node15 -->
<g id="edge76" class="edge"><title>Node23&#45;&gt;Node15</title>
<path fill="none" stroke="midnightblue" d="M574.712,-460.336C594.798,-444.624 635.002,-409.215 649,-368 654.971,-350.418 644.307,-332.203 632.495,-318.625"/>
<polygon fill="midnightblue" stroke="midnightblue" points="634.923,-316.097 625.524,-311.206 629.821,-320.89 634.923,-316.097"/>
</g>
<!-- Node24 -->
<g id="node63" class="node"><title>Node24</title>
<a xlink:href="LiquidTransportData_8h.html" target="_top" xlink:title="Header file defining class LiquidTransportData. ">
<polygon fill="white" stroke="black" points="196,-348.5 196,-367.5 312,-367.5 312,-348.5 196,-348.5"/>
<text text-anchor="middle" x="254" y="-355.5" font-family="FreeSans" font-size="10.00">LiquidTransportData.h</text>
</a>
</g>
<!-- Node23&#45;&gt;Node24 -->
<g id="edge78" class="edge"><title>Node23&#45;&gt;Node24</title>
<path fill="none" stroke="midnightblue" d="M524.984,-460.485C491.377,-452.507 441.271,-439.506 399,-424 379.212,-416.741 375.198,-412.699 356,-404 331.456,-392.879 303.441,-380.545 282.99,-371.607"/>
<polygon fill="midnightblue" stroke="midnightblue" points="284.171,-368.304 273.605,-367.512 281.371,-374.719 284.171,-368.304"/>
</g>
<!-- Node26 -->
<g id="node71" class="node"><title>Node26</title>
<a xlink:href="LiquidTranInteraction_8h.html" target="_top" xlink:title="Header file defining the class LiquidTranInteraction and classes which derive from LiquidTranInteract...">
<polygon fill="white" stroke="black" points="408,-404.5 408,-423.5 526,-423.5 526,-404.5 408,-404.5"/>
<text text-anchor="middle" x="467" y="-411.5" font-family="FreeSans" font-size="10.00">LiquidTranInteraction.h</text>
</a>
</g>
<!-- Node23&#45;&gt;Node26 -->
<g id="edge90" class="edge"><title>Node23&#45;&gt;Node26</title>
<path fill="none" stroke="midnightblue" d="M547.576,-460.324C532.46,-451.822 509.185,-438.729 491.529,-428.797"/>
<polygon fill="midnightblue" stroke="midnightblue" points="492.817,-425.507 482.386,-423.655 489.386,-431.608 492.817,-425.507"/>
</g>
<!-- Node27 -->
<g id="node77" class="node"><title>Node27</title>
<a xlink:href="xml_8h.html" target="_top" xlink:title="Classes providing support for XML data files. ">
<polygon fill="white" stroke="red" points="600,-348.5 600,-367.5 640,-367.5 640,-348.5 600,-348.5"/>
<text text-anchor="middle" x="620" y="-355.5" font-family="FreeSans" font-size="10.00">xml.h</text>
</a>
</g>
<!-- Node23&#45;&gt;Node27 -->
<g id="edge104" class="edge"><title>Node23&#45;&gt;Node27</title>
<path fill="none" stroke="midnightblue" d="M567.473,-460.368C576.796,-442.376 598.469,-400.55 610.866,-376.627"/>
<polygon fill="midnightblue" stroke="midnightblue" points="614.055,-378.081 615.548,-367.591 607.84,-374.86 614.055,-378.081"/>
</g>
<!-- Node28 -->
<g id="node79" class="node"><title>Node28</title>
<a xlink:href="XML__Writer_8h_source.html" target="_top" xlink:title="cantera/base/XML_Writer.h">
<polygon fill="white" stroke="red" points="444.5,-348.5 444.5,-367.5 581.5,-367.5 581.5,-348.5 444.5,-348.5"/>
<text text-anchor="middle" x="513" y="-355.5" font-family="FreeSans" font-size="10.00">cantera/base/XML_Writer.h</text>
</a>
</g>
<!-- Node23&#45;&gt;Node28 -->
<g id="edge106" class="edge"><title>Node23&#45;&gt;Node28</title>
<path fill="none" stroke="midnightblue" d="M559.329,-460.109C554.102,-447.535 544.132,-423.874 535,-404 530.818,-394.899 525.946,-384.879 521.852,-376.609"/>
<polygon fill="midnightblue" stroke="midnightblue" points="524.937,-374.954 517.341,-367.568 518.674,-378.079 524.937,-374.954"/>
</g>
<!-- Node24&#45;&gt;Node4 -->
<g id="edge80" class="edge"><title>Node24&#45;&gt;Node4</title>
<path fill="none" stroke="midnightblue" d="M263.12,-348.349C280.928,-332.01 322.245,-296.753 364,-280 442.451,-248.524 540.846,-238.914 601.299,-236.068"/>
<polygon fill="midnightblue" stroke="midnightblue" points="601.556,-239.56 611.399,-235.639 601.259,-232.567 601.556,-239.56"/>
</g>
<!-- Node24&#45;&gt;Node22 -->
<g id="edge82" class="edge"><title>Node24&#45;&gt;Node22</title>
<path fill="none" stroke="midnightblue" d="M237.998,-348.36C223.68,-340.162 202.604,-326.905 187,-312 168.099,-293.945 150.923,-269.039 140.477,-252.498"/>
<polygon fill="midnightblue" stroke="midnightblue" points="143.368,-250.518 135.143,-243.841 137.409,-254.19 143.368,-250.518"/>
</g>
<!-- Node25 -->
<g id="node67" class="node"><title>Node25</title>
<a xlink:href="LTPspecies_8h.html" target="_top" xlink:title="Header file defining class LTPspecies and its child classes. ">
<polygon fill="white" stroke="black" points="196,-286.5 196,-305.5 274,-305.5 274,-286.5 196,-286.5"/>
<text text-anchor="middle" x="235" y="-293.5" font-family="FreeSans" font-size="10.00">LTPspecies.h</text>
</a>
</g>
<!-- Node24&#45;&gt;Node25 -->
<g id="edge84" class="edge"><title>Node24&#45;&gt;Node25</title>
<path fill="none" stroke="midnightblue" d="M251.278,-348.403C248.541,-339.76 244.237,-326.17 240.742,-315.134"/>
<polygon fill="midnightblue" stroke="midnightblue" points="244.073,-314.057 237.717,-305.581 237.399,-316.171 244.073,-314.057"/>
</g>
<!-- Node25&#45;&gt;Node4 -->
<g id="edge86" class="edge"><title>Node25&#45;&gt;Node4</title>
<path fill="none" stroke="midnightblue" d="M262.038,-286.478C270.306,-284.108 279.469,-281.717 288,-280 397.902,-257.884 528.553,-245.063 601.193,-239.105"/>
<polygon fill="midnightblue" stroke="midnightblue" points="601.794,-242.568 611.481,-238.275 601.232,-235.59 601.794,-242.568"/>
</g>
<!-- Node25&#45;&gt;Node22 -->
<g id="edge88" class="edge"><title>Node25&#45;&gt;Node22</title>
<path fill="none" stroke="midnightblue" d="M219.956,-286.403C202.725,-276.557 174.26,-260.291 153.966,-248.695"/>
<polygon fill="midnightblue" stroke="midnightblue" points="155.435,-245.503 145.016,-243.581 151.962,-251.581 155.435,-245.503"/>
</g>
<!-- Node26&#45;&gt;Node4 -->
<g id="edge94" class="edge"><title>Node26&#45;&gt;Node4</title>
<path fill="none" stroke="midnightblue" d="M454.997,-404.352C439.5,-392.066 415.778,-368.745 427,-348 461.446,-284.322 545.035,-255.94 601.372,-243.711"/>
<polygon fill="midnightblue" stroke="midnightblue" points="602.124,-247.13 611.209,-241.679 600.707,-240.275 602.124,-247.13"/>
</g>
<!-- Node26&#45;&gt;Node7 -->
<g id="edge92" class="edge"><title>Node26&#45;&gt;Node7</title>
<path fill="none" stroke="midnightblue" d="M444.295,-404.432C407.765,-388.998 340,-352.841 340,-297 340,-297 340,-297 340,-177 340,-68.6172 742.994,-64.7516 870.682,-66.247"/>
<polygon fill="midnightblue" stroke="midnightblue" points="870.737,-69.748 880.783,-66.3836 870.831,-62.7486 870.737,-69.748"/>
</g>
<!-- Node26&#45;&gt;Node15 -->
<g id="edge96" class="edge"><title>Node26&#45;&gt;Node15</title>
<path fill="none" stroke="midnightblue" d="M457.084,-404.439C443.24,-391.446 421.277,-366.323 435,-348 447.029,-331.939 490.23,-319.227 530.572,-310.511"/>
<polygon fill="midnightblue" stroke="midnightblue" points="531.404,-313.913 540.474,-308.437 529.969,-307.061 531.404,-313.913"/>
</g>
<!-- Node26&#45;&gt;Node24 -->
<g id="edge98" class="edge"><title>Node26&#45;&gt;Node24</title>
<path fill="none" stroke="midnightblue" d="M433.25,-404.444C396.482,-395.122 337.554,-380.183 297.378,-369.997"/>
<polygon fill="midnightblue" stroke="midnightblue" points="298.146,-366.581 287.593,-367.516 296.426,-373.367 298.146,-366.581"/>
</g>
<!-- Node26&#45;&gt;Node27 -->
<g id="edge100" class="edge"><title>Node26&#45;&gt;Node27</title>
<path fill="none" stroke="midnightblue" d="M491.243,-404.444C518.077,-394.973 561.341,-379.703 590.216,-369.512"/>
<polygon fill="midnightblue" stroke="midnightblue" points="591.514,-372.766 599.779,-366.137 589.184,-366.165 591.514,-372.766"/>
</g>
<!-- Node26&#45;&gt;Node28 -->
<g id="edge102" class="edge"><title>Node26&#45;&gt;Node28</title>
<path fill="none" stroke="midnightblue" d="M474.596,-404.083C481.227,-396.298 491.021,-384.801 499.058,-375.367"/>
<polygon fill="midnightblue" stroke="midnightblue" points="501.725,-377.633 505.545,-367.751 496.396,-373.094 501.725,-377.633"/>
</g>
<!-- Node29&#45;&gt;Node4 -->
<g id="edge110" class="edge"><title>Node29&#45;&gt;Node4</title>
<path fill="none" stroke="midnightblue" d="M126.301,-348.41C135.11,-331.848 156.937,-295.75 187,-280 257.692,-242.965 492.76,-236.235 601.25,-235.135"/>
<polygon fill="midnightblue" stroke="midnightblue" points="601.375,-238.634 611.344,-235.045 601.313,-231.634 601.375,-238.634"/>
</g>
<!-- Node29&#45;&gt;Node15 -->
<g id="edge112" class="edge"><title>Node29&#45;&gt;Node15</title>
<path fill="none" stroke="midnightblue" d="M178.012,-349.182C181.051,-348.777 184.063,-348.381 187,-348 306.554,-332.5 445.366,-316.015 530.176,-306.113"/>
<polygon fill="midnightblue" stroke="midnightblue" points="530.719,-309.574 540.246,-304.939 529.908,-302.621 530.719,-309.574"/>
</g>
<!-- Node29&#45;&gt;Node22 -->
<g id="edge114" class="edge"><title>Node29&#45;&gt;Node22</title>
<path fill="none" stroke="midnightblue" d="M120.059,-348.408C117.118,-334.132 112.253,-304.657 116,-280 117.368,-271.001 120.19,-261.325 122.945,-253.26"/>
<polygon fill="midnightblue" stroke="midnightblue" points="126.265,-254.372 126.4,-243.778 119.688,-251.976 126.265,-254.372"/>
</g>
<!-- Node29&#45;&gt;Node25 -->
<g id="edge116" class="edge"><title>Node29&#45;&gt;Node25</title>
<path fill="none" stroke="midnightblue" d="M138.19,-348.403C156.902,-338.468 187.923,-321.997 209.799,-310.381"/>
<polygon fill="midnightblue" stroke="midnightblue" points="211.649,-313.362 218.84,-305.581 208.366,-307.179 211.649,-313.362"/>
</g>
<!-- Node30&#45;&gt;Node7 -->
<g id="edge120" class="edge"><title>Node30&#45;&gt;Node7</title>
<path fill="none" stroke="midnightblue" d="M1210.27,-112.444C1136.69,-101.344 1010.3,-82.2793 947.185,-72.7597"/>
<polygon fill="midnightblue" stroke="midnightblue" points="947.663,-69.2923 937.253,-71.2616 946.619,-76.214 947.663,-69.2923"/>
</g>
<!-- Node30&#45;&gt;Node10 -->
<g id="edge122" class="edge"><title>Node30&#45;&gt;Node10</title>
<path fill="none" stroke="midnightblue" d="M1241.38,-112.46C1181.29,-92.4315 1031.54,-42.5138 967.18,-21.0601"/>
<polygon fill="midnightblue" stroke="midnightblue" points="968.204,-17.7122 957.611,-17.8703 965.991,-24.353 968.204,-17.7122"/>
</g>
</g>
</svg>
