<?xml version="1.0" encoding="UTF-8" standalone="no"?>
<!DOCTYPE svg PUBLIC "-//W3C//DTD SVG 1.1//EN"
 "http://www.w3.org/Graphics/SVG/1.1/DTD/svg11.dtd">
<!-- Generated by graphviz version 2.28.0 (20120425.2022)
 -->
<!-- Title: MultiPhaseEquil.h Pages: 1 -->
<svg width="665pt" height="140pt"
 viewBox="0.00 0.00 665.00 140.00" xmlns="http://www.w3.org/2000/svg" xmlns:xlink="http://www.w3.org/1999/xlink">
<g id="graph1" class="graph" transform="scale(1 1) rotate(0) translate(4 136)">
<title>MultiPhaseEquil.h</title>
<polygon fill="white" stroke="white" points="-4,5 -4,-136 662,-136 662,5 -4,5"/>
<!-- Node1 -->
<g id="node1" class="node"><title>Node1</title>
<polygon fill="#bfbfbf" stroke="black" points="243.5,-112.5 243.5,-131.5 338.5,-131.5 338.5,-112.5 243.5,-112.5"/>
<text text-anchor="middle" x="291" y="-119.5" font-family="FreeSans" font-size="10.00">MultiPhaseEquil.h</text>
</g>
<!-- Node2 -->
<g id="node3" class="node"><title>Node2</title>
<a xlink:href="equilibrate_8cpp.html" target="_top" xlink:title="Driver routines for the chemical equilibrium solvers. ">
<polygon fill="white" stroke="black" points="-0.5,-0.5 -0.5,-19.5 80.5,-19.5 80.5,-0.5 -0.5,-0.5"/>
<text text-anchor="middle" x="40" y="-7.5" font-family="FreeSans" font-size="10.00">equilibrate.cpp</text>
</a>
</g>
<!-- Node1&#45;&gt;Node2 -->
<g id="edge2" class="edge"><title>Node1&#45;&gt;Node2</title>
<path fill="none" stroke="midnightblue" d="M261.768,-108.425C240.911,-99.4351 212.207,-87.0263 187,-76 141.238,-55.9823 87.6018,-32.1792 59.4765,-19.6711"/>
<polygon fill="midnightblue" stroke="midnightblue" points="260.473,-111.678 271.042,-112.42 263.243,-105.249 260.473,-111.678"/>
</g>
<!-- Node3 -->
<g id="node5" class="node"><title>Node3</title>
<a xlink:href="MultiPhase_8cpp.html" target="_top" xlink:title="Definitions for the MultiPhase object that is used to set up multiphase equilibrium problems (see Equ...">
<polygon fill="white" stroke="black" points="352,-56.5 352,-75.5 436,-75.5 436,-56.5 352,-56.5"/>
<text text-anchor="middle" x="394" y="-63.5" font-family="FreeSans" font-size="10.00">MultiPhase.cpp</text>
</a>
</g>
<!-- Node1&#45;&gt;Node3 -->
<g id="edge4" class="edge"><title>Node1&#45;&gt;Node3</title>
<path fill="none" stroke="midnightblue" d="M316.579,-107.59C335.623,-97.6052 361.064,-84.2672 377.492,-75.6545"/>
<polygon fill="midnightblue" stroke="midnightblue" points="314.78,-104.581 307.549,-112.324 318.031,-110.78 314.78,-104.581"/>
</g>
<!-- Node4 -->
<g id="node7" class="node"><title>Node4</title>
<a xlink:href="MultiPhaseEquil_8cpp.html" target="_top" xlink:title="MultiPhaseEquil.cpp">
<polygon fill="white" stroke="black" points="454,-56.5 454,-75.5 560,-75.5 560,-56.5 454,-56.5"/>
<text text-anchor="middle" x="507" y="-63.5" font-family="FreeSans" font-size="10.00">MultiPhaseEquil.cpp</text>
</a>
</g>
<!-- Node1&#45;&gt;Node4 -->
<g id="edge6" class="edge"><title>Node1&#45;&gt;Node4</title>
<path fill="none" stroke="midnightblue" d="M335.164,-109.959C375.961,-99.7598 435.713,-84.8217 472.934,-75.5164"/>
<polygon fill="midnightblue" stroke="midnightblue" points="334.078,-106.623 325.226,-112.444 335.776,-113.414 334.078,-106.623"/>
</g>
<!-- Node5 -->
<g id="node9" class="node"><title>Node5</title>
<a xlink:href="newEquilibrate_8cpp_source.html" target="_top" xlink:title="newEquilibrate.cpp">
<polygon fill="white" stroke="black" points="99,-0.5 99,-19.5 199,-19.5 199,-0.5 99,-0.5"/>
<text text-anchor="middle" x="149" y="-7.5" font-family="FreeSans" font-size="10.00">newEquilibrate.cpp</text>
</a>
</g>
<!-- Node1&#45;&gt;Node5 -->
<g id="edge8" class="edge"><title>Node1&#45;&gt;Node5</title>
<path fill="none" stroke="midnightblue" d="M264.004,-107.75C248.44,-99.5541 228.875,-88.2753 213,-76 190.199,-58.3689 167.47,-32.9539 156.236,-19.7341"/>
<polygon fill="midnightblue" stroke="midnightblue" points="262.615,-110.971 273.108,-112.435 265.819,-104.747 262.615,-110.971"/>
</g>
<!-- Node6 -->
<g id="node11" class="node"><title>Node6</title>
<a xlink:href="ChemEquil_8h.html" target="_top" xlink:title="Chemical equilibrium. ">
<polygon fill="white" stroke="black" points="222.5,-56.5 222.5,-75.5 295.5,-75.5 295.5,-56.5 222.5,-56.5"/>
<text text-anchor="middle" x="259" y="-63.5" font-family="FreeSans" font-size="10.00">ChemEquil.h</text>
</a>
</g>
<!-- Node1&#45;&gt;Node6 -->
<g id="edge10" class="edge"><title>Node1&#45;&gt;Node6</title>
<path fill="none" stroke="midnightblue" d="M280.496,-103.275C275.027,-94.0454 268.582,-83.1703 264.186,-75.7511"/>
<polygon fill="midnightblue" stroke="midnightblue" points="277.607,-105.264 285.716,-112.083 283.629,-101.696 277.607,-105.264"/>
</g>
<!-- Node10 -->
<g id="node21" class="node"><title>Node10</title>
<a xlink:href="equilibrium_8h.html" target="_top" xlink:title="cxx layer &#45; Header file providing support for chemical equilibrium calculations (see Equilibrium Solv...">
<polygon fill="white" stroke="black" points="585,-0.5 585,-19.5 657,-19.5 657,-0.5 585,-0.5"/>
<text text-anchor="middle" x="621" y="-7.5" font-family="FreeSans" font-size="10.00">equilibrium.h</text>
</a>
</g>
<!-- Node1&#45;&gt;Node10 -->
<g id="edge24" class="edge"><title>Node1&#45;&gt;Node10</title>
<path fill="none" stroke="midnightblue" d="M300.261,-103.157C309.112,-88.0192 323.92,-67.0517 343,-56 433.292,-3.70087 472.223,-38.0212 575,-20 578.206,-19.4378 581.533,-18.8316 584.866,-18.2088"/>
<polygon fill="midnightblue" stroke="midnightblue" points="297.093,-101.654 295.32,-112.1 303.22,-105.04 297.093,-101.654"/>
</g>
<!-- Node6&#45;&gt;Node2 -->
<g id="edge14" class="edge"><title>Node6&#45;&gt;Node2</title>
<path fill="none" stroke="midnightblue" d="M214.485,-54.0237C173.116,-43.8232 112.357,-28.8414 74.5388,-19.5164"/>
<polygon fill="midnightblue" stroke="midnightblue" points="213.752,-57.4476 224.299,-56.4435 215.428,-50.6512 213.752,-57.4476"/>
</g>
<!-- Node6&#45;&gt;Node5 -->
<g id="edge16" class="edge"><title>Node6&#45;&gt;Node5</title>
<path fill="none" stroke="midnightblue" d="M232.238,-51.8622C211.841,-41.8492 184.334,-28.3458 166.63,-19.6545"/>
<polygon fill="midnightblue" stroke="midnightblue" points="230.808,-55.059 241.327,-56.324 233.892,-48.7753 230.808,-55.059"/>
</g>
<!-- Node7 -->
<g id="node13" class="node"><title>Node7</title>
<a xlink:href="ChemEquil_8cpp.html" target="_top" xlink:title="Chemical equilibrium. ">
<polygon fill="white" stroke="black" points="217.5,-0.5 217.5,-19.5 300.5,-19.5 300.5,-0.5 217.5,-0.5"/>
<text text-anchor="middle" x="259" y="-7.5" font-family="FreeSans" font-size="10.00">ChemEquil.cpp</text>
</a>
</g>
<!-- Node6&#45;&gt;Node7 -->
<g id="edge12" class="edge"><title>Node6&#45;&gt;Node7</title>
<path fill="none" stroke="midnightblue" d="M259,-45.8045C259,-36.9102 259,-26.7798 259,-19.7511"/>
<polygon fill="midnightblue" stroke="midnightblue" points="255.5,-46.083 259,-56.083 262.5,-46.083 255.5,-46.083"/>
</g>
<!-- Node8 -->
<g id="node17" class="node"><title>Node8</title>
<a xlink:href="vcs__equilibrate_8cpp.html" target="_top" xlink:title="Driver routines for equilibrium solvers. ">
<polygon fill="white" stroke="black" points="319,-0.5 319,-19.5 421,-19.5 421,-0.5 319,-0.5"/>
<text text-anchor="middle" x="370" y="-7.5" font-family="FreeSans" font-size="10.00">vcs_equilibrate.cpp</text>
</a>
</g>
<!-- Node6&#45;&gt;Node8 -->
<g id="edge18" class="edge"><title>Node6&#45;&gt;Node8</title>
<path fill="none" stroke="midnightblue" d="M286.005,-51.8622C306.588,-41.8492 334.345,-28.3458 352.21,-19.6545"/>
<polygon fill="midnightblue" stroke="midnightblue" points="284.295,-48.8019 276.834,-56.324 287.358,-55.0966 284.295,-48.8019"/>
</g>
<!-- Node9 -->
<g id="node19" class="node"><title>Node9</title>
<a xlink:href="vcs__MultiPhaseEquil_8cpp.html" target="_top" xlink:title="Driver routine for the VCSnonideal equilibrium solver package. ">
<polygon fill="white" stroke="black" points="439.5,-0.5 439.5,-19.5 566.5,-19.5 566.5,-0.5 439.5,-0.5"/>
<text text-anchor="middle" x="503" y="-7.5" font-family="FreeSans" font-size="10.00">vcs_MultiPhaseEquil.cpp</text>
</a>
</g>
<!-- Node6&#45;&gt;Node9 -->
<g id="edge20" class="edge"><title>Node6&#45;&gt;Node9</title>
<path fill="none" stroke="midnightblue" d="M305.54,-54.7002C351.537,-44.5205 421.1,-29.1254 464.202,-19.5865"/>
<polygon fill="midnightblue" stroke="midnightblue" points="304.537,-51.3374 295.529,-56.9157 306.049,-58.1721 304.537,-51.3374"/>
</g>
<!-- Node6&#45;&gt;Node10 -->
<g id="edge22" class="edge"><title>Node6&#45;&gt;Node10</title>
<path fill="none" stroke="midnightblue" d="M305.611,-56.6971C307.091,-56.4583 308.556,-56.2253 310,-56 427.437,-37.6684 457.738,-39.4194 575,-20 578.211,-19.4682 581.542,-18.8828 584.877,-18.2737"/>
<polygon fill="midnightblue" stroke="midnightblue" points="305.033,-53.2451 295.742,-58.3368 306.181,-60.1504 305.033,-53.2451"/>
</g>
</g>
</svg>
