<?xml version="1.0" encoding="UTF-8" standalone="no"?>
<!DOCTYPE svg PUBLIC "-//W3C//DTD SVG 1.1//EN"
 "http://www.w3.org/Graphics/SVG/1.1/DTD/svg11.dtd">
<!-- Generated by graphviz version 2.40.1 (20161225.0304)
 -->
<!-- Title: MultiTransport.h Pages: 1 -->
<svg width="343pt" height="140pt"
 viewBox="0.00 0.00 342.50 140.00" xmlns="http://www.w3.org/2000/svg" xmlns:xlink="http://www.w3.org/1999/xlink">
<g id="graph0" class="graph" transform="scale(1 1) rotate(0) translate(4 136)">
<title>MultiTransport.h</title>
<polygon fill="#ffffff" stroke="transparent" points="-4,4 -4,-136 338.5,-136 338.5,4 -4,4"/>
<!-- Node39 -->
<g id="node1" class="node">
<title>Node39</title>
<polygon fill="#bfbfbf" stroke="#000000" points="103,-112.5 103,-131.5 198,-131.5 198,-112.5 103,-112.5"/>
<text text-anchor="middle" x="150.5" y="-119.5" font-family="Helvetica,sans-Serif" font-size="10.00" fill="#000000">MultiTransport.h</text>
</g>
<!-- Node40 -->
<g id="node2" class="node">
<title>Node40</title>
<g id="a_node2"><a xlink:href="HighPressureGasTransport_8cpp.html" target="_top" xlink:title="Implementation file for class HighPressureGasTransport. ">
<polygon fill="#ffffff" stroke="#000000" points="0,-.5 0,-19.5 165,-19.5 165,-.5 0,-.5"/>
<text text-anchor="middle" x="82.5" y="-7.5" font-family="Helvetica,sans-Serif" font-size="10.00" fill="#000000">HighPressureGasTransport.cpp</text>
</a>
</g>
</g>
<!-- Node39&#45;&gt;Node40 -->
<g id="edge1" class="edge">
<title>Node39&#45;&gt;Node40</title>
<path fill="none" stroke="#191970" d="M94.3356,-109.9686C61.3587,-101.6397 24.2767,-89.6276 14.5,-76 -1.8033,-53.275 33.5328,-31.6271 59.1141,-19.6469"/>
<polygon fill="#191970" stroke="#191970" points="93.8578,-113.455 104.4032,-112.433 95.5221,-106.6557 93.8578,-113.455"/>
</g>
<!-- Node41 -->
<g id="node3" class="node">
<title>Node41</title>
<g id="a_node3"><a xlink:href="MultiTransport_8cpp.html" target="_top" xlink:title="Implementation file for class MultiTransport. ">
<polygon fill="#ffffff" stroke="#000000" points="23.5,-56.5 23.5,-75.5 129.5,-75.5 129.5,-56.5 23.5,-56.5"/>
<text text-anchor="middle" x="76.5" y="-63.5" font-family="Helvetica,sans-Serif" font-size="10.00" fill="#000000">MultiTransport.cpp</text>
</a>
</g>
</g>
<!-- Node39&#45;&gt;Node41 -->
<g id="edge2" class="edge">
<title>Node39&#45;&gt;Node41</title>
<path fill="none" stroke="#191970" d="M129.6343,-106.2097C116.6375,-96.3743 100.3378,-84.0394 89.2421,-75.6427"/>
<polygon fill="#191970" stroke="#191970" points="127.524,-109.002 137.6102,-112.2455 131.7482,-103.4201 127.524,-109.002"/>
</g>
<!-- Node42 -->
<g id="node4" class="node">
<title>Node42</title>
<g id="a_node4"><a xlink:href="TransportFactory_8cpp.html" target="_top" xlink:title="Implementation file for class TransportFactory. ">
<polygon fill="#ffffff" stroke="#000000" points="218.5,-.5 218.5,-19.5 334.5,-19.5 334.5,-.5 218.5,-.5"/>
<text text-anchor="middle" x="276.5" y="-7.5" font-family="Helvetica,sans-Serif" font-size="10.00" fill="#000000">TransportFactory.cpp</text>
</a>
</g>
</g>
<!-- Node39&#45;&gt;Node42 -->
<g id="edge3" class="edge">
<title>Node39&#45;&gt;Node42</title>
<path fill="none" stroke="#191970" d="M207.9014,-112.929C248.5265,-105.2011 297.9316,-92.6909 310.5,-76 324.3011,-57.672 302.4724,-32.9231 287.8894,-19.5431"/>
<polygon fill="#191970" stroke="#191970" points="207.2575,-109.4886 198.0572,-114.7427 208.5258,-116.3728 207.2575,-109.4886"/>
</g>
<!-- Node43 -->
<g id="node5" class="node">
<title>Node43</title>
<g id="a_node5"><a xlink:href="HighPressureGasTransport_8h.html" target="_top" xlink:title="Interface for class HighPressureGasTransport. ">
<polygon fill="#ffffff" stroke="#000000" points="147.5,-56.5 147.5,-75.5 301.5,-75.5 301.5,-56.5 147.5,-56.5"/>
<text text-anchor="middle" x="224.5" y="-63.5" font-family="Helvetica,sans-Serif" font-size="10.00" fill="#000000">HighPressureGasTransport.h</text>
</a>
</g>
</g>
<!-- Node39&#45;&gt;Node43 -->
<g id="edge4" class="edge">
<title>Node39&#45;&gt;Node43</title>
<path fill="none" stroke="#191970" d="M171.3657,-106.2097C184.3625,-96.3743 200.6622,-84.0394 211.7579,-75.6427"/>
<polygon fill="#191970" stroke="#191970" points="169.2518,-103.4201 163.3898,-112.2455 173.476,-109.002 169.2518,-103.4201"/>
</g>
<!-- Node43&#45;&gt;Node40 -->
<g id="edge5" class="edge">
<title>Node43&#45;&gt;Node40</title>
<path fill="none" stroke="#191970" d="M190.6585,-52.6541C164.7634,-42.4419 129.6862,-28.6086 106.5921,-19.5011"/>
<polygon fill="#191970" stroke="#191970" points="189.5025,-55.9605 200.0893,-56.3733 192.0707,-49.4486 189.5025,-55.9605"/>
</g>
<!-- Node43&#45;&gt;Node42 -->
<g id="edge6" class="edge">
<title>Node43&#45;&gt;Node42</title>
<path fill="none" stroke="#191970" d="M240.4822,-48.7884C249.3778,-39.2085 260.1204,-27.6396 267.5461,-19.6427"/>
<polygon fill="#191970" stroke="#191970" points="237.7975,-46.536 233.5577,-56.2455 242.927,-51.2992 237.7975,-46.536"/>
</g>
</g>
</svg>
