<?xml version="1.0" encoding="UTF-8" standalone="no"?>
<!DOCTYPE svg PUBLIC "-//W3C//DTD SVG 1.1//EN"
 "http://www.w3.org/Graphics/SVG/1.1/DTD/svg11.dtd">
<!-- Generated by graphviz version 2.38.0 (20140413.2041)
 -->
<!-- Title: MultiTransport.h Pages: 1 -->
<svg width="373pt" height="140pt"
 viewBox="0.00 0.00 373.00 140.00" xmlns="http://www.w3.org/2000/svg" xmlns:xlink="http://www.w3.org/1999/xlink">
<g id="graph0" class="graph" transform="scale(1 1) rotate(0) translate(4 136)">
<title>MultiTransport.h</title>
<polygon fill="white" stroke="none" points="-4,4 -4,-136 369,-136 369,4 -4,4"/>
<!-- Node1 -->
<g id="node1" class="node"><title>Node1</title>
<polygon fill="#bfbfbf" stroke="black" points="146.5,-112.5 146.5,-131.5 233.5,-131.5 233.5,-112.5 146.5,-112.5"/>
<text text-anchor="middle" x="190" y="-119.5" font-family="Helvetica,sans-Serif" font-size="10.00">MultiTransport.h</text>
</g>
<!-- Node2 -->
<g id="node2" class="node"><title>Node2</title>
<g id="a_node2"><a xlink:href="HighPressureGasTransport_8cpp.html" target="_top" xlink:title="Implementation file for class HighPressureGasTransport. ">
<polygon fill="white" stroke="black" points="0,-0.5 0,-19.5 154,-19.5 154,-0.5 0,-0.5"/>
<text text-anchor="middle" x="77" y="-7.5" font-family="Helvetica,sans-Serif" font-size="10.00">HighPressureGasTransport.cpp</text>
</a>
</g>
</g>
<!-- Node1&#45;&gt;Node2 -->
<g id="edge1" class="edge"><title>Node1&#45;&gt;Node2</title>
<path fill="none" stroke="midnightblue" d="M136.391,-116.243C109.694,-110.851 79.6376,-99.5464 63,-76 50.8763,-58.8419 63.067,-33.2274 71.1278,-19.8527"/>
<polygon fill="midnightblue" stroke="midnightblue" points="135.964,-119.722 146.423,-118.033 137.193,-112.831 135.964,-119.722"/>
</g>
<!-- Node3 -->
<g id="node3" class="node"><title>Node3</title>
<g id="a_node3"><a xlink:href="MultiTransport_8cpp.html" target="_top" xlink:title="Implementation file for class MultiTransport. ">
<polygon fill="white" stroke="black" points="72,-56.5 72,-75.5 170,-75.5 170,-56.5 72,-56.5"/>
<text text-anchor="middle" x="121" y="-63.5" font-family="Helvetica,sans-Serif" font-size="10.00">MultiTransport.cpp</text>
</a>
</g>
</g>
<!-- Node1&#45;&gt;Node3 -->
<g id="edge2" class="edge"><title>Node1&#45;&gt;Node3</title>
<path fill="none" stroke="midnightblue" d="M170.962,-106.101C158.544,-96.3824 142.757,-84.0269 132.288,-75.8339"/>
<polygon fill="midnightblue" stroke="midnightblue" points="168.882,-108.917 178.914,-112.324 173.196,-103.405 168.882,-108.917"/>
</g>
<!-- Node4 -->
<g id="node4" class="node"><title>Node4</title>
<g id="a_node4"><a xlink:href="TransportFactory_8cpp.html" target="_top" xlink:title="Implementation file for class TransportFactory. ">
<polygon fill="white" stroke="black" points="255,-0.5 255,-19.5 365,-19.5 365,-0.5 255,-0.5"/>
<text text-anchor="middle" x="310" y="-7.5" font-family="Helvetica,sans-Serif" font-size="10.00">TransportFactory.cpp</text>
</a>
</g>
</g>
<!-- Node1&#45;&gt;Node4 -->
<g id="edge3" class="edge"><title>Node1&#45;&gt;Node4</title>
<path fill="none" stroke="midnightblue" d="M243.821,-120.263C277.577,-116.653 318.776,-105.813 341,-76 354.599,-57.7567 333.194,-32.6 319.682,-19.5806"/>
<polygon fill="midnightblue" stroke="midnightblue" points="243.267,-116.798 233.613,-121.164 243.883,-123.771 243.267,-116.798"/>
</g>
<!-- Node5 -->
<g id="node5" class="node"><title>Node5</title>
<g id="a_node5"><a xlink:href="HighPressureGasTransport_8h.html" target="_top" xlink:title="Interface for class HighPressureGasTransport. ">
<polygon fill="white" stroke="black" points="188.5,-56.5 188.5,-75.5 331.5,-75.5 331.5,-56.5 188.5,-56.5"/>
<text text-anchor="middle" x="260" y="-63.5" font-family="Helvetica,sans-Serif" font-size="10.00">HighPressureGasTransport.h</text>
</a>
</g>
</g>
<!-- Node1&#45;&gt;Node5 -->
<g id="edge4" class="edge"><title>Node1&#45;&gt;Node5</title>
<path fill="none" stroke="midnightblue" d="M209.314,-106.101C221.912,-96.3824 237.928,-84.0269 248.549,-75.8339"/>
<polygon fill="midnightblue" stroke="midnightblue" points="207.027,-103.445 201.247,-112.324 211.302,-108.987 207.027,-103.445"/>
</g>
<!-- Node5&#45;&gt;Node2 -->
<g id="edge5" class="edge"><title>Node5&#45;&gt;Node2</title>
<path fill="none" stroke="midnightblue" d="M221.257,-53.5677C186.735,-43.381 136.995,-28.7034 105.861,-19.5164"/>
<polygon fill="midnightblue" stroke="midnightblue" points="220.421,-56.9702 231.003,-56.4435 222.403,-50.2564 220.421,-56.9702"/>
</g>
<!-- Node5&#45;&gt;Node4 -->
<g id="edge6" class="edge"><title>Node5&#45;&gt;Node4</title>
<path fill="none" stroke="midnightblue" d="M275.076,-48.7175C283.889,-39.1997 294.666,-27.5608 301.897,-19.7511"/>
<polygon fill="midnightblue" stroke="midnightblue" points="272.482,-46.3674 268.256,-56.083 277.619,-51.1233 272.482,-46.3674"/>
</g>
</g>
</svg>
