<?xml version="1.0" encoding="UTF-8" standalone="no"?>
<!DOCTYPE svg PUBLIC "-//W3C//DTD SVG 1.1//EN"
 "http://www.w3.org/Graphics/SVG/1.1/DTD/svg11.dtd">
<!-- Generated by graphviz version 2.38.0 (20140413.2041)
 -->
<!-- Title: MultiJac.h Pages: 1 -->
<svg width="640pt" height="196pt"
 viewBox="0.00 0.00 640.00 196.00" xmlns="http://www.w3.org/2000/svg" xmlns:xlink="http://www.w3.org/1999/xlink">
<g id="graph0" class="graph" transform="scale(1 1) rotate(0) translate(4 192)">
<title>MultiJac.h</title>
<polygon fill="white" stroke="none" points="-4,4 -4,-192 636,-192 636,4 -4,4"/>
<!-- Node1 -->
<g id="node1" class="node"><title>Node1</title>
<polygon fill="#bfbfbf" stroke="black" points="224,-168.5 224,-187.5 286,-187.5 286,-168.5 224,-168.5"/>
<text text-anchor="middle" x="255" y="-175.5" font-family="Helvetica,sans-Serif" font-size="10.00">MultiJac.h</text>
</g>
<!-- Node2 -->
<g id="node2" class="node"><title>Node2</title>
<g id="a_node2"><a xlink:href="Domain1D_8cpp.html" target="_top" xlink:title="Domain1D.cpp">
<polygon fill="white" stroke="black" points="0,-112.5 0,-131.5 82,-131.5 82,-112.5 0,-112.5"/>
<text text-anchor="middle" x="41" y="-119.5" font-family="Helvetica,sans-Serif" font-size="10.00">Domain1D.cpp</text>
</a>
</g>
</g>
<!-- Node1&#45;&gt;Node2 -->
<g id="edge1" class="edge"><title>Node1&#45;&gt;Node2</title>
<path fill="none" stroke="midnightblue" d="M214.093,-166.678C173.735,-156.494 112.756,-141.107 74.9847,-131.576"/>
<polygon fill="midnightblue" stroke="midnightblue" points="213.33,-170.095 223.883,-169.148 215.043,-163.308 213.33,-170.095"/>
</g>
<!-- Node3 -->
<g id="node3" class="node"><title>Node3</title>
<g id="a_node3"><a xlink:href="MultiJac_8cpp.html" target="_top" xlink:title="Implementation file for class MultiJac. ">
<polygon fill="white" stroke="black" points="100,-112.5 100,-131.5 172,-131.5 172,-112.5 100,-112.5"/>
<text text-anchor="middle" x="136" y="-119.5" font-family="Helvetica,sans-Serif" font-size="10.00">MultiJac.cpp</text>
</a>
</g>
</g>
<!-- Node1&#45;&gt;Node3 -->
<g id="edge2" class="edge"><title>Node1&#45;&gt;Node3</title>
<path fill="none" stroke="midnightblue" d="M226.863,-164.232C204.604,-154.131 174.144,-140.309 154.768,-131.516"/>
<polygon fill="midnightblue" stroke="midnightblue" points="225.591,-167.498 236.144,-168.444 228.484,-161.124 225.591,-167.498"/>
</g>
<!-- Node4 -->
<g id="node4" class="node"><title>Node4</title>
<g id="a_node4"><a xlink:href="Sim1D_8cpp.html" target="_top" xlink:title="Sim1D.cpp">
<polygon fill="white" stroke="black" points="205.5,-0.5 205.5,-19.5 270.5,-19.5 270.5,-0.5 205.5,-0.5"/>
<text text-anchor="middle" x="238" y="-7.5" font-family="Helvetica,sans-Serif" font-size="10.00">Sim1D.cpp</text>
</a>
</g>
</g>
<!-- Node1&#45;&gt;Node4 -->
<g id="edge3" class="edge"><title>Node1&#45;&gt;Node4</title>
<path fill="none" stroke="midnightblue" d="M248.052,-158.723C245.316,-150.655 242.479,-140.981 241,-132 234.137,-90.3243 236.202,-39.4996 237.406,-19.5845"/>
<polygon fill="midnightblue" stroke="midnightblue" points="244.788,-159.988 251.468,-168.211 251.374,-157.617 244.788,-159.988"/>
</g>
<!-- Node5 -->
<g id="node5" class="node"><title>Node5</title>
<g id="a_node5"><a xlink:href="OneDim_8h.html" target="_top" xlink:title="OneDim.h">
<polygon fill="white" stroke="black" points="379.5,-112.5 379.5,-131.5 440.5,-131.5 440.5,-112.5 379.5,-112.5"/>
<text text-anchor="middle" x="410" y="-119.5" font-family="Helvetica,sans-Serif" font-size="10.00">OneDim.h</text>
</a>
</g>
</g>
<!-- Node1&#45;&gt;Node5 -->
<g id="edge4" class="edge"><title>Node1&#45;&gt;Node5</title>
<path fill="none" stroke="midnightblue" d="M283.978,-164.906C311.576,-154.754 352.69,-140.506 380.475,-131.516"/>
<polygon fill="midnightblue" stroke="midnightblue" points="282.623,-161.676 274.471,-168.444 285.064,-168.236 282.623,-161.676"/>
</g>
<!-- Node10 -->
<g id="node10" class="node"><title>Node10</title>
<g id="a_node10"><a xlink:href="MultiNewton_8h.html" target="_top" xlink:title="MultiNewton.h">
<polygon fill="white" stroke="black" points="250,-112.5 250,-131.5 330,-131.5 330,-112.5 250,-112.5"/>
<text text-anchor="middle" x="290" y="-119.5" font-family="Helvetica,sans-Serif" font-size="10.00">MultiNewton.h</text>
</a>
</g>
</g>
<!-- Node1&#45;&gt;Node10 -->
<g id="edge11" class="edge"><title>Node1&#45;&gt;Node10</title>
<path fill="none" stroke="midnightblue" d="M266.3,-159.566C272.322,-150.275 279.469,-139.248 284.328,-131.751"/>
<polygon fill="midnightblue" stroke="midnightblue" points="263.281,-157.788 260.78,-168.083 269.156,-161.595 263.281,-157.788"/>
</g>
<!-- Node5&#45;&gt;Node1 -->
<g id="edge7" class="edge"><title>Node5&#45;&gt;Node1</title>
<path fill="none" stroke="midnightblue" d="M381.145,-135.049C353.587,-145.189 312.473,-159.438 284.649,-168.444"/>
<polygon fill="midnightblue" stroke="midnightblue" points="382.484,-138.285 390.635,-131.516 380.042,-131.725 382.484,-138.285"/>
</g>
<!-- Node6 -->
<g id="node6" class="node"><title>Node6</title>
<g id="a_node6"><a xlink:href="boundaries1D_8cpp.html" target="_top" xlink:title="boundaries1D.cpp">
<polygon fill="white" stroke="black" points="463.5,-56.5 463.5,-75.5 558.5,-75.5 558.5,-56.5 463.5,-56.5"/>
<text text-anchor="middle" x="511" y="-63.5" font-family="Helvetica,sans-Serif" font-size="10.00">boundaries1D.cpp</text>
</a>
</g>
</g>
<!-- Node5&#45;&gt;Node6 -->
<g id="edge5" class="edge"><title>Node5&#45;&gt;Node6</title>
<path fill="none" stroke="midnightblue" d="M435.083,-107.59C453.757,-97.6052 478.704,-84.2672 494.813,-75.6545"/>
<polygon fill="midnightblue" stroke="midnightblue" points="433.396,-104.522 426.227,-112.324 436.696,-110.696 433.396,-104.522"/>
</g>
<!-- Node7 -->
<g id="node7" class="node"><title>Node7</title>
<g id="a_node7"><a xlink:href="OneDim_8cpp.html" target="_top" xlink:title="OneDim.cpp">
<polygon fill="white" stroke="black" points="374.5,-56.5 374.5,-75.5 445.5,-75.5 445.5,-56.5 374.5,-56.5"/>
<text text-anchor="middle" x="410" y="-63.5" font-family="Helvetica,sans-Serif" font-size="10.00">OneDim.cpp</text>
</a>
</g>
</g>
<!-- Node5&#45;&gt;Node7 -->
<g id="edge6" class="edge"><title>Node5&#45;&gt;Node7</title>
<path fill="none" stroke="midnightblue" d="M410,-101.805C410,-92.9102 410,-82.7798 410,-75.7511"/>
<polygon fill="midnightblue" stroke="midnightblue" points="406.5,-102.083 410,-112.083 413.5,-102.083 406.5,-102.083"/>
</g>
<!-- Node8 -->
<g id="node8" class="node"><title>Node8</title>
<g id="a_node8"><a xlink:href="Sim1D_8h.html" target="_top" xlink:title="Sim1D.h">
<polygon fill="white" stroke="black" points="576.5,-56.5 576.5,-75.5 631.5,-75.5 631.5,-56.5 576.5,-56.5"/>
<text text-anchor="middle" x="604" y="-63.5" font-family="Helvetica,sans-Serif" font-size="10.00">Sim1D.h</text>
</a>
</g>
</g>
<!-- Node5&#45;&gt;Node8 -->
<g id="edge8" class="edge"><title>Node5&#45;&gt;Node8</title>
<path fill="none" stroke="midnightblue" d="M450.393,-109.757C488.073,-99.2685 543.282,-83.9008 576.233,-74.729"/>
<polygon fill="midnightblue" stroke="midnightblue" points="449.435,-106.39 440.74,-112.444 451.312,-113.134 449.435,-106.39"/>
</g>
<!-- Node8&#45;&gt;Node4 -->
<g id="edge9" class="edge"><title>Node8&#45;&gt;Node4</title>
<path fill="none" stroke="midnightblue" d="M566.245,-55.8228C452.535,-34.3412 328.233,-20.2471 270.512,-14.2393"/>
<polygon fill="midnightblue" stroke="midnightblue" points="565.679,-59.278 576.159,-57.7199 566.995,-52.4027 565.679,-59.278"/>
</g>
<!-- Node9 -->
<g id="node9" class="node"><title>Node9</title>
<g id="a_node9"><a xlink:href="onedim_8h.html" target="_top" xlink:title="onedim.h">
<polygon fill="white" stroke="black" points="576,-0.5 576,-19.5 632,-19.5 632,-0.5 576,-0.5"/>
<text text-anchor="middle" x="604" y="-7.5" font-family="Helvetica,sans-Serif" font-size="10.00">onedim.h</text>
</a>
</g>
</g>
<!-- Node8&#45;&gt;Node9 -->
<g id="edge10" class="edge"><title>Node8&#45;&gt;Node9</title>
<path fill="none" stroke="midnightblue" d="M604,-45.8045C604,-36.9102 604,-26.7798 604,-19.7511"/>
<polygon fill="midnightblue" stroke="midnightblue" points="600.5,-46.083 604,-56.083 607.5,-46.083 600.5,-46.083"/>
</g>
<!-- Node10&#45;&gt;Node4 -->
<g id="edge14" class="edge"><title>Node10&#45;&gt;Node4</title>
<path fill="none" stroke="midnightblue" d="M275.655,-104.393C269.221,-96.2668 261.976,-86.0798 257,-76 247.632,-57.0238 242.045,-32.5979 239.553,-19.7675"/>
<polygon fill="midnightblue" stroke="midnightblue" points="273.112,-106.81 282.174,-112.3 278.513,-102.357 273.112,-106.81"/>
</g>
<!-- Node10&#45;&gt;Node7 -->
<g id="edge13" class="edge"><title>Node10&#45;&gt;Node7</title>
<path fill="none" stroke="midnightblue" d="M318.373,-108.232C340.82,-98.1312 371.535,-84.3091 391.075,-75.5164"/>
<polygon fill="midnightblue" stroke="midnightblue" points="316.697,-105.148 309.014,-112.444 319.57,-111.532 316.697,-105.148"/>
</g>
<!-- Node11 -->
<g id="node11" class="node"><title>Node11</title>
<g id="a_node11"><a xlink:href="MultiNewton_8cpp.html" target="_top" xlink:title="Damped Newton solver for 1D multi&#45;domain problems. ">
<polygon fill="white" stroke="black" points="266,-56.5 266,-75.5 356,-75.5 356,-56.5 266,-56.5"/>
<text text-anchor="middle" x="311" y="-63.5" font-family="Helvetica,sans-Serif" font-size="10.00">MultiNewton.cpp</text>
</a>
</g>
</g>
<!-- Node10&#45;&gt;Node11 -->
<g id="edge12" class="edge"><title>Node10&#45;&gt;Node11</title>
<path fill="none" stroke="midnightblue" d="M297.121,-102.69C300.66,-93.589 304.772,-83.0141 307.597,-75.7511"/>
<polygon fill="midnightblue" stroke="midnightblue" points="293.83,-101.494 293.468,-112.083 300.354,-104.032 293.83,-101.494"/>
</g>
</g>
</svg>
