<?xml version="1.0" encoding="UTF-8" standalone="no"?>
<!DOCTYPE svg PUBLIC "-//W3C//DTD SVG 1.1//EN"
 "http://www.w3.org/Graphics/SVG/1.1/DTD/svg11.dtd">
<!-- Generated by graphviz version 2.28.0 (20120425.2022)
 -->
<!-- Title: MultiPhaseEquil.cpp Pages: 1 -->
<svg width="692pt" height="376pt"
 viewBox="0.00 0.00 692.23 376.00" xmlns="http://www.w3.org/2000/svg" xmlns:xlink="http://www.w3.org/1999/xlink">
<g id="graph1" class="graph" transform="scale(1 1) rotate(0) translate(4 372)">
<title>MultiPhaseEquil.cpp</title>
<polygon fill="white" stroke="white" points="-4,5 -4,-372 689.232,-372 689.232,5 -4,5"/>
<!-- Node1 -->
<g id="node1" class="node"><title>Node1</title>
<polygon fill="#bfbfbf" stroke="black" points="390.232,-348.5 390.232,-367.5 496.232,-367.5 496.232,-348.5 390.232,-348.5"/>
<text text-anchor="middle" x="443.232" y="-355.5" font-family="FreeSans" font-size="10.00">MultiPhaseEquil.cpp</text>
</g>
<!-- Node2 -->
<g id="node3" class="node"><title>Node2</title>
<a xlink:href="MultiPhaseEquil_8h.html" target="_top" xlink:title="cantera/equil/MultiPhase\lEquil.h">
<polygon fill="white" stroke="black" points="77.2321,-281 77.2321,-311 205.232,-311 205.232,-281 77.2321,-281"/>
<text text-anchor="start" x="85.2321" y="-299" font-family="FreeSans" font-size="10.00">cantera/equil/MultiPhase</text>
<text text-anchor="middle" x="141.232" y="-288" font-family="FreeSans" font-size="10.00">Equil.h</text>
</a>
</g>
<!-- Node1&#45;&gt;Node2 -->
<g id="edge2" class="edge"><title>Node1&#45;&gt;Node2</title>
<path fill="none" stroke="midnightblue" d="M400.284,-348.467C352.177,-338.91 273.346,-323.248 215.258,-311.707"/>
<polygon fill="midnightblue" stroke="midnightblue" points="215.885,-308.263 205.395,-309.748 214.521,-315.129 215.885,-308.263"/>
</g>
<!-- Node10 -->
<g id="node19" class="node"><title>Node10</title>
<a xlink:href="MultiPhase_8h.html" target="_top" xlink:title="Headers for the MultiPhase object that is used to set up multiphase equilibrium problems (see Equilib...">
<polygon fill="white" stroke="black" points="104.232,-224.5 104.232,-243.5 178.232,-243.5 178.232,-224.5 104.232,-224.5"/>
<text text-anchor="middle" x="141.232" y="-231.5" font-family="FreeSans" font-size="10.00">MultiPhase.h</text>
</a>
</g>
<!-- Node1&#45;&gt;Node10 -->
<g id="edge38" class="edge"><title>Node1&#45;&gt;Node10</title>
<path fill="none" stroke="midnightblue" d="M408.382,-348.426C377.594,-340.41 331.734,-327.386 293.232,-312 246.341,-293.261 194.4,-265.276 164.994,-248.707"/>
<polygon fill="midnightblue" stroke="midnightblue" points="166.348,-245.452 155.925,-243.556 162.891,-251.538 166.348,-245.452"/>
</g>
<!-- Node16 -->
<g id="node36" class="node"><title>Node16</title>
<a xlink:href="MolalityVPSSTP_8h.html" target="_top" xlink:title="Header for intermediate ThermoPhase object for phases which employ molality based activity coefficien...">
<polygon fill="white" stroke="black" points="302.232,-286.5 302.232,-305.5 472.232,-305.5 472.232,-286.5 302.232,-286.5"/>
<text text-anchor="middle" x="387.232" y="-293.5" font-family="FreeSans" font-size="10.00">cantera/thermo/MolalityVPSSTP.h</text>
</a>
</g>
<!-- Node1&#45;&gt;Node16 -->
<g id="edge40" class="edge"><title>Node1&#45;&gt;Node16</title>
<path fill="none" stroke="midnightblue" d="M435.209,-348.403C426.642,-339.225 412.871,-324.47 402.275,-313.117"/>
<polygon fill="midnightblue" stroke="midnightblue" points="404.623,-310.503 395.241,-305.581 399.505,-315.279 404.623,-310.503"/>
</g>
<!-- Node20 -->
<g id="node46" class="node"><title>Node20</title>
<a xlink:href="global_8h.html" target="_top" xlink:title="This file contains definitions for utility functions and text for modules, inputfiles, logs, textlogs, HTML_logs (see Input File Handling, Diagnostic Output, Writing messages to the screen and Writing HTML Logfiles). ">
<polygon fill="white" stroke="black" points="485.232,-112.5 485.232,-131.5 537.232,-131.5 537.232,-112.5 485.232,-112.5"/>
<text text-anchor="middle" x="511.232" y="-119.5" font-family="FreeSans" font-size="10.00">global.h</text>
</a>
</g>
<!-- Node1&#45;&gt;Node20 -->
<g id="edge56" class="edge"><title>Node1&#45;&gt;Node20</title>
<path fill="none" stroke="midnightblue" d="M453.058,-348.404C461.934,-340.041 474.592,-326.504 481.232,-312 507.698,-254.192 511.36,-177.197 511.522,-142.004"/>
<polygon fill="midnightblue" stroke="midnightblue" points="515.021,-141.742 511.471,-131.76 508.021,-141.777 515.021,-141.742"/>
</g>
<!-- Node21 -->
<g id="node50" class="node"><title>Node21</title>
<a xlink:href="stringUtils_8h.html" target="_top" xlink:title="Contains declarations for string manipulation functions within Cantera. ">
<polygon fill="white" stroke="black" points="555.732,-112.5 555.732,-131.5 684.732,-131.5 684.732,-112.5 555.732,-112.5"/>
<text text-anchor="middle" x="620.232" y="-119.5" font-family="FreeSans" font-size="10.00">cantera/base/stringUtils.h</text>
</a>
</g>
<!-- Node1&#45;&gt;Node21 -->
<g id="edge58" class="edge"><title>Node1&#45;&gt;Node21</title>
<path fill="none" stroke="midnightblue" d="M457.239,-348.186C469.738,-339.872 488.05,-326.541 501.232,-312 551.957,-256.047 594.381,-175.83 611.772,-140.66"/>
<polygon fill="midnightblue" stroke="midnightblue" points="614.939,-142.151 616.174,-131.628 608.647,-139.084 614.939,-142.151"/>
</g>
<!-- Node22 -->
<g id="node54" class="node"><title>Node22</title>
<polygon fill="white" stroke="#bfbfbf" points="566.232,-286.5 566.232,-305.5 610.232,-305.5 610.232,-286.5 566.232,-286.5"/>
<text text-anchor="middle" x="588.232" y="-293.5" font-family="FreeSans" font-size="10.00">cstdio</text>
</g>
<!-- Node1&#45;&gt;Node22 -->
<g id="edge64" class="edge"><title>Node1&#45;&gt;Node22</title>
<path fill="none" stroke="midnightblue" d="M464.137,-348.393C486.085,-339.351 521.597,-324.706 552.232,-312 554.108,-311.222 556.039,-310.42 557.986,-309.611"/>
<polygon fill="midnightblue" stroke="midnightblue" points="559.789,-312.652 567.676,-305.578 557.099,-306.189 559.789,-312.652"/>
</g>
<!-- Node3 -->
<g id="node5" class="node"><title>Node3</title>
<a xlink:href="ct__defs_8h.html" target="_top" xlink:title="This file contains definitions of terms that are used in internal routines and are unlikely to need m...">
<polygon fill="white" stroke="black" points="236.732,-56.5 236.732,-75.5 355.732,-75.5 355.732,-56.5 236.732,-56.5"/>
<text text-anchor="middle" x="296.232" y="-63.5" font-family="FreeSans" font-size="10.00">cantera/base/ct_defs.h</text>
</a>
</g>
<!-- Node2&#45;&gt;Node3 -->
<g id="edge4" class="edge"><title>Node2&#45;&gt;Node3</title>
<path fill="none" stroke="midnightblue" d="M109.58,-280.864C76.3601,-264.077 25.9988,-232.619 4.23214,-188 -4.92568,-169.228 3.08053,-122.948 14.2321,-112 43.5025,-83.2653 152.748,-72.8764 226.355,-69.1221"/>
<polygon fill="midnightblue" stroke="midnightblue" points="226.672,-72.611 236.493,-68.6352 226.336,-65.619 226.672,-72.611"/>
</g>
<!-- Node2&#45;&gt;Node10 -->
<g id="edge18" class="edge"><title>Node2&#45;&gt;Node10</title>
<path fill="none" stroke="midnightblue" d="M141.232,-280.781C141.232,-272.781 141.232,-262.689 141.232,-254.017"/>
<polygon fill="midnightblue" stroke="midnightblue" points="144.732,-253.73 141.232,-243.731 137.732,-253.731 144.732,-253.73"/>
</g>
<!-- Node4 -->
<g id="node7" class="node"><title>Node4</title>
<a xlink:href="config_8h_source.html" target="_top" xlink:title="config.h">
<polygon fill="white" stroke="black" points="141.732,-0.5 141.732,-19.5 192.732,-19.5 192.732,-0.5 141.732,-0.5"/>
<text text-anchor="middle" x="167.232" y="-7.5" font-family="FreeSans" font-size="10.00">config.h</text>
</a>
</g>
<!-- Node3&#45;&gt;Node4 -->
<g id="edge6" class="edge"><title>Node3&#45;&gt;Node4</title>
<path fill="none" stroke="midnightblue" d="M275.792,-56.4435C254.562,-47.5566 221.133,-33.5632 196.977,-23.4514"/>
<polygon fill="midnightblue" stroke="midnightblue" points="198.153,-20.1493 187.577,-19.5164 195.45,-26.6064 198.153,-20.1493"/>
</g>
<!-- Node5 -->
<g id="node9" class="node"><title>Node5</title>
<polygon fill="white" stroke="#bfbfbf" points="211.232,-0.5 211.232,-19.5 255.232,-19.5 255.232,-0.5 211.232,-0.5"/>
<text text-anchor="middle" x="233.232" y="-7.5" font-family="FreeSans" font-size="10.00">cmath</text>
</g>
<!-- Node3&#45;&gt;Node5 -->
<g id="edge8" class="edge"><title>Node3&#45;&gt;Node5</title>
<path fill="none" stroke="midnightblue" d="M286.11,-56.324C276.706,-48.2631 262.488,-36.0765 251.163,-26.3695"/>
<polygon fill="midnightblue" stroke="midnightblue" points="253.409,-23.6844 243.538,-19.8339 248.853,-28.9993 253.409,-23.6844"/>
</g>
<!-- Node6 -->
<g id="node11" class="node"><title>Node6</title>
<polygon fill="white" stroke="#bfbfbf" points="273.732,-0.5 273.732,-19.5 318.732,-19.5 318.732,-0.5 273.732,-0.5"/>
<text text-anchor="middle" x="296.232" y="-7.5" font-family="FreeSans" font-size="10.00">cstdlib</text>
</g>
<!-- Node3&#45;&gt;Node6 -->
<g id="edge10" class="edge"><title>Node3&#45;&gt;Node6</title>
<path fill="none" stroke="midnightblue" d="M296.232,-56.083C296.232,-49.0059 296.232,-38.8611 296.232,-29.9865"/>
<polygon fill="midnightblue" stroke="midnightblue" points="299.732,-29.751 296.232,-19.7511 292.732,-29.7511 299.732,-29.751"/>
</g>
<!-- Node7 -->
<g id="node13" class="node"><title>Node7</title>
<polygon fill="white" stroke="#bfbfbf" points="337.232,-0.5 337.232,-19.5 381.232,-19.5 381.232,-0.5 337.232,-0.5"/>
<text text-anchor="middle" x="359.232" y="-7.5" font-family="FreeSans" font-size="10.00">vector</text>
</g>
<!-- Node3&#45;&gt;Node7 -->
<g id="edge12" class="edge"><title>Node3&#45;&gt;Node7</title>
<path fill="none" stroke="midnightblue" d="M306.354,-56.324C315.759,-48.2631 329.976,-36.0765 341.301,-26.3695"/>
<polygon fill="midnightblue" stroke="midnightblue" points="343.611,-28.9993 348.926,-19.8339 339.056,-23.6844 343.611,-28.9993"/>
</g>
<!-- Node8 -->
<g id="node15" class="node"><title>Node8</title>
<polygon fill="white" stroke="#bfbfbf" points="399.232,-0.5 399.232,-19.5 435.232,-19.5 435.232,-0.5 399.232,-0.5"/>
<text text-anchor="middle" x="417.232" y="-7.5" font-family="FreeSans" font-size="10.00">map</text>
</g>
<!-- Node3&#45;&gt;Node8 -->
<g id="edge14" class="edge"><title>Node3&#45;&gt;Node8</title>
<path fill="none" stroke="midnightblue" d="M315.405,-56.4435C335.373,-47.532 366.848,-33.4856 389.52,-23.3674"/>
<polygon fill="midnightblue" stroke="midnightblue" points="391.236,-26.4346 398.941,-19.1629 388.383,-20.0422 391.236,-26.4346"/>
</g>
<!-- Node9 -->
<g id="node17" class="node"><title>Node9</title>
<polygon fill="white" stroke="#bfbfbf" points="489.732,-0.5 489.732,-19.5 530.732,-19.5 530.732,-0.5 489.732,-0.5"/>
<text text-anchor="middle" x="510.232" y="-7.5" font-family="FreeSans" font-size="10.00">string</text>
</g>
<!-- Node3&#45;&gt;Node9 -->
<g id="edge16" class="edge"><title>Node3&#45;&gt;Node9</title>
<path fill="none" stroke="midnightblue" d="M330.141,-56.4435C371.361,-46.0423 440.301,-28.6462 479.856,-18.6651"/>
<polygon fill="midnightblue" stroke="midnightblue" points="480.875,-22.0175 489.715,-16.1772 479.163,-15.2303 480.875,-22.0175"/>
</g>
<!-- Node10&#45;&gt;Node3 -->
<g id="edge20" class="edge"><title>Node10&#45;&gt;Node3</title>
<path fill="none" stroke="midnightblue" d="M104.075,-231.073C74.0921,-227.326 33.6574,-216.831 13.2321,-188 -0.997984,-167.913 16.1002,-125.112 31.2321,-112 59.7037,-87.329 157.676,-75.8777 226.154,-70.7846"/>
<polygon fill="midnightblue" stroke="midnightblue" points="226.728,-74.2526 236.453,-70.0495 226.229,-67.2704 226.728,-74.2526"/>
</g>
<!-- Node11 -->
<g id="node22" class="node"><title>Node11</title>
<a xlink:href="DenseMatrix_8h.html" target="_top" xlink:title="Headers for the DenseMatrix object, which deals with dense rectangular matrices and description of th...">
<polygon fill="white" stroke="black" points="22.7321,-168.5 22.7321,-187.5 183.732,-187.5 183.732,-168.5 22.7321,-168.5"/>
<text text-anchor="middle" x="103.232" y="-175.5" font-family="FreeSans" font-size="10.00">cantera/numerics/DenseMatrix.h</text>
</a>
</g>
<!-- Node10&#45;&gt;Node11 -->
<g id="edge22" class="edge"><title>Node10&#45;&gt;Node11</title>
<path fill="none" stroke="midnightblue" d="M134.957,-224.083C129.59,-216.455 121.715,-205.264 115.153,-195.941"/>
<polygon fill="midnightblue" stroke="midnightblue" points="118.008,-193.915 109.39,-187.751 112.283,-197.943 118.008,-193.915"/>
</g>
<!-- Node13 -->
<g id="node28" class="node"><title>Node13</title>
<a xlink:href="ThermoPhase_8h.html" target="_top" xlink:title="Header file for class ThermoPhase, the base class for phases with thermodynamic properties, and the text for the Module thermoprops (see Thermodynamic Properties and class ThermoPhase). ">
<polygon fill="white" stroke="black" points="209.232,-168.5 209.232,-187.5 369.232,-187.5 369.232,-168.5 209.232,-168.5"/>
<text text-anchor="middle" x="289.232" y="-175.5" font-family="FreeSans" font-size="10.00">cantera/thermo/ThermoPhase.h</text>
</a>
</g>
<!-- Node10&#45;&gt;Node13 -->
<g id="edge30" class="edge"><title>Node10&#45;&gt;Node13</title>
<path fill="none" stroke="midnightblue" d="M164.683,-224.444C189.365,-215.438 228.417,-201.189 256.209,-191.049"/>
<polygon fill="midnightblue" stroke="midnightblue" points="257.696,-194.232 265.891,-187.516 255.297,-187.656 257.696,-194.232"/>
</g>
<!-- Node11&#45;&gt;Node3 -->
<g id="edge24" class="edge"><title>Node11&#45;&gt;Node3</title>
<path fill="none" stroke="midnightblue" d="M83.5583,-168.382C58.6985,-156.319 21.2014,-133.462 39.2321,-112 62.72,-84.0422 158.555,-73.4509 226.297,-69.4406"/>
<polygon fill="midnightblue" stroke="midnightblue" points="226.703,-72.9235 236.493,-68.8736 226.314,-65.9343 226.703,-72.9235"/>
</g>
<!-- Node12 -->
<g id="node25" class="node"><title>Node12</title>
<a xlink:href="Array_8h.html" target="_top" xlink:title="Header file for class Cantera::Array2D. ">
<polygon fill="white" stroke="red" points="48.2321,-112.5 48.2321,-131.5 158.232,-131.5 158.232,-112.5 48.2321,-112.5"/>
<text text-anchor="middle" x="103.232" y="-119.5" font-family="FreeSans" font-size="10.00">cantera/base/Array.h</text>
</a>
</g>
<!-- Node11&#45;&gt;Node12 -->
<g id="edge26" class="edge"><title>Node11&#45;&gt;Node12</title>
<path fill="none" stroke="midnightblue" d="M103.232,-168.083C103.232,-161.006 103.232,-150.861 103.232,-141.986"/>
<polygon fill="midnightblue" stroke="midnightblue" points="106.732,-141.751 103.232,-131.751 99.7322,-141.751 106.732,-141.751"/>
</g>
<!-- Node12&#45;&gt;Node3 -->
<g id="edge28" class="edge"><title>Node12&#45;&gt;Node3</title>
<path fill="none" stroke="midnightblue" d="M133.814,-112.444C166.847,-103.201 219.62,-88.4356 255.998,-78.2572"/>
<polygon fill="midnightblue" stroke="midnightblue" points="257.107,-81.5815 265.794,-75.5164 255.221,-74.8404 257.107,-81.5815"/>
</g>
<!-- Node14 -->
<g id="node30" class="node"><title>Node14</title>
<a xlink:href="Phase_8h.html" target="_top" xlink:title="Header file for class Phase. ">
<polygon fill="white" stroke="red" points="176.732,-112.5 176.732,-131.5 229.732,-131.5 229.732,-112.5 176.732,-112.5"/>
<text text-anchor="middle" x="203.232" y="-119.5" font-family="FreeSans" font-size="10.00">Phase.h</text>
</a>
</g>
<!-- Node13&#45;&gt;Node14 -->
<g id="edge32" class="edge"><title>Node13&#45;&gt;Node14</title>
<path fill="none" stroke="midnightblue" d="M275.415,-168.324C261.999,-159.9 241.408,-146.971 225.647,-137.074"/>
<polygon fill="midnightblue" stroke="midnightblue" points="227.345,-134.008 217.015,-131.655 223.623,-139.936 227.345,-134.008"/>
</g>
<!-- Node15 -->
<g id="node32" class="node"><title>Node15</title>
<a xlink:href="SpeciesThermo_8h.html" target="_top" xlink:title="Virtual base class for the calculation of multiple&#45;species thermodynamic reference&#45;state property man...">
<polygon fill="white" stroke="black" points="247.732,-112.5 247.732,-131.5 344.732,-131.5 344.732,-112.5 247.732,-112.5"/>
<text text-anchor="middle" x="296.232" y="-119.5" font-family="FreeSans" font-size="10.00">SpeciesThermo.h</text>
</a>
</g>
<!-- Node13&#45;&gt;Node15 -->
<g id="edge34" class="edge"><title>Node13&#45;&gt;Node15</title>
<path fill="none" stroke="midnightblue" d="M290.388,-168.083C291.316,-160.927 292.65,-150.635 293.809,-141.691"/>
<polygon fill="midnightblue" stroke="midnightblue" points="297.283,-142.118 295.098,-131.751 290.341,-141.218 297.283,-142.118"/>
</g>
<!-- Node15&#45;&gt;Node3 -->
<g id="edge36" class="edge"><title>Node15&#45;&gt;Node3</title>
<path fill="none" stroke="midnightblue" d="M296.232,-112.083C296.232,-105.006 296.232,-94.8611 296.232,-85.9865"/>
<polygon fill="midnightblue" stroke="midnightblue" points="299.732,-85.751 296.232,-75.7511 292.732,-85.7511 299.732,-85.751"/>
</g>
<!-- Node17 -->
<g id="node38" class="node"><title>Node17</title>
<a xlink:href="VPStandardStateTP_8h.html" target="_top" xlink:title="Header file for a derived class of ThermoPhase that handles variable pressure standard state methods ...">
<polygon fill="white" stroke="black" points="329.232,-224.5 329.232,-243.5 445.232,-243.5 445.232,-224.5 329.232,-224.5"/>
<text text-anchor="middle" x="387.232" y="-231.5" font-family="FreeSans" font-size="10.00">VPStandardStateTP.h</text>
</a>
</g>
<!-- Node16&#45;&gt;Node17 -->
<g id="edge42" class="edge"><title>Node16&#45;&gt;Node17</title>
<path fill="none" stroke="midnightblue" d="M387.232,-286.403C387.232,-277.938 387.232,-264.728 387.232,-253.82"/>
<polygon fill="midnightblue" stroke="midnightblue" points="390.732,-253.581 387.232,-243.581 383.732,-253.581 390.732,-253.581"/>
</g>
<!-- Node17&#45;&gt;Node13 -->
<g id="edge44" class="edge"><title>Node17&#45;&gt;Node13</title>
<path fill="none" stroke="midnightblue" d="M371.487,-224.324C355.913,-215.743 331.855,-202.486 313.773,-192.522"/>
<polygon fill="midnightblue" stroke="midnightblue" points="315.386,-189.415 304.938,-187.655 312.008,-195.546 315.386,-189.415"/>
</g>
<!-- Node18 -->
<g id="node41" class="node"><title>Node18</title>
<a xlink:href="VPSSMgr_8h.html" target="_top" xlink:title="Declaration file for a virtual base class that manages the calculation of standard state properties f...">
<polygon fill="white" stroke="black" points="393.232,-168.5 393.232,-187.5 461.232,-187.5 461.232,-168.5 393.232,-168.5"/>
<text text-anchor="middle" x="427.232" y="-175.5" font-family="FreeSans" font-size="10.00">VPSSMgr.h</text>
</a>
</g>
<!-- Node17&#45;&gt;Node18 -->
<g id="edge46" class="edge"><title>Node17&#45;&gt;Node18</title>
<path fill="none" stroke="midnightblue" d="M393.837,-224.083C399.487,-216.455 407.777,-205.264 414.683,-195.941"/>
<polygon fill="midnightblue" stroke="midnightblue" points="417.61,-197.87 420.75,-187.751 411.985,-193.703 417.61,-197.87"/>
</g>
<!-- Node18&#45;&gt;Node3 -->
<g id="edge48" class="edge"><title>Node18&#45;&gt;Node3</title>
<path fill="none" stroke="midnightblue" d="M417.792,-168.424C403.859,-155.831 376.882,-131.699 353.232,-112 341.002,-101.813 326.971,-90.7287 315.891,-82.1104"/>
<polygon fill="midnightblue" stroke="midnightblue" points="317.778,-79.1451 307.728,-75.7915 313.493,-84.6805 317.778,-79.1451"/>
</g>
<!-- Node19 -->
<g id="node44" class="node"><title>Node19</title>
<a xlink:href="mix__defs_8h.html" target="_top" xlink:title="mix_defs.h">
<polygon fill="white" stroke="black" points="401.732,-112.5 401.732,-131.5 466.732,-131.5 466.732,-112.5 401.732,-112.5"/>
<text text-anchor="middle" x="434.232" y="-119.5" font-family="FreeSans" font-size="10.00">mix_defs.h</text>
</a>
</g>
<!-- Node18&#45;&gt;Node19 -->
<g id="edge50" class="edge"><title>Node18&#45;&gt;Node19</title>
<path fill="none" stroke="midnightblue" d="M428.388,-168.083C429.316,-160.927 430.65,-150.635 431.809,-141.691"/>
<polygon fill="midnightblue" stroke="midnightblue" points="435.283,-142.118 433.098,-131.751 428.341,-141.218 435.283,-142.118"/>
</g>
<!-- Node18&#45;&gt;Node20 -->
<g id="edge52" class="edge"><title>Node18&#45;&gt;Node20</title>
<path fill="none" stroke="midnightblue" d="M440.728,-168.324C453.832,-159.9 473.944,-146.971 489.339,-137.074"/>
<polygon fill="midnightblue" stroke="midnightblue" points="491.25,-140.006 497.77,-131.655 487.465,-134.118 491.25,-140.006"/>
</g>
<!-- Node20&#45;&gt;Node3 -->
<g id="edge54" class="edge"><title>Node20&#45;&gt;Node3</title>
<path fill="none" stroke="midnightblue" d="M484.869,-114.379C448.771,-105.312 383.492,-88.9164 339.998,-77.9924"/>
<polygon fill="midnightblue" stroke="midnightblue" points="340.806,-74.5868 330.255,-75.5453 339.101,-81.3759 340.806,-74.5868"/>
</g>
<!-- Node21&#45;&gt;Node3 -->
<g id="edge60" class="edge"><title>Node21&#45;&gt;Node3</title>
<path fill="none" stroke="midnightblue" d="M568.893,-112.444C511.424,-102.865 418.366,-87.3556 357.232,-77.1667"/>
<polygon fill="midnightblue" stroke="midnightblue" points="357.77,-73.7081 347.331,-75.5164 356.619,-80.6129 357.77,-73.7081"/>
</g>
<!-- Node21&#45;&gt;Node9 -->
<g id="edge62" class="edge"><title>Node21&#45;&gt;Node9</title>
<path fill="none" stroke="midnightblue" d="M611.601,-112.368C593.126,-93.8941 549.525,-50.2926 525.976,-26.7436"/>
<polygon fill="midnightblue" stroke="midnightblue" points="528.37,-24.1876 518.824,-19.5914 523.42,-29.1374 528.37,-24.1876"/>
</g>
</g>
</svg>
