<?xml version="1.0" encoding="UTF-8" standalone="no"?>
<!DOCTYPE svg PUBLIC "-//W3C//DTD SVG 1.1//EN"
 "http://www.w3.org/Graphics/SVG/1.1/DTD/svg11.dtd">
<!-- Generated by graphviz version 2.36.0 (20140111.2315)
 -->
<!-- Title: MultiPhaseEquil.h Pages: 1 -->
<svg width="632pt" height="476pt"
 viewBox="0.00 0.00 632.00 476.00" xmlns="http://www.w3.org/2000/svg" xmlns:xlink="http://www.w3.org/1999/xlink">
<g id="graph0" class="graph" transform="scale(1 1) rotate(0) translate(4 472)">
<title>MultiPhaseEquil.h</title>
<polygon fill="white" stroke="none" points="-4,4 -4,-472 628,-472 628,4 -4,4"/>
<!-- Node1 -->
<g id="node1" class="node"><title>Node1</title>
<polygon fill="#bfbfbf" stroke="black" points="88.5,-448.5 88.5,-467.5 181.5,-467.5 181.5,-448.5 88.5,-448.5"/>
<text text-anchor="middle" x="135" y="-455.5" font-family="FreeSans" font-size="10.00">MultiPhaseEquil.h</text>
</g>
<!-- Node2 -->
<g id="node2" class="node"><title>Node2</title>
<g id="a_node2"><a xlink:href="ct__defs_8h.html" target="_top" xlink:title="This file contains definitions of terms that are used in internal routines and are unlikely to need m...">
<polygon fill="white" stroke="black" points="303,-56.5 303,-75.5 417,-75.5 417,-56.5 303,-56.5"/>
<text text-anchor="middle" x="360" y="-63.5" font-family="FreeSans" font-size="10.00">cantera/base/ct_defs.h</text>
</a>
</g>
</g>
<!-- Node1&#45;&gt;Node2 -->
<g id="edge1" class="edge"><title>Node1&#45;&gt;Node2</title>
<path fill="none" stroke="midnightblue" d="M107.355,-448.416C67.8589,-434.23 0,-401.872 0,-347 0,-347 0,-347 0,-177 0,-131.532 37.5512,-130.691 79,-112 147.512,-81.1053 233.819,-71.0376 292.583,-67.9541"/>
<polygon fill="midnightblue" stroke="midnightblue" points="293.036,-71.4368 302.86,-67.4713 292.707,-64.4445 293.036,-71.4368"/>
</g>
<!-- Node9 -->
<g id="node9" class="node"><title>Node9</title>
<g id="a_node9"><a xlink:href="MultiPhase_8h.html" target="_top" xlink:title="Headers for the MultiPhase object that is used to set up multiphase equilibrium problems (see Equilib...">
<polygon fill="white" stroke="black" points="235,-392.5 235,-411.5 307,-411.5 307,-392.5 235,-392.5"/>
<text text-anchor="middle" x="271" y="-399.5" font-family="FreeSans" font-size="10.00">MultiPhase.h</text>
</a>
</g>
</g>
<!-- Node1&#45;&gt;Node9 -->
<g id="edge8" class="edge"><title>Node1&#45;&gt;Node9</title>
<path fill="none" stroke="midnightblue" d="M156.55,-448.444C179.031,-439.517 214.488,-425.439 239.98,-415.317"/>
<polygon fill="midnightblue" stroke="midnightblue" points="241.549,-418.46 249.551,-411.516 238.965,-411.954 241.549,-418.46"/>
</g>
<!-- Node3 -->
<g id="node3" class="node"><title>Node3</title>
<g id="a_node3"><a xlink:href="config_8h_source.html" target="_top" xlink:title="config.h">
<polygon fill="white" stroke="black" points="396,-0.5 396,-19.5 446,-19.5 446,-0.5 396,-0.5"/>
<text text-anchor="middle" x="421" y="-7.5" font-family="FreeSans" font-size="10.00">config.h</text>
</a>
</g>
</g>
<!-- Node2&#45;&gt;Node3 -->
<g id="edge2" class="edge"><title>Node2&#45;&gt;Node3</title>
<path fill="none" stroke="midnightblue" d="M369.801,-56.324C378.818,-48.3414 392.406,-36.3128 403.318,-26.6529"/>
<polygon fill="midnightblue" stroke="midnightblue" points="405.853,-29.083 411.021,-19.8339 401.213,-23.8416 405.853,-29.083"/>
</g>
<!-- Node4 -->
<g id="node4" class="node"><title>Node4</title>
<polygon fill="white" stroke="#bfbfbf" points="464,-0.5 464,-19.5 508,-19.5 508,-0.5 464,-0.5"/>
<text text-anchor="middle" x="486" y="-7.5" font-family="FreeSans" font-size="10.00">cmath</text>
</g>
<!-- Node2&#45;&gt;Node4 -->
<g id="edge3" class="edge"><title>Node2&#45;&gt;Node4</title>
<path fill="none" stroke="midnightblue" d="M379.965,-56.4435C400.609,-47.5961 433.063,-33.6875 456.632,-23.5865"/>
<polygon fill="midnightblue" stroke="midnightblue" points="458.316,-26.6727 466.128,-19.5164 455.558,-20.2387 458.316,-26.6727"/>
</g>
<!-- Node5 -->
<g id="node5" class="node"><title>Node5</title>
<polygon fill="white" stroke="#bfbfbf" points="219,-0.5 219,-19.5 263,-19.5 263,-0.5 219,-0.5"/>
<text text-anchor="middle" x="241" y="-7.5" font-family="FreeSans" font-size="10.00">cstdlib</text>
</g>
<!-- Node2&#45;&gt;Node5 -->
<g id="edge4" class="edge"><title>Node2&#45;&gt;Node5</title>
<path fill="none" stroke="midnightblue" d="M341.144,-56.4435C321.734,-47.6356 291.27,-33.8116 269.035,-23.722"/>
<polygon fill="midnightblue" stroke="midnightblue" points="270.32,-20.4615 259.768,-19.5164 267.428,-26.836 270.32,-20.4615"/>
</g>
<!-- Node6 -->
<g id="node6" class="node"><title>Node6</title>
<polygon fill="white" stroke="#bfbfbf" points="281.5,-0.5 281.5,-19.5 324.5,-19.5 324.5,-0.5 281.5,-0.5"/>
<text text-anchor="middle" x="303" y="-7.5" font-family="FreeSans" font-size="10.00">vector</text>
</g>
<!-- Node2&#45;&gt;Node6 -->
<g id="edge5" class="edge"><title>Node2&#45;&gt;Node6</title>
<path fill="none" stroke="midnightblue" d="M350.842,-56.324C342.499,-48.4196 329.968,-36.5482 319.823,-26.9377"/>
<polygon fill="midnightblue" stroke="midnightblue" points="321.991,-24.1705 312.325,-19.8339 317.177,-29.2522 321.991,-24.1705"/>
</g>
<!-- Node7 -->
<g id="node7" class="node"><title>Node7</title>
<polygon fill="white" stroke="#bfbfbf" points="342.5,-0.5 342.5,-19.5 377.5,-19.5 377.5,-0.5 342.5,-0.5"/>
<text text-anchor="middle" x="360" y="-7.5" font-family="FreeSans" font-size="10.00">map</text>
</g>
<!-- Node2&#45;&gt;Node7 -->
<g id="edge6" class="edge"><title>Node2&#45;&gt;Node7</title>
<path fill="none" stroke="midnightblue" d="M360,-56.083C360,-49.0059 360,-38.8611 360,-29.9865"/>
<polygon fill="midnightblue" stroke="midnightblue" points="363.5,-29.751 360,-19.7511 356.5,-29.7511 363.5,-29.751"/>
</g>
<!-- Node8 -->
<g id="node8" class="node"><title>Node8</title>
<polygon fill="white" stroke="#bfbfbf" points="109,-0.5 109,-19.5 149,-19.5 149,-0.5 109,-0.5"/>
<text text-anchor="middle" x="129" y="-7.5" font-family="FreeSans" font-size="10.00">string</text>
</g>
<!-- Node2&#45;&gt;Node8 -->
<g id="edge7" class="edge"><title>Node2&#45;&gt;Node8</title>
<path fill="none" stroke="midnightblue" d="M323.397,-56.4435C278.01,-45.8336 201.487,-27.9451 159.257,-18.0732"/>
<polygon fill="midnightblue" stroke="midnightblue" points="159.834,-14.6136 149.3,-15.7454 158.24,-21.4299 159.834,-14.6136"/>
</g>
<!-- Node9&#45;&gt;Node2 -->
<g id="edge9" class="edge"><title>Node9&#45;&gt;Node2</title>
<path fill="none" stroke="midnightblue" d="M307.118,-397.512C397.086,-387.829 624,-356.876 624,-291 624,-291 624,-291 624,-177 624,-91.9405 505.782,-71.4629 427.563,-67.2233"/>
<polygon fill="midnightblue" stroke="midnightblue" points="427.436,-63.7136 417.284,-66.746 427.111,-70.7061 427.436,-63.7136"/>
</g>
<!-- Node10 -->
<g id="node10" class="node"><title>Node10</title>
<g id="a_node10"><a xlink:href="DenseMatrix_8h.html" target="_top" xlink:title="Headers for the DenseMatrix object, which deals with dense rectangular matrices and description of th...">
<polygon fill="white" stroke="black" points="41.5,-224.5 41.5,-243.5 196.5,-243.5 196.5,-224.5 41.5,-224.5"/>
<text text-anchor="middle" x="119" y="-231.5" font-family="FreeSans" font-size="10.00">cantera/numerics/DenseMatrix.h</text>
</a>
</g>
</g>
<!-- Node9&#45;&gt;Node10 -->
<g id="edge10" class="edge"><title>Node9&#45;&gt;Node10</title>
<path fill="none" stroke="midnightblue" d="M262.828,-392.075C238.384,-365.38 165.575,-285.865 133.945,-251.322"/>
<polygon fill="midnightblue" stroke="midnightblue" points="136.18,-248.58 126.845,-243.568 131.017,-253.307 136.18,-248.58"/>
</g>
<!-- Node16 -->
<g id="node16" class="node"><title>Node16</title>
<g id="a_node16"><a xlink:href="ThermoPhase_8h.html" target="_top" xlink:title="Header file for class ThermoPhase, the base class for phases with thermodynamic properties, and the text for the Module thermoprops (see Thermodynamic Properties and class ThermoPhase). ">
<polygon fill="white" stroke="black" points="281,-336.5 281,-355.5 433,-355.5 433,-336.5 281,-336.5"/>
<text text-anchor="middle" x="357" y="-343.5" font-family="FreeSans" font-size="10.00">cantera/thermo/ThermoPhase.h</text>
</a>
</g>
</g>
<!-- Node9&#45;&gt;Node16 -->
<g id="edge20" class="edge"><title>Node9&#45;&gt;Node16</title>
<path fill="none" stroke="midnightblue" d="M284.817,-392.324C298.233,-383.9 318.824,-370.971 334.586,-361.074"/>
<polygon fill="midnightblue" stroke="midnightblue" points="336.609,-363.936 343.217,-355.655 332.887,-358.008 336.609,-363.936"/>
</g>
<!-- Node10&#45;&gt;Node2 -->
<g id="edge11" class="edge"><title>Node10&#45;&gt;Node2</title>
<path fill="none" stroke="midnightblue" d="M98.7774,-224.495C84.2289,-217.168 65.6991,-205.063 57,-188 34.819,-144.493 114.044,-113.976 118,-112 172.9,-84.5757 242.359,-73.7589 292.767,-69.547"/>
<polygon fill="midnightblue" stroke="midnightblue" points="293.201,-73.0241 302.903,-68.7673 292.664,-66.0447 293.201,-73.0241"/>
</g>
<!-- Node11 -->
<g id="node11" class="node"><title>Node11</title>
<g id="a_node11"><a xlink:href="Array_8h.html" target="_top" xlink:title="Header file for class Cantera::Array2D. ">
<polygon fill="white" stroke="black" points="66.5,-168.5 66.5,-187.5 171.5,-187.5 171.5,-168.5 66.5,-168.5"/>
<text text-anchor="middle" x="119" y="-175.5" font-family="FreeSans" font-size="10.00">cantera/base/Array.h</text>
</a>
</g>
</g>
<!-- Node10&#45;&gt;Node11 -->
<g id="edge12" class="edge"><title>Node10&#45;&gt;Node11</title>
<path fill="none" stroke="midnightblue" d="M119,-224.083C119,-217.006 119,-206.861 119,-197.986"/>
<polygon fill="midnightblue" stroke="midnightblue" points="122.5,-197.751 119,-187.751 115.5,-197.751 122.5,-197.751"/>
</g>
<!-- Node11&#45;&gt;Node2 -->
<g id="edge13" class="edge"><title>Node11&#45;&gt;Node2</title>
<path fill="none" stroke="midnightblue" d="M118.134,-168.455C117.239,-154.547 117.693,-127.057 133,-112 155.224,-90.1389 233.917,-78.2459 292.452,-72.269"/>
<polygon fill="midnightblue" stroke="midnightblue" points="293.151,-75.7172 302.761,-71.2555 292.466,-68.7508 293.151,-75.7172"/>
</g>
<!-- Node12 -->
<g id="node12" class="node"><title>Node12</title>
<g id="a_node12"><a xlink:href="ctexceptions_8h.html" target="_top" xlink:title="Definitions for the classes that are thrown when Cantera experiences an error condition (also contain...">
<polygon fill="white" stroke="red" points="63,-56.5 63,-75.5 141,-75.5 141,-56.5 63,-56.5"/>
<text text-anchor="middle" x="102" y="-63.5" font-family="FreeSans" font-size="10.00">ctexceptions.h</text>
</a>
</g>
</g>
<!-- Node11&#45;&gt;Node12 -->
<g id="edge14" class="edge"><title>Node11&#45;&gt;Node12</title>
<path fill="none" stroke="midnightblue" d="M114.124,-168.372C109.441,-159.552 102.692,-145.299 100,-132 96.8811,-116.595 97.7459,-98.7216 99.184,-85.6208"/>
<polygon fill="midnightblue" stroke="midnightblue" points="102.679,-85.8888 100.51,-75.5184 95.7383,-84.978 102.679,-85.8888"/>
</g>
<!-- Node13 -->
<g id="node13" class="node"><title>Node13</title>
<g id="a_node13"><a xlink:href="utilities_8h.html" target="_top" xlink:title="Various templated functions that carry out common vector operations (see Templated Utility Functions)...">
<polygon fill="white" stroke="red" points="214,-112.5 214,-131.5 268,-131.5 268,-112.5 214,-112.5"/>
<text text-anchor="middle" x="241" y="-119.5" font-family="FreeSans" font-size="10.00">utilities.h</text>
</a>
</g>
</g>
<!-- Node11&#45;&gt;Node13 -->
<g id="edge16" class="edge"><title>Node11&#45;&gt;Node13</title>
<path fill="none" stroke="midnightblue" d="M138.331,-168.444C158.32,-159.596 189.743,-145.687 212.564,-135.586"/>
<polygon fill="midnightblue" stroke="midnightblue" points="214.032,-138.764 221.759,-131.516 211.198,-132.363 214.032,-138.764"/>
</g>
<!-- Node14 -->
<g id="node14" class="node"><title>Node14</title>
<polygon fill="white" stroke="#bfbfbf" points="142.5,-112.5 142.5,-131.5 195.5,-131.5 195.5,-112.5 142.5,-112.5"/>
<text text-anchor="middle" x="169" y="-119.5" font-family="FreeSans" font-size="10.00">iostream</text>
</g>
<!-- Node11&#45;&gt;Node14 -->
<g id="edge18" class="edge"><title>Node11&#45;&gt;Node14</title>
<path fill="none" stroke="midnightblue" d="M127.256,-168.083C134.465,-160.298 145.11,-148.801 153.846,-139.367"/>
<polygon fill="midnightblue" stroke="midnightblue" points="156.671,-141.467 160.897,-131.751 151.535,-136.711 156.671,-141.467"/>
</g>
<!-- Node15 -->
<g id="node15" class="node"><title>Node15</title>
<polygon fill="white" stroke="#bfbfbf" points="286.5,-112.5 286.5,-131.5 331.5,-131.5 331.5,-112.5 286.5,-112.5"/>
<text text-anchor="middle" x="309" y="-119.5" font-family="FreeSans" font-size="10.00">cstring</text>
</g>
<!-- Node11&#45;&gt;Node15 -->
<g id="edge19" class="edge"><title>Node11&#45;&gt;Node15</title>
<path fill="none" stroke="midnightblue" d="M149.106,-168.444C183.868,-158.564 240.834,-142.373 276.556,-132.221"/>
<polygon fill="midnightblue" stroke="midnightblue" points="277.81,-135.503 286.472,-129.403 275.896,-128.77 277.81,-135.503"/>
</g>
<!-- Node12&#45;&gt;Node8 -->
<g id="edge15" class="edge"><title>Node12&#45;&gt;Node8</title>
<path fill="none" stroke="midnightblue" d="M106.459,-56.083C110.154,-48.6913 115.523,-37.9533 120.094,-28.8111"/>
<polygon fill="midnightblue" stroke="midnightblue" points="123.283,-30.2606 124.624,-19.7511 117.022,-27.1301 123.283,-30.2606"/>
</g>
<!-- Node13&#45;&gt;Node2 -->
<g id="edge17" class="edge"><title>Node13&#45;&gt;Node2</title>
<path fill="none" stroke="midnightblue" d="M259.856,-112.444C279.266,-103.636 309.73,-89.8116 331.965,-79.722"/>
<polygon fill="midnightblue" stroke="midnightblue" points="333.572,-82.836 341.232,-75.5164 330.68,-76.4615 333.572,-82.836"/>
</g>
<!-- Node17 -->
<g id="node17" class="node"><title>Node17</title>
<g id="a_node17"><a xlink:href="Phase_8h.html" target="_top" xlink:title="Header file for class Phase. ">
<polygon fill="white" stroke="black" points="331.5,-280.5 331.5,-299.5 382.5,-299.5 382.5,-280.5 331.5,-280.5"/>
<text text-anchor="middle" x="357" y="-287.5" font-family="FreeSans" font-size="10.00">Phase.h</text>
</a>
</g>
</g>
<!-- Node16&#45;&gt;Node17 -->
<g id="edge21" class="edge"><title>Node16&#45;&gt;Node17</title>
<path fill="none" stroke="midnightblue" d="M357,-336.083C357,-329.006 357,-318.861 357,-309.986"/>
<polygon fill="midnightblue" stroke="midnightblue" points="360.5,-309.751 357,-299.751 353.5,-309.751 360.5,-309.751"/>
</g>
<!-- Node22 -->
<g id="node22" class="node"><title>Node22</title>
<g id="a_node22"><a xlink:href="SpeciesThermo_8h.html" target="_top" xlink:title="Virtual base class for the calculation of multiple&#45;species thermodynamic reference&#45;state property man...">
<polygon fill="white" stroke="black" points="472,-280.5 472,-299.5 564,-299.5 564,-280.5 472,-280.5"/>
<text text-anchor="middle" x="518" y="-287.5" font-family="FreeSans" font-size="10.00">SpeciesThermo.h</text>
</a>
</g>
</g>
<!-- Node16&#45;&gt;Node22 -->
<g id="edge34" class="edge"><title>Node16&#45;&gt;Node22</title>
<path fill="none" stroke="midnightblue" d="M382.511,-336.444C409.596,-327.359 452.59,-312.939 482.869,-302.783"/>
<polygon fill="midnightblue" stroke="midnightblue" points="484.24,-306.015 492.608,-299.516 482.014,-299.378 484.24,-306.015"/>
</g>
<!-- Node18 -->
<g id="node18" class="node"><title>Node18</title>
<g id="a_node18"><a xlink:href="vec__functions_8h.html" target="_top" xlink:title="Templates for operations on vector&#45;like objects. ">
<polygon fill="white" stroke="red" points="190,-168.5 190,-187.5 332,-187.5 332,-168.5 190,-168.5"/>
<text text-anchor="middle" x="261" y="-175.5" font-family="FreeSans" font-size="10.00">cantera/base/vec_functions.h</text>
</a>
</g>
</g>
<!-- Node17&#45;&gt;Node18 -->
<g id="edge22" class="edge"><title>Node17&#45;&gt;Node18</title>
<path fill="none" stroke="midnightblue" d="M331.437,-285.37C307.597,-280.481 273.333,-269.26 257,-244 248.184,-230.365 250.518,-211.573 254.266,-197.7"/>
<polygon fill="midnightblue" stroke="midnightblue" points="257.712,-198.412 257.39,-187.822 251.038,-196.302 257.712,-198.412"/>
</g>
<!-- Node19 -->
<g id="node19" class="node"><title>Node19</title>
<g id="a_node19"><a xlink:href="ctml_8h.html" target="_top" xlink:title="CTML (&quot;Cantera Markup Language&quot;) is the variant of XML that Cantera uses to store data...">
<polygon fill="white" stroke="red" points="266.5,-224.5 266.5,-243.5 367.5,-243.5 367.5,-224.5 266.5,-224.5"/>
<text text-anchor="middle" x="317" y="-231.5" font-family="FreeSans" font-size="10.00">cantera/base/ctml.h</text>
</a>
</g>
</g>
<!-- Node17&#45;&gt;Node19 -->
<g id="edge27" class="edge"><title>Node17&#45;&gt;Node19</title>
<path fill="none" stroke="midnightblue" d="M350.395,-280.083C344.745,-272.455 336.455,-261.264 329.549,-251.941"/>
<polygon fill="midnightblue" stroke="midnightblue" points="332.247,-249.703 323.482,-243.751 326.622,-253.87 332.247,-249.703"/>
</g>
<!-- Node20 -->
<g id="node20" class="node"><title>Node20</title>
<g id="a_node20"><a xlink:href="Elements_8h.html" target="_top" xlink:title="Contains the LookupWtElements function and the definitions of element constraint types. ">
<polygon fill="white" stroke="black" points="388,-168.5 388,-187.5 520,-187.5 520,-168.5 388,-168.5"/>
<text text-anchor="middle" x="454" y="-175.5" font-family="FreeSans" font-size="10.00">cantera/thermo/Elements.h</text>
</a>
</g>
</g>
<!-- Node17&#45;&gt;Node20 -->
<g id="edge30" class="edge"><title>Node17&#45;&gt;Node20</title>
<path fill="none" stroke="midnightblue" d="M364.611,-280.368C380.761,-262.055 418.684,-219.049 439.571,-195.362"/>
<polygon fill="midnightblue" stroke="midnightblue" points="442.435,-197.407 446.424,-187.591 437.185,-192.777 442.435,-197.407"/>
</g>
<!-- Node21 -->
<g id="node21" class="node"><title>Node21</title>
<g id="a_node21"><a xlink:href="ValueCache_8h.html" target="_top" xlink:title="cantera/base/ValueCache.h">
<polygon fill="white" stroke="red" points="424,-224.5 424,-243.5 558,-243.5 558,-224.5 424,-224.5"/>
<text text-anchor="middle" x="491" y="-231.5" font-family="FreeSans" font-size="10.00">cantera/base/ValueCache.h</text>
</a>
</g>
</g>
<!-- Node17&#45;&gt;Node21 -->
<g id="edge32" class="edge"><title>Node17&#45;&gt;Node21</title>
<path fill="none" stroke="midnightblue" d="M378.233,-280.444C400.384,-271.517 435.319,-257.439 460.436,-247.317"/>
<polygon fill="midnightblue" stroke="midnightblue" points="461.9,-250.501 469.867,-243.516 459.283,-244.008 461.9,-250.501"/>
</g>
<!-- Node18&#45;&gt;Node2 -->
<g id="edge23" class="edge"><title>Node18&#45;&gt;Node2</title>
<path fill="none" stroke="midnightblue" d="M286.076,-168.428C303.528,-161.252 326.079,-149.365 340,-132 350.722,-118.625 355.715,-99.5141 358.029,-85.4753"/>
<polygon fill="midnightblue" stroke="midnightblue" points="361.505,-85.8874 359.368,-75.5103 354.567,-84.9549 361.505,-85.8874"/>
</g>
<!-- Node18&#45;&gt;Node13 -->
<g id="edge24" class="edge"><title>Node18&#45;&gt;Node13</title>
<path fill="none" stroke="midnightblue" d="M257.697,-168.083C255.018,-160.849 251.151,-150.409 247.814,-141.397"/>
<polygon fill="midnightblue" stroke="midnightblue" points="250.996,-139.913 244.241,-131.751 244.432,-142.344 250.996,-139.913"/>
</g>
<!-- Node18&#45;&gt;Node14 -->
<g id="edge25" class="edge"><title>Node18&#45;&gt;Node14</title>
<path fill="none" stroke="midnightblue" d="M246.219,-168.324C231.733,-159.822 209.427,-146.729 192.507,-136.797"/>
<polygon fill="midnightblue" stroke="midnightblue" points="194.141,-133.698 183.745,-131.655 190.597,-139.735 194.141,-133.698"/>
</g>
<!-- Node18&#45;&gt;Node15 -->
<g id="edge26" class="edge"><title>Node18&#45;&gt;Node15</title>
<path fill="none" stroke="midnightblue" d="M268.926,-168.083C275.846,-160.298 286.065,-148.801 294.452,-139.367"/>
<polygon fill="midnightblue" stroke="midnightblue" points="297.194,-141.55 301.221,-131.751 291.962,-136.9 297.194,-141.55"/>
</g>
<!-- Node19&#45;&gt;Node2 -->
<g id="edge28" class="edge"><title>Node19&#45;&gt;Node2</title>
<path fill="none" stroke="midnightblue" d="M322.443,-224.254C332.612,-207.268 354.011,-168.291 360,-132 362.53,-116.671 362.338,-99.0311 361.621,-85.9987"/>
<polygon fill="midnightblue" stroke="midnightblue" points="365.104,-85.6355 360.911,-75.906 358.122,-86.1271 365.104,-85.6355"/>
</g>
<!-- Node19&#45;&gt;Node11 -->
<g id="edge29" class="edge"><title>Node19&#45;&gt;Node11</title>
<path fill="none" stroke="midnightblue" d="M285.626,-224.444C251.737,-215.201 197.597,-200.436 160.276,-190.257"/>
<polygon fill="midnightblue" stroke="midnightblue" points="160.795,-186.771 150.227,-187.516 158.954,-193.524 160.795,-186.771"/>
</g>
<!-- Node20&#45;&gt;Node2 -->
<g id="edge31" class="edge"><title>Node20&#45;&gt;Node2</title>
<path fill="none" stroke="midnightblue" d="M449.522,-168.472C442.502,-155.522 428.042,-130.455 412,-112 402.454,-101.018 390.212,-90.2937 380.004,-82.0704"/>
<polygon fill="midnightblue" stroke="midnightblue" points="382.04,-79.219 372.012,-75.8004 377.719,-84.7265 382.04,-79.219"/>
</g>
<!-- Node21&#45;&gt;Node2 -->
<g id="edge33" class="edge"><title>Node21&#45;&gt;Node2</title>
<path fill="none" stroke="midnightblue" d="M502.379,-224.419C517.367,-212.021 540.546,-188.351 529,-168 501.887,-120.211 442.191,-92.6151 401.52,-78.695"/>
<polygon fill="midnightblue" stroke="midnightblue" points="402.47,-75.323 391.877,-75.5271 400.285,-81.9733 402.47,-75.323"/>
</g>
<!-- Node22&#45;&gt;Node2 -->
<g id="edge35" class="edge"><title>Node22&#45;&gt;Node2</title>
<path fill="none" stroke="midnightblue" d="M532.661,-280.402C544.406,-272.585 560.031,-259.862 567,-244 578.127,-218.673 545.891,-169.536 545,-168 528.98,-140.381 526.308,-130.093 500,-112 476.031,-95.516 445.664,-84.791 419.343,-77.964"/>
<polygon fill="midnightblue" stroke="midnightblue" points="420.021,-74.5266 409.475,-75.5345 418.348,-81.3237 420.021,-74.5266"/>
</g>
</g>
</svg>
