<?xml version="1.0" encoding="UTF-8" standalone="no"?>
<!DOCTYPE svg PUBLIC "-//W3C//DTD SVG 1.1//EN"
 "http://www.w3.org/Graphics/SVG/1.1/DTD/svg11.dtd">
<!-- Generated by graphviz version 2.40.1 (20161225.0304)
 -->
<!-- Title: MultiPhase.h Pages: 1 -->
<svg width="1023pt" height="467pt"
 viewBox="0.00 0.00 1022.79 467.00" xmlns="http://www.w3.org/2000/svg" xmlns:xlink="http://www.w3.org/1999/xlink">
<g id="graph0" class="graph" transform="scale(1 1) rotate(0) translate(4 463)">
<title>MultiPhase.h</title>
<polygon fill="#ffffff" stroke="transparent" points="-4,4 -4,-463 1018.7881,-463 1018.7881,4 -4,4"/>
<!-- Node0 -->
<g id="node1" class="node">
<title>Node0</title>
<polygon fill="#bfbfbf" stroke="#000000" points="320.4976,-440.5 320.4976,-458.5 394.3052,-458.5 394.3052,-440.5 320.4976,-440.5"/>
<text text-anchor="middle" x="357.4014" y="-446.5" font-family="Helvetica,sans-Serif" font-size="10.00" fill="#000000">MultiPhase.h</text>
</g>
<!-- Node1 -->
<g id="node2" class="node">
<title>Node1</title>
<g id="a_node2"><a xlink:href="DenseMatrix_8h.html" target="_top" xlink:title="Headers for the DenseMatrix object, which deals with dense rectangular matrices and description of th...">
<polygon fill="#ffffff" stroke="#000000" points="177.4287,-330.5 177.4287,-348.5 337.374,-348.5 337.374,-330.5 177.4287,-330.5"/>
<text text-anchor="middle" x="257.4014" y="-336.5" font-family="Helvetica,sans-Serif" font-size="10.00" fill="#000000">cantera/numerics/DenseMatrix.h</text>
</a>
</g>
</g>
<!-- Node0&#45;&gt;Node1 -->
<g id="edge1" class="edge">
<title>Node0&#45;&gt;Node1</title>
<path fill="none" stroke="#191970" d="M349.2179,-440.4982C332.4439,-422.0467 293.9399,-379.6924 272.5044,-356.1134"/>
<polygon fill="#191970" stroke="#191970" points="275.0144,-353.6712 265.6979,-348.6261 269.8348,-358.3799 275.0144,-353.6712"/>
</g>
<!-- Node23 -->
<g id="node24" class="node">
<title>Node23</title>
<g id="a_node24"><a xlink:href="ThermoPhase_8h.html" target="_top" xlink:title="Header file for class ThermoPhase, the base class for phases with thermodynamic properties, and the text for the Module thermoprops (see Thermodynamic Properties and class ThermoPhase). ">
<polygon fill="#ffffff" stroke="#000000" points="332.8105,-385.5 332.8105,-403.5 489.9922,-403.5 489.9922,-385.5 332.8105,-385.5"/>
<text text-anchor="middle" x="411.4014" y="-391.5" font-family="Helvetica,sans-Serif" font-size="10.00" fill="#000000">cantera/thermo/ThermoPhase.h</text>
</a>
</g>
</g>
<!-- Node0&#45;&gt;Node23 -->
<g id="edge27" class="edge">
<title>Node0&#45;&gt;Node23</title>
<path fill="none" stroke="#191970" d="M366.3184,-440.4179C374.1659,-432.425 385.7854,-420.5903 395.2625,-410.9377"/>
<polygon fill="#191970" stroke="#191970" points="397.7822,-413.3672 402.2906,-403.7795 392.7872,-408.463 397.7822,-413.3672"/>
</g>
<!-- Node2 -->
<g id="node3" class="node">
<title>Node2</title>
<g id="a_node3"><a xlink:href="ct__defs_8h.html" target="_top" xlink:title="This file contains definitions of terms that are used in internal routines and are unlikely to need m...">
<polygon fill="#ffffff" stroke="#000000" points="615.813,-55.5 615.813,-73.5 732.9897,-73.5 732.9897,-55.5 615.813,-55.5"/>
<text text-anchor="middle" x="674.4014" y="-61.5" font-family="Helvetica,sans-Serif" font-size="10.00" fill="#000000">cantera/base/ct_defs.h</text>
</a>
</g>
</g>
<!-- Node1&#45;&gt;Node2 -->
<g id="edge2" class="edge">
<title>Node1&#45;&gt;Node2</title>
<path fill="none" stroke="#191970" d="M257.4014,-330.3733C257.4014,-311.5256 257.4014,-266.9306 257.4014,-229.5 257.4014,-229.5 257.4014,-229.5 257.4014,-174.5 257.4014,-131.5375 290.3646,-127.9417 329.4014,-110 377.1399,-88.0588 519.2627,-74.929 605.4818,-68.7655"/>
<polygon fill="#191970" stroke="#191970" points="605.9785,-72.2394 615.7091,-68.0483 605.4887,-65.2565 605.9785,-72.2394"/>
</g>
<!-- Node11 -->
<g id="node12" class="node">
<title>Node11</title>
<g id="a_node12"><a xlink:href="ctexceptions_8h.html" target="_top" xlink:title="Definitions for the classes that are thrown when Cantera experiences an error condition (also contain...">
<polygon fill="#ffffff" stroke="#000000" points="530.1406,-165.5 530.1406,-183.5 670.6621,-183.5 670.6621,-165.5 530.1406,-165.5"/>
<text text-anchor="middle" x="600.4014" y="-171.5" font-family="Helvetica,sans-Serif" font-size="10.00" fill="#000000">cantera/base/ctexceptions.h</text>
</a>
</g>
</g>
<!-- Node1&#45;&gt;Node11 -->
<g id="edge11" class="edge">
<title>Node1&#45;&gt;Node11</title>
<path fill="none" stroke="#191970" d="M306.0804,-330.4994C366.1427,-317.6714 469.4882,-289.8478 544.4014,-239 562.7201,-226.566 578.7185,-206.6976 588.8725,-192.2951"/>
<polygon fill="#191970" stroke="#191970" points="591.9496,-193.9935 594.6668,-183.753 586.1566,-190.0639 591.9496,-193.9935"/>
</g>
<!-- Node16 -->
<g id="node17" class="node">
<title>Node16</title>
<g id="a_node17"><a xlink:href="Array_8h.html" target="_top" xlink:title="Header file for class Cantera::Array2D. ">
<polygon fill="#ffffff" stroke="#000000" points="103.3564,-275.5 103.3564,-293.5 211.4463,-293.5 211.4463,-275.5 103.3564,-275.5"/>
<text text-anchor="middle" x="157.4014" y="-281.5" font-family="Helvetica,sans-Serif" font-size="10.00" fill="#000000">cantera/base/Array.h</text>
</a>
</g>
</g>
<!-- Node1&#45;&gt;Node16 -->
<g id="edge17" class="edge">
<title>Node1&#45;&gt;Node16</title>
<path fill="none" stroke="#191970" d="M240.8884,-330.4179C225.1103,-321.7399 201.0985,-308.5334 182.8699,-298.5077"/>
<polygon fill="#191970" stroke="#191970" points="184.3878,-295.3481 173.9389,-293.5956 181.0143,-301.4816 184.3878,-295.3481"/>
</g>
<!-- Node3 -->
<g id="node4" class="node">
<title>Node3</title>
<g id="a_node4"><a xlink:href="config_8h_source.html" target="_top" xlink:title="config.h">
<polygon fill="#ffffff" stroke="#000000" points="740.8892,-.5 740.8892,-18.5 791.9136,-18.5 791.9136,-.5 740.8892,-.5"/>
<text text-anchor="middle" x="766.4014" y="-6.5" font-family="Helvetica,sans-Serif" font-size="10.00" fill="#000000">config.h</text>
</a>
</g>
</g>
<!-- Node2&#45;&gt;Node3 -->
<g id="edge3" class="edge">
<title>Node2&#45;&gt;Node3</title>
<path fill="none" stroke="#191970" d="M689.5933,-55.4179C703.976,-46.8195 725.7953,-33.7754 742.5074,-23.7844"/>
<polygon fill="#191970" stroke="#191970" points="744.3997,-26.731 751.1869,-18.5956 740.8078,-20.7228 744.3997,-26.731"/>
</g>
<!-- Node4 -->
<g id="node5" class="node">
<title>Node4</title>
<polygon fill="#ffffff" stroke="#bfbfbf" points="488.7856,-.5 488.7856,-18.5 532.0171,-18.5 532.0171,-.5 488.7856,-.5"/>
<text text-anchor="middle" x="510.4014" y="-6.5" font-family="Helvetica,sans-Serif" font-size="10.00" fill="#000000">cmath</text>
</g>
<!-- Node2&#45;&gt;Node4 -->
<g id="edge4" class="edge">
<title>Node2&#45;&gt;Node4</title>
<path fill="none" stroke="#191970" d="M647.3201,-55.4179C618.3032,-45.6866 572.306,-30.2607 541.744,-20.0112"/>
<polygon fill="#191970" stroke="#191970" points="542.612,-16.6108 532.0181,-16.7495 540.3862,-23.2475 542.612,-16.6108"/>
</g>
<!-- Node5 -->
<g id="node6" class="node">
<title>Node5</title>
<polygon fill="#ffffff" stroke="#bfbfbf" points="550.229,-.5 550.229,-18.5 594.5737,-18.5 594.5737,-.5 550.229,-.5"/>
<text text-anchor="middle" x="572.4014" y="-6.5" font-family="Helvetica,sans-Serif" font-size="10.00" fill="#000000">cstdlib</text>
</g>
<!-- Node2&#45;&gt;Node5 -->
<g id="edge5" class="edge">
<title>Node2&#45;&gt;Node5</title>
<path fill="none" stroke="#191970" d="M657.5581,-55.4179C641.3907,-46.7001 616.7476,-33.4122 598.1238,-23.3699"/>
<polygon fill="#191970" stroke="#191970" points="599.7327,-20.2611 589.2696,-18.5956 596.4104,-26.4225 599.7327,-20.2611"/>
</g>
<!-- Node6 -->
<g id="node7" class="node">
<title>Node6</title>
<polygon fill="#ffffff" stroke="#bfbfbf" points="938.7856,-.5 938.7856,-18.5 982.0171,-18.5 982.0171,-.5 938.7856,-.5"/>
<text text-anchor="middle" x="960.4014" y="-6.5" font-family="Helvetica,sans-Serif" font-size="10.00" fill="#000000">vector</text>
</g>
<!-- Node2&#45;&gt;Node6 -->
<g id="edge6" class="edge">
<title>Node2&#45;&gt;Node6</title>
<path fill="none" stroke="#191970" d="M733.0527,-56.0967C782.7759,-48.505 856.1062,-36.2128 928.7045,-18.9348"/>
<polygon fill="#191970" stroke="#191970" points="929.5761,-22.325 938.4764,-16.5774 927.9345,-15.5202 929.5761,-22.325"/>
</g>
<!-- Node7 -->
<g id="node8" class="node">
<title>Node7</title>
<polygon fill="#ffffff" stroke="#bfbfbf" points="612.6748,-.5 612.6748,-18.5 648.1279,-18.5 648.1279,-.5 612.6748,-.5"/>
<text text-anchor="middle" x="630.4014" y="-6.5" font-family="Helvetica,sans-Serif" font-size="10.00" fill="#000000">map</text>
</g>
<!-- Node2&#45;&gt;Node7 -->
<g id="edge7" class="edge">
<title>Node2&#45;&gt;Node7</title>
<path fill="none" stroke="#191970" d="M667.1357,-55.4179C660.9313,-47.6624 651.8334,-36.29 644.2442,-26.8035"/>
<polygon fill="#191970" stroke="#191970" points="646.805,-24.4017 637.8249,-18.7795 641.3389,-28.7746 646.805,-24.4017"/>
</g>
<!-- Node8 -->
<g id="node9" class="node">
<title>Node8</title>
<polygon fill="#ffffff" stroke="#bfbfbf" points="810.1748,-.5 810.1748,-18.5 850.6279,-18.5 850.6279,-.5 810.1748,-.5"/>
<text text-anchor="middle" x="830.4014" y="-6.5" font-family="Helvetica,sans-Serif" font-size="10.00" fill="#000000">string</text>
</g>
<!-- Node2&#45;&gt;Node8 -->
<g id="edge8" class="edge">
<title>Node2&#45;&gt;Node8</title>
<path fill="none" stroke="#191970" d="M700.1616,-55.4179C727.7205,-45.7016 771.3815,-30.3083 800.453,-20.0587"/>
<polygon fill="#191970" stroke="#191970" points="801.8099,-23.2916 810.0771,-16.6656 799.4823,-16.6898 801.8099,-23.2916"/>
</g>
<!-- Node9 -->
<g id="node10" class="node">
<title>Node9</title>
<polygon fill="#ffffff" stroke="#bfbfbf" points="665.8374,-.5 665.8374,-18.5 722.9653,-18.5 722.9653,-.5 665.8374,-.5"/>
<text text-anchor="middle" x="694.4014" y="-6.5" font-family="Helvetica,sans-Serif" font-size="10.00" fill="#000000">algorithm</text>
</g>
<!-- Node2&#45;&gt;Node9 -->
<g id="edge9" class="edge">
<title>Node2&#45;&gt;Node9</title>
<path fill="none" stroke="#191970" d="M677.704,-55.4179C680.3802,-48.0581 684.241,-37.441 687.5761,-28.2695"/>
<polygon fill="#191970" stroke="#191970" points="690.8988,-29.3735 691.027,-18.7795 684.3202,-26.9813 690.8988,-29.3735"/>
</g>
<!-- Node10 -->
<g id="node11" class="node">
<title>Node10</title>
<polygon fill="#ffffff" stroke="#bfbfbf" points="868.3447,-.5 868.3447,-18.5 920.458,-18.5 920.458,-.5 868.3447,-.5"/>
<text text-anchor="middle" x="894.4014" y="-6.5" font-family="Helvetica,sans-Serif" font-size="10.00" fill="#000000">memory</text>
</g>
<!-- Node2&#45;&gt;Node10 -->
<g id="edge10" class="edge">
<title>Node2&#45;&gt;Node10</title>
<path fill="none" stroke="#191970" d="M712.3794,-55.44C747.7764,-46.9333 802.2775,-33.6771 858.3095,-19.2423"/>
<polygon fill="#191970" stroke="#191970" points="859.2399,-22.6169 868.046,-16.7259 857.4883,-15.8396 859.2399,-22.6169"/>
</g>
<!-- Node12 -->
<g id="node13" class="node">
<title>Node12</title>
<g id="a_node13"><a xlink:href="fmt_8h.html" target="_top" xlink:title="Wrapper for either system&#45;installed or local headers for fmt. ">
<polygon fill="#ffffff" stroke="#000000" points="337.9902,-110.5 337.9902,-128.5 436.8125,-128.5 436.8125,-110.5 337.9902,-110.5"/>
<text text-anchor="middle" x="387.4014" y="-116.5" font-family="Helvetica,sans-Serif" font-size="10.00" fill="#000000">cantera/base/fmt.h</text>
</a>
</g>
</g>
<!-- Node11&#45;&gt;Node12 -->
<g id="edge12" class="edge">
<title>Node11&#45;&gt;Node12</title>
<path fill="none" stroke="#191970" d="M565.2287,-165.4179C528.8149,-156.0152 471.8118,-141.2961 432.1971,-131.067"/>
<polygon fill="#191970" stroke="#191970" points="432.8297,-127.6156 422.2722,-128.5042 431.0796,-134.3933 432.8297,-127.6156"/>
</g>
<!-- Node15 -->
<g id="node16" class="node">
<title>Node15</title>
<polygon fill="#ffffff" stroke="#bfbfbf" points="529.9976,-110.5 529.9976,-128.5 588.8052,-128.5 588.8052,-110.5 529.9976,-110.5"/>
<text text-anchor="middle" x="559.4014" y="-116.5" font-family="Helvetica,sans-Serif" font-size="10.00" fill="#000000">exception</text>
</g>
<!-- Node11&#45;&gt;Node15 -->
<g id="edge16" class="edge">
<title>Node11&#45;&gt;Node15</title>
<path fill="none" stroke="#191970" d="M593.6311,-165.4179C587.8497,-157.6624 579.3721,-146.29 572.3003,-136.8035"/>
<polygon fill="#191970" stroke="#191970" points="575.1016,-134.7051 566.3188,-128.7795 569.4894,-138.8888 575.1016,-134.7051"/>
</g>
<!-- Node12&#45;&gt;Node2 -->
<g id="edge13" class="edge">
<title>Node12&#45;&gt;Node2</title>
<path fill="none" stroke="#191970" d="M434.4722,-110.4795C484.5202,-100.8884 563.6943,-85.7156 617.2781,-75.447"/>
<polygon fill="#191970" stroke="#191970" points="618.1423,-78.8451 627.3048,-73.5255 616.8248,-71.9702 618.1423,-78.8451"/>
</g>
<!-- Node13 -->
<g id="node14" class="node">
<title>Node13</title>
<polygon fill="#ffffff" stroke="#bfbfbf" points="255.6035,-55.5 255.6035,-73.5 377.1992,-73.5 377.1992,-55.5 255.6035,-55.5"/>
<text text-anchor="middle" x="316.4014" y="-61.5" font-family="Helvetica,sans-Serif" font-size="10.00" fill="#000000">cantera/ext/fmt/format.h</text>
</g>
<!-- Node12&#45;&gt;Node13 -->
<g id="edge14" class="edge">
<title>Node12&#45;&gt;Node13</title>
<path fill="none" stroke="#191970" d="M375.6772,-110.4179C365.0526,-102.1876 349.1697,-89.8839 336.5183,-80.0836"/>
<polygon fill="#191970" stroke="#191970" points="338.4292,-77.1365 328.3803,-73.7795 334.1424,-82.6704 338.4292,-77.1365"/>
</g>
<!-- Node14 -->
<g id="node15" class="node">
<title>Node14</title>
<polygon fill="#ffffff" stroke="#bfbfbf" points="394.7119,-55.5 394.7119,-73.5 524.0908,-73.5 524.0908,-55.5 394.7119,-55.5"/>
<text text-anchor="middle" x="459.4014" y="-61.5" font-family="Helvetica,sans-Serif" font-size="10.00" fill="#000000">cantera/ext/fmt/ostream.h</text>
</g>
<!-- Node12&#45;&gt;Node14 -->
<g id="edge15" class="edge">
<title>Node12&#45;&gt;Node14</title>
<path fill="none" stroke="#191970" d="M399.2907,-110.4179C410.0649,-102.1876 426.1715,-89.8839 439.0011,-80.0836"/>
<polygon fill="#191970" stroke="#191970" points="441.4316,-82.6313 447.2537,-73.7795 437.1823,-77.0685 441.4316,-82.6313"/>
</g>
<!-- Node17 -->
<g id="node18" class="node">
<title>Node17</title>
<g id="a_node18"><a xlink:href="utilities_8h.html" target="_top" xlink:title="Various templated functions that carry out common vector operations (see Templated Utility Functions)...">
<polygon fill="#ffffff" stroke="#000000" points="37.9482,-220.5 37.9482,-238.5 92.8545,-238.5 92.8545,-220.5 37.9482,-220.5"/>
<text text-anchor="middle" x="65.4014" y="-226.5" font-family="Helvetica,sans-Serif" font-size="10.00" fill="#000000">utilities.h</text>
</a>
</g>
</g>
<!-- Node16&#45;&gt;Node17 -->
<g id="edge18" class="edge">
<title>Node16&#45;&gt;Node17</title>
<path fill="none" stroke="#191970" d="M142.2094,-275.4179C127.8268,-266.8195 106.0075,-253.7754 89.2953,-243.7844"/>
<polygon fill="#191970" stroke="#191970" points="90.995,-240.7228 80.6159,-238.5956 87.4031,-246.731 90.995,-240.7228"/>
</g>
<!-- Node21 -->
<g id="node22" class="node">
<title>Node21</title>
<polygon fill="#ffffff" stroke="#bfbfbf" points="111.229,-220.5 111.229,-238.5 165.5737,-238.5 165.5737,-220.5 111.229,-220.5"/>
<text text-anchor="middle" x="138.4014" y="-226.5" font-family="Helvetica,sans-Serif" font-size="10.00" fill="#000000">iostream</text>
</g>
<!-- Node16&#45;&gt;Node21 -->
<g id="edge25" class="edge">
<title>Node16&#45;&gt;Node21</title>
<path fill="none" stroke="#191970" d="M154.2639,-275.4179C151.7214,-268.0581 148.0537,-257.441 144.8854,-248.2695"/>
<polygon fill="#191970" stroke="#191970" points="148.1804,-247.0885 141.607,-238.7795 141.5641,-249.3742 148.1804,-247.0885"/>
</g>
<!-- Node22 -->
<g id="node23" class="node">
<title>Node22</title>
<polygon fill="#ffffff" stroke="#bfbfbf" points="183.6748,-220.5 183.6748,-238.5 229.1279,-238.5 229.1279,-220.5 183.6748,-220.5"/>
<text text-anchor="middle" x="206.4014" y="-226.5" font-family="Helvetica,sans-Serif" font-size="10.00" fill="#000000">cstring</text>
</g>
<!-- Node16&#45;&gt;Node22 -->
<g id="edge26" class="edge">
<title>Node16&#45;&gt;Node22</title>
<path fill="none" stroke="#191970" d="M165.4927,-275.4179C172.4726,-267.5833 182.741,-256.0575 191.2437,-246.5137"/>
<polygon fill="#191970" stroke="#191970" points="194.0954,-248.5743 198.1342,-238.7795 188.8688,-243.9178 194.0954,-248.5743"/>
</g>
<!-- Node17&#45;&gt;Node2 -->
<g id="edge19" class="edge">
<title>Node17&#45;&gt;Node2</title>
<path fill="none" stroke="#191970" d="M80.1449,-220.4577C94.7876,-211.413 117.8197,-197.0125 137.4014,-184 185.2545,-152.2004 189.5749,-130.0958 243.4014,-110 276.4258,-97.6705 492.0595,-79.0102 605.2548,-69.8947"/>
<polygon fill="#191970" stroke="#191970" points="605.8598,-73.3575 615.548,-69.0693 605.3003,-66.3799 605.8598,-73.3575"/>
</g>
<!-- Node18 -->
<g id="node19" class="node">
<title>Node18</title>
<g id="a_node19"><a xlink:href="global_8h.html" target="_top" xlink:title="This file contains definitions for utility functions and text for modules, inputfiles, logs, textlogs, (see Input File Handling, Diagnostic Output, and Writing messages to the screen). ">
<polygon fill="#ffffff" stroke="#000000" points="285.8867,-165.5 285.8867,-183.5 336.916,-183.5 336.916,-165.5 285.8867,-165.5"/>
<text text-anchor="middle" x="311.4014" y="-171.5" font-family="Helvetica,sans-Serif" font-size="10.00" fill="#000000">global.h</text>
</a>
</g>
</g>
<!-- Node17&#45;&gt;Node18 -->
<g id="edge20" class="edge">
<title>Node17&#45;&gt;Node18</title>
<path fill="none" stroke="#191970" d="M93.2544,-222.231C96.3367,-221.4616 99.433,-220.7039 102.4014,-220 163.025,-205.6235 233.9582,-190.5473 275.6469,-181.864"/>
<polygon fill="#191970" stroke="#191970" points="276.5123,-185.259 285.5915,-179.7984 275.0887,-178.4053 276.5123,-185.259"/>
</g>
<!-- Node19 -->
<g id="node20" class="node">
<title>Node19</title>
<polygon fill="#ffffff" stroke="#bfbfbf" points="0,-165.5 0,-183.5 58.8027,-183.5 58.8027,-165.5 0,-165.5"/>
<text text-anchor="middle" x="29.4014" y="-171.5" font-family="Helvetica,sans-Serif" font-size="10.00" fill="#000000">stdexcept</text>
</g>
<!-- Node17&#45;&gt;Node19 -->
<g id="edge23" class="edge">
<title>Node17&#45;&gt;Node19</title>
<path fill="none" stroke="#191970" d="M59.4567,-220.4179C54.484,-212.8207 47.2395,-201.7527 41.109,-192.3866"/>
<polygon fill="#191970" stroke="#191970" points="43.8803,-190.2297 35.4752,-183.7795 38.0234,-194.0633 43.8803,-190.2297"/>
</g>
<!-- Node20 -->
<g id="node21" class="node">
<title>Node20</title>
<polygon fill="#ffffff" stroke="#bfbfbf" points="76.6182,-165.5 76.6182,-183.5 128.1846,-183.5 128.1846,-165.5 76.6182,-165.5"/>
<text text-anchor="middle" x="102.4014" y="-171.5" font-family="Helvetica,sans-Serif" font-size="10.00" fill="#000000">numeric</text>
</g>
<!-- Node17&#45;&gt;Node20 -->
<g id="edge24" class="edge">
<title>Node17&#45;&gt;Node20</title>
<path fill="none" stroke="#191970" d="M71.5112,-220.4179C76.6752,-212.7415 84.2231,-201.5217 90.5651,-192.0945"/>
<polygon fill="#191970" stroke="#191970" points="93.481,-194.0303 96.1588,-183.7795 87.673,-190.1231 93.481,-194.0303"/>
</g>
<!-- Node18&#45;&gt;Node2 -->
<g id="edge21" class="edge">
<title>Node18&#45;&gt;Node2</title>
<path fill="none" stroke="#191970" d="M337.0835,-166.5279C364.2376,-157.9252 408.204,-143.5003 445.4014,-129 464.8682,-121.4114 468.6215,-116.7307 488.4014,-110 530.8328,-95.5615 580.161,-83.711 617.3524,-75.7274"/>
<polygon fill="#191970" stroke="#191970" points="618.4458,-79.0736 627.5046,-73.5792 616.9966,-72.2252 618.4458,-79.0736"/>
</g>
<!-- Node18&#45;&gt;Node12 -->
<g id="edge22" class="edge">
<title>Node18&#45;&gt;Node12</title>
<path fill="none" stroke="#191970" d="M323.9512,-165.4179C335.5025,-157.0584 352.8606,-144.4966 366.5029,-134.6239"/>
<polygon fill="#191970" stroke="#191970" points="368.7836,-137.2938 374.8329,-128.5956 364.6797,-131.6229 368.7836,-137.2938"/>
</g>
<!-- Node23&#45;&gt;Node18 -->
<g id="edge50" class="edge">
<title>Node23&#45;&gt;Node18</title>
<path fill="none" stroke="#191970" d="M407.1983,-385.4445C402.9449,-376.2685 396.1886,-361.6601 390.4014,-349 364.4405,-292.2081 334.0611,-224.8464 319.7122,-192.9751"/>
<polygon fill="#191970" stroke="#191970" points="322.7859,-191.2764 315.4902,-183.5937 316.4025,-194.1492 322.7859,-191.2764"/>
</g>
<!-- Node24 -->
<g id="node25" class="node">
<title>Node24</title>
<g id="a_node25"><a xlink:href="Phase_8h.html" target="_top" xlink:title="Header file for class Phase. ">
<polygon fill="#ffffff" stroke="#000000" points="672.0542,-330.5 672.0542,-348.5 724.7485,-348.5 724.7485,-330.5 672.0542,-330.5"/>
<text text-anchor="middle" x="698.4014" y="-336.5" font-family="Helvetica,sans-Serif" font-size="10.00" fill="#000000">Phase.h</text>
</a>
</g>
</g>
<!-- Node23&#45;&gt;Node24 -->
<g id="edge28" class="edge">
<title>Node23&#45;&gt;Node24</title>
<path fill="none" stroke="#191970" d="M458.4722,-385.4795C515.4534,-374.5597 610.1891,-356.4048 661.9282,-346.4896"/>
<polygon fill="#191970" stroke="#191970" points="662.8205,-349.8824 671.983,-344.5627 661.503,-343.0075 662.8205,-349.8824"/>
</g>
<!-- Node34 -->
<g id="node31" class="node">
<title>Node34</title>
<g id="a_node31"><a xlink:href="MultiSpeciesThermo_8h.html" target="_top" xlink:title="Header for a general species thermodynamic property manager for a phase (see MultiSpeciesThermo). ">
<polygon fill="#ffffff" stroke="#000000" points="399.6602,-330.5 399.6602,-348.5 515.1426,-348.5 515.1426,-330.5 399.6602,-330.5"/>
<text text-anchor="middle" x="457.4014" y="-336.5" font-family="Helvetica,sans-Serif" font-size="10.00" fill="#000000">MultiSpeciesThermo.h</text>
</a>
</g>
</g>
<!-- Node23&#45;&gt;Node34 -->
<g id="edge44" class="edge">
<title>Node23&#45;&gt;Node34</title>
<path fill="none" stroke="#191970" d="M418.9973,-385.4179C425.5499,-377.5833 435.1896,-366.0575 443.1717,-356.5137"/>
<polygon fill="#191970" stroke="#191970" points="445.9096,-358.6957 449.6404,-348.7795 440.54,-354.2048 445.9096,-358.6957"/>
</g>
<!-- Node24&#45;&gt;Node11 -->
<g id="edge29" class="edge">
<title>Node24&#45;&gt;Node11</title>
<path fill="none" stroke="#191970" d="M692.8517,-330.1561C677.0849,-303.6101 631.8267,-227.41 611.0548,-192.4369"/>
<polygon fill="#191970" stroke="#191970" points="614.0061,-190.5519 605.8902,-183.7414 607.9876,-194.1266 614.0061,-190.5519"/>
</g>
<!-- Node25 -->
<g id="node26" class="node">
<title>Node25</title>
<g id="a_node26"><a xlink:href="Elements_8h.html" target="_top" xlink:title="Contains the getElementWeight function and the definitions of element constraint types. ">
<polygon fill="#ffffff" stroke="#000000" points="606.3721,-110.5 606.3721,-128.5 742.4307,-128.5 742.4307,-110.5 606.3721,-110.5"/>
<text text-anchor="middle" x="674.4014" y="-116.5" font-family="Helvetica,sans-Serif" font-size="10.00" fill="#000000">cantera/thermo/Elements.h</text>
</a>
</g>
</g>
<!-- Node24&#45;&gt;Node25 -->
<g id="edge30" class="edge">
<title>Node24&#45;&gt;Node25</title>
<path fill="none" stroke="#191970" d="M697.4156,-330.4165C694.6082,-304.5555 686.327,-228.3134 679.4014,-165 678.4508,-156.3103 677.394,-146.6876 676.4977,-138.538"/>
<polygon fill="#191970" stroke="#191970" points="679.9731,-138.1213 675.4001,-128.5642 673.0151,-138.887 679.9731,-138.1213"/>
</g>
<!-- Node26 -->
<g id="node27" class="node">
<title>Node26</title>
<g id="a_node27"><a xlink:href="Species_8h.html" target="_top" xlink:title="Declaration for class Cantera::Species. ">
<polygon fill="#ffffff" stroke="#000000" points="726.4263,-275.5 726.4263,-293.5 856.3765,-293.5 856.3765,-275.5 726.4263,-275.5"/>
<text text-anchor="middle" x="791.4014" y="-281.5" font-family="Helvetica,sans-Serif" font-size="10.00" fill="#000000">cantera/thermo/Species.h</text>
</a>
</g>
</g>
<!-- Node24&#45;&gt;Node26 -->
<g id="edge32" class="edge">
<title>Node24&#45;&gt;Node26</title>
<path fill="none" stroke="#191970" d="M713.7584,-330.4179C728.2974,-321.8195 750.3539,-308.7754 767.2477,-298.7844"/>
<polygon fill="#191970" stroke="#191970" points="769.1957,-301.6987 776.0215,-293.5956 765.6324,-295.6735 769.1957,-301.6987"/>
</g>
<!-- Node32 -->
<g id="node29" class="node">
<title>Node32</title>
<g id="a_node29"><a xlink:href="ValueCache_8h.html" target="_top" xlink:title="cantera/base/ValueCache.h">
<polygon fill="#ffffff" stroke="#000000" points="874.061,-275.5 874.061,-293.5 1012.7417,-293.5 1012.7417,-275.5 874.061,-275.5"/>
<text text-anchor="middle" x="943.4014" y="-281.5" font-family="Helvetica,sans-Serif" font-size="10.00" fill="#000000">cantera/base/ValueCache.h</text>
</a>
</g>
</g>
<!-- Node24&#45;&gt;Node32 -->
<g id="edge41" class="edge">
<title>Node24&#45;&gt;Node32</title>
<path fill="none" stroke="#191970" d="M725.0871,-333.5093C765.3163,-324.4783 842.1983,-307.2191 893.1435,-295.7824"/>
<polygon fill="#191970" stroke="#191970" points="893.9777,-299.1823 902.9682,-293.5768 892.4444,-292.3523 893.9777,-299.1823"/>
</g>
<!-- Node25&#45;&gt;Node2 -->
<g id="edge31" class="edge">
<title>Node25&#45;&gt;Node2</title>
<path fill="none" stroke="#191970" d="M674.4014,-110.4179C674.4014,-103.2164 674.4014,-92.8962 674.4014,-83.8632"/>
<polygon fill="#191970" stroke="#191970" points="677.9015,-83.7794 674.4014,-73.7795 670.9015,-83.7795 677.9015,-83.7794"/>
</g>
<!-- Node26&#45;&gt;Node2 -->
<g id="edge33" class="edge">
<title>Node26&#45;&gt;Node2</title>
<path fill="none" stroke="#191970" d="M791.7154,-275.1277C792.1805,-247.1574 790.102,-162.9441 751.4014,-110 740.9296,-95.6742 724.4625,-85.0714 709.4396,-77.7225"/>
<polygon fill="#191970" stroke="#191970" points="710.889,-74.5367 700.3389,-73.5631 707.9791,-80.9033 710.889,-74.5367"/>
</g>
<!-- Node27 -->
<g id="node28" class="node">
<title>Node27</title>
<g id="a_node28"><a xlink:href="AnyMap_8h.html" target="_top" xlink:title="cantera/base/AnyMap.h">
<polygon fill="#ffffff" stroke="#ff0000" points="836.5913,-220.5 836.5913,-238.5 958.2114,-238.5 958.2114,-220.5 836.5913,-220.5"/>
<text text-anchor="middle" x="897.4014" y="-226.5" font-family="Helvetica,sans-Serif" font-size="10.00" fill="#000000">cantera/base/AnyMap.h</text>
</a>
</g>
</g>
<!-- Node26&#45;&gt;Node27 -->
<g id="edge34" class="edge">
<title>Node26&#45;&gt;Node27</title>
<path fill="none" stroke="#191970" d="M808.9051,-275.4179C825.7833,-266.6603 851.5501,-253.2907 870.935,-243.2326"/>
<polygon fill="#191970" stroke="#191970" points="872.6073,-246.308 879.8716,-238.5956 869.3833,-240.0946 872.6073,-246.308"/>
</g>
<!-- Node27&#45;&gt;Node2 -->
<g id="edge35" class="edge">
<title>Node27&#45;&gt;Node2</title>
<path fill="none" stroke="#191970" d="M891.9727,-220.4731C875.6062,-193.31 827.5518,-113.9504 822.4014,-110 799.6106,-92.5196 770.062,-81.7047 743.3672,-75.0365"/>
<polygon fill="#191970" stroke="#191970" points="743.8305,-71.5504 733.2959,-72.6786 742.2347,-78.3661 743.8305,-71.5504"/>
</g>
<!-- Node27&#45;&gt;Node6 -->
<g id="edge39" class="edge">
<title>Node27&#45;&gt;Node6</title>
<path fill="none" stroke="#191970" d="M900.5235,-220.4778C903.655,-211.3278 908.5521,-196.7391 912.4014,-184 929.3926,-127.7684 947.1667,-60.6011 955.5181,-28.4613"/>
<polygon fill="#191970" stroke="#191970" points="958.9455,-29.1871 958.0624,-18.6292 952.1687,-27.4334 958.9455,-29.1871"/>
</g>
<!-- Node27&#45;&gt;Node8 -->
<g id="edge38" class="edge">
<title>Node27&#45;&gt;Node8</title>
<path fill="none" stroke="#191970" d="M894.6078,-220.327C884.5407,-187.271 849.9891,-73.8179 836.1755,-28.4598"/>
<polygon fill="#191970" stroke="#191970" points="839.4685,-27.2587 833.2069,-18.7122 832.7721,-29.2981 839.4685,-27.2587"/>
</g>
<!-- Node27&#45;&gt;Node10 -->
<g id="edge40" class="edge">
<title>Node27&#45;&gt;Node10</title>
<path fill="none" stroke="#191970" d="M897.7707,-220.4108C898.7539,-194.5348 901.1765,-118.257 898.4014,-55 898.0191,-46.2856 897.2268,-36.6594 896.4474,-28.514"/>
<polygon fill="#191970" stroke="#191970" points="899.9278,-28.1429 895.4324,-18.549 892.9638,-28.8523 899.9278,-28.1429"/>
</g>
<!-- Node27&#45;&gt;Node11 -->
<g id="edge37" class="edge">
<title>Node27&#45;&gt;Node11</title>
<path fill="none" stroke="#191970" d="M848.6904,-220.4795C796.7909,-210.8684 714.6251,-195.6525 659.1695,-185.383"/>
<polygon fill="#191970" stroke="#191970" points="659.6091,-181.905 649.1389,-183.5255 658.3344,-188.7879 659.6091,-181.905"/>
</g>
<!-- Node27&#45;&gt;Node18 -->
<g id="edge36" class="edge">
<title>Node27&#45;&gt;Node18</title>
<path fill="none" stroke="#191970" d="M836.4694,-228.256C736.0606,-225.3804 529.5584,-215.9869 347.3066,-184.0609"/>
<polygon fill="#191970" stroke="#191970" points="347.7308,-180.5815 337.2724,-182.2757 346.5047,-187.4733 347.7308,-180.5815"/>
</g>
<!-- Node32&#45;&gt;Node2 -->
<g id="edge42" class="edge">
<title>Node32&#45;&gt;Node2</title>
<path fill="none" stroke="#191970" d="M897.7953,-275.4592C874.3001,-268.792 846.6274,-257.5506 827.4014,-239 782.4223,-195.6013 814.951,-154.833 771.4014,-110 756.7226,-94.8887 736.0463,-84.2425 717.5522,-77.0684"/>
<polygon fill="#191970" stroke="#191970" points="718.7171,-73.7678 708.1232,-73.6281 716.3177,-80.3438 718.7171,-73.7678"/>
</g>
<!-- Node33 -->
<g id="node30" class="node">
<title>Node33</title>
<polygon fill="#ffffff" stroke="#bfbfbf" points="976.0146,-220.5 976.0146,-238.5 1014.7881,-238.5 1014.7881,-220.5 976.0146,-220.5"/>
<text text-anchor="middle" x="995.4014" y="-226.5" font-family="Helvetica,sans-Serif" font-size="10.00" fill="#000000">limits</text>
</g>
<!-- Node32&#45;&gt;Node33 -->
<g id="edge43" class="edge">
<title>Node32&#45;&gt;Node33</title>
<path fill="none" stroke="#191970" d="M951.9881,-275.4179C959.4702,-267.5041 970.5129,-255.8243 979.5885,-246.2251"/>
<polygon fill="#191970" stroke="#191970" points="982.3012,-248.4505 986.6281,-238.7795 977.2146,-243.6414 982.3012,-248.4505"/>
</g>
<!-- Node35 -->
<g id="node32" class="node">
<title>Node35</title>
<g id="a_node32"><a xlink:href="SpeciesThermoInterpType_8h.html" target="_top" xlink:title="Pure Virtual Base class for individual species reference state thermodynamic managers and text for th...">
<polygon fill="#ffffff" stroke="#000000" points="393.5889,-220.5 393.5889,-238.5 535.2139,-238.5 535.2139,-220.5 393.5889,-220.5"/>
<text text-anchor="middle" x="464.4014" y="-226.5" font-family="Helvetica,sans-Serif" font-size="10.00" fill="#000000">SpeciesThermoInterpType.h</text>
</a>
</g>
</g>
<!-- Node34&#45;&gt;Node35 -->
<g id="edge45" class="edge">
<title>Node34&#45;&gt;Node35</title>
<path fill="none" stroke="#191970" d="M457.9742,-330.4982C459.1074,-312.6913 461.6572,-272.6225 463.1826,-248.6515"/>
<polygon fill="#191970" stroke="#191970" points="466.6784,-248.8283 463.8206,-238.6261 459.6925,-248.3836 466.6784,-248.8283"/>
</g>
<!-- Node35&#45;&gt;Node2 -->
<g id="edge46" class="edge">
<title>Node35&#45;&gt;Node2</title>
<path fill="none" stroke="#191970" d="M468.2116,-220.4512C479.4393,-193.9508 512.1857,-117.8795 521.4014,-110 536.4344,-97.1467 582.2722,-84.4808 619.8877,-75.7895"/>
<polygon fill="#191970" stroke="#191970" points="620.7667,-79.1792 629.7471,-73.5574 619.221,-72.352 620.7667,-79.1792"/>
</g>
<!-- Node35&#45;&gt;Node11 -->
<g id="edge48" class="edge">
<title>Node35&#45;&gt;Node11</title>
<path fill="none" stroke="#191970" d="M486.859,-220.4179C509.1047,-211.4215 543.3851,-197.5581 568.4607,-187.4172"/>
<polygon fill="#191970" stroke="#191970" points="569.952,-190.5895 577.9104,-183.5956 567.3275,-184.1001 569.952,-190.5895"/>
</g>
<!-- Node35&#45;&gt;Node18 -->
<g id="edge49" class="edge">
<title>Node35&#45;&gt;Node18</title>
<path fill="none" stroke="#191970" d="M439.1365,-220.4179C413.702,-211.2748 374.2832,-197.1046 345.9628,-186.924"/>
<polygon fill="#191970" stroke="#191970" points="347.0439,-183.5935 336.4494,-183.5042 344.6759,-190.1808 347.0439,-183.5935"/>
</g>
<!-- Node36 -->
<g id="node33" class="node">
<title>Node36</title>
<g id="a_node33"><a xlink:href="speciesThermoTypes_8h.html" target="_top" xlink:title="Contains const definitions for types of species reference&#45;state thermodynamics managers (see Species ...">
<polygon fill="#ffffff" stroke="#000000" points="354.7095,-165.5 354.7095,-183.5 474.0933,-183.5 474.0933,-165.5 354.7095,-165.5"/>
<text text-anchor="middle" x="414.4014" y="-171.5" font-family="Helvetica,sans-Serif" font-size="10.00" fill="#000000">speciesThermoTypes.h</text>
</a>
</g>
</g>
<!-- Node35&#45;&gt;Node36 -->
<g id="edge47" class="edge">
<title>Node35&#45;&gt;Node36</title>
<path fill="none" stroke="#191970" d="M456.1449,-220.4179C448.9506,-212.5041 438.3326,-200.8243 429.606,-191.2251"/>
<polygon fill="#191970" stroke="#191970" points="432.1538,-188.8245 422.8372,-183.7795 426.9742,-193.5332 432.1538,-188.8245"/>
</g>
</g>
</svg>
