<?xml version="1.0" encoding="UTF-8" standalone="no"?>
<!DOCTYPE svg PUBLIC "-//W3C//DTD SVG 1.1//EN"
 "http://www.w3.org/Graphics/SVG/1.1/DTD/svg11.dtd">
<!-- Generated by graphviz version 2.36.0 (20140111.2315)
 -->
<!-- Title: Nasa9Poly1.cpp Pages: 1 -->
<svg width="381pt" height="252pt"
 viewBox="0.00 0.00 381.00 252.00" xmlns="http://www.w3.org/2000/svg" xmlns:xlink="http://www.w3.org/1999/xlink">
<g id="graph0" class="graph" transform="scale(1 1) rotate(0) translate(4 248)">
<title>Nasa9Poly1.cpp</title>
<polygon fill="white" stroke="none" points="-4,4 -4,-248 377,-248 377,4 -4,4"/>
<!-- Node1 -->
<g id="node1" class="node"><title>Node1</title>
<polygon fill="#bfbfbf" stroke="black" points="191,-224.5 191,-243.5 277,-243.5 277,-224.5 191,-224.5"/>
<text text-anchor="middle" x="234" y="-231.5" font-family="FreeSans" font-size="10.00">Nasa9Poly1.cpp</text>
</g>
<!-- Node2 -->
<g id="node2" class="node"><title>Node2</title>
<g id="a_node2"><a xlink:href="Nasa9Poly1_8h.html" target="_top" xlink:title="Header for a single&#45;species standard state object derived from SpeciesThermoInterpType based on the N...">
<polygon fill="white" stroke="black" points="162.5,-168.5 162.5,-187.5 305.5,-187.5 305.5,-168.5 162.5,-168.5"/>
<text text-anchor="middle" x="234" y="-175.5" font-family="FreeSans" font-size="10.00">cantera/thermo/Nasa9Poly1.h</text>
</a>
</g>
</g>
<!-- Node1&#45;&gt;Node2 -->
<g id="edge1" class="edge"><title>Node1&#45;&gt;Node2</title>
<path fill="none" stroke="midnightblue" d="M234,-224.083C234,-217.006 234,-206.861 234,-197.986"/>
<polygon fill="midnightblue" stroke="midnightblue" points="237.5,-197.751 234,-187.751 230.5,-197.751 237.5,-197.751"/>
</g>
<!-- Node3 -->
<g id="node3" class="node"><title>Node3</title>
<g id="a_node3"><a xlink:href="global_8h.html" target="_top" xlink:title="This file contains definitions for utility functions and text for modules, inputfiles, logs, textlogs, (see Input File Handling, Diagnostic Output, and Writing messages to the screen). ">
<polygon fill="white" stroke="black" points="110,-112.5 110,-131.5 218,-131.5 218,-112.5 110,-112.5"/>
<text text-anchor="middle" x="164" y="-119.5" font-family="FreeSans" font-size="10.00">cantera/base/global.h</text>
</a>
</g>
</g>
<!-- Node2&#45;&gt;Node3 -->
<g id="edge2" class="edge"><title>Node2&#45;&gt;Node3</title>
<path fill="none" stroke="midnightblue" d="M222.753,-168.324C212.203,-160.185 196.199,-147.839 183.558,-138.087"/>
<polygon fill="midnightblue" stroke="midnightblue" points="185.507,-135.171 175.451,-131.834 181.231,-140.713 185.507,-135.171"/>
</g>
<!-- Node11 -->
<g id="node11" class="node"><title>Node11</title>
<g id="a_node11"><a xlink:href="SpeciesThermoInterpType_8h.html" target="_top" xlink:title="Pure Virtual Base class for individual species reference state thermodynamic managers and text for th...">
<polygon fill="white" stroke="black" points="236.5,-112.5 236.5,-131.5 373.5,-131.5 373.5,-112.5 236.5,-112.5"/>
<text text-anchor="middle" x="305" y="-119.5" font-family="FreeSans" font-size="10.00">SpeciesThermoInterpType.h</text>
</a>
</g>
</g>
<!-- Node2&#45;&gt;Node11 -->
<g id="edge10" class="edge"><title>Node2&#45;&gt;Node11</title>
<path fill="none" stroke="midnightblue" d="M245.407,-168.324C256.109,-160.185 272.341,-147.839 285.163,-138.087"/>
<polygon fill="midnightblue" stroke="midnightblue" points="287.544,-140.673 293.385,-131.834 283.307,-135.102 287.544,-140.673"/>
</g>
<!-- Node4 -->
<g id="node4" class="node"><title>Node4</title>
<g id="a_node4"><a xlink:href="ct__defs_8h.html" target="_top" xlink:title="This file contains definitions of terms that are used in internal routines and are unlikely to need m...">
<polygon fill="white" stroke="black" points="155,-56.5 155,-75.5 211,-75.5 211,-56.5 155,-56.5"/>
<text text-anchor="middle" x="183" y="-63.5" font-family="FreeSans" font-size="10.00">ct_defs.h</text>
</a>
</g>
</g>
<!-- Node3&#45;&gt;Node4 -->
<g id="edge3" class="edge"><title>Node3&#45;&gt;Node4</title>
<path fill="none" stroke="midnightblue" d="M167.137,-112.083C169.683,-104.849 173.356,-94.4087 176.527,-85.3968"/>
<polygon fill="midnightblue" stroke="midnightblue" points="179.903,-86.3459 179.921,-75.7511 173.3,-84.0225 179.903,-86.3459"/>
</g>
<!-- Node5 -->
<g id="node5" class="node"><title>Node5</title>
<g id="a_node5"><a xlink:href="config_8h_source.html" target="_top" xlink:title="config.h">
<polygon fill="white" stroke="black" points="0,-0.5 0,-19.5 50,-19.5 50,-0.5 0,-0.5"/>
<text text-anchor="middle" x="25" y="-7.5" font-family="FreeSans" font-size="10.00">config.h</text>
</a>
</g>
</g>
<!-- Node4&#45;&gt;Node5 -->
<g id="edge4" class="edge"><title>Node4&#45;&gt;Node5</title>
<path fill="none" stroke="midnightblue" d="M157.964,-56.4435C131.384,-47.3591 89.1912,-32.9388 59.4766,-22.7831"/>
<polygon fill="midnightblue" stroke="midnightblue" points="60.513,-19.4386 49.9184,-19.5164 58.2491,-26.0625 60.513,-19.4386"/>
</g>
<!-- Node6 -->
<g id="node6" class="node"><title>Node6</title>
<polygon fill="white" stroke="#bfbfbf" points="68,-0.5 68,-19.5 112,-19.5 112,-0.5 68,-0.5"/>
<text text-anchor="middle" x="90" y="-7.5" font-family="FreeSans" font-size="10.00">cmath</text>
</g>
<!-- Node4&#45;&gt;Node6 -->
<g id="edge5" class="edge"><title>Node4&#45;&gt;Node6</title>
<path fill="none" stroke="midnightblue" d="M168.058,-56.324C153.415,-47.8215 130.866,-34.7288 113.762,-24.7975"/>
<polygon fill="midnightblue" stroke="midnightblue" points="115.31,-21.6491 104.905,-19.6545 111.795,-27.7027 115.31,-21.6491"/>
</g>
<!-- Node7 -->
<g id="node7" class="node"><title>Node7</title>
<polygon fill="white" stroke="#bfbfbf" points="130,-0.5 130,-19.5 174,-19.5 174,-0.5 130,-0.5"/>
<text text-anchor="middle" x="152" y="-7.5" font-family="FreeSans" font-size="10.00">cstdlib</text>
</g>
<!-- Node4&#45;&gt;Node7 -->
<g id="edge6" class="edge"><title>Node4&#45;&gt;Node7</title>
<path fill="none" stroke="midnightblue" d="M177.881,-56.083C173.592,-48.6127 167.342,-37.7244 162.058,-28.5199"/>
<polygon fill="midnightblue" stroke="midnightblue" points="165.038,-26.6811 157.024,-19.7511 158.967,-30.1662 165.038,-26.6811"/>
</g>
<!-- Node8 -->
<g id="node8" class="node"><title>Node8</title>
<polygon fill="white" stroke="#bfbfbf" points="192.5,-0.5 192.5,-19.5 235.5,-19.5 235.5,-0.5 192.5,-0.5"/>
<text text-anchor="middle" x="214" y="-7.5" font-family="FreeSans" font-size="10.00">vector</text>
</g>
<!-- Node4&#45;&gt;Node8 -->
<g id="edge7" class="edge"><title>Node4&#45;&gt;Node8</title>
<path fill="none" stroke="midnightblue" d="M188.119,-56.083C192.408,-48.6127 198.658,-37.7244 203.942,-28.5199"/>
<polygon fill="midnightblue" stroke="midnightblue" points="207.033,-30.1662 208.976,-19.7511 200.962,-26.6811 207.033,-30.1662"/>
</g>
<!-- Node9 -->
<g id="node9" class="node"><title>Node9</title>
<polygon fill="white" stroke="#bfbfbf" points="253.5,-0.5 253.5,-19.5 288.5,-19.5 288.5,-0.5 253.5,-0.5"/>
<text text-anchor="middle" x="271" y="-7.5" font-family="FreeSans" font-size="10.00">map</text>
</g>
<!-- Node4&#45;&gt;Node9 -->
<g id="edge8" class="edge"><title>Node4&#45;&gt;Node9</title>
<path fill="none" stroke="midnightblue" d="M197.139,-56.324C210.866,-47.9002 231.936,-34.9709 248.064,-25.0741"/>
<polygon fill="midnightblue" stroke="midnightblue" points="250.204,-27.8678 256.896,-19.6545 246.543,-21.9016 250.204,-27.8678"/>
</g>
<!-- Node10 -->
<g id="node10" class="node"><title>Node10</title>
<polygon fill="white" stroke="#bfbfbf" points="307,-0.5 307,-19.5 347,-19.5 347,-0.5 307,-0.5"/>
<text text-anchor="middle" x="327" y="-7.5" font-family="FreeSans" font-size="10.00">string</text>
</g>
<!-- Node4&#45;&gt;Node10 -->
<g id="edge9" class="edge"><title>Node4&#45;&gt;Node10</title>
<path fill="none" stroke="midnightblue" d="M205.817,-56.4435C230.538,-47.1732 270.076,-32.3464 297.226,-22.1652"/>
<polygon fill="midnightblue" stroke="midnightblue" points="298.483,-25.4318 306.618,-18.6433 296.026,-18.8775 298.483,-25.4318"/>
</g>
<!-- Node11&#45;&gt;Node4 -->
<g id="edge11" class="edge"><title>Node11&#45;&gt;Node4</title>
<path fill="none" stroke="midnightblue" d="M285.669,-112.444C265.68,-103.596 234.257,-89.6875 211.436,-79.5865"/>
<polygon fill="midnightblue" stroke="midnightblue" points="212.802,-76.3635 202.241,-75.5164 209.968,-82.7645 212.802,-76.3635"/>
</g>
<!-- Node12 -->
<g id="node12" class="node"><title>Node12</title>
<g id="a_node12"><a xlink:href="speciesThermoTypes_8h.html" target="_top" xlink:title="Contains const definitions for types of species reference&#45;state thermodynamics managers (see Species ...">
<polygon fill="white" stroke="black" points="247.5,-56.5 247.5,-75.5 362.5,-75.5 362.5,-56.5 247.5,-56.5"/>
<text text-anchor="middle" x="305" y="-63.5" font-family="FreeSans" font-size="10.00">speciesThermoTypes.h</text>
</a>
</g>
</g>
<!-- Node11&#45;&gt;Node12 -->
<g id="edge12" class="edge"><title>Node11&#45;&gt;Node12</title>
<path fill="none" stroke="midnightblue" d="M305,-112.083C305,-105.006 305,-94.8611 305,-85.9865"/>
<polygon fill="midnightblue" stroke="midnightblue" points="308.5,-85.751 305,-75.7511 301.5,-85.7511 308.5,-85.751"/>
</g>
</g>
</svg>
