<?xml version="1.0" encoding="UTF-8" standalone="no"?>
<!DOCTYPE svg PUBLIC "-//W3C//DTD SVG 1.1//EN"
 "http://www.w3.org/Graphics/SVG/1.1/DTD/svg11.dtd">
<!-- Generated by graphviz version 2.26.3 (20100126.1600)
 -->
<!-- Title: Nasa9PolyMultiTempRegion.h Pages: 1 -->
<svg width="379pt" height="262pt"
 viewBox="0.00 0.00 379.00 262.00" xmlns="http://www.w3.org/2000/svg" xmlns:xlink="http://www.w3.org/1999/xlink">
<g id="graph1" class="graph" transform="scale(1 1) rotate(0) translate(4 258)">
<title>Nasa9PolyMultiTempRegion.h</title>
<polygon fill="white" stroke="white" points="-4,5 -4,-258 376,-258 376,5 -4,5"/>
<!-- Node1 -->
<g id="node1" class="node"><title>Node1</title>
<polygon fill="#bfbfbf" stroke="black" points="139,-233 139,-253 285,-253 285,-233 139,-233"/>
<text text-anchor="middle" x="212" y="-240" font-family="FreeSans" font-size="10.00">Nasa9PolyMultiTempRegion.h</text>
</g>
<!-- Node2 -->
<g id="node3" class="node"><title>Node2</title>
<a xlink:href="global_8h.html" target="_top" xlink:title="This file contains definitions for utility functions and text for modules, inputfiles, logs, textlogs, (see Input File Handling, Diagnostic Output, and Writing messages to the screen). ">
<polygon fill="white" stroke="black" points="109,-117 109,-137 217,-137 217,-117 109,-117"/>
<text text-anchor="middle" x="163" y="-124" font-family="FreeSans" font-size="10.00">cantera/base/global.h</text>
</a>
</g>
<!-- Node1&#45;&gt;Node2 -->
<g id="edge2" class="edge"><title>Node1&#45;&gt;Node2</title>
<path fill="none" stroke="midnightblue" d="M204.129,-232.689C197.434,-223.493 187.978,-209.445 182,-196 174.989,-180.233 169.993,-161.267 166.89,-147.213"/>
<polygon fill="midnightblue" stroke="midnightblue" points="170.261,-146.231 164.804,-137.149 163.406,-147.652 170.261,-146.231"/>
</g>
<!-- Node10 -->
<g id="node19" class="node"><title>Node10</title>
<a xlink:href="Nasa9Poly1_8h.html" target="_top" xlink:title="Header for a single&#45;species standard state object derived from SpeciesThermoInterpType based on the N...">
<polygon fill="white" stroke="black" points="190.5,-175 190.5,-195 333.5,-195 333.5,-175 190.5,-175"/>
<text text-anchor="middle" x="262" y="-182" font-family="FreeSans" font-size="10.00">cantera/thermo/Nasa9Poly1.h</text>
</a>
</g>
<!-- Node1&#45;&gt;Node10 -->
<g id="edge18" class="edge"><title>Node1&#45;&gt;Node10</title>
<path fill="none" stroke="midnightblue" d="M220.709,-232.897C227.792,-224.682 237.963,-212.883 246.439,-203.051"/>
<polygon fill="midnightblue" stroke="midnightblue" points="249.175,-205.237 253.054,-195.378 243.873,-200.666 249.175,-205.237"/>
</g>
<!-- Node3 -->
<g id="node5" class="node"><title>Node3</title>
<a xlink:href="ct__defs_8h.html" target="_top" xlink:title="This file contains definitions of terms that are used in internal routines and are unlikely to need m...">
<polygon fill="white" stroke="black" points="154,-59 154,-79 210,-79 210,-59 154,-59"/>
<text text-anchor="middle" x="182" y="-66" font-family="FreeSans" font-size="10.00">ct_defs.h</text>
</a>
</g>
<!-- Node2&#45;&gt;Node3 -->
<g id="edge4" class="edge"><title>Node2&#45;&gt;Node3</title>
<path fill="none" stroke="midnightblue" d="M166.31,-116.897C168.812,-109.257 172.331,-98.517 175.401,-89.1429"/>
<polygon fill="midnightblue" stroke="midnightblue" points="178.813,-89.9703 178.6,-79.3776 172.161,-87.7911 178.813,-89.9703"/>
</g>
<!-- Node4 -->
<g id="node7" class="node"><title>Node4</title>
<a xlink:href="config_8h_source.html" target="_top" xlink:title="config.h">
<polygon fill="white" stroke="black" points="0,-1 0,-21 50,-21 50,-1 0,-1"/>
<text text-anchor="middle" x="25" y="-8" font-family="FreeSans" font-size="10.00">config.h</text>
</a>
</g>
<!-- Node3&#45;&gt;Node4 -->
<g id="edge6" class="edge"><title>Node3&#45;&gt;Node4</title>
<path fill="none" stroke="midnightblue" d="M154.653,-58.8972C128.325,-49.1712 88.4021,-34.4224 59.8166,-23.8622"/>
<polygon fill="midnightblue" stroke="midnightblue" points="60.8126,-20.499 50.2193,-20.3167 58.3868,-27.0652 60.8126,-20.499"/>
</g>
<!-- Node5 -->
<g id="node9" class="node"><title>Node5</title>
<polygon fill="white" stroke="#bfbfbf" points="68,-1 68,-21 112,-21 112,-1 68,-1"/>
<text text-anchor="middle" x="90" y="-8" font-family="FreeSans" font-size="10.00">cmath</text>
</g>
<!-- Node3&#45;&gt;Node5 -->
<g id="edge8" class="edge"><title>Node3&#45;&gt;Node5</title>
<path fill="none" stroke="midnightblue" d="M165.975,-58.8972C151.814,-49.9698 130.941,-36.8106 114.655,-26.5431"/>
<polygon fill="midnightblue" stroke="midnightblue" points="116.476,-23.554 106.15,-21.1817 112.743,-29.4755 116.476,-23.554"/>
</g>
<!-- Node6 -->
<g id="node11" class="node"><title>Node6</title>
<polygon fill="white" stroke="#bfbfbf" points="130,-1 130,-21 174,-21 174,-1 130,-1"/>
<text text-anchor="middle" x="152" y="-8" font-family="FreeSans" font-size="10.00">cstdlib</text>
</g>
<!-- Node3&#45;&gt;Node6 -->
<g id="edge10" class="edge"><title>Node3&#45;&gt;Node6</title>
<path fill="none" stroke="midnightblue" d="M176.774,-58.8972C172.738,-51.0926 167.028,-40.0536 162.107,-30.5401"/>
<polygon fill="midnightblue" stroke="midnightblue" points="165.071,-28.6518 157.368,-21.3776 158.853,-31.8678 165.071,-28.6518"/>
</g>
<!-- Node7 -->
<g id="node13" class="node"><title>Node7</title>
<polygon fill="white" stroke="#bfbfbf" points="191.5,-1 191.5,-21 234.5,-21 234.5,-1 191.5,-1"/>
<text text-anchor="middle" x="213" y="-8" font-family="FreeSans" font-size="10.00">vector</text>
</g>
<!-- Node3&#45;&gt;Node7 -->
<g id="edge12" class="edge"><title>Node3&#45;&gt;Node7</title>
<path fill="none" stroke="midnightblue" d="M187.4,-58.8972C191.615,-51.0104 197.596,-39.8209 202.716,-30.2401"/>
<polygon fill="midnightblue" stroke="midnightblue" points="205.826,-31.8468 207.453,-21.3776 199.653,-28.5471 205.826,-31.8468"/>
</g>
<!-- Node8 -->
<g id="node15" class="node"><title>Node8</title>
<polygon fill="white" stroke="#bfbfbf" points="251.5,-1 251.5,-21 286.5,-21 286.5,-1 251.5,-1"/>
<text text-anchor="middle" x="269" y="-8" font-family="FreeSans" font-size="10.00">map</text>
</g>
<!-- Node3&#45;&gt;Node8 -->
<g id="edge14" class="edge"><title>Node3&#45;&gt;Node8</title>
<path fill="none" stroke="midnightblue" d="M197.154,-58.8972C210.421,-50.0524 229.919,-37.0539 245.256,-26.829"/>
<polygon fill="midnightblue" stroke="midnightblue" points="247.348,-29.6409 253.728,-21.1817 243.466,-23.8165 247.348,-29.6409"/>
</g>
<!-- Node9 -->
<g id="node17" class="node"><title>Node9</title>
<polygon fill="white" stroke="#bfbfbf" points="304,-1 304,-21 344,-21 344,-1 304,-1"/>
<text text-anchor="middle" x="324" y="-8" font-family="FreeSans" font-size="10.00">string</text>
</g>
<!-- Node3&#45;&gt;Node9 -->
<g id="edge16" class="edge"><title>Node3&#45;&gt;Node9</title>
<path fill="none" stroke="midnightblue" d="M206.735,-58.8972C231.113,-48.9396 268.382,-33.7171 294.339,-23.115"/>
<polygon fill="midnightblue" stroke="midnightblue" points="295.749,-26.3199 303.683,-19.2984 293.102,-19.8396 295.749,-26.3199"/>
</g>
<!-- Node10&#45;&gt;Node2 -->
<g id="edge20" class="edge"><title>Node10&#45;&gt;Node2</title>
<path fill="none" stroke="midnightblue" d="M244.756,-174.897C229.376,-165.887 206.639,-152.567 189.045,-142.259"/>
<polygon fill="midnightblue" stroke="midnightblue" points="190.777,-139.217 180.379,-137.182 187.238,-145.257 190.777,-139.217"/>
</g>
<!-- Node11 -->
<g id="node22" class="node"><title>Node11</title>
<a xlink:href="SpeciesThermoInterpType_8h.html" target="_top" xlink:title="Pure Virtual Base class for individual species reference state thermodynamic managers and text for th...">
<polygon fill="white" stroke="black" points="234.5,-117 234.5,-137 371.5,-137 371.5,-117 234.5,-117"/>
<text text-anchor="middle" x="303" y="-124" font-family="FreeSans" font-size="10.00">SpeciesThermoInterpType.h</text>
</a>
</g>
<!-- Node10&#45;&gt;Node11 -->
<g id="edge22" class="edge"><title>Node10&#45;&gt;Node11</title>
<path fill="none" stroke="midnightblue" d="M269.142,-174.897C274.833,-166.846 282.957,-155.353 289.821,-145.643"/>
<polygon fill="midnightblue" stroke="midnightblue" points="292.75,-147.564 295.664,-137.378 287.034,-143.523 292.75,-147.564"/>
</g>
<!-- Node11&#45;&gt;Node3 -->
<g id="edge24" class="edge"><title>Node11&#45;&gt;Node3</title>
<path fill="none" stroke="midnightblue" d="M281.923,-116.897C262.695,-107.68 234.058,-93.9532 212.363,-83.5542"/>
<polygon fill="midnightblue" stroke="midnightblue" points="213.771,-80.348 203.241,-79.1817 210.746,-86.6603 213.771,-80.348"/>
</g>
<!-- Node12 -->
<g id="node25" class="node"><title>Node12</title>
<a xlink:href="speciesThermoTypes_8h.html" target="_top" xlink:title="Contains const definitions for types of species reference&#45;state thermodynamics managers (see Species ...">
<polygon fill="white" stroke="black" points="245.5,-59 245.5,-79 360.5,-79 360.5,-59 245.5,-59"/>
<text text-anchor="middle" x="303" y="-66" font-family="FreeSans" font-size="10.00">speciesThermoTypes.h</text>
</a>
</g>
<!-- Node11&#45;&gt;Node12 -->
<g id="edge26" class="edge"><title>Node11&#45;&gt;Node12</title>
<path fill="none" stroke="midnightblue" d="M303,-116.897C303,-109.339 303,-98.7476 303,-89.4458"/>
<polygon fill="midnightblue" stroke="midnightblue" points="306.5,-89.3776 303,-79.3776 299.5,-89.3776 306.5,-89.3776"/>
</g>
</g>
</svg>
