<?xml version="1.0" encoding="UTF-8" standalone="no"?>
<!DOCTYPE svg PUBLIC "-//W3C//DTD SVG 1.1//EN"
 "http://www.w3.org/Graphics/SVG/1.1/DTD/svg11.dtd">
<!-- Generated by graphviz version 2.28.0 (20120425.2022)
 -->
<!-- Title: NasaThermo.h Pages: 1 -->
<svg width="788pt" height="264pt"
 viewBox="0.00 0.00 788.00 264.00" xmlns="http://www.w3.org/2000/svg" xmlns:xlink="http://www.w3.org/1999/xlink">
<g id="graph1" class="graph" transform="scale(1 1) rotate(0) translate(4 260)">
<title>NasaThermo.h</title>
<polygon fill="white" stroke="white" points="-4,5 -4,-260 785,-260 785,5 -4,5"/>
<!-- Node1 -->
<g id="node1" class="node"><title>Node1</title>
<polygon fill="#bfbfbf" stroke="black" points="527,-236.5 527,-255.5 611,-255.5 611,-236.5 527,-236.5"/>
<text text-anchor="middle" x="569" y="-243.5" font-family="FreeSans" font-size="10.00">NasaThermo.h</text>
</g>
<!-- Node2 -->
<g id="node3" class="node"><title>Node2</title>
<a xlink:href="SpeciesThermoMgr_8h.html" target="_top" xlink:title="This file contains descriptions of templated subclasses of the virtual base class, SpeciesThermo, which includes SpeciesThermoDuo (see Managers for Calculating Reference&#45;State Thermodynamics and class SpeciesThermoDuo) ">
<polygon fill="white" stroke="black" points="238,-169 238,-199 398,-199 398,-169 238,-169"/>
<text text-anchor="start" x="246" y="-187" font-family="FreeSans" font-size="10.00">cantera/thermo/SpeciesThermo</text>
<text text-anchor="middle" x="318" y="-176" font-family="FreeSans" font-size="10.00">Mgr.h</text>
</a>
</g>
<!-- Node1&#45;&gt;Node2 -->
<g id="edge2" class="edge"><title>Node1&#45;&gt;Node2</title>
<path fill="none" stroke="midnightblue" d="M533.304,-236.467C495.271,-227.376 434.129,-212.76 386.702,-201.423"/>
<polygon fill="midnightblue" stroke="midnightblue" points="387.343,-197.977 376.803,-199.057 385.715,-204.786 387.343,-197.977"/>
</g>
<!-- Node14 -->
<g id="node31" class="node"><title>Node14</title>
<a xlink:href="NasaPoly1_8h.html" target="_top" xlink:title="Header for a single&#45;species standard state object derived from SpeciesThermoInterpType based on the N...">
<polygon fill="white" stroke="black" points="547.5,-174.5 547.5,-193.5 690.5,-193.5 690.5,-174.5 547.5,-174.5"/>
<text text-anchor="middle" x="619" y="-181.5" font-family="FreeSans" font-size="10.00">cantera/thermo/NasaPoly1.h</text>
</a>
</g>
<!-- Node1&#45;&gt;Node14 -->
<g id="edge34" class="edge"><title>Node1&#45;&gt;Node14</title>
<path fill="none" stroke="midnightblue" d="M576.164,-236.403C583.738,-227.314 595.87,-212.756 605.293,-201.449"/>
<polygon fill="midnightblue" stroke="midnightblue" points="608.136,-203.503 611.85,-193.581 602.759,-199.022 608.136,-203.503"/>
</g>
<!-- Node15 -->
<g id="node33" class="node"><title>Node15</title>
<a xlink:href="global_8h.html" target="_top" xlink:title="This file contains definitions for utility functions and text for modules, inputfiles, logs, textlogs, HTML_logs (see Input File Handling, Diagnostic Output, Writing messages to the screen and Writing HTML Logfiles). ">
<polygon fill="white" stroke="black" points="462,-112.5 462,-131.5 576,-131.5 576,-112.5 462,-112.5"/>
<text text-anchor="middle" x="519" y="-119.5" font-family="FreeSans" font-size="10.00">cantera/base/global.h</text>
</a>
</g>
<!-- Node1&#45;&gt;Node15 -->
<g id="edge48" class="edge"><title>Node1&#45;&gt;Node15</title>
<path fill="none" stroke="midnightblue" d="M561.552,-236.275C554.515,-227.608 544.147,-213.671 538,-200 529.548,-181.204 524.485,-158.066 521.736,-142.088"/>
<polygon fill="midnightblue" stroke="midnightblue" points="525.142,-141.217 520.129,-131.884 518.228,-142.307 525.142,-141.217"/>
</g>
<!-- Node17 -->
<g id="node39" class="node"><title>Node17</title>
<a xlink:href="speciesThermoTypes_8h.html" target="_top" xlink:title="Contains const definitions for types of species reference&#45;state thermodynamics managers (see Species ...">
<polygon fill="white" stroke="black" points="654.5,-56.5 654.5,-75.5 779.5,-75.5 779.5,-56.5 654.5,-56.5"/>
<text text-anchor="middle" x="717" y="-63.5" font-family="FreeSans" font-size="10.00">speciesThermoTypes.h</text>
</a>
</g>
<!-- Node1&#45;&gt;Node17 -->
<g id="edge46" class="edge"><title>Node1&#45;&gt;Node17</title>
<path fill="none" stroke="midnightblue" d="M611.038,-237.318C638.14,-230.796 673.039,-219.322 699,-200 728.883,-177.759 736.558,-167.45 748,-132 753.554,-114.792 742.939,-96.2821 732.651,-83.4329"/>
<polygon fill="midnightblue" stroke="midnightblue" points="734.984,-80.7815 725.784,-75.5273 729.699,-85.3721 734.984,-80.7815"/>
</g>
<!-- Node3 -->
<g id="node5" class="node"><title>Node3</title>
<a xlink:href="ct__defs_8h.html" target="_top" xlink:title="This file contains definitions of terms that are used in internal routines and are unlikely to need m...">
<polygon fill="white" stroke="black" points="335.5,-56.5 335.5,-75.5 454.5,-75.5 454.5,-56.5 335.5,-56.5"/>
<text text-anchor="middle" x="395" y="-63.5" font-family="FreeSans" font-size="10.00">cantera/base/ct_defs.h</text>
</a>
</g>
<!-- Node2&#45;&gt;Node3 -->
<g id="edge4" class="edge"><title>Node2&#45;&gt;Node3</title>
<path fill="none" stroke="midnightblue" d="M319.112,-168.836C320.882,-153.668 325.423,-129.433 337,-112 345.428,-99.3095 358.63,-88.6592 370.311,-80.9107"/>
<polygon fill="midnightblue" stroke="midnightblue" points="372.227,-83.8406 378.843,-75.5652 368.51,-77.9088 372.227,-83.8406"/>
</g>
<!-- Node10 -->
<g id="node19" class="node"><title>Node10</title>
<a xlink:href="ctexceptions_8h.html" target="_top" xlink:title="Definitions for the classes that are thrown when Cantera experiences an error condition (also contain...">
<polygon fill="white" stroke="black" points="-0.5,-112.5 -0.5,-131.5 142.5,-131.5 142.5,-112.5 -0.5,-112.5"/>
<text text-anchor="middle" x="71" y="-119.5" font-family="FreeSans" font-size="10.00">cantera/base/ctexceptions.h</text>
</a>
</g>
<!-- Node2&#45;&gt;Node10 -->
<g id="edge18" class="edge"><title>Node2&#45;&gt;Node10</title>
<path fill="none" stroke="midnightblue" d="M260.089,-168.933C216.054,-158.236 156.345,-143.732 115.892,-133.905"/>
<polygon fill="midnightblue" stroke="midnightblue" points="116.588,-130.472 106.044,-131.513 114.935,-137.274 116.588,-130.472"/>
</g>
<!-- Node12 -->
<g id="node24" class="node"><title>Node12</title>
<a xlink:href="stringUtils_8h.html" target="_top" xlink:title="Contains declarations for string manipulation functions within Cantera. ">
<polygon fill="white" stroke="black" points="160.5,-112.5 160.5,-131.5 289.5,-131.5 289.5,-112.5 160.5,-112.5"/>
<text text-anchor="middle" x="225" y="-119.5" font-family="FreeSans" font-size="10.00">cantera/base/stringUtils.h</text>
</a>
</g>
<!-- Node2&#45;&gt;Node12 -->
<g id="edge24" class="edge"><title>Node2&#45;&gt;Node12</title>
<path fill="none" stroke="midnightblue" d="M295.96,-168.781C281.103,-159.196 261.59,-146.606 246.786,-137.056"/>
<polygon fill="midnightblue" stroke="midnightblue" points="248.562,-134.036 238.261,-131.556 244.767,-139.918 248.562,-134.036"/>
</g>
<!-- Node13 -->
<g id="node28" class="node"><title>Node13</title>
<a xlink:href="SpeciesThermo_8h.html" target="_top" xlink:title="Virtual base class for the calculation of multiple&#45;species thermodynamic reference&#45;state property man...">
<polygon fill="white" stroke="black" points="346.5,-112.5 346.5,-131.5 443.5,-131.5 443.5,-112.5 346.5,-112.5"/>
<text text-anchor="middle" x="395" y="-119.5" font-family="FreeSans" font-size="10.00">SpeciesThermo.h</text>
</a>
</g>
<!-- Node2&#45;&gt;Node13 -->
<g id="edge30" class="edge"><title>Node2&#45;&gt;Node13</title>
<path fill="none" stroke="midnightblue" d="M336.248,-168.781C348.129,-159.523 363.607,-147.462 375.694,-138.044"/>
<polygon fill="midnightblue" stroke="midnightblue" points="378.059,-140.638 383.796,-131.731 373.757,-135.116 378.059,-140.638"/>
</g>
<!-- Node4 -->
<g id="node7" class="node"><title>Node4</title>
<a xlink:href="config_8h_source.html" target="_top" xlink:title="config.h">
<polygon fill="white" stroke="black" points="493.5,-0.5 493.5,-19.5 544.5,-19.5 544.5,-0.5 493.5,-0.5"/>
<text text-anchor="middle" x="519" y="-7.5" font-family="FreeSans" font-size="10.00">config.h</text>
</a>
</g>
<!-- Node3&#45;&gt;Node4 -->
<g id="edge6" class="edge"><title>Node3&#45;&gt;Node4</title>
<path fill="none" stroke="midnightblue" d="M414.648,-56.4435C434.965,-47.5961 466.903,-33.6875 490.098,-23.5865"/>
<polygon fill="midnightblue" stroke="midnightblue" points="491.673,-26.7181 499.444,-19.5164 488.878,-20.3002 491.673,-26.7181"/>
</g>
<!-- Node5 -->
<g id="node9" class="node"><title>Node5</title>
<polygon fill="white" stroke="#bfbfbf" points="251,-0.5 251,-19.5 295,-19.5 295,-0.5 251,-0.5"/>
<text text-anchor="middle" x="273" y="-7.5" font-family="FreeSans" font-size="10.00">cmath</text>
</g>
<!-- Node3&#45;&gt;Node5 -->
<g id="edge8" class="edge"><title>Node3&#45;&gt;Node5</title>
<path fill="none" stroke="midnightblue" d="M375.669,-56.4435C355.68,-47.5961 324.257,-33.6875 301.436,-23.5865"/>
<polygon fill="midnightblue" stroke="midnightblue" points="302.802,-20.3635 292.241,-19.5164 299.968,-26.7645 302.802,-20.3635"/>
</g>
<!-- Node6 -->
<g id="node11" class="node"><title>Node6</title>
<polygon fill="white" stroke="#bfbfbf" points="313.5,-0.5 313.5,-19.5 358.5,-19.5 358.5,-0.5 313.5,-0.5"/>
<text text-anchor="middle" x="336" y="-7.5" font-family="FreeSans" font-size="10.00">cstdlib</text>
</g>
<!-- Node3&#45;&gt;Node6 -->
<g id="edge10" class="edge"><title>Node3&#45;&gt;Node6</title>
<path fill="none" stroke="midnightblue" d="M385.521,-56.324C376.799,-48.3414 363.657,-36.3128 353.102,-26.6529"/>
<polygon fill="midnightblue" stroke="midnightblue" points="355.392,-24.0036 345.652,-19.8339 350.666,-29.1674 355.392,-24.0036"/>
</g>
<!-- Node7 -->
<g id="node13" class="node"><title>Node7</title>
<polygon fill="white" stroke="#bfbfbf" points="377,-0.5 377,-19.5 421,-19.5 421,-0.5 377,-0.5"/>
<text text-anchor="middle" x="399" y="-7.5" font-family="FreeSans" font-size="10.00">vector</text>
</g>
<!-- Node3&#45;&gt;Node7 -->
<g id="edge12" class="edge"><title>Node3&#45;&gt;Node7</title>
<path fill="none" stroke="midnightblue" d="M395.661,-56.083C396.185,-49.0059 396.936,-38.8611 397.594,-29.9865"/>
<polygon fill="midnightblue" stroke="midnightblue" points="401.103,-29.9823 398.352,-19.7511 394.123,-29.4652 401.103,-29.9823"/>
</g>
<!-- Node8 -->
<g id="node15" class="node"><title>Node8</title>
<polygon fill="white" stroke="#bfbfbf" points="439,-0.5 439,-19.5 475,-19.5 475,-0.5 439,-0.5"/>
<text text-anchor="middle" x="457" y="-7.5" font-family="FreeSans" font-size="10.00">map</text>
</g>
<!-- Node3&#45;&gt;Node8 -->
<g id="edge14" class="edge"><title>Node3&#45;&gt;Node8</title>
<path fill="none" stroke="midnightblue" d="M404.961,-56.324C414.127,-48.3414 427.937,-36.3128 439.028,-26.6529"/>
<polygon fill="midnightblue" stroke="midnightblue" points="441.615,-29.041 446.857,-19.8339 437.018,-23.7624 441.615,-29.041"/>
</g>
<!-- Node9 -->
<g id="node17" class="node"><title>Node9</title>
<polygon fill="white" stroke="#bfbfbf" points="191.5,-0.5 191.5,-19.5 232.5,-19.5 232.5,-0.5 191.5,-0.5"/>
<text text-anchor="middle" x="212" y="-7.5" font-family="FreeSans" font-size="10.00">string</text>
</g>
<!-- Node3&#45;&gt;Node9 -->
<g id="edge16" class="edge"><title>Node3&#45;&gt;Node9</title>
<path fill="none" stroke="midnightblue" d="M365.655,-56.4202C336.771,-47.9639 291.154,-34.5791 242.434,-20.1173"/>
<polygon fill="midnightblue" stroke="midnightblue" points="243.235,-16.7042 232.652,-17.2117 241.242,-23.4144 243.235,-16.7042"/>
</g>
<!-- Node10&#45;&gt;Node9 -->
<g id="edge22" class="edge"><title>Node10&#45;&gt;Node9</title>
<path fill="none" stroke="midnightblue" d="M82.064,-112.368C106.054,-93.6531 163.098,-49.1509 192.988,-25.8324"/>
<polygon fill="midnightblue" stroke="midnightblue" points="195.256,-28.502 200.987,-19.5914 190.95,-22.9829 195.256,-28.502"/>
</g>
<!-- Node11 -->
<g id="node21" class="node"><title>Node11</title>
<polygon fill="white" stroke="#bfbfbf" points="41,-56.5 41,-75.5 101,-75.5 101,-56.5 41,-56.5"/>
<text text-anchor="middle" x="71" y="-63.5" font-family="FreeSans" font-size="10.00">exception</text>
</g>
<!-- Node10&#45;&gt;Node11 -->
<g id="edge20" class="edge"><title>Node10&#45;&gt;Node11</title>
<path fill="none" stroke="midnightblue" d="M71,-112.083C71,-105.006 71,-94.8611 71,-85.9865"/>
<polygon fill="midnightblue" stroke="midnightblue" points="74.5001,-85.751 71,-75.7511 67.5001,-85.7511 74.5001,-85.751"/>
</g>
<!-- Node12&#45;&gt;Node3 -->
<g id="edge26" class="edge"><title>Node12&#45;&gt;Node3</title>
<path fill="none" stroke="midnightblue" d="M251.937,-112.444C280.66,-103.32 326.329,-88.8133 358.321,-78.6509"/>
<polygon fill="midnightblue" stroke="midnightblue" points="359.718,-81.8797 368.189,-75.5164 357.599,-75.2081 359.718,-81.8797"/>
</g>
<!-- Node12&#45;&gt;Node9 -->
<g id="edge28" class="edge"><title>Node12&#45;&gt;Node9</title>
<path fill="none" stroke="midnightblue" d="M223.98,-112.368C221.882,-94.617 217.042,-53.6664 214.198,-29.5974"/>
<polygon fill="midnightblue" stroke="midnightblue" points="217.665,-29.1115 213.015,-19.5914 210.713,-29.9331 217.665,-29.1115"/>
</g>
<!-- Node13&#45;&gt;Node3 -->
<g id="edge32" class="edge"><title>Node13&#45;&gt;Node3</title>
<path fill="none" stroke="midnightblue" d="M395,-112.083C395,-105.006 395,-94.8611 395,-85.9865"/>
<polygon fill="midnightblue" stroke="midnightblue" points="398.5,-85.751 395,-75.7511 391.5,-85.7511 398.5,-85.751"/>
</g>
<!-- Node14&#45;&gt;Node15 -->
<g id="edge36" class="edge"><title>Node14&#45;&gt;Node15</title>
<path fill="none" stroke="midnightblue" d="M604.672,-174.403C588.336,-164.601 561.398,-148.439 542.088,-136.853"/>
<polygon fill="midnightblue" stroke="midnightblue" points="543.677,-133.724 533.301,-131.581 540.075,-139.727 543.677,-133.724"/>
</g>
<!-- Node16 -->
<g id="node36" class="node"><title>Node16</title>
<a xlink:href="SpeciesThermoInterpType_8h.html" target="_top" xlink:title="Pure Virtual Base class for individual species reference state thermodynamic managers and text for th...">
<polygon fill="white" stroke="black" points="594.5,-112.5 594.5,-131.5 739.5,-131.5 739.5,-112.5 594.5,-112.5"/>
<text text-anchor="middle" x="667" y="-119.5" font-family="FreeSans" font-size="10.00">SpeciesThermoInterpType.h</text>
</a>
</g>
<!-- Node14&#45;&gt;Node16 -->
<g id="edge40" class="edge"><title>Node14&#45;&gt;Node16</title>
<path fill="none" stroke="midnightblue" d="M625.877,-174.403C633.149,-165.314 644.795,-150.756 653.841,-139.449"/>
<polygon fill="midnightblue" stroke="midnightblue" points="656.622,-141.576 660.136,-131.581 651.155,-137.203 656.622,-141.576"/>
</g>
<!-- Node15&#45;&gt;Node3 -->
<g id="edge38" class="edge"><title>Node15&#45;&gt;Node3</title>
<path fill="none" stroke="midnightblue" d="M499.352,-112.444C479.035,-103.596 447.097,-89.6875 423.902,-79.5865"/>
<polygon fill="midnightblue" stroke="midnightblue" points="425.122,-76.3002 414.556,-75.5164 422.327,-82.7181 425.122,-76.3002"/>
</g>
<!-- Node16&#45;&gt;Node3 -->
<g id="edge42" class="edge"><title>Node16&#45;&gt;Node3</title>
<path fill="none" stroke="midnightblue" d="M623.901,-112.444C576.153,-102.964 499.139,-87.6747 447.806,-77.4835"/>
<polygon fill="midnightblue" stroke="midnightblue" points="448.388,-74.0308 437.898,-75.5164 447.025,-80.8968 448.388,-74.0308"/>
</g>
<!-- Node16&#45;&gt;Node17 -->
<g id="edge44" class="edge"><title>Node16&#45;&gt;Node17</title>
<path fill="none" stroke="midnightblue" d="M675.256,-112.083C682.465,-104.298 693.11,-92.8015 701.846,-83.3665"/>
<polygon fill="midnightblue" stroke="midnightblue" points="704.671,-85.4666 708.897,-75.7511 699.535,-80.7108 704.671,-85.4666"/>
</g>
</g>
</svg>
