<?xml version="1.0" encoding="UTF-8" standalone="no"?>
<!DOCTYPE svg PUBLIC "-//W3C//DTD SVG 1.1//EN"
 "http://www.w3.org/Graphics/SVG/1.1/DTD/svg11.dtd">
<!-- Generated by graphviz version 2.40.1 (20161225.0304)
 -->
<!-- Title: OneDim.h Pages: 1 -->
<svg width="587pt" height="196pt"
 viewBox="0.00 0.00 586.72 196.00" xmlns="http://www.w3.org/2000/svg" xmlns:xlink="http://www.w3.org/1999/xlink">
<g id="graph0" class="graph" transform="scale(1 1) rotate(0) translate(4 192)">
<title>OneDim.h</title>
<polygon fill="#ffffff" stroke="transparent" points="-4,4 -4,-192 582.7217,-192 582.7217,4 -4,4"/>
<!-- Node22 -->
<g id="node1" class="node">
<title>Node22</title>
<polygon fill="#bfbfbf" stroke="#000000" points="277.5,-168.5 277.5,-187.5 342.5,-187.5 342.5,-168.5 277.5,-168.5"/>
<text text-anchor="middle" x="310" y="-175.5" font-family="Helvetica,sans-Serif" font-size="10.00" fill="#000000">OneDim.h</text>
</g>
<!-- Node23 -->
<g id="node2" class="node">
<title>Node23</title>
<g id="a_node2"><a xlink:href="boundaries1D_8cpp.html" target="_top" xlink:title="boundaries1D.cpp">
<polygon fill="#ffffff" stroke="#000000" points="0,-112.5 0,-131.5 104,-131.5 104,-112.5 0,-112.5"/>
<text text-anchor="middle" x="52" y="-119.5" font-family="Helvetica,sans-Serif" font-size="10.00" fill="#000000">boundaries1D.cpp</text>
</a>
</g>
</g>
<!-- Node22&#45;&gt;Node23 -->
<g id="edge1" class="edge">
<title>Node22&#45;&gt;Node23</title>
<path fill="none" stroke="#191970" d="M267.3884,-168.751C220.0418,-158.4742 143.9653,-141.9615 96.0472,-131.5606"/>
<polygon fill="#191970" stroke="#191970" points="266.8092,-172.2067 277.3241,-170.9076 268.2941,-165.366 266.8092,-172.2067"/>
</g>
<!-- Node24 -->
<g id="node3" class="node">
<title>Node24</title>
<g id="a_node3"><a xlink:href="OneDim_8cpp.html" target="_top" xlink:title="OneDim.cpp">
<polygon fill="#ffffff" stroke="#000000" points="93.5,-.5 93.5,-19.5 170.5,-19.5 170.5,-.5 93.5,-.5"/>
<text text-anchor="middle" x="132" y="-7.5" font-family="Helvetica,sans-Serif" font-size="10.00" fill="#000000">OneDim.cpp</text>
</a>
</g>
</g>
<!-- Node22&#45;&gt;Node24 -->
<g id="edge2" class="edge">
<title>Node22&#45;&gt;Node24</title>
<path fill="none" stroke="#191970" d="M275.206,-164.4845C238.9392,-148.6419 183.0179,-118.9714 151,-76 138.319,-58.9807 134.0868,-33.7205 132.685,-19.9076"/>
<polygon fill="#191970" stroke="#191970" points="273.8541,-167.7129 284.4267,-168.4 276.5902,-161.2697 273.8541,-167.7129"/>
</g>
<!-- Node25 -->
<g id="node4" class="node">
<title>Node25</title>
<g id="a_node4"><a xlink:href="MultiJac_8h.html" target="_top" xlink:title="MultiJac.h">
<polygon fill="#ffffff" stroke="#000000" points="278,-112.5 278,-131.5 342,-131.5 342,-112.5 278,-112.5"/>
<text text-anchor="middle" x="310" y="-119.5" font-family="Helvetica,sans-Serif" font-size="10.00" fill="#000000">MultiJac.h</text>
</a>
</g>
</g>
<!-- Node22&#45;&gt;Node25 -->
<g id="edge3" class="edge">
<title>Node22&#45;&gt;Node25</title>
<path fill="none" stroke="#191970" d="M303.5113,-158.1575C302.919,-149.155 303.3335,-138.9199 304.7549,-131.6427"/>
<polygon fill="#191970" stroke="#191970" points="300.0561,-158.739 304.7332,-168.2455 307.0053,-157.8972 300.0561,-158.739"/>
</g>
<!-- Node31 -->
<g id="node10" class="node">
<title>Node31</title>
<g id="a_node10"><a xlink:href="Sim1D_8h.html" target="_top" xlink:title="Sim1D.h">
<polygon fill="#ffffff" stroke="#000000" points="506,-112.5 506,-131.5 564,-131.5 564,-112.5 506,-112.5"/>
<text text-anchor="middle" x="535" y="-119.5" font-family="Helvetica,sans-Serif" font-size="10.00" fill="#000000">Sim1D.h</text>
</a>
</g>
</g>
<!-- Node22&#45;&gt;Node31 -->
<g id="edge12" class="edge">
<title>Node22&#45;&gt;Node31</title>
<path fill="none" stroke="#191970" d="M352.4432,-167.4364C397.2814,-156.2766 466.7834,-138.9783 505.823,-129.2618"/>
<polygon fill="#191970" stroke="#191970" points="351.5755,-164.0455 342.7169,-169.8571 353.2662,-170.8382 351.5755,-164.0455"/>
</g>
<!-- Node25&#45;&gt;Node22 -->
<g id="edge7" class="edge">
<title>Node25&#45;&gt;Node22</title>
<path fill="none" stroke="#191970" d="M316.4795,-141.7046C317.0821,-150.6944 316.6779,-160.9382 315.2668,-168.2455"/>
<polygon fill="#191970" stroke="#191970" points="319.9368,-141.1421 315.2451,-131.6427 312.9889,-141.9945 319.9368,-141.1421"/>
</g>
<!-- Node26 -->
<g id="node5" class="node">
<title>Node26</title>
<g id="a_node5"><a xlink:href="Domain1D_8cpp.html" target="_top" xlink:title="Domain1D.cpp">
<polygon fill="#ffffff" stroke="#000000" points="265.5,-56.5 265.5,-75.5 354.5,-75.5 354.5,-56.5 265.5,-56.5"/>
<text text-anchor="middle" x="310" y="-63.5" font-family="Helvetica,sans-Serif" font-size="10.00" fill="#000000">Domain1D.cpp</text>
</a>
</g>
</g>
<!-- Node25&#45;&gt;Node26 -->
<g id="edge4" class="edge">
<title>Node25&#45;&gt;Node26</title>
<path fill="none" stroke="#191970" d="M310,-102.1575C310,-93.155 310,-82.9199 310,-75.6427"/>
<polygon fill="#191970" stroke="#191970" points="306.5001,-102.2455 310,-112.2455 313.5001,-102.2456 306.5001,-102.2455"/>
</g>
<!-- Node27 -->
<g id="node6" class="node">
<title>Node27</title>
<g id="a_node6"><a xlink:href="MultiJac_8cpp.html" target="_top" xlink:title="Implementation file for class MultiJac. ">
<polygon fill="#ffffff" stroke="#000000" points="372.5,-56.5 372.5,-75.5 447.5,-75.5 447.5,-56.5 372.5,-56.5"/>
<text text-anchor="middle" x="410" y="-63.5" font-family="Helvetica,sans-Serif" font-size="10.00" fill="#000000">MultiJac.cpp</text>
</a>
</g>
</g>
<!-- Node25&#45;&gt;Node27 -->
<g id="edge5" class="edge">
<title>Node25&#45;&gt;Node27</title>
<path fill="none" stroke="#191970" d="M336.2098,-107.3225C354.0717,-97.3198 377.2155,-84.3593 392.7809,-75.6427"/>
<polygon fill="#191970" stroke="#191970" points="334.4336,-104.3057 327.4187,-112.2455 337.8539,-110.4132 334.4336,-104.3057"/>
</g>
<!-- Node28 -->
<g id="node7" class="node">
<title>Node28</title>
<g id="a_node7"><a xlink:href="Sim1D_8cpp.html" target="_top" xlink:title="Sim1D.cpp">
<polygon fill="#ffffff" stroke="#000000" points="441.5,-.5 441.5,-19.5 510.5,-19.5 510.5,-.5 441.5,-.5"/>
<text text-anchor="middle" x="476" y="-7.5" font-family="Helvetica,sans-Serif" font-size="10.00" fill="#000000">Sim1D.cpp</text>
</a>
</g>
</g>
<!-- Node25&#45;&gt;Node28 -->
<g id="edge6" class="edge">
<title>Node25&#45;&gt;Node28</title>
<path fill="none" stroke="#191970" d="M352.5358,-113.2232C390.1971,-104.6496 441.3947,-90.7667 456,-76 471.155,-60.6775 474.886,-34.2729 475.7656,-19.9456"/>
<polygon fill="#191970" stroke="#191970" points="351.3155,-109.909 342.314,-115.4969 352.8354,-116.742 351.3155,-109.909"/>
</g>
<!-- Node29 -->
<g id="node8" class="node">
<title>Node29</title>
<g id="a_node8"><a xlink:href="MultiNewton_8h.html" target="_top" xlink:title="MultiNewton.h">
<polygon fill="#ffffff" stroke="#000000" points="160.5,-56.5 160.5,-75.5 247.5,-75.5 247.5,-56.5 160.5,-56.5"/>
<text text-anchor="middle" x="204" y="-63.5" font-family="Helvetica,sans-Serif" font-size="10.00" fill="#000000">MultiNewton.h</text>
</a>
</g>
</g>
<!-- Node25&#45;&gt;Node29 -->
<g id="edge8" class="edge">
<title>Node25&#45;&gt;Node29</title>
<path fill="none" stroke="#191970" d="M282.4778,-107.46C263.5092,-97.4388 238.8273,-84.3993 222.2522,-75.6427"/>
<polygon fill="#191970" stroke="#191970" points="281.0593,-110.669 291.5362,-112.2455 284.3292,-104.4796 281.0593,-110.669"/>
</g>
<!-- Node29&#45;&gt;Node24 -->
<g id="edge10" class="edge">
<title>Node29&#45;&gt;Node24</title>
<path fill="none" stroke="#191970" d="M183.336,-49.928C170.7511,-40.1397 155.0908,-27.9595 144.3977,-19.6427"/>
<polygon fill="#191970" stroke="#191970" points="181.4162,-52.8688 191.4586,-56.2455 185.7138,-47.3434 181.4162,-52.8688"/>
</g>
<!-- Node29&#45;&gt;Node28 -->
<g id="edge11" class="edge">
<title>Node29&#45;&gt;Node28</title>
<path fill="none" stroke="#191970" d="M257.5399,-54.9771C312.083,-43.7476 395.0522,-26.6657 441.4669,-17.1098"/>
<polygon fill="#191970" stroke="#191970" points="256.7903,-51.5579 247.7015,-57.0026 258.2019,-58.4141 256.7903,-51.5579"/>
</g>
<!-- Node30 -->
<g id="node9" class="node">
<title>Node30</title>
<g id="a_node9"><a xlink:href="MultiNewton_8cpp.html" target="_top" xlink:title="Damped Newton solver for 1D multi&#45;domain problems. ">
<polygon fill="#ffffff" stroke="#000000" points="189,-.5 189,-19.5 287,-19.5 287,-.5 189,-.5"/>
<text text-anchor="middle" x="238" y="-7.5" font-family="Helvetica,sans-Serif" font-size="10.00" fill="#000000">MultiNewton.cpp</text>
</a>
</g>
</g>
<!-- Node29&#45;&gt;Node30 -->
<g id="edge9" class="edge">
<title>Node29&#45;&gt;Node30</title>
<path fill="none" stroke="#191970" d="M215.1535,-47.6296C220.8247,-38.2887 227.4845,-27.3197 232.1455,-19.6427"/>
<polygon fill="#191970" stroke="#191970" points="212.1204,-45.8812 209.9223,-56.2455 218.1039,-49.5141 212.1204,-45.8812"/>
</g>
<!-- Node31&#45;&gt;Node28 -->
<g id="edge13" class="edge">
<title>Node31&#45;&gt;Node28</title>
<path fill="none" stroke="#191970" d="M556.1472,-105.5035C570.6999,-92.0737 585.6411,-72.6781 575,-56 560.9323,-33.9514 533.2631,-22.3069 510.7444,-16.2566"/>
<polygon fill="#191970" stroke="#191970" points="553.5567,-103.1156 548.2672,-112.2956 558.1269,-108.4178 553.5567,-103.1156"/>
</g>
<!-- Node32 -->
<g id="node11" class="node">
<title>Node32</title>
<g id="a_node11"><a xlink:href="onedim_8h.html" target="_top" xlink:title="onedim.h">
<polygon fill="#ffffff" stroke="#000000" points="504,-56.5 504,-75.5 566,-75.5 566,-56.5 504,-56.5"/>
<text text-anchor="middle" x="535" y="-63.5" font-family="Helvetica,sans-Serif" font-size="10.00" fill="#000000">onedim.h</text>
</a>
</g>
</g>
<!-- Node31&#45;&gt;Node32 -->
<g id="edge14" class="edge">
<title>Node31&#45;&gt;Node32</title>
<path fill="none" stroke="#191970" d="M535,-102.1575C535,-93.155 535,-82.9199 535,-75.6427"/>
<polygon fill="#191970" stroke="#191970" points="531.5001,-102.2455 535,-112.2455 538.5001,-102.2456 531.5001,-102.2455"/>
</g>
</g>
</svg>
