<?xml version="1.0" encoding="UTF-8" standalone="no"?>
<!DOCTYPE svg PUBLIC "-//W3C//DTD SVG 1.1//EN"
 "http://www.w3.org/Graphics/SVG/1.1/DTD/svg11.dtd">
<!-- Generated by graphviz version 2.28.0 (20120425.2022)
 -->
<!-- Title: OneDim.h Pages: 1 -->
<svg width="476pt" height="308pt"
 viewBox="0.00 0.00 476.00 308.00" xmlns="http://www.w3.org/2000/svg" xmlns:xlink="http://www.w3.org/1999/xlink">
<g id="graph1" class="graph" transform="scale(1 1) rotate(0) translate(4 304)">
<title>OneDim.h</title>
<polygon fill="white" stroke="white" points="-4,5 -4,-304 473,-304 473,5 -4,5"/>
<!-- Node1 -->
<g id="node1" class="node"><title>Node1</title>
<polygon fill="#bfbfbf" stroke="black" points="247.5,-280.5 247.5,-299.5 308.5,-299.5 308.5,-280.5 247.5,-280.5"/>
<text text-anchor="middle" x="278" y="-287.5" font-family="FreeSans" font-size="10.00">OneDim.h</text>
</g>
<!-- Node2 -->
<g id="node3" class="node"><title>Node2</title>
<a xlink:href="Domain1D_8h.html" target="_top" xlink:title="Domain1D.h">
<polygon fill="white" stroke="black" points="242,-224.5 242,-243.5 314,-243.5 314,-224.5 242,-224.5"/>
<text text-anchor="middle" x="278" y="-231.5" font-family="FreeSans" font-size="10.00">Domain1D.h</text>
</a>
</g>
<!-- Node1&#45;&gt;Node2 -->
<g id="edge2" class="edge"><title>Node1&#45;&gt;Node2</title>
<path fill="none" stroke="midnightblue" d="M278,-280.083C278,-273.006 278,-262.861 278,-253.986"/>
<polygon fill="midnightblue" stroke="midnightblue" points="281.5,-253.751 278,-243.751 274.5,-253.751 281.5,-253.751"/>
</g>
<!-- Node3 -->
<g id="node5" class="node"><title>Node3</title>
<a xlink:href="xml_8h.html" target="_top" xlink:title="Classes providing support for XML data files.">
<polygon fill="white" stroke="black" points="267,-168.5 267,-187.5 369,-187.5 369,-168.5 267,-168.5"/>
<text text-anchor="middle" x="318" y="-175.5" font-family="FreeSans" font-size="10.00">cantera/base/xml.h</text>
</a>
</g>
<!-- Node2&#45;&gt;Node3 -->
<g id="edge4" class="edge"><title>Node2&#45;&gt;Node3</title>
<path fill="none" stroke="midnightblue" d="M284.605,-224.083C290.255,-216.455 298.545,-205.264 305.451,-195.941"/>
<polygon fill="midnightblue" stroke="midnightblue" points="308.378,-197.87 311.518,-187.751 302.753,-193.703 308.378,-197.87"/>
</g>
<!-- Node4 -->
<g id="node7" class="node"><title>Node4</title>
<a xlink:href="ctexceptions_8h.html" target="_top" xlink:title="Definitions for the classes that are thrown when Cantera experiences an error condition (also contain...">
<polygon fill="white" stroke="red" points="0,-112.5 0,-131.5 80,-131.5 80,-112.5 0,-112.5"/>
<text text-anchor="middle" x="40" y="-119.5" font-family="FreeSans" font-size="10.00">ctexceptions.h</text>
</a>
</g>
<!-- Node2&#45;&gt;Node4 -->
<g id="edge34" class="edge"><title>Node2&#45;&gt;Node4</title>
<path fill="none" stroke="midnightblue" d="M259.325,-224.368C217.615,-205.091 116.709,-158.454 67.6716,-135.789"/>
<polygon fill="midnightblue" stroke="midnightblue" points="69.1345,-132.61 58.5887,-131.591 66.1977,-138.964 69.1345,-132.61"/>
</g>
<!-- Node10 -->
<g id="node24" class="node"><title>Node10</title>
<a xlink:href="stringUtils_8h.html" target="_top" xlink:title=" Contains declarations for string manipulation functions &#160;within Cantera.">
<polygon fill="white" stroke="black" points="174.5,-112.5 174.5,-131.5 303.5,-131.5 303.5,-112.5 174.5,-112.5"/>
<text text-anchor="middle" x="239" y="-119.5" font-family="FreeSans" font-size="10.00">cantera/base/stringUtils.h</text>
</a>
</g>
<!-- Node2&#45;&gt;Node10 -->
<g id="edge28" class="edge"><title>Node2&#45;&gt;Node10</title>
<path fill="none" stroke="midnightblue" d="M273.658,-224.18C269.343,-215.211 262.707,-200.844 258,-188 252.311,-172.477 247.138,-154.394 243.632,-141.248"/>
<polygon fill="midnightblue" stroke="midnightblue" points="247.009,-140.328 241.104,-131.531 240.235,-142.09 247.009,-140.328"/>
</g>
<!-- Node11 -->
<g id="node29" class="node"><title>Node11</title>
<a xlink:href="refine_8h_source.html" target="_top" xlink:title="refine.h">
<polygon fill="white" stroke="black" points="419.5,-168.5 419.5,-187.5 468.5,-187.5 468.5,-168.5 419.5,-168.5"/>
<text text-anchor="middle" x="444" y="-175.5" font-family="FreeSans" font-size="10.00">refine.h</text>
</a>
</g>
<!-- Node2&#45;&gt;Node11 -->
<g id="edge36" class="edge"><title>Node2&#45;&gt;Node11</title>
<path fill="none" stroke="midnightblue" d="M304.303,-224.444C332.846,-215.159 378.523,-200.3 409.825,-190.117"/>
<polygon fill="midnightblue" stroke="midnightblue" points="411.017,-193.41 419.443,-186.988 408.851,-186.754 411.017,-193.41"/>
</g>
<!-- Node3&#45;&gt;Node4 -->
<g id="edge6" class="edge"><title>Node3&#45;&gt;Node4</title>
<path fill="none" stroke="midnightblue" d="M273.95,-168.444C224,-158.741 142.716,-142.952 90.3113,-132.773"/>
<polygon fill="midnightblue" stroke="midnightblue" points="90.7172,-129.286 80.2333,-130.815 89.3824,-136.158 90.7172,-129.286"/>
</g>
<!-- Node5 -->
<g id="node9" class="node"><title>Node5</title>
<polygon fill="white" stroke="#bfbfbf" points="62,-56.5 62,-75.5 118,-75.5 118,-56.5 62,-56.5"/>
<text text-anchor="middle" x="90" y="-63.5" font-family="FreeSans" font-size="10.00">iostream</text>
</g>
<!-- Node3&#45;&gt;Node5 -->
<g id="edge26" class="edge"><title>Node3&#45;&gt;Node5</title>
<path fill="none" stroke="midnightblue" d="M266.807,-174.806C226.867,-170.837 171.691,-160.171 132,-132 115.602,-120.361 104.021,-100.113 97.2309,-85.3013"/>
<polygon fill="midnightblue" stroke="midnightblue" points="100.271,-83.5066 93.1324,-75.6776 93.8305,-86.2494 100.271,-83.5066"/>
</g>
<!-- Node6 -->
<g id="node11" class="node"><title>Node6</title>
<polygon fill="white" stroke="#bfbfbf" points="158.5,-0.5 158.5,-19.5 199.5,-19.5 199.5,-0.5 158.5,-0.5"/>
<text text-anchor="middle" x="179" y="-7.5" font-family="FreeSans" font-size="10.00">string</text>
</g>
<!-- Node3&#45;&gt;Node6 -->
<g id="edge22" class="edge"><title>Node3&#45;&gt;Node6</title>
<path fill="none" stroke="midnightblue" d="M266.634,-168.643C227.161,-161.05 177.358,-148.516 165,-132 142.285,-101.641 158.255,-54.4537 169.865,-28.9022"/>
<polygon fill="midnightblue" stroke="midnightblue" points="173.123,-30.2026 174.303,-19.6736 166.815,-27.169 173.123,-30.2026"/>
</g>
<!-- Node7 -->
<g id="node13" class="node"><title>Node7</title>
<a xlink:href="ct__defs_8h.html" target="_top" xlink:title="This file contains definitions of terms that are used in internal routines and are unlikely to need m...">
<polygon fill="white" stroke="red" points="330,-56.5 330,-75.5 386,-75.5 386,-56.5 330,-56.5"/>
<text text-anchor="middle" x="358" y="-63.5" font-family="FreeSans" font-size="10.00">ct_defs.h</text>
</a>
</g>
<!-- Node3&#45;&gt;Node7 -->
<g id="edge12" class="edge"><title>Node3&#45;&gt;Node7</title>
<path fill="none" stroke="midnightblue" d="M321.139,-168.368C327.623,-150.537 342.62,-109.295 351.356,-85.2717"/>
<polygon fill="midnightblue" stroke="midnightblue" points="354.748,-86.1855 354.876,-75.5914 348.169,-83.7932 354.748,-86.1855"/>
</g>
<!-- Node8 -->
<g id="node15" class="node"><title>Node8</title>
<polygon fill="white" stroke="#bfbfbf" points="377,-0.5 377,-19.5 421,-19.5 421,-0.5 377,-0.5"/>
<text text-anchor="middle" x="399" y="-7.5" font-family="FreeSans" font-size="10.00">vector</text>
</g>
<!-- Node3&#45;&gt;Node8 -->
<g id="edge24" class="edge"><title>Node3&#45;&gt;Node8</title>
<path fill="none" stroke="midnightblue" d="M365.333,-168.422C386.102,-162.051 408.552,-151.023 421,-132 441.952,-99.9821 422.788,-53.4947 409.406,-28.4871"/>
<polygon fill="midnightblue" stroke="midnightblue" points="412.443,-26.7476 404.49,-19.7479 406.343,-30.1795 412.443,-26.7476"/>
</g>
<!-- Node9 -->
<g id="node18" class="node"><title>Node9</title>
<a xlink:href="global_8h.html" target="_top" xlink:title="This file contains definitions for utility functions and text for modules, inputfiles, logs, textlogs, HTML_logs (see Input File Handling, Diagnostic Output, Writing messages to the screen and Writing HTML Logfiles).">
<polygon fill="white" stroke="black" points="360,-112.5 360,-131.5 412,-131.5 412,-112.5 360,-112.5"/>
<text text-anchor="middle" x="386" y="-119.5" font-family="FreeSans" font-size="10.00">global.h</text>
</a>
</g>
<!-- Node3&#45;&gt;Node9 -->
<g id="edge18" class="edge"><title>Node3&#45;&gt;Node9</title>
<path fill="none" stroke="midnightblue" d="M328.925,-168.324C339.175,-160.185 354.721,-147.839 367.001,-138.087"/>
<polygon fill="midnightblue" stroke="midnightblue" points="369.221,-140.794 374.876,-131.834 364.868,-135.312 369.221,-140.794"/>
</g>
<!-- Node4&#45;&gt;Node5 -->
<g id="edge8" class="edge"><title>Node4&#45;&gt;Node5</title>
<path fill="none" stroke="midnightblue" d="M48.2565,-112.083C55.4647,-104.298 66.1098,-92.8015 74.8458,-83.3665"/>
<polygon fill="midnightblue" stroke="midnightblue" points="77.6712,-85.4666 81.8972,-75.7511 72.5349,-80.7108 77.6712,-85.4666"/>
</g>
<!-- Node4&#45;&gt;Node6 -->
<g id="edge10" class="edge"><title>Node4&#45;&gt;Node6</title>
<path fill="none" stroke="midnightblue" d="M39.2213,-112.27C38.4969,-98.5919 39.1559,-72.0227 53,-56 76.94,-28.2927 119.174,-17.6453 148.094,-13.5537"/>
<polygon fill="midnightblue" stroke="midnightblue" points="148.591,-17.0191 158.088,-12.3234 147.735,-10.0715 148.591,-17.0191"/>
</g>
<!-- Node7&#45;&gt;Node6 -->
<g id="edge16" class="edge"><title>Node7&#45;&gt;Node6</title>
<path fill="none" stroke="midnightblue" d="M329.637,-56.4435C296.85,-46.5524 243.094,-30.3357 209.448,-20.1854"/>
<polygon fill="midnightblue" stroke="midnightblue" points="210.282,-16.7812 199.697,-17.2437 208.26,-23.4828 210.282,-16.7812"/>
</g>
<!-- Node7&#45;&gt;Node8 -->
<g id="edge14" class="edge"><title>Node7&#45;&gt;Node8</title>
<path fill="none" stroke="midnightblue" d="M364.77,-56.083C370.562,-48.4554 379.058,-37.2645 386.138,-27.9408"/>
<polygon fill="midnightblue" stroke="midnightblue" points="389.096,-29.8321 392.356,-19.7511 383.521,-25.5991 389.096,-29.8321"/>
</g>
<!-- Node9&#45;&gt;Node7 -->
<g id="edge20" class="edge"><title>Node9&#45;&gt;Node7</title>
<path fill="none" stroke="midnightblue" d="M381.376,-112.083C377.544,-104.691 371.976,-93.9533 367.235,-84.8111"/>
<polygon fill="midnightblue" stroke="midnightblue" points="370.248,-83.0175 362.538,-75.7511 364.034,-86.2398 370.248,-83.0175"/>
</g>
<!-- Node10&#45;&gt;Node6 -->
<g id="edge32" class="edge"><title>Node10&#45;&gt;Node6</title>
<path fill="none" stroke="midnightblue" d="M234.292,-112.368C224.478,-94.376 201.664,-52.5503 188.615,-28.6267"/>
<polygon fill="midnightblue" stroke="midnightblue" points="191.547,-26.6944 183.686,-19.5914 185.402,-30.0464 191.547,-26.6944"/>
</g>
<!-- Node10&#45;&gt;Node7 -->
<g id="edge30" class="edge"><title>Node10&#45;&gt;Node7</title>
<path fill="none" stroke="midnightblue" d="M257.856,-112.444C277.266,-103.636 307.73,-89.8116 329.965,-79.722"/>
<polygon fill="midnightblue" stroke="midnightblue" points="331.572,-82.836 339.232,-75.5164 328.68,-76.4615 331.572,-82.836"/>
</g>
<!-- Node11&#45;&gt;Node7 -->
<g id="edge38" class="edge"><title>Node11&#45;&gt;Node7</title>
<path fill="none" stroke="midnightblue" d="M442.63,-168.209C440.2,-154.915 434.103,-129.405 421,-112 411.307,-99.1251 396.874,-88.4392 384.268,-80.7161"/>
<polygon fill="midnightblue" stroke="midnightblue" points="385.91,-77.6224 375.505,-75.6271 382.394,-83.6757 385.91,-77.6224"/>
</g>
</g>
</svg>
