<?xml version="1.0" encoding="UTF-8" standalone="no"?>
<!DOCTYPE svg PUBLIC "-//W3C//DTD SVG 1.1//EN"
 "http://www.w3.org/Graphics/SVG/1.1/DTD/svg11.dtd">
<!-- Generated by graphviz version 2.36.0 (20140111.2315)
 -->
<!-- Title: PDSS_Water.h Pages: 1 -->
<svg width="1018pt" height="364pt"
 viewBox="0.00 0.00 1018.25 364.00" xmlns="http://www.w3.org/2000/svg" xmlns:xlink="http://www.w3.org/1999/xlink">
<g id="graph0" class="graph" transform="scale(1 1) rotate(0) translate(4 360)">
<title>PDSS_Water.h</title>
<polygon fill="white" stroke="none" points="-4,4 -4,-360 1014.25,-360 1014.25,4 -4,4"/>
<!-- Node1 -->
<g id="node1" class="node"><title>Node1</title>
<polygon fill="#bfbfbf" stroke="black" points="762.247,-336.5 762.247,-355.5 844.247,-355.5 844.247,-336.5 762.247,-336.5"/>
<text text-anchor="middle" x="803.247" y="-343.5" font-family="FreeSans" font-size="10.00">PDSS_Water.h</text>
</g>
<!-- Node2 -->
<g id="node2" class="node"><title>Node2</title>
<g id="a_node2"><a xlink:href="ct__defs_8h.html" target="_top" xlink:title="This file contains definitions of terms that are used in internal routines and are unlikely to need m...">
<polygon fill="white" stroke="black" points="549.247,-56.5 549.247,-75.5 663.247,-75.5 663.247,-56.5 549.247,-56.5"/>
<text text-anchor="middle" x="606.247" y="-63.5" font-family="FreeSans" font-size="10.00">cantera/base/ct_defs.h</text>
</a>
</g>
</g>
<!-- Node1&#45;&gt;Node2 -->
<g id="edge1" class="edge"><title>Node1&#45;&gt;Node2</title>
<path fill="none" stroke="midnightblue" d="M812.838,-336.341C830.919,-319.015 868.247,-278.033 868.247,-235 868.247,-235 868.247,-235 868.247,-177 868.247,-92.6073 751.253,-71.8838 673.624,-67.4221"/>
<polygon fill="midnightblue" stroke="midnightblue" points="673.582,-63.9157 663.42,-66.9151 673.234,-70.9071 673.582,-63.9157"/>
</g>
<!-- Node9 -->
<g id="node9" class="node"><title>Node9</title>
<g id="a_node9"><a xlink:href="PDSS_8h.html" target="_top" xlink:title="Declarations for the virtual base class PDSS (pressure dependent standard state) which handles calcul...">
<polygon fill="white" stroke="black" points="712.747,-168.5 712.747,-187.5 763.747,-187.5 763.747,-168.5 712.747,-168.5"/>
<text text-anchor="middle" x="738.247" y="-175.5" font-family="FreeSans" font-size="10.00">PDSS.h</text>
</a>
</g>
</g>
<!-- Node1&#45;&gt;Node9 -->
<g id="edge8" class="edge"><title>Node1&#45;&gt;Node9</title>
<path fill="none" stroke="midnightblue" d="M798.751,-336.262C789.972,-318.973 770.271,-279.037 757.247,-244 751.487,-228.503 746.322,-210.418 742.836,-197.264"/>
<polygon fill="midnightblue" stroke="midnightblue" points="746.215,-196.348 740.327,-187.54 739.437,-198.097 746.215,-196.348"/>
</g>
<!-- Node11 -->
<g id="node11" class="node"><title>Node11</title>
<g id="a_node11"><a xlink:href="VPStandardStateTP_8h.html" target="_top" xlink:title="Header file for a derived class of ThermoPhase that handles variable pressure standard state methods ...">
<polygon fill="white" stroke="black" points="598.247,-280.5 598.247,-299.5 710.247,-299.5 710.247,-280.5 598.247,-280.5"/>
<text text-anchor="middle" x="654.247" y="-287.5" font-family="FreeSans" font-size="10.00">VPStandardStateTP.h</text>
</a>
</g>
</g>
<!-- Node1&#45;&gt;Node11 -->
<g id="edge11" class="edge"><title>Node1&#45;&gt;Node11</title>
<path fill="none" stroke="midnightblue" d="M779.638,-336.444C754.789,-327.438 715.473,-313.189 687.494,-303.049"/>
<polygon fill="midnightblue" stroke="midnightblue" points="688.34,-299.633 677.746,-299.516 685.955,-306.214 688.34,-299.633"/>
</g>
<!-- Node21 -->
<g id="node21" class="node"><title>Node21</title>
<g id="a_node21"><a xlink:href="WaterPropsIAPWS_8h.html" target="_top" xlink:title="Headers for a class for calculating the equation of state of water from the IAPWS 1995 Formulation ba...">
<polygon fill="white" stroke="black" points="896.747,-112.5 896.747,-131.5 1003.75,-131.5 1003.75,-112.5 896.747,-112.5"/>
<text text-anchor="middle" x="950.247" y="-119.5" font-family="FreeSans" font-size="10.00">WaterPropsIAPWS.h</text>
</a>
</g>
</g>
<!-- Node1&#45;&gt;Node21 -->
<g id="edge29" class="edge"><title>Node1&#45;&gt;Node21</title>
<path fill="none" stroke="midnightblue" d="M827.237,-336.443C844.61,-329.154 867.536,-317.119 882.247,-300 923.306,-252.222 940.978,-176.968 947.284,-142.014"/>
<polygon fill="midnightblue" stroke="midnightblue" points="950.794,-142.245 949.004,-131.803 943.891,-141.082 950.794,-142.245"/>
</g>
<!-- Node23 -->
<g id="node23" class="node"><title>Node23</title>
<g id="a_node23"><a xlink:href="WaterProps_8h.html" target="_top" xlink:title="Header for a class used to house several approximation routines for properties of water...">
<polygon fill="white" stroke="black" points="766.247,-224.5 766.247,-243.5 840.247,-243.5 840.247,-224.5 766.247,-224.5"/>
<text text-anchor="middle" x="803.247" y="-231.5" font-family="FreeSans" font-size="10.00">WaterProps.h</text>
</a>
</g>
</g>
<!-- Node1&#45;&gt;Node23 -->
<g id="edge33" class="edge"><title>Node1&#45;&gt;Node23</title>
<path fill="none" stroke="midnightblue" d="M803.247,-336.368C803.247,-318.617 803.247,-277.666 803.247,-253.597"/>
<polygon fill="midnightblue" stroke="midnightblue" points="806.747,-253.591 803.247,-243.591 799.747,-253.591 806.747,-253.591"/>
</g>
<!-- Node3 -->
<g id="node3" class="node"><title>Node3</title>
<g id="a_node3"><a xlink:href="config_8h_source.html" target="_top" xlink:title="config.h">
<polygon fill="white" stroke="black" points="837.247,-0.5 837.247,-19.5 887.247,-19.5 887.247,-0.5 837.247,-0.5"/>
<text text-anchor="middle" x="862.247" y="-7.5" font-family="FreeSans" font-size="10.00">config.h</text>
</a>
</g>
</g>
<!-- Node2&#45;&gt;Node3 -->
<g id="edge2" class="edge"><title>Node2&#45;&gt;Node3</title>
<path fill="none" stroke="midnightblue" d="M646.811,-56.4435C696.488,-45.9648 779.822,-28.3866 826.961,-18.4432"/>
<polygon fill="midnightblue" stroke="midnightblue" points="827.943,-21.8132 837.005,-16.3245 826.498,-14.9639 827.943,-21.8132"/>
</g>
<!-- Node4 -->
<g id="node4" class="node"><title>Node4</title>
<polygon fill="white" stroke="#bfbfbf" points="700.247,-0.5 700.247,-19.5 744.247,-19.5 744.247,-0.5 700.247,-0.5"/>
<text text-anchor="middle" x="722.247" y="-7.5" font-family="FreeSans" font-size="10.00">cmath</text>
</g>
<!-- Node2&#45;&gt;Node4 -->
<g id="edge3" class="edge"><title>Node2&#45;&gt;Node4</title>
<path fill="none" stroke="midnightblue" d="M624.628,-56.4435C643.464,-47.6751 672.978,-33.9355 694.626,-23.8579"/>
<polygon fill="midnightblue" stroke="midnightblue" points="696.364,-26.9098 703.953,-19.5164 693.41,-20.5637 696.364,-26.9098"/>
</g>
<!-- Node5 -->
<g id="node5" class="node"><title>Node5</title>
<polygon fill="white" stroke="#bfbfbf" points="465.247,-0.5 465.247,-19.5 509.247,-19.5 509.247,-0.5 465.247,-0.5"/>
<text text-anchor="middle" x="487.247" y="-7.5" font-family="FreeSans" font-size="10.00">cstdlib</text>
</g>
<!-- Node2&#45;&gt;Node5 -->
<g id="edge4" class="edge"><title>Node2&#45;&gt;Node5</title>
<path fill="none" stroke="midnightblue" d="M587.391,-56.4435C567.981,-47.6356 537.517,-33.8116 515.283,-23.722"/>
<polygon fill="midnightblue" stroke="midnightblue" points="516.567,-20.4615 506.015,-19.5164 513.675,-26.836 516.567,-20.4615"/>
</g>
<!-- Node6 -->
<g id="node6" class="node"><title>Node6</title>
<polygon fill="white" stroke="#bfbfbf" points="527.747,-0.5 527.747,-19.5 570.747,-19.5 570.747,-0.5 527.747,-0.5"/>
<text text-anchor="middle" x="549.247" y="-7.5" font-family="FreeSans" font-size="10.00">vector</text>
</g>
<!-- Node2&#45;&gt;Node6 -->
<g id="edge5" class="edge"><title>Node2&#45;&gt;Node6</title>
<path fill="none" stroke="midnightblue" d="M597.089,-56.324C588.746,-48.4196 576.215,-36.5482 566.07,-26.9377"/>
<polygon fill="midnightblue" stroke="midnightblue" points="568.239,-24.1705 558.572,-19.8339 563.424,-29.2522 568.239,-24.1705"/>
</g>
<!-- Node7 -->
<g id="node7" class="node"><title>Node7</title>
<polygon fill="white" stroke="#bfbfbf" points="588.747,-0.5 588.747,-19.5 623.747,-19.5 623.747,-0.5 588.747,-0.5"/>
<text text-anchor="middle" x="606.247" y="-7.5" font-family="FreeSans" font-size="10.00">map</text>
</g>
<!-- Node2&#45;&gt;Node7 -->
<g id="edge6" class="edge"><title>Node2&#45;&gt;Node7</title>
<path fill="none" stroke="midnightblue" d="M606.247,-56.083C606.247,-49.0059 606.247,-38.8611 606.247,-29.9865"/>
<polygon fill="midnightblue" stroke="midnightblue" points="609.747,-29.751 606.247,-19.7511 602.747,-29.7511 609.747,-29.751"/>
</g>
<!-- Node8 -->
<g id="node8" class="node"><title>Node8</title>
<polygon fill="white" stroke="#bfbfbf" points="642.247,-0.5 642.247,-19.5 682.247,-19.5 682.247,-0.5 642.247,-0.5"/>
<text text-anchor="middle" x="662.247" y="-7.5" font-family="FreeSans" font-size="10.00">string</text>
</g>
<!-- Node2&#45;&gt;Node8 -->
<g id="edge7" class="edge"><title>Node2&#45;&gt;Node8</title>
<path fill="none" stroke="midnightblue" d="M615.245,-56.324C623.442,-48.4196 635.753,-36.5482 645.719,-26.9377"/>
<polygon fill="midnightblue" stroke="midnightblue" points="648.317,-29.2947 653.086,-19.8339 643.458,-24.2558 648.317,-29.2947"/>
</g>
<!-- Node9&#45;&gt;Node2 -->
<g id="edge9" class="edge"><title>Node9&#45;&gt;Node2</title>
<path fill="none" stroke="midnightblue" d="M748.658,-168.461C763.204,-155.496 786.33,-130.409 772.247,-112 759.928,-95.8967 713.965,-84.2149 673.52,-76.7953"/>
<polygon fill="midnightblue" stroke="midnightblue" points="674.107,-73.3449 663.65,-75.0468 672.886,-80.2376 674.107,-73.3449"/>
</g>
<!-- Node10 -->
<g id="node10" class="node"><title>Node10</title>
<g id="a_node10"><a xlink:href="mix__defs_8h.html" target="_top" xlink:title="mix_defs.h">
<polygon fill="white" stroke="black" points="702.247,-112.5 702.247,-131.5 764.247,-131.5 764.247,-112.5 702.247,-112.5"/>
<text text-anchor="middle" x="733.247" y="-119.5" font-family="FreeSans" font-size="10.00">mix_defs.h</text>
</a>
</g>
</g>
<!-- Node9&#45;&gt;Node10 -->
<g id="edge10" class="edge"><title>Node9&#45;&gt;Node10</title>
<path fill="none" stroke="midnightblue" d="M737.422,-168.083C736.766,-161.006 735.827,-150.861 735.005,-141.986"/>
<polygon fill="midnightblue" stroke="midnightblue" points="738.465,-141.386 734.057,-131.751 731.494,-142.031 738.465,-141.386"/>
</g>
<!-- Node12 -->
<g id="node12" class="node"><title>Node12</title>
<g id="a_node12"><a xlink:href="ThermoPhase_8h.html" target="_top" xlink:title="Header file for class ThermoPhase, the base class for phases with thermodynamic properties, and the text for the Module thermoprops (see Thermodynamic Properties and class ThermoPhase). ">
<polygon fill="white" stroke="black" points="251.247,-224.5 251.247,-243.5 335.247,-243.5 335.247,-224.5 251.247,-224.5"/>
<text text-anchor="middle" x="293.247" y="-231.5" font-family="FreeSans" font-size="10.00">ThermoPhase.h</text>
</a>
</g>
</g>
<!-- Node11&#45;&gt;Node12 -->
<g id="edge12" class="edge"><title>Node11&#45;&gt;Node12</title>
<path fill="none" stroke="midnightblue" d="M598.237,-280.622C529.104,-270.281 412.467,-252.833 345.238,-242.777"/>
<polygon fill="midnightblue" stroke="midnightblue" points="345.696,-239.307 335.288,-241.289 344.66,-246.23 345.696,-239.307"/>
</g>
<!-- Node19 -->
<g id="node19" class="node"><title>Node19</title>
<g id="a_node19"><a xlink:href="VPSSMgr_8h.html" target="_top" xlink:title="Declaration file for a virtual base class that manages the calculation of standard state properties f...">
<polygon fill="white" stroke="black" points="624.747,-168.5 624.747,-187.5 691.747,-187.5 691.747,-168.5 624.747,-168.5"/>
<text text-anchor="middle" x="658.247" y="-175.5" font-family="FreeSans" font-size="10.00">VPSSMgr.h</text>
</a>
</g>
</g>
<!-- Node11&#45;&gt;Node19 -->
<g id="edge24" class="edge"><title>Node11&#45;&gt;Node19</title>
<path fill="none" stroke="midnightblue" d="M654.561,-280.368C655.207,-262.617 656.696,-221.666 657.571,-197.597"/>
<polygon fill="midnightblue" stroke="midnightblue" points="661.069,-197.712 657.935,-187.591 654.074,-197.458 661.069,-197.712"/>
</g>
<!-- Node13 -->
<g id="node13" class="node"><title>Node13</title>
<g id="a_node13"><a xlink:href="Phase_8h.html" target="_top" xlink:title="Header file for class Phase. ">
<polygon fill="white" stroke="black" points="267.747,-168.5 267.747,-187.5 318.747,-187.5 318.747,-168.5 267.747,-168.5"/>
<text text-anchor="middle" x="293.247" y="-175.5" font-family="FreeSans" font-size="10.00">Phase.h</text>
</a>
</g>
</g>
<!-- Node12&#45;&gt;Node13 -->
<g id="edge13" class="edge"><title>Node12&#45;&gt;Node13</title>
<path fill="none" stroke="midnightblue" d="M293.247,-224.083C293.247,-217.006 293.247,-206.861 293.247,-197.986"/>
<polygon fill="midnightblue" stroke="midnightblue" points="296.747,-197.751 293.247,-187.751 289.747,-197.751 296.747,-197.751"/>
</g>
<!-- Node18 -->
<g id="node18" class="node"><title>Node18</title>
<g id="a_node18"><a xlink:href="SpeciesThermo_8h.html" target="_top" xlink:title="Virtual base class for the calculation of multiple&#45;species thermodynamic reference&#45;state property man...">
<polygon fill="white" stroke="black" points="15.2472,-168.5 15.2472,-187.5 107.247,-187.5 107.247,-168.5 15.2472,-168.5"/>
<text text-anchor="middle" x="61.2472" y="-175.5" font-family="FreeSans" font-size="10.00">SpeciesThermo.h</text>
</a>
</g>
</g>
<!-- Node12&#45;&gt;Node18 -->
<g id="edge22" class="edge"><title>Node12&#45;&gt;Node18</title>
<path fill="none" stroke="midnightblue" d="M256.486,-224.444C216.184,-215.063 151.438,-199.993 107.663,-189.804"/>
<polygon fill="midnightblue" stroke="midnightblue" points="108.369,-186.375 97.8363,-187.516 106.782,-193.192 108.369,-186.375"/>
</g>
<!-- Node14 -->
<g id="node14" class="node"><title>Node14</title>
<g id="a_node14"><a xlink:href="vec__functions_8h.html" target="_top" xlink:title="Templates for operations on vector&#45;like objects. ">
<polygon fill="white" stroke="red" points="14.2472,-112.5 14.2472,-131.5 156.247,-131.5 156.247,-112.5 14.2472,-112.5"/>
<text text-anchor="middle" x="85.2472" y="-119.5" font-family="FreeSans" font-size="10.00">cantera/base/vec_functions.h</text>
</a>
</g>
</g>
<!-- Node13&#45;&gt;Node14 -->
<g id="edge14" class="edge"><title>Node13&#45;&gt;Node14</title>
<path fill="none" stroke="midnightblue" d="M267.742,-170.379C232.893,-161.331 169.932,-144.985 127.854,-134.061"/>
<polygon fill="midnightblue" stroke="midnightblue" points="128.721,-130.671 118.162,-131.545 126.962,-137.446 128.721,-130.671"/>
</g>
<!-- Node15 -->
<g id="node15" class="node"><title>Node15</title>
<g id="a_node15"><a xlink:href="ctml_8h.html" target="_top" xlink:title="CTML (&quot;Cantera Markup Language&quot;) is the variant of XML that Cantera uses to store data...">
<polygon fill="white" stroke="red" points="174.747,-112.5 174.747,-131.5 275.747,-131.5 275.747,-112.5 174.747,-112.5"/>
<text text-anchor="middle" x="225.247" y="-119.5" font-family="FreeSans" font-size="10.00">cantera/base/ctml.h</text>
</a>
</g>
</g>
<!-- Node13&#45;&gt;Node15 -->
<g id="edge16" class="edge"><title>Node13&#45;&gt;Node15</title>
<path fill="none" stroke="midnightblue" d="M282.322,-168.324C272.073,-160.185 256.527,-147.839 244.246,-138.087"/>
<polygon fill="midnightblue" stroke="midnightblue" points="246.379,-135.312 236.371,-131.834 242.026,-140.794 246.379,-135.312"/>
</g>
<!-- Node16 -->
<g id="node16" class="node"><title>Node16</title>
<g id="a_node16"><a xlink:href="Elements_8h.html" target="_top" xlink:title="Contains the LookupWtElements function and the definitions of element constraint types. ">
<polygon fill="white" stroke="black" points="294.247,-112.5 294.247,-131.5 426.247,-131.5 426.247,-112.5 294.247,-112.5"/>
<text text-anchor="middle" x="360.247" y="-119.5" font-family="FreeSans" font-size="10.00">cantera/thermo/Elements.h</text>
</a>
</g>
</g>
<!-- Node13&#45;&gt;Node16 -->
<g id="edge18" class="edge"><title>Node13&#45;&gt;Node16</title>
<path fill="none" stroke="midnightblue" d="M304.012,-168.324C314.013,-160.263 329.134,-148.077 341.178,-138.369"/>
<polygon fill="midnightblue" stroke="midnightblue" points="343.697,-140.834 349.287,-131.834 339.304,-135.384 343.697,-140.834"/>
</g>
<!-- Node17 -->
<g id="node17" class="node"><title>Node17</title>
<g id="a_node17"><a xlink:href="ValueCache_8h.html" target="_top" xlink:title="cantera/base/ValueCache.h">
<polygon fill="white" stroke="red" points="444.247,-112.5 444.247,-131.5 578.247,-131.5 578.247,-112.5 444.247,-112.5"/>
<text text-anchor="middle" x="511.247" y="-119.5" font-family="FreeSans" font-size="10.00">cantera/base/ValueCache.h</text>
</a>
</g>
</g>
<!-- Node13&#45;&gt;Node17 -->
<g id="edge20" class="edge"><title>Node13&#45;&gt;Node17</title>
<path fill="none" stroke="midnightblue" d="M319.111,-170.593C355.524,-161.574 422.412,-145.005 466.863,-133.994"/>
<polygon fill="midnightblue" stroke="midnightblue" points="467.952,-137.33 476.817,-131.529 466.269,-130.536 467.952,-137.33"/>
</g>
<!-- Node14&#45;&gt;Node2 -->
<g id="edge15" class="edge"><title>Node14&#45;&gt;Node2</title>
<path fill="none" stroke="midnightblue" d="M156.343,-112.963C159.351,-112.635 162.329,-112.313 165.247,-112 297.605,-97.8023 452.428,-82.247 538.936,-73.6502"/>
<polygon fill="midnightblue" stroke="midnightblue" points="539.536,-77.1079 549.141,-72.6368 538.844,-70.1422 539.536,-77.1079"/>
</g>
<!-- Node15&#45;&gt;Node2 -->
<g id="edge17" class="edge"><title>Node15&#45;&gt;Node2</title>
<path fill="none" stroke="midnightblue" d="M275.981,-113.355C279.116,-112.893 282.224,-112.439 285.247,-112 372.867,-99.2872 474.033,-85.2035 539,-76.2357"/>
<polygon fill="midnightblue" stroke="midnightblue" points="539.68,-79.6751 549.108,-74.8414 538.724,-72.7408 539.68,-79.6751"/>
</g>
<!-- Node16&#45;&gt;Node2 -->
<g id="edge19" class="edge"><title>Node16&#45;&gt;Node2</title>
<path fill="none" stroke="midnightblue" d="M399.227,-112.444C442.141,-103.023 511.193,-87.8656 557.616,-77.6752"/>
<polygon fill="midnightblue" stroke="midnightblue" points="558.433,-81.0792 567.45,-75.5164 556.932,-74.242 558.433,-81.0792"/>
</g>
<!-- Node17&#45;&gt;Node2 -->
<g id="edge21" class="edge"><title>Node17&#45;&gt;Node2</title>
<path fill="none" stroke="midnightblue" d="M526.511,-112.324C541.469,-103.822 564.502,-90.7288 581.974,-80.7975"/>
<polygon fill="midnightblue" stroke="midnightblue" points="584.058,-83.639 591.022,-75.6545 580.598,-77.5534 584.058,-83.639"/>
</g>
<!-- Node18&#45;&gt;Node2 -->
<g id="edge23" class="edge"><title>Node18&#45;&gt;Node2</title>
<path fill="none" stroke="midnightblue" d="M44.5491,-168.412C22.1045,-155.804 -12.9898,-131.654 5.24717,-112 40.9106,-73.5664 389.163,-67.7306 538.647,-67.0078"/>
<polygon fill="midnightblue" stroke="midnightblue" points="539.074,-70.5062 549.06,-66.9642 539.045,-63.5062 539.074,-70.5062"/>
</g>
<!-- Node19&#45;&gt;Node2 -->
<g id="edge25" class="edge"><title>Node19&#45;&gt;Node2</title>
<path fill="none" stroke="midnightblue" d="M650.421,-168.3C643.005,-159.65 632.023,-145.726 625.247,-132 617.929,-117.175 612.917,-99.0235 609.887,-85.6736"/>
<polygon fill="midnightblue" stroke="midnightblue" points="613.286,-84.8311 607.8,-75.7675 606.436,-86.2742 613.286,-84.8311"/>
</g>
<!-- Node19&#45;&gt;Node10 -->
<g id="edge26" class="edge"><title>Node19&#45;&gt;Node10</title>
<path fill="none" stroke="midnightblue" d="M670.297,-168.324C681.71,-160.107 699.078,-147.602 712.682,-137.807"/>
<polygon fill="midnightblue" stroke="midnightblue" points="714.908,-140.517 720.978,-131.834 710.817,-134.837 714.908,-140.517"/>
</g>
<!-- Node20 -->
<g id="node20" class="node"><title>Node20</title>
<g id="a_node20"><a xlink:href="global_8h.html" target="_top" xlink:title="This file contains definitions for utility functions and text for modules, inputfiles, logs, textlogs, (see Input File Handling, Diagnostic Output, and Writing messages to the screen). ">
<polygon fill="white" stroke="black" points="634.247,-112.5 634.247,-131.5 684.247,-131.5 684.247,-112.5 634.247,-112.5"/>
<text text-anchor="middle" x="659.247" y="-119.5" font-family="FreeSans" font-size="10.00">global.h</text>
</a>
</g>
</g>
<!-- Node19&#45;&gt;Node20 -->
<g id="edge27" class="edge"><title>Node19&#45;&gt;Node20</title>
<path fill="none" stroke="midnightblue" d="M658.412,-168.083C658.543,-161.006 658.731,-150.861 658.896,-141.986"/>
<polygon fill="midnightblue" stroke="midnightblue" points="662.399,-141.814 659.085,-131.751 655.4,-141.685 662.399,-141.814"/>
</g>
<!-- Node20&#45;&gt;Node2 -->
<g id="edge28" class="edge"><title>Node20&#45;&gt;Node2</title>
<path fill="none" stroke="midnightblue" d="M650.495,-112.083C642.777,-104.22 631.343,-92.5688 622.031,-83.0813"/>
<polygon fill="midnightblue" stroke="midnightblue" points="624.339,-80.4363 614.836,-75.7511 619.343,-85.3396 624.339,-80.4363"/>
</g>
<!-- Node21&#45;&gt;Node3 -->
<g id="edge32" class="edge"><title>Node21&#45;&gt;Node3</title>
<path fill="none" stroke="midnightblue" d="M929.552,-112.347C914.103,-104.876 893.609,-92.6501 881.247,-76 871.282,-62.5779 866.525,-44.0136 864.265,-30.16"/>
<polygon fill="midnightblue" stroke="midnightblue" points="867.682,-29.2988 862.895,-19.8471 860.743,-30.2211 867.682,-29.2988"/>
</g>
<!-- Node22 -->
<g id="node22" class="node"><title>Node22</title>
<g id="a_node22"><a xlink:href="WaterPropsIAPWSphi_8h.html" target="_top" xlink:title="Header for Lowest level of the classes which support a real water model (see class WaterPropsIAPWS an...">
<polygon fill="white" stroke="black" points="890.747,-56.5 890.747,-75.5 1009.75,-75.5 1009.75,-56.5 890.747,-56.5"/>
<text text-anchor="middle" x="950.247" y="-63.5" font-family="FreeSans" font-size="10.00">WaterPropsIAPWSphi.h</text>
</a>
</g>
</g>
<!-- Node21&#45;&gt;Node22 -->
<g id="edge30" class="edge"><title>Node21&#45;&gt;Node22</title>
<path fill="none" stroke="midnightblue" d="M950.247,-112.083C950.247,-105.006 950.247,-94.8611 950.247,-85.9865"/>
<polygon fill="midnightblue" stroke="midnightblue" points="953.747,-85.751 950.247,-75.7511 946.747,-85.7511 953.747,-85.751"/>
</g>
<!-- Node22&#45;&gt;Node3 -->
<g id="edge31" class="edge"><title>Node22&#45;&gt;Node3</title>
<path fill="none" stroke="midnightblue" d="M936.108,-56.324C922.381,-47.9002 901.311,-34.9709 885.183,-25.0741"/>
<polygon fill="midnightblue" stroke="midnightblue" points="886.705,-21.9016 876.351,-19.6545 883.043,-27.8678 886.705,-21.9016"/>
</g>
<!-- Node23&#45;&gt;Node2 -->
<g id="edge34" class="edge"><title>Node23&#45;&gt;Node2</title>
<path fill="none" stroke="midnightblue" d="M805.215,-224.379C809.646,-202.549 817.912,-144.522 789.247,-112 773.912,-94.6008 719.434,-82.6714 673.872,-75.4899"/>
<polygon fill="midnightblue" stroke="midnightblue" points="674.122,-71.9876 663.709,-73.9416 673.068,-78.9077 674.122,-71.9876"/>
</g>
</g>
</svg>
