<?xml version="1.0" encoding="UTF-8" standalone="no"?>
<!DOCTYPE svg PUBLIC "-//W3C//DTD SVG 1.1//EN"
 "http://www.w3.org/Graphics/SVG/1.1/DTD/svg11.dtd">
<!-- Generated by graphviz version 2.26.3 (20100126.1600)
 -->
<!-- Title: PDSS_ConstVol.h Pages: 1 -->
<svg width="554pt" height="88pt"
 viewBox="0.00 0.00 554.00 88.00" xmlns="http://www.w3.org/2000/svg" xmlns:xlink="http://www.w3.org/1999/xlink">
<g id="graph1" class="graph" transform="scale(1 1) rotate(0) translate(4 84)">
<title>PDSS_ConstVol.h</title>
<polygon fill="white" stroke="white" points="-4,5 -4,-84 551,-84 551,5 -4,5"/>
<!-- Node1 -->
<g id="node1" class="node"><title>Node1</title>
<polygon fill="#bfbfbf" stroke="black" points="202.5,-59 202.5,-79 297.5,-79 297.5,-59 202.5,-59"/>
<text text-anchor="middle" x="250" y="-66" font-family="FreeSans" font-size="10.00">PDSS_ConstVol.h</text>
</g>
<!-- Node2 -->
<g id="node3" class="node"><title>Node2</title>
<a xlink:href="PDSS__ConstVol_8cpp.html" target="_top" xlink:title="Implementation of a pressure dependent standard state virtual function. ">
<polygon fill="white" stroke="black" points="-0.5,-1 -0.5,-21 104.5,-21 104.5,-1 -0.5,-1"/>
<text text-anchor="middle" x="52" y="-8" font-family="FreeSans" font-size="10.00">PDSS_ConstVol.cpp</text>
</a>
</g>
<!-- Node1&#45;&gt;Node2 -->
<g id="edge2" class="edge"><title>Node1&#45;&gt;Node2</title>
<path fill="none" stroke="midnightblue" d="M205.744,-56.0361C169.695,-45.4763 119.521,-30.7788 86.4253,-21.0842"/>
<polygon fill="midnightblue" stroke="midnightblue" points="204.93,-59.4448 215.511,-58.8972 206.898,-52.7271 204.93,-59.4448"/>
</g>
<!-- Node3 -->
<g id="node5" class="node"><title>Node3</title>
<a xlink:href="VPSSMgr__ConstVol_8cpp.html" target="_top" xlink:title="Definition file for a derived class that handles the calculation of standard state thermo properties ...">
<polygon fill="white" stroke="black" points="121.5,-1 121.5,-21 242.5,-21 242.5,-1 121.5,-1"/>
<text text-anchor="middle" x="182" y="-8" font-family="FreeSans" font-size="10.00">VPSSMgr_ConstVol.cpp</text>
</a>
</g>
<!-- Node1&#45;&gt;Node3 -->
<g id="edge4" class="edge"><title>Node1&#45;&gt;Node3</title>
<path fill="none" stroke="midnightblue" d="M230.245,-52.1504C218.58,-42.2003 204.183,-29.9207 194.167,-21.3776"/>
<polygon fill="midnightblue" stroke="midnightblue" points="228.276,-55.0706 238.155,-58.8972 232.818,-49.7447 228.276,-55.0706"/>
</g>
<!-- Node4 -->
<g id="node7" class="node"><title>Node4</title>
<a xlink:href="VPSSMgr__General_8cpp.html" target="_top" xlink:title="Definition file for a derived class that handles the calculation of standard state thermo properties ...">
<polygon fill="white" stroke="black" points="260,-1 260,-21 376,-21 376,-1 260,-1"/>
<text text-anchor="middle" x="318" y="-8" font-family="FreeSans" font-size="10.00">VPSSMgr_General.cpp</text>
</a>
</g>
<!-- Node1&#45;&gt;Node4 -->
<g id="edge6" class="edge"><title>Node1&#45;&gt;Node4</title>
<path fill="none" stroke="midnightblue" d="M269.755,-52.1504C281.42,-42.2003 295.817,-29.9207 305.833,-21.3776"/>
<polygon fill="midnightblue" stroke="midnightblue" points="267.182,-49.7447 261.845,-58.8972 271.724,-55.0706 267.182,-49.7447"/>
</g>
<!-- Node5 -->
<g id="node9" class="node"><title>Node5</title>
<a xlink:href="VPSSMgr__Water__ConstVol_8cpp.html" target="_top" xlink:title="Definition file for a derived class that handles the calculation of standard state thermo properties ...">
<polygon fill="white" stroke="black" points="394,-1 394,-21 546,-21 546,-1 394,-1"/>
<text text-anchor="middle" x="470" y="-8" font-family="FreeSans" font-size="10.00">VPSSMgr_Water_ConstVol.cpp</text>
</a>
</g>
<!-- Node1&#45;&gt;Node5 -->
<g id="edge8" class="edge"><title>Node1&#45;&gt;Node5</title>
<path fill="none" stroke="midnightblue" d="M298.15,-56.3059C338.274,-45.7279 394.663,-30.8616 431.75,-21.0842"/>
<polygon fill="midnightblue" stroke="midnightblue" points="297.098,-52.9635 288.321,-58.8972 298.883,-59.7322 297.098,-52.9635"/>
</g>
</g>
</svg>
