<?xml version="1.0" encoding="UTF-8" standalone="no"?>
<!DOCTYPE svg PUBLIC "-//W3C//DTD SVG 1.1//EN"
 "http://www.w3.org/Graphics/SVG/1.1/DTD/svg11.dtd">
<!-- Generated by graphviz version 2.40.1 (20161225.0304)
 -->
<!-- Title: PDSSFactory.h Pages: 1 -->
<svg width="378pt" height="84pt"
 viewBox="0.00 0.00 377.50 84.00" xmlns="http://www.w3.org/2000/svg" xmlns:xlink="http://www.w3.org/1999/xlink">
<g id="graph0" class="graph" transform="scale(1 1) rotate(0) translate(4 80)">
<title>PDSSFactory.h</title>
<polygon fill="#ffffff" stroke="transparent" points="-4,4 -4,-80 373.5,-80 373.5,4 -4,4"/>
<!-- Node35 -->
<g id="node1" class="node">
<title>Node35</title>
<polygon fill="#bfbfbf" stroke="#000000" points="125.5,-56.5 125.5,-75.5 210.5,-75.5 210.5,-56.5 125.5,-56.5"/>
<text text-anchor="middle" x="168" y="-63.5" font-family="Helvetica,sans-Serif" font-size="10.00" fill="#000000">PDSSFactory.h</text>
</g>
<!-- Node36 -->
<g id="node2" class="node">
<title>Node36</title>
<g id="a_node2"><a xlink:href="PDSSFactory_8cpp.html" target="_top" xlink:title="PDSSFactory.cpp">
<polygon fill="#ffffff" stroke="#000000" points="0,-.5 0,-19.5 96,-19.5 96,-.5 0,-.5"/>
<text text-anchor="middle" x="48" y="-7.5" font-family="Helvetica,sans-Serif" font-size="10.00" fill="#000000">PDSSFactory.cpp</text>
</a>
</g>
</g>
<!-- Node35&#45;&gt;Node36 -->
<g id="edge1" class="edge">
<title>Node35&#45;&gt;Node36</title>
<path fill="none" stroke="#191970" d="M138.2376,-52.1109C116.4768,-41.9559 87.5318,-28.4482 68.3595,-19.5011"/>
<polygon fill="#191970" stroke="#191970" points="136.8293,-55.316 147.3713,-56.3733 139.7895,-48.9727 136.8293,-55.316"/>
</g>
<!-- Node37 -->
<g id="node3" class="node">
<title>Node37</title>
<g id="a_node3"><a xlink:href="ThermoFactory_8cpp.html" target="_top" xlink:title="Definitions for the factory class that can create known ThermoPhase objects (see Thermodynamic Proper...">
<polygon fill="#ffffff" stroke="#000000" points="114,-.5 114,-19.5 222,-19.5 222,-.5 114,-.5"/>
<text text-anchor="middle" x="168" y="-7.5" font-family="Helvetica,sans-Serif" font-size="10.00" fill="#000000">ThermoFactory.cpp</text>
</a>
</g>
</g>
<!-- Node35&#45;&gt;Node37 -->
<g id="edge2" class="edge">
<title>Node35&#45;&gt;Node37</title>
<path fill="none" stroke="#191970" d="M168,-46.1575C168,-37.155 168,-26.9199 168,-19.6427"/>
<polygon fill="#191970" stroke="#191970" points="164.5001,-46.2455 168,-56.2455 171.5001,-46.2456 164.5001,-46.2455"/>
</g>
<!-- Node38 -->
<g id="node4" class="node">
<title>Node38</title>
<g id="a_node4"><a xlink:href="VPStandardStateTP_8cpp.html" target="_top" xlink:title="Definition file for a derived class of ThermoPhase that handles variable pressure standard state meth...">
<polygon fill="#ffffff" stroke="#000000" points="240.5,-.5 240.5,-19.5 369.5,-19.5 369.5,-.5 240.5,-.5"/>
<text text-anchor="middle" x="305" y="-7.5" font-family="Helvetica,sans-Serif" font-size="10.00" fill="#000000">VPStandardStateTP.cpp</text>
</a>
</g>
</g>
<!-- Node35&#45;&gt;Node38 -->
<g id="edge3" class="edge">
<title>Node35&#45;&gt;Node38</title>
<path fill="none" stroke="#191970" d="M200.9806,-52.5189C225.9311,-42.3201 259.5734,-28.5685 281.7562,-19.5011"/>
<polygon fill="#191970" stroke="#191970" points="199.4834,-49.3497 191.5511,-56.3733 202.132,-55.8293 199.4834,-49.3497"/>
</g>
</g>
</svg>
