<?xml version="1.0" encoding="UTF-8" standalone="no"?>
<!DOCTYPE svg PUBLIC "-//W3C//DTD SVG 1.1//EN"
 "http://www.w3.org/Graphics/SVG/1.1/DTD/svg11.dtd">
<!-- Generated by graphviz version 2.40.1 (20161225.0304)
 -->
<!-- Title: PDSS_IonsFromNeutral.cpp Pages: 1 -->
<svg width="702pt" height="498pt"
 viewBox="0.00 0.00 702.00 498.00" xmlns="http://www.w3.org/2000/svg" xmlns:xlink="http://www.w3.org/1999/xlink">
<g id="graph0" class="graph" transform="scale(1 1) rotate(0) translate(4 494)">
<title>PDSS_IonsFromNeutral.cpp</title>
<polygon fill="#ffffff" stroke="transparent" points="-4,4 -4,-494 698,-494 698,4 -4,4"/>
<!-- Node0 -->
<g id="node1" class="node">
<title>Node0</title>
<polygon fill="#bfbfbf" stroke="#000000" points="381,-470.5 381,-489.5 529,-489.5 529,-470.5 381,-470.5"/>
<text text-anchor="middle" x="455" y="-477.5" font-family="Helvetica,sans-Serif" font-size="10.00" fill="#000000">PDSS_IonsFromNeutral.cpp</text>
</g>
<!-- Node1 -->
<g id="node2" class="node">
<title>Node1</title>
<g id="a_node2"><a xlink:href="PDSS__IonsFromNeutral_8h.html" target="_top" xlink:title="Declarations for the class PDSS_IonsFromNeutral ( which handles calculations for a single ion in a fl...">
<polygon fill="#ffffff" stroke="#000000" points="329,-336.5 329,-366.5 449,-366.5 449,-336.5 329,-336.5"/>
<text text-anchor="start" x="337" y="-354.5" font-family="Helvetica,sans-Serif" font-size="10.00" fill="#000000">cantera/thermo/PDSS</text>
<text text-anchor="middle" x="389" y="-343.5" font-family="Helvetica,sans-Serif" font-size="10.00" fill="#000000">_IonsFromNeutral.h</text>
</a>
</g>
</g>
<!-- Node0&#45;&gt;Node1 -->
<g id="edge1" class="edge">
<title>Node0&#45;&gt;Node1</title>
<path fill="none" stroke="#191970" d="M450.0393,-470.3416C439.8044,-450.4146 416.0788,-404.2215 401.4047,-375.6516"/>
<polygon fill="#191970" stroke="#191970" points="404.49,-373.9978 396.8078,-366.7016 398.2633,-377.196 404.49,-373.9978"/>
</g>
<!-- Node12 -->
<g id="node13" class="node">
<title>Node12</title>
<g id="a_node13"><a xlink:href="IonsFromNeutralVPSSTP_8h.html" target="_top" xlink:title="Header for intermediate ThermoPhase object for phases which consist of ions whose thermodynamics is c...">
<polygon fill="#ffffff" stroke="#000000" points="196.5,-403.5 196.5,-433.5 371.5,-433.5 371.5,-403.5 196.5,-403.5"/>
<text text-anchor="start" x="204.5" y="-421.5" font-family="Helvetica,sans-Serif" font-size="10.00" fill="#000000">cantera/thermo/IonsFromNeutral</text>
<text text-anchor="middle" x="284" y="-410.5" font-family="Helvetica,sans-Serif" font-size="10.00" fill="#000000">VPSSTP.h</text>
</a>
</g>
</g>
<!-- Node0&#45;&gt;Node12 -->
<g id="edge12" class="edge">
<title>Node0&#45;&gt;Node12</title>
<path fill="none" stroke="#191970" d="M428.2813,-470.3906C403.5313,-461.4893 366.0447,-448.0073 335.485,-437.0165"/>
<polygon fill="#191970" stroke="#191970" points="336.4258,-433.6355 325.8313,-433.5446 334.0567,-440.2224 336.4258,-433.6355"/>
</g>
<!-- Node41 -->
<g id="node23" class="node">
<title>Node41</title>
<g id="a_node23"><a xlink:href="stringUtils_8h.html" target="_top" xlink:title="Contains declarations for string manipulation functions within Cantera. ">
<polygon fill="#ffffff" stroke="#000000" points="552,-168.5 552,-187.5 694,-187.5 694,-168.5 552,-168.5"/>
<text text-anchor="middle" x="623" y="-175.5" font-family="Helvetica,sans-Serif" font-size="10.00" fill="#000000">cantera/base/stringUtils.h</text>
</a>
</g>
</g>
<!-- Node0&#45;&gt;Node41 -->
<g id="edge27" class="edge">
<title>Node0&#45;&gt;Node41</title>
<path fill="none" stroke="#191970" d="M475.9222,-470.4312C511.5066,-452.5522 580,-410.4781 580,-351.5 580,-351.5 580,-351.5 580,-290 580,-255.1403 598.3793,-217.9899 611.1059,-196.444"/>
<polygon fill="#191970" stroke="#191970" points="614.2206,-198.0603 616.4692,-187.7069 608.2549,-194.3983 614.2206,-198.0603"/>
</g>
<!-- Node42 -->
<g id="node24" class="node">
<title>Node42</title>
<g id="a_node24"><a xlink:href="ctml_8h.html" target="_top" xlink:title="CTML (&quot;Cantera Markup Language&quot;) is the variant of XML that Cantera uses to store data...">
<polygon fill="#ffffff" stroke="#000000" points="420.5,-280.5 420.5,-299.5 533.5,-299.5 533.5,-280.5 420.5,-280.5"/>
<text text-anchor="middle" x="477" y="-287.5" font-family="Helvetica,sans-Serif" font-size="10.00" fill="#000000">cantera/base/ctml.h</text>
</a>
</g>
</g>
<!-- Node0&#45;&gt;Node42 -->
<g id="edge31" class="edge">
<title>Node0&#45;&gt;Node42</title>
<path fill="none" stroke="#191970" d="M456.1212,-470.3167C459.5628,-440.5938 470.0246,-350.242 474.7,-309.8634"/>
<polygon fill="#191970" stroke="#191970" points="478.1811,-310.2279 475.8546,-299.8917 471.2276,-309.4227 478.1811,-310.2279"/>
</g>
<!-- Node2 -->
<g id="node3" class="node">
<title>Node2</title>
<g id="a_node3"><a xlink:href="PDSS_8h.html" target="_top" xlink:title="Declarations for the virtual base class PDSS (pressure dependent standard state) which handles calcul...">
<polygon fill="#ffffff" stroke="#000000" points="336.5,-224.5 336.5,-243.5 387.5,-243.5 387.5,-224.5 336.5,-224.5"/>
<text text-anchor="middle" x="362" y="-231.5" font-family="Helvetica,sans-Serif" font-size="10.00" fill="#000000">PDSS.h</text>
</a>
</g>
</g>
<!-- Node1&#45;&gt;Node2 -->
<g id="edge2" class="edge">
<title>Node1&#45;&gt;Node2</title>
<path fill="none" stroke="#191970" d="M385.4702,-336.1389C380.6057,-314.9692 371.8389,-276.8174 366.5064,-253.6112"/>
<polygon fill="#191970" stroke="#191970" points="369.8473,-252.5216 364.1966,-243.5595 363.0251,-254.0893 369.8473,-252.5216"/>
</g>
<!-- Node3 -->
<g id="node4" class="node">
<title>Node3</title>
<g id="a_node4"><a xlink:href="ct__defs_8h.html" target="_top" xlink:title="This file contains definitions of terms that are used in internal routines and are unlikely to need m...">
<polygon fill="#ffffff" stroke="#000000" points="319.5,-56.5 319.5,-75.5 446.5,-75.5 446.5,-56.5 319.5,-56.5"/>
<text text-anchor="middle" x="383" y="-63.5" font-family="Helvetica,sans-Serif" font-size="10.00" fill="#000000">cantera/base/ct_defs.h</text>
</a>
</g>
</g>
<!-- Node2&#45;&gt;Node3 -->
<g id="edge3" class="edge">
<title>Node2&#45;&gt;Node3</title>
<path fill="none" stroke="#191970" d="M353.5023,-224.2186C346.4597,-215.4179 336.9829,-201.786 333,-188 330.5328,-179.4604 332.1393,-176.8471 333,-168 335.456,-142.7547 332.9994,-134.8549 344,-112 349.1766,-101.2451 357.4766,-90.9468 365.0917,-82.8312"/>
<polygon fill="#191970" stroke="#191970" points="367.7926,-85.0777 372.3375,-75.5071 362.8163,-80.1546 367.7926,-85.0777"/>
</g>
<!-- Node4 -->
<g id="node5" class="node">
<title>Node4</title>
<g id="a_node5"><a xlink:href="config_8h_source.html" target="_top" xlink:title="config.h">
<polygon fill="#ffffff" stroke="#000000" points="395.5,-.5 395.5,-19.5 450.5,-19.5 450.5,-.5 395.5,-.5"/>
<text text-anchor="middle" x="423" y="-7.5" font-family="Helvetica,sans-Serif" font-size="10.00" fill="#000000">config.h</text>
</a>
</g>
</g>
<!-- Node3&#45;&gt;Node4 -->
<g id="edge4" class="edge">
<title>Node3&#45;&gt;Node4</title>
<path fill="none" stroke="#191970" d="M389.9675,-56.2455C395.5311,-48.4564 403.478,-37.3308 410.1829,-27.9439"/>
<polygon fill="#191970" stroke="#191970" points="413.148,-29.8144 416.1124,-19.6427 407.4519,-25.7457 413.148,-29.8144"/>
</g>
<!-- Node5 -->
<g id="node6" class="node">
<title>Node5</title>
<polygon fill="#ffffff" stroke="#bfbfbf" points="468.5,-.5 468.5,-19.5 515.5,-19.5 515.5,-.5 468.5,-.5"/>
<text text-anchor="middle" x="492" y="-7.5" font-family="Helvetica,sans-Serif" font-size="10.00" fill="#000000">cmath</text>
</g>
<!-- Node3&#45;&gt;Node5 -->
<g id="edge5" class="edge">
<title>Node3&#45;&gt;Node5</title>
<path fill="none" stroke="#191970" d="M401.9864,-56.2455C419.1792,-47.4125 444.7238,-34.2887 464.2132,-24.2758"/>
<polygon fill="#191970" stroke="#191970" points="465.9359,-27.3257 473.2312,-19.6427 462.737,-21.0993 465.9359,-27.3257"/>
</g>
<!-- Node6 -->
<g id="node7" class="node">
<title>Node6</title>
<polygon fill="#ffffff" stroke="#bfbfbf" points="533.5,-.5 533.5,-19.5 582.5,-19.5 582.5,-.5 533.5,-.5"/>
<text text-anchor="middle" x="558" y="-7.5" font-family="Helvetica,sans-Serif" font-size="10.00" fill="#000000">cstdlib</text>
</g>
<!-- Node3&#45;&gt;Node6 -->
<g id="edge6" class="edge">
<title>Node3&#45;&gt;Node6</title>
<path fill="none" stroke="#191970" d="M413.0836,-56.3733C443.7707,-46.5534 491.3268,-31.3354 523.5169,-21.0346"/>
<polygon fill="#191970" stroke="#191970" points="524.93,-24.2573 533.3875,-17.876 522.7965,-17.5903 524.93,-24.2573"/>
</g>
<!-- Node7 -->
<g id="node8" class="node">
<title>Node7</title>
<polygon fill="#ffffff" stroke="#bfbfbf" points="115.5,-.5 115.5,-19.5 162.5,-19.5 162.5,-.5 115.5,-.5"/>
<text text-anchor="middle" x="139" y="-7.5" font-family="Helvetica,sans-Serif" font-size="10.00" fill="#000000">vector</text>
</g>
<!-- Node3&#45;&gt;Node7 -->
<g id="edge7" class="edge">
<title>Node3&#45;&gt;Node7</title>
<path fill="none" stroke="#191970" d="M334.1316,-56.4951C293.3782,-48.3095 233.6037,-35.7055 172.5381,-19.9865"/>
<polygon fill="#191970" stroke="#191970" points="173.288,-16.5652 162.7291,-17.4371 171.5271,-23.3401 173.288,-16.5652"/>
</g>
<!-- Node8 -->
<g id="node9" class="node">
<title>Node8</title>
<polygon fill="#ffffff" stroke="#bfbfbf" points="181,-.5 181,-19.5 219,-19.5 219,-.5 181,-.5"/>
<text text-anchor="middle" x="200" y="-7.5" font-family="Helvetica,sans-Serif" font-size="10.00" fill="#000000">map</text>
</g>
<!-- Node3&#45;&gt;Node8 -->
<g id="edge8" class="edge">
<title>Node3&#45;&gt;Node8</title>
<path fill="none" stroke="#191970" d="M348.9701,-56.4785C319.4864,-48.1014 275.4884,-35.2963 228.8952,-20.1806"/>
<polygon fill="#191970" stroke="#191970" points="229.8248,-16.8023 219.2323,-17.0242 227.6513,-23.4563 229.8248,-16.8023"/>
</g>
<!-- Node9 -->
<g id="node10" class="node">
<title>Node9</title>
<polygon fill="#ffffff" stroke="#bfbfbf" points="601,-.5 601,-19.5 645,-19.5 645,-.5 601,-.5"/>
<text text-anchor="middle" x="623" y="-7.5" font-family="Helvetica,sans-Serif" font-size="10.00" fill="#000000">string</text>
</g>
<!-- Node3&#45;&gt;Node9 -->
<g id="edge9" class="edge">
<title>Node3&#45;&gt;Node9</title>
<path fill="none" stroke="#191970" d="M431.6156,-56.4706C473.9507,-47.8819 536.8568,-34.4188 591,-20 591.0984,-19.9738 591.197,-19.9475 591.2957,-19.921"/>
<polygon fill="#191970" stroke="#191970" points="592.0366,-23.3495 600.6911,-17.2379 590.1144,-16.6185 592.0366,-23.3495"/>
</g>
<!-- Node10 -->
<g id="node11" class="node">
<title>Node10</title>
<polygon fill="#ffffff" stroke="#bfbfbf" points="237,-.5 237,-19.5 301,-19.5 301,-.5 237,-.5"/>
<text text-anchor="middle" x="269" y="-7.5" font-family="Helvetica,sans-Serif" font-size="10.00" fill="#000000">algorithm</text>
</g>
<!-- Node3&#45;&gt;Node10 -->
<g id="edge10" class="edge">
<title>Node3&#45;&gt;Node10</title>
<path fill="none" stroke="#191970" d="M363.4027,-56.3733C345.2669,-47.4644 318.0865,-34.1127 297.5413,-24.0203"/>
<polygon fill="#191970" stroke="#191970" points="298.8603,-20.7688 288.3416,-19.5011 295.7739,-27.0517 298.8603,-20.7688"/>
</g>
<!-- Node11 -->
<g id="node12" class="node">
<title>Node11</title>
<polygon fill="#ffffff" stroke="#bfbfbf" points="319,-.5 319,-19.5 377,-19.5 377,-.5 319,-.5"/>
<text text-anchor="middle" x="348" y="-7.5" font-family="Helvetica,sans-Serif" font-size="10.00" fill="#000000">memory</text>
</g>
<!-- Node3&#45;&gt;Node11 -->
<g id="edge11" class="edge">
<title>Node3&#45;&gt;Node11</title>
<path fill="none" stroke="#191970" d="M376.9035,-56.2455C372.0855,-48.5367 365.2249,-37.5598 359.3968,-28.2348"/>
<polygon fill="#191970" stroke="#191970" points="362.2947,-26.2677 354.0267,-19.6427 356.3587,-29.9777 362.2947,-26.2677"/>
</g>
<!-- Node13 -->
<g id="node14" class="node">
<title>Node13</title>
<g id="a_node14"><a xlink:href="GibbsExcessVPSSTP_8h.html" target="_top" xlink:title="Header for intermediate ThermoPhase object for phases which employ Gibbs excess free energy based for...">
<polygon fill="#ffffff" stroke="#000000" points="189,-342 189,-361 311,-361 311,-342 189,-342"/>
<text text-anchor="middle" x="250" y="-349" font-family="Helvetica,sans-Serif" font-size="10.00" fill="#000000">GibbsExcessVPSSTP.h</text>
</a>
</g>
</g>
<!-- Node12&#45;&gt;Node13 -->
<g id="edge13" class="edge">
<title>Node12&#45;&gt;Node13</title>
<path fill="none" stroke="#191970" d="M276.2849,-403.2967C271.2961,-393.4658 264.7685,-380.6026 259.4664,-370.1545"/>
<polygon fill="#191970" stroke="#191970" points="262.4953,-368.3886 254.8488,-361.055 256.253,-371.5563 262.4953,-368.3886"/>
</g>
<!-- Node14 -->
<g id="node15" class="node">
<title>Node14</title>
<g id="a_node15"><a xlink:href="VPStandardStateTP_8h.html" target="_top" xlink:title="Header file for a derived class of ThermoPhase that handles variable pressure standard state methods ...">
<polygon fill="#ffffff" stroke="#000000" points="213,-280.5 213,-299.5 331,-299.5 331,-280.5 213,-280.5"/>
<text text-anchor="middle" x="272" y="-287.5" font-family="Helvetica,sans-Serif" font-size="10.00" fill="#000000">VPStandardStateTP.h</text>
</a>
</g>
</g>
<!-- Node13&#45;&gt;Node14 -->
<g id="edge14" class="edge">
<title>Node13&#45;&gt;Node14</title>
<path fill="none" stroke="#191970" d="M253.4375,-341.8906C256.5513,-333.1862 261.232,-320.1015 265.114,-309.2494"/>
<polygon fill="#191970" stroke="#191970" points="268.4412,-310.3394 268.514,-299.7449 261.8503,-307.9817 268.4412,-310.3394"/>
</g>
<!-- Node35 -->
<g id="node19" class="node">
<title>Node35</title>
<g id="a_node19"><a xlink:href="Array_8h.html" target="_top" xlink:title="Header file for class Cantera::Array2D. ">
<polygon fill="#ffffff" stroke="#000000" points="63,-280.5 63,-299.5 179,-299.5 179,-280.5 63,-280.5"/>
<text text-anchor="middle" x="121" y="-287.5" font-family="Helvetica,sans-Serif" font-size="10.00" fill="#000000">cantera/base/Array.h</text>
</a>
</g>
</g>
<!-- Node13&#45;&gt;Node35 -->
<g id="edge21" class="edge">
<title>Node13&#45;&gt;Node35</title>
<path fill="none" stroke="#191970" d="M229.8438,-341.8906C208.449,-331.6908 174.438,-315.4763 150.1298,-303.8875"/>
<polygon fill="#191970" stroke="#191970" points="151.5476,-300.686 141.0147,-299.5419 148.5352,-307.0047 151.5476,-300.686"/>
</g>
<!-- Node14&#45;&gt;Node2 -->
<g id="edge20" class="edge">
<title>Node14&#45;&gt;Node2</title>
<path fill="none" stroke="#191970" d="M287.6768,-280.2455C301.4856,-271.6534 321.8193,-259.0014 337.7292,-249.1018"/>
<polygon fill="#191970" stroke="#191970" points="339.8613,-251.8974 346.5028,-243.6427 336.1632,-245.954 339.8613,-251.8974"/>
</g>
<!-- Node15 -->
<g id="node16" class="node">
<title>Node15</title>
<g id="a_node16"><a xlink:href="ThermoPhase_8h.html" target="_top" xlink:title="Header file for class ThermoPhase, the base class for phases with thermodynamic properties, and the text for the Module thermoprops (see Thermodynamic Properties and class ThermoPhase). ">
<polygon fill="#ffffff" stroke="#ff0000" points="226,-224.5 226,-243.5 318,-243.5 318,-224.5 226,-224.5"/>
<text text-anchor="middle" x="272" y="-231.5" font-family="Helvetica,sans-Serif" font-size="10.00" fill="#000000">ThermoPhase.h</text>
</a>
</g>
</g>
<!-- Node14&#45;&gt;Node15 -->
<g id="edge15" class="edge">
<title>Node14&#45;&gt;Node15</title>
<path fill="none" stroke="#191970" d="M272,-280.2455C272,-272.9382 272,-262.6944 272,-253.7046"/>
<polygon fill="#191970" stroke="#191970" points="275.5001,-253.6426 272,-243.6427 268.5001,-253.6427 275.5001,-253.6426"/>
</g>
<!-- Node25 -->
<g id="node17" class="node">
<title>Node25</title>
<g id="a_node17"><a xlink:href="global_8h.html" target="_top" xlink:title="This file contains definitions for utility functions and text for modules, inputfiles, logs, textlogs, (see Input File Handling, Diagnostic Output, and Writing messages to the screen). ">
<polygon fill="#ffffff" stroke="#000000" points="164,-168.5 164,-187.5 286,-187.5 286,-168.5 164,-168.5"/>
<text text-anchor="middle" x="225" y="-175.5" font-family="Helvetica,sans-Serif" font-size="10.00" fill="#000000">cantera/base/global.h</text>
</a>
</g>
</g>
<!-- Node15&#45;&gt;Node25 -->
<g id="edge16" class="edge">
<title>Node15&#45;&gt;Node25</title>
<path fill="none" stroke="#191970" d="M263.8132,-224.2455C257.1411,-216.2958 247.5521,-204.8706 239.5747,-195.3656"/>
<polygon fill="#191970" stroke="#191970" points="242.2026,-193.0524 233.093,-187.6427 236.8408,-197.5525 242.2026,-193.0524"/>
</g>
<!-- Node25&#45;&gt;Node3 -->
<g id="edge17" class="edge">
<title>Node25&#45;&gt;Node3</title>
<path fill="none" stroke="#191970" d="M234.6164,-168.3054C248.3619,-154.7455 274.7632,-129.784 300,-112 316.9989,-100.0211 337.4134,-88.6716 353.7424,-80.2431"/>
<polygon fill="#191970" stroke="#191970" points="355.4924,-83.2801 362.828,-75.6354 352.3262,-77.037 355.4924,-83.2801"/>
</g>
<!-- Node18 -->
<g id="node18" class="node">
<title>Node18</title>
<g id="a_node18"><a xlink:href="fmt_8h.html" target="_top" xlink:title="Wrapper for either system&#45;installed or local headers for fmt. ">
<polygon fill="#ffffff" stroke="#ff0000" points="353.5,-112.5 353.5,-131.5 462.5,-131.5 462.5,-112.5 353.5,-112.5"/>
<text text-anchor="middle" x="408" y="-119.5" font-family="Helvetica,sans-Serif" font-size="10.00" fill="#000000">cantera/base/fmt.h</text>
</a>
</g>
</g>
<!-- Node25&#45;&gt;Node18 -->
<g id="edge18" class="edge">
<title>Node25&#45;&gt;Node18</title>
<path fill="none" stroke="#191970" d="M256.4588,-168.3733C287.0207,-159.021 333.5826,-144.7725 367.0261,-134.5385"/>
<polygon fill="#191970" stroke="#191970" points="368.4136,-137.7742 376.9517,-131.5011 366.3652,-131.0806 368.4136,-137.7742"/>
</g>
<!-- Node18&#45;&gt;Node3 -->
<g id="edge19" class="edge">
<title>Node18&#45;&gt;Node3</title>
<path fill="none" stroke="#191970" d="M403.6453,-112.2455C400.2756,-104.6973 395.507,-94.0158 391.4017,-84.8197"/>
<polygon fill="#191970" stroke="#191970" points="394.5773,-83.3473 387.3048,-75.6427 388.1853,-86.2009 394.5773,-83.3473"/>
</g>
<!-- Node36 -->
<g id="node20" class="node">
<title>Node36</title>
<g id="a_node20"><a xlink:href="utilities_8h.html" target="_top" xlink:title="Various templated functions that carry out common vector operations (see Templated Utility Functions)...">
<polygon fill="#ffffff" stroke="#ff0000" points="0,-224.5 0,-243.5 62,-243.5 62,-224.5 0,-224.5"/>
<text text-anchor="middle" x="31" y="-231.5" font-family="Helvetica,sans-Serif" font-size="10.00" fill="#000000">utilities.h</text>
</a>
</g>
</g>
<!-- Node35&#45;&gt;Node36 -->
<g id="edge22" class="edge">
<title>Node35&#45;&gt;Node36</title>
<path fill="none" stroke="#191970" d="M105.3232,-280.2455C91.5144,-271.6534 71.1807,-259.0014 55.2708,-249.1018"/>
<polygon fill="#191970" stroke="#191970" points="56.8368,-245.954 46.4972,-243.6427 53.1387,-251.8974 56.8368,-245.954"/>
</g>
<!-- Node39 -->
<g id="node21" class="node">
<title>Node39</title>
<polygon fill="#ffffff" stroke="#bfbfbf" points="148,-224.5 148,-243.5 208,-243.5 208,-224.5 148,-224.5"/>
<text text-anchor="middle" x="178" y="-231.5" font-family="Helvetica,sans-Serif" font-size="10.00" fill="#000000">iostream</text>
</g>
<!-- Node35&#45;&gt;Node39 -->
<g id="edge25" class="edge">
<title>Node35&#45;&gt;Node39</title>
<path fill="none" stroke="#191970" d="M130.9286,-280.2455C139.1838,-272.1352 151.1209,-260.4075 160.9082,-250.7919"/>
<polygon fill="#191970" stroke="#191970" points="163.5046,-253.1476 168.1851,-243.6427 158.5989,-248.1542 163.5046,-253.1476"/>
</g>
<!-- Node40 -->
<g id="node22" class="node">
<title>Node40</title>
<polygon fill="#ffffff" stroke="#bfbfbf" points="80,-224.5 80,-243.5 130,-243.5 130,-224.5 80,-224.5"/>
<text text-anchor="middle" x="105" y="-231.5" font-family="Helvetica,sans-Serif" font-size="10.00" fill="#000000">cstring</text>
</g>
<!-- Node35&#45;&gt;Node40 -->
<g id="edge26" class="edge">
<title>Node35&#45;&gt;Node40</title>
<path fill="none" stroke="#191970" d="M118.213,-280.2455C116.1023,-272.8579 113.134,-262.4689 110.5453,-253.4087"/>
<polygon fill="#191970" stroke="#191970" points="113.8677,-252.2964 107.755,-243.6427 107.137,-254.2195 113.8677,-252.2964"/>
</g>
<!-- Node36&#45;&gt;Node3 -->
<g id="edge23" class="edge">
<title>Node36&#45;&gt;Node3</title>
<path fill="none" stroke="#191970" d="M48.5265,-224.3436C72.4264,-211.2513 116.6572,-187.2896 155,-168 206.858,-141.9111 219.985,-135.6491 273,-112 298.5738,-100.5919 327.8367,-88.3953 349.7482,-79.4293"/>
<polygon fill="#191970" stroke="#191970" points="351.3203,-82.5681 359.2587,-75.5515 348.6774,-76.0862 351.3203,-82.5681"/>
</g>
<!-- Node36&#45;&gt;Node25 -->
<g id="edge24" class="edge">
<title>Node36&#45;&gt;Node25</title>
<path fill="none" stroke="#191970" d="M62.1695,-225.0026C94.6734,-215.6201 145.85,-200.8474 182.1454,-190.3704"/>
<polygon fill="#191970" stroke="#191970" points="183.323,-193.6734 191.96,-187.5373 181.3816,-186.948 183.323,-193.6734"/>
</g>
<!-- Node41&#45;&gt;Node3 -->
<g id="edge28" class="edge">
<title>Node41&#45;&gt;Node3</title>
<path fill="none" stroke="#191970" d="M612.8837,-168.0646C597.7856,-153.75 567.9165,-127.3611 538,-112 507.7136,-96.449 471.3325,-85.3079 441.4302,-77.8889"/>
<polygon fill="#191970" stroke="#191970" points="442.0972,-74.4495 431.556,-75.5145 440.4606,-81.2555 442.0972,-74.4495"/>
</g>
<!-- Node41&#45;&gt;Node9 -->
<g id="edge30" class="edge">
<title>Node41&#45;&gt;Node9</title>
<path fill="none" stroke="#191970" d="M623,-168.4862C623,-141.9293 623,-66.5651 623,-30.1655"/>
<polygon fill="#191970" stroke="#191970" points="626.5001,-29.8278 623,-19.8279 619.5001,-29.8279 626.5001,-29.8278"/>
</g>
<!-- Node41&#45;&gt;Node18 -->
<g id="edge29" class="edge">
<title>Node41&#45;&gt;Node18</title>
<path fill="none" stroke="#191970" d="M586.0402,-168.3733C549.5925,-158.8799 493.7754,-144.3415 454.3711,-134.0781"/>
<polygon fill="#191970" stroke="#191970" points="455.0369,-130.6348 444.4775,-131.5011 453.2724,-137.4087 455.0369,-130.6348"/>
</g>
<!-- Node42&#45;&gt;Node3 -->
<g id="edge32" class="edge">
<title>Node42&#45;&gt;Node3</title>
<path fill="none" stroke="#191970" d="M482.4459,-280.4315C493.5038,-259.7569 516.5941,-209.4364 505,-168 497.1543,-139.9599 492.237,-131.9197 471,-112 456.2849,-98.1977 436.6329,-87.4014 419.6331,-79.7473"/>
<polygon fill="#191970" stroke="#191970" points="420.5573,-76.3351 409.9877,-75.6047 417.7949,-82.767 420.5573,-76.3351"/>
</g>
<!-- Node43 -->
<g id="node25" class="node">
<title>Node43</title>
<g id="a_node25"><a xlink:href="xml_8h.html" target="_top" xlink:title="Classes providing support for XML data files. ">
<polygon fill="#ffffff" stroke="#000000" points="406,-224.5 406,-243.5 450,-243.5 450,-224.5 406,-224.5"/>
<text text-anchor="middle" x="428" y="-231.5" font-family="Helvetica,sans-Serif" font-size="10.00" fill="#000000">xml.h</text>
</a>
</g>
</g>
<!-- Node42&#45;&gt;Node43 -->
<g id="edge33" class="edge">
<title>Node42&#45;&gt;Node43</title>
<path fill="none" stroke="#191970" d="M468.4649,-280.2455C461.5088,-272.2958 451.5117,-260.8706 443.1949,-251.3656"/>
<polygon fill="#191970" stroke="#191970" points="445.6564,-248.8637 436.4373,-243.6427 440.3884,-253.4732 445.6564,-248.8637"/>
</g>
<!-- Node43&#45;&gt;Node25 -->
<g id="edge36" class="edge">
<title>Node43&#45;&gt;Node25</title>
<path fill="none" stroke="#191970" d="M405.655,-226.8918C402.4218,-225.8998 399.13,-224.9097 396,-224 354.2185,-211.8572 306.37,-199.0812 271.9329,-190.0834"/>
<polygon fill="#191970" stroke="#191970" points="272.705,-186.6678 262.1456,-187.5335 270.9401,-193.4416 272.705,-186.6678"/>
</g>
<!-- Node17 -->
<g id="node26" class="node">
<title>Node17</title>
<g id="a_node26"><a xlink:href="ctexceptions_8h.html" target="_top" xlink:title="Definitions for the classes that are thrown when Cantera experiences an error condition (also contain...">
<polygon fill="#ffffff" stroke="#ff0000" points="342,-168.5 342,-187.5 496,-187.5 496,-168.5 342,-168.5"/>
<text text-anchor="middle" x="419" y="-175.5" font-family="Helvetica,sans-Serif" font-size="10.00" fill="#000000">cantera/base/ctexceptions.h</text>
</a>
</g>
</g>
<!-- Node43&#45;&gt;Node17 -->
<g id="edge34" class="edge">
<title>Node43&#45;&gt;Node17</title>
<path fill="none" stroke="#191970" d="M426.4323,-224.2455C425.2579,-216.9382 423.6116,-206.6944 422.1668,-197.7046"/>
<polygon fill="#191970" stroke="#191970" points="425.5922,-196.9606 420.5497,-187.6427 418.6809,-198.0714 425.5922,-196.9606"/>
</g>
<!-- Node17&#45;&gt;Node18 -->
<g id="edge35" class="edge">
<title>Node17&#45;&gt;Node18</title>
<path fill="none" stroke="#191970" d="M417.0839,-168.2455C415.6486,-160.9382 413.6364,-150.6944 411.8705,-141.7046"/>
<polygon fill="#191970" stroke="#191970" points="415.256,-140.7805 409.8941,-131.6427 408.3873,-142.1298 415.256,-140.7805"/>
</g>
</g>
</svg>
