<?xml version="1.0" encoding="UTF-8" standalone="no"?>
<!DOCTYPE svg PUBLIC "-//W3C//DTD SVG 1.1//EN"
 "http://www.w3.org/Graphics/SVG/1.1/DTD/svg11.dtd">
<!-- Generated by graphviz version 2.40.1 (20161225.0304)
 -->
<!-- Title: PDSS_Water.h Pages: 1 -->
<svg width="902pt" height="82pt"
 viewBox="0.00 0.00 902.00 82.00" xmlns="http://www.w3.org/2000/svg" xmlns:xlink="http://www.w3.org/1999/xlink">
<g id="graph0" class="graph" transform="scale(1 1) rotate(0) translate(4 78)">
<title>PDSS_Water.h</title>
<polygon fill="#ffffff" stroke="transparent" points="-4,4 -4,-78 898.0029,-78 898.0029,4 -4,4"/>
<!-- Node14 -->
<g id="node1" class="node">
<title>Node14</title>
<polygon fill="#bfbfbf" stroke="#000000" points="381.7422,-55.5 381.7422,-73.5 464.6318,-73.5 464.6318,-55.5 381.7422,-55.5"/>
<text text-anchor="middle" x="423.187" y="-61.5" font-family="Helvetica,sans-Serif" font-size="10.00" fill="#000000">PDSS_Water.h</text>
</g>
<!-- Node15 -->
<g id="node2" class="node">
<title>Node15</title>
<g id="a_node2"><a xlink:href="DebyeHuckel_8cpp.html" target="_top" xlink:title="Declarations for the DebyeHuckel ThermoPhase object, which models dilute electrolyte solutions (see T...">
<polygon fill="#ffffff" stroke="#000000" points="0,-.5 0,-18.5 94.374,-18.5 94.374,-.5 0,-.5"/>
<text text-anchor="middle" x="47.187" y="-6.5" font-family="Helvetica,sans-Serif" font-size="10.00" fill="#000000">DebyeHuckel.cpp</text>
</a>
</g>
</g>
<!-- Node14&#45;&gt;Node15 -->
<g id="edge1" class="edge">
<title>Node14&#45;&gt;Node15</title>
<path fill="none" stroke="#191970" d="M371.5891,-57.5967C308.287,-49.0276 197.7246,-33.7371 103.187,-19 100.3614,-18.5595 97.4574,-18.0969 94.5289,-17.6229"/>
<polygon fill="#191970" stroke="#191970" points="371.3323,-61.0937 381.7109,-58.9641 372.2695,-54.1568 371.3323,-61.0937"/>
</g>
<!-- Node16 -->
<g id="node3" class="node">
<title>Node16</title>
<g id="a_node3"><a xlink:href="HMWSoln_8cpp.html" target="_top" xlink:title="Definitions for the HMWSoln ThermoPhase object, which models concentrated electrolyte solutions (see ...">
<polygon fill="#ffffff" stroke="#000000" points="112.2339,-.5 112.2339,-18.5 192.1401,-18.5 192.1401,-.5 112.2339,-.5"/>
<text text-anchor="middle" x="152.187" y="-6.5" font-family="Helvetica,sans-Serif" font-size="10.00" fill="#000000">HMWSoln.cpp</text>
</a>
</g>
</g>
<!-- Node14&#45;&gt;Node16 -->
<g id="edge2" class="edge">
<title>Node14&#45;&gt;Node16</title>
<path fill="none" stroke="#191970" d="M371.6853,-54.0476C319.5311,-43.4628 239.9591,-27.3135 192.3101,-17.6431"/>
<polygon fill="#191970" stroke="#191970" points="371.2366,-57.5278 381.7329,-56.0868 372.6289,-50.6677 371.2366,-57.5278"/>
</g>
<!-- Node17 -->
<g id="node4" class="node">
<title>Node17</title>
<g id="a_node4"><a xlink:href="PDSS__HKFT_8cpp.html" target="_top" xlink:title="Definitions for the class PDSS_HKFT (pressure dependent standard state) which handles calculations fo...">
<polygon fill="#ffffff" stroke="#000000" points="209.8398,-.5 209.8398,-18.5 302.5342,-18.5 302.5342,-.5 209.8398,-.5"/>
<text text-anchor="middle" x="256.187" y="-6.5" font-family="Helvetica,sans-Serif" font-size="10.00" fill="#000000">PDSS_HKFT.cpp</text>
</a>
</g>
</g>
<!-- Node14&#45;&gt;Node17 -->
<g id="edge3" class="edge">
<title>Node14&#45;&gt;Node17</title>
<path fill="none" stroke="#191970" d="M386.0079,-52.2554C354.9709,-42.0336 311.4435,-27.6983 283.5271,-18.5042"/>
<polygon fill="#191970" stroke="#191970" points="385.0173,-55.614 395.6104,-55.4179 387.2071,-48.9653 385.0173,-55.614"/>
</g>
<!-- Node18 -->
<g id="node5" class="node">
<title>Node18</title>
<g id="a_node5"><a xlink:href="PDSS__Water_8cpp.html" target="_top" xlink:title="PDSS_Water.cpp">
<polygon fill="#ffffff" stroke="#000000" points="320.4614,-.5 320.4614,-18.5 413.9126,-18.5 413.9126,-.5 320.4614,-.5"/>
<text text-anchor="middle" x="367.187" y="-6.5" font-family="Helvetica,sans-Serif" font-size="10.00" fill="#000000">PDSS_Water.cpp</text>
</a>
</g>
</g>
<!-- Node14&#45;&gt;Node18 -->
<g id="edge4" class="edge">
<title>Node14&#45;&gt;Node18</title>
<path fill="none" stroke="#191970" d="M406.6916,-48.2992C396.9004,-38.6828 384.8371,-26.8349 376.6352,-18.7795"/>
<polygon fill="#191970" stroke="#191970" points="404.3528,-50.9078 413.9398,-55.4179 409.2577,-45.9137 404.3528,-50.9078"/>
</g>
<!-- Node19 -->
<g id="node6" class="node">
<title>Node19</title>
<g id="a_node6"><a xlink:href="PDSSFactory_8cpp.html" target="_top" xlink:title="PDSSFactory.cpp">
<polygon fill="#ffffff" stroke="#000000" points="431.8193,-.5 431.8193,-18.5 526.5547,-18.5 526.5547,-.5 431.8193,-.5"/>
<text text-anchor="middle" x="479.187" y="-6.5" font-family="Helvetica,sans-Serif" font-size="10.00" fill="#000000">PDSSFactory.cpp</text>
</a>
</g>
</g>
<!-- Node14&#45;&gt;Node19 -->
<g id="edge5" class="edge">
<title>Node14&#45;&gt;Node19</title>
<path fill="none" stroke="#191970" d="M439.6824,-48.2992C449.4737,-38.6828 461.5369,-26.8349 469.7388,-18.7795"/>
<polygon fill="#191970" stroke="#191970" points="437.1163,-45.9137 432.4343,-55.4179 442.0213,-50.9078 437.1163,-45.9137"/>
</g>
<!-- Node20 -->
<g id="node7" class="node">
<title>Node20</title>
<g id="a_node7"><a xlink:href="VPStandardStateTP_8cpp.html" target="_top" xlink:title="Definition file for a derived class of ThermoPhase that handles variable pressure standard state meth...">
<polygon fill="#ffffff" stroke="#000000" points="544.354,-.5 544.354,-18.5 668.02,-18.5 668.02,-.5 544.354,-.5"/>
<text text-anchor="middle" x="606.187" y="-6.5" font-family="Helvetica,sans-Serif" font-size="10.00" fill="#000000">VPStandardStateTP.cpp</text>
</a>
</g>
</g>
<!-- Node14&#45;&gt;Node20 -->
<g id="edge6" class="edge">
<title>Node14&#45;&gt;Node20</title>
<path fill="none" stroke="#191970" d="M463.0479,-52.52C497.1115,-42.2822 545.3716,-27.7779 576.2275,-18.5042"/>
<polygon fill="#191970" stroke="#191970" points="461.9751,-49.1876 453.4057,-55.4179 463.99,-55.8914 461.9751,-49.1876"/>
</g>
<!-- Node21 -->
<g id="node8" class="node">
<title>Node21</title>
<g id="a_node8"><a xlink:href="WaterProps_8cpp.html" target="_top" xlink:title="WaterProps.cpp">
<polygon fill="#ffffff" stroke="#000000" points="685.5229,-.5 685.5229,-18.5 772.8511,-18.5 772.8511,-.5 685.5229,-.5"/>
<text text-anchor="middle" x="729.187" y="-6.5" font-family="Helvetica,sans-Serif" font-size="10.00" fill="#000000">WaterProps.cpp</text>
</a>
</g>
</g>
<!-- Node14&#45;&gt;Node21 -->
<g id="edge7" class="edge">
<title>Node14&#45;&gt;Node21</title>
<path fill="none" stroke="#191970" d="M474.8535,-55.2986C526.1829,-46.1445 607.1355,-31.6732 677.187,-19 679.8962,-18.5099 682.6845,-18.0042 685.4962,-17.4932"/>
<polygon fill="#191970" stroke="#191970" points="474.2249,-51.8553 464.9946,-57.0564 475.4537,-58.7467 474.2249,-51.8553"/>
</g>
<!-- Node22 -->
<g id="node9" class="node">
<title>Node22</title>
<g id="a_node9"><a xlink:href="WaterTransport_8cpp.html" target="_top" xlink:title="WaterTransport.cpp">
<polygon fill="#ffffff" stroke="#000000" points="790.3711,-.5 790.3711,-18.5 894.0029,-18.5 894.0029,-.5 790.3711,-.5"/>
<text text-anchor="middle" x="842.187" y="-6.5" font-family="Helvetica,sans-Serif" font-size="10.00" fill="#000000">WaterTransport.cpp</text>
</a>
</g>
</g>
<!-- Node14&#45;&gt;Node22 -->
<g id="edge8" class="edge">
<title>Node14&#45;&gt;Node22</title>
<path fill="none" stroke="#191970" d="M474.987,-58.4453C544.8307,-50.1648 673.0374,-34.5541 782.187,-19 784.7972,-18.628 787.4699,-18.2381 790.1678,-17.8373"/>
<polygon fill="#191970" stroke="#191970" points="474.2224,-55.0112 464.7027,-59.6615 475.0446,-61.9628 474.2224,-55.0112"/>
</g>
</g>
</svg>
