<?xml version="1.0" encoding="UTF-8" standalone="no"?>
<!DOCTYPE svg PUBLIC "-//W3C//DTD SVG 1.1//EN"
 "http://www.w3.org/Graphics/SVG/1.1/DTD/svg11.dtd">
<!-- Generated by graphviz version 2.40.1 (20161225.0304)
 -->
<!-- Title: PDSSFactory.cpp Pages: 1 -->
<svg width="909pt" height="498pt"
 viewBox="0.00 0.00 909.00 498.00" xmlns="http://www.w3.org/2000/svg" xmlns:xlink="http://www.w3.org/1999/xlink">
<g id="graph0" class="graph" transform="scale(1 1) rotate(0) translate(4 494)">
<title>PDSSFactory.cpp</title>
<polygon fill="#ffffff" stroke="transparent" points="-4,4 -4,-494 905,-494 905,4 -4,4"/>
<!-- Node0 -->
<g id="node1" class="node">
<title>Node0</title>
<polygon fill="#bfbfbf" stroke="#000000" points="529,-470.5 529,-489.5 625,-489.5 625,-470.5 529,-470.5"/>
<text text-anchor="middle" x="577" y="-477.5" font-family="Helvetica,sans-Serif" font-size="10.00" fill="#000000">PDSSFactory.cpp</text>
</g>
<!-- Node1 -->
<g id="node2" class="node">
<title>Node1</title>
<g id="a_node2"><a xlink:href="PDSSFactory_8h.html" target="_top" xlink:title="cantera/thermo/PDSSFactory.h">
<polygon fill="#ffffff" stroke="#000000" points="159.5,-409 159.5,-428 322.5,-428 322.5,-409 159.5,-409"/>
<text text-anchor="middle" x="241" y="-416" font-family="Helvetica,sans-Serif" font-size="10.00" fill="#000000">cantera/thermo/PDSSFactory.h</text>
</a>
</g>
</g>
<!-- Node0&#45;&gt;Node1 -->
<g id="edge1" class="edge">
<title>Node0&#45;&gt;Node1</title>
<path fill="none" stroke="#191970" d="M528.8594,-471.1885C469.4351,-460.3118 368.2639,-441.7938 303.0599,-429.8592"/>
<polygon fill="#191970" stroke="#191970" points="303.3825,-426.3602 292.9158,-428.0024 302.1222,-433.2458 303.3825,-426.3602"/>
</g>
<!-- Node36 -->
<g id="node25" class="node">
<title>Node36</title>
<g id="a_node25"><a xlink:href="PDSS__IdealGas_8h.html" target="_top" xlink:title="Declarations for the class PDSS_IdealGas (pressure dependent standard state) which handles calculatio...">
<polygon fill="#ffffff" stroke="#000000" points="391,-336.5 391,-366.5 511,-366.5 511,-336.5 391,-336.5"/>
<text text-anchor="start" x="399" y="-354.5" font-family="Helvetica,sans-Serif" font-size="10.00" fill="#000000">cantera/thermo/PDSS</text>
<text text-anchor="middle" x="451" y="-343.5" font-family="Helvetica,sans-Serif" font-size="10.00" fill="#000000">_IdealGas.h</text>
</a>
</g>
</g>
<!-- Node0&#45;&gt;Node36 -->
<g id="edge31" class="edge">
<title>Node0&#45;&gt;Node36</title>
<path fill="none" stroke="#191970" d="M528.758,-476.1294C473.9396,-470.6126 389.5227,-458.3373 370,-434 351.6967,-411.1829 380.4797,-387.6092 408.6721,-371.5341"/>
<polygon fill="#191970" stroke="#191970" points="410.6392,-374.4482 417.7444,-366.5889 407.2889,-368.302 410.6392,-374.4482"/>
</g>
<!-- Node37 -->
<g id="node26" class="node">
<title>Node37</title>
<g id="a_node26"><a xlink:href="PDSS__Water_8h.html" target="_top" xlink:title="Implementation of a pressure dependent standard state virtual function for a Pure Water Phase (see Sp...">
<polygon fill="#ffffff" stroke="#000000" points="781,-336.5 781,-366.5 901,-366.5 901,-336.5 781,-336.5"/>
<text text-anchor="start" x="789" y="-354.5" font-family="Helvetica,sans-Serif" font-size="10.00" fill="#000000">cantera/thermo/PDSS</text>
<text text-anchor="middle" x="841" y="-343.5" font-family="Helvetica,sans-Serif" font-size="10.00" fill="#000000">_Water.h</text>
</a>
</g>
</g>
<!-- Node0&#45;&gt;Node37 -->
<g id="edge33" class="edge">
<title>Node0&#45;&gt;Node37</title>
<path fill="none" stroke="#191970" d="M625.2369,-477.0992C688.4285,-472.2941 794.4489,-460.4504 822,-434 837.2445,-419.3645 841.3585,-395.1447 842.0359,-376.7232"/>
<polygon fill="#191970" stroke="#191970" points="845.5361,-376.6839 842.0958,-366.6632 838.5362,-376.6422 845.5361,-376.6839"/>
</g>
<!-- Node41 -->
<g id="node30" class="node">
<title>Node41</title>
<g id="a_node30"><a xlink:href="PDSS__ConstVol_8h.html" target="_top" xlink:title="Declarations for the class PDSS_ConstVol (pressure dependent standard state) which handles calculatio...">
<polygon fill="#ffffff" stroke="#000000" points="379,-403.5 379,-433.5 499,-433.5 499,-403.5 379,-403.5"/>
<text text-anchor="start" x="387" y="-421.5" font-family="Helvetica,sans-Serif" font-size="10.00" fill="#000000">cantera/thermo/PDSS</text>
<text text-anchor="middle" x="439" y="-410.5" font-family="Helvetica,sans-Serif" font-size="10.00" fill="#000000">_ConstVol.h</text>
</a>
</g>
</g>
<!-- Node0&#45;&gt;Node41 -->
<g id="edge40" class="edge">
<title>Node0&#45;&gt;Node41</title>
<path fill="none" stroke="#191970" d="M555.4375,-470.3906C535.8962,-461.682 506.5163,-448.5888 482.1584,-437.7336"/>
<polygon fill="#191970" stroke="#191970" points="483.3174,-434.4183 472.7586,-433.5446 480.4679,-440.8122 483.3174,-434.4183"/>
</g>
<!-- Node42 -->
<g id="node31" class="node">
<title>Node42</title>
<g id="a_node31"><a xlink:href="PDSS__SSVol_8h.html" target="_top" xlink:title="Declarations for the class PDSS_SSVol (pressure dependent standard state) which handles calculations ...">
<polygon fill="#ffffff" stroke="#000000" points="517,-403.5 517,-433.5 637,-433.5 637,-403.5 517,-403.5"/>
<text text-anchor="start" x="525" y="-421.5" font-family="Helvetica,sans-Serif" font-size="10.00" fill="#000000">cantera/thermo/PDSS</text>
<text text-anchor="middle" x="577" y="-410.5" font-family="Helvetica,sans-Serif" font-size="10.00" fill="#000000">_SSVol.h</text>
</a>
</g>
</g>
<!-- Node0&#45;&gt;Node42 -->
<g id="edge42" class="edge">
<title>Node0&#45;&gt;Node42</title>
<path fill="none" stroke="#191970" d="M577,-470.3906C577,-463.2234 577,-453.0862 577,-443.671"/>
<polygon fill="#191970" stroke="#191970" points="580.5001,-443.5446 577,-433.5446 573.5001,-443.5446 580.5001,-443.5446"/>
</g>
<!-- Node43 -->
<g id="node32" class="node">
<title>Node43</title>
<g id="a_node32"><a xlink:href="PDSS__HKFT_8h.html" target="_top" xlink:title="Declarations for the class PDSS_HKFT (pressure dependent standard state) which handles calculations f...">
<polygon fill="#ffffff" stroke="#000000" points="605,-336.5 605,-366.5 725,-366.5 725,-336.5 605,-336.5"/>
<text text-anchor="start" x="613" y="-354.5" font-family="Helvetica,sans-Serif" font-size="10.00" fill="#000000">cantera/thermo/PDSS</text>
<text text-anchor="middle" x="665" y="-343.5" font-family="Helvetica,sans-Serif" font-size="10.00" fill="#000000">_HKFT.h</text>
</a>
</g>
</g>
<!-- Node0&#45;&gt;Node43 -->
<g id="edge44" class="edge">
<title>Node0&#45;&gt;Node43</title>
<path fill="none" stroke="#191970" d="M599.6056,-470.4396C614.9812,-462.7859 634.5431,-450.5833 646,-434 657.6923,-417.0761 662.279,-393.9996 664.0347,-376.5557"/>
<polygon fill="#191970" stroke="#191970" points="667.5288,-376.7651 664.8003,-366.5276 660.5492,-376.2322 667.5288,-376.7651"/>
</g>
<!-- Node44 -->
<g id="node33" class="node">
<title>Node44</title>
<g id="a_node33"><a xlink:href="PDSS__IonsFromNeutral_8h.html" target="_top" xlink:title="Declarations for the class PDSS_IonsFromNeutral ( which handles calculations for a single ion in a fl...">
<polygon fill="#ffffff" stroke="#000000" points="693,-403.5 693,-433.5 813,-433.5 813,-403.5 693,-403.5"/>
<text text-anchor="start" x="701" y="-421.5" font-family="Helvetica,sans-Serif" font-size="10.00" fill="#000000">cantera/thermo/PDSS</text>
<text text-anchor="middle" x="753" y="-410.5" font-family="Helvetica,sans-Serif" font-size="10.00" fill="#000000">_IonsFromNeutral.h</text>
</a>
</g>
</g>
<!-- Node0&#45;&gt;Node44 -->
<g id="edge47" class="edge">
<title>Node0&#45;&gt;Node44</title>
<path fill="none" stroke="#191970" d="M604.5,-470.3906C630.0839,-461.4508 668.8906,-447.8905 700.4177,-436.8739"/>
<polygon fill="#191970" stroke="#191970" points="701.6599,-440.1475 709.9456,-433.5446 699.3507,-433.5393 701.6599,-440.1475"/>
</g>
<!-- Node2 -->
<g id="node3" class="node">
<title>Node2</title>
<g id="a_node3"><a xlink:href="PDSS_8h.html" target="_top" xlink:title="Declarations for the virtual base class PDSS (pressure dependent standard state) which handles calcul...">
<polygon fill="#ffffff" stroke="#000000" points="551.5,-280.5 551.5,-299.5 602.5,-299.5 602.5,-280.5 551.5,-280.5"/>
<text text-anchor="middle" x="577" y="-287.5" font-family="Helvetica,sans-Serif" font-size="10.00" fill="#000000">PDSS.h</text>
</a>
</g>
</g>
<!-- Node1&#45;&gt;Node2 -->
<g id="edge2" class="edge">
<title>Node1&#45;&gt;Node2</title>
<path fill="none" stroke="#191970" d="M261.3552,-408.849C281.5039,-399.0549 313.0148,-383.0837 339,-367 359.0329,-354.6005 360.5669,-345.7817 382,-336 434.5767,-312.0049 501.0479,-299.7798 541.23,-294.1543"/>
<polygon fill="#191970" stroke="#191970" points="541.8965,-297.5964 551.3437,-292.8006 540.9678,-290.6582 541.8965,-297.5964"/>
</g>
<!-- Node12 -->
<g id="node13" class="node">
<title>Node12</title>
<g id="a_node13"><a xlink:href="FactoryBase_8h.html" target="_top" xlink:title="File contains the FactoryBase class declarations. ">
<polygon fill="#ffffff" stroke="#000000" points="303.5,-224.5 303.5,-243.5 454.5,-243.5 454.5,-224.5 303.5,-224.5"/>
<text text-anchor="middle" x="379" y="-231.5" font-family="Helvetica,sans-Serif" font-size="10.00" fill="#000000">cantera/base/FactoryBase.h</text>
</a>
</g>
</g>
<!-- Node1&#45;&gt;Node12 -->
<g id="edge12" class="edge">
<title>Node1&#45;&gt;Node12</title>
<path fill="none" stroke="#191970" d="M256.1028,-408.8509C270.0306,-399.4128 290.6592,-384.0097 305,-367 335.3731,-330.9742 359.3387,-280.6018 371.0854,-253.3515"/>
<polygon fill="#191970" stroke="#191970" points="374.4482,-254.3841 375.1038,-243.8096 367.9969,-251.6673 374.4482,-254.3841"/>
</g>
<!-- Node22 -->
<g id="node21" class="node">
<title>Node22</title>
<g id="a_node21"><a xlink:href="VPStandardStateTP_8h.html" target="_top" xlink:title="Header file for a derived class of ThermoPhase that handles variable pressure standard state methods ...">
<polygon fill="#ffffff" stroke="#000000" points="145.5,-336.5 145.5,-366.5 296.5,-366.5 296.5,-336.5 145.5,-336.5"/>
<text text-anchor="start" x="153.5" y="-354.5" font-family="Helvetica,sans-Serif" font-size="10.00" fill="#000000">cantera/thermo/VPStandard</text>
<text text-anchor="middle" x="221" y="-343.5" font-family="Helvetica,sans-Serif" font-size="10.00" fill="#000000">StateTP.h</text>
</a>
</g>
</g>
<!-- Node1&#45;&gt;Node22 -->
<g id="edge24" class="edge">
<title>Node1&#45;&gt;Node22</title>
<path fill="none" stroke="#191970" d="M238.1345,-408.9005C235.604,-400.4234 231.8017,-387.6856 228.4213,-376.3614"/>
<polygon fill="#191970" stroke="#191970" points="231.6983,-375.1028 225.4841,-366.5218 224.9908,-377.1051 231.6983,-375.1028"/>
</g>
<!-- Node3 -->
<g id="node4" class="node">
<title>Node3</title>
<g id="a_node4"><a xlink:href="ct__defs_8h.html" target="_top" xlink:title="This file contains definitions of terms that are used in internal routines and are unlikely to need m...">
<polygon fill="#ffffff" stroke="#000000" points="180.5,-56.5 180.5,-75.5 307.5,-75.5 307.5,-56.5 180.5,-56.5"/>
<text text-anchor="middle" x="244" y="-63.5" font-family="Helvetica,sans-Serif" font-size="10.00" fill="#000000">cantera/base/ct_defs.h</text>
</a>
</g>
</g>
<!-- Node2&#45;&gt;Node3 -->
<g id="edge3" class="edge">
<title>Node2&#45;&gt;Node3</title>
<path fill="none" stroke="#191970" d="M585.769,-280.4795C604.8568,-258.5804 646.3421,-203.7725 619,-168 582.6438,-120.4341 416.4766,-89.798 317.9508,-75.4782"/>
<polygon fill="#191970" stroke="#191970" points="318.1484,-71.9709 307.7535,-74.0192 317.1569,-78.9004 318.1484,-71.9709"/>
</g>
<!-- Node4 -->
<g id="node5" class="node">
<title>Node4</title>
<g id="a_node5"><a xlink:href="config_8h_source.html" target="_top" xlink:title="config.h">
<polygon fill="#ffffff" stroke="#000000" points="542.5,-.5 542.5,-19.5 597.5,-19.5 597.5,-.5 542.5,-.5"/>
<text text-anchor="middle" x="570" y="-7.5" font-family="Helvetica,sans-Serif" font-size="10.00" fill="#000000">config.h</text>
</a>
</g>
</g>
<!-- Node3&#45;&gt;Node4 -->
<g id="edge4" class="edge">
<title>Node3&#45;&gt;Node4</title>
<path fill="none" stroke="#191970" d="M299.671,-56.4369C365.925,-45.0558 474.7666,-26.3591 532.0411,-16.5205"/>
<polygon fill="#191970" stroke="#191970" points="532.8505,-19.9329 542.1135,-14.7903 531.6653,-13.0339 532.8505,-19.9329"/>
</g>
<!-- Node5 -->
<g id="node6" class="node">
<title>Node5</title>
<polygon fill="#ffffff" stroke="#bfbfbf" points="220.5,-.5 220.5,-19.5 267.5,-19.5 267.5,-.5 220.5,-.5"/>
<text text-anchor="middle" x="244" y="-7.5" font-family="Helvetica,sans-Serif" font-size="10.00" fill="#000000">cmath</text>
</g>
<!-- Node3&#45;&gt;Node5 -->
<g id="edge5" class="edge">
<title>Node3&#45;&gt;Node5</title>
<path fill="none" stroke="#191970" d="M244,-56.2455C244,-48.9382 244,-38.6944 244,-29.7046"/>
<polygon fill="#191970" stroke="#191970" points="247.5001,-29.6426 244,-19.6427 240.5001,-29.6427 247.5001,-29.6426"/>
</g>
<!-- Node6 -->
<g id="node7" class="node">
<title>Node6</title>
<polygon fill="#ffffff" stroke="#bfbfbf" points="285.5,-.5 285.5,-19.5 334.5,-19.5 334.5,-.5 285.5,-.5"/>
<text text-anchor="middle" x="310" y="-7.5" font-family="Helvetica,sans-Serif" font-size="10.00" fill="#000000">cstdlib</text>
</g>
<!-- Node3&#45;&gt;Node6 -->
<g id="edge6" class="edge">
<title>Node3&#45;&gt;Node6</title>
<path fill="none" stroke="#191970" d="M255.4963,-56.2455C265.2442,-47.9746 279.4259,-35.9416 290.8798,-26.2232"/>
<polygon fill="#191970" stroke="#191970" points="293.2747,-28.7813 298.6354,-19.6427 288.7459,-23.4437 293.2747,-28.7813"/>
</g>
<!-- Node7 -->
<g id="node8" class="node">
<title>Node7</title>
<polygon fill="#ffffff" stroke="#bfbfbf" points="409.5,-.5 409.5,-19.5 456.5,-19.5 456.5,-.5 409.5,-.5"/>
<text text-anchor="middle" x="433" y="-7.5" font-family="Helvetica,sans-Serif" font-size="10.00" fill="#000000">vector</text>
</g>
<!-- Node3&#45;&gt;Node7 -->
<g id="edge7" class="edge">
<title>Node3&#45;&gt;Node7</title>
<path fill="none" stroke="#191970" d="M276.5885,-56.4677C306.1897,-47.7921 351.3066,-34.5269 399.5308,-20.1256"/>
<polygon fill="#191970" stroke="#191970" points="400.6347,-23.4488 409.2134,-17.2313 398.6298,-16.742 400.6347,-23.4488"/>
</g>
<!-- Node8 -->
<g id="node9" class="node">
<title>Node8</title>
<polygon fill="#ffffff" stroke="#bfbfbf" points="353,-.5 353,-19.5 391,-19.5 391,-.5 353,-.5"/>
<text text-anchor="middle" x="372" y="-7.5" font-family="Helvetica,sans-Serif" font-size="10.00" fill="#000000">map</text>
</g>
<!-- Node3&#45;&gt;Node8 -->
<g id="edge8" class="edge">
<title>Node3&#45;&gt;Node8</title>
<path fill="none" stroke="#191970" d="M266.004,-56.3733C287.394,-47.0151 319.9894,-32.7547 343.3846,-22.5192"/>
<polygon fill="#191970" stroke="#191970" points="345.0297,-25.6199 352.7884,-18.4051 342.224,-19.2068 345.0297,-25.6199"/>
</g>
<!-- Node9 -->
<g id="node10" class="node">
<title>Node9</title>
<polygon fill="#ffffff" stroke="#bfbfbf" points="0,-.5 0,-19.5 44,-19.5 44,-.5 0,-.5"/>
<text text-anchor="middle" x="22" y="-7.5" font-family="Helvetica,sans-Serif" font-size="10.00" fill="#000000">string</text>
</g>
<!-- Node3&#45;&gt;Node9 -->
<g id="edge9" class="edge">
<title>Node3&#45;&gt;Node9</title>
<path fill="none" stroke="#191970" d="M200.1375,-56.4291C163.3919,-48.1885 109.3787,-35.5597 53.9253,-20.1204"/>
<polygon fill="#191970" stroke="#191970" points="54.8637,-16.7487 44.2898,-17.413 52.9701,-23.4877 54.8637,-16.7487"/>
</g>
<!-- Node10 -->
<g id="node11" class="node">
<title>Node10</title>
<polygon fill="#ffffff" stroke="#bfbfbf" points="62,-.5 62,-19.5 126,-19.5 126,-.5 62,-.5"/>
<text text-anchor="middle" x="94" y="-7.5" font-family="Helvetica,sans-Serif" font-size="10.00" fill="#000000">algorithm</text>
</g>
<!-- Node3&#45;&gt;Node10 -->
<g id="edge10" class="edge">
<title>Node3&#45;&gt;Node10</title>
<path fill="none" stroke="#191970" d="M218.2141,-56.3733C193.5953,-47.1822 156.31,-33.2624 129.0125,-23.0713"/>
<polygon fill="#191970" stroke="#191970" points="130.042,-19.7198 119.4494,-19.5011 127.5937,-26.2777 130.042,-19.7198"/>
</g>
<!-- Node11 -->
<g id="node12" class="node">
<title>Node11</title>
<polygon fill="#ffffff" stroke="#bfbfbf" points="144,-.5 144,-19.5 202,-19.5 202,-.5 144,-.5"/>
<text text-anchor="middle" x="173" y="-7.5" font-family="Helvetica,sans-Serif" font-size="10.00" fill="#000000">memory</text>
</g>
<!-- Node3&#45;&gt;Node11 -->
<g id="edge11" class="edge">
<title>Node3&#45;&gt;Node11</title>
<path fill="none" stroke="#191970" d="M231.6327,-56.2455C221.0446,-47.8943 205.5936,-35.7076 193.2107,-25.9408"/>
<polygon fill="#191970" stroke="#191970" points="195.2447,-23.0875 185.2255,-19.6427 190.9097,-28.5837 195.2447,-23.0875"/>
</g>
<!-- Node12&#45;&gt;Node7 -->
<g id="edge13" class="edge">
<title>Node12&#45;&gt;Node7</title>
<path fill="none" stroke="#191970" d="M385.2912,-224.1744C390.7965,-215.1256 398.5847,-201.1504 403,-188 421.6487,-132.4574 429.0593,-63.106 431.7,-29.738"/>
<polygon fill="#191970" stroke="#191970" points="435.2087,-29.7459 432.4458,-19.5176 428.2272,-29.2364 435.2087,-29.7459"/>
</g>
<!-- Node13 -->
<g id="node14" class="node">
<title>Node13</title>
<polygon fill="#ffffff" stroke="#bfbfbf" points="450,-168.5 450,-187.5 498,-187.5 498,-168.5 450,-168.5"/>
<text text-anchor="middle" x="474" y="-175.5" font-family="Helvetica,sans-Serif" font-size="10.00" fill="#000000">mutex</text>
</g>
<!-- Node12&#45;&gt;Node13 -->
<g id="edge14" class="edge">
<title>Node12&#45;&gt;Node13</title>
<path fill="none" stroke="#191970" d="M395.5477,-224.2455C410.2599,-215.5731 431.9888,-202.7645 448.8505,-192.825"/>
<polygon fill="#191970" stroke="#191970" points="450.8046,-195.736 457.6419,-187.6427 447.2498,-189.7057 450.8046,-195.736"/>
</g>
<!-- Node14 -->
<g id="node15" class="node">
<title>Node14</title>
<polygon fill="#ffffff" stroke="#bfbfbf" points="516.5,-168.5 516.5,-187.5 609.5,-187.5 609.5,-168.5 516.5,-168.5"/>
<text text-anchor="middle" x="563" y="-175.5" font-family="Helvetica,sans-Serif" font-size="10.00" fill="#000000">unordered_map</text>
</g>
<!-- Node12&#45;&gt;Node14 -->
<g id="edge15" class="edge">
<title>Node12&#45;&gt;Node14</title>
<path fill="none" stroke="#191970" d="M410.6307,-224.3733C441.3596,-215.021 488.176,-200.7725 521.8022,-190.5385"/>
<polygon fill="#191970" stroke="#191970" points="523.2344,-193.7612 531.782,-187.5011 521.1962,-187.0644 523.2344,-193.7612"/>
</g>
<!-- Node15 -->
<g id="node16" class="node">
<title>Node15</title>
<polygon fill="#ffffff" stroke="#bfbfbf" points="328.5,-168.5 328.5,-187.5 393.5,-187.5 393.5,-168.5 328.5,-168.5"/>
<text text-anchor="middle" x="361" y="-175.5" font-family="Helvetica,sans-Serif" font-size="10.00" fill="#000000">functional</text>
</g>
<!-- Node12&#45;&gt;Node15 -->
<g id="edge16" class="edge">
<title>Node12&#45;&gt;Node15</title>
<path fill="none" stroke="#191970" d="M375.8646,-224.2455C373.49,-216.8579 370.1507,-206.4689 367.2385,-197.4087"/>
<polygon fill="#191970" stroke="#191970" points="370.4917,-196.0919 364.0994,-187.6427 363.8275,-198.234 370.4917,-196.0919"/>
</g>
<!-- Node16 -->
<g id="node17" class="node">
<title>Node16</title>
<g id="a_node17"><a xlink:href="ctexceptions_8h.html" target="_top" xlink:title="Definitions for the classes that are thrown when Cantera experiences an error condition (also contain...">
<polygon fill="#ffffff" stroke="#000000" points="156,-168.5 156,-187.5 310,-187.5 310,-168.5 156,-168.5"/>
<text text-anchor="middle" x="233" y="-175.5" font-family="Helvetica,sans-Serif" font-size="10.00" fill="#000000">cantera/base/ctexceptions.h</text>
</a>
</g>
</g>
<!-- Node12&#45;&gt;Node16 -->
<g id="edge17" class="edge">
<title>Node12&#45;&gt;Node16</title>
<path fill="none" stroke="#191970" d="M353.9017,-224.3733C330.0445,-215.2226 293.9665,-201.3844 267.429,-191.2057"/>
<polygon fill="#191970" stroke="#191970" points="268.361,-187.8145 257.7708,-187.5011 265.8541,-194.3503 268.361,-187.8145"/>
</g>
<!-- Node21 -->
<g id="node20" class="node">
<title>Node21</title>
<g id="a_node20"><a xlink:href="global_8h.html" target="_top" xlink:title="This file contains definitions for utility functions and text for modules, inputfiles, logs, textlogs, (see Input File Handling, Diagnostic Output, and Writing messages to the screen). ">
<polygon fill="#ffffff" stroke="#000000" points="16,-168.5 16,-187.5 138,-187.5 138,-168.5 16,-168.5"/>
<text text-anchor="middle" x="77" y="-175.5" font-family="Helvetica,sans-Serif" font-size="10.00" fill="#000000">cantera/base/global.h</text>
</a>
</g>
</g>
<!-- Node12&#45;&gt;Node21 -->
<g id="edge21" class="edge">
<title>Node12&#45;&gt;Node21</title>
<path fill="none" stroke="#191970" d="M327.4275,-224.4369C275.091,-214.7321 194.068,-199.708 138.4388,-189.3926"/>
<polygon fill="#191970" stroke="#191970" points="138.8303,-185.9056 128.3598,-187.5237 137.554,-192.7883 138.8303,-185.9056"/>
</g>
<!-- Node17 -->
<g id="node18" class="node">
<title>Node17</title>
<g id="a_node18"><a xlink:href="fmt_8h.html" target="_top" xlink:title="Wrapper for either system&#45;installed or local headers for fmt. ">
<polygon fill="#ffffff" stroke="#ff0000" points="178.5,-112.5 178.5,-131.5 287.5,-131.5 287.5,-112.5 178.5,-112.5"/>
<text text-anchor="middle" x="233" y="-119.5" font-family="Helvetica,sans-Serif" font-size="10.00" fill="#000000">cantera/base/fmt.h</text>
</a>
</g>
</g>
<!-- Node16&#45;&gt;Node17 -->
<g id="edge18" class="edge">
<title>Node16&#45;&gt;Node17</title>
<path fill="none" stroke="#191970" d="M233,-168.2455C233,-160.9382 233,-150.6944 233,-141.7046"/>
<polygon fill="#191970" stroke="#191970" points="236.5001,-141.6426 233,-131.6427 229.5001,-141.6427 236.5001,-141.6426"/>
</g>
<!-- Node20 -->
<g id="node19" class="node">
<title>Node20</title>
<polygon fill="#ffffff" stroke="#bfbfbf" points="305.5,-112.5 305.5,-131.5 370.5,-131.5 370.5,-112.5 305.5,-112.5"/>
<text text-anchor="middle" x="338" y="-119.5" font-family="Helvetica,sans-Serif" font-size="10.00" fill="#000000">exception</text>
</g>
<!-- Node16&#45;&gt;Node20 -->
<g id="edge20" class="edge">
<title>Node16&#45;&gt;Node20</title>
<path fill="none" stroke="#191970" d="M251.2896,-168.2455C267.7762,-159.4527 292.2352,-146.4079 310.9765,-136.4125"/>
<polygon fill="#191970" stroke="#191970" points="312.7435,-139.4368 319.92,-131.6427 309.4494,-133.2604 312.7435,-139.4368"/>
</g>
<!-- Node17&#45;&gt;Node3 -->
<g id="edge19" class="edge">
<title>Node17&#45;&gt;Node3</title>
<path fill="none" stroke="#191970" d="M234.9161,-112.2455C236.3514,-104.9382 238.3636,-94.6944 240.1295,-85.7046"/>
<polygon fill="#191970" stroke="#191970" points="243.6127,-86.1298 242.1059,-75.6427 236.744,-84.7805 243.6127,-86.1298"/>
</g>
<!-- Node21&#45;&gt;Node3 -->
<g id="edge22" class="edge">
<title>Node21&#45;&gt;Node3</title>
<path fill="none" stroke="#191970" d="M89.8945,-168.2998C107.5031,-155.1577 140.1799,-131.1398 169,-112 185.2832,-101.1861 204.0281,-89.689 218.7047,-80.894"/>
<polygon fill="#191970" stroke="#191970" points="220.8947,-83.6634 227.695,-75.5389 217.3125,-77.6494 220.8947,-83.6634"/>
</g>
<!-- Node21&#45;&gt;Node17 -->
<g id="edge23" class="edge">
<title>Node21&#45;&gt;Node17</title>
<path fill="none" stroke="#191970" d="M103.8174,-168.3733C129.5332,-159.1419 168.538,-145.1402 196.9599,-134.9375"/>
<polygon fill="#191970" stroke="#191970" points="198.3032,-138.174 206.5326,-131.5011 195.9381,-131.5857 198.3032,-138.174"/>
</g>
<!-- Node22&#45;&gt;Node2 -->
<g id="edge30" class="edge">
<title>Node22&#45;&gt;Node2</title>
<path fill="none" stroke="#191970" d="M296.9343,-338.3821C372.2925,-325.3638 484.5142,-305.9772 541.3109,-296.1654"/>
<polygon fill="#191970" stroke="#191970" points="541.9915,-299.5998 551.2497,-294.4484 540.7998,-292.7019 541.9915,-299.5998"/>
</g>
<!-- Node23 -->
<g id="node22" class="node">
<title>Node23</title>
<g id="a_node22"><a xlink:href="ThermoPhase_8h.html" target="_top" xlink:title="Header file for class ThermoPhase, the base class for phases with thermodynamic properties, and the text for the Module thermoprops (see Thermodynamic Properties and class ThermoPhase). ">
<polygon fill="#ffffff" stroke="#000000" points="145,-280.5 145,-299.5 237,-299.5 237,-280.5 145,-280.5"/>
<text text-anchor="middle" x="191" y="-287.5" font-family="Helvetica,sans-Serif" font-size="10.00" fill="#000000">ThermoPhase.h</text>
</a>
</g>
</g>
<!-- Node22&#45;&gt;Node23 -->
<g id="edge25" class="edge">
<title>Node22&#45;&gt;Node23</title>
<path fill="none" stroke="#191970" d="M213.5843,-336.2977C209.5501,-328.0277 204.5227,-317.7215 200.236,-308.9339"/>
<polygon fill="#191970" stroke="#191970" points="203.3334,-307.3001 195.8034,-299.8469 197.042,-310.3691 203.3334,-307.3001"/>
</g>
<!-- Node23&#45;&gt;Node21 -->
<g id="edge29" class="edge">
<title>Node23&#45;&gt;Node21</title>
<path fill="none" stroke="#191970" d="M144.8284,-283.5052C120.6717,-277.5194 93.0623,-266.0318 78,-244 68.9161,-230.7129 69.4989,-212.1389 71.8755,-198.0788"/>
<polygon fill="#191970" stroke="#191970" points="75.3711,-198.4656 74.0157,-187.9578 68.5225,-197.0173 75.3711,-198.4656"/>
</g>
<!-- Node24 -->
<g id="node23" class="node">
<title>Node24</title>
<g id="a_node23"><a xlink:href="Phase_8h.html" target="_top" xlink:title="Header file for class Phase. ">
<polygon fill="#ffffff" stroke="#ff0000" points="230.5,-224.5 230.5,-243.5 285.5,-243.5 285.5,-224.5 230.5,-224.5"/>
<text text-anchor="middle" x="258" y="-231.5" font-family="Helvetica,sans-Serif" font-size="10.00" fill="#000000">Phase.h</text>
</a>
</g>
</g>
<!-- Node23&#45;&gt;Node24 -->
<g id="edge26" class="edge">
<title>Node23&#45;&gt;Node24</title>
<path fill="none" stroke="#191970" d="M202.6705,-280.2455C212.5661,-271.9746 226.9627,-259.9416 238.5901,-250.2232"/>
<polygon fill="#191970" stroke="#191970" points="241.035,-252.7413 246.4632,-243.6427 236.5458,-247.3703 241.035,-252.7413"/>
</g>
<!-- Node33 -->
<g id="node24" class="node">
<title>Node33</title>
<g id="a_node24"><a xlink:href="MultiSpeciesThermo_8h.html" target="_top" xlink:title="Header for a general species thermodynamic property manager for a phase (see MultiSpeciesThermo). ">
<polygon fill="#ffffff" stroke="#ff0000" points="87.5,-224.5 87.5,-243.5 212.5,-243.5 212.5,-224.5 87.5,-224.5"/>
<text text-anchor="middle" x="150" y="-231.5" font-family="Helvetica,sans-Serif" font-size="10.00" fill="#000000">MultiSpeciesThermo.h</text>
</a>
</g>
</g>
<!-- Node23&#45;&gt;Node33 -->
<g id="edge28" class="edge">
<title>Node23&#45;&gt;Node33</title>
<path fill="none" stroke="#191970" d="M183.8583,-280.2455C178.1556,-272.4564 170.01,-261.3308 163.1375,-251.9439"/>
<polygon fill="#191970" stroke="#191970" points="165.7913,-249.6437 157.0598,-243.6427 160.1432,-253.7789 165.7913,-249.6437"/>
</g>
<!-- Node24&#45;&gt;Node16 -->
<g id="edge27" class="edge">
<title>Node24&#45;&gt;Node16</title>
<path fill="none" stroke="#191970" d="M253.6453,-224.2455C250.2756,-216.6973 245.507,-206.0158 241.4017,-196.8197"/>
<polygon fill="#191970" stroke="#191970" points="244.5773,-195.3473 237.3048,-187.6427 238.1853,-198.2009 244.5773,-195.3473"/>
</g>
<!-- Node36&#45;&gt;Node2 -->
<g id="edge32" class="edge">
<title>Node36&#45;&gt;Node2</title>
<path fill="none" stroke="#191970" d="M481.8231,-336.4554C502.1088,-326.554 528.4788,-313.683 548.3162,-304.0004"/>
<polygon fill="#191970" stroke="#191970" points="550.023,-307.062 557.4745,-299.5303 546.9526,-300.7714 550.023,-307.062"/>
</g>
<!-- Node37&#45;&gt;Node2 -->
<g id="edge34" class="edge">
<title>Node37&#45;&gt;Node2</title>
<path fill="none" stroke="#191970" d="M780.764,-337.4677C728.7767,-325.3571 655.4523,-308.2758 612.4069,-298.2482"/>
<polygon fill="#191970" stroke="#191970" points="613.198,-294.8388 602.6647,-295.9787 611.6098,-301.6563 613.198,-294.8388"/>
</g>
<!-- Node38 -->
<g id="node27" class="node">
<title>Node38</title>
<g id="a_node27"><a xlink:href="WaterPropsIAPWS_8h.html" target="_top" xlink:title="Headers for a class for calculating the equation of state of water from the IAPWS 1995 Formulation ba...">
<polygon fill="#ffffff" stroke="#000000" points="727.5,-112.5 727.5,-131.5 840.5,-131.5 840.5,-112.5 727.5,-112.5"/>
<text text-anchor="middle" x="784" y="-119.5" font-family="Helvetica,sans-Serif" font-size="10.00" fill="#000000">WaterPropsIAPWS.h</text>
</a>
</g>
</g>
<!-- Node37&#45;&gt;Node38 -->
<g id="edge35" class="edge">
<title>Node37&#45;&gt;Node38</title>
<path fill="none" stroke="#191970" d="M837.2601,-336.4419C827.284,-296.275 800.0419,-186.5899 788.8742,-141.6252"/>
<polygon fill="#191970" stroke="#191970" points="792.2657,-140.7596 786.4584,-131.8981 785.4721,-142.447 792.2657,-140.7596"/>
</g>
<!-- Node40 -->
<g id="node29" class="node">
<title>Node40</title>
<g id="a_node29"><a xlink:href="WaterProps_8h.html" target="_top" xlink:title="Header for a class used to house several approximation routines for properties of water...">
<polygon fill="#ffffff" stroke="#000000" points="635.5,-280.5 635.5,-299.5 716.5,-299.5 716.5,-280.5 635.5,-280.5"/>
<text text-anchor="middle" x="676" y="-287.5" font-family="Helvetica,sans-Serif" font-size="10.00" fill="#000000">WaterProps.h</text>
</a>
</g>
</g>
<!-- Node37&#45;&gt;Node40 -->
<g id="edge38" class="edge">
<title>Node37&#45;&gt;Node40</title>
<path fill="none" stroke="#191970" d="M800.6365,-336.4554C773.2265,-326.239 737.3341,-312.8609 711.109,-303.0861"/>
<polygon fill="#191970" stroke="#191970" points="712.1618,-299.7433 701.5691,-299.5303 709.717,-306.3025 712.1618,-299.7433"/>
</g>
<!-- Node39 -->
<g id="node28" class="node">
<title>Node39</title>
<g id="a_node28"><a xlink:href="WaterPropsIAPWSphi_8h.html" target="_top" xlink:title="Header for Lowest level of the classes which support a real water model (see class WaterPropsIAPWS an...">
<polygon fill="#ffffff" stroke="#000000" points="573,-56.5 573,-75.5 701,-75.5 701,-56.5 573,-56.5"/>
<text text-anchor="middle" x="637" y="-63.5" font-family="Helvetica,sans-Serif" font-size="10.00" fill="#000000">WaterPropsIAPWSphi.h</text>
</a>
</g>
</g>
<!-- Node38&#45;&gt;Node39 -->
<g id="edge36" class="edge">
<title>Node38&#45;&gt;Node39</title>
<path fill="none" stroke="#191970" d="M758.7298,-112.3733C734.6034,-103.1822 698.0638,-89.2624 671.3123,-79.0713"/>
<polygon fill="#191970" stroke="#191970" points="672.5313,-75.7904 661.9404,-75.5011 670.0393,-82.3318 672.5313,-75.7904"/>
</g>
<!-- Node39&#45;&gt;Node4 -->
<g id="edge37" class="edge">
<title>Node39&#45;&gt;Node4</title>
<path fill="none" stroke="#191970" d="M625.3295,-56.2455C615.4339,-47.9746 601.0373,-35.9416 589.4099,-26.2232"/>
<polygon fill="#191970" stroke="#191970" points="591.4542,-23.3703 581.5368,-19.6427 586.965,-28.7413 591.4542,-23.3703"/>
</g>
<!-- Node40&#45;&gt;Node3 -->
<g id="edge39" class="edge">
<title>Node40&#45;&gt;Node3</title>
<path fill="none" stroke="#191970" d="M675.2004,-280.3897C672.9187,-258.3019 664.6396,-203.1244 637,-168 607.3983,-130.3822 589.9788,-128.3788 545,-112 504.4969,-97.251 393.4493,-82.626 318.1715,-73.9522"/>
<polygon fill="#191970" stroke="#191970" points="318.1304,-70.4249 307.798,-72.7684 317.3366,-77.3798 318.1304,-70.4249"/>
</g>
<!-- Node41&#45;&gt;Node2 -->
<g id="edge41" class="edge">
<title>Node41&#45;&gt;Node2</title>
<path fill="none" stroke="#191970" d="M468.178,-403.4367C484.4583,-394.2123 504.5141,-381.425 520,-367 538.7194,-349.563 555.5213,-325.2826 565.9522,-308.6769"/>
<polygon fill="#191970" stroke="#191970" points="569.0908,-310.2532 571.3239,-299.8964 563.1196,-306.6002 569.0908,-310.2532"/>
</g>
<!-- Node42&#45;&gt;Node2 -->
<g id="edge43" class="edge">
<title>Node42&#45;&gt;Node2</title>
<path fill="none" stroke="#191970" d="M577,-403.2548C577,-379.9744 577,-335.5607 577,-309.8117"/>
<polygon fill="#191970" stroke="#191970" points="580.5001,-309.7358 577,-299.7358 573.5001,-309.7358 580.5001,-309.7358"/>
</g>
<!-- Node43&#45;&gt;Node2 -->
<g id="edge45" class="edge">
<title>Node43&#45;&gt;Node2</title>
<path fill="none" stroke="#191970" d="M643.2472,-336.2977C629.8032,-326.9022 612.5989,-314.8787 599.0922,-305.4395"/>
<polygon fill="#191970" stroke="#191970" points="601.0288,-302.5228 590.8271,-299.6633 597.0189,-308.2605 601.0288,-302.5228"/>
</g>
<!-- Node43&#45;&gt;Node40 -->
<g id="edge46" class="edge">
<title>Node43&#45;&gt;Node40</title>
<path fill="none" stroke="#191970" d="M667.7191,-336.2977C669.1506,-328.2945 670.9231,-318.3843 672.4605,-309.7889"/>
<polygon fill="#191970" stroke="#191970" points="675.9233,-310.307 674.2388,-299.8469 669.0327,-309.0744 675.9233,-310.307"/>
</g>
<!-- Node44&#45;&gt;Node2 -->
<g id="edge48" class="edge">
<title>Node44&#45;&gt;Node2</title>
<path fill="none" stroke="#191970" d="M753.8099,-403.3018C753.928,-384.9527 751.2431,-354.2855 734,-336 725.5438,-327.0326 656.3716,-309.0767 612.7097,-298.4448"/>
<polygon fill="#191970" stroke="#191970" points="613.2874,-294.9838 602.7451,-296.0374 611.6435,-301.788 613.2874,-294.9838"/>
</g>
</g>
</svg>
