<?xml version="1.0" encoding="UTF-8" standalone="no"?>
<!DOCTYPE svg PUBLIC "-//W3C//DTD SVG 1.1//EN"
 "http://www.w3.org/Graphics/SVG/1.1/DTD/svg11.dtd">
<!-- Generated by graphviz version 2.28.0 (20120425.2022)
 -->
<!-- Title: PDSS.cpp Pages: 1 -->
<svg width="1001pt" height="488pt"
 viewBox="0.00 0.00 1000.93 488.00" xmlns="http://www.w3.org/2000/svg" xmlns:xlink="http://www.w3.org/1999/xlink">
<g id="graph1" class="graph" transform="scale(1 1) rotate(0) translate(4 484)">
<title>PDSS.cpp</title>
<polygon fill="white" stroke="white" points="-4,5 -4,-484 997.929,-484 997.929,5 -4,5"/>
<!-- Node1 -->
<g id="node1" class="node"><title>Node1</title>
<polygon fill="#bfbfbf" stroke="black" points="225.642,-460.5 225.642,-479.5 287.642,-479.5 287.642,-460.5 225.642,-460.5"/>
<text text-anchor="middle" x="256.642" y="-467.5" font-family="FreeSans" font-size="10.00">PDSS.cpp</text>
</g>
<!-- Node2 -->
<g id="node3" class="node"><title>Node2</title>
<a xlink:href="ct__defs_8h.html" target="_top" xlink:title="This file contains definitions of terms that are used in internal routines and are unlikely to need m...">
<polygon fill="white" stroke="black" points="346.142,-56.5 346.142,-75.5 465.142,-75.5 465.142,-56.5 346.142,-56.5"/>
<text text-anchor="middle" x="405.642" y="-63.5" font-family="FreeSans" font-size="10.00">cantera/base/ct_defs.h</text>
</a>
</g>
<!-- Node1&#45;&gt;Node2 -->
<g id="edge2" class="edge"><title>Node1&#45;&gt;Node2</title>
<path fill="none" stroke="midnightblue" d="M287.808,-469.055C365.711,-468.59 566.343,-463.489 617.642,-424 646.876,-401.497 648.642,-383.892 648.642,-347 648.642,-347 648.642,-347 648.642,-289 648.642,-207.375 662.626,-163.921 599.642,-112 564.965,-83.4129 515.487,-72.2546 475.179,-68.1961"/>
<polygon fill="midnightblue" stroke="midnightblue" points="475.412,-64.7032 465.143,-67.311 474.797,-71.6761 475.412,-64.7032"/>
</g>
<!-- Node9 -->
<g id="node17" class="node"><title>Node9</title>
<a xlink:href="xml_8h.html" target="_top" xlink:title="Classes providing support for XML data files. ">
<polygon fill="white" stroke="black" points="80.6424,-168.5 80.6424,-187.5 182.642,-187.5 182.642,-168.5 80.6424,-168.5"/>
<text text-anchor="middle" x="131.642" y="-175.5" font-family="FreeSans" font-size="10.00">cantera/base/xml.h</text>
</a>
</g>
<!-- Node1&#45;&gt;Node9 -->
<g id="edge16" class="edge"><title>Node1&#45;&gt;Node9</title>
<path fill="none" stroke="midnightblue" d="M225.321,-463.267C175.84,-452.322 81.1569,-423.262 41.6424,-356 7.5325,-297.937 77.879,-225.427 113.132,-194.324"/>
<polygon fill="midnightblue" stroke="midnightblue" points="115.566,-196.847 120.862,-187.671 110.999,-191.542 115.566,-196.847"/>
</g>
<!-- Node13 -->
<g id="node27" class="node"><title>Node13</title>
<a xlink:href="ctml_8h.html" target="_top" xlink:title="CTML (&quot;Cantera Markup Language&quot;) is the variant of XML that Cantera uses to store data...">
<polygon fill="white" stroke="black" points="274.642,-224.5 274.642,-243.5 378.642,-243.5 378.642,-224.5 274.642,-224.5"/>
<text text-anchor="middle" x="326.642" y="-231.5" font-family="FreeSans" font-size="10.00">cantera/base/ctml.h</text>
</a>
</g>
<!-- Node1&#45;&gt;Node13 -->
<g id="edge28" class="edge"><title>Node1&#45;&gt;Node13</title>
<path fill="none" stroke="midnightblue" d="M256.249,-460.451C255.579,-438.632 255.866,-379.534 275.642,-336 284.375,-316.776 296.432,-318.482 306.642,-300 314.671,-285.467 319.914,-267.287 323.009,-253.851"/>
<polygon fill="midnightblue" stroke="midnightblue" points="326.476,-254.374 325.118,-243.866 319.627,-252.927 326.476,-254.374"/>
</g>
<!-- Node19 -->
<g id="node44" class="node"><title>Node19</title>
<a xlink:href="PDSS_8h.html" target="_top" xlink:title="Declarations for the virtual base class PDSS (pressure dependent standard state) which handles calcul...">
<polygon fill="white" stroke="black" points="50.6424,-336.5 50.6424,-355.5 172.642,-355.5 172.642,-336.5 50.6424,-336.5"/>
<text text-anchor="middle" x="111.642" y="-343.5" font-family="FreeSans" font-size="10.00">cantera/thermo/PDSS.h</text>
</a>
</g>
<!-- Node1&#45;&gt;Node19 -->
<g id="edge50" class="edge"><title>Node1&#45;&gt;Node19</title>
<path fill="none" stroke="midnightblue" d="M246.214,-460.226C221.76,-439.651 160.475,-388.086 129.769,-362.252"/>
<polygon fill="midnightblue" stroke="midnightblue" points="131.881,-359.454 121.976,-355.694 127.374,-364.811 131.881,-359.454"/>
</g>
<!-- Node21 -->
<g id="node49" class="node"><title>Node21</title>
<a xlink:href="ThermoFactory_8h.html" target="_top" xlink:title="Headers for the factory class that can create known ThermoPhase objects (see Thermodynamic Properties...">
<polygon fill="white" stroke="black" points="444.642,-398.5 444.642,-417.5 608.642,-417.5 608.642,-398.5 444.642,-398.5"/>
<text text-anchor="middle" x="526.642" y="-405.5" font-family="FreeSans" font-size="10.00">cantera/thermo/ThermoFactory.h</text>
</a>
</g>
<!-- Node1&#45;&gt;Node21 -->
<g id="edge56" class="edge"><title>Node1&#45;&gt;Node21</title>
<path fill="none" stroke="midnightblue" d="M287.879,-462.059C334.662,-451.662 423.309,-431.963 478.436,-419.712"/>
<polygon fill="midnightblue" stroke="midnightblue" points="479.319,-423.102 488.322,-417.516 477.801,-416.268 479.319,-423.102"/>
</g>
<!-- Node26 -->
<g id="node66" class="node"><title>Node26</title>
<a xlink:href="SpeciesThermo_8h.html" target="_top" xlink:title="Virtual base class for the calculation of multiple&#45;species thermodynamic reference&#45;state property man...">
<polygon fill="white" stroke="black" points="201.142,-280.5 201.142,-299.5 298.142,-299.5 298.142,-280.5 201.142,-280.5"/>
<text text-anchor="middle" x="249.642" y="-287.5" font-family="FreeSans" font-size="10.00">SpeciesThermo.h</text>
</a>
</g>
<!-- Node1&#45;&gt;Node26 -->
<g id="edge98" class="edge"><title>Node1&#45;&gt;Node26</title>
<path fill="none" stroke="midnightblue" d="M253.042,-460.222C249.586,-451.285 244.609,-436.942 242.642,-424 236.766,-385.333 239.628,-374.995 242.642,-336 243.321,-327.22 244.734,-317.563 246.114,-309.453"/>
<polygon fill="midnightblue" stroke="midnightblue" points="249.564,-310.045 247.903,-299.581 242.676,-308.796 249.564,-310.045"/>
</g>
<!-- Node31 -->
<g id="node81" class="node"><title>Node31</title>
<a xlink:href="VPStandardStateTP_8h.html" target="_top" xlink:title="Header file for a derived class of ThermoPhase that handles variable pressure standard state methods ...">
<polygon fill="white" stroke="black" points="284.642,-393 284.642,-423 426.642,-423 426.642,-393 284.642,-393"/>
<text text-anchor="start" x="292.642" y="-411" font-family="FreeSans" font-size="10.00">cantera/thermo/VPStandard</text>
<text text-anchor="middle" x="355.642" y="-400" font-family="FreeSans" font-size="10.00">StateTP.h</text>
</a>
</g>
<!-- Node1&#45;&gt;Node31 -->
<g id="edge100" class="edge"><title>Node1&#45;&gt;Node31</title>
<path fill="none" stroke="midnightblue" d="M270.827,-460.403C284.485,-452.125 305.63,-439.311 323.389,-428.547"/>
<polygon fill="midnightblue" stroke="midnightblue" points="325.572,-431.317 332.31,-423.141 321.944,-425.331 325.572,-431.317"/>
</g>
<!-- Node3 -->
<g id="node5" class="node"><title>Node3</title>
<a xlink:href="config_8h_source.html" target="_top" xlink:title="config.h">
<polygon fill="white" stroke="black" points="866.142,-0.5 866.142,-19.5 917.142,-19.5 917.142,-0.5 866.142,-0.5"/>
<text text-anchor="middle" x="891.642" y="-7.5" font-family="FreeSans" font-size="10.00">config.h</text>
</a>
</g>
<!-- Node2&#45;&gt;Node3 -->
<g id="edge4" class="edge"><title>Node2&#45;&gt;Node3</title>
<path fill="none" stroke="midnightblue" d="M465.235,-58.3785C567.465,-47.0197 773.233,-24.1566 855.98,-14.9625"/>
<polygon fill="midnightblue" stroke="midnightblue" points="856.581,-18.4173 866.133,-13.8343 855.808,-11.4601 856.581,-18.4173"/>
</g>
<!-- Node4 -->
<g id="node7" class="node"><title>Node4</title>
<polygon fill="white" stroke="#bfbfbf" points="320.642,-0.5 320.642,-19.5 364.642,-19.5 364.642,-0.5 320.642,-0.5"/>
<text text-anchor="middle" x="342.642" y="-7.5" font-family="FreeSans" font-size="10.00">cmath</text>
</g>
<!-- Node2&#45;&gt;Node4 -->
<g id="edge6" class="edge"><title>Node2&#45;&gt;Node4</title>
<path fill="none" stroke="midnightblue" d="M395.52,-56.324C386.116,-48.2631 371.898,-36.0765 360.573,-26.3695"/>
<polygon fill="midnightblue" stroke="midnightblue" points="362.819,-23.6844 352.949,-19.8339 358.263,-28.9993 362.819,-23.6844"/>
</g>
<!-- Node5 -->
<g id="node9" class="node"><title>Node5</title>
<polygon fill="white" stroke="#bfbfbf" points="383.142,-0.5 383.142,-19.5 428.142,-19.5 428.142,-0.5 383.142,-0.5"/>
<text text-anchor="middle" x="405.642" y="-7.5" font-family="FreeSans" font-size="10.00">cstdlib</text>
</g>
<!-- Node2&#45;&gt;Node5 -->
<g id="edge8" class="edge"><title>Node2&#45;&gt;Node5</title>
<path fill="none" stroke="midnightblue" d="M405.642,-56.083C405.642,-49.0059 405.642,-38.8611 405.642,-29.9865"/>
<polygon fill="midnightblue" stroke="midnightblue" points="409.142,-29.751 405.642,-19.7511 402.142,-29.7511 409.142,-29.751"/>
</g>
<!-- Node6 -->
<g id="node11" class="node"><title>Node6</title>
<polygon fill="white" stroke="#bfbfbf" points="601.642,-0.5 601.642,-19.5 645.642,-19.5 645.642,-0.5 601.642,-0.5"/>
<text text-anchor="middle" x="623.642" y="-7.5" font-family="FreeSans" font-size="10.00">vector</text>
</g>
<!-- Node2&#45;&gt;Node6 -->
<g id="edge10" class="edge"><title>Node2&#45;&gt;Node6</title>
<path fill="none" stroke="midnightblue" d="M440.185,-56.4435C481.823,-46.1296 551.227,-28.9378 591.677,-18.9179"/>
<polygon fill="midnightblue" stroke="midnightblue" points="592.68,-22.2754 601.545,-16.4736 590.997,-15.4808 592.68,-22.2754"/>
</g>
<!-- Node7 -->
<g id="node13" class="node"><title>Node7</title>
<polygon fill="white" stroke="#bfbfbf" points="446.642,-0.5 446.642,-19.5 482.642,-19.5 482.642,-0.5 446.642,-0.5"/>
<text text-anchor="middle" x="464.642" y="-7.5" font-family="FreeSans" font-size="10.00">map</text>
</g>
<!-- Node2&#45;&gt;Node7 -->
<g id="edge12" class="edge"><title>Node2&#45;&gt;Node7</title>
<path fill="none" stroke="midnightblue" d="M415.122,-56.324C423.843,-48.3414 436.986,-36.3128 447.54,-26.6529"/>
<polygon fill="midnightblue" stroke="midnightblue" points="449.977,-29.1674 454.991,-19.8339 445.251,-24.0036 449.977,-29.1674"/>
</g>
<!-- Node8 -->
<g id="node15" class="node"><title>Node8</title>
<polygon fill="white" stroke="#bfbfbf" points="156.142,-0.5 156.142,-19.5 197.142,-19.5 197.142,-0.5 156.142,-0.5"/>
<text text-anchor="middle" x="176.642" y="-7.5" font-family="FreeSans" font-size="10.00">string</text>
</g>
<!-- Node2&#45;&gt;Node8 -->
<g id="edge14" class="edge"><title>Node2&#45;&gt;Node8</title>
<path fill="none" stroke="midnightblue" d="M369.357,-56.4435C324.595,-45.8884 249.285,-28.1298 207.29,-18.2268"/>
<polygon fill="midnightblue" stroke="midnightblue" points="207.906,-14.7762 197.369,-15.8876 206.299,-21.5893 207.906,-14.7762"/>
</g>
<!-- Node10 -->
<g id="node19" class="node"><title>Node10</title>
<a xlink:href="ctexceptions_8h.html" target="_top" xlink:title="Definitions for the classes that are thrown when Cantera experiences an error condition (also contain...">
<polygon fill="white" stroke="black" points="32.6424,-112.5 32.6424,-131.5 112.642,-131.5 112.642,-112.5 32.6424,-112.5"/>
<text text-anchor="middle" x="72.6424" y="-119.5" font-family="FreeSans" font-size="10.00">ctexceptions.h</text>
</a>
</g>
<!-- Node9&#45;&gt;Node10 -->
<g id="edge18" class="edge"><title>Node9&#45;&gt;Node10</title>
<path fill="none" stroke="midnightblue" d="M122.163,-168.324C113.441,-160.341 100.299,-148.313 89.7446,-138.653"/>
<polygon fill="midnightblue" stroke="midnightblue" points="92.034,-136.004 82.2942,-131.834 87.3079,-141.167 92.034,-136.004"/>
</g>
<!-- Node12 -->
<g id="node24" class="node"><title>Node12</title>
<a xlink:href="global_8h.html" target="_top" xlink:title="This file contains definitions for utility functions and text for modules, inputfiles, logs, textlogs, HTML_logs (see Input File Handling, Diagnostic Output, Writing messages to the screen and Writing HTML Logfiles). ">
<polygon fill="white" stroke="black" points="130.642,-112.5 130.642,-131.5 182.642,-131.5 182.642,-112.5 130.642,-112.5"/>
<text text-anchor="middle" x="156.642" y="-119.5" font-family="FreeSans" font-size="10.00">global.h</text>
</a>
</g>
<!-- Node9&#45;&gt;Node12 -->
<g id="edge24" class="edge"><title>Node9&#45;&gt;Node12</title>
<path fill="none" stroke="midnightblue" d="M135.771,-168.083C139.156,-160.77 144.058,-150.181 148.261,-141.103"/>
<polygon fill="midnightblue" stroke="midnightblue" points="151.566,-142.296 152.591,-131.751 145.214,-139.355 151.566,-142.296"/>
</g>
<!-- Node10&#45;&gt;Node8 -->
<g id="edge22" class="edge"><title>Node10&#45;&gt;Node8</title>
<path fill="none" stroke="midnightblue" d="M73.0613,-112.446C74.1364,-99.0092 77.9703,-72.7646 91.6424,-56 105.711,-38.7496 128.177,-27.2623 146.48,-20.2139"/>
<polygon fill="midnightblue" stroke="midnightblue" points="147.911,-23.4191 156.14,-16.7463 145.546,-16.8307 147.911,-23.4191"/>
</g>
<!-- Node11 -->
<g id="node21" class="node"><title>Node11</title>
<polygon fill="white" stroke="#bfbfbf" points="100.642,-56.5 100.642,-75.5 160.642,-75.5 160.642,-56.5 100.642,-56.5"/>
<text text-anchor="middle" x="130.642" y="-63.5" font-family="FreeSans" font-size="10.00">exception</text>
</g>
<!-- Node10&#45;&gt;Node11 -->
<g id="edge20" class="edge"><title>Node10&#45;&gt;Node11</title>
<path fill="none" stroke="midnightblue" d="M81.9611,-112.324C90.5349,-104.341 103.455,-92.3128 113.83,-82.6529"/>
<polygon fill="midnightblue" stroke="midnightblue" points="116.22,-85.2098 121.154,-75.8339 111.45,-80.0865 116.22,-85.2098"/>
</g>
<!-- Node12&#45;&gt;Node2 -->
<g id="edge26" class="edge"><title>Node12&#45;&gt;Node2</title>
<path fill="none" stroke="midnightblue" d="M182.885,-115.059C187.469,-114.032 192.193,-112.979 196.642,-112 251.006,-100.032 313.404,-86.6419 355.765,-77.6038"/>
<polygon fill="midnightblue" stroke="midnightblue" points="356.502,-81.0255 365.552,-75.517 355.042,-74.1794 356.502,-81.0255"/>
</g>
<!-- Node13&#45;&gt;Node2 -->
<g id="edge30" class="edge"><title>Node13&#45;&gt;Node2</title>
<path fill="none" stroke="midnightblue" d="M319.545,-224.349C312.964,-215.736 303.609,-201.838 299.642,-188 290.335,-155.527 279.951,-140.138 298.642,-112 309.418,-95.779 327.304,-85.3921 345.398,-78.7461"/>
<polygon fill="midnightblue" stroke="midnightblue" points="346.746,-81.9864 355.133,-75.5132 344.54,-75.3431 346.746,-81.9864"/>
</g>
<!-- Node13&#45;&gt;Node9 -->
<g id="edge32" class="edge"><title>Node13&#45;&gt;Node9</title>
<path fill="none" stroke="midnightblue" d="M295.744,-224.444C262.369,-215.201 209.049,-200.436 172.293,-190.257"/>
<polygon fill="midnightblue" stroke="midnightblue" points="172.968,-186.812 162.396,-187.516 171.099,-193.558 172.968,-186.812"/>
</g>
<!-- Node14 -->
<g id="node31" class="node"><title>Node14</title>
<a xlink:href="Array_8h.html" target="_top" xlink:title="Header file for class Cantera::Array2D. ">
<polygon fill="white" stroke="black" points="308.642,-168.5 308.642,-187.5 356.642,-187.5 356.642,-168.5 308.642,-168.5"/>
<text text-anchor="middle" x="332.642" y="-175.5" font-family="FreeSans" font-size="10.00">Array.h</text>
</a>
</g>
<!-- Node13&#45;&gt;Node14 -->
<g id="edge34" class="edge"><title>Node13&#45;&gt;Node14</title>
<path fill="none" stroke="midnightblue" d="M327.633,-224.083C328.428,-216.927 329.572,-206.635 330.566,-197.691"/>
<polygon fill="midnightblue" stroke="midnightblue" points="334.044,-198.076 331.67,-187.751 327.087,-197.303 334.044,-198.076"/>
</g>
<!-- Node14&#45;&gt;Node2 -->
<g id="edge36" class="edge"><title>Node14&#45;&gt;Node2</title>
<path fill="none" stroke="midnightblue" d="M323.759,-168.099C311.9,-155.102 293.7,-130.471 305.642,-112 316.021,-95.9479 333.642,-85.5651 351.227,-78.8738"/>
<polygon fill="midnightblue" stroke="midnightblue" points="352.633,-82.0913 360.946,-75.5236 350.352,-75.4734 352.633,-82.0913"/>
</g>
<!-- Node14&#45;&gt;Node10 -->
<g id="edge38" class="edge"><title>Node14&#45;&gt;Node10</title>
<path fill="none" stroke="midnightblue" d="M308.182,-171.92C265.935,-163.145 178.486,-144.983 122.844,-133.427"/>
<polygon fill="midnightblue" stroke="midnightblue" points="123.346,-129.956 112.843,-131.349 121.922,-136.81 123.346,-129.956"/>
</g>
<!-- Node15 -->
<g id="node35" class="node"><title>Node15</title>
<a xlink:href="utilities_8h.html" target="_top" xlink:title="Various templated functions that carry out common vector operations (see Templated Utility Functions)...">
<polygon fill="white" stroke="black" points="378.642,-112.5 378.642,-131.5 432.642,-131.5 432.642,-112.5 378.642,-112.5"/>
<text text-anchor="middle" x="405.642" y="-119.5" font-family="FreeSans" font-size="10.00">utilities.h</text>
</a>
</g>
<!-- Node14&#45;&gt;Node15 -->
<g id="edge40" class="edge"><title>Node14&#45;&gt;Node15</title>
<path fill="none" stroke="midnightblue" d="M344.371,-168.324C355.48,-160.107 372.385,-147.602 385.626,-137.807"/>
<polygon fill="midnightblue" stroke="midnightblue" points="387.742,-140.595 393.7,-131.834 383.579,-134.967 387.742,-140.595"/>
</g>
<!-- Node17 -->
<g id="node40" class="node"><title>Node17</title>
<polygon fill="white" stroke="#bfbfbf" points="450.642,-112.5 450.642,-131.5 506.642,-131.5 506.642,-112.5 450.642,-112.5"/>
<text text-anchor="middle" x="478.642" y="-119.5" font-family="FreeSans" font-size="10.00">iostream</text>
</g>
<!-- Node14&#45;&gt;Node17 -->
<g id="edge46" class="edge"><title>Node14&#45;&gt;Node17</title>
<path fill="none" stroke="midnightblue" d="M355.776,-168.444C380.125,-159.438 418.65,-145.189 446.065,-135.049"/>
<polygon fill="midnightblue" stroke="midnightblue" points="447.452,-138.268 455.616,-131.516 445.023,-131.703 447.452,-138.268"/>
</g>
<!-- Node18 -->
<g id="node42" class="node"><title>Node18</title>
<polygon fill="white" stroke="#bfbfbf" points="314.642,-112.5 314.642,-131.5 360.642,-131.5 360.642,-112.5 314.642,-112.5"/>
<text text-anchor="middle" x="337.642" y="-119.5" font-family="FreeSans" font-size="10.00">cstring</text>
</g>
<!-- Node14&#45;&gt;Node18 -->
<g id="edge48" class="edge"><title>Node14&#45;&gt;Node18</title>
<path fill="none" stroke="midnightblue" d="M333.468,-168.083C334.123,-161.006 335.063,-150.861 335.884,-141.986"/>
<polygon fill="midnightblue" stroke="midnightblue" points="339.395,-142.031 336.832,-131.751 332.425,-141.386 339.395,-142.031"/>
</g>
<!-- Node15&#45;&gt;Node2 -->
<g id="edge42" class="edge"><title>Node15&#45;&gt;Node2</title>
<path fill="none" stroke="midnightblue" d="M405.642,-112.083C405.642,-105.006 405.642,-94.8611 405.642,-85.9865"/>
<polygon fill="midnightblue" stroke="midnightblue" points="409.142,-85.751 405.642,-75.7511 402.142,-85.7511 409.142,-85.751"/>
</g>
<!-- Node16 -->
<g id="node38" class="node"><title>Node16</title>
<polygon fill="white" stroke="#bfbfbf" points="551.642,-56.5 551.642,-75.5 609.642,-75.5 609.642,-56.5 551.642,-56.5"/>
<text text-anchor="middle" x="580.642" y="-63.5" font-family="FreeSans" font-size="10.00">algorithm</text>
</g>
<!-- Node15&#45;&gt;Node16 -->
<g id="edge44" class="edge"><title>Node15&#45;&gt;Node16</title>
<path fill="none" stroke="midnightblue" d="M432.986,-112.562C462.606,-103.423 510.052,-88.7821 543.141,-78.5719"/>
<polygon fill="midnightblue" stroke="midnightblue" points="544.39,-81.8495 552.913,-75.5565 542.326,-75.1607 544.39,-81.8495"/>
</g>
<!-- Node19&#45;&gt;Node2 -->
<g id="edge52" class="edge"><title>Node19&#45;&gt;Node2</title>
<path fill="none" stroke="midnightblue" d="M101.143,-336.429C91.5864,-328.083 77.7676,-314.557 69.6424,-300 27.7172,-224.888 -33.5145,-176.285 23.6424,-112 43.9858,-89.1194 231.224,-75.9272 335.797,-70.2846"/>
<polygon fill="midnightblue" stroke="midnightblue" points="336.159,-73.7704 345.959,-69.7459 335.788,-66.7802 336.159,-73.7704"/>
</g>
<!-- Node20 -->
<g id="node47" class="node"><title>Node20</title>
<a xlink:href="mix__defs_8h.html" target="_top" xlink:title="mix_defs.h">
<polygon fill="white" stroke="black" points="79.1424,-280.5 79.1424,-299.5 144.142,-299.5 144.142,-280.5 79.1424,-280.5"/>
<text text-anchor="middle" x="111.642" y="-287.5" font-family="FreeSans" font-size="10.00">mix_defs.h</text>
</a>
</g>
<!-- Node19&#45;&gt;Node20 -->
<g id="edge54" class="edge"><title>Node19&#45;&gt;Node20</title>
<path fill="none" stroke="midnightblue" d="M111.642,-336.083C111.642,-329.006 111.642,-318.861 111.642,-309.986"/>
<polygon fill="midnightblue" stroke="midnightblue" points="115.142,-309.751 111.642,-299.751 108.142,-309.751 115.142,-309.751"/>
</g>
<!-- Node21&#45;&gt;Node9 -->
<g id="edge84" class="edge"><title>Node21&#45;&gt;Node9</title>
<path fill="none" stroke="midnightblue" d="M503.397,-398.487C477.698,-388.886 435.225,-372.456 399.642,-356 382.32,-347.989 379.593,-342.483 361.642,-336 289.003,-309.766 252.675,-347.325 191.642,-300 158.243,-274.101 142.131,-224.686 135.52,-197.71"/>
<polygon fill="midnightblue" stroke="midnightblue" points="138.866,-196.638 133.246,-187.657 132.039,-198.183 138.866,-196.638"/>
</g>
<!-- Node22 -->
<g id="node51" class="node"><title>Node22</title>
<a xlink:href="ThermoPhase_8h.html" target="_top" xlink:title="Header file for class ThermoPhase, the base class for phases with thermodynamic properties, and the text for the Module thermoprops (see Thermodynamic Properties and class ThermoPhase). ">
<polygon fill="white" stroke="black" points="409.142,-336.5 409.142,-355.5 498.142,-355.5 498.142,-336.5 409.142,-336.5"/>
<text text-anchor="middle" x="453.642" y="-343.5" font-family="FreeSans" font-size="10.00">ThermoPhase.h</text>
</a>
</g>
<!-- Node21&#45;&gt;Node22 -->
<g id="edge58" class="edge"><title>Node21&#45;&gt;Node22</title>
<path fill="none" stroke="midnightblue" d="M516.183,-398.403C504.691,-388.958 486.013,-373.606 472.056,-362.134"/>
<polygon fill="midnightblue" stroke="midnightblue" points="474.03,-359.226 464.082,-355.581 469.585,-364.634 474.03,-359.226"/>
</g>
<!-- Node27 -->
<g id="node70" class="node"><title>Node27</title>
<a xlink:href="ct__thread_8h.html" target="_top" xlink:title="cantera/base/ct_thread.h">
<polygon fill="white" stroke="black" points="772.642,-336.5 772.642,-355.5 900.642,-355.5 900.642,-336.5 772.642,-336.5"/>
<text text-anchor="middle" x="836.642" y="-343.5" font-family="FreeSans" font-size="10.00">cantera/base/ct_thread.h</text>
</a>
</g>
<!-- Node21&#45;&gt;Node27 -->
<g id="edge86" class="edge"><title>Node21&#45;&gt;Node27</title>
<path fill="none" stroke="midnightblue" d="M570.729,-398.467C626.509,-387.671 722.534,-369.086 782.65,-357.45"/>
<polygon fill="midnightblue" stroke="midnightblue" points="783.556,-360.84 792.708,-355.503 782.225,-353.967 783.556,-360.84"/>
</g>
<!-- Node30 -->
<g id="node77" class="node"><title>Node30</title>
<a xlink:href="FactoryBase_8h.html" target="_top" xlink:title="File contains the FactoryBase class declarations. ">
<polygon fill="white" stroke="black" points="676.642,-224.5 676.642,-243.5 820.642,-243.5 820.642,-224.5 676.642,-224.5"/>
<text text-anchor="middle" x="748.642" y="-231.5" font-family="FreeSans" font-size="10.00">cantera/base/FactoryBase.h</text>
</a>
</g>
<!-- Node21&#45;&gt;Node30 -->
<g id="edge94" class="edge"><title>Node21&#45;&gt;Node30</title>
<path fill="none" stroke="midnightblue" d="M537.651,-398.47C573.085,-371.017 684.48,-284.712 729.492,-249.837"/>
<polygon fill="midnightblue" stroke="midnightblue" points="731.805,-252.472 737.567,-243.581 727.518,-246.939 731.805,-252.472"/>
</g>
<!-- Node23 -->
<g id="node53" class="node"><title>Node23</title>
<a xlink:href="Phase_8h.html" target="_top" xlink:title="Header file for class Phase. ">
<polygon fill="white" stroke="black" points="404.142,-280.5 404.142,-299.5 457.142,-299.5 457.142,-280.5 404.142,-280.5"/>
<text text-anchor="middle" x="430.642" y="-287.5" font-family="FreeSans" font-size="10.00">Phase.h</text>
</a>
</g>
<!-- Node22&#45;&gt;Node23 -->
<g id="edge60" class="edge"><title>Node22&#45;&gt;Node23</title>
<path fill="none" stroke="midnightblue" d="M449.844,-336.083C446.73,-328.77 442.22,-318.181 438.353,-309.103"/>
<polygon fill="midnightblue" stroke="midnightblue" points="441.508,-307.58 434.37,-299.751 435.068,-310.323 441.508,-307.58"/>
</g>
<!-- Node22&#45;&gt;Node26 -->
<g id="edge80" class="edge"><title>Node22&#45;&gt;Node26</title>
<path fill="none" stroke="midnightblue" d="M421.318,-336.444C386.253,-327.162 330.144,-312.309 291.678,-302.127"/>
<polygon fill="midnightblue" stroke="midnightblue" points="292.378,-298.692 281.816,-299.516 290.587,-305.459 292.378,-298.692"/>
</g>
<!-- Node23&#45;&gt;Node13 -->
<g id="edge74" class="edge"><title>Node23&#45;&gt;Node13</title>
<path fill="none" stroke="midnightblue" d="M413.933,-280.324C397.33,-271.703 371.64,-258.364 352.422,-248.386"/>
<polygon fill="midnightblue" stroke="midnightblue" points="353.798,-245.156 343.31,-243.655 350.572,-251.369 353.798,-245.156"/>
</g>
<!-- Node24 -->
<g id="node55" class="node"><title>Node24</title>
<a xlink:href="vec__functions_8h.html" target="_top" xlink:title="Templates for operations on vector&#45;like objects. ">
<polygon fill="white" stroke="red" points="389.142,-168.5 389.142,-187.5 536.142,-187.5 536.142,-168.5 389.142,-168.5"/>
<text text-anchor="middle" x="462.642" y="-175.5" font-family="FreeSans" font-size="10.00">cantera/base/vec_functions.h</text>
</a>
</g>
<!-- Node23&#45;&gt;Node24 -->
<g id="edge62" class="edge"><title>Node23&#45;&gt;Node24</title>
<path fill="none" stroke="midnightblue" d="M430.493,-280.364C430.514,-267.697 431.465,-243.474 437.642,-224 440.711,-214.326 445.977,-204.379 450.887,-196.306"/>
<polygon fill="midnightblue" stroke="midnightblue" points="453.879,-198.124 456.334,-187.817 447.987,-194.343 453.879,-198.124"/>
</g>
<!-- Node25 -->
<g id="node63" class="node"><title>Node25</title>
<a xlink:href="Elements_8h.html" target="_top" xlink:title="Contains the LookupWtElements function and the definitions of element constraint types. ">
<polygon fill="white" stroke="black" points="446.642,-224.5 446.642,-243.5 582.642,-243.5 582.642,-224.5 446.642,-224.5"/>
<text text-anchor="middle" x="514.642" y="-231.5" font-family="FreeSans" font-size="10.00">cantera/thermo/Elements.h</text>
</a>
</g>
<!-- Node23&#45;&gt;Node25 -->
<g id="edge76" class="edge"><title>Node23&#45;&gt;Node25</title>
<path fill="none" stroke="midnightblue" d="M444.138,-280.324C457.242,-271.9 477.354,-258.971 492.749,-249.074"/>
<polygon fill="midnightblue" stroke="midnightblue" points="494.661,-252.006 501.18,-243.655 490.875,-246.118 494.661,-252.006"/>
</g>
<!-- Node24&#45;&gt;Node2 -->
<g id="edge64" class="edge"><title>Node24&#45;&gt;Node2</title>
<path fill="none" stroke="midnightblue" d="M478.505,-168.324C498.563,-156.194 528.866,-133.26 514.642,-112 503.736,-95.6986 485.728,-85.296 467.461,-78.6602"/>
<polygon fill="midnightblue" stroke="midnightblue" points="468.514,-75.3221 457.921,-75.5221 466.327,-81.9716 468.514,-75.3221"/>
</g>
<!-- Node24&#45;&gt;Node15 -->
<g id="edge66" class="edge"><title>Node24&#45;&gt;Node15</title>
<path fill="none" stroke="midnightblue" d="M453.484,-168.324C445.141,-160.42 432.61,-148.548 422.465,-138.938"/>
<polygon fill="midnightblue" stroke="midnightblue" points="424.634,-136.171 414.967,-131.834 419.819,-141.252 424.634,-136.171"/>
</g>
<!-- Node24&#45;&gt;Node16 -->
<g id="edge68" class="edge"><title>Node24&#45;&gt;Node16</title>
<path fill="none" stroke="midnightblue" d="M478.546,-168.497C493.044,-160.297 514.585,-146.955 530.642,-132 546.049,-117.652 560.34,-98.1914 569.663,-84.3124"/>
<polygon fill="midnightblue" stroke="midnightblue" points="572.734,-86.012 575.277,-75.727 566.875,-82.1811 572.734,-86.012"/>
</g>
<!-- Node24&#45;&gt;Node17 -->
<g id="edge70" class="edge"><title>Node24&#45;&gt;Node17</title>
<path fill="none" stroke="midnightblue" d="M465.284,-168.083C467.428,-160.849 470.521,-150.409 473.191,-141.397"/>
<polygon fill="midnightblue" stroke="midnightblue" points="476.564,-142.333 476.049,-131.751 469.853,-140.345 476.564,-142.333"/>
</g>
<!-- Node24&#45;&gt;Node18 -->
<g id="edge72" class="edge"><title>Node24&#45;&gt;Node18</title>
<path fill="none" stroke="midnightblue" d="M442.836,-168.444C422.356,-159.596 390.16,-145.687 366.778,-135.586"/>
<polygon fill="midnightblue" stroke="midnightblue" points="367.924,-132.269 357.356,-131.516 365.148,-138.695 367.924,-132.269"/>
</g>
<!-- Node25&#45;&gt;Node2 -->
<g id="edge78" class="edge"><title>Node25&#45;&gt;Node2</title>
<path fill="none" stroke="midnightblue" d="M522.856,-224.182C530.186,-215.663 540.398,-202.019 544.642,-188 554.595,-155.128 553.677,-137.476 530.642,-112 515.686,-95.4582 494.196,-84.9925 473.242,-78.3729"/>
<polygon fill="midnightblue" stroke="midnightblue" points="473.934,-74.9294 463.355,-75.5083 471.986,-81.6529 473.934,-74.9294"/>
</g>
<!-- Node26&#45;&gt;Node2 -->
<g id="edge82" class="edge"><title>Node26&#45;&gt;Node2</title>
<path fill="none" stroke="midnightblue" d="M248.714,-280.393C246.194,-252.437 242.086,-163.051 285.642,-112 299.73,-95.488 320.506,-85.0259 340.827,-78.4005"/>
<polygon fill="midnightblue" stroke="midnightblue" points="341.841,-81.7505 350.42,-75.5326 339.836,-75.0438 341.841,-81.7505"/>
</g>
<!-- Node27&#45;&gt;Node3 -->
<g id="edge88" class="edge"><title>Node27&#45;&gt;Node3</title>
<path fill="none" stroke="midnightblue" d="M900.911,-336.687C926.206,-330.402 953.677,-319.369 972.642,-300 993.789,-278.404 992.642,-265.225 992.642,-235 992.642,-235 992.642,-235 992.642,-121 992.642,-76.5932 947.43,-42.3671 917.505,-24.5772"/>
<polygon fill="midnightblue" stroke="midnightblue" points="919.195,-21.5119 908.776,-19.5909 915.723,-27.5901 919.195,-21.5119"/>
</g>
<!-- Node28 -->
<g id="node73" class="node"><title>Node28</title>
<polygon fill="white" stroke="#bfbfbf" points="714.642,-280.5 714.642,-299.5 824.642,-299.5 824.642,-280.5 714.642,-280.5"/>
<text text-anchor="middle" x="769.642" y="-287.5" font-family="FreeSans" font-size="10.00">boost/shared_ptr.hpp</text>
</g>
<!-- Node27&#45;&gt;Node28 -->
<g id="edge90" class="edge"><title>Node27&#45;&gt;Node28</title>
<path fill="none" stroke="midnightblue" d="M825.878,-336.324C815.876,-328.263 800.756,-316.077 788.712,-306.369"/>
<polygon fill="midnightblue" stroke="midnightblue" points="790.585,-303.384 780.603,-299.834 786.193,-308.834 790.585,-303.384"/>
</g>
<!-- Node29 -->
<g id="node75" class="node"><title>Node29</title>
<polygon fill="white" stroke="#bfbfbf" points="843.142,-280.5 843.142,-299.5 964.142,-299.5 964.142,-280.5 843.142,-280.5"/>
<text text-anchor="middle" x="903.642" y="-287.5" font-family="FreeSans" font-size="10.00">boost/thread/mutex.hpp</text>
</g>
<!-- Node27&#45;&gt;Node29 -->
<g id="edge92" class="edge"><title>Node27&#45;&gt;Node29</title>
<path fill="none" stroke="midnightblue" d="M847.407,-336.324C857.408,-328.263 872.529,-316.077 884.573,-306.369"/>
<polygon fill="midnightblue" stroke="midnightblue" points="887.092,-308.834 892.682,-299.834 882.699,-303.384 887.092,-308.834"/>
</g>
<!-- Node30&#45;&gt;Node6 -->
<g id="edge96" class="edge"><title>Node30&#45;&gt;Node6</title>
<path fill="none" stroke="midnightblue" d="M746.135,-224.424C740.006,-204.103 723.108,-151.741 700.642,-112 682.4,-79.7298 654.909,-46.285 638.185,-27.126"/>
<polygon fill="midnightblue" stroke="midnightblue" points="640.781,-24.778 631.532,-19.609 635.539,-29.4172 640.781,-24.778"/>
</g>
<!-- Node31&#45;&gt;Node22 -->
<g id="edge102" class="edge"><title>Node31&#45;&gt;Node22</title>
<path fill="none" stroke="midnightblue" d="M378.867,-392.781C394.67,-383.105 415.474,-370.368 431.125,-360.786"/>
<polygon fill="midnightblue" stroke="midnightblue" points="432.967,-363.762 439.668,-355.556 429.312,-357.792 432.967,-363.762"/>
</g>
<!-- Node32 -->
<g id="node84" class="node"><title>Node32</title>
<a xlink:href="VPSSMgr_8h.html" target="_top" xlink:title="Declaration file for a virtual base class that manages the calculation of standard state properties f...">
<polygon fill="white" stroke="black" points="284.642,-336.5 284.642,-355.5 352.642,-355.5 352.642,-336.5 284.642,-336.5"/>
<text text-anchor="middle" x="318.642" y="-343.5" font-family="FreeSans" font-size="10.00">VPSSMgr.h</text>
</a>
</g>
<!-- Node31&#45;&gt;Node32 -->
<g id="edge104" class="edge"><title>Node31&#45;&gt;Node32</title>
<path fill="none" stroke="midnightblue" d="M346.874,-392.781C341.608,-384.242 334.872,-373.318 329.3,-364.283"/>
<polygon fill="midnightblue" stroke="midnightblue" points="332.254,-362.405 324.026,-355.731 326.296,-366.079 332.254,-362.405"/>
</g>
<!-- Node32&#45;&gt;Node2 -->
<g id="edge106" class="edge"><title>Node32&#45;&gt;Node2</title>
<path fill="none" stroke="midnightblue" d="M352.71,-339.587C429.736,-326.388 610.642,-289.579 610.642,-235 610.642,-235 610.642,-235 610.642,-177 610.642,-114.096 534.771,-87.0175 475.343,-75.4556"/>
<polygon fill="midnightblue" stroke="midnightblue" points="475.679,-71.959 465.212,-73.6008 474.418,-78.8445 475.679,-71.959"/>
</g>
<!-- Node32&#45;&gt;Node20 -->
<g id="edge108" class="edge"><title>Node32&#45;&gt;Node20</title>
<path fill="none" stroke="midnightblue" d="M285.843,-336.444C250.262,-327.162 193.328,-312.309 154.296,-302.127"/>
<polygon fill="midnightblue" stroke="midnightblue" points="154.848,-298.654 144.289,-299.516 153.081,-305.427 154.848,-298.654"/>
</g>
</g>
</svg>
