<?xml version="1.0" encoding="UTF-8" standalone="no"?>
<!DOCTYPE svg PUBLIC "-//W3C//DTD SVG 1.1//EN"
 "http://www.w3.org/Graphics/SVG/1.1/DTD/svg11.dtd">
<!-- Generated by graphviz version 2.36.0 (20140111.2315)
 -->
<!-- Title: PDSS_HKFT.h Pages: 1 -->
<svg width="510pt" height="84pt"
 viewBox="0.00 0.00 510.00 84.00" xmlns="http://www.w3.org/2000/svg" xmlns:xlink="http://www.w3.org/1999/xlink">
<g id="graph0" class="graph" transform="scale(1 1) rotate(0) translate(4 80)">
<title>PDSS_HKFT.h</title>
<polygon fill="white" stroke="none" points="-4,4 -4,-80 506,-80 506,4 -4,4"/>
<!-- Node1 -->
<g id="node1" class="node"><title>Node1</title>
<polygon fill="#bfbfbf" stroke="black" points="200,-56.5 200,-75.5 282,-75.5 282,-56.5 200,-56.5"/>
<text text-anchor="middle" x="241" y="-63.5" font-family="FreeSans" font-size="10.00">PDSS_HKFT.h</text>
</g>
<!-- Node2 -->
<g id="node2" class="node"><title>Node2</title>
<g id="a_node2"><a xlink:href="PDSS__HKFT_8cpp.html" target="_top" xlink:title="Definitions for the class PDSS_HKFT (pressure dependent standard state) which handles calculations fo...">
<polygon fill="white" stroke="black" points="0,-0.5 0,-19.5 92,-19.5 92,-0.5 0,-0.5"/>
<text text-anchor="middle" x="46" y="-7.5" font-family="FreeSans" font-size="10.00">PDSS_HKFT.cpp</text>
</a>
</g>
</g>
<!-- Node1&#45;&gt;Node2 -->
<g id="edge1" class="edge"><title>Node1&#45;&gt;Node2</title>
<path fill="none" stroke="midnightblue" d="M200.19,-53.6986C163.387,-43.507 110.071,-28.7429 76.7538,-19.5164"/>
<polygon fill="midnightblue" stroke="midnightblue" points="199.53,-57.1477 210.102,-56.4435 201.398,-50.4016 199.53,-57.1477"/>
</g>
<!-- Node3 -->
<g id="node3" class="node"><title>Node3</title>
<g id="a_node3"><a xlink:href="VPSSMgr__General_8cpp.html" target="_top" xlink:title="Definition file for a derived class that handles the calculation of standard state thermo properties ...">
<polygon fill="white" stroke="black" points="110,-0.5 110,-19.5 226,-19.5 226,-0.5 110,-0.5"/>
<text text-anchor="middle" x="168" y="-7.5" font-family="FreeSans" font-size="10.00">VPSSMgr_General.cpp</text>
</a>
</g>
</g>
<!-- Node1&#45;&gt;Node3 -->
<g id="edge2" class="edge"><title>Node1&#45;&gt;Node3</title>
<path fill="none" stroke="midnightblue" d="M220.858,-50.1008C207.721,-40.3824 191.018,-28.0269 179.942,-19.8339"/>
<polygon fill="midnightblue" stroke="midnightblue" points="219.15,-53.1907 229.271,-56.324 223.313,-47.5631 219.15,-53.1907"/>
</g>
<!-- Node4 -->
<g id="node4" class="node"><title>Node4</title>
<g id="a_node4"><a xlink:href="VPSSMgr__Water__HKFT_8cpp.html" target="_top" xlink:title="Definition file for a derived class that handles the calculation of standard state thermo properties ...">
<polygon fill="white" stroke="black" points="244.5,-0.5 244.5,-19.5 383.5,-19.5 383.5,-0.5 244.5,-0.5"/>
<text text-anchor="middle" x="314" y="-7.5" font-family="FreeSans" font-size="10.00">VPSSMgr_Water_HKFT.cpp</text>
</a>
</g>
</g>
<!-- Node1&#45;&gt;Node4 -->
<g id="edge3" class="edge"><title>Node1&#45;&gt;Node4</title>
<path fill="none" stroke="midnightblue" d="M261.142,-50.1008C274.279,-40.3824 290.982,-28.0269 302.058,-19.8339"/>
<polygon fill="midnightblue" stroke="midnightblue" points="258.687,-47.5631 252.729,-56.324 262.85,-53.1907 258.687,-47.5631"/>
</g>
<!-- Node5 -->
<g id="node5" class="node"><title>Node5</title>
<g id="a_node5"><a xlink:href="electrolyteThermo_8h.html" target="_top" xlink:title="Support for thermo property calculation from C++ application programs. ">
<polygon fill="white" stroke="black" points="401.5,-0.5 401.5,-19.5 502.5,-19.5 502.5,-0.5 401.5,-0.5"/>
<text text-anchor="middle" x="452" y="-7.5" font-family="FreeSans" font-size="10.00">electrolyteThermo.h</text>
</a>
</g>
</g>
<!-- Node1&#45;&gt;Node5 -->
<g id="edge4" class="edge"><title>Node1&#45;&gt;Node5</title>
<path fill="none" stroke="midnightblue" d="M284.142,-53.959C323.994,-43.7598 382.363,-28.8217 418.723,-19.5164"/>
<polygon fill="midnightblue" stroke="midnightblue" points="283.254,-50.5734 274.434,-56.4435 284.989,-57.3549 283.254,-50.5734"/>
</g>
</g>
</svg>
