<?xml version="1.0" encoding="UTF-8" standalone="no"?>
<!DOCTYPE svg PUBLIC "-//W3C//DTD SVG 1.1//EN"
 "http://www.w3.org/Graphics/SVG/1.1/DTD/svg11.dtd">
<!-- Generated by graphviz version 2.40.1 (20161225.0304)
 -->
<!-- Title: plots.h Pages: 1 -->
<svg width="615pt" height="357pt"
 viewBox="0.00 0.00 615.18 357.00" xmlns="http://www.w3.org/2000/svg" xmlns:xlink="http://www.w3.org/1999/xlink">
<g id="graph0" class="graph" transform="scale(1 1) rotate(0) translate(4 353)">
<title>plots.h</title>
<polygon fill="#ffffff" stroke="transparent" points="-4,4 -4,-353 611.1821,-353 611.1821,4 -4,4"/>
<!-- Node0 -->
<g id="node1" class="node">
<title>Node0</title>
<polygon fill="#bfbfbf" stroke="#000000" points="446.7808,-330.5 446.7808,-348.5 492.2437,-348.5 492.2437,-330.5 446.7808,-330.5"/>
<text text-anchor="middle" x="469.5122" y="-336.5" font-family="Helvetica,sans-Serif" font-size="10.00" fill="#000000">plots.h</text>
</g>
<!-- Node1 -->
<g id="node2" class="node">
<title>Node1</title>
<g id="a_node2"><a xlink:href="Array_8h.html" target="_top" xlink:title="Header file for class Cantera::Array2D. ">
<polygon fill="#ffffff" stroke="#000000" points="273.4673,-275.5 273.4673,-293.5 381.5571,-293.5 381.5571,-275.5 273.4673,-275.5"/>
<text text-anchor="middle" x="327.5122" y="-281.5" font-family="Helvetica,sans-Serif" font-size="10.00" fill="#000000">cantera/base/Array.h</text>
</a>
</g>
</g>
<!-- Node0&#45;&gt;Node1 -->
<g id="edge1" class="edge">
<title>Node0&#45;&gt;Node1</title>
<path fill="none" stroke="#191970" d="M446.6975,-330.6633C423.4786,-321.6701 387.2421,-307.6348 360.817,-297.3998"/>
<polygon fill="#191970" stroke="#191970" points="361.8065,-294.0297 351.2173,-293.6816 359.2782,-300.5572 361.8065,-294.0297"/>
</g>
<!-- Node20 -->
<g id="node19" class="node">
<title>Node20</title>
<g id="a_node19"><a xlink:href="ctexceptions_8h.html" target="_top" xlink:title="Definitions for the classes that are thrown when Cantera experiences an error condition (also contain...">
<polygon fill="#ffffff" stroke="#000000" points="399.2515,-275.5 399.2515,-293.5 539.7729,-293.5 539.7729,-275.5 399.2515,-275.5"/>
<text text-anchor="middle" x="469.5122" y="-281.5" font-family="Helvetica,sans-Serif" font-size="10.00" fill="#000000">cantera/base/ctexceptions.h</text>
</a>
</g>
</g>
<!-- Node0&#45;&gt;Node20 -->
<g id="edge20" class="edge">
<title>Node0&#45;&gt;Node20</title>
<path fill="none" stroke="#191970" d="M469.5122,-330.4179C469.5122,-323.2164 469.5122,-312.8962 469.5122,-303.8632"/>
<polygon fill="#191970" stroke="#191970" points="473.0123,-303.7794 469.5122,-293.7795 466.0123,-303.7795 473.0123,-303.7794"/>
</g>
<!-- Node22 -->
<g id="node21" class="node">
<title>Node22</title>
<polygon fill="#ffffff" stroke="#bfbfbf" points="557.8423,-275.5 557.8423,-293.5 607.1821,-293.5 607.1821,-275.5 557.8423,-275.5"/>
<text text-anchor="middle" x="582.5122" y="-281.5" font-family="Helvetica,sans-Serif" font-size="10.00" fill="#000000">fstream</text>
</g>
<!-- Node0&#45;&gt;Node22 -->
<g id="edge23" class="edge">
<title>Node0&#45;&gt;Node22</title>
<path fill="none" stroke="#191970" d="M488.1719,-330.4179C506.2465,-321.6205 533.883,-308.1691 554.5794,-298.0956"/>
<polygon fill="#191970" stroke="#191970" points="556.3651,-301.1191 563.8248,-293.5956 553.3016,-294.825 556.3651,-301.1191"/>
</g>
<!-- Node2 -->
<g id="node3" class="node">
<title>Node2</title>
<g id="a_node3"><a xlink:href="utilities_8h.html" target="_top" xlink:title="Various templated functions that carry out common vector operations (see Templated Utility Functions)...">
<polygon fill="#ffffff" stroke="#000000" points="227.0591,-220.5 227.0591,-238.5 281.9653,-238.5 281.9653,-220.5 227.0591,-220.5"/>
<text text-anchor="middle" x="254.5122" y="-226.5" font-family="Helvetica,sans-Serif" font-size="10.00" fill="#000000">utilities.h</text>
</a>
</g>
</g>
<!-- Node1&#45;&gt;Node2 -->
<g id="edge2" class="edge">
<title>Node1&#45;&gt;Node2</title>
<path fill="none" stroke="#191970" d="M315.4577,-275.4179C304.4289,-267.1084 287.889,-254.6469 274.8215,-244.8015"/>
<polygon fill="#191970" stroke="#191970" points="276.9216,-242.0016 266.8286,-238.7795 272.7093,-247.5924 276.9216,-242.0016"/>
</g>
<!-- Node18 -->
<g id="node17" class="node">
<title>Node18</title>
<polygon fill="#ffffff" stroke="#bfbfbf" points="300.3398,-220.5 300.3398,-238.5 354.6846,-238.5 354.6846,-220.5 300.3398,-220.5"/>
<text text-anchor="middle" x="327.5122" y="-226.5" font-family="Helvetica,sans-Serif" font-size="10.00" fill="#000000">iostream</text>
</g>
<!-- Node1&#45;&gt;Node18 -->
<g id="edge18" class="edge">
<title>Node1&#45;&gt;Node18</title>
<path fill="none" stroke="#191970" d="M327.5122,-275.4179C327.5122,-268.2164 327.5122,-257.8962 327.5122,-248.8632"/>
<polygon fill="#191970" stroke="#191970" points="331.0123,-248.7794 327.5122,-238.7795 324.0123,-248.7795 331.0123,-248.7794"/>
</g>
<!-- Node19 -->
<g id="node18" class="node">
<title>Node19</title>
<polygon fill="#ffffff" stroke="#bfbfbf" points="372.7856,-220.5 372.7856,-238.5 418.2388,-238.5 418.2388,-220.5 372.7856,-220.5"/>
<text text-anchor="middle" x="395.5122" y="-226.5" font-family="Helvetica,sans-Serif" font-size="10.00" fill="#000000">cstring</text>
</g>
<!-- Node1&#45;&gt;Node19 -->
<g id="edge19" class="edge">
<title>Node1&#45;&gt;Node19</title>
<path fill="none" stroke="#191970" d="M338.741,-275.4179C348.9167,-267.1876 364.1285,-254.8839 376.2453,-245.0836"/>
<polygon fill="#191970" stroke="#191970" points="378.4653,-247.7895 384.0394,-238.7795 374.0632,-242.3469 378.4653,-247.7895"/>
</g>
<!-- Node3 -->
<g id="node4" class="node">
<title>Node3</title>
<g id="a_node4"><a xlink:href="ct__defs_8h.html" target="_top" xlink:title="This file contains definitions of terms that are used in internal routines and are unlikely to need m...">
<polygon fill="#ffffff" stroke="#000000" points="214.2217,-55.5 214.2217,-73.5 270.8027,-73.5 270.8027,-55.5 214.2217,-55.5"/>
<text text-anchor="middle" x="242.5122" y="-61.5" font-family="Helvetica,sans-Serif" font-size="10.00" fill="#000000">ct_defs.h</text>
</a>
</g>
</g>
<!-- Node2&#45;&gt;Node3 -->
<g id="edge3" class="edge">
<title>Node2&#45;&gt;Node3</title>
<path fill="none" stroke="#191970" d="M243.1488,-220.4169C233.7191,-212.0914 220.9988,-198.8318 215.5122,-184 202.6629,-149.265 219.7844,-106.4964 232.0505,-82.6925"/>
<polygon fill="#191970" stroke="#191970" points="235.2198,-84.1901 236.9086,-73.7307 229.0659,-80.8541 235.2198,-84.1901"/>
</g>
<!-- Node12 -->
<g id="node13" class="node">
<title>Node12</title>
<g id="a_node13"><a xlink:href="global_8h.html" target="_top" xlink:title="This file contains definitions for utility functions and text for modules, inputfiles, logs, textlogs, (see Input File Handling, Diagnostic Output, and Writing messages to the screen). ">
<polygon fill="#ffffff" stroke="#000000" points="224.9976,-165.5 224.9976,-183.5 276.0269,-183.5 276.0269,-165.5 224.9976,-165.5"/>
<text text-anchor="middle" x="250.5122" y="-171.5" font-family="Helvetica,sans-Serif" font-size="10.00" fill="#000000">global.h</text>
</a>
</g>
</g>
<!-- Node2&#45;&gt;Node12 -->
<g id="edge12" class="edge">
<title>Node2&#45;&gt;Node12</title>
<path fill="none" stroke="#191970" d="M253.8517,-220.4179C253.3279,-213.2164 252.5774,-202.8962 251.9204,-193.8632"/>
<polygon fill="#191970" stroke="#191970" points="255.4033,-193.4992 251.1871,-183.7795 248.4217,-194.007 255.4033,-193.4992"/>
</g>
<!-- Node16 -->
<g id="node15" class="node">
<title>Node16</title>
<polygon fill="#ffffff" stroke="#bfbfbf" points="294.1108,-165.5 294.1108,-183.5 352.9136,-183.5 352.9136,-165.5 294.1108,-165.5"/>
<text text-anchor="middle" x="323.5122" y="-171.5" font-family="Helvetica,sans-Serif" font-size="10.00" fill="#000000">stdexcept</text>
</g>
<!-- Node2&#45;&gt;Node16 -->
<g id="edge16" class="edge">
<title>Node2&#45;&gt;Node16</title>
<path fill="none" stroke="#191970" d="M265.9062,-220.4179C276.2314,-212.1876 291.667,-199.8839 303.9619,-190.0836"/>
<polygon fill="#191970" stroke="#191970" points="306.2326,-192.7495 311.8707,-183.7795 301.8693,-187.2757 306.2326,-192.7495"/>
</g>
<!-- Node17 -->
<g id="node16" class="node">
<title>Node17</title>
<polygon fill="#ffffff" stroke="#bfbfbf" points="370.729,-165.5 370.729,-183.5 422.2954,-183.5 422.2954,-165.5 370.729,-165.5"/>
<text text-anchor="middle" x="396.5122" y="-171.5" font-family="Helvetica,sans-Serif" font-size="10.00" fill="#000000">numeric</text>
</g>
<!-- Node2&#45;&gt;Node17 -->
<g id="edge17" class="edge">
<title>Node2&#45;&gt;Node17</title>
<path fill="none" stroke="#191970" d="M277.9606,-220.4179C301.2905,-211.3817 337.2975,-197.4353 363.5094,-187.2828"/>
<polygon fill="#191970" stroke="#191970" points="364.9681,-190.4712 373.029,-183.5956 362.4398,-183.9437 364.9681,-190.4712"/>
</g>
<!-- Node4 -->
<g id="node5" class="node">
<title>Node4</title>
<g id="a_node5"><a xlink:href="config_8h_source.html" target="_top" xlink:title="config.h">
<polygon fill="#ffffff" stroke="#000000" points="0,-.5 0,-18.5 51.0244,-18.5 51.0244,-.5 0,-.5"/>
<text text-anchor="middle" x="25.5122" y="-6.5" font-family="Helvetica,sans-Serif" font-size="10.00" fill="#000000">config.h</text>
</a>
</g>
</g>
<!-- Node3&#45;&gt;Node4 -->
<g id="edge4" class="edge">
<title>Node3&#45;&gt;Node4</title>
<path fill="none" stroke="#191970" d="M213.9191,-57.6604C179.7527,-49.429 120.6184,-34.9975 61.0575,-19.3595"/>
<polygon fill="#191970" stroke="#191970" points="61.6723,-15.9021 51.1105,-16.7375 59.888,-22.6709 61.6723,-15.9021"/>
</g>
<!-- Node5 -->
<g id="node6" class="node">
<title>Node5</title>
<polygon fill="#ffffff" stroke="#bfbfbf" points="68.8965,-.5 68.8965,-18.5 112.1279,-18.5 112.1279,-.5 68.8965,-.5"/>
<text text-anchor="middle" x="90.5122" y="-6.5" font-family="Helvetica,sans-Serif" font-size="10.00" fill="#000000">cmath</text>
</g>
<!-- Node3&#45;&gt;Node5 -->
<g id="edge5" class="edge">
<title>Node3&#45;&gt;Node5</title>
<path fill="none" stroke="#191970" d="M217.4125,-55.4179C191.1637,-45.9199 149.9228,-30.9972 121.6235,-20.7574"/>
<polygon fill="#191970" stroke="#191970" points="122.7935,-17.4587 112.1992,-17.3473 120.4117,-24.041 122.7935,-17.4587"/>
</g>
<!-- Node6 -->
<g id="node7" class="node">
<title>Node6</title>
<polygon fill="#ffffff" stroke="#bfbfbf" points="130.3398,-.5 130.3398,-18.5 174.6846,-18.5 174.6846,-.5 130.3398,-.5"/>
<text text-anchor="middle" x="152.5122" y="-6.5" font-family="Helvetica,sans-Serif" font-size="10.00" fill="#000000">cstdlib</text>
</g>
<!-- Node3&#45;&gt;Node6 -->
<g id="edge6" class="edge">
<title>Node3&#45;&gt;Node6</title>
<path fill="none" stroke="#191970" d="M227.6505,-55.4179C213.7108,-46.8992 192.6302,-34.0166 176.3421,-24.0627"/>
<polygon fill="#191970" stroke="#191970" points="177.7539,-20.8237 167.396,-18.5956 174.1037,-26.7967 177.7539,-20.8237"/>
</g>
<!-- Node7 -->
<g id="node8" class="node">
<title>Node7</title>
<polygon fill="#ffffff" stroke="#bfbfbf" points="192.8965,-.5 192.8965,-18.5 236.1279,-18.5 236.1279,-.5 192.8965,-.5"/>
<text text-anchor="middle" x="214.5122" y="-6.5" font-family="Helvetica,sans-Serif" font-size="10.00" fill="#000000">vector</text>
</g>
<!-- Node3&#45;&gt;Node7 -->
<g id="edge7" class="edge">
<title>Node3&#45;&gt;Node7</title>
<path fill="none" stroke="#191970" d="M237.8886,-55.4179C234.1015,-47.9789 228.6203,-37.2123 223.9172,-27.9742"/>
<polygon fill="#191970" stroke="#191970" points="226.8923,-26.1032 219.2363,-18.7795 220.6541,-29.279 226.8923,-26.1032"/>
</g>
<!-- Node8 -->
<g id="node9" class="node">
<title>Node8</title>
<polygon fill="#ffffff" stroke="#bfbfbf" points="253.7856,-.5 253.7856,-18.5 289.2388,-18.5 289.2388,-.5 253.7856,-.5"/>
<text text-anchor="middle" x="271.5122" y="-6.5" font-family="Helvetica,sans-Serif" font-size="10.00" fill="#000000">map</text>
</g>
<!-- Node3&#45;&gt;Node8 -->
<g id="edge8" class="edge">
<title>Node3&#45;&gt;Node8</title>
<path fill="none" stroke="#191970" d="M247.301,-55.4179C251.265,-47.8998 257.0212,-36.9829 261.9265,-27.6799"/>
<polygon fill="#191970" stroke="#191970" points="265.0513,-29.2576 266.6194,-18.7795 258.8593,-25.9927 265.0513,-29.2576"/>
</g>
<!-- Node9 -->
<g id="node10" class="node">
<title>Node9</title>
<polygon fill="#ffffff" stroke="#bfbfbf" points="307.2856,-.5 307.2856,-18.5 347.7388,-18.5 347.7388,-.5 307.2856,-.5"/>
<text text-anchor="middle" x="327.5122" y="-6.5" font-family="Helvetica,sans-Serif" font-size="10.00" fill="#000000">string</text>
</g>
<!-- Node3&#45;&gt;Node9 -->
<g id="edge9" class="edge">
<title>Node3&#45;&gt;Node9</title>
<path fill="none" stroke="#191970" d="M256.5482,-55.4179C269.7135,-46.8992 289.623,-34.0166 305.0062,-24.0627"/>
<polygon fill="#191970" stroke="#191970" points="306.961,-26.9667 313.4553,-18.5956 303.1582,-21.0897 306.961,-26.9667"/>
</g>
<!-- Node10 -->
<g id="node11" class="node">
<title>Node10</title>
<polygon fill="#ffffff" stroke="#bfbfbf" points="365.9482,-.5 365.9482,-18.5 423.0762,-18.5 423.0762,-.5 365.9482,-.5"/>
<text text-anchor="middle" x="394.5122" y="-6.5" font-family="Helvetica,sans-Serif" font-size="10.00" fill="#000000">algorithm</text>
</g>
<!-- Node3&#45;&gt;Node10 -->
<g id="edge10" class="edge">
<title>Node3&#45;&gt;Node10</title>
<path fill="none" stroke="#191970" d="M267.6119,-55.4179C292.8802,-46.2748 332.0413,-32.1046 360.1767,-21.924"/>
<polygon fill="#191970" stroke="#191970" points="361.4154,-25.198 369.6278,-18.5042 359.0336,-18.6156 361.4154,-25.198"/>
</g>
<!-- Node11 -->
<g id="node12" class="node">
<title>Node11</title>
<polygon fill="#ffffff" stroke="#bfbfbf" points="441.4556,-.5 441.4556,-18.5 493.5688,-18.5 493.5688,-.5 441.4556,-.5"/>
<text text-anchor="middle" x="467.5122" y="-6.5" font-family="Helvetica,sans-Serif" font-size="10.00" fill="#000000">memory</text>
</g>
<!-- Node3&#45;&gt;Node11 -->
<g id="edge11" class="edge">
<title>Node3&#45;&gt;Node11</title>
<path fill="none" stroke="#191970" d="M270.9049,-57.9808C306.2149,-49.8126 368.5788,-35.1873 431.1255,-19.3027"/>
<polygon fill="#191970" stroke="#191970" points="432.3364,-22.606 441.1613,-16.7433 430.6065,-15.8231 432.3364,-22.606"/>
</g>
<!-- Node12&#45;&gt;Node3 -->
<g id="edge13" class="edge">
<title>Node12&#45;&gt;Node3</title>
<path fill="none" stroke="#191970" d="M249.8575,-165.4982C248.5625,-147.6913 245.6484,-107.6225 243.905,-83.6515"/>
<polygon fill="#191970" stroke="#191970" points="247.3922,-83.3459 243.1759,-73.6261 240.4106,-83.8537 247.3922,-83.3459"/>
</g>
<!-- Node13 -->
<g id="node14" class="node">
<title>Node13</title>
<g id="a_node14"><a xlink:href="fmt_8h.html" target="_top" xlink:title="Wrapper for either system&#45;installed or local headers for fmt. ">
<polygon fill="#ffffff" stroke="#ff0000" points="270.1011,-110.5 270.1011,-128.5 368.9233,-128.5 368.9233,-110.5 270.1011,-110.5"/>
<text text-anchor="middle" x="319.5122" y="-116.5" font-family="Helvetica,sans-Serif" font-size="10.00" fill="#000000">cantera/base/fmt.h</text>
</a>
</g>
</g>
<!-- Node12&#45;&gt;Node13 -->
<g id="edge14" class="edge">
<title>Node12&#45;&gt;Node13</title>
<path fill="none" stroke="#191970" d="M261.9062,-165.4179C272.2314,-157.1876 287.667,-144.8839 299.9619,-135.0836"/>
<polygon fill="#191970" stroke="#191970" points="302.2326,-137.7495 307.8707,-128.7795 297.8693,-132.2757 302.2326,-137.7495"/>
</g>
<!-- Node13&#45;&gt;Node3 -->
<g id="edge15" class="edge">
<title>Node13&#45;&gt;Node3</title>
<path fill="none" stroke="#191970" d="M306.7972,-110.4179C295.0939,-102.0584 277.5075,-89.4966 263.6857,-79.6239"/>
<polygon fill="#191970" stroke="#191970" points="265.4178,-76.56 255.2461,-73.5956 261.3491,-82.2561 265.4178,-76.56"/>
</g>
<!-- Node20&#45;&gt;Node13 -->
<g id="edge21" class="edge">
<title>Node20&#45;&gt;Node13</title>
<path fill="none" stroke="#191970" d="M469.1589,-275.4267C467.8315,-253.5755 461.5195,-197.4442 431.5122,-165 416.6938,-148.9781 395.4347,-138.4651 375.4121,-131.629"/>
<polygon fill="#191970" stroke="#191970" points="376.3058,-128.2408 365.7158,-128.5605 374.1937,-134.9146 376.3058,-128.2408"/>
</g>
<!-- Node21 -->
<g id="node20" class="node">
<title>Node21</title>
<polygon fill="#ffffff" stroke="#bfbfbf" points="478.1084,-220.5 478.1084,-238.5 536.916,-238.5 536.916,-220.5 478.1084,-220.5"/>
<text text-anchor="middle" x="507.5122" y="-226.5" font-family="Helvetica,sans-Serif" font-size="10.00" fill="#000000">exception</text>
</g>
<!-- Node20&#45;&gt;Node21 -->
<g id="edge22" class="edge">
<title>Node20&#45;&gt;Node21</title>
<path fill="none" stroke="#191970" d="M475.7871,-275.4179C481.0908,-267.7415 488.8427,-256.5217 495.356,-247.0945"/>
<polygon fill="#191970" stroke="#191970" points="498.2961,-248.9963 501.1009,-238.7795 492.537,-245.0173 498.2961,-248.9963"/>
</g>
</g>
</svg>
