<?xml version="1.0" encoding="UTF-8" standalone="no"?>
<!DOCTYPE svg PUBLIC "-//W3C//DTD SVG 1.1//EN"
 "http://www.w3.org/Graphics/SVG/1.1/DTD/svg11.dtd">
<!-- Generated by graphviz version 2.26.3 (20100126.1600)
 -->
<!-- Title: PrintCtrl.h Pages: 1 -->
<svg width="176pt" height="146pt"
 viewBox="0.00 0.00 176.00 146.00" xmlns="http://www.w3.org/2000/svg" xmlns:xlink="http://www.w3.org/1999/xlink">
<g id="graph1" class="graph" transform="scale(1 1) rotate(0) translate(4 142)">
<title>PrintCtrl.h</title>
<polygon fill="white" stroke="white" points="-4,5 -4,-142 173,-142 173,5 -4,5"/>
<!-- Node1 -->
<g id="node1" class="node"><title>Node1</title>
<polygon fill="#bfbfbf" stroke="black" points="58.5,-117 58.5,-137 117.5,-137 117.5,-117 58.5,-117"/>
<text text-anchor="middle" x="88" y="-124" font-family="FreeSans" font-size="10.00">PrintCtrl.h</text>
</g>
<!-- Node2 -->
<g id="node3" class="node"><title>Node2</title>
<a xlink:href="LogPrintCtrl_8h.html" target="_top" xlink:title="Declarations for a simple class that augments the logfile printing capabilities (see Cantera::LogPrin...">
<polygon fill="white" stroke="black" points="5.5,-59 5.5,-79 80.5,-79 80.5,-59 5.5,-59"/>
<text text-anchor="middle" x="43" y="-66" font-family="FreeSans" font-size="10.00">LogPrintCtrl.h</text>
</a>
</g>
<!-- Node1&#45;&gt;Node2 -->
<g id="edge2" class="edge"><title>Node1&#45;&gt;Node2</title>
<path fill="none" stroke="midnightblue" d="M74.0197,-108.981C66.4715,-99.2522 57.4224,-87.5889 51.0516,-79.3776"/>
<polygon fill="midnightblue" stroke="midnightblue" points="71.2663,-111.142 80.1616,-116.897 76.7969,-106.851 71.2663,-111.142"/>
</g>
<!-- Node4 -->
<g id="node7" class="node"><title>Node4</title>
<a xlink:href="PrintCtrl_8cpp.html" target="_top" xlink:title="Definitions for a simple class that augments the streams printing capabilities (see Cantera::PrintCtr...">
<polygon fill="white" stroke="black" points="98,-59 98,-79 168,-79 168,-59 98,-59"/>
<text text-anchor="middle" x="133" y="-66" font-family="FreeSans" font-size="10.00">PrintCtrl.cpp</text>
</a>
</g>
<!-- Node1&#45;&gt;Node4 -->
<g id="edge6" class="edge"><title>Node1&#45;&gt;Node4</title>
<path fill="none" stroke="midnightblue" d="M101.98,-108.981C109.528,-99.2522 118.578,-87.5889 124.948,-79.3776"/>
<polygon fill="midnightblue" stroke="midnightblue" points="99.2031,-106.851 95.8384,-116.897 104.734,-111.142 99.2031,-106.851"/>
</g>
<!-- Node3 -->
<g id="node5" class="node"><title>Node3</title>
<a xlink:href="LogPrintCtrl_8cpp.html" target="_top" xlink:title="Declarations for a simple class that augments the logfile printing capabilities (see Cantera::LogPrin...">
<polygon fill="white" stroke="black" points="0,-1 0,-21 86,-21 86,-1 0,-1"/>
<text text-anchor="middle" x="43" y="-8" font-family="FreeSans" font-size="10.00">LogPrintCtrl.cpp</text>
</a>
</g>
<!-- Node2&#45;&gt;Node3 -->
<g id="edge4" class="edge"><title>Node2&#45;&gt;Node3</title>
<path fill="none" stroke="midnightblue" d="M43,-48.8902C43,-39.6201 43,-29.0083 43,-21.3776"/>
<polygon fill="midnightblue" stroke="midnightblue" points="39.5001,-48.8971 43,-58.8972 46.5001,-48.8972 39.5001,-48.8971"/>
</g>
</g>
</svg>
