<?xml version="1.0" encoding="UTF-8" standalone="no"?>
<!DOCTYPE svg PUBLIC "-//W3C//DTD SVG 1.1//EN"
 "http://www.w3.org/Graphics/SVG/1.1/DTD/svg11.dtd">
<!-- Generated by graphviz version 2.40.1 (20161225.0304)
 -->
<!-- Title: PureFluid.h Pages: 1 -->
<svg width="1541pt" height="420pt"
 viewBox="0.00 0.00 1540.50 420.00" xmlns="http://www.w3.org/2000/svg" xmlns:xlink="http://www.w3.org/1999/xlink">
<g id="graph0" class="graph" transform="scale(1 1) rotate(0) translate(4 416)">
<title>PureFluid.h</title>
<polygon fill="#ffffff" stroke="transparent" points="-4,4 -4,-416 1536.5,-416 1536.5,4 -4,4"/>
<!-- Node0 -->
<g id="node1" class="node">
<title>Node0</title>
<polygon fill="#bfbfbf" stroke="#000000" points="867.5,-392.5 867.5,-411.5 938.5,-411.5 938.5,-392.5 867.5,-392.5"/>
<text text-anchor="middle" x="903" y="-399.5" font-family="Helvetica,sans-Serif" font-size="10.00" fill="#000000">PureFluid.h</text>
</g>
<!-- Node1 -->
<g id="node2" class="node">
<title>Node1</title>
<g id="a_node2"><a xlink:href="PureFluidPhase_8h.html" target="_top" xlink:title="Header for a ThermoPhase class for a pure fluid phase consisting of gas, liquid, mixed&#45;gas&#45;liquid and...">
<polygon fill="#ffffff" stroke="#000000" points="691,-224.5 691,-243.5 829,-243.5 829,-224.5 691,-224.5"/>
<text text-anchor="middle" x="760" y="-231.5" font-family="Helvetica,sans-Serif" font-size="10.00" fill="#000000">thermo/PureFluidPhase.h</text>
</a>
</g>
</g>
<!-- Node0&#45;&gt;Node1 -->
<g id="edge1" class="edge">
<title>Node0&#45;&gt;Node1</title>
<path fill="none" stroke="#191970" d="M894.902,-392.4862C871.8077,-365.3545 805.3512,-287.2798 775.2002,-251.8576"/>
<polygon fill="#191970" stroke="#191970" points="777.5124,-249.1742 768.3654,-243.8279 772.182,-253.7114 777.5124,-249.1742"/>
</g>
<!-- Node32 -->
<g id="node14" class="node">
<title>Node32</title>
<g id="a_node14"><a xlink:href="kinetics_8h.html" target="_top" xlink:title="Support for chemical kinetics calculation from C++ application programs. ">
<polygon fill="#ffffff" stroke="#000000" points="1079,-336.5 1079,-355.5 1143,-355.5 1143,-336.5 1079,-336.5"/>
<text text-anchor="middle" x="1111" y="-343.5" font-family="Helvetica,sans-Serif" font-size="10.00" fill="#000000">kinetics.h</text>
</a>
</g>
</g>
<!-- Node0&#45;&gt;Node32 -->
<g id="edge16" class="edge">
<title>Node0&#45;&gt;Node32</title>
<path fill="none" stroke="#191970" d="M938.7565,-392.3733C974.9023,-382.6417 1030.739,-367.6087 1068.9777,-357.3137"/>
<polygon fill="#191970" stroke="#191970" points="1070.0345,-360.6539 1078.7807,-354.6744 1068.2146,-353.8946 1070.0345,-360.6539"/>
</g>
<!-- Node2 -->
<g id="node3" class="node">
<title>Node2</title>
<g id="a_node3"><a xlink:href="ThermoPhase_8h.html" target="_top" xlink:title="Header file for class ThermoPhase, the base class for phases with thermodynamic properties, and the text for the Module thermoprops (see Thermodynamic Properties and class ThermoPhase). ">
<polygon fill="#ffffff" stroke="#000000" points="714,-168.5 714,-187.5 806,-187.5 806,-168.5 714,-168.5"/>
<text text-anchor="middle" x="760" y="-175.5" font-family="Helvetica,sans-Serif" font-size="10.00" fill="#000000">ThermoPhase.h</text>
</a>
</g>
</g>
<!-- Node1&#45;&gt;Node2 -->
<g id="edge2" class="edge">
<title>Node1&#45;&gt;Node2</title>
<path fill="none" stroke="#191970" d="M760,-224.2455C760,-216.9382 760,-206.6944 760,-197.7046"/>
<polygon fill="#191970" stroke="#191970" points="763.5001,-197.6426 760,-187.6427 756.5001,-197.6427 763.5001,-197.6426"/>
</g>
<!-- Node31 -->
<g id="node12" class="node">
<title>Node31</title>
<g id="a_node12"><a xlink:href="Sub_8h.html" target="_top" xlink:title="cantera/tpx/Sub.h">
<polygon fill="#ffffff" stroke="#000000" points="41,-168.5 41,-187.5 143,-187.5 143,-168.5 41,-168.5"/>
<text text-anchor="middle" x="92" y="-175.5" font-family="Helvetica,sans-Serif" font-size="10.00" fill="#000000">cantera/tpx/Sub.h</text>
</a>
</g>
</g>
<!-- Node1&#45;&gt;Node31 -->
<g id="edge13" class="edge">
<title>Node1&#45;&gt;Node31</title>
<path fill="none" stroke="#191970" d="M690.7158,-228.1917C559.728,-217.2107 277.7616,-193.5728 153.2434,-183.1342"/>
<polygon fill="#191970" stroke="#191970" points="153.3795,-179.6334 143.1221,-182.2857 152.7947,-186.6089 153.3795,-179.6334"/>
</g>
<!-- Node3 -->
<g id="node4" class="node">
<title>Node3</title>
<g id="a_node4"><a xlink:href="Phase_8h.html" target="_top" xlink:title="Header file for class Phase. ">
<polygon fill="#ffffff" stroke="#000000" points="493.5,-112.5 493.5,-131.5 548.5,-131.5 548.5,-112.5 493.5,-112.5"/>
<text text-anchor="middle" x="521" y="-119.5" font-family="Helvetica,sans-Serif" font-size="10.00" fill="#000000">Phase.h</text>
</a>
</g>
</g>
<!-- Node2&#45;&gt;Node3 -->
<g id="edge3" class="edge">
<title>Node2&#45;&gt;Node3</title>
<path fill="none" stroke="#191970" d="M719.186,-168.4369C674.1349,-157.881 602.2247,-141.0317 558.5315,-130.794"/>
<polygon fill="#191970" stroke="#191970" points="559.1303,-127.3396 548.5955,-128.4659 557.5333,-134.155 559.1303,-127.3396"/>
</g>
<!-- Node28 -->
<g id="node9" class="node">
<title>Node28</title>
<g id="a_node9"><a xlink:href="MultiSpeciesThermo_8h.html" target="_top" xlink:title="Header for a general species thermodynamic property manager for a phase (see MultiSpeciesThermo). ">
<polygon fill="#ffffff" stroke="#000000" points="627.5,-112.5 627.5,-131.5 752.5,-131.5 752.5,-112.5 627.5,-112.5"/>
<text text-anchor="middle" x="690" y="-119.5" font-family="Helvetica,sans-Serif" font-size="10.00" fill="#000000">MultiSpeciesThermo.h</text>
</a>
</g>
</g>
<!-- Node2&#45;&gt;Node28 -->
<g id="edge8" class="edge">
<title>Node2&#45;&gt;Node28</title>
<path fill="none" stroke="#191970" d="M747.8069,-168.2455C737.3679,-159.8943 722.1345,-147.7076 709.926,-137.9408"/>
<polygon fill="#191970" stroke="#191970" points="712.0485,-135.1566 702.0533,-131.6427 707.6756,-140.6227 712.0485,-135.1566"/>
</g>
<!-- Node21 -->
<g id="node11" class="node">
<title>Node21</title>
<g id="a_node11"><a xlink:href="global_8h.html" target="_top" xlink:title="This file contains definitions for utility functions and text for modules, inputfiles, logs, textlogs, (see Input File Handling, Diagnostic Output, and Writing messages to the screen). ">
<polygon fill="#ffffff" stroke="#ff0000" points="1044,-.5 1044,-19.5 1166,-19.5 1166,-.5 1044,-.5"/>
<text text-anchor="middle" x="1105" y="-7.5" font-family="Helvetica,sans-Serif" font-size="10.00" fill="#000000">cantera/base/global.h</text>
</a>
</g>
</g>
<!-- Node2&#45;&gt;Node21 -->
<g id="edge12" class="edge">
<title>Node2&#45;&gt;Node21</title>
<path fill="none" stroke="#191970" d="M806.1205,-175.8204C877.5757,-171.6012 1010.7039,-160.121 1048,-132 1065.3659,-118.9062 1087.5986,-60.3995 1098.4502,-29.4094"/>
<polygon fill="#191970" stroke="#191970" points="1101.8418,-30.3097 1101.7873,-19.715 1095.223,-28.0313 1101.8418,-30.3097"/>
</g>
<!-- Node4 -->
<g id="node5" class="node">
<title>Node4</title>
<g id="a_node5"><a xlink:href="ctexceptions_8h.html" target="_top" xlink:title="Definitions for the classes that are thrown when Cantera experiences an error condition (also contain...">
<polygon fill="#ffffff" stroke="#ff0000" points="702,-.5 702,-19.5 856,-19.5 856,-.5 702,-.5"/>
<text text-anchor="middle" x="779" y="-7.5" font-family="Helvetica,sans-Serif" font-size="10.00" fill="#000000">cantera/base/ctexceptions.h</text>
</a>
</g>
</g>
<!-- Node3&#45;&gt;Node4 -->
<g id="edge4" class="edge">
<title>Node3&#45;&gt;Node4</title>
<path fill="none" stroke="#191970" d="M538.3861,-112.4657C571.2242,-94.4648 639.341,-57.1609 642,-56 672.5135,-42.6783 708.2055,-30.8071 735.5079,-22.4624"/>
<polygon fill="#191970" stroke="#191970" points="736.5982,-25.7893 745.162,-19.5514 734.5773,-19.0874 736.5982,-25.7893"/>
</g>
<!-- Node18 -->
<g id="node6" class="node">
<title>Node18</title>
<g id="a_node6"><a xlink:href="Elements_8h.html" target="_top" xlink:title="Contains the getElementWeight function and the definitions of element constraint types. ">
<polygon fill="#ffffff" stroke="#ff0000" points="446.5,-56.5 446.5,-75.5 595.5,-75.5 595.5,-56.5 446.5,-56.5"/>
<text text-anchor="middle" x="521" y="-63.5" font-family="Helvetica,sans-Serif" font-size="10.00" fill="#000000">cantera/thermo/Elements.h</text>
</a>
</g>
</g>
<!-- Node3&#45;&gt;Node18 -->
<g id="edge5" class="edge">
<title>Node3&#45;&gt;Node18</title>
<path fill="none" stroke="#191970" d="M521,-112.2455C521,-104.9382 521,-94.6944 521,-85.7046"/>
<polygon fill="#191970" stroke="#191970" points="524.5001,-85.6426 521,-75.6427 517.5001,-85.6427 524.5001,-85.6426"/>
</g>
<!-- Node19 -->
<g id="node7" class="node">
<title>Node19</title>
<g id="a_node7"><a xlink:href="Species_8h.html" target="_top" xlink:title="Declaration for class Cantera::Species. ">
<polygon fill="#ffffff" stroke="#ff0000" points="120.5,-56.5 120.5,-75.5 261.5,-75.5 261.5,-56.5 120.5,-56.5"/>
<text text-anchor="middle" x="191" y="-63.5" font-family="Helvetica,sans-Serif" font-size="10.00" fill="#000000">cantera/thermo/Species.h</text>
</a>
</g>
</g>
<!-- Node3&#45;&gt;Node19 -->
<g id="edge6" class="edge">
<title>Node3&#45;&gt;Node19</title>
<path fill="none" stroke="#191970" d="M493.432,-117.3218C441.7982,-108.5597 329.2148,-89.4546 256.9244,-77.1872"/>
<polygon fill="#191970" stroke="#191970" points="257.4465,-73.7258 247.0019,-75.5034 256.2754,-80.6272 257.4465,-73.7258"/>
</g>
<!-- Node26 -->
<g id="node8" class="node">
<title>Node26</title>
<g id="a_node8"><a xlink:href="ValueCache_8h.html" target="_top" xlink:title="cantera/base/ValueCache.h">
<polygon fill="#ffffff" stroke="#ff0000" points="279.5,-56.5 279.5,-75.5 428.5,-75.5 428.5,-56.5 279.5,-56.5"/>
<text text-anchor="middle" x="354" y="-63.5" font-family="Helvetica,sans-Serif" font-size="10.00" fill="#000000">cantera/base/ValueCache.h</text>
</a>
</g>
</g>
<!-- Node3&#45;&gt;Node26 -->
<g id="edge7" class="edge">
<title>Node3&#45;&gt;Node26</title>
<path fill="none" stroke="#191970" d="M493.4233,-112.7527C465.7534,-103.4742 422.9205,-89.1111 392.0313,-78.753"/>
<polygon fill="#191970" stroke="#191970" points="393.0503,-75.4032 382.4564,-75.5423 390.8248,-82.04 393.0503,-75.4032"/>
</g>
<!-- Node29 -->
<g id="node10" class="node">
<title>Node29</title>
<g id="a_node10"><a xlink:href="SpeciesThermoInterpType_8h.html" target="_top" xlink:title="Pure Virtual Base class for individual species reference state thermodynamic managers and text for th...">
<polygon fill="#ffffff" stroke="#ff0000" points="651,-56.5 651,-75.5 803,-75.5 803,-56.5 651,-56.5"/>
<text text-anchor="middle" x="727" y="-63.5" font-family="Helvetica,sans-Serif" font-size="10.00" fill="#000000">SpeciesThermoInterpType.h</text>
</a>
</g>
</g>
<!-- Node28&#45;&gt;Node29 -->
<g id="edge9" class="edge">
<title>Node28&#45;&gt;Node29</title>
<path fill="none" stroke="#191970" d="M696.4449,-112.2455C701.5382,-104.5367 708.7908,-93.5598 714.952,-84.2348"/>
<polygon fill="#191970" stroke="#191970" points="718.0365,-85.9155 720.6289,-75.6427 712.1962,-82.0566 718.0365,-85.9155"/>
</g>
<!-- Node29&#45;&gt;Node4 -->
<g id="edge10" class="edge">
<title>Node29&#45;&gt;Node4</title>
<path fill="none" stroke="#191970" d="M736.0577,-56.2455C743.5142,-48.2155 754.2634,-36.6394 763.1417,-27.0781"/>
<polygon fill="#191970" stroke="#191970" points="765.8063,-29.3522 770.0461,-19.6427 760.6768,-24.589 765.8063,-29.3522"/>
</g>
<!-- Node29&#45;&gt;Node21 -->
<g id="edge11" class="edge">
<title>Node29&#45;&gt;Node21</title>
<path fill="none" stroke="#191970" d="M791.551,-56.4369C858.8786,-46.4624 964.1351,-30.8689 1033.8292,-20.5438"/>
<polygon fill="#191970" stroke="#191970" points="1034.4661,-23.9878 1043.8452,-19.06 1033.4402,-17.0633 1034.4661,-23.9878"/>
</g>
<!-- Node31&#45;&gt;Node4 -->
<g id="edge14" class="edge">
<title>Node31&#45;&gt;Node4</title>
<path fill="none" stroke="#191970" d="M90.0741,-168.2496C86.0841,-144.8594 79.783,-85.3334 112,-56 133.1141,-36.7758 515.9639,-19.9233 691.8896,-13.1575"/>
<polygon fill="#191970" stroke="#191970" points="692.0381,-16.6545 701.897,-12.775 691.7706,-9.6596 692.0381,-16.6545"/>
</g>
<!-- Node13 -->
<g id="node13" class="node">
<title>Node13</title>
<polygon fill="#ffffff" stroke="#bfbfbf" points="0,-112.5 0,-131.5 64,-131.5 64,-112.5 0,-112.5"/>
<text text-anchor="middle" x="32" y="-119.5" font-family="Helvetica,sans-Serif" font-size="10.00" fill="#000000">algorithm</text>
</g>
<!-- Node31&#45;&gt;Node13 -->
<g id="edge15" class="edge">
<title>Node31&#45;&gt;Node13</title>
<path fill="none" stroke="#191970" d="M81.5488,-168.2455C72.7731,-160.0549 60.0446,-148.1749 49.686,-138.5069"/>
<polygon fill="#191970" stroke="#191970" points="52.0301,-135.9072 42.3314,-131.6427 47.2539,-141.0246 52.0301,-135.9072"/>
</g>
<!-- Node33 -->
<g id="node15" class="node">
<title>Node33</title>
<g id="a_node15"><a xlink:href="Kinetics_8h.html" target="_top" xlink:title="Base class for kinetics managers and also contains the kineticsmgr module documentation (see Kinetics...">
<polygon fill="#ffffff" stroke="#000000" points="1052,-224.5 1052,-243.5 1158,-243.5 1158,-224.5 1052,-224.5"/>
<text text-anchor="middle" x="1105" y="-231.5" font-family="Helvetica,sans-Serif" font-size="10.00" fill="#000000">kinetics/Kinetics.h</text>
</a>
</g>
</g>
<!-- Node32&#45;&gt;Node33 -->
<g id="edge17" class="edge">
<title>Node32&#45;&gt;Node33</title>
<path fill="none" stroke="#191970" d="M1080.2809,-336.4362C1063.0926,-329.3313 1043.1368,-317.7464 1033,-300 1020.6746,-278.422 1046.0547,-259.9205 1070.0104,-248.0444"/>
<polygon fill="#191970" stroke="#191970" points="1071.7997,-251.0719 1079.3835,-243.6735 1068.8412,-244.7278 1071.7997,-251.0719"/>
</g>
<!-- Node36 -->
<g id="node18" class="node">
<title>Node36</title>
<g id="a_node18"><a xlink:href="Reaction_8h.html" target="_top" xlink:title="cantera/kinetics/Reaction.h">
<polygon fill="#ffffff" stroke="#000000" points="1132.5,-168.5 1132.5,-187.5 1281.5,-187.5 1281.5,-168.5 1132.5,-168.5"/>
<text text-anchor="middle" x="1207" y="-175.5" font-family="Helvetica,sans-Serif" font-size="10.00" fill="#000000">cantera/kinetics/Reaction.h</text>
</a>
</g>
</g>
<!-- Node32&#45;&gt;Node36 -->
<g id="edge30" class="edge">
<title>Node32&#45;&gt;Node36</title>
<path fill="none" stroke="#191970" d="M1143.0971,-344.6116C1201.509,-341.3391 1321.5181,-330.9283 1347,-300 1384.4403,-254.5574 1297.2067,-211.8609 1244.1309,-191.1204"/>
<polygon fill="#191970" stroke="#191970" points="1245.2465,-187.8001 1234.6557,-187.5075 1242.7525,-194.3407 1245.2465,-187.8001"/>
</g>
<!-- Node44 -->
<g id="node22" class="node">
<title>Node44</title>
<g id="a_node22"><a xlink:href="KineticsFactory_8h.html" target="_top" xlink:title="kinetics/KineticsFactory.h">
<polygon fill="#ffffff" stroke="#000000" points="1198,-280.5 1198,-299.5 1338,-299.5 1338,-280.5 1198,-280.5"/>
<text text-anchor="middle" x="1268" y="-287.5" font-family="Helvetica,sans-Serif" font-size="10.00" fill="#000000">kinetics/KineticsFactory.h</text>
</a>
</g>
</g>
<!-- Node32&#45;&gt;Node44 -->
<g id="edge31" class="edge">
<title>Node32&#45;&gt;Node44</title>
<path fill="none" stroke="#191970" d="M1137.9893,-336.3733C1163.8699,-327.1419 1203.1248,-313.1402 1231.7289,-302.9375"/>
<polygon fill="#191970" stroke="#191970" points="1233.12,-306.1573 1241.3629,-299.5011 1230.7683,-299.5642 1233.12,-306.1573"/>
</g>
<!-- Node48 -->
<g id="node28" class="node">
<title>Node48</title>
<g id="a_node28"><a xlink:href="importKinetics_8h.html" target="_top" xlink:title="Definitions of global routines for the importing of data from XML files (see Input File Handling)...">
<polygon fill="#ffffff" stroke="#000000" points="1042,-280.5 1042,-299.5 1180,-299.5 1180,-280.5 1042,-280.5"/>
<text text-anchor="middle" x="1111" y="-287.5" font-family="Helvetica,sans-Serif" font-size="10.00" fill="#000000">kinetics/importKinetics.h</text>
</a>
</g>
</g>
<!-- Node32&#45;&gt;Node48 -->
<g id="edge40" class="edge">
<title>Node32&#45;&gt;Node48</title>
<path fill="none" stroke="#191970" d="M1111,-336.2455C1111,-328.9382 1111,-318.6944 1111,-309.7046"/>
<polygon fill="#191970" stroke="#191970" points="1114.5001,-309.6426 1111,-299.6427 1107.5001,-309.6427 1114.5001,-309.6426"/>
</g>
<!-- Node33&#45;&gt;Node2 -->
<g id="edge18" class="edge">
<title>Node33&#45;&gt;Node2</title>
<path fill="none" stroke="#191970" d="M1051.8498,-225.3727C987.9778,-215.0051 881.2861,-197.687 816.12,-187.1093"/>
<polygon fill="#191970" stroke="#191970" points="816.4623,-183.6192 806.0307,-185.4717 815.3407,-190.5287 816.4623,-183.6192"/>
</g>
<!-- Node33&#45;&gt;Node21 -->
<g id="edge29" class="edge">
<title>Node33&#45;&gt;Node21</title>
<path fill="none" stroke="#191970" d="M1105,-224.375C1105,-190.4851 1105,-76.2317 1105,-29.8332"/>
<polygon fill="#191970" stroke="#191970" points="1108.5001,-29.5891 1105,-19.5891 1101.5001,-29.5892 1108.5001,-29.5891"/>
</g>
<!-- Node34 -->
<g id="node16" class="node">
<title>Node34</title>
<g id="a_node16"><a xlink:href="StoichManager_8h.html" target="_top" xlink:title="StoichManager.h">
<polygon fill="#ffffff" stroke="#000000" points="770.5,-112.5 770.5,-131.5 867.5,-131.5 867.5,-112.5 770.5,-112.5"/>
<text text-anchor="middle" x="819" y="-119.5" font-family="Helvetica,sans-Serif" font-size="10.00" fill="#000000">StoichManager.h</text>
</a>
</g>
</g>
<!-- Node33&#45;&gt;Node34 -->
<g id="edge19" class="edge">
<title>Node33&#45;&gt;Node34</title>
<path fill="none" stroke="#191970" d="M1080.6158,-224.4509C1029.5373,-204.4482 911.2139,-158.1117 852.829,-135.2477"/>
<polygon fill="#191970" stroke="#191970" points="853.9102,-131.9124 843.3225,-131.5249 851.3577,-138.4304 853.9102,-131.9124"/>
</g>
<!-- Node33&#45;&gt;Node36 -->
<g id="edge22" class="edge">
<title>Node33&#45;&gt;Node36</title>
<path fill="none" stroke="#191970" d="M1122.767,-224.2455C1138.7095,-215.4928 1162.3259,-202.527 1180.4989,-192.5496"/>
<polygon fill="#191970" stroke="#191970" points="1182.3552,-195.5233 1189.4366,-187.6427 1178.9863,-189.3873 1182.3552,-195.5233"/>
</g>
<!-- Node34&#45;&gt;Node4 -->
<g id="edge21" class="edge">
<title>Node34&#45;&gt;Node4</title>
<path fill="none" stroke="#191970" d="M819.4916,-112.2445C819.8208,-99.0398 819.2196,-74.9512 812,-56 808.0527,-45.6385 801.176,-35.4762 794.7182,-27.3497"/>
<polygon fill="#191970" stroke="#191970" points="797.3956,-25.0954 788.2805,-19.6949 792.0383,-29.6009 797.3956,-25.0954"/>
</g>
<!-- Node35 -->
<g id="node17" class="node">
<title>Node35</title>
<g id="a_node17"><a xlink:href="stringUtils_8h.html" target="_top" xlink:title="Contains declarations for string manipulation functions within Cantera. ">
<polygon fill="#ffffff" stroke="#ff0000" points="859,-56.5 859,-75.5 1001,-75.5 1001,-56.5 859,-56.5"/>
<text text-anchor="middle" x="930" y="-63.5" font-family="Helvetica,sans-Serif" font-size="10.00" fill="#000000">cantera/base/stringUtils.h</text>
</a>
</g>
</g>
<!-- Node34&#45;&gt;Node35 -->
<g id="edge20" class="edge">
<title>Node34&#45;&gt;Node35</title>
<path fill="none" stroke="#191970" d="M838.0816,-112.3733C855.7402,-103.4644 882.2053,-90.1127 902.2098,-80.0203"/>
<polygon fill="#191970" stroke="#191970" points="903.8158,-83.1303 911.1674,-75.5011 900.6628,-76.8806 903.8158,-83.1303"/>
</g>
<!-- Node37 -->
<g id="node19" class="node">
<title>Node37</title>
<g id="a_node19"><a xlink:href="utilities_8h.html" target="_top" xlink:title="Various templated functions that carry out common vector operations (see Templated Utility Functions)...">
<polygon fill="#ffffff" stroke="#ff0000" points="1133,-56.5 1133,-75.5 1261,-75.5 1261,-56.5 1133,-56.5"/>
<text text-anchor="middle" x="1197" y="-63.5" font-family="Helvetica,sans-Serif" font-size="10.00" fill="#000000">cantera/base/utilities.h</text>
</a>
</g>
</g>
<!-- Node36&#45;&gt;Node37 -->
<g id="edge23" class="edge">
<title>Node36&#45;&gt;Node37</title>
<path fill="none" stroke="#191970" d="M1231.9042,-168.4227C1257.6169,-156.9754 1292.1392,-136.2898 1278,-112 1269.3761,-97.185 1254.0066,-86.752 1238.9562,-79.6123"/>
<polygon fill="#191970" stroke="#191970" points="1240.2559,-76.3609 1229.6897,-75.5826 1237.4644,-82.7802 1240.2559,-76.3609"/>
</g>
<!-- Node40 -->
<g id="node20" class="node">
<title>Node40</title>
<g id="a_node20"><a xlink:href="RxnRates_8h.html" target="_top" xlink:title="cantera/kinetics/RxnRates.h">
<polygon fill="#ffffff" stroke="#ff0000" points="885.5,-112.5 885.5,-131.5 1038.5,-131.5 1038.5,-112.5 885.5,-112.5"/>
<text text-anchor="middle" x="962" y="-119.5" font-family="Helvetica,sans-Serif" font-size="10.00" fill="#000000">cantera/kinetics/RxnRates.h</text>
</a>
</g>
</g>
<!-- Node36&#45;&gt;Node40 -->
<g id="edge25" class="edge">
<title>Node36&#45;&gt;Node40</title>
<path fill="none" stroke="#191970" d="M1165.1614,-168.4369C1123.2315,-158.8529 1058.6052,-144.0812 1013.5376,-133.78"/>
<polygon fill="#191970" stroke="#191970" points="1014.1946,-130.34 1003.6661,-131.5237 1012.6347,-137.164 1014.1946,-130.34"/>
</g>
<!-- Node43 -->
<g id="node21" class="node">
<title>Node43</title>
<g id="a_node21"><a xlink:href="Falloff_8h_source.html" target="_top" xlink:title="cantera/kinetics/Falloff.h">
<polygon fill="#ffffff" stroke="#ff0000" points="1133,-112.5 1133,-131.5 1269,-131.5 1269,-112.5 1133,-112.5"/>
<text text-anchor="middle" x="1201" y="-119.5" font-family="Helvetica,sans-Serif" font-size="10.00" fill="#000000">cantera/kinetics/Falloff.h</text>
</a>
</g>
</g>
<!-- Node36&#45;&gt;Node43 -->
<g id="edge28" class="edge">
<title>Node36&#45;&gt;Node43</title>
<path fill="none" stroke="#191970" d="M1205.9549,-168.2455C1205.172,-160.9382 1204.0744,-150.6944 1203.1112,-141.7046"/>
<polygon fill="#191970" stroke="#191970" points="1206.5786,-141.2129 1202.0331,-131.6427 1199.6185,-141.9587 1206.5786,-141.2129"/>
</g>
<!-- Node37&#45;&gt;Node21 -->
<g id="edge24" class="edge">
<title>Node37&#45;&gt;Node21</title>
<path fill="none" stroke="#191970" d="M1180.9748,-56.2455C1166.8592,-47.6534 1146.0737,-35.0014 1129.8101,-25.1018"/>
<polygon fill="#191970" stroke="#191970" points="1131.2034,-21.8525 1120.8415,-19.6427 1127.5637,-27.8319 1131.2034,-21.8525"/>
</g>
<!-- Node40&#45;&gt;Node4 -->
<g id="edge26" class="edge">
<title>Node40&#45;&gt;Node4</title>
<path fill="none" stroke="#191970" d="M977.7668,-112.3401C997.1982,-99.2437 1025.8172,-75.2775 1010,-56 991.7707,-33.7827 923.9195,-22.0952 866.4333,-16.0722"/>
<polygon fill="#191970" stroke="#191970" points="866.5028,-12.5618 856.2037,-15.0476 865.8051,-19.5269 866.5028,-12.5618"/>
</g>
<!-- Node40&#45;&gt;Node35 -->
<g id="edge27" class="edge">
<title>Node40&#45;&gt;Node35</title>
<path fill="none" stroke="#191970" d="M956.426,-112.2455C952.0669,-104.617 945.8789,-93.7881 940.5867,-84.5267"/>
<polygon fill="#191970" stroke="#191970" points="943.5104,-82.5886 935.5101,-75.6427 937.4327,-86.0616 943.5104,-82.5886"/>
</g>
<!-- Node44&#45;&gt;Node33 -->
<g id="edge32" class="edge">
<title>Node44&#45;&gt;Node33</title>
<path fill="none" stroke="#191970" d="M1239.9793,-280.3733C1212.9922,-271.1016 1171.9983,-257.0178 1142.2689,-246.804"/>
<polygon fill="#191970" stroke="#191970" points="1143.2497,-243.4403 1132.6551,-243.5011 1140.9752,-250.0605 1143.2497,-243.4403"/>
</g>
<!-- Node45 -->
<g id="node23" class="node">
<title>Node45</title>
<g id="a_node23"><a xlink:href="FactoryBase_8h.html" target="_top" xlink:title="File contains the FactoryBase class declarations. ">
<polygon fill="#ffffff" stroke="#000000" points="1279.5,-56.5 1279.5,-75.5 1430.5,-75.5 1430.5,-56.5 1279.5,-56.5"/>
<text text-anchor="middle" x="1355" y="-63.5" font-family="Helvetica,sans-Serif" font-size="10.00" fill="#000000">cantera/base/FactoryBase.h</text>
</a>
</g>
</g>
<!-- Node44&#45;&gt;Node45 -->
<g id="edge33" class="edge">
<title>Node44&#45;&gt;Node45</title>
<path fill="none" stroke="#191970" d="M1271.7383,-280.375C1284.9846,-246.2697 1329.8414,-130.7761 1347.6373,-84.9567"/>
<polygon fill="#191970" stroke="#191970" points="1350.9177,-86.1779 1351.2756,-75.5891 1344.3926,-83.6436 1350.9177,-86.1779"/>
</g>
<!-- Node45&#45;&gt;Node4 -->
<g id="edge38" class="edge">
<title>Node45&#45;&gt;Node4</title>
<path fill="none" stroke="#191970" d="M1279.4666,-57.0196C1276.269,-56.6692 1273.1031,-56.3278 1270,-56 1128.766,-41.0784 964.41,-26.1806 866.1953,-17.5407"/>
<polygon fill="#191970" stroke="#191970" points="866.2884,-14.0355 856.0205,-16.6472 865.676,-21.0087 866.2884,-14.0355"/>
</g>
<!-- Node45&#45;&gt;Node21 -->
<g id="edge39" class="edge">
<title>Node45&#45;&gt;Node21</title>
<path fill="none" stroke="#191970" d="M1312.3075,-56.4369C1269.4321,-46.8328 1203.2995,-32.0191 1157.2998,-21.7152"/>
<polygon fill="#191970" stroke="#191970" points="1158.0396,-18.2942 1147.5164,-19.5237 1156.5095,-25.1249 1158.0396,-18.2942"/>
</g>
<!-- Node10 -->
<g id="node24" class="node">
<title>Node10</title>
<polygon fill="#ffffff" stroke="#bfbfbf" points="1224.5,-.5 1224.5,-19.5 1271.5,-19.5 1271.5,-.5 1224.5,-.5"/>
<text text-anchor="middle" x="1248" y="-7.5" font-family="Helvetica,sans-Serif" font-size="10.00" fill="#000000">vector</text>
</g>
<!-- Node45&#45;&gt;Node10 -->
<g id="edge34" class="edge">
<title>Node45&#45;&gt;Node10</title>
<path fill="none" stroke="#191970" d="M1336.362,-56.2455C1319.5614,-47.4527 1294.6366,-34.4079 1275.5382,-24.4125"/>
<polygon fill="#191970" stroke="#191970" points="1276.9073,-21.1787 1266.4244,-19.6427 1273.6614,-27.3807 1276.9073,-21.1787"/>
</g>
<!-- Node46 -->
<g id="node25" class="node">
<title>Node46</title>
<polygon fill="#ffffff" stroke="#bfbfbf" points="1290,-.5 1290,-19.5 1338,-19.5 1338,-.5 1290,-.5"/>
<text text-anchor="middle" x="1314" y="-7.5" font-family="Helvetica,sans-Serif" font-size="10.00" fill="#000000">mutex</text>
</g>
<!-- Node45&#45;&gt;Node46 -->
<g id="edge35" class="edge">
<title>Node45&#45;&gt;Node46</title>
<path fill="none" stroke="#191970" d="M1347.8583,-56.2455C1342.1556,-48.4564 1334.01,-37.3308 1327.1375,-27.9439"/>
<polygon fill="#191970" stroke="#191970" points="1329.7913,-25.6437 1321.0598,-19.6427 1324.1432,-29.7789 1329.7913,-25.6437"/>
</g>
<!-- Node22 -->
<g id="node26" class="node">
<title>Node22</title>
<polygon fill="#ffffff" stroke="#bfbfbf" points="1356.5,-.5 1356.5,-19.5 1449.5,-19.5 1449.5,-.5 1356.5,-.5"/>
<text text-anchor="middle" x="1403" y="-7.5" font-family="Helvetica,sans-Serif" font-size="10.00" fill="#000000">unordered_map</text>
</g>
<!-- Node45&#45;&gt;Node22 -->
<g id="edge36" class="edge">
<title>Node45&#45;&gt;Node22</title>
<path fill="none" stroke="#191970" d="M1363.361,-56.2455C1370.175,-48.2958 1379.9681,-36.8706 1388.1152,-27.3656"/>
<polygon fill="#191970" stroke="#191970" points="1390.8843,-29.513 1394.7349,-19.6427 1385.5695,-24.9575 1390.8843,-29.513"/>
</g>
<!-- Node47 -->
<g id="node27" class="node">
<title>Node47</title>
<polygon fill="#ffffff" stroke="#bfbfbf" points="1467.5,-.5 1467.5,-19.5 1532.5,-19.5 1532.5,-.5 1467.5,-.5"/>
<text text-anchor="middle" x="1500" y="-7.5" font-family="Helvetica,sans-Serif" font-size="10.00" fill="#000000">functional</text>
</g>
<!-- Node45&#45;&gt;Node47 -->
<g id="edge37" class="edge">
<title>Node45&#45;&gt;Node47</title>
<path fill="none" stroke="#191970" d="M1379.9264,-56.3733C1403.6202,-47.2226 1439.4511,-33.3844 1465.8068,-23.2057"/>
<polygon fill="#191970" stroke="#191970" points="1467.3314,-26.3689 1475.3989,-19.5011 1464.8094,-19.8389 1467.3314,-26.3689"/>
</g>
<!-- Node48&#45;&gt;Node33 -->
<g id="edge41" class="edge">
<title>Node48&#45;&gt;Node33</title>
<path fill="none" stroke="#191970" d="M1109.9549,-280.2455C1109.172,-272.9382 1108.0744,-262.6944 1107.1112,-253.7046"/>
<polygon fill="#191970" stroke="#191970" points="1110.5786,-253.2129 1106.0331,-243.6427 1103.6185,-253.9587 1110.5786,-253.2129"/>
</g>
</g>
</svg>
