<?xml version="1.0" encoding="UTF-8" standalone="no"?>
<!DOCTYPE svg PUBLIC "-//W3C//DTD SVG 1.1//EN"
 "http://www.w3.org/Graphics/SVG/1.1/DTD/svg11.dtd">
<!-- Generated by graphviz version 2.28.0 (20120425.2022)
 -->
<!-- Title: PureFluidPhase.h Pages: 1 -->
<svg width="597pt" height="308pt"
 viewBox="0.00 0.00 597.43 308.00" xmlns="http://www.w3.org/2000/svg" xmlns:xlink="http://www.w3.org/1999/xlink">
<g id="graph1" class="graph" transform="scale(1 1) rotate(0) translate(4 304)">
<title>PureFluidPhase.h</title>
<polygon fill="white" stroke="white" points="-4,5 -4,-304 594.435,-304 594.435,5 -4,5"/>
<!-- Node1 -->
<g id="node1" class="node"><title>Node1</title>
<polygon fill="#bfbfbf" stroke="black" points="217.359,-280.5 217.359,-299.5 312.359,-299.5 312.359,-280.5 217.359,-280.5"/>
<text text-anchor="middle" x="264.859" y="-287.5" font-family="FreeSans" font-size="10.00">PureFluidPhase.h</text>
</g>
<!-- Node2 -->
<g id="node3" class="node"><title>Node2</title>
<a xlink:href="ThermoPhase_8h.html" target="_top" xlink:title="Header file for class ThermoPhase, the base class for phases with thermodynamic properties, and the text for the Module thermoprops (see Thermodynamic Properties and class ThermoPhase).">
<polygon fill="white" stroke="black" points="341.359,-224.5 341.359,-243.5 430.359,-243.5 430.359,-224.5 341.359,-224.5"/>
<text text-anchor="middle" x="385.859" y="-231.5" font-family="FreeSans" font-size="10.00">ThermoPhase.h</text>
</a>
</g>
<!-- Node1&#45;&gt;Node2 -->
<g id="edge2" class="edge"><title>Node1&#45;&gt;Node2</title>
<path fill="none" stroke="midnightblue" d="M284.032,-280.444C303.768,-271.636 334.744,-257.812 357.352,-247.722"/>
<polygon fill="midnightblue" stroke="midnightblue" points="359.07,-250.788 366.776,-243.516 356.218,-244.396 359.07,-250.788"/>
</g>
<!-- Node11 -->
<g id="node24" class="node"><title>Node11</title>
<a xlink:href="mix__defs_8h_source.html" target="_top" xlink:title="mix_defs.h">
<polygon fill="white" stroke="black" points="232.359,-224.5 232.359,-243.5 297.359,-243.5 297.359,-224.5 232.359,-224.5"/>
<text text-anchor="middle" x="264.859" y="-231.5" font-family="FreeSans" font-size="10.00">mix_defs.h</text>
</a>
</g>
<!-- Node1&#45;&gt;Node11 -->
<g id="edge26" class="edge"><title>Node1&#45;&gt;Node11</title>
<path fill="none" stroke="midnightblue" d="M264.859,-280.083C264.859,-273.006 264.859,-262.861 264.859,-253.986"/>
<polygon fill="midnightblue" stroke="midnightblue" points="268.359,-253.751 264.859,-243.751 261.359,-253.751 268.359,-253.751"/>
</g>
<!-- Node12 -->
<g id="node26" class="node"><title>Node12</title>
<a xlink:href="Sub_8h_source.html" target="_top" xlink:title="cantera/tpx/Sub.h">
<polygon fill="white" stroke="black" points="42.8591,-168.5 42.8591,-187.5 136.859,-187.5 136.859,-168.5 42.8591,-168.5"/>
<text text-anchor="middle" x="89.8591" y="-175.5" font-family="FreeSans" font-size="10.00">cantera/tpx/Sub.h</text>
</a>
</g>
<!-- Node1&#45;&gt;Node12 -->
<g id="edge28" class="edge"><title>Node1&#45;&gt;Node12</title>
<path fill="none" stroke="midnightblue" d="M251.127,-280.368C220.969,-261.412 148.724,-216.001 112.04,-192.942"/>
<polygon fill="midnightblue" stroke="midnightblue" points="113.856,-189.95 103.527,-187.591 110.131,-195.876 113.856,-189.95"/>
</g>
<!-- Node3 -->
<g id="node5" class="node"><title>Node3</title>
<a xlink:href="Phase_8h.html" target="_top" xlink:title="Header file for class Phase.">
<polygon fill="white" stroke="black" points="359.359,-168.5 359.359,-187.5 412.359,-187.5 412.359,-168.5 359.359,-168.5"/>
<text text-anchor="middle" x="385.859" y="-175.5" font-family="FreeSans" font-size="10.00">Phase.h</text>
</a>
</g>
<!-- Node2&#45;&gt;Node3 -->
<g id="edge4" class="edge"><title>Node2&#45;&gt;Node3</title>
<path fill="none" stroke="midnightblue" d="M385.859,-224.083C385.859,-217.006 385.859,-206.861 385.859,-197.986"/>
<polygon fill="midnightblue" stroke="midnightblue" points="389.359,-197.751 385.859,-187.751 382.359,-197.751 389.359,-197.751"/>
</g>
<!-- Node10 -->
<g id="node21" class="node"><title>Node10</title>
<a xlink:href="SpeciesThermo_8h.html" target="_top" xlink:title="Virtual base class for the calculation of multiple&#45;species thermodynamic reference&#45;state property man...">
<polygon fill="white" stroke="black" points="492.359,-168.5 492.359,-187.5 589.359,-187.5 589.359,-168.5 492.359,-168.5"/>
<text text-anchor="middle" x="540.859" y="-175.5" font-family="FreeSans" font-size="10.00">SpeciesThermo.h</text>
</a>
</g>
<!-- Node2&#45;&gt;Node10 -->
<g id="edge22" class="edge"><title>Node2&#45;&gt;Node10</title>
<path fill="none" stroke="midnightblue" d="M410.419,-224.444C436.382,-215.399 477.527,-201.064 506.656,-190.916"/>
<polygon fill="midnightblue" stroke="midnightblue" points="508.122,-194.112 516.414,-187.516 505.819,-187.501 508.122,-194.112"/>
</g>
<!-- Node4 -->
<g id="node7" class="node"><title>Node4</title>
<a xlink:href="vec__functions_8h.html" target="_top" xlink:title="Templates for operations on vector&#45;like objects.">
<polygon fill="white" stroke="red" points="152.359,-112.5 152.359,-131.5 299.359,-131.5 299.359,-112.5 152.359,-112.5"/>
<text text-anchor="middle" x="225.859" y="-119.5" font-family="FreeSans" font-size="10.00">cantera/base/vec_functions.h</text>
</a>
</g>
<!-- Node3&#45;&gt;Node4 -->
<g id="edge6" class="edge"><title>Node3&#45;&gt;Node4</title>
<path fill="none" stroke="midnightblue" d="M360.507,-168.444C333.59,-159.359 290.863,-144.939 260.772,-134.783"/>
<polygon fill="midnightblue" stroke="midnightblue" points="261.687,-131.398 251.093,-131.516 259.449,-138.031 261.687,-131.398"/>
</g>
<!-- Node8 -->
<g id="node15" class="node"><title>Node8</title>
<a xlink:href="ctml_8h.html" target="_top" xlink:title="CTML (&quot;Cantera Markup Language&quot;) is the variant of XML that Cantera uses to store data...">
<polygon fill="white" stroke="red" points="471.859,-112.5 471.859,-131.5 575.859,-131.5 575.859,-112.5 471.859,-112.5"/>
<text text-anchor="middle" x="523.859" y="-119.5" font-family="FreeSans" font-size="10.00">cantera/base/ctml.h</text>
</a>
</g>
<!-- Node3&#45;&gt;Node8 -->
<g id="edge14" class="edge"><title>Node3&#45;&gt;Node8</title>
<path fill="none" stroke="midnightblue" d="M407.726,-168.444C430.639,-159.478 466.834,-145.314 492.726,-135.183"/>
<polygon fill="midnightblue" stroke="midnightblue" points="494.058,-138.42 502.095,-131.516 491.507,-131.901 494.058,-138.42"/>
</g>
<!-- Node9 -->
<g id="node18" class="node"><title>Node9</title>
<a xlink:href="Elements_8h.html" target="_top" xlink:title="Contains the LookupWtElements function and the definitions of element constraint types.">
<polygon fill="white" stroke="black" points="317.859,-112.5 317.859,-131.5 453.859,-131.5 453.859,-112.5 317.859,-112.5"/>
<text text-anchor="middle" x="385.859" y="-119.5" font-family="FreeSans" font-size="10.00">cantera/thermo/Elements.h</text>
</a>
</g>
<!-- Node3&#45;&gt;Node9 -->
<g id="edge18" class="edge"><title>Node3&#45;&gt;Node9</title>
<path fill="none" stroke="midnightblue" d="M385.859,-168.083C385.859,-161.006 385.859,-150.861 385.859,-141.986"/>
<polygon fill="midnightblue" stroke="midnightblue" points="389.359,-141.751 385.859,-131.751 382.359,-141.751 389.359,-141.751"/>
</g>
<!-- Node5 -->
<g id="node9" class="node"><title>Node5</title>
<a xlink:href="ct__defs_8h.html" target="_top" xlink:title="This file contains definitions of terms that are used in internal routines and are unlikely to need m...">
<polygon fill="white" stroke="red" points="357.859,-56.5 357.859,-75.5 413.859,-75.5 413.859,-56.5 357.859,-56.5"/>
<text text-anchor="middle" x="385.859" y="-63.5" font-family="FreeSans" font-size="10.00">ct_defs.h</text>
</a>
</g>
<!-- Node4&#45;&gt;Node5 -->
<g id="edge8" class="edge"><title>Node4&#45;&gt;Node5</title>
<path fill="none" stroke="midnightblue" d="M251.212,-112.444C278.128,-103.359 320.855,-88.9388 350.946,-78.7831"/>
<polygon fill="midnightblue" stroke="midnightblue" points="352.27,-82.0305 360.625,-75.5164 350.031,-75.3981 352.27,-82.0305"/>
</g>
<!-- Node7 -->
<g id="node13" class="node"><title>Node7</title>
<polygon fill="white" stroke="#bfbfbf" points="95.8591,-56.5 95.8591,-75.5 151.859,-75.5 151.859,-56.5 95.8591,-56.5"/>
<text text-anchor="middle" x="123.859" y="-63.5" font-family="FreeSans" font-size="10.00">iostream</text>
</g>
<!-- Node4&#45;&gt;Node7 -->
<g id="edge12" class="edge"><title>Node4&#45;&gt;Node7</title>
<path fill="none" stroke="midnightblue" d="M209.471,-112.324C193.188,-103.703 167.992,-90.3643 149.143,-80.3855"/>
<polygon fill="midnightblue" stroke="midnightblue" points="150.682,-77.2402 140.206,-75.6545 147.407,-83.4267 150.682,-77.2402"/>
</g>
<!-- Node6 -->
<g id="node11" class="node"><title>Node6</title>
<polygon fill="white" stroke="#bfbfbf" points="35.3591,-0.5 35.3591,-19.5 76.3591,-19.5 76.3591,-0.5 35.3591,-0.5"/>
<text text-anchor="middle" x="55.8591" y="-7.5" font-family="FreeSans" font-size="10.00">string</text>
</g>
<!-- Node5&#45;&gt;Node6 -->
<g id="edge10" class="edge"><title>Node5&#45;&gt;Node6</title>
<path fill="none" stroke="midnightblue" d="M357.723,-60.396C296.282,-50.3419 150.515,-26.4891 86.6892,-16.0449"/>
<polygon fill="midnightblue" stroke="midnightblue" points="86.9009,-12.5331 76.4669,-14.3722 85.7704,-19.4412 86.9009,-12.5331"/>
</g>
<!-- Node8&#45;&gt;Node5 -->
<g id="edge16" class="edge"><title>Node8&#45;&gt;Node5</title>
<path fill="none" stroke="midnightblue" d="M501.993,-112.444C479.08,-103.478 442.884,-89.314 416.993,-79.1827"/>
<polygon fill="midnightblue" stroke="midnightblue" points="418.211,-75.9011 407.623,-75.5164 415.66,-82.4198 418.211,-75.9011"/>
</g>
<!-- Node9&#45;&gt;Node5 -->
<g id="edge20" class="edge"><title>Node9&#45;&gt;Node5</title>
<path fill="none" stroke="midnightblue" d="M385.859,-112.083C385.859,-105.006 385.859,-94.8611 385.859,-85.9865"/>
<polygon fill="midnightblue" stroke="midnightblue" points="389.359,-85.751 385.859,-75.7511 382.359,-85.7511 389.359,-85.751"/>
</g>
<!-- Node10&#45;&gt;Node5 -->
<g id="edge24" class="edge"><title>Node10&#45;&gt;Node5</title>
<path fill="none" stroke="midnightblue" d="M553.941,-168.493C571.886,-155.783 600.257,-131.268 584.859,-112 565.155,-87.3421 476.438,-75.2069 424.348,-70.1091"/>
<polygon fill="midnightblue" stroke="midnightblue" points="424.421,-66.6008 414.138,-69.1539 423.769,-73.5703 424.421,-66.6008"/>
</g>
<!-- Node12&#45;&gt;Node6 -->
<g id="edge38" class="edge"><title>Node12&#45;&gt;Node6</title>
<path fill="none" stroke="midnightblue" d="M57.6744,-168.488C39.3201,-161.801 17.8435,-150.45 6.85906,-132 -14.0906,-96.8112 18.9464,-51.0142 40.1954,-27.1159"/>
<polygon fill="midnightblue" stroke="midnightblue" points="42.8968,-29.3495 47.112,-19.6293 37.7552,-24.5994 42.8968,-29.3495"/>
</g>
<!-- Node12&#45;&gt;Node7 -->
<g id="edge36" class="edge"><title>Node12&#45;&gt;Node7</title>
<path fill="none" stroke="midnightblue" d="M92.8306,-168.404C95.9283,-159.371 100.877,-144.733 104.859,-132 109.739,-116.396 114.923,-98.564 118.642,-85.5295"/>
<polygon fill="midnightblue" stroke="midnightblue" points="122.022,-86.4384 121.382,-75.8629 115.287,-84.5294 122.022,-86.4384"/>
</g>
<!-- Node13 -->
<g id="node28" class="node"><title>Node13</title>
<a xlink:href="ctexceptions_8h.html" target="_top" xlink:title="Definitions for the classes that are thrown when Cantera experiences an error condition (also contain...">
<polygon fill="white" stroke="red" points="15.8591,-112.5 15.8591,-131.5 95.8591,-131.5 95.8591,-112.5 15.8591,-112.5"/>
<text text-anchor="middle" x="55.8591" y="-119.5" font-family="FreeSans" font-size="10.00">ctexceptions.h</text>
</a>
</g>
<!-- Node12&#45;&gt;Node13 -->
<g id="edge30" class="edge"><title>Node12&#45;&gt;Node13</title>
<path fill="none" stroke="midnightblue" d="M84.2447,-168.083C79.4916,-160.534 72.541,-149.495 66.7074,-140.23"/>
<polygon fill="midnightblue" stroke="midnightblue" points="69.659,-138.349 61.369,-131.751 63.7354,-142.078 69.659,-138.349"/>
</g>
<!-- Node13&#45;&gt;Node6 -->
<g id="edge34" class="edge"><title>Node13&#45;&gt;Node6</title>
<path fill="none" stroke="midnightblue" d="M55.8591,-112.368C55.8591,-94.617 55.8591,-53.6664 55.8591,-29.5974"/>
<polygon fill="midnightblue" stroke="midnightblue" points="59.3592,-29.5914 55.8591,-19.5914 52.3592,-29.5915 59.3592,-29.5914"/>
</g>
<!-- Node13&#45;&gt;Node7 -->
<g id="edge32" class="edge"><title>Node13&#45;&gt;Node7</title>
<path fill="none" stroke="midnightblue" d="M66.7844,-112.324C77.0337,-104.185 92.5797,-91.8395 104.86,-82.0874"/>
<polygon fill="midnightblue" stroke="midnightblue" points="107.08,-84.7937 112.735,-75.8339 102.727,-79.3119 107.08,-84.7937"/>
</g>
</g>
</svg>
