<?xml version="1.0" encoding="UTF-8" standalone="no"?>
<!DOCTYPE svg PUBLIC "-//W3C//DTD SVG 1.1//EN"
 "http://www.w3.org/Graphics/SVG/1.1/DTD/svg11.dtd">
<!-- Generated by graphviz version 2.28.0 (20120425.2022)
 -->
<!-- Title: ReactionData.h Pages: 1 -->
<svg width="1965pt" height="308pt"
 viewBox="0.00 0.00 1964.64 308.00" xmlns="http://www.w3.org/2000/svg" xmlns:xlink="http://www.w3.org/1999/xlink">
<g id="graph1" class="graph" transform="scale(1 1) rotate(0) translate(4 304)">
<title>ReactionData.h</title>
<polygon fill="white" stroke="white" points="-4,5 -4,-304 1961.64,-304 1961.64,5 -4,5"/>
<!-- Node1 -->
<g id="node1" class="node"><title>Node1</title>
<polygon fill="#bfbfbf" stroke="black" points="1650,-280.5 1650,-299.5 1736,-299.5 1736,-280.5 1650,-280.5"/>
<text text-anchor="middle" x="1693" y="-287.5" font-family="FreeSans" font-size="10.00">ReactionData.h</text>
</g>
<!-- Node2 -->
<g id="node3" class="node"><title>Node2</title>
<a xlink:href="AqueousKinetics_8cpp.html" target="_top" xlink:title="Homogeneous kinetics in an aqueous phase, either condensed or dilute in salts. ">
<polygon fill="white" stroke="black" points="1735,-56.5 1735,-75.5 1845,-75.5 1845,-56.5 1735,-56.5"/>
<text text-anchor="middle" x="1790" y="-63.5" font-family="FreeSans" font-size="10.00">AqueousKinetics.cpp</text>
</a>
</g>
<!-- Node1&#45;&gt;Node2 -->
<g id="edge2" class="edge"><title>Node1&#45;&gt;Node2</title>
<path fill="none" stroke="midnightblue" d="M1717.81,-274.911C1729.26,-267.195 1742.04,-256.625 1750,-244 1785.61,-187.498 1789.67,-103.192 1790.02,-75.8815"/>
<polygon fill="midnightblue" stroke="midnightblue" points="1715.61,-272.163 1709.04,-280.473 1719.36,-278.076 1715.61,-272.163"/>
</g>
<!-- Node3 -->
<g id="node5" class="node"><title>Node3</title>
<a xlink:href="GasKinetics_8cpp.html" target="_top" xlink:title="Homogeneous kinetics in ideal gases. ">
<polygon fill="white" stroke="black" points="1589.5,-56.5 1589.5,-75.5 1678.5,-75.5 1678.5,-56.5 1589.5,-56.5"/>
<text text-anchor="middle" x="1634" y="-63.5" font-family="FreeSans" font-size="10.00">GasKinetics.cpp</text>
</a>
</g>
<!-- Node1&#45;&gt;Node3 -->
<g id="edge4" class="edge"><title>Node1&#45;&gt;Node3</title>
<path fill="none" stroke="midnightblue" d="M1667.37,-275.075C1655.7,-267.424 1642.78,-256.862 1635,-244 1604.3,-193.224 1603.23,-170.156 1615,-112 1617.69,-98.7013 1624.44,-84.4478 1629.12,-75.6279"/>
<polygon fill="midnightblue" stroke="midnightblue" points="1665.6,-278.094 1675.95,-280.349 1669.27,-272.13 1665.6,-278.094"/>
</g>
<!-- Node4 -->
<g id="node7" class="node"><title>Node4</title>
<a xlink:href="GRI__30__Kinetics_8cpp.html" target="_top" xlink:title="GRI_30_Kinetics.cpp">
<polygon fill="white" stroke="black" points="1819.5,-0.5 1819.5,-19.5 1926.5,-19.5 1926.5,-0.5 1819.5,-0.5"/>
<text text-anchor="middle" x="1873" y="-7.5" font-family="FreeSans" font-size="10.00">GRI_30_Kinetics.cpp</text>
</a>
</g>
<!-- Node1&#45;&gt;Node4 -->
<g id="edge6" class="edge"><title>Node1&#45;&gt;Node4</title>
<path fill="none" stroke="midnightblue" d="M1746.28,-285.501C1809.13,-280.312 1908.57,-268.431 1936,-244 1958.57,-223.895 1956,-209.225 1956,-179 1956,-179 1956,-179 1956,-121 1956,-75.0665 1909.31,-36.1582 1885.97,-19.575"/>
<polygon fill="midnightblue" stroke="midnightblue" points="1745.83,-282.026 1736.14,-286.307 1746.39,-289.004 1745.83,-282.026"/>
</g>
<!-- Node5 -->
<g id="node9" class="node"><title>Node5</title>
<a xlink:href="importKinetics_8cpp.html" target="_top" xlink:title="Declarations of global routines for the importing of kinetics data from XML files (see Input File Han...">
<polygon fill="white" stroke="black" points="1644.5,-224.5 1644.5,-243.5 1741.5,-243.5 1741.5,-224.5 1644.5,-224.5"/>
<text text-anchor="middle" x="1693" y="-231.5" font-family="FreeSans" font-size="10.00">importKinetics.cpp</text>
</a>
</g>
<!-- Node1&#45;&gt;Node5 -->
<g id="edge8" class="edge"><title>Node1&#45;&gt;Node5</title>
<path fill="none" stroke="midnightblue" d="M1693,-269.805C1693,-260.91 1693,-250.78 1693,-243.751"/>
<polygon fill="midnightblue" stroke="midnightblue" points="1689.5,-270.083 1693,-280.083 1696.5,-270.083 1689.5,-270.083"/>
</g>
<!-- Node6 -->
<g id="node11" class="node"><title>Node6</title>
<a xlink:href="InterfaceKinetics_8cpp.html" target="_top" xlink:title="InterfaceKinetics.cpp">
<polygon fill="white" stroke="black" points="90,-0.5 90,-19.5 198,-19.5 198,-0.5 90,-0.5"/>
<text text-anchor="middle" x="144" y="-7.5" font-family="FreeSans" font-size="10.00">InterfaceKinetics.cpp</text>
</a>
</g>
<!-- Node1&#45;&gt;Node6 -->
<g id="edge10" class="edge"><title>Node1&#45;&gt;Node6</title>
<path fill="none" stroke="midnightblue" d="M1639.68,-286.023C1410.55,-272.806 509.007,-216.344 239,-132 189.264,-116.464 162.629,-120.788 136,-76 125.425,-58.2132 133.93,-32.8639 139.73,-19.6951"/>
<polygon fill="midnightblue" stroke="midnightblue" points="1639.58,-289.523 1649.76,-286.602 1639.98,-282.534 1639.58,-289.523"/>
</g>
<!-- Node7 -->
<g id="node13" class="node"><title>Node7</title>
<a xlink:href="ReactionStoichMgr_8cpp.html" target="_top" xlink:title="ReactionStoichMgr.cpp">
<polygon fill="white" stroke="black" points="1808.5,-224.5 1808.5,-243.5 1927.5,-243.5 1927.5,-224.5 1808.5,-224.5"/>
<text text-anchor="middle" x="1868" y="-231.5" font-family="FreeSans" font-size="10.00">ReactionStoichMgr.cpp</text>
</a>
</g>
<!-- Node1&#45;&gt;Node7 -->
<g id="edge12" class="edge"><title>Node1&#45;&gt;Node7</title>
<path fill="none" stroke="midnightblue" d="M1730.47,-277.436C1763.47,-267.255 1810.76,-252.664 1840.4,-243.516"/>
<polygon fill="midnightblue" stroke="midnightblue" points="1729.25,-274.151 1720.73,-280.444 1731.32,-280.839 1729.25,-274.151"/>
</g>
<!-- Node8 -->
<g id="node15" class="node"><title>Node8</title>
<a xlink:href="RxnRates_8h.html" target="_top" xlink:title="RxnRates.h">
<polygon fill="white" stroke="black" points="1496,-224.5 1496,-243.5 1564,-243.5 1564,-224.5 1496,-224.5"/>
<text text-anchor="middle" x="1530" y="-231.5" font-family="FreeSans" font-size="10.00">RxnRates.h</text>
</a>
</g>
<!-- Node1&#45;&gt;Node8 -->
<g id="edge14" class="edge"><title>Node1&#45;&gt;Node8</title>
<path fill="none" stroke="midnightblue" d="M1657.3,-277.172C1626.6,-267.004 1583.08,-252.585 1555.71,-243.516"/>
<polygon fill="midnightblue" stroke="midnightblue" points="1656.58,-280.621 1667.17,-280.444 1658.78,-273.976 1656.58,-280.621"/>
</g>
<!-- Node9 -->
<g id="node17" class="node"><title>Node9</title>
<a xlink:href="RateCoeffMgr_8h.html" target="_top" xlink:title="RateCoeffMgr.h">
<polygon fill="white" stroke="black" points="1482,-168.5 1482,-187.5 1568,-187.5 1568,-168.5 1482,-168.5"/>
<text text-anchor="middle" x="1525" y="-175.5" font-family="FreeSans" font-size="10.00">RateCoeffMgr.h</text>
</a>
</g>
<!-- Node8&#45;&gt;Node9 -->
<g id="edge16" class="edge"><title>Node8&#45;&gt;Node9</title>
<path fill="none" stroke="midnightblue" d="M1528.25,-214.101C1527.42,-205.136 1526.47,-194.858 1525.81,-187.751"/>
<polygon fill="midnightblue" stroke="midnightblue" points="1524.77,-214.448 1529.17,-224.083 1531.74,-213.803 1524.77,-214.448"/>
</g>
<!-- Node9&#45;&gt;Node2 -->
<g id="edge18" class="edge"><title>Node9&#45;&gt;Node2</title>
<path fill="none" stroke="midnightblue" d="M1578.32,-174.663C1622.45,-170.66 1685.39,-160.02 1733,-132 1757.06,-117.84 1776.25,-89.943 1784.94,-75.7458"/>
<polygon fill="midnightblue" stroke="midnightblue" points="1577.76,-171.197 1568.08,-175.504 1578.34,-178.173 1577.76,-171.197"/>
</g>
<!-- Node9&#45;&gt;Node3 -->
<g id="edge20" class="edge"><title>Node9&#45;&gt;Node3</title>
<path fill="none" stroke="midnightblue" d="M1538.54,-160.32C1549.73,-146.845 1566.28,-127.619 1582,-112 1595.55,-98.5371 1612.48,-84.3247 1623.26,-75.5586"/>
<polygon fill="midnightblue" stroke="midnightblue" points="1535.67,-158.302 1532.02,-168.25 1541.07,-162.747 1535.67,-158.302"/>
</g>
<!-- Node9&#45;&gt;Node4 -->
<g id="edge22" class="edge"><title>Node9&#45;&gt;Node4</title>
<path fill="none" stroke="midnightblue" d="M1577.98,-172.044C1626.35,-166.309 1699.21,-154.596 1759,-132 1804.85,-114.674 1823.9,-114.681 1854,-76 1867.14,-59.1127 1871.2,-33.3839 1872.45,-19.9206"/>
<polygon fill="midnightblue" stroke="midnightblue" points="1577.58,-168.567 1568.04,-173.179 1578.38,-175.522 1577.58,-168.567"/>
</g>
<!-- Node9&#45;&gt;Node6 -->
<g id="edge24" class="edge"><title>Node9&#45;&gt;Node6</title>
<path fill="none" stroke="midnightblue" d="M1471.6,-177.168C1229.51,-177.397 242.652,-172.378 149,-76 134.329,-60.9022 138.338,-33.4304 141.626,-19.5355"/>
<polygon fill="midnightblue" stroke="midnightblue" points="1471.91,-180.668 1481.9,-177.155 1471.9,-173.668 1471.91,-180.668"/>
</g>
<!-- Node10 -->
<g id="node23" class="node"><title>Node10</title>
<a xlink:href="Kinetics_8cpp.html" target="_top" xlink:title="Declarations for the base class for kinetics managers (see Kinetics Managers and class Kinetics)...">
<polygon fill="white" stroke="black" points="0,-0.5 0,-19.5 70,-19.5 70,-0.5 0,-0.5"/>
<text text-anchor="middle" x="35" y="-7.5" font-family="FreeSans" font-size="10.00">Kinetics.cpp</text>
</a>
</g>
<!-- Node9&#45;&gt;Node10 -->
<g id="edge26" class="edge"><title>Node9&#45;&gt;Node10</title>
<path fill="none" stroke="midnightblue" d="M1471.86,-176.58C1244.41,-174.586 359.056,-164.772 239,-132 156.373,-109.445 73.3429,-43.6629 45.1116,-19.7876"/>
<polygon fill="midnightblue" stroke="midnightblue" points="1471.84,-180.08 1481.87,-176.666 1471.9,-173.08 1471.84,-180.08"/>
</g>
<!-- Node11 -->
<g id="node25" class="node"><title>Node11</title>
<a xlink:href="InterfaceKinetics_8h.html" target="_top" xlink:title="InterfaceKinetics.h">
<polygon fill="white" stroke="black" points="687,-112.5 687,-131.5 785,-131.5 785,-112.5 687,-112.5"/>
<text text-anchor="middle" x="736" y="-119.5" font-family="FreeSans" font-size="10.00">InterfaceKinetics.h</text>
</a>
</g>
<!-- Node9&#45;&gt;Node11 -->
<g id="edge28" class="edge"><title>Node9&#45;&gt;Node11</title>
<path fill="none" stroke="midnightblue" d="M1471.73,-173.354C1326.56,-163.418 925.433,-135.965 785.183,-126.366"/>
<polygon fill="midnightblue" stroke="midnightblue" points="1471.52,-176.848 1481.74,-174.039 1472,-169.864 1471.52,-176.848"/>
</g>
<!-- Node24 -->
<g id="node58" class="node"><title>Node24</title>
<a xlink:href="GasKinetics_8h.html" target="_top" xlink:title="GasKinetics.h">
<polygon fill="white" stroke="black" points="1404.5,-112.5 1404.5,-131.5 1483.5,-131.5 1483.5,-112.5 1404.5,-112.5"/>
<text text-anchor="middle" x="1444" y="-119.5" font-family="FreeSans" font-size="10.00">GasKinetics.h</text>
</a>
</g>
<!-- Node9&#45;&gt;Node24 -->
<g id="edge68" class="edge"><title>Node9&#45;&gt;Node24</title>
<path fill="none" stroke="midnightblue" d="M1503.43,-162.622C1488.64,-152.757 1469.49,-139.992 1456.98,-131.655"/>
<polygon fill="midnightblue" stroke="midnightblue" points="1501.72,-165.689 1511.99,-168.324 1505.61,-159.865 1501.72,-165.689"/>
</g>
<!-- Node27 -->
<g id="node69" class="node"><title>Node27</title>
<a xlink:href="AqueousKinetics_8h.html" target="_top" xlink:title="AqueousKinetics.h">
<polygon fill="white" stroke="black" points="1624,-112.5 1624,-131.5 1724,-131.5 1724,-112.5 1624,-112.5"/>
<text text-anchor="middle" x="1674" y="-119.5" font-family="FreeSans" font-size="10.00">AqueousKinetics.h</text>
</a>
</g>
<!-- Node9&#45;&gt;Node27 -->
<g id="edge84" class="edge"><title>Node9&#45;&gt;Node27</title>
<path fill="none" stroke="midnightblue" d="M1558.37,-164.906C1586.38,-154.754 1625.7,-140.506 1650.5,-131.516"/>
<polygon fill="midnightblue" stroke="midnightblue" points="1556.82,-161.746 1548.61,-168.444 1559.2,-168.327 1556.82,-161.746"/>
</g>
<!-- Node11&#45;&gt;Node6 -->
<g id="edge30" class="edge"><title>Node11&#45;&gt;Node6</title>
<path fill="none" stroke="midnightblue" d="M676.368,-119.959C538.341,-117.035 205.598,-106.834 166,-76 148.516,-62.3856 144.825,-34.2416 144.113,-19.8682"/>
<polygon fill="midnightblue" stroke="midnightblue" points="676.681,-123.466 686.751,-120.173 676.825,-116.468 676.681,-123.466"/>
</g>
<!-- Node12 -->
<g id="node28" class="node"><title>Node12</title>
<a xlink:href="KineticsFactory_8cpp.html" target="_top" xlink:title="KineticsFactory.cpp">
<polygon fill="white" stroke="black" points="1294,-0.5 1294,-19.5 1398,-19.5 1398,-0.5 1294,-0.5"/>
<text text-anchor="middle" x="1346" y="-7.5" font-family="FreeSans" font-size="10.00">KineticsFactory.cpp</text>
</a>
</g>
<!-- Node11&#45;&gt;Node12 -->
<g id="edge32" class="edge"><title>Node11&#45;&gt;Node12</title>
<path fill="none" stroke="midnightblue" d="M795.255,-118.286C905.127,-112.78 1136.25,-98.8422 1213,-76 1231.29,-70.5559 1233.93,-64.5314 1251,-56 1277.28,-42.8657 1308.08,-28.4533 1327.32,-19.5654"/>
<polygon fill="midnightblue" stroke="midnightblue" points="794.825,-114.803 785.01,-118.793 795.171,-121.794 794.825,-114.803"/>
</g>
<!-- Node13 -->
<g id="node30" class="node"><title>Node13</title>
<a xlink:href="ConstPressureReactor_8cpp.html" target="_top" xlink:title="A constant pressure zero&#45;dimensional reactor. ">
<polygon fill="white" stroke="black" points="579.5,-56.5 579.5,-75.5 716.5,-75.5 716.5,-56.5 579.5,-56.5"/>
<text text-anchor="middle" x="648" y="-63.5" font-family="FreeSans" font-size="10.00">ConstPressureReactor.cpp</text>
</a>
</g>
<!-- Node11&#45;&gt;Node13 -->
<g id="edge34" class="edge"><title>Node11&#45;&gt;Node13</title>
<path fill="none" stroke="midnightblue" d="M713.023,-106.901C696.887,-96.9986 675.819,-84.0705 662.104,-75.6545"/>
<polygon fill="midnightblue" stroke="midnightblue" points="711.507,-110.077 721.861,-112.324 715.169,-104.111 711.507,-110.077"/>
</g>
<!-- Node14 -->
<g id="node32" class="node"><title>Node14</title>
<a xlink:href="IdealGasConstPressureReactor_8cpp_source.html" target="_top" xlink:title="IdealGasConstPressureReactor.cpp">
<polygon fill="white" stroke="black" points="734.5,-56.5 734.5,-75.5 913.5,-75.5 913.5,-56.5 734.5,-56.5"/>
<text text-anchor="middle" x="824" y="-63.5" font-family="FreeSans" font-size="10.00">IdealGasConstPressureReactor.cpp</text>
</a>
</g>
<!-- Node11&#45;&gt;Node14 -->
<g id="edge36" class="edge"><title>Node11&#45;&gt;Node14</title>
<path fill="none" stroke="midnightblue" d="M758.977,-106.901C775.113,-96.9986 796.181,-84.0705 809.896,-75.6545"/>
<polygon fill="midnightblue" stroke="midnightblue" points="756.831,-104.111 750.139,-112.324 760.493,-110.077 756.831,-104.111"/>
</g>
<!-- Node15 -->
<g id="node34" class="node"><title>Node15</title>
<a xlink:href="IdealGasReactor_8cpp.html" target="_top" xlink:title="A zero&#45;dimensional reactor. ">
<polygon fill="white" stroke="black" points="932,-56.5 932,-75.5 1044,-75.5 1044,-56.5 932,-56.5"/>
<text text-anchor="middle" x="988" y="-63.5" font-family="FreeSans" font-size="10.00">IdealGasReactor.cpp</text>
</a>
</g>
<!-- Node11&#45;&gt;Node15 -->
<g id="edge38" class="edge"><title>Node11&#45;&gt;Node15</title>
<path fill="none" stroke="midnightblue" d="M785.721,-110.346C833.344,-100.141 904.28,-84.94 948.257,-75.5164"/>
<polygon fill="midnightblue" stroke="midnightblue" points="784.975,-106.926 775.93,-112.444 786.442,-113.77 784.975,-106.926"/>
</g>
<!-- Node16 -->
<g id="node36" class="node"><title>Node16</title>
<a xlink:href="Reactor_8cpp.html" target="_top" xlink:title="A zero&#45;dimensional reactor. ">
<polygon fill="white" stroke="black" points="1062,-56.5 1062,-75.5 1132,-75.5 1132,-56.5 1062,-56.5"/>
<text text-anchor="middle" x="1097" y="-63.5" font-family="FreeSans" font-size="10.00">Reactor.cpp</text>
</a>
</g>
<!-- Node11&#45;&gt;Node16 -->
<g id="edge40" class="edge"><title>Node11&#45;&gt;Node16</title>
<path fill="none" stroke="midnightblue" d="M795.366,-113.554C858.991,-105.338 962.877,-91.2459 1052,-76 1055.14,-75.4626 1058.4,-74.8735 1061.66,-74.2618"/>
<polygon fill="midnightblue" stroke="midnightblue" points="794.596,-110.124 785.124,-114.87 795.488,-117.067 794.596,-110.124"/>
</g>
<!-- Node17 -->
<g id="node38" class="node"><title>Node17</title>
<a xlink:href="Wall_8cpp.html" target="_top" xlink:title="Wall.cpp">
<polygon fill="white" stroke="black" points="1150,-56.5 1150,-75.5 1204,-75.5 1204,-56.5 1150,-56.5"/>
<text text-anchor="middle" x="1177" y="-63.5" font-family="FreeSans" font-size="10.00">Wall.cpp</text>
</a>
</g>
<!-- Node11&#45;&gt;Node17 -->
<g id="edge42" class="edge"><title>Node11&#45;&gt;Node17</title>
<path fill="none" stroke="midnightblue" d="M795.522,-116.902C874.803,-110.871 1019.22,-97.8859 1141,-76 1143.92,-75.4758 1146.95,-74.8494 1149.96,-74.1745"/>
<polygon fill="midnightblue" stroke="midnightblue" points="794.955,-113.435 785.245,-117.673 795.479,-120.415 794.955,-113.435"/>
</g>
<!-- Node18 -->
<g id="node40" class="node"><title>Node18</title>
<a xlink:href="EdgeKinetics_8h.html" target="_top" xlink:title="EdgeKinetics.h">
<polygon fill="white" stroke="red" points="439.5,-56.5 439.5,-75.5 522.5,-75.5 522.5,-56.5 439.5,-56.5"/>
<text text-anchor="middle" x="481" y="-63.5" font-family="FreeSans" font-size="10.00">EdgeKinetics.h</text>
</a>
</g>
<!-- Node11&#45;&gt;Node18 -->
<g id="edge44" class="edge"><title>Node11&#45;&gt;Node18</title>
<path fill="none" stroke="midnightblue" d="M685.688,-110.346C637.497,-100.141 565.717,-84.94 521.216,-75.5164"/>
<polygon fill="midnightblue" stroke="midnightblue" points="685.086,-113.796 695.594,-112.444 686.537,-106.948 685.086,-113.796"/>
</g>
<!-- Node19 -->
<g id="node44" class="node"><title>Node19</title>
<a xlink:href="kinetics_8h_source.html" target="_top" xlink:title="kinetics.h">
<polygon fill="white" stroke="red" points="1260,-56.5 1260,-75.5 1318,-75.5 1318,-56.5 1260,-56.5"/>
<text text-anchor="middle" x="1289" y="-63.5" font-family="FreeSans" font-size="10.00">kinetics.h</text>
</a>
</g>
<!-- Node11&#45;&gt;Node19 -->
<g id="edge50" class="edge"><title>Node11&#45;&gt;Node19</title>
<path fill="none" stroke="midnightblue" d="M795.124,-118.06C890.428,-112.81 1083.76,-100.051 1246,-76 1250.53,-75.329 1255.29,-74.4781 1259.94,-73.5685"/>
<polygon fill="midnightblue" stroke="midnightblue" points="794.898,-114.567 785.102,-118.604 795.277,-121.556 794.898,-114.567"/>
</g>
<!-- Node20 -->
<g id="node46" class="node"><title>Node20</title>
<a xlink:href="ImplicitSurfChem_8h.html" target="_top" xlink:title="Declarations for the implicit integration of surface site density equations (see Kinetics Managers an...">
<polygon fill="white" stroke="red" points="175,-56.5 175,-75.5 273,-75.5 273,-56.5 175,-56.5"/>
<text text-anchor="middle" x="224" y="-63.5" font-family="FreeSans" font-size="10.00">ImplicitSurfChem.h</text>
</a>
</g>
<!-- Node11&#45;&gt;Node20 -->
<g id="edge52" class="edge"><title>Node11&#45;&gt;Node20</title>
<path fill="none" stroke="midnightblue" d="M676.673,-116.171C589.861,-108.866 423.194,-93.9383 282,-76 279.068,-75.6276 276.057,-75.224 273.021,-74.8012"/>
<polygon fill="midnightblue" stroke="midnightblue" points="676.6,-119.677 686.857,-117.023 677.184,-112.701 676.6,-119.677"/>
</g>
<!-- Node21 -->
<g id="node50" class="node"><title>Node21</title>
<a xlink:href="solveSP_8h.html" target="_top" xlink:title="Header file for implicit surface problem solver (see Chemical Kinetics and class solveSP). ">
<polygon fill="white" stroke="red" points="216,-0.5 216,-19.5 278,-19.5 278,-0.5 216,-0.5"/>
<text text-anchor="middle" x="247" y="-7.5" font-family="FreeSans" font-size="10.00">solveSP.h</text>
</a>
</g>
<!-- Node11&#45;&gt;Node21 -->
<g id="edge62" class="edge"><title>Node11&#45;&gt;Node21</title>
<path fill="none" stroke="midnightblue" d="M685.355,-110.18C652.017,-102.353 607.728,-90.6023 570,-76 551.834,-68.9688 549.518,-62.0443 531,-56 442.019,-26.9565 331.032,-16.3173 278.007,-12.7031"/>
<polygon fill="midnightblue" stroke="midnightblue" points="684.799,-113.643 695.33,-112.482 686.373,-106.823 684.799,-113.643"/>
</g>
<!-- Node22 -->
<g id="node54" class="node"><title>Node22</title>
<a xlink:href="Inlet1D_8h.html" target="_top" xlink:title="Boundary objects for one&#45;dimensional simulations. ">
<polygon fill="white" stroke="red" points="291.5,-56.5 291.5,-75.5 346.5,-75.5 346.5,-56.5 291.5,-56.5"/>
<text text-anchor="middle" x="319" y="-63.5" font-family="FreeSans" font-size="10.00">Inlet1D.h</text>
</a>
</g>
<!-- Node11&#45;&gt;Node22 -->
<g id="edge64" class="edge"><title>Node11&#45;&gt;Node22</title>
<path fill="none" stroke="midnightblue" d="M676.768,-116.36C601.546,-109.928 467.941,-96.7003 355,-76 352.339,-75.5122 349.581,-74.9422 346.832,-74.3301"/>
<polygon fill="midnightblue" stroke="midnightblue" points="676.728,-119.868 686.987,-117.222 677.316,-112.893 676.728,-119.868"/>
</g>
<!-- Node23 -->
<g id="node56" class="node"><title>Node23</title>
<a xlink:href="surface_8h_source.html" target="_top" xlink:title="surface.h">
<polygon fill="white" stroke="black" points="364.5,-56.5 364.5,-75.5 421.5,-75.5 421.5,-56.5 364.5,-56.5"/>
<text text-anchor="middle" x="393" y="-63.5" font-family="FreeSans" font-size="10.00">surface.h</text>
</a>
</g>
<!-- Node11&#45;&gt;Node23 -->
<g id="edge66" class="edge"><title>Node11&#45;&gt;Node23</title>
<path fill="none" stroke="midnightblue" d="M676.772,-113.942C614.929,-106.187 515.25,-92.5997 430,-76 427.275,-75.4693 424.448,-74.8705 421.626,-74.2402"/>
<polygon fill="midnightblue" stroke="midnightblue" points="676.384,-117.421 686.74,-115.183 677.248,-110.474 676.384,-117.421"/>
</g>
<!-- Node18&#45;&gt;Node6 -->
<g id="edge46" class="edge"><title>Node18&#45;&gt;Node6</title>
<path fill="none" stroke="midnightblue" d="M429.235,-55.8978C342.408,-41.4632 253.49,-27.6756 198.079,-19.2023"/>
<polygon fill="midnightblue" stroke="midnightblue" points="428.823,-59.3774 439.262,-57.5694 429.974,-52.4726 428.823,-59.3774"/>
</g>
<!-- Node18&#45;&gt;Node12 -->
<g id="edge48" class="edge"><title>Node18&#45;&gt;Node12</title>
<path fill="none" stroke="midnightblue" d="M532.675,-59.396C544.904,-58.1747 557.905,-56.9618 570,-56 842.075,-34.3647 1168.6,-18.8276 1293.72,-13.257"/>
<polygon fill="midnightblue" stroke="midnightblue" points="532.217,-55.9245 522.622,-60.4184 532.925,-62.8885 532.217,-55.9245"/>
</g>
<!-- Node20&#45;&gt;Node6 -->
<g id="edge54" class="edge"><title>Node20&#45;&gt;Node6</title>
<path fill="none" stroke="midnightblue" d="M202.699,-50.6221C188.085,-40.7574 169.173,-27.9919 156.821,-19.6545"/>
<polygon fill="midnightblue" stroke="midnightblue" points="200.9,-53.6302 211.147,-56.324 204.816,-47.8282 200.9,-53.6302"/>
</g>
<!-- Node20&#45;&gt;Node10 -->
<g id="edge56" class="edge"><title>Node20&#45;&gt;Node10</title>
<path fill="none" stroke="midnightblue" d="M183.987,-53.5677C148.333,-43.381 96.962,-28.7034 64.8075,-19.5164"/>
<polygon fill="midnightblue" stroke="midnightblue" points="183.476,-57.0616 194.052,-56.4435 185.399,-50.3309 183.476,-57.0616"/>
</g>
<!-- Node20&#45;&gt;Node21 -->
<g id="edge58" class="edge"><title>Node20&#45;&gt;Node21</title>
<path fill="none" stroke="midnightblue" d="M225.473,-46.3956C228.658,-37.362 233.538,-26.936 238.142,-19.7511"/>
<polygon fill="midnightblue" stroke="midnightblue" points="222.088,-45.5021 222.632,-56.083 228.805,-47.4723 222.088,-45.5021"/>
</g>
<!-- Node21&#45;&gt;Node20 -->
<g id="edge60" class="edge"><title>Node21&#45;&gt;Node20</title>
<path fill="none" stroke="midnightblue" d="M245.6,-29.3968C242.441,-38.4087 237.572,-48.8486 232.964,-56.083"/>
<polygon fill="midnightblue" stroke="midnightblue" points="248.973,-30.3306 248.404,-19.7511 242.252,-28.3768 248.973,-30.3306"/>
</g>
<!-- Node24&#45;&gt;Node3 -->
<g id="edge70" class="edge"><title>Node24&#45;&gt;Node3</title>
<path fill="none" stroke="midnightblue" d="M1483.76,-109.699C1519.62,-99.507 1571.57,-84.7429 1604.03,-75.5164"/>
<polygon fill="midnightblue" stroke="midnightblue" points="1482.77,-106.343 1474.11,-112.444 1484.68,-113.076 1482.77,-106.343"/>
</g>
<!-- Node24&#45;&gt;Node12 -->
<g id="edge72" class="edge"><title>Node24&#45;&gt;Node12</title>
<path fill="none" stroke="midnightblue" d="M1409.45,-108.379C1393.86,-101.092 1376.43,-90.4612 1365,-76 1351.59,-59.0263 1347.64,-32.8732 1346.48,-19.5047"/>
<polygon fill="midnightblue" stroke="midnightblue" points="1408.29,-111.688 1418.85,-112.488 1411.09,-105.274 1408.29,-111.688"/>
</g>
<!-- Node24&#45;&gt;Node19 -->
<g id="edge82" class="edge"><title>Node24&#45;&gt;Node19</title>
<path fill="none" stroke="midnightblue" d="M1409.67,-109.039C1380.5,-98.8786 1339.36,-84.5457 1313.45,-75.5164"/>
<polygon fill="midnightblue" stroke="midnightblue" points="1408.84,-112.459 1419.44,-112.444 1411.15,-105.848 1408.84,-112.459"/>
</g>
<!-- Node25 -->
<g id="node62" class="node"><title>Node25</title>
<a xlink:href="GRI__30__Kinetics_8h.html" target="_top" xlink:title="GRI_30_Kinetics.h">
<polygon fill="white" stroke="red" points="1474.5,-56.5 1474.5,-75.5 1571.5,-75.5 1571.5,-56.5 1474.5,-56.5"/>
<text text-anchor="middle" x="1523" y="-63.5" font-family="FreeSans" font-size="10.00">GRI_30_Kinetics.h</text>
</a>
</g>
<!-- Node24&#45;&gt;Node25 -->
<g id="edge74" class="edge"><title>Node24&#45;&gt;Node25</title>
<path fill="none" stroke="midnightblue" d="M1465.03,-106.622C1479.47,-96.7574 1498.14,-83.9919 1510.34,-75.6545"/>
<polygon fill="midnightblue" stroke="midnightblue" points="1462.97,-103.791 1456.69,-112.324 1466.92,-109.57 1462.97,-103.791"/>
</g>
<!-- Node26 -->
<g id="node66" class="node"><title>Node26</title>
<a xlink:href="IdealGasMix_8h.html" target="_top" xlink:title="IdealGasMix.h">
<polygon fill="white" stroke="black" points="1374,-56.5 1374,-75.5 1456,-75.5 1456,-56.5 1374,-56.5"/>
<text text-anchor="middle" x="1415" y="-63.5" font-family="FreeSans" font-size="10.00">IdealGasMix.h</text>
</a>
</g>
<!-- Node24&#45;&gt;Node26 -->
<g id="edge80" class="edge"><title>Node24&#45;&gt;Node26</title>
<path fill="none" stroke="midnightblue" d="M1434.32,-102.983C1429.4,-93.8168 1423.64,-83.0922 1419.7,-75.7511"/>
<polygon fill="midnightblue" stroke="midnightblue" points="1431.4,-104.929 1439.21,-112.083 1437.56,-101.617 1431.4,-104.929"/>
</g>
<!-- Node25&#45;&gt;Node4 -->
<g id="edge76" class="edge"><title>Node25&#45;&gt;Node4</title>
<path fill="none" stroke="midnightblue" d="M1581.5,-55.7711C1670.48,-41.9274 1762.61,-27.8277 1819.26,-19.1849"/>
<polygon fill="midnightblue" stroke="midnightblue" points="1580.85,-52.33 1571.51,-57.3267 1581.93,-59.2466 1580.85,-52.33"/>
</g>
<!-- Node25&#45;&gt;Node12 -->
<g id="edge78" class="edge"><title>Node25&#45;&gt;Node12</title>
<path fill="none" stroke="midnightblue" d="M1485.1,-53.4363C1451.72,-43.2551 1403.9,-28.664 1373.91,-19.5164"/>
<polygon fill="midnightblue" stroke="midnightblue" points="1484.37,-56.8731 1494.95,-56.4435 1486.41,-50.1777 1484.37,-56.8731"/>
</g>
<!-- Node27&#45;&gt;Node2 -->
<g id="edge86" class="edge"><title>Node27&#45;&gt;Node2</title>
<path fill="none" stroke="midnightblue" d="M1701.72,-108.096C1723.39,-98.0073 1752.9,-84.2697 1771.71,-75.5164"/>
<polygon fill="midnightblue" stroke="midnightblue" points="1699.97,-105.05 1692.38,-112.444 1702.92,-111.396 1699.97,-105.05"/>
</g>
<!-- Node27&#45;&gt;Node12 -->
<g id="edge88" class="edge"><title>Node27&#45;&gt;Node12</title>
<path fill="none" stroke="midnightblue" d="M1684.77,-103.328C1692,-88.9314 1698.34,-68.937 1687,-56 1668.28,-34.6435 1489.05,-20.1766 1398.22,-14.1541"/>
<polygon fill="midnightblue" stroke="midnightblue" points="1681.61,-101.803 1679.82,-112.246 1687.73,-105.199 1681.61,-101.803"/>
</g>
</g>
</svg>
