<?xml version="1.0" encoding="UTF-8" standalone="no"?>
<!DOCTYPE svg PUBLIC "-//W3C//DTD SVG 1.1//EN"
 "http://www.w3.org/Graphics/SVG/1.1/DTD/svg11.dtd">
<!-- Generated by graphviz version 2.36.0 (20140111.2315)
 -->
<!-- Title: ReactionPath.cpp Pages: 1 -->
<svg width="706pt" height="388pt"
 viewBox="0.00 0.00 706.35 388.00" xmlns="http://www.w3.org/2000/svg" xmlns:xlink="http://www.w3.org/1999/xlink">
<g id="graph0" class="graph" transform="scale(1 1) rotate(0) translate(4 384)">
<title>ReactionPath.cpp</title>
<polygon fill="white" stroke="none" points="-4,4 -4,-384 702.348,-384 702.348,4 -4,4"/>
<!-- Node1 -->
<g id="node1" class="node"><title>Node1</title>
<polygon fill="#bfbfbf" stroke="black" points="176.5,-360.5 176.5,-379.5 269.5,-379.5 269.5,-360.5 176.5,-360.5"/>
<text text-anchor="middle" x="223" y="-367.5" font-family="FreeSans" font-size="10.00">ReactionPath.cpp</text>
</g>
<!-- Node2 -->
<g id="node2" class="node"><title>Node2</title>
<g id="a_node2"><a xlink:href="ReactionPath_8h.html" target="_top" xlink:title="Classes for reaction path analysis. ">
<polygon fill="white" stroke="black" points="211,-293 211,-323 337,-323 337,-293 211,-293"/>
<text text-anchor="start" x="219" y="-311" font-family="FreeSans" font-size="10.00">cantera/kinetics/Reaction</text>
<text text-anchor="middle" x="274" y="-300" font-family="FreeSans" font-size="10.00">Path.h</text>
</a>
</g>
</g>
<!-- Node1&#45;&gt;Node2 -->
<g id="edge1" class="edge"><title>Node1&#45;&gt;Node2</title>
<path fill="none" stroke="midnightblue" d="M230.307,-360.403C236.827,-352.733 246.658,-341.167 255.344,-330.948"/>
<polygon fill="midnightblue" stroke="midnightblue" points="258.171,-333.027 261.98,-323.141 252.837,-328.493 258.171,-333.027"/>
</g>
<!-- Node16 -->
<g id="node16" class="node"><title>Node16</title>
<g id="a_node16"><a xlink:href="Group_8h.html" target="_top" xlink:title="Group.h">
<polygon fill="white" stroke="black" points="111,-236.5 111,-255.5 161,-255.5 161,-236.5 111,-236.5"/>
<text text-anchor="middle" x="136" y="-243.5" font-family="FreeSans" font-size="10.00">Group.h</text>
</a>
</g>
</g>
<!-- Node1&#45;&gt;Node16 -->
<g id="edge32" class="edge"><title>Node1&#45;&gt;Node16</title>
<path fill="none" stroke="midnightblue" d="M216.743,-360.226C202.384,-340.09 166.861,-290.276 148.082,-263.943"/>
<polygon fill="midnightblue" stroke="midnightblue" points="150.856,-261.804 142.2,-255.694 145.157,-265.868 150.856,-261.804"/>
</g>
<!-- Node17 -->
<g id="node17" class="node"><title>Node17</title>
<g id="a_node17"><a xlink:href="Kinetics_8h.html" target="_top" xlink:title="Base class for kinetics managers and also contains the kineticsmgr module documentation (see Kinetics...">
<polygon fill="white" stroke="black" points="459.5,-236.5 459.5,-255.5 518.5,-255.5 518.5,-236.5 459.5,-236.5"/>
<text text-anchor="middle" x="489" y="-243.5" font-family="FreeSans" font-size="10.00">Kinetics.h</text>
</a>
</g>
</g>
<!-- Node1&#45;&gt;Node17 -->
<g id="edge29" class="edge"><title>Node1&#45;&gt;Node17</title>
<path fill="none" stroke="midnightblue" d="M249.831,-360.421C275.048,-352.069 313.645,-338.54 346,-324 389.483,-304.46 437.901,-277.146 465.771,-260.848"/>
<polygon fill="midnightblue" stroke="midnightblue" points="467.889,-263.663 474.731,-255.573 464.338,-257.631 467.889,-263.663"/>
</g>
<!-- Node22 -->
<g id="node22" class="node"><title>Node22</title>
<g id="a_node22"><a xlink:href="reaction__defs_8h.html" target="_top" xlink:title="This file defines some constants used to specify reaction types. ">
<polygon fill="white" stroke="black" points="0,-293 0,-323 122,-323 122,-293 0,-293"/>
<text text-anchor="start" x="8" y="-311" font-family="FreeSans" font-size="10.00">cantera/kinetics/reaction</text>
<text text-anchor="middle" x="61" y="-300" font-family="FreeSans" font-size="10.00">_defs.h</text>
</a>
</g>
</g>
<!-- Node1&#45;&gt;Node22 -->
<g id="edge30" class="edge"><title>Node1&#45;&gt;Node22</title>
<path fill="none" stroke="midnightblue" d="M199.789,-360.403C176.027,-351.603 138.419,-337.674 108.342,-326.534"/>
<polygon fill="midnightblue" stroke="midnightblue" points="109.461,-323.216 98.8684,-323.025 107.03,-329.781 109.461,-323.216"/>
</g>
<!-- Node3 -->
<g id="node3" class="node"><title>Node3</title>
<g id="a_node3"><a xlink:href="ct__defs_8h.html" target="_top" xlink:title="This file contains definitions of terms that are used in internal routines and are unlikely to need m...">
<polygon fill="white" stroke="black" points="198,-56.5 198,-75.5 312,-75.5 312,-56.5 198,-56.5"/>
<text text-anchor="middle" x="255" y="-63.5" font-family="FreeSans" font-size="10.00">cantera/base/ct_defs.h</text>
</a>
</g>
</g>
<!-- Node2&#45;&gt;Node3 -->
<g id="edge2" class="edge"><title>Node2&#45;&gt;Node3</title>
<path fill="none" stroke="midnightblue" d="M311.416,-292.878C328.603,-284.595 347.826,-272.473 360,-256 379.427,-229.713 409.112,-138.517 390,-112 374.314,-90.2372 347.647,-78.8402 322.136,-72.9309"/>
<polygon fill="midnightblue" stroke="midnightblue" points="322.566,-69.4462 312.066,-70.8563 321.154,-76.3022 322.566,-69.4462"/>
</g>
<!-- Node10 -->
<g id="node10" class="node"><title>Node10</title>
<g id="a_node10"><a xlink:href="DenseMatrix_8h.html" target="_top" xlink:title="Headers for the DenseMatrix object, which deals with dense rectangular matrices and description of th...">
<polygon fill="white" stroke="black" points="196.5,-236.5 196.5,-255.5 351.5,-255.5 351.5,-236.5 196.5,-236.5"/>
<text text-anchor="middle" x="274" y="-243.5" font-family="FreeSans" font-size="10.00">cantera/numerics/DenseMatrix.h</text>
</a>
</g>
</g>
<!-- Node2&#45;&gt;Node10 -->
<g id="edge9" class="edge"><title>Node2&#45;&gt;Node10</title>
<path fill="none" stroke="midnightblue" d="M274,-292.781C274,-284.781 274,-274.689 274,-266.017"/>
<polygon fill="midnightblue" stroke="midnightblue" points="277.5,-265.73 274,-255.731 270.5,-265.731 277.5,-265.73"/>
</g>
<!-- Node2&#45;&gt;Node16 -->
<g id="edge19" class="edge"><title>Node2&#45;&gt;Node16</title>
<path fill="none" stroke="midnightblue" d="M241.645,-292.933C218.467,-282.855 187.517,-269.399 165.112,-259.657"/>
<polygon fill="midnightblue" stroke="midnightblue" points="166.346,-256.378 155.78,-255.6 163.555,-262.797 166.346,-256.378"/>
</g>
<!-- Node2&#45;&gt;Node17 -->
<g id="edge22" class="edge"><title>Node2&#45;&gt;Node17</title>
<path fill="none" stroke="midnightblue" d="M324.408,-292.933C362.59,-282.277 414.309,-267.844 449.514,-258.019"/>
<polygon fill="midnightblue" stroke="midnightblue" points="450.737,-261.312 459.428,-255.253 448.855,-254.57 450.737,-261.312"/>
</g>
<!-- Node4 -->
<g id="node4" class="node"><title>Node4</title>
<g id="a_node4"><a xlink:href="config_8h_source.html" target="_top" xlink:title="config.h">
<polygon fill="white" stroke="black" points="230,-0.5 230,-19.5 280,-19.5 280,-0.5 230,-0.5"/>
<text text-anchor="middle" x="255" y="-7.5" font-family="FreeSans" font-size="10.00">config.h</text>
</a>
</g>
</g>
<!-- Node3&#45;&gt;Node4 -->
<g id="edge3" class="edge"><title>Node3&#45;&gt;Node4</title>
<path fill="none" stroke="midnightblue" d="M255,-56.083C255,-49.0059 255,-38.8611 255,-29.9865"/>
<polygon fill="midnightblue" stroke="midnightblue" points="258.5,-29.751 255,-19.7511 251.5,-29.7511 258.5,-29.751"/>
</g>
<!-- Node5 -->
<g id="node5" class="node"><title>Node5</title>
<polygon fill="white" stroke="#bfbfbf" points="298,-0.5 298,-19.5 342,-19.5 342,-0.5 298,-0.5"/>
<text text-anchor="middle" x="320" y="-7.5" font-family="FreeSans" font-size="10.00">cmath</text>
</g>
<!-- Node3&#45;&gt;Node5 -->
<g id="edge4" class="edge"><title>Node3&#45;&gt;Node5</title>
<path fill="none" stroke="midnightblue" d="M265.443,-56.324C275.146,-48.2631 289.815,-36.0765 301.5,-26.3695"/>
<polygon fill="midnightblue" stroke="midnightblue" points="303.911,-28.9163 309.367,-19.8339 299.438,-23.532 303.911,-28.9163"/>
</g>
<!-- Node6 -->
<g id="node6" class="node"><title>Node6</title>
<polygon fill="white" stroke="#bfbfbf" points="360,-0.5 360,-19.5 404,-19.5 404,-0.5 360,-0.5"/>
<text text-anchor="middle" x="382" y="-7.5" font-family="FreeSans" font-size="10.00">cstdlib</text>
</g>
<!-- Node3&#45;&gt;Node6 -->
<g id="edge5" class="edge"><title>Node3&#45;&gt;Node6</title>
<path fill="none" stroke="midnightblue" d="M275.124,-56.4435C296.024,-47.5566 328.935,-33.5632 352.716,-23.4514"/>
<polygon fill="midnightblue" stroke="midnightblue" points="354.138,-26.6504 361.971,-19.5164 351.398,-20.2085 354.138,-26.6504"/>
</g>
<!-- Node7 -->
<g id="node7" class="node"><title>Node7</title>
<polygon fill="white" stroke="#bfbfbf" points="115.5,-0.5 115.5,-19.5 158.5,-19.5 158.5,-0.5 115.5,-0.5"/>
<text text-anchor="middle" x="137" y="-7.5" font-family="FreeSans" font-size="10.00">vector</text>
</g>
<!-- Node3&#45;&gt;Node7 -->
<g id="edge6" class="edge"><title>Node3&#45;&gt;Node7</title>
<path fill="none" stroke="midnightblue" d="M236.303,-56.4435C217.056,-47.6356 186.848,-33.8116 164.8,-23.722"/>
<polygon fill="midnightblue" stroke="midnightblue" points="166.16,-20.4951 155.61,-19.5164 163.247,-26.8603 166.16,-20.4951"/>
</g>
<!-- Node8 -->
<g id="node8" class="node"><title>Node8</title>
<polygon fill="white" stroke="#bfbfbf" points="176.5,-0.5 176.5,-19.5 211.5,-19.5 211.5,-0.5 176.5,-0.5"/>
<text text-anchor="middle" x="194" y="-7.5" font-family="FreeSans" font-size="10.00">map</text>
</g>
<!-- Node3&#45;&gt;Node8 -->
<g id="edge7" class="edge"><title>Node3&#45;&gt;Node8</title>
<path fill="none" stroke="midnightblue" d="M245.199,-56.324C236.182,-48.3414 222.594,-36.3128 211.682,-26.6529"/>
<polygon fill="midnightblue" stroke="midnightblue" points="213.787,-23.8416 203.979,-19.8339 209.147,-29.083 213.787,-23.8416"/>
</g>
<!-- Node9 -->
<g id="node9" class="node"><title>Node9</title>
<polygon fill="white" stroke="#bfbfbf" points="463,-0.5 463,-19.5 503,-19.5 503,-0.5 463,-0.5"/>
<text text-anchor="middle" x="483" y="-7.5" font-family="FreeSans" font-size="10.00">string</text>
</g>
<!-- Node3&#45;&gt;Node9 -->
<g id="edge8" class="edge"><title>Node3&#45;&gt;Node9</title>
<path fill="none" stroke="midnightblue" d="M291.127,-56.4435C335.925,-45.8336 411.454,-27.9451 453.136,-18.0732"/>
<polygon fill="midnightblue" stroke="midnightblue" points="454.04,-21.4559 462.964,-15.7454 452.427,-14.6443 454.04,-21.4559"/>
</g>
<!-- Node10&#45;&gt;Node3 -->
<g id="edge10" class="edge"><title>Node10&#45;&gt;Node3</title>
<path fill="none" stroke="midnightblue" d="M256.617,-236.465C226.753,-220.679 166.726,-183.748 144,-132 131.781,-104.178 163.91,-87.5688 196.696,-78.1125"/>
<polygon fill="midnightblue" stroke="midnightblue" points="197.628,-81.4862 206.382,-75.5174 195.817,-74.7247 197.628,-81.4862"/>
</g>
<!-- Node11 -->
<g id="node11" class="node"><title>Node11</title>
<g id="a_node11"><a xlink:href="Array_8h.html" target="_top" xlink:title="Header file for class Cantera::Array2D. ">
<polygon fill="white" stroke="black" points="227.5,-174.5 227.5,-193.5 332.5,-193.5 332.5,-174.5 227.5,-174.5"/>
<text text-anchor="middle" x="280" y="-181.5" font-family="FreeSans" font-size="10.00">cantera/base/Array.h</text>
</a>
</g>
</g>
<!-- Node10&#45;&gt;Node11 -->
<g id="edge11" class="edge"><title>Node10&#45;&gt;Node11</title>
<path fill="none" stroke="midnightblue" d="M274.86,-236.403C275.706,-227.938 277.027,-214.728 278.118,-203.82"/>
<polygon fill="midnightblue" stroke="midnightblue" points="281.629,-203.879 279.142,-193.581 274.664,-203.183 281.629,-203.879"/>
</g>
<!-- Node11&#45;&gt;Node3 -->
<g id="edge12" class="edge"><title>Node11&#45;&gt;Node3</title>
<path fill="none" stroke="midnightblue" d="M274.048,-174.47C267.641,-164.723 257.853,-148.041 254,-132 250.33,-116.722 250.948,-98.8379 252.275,-85.7004"/>
<polygon fill="midnightblue" stroke="midnightblue" points="255.775,-85.9171 253.533,-75.562 248.828,-85.0545 255.775,-85.9171"/>
</g>
<!-- Node12 -->
<g id="node12" class="node"><title>Node12</title>
<g id="a_node12"><a xlink:href="ctexceptions_8h.html" target="_top" xlink:title="Definitions for the classes that are thrown when Cantera experiences an error condition (also contain...">
<polygon fill="white" stroke="red" points="547,-112.5 547,-131.5 625,-131.5 625,-112.5 547,-112.5"/>
<text text-anchor="middle" x="586" y="-119.5" font-family="FreeSans" font-size="10.00">ctexceptions.h</text>
</a>
</g>
</g>
<!-- Node11&#45;&gt;Node12 -->
<g id="edge13" class="edge"><title>Node11&#45;&gt;Node12</title>
<path fill="none" stroke="midnightblue" d="M323.517,-174.467C379.982,-163.396 478.223,-144.133 537.173,-132.574"/>
<polygon fill="midnightblue" stroke="midnightblue" points="537.854,-136.007 546.994,-130.648 536.507,-129.138 537.854,-136.007"/>
</g>
<!-- Node13 -->
<g id="node13" class="node"><title>Node13</title>
<g id="a_node13"><a xlink:href="utilities_8h.html" target="_top" xlink:title="Various templated functions that carry out common vector operations (see Templated Utility Functions)...">
<polygon fill="white" stroke="red" points="327,-112.5 327,-131.5 381,-131.5 381,-112.5 327,-112.5"/>
<text text-anchor="middle" x="354" y="-119.5" font-family="FreeSans" font-size="10.00">utilities.h</text>
</a>
</g>
</g>
<!-- Node11&#45;&gt;Node13 -->
<g id="edge15" class="edge"><title>Node11&#45;&gt;Node13</title>
<path fill="none" stroke="midnightblue" d="M290.602,-174.403C302.252,-164.958 321.186,-149.606 335.335,-138.134"/>
<polygon fill="midnightblue" stroke="midnightblue" points="337.854,-140.597 343.417,-131.581 333.445,-135.16 337.854,-140.597"/>
</g>
<!-- Node14 -->
<g id="node14" class="node"><title>Node14</title>
<polygon fill="white" stroke="#bfbfbf" points="153.5,-112.5 153.5,-131.5 206.5,-131.5 206.5,-112.5 153.5,-112.5"/>
<text text-anchor="middle" x="180" y="-119.5" font-family="FreeSans" font-size="10.00">iostream</text>
</g>
<!-- Node11&#45;&gt;Node14 -->
<g id="edge17" class="edge"><title>Node11&#45;&gt;Node14</title>
<path fill="none" stroke="midnightblue" d="M265.672,-174.403C249.336,-164.601 222.398,-148.439 203.088,-136.853"/>
<polygon fill="midnightblue" stroke="midnightblue" points="204.677,-133.724 194.301,-131.581 201.075,-139.727 204.677,-133.724"/>
</g>
<!-- Node15 -->
<g id="node15" class="node"><title>Node15</title>
<polygon fill="white" stroke="#bfbfbf" points="263.5,-112.5 263.5,-131.5 308.5,-131.5 308.5,-112.5 263.5,-112.5"/>
<text text-anchor="middle" x="286" y="-119.5" font-family="FreeSans" font-size="10.00">cstring</text>
</g>
<!-- Node11&#45;&gt;Node15 -->
<g id="edge18" class="edge"><title>Node11&#45;&gt;Node15</title>
<path fill="none" stroke="midnightblue" d="M280.86,-174.403C281.706,-165.938 283.027,-152.728 284.118,-141.82"/>
<polygon fill="midnightblue" stroke="midnightblue" points="287.629,-141.879 285.142,-131.581 280.664,-141.183 287.629,-141.879"/>
</g>
<!-- Node12&#45;&gt;Node9 -->
<g id="edge14" class="edge"><title>Node12&#45;&gt;Node9</title>
<path fill="none" stroke="midnightblue" d="M577.918,-112.368C560.694,-93.9744 520.147,-50.6712 498.03,-27.0519"/>
<polygon fill="midnightblue" stroke="midnightblue" points="500.435,-24.4987 491.045,-19.5914 495.325,-29.2832 500.435,-24.4987"/>
</g>
<!-- Node13&#45;&gt;Node3 -->
<g id="edge16" class="edge"><title>Node13&#45;&gt;Node3</title>
<path fill="none" stroke="midnightblue" d="M338.094,-112.324C322.362,-103.743 298.058,-90.486 279.791,-80.5224"/>
<polygon fill="midnightblue" stroke="midnightblue" points="281.322,-77.3704 270.867,-75.6545 277.97,-83.5157 281.322,-77.3704"/>
</g>
<!-- Node16&#45;&gt;Node3 -->
<g id="edge20" class="edge"><title>Node16&#45;&gt;Node3</title>
<path fill="none" stroke="midnightblue" d="M133.083,-236.226C126.07,-213.359 110.774,-151.01 138,-112 149.774,-95.1299 168.806,-84.5828 188.13,-77.9894"/>
<polygon fill="midnightblue" stroke="midnightblue" points="189.389,-81.2637 197.916,-74.9746 187.328,-74.574 189.389,-81.2637"/>
</g>
<!-- Node16&#45;&gt;Node14 -->
<g id="edge21" class="edge"><title>Node16&#45;&gt;Node14</title>
<path fill="none" stroke="midnightblue" d="M139.164,-236.226C146.3,-216.442 163.768,-168.007 173.384,-141.344"/>
<polygon fill="midnightblue" stroke="midnightblue" points="176.764,-142.289 176.864,-131.694 170.179,-139.914 176.764,-142.289"/>
</g>
<!-- Node17&#45;&gt;Node12 -->
<g id="edge23" class="edge"><title>Node17&#45;&gt;Node12</title>
<path fill="none" stroke="midnightblue" d="M518.644,-242.868C569.644,-238.516 670.591,-226.675 692,-200 700.902,-188.908 699.85,-179.86 692,-168 684.114,-156.084 651.985,-143.445 625.146,-134.606"/>
<polygon fill="midnightblue" stroke="midnightblue" points="626.143,-131.25 615.551,-131.529 624.005,-137.916 626.143,-131.25"/>
</g>
<!-- Node18 -->
<g id="node18" class="node"><title>Node18</title>
<g id="a_node18"><a xlink:href="ThermoPhase_8h.html" target="_top" xlink:title="Header file for class ThermoPhase, the base class for phases with thermodynamic properties, and the text for the Module thermoprops (see Thermodynamic Properties and class ThermoPhase). ">
<polygon fill="white" stroke="black" points="413,-174.5 413,-193.5 565,-193.5 565,-174.5 413,-174.5"/>
<text text-anchor="middle" x="489" y="-181.5" font-family="FreeSans" font-size="10.00">cantera/thermo/ThermoPhase.h</text>
</a>
</g>
</g>
<!-- Node17&#45;&gt;Node18 -->
<g id="edge24" class="edge"><title>Node17&#45;&gt;Node18</title>
<path fill="none" stroke="midnightblue" d="M489,-236.403C489,-227.938 489,-214.728 489,-203.82"/>
<polygon fill="midnightblue" stroke="midnightblue" points="492.5,-203.581 489,-193.581 485.5,-203.581 492.5,-203.581"/>
</g>
<!-- Node21 -->
<g id="node21" class="node"><title>Node21</title>
<g id="a_node21"><a xlink:href="mix__defs_8h.html" target="_top" xlink:title="cantera/thermo/mix\l_defs.h">
<polygon fill="white" stroke="black" points="583,-169 583,-199 683,-199 683,-169 583,-169"/>
<text text-anchor="start" x="591" y="-187" font-family="FreeSans" font-size="10.00">cantera/thermo/mix</text>
<text text-anchor="middle" x="633" y="-176" font-family="FreeSans" font-size="10.00">_defs.h</text>
</a>
</g>
</g>
<!-- Node17&#45;&gt;Node21 -->
<g id="edge28" class="edge"><title>Node17&#45;&gt;Node21</title>
<path fill="none" stroke="midnightblue" d="M509.632,-236.403C530.48,-227.717 563.317,-214.035 589.873,-202.969"/>
<polygon fill="midnightblue" stroke="midnightblue" points="591.455,-206.102 599.339,-199.025 588.762,-199.641 591.455,-206.102"/>
</g>
<!-- Node19 -->
<g id="node19" class="node"><title>Node19</title>
<g id="a_node19"><a xlink:href="Phase_8h.html" target="_top" xlink:title="Header file for class Phase. ">
<polygon fill="white" stroke="red" points="643.5,-112.5 643.5,-131.5 694.5,-131.5 694.5,-112.5 643.5,-112.5"/>
<text text-anchor="middle" x="669" y="-119.5" font-family="FreeSans" font-size="10.00">Phase.h</text>
</a>
</g>
</g>
<!-- Node18&#45;&gt;Node19 -->
<g id="edge25" class="edge"><title>Node18&#45;&gt;Node19</title>
<path fill="none" stroke="midnightblue" d="M514.79,-174.403C545.933,-164.022 598.481,-146.506 633.453,-134.849"/>
<polygon fill="midnightblue" stroke="midnightblue" points="634.878,-138.063 643.258,-131.581 632.665,-131.423 634.878,-138.063"/>
</g>
<!-- Node20 -->
<g id="node20" class="node"><title>Node20</title>
<g id="a_node20"><a xlink:href="SpeciesThermo_8h.html" target="_top" xlink:title="Virtual base class for the calculation of multiple&#45;species thermodynamic reference&#45;state property man...">
<polygon fill="white" stroke="black" points="437,-112.5 437,-131.5 529,-131.5 529,-112.5 437,-112.5"/>
<text text-anchor="middle" x="483" y="-119.5" font-family="FreeSans" font-size="10.00">SpeciesThermo.h</text>
</a>
</g>
</g>
<!-- Node18&#45;&gt;Node20 -->
<g id="edge26" class="edge"><title>Node18&#45;&gt;Node20</title>
<path fill="none" stroke="midnightblue" d="M488.14,-174.403C487.294,-165.938 485.973,-152.728 484.882,-141.82"/>
<polygon fill="midnightblue" stroke="midnightblue" points="488.336,-141.183 483.858,-131.581 481.371,-141.879 488.336,-141.183"/>
</g>
<!-- Node20&#45;&gt;Node3 -->
<g id="edge27" class="edge"><title>Node20&#45;&gt;Node3</title>
<path fill="none" stroke="midnightblue" d="M446.873,-112.444C407.349,-103.083 343.903,-88.0561 300.887,-77.868"/>
<polygon fill="midnightblue" stroke="midnightblue" points="301.496,-74.4154 290.958,-75.5164 299.882,-81.2269 301.496,-74.4154"/>
</g>
<!-- Node22&#45;&gt;Node3 -->
<g id="edge31" class="edge"><title>Node22&#45;&gt;Node3</title>
<path fill="none" stroke="midnightblue" d="M61.5233,-292.806C63.5975,-257.331 73.8934,-163.937 125,-112 141.854,-94.8723 165.54,-84.2568 188.084,-77.6802"/>
<polygon fill="midnightblue" stroke="midnightblue" points="189.243,-80.9931 197.992,-75.0179 187.427,-74.2329 189.243,-80.9931"/>
</g>
</g>
</svg>
