<?xml version="1.0" encoding="UTF-8" standalone="no"?>
<!DOCTYPE svg PUBLIC "-//W3C//DTD SVG 1.1//EN"
 "http://www.w3.org/Graphics/SVG/1.1/DTD/svg11.dtd">
<!-- Generated by graphviz version 2.38.0 (20140413.2041)
 -->
<!-- Title: reaction_defs.h Pages: 1 -->
<svg width="1497pt" height="420pt"
 viewBox="0.00 0.00 1496.50 420.00" xmlns="http://www.w3.org/2000/svg" xmlns:xlink="http://www.w3.org/1999/xlink">
<g id="graph0" class="graph" transform="scale(1 1) rotate(0) translate(4 416)">
<title>reaction_defs.h</title>
<polygon fill="white" stroke="none" points="-4,4 -4,-416 1492.5,-416 1492.5,4 -4,4"/>
<!-- Node1 -->
<g id="node1" class="node"><title>Node1</title>
<polygon fill="#bfbfbf" stroke="black" points="447.5,-392.5 447.5,-411.5 530.5,-411.5 530.5,-392.5 447.5,-392.5"/>
<text text-anchor="middle" x="489" y="-399.5" font-family="Helvetica,sans-Serif" font-size="10.00">reaction_defs.h</text>
</g>
<!-- Node2 -->
<g id="node2" class="node"><title>Node2</title>
<g id="a_node2"><a xlink:href="FalloffFactory_8cpp.html" target="_top" xlink:title="FalloffFactory.cpp">
<polygon fill="white" stroke="black" points="74.5,-224.5 74.5,-243.5 169.5,-243.5 169.5,-224.5 74.5,-224.5"/>
<text text-anchor="middle" x="122" y="-231.5" font-family="Helvetica,sans-Serif" font-size="10.00">FalloffFactory.cpp</text>
</a>
</g>
</g>
<!-- Node1&#45;&gt;Node2 -->
<g id="edge1" class="edge"><title>Node1&#45;&gt;Node2</title>
<path fill="none" stroke="midnightblue" d="M460.716,-388.207C389.006,-355.771 201.496,-270.957 141.066,-243.624"/>
<polygon fill="midnightblue" stroke="midnightblue" points="459.488,-391.492 470.041,-392.425 462.372,-385.114 459.488,-391.492"/>
</g>
<!-- Node3 -->
<g id="node3" class="node"><title>Node3</title>
<g id="a_node3"><a xlink:href="ReactionPath_8cpp.html" target="_top" xlink:title="Implementation file for classes used in reaction path analysis. ">
<polygon fill="white" stroke="black" points="6.5,-112.5 6.5,-131.5 101.5,-131.5 101.5,-112.5 6.5,-112.5"/>
<text text-anchor="middle" x="54" y="-119.5" font-family="Helvetica,sans-Serif" font-size="10.00">ReactionPath.cpp</text>
</a>
</g>
</g>
<!-- Node1&#45;&gt;Node3 -->
<g id="edge2" class="edge"><title>Node1&#45;&gt;Node3</title>
<path fill="none" stroke="midnightblue" d="M437.146,-400.227C311.305,-396.952 0,-379.87 0,-291 0,-291 0,-291 0,-233 0,-191.515 31.3316,-149.406 46.2631,-131.694"/>
<polygon fill="midnightblue" stroke="midnightblue" points="437.227,-403.73 447.308,-400.472 437.395,-396.732 437.227,-403.73"/>
</g>
<!-- Node4 -->
<g id="node4" class="node"><title>Node4</title>
<g id="a_node4"><a xlink:href="RxnRates_8h.html" target="_top" xlink:title="RxnRates.h">
<polygon fill="white" stroke="black" points="685.5,-336.5 685.5,-355.5 754.5,-355.5 754.5,-336.5 685.5,-336.5"/>
<text text-anchor="middle" x="720" y="-343.5" font-family="Helvetica,sans-Serif" font-size="10.00">RxnRates.h</text>
</a>
</g>
</g>
<!-- Node1&#45;&gt;Node4 -->
<g id="edge3" class="edge"><title>Node1&#45;&gt;Node4</title>
<path fill="none" stroke="midnightblue" d="M535.552,-390.118C579.888,-379.754 645.603,-364.391 685.455,-355.075"/>
<polygon fill="midnightblue" stroke="midnightblue" points="534.543,-386.759 525.603,-392.444 536.137,-393.575 534.543,-386.759"/>
</g>
<!-- Node35 -->
<g id="node35" class="node"><title>Node35</title>
<g id="a_node35"><a xlink:href="FalloffMgr_8h.html" target="_top" xlink:title="FalloffMgr.h">
<polygon fill="white" stroke="black" points="652,-224.5 652,-243.5 720,-243.5 720,-224.5 652,-224.5"/>
<text text-anchor="middle" x="686" y="-231.5" font-family="Helvetica,sans-Serif" font-size="10.00">FalloffMgr.h</text>
</a>
</g>
</g>
<!-- Node1&#45;&gt;Node35 -->
<g id="edge56" class="edge"><title>Node1&#45;&gt;Node35</title>
<path fill="none" stroke="midnightblue" d="M513.508,-387.404C544.158,-369.707 597.301,-336.675 636,-300 654.808,-282.176 672.145,-256.843 680.596,-243.686"/>
<polygon fill="midnightblue" stroke="midnightblue" points="511.714,-384.398 504.759,-392.391 515.18,-390.48 511.714,-384.398"/>
</g>
<!-- Node36 -->
<g id="node36" class="node"><title>Node36</title>
<g id="a_node36"><a xlink:href="Falloff_8h_source.html" target="_top" xlink:title="Falloff.h">
<polygon fill="white" stroke="black" points="463,-336.5 463,-355.5 515,-355.5 515,-336.5 463,-336.5"/>
<text text-anchor="middle" x="489" y="-343.5" font-family="Helvetica,sans-Serif" font-size="10.00">Falloff.h</text>
</a>
</g>
</g>
<!-- Node1&#45;&gt;Node36 -->
<g id="edge58" class="edge"><title>Node1&#45;&gt;Node36</title>
<path fill="none" stroke="midnightblue" d="M489,-381.805C489,-372.91 489,-362.78 489,-355.751"/>
<polygon fill="midnightblue" stroke="midnightblue" points="485.5,-382.083 489,-392.083 492.5,-382.083 485.5,-382.083"/>
</g>
<!-- Node5 -->
<g id="node5" class="node"><title>Node5</title>
<g id="a_node5"><a xlink:href="RxnRates_8cpp.html" target="_top" xlink:title="RxnRates.cpp">
<polygon fill="white" stroke="black" points="683,-280.5 683,-299.5 763,-299.5 763,-280.5 683,-280.5"/>
<text text-anchor="middle" x="723" y="-287.5" font-family="Helvetica,sans-Serif" font-size="10.00">RxnRates.cpp</text>
</a>
</g>
</g>
<!-- Node4&#45;&gt;Node5 -->
<g id="edge4" class="edge"><title>Node4&#45;&gt;Node5</title>
<path fill="none" stroke="midnightblue" d="M721.066,-325.805C721.561,-316.91 722.123,-306.78 722.514,-299.751"/>
<polygon fill="midnightblue" stroke="midnightblue" points="717.556,-325.904 720.495,-336.083 724.545,-326.293 717.556,-325.904"/>
</g>
<!-- Node6 -->
<g id="node6" class="node"><title>Node6</title>
<g id="a_node6"><a xlink:href="RateCoeffMgr_8h.html" target="_top" xlink:title="RateCoeffMgr.h">
<polygon fill="white" stroke="black" points="1071,-224.5 1071,-243.5 1157,-243.5 1157,-224.5 1071,-224.5"/>
<text text-anchor="middle" x="1114" y="-231.5" font-family="Helvetica,sans-Serif" font-size="10.00">RateCoeffMgr.h</text>
</a>
</g>
</g>
<!-- Node4&#45;&gt;Node6 -->
<g id="edge5" class="edge"><title>Node4&#45;&gt;Node6</title>
<path fill="none" stroke="midnightblue" d="M760.667,-333.646C839.851,-311.539 1013.11,-263.167 1083.43,-243.535"/>
<polygon fill="midnightblue" stroke="midnightblue" points="759.279,-330.4 750.589,-336.46 761.162,-337.142 759.279,-330.4"/>
</g>
<!-- Node21 -->
<g id="node21" class="node"><title>Node21</title>
<g id="a_node21"><a xlink:href="Reaction_8h.html" target="_top" xlink:title="Reaction.h">
<polygon fill="white" stroke="black" points="563,-280.5 563,-299.5 627,-299.5 627,-280.5 563,-280.5"/>
<text text-anchor="middle" x="595" y="-287.5" font-family="Helvetica,sans-Serif" font-size="10.00">Reaction.h</text>
</a>
</g>
</g>
<!-- Node4&#45;&gt;Node21 -->
<g id="edge26" class="edge"><title>Node4&#45;&gt;Node21</title>
<path fill="none" stroke="midnightblue" d="M690.759,-332.368C667.35,-322.255 635.159,-308.349 614.714,-299.516"/>
<polygon fill="midnightblue" stroke="midnightblue" points="689.625,-335.691 700.193,-336.444 692.401,-329.265 689.625,-335.691"/>
</g>
<!-- Node7 -->
<g id="node7" class="node"><title>Node7</title>
<g id="a_node7"><a xlink:href="InterfaceKinetics_8cpp.html" target="_top" xlink:title="InterfaceKinetics.cpp">
<polygon fill="white" stroke="black" points="983.5,-0.5 983.5,-19.5 1092.5,-19.5 1092.5,-0.5 983.5,-0.5"/>
<text text-anchor="middle" x="1038" y="-7.5" font-family="Helvetica,sans-Serif" font-size="10.00">InterfaceKinetics.cpp</text>
</a>
</g>
</g>
<!-- Node6&#45;&gt;Node7 -->
<g id="edge6" class="edge"><title>Node6&#45;&gt;Node7</title>
<path fill="none" stroke="midnightblue" d="M1167.33,-224.996C1245.77,-210.88 1378.21,-176.737 1332,-112 1277.52,-35.6779 1161.56,-16.4316 1092.67,-11.9428"/>
<polygon fill="midnightblue" stroke="midnightblue" points="1166.37,-221.612 1157.12,-226.777 1167.57,-228.508 1166.37,-221.612"/>
</g>
<!-- Node8 -->
<g id="node8" class="node"><title>Node8</title>
<g id="a_node8"><a xlink:href="BulkKinetics_8h.html" target="_top" xlink:title="BulkKinetics.h">
<polygon fill="white" stroke="black" points="1101,-168.5 1101,-187.5 1181,-187.5 1181,-168.5 1101,-168.5"/>
<text text-anchor="middle" x="1141" y="-175.5" font-family="Helvetica,sans-Serif" font-size="10.00">BulkKinetics.h</text>
</a>
</g>
</g>
<!-- Node6&#45;&gt;Node8 -->
<g id="edge7" class="edge"><title>Node6&#45;&gt;Node8</title>
<path fill="none" stroke="midnightblue" d="M1123.01,-214.983C1127.59,-205.817 1132.95,-195.092 1136.62,-187.751"/>
<polygon fill="midnightblue" stroke="midnightblue" points="1119.8,-213.573 1118.46,-224.083 1126.06,-216.704 1119.8,-213.573"/>
</g>
<!-- Node14 -->
<g id="node14" class="node"><title>Node14</title>
<g id="a_node14"><a xlink:href="InterfaceKinetics_8h.html" target="_top" xlink:title="InterfaceKinetics.h">
<polygon fill="white" stroke="black" points="985,-168.5 985,-187.5 1083,-187.5 1083,-168.5 985,-168.5"/>
<text text-anchor="middle" x="1034" y="-175.5" font-family="Helvetica,sans-Serif" font-size="10.00">InterfaceKinetics.h</text>
</a>
</g>
</g>
<!-- Node6&#45;&gt;Node14 -->
<g id="edge14" class="edge"><title>Node6&#45;&gt;Node14</title>
<path fill="none" stroke="midnightblue" d="M1092.7,-218.622C1078.08,-208.757 1059.17,-195.992 1046.82,-187.655"/>
<polygon fill="midnightblue" stroke="midnightblue" points="1090.9,-221.63 1101.15,-224.324 1094.82,-215.828 1090.9,-221.63"/>
</g>
<!-- Node9 -->
<g id="node9" class="node"><title>Node9</title>
<g id="a_node9"><a xlink:href="BulkKinetics_8cpp_source.html" target="_top" xlink:title="BulkKinetics.cpp">
<polygon fill="white" stroke="black" points="1233,-112.5 1233,-131.5 1323,-131.5 1323,-112.5 1233,-112.5"/>
<text text-anchor="middle" x="1278" y="-119.5" font-family="Helvetica,sans-Serif" font-size="10.00">BulkKinetics.cpp</text>
</a>
</g>
</g>
<!-- Node8&#45;&gt;Node9 -->
<g id="edge8" class="edge"><title>Node8&#45;&gt;Node9</title>
<path fill="none" stroke="midnightblue" d="M1172.02,-164.772C1197.76,-154.629 1233.69,-140.467 1256.39,-131.516"/>
<polygon fill="midnightblue" stroke="midnightblue" points="1170.73,-161.52 1162.71,-168.444 1173.29,-168.033 1170.73,-161.52"/>
</g>
<!-- Node10 -->
<g id="node10" class="node"><title>Node10</title>
<g id="a_node10"><a xlink:href="GasKinetics_8h.html" target="_top" xlink:title="GasKinetics.h">
<polygon fill="white" stroke="red" points="611,-112.5 611,-131.5 689,-131.5 689,-112.5 611,-112.5"/>
<text text-anchor="middle" x="650" y="-119.5" font-family="Helvetica,sans-Serif" font-size="10.00">GasKinetics.h</text>
</a>
</g>
</g>
<!-- Node8&#45;&gt;Node10 -->
<g id="edge9" class="edge"><title>Node8&#45;&gt;Node10</title>
<path fill="none" stroke="midnightblue" d="M1090.85,-167.94C932.849,-145.718 890.95,-147.942 736,-132 720.768,-130.433 704.021,-128.686 689.385,-127.151"/>
<polygon fill="midnightblue" stroke="midnightblue" points="1090.54,-171.43 1100.93,-169.368 1091.52,-164.499 1090.54,-171.43"/>
</g>
<!-- Node12 -->
<g id="node12" class="node"><title>Node12</title>
<g id="a_node12"><a xlink:href="AqueousKinetics_8h.html" target="_top" xlink:title="AqueousKinetics.h">
<polygon fill="white" stroke="black" points="1117,-112.5 1117,-131.5 1215,-131.5 1215,-112.5 1117,-112.5"/>
<text text-anchor="middle" x="1166" y="-119.5" font-family="Helvetica,sans-Serif" font-size="10.00">AqueousKinetics.h</text>
</a>
</g>
</g>
<!-- Node8&#45;&gt;Node12 -->
<g id="edge11" class="edge"><title>Node8&#45;&gt;Node12</title>
<path fill="none" stroke="midnightblue" d="M1149.34,-158.983C1153.58,-149.817 1158.55,-139.092 1161.95,-131.751"/>
<polygon fill="midnightblue" stroke="midnightblue" points="1146.15,-157.538 1145.13,-168.083 1152.51,-160.479 1146.15,-157.538"/>
</g>
<!-- Node11 -->
<g id="node11" class="node"><title>Node11</title>
<g id="a_node11"><a xlink:href="KineticsFactory_8cpp.html" target="_top" xlink:title="KineticsFactory.cpp">
<polygon fill="white" stroke="black" points="666,-56.5 666,-75.5 770,-75.5 770,-56.5 666,-56.5"/>
<text text-anchor="middle" x="718" y="-63.5" font-family="Helvetica,sans-Serif" font-size="10.00">KineticsFactory.cpp</text>
</a>
</g>
</g>
<!-- Node10&#45;&gt;Node11 -->
<g id="edge10" class="edge"><title>Node10&#45;&gt;Node11</title>
<path fill="none" stroke="midnightblue" d="M668.762,-106.101C681,-96.3824 696.559,-84.0269 706.876,-75.8339"/>
<polygon fill="midnightblue" stroke="midnightblue" points="666.58,-103.364 660.925,-112.324 670.933,-108.846 666.58,-103.364"/>
</g>
<!-- Node12&#45;&gt;Node11 -->
<g id="edge13" class="edge"><title>Node12&#45;&gt;Node11</title>
<path fill="none" stroke="midnightblue" d="M1106.69,-111.868C979.811,-94.8635 843.02,-80.0006 770.124,-72.36"/>
<polygon fill="midnightblue" stroke="midnightblue" points="1106.59,-115.387 1116.97,-113.254 1107.53,-108.45 1106.59,-115.387"/>
</g>
<!-- Node13 -->
<g id="node13" class="node"><title>Node13</title>
<g id="a_node13"><a xlink:href="AqueousKinetics_8cpp.html" target="_top" xlink:title="Homogeneous kinetics in an aqueous phase, either condensed or dilute in salts. ">
<polygon fill="white" stroke="black" points="1379.5,-56.5 1379.5,-75.5 1488.5,-75.5 1488.5,-56.5 1379.5,-56.5"/>
<text text-anchor="middle" x="1434" y="-63.5" font-family="Helvetica,sans-Serif" font-size="10.00">AqueousKinetics.cpp</text>
</a>
</g>
</g>
<!-- Node12&#45;&gt;Node13 -->
<g id="edge12" class="edge"><title>Node12&#45;&gt;Node13</title>
<path fill="none" stroke="midnightblue" d="M1218.56,-110.41C1269.21,-100.204 1344.87,-84.9597 1391.73,-75.5164"/>
<polygon fill="midnightblue" stroke="midnightblue" points="1217.58,-107.037 1208.47,-112.444 1218.96,-113.899 1217.58,-107.037"/>
</g>
<!-- Node14&#45;&gt;Node7 -->
<g id="edge15" class="edge"><title>Node14&#45;&gt;Node7</title>
<path fill="none" stroke="midnightblue" d="M988.553,-165.731C958.458,-157.244 922.938,-144.898 914,-132 880.248,-83.2965 971.873,-37.8972 1015.9,-19.5578"/>
<polygon fill="midnightblue" stroke="midnightblue" points="987.936,-169.191 998.505,-168.457 989.785,-162.439 987.936,-169.191"/>
</g>
<!-- Node14&#45;&gt;Node11 -->
<g id="edge16" class="edge"><title>Node14&#45;&gt;Node11</title>
<path fill="none" stroke="midnightblue" d="M989.811,-165.772C958.959,-157.505 917.018,-145.407 881,-132 860.868,-124.506 856.834,-120.248 837,-112 804.369,-98.4309 766.042,-84.2451 741.886,-75.5138"/>
<polygon fill="midnightblue" stroke="midnightblue" points="989.261,-169.247 999.824,-168.425 991.054,-162.48 989.261,-169.247"/>
</g>
<!-- Node15 -->
<g id="node15" class="node"><title>Node15</title>
<g id="a_node15"><a xlink:href="Interface_8h.html" target="_top" xlink:title="Declaration and Definition for the class Interface. ">
<polygon fill="white" stroke="black" points="478.5,-56.5 478.5,-75.5 541.5,-75.5 541.5,-56.5 478.5,-56.5"/>
<text text-anchor="middle" x="510" y="-63.5" font-family="Helvetica,sans-Serif" font-size="10.00">Interface.h</text>
</a>
</g>
</g>
<!-- Node14&#45;&gt;Node15 -->
<g id="edge17" class="edge"><title>Node14&#45;&gt;Node15</title>
<path fill="none" stroke="midnightblue" d="M974.912,-168.329C889.656,-155.783 741.65,-133.855 736,-132 717.867,-126.048 715.864,-118.718 698,-112 644.755,-91.9761 579.601,-78.7407 541.65,-72.0826"/>
<polygon fill="midnightblue" stroke="midnightblue" points="974.582,-171.818 984.985,-169.811 975.6,-164.893 974.582,-171.818"/>
</g>
<!-- Node16 -->
<g id="node16" class="node"><title>Node16</title>
<g id="a_node16"><a xlink:href="EdgeKinetics_8h.html" target="_top" xlink:title="EdgeKinetics.h">
<polygon fill="white" stroke="black" points="745.5,-112.5 745.5,-131.5 828.5,-131.5 828.5,-112.5 745.5,-112.5"/>
<text text-anchor="middle" x="787" y="-119.5" font-family="Helvetica,sans-Serif" font-size="10.00">EdgeKinetics.h</text>
</a>
</g>
</g>
<!-- Node14&#45;&gt;Node16 -->
<g id="edge18" class="edge"><title>Node14&#45;&gt;Node16</title>
<path fill="none" stroke="midnightblue" d="M984.973,-166.281C938.296,-156.077 868.969,-140.92 825.955,-131.516"/>
<polygon fill="midnightblue" stroke="midnightblue" points="984.345,-169.727 994.862,-168.444 985.84,-162.888 984.345,-169.727"/>
</g>
<!-- Node17 -->
<g id="node17" class="node"><title>Node17</title>
<g id="a_node17"><a xlink:href="ImplicitSurfChem_8h.html" target="_top" xlink:title="Declarations for the implicit integration of surface site density equations (see Kinetics Managers an...">
<polygon fill="white" stroke="red" points="987.5,-56.5 987.5,-75.5 1088.5,-75.5 1088.5,-56.5 987.5,-56.5"/>
<text text-anchor="middle" x="1038" y="-63.5" font-family="Helvetica,sans-Serif" font-size="10.00">ImplicitSurfChem.h</text>
</a>
</g>
</g>
<!-- Node14&#45;&gt;Node17 -->
<g id="edge20" class="edge"><title>Node14&#45;&gt;Node17</title>
<path fill="none" stroke="midnightblue" d="M1030.25,-158.117C1028.16,-145.135 1026.3,-127.509 1028,-112 1029.41,-99.1124 1033.04,-84.5154 1035.52,-75.5332"/>
<polygon fill="midnightblue" stroke="midnightblue" points="1026.84,-158.937 1032.06,-168.159 1033.73,-157.697 1026.84,-158.937"/>
</g>
<!-- Node18 -->
<g id="node18" class="node"><title>Node18</title>
<g id="a_node18"><a xlink:href="solveSP_8h.html" target="_top" xlink:title="Header file for implicit surface problem solver (see Chemical Kinetics and class solveSP). ">
<polygon fill="white" stroke="red" points="1037,-112.5 1037,-131.5 1099,-131.5 1099,-112.5 1037,-112.5"/>
<text text-anchor="middle" x="1068" y="-119.5" font-family="Helvetica,sans-Serif" font-size="10.00">solveSP.h</text>
</a>
</g>
</g>
<!-- Node14&#45;&gt;Node18 -->
<g id="edge22" class="edge"><title>Node14&#45;&gt;Node18</title>
<path fill="none" stroke="midnightblue" d="M1044.98,-159.566C1050.83,-150.275 1057.77,-139.248 1062.49,-131.751"/>
<polygon fill="midnightblue" stroke="midnightblue" points="1041.98,-157.756 1039.61,-168.083 1047.9,-161.486 1041.98,-157.756"/>
</g>
<!-- Node19 -->
<g id="node19" class="node"><title>Node19</title>
<g id="a_node19"><a xlink:href="Inlet1D_8h.html" target="_top" xlink:title="Boundary objects for one&#45;dimensional simulations. ">
<polygon fill="white" stroke="red" points="535,-112.5 535,-131.5 591,-131.5 591,-112.5 535,-112.5"/>
<text text-anchor="middle" x="563" y="-119.5" font-family="Helvetica,sans-Serif" font-size="10.00">Inlet1D.h</text>
</a>
</g>
</g>
<!-- Node14&#45;&gt;Node19 -->
<g id="edge24" class="edge"><title>Node14&#45;&gt;Node19</title>
<path fill="none" stroke="midnightblue" d="M974.762,-173.147C891.236,-167.189 734.268,-154.065 602,-132 598.436,-131.405 594.711,-130.681 591.037,-129.904"/>
<polygon fill="midnightblue" stroke="midnightblue" points="974.601,-176.644 984.823,-173.855 975.093,-169.662 974.601,-176.644"/>
</g>
<!-- Node20 -->
<g id="node20" class="node"><title>Node20</title>
<g id="a_node20"><a xlink:href="surface_8h.html" target="_top" xlink:title="surface.h">
<polygon fill="white" stroke="black" points="923.5,-112.5 923.5,-131.5 980.5,-131.5 980.5,-112.5 923.5,-112.5"/>
<text text-anchor="middle" x="952" y="-119.5" font-family="Helvetica,sans-Serif" font-size="10.00">surface.h</text>
</a>
</g>
</g>
<!-- Node14&#45;&gt;Node20 -->
<g id="edge25" class="edge"><title>Node14&#45;&gt;Node20</title>
<path fill="none" stroke="midnightblue" d="M1012.17,-162.622C997.187,-152.757 977.803,-139.992 965.142,-131.655"/>
<polygon fill="midnightblue" stroke="midnightblue" points="1010.55,-165.747 1020.83,-168.324 1014.4,-159.901 1010.55,-165.747"/>
</g>
<!-- Node16&#45;&gt;Node11 -->
<g id="edge19" class="edge"><title>Node16&#45;&gt;Node11</title>
<path fill="none" stroke="midnightblue" d="M767.962,-106.101C755.544,-96.3824 739.757,-84.0269 729.288,-75.8339"/>
<polygon fill="midnightblue" stroke="midnightblue" points="765.882,-108.917 775.914,-112.324 770.196,-103.405 765.882,-108.917"/>
</g>
<!-- Node17&#45;&gt;Node7 -->
<g id="edge21" class="edge"><title>Node17&#45;&gt;Node7</title>
<path fill="none" stroke="midnightblue" d="M1038,-45.8045C1038,-36.9102 1038,-26.7798 1038,-19.7511"/>
<polygon fill="midnightblue" stroke="midnightblue" points="1034.5,-46.083 1038,-56.083 1041.5,-46.083 1034.5,-46.083"/>
</g>
<!-- Node18&#45;&gt;Node17 -->
<g id="edge23" class="edge"><title>Node18&#45;&gt;Node17</title>
<path fill="none" stroke="midnightblue" d="M1058.15,-103.275C1053.03,-94.0454 1046.98,-83.1703 1042.86,-75.7511"/>
<polygon fill="midnightblue" stroke="midnightblue" points="1055.13,-105.041 1063.05,-112.083 1061.25,-101.642 1055.13,-105.041"/>
</g>
<!-- Node21&#45;&gt;Node9 -->
<g id="edge28" class="edge"><title>Node21&#45;&gt;Node9</title>
<path fill="none" stroke="midnightblue" d="M637.35,-283.856C649.2,-282.504 662.094,-281.113 674,-280 783.149,-269.794 1067.22,-291.538 1166,-244 1219.39,-218.306 1259.67,-155.051 1273.13,-131.778"/>
<polygon fill="midnightblue" stroke="midnightblue" points="636.786,-280.398 627.256,-285.027 637.593,-287.351 636.786,-280.398"/>
</g>
<!-- Node21&#45;&gt;Node10 -->
<g id="edge32" class="edge"><title>Node21&#45;&gt;Node10</title>
<path fill="none" stroke="midnightblue" d="M637.263,-282.082C716.921,-268.089 884.323,-233.816 918,-188 959.508,-131.531 1011.13,-189.89 694,-132 692.466,-131.72 690.903,-131.429 689.325,-131.13"/>
<polygon fill="midnightblue" stroke="midnightblue" points="636.341,-278.69 627.084,-283.844 637.534,-285.587 636.341,-278.69"/>
</g>
<!-- Node21&#45;&gt;Node13 -->
<g id="edge27" class="edge"><title>Node21&#45;&gt;Node13</title>
<path fill="none" stroke="midnightblue" d="M637.347,-283.824C649.197,-282.472 662.092,-281.089 674,-280 789.571,-269.429 1085.82,-283.34 1195,-244 1299.92,-206.195 1397.94,-106.177 1426,-75.8445"/>
<polygon fill="midnightblue" stroke="midnightblue" points="636.782,-280.366 627.253,-284.997 637.59,-287.32 636.782,-280.366"/>
</g>
<!-- Node21&#45;&gt;Node14 -->
<g id="edge36" class="edge"><title>Node21&#45;&gt;Node14</title>
<path fill="none" stroke="midnightblue" d="M637.092,-284.147C734.462,-272.896 967.275,-245.846 971,-244 997.473,-230.882 1019.04,-201.976 1028.63,-187.545"/>
<polygon fill="midnightblue" stroke="midnightblue" points="636.537,-280.687 627.005,-285.312 637.34,-287.641 636.537,-280.687"/>
</g>
<!-- Node22 -->
<g id="node22" class="node"><title>Node22</title>
<g id="a_node22"><a xlink:href="importKinetics_8cpp.html" target="_top" xlink:title="Declarations of global routines for the importing of kinetics data from XML files (see Input File Han...">
<polygon fill="white" stroke="black" points="348,-112.5 348,-131.5 446,-131.5 446,-112.5 348,-112.5"/>
<text text-anchor="middle" x="397" y="-119.5" font-family="Helvetica,sans-Serif" font-size="10.00">importKinetics.cpp</text>
</a>
</g>
</g>
<!-- Node21&#45;&gt;Node22 -->
<g id="edge29" class="edge"><title>Node21&#45;&gt;Node22</title>
<path fill="none" stroke="midnightblue" d="M553.002,-277.991C488.733,-260.2 370.887,-223.52 347,-188 332.858,-166.971 362.555,-143.76 381.965,-131.569"/>
<polygon fill="midnightblue" stroke="midnightblue" points="552.266,-281.418 562.835,-280.682 554.113,-274.667 552.266,-281.418"/>
</g>
<!-- Node23 -->
<g id="node23" class="node"><title>Node23</title>
<g id="a_node23"><a xlink:href="Kinetics_8cpp.html" target="_top" xlink:title="Declarations for the base class for kinetics managers (see Kinetics Managers and class Kinetics )...">
<polygon fill="white" stroke="black" points="819.5,-168.5 819.5,-187.5 890.5,-187.5 890.5,-168.5 819.5,-168.5"/>
<text text-anchor="middle" x="855" y="-175.5" font-family="Helvetica,sans-Serif" font-size="10.00">Kinetics.cpp</text>
</a>
</g>
</g>
<!-- Node21&#45;&gt;Node23 -->
<g id="edge30" class="edge"><title>Node21&#45;&gt;Node23</title>
<path fill="none" stroke="midnightblue" d="M603.592,-270.989C611.667,-256.054 625.174,-235.475 643,-224 646.727,-221.601 759.908,-198.337 819.333,-186.235"/>
<polygon fill="midnightblue" stroke="midnightblue" points="600.297,-269.746 598.883,-280.246 606.536,-272.92 600.297,-269.746"/>
</g>
<!-- Node24 -->
<g id="node24" class="node"><title>Node24</title>
<g id="a_node24"><a xlink:href="Reaction_8cpp.html" target="_top" xlink:title="Reaction.cpp">
<polygon fill="white" stroke="black" points="188,-224.5 188,-243.5 262,-243.5 262,-224.5 188,-224.5"/>
<text text-anchor="middle" x="225" y="-231.5" font-family="Helvetica,sans-Serif" font-size="10.00">Reaction.cpp</text>
</a>
</g>
</g>
<!-- Node21&#45;&gt;Node24 -->
<g id="edge31" class="edge"><title>Node21&#45;&gt;Node24</title>
<path fill="none" stroke="midnightblue" d="M552.858,-283.24C478.873,-273.096 328.494,-252.332 276,-244 271.471,-243.281 266.723,-242.492 262.022,-241.688"/>
<polygon fill="midnightblue" stroke="midnightblue" points="552.39,-286.708 562.773,-284.598 553.341,-279.773 552.39,-286.708"/>
</g>
<!-- Node25 -->
<g id="node25" class="node"><title>Node25</title>
<g id="a_node25"><a xlink:href="kinetics_8h.html" target="_top" xlink:title="Support for chemical kinetics calculation from C++ application programs. ">
<polygon fill="white" stroke="black" points="223.5,-112.5 223.5,-131.5 282.5,-131.5 282.5,-112.5 223.5,-112.5"/>
<text text-anchor="middle" x="253" y="-119.5" font-family="Helvetica,sans-Serif" font-size="10.00">kinetics.h</text>
</a>
</g>
</g>
<!-- Node21&#45;&gt;Node25 -->
<g id="edge33" class="edge"><title>Node21&#45;&gt;Node25</title>
<path fill="none" stroke="midnightblue" d="M552.737,-280.082C490.963,-267.146 372.335,-242.684 271,-224 223.576,-215.256 88.1427,-224.819 57,-188 10.4646,-132.982 157.833,-124.289 223.303,-123.093"/>
<polygon fill="midnightblue" stroke="midnightblue" points="552.368,-283.58 562.873,-282.208 553.805,-276.729 552.368,-283.58"/>
</g>
<!-- Node27 -->
<g id="node27" class="node"><title>Node27</title>
<g id="a_node27"><a xlink:href="Kinetics_8h.html" target="_top" xlink:title="Base class for kinetics managers and also contains the kineticsmgr module documentation (see Kinetics...">
<polygon fill="white" stroke="black" points="536,-224.5 536,-243.5 596,-243.5 596,-224.5 536,-224.5"/>
<text text-anchor="middle" x="566" y="-231.5" font-family="Helvetica,sans-Serif" font-size="10.00">Kinetics.h</text>
</a>
</g>
</g>
<!-- Node21&#45;&gt;Node27 -->
<g id="edge37" class="edge"><title>Node21&#45;&gt;Node27</title>
<path fill="none" stroke="midnightblue" d="M585.324,-270.983C580.402,-261.817 574.642,-251.092 570.7,-243.751"/>
<polygon fill="midnightblue" stroke="midnightblue" points="582.396,-272.929 590.211,-280.083 588.563,-269.617 582.396,-272.929"/>
</g>
<!-- Node25&#45;&gt;Node15 -->
<g id="edge34" class="edge"><title>Node25&#45;&gt;Node15</title>
<path fill="none" stroke="midnightblue" d="M292.73,-112.652C343.738,-101.934 431.243,-83.5482 478.128,-73.6969"/>
<polygon fill="midnightblue" stroke="midnightblue" points="291.799,-109.271 282.732,-114.753 293.238,-116.122 291.799,-109.271"/>
</g>
<!-- Node26 -->
<g id="node26" class="node"><title>Node26</title>
<g id="a_node26"><a xlink:href="PureFluid_8h.html" target="_top" xlink:title="PureFluid.h">
<polygon fill="white" stroke="black" points="220,-56.5 220,-75.5 286,-75.5 286,-56.5 220,-56.5"/>
<text text-anchor="middle" x="253" y="-63.5" font-family="Helvetica,sans-Serif" font-size="10.00">PureFluid.h</text>
</a>
</g>
</g>
<!-- Node25&#45;&gt;Node26 -->
<g id="edge35" class="edge"><title>Node25&#45;&gt;Node26</title>
<path fill="none" stroke="midnightblue" d="M253,-101.805C253,-92.9102 253,-82.7798 253,-75.7511"/>
<polygon fill="midnightblue" stroke="midnightblue" points="249.5,-102.083 253,-112.083 256.5,-102.083 249.5,-102.083"/>
</g>
<!-- Node27&#45;&gt;Node8 -->
<g id="edge45" class="edge"><title>Node27&#45;&gt;Node8</title>
<path fill="none" stroke="midnightblue" d="M606.354,-228.003C618.156,-226.618 631.086,-225.173 643,-224 842.232,-204.376 893.515,-214.117 1092,-188 1094.92,-187.616 1097.92,-187.176 1100.94,-186.7"/>
<polygon fill="midnightblue" stroke="midnightblue" points="605.843,-224.54 596.327,-229.198 606.671,-231.49 605.843,-224.54"/>
</g>
<!-- Node27&#45;&gt;Node14 -->
<g id="edge50" class="edge"><title>Node27&#45;&gt;Node14</title>
<path fill="none" stroke="midnightblue" d="M606.382,-228.266C618.185,-226.887 631.109,-225.379 643,-224 766.023,-209.731 910.842,-193.11 984.925,-184.62"/>
<polygon fill="midnightblue" stroke="midnightblue" points="605.878,-224.801 596.353,-229.44 606.692,-231.754 605.878,-224.801"/>
</g>
<!-- Node27&#45;&gt;Node23 -->
<g id="edge38" class="edge"><title>Node27&#45;&gt;Node23</title>
<path fill="none" stroke="midnightblue" d="M606.202,-224.736C607.482,-224.486 608.751,-224.24 610,-224 698.693,-206.949 721.27,-204.857 810,-188 812.974,-187.435 816.057,-186.839 819.151,-186.235"/>
<polygon fill="midnightblue" stroke="midnightblue" points="605.404,-221.327 596.278,-226.709 606.768,-228.192 605.404,-221.327"/>
</g>
<!-- Node27&#45;&gt;Node25 -->
<g id="edge46" class="edge"><title>Node27&#45;&gt;Node25</title>
<path fill="none" stroke="midnightblue" d="M525.581,-231.044C434.316,-226.213 218.529,-212.314 197,-188 179.325,-168.038 213.746,-144.213 236.052,-131.686"/>
<polygon fill="midnightblue" stroke="midnightblue" points="525.648,-234.552 535.816,-231.575 526.011,-227.561 525.648,-234.552"/>
</g>
<!-- Node28 -->
<g id="node28" class="node"><title>Node28</title>
<g id="a_node28"><a xlink:href="ReactorSurface_8cpp.html" target="_top" xlink:title="ReactorSurface.cpp">
<polygon fill="white" stroke="black" points="614,-168.5 614,-187.5 718,-187.5 718,-168.5 614,-168.5"/>
<text text-anchor="middle" x="666" y="-175.5" font-family="Helvetica,sans-Serif" font-size="10.00">ReactorSurface.cpp</text>
</a>
</g>
</g>
<!-- Node27&#45;&gt;Node28 -->
<g id="edge39" class="edge"><title>Node27&#45;&gt;Node28</title>
<path fill="none" stroke="midnightblue" d="M591.088,-219.453C609.549,-209.483 634.097,-196.228 649.973,-187.655"/>
<polygon fill="midnightblue" stroke="midnightblue" points="589.203,-216.493 582.067,-224.324 592.529,-222.652 589.203,-216.493"/>
</g>
<!-- Node29 -->
<g id="node29" class="node"><title>Node29</title>
<g id="a_node29"><a xlink:href="wrappers_8h_source.html" target="_top" xlink:title="wrappers.h">
<polygon fill="white" stroke="black" points="736.5,-168.5 736.5,-187.5 801.5,-187.5 801.5,-168.5 736.5,-168.5"/>
<text text-anchor="middle" x="769" y="-175.5" font-family="Helvetica,sans-Serif" font-size="10.00">wrappers.h</text>
</a>
</g>
</g>
<!-- Node27&#45;&gt;Node29 -->
<g id="edge40" class="edge"><title>Node27&#45;&gt;Node29</title>
<path fill="none" stroke="midnightblue" d="M606.176,-222.313C644.443,-212.133 701.314,-197.005 736.721,-187.587"/>
<polygon fill="midnightblue" stroke="midnightblue" points="605.155,-218.963 596.391,-224.916 606.955,-225.727 605.155,-218.963"/>
</g>
<!-- Node30 -->
<g id="node30" class="node"><title>Node30</title>
<g id="a_node30"><a xlink:href="importKinetics_8h.html" target="_top" xlink:title="Definitions of global routines for the importing of data from XML files (see Input File Handling)...">
<polygon fill="white" stroke="red" points="356.5,-168.5 356.5,-187.5 443.5,-187.5 443.5,-168.5 356.5,-168.5"/>
<text text-anchor="middle" x="400" y="-175.5" font-family="Helvetica,sans-Serif" font-size="10.00">importKinetics.h</text>
</a>
</g>
</g>
<!-- Node27&#45;&gt;Node30 -->
<g id="edge41" class="edge"><title>Node27&#45;&gt;Node30</title>
<path fill="none" stroke="midnightblue" d="M530.047,-221.304C498.768,-211.129 454.179,-196.625 426.18,-187.516"/>
<polygon fill="midnightblue" stroke="midnightblue" points="529.105,-224.678 539.697,-224.444 531.27,-218.022 529.105,-224.678"/>
</g>
<!-- Node31 -->
<g id="node31" class="node"><title>Node31</title>
<g id="a_node31"><a xlink:href="KineticsFactory_8h.html" target="_top" xlink:title="KineticsFactory.h">
<polygon fill="white" stroke="black" points="206.5,-168.5 206.5,-187.5 299.5,-187.5 299.5,-168.5 206.5,-168.5"/>
<text text-anchor="middle" x="253" y="-175.5" font-family="Helvetica,sans-Serif" font-size="10.00">KineticsFactory.h</text>
</a>
</g>
</g>
<!-- Node27&#45;&gt;Node31 -->
<g id="edge47" class="edge"><title>Node27&#45;&gt;Node31</title>
<path fill="none" stroke="midnightblue" d="M526.107,-226.117C468.175,-216.123 360.991,-197.631 299.537,-187.029"/>
<polygon fill="midnightblue" stroke="midnightblue" points="525.539,-229.571 535.988,-227.822 526.729,-222.673 525.539,-229.571"/>
</g>
<!-- Node32 -->
<g id="node32" class="node"><title>Node32</title>
<g id="a_node32"><a xlink:href="ReactionPath_8h.html" target="_top" xlink:title="Classes for reaction path analysis. ">
<polygon fill="white" stroke="red" points="66,-168.5 66,-187.5 150,-187.5 150,-168.5 66,-168.5"/>
<text text-anchor="middle" x="108" y="-175.5" font-family="Helvetica,sans-Serif" font-size="10.00">ReactionPath.h</text>
</a>
</g>
</g>
<!-- Node27&#45;&gt;Node32 -->
<g id="edge51" class="edge"><title>Node27&#45;&gt;Node32</title>
<path fill="none" stroke="midnightblue" d="M525.878,-229.151C453.461,-222.061 296.148,-206.005 164,-188 159.512,-187.389 154.829,-186.706 150.165,-185.998"/>
<polygon fill="midnightblue" stroke="midnightblue" points="525.641,-232.644 535.934,-230.131 526.32,-225.677 525.641,-232.644"/>
</g>
<!-- Node33 -->
<g id="node33" class="node"><title>Node33</title>
<g id="a_node33"><a xlink:href="StFlow_8h.html" target="_top" xlink:title="StFlow.h">
<polygon fill="white" stroke="red" points="462,-168.5 462,-187.5 518,-187.5 518,-168.5 462,-168.5"/>
<text text-anchor="middle" x="490" y="-175.5" font-family="Helvetica,sans-Serif" font-size="10.00">StFlow.h</text>
</a>
</g>
</g>
<!-- Node27&#45;&gt;Node33 -->
<g id="edge53" class="edge"><title>Node27&#45;&gt;Node33</title>
<path fill="none" stroke="midnightblue" d="M545.424,-218.38C531.688,-208.62 514.075,-196.106 502.433,-187.834"/>
<polygon fill="midnightblue" stroke="midnightblue" points="543.61,-221.385 553.789,-224.324 547.665,-215.679 543.61,-221.385"/>
</g>
<!-- Node34 -->
<g id="node34" class="node"><title>Node34</title>
<g id="a_node34"><a xlink:href="Reactor_8h.html" target="_top" xlink:title="Reactor.h">
<polygon fill="white" stroke="red" points="536.5,-168.5 536.5,-187.5 595.5,-187.5 595.5,-168.5 536.5,-168.5"/>
<text text-anchor="middle" x="566" y="-175.5" font-family="Helvetica,sans-Serif" font-size="10.00">Reactor.h</text>
</a>
</g>
</g>
<!-- Node27&#45;&gt;Node34 -->
<g id="edge55" class="edge"><title>Node27&#45;&gt;Node34</title>
<path fill="none" stroke="midnightblue" d="M566,-213.805C566,-204.91 566,-194.78 566,-187.751"/>
<polygon fill="midnightblue" stroke="midnightblue" points="562.5,-214.083 566,-224.083 569.5,-214.083 562.5,-214.083"/>
</g>
<!-- Node30&#45;&gt;Node11 -->
<g id="edge43" class="edge"><title>Node30&#45;&gt;Node11</title>
<path fill="none" stroke="midnightblue" d="M422.429,-163.272C447.045,-148.725 488.115,-125.968 526,-112 572.257,-94.9448 627.225,-82.8384 666.468,-75.5098"/>
<polygon fill="midnightblue" stroke="midnightblue" points="420.625,-160.272 413.841,-168.409 424.219,-166.279 420.625,-160.272"/>
</g>
<!-- Node30&#45;&gt;Node22 -->
<g id="edge42" class="edge"><title>Node30&#45;&gt;Node22</title>
<path fill="none" stroke="midnightblue" d="M398.934,-157.805C398.439,-148.91 397.877,-138.78 397.486,-131.751"/>
<polygon fill="midnightblue" stroke="midnightblue" points="395.455,-158.293 399.505,-168.083 402.444,-157.904 395.455,-158.293"/>
</g>
<!-- Node30&#45;&gt;Node25 -->
<g id="edge44" class="edge"><title>Node30&#45;&gt;Node25</title>
<path fill="none" stroke="midnightblue" d="M367.077,-164.906C339.44,-154.754 300.656,-140.506 276.184,-131.516"/>
<polygon fill="midnightblue" stroke="midnightblue" points="366.114,-168.281 376.707,-168.444 368.528,-161.71 366.114,-168.281"/>
</g>
<!-- Node31&#45;&gt;Node11 -->
<g id="edge48" class="edge"><title>Node31&#45;&gt;Node11</title>
<path fill="none" stroke="midnightblue" d="M268.464,-161.178C284.541,-145.804 311.205,-123.189 339,-112 397.164,-88.5867 576.456,-75.1977 665.999,-69.8074"/>
<polygon fill="midnightblue" stroke="midnightblue" points="265.74,-158.948 261.071,-168.459 270.652,-163.935 265.74,-158.948"/>
</g>
<!-- Node31&#45;&gt;Node25 -->
<g id="edge49" class="edge"><title>Node31&#45;&gt;Node25</title>
<path fill="none" stroke="midnightblue" d="M253,-157.805C253,-148.91 253,-138.78 253,-131.751"/>
<polygon fill="midnightblue" stroke="midnightblue" points="249.5,-158.083 253,-168.083 256.5,-158.083 249.5,-158.083"/>
</g>
<!-- Node32&#45;&gt;Node3 -->
<g id="edge52" class="edge"><title>Node32&#45;&gt;Node3</title>
<path fill="none" stroke="midnightblue" d="M92.0024,-161.002C82.4329,-151.433 70.6389,-139.639 62.7511,-131.751"/>
<polygon fill="midnightblue" stroke="midnightblue" points="89.537,-163.487 99.083,-168.083 94.4868,-158.537 89.537,-163.487"/>
</g>
<!-- Node33&#45;&gt;Node19 -->
<g id="edge54" class="edge"><title>Node33&#45;&gt;Node19</title>
<path fill="none" stroke="midnightblue" d="M510.142,-162.101C523.279,-152.382 539.982,-140.027 551.058,-131.834"/>
<polygon fill="midnightblue" stroke="midnightblue" points="507.687,-159.563 501.729,-168.324 511.85,-165.191 507.687,-159.563"/>
</g>
<!-- Node35&#45;&gt;Node10 -->
<g id="edge57" class="edge"><title>Node35&#45;&gt;Node10</title>
<path fill="none" stroke="midnightblue" d="M730.208,-233.51C805.514,-232.899 946.173,-224.462 899,-168 897.314,-165.983 758.817,-141.803 689.134,-129.746"/>
<polygon fill="midnightblue" stroke="midnightblue" points="730.029,-230.011 720.043,-233.549 730.056,-237.011 730.029,-230.011"/>
</g>
<!-- Node36&#45;&gt;Node21 -->
<g id="edge64" class="edge"><title>Node36&#45;&gt;Node21</title>
<path fill="none" stroke="midnightblue" d="M515.056,-331.726C534.684,-321.727 561.028,-308.307 578.012,-299.655"/>
<polygon fill="midnightblue" stroke="midnightblue" points="513.352,-328.666 506.031,-336.324 516.53,-334.903 513.352,-328.666"/>
</g>
<!-- Node37 -->
<g id="node37" class="node"><title>Node37</title>
<g id="a_node37"><a xlink:href="Falloff_8cpp.html" target="_top" xlink:title="Definitions for member functions of classes derived from Falloff. ">
<polygon fill="white" stroke="black" points="458,-280.5 458,-299.5 520,-299.5 520,-280.5 458,-280.5"/>
<text text-anchor="middle" x="489" y="-287.5" font-family="Helvetica,sans-Serif" font-size="10.00">Falloff.cpp</text>
</a>
</g>
</g>
<!-- Node36&#45;&gt;Node37 -->
<g id="edge59" class="edge"><title>Node36&#45;&gt;Node37</title>
<path fill="none" stroke="midnightblue" d="M489,-325.805C489,-316.91 489,-306.78 489,-299.751"/>
<polygon fill="midnightblue" stroke="midnightblue" points="485.5,-326.083 489,-336.083 492.5,-326.083 485.5,-326.083"/>
</g>
<!-- Node38 -->
<g id="node38" class="node"><title>Node38</title>
<g id="a_node38"><a xlink:href="FalloffFactory_8h.html" target="_top" xlink:title="Parameterizations for reaction falloff functions. ">
<polygon fill="white" stroke="black" points="304.5,-280.5 304.5,-299.5 389.5,-299.5 389.5,-280.5 304.5,-280.5"/>
<text text-anchor="middle" x="347" y="-287.5" font-family="Helvetica,sans-Serif" font-size="10.00">FalloffFactory.h</text>
</a>
</g>
</g>
<!-- Node36&#45;&gt;Node38 -->
<g id="edge60" class="edge"><title>Node36&#45;&gt;Node38</title>
<path fill="none" stroke="midnightblue" d="M456.845,-332.772C430.172,-322.629 392.931,-308.467 369.395,-299.516"/>
<polygon fill="midnightblue" stroke="midnightblue" points="455.909,-336.16 466.5,-336.444 458.397,-329.618 455.909,-336.16"/>
</g>
<!-- Node38&#45;&gt;Node2 -->
<g id="edge61" class="edge"><title>Node38&#45;&gt;Node2</title>
<path fill="none" stroke="midnightblue" d="M301.535,-278.088C259.027,-267.887 196.421,-252.861 157.485,-243.516"/>
<polygon fill="midnightblue" stroke="midnightblue" points="300.807,-281.513 311.348,-280.444 302.441,-274.706 300.807,-281.513"/>
</g>
<!-- Node38&#45;&gt;Node24 -->
<g id="edge62" class="edge"><title>Node38&#45;&gt;Node24</title>
<path fill="none" stroke="midnightblue" d="M318.461,-276.368C295.614,-266.255 264.195,-252.349 244.241,-243.516"/>
<polygon fill="midnightblue" stroke="midnightblue" points="317.108,-279.597 327.669,-280.444 319.941,-273.196 317.108,-279.597"/>
</g>
<!-- Node38&#45;&gt;Node35 -->
<g id="edge63" class="edge"><title>Node38&#45;&gt;Node35</title>
<path fill="none" stroke="midnightblue" d="M399.55,-280.629C469.704,-269.454 592.011,-249.972 651.515,-240.493"/>
<polygon fill="midnightblue" stroke="midnightblue" points="398.916,-277.186 389.591,-282.216 400.017,-284.099 398.916,-277.186"/>
</g>
</g>
</svg>
