<?xml version="1.0" encoding="UTF-8" standalone="no"?>
<!DOCTYPE svg PUBLIC "-//W3C//DTD SVG 1.1//EN"
 "http://www.w3.org/Graphics/SVG/1.1/DTD/svg11.dtd">
<!-- Generated by graphviz version 2.36.0 (20140111.2315)
 -->
<!-- Title: RedlichKwongMFTP.h Pages: 1 -->
<svg width="1071pt" height="364pt"
 viewBox="0.00 0.00 1071.00 364.00" xmlns="http://www.w3.org/2000/svg" xmlns:xlink="http://www.w3.org/1999/xlink">
<g id="graph0" class="graph" transform="scale(1 1) rotate(0) translate(4 360)">
<title>RedlichKwongMFTP.h</title>
<polygon fill="white" stroke="none" points="-4,4 -4,-360 1067,-360 1067,4 -4,4"/>
<!-- Node1 -->
<g id="node1" class="node"><title>Node1</title>
<polygon fill="#bfbfbf" stroke="black" points="830.5,-336.5 830.5,-355.5 943.5,-355.5 943.5,-336.5 830.5,-336.5"/>
<text text-anchor="middle" x="887" y="-343.5" font-family="FreeSans" font-size="10.00">RedlichKwongMFTP.h</text>
</g>
<!-- Node2 -->
<g id="node2" class="node"><title>Node2</title>
<g id="a_node2"><a xlink:href="MixtureFugacityTP_8h.html" target="_top" xlink:title="Header file for a derived class of ThermoPhase that handles non&#45;ideal mixtures based on the fugacity ...">
<polygon fill="white" stroke="black" points="764.5,-280.5 764.5,-299.5 869.5,-299.5 869.5,-280.5 764.5,-280.5"/>
<text text-anchor="middle" x="817" y="-287.5" font-family="FreeSans" font-size="10.00">MixtureFugacityTP.h</text>
</a>
</g>
</g>
<!-- Node1&#45;&gt;Node2 -->
<g id="edge1" class="edge"><title>Node1&#45;&gt;Node2</title>
<path fill="none" stroke="midnightblue" d="M875.753,-336.324C865.203,-328.185 849.199,-315.839 836.558,-306.087"/>
<polygon fill="midnightblue" stroke="midnightblue" points="838.507,-303.171 828.451,-299.834 834.231,-308.713 838.507,-303.171"/>
</g>
<!-- Node18 -->
<g id="node18" class="node"><title>Node18</title>
<g id="a_node18"><a xlink:href="Array_8h.html" target="_top" xlink:title="Header file for class Cantera::Array2D. ">
<polygon fill="white" stroke="black" points="904.5,-280.5 904.5,-299.5 1009.5,-299.5 1009.5,-280.5 904.5,-280.5"/>
<text text-anchor="middle" x="957" y="-287.5" font-family="FreeSans" font-size="10.00">cantera/base/Array.h</text>
</a>
</g>
</g>
<!-- Node1&#45;&gt;Node18 -->
<g id="edge27" class="edge"><title>Node1&#45;&gt;Node18</title>
<path fill="none" stroke="midnightblue" d="M898.247,-336.324C908.797,-328.185 924.801,-315.839 937.442,-306.087"/>
<polygon fill="midnightblue" stroke="midnightblue" points="939.769,-308.713 945.549,-299.834 935.493,-303.171 939.769,-308.713"/>
</g>
<!-- Node3 -->
<g id="node3" class="node"><title>Node3</title>
<g id="a_node3"><a xlink:href="ThermoPhase_8h.html" target="_top" xlink:title="Header file for class ThermoPhase, the base class for phases with thermodynamic properties, and the text for the Module thermoprops (see Thermodynamic Properties and class ThermoPhase). ">
<polygon fill="white" stroke="black" points="624,-224.5 624,-243.5 708,-243.5 708,-224.5 624,-224.5"/>
<text text-anchor="middle" x="666" y="-231.5" font-family="FreeSans" font-size="10.00">ThermoPhase.h</text>
</a>
</g>
</g>
<!-- Node2&#45;&gt;Node3 -->
<g id="edge2" class="edge"><title>Node2&#45;&gt;Node3</title>
<path fill="none" stroke="midnightblue" d="M793.074,-280.444C767.781,-271.399 727.698,-257.064 699.32,-246.916"/>
<polygon fill="midnightblue" stroke="midnightblue" points="700.409,-243.588 689.814,-243.516 698.052,-250.179 700.409,-243.588"/>
</g>
<!-- Node13 -->
<g id="node13" class="node"><title>Node13</title>
<g id="a_node13"><a xlink:href="ResidEval_8h.html" target="_top" xlink:title="cantera/numerics/ResidEval.h">
<polygon fill="white" stroke="black" points="745.5,-168.5 745.5,-187.5 888.5,-187.5 888.5,-168.5 745.5,-168.5"/>
<text text-anchor="middle" x="817" y="-175.5" font-family="FreeSans" font-size="10.00">cantera/numerics/ResidEval.h</text>
</a>
</g>
</g>
<!-- Node2&#45;&gt;Node13 -->
<g id="edge18" class="edge"><title>Node2&#45;&gt;Node13</title>
<path fill="none" stroke="midnightblue" d="M817,-280.368C817,-262.617 817,-221.666 817,-197.597"/>
<polygon fill="midnightblue" stroke="midnightblue" points="820.5,-197.591 817,-187.591 813.5,-197.591 820.5,-197.591"/>
</g>
<!-- Node4 -->
<g id="node4" class="node"><title>Node4</title>
<g id="a_node4"><a xlink:href="Phase_8h.html" target="_top" xlink:title="Header file for class Phase. ">
<polygon fill="white" stroke="black" points="337.5,-112.5 337.5,-131.5 388.5,-131.5 388.5,-112.5 337.5,-112.5"/>
<text text-anchor="middle" x="363" y="-119.5" font-family="FreeSans" font-size="10.00">Phase.h</text>
</a>
</g>
</g>
<!-- Node3&#45;&gt;Node4 -->
<g id="edge3" class="edge"><title>Node3&#45;&gt;Node4</title>
<path fill="none" stroke="midnightblue" d="M642.224,-224.368C588.57,-204.89 457.974,-157.479 396.3,-135.089"/>
<polygon fill="midnightblue" stroke="midnightblue" points="397.26,-131.714 386.665,-131.591 394.871,-138.294 397.26,-131.714"/>
</g>
<!-- Node10 -->
<g id="node10" class="node"><title>Node10</title>
<g id="a_node10"><a xlink:href="MultiSpeciesThermo_8h.html" target="_top" xlink:title="Header for a general species thermodynamic property manager for a phase (see MultiSpeciesThermo). ">
<polygon fill="white" stroke="black" points="563.5,-168.5 563.5,-187.5 676.5,-187.5 676.5,-168.5 563.5,-168.5"/>
<text text-anchor="middle" x="620" y="-175.5" font-family="FreeSans" font-size="10.00">MultiSpeciesThermo.h</text>
</a>
</g>
</g>
<!-- Node3&#45;&gt;Node10 -->
<g id="edge11" class="edge"><title>Node3&#45;&gt;Node10</title>
<path fill="none" stroke="midnightblue" d="M658.404,-224.083C651.773,-216.298 641.979,-204.801 633.942,-195.367"/>
<polygon fill="midnightblue" stroke="midnightblue" points="636.604,-193.094 627.455,-187.751 631.275,-197.633 636.604,-193.094"/>
</g>
<!-- Node12 -->
<g id="node12" class="node"><title>Node12</title>
<g id="a_node12"><a xlink:href="global_8h.html" target="_top" xlink:title="This file contains definitions for utility functions and text for modules, inputfiles, logs, textlogs, (see Input File Handling, Diagnostic Output, and Writing messages to the screen). ">
<polygon fill="white" stroke="red" points="642,-56.5 642,-75.5 750,-75.5 750,-56.5 642,-56.5"/>
<text text-anchor="middle" x="696" y="-63.5" font-family="FreeSans" font-size="10.00">cantera/base/global.h</text>
</a>
</g>
</g>
<!-- Node3&#45;&gt;Node12 -->
<g id="edge17" class="edge"><title>Node3&#45;&gt;Node12</title>
<path fill="none" stroke="midnightblue" d="M670.578,-224.304C675.03,-215.43 681.602,-201.136 685,-188 694.125,-152.725 695.944,-109.965 696.162,-85.88"/>
<polygon fill="midnightblue" stroke="midnightblue" points="699.662,-85.6727 696.165,-75.6715 692.662,-85.6703 699.662,-85.6727"/>
</g>
<!-- Node5 -->
<g id="node5" class="node"><title>Node5</title>
<g id="a_node5"><a xlink:href="ctexceptions_8h.html" target="_top" xlink:title="Definitions for the classes that are thrown when Cantera experiences an error condition (also contain...">
<polygon fill="white" stroke="red" points="448.5,-56.5 448.5,-75.5 585.5,-75.5 585.5,-56.5 448.5,-56.5"/>
<text text-anchor="middle" x="517" y="-63.5" font-family="FreeSans" font-size="10.00">cantera/base/ctexceptions.h</text>
</a>
</g>
</g>
<!-- Node4&#45;&gt;Node5 -->
<g id="edge4" class="edge"><title>Node4&#45;&gt;Node5</title>
<path fill="none" stroke="midnightblue" d="M387.402,-112.444C413.197,-103.399 454.077,-89.064 483.018,-78.9158"/>
<polygon fill="midnightblue" stroke="midnightblue" points="484.434,-82.1283 492.712,-75.5164 482.118,-75.5226 484.434,-82.1283"/>
</g>
<!-- Node6 -->
<g id="node6" class="node"><title>Node6</title>
<g id="a_node6"><a xlink:href="Elements_8h.html" target="_top" xlink:title="Contains the getElementWeight function and the definitions of element constraint types. ">
<polygon fill="white" stroke="black" points="0,-56.5 0,-75.5 132,-75.5 132,-56.5 0,-56.5"/>
<text text-anchor="middle" x="66" y="-63.5" font-family="FreeSans" font-size="10.00">cantera/thermo/Elements.h</text>
</a>
</g>
</g>
<!-- Node4&#45;&gt;Node6 -->
<g id="edge5" class="edge"><title>Node4&#45;&gt;Node6</title>
<path fill="none" stroke="midnightblue" d="M337.421,-116.349C290.007,-107.729 187.435,-89.0791 122.847,-77.3359"/>
<polygon fill="midnightblue" stroke="midnightblue" points="123.287,-73.8584 112.822,-75.5131 122.034,-80.7455 123.287,-73.8584"/>
</g>
<!-- Node8 -->
<g id="node8" class="node"><title>Node8</title>
<g id="a_node8"><a xlink:href="Species_8h.html" target="_top" xlink:title="Declaration for class Cantera::Species. ">
<polygon fill="white" stroke="black" points="150.5,-56.5 150.5,-75.5 277.5,-75.5 277.5,-56.5 150.5,-56.5"/>
<text text-anchor="middle" x="214" y="-63.5" font-family="FreeSans" font-size="10.00">cantera/thermo/Species.h</text>
</a>
</g>
</g>
<!-- Node4&#45;&gt;Node8 -->
<g id="edge7" class="edge"><title>Node4&#45;&gt;Node8</title>
<path fill="none" stroke="midnightblue" d="M339.391,-112.444C314.542,-103.438 275.226,-89.1891 247.246,-79.049"/>
<polygon fill="midnightblue" stroke="midnightblue" points="248.093,-75.6332 237.499,-75.5164 245.708,-82.2144 248.093,-75.6332"/>
</g>
<!-- Node9 -->
<g id="node9" class="node"><title>Node9</title>
<g id="a_node9"><a xlink:href="ValueCache_8h.html" target="_top" xlink:title="cantera/base/ValueCache.h">
<polygon fill="white" stroke="red" points="296,-56.5 296,-75.5 430,-75.5 430,-56.5 296,-56.5"/>
<text text-anchor="middle" x="363" y="-63.5" font-family="FreeSans" font-size="10.00">cantera/base/ValueCache.h</text>
</a>
</g>
</g>
<!-- Node4&#45;&gt;Node9 -->
<g id="edge9" class="edge"><title>Node4&#45;&gt;Node9</title>
<path fill="none" stroke="midnightblue" d="M363,-112.083C363,-105.006 363,-94.8611 363,-85.9865"/>
<polygon fill="midnightblue" stroke="midnightblue" points="366.5,-85.751 363,-75.7511 359.5,-85.7511 366.5,-85.751"/>
</g>
<!-- Node7 -->
<g id="node7" class="node"><title>Node7</title>
<g id="a_node7"><a xlink:href="ct__defs_8h.html" target="_top" xlink:title="This file contains definitions of terms that are used in internal routines and are unlikely to need m...">
<polygon fill="white" stroke="red" points="586,-0.5 586,-19.5 642,-19.5 642,-0.5 586,-0.5"/>
<text text-anchor="middle" x="614" y="-7.5" font-family="FreeSans" font-size="10.00">ct_defs.h</text>
</a>
</g>
</g>
<!-- Node6&#45;&gt;Node7 -->
<g id="edge6" class="edge"><title>Node6&#45;&gt;Node7</title>
<path fill="none" stroke="midnightblue" d="M132.243,-56.9613C135.202,-56.6305 138.131,-56.3085 141,-56 302.497,-38.6307 495.397,-21.358 575.844,-14.3096"/>
<polygon fill="midnightblue" stroke="midnightblue" points="576.329,-17.7806 585.987,-13.423 575.72,-10.8072 576.329,-17.7806"/>
</g>
<!-- Node8&#45;&gt;Node7 -->
<g id="edge8" class="edge"><title>Node8&#45;&gt;Node7</title>
<path fill="none" stroke="midnightblue" d="M277.381,-56.4435C361.405,-45.1004 507.052,-25.438 575.878,-16.1464"/>
<polygon fill="midnightblue" stroke="midnightblue" points="576.41,-19.6065 585.852,-14.8 575.473,-12.6694 576.41,-19.6065"/>
</g>
<!-- Node9&#45;&gt;Node7 -->
<g id="edge10" class="edge"><title>Node9&#45;&gt;Node7</title>
<path fill="none" stroke="midnightblue" d="M402.772,-56.4435C450.193,-46.2413 528.896,-29.3093 575.671,-19.246"/>
<polygon fill="midnightblue" stroke="midnightblue" points="576.669,-22.6115 585.709,-17.0865 575.197,-15.7681 576.669,-22.6115"/>
</g>
<!-- Node11 -->
<g id="node11" class="node"><title>Node11</title>
<g id="a_node11"><a xlink:href="SpeciesThermoInterpType_8h.html" target="_top" xlink:title="Pure Virtual Base class for individual species reference state thermodynamic managers and text for th...">
<polygon fill="white" stroke="red" points="545.5,-112.5 545.5,-131.5 682.5,-131.5 682.5,-112.5 545.5,-112.5"/>
<text text-anchor="middle" x="614" y="-119.5" font-family="FreeSans" font-size="10.00">SpeciesThermoInterpType.h</text>
</a>
</g>
</g>
<!-- Node10&#45;&gt;Node11 -->
<g id="edge12" class="edge"><title>Node10&#45;&gt;Node11</title>
<path fill="none" stroke="midnightblue" d="M619.009,-168.083C618.214,-160.927 617.071,-150.635 616.077,-141.691"/>
<polygon fill="midnightblue" stroke="midnightblue" points="619.555,-141.303 614.972,-131.751 612.598,-142.076 619.555,-141.303"/>
</g>
<!-- Node11&#45;&gt;Node5 -->
<g id="edge14" class="edge"><title>Node11&#45;&gt;Node5</title>
<path fill="none" stroke="midnightblue" d="M598.415,-112.324C583.001,-103.743 559.188,-90.486 541.29,-80.5224"/>
<polygon fill="midnightblue" stroke="midnightblue" points="542.986,-77.4606 532.546,-75.6545 539.581,-83.5767 542.986,-77.4606"/>
</g>
<!-- Node11&#45;&gt;Node7 -->
<g id="edge13" class="edge"><title>Node11&#45;&gt;Node7</title>
<path fill="none" stroke="midnightblue" d="M614,-112.368C614,-94.617 614,-53.6664 614,-29.5974"/>
<polygon fill="midnightblue" stroke="midnightblue" points="617.5,-29.5914 614,-19.5914 610.5,-29.5915 617.5,-29.5914"/>
</g>
<!-- Node11&#45;&gt;Node12 -->
<g id="edge15" class="edge"><title>Node11&#45;&gt;Node12</title>
<path fill="none" stroke="midnightblue" d="M627.175,-112.324C639.847,-103.979 659.233,-91.2122 674.206,-81.3524"/>
<polygon fill="midnightblue" stroke="midnightblue" points="676.431,-84.0776 682.858,-75.6545 672.581,-78.2313 676.431,-84.0776"/>
</g>
<!-- Node12&#45;&gt;Node7 -->
<g id="edge16" class="edge"><title>Node12&#45;&gt;Node7</title>
<path fill="none" stroke="midnightblue" d="M682.825,-56.324C670.153,-47.979 650.767,-35.2122 635.794,-25.3524"/>
<polygon fill="midnightblue" stroke="midnightblue" points="637.419,-22.2313 627.142,-19.6545 633.569,-28.0776 637.419,-22.2313"/>
</g>
<!-- Node13&#45;&gt;Node5 -->
<g id="edge20" class="edge"><title>Node13&#45;&gt;Node5</title>
<path fill="none" stroke="midnightblue" d="M745.385,-169.529C667.372,-160.77 551.542,-145.703 536,-132 522.929,-120.476 518.625,-100.507 517.317,-85.7351"/>
<polygon fill="midnightblue" stroke="midnightblue" points="520.809,-85.4874 516.806,-75.6781 513.818,-85.8429 520.809,-85.4874"/>
</g>
<!-- Node13&#45;&gt;Node7 -->
<g id="edge19" class="edge"><title>Node13&#45;&gt;Node7</title>
<path fill="none" stroke="midnightblue" d="M813.019,-168.462C800.304,-141.222 761.358,-58.0366 759,-56 728.98,-30.0734 684.148,-19.0782 652.292,-14.4189"/>
<polygon fill="midnightblue" stroke="midnightblue" points="652.397,-10.9027 642.026,-13.0693 651.484,-17.8429 652.397,-10.9027"/>
</g>
<!-- Node14 -->
<g id="node14" class="node"><title>Node14</title>
<g id="a_node14"><a xlink:href="utilities_8h.html" target="_top" xlink:title="Various templated functions that carry out common vector operations (see Templated Utility Functions)...">
<polygon fill="white" stroke="black" points="865.5,-112.5 865.5,-131.5 978.5,-131.5 978.5,-112.5 865.5,-112.5"/>
<text text-anchor="middle" x="922" y="-119.5" font-family="FreeSans" font-size="10.00">cantera/base/utilities.h</text>
</a>
</g>
</g>
<!-- Node13&#45;&gt;Node14 -->
<g id="edge21" class="edge"><title>Node13&#45;&gt;Node14</title>
<path fill="none" stroke="midnightblue" d="M833.87,-168.324C850.709,-159.664 876.807,-146.242 896.238,-136.249"/>
<polygon fill="midnightblue" stroke="midnightblue" points="897.88,-139.341 905.172,-131.655 894.678,-133.116 897.88,-139.341"/>
</g>
<!-- Node17 -->
<g id="node17" class="node"><title>Node17</title>
<polygon fill="white" stroke="#bfbfbf" points="805,-112.5 805,-131.5 847,-131.5 847,-112.5 805,-112.5"/>
<text text-anchor="middle" x="826" y="-119.5" font-family="FreeSans" font-size="10.00">cstdio</text>
</g>
<!-- Node13&#45;&gt;Node17 -->
<g id="edge26" class="edge"><title>Node13&#45;&gt;Node17</title>
<path fill="none" stroke="midnightblue" d="M818.486,-168.083C819.679,-160.927 821.394,-150.635 822.885,-141.691"/>
<polygon fill="midnightblue" stroke="midnightblue" points="826.35,-142.19 824.541,-131.751 819.445,-141.04 826.35,-142.19"/>
</g>
<!-- Node14&#45;&gt;Node7 -->
<g id="edge22" class="edge"><title>Node14&#45;&gt;Node7</title>
<path fill="none" stroke="midnightblue" d="M907.263,-112.304C883.641,-98.6725 835.524,-72.166 792,-56 745.087,-38.5753 688.767,-25.5978 652.223,-18.1665"/>
<polygon fill="midnightblue" stroke="midnightblue" points="652.498,-14.6526 642.007,-16.129 651.129,-21.5174 652.498,-14.6526"/>
</g>
<!-- Node14&#45;&gt;Node12 -->
<g id="edge23" class="edge"><title>Node14&#45;&gt;Node12</title>
<path fill="none" stroke="midnightblue" d="M886.19,-112.444C847.012,-103.083 784.123,-88.0561 741.485,-77.868"/>
<polygon fill="midnightblue" stroke="midnightblue" points="742.182,-74.4363 731.643,-75.5164 740.556,-81.2446 742.182,-74.4363"/>
</g>
<!-- Node15 -->
<g id="node15" class="node"><title>Node15</title>
<polygon fill="white" stroke="#bfbfbf" points="880,-56.5 880,-75.5 938,-75.5 938,-56.5 880,-56.5"/>
<text text-anchor="middle" x="909" y="-63.5" font-family="FreeSans" font-size="10.00">stdexcept</text>
</g>
<!-- Node14&#45;&gt;Node15 -->
<g id="edge24" class="edge"><title>Node14&#45;&gt;Node15</title>
<path fill="none" stroke="midnightblue" d="M919.853,-112.083C918.131,-104.927 915.653,-94.6353 913.5,-85.6911"/>
<polygon fill="midnightblue" stroke="midnightblue" points="916.85,-84.6541 911.107,-75.7511 910.045,-86.2925 916.85,-84.6541"/>
</g>
<!-- Node16 -->
<g id="node16" class="node"><title>Node16</title>
<polygon fill="white" stroke="#bfbfbf" points="956.5,-56.5 956.5,-75.5 1007.5,-75.5 1007.5,-56.5 956.5,-56.5"/>
<text text-anchor="middle" x="982" y="-63.5" font-family="FreeSans" font-size="10.00">numeric</text>
</g>
<!-- Node14&#45;&gt;Node16 -->
<g id="edge25" class="edge"><title>Node14&#45;&gt;Node16</title>
<path fill="none" stroke="midnightblue" d="M931.64,-112.324C940.51,-104.341 953.875,-92.3128 964.608,-82.6529"/>
<polygon fill="midnightblue" stroke="midnightblue" points="967.093,-85.1251 972.185,-75.8339 962.41,-79.922 967.093,-85.1251"/>
</g>
<!-- Node18&#45;&gt;Node14 -->
<g id="edge28" class="edge"><title>Node18&#45;&gt;Node14</title>
<path fill="none" stroke="midnightblue" d="M952.765,-280.25C948.627,-271.336 942.462,-257.01 939,-244 929.578,-208.589 925.131,-165.876 923.235,-141.837"/>
<polygon fill="midnightblue" stroke="midnightblue" points="926.711,-141.371 922.499,-131.65 919.729,-141.876 926.711,-141.371"/>
</g>
<!-- Node19 -->
<g id="node19" class="node"><title>Node19</title>
<polygon fill="white" stroke="#bfbfbf" points="947.5,-224.5 947.5,-243.5 1000.5,-243.5 1000.5,-224.5 947.5,-224.5"/>
<text text-anchor="middle" x="974" y="-231.5" font-family="FreeSans" font-size="10.00">iostream</text>
</g>
<!-- Node18&#45;&gt;Node19 -->
<g id="edge29" class="edge"><title>Node18&#45;&gt;Node19</title>
<path fill="none" stroke="midnightblue" d="M959.807,-280.083C962.085,-272.849 965.371,-262.409 968.208,-253.397"/>
<polygon fill="midnightblue" stroke="midnightblue" points="971.581,-254.341 971.245,-243.751 964.904,-252.239 971.581,-254.341"/>
</g>
<!-- Node20 -->
<g id="node20" class="node"><title>Node20</title>
<polygon fill="white" stroke="#bfbfbf" points="1018.5,-224.5 1018.5,-243.5 1063.5,-243.5 1063.5,-224.5 1018.5,-224.5"/>
<text text-anchor="middle" x="1041" y="-231.5" font-family="FreeSans" font-size="10.00">cstring</text>
</g>
<!-- Node18&#45;&gt;Node20 -->
<g id="edge30" class="edge"><title>Node18&#45;&gt;Node20</title>
<path fill="none" stroke="midnightblue" d="M970.496,-280.324C983.6,-271.9 1003.71,-258.971 1019.11,-249.074"/>
<polygon fill="midnightblue" stroke="midnightblue" points="1021.02,-252.006 1027.54,-243.655 1017.23,-246.118 1021.02,-252.006"/>
</g>
</g>
</svg>
