<?xml version="1.0" encoding="UTF-8" standalone="no"?>
<!DOCTYPE svg PUBLIC "-//W3C//DTD SVG 1.1//EN"
 "http://www.w3.org/Graphics/SVG/1.1/DTD/svg11.dtd">
<!-- Generated by graphviz version 2.36.0 (20140111.2315)
 -->
<!-- Title: RedlichKisterVPSSTP.cpp Pages: 1 -->
<svg width="927pt" height="444pt"
 viewBox="0.00 0.00 927.00 444.00" xmlns="http://www.w3.org/2000/svg" xmlns:xlink="http://www.w3.org/1999/xlink">
<g id="graph0" class="graph" transform="scale(1 1) rotate(0) translate(4 440)">
<title>RedlichKisterVPSSTP.cpp</title>
<polygon fill="white" stroke="none" points="-4,4 -4,-440 923,-440 923,4 -4,4"/>
<!-- Node1 -->
<g id="node1" class="node"><title>Node1</title>
<polygon fill="#bfbfbf" stroke="black" points="496.5,-416.5 496.5,-435.5 627.5,-435.5 627.5,-416.5 496.5,-416.5"/>
<text text-anchor="middle" x="562" y="-423.5" font-family="FreeSans" font-size="10.00">RedlichKisterVPSSTP.cpp</text>
</g>
<!-- Node2 -->
<g id="node2" class="node"><title>Node2</title>
<g id="a_node2"><a xlink:href="RedlichKisterVPSSTP_8h.html" target="_top" xlink:title="Header for intermediate ThermoPhase object for phases which employ Gibbs excess free energy based for...">
<polygon fill="white" stroke="black" points="439,-349 439,-379 581,-379 581,-349 439,-349"/>
<text text-anchor="start" x="447" y="-367" font-family="FreeSans" font-size="10.00">cantera/thermo/RedlichKister</text>
<text text-anchor="middle" x="510" y="-356" font-family="FreeSans" font-size="10.00">VPSSTP.h</text>
</a>
</g>
</g>
<!-- Node1&#45;&gt;Node2 -->
<g id="edge1" class="edge"><title>Node1&#45;&gt;Node2</title>
<path fill="none" stroke="midnightblue" d="M554.55,-416.403C547.902,-408.733 537.878,-397.167 529.021,-386.948"/>
<polygon fill="midnightblue" stroke="midnightblue" points="531.45,-384.405 522.255,-379.141 526.16,-388.99 531.45,-384.405"/>
</g>
<!-- Node16 -->
<g id="node16" class="node"><title>Node16</title>
<g id="a_node16"><a xlink:href="ThermoFactory_8h.html" target="_top" xlink:title="Headers for the factory class that can create known ThermoPhase objects (see Thermodynamic Properties...">
<polygon fill="white" stroke="black" points="265,-224.5 265,-243.5 423,-243.5 423,-224.5 265,-224.5"/>
<text text-anchor="middle" x="344" y="-231.5" font-family="FreeSans" font-size="10.00">cantera/thermo/ThermoFactory.h</text>
</a>
</g>
</g>
<!-- Node1&#45;&gt;Node16 -->
<g id="edge18" class="edge"><title>Node1&#45;&gt;Node16</title>
<path fill="none" stroke="midnightblue" d="M511.176,-416.462C484.749,-409.984 453.213,-398.849 430,-380 387.504,-345.494 361.199,-284.012 350.109,-253.389"/>
<polygon fill="midnightblue" stroke="midnightblue" points="353.3,-251.906 346.711,-243.61 346.688,-254.205 353.3,-251.906"/>
</g>
<!-- Node21 -->
<g id="node21" class="node"><title>Node21</title>
<g id="a_node21"><a xlink:href="stringUtils_8h.html" target="_top" xlink:title="Contains declarations for string manipulation functions within Cantera. ">
<polygon fill="white" stroke="black" points="639.5,-112.5 639.5,-131.5 764.5,-131.5 764.5,-112.5 639.5,-112.5"/>
<text text-anchor="middle" x="702" y="-119.5" font-family="FreeSans" font-size="10.00">cantera/base/stringUtils.h</text>
</a>
</g>
</g>
<!-- Node1&#45;&gt;Node21 -->
<g id="edge28" class="edge"><title>Node1&#45;&gt;Node21</title>
<path fill="none" stroke="midnightblue" d="M588.302,-416.38C631.565,-400.355 713,-361.609 713,-297 713,-297 713,-297 713,-233 713,-200.788 708.272,-163.532 705.015,-141.692"/>
<polygon fill="midnightblue" stroke="midnightblue" points="708.43,-140.874 703.438,-131.529 701.513,-141.947 708.43,-140.874"/>
</g>
<!-- Node22 -->
<g id="node22" class="node"><title>Node22</title>
<g id="a_node22"><a xlink:href="ctml_8h.html" target="_top" xlink:title="CTML (&quot;Cantera Markup Language&quot;) is the variant of XML that Cantera uses to store data...">
<polygon fill="white" stroke="black" points="571.5,-224.5 571.5,-243.5 672.5,-243.5 672.5,-224.5 571.5,-224.5"/>
<text text-anchor="middle" x="622" y="-231.5" font-family="FreeSans" font-size="10.00">cantera/base/ctml.h</text>
</a>
</g>
</g>
<!-- Node1&#45;&gt;Node22 -->
<g id="edge32" class="edge"><title>Node1&#45;&gt;Node22</title>
<path fill="none" stroke="midnightblue" d="M568.757,-416.184C575.134,-407.449 584.514,-393.464 590,-380 607.611,-336.775 616.318,-282.163 619.906,-253.892"/>
<polygon fill="midnightblue" stroke="midnightblue" points="623.4,-254.149 621.108,-243.805 616.449,-253.321 623.4,-254.149"/>
</g>
<!-- Node3 -->
<g id="node3" class="node"><title>Node3</title>
<g id="a_node3"><a xlink:href="GibbsExcessVPSSTP_8h.html" target="_top" xlink:title="Header for intermediate ThermoPhase object for phases which employ Gibbs excess free energy based for...">
<polygon fill="white" stroke="black" points="427,-281 427,-311 567,-311 567,-281 427,-281"/>
<text text-anchor="start" x="435" y="-299" font-family="FreeSans" font-size="10.00">cantera/thermo/GibbsExcess</text>
<text text-anchor="middle" x="497" y="-288" font-family="FreeSans" font-size="10.00">VPSSTP.h</text>
</a>
</g>
</g>
<!-- Node2&#45;&gt;Node3 -->
<g id="edge2" class="edge"><title>Node2&#45;&gt;Node3</title>
<path fill="none" stroke="midnightblue" d="M507.179,-348.679C505.595,-340.636 503.576,-330.385 501.754,-321.137"/>
<polygon fill="midnightblue" stroke="midnightblue" points="505.182,-320.428 499.815,-311.293 498.314,-321.781 505.182,-320.428"/>
</g>
<!-- Node4 -->
<g id="node4" class="node"><title>Node4</title>
<g id="a_node4"><a xlink:href="VPStandardStateTP_8h.html" target="_top" xlink:title="Header file for a derived class of ThermoPhase that handles variable pressure standard state methods ...">
<polygon fill="white" stroke="black" points="441,-224.5 441,-243.5 553,-243.5 553,-224.5 441,-224.5"/>
<text text-anchor="middle" x="497" y="-231.5" font-family="FreeSans" font-size="10.00">VPStandardStateTP.h</text>
</a>
</g>
</g>
<!-- Node3&#45;&gt;Node4 -->
<g id="edge3" class="edge"><title>Node3&#45;&gt;Node4</title>
<path fill="none" stroke="midnightblue" d="M497,-280.781C497,-272.781 497,-262.689 497,-254.017"/>
<polygon fill="midnightblue" stroke="midnightblue" points="500.5,-253.73 497,-243.731 493.5,-253.731 500.5,-253.73"/>
</g>
<!-- Node12 -->
<g id="node12" class="node"><title>Node12</title>
<g id="a_node12"><a xlink:href="Array_8h.html" target="_top" xlink:title="Header file for class Cantera::Array2D. ">
<polygon fill="white" stroke="black" points="91.5,-224.5 91.5,-243.5 196.5,-243.5 196.5,-224.5 91.5,-224.5"/>
<text text-anchor="middle" x="144" y="-231.5" font-family="FreeSans" font-size="10.00">cantera/base/Array.h</text>
</a>
</g>
</g>
<!-- Node3&#45;&gt;Node12 -->
<g id="edge12" class="edge"><title>Node3&#45;&gt;Node12</title>
<path fill="none" stroke="midnightblue" d="M426.837,-283.074C361.698,-272.003 265.754,-255.695 204.067,-245.21"/>
<polygon fill="midnightblue" stroke="midnightblue" points="204.54,-241.74 194.095,-243.515 203.367,-248.641 204.54,-241.74"/>
</g>
<!-- Node5 -->
<g id="node5" class="node"><title>Node5</title>
<g id="a_node5"><a xlink:href="ThermoPhase_8h.html" target="_top" xlink:title="Header file for class ThermoPhase, the base class for phases with thermodynamic properties, and the text for the Module thermoprops (see Thermodynamic Properties and class ThermoPhase). ">
<polygon fill="white" stroke="red" points="361,-168.5 361,-187.5 445,-187.5 445,-168.5 361,-168.5"/>
<text text-anchor="middle" x="403" y="-175.5" font-family="FreeSans" font-size="10.00">ThermoPhase.h</text>
</a>
</g>
</g>
<!-- Node4&#45;&gt;Node5 -->
<g id="edge4" class="edge"><title>Node4&#45;&gt;Node5</title>
<path fill="none" stroke="midnightblue" d="M481.897,-224.324C467.097,-215.822 444.306,-202.729 427.018,-192.797"/>
<polygon fill="midnightblue" stroke="midnightblue" points="428.48,-189.601 418.065,-187.655 424.993,-195.671 428.48,-189.601"/>
</g>
<!-- Node11 -->
<g id="node11" class="node"><title>Node11</title>
<g id="a_node11"><a xlink:href="VPSSMgr_8h.html" target="_top" xlink:title="Declaration file for a virtual base class that manages the calculation of standard state properties f...">
<polygon fill="white" stroke="red" points="463.5,-168.5 463.5,-187.5 530.5,-187.5 530.5,-168.5 463.5,-168.5"/>
<text text-anchor="middle" x="497" y="-175.5" font-family="FreeSans" font-size="10.00">VPSSMgr.h</text>
</a>
</g>
</g>
<!-- Node4&#45;&gt;Node11 -->
<g id="edge10" class="edge"><title>Node4&#45;&gt;Node11</title>
<path fill="none" stroke="midnightblue" d="M497,-224.083C497,-217.006 497,-206.861 497,-197.986"/>
<polygon fill="midnightblue" stroke="midnightblue" points="500.5,-197.751 497,-187.751 493.5,-197.751 500.5,-197.751"/>
</g>
<!-- Node6 -->
<g id="node6" class="node"><title>Node6</title>
<g id="a_node6"><a xlink:href="global_8h.html" target="_top" xlink:title="This file contains definitions for utility functions and text for modules, inputfiles, logs, textlogs, (see Input File Handling, Diagnostic Output, and Writing messages to the screen). ">
<polygon fill="white" stroke="black" points="447,-112.5 447,-131.5 555,-131.5 555,-112.5 447,-112.5"/>
<text text-anchor="middle" x="501" y="-119.5" font-family="FreeSans" font-size="10.00">cantera/base/global.h</text>
</a>
</g>
</g>
<!-- Node5&#45;&gt;Node6 -->
<g id="edge5" class="edge"><title>Node5&#45;&gt;Node6</title>
<path fill="none" stroke="midnightblue" d="M418.745,-168.324C434.319,-159.743 458.377,-146.486 476.459,-136.522"/>
<polygon fill="midnightblue" stroke="midnightblue" points="478.224,-139.546 485.294,-131.655 474.846,-133.415 478.224,-139.546"/>
</g>
<!-- Node7 -->
<g id="node7" class="node"><title>Node7</title>
<g id="a_node7"><a xlink:href="ct__defs_8h.html" target="_top" xlink:title="This file contains definitions of terms that are used in internal routines and are unlikely to need m...">
<polygon fill="white" stroke="red" points="454,-56.5 454,-75.5 568,-75.5 568,-56.5 454,-56.5"/>
<text text-anchor="middle" x="511" y="-63.5" font-family="FreeSans" font-size="10.00">cantera/base/ct_defs.h</text>
</a>
</g>
</g>
<!-- Node6&#45;&gt;Node7 -->
<g id="edge6" class="edge"><title>Node6&#45;&gt;Node7</title>
<path fill="none" stroke="midnightblue" d="M502.651,-112.083C503.976,-104.927 505.882,-94.6353 507.539,-85.6911"/>
<polygon fill="midnightblue" stroke="midnightblue" points="511,-86.2212 509.379,-75.7511 504.117,-84.9466 511,-86.2212"/>
</g>
<!-- Node10 -->
<g id="node10" class="node"><title>Node10</title>
<polygon fill="white" stroke="#bfbfbf" points="588.5,-56.5 588.5,-75.5 691.5,-75.5 691.5,-56.5 588.5,-56.5"/>
<text text-anchor="middle" x="640" y="-63.5" font-family="FreeSans" font-size="10.00">cantera/ext/format.h</text>
</g>
<!-- Node6&#45;&gt;Node10 -->
<g id="edge9" class="edge"><title>Node6&#45;&gt;Node10</title>
<path fill="none" stroke="midnightblue" d="M523.025,-112.444C546.104,-103.478 582.562,-89.314 608.641,-79.1827"/>
<polygon fill="midnightblue" stroke="midnightblue" points="610.024,-82.4002 618.078,-75.5164 607.489,-75.8753 610.024,-82.4002"/>
</g>
<!-- Node8 -->
<g id="node8" class="node"><title>Node8</title>
<polygon fill="white" stroke="#bfbfbf" points="335.5,-0.5 335.5,-19.5 378.5,-19.5 378.5,-0.5 335.5,-0.5"/>
<text text-anchor="middle" x="357" y="-7.5" font-family="FreeSans" font-size="10.00">vector</text>
</g>
<!-- Node7&#45;&gt;Node8 -->
<g id="edge7" class="edge"><title>Node7&#45;&gt;Node8</title>
<path fill="none" stroke="midnightblue" d="M486.598,-56.4435C460.045,-47.1326 417.506,-32.2163 388.46,-22.0315"/>
<polygon fill="midnightblue" stroke="midnightblue" points="389.392,-18.6495 378.798,-18.6433 387.076,-25.2552 389.392,-18.6495"/>
</g>
<!-- Node9 -->
<g id="node9" class="node"><title>Node9</title>
<polygon fill="white" stroke="#bfbfbf" points="700,-0.5 700,-19.5 740,-19.5 740,-0.5 700,-0.5"/>
<text text-anchor="middle" x="720" y="-7.5" font-family="FreeSans" font-size="10.00">string</text>
</g>
<!-- Node7&#45;&gt;Node9 -->
<g id="edge8" class="edge"><title>Node7&#45;&gt;Node9</title>
<path fill="none" stroke="midnightblue" d="M544.117,-56.4435C584.202,-46.0866 651.13,-28.7941 689.839,-18.7929"/>
<polygon fill="midnightblue" stroke="midnightblue" points="691.156,-22.0675 699.962,-16.1772 689.405,-15.2901 691.156,-22.0675"/>
</g>
<!-- Node11&#45;&gt;Node6 -->
<g id="edge11" class="edge"><title>Node11&#45;&gt;Node6</title>
<path fill="none" stroke="midnightblue" d="M497.661,-168.083C498.185,-161.006 498.936,-150.861 499.594,-141.986"/>
<polygon fill="midnightblue" stroke="midnightblue" points="503.103,-141.982 500.352,-131.751 496.123,-141.465 503.103,-141.982"/>
</g>
<!-- Node13 -->
<g id="node13" class="node"><title>Node13</title>
<g id="a_node13"><a xlink:href="utilities_8h.html" target="_top" xlink:title="Various templated functions that carry out common vector operations (see Templated Utility Functions)...">
<polygon fill="white" stroke="red" points="289,-168.5 289,-187.5 343,-187.5 343,-168.5 289,-168.5"/>
<text text-anchor="middle" x="316" y="-175.5" font-family="FreeSans" font-size="10.00">utilities.h</text>
</a>
</g>
</g>
<!-- Node12&#45;&gt;Node13 -->
<g id="edge13" class="edge"><title>Node12&#45;&gt;Node13</title>
<path fill="none" stroke="midnightblue" d="M171.254,-224.444C200.441,-215.28 246.921,-200.688 279.309,-190.519"/>
<polygon fill="midnightblue" stroke="midnightblue" points="280.381,-193.851 288.874,-187.516 278.284,-187.173 280.381,-193.851"/>
</g>
<!-- Node14 -->
<g id="node14" class="node"><title>Node14</title>
<polygon fill="white" stroke="#bfbfbf" points="-0.5,-168.5 -0.5,-187.5 52.5,-187.5 52.5,-168.5 -0.5,-168.5"/>
<text text-anchor="middle" x="26" y="-175.5" font-family="FreeSans" font-size="10.00">iostream</text>
</g>
<!-- Node12&#45;&gt;Node14 -->
<g id="edge16" class="edge"><title>Node12&#45;&gt;Node14</title>
<path fill="none" stroke="midnightblue" d="M125.303,-224.444C106.056,-215.636 75.8475,-201.812 53.7999,-191.722"/>
<polygon fill="midnightblue" stroke="midnightblue" points="55.1595,-188.495 44.61,-187.516 52.2466,-194.86 55.1595,-188.495"/>
</g>
<!-- Node15 -->
<g id="node15" class="node"><title>Node15</title>
<polygon fill="white" stroke="#bfbfbf" points="70.5,-168.5 70.5,-187.5 115.5,-187.5 115.5,-168.5 70.5,-168.5"/>
<text text-anchor="middle" x="93" y="-175.5" font-family="FreeSans" font-size="10.00">cstring</text>
</g>
<!-- Node12&#45;&gt;Node15 -->
<g id="edge17" class="edge"><title>Node12&#45;&gt;Node15</title>
<path fill="none" stroke="midnightblue" d="M135.578,-224.083C128.152,-216.22 117.148,-204.569 108.188,-195.081"/>
<polygon fill="midnightblue" stroke="midnightblue" points="110.676,-192.618 101.265,-187.751 105.587,-197.424 110.676,-192.618"/>
</g>
<!-- Node13&#45;&gt;Node6 -->
<g id="edge15" class="edge"><title>Node13&#45;&gt;Node6</title>
<path fill="none" stroke="midnightblue" d="M343.297,-169.032C374.583,-159.9 426.117,-144.858 461.715,-134.467"/>
<polygon fill="midnightblue" stroke="midnightblue" points="463.138,-137.698 471.756,-131.536 461.176,-130.978 463.138,-137.698"/>
</g>
<!-- Node13&#45;&gt;Node7 -->
<g id="edge14" class="edge"><title>Node13&#45;&gt;Node7</title>
<path fill="none" stroke="midnightblue" d="M331.301,-168.368C365.119,-149.292 446.433,-103.422 487.059,-80.5054"/>
<polygon fill="midnightblue" stroke="midnightblue" points="488.78,-83.5531 495.77,-75.5914 485.34,-77.4563 488.78,-83.5531"/>
</g>
<!-- Node16&#45;&gt;Node5 -->
<g id="edge19" class="edge"><title>Node16&#45;&gt;Node5</title>
<path fill="none" stroke="midnightblue" d="M353.479,-224.324C362.201,-216.341 375.343,-204.313 385.898,-194.653"/>
<polygon fill="midnightblue" stroke="midnightblue" points="388.334,-197.167 393.348,-187.834 383.608,-192.004 388.334,-197.167"/>
</g>
<!-- Node17 -->
<g id="node17" class="node"><title>Node17</title>
<g id="a_node17"><a xlink:href="xml_8h.html" target="_top" xlink:title="Classes providing support for XML data files. ">
<polygon fill="white" stroke="black" points="549,-168.5 549,-187.5 647,-187.5 647,-168.5 549,-168.5"/>
<text text-anchor="middle" x="598" y="-175.5" font-family="FreeSans" font-size="10.00">cantera/base/xml.h</text>
</a>
</g>
</g>
<!-- Node16&#45;&gt;Node17 -->
<g id="edge20" class="edge"><title>Node16&#45;&gt;Node17</title>
<path fill="none" stroke="midnightblue" d="M384.247,-224.444C428.65,-215.004 500.153,-199.802 548.088,-189.611"/>
<polygon fill="midnightblue" stroke="midnightblue" points="548.888,-193.02 557.941,-187.516 547.432,-186.173 548.888,-193.02"/>
</g>
<!-- Node19 -->
<g id="node19" class="node"><title>Node19</title>
<g id="a_node19"><a xlink:href="FactoryBase_8h.html" target="_top" xlink:title="File contains the FactoryBase class declarations. ">
<polygon fill="white" stroke="black" points="133.5,-168.5 133.5,-187.5 270.5,-187.5 270.5,-168.5 133.5,-168.5"/>
<text text-anchor="middle" x="202" y="-175.5" font-family="FreeSans" font-size="10.00">cantera/base/FactoryBase.h</text>
</a>
</g>
</g>
<!-- Node16&#45;&gt;Node19 -->
<g id="edge25" class="edge"><title>Node16&#45;&gt;Node19</title>
<path fill="none" stroke="midnightblue" d="M321.5,-224.444C297.923,-215.478 260.678,-201.314 234.036,-191.183"/>
<polygon fill="midnightblue" stroke="midnightblue" points="234.986,-187.8 224.395,-187.516 232.498,-194.342 234.986,-187.8"/>
</g>
<!-- Node17&#45;&gt;Node6 -->
<g id="edge24" class="edge"><title>Node17&#45;&gt;Node6</title>
<path fill="none" stroke="midnightblue" d="M582.415,-168.324C567.001,-159.743 543.188,-146.486 525.29,-136.522"/>
<polygon fill="midnightblue" stroke="midnightblue" points="526.986,-133.461 516.546,-131.655 523.581,-139.577 526.986,-133.461"/>
</g>
<!-- Node18 -->
<g id="node18" class="node"><title>Node18</title>
<g id="a_node18"><a xlink:href="ctexceptions_8h.html" target="_top" xlink:title="Definitions for the classes that are thrown when Cantera experiences an error condition (also contain...">
<polygon fill="white" stroke="red" points="782.5,-112.5 782.5,-131.5 919.5,-131.5 919.5,-112.5 782.5,-112.5"/>
<text text-anchor="middle" x="851" y="-119.5" font-family="FreeSans" font-size="10.00">cantera/base/ctexceptions.h</text>
</a>
</g>
</g>
<!-- Node17&#45;&gt;Node18 -->
<g id="edge21" class="edge"><title>Node17&#45;&gt;Node18</title>
<path fill="none" stroke="midnightblue" d="M638.089,-168.444C682.316,-159.004 753.539,-143.802 801.285,-133.611"/>
<polygon fill="midnightblue" stroke="midnightblue" points="802.05,-137.027 811.099,-131.516 800.589,-130.181 802.05,-137.027"/>
</g>
<!-- Node18&#45;&gt;Node9 -->
<g id="edge22" class="edge"><title>Node18&#45;&gt;Node9</title>
<path fill="none" stroke="midnightblue" d="M840.721,-112.368C818.528,-93.7334 765.889,-49.5324 738.023,-26.1338"/>
<polygon fill="midnightblue" stroke="midnightblue" points="740.141,-23.3416 730.232,-19.5914 735.639,-28.7024 740.141,-23.3416"/>
</g>
<!-- Node18&#45;&gt;Node10 -->
<g id="edge23" class="edge"><title>Node18&#45;&gt;Node10</title>
<path fill="none" stroke="midnightblue" d="M817.566,-112.444C781.144,-103.122 722.77,-88.1828 682.971,-77.9972"/>
<polygon fill="midnightblue" stroke="midnightblue" points="683.833,-74.6051 673.277,-75.5164 682.097,-81.3866 683.833,-74.6051"/>
</g>
<!-- Node19&#45;&gt;Node8 -->
<g id="edge26" class="edge"><title>Node19&#45;&gt;Node8</title>
<path fill="none" stroke="midnightblue" d="M202.78,-168.248C204.328,-155.005 208.774,-129.561 221,-112 249.174,-71.5342 298.776,-40.7519 329.656,-24.3253"/>
<polygon fill="midnightblue" stroke="midnightblue" points="331.325,-27.4022 338.593,-19.6935 328.104,-21.1872 331.325,-27.4022"/>
</g>
<!-- Node20 -->
<g id="node20" class="node"><title>Node20</title>
<polygon fill="white" stroke="#bfbfbf" points="230.5,-112.5 230.5,-131.5 273.5,-131.5 273.5,-112.5 230.5,-112.5"/>
<text text-anchor="middle" x="252" y="-119.5" font-family="FreeSans" font-size="10.00">mutex</text>
</g>
<!-- Node19&#45;&gt;Node20 -->
<g id="edge27" class="edge"><title>Node19&#45;&gt;Node20</title>
<path fill="none" stroke="midnightblue" d="M210.256,-168.083C217.465,-160.298 228.11,-148.801 236.846,-139.367"/>
<polygon fill="midnightblue" stroke="midnightblue" points="239.671,-141.467 243.897,-131.751 234.535,-136.711 239.671,-141.467"/>
</g>
<!-- Node21&#45;&gt;Node7 -->
<g id="edge29" class="edge"><title>Node21&#45;&gt;Node7</title>
<path fill="none" stroke="midnightblue" d="M671.735,-112.444C639.045,-103.201 586.818,-88.4356 550.817,-78.2572"/>
<polygon fill="midnightblue" stroke="midnightblue" points="551.698,-74.8691 541.123,-75.5164 549.794,-81.6051 551.698,-74.8691"/>
</g>
<!-- Node21&#45;&gt;Node9 -->
<g id="edge31" class="edge"><title>Node21&#45;&gt;Node9</title>
<path fill="none" stroke="midnightblue" d="M703.412,-112.368C706.317,-94.617 713.018,-53.6664 716.957,-29.5974"/>
<polygon fill="midnightblue" stroke="midnightblue" points="720.433,-30.0254 718.594,-19.5914 713.525,-28.8949 720.433,-30.0254"/>
</g>
<!-- Node21&#45;&gt;Node10 -->
<g id="edge30" class="edge"><title>Node21&#45;&gt;Node10</title>
<path fill="none" stroke="midnightblue" d="M692.039,-112.324C682.873,-104.341 669.063,-92.3128 657.972,-82.6529"/>
<polygon fill="midnightblue" stroke="midnightblue" points="659.982,-79.7624 650.143,-75.8339 655.385,-85.041 659.982,-79.7624"/>
</g>
<!-- Node22&#45;&gt;Node7 -->
<g id="edge33" class="edge"><title>Node22&#45;&gt;Node7</title>
<path fill="none" stroke="midnightblue" d="M632.219,-224.141C645.38,-211.604 665.394,-187.986 655,-168 631.819,-123.426 578.953,-94.4279 544.135,-79.3965"/>
<polygon fill="midnightblue" stroke="midnightblue" points="545.41,-76.1361 534.833,-75.5258 542.721,-82.599 545.41,-76.1361"/>
</g>
<!-- Node22&#45;&gt;Node17 -->
<g id="edge34" class="edge"><title>Node22&#45;&gt;Node17</title>
<path fill="none" stroke="midnightblue" d="M618.037,-224.083C614.787,-216.77 610.081,-206.181 606.046,-197.103"/>
<polygon fill="midnightblue" stroke="midnightblue" points="609.149,-195.468 601.889,-187.751 602.752,-198.311 609.149,-195.468"/>
</g>
</g>
</svg>
