<?xml version="1.0" encoding="UTF-8" standalone="no"?>
<!DOCTYPE svg PUBLIC "-//W3C//DTD SVG 1.1//EN"
 "http://www.w3.org/Graphics/SVG/1.1/DTD/svg11.dtd">
<!-- Generated by graphviz version 2.38.0 (20140413.2041)
 -->
<!-- Title: Reservoir.h Pages: 1 -->
<svg width="649pt" height="308pt"
 viewBox="0.00 0.00 649.24 308.00" xmlns="http://www.w3.org/2000/svg" xmlns:xlink="http://www.w3.org/1999/xlink">
<g id="graph0" class="graph" transform="scale(1 1) rotate(0) translate(4 304)">
<title>Reservoir.h</title>
<polygon fill="white" stroke="none" points="-4,4 -4,-304 645.241,-304 645.241,4 -4,4"/>
<!-- Node1 -->
<g id="node1" class="node"><title>Node1</title>
<polygon fill="#bfbfbf" stroke="black" points="503.741,-280.5 503.741,-299.5 570.741,-299.5 570.741,-280.5 503.741,-280.5"/>
<text text-anchor="middle" x="537.241" y="-287.5" font-family="Helvetica,sans-Serif" font-size="10.00">Reservoir.h</text>
</g>
<!-- Node2 -->
<g id="node2" class="node"><title>Node2</title>
<g id="a_node2"><a xlink:href="ReactorBase_8h.html" target="_top" xlink:title="ReactorBase.h">
<polygon fill="white" stroke="black" points="496.241,-224.5 496.241,-243.5 578.241,-243.5 578.241,-224.5 496.241,-224.5"/>
<text text-anchor="middle" x="537.241" y="-231.5" font-family="Helvetica,sans-Serif" font-size="10.00">ReactorBase.h</text>
</a>
</g>
</g>
<!-- Node1&#45;&gt;Node2 -->
<g id="edge1" class="edge"><title>Node1&#45;&gt;Node2</title>
<path fill="none" stroke="midnightblue" d="M537.241,-280.083C537.241,-273.006 537.241,-262.861 537.241,-253.986"/>
<polygon fill="midnightblue" stroke="midnightblue" points="540.741,-253.751 537.241,-243.751 533.741,-253.751 540.741,-253.751"/>
</g>
<!-- Node3 -->
<g id="node3" class="node"><title>Node3</title>
<g id="a_node3"><a xlink:href="ThermoPhase_8h.html" target="_top" xlink:title="Header file for class ThermoPhase, the base class for phases with thermodynamic properties, and the text for the Module thermoprops (see Thermodynamic Properties and class ThermoPhase). ">
<polygon fill="white" stroke="black" points="460.241,-168.5 460.241,-187.5 614.241,-187.5 614.241,-168.5 460.241,-168.5"/>
<text text-anchor="middle" x="537.241" y="-175.5" font-family="Helvetica,sans-Serif" font-size="10.00">cantera/thermo/ThermoPhase.h</text>
</a>
</g>
</g>
<!-- Node2&#45;&gt;Node3 -->
<g id="edge2" class="edge"><title>Node2&#45;&gt;Node3</title>
<path fill="none" stroke="midnightblue" d="M537.241,-224.083C537.241,-217.006 537.241,-206.861 537.241,-197.986"/>
<polygon fill="midnightblue" stroke="midnightblue" points="540.741,-197.751 537.241,-187.751 533.741,-197.751 540.741,-197.751"/>
</g>
<!-- Node4 -->
<g id="node4" class="node"><title>Node4</title>
<g id="a_node4"><a xlink:href="Phase_8h.html" target="_top" xlink:title="Header file for class Phase. ">
<polygon fill="white" stroke="black" points="202.741,-112.5 202.741,-131.5 255.741,-131.5 255.741,-112.5 202.741,-112.5"/>
<text text-anchor="middle" x="229.241" y="-119.5" font-family="Helvetica,sans-Serif" font-size="10.00">Phase.h</text>
</a>
</g>
</g>
<!-- Node3&#45;&gt;Node4 -->
<g id="edge3" class="edge"><title>Node3&#45;&gt;Node4</title>
<path fill="none" stroke="midnightblue" d="M488.437,-168.444C426.608,-157.603 321.443,-139.165 265.984,-129.442"/>
<polygon fill="midnightblue" stroke="midnightblue" points="266.359,-125.954 255.905,-127.675 265.15,-132.849 266.359,-125.954"/>
</g>
<!-- Node9 -->
<g id="node9" class="node"><title>Node9</title>
<g id="a_node9"><a xlink:href="MultiSpeciesThermo_8h.html" target="_top" xlink:title="Header for a general species thermodynamic property manager for a phase (see MultiSpeciesThermo). ">
<polygon fill="white" stroke="black" points="480.241,-112.5 480.241,-131.5 594.241,-131.5 594.241,-112.5 480.241,-112.5"/>
<text text-anchor="middle" x="537.241" y="-119.5" font-family="Helvetica,sans-Serif" font-size="10.00">MultiSpeciesThermo.h</text>
</a>
</g>
</g>
<!-- Node3&#45;&gt;Node9 -->
<g id="edge8" class="edge"><title>Node3&#45;&gt;Node9</title>
<path fill="none" stroke="midnightblue" d="M537.241,-168.083C537.241,-161.006 537.241,-150.861 537.241,-141.986"/>
<polygon fill="midnightblue" stroke="midnightblue" points="540.741,-141.751 537.241,-131.751 533.741,-141.751 540.741,-141.751"/>
</g>
<!-- Node11 -->
<g id="node11" class="node"><title>Node11</title>
<g id="a_node11"><a xlink:href="global_8h.html" target="_top" xlink:title="This file contains definitions for utility functions and text for modules, inputfiles, logs, textlogs, (see Input File Handling, Diagnostic Output, and Writing messages to the screen). ">
<polygon fill="white" stroke="red" points="531.241,-0.5 531.241,-19.5 641.241,-19.5 641.241,-0.5 531.241,-0.5"/>
<text text-anchor="middle" x="586.241" y="-7.5" font-family="Helvetica,sans-Serif" font-size="10.00">cantera/base/global.h</text>
</a>
</g>
</g>
<!-- Node3&#45;&gt;Node11 -->
<g id="edge12" class="edge"><title>Node3&#45;&gt;Node11</title>
<path fill="none" stroke="midnightblue" d="M556.991,-168.469C571.945,-160.995 591.804,-148.708 603.241,-132 622.597,-103.722 626.171,-88.798 616.241,-56 613.124,-45.7048 606.788,-35.612 600.74,-27.6023"/>
<polygon fill="midnightblue" stroke="midnightblue" points="603.459,-25.3995 594.454,-19.8175 598.013,-29.7968 603.459,-25.3995"/>
</g>
<!-- Node5 -->
<g id="node5" class="node"><title>Node5</title>
<g id="a_node5"><a xlink:href="ctexceptions_8h.html" target="_top" xlink:title="Definitions for the classes that are thrown when Cantera experiences an error condition (also contain...">
<polygon fill="white" stroke="red" points="169.241,-0.5 169.241,-19.5 309.241,-19.5 309.241,-0.5 169.241,-0.5"/>
<text text-anchor="middle" x="239.241" y="-7.5" font-family="Helvetica,sans-Serif" font-size="10.00">cantera/base/ctexceptions.h</text>
</a>
</g>
</g>
<!-- Node4&#45;&gt;Node5 -->
<g id="edge4" class="edge"><title>Node4&#45;&gt;Node5</title>
<path fill="none" stroke="midnightblue" d="M202.448,-119.742C148.34,-116.583 29.0543,-106.268 4.24066,-76 -1.3948,-69.1258 -1.42293,-62.851 4.24066,-56 23.7561,-32.393 98.7687,-21.0511 158.864,-15.6773"/>
<polygon fill="midnightblue" stroke="midnightblue" points="159.464,-19.139 169.131,-14.8033 158.87,-12.1642 159.464,-19.139"/>
</g>
<!-- Node6 -->
<g id="node6" class="node"><title>Node6</title>
<g id="a_node6"><a xlink:href="Elements_8h.html" target="_top" xlink:title="Contains the getElementWeight function and the definitions of element constraint types. ">
<polygon fill="white" stroke="red" points="13.2407,-56.5 13.2407,-75.5 147.241,-75.5 147.241,-56.5 13.2407,-56.5"/>
<text text-anchor="middle" x="80.2407" y="-63.5" font-family="Helvetica,sans-Serif" font-size="10.00">cantera/thermo/Elements.h</text>
</a>
</g>
</g>
<!-- Node4&#45;&gt;Node6 -->
<g id="edge5" class="edge"><title>Node4&#45;&gt;Node6</title>
<path fill="none" stroke="midnightblue" d="M205.631,-112.444C180.783,-103.438 141.466,-89.1891 113.487,-79.049"/>
<polygon fill="midnightblue" stroke="midnightblue" points="114.334,-75.6332 103.74,-75.5164 111.949,-82.2144 114.334,-75.6332"/>
</g>
<!-- Node7 -->
<g id="node7" class="node"><title>Node7</title>
<g id="a_node7"><a xlink:href="Species_8h.html" target="_top" xlink:title="Declaration for class Cantera::Species. ">
<polygon fill="white" stroke="red" points="165.241,-56.5 165.241,-75.5 293.241,-75.5 293.241,-56.5 165.241,-56.5"/>
<text text-anchor="middle" x="229.241" y="-63.5" font-family="Helvetica,sans-Serif" font-size="10.00">cantera/thermo/Species.h</text>
</a>
</g>
</g>
<!-- Node4&#45;&gt;Node7 -->
<g id="edge6" class="edge"><title>Node4&#45;&gt;Node7</title>
<path fill="none" stroke="midnightblue" d="M229.241,-112.083C229.241,-105.006 229.241,-94.8611 229.241,-85.9865"/>
<polygon fill="midnightblue" stroke="midnightblue" points="232.741,-85.751 229.241,-75.7511 225.741,-85.7511 232.741,-85.751"/>
</g>
<!-- Node8 -->
<g id="node8" class="node"><title>Node8</title>
<g id="a_node8"><a xlink:href="ValueCache_8h.html" target="_top" xlink:title="cantera/base/ValueCache.h">
<polygon fill="white" stroke="red" points="311.741,-56.5 311.741,-75.5 448.741,-75.5 448.741,-56.5 311.741,-56.5"/>
<text text-anchor="middle" x="380.241" y="-63.5" font-family="Helvetica,sans-Serif" font-size="10.00">cantera/base/ValueCache.h</text>
</a>
</g>
</g>
<!-- Node4&#45;&gt;Node8 -->
<g id="edge7" class="edge"><title>Node4&#45;&gt;Node8</title>
<path fill="none" stroke="midnightblue" d="M253.167,-112.444C278.459,-103.399 318.543,-89.064 346.92,-78.9158"/>
<polygon fill="midnightblue" stroke="midnightblue" points="348.189,-82.1794 356.426,-75.5164 345.832,-75.5882 348.189,-82.1794"/>
</g>
<!-- Node10 -->
<g id="node10" class="node"><title>Node10</title>
<g id="a_node10"><a xlink:href="SpeciesThermoInterpType_8h.html" target="_top" xlink:title="Pure Virtual Base class for individual species reference state thermodynamic managers and text for th...">
<polygon fill="white" stroke="red" points="467.241,-56.5 467.241,-75.5 607.241,-75.5 607.241,-56.5 467.241,-56.5"/>
<text text-anchor="middle" x="537.241" y="-63.5" font-family="Helvetica,sans-Serif" font-size="10.00">SpeciesThermoInterpType.h</text>
</a>
</g>
</g>
<!-- Node9&#45;&gt;Node10 -->
<g id="edge9" class="edge"><title>Node9&#45;&gt;Node10</title>
<path fill="none" stroke="midnightblue" d="M537.241,-112.083C537.241,-105.006 537.241,-94.8611 537.241,-85.9865"/>
<polygon fill="midnightblue" stroke="midnightblue" points="540.741,-85.751 537.241,-75.7511 533.741,-85.7511 540.741,-85.751"/>
</g>
<!-- Node10&#45;&gt;Node5 -->
<g id="edge10" class="edge"><title>Node10&#45;&gt;Node5</title>
<path fill="none" stroke="midnightblue" d="M490.022,-56.4435C437.491,-46.9246 352.631,-31.5472 296.392,-21.3563"/>
<polygon fill="midnightblue" stroke="midnightblue" points="296.703,-17.8556 286.239,-19.5164 295.454,-24.7435 296.703,-17.8556"/>
</g>
<!-- Node10&#45;&gt;Node11 -->
<g id="edge11" class="edge"><title>Node10&#45;&gt;Node11</title>
<path fill="none" stroke="midnightblue" d="M545.332,-56.083C552.396,-48.2982 562.828,-36.8015 571.39,-27.3665"/>
<polygon fill="midnightblue" stroke="midnightblue" points="574.172,-29.5087 578.3,-19.7511 568.988,-24.8047 574.172,-29.5087"/>
</g>
</g>
</svg>
