<?xml version="1.0" encoding="UTF-8" standalone="no"?>
<!DOCTYPE svg PUBLIC "-//W3C//DTD SVG 1.1//EN"
 "http://www.w3.org/Graphics/SVG/1.1/DTD/svg11.dtd">
<!-- Generated by graphviz version 2.36.0 (20140111.2315)
 -->
<!-- Title: ResidJacEval.cpp Pages: 1 -->
<svg width="639pt" height="488pt"
 viewBox="0.00 0.00 639.22 488.00" xmlns="http://www.w3.org/2000/svg" xmlns:xlink="http://www.w3.org/1999/xlink">
<g id="graph0" class="graph" transform="scale(1 1) rotate(0) translate(4 484)">
<title>ResidJacEval.cpp</title>
<polygon fill="white" stroke="none" points="-4,4 -4,-484 635.216,-484 635.216,4 -4,4"/>
<!-- Node1 -->
<g id="node1" class="node"><title>Node1</title>
<polygon fill="#bfbfbf" stroke="black" points="125,-460.5 125,-479.5 217,-479.5 217,-460.5 125,-460.5"/>
<text text-anchor="middle" x="171" y="-467.5" font-family="FreeSans" font-size="10.00">ResidJacEval.cpp</text>
</g>
<!-- Node2 -->
<g id="node2" class="node"><title>Node2</title>
<g id="a_node2"><a xlink:href="ct__defs_8h.html" target="_top" xlink:title="This file contains definitions of terms that are used in internal routines and are unlikely to need m...">
<polygon fill="white" stroke="black" points="185,-56.5 185,-75.5 299,-75.5 299,-56.5 185,-56.5"/>
<text text-anchor="middle" x="242" y="-63.5" font-family="FreeSans" font-size="10.00">cantera/base/ct_defs.h</text>
</a>
</g>
</g>
<!-- Node1&#45;&gt;Node2 -->
<g id="edge1" class="edge"><title>Node1&#45;&gt;Node2</title>
<path fill="none" stroke="midnightblue" d="M160.211,-460.497C138.374,-442.245 91,-396.897 91,-347 91,-347 91,-347 91,-177 91,-123.629 153.39,-93.4208 197.963,-78.6498"/>
<polygon fill="midnightblue" stroke="midnightblue" points="199.256,-81.9118 207.736,-75.5599 197.146,-75.2374 199.256,-81.9118"/>
</g>
<!-- Node11 -->
<g id="node11" class="node"><title>Node11</title>
<g id="a_node11"><a xlink:href="ResidJacEval_8h.html" target="_top" xlink:title="Dense, Square (not sparse) matrices. ">
<polygon fill="white" stroke="black" points="184,-393 184,-423 318,-423 318,-393 184,-393"/>
<text text-anchor="start" x="192" y="-411" font-family="FreeSans" font-size="10.00">cantera/numerics/ResidJac</text>
<text text-anchor="middle" x="251" y="-400" font-family="FreeSans" font-size="10.00">Eval.h</text>
</a>
</g>
</g>
<!-- Node1&#45;&gt;Node11 -->
<g id="edge10" class="edge"><title>Node1&#45;&gt;Node11</title>
<path fill="none" stroke="midnightblue" d="M182.462,-460.403C193.297,-452.277 209.961,-439.779 224.144,-429.142"/>
<polygon fill="midnightblue" stroke="midnightblue" points="226.246,-431.941 232.146,-423.141 222.046,-426.341 226.246,-431.941"/>
</g>
<!-- Node3 -->
<g id="node3" class="node"><title>Node3</title>
<g id="a_node3"><a xlink:href="config_8h_source.html" target="_top" xlink:title="config.h">
<polygon fill="white" stroke="black" points="0,-0.5 0,-19.5 50,-19.5 50,-0.5 0,-0.5"/>
<text text-anchor="middle" x="25" y="-7.5" font-family="FreeSans" font-size="10.00">config.h</text>
</a>
</g>
</g>
<!-- Node2&#45;&gt;Node3 -->
<g id="edge2" class="edge"><title>Node2&#45;&gt;Node3</title>
<path fill="none" stroke="midnightblue" d="M206.53,-56.4741C171.646,-48.0459 116.63,-34.6376 60.0667,-20.2413"/>
<polygon fill="midnightblue" stroke="midnightblue" points="60.793,-16.8146 50.2381,-17.7337 59.0624,-23.5973 60.793,-16.8146"/>
</g>
<!-- Node4 -->
<g id="node4" class="node"><title>Node4</title>
<polygon fill="white" stroke="#bfbfbf" points="68,-0.5 68,-19.5 112,-19.5 112,-0.5 68,-0.5"/>
<text text-anchor="middle" x="90" y="-7.5" font-family="FreeSans" font-size="10.00">cmath</text>
</g>
<!-- Node2&#45;&gt;Node4 -->
<g id="edge3" class="edge"><title>Node2&#45;&gt;Node4</title>
<path fill="none" stroke="midnightblue" d="M217.915,-56.4435C192.006,-47.239 150.677,-32.5565 122.04,-22.3826"/>
<polygon fill="midnightblue" stroke="midnightblue" points="123.08,-19.038 112.486,-18.9883 120.737,-25.6341 123.08,-19.038"/>
</g>
<!-- Node5 -->
<g id="node5" class="node"><title>Node5</title>
<polygon fill="white" stroke="#bfbfbf" points="130,-0.5 130,-19.5 174,-19.5 174,-0.5 130,-0.5"/>
<text text-anchor="middle" x="152" y="-7.5" font-family="FreeSans" font-size="10.00">cstdlib</text>
</g>
<!-- Node2&#45;&gt;Node5 -->
<g id="edge4" class="edge"><title>Node2&#45;&gt;Node5</title>
<path fill="none" stroke="midnightblue" d="M227.54,-56.324C213.5,-47.9002 191.952,-34.9709 175.457,-25.0741"/>
<polygon fill="midnightblue" stroke="midnightblue" points="176.8,-21.7983 166.424,-19.6545 173.198,-27.8007 176.8,-21.7983"/>
</g>
<!-- Node6 -->
<g id="node6" class="node"><title>Node6</title>
<polygon fill="white" stroke="#bfbfbf" points="192.5,-0.5 192.5,-19.5 235.5,-19.5 235.5,-0.5 192.5,-0.5"/>
<text text-anchor="middle" x="214" y="-7.5" font-family="FreeSans" font-size="10.00">vector</text>
</g>
<!-- Node2&#45;&gt;Node6 -->
<g id="edge5" class="edge"><title>Node2&#45;&gt;Node6</title>
<path fill="none" stroke="midnightblue" d="M237.376,-56.083C233.544,-48.6913 227.976,-37.9533 223.235,-28.8111"/>
<polygon fill="midnightblue" stroke="midnightblue" points="226.248,-27.0175 218.538,-19.7511 220.034,-30.2398 226.248,-27.0175"/>
</g>
<!-- Node7 -->
<g id="node7" class="node"><title>Node7</title>
<polygon fill="white" stroke="#bfbfbf" points="253.5,-0.5 253.5,-19.5 288.5,-19.5 288.5,-0.5 253.5,-0.5"/>
<text text-anchor="middle" x="271" y="-7.5" font-family="FreeSans" font-size="10.00">map</text>
</g>
<!-- Node2&#45;&gt;Node7 -->
<g id="edge6" class="edge"><title>Node2&#45;&gt;Node7</title>
<path fill="none" stroke="midnightblue" d="M246.789,-56.083C250.758,-48.6913 256.525,-37.9533 261.435,-28.8111"/>
<polygon fill="midnightblue" stroke="midnightblue" points="264.653,-30.217 266.3,-19.7511 258.486,-26.9051 264.653,-30.217"/>
</g>
<!-- Node8 -->
<g id="node8" class="node"><title>Node8</title>
<polygon fill="white" stroke="#bfbfbf" points="307,-0.5 307,-19.5 347,-19.5 347,-0.5 307,-0.5"/>
<text text-anchor="middle" x="327" y="-7.5" font-family="FreeSans" font-size="10.00">string</text>
</g>
<!-- Node2&#45;&gt;Node8 -->
<g id="edge7" class="edge"><title>Node2&#45;&gt;Node8</title>
<path fill="none" stroke="midnightblue" d="M255.657,-56.324C268.916,-47.9002 289.268,-34.9709 304.846,-25.0741"/>
<polygon fill="midnightblue" stroke="midnightblue" points="306.813,-27.9711 313.377,-19.6545 303.06,-22.0626 306.813,-27.9711"/>
</g>
<!-- Node9 -->
<g id="node9" class="node"><title>Node9</title>
<polygon fill="white" stroke="#bfbfbf" points="365,-0.5 365,-19.5 421,-19.5 421,-0.5 365,-0.5"/>
<text text-anchor="middle" x="393" y="-7.5" font-family="FreeSans" font-size="10.00">algorithm</text>
</g>
<!-- Node2&#45;&gt;Node9 -->
<g id="edge8" class="edge"><title>Node2&#45;&gt;Node9</title>
<path fill="none" stroke="midnightblue" d="M265.926,-56.4435C291.219,-47.3986 331.302,-33.064 359.68,-22.9158"/>
<polygon fill="midnightblue" stroke="midnightblue" points="360.948,-26.1794 369.186,-19.5164 358.591,-19.5882 360.948,-26.1794"/>
</g>
<!-- Node10 -->
<g id="node10" class="node"><title>Node10</title>
<polygon fill="white" stroke="#bfbfbf" points="439.5,-0.5 439.5,-19.5 490.5,-19.5 490.5,-0.5 439.5,-0.5"/>
<text text-anchor="middle" x="465" y="-7.5" font-family="FreeSans" font-size="10.00">memory</text>
</g>
<!-- Node2&#45;&gt;Node10 -->
<g id="edge9" class="edge"><title>Node2&#45;&gt;Node10</title>
<path fill="none" stroke="midnightblue" d="M277.872,-56.467C315.533,-47.4851 376.463,-32.8882 429,-20 429.211,-19.9482 429.423,-19.8962 429.636,-19.844"/>
<polygon fill="midnightblue" stroke="midnightblue" points="430.573,-23.2177 439.441,-17.4194 428.893,-16.4223 430.573,-23.2177"/>
</g>
<!-- Node12 -->
<g id="node12" class="node"><title>Node12</title>
<g id="a_node12"><a xlink:href="ResidEval_8h.html" target="_top" xlink:title="ResidEval.h">
<polygon fill="white" stroke="black" points="458,-280.5 458,-299.5 524,-299.5 524,-280.5 458,-280.5"/>
<text text-anchor="middle" x="491" y="-287.5" font-family="FreeSans" font-size="10.00">ResidEval.h</text>
</a>
</g>
</g>
<!-- Node11&#45;&gt;Node12 -->
<g id="edge11" class="edge"><title>Node11&#45;&gt;Node12</title>
<path fill="none" stroke="midnightblue" d="M280.429,-392.776C327.424,-370.062 418.727,-325.932 464.085,-304.009"/>
<polygon fill="midnightblue" stroke="midnightblue" points="465.811,-307.062 473.291,-299.559 462.765,-300.76 465.811,-307.062"/>
</g>
<!-- Node21 -->
<g id="node21" class="node"><title>Node21</title>
<g id="a_node21"><a xlink:href="DenseMatrix_8h.html" target="_top" xlink:title="Headers for the DenseMatrix object, which deals with dense rectangular matrices and description of th...">
<polygon fill="white" stroke="black" points="212.5,-336.5 212.5,-355.5 289.5,-355.5 289.5,-336.5 212.5,-336.5"/>
<text text-anchor="middle" x="251" y="-343.5" font-family="FreeSans" font-size="10.00">DenseMatrix.h</text>
</a>
</g>
</g>
<!-- Node11&#45;&gt;Node21 -->
<g id="edge25" class="edge"><title>Node11&#45;&gt;Node21</title>
<path fill="none" stroke="midnightblue" d="M251,-392.781C251,-384.781 251,-374.689 251,-366.017"/>
<polygon fill="midnightblue" stroke="midnightblue" points="254.5,-365.73 251,-355.731 247.5,-365.731 254.5,-365.73"/>
</g>
<!-- Node12&#45;&gt;Node2 -->
<g id="edge12" class="edge"><title>Node12&#45;&gt;Node2</title>
<path fill="none" stroke="midnightblue" d="M524.229,-286.805C570.535,-282.146 646.807,-267.781 628,-224 576.48,-104.068 405.845,-75.2036 309.588,-68.6131"/>
<polygon fill="midnightblue" stroke="midnightblue" points="309.57,-65.1052 299.372,-67.978 309.135,-72.0918 309.57,-65.1052"/>
</g>
<!-- Node13 -->
<g id="node13" class="node"><title>Node13</title>
<g id="a_node13"><a xlink:href="ctexceptions_8h.html" target="_top" xlink:title="Definitions for the classes that are thrown when Cantera experiences an error condition (also contain...">
<polygon fill="white" stroke="black" points="422.5,-224.5 422.5,-243.5 559.5,-243.5 559.5,-224.5 422.5,-224.5"/>
<text text-anchor="middle" x="491" y="-231.5" font-family="FreeSans" font-size="10.00">cantera/base/ctexceptions.h</text>
</a>
</g>
</g>
<!-- Node12&#45;&gt;Node13 -->
<g id="edge13" class="edge"><title>Node12&#45;&gt;Node13</title>
<path fill="none" stroke="midnightblue" d="M491,-280.083C491,-273.006 491,-262.861 491,-253.986"/>
<polygon fill="midnightblue" stroke="midnightblue" points="494.5,-253.751 491,-243.751 487.5,-253.751 494.5,-253.751"/>
</g>
<!-- Node16 -->
<g id="node16" class="node"><title>Node16</title>
<g id="a_node16"><a xlink:href="utilities_8h.html" target="_top" xlink:title="Various templated functions that carry out common vector operations (see Templated Utility Functions)...">
<polygon fill="white" stroke="black" points="291.5,-224.5 291.5,-243.5 404.5,-243.5 404.5,-224.5 291.5,-224.5"/>
<text text-anchor="middle" x="348" y="-231.5" font-family="FreeSans" font-size="10.00">cantera/base/utilities.h</text>
</a>
</g>
</g>
<!-- Node12&#45;&gt;Node16 -->
<g id="edge17" class="edge"><title>Node12&#45;&gt;Node16</title>
<path fill="none" stroke="midnightblue" d="M468.341,-280.444C444.598,-271.478 407.091,-257.314 380.262,-247.183"/>
<polygon fill="midnightblue" stroke="midnightblue" points="381.144,-243.775 370.553,-243.516 378.671,-250.324 381.144,-243.775"/>
</g>
<!-- Node20 -->
<g id="node20" class="node"><title>Node20</title>
<polygon fill="white" stroke="#bfbfbf" points="578,-224.5 578,-243.5 620,-243.5 620,-224.5 578,-224.5"/>
<text text-anchor="middle" x="599" y="-231.5" font-family="FreeSans" font-size="10.00">cstdio</text>
</g>
<!-- Node12&#45;&gt;Node20 -->
<g id="edge24" class="edge"><title>Node12&#45;&gt;Node20</title>
<path fill="none" stroke="midnightblue" d="M508.352,-280.324C525.672,-271.664 552.515,-258.242 572.502,-248.249"/>
<polygon fill="midnightblue" stroke="midnightblue" points="574.312,-251.257 581.691,-243.655 571.181,-244.996 574.312,-251.257"/>
</g>
<!-- Node14 -->
<g id="node14" class="node"><title>Node14</title>
<g id="a_node14"><a xlink:href="fmt_8h.html" target="_top" xlink:title="Wrapper for either system&#45;installed or local headers for fmt. ">
<polygon fill="white" stroke="red" points="289.5,-112.5 289.5,-131.5 386.5,-131.5 386.5,-112.5 289.5,-112.5"/>
<text text-anchor="middle" x="338" y="-119.5" font-family="FreeSans" font-size="10.00">cantera/base/fmt.h</text>
</a>
</g>
</g>
<!-- Node13&#45;&gt;Node14 -->
<g id="edge14" class="edge"><title>Node13&#45;&gt;Node14</title>
<path fill="none" stroke="midnightblue" d="M488.308,-224.165C483.67,-210.343 472.906,-183.581 455,-168 436.563,-151.957 411.787,-141.329 389.781,-134.453"/>
<polygon fill="midnightblue" stroke="midnightblue" points="390.479,-131.011 379.898,-131.552 388.507,-137.727 390.479,-131.011"/>
</g>
<!-- Node15 -->
<g id="node15" class="node"><title>Node15</title>
<polygon fill="white" stroke="#bfbfbf" points="503,-168.5 503,-187.5 561,-187.5 561,-168.5 503,-168.5"/>
<text text-anchor="middle" x="532" y="-175.5" font-family="FreeSans" font-size="10.00">exception</text>
</g>
<!-- Node13&#45;&gt;Node15 -->
<g id="edge16" class="edge"><title>Node13&#45;&gt;Node15</title>
<path fill="none" stroke="midnightblue" d="M497.77,-224.083C503.562,-216.455 512.058,-205.264 519.138,-195.941"/>
<polygon fill="midnightblue" stroke="midnightblue" points="522.096,-197.832 525.356,-187.751 516.521,-193.599 522.096,-197.832"/>
</g>
<!-- Node14&#45;&gt;Node2 -->
<g id="edge15" class="edge"><title>Node14&#45;&gt;Node2</title>
<path fill="none" stroke="midnightblue" d="M322.576,-112.324C307.46,-103.822 284.185,-90.7288 266.529,-80.7975"/>
<polygon fill="midnightblue" stroke="midnightblue" points="267.817,-77.5066 257.386,-75.6545 264.386,-83.6077 267.817,-77.5066"/>
</g>
<!-- Node16&#45;&gt;Node2 -->
<g id="edge18" class="edge"><title>Node16&#45;&gt;Node2</title>
<path fill="none" stroke="midnightblue" d="M298.226,-224.45C277.172,-218.104 254.634,-207.089 242,-188 221.397,-156.871 229.397,-110.655 236.218,-85.2966"/>
<polygon fill="midnightblue" stroke="midnightblue" points="239.628,-86.106 239.072,-75.5257 232.909,-84.1432 239.628,-86.106"/>
</g>
<!-- Node17 -->
<g id="node17" class="node"><title>Node17</title>
<g id="a_node17"><a xlink:href="global_8h.html" target="_top" xlink:title="This file contains definitions for utility functions and text for modules, inputfiles, logs, textlogs, (see Input File Handling, Diagnostic Output, and Writing messages to the screen). ">
<polygon fill="white" stroke="black" points="251,-168.5 251,-187.5 301,-187.5 301,-168.5 251,-168.5"/>
<text text-anchor="middle" x="276" y="-175.5" font-family="FreeSans" font-size="10.00">global.h</text>
</a>
</g>
</g>
<!-- Node16&#45;&gt;Node17 -->
<g id="edge19" class="edge"><title>Node16&#45;&gt;Node17</title>
<path fill="none" stroke="midnightblue" d="M336.432,-224.324C325.58,-216.185 309.119,-203.839 296.117,-194.087"/>
<polygon fill="midnightblue" stroke="midnightblue" points="297.879,-191.034 287.779,-187.834 293.679,-196.634 297.879,-191.034"/>
</g>
<!-- Node18 -->
<g id="node18" class="node"><title>Node18</title>
<polygon fill="white" stroke="#bfbfbf" points="319,-168.5 319,-187.5 377,-187.5 377,-168.5 319,-168.5"/>
<text text-anchor="middle" x="348" y="-175.5" font-family="FreeSans" font-size="10.00">stdexcept</text>
</g>
<!-- Node16&#45;&gt;Node18 -->
<g id="edge22" class="edge"><title>Node16&#45;&gt;Node18</title>
<path fill="none" stroke="midnightblue" d="M348,-224.083C348,-217.006 348,-206.861 348,-197.986"/>
<polygon fill="midnightblue" stroke="midnightblue" points="351.5,-197.751 348,-187.751 344.5,-197.751 351.5,-197.751"/>
</g>
<!-- Node19 -->
<g id="node19" class="node"><title>Node19</title>
<polygon fill="white" stroke="#bfbfbf" points="395.5,-168.5 395.5,-187.5 446.5,-187.5 446.5,-168.5 395.5,-168.5"/>
<text text-anchor="middle" x="421" y="-175.5" font-family="FreeSans" font-size="10.00">numeric</text>
</g>
<!-- Node16&#45;&gt;Node19 -->
<g id="edge23" class="edge"><title>Node16&#45;&gt;Node19</title>
<path fill="none" stroke="midnightblue" d="M359.729,-224.324C370.837,-216.107 387.742,-203.602 400.983,-193.807"/>
<polygon fill="midnightblue" stroke="midnightblue" points="403.1,-196.595 409.058,-187.834 398.937,-190.967 403.1,-196.595"/>
</g>
<!-- Node17&#45;&gt;Node2 -->
<g id="edge20" class="edge"><title>Node17&#45;&gt;Node2</title>
<path fill="none" stroke="midnightblue" d="M273.332,-168.368C267.82,-150.537 255.073,-109.295 247.648,-85.2717"/>
<polygon fill="midnightblue" stroke="midnightblue" points="250.953,-84.1119 244.656,-75.5914 244.265,-86.179 250.953,-84.1119"/>
</g>
<!-- Node17&#45;&gt;Node14 -->
<g id="edge21" class="edge"><title>Node17&#45;&gt;Node14</title>
<path fill="none" stroke="midnightblue" d="M285.961,-168.324C295.127,-160.341 308.937,-148.313 320.028,-138.653"/>
<polygon fill="midnightblue" stroke="midnightblue" points="322.615,-141.041 327.857,-131.834 318.018,-135.762 322.615,-141.041"/>
</g>
<!-- Node21&#45;&gt;Node2 -->
<g id="edge26" class="edge"><title>Node21&#45;&gt;Node2</title>
<path fill="none" stroke="midnightblue" d="M228.053,-336.485C192.712,-321.711 129,-287.76 129,-235 129,-235 129,-235 129,-177 129,-130.402 178.947,-97.1433 212.428,-80.0835"/>
<polygon fill="midnightblue" stroke="midnightblue" points="214.348,-83.0411 221.798,-75.5078 211.276,-76.7511 214.348,-83.0411"/>
</g>
<!-- Node21&#45;&gt;Node13 -->
<g id="edge27" class="edge"><title>Node21&#45;&gt;Node13</title>
<path fill="none" stroke="midnightblue" d="M269.832,-336.368C311.893,-317.091 413.647,-270.454 463.096,-247.789"/>
<polygon fill="midnightblue" stroke="midnightblue" points="464.623,-250.94 472.255,-243.591 461.706,-244.576 464.623,-250.94"/>
</g>
<!-- Node22 -->
<g id="node22" class="node"><title>Node22</title>
<g id="a_node22"><a xlink:href="Array_8h.html" target="_top" xlink:title="Header file for class Cantera::Array2D. ">
<polygon fill="white" stroke="black" points="198.5,-280.5 198.5,-299.5 303.5,-299.5 303.5,-280.5 198.5,-280.5"/>
<text text-anchor="middle" x="251" y="-287.5" font-family="FreeSans" font-size="10.00">cantera/base/Array.h</text>
</a>
</g>
</g>
<!-- Node21&#45;&gt;Node22 -->
<g id="edge28" class="edge"><title>Node21&#45;&gt;Node22</title>
<path fill="none" stroke="midnightblue" d="M251,-336.083C251,-329.006 251,-318.861 251,-309.986"/>
<polygon fill="midnightblue" stroke="midnightblue" points="254.5,-309.751 251,-299.751 247.5,-309.751 254.5,-309.751"/>
</g>
<!-- Node22&#45;&gt;Node16 -->
<g id="edge29" class="edge"><title>Node22&#45;&gt;Node16</title>
<path fill="none" stroke="midnightblue" d="M266.585,-280.324C281.999,-271.743 305.812,-258.486 323.71,-248.522"/>
<polygon fill="midnightblue" stroke="midnightblue" points="325.419,-251.577 332.454,-243.655 322.014,-245.461 325.419,-251.577"/>
</g>
<!-- Node23 -->
<g id="node23" class="node"><title>Node23</title>
<polygon fill="white" stroke="#bfbfbf" points="157.5,-224.5 157.5,-243.5 210.5,-243.5 210.5,-224.5 157.5,-224.5"/>
<text text-anchor="middle" x="184" y="-231.5" font-family="FreeSans" font-size="10.00">iostream</text>
</g>
<!-- Node22&#45;&gt;Node23 -->
<g id="edge30" class="edge"><title>Node22&#45;&gt;Node23</title>
<path fill="none" stroke="midnightblue" d="M240.235,-280.324C230.234,-272.263 215.113,-260.077 203.07,-250.369"/>
<polygon fill="midnightblue" stroke="midnightblue" points="204.943,-247.384 194.961,-243.834 200.55,-252.834 204.943,-247.384"/>
</g>
<!-- Node24 -->
<g id="node24" class="node"><title>Node24</title>
<polygon fill="white" stroke="#bfbfbf" points="228.5,-224.5 228.5,-243.5 273.5,-243.5 273.5,-224.5 228.5,-224.5"/>
<text text-anchor="middle" x="251" y="-231.5" font-family="FreeSans" font-size="10.00">cstring</text>
</g>
<!-- Node22&#45;&gt;Node24 -->
<g id="edge31" class="edge"><title>Node22&#45;&gt;Node24</title>
<path fill="none" stroke="midnightblue" d="M251,-280.083C251,-273.006 251,-262.861 251,-253.986"/>
<polygon fill="midnightblue" stroke="midnightblue" points="254.5,-253.751 251,-243.751 247.5,-253.751 254.5,-253.751"/>
</g>
</g>
</svg>
