<?xml version="1.0" encoding="UTF-8" standalone="no"?>
<!DOCTYPE svg PUBLIC "-//W3C//DTD SVG 1.1//EN"
 "http://www.w3.org/Graphics/SVG/1.1/DTD/svg11.dtd">
<!-- Generated by graphviz version 2.28.0 (20120425.2022)
 -->
<!-- Title: ResidEval.h Pages: 1 -->
<svg width="963pt" height="252pt"
 viewBox="0.00 0.00 963.00 252.00" xmlns="http://www.w3.org/2000/svg" xmlns:xlink="http://www.w3.org/1999/xlink">
<g id="graph1" class="graph" transform="scale(1 1) rotate(0) translate(4 248)">
<title>ResidEval.h</title>
<polygon fill="white" stroke="white" points="-4,5 -4,-248 960,-248 960,5 -4,5"/>
<!-- Node1 -->
<g id="node1" class="node"><title>Node1</title>
<polygon fill="#bfbfbf" stroke="black" points="550.5,-224.5 550.5,-243.5 619.5,-243.5 619.5,-224.5 550.5,-224.5"/>
<text text-anchor="middle" x="585" y="-231.5" font-family="FreeSans" font-size="10.00">ResidEval.h</text>
</g>
<!-- Node2 -->
<g id="node3" class="node"><title>Node2</title>
<a xlink:href="ResidJacEval_8h.html" target="_top" xlink:title="Dense, Square (not sparse) matrices. ">
<polygon fill="white" stroke="black" points="189,-168.5 189,-187.5 275,-187.5 275,-168.5 189,-168.5"/>
<text text-anchor="middle" x="232" y="-175.5" font-family="FreeSans" font-size="10.00">ResidJacEval.h</text>
</a>
</g>
<!-- Node1&#45;&gt;Node2 -->
<g id="edge2" class="edge"><title>Node1&#45;&gt;Node2</title>
<path fill="none" stroke="midnightblue" d="M540.168,-226.142C471.875,-215.695 342.629,-195.923 275.276,-185.62"/>
<polygon fill="midnightblue" stroke="midnightblue" points="539.773,-229.622 550.187,-227.674 540.831,-222.702 539.773,-229.622"/>
</g>
<!-- Node14 -->
<g id="node30" class="node"><title>Node14</title>
<a xlink:href="RootFind_8h.html" target="_top" xlink:title="Header file for implicit nonlinear solver of a one dimensional function (see Numerical Utilities with...">
<polygon fill="white" stroke="black" points="465.5,-168.5 465.5,-187.5 530.5,-187.5 530.5,-168.5 465.5,-168.5"/>
<text text-anchor="middle" x="498" y="-175.5" font-family="FreeSans" font-size="10.00">RootFind.h</text>
</a>
</g>
<!-- Node1&#45;&gt;Node14 -->
<g id="edge32" class="edge"><title>Node1&#45;&gt;Node14</title>
<path fill="none" stroke="midnightblue" d="M562.284,-218.901C546.331,-208.999 525.503,-196.071 511.943,-187.655"/>
<polygon fill="midnightblue" stroke="midnightblue" points="560.68,-222.024 571.022,-224.324 564.371,-216.077 560.68,-222.024"/>
</g>
<!-- Node17 -->
<g id="node36" class="node"><title>Node17</title>
<a xlink:href="solveProb_8h.html" target="_top" xlink:title="Header file for implicit nonlinear solver with the option of a pseudotransient (see Numerical Utiliti...">
<polygon fill="white" stroke="black" points="550,-168.5 550,-187.5 620,-187.5 620,-168.5 550,-168.5"/>
<text text-anchor="middle" x="585" y="-175.5" font-family="FreeSans" font-size="10.00">solveProb.h</text>
</a>
</g>
<!-- Node1&#45;&gt;Node17 -->
<g id="edge38" class="edge"><title>Node1&#45;&gt;Node17</title>
<path fill="none" stroke="midnightblue" d="M585,-213.805C585,-204.91 585,-194.78 585,-187.751"/>
<polygon fill="midnightblue" stroke="midnightblue" points="581.5,-214.083 585,-224.083 588.5,-214.083 581.5,-214.083"/>
</g>
<!-- Node19 -->
<g id="node40" class="node"><title>Node19</title>
<a xlink:href="solvers_8h.html" target="_top" xlink:title="solvers of small embedded problems ">
<polygon fill="white" stroke="black" points="624.5,-112.5 624.5,-131.5 681.5,-131.5 681.5,-112.5 624.5,-112.5"/>
<text text-anchor="middle" x="653" y="-119.5" font-family="FreeSans" font-size="10.00">solvers.h</text>
</a>
</g>
<!-- Node1&#45;&gt;Node19 -->
<g id="edge44" class="edge"><title>Node1&#45;&gt;Node19</title>
<path fill="none" stroke="midnightblue" d="M603.249,-217.662C611.98,-209.563 622.024,-199.03 629,-188 640.702,-169.497 647.896,-144.45 651.077,-131.515"/>
<polygon fill="midnightblue" stroke="midnightblue" points="600.867,-215.096 595.726,-224.36 605.522,-220.324 600.867,-215.096"/>
</g>
<!-- Node20 -->
<g id="node43" class="node"><title>Node20</title>
<a xlink:href="MixtureFugacityTP_8h.html" target="_top" xlink:title="Header file for a derived class of ThermoPhase that handles non&#45;ideal mixtures based on the fugacity ...">
<polygon fill="white" stroke="black" points="705,-168.5 705,-187.5 813,-187.5 813,-168.5 705,-168.5"/>
<text text-anchor="middle" x="759" y="-175.5" font-family="FreeSans" font-size="10.00">MixtureFugacityTP.h</text>
</a>
</g>
<!-- Node1&#45;&gt;Node20 -->
<g id="edge46" class="edge"><title>Node1&#45;&gt;Node20</title>
<path fill="none" stroke="midnightblue" d="M622.261,-221.436C655.067,-211.255 702.083,-196.664 731.558,-187.516"/>
<polygon fill="midnightblue" stroke="midnightblue" points="621.084,-218.137 612.571,-224.444 623.159,-224.822 621.084,-218.137"/>
</g>
<!-- Node3 -->
<g id="node5" class="node"><title>Node3</title>
<a xlink:href="ResidJacEval_8cpp.html" target="_top" xlink:title="ResidJacEval.cpp">
<polygon fill="white" stroke="black" points="184,-112.5 184,-131.5 280,-131.5 280,-112.5 184,-112.5"/>
<text text-anchor="middle" x="232" y="-119.5" font-family="FreeSans" font-size="10.00">ResidJacEval.cpp</text>
</a>
</g>
<!-- Node2&#45;&gt;Node3 -->
<g id="edge4" class="edge"><title>Node2&#45;&gt;Node3</title>
<path fill="none" stroke="midnightblue" d="M232,-157.805C232,-148.91 232,-138.78 232,-131.751"/>
<polygon fill="midnightblue" stroke="midnightblue" points="228.5,-158.083 232,-168.083 235.5,-158.083 228.5,-158.083"/>
</g>
<!-- Node4 -->
<g id="node7" class="node"><title>Node4</title>
<a xlink:href="DAE__Solver_8h.html" target="_top" xlink:title="Header file for class DAE_Solver. ">
<polygon fill="white" stroke="black" points="298,-112.5 298,-131.5 376,-131.5 376,-112.5 298,-112.5"/>
<text text-anchor="middle" x="337" y="-119.5" font-family="FreeSans" font-size="10.00">DAE_Solver.h</text>
</a>
</g>
<!-- Node2&#45;&gt;Node4 -->
<g id="edge6" class="edge"><title>Node2&#45;&gt;Node4</title>
<path fill="none" stroke="midnightblue" d="M257.81,-163.726C277.253,-153.727 303.348,-140.307 320.172,-131.655"/>
<polygon fill="midnightblue" stroke="midnightblue" points="256.162,-160.638 248.87,-168.324 259.364,-166.863 256.162,-160.638"/>
</g>
<!-- Node9 -->
<g id="node19" class="node"><title>Node9</title>
<a xlink:href="BEulerInt_8h.html" target="_top" xlink:title="BEulerInt.h">
<polygon fill="white" stroke="black" points="5,-56.5 5,-75.5 67,-75.5 67,-56.5 5,-56.5"/>
<text text-anchor="middle" x="36" y="-63.5" font-family="FreeSans" font-size="10.00">BEulerInt.h</text>
</a>
</g>
<!-- Node2&#45;&gt;Node9 -->
<g id="edge20" class="edge"><title>Node2&#45;&gt;Node9</title>
<path fill="none" stroke="midnightblue" d="M178.814,-175.381C141.679,-171.563 93.1873,-160.832 61,-132 44.2492,-116.995 38.6421,-89.4812 36.8281,-75.5564"/>
<polygon fill="midnightblue" stroke="midnightblue" points="178.692,-178.884 188.963,-176.284 179.313,-171.911 178.692,-178.884"/>
</g>
<!-- Node11 -->
<g id="node23" class="node"><title>Node11</title>
<a xlink:href="NonlinearSolver_8h.html" target="_top" xlink:title="Class that calculates the solution to a nonlinear, dense, set of equations (see Numerical Utilities w...">
<polygon fill="white" stroke="black" points="70,-112.5 70,-131.5 166,-131.5 166,-112.5 70,-112.5"/>
<text text-anchor="middle" x="118" y="-119.5" font-family="FreeSans" font-size="10.00">NonlinearSolver.h</text>
</a>
</g>
<!-- Node2&#45;&gt;Node11 -->
<g id="edge24" class="edge"><title>Node2&#45;&gt;Node11</title>
<path fill="none" stroke="midnightblue" d="M204.758,-164.096C183.46,-154.007 154.458,-140.27 135.979,-131.516"/>
<polygon fill="midnightblue" stroke="midnightblue" points="203.401,-167.326 213.936,-168.444 206.397,-161 203.401,-167.326"/>
</g>
<!-- Node5 -->
<g id="node9" class="node"><title>Node5</title>
<a xlink:href="DAE__solvers_8cpp.html" target="_top" xlink:title="Factory routine for picking the DAE solver package. ">
<polygon fill="white" stroke="black" points="216,-0.5 216,-19.5 308,-19.5 308,-0.5 216,-0.5"/>
<text text-anchor="middle" x="262" y="-7.5" font-family="FreeSans" font-size="10.00">DAE_solvers.cpp</text>
</a>
</g>
<!-- Node4&#45;&gt;Node5 -->
<g id="edge8" class="edge"><title>Node4&#45;&gt;Node5</title>
<path fill="none" stroke="midnightblue" d="M325.38,-103.957C309.126,-80.1184 280.211,-37.7088 267.858,-19.5914"/>
<polygon fill="midnightblue" stroke="midnightblue" points="322.59,-106.078 331.115,-112.368 328.373,-102.135 322.59,-106.078"/>
</g>
<!-- Node6 -->
<g id="node11" class="node"><title>Node6</title>
<a xlink:href="integrators_8h.html" target="_top" xlink:title="ODE integrators. ">
<polygon fill="white" stroke="black" points="429.5,-0.5 429.5,-19.5 500.5,-19.5 500.5,-0.5 429.5,-0.5"/>
<text text-anchor="middle" x="465" y="-7.5" font-family="FreeSans" font-size="10.00">integrators.h</text>
</a>
</g>
<!-- Node4&#45;&gt;Node6 -->
<g id="edge10" class="edge"><title>Node4&#45;&gt;Node6</title>
<path fill="none" stroke="midnightblue" d="M365.804,-107.831C381.342,-99.9127 400.292,-88.8787 415,-76 434.494,-58.9301 451.542,-33.2783 459.768,-19.8748"/>
<polygon fill="midnightblue" stroke="midnightblue" points="364.061,-104.788 356.638,-112.348 367.155,-111.067 364.061,-104.788"/>
</g>
<!-- Node7 -->
<g id="node13" class="node"><title>Node7</title>
<a xlink:href="IDA__Solver_8h.html" target="_top" xlink:title="Header file for class IDA_Solver. ">
<polygon fill="white" stroke="black" points="332,-56.5 332,-75.5 406,-75.5 406,-56.5 332,-56.5"/>
<text text-anchor="middle" x="369" y="-63.5" font-family="FreeSans" font-size="10.00">IDA_Solver.h</text>
</a>
</g>
<!-- Node4&#45;&gt;Node7 -->
<g id="edge12" class="edge"><title>Node4&#45;&gt;Node7</title>
<path fill="none" stroke="midnightblue" d="M347.504,-103.275C352.973,-94.0454 359.418,-83.1703 363.814,-75.7511"/>
<polygon fill="midnightblue" stroke="midnightblue" points="344.371,-101.696 342.284,-112.083 350.393,-105.264 344.371,-101.696"/>
</g>
<!-- Node7&#45;&gt;Node5 -->
<g id="edge14" class="edge"><title>Node7&#45;&gt;Node5</title>
<path fill="none" stroke="midnightblue" d="M342.698,-51.7261C322.885,-41.7271 296.293,-28.3065 279.149,-19.6545"/>
<polygon fill="midnightblue" stroke="midnightblue" points="341.304,-54.9431 351.809,-56.324 344.458,-48.6938 341.304,-54.9431"/>
</g>
<!-- Node7&#45;&gt;Node6 -->
<g id="edge18" class="edge"><title>Node7&#45;&gt;Node6</title>
<path fill="none" stroke="midnightblue" d="M393.574,-51.1774C411.239,-41.2407 434.513,-28.1492 449.614,-19.6545"/>
<polygon fill="midnightblue" stroke="midnightblue" points="391.424,-48.3708 384.424,-56.324 394.856,-54.4718 391.424,-48.3708"/>
</g>
<!-- Node8 -->
<g id="node16" class="node"><title>Node8</title>
<a xlink:href="IDA__Solver_8cpp.html" target="_top" xlink:title="IDA_Solver.cpp">
<polygon fill="white" stroke="black" points="326.5,-0.5 326.5,-19.5 411.5,-19.5 411.5,-0.5 326.5,-0.5"/>
<text text-anchor="middle" x="369" y="-7.5" font-family="FreeSans" font-size="10.00">IDA_Solver.cpp</text>
</a>
</g>
<!-- Node7&#45;&gt;Node8 -->
<g id="edge16" class="edge"><title>Node7&#45;&gt;Node8</title>
<path fill="none" stroke="midnightblue" d="M369,-45.8045C369,-36.9102 369,-26.7798 369,-19.7511"/>
<polygon fill="midnightblue" stroke="midnightblue" points="365.5,-46.083 369,-56.083 372.5,-46.083 365.5,-46.083"/>
</g>
<!-- Node10 -->
<g id="node21" class="node"><title>Node10</title>
<a xlink:href="BEulerInt_8cpp.html" target="_top" xlink:title="BEulerInt.cpp">
<polygon fill="white" stroke="black" points="-0.5,-0.5 -0.5,-19.5 72.5,-19.5 72.5,-0.5 -0.5,-0.5"/>
<text text-anchor="middle" x="36" y="-7.5" font-family="FreeSans" font-size="10.00">BEulerInt.cpp</text>
</a>
</g>
<!-- Node9&#45;&gt;Node10 -->
<g id="edge22" class="edge"><title>Node9&#45;&gt;Node10</title>
<path fill="none" stroke="midnightblue" d="M36,-45.8045C36,-36.9102 36,-26.7798 36,-19.7511"/>
<polygon fill="midnightblue" stroke="midnightblue" points="32.5001,-46.083 36,-56.083 39.5001,-46.083 32.5001,-46.083"/>
</g>
<!-- Node11&#45;&gt;Node9 -->
<g id="edge28" class="edge"><title>Node11&#45;&gt;Node9</title>
<path fill="none" stroke="midnightblue" d="M96.1669,-106.622C81.1871,-96.7574 61.8025,-83.9919 49.142,-75.6545"/>
<polygon fill="midnightblue" stroke="midnightblue" points="94.5486,-109.747 104.825,-112.324 98.3985,-103.901 94.5486,-109.747"/>
</g>
<!-- Node12 -->
<g id="node25" class="node"><title>Node12</title>
<a xlink:href="NonlinearSolver_8cpp.html" target="_top" xlink:title="Damped Newton solver for 0D and 1D problems. ">
<polygon fill="white" stroke="black" points="168.5,-56.5 168.5,-75.5 275.5,-75.5 275.5,-56.5 168.5,-56.5"/>
<text text-anchor="middle" x="222" y="-63.5" font-family="FreeSans" font-size="10.00">NonlinearSolver.cpp</text>
</a>
</g>
<!-- Node11&#45;&gt;Node12 -->
<g id="edge26" class="edge"><title>Node11&#45;&gt;Node12</title>
<path fill="none" stroke="midnightblue" d="M143.828,-107.59C163.057,-97.6052 188.745,-84.2672 205.332,-75.6545"/>
<polygon fill="midnightblue" stroke="midnightblue" points="141.971,-104.61 134.709,-112.324 145.197,-110.822 141.971,-104.61"/>
</g>
<!-- Node13 -->
<g id="node28" class="node"><title>Node13</title>
<a xlink:href="numerics_8h_source.html" target="_top" xlink:title="numerics.h">
<polygon fill="white" stroke="black" points="85.5,-56.5 85.5,-75.5 150.5,-75.5 150.5,-56.5 85.5,-56.5"/>
<text text-anchor="middle" x="118" y="-63.5" font-family="FreeSans" font-size="10.00">numerics.h</text>
</a>
</g>
<!-- Node11&#45;&gt;Node13 -->
<g id="edge30" class="edge"><title>Node11&#45;&gt;Node13</title>
<path fill="none" stroke="midnightblue" d="M118,-101.805C118,-92.9102 118,-82.7798 118,-75.7511"/>
<polygon fill="midnightblue" stroke="midnightblue" points="114.5,-102.083 118,-112.083 121.5,-102.083 114.5,-102.083"/>
</g>
<!-- Node15 -->
<g id="node32" class="node"><title>Node15</title>
<a xlink:href="RootFind_8cpp.html" target="_top" xlink:title="root finder for 1D problems ">
<polygon fill="white" stroke="black" points="394.5,-112.5 394.5,-131.5 469.5,-131.5 469.5,-112.5 394.5,-112.5"/>
<text text-anchor="middle" x="432" y="-119.5" font-family="FreeSans" font-size="10.00">RootFind.cpp</text>
</a>
</g>
<!-- Node14&#45;&gt;Node15 -->
<g id="edge34" class="edge"><title>Node14&#45;&gt;Node15</title>
<path fill="none" stroke="midnightblue" d="M479.446,-161.82C467.622,-152.145 452.714,-139.948 442.797,-131.834"/>
<polygon fill="midnightblue" stroke="midnightblue" points="477.44,-164.7 487.396,-168.324 481.873,-159.283 477.44,-164.7"/>
</g>
<!-- Node16 -->
<g id="node34" class="node"><title>Node16</title>
<a xlink:href="RedlichKwongMFTP_8cpp.html" target="_top" xlink:title="Definition file for a derived class of ThermoPhase that assumes either an ideal gas or ideal solution...">
<polygon fill="white" stroke="black" points="596,-56.5 596,-75.5 724,-75.5 724,-56.5 596,-56.5"/>
<text text-anchor="middle" x="660" y="-63.5" font-family="FreeSans" font-size="10.00">RedlichKwongMFTP.cpp</text>
</a>
</g>
<!-- Node14&#45;&gt;Node16 -->
<g id="edge36" class="edge"><title>Node14&#45;&gt;Node16</title>
<path fill="none" stroke="midnightblue" d="M498.883,-157.86C500.547,-143.463 505.054,-124.193 517,-112 537.764,-90.8061 568.392,-79.5643 595.982,-73.614"/>
<polygon fill="midnightblue" stroke="midnightblue" points="495.37,-157.889 498.071,-168.134 502.348,-158.441 495.37,-157.889"/>
</g>
<!-- Node18 -->
<g id="node38" class="node"><title>Node18</title>
<a xlink:href="solveProb_8cpp.html" target="_top" xlink:title="Implicit solver for nonlinear problems. ">
<polygon fill="white" stroke="black" points="526,-112.5 526,-131.5 606,-131.5 606,-112.5 526,-112.5"/>
<text text-anchor="middle" x="566" y="-119.5" font-family="FreeSans" font-size="10.00">solveProb.cpp</text>
</a>
</g>
<!-- Node17&#45;&gt;Node18 -->
<g id="edge40" class="edge"><title>Node17&#45;&gt;Node18</title>
<path fill="none" stroke="midnightblue" d="M578.454,-158.396C575.276,-149.362 571.607,-138.936 569.079,-131.751"/>
<polygon fill="midnightblue" stroke="midnightblue" points="575.242,-159.812 581.863,-168.083 581.845,-157.488 575.242,-159.812"/>
</g>
<!-- Node17&#45;&gt;Node19 -->
<g id="edge42" class="edge"><title>Node17&#45;&gt;Node19</title>
<path fill="none" stroke="midnightblue" d="M603.762,-162.101C616,-152.382 631.559,-140.027 641.876,-131.834"/>
<polygon fill="midnightblue" stroke="midnightblue" points="601.58,-159.364 595.925,-168.324 605.933,-164.846 601.58,-159.364"/>
</g>
<!-- Node21 -->
<g id="node45" class="node"><title>Node21</title>
<a xlink:href="MixtureFugacityTP_8cpp.html" target="_top" xlink:title="Methods file for a derived class of ThermoPhase that handles non&#45;ideal mixtures based on the fugacity...">
<polygon fill="white" stroke="black" points="699.5,-112.5 699.5,-131.5 818.5,-131.5 818.5,-112.5 699.5,-112.5"/>
<text text-anchor="middle" x="759" y="-119.5" font-family="FreeSans" font-size="10.00">MixtureFugacityTP.cpp</text>
</a>
</g>
<!-- Node20&#45;&gt;Node21 -->
<g id="edge48" class="edge"><title>Node20&#45;&gt;Node21</title>
<path fill="none" stroke="midnightblue" d="M759,-157.805C759,-148.91 759,-138.78 759,-131.751"/>
<polygon fill="midnightblue" stroke="midnightblue" points="755.5,-158.083 759,-168.083 762.5,-158.083 755.5,-158.083"/>
</g>
<!-- Node22 -->
<g id="node47" class="node"><title>Node22</title>
<a xlink:href="RedlichKwongMFTP_8h.html" target="_top" xlink:title="Definition file for a derived class of ThermoPhase that assumes either an ideal gas or ideal solution...">
<polygon fill="white" stroke="black" points="837,-112.5 837,-131.5 955,-131.5 955,-112.5 837,-112.5"/>
<text text-anchor="middle" x="896" y="-119.5" font-family="FreeSans" font-size="10.00">RedlichKwongMFTP.h</text>
</a>
</g>
<!-- Node20&#45;&gt;Node22 -->
<g id="edge50" class="edge"><title>Node20&#45;&gt;Node22</title>
<path fill="none" stroke="midnightblue" d="M790.023,-164.772C815.757,-154.629 851.686,-140.467 874.394,-131.516"/>
<polygon fill="midnightblue" stroke="midnightblue" points="788.728,-161.52 780.708,-168.444 791.295,-168.033 788.728,-161.52"/>
</g>
<!-- Node22&#45;&gt;Node16 -->
<g id="edge52" class="edge"><title>Node22&#45;&gt;Node16</title>
<path fill="none" stroke="midnightblue" d="M848.594,-110.153C804.003,-99.95 738.146,-84.8809 697.22,-75.5164"/>
<polygon fill="midnightblue" stroke="midnightblue" points="848.076,-113.625 858.605,-112.444 849.638,-106.801 848.076,-113.625"/>
</g>
<!-- Node23 -->
<g id="node50" class="node"><title>Node23</title>
<a xlink:href="ThermoFactory_8cpp.html" target="_top" xlink:title="Definitions for the factory class that can create known ThermoPhase objects (see Thermodynamic Proper...">
<polygon fill="white" stroke="black" points="844,-56.5 844,-75.5 948,-75.5 948,-56.5 844,-56.5"/>
<text text-anchor="middle" x="896" y="-63.5" font-family="FreeSans" font-size="10.00">ThermoFactory.cpp</text>
</a>
</g>
<!-- Node22&#45;&gt;Node23 -->
<g id="edge54" class="edge"><title>Node22&#45;&gt;Node23</title>
<path fill="none" stroke="midnightblue" d="M896,-101.805C896,-92.9102 896,-82.7798 896,-75.7511"/>
<polygon fill="midnightblue" stroke="midnightblue" points="892.5,-102.083 896,-112.083 899.5,-102.083 892.5,-102.083"/>
</g>
</g>
</svg>
