<?xml version="1.0" encoding="UTF-8" standalone="no"?>
<!DOCTYPE svg PUBLIC "-//W3C//DTD SVG 1.1//EN"
 "http://www.w3.org/Graphics/SVG/1.1/DTD/svg11.dtd">
<!-- Generated by graphviz version 2.40.1 (20161225.0304)
 -->
<!-- Title: ResidJacEval.h Pages: 1 -->
<svg width="720pt" height="420pt"
 viewBox="0.00 0.00 719.50 420.00" xmlns="http://www.w3.org/2000/svg" xmlns:xlink="http://www.w3.org/1999/xlink">
<g id="graph0" class="graph" transform="scale(1 1) rotate(0) translate(4 416)">
<title>ResidJacEval.h</title>
<polygon fill="#ffffff" stroke="transparent" points="-4,4 -4,-416 715.5,-416 715.5,4 -4,4"/>
<!-- Node0 -->
<g id="node1" class="node">
<title>Node0</title>
<polygon fill="#bfbfbf" stroke="#000000" points="270,-392.5 270,-411.5 357,-411.5 357,-392.5 270,-392.5"/>
<text text-anchor="middle" x="313.5" y="-399.5" font-family="Helvetica,sans-Serif" font-size="10.00" fill="#000000">ResidJacEval.h</text>
</g>
<!-- Node1 -->
<g id="node2" class="node">
<title>Node1</title>
<g id="a_node2"><a xlink:href="ResidEval_8h.html" target="_top" xlink:title="ResidEval.h">
<polygon fill="#ffffff" stroke="#000000" points="177,-280.5 177,-299.5 250,-299.5 250,-280.5 177,-280.5"/>
<text text-anchor="middle" x="213.5" y="-287.5" font-family="Helvetica,sans-Serif" font-size="10.00" fill="#000000">ResidEval.h</text>
</a>
</g>
</g>
<!-- Node0&#45;&gt;Node1 -->
<g id="edge1" class="edge">
<title>Node0&#45;&gt;Node1</title>
<path fill="none" stroke="#191970" d="M304.9741,-392.4509C288.0738,-373.5227 250.1197,-331.014 228.7928,-307.1279"/>
<polygon fill="#191970" stroke="#191970" points="231.2753,-304.6532 222.0044,-299.5249 226.0538,-309.3154 231.2753,-304.6532"/>
</g>
<!-- Node21 -->
<g id="node22" class="node">
<title>Node21</title>
<g id="a_node22"><a xlink:href="DenseMatrix_8h.html" target="_top" xlink:title="Headers for the DenseMatrix object, which deals with dense rectangular matrices and description of th...">
<polygon fill="#ffffff" stroke="#000000" points="413,-336.5 413,-355.5 500,-355.5 500,-336.5 413,-336.5"/>
<text text-anchor="middle" x="456.5" y="-343.5" font-family="Helvetica,sans-Serif" font-size="10.00" fill="#000000">DenseMatrix.h</text>
</a>
</g>
</g>
<!-- Node0&#45;&gt;Node21 -->
<g id="edge25" class="edge">
<title>Node0&#45;&gt;Node21</title>
<path fill="none" stroke="#191970" d="M338.0826,-392.3733C361.4496,-383.2226 396.7862,-369.3844 422.7784,-359.2057"/>
<polygon fill="#191970" stroke="#191970" points="424.203,-362.4066 432.2382,-355.5011 421.6505,-355.8886 424.203,-362.4066"/>
</g>
<!-- Node2 -->
<g id="node3" class="node">
<title>Node2</title>
<g id="a_node3"><a xlink:href="ct__defs_8h.html" target="_top" xlink:title="This file contains definitions of terms that are used in internal routines and are unlikely to need m...">
<polygon fill="#ffffff" stroke="#000000" points="318,-56.5 318,-75.5 445,-75.5 445,-56.5 318,-56.5"/>
<text text-anchor="middle" x="381.5" y="-63.5" font-family="Helvetica,sans-Serif" font-size="10.00" fill="#000000">cantera/base/ct_defs.h</text>
</a>
</g>
</g>
<!-- Node1&#45;&gt;Node2 -->
<g id="edge2" class="edge">
<title>Node1&#45;&gt;Node2</title>
<path fill="none" stroke="#191970" d="M177.5343,-280.454C159.1374,-273.5484 138.3785,-262.1556 127.5,-244 103.4166,-203.8061 80.6128,-188.1679 167.5,-112 178.5923,-102.2762 254.9512,-87.4261 313.3261,-77.2451"/>
<polygon fill="#191970" stroke="#191970" points="314.0034,-80.68 323.2606,-75.5269 312.8104,-73.7824 314.0034,-80.68"/>
</g>
<!-- Node11 -->
<g id="node12" class="node">
<title>Node11</title>
<g id="a_node12"><a xlink:href="ctexceptions_8h.html" target="_top" xlink:title="Definitions for the classes that are thrown when Cantera experiences an error condition (also contain...">
<polygon fill="#ffffff" stroke="#000000" points="136.5,-224.5 136.5,-243.5 290.5,-243.5 290.5,-224.5 136.5,-224.5"/>
<text text-anchor="middle" x="213.5" y="-231.5" font-family="Helvetica,sans-Serif" font-size="10.00" fill="#000000">cantera/base/ctexceptions.h</text>
</a>
</g>
</g>
<!-- Node1&#45;&gt;Node11 -->
<g id="edge11" class="edge">
<title>Node1&#45;&gt;Node11</title>
<path fill="none" stroke="#191970" d="M213.5,-280.2455C213.5,-272.9382 213.5,-262.6944 213.5,-253.7046"/>
<polygon fill="#191970" stroke="#191970" points="217.0001,-253.6426 213.5,-243.6427 210.0001,-253.6427 217.0001,-253.6426"/>
</g>
<!-- Node16 -->
<g id="node17" class="node">
<title>Node16</title>
<g id="a_node17"><a xlink:href="utilities_8h.html" target="_top" xlink:title="Various templated functions that carry out common vector operations (see Templated Utility Functions)...">
<polygon fill="#ffffff" stroke="#000000" points="330.5,-224.5 330.5,-243.5 458.5,-243.5 458.5,-224.5 330.5,-224.5"/>
<text text-anchor="middle" x="394.5" y="-231.5" font-family="Helvetica,sans-Serif" font-size="10.00" fill="#000000">cantera/base/utilities.h</text>
</a>
</g>
</g>
<!-- Node1&#45;&gt;Node16 -->
<g id="edge17" class="edge">
<title>Node1&#45;&gt;Node16</title>
<path fill="none" stroke="#191970" d="M244.615,-280.3733C274.8429,-271.021 320.896,-256.7725 353.9739,-246.5385"/>
<polygon fill="#191970" stroke="#191970" points="355.2723,-249.8005 363.791,-243.5011 353.2033,-243.1133 355.2723,-249.8005"/>
</g>
<!-- Node20 -->
<g id="node21" class="node">
<title>Node20</title>
<polygon fill="#ffffff" stroke="#bfbfbf" points="34.5,-224.5 34.5,-243.5 80.5,-243.5 80.5,-224.5 34.5,-224.5"/>
<text text-anchor="middle" x="57.5" y="-231.5" font-family="Helvetica,sans-Serif" font-size="10.00" fill="#000000">cstdio</text>
</g>
<!-- Node1&#45;&gt;Node20 -->
<g id="edge24" class="edge">
<title>Node1&#45;&gt;Node20</title>
<path fill="none" stroke="#191970" d="M186.6826,-280.3733C160.0317,-270.8062 119.1077,-256.1156 90.4827,-245.8399"/>
<polygon fill="#191970" stroke="#191970" points="91.5086,-242.4896 80.9141,-242.4051 89.1435,-249.078 91.5086,-242.4896"/>
</g>
<!-- Node3 -->
<g id="node4" class="node">
<title>Node3</title>
<g id="a_node4"><a xlink:href="config_8h_source.html" target="_top" xlink:title="config.h">
<polygon fill="#ffffff" stroke="#000000" points="122,-.5 122,-19.5 177,-19.5 177,-.5 122,-.5"/>
<text text-anchor="middle" x="149.5" y="-7.5" font-family="Helvetica,sans-Serif" font-size="10.00" fill="#000000">config.h</text>
</a>
</g>
</g>
<!-- Node2&#45;&gt;Node3 -->
<g id="edge3" class="edge">
<title>Node2&#45;&gt;Node3</title>
<path fill="none" stroke="#191970" d="M338.5552,-56.4463C300.9399,-47.9607 244.5673,-34.9611 187.3192,-20.4051"/>
<polygon fill="#191970" stroke="#191970" points="187.9335,-16.9496 177.3782,-17.8638 186.1998,-23.7315 187.9335,-16.9496"/>
</g>
<!-- Node4 -->
<g id="node5" class="node">
<title>Node4</title>
<polygon fill="#ffffff" stroke="#bfbfbf" points="195,-.5 195,-19.5 242,-19.5 242,-.5 195,-.5"/>
<text text-anchor="middle" x="218.5" y="-7.5" font-family="Helvetica,sans-Serif" font-size="10.00" fill="#000000">cmath</text>
</g>
<!-- Node2&#45;&gt;Node4 -->
<g id="edge4" class="edge">
<title>Node2&#45;&gt;Node4</title>
<path fill="none" stroke="#191970" d="M353.4793,-56.3733C325.2655,-46.6802 281.7426,-31.7275 251.787,-21.436"/>
<polygon fill="#191970" stroke="#191970" points="252.7847,-18.078 242.19,-18.1389 250.5102,-24.6982 252.7847,-18.078"/>
</g>
<!-- Node5 -->
<g id="node6" class="node">
<title>Node5</title>
<polygon fill="#ffffff" stroke="#bfbfbf" points="260,-.5 260,-19.5 309,-19.5 309,-.5 260,-.5"/>
<text text-anchor="middle" x="284.5" y="-7.5" font-family="Helvetica,sans-Serif" font-size="10.00" fill="#000000">cstdlib</text>
</g>
<!-- Node2&#45;&gt;Node5 -->
<g id="edge5" class="edge">
<title>Node2&#45;&gt;Node5</title>
<path fill="none" stroke="#191970" d="M364.6039,-56.2455C349.582,-47.5731 327.3957,-34.7645 310.179,-24.825"/>
<polygon fill="#191970" stroke="#191970" points="311.6128,-21.6114 301.2025,-19.6427 308.1129,-27.6737 311.6128,-21.6114"/>
</g>
<!-- Node6 -->
<g id="node7" class="node">
<title>Node6</title>
<polygon fill="#ffffff" stroke="#bfbfbf" points="327,-.5 327,-19.5 374,-19.5 374,-.5 327,-.5"/>
<text text-anchor="middle" x="350.5" y="-7.5" font-family="Helvetica,sans-Serif" font-size="10.00" fill="#000000">vector</text>
</g>
<!-- Node2&#45;&gt;Node6 -->
<g id="edge6" class="edge">
<title>Node2&#45;&gt;Node6</title>
<path fill="none" stroke="#191970" d="M376.1002,-56.2455C371.8773,-48.617 365.8827,-37.7881 360.7559,-28.5267"/>
<polygon fill="#191970" stroke="#191970" points="363.7432,-26.6965 355.8379,-19.6427 357.619,-30.0867 363.7432,-26.6965"/>
</g>
<!-- Node7 -->
<g id="node8" class="node">
<title>Node7</title>
<polygon fill="#ffffff" stroke="#bfbfbf" points="392.5,-.5 392.5,-19.5 430.5,-19.5 430.5,-.5 392.5,-.5"/>
<text text-anchor="middle" x="411.5" y="-7.5" font-family="Helvetica,sans-Serif" font-size="10.00" fill="#000000">map</text>
</g>
<!-- Node2&#45;&gt;Node7 -->
<g id="edge7" class="edge">
<title>Node2&#45;&gt;Node7</title>
<path fill="none" stroke="#191970" d="M386.7256,-56.2455C390.8123,-48.617 396.6135,-37.7881 401.575,-28.5267"/>
<polygon fill="#191970" stroke="#191970" points="404.6972,-30.1103 406.3343,-19.6427 398.5268,-26.8047 404.6972,-30.1103"/>
</g>
<!-- Node8 -->
<g id="node9" class="node">
<title>Node8</title>
<polygon fill="#ffffff" stroke="#bfbfbf" points="448.5,-.5 448.5,-19.5 492.5,-19.5 492.5,-.5 448.5,-.5"/>
<text text-anchor="middle" x="470.5" y="-7.5" font-family="Helvetica,sans-Serif" font-size="10.00" fill="#000000">string</text>
</g>
<!-- Node2&#45;&gt;Node8 -->
<g id="edge8" class="edge">
<title>Node2&#45;&gt;Node8</title>
<path fill="none" stroke="#191970" d="M397.0026,-56.2455C410.658,-47.6534 430.7657,-35.0014 446.4989,-25.1018"/>
<polygon fill="#191970" stroke="#191970" points="448.5751,-27.9307 455.175,-19.6427 444.8471,-22.006 448.5751,-27.9307"/>
</g>
<!-- Node9 -->
<g id="node10" class="node">
<title>Node9</title>
<polygon fill="#ffffff" stroke="#bfbfbf" points="510.5,-.5 510.5,-19.5 574.5,-19.5 574.5,-.5 510.5,-.5"/>
<text text-anchor="middle" x="542.5" y="-7.5" font-family="Helvetica,sans-Serif" font-size="10.00" fill="#000000">algorithm</text>
</g>
<!-- Node2&#45;&gt;Node9 -->
<g id="edge9" class="edge">
<title>Node2&#45;&gt;Node9</title>
<path fill="none" stroke="#191970" d="M409.1769,-56.3733C435.8328,-47.1016 476.3238,-33.0178 505.6884,-22.804"/>
<polygon fill="#191970" stroke="#191970" points="506.8891,-26.0921 515.1843,-19.5011 504.5895,-19.4807 506.8891,-26.0921"/>
</g>
<!-- Node10 -->
<g id="node11" class="node">
<title>Node10</title>
<polygon fill="#ffffff" stroke="#bfbfbf" points="592.5,-.5 592.5,-19.5 650.5,-19.5 650.5,-.5 592.5,-.5"/>
<text text-anchor="middle" x="621.5" y="-7.5" font-family="Helvetica,sans-Serif" font-size="10.00" fill="#000000">memory</text>
</g>
<!-- Node2&#45;&gt;Node10 -->
<g id="edge10" class="edge">
<title>Node2&#45;&gt;Node10</title>
<path fill="none" stroke="#191970" d="M425.3379,-56.4602C464.1605,-47.9125 522.6132,-34.8017 582.4723,-20.1963"/>
<polygon fill="#191970" stroke="#191970" points="583.6,-23.5236 592.4793,-17.7437 581.9336,-16.7248 583.6,-23.5236"/>
</g>
<!-- Node12 -->
<g id="node13" class="node">
<title>Node12</title>
<g id="a_node13"><a xlink:href="fmt_8h.html" target="_top" xlink:title="Wrapper for either system&#45;installed or local headers for fmt. ">
<polygon fill="#ffffff" stroke="#000000" points="177,-112.5 177,-131.5 286,-131.5 286,-112.5 177,-112.5"/>
<text text-anchor="middle" x="231.5" y="-119.5" font-family="Helvetica,sans-Serif" font-size="10.00" fill="#000000">cantera/base/fmt.h</text>
</a>
</g>
</g>
<!-- Node11&#45;&gt;Node12 -->
<g id="edge12" class="edge">
<title>Node11&#45;&gt;Node12</title>
<path fill="none" stroke="#191970" d="M197.7454,-224.3233C179.7681,-211.9708 154.224,-189.6036 165.5,-168 172.6245,-154.3502 185.8523,-143.926 198.6056,-136.4806"/>
<polygon fill="#191970" stroke="#191970" points="200.5647,-139.4012 207.7141,-131.5822 197.2492,-133.2362 200.5647,-139.4012"/>
</g>
<!-- Node15 -->
<g id="node16" class="node">
<title>Node15</title>
<polygon fill="#ffffff" stroke="#bfbfbf" points="175,-168.5 175,-187.5 240,-187.5 240,-168.5 175,-168.5"/>
<text text-anchor="middle" x="207.5" y="-175.5" font-family="Helvetica,sans-Serif" font-size="10.00" fill="#000000">exception</text>
</g>
<!-- Node11&#45;&gt;Node15 -->
<g id="edge16" class="edge">
<title>Node11&#45;&gt;Node15</title>
<path fill="none" stroke="#191970" d="M212.4549,-224.2455C211.672,-216.9382 210.5744,-206.6944 209.6112,-197.7046"/>
<polygon fill="#191970" stroke="#191970" points="213.0786,-197.2129 208.5331,-187.6427 206.1185,-197.9587 213.0786,-197.2129"/>
</g>
<!-- Node12&#45;&gt;Node2 -->
<g id="edge13" class="edge">
<title>Node12&#45;&gt;Node2</title>
<path fill="none" stroke="#191970" d="M257.2859,-112.3733C281.9047,-103.1822 319.19,-89.2624 346.4875,-79.0713"/>
<polygon fill="#191970" stroke="#191970" points="347.9063,-82.2777 356.0506,-75.5011 345.458,-75.7198 347.9063,-82.2777"/>
</g>
<!-- Node13 -->
<g id="node14" class="node">
<title>Node13</title>
<polygon fill="#ffffff" stroke="#bfbfbf" points="163,-56.5 163,-75.5 300,-75.5 300,-56.5 163,-56.5"/>
<text text-anchor="middle" x="231.5" y="-63.5" font-family="Helvetica,sans-Serif" font-size="10.00" fill="#000000">cantera/ext/fmt/format.h</text>
</g>
<!-- Node12&#45;&gt;Node13 -->
<g id="edge14" class="edge">
<title>Node12&#45;&gt;Node13</title>
<path fill="none" stroke="#191970" d="M231.5,-112.2455C231.5,-104.9382 231.5,-94.6944 231.5,-85.7046"/>
<polygon fill="#191970" stroke="#191970" points="235.0001,-85.6426 231.5,-75.6427 228.0001,-85.6427 235.0001,-85.6426"/>
</g>
<!-- Node14 -->
<g id="node15" class="node">
<title>Node14</title>
<polygon fill="#ffffff" stroke="#bfbfbf" points="0,-56.5 0,-75.5 145,-75.5 145,-56.5 0,-56.5"/>
<text text-anchor="middle" x="72.5" y="-63.5" font-family="Helvetica,sans-Serif" font-size="10.00" fill="#000000">cantera/ext/fmt/ostream.h</text>
</g>
<!-- Node12&#45;&gt;Node14 -->
<g id="edge15" class="edge">
<title>Node12&#45;&gt;Node14</title>
<path fill="none" stroke="#191970" d="M204.1669,-112.3733C177.9566,-103.1419 138.2016,-89.1402 109.2332,-78.9375"/>
<polygon fill="#191970" stroke="#191970" points="110.0712,-75.5219 99.4764,-75.5011 107.7458,-82.1244 110.0712,-75.5219"/>
</g>
<!-- Node16&#45;&gt;Node2 -->
<g id="edge18" class="edge">
<title>Node16&#45;&gt;Node2</title>
<path fill="none" stroke="#191970" d="M395.3013,-224.4941C396.042,-215.1984 397.0883,-200.6382 397.5,-188 397.7894,-179.1158 398.1908,-176.862 397.5,-168 395.2432,-139.0495 389.4354,-105.8934 385.4746,-85.4477"/>
<polygon fill="#191970" stroke="#191970" points="388.8806,-84.63 383.4985,-75.5041 382.0149,-85.9945 388.8806,-84.63"/>
</g>
<!-- Node17 -->
<g id="node18" class="node">
<title>Node17</title>
<g id="a_node18"><a xlink:href="global_8h.html" target="_top" xlink:title="This file contains definitions for utility functions and text for modules, inputfiles, logs, textlogs, (see Input File Handling, Diagnostic Output, and Writing messages to the screen). ">
<polygon fill="#ffffff" stroke="#000000" points="258.5,-168.5 258.5,-187.5 314.5,-187.5 314.5,-168.5 258.5,-168.5"/>
<text text-anchor="middle" x="286.5" y="-175.5" font-family="Helvetica,sans-Serif" font-size="10.00" fill="#000000">global.h</text>
</a>
</g>
</g>
<!-- Node16&#45;&gt;Node17 -->
<g id="edge19" class="edge">
<title>Node16&#45;&gt;Node17</title>
<path fill="none" stroke="#191970" d="M375.6878,-224.2455C358.6527,-215.4125 333.3425,-202.2887 314.0319,-192.2758"/>
<polygon fill="#191970" stroke="#191970" points="315.5853,-189.1388 305.0966,-187.6427 312.363,-195.353 315.5853,-189.1388"/>
</g>
<!-- Node18 -->
<g id="node19" class="node">
<title>Node18</title>
<polygon fill="#ffffff" stroke="#bfbfbf" points="445,-168.5 445,-187.5 510,-187.5 510,-168.5 445,-168.5"/>
<text text-anchor="middle" x="477.5" y="-175.5" font-family="Helvetica,sans-Serif" font-size="10.00" fill="#000000">stdexcept</text>
</g>
<!-- Node16&#45;&gt;Node18 -->
<g id="edge22" class="edge">
<title>Node16&#45;&gt;Node18</title>
<path fill="none" stroke="#191970" d="M408.9575,-224.2455C421.5732,-215.7337 440.0944,-203.2375 454.7045,-193.3801"/>
<polygon fill="#191970" stroke="#191970" points="456.8761,-196.1371 463.2082,-187.6427 452.9609,-190.3343 456.8761,-196.1371"/>
</g>
<!-- Node19 -->
<g id="node20" class="node">
<title>Node19</title>
<polygon fill="#ffffff" stroke="#bfbfbf" points="332.5,-168.5 332.5,-187.5 388.5,-187.5 388.5,-168.5 332.5,-168.5"/>
<text text-anchor="middle" x="360.5" y="-175.5" font-family="Helvetica,sans-Serif" font-size="10.00" fill="#000000">numeric</text>
</g>
<!-- Node16&#45;&gt;Node19 -->
<g id="edge23" class="edge">
<title>Node16&#45;&gt;Node19</title>
<path fill="none" stroke="#191970" d="M388.5777,-224.2455C383.8973,-216.5367 377.2327,-205.5598 371.5711,-196.2348"/>
<polygon fill="#191970" stroke="#191970" points="374.5361,-194.3741 366.3545,-187.6427 368.5525,-198.007 374.5361,-194.3741"/>
</g>
<!-- Node17&#45;&gt;Node2 -->
<g id="edge20" class="edge">
<title>Node17&#45;&gt;Node2</title>
<path fill="none" stroke="#191970" d="M294.5996,-168.4509C310.5847,-149.6054 346.3968,-107.3849 366.7056,-83.4419"/>
<polygon fill="#191970" stroke="#191970" points="369.6214,-85.415 373.4209,-75.5249 364.2831,-80.887 369.6214,-85.415"/>
</g>
<!-- Node17&#45;&gt;Node12 -->
<g id="edge21" class="edge">
<title>Node17&#45;&gt;Node12</title>
<path fill="none" stroke="#191970" d="M276.9197,-168.2455C268.9542,-160.1352 257.4359,-148.4075 247.9921,-138.7919"/>
<polygon fill="#191970" stroke="#191970" points="250.4747,-136.3247 240.9705,-131.6427 245.4805,-141.2297 250.4747,-136.3247"/>
</g>
<!-- Node21&#45;&gt;Node2 -->
<g id="edge26" class="edge">
<title>Node21&#45;&gt;Node2</title>
<path fill="none" stroke="#191970" d="M470.4102,-336.3601C493.8051,-318.8875 538.5,-279.5468 538.5,-234 538.5,-234 538.5,-234 538.5,-178 538.5,-124.0793 476.3682,-93.6764 430.2766,-78.5408"/>
<polygon fill="#191970" stroke="#191970" points="431.3019,-75.1943 420.7127,-75.5398 429.2061,-81.8732 431.3019,-75.1943"/>
</g>
<!-- Node21&#45;&gt;Node11 -->
<g id="edge27" class="edge">
<title>Node21&#45;&gt;Node11</title>
<path fill="none" stroke="#191970" d="M435.782,-336.4509C392.7418,-316.6135 293.5074,-270.8758 243.4831,-247.8194"/>
<polygon fill="#191970" stroke="#191970" points="244.7125,-244.5322 234.1656,-243.5249 241.7823,-250.8894 244.7125,-244.5322"/>
</g>
<!-- Node22 -->
<g id="node23" class="node">
<title>Node22</title>
<g id="a_node23"><a xlink:href="Array_8h.html" target="_top" xlink:title="Header file for class Cantera::Array2D. ">
<polygon fill="#ffffff" stroke="#000000" points="566.5,-280.5 566.5,-299.5 682.5,-299.5 682.5,-280.5 566.5,-280.5"/>
<text text-anchor="middle" x="624.5" y="-287.5" font-family="Helvetica,sans-Serif" font-size="10.00" fill="#000000">cantera/base/Array.h</text>
</a>
</g>
</g>
<!-- Node21&#45;&gt;Node22 -->
<g id="edge28" class="edge">
<title>Node21&#45;&gt;Node22</title>
<path fill="none" stroke="#191970" d="M485.3802,-336.3733C513.3161,-327.0613 555.8142,-312.8953 586.4869,-302.671"/>
<polygon fill="#191970" stroke="#191970" points="587.6166,-305.9839 595.9966,-299.5011 585.403,-299.3431 587.6166,-305.9839"/>
</g>
<!-- Node22&#45;&gt;Node16 -->
<g id="edge29" class="edge">
<title>Node22&#45;&gt;Node16</title>
<path fill="none" stroke="#191970" d="M585.2229,-280.4369C546.0256,-270.8932 485.7,-256.2052 443.4165,-245.9101"/>
<polygon fill="#191970" stroke="#191970" points="444.1592,-242.4888 433.6151,-243.5237 442.5032,-249.2901 444.1592,-242.4888"/>
</g>
<!-- Node23 -->
<g id="node24" class="node">
<title>Node23</title>
<polygon fill="#ffffff" stroke="#bfbfbf" points="651.5,-224.5 651.5,-243.5 711.5,-243.5 711.5,-224.5 651.5,-224.5"/>
<text text-anchor="middle" x="681.5" y="-231.5" font-family="Helvetica,sans-Serif" font-size="10.00" fill="#000000">iostream</text>
</g>
<!-- Node22&#45;&gt;Node23 -->
<g id="edge30" class="edge">
<title>Node22&#45;&gt;Node23</title>
<path fill="none" stroke="#191970" d="M634.4286,-280.2455C642.6838,-272.1352 654.6209,-260.4075 664.4082,-250.7919"/>
<polygon fill="#191970" stroke="#191970" points="667.0046,-253.1476 671.6851,-243.6427 662.0989,-248.1542 667.0046,-253.1476"/>
</g>
<!-- Node24 -->
<g id="node25" class="node">
<title>Node24</title>
<polygon fill="#ffffff" stroke="#bfbfbf" points="583.5,-224.5 583.5,-243.5 633.5,-243.5 633.5,-224.5 583.5,-224.5"/>
<text text-anchor="middle" x="608.5" y="-231.5" font-family="Helvetica,sans-Serif" font-size="10.00" fill="#000000">cstring</text>
</g>
<!-- Node22&#45;&gt;Node24 -->
<g id="edge31" class="edge">
<title>Node22&#45;&gt;Node24</title>
<path fill="none" stroke="#191970" d="M621.713,-280.2455C619.6023,-272.8579 616.634,-262.4689 614.0453,-253.4087"/>
<polygon fill="#191970" stroke="#191970" points="617.3677,-252.2964 611.255,-243.6427 610.637,-254.2195 617.3677,-252.2964"/>
</g>
</g>
</svg>
