<?xml version="1.0" encoding="UTF-8" standalone="no"?>
<!DOCTYPE svg PUBLIC "-//W3C//DTD SVG 1.1//EN"
 "http://www.w3.org/Graphics/SVG/1.1/DTD/svg11.dtd">
<!-- Generated by graphviz version 2.36.0 (20140111.2315)
 -->
<!-- Title: ResidEval.h Pages: 1 -->
<svg width="589pt" height="252pt"
 viewBox="0.00 0.00 589.00 252.00" xmlns="http://www.w3.org/2000/svg" xmlns:xlink="http://www.w3.org/1999/xlink">
<g id="graph0" class="graph" transform="scale(1 1) rotate(0) translate(4 248)">
<title>ResidEval.h</title>
<polygon fill="white" stroke="none" points="-4,4 -4,-248 585,-248 585,4 -4,4"/>
<!-- Node1 -->
<g id="node1" class="node"><title>Node1</title>
<polygon fill="#bfbfbf" stroke="black" points="232,-224.5 232,-243.5 298,-243.5 298,-224.5 232,-224.5"/>
<text text-anchor="middle" x="265" y="-231.5" font-family="FreeSans" font-size="10.00">ResidEval.h</text>
</g>
<!-- Node2 -->
<g id="node2" class="node"><title>Node2</title>
<g id="a_node2"><a xlink:href="ResidJacEval_8h.html" target="_top" xlink:title="Dense, Square (not sparse) matrices. ">
<polygon fill="white" stroke="black" points="107,-168.5 107,-187.5 189,-187.5 189,-168.5 107,-168.5"/>
<text text-anchor="middle" x="148" y="-175.5" font-family="FreeSans" font-size="10.00">ResidJacEval.h</text>
</a>
</g>
</g>
<!-- Node1&#45;&gt;Node2 -->
<g id="edge1" class="edge"><title>Node1&#45;&gt;Node2</title>
<path fill="none" stroke="midnightblue" d="M237.336,-220.232C215.451,-210.131 185.503,-196.309 166.452,-187.516"/>
<polygon fill="midnightblue" stroke="midnightblue" points="235.915,-223.431 246.461,-224.444 238.848,-217.075 235.915,-223.431"/>
</g>
<!-- Node9 -->
<g id="node9" class="node"><title>Node9</title>
<g id="a_node9"><a xlink:href="RootFind_8h.html" target="_top" xlink:title="Header file for implicit nonlinear solver of a one dimensional function (see Numerical Utilities with...">
<polygon fill="white" stroke="black" points="233.5,-168.5 233.5,-187.5 296.5,-187.5 296.5,-168.5 233.5,-168.5"/>
<text text-anchor="middle" x="265" y="-175.5" font-family="FreeSans" font-size="10.00">RootFind.h</text>
</a>
</g>
</g>
<!-- Node1&#45;&gt;Node9 -->
<g id="edge10" class="edge"><title>Node1&#45;&gt;Node9</title>
<path fill="none" stroke="midnightblue" d="M265,-213.805C265,-204.91 265,-194.78 265,-187.751"/>
<polygon fill="midnightblue" stroke="midnightblue" points="261.5,-214.083 265,-224.083 268.5,-214.083 261.5,-214.083"/>
</g>
<!-- Node12 -->
<g id="node12" class="node"><title>Node12</title>
<g id="a_node12"><a xlink:href="MixtureFugacityTP_8h.html" target="_top" xlink:title="Header file for a derived class of ThermoPhase that handles non&#45;ideal mixtures based on the fugacity ...">
<polygon fill="white" stroke="black" points="339.5,-168.5 339.5,-187.5 444.5,-187.5 444.5,-168.5 339.5,-168.5"/>
<text text-anchor="middle" x="392" y="-175.5" font-family="FreeSans" font-size="10.00">MixtureFugacityTP.h</text>
</a>
</g>
</g>
<!-- Node1&#45;&gt;Node12 -->
<g id="edge13" class="edge"><title>Node1&#45;&gt;Node12</title>
<path fill="none" stroke="midnightblue" d="M294.391,-220.503C318.2,-210.38 351.106,-196.388 371.971,-187.516"/>
<polygon fill="midnightblue" stroke="midnightblue" points="292.957,-217.31 285.124,-224.444 295.696,-223.751 292.957,-217.31"/>
</g>
<!-- Node3 -->
<g id="node3" class="node"><title>Node3</title>
<g id="a_node3"><a xlink:href="ResidJacEval_8cpp.html" target="_top" xlink:title="ResidJacEval.cpp">
<polygon fill="white" stroke="black" points="0,-112.5 0,-131.5 92,-131.5 92,-112.5 0,-112.5"/>
<text text-anchor="middle" x="46" y="-119.5" font-family="FreeSans" font-size="10.00">ResidJacEval.cpp</text>
</a>
</g>
</g>
<!-- Node2&#45;&gt;Node3 -->
<g id="edge2" class="edge"><title>Node2&#45;&gt;Node3</title>
<path fill="none" stroke="midnightblue" d="M122.669,-163.59C103.81,-153.605 78.6158,-140.267 62.3474,-131.655"/>
<polygon fill="midnightblue" stroke="midnightblue" points="121.136,-166.738 131.612,-168.324 124.412,-160.552 121.136,-166.738"/>
</g>
<!-- Node4 -->
<g id="node4" class="node"><title>Node4</title>
<g id="a_node4"><a xlink:href="DAE__Solver_8h.html" target="_top" xlink:title="Header file for class DAE_Solver. ">
<polygon fill="white" stroke="black" points="110,-112.5 110,-131.5 186,-131.5 186,-112.5 110,-112.5"/>
<text text-anchor="middle" x="148" y="-119.5" font-family="FreeSans" font-size="10.00">DAE_Solver.h</text>
</a>
</g>
</g>
<!-- Node2&#45;&gt;Node4 -->
<g id="edge3" class="edge"><title>Node2&#45;&gt;Node4</title>
<path fill="none" stroke="midnightblue" d="M148,-157.805C148,-148.91 148,-138.78 148,-131.751"/>
<polygon fill="midnightblue" stroke="midnightblue" points="144.5,-158.083 148,-168.083 151.5,-158.083 144.5,-158.083"/>
</g>
<!-- Node5 -->
<g id="node5" class="node"><title>Node5</title>
<g id="a_node5"><a xlink:href="DAE__solvers_8cpp.html" target="_top" xlink:title="Factory routine for picking the DAE solver package. ">
<polygon fill="white" stroke="black" points="-0.5,-0.5 -0.5,-19.5 88.5,-19.5 88.5,-0.5 -0.5,-0.5"/>
<text text-anchor="middle" x="44" y="-7.5" font-family="FreeSans" font-size="10.00">DAE_solvers.cpp</text>
</a>
</g>
</g>
<!-- Node4&#45;&gt;Node5 -->
<g id="edge4" class="edge"><title>Node4&#45;&gt;Node5</title>
<path fill="none" stroke="midnightblue" d="M131.23,-105.125C122.392,-96.6258 111.453,-85.8966 102,-76 83.1966,-56.3138 62.1612,-32.1763 51.3286,-19.5797"/>
<polygon fill="midnightblue" stroke="midnightblue" points="129.005,-107.839 138.654,-112.215 133.84,-102.777 129.005,-107.839"/>
</g>
<!-- Node6 -->
<g id="node6" class="node"><title>Node6</title>
<g id="a_node6"><a xlink:href="integrators_8h.html" target="_top" xlink:title="ODE integrators. ">
<polygon fill="white" stroke="black" points="207.5,-0.5 207.5,-19.5 276.5,-19.5 276.5,-0.5 207.5,-0.5"/>
<text text-anchor="middle" x="242" y="-7.5" font-family="FreeSans" font-size="10.00">integrators.h</text>
</a>
</g>
</g>
<!-- Node4&#45;&gt;Node6 -->
<g id="edge5" class="edge"><title>Node4&#45;&gt;Node6</title>
<path fill="none" stroke="midnightblue" d="M164.704,-105.383C173.434,-96.9566 184.12,-86.2138 193,-76 209.69,-56.8036 227.135,-32.4671 236.021,-19.7092"/>
<polygon fill="midnightblue" stroke="midnightblue" points="162.174,-102.96 157.345,-112.39 167.001,-108.029 162.174,-102.96"/>
</g>
<!-- Node7 -->
<g id="node7" class="node"><title>Node7</title>
<g id="a_node7"><a xlink:href="IDA__Solver_8h.html" target="_top" xlink:title="Header file for class IDA_Solver. ">
<polygon fill="white" stroke="black" points="111.5,-56.5 111.5,-75.5 184.5,-75.5 184.5,-56.5 111.5,-56.5"/>
<text text-anchor="middle" x="148" y="-63.5" font-family="FreeSans" font-size="10.00">IDA_Solver.h</text>
</a>
</g>
</g>
<!-- Node4&#45;&gt;Node7 -->
<g id="edge6" class="edge"><title>Node4&#45;&gt;Node7</title>
<path fill="none" stroke="midnightblue" d="M148,-101.805C148,-92.9102 148,-82.7798 148,-75.7511"/>
<polygon fill="midnightblue" stroke="midnightblue" points="144.5,-102.083 148,-112.083 151.5,-102.083 144.5,-102.083"/>
</g>
<!-- Node7&#45;&gt;Node5 -->
<g id="edge7" class="edge"><title>Node7&#45;&gt;Node5</title>
<path fill="none" stroke="midnightblue" d="M122.172,-51.5895C102.943,-41.6052 77.2553,-28.2672 60.6679,-19.6545"/>
<polygon fill="midnightblue" stroke="midnightblue" points="120.803,-54.822 131.291,-56.324 124.029,-48.6095 120.803,-54.822"/>
</g>
<!-- Node7&#45;&gt;Node6 -->
<g id="edge9" class="edge"><title>Node7&#45;&gt;Node6</title>
<path fill="none" stroke="midnightblue" d="M172.062,-51.1774C189.359,-41.2407 212.148,-28.1492 226.935,-19.6545"/>
<polygon fill="midnightblue" stroke="midnightblue" points="170.03,-48.3078 163.103,-56.324 173.517,-54.3775 170.03,-48.3078"/>
</g>
<!-- Node8 -->
<g id="node8" class="node"><title>Node8</title>
<g id="a_node8"><a xlink:href="IDA__Solver_8cpp.html" target="_top" xlink:title="IDA_Solver.cpp">
<polygon fill="white" stroke="black" points="106.5,-0.5 106.5,-19.5 189.5,-19.5 189.5,-0.5 106.5,-0.5"/>
<text text-anchor="middle" x="148" y="-7.5" font-family="FreeSans" font-size="10.00">IDA_Solver.cpp</text>
</a>
</g>
</g>
<!-- Node7&#45;&gt;Node8 -->
<g id="edge8" class="edge"><title>Node7&#45;&gt;Node8</title>
<path fill="none" stroke="midnightblue" d="M148,-45.8045C148,-36.9102 148,-26.7798 148,-19.7511"/>
<polygon fill="midnightblue" stroke="midnightblue" points="144.5,-46.083 148,-56.083 151.5,-46.083 144.5,-46.083"/>
</g>
<!-- Node10 -->
<g id="node10" class="node"><title>Node10</title>
<g id="a_node10"><a xlink:href="RootFind_8cpp.html" target="_top" xlink:title="root finder for 1D problems ">
<polygon fill="white" stroke="black" points="204,-112.5 204,-131.5 278,-131.5 278,-112.5 204,-112.5"/>
<text text-anchor="middle" x="241" y="-119.5" font-family="FreeSans" font-size="10.00">RootFind.cpp</text>
</a>
</g>
</g>
<!-- Node9&#45;&gt;Node10 -->
<g id="edge11" class="edge"><title>Node9&#45;&gt;Node10</title>
<path fill="none" stroke="midnightblue" d="M256.862,-158.69C252.817,-149.589 248.117,-139.014 244.889,-131.751"/>
<polygon fill="midnightblue" stroke="midnightblue" points="253.777,-160.366 261.037,-168.083 260.174,-157.523 253.777,-160.366"/>
</g>
<!-- Node11 -->
<g id="node11" class="node"><title>Node11</title>
<g id="a_node11"><a xlink:href="RedlichKwongMFTP_8cpp.html" target="_top" xlink:title="RedlichKwongMFTP.cpp">
<polygon fill="white" stroke="black" points="288.5,-56.5 288.5,-75.5 411.5,-75.5 411.5,-56.5 288.5,-56.5"/>
<text text-anchor="middle" x="350" y="-63.5" font-family="FreeSans" font-size="10.00">RedlichKwongMFTP.cpp</text>
</a>
</g>
</g>
<!-- Node9&#45;&gt;Node11 -->
<g id="edge12" class="edge"><title>Node9&#45;&gt;Node11</title>
<path fill="none" stroke="midnightblue" d="M277.926,-160.272C296.3,-136.494 329.299,-93.7889 343.361,-75.5914"/>
<polygon fill="midnightblue" stroke="midnightblue" points="275.015,-158.316 271.67,-168.368 280.554,-162.596 275.015,-158.316"/>
</g>
<!-- Node13 -->
<g id="node13" class="node"><title>Node13</title>
<g id="a_node13"><a xlink:href="MixtureFugacityTP_8cpp.html" target="_top" xlink:title="Methods file for a derived class of ThermoPhase that handles non&#45;ideal mixtures based on the fugacity...">
<polygon fill="white" stroke="black" points="334,-112.5 334,-131.5 450,-131.5 450,-112.5 334,-112.5"/>
<text text-anchor="middle" x="392" y="-119.5" font-family="FreeSans" font-size="10.00">MixtureFugacityTP.cpp</text>
</a>
</g>
</g>
<!-- Node12&#45;&gt;Node13 -->
<g id="edge14" class="edge"><title>Node12&#45;&gt;Node13</title>
<path fill="none" stroke="midnightblue" d="M392,-157.805C392,-148.91 392,-138.78 392,-131.751"/>
<polygon fill="midnightblue" stroke="midnightblue" points="388.5,-158.083 392,-168.083 395.5,-158.083 388.5,-158.083"/>
</g>
<!-- Node14 -->
<g id="node14" class="node"><title>Node14</title>
<g id="a_node14"><a xlink:href="RedlichKwongMFTP_8h.html" target="_top" xlink:title="RedlichKwongMFTP.h">
<polygon fill="white" stroke="black" points="468.5,-112.5 468.5,-131.5 581.5,-131.5 581.5,-112.5 468.5,-112.5"/>
<text text-anchor="middle" x="525" y="-119.5" font-family="FreeSans" font-size="10.00">RedlichKwongMFTP.h</text>
</a>
</g>
</g>
<!-- Node12&#45;&gt;Node14 -->
<g id="edge15" class="edge"><title>Node12&#45;&gt;Node14</title>
<path fill="none" stroke="midnightblue" d="M422.448,-164.638C447.407,-154.504 482.077,-140.427 504.024,-131.516"/>
<polygon fill="midnightblue" stroke="midnightblue" points="421.023,-161.439 413.074,-168.444 423.656,-167.924 421.023,-161.439"/>
</g>
<!-- Node14&#45;&gt;Node11 -->
<g id="edge16" class="edge"><title>Node14&#45;&gt;Node11</title>
<path fill="none" stroke="midnightblue" d="M487.525,-109.436C454.53,-99.2551 407.244,-84.664 377.6,-75.5164"/>
<polygon fill="midnightblue" stroke="midnightblue" points="486.683,-112.839 497.271,-112.444 488.747,-106.151 486.683,-112.839"/>
</g>
<!-- Node15 -->
<g id="node15" class="node"><title>Node15</title>
<g id="a_node15"><a xlink:href="ThermoFactory_8cpp.html" target="_top" xlink:title="Definitions for the factory class that can create known ThermoPhase objects (see Thermodynamic Proper...">
<polygon fill="white" stroke="black" points="475,-56.5 475,-75.5 575,-75.5 575,-56.5 475,-56.5"/>
<text text-anchor="middle" x="525" y="-63.5" font-family="FreeSans" font-size="10.00">ThermoFactory.cpp</text>
</a>
</g>
</g>
<!-- Node14&#45;&gt;Node15 -->
<g id="edge17" class="edge"><title>Node14&#45;&gt;Node15</title>
<path fill="none" stroke="midnightblue" d="M525,-101.805C525,-92.9102 525,-82.7798 525,-75.7511"/>
<polygon fill="midnightblue" stroke="midnightblue" points="521.5,-102.083 525,-112.083 528.5,-102.083 521.5,-102.083"/>
</g>
</g>
</svg>
