<?xml version="1.0" encoding="UTF-8" standalone="no"?>
<!DOCTYPE svg PUBLIC "-//W3C//DTD SVG 1.1//EN"
 "http://www.w3.org/Graphics/SVG/1.1/DTD/svg11.dtd">
<!-- Generated by graphviz version 2.40.1 (20161225.0304)
 -->
<!-- Title: ResidEval.h Pages: 1 -->
<svg width="659pt" height="308pt"
 viewBox="0.00 0.00 658.50 308.00" xmlns="http://www.w3.org/2000/svg" xmlns:xlink="http://www.w3.org/1999/xlink">
<g id="graph0" class="graph" transform="scale(1 1) rotate(0) translate(4 304)">
<title>ResidEval.h</title>
<polygon fill="#ffffff" stroke="transparent" points="-4,4 -4,-304 654.5,-304 654.5,4 -4,4"/>
<!-- Node0 -->
<g id="node1" class="node">
<title>Node0</title>
<polygon fill="#bfbfbf" stroke="#000000" points="406,-280.5 406,-299.5 479,-299.5 479,-280.5 406,-280.5"/>
<text text-anchor="middle" x="442.5" y="-287.5" font-family="Helvetica,sans-Serif" font-size="10.00" fill="#000000">ResidEval.h</text>
</g>
<!-- Node1 -->
<g id="node2" class="node">
<title>Node1</title>
<g id="a_node2"><a xlink:href="ct__defs_8h.html" target="_top" xlink:title="This file contains definitions of terms that are used in internal routines and are unlikely to need m...">
<polygon fill="#ffffff" stroke="#000000" points="318,-56.5 318,-75.5 445,-75.5 445,-56.5 318,-56.5"/>
<text text-anchor="middle" x="381.5" y="-63.5" font-family="Helvetica,sans-Serif" font-size="10.00" fill="#000000">cantera/base/ct_defs.h</text>
</a>
</g>
</g>
<!-- Node0&#45;&gt;Node1 -->
<g id="edge1" class="edge">
<title>Node0&#45;&gt;Node1</title>
<path fill="none" stroke="#191970" d="M450.6199,-280.3543C467.1116,-259.5299 501.5731,-208.9354 484.5,-168 468.6247,-129.9364 430.8673,-98.8076 405.7482,-81.3326"/>
<polygon fill="#191970" stroke="#191970" points="407.3782,-78.2106 397.1295,-75.5247 403.4664,-84.0156 407.3782,-78.2106"/>
</g>
<!-- Node10 -->
<g id="node11" class="node">
<title>Node10</title>
<g id="a_node11"><a xlink:href="ctexceptions_8h.html" target="_top" xlink:title="Definitions for the classes that are thrown when Cantera experiences an error condition (also contain...">
<polygon fill="#ffffff" stroke="#000000" points="95.5,-224.5 95.5,-243.5 249.5,-243.5 249.5,-224.5 95.5,-224.5"/>
<text text-anchor="middle" x="172.5" y="-231.5" font-family="Helvetica,sans-Serif" font-size="10.00" fill="#000000">cantera/base/ctexceptions.h</text>
</a>
</g>
</g>
<!-- Node0&#45;&gt;Node10 -->
<g id="edge10" class="edge">
<title>Node0&#45;&gt;Node10</title>
<path fill="none" stroke="#191970" d="M405.8056,-282.3893C360.1571,-272.9215 281.7559,-256.6605 228.5615,-245.6276"/>
<polygon fill="#191970" stroke="#191970" points="229.1085,-242.1666 218.6061,-243.5627 227.6869,-249.0207 229.1085,-242.1666"/>
</g>
<!-- Node15 -->
<g id="node16" class="node">
<title>Node15</title>
<g id="a_node16"><a xlink:href="utilities_8h.html" target="_top" xlink:title="Various templated functions that carry out common vector operations (see Templated Utility Functions)...">
<polygon fill="#ffffff" stroke="#000000" points="317.5,-224.5 317.5,-243.5 445.5,-243.5 445.5,-224.5 317.5,-224.5"/>
<text text-anchor="middle" x="381.5" y="-231.5" font-family="Helvetica,sans-Serif" font-size="10.00" fill="#000000">cantera/base/utilities.h</text>
</a>
</g>
</g>
<!-- Node0&#45;&gt;Node15 -->
<g id="edge16" class="edge">
<title>Node0&#45;&gt;Node15</title>
<path fill="none" stroke="#191970" d="M431.8746,-280.2455C422.9527,-272.0549 410.012,-260.1749 399.4808,-250.5069"/>
<polygon fill="#191970" stroke="#191970" points="401.7371,-247.8271 392.0036,-243.6427 397.0032,-252.9837 401.7371,-247.8271"/>
</g>
<!-- Node19 -->
<g id="node20" class="node">
<title>Node19</title>
<polygon fill="#ffffff" stroke="#bfbfbf" points="531.5,-224.5 531.5,-243.5 577.5,-243.5 577.5,-224.5 531.5,-224.5"/>
<text text-anchor="middle" x="554.5" y="-231.5" font-family="Helvetica,sans-Serif" font-size="10.00" fill="#000000">cstdio</text>
</g>
<!-- Node0&#45;&gt;Node19 -->
<g id="edge23" class="edge">
<title>Node0&#45;&gt;Node19</title>
<path fill="none" stroke="#191970" d="M461.7535,-280.3733C479.5712,-271.4644 506.2747,-258.1127 526.4594,-248.0203"/>
<polygon fill="#191970" stroke="#191970" points="528.1187,-251.1038 535.4978,-243.5011 524.9882,-244.8428 528.1187,-251.1038"/>
</g>
<!-- Node2 -->
<g id="node3" class="node">
<title>Node2</title>
<g id="a_node3"><a xlink:href="config_8h_source.html" target="_top" xlink:title="config.h">
<polygon fill="#ffffff" stroke="#000000" points="122,-.5 122,-19.5 177,-19.5 177,-.5 122,-.5"/>
<text text-anchor="middle" x="149.5" y="-7.5" font-family="Helvetica,sans-Serif" font-size="10.00" fill="#000000">config.h</text>
</a>
</g>
</g>
<!-- Node1&#45;&gt;Node2 -->
<g id="edge2" class="edge">
<title>Node1&#45;&gt;Node2</title>
<path fill="none" stroke="#191970" d="M338.5552,-56.4463C300.9399,-47.9607 244.5673,-34.9611 187.3192,-20.4051"/>
<polygon fill="#191970" stroke="#191970" points="187.9335,-16.9496 177.3782,-17.8638 186.1998,-23.7315 187.9335,-16.9496"/>
</g>
<!-- Node3 -->
<g id="node4" class="node">
<title>Node3</title>
<polygon fill="#ffffff" stroke="#bfbfbf" points="195,-.5 195,-19.5 242,-19.5 242,-.5 195,-.5"/>
<text text-anchor="middle" x="218.5" y="-7.5" font-family="Helvetica,sans-Serif" font-size="10.00" fill="#000000">cmath</text>
</g>
<!-- Node1&#45;&gt;Node3 -->
<g id="edge3" class="edge">
<title>Node1&#45;&gt;Node3</title>
<path fill="none" stroke="#191970" d="M353.4793,-56.3733C325.2655,-46.6802 281.7426,-31.7275 251.787,-21.436"/>
<polygon fill="#191970" stroke="#191970" points="252.7847,-18.078 242.19,-18.1389 250.5102,-24.6982 252.7847,-18.078"/>
</g>
<!-- Node4 -->
<g id="node5" class="node">
<title>Node4</title>
<polygon fill="#ffffff" stroke="#bfbfbf" points="260,-.5 260,-19.5 309,-19.5 309,-.5 260,-.5"/>
<text text-anchor="middle" x="284.5" y="-7.5" font-family="Helvetica,sans-Serif" font-size="10.00" fill="#000000">cstdlib</text>
</g>
<!-- Node1&#45;&gt;Node4 -->
<g id="edge4" class="edge">
<title>Node1&#45;&gt;Node4</title>
<path fill="none" stroke="#191970" d="M364.6039,-56.2455C349.582,-47.5731 327.3957,-34.7645 310.179,-24.825"/>
<polygon fill="#191970" stroke="#191970" points="311.6128,-21.6114 301.2025,-19.6427 308.1129,-27.6737 311.6128,-21.6114"/>
</g>
<!-- Node5 -->
<g id="node6" class="node">
<title>Node5</title>
<polygon fill="#ffffff" stroke="#bfbfbf" points="327,-.5 327,-19.5 374,-19.5 374,-.5 327,-.5"/>
<text text-anchor="middle" x="350.5" y="-7.5" font-family="Helvetica,sans-Serif" font-size="10.00" fill="#000000">vector</text>
</g>
<!-- Node1&#45;&gt;Node5 -->
<g id="edge5" class="edge">
<title>Node1&#45;&gt;Node5</title>
<path fill="none" stroke="#191970" d="M376.1002,-56.2455C371.8773,-48.617 365.8827,-37.7881 360.7559,-28.5267"/>
<polygon fill="#191970" stroke="#191970" points="363.7432,-26.6965 355.8379,-19.6427 357.619,-30.0867 363.7432,-26.6965"/>
</g>
<!-- Node6 -->
<g id="node7" class="node">
<title>Node6</title>
<polygon fill="#ffffff" stroke="#bfbfbf" points="392.5,-.5 392.5,-19.5 430.5,-19.5 430.5,-.5 392.5,-.5"/>
<text text-anchor="middle" x="411.5" y="-7.5" font-family="Helvetica,sans-Serif" font-size="10.00" fill="#000000">map</text>
</g>
<!-- Node1&#45;&gt;Node6 -->
<g id="edge6" class="edge">
<title>Node1&#45;&gt;Node6</title>
<path fill="none" stroke="#191970" d="M386.7256,-56.2455C390.8123,-48.617 396.6135,-37.7881 401.575,-28.5267"/>
<polygon fill="#191970" stroke="#191970" points="404.6972,-30.1103 406.3343,-19.6427 398.5268,-26.8047 404.6972,-30.1103"/>
</g>
<!-- Node7 -->
<g id="node8" class="node">
<title>Node7</title>
<polygon fill="#ffffff" stroke="#bfbfbf" points="448.5,-.5 448.5,-19.5 492.5,-19.5 492.5,-.5 448.5,-.5"/>
<text text-anchor="middle" x="470.5" y="-7.5" font-family="Helvetica,sans-Serif" font-size="10.00" fill="#000000">string</text>
</g>
<!-- Node1&#45;&gt;Node7 -->
<g id="edge7" class="edge">
<title>Node1&#45;&gt;Node7</title>
<path fill="none" stroke="#191970" d="M397.0026,-56.2455C410.658,-47.6534 430.7657,-35.0014 446.4989,-25.1018"/>
<polygon fill="#191970" stroke="#191970" points="448.5751,-27.9307 455.175,-19.6427 444.8471,-22.006 448.5751,-27.9307"/>
</g>
<!-- Node8 -->
<g id="node9" class="node">
<title>Node8</title>
<polygon fill="#ffffff" stroke="#bfbfbf" points="510.5,-.5 510.5,-19.5 574.5,-19.5 574.5,-.5 510.5,-.5"/>
<text text-anchor="middle" x="542.5" y="-7.5" font-family="Helvetica,sans-Serif" font-size="10.00" fill="#000000">algorithm</text>
</g>
<!-- Node1&#45;&gt;Node8 -->
<g id="edge8" class="edge">
<title>Node1&#45;&gt;Node8</title>
<path fill="none" stroke="#191970" d="M409.1769,-56.3733C435.8328,-47.1016 476.3238,-33.0178 505.6884,-22.804"/>
<polygon fill="#191970" stroke="#191970" points="506.8891,-26.0921 515.1843,-19.5011 504.5895,-19.4807 506.8891,-26.0921"/>
</g>
<!-- Node9 -->
<g id="node10" class="node">
<title>Node9</title>
<polygon fill="#ffffff" stroke="#bfbfbf" points="592.5,-.5 592.5,-19.5 650.5,-19.5 650.5,-.5 592.5,-.5"/>
<text text-anchor="middle" x="621.5" y="-7.5" font-family="Helvetica,sans-Serif" font-size="10.00" fill="#000000">memory</text>
</g>
<!-- Node1&#45;&gt;Node9 -->
<g id="edge9" class="edge">
<title>Node1&#45;&gt;Node9</title>
<path fill="none" stroke="#191970" d="M425.3379,-56.4602C464.1605,-47.9125 522.6132,-34.8017 582.4723,-20.1963"/>
<polygon fill="#191970" stroke="#191970" points="583.6,-23.5236 592.4793,-17.7437 581.9336,-16.7248 583.6,-23.5236"/>
</g>
<!-- Node11 -->
<g id="node12" class="node">
<title>Node11</title>
<g id="a_node12"><a xlink:href="fmt_8h.html" target="_top" xlink:title="Wrapper for either system&#45;installed or local headers for fmt. ">
<polygon fill="#ffffff" stroke="#000000" points="177,-112.5 177,-131.5 286,-131.5 286,-112.5 177,-112.5"/>
<text text-anchor="middle" x="231.5" y="-119.5" font-family="Helvetica,sans-Serif" font-size="10.00" fill="#000000">cantera/base/fmt.h</text>
</a>
</g>
</g>
<!-- Node10&#45;&gt;Node11 -->
<g id="edge11" class="edge">
<title>Node10&#45;&gt;Node11</title>
<path fill="none" stroke="#191970" d="M158.6842,-224.3622C141.9885,-211.4906 117.6398,-187.9883 130.5,-168 140.6157,-152.2774 157.5731,-141.8649 174.7324,-134.996"/>
<polygon fill="#191970" stroke="#191970" points="176.0447,-138.243 184.244,-131.5332 173.65,-131.6653 176.0447,-138.243"/>
</g>
<!-- Node14 -->
<g id="node15" class="node">
<title>Node14</title>
<polygon fill="#ffffff" stroke="#bfbfbf" points="140,-168.5 140,-187.5 205,-187.5 205,-168.5 140,-168.5"/>
<text text-anchor="middle" x="172.5" y="-175.5" font-family="Helvetica,sans-Serif" font-size="10.00" fill="#000000">exception</text>
</g>
<!-- Node10&#45;&gt;Node14 -->
<g id="edge15" class="edge">
<title>Node10&#45;&gt;Node14</title>
<path fill="none" stroke="#191970" d="M172.5,-224.2455C172.5,-216.9382 172.5,-206.6944 172.5,-197.7046"/>
<polygon fill="#191970" stroke="#191970" points="176.0001,-197.6426 172.5,-187.6427 169.0001,-197.6427 176.0001,-197.6426"/>
</g>
<!-- Node11&#45;&gt;Node1 -->
<g id="edge12" class="edge">
<title>Node11&#45;&gt;Node1</title>
<path fill="none" stroke="#191970" d="M257.2859,-112.3733C281.9047,-103.1822 319.19,-89.2624 346.4875,-79.0713"/>
<polygon fill="#191970" stroke="#191970" points="347.9063,-82.2777 356.0506,-75.5011 345.458,-75.7198 347.9063,-82.2777"/>
</g>
<!-- Node12 -->
<g id="node13" class="node">
<title>Node12</title>
<polygon fill="#ffffff" stroke="#bfbfbf" points="163,-56.5 163,-75.5 300,-75.5 300,-56.5 163,-56.5"/>
<text text-anchor="middle" x="231.5" y="-63.5" font-family="Helvetica,sans-Serif" font-size="10.00" fill="#000000">cantera/ext/fmt/format.h</text>
</g>
<!-- Node11&#45;&gt;Node12 -->
<g id="edge13" class="edge">
<title>Node11&#45;&gt;Node12</title>
<path fill="none" stroke="#191970" d="M231.5,-112.2455C231.5,-104.9382 231.5,-94.6944 231.5,-85.7046"/>
<polygon fill="#191970" stroke="#191970" points="235.0001,-85.6426 231.5,-75.6427 228.0001,-85.6427 235.0001,-85.6426"/>
</g>
<!-- Node13 -->
<g id="node14" class="node">
<title>Node13</title>
<polygon fill="#ffffff" stroke="#bfbfbf" points="0,-56.5 0,-75.5 145,-75.5 145,-56.5 0,-56.5"/>
<text text-anchor="middle" x="72.5" y="-63.5" font-family="Helvetica,sans-Serif" font-size="10.00" fill="#000000">cantera/ext/fmt/ostream.h</text>
</g>
<!-- Node11&#45;&gt;Node13 -->
<g id="edge14" class="edge">
<title>Node11&#45;&gt;Node13</title>
<path fill="none" stroke="#191970" d="M204.1669,-112.3733C177.9566,-103.1419 138.2016,-89.1402 109.2332,-78.9375"/>
<polygon fill="#191970" stroke="#191970" points="110.0712,-75.5219 99.4764,-75.5011 107.7458,-82.1244 110.0712,-75.5219"/>
</g>
<!-- Node15&#45;&gt;Node1 -->
<g id="edge17" class="edge">
<title>Node15&#45;&gt;Node1</title>
<path fill="none" stroke="#191970" d="M381.5,-224.4862C381.5,-197.9293 381.5,-122.5651 381.5,-86.1655"/>
<polygon fill="#191970" stroke="#191970" points="385.0001,-85.8278 381.5,-75.8279 378.0001,-85.8279 385.0001,-85.8278"/>
</g>
<!-- Node16 -->
<g id="node17" class="node">
<title>Node16</title>
<g id="a_node17"><a xlink:href="global_8h.html" target="_top" xlink:title="This file contains definitions for utility functions and text for modules, inputfiles, logs, textlogs, (see Input File Handling, Diagnostic Output, and Writing messages to the screen). ">
<polygon fill="#ffffff" stroke="#000000" points="223.5,-168.5 223.5,-187.5 279.5,-187.5 279.5,-168.5 223.5,-168.5"/>
<text text-anchor="middle" x="251.5" y="-175.5" font-family="Helvetica,sans-Serif" font-size="10.00" fill="#000000">global.h</text>
</a>
</g>
</g>
<!-- Node15&#45;&gt;Node16 -->
<g id="edge18" class="edge">
<title>Node15&#45;&gt;Node16</title>
<path fill="none" stroke="#191970" d="M359.1522,-224.3733C338.0967,-215.3032 306.3505,-201.6279 282.7825,-191.4755"/>
<polygon fill="#191970" stroke="#191970" points="284.125,-188.243 273.5562,-187.5011 281.3556,-194.6719 284.125,-188.243"/>
</g>
<!-- Node17 -->
<g id="node18" class="node">
<title>Node17</title>
<polygon fill="#ffffff" stroke="#bfbfbf" points="410,-168.5 410,-187.5 475,-187.5 475,-168.5 410,-168.5"/>
<text text-anchor="middle" x="442.5" y="-175.5" font-family="Helvetica,sans-Serif" font-size="10.00" fill="#000000">stdexcept</text>
</g>
<!-- Node15&#45;&gt;Node17 -->
<g id="edge21" class="edge">
<title>Node15&#45;&gt;Node17</title>
<path fill="none" stroke="#191970" d="M392.1254,-224.2455C401.0473,-216.0549 413.988,-204.1749 424.5192,-194.5069"/>
<polygon fill="#191970" stroke="#191970" points="426.9968,-196.9837 431.9964,-187.6427 422.2629,-191.8271 426.9968,-196.9837"/>
</g>
<!-- Node18 -->
<g id="node19" class="node">
<title>Node18</title>
<polygon fill="#ffffff" stroke="#bfbfbf" points="297.5,-168.5 297.5,-187.5 353.5,-187.5 353.5,-168.5 297.5,-168.5"/>
<text text-anchor="middle" x="325.5" y="-175.5" font-family="Helvetica,sans-Serif" font-size="10.00" fill="#000000">numeric</text>
</g>
<!-- Node15&#45;&gt;Node18 -->
<g id="edge22" class="edge">
<title>Node15&#45;&gt;Node18</title>
<path fill="none" stroke="#191970" d="M371.7455,-224.2455C363.6352,-216.1352 351.9075,-204.4075 342.2919,-194.7919"/>
<polygon fill="#191970" stroke="#191970" points="344.6887,-192.2389 335.1427,-187.6427 339.7389,-197.1887 344.6887,-192.2389"/>
</g>
<!-- Node16&#45;&gt;Node1 -->
<g id="edge19" class="edge">
<title>Node16&#45;&gt;Node1</title>
<path fill="none" stroke="#191970" d="M262.5837,-168.4509C284.8418,-149.2747 335.1919,-105.8962 362.6978,-82.1988"/>
<polygon fill="#191970" stroke="#191970" points="365.1527,-84.7036 370.4443,-75.5249 360.5837,-79.4004 365.1527,-84.7036"/>
</g>
<!-- Node16&#45;&gt;Node11 -->
<g id="edge20" class="edge">
<title>Node16&#45;&gt;Node11</title>
<path fill="none" stroke="#191970" d="M248.0163,-168.2455C245.3492,-160.7776 241.5867,-150.2427 238.3263,-141.1137"/>
<polygon fill="#191970" stroke="#191970" points="241.6033,-139.8829 234.9438,-131.6427 235.0111,-142.2373 241.6033,-139.8829"/>
</g>
</g>
</svg>
