<?xml version="1.0" encoding="UTF-8" standalone="no"?>
<!DOCTYPE svg PUBLIC "-//W3C//DTD SVG 1.1//EN"
 "http://www.w3.org/Graphics/SVG/1.1/DTD/svg11.dtd">
<!-- Generated by graphviz version 2.36.0 (20140111.2315)
 -->
<!-- Title: ResidJacEval.cpp Pages: 1 -->
<svg width="474pt" height="264pt"
 viewBox="0.00 0.00 474.00 264.00" xmlns="http://www.w3.org/2000/svg" xmlns:xlink="http://www.w3.org/1999/xlink">
<g id="graph0" class="graph" transform="scale(1 1) rotate(0) translate(4 260)">
<title>ResidJacEval.cpp</title>
<polygon fill="white" stroke="none" points="-4,4 -4,-260 470,-260 470,4 -4,4"/>
<!-- Node1 -->
<g id="node1" class="node"><title>Node1</title>
<polygon fill="#bfbfbf" stroke="black" points="185,-236.5 185,-255.5 277,-255.5 277,-236.5 185,-236.5"/>
<text text-anchor="middle" x="231" y="-243.5" font-family="FreeSans" font-size="10.00">ResidJacEval.cpp</text>
</g>
<!-- Node2 -->
<g id="node2" class="node"><title>Node2</title>
<g id="a_node2"><a xlink:href="ct__defs_8h.html" target="_top" xlink:title="This file contains definitions of terms that are used in internal routines and are unlikely to need m...">
<polygon fill="white" stroke="black" points="136,-56.5 136,-75.5 250,-75.5 250,-56.5 136,-56.5"/>
<text text-anchor="middle" x="193" y="-63.5" font-family="FreeSans" font-size="10.00">cantera/base/ct_defs.h</text>
</a>
</g>
</g>
<!-- Node1&#45;&gt;Node2 -->
<g id="edge1" class="edge"><title>Node1&#45;&gt;Node2</title>
<path fill="none" stroke="midnightblue" d="M223.817,-236.341C217.123,-227.722 207.516,-213.819 203,-200 190.219,-160.887 190.364,-111.989 191.648,-85.7371"/>
<polygon fill="midnightblue" stroke="midnightblue" points="195.146,-85.8681 192.254,-75.6755 188.159,-85.4468 195.146,-85.8681"/>
</g>
<!-- Node9 -->
<g id="node9" class="node"><title>Node9</title>
<g id="a_node9"><a xlink:href="ResidJacEval_8h.html" target="_top" xlink:title="Dense, Square (not sparse) matrices. ">
<polygon fill="white" stroke="black" points="212,-169 212,-199 346,-199 346,-169 212,-169"/>
<text text-anchor="start" x="220" y="-187" font-family="FreeSans" font-size="10.00">cantera/numerics/ResidJac</text>
<text text-anchor="middle" x="279" y="-176" font-family="FreeSans" font-size="10.00">Eval.h</text>
</a>
</g>
</g>
<!-- Node1&#45;&gt;Node9 -->
<g id="edge8" class="edge"><title>Node1&#45;&gt;Node9</title>
<path fill="none" stroke="midnightblue" d="M237.877,-236.403C243.953,-228.809 253.083,-217.396 261.199,-207.252"/>
<polygon fill="midnightblue" stroke="midnightblue" points="264.173,-209.136 267.687,-199.141 258.707,-204.763 264.173,-209.136"/>
</g>
<!-- Node3 -->
<g id="node3" class="node"><title>Node3</title>
<g id="a_node3"><a xlink:href="config_8h_source.html" target="_top" xlink:title="config.h">
<polygon fill="white" stroke="black" points="239,-0.5 239,-19.5 289,-19.5 289,-0.5 239,-0.5"/>
<text text-anchor="middle" x="264" y="-7.5" font-family="FreeSans" font-size="10.00">config.h</text>
</a>
</g>
</g>
<!-- Node2&#45;&gt;Node3 -->
<g id="edge2" class="edge"><title>Node2&#45;&gt;Node3</title>
<path fill="none" stroke="midnightblue" d="M204.407,-56.324C215.109,-48.1849 231.341,-35.8395 244.163,-26.0874"/>
<polygon fill="midnightblue" stroke="midnightblue" points="246.544,-28.6734 252.385,-19.8339 242.307,-23.1018 246.544,-28.6734"/>
</g>
<!-- Node4 -->
<g id="node4" class="node"><title>Node4</title>
<polygon fill="white" stroke="#bfbfbf" points="0,-0.5 0,-19.5 44,-19.5 44,-0.5 0,-0.5"/>
<text text-anchor="middle" x="22" y="-7.5" font-family="FreeSans" font-size="10.00">cmath</text>
</g>
<!-- Node2&#45;&gt;Node4 -->
<g id="edge3" class="edge"><title>Node2&#45;&gt;Node4</title>
<path fill="none" stroke="midnightblue" d="M165.905,-56.4435C135.482,-46.8366 86.1637,-31.2622 53.9038,-21.0749"/>
<polygon fill="midnightblue" stroke="midnightblue" points="54.6646,-17.6448 44.0748,-17.971 52.5566,-24.3199 54.6646,-17.6448"/>
</g>
<!-- Node5 -->
<g id="node5" class="node"><title>Node5</title>
<polygon fill="white" stroke="#bfbfbf" points="62,-0.5 62,-19.5 106,-19.5 106,-0.5 62,-0.5"/>
<text text-anchor="middle" x="84" y="-7.5" font-family="FreeSans" font-size="10.00">cstdlib</text>
</g>
<!-- Node2&#45;&gt;Node5 -->
<g id="edge4" class="edge"><title>Node2&#45;&gt;Node5</title>
<path fill="none" stroke="midnightblue" d="M175.487,-56.324C157.928,-47.6247 130.669,-34.1202 110.469,-24.113"/>
<polygon fill="midnightblue" stroke="midnightblue" points="111.984,-20.9575 101.469,-19.6545 108.876,-27.23 111.984,-20.9575"/>
</g>
<!-- Node6 -->
<g id="node6" class="node"><title>Node6</title>
<polygon fill="white" stroke="#bfbfbf" points="124.5,-0.5 124.5,-19.5 167.5,-19.5 167.5,-0.5 124.5,-0.5"/>
<text text-anchor="middle" x="146" y="-7.5" font-family="FreeSans" font-size="10.00">vector</text>
</g>
<!-- Node2&#45;&gt;Node6 -->
<g id="edge5" class="edge"><title>Node2&#45;&gt;Node6</title>
<path fill="none" stroke="midnightblue" d="M185.239,-56.083C178.463,-48.2982 168.457,-36.8015 160.245,-27.3665"/>
<polygon fill="midnightblue" stroke="midnightblue" points="162.822,-24.9963 153.617,-19.7511 157.542,-29.592 162.822,-24.9963"/>
</g>
<!-- Node7 -->
<g id="node7" class="node"><title>Node7</title>
<polygon fill="white" stroke="#bfbfbf" points="185.5,-0.5 185.5,-19.5 220.5,-19.5 220.5,-0.5 185.5,-0.5"/>
<text text-anchor="middle" x="203" y="-7.5" font-family="FreeSans" font-size="10.00">map</text>
</g>
<!-- Node2&#45;&gt;Node7 -->
<g id="edge6" class="edge"><title>Node2&#45;&gt;Node7</title>
<path fill="none" stroke="midnightblue" d="M194.651,-56.083C195.976,-48.9272 197.882,-38.6353 199.539,-29.6911"/>
<polygon fill="midnightblue" stroke="midnightblue" points="203,-30.2212 201.379,-19.7511 196.117,-28.9466 203,-30.2212"/>
</g>
<!-- Node8 -->
<g id="node8" class="node"><title>Node8</title>
<polygon fill="white" stroke="#bfbfbf" points="307,-0.5 307,-19.5 347,-19.5 347,-0.5 307,-0.5"/>
<text text-anchor="middle" x="327" y="-7.5" font-family="FreeSans" font-size="10.00">string</text>
</g>
<!-- Node2&#45;&gt;Node8 -->
<g id="edge7" class="edge"><title>Node2&#45;&gt;Node8</title>
<path fill="none" stroke="midnightblue" d="M214.233,-56.4435C236.644,-47.4121 272.143,-33.1067 297.318,-22.9612"/>
<polygon fill="midnightblue" stroke="midnightblue" points="298.777,-26.1471 306.744,-19.1629 296.16,-19.6545 298.777,-26.1471"/>
</g>
<!-- Node10 -->
<g id="node10" class="node"><title>Node10</title>
<g id="a_node10"><a xlink:href="ResidEval_8h.html" target="_top" xlink:title="ResidEval.h">
<polygon fill="white" stroke="black" points="314,-112.5 314,-131.5 380,-131.5 380,-112.5 314,-112.5"/>
<text text-anchor="middle" x="347" y="-119.5" font-family="FreeSans" font-size="10.00">ResidEval.h</text>
</a>
</g>
</g>
<!-- Node9&#45;&gt;Node10 -->
<g id="edge9" class="edge"><title>Node9&#45;&gt;Node10</title>
<path fill="none" stroke="midnightblue" d="M295.115,-168.781C305.404,-159.703 318.747,-147.929 329.326,-138.595"/>
<polygon fill="midnightblue" stroke="midnightblue" points="331.923,-140.971 337.105,-131.731 327.291,-135.722 331.923,-140.971"/>
</g>
<!-- Node14 -->
<g id="node14" class="node"><title>Node14</title>
<g id="a_node14"><a xlink:href="GeneralMatrix_8h.html" target="_top" xlink:title="Declarations for the class GeneralMatrix which is a virtual base class for matrices handled by solver...">
<polygon fill="white" stroke="black" points="212,-112.5 212,-131.5 296,-131.5 296,-112.5 212,-112.5"/>
<text text-anchor="middle" x="254" y="-119.5" font-family="FreeSans" font-size="10.00">GeneralMatrix.h</text>
</a>
</g>
</g>
<!-- Node9&#45;&gt;Node14 -->
<g id="edge15" class="edge"><title>Node9&#45;&gt;Node14</title>
<path fill="none" stroke="midnightblue" d="M273.075,-168.781C269.63,-160.512 265.252,-150.006 261.56,-141.145"/>
<polygon fill="midnightblue" stroke="midnightblue" points="264.715,-139.615 257.638,-131.731 258.253,-142.307 264.715,-139.615"/>
</g>
<!-- Node10&#45;&gt;Node2 -->
<g id="edge10" class="edge"><title>Node10&#45;&gt;Node2</title>
<path fill="none" stroke="midnightblue" d="M322.598,-112.444C296.803,-103.399 255.923,-89.064 226.982,-78.9158"/>
<polygon fill="midnightblue" stroke="midnightblue" points="227.882,-75.5226 217.288,-75.5164 225.566,-82.1283 227.882,-75.5226"/>
</g>
<!-- Node11 -->
<g id="node11" class="node"><title>Node11</title>
<g id="a_node11"><a xlink:href="ctexceptions_8h.html" target="_top" xlink:title="Definitions for the classes that are thrown when Cantera experiences an error condition (also contain...">
<polygon fill="white" stroke="black" points="268.5,-56.5 268.5,-75.5 405.5,-75.5 405.5,-56.5 268.5,-56.5"/>
<text text-anchor="middle" x="337" y="-63.5" font-family="FreeSans" font-size="10.00">cantera/base/ctexceptions.h</text>
</a>
</g>
</g>
<!-- Node10&#45;&gt;Node11 -->
<g id="edge11" class="edge"><title>Node10&#45;&gt;Node11</title>
<path fill="none" stroke="midnightblue" d="M345.349,-112.083C344.024,-104.927 342.118,-94.6353 340.461,-85.6911"/>
<polygon fill="midnightblue" stroke="midnightblue" points="343.883,-84.9466 338.621,-75.7511 337,-86.2212 343.883,-84.9466"/>
</g>
<!-- Node13 -->
<g id="node13" class="node"><title>Node13</title>
<polygon fill="white" stroke="#bfbfbf" points="424,-56.5 424,-75.5 466,-75.5 466,-56.5 424,-56.5"/>
<text text-anchor="middle" x="445" y="-63.5" font-family="FreeSans" font-size="10.00">cstdio</text>
</g>
<!-- Node10&#45;&gt;Node13 -->
<g id="edge14" class="edge"><title>Node10&#45;&gt;Node13</title>
<path fill="none" stroke="midnightblue" d="M362.745,-112.324C378.319,-103.743 402.377,-90.486 420.459,-80.5224"/>
<polygon fill="midnightblue" stroke="midnightblue" points="422.224,-83.546 429.294,-75.6545 418.846,-77.4152 422.224,-83.546"/>
</g>
<!-- Node11&#45;&gt;Node8 -->
<g id="edge13" class="edge"><title>Node11&#45;&gt;Node8</title>
<path fill="none" stroke="midnightblue" d="M335.349,-56.083C334.024,-48.9272 332.118,-38.6353 330.461,-29.6911"/>
<polygon fill="midnightblue" stroke="midnightblue" points="333.883,-28.9466 328.621,-19.7511 327,-30.2212 333.883,-28.9466"/>
</g>
<!-- Node12 -->
<g id="node12" class="node"><title>Node12</title>
<polygon fill="white" stroke="#bfbfbf" points="365,-0.5 365,-19.5 423,-19.5 423,-0.5 365,-0.5"/>
<text text-anchor="middle" x="394" y="-7.5" font-family="FreeSans" font-size="10.00">exception</text>
</g>
<!-- Node11&#45;&gt;Node12 -->
<g id="edge12" class="edge"><title>Node11&#45;&gt;Node12</title>
<path fill="none" stroke="midnightblue" d="M346.158,-56.324C354.501,-48.4196 367.032,-36.5482 377.177,-26.9377"/>
<polygon fill="midnightblue" stroke="midnightblue" points="379.823,-29.2522 384.675,-19.8339 375.009,-24.1705 379.823,-29.2522"/>
</g>
<!-- Node14&#45;&gt;Node2 -->
<g id="edge16" class="edge"><title>Node14&#45;&gt;Node2</title>
<path fill="none" stroke="midnightblue" d="M244.199,-112.324C235.182,-104.341 221.594,-92.3128 210.682,-82.6529"/>
<polygon fill="midnightblue" stroke="midnightblue" points="212.787,-79.8416 202.979,-75.8339 208.147,-85.083 212.787,-79.8416"/>
</g>
<!-- Node14&#45;&gt;Node11 -->
<g id="edge17" class="edge"><title>Node14&#45;&gt;Node11</title>
<path fill="none" stroke="midnightblue" d="M267.335,-112.324C280.162,-103.979 299.785,-91.2122 314.94,-81.3524"/>
<polygon fill="midnightblue" stroke="midnightblue" points="317.224,-84.0417 323.698,-75.6545 313.407,-78.1742 317.224,-84.0417"/>
</g>
</g>
</svg>
