<?xml version="1.0" encoding="UTF-8" standalone="no"?>
<!DOCTYPE svg PUBLIC "-//W3C//DTD SVG 1.1//EN"
 "http://www.w3.org/Graphics/SVG/1.1/DTD/svg11.dtd">
<!-- Generated by graphviz version 2.38.0 (20140413.2041)
 -->
<!-- Title: RootFind.cpp Pages: 1 -->
<svg width="642pt" height="420pt"
 viewBox="0.00 0.00 641.50 420.00" xmlns="http://www.w3.org/2000/svg" xmlns:xlink="http://www.w3.org/1999/xlink">
<g id="graph0" class="graph" transform="scale(1 1) rotate(0) translate(4 416)">
<title>RootFind.cpp</title>
<polygon fill="white" stroke="none" points="-4,4 -4,-416 637.5,-416 637.5,4 -4,4"/>
<!-- Node1 -->
<g id="node1" class="node"><title>Node1</title>
<polygon fill="#bfbfbf" stroke="black" points="350,-392.5 350,-411.5 425,-411.5 425,-392.5 350,-392.5"/>
<text text-anchor="middle" x="387.5" y="-399.5" font-family="Helvetica,sans-Serif" font-size="10.00">RootFind.cpp</text>
</g>
<!-- Node2 -->
<g id="node2" class="node"><title>Node2</title>
<g id="a_node2"><a xlink:href="RootFind_8h.html" target="_top" xlink:title="Header file for implicit nonlinear solver of a one dimensional function (see Numerical Utilities with...">
<polygon fill="white" stroke="black" points="416,-336.5 416,-355.5 559,-355.5 559,-336.5 416,-336.5"/>
<text text-anchor="middle" x="487.5" y="-343.5" font-family="Helvetica,sans-Serif" font-size="10.00">cantera/numerics/RootFind.h</text>
</a>
</g>
</g>
<!-- Node1&#45;&gt;Node2 -->
<g id="edge1" class="edge"><title>Node1&#45;&gt;Node2</title>
<path fill="none" stroke="midnightblue" d="M403.567,-392.324C419.458,-383.743 444.007,-370.486 462.458,-360.522"/>
<polygon fill="midnightblue" stroke="midnightblue" points="464.337,-363.486 471.473,-355.655 461.011,-357.326 464.337,-363.486"/>
</g>
<!-- Node16 -->
<g id="node16" class="node"><title>Node16</title>
<g id="a_node16"><a xlink:href="utilities_8h.html" target="_top" xlink:title="Various templated functions that carry out common vector operations (see Templated Utility Functions)...">
<polygon fill="white" stroke="black" points="382,-224.5 382,-243.5 497,-243.5 497,-224.5 382,-224.5"/>
<text text-anchor="middle" x="439.5" y="-231.5" font-family="Helvetica,sans-Serif" font-size="10.00">cantera/base/utilities.h</text>
</a>
</g>
</g>
<!-- Node1&#45;&gt;Node16 -->
<g id="edge24" class="edge"><title>Node1&#45;&gt;Node16</title>
<path fill="none" stroke="midnightblue" d="M389.994,-392.142C393.545,-379.608 400.314,-355.992 406.5,-336 415.472,-307.005 426.542,-273.561 433.308,-253.363"/>
<polygon fill="midnightblue" stroke="midnightblue" points="436.715,-254.212 436.583,-243.617 430.08,-251.982 436.715,-254.212"/>
</g>
<!-- Node21 -->
<g id="node21" class="node"><title>Node21</title>
<g id="a_node21"><a xlink:href="stringUtils_8h.html" target="_top" xlink:title="Contains declarations for string manipulation functions within Cantera. ">
<polygon fill="white" stroke="black" points="89.5,-168.5 89.5,-187.5 217.5,-187.5 217.5,-168.5 89.5,-168.5"/>
<text text-anchor="middle" x="153.5" y="-175.5" font-family="Helvetica,sans-Serif" font-size="10.00">cantera/base/stringUtils.h</text>
</a>
</g>
</g>
<!-- Node1&#45;&gt;Node21 -->
<g id="edge25" class="edge"><title>Node1&#45;&gt;Node21</title>
<path fill="none" stroke="midnightblue" d="M377.491,-392.416C350.527,-369.186 274.361,-302.868 214.5,-244 198.052,-227.825 180.077,-208.449 167.93,-195.083"/>
<polygon fill="midnightblue" stroke="midnightblue" points="170.487,-192.693 161.185,-187.62 165.294,-197.386 170.487,-192.693"/>
</g>
<!-- Node3 -->
<g id="node3" class="node"><title>Node3</title>
<g id="a_node3"><a xlink:href="ResidEval_8h.html" target="_top" xlink:title="ResidEval.h">
<polygon fill="white" stroke="black" points="452.5,-280.5 452.5,-299.5 522.5,-299.5 522.5,-280.5 452.5,-280.5"/>
<text text-anchor="middle" x="487.5" y="-287.5" font-family="Helvetica,sans-Serif" font-size="10.00">ResidEval.h</text>
</a>
</g>
</g>
<!-- Node2&#45;&gt;Node3 -->
<g id="edge2" class="edge"><title>Node2&#45;&gt;Node3</title>
<path fill="none" stroke="midnightblue" d="M487.5,-336.083C487.5,-329.006 487.5,-318.861 487.5,-309.986"/>
<polygon fill="midnightblue" stroke="midnightblue" points="491,-309.751 487.5,-299.751 484,-309.751 491,-309.751"/>
</g>
<!-- Node4 -->
<g id="node4" class="node"><title>Node4</title>
<g id="a_node4"><a xlink:href="ct__defs_8h.html" target="_top" xlink:title="This file contains definitions of terms that are used in internal routines and are unlikely to need m...">
<polygon fill="white" stroke="black" points="318.5,-56.5 318.5,-75.5 434.5,-75.5 434.5,-56.5 318.5,-56.5"/>
<text text-anchor="middle" x="376.5" y="-63.5" font-family="Helvetica,sans-Serif" font-size="10.00">cantera/base/ct_defs.h</text>
</a>
</g>
</g>
<!-- Node3&#45;&gt;Node4 -->
<g id="edge3" class="edge"><title>Node3&#45;&gt;Node4</title>
<path fill="none" stroke="midnightblue" d="M509.945,-280.482C527.185,-273.014 550.652,-260.73 566.5,-244 591.256,-217.867 613.879,-198.336 594.5,-168 561.133,-115.767 493.054,-90.142 441.801,-77.8345"/>
<polygon fill="midnightblue" stroke="midnightblue" points="442.319,-74.3626 431.79,-75.5466 440.759,-81.1866 442.319,-74.3626"/>
</g>
<!-- Node13 -->
<g id="node13" class="node"><title>Node13</title>
<g id="a_node13"><a xlink:href="ctexceptions_8h.html" target="_top" xlink:title="Definitions for the classes that are thrown when Cantera experiences an error condition (also contain...">
<polygon fill="white" stroke="black" points="223.5,-224.5 223.5,-243.5 363.5,-243.5 363.5,-224.5 223.5,-224.5"/>
<text text-anchor="middle" x="293.5" y="-231.5" font-family="Helvetica,sans-Serif" font-size="10.00">cantera/base/ctexceptions.h</text>
</a>
</g>
</g>
<!-- Node3&#45;&gt;Node13 -->
<g id="edge12" class="edge"><title>Node3&#45;&gt;Node13</title>
<path fill="none" stroke="midnightblue" d="M456.76,-280.444C423.556,-271.201 370.509,-256.436 333.943,-246.257"/>
<polygon fill="midnightblue" stroke="midnightblue" points="334.668,-242.826 324.096,-243.516 332.791,-249.57 334.668,-242.826"/>
</g>
<!-- Node3&#45;&gt;Node16 -->
<g id="edge16" class="edge"><title>Node3&#45;&gt;Node16</title>
<path fill="none" stroke="midnightblue" d="M479.574,-280.083C472.654,-272.298 462.435,-260.801 454.048,-251.367"/>
<polygon fill="midnightblue" stroke="midnightblue" points="456.538,-248.9 447.279,-243.751 451.306,-253.55 456.538,-248.9"/>
</g>
<!-- Node20 -->
<g id="node20" class="node"><title>Node20</title>
<polygon fill="white" stroke="#bfbfbf" points="515,-224.5 515,-243.5 558,-243.5 558,-224.5 515,-224.5"/>
<text text-anchor="middle" x="536.5" y="-231.5" font-family="Helvetica,sans-Serif" font-size="10.00">cstdio</text>
</g>
<!-- Node3&#45;&gt;Node20 -->
<g id="edge23" class="edge"><title>Node3&#45;&gt;Node20</title>
<path fill="none" stroke="midnightblue" d="M495.591,-280.083C502.655,-272.298 513.088,-260.801 521.649,-251.367"/>
<polygon fill="midnightblue" stroke="midnightblue" points="524.431,-253.509 528.559,-243.751 519.247,-248.805 524.431,-253.509"/>
</g>
<!-- Node5 -->
<g id="node5" class="node"><title>Node5</title>
<g id="a_node5"><a xlink:href="config_8h_source.html" target="_top" xlink:title="config.h">
<polygon fill="white" stroke="black" points="394,-0.5 394,-19.5 445,-19.5 445,-0.5 394,-0.5"/>
<text text-anchor="middle" x="419.5" y="-7.5" font-family="Helvetica,sans-Serif" font-size="10.00">config.h</text>
</a>
</g>
</g>
<!-- Node4&#45;&gt;Node5 -->
<g id="edge4" class="edge"><title>Node4&#45;&gt;Node5</title>
<path fill="none" stroke="midnightblue" d="M383.601,-56.083C389.737,-48.3768 398.77,-37.0333 406.239,-27.6531"/>
<polygon fill="midnightblue" stroke="midnightblue" points="409.04,-29.7542 412.532,-19.7511 403.564,-25.3936 409.04,-29.7542"/>
</g>
<!-- Node6 -->
<g id="node6" class="node"><title>Node6</title>
<polygon fill="white" stroke="#bfbfbf" points="463.5,-0.5 463.5,-19.5 507.5,-19.5 507.5,-0.5 463.5,-0.5"/>
<text text-anchor="middle" x="485.5" y="-7.5" font-family="Helvetica,sans-Serif" font-size="10.00">cmath</text>
</g>
<!-- Node4&#45;&gt;Node6 -->
<g id="edge5" class="edge"><title>Node4&#45;&gt;Node6</title>
<path fill="none" stroke="midnightblue" d="M394.013,-56.324C411.572,-47.6247 438.831,-34.1202 459.031,-24.113"/>
<polygon fill="midnightblue" stroke="midnightblue" points="460.624,-27.23 468.031,-19.6545 457.516,-20.9575 460.624,-27.23"/>
</g>
<!-- Node7 -->
<g id="node7" class="node"><title>Node7</title>
<polygon fill="white" stroke="#bfbfbf" points="526,-0.5 526,-19.5 571,-19.5 571,-0.5 526,-0.5"/>
<text text-anchor="middle" x="548.5" y="-7.5" font-family="Helvetica,sans-Serif" font-size="10.00">cstdlib</text>
</g>
<!-- Node4&#45;&gt;Node7 -->
<g id="edge6" class="edge"><title>Node4&#45;&gt;Node7</title>
<path fill="none" stroke="midnightblue" d="M403.754,-56.4435C434.183,-46.8902 483.407,-31.436 515.864,-21.2461"/>
<polygon fill="midnightblue" stroke="midnightblue" points="517.275,-24.4716 525.768,-18.1368 515.179,-17.793 517.275,-24.4716"/>
</g>
<!-- Node8 -->
<g id="node8" class="node"><title>Node8</title>
<polygon fill="white" stroke="#bfbfbf" points="589.5,-0.5 589.5,-19.5 633.5,-19.5 633.5,-0.5 589.5,-0.5"/>
<text text-anchor="middle" x="611.5" y="-7.5" font-family="Helvetica,sans-Serif" font-size="10.00">vector</text>
</g>
<!-- Node4&#45;&gt;Node8 -->
<g id="edge7" class="edge"><title>Node4&#45;&gt;Node8</title>
<path fill="none" stroke="midnightblue" d="M418.887,-56.494C458.179,-48.4206 518.465,-35.5578 579.413,-20.1574"/>
<polygon fill="midnightblue" stroke="midnightblue" points="580.371,-23.5252 589.197,-17.6643 578.642,-16.7419 580.371,-23.5252"/>
</g>
<!-- Node9 -->
<g id="node9" class="node"><title>Node9</title>
<polygon fill="white" stroke="#bfbfbf" points="196,-0.5 196,-19.5 231,-19.5 231,-0.5 196,-0.5"/>
<text text-anchor="middle" x="213.5" y="-7.5" font-family="Helvetica,sans-Serif" font-size="10.00">map</text>
</g>
<!-- Node4&#45;&gt;Node9 -->
<g id="edge8" class="edge"><title>Node4&#45;&gt;Node9</title>
<path fill="none" stroke="midnightblue" d="M350.675,-56.4739C325.185,-48.054 284.853,-34.7208 240.937,-20.1401"/>
<polygon fill="midnightblue" stroke="midnightblue" points="241.81,-16.7422 231.217,-16.9118 239.604,-23.3854 241.81,-16.7422"/>
</g>
<!-- Node10 -->
<g id="node10" class="node"><title>Node10</title>
<polygon fill="white" stroke="#bfbfbf" points="137,-0.5 137,-19.5 178,-19.5 178,-0.5 137,-0.5"/>
<text text-anchor="middle" x="157.5" y="-7.5" font-family="Helvetica,sans-Serif" font-size="10.00">string</text>
</g>
<!-- Node4&#45;&gt;Node10 -->
<g id="edge9" class="edge"><title>Node4&#45;&gt;Node10</title>
<path fill="none" stroke="midnightblue" d="M337.001,-56.472C300.541,-48.4163 244.692,-35.6147 187.906,-20.2567"/>
<polygon fill="midnightblue" stroke="midnightblue" points="188.613,-16.8218 178.044,-17.566 186.77,-23.575 188.613,-16.8218"/>
</g>
<!-- Node11 -->
<g id="node11" class="node"><title>Node11</title>
<polygon fill="white" stroke="#bfbfbf" points="249.5,-0.5 249.5,-19.5 305.5,-19.5 305.5,-0.5 249.5,-0.5"/>
<text text-anchor="middle" x="277.5" y="-7.5" font-family="Helvetica,sans-Serif" font-size="10.00">algorithm</text>
</g>
<!-- Node4&#45;&gt;Node11 -->
<g id="edge10" class="edge"><title>Node4&#45;&gt;Node11</title>
<path fill="none" stroke="midnightblue" d="M360.594,-56.324C344.862,-47.7428 320.558,-34.486 302.291,-24.5224"/>
<polygon fill="midnightblue" stroke="midnightblue" points="303.822,-21.3704 293.367,-19.6545 300.47,-27.5157 303.822,-21.3704"/>
</g>
<!-- Node12 -->
<g id="node12" class="node"><title>Node12</title>
<polygon fill="white" stroke="#bfbfbf" points="323.5,-0.5 323.5,-19.5 375.5,-19.5 375.5,-0.5 323.5,-0.5"/>
<text text-anchor="middle" x="349.5" y="-7.5" font-family="Helvetica,sans-Serif" font-size="10.00">memory</text>
</g>
<!-- Node4&#45;&gt;Node12 -->
<g id="edge11" class="edge"><title>Node4&#45;&gt;Node12</title>
<path fill="none" stroke="midnightblue" d="M372.041,-56.083C368.346,-48.6913 362.977,-37.9533 358.406,-28.8111"/>
<polygon fill="midnightblue" stroke="midnightblue" points="361.478,-27.1301 353.876,-19.7511 355.217,-30.2606 361.478,-27.1301"/>
</g>
<!-- Node14 -->
<g id="node14" class="node"><title>Node14</title>
<g id="a_node14"><a xlink:href="fmt_8h.html" target="_top" xlink:title="Wrapper for either system&#45;installed or local headers for fmt. ">
<polygon fill="white" stroke="red" points="246.5,-112.5 246.5,-131.5 344.5,-131.5 344.5,-112.5 246.5,-112.5"/>
<text text-anchor="middle" x="295.5" y="-119.5" font-family="Helvetica,sans-Serif" font-size="10.00">cantera/base/fmt.h</text>
</a>
</g>
</g>
<!-- Node13&#45;&gt;Node14 -->
<g id="edge13" class="edge"><title>Node13&#45;&gt;Node14</title>
<path fill="none" stroke="midnightblue" d="M285.244,-224.424C274.539,-212.223 257.966,-189.002 264.5,-168 267.729,-157.622 274.276,-147.521 280.525,-139.527"/>
<polygon fill="midnightblue" stroke="midnightblue" points="283.285,-141.682 287.017,-131.766 277.916,-137.19 283.285,-141.682"/>
</g>
<!-- Node15 -->
<g id="node15" class="node"><title>Node15</title>
<polygon fill="white" stroke="#bfbfbf" points="274,-168.5 274,-187.5 333,-187.5 333,-168.5 274,-168.5"/>
<text text-anchor="middle" x="303.5" y="-175.5" font-family="Helvetica,sans-Serif" font-size="10.00">exception</text>
</g>
<!-- Node13&#45;&gt;Node15 -->
<g id="edge15" class="edge"><title>Node13&#45;&gt;Node15</title>
<path fill="none" stroke="midnightblue" d="M295.151,-224.083C296.476,-216.927 298.382,-206.635 300.039,-197.691"/>
<polygon fill="midnightblue" stroke="midnightblue" points="303.5,-198.221 301.879,-187.751 296.617,-196.947 303.5,-198.221"/>
</g>
<!-- Node14&#45;&gt;Node4 -->
<g id="edge14" class="edge"><title>Node14&#45;&gt;Node4</title>
<path fill="none" stroke="midnightblue" d="M308.514,-112.324C321.032,-103.979 340.182,-91.2122 354.971,-81.3524"/>
<polygon fill="midnightblue" stroke="midnightblue" points="357.139,-84.1137 363.518,-75.6545 353.256,-78.2894 357.139,-84.1137"/>
</g>
<!-- Node16&#45;&gt;Node4 -->
<g id="edge17" class="edge"><title>Node16&#45;&gt;Node4</title>
<path fill="none" stroke="midnightblue" d="M436.113,-224.075C426.153,-197.832 396.821,-120.545 383.376,-85.1165"/>
<polygon fill="midnightblue" stroke="midnightblue" points="386.572,-83.6755 379.752,-75.5681 380.028,-86.1594 386.572,-83.6755"/>
</g>
<!-- Node17 -->
<g id="node17" class="node"><title>Node17</title>
<g id="a_node17"><a xlink:href="global_8h.html" target="_top" xlink:title="This file contains definitions for utility functions and text for modules, inputfiles, logs, textlogs, (see Input File Handling, Diagnostic Output, and Writing messages to the screen). ">
<polygon fill="white" stroke="black" points="351.5,-168.5 351.5,-187.5 401.5,-187.5 401.5,-168.5 351.5,-168.5"/>
<text text-anchor="middle" x="376.5" y="-175.5" font-family="Helvetica,sans-Serif" font-size="10.00">global.h</text>
</a>
</g>
</g>
<!-- Node16&#45;&gt;Node17 -->
<g id="edge18" class="edge"><title>Node16&#45;&gt;Node17</title>
<path fill="none" stroke="midnightblue" d="M429.378,-224.324C419.974,-216.263 405.756,-204.077 394.431,-194.369"/>
<polygon fill="midnightblue" stroke="midnightblue" points="396.677,-191.684 386.806,-187.834 392.121,-196.999 396.677,-191.684"/>
</g>
<!-- Node18 -->
<g id="node18" class="node"><title>Node18</title>
<polygon fill="white" stroke="#bfbfbf" points="458,-168.5 458,-187.5 517,-187.5 517,-168.5 458,-168.5"/>
<text text-anchor="middle" x="487.5" y="-175.5" font-family="Helvetica,sans-Serif" font-size="10.00">stdexcept</text>
</g>
<!-- Node16&#45;&gt;Node18 -->
<g id="edge21" class="edge"><title>Node16&#45;&gt;Node18</title>
<path fill="none" stroke="midnightblue" d="M447.426,-224.083C454.346,-216.298 464.565,-204.801 472.952,-195.367"/>
<polygon fill="midnightblue" stroke="midnightblue" points="475.694,-197.55 479.721,-187.751 470.462,-192.9 475.694,-197.55"/>
</g>
<!-- Node19 -->
<g id="node19" class="node"><title>Node19</title>
<polygon fill="white" stroke="#bfbfbf" points="535,-168.5 535,-187.5 586,-187.5 586,-168.5 535,-168.5"/>
<text text-anchor="middle" x="560.5" y="-175.5" font-family="Helvetica,sans-Serif" font-size="10.00">numeric</text>
</g>
<!-- Node16&#45;&gt;Node19 -->
<g id="edge22" class="edge"><title>Node16&#45;&gt;Node19</title>
<path fill="none" stroke="midnightblue" d="M458.673,-224.444C478.409,-215.636 509.385,-201.812 531.993,-191.722"/>
<polygon fill="midnightblue" stroke="midnightblue" points="533.711,-194.788 541.417,-187.516 530.859,-188.396 533.711,-194.788"/>
</g>
<!-- Node17&#45;&gt;Node4 -->
<g id="edge19" class="edge"><title>Node17&#45;&gt;Node4</title>
<path fill="none" stroke="midnightblue" d="M376.5,-168.368C376.5,-150.617 376.5,-109.666 376.5,-85.5974"/>
<polygon fill="midnightblue" stroke="midnightblue" points="380,-85.5914 376.5,-75.5914 373,-85.5915 380,-85.5914"/>
</g>
<!-- Node17&#45;&gt;Node14 -->
<g id="edge20" class="edge"><title>Node17&#45;&gt;Node14</title>
<path fill="none" stroke="midnightblue" d="M363.486,-168.324C350.968,-159.979 331.818,-147.212 317.029,-137.352"/>
<polygon fill="midnightblue" stroke="midnightblue" points="318.744,-134.289 308.482,-131.655 314.861,-140.114 318.744,-134.289"/>
</g>
<!-- Node21&#45;&gt;Node4 -->
<g id="edge26" class="edge"><title>Node21&#45;&gt;Node4</title>
<path fill="none" stroke="midnightblue" d="M162.576,-168.227C177.229,-154.491 207.497,-127.843 237.5,-112 266.266,-96.8101 301.096,-85.5457 328.694,-78.0861"/>
<polygon fill="midnightblue" stroke="midnightblue" points="329.726,-81.4338 338.51,-75.5097 327.949,-74.6632 329.726,-81.4338"/>
</g>
<!-- Node21&#45;&gt;Node10 -->
<g id="edge29" class="edge"><title>Node21&#45;&gt;Node10</title>
<path fill="none" stroke="midnightblue" d="M153.715,-168.075C154.345,-141.945 156.194,-65.2106 157.052,-29.577"/>
<polygon fill="midnightblue" stroke="midnightblue" points="160.552,-29.6496 157.294,-19.5681 153.554,-29.4809 160.552,-29.6496"/>
</g>
<!-- Node21&#45;&gt;Node14 -->
<g id="edge27" class="edge"><title>Node21&#45;&gt;Node14</title>
<path fill="none" stroke="midnightblue" d="M176,-168.444C199.577,-159.478 236.822,-145.314 263.464,-135.183"/>
<polygon fill="midnightblue" stroke="midnightblue" points="265.002,-138.342 273.105,-131.516 262.514,-131.8 265.002,-138.342"/>
</g>
<!-- Node22 -->
<g id="node22" class="node"><title>Node22</title>
<polygon fill="white" stroke="#bfbfbf" points="0,-112.5 0,-131.5 129,-131.5 129,-112.5 0,-112.5"/>
<text text-anchor="middle" x="64.5" y="-119.5" font-family="Helvetica,sans-Serif" font-size="10.00">boost/algorithm/string.hpp</text>
</g>
<!-- Node21&#45;&gt;Node22 -->
<g id="edge28" class="edge"><title>Node21&#45;&gt;Node22</title>
<path fill="none" stroke="midnightblue" d="M139.201,-168.324C125.317,-159.9 104.008,-146.971 87.6963,-137.074"/>
<polygon fill="midnightblue" stroke="midnightblue" points="89.1289,-133.85 78.7639,-131.655 85.4978,-139.834 89.1289,-133.85"/>
</g>
</g>
</svg>
