<?xml version="1.0" encoding="UTF-8" standalone="no"?>
<!DOCTYPE svg PUBLIC "-//W3C//DTD SVG 1.1//EN"
 "http://www.w3.org/Graphics/SVG/1.1/DTD/svg11.dtd">
<!-- Generated by graphviz version 2.26.3 (20100126.1600)
 -->
<!-- Title: SemiconductorPhase.h Pages: 1 -->
<svg width="616pt" height="378pt"
 viewBox="0.00 0.00 615.58 378.00" xmlns="http://www.w3.org/2000/svg" xmlns:xlink="http://www.w3.org/1999/xlink">
<g id="graph1" class="graph" transform="scale(1 1) rotate(0) translate(4 374)">
<title>SemiconductorPhase.h</title>
<polygon fill="white" stroke="white" points="-4,5 -4,-374 612.579,-374 612.579,5 -4,5"/>
<!-- Node1 -->
<g id="node1" class="node"><title>Node1</title>
<polygon fill="#bfbfbf" stroke="black" points="18,-349 18,-369 134,-369 134,-349 18,-349"/>
<text text-anchor="middle" x="76" y="-356" font-family="FreeSans" font-size="10.00">SemiconductorPhase.h</text>
</g>
<!-- Node2 -->
<g id="node3" class="node"><title>Node2</title>
<a xlink:href="mix__defs_8h.html" target="_top" xlink:title="mix_defs.h">
<polygon fill="white" stroke="black" points="0,-291 0,-311 62,-311 62,-291 0,-291"/>
<text text-anchor="middle" x="31" y="-298" font-family="FreeSans" font-size="10.00">mix_defs.h</text>
</a>
</g>
<!-- Node1&#45;&gt;Node2 -->
<g id="edge2" class="edge"><title>Node1&#45;&gt;Node2</title>
<path fill="none" stroke="midnightblue" d="M68.1616,-348.897C61.8513,-340.764 52.8159,-329.118 45.2346,-319.347"/>
<polygon fill="midnightblue" stroke="midnightblue" points="47.9469,-317.133 39.0516,-311.378 42.4163,-321.424 47.9469,-317.133"/>
</g>
<!-- Node3 -->
<g id="node5" class="node"><title>Node3</title>
<a xlink:href="ThermoPhase_8h.html" target="_top" xlink:title="Header file for class ThermoPhase, the base class for phases with thermodynamic properties, and the text for the Module thermoprops (see Thermodynamic Properties and class ThermoPhase). ">
<polygon fill="white" stroke="black" points="80,-291 80,-311 164,-311 164,-291 80,-291"/>
<text text-anchor="middle" x="122" y="-298" font-family="FreeSans" font-size="10.00">ThermoPhase.h</text>
</a>
</g>
<!-- Node1&#45;&gt;Node3 -->
<g id="edge4" class="edge"><title>Node1&#45;&gt;Node3</title>
<path fill="none" stroke="midnightblue" d="M84.0126,-348.897C90.4631,-340.764 99.6993,-329.118 107.449,-319.347"/>
<polygon fill="midnightblue" stroke="midnightblue" points="110.298,-321.387 113.769,-311.378 104.813,-317.038 110.298,-321.387"/>
</g>
<!-- Node4 -->
<g id="node7" class="node"><title>Node4</title>
<a xlink:href="Phase_8h.html" target="_top" xlink:title="Header file for class Phase. ">
<polygon fill="white" stroke="black" points="141.5,-233 141.5,-253 192.5,-253 192.5,-233 141.5,-233"/>
<text text-anchor="middle" x="167" y="-240" font-family="FreeSans" font-size="10.00">Phase.h</text>
</a>
</g>
<!-- Node3&#45;&gt;Node4 -->
<g id="edge6" class="edge"><title>Node3&#45;&gt;Node4</title>
<path fill="none" stroke="midnightblue" d="M129.838,-290.897C136.149,-282.764 145.184,-271.118 152.765,-261.347"/>
<polygon fill="midnightblue" stroke="midnightblue" points="155.584,-263.424 158.948,-253.378 150.053,-259.133 155.584,-263.424"/>
</g>
<!-- Node17 -->
<g id="node41" class="node"><title>Node17</title>
<a xlink:href="SpeciesThermo_8h.html" target="_top" xlink:title="Virtual base class for the calculation of multiple&#45;species thermodynamic reference&#45;state property man...">
<polygon fill="white" stroke="black" points="30,-233 30,-253 122,-253 122,-233 30,-233"/>
<text text-anchor="middle" x="76" y="-240" font-family="FreeSans" font-size="10.00">SpeciesThermo.h</text>
</a>
</g>
<!-- Node3&#45;&gt;Node17 -->
<g id="edge48" class="edge"><title>Node3&#45;&gt;Node17</title>
<path fill="none" stroke="midnightblue" d="M113.987,-290.897C107.537,-282.764 98.3007,-271.118 90.5509,-261.347"/>
<polygon fill="midnightblue" stroke="midnightblue" points="93.1867,-259.038 84.2305,-253.378 87.7022,-263.387 93.1867,-259.038"/>
</g>
<!-- Node5 -->
<g id="node9" class="node"><title>Node5</title>
<a xlink:href="vec__functions_8h.html" target="_top" xlink:title="Templates for operations on vector&#45;like objects. ">
<polygon fill="white" stroke="black" points="342,-117 342,-137 484,-137 484,-117 342,-117"/>
<text text-anchor="middle" x="413" y="-124" font-family="FreeSans" font-size="10.00">cantera/base/vec_functions.h</text>
</a>
</g>
<!-- Node4&#45;&gt;Node5 -->
<g id="edge8" class="edge"><title>Node4&#45;&gt;Node5</title>
<path fill="none" stroke="midnightblue" d="M192.605,-234.833C218.426,-226.278 259.193,-211.892 293,-196 327.368,-179.844 365.031,-157.342 388.825,-142.485"/>
<polygon fill="midnightblue" stroke="midnightblue" points="390.931,-145.295 397.528,-137.005 387.201,-139.372 390.931,-145.295"/>
</g>
<!-- Node13 -->
<g id="node27" class="node"><title>Node13</title>
<a xlink:href="ctml_8h.html" target="_top" xlink:title="CTML (&quot;Cantera Markup Language&quot;) is the variant of XML that Cantera uses to store data...">
<polygon fill="white" stroke="black" points="183.5,-175 183.5,-195 284.5,-195 284.5,-175 183.5,-175"/>
<text text-anchor="middle" x="234" y="-182" font-family="FreeSans" font-size="10.00">cantera/base/ctml.h</text>
</a>
</g>
<!-- Node4&#45;&gt;Node13 -->
<g id="edge28" class="edge"><title>Node4&#45;&gt;Node13</title>
<path fill="none" stroke="midnightblue" d="M178.671,-232.897C188.445,-224.435 202.612,-212.172 214.163,-202.172"/>
<polygon fill="midnightblue" stroke="midnightblue" points="216.742,-204.569 222.012,-195.378 212.161,-199.276 216.742,-204.569"/>
</g>
<!-- Node16 -->
<g id="node38" class="node"><title>Node16</title>
<a xlink:href="Elements_8h.html" target="_top" xlink:title="Contains the LookupWtElements function and the definitions of element constraint types. ">
<polygon fill="white" stroke="black" points="34,-175 34,-195 166,-195 166,-175 34,-175"/>
<text text-anchor="middle" x="100" y="-182" font-family="FreeSans" font-size="10.00">cantera/thermo/Elements.h</text>
</a>
</g>
<!-- Node4&#45;&gt;Node16 -->
<g id="edge44" class="edge"><title>Node4&#45;&gt;Node16</title>
<path fill="none" stroke="midnightblue" d="M155.329,-232.897C145.555,-224.435 131.388,-212.172 119.837,-202.172"/>
<polygon fill="midnightblue" stroke="midnightblue" points="121.839,-199.276 111.988,-195.378 117.258,-204.569 121.839,-199.276"/>
</g>
<!-- Node6 -->
<g id="node11" class="node"><title>Node6</title>
<a xlink:href="ct__defs_8h.html" target="_top" xlink:title="This file contains definitions of terms that are used in internal routines and are unlikely to need m...">
<polygon fill="white" stroke="red" points="149,-1 149,-21 205,-21 205,-1 149,-1"/>
<text text-anchor="middle" x="177" y="-8" font-family="FreeSans" font-size="10.00">ct_defs.h</text>
</a>
</g>
<!-- Node5&#45;&gt;Node6 -->
<g id="edge10" class="edge"><title>Node5&#45;&gt;Node6</title>
<path fill="none" stroke="midnightblue" d="M417.913,-116.782C424.209,-102.028 432.769,-74.6998 419,-58 393.649,-27.2516 277.119,-16.3675 215.482,-12.7186"/>
<polygon fill="midnightblue" stroke="midnightblue" points="215.543,-9.21665 205.364,-12.1555 215.154,-16.2058 215.543,-9.21665"/>
</g>
<!-- Node7 -->
<g id="node13" class="node"><title>Node7</title>
<a xlink:href="utilities_8h.html" target="_top" xlink:title="Various templated functions that carry out common vector operations (see Templated Utility Functions)...">
<polygon fill="white" stroke="black" points="294,-59 294,-79 348,-79 348,-59 294,-59"/>
<text text-anchor="middle" x="321" y="-66" font-family="FreeSans" font-size="10.00">utilities.h</text>
</a>
</g>
<!-- Node5&#45;&gt;Node7 -->
<g id="edge12" class="edge"><title>Node5&#45;&gt;Node7</title>
<path fill="none" stroke="midnightblue" d="M396.975,-116.897C382.814,-107.97 361.941,-94.8106 345.655,-84.5431"/>
<polygon fill="midnightblue" stroke="midnightblue" points="347.476,-81.554 337.15,-79.1817 343.743,-87.4755 347.476,-81.554"/>
</g>
<!-- Node8 -->
<g id="node16" class="node"><title>Node8</title>
<polygon fill="white" stroke="#bfbfbf" points="442,-1 442,-21 498,-21 498,-1 442,-1"/>
<text text-anchor="middle" x="470" y="-8" font-family="FreeSans" font-size="10.00">algorithm</text>
</g>
<!-- Node5&#45;&gt;Node8 -->
<g id="edge22" class="edge"><title>Node5&#45;&gt;Node8</title>
<path fill="none" stroke="midnightblue" d="M484.392,-118.307C531.248,-110.967 586.455,-98.6288 601,-80 628.854,-44.3247 556.417,-25.0823 508.475,-16.5448"/>
<polygon fill="midnightblue" stroke="midnightblue" points="508.81,-13.0518 498.366,-14.8361 507.643,-19.9539 508.81,-13.0518"/>
</g>
<!-- Node9 -->
<g id="node18" class="node"><title>Node9</title>
<polygon fill="white" stroke="#bfbfbf" points="541.5,-59 541.5,-79 592.5,-79 592.5,-59 541.5,-59"/>
<text text-anchor="middle" x="567" y="-66" font-family="FreeSans" font-size="10.00">numeric</text>
</g>
<!-- Node5&#45;&gt;Node9 -->
<g id="edge18" class="edge"><title>Node5&#45;&gt;Node9</title>
<path fill="none" stroke="midnightblue" d="M439.825,-116.897C465.341,-107.287 503.876,-92.7739 531.84,-82.2422"/>
<polygon fill="midnightblue" stroke="midnightblue" points="533.126,-85.4977 541.251,-78.6977 530.659,-78.9469 533.126,-85.4977"/>
</g>
<!-- Node10 -->
<g id="node20" class="node"><title>Node10</title>
<polygon fill="white" stroke="#bfbfbf" points="465.5,-59 465.5,-79 524.5,-79 524.5,-59 465.5,-59"/>
<text text-anchor="middle" x="495" y="-66" font-family="FreeSans" font-size="10.00">functional</text>
</g>
<!-- Node5&#45;&gt;Node10 -->
<g id="edge20" class="edge"><title>Node5&#45;&gt;Node10</title>
<path fill="none" stroke="midnightblue" d="M427.283,-116.897C439.671,-108.135 457.822,-95.2965 472.215,-85.1164"/>
<polygon fill="midnightblue" stroke="midnightblue" points="474.462,-87.8138 480.605,-79.1817 470.42,-82.0989 474.462,-87.8138"/>
</g>
<!-- Node11 -->
<g id="node23" class="node"><title>Node11</title>
<polygon fill="white" stroke="#bfbfbf" points="223.5,-59 223.5,-79 276.5,-79 276.5,-59 223.5,-59"/>
<text text-anchor="middle" x="250" y="-66" font-family="FreeSans" font-size="10.00">iostream</text>
</g>
<!-- Node5&#45;&gt;Node11 -->
<g id="edge24" class="edge"><title>Node5&#45;&gt;Node11</title>
<path fill="none" stroke="midnightblue" d="M384.608,-116.897C357.319,-107.187 315.96,-92.4705 286.292,-81.9138"/>
<polygon fill="midnightblue" stroke="midnightblue" points="287.311,-78.5615 276.717,-78.5065 284.965,-85.1564 287.311,-78.5615"/>
</g>
<!-- Node12 -->
<g id="node25" class="node"><title>Node12</title>
<polygon fill="white" stroke="#bfbfbf" points="365.5,-59 365.5,-79 410.5,-79 410.5,-59 365.5,-59"/>
<text text-anchor="middle" x="388" y="-66" font-family="FreeSans" font-size="10.00">cstring</text>
</g>
<!-- Node5&#45;&gt;Node12 -->
<g id="edge26" class="edge"><title>Node5&#45;&gt;Node12</title>
<path fill="none" stroke="midnightblue" d="M408.645,-116.897C405.317,-109.175 400.623,-98.2857 396.552,-88.841"/>
<polygon fill="midnightblue" stroke="midnightblue" points="399.646,-87.1754 392.473,-79.3776 393.217,-89.9463 399.646,-87.1754"/>
</g>
<!-- Node7&#45;&gt;Node6 -->
<g id="edge14" class="edge"><title>Node7&#45;&gt;Node6</title>
<path fill="none" stroke="midnightblue" d="M295.917,-58.8972C272.624,-49.5152 237.727,-35.4593 211.753,-24.9979"/>
<polygon fill="midnightblue" stroke="midnightblue" points="212.862,-21.6713 202.279,-21.1817 210.247,-28.1644 212.862,-21.6713"/>
</g>
<!-- Node7&#45;&gt;Node8 -->
<g id="edge16" class="edge"><title>Node7&#45;&gt;Node8</title>
<path fill="none" stroke="midnightblue" d="M346.954,-58.8972C371.236,-49.4449 407.706,-35.2486 434.642,-24.7635"/>
<polygon fill="midnightblue" stroke="midnightblue" points="436.045,-27.9733 444.094,-21.0842 433.506,-21.4501 436.045,-27.9733"/>
</g>
<!-- Node13&#45;&gt;Node6 -->
<g id="edge30" class="edge"><title>Node13&#45;&gt;Node6</title>
<path fill="none" stroke="midnightblue" d="M230.407,-174.903C223.793,-156.233 209.329,-115.02 198,-80 192.709,-63.6427 187.053,-44.984 182.945,-31.1973"/>
<polygon fill="midnightblue" stroke="midnightblue" points="186.216,-29.9161 180.019,-21.3223 179.504,-31.9046 186.216,-29.9161"/>
</g>
<!-- Node14 -->
<g id="node30" class="node"><title>Node14</title>
<a xlink:href="xml_8h.html" target="_top" xlink:title="Classes providing support for XML data files. ">
<polygon fill="white" stroke="red" points="111.5,-117 111.5,-137 150.5,-137 150.5,-117 111.5,-117"/>
<text text-anchor="middle" x="131" y="-124" font-family="FreeSans" font-size="10.00">xml.h</text>
</a>
</g>
<!-- Node13&#45;&gt;Node14 -->
<g id="edge32" class="edge"><title>Node13&#45;&gt;Node14</title>
<path fill="none" stroke="midnightblue" d="M216.059,-174.897C199.985,-165.846 176.185,-152.444 157.846,-142.117"/>
<polygon fill="midnightblue" stroke="midnightblue" points="159.512,-139.039 149.081,-137.182 156.077,-145.138 159.512,-139.039"/>
</g>
<!-- Node15 -->
<g id="node32" class="node"><title>Node15</title>
<a xlink:href="Array_8h.html" target="_top" xlink:title="Header file for class Cantera::Array2D. ">
<polygon fill="white" stroke="red" points="226.5,-117 226.5,-137 273.5,-137 273.5,-117 226.5,-117"/>
<text text-anchor="middle" x="250" y="-124" font-family="FreeSans" font-size="10.00">Array.h</text>
</a>
</g>
<!-- Node13&#45;&gt;Node15 -->
<g id="edge34" class="edge"><title>Node13&#45;&gt;Node15</title>
<path fill="none" stroke="midnightblue" d="M236.787,-174.897C238.895,-167.257 241.857,-156.517 244.443,-147.143"/>
<polygon fill="midnightblue" stroke="midnightblue" points="247.852,-147.948 247.137,-137.378 241.104,-146.087 247.852,-147.948"/>
</g>
<!-- Node15&#45;&gt;Node6 -->
<g id="edge36" class="edge"><title>Node15&#45;&gt;Node6</title>
<path fill="none" stroke="midnightblue" d="M241.796,-116.837C234.421,-107.508 223.478,-93.1757 215,-80 204.52,-63.7122 194.005,-44.3281 186.702,-30.2586"/>
<polygon fill="midnightblue" stroke="midnightblue" points="189.672,-28.3786 181.998,-21.0734 183.441,-31.5695 189.672,-28.3786"/>
</g>
<!-- Node15&#45;&gt;Node7 -->
<g id="edge38" class="edge"><title>Node15&#45;&gt;Node7</title>
<path fill="none" stroke="midnightblue" d="M262.367,-116.897C272.826,-108.353 288.03,-95.933 300.335,-85.8813"/>
<polygon fill="midnightblue" stroke="midnightblue" points="302.766,-88.4146 308.296,-79.3776 298.338,-82.9935 302.766,-88.4146"/>
</g>
<!-- Node15&#45;&gt;Node11 -->
<g id="edge40" class="edge"><title>Node15&#45;&gt;Node11</title>
<path fill="none" stroke="midnightblue" d="M250,-116.897C250,-109.339 250,-98.7476 250,-89.4458"/>
<polygon fill="midnightblue" stroke="midnightblue" points="253.5,-89.3776 250,-79.3776 246.5,-89.3776 253.5,-89.3776"/>
</g>
<!-- Node15&#45;&gt;Node12 -->
<g id="edge42" class="edge"><title>Node15&#45;&gt;Node12</title>
<path fill="none" stroke="midnightblue" d="M273.723,-117.029C296.31,-107.536 330.485,-93.1729 355.58,-82.6258"/>
<polygon fill="midnightblue" stroke="midnightblue" points="357.182,-85.749 365.045,-78.6477 354.47,-79.2958 357.182,-85.749"/>
</g>
<!-- Node16&#45;&gt;Node6 -->
<g id="edge46" class="edge"><title>Node16&#45;&gt;Node6</title>
<path fill="none" stroke="midnightblue" d="M98.7001,-174.848C97.3245,-161.097 96.1879,-135.974 103,-116 114.779,-81.4627 141.732,-48.1799 159.649,-28.6574"/>
<polygon fill="midnightblue" stroke="midnightblue" points="162.394,-30.848 166.704,-21.1695 157.299,-26.0476 162.394,-30.848"/>
</g>
<!-- Node17&#45;&gt;Node6 -->
<g id="edge50" class="edge"><title>Node17&#45;&gt;Node6</title>
<path fill="none" stroke="midnightblue" d="M59.0022,-232.83C47.0155,-224.587 31.9122,-211.77 25,-196 21.0747,-187.045 21.783,-183.233 25,-174 48.2376,-107.305 115.613,-52.8514 152.37,-27.0898"/>
<polygon fill="midnightblue" stroke="midnightblue" points="154.74,-29.7088 161.01,-21.1685 150.783,-23.9347 154.74,-29.7088"/>
</g>
</g>
</svg>
