<?xml version="1.0" encoding="UTF-8" standalone="no"?>
<!DOCTYPE svg PUBLIC "-//W3C//DTD SVG 1.1//EN"
 "http://www.w3.org/Graphics/SVG/1.1/DTD/svg11.dtd">
<!-- Generated by graphviz version 2.28.0 (20120425.2022)
 -->
<!-- Title: ShomateThermo.h Pages: 1 -->
<svg width="705pt" height="276pt"
 viewBox="0.00 0.00 705.00 276.00" xmlns="http://www.w3.org/2000/svg" xmlns:xlink="http://www.w3.org/1999/xlink">
<g id="graph1" class="graph" transform="scale(1 1) rotate(0) translate(4 272)">
<title>ShomateThermo.h</title>
<polygon fill="white" stroke="white" points="-4,5 -4,-272 702,-272 702,5 -4,5"/>
<!-- Node1 -->
<g id="node1" class="node"><title>Node1</title>
<polygon fill="#bfbfbf" stroke="black" points="529.5,-248.5 529.5,-267.5 630.5,-267.5 630.5,-248.5 529.5,-248.5"/>
<text text-anchor="middle" x="580" y="-255.5" font-family="FreeSans" font-size="10.00">ShomateThermo.h</text>
</g>
<!-- Node2 -->
<g id="node3" class="node"><title>Node2</title>
<a xlink:href="SpeciesThermoMgr_8h.html" target="_top" xlink:title="This file contains descriptions of templated subclasses of the virtual base class, SpeciesThermo, which includes SpeciesThermoDuo (see Managers for Calculating Reference&#45;State Thermodynamics and class SpeciesThermoDuo)">
<polygon fill="white" stroke="black" points="257,-181 257,-211 417,-211 417,-181 257,-181"/>
<text text-anchor="start" x="265" y="-199" font-family="FreeSans" font-size="10.00">cantera/thermo/SpeciesThermo</text>
<text text-anchor="middle" x="337" y="-188" font-family="FreeSans" font-size="10.00">Mgr.h</text>
</a>
</g>
<!-- Node1&#45;&gt;Node2 -->
<g id="edge2" class="edge"><title>Node1&#45;&gt;Node2</title>
<path fill="none" stroke="midnightblue" d="M545.442,-248.467C508.698,-239.395 449.675,-224.821 403.801,-213.494"/>
<polygon fill="midnightblue" stroke="midnightblue" points="404.476,-210.056 393.929,-211.057 402.798,-216.852 404.476,-210.056"/>
</g>
<!-- Node15 -->
<g id="node34" class="node"><title>Node15</title>
<a xlink:href="ShomatePoly_8h.html" target="_top" xlink:title="Header for a single&#45;species standard state object derived from SpeciesThermoInterpType based on the S...">
<polygon fill="white" stroke="black" points="538,-186.5 538,-205.5 622,-205.5 622,-186.5 538,-186.5"/>
<text text-anchor="middle" x="580" y="-193.5" font-family="FreeSans" font-size="10.00">ShomatePoly.h</text>
</a>
</g>
<!-- Node1&#45;&gt;Node15 -->
<g id="edge38" class="edge"><title>Node1&#45;&gt;Node15</title>
<path fill="none" stroke="midnightblue" d="M580,-248.403C580,-239.938 580,-226.728 580,-215.82"/>
<polygon fill="midnightblue" stroke="midnightblue" points="583.5,-215.581 580,-205.581 576.5,-215.581 583.5,-215.581"/>
</g>
<!-- Node17 -->
<g id="node39" class="node"><title>Node17</title>
<a xlink:href="speciesThermoTypes_8h.html" target="_top" xlink:title=" Contains const definitions for types of species &#160;reference&#45;state thermodynamics managers (see \ref s...">
<polygon fill="white" stroke="black" points="571.5,-56.5 571.5,-75.5 696.5,-75.5 696.5,-56.5 571.5,-56.5"/>
<text text-anchor="middle" x="634" y="-63.5" font-family="FreeSans" font-size="10.00">speciesThermoTypes.h</text>
</a>
</g>
<!-- Node1&#45;&gt;Node17 -->
<g id="edge46" class="edge"><title>Node1&#45;&gt;Node17</title>
<path fill="none" stroke="midnightblue" d="M591.688,-248.253C602.491,-239.783 618.554,-226.174 630,-212 651.89,-184.895 660.031,-177.666 669,-144 672.661,-130.257 673.616,-125.452 669,-112 665.281,-101.161 657.767,-90.9216 650.651,-82.9566"/>
<polygon fill="midnightblue" stroke="midnightblue" points="653.001,-80.3498 643.556,-75.5497 647.946,-85.1922 653.001,-80.3498"/>
</g>
<!-- Node3 -->
<g id="node5" class="node"><title>Node3</title>
<a xlink:href="ct__defs_8h.html" target="_top" xlink:title="This file contains definitions of terms that are used in internal routines and are unlikely to need m...">
<polygon fill="white" stroke="black" points="354.5,-56.5 354.5,-75.5 473.5,-75.5 473.5,-56.5 354.5,-56.5"/>
<text text-anchor="middle" x="414" y="-63.5" font-family="FreeSans" font-size="10.00">cantera/base/ct_defs.h</text>
</a>
</g>
<!-- Node2&#45;&gt;Node3 -->
<g id="edge4" class="edge"><title>Node2&#45;&gt;Node3</title>
<path fill="none" stroke="midnightblue" d="M342.049,-180.864C348.448,-163.824 360.422,-134.657 375,-112 381.629,-101.697 390.477,-91.2907 398.07,-83.0838"/>
<polygon fill="midnightblue" stroke="midnightblue" points="400.747,-85.3479 405.116,-75.6955 395.681,-80.517 400.747,-85.3479"/>
</g>
<!-- Node8 -->
<g id="node15" class="node"><title>Node8</title>
<polygon fill="white" stroke="#bfbfbf" points="275,-0.5 275,-19.5 311,-19.5 311,-0.5 275,-0.5"/>
<text text-anchor="middle" x="293" y="-7.5" font-family="FreeSans" font-size="10.00">map</text>
</g>
<!-- Node2&#45;&gt;Node8 -->
<g id="edge36" class="edge"><title>Node2&#45;&gt;Node8</title>
<path fill="none" stroke="midnightblue" d="M333.62,-180.867C325.779,-148.074 306.343,-66.7976 297.504,-29.8364"/>
<polygon fill="midnightblue" stroke="midnightblue" points="300.856,-28.803 295.126,-19.8912 294.048,-30.431 300.856,-28.803"/>
</g>
<!-- Node10 -->
<g id="node19" class="node"><title>Node10</title>
<a xlink:href="ctexceptions_8h.html" target="_top" xlink:title="Definitions for the classes that are thrown when Cantera experiences an error condition (also contain...">
<polygon fill="white" stroke="black" points="-0.5,-118.5 -0.5,-137.5 142.5,-137.5 142.5,-118.5 -0.5,-118.5"/>
<text text-anchor="middle" x="71" y="-125.5" font-family="FreeSans" font-size="10.00">cantera/base/ctexceptions.h</text>
</a>
</g>
<!-- Node2&#45;&gt;Node10 -->
<g id="edge18" class="edge"><title>Node2&#45;&gt;Node10</title>
<path fill="none" stroke="midnightblue" d="M280.263,-180.922C230.898,-168.674 160.363,-151.173 115.123,-139.948"/>
<polygon fill="midnightblue" stroke="midnightblue" points="115.862,-136.525 105.313,-137.514 114.176,-143.319 115.862,-136.525"/>
</g>
<!-- Node13 -->
<g id="node26" class="node"><title>Node13</title>
<a xlink:href="stringUtils_8h.html" target="_top" xlink:title=" Contains declarations for string manipulation functions &#160;within Cantera.">
<polygon fill="white" stroke="black" points="160.5,-118.5 160.5,-137.5 289.5,-137.5 289.5,-118.5 160.5,-118.5"/>
<text text-anchor="middle" x="225" y="-125.5" font-family="FreeSans" font-size="10.00">cantera/base/stringUtils.h</text>
</a>
</g>
<!-- Node2&#45;&gt;Node13 -->
<g id="edge26" class="edge"><title>Node2&#45;&gt;Node13</title>
<path fill="none" stroke="midnightblue" d="M312.973,-180.841C293.948,-169.63 267.519,-154.056 248.604,-142.91"/>
<polygon fill="midnightblue" stroke="midnightblue" points="250.125,-139.743 239.733,-137.682 246.571,-145.774 250.125,-139.743"/>
</g>
<!-- Node14 -->
<g id="node30" class="node"><title>Node14</title>
<a xlink:href="SpeciesThermo_8h.html" target="_top" xlink:title="Virtual base class for the calculation of multiple&#45;species thermodynamic reference&#45;state property man...">
<polygon fill="white" stroke="black" points="384.5,-118.5 384.5,-137.5 481.5,-137.5 481.5,-118.5 384.5,-118.5"/>
<text text-anchor="middle" x="433" y="-125.5" font-family="FreeSans" font-size="10.00">SpeciesThermo.h</text>
</a>
</g>
<!-- Node2&#45;&gt;Node14 -->
<g id="edge32" class="edge"><title>Node2&#45;&gt;Node14</title>
<path fill="none" stroke="midnightblue" d="M357.831,-180.679C373.78,-169.713 395.698,-154.645 411.751,-143.609"/>
<polygon fill="midnightblue" stroke="midnightblue" points="414.178,-146.187 420.436,-137.638 410.213,-140.419 414.178,-146.187"/>
</g>
<!-- Node4 -->
<g id="node7" class="node"><title>Node4</title>
<a xlink:href="config_8h_source.html" target="_top" xlink:title="config.h">
<polygon fill="white" stroke="black" points="329.5,-0.5 329.5,-19.5 380.5,-19.5 380.5,-0.5 329.5,-0.5"/>
<text text-anchor="middle" x="355" y="-7.5" font-family="FreeSans" font-size="10.00">config.h</text>
</a>
</g>
<!-- Node3&#45;&gt;Node4 -->
<g id="edge6" class="edge"><title>Node3&#45;&gt;Node4</title>
<path fill="none" stroke="midnightblue" d="M404.521,-56.324C395.799,-48.3414 382.657,-36.3128 372.102,-26.6529"/>
<polygon fill="midnightblue" stroke="midnightblue" points="374.392,-24.0036 364.652,-19.8339 369.666,-29.1674 374.392,-24.0036"/>
</g>
<!-- Node5 -->
<g id="node9" class="node"><title>Node5</title>
<polygon fill="white" stroke="#bfbfbf" points="399,-0.5 399,-19.5 443,-19.5 443,-0.5 399,-0.5"/>
<text text-anchor="middle" x="421" y="-7.5" font-family="FreeSans" font-size="10.00">cmath</text>
</g>
<!-- Node3&#45;&gt;Node5 -->
<g id="edge8" class="edge"><title>Node3&#45;&gt;Node5</title>
<path fill="none" stroke="midnightblue" d="M415.156,-56.083C416.084,-48.9272 417.418,-38.6353 418.577,-29.6911"/>
<polygon fill="midnightblue" stroke="midnightblue" points="422.051,-30.1181 419.866,-19.7511 415.109,-29.2181 422.051,-30.1181"/>
</g>
<!-- Node6 -->
<g id="node11" class="node"><title>Node6</title>
<polygon fill="white" stroke="#bfbfbf" points="461.5,-0.5 461.5,-19.5 506.5,-19.5 506.5,-0.5 461.5,-0.5"/>
<text text-anchor="middle" x="484" y="-7.5" font-family="FreeSans" font-size="10.00">cstdlib</text>
</g>
<!-- Node3&#45;&gt;Node6 -->
<g id="edge10" class="edge"><title>Node3&#45;&gt;Node6</title>
<path fill="none" stroke="midnightblue" d="M425.247,-56.324C435.797,-48.1849 451.801,-35.8395 464.442,-26.0874"/>
<polygon fill="midnightblue" stroke="midnightblue" points="466.769,-28.7132 472.549,-19.8339 462.493,-23.1707 466.769,-28.7132"/>
</g>
<!-- Node7 -->
<g id="node13" class="node"><title>Node7</title>
<polygon fill="white" stroke="#bfbfbf" points="525,-0.5 525,-19.5 569,-19.5 569,-0.5 525,-0.5"/>
<text text-anchor="middle" x="547" y="-7.5" font-family="FreeSans" font-size="10.00">vector</text>
</g>
<!-- Node3&#45;&gt;Node7 -->
<g id="edge12" class="edge"><title>Node3&#45;&gt;Node7</title>
<path fill="none" stroke="midnightblue" d="M435.074,-56.4435C457.06,-47.5171 491.734,-33.4387 516.664,-23.3168"/>
<polygon fill="midnightblue" stroke="midnightblue" points="518.076,-26.5213 526.024,-19.5164 515.442,-20.0355 518.076,-26.5213"/>
</g>
<!-- Node3&#45;&gt;Node8 -->
<g id="edge14" class="edge"><title>Node3&#45;&gt;Node8</title>
<path fill="none" stroke="midnightblue" d="M394.827,-56.4435C374.859,-47.532 343.384,-33.4856 320.712,-23.3674"/>
<polygon fill="midnightblue" stroke="midnightblue" points="321.849,-20.0422 311.291,-19.1629 318.997,-26.4346 321.849,-20.0422"/>
</g>
<!-- Node9 -->
<g id="node17" class="node"><title>Node9</title>
<polygon fill="white" stroke="#bfbfbf" points="204.5,-0.5 204.5,-19.5 245.5,-19.5 245.5,-0.5 204.5,-0.5"/>
<text text-anchor="middle" x="225" y="-7.5" font-family="FreeSans" font-size="10.00">string</text>
</g>
<!-- Node3&#45;&gt;Node9 -->
<g id="edge16" class="edge"><title>Node3&#45;&gt;Node9</title>
<path fill="none" stroke="midnightblue" d="M384.052,-56.4435C348.905,-46.4015 290.938,-29.8394 255.538,-19.7251"/>
<polygon fill="midnightblue" stroke="midnightblue" points="256.335,-16.3127 245.758,-16.9308 254.411,-23.0434 256.335,-16.3127"/>
</g>
<!-- Node10&#45;&gt;Node9 -->
<g id="edge24" class="edge"><title>Node10&#45;&gt;Node9</title>
<path fill="none" stroke="midnightblue" d="M73.7231,-118.332C78.7752,-103.575 90.9482,-73.4754 111,-56 134.861,-35.2051 169.482,-23.383 194.303,-17.1272"/>
<polygon fill="midnightblue" stroke="midnightblue" points="195.349,-20.4766 204.28,-14.7771 193.744,-13.6631 195.349,-20.4766"/>
</g>
<!-- Node11 -->
<g id="node21" class="node"><title>Node11</title>
<polygon fill="white" stroke="#bfbfbf" points="4,-56.5 4,-75.5 64,-75.5 64,-56.5 4,-56.5"/>
<text text-anchor="middle" x="34" y="-63.5" font-family="FreeSans" font-size="10.00">exception</text>
</g>
<!-- Node10&#45;&gt;Node11 -->
<g id="edge20" class="edge"><title>Node10&#45;&gt;Node11</title>
<path fill="none" stroke="midnightblue" d="M65.6988,-118.403C60.2037,-109.493 51.4669,-95.3247 44.5559,-84.1177"/>
<polygon fill="midnightblue" stroke="midnightblue" points="47.5194,-82.2552 39.2914,-75.5806 41.5612,-85.9294 47.5194,-82.2552"/>
</g>
<!-- Node12 -->
<g id="node23" class="node"><title>Node12</title>
<polygon fill="white" stroke="#bfbfbf" points="120,-56.5 120,-75.5 176,-75.5 176,-56.5 120,-56.5"/>
<text text-anchor="middle" x="148" y="-63.5" font-family="FreeSans" font-size="10.00">iostream</text>
</g>
<!-- Node10&#45;&gt;Node12 -->
<g id="edge22" class="edge"><title>Node10&#45;&gt;Node12</title>
<path fill="none" stroke="midnightblue" d="M82.0322,-118.403C94.2684,-108.869 114.229,-93.3154 128.993,-81.8106"/>
<polygon fill="midnightblue" stroke="midnightblue" points="131.252,-84.4879 136.988,-75.5806 126.949,-78.9663 131.252,-84.4879"/>
</g>
<!-- Node13&#45;&gt;Node3 -->
<g id="edge28" class="edge"><title>Node13&#45;&gt;Node3</title>
<path fill="none" stroke="midnightblue" d="M252.079,-118.403C284.92,-107.978 340.43,-90.3557 377.148,-78.6992"/>
<polygon fill="midnightblue" stroke="midnightblue" points="378.499,-81.9424 386.971,-75.5806 376.381,-75.2705 378.499,-81.9424"/>
</g>
<!-- Node13&#45;&gt;Node9 -->
<g id="edge30" class="edge"><title>Node13&#45;&gt;Node9</title>
<path fill="none" stroke="midnightblue" d="M225,-118.281C225,-99.5475 225,-55.098 225,-29.6822"/>
<polygon fill="midnightblue" stroke="midnightblue" points="228.5,-29.5047 225,-19.5048 221.5,-29.5048 228.5,-29.5047"/>
</g>
<!-- Node14&#45;&gt;Node3 -->
<g id="edge34" class="edge"><title>Node14&#45;&gt;Node3</title>
<path fill="none" stroke="midnightblue" d="M430.278,-118.403C427.541,-109.76 423.237,-96.17 419.742,-85.1341"/>
<polygon fill="midnightblue" stroke="midnightblue" points="423.073,-84.0574 416.717,-75.5806 416.399,-86.1707 423.073,-84.0574"/>
</g>
<!-- Node16 -->
<g id="node36" class="node"><title>Node16</title>
<a xlink:href="SpeciesThermoInterpType_8h.html" target="_top" xlink:title="Pure Virtual Base class for individual species reference state thermodynamic managers and text for th...">
<polygon fill="white" stroke="black" points="500,-113 500,-143 660,-143 660,-113 500,-113"/>
<text text-anchor="start" x="508" y="-131" font-family="FreeSans" font-size="10.00">cantera/thermo/SpeciesThermo</text>
<text text-anchor="middle" x="580" y="-120" font-family="FreeSans" font-size="10.00">InterpType.h</text>
</a>
</g>
<!-- Node15&#45;&gt;Node16 -->
<g id="edge40" class="edge"><title>Node15&#45;&gt;Node16</title>
<path fill="none" stroke="midnightblue" d="M580,-186.372C580,-177.971 580,-164.811 580,-153.213"/>
<polygon fill="midnightblue" stroke="midnightblue" points="583.5,-153.181 580,-143.181 576.5,-153.181 583.5,-153.181"/>
</g>
<!-- Node16&#45;&gt;Node3 -->
<g id="edge42" class="edge"><title>Node16&#45;&gt;Node3</title>
<path fill="none" stroke="midnightblue" d="M541.08,-112.933C512.574,-102.629 474.295,-88.7935 447.222,-79.0079"/>
<polygon fill="midnightblue" stroke="midnightblue" points="448.388,-75.7077 437.793,-75.6 446.008,-82.2909 448.388,-75.7077"/>
</g>
<!-- Node16&#45;&gt;Node17 -->
<g id="edge44" class="edge"><title>Node16&#45;&gt;Node17</title>
<path fill="none" stroke="midnightblue" d="M592.797,-112.781C600.725,-103.972 610.936,-92.6262 619.21,-83.4332"/>
<polygon fill="midnightblue" stroke="midnightblue" points="622.054,-85.5049 626.143,-75.7305 616.851,-80.8221 622.054,-85.5049"/>
</g>
</g>
</svg>
