<?xml version="1.0" encoding="UTF-8" standalone="no"?>
<!DOCTYPE svg PUBLIC "-//W3C//DTD SVG 1.1//EN"
 "http://www.w3.org/Graphics/SVG/1.1/DTD/svg11.dtd">
<!-- Generated by graphviz version 2.26.3 (20100126.1600)
 -->
<!-- Title: SimpleTransport.h Pages: 1 -->
<svg width="755pt" height="668pt"
 viewBox="0.00 0.00 755.00 668.00" xmlns="http://www.w3.org/2000/svg" xmlns:xlink="http://www.w3.org/1999/xlink">
<g id="graph1" class="graph" transform="scale(1 1) rotate(0) translate(4 664)">
<title>SimpleTransport.h</title>
<polygon fill="white" stroke="white" points="-4,5 -4,-664 752,-664 752,5 -4,5"/>
<!-- Node1 -->
<g id="node1" class="node"><title>Node1</title>
<polygon fill="#bfbfbf" stroke="black" points="548.5,-639 548.5,-659 643.5,-659 643.5,-639 548.5,-639"/>
<text text-anchor="middle" x="596" y="-646" font-family="FreeSans" font-size="10.00">SimpleTransport.h</text>
</g>
<!-- Node2 -->
<g id="node3" class="node"><title>Node2</title>
<a xlink:href="TransportBase_8h.html" target="_top" xlink:title="Headers for the Transport object, which is the virtual base class for all transport property evaluato...">
<polygon fill="white" stroke="black" points="442,-349 442,-369 528,-369 528,-349 442,-349"/>
<text text-anchor="middle" x="485" y="-356" font-family="FreeSans" font-size="10.00">TransportBase.h</text>
</a>
</g>
<!-- Node1&#45;&gt;Node2 -->
<g id="edge2" class="edge"><title>Node1&#45;&gt;Node2</title>
<path fill="none" stroke="midnightblue" d="M600.279,-638.97C608.346,-619.123 625,-573.272 625,-533 625,-533 625,-533 625,-475 625,-422.875 566.745,-389.729 525.391,-372.767"/>
<polygon fill="midnightblue" stroke="midnightblue" points="526.658,-369.504 516.071,-369.096 524.092,-376.017 526.658,-369.504"/>
</g>
<!-- Node14 -->
<g id="node32" class="node"><title>Node14</title>
<a xlink:href="DenseMatrix_8h.html" target="_top" xlink:title="Headers for the DenseMatrix object, which deals with dense rectangular matrices and description of th...">
<polygon fill="white" stroke="black" points="592.5,-291 592.5,-311 747.5,-311 747.5,-291 592.5,-291"/>
<text text-anchor="middle" x="670" y="-298" font-family="FreeSans" font-size="10.00">cantera/numerics/DenseMatrix.h</text>
</a>
</g>
<!-- Node1&#45;&gt;Node14 -->
<g id="edge42" class="edge"><title>Node1&#45;&gt;Node14</title>
<path fill="none" stroke="midnightblue" d="M615.75,-638.778C646.166,-621.454 701,-583.253 701,-533 701,-533 701,-533 701,-417 701,-382.088 687.732,-343.209 678.557,-320.495"/>
<polygon fill="midnightblue" stroke="midnightblue" points="681.67,-318.868 674.574,-311 675.214,-321.576 681.67,-318.868"/>
</g>
<!-- Node15 -->
<g id="node37" class="node"><title>Node15</title>
<a xlink:href="TransportParams_8h.html" target="_top" xlink:title="Class that holds the data that is read in from the xml file, and which is used for processing of the ...">
<polygon fill="white" stroke="black" points="499,-465 499,-485 597,-485 597,-465 499,-465"/>
<text text-anchor="middle" x="548" y="-472" font-family="FreeSans" font-size="10.00">TransportParams.h</text>
</a>
</g>
<!-- Node1&#45;&gt;Node15 -->
<g id="edge44" class="edge"><title>Node1&#45;&gt;Node15</title>
<path fill="none" stroke="midnightblue" d="M593.212,-638.893C585.49,-610.903 563.724,-531.999 553.471,-494.832"/>
<polygon fill="midnightblue" stroke="midnightblue" points="556.829,-493.844 550.796,-485.135 550.081,-495.706 556.829,-493.844"/>
</g>
<!-- Node16 -->
<g id="node41" class="node"><title>Node16</title>
<a xlink:href="LiquidTransportParams_8h.html" target="_top" xlink:title="Header file defining class LiquidTransportParams. ">
<polygon fill="white" stroke="black" points="311.5,-581 311.5,-601 434.5,-601 434.5,-581 311.5,-581"/>
<text text-anchor="middle" x="373" y="-588" font-family="FreeSans" font-size="10.00">LiquidTransportParams.h</text>
</a>
</g>
<!-- Node1&#45;&gt;Node16 -->
<g id="edge50" class="edge"><title>Node1&#45;&gt;Node16</title>
<path fill="none" stroke="midnightblue" d="M557.411,-638.963C519.637,-629.139 461.983,-614.144 421.21,-603.539"/>
<polygon fill="midnightblue" stroke="midnightblue" points="422.049,-600.141 411.49,-601.011 420.287,-606.915 422.049,-600.141"/>
</g>
<!-- Node3 -->
<g id="node5" class="node"><title>Node3</title>
<a xlink:href="ThermoPhase_8h.html" target="_top" xlink:title="Header file for class ThermoPhase, the base class for phases with thermodynamic properties, and the text for the Module thermoprops (see Thermodynamic Properties and class ThermoPhase). ">
<polygon fill="white" stroke="black" points="423,-291 423,-311 575,-311 575,-291 423,-291"/>
<text text-anchor="middle" x="499" y="-298" font-family="FreeSans" font-size="10.00">cantera/thermo/ThermoPhase.h</text>
</a>
</g>
<!-- Node2&#45;&gt;Node3 -->
<g id="edge4" class="edge"><title>Node2&#45;&gt;Node3</title>
<path fill="none" stroke="midnightblue" d="M487.439,-348.897C489.283,-341.257 491.875,-330.517 494.138,-321.143"/>
<polygon fill="midnightblue" stroke="midnightblue" points="497.551,-321.92 496.495,-311.378 490.746,-320.277 497.551,-321.92"/>
</g>
<!-- Node2&#45;&gt;Node14 -->
<g id="edge36" class="edge"><title>Node2&#45;&gt;Node14</title>
<path fill="none" stroke="midnightblue" d="M517.225,-348.897C548.035,-339.238 594.649,-324.624 628.282,-314.079"/>
<polygon fill="midnightblue" stroke="midnightblue" points="629.34,-317.416 637.835,-311.084 627.246,-310.736 629.34,-317.416"/>
</g>
<!-- Node4 -->
<g id="node7" class="node"><title>Node4</title>
<a xlink:href="Phase_8h.html" target="_top" xlink:title="Header file for class Phase. ">
<polygon fill="white" stroke="black" points="422.5,-233 422.5,-253 473.5,-253 473.5,-233 422.5,-233"/>
<text text-anchor="middle" x="448" y="-240" font-family="FreeSans" font-size="10.00">Phase.h</text>
</a>
</g>
<!-- Node3&#45;&gt;Node4 -->
<g id="edge6" class="edge"><title>Node3&#45;&gt;Node4</title>
<path fill="none" stroke="midnightblue" d="M490.116,-290.897C482.893,-282.682 472.518,-270.883 463.873,-261.051"/>
<polygon fill="midnightblue" stroke="midnightblue" points="466.357,-258.576 457.125,-253.378 461.1,-263.199 466.357,-258.576"/>
</g>
<!-- Node13 -->
<g id="node29" class="node"><title>Node13</title>
<a xlink:href="SpeciesThermo_8h.html" target="_top" xlink:title="Virtual base class for the calculation of multiple&#45;species thermodynamic reference&#45;state property man...">
<polygon fill="white" stroke="black" points="491,-233 491,-253 583,-253 583,-233 491,-233"/>
<text text-anchor="middle" x="537" y="-240" font-family="FreeSans" font-size="10.00">SpeciesThermo.h</text>
</a>
</g>
<!-- Node3&#45;&gt;Node13 -->
<g id="edge32" class="edge"><title>Node3&#45;&gt;Node13</title>
<path fill="none" stroke="midnightblue" d="M505.619,-290.897C510.84,-282.928 518.27,-271.587 524.59,-261.941"/>
<polygon fill="midnightblue" stroke="midnightblue" points="527.648,-263.66 530.201,-253.378 521.793,-259.824 527.648,-263.66"/>
</g>
<!-- Node5 -->
<g id="node9" class="node"><title>Node5</title>
<a xlink:href="vec__functions_8h.html" target="_top" xlink:title="Templates for operations on vector&#45;like objects. ">
<polygon fill="white" stroke="red" points="192,-117 192,-137 334,-137 334,-117 192,-117"/>
<text text-anchor="middle" x="263" y="-124" font-family="FreeSans" font-size="10.00">cantera/base/vec_functions.h</text>
</a>
</g>
<!-- Node4&#45;&gt;Node5 -->
<g id="edge8" class="edge"><title>Node4&#45;&gt;Node5</title>
<path fill="none" stroke="midnightblue" d="M422.364,-238.553C381.844,-231.046 305.581,-214.824 286,-196 272.815,-183.324 267.187,-162.904 264.786,-147.56"/>
<polygon fill="midnightblue" stroke="midnightblue" points="268.239,-146.967 263.545,-137.468 261.292,-147.82 268.239,-146.967"/>
</g>
<!-- Node9 -->
<g id="node17" class="node"><title>Node9</title>
<a xlink:href="ctml_8h.html" target="_top" xlink:title="CTML (&quot;Cantera Markup Language&quot;) is the variant of XML that Cantera uses to store data...">
<polygon fill="white" stroke="black" points="294.5,-175 294.5,-195 395.5,-195 395.5,-175 294.5,-175"/>
<text text-anchor="middle" x="345" y="-182" font-family="FreeSans" font-size="10.00">cantera/base/ctml.h</text>
</a>
</g>
<!-- Node4&#45;&gt;Node9 -->
<g id="edge16" class="edge"><title>Node4&#45;&gt;Node9</title>
<path fill="none" stroke="midnightblue" d="M430.059,-232.897C413.985,-223.846 390.185,-210.444 371.846,-200.117"/>
<polygon fill="midnightblue" stroke="midnightblue" points="373.512,-197.039 363.081,-195.182 370.077,-203.138 373.512,-197.039"/>
</g>
<!-- Node12 -->
<g id="node26" class="node"><title>Node12</title>
<a xlink:href="Elements_8h.html" target="_top" xlink:title="Contains the LookupWtElements function and the definitions of element constraint types. ">
<polygon fill="white" stroke="black" points="451,-175 451,-195 583,-195 583,-175 451,-175"/>
<text text-anchor="middle" x="517" y="-182" font-family="FreeSans" font-size="10.00">cantera/thermo/Elements.h</text>
</a>
</g>
<!-- Node4&#45;&gt;Node12 -->
<g id="edge28" class="edge"><title>Node4&#45;&gt;Node12</title>
<path fill="none" stroke="midnightblue" d="M460.019,-232.897C470.183,-224.353 484.959,-211.933 496.917,-201.881"/>
<polygon fill="midnightblue" stroke="midnightblue" points="499.251,-204.491 504.654,-195.378 494.747,-199.133 499.251,-204.491"/>
</g>
<!-- Node6 -->
<g id="node11" class="node"><title>Node6</title>
<a xlink:href="ct__defs_8h.html" target="_top" xlink:title="This file contains definitions of terms that are used in internal routines and are unlikely to need m...">
<polygon fill="white" stroke="red" points="410,-59 410,-79 466,-79 466,-59 410,-59"/>
<text text-anchor="middle" x="438" y="-66" font-family="FreeSans" font-size="10.00">ct_defs.h</text>
</a>
</g>
<!-- Node5&#45;&gt;Node6 -->
<g id="edge10" class="edge"><title>Node5&#45;&gt;Node6</title>
<path fill="none" stroke="midnightblue" d="M293.483,-116.897C323.085,-107.086 368.107,-92.1644 400.024,-81.5865"/>
<polygon fill="midnightblue" stroke="midnightblue" points="401.498,-84.785 409.889,-78.3167 399.296,-78.1405 401.498,-84.785"/>
</g>
<!-- Node8 -->
<g id="node15" class="node"><title>Node8</title>
<polygon fill="white" stroke="#bfbfbf" points="236.5,-59 236.5,-79 289.5,-79 289.5,-59 236.5,-59"/>
<text text-anchor="middle" x="263" y="-66" font-family="FreeSans" font-size="10.00">iostream</text>
</g>
<!-- Node5&#45;&gt;Node8 -->
<g id="edge14" class="edge"><title>Node5&#45;&gt;Node8</title>
<path fill="none" stroke="midnightblue" d="M263,-116.897C263,-109.339 263,-98.7476 263,-89.4458"/>
<polygon fill="midnightblue" stroke="midnightblue" points="266.5,-89.3776 263,-79.3776 259.5,-89.3776 266.5,-89.3776"/>
</g>
<!-- Node7 -->
<g id="node13" class="node"><title>Node7</title>
<polygon fill="white" stroke="#bfbfbf" points="232.5,-1 232.5,-21 275.5,-21 275.5,-1 232.5,-1"/>
<text text-anchor="middle" x="254" y="-8" font-family="FreeSans" font-size="10.00">vector</text>
</g>
<!-- Node6&#45;&gt;Node7 -->
<g id="edge12" class="edge"><title>Node6&#45;&gt;Node7</title>
<path fill="none" stroke="midnightblue" d="M409.653,-60.0646C376.073,-49.4794 320.299,-31.8987 285.426,-20.9062"/>
<polygon fill="midnightblue" stroke="midnightblue" points="286.341,-17.5248 275.752,-17.8565 284.237,-24.201 286.341,-17.5248"/>
</g>
<!-- Node9&#45;&gt;Node6 -->
<g id="edge18" class="edge"><title>Node9&#45;&gt;Node6</title>
<path fill="none" stroke="midnightblue" d="M348.772,-174.89C354.368,-160.745 365.857,-134.685 381,-116 390.431,-104.363 403.119,-93.5628 414.13,-85.2571"/>
<polygon fill="midnightblue" stroke="midnightblue" points="416.48,-87.8761 422.507,-79.1628 412.361,-82.2156 416.48,-87.8761"/>
</g>
<!-- Node10 -->
<g id="node20" class="node"><title>Node10</title>
<a xlink:href="xml_8h.html" target="_top" xlink:title="Classes providing support for XML data files. ">
<polygon fill="white" stroke="red" points="135.5,-117 135.5,-137 174.5,-137 174.5,-117 135.5,-117"/>
<text text-anchor="middle" x="155" y="-124" font-family="FreeSans" font-size="10.00">xml.h</text>
</a>
</g>
<!-- Node9&#45;&gt;Node10 -->
<g id="edge20" class="edge"><title>Node9&#45;&gt;Node10</title>
<path fill="none" stroke="midnightblue" d="M306.722,-174.963C275.827,-166.624 231.088,-154.018 184.461,-138.326"/>
<polygon fill="midnightblue" stroke="midnightblue" points="185.396,-134.947 174.802,-135.039 183.141,-141.574 185.396,-134.947"/>
</g>
<!-- Node11 -->
<g id="node22" class="node"><title>Node11</title>
<a xlink:href="Array_8h.html" target="_top" xlink:title="Header file for class Cantera::Array2D. ">
<polygon fill="white" stroke="red" points="389.5,-117 389.5,-137 436.5,-137 436.5,-117 389.5,-117"/>
<text text-anchor="middle" x="413" y="-124" font-family="FreeSans" font-size="10.00">Array.h</text>
</a>
</g>
<!-- Node9&#45;&gt;Node11 -->
<g id="edge22" class="edge"><title>Node9&#45;&gt;Node11</title>
<path fill="none" stroke="midnightblue" d="M356.845,-174.897C366.862,-166.353 381.423,-153.933 393.208,-143.881"/>
<polygon fill="midnightblue" stroke="midnightblue" points="395.496,-146.53 400.833,-137.378 390.953,-141.204 395.496,-146.53"/>
</g>
<!-- Node11&#45;&gt;Node6 -->
<g id="edge24" class="edge"><title>Node11&#45;&gt;Node6</title>
<path fill="none" stroke="midnightblue" d="M417.355,-116.897C420.683,-109.175 425.377,-98.2857 429.448,-88.841"/>
<polygon fill="midnightblue" stroke="midnightblue" points="432.783,-89.9463 433.527,-79.3776 426.354,-87.1754 432.783,-89.9463"/>
</g>
<!-- Node11&#45;&gt;Node8 -->
<g id="edge26" class="edge"><title>Node11&#45;&gt;Node8</title>
<path fill="none" stroke="midnightblue" d="M389.232,-117.81C364.772,-108.352 326.387,-93.5095 298.362,-82.6733"/>
<polygon fill="midnightblue" stroke="midnightblue" points="299.511,-79.365 288.921,-79.0229 296.986,-85.8939 299.511,-79.365"/>
</g>
<!-- Node12&#45;&gt;Node6 -->
<g id="edge30" class="edge"><title>Node12&#45;&gt;Node6</title>
<path fill="none" stroke="midnightblue" d="M512.018,-174.813C505.102,-161.022 491.869,-135.853 478,-116 470.932,-105.882 462.126,-95.3541 454.577,-86.8332"/>
<polygon fill="midnightblue" stroke="midnightblue" points="457.124,-84.4311 447.823,-79.3577 451.93,-89.124 457.124,-84.4311"/>
</g>
<!-- Node13&#45;&gt;Node6 -->
<g id="edge34" class="edge"><title>Node13&#45;&gt;Node6</title>
<path fill="none" stroke="midnightblue" d="M555.212,-232.891C575.588,-220.166 604.24,-197.16 592,-174 567.641,-127.909 512.952,-98.2459 475.754,-82.5875"/>
<polygon fill="midnightblue" stroke="midnightblue" points="476.817,-79.2417 466.234,-78.7235 474.184,-85.7277 476.817,-79.2417"/>
</g>
<!-- Node14&#45;&gt;Node6 -->
<g id="edge38" class="edge"><title>Node14&#45;&gt;Node6</title>
<path fill="none" stroke="midnightblue" d="M670.197,-290.708C670.096,-276.797 668.591,-251.495 660,-232 633.128,-171.02 619.254,-154.693 565,-116 538.099,-96.8142 502.457,-84.5285 475.78,-77.3492"/>
<polygon fill="midnightblue" stroke="midnightblue" points="476.588,-73.9432 466.031,-74.844 474.845,-80.7229 476.588,-73.9432"/>
</g>
<!-- Node14&#45;&gt;Node11 -->
<g id="edge40" class="edge"><title>Node14&#45;&gt;Node11</title>
<path fill="none" stroke="midnightblue" d="M666.779,-290.948C658.512,-266.818 634.181,-205.301 592,-174 569.08,-156.992 491.762,-140.955 446.589,-132.732"/>
<polygon fill="midnightblue" stroke="midnightblue" points="447.118,-129.271 436.658,-130.956 445.886,-136.162 447.118,-129.271"/>
</g>
<!-- Node15&#45;&gt;Node2 -->
<g id="edge48" class="edge"><title>Node15&#45;&gt;Node2</title>
<path fill="none" stroke="midnightblue" d="M542.409,-464.706C531.828,-445.223 508.734,-402.7 495.283,-377.934"/>
<polygon fill="midnightblue" stroke="midnightblue" points="498.337,-376.223 490.488,-369.106 492.185,-379.564 498.337,-376.223"/>
</g>
<!-- Node15&#45;&gt;Node14 -->
<g id="edge46" class="edge"><title>Node15&#45;&gt;Node14</title>
<path fill="none" stroke="midnightblue" d="M555.087,-464.893C574.965,-436.542 631.466,-355.959 657.087,-319.418"/>
<polygon fill="midnightblue" stroke="midnightblue" points="660.019,-321.332 662.894,-311.135 654.287,-317.314 660.019,-321.332"/>
</g>
<!-- Node16&#45;&gt;Node2 -->
<g id="edge52" class="edge"><title>Node16&#45;&gt;Node2</title>
<path fill="none" stroke="midnightblue" d="M394.231,-580.993C408.948,-572.987 427.836,-560.394 439,-544 474.3,-492.163 482.545,-415.704 484.447,-379.475"/>
<polygon fill="midnightblue" stroke="midnightblue" points="487.955,-379.344 484.867,-369.209 480.961,-379.057 487.955,-379.344"/>
</g>
<!-- Node16&#45;&gt;Node10 -->
<g id="edge86" class="edge"><title>Node16&#45;&gt;Node10</title>
<path fill="none" stroke="midnightblue" d="M353.25,-580.837C335.969,-571.736 310.361,-557.744 289,-544 202.734,-488.498 151,-461.578 151,-359 151,-359 151,-359 151,-301 151,-245.319 153.073,-179.643 154.234,-147.211"/>
<polygon fill="midnightblue" stroke="midnightblue" points="157.732,-147.318 154.602,-137.196 150.737,-147.061 157.732,-147.318"/>
</g>
<!-- Node16&#45;&gt;Node15 -->
<g id="edge54" class="edge"><title>Node16&#45;&gt;Node15</title>
<path fill="none" stroke="midnightblue" d="M407.291,-580.936C430.528,-573.115 461.216,-560.768 485,-544 504.949,-529.936 523.212,-508.567 534.879,-493.339"/>
<polygon fill="midnightblue" stroke="midnightblue" points="537.785,-495.296 540.949,-485.185 532.17,-491.116 537.785,-495.296"/>
</g>
<!-- Node17 -->
<g id="node45" class="node"><title>Node17</title>
<a xlink:href="LiquidTransportData_8h.html" target="_top" xlink:title="Header file defining class LiquidTransportData. ">
<polygon fill="white" stroke="black" points="219,-465 219,-485 329,-485 329,-465 219,-465"/>
<text text-anchor="middle" x="274" y="-472" font-family="FreeSans" font-size="10.00">LiquidTransportData.h</text>
</a>
</g>
<!-- Node16&#45;&gt;Node17 -->
<g id="edge56" class="edge"><title>Node16&#45;&gt;Node17</title>
<path fill="none" stroke="midnightblue" d="M353.938,-580.96C339.556,-572.618 320.125,-559.613 307,-544 294.761,-529.441 285.887,-509.574 280.444,-494.895"/>
<polygon fill="midnightblue" stroke="midnightblue" points="283.686,-493.564 277.088,-485.275 277.077,-495.869 283.686,-493.564"/>
</g>
<!-- Node20 -->
<g id="node55" class="node"><title>Node20</title>
<a xlink:href="LiquidTranInteraction_8h.html" target="_top" xlink:title="Header file defining the class LiquidTranInteraction and classes which derive from LiquidTranInteract...">
<polygon fill="white" stroke="black" points="315.5,-523 315.5,-543 430.5,-543 430.5,-523 315.5,-523"/>
<text text-anchor="middle" x="373" y="-530" font-family="FreeSans" font-size="10.00">LiquidTranInteraction.h</text>
</a>
</g>
<!-- Node16&#45;&gt;Node20 -->
<g id="edge70" class="edge"><title>Node16&#45;&gt;Node20</title>
<path fill="none" stroke="midnightblue" d="M373,-580.897C373,-573.339 373,-562.748 373,-553.446"/>
<polygon fill="midnightblue" stroke="midnightblue" points="376.5,-553.378 373,-543.378 369.5,-553.378 376.5,-553.378"/>
</g>
<!-- Node21 -->
<g id="node62" class="node"><title>Node21</title>
<a xlink:href="XML__Writer_8h_source.html" target="_top" xlink:title="cantera/base/XML_Writer.h">
<polygon fill="white" stroke="black" points="0,-465 0,-485 134,-485 134,-465 0,-465"/>
<text text-anchor="middle" x="67" y="-472" font-family="FreeSans" font-size="10.00">cantera/base/XML_Writer.h</text>
</a>
</g>
<!-- Node16&#45;&gt;Node21 -->
<g id="edge88" class="edge"><title>Node16&#45;&gt;Node21</title>
<path fill="none" stroke="midnightblue" d="M311.113,-586.406C264.34,-581.002 199.599,-569.292 148,-544 122.151,-531.33 97.7569,-508.517 82.6253,-492.604"/>
<polygon fill="midnightblue" stroke="midnightblue" points="84.9563,-489.97 75.5981,-485.003 79.8161,-494.722 84.9563,-489.97"/>
</g>
<!-- Node17&#45;&gt;Node2 -->
<g id="edge58" class="edge"><title>Node17&#45;&gt;Node2</title>
<path fill="none" stroke="midnightblue" d="M292.356,-464.909C329.533,-444.47 413.899,-398.089 457.607,-374.06"/>
<polygon fill="midnightblue" stroke="midnightblue" points="459.46,-377.035 466.536,-369.151 456.087,-370.901 459.46,-377.035"/>
</g>
<!-- Node18 -->
<g id="node48" class="node"><title>Node18</title>
<a xlink:href="FactoryBase_8h.html" target="_top" xlink:title="File contains the FactoryBase class declarations. ">
<polygon fill="white" stroke="black" points="178.5,-349 178.5,-369 315.5,-369 315.5,-349 178.5,-349"/>
<text text-anchor="middle" x="247" y="-356" font-family="FreeSans" font-size="10.00">cantera/base/FactoryBase.h</text>
</a>
</g>
<!-- Node17&#45;&gt;Node18 -->
<g id="edge60" class="edge"><title>Node17&#45;&gt;Node18</title>
<path fill="none" stroke="midnightblue" d="M249.868,-464.909C234.845,-457.206 216.766,-445.004 208,-428 198.743,-410.044 212.93,-389.99 226.716,-376.15"/>
<polygon fill="midnightblue" stroke="midnightblue" points="229.279,-378.545 234.182,-369.153 224.492,-373.437 229.279,-378.545"/>
</g>
<!-- Node19 -->
<g id="node51" class="node"><title>Node19</title>
<a xlink:href="LTPspecies_8h.html" target="_top" xlink:title="Header file defining class LTPspecies and its child classes. ">
<polygon fill="white" stroke="black" points="217,-407 217,-427 291,-427 291,-407 217,-407"/>
<text text-anchor="middle" x="254" y="-414" font-family="FreeSans" font-size="10.00">LTPspecies.h</text>
</a>
</g>
<!-- Node17&#45;&gt;Node19 -->
<g id="edge64" class="edge"><title>Node17&#45;&gt;Node19</title>
<path fill="none" stroke="midnightblue" d="M270.516,-464.897C267.853,-457.175 264.099,-446.286 260.842,-436.841"/>
<polygon fill="midnightblue" stroke="midnightblue" points="264.147,-435.69 257.578,-427.378 257.53,-437.972 264.147,-435.69"/>
</g>
<!-- Node18&#45;&gt;Node7 -->
<g id="edge62" class="edge"><title>Node18&#45;&gt;Node7</title>
<path fill="none" stroke="midnightblue" d="M234.907,-348.88C196.783,-315.699 84.115,-207.1 127,-116 146.821,-73.8942 192.732,-42.9026 223.573,-25.902"/>
<polygon fill="midnightblue" stroke="midnightblue" points="225.439,-28.8734 232.615,-21.0783 222.144,-22.6973 225.439,-28.8734"/>
</g>
<!-- Node19&#45;&gt;Node2 -->
<g id="edge66" class="edge"><title>Node19&#45;&gt;Node2</title>
<path fill="none" stroke="midnightblue" d="M291.114,-407.681C330.16,-397.878 391.834,-382.392 435.114,-371.525"/>
<polygon fill="midnightblue" stroke="midnightblue" points="436.028,-374.905 444.874,-369.075 434.323,-368.116 436.028,-374.905"/>
</g>
<!-- Node19&#45;&gt;Node18 -->
<g id="edge68" class="edge"><title>Node19&#45;&gt;Node18</title>
<path fill="none" stroke="midnightblue" d="M252.781,-406.897C251.869,-399.339 250.59,-388.748 249.468,-379.446"/>
<polygon fill="midnightblue" stroke="midnightblue" points="252.926,-378.886 248.252,-369.378 245.976,-379.725 252.926,-378.886"/>
</g>
<!-- Node20&#45;&gt;Node2 -->
<g id="edge74" class="edge"><title>Node20&#45;&gt;Node2</title>
<path fill="none" stroke="midnightblue" d="M381.357,-522.799C388.887,-513.444 400.109,-499.096 409,-486 410.74,-483.437 452.995,-412.652 473.731,-377.894"/>
<polygon fill="midnightblue" stroke="midnightblue" points="476.84,-379.514 478.957,-369.133 470.828,-375.928 476.84,-379.514"/>
</g>
<!-- Node20&#45;&gt;Node6 -->
<g id="edge72" class="edge"><title>Node20&#45;&gt;Node6</title>
<path fill="none" stroke="midnightblue" d="M376.246,-522.881C382.366,-502.878 395,-456.766 395,-417 395,-417 395,-417 395,-301 395,-225.224 432.982,-212.817 445,-138 447.622,-121.678 445.418,-103.017 442.811,-89.22"/>
<polygon fill="midnightblue" stroke="midnightblue" points="446.213,-88.3938 440.717,-79.336 439.365,-89.8442 446.213,-88.3938"/>
</g>
<!-- Node20&#45;&gt;Node10 -->
<g id="edge80" class="edge"><title>Node20&#45;&gt;Node10</title>
<path fill="none" stroke="midnightblue" d="M371.743,-522.887C367.885,-494.2 354.572,-410.35 324,-348 282.659,-263.687 206.641,-179.975 172.458,-144.578"/>
<polygon fill="midnightblue" stroke="midnightblue" points="174.573,-141.733 165.083,-137.021 169.563,-146.622 174.573,-141.733"/>
</g>
<!-- Node20&#45;&gt;Node15 -->
<g id="edge76" class="edge"><title>Node20&#45;&gt;Node15</title>
<path fill="none" stroke="midnightblue" d="M403.483,-522.897C432.378,-513.321 475.966,-498.874 507.715,-488.352"/>
<polygon fill="midnightblue" stroke="midnightblue" points="509.182,-491.553 517.574,-485.084 506.98,-484.908 509.182,-491.553"/>
</g>
<!-- Node20&#45;&gt;Node17 -->
<g id="edge78" class="edge"><title>Node20&#45;&gt;Node17</title>
<path fill="none" stroke="midnightblue" d="M355.756,-522.897C340.376,-513.887 317.639,-500.567 300.045,-490.259"/>
<polygon fill="midnightblue" stroke="midnightblue" points="301.777,-487.217 291.379,-485.182 298.238,-493.257 301.777,-487.217"/>
</g>
<!-- Node20&#45;&gt;Node21 -->
<g id="edge82" class="edge"><title>Node20&#45;&gt;Node21</title>
<path fill="none" stroke="midnightblue" d="M320.048,-522.963C267.229,-512.952 186.082,-497.571 129.986,-486.938"/>
<polygon fill="midnightblue" stroke="midnightblue" points="130.292,-483.434 119.816,-485.011 128.989,-490.312 130.292,-483.434"/>
</g>
<!-- Node21&#45;&gt;Node8 -->
<g id="edge84" class="edge"><title>Node21&#45;&gt;Node8</title>
<path fill="none" stroke="midnightblue" d="M68.4755,-464.784C71.2572,-444.611 77,-398.214 77,-359 77,-359 77,-359 77,-243 77,-182.339 83.2079,-157.977 127,-116 154.021,-90.0987 196.001,-78.4164 226.172,-73.1815"/>
<polygon fill="midnightblue" stroke="midnightblue" points="226.974,-76.5985 236.308,-71.586 225.885,-69.6837 226.974,-76.5985"/>
</g>
</g>
</svg>
