<?xml version="1.0" encoding="UTF-8" standalone="no"?>
<!DOCTYPE svg PUBLIC "-//W3C//DTD SVG 1.1//EN"
 "http://www.w3.org/Graphics/SVG/1.1/DTD/svg11.dtd">
<!-- Generated by graphviz version 2.28.0 (20120425.2022)
 -->
<!-- Title: SimpleThermo.h Pages: 1 -->
<svg width="566pt" height="252pt"
 viewBox="0.00 0.00 566.00 252.00" xmlns="http://www.w3.org/2000/svg" xmlns:xlink="http://www.w3.org/1999/xlink">
<g id="graph1" class="graph" transform="scale(1 1) rotate(0) translate(4 248)">
<title>SimpleThermo.h</title>
<polygon fill="white" stroke="white" points="-4,5 -4,-248 563,-248 563,5 -4,5"/>
<!-- Node1 -->
<g id="node1" class="node"><title>Node1</title>
<polygon fill="#bfbfbf" stroke="black" points="317.5,-224.5 317.5,-243.5 408.5,-243.5 408.5,-224.5 317.5,-224.5"/>
<text text-anchor="middle" x="363" y="-231.5" font-family="FreeSans" font-size="10.00">SimpleThermo.h</text>
</g>
<!-- Node2 -->
<g id="node3" class="node"><title>Node2</title>
<a xlink:href="SpeciesThermoMgr_8h.html" target="_top" xlink:title="This file contains descriptions of templated subclasses of the virtual base class, SpeciesThermo, which includes SpeciesThermoDuo (see Managers for Calculating Reference&#45;State Thermodynamics and class SpeciesThermoDuo) ">
<polygon fill="white" stroke="black" points="168,-168.5 168,-187.5 282,-187.5 282,-168.5 168,-168.5"/>
<text text-anchor="middle" x="225" y="-175.5" font-family="FreeSans" font-size="10.00">SpeciesThermoMgr.h</text>
</a>
</g>
<!-- Node1&#45;&gt;Node2 -->
<g id="edge2" class="edge"><title>Node1&#45;&gt;Node2</title>
<path fill="none" stroke="midnightblue" d="M341.133,-224.444C318.221,-215.478 282.025,-201.314 256.134,-191.183"/>
<polygon fill="midnightblue" stroke="midnightblue" points="257.352,-187.901 246.764,-187.516 254.801,-194.42 257.352,-187.901"/>
</g>
<!-- Node14 -->
<g id="node31" class="node"><title>Node14</title>
<a xlink:href="speciesThermoTypes_8h.html" target="_top" xlink:title="Contains const definitions for types of species reference&#45;state thermodynamics managers (see Species ...">
<polygon fill="white" stroke="black" points="300.5,-168.5 300.5,-187.5 425.5,-187.5 425.5,-168.5 300.5,-168.5"/>
<text text-anchor="middle" x="363" y="-175.5" font-family="FreeSans" font-size="10.00">speciesThermoTypes.h</text>
</a>
</g>
<!-- Node1&#45;&gt;Node14 -->
<g id="edge34" class="edge"><title>Node1&#45;&gt;Node14</title>
<path fill="none" stroke="midnightblue" d="M363,-224.083C363,-217.006 363,-206.861 363,-197.986"/>
<polygon fill="midnightblue" stroke="midnightblue" points="366.5,-197.751 363,-187.751 359.5,-197.751 366.5,-197.751"/>
</g>
<!-- Node15 -->
<g id="node33" class="node"><title>Node15</title>
<a xlink:href="global_8h.html" target="_top" xlink:title="This file contains definitions for utility functions and text for modules, inputfiles, logs, textlogs, HTML_logs (see Input File Handling, Diagnostic Output, Writing messages to the screen and Writing HTML Logfiles). ">
<polygon fill="white" stroke="black" points="444,-168.5 444,-187.5 558,-187.5 558,-168.5 444,-168.5"/>
<text text-anchor="middle" x="501" y="-175.5" font-family="FreeSans" font-size="10.00">cantera/base/global.h</text>
</a>
</g>
<!-- Node1&#45;&gt;Node15 -->
<g id="edge36" class="edge"><title>Node1&#45;&gt;Node15</title>
<path fill="none" stroke="midnightblue" d="M384.867,-224.444C407.779,-215.478 443.975,-201.314 469.866,-191.183"/>
<polygon fill="midnightblue" stroke="midnightblue" points="471.199,-194.42 479.236,-187.516 468.648,-187.901 471.199,-194.42"/>
</g>
<!-- Node3 -->
<g id="node5" class="node"><title>Node3</title>
<a xlink:href="ct__defs_8h.html" target="_top" xlink:title="This file contains definitions of terms that are used in internal routines and are unlikely to need m...">
<polygon fill="white" stroke="black" points="298.5,-56.5 298.5,-75.5 417.5,-75.5 417.5,-56.5 298.5,-56.5"/>
<text text-anchor="middle" x="358" y="-63.5" font-family="FreeSans" font-size="10.00">cantera/base/ct_defs.h</text>
</a>
</g>
<!-- Node2&#45;&gt;Node3 -->
<g id="edge4" class="edge"><title>Node2&#45;&gt;Node3</title>
<path fill="none" stroke="midnightblue" d="M274.222,-168.454C326.962,-158.799 404.322,-143.001 413,-132 427.196,-114.005 404.019,-93.9629 383.533,-80.9553"/>
<polygon fill="midnightblue" stroke="midnightblue" points="385.119,-77.8249 374.745,-75.6722 381.512,-83.8243 385.119,-77.8249"/>
</g>
<!-- Node10 -->
<g id="node19" class="node"><title>Node10</title>
<a xlink:href="ctexceptions_8h.html" target="_top" xlink:title="Definitions for the classes that are thrown when Cantera experiences an error condition (also contain...">
<polygon fill="white" stroke="black" points="-0.5,-112.5 -0.5,-131.5 142.5,-131.5 142.5,-112.5 -0.5,-112.5"/>
<text text-anchor="middle" x="71" y="-119.5" font-family="FreeSans" font-size="10.00">cantera/base/ctexceptions.h</text>
</a>
</g>
<!-- Node2&#45;&gt;Node10 -->
<g id="edge18" class="edge"><title>Node2&#45;&gt;Node10</title>
<path fill="none" stroke="midnightblue" d="M200.598,-168.444C174.803,-159.399 133.923,-145.064 104.982,-134.916"/>
<polygon fill="midnightblue" stroke="midnightblue" points="105.882,-131.523 95.2876,-131.516 103.566,-138.128 105.882,-131.523"/>
</g>
<!-- Node12 -->
<g id="node24" class="node"><title>Node12</title>
<a xlink:href="stringUtils_8h.html" target="_top" xlink:title="Contains declarations for string manipulation functions within Cantera. ">
<polygon fill="white" stroke="black" points="160.5,-112.5 160.5,-131.5 289.5,-131.5 289.5,-112.5 160.5,-112.5"/>
<text text-anchor="middle" x="225" y="-119.5" font-family="FreeSans" font-size="10.00">cantera/base/stringUtils.h</text>
</a>
</g>
<!-- Node2&#45;&gt;Node12 -->
<g id="edge24" class="edge"><title>Node2&#45;&gt;Node12</title>
<path fill="none" stroke="midnightblue" d="M225,-168.083C225,-161.006 225,-150.861 225,-141.986"/>
<polygon fill="midnightblue" stroke="midnightblue" points="228.5,-141.751 225,-131.751 221.5,-141.751 228.5,-141.751"/>
</g>
<!-- Node13 -->
<g id="node28" class="node"><title>Node13</title>
<a xlink:href="SpeciesThermo_8h.html" target="_top" xlink:title="Virtual base class for the calculation of multiple&#45;species thermodynamic reference&#45;state property man...">
<polygon fill="white" stroke="black" points="307.5,-112.5 307.5,-131.5 404.5,-131.5 404.5,-112.5 307.5,-112.5"/>
<text text-anchor="middle" x="356" y="-119.5" font-family="FreeSans" font-size="10.00">SpeciesThermo.h</text>
</a>
</g>
<!-- Node2&#45;&gt;Node13 -->
<g id="edge30" class="edge"><title>Node2&#45;&gt;Node13</title>
<path fill="none" stroke="midnightblue" d="M245.757,-168.444C267.316,-159.557 301.263,-145.563 325.794,-135.451"/>
<polygon fill="midnightblue" stroke="midnightblue" points="327.428,-138.563 335.34,-131.516 324.761,-132.092 327.428,-138.563"/>
</g>
<!-- Node4 -->
<g id="node7" class="node"><title>Node4</title>
<a xlink:href="config_8h_source.html" target="_top" xlink:title="config.h">
<polygon fill="white" stroke="black" points="476.5,-0.5 476.5,-19.5 527.5,-19.5 527.5,-0.5 476.5,-0.5"/>
<text text-anchor="middle" x="502" y="-7.5" font-family="FreeSans" font-size="10.00">config.h</text>
</a>
</g>
<!-- Node3&#45;&gt;Node4 -->
<g id="edge6" class="edge"><title>Node3&#45;&gt;Node4</title>
<path fill="none" stroke="midnightblue" d="M380.817,-56.4435C404.832,-47.4381 442.829,-33.1891 469.869,-23.049"/>
<polygon fill="midnightblue" stroke="midnightblue" points="471.155,-26.3049 479.29,-19.5164 468.697,-19.7506 471.155,-26.3049"/>
</g>
<!-- Node5 -->
<g id="node9" class="node"><title>Node5</title>
<polygon fill="white" stroke="#bfbfbf" points="234,-0.5 234,-19.5 278,-19.5 278,-0.5 234,-0.5"/>
<text text-anchor="middle" x="256" y="-7.5" font-family="FreeSans" font-size="10.00">cmath</text>
</g>
<!-- Node3&#45;&gt;Node5 -->
<g id="edge8" class="edge"><title>Node3&#45;&gt;Node5</title>
<path fill="none" stroke="midnightblue" d="M341.612,-56.324C325.329,-47.7034 300.133,-34.3643 281.284,-24.3855"/>
<polygon fill="midnightblue" stroke="midnightblue" points="282.823,-21.2402 272.347,-19.6545 279.548,-27.4267 282.823,-21.2402"/>
</g>
<!-- Node6 -->
<g id="node11" class="node"><title>Node6</title>
<polygon fill="white" stroke="#bfbfbf" points="296.5,-0.5 296.5,-19.5 341.5,-19.5 341.5,-0.5 296.5,-0.5"/>
<text text-anchor="middle" x="319" y="-7.5" font-family="FreeSans" font-size="10.00">cstdlib</text>
</g>
<!-- Node3&#45;&gt;Node6 -->
<g id="edge10" class="edge"><title>Node3&#45;&gt;Node6</title>
<path fill="none" stroke="midnightblue" d="M351.56,-56.083C346.051,-48.4554 337.969,-37.2645 331.235,-27.9408"/>
<polygon fill="midnightblue" stroke="midnightblue" points="334.013,-25.8087 325.32,-19.7511 328.338,-29.9071 334.013,-25.8087"/>
</g>
<!-- Node7 -->
<g id="node13" class="node"><title>Node7</title>
<polygon fill="white" stroke="#bfbfbf" points="360,-0.5 360,-19.5 404,-19.5 404,-0.5 360,-0.5"/>
<text text-anchor="middle" x="382" y="-7.5" font-family="FreeSans" font-size="10.00">vector</text>
</g>
<!-- Node3&#45;&gt;Node7 -->
<g id="edge12" class="edge"><title>Node3&#45;&gt;Node7</title>
<path fill="none" stroke="midnightblue" d="M361.963,-56.083C365.213,-48.77 369.919,-38.1814 373.954,-29.1034"/>
<polygon fill="midnightblue" stroke="midnightblue" points="377.248,-30.3107 378.111,-19.7511 370.851,-27.4677 377.248,-30.3107"/>
</g>
<!-- Node8 -->
<g id="node15" class="node"><title>Node8</title>
<polygon fill="white" stroke="#bfbfbf" points="422,-0.5 422,-19.5 458,-19.5 458,-0.5 422,-0.5"/>
<text text-anchor="middle" x="440" y="-7.5" font-family="FreeSans" font-size="10.00">map</text>
</g>
<!-- Node3&#45;&gt;Node8 -->
<g id="edge14" class="edge"><title>Node3&#45;&gt;Node8</title>
<path fill="none" stroke="midnightblue" d="M371.175,-56.324C383.847,-47.979 403.233,-35.2122 418.206,-25.3524"/>
<polygon fill="midnightblue" stroke="midnightblue" points="420.431,-28.0776 426.858,-19.6545 416.581,-22.2313 420.431,-28.0776"/>
</g>
<!-- Node9 -->
<g id="node17" class="node"><title>Node9</title>
<polygon fill="white" stroke="#bfbfbf" points="174.5,-0.5 174.5,-19.5 215.5,-19.5 215.5,-0.5 174.5,-0.5"/>
<text text-anchor="middle" x="195" y="-7.5" font-family="FreeSans" font-size="10.00">string</text>
</g>
<!-- Node3&#45;&gt;Node9 -->
<g id="edge16" class="edge"><title>Node3&#45;&gt;Node9</title>
<path fill="none" stroke="midnightblue" d="M332.172,-56.4435C303.138,-46.8247 256.046,-31.2238 225.297,-21.0372"/>
<polygon fill="midnightblue" stroke="midnightblue" points="226.139,-17.6291 215.546,-17.8067 223.938,-24.2739 226.139,-17.6291"/>
</g>
<!-- Node10&#45;&gt;Node9 -->
<g id="edge22" class="edge"><title>Node10&#45;&gt;Node9</title>
<path fill="none" stroke="midnightblue" d="M80.7301,-112.368C101.646,-93.8137 151.135,-49.9129 177.598,-26.4376"/>
<polygon fill="midnightblue" stroke="midnightblue" points="180.157,-28.8459 185.315,-19.5914 175.512,-23.6093 180.157,-28.8459"/>
</g>
<!-- Node11 -->
<g id="node21" class="node"><title>Node11</title>
<polygon fill="white" stroke="#bfbfbf" points="41,-56.5 41,-75.5 101,-75.5 101,-56.5 41,-56.5"/>
<text text-anchor="middle" x="71" y="-63.5" font-family="FreeSans" font-size="10.00">exception</text>
</g>
<!-- Node10&#45;&gt;Node11 -->
<g id="edge20" class="edge"><title>Node10&#45;&gt;Node11</title>
<path fill="none" stroke="midnightblue" d="M71,-112.083C71,-105.006 71,-94.8611 71,-85.9865"/>
<polygon fill="midnightblue" stroke="midnightblue" points="74.5001,-85.751 71,-75.7511 67.5001,-85.7511 74.5001,-85.751"/>
</g>
<!-- Node12&#45;&gt;Node3 -->
<g id="edge26" class="edge"><title>Node12&#45;&gt;Node3</title>
<path fill="none" stroke="midnightblue" d="M246.074,-112.444C268.06,-103.517 302.734,-89.4387 327.664,-79.3168"/>
<polygon fill="midnightblue" stroke="midnightblue" points="329.076,-82.5213 337.024,-75.5164 326.442,-76.0355 329.076,-82.5213"/>
</g>
<!-- Node12&#45;&gt;Node9 -->
<g id="edge28" class="edge"><title>Node12&#45;&gt;Node9</title>
<path fill="none" stroke="midnightblue" d="M222.646,-112.368C217.783,-94.5366 206.535,-53.2953 199.983,-29.2717"/>
<polygon fill="midnightblue" stroke="midnightblue" points="203.351,-28.3181 197.343,-19.5914 196.598,-30.16 203.351,-28.3181"/>
</g>
<!-- Node13&#45;&gt;Node3 -->
<g id="edge32" class="edge"><title>Node13&#45;&gt;Node3</title>
<path fill="none" stroke="midnightblue" d="M356.33,-112.083C356.592,-105.006 356.968,-94.8611 357.297,-85.9865"/>
<polygon fill="midnightblue" stroke="midnightblue" points="360.803,-85.8738 357.676,-75.7511 353.808,-85.6147 360.803,-85.8738"/>
</g>
<!-- Node15&#45;&gt;Node3 -->
<g id="edge38" class="edge"><title>Node15&#45;&gt;Node3</title>
<path fill="none" stroke="midnightblue" d="M492.702,-168.46C479.884,-155.494 454.214,-130.406 430,-112 414.79,-100.438 396.526,-89.0492 382.199,-80.6212"/>
<polygon fill="midnightblue" stroke="midnightblue" points="383.831,-77.5222 373.424,-75.5384 380.323,-83.5794 383.831,-77.5222"/>
</g>
</g>
</svg>
