<?xml version="1.0" encoding="UTF-8" standalone="no"?>
<!DOCTYPE svg PUBLIC "-//W3C//DTD SVG 1.1//EN"
 "http://www.w3.org/Graphics/SVG/1.1/DTD/svg11.dtd">
<!-- Generated by graphviz version 2.26.3 (20100126.1600)
 -->
<!-- Title: SingleSpeciesTP.h Pages: 1 -->
<svg width="926pt" height="320pt"
 viewBox="0.00 0.00 926.00 320.00" xmlns="http://www.w3.org/2000/svg" xmlns:xlink="http://www.w3.org/1999/xlink">
<g id="graph1" class="graph" transform="scale(1 1) rotate(0) translate(4 316)">
<title>SingleSpeciesTP.h</title>
<polygon fill="white" stroke="white" points="-4,5 -4,-316 923,-316 923,5 -4,5"/>
<!-- Node1 -->
<g id="node1" class="node"><title>Node1</title>
<polygon fill="#bfbfbf" stroke="black" points="430,-291 430,-311 528,-311 528,-291 430,-291"/>
<text text-anchor="middle" x="479" y="-298" font-family="FreeSans" font-size="10.00">SingleSpeciesTP.h</text>
</g>
<!-- Node2 -->
<g id="node3" class="node"><title>Node2</title>
<a xlink:href="MetalSHEelectrons_8cpp.html" target="_top" xlink:title="Definition file for the MetalSHEElectrons class, which represents the electrons in a metal that are c...">
<polygon fill="white" stroke="black" points="339.5,-175 339.5,-195 456.5,-195 456.5,-175 339.5,-175"/>
<text text-anchor="middle" x="398" y="-182" font-family="FreeSans" font-size="10.00">MetalSHEelectrons.cpp</text>
</a>
</g>
<!-- Node1&#45;&gt;Node2 -->
<g id="edge2" class="edge"><title>Node1&#45;&gt;Node2</title>
<path fill="none" stroke="midnightblue" d="M451.244,-285.651C439.125,-277.664 425.717,-266.868 417,-254 404.596,-235.69 400.255,-209.483 398.762,-195.214"/>
<polygon fill="midnightblue" stroke="midnightblue" points="449.419,-288.637 459.756,-290.959 453.123,-282.698 449.419,-288.637"/>
</g>
<!-- Node3 -->
<g id="node5" class="node"><title>Node3</title>
<a xlink:href="SingleSpeciesTP_8cpp.html" target="_top" xlink:title="Definitions for the SingleSpeciesTP class, which is a filter class for ThermoPhase, that eases the construction of single species phases ( see Thermodynamic Properties and class SingleSpeciesTP). ">
<polygon fill="white" stroke="black" points="261.5,-233 261.5,-253 370.5,-253 370.5,-233 261.5,-233"/>
<text text-anchor="middle" x="316" y="-240" font-family="FreeSans" font-size="10.00">SingleSpeciesTP.cpp</text>
</a>
</g>
<!-- Node1&#45;&gt;Node3 -->
<g id="edge4" class="edge"><title>Node1&#45;&gt;Node3</title>
<path fill="none" stroke="midnightblue" d="M441.035,-287.491C411.482,-276.975 371.119,-262.613 344.34,-253.084"/>
<polygon fill="midnightblue" stroke="midnightblue" points="440.013,-290.842 450.608,-290.897 442.36,-284.247 440.013,-290.842"/>
</g>
<!-- Node4 -->
<g id="node7" class="node"><title>Node4</title>
<a xlink:href="WaterSSTP_8h.html" target="_top" xlink:title="Declares a ThermoPhase class consisting of pure water (see Thermodynamic Properties and class WaterSS...">
<polygon fill="white" stroke="black" points="142,-233 142,-253 218,-253 218,-233 142,-233"/>
<text text-anchor="middle" x="180" y="-240" font-family="FreeSans" font-size="10.00">WaterSSTP.h</text>
</a>
</g>
<!-- Node1&#45;&gt;Node4 -->
<g id="edge6" class="edge"><title>Node1&#45;&gt;Node4</title>
<path fill="none" stroke="midnightblue" d="M419.892,-289.534C360.001,-277.917 269.124,-260.288 218.14,-250.398"/>
<polygon fill="midnightblue" stroke="midnightblue" points="419.478,-293.019 429.961,-291.487 420.811,-286.147 419.478,-293.019"/>
</g>
<!-- Node12 -->
<g id="node24" class="node"><title>Node12</title>
<a xlink:href="FixedChemPotSSTP_8h.html" target="_top" xlink:title="Header file for the FixedChemPotSSTP class, which represents a fixed&#45;composition incompressible subst...">
<polygon fill="white" stroke="black" points="550,-233 550,-253 664,-253 664,-233 550,-233"/>
<text text-anchor="middle" x="607" y="-240" font-family="FreeSans" font-size="10.00">FixedChemPotSSTP.h</text>
</a>
</g>
<!-- Node1&#45;&gt;Node12 -->
<g id="edge24" class="edge"><title>Node1&#45;&gt;Node12</title>
<path fill="none" stroke="midnightblue" d="M510.616,-286.674C533.559,-276.278 564.042,-262.465 584.53,-253.182"/>
<polygon fill="midnightblue" stroke="midnightblue" points="508.96,-283.582 501.296,-290.897 511.849,-289.958 508.96,-283.582"/>
</g>
<!-- Node15 -->
<g id="node30" class="node"><title>Node15</title>
<a xlink:href="MetalSHEelectrons_8h.html" target="_top" xlink:title="Header file for the MetalSHEElectrons class, which represents the electrons in a metal that are consi...">
<polygon fill="white" stroke="black" points="425.5,-233 425.5,-253 532.5,-253 532.5,-233 425.5,-233"/>
<text text-anchor="middle" x="479" y="-240" font-family="FreeSans" font-size="10.00">MetalSHEelectrons.h</text>
</a>
</g>
<!-- Node1&#45;&gt;Node15 -->
<g id="edge30" class="edge"><title>Node1&#45;&gt;Node15</title>
<path fill="none" stroke="midnightblue" d="M479,-280.89C479,-271.62 479,-261.008 479,-253.378"/>
<polygon fill="midnightblue" stroke="midnightblue" points="475.5,-280.897 479,-290.897 482.5,-280.897 475.5,-280.897"/>
</g>
<!-- Node16 -->
<g id="node34" class="node"><title>Node16</title>
<a xlink:href="MineralEQ3_8h.html" target="_top" xlink:title="Header file for the MineralEQ3 class, which represents a fixed&#45;composition incompressible substance b...">
<polygon fill="white" stroke="black" points="692,-175 692,-195 766,-195 766,-175 692,-175"/>
<text text-anchor="middle" x="729" y="-182" font-family="FreeSans" font-size="10.00">MineralEQ3.h</text>
</a>
</g>
<!-- Node1&#45;&gt;Node16 -->
<g id="edge36" class="edge"><title>Node1&#45;&gt;Node16</title>
<path fill="none" stroke="midnightblue" d="M538.292,-290.944C586.761,-281.944 650.775,-268.038 673,-254 696.74,-239.005 715.029,-210.456 723.618,-195.204"/>
<polygon fill="midnightblue" stroke="midnightblue" points="537.413,-287.547 528.206,-292.788 538.673,-294.432 537.413,-287.547"/>
</g>
<!-- Node18 -->
<g id="node39" class="node"><title>Node18</title>
<a xlink:href="StoichSubstanceSSTP_8h.html" target="_top" xlink:title="Header file for the StoichSubstanceSSTP class, which represents a fixed&#45;composition incompressible su...">
<polygon fill="white" stroke="black" points="720,-233 720,-253 844,-253 844,-233 720,-233"/>
<text text-anchor="middle" x="782" y="-240" font-family="FreeSans" font-size="10.00">StoichSubstanceSSTP.h</text>
</a>
</g>
<!-- Node1&#45;&gt;Node18 -->
<g id="edge42" class="edge"><title>Node1&#45;&gt;Node18</title>
<path fill="none" stroke="midnightblue" d="M538.09,-289.689C593.775,-279.03 676.414,-263.211 729.748,-253.002"/>
<polygon fill="midnightblue" stroke="midnightblue" points="537.183,-286.299 528.019,-291.617 538.499,-293.174 537.183,-286.299"/>
</g>
<!-- Node5 -->
<g id="node9" class="node"><title>Node5</title>
<a xlink:href="WaterSSTP_8cpp.html" target="_top" xlink:title="Definitions for a ThermoPhase class consisting of pure water (see Thermodynamic Properties and class ...">
<polygon fill="white" stroke="black" points="0,-175 0,-195 86,-195 86,-175 0,-175"/>
<text text-anchor="middle" x="43" y="-182" font-family="FreeSans" font-size="10.00">WaterSSTP.cpp</text>
</a>
</g>
<!-- Node4&#45;&gt;Node5 -->
<g id="edge8" class="edge"><title>Node4&#45;&gt;Node5</title>
<path fill="none" stroke="midnightblue" d="M146.817,-228.952C122.188,-218.525 89.1745,-204.548 67.0498,-195.182"/>
<polygon fill="midnightblue" stroke="midnightblue" points="145.563,-232.222 156.136,-232.897 148.292,-225.775 145.563,-232.222"/>
</g>
<!-- Node6 -->
<g id="node11" class="node"><title>Node6</title>
<a xlink:href="WaterTransport_8cpp.html" target="_top" xlink:title="WaterTransport.cpp">
<polygon fill="white" stroke="black" points="103.5,-175 103.5,-195 204.5,-195 204.5,-175 103.5,-175"/>
<text text-anchor="middle" x="154" y="-182" font-family="FreeSans" font-size="10.00">WaterTransport.cpp</text>
</a>
</g>
<!-- Node4&#45;&gt;Node6 -->
<g id="edge10" class="edge"><title>Node4&#45;&gt;Node6</title>
<path fill="none" stroke="midnightblue" d="M171.255,-223.493C167.037,-214.083 162.147,-203.174 158.652,-195.378"/>
<polygon fill="midnightblue" stroke="midnightblue" points="168.187,-225.204 175.471,-232.897 174.574,-222.34 168.187,-225.204"/>
</g>
<!-- Node7 -->
<g id="node13" class="node"><title>Node7</title>
<a xlink:href="electrolyteThermo_8h.html" target="_top" xlink:title="Support for thermo property calculation from C++ application programs. ">
<polygon fill="white" stroke="black" points="221.5,-175 221.5,-195 322.5,-195 322.5,-175 221.5,-175"/>
<text text-anchor="middle" x="272" y="-182" font-family="FreeSans" font-size="10.00">electrolyteThermo.h</text>
</a>
</g>
<!-- Node4&#45;&gt;Node7 -->
<g id="edge12" class="edge"><title>Node4&#45;&gt;Node7</title>
<path fill="none" stroke="midnightblue" d="M204.511,-227.547C220.77,-217.297 241.65,-204.134 255.85,-195.182"/>
<polygon fill="midnightblue" stroke="midnightblue" points="202.618,-224.603 196.025,-232.897 206.351,-230.525 202.618,-224.603"/>
</g>
<!-- Node8 -->
<g id="node15" class="node"><title>Node8</title>
<a xlink:href="thermo_8h.html" target="_top" xlink:title="Support for thermo property calculation from C++ application programs. ">
<polygon fill="white" stroke="black" points="245,-117 245,-137 299,-137 299,-117 245,-117"/>
<text text-anchor="middle" x="272" y="-124" font-family="FreeSans" font-size="10.00">thermo.h</text>
</a>
</g>
<!-- Node7&#45;&gt;Node8 -->
<g id="edge14" class="edge"><title>Node7&#45;&gt;Node8</title>
<path fill="none" stroke="midnightblue" d="M272,-164.89C272,-155.62 272,-145.008 272,-137.378"/>
<polygon fill="midnightblue" stroke="midnightblue" points="268.5,-164.897 272,-174.897 275.5,-164.897 268.5,-164.897"/>
</g>
<!-- Node9 -->
<g id="node17" class="node"><title>Node9</title>
<a xlink:href="Edge_8h.html" target="_top" xlink:title="Edge.h">
<polygon fill="white" stroke="black" points="180,-59 180,-79 226,-79 226,-59 180,-59"/>
<text text-anchor="middle" x="203" y="-66" font-family="FreeSans" font-size="10.00">Edge.h</text>
</a>
</g>
<!-- Node8&#45;&gt;Node9 -->
<g id="edge16" class="edge"><title>Node8&#45;&gt;Node9</title>
<path fill="none" stroke="midnightblue" d="M252.299,-110.44C240.402,-100.439 225.608,-88.0036 215.346,-79.3776"/>
<polygon fill="midnightblue" stroke="midnightblue" points="250.074,-113.142 259.981,-116.897 254.578,-107.783 250.074,-113.142"/>
</g>
<!-- Node10 -->
<g id="node19" class="node"><title>Node10</title>
<a xlink:href="Interface_8h.html" target="_top" xlink:title="Declaration and Definition for the class Interface. ">
<polygon fill="white" stroke="black" points="269,-1 269,-21 331,-21 331,-1 269,-1"/>
<text text-anchor="middle" x="300" y="-8" font-family="FreeSans" font-size="10.00">Interface.h</text>
</a>
</g>
<!-- Node8&#45;&gt;Node10 -->
<g id="edge18" class="edge"><title>Node8&#45;&gt;Node10</title>
<path fill="none" stroke="midnightblue" d="M290.533,-109.329C297.77,-101.175 305.227,-90.8922 309,-80 315.959,-59.9092 309.096,-34.83 304.126,-21.1175"/>
<polygon fill="midnightblue" stroke="midnightblue" points="287.864,-107.057 283.513,-116.717 292.939,-111.878 287.864,-107.057"/>
</g>
<!-- Node11 -->
<g id="node21" class="node"><title>Node11</title>
<a xlink:href="kinetics_8h_source.html" target="_top" xlink:title="kinetics.h">
<polygon fill="white" stroke="red" points="243.5,-59 243.5,-79 300.5,-79 300.5,-59 243.5,-59"/>
<text text-anchor="middle" x="272" y="-66" font-family="FreeSans" font-size="10.00">kinetics.h</text>
</a>
</g>
<!-- Node8&#45;&gt;Node11 -->
<g id="edge20" class="edge"><title>Node8&#45;&gt;Node11</title>
<path fill="none" stroke="midnightblue" d="M272,-106.89C272,-97.6201 272,-87.0083 272,-79.3776"/>
<polygon fill="midnightblue" stroke="midnightblue" points="268.5,-106.897 272,-116.897 275.5,-106.897 268.5,-106.897"/>
</g>
<!-- Node11&#45;&gt;Node10 -->
<g id="edge22" class="edge"><title>Node11&#45;&gt;Node10</title>
<path fill="none" stroke="midnightblue" d="M281.273,-49.7926C285.848,-40.3154 291.186,-29.2571 294.99,-21.3776"/>
<polygon fill="midnightblue" stroke="midnightblue" points="278.073,-48.37 276.877,-58.8972 284.377,-51.4133 278.073,-48.37"/>
</g>
<!-- Node13 -->
<g id="node26" class="node"><title>Node13</title>
<a xlink:href="FixedChemPotSSTP_8cpp.html" target="_top" xlink:title="Definition file for the FixedChemPotSSTP class, which represents a fixed&#45;composition incompressible s...">
<polygon fill="white" stroke="black" points="511.5,-175 511.5,-195 636.5,-195 636.5,-175 511.5,-175"/>
<text text-anchor="middle" x="574" y="-182" font-family="FreeSans" font-size="10.00">FixedChemPotSSTP.cpp</text>
</a>
</g>
<!-- Node12&#45;&gt;Node13 -->
<g id="edge26" class="edge"><title>Node12&#45;&gt;Node13</title>
<path fill="none" stroke="midnightblue" d="M596.242,-224.091C590.812,-214.549 584.435,-203.34 579.904,-195.378"/>
<polygon fill="midnightblue" stroke="midnightblue" points="593.264,-225.936 601.252,-232.897 599.349,-222.475 593.264,-225.936"/>
</g>
<!-- Node14 -->
<g id="node28" class="node"><title>Node14</title>
<a xlink:href="ThermoFactory_8cpp.html" target="_top" xlink:title="Definitions for the factory class that can create known ThermoPhase objects (see Thermodynamic Proper...">
<polygon fill="white" stroke="black" points="591,-117 591,-137 691,-137 691,-117 591,-117"/>
<text text-anchor="middle" x="641" y="-124" font-family="FreeSans" font-size="10.00">ThermoFactory.cpp</text>
</a>
</g>
<!-- Node12&#45;&gt;Node14 -->
<g id="edge28" class="edge"><title>Node12&#45;&gt;Node14</title>
<path fill="none" stroke="midnightblue" d="M626.025,-225.414C633.456,-217.275 641.116,-206.981 645,-196 652.042,-176.09 647.511,-150.943 643.991,-137.17"/>
<polygon fill="midnightblue" stroke="midnightblue" points="623.31,-223.185 618.818,-232.78 628.313,-228.08 623.31,-223.185"/>
</g>
<!-- Node15&#45;&gt;Node2 -->
<g id="edge32" class="edge"><title>Node15&#45;&gt;Node2</title>
<path fill="none" stroke="midnightblue" d="M456.62,-226.975C442.426,-216.811 424.49,-203.968 412.219,-195.182"/>
<polygon fill="midnightblue" stroke="midnightblue" points="454.723,-229.921 464.891,-232.897 458.798,-224.23 454.723,-229.921"/>
</g>
<!-- Node15&#45;&gt;Node14 -->
<g id="edge34" class="edge"><title>Node15&#45;&gt;Node14</title>
<path fill="none" stroke="midnightblue" d="M481.274,-222.594C484,-207.333 489.968,-186.948 503,-174 526.431,-150.721 561.834,-138.962 590.915,-133.027"/>
<polygon fill="midnightblue" stroke="midnightblue" points="477.792,-222.22 479.808,-232.621 484.718,-223.233 477.792,-222.22"/>
</g>
<!-- Node16&#45;&gt;Node14 -->
<g id="edge40" class="edge"><title>Node16&#45;&gt;Node14</title>
<path fill="none" stroke="midnightblue" d="M705.122,-169.262C689.633,-159.054 669.905,-146.051 656.448,-137.182"/>
<polygon fill="midnightblue" stroke="midnightblue" points="703.396,-172.316 713.672,-174.897 707.248,-166.472 703.396,-172.316"/>
</g>
<!-- Node17 -->
<g id="node36" class="node"><title>Node17</title>
<a xlink:href="MineralEQ3_8cpp.html" target="_top" xlink:title="Definition file for the MineralEQ3 class, which represents a fixed&#45;composition incompressible substan...">
<polygon fill="white" stroke="black" points="708.5,-117 708.5,-137 793.5,-137 793.5,-117 708.5,-117"/>
<text text-anchor="middle" x="751" y="-124" font-family="FreeSans" font-size="10.00">MineralEQ3.cpp</text>
</a>
</g>
<!-- Node16&#45;&gt;Node17 -->
<g id="edge38" class="edge"><title>Node16&#45;&gt;Node17</title>
<path fill="none" stroke="midnightblue" d="M736.399,-165.493C739.969,-156.083 744.106,-145.174 747.064,-137.378"/>
<polygon fill="midnightblue" stroke="midnightblue" points="733.106,-164.306 732.832,-174.897 739.651,-166.789 733.106,-164.306"/>
</g>
<!-- Node18&#45;&gt;Node16 -->
<g id="edge46" class="edge"><title>Node18&#45;&gt;Node16</title>
<path fill="none" stroke="midnightblue" d="M765.803,-225.275C756.86,-215.488 746.062,-203.672 738.483,-195.378"/>
<polygon fill="midnightblue" stroke="midnightblue" points="763.439,-227.876 772.768,-232.897 768.606,-223.154 763.439,-227.876"/>
</g>
<!-- Node19 -->
<g id="node41" class="node"><title>Node19</title>
<a xlink:href="StoichSubstanceSSTP_8cpp.html" target="_top" xlink:title="Definition file for the StoichSubstanceSSTP class, which represents a fixed&#45;composition incompressibl...">
<polygon fill="white" stroke="black" points="784,-175 784,-195 918,-195 918,-175 784,-175"/>
<text text-anchor="middle" x="851" y="-182" font-family="FreeSans" font-size="10.00">StoichSubstanceSSTP.cpp</text>
</a>
</g>
<!-- Node18&#45;&gt;Node19 -->
<g id="edge44" class="edge"><title>Node18&#45;&gt;Node19</title>
<path fill="none" stroke="midnightblue" d="M801.701,-226.44C813.598,-216.439 828.392,-204.004 838.654,-195.378"/>
<polygon fill="midnightblue" stroke="midnightblue" points="799.422,-223.783 794.019,-232.897 803.926,-229.142 799.422,-223.783"/>
</g>
</g>
</svg>
