<?xml version="1.0" encoding="UTF-8" standalone="no"?>
<!DOCTYPE svg PUBLIC "-//W3C//DTD SVG 1.1//EN"
 "http://www.w3.org/Graphics/SVG/1.1/DTD/svg11.dtd">
<!-- Generated by graphviz version 2.28.0 (20120425.2022)
 -->
<!-- Title: SingleSpeciesTP.h Pages: 1 -->
<svg width="952pt" height="308pt"
 viewBox="0.00 0.00 952.00 308.00" xmlns="http://www.w3.org/2000/svg" xmlns:xlink="http://www.w3.org/1999/xlink">
<g id="graph1" class="graph" transform="scale(1 1) rotate(0) translate(4 304)">
<title>SingleSpeciesTP.h</title>
<polygon fill="white" stroke="white" points="-4,5 -4,-304 949,-304 949,5 -4,5"/>
<!-- Node1 -->
<g id="node1" class="node"><title>Node1</title>
<polygon fill="#bfbfbf" stroke="black" points="445,-280.5 445,-299.5 549,-299.5 549,-280.5 445,-280.5"/>
<text text-anchor="middle" x="497" y="-287.5" font-family="FreeSans" font-size="10.00">SingleSpeciesTP.h</text>
</g>
<!-- Node2 -->
<g id="node3" class="node"><title>Node2</title>
<a xlink:href="MetalSHEelectrons_8cpp.html" target="_top" xlink:title="Definition file for the MetalSHEElectrons class, which represents the electrons in a metal that are c...">
<polygon fill="white" stroke="black" points="354,-168.5 354,-187.5 474,-187.5 474,-168.5 354,-168.5"/>
<text text-anchor="middle" x="414" y="-175.5" font-family="FreeSans" font-size="10.00">MetalSHEelectrons.cpp</text>
</a>
</g>
<!-- Node1&#45;&gt;Node2 -->
<g id="edge2" class="edge"><title>Node1&#45;&gt;Node2</title>
<path fill="none" stroke="midnightblue" d="M469.743,-275.442C456.92,-267.809 442.415,-257.154 433,-244 420.547,-226.6 416.197,-201.087 414.723,-187.792"/>
<polygon fill="midnightblue" stroke="midnightblue" points="468.252,-278.619 478.686,-280.459 471.677,-272.514 468.252,-278.619"/>
</g>
<!-- Node3 -->
<g id="node5" class="node"><title>Node3</title>
<a xlink:href="SingleSpeciesTP_8cpp.html" target="_top" xlink:title="Definitions for the SingleSpeciesTP class, which is a filter class for ThermoPhase, that eases the construction of single species phases ( see Thermodynamic Properties and class SingleSpeciesTP). ">
<polygon fill="white" stroke="black" points="272,-224.5 272,-243.5 386,-243.5 386,-224.5 272,-224.5"/>
<text text-anchor="middle" x="329" y="-231.5" font-family="FreeSans" font-size="10.00">SingleSpeciesTP.cpp</text>
</a>
</g>
<!-- Node1&#45;&gt;Node3 -->
<g id="edge4" class="edge"><title>Node1&#45;&gt;Node3</title>
<path fill="none" stroke="midnightblue" d="M460.614,-277.304C428.958,-267.129 383.832,-252.625 355.496,-243.516"/>
<polygon fill="midnightblue" stroke="midnightblue" points="459.789,-280.715 470.38,-280.444 461.931,-274.051 459.789,-280.715"/>
</g>
<!-- Node4 -->
<g id="node7" class="node"><title>Node4</title>
<a xlink:href="WaterSSTP_8h.html" target="_top" xlink:title="Declares a ThermoPhase class consisting of pure water (see Thermodynamic Properties and class WaterSS...">
<polygon fill="white" stroke="black" points="147.5,-224.5 147.5,-243.5 224.5,-243.5 224.5,-224.5 147.5,-224.5"/>
<text text-anchor="middle" x="186" y="-231.5" font-family="FreeSans" font-size="10.00">WaterSSTP.h</text>
</a>
</g>
<!-- Node1&#45;&gt;Node4 -->
<g id="edge6" class="edge"><title>Node1&#45;&gt;Node4</title>
<path fill="none" stroke="midnightblue" d="M437.595,-278.685C374.977,-267.813 278.165,-251.003 224.731,-241.725"/>
<polygon fill="midnightblue" stroke="midnightblue" points="437.27,-282.181 447.721,-280.444 438.467,-275.284 437.27,-282.181"/>
</g>
<!-- Node12 -->
<g id="node24" class="node"><title>Node12</title>
<a xlink:href="FixedChemPotSSTP_8h.html" target="_top" xlink:title="Header file for the FixedChemPotSSTP class, which represents a fixed&#45;composition incompressible subst...">
<polygon fill="white" stroke="black" points="570,-224.5 570,-243.5 688,-243.5 688,-224.5 570,-224.5"/>
<text text-anchor="middle" x="629" y="-231.5" font-family="FreeSans" font-size="10.00">FixedChemPotSSTP.h</text>
</a>
</g>
<!-- Node1&#45;&gt;Node12 -->
<g id="edge24" class="edge"><title>Node1&#45;&gt;Node12</title>
<path fill="none" stroke="midnightblue" d="M527.219,-276.638C551.99,-266.504 586.4,-252.427 608.182,-243.516"/>
<polygon fill="midnightblue" stroke="midnightblue" points="525.846,-273.418 517.916,-280.444 528.497,-279.897 525.846,-273.418"/>
</g>
<!-- Node15 -->
<g id="node30" class="node"><title>Node15</title>
<a xlink:href="MetalSHEelectrons_8h.html" target="_top" xlink:title="Header file for the MetalSHEElectrons class, which represents the electrons in a metal that are consi...">
<polygon fill="white" stroke="black" points="442,-224.5 442,-243.5 552,-243.5 552,-224.5 442,-224.5"/>
<text text-anchor="middle" x="497" y="-231.5" font-family="FreeSans" font-size="10.00">MetalSHEelectrons.h</text>
</a>
</g>
<!-- Node1&#45;&gt;Node15 -->
<g id="edge30" class="edge"><title>Node1&#45;&gt;Node15</title>
<path fill="none" stroke="midnightblue" d="M497,-269.805C497,-260.91 497,-250.78 497,-243.751"/>
<polygon fill="midnightblue" stroke="midnightblue" points="493.5,-270.083 497,-280.083 500.5,-270.083 493.5,-270.083"/>
</g>
<!-- Node16 -->
<g id="node34" class="node"><title>Node16</title>
<a xlink:href="MineralEQ3_8h.html" target="_top" xlink:title="Header file for the MineralEQ3 class, which represents a fixed&#45;composition incompressible substance b...">
<polygon fill="white" stroke="black" points="714.5,-168.5 714.5,-187.5 789.5,-187.5 789.5,-168.5 714.5,-168.5"/>
<text text-anchor="middle" x="752" y="-175.5" font-family="FreeSans" font-size="10.00">MineralEQ3.h</text>
</a>
</g>
<!-- Node1&#45;&gt;Node16 -->
<g id="edge36" class="edge"><title>Node1&#45;&gt;Node16</title>
<path fill="none" stroke="midnightblue" d="M559.27,-285.273C600.807,-280.415 655.246,-269.309 697,-244 720.513,-229.748 738.893,-201.893 747.186,-187.725"/>
<polygon fill="midnightblue" stroke="midnightblue" points="558.84,-281.799 549.273,-286.352 559.59,-288.759 558.84,-281.799"/>
</g>
<!-- Node18 -->
<g id="node39" class="node"><title>Node18</title>
<a xlink:href="StoichSubstanceSSTP_8h.html" target="_top" xlink:title="Header file for the StoichSubstanceSSTP class, which represents a fixed&#45;composition incompressible su...">
<polygon fill="white" stroke="black" points="744,-224.5 744,-243.5 870,-243.5 870,-224.5 744,-224.5"/>
<text text-anchor="middle" x="807" y="-231.5" font-family="FreeSans" font-size="10.00">StoichSubstanceSSTP.h</text>
</a>
</g>
<!-- Node1&#45;&gt;Node18 -->
<g id="edge42" class="edge"><title>Node1&#45;&gt;Node18</title>
<path fill="none" stroke="midnightblue" d="M556.335,-278.664C614.92,-268.459 703.445,-253.039 758.109,-243.516"/>
<polygon fill="midnightblue" stroke="midnightblue" points="555.371,-275.279 546.12,-280.444 556.573,-282.175 555.371,-275.279"/>
</g>
<!-- Node5 -->
<g id="node9" class="node"><title>Node5</title>
<a xlink:href="WaterSSTP_8cpp.html" target="_top" xlink:title="Definitions for a ThermoPhase class consisting of pure water (see Thermodynamic Properties and class ...">
<polygon fill="white" stroke="black" points="0,-168.5 0,-187.5 88,-187.5 88,-168.5 0,-168.5"/>
<text text-anchor="middle" x="44" y="-175.5" font-family="FreeSans" font-size="10.00">WaterSSTP.cpp</text>
</a>
</g>
<!-- Node4&#45;&gt;Node5 -->
<g id="edge8" class="edge"><title>Node4&#45;&gt;Node5</title>
<path fill="none" stroke="midnightblue" d="M153.845,-220.772C127.172,-210.629 89.9314,-196.467 66.3951,-187.516"/>
<polygon fill="midnightblue" stroke="midnightblue" points="152.909,-224.16 163.5,-224.444 155.397,-217.618 152.909,-224.16"/>
</g>
<!-- Node6 -->
<g id="node11" class="node"><title>Node6</title>
<a xlink:href="WaterTransport_8cpp.html" target="_top" xlink:title="WaterTransport.cpp">
<polygon fill="white" stroke="black" points="106,-168.5 106,-187.5 210,-187.5 210,-168.5 106,-168.5"/>
<text text-anchor="middle" x="158" y="-175.5" font-family="FreeSans" font-size="10.00">WaterTransport.cpp</text>
</a>
</g>
<!-- Node4&#45;&gt;Node6 -->
<g id="edge10" class="edge"><title>Node4&#45;&gt;Node6</title>
<path fill="none" stroke="midnightblue" d="M176.658,-214.983C171.905,-205.817 166.344,-195.092 162.538,-187.751"/>
<polygon fill="midnightblue" stroke="midnightblue" points="173.666,-216.817 181.376,-224.083 179.88,-213.594 173.666,-216.817"/>
</g>
<!-- Node7 -->
<g id="node13" class="node"><title>Node7</title>
<a xlink:href="electrolyteThermo_8h.html" target="_top" xlink:title="Support for thermo property calculation from C++ application programs. ">
<polygon fill="white" stroke="black" points="228.5,-168.5 228.5,-187.5 335.5,-187.5 335.5,-168.5 228.5,-168.5"/>
<text text-anchor="middle" x="282" y="-175.5" font-family="FreeSans" font-size="10.00">electrolyteThermo.h</text>
</a>
</g>
<!-- Node4&#45;&gt;Node7 -->
<g id="edge12" class="edge"><title>Node4&#45;&gt;Node7</title>
<path fill="none" stroke="midnightblue" d="M210.574,-219.177C228.239,-209.241 251.513,-196.149 266.614,-187.655"/>
<polygon fill="midnightblue" stroke="midnightblue" points="208.424,-216.371 201.424,-224.324 211.856,-222.472 208.424,-216.371"/>
</g>
<!-- Node8 -->
<g id="node15" class="node"><title>Node8</title>
<a xlink:href="thermo_8h.html" target="_top" xlink:title="Support for thermo property calculation from C++ application programs. ">
<polygon fill="white" stroke="black" points="254.5,-112.5 254.5,-131.5 309.5,-131.5 309.5,-112.5 254.5,-112.5"/>
<text text-anchor="middle" x="282" y="-119.5" font-family="FreeSans" font-size="10.00">thermo.h</text>
</a>
</g>
<!-- Node7&#45;&gt;Node8 -->
<g id="edge14" class="edge"><title>Node7&#45;&gt;Node8</title>
<path fill="none" stroke="midnightblue" d="M282,-157.805C282,-148.91 282,-138.78 282,-131.751"/>
<polygon fill="midnightblue" stroke="midnightblue" points="278.5,-158.083 282,-168.083 285.5,-158.083 278.5,-158.083"/>
</g>
<!-- Node9 -->
<g id="node17" class="node"><title>Node9</title>
<a xlink:href="Edge_8h.html" target="_top" xlink:title="Edge.h">
<polygon fill="white" stroke="black" points="187,-56.5 187,-75.5 235,-75.5 235,-56.5 187,-56.5"/>
<text text-anchor="middle" x="211" y="-63.5" font-family="FreeSans" font-size="10.00">Edge.h</text>
</a>
</g>
<!-- Node8&#45;&gt;Node9 -->
<g id="edge16" class="edge"><title>Node8&#45;&gt;Node9</title>
<path fill="none" stroke="midnightblue" d="M262.41,-106.101C249.632,-96.3824 233.387,-84.0269 222.615,-75.8339"/>
<polygon fill="midnightblue" stroke="midnightblue" points="260.514,-109.056 270.593,-112.324 264.752,-103.484 260.514,-109.056"/>
</g>
<!-- Node10 -->
<g id="node19" class="node"><title>Node10</title>
<a xlink:href="Interface_8h.html" target="_top" xlink:title="Declaration and Definition for the class Interface. ">
<polygon fill="white" stroke="black" points="279,-0.5 279,-19.5 341,-19.5 341,-0.5 279,-0.5"/>
<text text-anchor="middle" x="310" y="-7.5" font-family="FreeSans" font-size="10.00">Interface.h</text>
</a>
</g>
<!-- Node8&#45;&gt;Node10 -->
<g id="edge18" class="edge"><title>Node8&#45;&gt;Node10</title>
<path fill="none" stroke="midnightblue" d="M299.64,-105.152C307.143,-97.2312 315.059,-86.9973 319,-76 325.917,-56.6956 318.658,-32.403 313.738,-19.6807"/>
<polygon fill="midnightblue" stroke="midnightblue" points="297.108,-102.734 292.438,-112.245 302.019,-107.722 297.108,-102.734"/>
</g>
<!-- Node11 -->
<g id="node21" class="node"><title>Node11</title>
<a xlink:href="kinetics_8h_source.html" target="_top" xlink:title="kinetics.h">
<polygon fill="white" stroke="red" points="253,-56.5 253,-75.5 311,-75.5 311,-56.5 253,-56.5"/>
<text text-anchor="middle" x="282" y="-63.5" font-family="FreeSans" font-size="10.00">kinetics.h</text>
</a>
</g>
<!-- Node8&#45;&gt;Node11 -->
<g id="edge20" class="edge"><title>Node8&#45;&gt;Node11</title>
<path fill="none" stroke="midnightblue" d="M282,-101.805C282,-92.9102 282,-82.7798 282,-75.7511"/>
<polygon fill="midnightblue" stroke="midnightblue" points="278.5,-102.083 282,-112.083 285.5,-102.083 278.5,-102.083"/>
</g>
<!-- Node11&#45;&gt;Node10 -->
<g id="edge22" class="edge"><title>Node11&#45;&gt;Node10</title>
<path fill="none" stroke="midnightblue" d="M291.342,-46.9827C296.095,-37.8168 301.656,-27.0922 305.462,-19.7511"/>
<polygon fill="midnightblue" stroke="midnightblue" points="288.12,-45.5943 286.624,-56.083 294.334,-48.8166 288.12,-45.5943"/>
</g>
<!-- Node13 -->
<g id="node26" class="node"><title>Node13</title>
<a xlink:href="FixedChemPotSSTP_8cpp.html" target="_top" xlink:title="Definition file for the FixedChemPotSSTP class, which represents a fixed&#45;composition incompressible s...">
<polygon fill="white" stroke="black" points="530,-168.5 530,-187.5 658,-187.5 658,-168.5 530,-168.5"/>
<text text-anchor="middle" x="594" y="-175.5" font-family="FreeSans" font-size="10.00">FixedChemPotSSTP.cpp</text>
</a>
</g>
<!-- Node12&#45;&gt;Node13 -->
<g id="edge26" class="edge"><title>Node12&#45;&gt;Node13</title>
<path fill="none" stroke="midnightblue" d="M617.7,-215.566C611.678,-206.275 604.531,-195.248 599.672,-187.751"/>
<polygon fill="midnightblue" stroke="midnightblue" points="614.844,-217.595 623.22,-224.083 620.719,-213.788 614.844,-217.595"/>
</g>
<!-- Node14 -->
<g id="node28" class="node"><title>Node14</title>
<a xlink:href="ThermoFactory_8cpp.html" target="_top" xlink:title="Definitions for the factory class that can create known ThermoPhase objects (see Thermodynamic Proper...">
<polygon fill="white" stroke="black" points="610,-112.5 610,-131.5 714,-131.5 714,-112.5 610,-112.5"/>
<text text-anchor="middle" x="662" y="-119.5" font-family="FreeSans" font-size="10.00">ThermoFactory.cpp</text>
</a>
</g>
<!-- Node12&#45;&gt;Node14 -->
<g id="edge28" class="edge"><title>Node12&#45;&gt;Node14</title>
<path fill="none" stroke="midnightblue" d="M647.109,-217.237C654.812,-209.335 662.943,-199.092 667,-188 673.998,-168.867 668.683,-144.505 664.911,-131.726"/>
<polygon fill="midnightblue" stroke="midnightblue" points="644.525,-214.865 639.714,-224.305 649.362,-219.925 644.525,-214.865"/>
</g>
<!-- Node15&#45;&gt;Node2 -->
<g id="edge32" class="edge"><title>Node15&#45;&gt;Node2</title>
<path fill="none" stroke="midnightblue" d="M474.901,-218.622C459.738,-208.757 440.117,-195.992 427.302,-187.655"/>
<polygon fill="midnightblue" stroke="midnightblue" points="473.374,-221.804 483.665,-224.324 477.191,-215.937 473.374,-221.804"/>
</g>
<!-- Node15&#45;&gt;Node14 -->
<g id="edge34" class="edge"><title>Node15&#45;&gt;Node14</title>
<path fill="none" stroke="midnightblue" d="M499.418,-214.219C502.234,-199.739 508.252,-180.19 521,-168 544.865,-145.181 580.297,-133.932 609.672,-128.387"/>
<polygon fill="midnightblue" stroke="midnightblue" points="495.962,-213.669 497.831,-224.097 502.873,-214.779 495.962,-213.669"/>
</g>
<!-- Node16&#45;&gt;Node14 -->
<g id="edge40" class="edge"><title>Node16&#45;&gt;Node14</title>
<path fill="none" stroke="midnightblue" d="M728.962,-163.177C712.401,-153.241 690.582,-140.149 676.424,-131.655"/>
<polygon fill="midnightblue" stroke="midnightblue" points="727.164,-166.18 737.54,-168.324 730.766,-160.178 727.164,-166.18"/>
</g>
<!-- Node17 -->
<g id="node36" class="node"><title>Node17</title>
<a xlink:href="MineralEQ3_8cpp.html" target="_top" xlink:title="Definition file for the MineralEQ3 class, which represents a fixed&#45;composition incompressible substan...">
<polygon fill="white" stroke="black" points="732,-112.5 732,-131.5 818,-131.5 818,-112.5 732,-112.5"/>
<text text-anchor="middle" x="775" y="-119.5" font-family="FreeSans" font-size="10.00">MineralEQ3.cpp</text>
</a>
</g>
<!-- Node16&#45;&gt;Node17 -->
<g id="edge38" class="edge"><title>Node16&#45;&gt;Node17</title>
<path fill="none" stroke="midnightblue" d="M759.799,-158.69C763.675,-149.589 768.179,-139.014 771.273,-131.751"/>
<polygon fill="midnightblue" stroke="midnightblue" points="756.497,-157.511 755.798,-168.083 762.937,-160.254 756.497,-157.511"/>
</g>
<!-- Node18&#45;&gt;Node16 -->
<g id="edge46" class="edge"><title>Node18&#45;&gt;Node16</title>
<path fill="none" stroke="midnightblue" d="M790.706,-217.002C780.959,-207.433 768.947,-195.639 760.913,-187.751"/>
<polygon fill="midnightblue" stroke="midnightblue" points="788.33,-219.575 797.918,-224.083 793.234,-214.58 788.33,-219.575"/>
</g>
<!-- Node19 -->
<g id="node41" class="node"><title>Node19</title>
<a xlink:href="StoichSubstanceSSTP_8cpp.html" target="_top" xlink:title="Definition file for the StoichSubstanceSSTP class, which represents a fixed&#45;composition incompressibl...">
<polygon fill="white" stroke="black" points="807.5,-168.5 807.5,-187.5 944.5,-187.5 944.5,-168.5 807.5,-168.5"/>
<text text-anchor="middle" x="876" y="-175.5" font-family="FreeSans" font-size="10.00">StoichSubstanceSSTP.cpp</text>
</a>
</g>
<!-- Node18&#45;&gt;Node19 -->
<g id="edge44" class="edge"><title>Node18&#45;&gt;Node19</title>
<path fill="none" stroke="midnightblue" d="M826.038,-218.101C838.456,-208.382 854.243,-196.027 864.712,-187.834"/>
<polygon fill="midnightblue" stroke="midnightblue" points="823.804,-215.405 818.086,-224.324 828.118,-220.917 823.804,-215.405"/>
</g>
</g>
</svg>
