<?xml version="1.0" encoding="UTF-8" standalone="no"?>
<!DOCTYPE svg PUBLIC "-//W3C//DTD SVG 1.1//EN"
 "http://www.w3.org/Graphics/SVG/1.1/DTD/svg11.dtd">
<!-- Generated by graphviz version 2.28.0 (20120425.2022)
 -->
<!-- Title: SolidTransport.cpp Pages: 1 -->
<svg width="706pt" height="624pt"
 viewBox="0.00 0.00 706.07 624.00" xmlns="http://www.w3.org/2000/svg" xmlns:xlink="http://www.w3.org/1999/xlink">
<g id="graph1" class="graph" transform="scale(1 1) rotate(0) translate(4 620)">
<title>SolidTransport.cpp</title>
<polygon fill="white" stroke="white" points="-4,5 -4,-620 703.072,-620 703.072,5 -4,5"/>
<!-- Node1 -->
<g id="node1" class="node"><title>Node1</title>
<polygon fill="#bfbfbf" stroke="black" points="371.568,-596.5 371.568,-615.5 472.568,-615.5 472.568,-596.5 371.568,-596.5"/>
<text text-anchor="middle" x="422.068" y="-603.5" font-family="FreeSans" font-size="10.00">SolidTransport.cpp</text>
</g>
<!-- Node2 -->
<g id="node3" class="node"><title>Node2</title>
<a xlink:href="ThermoPhase_8h.html" target="_top" xlink:title="Header file for class ThermoPhase, the base class for phases with thermodynamic properties, and the text for the Module thermoprops (see Thermodynamic Properties and class ThermoPhase). ">
<polygon fill="white" stroke="black" points="149.068,-336.5 149.068,-355.5 309.068,-355.5 309.068,-336.5 149.068,-336.5"/>
<text text-anchor="middle" x="229.068" y="-343.5" font-family="FreeSans" font-size="10.00">cantera/thermo/ThermoPhase.h</text>
</a>
</g>
<!-- Node1&#45;&gt;Node2 -->
<g id="edge2" class="edge"><title>Node1&#45;&gt;Node2</title>
<path fill="none" stroke="midnightblue" d="M394.882,-596.472C354.524,-582.185 280.087,-549.204 248.068,-492 225.398,-451.499 225.416,-394.899 227.28,-365.847"/>
<polygon fill="midnightblue" stroke="midnightblue" points="230.797,-365.767 228.101,-355.521 223.819,-365.212 230.797,-365.767"/>
</g>
<!-- Node18 -->
<g id="node44" class="node"><title>Node18</title>
<a xlink:href="SolidTransportData_8h.html" target="_top" xlink:title="Header file defining class SolidTransportData. ">
<polygon fill="white" stroke="black" points="341.568,-529 341.568,-559 502.568,-559 502.568,-529 341.568,-529"/>
<text text-anchor="start" x="349.568" y="-547" font-family="FreeSans" font-size="10.00">cantera/transport/SolidTransport</text>
<text text-anchor="middle" x="422.068" y="-536" font-family="FreeSans" font-size="10.00">Data.h</text>
</a>
</g>
<!-- Node1&#45;&gt;Node18 -->
<g id="edge52" class="edge"><title>Node1&#45;&gt;Node18</title>
<path fill="none" stroke="midnightblue" d="M422.068,-596.403C422.068,-589.341 422.068,-578.975 422.068,-569.399"/>
<polygon fill="midnightblue" stroke="midnightblue" points="425.568,-569.141 422.068,-559.141 418.568,-569.141 425.568,-569.141"/>
</g>
<!-- Node24 -->
<g id="node64" class="node"><title>Node24</title>
<a xlink:href="SolidTransport_8h.html" target="_top" xlink:title="Header file for defining the class SolidTransport, which handles transport of ions within solid phase...">
<polygon fill="white" stroke="black" points="521.068,-534.5 521.068,-553.5 689.068,-553.5 689.068,-534.5 521.068,-534.5"/>
<text text-anchor="middle" x="605.068" y="-541.5" font-family="FreeSans" font-size="10.00">cantera/transport/SolidTransport.h</text>
</a>
</g>
<!-- Node1&#45;&gt;Node24 -->
<g id="edge80" class="edge"><title>Node1&#45;&gt;Node24</title>
<path fill="none" stroke="midnightblue" d="M448.287,-596.403C480.086,-585.978 533.833,-568.356 569.385,-556.699"/>
<polygon fill="midnightblue" stroke="midnightblue" points="570.485,-560.022 578.897,-553.581 568.304,-553.37 570.485,-560.022"/>
</g>
<!-- Node3 -->
<g id="node5" class="node"><title>Node3</title>
<a xlink:href="Phase_8h.html" target="_top" xlink:title="Header file for class Phase. ">
<polygon fill="white" stroke="black" points="202.568,-280.5 202.568,-299.5 255.568,-299.5 255.568,-280.5 202.568,-280.5"/>
<text text-anchor="middle" x="229.068" y="-287.5" font-family="FreeSans" font-size="10.00">Phase.h</text>
</a>
</g>
<!-- Node2&#45;&gt;Node3 -->
<g id="edge4" class="edge"><title>Node2&#45;&gt;Node3</title>
<path fill="none" stroke="midnightblue" d="M229.068,-336.083C229.068,-329.006 229.068,-318.861 229.068,-309.986"/>
<polygon fill="midnightblue" stroke="midnightblue" points="232.568,-309.751 229.068,-299.751 225.568,-309.751 232.568,-309.751"/>
</g>
<!-- Node17 -->
<g id="node41" class="node"><title>Node17</title>
<a xlink:href="SpeciesThermo_8h.html" target="_top" xlink:title="Virtual base class for the calculation of multiple&#45;species thermodynamic reference&#45;state property man...">
<polygon fill="white" stroke="black" points="17.5676,-280.5 17.5676,-299.5 114.568,-299.5 114.568,-280.5 17.5676,-280.5"/>
<text text-anchor="middle" x="66.0676" y="-287.5" font-family="FreeSans" font-size="10.00">SpeciesThermo.h</text>
</a>
</g>
<!-- Node2&#45;&gt;Node17 -->
<g id="edge48" class="edge"><title>Node2&#45;&gt;Node17</title>
<path fill="none" stroke="midnightblue" d="M203.24,-336.444C175.818,-327.359 132.29,-312.939 101.635,-302.783"/>
<polygon fill="midnightblue" stroke="midnightblue" points="102.368,-299.339 91.7746,-299.516 100.167,-305.984 102.368,-299.339"/>
</g>
<!-- Node4 -->
<g id="node7" class="node"><title>Node4</title>
<a xlink:href="vec__functions_8h.html" target="_top" xlink:title="Templates for operations on vector&#45;like objects. ">
<polygon fill="white" stroke="black" points="281.568,-168.5 281.568,-187.5 428.568,-187.5 428.568,-168.5 281.568,-168.5"/>
<text text-anchor="middle" x="355.068" y="-175.5" font-family="FreeSans" font-size="10.00">cantera/base/vec_functions.h</text>
</a>
</g>
<!-- Node3&#45;&gt;Node4 -->
<g id="edge6" class="edge"><title>Node3&#45;&gt;Node4</title>
<path fill="none" stroke="midnightblue" d="M242.112,-280.227C254.764,-271.524 274.306,-257.561 290.068,-244 308.101,-228.485 327.171,-209 339.957,-195.429"/>
<polygon fill="midnightblue" stroke="midnightblue" points="342.781,-197.532 347.04,-187.831 337.661,-192.759 342.781,-197.532"/>
</g>
<!-- Node13 -->
<g id="node27" class="node"><title>Node13</title>
<a xlink:href="ctml_8h.html" target="_top" xlink:title="CTML (&quot;Cantera Markup Language&quot;) is the variant of XML that Cantera uses to store data...">
<polygon fill="white" stroke="black" points="177.068,-224.5 177.068,-243.5 281.068,-243.5 281.068,-224.5 177.068,-224.5"/>
<text text-anchor="middle" x="229.068" y="-231.5" font-family="FreeSans" font-size="10.00">cantera/base/ctml.h</text>
</a>
</g>
<!-- Node3&#45;&gt;Node13 -->
<g id="edge28" class="edge"><title>Node3&#45;&gt;Node13</title>
<path fill="none" stroke="midnightblue" d="M229.068,-280.083C229.068,-273.006 229.068,-262.861 229.068,-253.986"/>
<polygon fill="midnightblue" stroke="midnightblue" points="232.568,-253.751 229.068,-243.751 225.568,-253.751 232.568,-253.751"/>
</g>
<!-- Node16 -->
<g id="node38" class="node"><title>Node16</title>
<a xlink:href="Elements_8h.html" target="_top" xlink:title="Contains the LookupWtElements function and the definitions of element constraint types. ">
<polygon fill="white" stroke="black" points="23.0676,-224.5 23.0676,-243.5 159.068,-243.5 159.068,-224.5 23.0676,-224.5"/>
<text text-anchor="middle" x="91.0676" y="-231.5" font-family="FreeSans" font-size="10.00">cantera/thermo/Elements.h</text>
</a>
</g>
<!-- Node3&#45;&gt;Node16 -->
<g id="edge44" class="edge"><title>Node3&#45;&gt;Node16</title>
<path fill="none" stroke="midnightblue" d="M207.201,-280.444C184.288,-271.478 148.092,-257.314 122.201,-247.183"/>
<polygon fill="midnightblue" stroke="midnightblue" points="123.42,-243.901 112.832,-243.516 120.869,-250.42 123.42,-243.901"/>
</g>
<!-- Node5 -->
<g id="node9" class="node"><title>Node5</title>
<a xlink:href="ct__defs_8h.html" target="_top" xlink:title="This file contains definitions of terms that are used in internal routines and are unlikely to need m...">
<polygon fill="white" stroke="red" points="108.068,-56.5 108.068,-75.5 164.068,-75.5 164.068,-56.5 108.068,-56.5"/>
<text text-anchor="middle" x="136.068" y="-63.5" font-family="FreeSans" font-size="10.00">ct_defs.h</text>
</a>
</g>
<!-- Node4&#45;&gt;Node5 -->
<g id="edge8" class="edge"><title>Node4&#45;&gt;Node5</title>
<path fill="none" stroke="midnightblue" d="M355.453,-168.455C355.584,-154.548 353.687,-127.058 338.068,-112 315.018,-89.779 226.159,-76.6877 174.293,-70.784"/>
<polygon fill="midnightblue" stroke="midnightblue" points="174.456,-67.2809 164.133,-69.6655 173.69,-74.2389 174.456,-67.2809"/>
</g>
<!-- Node7 -->
<g id="node13" class="node"><title>Node7</title>
<a xlink:href="utilities_8h.html" target="_top" xlink:title="Various templated functions that carry out common vector operations (see Templated Utility Functions)...">
<polygon fill="white" stroke="black" points="137.068,-112.5 137.068,-131.5 191.068,-131.5 191.068,-112.5 137.068,-112.5"/>
<text text-anchor="middle" x="164.068" y="-119.5" font-family="FreeSans" font-size="10.00">utilities.h</text>
</a>
</g>
<!-- Node4&#45;&gt;Node7 -->
<g id="edge12" class="edge"><title>Node4&#45;&gt;Node7</title>
<path fill="none" stroke="midnightblue" d="M324.803,-168.444C291.151,-158.929 236.797,-143.562 200.751,-133.371"/>
<polygon fill="midnightblue" stroke="midnightblue" points="201.677,-129.996 191.102,-130.643 199.773,-136.732 201.677,-129.996"/>
</g>
<!-- Node8 -->
<g id="node16" class="node"><title>Node8</title>
<polygon fill="white" stroke="#bfbfbf" points="335.068,-56.5 335.068,-75.5 393.068,-75.5 393.068,-56.5 335.068,-56.5"/>
<text text-anchor="middle" x="364.068" y="-63.5" font-family="FreeSans" font-size="10.00">algorithm</text>
</g>
<!-- Node4&#45;&gt;Node8 -->
<g id="edge22" class="edge"><title>Node4&#45;&gt;Node8</title>
<path fill="none" stroke="midnightblue" d="M416.687,-168.448C459.044,-161.161 509.924,-149.127 523.068,-132 556.311,-88.6807 460.658,-74.0768 403.489,-69.2723"/>
<polygon fill="midnightblue" stroke="midnightblue" points="403.542,-65.766 393.301,-68.4845 403.002,-72.7452 403.542,-65.766"/>
</g>
<!-- Node9 -->
<g id="node18" class="node"><title>Node9</title>
<polygon fill="white" stroke="#bfbfbf" points="385.068,-112.5 385.068,-131.5 437.068,-131.5 437.068,-112.5 385.068,-112.5"/>
<text text-anchor="middle" x="411.068" y="-119.5" font-family="FreeSans" font-size="10.00">numeric</text>
</g>
<!-- Node4&#45;&gt;Node9 -->
<g id="edge18" class="edge"><title>Node4&#45;&gt;Node9</title>
<path fill="none" stroke="midnightblue" d="M364.065,-168.324C372.262,-160.42 384.573,-148.548 394.54,-138.938"/>
<polygon fill="midnightblue" stroke="midnightblue" points="397.138,-141.295 401.907,-131.834 392.279,-136.256 397.138,-141.295"/>
</g>
<!-- Node10 -->
<g id="node20" class="node"><title>Node10</title>
<polygon fill="white" stroke="#bfbfbf" points="455.568,-112.5 455.568,-131.5 514.568,-131.5 514.568,-112.5 455.568,-112.5"/>
<text text-anchor="middle" x="485.068" y="-119.5" font-family="FreeSans" font-size="10.00">functional</text>
</g>
<!-- Node4&#45;&gt;Node10 -->
<g id="edge20" class="edge"><title>Node4&#45;&gt;Node10</title>
<path fill="none" stroke="midnightblue" d="M375.667,-168.444C397.061,-159.557 430.749,-145.563 455.092,-135.451"/>
<polygon fill="midnightblue" stroke="midnightblue" points="456.673,-138.585 464.565,-131.516 453.987,-132.12 456.673,-138.585"/>
</g>
<!-- Node11 -->
<g id="node23" class="node"><title>Node11</title>
<polygon fill="white" stroke="#bfbfbf" points="209.068,-112.5 209.068,-131.5 265.068,-131.5 265.068,-112.5 209.068,-112.5"/>
<text text-anchor="middle" x="237.068" y="-119.5" font-family="FreeSans" font-size="10.00">iostream</text>
</g>
<!-- Node4&#45;&gt;Node11 -->
<g id="edge24" class="edge"><title>Node4&#45;&gt;Node11</title>
<path fill="none" stroke="midnightblue" d="M336.37,-168.444C317.123,-159.636 286.915,-145.812 264.867,-135.722"/>
<polygon fill="midnightblue" stroke="midnightblue" points="266.227,-132.495 255.678,-131.516 263.314,-138.86 266.227,-132.495"/>
</g>
<!-- Node12 -->
<g id="node25" class="node"><title>Node12</title>
<polygon fill="white" stroke="#bfbfbf" points="283.068,-112.5 283.068,-131.5 329.068,-131.5 329.068,-112.5 283.068,-112.5"/>
<text text-anchor="middle" x="306.068" y="-119.5" font-family="FreeSans" font-size="10.00">cstring</text>
</g>
<!-- Node4&#45;&gt;Node12 -->
<g id="edge26" class="edge"><title>Node4&#45;&gt;Node12</title>
<path fill="none" stroke="midnightblue" d="M346.976,-168.083C339.912,-160.298 329.48,-148.801 320.919,-139.367"/>
<polygon fill="midnightblue" stroke="midnightblue" points="323.32,-136.805 314.008,-131.751 318.136,-141.509 323.32,-136.805"/>
</g>
<!-- Node6 -->
<g id="node11" class="node"><title>Node6</title>
<polygon fill="white" stroke="#bfbfbf" points="369.068,-0.5 369.068,-19.5 413.068,-19.5 413.068,-0.5 369.068,-0.5"/>
<text text-anchor="middle" x="391.068" y="-7.5" font-family="FreeSans" font-size="10.00">vector</text>
</g>
<!-- Node5&#45;&gt;Node6 -->
<g id="edge10" class="edge"><title>Node5&#45;&gt;Node6</title>
<path fill="none" stroke="midnightblue" d="M164.331,-59.0147C212.151,-48.8883 308.709,-28.4407 358.99,-17.7929"/>
<polygon fill="midnightblue" stroke="midnightblue" points="359.925,-21.1726 368.983,-15.6768 358.475,-14.3245 359.925,-21.1726"/>
</g>
<!-- Node7&#45;&gt;Node5 -->
<g id="edge14" class="edge"><title>Node7&#45;&gt;Node5</title>
<path fill="none" stroke="midnightblue" d="M159.444,-112.083C155.611,-104.691 150.043,-93.9533 145.303,-84.8111"/>
<polygon fill="midnightblue" stroke="midnightblue" points="148.316,-83.0175 140.605,-75.7511 142.101,-86.2398 148.316,-83.0175"/>
</g>
<!-- Node7&#45;&gt;Node8 -->
<g id="edge16" class="edge"><title>Node7&#45;&gt;Node8</title>
<path fill="none" stroke="midnightblue" d="M191.457,-113.605C226.1,-104.251 285.965,-88.0876 325.293,-77.4692"/>
<polygon fill="midnightblue" stroke="midnightblue" points="326.324,-80.8162 335.066,-74.8304 324.499,-74.0581 326.324,-80.8162"/>
</g>
<!-- Node13&#45;&gt;Node5 -->
<g id="edge30" class="edge"><title>Node13&#45;&gt;Node5</title>
<path fill="none" stroke="midnightblue" d="M204.284,-224.353C186.246,-217.017 162.243,-204.964 146.068,-188 121.33,-162.058 112.629,-147.263 119.068,-112 120.755,-102.757 124.243,-92.9479 127.622,-84.8546"/>
<polygon fill="midnightblue" stroke="midnightblue" points="130.831,-86.2518 131.701,-75.6928 124.436,-83.4045 130.831,-86.2518"/>
</g>
<!-- Node14 -->
<g id="node30" class="node"><title>Node14</title>
<a xlink:href="xml_8h.html" target="_top" xlink:title="Classes providing support for XML data files. ">
<polygon fill="white" stroke="red" points="155.068,-168.5 155.068,-187.5 195.068,-187.5 195.068,-168.5 155.068,-168.5"/>
<text text-anchor="middle" x="175.068" y="-175.5" font-family="FreeSans" font-size="10.00">xml.h</text>
</a>
</g>
<!-- Node13&#45;&gt;Node14 -->
<g id="edge32" class="edge"><title>Node13&#45;&gt;Node14</title>
<path fill="none" stroke="midnightblue" d="M220.151,-224.083C212.287,-216.22 200.636,-204.569 191.149,-195.081"/>
<polygon fill="midnightblue" stroke="midnightblue" points="193.365,-192.347 183.819,-187.751 188.415,-197.297 193.365,-192.347"/>
</g>
<!-- Node15 -->
<g id="node32" class="node"><title>Node15</title>
<a xlink:href="Array_8h.html" target="_top" xlink:title="Header file for class Cantera::Array2D. ">
<polygon fill="white" stroke="red" points="213.068,-168.5 213.068,-187.5 261.068,-187.5 261.068,-168.5 213.068,-168.5"/>
<text text-anchor="middle" x="237.068" y="-175.5" font-family="FreeSans" font-size="10.00">Array.h</text>
</a>
</g>
<!-- Node13&#45;&gt;Node15 -->
<g id="edge34" class="edge"><title>Node13&#45;&gt;Node15</title>
<path fill="none" stroke="midnightblue" d="M230.389,-224.083C231.449,-216.927 232.974,-206.635 234.299,-197.691"/>
<polygon fill="midnightblue" stroke="midnightblue" points="237.768,-198.156 235.771,-187.751 230.843,-197.13 237.768,-198.156"/>
</g>
<!-- Node15&#45;&gt;Node5 -->
<g id="edge36" class="edge"><title>Node15&#45;&gt;Node5</title>
<path fill="none" stroke="midnightblue" d="M212.977,-170.445C183.964,-162.006 137.886,-146.676 128.068,-132 118.898,-118.295 122.686,-99.2561 127.693,-85.3261"/>
<polygon fill="midnightblue" stroke="midnightblue" points="131.025,-86.4235 131.564,-75.8424 124.544,-83.7777 131.025,-86.4235"/>
</g>
<!-- Node15&#45;&gt;Node7 -->
<g id="edge38" class="edge"><title>Node15&#45;&gt;Node7</title>
<path fill="none" stroke="midnightblue" d="M225.339,-168.324C214.23,-160.107 197.325,-147.602 184.084,-137.807"/>
<polygon fill="midnightblue" stroke="midnightblue" points="186.131,-134.967 176.01,-131.834 181.968,-140.595 186.131,-134.967"/>
</g>
<!-- Node15&#45;&gt;Node11 -->
<g id="edge40" class="edge"><title>Node15&#45;&gt;Node11</title>
<path fill="none" stroke="midnightblue" d="M237.068,-168.083C237.068,-161.006 237.068,-150.861 237.068,-141.986"/>
<polygon fill="midnightblue" stroke="midnightblue" points="240.568,-141.751 237.068,-131.751 233.568,-141.751 240.568,-141.751"/>
</g>
<!-- Node15&#45;&gt;Node12 -->
<g id="edge42" class="edge"><title>Node15&#45;&gt;Node12</title>
<path fill="none" stroke="midnightblue" d="M248.154,-168.324C258.554,-160.185 274.328,-147.839 286.789,-138.087"/>
<polygon fill="midnightblue" stroke="midnightblue" points="289.062,-140.753 294.78,-131.834 284.748,-135.241 289.062,-140.753"/>
</g>
<!-- Node16&#45;&gt;Node5 -->
<g id="edge46" class="edge"><title>Node16&#45;&gt;Node5</title>
<path fill="none" stroke="midnightblue" d="M81.7797,-224.395C73.4869,-216.025 61.9237,-202.483 57.0676,-188 46.3294,-155.975 40.0937,-141.203 57.0676,-112 66.0666,-96.5175 82.6053,-85.9197 98.2335,-78.9179"/>
<polygon fill="midnightblue" stroke="midnightblue" points="99.8437,-82.0407 107.771,-75.0115 97.1905,-75.563 99.8437,-82.0407"/>
</g>
<!-- Node17&#45;&gt;Node5 -->
<g id="edge50" class="edge"><title>Node17&#45;&gt;Node5</title>
<path fill="none" stroke="midnightblue" d="M50.2843,-280.467C37.8649,-272.769 21.4626,-260.179 14.0676,-244 -3.66294,-205.208 -14.2522,-183.758 45.0676,-112 58.6795,-95.534 79.8031,-84.5722 98.2731,-77.5939"/>
<polygon fill="midnightblue" stroke="midnightblue" points="99.6395,-80.8237 107.915,-74.2086 97.3206,-74.2189 99.6395,-80.8237"/>
</g>
<!-- Node19 -->
<g id="node46" class="node"><title>Node19</title>
<a xlink:href="TransportBase_8h.html" target="_top" xlink:title="Headers for the Transport object, which is the virtual base class for all transport property evaluato...">
<polygon fill="white" stroke="black" points="354.568,-393 354.568,-423 491.568,-423 491.568,-393 354.568,-393"/>
<text text-anchor="start" x="362.568" y="-411" font-family="FreeSans" font-size="10.00">cantera/transport/Transport</text>
<text text-anchor="middle" x="423.068" y="-400" font-family="FreeSans" font-size="10.00">Base.h</text>
</a>
</g>
<!-- Node18&#45;&gt;Node19 -->
<g id="edge54" class="edge"><title>Node18&#45;&gt;Node19</title>
<path fill="none" stroke="midnightblue" d="M422.175,-528.66C422.345,-505.891 422.678,-461.203 422.886,-433.349"/>
<polygon fill="midnightblue" stroke="midnightblue" points="426.387,-433.263 422.961,-423.237 419.387,-433.211 426.387,-433.263"/>
</g>
<!-- Node21 -->
<g id="node53" class="node"><title>Node21</title>
<a xlink:href="TransportParams_8h.html" target="_top" xlink:title="Class that holds the data that is read in from the xml file, and which is used for processing of the ...">
<polygon fill="white" stroke="black" points="257.568,-461 257.568,-491 394.568,-491 394.568,-461 257.568,-461"/>
<text text-anchor="start" x="265.568" y="-479" font-family="FreeSans" font-size="10.00">cantera/transport/Transport</text>
<text text-anchor="middle" x="326.068" y="-468" font-family="FreeSans" font-size="10.00">Params.h</text>
</a>
</g>
<!-- Node18&#45;&gt;Node21 -->
<g id="edge64" class="edge"><title>Node18&#45;&gt;Node21</title>
<path fill="none" stroke="midnightblue" d="M401.237,-528.679C387.684,-519.361 369.823,-507.082 354.911,-496.83"/>
<polygon fill="midnightblue" stroke="midnightblue" points="356.751,-493.848 346.528,-491.066 352.785,-499.616 356.751,-493.848"/>
</g>
<!-- Node22 -->
<g id="node57" class="node"><title>Node22</title>
<a xlink:href="FactoryBase_8h.html" target="_top" xlink:title="File contains the FactoryBase class declarations. ">
<polygon fill="white" stroke="black" points="533.068,-398.5 533.068,-417.5 677.068,-417.5 677.068,-398.5 533.068,-398.5"/>
<text text-anchor="middle" x="605.068" y="-405.5" font-family="FreeSans" font-size="10.00">cantera/base/FactoryBase.h</text>
</a>
</g>
<!-- Node18&#45;&gt;Node22 -->
<g id="edge70" class="edge"><title>Node18&#45;&gt;Node22</title>
<path fill="none" stroke="midnightblue" d="M436.66,-528.881C454.895,-511.602 487.439,-481.938 518.068,-460 537.763,-445.893 561.586,-432.135 579.319,-422.472"/>
<polygon fill="midnightblue" stroke="midnightblue" points="581.328,-425.365 588.48,-417.548 578.014,-419.199 581.328,-425.365"/>
</g>
<!-- Node23 -->
<g id="node60" class="node"><title>Node23</title>
<a xlink:href="LTPspecies_8h.html" target="_top" xlink:title="Header file defining class LTPspecies and its child classes. ">
<polygon fill="white" stroke="black" points="527.068,-466.5 527.068,-485.5 683.068,-485.5 683.068,-466.5 527.068,-466.5"/>
<text text-anchor="middle" x="605.068" y="-473.5" font-family="FreeSans" font-size="10.00">cantera/transport/LTPspecies.h</text>
</a>
</g>
<!-- Node18&#45;&gt;Node23 -->
<g id="edge74" class="edge"><title>Node18&#45;&gt;Node23</title>
<path fill="none" stroke="midnightblue" d="M461.326,-528.841C494.21,-516.982 540.632,-500.239 571.735,-489.022"/>
<polygon fill="midnightblue" stroke="midnightblue" points="573.039,-492.272 581.259,-485.587 570.664,-485.687 573.039,-492.272"/>
</g>
<!-- Node19&#45;&gt;Node2 -->
<g id="edge56" class="edge"><title>Node19&#45;&gt;Node2</title>
<path fill="none" stroke="midnightblue" d="M377.583,-392.933C343.729,-382.462 298.082,-368.345 266.367,-358.536"/>
<polygon fill="midnightblue" stroke="midnightblue" points="267.18,-355.124 256.592,-355.513 265.111,-361.811 267.18,-355.124"/>
</g>
<!-- Node20 -->
<g id="node49" class="node"><title>Node20</title>
<a xlink:href="DenseMatrix_8h.html" target="_top" xlink:title="Headers for the DenseMatrix object, which deals with dense rectangular matrices and description of th...">
<polygon fill="white" stroke="black" points="342.568,-336.5 342.568,-355.5 503.568,-355.5 503.568,-336.5 342.568,-336.5"/>
<text text-anchor="middle" x="423.068" y="-343.5" font-family="FreeSans" font-size="10.00">cantera/numerics/DenseMatrix.h</text>
</a>
</g>
<!-- Node19&#45;&gt;Node20 -->
<g id="edge58" class="edge"><title>Node19&#45;&gt;Node20</title>
<path fill="none" stroke="midnightblue" d="M423.068,-392.781C423.068,-384.781 423.068,-374.689 423.068,-366.017"/>
<polygon fill="midnightblue" stroke="midnightblue" points="426.568,-365.73 423.068,-355.731 419.568,-365.731 426.568,-365.73"/>
</g>
<!-- Node20&#45;&gt;Node5 -->
<g id="edge60" class="edge"><title>Node20&#45;&gt;Node5</title>
<path fill="none" stroke="midnightblue" d="M460.511,-336.499C507.234,-323.417 581.068,-293.491 581.068,-235 581.068,-235 581.068,-235 581.068,-177 581.068,-138.282 557.428,-129.845 523.068,-112 462.85,-80.7265 259.319,-70.8326 174.096,-68.0157"/>
<polygon fill="midnightblue" stroke="midnightblue" points="174.174,-64.5166 164.068,-67.6992 173.953,-71.5131 174.174,-64.5166"/>
</g>
<!-- Node20&#45;&gt;Node15 -->
<g id="edge62" class="edge"><title>Node20&#45;&gt;Node15</title>
<path fill="none" stroke="midnightblue" d="M413.814,-336.381C392.308,-316.392 337.195,-265.423 290.068,-224 278.593,-213.914 265.51,-202.802 255.214,-194.144"/>
<polygon fill="midnightblue" stroke="midnightblue" points="257.229,-191.266 247.317,-187.524 252.732,-196.631 257.229,-191.266"/>
</g>
<!-- Node21&#45;&gt;Node19 -->
<g id="edge68" class="edge"><title>Node21&#45;&gt;Node19</title>
<path fill="none" stroke="midnightblue" d="M347.115,-460.679C360.809,-451.361 378.857,-439.082 393.923,-428.83"/>
<polygon fill="midnightblue" stroke="midnightblue" points="396.096,-431.585 402.394,-423.066 392.158,-425.798 396.096,-431.585"/>
</g>
<!-- Node21&#45;&gt;Node20 -->
<g id="edge66" class="edge"><title>Node21&#45;&gt;Node20</title>
<path fill="none" stroke="midnightblue" d="M325.972,-460.97C326.537,-443.242 329.872,-412.569 345.068,-392 355.838,-377.422 372.851,-366.818 388.243,-359.579"/>
<polygon fill="midnightblue" stroke="midnightblue" points="389.793,-362.722 397.547,-355.502 386.983,-356.31 389.793,-362.722"/>
</g>
<!-- Node22&#45;&gt;Node6 -->
<g id="edge72" class="edge"><title>Node22&#45;&gt;Node6</title>
<path fill="none" stroke="midnightblue" d="M606.841,-398.312C610.608,-379.071 619.068,-331.367 619.068,-291 619.068,-291 619.068,-291 619.068,-121 619.068,-35.2078 486.497,-16.2941 423.534,-12.1493"/>
<polygon fill="midnightblue" stroke="midnightblue" points="423.527,-8.6433 413.344,-11.5681 423.129,-15.6319 423.527,-8.6433"/>
</g>
<!-- Node23&#45;&gt;Node19 -->
<g id="edge76" class="edge"><title>Node23&#45;&gt;Node19</title>
<path fill="none" stroke="midnightblue" d="M581.274,-466.372C553.531,-456.311 506.958,-439.422 471.508,-426.566"/>
<polygon fill="midnightblue" stroke="midnightblue" points="472.423,-423.175 461.829,-423.056 470.036,-429.756 472.423,-423.175"/>
</g>
<!-- Node23&#45;&gt;Node22 -->
<g id="edge78" class="edge"><title>Node23&#45;&gt;Node22</title>
<path fill="none" stroke="midnightblue" d="M605.068,-466.372C605.068,-456.643 605.068,-440.528 605.068,-427.85"/>
<polygon fill="midnightblue" stroke="midnightblue" points="608.568,-427.841 605.068,-417.841 601.568,-427.841 608.568,-427.841"/>
</g>
<!-- Node24&#45;&gt;Node19 -->
<g id="edge84" class="edge"><title>Node24&#45;&gt;Node19</title>
<path fill="none" stroke="midnightblue" d="M588.463,-534.476C570.519,-524.991 541.367,-508.78 518.068,-492 491.476,-472.849 463.516,-447.731 444.871,-430.163"/>
<polygon fill="midnightblue" stroke="midnightblue" points="447.14,-427.491 437.481,-423.136 442.316,-432.564 447.14,-427.491"/>
</g>
<!-- Node24&#45;&gt;Node20 -->
<g id="edge86" class="edge"><title>Node24&#45;&gt;Node20</title>
<path fill="none" stroke="midnightblue" d="M634.534,-534.339C654.649,-526.716 679.795,-513.42 692.068,-492 702.161,-474.383 698.35,-405.326 686.068,-392 663.111,-367.093 580.556,-355.958 513.986,-350.988"/>
<polygon fill="midnightblue" stroke="midnightblue" points="514.094,-347.487 503.871,-350.27 513.598,-354.469 514.094,-347.487"/>
</g>
<!-- Node24&#45;&gt;Node23 -->
<g id="edge82" class="edge"><title>Node24&#45;&gt;Node23</title>
<path fill="none" stroke="midnightblue" d="M605.068,-534.372C605.068,-524.643 605.068,-508.528 605.068,-495.85"/>
<polygon fill="midnightblue" stroke="midnightblue" points="608.568,-495.841 605.068,-485.841 601.568,-495.841 608.568,-495.841"/>
</g>
</g>
</svg>
