<?xml version="1.0" encoding="UTF-8" standalone="no"?>
<!DOCTYPE svg PUBLIC "-//W3C//DTD SVG 1.1//EN"
 "http://www.w3.org/Graphics/SVG/1.1/DTD/svg11.dtd">
<!-- Generated by graphviz version 2.36.0 (20140111.2315)
 -->
<!-- Title: solveSP.h Pages: 1 -->
<svg width="1267pt" height="412pt"
 viewBox="0.00 0.00 1267.45 412.00" xmlns="http://www.w3.org/2000/svg" xmlns:xlink="http://www.w3.org/1999/xlink">
<g id="graph0" class="graph" transform="scale(1 1) rotate(0) translate(4 408)">
<title>solveSP.h</title>
<polygon fill="white" stroke="none" points="-4,4 -4,-408 1263.45,-408 1263.45,4 -4,4"/>
<!-- Node1 -->
<g id="node1" class="node"><title>Node1</title>
<polygon fill="#bfbfbf" stroke="black" points="962.5,-384.5 962.5,-403.5 1021.5,-403.5 1021.5,-384.5 962.5,-384.5"/>
<text text-anchor="middle" x="992" y="-391.5" font-family="FreeSans" font-size="10.00">solveSP.h</text>
</g>
<!-- Node2 -->
<g id="node2" class="node"><title>Node2</title>
<g id="a_node2"><a xlink:href="InterfaceKinetics_8h.html" target="_top" xlink:title="cantera/kinetics/Interface\lKinetics.h">
<polygon fill="white" stroke="black" points="608,-261 608,-291 734,-291 734,-261 608,-261"/>
<text text-anchor="start" x="616" y="-279" font-family="FreeSans" font-size="10.00">cantera/kinetics/Interface</text>
<text text-anchor="middle" x="671" y="-268" font-family="FreeSans" font-size="10.00">Kinetics.h</text>
</a>
</g>
</g>
<!-- Node1&#45;&gt;Node2 -->
<g id="edge1" class="edge"><title>Node1&#45;&gt;Node2</title>
<path fill="none" stroke="midnightblue" d="M968.396,-384.47C916.056,-365.556 789.372,-319.776 719.416,-294.496"/>
<polygon fill="midnightblue" stroke="midnightblue" points="720.53,-291.177 709.936,-291.07 718.151,-297.76 720.53,-291.177"/>
</g>
<!-- Node23 -->
<g id="node23" class="node"><title>Node23</title>
<g id="a_node23"><a xlink:href="SquareMatrix_8h.html" target="_top" xlink:title="Dense, Square (not sparse) matrices. ">
<polygon fill="white" stroke="black" points="1046,-328.5 1046,-347.5 1204,-347.5 1204,-328.5 1046,-328.5"/>
<text text-anchor="middle" x="1125" y="-335.5" font-family="FreeSans" font-size="10.00">cantera/numerics/SquareMatrix.h</text>
</a>
</g>
</g>
<!-- Node1&#45;&gt;Node23 -->
<g id="edge36" class="edge"><title>Node1&#45;&gt;Node23</title>
<path fill="none" stroke="midnightblue" d="M1013.07,-384.444C1035.06,-375.517 1069.73,-361.439 1094.66,-351.317"/>
<polygon fill="midnightblue" stroke="midnightblue" points="1096.08,-354.521 1104.02,-347.516 1093.44,-348.035 1096.08,-354.521"/>
</g>
<!-- Node3 -->
<g id="node3" class="node"><title>Node3</title>
<g id="a_node3"><a xlink:href="mix__defs_8h.html" target="_top" xlink:title="cantera/thermo/mix\l_defs.h">
<polygon fill="white" stroke="black" points="0,-137 0,-167 100,-167 100,-137 0,-137"/>
<text text-anchor="start" x="8" y="-155" font-family="FreeSans" font-size="10.00">cantera/thermo/mix</text>
<text text-anchor="middle" x="50" y="-144" font-family="FreeSans" font-size="10.00">_defs.h</text>
</a>
</g>
</g>
<!-- Node2&#45;&gt;Node3 -->
<g id="edge2" class="edge"><title>Node2&#45;&gt;Node3</title>
<path fill="none" stroke="midnightblue" d="M607.912,-267.108C540.532,-258.274 430.763,-242.716 337,-224 257.894,-208.21 167.752,-185.049 109.937,-169.518"/>
<polygon fill="midnightblue" stroke="midnightblue" points="110.802,-166.126 100.235,-166.902 108.979,-172.885 110.802,-166.126"/>
</g>
<!-- Node4 -->
<g id="node4" class="node"><title>Node4</title>
<g id="a_node4"><a xlink:href="Kinetics_8h.html" target="_top" xlink:title="Base class for kinetics managers and also contains the kineticsmgr module documentation (see Kinetics...">
<polygon fill="white" stroke="black" points="346.5,-204.5 346.5,-223.5 405.5,-223.5 405.5,-204.5 346.5,-204.5"/>
<text text-anchor="middle" x="376" y="-211.5" font-family="FreeSans" font-size="10.00">Kinetics.h</text>
</a>
</g>
</g>
<!-- Node2&#45;&gt;Node4 -->
<g id="edge3" class="edge"><title>Node2&#45;&gt;Node4</title>
<path fill="none" stroke="midnightblue" d="M607.715,-262.128C549.393,-250.266 464.652,-233.031 415.448,-223.023"/>
<polygon fill="midnightblue" stroke="midnightblue" points="416.007,-219.565 405.51,-221.002 414.612,-226.425 416.007,-219.565"/>
</g>
<!-- Node14 -->
<g id="node14" class="node"><title>Node14</title>
<g id="a_node14"><a xlink:href="Reaction_8h.html" target="_top" xlink:title="Reaction.h">
<polygon fill="white" stroke="black" points="669,-204.5 669,-223.5 731,-223.5 731,-204.5 669,-204.5"/>
<text text-anchor="middle" x="700" y="-211.5" font-family="FreeSans" font-size="10.00">Reaction.h</text>
</a>
</g>
</g>
<!-- Node2&#45;&gt;Node14 -->
<g id="edge18" class="edge"><title>Node2&#45;&gt;Node14</title>
<path fill="none" stroke="midnightblue" d="M677.873,-260.781C681.913,-252.422 687.058,-241.777 691.369,-232.856"/>
<polygon fill="midnightblue" stroke="midnightblue" points="694.58,-234.257 695.78,-223.731 688.277,-231.211 694.58,-234.257"/>
</g>
<!-- Node15 -->
<g id="node15" class="node"><title>Node15</title>
<g id="a_node15"><a xlink:href="utilities_8h.html" target="_top" xlink:title="Various templated functions that carry out common vector operations (see Templated Utility Functions)...">
<polygon fill="white" stroke="black" points="584.5,-142.5 584.5,-161.5 697.5,-161.5 697.5,-142.5 584.5,-142.5"/>
<text text-anchor="middle" x="641" y="-149.5" font-family="FreeSans" font-size="10.00">cantera/base/utilities.h</text>
</a>
</g>
</g>
<!-- Node2&#45;&gt;Node15 -->
<g id="edge33" class="edge"><title>Node2&#45;&gt;Node15</title>
<path fill="none" stroke="midnightblue" d="M667.441,-260.526C661.976,-238.303 651.524,-195.798 645.528,-171.414"/>
<polygon fill="midnightblue" stroke="midnightblue" points="648.907,-170.498 643.12,-161.623 642.11,-172.169 648.907,-170.498"/>
</g>
<!-- Node22 -->
<g id="node22" class="node"><title>Node22</title>
<g id="a_node22"><a xlink:href="RateCoeffMgr_8h.html" target="_top" xlink:title="RateCoeffMgr.h">
<polygon fill="white" stroke="black" points="817.5,-204.5 817.5,-223.5 900.5,-223.5 900.5,-204.5 817.5,-204.5"/>
<text text-anchor="middle" x="859" y="-211.5" font-family="FreeSans" font-size="10.00">RateCoeffMgr.h</text>
</a>
</g>
</g>
<!-- Node2&#45;&gt;Node22 -->
<g id="edge34" class="edge"><title>Node2&#45;&gt;Node22</title>
<path fill="none" stroke="midnightblue" d="M715.078,-260.933C747.743,-250.508 791.738,-236.467 822.454,-226.663"/>
<polygon fill="midnightblue" stroke="midnightblue" points="823.864,-229.887 832.327,-223.513 821.736,-223.219 823.864,-229.887"/>
</g>
<!-- Node4&#45;&gt;Node3 -->
<g id="edge14" class="edge"><title>Node4&#45;&gt;Node3</title>
<path fill="none" stroke="midnightblue" d="M346.423,-208.514C297.778,-201.003 197.903,-185.022 114,-168 112.742,-167.745 111.471,-167.483 110.19,-167.216"/>
<polygon fill="midnightblue" stroke="midnightblue" points="110.758,-163.758 100.246,-165.077 109.287,-170.602 110.758,-163.758"/>
</g>
<!-- Node5 -->
<g id="node5" class="node"><title>Node5</title>
<g id="a_node5"><a xlink:href="ThermoPhase_8h.html" target="_top" xlink:title="Header file for class ThermoPhase, the base class for phases with thermodynamic properties, and the text for the Module thermoprops (see Thermodynamic Properties and class ThermoPhase). ">
<polygon fill="white" stroke="black" points="248,-142.5 248,-161.5 400,-161.5 400,-142.5 248,-142.5"/>
<text text-anchor="middle" x="324" y="-149.5" font-family="FreeSans" font-size="10.00">cantera/thermo/ThermoPhase.h</text>
</a>
</g>
</g>
<!-- Node4&#45;&gt;Node5 -->
<g id="edge4" class="edge"><title>Node4&#45;&gt;Node5</title>
<path fill="none" stroke="midnightblue" d="M368.55,-204.403C360.672,-195.314 348.055,-180.756 338.256,-169.449"/>
<polygon fill="midnightblue" stroke="midnightblue" points="340.631,-166.845 331.437,-161.581 335.341,-171.43 340.631,-166.845"/>
</g>
<!-- Node10 -->
<g id="node10" class="node"><title>Node10</title>
<g id="a_node10"><a xlink:href="smart__ptr_8h_source.html" target="_top" xlink:title="cantera/base/smart\l_ptr.h">
<polygon fill="white" stroke="red" points="116.5,-1 116.5,-31 215.5,-31 215.5,-1 116.5,-1"/>
<text text-anchor="start" x="124.5" y="-19" font-family="FreeSans" font-size="10.00">cantera/base/smart</text>
<text text-anchor="middle" x="166" y="-8" font-family="FreeSans" font-size="10.00">_ptr.h</text>
</a>
</g>
</g>
<!-- Node4&#45;&gt;Node10 -->
<g id="edge17" class="edge"><title>Node4&#45;&gt;Node10</title>
<path fill="none" stroke="midnightblue" d="M346.44,-209.161C288.442,-201.333 164.285,-182.998 152,-168 122.367,-131.822 140.596,-73.1531 154.534,-40.6206"/>
<polygon fill="midnightblue" stroke="midnightblue" points="157.764,-41.9737 158.665,-31.4172 151.377,-39.1075 157.764,-41.9737"/>
</g>
<!-- Node11 -->
<g id="node11" class="node"><title>Node11</title>
<g id="a_node11"><a xlink:href="StoichManager_8h.html" target="_top" xlink:title="StoichManager.h">
<polygon fill="white" stroke="black" points="465.5,-142.5 465.5,-161.5 554.5,-161.5 554.5,-142.5 465.5,-142.5"/>
<text text-anchor="middle" x="510" y="-149.5" font-family="FreeSans" font-size="10.00">StoichManager.h</text>
</a>
</g>
</g>
<!-- Node4&#45;&gt;Node11 -->
<g id="edge10" class="edge"><title>Node4&#45;&gt;Node11</title>
<path fill="none" stroke="midnightblue" d="M395.199,-204.403C417.787,-194.29 455.499,-177.404 481.501,-165.761"/>
<polygon fill="midnightblue" stroke="midnightblue" points="483.14,-168.862 490.837,-161.581 480.279,-162.473 483.14,-168.862"/>
</g>
<!-- Node13 -->
<g id="node13" class="node"><title>Node13</title>
<g id="a_node13"><a xlink:href="global_8h.html" target="_top" xlink:title="This file contains definitions for utility functions and text for modules, inputfiles, logs, textlogs, (see Input File Handling, Diagnostic Output, and Writing messages to the screen). ">
<polygon fill="white" stroke="black" points="374,-74.5 374,-93.5 482,-93.5 482,-74.5 374,-74.5"/>
<text text-anchor="middle" x="428" y="-81.5" font-family="FreeSans" font-size="10.00">cantera/base/global.h</text>
</a>
</g>
</g>
<!-- Node4&#45;&gt;Node13 -->
<g id="edge15" class="edge"><title>Node4&#45;&gt;Node13</title>
<path fill="none" stroke="midnightblue" d="M384.007,-204.385C391.556,-195.799 402.634,-181.921 409,-168 418.581,-147.047 423.539,-120.842 425.951,-103.547"/>
<polygon fill="midnightblue" stroke="midnightblue" points="429.425,-103.969 427.192,-93.6125 422.479,-103.102 429.425,-103.969"/>
</g>
<!-- Node6 -->
<g id="node6" class="node"><title>Node6</title>
<g id="a_node6"><a xlink:href="Phase_8h.html" target="_top" xlink:title="Header file for class Phase. ">
<polygon fill="white" stroke="red" points="304.5,-74.5 304.5,-93.5 355.5,-93.5 355.5,-74.5 304.5,-74.5"/>
<text text-anchor="middle" x="330" y="-81.5" font-family="FreeSans" font-size="10.00">Phase.h</text>
</a>
</g>
</g>
<!-- Node5&#45;&gt;Node6 -->
<g id="edge5" class="edge"><title>Node5&#45;&gt;Node6</title>
<path fill="none" stroke="midnightblue" d="M324.784,-142.372C325.669,-132.643 327.134,-116.528 328.286,-103.85"/>
<polygon fill="midnightblue" stroke="midnightblue" points="331.776,-104.117 329.196,-93.8411 324.805,-103.483 331.776,-104.117"/>
</g>
<!-- Node8 -->
<g id="node8" class="node"><title>Node8</title>
<g id="a_node8"><a xlink:href="SpeciesThermo_8h.html" target="_top" xlink:title="Virtual base class for the calculation of multiple&#45;species thermodynamic reference&#45;state property man...">
<polygon fill="white" stroke="black" points="194,-74.5 194,-93.5 286,-93.5 286,-74.5 194,-74.5"/>
<text text-anchor="middle" x="240" y="-81.5" font-family="FreeSans" font-size="10.00">SpeciesThermo.h</text>
</a>
</g>
</g>
<!-- Node5&#45;&gt;Node8 -->
<g id="edge7" class="edge"><title>Node5&#45;&gt;Node8</title>
<path fill="none" stroke="midnightblue" d="M313.018,-142.372C299.31,-131.6 275.639,-113.002 258.972,-99.9065"/>
<polygon fill="midnightblue" stroke="midnightblue" points="261.01,-97.0566 250.984,-93.6305 256.685,-102.561 261.01,-97.0566"/>
</g>
<!-- Node7 -->
<g id="node7" class="node"><title>Node7</title>
<g id="a_node7"><a xlink:href="ctexceptions_8h.html" target="_top" xlink:title="Definitions for the classes that are thrown when Cantera experiences an error condition (also contain...">
<polygon fill="white" stroke="red" points="946.5,-6.5 946.5,-25.5 1083.5,-25.5 1083.5,-6.5 946.5,-6.5"/>
<text text-anchor="middle" x="1015" y="-13.5" font-family="FreeSans" font-size="10.00">cantera/base/ctexceptions.h</text>
</a>
</g>
</g>
<!-- Node6&#45;&gt;Node7 -->
<g id="edge6" class="edge"><title>Node6&#45;&gt;Node7</title>
<path fill="none" stroke="midnightblue" d="M346.694,-74.484C352.365,-71.9631 358.829,-69.483 365,-68 598.011,-12.0013 664.551,-55.9188 903,-32 917.137,-30.5819 932.239,-28.7657 946.628,-26.8902"/>
<polygon fill="midnightblue" stroke="midnightblue" points="947.503,-30.3047 956.956,-25.5188 946.582,-23.3656 947.503,-30.3047"/>
</g>
<!-- Node9 -->
<g id="node9" class="node"><title>Node9</title>
<g id="a_node9"><a xlink:href="ct__defs_8h.html" target="_top" xlink:title="This file contains definitions of terms that are used in internal routines and are unlikely to need m...">
<polygon fill="white" stroke="red" points="780,-6.5 780,-25.5 894,-25.5 894,-6.5 780,-6.5"/>
<text text-anchor="middle" x="837" y="-13.5" font-family="FreeSans" font-size="10.00">cantera/base/ct_defs.h</text>
</a>
</g>
</g>
<!-- Node8&#45;&gt;Node9 -->
<g id="edge8" class="edge"><title>Node8&#45;&gt;Node9</title>
<path fill="none" stroke="midnightblue" d="M267.766,-74.4268C276.419,-72.0263 286.042,-69.6305 295,-68 464.233,-37.1985 666.781,-24.4159 769.739,-19.5996"/>
<polygon fill="midnightblue" stroke="midnightblue" points="770.16,-23.0841 779.989,-19.1311 769.84,-16.0914 770.16,-23.0841"/>
</g>
<!-- Node8&#45;&gt;Node10 -->
<g id="edge9" class="edge"><title>Node8&#45;&gt;Node10</title>
<path fill="none" stroke="midnightblue" d="M230.326,-74.3717C220.042,-65.2 203.396,-50.3536 189.614,-38.0615"/>
<polygon fill="midnightblue" stroke="midnightblue" points="191.693,-35.2256 181.9,-31.1815 187.034,-40.4497 191.693,-35.2256"/>
</g>
<!-- Node11&#45;&gt;Node7 -->
<g id="edge13" class="edge"><title>Node11&#45;&gt;Node7</title>
<path fill="none" stroke="midnightblue" d="M509.034,-142.349C507.656,-125.225 507.345,-87.0259 529,-68 591.725,-12.8906 820.052,-41.5434 903,-32 916.487,-30.4483 930.867,-28.6393 944.671,-26.8257"/>
<polygon fill="midnightblue" stroke="midnightblue" points="945.148,-30.2932 954.6,-25.5078 944.227,-23.3541 945.148,-30.2932"/>
</g>
<!-- Node12 -->
<g id="node12" class="node"><title>Node12</title>
<g id="a_node12"><a xlink:href="stringUtils_8h.html" target="_top" xlink:title="Contains declarations for string manipulation functions within Cantera. ">
<polygon fill="white" stroke="red" points="683.5,-74.5 683.5,-93.5 808.5,-93.5 808.5,-74.5 683.5,-74.5"/>
<text text-anchor="middle" x="746" y="-81.5" font-family="FreeSans" font-size="10.00">cantera/base/stringUtils.h</text>
</a>
</g>
</g>
<!-- Node11&#45;&gt;Node12 -->
<g id="edge11" class="edge"><title>Node11&#45;&gt;Node12</title>
<path fill="none" stroke="midnightblue" d="M540.853,-142.372C583.107,-130.555 659.044,-109.318 705.733,-96.261"/>
<polygon fill="midnightblue" stroke="midnightblue" points="706.826,-99.5899 715.514,-93.5259 704.94,-92.8485 706.826,-99.5899"/>
</g>
<!-- Node12&#45;&gt;Node9 -->
<g id="edge12" class="edge"><title>Node12&#45;&gt;Node9</title>
<path fill="none" stroke="midnightblue" d="M757.897,-74.3717C772.884,-63.5015 798.862,-44.6602 816.942,-31.5474"/>
<polygon fill="midnightblue" stroke="midnightblue" points="819.06,-34.3349 825.1,-25.6305 814.95,-28.6684 819.06,-34.3349"/>
</g>
<!-- Node13&#45;&gt;Node9 -->
<g id="edge16" class="edge"><title>Node13&#45;&gt;Node9</title>
<path fill="none" stroke="midnightblue" d="M464.609,-74.4412C474.748,-72.2027 485.776,-69.8898 496,-68 590.481,-50.5354 700.538,-34.922 769.497,-25.7042"/>
<polygon fill="midnightblue" stroke="midnightblue" points="770.333,-29.1238 779.784,-24.3357 769.41,-22.185 770.333,-29.1238"/>
</g>
<!-- Node14&#45;&gt;Node10 -->
<g id="edge24" class="edge"><title>Node14&#45;&gt;Node10</title>
<path fill="none" stroke="midnightblue" d="M668.858,-213.076C577.743,-212.819 313.426,-208.512 239,-168 205.104,-149.549 201.72,-134.783 185,-100 176.069,-81.4206 171.23,-58.4536 168.675,-41.3924"/>
<polygon fill="midnightblue" stroke="midnightblue" points="172.099,-40.5879 167.306,-31.1391 165.16,-41.5144 172.099,-40.5879"/>
</g>
<!-- Node14&#45;&gt;Node15 -->
<g id="edge19" class="edge"><title>Node14&#45;&gt;Node15</title>
<path fill="none" stroke="midnightblue" d="M691.547,-204.403C682.434,-195.136 667.73,-180.183 656.524,-168.788"/>
<polygon fill="midnightblue" stroke="midnightblue" points="658.945,-166.257 649.438,-161.581 653.953,-171.165 658.945,-166.257"/>
</g>
<!-- Node18 -->
<g id="node18" class="node"><title>Node18</title>
<g id="a_node18"><a xlink:href="RxnRates_8h.html" target="_top" xlink:title="cantera/kinetics/RxnRates.h">
<polygon fill="white" stroke="black" points="857.5,-142.5 857.5,-161.5 994.5,-161.5 994.5,-142.5 857.5,-142.5"/>
<text text-anchor="middle" x="926" y="-149.5" font-family="FreeSans" font-size="10.00">cantera/kinetics/RxnRates.h</text>
</a>
</g>
</g>
<!-- Node14&#45;&gt;Node18 -->
<g id="edge25" class="edge"><title>Node14&#45;&gt;Node18</title>
<path fill="none" stroke="midnightblue" d="M731.424,-204.657C771.144,-194.112 839.658,-175.923 883.88,-164.182"/>
<polygon fill="midnightblue" stroke="midnightblue" points="884.98,-167.512 893.747,-161.563 883.184,-160.746 884.98,-167.512"/>
</g>
<!-- Node21 -->
<g id="node21" class="node"><title>Node21</title>
<g id="a_node21"><a xlink:href="Falloff_8h_source.html" target="_top" xlink:title="cantera/kinetics/Falloff.h">
<polygon fill="white" stroke="black" points="717.5,-142.5 717.5,-161.5 838.5,-161.5 838.5,-142.5 717.5,-142.5"/>
<text text-anchor="middle" x="778" y="-149.5" font-family="FreeSans" font-size="10.00">cantera/kinetics/Falloff.h</text>
</a>
</g>
</g>
<!-- Node14&#45;&gt;Node21 -->
<g id="edge31" class="edge"><title>Node14&#45;&gt;Node21</title>
<path fill="none" stroke="midnightblue" d="M711.175,-204.403C723.571,-194.869 743.79,-179.315 758.746,-167.811"/>
<polygon fill="midnightblue" stroke="midnightblue" points="761.053,-170.452 766.845,-161.581 756.785,-164.904 761.053,-170.452"/>
</g>
<!-- Node15&#45;&gt;Node9 -->
<g id="edge20" class="edge"><title>Node15&#45;&gt;Node9</title>
<path fill="none" stroke="midnightblue" d="M677.747,-142.434C726.408,-130.778 807.248,-110.207 817,-100 833.45,-82.7824 837.13,-54.4867 837.589,-35.7982"/>
<polygon fill="midnightblue" stroke="midnightblue" points="841.088,-35.573 837.544,-25.5885 834.088,-35.6038 841.088,-35.573"/>
</g>
<!-- Node15&#45;&gt;Node13 -->
<g id="edge21" class="edge"><title>Node15&#45;&gt;Node13</title>
<path fill="none" stroke="midnightblue" d="M613.154,-142.372C575.258,-130.629 507.342,-109.585 465.141,-96.5083"/>
<polygon fill="midnightblue" stroke="midnightblue" points="466.103,-93.1425 455.515,-93.5259 464.031,-99.8289 466.103,-93.1425"/>
</g>
<!-- Node16 -->
<g id="node16" class="node"><title>Node16</title>
<polygon fill="white" stroke="#bfbfbf" points="538,-74.5 538,-93.5 596,-93.5 596,-74.5 538,-74.5"/>
<text text-anchor="middle" x="567" y="-81.5" font-family="FreeSans" font-size="10.00">stdexcept</text>
</g>
<!-- Node15&#45;&gt;Node16 -->
<g id="edge22" class="edge"><title>Node15&#45;&gt;Node16</title>
<path fill="none" stroke="midnightblue" d="M631.326,-142.372C619.536,-131.856 599.383,-113.882 584.771,-100.85"/>
<polygon fill="midnightblue" stroke="midnightblue" points="586.705,-97.8853 576.913,-93.8411 582.046,-103.109 586.705,-97.8853"/>
</g>
<!-- Node17 -->
<g id="node17" class="node"><title>Node17</title>
<polygon fill="white" stroke="#bfbfbf" points="614.5,-74.5 614.5,-93.5 665.5,-93.5 665.5,-74.5 614.5,-74.5"/>
<text text-anchor="middle" x="640" y="-81.5" font-family="FreeSans" font-size="10.00">numeric</text>
</g>
<!-- Node15&#45;&gt;Node17 -->
<g id="edge23" class="edge"><title>Node15&#45;&gt;Node17</title>
<path fill="none" stroke="midnightblue" d="M640.869,-142.372C640.722,-132.643 640.478,-116.528 640.286,-103.85"/>
<polygon fill="midnightblue" stroke="midnightblue" points="643.785,-103.787 640.134,-93.8411 636.786,-103.893 643.785,-103.787"/>
</g>
<!-- Node18&#45;&gt;Node7 -->
<g id="edge28" class="edge"><title>Node18&#45;&gt;Node7</title>
<path fill="none" stroke="midnightblue" d="M944.41,-142.368C960.509,-133.859 983.25,-119.33 996,-100 1008.88,-80.4722 1013.1,-53.3706 1014.44,-35.5211"/>
<polygon fill="midnightblue" stroke="midnightblue" points="1017.93,-35.6955 1014.96,-25.5264 1010.94,-35.33 1017.93,-35.6955"/>
</g>
<!-- Node18&#45;&gt;Node12 -->
<g id="edge29" class="edge"><title>Node18&#45;&gt;Node12</title>
<path fill="none" stroke="midnightblue" d="M902.468,-142.372C870.849,-130.778 814.499,-110.116 778.751,-97.0087"/>
<polygon fill="midnightblue" stroke="midnightblue" points="779.846,-93.6824 769.252,-93.5259 777.436,-100.255 779.846,-93.6824"/>
</g>
<!-- Node19 -->
<g id="node19" class="node"><title>Node19</title>
<g id="a_node19"><a xlink:href="reaction__defs_8h.html" target="_top" xlink:title="This file defines some constants used to specify reaction types. ">
<polygon fill="white" stroke="black" points="865,-69 865,-99 987,-99 987,-69 865,-69"/>
<text text-anchor="start" x="873" y="-87" font-family="FreeSans" font-size="10.00">cantera/kinetics/reaction</text>
<text text-anchor="middle" x="926" y="-76" font-family="FreeSans" font-size="10.00">_defs.h</text>
</a>
</g>
</g>
<!-- Node18&#45;&gt;Node19 -->
<g id="edge26" class="edge"><title>Node18&#45;&gt;Node19</title>
<path fill="none" stroke="midnightblue" d="M926,-142.372C926,-133.971 926,-120.811 926,-109.213"/>
<polygon fill="midnightblue" stroke="midnightblue" points="929.5,-109.181 926,-99.1815 922.5,-109.181 929.5,-109.181"/>
</g>
<!-- Node20 -->
<g id="node20" class="node"><title>Node20</title>
<polygon fill="white" stroke="#bfbfbf" points="1043.5,-74.5 1043.5,-93.5 1096.5,-93.5 1096.5,-74.5 1043.5,-74.5"/>
<text text-anchor="middle" x="1070" y="-81.5" font-family="FreeSans" font-size="10.00">iostream</text>
</g>
<!-- Node18&#45;&gt;Node20 -->
<g id="edge30" class="edge"><title>Node18&#45;&gt;Node20</title>
<path fill="none" stroke="midnightblue" d="M944.825,-142.372C969.512,-131.057 1013.04,-111.105 1041.71,-97.9678"/>
<polygon fill="midnightblue" stroke="midnightblue" points="1043.54,-100.979 1051.17,-93.6305 1040.62,-94.6153 1043.54,-100.979"/>
</g>
<!-- Node19&#45;&gt;Node9 -->
<g id="edge27" class="edge"><title>Node19&#45;&gt;Node9</title>
<path fill="none" stroke="midnightblue" d="M906.688,-68.679C891.901,-57.7134 871.582,-42.645 856.699,-31.6085"/>
<polygon fill="midnightblue" stroke="midnightblue" points="858.765,-28.7832 848.648,-25.6379 854.596,-34.4058 858.765,-28.7832"/>
</g>
<!-- Node21&#45;&gt;Node19 -->
<g id="edge32" class="edge"><title>Node21&#45;&gt;Node19</title>
<path fill="none" stroke="midnightblue" d="M797.348,-142.372C819.523,-132.483 856.491,-115.997 885.123,-103.229"/>
<polygon fill="midnightblue" stroke="midnightblue" points="886.772,-106.326 894.48,-99.0562 883.921,-99.9326 886.772,-106.326"/>
</g>
<!-- Node22&#45;&gt;Node18 -->
<g id="edge35" class="edge"><title>Node22&#45;&gt;Node18</title>
<path fill="none" stroke="midnightblue" d="M868.599,-204.403C879.048,-195.047 895.968,-179.895 908.736,-168.46"/>
<polygon fill="midnightblue" stroke="midnightblue" points="911.304,-170.859 916.418,-161.581 906.634,-165.644 911.304,-170.859"/>
</g>
<!-- Node24 -->
<g id="node24" class="node"><title>Node24</title>
<g id="a_node24"><a xlink:href="DenseMatrix_8h.html" target="_top" xlink:title="Headers for the DenseMatrix object, which deals with dense rectangular matrices and description of th...">
<polygon fill="white" stroke="black" points="1086.5,-266.5 1086.5,-285.5 1163.5,-285.5 1163.5,-266.5 1086.5,-266.5"/>
<text text-anchor="middle" x="1125" y="-273.5" font-family="FreeSans" font-size="10.00">DenseMatrix.h</text>
</a>
</g>
</g>
<!-- Node23&#45;&gt;Node24 -->
<g id="edge37" class="edge"><title>Node23&#45;&gt;Node24</title>
<path fill="none" stroke="midnightblue" d="M1125,-328.403C1125,-319.938 1125,-306.728 1125,-295.82"/>
<polygon fill="midnightblue" stroke="midnightblue" points="1128.5,-295.581 1125,-285.581 1121.5,-295.581 1128.5,-295.581"/>
</g>
<!-- Node27 -->
<g id="node27" class="node"><title>Node27</title>
<g id="a_node27"><a xlink:href="GeneralMatrix_8h.html" target="_top" xlink:title="Declarations for the class GeneralMatrix which is a virtual base class for matrices handled by solver...">
<polygon fill="white" stroke="black" points="1153,-74.5 1153,-93.5 1237,-93.5 1237,-74.5 1153,-74.5"/>
<text text-anchor="middle" x="1195" y="-81.5" font-family="FreeSans" font-size="10.00">GeneralMatrix.h</text>
</a>
</g>
</g>
<!-- Node23&#45;&gt;Node27 -->
<g id="edge44" class="edge"><title>Node23&#45;&gt;Node27</title>
<path fill="none" stroke="midnightblue" d="M1138.2,-328.376C1149.25,-320.372 1164.39,-307.395 1172,-292 1203.21,-228.836 1200.23,-141.909 1197.03,-103.982"/>
<polygon fill="midnightblue" stroke="midnightblue" points="1200.5,-103.488 1196.07,-93.8647 1193.53,-104.151 1200.5,-103.488"/>
</g>
<!-- Node24&#45;&gt;Node7 -->
<g id="edge39" class="edge"><title>Node24&#45;&gt;Node7</title>
<path fill="none" stroke="midnightblue" d="M1137.27,-266.339C1177.69,-236.775 1301.03,-137.815 1245,-68 1226.12,-44.4801 1152.67,-31.134 1093.79,-24.0451"/>
<polygon fill="midnightblue" stroke="midnightblue" points="1094.06,-20.5538 1083.73,-22.8769 1093.26,-27.5071 1094.06,-20.5538"/>
</g>
<!-- Node24&#45;&gt;Node9 -->
<g id="edge38" class="edge"><title>Node24&#45;&gt;Node9</title>
<path fill="none" stroke="midnightblue" d="M1127.43,-266.081C1135.46,-234.37 1157.8,-125.882 1105,-68 1098.09,-60.4235 977.825,-39.7496 900.773,-27.172"/>
<polygon fill="midnightblue" stroke="midnightblue" points="901.102,-23.6796 890.67,-25.5288 899.979,-30.5889 901.102,-23.6796"/>
</g>
<!-- Node25 -->
<g id="node25" class="node"><title>Node25</title>
<g id="a_node25"><a xlink:href="Array_8h.html" target="_top" xlink:title="Header file for class Cantera::Array2D. ">
<polygon fill="white" stroke="black" points="988.5,-204.5 988.5,-223.5 1093.5,-223.5 1093.5,-204.5 988.5,-204.5"/>
<text text-anchor="middle" x="1041" y="-211.5" font-family="FreeSans" font-size="10.00">cantera/base/Array.h</text>
</a>
</g>
</g>
<!-- Node24&#45;&gt;Node25 -->
<g id="edge40" class="edge"><title>Node24&#45;&gt;Node25</title>
<path fill="none" stroke="midnightblue" d="M1112.96,-266.403C1099.49,-256.78 1077.43,-241.024 1061.28,-229.489"/>
<polygon fill="midnightblue" stroke="midnightblue" points="1063.18,-226.545 1053.01,-223.581 1059.12,-232.241 1063.18,-226.545"/>
</g>
<!-- Node25&#45;&gt;Node15 -->
<g id="edge41" class="edge"><title>Node25&#45;&gt;Node15</title>
<path fill="none" stroke="midnightblue" d="M988.298,-207.295C922.462,-199.844 806.481,-185.645 708,-168 700.901,-166.728 693.416,-165.22 686.123,-163.658"/>
<polygon fill="midnightblue" stroke="midnightblue" points="686.87,-160.238 676.352,-161.511 685.368,-167.075 686.87,-160.238"/>
</g>
<!-- Node25&#45;&gt;Node20 -->
<g id="edge42" class="edge"><title>Node25&#45;&gt;Node20</title>
<path fill="none" stroke="midnightblue" d="M1039.76,-204.271C1038.01,-189.798 1035.67,-160.047 1042,-136 1045.16,-123.986 1051.75,-111.743 1057.74,-102.265"/>
<polygon fill="midnightblue" stroke="midnightblue" points="1060.74,-104.079 1063.39,-93.8193 1054.92,-100.19 1060.74,-104.079"/>
</g>
<!-- Node26 -->
<g id="node26" class="node"><title>Node26</title>
<polygon fill="white" stroke="#bfbfbf" points="1051.5,-142.5 1051.5,-161.5 1096.5,-161.5 1096.5,-142.5 1051.5,-142.5"/>
<text text-anchor="middle" x="1074" y="-149.5" font-family="FreeSans" font-size="10.00">cstring</text>
</g>
<!-- Node25&#45;&gt;Node26 -->
<g id="edge43" class="edge"><title>Node25&#45;&gt;Node26</title>
<path fill="none" stroke="midnightblue" d="M1045.73,-204.403C1050.58,-195.582 1058.27,-181.608 1064.4,-170.455"/>
<polygon fill="midnightblue" stroke="midnightblue" points="1067.53,-172.029 1069.28,-161.581 1061.39,-168.656 1067.53,-172.029"/>
</g>
<!-- Node27&#45;&gt;Node7 -->
<g id="edge46" class="edge"><title>Node27&#45;&gt;Node7</title>
<path fill="none" stroke="midnightblue" d="M1171.47,-74.3717C1139.85,-62.7779 1083.5,-42.1162 1047.75,-29.0087"/>
<polygon fill="midnightblue" stroke="midnightblue" points="1048.85,-25.6824 1038.25,-25.5259 1046.44,-32.2546 1048.85,-25.6824"/>
</g>
<!-- Node27&#45;&gt;Node9 -->
<g id="edge45" class="edge"><title>Node27&#45;&gt;Node9</title>
<path fill="none" stroke="midnightblue" d="M1165.19,-74.4567C1156.76,-72.1934 1147.56,-69.8639 1139,-68 1094.84,-58.379 976.148,-39.0452 901.391,-27.1416"/>
<polygon fill="midnightblue" stroke="midnightblue" points="901.571,-23.6265 891.146,-25.513 900.472,-30.5397 901.571,-23.6265"/>
</g>
</g>
</svg>
