<?xml version="1.0" encoding="UTF-8" standalone="no"?>
<!DOCTYPE svg PUBLIC "-//W3C//DTD SVG 1.1//EN"
 "http://www.w3.org/Graphics/SVG/1.1/DTD/svg11.dtd">
<!-- Generated by graphviz version 2.40.1 (20161225.0304)
 -->
<!-- Title: solveSP.h Pages: 1 -->
<svg width="360pt" height="140pt"
 viewBox="0.00 0.00 360.00 140.00" xmlns="http://www.w3.org/2000/svg" xmlns:xlink="http://www.w3.org/1999/xlink">
<g id="graph0" class="graph" transform="scale(1 1) rotate(0) translate(4 136)">
<title>solveSP.h</title>
<polygon fill="#ffffff" stroke="transparent" points="-4,4 -4,-136 356,-136 356,4 -4,4"/>
<!-- Node46 -->
<g id="node1" class="node">
<title>Node46</title>
<polygon fill="#bfbfbf" stroke="#000000" points="169,-112.5 169,-131.5 231,-131.5 231,-112.5 169,-112.5"/>
<text text-anchor="middle" x="200" y="-119.5" font-family="Helvetica,sans-Serif" font-size="10.00" fill="#000000">solveSP.h</text>
</g>
<!-- Node47 -->
<g id="node2" class="node">
<title>Node47</title>
<g id="a_node2"><a xlink:href="ImplicitSurfChem_8cpp.html" target="_top" xlink:title="Definitions for the implicit integration of surface site density equations (see Kinetics Managers and...">
<polygon fill="#ffffff" stroke="#000000" points="0,-.5 0,-19.5 122,-19.5 122,-.5 0,-.5"/>
<text text-anchor="middle" x="61" y="-7.5" font-family="Helvetica,sans-Serif" font-size="10.00" fill="#000000">ImplicitSurfChem.cpp</text>
</a>
</g>
</g>
<!-- Node46&#45;&gt;Node47 -->
<g id="edge1" class="edge">
<title>Node46&#45;&gt;Node47</title>
<path fill="none" stroke="#191970" d="M177.3051,-106.5039C164.8851,-97.8219 149.3516,-86.6307 136,-76 112.1187,-56.9854 85.625,-32.9206 71.3986,-19.7369"/>
<polygon fill="#191970" stroke="#191970" points="175.5102,-109.5183 185.7228,-112.3385 179.4979,-103.7652 175.5102,-109.5183"/>
</g>
<!-- Node48 -->
<g id="node3" class="node">
<title>Node48</title>
<g id="a_node3"><a xlink:href="solveSP_8cpp_source.html" target="_top" xlink:title="solveSP.cpp">
<polygon fill="#ffffff" stroke="#000000" points="278,-.5 278,-19.5 352,-19.5 352,-.5 278,-.5"/>
<text text-anchor="middle" x="315" y="-7.5" font-family="Helvetica,sans-Serif" font-size="10.00" fill="#000000">solveSP.cpp</text>
</a>
</g>
</g>
<!-- Node46&#45;&gt;Node48 -->
<g id="edge2" class="edge">
<title>Node46&#45;&gt;Node48</title>
<path fill="none" stroke="#191970" d="M224.5305,-106.8159C237.0166,-98.4998 252.0412,-87.5509 264,-76 282.5395,-58.0928 299.9539,-33.1795 308.8447,-19.6603"/>
<polygon fill="#191970" stroke="#191970" points="222.4479,-103.9951 215.9675,-112.377 226.2605,-109.8658 222.4479,-103.9951"/>
</g>
<!-- Node49 -->
<g id="node4" class="node">
<title>Node49</title>
<g id="a_node4"><a xlink:href="ImplicitSurfChem_8h.html" target="_top" xlink:title="Declarations for the implicit integration of surface site density equations (see Kinetics Managers an...">
<polygon fill="#ffffff" stroke="#000000" points="145,-56.5 145,-75.5 255,-75.5 255,-56.5 145,-56.5"/>
<text text-anchor="middle" x="200" y="-63.5" font-family="Helvetica,sans-Serif" font-size="10.00" fill="#000000">ImplicitSurfChem.h</text>
</a>
</g>
</g>
<!-- Node46&#45;&gt;Node49 -->
<g id="edge3" class="edge">
<title>Node46&#45;&gt;Node49</title>
<path fill="none" stroke="#191970" d="M200,-102.1575C200,-93.155 200,-82.9199 200,-75.6427"/>
<polygon fill="#191970" stroke="#191970" points="196.5001,-102.2455 200,-112.2455 203.5001,-102.2456 196.5001,-102.2455"/>
</g>
<!-- Node49&#45;&gt;Node47 -->
<g id="edge4" class="edge">
<title>Node49&#45;&gt;Node47</title>
<path fill="none" stroke="#191970" d="M166.5379,-52.5189C141.2231,-42.3201 107.0897,-28.5685 84.5831,-19.5011"/>
<polygon fill="#191970" stroke="#191970" points="165.5216,-55.8827 176.105,-56.3733 168.1374,-49.3899 165.5216,-55.8827"/>
</g>
<!-- Node49&#45;&gt;Node48 -->
<g id="edge6" class="edge">
<title>Node49&#45;&gt;Node48</title>
<path fill="none" stroke="#191970" d="M228.8033,-51.9741C249.625,-41.8348 277.1978,-28.408 295.4888,-19.5011"/>
<polygon fill="#191970" stroke="#191970" points="227.2276,-48.8484 219.7692,-56.3733 230.2922,-55.1419 227.2276,-48.8484"/>
</g>
<!-- Node50 -->
<g id="node5" class="node">
<title>Node50</title>
<g id="a_node5"><a xlink:href="InterfaceKinetics_8cpp.html" target="_top" xlink:title="InterfaceKinetics.cpp">
<polygon fill="#ffffff" stroke="#000000" points="140.5,-.5 140.5,-19.5 259.5,-19.5 259.5,-.5 140.5,-.5"/>
<text text-anchor="middle" x="200" y="-7.5" font-family="Helvetica,sans-Serif" font-size="10.00" fill="#000000">InterfaceKinetics.cpp</text>
</a>
</g>
</g>
<!-- Node49&#45;&gt;Node50 -->
<g id="edge5" class="edge">
<title>Node49&#45;&gt;Node50</title>
<path fill="none" stroke="#191970" d="M200,-46.1575C200,-37.155 200,-26.9199 200,-19.6427"/>
<polygon fill="#191970" stroke="#191970" points="196.5001,-46.2455 200,-56.2455 203.5001,-46.2456 196.5001,-46.2455"/>
</g>
</g>
</svg>
