<?xml version="1.0" encoding="UTF-8" standalone="no"?>
<!DOCTYPE svg PUBLIC "-//W3C//DTD SVG 1.1//EN"
 "http://www.w3.org/Graphics/SVG/1.1/DTD/svg11.dtd">
<!-- Generated by graphviz version 2.36.0 (20140111.2315)
 -->
<!-- Title: SpeciesThermoInterpType.cpp Pages: 1 -->
<svg width="588pt" height="264pt"
 viewBox="0.00 0.00 588.00 264.00" xmlns="http://www.w3.org/2000/svg" xmlns:xlink="http://www.w3.org/1999/xlink">
<g id="graph0" class="graph" transform="scale(1 1) rotate(0) translate(4 260)">
<title>SpeciesThermoInterpType.cpp</title>
<polygon fill="white" stroke="none" points="-4,4 -4,-260 584,-260 584,4 -4,4"/>
<!-- Node1 -->
<g id="node1" class="node"><title>Node1</title>
<polygon fill="#bfbfbf" stroke="black" points="228,-236.5 228,-255.5 376,-255.5 376,-236.5 228,-236.5"/>
<text text-anchor="middle" x="302" y="-243.5" font-family="FreeSans" font-size="10.00">SpeciesThermoInterpType.cpp</text>
</g>
<!-- Node2 -->
<g id="node2" class="node"><title>Node2</title>
<g id="a_node2"><a xlink:href="SpeciesThermoInterpType_8h.html" target="_top" xlink:title="Pure Virtual Base class for individual species reference state thermodynamic managers and text for th...">
<polygon fill="white" stroke="black" points="0,-169 0,-199 152,-199 152,-169 0,-169"/>
<text text-anchor="start" x="8" y="-187" font-family="FreeSans" font-size="10.00">cantera/thermo/SpeciesThermo</text>
<text text-anchor="middle" x="76" y="-176" font-family="FreeSans" font-size="10.00">InterpType.h</text>
</a>
</g>
</g>
<!-- Node1&#45;&gt;Node2 -->
<g id="edge1" class="edge"><title>Node1&#45;&gt;Node2</title>
<path fill="none" stroke="midnightblue" d="M269.62,-236.403C235.537,-227.355 181.036,-212.886 138.528,-201.6"/>
<polygon fill="midnightblue" stroke="midnightblue" points="139.392,-198.209 128.829,-199.025 137.596,-204.974 139.392,-198.209"/>
</g>
<!-- Node13 -->
<g id="node13" class="node"><title>Node13</title>
<g id="a_node13"><a xlink:href="VPSSMgr_8h.html" target="_top" xlink:title="Declaration file for a virtual base class that manages the calculation of standard state properties f...">
<polygon fill="white" stroke="black" points="307.5,-174.5 307.5,-193.5 442.5,-193.5 442.5,-174.5 307.5,-174.5"/>
<text text-anchor="middle" x="375" y="-181.5" font-family="FreeSans" font-size="10.00">cantera/thermo/VPSSMgr.h</text>
</a>
</g>
</g>
<!-- Node1&#45;&gt;Node13 -->
<g id="edge12" class="edge"><title>Node1&#45;&gt;Node13</title>
<path fill="none" stroke="midnightblue" d="M312.459,-236.403C323.951,-226.958 342.63,-211.606 356.587,-200.134"/>
<polygon fill="midnightblue" stroke="midnightblue" points="359.057,-202.634 364.56,-193.581 354.612,-197.226 359.057,-202.634"/>
</g>
<!-- Node17 -->
<g id="node17" class="node"><title>Node17</title>
<g id="a_node17"><a xlink:href="PDSS_8h.html" target="_top" xlink:title="Declarations for the virtual base class PDSS (pressure dependent standard state) which handles calcul...">
<polygon fill="white" stroke="black" points="170.5,-174.5 170.5,-193.5 289.5,-193.5 289.5,-174.5 170.5,-174.5"/>
<text text-anchor="middle" x="230" y="-181.5" font-family="FreeSans" font-size="10.00">cantera/thermo/PDSS.h</text>
</a>
</g>
</g>
<!-- Node1&#45;&gt;Node17 -->
<g id="edge17" class="edge"><title>Node1&#45;&gt;Node17</title>
<path fill="none" stroke="midnightblue" d="M291.684,-236.403C280.349,-226.958 261.927,-211.606 248.161,-200.134"/>
<polygon fill="midnightblue" stroke="midnightblue" points="250.22,-197.294 240.297,-193.581 245.738,-202.671 250.22,-197.294"/>
</g>
<!-- Node18 -->
<g id="node18" class="node"><title>Node18</title>
<g id="a_node18"><a xlink:href="ctexceptions_8h.html" target="_top" xlink:title="Definitions for the classes that are thrown when Cantera experiences an error condition (also contain...">
<polygon fill="white" stroke="black" points="443.5,-112.5 443.5,-131.5 580.5,-131.5 580.5,-112.5 443.5,-112.5"/>
<text text-anchor="middle" x="512" y="-119.5" font-family="FreeSans" font-size="10.00">cantera/base/ctexceptions.h</text>
</a>
</g>
</g>
<!-- Node1&#45;&gt;Node18 -->
<g id="edge20" class="edge"><title>Node1&#45;&gt;Node18</title>
<path fill="none" stroke="midnightblue" d="M357.889,-236.471C387.466,-229.985 423.29,-218.838 451,-200 473.637,-184.611 491.867,-158.252 502.317,-140.727"/>
<polygon fill="midnightblue" stroke="midnightblue" points="505.622,-141.998 507.546,-131.579 499.545,-138.524 505.622,-141.998"/>
</g>
<!-- Node3 -->
<g id="node3" class="node"><title>Node3</title>
<g id="a_node3"><a xlink:href="ct__defs_8h.html" target="_top" xlink:title="This file contains definitions of terms that are used in internal routines and are unlikely to need m...">
<polygon fill="white" stroke="black" points="152,-56.5 152,-75.5 266,-75.5 266,-56.5 152,-56.5"/>
<text text-anchor="middle" x="209" y="-63.5" font-family="FreeSans" font-size="10.00">cantera/base/ct_defs.h</text>
</a>
</g>
</g>
<!-- Node2&#45;&gt;Node3 -->
<g id="edge2" class="edge"><title>Node2&#45;&gt;Node3</title>
<path fill="none" stroke="midnightblue" d="M95.5152,-168.824C108.899,-158.885 126.899,-145.087 142,-132 160.428,-116.03 180.34,-96.3773 193.625,-82.8887"/>
<polygon fill="midnightblue" stroke="midnightblue" points="196.132,-85.3309 200.62,-75.7334 191.127,-80.4375 196.132,-85.3309"/>
</g>
<!-- Node12 -->
<g id="node12" class="node"><title>Node12</title>
<g id="a_node12"><a xlink:href="speciesThermoTypes_8h.html" target="_top" xlink:title="Contains const definitions for types of species reference&#45;state thermodynamics managers (see Species ...">
<polygon fill="white" stroke="black" points="18.5,-112.5 18.5,-131.5 133.5,-131.5 133.5,-112.5 18.5,-112.5"/>
<text text-anchor="middle" x="76" y="-119.5" font-family="FreeSans" font-size="10.00">speciesThermoTypes.h</text>
</a>
</g>
</g>
<!-- Node2&#45;&gt;Node12 -->
<g id="edge11" class="edge"><title>Node2&#45;&gt;Node12</title>
<path fill="none" stroke="midnightblue" d="M76,-168.781C76,-160.781 76,-150.689 76,-142.017"/>
<polygon fill="midnightblue" stroke="midnightblue" points="79.5001,-141.73 76,-131.731 72.5001,-141.731 79.5001,-141.73"/>
</g>
<!-- Node4 -->
<g id="node4" class="node"><title>Node4</title>
<g id="a_node4"><a xlink:href="config_8h_source.html" target="_top" xlink:title="config.h">
<polygon fill="white" stroke="black" points="383,-0.5 383,-19.5 433,-19.5 433,-0.5 383,-0.5"/>
<text text-anchor="middle" x="408" y="-7.5" font-family="FreeSans" font-size="10.00">config.h</text>
</a>
</g>
</g>
<!-- Node3&#45;&gt;Node4 -->
<g id="edge3" class="edge"><title>Node3&#45;&gt;Node4</title>
<path fill="none" stroke="midnightblue" d="M240.532,-56.4435C276.596,-46.6574 335.478,-30.6793 372.951,-20.5107"/>
<polygon fill="midnightblue" stroke="midnightblue" points="374.182,-23.8034 382.916,-17.8067 372.349,-17.0477 374.182,-23.8034"/>
</g>
<!-- Node5 -->
<g id="node5" class="node"><title>Node5</title>
<polygon fill="white" stroke="#bfbfbf" points="0,-0.5 0,-19.5 44,-19.5 44,-0.5 0,-0.5"/>
<text text-anchor="middle" x="22" y="-7.5" font-family="FreeSans" font-size="10.00">cmath</text>
</g>
<!-- Node3&#45;&gt;Node5 -->
<g id="edge4" class="edge"><title>Node3&#45;&gt;Node5</title>
<path fill="none" stroke="midnightblue" d="M179.38,-56.472C149.958,-47.9978 103.298,-34.5485 53.9213,-20.2632"/>
<polygon fill="midnightblue" stroke="midnightblue" points="54.5929,-16.814 44.0141,-17.3962 52.647,-23.5381 54.5929,-16.814"/>
</g>
<!-- Node6 -->
<g id="node6" class="node"><title>Node6</title>
<polygon fill="white" stroke="#bfbfbf" points="62,-0.5 62,-19.5 106,-19.5 106,-0.5 62,-0.5"/>
<text text-anchor="middle" x="84" y="-7.5" font-family="FreeSans" font-size="10.00">cstdlib</text>
</g>
<!-- Node3&#45;&gt;Node6 -->
<g id="edge5" class="edge"><title>Node3&#45;&gt;Node6</title>
<path fill="none" stroke="midnightblue" d="M189.193,-56.4435C168.713,-47.5961 136.517,-33.6875 113.135,-23.5865"/>
<polygon fill="midnightblue" stroke="midnightblue" points="114.282,-20.2692 103.714,-19.5164 111.506,-26.6953 114.282,-20.2692"/>
</g>
<!-- Node7 -->
<g id="node7" class="node"><title>Node7</title>
<polygon fill="white" stroke="#bfbfbf" points="124.5,-0.5 124.5,-19.5 167.5,-19.5 167.5,-0.5 124.5,-0.5"/>
<text text-anchor="middle" x="146" y="-7.5" font-family="FreeSans" font-size="10.00">vector</text>
</g>
<!-- Node3&#45;&gt;Node7 -->
<g id="edge6" class="edge"><title>Node3&#45;&gt;Node7</title>
<path fill="none" stroke="midnightblue" d="M198.878,-56.324C189.474,-48.2631 175.256,-36.0765 163.931,-26.3695"/>
<polygon fill="midnightblue" stroke="midnightblue" points="166.177,-23.6844 156.306,-19.8339 161.621,-28.9993 166.177,-23.6844"/>
</g>
<!-- Node8 -->
<g id="node8" class="node"><title>Node8</title>
<polygon fill="white" stroke="#bfbfbf" points="185.5,-0.5 185.5,-19.5 220.5,-19.5 220.5,-0.5 185.5,-0.5"/>
<text text-anchor="middle" x="203" y="-7.5" font-family="FreeSans" font-size="10.00">map</text>
</g>
<!-- Node3&#45;&gt;Node8 -->
<g id="edge7" class="edge"><title>Node3&#45;&gt;Node8</title>
<path fill="none" stroke="midnightblue" d="M208.009,-56.083C207.214,-48.9272 206.071,-38.6353 205.077,-29.6911"/>
<polygon fill="midnightblue" stroke="midnightblue" points="208.555,-29.3034 203.972,-19.7511 201.598,-30.0765 208.555,-29.3034"/>
</g>
<!-- Node9 -->
<g id="node9" class="node"><title>Node9</title>
<polygon fill="white" stroke="#bfbfbf" points="451,-0.5 451,-19.5 491,-19.5 491,-0.5 451,-0.5"/>
<text text-anchor="middle" x="471" y="-7.5" font-family="FreeSans" font-size="10.00">string</text>
</g>
<!-- Node3&#45;&gt;Node9 -->
<g id="edge8" class="edge"><title>Node3&#45;&gt;Node9</title>
<path fill="none" stroke="midnightblue" d="M262.112,-56.4584C307.351,-48.7956 374.23,-36.5564 440.958,-20.0475"/>
<polygon fill="midnightblue" stroke="midnightblue" points="441.95,-23.4071 450.799,-17.5808 440.248,-16.6172 441.95,-23.4071"/>
</g>
<!-- Node10 -->
<g id="node10" class="node"><title>Node10</title>
<polygon fill="white" stroke="#bfbfbf" points="239,-0.5 239,-19.5 295,-19.5 295,-0.5 239,-0.5"/>
<text text-anchor="middle" x="267" y="-7.5" font-family="FreeSans" font-size="10.00">algorithm</text>
</g>
<!-- Node3&#45;&gt;Node10 -->
<g id="edge9" class="edge"><title>Node3&#45;&gt;Node10</title>
<path fill="none" stroke="midnightblue" d="M218.319,-56.324C226.893,-48.3414 239.812,-36.3128 250.188,-26.6529"/>
<polygon fill="midnightblue" stroke="midnightblue" points="252.578,-29.2098 257.512,-19.8339 247.808,-24.0865 252.578,-29.2098"/>
</g>
<!-- Node11 -->
<g id="node11" class="node"><title>Node11</title>
<polygon fill="white" stroke="#bfbfbf" points="313.5,-0.5 313.5,-19.5 364.5,-19.5 364.5,-0.5 313.5,-0.5"/>
<text text-anchor="middle" x="339" y="-7.5" font-family="FreeSans" font-size="10.00">memory</text>
</g>
<!-- Node3&#45;&gt;Node11 -->
<g id="edge10" class="edge"><title>Node3&#45;&gt;Node11</title>
<path fill="none" stroke="midnightblue" d="M229.599,-56.4435C250.993,-47.5566 284.681,-33.5632 309.024,-23.4514"/>
<polygon fill="midnightblue" stroke="midnightblue" points="310.605,-26.5848 318.497,-19.5164 307.92,-20.1203 310.605,-26.5848"/>
</g>
<!-- Node14 -->
<g id="node14" class="node"><title>Node14</title>
<g id="a_node14"><a xlink:href="mix__defs_8h.html" target="_top" xlink:title="mix_defs.h">
<polygon fill="white" stroke="black" points="237,-112.5 237,-131.5 299,-131.5 299,-112.5 237,-112.5"/>
<text text-anchor="middle" x="268" y="-119.5" font-family="FreeSans" font-size="10.00">mix_defs.h</text>
</a>
</g>
</g>
<!-- Node13&#45;&gt;Node14 -->
<g id="edge13" class="edge"><title>Node13&#45;&gt;Node14</title>
<path fill="none" stroke="midnightblue" d="M359.67,-174.403C342.03,-164.512 312.84,-148.144 292.142,-136.538"/>
<polygon fill="midnightblue" stroke="midnightblue" points="293.736,-133.419 283.302,-131.581 290.312,-139.524 293.736,-133.419"/>
</g>
<!-- Node15 -->
<g id="node15" class="node"><title>Node15</title>
<g id="a_node15"><a xlink:href="global_8h.html" target="_top" xlink:title="This file contains definitions for utility functions and text for modules, inputfiles, logs, textlogs, (see Input File Handling, Diagnostic Output, and Writing messages to the screen). ">
<polygon fill="white" stroke="black" points="317,-112.5 317,-131.5 425,-131.5 425,-112.5 317,-112.5"/>
<text text-anchor="middle" x="371" y="-119.5" font-family="FreeSans" font-size="10.00">cantera/base/global.h</text>
</a>
</g>
</g>
<!-- Node13&#45;&gt;Node15 -->
<g id="edge14" class="edge"><title>Node13&#45;&gt;Node15</title>
<path fill="none" stroke="midnightblue" d="M374.427,-174.403C373.863,-165.938 372.982,-152.728 372.255,-141.82"/>
<polygon fill="midnightblue" stroke="midnightblue" points="375.73,-141.326 371.572,-131.581 368.745,-141.791 375.73,-141.326"/>
</g>
<!-- Node15&#45;&gt;Node3 -->
<g id="edge15" class="edge"><title>Node15&#45;&gt;Node3</title>
<path fill="none" stroke="midnightblue" d="M345.331,-112.444C318.077,-103.359 274.816,-88.9388 244.349,-78.7831"/>
<polygon fill="midnightblue" stroke="midnightblue" points="245.143,-75.3584 234.549,-75.5164 242.929,-81.9992 245.143,-75.3584"/>
</g>
<!-- Node16 -->
<g id="node16" class="node"><title>Node16</title>
<polygon fill="white" stroke="#bfbfbf" points="332.5,-56.5 332.5,-75.5 435.5,-75.5 435.5,-56.5 332.5,-56.5"/>
<text text-anchor="middle" x="384" y="-63.5" font-family="FreeSans" font-size="10.00">cantera/ext/format.h</text>
</g>
<!-- Node15&#45;&gt;Node16 -->
<g id="edge16" class="edge"><title>Node15&#45;&gt;Node16</title>
<path fill="none" stroke="midnightblue" d="M373.147,-112.083C374.869,-104.927 377.347,-94.6353 379.5,-85.6911"/>
<polygon fill="midnightblue" stroke="midnightblue" points="382.955,-86.2925 381.893,-75.7511 376.15,-84.6541 382.955,-86.2925"/>
</g>
<!-- Node17&#45;&gt;Node3 -->
<g id="edge18" class="edge"><title>Node17&#45;&gt;Node3</title>
<path fill="none" stroke="midnightblue" d="M228.422,-174.281C225.03,-155.547 216.983,-111.098 212.382,-85.6822"/>
<polygon fill="midnightblue" stroke="midnightblue" points="215.765,-84.7213 210.54,-75.5048 208.877,-85.9683 215.765,-84.7213"/>
</g>
<!-- Node17&#45;&gt;Node14 -->
<g id="edge19" class="edge"><title>Node17&#45;&gt;Node14</title>
<path fill="none" stroke="midnightblue" d="M235.444,-174.403C241.088,-165.493 250.061,-151.325 257.159,-140.118"/>
<polygon fill="midnightblue" stroke="midnightblue" points="260.172,-141.901 262.566,-131.581 254.258,-138.156 260.172,-141.901"/>
</g>
<!-- Node18&#45;&gt;Node9 -->
<g id="edge22" class="edge"><title>Node18&#45;&gt;Node9</title>
<path fill="none" stroke="midnightblue" d="M507.159,-112.235C502.363,-103.309 495.026,-88.9745 490,-76 484.028,-60.583 478.884,-42.4899 475.46,-29.3129"/>
<polygon fill="midnightblue" stroke="midnightblue" points="478.842,-28.411 473.008,-19.5671 472.054,-30.1189 478.842,-28.411"/>
</g>
<!-- Node18&#45;&gt;Node16 -->
<g id="edge23" class="edge"><title>Node18&#45;&gt;Node16</title>
<path fill="none" stroke="midnightblue" d="M491.718,-112.444C470.653,-103.557 437.483,-89.5632 413.514,-79.4514"/>
<polygon fill="midnightblue" stroke="midnightblue" points="414.761,-76.1787 404.187,-75.5164 412.04,-82.6283 414.761,-76.1787"/>
</g>
<!-- Node19 -->
<g id="node19" class="node"><title>Node19</title>
<polygon fill="white" stroke="#bfbfbf" points="499,-56.5 499,-75.5 557,-75.5 557,-56.5 499,-56.5"/>
<text text-anchor="middle" x="528" y="-63.5" font-family="FreeSans" font-size="10.00">exception</text>
</g>
<!-- Node18&#45;&gt;Node19 -->
<g id="edge21" class="edge"><title>Node18&#45;&gt;Node19</title>
<path fill="none" stroke="midnightblue" d="M514.642,-112.083C516.786,-104.849 519.879,-94.4087 522.549,-85.3968"/>
<polygon fill="midnightblue" stroke="midnightblue" points="525.922,-86.3334 525.407,-75.7511 519.21,-84.3447 525.922,-86.3334"/>
</g>
</g>
</svg>
