<?xml version="1.0" encoding="UTF-8" standalone="no"?>
<!DOCTYPE svg PUBLIC "-//W3C//DTD SVG 1.1//EN"
 "http://www.w3.org/Graphics/SVG/1.1/DTD/svg11.dtd">
<!-- Generated by graphviz version 2.36.0 (20140111.2315)
 -->
<!-- Title: SpeciesThermoFactory.h Pages: 1 -->
<svg width="1201pt" height="140pt"
 viewBox="0.00 0.00 1201.00 140.00" xmlns="http://www.w3.org/2000/svg" xmlns:xlink="http://www.w3.org/1999/xlink">
<g id="graph0" class="graph" transform="scale(1 1) rotate(0) translate(4 136)">
<title>SpeciesThermoFactory.h</title>
<polygon fill="white" stroke="none" points="-4,4 -4,-136 1197,-136 1197,4 -4,4"/>
<!-- Node1 -->
<g id="node1" class="node"><title>Node1</title>
<polygon fill="#bfbfbf" stroke="black" points="574,-112.5 574,-131.5 698,-131.5 698,-112.5 574,-112.5"/>
<text text-anchor="middle" x="636" y="-119.5" font-family="FreeSans" font-size="10.00">SpeciesThermoFactory.h</text>
</g>
<!-- Node2 -->
<g id="node2" class="node"><title>Node2</title>
<g id="a_node2"><a xlink:href="FixedChemPotSSTP_8cpp.html" target="_top" xlink:title="Definition file for the FixedChemPotSSTP class, which represents a fixed&#45;composition incompressible s...">
<polygon fill="white" stroke="black" points="-0.5,-56.5 -0.5,-75.5 124.5,-75.5 124.5,-56.5 -0.5,-56.5"/>
<text text-anchor="middle" x="62" y="-63.5" font-family="FreeSans" font-size="10.00">FixedChemPotSSTP.cpp</text>
</a>
</g>
</g>
<!-- Node1&#45;&gt;Node2 -->
<g id="edge1" class="edge"><title>Node1&#45;&gt;Node2</title>
<path fill="none" stroke="midnightblue" d="M563.661,-115.314C466.032,-107.458 286.723,-92.3853 134,-76 130.994,-75.6775 127.919,-75.3363 124.814,-74.9829"/>
<polygon fill="midnightblue" stroke="midnightblue" points="563.466,-118.81 573.714,-116.121 564.026,-111.832 563.466,-118.81"/>
</g>
<!-- Node3 -->
<g id="node3" class="node"><title>Node3</title>
<g id="a_node3"><a xlink:href="LatticeSolidPhase_8cpp.html" target="_top" xlink:title="Definitions for a simple thermodynamics model of a bulk solid phase derived from ThermoPhase, assuming an ideal solution model based on a lattice of solid atoms (see Thermodynamic Properties and class LatticeSolidPhase). ">
<polygon fill="white" stroke="black" points="142.5,-56.5 142.5,-75.5 255.5,-75.5 255.5,-56.5 142.5,-56.5"/>
<text text-anchor="middle" x="199" y="-63.5" font-family="FreeSans" font-size="10.00">LatticeSolidPhase.cpp</text>
</a>
</g>
</g>
<!-- Node1&#45;&gt;Node3 -->
<g id="edge2" class="edge"><title>Node1&#45;&gt;Node3</title>
<path fill="none" stroke="midnightblue" d="M563.685,-112.55C488.885,-103.734 368.713,-89.3604 265,-76 261.903,-75.6011 258.725,-75.1862 255.518,-74.7631"/>
<polygon fill="midnightblue" stroke="midnightblue" points="563.591,-116.063 573.932,-113.756 564.41,-109.111 563.591,-116.063"/>
</g>
<!-- Node4 -->
<g id="node4" class="node"><title>Node4</title>
<g id="a_node4"><a xlink:href="MultiSpeciesThermo_8cpp.html" target="_top" xlink:title="Declarations for a thermodynamic property manager for multiple species in a phase (see Species Refere...">
<polygon fill="white" stroke="black" points="273.5,-56.5 273.5,-75.5 396.5,-75.5 396.5,-56.5 273.5,-56.5"/>
<text text-anchor="middle" x="335" y="-63.5" font-family="FreeSans" font-size="10.00">MultiSpeciesThermo.cpp</text>
</a>
</g>
</g>
<!-- Node1&#45;&gt;Node4 -->
<g id="edge3" class="edge"><title>Node1&#45;&gt;Node4</title>
<path fill="none" stroke="midnightblue" d="M578.387,-110.664C521.504,-100.459 435.548,-85.0386 382.471,-75.5164"/>
<polygon fill="midnightblue" stroke="midnightblue" points="577.845,-114.123 588.306,-112.444 579.081,-107.233 577.845,-114.123"/>
</g>
<!-- Node5 -->
<g id="node5" class="node"><title>Node5</title>
<g id="a_node5"><a xlink:href="Species_8cpp_source.html" target="_top" xlink:title="Species.cpp">
<polygon fill="white" stroke="black" points="414.5,-56.5 414.5,-75.5 483.5,-75.5 483.5,-56.5 414.5,-56.5"/>
<text text-anchor="middle" x="449" y="-63.5" font-family="FreeSans" font-size="10.00">Species.cpp</text>
</a>
</g>
</g>
<!-- Node1&#45;&gt;Node5 -->
<g id="edge4" class="edge"><title>Node1&#45;&gt;Node5</title>
<path fill="none" stroke="midnightblue" d="M596.41,-109.568C561.134,-99.381 510.306,-84.7034 478.492,-75.5164"/>
<polygon fill="midnightblue" stroke="midnightblue" points="595.791,-113.032 606.369,-112.444 597.733,-106.307 595.791,-113.032"/>
</g>
<!-- Node6 -->
<g id="node6" class="node"><title>Node6</title>
<g id="a_node6"><a xlink:href="SpeciesThermoFactory_8cpp.html" target="_top" xlink:title="Definitions for factory functions to build instances of classes that manage the standard&#45;state thermo...">
<polygon fill="white" stroke="black" points="502,-56.5 502,-75.5 636,-75.5 636,-56.5 502,-56.5"/>
<text text-anchor="middle" x="569" y="-63.5" font-family="FreeSans" font-size="10.00">SpeciesThermoFactory.cpp</text>
</a>
</g>
</g>
<!-- Node1&#45;&gt;Node6 -->
<g id="edge5" class="edge"><title>Node1&#45;&gt;Node6</title>
<path fill="none" stroke="midnightblue" d="M617.165,-105.82C605.162,-96.1452 590.028,-83.9481 579.961,-75.8339"/>
<polygon fill="midnightblue" stroke="midnightblue" points="615.253,-108.774 625.235,-112.324 619.646,-103.324 615.253,-108.774"/>
</g>
<!-- Node7 -->
<g id="node7" class="node"><title>Node7</title>
<g id="a_node7"><a xlink:href="ThermoFactory_8cpp.html" target="_top" xlink:title="Definitions for the factory class that can create known ThermoPhase objects (see Thermodynamic Proper...">
<polygon fill="white" stroke="black" points="654,-56.5 654,-75.5 754,-75.5 754,-56.5 654,-56.5"/>
<text text-anchor="middle" x="704" y="-63.5" font-family="FreeSans" font-size="10.00">ThermoFactory.cpp</text>
</a>
</g>
</g>
<!-- Node1&#45;&gt;Node7 -->
<g id="edge6" class="edge"><title>Node1&#45;&gt;Node7</title>
<path fill="none" stroke="midnightblue" d="M654.762,-106.101C667,-96.3824 682.559,-84.0269 692.876,-75.8339"/>
<polygon fill="midnightblue" stroke="midnightblue" points="652.58,-103.364 646.925,-112.324 656.933,-108.846 652.58,-103.364"/>
</g>
<!-- Node8 -->
<g id="node8" class="node"><title>Node8</title>
<g id="a_node8"><a xlink:href="VPSSMgr_8cpp.html" target="_top" xlink:title="Definition file for a virtual base class that manages the calculation of standard state properties fo...">
<polygon fill="white" stroke="black" points="772.5,-56.5 772.5,-75.5 849.5,-75.5 849.5,-56.5 772.5,-56.5"/>
<text text-anchor="middle" x="811" y="-63.5" font-family="FreeSans" font-size="10.00">VPSSMgr.cpp</text>
</a>
</g>
</g>
<!-- Node1&#45;&gt;Node8 -->
<g id="edge7" class="edge"><title>Node1&#45;&gt;Node8</title>
<path fill="none" stroke="midnightblue" d="M673.475,-109.436C706.47,-99.2551 753.756,-84.664 783.4,-75.5164"/>
<polygon fill="midnightblue" stroke="midnightblue" points="672.253,-106.151 663.729,-112.444 674.317,-112.839 672.253,-106.151"/>
</g>
<!-- Node9 -->
<g id="node9" class="node"><title>Node9</title>
<g id="a_node9"><a xlink:href="VPSSMgr__IdealGas_8cpp.html" target="_top" xlink:title="Definition file for a derived class that handles the calculation of standard state thermo properties ...">
<polygon fill="white" stroke="black" points="867.5,-56.5 867.5,-75.5 988.5,-75.5 988.5,-56.5 867.5,-56.5"/>
<text text-anchor="middle" x="928" y="-63.5" font-family="FreeSans" font-size="10.00">VPSSMgr_IdealGas.cpp</text>
</a>
</g>
</g>
<!-- Node1&#45;&gt;Node9 -->
<g id="edge8" class="edge"><title>Node1&#45;&gt;Node9</title>
<path fill="none" stroke="midnightblue" d="M692.233,-110.601C747.418,-100.395 830.565,-85.0189 881.948,-75.5164"/>
<polygon fill="midnightblue" stroke="midnightblue" points="691.465,-107.183 682.268,-112.444 692.738,-114.067 691.465,-107.183"/>
</g>
<!-- Node10 -->
<g id="node10" class="node"><title>Node10</title>
<g id="a_node10"><a xlink:href="VPSSMgrFactory_8cpp.html" target="_top" xlink:title="Definitions for factory to build instances of classes that manage the calculation of standard state p...">
<polygon fill="white" stroke="black" points="1007,-56.5 1007,-75.5 1117,-75.5 1117,-56.5 1007,-56.5"/>
<text text-anchor="middle" x="1062" y="-63.5" font-family="FreeSans" font-size="10.00">VPSSMgrFactory.cpp</text>
</a>
</g>
</g>
<!-- Node1&#45;&gt;Node10 -->
<g id="edge9" class="edge"><title>Node1&#45;&gt;Node10</title>
<path fill="none" stroke="midnightblue" d="M708.315,-112.278C781.223,-103.416 896.974,-89.1585 997,-76 1000.16,-75.584 1003.41,-75.1513 1006.69,-74.7105"/>
<polygon fill="midnightblue" stroke="midnightblue" points="707.823,-108.812 698.318,-113.492 708.667,-115.761 707.823,-108.812"/>
</g>
<!-- Node11 -->
<g id="node11" class="node"><title>Node11</title>
<g id="a_node11"><a xlink:href="thermo_8h.html" target="_top" xlink:title="Support for thermo property calculation from C++ application programs. ">
<polygon fill="white" stroke="black" points="1135,-56.5 1135,-75.5 1189,-75.5 1189,-56.5 1135,-56.5"/>
<text text-anchor="middle" x="1162" y="-63.5" font-family="FreeSans" font-size="10.00">thermo.h</text>
</a>
</g>
</g>
<!-- Node1&#45;&gt;Node11 -->
<g id="edge10" class="edge"><title>Node1&#45;&gt;Node11</title>
<path fill="none" stroke="midnightblue" d="M708.456,-117.825C804.481,-112.824 978.92,-100.987 1126,-76 1128.92,-75.5037 1131.96,-74.8951 1134.97,-74.2307"/>
<polygon fill="midnightblue" stroke="midnightblue" points="708.085,-114.339 698.276,-118.344 708.442,-121.33 708.085,-114.339"/>
</g>
<!-- Node12 -->
<g id="node12" class="node"><title>Node12</title>
<g id="a_node12"><a xlink:href="Interface_8h.html" target="_top" xlink:title="Declaration and Definition for the class Interface. ">
<polygon fill="white" stroke="black" points="1131,-0.5 1131,-19.5 1193,-19.5 1193,-0.5 1131,-0.5"/>
<text text-anchor="middle" x="1162" y="-7.5" font-family="FreeSans" font-size="10.00">Interface.h</text>
</a>
</g>
</g>
<!-- Node11&#45;&gt;Node12 -->
<g id="edge11" class="edge"><title>Node11&#45;&gt;Node12</title>
<path fill="none" stroke="midnightblue" d="M1162,-45.8045C1162,-36.9102 1162,-26.7798 1162,-19.7511"/>
<polygon fill="midnightblue" stroke="midnightblue" points="1158.5,-46.083 1162,-56.083 1165.5,-46.083 1158.5,-46.083"/>
</g>
</g>
</svg>
