<?xml version="1.0" encoding="UTF-8" standalone="no"?>
<!DOCTYPE svg PUBLIC "-//W3C//DTD SVG 1.1//EN"
 "http://www.w3.org/Graphics/SVG/1.1/DTD/svg11.dtd">
<!-- Generated by graphviz version 2.38.0 (20151222.1943)
 -->
<!-- Title: speciesThermoTypes.h Pages: 1 -->
<svg width="2401pt" height="252pt"
 viewBox="0.00 0.00 2401.25 252.00" xmlns="http://www.w3.org/2000/svg" xmlns:xlink="http://www.w3.org/1999/xlink">
<g id="graph0" class="graph" transform="scale(1 1) rotate(0) translate(4 248)">
<title>speciesThermoTypes.h</title>
<polygon fill="white" stroke="none" points="-4,4 -4,-248 2397.25,-248 2397.25,4 -4,4"/>
<!-- Node1 -->
<g id="node1" class="node"><title>Node1</title>
<polygon fill="#bfbfbf" stroke="black" points="1104,-224.5 1104,-243.5 1219,-243.5 1219,-224.5 1104,-224.5"/>
<text text-anchor="middle" x="1161.5" y="-231.5" font-family="FreeSans" font-size="10.00">speciesThermoTypes.h</text>
</g>
<!-- Node2 -->
<g id="node2" class="node"><title>Node2</title>
<g id="a_node2"><a xlink:href="vcs__MultiPhaseEquil_8cpp.html" target="_top" xlink:title="Driver routine for the VCSnonideal equilibrium solver package. ">
<polygon fill="white" stroke="black" points="465,-168.5 465,-187.5 588,-187.5 588,-168.5 465,-168.5"/>
<text text-anchor="middle" x="526.5" y="-175.5" font-family="FreeSans" font-size="10.00">vcs_MultiPhaseEquil.cpp</text>
</a>
</g>
</g>
<!-- Node1&#45;&gt;Node2 -->
<g id="edge1" class="edge"><title>Node1&#45;&gt;Node2</title>
<path fill="none" stroke="midnightblue" d="M1093.74,-228.369C988.504,-220.993 779.477,-205.596 602.5,-188 597.872,-187.54 593.09,-187.037 588.281,-186.513"/>
<polygon fill="midnightblue" stroke="midnightblue" points="1093.68,-231.874 1103.9,-229.08 1094.17,-224.891 1093.68,-231.874"/>
</g>
<!-- Node3 -->
<g id="node3" class="node"><title>Node3</title>
<g id="a_node3"><a xlink:href="SpeciesThermoFactory_8cpp.html" target="_top" xlink:title="Definitions for factory functions to build instances of classes that manage the standard&#45;state thermo...">
<polygon fill="white" stroke="black" points="2029.5,-0.5 2029.5,-19.5 2163.5,-19.5 2163.5,-0.5 2029.5,-0.5"/>
<text text-anchor="middle" x="2096.5" y="-7.5" font-family="FreeSans" font-size="10.00">SpeciesThermoFactory.cpp</text>
</a>
</g>
</g>
<!-- Node1&#45;&gt;Node3 -->
<g id="edge2" class="edge"><title>Node1&#45;&gt;Node3</title>
<path fill="none" stroke="midnightblue" d="M1229.37,-230.981C1467.88,-223.377 2258.33,-193.709 2352.5,-132 2383.01,-112.006 2407.21,-83.721 2383.5,-56 2355.8,-23.6147 2239.59,-14.3769 2163.81,-11.8383"/>
<polygon fill="midnightblue" stroke="midnightblue" points="1228.99,-227.491 1219.1,-231.305 1229.21,-234.487 1228.99,-227.491"/>
</g>
<!-- Node4 -->
<g id="node4" class="node"><title>Node4</title>
<g id="a_node4"><a xlink:href="ThermoFactory_8cpp.html" target="_top" xlink:title="Definitions for the factory class that can create known ThermoPhase objects (see Thermodynamic Proper...">
<polygon fill="white" stroke="black" points="417.5,-56.5 417.5,-75.5 517.5,-75.5 517.5,-56.5 417.5,-56.5"/>
<text text-anchor="middle" x="467.5" y="-63.5" font-family="FreeSans" font-size="10.00">ThermoFactory.cpp</text>
</a>
</g>
</g>
<!-- Node1&#45;&gt;Node4 -->
<g id="edge3" class="edge"><title>Node1&#45;&gt;Node4</title>
<path fill="none" stroke="midnightblue" d="M1101.94,-222.689C1009.55,-206.245 826.422,-171.841 673.5,-132 606.907,-114.65 529.939,-88.7762 491.685,-75.5124"/>
<polygon fill="midnightblue" stroke="midnightblue" points="1101.48,-226.163 1111.94,-224.462 1102.7,-219.271 1101.48,-226.163"/>
</g>
<!-- Node5 -->
<g id="node5" class="node"><title>Node5</title>
<g id="a_node5"><a xlink:href="SpeciesThermoInterpType_8h.html" target="_top" xlink:title="Pure Virtual Base class for individual species reference state thermodynamic managers and text for th...">
<polygon fill="white" stroke="black" points="1619,-168.5 1619,-187.5 1756,-187.5 1756,-168.5 1619,-168.5"/>
<text text-anchor="middle" x="1687.5" y="-175.5" font-family="FreeSans" font-size="10.00">SpeciesThermoInterpType.h</text>
</a>
</g>
</g>
<!-- Node1&#45;&gt;Node5 -->
<g id="edge4" class="edge"><title>Node1&#45;&gt;Node5</title>
<path fill="none" stroke="midnightblue" d="M1229.09,-226.062C1329.62,-215.741 1517.54,-196.448 1618.75,-186.058"/>
<polygon fill="midnightblue" stroke="midnightblue" points="1228.63,-222.589 1219.04,-227.092 1229.35,-229.553 1228.63,-222.589"/>
</g>
<!-- Node6 -->
<g id="node6" class="node"><title>Node6</title>
<g id="a_node6"><a xlink:href="FixedChemPotSSTP_8cpp.html" target="_top" xlink:title="Definition file for the FixedChemPotSSTP class, which represents a fixed&#45;composition incompressible s...">
<polygon fill="white" stroke="black" points="1418,-56.5 1418,-75.5 1543,-75.5 1543,-56.5 1418,-56.5"/>
<text text-anchor="middle" x="1480.5" y="-63.5" font-family="FreeSans" font-size="10.00">FixedChemPotSSTP.cpp</text>
</a>
</g>
</g>
<!-- Node5&#45;&gt;Node6 -->
<g id="edge5" class="edge"><title>Node5&#45;&gt;Node6</title>
<path fill="none" stroke="midnightblue" d="M1620.5,-166.285C1592.31,-159.577 1560.16,-148.877 1534.5,-132 1511.7,-117.004 1493.53,-89.4861 1485.29,-75.5584"/>
<polygon fill="midnightblue" stroke="midnightblue" points="1619.77,-169.707 1630.29,-168.494 1621.31,-162.879 1619.77,-169.707"/>
</g>
<!-- Node7 -->
<g id="node7" class="node"><title>Node7</title>
<g id="a_node7"><a xlink:href="Species_8cpp_source.html" target="_top" xlink:title="Species.cpp">
<polygon fill="white" stroke="black" points="1561,-56.5 1561,-75.5 1630,-75.5 1630,-56.5 1561,-56.5"/>
<text text-anchor="middle" x="1595.5" y="-63.5" font-family="FreeSans" font-size="10.00">Species.cpp</text>
</a>
</g>
</g>
<!-- Node5&#45;&gt;Node7 -->
<g id="edge6" class="edge"><title>Node5&#45;&gt;Node7</title>
<path fill="none" stroke="midnightblue" d="M1608.82,-170.831C1583.56,-164.674 1558.1,-153.17 1542.5,-132 1527.13,-111.133 1558.76,-87.8595 1579.46,-75.6142"/>
<polygon fill="midnightblue" stroke="midnightblue" points="1608.34,-174.307 1618.85,-173.01 1609.82,-167.466 1608.34,-174.307"/>
</g>
<!-- Node8 -->
<g id="node8" class="node"><title>Node8</title>
<g id="a_node8"><a xlink:href="SpeciesThermoInterpType_8cpp.html" target="_top" xlink:title="SpeciesThermoInterpType.cpp">
<polygon fill="white" stroke="black" points="1551.5,-112.5 1551.5,-131.5 1699.5,-131.5 1699.5,-112.5 1551.5,-112.5"/>
<text text-anchor="middle" x="1625.5" y="-119.5" font-family="FreeSans" font-size="10.00">SpeciesThermoInterpType.cpp</text>
</a>
</g>
</g>
<!-- Node5&#45;&gt;Node8 -->
<g id="edge7" class="edge"><title>Node5&#45;&gt;Node8</title>
<path fill="none" stroke="midnightblue" d="M1669.75,-161.537C1658.69,-151.909 1644.87,-139.869 1635.64,-131.834"/>
<polygon fill="midnightblue" stroke="midnightblue" points="1667.7,-164.395 1677.54,-168.324 1672.3,-159.117 1667.7,-164.395"/>
</g>
<!-- Node9 -->
<g id="node9" class="node"><title>Node9</title>
<g id="a_node9"><a xlink:href="ThermoPhase_8cpp.html" target="_top" xlink:title="Definition file for class ThermoPhase, the base class for phases with thermodynamic properties (see c...">
<polygon fill="white" stroke="black" points="0,-56.5 0,-75.5 95,-75.5 95,-56.5 0,-56.5"/>
<text text-anchor="middle" x="47.5" y="-63.5" font-family="FreeSans" font-size="10.00">ThermoPhase.cpp</text>
</a>
</g>
</g>
<!-- Node5&#45;&gt;Node9 -->
<g id="edge8" class="edge"><title>Node5&#45;&gt;Node9</title>
<path fill="none" stroke="midnightblue" d="M1608.73,-174.946C1438.11,-170.181 1021.66,-156.84 673.5,-132 420.034,-113.916 356.553,-108.274 104.5,-76 101.419,-75.6055 98.2491,-75.1747 95.056,-74.7219"/>
<polygon fill="midnightblue" stroke="midnightblue" points="1608.79,-178.449 1618.88,-175.228 1608.98,-171.452 1608.79,-178.449"/>
</g>
<!-- Node10 -->
<g id="node10" class="node"><title>Node10</title>
<g id="a_node10"><a xlink:href="AdsorbateThermo_8h.html" target="_top" xlink:title="Header for a single&#45;species standard state object derived from SpeciesThermoInterpType based on the e...">
<polygon fill="white" stroke="black" points="2134,-112.5 2134,-131.5 2235,-131.5 2235,-112.5 2134,-112.5"/>
<text text-anchor="middle" x="2184.5" y="-119.5" font-family="FreeSans" font-size="10.00">AdsorbateThermo.h</text>
</a>
</g>
</g>
<!-- Node5&#45;&gt;Node10 -->
<g id="edge9" class="edge"><title>Node5&#45;&gt;Node10</title>
<path fill="none" stroke="midnightblue" d="M1766.24,-169.998C1853.83,-161.951 1999.49,-147.803 2124.5,-132 2127.53,-131.617 2130.64,-131.205 2133.78,-130.776"/>
<polygon fill="midnightblue" stroke="midnightblue" points="1765.75,-166.528 1756.11,-170.925 1766.39,-173.498 1765.75,-166.528"/>
</g>
<!-- Node11 -->
<g id="node11" class="node"><title>Node11</title>
<g id="a_node11"><a xlink:href="ConstCpPoly_8h.html" target="_top" xlink:title="Headers for the SpeciesThermoInterpType object that employs a constant heat capacity assumption (see ...">
<polygon fill="white" stroke="black" points="1797.5,-112.5 1797.5,-131.5 1877.5,-131.5 1877.5,-112.5 1797.5,-112.5"/>
<text text-anchor="middle" x="1837.5" y="-119.5" font-family="FreeSans" font-size="10.00">ConstCpPoly.h</text>
</a>
</g>
</g>
<!-- Node5&#45;&gt;Node11 -->
<g id="edge11" class="edge"><title>Node5&#45;&gt;Node11</title>
<path fill="none" stroke="midnightblue" d="M1720.72,-165.039C1748.95,-154.879 1788.76,-140.546 1813.84,-131.516"/>
<polygon fill="midnightblue" stroke="midnightblue" points="1719.49,-161.763 1711.27,-168.444 1721.86,-168.349 1719.49,-161.763"/>
</g>
<!-- Node13 -->
<g id="node13" class="node"><title>Node13</title>
<g id="a_node13"><a xlink:href="GeneralSpeciesThermo_8h.html" target="_top" xlink:title="Headers for a completely general species thermodynamic property manager for a phase (see Managers for...">
<polygon fill="white" stroke="black" points="683,-112.5 683,-131.5 808,-131.5 808,-112.5 683,-112.5"/>
<text text-anchor="middle" x="745.5" y="-119.5" font-family="FreeSans" font-size="10.00">GeneralSpeciesThermo.h</text>
</a>
</g>
</g>
<!-- Node5&#45;&gt;Node13 -->
<g id="edge14" class="edge"><title>Node5&#45;&gt;Node13</title>
<path fill="none" stroke="midnightblue" d="M1608.91,-172.495C1425.9,-162.004 974.285,-136.115 808.145,-126.591"/>
<polygon fill="midnightblue" stroke="midnightblue" points="1608.81,-175.995 1618.99,-173.073 1609.21,-169.006 1608.81,-175.995"/>
</g>
<!-- Node21 -->
<g id="node21" class="node"><title>Node21</title>
<g id="a_node21"><a xlink:href="Mu0Poly_8h.html" target="_top" xlink:title="Header for a single&#45;species standard state object derived from SpeciesThermoInterpType based on a pie...">
<polygon fill="white" stroke="black" points="1717.5,-112.5 1717.5,-131.5 1779.5,-131.5 1779.5,-112.5 1717.5,-112.5"/>
<text text-anchor="middle" x="1748.5" y="-119.5" font-family="FreeSans" font-size="10.00">Mu0Poly.h</text>
</a>
</g>
</g>
<!-- Node5&#45;&gt;Node21 -->
<g id="edge25" class="edge"><title>Node5&#45;&gt;Node21</title>
<path fill="none" stroke="midnightblue" d="M1704.97,-161.537C1715.84,-151.909 1729.44,-139.869 1738.52,-131.834"/>
<polygon fill="midnightblue" stroke="midnightblue" points="1702.47,-159.075 1697.3,-168.324 1707.11,-164.316 1702.47,-159.075"/>
</g>
<!-- Node23 -->
<g id="node23" class="node"><title>Node23</title>
<g id="a_node23"><a xlink:href="Nasa9Poly1_8h.html" target="_top" xlink:title="Header for a single&#45;species standard state object derived from SpeciesThermoInterpType based on the N...">
<polygon fill="white" stroke="black" points="1940,-112.5 1940,-131.5 2015,-131.5 2015,-112.5 1940,-112.5"/>
<text text-anchor="middle" x="1977.5" y="-119.5" font-family="FreeSans" font-size="10.00">Nasa9Poly1.h</text>
</a>
</g>
</g>
<!-- Node5&#45;&gt;Node23 -->
<g id="edge28" class="edge"><title>Node5&#45;&gt;Node23</title>
<path fill="none" stroke="midnightblue" d="M1743.5,-166.572C1801.22,-155.824 1889.63,-139.363 1939.62,-130.054"/>
<polygon fill="midnightblue" stroke="midnightblue" points="1742.64,-163.172 1733.45,-168.444 1743.92,-170.054 1742.64,-163.172"/>
</g>
<!-- Node27 -->
<g id="node27" class="node"><title>Node27</title>
<g id="a_node27"><a xlink:href="NasaPoly1_8h.html" target="_top" xlink:title="Header for a single&#45;species standard state object derived from SpeciesThermoInterpType based on the N...">
<polygon fill="white" stroke="black" points="2253.5,-112.5 2253.5,-131.5 2323.5,-131.5 2323.5,-112.5 2253.5,-112.5"/>
<text text-anchor="middle" x="2288.5" y="-119.5" font-family="FreeSans" font-size="10.00">NasaPoly1.h</text>
</a>
</g>
</g>
<!-- Node5&#45;&gt;Node27 -->
<g id="edge34" class="edge"><title>Node5&#45;&gt;Node27</title>
<path fill="none" stroke="midnightblue" d="M1766.43,-173.514C1874.5,-168.081 2074.4,-155.671 2243.5,-132 2246.66,-131.558 2249.92,-131.035 2253.19,-130.466"/>
<polygon fill="midnightblue" stroke="midnightblue" points="1766.07,-170.028 1756.26,-174.019 1766.42,-177.019 1766.07,-170.028"/>
</g>
<!-- Node28 -->
<g id="node28" class="node"><title>Node28</title>
<g id="a_node28"><a xlink:href="NasaPoly2_8h.html" target="_top" xlink:title="Header for a single&#45;species standard state object derived from SpeciesThermoInterpType based on the N...">
<polygon fill="white" stroke="black" points="2304.5,-56.5 2304.5,-75.5 2374.5,-75.5 2374.5,-56.5 2304.5,-56.5"/>
<text text-anchor="middle" x="2339.5" y="-63.5" font-family="FreeSans" font-size="10.00">NasaPoly2.h</text>
</a>
</g>
</g>
<!-- Node5&#45;&gt;Node28 -->
<g id="edge38" class="edge"><title>Node5&#45;&gt;Node28</title>
<path fill="none" stroke="midnightblue" d="M1766.5,-177.049C1929.77,-176.364 2292.55,-170.478 2332.5,-132 2347.71,-117.356 2344.51,-89.6784 2341.63,-75.6372"/>
<polygon fill="midnightblue" stroke="midnightblue" points="1766.03,-173.551 1756.04,-177.087 1766.05,-180.551 1766.03,-173.551"/>
</g>
<!-- Node30 -->
<g id="node30" class="node"><title>Node30</title>
<g id="a_node30"><a xlink:href="ShomatePoly_8h.html" target="_top" xlink:title="Header for a single&#45;species standard state object derived from SpeciesThermoInterpType based on the S...">
<polygon fill="white" stroke="black" points="2033.5,-112.5 2033.5,-131.5 2115.5,-131.5 2115.5,-112.5 2033.5,-112.5"/>
<text text-anchor="middle" x="2074.5" y="-119.5" font-family="FreeSans" font-size="10.00">ShomatePoly.h</text>
</a>
</g>
</g>
<!-- Node5&#45;&gt;Node30 -->
<g id="edge39" class="edge"><title>Node5&#45;&gt;Node30</title>
<path fill="none" stroke="midnightblue" d="M1766.39,-167.375C1834.56,-158.831 1935.68,-145.623 2023.5,-132 2026.7,-131.504 2030.01,-130.969 2033.33,-130.417"/>
<polygon fill="midnightblue" stroke="midnightblue" points="1765.64,-163.94 1756.15,-168.653 1766.51,-170.886 1765.64,-163.94"/>
</g>
<!-- Node31 -->
<g id="node31" class="node"><title>Node31</title>
<g id="a_node31"><a xlink:href="SpeciesThermoFactory_8h.html" target="_top" xlink:title="Header for factory functions to build instances of classes that manage the standard&#45;state thermodynam...">
<polygon fill="white" stroke="black" points="1179.5,-112.5 1179.5,-131.5 1303.5,-131.5 1303.5,-112.5 1179.5,-112.5"/>
<text text-anchor="middle" x="1241.5" y="-119.5" font-family="FreeSans" font-size="10.00">SpeciesThermoFactory.h</text>
</a>
</g>
</g>
<!-- Node5&#45;&gt;Node31 -->
<g id="edge41" class="edge"><title>Node5&#45;&gt;Node31</title>
<path fill="none" stroke="midnightblue" d="M1608.71,-167.46C1521.74,-156.931 1383.55,-140.199 1303.81,-130.544"/>
<polygon fill="midnightblue" stroke="midnightblue" points="1608.44,-170.953 1618.79,-168.681 1609.28,-164.004 1608.44,-170.953"/>
</g>
<!-- Node10&#45;&gt;Node3 -->
<g id="edge10" class="edge"><title>Node10&#45;&gt;Node3</title>
<path fill="none" stroke="midnightblue" d="M2208.8,-106.922C2228.03,-93.946 2249.64,-74.0262 2236.5,-56 2219.66,-32.8936 2190.75,-21.3921 2163.57,-15.7638"/>
<polygon fill="midnightblue" stroke="midnightblue" points="2206.81,-104.037 2200.26,-112.364 2210.57,-109.939 2206.81,-104.037"/>
</g>
<!-- Node11&#45;&gt;Node3 -->
<g id="edge13" class="edge"><title>Node11&#45;&gt;Node3</title>
<path fill="none" stroke="midnightblue" d="M1851.94,-104.924C1866.18,-90.0595 1889.26,-68.4451 1913.5,-56 1950.03,-37.2461 1994.72,-26.0649 2030.8,-19.5389"/>
<polygon fill="midnightblue" stroke="midnightblue" points="1849.25,-102.683 1845,-112.386 1854.37,-107.453 1849.25,-102.683"/>
</g>
<!-- Node12 -->
<g id="node12" class="node"><title>Node12</title>
<g id="a_node12"><a xlink:href="ConstCpPoly_8cpp.html" target="_top" xlink:title="Declarations for the SpeciesThermoInterpType &#160;object that employs a constant heat capacity assumption...">
<polygon fill="white" stroke="black" points="1776.5,-56.5 1776.5,-75.5 1866.5,-75.5 1866.5,-56.5 1776.5,-56.5"/>
<text text-anchor="middle" x="1821.5" y="-63.5" font-family="FreeSans" font-size="10.00">ConstCpPoly.cpp</text>
</a>
</g>
</g>
<!-- Node11&#45;&gt;Node12 -->
<g id="edge12" class="edge"><title>Node11&#45;&gt;Node12</title>
<path fill="none" stroke="midnightblue" d="M1831.99,-102.396C1829.31,-93.362 1826.22,-82.936 1824.09,-75.7511"/>
<polygon fill="midnightblue" stroke="midnightblue" points="1828.66,-103.489 1834.86,-112.083 1835.37,-101.501 1828.66,-103.489"/>
</g>
<!-- Node13&#45;&gt;Node3 -->
<g id="edge17" class="edge"><title>Node13&#45;&gt;Node3</title>
<path fill="none" stroke="midnightblue" d="M730.994,-104.098C720.353,-89.6134 709.783,-69.0751 722.5,-56 772.798,-4.28786 1948.55,-25.2471 2020.5,-20 2023.42,-19.7874 2026.39,-19.5449 2029.39,-19.2791"/>
<polygon fill="midnightblue" stroke="midnightblue" points="728.469,-106.548 737.421,-112.214 733.957,-102.202 728.469,-106.548"/>
</g>
<!-- Node13&#45;&gt;Node4 -->
<g id="edge18" class="edge"><title>Node13&#45;&gt;Node4</title>
<path fill="none" stroke="midnightblue" d="M691.308,-110.473C638.768,-100.268 560.061,-84.9794 511.344,-75.5164"/>
<polygon fill="midnightblue" stroke="midnightblue" points="690.966,-113.972 701.45,-112.444 692.301,-107.101 690.966,-113.972"/>
</g>
<!-- Node13&#45;&gt;Node9 -->
<g id="edge19" class="edge"><title>Node13&#45;&gt;Node9</title>
<path fill="none" stroke="midnightblue" d="M672.94,-112.412C671.448,-112.27 669.966,-112.132 668.5,-112 418.341,-89.4123 354.154,-103.617 104.5,-76 101.413,-75.6585 98.238,-75.2678 95.0413,-74.8447"/>
<polygon fill="midnightblue" stroke="midnightblue" points="672.616,-115.897 682.914,-113.406 673.31,-108.931 672.616,-115.897"/>
</g>
<!-- Node14 -->
<g id="node14" class="node"><title>Node14</title>
<g id="a_node14"><a xlink:href="GeneralSpeciesThermo_8cpp.html" target="_top" xlink:title="Declarations for a completely general species thermodynamic property manager for a phase (see Species...">
<polygon fill="white" stroke="black" points="859.5,-56.5 859.5,-75.5 995.5,-75.5 995.5,-56.5 859.5,-56.5"/>
<text text-anchor="middle" x="927.5" y="-63.5" font-family="FreeSans" font-size="10.00">GeneralSpeciesThermo.cpp</text>
</a>
</g>
</g>
<!-- Node13&#45;&gt;Node14 -->
<g id="edge15" class="edge"><title>Node13&#45;&gt;Node14</title>
<path fill="none" stroke="midnightblue" d="M784.031,-109.568C818.364,-99.381 867.833,-84.7034 898.796,-75.5164"/>
<polygon fill="midnightblue" stroke="midnightblue" points="782.93,-106.244 774.338,-112.444 784.921,-112.954 782.93,-106.244"/>
</g>
<!-- Node15 -->
<g id="node15" class="node"><title>Node15</title>
<g id="a_node15"><a xlink:href="LatticeSolidPhase_8cpp.html" target="_top" xlink:title="Definitions for a simple thermodynamics model of a bulk solid phase derived from ThermoPhase, assuming an ideal solution model based on a lattice of solid atoms (see Thermodynamic Properties and class LatticeSolidPhase). ">
<polygon fill="white" stroke="black" points="1014,-56.5 1014,-75.5 1127,-75.5 1127,-56.5 1014,-56.5"/>
<text text-anchor="middle" x="1070.5" y="-63.5" font-family="FreeSans" font-size="10.00">LatticeSolidPhase.cpp</text>
</a>
</g>
</g>
<!-- Node13&#45;&gt;Node15 -->
<g id="edge16" class="edge"><title>Node13&#45;&gt;Node15</title>
<path fill="none" stroke="midnightblue" d="M806.945,-110.791C868.356,-100.587 961.697,-85.078 1019.24,-75.5164"/>
<polygon fill="midnightblue" stroke="midnightblue" points="806.288,-107.352 796.997,-112.444 807.436,-114.257 806.288,-107.352"/>
</g>
<!-- Node16 -->
<g id="node16" class="node"><title>Node16</title>
<g id="a_node16"><a xlink:href="VPSSMgr_8cpp.html" target="_top" xlink:title="Definition file for a virtual base class that manages the calculation of standard state properties fo...">
<polygon fill="white" stroke="black" points="1145,-56.5 1145,-75.5 1222,-75.5 1222,-56.5 1145,-56.5"/>
<text text-anchor="middle" x="1183.5" y="-63.5" font-family="FreeSans" font-size="10.00">VPSSMgr.cpp</text>
</a>
</g>
</g>
<!-- Node13&#45;&gt;Node16 -->
<g id="edge20" class="edge"><title>Node13&#45;&gt;Node16</title>
<path fill="none" stroke="midnightblue" d="M818.426,-114.135C896.929,-106.384 1025.37,-92.6565 1135.5,-76 1138.52,-75.5435 1141.64,-75.0375 1144.77,-74.5048"/>
<polygon fill="midnightblue" stroke="midnightblue" points="817.77,-110.683 808.16,-115.143 818.454,-117.649 817.77,-110.683"/>
</g>
<!-- Node17 -->
<g id="node17" class="node"><title>Node17</title>
<g id="a_node17"><a xlink:href="VPSSMgr__General_8cpp.html" target="_top" xlink:title="Definition file for a derived class that handles the calculation of standard state thermo properties ...">
<polygon fill="white" stroke="black" points="113.5,-56.5 113.5,-75.5 229.5,-75.5 229.5,-56.5 113.5,-56.5"/>
<text text-anchor="middle" x="171.5" y="-63.5" font-family="FreeSans" font-size="10.00">VPSSMgr_General.cpp</text>
</a>
</g>
</g>
<!-- Node13&#45;&gt;Node17 -->
<g id="edge21" class="edge"><title>Node13&#45;&gt;Node17</title>
<path fill="none" stroke="midnightblue" d="M672.936,-112.452C671.445,-112.298 669.965,-112.147 668.5,-112 477.677,-92.8653 429.151,-96.7726 238.5,-76 235.583,-75.6822 232.597,-75.3406 229.583,-74.983"/>
<polygon fill="midnightblue" stroke="midnightblue" points="672.59,-115.934 682.904,-113.51 673.329,-108.974 672.59,-115.934"/>
</g>
<!-- Node18 -->
<g id="node18" class="node"><title>Node18</title>
<g id="a_node18"><a xlink:href="VPSSMgr__Water__ConstVol_8cpp.html" target="_top" xlink:title="Definition file for a derived class that handles the calculation of standard state thermo properties ...">
<polygon fill="white" stroke="black" points="247.5,-56.5 247.5,-75.5 399.5,-75.5 399.5,-56.5 247.5,-56.5"/>
<text text-anchor="middle" x="323.5" y="-63.5" font-family="FreeSans" font-size="10.00">VPSSMgr_Water_ConstVol.cpp</text>
</a>
</g>
</g>
<!-- Node13&#45;&gt;Node18 -->
<g id="edge22" class="edge"><title>Node13&#45;&gt;Node18</title>
<path fill="none" stroke="midnightblue" d="M672.844,-111.703C593.358,-101.532 467.037,-85.3673 390.052,-75.5162"/>
<polygon fill="midnightblue" stroke="midnightblue" points="672.415,-115.176 682.778,-112.974 673.303,-108.233 672.415,-115.176"/>
</g>
<!-- Node19 -->
<g id="node19" class="node"><title>Node19</title>
<g id="a_node19"><a xlink:href="VPSSMgr__Water__HKFT_8cpp.html" target="_top" xlink:title="Definition file for a derived class that handles the calculation of standard state thermo properties ...">
<polygon fill="white" stroke="black" points="536,-56.5 536,-75.5 675,-75.5 675,-56.5 536,-56.5"/>
<text text-anchor="middle" x="605.5" y="-63.5" font-family="FreeSans" font-size="10.00">VPSSMgr_Water_HKFT.cpp</text>
</a>
</g>
</g>
<!-- Node13&#45;&gt;Node19 -->
<g id="edge23" class="edge"><title>Node13&#45;&gt;Node19</title>
<path fill="none" stroke="midnightblue" d="M713.798,-108.772C687.5,-98.6287 650.784,-84.4669 627.58,-75.5164"/>
<polygon fill="midnightblue" stroke="midnightblue" points="712.727,-112.11 723.317,-112.444 715.246,-105.579 712.727,-112.11"/>
</g>
<!-- Node20 -->
<g id="node20" class="node"><title>Node20</title>
<g id="a_node20"><a xlink:href="VPSSMgrFactory_8cpp.html" target="_top" xlink:title="Definitions for factory to build instances of classes that manage the calculation of standard state p...">
<polygon fill="white" stroke="black" points="731.5,-56.5 731.5,-75.5 841.5,-75.5 841.5,-56.5 731.5,-56.5"/>
<text text-anchor="middle" x="786.5" y="-63.5" font-family="FreeSans" font-size="10.00">VPSSMgrFactory.cpp</text>
</a>
</g>
</g>
<!-- Node13&#45;&gt;Node20 -->
<g id="edge24" class="edge"><title>Node13&#45;&gt;Node20</title>
<path fill="none" stroke="midnightblue" d="M758.517,-103.855C765.617,-94.5048 774.104,-83.3265 779.856,-75.7511"/>
<polygon fill="midnightblue" stroke="midnightblue" points="755.53,-102.002 752.27,-112.083 761.105,-106.235 755.53,-102.002"/>
</g>
<!-- Node21&#45;&gt;Node3 -->
<g id="edge27" class="edge"><title>Node21&#45;&gt;Node3</title>
<path fill="none" stroke="midnightblue" d="M1748.75,-102.185C1750.01,-87.3668 1754.3,-67.3743 1767.5,-56 1772.43,-51.7491 1934.41,-31.0678 2029.21,-19.2768"/>
<polygon fill="midnightblue" stroke="midnightblue" points="1745.25,-102.125 1748.27,-112.28 1752.24,-102.457 1745.25,-102.125"/>
</g>
<!-- Node22 -->
<g id="node22" class="node"><title>Node22</title>
<g id="a_node22"><a xlink:href="Mu0Poly_8cpp.html" target="_top" xlink:title="Definitions for a single&#45;species standard state object derived from SpeciesThermoInterpType based on ...">
<polygon fill="white" stroke="black" points="1648.5,-56.5 1648.5,-75.5 1720.5,-75.5 1720.5,-56.5 1648.5,-56.5"/>
<text text-anchor="middle" x="1684.5" y="-63.5" font-family="FreeSans" font-size="10.00">Mu0Poly.cpp</text>
</a>
</g>
</g>
<!-- Node21&#45;&gt;Node22 -->
<g id="edge26" class="edge"><title>Node21&#45;&gt;Node22</title>
<path fill="none" stroke="midnightblue" d="M1730.51,-105.82C1719.04,-96.1452 1704.59,-83.9481 1694.97,-75.8339"/>
<polygon fill="midnightblue" stroke="midnightblue" points="1728.32,-108.55 1738.22,-112.324 1732.83,-103.2 1728.32,-108.55"/>
</g>
<!-- Node23&#45;&gt;Node3 -->
<g id="edge30" class="edge"><title>Node23&#45;&gt;Node3</title>
<path fill="none" stroke="midnightblue" d="M2024.64,-109.172C2043.41,-102.298 2063.77,-91.7757 2077.5,-76 2091.7,-59.6817 2095.3,-33.2419 2096.21,-19.6603"/>
<polygon fill="midnightblue" stroke="midnightblue" points="2023.35,-105.912 2015.01,-112.442 2025.6,-112.54 2023.35,-105.912"/>
</g>
<!-- Node24 -->
<g id="node24" class="node"><title>Node24</title>
<g id="a_node24"><a xlink:href="Nasa9Poly1_8cpp.html" target="_top" xlink:title="Definitions for a single&#45;species standard state object derived from SpeciesThermoInterpType based on ...">
<polygon fill="white" stroke="black" points="2124.5,-56.5 2124.5,-75.5 2210.5,-75.5 2210.5,-56.5 2124.5,-56.5"/>
<text text-anchor="middle" x="2167.5" y="-63.5" font-family="FreeSans" font-size="10.00">Nasa9Poly1.cpp</text>
</a>
</g>
</g>
<!-- Node23&#45;&gt;Node24 -->
<g id="edge29" class="edge"><title>Node23&#45;&gt;Node24</title>
<path fill="none" stroke="midnightblue" d="M2017.26,-109.699C2053.12,-99.507 2105.07,-84.7429 2137.53,-75.5164"/>
<polygon fill="midnightblue" stroke="midnightblue" points="2016.27,-106.343 2007.61,-112.444 2018.18,-113.076 2016.27,-106.343"/>
</g>
<!-- Node25 -->
<g id="node25" class="node"><title>Node25</title>
<g id="a_node25"><a xlink:href="Nasa9PolyMultiTempRegion_8h.html" target="_top" xlink:title="Header for a single&#45;species standard state object derived from SpeciesThermoInterpType based on the N...">
<polygon fill="white" stroke="black" points="1922.5,-56.5 1922.5,-75.5 2068.5,-75.5 2068.5,-56.5 1922.5,-56.5"/>
<text text-anchor="middle" x="1995.5" y="-63.5" font-family="FreeSans" font-size="10.00">Nasa9PolyMultiTempRegion.h</text>
</a>
</g>
</g>
<!-- Node23&#45;&gt;Node25 -->
<g id="edge31" class="edge"><title>Node23&#45;&gt;Node25</title>
<path fill="none" stroke="midnightblue" d="M1983.7,-102.396C1986.71,-93.362 1990.19,-82.936 1992.58,-75.7511"/>
<polygon fill="midnightblue" stroke="midnightblue" points="1980.31,-101.489 1980.47,-112.083 1986.96,-103.703 1980.31,-101.489"/>
</g>
<!-- Node25&#45;&gt;Node3 -->
<g id="edge33" class="edge"><title>Node25&#45;&gt;Node3</title>
<path fill="none" stroke="midnightblue" d="M2020.58,-51.5895C2039.26,-41.6052 2064.2,-28.2672 2080.31,-19.6545"/>
<polygon fill="midnightblue" stroke="midnightblue" points="2018.9,-48.5224 2011.73,-56.324 2022.2,-54.6955 2018.9,-48.5224"/>
</g>
<!-- Node26 -->
<g id="node26" class="node"><title>Node26</title>
<g id="a_node26"><a xlink:href="Nasa9PolyMultiTempRegion_8cpp.html" target="_top" xlink:title="Definitions for a single&#45;species standard state object derived from SpeciesThermoInterpType based on ...">
<polygon fill="white" stroke="black" points="1855.5,-0.5 1855.5,-19.5 2011.5,-19.5 2011.5,-0.5 1855.5,-0.5"/>
<text text-anchor="middle" x="1933.5" y="-7.5" font-family="FreeSans" font-size="10.00">Nasa9PolyMultiTempRegion.cpp</text>
</a>
</g>
</g>
<!-- Node25&#45;&gt;Node26 -->
<g id="edge32" class="edge"><title>Node25&#45;&gt;Node26</title>
<path fill="none" stroke="midnightblue" d="M1977.75,-49.5372C1966.69,-39.9087 1952.87,-27.8694 1943.64,-19.8339"/>
<polygon fill="midnightblue" stroke="midnightblue" points="1975.7,-52.3954 1985.54,-56.324 1980.3,-47.1168 1975.7,-52.3954"/>
</g>
<!-- Node27&#45;&gt;Node28 -->
<g id="edge35" class="edge"><title>Node27&#45;&gt;Node28</title>
<path fill="none" stroke="midnightblue" d="M2303.88,-104.718C2312.87,-95.1997 2323.86,-83.5608 2331.24,-75.7511"/>
<polygon fill="midnightblue" stroke="midnightblue" points="2301.24,-102.41 2296.92,-112.083 2306.33,-107.216 2301.24,-102.41"/>
</g>
<!-- Node28&#45;&gt;Node3 -->
<g id="edge37" class="edge"><title>Node28&#45;&gt;Node3</title>
<path fill="none" stroke="midnightblue" d="M2294.45,-54.9889C2248.53,-44.7846 2178.07,-29.1274 2134.77,-19.5047"/>
<polygon fill="midnightblue" stroke="midnightblue" points="2293.9,-58.4529 2304.43,-57.2056 2295.42,-51.6196 2293.9,-58.4529"/>
</g>
<!-- Node29 -->
<g id="node29" class="node"><title>Node29</title>
<g id="a_node29"><a xlink:href="NasaPoly2_8cpp_source.html" target="_top" xlink:title="NasaPoly2.cpp">
<polygon fill="white" stroke="black" points="2299.5,-0.5 2299.5,-19.5 2379.5,-19.5 2379.5,-0.5 2299.5,-0.5"/>
<text text-anchor="middle" x="2339.5" y="-7.5" font-family="FreeSans" font-size="10.00">NasaPoly2.cpp</text>
</a>
</g>
</g>
<!-- Node28&#45;&gt;Node29 -->
<g id="edge36" class="edge"><title>Node28&#45;&gt;Node29</title>
<path fill="none" stroke="midnightblue" d="M2339.5,-45.8045C2339.5,-36.9102 2339.5,-26.7798 2339.5,-19.7511"/>
<polygon fill="midnightblue" stroke="midnightblue" points="2336,-46.083 2339.5,-56.083 2343,-46.083 2336,-46.083"/>
</g>
<!-- Node30&#45;&gt;Node3 -->
<g id="edge40" class="edge"><title>Node30&#45;&gt;Node3</title>
<path fill="none" stroke="midnightblue" d="M2125.99,-111.688C2162.94,-103.836 2208.14,-91.4209 2219.5,-76 2241.49,-46.1513 2192.89,-28.7282 2150.44,-19.5612"/>
<polygon fill="midnightblue" stroke="midnightblue" points="2124.91,-108.337 2115.82,-113.78 2126.32,-115.193 2124.91,-108.337"/>
</g>
<!-- Node31&#45;&gt;Node3 -->
<g id="edge46" class="edge"><title>Node31&#45;&gt;Node3</title>
<path fill="none" stroke="midnightblue" d="M1279.14,-109.262C1304.92,-100.861 1339.7,-88.8107 1369.5,-76 1387.4,-68.3075 1389.71,-61.1264 1408.5,-56 1539.93,-20.1474 1884.8,-32.0158 2020.5,-20 2023.41,-19.7422 2026.38,-19.4622 2029.39,-19.1658"/>
<polygon fill="midnightblue" stroke="midnightblue" points="1277.82,-106.008 1269.38,-112.408 1279.97,-112.67 1277.82,-106.008"/>
</g>
<!-- Node31&#45;&gt;Node4 -->
<g id="edge47" class="edge"><title>Node31&#45;&gt;Node4</title>
<path fill="none" stroke="midnightblue" d="M1169,-118.559C1039.65,-113.732 760.686,-101.181 526.5,-76 523.615,-75.6898 520.656,-75.3398 517.673,-74.9625"/>
<polygon fill="midnightblue" stroke="midnightblue" points="1169.06,-122.063 1179.18,-118.934 1169.31,-115.068 1169.06,-122.063"/>
</g>
<!-- Node31&#45;&gt;Node6 -->
<g id="edge42" class="edge"><title>Node31&#45;&gt;Node6</title>
<path fill="none" stroke="midnightblue" d="M1289.22,-110.217C1334.39,-100.013 1401.27,-84.9006 1442.81,-75.5164"/>
<polygon fill="midnightblue" stroke="midnightblue" points="1288.35,-106.826 1279.37,-112.444 1289.9,-113.654 1288.35,-106.826"/>
</g>
<!-- Node31&#45;&gt;Node7 -->
<g id="edge45" class="edge"><title>Node31&#45;&gt;Node7</title>
<path fill="none" stroke="midnightblue" d="M1313.94,-111.686C1376.89,-103.306 1470.43,-90.163 1551.5,-76 1554.57,-75.4633 1557.76,-74.8745 1560.95,-74.2631"/>
<polygon fill="midnightblue" stroke="midnightblue" points="1313.17,-108.257 1303.72,-113.04 1314.09,-115.196 1313.17,-108.257"/>
</g>
<!-- Node31&#45;&gt;Node14 -->
<g id="edge43" class="edge"><title>Node31&#45;&gt;Node14</title>
<path fill="none" stroke="midnightblue" d="M1181.77,-110.727C1122.43,-100.523 1032.51,-85.0583 977.021,-75.5164"/>
<polygon fill="midnightblue" stroke="midnightblue" points="1181.3,-114.198 1191.75,-112.444 1182.48,-107.299 1181.3,-114.198"/>
</g>
<!-- Node31&#45;&gt;Node15 -->
<g id="edge44" class="edge"><title>Node31&#45;&gt;Node15</title>
<path fill="none" stroke="midnightblue" d="M1204.46,-109.304C1172.24,-99.1294 1126.31,-84.6246 1097.47,-75.5164"/>
<polygon fill="midnightblue" stroke="midnightblue" points="1203.81,-112.77 1214.4,-112.444 1205.92,-106.095 1203.81,-112.77"/>
</g>
<!-- Node31&#45;&gt;Node16 -->
<g id="edge48" class="edge"><title>Node31&#45;&gt;Node16</title>
<path fill="none" stroke="midnightblue" d="M1224.59,-105.253C1214.3,-95.6731 1201.53,-83.7906 1192.99,-75.8339"/>
<polygon fill="midnightblue" stroke="midnightblue" points="1222.48,-108.071 1232.18,-112.324 1227.25,-102.948 1222.48,-108.071"/>
</g>
<!-- Node31&#45;&gt;Node20 -->
<g id="edge50" class="edge"><title>Node31&#45;&gt;Node20</title>
<path fill="none" stroke="midnightblue" d="M1169.21,-113.231C1090.69,-104.662 961.583,-90.2005 850.5,-76 847.606,-75.6301 844.64,-75.2424 841.646,-74.8445"/>
<polygon fill="midnightblue" stroke="midnightblue" points="1169.16,-116.745 1179.48,-114.348 1169.92,-109.786 1169.16,-116.745"/>
</g>
<!-- Node32 -->
<g id="node32" class="node"><title>Node32</title>
<g id="a_node32"><a xlink:href="VPSSMgr__IdealGas_8cpp.html" target="_top" xlink:title="Definition file for a derived class that handles the calculation of standard state thermo properties ...">
<polygon fill="white" stroke="black" points="1240,-56.5 1240,-75.5 1361,-75.5 1361,-56.5 1240,-56.5"/>
<text text-anchor="middle" x="1300.5" y="-63.5" font-family="FreeSans" font-size="10.00">VPSSMgr_IdealGas.cpp</text>
</a>
</g>
</g>
<!-- Node31&#45;&gt;Node32 -->
<g id="edge49" class="edge"><title>Node31&#45;&gt;Node32</title>
<path fill="none" stroke="midnightblue" d="M1258.39,-105.537C1268.91,-95.9087 1282.07,-83.8694 1290.85,-75.8339"/>
<polygon fill="midnightblue" stroke="midnightblue" points="1255.99,-102.99 1250.98,-112.324 1260.72,-108.154 1255.99,-102.99"/>
</g>
</g>
</svg>
