<?xml version="1.0" encoding="UTF-8" standalone="no"?>
<!DOCTYPE svg PUBLIC "-//W3C//DTD SVG 1.1//EN"
 "http://www.w3.org/Graphics/SVG/1.1/DTD/svg11.dtd">
<!-- Generated by graphviz version 2.36.0 (20140111.2315)
 -->
<!-- Title: SpeciesThermoFactory.h Pages: 1 -->
<svg width="617pt" height="196pt"
 viewBox="0.00 0.00 617.00 196.00" xmlns="http://www.w3.org/2000/svg" xmlns:xlink="http://www.w3.org/1999/xlink">
<g id="graph0" class="graph" transform="scale(1 1) rotate(0) translate(4 192)">
<title>SpeciesThermoFactory.h</title>
<polygon fill="white" stroke="none" points="-4,4 -4,-192 613,-192 613,4 -4,4"/>
<!-- Node1 -->
<g id="node1" class="node"><title>Node1</title>
<polygon fill="#bfbfbf" stroke="black" points="250,-168.5 250,-187.5 374,-187.5 374,-168.5 250,-168.5"/>
<text text-anchor="middle" x="312" y="-175.5" font-family="FreeSans" font-size="10.00">SpeciesThermoFactory.h</text>
</g>
<!-- Node2 -->
<g id="node2" class="node"><title>Node2</title>
<g id="a_node2"><a xlink:href="SpeciesThermo_8h.html" target="_top" xlink:title="Virtual base class for the calculation of multiple&#45;species thermodynamic reference&#45;state property man...">
<polygon fill="white" stroke="black" points="65,-112.5 65,-131.5 157,-131.5 157,-112.5 65,-112.5"/>
<text text-anchor="middle" x="111" y="-119.5" font-family="FreeSans" font-size="10.00">SpeciesThermo.h</text>
</a>
</g>
</g>
<!-- Node1&#45;&gt;Node2 -->
<g id="edge1" class="edge"><title>Node1&#45;&gt;Node2</title>
<path fill="none" stroke="midnightblue" d="M280.151,-168.444C245.602,-159.162 190.318,-144.309 152.417,-134.127"/>
<polygon fill="midnightblue" stroke="midnightblue" points="153.266,-130.731 142.7,-131.516 151.449,-137.491 153.266,-130.731"/>
</g>
<!-- Node10 -->
<g id="node10" class="node"><title>Node10</title>
<g id="a_node10"><a xlink:href="ctexceptions_8h.html" target="_top" xlink:title="Definitions for the classes that are thrown when Cantera experiences an error condition (also contain...">
<polygon fill="white" stroke="black" points="472.5,-112.5 472.5,-131.5 609.5,-131.5 609.5,-112.5 472.5,-112.5"/>
<text text-anchor="middle" x="541" y="-119.5" font-family="FreeSans" font-size="10.00">cantera/base/ctexceptions.h</text>
</a>
</g>
</g>
<!-- Node1&#45;&gt;Node10 -->
<g id="edge9" class="edge"><title>Node1&#45;&gt;Node10</title>
<path fill="none" stroke="midnightblue" d="M348.286,-168.444C387.983,-159.083 451.707,-144.056 494.912,-133.868"/>
<polygon fill="midnightblue" stroke="midnightblue" points="495.954,-137.218 504.884,-131.516 494.348,-130.405 495.954,-137.218"/>
</g>
<!-- Node12 -->
<g id="node12" class="node"><title>Node12</title>
<g id="a_node12"><a xlink:href="FactoryBase_8h.html" target="_top" xlink:title="File contains the FactoryBase class declarations. ">
<polygon fill="white" stroke="black" points="317.5,-112.5 317.5,-131.5 454.5,-131.5 454.5,-112.5 317.5,-112.5"/>
<text text-anchor="middle" x="386" y="-119.5" font-family="FreeSans" font-size="10.00">cantera/base/FactoryBase.h</text>
</a>
</g>
</g>
<!-- Node1&#45;&gt;Node12 -->
<g id="edge12" class="edge"><title>Node1&#45;&gt;Node12</title>
<path fill="none" stroke="midnightblue" d="M323.889,-168.324C335.15,-160.107 352.287,-147.602 365.709,-137.807"/>
<polygon fill="midnightblue" stroke="midnightblue" points="367.88,-140.556 373.894,-131.834 363.753,-134.901 367.88,-140.556"/>
</g>
<!-- Node13 -->
<g id="node13" class="node"><title>Node13</title>
<g id="a_node13"><a xlink:href="ct__thread_8h.html" target="_top" xlink:title="cantera/base/ct_thread.h">
<polygon fill="white" stroke="black" points="176.5,-112.5 176.5,-131.5 299.5,-131.5 299.5,-112.5 176.5,-112.5"/>
<text text-anchor="middle" x="238" y="-119.5" font-family="FreeSans" font-size="10.00">cantera/base/ct_thread.h</text>
</a>
</g>
</g>
<!-- Node1&#45;&gt;Node13 -->
<g id="edge14" class="edge"><title>Node1&#45;&gt;Node13</title>
<path fill="none" stroke="midnightblue" d="M300.111,-168.324C288.85,-160.107 271.713,-147.602 258.291,-137.807"/>
<polygon fill="midnightblue" stroke="midnightblue" points="260.247,-134.901 250.106,-131.834 256.12,-140.556 260.247,-134.901"/>
</g>
<!-- Node3 -->
<g id="node3" class="node"><title>Node3</title>
<g id="a_node3"><a xlink:href="ct__defs_8h.html" target="_top" xlink:title="This file contains definitions of terms that are used in internal routines and are unlikely to need m...">
<polygon fill="white" stroke="black" points="53,-56.5 53,-75.5 167,-75.5 167,-56.5 53,-56.5"/>
<text text-anchor="middle" x="110" y="-63.5" font-family="FreeSans" font-size="10.00">cantera/base/ct_defs.h</text>
</a>
</g>
</g>
<!-- Node2&#45;&gt;Node3 -->
<g id="edge2" class="edge"><title>Node2&#45;&gt;Node3</title>
<path fill="none" stroke="midnightblue" d="M110.835,-112.083C110.704,-105.006 110.516,-94.8611 110.352,-85.9865"/>
<polygon fill="midnightblue" stroke="midnightblue" points="113.847,-85.6845 110.162,-75.7511 106.848,-85.8142 113.847,-85.6845"/>
</g>
<!-- Node4 -->
<g id="node4" class="node"><title>Node4</title>
<g id="a_node4"><a xlink:href="config_8h_source.html" target="_top" xlink:title="config.h">
<polygon fill="white" stroke="black" points="0,-0.5 0,-19.5 50,-19.5 50,-0.5 0,-0.5"/>
<text text-anchor="middle" x="25" y="-7.5" font-family="FreeSans" font-size="10.00">config.h</text>
</a>
</g>
</g>
<!-- Node3&#45;&gt;Node4 -->
<g id="edge3" class="edge"><title>Node3&#45;&gt;Node4</title>
<path fill="none" stroke="midnightblue" d="M96.3433,-56.324C83.0837,-47.9002 62.732,-34.9709 47.1538,-25.0741"/>
<polygon fill="midnightblue" stroke="midnightblue" points="48.9404,-22.0626 38.6228,-19.6545 45.1867,-27.9711 48.9404,-22.0626"/>
</g>
<!-- Node5 -->
<g id="node5" class="node"><title>Node5</title>
<polygon fill="white" stroke="#bfbfbf" points="68,-0.5 68,-19.5 112,-19.5 112,-0.5 68,-0.5"/>
<text text-anchor="middle" x="90" y="-7.5" font-family="FreeSans" font-size="10.00">cmath</text>
</g>
<!-- Node3&#45;&gt;Node5 -->
<g id="edge4" class="edge"><title>Node3&#45;&gt;Node5</title>
<path fill="none" stroke="midnightblue" d="M106.697,-56.083C104.018,-48.8486 100.151,-38.4087 96.8136,-29.3968"/>
<polygon fill="midnightblue" stroke="midnightblue" points="99.9965,-27.9129 93.2411,-19.7511 93.4322,-30.3442 99.9965,-27.9129"/>
</g>
<!-- Node6 -->
<g id="node6" class="node"><title>Node6</title>
<polygon fill="white" stroke="#bfbfbf" points="130,-0.5 130,-19.5 174,-19.5 174,-0.5 130,-0.5"/>
<text text-anchor="middle" x="152" y="-7.5" font-family="FreeSans" font-size="10.00">cstdlib</text>
</g>
<!-- Node3&#45;&gt;Node6 -->
<g id="edge5" class="edge"><title>Node3&#45;&gt;Node6</title>
<path fill="none" stroke="midnightblue" d="M116.935,-56.083C122.929,-48.3768 131.752,-37.0333 139.048,-27.6531"/>
<polygon fill="midnightblue" stroke="midnightblue" points="141.817,-29.7934 145.194,-19.7511 136.291,-25.4958 141.817,-29.7934"/>
</g>
<!-- Node7 -->
<g id="node7" class="node"><title>Node7</title>
<polygon fill="white" stroke="#bfbfbf" points="328.5,-0.5 328.5,-19.5 371.5,-19.5 371.5,-0.5 328.5,-0.5"/>
<text text-anchor="middle" x="350" y="-7.5" font-family="FreeSans" font-size="10.00">vector</text>
</g>
<!-- Node3&#45;&gt;Node7 -->
<g id="edge6" class="edge"><title>Node3&#45;&gt;Node7</title>
<path fill="none" stroke="midnightblue" d="M148.029,-56.4435C195.139,-45.8437 274.537,-27.9792 318.438,-18.1014"/>
<polygon fill="midnightblue" stroke="midnightblue" points="319.29,-21.4974 328.277,-15.8876 317.753,-14.6681 319.29,-21.4974"/>
</g>
<!-- Node8 -->
<g id="node8" class="node"><title>Node8</title>
<polygon fill="white" stroke="#bfbfbf" points="192.5,-0.5 192.5,-19.5 227.5,-19.5 227.5,-0.5 192.5,-0.5"/>
<text text-anchor="middle" x="210" y="-7.5" font-family="FreeSans" font-size="10.00">map</text>
</g>
<!-- Node3&#45;&gt;Node8 -->
<g id="edge7" class="edge"><title>Node3&#45;&gt;Node8</title>
<path fill="none" stroke="midnightblue" d="M126.067,-56.324C141.958,-47.7428 166.507,-34.486 184.958,-24.5224"/>
<polygon fill="midnightblue" stroke="midnightblue" points="186.837,-27.4857 193.973,-19.6545 183.511,-21.3264 186.837,-27.4857"/>
</g>
<!-- Node9 -->
<g id="node9" class="node"><title>Node9</title>
<polygon fill="white" stroke="#bfbfbf" points="431,-0.5 431,-19.5 471,-19.5 471,-0.5 431,-0.5"/>
<text text-anchor="middle" x="451" y="-7.5" font-family="FreeSans" font-size="10.00">string</text>
</g>
<!-- Node3&#45;&gt;Node9 -->
<g id="edge8" class="edge"><title>Node3&#45;&gt;Node9</title>
<path fill="none" stroke="midnightblue" d="M164.032,-56.4435C236.695,-44.9369 363.417,-24.8694 420.997,-15.7512"/>
<polygon fill="midnightblue" stroke="midnightblue" points="421.586,-19.2016 430.915,-14.1805 420.491,-12.2878 421.586,-19.2016"/>
</g>
<!-- Node10&#45;&gt;Node9 -->
<g id="edge11" class="edge"><title>Node10&#45;&gt;Node9</title>
<path fill="none" stroke="midnightblue" d="M533.938,-112.368C518.954,-94.0547 483.767,-51.0489 464.387,-27.3624"/>
<polygon fill="midnightblue" stroke="midnightblue" points="467.071,-25.1147 458.029,-19.5914 461.653,-29.5474 467.071,-25.1147"/>
</g>
<!-- Node11 -->
<g id="node11" class="node"><title>Node11</title>
<polygon fill="white" stroke="#bfbfbf" points="521,-56.5 521,-75.5 579,-75.5 579,-56.5 521,-56.5"/>
<text text-anchor="middle" x="550" y="-63.5" font-family="FreeSans" font-size="10.00">exception</text>
</g>
<!-- Node10&#45;&gt;Node11 -->
<g id="edge10" class="edge"><title>Node10&#45;&gt;Node11</title>
<path fill="none" stroke="midnightblue" d="M542.486,-112.083C543.679,-104.927 545.394,-94.6353 546.885,-85.6911"/>
<polygon fill="midnightblue" stroke="midnightblue" points="550.35,-86.1904 548.541,-75.7511 543.445,-85.0396 550.35,-86.1904"/>
</g>
<!-- Node12&#45;&gt;Node7 -->
<g id="edge13" class="edge"><title>Node12&#45;&gt;Node7</title>
<path fill="none" stroke="midnightblue" d="M400.805,-112.373C419.539,-100.299 447.902,-77.4293 435,-56 423.412,-36.7534 400.525,-25.3076 381.417,-18.7792"/>
<polygon fill="midnightblue" stroke="midnightblue" points="382.438,-15.4313 371.85,-15.7983 380.356,-22.1145 382.438,-15.4313"/>
</g>
<!-- Node13&#45;&gt;Node4 -->
<g id="edge15" class="edge"><title>Node13&#45;&gt;Node4</title>
<path fill="none" stroke="midnightblue" d="M176.438,-113.548C127.059,-106.364 62.9719,-93.93 44,-76 31.4592,-64.148 27.0529,-44.5216 25.5759,-29.9305"/>
<polygon fill="midnightblue" stroke="midnightblue" points="29.0439,-29.3121 24.92,-19.5529 22.0579,-29.7538 29.0439,-29.3121"/>
</g>
<!-- Node14 -->
<g id="node14" class="node"><title>Node14</title>
<polygon fill="white" stroke="#bfbfbf" points="185,-56.5 185,-75.5 291,-75.5 291,-56.5 185,-56.5"/>
<text text-anchor="middle" x="238" y="-63.5" font-family="FreeSans" font-size="10.00">boost/shared_ptr.hpp</text>
</g>
<!-- Node13&#45;&gt;Node14 -->
<g id="edge16" class="edge"><title>Node13&#45;&gt;Node14</title>
<path fill="none" stroke="midnightblue" d="M238,-112.083C238,-105.006 238,-94.8611 238,-85.9865"/>
<polygon fill="midnightblue" stroke="midnightblue" points="241.5,-85.751 238,-75.7511 234.5,-85.7511 241.5,-85.751"/>
</g>
<!-- Node15 -->
<g id="node15" class="node"><title>Node15</title>
<polygon fill="white" stroke="#bfbfbf" points="309.5,-56.5 309.5,-75.5 426.5,-75.5 426.5,-56.5 309.5,-56.5"/>
<text text-anchor="middle" x="368" y="-63.5" font-family="FreeSans" font-size="10.00">boost/thread/mutex.hpp</text>
</g>
<!-- Node13&#45;&gt;Node15 -->
<g id="edge17" class="edge"><title>Node13&#45;&gt;Node15</title>
<path fill="none" stroke="midnightblue" d="M258.599,-112.444C279.993,-103.557 313.681,-89.5632 338.024,-79.4514"/>
<polygon fill="midnightblue" stroke="midnightblue" points="339.605,-82.5848 347.497,-75.5164 336.92,-76.1203 339.605,-82.5848"/>
</g>
</g>
</svg>
