<?xml version="1.0" encoding="UTF-8" standalone="no"?>
<!DOCTYPE svg PUBLIC "-//W3C//DTD SVG 1.1//EN"
 "http://www.w3.org/Graphics/SVG/1.1/DTD/svg11.dtd">
<!-- Generated by graphviz version 2.28.0 (20120425.2022)
 -->
<!-- Title: SpeciesThermoMgr.h Pages: 1 -->
<svg width="1147pt" height="196pt"
 viewBox="0.00 0.00 1147.00 196.00" xmlns="http://www.w3.org/2000/svg" xmlns:xlink="http://www.w3.org/1999/xlink">
<g id="graph1" class="graph" transform="scale(1 1) rotate(0) translate(4 192)">
<title>SpeciesThermoMgr.h</title>
<polygon fill="white" stroke="white" points="-4,5 -4,-192 1144,-192 1144,5 -4,5"/>
<!-- Node1 -->
<g id="node1" class="node"><title>Node1</title>
<polygon fill="#bfbfbf" stroke="black" points="218,-168.5 218,-187.5 332,-187.5 332,-168.5 218,-168.5"/>
<text text-anchor="middle" x="275" y="-175.5" font-family="FreeSans" font-size="10.00">SpeciesThermoMgr.h</text>
</g>
<!-- Node2 -->
<g id="node3" class="node"><title>Node2</title>
<a xlink:href="NasaThermo_8h.html" target="_top" xlink:title="Header for the 2 regime 7 coefficient Nasa thermodynamic polynomials for multiple species in a phase...">
<polygon fill="white" stroke="black" points="78,-56.5 78,-75.5 162,-75.5 162,-56.5 78,-56.5"/>
<text text-anchor="middle" x="120" y="-63.5" font-family="FreeSans" font-size="10.00">NasaThermo.h</text>
</a>
</g>
<!-- Node1&#45;&gt;Node2 -->
<g id="edge2" class="edge"><title>Node1&#45;&gt;Node2</title>
<path fill="none" stroke="midnightblue" d="M254.451,-162.417C221.668,-139.151 158.539,-94.3501 132.106,-75.5914"/>
<polygon fill="midnightblue" stroke="midnightblue" points="252.657,-165.435 262.837,-168.368 256.708,-159.727 252.657,-165.435"/>
</g>
<!-- Node3 -->
<g id="node5" class="node"><title>Node3</title>
<a xlink:href="SpeciesThermoFactory_8cpp.html" target="_top" xlink:title="Definitions for factory to build instances of classes that manage the standard&#45;state thermodynamic pr...">
<polygon fill="white" stroke="black" points="-0.5,-0.5 -0.5,-19.5 140.5,-19.5 140.5,-0.5 -0.5,-0.5"/>
<text text-anchor="middle" x="70" y="-7.5" font-family="FreeSans" font-size="10.00">SpeciesThermoFactory.cpp</text>
</a>
</g>
<!-- Node1&#45;&gt;Node3 -->
<g id="edge10" class="edge"><title>Node1&#45;&gt;Node3</title>
<path fill="none" stroke="midnightblue" d="M207.743,-173.488C145.698,-168.674 60.0936,-157.496 39,-132 10.8001,-97.915 47.2291,-41.3168 63.1919,-19.7301"/>
<polygon fill="midnightblue" stroke="midnightblue" points="207.641,-176.99 217.871,-174.234 208.155,-170.009 207.641,-176.99"/>
</g>
<!-- Node4 -->
<g id="node7" class="node"><title>Node4</title>
<a xlink:href="ShomateThermo_8h.html" target="_top" xlink:title="Header for the 2 regions Shomate polynomial for multiple species in a phase, derived from the Species...">
<polygon fill="white" stroke="black" points="48.5,-112.5 48.5,-131.5 149.5,-131.5 149.5,-112.5 48.5,-112.5"/>
<text text-anchor="middle" x="99" y="-119.5" font-family="FreeSans" font-size="10.00">ShomateThermo.h</text>
</a>
</g>
<!-- Node1&#45;&gt;Node4 -->
<g id="edge6" class="edge"><title>Node1&#45;&gt;Node4</title>
<path fill="none" stroke="midnightblue" d="M237.311,-165.436C204.128,-155.255 156.572,-140.664 126.757,-131.516"/>
<polygon fill="midnightblue" stroke="midnightblue" points="236.525,-168.856 247.112,-168.444 238.579,-162.164 236.525,-168.856"/>
</g>
<!-- Node5 -->
<g id="node11" class="node"><title>Node5</title>
<a xlink:href="VPSSMgrFactory_8cpp.html" target="_top" xlink:title="Definitions for factory to build instances of classes that manage the calculation of standard state p...">
<polygon fill="white" stroke="black" points="1026.5,-0.5 1026.5,-19.5 1139.5,-19.5 1139.5,-0.5 1026.5,-0.5"/>
<text text-anchor="middle" x="1083" y="-7.5" font-family="FreeSans" font-size="10.00">VPSSMgrFactory.cpp</text>
</a>
</g>
<!-- Node1&#45;&gt;Node5 -->
<g id="edge12" class="edge"><title>Node1&#45;&gt;Node5</title>
<path fill="none" stroke="midnightblue" d="M328.591,-166.527C374.608,-157.498 442.703,-144.052 502,-132 705.198,-90.701 947.976,-39.5564 1042.53,-19.5691"/>
<polygon fill="midnightblue" stroke="midnightblue" points="327.682,-163.139 318.542,-168.497 329.029,-170.008 327.682,-163.139"/>
</g>
<!-- Node6 -->
<g id="node13" class="node"><title>Node6</title>
<a xlink:href="GeneralSpeciesThermo_8h.html" target="_top" xlink:title="Headers for a completely general species thermodynamic property manager for a phase (see Managers for...">
<polygon fill="white" stroke="black" points="498,-56.5 498,-75.5 632,-75.5 632,-56.5 498,-56.5"/>
<text text-anchor="middle" x="565" y="-63.5" font-family="FreeSans" font-size="10.00">GeneralSpeciesThermo.h</text>
</a>
</g>
<!-- Node1&#45;&gt;Node6 -->
<g id="edge14" class="edge"><title>Node1&#45;&gt;Node6</title>
<path fill="none" stroke="midnightblue" d="M342.32,-167.836C380.831,-161.046 429.403,-149.81 470,-132 504.039,-117.067 538.765,-89.5204 555.211,-75.5724"/>
<polygon fill="midnightblue" stroke="midnightblue" points="341.52,-164.422 332.25,-169.551 342.695,-171.322 341.52,-164.422"/>
</g>
<!-- Node13 -->
<g id="node29" class="node"><title>Node13</title>
<a xlink:href="StatMech_8h.html" target="_top" xlink:title="Header for a single&#45;species standard state object derived from.">
<polygon fill="white" stroke="black" points="395,-112.5 395,-131.5 461,-131.5 461,-112.5 395,-112.5"/>
<text text-anchor="middle" x="428" y="-119.5" font-family="FreeSans" font-size="10.00">StatMech.h</text>
</a>
</g>
<!-- Node1&#45;&gt;Node13 -->
<g id="edge32" class="edge"><title>Node1&#45;&gt;Node13</title>
<path fill="none" stroke="midnightblue" d="M308.889,-165.039C337.677,-154.879 378.287,-140.546 403.87,-131.516"/>
<polygon fill="midnightblue" stroke="midnightblue" points="307.508,-161.815 299.243,-168.444 309.838,-168.416 307.508,-161.815"/>
</g>
<!-- Node15 -->
<g id="node35" class="node"><title>Node15</title>
<a xlink:href="SimpleThermo_8h.html" target="_top" xlink:title="Header for the SimpleThermo (constant heat capacity) species reference&#45;state model for multiple speci...">
<polygon fill="white" stroke="black" points="229.5,-112.5 229.5,-131.5 320.5,-131.5 320.5,-112.5 229.5,-112.5"/>
<text text-anchor="middle" x="275" y="-119.5" font-family="FreeSans" font-size="10.00">SimpleThermo.h</text>
</a>
</g>
<!-- Node1&#45;&gt;Node15 -->
<g id="edge40" class="edge"><title>Node1&#45;&gt;Node15</title>
<path fill="none" stroke="midnightblue" d="M275,-157.805C275,-148.91 275,-138.78 275,-131.751"/>
<polygon fill="midnightblue" stroke="midnightblue" points="271.5,-158.083 275,-168.083 278.5,-158.083 271.5,-158.083"/>
</g>
<!-- Node2&#45;&gt;Node3 -->
<g id="edge4" class="edge"><title>Node2&#45;&gt;Node3</title>
<path fill="none" stroke="midnightblue" d="M104.924,-48.7175C96.1109,-39.1997 85.3341,-27.5608 78.1028,-19.7511"/>
<polygon fill="midnightblue" stroke="midnightblue" points="102.381,-51.1233 111.744,-56.083 107.518,-46.3674 102.381,-51.1233"/>
</g>
<!-- Node4&#45;&gt;Node3 -->
<g id="edge8" class="edge"><title>Node4&#45;&gt;Node3</title>
<path fill="none" stroke="midnightblue" d="M84.5011,-104.398C78.4523,-96.388 72.1171,-86.2952 69,-76 63.1131,-56.5568 65.999,-32.3206 68.2314,-19.644"/>
<polygon fill="midnightblue" stroke="midnightblue" points="81.7813,-106.601 90.7864,-112.182 87.2277,-102.203 81.7813,-106.601"/>
</g>
<!-- Node6&#45;&gt;Node3 -->
<g id="edge20" class="edge"><title>Node6&#45;&gt;Node3</title>
<path fill="none" stroke="midnightblue" d="M487.829,-56.4189C486.543,-56.2781 485.266,-56.1383 484,-56 335.14,-39.7316 297.837,-36.4751 149,-20 146.256,-19.6963 143.459,-19.385 140.633,-19.0694"/>
<polygon fill="midnightblue" stroke="midnightblue" points="487.496,-59.9034 497.818,-57.5165 488.261,-52.9453 487.496,-59.9034"/>
</g>
<!-- Node6&#45;&gt;Node5 -->
<g id="edge30" class="edge"><title>Node6&#45;&gt;Node5</title>
<path fill="none" stroke="midnightblue" d="M642.217,-58.1721C732.278,-50.0092 885.596,-35.4953 1017,-20 1020.1,-19.6343 1023.28,-19.2457 1026.49,-18.843"/>
<polygon fill="midnightblue" stroke="midnightblue" points="641.736,-54.7012 632.091,-59.0872 642.366,-61.6728 641.736,-54.7012"/>
</g>
<!-- Node7 -->
<g id="node15" class="node"><title>Node7</title>
<a xlink:href="GeneralSpeciesThermo_8cpp.html" target="_top" xlink:title="Declarations for a completely general species thermodynamic property manager for a phase (see Species...">
<polygon fill="white" stroke="black" points="634,-0.5 634,-19.5 778,-19.5 778,-0.5 634,-0.5"/>
<text text-anchor="middle" x="706" y="-7.5" font-family="FreeSans" font-size="10.00">GeneralSpeciesThermo.cpp</text>
</a>
</g>
<!-- Node6&#45;&gt;Node7 -->
<g id="edge16" class="edge"><title>Node6&#45;&gt;Node7</title>
<path fill="none" stroke="midnightblue" d="M596.929,-52.772C623.414,-42.6287 660.392,-28.4669 683.763,-19.5164"/>
<polygon fill="midnightblue" stroke="midnightblue" points="595.429,-49.5985 587.342,-56.4435 597.932,-56.1355 595.429,-49.5985"/>
</g>
<!-- Node8 -->
<g id="node17" class="node"><title>Node8</title>
<a xlink:href="LatticeSolidPhase_8cpp_source.html" target="_top" xlink:title="LatticeSolidPhase.cpp">
<polygon fill="white" stroke="black" points="796,-0.5 796,-19.5 912,-19.5 912,-0.5 796,-0.5"/>
<text text-anchor="middle" x="854" y="-7.5" font-family="FreeSans" font-size="10.00">LatticeSolidPhase.cpp</text>
</a>
</g>
<!-- Node6&#45;&gt;Node8 -->
<g id="edge18" class="edge"><title>Node6&#45;&gt;Node8</title>
<path fill="none" stroke="midnightblue" d="M620.655,-54.6007C675.273,-44.3953 757.566,-29.0189 808.421,-19.5164"/>
<polygon fill="midnightblue" stroke="midnightblue" points="619.98,-51.1663 610.793,-56.4435 621.266,-58.0472 619.98,-51.1663"/>
</g>
<!-- Node9 -->
<g id="node20" class="node"><title>Node9</title>
<a xlink:href="VPSSMgr_8cpp.html" target="_top" xlink:title="Definition file for a virtual base class that manages the calculation of standard state properties fo...">
<polygon fill="white" stroke="black" points="929.5,-0.5 929.5,-19.5 1008.5,-19.5 1008.5,-0.5 929.5,-0.5"/>
<text text-anchor="middle" x="969" y="-7.5" font-family="FreeSans" font-size="10.00">VPSSMgr.cpp</text>
</a>
</g>
<!-- Node6&#45;&gt;Node9 -->
<g id="edge22" class="edge"><title>Node6&#45;&gt;Node9</title>
<path fill="none" stroke="midnightblue" d="M642.567,-56.4245C714.603,-48.1627 824.769,-34.7697 920,-20 923.077,-19.5228 926.257,-19.0018 929.452,-18.4588"/>
<polygon fill="midnightblue" stroke="midnightblue" points="641.761,-52.9938 632.222,-57.6057 642.555,-59.9486 641.761,-52.9938"/>
</g>
<!-- Node10 -->
<g id="node22" class="node"><title>Node10</title>
<a xlink:href="VPSSMgr__General_8cpp.html" target="_top" xlink:title="Definition file for a derived class that handles the calculation of standard state thermo properties ...">
<polygon fill="white" stroke="black" points="158.5,-0.5 158.5,-19.5 279.5,-19.5 279.5,-0.5 158.5,-0.5"/>
<text text-anchor="middle" x="219" y="-7.5" font-family="FreeSans" font-size="10.00">VPSSMgr_General.cpp</text>
</a>
</g>
<!-- Node6&#45;&gt;Node10 -->
<g id="edge24" class="edge"><title>Node6&#45;&gt;Node10</title>
<path fill="none" stroke="midnightblue" d="M499.989,-54.8537C434.615,-44.6509 334.96,-29.0977 273.568,-19.5164"/>
<polygon fill="midnightblue" stroke="midnightblue" points="499.755,-58.3596 510.175,-56.4435 500.835,-51.4433 499.755,-58.3596"/>
</g>
<!-- Node11 -->
<g id="node24" class="node"><title>Node11</title>
<a xlink:href="VPSSMgr__Water__ConstVol_8cpp.html" target="_top" xlink:title="Definition file for a derived class that handles the calculation of standard state thermo properties ...">
<polygon fill="white" stroke="black" points="298,-0.5 298,-19.5 454,-19.5 454,-0.5 298,-0.5"/>
<text text-anchor="middle" x="376" y="-7.5" font-family="FreeSans" font-size="10.00">VPSSMgr_Water_ConstVol.cpp</text>
</a>
</g>
<!-- Node6&#45;&gt;Node11 -->
<g id="edge26" class="edge"><title>Node6&#45;&gt;Node11</title>
<path fill="none" stroke="midnightblue" d="M524.987,-53.5677C489.333,-43.381 437.962,-28.7034 405.808,-19.5164"/>
<polygon fill="midnightblue" stroke="midnightblue" points="524.476,-57.0616 535.052,-56.4435 526.399,-50.3309 524.476,-57.0616"/>
</g>
<!-- Node12 -->
<g id="node26" class="node"><title>Node12</title>
<a xlink:href="VPSSMgr__Water__HKFT_8cpp.html" target="_top" xlink:title="Definition file for a derived class that handles the calculation of standard state thermo properties ...">
<polygon fill="white" stroke="black" points="472.5,-0.5 472.5,-19.5 615.5,-19.5 615.5,-0.5 472.5,-0.5"/>
<text text-anchor="middle" x="544" y="-7.5" font-family="FreeSans" font-size="10.00">VPSSMgr_Water_HKFT.cpp</text>
</a>
</g>
<!-- Node6&#45;&gt;Node12 -->
<g id="edge28" class="edge"><title>Node6&#45;&gt;Node12</title>
<path fill="none" stroke="midnightblue" d="M557.879,-46.6897C554.34,-37.589 550.228,-27.0141 547.403,-19.7511"/>
<polygon fill="midnightblue" stroke="midnightblue" points="554.646,-48.0315 561.532,-56.083 561.17,-45.4944 554.646,-48.0315"/>
</g>
<!-- Node13&#45;&gt;Node3 -->
<g id="edge34" class="edge"><title>Node13&#45;&gt;Node3</title>
<path fill="none" stroke="midnightblue" d="M441.823,-104.342C451.968,-90.0142 462.058,-69.5701 450,-56 448.723,-54.5626 250.309,-31.6415 140.737,-19.082"/>
<polygon fill="midnightblue" stroke="midnightblue" points="438.989,-102.286 435.697,-112.356 444.551,-106.537 438.989,-102.286"/>
</g>
<!-- Node13&#45;&gt;Node6 -->
<g id="edge38" class="edge"><title>Node13&#45;&gt;Node6</title>
<path fill="none" stroke="midnightblue" d="M459.023,-108.772C484.757,-98.6287 520.686,-84.4669 543.394,-75.5164"/>
<polygon fill="midnightblue" stroke="midnightblue" points="457.728,-105.52 449.708,-112.444 460.295,-112.033 457.728,-105.52"/>
</g>
<!-- Node14 -->
<g id="node32" class="node"><title>Node14</title>
<a xlink:href="StatMech_8cpp.html" target="_top" xlink:title="SpeciesThermoInterpType">
<polygon fill="white" stroke="black" points="364.5,-56.5 364.5,-75.5 441.5,-75.5 441.5,-56.5 364.5,-56.5"/>
<text text-anchor="middle" x="403" y="-63.5" font-family="FreeSans" font-size="10.00">StatMech.cpp</text>
</a>
</g>
<!-- Node13&#45;&gt;Node14 -->
<g id="edge36" class="edge"><title>Node13&#45;&gt;Node14</title>
<path fill="none" stroke="midnightblue" d="M419.659,-102.983C415.415,-93.8168 410.45,-83.0922 407.051,-75.7511"/>
<polygon fill="midnightblue" stroke="midnightblue" points="416.494,-104.479 423.872,-112.083 422.847,-101.538 416.494,-104.479"/>
</g>
<!-- Node15&#45;&gt;Node3 -->
<g id="edge44" class="edge"><title>Node15&#45;&gt;Node3</title>
<path fill="none" stroke="midnightblue" d="M295.96,-105.868C312.333,-92.2175 330.266,-71.9014 317,-56 305.674,-42.4239 209.487,-27.9806 140.557,-19.2227"/>
<polygon fill="midnightblue" stroke="midnightblue" points="293.419,-103.413 287.714,-112.34 297.741,-108.919 293.419,-103.413"/>
</g>
<!-- Node16 -->
<g id="node37" class="node"><title>Node16</title>
<a xlink:href="FixedChemPotSSTP_8cpp.html" target="_top" xlink:title="Definition file for the FixedChemPotSSTP class, which represents a fixed&#45;composition incompressible s...">
<polygon fill="white" stroke="black" points="180,-56.5 180,-75.5 308,-75.5 308,-56.5 180,-56.5"/>
<text text-anchor="middle" x="244" y="-63.5" font-family="FreeSans" font-size="10.00">FixedChemPotSSTP.cpp</text>
</a>
</g>
<!-- Node15&#45;&gt;Node16 -->
<g id="edge42" class="edge"><title>Node15&#45;&gt;Node16</title>
<path fill="none" stroke="midnightblue" d="M264.824,-103.275C259.526,-94.0454 253.283,-83.1703 249.024,-75.7511"/>
<polygon fill="midnightblue" stroke="midnightblue" points="261.867,-105.153 269.881,-112.083 267.938,-101.668 261.867,-105.153"/>
</g>
</g>
</svg>
