<?xml version="1.0" encoding="UTF-8" standalone="no"?>
<!DOCTYPE svg PUBLIC "-//W3C//DTD SVG 1.1//EN"
 "http://www.w3.org/Graphics/SVG/1.1/DTD/svg11.dtd">
<!-- Generated by graphviz version 2.38.0 (20140413.2041)
 -->
<!-- Title: SquareMatrix.cpp Pages: 1 -->
<svg width="601pt" height="476pt"
 viewBox="0.00 0.00 600.50 476.00" xmlns="http://www.w3.org/2000/svg" xmlns:xlink="http://www.w3.org/1999/xlink">
<g id="graph0" class="graph" transform="scale(1 1) rotate(0) translate(4 472)">
<title>SquareMatrix.cpp</title>
<polygon fill="white" stroke="none" points="-4,4 -4,-472 596.5,-472 596.5,4 -4,4"/>
<!-- Node1 -->
<g id="node1" class="node"><title>Node1</title>
<polygon fill="#bfbfbf" stroke="black" points="205,-448.5 205,-467.5 298,-467.5 298,-448.5 205,-448.5"/>
<text text-anchor="middle" x="251.5" y="-455.5" font-family="Helvetica,sans-Serif" font-size="10.00">SquareMatrix.cpp</text>
</g>
<!-- Node2 -->
<g id="node2" class="node"><title>Node2</title>
<g id="a_node2"><a xlink:href="stringUtils_8h.html" target="_top" xlink:title="Contains declarations for string manipulation functions within Cantera. ">
<polygon fill="white" stroke="black" points="84.5,-168.5 84.5,-187.5 212.5,-187.5 212.5,-168.5 84.5,-168.5"/>
<text text-anchor="middle" x="148.5" y="-175.5" font-family="Helvetica,sans-Serif" font-size="10.00">cantera/base/stringUtils.h</text>
</a>
</g>
</g>
<!-- Node1&#45;&gt;Node2 -->
<g id="edge1" class="edge"><title>Node1&#45;&gt;Node2</title>
<path fill="none" stroke="midnightblue" d="M236.879,-448.482C211.156,-432.272 160.5,-394.339 160.5,-347 160.5,-347 160.5,-347 160.5,-289 160.5,-256.758 155.342,-219.512 151.789,-197.681"/>
<polygon fill="midnightblue" stroke="midnightblue" points="155.19,-196.798 150.069,-187.523 148.288,-197.967 155.19,-196.798"/>
</g>
<!-- Node16 -->
<g id="node16" class="node"><title>Node16</title>
<g id="a_node16"><a xlink:href="SquareMatrix_8h.html" target="_top" xlink:title="Dense, Square (not sparse) matrices. ">
<polygon fill="white" stroke="black" points="251,-392.5 251,-411.5 412,-411.5 412,-392.5 251,-392.5"/>
<text text-anchor="middle" x="331.5" y="-399.5" font-family="Helvetica,sans-Serif" font-size="10.00">cantera/numerics/SquareMatrix.h</text>
</a>
</g>
</g>
<!-- Node1&#45;&gt;Node16 -->
<g id="edge17" class="edge"><title>Node1&#45;&gt;Node16</title>
<path fill="none" stroke="midnightblue" d="M264.353,-448.324C276.716,-439.979 295.63,-427.212 310.237,-417.352"/>
<polygon fill="midnightblue" stroke="midnightblue" points="312.348,-420.15 318.679,-411.655 308.432,-414.348 312.348,-420.15"/>
</g>
<!-- Node3 -->
<g id="node3" class="node"><title>Node3</title>
<g id="a_node3"><a xlink:href="ct__defs_8h.html" target="_top" xlink:title="This file contains definitions of terms that are used in internal routines and are unlikely to need m...">
<polygon fill="white" stroke="black" points="250,-56.5 250,-75.5 307,-75.5 307,-56.5 250,-56.5"/>
<text text-anchor="middle" x="278.5" y="-63.5" font-family="Helvetica,sans-Serif" font-size="10.00">ct_defs.h</text>
</a>
</g>
</g>
<!-- Node2&#45;&gt;Node3 -->
<g id="edge2" class="edge"><title>Node2&#45;&gt;Node3</title>
<path fill="none" stroke="midnightblue" d="M158.701,-168.368C180.724,-149.733 232.962,-105.532 260.615,-82.1338"/>
<polygon fill="midnightblue" stroke="midnightblue" points="262.973,-84.7227 268.347,-75.5914 258.452,-79.379 262.973,-84.7227"/>
</g>
<!-- Node9 -->
<g id="node9" class="node"><title>Node9</title>
<polygon fill="white" stroke="#bfbfbf" points="0,-0.5 0,-19.5 41,-19.5 41,-0.5 0,-0.5"/>
<text text-anchor="middle" x="20.5" y="-7.5" font-family="Helvetica,sans-Serif" font-size="10.00">string</text>
</g>
<!-- Node2&#45;&gt;Node9 -->
<g id="edge16" class="edge"><title>Node2&#45;&gt;Node9</title>
<path fill="none" stroke="midnightblue" d="M96.6392,-168.493C74.4417,-162.157 50.2778,-151.137 35.5,-132 12.5092,-102.228 14.2089,-55.485 17.3993,-29.6776"/>
<polygon fill="midnightblue" stroke="midnightblue" points="20.8721,-30.1164 18.8384,-19.7186 13.9441,-29.1153 20.8721,-30.1164"/>
</g>
<!-- Node12 -->
<g id="node12" class="node"><title>Node12</title>
<g id="a_node12"><a xlink:href="fmt_8h.html" target="_top" xlink:title="Wrapper for either system&#45;installed or local headers for fmt. ">
<polygon fill="white" stroke="black" points="400.5,-112.5 400.5,-131.5 498.5,-131.5 498.5,-112.5 400.5,-112.5"/>
<text text-anchor="middle" x="449.5" y="-119.5" font-family="Helvetica,sans-Serif" font-size="10.00">cantera/base/fmt.h</text>
</a>
</g>
</g>
<!-- Node2&#45;&gt;Node12 -->
<g id="edge11" class="edge"><title>Node2&#45;&gt;Node12</title>
<path fill="none" stroke="midnightblue" d="M196.194,-168.444C249.364,-158.905 335.324,-143.483 392.126,-133.293"/>
<polygon fill="midnightblue" stroke="midnightblue" points="392.804,-136.727 402.029,-131.516 391.568,-129.837 392.804,-136.727"/>
</g>
<!-- Node15 -->
<g id="node15" class="node"><title>Node15</title>
<polygon fill="white" stroke="#bfbfbf" points="45,-112.5 45,-131.5 174,-131.5 174,-112.5 45,-112.5"/>
<text text-anchor="middle" x="109.5" y="-119.5" font-family="Helvetica,sans-Serif" font-size="10.00">boost/algorithm/string.hpp</text>
</g>
<!-- Node2&#45;&gt;Node15 -->
<g id="edge15" class="edge"><title>Node2&#45;&gt;Node15</title>
<path fill="none" stroke="midnightblue" d="M142.06,-168.083C136.551,-160.455 128.469,-149.264 121.735,-139.941"/>
<polygon fill="midnightblue" stroke="midnightblue" points="124.513,-137.809 115.82,-131.751 118.838,-141.907 124.513,-137.809"/>
</g>
<!-- Node4 -->
<g id="node4" class="node"><title>Node4</title>
<g id="a_node4"><a xlink:href="config_8h_source.html" target="_top" xlink:title="config.h">
<polygon fill="white" stroke="black" points="323,-0.5 323,-19.5 374,-19.5 374,-0.5 323,-0.5"/>
<text text-anchor="middle" x="348.5" y="-7.5" font-family="Helvetica,sans-Serif" font-size="10.00">config.h</text>
</a>
</g>
</g>
<!-- Node3&#45;&gt;Node4 -->
<g id="edge3" class="edge"><title>Node3&#45;&gt;Node4</title>
<path fill="none" stroke="midnightblue" d="M289.747,-56.324C300.297,-48.1849 316.301,-35.8395 328.942,-26.0874"/>
<polygon fill="midnightblue" stroke="midnightblue" points="331.269,-28.7132 337.049,-19.8339 326.993,-23.1707 331.269,-28.7132"/>
</g>
<!-- Node5 -->
<g id="node5" class="node"><title>Node5</title>
<polygon fill="white" stroke="#bfbfbf" points="392.5,-0.5 392.5,-19.5 436.5,-19.5 436.5,-0.5 392.5,-0.5"/>
<text text-anchor="middle" x="414.5" y="-7.5" font-family="Helvetica,sans-Serif" font-size="10.00">cmath</text>
</g>
<!-- Node3&#45;&gt;Node5 -->
<g id="edge4" class="edge"><title>Node3&#45;&gt;Node5</title>
<path fill="none" stroke="midnightblue" d="M300.05,-56.4435C322.531,-47.5171 357.988,-33.4387 383.48,-23.3168"/>
<polygon fill="midnightblue" stroke="midnightblue" points="385.049,-26.4598 393.051,-19.5164 382.465,-19.9539 385.049,-26.4598"/>
</g>
<!-- Node6 -->
<g id="node6" class="node"><title>Node6</title>
<polygon fill="white" stroke="#bfbfbf" points="455,-0.5 455,-19.5 500,-19.5 500,-0.5 455,-0.5"/>
<text text-anchor="middle" x="477.5" y="-7.5" font-family="Helvetica,sans-Serif" font-size="10.00">cstdlib</text>
</g>
<!-- Node3&#45;&gt;Node6 -->
<g id="edge5" class="edge"><title>Node3&#45;&gt;Node6</title>
<path fill="none" stroke="midnightblue" d="M307.19,-57.3715C338.594,-48.9989 390.68,-35.0473 444.982,-20.1205"/>
<polygon fill="midnightblue" stroke="midnightblue" points="446.071,-23.4511 454.783,-17.4223 444.213,-16.7022 446.071,-23.4511"/>
</g>
<!-- Node7 -->
<g id="node7" class="node"><title>Node7</title>
<polygon fill="white" stroke="#bfbfbf" points="62.5,-0.5 62.5,-19.5 106.5,-19.5 106.5,-0.5 62.5,-0.5"/>
<text text-anchor="middle" x="84.5" y="-7.5" font-family="Helvetica,sans-Serif" font-size="10.00">vector</text>
</g>
<!-- Node3&#45;&gt;Node7 -->
<g id="edge6" class="edge"><title>Node3&#45;&gt;Node7</title>
<path fill="none" stroke="midnightblue" d="M249.907,-57.2288C219.243,-48.8681 168.876,-35.0584 116.337,-20.2108"/>
<polygon fill="midnightblue" stroke="midnightblue" points="117.08,-16.7839 106.505,-17.4274 115.174,-23.5192 117.08,-16.7839"/>
</g>
<!-- Node8 -->
<g id="node8" class="node"><title>Node8</title>
<polygon fill="white" stroke="#bfbfbf" points="125,-0.5 125,-19.5 160,-19.5 160,-0.5 125,-0.5"/>
<text text-anchor="middle" x="142.5" y="-7.5" font-family="Helvetica,sans-Serif" font-size="10.00">map</text>
</g>
<!-- Node3&#45;&gt;Node8 -->
<g id="edge7" class="edge"><title>Node3&#45;&gt;Node8</title>
<path fill="none" stroke="midnightblue" d="M256.95,-56.4435C233.279,-47.0445 195.222,-31.9336 169.559,-21.7438"/>
<polygon fill="midnightblue" stroke="midnightblue" points="170.642,-18.4084 160.057,-17.971 168.059,-24.9143 170.642,-18.4084"/>
</g>
<!-- Node3&#45;&gt;Node9 -->
<g id="edge8" class="edge"><title>Node3&#45;&gt;Node9</title>
<path fill="none" stroke="midnightblue" d="M249.949,-59.9416C207.094,-52.2018 123.674,-36.5659 53.5,-20 52.615,-19.7911 51.7178,-19.575 50.8131,-19.3532"/>
<polygon fill="midnightblue" stroke="midnightblue" points="51.5971,-15.941 41.0402,-16.8368 49.8515,-22.7199 51.5971,-15.941"/>
</g>
<!-- Node10 -->
<g id="node10" class="node"><title>Node10</title>
<polygon fill="white" stroke="#bfbfbf" points="178.5,-0.5 178.5,-19.5 234.5,-19.5 234.5,-0.5 178.5,-0.5"/>
<text text-anchor="middle" x="206.5" y="-7.5" font-family="Helvetica,sans-Serif" font-size="10.00">algorithm</text>
</g>
<!-- Node3&#45;&gt;Node10 -->
<g id="edge9" class="edge"><title>Node3&#45;&gt;Node10</title>
<path fill="none" stroke="midnightblue" d="M266.932,-56.324C256.08,-48.1849 239.619,-35.8395 226.617,-26.0874"/>
<polygon fill="midnightblue" stroke="midnightblue" points="228.379,-23.0339 218.279,-19.8339 224.179,-28.6339 228.379,-23.0339"/>
</g>
<!-- Node11 -->
<g id="node11" class="node"><title>Node11</title>
<polygon fill="white" stroke="#bfbfbf" points="252.5,-0.5 252.5,-19.5 304.5,-19.5 304.5,-0.5 252.5,-0.5"/>
<text text-anchor="middle" x="278.5" y="-7.5" font-family="Helvetica,sans-Serif" font-size="10.00">memory</text>
</g>
<!-- Node3&#45;&gt;Node11 -->
<g id="edge10" class="edge"><title>Node3&#45;&gt;Node11</title>
<path fill="none" stroke="midnightblue" d="M278.5,-56.083C278.5,-49.0059 278.5,-38.8611 278.5,-29.9865"/>
<polygon fill="midnightblue" stroke="midnightblue" points="282,-29.751 278.5,-19.7511 275,-29.7511 282,-29.751"/>
</g>
<!-- Node12&#45;&gt;Node3 -->
<g id="edge12" class="edge"><title>Node12&#45;&gt;Node3</title>
<path fill="none" stroke="midnightblue" d="M422.405,-112.444C393.512,-103.32 347.575,-88.8133 315.395,-78.6509"/>
<polygon fill="midnightblue" stroke="midnightblue" points="316.059,-75.1903 305.469,-75.5164 313.951,-81.8654 316.059,-75.1903"/>
</g>
<!-- Node13 -->
<g id="node13" class="node"><title>Node13</title>
<polygon fill="white" stroke="#bfbfbf" points="423.5,-56.5 423.5,-75.5 493.5,-75.5 493.5,-56.5 423.5,-56.5"/>
<text text-anchor="middle" x="458.5" y="-63.5" font-family="Helvetica,sans-Serif" font-size="10.00">fmt/format.h</text>
</g>
<!-- Node12&#45;&gt;Node13 -->
<g id="edge13" class="edge"><title>Node12&#45;&gt;Node13</title>
<path fill="none" stroke="midnightblue" d="M450.986,-112.083C452.179,-104.927 453.894,-94.6353 455.385,-85.6911"/>
<polygon fill="midnightblue" stroke="midnightblue" points="458.85,-86.1904 457.041,-75.7511 451.945,-85.0396 458.85,-86.1904"/>
</g>
<!-- Node14 -->
<g id="node14" class="node"><title>Node14</title>
<polygon fill="white" stroke="#bfbfbf" points="328,-56.5 328,-75.5 405,-75.5 405,-56.5 328,-56.5"/>
<text text-anchor="middle" x="366.5" y="-63.5" font-family="Helvetica,sans-Serif" font-size="10.00">fmt/ostream.h</text>
</g>
<!-- Node12&#45;&gt;Node14 -->
<g id="edge14" class="edge"><title>Node12&#45;&gt;Node14</title>
<path fill="none" stroke="midnightblue" d="M436.165,-112.324C423.338,-103.979 403.715,-91.2122 388.56,-81.3524"/>
<polygon fill="midnightblue" stroke="midnightblue" points="390.093,-78.1742 379.802,-75.6545 386.276,-84.0417 390.093,-78.1742"/>
</g>
<!-- Node17 -->
<g id="node17" class="node"><title>Node17</title>
<g id="a_node17"><a xlink:href="DenseMatrix_8h.html" target="_top" xlink:title="Headers for the DenseMatrix object, which deals with dense rectangular matrices and description of th...">
<polygon fill="white" stroke="black" points="291.5,-336.5 291.5,-355.5 371.5,-355.5 371.5,-336.5 291.5,-336.5"/>
<text text-anchor="middle" x="331.5" y="-343.5" font-family="Helvetica,sans-Serif" font-size="10.00">DenseMatrix.h</text>
</a>
</g>
</g>
<!-- Node16&#45;&gt;Node17 -->
<g id="edge18" class="edge"><title>Node16&#45;&gt;Node17</title>
<path fill="none" stroke="midnightblue" d="M331.5,-392.083C331.5,-385.006 331.5,-374.861 331.5,-365.986"/>
<polygon fill="midnightblue" stroke="midnightblue" points="335,-365.751 331.5,-355.751 328,-365.751 335,-365.751"/>
</g>
<!-- Node25 -->
<g id="node25" class="node"><title>Node25</title>
<g id="a_node25"><a xlink:href="GeneralMatrix_8h.html" target="_top" xlink:title="Declarations for the class GeneralMatrix which is a virtual base class for matrices handled by solver...">
<polygon fill="white" stroke="black" points="449.5,-224.5 449.5,-243.5 535.5,-243.5 535.5,-224.5 449.5,-224.5"/>
<text text-anchor="middle" x="492.5" y="-231.5" font-family="Helvetica,sans-Serif" font-size="10.00">GeneralMatrix.h</text>
</a>
</g>
</g>
<!-- Node16&#45;&gt;Node25 -->
<g id="edge31" class="edge"><title>Node16&#45;&gt;Node25</title>
<path fill="none" stroke="midnightblue" d="M341.48,-392.264C351.54,-383.359 367.407,-369.042 380.5,-356 416.805,-319.837 457.102,-275.082 478.056,-251.435"/>
<polygon fill="midnightblue" stroke="midnightblue" points="480.861,-253.545 484.857,-243.733 475.614,-248.912 480.861,-253.545"/>
</g>
<!-- Node17&#45;&gt;Node3 -->
<g id="edge19" class="edge"><title>Node17&#45;&gt;Node3</title>
<path fill="none" stroke="midnightblue" d="M316.014,-336.365C291.226,-321.429 244.047,-288.09 230.5,-244 212.619,-185.803 248.231,-115.792 267.399,-84.0864"/>
<polygon fill="midnightblue" stroke="midnightblue" points="270.414,-85.8675 272.743,-75.5319 264.477,-82.159 270.414,-85.8675"/>
</g>
<!-- Node18 -->
<g id="node18" class="node"><title>Node18</title>
<g id="a_node18"><a xlink:href="ctexceptions_8h.html" target="_top" xlink:title="Definitions for the classes that are thrown when Cantera experiences an error condition (also contain...">
<polygon fill="white" stroke="black" points="452.5,-168.5 452.5,-187.5 592.5,-187.5 592.5,-168.5 452.5,-168.5"/>
<text text-anchor="middle" x="522.5" y="-175.5" font-family="Helvetica,sans-Serif" font-size="10.00">cantera/base/ctexceptions.h</text>
</a>
</g>
</g>
<!-- Node17&#45;&gt;Node18 -->
<g id="edge20" class="edge"><title>Node17&#45;&gt;Node18</title>
<path fill="none" stroke="midnightblue" d="M371.779,-338.989C422.199,-329.069 506.542,-304.009 544.5,-244 553.918,-229.111 545.115,-209.735 535.999,-196.023"/>
<polygon fill="midnightblue" stroke="midnightblue" points="538.564,-193.598 529.858,-187.56 532.898,-197.71 538.564,-193.598"/>
</g>
<!-- Node20 -->
<g id="node20" class="node"><title>Node20</title>
<g id="a_node20"><a xlink:href="Array_8h.html" target="_top" xlink:title="Header file for class Cantera::Array2D. ">
<polygon fill="white" stroke="black" points="278,-280.5 278,-299.5 385,-299.5 385,-280.5 278,-280.5"/>
<text text-anchor="middle" x="331.5" y="-287.5" font-family="Helvetica,sans-Serif" font-size="10.00">cantera/base/Array.h</text>
</a>
</g>
</g>
<!-- Node17&#45;&gt;Node20 -->
<g id="edge23" class="edge"><title>Node17&#45;&gt;Node20</title>
<path fill="none" stroke="midnightblue" d="M331.5,-336.083C331.5,-329.006 331.5,-318.861 331.5,-309.986"/>
<polygon fill="midnightblue" stroke="midnightblue" points="335,-309.751 331.5,-299.751 328,-309.751 335,-309.751"/>
</g>
<!-- Node18&#45;&gt;Node12 -->
<g id="edge21" class="edge"><title>Node18&#45;&gt;Node12</title>
<path fill="none" stroke="midnightblue" d="M510.771,-168.324C499.663,-160.107 482.758,-147.602 469.517,-137.807"/>
<polygon fill="midnightblue" stroke="midnightblue" points="471.563,-134.967 461.442,-131.834 467.4,-140.595 471.563,-134.967"/>
</g>
<!-- Node19 -->
<g id="node19" class="node"><title>Node19</title>
<polygon fill="white" stroke="#bfbfbf" points="517,-112.5 517,-131.5 576,-131.5 576,-112.5 517,-112.5"/>
<text text-anchor="middle" x="546.5" y="-119.5" font-family="Helvetica,sans-Serif" font-size="10.00">exception</text>
</g>
<!-- Node18&#45;&gt;Node19 -->
<g id="edge22" class="edge"><title>Node18&#45;&gt;Node19</title>
<path fill="none" stroke="midnightblue" d="M526.463,-168.083C529.713,-160.77 534.419,-150.181 538.454,-141.103"/>
<polygon fill="midnightblue" stroke="midnightblue" points="541.748,-142.311 542.611,-131.751 535.351,-139.468 541.748,-142.311"/>
</g>
<!-- Node21 -->
<g id="node21" class="node"><title>Node21</title>
<g id="a_node21"><a xlink:href="utilities_8h.html" target="_top" xlink:title="Various templated functions that carry out common vector operations (see Templated Utility Functions)...">
<polygon fill="white" stroke="red" points="303.5,-224.5 303.5,-243.5 359.5,-243.5 359.5,-224.5 303.5,-224.5"/>
<text text-anchor="middle" x="331.5" y="-231.5" font-family="Helvetica,sans-Serif" font-size="10.00">utilities.h</text>
</a>
</g>
</g>
<!-- Node20&#45;&gt;Node21 -->
<g id="edge24" class="edge"><title>Node20&#45;&gt;Node21</title>
<path fill="none" stroke="midnightblue" d="M331.5,-280.083C331.5,-273.006 331.5,-262.861 331.5,-253.986"/>
<polygon fill="midnightblue" stroke="midnightblue" points="335,-253.751 331.5,-243.751 328,-253.751 335,-253.751"/>
</g>
<!-- Node23 -->
<g id="node23" class="node"><title>Node23</title>
<polygon fill="white" stroke="#bfbfbf" points="377.5,-224.5 377.5,-243.5 431.5,-243.5 431.5,-224.5 377.5,-224.5"/>
<text text-anchor="middle" x="404.5" y="-231.5" font-family="Helvetica,sans-Serif" font-size="10.00">iostream</text>
</g>
<!-- Node20&#45;&gt;Node23 -->
<g id="edge29" class="edge"><title>Node20&#45;&gt;Node23</title>
<path fill="none" stroke="midnightblue" d="M343.229,-280.324C354.337,-272.107 371.242,-259.602 384.483,-249.807"/>
<polygon fill="midnightblue" stroke="midnightblue" points="386.6,-252.595 392.558,-243.834 382.437,-246.967 386.6,-252.595"/>
</g>
<!-- Node24 -->
<g id="node24" class="node"><title>Node24</title>
<polygon fill="white" stroke="#bfbfbf" points="239.5,-224.5 239.5,-243.5 285.5,-243.5 285.5,-224.5 239.5,-224.5"/>
<text text-anchor="middle" x="262.5" y="-231.5" font-family="Helvetica,sans-Serif" font-size="10.00">cstring</text>
</g>
<!-- Node20&#45;&gt;Node24 -->
<g id="edge30" class="edge"><title>Node20&#45;&gt;Node24</title>
<path fill="none" stroke="midnightblue" d="M320.414,-280.324C310.014,-272.185 294.239,-259.839 281.778,-250.087"/>
<polygon fill="midnightblue" stroke="midnightblue" points="283.82,-247.241 273.788,-243.834 279.506,-252.753 283.82,-247.241"/>
</g>
<!-- Node21&#45;&gt;Node3 -->
<g id="edge25" class="edge"><title>Node21&#45;&gt;Node3</title>
<path fill="none" stroke="midnightblue" d="M322.721,-224.202C314.788,-215.695 303.468,-202.061 297.5,-188 283.012,-153.866 279.446,-110.09 278.644,-85.6461"/>
<polygon fill="midnightblue" stroke="midnightblue" points="282.143,-85.5287 278.439,-75.6023 275.144,-85.6717 282.143,-85.5287"/>
</g>
<!-- Node22 -->
<g id="node22" class="node"><title>Node22</title>
<g id="a_node22"><a xlink:href="global_8h.html" target="_top" xlink:title="This file contains definitions for utility functions and text for modules, inputfiles, logs, textlogs, (see Input File Handling, Diagnostic Output, and Writing messages to the screen). ">
<polygon fill="white" stroke="black" points="306.5,-168.5 306.5,-187.5 356.5,-187.5 356.5,-168.5 306.5,-168.5"/>
<text text-anchor="middle" x="331.5" y="-175.5" font-family="Helvetica,sans-Serif" font-size="10.00">global.h</text>
</a>
</g>
</g>
<!-- Node21&#45;&gt;Node22 -->
<g id="edge26" class="edge"><title>Node21&#45;&gt;Node22</title>
<path fill="none" stroke="midnightblue" d="M331.5,-224.083C331.5,-217.006 331.5,-206.861 331.5,-197.986"/>
<polygon fill="midnightblue" stroke="midnightblue" points="335,-197.751 331.5,-187.751 328,-197.751 335,-197.751"/>
</g>
<!-- Node22&#45;&gt;Node3 -->
<g id="edge27" class="edge"><title>Node22&#45;&gt;Node3</title>
<path fill="none" stroke="midnightblue" d="M327.341,-168.368C318.672,-150.376 298.52,-108.55 286.993,-84.6267"/>
<polygon fill="midnightblue" stroke="midnightblue" points="290.133,-83.081 282.64,-75.5914 283.827,-86.1195 290.133,-83.081"/>
</g>
<!-- Node22&#45;&gt;Node12 -->
<g id="edge28" class="edge"><title>Node22&#45;&gt;Node12</title>
<path fill="none" stroke="midnightblue" d="M350.197,-168.444C369.444,-159.636 399.652,-145.812 421.7,-135.722"/>
<polygon fill="midnightblue" stroke="midnightblue" points="423.253,-138.86 430.89,-131.516 420.34,-132.495 423.253,-138.86"/>
</g>
<!-- Node25&#45;&gt;Node3 -->
<g id="edge32" class="edge"><title>Node25&#45;&gt;Node3</title>
<path fill="none" stroke="midnightblue" d="M481.296,-224.309C446.699,-197.472 341.274,-115.694 297.68,-81.8776"/>
<polygon fill="midnightblue" stroke="midnightblue" points="299.64,-78.9688 289.593,-75.6051 295.35,-84.4999 299.64,-78.9688"/>
</g>
<!-- Node25&#45;&gt;Node18 -->
<g id="edge33" class="edge"><title>Node25&#45;&gt;Node18</title>
<path fill="none" stroke="midnightblue" d="M497.454,-224.083C501.604,-216.613 507.653,-205.724 512.767,-196.52"/>
<polygon fill="midnightblue" stroke="midnightblue" points="515.841,-198.192 517.638,-187.751 509.722,-194.793 515.841,-198.192"/>
</g>
<!-- Node25&#45;&gt;Node22 -->
<g id="edge34" class="edge"><title>Node25&#45;&gt;Node22</title>
<path fill="none" stroke="midnightblue" d="M466.989,-224.444C439.824,-215.332 396.657,-200.854 366.364,-190.694"/>
<polygon fill="midnightblue" stroke="midnightblue" points="367.22,-187.289 356.627,-187.428 364.994,-193.926 367.22,-187.289"/>
</g>
</g>
</svg>
