<?xml version="1.0" encoding="UTF-8" standalone="no"?>
<!DOCTYPE svg PUBLIC "-//W3C//DTD SVG 1.1//EN"
 "http://www.w3.org/Graphics/SVG/1.1/DTD/svg11.dtd">
<!-- Generated by graphviz version 2.36.0 (20140111.2315)
 -->
<!-- Title: StatMech.h Pages: 1 -->
<svg width="767pt" height="308pt"
 viewBox="0.00 0.00 767.00 308.00" xmlns="http://www.w3.org/2000/svg" xmlns:xlink="http://www.w3.org/1999/xlink">
<g id="graph0" class="graph" transform="scale(1 1) rotate(0) translate(4 304)">
<title>StatMech.h</title>
<polygon fill="white" stroke="none" points="-4,4 -4,-304 763,-304 763,4 -4,4"/>
<!-- Node1 -->
<g id="node1" class="node"><title>Node1</title>
<polygon fill="#bfbfbf" stroke="black" points="496,-280.5 496,-299.5 562,-299.5 562,-280.5 496,-280.5"/>
<text text-anchor="middle" x="529" y="-287.5" font-family="FreeSans" font-size="10.00">StatMech.h</text>
</g>
<!-- Node2 -->
<g id="node2" class="node"><title>Node2</title>
<g id="a_node2"><a xlink:href="global_8h.html" target="_top" xlink:title="This file contains definitions for utility functions and text for modules, inputfiles, logs, textlogs, (see Input File Handling, Diagnostic Output, and Writing messages to the screen). ">
<polygon fill="white" stroke="black" points="479,-112.5 479,-131.5 587,-131.5 587,-112.5 479,-112.5"/>
<text text-anchor="middle" x="533" y="-119.5" font-family="FreeSans" font-size="10.00">cantera/base/global.h</text>
</a>
</g>
</g>
<!-- Node1&#45;&gt;Node2 -->
<g id="edge1" class="edge"><title>Node1&#45;&gt;Node2</title>
<path fill="none" stroke="midnightblue" d="M529.215,-280.075C529.845,-253.945 531.694,-177.211 532.552,-141.577"/>
<polygon fill="midnightblue" stroke="midnightblue" points="536.052,-141.65 532.794,-131.568 529.054,-141.481 536.052,-141.65"/>
</g>
<!-- Node11 -->
<g id="node11" class="node"><title>Node11</title>
<g id="a_node11"><a xlink:href="SpeciesThermoInterpType_8h.html" target="_top" xlink:title="Pure Virtual Base class for individual species reference state thermodynamic managers and text for th...">
<polygon fill="white" stroke="black" points="557.5,-224.5 557.5,-243.5 694.5,-243.5 694.5,-224.5 557.5,-224.5"/>
<text text-anchor="middle" x="626" y="-231.5" font-family="FreeSans" font-size="10.00">SpeciesThermoInterpType.h</text>
</a>
</g>
</g>
<!-- Node1&#45;&gt;Node11 -->
<g id="edge10" class="edge"><title>Node1&#45;&gt;Node11</title>
<path fill="none" stroke="midnightblue" d="M544.585,-280.324C559.999,-271.743 583.812,-258.486 601.71,-248.522"/>
<polygon fill="midnightblue" stroke="midnightblue" points="603.419,-251.577 610.454,-243.655 600.014,-245.461 603.419,-251.577"/>
</g>
<!-- Node13 -->
<g id="node13" class="node"><title>Node13</title>
<g id="a_node13"><a xlink:href="SpeciesThermoMgr_8h.html" target="_top" xlink:title="This file contains descriptions of templated subclasses of the virtual base class, SpeciesThermo, which includes SpeciesThermoDuo (see Managers for Calculating Reference&#45;State Thermodynamics and class SpeciesThermoDuo) ">
<polygon fill="white" stroke="black" points="276,-224.5 276,-243.5 384,-243.5 384,-224.5 276,-224.5"/>
<text text-anchor="middle" x="330" y="-231.5" font-family="FreeSans" font-size="10.00">SpeciesThermoMgr.h</text>
</a>
</g>
</g>
<!-- Node1&#45;&gt;Node13 -->
<g id="edge13" class="edge"><title>Node1&#45;&gt;Node13</title>
<path fill="none" stroke="midnightblue" d="M497.468,-280.444C463.408,-271.201 408.994,-256.436 371.485,-246.257"/>
<polygon fill="midnightblue" stroke="midnightblue" points="371.952,-242.758 361.385,-243.516 370.119,-249.513 371.952,-242.758"/>
</g>
<!-- Node3 -->
<g id="node3" class="node"><title>Node3</title>
<g id="a_node3"><a xlink:href="ct__defs_8h.html" target="_top" xlink:title="This file contains definitions of terms that are used in internal routines and are unlikely to need m...">
<polygon fill="white" stroke="black" points="382,-56.5 382,-75.5 438,-75.5 438,-56.5 382,-56.5"/>
<text text-anchor="middle" x="410" y="-63.5" font-family="FreeSans" font-size="10.00">ct_defs.h</text>
</a>
</g>
</g>
<!-- Node2&#45;&gt;Node3 -->
<g id="edge2" class="edge"><title>Node2&#45;&gt;Node3</title>
<path fill="none" stroke="midnightblue" d="M513.51,-112.444C493.358,-103.596 461.677,-89.6875 438.669,-79.5865"/>
<polygon fill="midnightblue" stroke="midnightblue" points="439.962,-76.3316 429.399,-75.5164 437.148,-82.7411 439.962,-76.3316"/>
</g>
<!-- Node4 -->
<g id="node4" class="node"><title>Node4</title>
<g id="a_node4"><a xlink:href="config_8h_source.html" target="_top" xlink:title="config.h">
<polygon fill="white" stroke="black" points="421,-0.5 421,-19.5 471,-19.5 471,-0.5 421,-0.5"/>
<text text-anchor="middle" x="446" y="-7.5" font-family="FreeSans" font-size="10.00">config.h</text>
</a>
</g>
</g>
<!-- Node3&#45;&gt;Node4 -->
<g id="edge3" class="edge"><title>Node3&#45;&gt;Node4</title>
<path fill="none" stroke="midnightblue" d="M415.945,-56.083C420.977,-48.5341 428.337,-37.4948 434.513,-28.2298"/>
<polygon fill="midnightblue" stroke="midnightblue" points="437.531,-30.0131 440.166,-19.7511 431.707,-26.1301 437.531,-30.0131"/>
</g>
<!-- Node5 -->
<g id="node5" class="node"><title>Node5</title>
<polygon fill="white" stroke="#bfbfbf" points="489,-0.5 489,-19.5 533,-19.5 533,-0.5 489,-0.5"/>
<text text-anchor="middle" x="511" y="-7.5" font-family="FreeSans" font-size="10.00">cmath</text>
</g>
<!-- Node3&#45;&gt;Node5 -->
<g id="edge4" class="edge"><title>Node3&#45;&gt;Node5</title>
<path fill="none" stroke="midnightblue" d="M426.227,-56.324C442.351,-47.7034 467.3,-34.3643 485.964,-24.3855"/>
<polygon fill="midnightblue" stroke="midnightblue" points="487.644,-27.456 494.813,-19.6545 484.344,-21.283 487.644,-27.456"/>
</g>
<!-- Node6 -->
<g id="node6" class="node"><title>Node6</title>
<polygon fill="white" stroke="#bfbfbf" points="551,-0.5 551,-19.5 595,-19.5 595,-0.5 551,-0.5"/>
<text text-anchor="middle" x="573" y="-7.5" font-family="FreeSans" font-size="10.00">cstdlib</text>
</g>
<!-- Node3&#45;&gt;Node6 -->
<g id="edge5" class="edge"><title>Node3&#45;&gt;Node6</title>
<path fill="none" stroke="midnightblue" d="M435.828,-56.4435C464.378,-46.985 510.389,-31.7421 541.152,-21.551"/>
<polygon fill="midnightblue" stroke="midnightblue" points="542.56,-24.7715 550.952,-18.3042 540.359,-18.1266 542.56,-24.7715"/>
</g>
<!-- Node7 -->
<g id="node7" class="node"><title>Node7</title>
<polygon fill="white" stroke="#bfbfbf" points="232.5,-0.5 232.5,-19.5 275.5,-19.5 275.5,-0.5 232.5,-0.5"/>
<text text-anchor="middle" x="254" y="-7.5" font-family="FreeSans" font-size="10.00">vector</text>
</g>
<!-- Node3&#45;&gt;Node7 -->
<g id="edge6" class="edge"><title>Node3&#45;&gt;Node7</title>
<path fill="none" stroke="midnightblue" d="M385.281,-56.4435C358.229,-47.0794 314.798,-32.0456 285.366,-21.8574"/>
<polygon fill="midnightblue" stroke="midnightblue" points="286.183,-18.4367 275.589,-18.473 283.894,-25.0516 286.183,-18.4367"/>
</g>
<!-- Node8 -->
<g id="node8" class="node"><title>Node8</title>
<polygon fill="white" stroke="#bfbfbf" points="293.5,-0.5 293.5,-19.5 328.5,-19.5 328.5,-0.5 293.5,-0.5"/>
<text text-anchor="middle" x="311" y="-7.5" font-family="FreeSans" font-size="10.00">map</text>
</g>
<!-- Node3&#45;&gt;Node8 -->
<g id="edge7" class="edge"><title>Node3&#45;&gt;Node8</title>
<path fill="none" stroke="midnightblue" d="M394.094,-56.324C378.362,-47.7428 354.058,-34.486 335.791,-24.5224"/>
<polygon fill="midnightblue" stroke="midnightblue" points="337.322,-21.3704 326.867,-19.6545 333.97,-27.5157 337.322,-21.3704"/>
</g>
<!-- Node9 -->
<g id="node9" class="node"><title>Node9</title>
<polygon fill="white" stroke="#bfbfbf" points="133,-0.5 133,-19.5 173,-19.5 173,-0.5 133,-0.5"/>
<text text-anchor="middle" x="153" y="-7.5" font-family="FreeSans" font-size="10.00">string</text>
</g>
<!-- Node3&#45;&gt;Node9 -->
<g id="edge8" class="edge"><title>Node3&#45;&gt;Node9</title>
<path fill="none" stroke="midnightblue" d="M381.515,-59.0147C332.588,-48.7345 233.037,-27.8171 183.053,-17.3145"/>
<polygon fill="midnightblue" stroke="midnightblue" points="183.681,-13.8702 173.175,-15.239 182.241,-20.7206 183.681,-13.8702"/>
</g>
<!-- Node10 -->
<g id="node10" class="node"><title>Node10</title>
<polygon fill="white" stroke="#bfbfbf" points="347,-0.5 347,-19.5 403,-19.5 403,-0.5 347,-0.5"/>
<text text-anchor="middle" x="375" y="-7.5" font-family="FreeSans" font-size="10.00">algorithm</text>
</g>
<!-- Node3&#45;&gt;Node10 -->
<g id="edge9" class="edge"><title>Node3&#45;&gt;Node10</title>
<path fill="none" stroke="midnightblue" d="M404.22,-56.083C399.328,-48.5341 392.173,-37.4948 386.167,-28.2298"/>
<polygon fill="midnightblue" stroke="midnightblue" points="389.048,-26.239 380.672,-19.7511 383.174,-30.0463 389.048,-26.239"/>
</g>
<!-- Node11&#45;&gt;Node3 -->
<g id="edge11" class="edge"><title>Node11&#45;&gt;Node3</title>
<path fill="none" stroke="midnightblue" d="M626.648,-224.231C627.773,-202.056 627.462,-143.284 596,-112 575.423,-91.5396 496.325,-78.0493 448.151,-71.5435"/>
<polygon fill="midnightblue" stroke="midnightblue" points="448.451,-68.0531 438.081,-70.2243 447.541,-74.9937 448.451,-68.0531"/>
</g>
<!-- Node12 -->
<g id="node12" class="node"><title>Node12</title>
<g id="a_node12"><a xlink:href="speciesThermoTypes_8h.html" target="_top" xlink:title="Contains const definitions for types of species reference&#45;state thermodynamics managers (see Species ...">
<polygon fill="white" stroke="black" points="643.5,-168.5 643.5,-187.5 758.5,-187.5 758.5,-168.5 643.5,-168.5"/>
<text text-anchor="middle" x="701" y="-175.5" font-family="FreeSans" font-size="10.00">speciesThermoTypes.h</text>
</a>
</g>
</g>
<!-- Node11&#45;&gt;Node12 -->
<g id="edge12" class="edge"><title>Node11&#45;&gt;Node12</title>
<path fill="none" stroke="midnightblue" d="M638.05,-224.324C649.463,-216.107 666.831,-203.602 680.435,-193.807"/>
<polygon fill="midnightblue" stroke="midnightblue" points="682.66,-196.517 688.731,-187.834 678.57,-190.837 682.66,-196.517"/>
</g>
<!-- Node14 -->
<g id="node14" class="node"><title>Node14</title>
<g id="a_node14"><a xlink:href="ctexceptions_8h.html" target="_top" xlink:title="Definitions for the classes that are thrown when Cantera experiences an error condition (also contain...">
<polygon fill="white" stroke="black" points="118.5,-168.5 118.5,-187.5 255.5,-187.5 255.5,-168.5 118.5,-168.5"/>
<text text-anchor="middle" x="187" y="-175.5" font-family="FreeSans" font-size="10.00">cantera/base/ctexceptions.h</text>
</a>
</g>
</g>
<!-- Node13&#45;&gt;Node14 -->
<g id="edge14" class="edge"><title>Node13&#45;&gt;Node14</title>
<path fill="none" stroke="midnightblue" d="M307.341,-224.444C283.598,-215.478 246.091,-201.314 219.262,-191.183"/>
<polygon fill="midnightblue" stroke="midnightblue" points="220.144,-187.775 209.553,-187.516 217.671,-194.324 220.144,-187.775"/>
</g>
<!-- Node16 -->
<g id="node16" class="node"><title>Node16</title>
<g id="a_node16"><a xlink:href="stringUtils_8h.html" target="_top" xlink:title="Contains declarations for string manipulation functions within Cantera. ">
<polygon fill="white" stroke="black" points="-0.5,-112.5 -0.5,-131.5 124.5,-131.5 124.5,-112.5 -0.5,-112.5"/>
<text text-anchor="middle" x="62" y="-119.5" font-family="FreeSans" font-size="10.00">cantera/base/stringUtils.h</text>
</a>
</g>
</g>
<!-- Node13&#45;&gt;Node16 -->
<g id="edge17" class="edge"><title>Node13&#45;&gt;Node16</title>
<path fill="none" stroke="midnightblue" d="M275.911,-232.777C228.452,-230.202 159.345,-220.47 109,-188 91.314,-176.594 78.1301,-156.002 70.2963,-141.045"/>
<polygon fill="midnightblue" stroke="midnightblue" points="73.2907,-139.203 65.738,-131.773 67.0087,-142.291 73.2907,-139.203"/>
</g>
<!-- Node17 -->
<g id="node17" class="node"><title>Node17</title>
<g id="a_node17"><a xlink:href="SpeciesThermo_8h.html" target="_top" xlink:title="Virtual base class for the calculation of multiple&#45;species thermodynamic reference&#45;state property man...">
<polygon fill="white" stroke="black" points="405,-168.5 405,-187.5 497,-187.5 497,-168.5 405,-168.5"/>
<text text-anchor="middle" x="451" y="-175.5" font-family="FreeSans" font-size="10.00">SpeciesThermo.h</text>
</a>
</g>
</g>
<!-- Node13&#45;&gt;Node17 -->
<g id="edge20" class="edge"><title>Node13&#45;&gt;Node17</title>
<path fill="none" stroke="midnightblue" d="M349.173,-224.444C368.909,-215.636 399.885,-201.812 422.493,-191.722"/>
<polygon fill="midnightblue" stroke="midnightblue" points="424.211,-194.788 431.917,-187.516 421.359,-188.396 424.211,-194.788"/>
</g>
<!-- Node18 -->
<g id="node18" class="node"><title>Node18</title>
<g id="a_node18"><a xlink:href="utilities_8h.html" target="_top" xlink:title="Various templated functions that carry out common vector operations (see Templated Utility Functions)...">
<polygon fill="white" stroke="black" points="273.5,-168.5 273.5,-187.5 386.5,-187.5 386.5,-168.5 273.5,-168.5"/>
<text text-anchor="middle" x="330" y="-175.5" font-family="FreeSans" font-size="10.00">cantera/base/utilities.h</text>
</a>
</g>
</g>
<!-- Node13&#45;&gt;Node18 -->
<g id="edge22" class="edge"><title>Node13&#45;&gt;Node18</title>
<path fill="none" stroke="midnightblue" d="M330,-224.083C330,-217.006 330,-206.861 330,-197.986"/>
<polygon fill="midnightblue" stroke="midnightblue" points="333.5,-197.751 330,-187.751 326.5,-197.751 333.5,-197.751"/>
</g>
<!-- Node14&#45;&gt;Node9 -->
<g id="edge16" class="edge"><title>Node14&#45;&gt;Node9</title>
<path fill="none" stroke="midnightblue" d="M183.694,-168.497C180.324,-159.54 175.155,-144.962 172,-132 163.314,-96.3111 157.699,-53.6951 154.966,-29.7485"/>
<polygon fill="midnightblue" stroke="midnightblue" points="158.423,-29.1642 153.854,-19.6048 151.464,-29.9265 158.423,-29.1642"/>
</g>
<!-- Node15 -->
<g id="node15" class="node"><title>Node15</title>
<polygon fill="white" stroke="#bfbfbf" points="181,-112.5 181,-131.5 239,-131.5 239,-112.5 181,-112.5"/>
<text text-anchor="middle" x="210" y="-119.5" font-family="FreeSans" font-size="10.00">exception</text>
</g>
<!-- Node14&#45;&gt;Node15 -->
<g id="edge15" class="edge"><title>Node14&#45;&gt;Node15</title>
<path fill="none" stroke="midnightblue" d="M190.798,-168.083C193.913,-160.77 198.423,-150.181 202.289,-141.103"/>
<polygon fill="midnightblue" stroke="midnightblue" points="205.574,-142.323 206.273,-131.751 199.134,-139.58 205.574,-142.323"/>
</g>
<!-- Node16&#45;&gt;Node3 -->
<g id="edge18" class="edge"><title>Node16&#45;&gt;Node3</title>
<path fill="none" stroke="midnightblue" d="M117.142,-112.444C188.161,-101.423 309.785,-82.5507 371.561,-72.9647"/>
<polygon fill="midnightblue" stroke="midnightblue" points="372.315,-76.3896 381.66,-71.3976 371.242,-69.4724 372.315,-76.3896"/>
</g>
<!-- Node16&#45;&gt;Node9 -->
<g id="edge19" class="edge"><title>Node16&#45;&gt;Node9</title>
<path fill="none" stroke="midnightblue" d="M69.1406,-112.368C84.2911,-94.0547 119.869,-51.0489 139.464,-27.3624"/>
<polygon fill="midnightblue" stroke="midnightblue" points="142.215,-29.5276 145.893,-19.5914 136.821,-25.0656 142.215,-29.5276"/>
</g>
<!-- Node17&#45;&gt;Node3 -->
<g id="edge21" class="edge"><title>Node17&#45;&gt;Node3</title>
<path fill="none" stroke="midnightblue" d="M448.778,-168.459C445.422,-155.911 438.637,-131.833 431,-112 427.515,-102.949 423.037,-93.1624 419.113,-85.035"/>
<polygon fill="midnightblue" stroke="midnightblue" points="422.121,-83.2225 414.553,-75.8076 415.845,-86.3234 422.121,-83.2225"/>
</g>
<!-- Node18&#45;&gt;Node2 -->
<g id="edge24" class="edge"><title>Node18&#45;&gt;Node2</title>
<path fill="none" stroke="midnightblue" d="M362.166,-168.444C397.059,-159.162 452.893,-144.309 491.171,-134.127"/>
<polygon fill="midnightblue" stroke="midnightblue" points="492.22,-137.47 500.985,-131.516 490.421,-130.705 492.22,-137.47"/>
</g>
<!-- Node18&#45;&gt;Node3 -->
<g id="edge23" class="edge"><title>Node18&#45;&gt;Node3</title>
<path fill="none" stroke="midnightblue" d="M316.653,-168.317C299.09,-155.795 272,-131.975 286,-112 305.199,-84.608 342.856,-73.8243 371.659,-69.614"/>
<polygon fill="midnightblue" stroke="midnightblue" points="372.331,-73.0572 381.819,-68.3417 371.462,-66.1114 372.331,-73.0572"/>
</g>
<!-- Node19 -->
<g id="node19" class="node"><title>Node19</title>
<polygon fill="white" stroke="#bfbfbf" points="295,-112.5 295,-131.5 353,-131.5 353,-112.5 295,-112.5"/>
<text text-anchor="middle" x="324" y="-119.5" font-family="FreeSans" font-size="10.00">stdexcept</text>
</g>
<!-- Node18&#45;&gt;Node19 -->
<g id="edge25" class="edge"><title>Node18&#45;&gt;Node19</title>
<path fill="none" stroke="midnightblue" d="M329.009,-168.083C328.214,-160.927 327.071,-150.635 326.077,-141.691"/>
<polygon fill="midnightblue" stroke="midnightblue" points="329.555,-141.303 324.972,-131.751 322.598,-142.076 329.555,-141.303"/>
</g>
<!-- Node20 -->
<g id="node20" class="node"><title>Node20</title>
<polygon fill="white" stroke="#bfbfbf" points="371.5,-112.5 371.5,-131.5 422.5,-131.5 422.5,-112.5 371.5,-112.5"/>
<text text-anchor="middle" x="397" y="-119.5" font-family="FreeSans" font-size="10.00">numeric</text>
</g>
<!-- Node18&#45;&gt;Node20 -->
<g id="edge26" class="edge"><title>Node18&#45;&gt;Node20</title>
<path fill="none" stroke="midnightblue" d="M340.765,-168.324C350.766,-160.263 365.887,-148.077 377.93,-138.369"/>
<polygon fill="midnightblue" stroke="midnightblue" points="380.45,-140.834 386.039,-131.834 376.057,-135.384 380.45,-140.834"/>
</g>
</g>
</svg>
