<?xml version="1.0" encoding="UTF-8" standalone="no"?>
<!DOCTYPE svg PUBLIC "-//W3C//DTD SVG 1.1//EN"
 "http://www.w3.org/Graphics/SVG/1.1/DTD/svg11.dtd">
<!-- Generated by graphviz version 2.40.1 (20161225.0304)
 -->
<!-- Title: StFlow.cpp Pages: 1 -->
<svg width="1113pt" height="477pt"
 viewBox="0.00 0.00 1112.63 477.00" xmlns="http://www.w3.org/2000/svg" xmlns:xlink="http://www.w3.org/1999/xlink">
<g id="graph0" class="graph" transform="scale(1 1) rotate(0) translate(4 473)">
<title>StFlow.cpp</title>
<polygon fill="#ffffff" stroke="transparent" points="-4,4 -4,-473 1108.6324,-473 1108.6324,4 -4,4"/>
<!-- Node0 -->
<g id="node1" class="node">
<title>Node0</title>
<polygon fill="#bfbfbf" stroke="#000000" points="892.315,-450.5 892.315,-468.5 957.231,-468.5 957.231,-450.5 892.315,-450.5"/>
<text text-anchor="middle" x="924.773" y="-456.5" font-family="Helvetica,sans-Serif" font-size="10.00" fill="#000000">StFlow.cpp</text>
</g>
<!-- Node1 -->
<g id="node2" class="node">
<title>Node1</title>
<g id="a_node2"><a xlink:href="StFlow_8h.html" target="_top" xlink:title="cantera/oneD/StFlow.h">
<polygon fill="#ffffff" stroke="#000000" points="517.1871,-395.5 517.1871,-413.5 634.359,-413.5 634.359,-395.5 517.1871,-395.5"/>
<text text-anchor="middle" x="575.773" y="-401.5" font-family="Helvetica,sans-Serif" font-size="10.00" fill="#000000">cantera/oneD/StFlow.h</text>
</a>
</g>
</g>
<!-- Node0&#45;&gt;Node1 -->
<g id="edge1" class="edge">
<title>Node0&#45;&gt;Node1</title>
<path fill="none" stroke="#191970" d="M892.2533,-454.3751C835.6878,-445.4608 718.0812,-426.9268 643.2507,-415.134"/>
<polygon fill="#191970" stroke="#191970" points="643.4095,-411.6159 632.9865,-413.5165 642.3198,-418.5306 643.4095,-411.6159"/>
</g>
<!-- Node47 -->
<g id="node27" class="node">
<title>Node47</title>
<g id="a_node27"><a xlink:href="ctml_8h.html" target="_top" xlink:title="CTML (&quot;Cantera Markup Language&quot;) is the variant of XML that Cantera uses to store data...">
<polygon fill="#ffffff" stroke="#000000" points="898.1402,-275.5 898.1402,-293.5 1001.4058,-293.5 1001.4058,-275.5 898.1402,-275.5"/>
<text text-anchor="middle" x="949.773" y="-281.5" font-family="Helvetica,sans-Serif" font-size="10.00" fill="#000000">cantera/base/ctml.h</text>
</a>
</g>
</g>
<!-- Node0&#45;&gt;Node47 -->
<g id="edge44" class="edge">
<title>Node0&#45;&gt;Node47</title>
<path fill="none" stroke="#191970" d="M926.1171,-450.0912C930.0694,-422.4255 941.709,-340.9483 947.0446,-303.5988"/>
<polygon fill="#191970" stroke="#191970" points="950.5332,-303.9271 948.4826,-293.5326 943.6035,-302.9371 950.5332,-303.9271"/>
</g>
<!-- Node49 -->
<g id="node29" class="node">
<title>Node49</title>
<g id="a_node29"><a xlink:href="TransportBase_8h.html" target="_top" xlink:title="Headers for the Transport object, which is the virtual base class for all transport property evaluato...">
<polygon fill="#ffffff" stroke="#000000" points="784.3726,-330.5 784.3726,-358.5 921.1734,-358.5 921.1734,-330.5 784.3726,-330.5"/>
<text text-anchor="start" x="792.3726" y="-346.5" font-family="Helvetica,sans-Serif" font-size="10.00" fill="#000000">cantera/transport/Transport</text>
<text text-anchor="middle" x="852.773" y="-336.5" font-family="Helvetica,sans-Serif" font-size="10.00" fill="#000000">Base.h</text>
</a>
</g>
</g>
<!-- Node0&#45;&gt;Node49 -->
<g id="edge49" class="edge">
<title>Node0&#45;&gt;Node49</title>
<path fill="none" stroke="#191970" d="M919.1233,-450.4761C908.0218,-432.7447 883.0586,-392.8728 867.1153,-367.4078"/>
<polygon fill="#191970" stroke="#191970" points="869.9651,-365.364 861.6919,-358.7455 864.032,-369.0787 869.9651,-365.364"/>
</g>
<!-- Node50 -->
<g id="node30" class="node">
<title>Node50</title>
<g id="a_node30"><a xlink:href="funcs_8h.html" target="_top" xlink:title="Header for a file containing miscellaneous numerical functions. ">
<polygon fill="#ffffff" stroke="#000000" points="976.9136,-395.5 976.9136,-413.5 1104.6324,-413.5 1104.6324,-395.5 976.9136,-395.5"/>
<text text-anchor="middle" x="1040.773" y="-401.5" font-family="Helvetica,sans-Serif" font-size="10.00" fill="#000000">cantera/numerics/funcs.h</text>
</a>
</g>
</g>
<!-- Node0&#45;&gt;Node50 -->
<g id="edge51" class="edge">
<title>Node0&#45;&gt;Node50</title>
<path fill="none" stroke="#191970" d="M943.9281,-450.4179C962.5665,-441.5807 991.1097,-428.0473 1012.3866,-417.9591"/>
<polygon fill="#191970" stroke="#191970" points="1014.0532,-421.0424 1021.5895,-413.5956 1011.0542,-414.7174 1014.0532,-421.0424"/>
</g>
<!-- Node2 -->
<g id="node3" class="node">
<title>Node2</title>
<g id="a_node3"><a xlink:href="Domain1D_8h.html" target="_top" xlink:title="Domain1D.h">
<polygon fill="#ffffff" stroke="#000000" points="597.9825,-220.5 597.9825,-238.5 669.5635,-238.5 669.5635,-220.5 597.9825,-220.5"/>
<text text-anchor="middle" x="633.773" y="-226.5" font-family="Helvetica,sans-Serif" font-size="10.00" fill="#000000">Domain1D.h</text>
</a>
</g>
</g>
<!-- Node1&#45;&gt;Node2 -->
<g id="edge2" class="edge">
<title>Node1&#45;&gt;Node2</title>
<path fill="none" stroke="#191970" d="M577.7606,-395.2233C580.8862,-381.0301 587.3635,-353.1359 594.773,-330 604.1117,-300.8406 617.4417,-267.9069 625.8479,-247.9313"/>
<polygon fill="#191970" stroke="#191970" points="629.1601,-249.086 629.8514,-238.5138 622.718,-246.3474 629.1601,-249.086"/>
</g>
<!-- Node20 -->
<g id="node12" class="node">
<title>Node20</title>
<g id="a_node12"><a xlink:href="Array_8h.html" target="_top" xlink:title="Header file for class Cantera::Array2D. ">
<polygon fill="#ffffff" stroke="#000000" points="16.7281,-275.5 16.7281,-293.5 124.8179,-293.5 124.8179,-275.5 16.7281,-275.5"/>
<text text-anchor="middle" x="70.773" y="-281.5" font-family="Helvetica,sans-Serif" font-size="10.00" fill="#000000">cantera/base/Array.h</text>
</a>
</g>
</g>
<!-- Node1&#45;&gt;Node20 -->
<g id="edge17" class="edge">
<title>Node1&#45;&gt;Node20</title>
<path fill="none" stroke="#191970" d="M537.8159,-395.4805C447.2246,-373.9539 218.5013,-319.6038 118.6467,-295.8759"/>
<polygon fill="#191970" stroke="#191970" points="119.3637,-292.4489 108.8255,-293.5422 117.7454,-299.2593 119.3637,-292.4489"/>
</g>
<!-- Node26 -->
<g id="node18" class="node">
<title>Node26</title>
<g id="a_node18"><a xlink:href="IdealGasPhase_8h.html" target="_top" xlink:title="ThermoPhase object for the ideal gas equation of state &#45; workhorse for Cantera (see Thermodynamic Pro...">
<polygon fill="#ffffff" stroke="#000000" points="603.3966,-335.5 603.3966,-353.5 766.1495,-353.5 766.1495,-335.5 603.3966,-335.5"/>
<text text-anchor="middle" x="684.773" y="-341.5" font-family="Helvetica,sans-Serif" font-size="10.00" fill="#000000">cantera/thermo/IdealGasPhase.h</text>
</a>
</g>
</g>
<!-- Node1&#45;&gt;Node26 -->
<g id="edge25" class="edge">
<title>Node1&#45;&gt;Node26</title>
<path fill="none" stroke="#191970" d="M592.3278,-395.3873C610.1972,-385.5509 638.8711,-369.7671 659.5491,-358.3847"/>
<polygon fill="#191970" stroke="#191970" points="661.347,-361.3904 668.4196,-353.5019 657.9713,-355.258 661.347,-361.3904"/>
</g>
<!-- Node41 -->
<g id="node22" class="node">
<title>Node41</title>
<g id="a_node22"><a xlink:href="Kinetics_8h.html" target="_top" xlink:title="Base class for kinetics managers and also contains the kineticsmgr module documentation (see Kinetics...">
<polygon fill="#ffffff" stroke="#000000" points="415.9678,-335.5 415.9678,-353.5 547.5782,-353.5 547.5782,-335.5 415.9678,-335.5"/>
<text text-anchor="middle" x="481.773" y="-341.5" font-family="Helvetica,sans-Serif" font-size="10.00" fill="#000000">cantera/kinetics/Kinetics.h</text>
</a>
</g>
</g>
<!-- Node1&#45;&gt;Node41 -->
<g id="edge31" class="edge">
<title>Node1&#45;&gt;Node41</title>
<path fill="none" stroke="#191970" d="M561.4964,-395.3873C546.3638,-385.7281 522.2462,-370.334 504.4963,-359.0042"/>
<polygon fill="#191970" stroke="#191970" points="506.1883,-355.932 495.876,-353.5019 502.4221,-361.8325 506.1883,-355.932"/>
</g>
<!-- Node3 -->
<g id="node4" class="node">
<title>Node3</title>
<g id="a_node4"><a xlink:href="stringUtils_8h.html" target="_top" xlink:title="Contains declarations for string manipulation functions within Cantera. ">
<polygon fill="#ffffff" stroke="#000000" points="431.357,-165.5 431.357,-183.5 560.189,-183.5 560.189,-165.5 431.357,-165.5"/>
<text text-anchor="middle" x="495.773" y="-171.5" font-family="Helvetica,sans-Serif" font-size="10.00" fill="#000000">cantera/base/stringUtils.h</text>
</a>
</g>
</g>
<!-- Node2&#45;&gt;Node3 -->
<g id="edge3" class="edge">
<title>Node2&#45;&gt;Node3</title>
<path fill="none" stroke="#191970" d="M610.9851,-220.4179C588.4123,-211.4215 553.6278,-197.5581 528.1834,-187.4172"/>
<polygon fill="#191970" stroke="#191970" points="529.18,-184.0467 518.5948,-183.5956 526.5883,-190.5493 529.18,-184.0467"/>
</g>
<!-- Node16 -->
<g id="node8" class="node">
<title>Node16</title>
<g id="a_node8"><a xlink:href="ctexceptions_8h.html" target="_top" xlink:title="Definitions for the classes that are thrown when Cantera experiences an error condition (also contain...">
<polygon fill="#ffffff" stroke="#000000" points="707.5123,-165.5 707.5123,-183.5 848.0338,-183.5 848.0338,-165.5 707.5123,-165.5"/>
<text text-anchor="middle" x="777.773" y="-171.5" font-family="Helvetica,sans-Serif" font-size="10.00" fill="#000000">cantera/base/ctexceptions.h</text>
</a>
</g>
</g>
<!-- Node2&#45;&gt;Node16 -->
<g id="edge9" class="edge">
<title>Node2&#45;&gt;Node16</title>
<path fill="none" stroke="#191970" d="M657.5517,-220.4179C681.2101,-211.3817 717.7243,-197.4353 744.3054,-187.2828"/>
<polygon fill="#191970" stroke="#191970" points="745.8661,-190.4334 753.959,-183.5956 743.3684,-183.8941 745.8661,-190.4334"/>
</g>
<!-- Node18 -->
<g id="node10" class="node">
<title>Node18</title>
<g id="a_node10"><a xlink:href="global_8h.html" target="_top" xlink:title="This file contains definitions for utility functions and text for modules, inputfiles, logs, textlogs, (see Input File Handling, Diagnostic Output, and Writing messages to the screen). ">
<polygon fill="#ffffff" stroke="#000000" points="577.9605,-165.5 577.9605,-183.5 689.5855,-183.5 689.5855,-165.5 577.9605,-165.5"/>
<text text-anchor="middle" x="633.773" y="-171.5" font-family="Helvetica,sans-Serif" font-size="10.00" fill="#000000">cantera/base/global.h</text>
</a>
</g>
</g>
<!-- Node2&#45;&gt;Node18 -->
<g id="edge12" class="edge">
<title>Node2&#45;&gt;Node18</title>
<path fill="none" stroke="#191970" d="M633.773,-220.4179C633.773,-213.2164 633.773,-202.8962 633.773,-193.8632"/>
<polygon fill="#191970" stroke="#191970" points="637.2731,-193.7794 633.773,-183.7795 630.2731,-193.7795 637.2731,-193.7794"/>
</g>
<!-- Node19 -->
<g id="node11" class="node">
<title>Node19</title>
<g id="a_node11"><a xlink:href="refine_8h_source.html" target="_top" xlink:title="refine.h">
<polygon fill="#ffffff" stroke="#000000" points="838.0958,-110.5 838.0958,-128.5 887.4503,-128.5 887.4503,-110.5 838.0958,-110.5"/>
<text text-anchor="middle" x="862.773" y="-116.5" font-family="Helvetica,sans-Serif" font-size="10.00" fill="#000000">refine.h</text>
</a>
</g>
</g>
<!-- Node2&#45;&gt;Node19 -->
<g id="edge15" class="edge">
<title>Node2&#45;&gt;Node19</title>
<path fill="none" stroke="#191970" d="M669.9919,-224.5008C729.92,-215.8828 844.3728,-197.8246 856.773,-184 867.5571,-171.9772 868.1302,-153.1457 866.5548,-138.928"/>
<polygon fill="#191970" stroke="#191970" points="869.9661,-138.0838 864.9848,-128.7331 863.0477,-139.1493 869.9661,-138.0838"/>
</g>
<!-- Node4 -->
<g id="node5" class="node">
<title>Node4</title>
<g id="a_node5"><a xlink:href="ct__defs_8h.html" target="_top" xlink:title="This file contains definitions of terms that are used in internal routines and are unlikely to need m...">
<polygon fill="#ffffff" stroke="#ff0000" points="640.4825,-55.5 640.4825,-73.5 697.0635,-73.5 697.0635,-55.5 640.4825,-55.5"/>
<text text-anchor="middle" x="668.773" y="-61.5" font-family="Helvetica,sans-Serif" font-size="10.00" fill="#000000">ct_defs.h</text>
</a>
</g>
</g>
<!-- Node3&#45;&gt;Node4 -->
<g id="edge4" class="edge">
<title>Node3&#45;&gt;Node4</title>
<path fill="none" stroke="#191970" d="M505.1152,-165.2994C519.0141,-151.9442 546.3455,-126.9371 572.773,-110 592.7405,-97.2031 616.8693,-85.7823 635.9414,-77.5838"/>
<polygon fill="#191970" stroke="#191970" points="637.5464,-80.7057 645.4051,-73.6 634.8305,-74.254 637.5464,-80.7057"/>
</g>
<!-- Node10 -->
<g id="node6" class="node">
<title>Node10</title>
<polygon fill="#ffffff" stroke="#bfbfbf" points="544.5465,-.5 544.5465,-18.5 584.9996,-18.5 584.9996,-.5 544.5465,-.5"/>
<text text-anchor="middle" x="564.773" y="-6.5" font-family="Helvetica,sans-Serif" font-size="10.00" fill="#000000">string</text>
</g>
<!-- Node3&#45;&gt;Node10 -->
<g id="edge8" class="edge">
<title>Node3&#45;&gt;Node10</title>
<path fill="none" stroke="#191970" d="M499.6805,-165.1561C510.6866,-138.837 542.1038,-63.709 556.8934,-28.3426"/>
<polygon fill="#191970" stroke="#191970" points="560.2793,-29.3175 560.9084,-18.7414 553.8213,-26.6169 560.2793,-29.3175"/>
</g>
<!-- Node13 -->
<g id="node7" class="node">
<title>Node13</title>
<g id="a_node7"><a xlink:href="fmt_8h.html" target="_top" xlink:title="Wrapper for either system&#45;installed or local headers for fmt. ">
<polygon fill="#ffffff" stroke="#ff0000" points="581.3619,-110.5 581.3619,-128.5 680.1841,-128.5 680.1841,-110.5 581.3619,-110.5"/>
<text text-anchor="middle" x="630.773" y="-116.5" font-family="Helvetica,sans-Serif" font-size="10.00" fill="#000000">cantera/base/fmt.h</text>
</a>
</g>
</g>
<!-- Node3&#45;&gt;Node13 -->
<g id="edge6" class="edge">
<title>Node3&#45;&gt;Node13</title>
<path fill="none" stroke="#191970" d="M518.0655,-165.4179C540.1476,-156.4215 574.176,-142.5581 599.0673,-132.4172"/>
<polygon fill="#191970" stroke="#191970" points="600.507,-135.61 608.4474,-128.5956 597.8659,-129.1273 600.507,-135.61"/>
</g>
<!-- Node4&#45;&gt;Node10 -->
<g id="edge5" class="edge">
<title>Node4&#45;&gt;Node10</title>
<path fill="none" stroke="#191970" d="M651.5995,-55.4179C635.1151,-46.7001 609.9888,-33.4122 590.9998,-23.3699"/>
<polygon fill="#191970" stroke="#191970" points="592.4482,-20.1767 581.972,-18.5956 589.1757,-26.3646 592.4482,-20.1767"/>
</g>
<!-- Node13&#45;&gt;Node4 -->
<g id="edge7" class="edge">
<title>Node13&#45;&gt;Node4</title>
<path fill="none" stroke="#191970" d="M637.0479,-110.4179C642.3516,-102.7415 650.1035,-91.5217 656.6168,-82.0945"/>
<polygon fill="#191970" stroke="#191970" points="659.557,-83.9963 662.3618,-73.7795 653.7978,-80.0173 659.557,-83.9963"/>
</g>
<!-- Node16&#45;&gt;Node13 -->
<g id="edge10" class="edge">
<title>Node16&#45;&gt;Node13</title>
<path fill="none" stroke="#191970" d="M753.499,-165.4179C729.2412,-156.3419 691.7441,-142.3123 664.5799,-132.1488"/>
<polygon fill="#191970" stroke="#191970" points="665.6756,-128.8219 655.0831,-128.5956 663.2225,-135.378 665.6756,-128.8219"/>
</g>
<!-- Node17 -->
<g id="node9" class="node">
<title>Node17</title>
<polygon fill="#ffffff" stroke="#bfbfbf" points="748.3692,-110.5 748.3692,-128.5 807.1768,-128.5 807.1768,-110.5 748.3692,-110.5"/>
<text text-anchor="middle" x="777.773" y="-116.5" font-family="Helvetica,sans-Serif" font-size="10.00" fill="#000000">exception</text>
</g>
<!-- Node16&#45;&gt;Node17 -->
<g id="edge11" class="edge">
<title>Node16&#45;&gt;Node17</title>
<path fill="none" stroke="#191970" d="M777.773,-165.4179C777.773,-158.2164 777.773,-147.8962 777.773,-138.8632"/>
<polygon fill="#191970" stroke="#191970" points="781.2731,-138.7794 777.773,-128.7795 774.2731,-138.7795 781.2731,-138.7794"/>
</g>
<!-- Node18&#45;&gt;Node4 -->
<g id="edge13" class="edge">
<title>Node18&#45;&gt;Node4</title>
<path fill="none" stroke="#191970" d="M651.5115,-165.4258C664.4934,-157.6967 681.1221,-145.259 688.773,-129 695.923,-113.8056 688.811,-95.4222 681.1581,-82.175"/>
<polygon fill="#191970" stroke="#191970" points="684.0008,-80.1224 675.6863,-73.5558 678.0911,-83.8741 684.0008,-80.1224"/>
</g>
<!-- Node18&#45;&gt;Node13 -->
<g id="edge14" class="edge">
<title>Node18&#45;&gt;Node13</title>
<path fill="none" stroke="#191970" d="M633.2776,-165.4179C632.8848,-158.2164 632.3219,-147.8962 631.8292,-138.8632"/>
<polygon fill="#191970" stroke="#191970" points="635.3187,-138.574 631.2792,-128.7795 628.3291,-138.9553 635.3187,-138.574"/>
</g>
<!-- Node19&#45;&gt;Node4 -->
<g id="edge16" class="edge">
<title>Node19&#45;&gt;Node4</title>
<path fill="none" stroke="#191970" d="M837.8081,-112.4223C804.6466,-103.0209 745.7524,-86.324 706.9808,-75.3321"/>
<polygon fill="#191970" stroke="#191970" points="707.677,-71.8916 697.1015,-72.5313 705.7677,-78.6262 707.677,-71.8916"/>
</g>
<!-- Node21 -->
<g id="node13" class="node">
<title>Node21</title>
<g id="a_node13"><a xlink:href="utilities_8h.html" target="_top" xlink:title="Various templated functions that carry out common vector operations (see Templated Utility Functions)...">
<polygon fill="#ffffff" stroke="#000000" points="77.3199,-220.5 77.3199,-238.5 132.2261,-238.5 132.2261,-220.5 77.3199,-220.5"/>
<text text-anchor="middle" x="104.773" y="-226.5" font-family="Helvetica,sans-Serif" font-size="10.00" fill="#000000">utilities.h</text>
</a>
</g>
</g>
<!-- Node20&#45;&gt;Node21 -->
<g id="edge18" class="edge">
<title>Node20&#45;&gt;Node21</title>
<path fill="none" stroke="#191970" d="M76.3874,-275.4179C81.0839,-267.8207 87.9259,-256.7527 93.7158,-247.3866"/>
<polygon fill="#191970" stroke="#191970" points="96.7554,-249.1258 99.0366,-238.7795 90.8013,-245.445 96.7554,-249.1258"/>
</g>
<!-- Node24 -->
<g id="node16" class="node">
<title>Node24</title>
<polygon fill="#ffffff" stroke="#bfbfbf" points="190.6007,-165.5 190.6007,-183.5 244.9454,-183.5 244.9454,-165.5 190.6007,-165.5"/>
<text text-anchor="middle" x="217.773" y="-171.5" font-family="Helvetica,sans-Serif" font-size="10.00" fill="#000000">iostream</text>
</g>
<!-- Node20&#45;&gt;Node24 -->
<g id="edge23" class="edge">
<title>Node20&#45;&gt;Node24</title>
<path fill="none" stroke="#191970" d="M48.9612,-275.3517C23.6103,-263.4291 -12.659,-241.5491 4.773,-220 15.7942,-206.3759 122.5354,-188.6256 180.5958,-179.868"/>
<polygon fill="#191970" stroke="#191970" points="181.1223,-183.3283 190.4962,-178.3907 180.0891,-176.405 181.1223,-183.3283"/>
</g>
<!-- Node25 -->
<g id="node17" class="node">
<title>Node25</title>
<polygon fill="#ffffff" stroke="#bfbfbf" points="14.0465,-220.5 14.0465,-238.5 59.4996,-238.5 59.4996,-220.5 14.0465,-220.5"/>
<text text-anchor="middle" x="36.773" y="-226.5" font-family="Helvetica,sans-Serif" font-size="10.00" fill="#000000">cstring</text>
</g>
<!-- Node20&#45;&gt;Node25 -->
<g id="edge24" class="edge">
<title>Node20&#45;&gt;Node25</title>
<path fill="none" stroke="#191970" d="M65.1586,-275.4179C60.4622,-267.8207 53.6201,-256.7527 47.8302,-247.3866"/>
<polygon fill="#191970" stroke="#191970" points="50.7448,-245.445 42.5094,-238.7795 44.7906,-249.1258 50.7448,-245.445"/>
</g>
<!-- Node21&#45;&gt;Node4 -->
<g id="edge19" class="edge">
<title>Node21&#45;&gt;Node4</title>
<path fill="none" stroke="#191970" d="M112.7644,-220.3784C125.7459,-206.1779 152.8862,-178.9681 181.773,-165 336.429,-90.2167 544.9007,-70.9699 630.0832,-66.1062"/>
<polygon fill="#191970" stroke="#191970" points="630.524,-69.5878 640.3225,-65.5579 630.1496,-62.5978 630.524,-69.5878"/>
</g>
<!-- Node21&#45;&gt;Node18 -->
<g id="edge20" class="edge">
<title>Node21&#45;&gt;Node18</title>
<path fill="none" stroke="#191970" d="M132.5463,-221.838C135.6435,-221.1422 138.7651,-220.5093 141.773,-220 326.3426,-188.7506 377.8217,-205.1951 567.7478,-184.0426"/>
<polygon fill="#191970" stroke="#191970" points="568.2397,-187.5094 577.7816,-182.9047 567.4508,-180.5539 568.2397,-187.5094"/>
</g>
<!-- Node22 -->
<g id="node14" class="node">
<title>Node22</title>
<polygon fill="#ffffff" stroke="#bfbfbf" points="3.3716,-165.5 3.3716,-183.5 62.1744,-183.5 62.1744,-165.5 3.3716,-165.5"/>
<text text-anchor="middle" x="32.773" y="-171.5" font-family="Helvetica,sans-Serif" font-size="10.00" fill="#000000">stdexcept</text>
</g>
<!-- Node21&#45;&gt;Node22 -->
<g id="edge21" class="edge">
<title>Node21&#45;&gt;Node22</title>
<path fill="none" stroke="#191970" d="M92.8837,-220.4179C82.1095,-212.1876 66.0028,-199.8839 53.1733,-190.0836"/>
<polygon fill="#191970" stroke="#191970" points="54.9921,-187.0685 44.9207,-183.7795 50.7427,-192.6313 54.9921,-187.0685"/>
</g>
<!-- Node23 -->
<g id="node15" class="node">
<title>Node23</title>
<polygon fill="#ffffff" stroke="#bfbfbf" points="79.9898,-165.5 79.9898,-183.5 131.5562,-183.5 131.5562,-165.5 79.9898,-165.5"/>
<text text-anchor="middle" x="105.773" y="-171.5" font-family="Helvetica,sans-Serif" font-size="10.00" fill="#000000">numeric</text>
</g>
<!-- Node21&#45;&gt;Node23 -->
<g id="edge22" class="edge">
<title>Node21&#45;&gt;Node23</title>
<path fill="none" stroke="#191970" d="M104.9381,-220.4179C105.0691,-213.2164 105.2567,-202.8962 105.421,-193.8632"/>
<polygon fill="#191970" stroke="#191970" points="108.9218,-193.8415 105.6043,-183.7795 101.923,-193.7141 108.9218,-193.8415"/>
</g>
<!-- Node27 -->
<g id="node19" class="node">
<title>Node27</title>
<g id="a_node19"><a xlink:href="ThermoPhase_8h.html" target="_top" xlink:title="Header file for class ThermoPhase, the base class for phases with thermodynamic properties, and the text for the Module thermoprops (see Thermodynamic Properties and class ThermoPhase). ">
<polygon fill="#ffffff" stroke="#000000" points="697.1993,-275.5 697.1993,-293.5 784.3467,-293.5 784.3467,-275.5 697.1993,-275.5"/>
<text text-anchor="middle" x="740.773" y="-281.5" font-family="Helvetica,sans-Serif" font-size="10.00" fill="#000000">ThermoPhase.h</text>
</a>
</g>
</g>
<!-- Node26&#45;&gt;Node27 -->
<g id="edge26" class="edge">
<title>Node26&#45;&gt;Node27</title>
<path fill="none" stroke="#191970" d="M693.2782,-335.3873C701.7479,-326.3126 714.9422,-312.1759 725.2766,-301.1033"/>
<polygon fill="#191970" stroke="#191970" points="727.9233,-303.3972 732.1878,-293.6985 722.8059,-298.6209 727.9233,-303.3972"/>
</g>
<!-- Node27&#45;&gt;Node18 -->
<g id="edge30" class="edge">
<title>Node27&#45;&gt;Node18</title>
<path fill="none" stroke="#191970" d="M731.9842,-275.2746C720.0054,-262.7194 697.8573,-239.573 678.773,-220 669.2718,-210.2555 658.5596,-199.4183 649.9709,-190.7655"/>
<polygon fill="#191970" stroke="#191970" points="652.308,-188.152 642.7759,-183.5271 647.3434,-193.0868 652.308,-188.152"/>
</g>
<!-- Node28 -->
<g id="node20" class="node">
<title>Node28</title>
<g id="a_node20"><a xlink:href="Phase_8h.html" target="_top" xlink:title="Header file for class Phase. ">
<polygon fill="#ffffff" stroke="#ff0000" points="859.4258,-220.5 859.4258,-238.5 912.1202,-238.5 912.1202,-220.5 859.4258,-220.5"/>
<text text-anchor="middle" x="885.773" y="-226.5" font-family="Helvetica,sans-Serif" font-size="10.00" fill="#000000">Phase.h</text>
</a>
</g>
</g>
<!-- Node27&#45;&gt;Node28 -->
<g id="edge27" class="edge">
<title>Node27&#45;&gt;Node28</title>
<path fill="none" stroke="#191970" d="M764.7168,-275.4179C788.6445,-266.3419 825.6315,-252.3123 852.4261,-242.1488"/>
<polygon fill="#191970" stroke="#191970" points="853.685,-245.4147 861.7936,-238.5956 851.2024,-238.8697 853.685,-245.4147"/>
</g>
<!-- Node38 -->
<g id="node21" class="node">
<title>Node38</title>
<g id="a_node21"><a xlink:href="MultiSpeciesThermo_8h.html" target="_top" xlink:title="Header for a general species thermodynamic property manager for a phase (see MultiSpeciesThermo). ">
<polygon fill="#ffffff" stroke="#ff0000" points="726.0318,-220.5 726.0318,-238.5 841.5142,-238.5 841.5142,-220.5 726.0318,-220.5"/>
<text text-anchor="middle" x="783.773" y="-226.5" font-family="Helvetica,sans-Serif" font-size="10.00" fill="#000000">MultiSpeciesThermo.h</text>
</a>
</g>
</g>
<!-- Node27&#45;&gt;Node38 -->
<g id="edge29" class="edge">
<title>Node27&#45;&gt;Node38</title>
<path fill="none" stroke="#191970" d="M747.8736,-275.4179C753.937,-267.6624 762.8281,-256.29 770.2448,-246.8035"/>
<polygon fill="#191970" stroke="#191970" points="773.1162,-248.8133 776.5182,-238.7795 767.6016,-244.5018 773.1162,-248.8133"/>
</g>
<!-- Node28&#45;&gt;Node16 -->
<g id="edge28" class="edge">
<title>Node28&#45;&gt;Node16</title>
<path fill="none" stroke="#191970" d="M867.939,-220.4179C850.7423,-211.6603 824.4894,-198.2907 804.7388,-188.2326"/>
<polygon fill="#191970" stroke="#191970" points="806.1329,-185.0148 795.6335,-183.5956 802.9562,-191.2526 806.1329,-185.0148"/>
</g>
<!-- Node41&#45;&gt;Node18 -->
<g id="edge43" class="edge">
<title>Node41&#45;&gt;Node18</title>
<path fill="none" stroke="#191970" d="M478.1736,-335.2207C470.1537,-312.8408 453.5043,-255.1525 479.773,-220 490.9178,-205.0862 532.3535,-193.349 569.4386,-185.5334"/>
<polygon fill="#191970" stroke="#191970" points="570.1524,-188.96 579.2516,-183.5327 568.7539,-182.1011 570.1524,-188.96"/>
</g>
<!-- Node41&#45;&gt;Node27 -->
<g id="edge32" class="edge">
<title>Node41&#45;&gt;Node27</title>
<path fill="none" stroke="#191970" d="M520.8284,-335.4524C566.5724,-324.8554 642.3891,-307.2916 691.9688,-295.806"/>
<polygon fill="#191970" stroke="#191970" points="692.8719,-299.1895 701.824,-293.5229 691.2921,-292.3701 692.8719,-299.1895"/>
</g>
<!-- Node42 -->
<g id="node23" class="node">
<title>Node42</title>
<g id="a_node23"><a xlink:href="StoichManager_8h.html" target="_top" xlink:title="StoichManager.h">
<polygon fill="#ffffff" stroke="#000000" points="489.2462,-220.5 489.2462,-238.5 580.2999,-238.5 580.2999,-220.5 489.2462,-220.5"/>
<text text-anchor="middle" x="534.773" y="-226.5" font-family="Helvetica,sans-Serif" font-size="10.00" fill="#000000">StoichManager.h</text>
</a>
</g>
</g>
<!-- Node41&#45;&gt;Node42 -->
<g id="edge33" class="edge">
<title>Node41&#45;&gt;Node42</title>
<path fill="none" stroke="#191970" d="M485.9318,-335.4761C494.5968,-316.6749 514.7338,-272.9813 526.2634,-247.9642"/>
<polygon fill="#191970" stroke="#191970" points="529.4793,-249.3483 530.4863,-238.8014 523.122,-246.4183 529.4793,-249.3483"/>
</g>
<!-- Node43 -->
<g id="node24" class="node">
<title>Node43</title>
<g id="a_node24"><a xlink:href="Reaction_8h.html" target="_top" xlink:title="cantera/kinetics/Reaction.h">
<polygon fill="#ffffff" stroke="#000000" points="236.7413,-275.5 236.7413,-293.5 372.8048,-293.5 372.8048,-275.5 236.7413,-275.5"/>
<text text-anchor="middle" x="304.773" y="-281.5" font-family="Helvetica,sans-Serif" font-size="10.00" fill="#000000">cantera/kinetics/Reaction.h</text>
</a>
</g>
</g>
<!-- Node41&#45;&gt;Node43 -->
<g id="edge36" class="edge">
<title>Node41&#45;&gt;Node43</title>
<path fill="none" stroke="#191970" d="M454.8905,-335.3873C424.4354,-325.0635 374.6536,-308.1883 340.841,-296.7264"/>
<polygon fill="#191970" stroke="#191970" points="341.9229,-293.3976 331.3285,-293.5019 339.6755,-300.0271 341.9229,-293.3976"/>
</g>
<!-- Node42&#45;&gt;Node3 -->
<g id="edge34" class="edge">
<title>Node42&#45;&gt;Node3</title>
<path fill="none" stroke="#191970" d="M528.333,-220.4179C522.8897,-212.7415 514.9339,-201.5217 508.2491,-192.0945"/>
<polygon fill="#191970" stroke="#191970" points="510.9924,-189.9123 502.353,-183.7795 505.2823,-193.9613 510.9924,-189.9123"/>
</g>
<!-- Node42&#45;&gt;Node16 -->
<g id="edge35" class="edge">
<title>Node42&#45;&gt;Node16</title>
<path fill="none" stroke="#191970" d="M574.6274,-220.4795C616.5621,-210.9881 682.6474,-196.0305 727.9855,-185.7688"/>
<polygon fill="#191970" stroke="#191970" points="728.9162,-189.1467 737.8968,-183.5255 727.3709,-182.3194 728.9162,-189.1467"/>
</g>
<!-- Node43&#45;&gt;Node21 -->
<g id="edge37" class="edge">
<title>Node43&#45;&gt;Node21</title>
<path fill="none" stroke="#191970" d="M271.7471,-275.4179C236.1508,-265.6289 179.6007,-250.0776 142.3349,-239.8295"/>
<polygon fill="#191970" stroke="#191970" points="142.939,-236.3658 132.3689,-237.0889 141.0829,-243.1152 142.939,-236.3658"/>
</g>
<!-- Node44 -->
<g id="node25" class="node">
<title>Node44</title>
<g id="a_node25"><a xlink:href="RxnRates_8h.html" target="_top" xlink:title="cantera/kinetics/RxnRates.h">
<polygon fill="#ffffff" stroke="#ff0000" points="150.522,-220.5 150.522,-238.5 291.024,-238.5 291.024,-220.5 150.522,-220.5"/>
<text text-anchor="middle" x="220.773" y="-226.5" font-family="Helvetica,sans-Serif" font-size="10.00" fill="#000000">cantera/kinetics/RxnRates.h</text>
</a>
</g>
</g>
<!-- Node43&#45;&gt;Node44 -->
<g id="edge38" class="edge">
<title>Node43&#45;&gt;Node44</title>
<path fill="none" stroke="#191970" d="M290.9021,-275.4179C278.0133,-266.9788 258.5837,-254.257 243.4417,-244.3426"/>
<polygon fill="#191970" stroke="#191970" points="244.948,-241.1454 234.6645,-238.5956 241.1135,-247.0017 244.948,-241.1454"/>
</g>
<!-- Node46 -->
<g id="node26" class="node">
<title>Node46</title>
<g id="a_node26"><a xlink:href="Falloff_8h_source.html" target="_top" xlink:title="cantera/kinetics/Falloff.h">
<polygon fill="#ffffff" stroke="#ff0000" points="308.9473,-220.5 308.9473,-238.5 432.5987,-238.5 432.5987,-220.5 308.9473,-220.5"/>
<text text-anchor="middle" x="370.773" y="-226.5" font-family="Helvetica,sans-Serif" font-size="10.00" fill="#000000">cantera/kinetics/Falloff.h</text>
</a>
</g>
</g>
<!-- Node43&#45;&gt;Node46 -->
<g id="edge42" class="edge">
<title>Node43&#45;&gt;Node46</title>
<path fill="none" stroke="#191970" d="M315.6716,-275.4179C325.453,-267.2667 340.0289,-255.1201 351.7327,-245.3669"/>
<polygon fill="#191970" stroke="#191970" points="354.1961,-247.8701 359.6377,-238.7795 349.7148,-242.4926 354.1961,-247.8701"/>
</g>
<!-- Node44&#45;&gt;Node3 -->
<g id="edge40" class="edge">
<title>Node44&#45;&gt;Node3</title>
<path fill="none" stroke="#191970" d="M265.8757,-220.4795C313.7315,-210.9083 389.3795,-195.7787 440.7176,-185.5111"/>
<polygon fill="#191970" stroke="#191970" points="441.5263,-188.9187 450.6457,-183.5255 440.1534,-182.0547 441.5263,-188.9187"/>
</g>
<!-- Node44&#45;&gt;Node16 -->
<g id="edge39" class="edge">
<title>Node44&#45;&gt;Node16</title>
<path fill="none" stroke="#191970" d="M291.3965,-220.902C294.2249,-220.591 297.0254,-220.2891 299.773,-220 473.5636,-201.7145 519.987,-202.5912 696.9699,-184.1641"/>
<polygon fill="#191970" stroke="#191970" points="697.5685,-187.6207 707.1495,-183.098 696.8393,-180.6587 697.5685,-187.6207"/>
</g>
<!-- Node44&#45;&gt;Node24 -->
<g id="edge41" class="edge">
<title>Node44&#45;&gt;Node24</title>
<path fill="none" stroke="#191970" d="M220.2776,-220.4179C219.8848,-213.2164 219.3219,-202.8962 218.8292,-193.8632"/>
<polygon fill="#191970" stroke="#191970" points="222.3187,-193.574 218.2792,-183.7795 215.3291,-193.9553 222.3187,-193.574"/>
</g>
<!-- Node47&#45;&gt;Node4 -->
<g id="edge45" class="edge">
<title>Node47&#45;&gt;Node4</title>
<path fill="none" stroke="#191970" d="M958.8634,-275.1275C969.6846,-262.7872 985.4991,-240.2767 978.773,-220 959.5744,-162.1231 948.3203,-142.5761 896.773,-110 865.7753,-90.4106 763.9297,-75.7084 707.4164,-68.8238"/>
<polygon fill="#191970" stroke="#191970" points="707.7634,-65.3404 697.4189,-67.6298 706.9333,-72.291 707.7634,-65.3404"/>
</g>
<!-- Node48 -->
<g id="node28" class="node">
<title>Node48</title>
<g id="a_node28"><a xlink:href="xml_8h.html" target="_top" xlink:title="Classes providing support for XML data files. ">
<polygon fill="#ffffff" stroke="#000000" points="929.8272,-220.5 929.8272,-238.5 969.7188,-238.5 969.7188,-220.5 929.8272,-220.5"/>
<text text-anchor="middle" x="949.773" y="-226.5" font-family="Helvetica,sans-Serif" font-size="10.00" fill="#000000">xml.h</text>
</a>
</g>
</g>
<!-- Node47&#45;&gt;Node48 -->
<g id="edge46" class="edge">
<title>Node47&#45;&gt;Node48</title>
<path fill="none" stroke="#191970" d="M949.773,-275.4179C949.773,-268.2164 949.773,-257.8962 949.773,-248.8632"/>
<polygon fill="#191970" stroke="#191970" points="953.2731,-248.7794 949.773,-238.7795 946.2731,-248.7795 953.2731,-248.7794"/>
</g>
<!-- Node48&#45;&gt;Node16 -->
<g id="edge47" class="edge">
<title>Node48&#45;&gt;Node16</title>
<path fill="none" stroke="#191970" d="M929.8121,-222.9364C926.785,-221.9481 923.6972,-220.9442 920.773,-220 885.3996,-208.5787 845.0369,-195.7551 816.2341,-186.64"/>
<polygon fill="#191970" stroke="#191970" points="817.1453,-183.2574 806.5554,-183.5789 815.0345,-189.9315 817.1453,-183.2574"/>
</g>
<!-- Node48&#45;&gt;Node18 -->
<g id="edge48" class="edge">
<title>Node48&#45;&gt;Node18</title>
<path fill="none" stroke="#191970" d="M929.6098,-222.4398C926.667,-221.5425 923.657,-220.6963 920.773,-220 899.7414,-214.9223 778.0206,-196.2182 700.0002,-184.4302"/>
<polygon fill="#191970" stroke="#191970" points="700.179,-180.9177 689.7686,-182.8861 699.1343,-187.8393 700.179,-180.9177"/>
</g>
<!-- Node49&#45;&gt;Node27 -->
<g id="edge50" class="edge">
<title>Node49&#45;&gt;Node27</title>
<path fill="none" stroke="#191970" d="M826.514,-330.4327C808.6205,-320.8468 785.0199,-308.2037 767.1099,-298.609"/>
<polygon fill="#191970" stroke="#191970" points="768.2853,-295.2681 757.8177,-293.6311 764.9797,-301.4385 768.2853,-295.2681"/>
</g>
<!-- Node50&#45;&gt;Node4 -->
<g id="edge52" class="edge">
<title>Node50&#45;&gt;Node4</title>
<path fill="none" stroke="#191970" d="M1040.3931,-395.4698C1039.5858,-375.4793 1037.773,-325.9713 1037.773,-284.5 1037.773,-284.5 1037.773,-284.5 1037.773,-174.5 1037.773,-106.04 801.5628,-76.7127 707.1189,-67.7228"/>
<polygon fill="#191970" stroke="#191970" points="707.3953,-64.2335 697.1151,-66.7965 706.7498,-71.2037 707.3953,-64.2335"/>
</g>
</g>
</svg>
