<?xml version="1.0" encoding="UTF-8" standalone="no"?>
<!DOCTYPE svg PUBLIC "-//W3C//DTD SVG 1.1//EN"
 "http://www.w3.org/Graphics/SVG/1.1/DTD/svg11.dtd">
<!-- Generated by graphviz version 2.36.0 (20140111.2315)
 -->
<!-- Title: StFlow.cpp Pages: 1 -->
<svg width="782pt" height="376pt"
 viewBox="0.00 0.00 782.00 376.00" xmlns="http://www.w3.org/2000/svg" xmlns:xlink="http://www.w3.org/1999/xlink">
<g id="graph0" class="graph" transform="scale(1 1) rotate(0) translate(4 372)">
<title>StFlow.cpp</title>
<polygon fill="white" stroke="none" points="-4,4 -4,-372 778,-372 778,4 -4,4"/>
<!-- Node1 -->
<g id="node1" class="node"><title>Node1</title>
<polygon fill="#bfbfbf" stroke="black" points="362.5,-348.5 362.5,-367.5 427.5,-367.5 427.5,-348.5 362.5,-348.5"/>
<text text-anchor="middle" x="395" y="-355.5" font-family="FreeSans" font-size="10.00">StFlow.cpp</text>
</g>
<!-- Node2 -->
<g id="node2" class="node"><title>Node2</title>
<g id="a_node2"><a xlink:href="StFlow_8h.html" target="_top" xlink:title="cantera/oneD/StFlow.h">
<polygon fill="white" stroke="black" points="337.5,-286.5 337.5,-305.5 452.5,-305.5 452.5,-286.5 337.5,-286.5"/>
<text text-anchor="middle" x="395" y="-293.5" font-family="FreeSans" font-size="10.00">cantera/oneD/StFlow.h</text>
</a>
</g>
</g>
<!-- Node1&#45;&gt;Node2 -->
<g id="edge1" class="edge"><title>Node1&#45;&gt;Node2</title>
<path fill="none" stroke="midnightblue" d="M395,-348.403C395,-339.938 395,-326.728 395,-315.82"/>
<polygon fill="midnightblue" stroke="midnightblue" points="398.5,-315.581 395,-305.581 391.5,-315.581 398.5,-315.581"/>
</g>
<!-- Node23 -->
<g id="node23" class="node"><title>Node23</title>
<g id="a_node23"><a xlink:href="ctml_8h.html" target="_top" xlink:title="CTML (&quot;Cantera Markup Language&quot;) is the variant of XML that Cantera uses to store data...">
<polygon fill="white" stroke="black" points="142.5,-224.5 142.5,-243.5 243.5,-243.5 243.5,-224.5 142.5,-224.5"/>
<text text-anchor="middle" x="193" y="-231.5" font-family="FreeSans" font-size="10.00">cantera/base/ctml.h</text>
</a>
</g>
</g>
<!-- Node1&#45;&gt;Node23 -->
<g id="edge31" class="edge"><title>Node1&#45;&gt;Node23</title>
<path fill="none" stroke="midnightblue" d="M380.796,-348.421C346.315,-327.596 257.936,-274.219 215.89,-248.825"/>
<polygon fill="midnightblue" stroke="midnightblue" points="217.558,-245.743 207.189,-243.569 213.939,-251.735 217.558,-245.743"/>
</g>
<!-- Node25 -->
<g id="node25" class="node"><title>Node25</title>
<g id="a_node25"><a xlink:href="TransportBase_8h.html" target="_top" xlink:title="Headers for the Transport object, which is the virtual base class for all transport property evaluato...">
<polygon fill="white" stroke="black" points="470.5,-281 470.5,-311 603.5,-311 603.5,-281 470.5,-281"/>
<text text-anchor="start" x="478.5" y="-299" font-family="FreeSans" font-size="10.00">cantera/transport/Transport</text>
<text text-anchor="middle" x="537" y="-288" font-family="FreeSans" font-size="10.00">Base.h</text>
</a>
</g>
</g>
<!-- Node1&#45;&gt;Node25 -->
<g id="edge36" class="edge"><title>Node1&#45;&gt;Node25</title>
<path fill="none" stroke="midnightblue" d="M415.345,-348.403C435.904,-339.717 468.285,-326.035 494.472,-314.969"/>
<polygon fill="midnightblue" stroke="midnightblue" points="495.958,-318.142 503.807,-311.025 493.233,-311.694 495.958,-318.142"/>
</g>
<!-- Node26 -->
<g id="node26" class="node"><title>Node26</title>
<g id="a_node26"><a xlink:href="funcs_8h.html" target="_top" xlink:title="Header for a file containing miscellaneous numerical functions. ">
<polygon fill="white" stroke="black" points="-0.5,-286.5 -0.5,-305.5 124.5,-305.5 124.5,-286.5 -0.5,-286.5"/>
<text text-anchor="middle" x="62" y="-293.5" font-family="FreeSans" font-size="10.00">cantera/numerics/funcs.h</text>
</a>
</g>
</g>
<!-- Node1&#45;&gt;Node26 -->
<g id="edge38" class="edge"><title>Node1&#45;&gt;Node26</title>
<path fill="none" stroke="midnightblue" d="M362.464,-351.138C306.076,-340.978 189.51,-319.975 119.296,-307.324"/>
<polygon fill="midnightblue" stroke="midnightblue" points="119.748,-303.849 109.286,-305.52 118.507,-310.738 119.748,-303.849"/>
</g>
<!-- Node27 -->
<g id="node27" class="node"><title>Node27</title>
<polygon fill="white" stroke="#bfbfbf" points="622,-286.5 622,-305.5 664,-305.5 664,-286.5 622,-286.5"/>
<text text-anchor="middle" x="643" y="-293.5" font-family="FreeSans" font-size="10.00">cstdio</text>
</g>
<!-- Node1&#45;&gt;Node27 -->
<g id="edge40" class="edge"><title>Node1&#45;&gt;Node27</title>
<path fill="none" stroke="midnightblue" d="M427.648,-352.789C470.699,-346.663 548.431,-333.601 612,-312 613.911,-311.351 615.856,-310.612 617.794,-309.819"/>
<polygon fill="midnightblue" stroke="midnightblue" points="619.555,-312.864 627.227,-305.558 616.673,-306.485 619.555,-312.864"/>
</g>
<!-- Node3 -->
<g id="node3" class="node"><title>Node3</title>
<g id="a_node3"><a xlink:href="Domain1D_8h.html" target="_top" xlink:title="Domain1D.h">
<polygon fill="white" stroke="black" points="421.5,-168.5 421.5,-187.5 490.5,-187.5 490.5,-168.5 421.5,-168.5"/>
<text text-anchor="middle" x="456" y="-175.5" font-family="FreeSans" font-size="10.00">Domain1D.h</text>
</a>
</g>
</g>
<!-- Node2&#45;&gt;Node3 -->
<g id="edge2" class="edge"><title>Node2&#45;&gt;Node3</title>
<path fill="none" stroke="midnightblue" d="M395.962,-286.183C397.781,-272.229 402.616,-244.534 414,-224 420.126,-212.951 429.55,-202.51 437.921,-194.472"/>
<polygon fill="midnightblue" stroke="midnightblue" points="440.462,-196.891 445.481,-187.561 435.739,-191.725 440.462,-196.891"/>
</g>
<!-- Node10 -->
<g id="node10" class="node"><title>Node10</title>
<g id="a_node10"><a xlink:href="Array_8h.html" target="_top" xlink:title="Header file for class Cantera::Array2D. ">
<polygon fill="white" stroke="black" points="261.5,-224.5 261.5,-243.5 366.5,-243.5 366.5,-224.5 261.5,-224.5"/>
<text text-anchor="middle" x="314" y="-231.5" font-family="FreeSans" font-size="10.00">cantera/base/Array.h</text>
</a>
</g>
</g>
<!-- Node2&#45;&gt;Node10 -->
<g id="edge12" class="edge"><title>Node2&#45;&gt;Node10</title>
<path fill="none" stroke="midnightblue" d="M383.395,-286.403C370.523,-276.869 349.526,-261.315 333.994,-249.811"/>
<polygon fill="midnightblue" stroke="midnightblue" points="335.703,-246.72 325.584,-243.581 331.536,-252.345 335.703,-246.72"/>
</g>
<!-- Node17 -->
<g id="node17" class="node"><title>Node17</title>
<g id="a_node17"><a xlink:href="IdealGasPhase_8h.html" target="_top" xlink:title="ThermoPhase object for the ideal gas equation of state &#45; workhorse for Cantera (see Thermodynamic Pro...">
<polygon fill="white" stroke="black" points="423,-224.5 423,-243.5 581,-243.5 581,-224.5 423,-224.5"/>
<text text-anchor="middle" x="502" y="-231.5" font-family="FreeSans" font-size="10.00">cantera/thermo/IdealGasPhase.h</text>
</a>
</g>
</g>
<!-- Node2&#45;&gt;Node17 -->
<g id="edge21" class="edge"><title>Node2&#45;&gt;Node17</title>
<path fill="none" stroke="midnightblue" d="M410.33,-286.403C427.97,-276.512 457.16,-260.144 477.858,-248.538"/>
<polygon fill="midnightblue" stroke="midnightblue" points="479.688,-251.524 486.698,-243.581 476.264,-245.419 479.688,-251.524"/>
</g>
<!-- Node22 -->
<g id="node22" class="node"><title>Node22</title>
<g id="a_node22"><a xlink:href="Kinetics_8h.html" target="_top" xlink:title="Base class for kinetics managers and also contains the kineticsmgr module documentation (see Kinetics...">
<polygon fill="white" stroke="black" points="599,-224.5 599,-243.5 729,-243.5 729,-224.5 599,-224.5"/>
<text text-anchor="middle" x="664" y="-231.5" font-family="FreeSans" font-size="10.00">cantera/kinetics/Kinetics.h</text>
</a>
</g>
</g>
<!-- Node2&#45;&gt;Node22 -->
<g id="edge28" class="edge"><title>Node2&#45;&gt;Node22</title>
<path fill="none" stroke="midnightblue" d="M432.34,-286.477C441.696,-284.352 451.713,-282.085 461,-280 513.602,-268.192 573.917,-254.847 615.044,-245.776"/>
<polygon fill="midnightblue" stroke="midnightblue" points="616.058,-249.136 625.07,-243.565 614.551,-242.3 616.058,-249.136"/>
</g>
<!-- Node4 -->
<g id="node4" class="node"><title>Node4</title>
<g id="a_node4"><a xlink:href="stringUtils_8h.html" target="_top" xlink:title="Contains declarations for string manipulation functions within Cantera. ">
<polygon fill="white" stroke="black" points="393.5,-112.5 393.5,-131.5 518.5,-131.5 518.5,-112.5 393.5,-112.5"/>
<text text-anchor="middle" x="456" y="-119.5" font-family="FreeSans" font-size="10.00">cantera/base/stringUtils.h</text>
</a>
</g>
</g>
<!-- Node3&#45;&gt;Node4 -->
<g id="edge3" class="edge"><title>Node3&#45;&gt;Node4</title>
<path fill="none" stroke="midnightblue" d="M456,-168.083C456,-161.006 456,-150.861 456,-141.986"/>
<polygon fill="midnightblue" stroke="midnightblue" points="459.5,-141.751 456,-131.751 452.5,-141.751 459.5,-141.751"/>
</g>
<!-- Node7 -->
<g id="node7" class="node"><title>Node7</title>
<g id="a_node7"><a xlink:href="ctexceptions_8h.html" target="_top" xlink:title="Definitions for the classes that are thrown when Cantera experiences an error condition (also contain...">
<polygon fill="white" stroke="black" points="607.5,-56.5 607.5,-75.5 744.5,-75.5 744.5,-56.5 607.5,-56.5"/>
<text text-anchor="middle" x="676" y="-63.5" font-family="FreeSans" font-size="10.00">cantera/base/ctexceptions.h</text>
</a>
</g>
</g>
<!-- Node3&#45;&gt;Node7 -->
<g id="edge7" class="edge"><title>Node3&#45;&gt;Node7</title>
<path fill="none" stroke="midnightblue" d="M490.78,-170.842C550.095,-160.184 665.039,-138.788 671,-132 681.843,-119.653 681.995,-100.404 680.095,-86.0529"/>
<polygon fill="midnightblue" stroke="midnightblue" points="683.475,-85.0625 678.297,-75.8193 676.581,-86.2742 683.475,-85.0625"/>
</g>
<!-- Node9 -->
<g id="node9" class="node"><title>Node9</title>
<g id="a_node9"><a xlink:href="refine_8h_source.html" target="_top" xlink:title="refine.h">
<polygon fill="white" stroke="black" points="328.5,-112.5 328.5,-131.5 375.5,-131.5 375.5,-112.5 328.5,-112.5"/>
<text text-anchor="middle" x="352" y="-119.5" font-family="FreeSans" font-size="10.00">refine.h</text>
</a>
</g>
</g>
<!-- Node3&#45;&gt;Node9 -->
<g id="edge10" class="edge"><title>Node3&#45;&gt;Node9</title>
<path fill="none" stroke="midnightblue" d="M439.291,-168.324C422.688,-159.703 396.998,-146.364 377.78,-136.386"/>
<polygon fill="midnightblue" stroke="midnightblue" points="379.156,-133.156 368.668,-131.655 375.93,-139.369 379.156,-133.156"/>
</g>
<!-- Node5 -->
<g id="node5" class="node"><title>Node5</title>
<g id="a_node5"><a xlink:href="ct__defs_8h.html" target="_top" xlink:title="This file contains definitions of terms that are used in internal routines and are unlikely to need m...">
<polygon fill="white" stroke="red" points="291,-56.5 291,-75.5 347,-75.5 347,-56.5 291,-56.5"/>
<text text-anchor="middle" x="319" y="-63.5" font-family="FreeSans" font-size="10.00">ct_defs.h</text>
</a>
</g>
</g>
<!-- Node4&#45;&gt;Node5 -->
<g id="edge4" class="edge"><title>Node4&#45;&gt;Node5</title>
<path fill="none" stroke="midnightblue" d="M434.292,-112.444C411.645,-103.517 375.928,-89.4387 350.248,-79.3168"/>
<polygon fill="midnightblue" stroke="midnightblue" points="351.193,-75.9273 340.606,-75.5164 348.626,-82.4397 351.193,-75.9273"/>
</g>
<!-- Node6 -->
<g id="node6" class="node"><title>Node6</title>
<polygon fill="white" stroke="#bfbfbf" points="436,-0.5 436,-19.5 476,-19.5 476,-0.5 436,-0.5"/>
<text text-anchor="middle" x="456" y="-7.5" font-family="FreeSans" font-size="10.00">string</text>
</g>
<!-- Node4&#45;&gt;Node6 -->
<g id="edge6" class="edge"><title>Node4&#45;&gt;Node6</title>
<path fill="none" stroke="midnightblue" d="M456,-112.368C456,-94.617 456,-53.6664 456,-29.5974"/>
<polygon fill="midnightblue" stroke="midnightblue" points="459.5,-29.5914 456,-19.5914 452.5,-29.5915 459.5,-29.5914"/>
</g>
<!-- Node5&#45;&gt;Node6 -->
<g id="edge5" class="edge"><title>Node5&#45;&gt;Node6</title>
<path fill="none" stroke="midnightblue" d="M340.708,-56.4435C363.754,-47.3596 400.337,-32.9402 426.102,-22.7847"/>
<polygon fill="midnightblue" stroke="midnightblue" points="427.713,-25.9116 435.733,-18.9883 425.146,-19.3992 427.713,-25.9116"/>
</g>
<!-- Node7&#45;&gt;Node6 -->
<g id="edge9" class="edge"><title>Node7&#45;&gt;Node6</title>
<path fill="none" stroke="midnightblue" d="M641.14,-56.4435C598.34,-45.9381 526.469,-28.297 486.015,-18.3673"/>
<polygon fill="midnightblue" stroke="midnightblue" points="486.751,-14.9441 476.205,-15.9593 485.082,-21.7423 486.751,-14.9441"/>
</g>
<!-- Node8 -->
<g id="node8" class="node"><title>Node8</title>
<polygon fill="white" stroke="#bfbfbf" points="647,-0.5 647,-19.5 705,-19.5 705,-0.5 647,-0.5"/>
<text text-anchor="middle" x="676" y="-7.5" font-family="FreeSans" font-size="10.00">exception</text>
</g>
<!-- Node7&#45;&gt;Node8 -->
<g id="edge8" class="edge"><title>Node7&#45;&gt;Node8</title>
<path fill="none" stroke="midnightblue" d="M676,-56.083C676,-49.0059 676,-38.8611 676,-29.9865"/>
<polygon fill="midnightblue" stroke="midnightblue" points="679.5,-29.751 676,-19.7511 672.5,-29.7511 679.5,-29.751"/>
</g>
<!-- Node9&#45;&gt;Node5 -->
<g id="edge11" class="edge"><title>Node9&#45;&gt;Node5</title>
<path fill="none" stroke="midnightblue" d="M346.551,-112.083C341.986,-104.613 335.332,-93.7244 329.707,-84.5199"/>
<polygon fill="midnightblue" stroke="midnightblue" points="332.549,-82.4588 324.348,-75.7511 326.576,-86.109 332.549,-82.4588"/>
</g>
<!-- Node11 -->
<g id="node11" class="node"><title>Node11</title>
<g id="a_node11"><a xlink:href="utilities_8h.html" target="_top" xlink:title="Various templated functions that carry out common vector operations (see Templated Utility Functions)...">
<polygon fill="white" stroke="black" points="158,-168.5 158,-187.5 212,-187.5 212,-168.5 158,-168.5"/>
<text text-anchor="middle" x="185" y="-175.5" font-family="FreeSans" font-size="10.00">utilities.h</text>
</a>
</g>
</g>
<!-- Node10&#45;&gt;Node11 -->
<g id="edge13" class="edge"><title>Node10&#45;&gt;Node11</title>
<path fill="none" stroke="midnightblue" d="M293.56,-224.444C272.33,-215.557 238.901,-201.563 214.745,-191.451"/>
<polygon fill="midnightblue" stroke="midnightblue" points="215.921,-188.149 205.345,-187.516 213.218,-194.606 215.921,-188.149"/>
</g>
<!-- Node15 -->
<g id="node15" class="node"><title>Node15</title>
<polygon fill="white" stroke="#bfbfbf" points="287.5,-168.5 287.5,-187.5 340.5,-187.5 340.5,-168.5 287.5,-168.5"/>
<text text-anchor="middle" x="314" y="-175.5" font-family="FreeSans" font-size="10.00">iostream</text>
</g>
<!-- Node10&#45;&gt;Node15 -->
<g id="edge19" class="edge"><title>Node10&#45;&gt;Node15</title>
<path fill="none" stroke="midnightblue" d="M314,-224.083C314,-217.006 314,-206.861 314,-197.986"/>
<polygon fill="midnightblue" stroke="midnightblue" points="317.5,-197.751 314,-187.751 310.5,-197.751 317.5,-197.751"/>
</g>
<!-- Node16 -->
<g id="node16" class="node"><title>Node16</title>
<polygon fill="white" stroke="#bfbfbf" points="358.5,-168.5 358.5,-187.5 403.5,-187.5 403.5,-168.5 358.5,-168.5"/>
<text text-anchor="middle" x="381" y="-175.5" font-family="FreeSans" font-size="10.00">cstring</text>
</g>
<!-- Node10&#45;&gt;Node16 -->
<g id="edge20" class="edge"><title>Node10&#45;&gt;Node16</title>
<path fill="none" stroke="midnightblue" d="M324.765,-224.324C334.766,-216.263 349.887,-204.077 361.93,-194.369"/>
<polygon fill="midnightblue" stroke="midnightblue" points="364.45,-196.834 370.039,-187.834 360.057,-191.384 364.45,-196.834"/>
</g>
<!-- Node11&#45;&gt;Node5 -->
<g id="edge14" class="edge"><title>Node11&#45;&gt;Node5</title>
<path fill="none" stroke="midnightblue" d="M158.81,-168.415C128.634,-157.149 85.547,-135.969 105,-112 126.689,-85.2756 225.004,-73.8334 280.523,-69.4317"/>
<polygon fill="midnightblue" stroke="midnightblue" points="280.984,-72.907 290.693,-68.6661 280.458,-65.9268 280.984,-72.907"/>
</g>
<!-- Node12 -->
<g id="node12" class="node"><title>Node12</title>
<g id="a_node12"><a xlink:href="global_8h.html" target="_top" xlink:title="This file contains definitions for utility functions and text for modules, inputfiles, logs, textlogs, (see Input File Handling, Diagnostic Output, and Writing messages to the screen). ">
<polygon fill="white" stroke="black" points="260,-112.5 260,-131.5 310,-131.5 310,-112.5 260,-112.5"/>
<text text-anchor="middle" x="285" y="-119.5" font-family="FreeSans" font-size="10.00">global.h</text>
</a>
</g>
</g>
<!-- Node11&#45;&gt;Node12 -->
<g id="edge15" class="edge"><title>Node11&#45;&gt;Node12</title>
<path fill="none" stroke="midnightblue" d="M201.067,-168.324C216.958,-159.743 241.507,-146.486 259.958,-136.522"/>
<polygon fill="midnightblue" stroke="midnightblue" points="261.837,-139.486 268.973,-131.655 258.511,-133.326 261.837,-139.486"/>
</g>
<!-- Node13 -->
<g id="node13" class="node"><title>Node13</title>
<polygon fill="white" stroke="#bfbfbf" points="114,-112.5 114,-131.5 172,-131.5 172,-112.5 114,-112.5"/>
<text text-anchor="middle" x="143" y="-119.5" font-family="FreeSans" font-size="10.00">stdexcept</text>
</g>
<!-- Node11&#45;&gt;Node13 -->
<g id="edge17" class="edge"><title>Node11&#45;&gt;Node13</title>
<path fill="none" stroke="midnightblue" d="M178.065,-168.083C172.071,-160.377 163.248,-149.033 155.952,-139.653"/>
<polygon fill="midnightblue" stroke="midnightblue" points="158.709,-137.496 149.806,-131.751 153.183,-141.793 158.709,-137.496"/>
</g>
<!-- Node14 -->
<g id="node14" class="node"><title>Node14</title>
<polygon fill="white" stroke="#bfbfbf" points="190.5,-112.5 190.5,-131.5 241.5,-131.5 241.5,-112.5 190.5,-112.5"/>
<text text-anchor="middle" x="216" y="-119.5" font-family="FreeSans" font-size="10.00">numeric</text>
</g>
<!-- Node11&#45;&gt;Node14 -->
<g id="edge18" class="edge"><title>Node11&#45;&gt;Node14</title>
<path fill="none" stroke="midnightblue" d="M190.119,-168.083C194.408,-160.613 200.658,-149.724 205.942,-140.52"/>
<polygon fill="midnightblue" stroke="midnightblue" points="209.033,-142.166 210.976,-131.751 202.962,-138.681 209.033,-142.166"/>
</g>
<!-- Node12&#45;&gt;Node5 -->
<g id="edge16" class="edge"><title>Node12&#45;&gt;Node5</title>
<path fill="none" stroke="midnightblue" d="M290.614,-112.083C295.367,-104.534 302.318,-93.4948 308.152,-84.2298"/>
<polygon fill="midnightblue" stroke="midnightblue" points="311.124,-86.0783 313.49,-75.7511 305.2,-82.3486 311.124,-86.0783"/>
</g>
<!-- Node18 -->
<g id="node18" class="node"><title>Node18</title>
<g id="a_node18"><a xlink:href="mix__defs_8h.html" target="_top" xlink:title="mix_defs.h">
<polygon fill="white" stroke="black" points="526,-168.5 526,-187.5 588,-187.5 588,-168.5 526,-168.5"/>
<text text-anchor="middle" x="557" y="-175.5" font-family="FreeSans" font-size="10.00">mix_defs.h</text>
</a>
</g>
</g>
<!-- Node17&#45;&gt;Node18 -->
<g id="edge22" class="edge"><title>Node17&#45;&gt;Node18</title>
<path fill="none" stroke="midnightblue" d="M511.082,-224.083C519.171,-216.141 531.195,-204.335 540.91,-194.797"/>
<polygon fill="midnightblue" stroke="midnightblue" points="543.403,-197.254 548.087,-187.751 538.499,-192.26 543.403,-197.254"/>
</g>
<!-- Node19 -->
<g id="node19" class="node"><title>Node19</title>
<g id="a_node19"><a xlink:href="ThermoPhase_8h.html" target="_top" xlink:title="Header file for class ThermoPhase, the base class for phases with thermodynamic properties, and the text for the Module thermoprops (see Thermodynamic Properties and class ThermoPhase). ">
<polygon fill="white" stroke="black" points="622,-168.5 622,-187.5 706,-187.5 706,-168.5 622,-168.5"/>
<text text-anchor="middle" x="664" y="-175.5" font-family="FreeSans" font-size="10.00">ThermoPhase.h</text>
</a>
</g>
</g>
<!-- Node17&#45;&gt;Node19 -->
<g id="edge23" class="edge"><title>Node17&#45;&gt;Node19</title>
<path fill="none" stroke="midnightblue" d="M527.669,-224.444C554.923,-215.359 598.184,-200.939 628.651,-190.783"/>
<polygon fill="midnightblue" stroke="midnightblue" points="630.071,-193.999 638.451,-187.516 627.857,-187.358 630.071,-193.999"/>
</g>
<!-- Node20 -->
<g id="node20" class="node"><title>Node20</title>
<g id="a_node20"><a xlink:href="Phase_8h.html" target="_top" xlink:title="Header file for class Phase. ">
<polygon fill="white" stroke="red" points="723.5,-112.5 723.5,-131.5 774.5,-131.5 774.5,-112.5 723.5,-112.5"/>
<text text-anchor="middle" x="749" y="-119.5" font-family="FreeSans" font-size="10.00">Phase.h</text>
</a>
</g>
</g>
<!-- Node19&#45;&gt;Node20 -->
<g id="edge24" class="edge"><title>Node19&#45;&gt;Node20</title>
<path fill="none" stroke="midnightblue" d="M677.657,-168.324C690.916,-159.9 711.268,-146.971 726.846,-137.074"/>
<polygon fill="midnightblue" stroke="midnightblue" points="728.813,-139.971 735.377,-131.655 725.06,-134.063 728.813,-139.971"/>
</g>
<!-- Node21 -->
<g id="node21" class="node"><title>Node21</title>
<g id="a_node21"><a xlink:href="SpeciesThermo_8h.html" target="_top" xlink:title="Virtual base class for the calculation of multiple&#45;species thermodynamic reference&#45;state property man...">
<polygon fill="white" stroke="black" points="537,-112.5 537,-131.5 629,-131.5 629,-112.5 537,-112.5"/>
<text text-anchor="middle" x="583" y="-119.5" font-family="FreeSans" font-size="10.00">SpeciesThermo.h</text>
</a>
</g>
</g>
<!-- Node19&#45;&gt;Node21 -->
<g id="edge26" class="edge"><title>Node19&#45;&gt;Node21</title>
<path fill="none" stroke="midnightblue" d="M650.986,-168.324C638.468,-159.979 619.318,-147.212 604.529,-137.352"/>
<polygon fill="midnightblue" stroke="midnightblue" points="606.244,-134.289 595.982,-131.655 602.361,-140.114 606.244,-134.289"/>
</g>
<!-- Node20&#45;&gt;Node7 -->
<g id="edge25" class="edge"><title>Node20&#45;&gt;Node7</title>
<path fill="none" stroke="midnightblue" d="M737.271,-112.324C726.163,-104.107 709.258,-91.6017 696.017,-81.8069"/>
<polygon fill="midnightblue" stroke="midnightblue" points="698.063,-78.9671 687.942,-75.8339 693.9,-84.5948 698.063,-78.9671"/>
</g>
<!-- Node21&#45;&gt;Node5 -->
<g id="edge27" class="edge"><title>Node21&#45;&gt;Node5</title>
<path fill="none" stroke="midnightblue" d="M541.168,-112.444C490.538,-102.087 406.007,-84.7969 357.11,-74.7952"/>
<polygon fill="midnightblue" stroke="midnightblue" points="357.74,-71.3518 347.242,-72.7767 356.338,-78.2098 357.74,-71.3518"/>
</g>
<!-- Node22&#45;&gt;Node18 -->
<g id="edge30" class="edge"><title>Node22&#45;&gt;Node18</title>
<path fill="none" stroke="midnightblue" d="M646.809,-224.324C629.649,-215.664 603.054,-202.242 583.253,-192.249"/>
<polygon fill="midnightblue" stroke="midnightblue" points="584.653,-189.035 574.149,-187.655 581.499,-195.285 584.653,-189.035"/>
</g>
<!-- Node22&#45;&gt;Node19 -->
<g id="edge29" class="edge"><title>Node22&#45;&gt;Node19</title>
<path fill="none" stroke="midnightblue" d="M664,-224.083C664,-217.006 664,-206.861 664,-197.986"/>
<polygon fill="midnightblue" stroke="midnightblue" points="667.5,-197.751 664,-187.751 660.5,-197.751 667.5,-197.751"/>
</g>
<!-- Node23&#45;&gt;Node5 -->
<g id="edge32" class="edge"><title>Node23&#45;&gt;Node5</title>
<path fill="none" stroke="midnightblue" d="M176.886,-224.423C141.521,-204.522 62.8827,-153.727 97,-112 119.789,-84.1276 223.549,-73.1055 280.793,-69.0883"/>
<polygon fill="midnightblue" stroke="midnightblue" points="281.164,-72.5715 290.911,-68.4173 280.701,-65.5868 281.164,-72.5715"/>
</g>
<!-- Node24 -->
<g id="node24" class="node"><title>Node24</title>
<g id="a_node24"><a xlink:href="xml_8h.html" target="_top" xlink:title="Classes providing support for XML data files. ">
<polygon fill="white" stroke="black" points="230.5,-168.5 230.5,-187.5 269.5,-187.5 269.5,-168.5 230.5,-168.5"/>
<text text-anchor="middle" x="250" y="-175.5" font-family="FreeSans" font-size="10.00">xml.h</text>
</a>
</g>
</g>
<!-- Node23&#45;&gt;Node24 -->
<g id="edge33" class="edge"><title>Node23&#45;&gt;Node24</title>
<path fill="none" stroke="midnightblue" d="M202.158,-224.324C210.501,-216.42 223.032,-204.548 233.177,-194.938"/>
<polygon fill="midnightblue" stroke="midnightblue" points="235.823,-197.252 240.675,-187.834 231.009,-192.171 235.823,-197.252"/>
</g>
<!-- Node24&#45;&gt;Node7 -->
<g id="edge34" class="edge"><title>Node24&#45;&gt;Node7</title>
<path fill="none" stroke="midnightblue" d="M269.746,-170.083C272.494,-169.288 275.301,-168.562 278,-168 356.71,-151.607 570.343,-175.434 638,-132 654.641,-121.317 664.884,-100.561 670.48,-85.3681"/>
<polygon fill="midnightblue" stroke="midnightblue" points="673.923,-86.1055 673.758,-75.512 667.281,-83.8962 673.923,-86.1055"/>
</g>
<!-- Node24&#45;&gt;Node12 -->
<g id="edge35" class="edge"><title>Node24&#45;&gt;Node12</title>
<path fill="none" stroke="midnightblue" d="M255.78,-168.083C260.672,-160.534 267.827,-149.495 273.833,-140.23"/>
<polygon fill="midnightblue" stroke="midnightblue" points="276.826,-142.046 279.328,-131.751 270.952,-138.239 276.826,-142.046"/>
</g>
<!-- Node25&#45;&gt;Node19 -->
<g id="edge37" class="edge"><title>Node25&#45;&gt;Node19</title>
<path fill="none" stroke="midnightblue" d="M600.082,-280.953C657.374,-267.896 733.613,-249.639 738,-244 754.343,-222.993 723.457,-203.502 696.732,-191.45"/>
<polygon fill="midnightblue" stroke="midnightblue" points="698.107,-188.231 687.537,-187.506 695.348,-194.664 698.107,-188.231"/>
</g>
<!-- Node26&#45;&gt;Node5 -->
<g id="edge39" class="edge"><title>Node26&#45;&gt;Node5</title>
<path fill="none" stroke="midnightblue" d="M59.9585,-286.287C53.6989,-257.168 37.926,-162.236 85,-112 111.085,-84.1634 221.032,-73.0797 280.472,-69.058"/>
<polygon fill="midnightblue" stroke="midnightblue" points="280.847,-72.5411 290.603,-68.4078 280.399,-65.5555 280.847,-72.5411"/>
</g>
</g>
</svg>
