<?xml version="1.0" encoding="UTF-8" standalone="no"?>
<!DOCTYPE svg PUBLIC "-//W3C//DTD SVG 1.1//EN"
 "http://www.w3.org/Graphics/SVG/1.1/DTD/svg11.dtd">
<!-- Generated by graphviz version 2.36.0 (20140111.2315)
 -->
<!-- Title: StFlow.cpp Pages: 1 -->
<svg width="1061pt" height="432pt"
 viewBox="0.00 0.00 1061.00 432.00" xmlns="http://www.w3.org/2000/svg" xmlns:xlink="http://www.w3.org/1999/xlink">
<g id="graph0" class="graph" transform="scale(1 1) rotate(0) translate(4 428)">
<title>StFlow.cpp</title>
<polygon fill="white" stroke="none" points="-4,4 -4,-428 1057,-428 1057,4 -4,4"/>
<!-- Node1 -->
<g id="node1" class="node"><title>Node1</title>
<polygon fill="#bfbfbf" stroke="black" points="842.5,-404.5 842.5,-423.5 907.5,-423.5 907.5,-404.5 842.5,-404.5"/>
<text text-anchor="middle" x="875" y="-411.5" font-family="FreeSans" font-size="10.00">StFlow.cpp</text>
</g>
<!-- Node2 -->
<g id="node2" class="node"><title>Node2</title>
<g id="a_node2"><a xlink:href="StFlow_8h.html" target="_top" xlink:title="cantera/oneD/StFlow.h">
<polygon fill="white" stroke="black" points="420.5,-348.5 420.5,-367.5 535.5,-367.5 535.5,-348.5 420.5,-348.5"/>
<text text-anchor="middle" x="478" y="-355.5" font-family="FreeSans" font-size="10.00">cantera/oneD/StFlow.h</text>
</a>
</g>
</g>
<!-- Node1&#45;&gt;Node2 -->
<g id="edge1" class="edge"><title>Node1&#45;&gt;Node2</title>
<path fill="none" stroke="midnightblue" d="M842.174,-408.535C777.396,-399.724 631.94,-379.939 545.742,-368.214"/>
<polygon fill="midnightblue" stroke="midnightblue" points="546.171,-364.741 535.791,-366.861 545.228,-371.677 546.171,-364.741"/>
</g>
<!-- Node28 -->
<g id="node28" class="node"><title>Node28</title>
<g id="a_node28"><a xlink:href="ctml_8h.html" target="_top" xlink:title="CTML (&quot;Cantera Markup Language&quot;) is the variant of XML that Cantera uses to store data...">
<polygon fill="white" stroke="black" points="848.5,-224.5 848.5,-243.5 949.5,-243.5 949.5,-224.5 848.5,-224.5"/>
<text text-anchor="middle" x="899" y="-231.5" font-family="FreeSans" font-size="10.00">cantera/base/ctml.h</text>
</a>
</g>
</g>
<!-- Node1&#45;&gt;Node28 -->
<g id="edge46" class="edge"><title>Node1&#45;&gt;Node28</title>
<path fill="none" stroke="midnightblue" d="M876.158,-404.415C879.823,-377.227 891.239,-292.563 896.409,-254.217"/>
<polygon fill="midnightblue" stroke="midnightblue" points="899.93,-254.296 897.798,-243.918 892.993,-253.361 899.93,-254.296"/>
</g>
<!-- Node30 -->
<g id="node30" class="node"><title>Node30</title>
<g id="a_node30"><a xlink:href="TransportBase_8h.html" target="_top" xlink:title="Headers for the Transport object, which is the virtual base class for all transport property evaluato...">
<polygon fill="white" stroke="black" points="737.5,-281 737.5,-311 870.5,-311 870.5,-281 737.5,-281"/>
<text text-anchor="start" x="745.5" y="-299" font-family="FreeSans" font-size="10.00">cantera/transport/Transport</text>
<text text-anchor="middle" x="804" y="-288" font-family="FreeSans" font-size="10.00">Base.h</text>
</a>
</g>
</g>
<!-- Node1&#45;&gt;Node30 -->
<g id="edge51" class="edge"><title>Node1&#45;&gt;Node30</title>
<path fill="none" stroke="midnightblue" d="M869.663,-404.281C858.806,-386.543 833.838,-345.749 818.009,-319.888"/>
<polygon fill="midnightblue" stroke="midnightblue" points="820.84,-317.808 812.634,-311.106 814.869,-321.462 820.84,-317.808"/>
</g>
<!-- Node31 -->
<g id="node31" class="node"><title>Node31</title>
<g id="a_node31"><a xlink:href="funcs_8h.html" target="_top" xlink:title="Header for a file containing miscellaneous numerical functions. ">
<polygon fill="white" stroke="black" points="927.5,-348.5 927.5,-367.5 1052.5,-367.5 1052.5,-348.5 927.5,-348.5"/>
<text text-anchor="middle" x="990" y="-355.5" font-family="FreeSans" font-size="10.00">cantera/numerics/funcs.h</text>
</a>
</g>
</g>
<!-- Node1&#45;&gt;Node31 -->
<g id="edge53" class="edge"><title>Node1&#45;&gt;Node31</title>
<path fill="none" stroke="midnightblue" d="M893.222,-404.444C911.896,-395.675 941.156,-381.935 962.617,-371.858"/>
<polygon fill="midnightblue" stroke="midnightblue" points="964.299,-374.935 971.863,-367.516 961.324,-368.599 964.299,-374.935"/>
</g>
<!-- Node3 -->
<g id="node3" class="node"><title>Node3</title>
<g id="a_node3"><a xlink:href="Domain1D_8h.html" target="_top" xlink:title="Domain1D.h">
<polygon fill="white" stroke="black" points="-0.5,-168.5 -0.5,-187.5 68.5,-187.5 68.5,-168.5 -0.5,-168.5"/>
<text text-anchor="middle" x="34" y="-175.5" font-family="FreeSans" font-size="10.00">Domain1D.h</text>
</a>
</g>
</g>
<!-- Node2&#45;&gt;Node3 -->
<g id="edge2" class="edge"><title>Node2&#45;&gt;Node3</title>
<path fill="none" stroke="midnightblue" d="M443.164,-348.444C411.251,-340.256 362.898,-326.964 322,-312 252.498,-286.571 237.17,-275.07 170,-244 131.924,-226.387 88.203,-205.343 60.8389,-192.073"/>
<polygon fill="midnightblue" stroke="midnightblue" points="62.0625,-188.776 51.5382,-187.556 59.0046,-195.073 62.0625,-188.776"/>
</g>
<!-- Node11 -->
<g id="node11" class="node"><title>Node11</title>
<g id="a_node11"><a xlink:href="Array_8h.html" target="_top" xlink:title="Header file for class Cantera::Array2D. ">
<polygon fill="white" stroke="black" points="179.5,-224.5 179.5,-243.5 284.5,-243.5 284.5,-224.5 179.5,-224.5"/>
<text text-anchor="middle" x="232" y="-231.5" font-family="FreeSans" font-size="10.00">cantera/base/Array.h</text>
</a>
</g>
</g>
<!-- Node2&#45;&gt;Node11 -->
<g id="edge14" class="edge"><title>Node2&#45;&gt;Node11</title>
<path fill="none" stroke="midnightblue" d="M460.702,-348.421C418.269,-327.377 308.813,-273.094 258.281,-248.034"/>
<polygon fill="midnightblue" stroke="midnightblue" points="259.793,-244.877 249.279,-243.569 256.683,-251.148 259.793,-244.877"/>
</g>
<!-- Node18 -->
<g id="node18" class="node"><title>Node18</title>
<g id="a_node18"><a xlink:href="IdealGasPhase_8h.html" target="_top" xlink:title="ThermoPhase object for the ideal gas equation of state &#45; workhorse for Cantera (see Thermodynamic Pro...">
<polygon fill="white" stroke="black" points="561,-286.5 561,-305.5 719,-305.5 719,-286.5 561,-286.5"/>
<text text-anchor="middle" x="640" y="-293.5" font-family="FreeSans" font-size="10.00">cantera/thermo/IdealGasPhase.h</text>
</a>
</g>
</g>
<!-- Node2&#45;&gt;Node18 -->
<g id="edge24" class="edge"><title>Node2&#45;&gt;Node18</title>
<path fill="none" stroke="midnightblue" d="M501.211,-348.403C528.999,-338.111 575.723,-320.806 607.194,-309.15"/>
<polygon fill="midnightblue" stroke="midnightblue" points="608.671,-312.336 616.832,-305.581 606.239,-305.772 608.671,-312.336"/>
</g>
<!-- Node23 -->
<g id="node23" class="node"><title>Node23</title>
<g id="a_node23"><a xlink:href="Kinetics_8h.html" target="_top" xlink:title="Base class for kinetics managers and also contains the kineticsmgr module documentation (see Kinetics...">
<polygon fill="white" stroke="black" points="413,-286.5 413,-305.5 543,-305.5 543,-286.5 413,-286.5"/>
<text text-anchor="middle" x="478" y="-293.5" font-family="FreeSans" font-size="10.00">cantera/kinetics/Kinetics.h</text>
</a>
</g>
</g>
<!-- Node2&#45;&gt;Node23 -->
<g id="edge32" class="edge"><title>Node2&#45;&gt;Node23</title>
<path fill="none" stroke="midnightblue" d="M478,-348.403C478,-339.938 478,-326.728 478,-315.82"/>
<polygon fill="midnightblue" stroke="midnightblue" points="481.5,-315.581 478,-305.581 474.5,-315.581 481.5,-315.581"/>
</g>
<!-- Node4 -->
<g id="node4" class="node"><title>Node4</title>
<g id="a_node4"><a xlink:href="stringUtils_8h.html" target="_top" xlink:title="Contains declarations for string manipulation functions within Cantera. ">
<polygon fill="white" stroke="black" points="95.5,-112.5 95.5,-131.5 220.5,-131.5 220.5,-112.5 95.5,-112.5"/>
<text text-anchor="middle" x="158" y="-119.5" font-family="FreeSans" font-size="10.00">cantera/base/stringUtils.h</text>
</a>
</g>
</g>
<!-- Node3&#45;&gt;Node4 -->
<g id="edge3" class="edge"><title>Node3&#45;&gt;Node4</title>
<path fill="none" stroke="midnightblue" d="M53.6482,-168.444C73.9645,-159.596 105.903,-145.687 129.098,-135.586"/>
<polygon fill="midnightblue" stroke="midnightblue" points="130.673,-138.718 138.444,-131.516 127.878,-132.3 130.673,-138.718"/>
</g>
<!-- Node8 -->
<g id="node8" class="node"><title>Node8</title>
<g id="a_node8"><a xlink:href="ctexceptions_8h.html" target="_top" xlink:title="Definitions for the classes that are thrown when Cantera experiences an error condition (also contain...">
<polygon fill="white" stroke="black" points="309.5,-112.5 309.5,-131.5 446.5,-131.5 446.5,-112.5 309.5,-112.5"/>
<text text-anchor="middle" x="378" y="-119.5" font-family="FreeSans" font-size="10.00">cantera/base/ctexceptions.h</text>
</a>
</g>
</g>
<!-- Node3&#45;&gt;Node8 -->
<g id="edge8" class="edge"><title>Node3&#45;&gt;Node8</title>
<path fill="none" stroke="midnightblue" d="M68.5591,-171.575C125.838,-162.584 241.31,-144.457 313.859,-133.069"/>
<polygon fill="midnightblue" stroke="midnightblue" points="314.464,-136.517 323.801,-131.508 313.379,-129.601 314.464,-136.517"/>
</g>
<!-- Node10 -->
<g id="node10" class="node"><title>Node10</title>
<g id="a_node10"><a xlink:href="refine_8h_source.html" target="_top" xlink:title="refine.h">
<polygon fill="white" stroke="black" points="20.5,-112.5 20.5,-131.5 67.5,-131.5 67.5,-112.5 20.5,-112.5"/>
<text text-anchor="middle" x="44" y="-119.5" font-family="FreeSans" font-size="10.00">refine.h</text>
</a>
</g>
</g>
<!-- Node3&#45;&gt;Node10 -->
<g id="edge12" class="edge"><title>Node3&#45;&gt;Node10</title>
<path fill="none" stroke="midnightblue" d="M35.6513,-168.083C36.9764,-160.927 38.8824,-150.635 40.5387,-141.691"/>
<polygon fill="midnightblue" stroke="midnightblue" points="43.9999,-142.221 42.3794,-131.751 37.117,-140.947 43.9999,-142.221"/>
</g>
<!-- Node5 -->
<g id="node5" class="node"><title>Node5</title>
<g id="a_node5"><a xlink:href="ct__defs_8h.html" target="_top" xlink:title="This file contains definitions of terms that are used in internal routines and are unlikely to need m...">
<polygon fill="white" stroke="red" points="618,-56.5 618,-75.5 674,-75.5 674,-56.5 618,-56.5"/>
<text text-anchor="middle" x="646" y="-63.5" font-family="FreeSans" font-size="10.00">ct_defs.h</text>
</a>
</g>
</g>
<!-- Node4&#45;&gt;Node5 -->
<g id="edge4" class="edge"><title>Node4&#45;&gt;Node5</title>
<path fill="none" stroke="midnightblue" d="M220.712,-112.986C223.513,-112.649 226.285,-112.319 229,-112 368.239,-95.6636 533.904,-78.4468 607.49,-70.914"/>
<polygon fill="midnightblue" stroke="midnightblue" points="608.073,-74.3728 617.665,-69.8742 607.361,-67.4091 608.073,-74.3728"/>
</g>
<!-- Node6 -->
<g id="node6" class="node"><title>Node6</title>
<polygon fill="white" stroke="#bfbfbf" points="358,-0.5 358,-19.5 398,-19.5 398,-0.5 358,-0.5"/>
<text text-anchor="middle" x="378" y="-7.5" font-family="FreeSans" font-size="10.00">string</text>
</g>
<!-- Node4&#45;&gt;Node6 -->
<g id="edge7" class="edge"><title>Node4&#45;&gt;Node6</title>
<path fill="none" stroke="midnightblue" d="M166.421,-112.177C180.045,-98.3713 208.3,-71.6306 237,-56 272.774,-36.5166 318.313,-23.907 347.803,-17.1294"/>
<polygon fill="midnightblue" stroke="midnightblue" points="348.888,-20.4741 357.894,-14.8944 347.374,-13.6398 348.888,-20.4741"/>
</g>
<!-- Node7 -->
<g id="node7" class="node"><title>Node7</title>
<polygon fill="white" stroke="#bfbfbf" points="246.5,-56.5 246.5,-75.5 349.5,-75.5 349.5,-56.5 246.5,-56.5"/>
<text text-anchor="middle" x="298" y="-63.5" font-family="FreeSans" font-size="10.00">cantera/ext/format.h</text>
</g>
<!-- Node4&#45;&gt;Node7 -->
<g id="edge6" class="edge"><title>Node4&#45;&gt;Node7</title>
<path fill="none" stroke="midnightblue" d="M180.183,-112.444C203.428,-103.478 240.149,-89.314 266.415,-79.1827"/>
<polygon fill="midnightblue" stroke="midnightblue" points="267.85,-82.3807 275.92,-75.5164 265.331,-75.8497 267.85,-82.3807"/>
</g>
<!-- Node5&#45;&gt;Node6 -->
<g id="edge5" class="edge"><title>Node5&#45;&gt;Node6</title>
<path fill="none" stroke="midnightblue" d="M617.826,-59.3231C567.031,-49.0884 460.538,-27.6308 408.261,-17.0973"/>
<polygon fill="midnightblue" stroke="midnightblue" points="408.758,-13.6273 398.264,-15.083 407.375,-20.4893 408.758,-13.6273"/>
</g>
<!-- Node8&#45;&gt;Node6 -->
<g id="edge10" class="edge"><title>Node8&#45;&gt;Node6</title>
<path fill="none" stroke="midnightblue" d="M378,-112.368C378,-94.617 378,-53.6664 378,-29.5974"/>
<polygon fill="midnightblue" stroke="midnightblue" points="381.5,-29.5914 378,-19.5914 374.5,-29.5915 381.5,-29.5914"/>
</g>
<!-- Node8&#45;&gt;Node7 -->
<g id="edge11" class="edge"><title>Node8&#45;&gt;Node7</title>
<path fill="none" stroke="midnightblue" d="M365.147,-112.324C352.784,-103.979 333.87,-91.2122 319.263,-81.3524"/>
<polygon fill="midnightblue" stroke="midnightblue" points="321.068,-78.3483 310.821,-75.6545 317.152,-84.1503 321.068,-78.3483"/>
</g>
<!-- Node9 -->
<g id="node9" class="node"><title>Node9</title>
<polygon fill="white" stroke="#bfbfbf" points="406,-56.5 406,-75.5 464,-75.5 464,-56.5 406,-56.5"/>
<text text-anchor="middle" x="435" y="-63.5" font-family="FreeSans" font-size="10.00">exception</text>
</g>
<!-- Node8&#45;&gt;Node9 -->
<g id="edge9" class="edge"><title>Node8&#45;&gt;Node9</title>
<path fill="none" stroke="midnightblue" d="M387.158,-112.324C395.501,-104.42 408.032,-92.5482 418.177,-82.9377"/>
<polygon fill="midnightblue" stroke="midnightblue" points="420.823,-85.2522 425.675,-75.8339 416.009,-80.1705 420.823,-85.2522"/>
</g>
<!-- Node10&#45;&gt;Node5 -->
<g id="edge13" class="edge"><title>Node10&#45;&gt;Node5</title>
<path fill="none" stroke="midnightblue" d="M67.8891,-115.315C73.7824,-114.069 80.0974,-112.866 86,-112 187.215,-97.1541 498.548,-76.4242 607.703,-69.4205"/>
<polygon fill="midnightblue" stroke="midnightblue" points="608.164,-72.8983 617.92,-68.7673 607.717,-65.9126 608.164,-72.8983"/>
</g>
<!-- Node12 -->
<g id="node12" class="node"><title>Node12</title>
<g id="a_node12"><a xlink:href="utilities_8h.html" target="_top" xlink:title="Various templated functions that carry out common vector operations (see Templated Utility Functions)...">
<polygon fill="white" stroke="black" points="451,-168.5 451,-187.5 505,-187.5 505,-168.5 451,-168.5"/>
<text text-anchor="middle" x="478" y="-175.5" font-family="FreeSans" font-size="10.00">utilities.h</text>
</a>
</g>
</g>
<!-- Node11&#45;&gt;Node12 -->
<g id="edge15" class="edge"><title>Node11&#45;&gt;Node12</title>
<path fill="none" stroke="midnightblue" d="M273.314,-224.442C315.526,-215.619 382.935,-201.311 441,-188 441.101,-187.977 441.202,-187.954 441.302,-187.931"/>
<polygon fill="midnightblue" stroke="midnightblue" points="442.005,-191.361 450.942,-185.669 440.407,-184.546 442.005,-191.361"/>
</g>
<!-- Node16 -->
<g id="node16" class="node"><title>Node16</title>
<polygon fill="white" stroke="#bfbfbf" points="238.5,-112.5 238.5,-131.5 291.5,-131.5 291.5,-112.5 238.5,-112.5"/>
<text text-anchor="middle" x="265" y="-119.5" font-family="FreeSans" font-size="10.00">iostream</text>
</g>
<!-- Node11&#45;&gt;Node16 -->
<g id="edge22" class="edge"><title>Node11&#45;&gt;Node16</title>
<path fill="none" stroke="midnightblue" d="M183.679,-224.411C142.917,-214.953 94.392,-197.098 116,-168 119.458,-163.343 185.329,-144.684 228.319,-132.904"/>
<polygon fill="midnightblue" stroke="midnightblue" points="229.448,-136.224 238.173,-130.214 227.605,-129.471 229.448,-136.224"/>
</g>
<!-- Node17 -->
<g id="node17" class="node"><title>Node17</title>
<polygon fill="white" stroke="#bfbfbf" points="125.5,-168.5 125.5,-187.5 170.5,-187.5 170.5,-168.5 125.5,-168.5"/>
<text text-anchor="middle" x="148" y="-175.5" font-family="FreeSans" font-size="10.00">cstring</text>
</g>
<!-- Node11&#45;&gt;Node17 -->
<g id="edge23" class="edge"><title>Node11&#45;&gt;Node17</title>
<path fill="none" stroke="midnightblue" d="M218.504,-224.324C205.4,-215.9 185.288,-202.971 169.893,-193.074"/>
<polygon fill="midnightblue" stroke="midnightblue" points="171.767,-190.118 161.463,-187.655 167.982,-196.006 171.767,-190.118"/>
</g>
<!-- Node12&#45;&gt;Node5 -->
<g id="edge16" class="edge"><title>Node12&#45;&gt;Node5</title>
<path fill="none" stroke="midnightblue" d="M505.173,-169.046C536.256,-159.595 584.817,-143.642 600,-132 616.401,-119.424 629.334,-99.3688 637.256,-84.8589"/>
<polygon fill="midnightblue" stroke="midnightblue" points="640.426,-86.3485 641.921,-75.8596 634.212,-83.127 640.426,-86.3485"/>
</g>
<!-- Node13 -->
<g id="node13" class="node"><title>Node13</title>
<g id="a_node13"><a xlink:href="global_8h.html" target="_top" xlink:title="This file contains definitions for utility functions and text for modules, inputfiles, logs, textlogs, (see Input File Handling, Diagnostic Output, and Writing messages to the screen). ">
<polygon fill="white" stroke="black" points="648,-112.5 648,-131.5 698,-131.5 698,-112.5 648,-112.5"/>
<text text-anchor="middle" x="673" y="-119.5" font-family="FreeSans" font-size="10.00">global.h</text>
</a>
</g>
</g>
<!-- Node12&#45;&gt;Node13 -->
<g id="edge17" class="edge"><title>Node12&#45;&gt;Node13</title>
<path fill="none" stroke="midnightblue" d="M505.114,-169.492C539.89,-159.861 600.245,-143.148 638.327,-132.602"/>
<polygon fill="midnightblue" stroke="midnightblue" points="639.265,-135.974 647.969,-129.932 637.397,-129.228 639.265,-135.974"/>
</g>
<!-- Node14 -->
<g id="node14" class="node"><title>Node14</title>
<polygon fill="white" stroke="#bfbfbf" points="534,-112.5 534,-131.5 592,-131.5 592,-112.5 534,-112.5"/>
<text text-anchor="middle" x="563" y="-119.5" font-family="FreeSans" font-size="10.00">stdexcept</text>
</g>
<!-- Node12&#45;&gt;Node14 -->
<g id="edge20" class="edge"><title>Node12&#45;&gt;Node14</title>
<path fill="none" stroke="midnightblue" d="M491.657,-168.324C504.916,-159.9 525.268,-146.971 540.846,-137.074"/>
<polygon fill="midnightblue" stroke="midnightblue" points="542.813,-139.971 549.377,-131.655 539.06,-134.063 542.813,-139.971"/>
</g>
<!-- Node15 -->
<g id="node15" class="node"><title>Node15</title>
<polygon fill="white" stroke="#bfbfbf" points="464.5,-112.5 464.5,-131.5 515.5,-131.5 515.5,-112.5 464.5,-112.5"/>
<text text-anchor="middle" x="490" y="-119.5" font-family="FreeSans" font-size="10.00">numeric</text>
</g>
<!-- Node12&#45;&gt;Node15 -->
<g id="edge21" class="edge"><title>Node12&#45;&gt;Node15</title>
<path fill="none" stroke="midnightblue" d="M479.982,-168.083C481.572,-160.927 483.859,-150.635 485.846,-141.691"/>
<polygon fill="midnightblue" stroke="midnightblue" points="489.303,-142.272 488.055,-131.751 482.469,-140.754 489.303,-142.272"/>
</g>
<!-- Node13&#45;&gt;Node5 -->
<g id="edge18" class="edge"><title>Node13&#45;&gt;Node5</title>
<path fill="none" stroke="midnightblue" d="M668.541,-112.083C664.846,-104.691 659.477,-93.9533 654.906,-84.8111"/>
<polygon fill="midnightblue" stroke="midnightblue" points="657.978,-83.1301 650.376,-75.7511 651.717,-86.2606 657.978,-83.1301"/>
</g>
<!-- Node13&#45;&gt;Node7 -->
<g id="edge19" class="edge"><title>Node13&#45;&gt;Node7</title>
<path fill="none" stroke="midnightblue" d="M647.813,-117.373C589.485,-108.974 443.736,-87.986 359.929,-75.9177"/>
<polygon fill="midnightblue" stroke="midnightblue" points="360.173,-72.4169 349.776,-74.4558 359.175,-79.3454 360.173,-72.4169"/>
</g>
<!-- Node19 -->
<g id="node19" class="node"><title>Node19</title>
<g id="a_node19"><a xlink:href="mix__defs_8h.html" target="_top" xlink:title="mix_defs.h">
<polygon fill="white" stroke="black" points="659,-224.5 659,-243.5 721,-243.5 721,-224.5 659,-224.5"/>
<text text-anchor="middle" x="690" y="-231.5" font-family="FreeSans" font-size="10.00">mix_defs.h</text>
</a>
</g>
</g>
<!-- Node18&#45;&gt;Node19 -->
<g id="edge25" class="edge"><title>Node18&#45;&gt;Node19</title>
<path fill="none" stroke="midnightblue" d="M647.164,-286.403C654.738,-277.314 666.87,-262.756 676.293,-251.449"/>
<polygon fill="midnightblue" stroke="midnightblue" points="679.136,-253.503 682.85,-243.581 673.759,-249.022 679.136,-253.503"/>
</g>
<!-- Node20 -->
<g id="node20" class="node"><title>Node20</title>
<g id="a_node20"><a xlink:href="ThermoPhase_8h.html" target="_top" xlink:title="Header file for class ThermoPhase, the base class for phases with thermodynamic properties, and the text for the Module thermoprops (see Thermodynamic Properties and class ThermoPhase). ">
<polygon fill="white" stroke="black" points="739,-224.5 739,-243.5 823,-243.5 823,-224.5 739,-224.5"/>
<text text-anchor="middle" x="781" y="-231.5" font-family="FreeSans" font-size="10.00">ThermoPhase.h</text>
</a>
</g>
</g>
<!-- Node18&#45;&gt;Node20 -->
<g id="edge26" class="edge"><title>Node18&#45;&gt;Node20</title>
<path fill="none" stroke="midnightblue" d="M660.202,-286.403C684.074,-276.245 724.002,-259.255 751.373,-247.607"/>
<polygon fill="midnightblue" stroke="midnightblue" points="753.005,-250.717 760.836,-243.581 750.264,-244.276 753.005,-250.717"/>
</g>
<!-- Node20&#45;&gt;Node13 -->
<g id="edge31" class="edge"><title>Node20&#45;&gt;Node13</title>
<path fill="none" stroke="midnightblue" d="M780.458,-224.416C779.189,-210.939 774.967,-184.64 761,-168 747.16,-151.512 725.751,-140.377 707.516,-133.308"/>
<polygon fill="midnightblue" stroke="midnightblue" points="708.648,-129.996 698.054,-129.884 706.266,-136.578 708.648,-129.996"/>
</g>
<!-- Node21 -->
<g id="node21" class="node"><title>Node21</title>
<g id="a_node21"><a xlink:href="Phase_8h.html" target="_top" xlink:title="Header file for class Phase. ">
<polygon fill="white" stroke="red" points="701.5,-168.5 701.5,-187.5 752.5,-187.5 752.5,-168.5 701.5,-168.5"/>
<text text-anchor="middle" x="727" y="-175.5" font-family="FreeSans" font-size="10.00">Phase.h</text>
</a>
</g>
</g>
<!-- Node20&#45;&gt;Node21 -->
<g id="edge27" class="edge"><title>Node20&#45;&gt;Node21</title>
<path fill="none" stroke="midnightblue" d="M772.083,-224.083C764.22,-216.22 752.569,-204.569 743.081,-195.081"/>
<polygon fill="midnightblue" stroke="midnightblue" points="745.297,-192.347 735.751,-187.751 740.347,-197.297 745.297,-192.347"/>
</g>
<!-- Node22 -->
<g id="node22" class="node"><title>Node22</title>
<g id="a_node22"><a xlink:href="SpeciesThermo_8h.html" target="_top" xlink:title="Virtual base class for the calculation of multiple&#45;species thermodynamic reference&#45;state property man...">
<polygon fill="white" stroke="black" points="756,-112.5 756,-131.5 848,-131.5 848,-112.5 756,-112.5"/>
<text text-anchor="middle" x="802" y="-119.5" font-family="FreeSans" font-size="10.00">SpeciesThermo.h</text>
</a>
</g>
</g>
<!-- Node20&#45;&gt;Node22 -->
<g id="edge29" class="edge"><title>Node20&#45;&gt;Node22</title>
<path fill="none" stroke="midnightblue" d="M809.015,-224.397C826.174,-217.515 846.748,-205.984 857,-188 868.11,-168.511 846.72,-149.286 827.458,-136.861"/>
<polygon fill="midnightblue" stroke="midnightblue" points="829.246,-133.852 818.882,-131.654 825.613,-139.836 829.246,-133.852"/>
</g>
<!-- Node21&#45;&gt;Node8 -->
<g id="edge28" class="edge"><title>Node21&#45;&gt;Node8</title>
<path fill="none" stroke="midnightblue" d="M701.337,-173.029C647.479,-164.696 521.217,-145.16 443.367,-133.114"/>
<polygon fill="midnightblue" stroke="midnightblue" points="443.603,-129.609 433.185,-131.539 442.532,-136.527 443.603,-129.609"/>
</g>
<!-- Node22&#45;&gt;Node5 -->
<g id="edge30" class="edge"><title>Node22&#45;&gt;Node5</title>
<path fill="none" stroke="midnightblue" d="M777.281,-112.444C751.152,-103.399 709.741,-89.064 680.424,-78.9158"/>
<polygon fill="midnightblue" stroke="midnightblue" points="681.198,-75.4801 670.603,-75.5164 678.908,-82.0951 681.198,-75.4801"/>
</g>
<!-- Node23&#45;&gt;Node13 -->
<g id="edge45" class="edge"><title>Node23&#45;&gt;Node13</title>
<path fill="none" stroke="midnightblue" d="M502.824,-286.416C540.78,-272.032 613.031,-239.472 653,-188 663.399,-174.608 668.425,-155.786 670.833,-141.841"/>
<polygon fill="midnightblue" stroke="midnightblue" points="674.304,-142.294 672.256,-131.899 667.375,-141.302 674.304,-142.294"/>
</g>
<!-- Node23&#45;&gt;Node19 -->
<g id="edge37" class="edge"><title>Node23&#45;&gt;Node19</title>
<path fill="none" stroke="midnightblue" d="M508.374,-286.403C545.606,-275.866 608.81,-257.978 649.976,-246.328"/>
<polygon fill="midnightblue" stroke="midnightblue" points="651.013,-249.672 659.682,-243.581 649.107,-242.936 651.013,-249.672"/>
</g>
<!-- Node23&#45;&gt;Node20 -->
<g id="edge33" class="edge"><title>Node23&#45;&gt;Node20</title>
<path fill="none" stroke="midnightblue" d="M519.866,-286.468C530.356,-284.343 541.588,-282.078 552,-280 612.708,-267.882 682.523,-254.2 728.949,-245.137"/>
<polygon fill="midnightblue" stroke="midnightblue" points="729.634,-248.569 738.778,-243.219 728.293,-241.699 729.634,-248.569"/>
</g>
<!-- Node24 -->
<g id="node24" class="node"><title>Node24</title>
<g id="a_node24"><a xlink:href="StoichManager_8h.html" target="_top" xlink:title="StoichManager.h">
<polygon fill="white" stroke="black" points="188.5,-168.5 188.5,-187.5 277.5,-187.5 277.5,-168.5 188.5,-168.5"/>
<text text-anchor="middle" x="233" y="-175.5" font-family="FreeSans" font-size="10.00">StoichManager.h</text>
</a>
</g>
</g>
<!-- Node23&#45;&gt;Node24 -->
<g id="edge34" class="edge"><title>Node23&#45;&gt;Node24</title>
<path fill="none" stroke="midnightblue" d="M459.985,-286.47C417.508,-266.359 310.88,-215.874 260.362,-191.955"/>
<polygon fill="midnightblue" stroke="midnightblue" points="261.578,-188.658 251.042,-187.542 258.582,-194.985 261.578,-188.658"/>
</g>
<!-- Node25 -->
<g id="node25" class="node"><title>Node25</title>
<g id="a_node25"><a xlink:href="Reaction_8h.html" target="_top" xlink:title="cantera/kinetics/Reaction.h">
<polygon fill="white" stroke="black" points="411,-224.5 411,-243.5 545,-243.5 545,-224.5 411,-224.5"/>
<text text-anchor="middle" x="478" y="-231.5" font-family="FreeSans" font-size="10.00">cantera/kinetics/Reaction.h</text>
</a>
</g>
</g>
<!-- Node23&#45;&gt;Node25 -->
<g id="edge38" class="edge"><title>Node23&#45;&gt;Node25</title>
<path fill="none" stroke="midnightblue" d="M478,-286.403C478,-277.938 478,-264.728 478,-253.82"/>
<polygon fill="midnightblue" stroke="midnightblue" points="481.5,-253.581 478,-243.581 474.5,-253.581 481.5,-253.581"/>
</g>
<!-- Node24&#45;&gt;Node4 -->
<g id="edge35" class="edge"><title>Node24&#45;&gt;Node4</title>
<path fill="none" stroke="midnightblue" d="M220.95,-168.324C209.537,-160.107 192.169,-147.602 178.565,-137.807"/>
<polygon fill="midnightblue" stroke="midnightblue" points="180.43,-134.837 170.269,-131.834 176.34,-140.517 180.43,-134.837"/>
</g>
<!-- Node24&#45;&gt;Node8 -->
<g id="edge36" class="edge"><title>Node24&#45;&gt;Node8</title>
<path fill="none" stroke="midnightblue" d="M255.976,-168.444C280.157,-159.438 318.418,-145.189 345.646,-135.049"/>
<polygon fill="midnightblue" stroke="midnightblue" points="346.982,-138.286 355.132,-131.516 344.539,-131.727 346.982,-138.286"/>
</g>
<!-- Node25&#45;&gt;Node12 -->
<g id="edge39" class="edge"><title>Node25&#45;&gt;Node12</title>
<path fill="none" stroke="midnightblue" d="M478,-224.083C478,-217.006 478,-206.861 478,-197.986"/>
<polygon fill="midnightblue" stroke="midnightblue" points="481.5,-197.751 478,-187.751 474.5,-197.751 481.5,-197.751"/>
</g>
<!-- Node26 -->
<g id="node26" class="node"><title>Node26</title>
<g id="a_node26"><a xlink:href="RxnRates_8h.html" target="_top" xlink:title="cantera/kinetics/RxnRates.h">
<polygon fill="white" stroke="red" points="295.5,-168.5 295.5,-187.5 432.5,-187.5 432.5,-168.5 295.5,-168.5"/>
<text text-anchor="middle" x="364" y="-175.5" font-family="FreeSans" font-size="10.00">cantera/kinetics/RxnRates.h</text>
</a>
</g>
</g>
<!-- Node25&#45;&gt;Node26 -->
<g id="edge40" class="edge"><title>Node25&#45;&gt;Node26</title>
<path fill="none" stroke="midnightblue" d="M459.936,-224.444C441.425,-215.675 412.419,-201.935 391.145,-191.858"/>
<polygon fill="midnightblue" stroke="midnightblue" points="392.515,-188.634 381.979,-187.516 389.518,-194.96 392.515,-188.634"/>
</g>
<!-- Node27 -->
<g id="node27" class="node"><title>Node27</title>
<g id="a_node27"><a xlink:href="Falloff_8h_source.html" target="_top" xlink:title="cantera/kinetics/Falloff.h">
<polygon fill="white" stroke="red" points="523.5,-168.5 523.5,-187.5 644.5,-187.5 644.5,-168.5 523.5,-168.5"/>
<text text-anchor="middle" x="584" y="-175.5" font-family="FreeSans" font-size="10.00">cantera/kinetics/Falloff.h</text>
</a>
</g>
</g>
<!-- Node25&#45;&gt;Node27 -->
<g id="edge44" class="edge"><title>Node25&#45;&gt;Node27</title>
<path fill="none" stroke="midnightblue" d="M495.031,-224.324C512.03,-215.664 538.376,-202.242 557.993,-192.249"/>
<polygon fill="midnightblue" stroke="midnightblue" points="559.69,-195.312 567.012,-187.655 556.512,-189.075 559.69,-195.312"/>
</g>
<!-- Node26&#45;&gt;Node4 -->
<g id="edge42" class="edge"><title>Node26&#45;&gt;Node4</title>
<path fill="none" stroke="midnightblue" d="M331.359,-168.444C295.95,-159.162 239.291,-144.309 200.447,-134.127"/>
<polygon fill="midnightblue" stroke="midnightblue" points="201.049,-130.667 190.489,-131.516 199.274,-137.438 201.049,-130.667"/>
</g>
<!-- Node26&#45;&gt;Node8 -->
<g id="edge41" class="edge"><title>Node26&#45;&gt;Node8</title>
<path fill="none" stroke="midnightblue" d="M366.312,-168.083C368.167,-160.927 370.835,-150.635 373.154,-141.691"/>
<polygon fill="midnightblue" stroke="midnightblue" points="376.609,-142.309 375.731,-131.751 369.834,-140.553 376.609,-142.309"/>
</g>
<!-- Node26&#45;&gt;Node16 -->
<g id="edge43" class="edge"><title>Node26&#45;&gt;Node16</title>
<path fill="none" stroke="midnightblue" d="M348.094,-168.324C332.362,-159.743 308.058,-146.486 289.791,-136.522"/>
<polygon fill="midnightblue" stroke="midnightblue" points="291.322,-133.37 280.867,-131.655 287.97,-139.516 291.322,-133.37"/>
</g>
<!-- Node28&#45;&gt;Node5 -->
<g id="edge47" class="edge"><title>Node28&#45;&gt;Node5</title>
<path fill="none" stroke="midnightblue" d="M898.749,-224.426C897.608,-202.195 891.335,-142.322 857,-112 831.798,-89.7438 738.172,-76.5723 684.487,-70.6893"/>
<polygon fill="midnightblue" stroke="midnightblue" points="684.628,-67.1847 674.314,-69.6093 683.889,-74.1456 684.628,-67.1847"/>
</g>
<!-- Node29 -->
<g id="node29" class="node"><title>Node29</title>
<g id="a_node29"><a xlink:href="xml_8h.html" target="_top" xlink:title="Classes providing support for XML data files. ">
<polygon fill="white" stroke="black" points="809.5,-168.5 809.5,-187.5 848.5,-187.5 848.5,-168.5 809.5,-168.5"/>
<text text-anchor="middle" x="829" y="-175.5" font-family="FreeSans" font-size="10.00">xml.h</text>
</a>
</g>
</g>
<!-- Node28&#45;&gt;Node29 -->
<g id="edge48" class="edge"><title>Node28&#45;&gt;Node29</title>
<path fill="none" stroke="midnightblue" d="M887.753,-224.324C877.203,-216.185 861.199,-203.839 848.558,-194.087"/>
<polygon fill="midnightblue" stroke="midnightblue" points="850.507,-191.171 840.451,-187.834 846.231,-196.713 850.507,-191.171"/>
</g>
<!-- Node29&#45;&gt;Node8 -->
<g id="edge49" class="edge"><title>Node29&#45;&gt;Node8</title>
<path fill="none" stroke="midnightblue" d="M809.37,-174.325C795.793,-172.493 777.307,-170.037 761,-168 746.137,-166.143 564.854,-144.888 457.113,-132.265"/>
<polygon fill="midnightblue" stroke="midnightblue" points="457.264,-128.759 446.924,-131.072 456.449,-135.712 457.264,-128.759"/>
</g>
<!-- Node29&#45;&gt;Node13 -->
<g id="edge50" class="edge"><title>Node29&#45;&gt;Node13</title>
<path fill="none" stroke="midnightblue" d="M809.242,-170.161C783.645,-161.3 738.605,-145.71 707.353,-134.891"/>
<polygon fill="midnightblue" stroke="midnightblue" points="708.327,-131.525 697.732,-131.561 706.037,-138.14 708.327,-131.525"/>
</g>
<!-- Node30&#45;&gt;Node20 -->
<g id="edge52" class="edge"><title>Node30&#45;&gt;Node20</title>
<path fill="none" stroke="midnightblue" d="M798.549,-280.781C795.379,-272.512 791.352,-262.006 787.956,-253.145"/>
<polygon fill="midnightblue" stroke="midnightblue" points="791.194,-251.815 784.347,-243.731 784.658,-254.321 791.194,-251.815"/>
</g>
<!-- Node31&#45;&gt;Node5 -->
<g id="edge54" class="edge"><title>Node31&#45;&gt;Node5</title>
<path fill="none" stroke="midnightblue" d="M989.288,-348.428C987.699,-328.525 984,-277.624 984,-235 984,-235 984,-235 984,-177 984,-114.587 772.976,-82.1286 684.408,-71.2539"/>
<polygon fill="midnightblue" stroke="midnightblue" points="684.582,-67.7498 674.236,-70.0342 683.748,-74.7 684.582,-67.7498"/>
</g>
</g>
</svg>
