<?xml version="1.0" encoding="UTF-8" standalone="no"?>
<!DOCTYPE svg PUBLIC "-//W3C//DTD SVG 1.1//EN"
 "http://www.w3.org/Graphics/SVG/1.1/DTD/svg11.dtd">
<!-- Generated by graphviz version 2.26.3 (20100126.1600)
 -->
<!-- Title: stringUtils.cpp Pages: 1 -->
<svg width="858pt" height="320pt"
 viewBox="0.00 0.00 858.00 320.00" xmlns="http://www.w3.org/2000/svg" xmlns:xlink="http://www.w3.org/1999/xlink">
<g id="graph1" class="graph" transform="scale(1 1) rotate(0) translate(4 316)">
<title>stringUtils.cpp</title>
<polygon fill="white" stroke="white" points="-4,5 -4,-316 855,-316 855,5 -4,5"/>
<!-- Node1 -->
<g id="node1" class="node"><title>Node1</title>
<polygon fill="#bfbfbf" stroke="black" points="393.5,-291 393.5,-311 470.5,-311 470.5,-291 393.5,-291"/>
<text text-anchor="middle" x="432" y="-298" font-family="FreeSans" font-size="10.00">stringUtils.cpp</text>
</g>
<!-- Node2 -->
<g id="node3" class="node"><title>Node2</title>
<a xlink:href="ct__defs_8h.html" target="_top" xlink:title="This file contains definitions of terms that are used in internal routines and are unlikely to need m...">
<polygon fill="white" stroke="black" points="375,-59 375,-79 489,-79 489,-59 375,-59"/>
<text text-anchor="middle" x="432" y="-66" font-family="FreeSans" font-size="10.00">cantera/base/ct_defs.h</text>
</a>
</g>
<!-- Node1&#45;&gt;Node2 -->
<g id="edge2" class="edge"><title>Node1&#45;&gt;Node2</title>
<path fill="none" stroke="midnightblue" d="M470.555,-291.531C559.335,-267.983 765.227,-202.395 693,-116 668.773,-87.0212 568.386,-75.882 499.417,-71.6187"/>
<polygon fill="midnightblue" stroke="midnightblue" points="499.246,-68.1029 489.059,-71.015 498.838,-75.091 499.246,-68.1029"/>
</g>
<!-- Node9 -->
<g id="node17" class="node"><title>Node9</title>
<a xlink:href="stringUtils_8h.html" target="_top" xlink:title="Contains declarations for string manipulation functions within Cantera. ">
<polygon fill="white" stroke="black" points="-0.5,-117 -0.5,-137 124.5,-137 124.5,-117 -0.5,-117"/>
<text text-anchor="middle" x="62" y="-124" font-family="FreeSans" font-size="10.00">cantera/base/stringUtils.h</text>
</a>
</g>
<!-- Node1&#45;&gt;Node9 -->
<g id="edge16" class="edge"><title>Node1&#45;&gt;Node9</title>
<path fill="none" stroke="midnightblue" d="M408.981,-290.902C387.656,-281.499 355.088,-267.014 327,-254 241.074,-214.187 140.429,-165.338 91.588,-141.49"/>
<polygon fill="midnightblue" stroke="midnightblue" points="93.0514,-138.309 82.5301,-137.063 89.978,-144.599 93.0514,-138.309"/>
</g>
<!-- Node10 -->
<g id="node21" class="node"><title>Node10</title>
<a xlink:href="ctexceptions_8h.html" target="_top" xlink:title="Definitions for the classes that are thrown when Cantera experiences an error condition (also contain...">
<polygon fill="white" stroke="black" points="141.5,-117 141.5,-137 278.5,-137 278.5,-117 141.5,-117"/>
<text text-anchor="middle" x="210" y="-124" font-family="FreeSans" font-size="10.00">cantera/base/ctexceptions.h</text>
</a>
</g>
<!-- Node1&#45;&gt;Node10 -->
<g id="edge22" class="edge"><title>Node1&#45;&gt;Node10</title>
<path fill="none" stroke="midnightblue" d="M414.488,-290.849C399.192,-281.757 376.59,-267.769 358,-254 308.933,-217.657 255.55,-169.492 228.282,-144.198"/>
<polygon fill="midnightblue" stroke="midnightblue" points="230.393,-141.38 220.692,-137.12 225.619,-146.5 230.393,-141.38"/>
</g>
<!-- Node12 -->
<g id="node26" class="node"><title>Node12</title>
<a xlink:href="global_8h.html" target="_top" xlink:title="This file contains definitions for utility functions and text for modules, inputfiles, logs, textlogs, (see Input File Handling, Diagnostic Output, and Writing messages to the screen). ">
<polygon fill="white" stroke="black" points="296,-117 296,-137 404,-137 404,-117 296,-117"/>
<text text-anchor="middle" x="350" y="-124" font-family="FreeSans" font-size="10.00">cantera/base/global.h</text>
</a>
</g>
<!-- Node1&#45;&gt;Node12 -->
<g id="edge28" class="edge"><title>Node1&#45;&gt;Node12</title>
<path fill="none" stroke="midnightblue" d="M413.97,-290.919C400.761,-282.64 383.392,-269.736 373,-254 351.391,-221.279 348.578,-173.946 348.961,-147.27"/>
<polygon fill="midnightblue" stroke="midnightblue" points="352.461,-147.309 349.275,-137.204 345.464,-147.09 352.461,-147.309"/>
</g>
<!-- Node13 -->
<g id="node29" class="node"><title>Node13</title>
<a xlink:href="ctml_8h.html" target="_top" xlink:title="CTML (&quot;Cantera Markup Language&quot;) is the variant of XML that Cantera uses to store data...">
<polygon fill="white" stroke="black" points="381.5,-233 381.5,-253 482.5,-253 482.5,-233 381.5,-233"/>
<text text-anchor="middle" x="432" y="-240" font-family="FreeSans" font-size="10.00">cantera/base/ctml.h</text>
</a>
</g>
<!-- Node1&#45;&gt;Node13 -->
<g id="edge32" class="edge"><title>Node1&#45;&gt;Node13</title>
<path fill="none" stroke="midnightblue" d="M432,-290.897C432,-283.339 432,-272.748 432,-263.446"/>
<polygon fill="midnightblue" stroke="midnightblue" points="435.5,-263.378 432,-253.378 428.5,-263.378 435.5,-263.378"/>
</g>
<!-- Node20 -->
<g id="node49" class="node"><title>Node20</title>
<polygon fill="white" stroke="#bfbfbf" points="740,-233 740,-253 790,-253 790,-233 740,-233"/>
<text text-anchor="middle" x="765" y="-240" font-family="FreeSans" font-size="10.00">sstream</text>
</g>
<!-- Node1&#45;&gt;Node20 -->
<g id="edge58" class="edge"><title>Node1&#45;&gt;Node20</title>
<path fill="none" stroke="midnightblue" d="M470.796,-296.262C527.302,-289.031 635.387,-273.951 726,-254 727.275,-253.719 728.571,-253.421 729.877,-253.11"/>
<polygon fill="midnightblue" stroke="midnightblue" points="731.115,-256.406 739.933,-250.534 729.378,-249.625 731.115,-256.406"/>
</g>
<!-- Node21 -->
<g id="node51" class="node"><title>Node21</title>
<polygon fill="white" stroke="#bfbfbf" points="808,-233 808,-253 850,-253 850,-233 808,-233"/>
<text text-anchor="middle" x="829" y="-240" font-family="FreeSans" font-size="10.00">cstdio</text>
</g>
<!-- Node1&#45;&gt;Node21 -->
<g id="edge60" class="edge"><title>Node1&#45;&gt;Node21</title>
<path fill="none" stroke="midnightblue" d="M470.555,-298.909C536.21,-294.737 673.861,-283.335 797.837,-253.847"/>
<polygon fill="midnightblue" stroke="midnightblue" points="798.984,-257.17 807.877,-251.411 797.334,-250.368 798.984,-257.17"/>
</g>
<!-- Node3 -->
<g id="node5" class="node"><title>Node3</title>
<a xlink:href="config_8h_source.html" target="_top" xlink:title="config.h">
<polygon fill="white" stroke="black" points="467,-1 467,-21 517,-21 517,-1 467,-1"/>
<text text-anchor="middle" x="492" y="-8" font-family="FreeSans" font-size="10.00">config.h</text>
</a>
</g>
<!-- Node2&#45;&gt;Node3 -->
<g id="edge4" class="edge"><title>Node2&#45;&gt;Node3</title>
<path fill="none" stroke="midnightblue" d="M442.451,-58.8972C451.12,-50.5175 463.646,-38.4093 473.934,-28.4638"/>
<polygon fill="midnightblue" stroke="midnightblue" points="476.507,-30.8443 481.265,-21.3776 471.642,-25.8114 476.507,-30.8443"/>
</g>
<!-- Node4 -->
<g id="node7" class="node"><title>Node4</title>
<polygon fill="white" stroke="#bfbfbf" points="535,-1 535,-21 579,-21 579,-1 535,-1"/>
<text text-anchor="middle" x="557" y="-8" font-family="FreeSans" font-size="10.00">cmath</text>
</g>
<!-- Node2&#45;&gt;Node4 -->
<g id="edge6" class="edge"><title>Node2&#45;&gt;Node4</title>
<path fill="none" stroke="midnightblue" d="M453.773,-58.8972C473.726,-49.6391 503.487,-35.83 525.934,-25.4145"/>
<polygon fill="midnightblue" stroke="midnightblue" points="527.459,-28.5656 535.057,-21.1817 524.513,-22.2158 527.459,-28.5656"/>
</g>
<!-- Node5 -->
<g id="node9" class="node"><title>Node5</title>
<polygon fill="white" stroke="#bfbfbf" points="293,-1 293,-21 337,-21 337,-1 293,-1"/>
<text text-anchor="middle" x="315" y="-8" font-family="FreeSans" font-size="10.00">cstdlib</text>
</g>
<!-- Node2&#45;&gt;Node5 -->
<g id="edge8" class="edge"><title>Node2&#45;&gt;Node5</title>
<path fill="none" stroke="midnightblue" d="M411.62,-58.8972C393.111,-49.7218 365.585,-36.0762 344.642,-25.6943"/>
<polygon fill="midnightblue" stroke="midnightblue" points="346.053,-22.4874 335.539,-21.1817 342.944,-28.759 346.053,-22.4874"/>
</g>
<!-- Node6 -->
<g id="node11" class="node"><title>Node6</title>
<polygon fill="white" stroke="#bfbfbf" points="354.5,-1 354.5,-21 397.5,-21 397.5,-1 354.5,-1"/>
<text text-anchor="middle" x="376" y="-8" font-family="FreeSans" font-size="10.00">vector</text>
</g>
<!-- Node2&#45;&gt;Node6 -->
<g id="edge10" class="edge"><title>Node2&#45;&gt;Node6</title>
<path fill="none" stroke="midnightblue" d="M422.246,-58.8972C414.234,-50.5996 402.693,-38.6463 393.145,-28.7569"/>
<polygon fill="midnightblue" stroke="midnightblue" points="395.484,-26.1406 386.02,-21.3776 390.448,-31.0027 395.484,-26.1406"/>
</g>
<!-- Node7 -->
<g id="node13" class="node"><title>Node7</title>
<polygon fill="white" stroke="#bfbfbf" points="414.5,-1 414.5,-21 449.5,-21 449.5,-1 414.5,-1"/>
<text text-anchor="middle" x="432" y="-8" font-family="FreeSans" font-size="10.00">map</text>
</g>
<!-- Node2&#45;&gt;Node7 -->
<g id="edge12" class="edge"><title>Node2&#45;&gt;Node7</title>
<path fill="none" stroke="midnightblue" d="M432,-58.8972C432,-51.339 432,-40.7476 432,-31.4458"/>
<polygon fill="midnightblue" stroke="midnightblue" points="435.5,-31.3776 432,-21.3776 428.5,-31.3776 435.5,-31.3776"/>
</g>
<!-- Node8 -->
<g id="node15" class="node"><title>Node8</title>
<polygon fill="white" stroke="#bfbfbf" points="163,-1 163,-21 203,-21 203,-1 163,-1"/>
<text text-anchor="middle" x="183" y="-8" font-family="FreeSans" font-size="10.00">string</text>
</g>
<!-- Node2&#45;&gt;Node8 -->
<g id="edge14" class="edge"><title>Node2&#45;&gt;Node8</title>
<path fill="none" stroke="midnightblue" d="M388.912,-58.9634C338.655,-47.2571 256.882,-28.2095 213.034,-17.9959"/>
<polygon fill="midnightblue" stroke="midnightblue" points="213.789,-14.5781 203.255,-15.7181 212.201,-21.3956 213.789,-14.5781"/>
</g>
<!-- Node9&#45;&gt;Node2 -->
<g id="edge18" class="edge"><title>Node9&#45;&gt;Node2</title>
<path fill="none" stroke="midnightblue" d="M124.765,-117.161C191.345,-106.724 296.156,-90.2945 364.487,-79.5831"/>
<polygon fill="midnightblue" stroke="midnightblue" points="365.375,-82.9868 374.712,-77.9803 364.291,-76.0712 365.375,-82.9868"/>
</g>
<!-- Node9&#45;&gt;Node8 -->
<g id="edge20" class="edge"><title>Node9&#45;&gt;Node8</title>
<path fill="none" stroke="midnightblue" d="M72.7379,-116.706C93.5096,-96.7925 139.391,-52.8069 164.937,-28.3167"/>
<polygon fill="midnightblue" stroke="midnightblue" points="167.662,-30.5524 172.459,-21.1055 162.818,-25.4994 167.662,-30.5524"/>
</g>
<!-- Node10&#45;&gt;Node8 -->
<g id="edge26" class="edge"><title>Node10&#45;&gt;Node8</title>
<path fill="none" stroke="midnightblue" d="M207.604,-116.706C203.129,-97.4821 193.433,-55.8247 187.639,-30.9294"/>
<polygon fill="midnightblue" stroke="midnightblue" points="191.028,-30.0517 185.352,-21.1055 184.21,-31.6387 191.028,-30.0517"/>
</g>
<!-- Node11 -->
<g id="node23" class="node"><title>Node11</title>
<polygon fill="white" stroke="#bfbfbf" points="211,-59 211,-79 269,-79 269,-59 211,-59"/>
<text text-anchor="middle" x="240" y="-66" font-family="FreeSans" font-size="10.00">exception</text>
</g>
<!-- Node10&#45;&gt;Node11 -->
<g id="edge24" class="edge"><title>Node10&#45;&gt;Node11</title>
<path fill="none" stroke="midnightblue" d="M215.226,-116.897C219.262,-109.093 224.972,-98.0536 229.893,-88.5401"/>
<polygon fill="midnightblue" stroke="midnightblue" points="233.147,-89.8678 234.632,-79.3776 226.929,-86.6518 233.147,-89.8678"/>
</g>
<!-- Node12&#45;&gt;Node2 -->
<g id="edge30" class="edge"><title>Node12&#45;&gt;Node2</title>
<path fill="none" stroke="midnightblue" d="M364.283,-116.897C376.671,-108.135 394.822,-95.2965 409.215,-85.1164"/>
<polygon fill="midnightblue" stroke="midnightblue" points="411.462,-87.8138 417.605,-79.1817 407.42,-82.0989 411.462,-87.8138"/>
</g>
<!-- Node13&#45;&gt;Node2 -->
<g id="edge34" class="edge"><title>Node13&#45;&gt;Node2</title>
<path fill="none" stroke="midnightblue" d="M432,-232.893C432,-205.023 432,-126.675 432,-89.3131"/>
<polygon fill="midnightblue" stroke="midnightblue" points="435.5,-89.1349 432,-79.135 428.5,-89.135 435.5,-89.1349"/>
</g>
<!-- Node14 -->
<g id="node32" class="node"><title>Node14</title>
<a xlink:href="xml_8h.html" target="_top" xlink:title="Classes providing support for XML data files. ">
<polygon fill="white" stroke="black" points="365.5,-175 365.5,-195 404.5,-195 404.5,-175 365.5,-175"/>
<text text-anchor="middle" x="385" y="-182" font-family="FreeSans" font-size="10.00">xml.h</text>
</a>
</g>
<!-- Node13&#45;&gt;Node14 -->
<g id="edge36" class="edge"><title>Node13&#45;&gt;Node14</title>
<path fill="none" stroke="midnightblue" d="M423.813,-232.897C417.223,-224.764 407.786,-213.118 399.867,-203.347"/>
<polygon fill="midnightblue" stroke="midnightblue" points="402.425,-200.943 393.409,-195.378 396.986,-205.351 402.425,-200.943"/>
</g>
<!-- Node15 -->
<g id="node36" class="node"><title>Node15</title>
<a xlink:href="Array_8h.html" target="_top" xlink:title="Header file for class Cantera::Array2D. ">
<polygon fill="white" stroke="black" points="478.5,-175 478.5,-195 525.5,-195 525.5,-175 478.5,-175"/>
<text text-anchor="middle" x="502" y="-182" font-family="FreeSans" font-size="10.00">Array.h</text>
</a>
</g>
<!-- Node13&#45;&gt;Node15 -->
<g id="edge42" class="edge"><title>Node13&#45;&gt;Node15</title>
<path fill="none" stroke="midnightblue" d="M444.193,-232.897C454.505,-224.353 469.495,-211.933 481.626,-201.881"/>
<polygon fill="midnightblue" stroke="midnightblue" points="484.008,-204.453 489.475,-195.378 479.542,-199.063 484.008,-204.453"/>
</g>
<!-- Node14&#45;&gt;Node10 -->
<g id="edge38" class="edge"><title>Node14&#45;&gt;Node10</title>
<path fill="none" stroke="midnightblue" d="M365.265,-178.459C337.403,-169.225 285.922,-152.163 249.905,-140.226"/>
<polygon fill="midnightblue" stroke="midnightblue" points="250.782,-136.829 240.189,-137.005 248.58,-143.474 250.782,-136.829"/>
</g>
<!-- Node14&#45;&gt;Node12 -->
<g id="edge40" class="edge"><title>Node14&#45;&gt;Node12</title>
<path fill="none" stroke="midnightblue" d="M378.903,-174.897C374.095,-166.928 367.251,-155.587 361.43,-145.941"/>
<polygon fill="midnightblue" stroke="midnightblue" points="364.426,-144.131 356.262,-137.378 358.432,-147.748 364.426,-144.131"/>
</g>
<!-- Node15&#45;&gt;Node2 -->
<g id="edge44" class="edge"><title>Node15&#45;&gt;Node2</title>
<path fill="none" stroke="midnightblue" d="M495.788,-174.706C484.031,-155.223 458.371,-112.7 443.426,-87.9339"/>
<polygon fill="midnightblue" stroke="midnightblue" points="446.262,-85.8591 438.098,-79.1055 440.268,-89.4758 446.262,-85.8591"/>
</g>
<!-- Node15&#45;&gt;Node10 -->
<g id="edge46" class="edge"><title>Node15&#45;&gt;Node10</title>
<path fill="none" stroke="midnightblue" d="M478.104,-180.254C433.176,-171.329 334.86,-151.801 270.594,-139.036"/>
<polygon fill="midnightblue" stroke="midnightblue" points="271.075,-135.563 260.585,-137.048 269.712,-142.429 271.075,-135.563"/>
</g>
<!-- Node16 -->
<g id="node40" class="node"><title>Node16</title>
<a xlink:href="utilities_8h.html" target="_top" xlink:title="Various templated functions that carry out common vector operations (see Templated Utility Functions)...">
<polygon fill="white" stroke="black" points="630,-117 630,-137 684,-137 684,-117 630,-117"/>
<text text-anchor="middle" x="657" y="-124" font-family="FreeSans" font-size="10.00">utilities.h</text>
</a>
</g>
<!-- Node15&#45;&gt;Node16 -->
<g id="edge48" class="edge"><title>Node15&#45;&gt;Node16</title>
<path fill="none" stroke="midnightblue" d="M525.541,-176.191C550.802,-166.738 591.247,-151.604 620.611,-140.617"/>
<polygon fill="midnightblue" stroke="midnightblue" points="621.967,-143.846 630.106,-137.063 619.514,-137.29 621.967,-143.846"/>
</g>
<!-- Node18 -->
<g id="node45" class="node"><title>Node18</title>
<polygon fill="white" stroke="#bfbfbf" points="559.5,-117 559.5,-137 612.5,-137 612.5,-117 559.5,-117"/>
<text text-anchor="middle" x="586" y="-124" font-family="FreeSans" font-size="10.00">iostream</text>
</g>
<!-- Node15&#45;&gt;Node18 -->
<g id="edge54" class="edge"><title>Node15&#45;&gt;Node18</title>
<path fill="none" stroke="midnightblue" d="M516.632,-174.897C529.322,-166.135 547.915,-153.297 562.659,-143.116"/>
<polygon fill="midnightblue" stroke="midnightblue" points="565.014,-145.744 571.254,-137.182 561.036,-139.983 565.014,-145.744"/>
</g>
<!-- Node19 -->
<g id="node47" class="node"><title>Node19</title>
<polygon fill="white" stroke="#bfbfbf" points="497.5,-117 497.5,-137 542.5,-137 542.5,-117 497.5,-117"/>
<text text-anchor="middle" x="520" y="-124" font-family="FreeSans" font-size="10.00">cstring</text>
</g>
<!-- Node15&#45;&gt;Node19 -->
<g id="edge56" class="edge"><title>Node15&#45;&gt;Node19</title>
<path fill="none" stroke="midnightblue" d="M505.135,-174.897C507.506,-167.257 510.84,-156.517 513.749,-147.143"/>
<polygon fill="midnightblue" stroke="midnightblue" points="517.158,-147.966 516.779,-137.378 510.473,-145.891 517.158,-147.966"/>
</g>
<!-- Node16&#45;&gt;Node2 -->
<g id="edge50" class="edge"><title>Node16&#45;&gt;Node2</title>
<path fill="none" stroke="midnightblue" d="M629.918,-118.557C626.916,-117.671 623.897,-116.802 621,-116 575.383,-103.368 523.14,-90.4972 485.157,-81.4257"/>
<polygon fill="midnightblue" stroke="midnightblue" points="485.87,-77.9976 475.332,-79.0877 484.25,-84.8075 485.87,-77.9976"/>
</g>
<!-- Node17 -->
<g id="node43" class="node"><title>Node17</title>
<polygon fill="white" stroke="#bfbfbf" points="629,-59 629,-79 685,-79 685,-59 629,-59"/>
<text text-anchor="middle" x="657" y="-66" font-family="FreeSans" font-size="10.00">algorithm</text>
</g>
<!-- Node16&#45;&gt;Node17 -->
<g id="edge52" class="edge"><title>Node16&#45;&gt;Node17</title>
<path fill="none" stroke="midnightblue" d="M657,-116.897C657,-109.339 657,-98.7476 657,-89.4458"/>
<polygon fill="midnightblue" stroke="midnightblue" points="660.5,-89.3776 657,-79.3776 653.5,-89.3776 660.5,-89.3776"/>
</g>
</g>
</svg>
