<?xml version="1.0" encoding="UTF-8" standalone="no"?>
<!DOCTYPE svg PUBLIC "-//W3C//DTD SVG 1.1//EN"
 "http://www.w3.org/Graphics/SVG/1.1/DTD/svg11.dtd">
<!-- Generated by graphviz version 2.26.3 (20100126.1600)
 -->
<!-- Title: ThermoPhase.h Pages: 1 -->
<svg width="792pt" height="378pt"
 viewBox="0.00 0.00 792.34 378.00" xmlns="http://www.w3.org/2000/svg" xmlns:xlink="http://www.w3.org/1999/xlink">
<g id="graph1" class="graph" transform="scale(1 1) rotate(0) translate(4 374)">
<title>ThermoPhase.h</title>
<polygon fill="white" stroke="white" points="-4,5 -4,-374 789.343,-374 789.343,5 -4,5"/>
<!-- Node1 -->
<g id="node1" class="node"><title>Node1</title>
<polygon fill="#bfbfbf" stroke="black" points="595.37,-349 595.37,-369 679.37,-369 679.37,-349 595.37,-349"/>
<text text-anchor="middle" x="637.37" y="-356" font-family="FreeSans" font-size="10.00">ThermoPhase.h</text>
</g>
<!-- Node2 -->
<g id="node3" class="node"><title>Node2</title>
<a xlink:href="Phase_8h.html" target="_top" xlink:title="Header file for class Phase. ">
<polygon fill="white" stroke="black" points="528.87,-291 528.87,-311 579.87,-311 579.87,-291 528.87,-291"/>
<text text-anchor="middle" x="554.37" y="-298" font-family="FreeSans" font-size="10.00">Phase.h</text>
</a>
</g>
<!-- Node1&#45;&gt;Node2 -->
<g id="edge2" class="edge"><title>Node1&#45;&gt;Node2</title>
<path fill="none" stroke="midnightblue" d="M622.913,-348.897C610.374,-340.135 592.001,-327.297 577.433,-317.116"/>
<polygon fill="midnightblue" stroke="midnightblue" points="579.142,-314.041 568.94,-311.182 575.132,-319.779 579.142,-314.041"/>
</g>
<!-- Node25 -->
<g id="node61" class="node"><title>Node25</title>
<a xlink:href="SpeciesThermo_8h.html" target="_top" xlink:title="Virtual base class for the calculation of multiple&#45;species thermodynamic reference&#45;state property man...">
<polygon fill="white" stroke="black" points="675.37,-291 675.37,-311 767.37,-311 767.37,-291 675.37,-291"/>
<text text-anchor="middle" x="721.37" y="-298" font-family="FreeSans" font-size="10.00">SpeciesThermo.h</text>
</a>
</g>
<!-- Node1&#45;&gt;Node25 -->
<g id="edge72" class="edge"><title>Node1&#45;&gt;Node25</title>
<path fill="none" stroke="midnightblue" d="M652.002,-348.897C664.692,-340.135 683.285,-327.297 698.029,-317.116"/>
<polygon fill="midnightblue" stroke="midnightblue" points="700.384,-319.744 706.624,-311.182 696.406,-313.983 700.384,-319.744"/>
</g>
<!-- Node3 -->
<g id="node5" class="node"><title>Node3</title>
<a xlink:href="vec__functions_8h.html" target="_top" xlink:title="Templates for operations on vector&#45;like objects. ">
<polygon fill="white" stroke="black" points="110.37,-175 110.37,-195 252.37,-195 252.37,-175 110.37,-175"/>
<text text-anchor="middle" x="181.37" y="-182" font-family="FreeSans" font-size="10.00">cantera/base/vec_functions.h</text>
</a>
</g>
<!-- Node2&#45;&gt;Node3 -->
<g id="edge4" class="edge"><title>Node2&#45;&gt;Node3</title>
<path fill="none" stroke="midnightblue" d="M528.797,-295.857C491.574,-288.127 420.463,-272.439 361.37,-254 308.951,-237.643 249.786,-213.91 214.053,-198.974"/>
<polygon fill="midnightblue" stroke="midnightblue" points="215.197,-195.658 204.622,-195.008 212.483,-202.111 215.197,-195.658"/>
</g>
<!-- Node17 -->
<g id="node35" class="node"><title>Node17</title>
<a xlink:href="ctml_8h.html" target="_top" xlink:title="CTML (&quot;Cantera Markup Language&quot;) is the variant of XML that Cantera uses to store data...">
<polygon fill="white" stroke="black" points="369.87,-233 369.87,-253 470.87,-253 470.87,-233 369.87,-233"/>
<text text-anchor="middle" x="420.37" y="-240" font-family="FreeSans" font-size="10.00">cantera/base/ctml.h</text>
</a>
</g>
<!-- Node2&#45;&gt;Node17 -->
<g id="edge36" class="edge"><title>Node2&#45;&gt;Node17</title>
<path fill="none" stroke="midnightblue" d="M531.029,-290.897C509.544,-281.598 477.451,-267.707 453.351,-257.275"/>
<polygon fill="midnightblue" stroke="midnightblue" points="454.461,-253.942 443.893,-253.182 451.68,-260.366 454.461,-253.942"/>
</g>
<!-- Node22 -->
<g id="node53" class="node"><title>Node22</title>
<a xlink:href="Elements_8h.html" target="_top" xlink:title="Contains the LookupWtElements function and the definitions of element constraint types. ">
<polygon fill="white" stroke="black" points="488.37,-233 488.37,-253 620.37,-253 620.37,-233 488.37,-233"/>
<text text-anchor="middle" x="554.37" y="-240" font-family="FreeSans" font-size="10.00">cantera/thermo/Elements.h</text>
</a>
</g>
<!-- Node2&#45;&gt;Node22 -->
<g id="edge62" class="edge"><title>Node2&#45;&gt;Node22</title>
<path fill="none" stroke="midnightblue" d="M554.37,-290.897C554.37,-283.339 554.37,-272.748 554.37,-263.446"/>
<polygon fill="midnightblue" stroke="midnightblue" points="557.87,-263.378 554.37,-253.378 550.87,-263.378 557.87,-263.378"/>
</g>
<!-- Node23 -->
<g id="node56" class="node"><title>Node23</title>
<a xlink:href="ValueCache_8h.html" target="_top" xlink:title="cantera/base/ValueCache.h">
<polygon fill="white" stroke="black" points="638.37,-233 638.37,-253 772.37,-253 772.37,-233 638.37,-233"/>
<text text-anchor="middle" x="705.37" y="-240" font-family="FreeSans" font-size="10.00">cantera/base/ValueCache.h</text>
</a>
</g>
<!-- Node2&#45;&gt;Node23 -->
<g id="edge66" class="edge"><title>Node2&#45;&gt;Node23</title>
<path fill="none" stroke="midnightblue" d="M579.985,-291.161C604.565,-281.72 641.914,-267.374 669.459,-256.794"/>
<polygon fill="midnightblue" stroke="midnightblue" points="671.042,-259.935 679.122,-253.082 668.532,-253.401 671.042,-259.935"/>
</g>
<!-- Node4 -->
<g id="node7" class="node"><title>Node4</title>
<a xlink:href="ct__defs_8h.html" target="_top" xlink:title="This file contains definitions of terms that are used in internal routines and are unlikely to need m...">
<polygon fill="white" stroke="black" points="415.37,-59 415.37,-79 471.37,-79 471.37,-59 415.37,-59"/>
<text text-anchor="middle" x="443.37" y="-66" font-family="FreeSans" font-size="10.00">ct_defs.h</text>
</a>
</g>
<!-- Node3&#45;&gt;Node4 -->
<g id="edge6" class="edge"><title>Node3&#45;&gt;Node4</title>
<path fill="none" stroke="midnightblue" d="M112.991,-174.988C63.9771,-165.013 11.0526,-146.671 38.37,-116 62.5621,-88.8381 308.994,-74.9941 405.194,-70.5922"/>
<polygon fill="midnightblue" stroke="midnightblue" points="405.527,-74.0809 415.36,-70.1367 405.213,-67.0879 405.527,-74.0809"/>
</g>
<!-- Node11 -->
<g id="node21" class="node"><title>Node11</title>
<a xlink:href="utilities_8h.html" target="_top" xlink:title="Various templated functions that carry out common vector operations (see Templated Utility Functions)...">
<polygon fill="white" stroke="black" points="191.37,-117 191.37,-137 245.37,-137 245.37,-117 191.37,-117"/>
<text text-anchor="middle" x="218.37" y="-124" font-family="FreeSans" font-size="10.00">utilities.h</text>
</a>
</g>
<!-- Node3&#45;&gt;Node11 -->
<g id="edge20" class="edge"><title>Node3&#45;&gt;Node11</title>
<path fill="none" stroke="midnightblue" d="M187.815,-174.897C192.899,-166.928 200.133,-155.587 206.287,-145.941"/>
<polygon fill="midnightblue" stroke="midnightblue" points="209.322,-147.691 211.75,-137.378 203.421,-143.926 209.322,-147.691"/>
</g>
<!-- Node12 -->
<g id="node24" class="node"><title>Node12</title>
<polygon fill="white" stroke="#bfbfbf" points="72.37,-59 72.37,-79 128.37,-79 128.37,-59 72.37,-59"/>
<text text-anchor="middle" x="100.37" y="-66" font-family="FreeSans" font-size="10.00">algorithm</text>
</g>
<!-- Node3&#45;&gt;Node12 -->
<g id="edge30" class="edge"><title>Node3&#45;&gt;Node12</title>
<path fill="none" stroke="midnightblue" d="M110.244,-174.943C67.3223,-167.255 18.4692,-155.056 5.37001,-138 -14.5754,-112.029 27.9191,-91.4823 62.3441,-79.7786"/>
<polygon fill="midnightblue" stroke="midnightblue" points="63.8003,-82.986 72.2349,-76.5745 61.643,-76.3267 63.8003,-82.986"/>
</g>
<!-- Node13 -->
<g id="node26" class="node"><title>Node13</title>
<polygon fill="white" stroke="#bfbfbf" points="46.87,-117 46.87,-137 97.87,-137 97.87,-117 46.87,-117"/>
<text text-anchor="middle" x="72.37" y="-124" font-family="FreeSans" font-size="10.00">numeric</text>
</g>
<!-- Node3&#45;&gt;Node13 -->
<g id="edge26" class="edge"><title>Node3&#45;&gt;Node13</title>
<path fill="none" stroke="midnightblue" d="M162.384,-174.897C145.296,-165.804 119.957,-152.322 100.514,-141.976"/>
<polygon fill="midnightblue" stroke="midnightblue" points="101.977,-138.789 91.5045,-137.182 98.6884,-144.969 101.977,-138.789"/>
</g>
<!-- Node14 -->
<g id="node28" class="node"><title>Node14</title>
<polygon fill="white" stroke="#bfbfbf" points="114.87,-117 114.87,-137 173.87,-137 173.87,-117 114.87,-117"/>
<text text-anchor="middle" x="144.37" y="-124" font-family="FreeSans" font-size="10.00">functional</text>
</g>
<!-- Node3&#45;&gt;Node14 -->
<g id="edge28" class="edge"><title>Node3&#45;&gt;Node14</title>
<path fill="none" stroke="midnightblue" d="M174.925,-174.897C169.841,-166.928 162.607,-155.587 156.453,-145.941"/>
<polygon fill="midnightblue" stroke="midnightblue" points="159.319,-143.926 150.99,-137.378 153.418,-147.691 159.319,-143.926"/>
</g>
<!-- Node15 -->
<g id="node31" class="node"><title>Node15</title>
<polygon fill="white" stroke="#bfbfbf" points="262.87,-117 262.87,-137 315.87,-137 315.87,-117 262.87,-117"/>
<text text-anchor="middle" x="289.37" y="-124" font-family="FreeSans" font-size="10.00">iostream</text>
</g>
<!-- Node3&#45;&gt;Node15 -->
<g id="edge32" class="edge"><title>Node3&#45;&gt;Node15</title>
<path fill="none" stroke="midnightblue" d="M200.182,-174.897C217.113,-165.804 242.219,-152.322 261.484,-141.976"/>
<polygon fill="midnightblue" stroke="midnightblue" points="263.257,-144.996 270.411,-137.182 259.945,-138.829 263.257,-144.996"/>
</g>
<!-- Node16 -->
<g id="node33" class="node"><title>Node16</title>
<polygon fill="white" stroke="#bfbfbf" points="332.87,-117 332.87,-137 377.87,-137 377.87,-117 332.87,-117"/>
<text text-anchor="middle" x="355.37" y="-124" font-family="FreeSans" font-size="10.00">cstring</text>
</g>
<!-- Node3&#45;&gt;Node16 -->
<g id="edge34" class="edge"><title>Node3&#45;&gt;Node16</title>
<path fill="none" stroke="midnightblue" d="M212.684,-174.941C239.719,-166.206 280.05,-153.052 323.171,-138.367"/>
<polygon fill="midnightblue" stroke="midnightblue" points="324.372,-141.656 332.705,-135.112 322.11,-135.032 324.372,-141.656"/>
</g>
<!-- Node5 -->
<g id="node9" class="node"><title>Node5</title>
<a xlink:href="config_8h_source.html" target="_top" xlink:title="config.h">
<polygon fill="white" stroke="black" points="230.37,-1 230.37,-21 280.37,-21 280.37,-1 230.37,-1"/>
<text text-anchor="middle" x="255.37" y="-8" font-family="FreeSans" font-size="10.00">config.h</text>
</a>
</g>
<!-- Node4&#45;&gt;Node5 -->
<g id="edge8" class="edge"><title>Node4&#45;&gt;Node5</title>
<path fill="none" stroke="midnightblue" d="M415.225,-60.564C386.248,-51.845 339.543,-37.6994 290.452,-22.3096"/>
<polygon fill="midnightblue" stroke="midnightblue" points="291.195,-18.8746 280.606,-19.2163 289.097,-25.5528 291.195,-18.8746"/>
</g>
<!-- Node6 -->
<g id="node11" class="node"><title>Node6</title>
<polygon fill="white" stroke="#bfbfbf" points="298.37,-1 298.37,-21 342.37,-21 342.37,-1 298.37,-1"/>
<text text-anchor="middle" x="320.37" y="-8" font-family="FreeSans" font-size="10.00">cmath</text>
</g>
<!-- Node4&#45;&gt;Node6 -->
<g id="edge10" class="edge"><title>Node4&#45;&gt;Node6</title>
<path fill="none" stroke="midnightblue" d="M421.945,-58.8972C402.399,-49.6805 373.288,-35.9532 351.235,-25.5542"/>
<polygon fill="midnightblue" stroke="midnightblue" points="352.5,-22.2811 341.962,-21.1817 349.514,-28.6125 352.5,-22.2811"/>
</g>
<!-- Node7 -->
<g id="node13" class="node"><title>Node7</title>
<polygon fill="white" stroke="#bfbfbf" points="360.37,-1 360.37,-21 404.37,-21 404.37,-1 360.37,-1"/>
<text text-anchor="middle" x="382.37" y="-8" font-family="FreeSans" font-size="10.00">cstdlib</text>
</g>
<!-- Node4&#45;&gt;Node7 -->
<g id="edge12" class="edge"><title>Node4&#45;&gt;Node7</title>
<path fill="none" stroke="midnightblue" d="M432.745,-58.8972C423.932,-50.5175 411.197,-38.4093 400.737,-28.4638"/>
<polygon fill="midnightblue" stroke="midnightblue" points="402.943,-25.7318 393.284,-21.3776 398.12,-30.8047 402.943,-25.7318"/>
</g>
<!-- Node8 -->
<g id="node15" class="node"><title>Node8</title>
<polygon fill="white" stroke="#bfbfbf" points="421.87,-1 421.87,-21 464.87,-21 464.87,-1 421.87,-1"/>
<text text-anchor="middle" x="443.37" y="-8" font-family="FreeSans" font-size="10.00">vector</text>
</g>
<!-- Node4&#45;&gt;Node8 -->
<g id="edge14" class="edge"><title>Node4&#45;&gt;Node8</title>
<path fill="none" stroke="midnightblue" d="M443.37,-58.8972C443.37,-51.339 443.37,-40.7476 443.37,-31.4458"/>
<polygon fill="midnightblue" stroke="midnightblue" points="446.87,-31.3776 443.37,-21.3776 439.87,-31.3776 446.87,-31.3776"/>
</g>
<!-- Node9 -->
<g id="node17" class="node"><title>Node9</title>
<polygon fill="white" stroke="#bfbfbf" points="481.87,-1 481.87,-21 516.87,-21 516.87,-1 481.87,-1"/>
<text text-anchor="middle" x="499.37" y="-8" font-family="FreeSans" font-size="10.00">map</text>
</g>
<!-- Node4&#45;&gt;Node9 -->
<g id="edge16" class="edge"><title>Node4&#45;&gt;Node9</title>
<path fill="none" stroke="midnightblue" d="M453.124,-58.8972C461.136,-50.5996 472.677,-38.6463 482.225,-28.7569"/>
<polygon fill="midnightblue" stroke="midnightblue" points="484.922,-31.0027 489.35,-21.3776 479.886,-26.1406 484.922,-31.0027"/>
</g>
<!-- Node10 -->
<g id="node19" class="node"><title>Node10</title>
<polygon fill="white" stroke="#bfbfbf" points="534.37,-1 534.37,-21 574.37,-21 574.37,-1 534.37,-1"/>
<text text-anchor="middle" x="554.37" y="-8" font-family="FreeSans" font-size="10.00">string</text>
</g>
<!-- Node4&#45;&gt;Node10 -->
<g id="edge18" class="edge"><title>Node4&#45;&gt;Node10</title>
<path fill="none" stroke="midnightblue" d="M462.705,-58.8972C480.185,-49.7631 506.144,-36.1991 525.979,-25.8348"/>
<polygon fill="midnightblue" stroke="midnightblue" points="527.642,-28.9149 534.884,-21.1817 524.401,-22.7108 527.642,-28.9149"/>
</g>
<!-- Node11&#45;&gt;Node4 -->
<g id="edge22" class="edge"><title>Node11&#45;&gt;Node4</title>
<path fill="none" stroke="midnightblue" d="M245.452,-118.557C248.454,-117.671 251.473,-116.802 254.37,-116 306.196,-101.649 366.577,-86.9885 404.878,-77.9424"/>
<polygon fill="midnightblue" stroke="midnightblue" points="406.138,-81.2418 415.07,-75.5448 404.535,-74.4278 406.138,-81.2418"/>
</g>
<!-- Node11&#45;&gt;Node12 -->
<g id="edge24" class="edge"><title>Node11&#45;&gt;Node12</title>
<path fill="none" stroke="midnightblue" d="M197.816,-116.897C179.149,-107.722 151.387,-94.0762 130.265,-83.6943"/>
<polygon fill="midnightblue" stroke="midnightblue" points="131.603,-80.4518 121.084,-79.1817 128.515,-86.734 131.603,-80.4518"/>
</g>
<!-- Node17&#45;&gt;Node4 -->
<g id="edge38" class="edge"><title>Node17&#45;&gt;Node4</title>
<path fill="none" stroke="midnightblue" d="M421.706,-232.893C425.39,-205.023 435.746,-126.675 440.685,-89.3131"/>
<polygon fill="midnightblue" stroke="midnightblue" points="444.19,-89.5074 442.03,-79.135 437.25,-88.59 444.19,-89.5074"/>
</g>
<!-- Node18 -->
<g id="node38" class="node"><title>Node18</title>
<a xlink:href="xml_8h.html" target="_top" xlink:title="Classes providing support for XML data files. ">
<polygon fill="white" stroke="black" points="490.87,-175 490.87,-195 529.87,-195 529.87,-175 490.87,-175"/>
<text text-anchor="middle" x="510.37" y="-182" font-family="FreeSans" font-size="10.00">xml.h</text>
</a>
</g>
<!-- Node17&#45;&gt;Node18 -->
<g id="edge40" class="edge"><title>Node17&#45;&gt;Node18</title>
<path fill="none" stroke="midnightblue" d="M436.047,-232.897C449.771,-224.052 469.942,-211.054 485.808,-200.829"/>
<polygon fill="midnightblue" stroke="midnightblue" points="488.061,-203.541 494.571,-195.182 484.269,-197.657 488.061,-203.541"/>
</g>
<!-- Node21 -->
<g id="node46" class="node"><title>Node21</title>
<a xlink:href="Array_8h.html" target="_top" xlink:title="Header file for class Cantera::Array2D. ">
<polygon fill="white" stroke="black" points="349.87,-175 349.87,-195 396.87,-195 396.87,-175 349.87,-175"/>
<text text-anchor="middle" x="373.37" y="-182" font-family="FreeSans" font-size="10.00">Array.h</text>
</a>
</g>
<!-- Node17&#45;&gt;Node21 -->
<g id="edge50" class="edge"><title>Node17&#45;&gt;Node21</title>
<path fill="none" stroke="midnightblue" d="M412.183,-232.897C405.593,-224.764 396.156,-213.118 388.237,-203.347"/>
<polygon fill="midnightblue" stroke="midnightblue" points="390.795,-200.943 381.779,-195.378 385.356,-205.351 390.795,-200.943"/>
</g>
<!-- Node19 -->
<g id="node40" class="node"><title>Node19</title>
<a xlink:href="ctexceptions_8h.html" target="_top" xlink:title="Definitions for the classes that are thrown when Cantera experiences an error condition (also contain...">
<polygon fill="white" stroke="red" points="471.37,-117 471.37,-137 549.37,-137 549.37,-117 471.37,-117"/>
<text text-anchor="middle" x="510.37" y="-124" font-family="FreeSans" font-size="10.00">ctexceptions.h</text>
</a>
</g>
<!-- Node18&#45;&gt;Node19 -->
<g id="edge42" class="edge"><title>Node18&#45;&gt;Node19</title>
<path fill="none" stroke="midnightblue" d="M510.37,-174.897C510.37,-167.339 510.37,-156.748 510.37,-147.446"/>
<polygon fill="midnightblue" stroke="midnightblue" points="513.87,-147.378 510.37,-137.378 506.87,-147.378 513.87,-147.378"/>
</g>
<!-- Node20 -->
<g id="node43" class="node"><title>Node20</title>
<a xlink:href="global_8h.html" target="_top" xlink:title="This file contains definitions for utility functions and text for modules, inputfiles, logs, textlogs, (see Input File Handling, Diagnostic Output, and Writing messages to the screen). ">
<polygon fill="white" stroke="black" points="567.37,-117 567.37,-137 617.37,-137 617.37,-117 567.37,-117"/>
<text text-anchor="middle" x="592.37" y="-124" font-family="FreeSans" font-size="10.00">global.h</text>
</a>
</g>
<!-- Node18&#45;&gt;Node20 -->
<g id="edge46" class="edge"><title>Node18&#45;&gt;Node20</title>
<path fill="none" stroke="midnightblue" d="M524.653,-174.897C537.041,-166.135 555.192,-153.297 569.585,-143.116"/>
<polygon fill="midnightblue" stroke="midnightblue" points="571.832,-145.814 577.975,-137.182 567.79,-140.099 571.832,-145.814"/>
</g>
<!-- Node19&#45;&gt;Node10 -->
<g id="edge44" class="edge"><title>Node19&#45;&gt;Node10</title>
<path fill="none" stroke="midnightblue" d="M514.275,-116.706C521.599,-97.3959 537.509,-55.4506 546.937,-30.5955"/>
<polygon fill="midnightblue" stroke="midnightblue" points="550.263,-31.6968 550.537,-21.1055 543.718,-29.2142 550.263,-31.6968"/>
</g>
<!-- Node20&#45;&gt;Node4 -->
<g id="edge48" class="edge"><title>Node20&#45;&gt;Node4</title>
<path fill="none" stroke="midnightblue" d="M567.094,-117.161C542.84,-107.72 505.986,-93.3739 478.805,-82.7937"/>
<polygon fill="midnightblue" stroke="midnightblue" points="479.859,-79.4481 469.271,-79.0821 477.32,-85.9713 479.859,-79.4481"/>
</g>
<!-- Node21&#45;&gt;Node4 -->
<g id="edge52" class="edge"><title>Node21&#45;&gt;Node4</title>
<path fill="none" stroke="midnightblue" d="M379.582,-174.706C391.339,-155.223 416.999,-112.7 431.944,-87.9339"/>
<polygon fill="midnightblue" stroke="midnightblue" points="435.102,-89.4758 437.272,-79.1055 429.108,-85.8591 435.102,-89.4758"/>
</g>
<!-- Node21&#45;&gt;Node11 -->
<g id="edge56" class="edge"><title>Node21&#45;&gt;Node11</title>
<path fill="none" stroke="midnightblue" d="M349.829,-176.191C324.568,-166.738 284.123,-151.604 254.759,-140.617"/>
<polygon fill="midnightblue" stroke="midnightblue" points="255.856,-137.29 245.264,-137.063 253.403,-143.846 255.856,-137.29"/>
</g>
<!-- Node21&#45;&gt;Node15 -->
<g id="edge58" class="edge"><title>Node21&#45;&gt;Node15</title>
<path fill="none" stroke="midnightblue" d="M358.738,-174.897C346.048,-166.135 327.455,-153.297 312.711,-143.116"/>
<polygon fill="midnightblue" stroke="midnightblue" points="314.334,-139.983 304.116,-137.182 310.356,-145.744 314.334,-139.983"/>
</g>
<!-- Node21&#45;&gt;Node16 -->
<g id="edge60" class="edge"><title>Node21&#45;&gt;Node16</title>
<path fill="none" stroke="midnightblue" d="M370.235,-174.897C367.864,-167.257 364.53,-156.517 361.621,-147.143"/>
<polygon fill="midnightblue" stroke="midnightblue" points="364.897,-145.891 358.591,-137.378 358.212,-147.966 364.897,-145.891"/>
</g>
<!-- Node21&#45;&gt;Node19 -->
<g id="edge54" class="edge"><title>Node21&#45;&gt;Node19</title>
<path fill="none" stroke="midnightblue" d="M396.921,-175.029C419.074,-165.651 452.456,-151.518 477.281,-141.009"/>
<polygon fill="midnightblue" stroke="midnightblue" points="478.823,-144.156 486.668,-137.035 476.094,-137.71 478.823,-144.156"/>
</g>
<!-- Node22&#45;&gt;Node4 -->
<g id="edge64" class="edge"><title>Node22&#45;&gt;Node4</title>
<path fill="none" stroke="midnightblue" d="M568.086,-232.843C596.629,-210.489 657.282,-155.854 626.37,-116 608.811,-93.3617 530.009,-79.7346 481.718,-73.3615"/>
<polygon fill="midnightblue" stroke="midnightblue" points="481.979,-69.8666 471.617,-72.0751 481.095,-76.8105 481.979,-69.8666"/>
</g>
<!-- Node23&#45;&gt;Node4 -->
<g id="edge68" class="edge"><title>Node23&#45;&gt;Node4</title>
<path fill="none" stroke="midnightblue" d="M703.673,-232.921C699.049,-208.73 683.892,-147.089 645.37,-116 620.467,-95.9022 532.758,-81.0545 481.468,-73.8556"/>
<polygon fill="midnightblue" stroke="midnightblue" points="481.801,-70.3686 471.418,-72.4775 480.85,-77.3037 481.801,-70.3686"/>
</g>
<!-- Node24 -->
<g id="node59" class="node"><title>Node24</title>
<polygon fill="white" stroke="#bfbfbf" points="710.87,-175 710.87,-195 749.87,-195 749.87,-175 710.87,-175"/>
<text text-anchor="middle" x="730.37" y="-182" font-family="FreeSans" font-size="10.00">limits</text>
</g>
<!-- Node23&#45;&gt;Node24 -->
<g id="edge70" class="edge"><title>Node23&#45;&gt;Node24</title>
<path fill="none" stroke="midnightblue" d="M709.725,-232.897C713.053,-225.175 717.747,-214.286 721.818,-204.841"/>
<polygon fill="midnightblue" stroke="midnightblue" points="725.153,-205.946 725.897,-195.378 718.724,-203.175 725.153,-205.946"/>
</g>
<!-- Node25&#45;&gt;Node4 -->
<g id="edge74" class="edge"><title>Node25&#45;&gt;Node4</title>
<path fill="none" stroke="midnightblue" d="M742.467,-290.884C756.321,-282.971 773.318,-270.536 781.37,-254 793.996,-228.071 759.907,-175.88 758.37,-174 728.485,-137.448 713.015,-134.007 669.37,-116 606.474,-90.0507 527.603,-77.8485 481.609,-72.5725"/>
<polygon fill="midnightblue" stroke="midnightblue" points="481.804,-69.0731 471.482,-71.4625 481.041,-76.0314 481.804,-69.0731"/>
</g>
</g>
</svg>
