<?xml version="1.0" encoding="UTF-8" standalone="no"?>
<!DOCTYPE svg PUBLIC "-//W3C//DTD SVG 1.1//EN"
 "http://www.w3.org/Graphics/SVG/1.1/DTD/svg11.dtd">
<!-- Generated by graphviz version 2.40.1 (20161225.0304)
 -->
<!-- Title: TransportParams.h Pages: 1 -->
<svg width="986pt" height="247pt"
 viewBox="0.00 0.00 986.36 247.00" xmlns="http://www.w3.org/2000/svg" xmlns:xlink="http://www.w3.org/1999/xlink">
<g id="graph0" class="graph" transform="scale(1 1) rotate(0) translate(4 243)">
<title>TransportParams.h</title>
<polygon fill="#ffffff" stroke="transparent" points="-4,4 -4,-243 982.3647,-243 982.3647,4 -4,4"/>
<!-- Node38 -->
<g id="node1" class="node">
<title>Node38</title>
<polygon fill="#bfbfbf" stroke="#000000" points="208.5146,-220.5 208.5146,-238.5 309.7344,-238.5 309.7344,-220.5 208.5146,-220.5"/>
<text text-anchor="middle" x="259.1245" y="-226.5" font-family="Helvetica,sans-Serif" font-size="10.00" fill="#000000">TransportParams.h</text>
</g>
<!-- Node39 -->
<g id="node2" class="node">
<title>Node39</title>
<g id="a_node2"><a xlink:href="HighPressureGasTransport_8cpp.html" target="_top" xlink:title="Implementation file for class HighPressureGasTransport. ">
<polygon fill="#ffffff" stroke="#000000" points="0,-.5 0,-18.5 156.249,-18.5 156.249,-.5 0,-.5"/>
<text text-anchor="middle" x="78.1245" y="-6.5" font-family="Helvetica,sans-Serif" font-size="10.00" fill="#000000">HighPressureGasTransport.cpp</text>
</a>
</g>
</g>
<!-- Node38&#45;&gt;Node39 -->
<g id="edge1" class="edge">
<title>Node38&#45;&gt;Node39</title>
<path fill="none" stroke="#191970" d="M198.2448,-222.3532C148.527,-215.2672 83.5737,-202.7384 65.1245,-184 19.7267,-137.8904 58.8733,-47.7079 73.3049,-18.7131"/>
<polygon fill="#191970" stroke="#191970" points="197.8984,-225.8386 208.2834,-223.7405 198.8567,-218.9045 197.8984,-225.8386"/>
</g>
<!-- Node40 -->
<g id="node3" class="node">
<title>Node40</title>
<g id="a_node3"><a xlink:href="TransportParams_8cpp.html" target="_top" xlink:title="Class that holds the data that is read in from the XML file, and which is used for processing of the ...">
<polygon fill="#ffffff" stroke="#000000" points="74.2339,-165.5 74.2339,-183.5 186.0151,-183.5 186.0151,-165.5 74.2339,-165.5"/>
<text text-anchor="middle" x="130.1245" y="-171.5" font-family="Helvetica,sans-Serif" font-size="10.00" fill="#000000">TransportParams.cpp</text>
</a>
</g>
</g>
<!-- Node38&#45;&gt;Node40 -->
<g id="edge2" class="edge">
<title>Node38&#45;&gt;Node40</title>
<path fill="none" stroke="#191970" d="M228.5474,-216.4633C204.7997,-206.3383 172.4765,-192.5571 151.4579,-183.5956"/>
<polygon fill="#191970" stroke="#191970" points="227.2513,-219.7154 237.8228,-220.4179 229.9967,-213.2762 227.2513,-219.7154"/>
</g>
<!-- Node41 -->
<g id="node4" class="node">
<title>Node41</title>
<g id="a_node4"><a xlink:href="LiquidTranInteraction_8h.html" target="_top" xlink:title="Header file defining the class LiquidTranInteraction and classes which derive from LiquidTranInteract...">
<polygon fill="#ffffff" stroke="#000000" points="424.165,-165.5 424.165,-183.5 542.084,-183.5 542.084,-165.5 424.165,-165.5"/>
<text text-anchor="middle" x="483.1245" y="-171.5" font-family="Helvetica,sans-Serif" font-size="10.00" fill="#000000">LiquidTranInteraction.h</text>
</a>
</g>
</g>
<!-- Node38&#45;&gt;Node41 -->
<g id="edge3" class="edge">
<title>Node38&#45;&gt;Node41</title>
<path fill="none" stroke="#191970" d="M306.0489,-217.9784C347.8319,-207.7192 408.1165,-192.9172 446.4528,-183.5042"/>
<polygon fill="#191970" stroke="#191970" points="304.9905,-214.6342 296.1136,-220.4179 306.6597,-221.4323 304.9905,-214.6342"/>
</g>
<!-- Node42 -->
<g id="node5" class="node">
<title>Node42</title>
<g id="a_node5"><a xlink:href="LiquidTransportParams_8h.html" target="_top" xlink:title="Header file defining class LiquidTransportParams. ">
<polygon fill="#ffffff" stroke="#000000" points="428.1699,-110.5 428.1699,-128.5 556.0791,-128.5 556.0791,-110.5 428.1699,-110.5"/>
<text text-anchor="middle" x="492.1245" y="-116.5" font-family="Helvetica,sans-Serif" font-size="10.00" fill="#000000">LiquidTransportParams.h</text>
</a>
</g>
</g>
<!-- Node38&#45;&gt;Node42 -->
<g id="edge19" class="edge">
<title>Node38&#45;&gt;Node42</title>
<path fill="none" stroke="#191970" d="M287.3948,-216.1535C335.4103,-193.4852 431.6812,-148.0355 472.7937,-128.6261"/>
<polygon fill="#191970" stroke="#191970" points="285.7406,-213.064 278.1919,-220.4982 288.729,-219.394 285.7406,-213.064"/>
</g>
<!-- Node54 -->
<g id="node17" class="node">
<title>Node54</title>
<g id="a_node17"><a xlink:href="SolidTransportData_8h.html" target="_top" xlink:title="Header file defining class SolidTransportData. ">
<polygon fill="#ffffff" stroke="#000000" points="204.0615,-165.5 204.0615,-183.5 314.1875,-183.5 314.1875,-165.5 204.0615,-165.5"/>
<text text-anchor="middle" x="259.1245" y="-171.5" font-family="Helvetica,sans-Serif" font-size="10.00" fill="#000000">SolidTransportData.h</text>
</a>
</g>
</g>
<!-- Node38&#45;&gt;Node54 -->
<g id="edge20" class="edge">
<title>Node38&#45;&gt;Node54</title>
<path fill="none" stroke="#191970" d="M259.1245,-210.383C259.1245,-201.3738 259.1245,-191.0373 259.1245,-183.7795"/>
<polygon fill="#191970" stroke="#191970" points="255.6246,-210.4178 259.1245,-220.4179 262.6246,-210.4179 255.6246,-210.4178"/>
</g>
<!-- Node41&#45;&gt;Node42 -->
<g id="edge4" class="edge">
<title>Node41&#45;&gt;Node42</title>
<path fill="none" stroke="#191970" d="M486.2527,-155.383C487.727,-146.3738 489.4184,-136.0373 490.6061,-128.7795"/>
<polygon fill="#191970" stroke="#191970" points="482.7716,-154.9839 484.6107,-165.4179 489.6797,-156.1144 482.7716,-154.9839"/>
</g>
<!-- Node43 -->
<g id="node6" class="node">
<title>Node43</title>
<g id="a_node6"><a xlink:href="LiquidTranInteraction_8cpp.html" target="_top" xlink:title="Source code for liquid mixture transport property evaluations. ">
<polygon fill="#ffffff" stroke="#000000" points="849.8843,-55.5 849.8843,-73.5 978.3647,-73.5 978.3647,-55.5 849.8843,-55.5"/>
<text text-anchor="middle" x="914.1245" y="-61.5" font-family="Helvetica,sans-Serif" font-size="10.00" fill="#000000">LiquidTranInteraction.cpp</text>
</a>
</g>
</g>
<!-- Node42&#45;&gt;Node43 -->
<g id="edge5" class="edge">
<title>Node42&#45;&gt;Node43</title>
<path fill="none" stroke="#191970" d="M566.2618,-109.8376C646.5963,-99.3674 773.4874,-82.8295 849.7753,-72.8867"/>
<polygon fill="#191970" stroke="#191970" points="565.681,-106.3836 556.2172,-111.1467 566.5857,-113.3249 565.681,-106.3836"/>
</g>
<!-- Node44 -->
<g id="node7" class="node">
<title>Node44</title>
<g id="a_node7"><a xlink:href="LiquidTransportParams_8cpp.html" target="_top" xlink:title="Source code for liquid mixture transport property evaluations. ">
<polygon fill="#ffffff" stroke="#000000" points="355.8892,-55.5 355.8892,-73.5 494.3599,-73.5 494.3599,-55.5 355.8892,-55.5"/>
<text text-anchor="middle" x="425.1245" y="-61.5" font-family="Helvetica,sans-Serif" font-size="10.00" fill="#000000">LiquidTransportParams.cpp</text>
</a>
</g>
</g>
<!-- Node42&#45;&gt;Node44 -->
<g id="edge6" class="edge">
<title>Node42&#45;&gt;Node44</title>
<path fill="none" stroke="#191970" d="M473.0816,-103.8678C461.2478,-94.1535 446.4359,-81.9944 436.4286,-73.7795"/>
<polygon fill="#191970" stroke="#191970" points="471.1108,-106.7782 481.0608,-110.4179 475.5523,-101.3676 471.1108,-106.7782"/>
</g>
<!-- Node45 -->
<g id="node8" class="node">
<title>Node45</title>
<g id="a_node8"><a xlink:href="LiquidTransport_8h.html" target="_top" xlink:title="Header file defining class LiquidTransport. ">
<polygon fill="#ffffff" stroke="#000000" points="512.3965,-55.5 512.3965,-73.5 605.8525,-73.5 605.8525,-55.5 512.3965,-55.5"/>
<text text-anchor="middle" x="559.1245" y="-61.5" font-family="Helvetica,sans-Serif" font-size="10.00" fill="#000000">LiquidTransport.h</text>
</a>
</g>
</g>
<!-- Node42&#45;&gt;Node45 -->
<g id="edge7" class="edge">
<title>Node42&#45;&gt;Node45</title>
<path fill="none" stroke="#191970" d="M511.1674,-103.8678C523.0012,-94.1535 537.8131,-81.9944 547.8204,-73.7795"/>
<polygon fill="#191970" stroke="#191970" points="508.6968,-101.3676 503.1882,-110.4179 513.1382,-106.7782 508.6968,-101.3676"/>
</g>
<!-- Node48 -->
<g id="node11" class="node">
<title>Node48</title>
<g id="a_node11"><a xlink:href="SimpleTransport_8h.html" target="_top" xlink:title="Header file for the class SimpleTransport which provides simple transport properties for liquids and ...">
<polygon fill="#ffffff" stroke="#000000" points="623.458,-55.5 623.458,-73.5 720.791,-73.5 720.791,-55.5 623.458,-55.5"/>
<text text-anchor="middle" x="672.1245" y="-61.5" font-family="Helvetica,sans-Serif" font-size="10.00" fill="#000000">SimpleTransport.h</text>
</a>
</g>
</g>
<!-- Node42&#45;&gt;Node48 -->
<g id="edge10" class="edge">
<title>Node42&#45;&gt;Node48</title>
<path fill="none" stroke="#191970" d="M531.7641,-107.3879C565.2443,-97.1578 612.4363,-82.7381 642.6562,-73.5042"/>
<polygon fill="#191970" stroke="#191970" points="530.3886,-104.1484 521.8479,-110.4179 532.4342,-110.8428 530.3886,-104.1484"/>
</g>
<!-- Node50 -->
<g id="node13" class="node">
<title>Node50</title>
<g id="a_node13"><a xlink:href="TransportFactory_8h.html" target="_top" xlink:title="Header file defining class TransportFactory (see TransportFactory) ">
<polygon fill="#ffffff" stroke="#000000" points="200.4399,-55.5 200.4399,-73.5 299.8091,-73.5 299.8091,-55.5 200.4399,-55.5"/>
<text text-anchor="middle" x="250.1245" y="-61.5" font-family="Helvetica,sans-Serif" font-size="10.00" fill="#000000">TransportFactory.h</text>
</a>
</g>
</g>
<!-- Node42&#45;&gt;Node50 -->
<g id="edge13" class="edge">
<title>Node42&#45;&gt;Node50</title>
<path fill="none" stroke="#191970" d="M442.5653,-108.2365C397.421,-97.9765 331.607,-83.0187 289.8366,-73.5255"/>
<polygon fill="#191970" stroke="#191970" points="441.9071,-111.6761 452.4341,-110.4795 443.4585,-104.8502 441.9071,-111.6761"/>
</g>
<!-- Node52 -->
<g id="node15" class="node">
<title>Node52</title>
<g id="a_node15"><a xlink:href="WaterTransport_8h.html" target="_top" xlink:title="Header file defining class WaterTransport. ">
<polygon fill="#ffffff" stroke="#000000" points="738.5894,-55.5 738.5894,-73.5 831.6597,-73.5 831.6597,-55.5 738.5894,-55.5"/>
<text text-anchor="middle" x="785.1245" y="-61.5" font-family="Helvetica,sans-Serif" font-size="10.00" fill="#000000">WaterTransport.h</text>
</a>
</g>
</g>
<!-- Node42&#45;&gt;Node52 -->
<g id="edge17" class="edge">
<title>Node42&#45;&gt;Node52</title>
<path fill="none" stroke="#191970" d="M550.1646,-108.6051C605.3838,-98.2397 687.4054,-82.8432 738.4967,-73.2527"/>
<polygon fill="#191970" stroke="#191970" points="549.362,-105.1945 540.1794,-110.4795 550.6535,-112.0744 549.362,-105.1945"/>
</g>
<!-- Node46 -->
<g id="node9" class="node">
<title>Node46</title>
<g id="a_node9"><a xlink:href="LiquidTransport_8cpp.html" target="_top" xlink:title="Mixture&#45;averaged transport properties for ideal gas mixtures. ">
<polygon fill="#ffffff" stroke="#000000" points="496.1157,-.5 496.1157,-18.5 600.1333,-18.5 600.1333,-.5 496.1157,-.5"/>
<text text-anchor="middle" x="548.1245" y="-6.5" font-family="Helvetica,sans-Serif" font-size="10.00" fill="#000000">LiquidTransport.cpp</text>
</a>
</g>
</g>
<!-- Node45&#45;&gt;Node46 -->
<g id="edge8" class="edge">
<title>Node45&#45;&gt;Node46</title>
<path fill="none" stroke="#191970" d="M555.3011,-45.383C553.4993,-36.3738 551.432,-26.0373 549.9804,-18.7795"/>
<polygon fill="#191970" stroke="#191970" points="551.9148,-46.2985 557.3081,-55.4179 558.7789,-44.9256 551.9148,-46.2985"/>
</g>
<!-- Node47 -->
<g id="node10" class="node">
<title>Node47</title>
<g id="a_node10"><a xlink:href="TransportFactory_8cpp.html" target="_top" xlink:title="Implementation file for class TransportFactory. ">
<polygon fill="#ffffff" stroke="#000000" points="334.1592,-.5 334.1592,-18.5 444.0898,-18.5 444.0898,-.5 334.1592,-.5"/>
<text text-anchor="middle" x="389.1245" y="-6.5" font-family="Helvetica,sans-Serif" font-size="10.00" fill="#000000">TransportFactory.cpp</text>
</a>
</g>
</g>
<!-- Node45&#45;&gt;Node47 -->
<g id="edge9" class="edge">
<title>Node45&#45;&gt;Node47</title>
<path fill="none" stroke="#191970" d="M521.2775,-52.2554C489.683,-42.0336 445.3736,-27.6983 416.9557,-18.5042"/>
<polygon fill="#191970" stroke="#191970" points="520.4606,-55.6697 531.0525,-55.4179 522.6154,-49.0095 520.4606,-55.6697"/>
</g>
<!-- Node48&#45;&gt;Node47 -->
<g id="edge12" class="edge">
<title>Node48&#45;&gt;Node47</title>
<path fill="none" stroke="#191970" d="M615.8245,-53.5583C562.9961,-43.2913 484.925,-28.1185 435.5647,-18.5255"/>
<polygon fill="#191970" stroke="#191970" points="615.2256,-57.0073 625.7097,-55.4795 616.5611,-50.1359 615.2256,-57.0073"/>
</g>
<!-- Node49 -->
<g id="node12" class="node">
<title>Node49</title>
<g id="a_node12"><a xlink:href="SimpleTransport_8cpp.html" target="_top" xlink:title="Simple mostly constant transport properties. ">
<polygon fill="#ffffff" stroke="#000000" points="618.1772,-.5 618.1772,-18.5 726.0718,-18.5 726.0718,-.5 618.1772,-.5"/>
<text text-anchor="middle" x="672.1245" y="-6.5" font-family="Helvetica,sans-Serif" font-size="10.00" fill="#000000">SimpleTransport.cpp</text>
</a>
</g>
</g>
<!-- Node48&#45;&gt;Node49 -->
<g id="edge11" class="edge">
<title>Node48&#45;&gt;Node49</title>
<path fill="none" stroke="#191970" d="M672.1245,-45.383C672.1245,-36.3738 672.1245,-26.0373 672.1245,-18.7795"/>
<polygon fill="#191970" stroke="#191970" points="668.6246,-45.4178 672.1245,-55.4179 675.6246,-45.4179 668.6246,-45.4178"/>
</g>
<!-- Node50&#45;&gt;Node39 -->
<g id="edge14" class="edge">
<title>Node50&#45;&gt;Node39</title>
<path fill="none" stroke="#191970" d="M211.8323,-52.2554C179.866,-42.0336 135.0354,-27.6983 106.2831,-18.5042"/>
<polygon fill="#191970" stroke="#191970" points="211.1313,-55.7058 221.7222,-55.4179 213.2634,-49.0383 211.1313,-55.7058"/>
</g>
<!-- Node50&#45;&gt;Node47 -->
<g id="edge15" class="edge">
<title>Node50&#45;&gt;Node47</title>
<path fill="none" stroke="#191970" d="M282.3918,-51.7324C308.0404,-41.5837 343.2881,-27.6367 366.1374,-18.5956"/>
<polygon fill="#191970" stroke="#191970" points="281.0883,-48.484 273.0775,-55.4179 283.6639,-54.993 281.0883,-48.484"/>
</g>
<!-- Node51 -->
<g id="node14" class="node">
<title>Node51</title>
<g id="a_node14"><a xlink:href="transport_8h.html" target="_top" xlink:title="Support for transport property calculation from C++ application programs. ">
<polygon fill="#ffffff" stroke="#000000" points="218.2231,-.5 218.2231,-18.5 282.0259,-18.5 282.0259,-.5 218.2231,-.5"/>
<text text-anchor="middle" x="250.1245" y="-6.5" font-family="Helvetica,sans-Serif" font-size="10.00" fill="#000000">transport.h</text>
</a>
</g>
</g>
<!-- Node50&#45;&gt;Node51 -->
<g id="edge16" class="edge">
<title>Node50&#45;&gt;Node51</title>
<path fill="none" stroke="#191970" d="M250.1245,-45.383C250.1245,-36.3738 250.1245,-26.0373 250.1245,-18.7795"/>
<polygon fill="#191970" stroke="#191970" points="246.6246,-45.4178 250.1245,-55.4179 253.6246,-45.4179 246.6246,-45.4178"/>
</g>
<!-- Node53 -->
<g id="node16" class="node">
<title>Node53</title>
<g id="a_node16"><a xlink:href="WaterTransport_8cpp.html" target="_top" xlink:title="WaterTransport.cpp">
<polygon fill="#ffffff" stroke="#000000" points="744.3086,-.5 744.3086,-18.5 847.9404,-18.5 847.9404,-.5 744.3086,-.5"/>
<text text-anchor="middle" x="796.1245" y="-6.5" font-family="Helvetica,sans-Serif" font-size="10.00" fill="#000000">WaterTransport.cpp</text>
</a>
</g>
</g>
<!-- Node52&#45;&gt;Node53 -->
<g id="edge18" class="edge">
<title>Node52&#45;&gt;Node53</title>
<path fill="none" stroke="#191970" d="M788.9479,-45.383C790.7497,-36.3738 792.817,-26.0373 794.2686,-18.7795"/>
<polygon fill="#191970" stroke="#191970" points="785.4701,-44.9256 786.9409,-55.4179 792.3342,-46.2985 785.4701,-44.9256"/>
</g>
<!-- Node54&#45;&gt;Node47 -->
<g id="edge23" class="edge">
<title>Node54&#45;&gt;Node47</title>
<path fill="none" stroke="#191970" d="M279.4349,-158.905C289.2119,-150.7204 300.626,-140.0997 309.1245,-129 331.6005,-99.6445 325.9473,-85.3058 347.1245,-55 356.7305,-41.2533 370.2254,-27.3645 379.3025,-18.6115"/>
<polygon fill="#191970" stroke="#191970" points="276.9528,-156.411 271.379,-165.4211 281.3551,-161.8535 276.9528,-156.411"/>
</g>
<!-- Node55 -->
<g id="node18" class="node">
<title>Node55</title>
<g id="a_node18"><a xlink:href="SolidTransport_8cpp.html" target="_top" xlink:title="Definition file for the class SolidTransport, which handles transport of ions within solid phases (se...">
<polygon fill="#ffffff" stroke="#000000" points="200.3423,-110.5 200.3423,-128.5 299.9067,-128.5 299.9067,-110.5 200.3423,-110.5"/>
<text text-anchor="middle" x="250.1245" y="-116.5" font-family="Helvetica,sans-Serif" font-size="10.00" fill="#000000">SolidTransport.cpp</text>
</a>
</g>
</g>
<!-- Node54&#45;&gt;Node55 -->
<g id="edge21" class="edge">
<title>Node54&#45;&gt;Node55</title>
<path fill="none" stroke="#191970" d="M255.9963,-155.383C254.522,-146.3738 252.8306,-136.0373 251.643,-128.7795"/>
<polygon fill="#191970" stroke="#191970" points="252.5693,-156.1144 257.6383,-165.4179 259.4774,-154.9839 252.5693,-156.1144"/>
</g>
<!-- Node56 -->
<g id="node19" class="node">
<title>Node56</title>
<g id="a_node19"><a xlink:href="SolidTransportData_8cpp.html" target="_top" xlink:title="Source code for solid transport property evaluations. ">
<polygon fill="#ffffff" stroke="#000000" points="61.7808,-110.5 61.7808,-128.5 182.4683,-128.5 182.4683,-110.5 61.7808,-110.5"/>
<text text-anchor="middle" x="122.1245" y="-116.5" font-family="Helvetica,sans-Serif" font-size="10.00" fill="#000000">SolidTransportData.cpp</text>
</a>
</g>
</g>
<!-- Node54&#45;&gt;Node56 -->
<g id="edge22" class="edge">
<title>Node54&#45;&gt;Node56</title>
<path fill="none" stroke="#191970" d="M226.9869,-161.598C201.7361,-151.4609 167.2022,-137.5969 144.7809,-128.5956"/>
<polygon fill="#191970" stroke="#191970" points="225.9177,-164.9403 236.5017,-165.4179 228.5256,-158.4442 225.9177,-164.9403"/>
</g>
</g>
</svg>
