<?xml version="1.0" encoding="UTF-8" standalone="no"?>
<!DOCTYPE svg PUBLIC "-//W3C//DTD SVG 1.1//EN"
 "http://www.w3.org/Graphics/SVG/1.1/DTD/svg11.dtd">
<!-- Generated by graphviz version 2.36.0 (20140111.2315)
 -->
<!-- Title: TransportParams.h Pages: 1 -->
<svg width="1053pt" height="252pt"
 viewBox="0.00 0.00 1053.00 252.00" xmlns="http://www.w3.org/2000/svg" xmlns:xlink="http://www.w3.org/1999/xlink">
<g id="graph0" class="graph" transform="scale(1 1) rotate(0) translate(4 248)">
<title>TransportParams.h</title>
<polygon fill="white" stroke="none" points="-4,4 -4,-248 1049,-248 1049,4 -4,4"/>
<!-- Node1 -->
<g id="node1" class="node"><title>Node1</title>
<polygon fill="#bfbfbf" stroke="black" points="578,-224.5 578,-243.5 676,-243.5 676,-224.5 578,-224.5"/>
<text text-anchor="middle" x="627" y="-231.5" font-family="FreeSans" font-size="10.00">TransportParams.h</text>
</g>
<!-- Node2 -->
<g id="node2" class="node"><title>Node2</title>
<g id="a_node2"><a xlink:href="HighPressureGasTransport_8cpp.html" target="_top" xlink:title="Implementation file for class HighPressureGasTransport. ">
<polygon fill="white" stroke="black" points="-0.5,-0.5 -0.5,-19.5 148.5,-19.5 148.5,-0.5 -0.5,-0.5"/>
<text text-anchor="middle" x="74" y="-7.5" font-family="FreeSans" font-size="10.00">HighPressureGasTransport.cpp</text>
</a>
</g>
</g>
<!-- Node1&#45;&gt;Node2 -->
<g id="edge1" class="edge"><title>Node1&#45;&gt;Node2</title>
<path fill="none" stroke="midnightblue" d="M568.035,-224.691C470.625,-208.801 272.876,-167.232 132,-76 108.642,-60.8732 88.8982,-33.9121 79.64,-19.943"/>
<polygon fill="midnightblue" stroke="midnightblue" points="567.566,-228.161 577.993,-226.283 568.671,-221.248 567.566,-228.161"/>
</g>
<!-- Node3 -->
<g id="node3" class="node"><title>Node3</title>
<g id="a_node3"><a xlink:href="TransportParams_8cpp.html" target="_top" xlink:title="Class that holds the data that is read in from the XML file, and which is used for processing of the ...">
<polygon fill="white" stroke="black" points="856,-168.5 856,-187.5 964,-187.5 964,-168.5 856,-168.5"/>
<text text-anchor="middle" x="910" y="-175.5" font-family="FreeSans" font-size="10.00">TransportParams.cpp</text>
</a>
</g>
</g>
<!-- Node1&#45;&gt;Node3 -->
<g id="edge2" class="edge"><title>Node1&#45;&gt;Node3</title>
<path fill="none" stroke="midnightblue" d="M681.833,-222.537C735.318,-212.332 815.671,-196.999 865.368,-187.516"/>
<polygon fill="midnightblue" stroke="midnightblue" points="681.009,-219.131 671.842,-224.444 682.321,-226.007 681.009,-219.131"/>
</g>
<!-- Node4 -->
<g id="node4" class="node"><title>Node4</title>
<g id="a_node4"><a xlink:href="LiquidTranInteraction_8h.html" target="_top" xlink:title="Header file defining the class LiquidTranInteraction and classes which derive from LiquidTranInteract...">
<polygon fill="white" stroke="black" points="569.5,-168.5 569.5,-187.5 684.5,-187.5 684.5,-168.5 569.5,-168.5"/>
<text text-anchor="middle" x="627" y="-175.5" font-family="FreeSans" font-size="10.00">LiquidTranInteraction.h</text>
</a>
</g>
</g>
<!-- Node1&#45;&gt;Node4 -->
<g id="edge3" class="edge"><title>Node1&#45;&gt;Node4</title>
<path fill="none" stroke="midnightblue" d="M627,-213.805C627,-204.91 627,-194.78 627,-187.751"/>
<polygon fill="midnightblue" stroke="midnightblue" points="623.5,-214.083 627,-224.083 630.5,-214.083 623.5,-214.083"/>
</g>
<!-- Node5 -->
<g id="node5" class="node"><title>Node5</title>
<g id="a_node5"><a xlink:href="LiquidTransportParams_8h.html" target="_top" xlink:title="Header file defining class LiquidTransportParams. ">
<polygon fill="white" stroke="black" points="479.5,-112.5 479.5,-131.5 602.5,-131.5 602.5,-112.5 479.5,-112.5"/>
<text text-anchor="middle" x="541" y="-119.5" font-family="FreeSans" font-size="10.00">LiquidTransportParams.h</text>
</a>
</g>
</g>
<!-- Node1&#45;&gt;Node5 -->
<g id="edge20" class="edge"><title>Node1&#45;&gt;Node5</title>
<path fill="none" stroke="midnightblue" d="M598.308,-219.619C584.923,-212.057 569.818,-201.413 560,-188 547.361,-170.734 543.09,-145.165 541.677,-131.826"/>
<polygon fill="midnightblue" stroke="midnightblue" points="596.741,-222.75 607.213,-224.358 600.029,-216.571 596.741,-222.75"/>
</g>
<!-- Node17 -->
<g id="node17" class="node"><title>Node17</title>
<g id="a_node17"><a xlink:href="SolidTransportData_8h.html" target="_top" xlink:title="Header file defining class SolidTransportData. ">
<polygon fill="white" stroke="black" points="730.5,-168.5 730.5,-187.5 837.5,-187.5 837.5,-168.5 730.5,-168.5"/>
<text text-anchor="middle" x="784" y="-175.5" font-family="FreeSans" font-size="10.00">SolidTransportData.h</text>
</a>
</g>
</g>
<!-- Node1&#45;&gt;Node17 -->
<g id="edge21" class="edge"><title>Node1&#45;&gt;Node17</title>
<path fill="none" stroke="midnightblue" d="M661.389,-221.172C690.952,-211.004 732.873,-196.585 759.239,-187.516"/>
<polygon fill="midnightblue" stroke="midnightblue" points="660.195,-217.881 651.877,-224.444 662.472,-224.501 660.195,-217.881"/>
</g>
<!-- Node4&#45;&gt;Node5 -->
<g id="edge4" class="edge"><title>Node4&#45;&gt;Node5</title>
<path fill="none" stroke="midnightblue" d="M604.545,-162.901C588.776,-152.999 568.186,-140.071 554.783,-131.655"/>
<polygon fill="midnightblue" stroke="midnightblue" points="602.852,-165.97 613.183,-168.324 606.575,-160.042 602.852,-165.97"/>
</g>
<!-- Node6 -->
<g id="node6" class="node"><title>Node6</title>
<g id="a_node6"><a xlink:href="LiquidTranInteraction_8cpp.html" target="_top" xlink:title="Source code for liquid mixture transport property evaluations. ">
<polygon fill="white" stroke="black" points="478.5,-56.5 478.5,-75.5 603.5,-75.5 603.5,-56.5 478.5,-56.5"/>
<text text-anchor="middle" x="541" y="-63.5" font-family="FreeSans" font-size="10.00">LiquidTranInteraction.cpp</text>
</a>
</g>
</g>
<!-- Node5&#45;&gt;Node6 -->
<g id="edge5" class="edge"><title>Node5&#45;&gt;Node6</title>
<path fill="none" stroke="midnightblue" d="M541,-101.805C541,-92.9102 541,-82.7798 541,-75.7511"/>
<polygon fill="midnightblue" stroke="midnightblue" points="537.5,-102.083 541,-112.083 544.5,-102.083 537.5,-102.083"/>
</g>
<!-- Node7 -->
<g id="node7" class="node"><title>Node7</title>
<g id="a_node7"><a xlink:href="LiquidTransportParams_8cpp.html" target="_top" xlink:title="Source code for liquid mixture transport property evaluations. ">
<polygon fill="white" stroke="black" points="622,-56.5 622,-75.5 756,-75.5 756,-56.5 622,-56.5"/>
<text text-anchor="middle" x="689" y="-63.5" font-family="FreeSans" font-size="10.00">LiquidTransportParams.cpp</text>
</a>
</g>
</g>
<!-- Node5&#45;&gt;Node7 -->
<g id="edge6" class="edge"><title>Node5&#45;&gt;Node7</title>
<path fill="none" stroke="midnightblue" d="M574.147,-108.906C601.972,-98.7536 641.02,-84.5063 665.659,-75.5164"/>
<polygon fill="midnightblue" stroke="midnightblue" points="572.646,-105.728 564.451,-112.444 575.045,-112.304 572.646,-105.728"/>
</g>
<!-- Node8 -->
<g id="node8" class="node"><title>Node8</title>
<g id="a_node8"><a xlink:href="LiquidTransport_8h.html" target="_top" xlink:title="Header file defining class LiquidTransport. ">
<polygon fill="white" stroke="black" points="257,-56.5 257,-75.5 347,-75.5 347,-56.5 257,-56.5"/>
<text text-anchor="middle" x="302" y="-63.5" font-family="FreeSans" font-size="10.00">LiquidTransport.h</text>
</a>
</g>
</g>
<!-- Node5&#45;&gt;Node8 -->
<g id="edge7" class="edge"><title>Node5&#45;&gt;Node8</title>
<path fill="none" stroke="midnightblue" d="M493.276,-110.217C448.115,-100.013 381.227,-84.9006 339.693,-75.5164"/>
<polygon fill="midnightblue" stroke="midnightblue" points="492.604,-113.654 503.13,-112.444 494.147,-106.826 492.604,-113.654"/>
</g>
<!-- Node12 -->
<g id="node12" class="node"><title>Node12</title>
<g id="a_node12"><a xlink:href="SimpleTransport_8h.html" target="_top" xlink:title="Header file for the class SimpleTransport which provides simple transport properties for liquids and ...">
<polygon fill="white" stroke="black" points="365.5,-56.5 365.5,-75.5 460.5,-75.5 460.5,-56.5 365.5,-56.5"/>
<text text-anchor="middle" x="413" y="-63.5" font-family="FreeSans" font-size="10.00">SimpleTransport.h</text>
</a>
</g>
</g>
<!-- Node5&#45;&gt;Node12 -->
<g id="edge11" class="edge"><title>Node5&#45;&gt;Node12</title>
<path fill="none" stroke="midnightblue" d="M511.377,-108.503C487.381,-98.3795 454.216,-84.388 433.187,-75.5164"/>
<polygon fill="midnightblue" stroke="midnightblue" points="510.144,-111.781 520.718,-112.444 512.865,-105.332 510.144,-111.781"/>
</g>
<!-- Node14 -->
<g id="node14" class="node"><title>Node14</title>
<g id="a_node14"><a xlink:href="TransportFactory_8h.html" target="_top" xlink:title="Header file defining class TransportFactory (see TransportFactory) ">
<polygon fill="white" stroke="black" points="141.5,-56.5 141.5,-75.5 238.5,-75.5 238.5,-56.5 141.5,-56.5"/>
<text text-anchor="middle" x="190" y="-63.5" font-family="FreeSans" font-size="10.00">TransportFactory.h</text>
</a>
</g>
</g>
<!-- Node5&#45;&gt;Node14 -->
<g id="edge14" class="edge"><title>Node5&#45;&gt;Node14</title>
<path fill="none" stroke="midnightblue" d="M475.379,-110.951C415.995,-101.851 326.131,-88.0617 248,-76 244.979,-75.5336 241.869,-75.0529 238.733,-74.5677"/>
<polygon fill="midnightblue" stroke="midnightblue" points="474.956,-114.427 485.371,-112.483 476.017,-107.508 474.956,-114.427"/>
</g>
<!-- Node15 -->
<g id="node15" class="node"><title>Node15</title>
<g id="a_node15"><a xlink:href="WaterTransport_8h.html" target="_top" xlink:title="Header file defining class WaterTransport. ">
<polygon fill="white" stroke="black" points="812,-56.5 812,-75.5 902,-75.5 902,-56.5 812,-56.5"/>
<text text-anchor="middle" x="857" y="-63.5" font-family="FreeSans" font-size="10.00">WaterTransport.h</text>
</a>
</g>
</g>
<!-- Node5&#45;&gt;Node15 -->
<g id="edge18" class="edge"><title>Node5&#45;&gt;Node15</title>
<path fill="none" stroke="midnightblue" d="M601.008,-110.746C662.393,-100.256 756.386,-84.1935 811.771,-74.729"/>
<polygon fill="midnightblue" stroke="midnightblue" points="600.339,-107.309 591.071,-112.444 601.518,-114.209 600.339,-107.309"/>
</g>
<!-- Node9 -->
<g id="node9" class="node"><title>Node9</title>
<g id="a_node9"><a xlink:href="LiquidTransport_8cpp.html" target="_top" xlink:title="Mixture&#45;averaged transport properties for ideal gas mixtures. ">
<polygon fill="white" stroke="black" points="246.5,-0.5 246.5,-19.5 347.5,-19.5 347.5,-0.5 246.5,-0.5"/>
<text text-anchor="middle" x="297" y="-7.5" font-family="FreeSans" font-size="10.00">LiquidTransport.cpp</text>
</a>
</g>
</g>
<!-- Node8&#45;&gt;Node9 -->
<g id="edge8" class="edge"><title>Node8&#45;&gt;Node9</title>
<path fill="none" stroke="midnightblue" d="M300.25,-46.1005C299.42,-37.1357 298.468,-26.8579 297.81,-19.7511"/>
<polygon fill="midnightblue" stroke="midnightblue" points="296.767,-46.4483 301.174,-56.083 303.737,-45.8029 296.767,-46.4483"/>
</g>
<!-- Node10 -->
<g id="node10" class="node"><title>Node10</title>
<g id="a_node10"><a xlink:href="TransportFactory_8cpp.html" target="_top" xlink:title="Implementation file for class TransportFactory. ">
<polygon fill="white" stroke="black" points="365.5,-0.5 365.5,-19.5 472.5,-19.5 472.5,-0.5 365.5,-0.5"/>
<text text-anchor="middle" x="419" y="-7.5" font-family="FreeSans" font-size="10.00">TransportFactory.cpp</text>
</a>
</g>
</g>
<!-- Node8&#45;&gt;Node10 -->
<g id="edge9" class="edge"><title>Node8&#45;&gt;Node10</title>
<path fill="none" stroke="midnightblue" d="M329.664,-52.2321C351.549,-42.1312 381.497,-28.3091 400.548,-19.5164"/>
<polygon fill="midnightblue" stroke="midnightblue" points="328.152,-49.075 320.539,-56.4435 331.085,-55.4308 328.152,-49.075"/>
</g>
<!-- Node11 -->
<g id="node11" class="node"><title>Node11</title>
<g id="a_node11"><a xlink:href="transport_8h.html" target="_top" xlink:title="Support for transport property calculation from C++ application programs. ">
<polygon fill="white" stroke="black" points="166,-0.5 166,-19.5 228,-19.5 228,-0.5 166,-0.5"/>
<text text-anchor="middle" x="197" y="-7.5" font-family="FreeSans" font-size="10.00">transport.h</text>
</a>
</g>
</g>
<!-- Node8&#45;&gt;Node11 -->
<g id="edge10" class="edge"><title>Node8&#45;&gt;Node11</title>
<path fill="none" stroke="midnightblue" d="M276.19,-51.7261C256.747,-41.7271 230.652,-28.3065 213.828,-19.6545"/>
<polygon fill="midnightblue" stroke="midnightblue" points="274.636,-54.8629 285.13,-56.324 277.838,-48.6379 274.636,-54.8629"/>
</g>
<!-- Node12&#45;&gt;Node10 -->
<g id="edge13" class="edge"><title>Node12&#45;&gt;Node10</title>
<path fill="none" stroke="midnightblue" d="M415.1,-46.1005C416.096,-37.1357 417.238,-26.8579 418.028,-19.7511"/>
<polygon fill="midnightblue" stroke="midnightblue" points="411.617,-45.7576 413.991,-56.083 418.574,-46.5307 411.617,-45.7576"/>
</g>
<!-- Node13 -->
<g id="node13" class="node"><title>Node13</title>
<g id="a_node13"><a xlink:href="SimpleTransport_8cpp.html" target="_top" xlink:title="Simple mostly constant transport properties. ">
<polygon fill="white" stroke="black" points="490.5,-0.5 490.5,-19.5 595.5,-19.5 595.5,-0.5 490.5,-0.5"/>
<text text-anchor="middle" x="543" y="-7.5" font-family="FreeSans" font-size="10.00">SimpleTransport.cpp</text>
</a>
</g>
</g>
<!-- Node12&#45;&gt;Node13 -->
<g id="edge12" class="edge"><title>Node12&#45;&gt;Node13</title>
<path fill="none" stroke="midnightblue" d="M443.085,-52.503C467.457,-42.3795 501.14,-28.388 522.497,-19.5164"/>
<polygon fill="midnightblue" stroke="midnightblue" points="441.491,-49.3752 433.599,-56.4435 444.177,-55.8397 441.491,-49.3752"/>
</g>
<!-- Node14&#45;&gt;Node2 -->
<g id="edge15" class="edge"><title>Node14&#45;&gt;Node2</title>
<path fill="none" stroke="midnightblue" d="M162.28,-52.096C140.608,-42.0073 111.098,-28.2697 92.2946,-19.5164"/>
<polygon fill="midnightblue" stroke="midnightblue" points="161.077,-55.3962 171.619,-56.4435 164.031,-49.0501 161.077,-55.3962"/>
</g>
<!-- Node14&#45;&gt;Node10 -->
<g id="edge16" class="edge"><title>Node14&#45;&gt;Node10</title>
<path fill="none" stroke="midnightblue" d="M236.273,-54.0884C279.537,-43.8865 343.255,-28.8612 382.884,-19.5164"/>
<polygon fill="midnightblue" stroke="midnightblue" points="235.215,-50.7418 226.286,-56.4435 236.822,-57.5549 235.215,-50.7418"/>
</g>
<!-- Node14&#45;&gt;Node11 -->
<g id="edge17" class="edge"><title>Node14&#45;&gt;Node11</title>
<path fill="none" stroke="midnightblue" d="M192.45,-46.1005C193.612,-37.1357 194.944,-26.8579 195.866,-19.7511"/>
<polygon fill="midnightblue" stroke="midnightblue" points="188.971,-45.716 191.156,-56.083 195.912,-46.6159 188.971,-45.716"/>
</g>
<!-- Node16 -->
<g id="node16" class="node"><title>Node16</title>
<g id="a_node16"><a xlink:href="WaterTransport_8cpp.html" target="_top" xlink:title="WaterTransport.cpp">
<polygon fill="white" stroke="black" points="806.5,-0.5 806.5,-19.5 907.5,-19.5 907.5,-0.5 806.5,-0.5"/>
<text text-anchor="middle" x="857" y="-7.5" font-family="FreeSans" font-size="10.00">WaterTransport.cpp</text>
</a>
</g>
</g>
<!-- Node15&#45;&gt;Node16 -->
<g id="edge19" class="edge"><title>Node15&#45;&gt;Node16</title>
<path fill="none" stroke="midnightblue" d="M857,-45.8045C857,-36.9102 857,-26.7798 857,-19.7511"/>
<polygon fill="midnightblue" stroke="midnightblue" points="853.5,-46.083 857,-56.083 860.5,-46.083 853.5,-46.083"/>
</g>
<!-- Node17&#45;&gt;Node10 -->
<g id="edge24" class="edge"><title>Node17&#45;&gt;Node10</title>
<path fill="none" stroke="midnightblue" d="M787.218,-158.499C790.695,-131.786 792.502,-82.6977 765,-56 719.354,-11.6887 544.036,-28.5698 481,-20 478.306,-19.6337 475.546,-19.2531 472.76,-18.8645"/>
<polygon fill="midnightblue" stroke="midnightblue" points="783.748,-158.035 785.706,-168.447 790.669,-159.087 783.748,-158.035"/>
</g>
<!-- Node18 -->
<g id="node18" class="node"><title>Node18</title>
<g id="a_node18"><a xlink:href="SolidTransport_8cpp.html" target="_top" xlink:title="Definition file for the class SolidTransport, which handles transport of ions within solid phases (se...">
<polygon fill="white" stroke="black" points="812.5,-112.5 812.5,-131.5 909.5,-131.5 909.5,-112.5 812.5,-112.5"/>
<text text-anchor="middle" x="861" y="-119.5" font-family="FreeSans" font-size="10.00">SolidTransport.cpp</text>
</a>
</g>
</g>
<!-- Node17&#45;&gt;Node18 -->
<g id="edge22" class="edge"><title>Node17&#45;&gt;Node18</title>
<path fill="none" stroke="midnightblue" d="M804.901,-162.342C818.911,-152.517 836.883,-139.913 848.659,-131.655"/>
<polygon fill="midnightblue" stroke="midnightblue" points="802.549,-159.717 796.371,-168.324 806.568,-165.448 802.549,-159.717"/>
</g>
<!-- Node19 -->
<g id="node19" class="node"><title>Node19</title>
<g id="a_node19"><a xlink:href="SolidTransportData_8cpp.html" target="_top" xlink:title="Source code for solid transport property evaluations. ">
<polygon fill="white" stroke="black" points="927.5,-112.5 927.5,-131.5 1044.5,-131.5 1044.5,-112.5 927.5,-112.5"/>
<text text-anchor="middle" x="986" y="-119.5" font-family="FreeSans" font-size="10.00">SolidTransportData.cpp</text>
</a>
</g>
</g>
<!-- Node17&#45;&gt;Node19 -->
<g id="edge23" class="edge"><title>Node17&#45;&gt;Node19</title>
<path fill="none" stroke="midnightblue" d="M825.788,-165.829C863.927,-155.633 919.481,-140.782 954.142,-131.516"/>
<polygon fill="midnightblue" stroke="midnightblue" points="824.764,-162.48 816.008,-168.444 826.572,-169.242 824.764,-162.48"/>
</g>
</g>
</svg>
