<?xml version="1.0" encoding="UTF-8" standalone="no"?>
<!DOCTYPE svg PUBLIC "-//W3C//DTD SVG 1.1//EN"
 "http://www.w3.org/Graphics/SVG/1.1/DTD/svg11.dtd">
<!-- Generated by graphviz version 2.40.1 (20161225.0304)
 -->
<!-- Title: TransportFactory.h Pages: 1 -->
<svg width="374pt" height="82pt"
 viewBox="0.00 0.00 374.03 82.00" xmlns="http://www.w3.org/2000/svg" xmlns:xlink="http://www.w3.org/1999/xlink">
<g id="graph0" class="graph" transform="scale(1 1) rotate(0) translate(4 78)">
<title>TransportFactory.h</title>
<polygon fill="#ffffff" stroke="transparent" points="-4,4 -4,-78 370.0259,-78 370.0259,4 -4,4"/>
<!-- Node48 -->
<g id="node1" class="node">
<title>Node48</title>
<polygon fill="#bfbfbf" stroke="#000000" points="179.4399,-55.5 179.4399,-73.5 278.8091,-73.5 278.8091,-55.5 179.4399,-55.5"/>
<text text-anchor="middle" x="229.1245" y="-61.5" font-family="Helvetica,sans-Serif" font-size="10.00" fill="#000000">TransportFactory.h</text>
</g>
<!-- Node49 -->
<g id="node2" class="node">
<title>Node49</title>
<g id="a_node2"><a xlink:href="HighPressureGasTransport_8cpp.html" target="_top" xlink:title="Implementation file for class HighPressureGasTransport. ">
<polygon fill="#ffffff" stroke="#000000" points="0,-.5 0,-18.5 156.249,-18.5 156.249,-.5 0,-.5"/>
<text text-anchor="middle" x="78.1245" y="-6.5" font-family="Helvetica,sans-Serif" font-size="10.00" fill="#000000">HighPressureGasTransport.cpp</text>
</a>
</g>
</g>
<!-- Node48&#45;&gt;Node49 -->
<g id="edge1" class="edge">
<title>Node48&#45;&gt;Node49</title>
<path fill="none" stroke="#191970" d="M194.7761,-51.989C166.7637,-41.7858 127.8684,-27.6186 102.8452,-18.5042"/>
<polygon fill="#191970" stroke="#191970" points="193.5959,-55.284 204.1899,-55.4179 195.9917,-48.7067 193.5959,-55.284"/>
</g>
<!-- Node50 -->
<g id="node3" class="node">
<title>Node50</title>
<g id="a_node3"><a xlink:href="TransportFactory_8cpp.html" target="_top" xlink:title="Implementation file for class TransportFactory. ">
<polygon fill="#ffffff" stroke="#000000" points="174.1592,-.5 174.1592,-18.5 284.0898,-18.5 284.0898,-.5 174.1592,-.5"/>
<text text-anchor="middle" x="229.1245" y="-6.5" font-family="Helvetica,sans-Serif" font-size="10.00" fill="#000000">TransportFactory.cpp</text>
</a>
</g>
</g>
<!-- Node48&#45;&gt;Node50 -->
<g id="edge2" class="edge">
<title>Node48&#45;&gt;Node50</title>
<path fill="none" stroke="#191970" d="M229.1245,-45.383C229.1245,-36.3738 229.1245,-26.0373 229.1245,-18.7795"/>
<polygon fill="#191970" stroke="#191970" points="225.6246,-45.4178 229.1245,-55.4179 232.6246,-45.4179 225.6246,-45.4178"/>
</g>
<!-- Node51 -->
<g id="node4" class="node">
<title>Node51</title>
<g id="a_node4"><a xlink:href="transport_8h.html" target="_top" xlink:title="Support for transport property calculation from C++ application programs. ">
<polygon fill="#ffffff" stroke="#000000" points="302.2231,-.5 302.2231,-18.5 366.0259,-18.5 366.0259,-.5 302.2231,-.5"/>
<text text-anchor="middle" x="334.1245" y="-6.5" font-family="Helvetica,sans-Serif" font-size="10.00" fill="#000000">transport.h</text>
</a>
</g>
</g>
<!-- Node48&#45;&gt;Node51 -->
<g id="edge3" class="edge">
<title>Node48&#45;&gt;Node51</title>
<path fill="none" stroke="#191970" d="M255.5738,-50.6456C274.739,-40.6067 300.1082,-27.3181 316.7601,-18.5956"/>
<polygon fill="#191970" stroke="#191970" points="253.6974,-47.6773 246.4631,-55.4179 256.9455,-53.8782 253.6974,-47.6773"/>
</g>
</g>
</svg>
