<?xml version="1.0" encoding="UTF-8" standalone="no"?>
<!DOCTYPE svg PUBLIC "-//W3C//DTD SVG 1.1//EN"
 "http://www.w3.org/Graphics/SVG/1.1/DTD/svg11.dtd">
<!-- Generated by graphviz version 2.28.0 (20120425.2022)
 -->
<!-- Title: TransportBase.cpp Pages: 1 -->
<svg width="1509pt" height="768pt"
 viewBox="0.00 0.00 1509.26 768.00" xmlns="http://www.w3.org/2000/svg" xmlns:xlink="http://www.w3.org/1999/xlink">
<g id="graph1" class="graph" transform="scale(1 1) rotate(0) translate(4 764)">
<title>TransportBase.cpp</title>
<polygon fill="white" stroke="white" points="-4,5 -4,-764 1506.26,-764 1506.26,5 -4,5"/>
<!-- Node1 -->
<g id="node1" class="node"><title>Node1</title>
<polygon fill="#bfbfbf" stroke="black" points="722.5,-740.5 722.5,-759.5 823.5,-759.5 823.5,-740.5 722.5,-740.5"/>
<text text-anchor="middle" x="773" y="-747.5" font-family="FreeSans" font-size="10.00">TransportBase.cpp</text>
</g>
<!-- Node2 -->
<g id="node3" class="node"><title>Node2</title>
<a xlink:href="ThermoPhase_8h.html" target="_top" xlink:title="Header file for class ThermoPhase, the base class for phases with thermodynamic properties, and the text for the Module thermoprops (see Thermodynamic Properties and class ThermoPhase). ">
<polygon fill="white" stroke="black" points="326,-336.5 326,-355.5 486,-355.5 486,-336.5 326,-336.5"/>
<text text-anchor="middle" x="406" y="-343.5" font-family="FreeSans" font-size="10.00">cantera/thermo/ThermoPhase.h</text>
</a>
</g>
<!-- Node1&#45;&gt;Node2 -->
<g id="edge2" class="edge"><title>Node1&#45;&gt;Node2</title>
<path fill="none" stroke="midnightblue" d="M722.376,-748.114C589.33,-744.424 240,-725.369 240,-627 240,-627 240,-627 240,-457 240,-401.368 305.587,-372.212 354.308,-358.228"/>
<polygon fill="midnightblue" stroke="midnightblue" points="355.387,-361.562 364.111,-355.551 353.542,-354.81 355.387,-361.562"/>
</g>
<!-- Node8 -->
<g id="node15" class="node"><title>Node8</title>
<a xlink:href="utilities_8h.html" target="_top" xlink:title="Various templated functions that carry out common vector operations (see Templated Utility Functions)...">
<polygon fill="white" stroke="black" points="182,-112.5 182,-131.5 236,-131.5 236,-112.5 182,-112.5"/>
<text text-anchor="middle" x="209" y="-119.5" font-family="FreeSans" font-size="10.00">utilities.h</text>
</a>
</g>
<!-- Node1&#45;&gt;Node8 -->
<g id="edge120" class="edge"><title>Node1&#45;&gt;Node8</title>
<path fill="none" stroke="midnightblue" d="M722.138,-747.974C597.128,-745.003 277.653,-734.566 176,-704 108.74,-683.776 38,-697.235 38,-627 38,-627 38,-627 38,-233 38,-199.989 129.273,-156.499 178.453,-135.462"/>
<polygon fill="midnightblue" stroke="midnightblue" points="179.837,-138.677 187.688,-131.564 177.114,-132.228 179.837,-138.677"/>
</g>
<!-- Node16 -->
<g id="node34" class="node"><title>Node16</title>
<a xlink:href="ctexceptions_8h.html" target="_top" xlink:title="Definitions for the classes that are thrown when Cantera experiences an error condition (also contain...">
<polygon fill="white" stroke="red" points="652,-112.5 652,-131.5 732,-131.5 732,-112.5 652,-112.5"/>
<text text-anchor="middle" x="692" y="-119.5" font-family="FreeSans" font-size="10.00">ctexceptions.h</text>
</a>
</g>
<!-- Node1&#45;&gt;Node16 -->
<g id="edge118" class="edge"><title>Node1&#45;&gt;Node16</title>
<path fill="none" stroke="midnightblue" d="M823.719,-749.024C976.662,-748.651 1425.97,-744.117 1477,-704 1505.18,-681.846 1501,-662.846 1501,-627 1501,-627 1501,-627 1501,-569 1501,-377.905 1173,-482.095 1173,-291 1173,-291 1173,-291 1173,-233 1173,-145.393 865.945,-127.558 742.496,-123.928"/>
<polygon fill="midnightblue" stroke="midnightblue" points="742.275,-120.42 732.182,-123.645 742.083,-127.418 742.275,-120.42"/>
</g>
<!-- Node20 -->
<g id="node50" class="node"><title>Node20</title>
<a xlink:href="LiquidTransport_8h.html" target="_top" xlink:title="Header file defining class LiquidTransport. ">
<polygon fill="white" stroke="black" points="757,-673 757,-703 879,-703 879,-673 757,-673"/>
<text text-anchor="start" x="765" y="-691" font-family="FreeSans" font-size="10.00">cantera/transport/Liquid</text>
<text text-anchor="middle" x="818" y="-680" font-family="FreeSans" font-size="10.00">Transport.h</text>
</a>
</g>
<!-- Node1&#45;&gt;Node20 -->
<g id="edge60" class="edge"><title>Node1&#45;&gt;Node20</title>
<path fill="none" stroke="midnightblue" d="M779.447,-740.403C785.143,-732.809 793.703,-721.396 801.311,-711.252"/>
<polygon fill="midnightblue" stroke="midnightblue" points="804.194,-713.241 807.394,-703.141 798.594,-709.041 804.194,-713.241"/>
</g>
<!-- Node24 -->
<g id="node64" class="node"><title>Node24</title>
<a xlink:href="LiquidTransportParams_8h.html" target="_top" xlink:title="Header file defining class LiquidTransportParams. ">
<polygon fill="white" stroke="black" points="665,-616.5 665,-635.5 793,-635.5 793,-616.5 665,-616.5"/>
<text text-anchor="middle" x="729" y="-623.5" font-family="FreeSans" font-size="10.00">LiquidTransportParams.h</text>
</a>
</g>
<!-- Node1&#45;&gt;Node24 -->
<g id="edge122" class="edge"><title>Node1&#45;&gt;Node24</title>
<path fill="none" stroke="midnightblue" d="M767.297,-740.376C761.689,-731.559 753.231,-717.308 748,-704 740.461,-684.82 735.243,-661.747 732.209,-645.889"/>
<polygon fill="midnightblue" stroke="midnightblue" points="735.604,-644.996 730.383,-635.777 728.715,-646.239 735.604,-644.996"/>
</g>
<!-- Node30 -->
<g id="node92" class="node"><title>Node30</title>
<a xlink:href="TransportFactory_8h.html" target="_top" xlink:title="Header file defining class TransportFactory (see TransportFactory) ">
<polygon fill="white" stroke="black" points="898.5,-673 898.5,-703 1035.5,-703 1035.5,-673 898.5,-673"/>
<text text-anchor="start" x="906.5" y="-691" font-family="FreeSans" font-size="10.00">cantera/transport/Transport</text>
<text text-anchor="middle" x="967" y="-680" font-family="FreeSans" font-size="10.00">Factory.h</text>
</a>
</g>
<!-- Node1&#45;&gt;Node30 -->
<g id="edge124" class="edge"><title>Node1&#45;&gt;Node30</title>
<path fill="none" stroke="midnightblue" d="M800.795,-740.403C829.621,-731.488 875.461,-717.311 911.705,-706.101"/>
<polygon fill="midnightblue" stroke="midnightblue" points="913.132,-709.324 921.651,-703.025 911.064,-702.636 913.132,-709.324"/>
</g>
<!-- Node35 -->
<g id="node111" class="node"><title>Node35</title>
<a xlink:href="stringUtils_8h.html" target="_top" xlink:title="Contains declarations for string manipulation functions within Cantera. ">
<polygon fill="white" stroke="black" points="1277.5,-112.5 1277.5,-131.5 1406.5,-131.5 1406.5,-112.5 1277.5,-112.5"/>
<text text-anchor="middle" x="1342" y="-119.5" font-family="FreeSans" font-size="10.00">cantera/base/stringUtils.h</text>
</a>
</g>
<!-- Node1&#45;&gt;Node35 -->
<g id="edge152" class="edge"><title>Node1&#45;&gt;Node35</title>
<path fill="none" stroke="midnightblue" d="M823.737,-745.398C983.084,-733.414 1463,-691.931 1463,-627 1463,-627 1463,-627 1463,-233 1463,-184.992 1410.2,-152.411 1374.36,-135.824"/>
<polygon fill="midnightblue" stroke="midnightblue" points="1375.32,-132.421 1364.76,-131.57 1372.48,-138.821 1375.32,-132.421"/>
</g>
<!-- Node36 -->
<g id="node115" class="node"><title>Node36</title>
<a xlink:href="ctlapack_8h.html" target="_top" xlink:title="cantera/numerics/ctlapack.h">
<polygon fill="white" stroke="black" points="68,-616.5 68,-635.5 210,-635.5 210,-616.5 68,-616.5"/>
<text text-anchor="middle" x="139" y="-623.5" font-family="FreeSans" font-size="10.00">cantera/numerics/ctlapack.h</text>
</a>
</g>
<!-- Node1&#45;&gt;Node36 -->
<g id="edge158" class="edge"><title>Node1&#45;&gt;Node36</title>
<path fill="none" stroke="midnightblue" d="M722.068,-748.879C603.917,-747.952 314.518,-741.769 226,-704 195.07,-690.803 167.528,-662.138 152.079,-643.749"/>
<polygon fill="midnightblue" stroke="midnightblue" points="154.527,-641.212 145.504,-635.659 149.095,-645.627 154.527,-641.212"/>
</g>
<!-- Node3 -->
<g id="node5" class="node"><title>Node3</title>
<a xlink:href="Phase_8h.html" target="_top" xlink:title="Header file for class Phase. ">
<polygon fill="white" stroke="black" points="306.5,-280.5 306.5,-299.5 359.5,-299.5 359.5,-280.5 306.5,-280.5"/>
<text text-anchor="middle" x="333" y="-287.5" font-family="FreeSans" font-size="10.00">Phase.h</text>
</a>
</g>
<!-- Node2&#45;&gt;Node3 -->
<g id="edge4" class="edge"><title>Node2&#45;&gt;Node3</title>
<path fill="none" stroke="midnightblue" d="M394.271,-336.324C383.163,-328.107 366.258,-315.602 353.017,-305.807"/>
<polygon fill="midnightblue" stroke="midnightblue" points="355.063,-302.967 344.942,-299.834 350.9,-308.595 355.063,-302.967"/>
</g>
<!-- Node19 -->
<g id="node47" class="node"><title>Node19</title>
<a xlink:href="SpeciesThermo_8h.html" target="_top" xlink:title="Virtual base class for the calculation of multiple&#45;species thermodynamic reference&#45;state property man...">
<polygon fill="white" stroke="black" points="377.5,-280.5 377.5,-299.5 474.5,-299.5 474.5,-280.5 377.5,-280.5"/>
<text text-anchor="middle" x="426" y="-287.5" font-family="FreeSans" font-size="10.00">SpeciesThermo.h</text>
</a>
</g>
<!-- Node2&#45;&gt;Node19 -->
<g id="edge56" class="edge"><title>Node2&#45;&gt;Node19</title>
<path fill="none" stroke="midnightblue" d="M409.303,-336.083C411.982,-328.849 415.849,-318.409 419.186,-309.397"/>
<polygon fill="midnightblue" stroke="midnightblue" points="422.568,-310.344 422.759,-299.751 416.004,-307.913 422.568,-310.344"/>
</g>
<!-- Node4 -->
<g id="node7" class="node"><title>Node4</title>
<a xlink:href="vec__functions_8h.html" target="_top" xlink:title="Templates for operations on vector&#45;like objects. ">
<polygon fill="white" stroke="black" points="135.5,-168.5 135.5,-187.5 282.5,-187.5 282.5,-168.5 135.5,-168.5"/>
<text text-anchor="middle" x="209" y="-175.5" font-family="FreeSans" font-size="10.00">cantera/base/vec_functions.h</text>
</a>
</g>
<!-- Node3&#45;&gt;Node4 -->
<g id="edge6" class="edge"><title>Node3&#45;&gt;Node4</title>
<path fill="none" stroke="midnightblue" d="M323.27,-280.368C302.354,-261.814 252.865,-217.913 226.402,-194.438"/>
<polygon fill="midnightblue" stroke="midnightblue" points="228.488,-191.609 218.685,-187.591 223.843,-196.846 228.488,-191.609"/>
</g>
<!-- Node14 -->
<g id="node29" class="node"><title>Node14</title>
<a xlink:href="ctml_8h.html" target="_top" xlink:title="CTML (&quot;Cantera Markup Language&quot;) is the variant of XML that Cantera uses to store data...">
<polygon fill="white" stroke="black" points="492,-224.5 492,-243.5 596,-243.5 596,-224.5 492,-224.5"/>
<text text-anchor="middle" x="544" y="-231.5" font-family="FreeSans" font-size="10.00">cantera/base/ctml.h</text>
</a>
</g>
<!-- Node3&#45;&gt;Node14 -->
<g id="edge30" class="edge"><title>Node3&#45;&gt;Node14</title>
<path fill="none" stroke="midnightblue" d="M359.752,-282.117C362.537,-281.402 365.326,-280.686 368,-280 413.184,-268.414 464.904,-255.196 500.527,-246.098"/>
<polygon fill="midnightblue" stroke="midnightblue" points="501.761,-249.395 510.584,-243.529 500.028,-242.613 501.761,-249.395"/>
</g>
<!-- Node18 -->
<g id="node44" class="node"><title>Node18</title>
<a xlink:href="Elements_8h.html" target="_top" xlink:title="Contains the LookupWtElements function and the definitions of element constraint types. ">
<polygon fill="white" stroke="black" points="72,-224.5 72,-243.5 208,-243.5 208,-224.5 72,-224.5"/>
<text text-anchor="middle" x="140" y="-231.5" font-family="FreeSans" font-size="10.00">cantera/thermo/Elements.h</text>
</a>
</g>
<!-- Node3&#45;&gt;Node18 -->
<g id="edge52" class="edge"><title>Node3&#45;&gt;Node18</title>
<path fill="none" stroke="midnightblue" d="M306.164,-281.492C273.457,-272.34 217.887,-256.792 180.098,-246.219"/>
<polygon fill="midnightblue" stroke="midnightblue" points="180.995,-242.836 170.422,-243.512 179.109,-249.577 180.995,-242.836"/>
</g>
<!-- Node5 -->
<g id="node9" class="node"><title>Node5</title>
<a xlink:href="ct__defs_8h.html" target="_top" xlink:title="This file contains definitions of terms that are used in internal routines and are unlikely to need m...">
<polygon fill="white" stroke="red" points="558,-56.5 558,-75.5 614,-75.5 614,-56.5 558,-56.5"/>
<text text-anchor="middle" x="586" y="-63.5" font-family="FreeSans" font-size="10.00">ct_defs.h</text>
</a>
</g>
<!-- Node4&#45;&gt;Node5 -->
<g id="edge8" class="edge"><title>Node4&#45;&gt;Node5</title>
<path fill="none" stroke="midnightblue" d="M230.753,-168.383C252.345,-159.684 286.28,-145.625 315,-132 332.243,-123.82 334.992,-118.322 353,-112 419.316,-88.7181 500.718,-76.4824 547.65,-70.9097"/>
<polygon fill="midnightblue" stroke="midnightblue" points="548.15,-74.3754 557.685,-69.7577 547.351,-67.421 548.15,-74.3754"/>
</g>
<!-- Node4&#45;&gt;Node8 -->
<g id="edge14" class="edge"><title>Node4&#45;&gt;Node8</title>
<path fill="none" stroke="midnightblue" d="M209,-168.083C209,-161.006 209,-150.861 209,-141.986"/>
<polygon fill="midnightblue" stroke="midnightblue" points="212.5,-141.751 209,-131.751 205.5,-141.751 212.5,-141.751"/>
</g>
<!-- Node9 -->
<g id="node18" class="node"><title>Node9</title>
<polygon fill="white" stroke="#bfbfbf" points="113,-56.5 113,-75.5 171,-75.5 171,-56.5 113,-56.5"/>
<text text-anchor="middle" x="142" y="-63.5" font-family="FreeSans" font-size="10.00">algorithm</text>
</g>
<!-- Node4&#45;&gt;Node9 -->
<g id="edge24" class="edge"><title>Node4&#45;&gt;Node9</title>
<path fill="none" stroke="midnightblue" d="M152.307,-168.495C130.65,-162.18 108.046,-151.176 95,-132 82.9501,-114.289 102.352,-94.393 119.758,-81.3331"/>
<polygon fill="midnightblue" stroke="midnightblue" points="121.85,-84.1405 127.996,-75.5105 117.81,-78.4241 121.85,-84.1405"/>
</g>
<!-- Node10 -->
<g id="node20" class="node"><title>Node10</title>
<polygon fill="white" stroke="#bfbfbf" points="254,-112.5 254,-131.5 306,-131.5 306,-112.5 254,-112.5"/>
<text text-anchor="middle" x="280" y="-119.5" font-family="FreeSans" font-size="10.00">numeric</text>
</g>
<!-- Node4&#45;&gt;Node10 -->
<g id="edge20" class="edge"><title>Node4&#45;&gt;Node10</title>
<path fill="none" stroke="midnightblue" d="M220.407,-168.324C231.109,-160.185 247.341,-147.839 260.163,-138.087"/>
<polygon fill="midnightblue" stroke="midnightblue" points="262.544,-140.673 268.385,-131.834 258.307,-135.102 262.544,-140.673"/>
</g>
<!-- Node11 -->
<g id="node22" class="node"><title>Node11</title>
<polygon fill="white" stroke="#bfbfbf" points="104.5,-112.5 104.5,-131.5 163.5,-131.5 163.5,-112.5 104.5,-112.5"/>
<text text-anchor="middle" x="134" y="-119.5" font-family="FreeSans" font-size="10.00">functional</text>
</g>
<!-- Node4&#45;&gt;Node11 -->
<g id="edge22" class="edge"><title>Node4&#45;&gt;Node11</title>
<path fill="none" stroke="midnightblue" d="M196.95,-168.324C185.537,-160.107 168.169,-147.602 154.565,-137.807"/>
<polygon fill="midnightblue" stroke="midnightblue" points="156.43,-134.837 146.269,-131.834 152.34,-140.517 156.43,-134.837"/>
</g>
<!-- Node12 -->
<g id="node25" class="node"><title>Node12</title>
<polygon fill="white" stroke="#bfbfbf" points="362,-112.5 362,-131.5 418,-131.5 418,-112.5 362,-112.5"/>
<text text-anchor="middle" x="390" y="-119.5" font-family="FreeSans" font-size="10.00">iostream</text>
</g>
<!-- Node4&#45;&gt;Node12 -->
<g id="edge26" class="edge"><title>Node4&#45;&gt;Node12</title>
<path fill="none" stroke="midnightblue" d="M237.68,-168.444C268.618,-159.214 318.018,-144.475 352.13,-134.298"/>
<polygon fill="midnightblue" stroke="midnightblue" points="353.17,-137.64 361.752,-131.428 351.169,-130.933 353.17,-137.64"/>
</g>
<!-- Node13 -->
<g id="node27" class="node"><title>Node13</title>
<polygon fill="white" stroke="#bfbfbf" points="474,-112.5 474,-131.5 520,-131.5 520,-112.5 474,-112.5"/>
<text text-anchor="middle" x="497" y="-119.5" font-family="FreeSans" font-size="10.00">cstring</text>
</g>
<!-- Node4&#45;&gt;Node13 -->
<g id="edge28" class="edge"><title>Node4&#45;&gt;Node13</title>
<path fill="none" stroke="midnightblue" d="M254.634,-168.444C312.95,-157.509 412.494,-138.845 463.982,-129.191"/>
<polygon fill="midnightblue" stroke="midnightblue" points="464.726,-132.612 473.91,-127.329 463.436,-125.732 464.726,-132.612"/>
</g>
<!-- Node6 -->
<g id="node11" class="node"><title>Node6</title>
<a xlink:href="config_8h_source.html" target="_top" xlink:title="config.h">
<polygon fill="white" stroke="black" points="581.5,-0.5 581.5,-19.5 632.5,-19.5 632.5,-0.5 581.5,-0.5"/>
<text text-anchor="middle" x="607" y="-7.5" font-family="FreeSans" font-size="10.00">config.h</text>
</a>
</g>
<!-- Node5&#45;&gt;Node6 -->
<g id="edge10" class="edge"><title>Node5&#45;&gt;Node6</title>
<path fill="none" stroke="midnightblue" d="M589.468,-56.083C592.312,-48.77 596.429,-38.1814 599.96,-29.1034"/>
<polygon fill="midnightblue" stroke="midnightblue" points="603.234,-30.3397 603.597,-19.7511 596.71,-27.8025 603.234,-30.3397"/>
</g>
<!-- Node7 -->
<g id="node13" class="node"><title>Node7</title>
<polygon fill="white" stroke="#bfbfbf" points="671.5,-0.5 671.5,-19.5 712.5,-19.5 712.5,-0.5 671.5,-0.5"/>
<text text-anchor="middle" x="692" y="-7.5" font-family="FreeSans" font-size="10.00">string</text>
</g>
<!-- Node5&#45;&gt;Node7 -->
<g id="edge12" class="edge"><title>Node5&#45;&gt;Node7</title>
<path fill="none" stroke="midnightblue" d="M603.031,-56.324C620.03,-47.6641 646.376,-34.2424 665.993,-24.249"/>
<polygon fill="midnightblue" stroke="midnightblue" points="667.69,-27.3125 675.012,-19.6545 664.512,-21.0752 667.69,-27.3125"/>
</g>
<!-- Node8&#45;&gt;Node5 -->
<g id="edge16" class="edge"><title>Node8&#45;&gt;Node5</title>
<path fill="none" stroke="midnightblue" d="M236.054,-113.886C239.061,-113.2 242.089,-112.554 245,-112 353.966,-91.2591 484.336,-76.9251 547.678,-70.6203"/>
<polygon fill="midnightblue" stroke="midnightblue" points="548.372,-74.069 557.981,-69.607 547.686,-67.1026 548.372,-74.069"/>
</g>
<!-- Node8&#45;&gt;Node9 -->
<g id="edge18" class="edge"><title>Node8&#45;&gt;Node9</title>
<path fill="none" stroke="midnightblue" d="M198.235,-112.324C188.234,-104.263 173.113,-92.0765 161.07,-82.3695"/>
<polygon fill="midnightblue" stroke="midnightblue" points="162.943,-79.3841 152.961,-75.8339 158.55,-84.8343 162.943,-79.3841"/>
</g>
<!-- Node14&#45;&gt;Node5 -->
<g id="edge32" class="edge"><title>Node14&#45;&gt;Node5</title>
<path fill="none" stroke="midnightblue" d="M546.258,-224.075C552.869,-197.945 572.284,-121.211 581.3,-85.577"/>
<polygon fill="midnightblue" stroke="midnightblue" points="584.772,-86.1211 583.832,-75.5681 577.986,-84.4041 584.772,-86.1211"/>
</g>
<!-- Node15 -->
<g id="node32" class="node"><title>Node15</title>
<a xlink:href="xml_8h.html" target="_top" xlink:title="Classes providing support for XML data files. ">
<polygon fill="white" stroke="red" points="662,-168.5 662,-187.5 702,-187.5 702,-168.5 662,-168.5"/>
<text text-anchor="middle" x="682" y="-175.5" font-family="FreeSans" font-size="10.00">xml.h</text>
</a>
</g>
<!-- Node14&#45;&gt;Node15 -->
<g id="edge34" class="edge"><title>Node14&#45;&gt;Node15</title>
<path fill="none" stroke="midnightblue" d="M565.867,-224.444C589.184,-215.319 626.257,-200.813 652.227,-190.65"/>
<polygon fill="midnightblue" stroke="midnightblue" points="653.548,-193.892 661.585,-186.988 650.998,-187.373 653.548,-193.892"/>
</g>
<!-- Node17 -->
<g id="node37" class="node"><title>Node17</title>
<a xlink:href="Array_8h.html" target="_top" xlink:title="Header file for class Cantera::Array2D. ">
<polygon fill="white" stroke="black" points="473,-168.5 473,-187.5 521,-187.5 521,-168.5 473,-168.5"/>
<text text-anchor="middle" x="497" y="-175.5" font-family="FreeSans" font-size="10.00">Array.h</text>
</a>
</g>
<!-- Node14&#45;&gt;Node17 -->
<g id="edge40" class="edge"><title>Node14&#45;&gt;Node17</title>
<path fill="none" stroke="midnightblue" d="M536.239,-224.083C529.463,-216.298 519.457,-204.801 511.245,-195.367"/>
<polygon fill="midnightblue" stroke="midnightblue" points="513.822,-192.996 504.617,-187.751 508.542,-197.592 513.822,-192.996"/>
</g>
<!-- Node15&#45;&gt;Node16 -->
<g id="edge36" class="edge"><title>Node15&#45;&gt;Node16</title>
<path fill="none" stroke="midnightblue" d="M683.651,-168.083C684.976,-160.927 686.882,-150.635 688.539,-141.691"/>
<polygon fill="midnightblue" stroke="midnightblue" points="692,-142.221 690.379,-131.751 685.117,-140.947 692,-142.221"/>
</g>
<!-- Node16&#45;&gt;Node7 -->
<g id="edge38" class="edge"><title>Node16&#45;&gt;Node7</title>
<path fill="none" stroke="midnightblue" d="M692,-112.368C692,-94.617 692,-53.6664 692,-29.5974"/>
<polygon fill="midnightblue" stroke="midnightblue" points="695.5,-29.5914 692,-19.5914 688.5,-29.5915 695.5,-29.5914"/>
</g>
<!-- Node17&#45;&gt;Node5 -->
<g id="edge42" class="edge"><title>Node17&#45;&gt;Node5</title>
<path fill="none" stroke="midnightblue" d="M503.984,-168.368C518.736,-150.135 553.292,-107.426 572.508,-83.6752"/>
<polygon fill="midnightblue" stroke="midnightblue" points="575.48,-85.567 579.049,-75.5914 570.038,-81.164 575.48,-85.567"/>
</g>
<!-- Node17&#45;&gt;Node8 -->
<g id="edge46" class="edge"><title>Node17&#45;&gt;Node8</title>
<path fill="none" stroke="midnightblue" d="M472.919,-173.262C429.574,-166.413 335.357,-150.981 246.095,-132.116"/>
<polygon fill="midnightblue" stroke="midnightblue" points="246.591,-128.643 236.081,-129.981 245.131,-135.489 246.591,-128.643"/>
</g>
<!-- Node17&#45;&gt;Node12 -->
<g id="edge48" class="edge"><title>Node17&#45;&gt;Node12</title>
<path fill="none" stroke="midnightblue" d="M479.809,-168.324C462.649,-159.664 436.054,-146.242 416.253,-136.249"/>
<polygon fill="midnightblue" stroke="midnightblue" points="417.653,-133.035 407.149,-131.655 414.499,-139.285 417.653,-133.035"/>
</g>
<!-- Node17&#45;&gt;Node13 -->
<g id="edge50" class="edge"><title>Node17&#45;&gt;Node13</title>
<path fill="none" stroke="midnightblue" d="M497,-168.083C497,-161.006 497,-150.861 497,-141.986"/>
<polygon fill="midnightblue" stroke="midnightblue" points="500.5,-141.751 497,-131.751 493.5,-141.751 500.5,-141.751"/>
</g>
<!-- Node17&#45;&gt;Node16 -->
<g id="edge44" class="edge"><title>Node17&#45;&gt;Node16</title>
<path fill="none" stroke="midnightblue" d="M521.303,-170.27C553.893,-161.245 612.197,-145.099 651.483,-134.22"/>
<polygon fill="midnightblue" stroke="midnightblue" points="652.577,-137.549 661.281,-131.507 650.709,-130.803 652.577,-137.549"/>
</g>
<!-- Node18&#45;&gt;Node5 -->
<g id="edge54" class="edge"><title>Node18&#45;&gt;Node5</title>
<path fill="none" stroke="midnightblue" d="M131.369,-224.231C111.055,-202.557 64.1804,-145.773 95,-112 125.359,-78.7312 437.653,-69.7497 547.798,-67.607"/>
<polygon fill="midnightblue" stroke="midnightblue" points="547.877,-71.1063 557.81,-67.4205 547.747,-64.1075 547.877,-71.1063"/>
</g>
<!-- Node19&#45;&gt;Node5 -->
<g id="edge58" class="edge"><title>Node19&#45;&gt;Node5</title>
<path fill="none" stroke="midnightblue" d="M425.237,-280.374C423.248,-252.358 420.811,-162.811 465,-112 485.932,-87.9315 520.987,-76.7162 547.992,-71.5017"/>
<polygon fill="midnightblue" stroke="midnightblue" points="548.648,-74.9404 557.902,-69.7827 547.451,-68.0434 548.648,-74.9404"/>
</g>
<!-- Node21 -->
<g id="node52" class="node"><title>Node21</title>
<a xlink:href="TransportBase_8h.html" target="_top" xlink:title="Headers for the Transport object, which is the virtual base class for all transport property evaluato...">
<polygon fill="white" stroke="black" points="609.5,-392.5 609.5,-411.5 700.5,-411.5 700.5,-392.5 609.5,-392.5"/>
<text text-anchor="middle" x="655" y="-399.5" font-family="FreeSans" font-size="10.00">TransportBase.h</text>
</a>
</g>
<!-- Node20&#45;&gt;Node21 -->
<g id="edge62" class="edge"><title>Node20&#45;&gt;Node21</title>
<path fill="none" stroke="midnightblue" d="M756.854,-676.748C634.231,-654.757 365.736,-598.906 316,-524 247.786,-421.265 486.179,-405.017 599.013,-402.965"/>
<polygon fill="midnightblue" stroke="midnightblue" points="599.254,-406.462 609.2,-402.813 599.149,-399.463 599.254,-406.462"/>
</g>
<!-- Node22 -->
<g id="node55" class="node"><title>Node22</title>
<a xlink:href="DenseMatrix_8h.html" target="_top" xlink:title="Headers for the DenseMatrix object, which deals with dense rectangular matrices and description of th...">
<polygon fill="white" stroke="black" points="651.5,-336.5 651.5,-355.5 812.5,-355.5 812.5,-336.5 651.5,-336.5"/>
<text text-anchor="middle" x="732" y="-343.5" font-family="FreeSans" font-size="10.00">cantera/numerics/DenseMatrix.h</text>
</a>
</g>
<!-- Node20&#45;&gt;Node22 -->
<g id="edge72" class="edge"><title>Node20&#45;&gt;Node22</title>
<path fill="none" stroke="midnightblue" d="M845.359,-672.872C925.324,-629.847 1147.39,-496.965 1056,-392 1026.26,-357.84 907.782,-348.779 822.704,-346.801"/>
<polygon fill="midnightblue" stroke="midnightblue" points="822.571,-343.298 812.502,-346.594 822.429,-350.296 822.571,-343.298"/>
</g>
<!-- Node23 -->
<g id="node60" class="node"><title>Node23</title>
<a xlink:href="TransportParams_8h.html" target="_top" xlink:title="Class that holds the data that is read in from the xml file, and which is used for processing of the ...">
<polygon fill="white" stroke="black" points="681.5,-448.5 681.5,-467.5 782.5,-467.5 782.5,-448.5 681.5,-448.5"/>
<text text-anchor="middle" x="732" y="-455.5" font-family="FreeSans" font-size="10.00">TransportParams.h</text>
</a>
</g>
<!-- Node20&#45;&gt;Node23 -->
<g id="edge74" class="edge"><title>Node20&#45;&gt;Node23</title>
<path fill="none" stroke="midnightblue" d="M821.762,-672.853C829.566,-640.287 844.164,-558.627 811,-504 801.91,-489.028 785.857,-478.58 770.585,-471.548"/>
<polygon fill="midnightblue" stroke="midnightblue" points="771.82,-468.27 761.246,-467.601 769.095,-474.718 771.82,-468.27"/>
</g>
<!-- Node20&#45;&gt;Node24 -->
<g id="edge80" class="edge"><title>Node20&#45;&gt;Node24</title>
<path fill="none" stroke="midnightblue" d="M796.908,-672.781C782.825,-663.286 764.368,-650.843 750.251,-641.327"/>
<polygon fill="midnightblue" stroke="midnightblue" points="751.939,-638.244 741.691,-635.556 748.026,-644.048 751.939,-638.244"/>
</g>
<!-- Node21&#45;&gt;Node2 -->
<g id="edge64" class="edge"><title>Node21&#45;&gt;Node2</title>
<path fill="none" stroke="midnightblue" d="M615.545,-392.444C572.108,-383.023 502.214,-367.866 455.224,-357.675"/>
<polygon fill="midnightblue" stroke="midnightblue" points="455.785,-354.215 445.27,-355.516 454.301,-361.056 455.785,-354.215"/>
</g>
<!-- Node21&#45;&gt;Node22 -->
<g id="edge66" class="edge"><title>Node21&#45;&gt;Node22</title>
<path fill="none" stroke="midnightblue" d="M667.371,-392.324C679.158,-384.058 697.132,-371.453 711.136,-361.632"/>
<polygon fill="midnightblue" stroke="midnightblue" points="713.482,-364.262 719.659,-355.655 709.462,-358.531 713.482,-364.262"/>
</g>
<!-- Node22&#45;&gt;Node5 -->
<g id="edge68" class="edge"><title>Node22&#45;&gt;Node5</title>
<path fill="none" stroke="midnightblue" d="M735.776,-336.351C743.419,-318.034 760,-273.821 760,-235 760,-235 760,-235 760,-177 760,-146.902 762.302,-133.263 741,-112 710.087,-81.1436 659.354,-71.1799 624.398,-68.1061"/>
<polygon fill="midnightblue" stroke="midnightblue" points="624.323,-64.5915 614.095,-67.3578 623.815,-71.5731 624.323,-64.5915"/>
</g>
<!-- Node22&#45;&gt;Node17 -->
<g id="edge70" class="edge"><title>Node22&#45;&gt;Node17</title>
<path fill="none" stroke="midnightblue" d="M655.258,-336.484C597.204,-325.568 521.178,-300.685 483,-244 473.556,-229.978 479.499,-210.726 486.315,-196.818"/>
<polygon fill="midnightblue" stroke="midnightblue" points="489.524,-198.243 491.225,-187.786 483.374,-194.9 489.524,-198.243"/>
</g>
<!-- Node23&#45;&gt;Node21 -->
<g id="edge78" class="edge"><title>Node23&#45;&gt;Node21</title>
<path fill="none" stroke="midnightblue" d="M719.629,-448.324C707.842,-440.058 689.868,-427.453 675.864,-417.632"/>
<polygon fill="midnightblue" stroke="midnightblue" points="677.538,-414.531 667.341,-411.655 673.518,-420.262 677.538,-414.531"/>
</g>
<!-- Node23&#45;&gt;Node22 -->
<g id="edge76" class="edge"><title>Node23&#45;&gt;Node22</title>
<path fill="none" stroke="midnightblue" d="M732,-448.368C732,-430.617 732,-389.666 732,-365.597"/>
<polygon fill="midnightblue" stroke="midnightblue" points="735.5,-365.591 732,-355.591 728.5,-365.591 735.5,-365.591"/>
</g>
<!-- Node24&#45;&gt;Node15 -->
<g id="edge114" class="edge"><title>Node24&#45;&gt;Node15</title>
<path fill="none" stroke="midnightblue" d="M774.392,-616.461C880.336,-595.239 1135,-536.197 1135,-459 1135,-459 1135,-459 1135,-289 1135,-201.739 813.569,-183.436 712.225,-179.833"/>
<polygon fill="midnightblue" stroke="midnightblue" points="712.16,-176.329 702.049,-179.496 711.928,-183.326 712.16,-176.329"/>
</g>
<!-- Node24&#45;&gt;Node21 -->
<g id="edge82" class="edge"><title>Node24&#45;&gt;Node21</title>
<path fill="none" stroke="midnightblue" d="M720.927,-616.405C706.075,-599.976 674.776,-562.328 662,-524 650.454,-489.362 651.344,-446.089 653.116,-421.801"/>
<polygon fill="midnightblue" stroke="midnightblue" points="656.606,-422.063 653.978,-411.799 649.632,-421.462 656.606,-422.063"/>
</g>
<!-- Node24&#45;&gt;Node23 -->
<g id="edge84" class="edge"><title>Node24&#45;&gt;Node23</title>
<path fill="none" stroke="midnightblue" d="M737.161,-616.446C752.136,-600.085 783.523,-562.545 795,-524 797.537,-515.481 799.067,-511.904 795,-504 787.923,-490.247 774.479,-479.766 761.822,-472.394"/>
<polygon fill="midnightblue" stroke="midnightblue" points="763.313,-469.222 752.847,-467.573 760.001,-475.389 763.313,-469.222"/>
</g>
<!-- Node25 -->
<g id="node68" class="node"><title>Node25</title>
<a xlink:href="LiquidTransportData_8h.html" target="_top" xlink:title="Header file defining class LiquidTransportData. ">
<polygon fill="white" stroke="black" points="671,-504.5 671,-523.5 787,-523.5 787,-504.5 671,-504.5"/>
<text text-anchor="middle" x="729" y="-511.5" font-family="FreeSans" font-size="10.00">LiquidTransportData.h</text>
</a>
</g>
<!-- Node24&#45;&gt;Node25 -->
<g id="edge86" class="edge"><title>Node24&#45;&gt;Node25</title>
<path fill="none" stroke="midnightblue" d="M729,-616.368C729,-598.617 729,-557.666 729,-533.597"/>
<polygon fill="midnightblue" stroke="midnightblue" points="732.5,-533.591 729,-523.591 725.5,-533.591 732.5,-533.591"/>
</g>
<!-- Node28 -->
<g id="node77" class="node"><title>Node28</title>
<a xlink:href="LiquidTranInteraction_8h.html" target="_top" xlink:title="Header file defining the class LiquidTranInteraction and classes which derive from LiquidTranInteract...">
<polygon fill="white" stroke="black" points="497,-560.5 497,-579.5 615,-579.5 615,-560.5 497,-560.5"/>
<text text-anchor="middle" x="556" y="-567.5" font-family="FreeSans" font-size="10.00">LiquidTranInteraction.h</text>
</a>
</g>
<!-- Node24&#45;&gt;Node28 -->
<g id="edge98" class="edge"><title>Node24&#45;&gt;Node28</title>
<path fill="none" stroke="midnightblue" d="M701.588,-616.444C672.231,-607.28 625.481,-592.688 592.904,-582.519"/>
<polygon fill="midnightblue" stroke="midnightblue" points="593.873,-579.155 583.284,-579.516 591.787,-585.837 593.873,-579.155"/>
</g>
<!-- Node29 -->
<g id="node84" class="node"><title>Node29</title>
<a xlink:href="XML__Writer_8h_source.html" target="_top" xlink:title="cantera/base/XML_Writer.h">
<polygon fill="white" stroke="black" points="325.5,-504.5 325.5,-523.5 462.5,-523.5 462.5,-504.5 325.5,-504.5"/>
<text text-anchor="middle" x="394" y="-511.5" font-family="FreeSans" font-size="10.00">cantera/base/XML_Writer.h</text>
</a>
</g>
<!-- Node24&#45;&gt;Node29 -->
<g id="edge116" class="edge"><title>Node24&#45;&gt;Node29</title>
<path fill="none" stroke="midnightblue" d="M664.753,-620.372C614.96,-615.06 545.068,-603.778 488,-580 458.567,-567.736 429.045,-545.255 411.144,-530.218"/>
<polygon fill="midnightblue" stroke="midnightblue" points="413.206,-527.375 403.341,-523.511 408.643,-532.683 413.206,-527.375"/>
</g>
<!-- Node25&#45;&gt;Node21 -->
<g id="edge88" class="edge"><title>Node25&#45;&gt;Node21</title>
<path fill="none" stroke="midnightblue" d="M713.099,-504.385C700.141,-496.557 682.351,-483.828 672,-468 662.923,-454.119 658.684,-435.606 656.71,-421.888"/>
<polygon fill="midnightblue" stroke="midnightblue" points="660.157,-421.23 655.528,-411.7 653.204,-422.037 660.157,-421.23"/>
</g>
<!-- Node26 -->
<g id="node71" class="node"><title>Node26</title>
<a xlink:href="FactoryBase_8h.html" target="_top" xlink:title="File contains the FactoryBase class declarations. ">
<polygon fill="white" stroke="red" points="903,-392.5 903,-411.5 1047,-411.5 1047,-392.5 903,-392.5"/>
<text text-anchor="middle" x="975" y="-399.5" font-family="FreeSans" font-size="10.00">cantera/base/FactoryBase.h</text>
</a>
</g>
<!-- Node25&#45;&gt;Node26 -->
<g id="edge90" class="edge"><title>Node25&#45;&gt;Node26</title>
<path fill="none" stroke="midnightblue" d="M748.303,-504.368C791.415,-485.091 895.713,-438.454 946.398,-415.789"/>
<polygon fill="midnightblue" stroke="midnightblue" points="948.086,-418.869 955.786,-411.591 945.229,-412.478 948.086,-418.869"/>
</g>
<!-- Node27 -->
<g id="node73" class="node"><title>Node27</title>
<a xlink:href="LTPspecies_8h.html" target="_top" xlink:title="Header file defining class LTPspecies and its child classes. ">
<polygon fill="white" stroke="black" points="915,-448.5 915,-467.5 993,-467.5 993,-448.5 915,-448.5"/>
<text text-anchor="middle" x="954" y="-455.5" font-family="FreeSans" font-size="10.00">LTPspecies.h</text>
</a>
</g>
<!-- Node25&#45;&gt;Node27 -->
<g id="edge92" class="edge"><title>Node25&#45;&gt;Node27</title>
<path fill="none" stroke="midnightblue" d="M764.652,-504.444C803.656,-495.083 866.266,-480.056 908.717,-469.868"/>
<polygon fill="midnightblue" stroke="midnightblue" points="909.608,-473.254 918.515,-467.516 907.974,-466.447 909.608,-473.254"/>
</g>
<!-- Node27&#45;&gt;Node21 -->
<g id="edge94" class="edge"><title>Node27&#45;&gt;Node21</title>
<path fill="none" stroke="midnightblue" d="M914.911,-449.94C862.762,-440.522 770.115,-423.79 710.677,-413.055"/>
<polygon fill="midnightblue" stroke="midnightblue" points="711.172,-409.588 700.709,-411.255 709.928,-416.477 711.172,-409.588"/>
</g>
<!-- Node27&#45;&gt;Node26 -->
<g id="edge96" class="edge"><title>Node27&#45;&gt;Node26</title>
<path fill="none" stroke="midnightblue" d="M957.468,-448.083C960.312,-440.77 964.429,-430.181 967.96,-421.103"/>
<polygon fill="midnightblue" stroke="midnightblue" points="971.234,-422.34 971.597,-411.751 964.71,-419.803 971.234,-422.34"/>
</g>
<!-- Node28&#45;&gt;Node5 -->
<g id="edge100" class="edge"><title>Node28&#45;&gt;Node5</title>
<path fill="none" stroke="midnightblue" d="M555.48,-560.144C554.862,-547.612 554.132,-524 556,-504 567.75,-378.212 612.603,-350.107 605,-224 601.981,-173.918 593.59,-115.335 589.035,-85.9081"/>
<polygon fill="midnightblue" stroke="midnightblue" points="592.46,-85.1521 587.446,-75.8186 585.545,-86.2415 592.46,-85.1521"/>
</g>
<!-- Node28&#45;&gt;Node15 -->
<g id="edge108" class="edge"><title>Node28&#45;&gt;Node15</title>
<path fill="none" stroke="midnightblue" d="M556.342,-560.495C556.973,-547.991 558.678,-523.968 563,-504 589.292,-382.539 650.774,-245.204 673.424,-196.924"/>
<polygon fill="midnightblue" stroke="midnightblue" points="676.639,-198.312 677.754,-187.776 670.312,-195.318 676.639,-198.312"/>
</g>
<!-- Node28&#45;&gt;Node21 -->
<g id="edge102" class="edge"><title>Node28&#45;&gt;Node21</title>
<path fill="none" stroke="midnightblue" d="M557.607,-560.363C561.819,-539.46 574.711,-485.134 601,-448 609.457,-436.054 621.843,-425.424 632.62,-417.499"/>
<polygon fill="midnightblue" stroke="midnightblue" points="634.637,-420.36 640.812,-411.75 630.616,-414.63 634.637,-420.36"/>
</g>
<!-- Node28&#45;&gt;Node23 -->
<g id="edge104" class="edge"><title>Node28&#45;&gt;Node23</title>
<path fill="none" stroke="midnightblue" d="M569.81,-560.368C600.141,-541.412 672.799,-496.001 709.692,-472.942"/>
<polygon fill="midnightblue" stroke="midnightblue" points="711.629,-475.859 718.254,-467.591 707.919,-469.923 711.629,-475.859"/>
</g>
<!-- Node28&#45;&gt;Node25 -->
<g id="edge106" class="edge"><title>Node28&#45;&gt;Node25</title>
<path fill="none" stroke="midnightblue" d="M583.412,-560.444C612.769,-551.28 659.519,-536.688 692.096,-526.519"/>
<polygon fill="midnightblue" stroke="midnightblue" points="693.213,-529.837 701.716,-523.516 691.127,-523.155 693.213,-529.837"/>
</g>
<!-- Node28&#45;&gt;Node29 -->
<g id="edge110" class="edge"><title>Node28&#45;&gt;Node29</title>
<path fill="none" stroke="midnightblue" d="M530.331,-560.444C503.077,-551.359 459.816,-536.939 429.349,-526.783"/>
<polygon fill="midnightblue" stroke="midnightblue" points="430.143,-523.358 419.549,-523.516 427.929,-529.999 430.143,-523.358"/>
</g>
<!-- Node29&#45;&gt;Node12 -->
<g id="edge112" class="edge"><title>Node29&#45;&gt;Node12</title>
<path fill="none" stroke="midnightblue" d="M372.724,-504.403C339.236,-489.299 278,-454.622 278,-403 278,-403 278,-403 278,-345 278,-259.836 344.513,-174.093 375.026,-139.239"/>
<polygon fill="midnightblue" stroke="midnightblue" points="377.886,-141.292 381.945,-131.506 372.669,-136.625 377.886,-141.292"/>
</g>
<!-- Node30&#45;&gt;Node5 -->
<g id="edge126" class="edge"><title>Node30&#45;&gt;Node5</title>
<path fill="none" stroke="midnightblue" d="M984.158,-672.81C1039.7,-625.176 1211,-464.215 1211,-291 1211,-291 1211,-291 1211,-177 1211,-117.13 760.418,-79.6261 624.412,-69.6693"/>
<polygon fill="midnightblue" stroke="midnightblue" points="624.296,-66.1518 614.069,-68.9211 623.79,-73.1336 624.296,-66.1518"/>
</g>
<!-- Node30&#45;&gt;Node21 -->
<g id="edge136" class="edge"><title>Node30&#45;&gt;Node21</title>
<path fill="none" stroke="midnightblue" d="M960.477,-672.78C940.906,-631.668 878.579,-511.56 791,-448 767.352,-430.837 736.764,-419.95 710.588,-413.192"/>
<polygon fill="midnightblue" stroke="midnightblue" points="711.34,-409.773 700.795,-410.8 709.679,-416.573 711.34,-409.773"/>
</g>
<!-- Node30&#45;&gt;Node24 -->
<g id="edge140" class="edge"><title>Node30&#45;&gt;Node24</title>
<path fill="none" stroke="midnightblue" d="M911.2,-672.933C868.948,-662.281 811.723,-647.855 772.753,-638.03"/>
<polygon fill="midnightblue" stroke="midnightblue" points="773.319,-634.563 762.767,-635.513 771.608,-641.351 773.319,-634.563"/>
</g>
<!-- Node30&#45;&gt;Node26 -->
<g id="edge138" class="edge"><title>Node30&#45;&gt;Node26</title>
<path fill="none" stroke="midnightblue" d="M975.695,-672.858C992.009,-645.399 1026.67,-582.421 1039,-524 1046.26,-489.593 1035.76,-477.744 1017,-448 1010.26,-437.314 1000.79,-426.901 992.546,-418.788"/>
<polygon fill="midnightblue" stroke="midnightblue" points="994.815,-416.116 985.149,-411.78 990.001,-421.198 994.815,-416.116"/>
</g>
<!-- Node31 -->
<g id="node95" class="node"><title>Node31</title>
<a xlink:href="ct__thread_8h.html" target="_top" xlink:title="cantera/base/ct_thread.h">
<polygon fill="white" stroke="black" points="1162,-616.5 1162,-635.5 1290,-635.5 1290,-616.5 1162,-616.5"/>
<text text-anchor="middle" x="1226" y="-623.5" font-family="FreeSans" font-size="10.00">cantera/base/ct_thread.h</text>
</a>
</g>
<!-- Node30&#45;&gt;Node31 -->
<g id="edge128" class="edge"><title>Node30&#45;&gt;Node31</title>
<path fill="none" stroke="midnightblue" d="M1027.72,-672.933C1074.09,-662.19 1137.04,-647.609 1179.46,-637.78"/>
<polygon fill="midnightblue" stroke="midnightblue" points="1180.3,-641.179 1189.25,-635.513 1178.72,-634.36 1180.3,-641.179"/>
</g>
<!-- Node34 -->
<g id="node105" class="node"><title>Node34</title>
<a xlink:href="SolidTransportData_8h.html" target="_top" xlink:title="Header file defining class SolidTransportData. ">
<polygon fill="white" stroke="black" points="919,-504.5 919,-523.5 1031,-523.5 1031,-504.5 919,-504.5"/>
<text text-anchor="middle" x="975" y="-511.5" font-family="FreeSans" font-size="10.00">SolidTransportData.h</text>
</a>
</g>
<!-- Node30&#45;&gt;Node34 -->
<g id="edge142" class="edge"><title>Node30&#45;&gt;Node34</title>
<path fill="none" stroke="midnightblue" d="M967.655,-672.925C969.09,-642.073 972.512,-568.484 974.128,-533.755"/>
<polygon fill="midnightblue" stroke="midnightblue" points="977.632,-533.737 974.601,-523.585 970.64,-533.411 977.632,-533.737"/>
</g>
<!-- Node31&#45;&gt;Node6 -->
<g id="edge130" class="edge"><title>Node31&#45;&gt;Node6</title>
<path fill="none" stroke="midnightblue" d="M1211.05,-616.474C1199.07,-608.702 1183.13,-596.002 1176,-580 1172.38,-571.88 1174.54,-568.768 1176,-560 1192.45,-461.289 1249,-447.072 1249,-347 1249,-347 1249,-347 1249,-121 1249,-117.125 777.833,-39.1597 642.78,-16.8917"/>
<polygon fill="midnightblue" stroke="midnightblue" points="642.999,-13.3808 632.563,-15.2077 641.861,-20.2876 642.999,-13.3808"/>
</g>
<!-- Node32 -->
<g id="node98" class="node"><title>Node32</title>
<polygon fill="white" stroke="#bfbfbf" points="1185,-560.5 1185,-579.5 1295,-579.5 1295,-560.5 1185,-560.5"/>
<text text-anchor="middle" x="1240" y="-567.5" font-family="FreeSans" font-size="10.00">boost/shared_ptr.hpp</text>
</g>
<!-- Node31&#45;&gt;Node32 -->
<g id="edge132" class="edge"><title>Node31&#45;&gt;Node32</title>
<path fill="none" stroke="midnightblue" d="M1228.31,-616.083C1230.17,-608.927 1232.84,-598.635 1235.15,-589.691"/>
<polygon fill="midnightblue" stroke="midnightblue" points="1238.61,-590.309 1237.73,-579.751 1231.83,-588.553 1238.61,-590.309"/>
</g>
<!-- Node33 -->
<g id="node100" class="node"><title>Node33</title>
<polygon fill="white" stroke="#bfbfbf" points="1313.5,-560.5 1313.5,-579.5 1434.5,-579.5 1434.5,-560.5 1313.5,-560.5"/>
<text text-anchor="middle" x="1374" y="-567.5" font-family="FreeSans" font-size="10.00">boost/thread/mutex.hpp</text>
</g>
<!-- Node31&#45;&gt;Node33 -->
<g id="edge134" class="edge"><title>Node31&#45;&gt;Node33</title>
<path fill="none" stroke="midnightblue" d="M1249.45,-616.444C1274.13,-607.438 1313.19,-593.189 1340.98,-583.049"/>
<polygon fill="midnightblue" stroke="midnightblue" points="1342.46,-586.232 1350.66,-579.516 1340.06,-579.656 1342.46,-586.232"/>
</g>
<!-- Node34&#45;&gt;Node21 -->
<g id="edge144" class="edge"><title>Node34&#45;&gt;Node21</title>
<path fill="none" stroke="midnightblue" d="M963.204,-504.465C943.449,-490.571 901.995,-463.1 863,-448 813.242,-428.732 753.427,-416.882 710.738,-410.213"/>
<polygon fill="midnightblue" stroke="midnightblue" points="711.228,-406.747 700.816,-408.707 710.178,-413.668 711.228,-406.747"/>
</g>
<!-- Node34&#45;&gt;Node23 -->
<g id="edge146" class="edge"><title>Node34&#45;&gt;Node23</title>
<path fill="none" stroke="midnightblue" d="M936.496,-504.444C894.194,-495.043 826.181,-479.929 780.327,-469.739"/>
<polygon fill="midnightblue" stroke="midnightblue" points="780.845,-466.269 770.324,-467.516 779.327,-473.102 780.845,-466.269"/>
</g>
<!-- Node34&#45;&gt;Node26 -->
<g id="edge148" class="edge"><title>Node34&#45;&gt;Node26</title>
<path fill="none" stroke="midnightblue" d="M982.609,-504.412C992.485,-492.198 1007.81,-468.962 1002,-448 999.208,-437.921 993.491,-427.832 988.033,-419.769"/>
<polygon fill="midnightblue" stroke="midnightblue" points="990.847,-417.688 982.151,-411.636 985.175,-421.79 990.847,-417.688"/>
</g>
<!-- Node34&#45;&gt;Node27 -->
<g id="edge150" class="edge"><title>Node34&#45;&gt;Node27</title>
<path fill="none" stroke="midnightblue" d="M971.532,-504.083C968.688,-496.77 964.571,-486.181 961.04,-477.103"/>
<polygon fill="midnightblue" stroke="midnightblue" points="964.29,-475.803 957.403,-467.751 957.766,-478.34 964.29,-475.803"/>
</g>
<!-- Node35&#45;&gt;Node5 -->
<g id="edge154" class="edge"><title>Node35&#45;&gt;Node5</title>
<path fill="none" stroke="midnightblue" d="M1277.33,-115.95C1260.31,-114.642 1241.97,-113.25 1225,-112 997.064,-95.2075 723.285,-76.3758 624.162,-69.6011"/>
<polygon fill="midnightblue" stroke="midnightblue" points="624.249,-66.0989 614.033,-68.9092 623.771,-73.0826 624.249,-66.0989"/>
</g>
<!-- Node35&#45;&gt;Node7 -->
<g id="edge156" class="edge"><title>Node35&#45;&gt;Node7</title>
<path fill="none" stroke="midnightblue" d="M1334.79,-112.323C1322.06,-97.6933 1293.96,-68.4957 1263,-56 1163.58,-15.8809 826.565,-11.4201 722.718,-11.0111"/>
<polygon fill="midnightblue" stroke="midnightblue" points="722.6,-7.51084 712.59,-10.9815 722.58,-14.5108 722.6,-7.51084"/>
</g>
<!-- Node36&#45;&gt;Node5 -->
<g id="edge160" class="edge"><title>Node36&#45;&gt;Node5</title>
<path fill="none" stroke="midnightblue" d="M128.093,-616.124C95.325,-588.384 0,-499.403 0,-403 0,-403 0,-403 0,-177 0,-130.494 38.806,-129.235 82,-112 166.616,-78.2372 444.955,-69.6446 547.566,-67.5991"/>
<polygon fill="midnightblue" stroke="midnightblue" points="547.852,-71.0944 557.784,-67.4057 547.719,-64.0957 547.852,-71.0944"/>
</g>
</g>
</svg>
