<?xml version="1.0" encoding="UTF-8" standalone="no"?>
<!DOCTYPE svg PUBLIC "-//W3C//DTD SVG 1.1//EN"
 "http://www.w3.org/Graphics/SVG/1.1/DTD/svg11.dtd">
<!-- Generated by graphviz version 2.28.0 (20120425.2022)
 -->
<!-- Title: vcs_species_thermo.cpp Pages: 1 -->
<svg width="1148pt" height="332pt"
 viewBox="0.00 0.00 1148.00 332.00" xmlns="http://www.w3.org/2000/svg" xmlns:xlink="http://www.w3.org/1999/xlink">
<g id="graph1" class="graph" transform="scale(1 1) rotate(0) translate(4 328)">
<title>vcs_species_thermo.cpp</title>
<polygon fill="white" stroke="white" points="-4,5 -4,-328 1145,-328 1145,5 -4,5"/>
<!-- Node1 -->
<g id="node1" class="node"><title>Node1</title>
<polygon fill="#bfbfbf" stroke="black" points="776.5,-304.5 776.5,-323.5 903.5,-323.5 903.5,-304.5 776.5,-304.5"/>
<text text-anchor="middle" x="840" y="-311.5" font-family="FreeSans" font-size="10.00">vcs_species_thermo.cpp</text>
</g>
<!-- Node2 -->
<g id="node3" class="node"><title>Node2</title>
<a xlink:href="vcs__solve_8h.html" target="_top" xlink:title="Header file for the internal object that holds the vcs equilibrium problem (see Class VCS_SOLVE and E...">
<polygon fill="white" stroke="black" points="384.5,-248.5 384.5,-267.5 515.5,-267.5 515.5,-248.5 384.5,-248.5"/>
<text text-anchor="middle" x="450" y="-255.5" font-family="FreeSans" font-size="10.00">cantera/equil/vcs_solve.h</text>
</a>
</g>
<!-- Node1&#45;&gt;Node2 -->
<g id="edge2" class="edge"><title>Node1&#45;&gt;Node2</title>
<path fill="none" stroke="midnightblue" d="M778.203,-304.444C708.457,-294.786 595.162,-279.099 521.613,-268.916"/>
<polygon fill="midnightblue" stroke="midnightblue" points="521.893,-265.421 511.508,-267.516 520.933,-272.355 521.893,-265.421"/>
</g>
<!-- Node7 -->
<g id="node13" class="node"><title>Node7</title>
<polygon fill="white" stroke="#bfbfbf" points="891,-0.5 891,-19.5 935,-19.5 935,-0.5 891,-0.5"/>
<text text-anchor="middle" x="913" y="-7.5" font-family="FreeSans" font-size="10.00">cmath</text>
</g>
<!-- Node1&#45;&gt;Node7 -->
<g id="edge76" class="edge"><title>Node1&#45;&gt;Node7</title>
<path fill="none" stroke="midnightblue" d="M865.896,-304.456C883.575,-297.35 906.208,-285.535 920,-268 940.268,-242.232 940,-229.784 940,-197 940,-197 940,-197 940,-133 940,-95.5456 927.719,-53.1188 919.722,-29.4635"/>
<polygon fill="midnightblue" stroke="midnightblue" points="922.922,-28.0107 916.311,-19.7313 916.316,-30.3262 922.922,-28.0107"/>
</g>
<!-- Node8 -->
<g id="node15" class="node"><title>Node8</title>
<polygon fill="white" stroke="#bfbfbf" points="955.5,-0.5 955.5,-19.5 1000.5,-19.5 1000.5,-0.5 955.5,-0.5"/>
<text text-anchor="middle" x="978" y="-7.5" font-family="FreeSans" font-size="10.00">cstdlib</text>
</g>
<!-- Node1&#45;&gt;Node8 -->
<g id="edge74" class="edge"><title>Node1&#45;&gt;Node8</title>
<path fill="none" stroke="midnightblue" d="M872.377,-304.408C893.637,-297.436 920.936,-285.8 940,-268 966.161,-243.574 978,-232.791 978,-197 978,-197 978,-197 978,-133 978,-96.4139 978,-53.6562 978,-29.7123"/>
<polygon fill="midnightblue" stroke="midnightblue" points="981.5,-29.5788 978,-19.5789 974.5,-29.5789 981.5,-29.5788"/>
</g>
<!-- Node10 -->
<g id="node21" class="node"><title>Node10</title>
<a xlink:href="vcs__defs_8h.html" target="_top" xlink:title="Defines and definitions within the vcs package.">
<polygon fill="white" stroke="black" points="506,-124.5 506,-143.5 632,-143.5 632,-124.5 506,-124.5"/>
<text text-anchor="middle" x="569" y="-131.5" font-family="FreeSans" font-size="10.00">cantera/equil/vcs_defs.h</text>
</a>
</g>
<!-- Node1&#45;&gt;Node10 -->
<g id="edge46" class="edge"><title>Node1&#45;&gt;Node10</title>
<path fill="none" stroke="midnightblue" d="M776.418,-308.222C713.519,-299.781 620.043,-276.449 573,-212 560.817,-195.309 561.873,-170.748 564.631,-153.878"/>
<polygon fill="midnightblue" stroke="midnightblue" points="568.153,-154.109 566.671,-143.619 561.288,-152.744 568.153,-154.109"/>
</g>
<!-- Node13 -->
<g id="node29" class="node"><title>Node13</title>
<a xlink:href="vcs__internal_8h.html" target="_top" xlink:title="Internal declarations for the VCSnonideal package ">
<polygon fill="white" stroke="black" points="582.5,-186.5 582.5,-205.5 721.5,-205.5 721.5,-186.5 582.5,-186.5"/>
<text text-anchor="middle" x="652" y="-193.5" font-family="FreeSans" font-size="10.00">cantera/equil/vcs_internal.h</text>
</a>
</g>
<!-- Node1&#45;&gt;Node13 -->
<g id="edge70" class="edge"><title>Node1&#45;&gt;Node13</title>
<path fill="none" stroke="midnightblue" d="M823.648,-304.405C807.134,-295.61 780.991,-281.376 759,-268 728.334,-249.347 693.919,-226.074 672.6,-211.37"/>
<polygon fill="midnightblue" stroke="midnightblue" points="674.528,-208.447 664.314,-205.631 670.542,-214.202 674.528,-208.447"/>
</g>
<!-- Node16 -->
<g id="node37" class="node"><title>Node16</title>
<a xlink:href="include_2cantera_2equil_2vcs__species__thermo_8h_source.html" target="_top" xlink:title="cantera/equil/vcs_species\l_thermo.h">
<polygon fill="white" stroke="black" points="1006,-57 1006,-87 1140,-87 1140,-57 1006,-57"/>
<text text-anchor="start" x="1014" y="-75" font-family="FreeSans" font-size="10.00">cantera/equil/vcs_species</text>
<text text-anchor="middle" x="1073" y="-64" font-family="FreeSans" font-size="10.00">_thermo.h</text>
</a>
</g>
<!-- Node1&#45;&gt;Node16 -->
<g id="edge42" class="edge"><title>Node1&#45;&gt;Node16</title>
<path fill="none" stroke="midnightblue" d="M903.839,-306.8C933.673,-300.973 967.854,-289.716 992,-268 1043.29,-221.869 1062.94,-138.189 1069.76,-97.091"/>
<polygon fill="midnightblue" stroke="midnightblue" points="1073.23,-97.5671 1071.29,-87.1506 1066.31,-96.5007 1073.23,-97.5671"/>
</g>
<!-- Node17 -->
<g id="node41" class="node"><title>Node17</title>
<a xlink:href="vcs__VolPhase_8h.html" target="_top" xlink:title="Header for the object representing each phase within vcs.">
<polygon fill="white" stroke="black" points="224,-124.5 224,-143.5 374,-143.5 374,-124.5 224,-124.5"/>
<text text-anchor="middle" x="299" y="-131.5" font-family="FreeSans" font-size="10.00">cantera/equil/vcs_VolPhase.h</text>
</a>
</g>
<!-- Node1&#45;&gt;Node17 -->
<g id="edge48" class="edge"><title>Node1&#45;&gt;Node17</title>
<path fill="none" stroke="midnightblue" d="M776.116,-313.913C664.503,-314.363 439.7,-309.842 375,-268 333.615,-241.236 312.32,-183.521 303.716,-153.694"/>
<polygon fill="midnightblue" stroke="midnightblue" points="307.016,-152.489 301.025,-143.751 300.259,-154.318 307.016,-152.489"/>
</g>
<!-- Node19 -->
<g id="node50" class="node"><title>Node19</title>
<a xlink:href="ctexceptions_8h.html" target="_top" xlink:title="Definitions for the classes that are thrown when Cantera experiences an error condition (also contain...">
<polygon fill="white" stroke="black" points="768.5,-248.5 768.5,-267.5 911.5,-267.5 911.5,-248.5 768.5,-248.5"/>
<text text-anchor="middle" x="840" y="-255.5" font-family="FreeSans" font-size="10.00">cantera/base/ctexceptions.h</text>
</a>
</g>
<!-- Node1&#45;&gt;Node19 -->
<g id="edge62" class="edge"><title>Node1&#45;&gt;Node19</title>
<path fill="none" stroke="midnightblue" d="M840,-304.083C840,-297.006 840,-286.861 840,-277.986"/>
<polygon fill="midnightblue" stroke="midnightblue" points="843.5,-277.751 840,-267.751 836.5,-277.751 843.5,-277.751"/>
</g>
<!-- Node22 -->
<g id="node58" class="node"><title>Node22</title>
<polygon fill="white" stroke="#bfbfbf" points="1044,-248.5 1044,-267.5 1088,-267.5 1088,-248.5 1044,-248.5"/>
<text text-anchor="middle" x="1066" y="-255.5" font-family="FreeSans" font-size="10.00">cstdio</text>
</g>
<!-- Node1&#45;&gt;Node22 -->
<g id="edge72" class="edge"><title>Node1&#45;&gt;Node22</title>
<path fill="none" stroke="midnightblue" d="M876.812,-304.424C915.112,-295.468 976.807,-280.948 1030,-268 1031.27,-267.691 1032.56,-267.375 1033.87,-267.055"/>
<polygon fill="midnightblue" stroke="midnightblue" points="1035.06,-270.365 1043.93,-264.565 1033.38,-263.57 1035.06,-270.365"/>
</g>
<!-- Node3 -->
<g id="node5" class="node"><title>Node3</title>
<polygon fill="white" stroke="#bfbfbf" points="236,-0.5 236,-19.5 280,-19.5 280,-0.5 236,-0.5"/>
<text text-anchor="middle" x="258" y="-7.5" font-family="FreeSans" font-size="10.00">vector</text>
</g>
<!-- Node2&#45;&gt;Node3 -->
<g id="edge4" class="edge"><title>Node2&#45;&gt;Node3</title>
<path fill="none" stroke="midnightblue" d="M449.692,-248.403C448.132,-217.823 438.766,-113.109 383,-56 358.281,-30.6852 318.302,-19.5507 290.228,-14.692"/>
<polygon fill="midnightblue" stroke="midnightblue" points="290.526,-11.1964 280.108,-13.1206 289.452,-18.1136 290.526,-11.1964"/>
</g>
<!-- Node4 -->
<g id="node7" class="node"><title>Node4</title>
<polygon fill="white" stroke="#bfbfbf" points="457.5,-0.5 457.5,-19.5 498.5,-19.5 498.5,-0.5 457.5,-0.5"/>
<text text-anchor="middle" x="478" y="-7.5" font-family="FreeSans" font-size="10.00">string</text>
</g>
<!-- Node2&#45;&gt;Node4 -->
<g id="edge6" class="edge"><title>Node2&#45;&gt;Node4</title>
<path fill="none" stroke="midnightblue" d="M450.196,-248.436C450.577,-234.201 451.601,-204.782 454,-180 459.291,-125.335 469.499,-61.2498 474.732,-30.0312"/>
<polygon fill="midnightblue" stroke="midnightblue" points="478.252,-30.2082 476.474,-19.7637 471.35,-29.0376 478.252,-30.2082"/>
</g>
<!-- Node5 -->
<g id="node9" class="node"><title>Node5</title>
<a xlink:href="ct__defs_8h.html" target="_top" xlink:title="This file contains definitions of terms that are used in internal routines and are unlikely to need m...">
<polygon fill="white" stroke="black" points="792.5,-62.5 792.5,-81.5 911.5,-81.5 911.5,-62.5 792.5,-62.5"/>
<text text-anchor="middle" x="852" y="-69.5" font-family="FreeSans" font-size="10.00">cantera/base/ct_defs.h</text>
</a>
</g>
<!-- Node2&#45;&gt;Node5 -->
<g id="edge8" class="edge"><title>Node2&#45;&gt;Node5</title>
<path fill="none" stroke="midnightblue" d="M450.169,-248.479C451.142,-224.565 457.424,-156.457 497,-124 539.359,-89.2598 691.217,-78.182 782.027,-74.6509"/>
<polygon fill="midnightblue" stroke="midnightblue" points="782.379,-78.1404 792.244,-74.2753 782.122,-71.1451 782.379,-78.1404"/>
</g>
<!-- Node2&#45;&gt;Node10 -->
<g id="edge22" class="edge"><title>Node2&#45;&gt;Node10</title>
<path fill="none" stroke="midnightblue" d="M458.558,-248.226C478.456,-227.826 528.066,-176.966 553.472,-150.92"/>
<polygon fill="midnightblue" stroke="midnightblue" points="556.042,-153.297 560.519,-143.694 551.031,-148.409 556.042,-153.297"/>
</g>
<!-- Node11 -->
<g id="node23" class="node"><title>Node11</title>
<a xlink:href="vcs__DoubleStarStar_8h.html" target="_top" xlink:title="Header file for class DoubleStarStar.">
<polygon fill="white" stroke="black" points="50.5,-57 50.5,-87 181.5,-87 181.5,-57 50.5,-57"/>
<text text-anchor="start" x="58.5" y="-75" font-family="FreeSans" font-size="10.00">cantera/equil/vcs_Double</text>
<text text-anchor="middle" x="116" y="-64" font-family="FreeSans" font-size="10.00">StarStar.h</text>
</a>
</g>
<!-- Node2&#45;&gt;Node11 -->
<g id="edge24" class="edge"><title>Node2&#45;&gt;Node11</title>
<path fill="none" stroke="midnightblue" d="M429.264,-248.478C387.538,-231.02 290.934,-189.021 215,-144 189.009,-128.59 161.197,-108.269 141.689,-93.3162"/>
<polygon fill="midnightblue" stroke="midnightblue" points="143.659,-90.4146 133.607,-87.0642 139.375,-95.9513 143.659,-90.4146"/>
</g>
<!-- Node12 -->
<g id="node26" class="node"><title>Node12</title>
<a xlink:href="vcs__IntStarStar_8h.html" target="_top" xlink:title="Header file for class IntStarStar.">
<polygon fill="white" stroke="black" points="-0.5,-181 -0.5,-211 126.5,-211 126.5,-181 -0.5,-181"/>
<text text-anchor="start" x="7.5" y="-199" font-family="FreeSans" font-size="10.00">cantera/equil/vcs_IntStar</text>
<text text-anchor="middle" x="63" y="-188" font-family="FreeSans" font-size="10.00">Star.h</text>
</a>
</g>
<!-- Node2&#45;&gt;Node12 -->
<g id="edge28" class="edge"><title>Node2&#45;&gt;Node12</title>
<path fill="none" stroke="midnightblue" d="M386.169,-248.481C323.792,-239.966 226.204,-226.139 142,-212 140.296,-211.714 138.573,-211.42 136.835,-211.121"/>
<polygon fill="midnightblue" stroke="midnightblue" points="137.227,-207.636 126.771,-209.35 136.013,-214.53 137.227,-207.636"/>
</g>
<!-- Node2&#45;&gt;Node13 -->
<g id="edge32" class="edge"><title>Node2&#45;&gt;Node13</title>
<path fill="none" stroke="midnightblue" d="M478.942,-248.403C514.267,-237.911 574.131,-220.129 613.365,-208.476"/>
<polygon fill="midnightblue" stroke="midnightblue" points="614.523,-211.783 623.112,-205.581 612.529,-205.073 614.523,-211.783"/>
</g>
<!-- Node5&#45;&gt;Node3 -->
<g id="edge16" class="edge"><title>Node5&#45;&gt;Node3</title>
<path fill="none" stroke="midnightblue" d="M792.325,-64.9723C668.248,-52.4392 386.031,-23.9324 290.39,-14.2717"/>
<polygon fill="midnightblue" stroke="midnightblue" points="290.484,-10.7635 280.183,-13.2407 289.781,-17.7281 290.484,-10.7635"/>
</g>
<!-- Node5&#45;&gt;Node4 -->
<g id="edge20" class="edge"><title>Node5&#45;&gt;Node4</title>
<path fill="none" stroke="midnightblue" d="M811.745,-62.4514C800.818,-60.2371 788.973,-57.9338 778,-56 680.021,-38.7328 563.287,-22.4457 508.828,-15.0946"/>
<polygon fill="midnightblue" stroke="midnightblue" points="509.168,-11.6089 498.791,-13.7459 508.236,-18.5465 509.168,-11.6089"/>
</g>
<!-- Node6 -->
<g id="node11" class="node"><title>Node6</title>
<a xlink:href="config_8h_source.html" target="_top" xlink:title="config.h">
<polygon fill="white" stroke="black" points="765.5,-0.5 765.5,-19.5 816.5,-19.5 816.5,-0.5 765.5,-0.5"/>
<text text-anchor="middle" x="791" y="-7.5" font-family="FreeSans" font-size="10.00">config.h</text>
</a>
</g>
<!-- Node5&#45;&gt;Node6 -->
<g id="edge10" class="edge"><title>Node5&#45;&gt;Node6</title>
<path fill="none" stroke="midnightblue" d="M843.26,-62.4035C833.838,-53.1361 818.636,-38.1828 807.051,-26.7876"/>
<polygon fill="midnightblue" stroke="midnightblue" points="809.307,-24.0978 799.724,-19.5806 804.399,-29.0883 809.307,-24.0978"/>
</g>
<!-- Node5&#45;&gt;Node7 -->
<g id="edge12" class="edge"><title>Node5&#45;&gt;Node7</title>
<path fill="none" stroke="midnightblue" d="M860.74,-62.4035C870.162,-53.1361 885.364,-38.1828 896.949,-26.7876"/>
<polygon fill="midnightblue" stroke="midnightblue" points="899.601,-29.0883 904.276,-19.5806 894.693,-24.0978 899.601,-29.0883"/>
</g>
<!-- Node5&#45;&gt;Node8 -->
<g id="edge14" class="edge"><title>Node5&#45;&gt;Node8</title>
<path fill="none" stroke="midnightblue" d="M870.053,-62.4035C891.198,-52.3341 926.44,-35.5522 950.878,-23.9151"/>
<polygon fill="midnightblue" stroke="midnightblue" points="952.457,-27.04 959.981,-19.5806 949.447,-20.72 952.457,-27.04"/>
</g>
<!-- Node9 -->
<g id="node18" class="node"><title>Node9</title>
<polygon fill="white" stroke="#bfbfbf" points="835,-0.5 835,-19.5 871,-19.5 871,-0.5 835,-0.5"/>
<text text-anchor="middle" x="853" y="-7.5" font-family="FreeSans" font-size="10.00">map</text>
</g>
<!-- Node5&#45;&gt;Node9 -->
<g id="edge18" class="edge"><title>Node5&#45;&gt;Node9</title>
<path fill="none" stroke="midnightblue" d="M852.143,-62.4035C852.284,-53.9381 852.505,-40.7283 852.686,-29.8199"/>
<polygon fill="midnightblue" stroke="midnightblue" points="856.19,-29.6376 852.857,-19.5806 849.191,-29.5208 856.19,-29.6376"/>
</g>
<!-- Node11&#45;&gt;Node3 -->
<g id="edge26" class="edge"><title>Node11&#45;&gt;Node3</title>
<path fill="none" stroke="midnightblue" d="M149.293,-56.9327C173.25,-46.81 205.276,-33.2779 228.354,-23.5267"/>
<polygon fill="midnightblue" stroke="midnightblue" points="229.797,-26.7163 237.647,-19.6 227.073,-20.2682 229.797,-26.7163"/>
</g>
<!-- Node12&#45;&gt;Node3 -->
<g id="edge30" class="edge"><title>Node12&#45;&gt;Node3</title>
<path fill="none" stroke="midnightblue" d="M54.4889,-180.959C39.1415,-153.631 11.0797,-92.7616 41,-56 63.8832,-27.8846 170.653,-16.7779 225.416,-12.8737"/>
<polygon fill="midnightblue" stroke="midnightblue" points="225.893,-16.3497 235.635,-12.186 225.423,-9.36546 225.893,-16.3497"/>
</g>
<!-- Node13&#45;&gt;Node10 -->
<g id="edge36" class="edge"><title>Node13&#45;&gt;Node10</title>
<path fill="none" stroke="midnightblue" d="M640.108,-186.403C626.795,-176.78 605,-161.024 589.043,-149.489"/>
<polygon fill="midnightblue" stroke="midnightblue" points="591.025,-146.603 580.87,-143.581 586.924,-152.276 591.025,-146.603"/>
</g>
<!-- Node14 -->
<g id="node31" class="node"><title>Node14</title>
<polygon fill="white" stroke="#bfbfbf" points="650,-124.5 650,-143.5 696,-143.5 696,-124.5 650,-124.5"/>
<text text-anchor="middle" x="673" y="-131.5" font-family="FreeSans" font-size="10.00">cstring</text>
</g>
<!-- Node13&#45;&gt;Node14 -->
<g id="edge34" class="edge"><title>Node13&#45;&gt;Node14</title>
<path fill="none" stroke="midnightblue" d="M655.009,-186.403C658.034,-177.76 662.79,-164.17 666.653,-153.134"/>
<polygon fill="midnightblue" stroke="midnightblue" points="669.997,-154.175 669.997,-143.581 663.39,-151.863 669.997,-154.175"/>
</g>
<!-- Node15 -->
<g id="node34" class="node"><title>Node15</title>
<a xlink:href="global_8h.html" target="_top" xlink:title="This file contains definitions for utility functions and text for modules, inputfiles, logs, textlogs, HTML_logs (see Input File Handling, Diagnostic Output, Writing messages to the screen and Writing HTML Logfiles).">
<polygon fill="white" stroke="black" points="794,-124.5 794,-143.5 908,-143.5 908,-124.5 794,-124.5"/>
<text text-anchor="middle" x="851" y="-131.5" font-family="FreeSans" font-size="10.00">cantera/base/global.h</text>
</a>
</g>
<!-- Node13&#45;&gt;Node15 -->
<g id="edge38" class="edge"><title>Node13&#45;&gt;Node15</title>
<path fill="none" stroke="midnightblue" d="M680.512,-186.403C715.238,-175.933 774.037,-158.205 812.692,-146.55"/>
<polygon fill="midnightblue" stroke="midnightblue" points="813.977,-149.818 822.541,-143.581 811.956,-143.116 813.977,-149.818"/>
</g>
<!-- Node15&#45;&gt;Node5 -->
<g id="edge40" class="edge"><title>Node15&#45;&gt;Node5</title>
<path fill="none" stroke="midnightblue" d="M851.143,-124.403C851.284,-115.938 851.505,-102.728 851.686,-91.8199"/>
<polygon fill="midnightblue" stroke="midnightblue" points="855.19,-91.6376 851.857,-81.5806 848.191,-91.5208 855.19,-91.6376"/>
</g>
<!-- Node16&#45;&gt;Node8 -->
<g id="edge44" class="edge"><title>Node16&#45;&gt;Node8</title>
<path fill="none" stroke="midnightblue" d="M1050.49,-56.7808C1035.31,-47.1958 1015.38,-34.6062 1000.25,-25.0555"/>
<polygon fill="midnightblue" stroke="midnightblue" points="1001.87,-21.9365 991.547,-19.5557 998.132,-27.8549 1001.87,-21.9365"/>
</g>
<!-- Node17&#45;&gt;Node3 -->
<g id="edge58" class="edge"><title>Node17&#45;&gt;Node3</title>
<path fill="none" stroke="midnightblue" d="M274.531,-124.438C258.433,-117.378 238.623,-105.626 229,-88 218.258,-68.3234 231.585,-43.834 243.508,-27.8275"/>
<polygon fill="midnightblue" stroke="midnightblue" points="246.335,-29.8956 249.825,-19.8921 240.858,-25.5356 246.335,-29.8956"/>
</g>
<!-- Node17&#45;&gt;Node4 -->
<g id="edge60" class="edge"><title>Node17&#45;&gt;Node4</title>
<path fill="none" stroke="midnightblue" d="M317.265,-124.465C334.674,-116.043 361.366,-102.375 383,-88 411.828,-68.8449 442.467,-42.8587 460.919,-26.5107"/>
<polygon fill="midnightblue" stroke="midnightblue" points="463.371,-29.0135 468.489,-19.7369 458.703,-23.7971 463.371,-29.0135"/>
</g>
<!-- Node17&#45;&gt;Node11 -->
<g id="edge50" class="edge"><title>Node17&#45;&gt;Node11</title>
<path fill="none" stroke="midnightblue" d="M272.781,-124.403C245.705,-115.526 202.718,-101.432 168.598,-90.2453"/>
<polygon fill="midnightblue" stroke="midnightblue" points="169.37,-86.8151 158.777,-87.0253 167.189,-93.4667 169.37,-86.8151"/>
</g>
<!-- Node18 -->
<g id="node44" class="node"><title>Node18</title>
<a xlink:href="include_2cantera_2equil_2vcs__SpeciesProperties_8h_source.html" target="_top" xlink:title="cantera/equil/vcs_Species\lProperties.h">
<polygon fill="white" stroke="black" points="238,-57 238,-87 374,-87 374,-57 238,-57"/>
<text text-anchor="start" x="246" y="-75" font-family="FreeSans" font-size="10.00">cantera/equil/vcs_Species</text>
<text text-anchor="middle" x="306" y="-64" font-family="FreeSans" font-size="10.00">Properties.h</text>
</a>
</g>
<!-- Node17&#45;&gt;Node18 -->
<g id="edge52" class="edge"><title>Node17&#45;&gt;Node18</title>
<path fill="none" stroke="midnightblue" d="M300.003,-124.403C300.836,-117.265 302.062,-106.752 303.189,-97.0903"/>
<polygon fill="midnightblue" stroke="midnightblue" points="306.668,-97.4791 304.35,-87.1408 299.715,-96.6678 306.668,-97.4791"/>
</g>
<!-- Node18&#45;&gt;Node3 -->
<g id="edge54" class="edge"><title>Node18&#45;&gt;Node3</title>
<path fill="none" stroke="midnightblue" d="M294.625,-56.7808C287.65,-48.0621 278.686,-36.8574 271.372,-27.7153"/>
<polygon fill="midnightblue" stroke="midnightblue" points="273.964,-25.3528 264.984,-19.7305 268.498,-29.7257 273.964,-25.3528"/>
</g>
<!-- Node18&#45;&gt;Node4 -->
<g id="edge56" class="edge"><title>Node18&#45;&gt;Node4</title>
<path fill="none" stroke="midnightblue" d="M346.326,-56.9327C377.278,-46.1356 419.349,-31.4598 447.526,-21.6304"/>
<polygon fill="midnightblue" stroke="midnightblue" points="448.944,-24.8429 457.233,-18.2444 446.638,-18.2335 448.944,-24.8429"/>
</g>
<!-- Node19&#45;&gt;Node4 -->
<g id="edge68" class="edge"><title>Node19&#45;&gt;Node4</title>
<path fill="none" stroke="midnightblue" d="M851.052,-248.329C868.354,-233.688 898.259,-203.377 882,-180 855.743,-142.249 827.668,-161.146 785,-144 681.24,-102.304 559.92,-48.1044 506.131,-23.7876"/>
<polygon fill="midnightblue" stroke="midnightblue" points="507.446,-20.541 496.892,-19.6046 504.558,-26.9178 507.446,-20.541"/>
</g>
<!-- Node20 -->
<g id="node52" class="node"><title>Node20</title>
<polygon fill="white" stroke="#bfbfbf" points="740,-186.5 740,-205.5 800,-205.5 800,-186.5 740,-186.5"/>
<text text-anchor="middle" x="770" y="-193.5" font-family="FreeSans" font-size="10.00">exception</text>
</g>
<!-- Node19&#45;&gt;Node20 -->
<g id="edge64" class="edge"><title>Node19&#45;&gt;Node20</title>
<path fill="none" stroke="midnightblue" d="M829.971,-248.403C818.951,-238.958 801.04,-223.606 787.657,-212.134"/>
<polygon fill="midnightblue" stroke="midnightblue" points="789.881,-209.431 780.011,-205.581 785.325,-214.746 789.881,-209.431"/>
</g>
<!-- Node21 -->
<g id="node54" class="node"><title>Node21</title>
<polygon fill="white" stroke="#bfbfbf" points="818,-186.5 818,-205.5 874,-205.5 874,-186.5 818,-186.5"/>
<text text-anchor="middle" x="846" y="-193.5" font-family="FreeSans" font-size="10.00">iostream</text>
</g>
<!-- Node19&#45;&gt;Node21 -->
<g id="edge66" class="edge"><title>Node19&#45;&gt;Node21</title>
<path fill="none" stroke="midnightblue" d="M840.86,-248.403C841.706,-239.938 843.027,-226.728 844.118,-215.82"/>
<polygon fill="midnightblue" stroke="midnightblue" points="847.629,-215.879 845.142,-205.581 840.664,-215.183 847.629,-215.879"/>
</g>
</g>
</svg>
