<?xml version="1.0" encoding="UTF-8" standalone="no"?>
<!DOCTYPE svg PUBLIC "-//W3C//DTD SVG 1.1//EN"
 "http://www.w3.org/Graphics/SVG/1.1/DTD/svg11.dtd">
<!-- Generated by graphviz version 2.28.0 (20120425.2022)
 -->
<!-- Title: vcs_DoubleStarStar.h Pages: 1 -->
<svg width="2574pt" height="140pt"
 viewBox="0.00 0.00 2574.00 140.00" xmlns="http://www.w3.org/2000/svg" xmlns:xlink="http://www.w3.org/1999/xlink">
<g id="graph1" class="graph" transform="scale(1 1) rotate(0) translate(4 136)">
<title>vcs_DoubleStarStar.h</title>
<polygon fill="white" stroke="white" points="-4,5 -4,-136 2571,-136 2571,5 -4,5"/>
<!-- Node1 -->
<g id="node1" class="node"><title>Node1</title>
<polygon fill="#bfbfbf" stroke="black" points="744.5,-112.5 744.5,-131.5 857.5,-131.5 857.5,-112.5 744.5,-112.5"/>
<text text-anchor="middle" x="801" y="-119.5" font-family="FreeSans" font-size="10.00">vcs_DoubleStarStar.h</text>
</g>
<!-- Node2 -->
<g id="node3" class="node"><title>Node2</title>
<a xlink:href="vcs__DoubleStarStar_8cpp.html" target="_top" xlink:title="Implementation file for class DoubleStarStar. ">
<polygon fill="white" stroke="black" points="276,-56.5 276,-75.5 400,-75.5 400,-56.5 276,-56.5"/>
<text text-anchor="middle" x="338" y="-63.5" font-family="FreeSans" font-size="10.00">vcs_DoubleStarStar.cpp</text>
</a>
</g>
<!-- Node1&#45;&gt;Node2 -->
<g id="edge2" class="edge"><title>Node1&#45;&gt;Node2</title>
<path fill="none" stroke="midnightblue" d="M734.329,-113.589C656.305,-104.859 523.226,-89.7955 409,-76 406.163,-75.6573 403.262,-75.3036 400.333,-74.9436"/>
<polygon fill="midnightblue" stroke="midnightblue" points="734.172,-117.093 744.499,-114.726 734.95,-110.136 734.172,-117.093"/>
</g>
<!-- Node3 -->
<g id="node5" class="node"><title>Node3</title>
<a xlink:href="vcs__prob_8h.html" target="_top" xlink:title="Header for the Interface class for the vcs thermo equilibrium solver package,. ">
<polygon fill="white" stroke="black" points="418.5,-56.5 418.5,-75.5 483.5,-75.5 483.5,-56.5 418.5,-56.5"/>
<text text-anchor="middle" x="451" y="-63.5" font-family="FreeSans" font-size="10.00">vcs_prob.h</text>
</a>
</g>
<!-- Node1&#45;&gt;Node3 -->
<g id="edge4" class="edge"><title>Node1&#45;&gt;Node3</title>
<path fill="none" stroke="midnightblue" d="M735.274,-110.859C660.337,-99.2977 540.831,-80.8597 483.612,-72.0315"/>
<polygon fill="midnightblue" stroke="midnightblue" points="735.125,-114.378 745.541,-112.444 736.192,-107.46 735.125,-114.378"/>
</g>
<!-- Node11 -->
<g id="node21" class="node"><title>Node11</title>
<a xlink:href="vcs__solve_8h.html" target="_top" xlink:title="Header file for the internal object that holds the vcs equilibrium problem (see Class VCS_SOLVE and E...">
<polygon fill="white" stroke="black" points="1316,-56.5 1316,-75.5 1386,-75.5 1386,-56.5 1316,-56.5"/>
<text text-anchor="middle" x="1351" y="-63.5" font-family="FreeSans" font-size="10.00">vcs_solve.h</text>
</a>
</g>
<!-- Node1&#45;&gt;Node11 -->
<g id="edge20" class="edge"><title>Node1&#45;&gt;Node11</title>
<path fill="none" stroke="midnightblue" d="M867.489,-114.472C985.034,-102.931 1225.64,-79.3085 1315.82,-70.4539"/>
<polygon fill="midnightblue" stroke="midnightblue" points="867.141,-110.989 857.531,-115.45 867.825,-117.956 867.141,-110.989"/>
</g>
<!-- Node26 -->
<g id="node57" class="node"><title>Node26</title>
<a xlink:href="vcs__VolPhase_8h.html" target="_top" xlink:title="Header for the object representing each phase within vcs. ">
<polygon fill="white" stroke="black" points="1107.5,-56.5 1107.5,-75.5 1196.5,-75.5 1196.5,-56.5 1107.5,-56.5"/>
<text text-anchor="middle" x="1152" y="-63.5" font-family="FreeSans" font-size="10.00">vcs_VolPhase.h</text>
</a>
</g>
<!-- Node1&#45;&gt;Node26 -->
<g id="edge62" class="edge"><title>Node1&#45;&gt;Node26</title>
<path fill="none" stroke="midnightblue" d="M866.696,-110.893C937.011,-100.075 1046.63,-83.21 1107.49,-73.8476"/>
<polygon fill="midnightblue" stroke="midnightblue" points="865.968,-107.464 856.617,-112.444 867.033,-114.382 865.968,-107.464"/>
</g>
<!-- Node4 -->
<g id="node7" class="node"><title>Node4</title>
<a xlink:href="vcs__equilibrate_8cpp.html" target="_top" xlink:title="Driver routines for equilibrium solvers. ">
<polygon fill="white" stroke="black" points="699,-0.5 699,-19.5 801,-19.5 801,-0.5 699,-0.5"/>
<text text-anchor="middle" x="750" y="-7.5" font-family="FreeSans" font-size="10.00">vcs_equilibrate.cpp</text>
</a>
</g>
<!-- Node3&#45;&gt;Node4 -->
<g id="edge6" class="edge"><title>Node3&#45;&gt;Node4</title>
<path fill="none" stroke="midnightblue" d="M493.741,-57.2809C549.102,-47.2825 645.298,-29.9093 702.77,-19.5299"/>
<polygon fill="midnightblue" stroke="midnightblue" points="492.786,-53.8966 483.567,-59.1183 494.03,-60.7852 492.786,-53.8966"/>
</g>
<!-- Node5 -->
<g id="node9" class="node"><title>Node5</title>
<a xlink:href="vcs__MultiPhaseEquil_8cpp.html" target="_top" xlink:title="Driver routine for the VCSnonideal equilibrium solver package. ">
<polygon fill="white" stroke="black" points="819.5,-0.5 819.5,-19.5 946.5,-19.5 946.5,-0.5 819.5,-0.5"/>
<text text-anchor="middle" x="883" y="-7.5" font-family="FreeSans" font-size="10.00">vcs_MultiPhaseEquil.cpp</text>
</a>
</g>
<!-- Node3&#45;&gt;Node5 -->
<g id="edge8" class="edge"><title>Node3&#45;&gt;Node5</title>
<path fill="none" stroke="midnightblue" d="M494.042,-59.6197C570.487,-50.0641 730.268,-30.0915 819.417,-18.9478"/>
<polygon fill="midnightblue" stroke="midnightblue" points="493.313,-56.1835 483.825,-60.8969 494.182,-63.1294 493.313,-56.1835"/>
</g>
<!-- Node6 -->
<g id="node11" class="node"><title>Node6</title>
<a xlink:href="vcs__prep_8cpp.html" target="_top" xlink:title="This file contains some prepatory functions. ">
<polygon fill="white" stroke="black" points="92.5,-0.5 92.5,-19.5 167.5,-19.5 167.5,-0.5 92.5,-0.5"/>
<text text-anchor="middle" x="130" y="-7.5" font-family="FreeSans" font-size="10.00">vcs_prep.cpp</text>
</a>
</g>
<!-- Node3&#45;&gt;Node6 -->
<g id="edge10" class="edge"><title>Node3&#45;&gt;Node6</title>
<path fill="none" stroke="midnightblue" d="M408.31,-56.0565C408.206,-56.0376 408.103,-56.0188 408,-56 305.343,-37.3054 278.777,-38.0212 176,-20 173.275,-19.5222 170.462,-19.0125 167.633,-18.4879"/>
<polygon fill="midnightblue" stroke="midnightblue" points="407.687,-59.5008 418.167,-57.9432 409.003,-52.6256 407.687,-59.5008"/>
</g>
<!-- Node7 -->
<g id="node13" class="node"><title>Node7</title>
<a xlink:href="vcs__prob_8cpp.html" target="_top" xlink:title="Implementation for the Interface class for the vcs thermo equilibrium solver package,. ">
<polygon fill="white" stroke="black" points="-0.5,-0.5 -0.5,-19.5 74.5,-19.5 74.5,-0.5 -0.5,-0.5"/>
<text text-anchor="middle" x="37" y="-7.5" font-family="FreeSans" font-size="10.00">vcs_prob.cpp</text>
</a>
</g>
<!-- Node3&#45;&gt;Node7 -->
<g id="edge12" class="edge"><title>Node3&#45;&gt;Node7</title>
<path fill="none" stroke="midnightblue" d="M408.311,-56.0498C408.207,-56.0332 408.104,-56.0165 408,-56 264.49,-33.0874 226.657,-41.9712 83,-20 80.265,-19.5817 77.4452,-19.1158 74.6111,-18.6222"/>
<polygon fill="midnightblue" stroke="midnightblue" points="407.736,-59.5023 418.192,-57.7948 408.953,-52.609 407.736,-59.5023"/>
</g>
<!-- Node8 -->
<g id="node15" class="node"><title>Node8</title>
<a xlink:href="vcs__rank_8cpp.html" target="_top" xlink:title="vcs_rank.cpp">
<polygon fill="white" stroke="black" points="185.5,-0.5 185.5,-19.5 260.5,-19.5 260.5,-0.5 185.5,-0.5"/>
<text text-anchor="middle" x="223" y="-7.5" font-family="FreeSans" font-size="10.00">vcs_rank.cpp</text>
</a>
</g>
<!-- Node3&#45;&gt;Node8 -->
<g id="edge14" class="edge"><title>Node3&#45;&gt;Node8</title>
<path fill="none" stroke="midnightblue" d="M408.441,-54.9201C365.379,-44.7213 299.537,-29.1271 258.992,-19.5243"/>
<polygon fill="midnightblue" stroke="midnightblue" points="407.796,-58.3642 418.333,-57.2631 409.409,-51.5526 407.796,-58.3642"/>
</g>
<!-- Node9 -->
<g id="node17" class="node"><title>Node9</title>
<a xlink:href="vcs__solve_8cpp.html" target="_top" xlink:title="vcs_solve.cpp">
<polygon fill="white" stroke="black" points="279,-0.5 279,-19.5 359,-19.5 359,-0.5 279,-0.5"/>
<text text-anchor="middle" x="319" y="-7.5" font-family="FreeSans" font-size="10.00">vcs_solve.cpp</text>
</a>
</g>
<!-- Node3&#45;&gt;Node9 -->
<g id="edge16" class="edge"><title>Node3&#45;&gt;Node9</title>
<path fill="none" stroke="midnightblue" d="M420.781,-52.6377C396.01,-42.504 361.6,-28.4274 339.818,-19.5164"/>
<polygon fill="midnightblue" stroke="midnightblue" points="419.503,-55.8966 430.084,-56.4435 422.154,-49.4177 419.503,-55.8966"/>
</g>
<!-- Node10 -->
<g id="node19" class="node"><title>Node10</title>
<a xlink:href="vcs__solve__phaseStability_8cpp.html" target="_top" xlink:title="vcs_solve_phaseStability.cpp">
<polygon fill="white" stroke="black" points="377,-0.5 377,-19.5 525,-19.5 525,-0.5 377,-0.5"/>
<text text-anchor="middle" x="451" y="-7.5" font-family="FreeSans" font-size="10.00">vcs_solve_phaseStability.cpp</text>
</a>
</g>
<!-- Node3&#45;&gt;Node10 -->
<g id="edge18" class="edge"><title>Node3&#45;&gt;Node10</title>
<path fill="none" stroke="midnightblue" d="M451,-45.8045C451,-36.9102 451,-26.7798 451,-19.7511"/>
<polygon fill="midnightblue" stroke="midnightblue" points="447.5,-46.083 451,-56.083 454.5,-46.083 447.5,-46.083"/>
</g>
<!-- Node11&#45;&gt;Node4 -->
<g id="edge26" class="edge"><title>Node11&#45;&gt;Node4</title>
<path fill="none" stroke="midnightblue" d="M1305.69,-62.1973C1212.75,-56.2346 993.9,-41.092 811,-20 807.81,-19.6321 804.529,-19.2268 801.224,-18.798"/>
<polygon fill="midnightblue" stroke="midnightblue" points="1305.66,-65.7026 1315.86,-62.8456 1306.1,-58.7168 1305.66,-65.7026"/>
</g>
<!-- Node11&#45;&gt;Node5 -->
<g id="edge32" class="edge"><title>Node11&#45;&gt;Node5</title>
<path fill="none" stroke="midnightblue" d="M1305.57,-59.9621C1232.08,-51.7819 1082.57,-35.0117 956,-20 952.957,-19.639 949.842,-19.2667 946.697,-18.8882"/>
<polygon fill="midnightblue" stroke="midnightblue" points="1305.52,-63.4785 1315.85,-61.1055 1306.3,-56.5214 1305.52,-63.4785"/>
</g>
<!-- Node11&#45;&gt;Node6 -->
<g id="edge38" class="edge"><title>Node11&#45;&gt;Node6</title>
<path fill="none" stroke="midnightblue" d="M1305.74,-61.8985C1276.91,-60.0005 1238.77,-57.6315 1205,-56 747.92,-33.9203 630.638,-72.0965 176,-20 173.251,-19.685 170.421,-19.295 167.58,-18.8553"/>
<polygon fill="midnightblue" stroke="midnightblue" points="1305.7,-65.4037 1315.91,-62.5742 1306.16,-58.4191 1305.7,-65.4037"/>
</g>
<!-- Node11&#45;&gt;Node8 -->
<g id="edge40" class="edge"><title>Node11&#45;&gt;Node8</title>
<path fill="none" stroke="midnightblue" d="M1305.73,-61.9395C1276.91,-60.0574 1238.77,-57.6908 1205,-56 789.657,-35.2052 683.172,-67.2403 270,-20 266.946,-19.6508 263.793,-19.2146 260.633,-18.7237"/>
<polygon fill="midnightblue" stroke="midnightblue" points="1305.7,-65.4447 1315.91,-62.6088 1306.16,-58.4598 1305.7,-65.4447"/>
</g>
<!-- Node11&#45;&gt;Node9 -->
<g id="edge50" class="edge"><title>Node11&#45;&gt;Node9</title>
<path fill="none" stroke="midnightblue" d="M1305.73,-61.992C1276.9,-60.1304 1238.77,-57.7668 1205,-56 833.165,-36.5445 737.998,-61.7325 368,-20 365.078,-19.6704 362.067,-19.2696 359.044,-18.8223"/>
<polygon fill="midnightblue" stroke="midnightblue" points="1305.7,-65.4972 1315.9,-62.6531 1306.15,-58.5119 1305.7,-65.4972"/>
</g>
<!-- Node11&#45;&gt;Node10 -->
<g id="edge52" class="edge"><title>Node11&#45;&gt;Node10</title>
<path fill="none" stroke="midnightblue" d="M1305.72,-62.1158C1276.89,-60.3024 1238.76,-57.946 1205,-56 906.844,-38.8123 831.677,-44.1065 534,-20 531.111,-19.766 528.166,-19.5137 525.193,-19.2472"/>
<polygon fill="midnightblue" stroke="midnightblue" points="1305.7,-65.6211 1315.9,-62.7576 1306.14,-58.6349 1305.7,-65.6211"/>
</g>
<!-- Node12 -->
<g id="node23" class="node"><title>Node12</title>
<a xlink:href="vcs__elem_8cpp.html" target="_top" xlink:title="This file contains the algorithm for checking the satisfaction of the element abundances constraints ...">
<polygon fill="white" stroke="black" points="2370,-0.5 2370,-19.5 2448,-19.5 2448,-0.5 2370,-0.5"/>
<text text-anchor="middle" x="2409" y="-7.5" font-family="FreeSans" font-size="10.00">vcs_elem.cpp</text>
</a>
</g>
<!-- Node11&#45;&gt;Node12 -->
<g id="edge22" class="edge"><title>Node11&#45;&gt;Node12</title>
<path fill="none" stroke="midnightblue" d="M1396.56,-65.1867C1539.23,-65.2968 1989.88,-62.0431 2360,-20 2363.18,-19.6388 2366.46,-19.194 2369.76,-18.6973"/>
<polygon fill="midnightblue" stroke="midnightblue" points="1396.44,-61.6866 1386.44,-65.1726 1396.43,-68.6866 1396.44,-61.6866"/>
</g>
<!-- Node13 -->
<g id="node25" class="node"><title>Node13</title>
<a xlink:href="vcs__elem__rearrange_8cpp.html" target="_top" xlink:title="Contains implementations for rearranging the element columns, and it contains the algorithm for choos...">
<polygon fill="white" stroke="black" points="965,-0.5 965,-19.5 1093,-19.5 1093,-0.5 965,-0.5"/>
<text text-anchor="middle" x="1029" y="-7.5" font-family="FreeSans" font-size="10.00">vcs_elem_rearrange.cpp</text>
</a>
</g>
<!-- Node11&#45;&gt;Node13 -->
<g id="edge24" class="edge"><title>Node11&#45;&gt;Node13</title>
<path fill="none" stroke="midnightblue" d="M1305.71,-57.4052C1246.21,-47.4271 1142.01,-29.9525 1079.86,-19.5299"/>
<polygon fill="midnightblue" stroke="midnightblue" points="1305.49,-60.9161 1315.93,-59.1183 1306.64,-54.0125 1305.49,-60.9161"/>
</g>
<!-- Node14 -->
<g id="node28" class="node"><title>Node14</title>
<a xlink:href="vcs__Gibbs_8cpp.html" target="_top" xlink:title="Functions which calculate the extrinsic Gibbs Free energies. ">
<polygon fill="white" stroke="black" points="1111,-0.5 1111,-19.5 1193,-19.5 1193,-0.5 1111,-0.5"/>
<text text-anchor="middle" x="1152" y="-7.5" font-family="FreeSans" font-size="10.00">vcs_Gibbs.cpp</text>
</a>
</g>
<!-- Node11&#45;&gt;Node14 -->
<g id="edge28" class="edge"><title>Node11&#45;&gt;Node14</title>
<path fill="none" stroke="midnightblue" d="M1309.35,-53.6986C1271.79,-43.507 1217.39,-28.7429 1183.38,-19.5164"/>
<polygon fill="midnightblue" stroke="midnightblue" points="1308.9,-57.2025 1319.47,-56.4435 1310.73,-50.4468 1308.9,-57.2025"/>
</g>
<!-- Node15 -->
<g id="node30" class="node"><title>Node15</title>
<a xlink:href="vcs__inest_8cpp.html" target="_top" xlink:title="Implementation methods for obtaining a good initial guess. ">
<polygon fill="white" stroke="black" points="1211.5,-0.5 1211.5,-19.5 1288.5,-19.5 1288.5,-0.5 1211.5,-0.5"/>
<text text-anchor="middle" x="1250" y="-7.5" font-family="FreeSans" font-size="10.00">vcs_inest.cpp</text>
</a>
</g>
<!-- Node11&#45;&gt;Node15 -->
<g id="edge30" class="edge"><title>Node11&#45;&gt;Node15</title>
<path fill="none" stroke="midnightblue" d="M1325.92,-51.5895C1307.24,-41.6052 1282.3,-28.2672 1266.19,-19.6545"/>
<polygon fill="midnightblue" stroke="midnightblue" points="1324.3,-54.6955 1334.77,-56.324 1327.6,-48.5224 1324.3,-54.6955"/>
</g>
<!-- Node16 -->
<g id="node33" class="node"><title>Node16</title>
<a xlink:href="vcs__nondim_8cpp.html" target="_top" xlink:title="Nondimensionalization routines within VCSnonideal. ">
<polygon fill="white" stroke="black" points="1306.5,-0.5 1306.5,-19.5 1395.5,-19.5 1395.5,-0.5 1306.5,-0.5"/>
<text text-anchor="middle" x="1351" y="-7.5" font-family="FreeSans" font-size="10.00">vcs_nondim.cpp</text>
</a>
</g>
<!-- Node11&#45;&gt;Node16 -->
<g id="edge34" class="edge"><title>Node11&#45;&gt;Node16</title>
<path fill="none" stroke="midnightblue" d="M1351,-45.8045C1351,-36.9102 1351,-26.7798 1351,-19.7511"/>
<polygon fill="midnightblue" stroke="midnightblue" points="1347.5,-46.083 1351,-56.083 1354.5,-46.083 1347.5,-46.083"/>
</g>
<!-- Node17 -->
<g id="node35" class="node"><title>Node17</title>
<a xlink:href="vcs__phaseStability_8cpp.html" target="_top" xlink:title="Implementation class for functions associated with determining the stability of a phase (see Class VC...">
<polygon fill="white" stroke="black" points="1414,-0.5 1414,-19.5 1532,-19.5 1532,-0.5 1414,-0.5"/>
<text text-anchor="middle" x="1473" y="-7.5" font-family="FreeSans" font-size="10.00">vcs_phaseStability.cpp</text>
</a>
</g>
<!-- Node11&#45;&gt;Node17 -->
<g id="edge36" class="edge"><title>Node11&#45;&gt;Node17</title>
<path fill="none" stroke="midnightblue" d="M1379.54,-52.3678C1402.39,-42.2553 1433.81,-28.3486 1453.76,-19.5164"/>
<polygon fill="midnightblue" stroke="midnightblue" points="1378.06,-49.1955 1370.33,-56.4435 1380.89,-55.5965 1378.06,-49.1955"/>
</g>
<!-- Node18 -->
<g id="node39" class="node"><title>Node18</title>
<a xlink:href="vcs__rearrange_8cpp.html" target="_top" xlink:title="implementation file for rearranging species. ">
<polygon fill="white" stroke="black" points="2466,-0.5 2466,-19.5 2566,-19.5 2566,-0.5 2466,-0.5"/>
<text text-anchor="middle" x="2516" y="-7.5" font-family="FreeSans" font-size="10.00">vcs_rearrange.cpp</text>
</a>
</g>
<!-- Node11&#45;&gt;Node18 -->
<g id="edge42" class="edge"><title>Node11&#45;&gt;Node18</title>
<path fill="none" stroke="midnightblue" d="M1396.73,-64.9502C1548.16,-64.3992 2046.96,-59.4931 2457,-20 2459.89,-19.7219 2462.85,-19.3969 2465.84,-19.0387"/>
<polygon fill="midnightblue" stroke="midnightblue" points="1396.42,-61.4511 1386.43,-64.9828 1396.44,-68.4511 1396.42,-61.4511"/>
</g>
<!-- Node19 -->
<g id="node41" class="node"><title>Node19</title>
<a xlink:href="vcs__report_8cpp.html" target="_top" xlink:title="vcs_report.cpp">
<polygon fill="white" stroke="black" points="1550.5,-0.5 1550.5,-19.5 1631.5,-19.5 1631.5,-0.5 1550.5,-0.5"/>
<text text-anchor="middle" x="1591" y="-7.5" font-family="FreeSans" font-size="10.00">vcs_report.cpp</text>
</a>
</g>
<!-- Node11&#45;&gt;Node19 -->
<g id="edge44" class="edge"><title>Node11&#45;&gt;Node19</title>
<path fill="none" stroke="midnightblue" d="M1396,-54.8751C1441.28,-44.6867 1510.35,-29.147 1552.97,-19.5558"/>
<polygon fill="midnightblue" stroke="midnightblue" points="1395.14,-51.4803 1386.16,-57.0901 1396.68,-58.3095 1395.14,-51.4803"/>
</g>
<!-- Node20 -->
<g id="node43" class="node"><title>Node20</title>
<a xlink:href="vcs__rxnadj_8cpp.html" target="_top" xlink:title="Routines for carrying out various adjustments to the reaction steps. ">
<polygon fill="white" stroke="black" points="1649.5,-0.5 1649.5,-19.5 1732.5,-19.5 1732.5,-0.5 1649.5,-0.5"/>
<text text-anchor="middle" x="1691" y="-7.5" font-family="FreeSans" font-size="10.00">vcs_rxnadj.cpp</text>
</a>
</g>
<!-- Node11&#45;&gt;Node20 -->
<g id="edge46" class="edge"><title>Node11&#45;&gt;Node20</title>
<path fill="none" stroke="midnightblue" d="M1396.29,-58.2373C1453.23,-49.6691 1553.94,-34.2925 1640,-20 1643.02,-19.4992 1646.13,-18.9726 1649.26,-18.4361"/>
<polygon fill="midnightblue" stroke="midnightblue" points="1395.55,-54.8091 1386.18,-59.7562 1396.59,-61.7314 1395.55,-54.8091"/>
</g>
<!-- Node21 -->
<g id="node45" class="node"><title>Node21</title>
<a xlink:href="vcs__setMolesLinProg_8cpp.html" target="_top" xlink:title="vcs_setMolesLinProg.cpp">
<polygon fill="white" stroke="black" points="1750.5,-0.5 1750.5,-19.5 1881.5,-19.5 1881.5,-0.5 1750.5,-0.5"/>
<text text-anchor="middle" x="1816" y="-7.5" font-family="FreeSans" font-size="10.00">vcs_setMolesLinProg.cpp</text>
</a>
</g>
<!-- Node11&#45;&gt;Node21 -->
<g id="edge48" class="edge"><title>Node11&#45;&gt;Node21</title>
<path fill="none" stroke="midnightblue" d="M1396.41,-59.828C1469.16,-51.5275 1616.32,-34.6738 1741,-20 1744,-19.6474 1747.06,-19.2856 1750.15,-18.919"/>
<polygon fill="midnightblue" stroke="midnightblue" points="1395.77,-56.3785 1386.23,-60.9893 1396.56,-63.3334 1395.77,-56.3785"/>
</g>
<!-- Node22 -->
<g id="node49" class="node"><title>Node22</title>
<a xlink:href="vcs__solve__TP_8cpp.html" target="_top" xlink:title="Implementation file that contains the main algorithm for finding an equilibrium. ">
<polygon fill="white" stroke="black" points="1900,-0.5 1900,-19.5 2000,-19.5 2000,-0.5 1900,-0.5"/>
<text text-anchor="middle" x="1950" y="-7.5" font-family="FreeSans" font-size="10.00">vcs_solve_TP.cpp</text>
</a>
</g>
<!-- Node11&#45;&gt;Node22 -->
<g id="edge54" class="edge"><title>Node11&#45;&gt;Node22</title>
<path fill="none" stroke="midnightblue" d="M1396.23,-62.2297C1489.01,-56.3263 1707.46,-41.2868 1890,-20 1893.24,-19.6218 1896.58,-19.2032 1899.94,-18.7595"/>
<polygon fill="midnightblue" stroke="midnightblue" points="1395.84,-58.7478 1386.08,-62.8714 1396.28,-65.7339 1395.84,-58.7478"/>
</g>
<!-- Node23 -->
<g id="node51" class="node"><title>Node23</title>
<a xlink:href="vcs__species__thermo_8cpp.html" target="_top" xlink:title="Implementation for the VCS_SPECIES_THERMO object. ">
<polygon fill="white" stroke="black" points="2018.5,-0.5 2018.5,-19.5 2145.5,-19.5 2145.5,-0.5 2018.5,-0.5"/>
<text text-anchor="middle" x="2082" y="-7.5" font-family="FreeSans" font-size="10.00">vcs_species_thermo.cpp</text>
</a>
</g>
<!-- Node11&#45;&gt;Node23 -->
<g id="edge56" class="edge"><title>Node11&#45;&gt;Node23</title>
<path fill="none" stroke="midnightblue" d="M1396.09,-62.7634C1502.78,-57.2869 1779.01,-42.0257 2009,-20 2012.05,-19.7078 2015.17,-19.3914 2018.32,-19.0577"/>
<polygon fill="midnightblue" stroke="midnightblue" points="1395.82,-59.2729 1386.01,-63.2778 1396.17,-66.2638 1395.82,-59.2729"/>
</g>
<!-- Node24 -->
<g id="node53" class="node"><title>Node24</title>
<a xlink:href="vcs__TP_8cpp.html" target="_top" xlink:title="vcs_TP.cpp">
<polygon fill="white" stroke="black" points="2164,-0.5 2164,-19.5 2234,-19.5 2234,-0.5 2164,-0.5"/>
<text text-anchor="middle" x="2199" y="-7.5" font-family="FreeSans" font-size="10.00">vcs_TP.cpp</text>
</a>
</g>
<!-- Node11&#45;&gt;Node24 -->
<g id="edge58" class="edge"><title>Node11&#45;&gt;Node24</title>
<path fill="none" stroke="midnightblue" d="M1396.54,-64.6984C1519.33,-63.3999 1867.33,-56.5133 2154,-20 2157.16,-19.5973 2160.43,-19.1008 2163.7,-18.5495"/>
<polygon fill="midnightblue" stroke="midnightblue" points="1396.35,-61.2 1386.38,-64.7983 1396.42,-68.1996 1396.35,-61.2"/>
</g>
<!-- Node25 -->
<g id="node55" class="node"><title>Node25</title>
<a xlink:href="vcs__VolPhase_8cpp.html" target="_top" xlink:title="vcs_VolPhase.cpp">
<polygon fill="white" stroke="black" points="2252.5,-0.5 2252.5,-19.5 2351.5,-19.5 2351.5,-0.5 2252.5,-0.5"/>
<text text-anchor="middle" x="2302" y="-7.5" font-family="FreeSans" font-size="10.00">vcs_VolPhase.cpp</text>
</a>
</g>
<!-- Node11&#45;&gt;Node25 -->
<g id="edge60" class="edge"><title>Node11&#45;&gt;Node25</title>
<path fill="none" stroke="midnightblue" d="M1396.47,-64.3262C1527.93,-62.0296 1919.69,-52.73 2243,-20 2246.09,-19.6869 2249.27,-19.3236 2252.47,-18.9262"/>
<polygon fill="midnightblue" stroke="midnightblue" points="1396.31,-60.8283 1386.37,-64.4977 1396.43,-67.8273 1396.31,-60.8283"/>
</g>
<!-- Node26&#45;&gt;Node4 -->
<g id="edge66" class="edge"><title>Node26&#45;&gt;Node4</title>
<path fill="none" stroke="midnightblue" d="M1097.32,-58.0453C1029.94,-49.4155 911.973,-34.1104 811,-20 807.819,-19.5555 804.547,-19.0916 801.247,-18.619"/>
<polygon fill="midnightblue" stroke="midnightblue" points="1096.92,-61.5231 1107.29,-59.3205 1097.81,-54.5797 1096.92,-61.5231"/>
</g>
<!-- Node26&#45;&gt;Node5 -->
<g id="edge72" class="edge"><title>Node26&#45;&gt;Node5</title>
<path fill="none" stroke="midnightblue" d="M1099.56,-54.4734C1048.72,-44.2678 972.564,-28.9794 925.424,-19.5164"/>
<polygon fill="midnightblue" stroke="midnightblue" points="1098.88,-57.9068 1109.38,-56.4435 1100.26,-51.0437 1098.88,-57.9068"/>
</g>
<!-- Node26&#45;&gt;Node6 -->
<g id="edge78" class="edge"><title>Node26&#45;&gt;Node6</title>
<path fill="none" stroke="midnightblue" d="M1096.8,-65.2913C947.713,-65.4665 524.665,-61.9154 176,-20 173.253,-19.6698 170.424,-19.2685 167.584,-18.8209"/>
<polygon fill="midnightblue" stroke="midnightblue" points="1097.06,-68.791 1107.06,-65.2728 1097.05,-61.791 1097.06,-68.791"/>
</g>
<!-- Node26&#45;&gt;Node7 -->
<g id="edge80" class="edge"><title>Node26&#45;&gt;Node7</title>
<path fill="none" stroke="midnightblue" d="M1096.84,-65.6092C938.491,-66.7281 469.126,-65.635 83,-20 80.2524,-19.6753 77.4232,-19.278 74.5825,-18.8333"/>
<polygon fill="midnightblue" stroke="midnightblue" points="1097.28,-69.1059 1107.26,-65.529 1097.23,-62.1061 1097.28,-69.1059"/>
</g>
<!-- Node26&#45;&gt;Node8 -->
<g id="edge82" class="edge"><title>Node26&#45;&gt;Node8</title>
<path fill="none" stroke="midnightblue" d="M1096.92,-64.8287C957.794,-63.8242 581.175,-57.5489 270,-20 266.948,-19.6317 263.797,-19.1819 260.638,-18.6818"/>
<polygon fill="midnightblue" stroke="midnightblue" points="1097.28,-68.331 1107.3,-64.8969 1097.32,-61.3312 1097.28,-68.331"/>
</g>
<!-- Node26&#45;&gt;Node9 -->
<g id="edge90" class="edge"><title>Node26&#45;&gt;Node9</title>
<path fill="none" stroke="midnightblue" d="M1096.85,-64.1882C968.538,-61.7865 640.21,-52.6827 368,-20 365.08,-19.6494 362.072,-19.2332 359.049,-18.775"/>
<polygon fill="midnightblue" stroke="midnightblue" points="1097.13,-67.6937 1107.19,-64.3752 1097.25,-60.6949 1097.13,-67.6937"/>
</g>
<!-- Node26&#45;&gt;Node10 -->
<g id="edge92" class="edge"><title>Node26&#45;&gt;Node10</title>
<path fill="none" stroke="midnightblue" d="M1097.37,-61.6727C989.56,-54.9621 741.837,-38.8293 534,-20 531.113,-19.7384 528.17,-19.4628 525.199,-19.1769"/>
<polygon fill="midnightblue" stroke="midnightblue" points="1097.17,-65.1665 1107.36,-62.2925 1097.6,-58.1799 1097.17,-65.1665"/>
</g>
<!-- Node26&#45;&gt;Node13 -->
<g id="edge64" class="edge"><title>Node26&#45;&gt;Node13</title>
<path fill="none" stroke="midnightblue" d="M1123.23,-52.3678C1100.19,-42.2553 1068.52,-28.3486 1048.4,-19.5164"/>
<polygon fill="midnightblue" stroke="midnightblue" points="1121.95,-55.6283 1132.51,-56.4435 1124.76,-49.2188 1121.95,-55.6283"/>
</g>
<!-- Node26&#45;&gt;Node14 -->
<g id="edge68" class="edge"><title>Node26&#45;&gt;Node14</title>
<path fill="none" stroke="midnightblue" d="M1152,-45.8045C1152,-36.9102 1152,-26.7798 1152,-19.7511"/>
<polygon fill="midnightblue" stroke="midnightblue" points="1148.5,-46.083 1152,-56.083 1155.5,-46.083 1148.5,-46.083"/>
</g>
<!-- Node26&#45;&gt;Node15 -->
<g id="edge70" class="edge"><title>Node26&#45;&gt;Node15</title>
<path fill="none" stroke="midnightblue" d="M1176.59,-51.4526C1194.68,-41.4835 1218.73,-28.2279 1234.29,-19.6545"/>
<polygon fill="midnightblue" stroke="midnightblue" points="1174.81,-48.4324 1167.75,-56.324 1178.19,-54.5633 1174.81,-48.4324"/>
</g>
<!-- Node26&#45;&gt;Node16 -->
<g id="edge74" class="edge"><title>Node26&#45;&gt;Node16</title>
<path fill="none" stroke="midnightblue" d="M1193.65,-53.6986C1231.21,-43.507 1285.61,-28.7429 1319.62,-19.5164"/>
<polygon fill="midnightblue" stroke="midnightblue" points="1192.27,-50.4468 1183.53,-56.4435 1194.1,-57.2025 1192.27,-50.4468"/>
</g>
<!-- Node26&#45;&gt;Node17 -->
<g id="edge76" class="edge"><title>Node26&#45;&gt;Node17</title>
<path fill="none" stroke="midnightblue" d="M1206.75,-55.7903C1267.19,-45.6231 1363.68,-29.3908 1422.4,-19.5118"/>
<polygon fill="midnightblue" stroke="midnightblue" points="1205.91,-52.381 1196.63,-57.4915 1207.08,-59.284 1205.91,-52.381"/>
</g>
<!-- Node26&#45;&gt;Node19 -->
<g id="edge84" class="edge"><title>Node26&#45;&gt;Node19</title>
<path fill="none" stroke="midnightblue" d="M1206.96,-59.7421C1282.44,-52.2712 1422.33,-37.5269 1541,-20 1544.05,-19.549 1547.21,-19.053 1550.38,-18.5329"/>
<polygon fill="midnightblue" stroke="midnightblue" points="1206.36,-56.2846 1196.75,-60.7475 1207.04,-63.251 1206.36,-56.2846"/>
</g>
<!-- Node26&#45;&gt;Node20 -->
<g id="edge86" class="edge"><title>Node26&#45;&gt;Node20</title>
<path fill="none" stroke="midnightblue" d="M1206.56,-61.4482C1296.94,-55.2337 1483.29,-41.0162 1640,-20 1643.03,-19.5937 1646.15,-19.1365 1649.3,-18.6492"/>
<polygon fill="midnightblue" stroke="midnightblue" points="1206.29,-57.9588 1196.55,-62.131 1206.76,-64.9426 1206.29,-57.9588"/>
</g>
<!-- Node26&#45;&gt;Node21 -->
<g id="edge88" class="edge"><title>Node26&#45;&gt;Node21</title>
<path fill="none" stroke="midnightblue" d="M1207.04,-61.5909C1311.34,-54.9545 1544.88,-39.2498 1741,-20 1744,-19.7054 1747.07,-19.391 1750.17,-19.0629"/>
<polygon fill="midnightblue" stroke="midnightblue" points="1206.52,-58.1169 1196.76,-62.2423 1206.96,-65.1029 1206.52,-58.1169"/>
</g>
<!-- Node26&#45;&gt;Node22 -->
<g id="edge94" class="edge"><title>Node26&#45;&gt;Node22</title>
<path fill="none" stroke="midnightblue" d="M1206.98,-61.7806C1372.39,-52.0771 1856.18,-23.5611 1890,-20 1893.25,-19.6581 1896.59,-19.2671 1899.95,-18.8437"/>
<polygon fill="midnightblue" stroke="midnightblue" points="1206.33,-58.3125 1196.55,-62.3921 1206.74,-65.3005 1206.33,-58.3125"/>
</g>
<!-- Node26&#45;&gt;Node23 -->
<g id="edge96" class="edge"><title>Node26&#45;&gt;Node23</title>
<path fill="none" stroke="midnightblue" d="M1206.91,-61.721C1236.55,-59.9739 1273.77,-57.8165 1307,-56 1618.94,-38.9452 1697.77,-47.1307 2009,-20 2012.05,-19.7339 2015.18,-19.4385 2018.33,-19.1218"/>
<polygon fill="midnightblue" stroke="midnightblue" points="1206.54,-58.2368 1196.76,-62.3206 1206.95,-65.2246 1206.54,-58.2368"/>
</g>
<!-- Node26&#45;&gt;Node24 -->
<g id="edge100" class="edge"><title>Node26&#45;&gt;Node24</title>
<path fill="none" stroke="midnightblue" d="M1206.9,-61.6039C1236.54,-59.8231 1273.77,-57.671 1307,-56 1683.31,-37.0789 1779.92,-65.0819 2154,-20 2157.16,-19.6187 2160.44,-19.1368 2163.71,-18.5951"/>
<polygon fill="midnightblue" stroke="midnightblue" points="1206.53,-58.1202 1196.76,-62.2169 1206.95,-65.1075 1206.53,-58.1202"/>
</g>
<!-- Node26&#45;&gt;Node25 -->
<g id="edge102" class="edge"><title>Node26&#45;&gt;Node25</title>
<path fill="none" stroke="midnightblue" d="M1206.9,-61.55C1236.54,-59.7537 1273.76,-57.6039 1307,-56 1722.82,-35.933 1828.57,-59.4521 2243,-20 2246.09,-19.7054 2249.27,-19.3563 2252.48,-18.9694"/>
<polygon fill="midnightblue" stroke="midnightblue" points="1206.52,-58.0665 1196.75,-62.1691 1206.95,-65.0535 1206.52,-58.0665"/>
</g>
<!-- Node27 -->
<g id="node76" class="node"><title>Node27</title>
<a xlink:href="vcs__SpeciesProperties_8cpp.html" target="_top" xlink:title="vcs_SpeciesProperties.cpp">
<polygon fill="white" stroke="black" points="543,-0.5 543,-19.5 681,-19.5 681,-0.5 543,-0.5"/>
<text text-anchor="middle" x="612" y="-7.5" font-family="FreeSans" font-size="10.00">vcs_SpeciesProperties.cpp</text>
</a>
</g>
<!-- Node26&#45;&gt;Node27 -->
<g id="edge98" class="edge"><title>Node26&#45;&gt;Node27</title>
<path fill="none" stroke="midnightblue" d="M1097.26,-59.9859C1010.74,-51.9886 837.08,-35.6472 690,-20 687.153,-19.6972 684.249,-19.3835 681.315,-19.0627"/>
<polygon fill="midnightblue" stroke="midnightblue" points="1097.09,-63.4853 1107.37,-60.9192 1097.74,-56.5149 1097.09,-63.4853"/>
</g>
</g>
</svg>
