<?xml version="1.0" encoding="UTF-8" standalone="no"?>
<!DOCTYPE svg PUBLIC "-//W3C//DTD SVG 1.1//EN"
 "http://www.w3.org/Graphics/SVG/1.1/DTD/svg11.dtd">
<!-- Generated by graphviz version 2.40.1 (20161225.0304)
 -->
<!-- Title: vcs_setMolesLinProg.cpp Pages: 1 -->
<svg width="603pt" height="420pt"
 viewBox="0.00 0.00 602.50 420.00" xmlns="http://www.w3.org/2000/svg" xmlns:xlink="http://www.w3.org/1999/xlink">
<g id="graph0" class="graph" transform="scale(1 1) rotate(0) translate(4 416)">
<title>vcs_setMolesLinProg.cpp</title>
<polygon fill="#ffffff" stroke="transparent" points="-4,4 -4,-416 598.5,-416 598.5,4 -4,4"/>
<!-- Node0 -->
<g id="node1" class="node">
<title>Node0</title>
<polygon fill="#bfbfbf" stroke="#000000" points="194.5,-392.5 194.5,-411.5 332.5,-411.5 332.5,-392.5 194.5,-392.5"/>
<text text-anchor="middle" x="263.5" y="-399.5" font-family="Helvetica,sans-Serif" font-size="10.00" fill="#000000">vcs_setMolesLinProg.cpp</text>
</g>
<!-- Node1 -->
<g id="node2" class="node">
<title>Node1</title>
<g id="a_node2"><a xlink:href="vcs__solve_8h.html" target="_top" xlink:title="Header file for the internal object that holds the vcs equilibrium problem (see Class VCS_SOLVE and E...">
<polygon fill="#ffffff" stroke="#000000" points="193.5,-336.5 193.5,-355.5 333.5,-355.5 333.5,-336.5 193.5,-336.5"/>
<text text-anchor="middle" x="263.5" y="-343.5" font-family="Helvetica,sans-Serif" font-size="10.00" fill="#000000">cantera/equil/vcs_solve.h</text>
</a>
</g>
</g>
<!-- Node0&#45;&gt;Node1 -->
<g id="edge1" class="edge">
<title>Node0&#45;&gt;Node1</title>
<path fill="none" stroke="#191970" d="M263.5,-392.2455C263.5,-384.9382 263.5,-374.6944 263.5,-365.7046"/>
<polygon fill="#191970" stroke="#191970" points="267.0001,-365.6426 263.5,-355.6427 260.0001,-365.6427 267.0001,-365.6426"/>
</g>
<!-- Node2 -->
<g id="node3" class="node">
<title>Node2</title>
<g id="a_node3"><a xlink:href="ct__defs_8h.html" target="_top" xlink:title="This file contains definitions of terms that are used in internal routines and are unlikely to need m...">
<polygon fill="#ffffff" stroke="#000000" points="195,-56.5 195,-75.5 322,-75.5 322,-56.5 195,-56.5"/>
<text text-anchor="middle" x="258.5" y="-63.5" font-family="Helvetica,sans-Serif" font-size="10.00" fill="#000000">cantera/base/ct_defs.h</text>
</a>
</g>
</g>
<!-- Node1&#45;&gt;Node2 -->
<g id="edge2" class="edge">
<title>Node1&#45;&gt;Node2</title>
<path fill="none" stroke="#191970" d="M211.2392,-336.425C171.244,-328.0949 120.4771,-315.0223 105.5,-300 83.9483,-278.3834 86.5,-264.5246 86.5,-234 86.5,-234 86.5,-234 86.5,-178 86.5,-122.0437 151.2173,-92.5934 201.2564,-78.1857"/>
<polygon fill="#191970" stroke="#191970" points="202.3267,-81.5215 211.0449,-75.5014 200.4753,-74.7708 202.3267,-81.5215"/>
</g>
<!-- Node11 -->
<g id="node12" class="node">
<title>Node11</title>
<g id="a_node12"><a xlink:href="vcs__defs_8h.html" target="_top" xlink:title="Defines and definitions within the vcs package. ">
<polygon fill="#ffffff" stroke="#000000" points="115,-280.5 115,-299.5 250,-299.5 250,-280.5 115,-280.5"/>
<text text-anchor="middle" x="182.5" y="-287.5" font-family="Helvetica,sans-Serif" font-size="10.00" fill="#000000">cantera/equil/vcs_defs.h</text>
</a>
</g>
</g>
<!-- Node1&#45;&gt;Node11 -->
<g id="edge11" class="edge">
<title>Node1&#45;&gt;Node11</title>
<path fill="none" stroke="#191970" d="M249.3909,-336.2455C237.0791,-327.7337 219.0042,-315.2375 204.7462,-305.3801"/>
<polygon fill="#191970" stroke="#191970" points="206.6634,-302.4506 196.4474,-299.6427 202.6826,-308.2085 206.6634,-302.4506"/>
</g>
<!-- Node12 -->
<g id="node13" class="node">
<title>Node12</title>
<g id="a_node13"><a xlink:href="vcs__internal_8h.html" target="_top" xlink:title="Internal declarations for the VCSnonideal package. ">
<polygon fill="#ffffff" stroke="#000000" points="268.5,-280.5 268.5,-299.5 420.5,-299.5 420.5,-280.5 268.5,-280.5"/>
<text text-anchor="middle" x="344.5" y="-287.5" font-family="Helvetica,sans-Serif" font-size="10.00" fill="#000000">cantera/equil/vcs_internal.h</text>
</a>
</g>
</g>
<!-- Node1&#45;&gt;Node12 -->
<g id="edge12" class="edge">
<title>Node1&#45;&gt;Node12</title>
<path fill="none" stroke="#191970" d="M277.6091,-336.2455C289.9209,-327.7337 307.9958,-315.2375 322.2538,-305.3801"/>
<polygon fill="#191970" stroke="#191970" points="324.3174,-308.2085 330.5526,-299.6427 320.3366,-302.4506 324.3174,-308.2085"/>
</g>
<!-- Node17 -->
<g id="node16" class="node">
<title>Node17</title>
<g id="a_node16"><a xlink:href="Array_8h.html" target="_top" xlink:title="Header file for class Cantera::Array2D. ">
<polygon fill="#ffffff" stroke="#000000" points="438.5,-280.5 438.5,-299.5 554.5,-299.5 554.5,-280.5 438.5,-280.5"/>
<text text-anchor="middle" x="496.5" y="-287.5" font-family="Helvetica,sans-Serif" font-size="10.00" fill="#000000">cantera/base/Array.h</text>
</a>
</g>
</g>
<!-- Node1&#45;&gt;Node17 -->
<g id="edge17" class="edge">
<title>Node1&#45;&gt;Node17</title>
<path fill="none" stroke="#191970" d="M303.2894,-336.4369C342.998,-326.8932 404.1104,-312.2052 446.9455,-301.9101"/>
<polygon fill="#191970" stroke="#191970" points="447.9695,-305.2637 456.8747,-299.5237 446.3337,-298.4575 447.9695,-305.2637"/>
</g>
<!-- Node3 -->
<g id="node4" class="node">
<title>Node3</title>
<g id="a_node4"><a xlink:href="config_8h_source.html" target="_top" xlink:title="config.h">
<polygon fill="#ffffff" stroke="#000000" points="0,-.5 0,-19.5 55,-19.5 55,-.5 0,-.5"/>
<text text-anchor="middle" x="27.5" y="-7.5" font-family="Helvetica,sans-Serif" font-size="10.00" fill="#000000">config.h</text>
</a>
</g>
</g>
<!-- Node2&#45;&gt;Node3 -->
<g id="edge3" class="edge">
<title>Node2&#45;&gt;Node3</title>
<path fill="none" stroke="#191970" d="M215.7773,-56.4299C178.3558,-47.9335 122.2722,-34.9267 65.2765,-20.397"/>
<polygon fill="#191970" stroke="#191970" points="65.9349,-16.9527 55.379,-17.8606 64.1971,-23.7336 65.9349,-16.9527"/>
</g>
<!-- Node4 -->
<g id="node5" class="node">
<title>Node4</title>
<polygon fill="#ffffff" stroke="#bfbfbf" points="73,-.5 73,-19.5 120,-19.5 120,-.5 73,-.5"/>
<text text-anchor="middle" x="96.5" y="-7.5" font-family="Helvetica,sans-Serif" font-size="10.00" fill="#000000">cmath</text>
</g>
<!-- Node2&#45;&gt;Node4 -->
<g id="edge4" class="edge">
<title>Node2&#45;&gt;Node4</title>
<path fill="none" stroke="#191970" d="M230.6512,-56.3733C202.6105,-46.6802 159.3547,-31.7275 129.5828,-21.436"/>
<polygon fill="#191970" stroke="#191970" points="130.6394,-18.0981 120.0447,-18.1389 128.3524,-24.714 130.6394,-18.0981"/>
</g>
<!-- Node5 -->
<g id="node6" class="node">
<title>Node5</title>
<polygon fill="#ffffff" stroke="#bfbfbf" points="138,-.5 138,-19.5 187,-19.5 187,-.5 138,-.5"/>
<text text-anchor="middle" x="162.5" y="-7.5" font-family="Helvetica,sans-Serif" font-size="10.00" fill="#000000">cstdlib</text>
</g>
<!-- Node2&#45;&gt;Node5 -->
<g id="edge5" class="edge">
<title>Node2&#45;&gt;Node5</title>
<path fill="none" stroke="#191970" d="M241.7781,-56.2455C226.9111,-47.5731 204.9534,-34.7645 187.9142,-24.825"/>
<polygon fill="#191970" stroke="#191970" points="189.4317,-21.6582 179.0303,-19.6427 185.9045,-27.7047 189.4317,-21.6582"/>
</g>
<!-- Node6 -->
<g id="node7" class="node">
<title>Node6</title>
<polygon fill="#ffffff" stroke="#bfbfbf" points="205,-.5 205,-19.5 252,-19.5 252,-.5 205,-.5"/>
<text text-anchor="middle" x="228.5" y="-7.5" font-family="Helvetica,sans-Serif" font-size="10.00" fill="#000000">vector</text>
</g>
<!-- Node2&#45;&gt;Node6 -->
<g id="edge6" class="edge">
<title>Node2&#45;&gt;Node6</title>
<path fill="none" stroke="#191970" d="M253.2744,-56.2455C249.1877,-48.617 243.3865,-37.7881 238.425,-28.5267"/>
<polygon fill="#191970" stroke="#191970" points="241.4732,-26.8047 233.6657,-19.6427 235.3028,-30.1103 241.4732,-26.8047"/>
</g>
<!-- Node7 -->
<g id="node8" class="node">
<title>Node7</title>
<polygon fill="#ffffff" stroke="#bfbfbf" points="270.5,-.5 270.5,-19.5 308.5,-19.5 308.5,-.5 270.5,-.5"/>
<text text-anchor="middle" x="289.5" y="-7.5" font-family="Helvetica,sans-Serif" font-size="10.00" fill="#000000">map</text>
</g>
<!-- Node2&#45;&gt;Node7 -->
<g id="edge7" class="edge">
<title>Node2&#45;&gt;Node7</title>
<path fill="none" stroke="#191970" d="M263.8998,-56.2455C268.1227,-48.617 274.1173,-37.7881 279.2441,-28.5267"/>
<polygon fill="#191970" stroke="#191970" points="282.381,-30.0867 284.1621,-19.6427 276.2568,-26.6965 282.381,-30.0867"/>
</g>
<!-- Node8 -->
<g id="node9" class="node">
<title>Node8</title>
<polygon fill="#ffffff" stroke="#bfbfbf" points="326.5,-.5 326.5,-19.5 370.5,-19.5 370.5,-.5 326.5,-.5"/>
<text text-anchor="middle" x="348.5" y="-7.5" font-family="Helvetica,sans-Serif" font-size="10.00" fill="#000000">string</text>
</g>
<!-- Node2&#45;&gt;Node8 -->
<g id="edge8" class="edge">
<title>Node2&#45;&gt;Node8</title>
<path fill="none" stroke="#191970" d="M274.1768,-56.2455C287.9856,-47.6534 308.3193,-35.0014 324.2292,-25.1018"/>
<polygon fill="#191970" stroke="#191970" points="326.3613,-27.8974 333.0028,-19.6427 322.6632,-21.954 326.3613,-27.8974"/>
</g>
<!-- Node9 -->
<g id="node10" class="node">
<title>Node9</title>
<polygon fill="#ffffff" stroke="#bfbfbf" points="388.5,-.5 388.5,-19.5 452.5,-19.5 452.5,-.5 388.5,-.5"/>
<text text-anchor="middle" x="420.5" y="-7.5" font-family="Helvetica,sans-Serif" font-size="10.00" fill="#000000">algorithm</text>
</g>
<!-- Node2&#45;&gt;Node9 -->
<g id="edge9" class="edge">
<title>Node2&#45;&gt;Node9</title>
<path fill="none" stroke="#191970" d="M286.3488,-56.3733C313.1703,-47.1016 353.9127,-33.0178 383.4598,-22.804"/>
<polygon fill="#191970" stroke="#191970" points="384.7069,-26.0762 393.0146,-19.5011 382.4198,-19.4603 384.7069,-26.0762"/>
</g>
<!-- Node10 -->
<g id="node11" class="node">
<title>Node10</title>
<polygon fill="#ffffff" stroke="#bfbfbf" points="470.5,-.5 470.5,-19.5 528.5,-19.5 528.5,-.5 470.5,-.5"/>
<text text-anchor="middle" x="499.5" y="-7.5" font-family="Helvetica,sans-Serif" font-size="10.00" fill="#000000">memory</text>
</g>
<!-- Node2&#45;&gt;Node10 -->
<g id="edge10" class="edge">
<title>Node2&#45;&gt;Node10</title>
<path fill="none" stroke="#191970" d="M302.5578,-56.4758C341.5744,-47.9383 400.3177,-34.8346 460.431,-20.204"/>
<polygon fill="#191970" stroke="#191970" points="461.5976,-23.522 470.4801,-17.7469 459.9349,-16.7223 461.5976,-23.522"/>
</g>
<!-- Node13 -->
<g id="node14" class="node">
<title>Node13</title>
<g id="a_node14"><a xlink:href="global_8h.html" target="_top" xlink:title="This file contains definitions for utility functions and text for modules, inputfiles, logs, textlogs, (see Input File Handling, Diagnostic Output, and Writing messages to the screen). ">
<polygon fill="#ffffff" stroke="#000000" points="236.5,-168.5 236.5,-187.5 358.5,-187.5 358.5,-168.5 236.5,-168.5"/>
<text text-anchor="middle" x="297.5" y="-175.5" font-family="Helvetica,sans-Serif" font-size="10.00" fill="#000000">cantera/base/global.h</text>
</a>
</g>
</g>
<!-- Node12&#45;&gt;Node13 -->
<g id="edge13" class="edge">
<title>Node12&#45;&gt;Node13</title>
<path fill="none" stroke="#191970" d="M340.4928,-280.4509C332.7578,-262.0186 315.6392,-221.2254 305.4913,-197.043"/>
<polygon fill="#191970" stroke="#191970" points="308.594,-195.3915 301.4971,-187.5249 302.1393,-198.1002 308.594,-195.3915"/>
</g>
<!-- Node13&#45;&gt;Node2 -->
<g id="edge14" class="edge">
<title>Node13&#45;&gt;Node2</title>
<path fill="none" stroke="#191970" d="M276.3784,-168.4622C262.2497,-160.8191 244.7828,-148.6199 236.5,-132 228.7961,-116.5416 236.5635,-97.7593 244.9217,-84.19"/>
<polygon fill="#191970" stroke="#191970" points="247.9342,-85.9826 250.6196,-75.7337 242.1291,-82.071 247.9342,-85.9826"/>
</g>
<!-- Node14 -->
<g id="node15" class="node">
<title>Node14</title>
<g id="a_node15"><a xlink:href="fmt_8h.html" target="_top" xlink:title="Wrapper for either system&#45;installed or local headers for fmt. ">
<polygon fill="#ffffff" stroke="#ff0000" points="246,-112.5 246,-131.5 355,-131.5 355,-112.5 246,-112.5"/>
<text text-anchor="middle" x="300.5" y="-119.5" font-family="Helvetica,sans-Serif" font-size="10.00" fill="#000000">cantera/base/fmt.h</text>
</a>
</g>
</g>
<!-- Node13&#45;&gt;Node14 -->
<g id="edge15" class="edge">
<title>Node13&#45;&gt;Node14</title>
<path fill="none" stroke="#191970" d="M298.0226,-168.2455C298.414,-160.9382 298.9628,-150.6944 299.4444,-141.7046"/>
<polygon fill="#191970" stroke="#191970" points="302.9434,-141.8156 299.9834,-131.6427 295.9534,-141.4411 302.9434,-141.8156"/>
</g>
<!-- Node14&#45;&gt;Node2 -->
<g id="edge16" class="edge">
<title>Node14&#45;&gt;Node2</title>
<path fill="none" stroke="#191970" d="M293.1842,-112.2455C287.2821,-104.3761 278.8258,-93.101 271.7406,-83.6542"/>
<polygon fill="#191970" stroke="#191970" points="274.5321,-81.5427 265.732,-75.6427 268.932,-85.7427 274.5321,-81.5427"/>
</g>
<!-- Node18 -->
<g id="node17" class="node">
<title>Node18</title>
<g id="a_node17"><a xlink:href="utilities_8h.html" target="_top" xlink:title="Various templated functions that carry out common vector operations (see Templated Utility Functions)...">
<polygon fill="#ffffff" stroke="#000000" points="386.5,-224.5 386.5,-243.5 448.5,-243.5 448.5,-224.5 386.5,-224.5"/>
<text text-anchor="middle" x="417.5" y="-231.5" font-family="Helvetica,sans-Serif" font-size="10.00" fill="#000000">utilities.h</text>
</a>
</g>
</g>
<!-- Node17&#45;&gt;Node18 -->
<g id="edge18" class="edge">
<title>Node17&#45;&gt;Node18</title>
<path fill="none" stroke="#191970" d="M482.7393,-280.2455C470.8448,-271.814 453.435,-259.4729 439.5915,-249.6598"/>
<polygon fill="#191970" stroke="#191970" points="441.2854,-246.5704 431.1031,-243.6427 437.2372,-252.2811 441.2854,-246.5704"/>
</g>
<!-- Node21 -->
<g id="node20" class="node">
<title>Node21</title>
<polygon fill="#ffffff" stroke="#bfbfbf" points="466.5,-224.5 466.5,-243.5 526.5,-243.5 526.5,-224.5 466.5,-224.5"/>
<text text-anchor="middle" x="496.5" y="-231.5" font-family="Helvetica,sans-Serif" font-size="10.00" fill="#000000">iostream</text>
</g>
<!-- Node17&#45;&gt;Node21 -->
<g id="edge23" class="edge">
<title>Node17&#45;&gt;Node21</title>
<path fill="none" stroke="#191970" d="M496.5,-280.2455C496.5,-272.9382 496.5,-262.6944 496.5,-253.7046"/>
<polygon fill="#191970" stroke="#191970" points="500.0001,-253.6426 496.5,-243.6427 493.0001,-253.6427 500.0001,-253.6426"/>
</g>
<!-- Node22 -->
<g id="node21" class="node">
<title>Node22</title>
<polygon fill="#ffffff" stroke="#bfbfbf" points="544.5,-224.5 544.5,-243.5 594.5,-243.5 594.5,-224.5 544.5,-224.5"/>
<text text-anchor="middle" x="569.5" y="-231.5" font-family="Helvetica,sans-Serif" font-size="10.00" fill="#000000">cstring</text>
</g>
<!-- Node17&#45;&gt;Node22 -->
<g id="edge24" class="edge">
<title>Node17&#45;&gt;Node22</title>
<path fill="none" stroke="#191970" d="M509.2156,-280.2455C520.102,-271.8943 535.9883,-259.7076 548.72,-249.9408"/>
<polygon fill="#191970" stroke="#191970" points="551.1261,-252.5063 556.9301,-243.6427 546.8654,-246.9523 551.1261,-252.5063"/>
</g>
<!-- Node18&#45;&gt;Node2 -->
<g id="edge19" class="edge">
<title>Node18&#45;&gt;Node2</title>
<path fill="none" stroke="#191970" d="M414.1889,-224.1617C405.3081,-198.2435 380.4838,-128.9195 363.5,-112 348.0612,-96.6197 326.6194,-85.9807 307.1345,-78.841"/>
<polygon fill="#191970" stroke="#191970" points="308.0593,-75.4579 297.4646,-75.5159 305.783,-82.0775 308.0593,-75.4579"/>
</g>
<!-- Node18&#45;&gt;Node13 -->
<g id="edge20" class="edge">
<title>Node18&#45;&gt;Node13</title>
<path fill="none" stroke="#191970" d="M396.8713,-224.3733C377.6081,-215.3838 348.6514,-201.8706 326.9581,-191.7471"/>
<polygon fill="#191970" stroke="#191970" points="328.4015,-188.5584 317.8595,-187.5011 325.4413,-194.9017 328.4015,-188.5584"/>
</g>
<!-- Node19 -->
<g id="node18" class="node">
<title>Node19</title>
<polygon fill="#ffffff" stroke="#bfbfbf" points="415,-168.5 415,-187.5 480,-187.5 480,-168.5 415,-168.5"/>
<text text-anchor="middle" x="447.5" y="-175.5" font-family="Helvetica,sans-Serif" font-size="10.00" fill="#000000">stdexcept</text>
</g>
<!-- Node18&#45;&gt;Node19 -->
<g id="edge21" class="edge">
<title>Node18&#45;&gt;Node19</title>
<path fill="none" stroke="#191970" d="M422.7256,-224.2455C426.8123,-216.617 432.6135,-205.7881 437.575,-196.5267"/>
<polygon fill="#191970" stroke="#191970" points="440.6972,-198.1103 442.3343,-187.6427 434.5268,-194.8047 440.6972,-198.1103"/>
</g>
<!-- Node20 -->
<g id="node19" class="node">
<title>Node20</title>
<polygon fill="#ffffff" stroke="#bfbfbf" points="498.5,-168.5 498.5,-187.5 554.5,-187.5 554.5,-168.5 498.5,-168.5"/>
<text text-anchor="middle" x="526.5" y="-175.5" font-family="Helvetica,sans-Serif" font-size="10.00" fill="#000000">numeric</text>
</g>
<!-- Node18&#45;&gt;Node20 -->
<g id="edge22" class="edge">
<title>Node18&#45;&gt;Node20</title>
<path fill="none" stroke="#191970" d="M436.4864,-224.2455C453.6792,-215.4125 479.2238,-202.2887 498.7132,-192.2758"/>
<polygon fill="#191970" stroke="#191970" points="500.4359,-195.3257 507.7312,-187.6427 497.237,-189.0993 500.4359,-195.3257"/>
</g>
</g>
</svg>
