<?xml version="1.0" encoding="UTF-8" standalone="no"?>
<!DOCTYPE svg PUBLIC "-//W3C//DTD SVG 1.1//EN"
 "http://www.w3.org/Graphics/SVG/1.1/DTD/svg11.dtd">
<!-- Generated by graphviz version 2.40.1 (20161225.0304)
 -->
<!-- Title: vcs_util.cpp Pages: 1 -->
<svg width="871pt" height="308pt"
 viewBox="0.00 0.00 871.00 308.00" xmlns="http://www.w3.org/2000/svg" xmlns:xlink="http://www.w3.org/1999/xlink">
<g id="graph0" class="graph" transform="scale(1 1) rotate(0) translate(4 304)">
<title>vcs_util.cpp</title>
<polygon fill="#ffffff" stroke="transparent" points="-4,4 -4,-304 867,-304 867,4 -4,4"/>
<!-- Node0 -->
<g id="node1" class="node">
<title>Node0</title>
<polygon fill="#bfbfbf" stroke="#000000" points="538,-280.5 538,-299.5 612,-299.5 612,-280.5 538,-280.5"/>
<text text-anchor="middle" x="575" y="-287.5" font-family="Helvetica,sans-Serif" font-size="10.00" fill="#000000">vcs_util.cpp</text>
</g>
<!-- Node1 -->
<g id="node2" class="node">
<title>Node1</title>
<g id="a_node2"><a xlink:href="vcs__internal_8h.html" target="_top" xlink:title="Internal declarations for the VCSnonideal package. ">
<polygon fill="#ffffff" stroke="#000000" points="247,-224.5 247,-243.5 399,-243.5 399,-224.5 247,-224.5"/>
<text text-anchor="middle" x="323" y="-231.5" font-family="Helvetica,sans-Serif" font-size="10.00" fill="#000000">cantera/equil/vcs_internal.h</text>
</a>
</g>
</g>
<!-- Node0&#45;&gt;Node1 -->
<g id="edge1" class="edge">
<title>Node0&#45;&gt;Node1</title>
<path fill="none" stroke="#191970" d="M537.8165,-281.737C494.9973,-272.2216 424.3346,-256.5188 375.822,-245.7382"/>
<polygon fill="#191970" stroke="#191970" points="376.3453,-242.2692 365.8242,-243.5165 374.8268,-249.1025 376.3453,-242.2692"/>
</g>
<!-- Node15 -->
<g id="node16" class="node">
<title>Node15</title>
<g id="a_node16"><a xlink:href="vcs__defs_8h.html" target="_top" xlink:title="Defines and definitions within the vcs package. ">
<polygon fill="#ffffff" stroke="#000000" points="589.5,-224.5 589.5,-243.5 724.5,-243.5 724.5,-224.5 589.5,-224.5"/>
<text text-anchor="middle" x="657" y="-231.5" font-family="Helvetica,sans-Serif" font-size="10.00" fill="#000000">cantera/equil/vcs_defs.h</text>
</a>
</g>
</g>
<!-- Node0&#45;&gt;Node15 -->
<g id="edge16" class="edge">
<title>Node0&#45;&gt;Node15</title>
<path fill="none" stroke="#191970" d="M589.2833,-280.2455C601.747,-271.7337 620.0451,-259.2375 634.4792,-249.3801"/>
<polygon fill="#191970" stroke="#191970" points="636.5962,-252.1726 642.8804,-243.6427 632.6485,-246.392 636.5962,-252.1726"/>
</g>
<!-- Node16 -->
<g id="node17" class="node">
<title>Node16</title>
<g id="a_node17"><a xlink:href="stringUtils_8h.html" target="_top" xlink:title="Contains declarations for string manipulation functions within Cantera. ">
<polygon fill="#ffffff" stroke="#000000" points="114,-168.5 114,-187.5 256,-187.5 256,-168.5 114,-168.5"/>
<text text-anchor="middle" x="185" y="-175.5" font-family="Helvetica,sans-Serif" font-size="10.00" fill="#000000">cantera/base/stringUtils.h</text>
</a>
</g>
</g>
<!-- Node0&#45;&gt;Node16 -->
<g id="edge17" class="edge">
<title>Node0&#45;&gt;Node16</title>
<path fill="none" stroke="#191970" d="M537.9087,-288.3755C461.3348,-284.4734 288.6856,-272.6807 238,-244 218.6953,-233.0763 203.7304,-212.0904 194.6987,-196.705"/>
<polygon fill="#191970" stroke="#191970" points="197.5426,-194.616 189.6343,-187.5654 191.4197,-198.0087 197.5426,-194.616"/>
</g>
<!-- Node17 -->
<g id="node18" class="node">
<title>Node17</title>
<g id="a_node18"><a xlink:href="ctexceptions_8h.html" target="_top" xlink:title="Definitions for the classes that are thrown when Cantera experiences an error condition (also contain...">
<polygon fill="#ffffff" stroke="#000000" points="417,-224.5 417,-243.5 571,-243.5 571,-224.5 417,-224.5"/>
<text text-anchor="middle" x="494" y="-231.5" font-family="Helvetica,sans-Serif" font-size="10.00" fill="#000000">cantera/base/ctexceptions.h</text>
</a>
</g>
</g>
<!-- Node0&#45;&gt;Node17 -->
<g id="edge21" class="edge">
<title>Node0&#45;&gt;Node17</title>
<path fill="none" stroke="#191970" d="M560.8909,-280.2455C548.5791,-271.7337 530.5042,-259.2375 516.2462,-249.3801"/>
<polygon fill="#191970" stroke="#191970" points="518.1634,-246.4506 507.9474,-243.6427 514.1826,-252.2085 518.1634,-246.4506"/>
</g>
<!-- Node19 -->
<g id="node20" class="node">
<title>Node19</title>
<polygon fill="#ffffff" stroke="#bfbfbf" points="743,-224.5 743,-243.5 795,-243.5 795,-224.5 743,-224.5"/>
<text text-anchor="middle" x="769" y="-231.5" font-family="Helvetica,sans-Serif" font-size="10.00" fill="#000000">cassert</text>
</g>
<!-- Node0&#45;&gt;Node19 -->
<g id="edge24" class="edge">
<title>Node0&#45;&gt;Node19</title>
<path fill="none" stroke="#191970" d="M608.3498,-280.3733C643.0576,-270.3545 697.2309,-254.7168 732.9199,-244.4149"/>
<polygon fill="#191970" stroke="#191970" points="734.2748,-247.6667 742.9119,-241.5306 732.3334,-240.9413 734.2748,-247.6667"/>
</g>
<!-- Node20 -->
<g id="node21" class="node">
<title>Node20</title>
<polygon fill="#ffffff" stroke="#bfbfbf" points="813,-224.5 813,-243.5 863,-243.5 863,-224.5 813,-224.5"/>
<text text-anchor="middle" x="838" y="-231.5" font-family="Helvetica,sans-Serif" font-size="10.00" fill="#000000">cstring</text>
</g>
<!-- Node0&#45;&gt;Node20 -->
<g id="edge25" class="edge">
<title>Node0&#45;&gt;Node20</title>
<path fill="none" stroke="#191970" d="M612.1076,-283.5819C655.631,-275.8267 730.1257,-261.8465 803.0115,-244.0891"/>
<polygon fill="#191970" stroke="#191970" points="803.9431,-247.4643 812.8161,-241.6747 802.2692,-240.6674 803.9431,-247.4643"/>
</g>
<!-- Node2 -->
<g id="node3" class="node">
<title>Node2</title>
<g id="a_node3"><a xlink:href="global_8h.html" target="_top" xlink:title="This file contains definitions for utility functions and text for modules, inputfiles, logs, textlogs, (see Input File Handling, Diagnostic Output, and Writing messages to the screen). ">
<polygon fill="#ffffff" stroke="#000000" points="274,-168.5 274,-187.5 396,-187.5 396,-168.5 274,-168.5"/>
<text text-anchor="middle" x="335" y="-175.5" font-family="Helvetica,sans-Serif" font-size="10.00" fill="#000000">cantera/base/global.h</text>
</a>
</g>
</g>
<!-- Node1&#45;&gt;Node2 -->
<g id="edge2" class="edge">
<title>Node1&#45;&gt;Node2</title>
<path fill="none" stroke="#191970" d="M325.0902,-224.2455C326.6561,-216.9382 328.8512,-206.6944 330.7776,-197.7046"/>
<polygon fill="#191970" stroke="#191970" points="334.2607,-198.1541 332.9337,-187.6427 327.416,-196.6873 334.2607,-198.1541"/>
</g>
<!-- Node3 -->
<g id="node4" class="node">
<title>Node3</title>
<g id="a_node4"><a xlink:href="ct__defs_8h.html" target="_top" xlink:title="This file contains definitions of terms that are used in internal routines and are unlikely to need m...">
<polygon fill="#ffffff" stroke="#000000" points="217.5,-56.5 217.5,-75.5 278.5,-75.5 278.5,-56.5 217.5,-56.5"/>
<text text-anchor="middle" x="248" y="-63.5" font-family="Helvetica,sans-Serif" font-size="10.00" fill="#000000">ct_defs.h</text>
</a>
</g>
</g>
<!-- Node2&#45;&gt;Node3 -->
<g id="edge3" class="edge">
<title>Node2&#45;&gt;Node3</title>
<path fill="none" stroke="#191970" d="M327.5824,-168.4509C312.9435,-149.6054 280.1472,-107.3849 261.5486,-83.4419"/>
<polygon fill="#191970" stroke="#191970" points="264.2974,-81.2751 255.3988,-75.5249 258.7693,-85.5693 264.2974,-81.2751"/>
</g>
<!-- Node12 -->
<g id="node13" class="node">
<title>Node12</title>
<g id="a_node13"><a xlink:href="fmt_8h.html" target="_top" xlink:title="Wrapper for either system&#45;installed or local headers for fmt. ">
<polygon fill="#ffffff" stroke="#000000" points="310.5,-112.5 310.5,-131.5 419.5,-131.5 419.5,-112.5 310.5,-112.5"/>
<text text-anchor="middle" x="365" y="-119.5" font-family="Helvetica,sans-Serif" font-size="10.00" fill="#000000">cantera/base/fmt.h</text>
</a>
</g>
</g>
<!-- Node2&#45;&gt;Node12 -->
<g id="edge12" class="edge">
<title>Node2&#45;&gt;Node12</title>
<path fill="none" stroke="#191970" d="M340.2256,-168.2455C344.3123,-160.617 350.1135,-149.7881 355.075,-140.5267"/>
<polygon fill="#191970" stroke="#191970" points="358.1972,-142.1103 359.8343,-131.6427 352.0268,-138.8047 358.1972,-142.1103"/>
</g>
<!-- Node4 -->
<g id="node5" class="node">
<title>Node4</title>
<g id="a_node5"><a xlink:href="config_8h_source.html" target="_top" xlink:title="config.h">
<polygon fill="#ffffff" stroke="#000000" points="220.5,-.5 220.5,-19.5 275.5,-19.5 275.5,-.5 220.5,-.5"/>
<text text-anchor="middle" x="248" y="-7.5" font-family="Helvetica,sans-Serif" font-size="10.00" fill="#000000">config.h</text>
</a>
</g>
</g>
<!-- Node3&#45;&gt;Node4 -->
<g id="edge4" class="edge">
<title>Node3&#45;&gt;Node4</title>
<path fill="none" stroke="#191970" d="M248,-56.2455C248,-48.9382 248,-38.6944 248,-29.7046"/>
<polygon fill="#191970" stroke="#191970" points="251.5001,-29.6426 248,-19.6427 244.5001,-29.6427 251.5001,-29.6426"/>
</g>
<!-- Node5 -->
<g id="node6" class="node">
<title>Node5</title>
<polygon fill="#ffffff" stroke="#bfbfbf" points="293.5,-.5 293.5,-19.5 340.5,-19.5 340.5,-.5 293.5,-.5"/>
<text text-anchor="middle" x="317" y="-7.5" font-family="Helvetica,sans-Serif" font-size="10.00" fill="#000000">cmath</text>
</g>
<!-- Node3&#45;&gt;Node5 -->
<g id="edge5" class="edge">
<title>Node3&#45;&gt;Node5</title>
<path fill="none" stroke="#191970" d="M260.0189,-56.2455C270.2098,-47.9746 285.0362,-35.9416 297.0107,-26.2232"/>
<polygon fill="#191970" stroke="#191970" points="299.5598,-28.662 305.1188,-19.6427 295.1486,-23.2268 299.5598,-28.662"/>
</g>
<!-- Node6 -->
<g id="node7" class="node">
<title>Node6</title>
<polygon fill="#ffffff" stroke="#bfbfbf" points="358.5,-.5 358.5,-19.5 407.5,-19.5 407.5,-.5 358.5,-.5"/>
<text text-anchor="middle" x="383" y="-7.5" font-family="Helvetica,sans-Serif" font-size="10.00" fill="#000000">cstdlib</text>
</g>
<!-- Node3&#45;&gt;Node6 -->
<g id="edge6" class="edge">
<title>Node3&#45;&gt;Node6</title>
<path fill="none" stroke="#191970" d="M271.2073,-56.3733C293.1699,-47.2629 326.3332,-33.5062 350.8401,-23.3404"/>
<polygon fill="#191970" stroke="#191970" points="352.1997,-26.5657 360.0955,-19.5011 349.5176,-20.0999 352.1997,-26.5657"/>
</g>
<!-- Node7 -->
<g id="node8" class="node">
<title>Node7</title>
<polygon fill="#ffffff" stroke="#bfbfbf" points="425.5,-.5 425.5,-19.5 472.5,-19.5 472.5,-.5 425.5,-.5"/>
<text text-anchor="middle" x="449" y="-7.5" font-family="Helvetica,sans-Serif" font-size="10.00" fill="#000000">vector</text>
</g>
<!-- Node3&#45;&gt;Node7 -->
<g id="edge7" class="edge">
<title>Node3&#45;&gt;Node7</title>
<path fill="none" stroke="#191970" d="M278.7257,-57.8536C310.5529,-49.3566 361.9588,-35.47 415.5556,-20.0752"/>
<polygon fill="#191970" stroke="#191970" points="416.5903,-23.4195 425.2297,-17.2867 414.6515,-16.6934 416.5903,-23.4195"/>
</g>
<!-- Node8 -->
<g id="node9" class="node">
<title>Node8</title>
<polygon fill="#ffffff" stroke="#bfbfbf" points="491,-.5 491,-19.5 529,-19.5 529,-.5 491,-.5"/>
<text text-anchor="middle" x="510" y="-7.5" font-family="Helvetica,sans-Serif" font-size="10.00" fill="#000000">map</text>
</g>
<!-- Node3&#45;&gt;Node8 -->
<g id="edge8" class="edge">
<title>Node3&#45;&gt;Node8</title>
<path fill="none" stroke="#191970" d="M278.6094,-57.9405C281.4401,-57.259 284.2695,-56.6014 287,-56 369.9586,-37.729 395.0914,-42.5041 480.9328,-19.9512"/>
<polygon fill="#191970" stroke="#191970" points="482.094,-23.2636 490.8489,-17.2969 480.2839,-16.5017 482.094,-23.2636"/>
</g>
<!-- Node9 -->
<g id="node10" class="node">
<title>Node9</title>
<polygon fill="#ffffff" stroke="#bfbfbf" points="0,-.5 0,-19.5 44,-19.5 44,-.5 0,-.5"/>
<text text-anchor="middle" x="22" y="-7.5" font-family="Helvetica,sans-Serif" font-size="10.00" fill="#000000">string</text>
</g>
<!-- Node3&#45;&gt;Node9 -->
<g id="edge9" class="edge">
<title>Node3&#45;&gt;Node9</title>
<path fill="none" stroke="#191970" d="M217.4077,-59.5811C180.7289,-51.7115 117.2212,-37.5366 54.0143,-20.1312"/>
<polygon fill="#191970" stroke="#191970" points="54.8584,-16.7332 44.2862,-17.4256 52.9827,-23.4772 54.8584,-16.7332"/>
</g>
<!-- Node10 -->
<g id="node11" class="node">
<title>Node10</title>
<polygon fill="#ffffff" stroke="#bfbfbf" points="62,-.5 62,-19.5 126,-19.5 126,-.5 62,-.5"/>
<text text-anchor="middle" x="94" y="-7.5" font-family="Helvetica,sans-Serif" font-size="10.00" fill="#000000">algorithm</text>
</g>
<!-- Node3&#45;&gt;Node10 -->
<g id="edge10" class="edge">
<title>Node3&#45;&gt;Node10</title>
<path fill="none" stroke="#191970" d="M221.5265,-56.3733C196.1403,-47.1419 157.6355,-33.1402 129.578,-22.9375"/>
<polygon fill="#191970" stroke="#191970" points="130.7222,-19.6293 120.1281,-19.5011 128.3299,-26.2079 130.7222,-19.6293"/>
</g>
<!-- Node11 -->
<g id="node12" class="node">
<title>Node11</title>
<polygon fill="#ffffff" stroke="#bfbfbf" points="144,-.5 144,-19.5 202,-19.5 202,-.5 144,-.5"/>
<text text-anchor="middle" x="173" y="-7.5" font-family="Helvetica,sans-Serif" font-size="10.00" fill="#000000">memory</text>
</g>
<!-- Node3&#45;&gt;Node11 -->
<g id="edge11" class="edge">
<title>Node3&#45;&gt;Node11</title>
<path fill="none" stroke="#191970" d="M234.936,-56.2455C223.6438,-47.814 207.1155,-35.4729 193.9729,-25.6598"/>
<polygon fill="#191970" stroke="#191970" points="196.0211,-22.8211 185.9143,-19.6427 191.8331,-28.4301 196.0211,-22.8211"/>
</g>
<!-- Node12&#45;&gt;Node3 -->
<g id="edge13" class="edge">
<title>Node12&#45;&gt;Node3</title>
<path fill="none" stroke="#191970" d="M344.887,-112.3733C326.1897,-103.4241 298.1256,-89.9917 277.0066,-79.8835"/>
<polygon fill="#191970" stroke="#191970" points="278.3817,-76.6614 267.8506,-75.5011 275.3595,-82.9755 278.3817,-76.6614"/>
</g>
<!-- Node13 -->
<g id="node14" class="node">
<title>Node13</title>
<polygon fill="#ffffff" stroke="#bfbfbf" points="459.5,-56.5 459.5,-75.5 596.5,-75.5 596.5,-56.5 459.5,-56.5"/>
<text text-anchor="middle" x="528" y="-63.5" font-family="Helvetica,sans-Serif" font-size="10.00" fill="#000000">cantera/ext/fmt/format.h</text>
</g>
<!-- Node12&#45;&gt;Node13 -->
<g id="edge14" class="edge">
<title>Node12&#45;&gt;Node13</title>
<path fill="none" stroke="#191970" d="M393.0207,-112.3733C420.0078,-103.1016 461.0017,-89.0178 490.7311,-78.804"/>
<polygon fill="#191970" stroke="#191970" points="492.0248,-82.0605 500.3449,-75.5011 489.7503,-75.4403 492.0248,-82.0605"/>
</g>
<!-- Node14 -->
<g id="node15" class="node">
<title>Node14</title>
<polygon fill="#ffffff" stroke="#bfbfbf" points="296.5,-56.5 296.5,-75.5 441.5,-75.5 441.5,-56.5 296.5,-56.5"/>
<text text-anchor="middle" x="369" y="-63.5" font-family="Helvetica,sans-Serif" font-size="10.00" fill="#000000">cantera/ext/fmt/ostream.h</text>
</g>
<!-- Node12&#45;&gt;Node14 -->
<g id="edge15" class="edge">
<title>Node12&#45;&gt;Node14</title>
<path fill="none" stroke="#191970" d="M365.6967,-112.2455C366.2187,-104.9382 366.9504,-94.6944 367.5925,-85.7046"/>
<polygon fill="#191970" stroke="#191970" points="371.0898,-85.8667 368.3112,-75.6427 364.1076,-85.3679 371.0898,-85.8667"/>
</g>
<!-- Node16&#45;&gt;Node3 -->
<g id="edge18" class="edge">
<title>Node16&#45;&gt;Node3</title>
<path fill="none" stroke="#191970" d="M190.3713,-168.4509C200.8325,-149.8533 224.0983,-108.4919 237.652,-84.3964"/>
<polygon fill="#191970" stroke="#191970" points="240.7901,-85.9566 242.6423,-75.5249 234.6891,-82.5247 240.7901,-85.9566"/>
</g>
<!-- Node16&#45;&gt;Node9 -->
<g id="edge20" class="edge">
<title>Node16&#45;&gt;Node9</title>
<path fill="none" stroke="#191970" d="M175.7694,-168.4862C149.3336,-141.2396 73.0512,-62.6172 38.8915,-27.4096"/>
<polygon fill="#191970" stroke="#191970" points="41.0109,-24.5678 31.5354,-19.8279 35.9869,-29.4422 41.0109,-24.5678"/>
</g>
<!-- Node16&#45;&gt;Node12 -->
<g id="edge19" class="edge">
<title>Node16&#45;&gt;Node12</title>
<path fill="none" stroke="#191970" d="M215.9431,-168.3733C246.0039,-159.021 291.8026,-144.7725 324.6978,-134.5385"/>
<polygon fill="#191970" stroke="#191970" points="325.9519,-137.8139 334.4607,-131.5011 323.8723,-131.1299 325.9519,-137.8139"/>
</g>
<!-- Node17&#45;&gt;Node12 -->
<g id="edge22" class="edge">
<title>Node17&#45;&gt;Node12</title>
<path fill="none" stroke="#191970" d="M496.2301,-224.3714C498.8611,-210.4389 501.445,-184.5213 489,-168 479.4635,-155.3398 444.1494,-142.9563 413.6344,-134.233"/>
<polygon fill="#191970" stroke="#191970" points="414.5067,-130.8428 403.9344,-131.5337 412.63,-137.5866 414.5067,-130.8428"/>
</g>
<!-- Node18 -->
<g id="node19" class="node">
<title>Node18</title>
<polygon fill="#ffffff" stroke="#bfbfbf" points="414.5,-168.5 414.5,-187.5 479.5,-187.5 479.5,-168.5 414.5,-168.5"/>
<text text-anchor="middle" x="447" y="-175.5" font-family="Helvetica,sans-Serif" font-size="10.00" fill="#000000">exception</text>
</g>
<!-- Node17&#45;&gt;Node18 -->
<g id="edge23" class="edge">
<title>Node17&#45;&gt;Node18</title>
<path fill="none" stroke="#191970" d="M485.8132,-224.2455C479.1411,-216.2958 469.5521,-204.8706 461.5747,-195.3656"/>
<polygon fill="#191970" stroke="#191970" points="464.2026,-193.0524 455.093,-187.6427 458.8408,-197.5525 464.2026,-193.0524"/>
</g>
</g>
</svg>
