<?xml version="1.0" encoding="UTF-8" standalone="no"?>
<!DOCTYPE svg PUBLIC "-//W3C//DTD SVG 1.1//EN"
 "http://www.w3.org/Graphics/SVG/1.1/DTD/svg11.dtd">
<!-- Generated by graphviz version 2.36.0 (20140111.2315)
 -->
<!-- Title: vcs_solve_TP.cpp Pages: 1 -->
<svg width="926pt" height="376pt"
 viewBox="0.00 0.00 926.00 376.00" xmlns="http://www.w3.org/2000/svg" xmlns:xlink="http://www.w3.org/1999/xlink">
<g id="graph0" class="graph" transform="scale(1 1) rotate(0) translate(4 372)">
<title>vcs_solve_TP.cpp</title>
<polygon fill="white" stroke="none" points="-4,4 -4,-372 922,-372 922,4 -4,4"/>
<!-- Node1 -->
<g id="node1" class="node"><title>Node1</title>
<polygon fill="#bfbfbf" stroke="black" points="624,-348.5 624,-367.5 718,-367.5 718,-348.5 624,-348.5"/>
<text text-anchor="middle" x="671" y="-355.5" font-family="FreeSans" font-size="10.00">vcs_solve_TP.cpp</text>
</g>
<!-- Node2 -->
<g id="node2" class="node"><title>Node2</title>
<g id="a_node2"><a xlink:href="vcs__solve_8h.html" target="_top" xlink:title="Header file for the internal object that holds the vcs equilibrium problem (see Class VCS_SOLVE and e...">
<polygon fill="white" stroke="black" points="327,-292.5 327,-311.5 451,-311.5 451,-292.5 327,-292.5"/>
<text text-anchor="middle" x="389" y="-299.5" font-family="FreeSans" font-size="10.00">cantera/equil/vcs_solve.h</text>
</a>
</g>
</g>
<!-- Node1&#45;&gt;Node2 -->
<g id="edge1" class="edge"><title>Node1&#45;&gt;Node2</title>
<path fill="none" stroke="midnightblue" d="M626.316,-348.444C576.71,-338.944 496.635,-323.611 443.415,-313.42"/>
<polygon fill="midnightblue" stroke="midnightblue" points="443.955,-309.96 433.475,-311.516 442.638,-316.835 443.955,-309.96"/>
</g>
<!-- Node22 -->
<g id="node22" class="node"><title>Node22</title>
<g id="a_node22"><a xlink:href="vcs__VolPhase_8h.html" target="_top" xlink:title="Header for the object representing each phase within vcs. ">
<polygon fill="white" stroke="black" points="141.5,-292.5 141.5,-311.5 284.5,-311.5 284.5,-292.5 141.5,-292.5"/>
<text text-anchor="middle" x="213" y="-299.5" font-family="FreeSans" font-size="10.00">cantera/equil/vcs_VolPhase.h</text>
</a>
</g>
</g>
<!-- Node1&#45;&gt;Node22 -->
<g id="edge24" class="edge"><title>Node1&#45;&gt;Node22</title>
<path fill="none" stroke="midnightblue" d="M623.711,-351.424C546.011,-342.263 390.415,-323.918 294.627,-312.624"/>
<polygon fill="midnightblue" stroke="midnightblue" points="295.029,-309.147 284.688,-311.452 294.21,-316.099 295.029,-309.147"/>
</g>
<!-- Node24 -->
<g id="node24" class="node"><title>Node24</title>
<g id="a_node24"><a xlink:href="ctexceptions_8h.html" target="_top" xlink:title="Definitions for the classes that are thrown when Cantera experiences an error condition (also contain...">
<polygon fill="white" stroke="black" points="666.5,-112.5 666.5,-131.5 803.5,-131.5 803.5,-112.5 666.5,-112.5"/>
<text text-anchor="middle" x="735" y="-119.5" font-family="FreeSans" font-size="10.00">cantera/base/ctexceptions.h</text>
</a>
</g>
</g>
<!-- Node1&#45;&gt;Node24 -->
<g id="edge28" class="edge"><title>Node1&#45;&gt;Node24</title>
<path fill="none" stroke="midnightblue" d="M673.794,-348.406C676.703,-339.375 681.335,-324.738 685,-312 702.873,-249.872 721.829,-175.569 730.362,-141.6"/>
<polygon fill="midnightblue" stroke="midnightblue" points="733.806,-142.253 732.84,-131.702 727.016,-140.553 733.806,-142.253"/>
</g>
<!-- Node26 -->
<g id="node26" class="node"><title>Node26</title>
<g id="a_node26"><a xlink:href="clockWC_8h.html" target="_top" xlink:title="Declarations for a simple class that implements an Ansi C wall clock timer (see Cantera::clockWC). ">
<polygon fill="white" stroke="black" points="737,-292.5 737,-311.5 859,-311.5 859,-292.5 737,-292.5"/>
<text text-anchor="middle" x="798" y="-299.5" font-family="FreeSans" font-size="10.00">cantera/base/clockWC.h</text>
</a>
</g>
</g>
<!-- Node1&#45;&gt;Node26 -->
<g id="edge32" class="edge"><title>Node1&#45;&gt;Node26</title>
<path fill="none" stroke="midnightblue" d="M691.124,-348.444C712.024,-339.557 744.935,-325.563 768.716,-315.451"/>
<polygon fill="midnightblue" stroke="midnightblue" points="770.138,-318.65 777.971,-311.516 767.398,-312.208 770.138,-318.65"/>
</g>
<!-- Node28 -->
<g id="node28" class="node"><title>Node28</title>
<g id="a_node28"><a xlink:href="stringUtils_8h.html" target="_top" xlink:title="Contains declarations for string manipulation functions within Cantera. ">
<polygon fill="white" stroke="black" points="523.5,-112.5 523.5,-131.5 648.5,-131.5 648.5,-112.5 523.5,-112.5"/>
<text text-anchor="middle" x="586" y="-119.5" font-family="FreeSans" font-size="10.00">cantera/base/stringUtils.h</text>
</a>
</g>
</g>
<!-- Node1&#45;&gt;Node28 -->
<g id="edge34" class="edge"><title>Node1&#45;&gt;Node28</title>
<path fill="none" stroke="midnightblue" d="M671.043,-348.278C670.881,-326.545 668.778,-268.526 652,-224 639.703,-191.364 615.483,-158.456 600.051,-139.436"/>
<polygon fill="midnightblue" stroke="midnightblue" points="602.732,-137.186 593.654,-131.725 597.345,-141.656 602.732,-137.186"/>
</g>
<!-- Node29 -->
<g id="node29" class="node"><title>Node29</title>
<g id="a_node29"><a xlink:href="ctlapack_8h.html" target="_top" xlink:title="cantera/numerics/ctlapack.h">
<polygon fill="white" stroke="black" points="505,-230.5 505,-249.5 643,-249.5 643,-230.5 505,-230.5"/>
<text text-anchor="middle" x="574" y="-237.5" font-family="FreeSans" font-size="10.00">cantera/numerics/ctlapack.h</text>
</a>
</g>
</g>
<!-- Node1&#45;&gt;Node29 -->
<g id="edge38" class="edge"><title>Node1&#45;&gt;Node29</title>
<path fill="none" stroke="midnightblue" d="M663.709,-348.281C647.55,-328.957 608.51,-282.269 587.66,-257.336"/>
<polygon fill="midnightblue" stroke="midnightblue" points="590.212,-254.931 581.112,-249.505 584.842,-259.421 590.212,-254.931"/>
</g>
<!-- Node30 -->
<g id="node30" class="node"><title>Node30</title>
<polygon fill="white" stroke="#bfbfbf" points="877,-292.5 877,-311.5 919,-311.5 919,-292.5 877,-292.5"/>
<text text-anchor="middle" x="898" y="-299.5" font-family="FreeSans" font-size="10.00">cstdio</text>
</g>
<!-- Node1&#45;&gt;Node30 -->
<g id="edge40" class="edge"><title>Node1&#45;&gt;Node30</title>
<path fill="none" stroke="midnightblue" d="M711.943,-348.483C749.816,-340.419 807.878,-327.587 866.884,-312.167"/>
<polygon fill="midnightblue" stroke="midnightblue" points="867.967,-315.501 876.744,-309.568 866.183,-308.733 867.967,-315.501"/>
</g>
<!-- Node3 -->
<g id="node3" class="node"><title>Node3</title>
<g id="a_node3"><a xlink:href="ct__defs_8h.html" target="_top" xlink:title="This file contains definitions of terms that are used in internal routines and are unlikely to need m...">
<polygon fill="white" stroke="black" points="292,-56.5 292,-75.5 406,-75.5 406,-56.5 292,-56.5"/>
<text text-anchor="middle" x="349" y="-63.5" font-family="FreeSans" font-size="10.00">cantera/base/ct_defs.h</text>
</a>
</g>
</g>
<!-- Node2&#45;&gt;Node3 -->
<g id="edge2" class="edge"><title>Node2&#45;&gt;Node3</title>
<path fill="none" stroke="midnightblue" d="M365.212,-292.499C349.279,-285.413 329.537,-273.605 320,-256 289.203,-199.147 322.056,-119.4 339.532,-84.5055"/>
<polygon fill="midnightblue" stroke="midnightblue" points="342.681,-86.0364 344.182,-75.5484 336.468,-82.8112 342.681,-86.0364"/>
</g>
<!-- Node12 -->
<g id="node12" class="node"><title>Node12</title>
<g id="a_node12"><a xlink:href="vcs__defs_8h.html" target="_top" xlink:title="Defines and definitions within the vcs package. ">
<polygon fill="white" stroke="black" points="329,-230.5 329,-249.5 449,-249.5 449,-230.5 329,-230.5"/>
<text text-anchor="middle" x="389" y="-237.5" font-family="FreeSans" font-size="10.00">cantera/equil/vcs_defs.h</text>
</a>
</g>
</g>
<!-- Node2&#45;&gt;Node12 -->
<g id="edge11" class="edge"><title>Node2&#45;&gt;Node12</title>
<path fill="none" stroke="midnightblue" d="M389,-292.403C389,-283.938 389,-270.728 389,-259.82"/>
<polygon fill="midnightblue" stroke="midnightblue" points="392.5,-259.581 389,-249.581 385.5,-259.581 392.5,-259.581"/>
</g>
<!-- Node13 -->
<g id="node13" class="node"><title>Node13</title>
<g id="a_node13"><a xlink:href="vcs__internal_8h.html" target="_top" xlink:title="Internal declarations for the VCSnonideal package. ">
<polygon fill="white" stroke="black" points="333,-168.5 333,-187.5 467,-187.5 467,-168.5 333,-168.5"/>
<text text-anchor="middle" x="400" y="-175.5" font-family="FreeSans" font-size="10.00">cantera/equil/vcs_internal.h</text>
</a>
</g>
</g>
<!-- Node2&#45;&gt;Node13 -->
<g id="edge12" class="edge"><title>Node2&#45;&gt;Node13</title>
<path fill="none" stroke="midnightblue" d="M412.454,-292.408C428.161,-285.28 447.619,-273.458 457,-256 463.732,-243.472 463.202,-236.799 457,-224 450.603,-210.8 438.248,-200.303 426.671,-192.779"/>
<polygon fill="midnightblue" stroke="midnightblue" points="428.454,-189.768 418.082,-187.61 424.845,-195.765 428.454,-189.768"/>
</g>
<!-- Node16 -->
<g id="node16" class="node"><title>Node16</title>
<g id="a_node16"><a xlink:href="Array_8h.html" target="_top" xlink:title="Header file for class Cantera::Array2D. ">
<polygon fill="white" stroke="black" points="160.5,-230.5 160.5,-249.5 265.5,-249.5 265.5,-230.5 160.5,-230.5"/>
<text text-anchor="middle" x="213" y="-237.5" font-family="FreeSans" font-size="10.00">cantera/base/Array.h</text>
</a>
</g>
</g>
<!-- Node2&#45;&gt;Node16 -->
<g id="edge16" class="edge"><title>Node2&#45;&gt;Node16</title>
<path fill="none" stroke="midnightblue" d="M363.783,-292.403C333.332,-282.022 281.951,-264.506 247.757,-252.849"/>
<polygon fill="midnightblue" stroke="midnightblue" points="248.764,-249.495 238.17,-249.581 246.505,-256.12 248.764,-249.495"/>
</g>
<!-- Node4 -->
<g id="node4" class="node"><title>Node4</title>
<g id="a_node4"><a xlink:href="config_8h_source.html" target="_top" xlink:title="config.h">
<polygon fill="white" stroke="black" points="360,-0.5 360,-19.5 410,-19.5 410,-0.5 360,-0.5"/>
<text text-anchor="middle" x="385" y="-7.5" font-family="FreeSans" font-size="10.00">config.h</text>
</a>
</g>
</g>
<!-- Node3&#45;&gt;Node4 -->
<g id="edge3" class="edge"><title>Node3&#45;&gt;Node4</title>
<path fill="none" stroke="midnightblue" d="M354.945,-56.083C359.977,-48.5341 367.337,-37.4948 373.513,-28.2298"/>
<polygon fill="midnightblue" stroke="midnightblue" points="376.531,-30.0131 379.166,-19.7511 370.707,-26.1301 376.531,-30.0131"/>
</g>
<!-- Node5 -->
<g id="node5" class="node"><title>Node5</title>
<polygon fill="white" stroke="#bfbfbf" points="428,-0.5 428,-19.5 472,-19.5 472,-0.5 428,-0.5"/>
<text text-anchor="middle" x="450" y="-7.5" font-family="FreeSans" font-size="10.00">cmath</text>
</g>
<!-- Node3&#45;&gt;Node5 -->
<g id="edge4" class="edge"><title>Node3&#45;&gt;Node5</title>
<path fill="none" stroke="midnightblue" d="M365.227,-56.324C381.351,-47.7034 406.3,-34.3643 424.964,-24.3855"/>
<polygon fill="midnightblue" stroke="midnightblue" points="426.644,-27.456 433.813,-19.6545 423.344,-21.283 426.644,-27.456"/>
</g>
<!-- Node6 -->
<g id="node6" class="node"><title>Node6</title>
<polygon fill="white" stroke="#bfbfbf" points="490,-0.5 490,-19.5 534,-19.5 534,-0.5 490,-0.5"/>
<text text-anchor="middle" x="512" y="-7.5" font-family="FreeSans" font-size="10.00">cstdlib</text>
</g>
<!-- Node3&#45;&gt;Node6 -->
<g id="edge5" class="edge"><title>Node3&#45;&gt;Node6</title>
<path fill="none" stroke="midnightblue" d="M374.828,-56.4435C403.378,-46.985 449.389,-31.7421 480.152,-21.551"/>
<polygon fill="midnightblue" stroke="midnightblue" points="481.56,-24.7715 489.952,-18.3042 479.359,-18.1266 481.56,-24.7715"/>
</g>
<!-- Node7 -->
<g id="node7" class="node"><title>Node7</title>
<polygon fill="white" stroke="#bfbfbf" points="101.5,-0.5 101.5,-19.5 144.5,-19.5 144.5,-0.5 101.5,-0.5"/>
<text text-anchor="middle" x="123" y="-7.5" font-family="FreeSans" font-size="10.00">vector</text>
</g>
<!-- Node3&#45;&gt;Node7 -->
<g id="edge6" class="edge"><title>Node3&#45;&gt;Node7</title>
<path fill="none" stroke="midnightblue" d="M308.268,-56.4664C270.588,-48.3901 212.823,-35.5494 154.351,-20.239"/>
<polygon fill="midnightblue" stroke="midnightblue" points="155.144,-16.8287 144.582,-17.6595 153.357,-23.5967 155.144,-16.8287"/>
</g>
<!-- Node8 -->
<g id="node8" class="node"><title>Node8</title>
<polygon fill="white" stroke="#bfbfbf" points="162.5,-0.5 162.5,-19.5 197.5,-19.5 197.5,-0.5 162.5,-0.5"/>
<text text-anchor="middle" x="180" y="-7.5" font-family="FreeSans" font-size="10.00">map</text>
</g>
<!-- Node3&#45;&gt;Node8 -->
<g id="edge7" class="edge"><title>Node3&#45;&gt;Node8</title>
<path fill="none" stroke="midnightblue" d="M321.739,-56.4931C295.024,-48.1275 252.911,-34.8642 207.453,-20.113"/>
<polygon fill="midnightblue" stroke="midnightblue" points="208.299,-16.7076 197.706,-16.9439 206.134,-23.3646 208.299,-16.7076"/>
</g>
<!-- Node9 -->
<g id="node9" class="node"><title>Node9</title>
<polygon fill="white" stroke="#bfbfbf" points="552,-0.5 552,-19.5 592,-19.5 592,-0.5 552,-0.5"/>
<text text-anchor="middle" x="572" y="-7.5" font-family="FreeSans" font-size="10.00">string</text>
</g>
<!-- Node3&#45;&gt;Node9 -->
<g id="edge8" class="edge"><title>Node3&#45;&gt;Node9</title>
<path fill="none" stroke="midnightblue" d="M388.73,-56.4965C427.876,-47.9394 489.304,-34.0332 542,-20 542.099,-19.9738 542.197,-19.9474 542.296,-19.921"/>
<polygon fill="midnightblue" stroke="midnightblue" points="543.036,-23.3486 551.716,-17.2722 541.141,-16.61 543.036,-23.3486"/>
</g>
<!-- Node10 -->
<g id="node10" class="node"><title>Node10</title>
<polygon fill="white" stroke="#bfbfbf" points="216,-0.5 216,-19.5 272,-19.5 272,-0.5 216,-0.5"/>
<text text-anchor="middle" x="244" y="-7.5" font-family="FreeSans" font-size="10.00">algorithm</text>
</g>
<!-- Node3&#45;&gt;Node10 -->
<g id="edge9" class="edge"><title>Node3&#45;&gt;Node10</title>
<path fill="none" stroke="midnightblue" d="M332.13,-56.324C315.291,-47.6641 289.193,-34.2424 269.762,-24.249"/>
<polygon fill="midnightblue" stroke="midnightblue" points="271.322,-21.1155 260.828,-19.6545 268.12,-27.3405 271.322,-21.1155"/>
</g>
<!-- Node11 -->
<g id="node11" class="node"><title>Node11</title>
<polygon fill="white" stroke="#bfbfbf" points="290.5,-0.5 290.5,-19.5 341.5,-19.5 341.5,-0.5 290.5,-0.5"/>
<text text-anchor="middle" x="316" y="-7.5" font-family="FreeSans" font-size="10.00">memory</text>
</g>
<!-- Node3&#45;&gt;Node11 -->
<g id="edge10" class="edge"><title>Node3&#45;&gt;Node11</title>
<path fill="none" stroke="midnightblue" d="M343.551,-56.083C338.986,-48.6127 332.332,-37.7244 326.707,-28.5199"/>
<polygon fill="midnightblue" stroke="midnightblue" points="329.549,-26.4588 321.348,-19.7511 323.576,-30.109 329.549,-26.4588"/>
</g>
<!-- Node14 -->
<g id="node14" class="node"><title>Node14</title>
<g id="a_node14"><a xlink:href="global_8h.html" target="_top" xlink:title="This file contains definitions for utility functions and text for modules, inputfiles, logs, textlogs, (see Input File Handling, Diagnostic Output, and Writing messages to the screen). ">
<polygon fill="white" stroke="black" points="340,-112.5 340,-131.5 448,-131.5 448,-112.5 340,-112.5"/>
<text text-anchor="middle" x="394" y="-119.5" font-family="FreeSans" font-size="10.00">cantera/base/global.h</text>
</a>
</g>
</g>
<!-- Node13&#45;&gt;Node14 -->
<g id="edge13" class="edge"><title>Node13&#45;&gt;Node14</title>
<path fill="none" stroke="midnightblue" d="M399.009,-168.083C398.214,-160.927 397.071,-150.635 396.077,-141.691"/>
<polygon fill="midnightblue" stroke="midnightblue" points="399.555,-141.303 394.972,-131.751 392.598,-142.076 399.555,-141.303"/>
</g>
<!-- Node14&#45;&gt;Node3 -->
<g id="edge14" class="edge"><title>Node14&#45;&gt;Node3</title>
<path fill="none" stroke="midnightblue" d="M386.569,-112.083C380.147,-104.377 370.694,-93.0333 362.878,-83.6531"/>
<polygon fill="midnightblue" stroke="midnightblue" points="365.383,-81.1927 356.293,-75.7511 360.006,-85.674 365.383,-81.1927"/>
</g>
<!-- Node15 -->
<g id="node15" class="node"><title>Node15</title>
<polygon fill="white" stroke="#bfbfbf" points="567.5,-56.5 567.5,-75.5 670.5,-75.5 670.5,-56.5 567.5,-56.5"/>
<text text-anchor="middle" x="619" y="-63.5" font-family="FreeSans" font-size="10.00">cantera/ext/format.h</text>
</g>
<!-- Node14&#45;&gt;Node15 -->
<g id="edge15" class="edge"><title>Node14&#45;&gt;Node15</title>
<path fill="none" stroke="midnightblue" d="M429.652,-112.444C468.656,-103.083 531.266,-88.0561 573.717,-77.868"/>
<polygon fill="midnightblue" stroke="midnightblue" points="574.608,-81.2536 583.515,-75.5164 572.974,-74.4469 574.608,-81.2536"/>
</g>
<!-- Node17 -->
<g id="node17" class="node"><title>Node17</title>
<g id="a_node17"><a xlink:href="utilities_8h.html" target="_top" xlink:title="Various templated functions that carry out common vector operations (see Templated Utility Functions)...">
<polygon fill="white" stroke="black" points="88,-168.5 88,-187.5 142,-187.5 142,-168.5 88,-168.5"/>
<text text-anchor="middle" x="115" y="-175.5" font-family="FreeSans" font-size="10.00">utilities.h</text>
</a>
</g>
</g>
<!-- Node16&#45;&gt;Node17 -->
<g id="edge17" class="edge"><title>Node16&#45;&gt;Node17</title>
<path fill="none" stroke="midnightblue" d="M198.959,-230.403C182.949,-220.601 156.55,-204.439 137.626,-192.853"/>
<polygon fill="midnightblue" stroke="midnightblue" points="139.371,-189.817 129.015,-187.581 135.716,-195.787 139.371,-189.817"/>
</g>
<!-- Node20 -->
<g id="node20" class="node"><title>Node20</title>
<polygon fill="white" stroke="#bfbfbf" points="160.5,-168.5 160.5,-187.5 213.5,-187.5 213.5,-168.5 160.5,-168.5"/>
<text text-anchor="middle" x="187" y="-175.5" font-family="FreeSans" font-size="10.00">iostream</text>
</g>
<!-- Node16&#45;&gt;Node20 -->
<g id="edge22" class="edge"><title>Node16&#45;&gt;Node20</title>
<path fill="none" stroke="midnightblue" d="M209.275,-230.403C205.491,-221.671 199.519,-207.889 194.711,-196.794"/>
<polygon fill="midnightblue" stroke="midnightblue" points="197.906,-195.365 190.718,-187.581 191.483,-198.148 197.906,-195.365"/>
</g>
<!-- Node21 -->
<g id="node21" class="node"><title>Node21</title>
<polygon fill="white" stroke="#bfbfbf" points="231.5,-168.5 231.5,-187.5 276.5,-187.5 276.5,-168.5 231.5,-168.5"/>
<text text-anchor="middle" x="254" y="-175.5" font-family="FreeSans" font-size="10.00">cstring</text>
</g>
<!-- Node16&#45;&gt;Node21 -->
<g id="edge23" class="edge"><title>Node16&#45;&gt;Node21</title>
<path fill="none" stroke="midnightblue" d="M218.874,-230.403C224.963,-221.493 234.645,-207.325 242.303,-196.118"/>
<polygon fill="midnightblue" stroke="midnightblue" points="245.384,-197.812 248.137,-187.581 239.605,-193.862 245.384,-197.812"/>
</g>
<!-- Node17&#45;&gt;Node3 -->
<g id="edge18" class="edge"><title>Node17&#45;&gt;Node3</title>
<path fill="none" stroke="midnightblue" d="M113.484,-168.072C111.671,-154.123 110.488,-127.19 125,-112 146.229,-89.7805 223.82,-77.9728 281.769,-72.1132"/>
<polygon fill="midnightblue" stroke="midnightblue" points="282.363,-75.572 291.978,-71.1211 281.686,-68.6048 282.363,-75.572"/>
</g>
<!-- Node17&#45;&gt;Node14 -->
<g id="edge19" class="edge"><title>Node17&#45;&gt;Node14</title>
<path fill="none" stroke="midnightblue" d="M142.085,-170.038C145.087,-169.323 148.104,-168.629 151,-168 212.581,-154.614 283.491,-141.775 332.753,-133.262"/>
<polygon fill="midnightblue" stroke="midnightblue" points="333.355,-136.71 342.616,-131.565 332.168,-129.811 333.355,-136.71"/>
</g>
<!-- Node18 -->
<g id="node18" class="node"><title>Node18</title>
<polygon fill="white" stroke="#bfbfbf" points="134,-112.5 134,-131.5 192,-131.5 192,-112.5 134,-112.5"/>
<text text-anchor="middle" x="163" y="-119.5" font-family="FreeSans" font-size="10.00">stdexcept</text>
</g>
<!-- Node17&#45;&gt;Node18 -->
<g id="edge20" class="edge"><title>Node17&#45;&gt;Node18</title>
<path fill="none" stroke="midnightblue" d="M122.926,-168.083C129.846,-160.298 140.065,-148.801 148.452,-139.367"/>
<polygon fill="midnightblue" stroke="midnightblue" points="151.194,-141.55 155.221,-131.751 145.962,-136.9 151.194,-141.55"/>
</g>
<!-- Node19 -->
<g id="node19" class="node"><title>Node19</title>
<polygon fill="white" stroke="#bfbfbf" points="210.5,-112.5 210.5,-131.5 261.5,-131.5 261.5,-112.5 210.5,-112.5"/>
<text text-anchor="middle" x="236" y="-119.5" font-family="FreeSans" font-size="10.00">numeric</text>
</g>
<!-- Node17&#45;&gt;Node19 -->
<g id="edge21" class="edge"><title>Node17&#45;&gt;Node19</title>
<path fill="none" stroke="midnightblue" d="M134.173,-168.444C153.909,-159.636 184.885,-145.812 207.493,-135.722"/>
<polygon fill="midnightblue" stroke="midnightblue" points="209.211,-138.788 216.917,-131.516 206.359,-132.396 209.211,-138.788"/>
</g>
<!-- Node22&#45;&gt;Node16 -->
<g id="edge27" class="edge"><title>Node22&#45;&gt;Node16</title>
<path fill="none" stroke="midnightblue" d="M213,-292.403C213,-283.938 213,-270.728 213,-259.82"/>
<polygon fill="midnightblue" stroke="midnightblue" points="216.5,-259.581 213,-249.581 209.5,-259.581 216.5,-259.581"/>
</g>
<!-- Node23 -->
<g id="node23" class="node"><title>Node23</title>
<g id="a_node23"><a xlink:href="vcs__SpeciesProperties_8h.html" target="_top" xlink:title="cantera/equil/vcs_Species\lProperties.h">
<polygon fill="white" stroke="black" points="-0.5,-225 -0.5,-255 128.5,-255 128.5,-225 -0.5,-225"/>
<text text-anchor="start" x="7.5" y="-243" font-family="FreeSans" font-size="10.00">cantera/equil/vcs_Species</text>
<text text-anchor="middle" x="64" y="-232" font-family="FreeSans" font-size="10.00">Properties.h</text>
</a>
</g>
</g>
<!-- Node22&#45;&gt;Node23 -->
<g id="edge25" class="edge"><title>Node22&#45;&gt;Node23</title>
<path fill="none" stroke="midnightblue" d="M191.652,-292.403C169.985,-283.679 135.804,-269.914 108.263,-258.824"/>
<polygon fill="midnightblue" stroke="midnightblue" points="109.413,-255.514 98.8295,-255.025 106.798,-262.007 109.413,-255.514"/>
</g>
<!-- Node23&#45;&gt;Node3 -->
<g id="edge26" class="edge"><title>Node23&#45;&gt;Node3</title>
<path fill="none" stroke="midnightblue" d="M64.3997,-224.919C66.0191,-197.757 73.8598,-138.473 111,-112 137.867,-92.8492 221.223,-80.2681 281.719,-73.3982"/>
<polygon fill="midnightblue" stroke="midnightblue" points="282.42,-76.8422 291.974,-72.2631 281.649,-69.8847 282.42,-76.8422"/>
</g>
<!-- Node24&#45;&gt;Node9 -->
<g id="edge30" class="edge"><title>Node24&#45;&gt;Node9</title>
<path fill="none" stroke="midnightblue" d="M729.462,-112.293C720.397,-98.6476 701.164,-72.1218 679,-56 655.54,-38.9354 624.63,-26.8332 602.067,-19.5084"/>
<polygon fill="midnightblue" stroke="midnightblue" points="602.933,-16.1122 592.345,-16.4784 600.851,-22.7952 602.933,-16.1122"/>
</g>
<!-- Node24&#45;&gt;Node15 -->
<g id="edge31" class="edge"><title>Node24&#45;&gt;Node15</title>
<path fill="none" stroke="midnightblue" d="M716.619,-112.444C697.784,-103.675 668.269,-89.9355 646.621,-79.8579"/>
<polygon fill="midnightblue" stroke="midnightblue" points="647.838,-76.5637 637.295,-75.5164 644.883,-82.9098 647.838,-76.5637"/>
</g>
<!-- Node25 -->
<g id="node25" class="node"><title>Node25</title>
<polygon fill="white" stroke="#bfbfbf" points="727,-56.5 727,-75.5 785,-75.5 785,-56.5 727,-56.5"/>
<text text-anchor="middle" x="756" y="-63.5" font-family="FreeSans" font-size="10.00">exception</text>
</g>
<!-- Node24&#45;&gt;Node25 -->
<g id="edge29" class="edge"><title>Node24&#45;&gt;Node25</title>
<path fill="none" stroke="midnightblue" d="M738.468,-112.083C741.312,-104.77 745.429,-94.1814 748.96,-85.1034"/>
<polygon fill="midnightblue" stroke="midnightblue" points="752.234,-86.3397 752.597,-75.7511 745.71,-83.8025 752.234,-86.3397"/>
</g>
<!-- Node27 -->
<g id="node27" class="node"><title>Node27</title>
<polygon fill="white" stroke="#bfbfbf" points="776.5,-230.5 776.5,-249.5 819.5,-249.5 819.5,-230.5 776.5,-230.5"/>
<text text-anchor="middle" x="798" y="-237.5" font-family="FreeSans" font-size="10.00">time.h</text>
</g>
<!-- Node26&#45;&gt;Node27 -->
<g id="edge33" class="edge"><title>Node26&#45;&gt;Node27</title>
<path fill="none" stroke="midnightblue" d="M798,-292.403C798,-283.938 798,-270.728 798,-259.82"/>
<polygon fill="midnightblue" stroke="midnightblue" points="801.5,-259.581 798,-249.581 794.5,-259.581 801.5,-259.581"/>
</g>
<!-- Node28&#45;&gt;Node3 -->
<g id="edge35" class="edge"><title>Node28&#45;&gt;Node3</title>
<path fill="none" stroke="midnightblue" d="M548.447,-112.444C507.189,-103.043 440.856,-87.9291 396.134,-77.7393"/>
<polygon fill="midnightblue" stroke="midnightblue" points="396.905,-74.3255 386.378,-75.5164 395.35,-81.1506 396.905,-74.3255"/>
</g>
<!-- Node28&#45;&gt;Node9 -->
<g id="edge37" class="edge"><title>Node28&#45;&gt;Node9</title>
<path fill="none" stroke="midnightblue" d="M578.588,-112.411C571.724,-103.844 561.994,-89.9788 558,-76 553.496,-60.2354 558.299,-41.9557 563.468,-28.8041"/>
<polygon fill="midnightblue" stroke="midnightblue" points="566.735,-30.068 567.522,-19.5023 560.318,-27.2715 566.735,-30.068"/>
</g>
<!-- Node28&#45;&gt;Node15 -->
<g id="edge36" class="edge"><title>Node28&#45;&gt;Node15</title>
<path fill="none" stroke="midnightblue" d="M591.449,-112.083C596.014,-104.613 602.668,-93.7244 608.293,-84.5199"/>
<polygon fill="midnightblue" stroke="midnightblue" points="611.424,-86.109 613.652,-75.7511 605.451,-82.4588 611.424,-86.109"/>
</g>
<!-- Node29&#45;&gt;Node3 -->
<g id="edge39" class="edge"><title>Node29&#45;&gt;Node3</title>
<path fill="none" stroke="midnightblue" d="M568.144,-230.411C552.525,-208.066 507.598,-147.407 457,-112 436.073,-97.3561 409.648,-86.2412 388.175,-78.7215"/>
<polygon fill="midnightblue" stroke="midnightblue" points="389.289,-75.4036 378.695,-75.5197 387.049,-82.0356 389.289,-75.4036"/>
</g>
</g>
</svg>
