<?xml version="1.0" encoding="UTF-8" standalone="no"?>
<!DOCTYPE svg PUBLIC "-//W3C//DTD SVG 1.1//EN"
 "http://www.w3.org/Graphics/SVG/1.1/DTD/svg11.dtd">
<!-- Generated by graphviz version 2.36.0 (20140111.2315)
 -->
<!-- Title: vcs_VolPhase.h Pages: 1 -->
<svg width="498pt" height="320pt"
 viewBox="0.00 0.00 498.00 320.00" xmlns="http://www.w3.org/2000/svg" xmlns:xlink="http://www.w3.org/1999/xlink">
<g id="graph0" class="graph" transform="scale(1 1) rotate(0) translate(4 316)">
<title>vcs_VolPhase.h</title>
<polygon fill="white" stroke="none" points="-4,4 -4,-316 494,-316 494,4 -4,4"/>
<!-- Node1 -->
<g id="node1" class="node"><title>Node1</title>
<polygon fill="#bfbfbf" stroke="black" points="276,-292.5 276,-311.5 360,-311.5 360,-292.5 276,-292.5"/>
<text text-anchor="middle" x="318" y="-299.5" font-family="FreeSans" font-size="10.00">vcs_VolPhase.h</text>
</g>
<!-- Node2 -->
<g id="node2" class="node"><title>Node2</title>
<g id="a_node2"><a xlink:href="vcs__SpeciesProperties_8h.html" target="_top" xlink:title="cantera/equil/vcs_Species\lProperties.h">
<polygon fill="white" stroke="black" points="172.5,-225 172.5,-255 301.5,-255 301.5,-225 172.5,-225"/>
<text text-anchor="start" x="180.5" y="-243" font-family="FreeSans" font-size="10.00">cantera/equil/vcs_Species</text>
<text text-anchor="middle" x="237" y="-232" font-family="FreeSans" font-size="10.00">Properties.h</text>
</a>
</g>
</g>
<!-- Node1&#45;&gt;Node2 -->
<g id="edge1" class="edge"><title>Node1&#45;&gt;Node2</title>
<path fill="none" stroke="midnightblue" d="M306.395,-292.403C295.424,-284.277 278.552,-271.779 264.192,-261.142"/>
<polygon fill="midnightblue" stroke="midnightblue" points="266.209,-258.281 256.09,-255.141 262.042,-263.906 266.209,-258.281"/>
</g>
<!-- Node12 -->
<g id="node12" class="node"><title>Node12</title>
<g id="a_node12"><a xlink:href="Array_8h.html" target="_top" xlink:title="Header file for class Cantera::Array2D. ">
<polygon fill="white" stroke="black" points="326.5,-230.5 326.5,-249.5 431.5,-249.5 431.5,-230.5 326.5,-230.5"/>
<text text-anchor="middle" x="379" y="-237.5" font-family="FreeSans" font-size="10.00">cantera/base/Array.h</text>
</a>
</g>
</g>
<!-- Node1&#45;&gt;Node12 -->
<g id="edge11" class="edge"><title>Node1&#45;&gt;Node12</title>
<path fill="none" stroke="midnightblue" d="M326.74,-292.403C336.162,-283.136 351.364,-268.183 362.949,-256.788"/>
<polygon fill="midnightblue" stroke="midnightblue" points="365.601,-259.088 370.276,-249.581 360.693,-254.098 365.601,-259.088"/>
</g>
<!-- Node3 -->
<g id="node3" class="node"><title>Node3</title>
<g id="a_node3"><a xlink:href="ct__defs_8h.html" target="_top" xlink:title="This file contains definitions of terms that are used in internal routines and are unlikely to need m...">
<polygon fill="white" stroke="black" points="185,-56.5 185,-75.5 299,-75.5 299,-56.5 185,-56.5"/>
<text text-anchor="middle" x="242" y="-63.5" font-family="FreeSans" font-size="10.00">cantera/base/ct_defs.h</text>
</a>
</g>
</g>
<!-- Node2&#45;&gt;Node3 -->
<g id="edge2" class="edge"><title>Node2&#45;&gt;Node3</title>
<path fill="none" stroke="midnightblue" d="M237.409,-224.925C238.306,-194.073 240.445,-120.484 241.455,-85.7549"/>
<polygon fill="midnightblue" stroke="midnightblue" points="244.958,-85.6822 241.75,-75.5847 237.961,-85.4787 244.958,-85.6822"/>
</g>
<!-- Node4 -->
<g id="node4" class="node"><title>Node4</title>
<g id="a_node4"><a xlink:href="config_8h_source.html" target="_top" xlink:title="config.h">
<polygon fill="white" stroke="black" points="0,-0.5 0,-19.5 50,-19.5 50,-0.5 0,-0.5"/>
<text text-anchor="middle" x="25" y="-7.5" font-family="FreeSans" font-size="10.00">config.h</text>
</a>
</g>
</g>
<!-- Node3&#45;&gt;Node4 -->
<g id="edge3" class="edge"><title>Node3&#45;&gt;Node4</title>
<path fill="none" stroke="midnightblue" d="M206.53,-56.4741C171.646,-48.0459 116.63,-34.6376 60.0667,-20.2413"/>
<polygon fill="midnightblue" stroke="midnightblue" points="60.793,-16.8146 50.2381,-17.7337 59.0624,-23.5973 60.793,-16.8146"/>
</g>
<!-- Node5 -->
<g id="node5" class="node"><title>Node5</title>
<polygon fill="white" stroke="#bfbfbf" points="68,-0.5 68,-19.5 112,-19.5 112,-0.5 68,-0.5"/>
<text text-anchor="middle" x="90" y="-7.5" font-family="FreeSans" font-size="10.00">cmath</text>
</g>
<!-- Node3&#45;&gt;Node5 -->
<g id="edge4" class="edge"><title>Node3&#45;&gt;Node5</title>
<path fill="none" stroke="midnightblue" d="M217.915,-56.4435C192.006,-47.239 150.677,-32.5565 122.04,-22.3826"/>
<polygon fill="midnightblue" stroke="midnightblue" points="123.08,-19.038 112.486,-18.9883 120.737,-25.6341 123.08,-19.038"/>
</g>
<!-- Node6 -->
<g id="node6" class="node"><title>Node6</title>
<polygon fill="white" stroke="#bfbfbf" points="130,-0.5 130,-19.5 174,-19.5 174,-0.5 130,-0.5"/>
<text text-anchor="middle" x="152" y="-7.5" font-family="FreeSans" font-size="10.00">cstdlib</text>
</g>
<!-- Node3&#45;&gt;Node6 -->
<g id="edge5" class="edge"><title>Node3&#45;&gt;Node6</title>
<path fill="none" stroke="midnightblue" d="M227.54,-56.324C213.5,-47.9002 191.952,-34.9709 175.457,-25.0741"/>
<polygon fill="midnightblue" stroke="midnightblue" points="176.8,-21.7983 166.424,-19.6545 173.198,-27.8007 176.8,-21.7983"/>
</g>
<!-- Node7 -->
<g id="node7" class="node"><title>Node7</title>
<polygon fill="white" stroke="#bfbfbf" points="192.5,-0.5 192.5,-19.5 235.5,-19.5 235.5,-0.5 192.5,-0.5"/>
<text text-anchor="middle" x="214" y="-7.5" font-family="FreeSans" font-size="10.00">vector</text>
</g>
<!-- Node3&#45;&gt;Node7 -->
<g id="edge6" class="edge"><title>Node3&#45;&gt;Node7</title>
<path fill="none" stroke="midnightblue" d="M237.376,-56.083C233.544,-48.6913 227.976,-37.9533 223.235,-28.8111"/>
<polygon fill="midnightblue" stroke="midnightblue" points="226.248,-27.0175 218.538,-19.7511 220.034,-30.2398 226.248,-27.0175"/>
</g>
<!-- Node8 -->
<g id="node8" class="node"><title>Node8</title>
<polygon fill="white" stroke="#bfbfbf" points="253.5,-0.5 253.5,-19.5 288.5,-19.5 288.5,-0.5 253.5,-0.5"/>
<text text-anchor="middle" x="271" y="-7.5" font-family="FreeSans" font-size="10.00">map</text>
</g>
<!-- Node3&#45;&gt;Node8 -->
<g id="edge7" class="edge"><title>Node3&#45;&gt;Node8</title>
<path fill="none" stroke="midnightblue" d="M246.789,-56.083C250.758,-48.6913 256.525,-37.9533 261.435,-28.8111"/>
<polygon fill="midnightblue" stroke="midnightblue" points="264.653,-30.217 266.3,-19.7511 258.486,-26.9051 264.653,-30.217"/>
</g>
<!-- Node9 -->
<g id="node9" class="node"><title>Node9</title>
<polygon fill="white" stroke="#bfbfbf" points="307,-0.5 307,-19.5 347,-19.5 347,-0.5 307,-0.5"/>
<text text-anchor="middle" x="327" y="-7.5" font-family="FreeSans" font-size="10.00">string</text>
</g>
<!-- Node3&#45;&gt;Node9 -->
<g id="edge8" class="edge"><title>Node3&#45;&gt;Node9</title>
<path fill="none" stroke="midnightblue" d="M255.657,-56.324C268.916,-47.9002 289.268,-34.9709 304.846,-25.0741"/>
<polygon fill="midnightblue" stroke="midnightblue" points="306.813,-27.9711 313.377,-19.6545 303.06,-22.0626 306.813,-27.9711"/>
</g>
<!-- Node10 -->
<g id="node10" class="node"><title>Node10</title>
<polygon fill="white" stroke="#bfbfbf" points="365,-0.5 365,-19.5 421,-19.5 421,-0.5 365,-0.5"/>
<text text-anchor="middle" x="393" y="-7.5" font-family="FreeSans" font-size="10.00">algorithm</text>
</g>
<!-- Node3&#45;&gt;Node10 -->
<g id="edge9" class="edge"><title>Node3&#45;&gt;Node10</title>
<path fill="none" stroke="midnightblue" d="M265.926,-56.4435C291.219,-47.3986 331.302,-33.064 359.68,-22.9158"/>
<polygon fill="midnightblue" stroke="midnightblue" points="360.948,-26.1794 369.186,-19.5164 358.591,-19.5882 360.948,-26.1794"/>
</g>
<!-- Node11 -->
<g id="node11" class="node"><title>Node11</title>
<polygon fill="white" stroke="#bfbfbf" points="439.5,-0.5 439.5,-19.5 490.5,-19.5 490.5,-0.5 439.5,-0.5"/>
<text text-anchor="middle" x="465" y="-7.5" font-family="FreeSans" font-size="10.00">memory</text>
</g>
<!-- Node3&#45;&gt;Node11 -->
<g id="edge10" class="edge"><title>Node3&#45;&gt;Node11</title>
<path fill="none" stroke="midnightblue" d="M277.872,-56.467C315.533,-47.4851 376.463,-32.8882 429,-20 429.211,-19.9482 429.423,-19.8962 429.636,-19.844"/>
<polygon fill="midnightblue" stroke="midnightblue" points="430.573,-23.2177 439.441,-17.4194 428.893,-16.4223 430.573,-23.2177"/>
</g>
<!-- Node13 -->
<g id="node13" class="node"><title>Node13</title>
<g id="a_node13"><a xlink:href="utilities_8h.html" target="_top" xlink:title="Various templated functions that carry out common vector operations (see Templated Utility Functions)...">
<polygon fill="white" stroke="black" points="287,-168.5 287,-187.5 341,-187.5 341,-168.5 287,-168.5"/>
<text text-anchor="middle" x="314" y="-175.5" font-family="FreeSans" font-size="10.00">utilities.h</text>
</a>
</g>
</g>
<!-- Node12&#45;&gt;Node13 -->
<g id="edge12" class="edge"><title>Node12&#45;&gt;Node13</title>
<path fill="none" stroke="midnightblue" d="M369.687,-230.403C359.551,-221.047 343.136,-205.895 330.748,-194.46"/>
<polygon fill="midnightblue" stroke="midnightblue" points="333.018,-191.792 323.296,-187.581 328.27,-196.935 333.018,-191.792"/>
</g>
<!-- Node18 -->
<g id="node18" class="node"><title>Node18</title>
<polygon fill="white" stroke="#bfbfbf" points="359.5,-168.5 359.5,-187.5 412.5,-187.5 412.5,-168.5 359.5,-168.5"/>
<text text-anchor="middle" x="386" y="-175.5" font-family="FreeSans" font-size="10.00">iostream</text>
</g>
<!-- Node12&#45;&gt;Node18 -->
<g id="edge19" class="edge"><title>Node12&#45;&gt;Node18</title>
<path fill="none" stroke="midnightblue" d="M380.003,-230.403C380.991,-221.938 382.532,-208.728 383.804,-197.82"/>
<polygon fill="midnightblue" stroke="midnightblue" points="387.316,-197.919 384.999,-187.581 380.364,-197.108 387.316,-197.919"/>
</g>
<!-- Node19 -->
<g id="node19" class="node"><title>Node19</title>
<polygon fill="white" stroke="#bfbfbf" points="430.5,-168.5 430.5,-187.5 475.5,-187.5 475.5,-168.5 430.5,-168.5"/>
<text text-anchor="middle" x="453" y="-175.5" font-family="FreeSans" font-size="10.00">cstring</text>
</g>
<!-- Node12&#45;&gt;Node19 -->
<g id="edge20" class="edge"><title>Node12&#45;&gt;Node19</title>
<path fill="none" stroke="midnightblue" d="M389.602,-230.403C401.252,-220.958 420.186,-205.606 434.335,-194.134"/>
<polygon fill="midnightblue" stroke="midnightblue" points="436.854,-196.597 442.417,-187.581 432.445,-191.16 436.854,-196.597"/>
</g>
<!-- Node13&#45;&gt;Node3 -->
<g id="edge13" class="edge"><title>Node13&#45;&gt;Node3</title>
<path fill="none" stroke="midnightblue" d="M306.909,-168.261C299.799,-159.355 288.691,-145.035 280,-132 269.599,-116.4 258.924,-97.8751 251.547,-84.6008"/>
<polygon fill="midnightblue" stroke="midnightblue" points="254.49,-82.6885 246.608,-75.6086 248.354,-86.0585 254.49,-82.6885"/>
</g>
<!-- Node14 -->
<g id="node14" class="node"><title>Node14</title>
<g id="a_node14"><a xlink:href="global_8h.html" target="_top" xlink:title="This file contains definitions for utility functions and text for modules, inputfiles, logs, textlogs, (see Input File Handling, Diagnostic Output, and Writing messages to the screen). ">
<polygon fill="white" stroke="black" points="289,-112.5 289,-131.5 339,-131.5 339,-112.5 289,-112.5"/>
<text text-anchor="middle" x="314" y="-119.5" font-family="FreeSans" font-size="10.00">global.h</text>
</a>
</g>
</g>
<!-- Node13&#45;&gt;Node14 -->
<g id="edge14" class="edge"><title>Node13&#45;&gt;Node14</title>
<path fill="none" stroke="midnightblue" d="M314,-168.083C314,-161.006 314,-150.861 314,-141.986"/>
<polygon fill="midnightblue" stroke="midnightblue" points="317.5,-141.751 314,-131.751 310.5,-141.751 317.5,-141.751"/>
</g>
<!-- Node16 -->
<g id="node16" class="node"><title>Node16</title>
<polygon fill="white" stroke="#bfbfbf" points="357,-112.5 357,-131.5 415,-131.5 415,-112.5 357,-112.5"/>
<text text-anchor="middle" x="386" y="-119.5" font-family="FreeSans" font-size="10.00">stdexcept</text>
</g>
<!-- Node13&#45;&gt;Node16 -->
<g id="edge17" class="edge"><title>Node13&#45;&gt;Node16</title>
<path fill="none" stroke="midnightblue" d="M325.568,-168.324C336.42,-160.185 352.881,-147.839 365.883,-138.087"/>
<polygon fill="midnightblue" stroke="midnightblue" points="368.321,-140.634 374.221,-131.834 364.121,-135.034 368.321,-140.634"/>
</g>
<!-- Node17 -->
<g id="node17" class="node"><title>Node17</title>
<polygon fill="white" stroke="#bfbfbf" points="433.5,-112.5 433.5,-131.5 484.5,-131.5 484.5,-112.5 433.5,-112.5"/>
<text text-anchor="middle" x="459" y="-119.5" font-family="FreeSans" font-size="10.00">numeric</text>
</g>
<!-- Node13&#45;&gt;Node17 -->
<g id="edge18" class="edge"><title>Node13&#45;&gt;Node17</title>
<path fill="none" stroke="midnightblue" d="M336.976,-168.444C361.157,-159.438 399.418,-145.189 426.646,-135.049"/>
<polygon fill="midnightblue" stroke="midnightblue" points="427.982,-138.286 436.132,-131.516 425.539,-131.727 427.982,-138.286"/>
</g>
<!-- Node14&#45;&gt;Node3 -->
<g id="edge15" class="edge"><title>Node14&#45;&gt;Node3</title>
<path fill="none" stroke="midnightblue" d="M302.432,-112.324C291.58,-104.185 275.119,-91.8395 262.117,-82.0874"/>
<polygon fill="midnightblue" stroke="midnightblue" points="263.879,-79.0339 253.779,-75.8339 259.679,-84.6339 263.879,-79.0339"/>
</g>
<!-- Node15 -->
<g id="node15" class="node"><title>Node15</title>
<polygon fill="white" stroke="#bfbfbf" points="317.5,-56.5 317.5,-75.5 420.5,-75.5 420.5,-56.5 317.5,-56.5"/>
<text text-anchor="middle" x="369" y="-63.5" font-family="FreeSans" font-size="10.00">cantera/ext/format.h</text>
</g>
<!-- Node14&#45;&gt;Node15 -->
<g id="edge16" class="edge"><title>Node14&#45;&gt;Node15</title>
<path fill="none" stroke="midnightblue" d="M323.082,-112.083C331.171,-104.141 343.195,-92.3354 352.91,-82.7973"/>
<polygon fill="midnightblue" stroke="midnightblue" points="355.403,-85.2545 360.087,-75.7511 350.499,-80.2595 355.403,-85.2545"/>
</g>
</g>
</svg>
