<?xml version="1.0" encoding="UTF-8" standalone="no"?>
<!DOCTYPE svg PUBLIC "-//W3C//DTD SVG 1.1//EN"
 "http://www.w3.org/Graphics/SVG/1.1/DTD/svg11.dtd">
<!-- Generated by graphviz version 2.38.0 (20140413.2041)
 -->
<!-- Title: vcs_VolPhase.h Pages: 1 -->
<svg width="1663pt" height="84pt"
 viewBox="0.00 0.00 1662.50 84.00" xmlns="http://www.w3.org/2000/svg" xmlns:xlink="http://www.w3.org/1999/xlink">
<g id="graph0" class="graph" transform="scale(1 1) rotate(0) translate(4 80)">
<title>vcs_VolPhase.h</title>
<polygon fill="white" stroke="none" points="-4,4 -4,-80 1658.5,-80 1658.5,4 -4,4"/>
<!-- Node1 -->
<g id="node1" class="node"><title>Node1</title>
<polygon fill="#bfbfbf" stroke="black" points="811.5,-56.5 811.5,-75.5 899.5,-75.5 899.5,-56.5 811.5,-56.5"/>
<text text-anchor="middle" x="855.5" y="-63.5" font-family="Helvetica,sans-Serif" font-size="10.00">vcs_VolPhase.h</text>
</g>
<!-- Node2 -->
<g id="node2" class="node"><title>Node2</title>
<g id="a_node2"><a xlink:href="vcs__elem__rearrange_8cpp.html" target="_top" xlink:title="Contains implementations for rearranging the element columns, and it contains the algorithm for choos...">
<polygon fill="white" stroke="black" points="0,-0.5 0,-19.5 123,-19.5 123,-0.5 0,-0.5"/>
<text text-anchor="middle" x="61.5" y="-7.5" font-family="Helvetica,sans-Serif" font-size="10.00">vcs_elem_rearrange.cpp</text>
</a>
</g>
</g>
<!-- Node1&#45;&gt;Node2 -->
<g id="edge1" class="edge"><title>Node1&#45;&gt;Node2</title>
<path fill="none" stroke="midnightblue" d="M801.342,-62.8141C680.921,-57.694 381.905,-43.5447 132.5,-20 129.407,-19.7081 126.242,-19.3873 123.047,-19.0462"/>
<polygon fill="midnightblue" stroke="midnightblue" points="801.272,-66.3141 811.41,-63.2387 801.567,-59.3203 801.272,-66.3141"/>
</g>
<!-- Node3 -->
<g id="node3" class="node"><title>Node3</title>
<g id="a_node3"><a xlink:href="vcs__Gibbs_8cpp.html" target="_top" xlink:title="Functions which calculate the extrinsic Gibbs Free energies. ">
<polygon fill="white" stroke="black" points="141.5,-0.5 141.5,-19.5 223.5,-19.5 223.5,-0.5 141.5,-0.5"/>
<text text-anchor="middle" x="182.5" y="-7.5" font-family="Helvetica,sans-Serif" font-size="10.00">vcs_Gibbs.cpp</text>
</a>
</g>
</g>
<!-- Node1&#45;&gt;Node3 -->
<g id="edge2" class="edge"><title>Node1&#45;&gt;Node3</title>
<path fill="none" stroke="midnightblue" d="M801.104,-63.0115C692.61,-58.6175 441.745,-46.3139 232.5,-20 229.612,-19.6368 226.638,-19.2177 223.648,-18.7632"/>
<polygon fill="midnightblue" stroke="midnightblue" points="801.021,-66.5109 811.153,-63.4122 801.3,-59.5164 801.021,-66.5109"/>
</g>
<!-- Node4 -->
<g id="node4" class="node"><title>Node4</title>
<g id="a_node4"><a xlink:href="vcs__inest_8cpp.html" target="_top" xlink:title="Implementation methods for obtaining a good initial guess. ">
<polygon fill="white" stroke="black" points="242,-0.5 242,-19.5 319,-19.5 319,-0.5 242,-0.5"/>
<text text-anchor="middle" x="280.5" y="-7.5" font-family="Helvetica,sans-Serif" font-size="10.00">vcs_inest.cpp</text>
</a>
</g>
</g>
<!-- Node1&#45;&gt;Node4 -->
<g id="edge3" class="edge"><title>Node1&#45;&gt;Node4</title>
<path fill="none" stroke="midnightblue" d="M801.126,-62.2389C705.164,-56.9492 499.626,-43.7493 327.5,-20 324.784,-19.6253 321.987,-19.1976 319.176,-18.7369"/>
<polygon fill="midnightblue" stroke="midnightblue" points="800.997,-65.737 811.172,-62.7858 801.378,-58.7474 800.997,-65.737"/>
</g>
<!-- Node5 -->
<g id="node5" class="node"><title>Node5</title>
<g id="a_node5"><a xlink:href="vcs__MultiPhaseEquil_8cpp.html" target="_top" xlink:title="Driver routine for the VCSnonideal equilibrium solver package. ">
<polygon fill="white" stroke="black" points="337,-0.5 337,-19.5 464,-19.5 464,-0.5 337,-0.5"/>
<text text-anchor="middle" x="400.5" y="-7.5" font-family="Helvetica,sans-Serif" font-size="10.00">vcs_MultiPhaseEquil.cpp</text>
</a>
</g>
</g>
<!-- Node1&#45;&gt;Node5 -->
<g id="edge4" class="edge"><title>Node1&#45;&gt;Node5</title>
<path fill="none" stroke="midnightblue" d="M801.354,-58.7149C727.312,-50.099 590.325,-34.0825 473.5,-20 470.457,-19.6332 467.344,-19.2561 464.199,-18.8738"/>
<polygon fill="midnightblue" stroke="midnightblue" points="801.037,-62.2016 811.375,-59.8805 801.846,-55.2485 801.037,-62.2016"/>
</g>
<!-- Node6 -->
<g id="node6" class="node"><title>Node6</title>
<g id="a_node6"><a xlink:href="vcs__nondim_8cpp.html" target="_top" xlink:title="Nondimensionalization routines within VCSnonideal. ">
<polygon fill="white" stroke="black" points="482.5,-0.5 482.5,-19.5 570.5,-19.5 570.5,-0.5 482.5,-0.5"/>
<text text-anchor="middle" x="526.5" y="-7.5" font-family="Helvetica,sans-Serif" font-size="10.00">vcs_nondim.cpp</text>
</a>
</g>
</g>
<!-- Node1&#45;&gt;Node6 -->
<g id="edge5" class="edge"><title>Node1&#45;&gt;Node6</title>
<path fill="none" stroke="midnightblue" d="M801.03,-56.2275C745.346,-47.2341 656.369,-32.793 579.5,-20 576.646,-19.525 573.706,-19.0331 570.743,-18.5353"/>
<polygon fill="midnightblue" stroke="midnightblue" points="800.599,-59.7032 811.029,-57.8417 801.715,-52.7927 800.599,-59.7032"/>
</g>
<!-- Node7 -->
<g id="node7" class="node"><title>Node7</title>
<g id="a_node7"><a xlink:href="vcs__phaseStability_8cpp.html" target="_top" xlink:title="Implementation class for functions associated with determining the stability of a phase (see Class VC...">
<polygon fill="white" stroke="black" points="588.5,-0.5 588.5,-19.5 706.5,-19.5 706.5,-0.5 588.5,-0.5"/>
<text text-anchor="middle" x="647.5" y="-7.5" font-family="Helvetica,sans-Serif" font-size="10.00">vcs_phaseStability.cpp</text>
</a>
</g>
</g>
<!-- Node1&#45;&gt;Node7 -->
<g id="edge6" class="edge"><title>Node1&#45;&gt;Node7</title>
<path fill="none" stroke="midnightblue" d="M812.722,-53.8941C773.442,-43.6966 716.071,-28.802 680.304,-19.5164"/>
<polygon fill="midnightblue" stroke="midnightblue" points="811.983,-57.3183 822.542,-56.4435 813.742,-50.5429 811.983,-57.3183"/>
</g>
<!-- Node8 -->
<g id="node8" class="node"><title>Node8</title>
<g id="a_node8"><a xlink:href="vcs__prep_8cpp.html" target="_top" xlink:title="This file contains some prepatory functions. ">
<polygon fill="white" stroke="black" points="725,-0.5 725,-19.5 800,-19.5 800,-0.5 725,-0.5"/>
<text text-anchor="middle" x="762.5" y="-7.5" font-family="Helvetica,sans-Serif" font-size="10.00">vcs_prep.cpp</text>
</a>
</g>
</g>
<!-- Node1&#45;&gt;Node8 -->
<g id="edge7" class="edge"><title>Node1&#45;&gt;Node8</title>
<path fill="none" stroke="midnightblue" d="M831.694,-51.1774C814.581,-41.2407 792.035,-28.1492 777.405,-19.6545"/>
<polygon fill="midnightblue" stroke="midnightblue" points="830.153,-54.3293 840.558,-56.324 833.668,-48.2758 830.153,-54.3293"/>
</g>
<!-- Node9 -->
<g id="node9" class="node"><title>Node9</title>
<g id="a_node9"><a xlink:href="vcs__prob_8cpp.html" target="_top" xlink:title="Implementation for the Interface class for the vcs thermo equilibrium solver package,. ">
<polygon fill="white" stroke="black" points="818,-0.5 818,-19.5 893,-19.5 893,-0.5 818,-0.5"/>
<text text-anchor="middle" x="855.5" y="-7.5" font-family="Helvetica,sans-Serif" font-size="10.00">vcs_prob.cpp</text>
</a>
</g>
</g>
<!-- Node1&#45;&gt;Node9 -->
<g id="edge8" class="edge"><title>Node1&#45;&gt;Node9</title>
<path fill="none" stroke="midnightblue" d="M855.5,-45.8045C855.5,-36.9102 855.5,-26.7798 855.5,-19.7511"/>
<polygon fill="midnightblue" stroke="midnightblue" points="852,-46.083 855.5,-56.083 859,-46.083 852,-46.083"/>
</g>
<!-- Node10 -->
<g id="node10" class="node"><title>Node10</title>
<g id="a_node10"><a xlink:href="vcs__report_8cpp.html" target="_top" xlink:title="vcs_report.cpp">
<polygon fill="white" stroke="black" points="911,-0.5 911,-19.5 992,-19.5 992,-0.5 911,-0.5"/>
<text text-anchor="middle" x="951.5" y="-7.5" font-family="Helvetica,sans-Serif" font-size="10.00">vcs_report.cpp</text>
</a>
</g>
</g>
<!-- Node1&#45;&gt;Node10 -->
<g id="edge9" class="edge"><title>Node1&#45;&gt;Node10</title>
<path fill="none" stroke="midnightblue" d="M880.074,-51.1774C897.739,-41.2407 921.013,-28.1492 936.114,-19.6545"/>
<polygon fill="midnightblue" stroke="midnightblue" points="877.924,-48.3708 870.924,-56.324 881.356,-54.4718 877.924,-48.3708"/>
</g>
<!-- Node11 -->
<g id="node11" class="node"><title>Node11</title>
<g id="a_node11"><a xlink:href="vcs__rxnadj_8cpp.html" target="_top" xlink:title="Routines for carrying out various adjustments to the reaction steps. ">
<polygon fill="white" stroke="black" points="1010,-0.5 1010,-19.5 1093,-19.5 1093,-0.5 1010,-0.5"/>
<text text-anchor="middle" x="1051.5" y="-7.5" font-family="Helvetica,sans-Serif" font-size="10.00">vcs_rxnadj.cpp</text>
</a>
</g>
</g>
<!-- Node1&#45;&gt;Node11 -->
<g id="edge10" class="edge"><title>Node1&#45;&gt;Node11</title>
<path fill="none" stroke="midnightblue" d="M896.52,-53.6986C933.511,-43.507 987.1,-28.7429 1020.59,-19.5164"/>
<polygon fill="midnightblue" stroke="midnightblue" points="895.268,-50.4131 886.557,-56.4435 897.127,-57.1616 895.268,-50.4131"/>
</g>
<!-- Node12 -->
<g id="node12" class="node"><title>Node12</title>
<g id="a_node12"><a xlink:href="vcs__solve_8cpp.html" target="_top" xlink:title="vcs_solve.cpp">
<polygon fill="white" stroke="black" points="1111.5,-0.5 1111.5,-19.5 1191.5,-19.5 1191.5,-0.5 1111.5,-0.5"/>
<text text-anchor="middle" x="1151.5" y="-7.5" font-family="Helvetica,sans-Serif" font-size="10.00">vcs_solve.cpp</text>
</a>
</g>
</g>
<!-- Node1&#45;&gt;Node12 -->
<g id="edge11" class="edge"><title>Node1&#45;&gt;Node12</title>
<path fill="none" stroke="midnightblue" d="M909.632,-55.1611C959.677,-46.0594 1036.11,-32.1441 1102.5,-20 1105.39,-19.4708 1108.38,-18.9235 1111.39,-18.3721"/>
<polygon fill="midnightblue" stroke="midnightblue" points="908.888,-51.7388 899.676,-56.9715 910.141,-58.6258 908.888,-51.7388"/>
</g>
<!-- Node13 -->
<g id="node13" class="node"><title>Node13</title>
<g id="a_node13"><a xlink:href="vcs__solve__TP_8cpp.html" target="_top" xlink:title="Implementation file that contains the main algorithm for finding an equilibrium. ">
<polygon fill="white" stroke="black" points="1209.5,-0.5 1209.5,-19.5 1307.5,-19.5 1307.5,-0.5 1209.5,-0.5"/>
<text text-anchor="middle" x="1258.5" y="-7.5" font-family="Helvetica,sans-Serif" font-size="10.00">vcs_solve_TP.cpp</text>
</a>
</g>
</g>
<!-- Node1&#45;&gt;Node13 -->
<g id="edge12" class="edge"><title>Node1&#45;&gt;Node13</title>
<path fill="none" stroke="midnightblue" d="M909.71,-58.3417C977.705,-49.8952 1097.84,-34.6584 1200.5,-20 1203.43,-19.5823 1206.43,-19.1437 1209.46,-18.6944"/>
<polygon fill="midnightblue" stroke="midnightblue" points="909.153,-54.8838 899.66,-59.5878 910.014,-61.8306 909.153,-54.8838"/>
</g>
<!-- Node14 -->
<g id="node14" class="node"><title>Node14</title>
<g id="a_node14"><a xlink:href="vcs__species__thermo_8cpp.html" target="_top" xlink:title="Implementation for the VCS_SPECIES_THERMO object. ">
<polygon fill="white" stroke="black" points="1326,-0.5 1326,-19.5 1451,-19.5 1451,-0.5 1326,-0.5"/>
<text text-anchor="middle" x="1388.5" y="-7.5" font-family="Helvetica,sans-Serif" font-size="10.00">vcs_species_thermo.cpp</text>
</a>
</g>
</g>
<!-- Node1&#45;&gt;Node14 -->
<g id="edge13" class="edge"><title>Node1&#45;&gt;Node14</title>
<path fill="none" stroke="midnightblue" d="M909.799,-60.1792C996.045,-52.414 1169.62,-36.3457 1316.5,-20 1319.5,-19.6656 1322.58,-19.3148 1325.68,-18.9536"/>
<polygon fill="midnightblue" stroke="midnightblue" points="909.368,-56.7037 899.721,-61.0845 909.995,-63.6756 909.368,-56.7037"/>
</g>
<!-- Node15 -->
<g id="node15" class="node"><title>Node15</title>
<g id="a_node15"><a xlink:href="vcs__TP_8cpp.html" target="_top" xlink:title="vcs_TP.cpp">
<polygon fill="white" stroke="black" points="1469,-0.5 1469,-19.5 1538,-19.5 1538,-0.5 1469,-0.5"/>
<text text-anchor="middle" x="1503.5" y="-7.5" font-family="Helvetica,sans-Serif" font-size="10.00">vcs_TP.cpp</text>
</a>
</g>
</g>
<!-- Node1&#45;&gt;Node15 -->
<g id="edge14" class="edge"><title>Node1&#45;&gt;Node15</title>
<path fill="none" stroke="midnightblue" d="M909.9,-63.3618C1016.18,-59.6302 1258.64,-48.5047 1460.5,-20 1463.22,-19.6161 1466.02,-19.1622 1468.84,-18.6655"/>
<polygon fill="midnightblue" stroke="midnightblue" points="909.616,-59.8694 899.742,-63.7104 909.856,-66.8653 909.616,-59.8694"/>
</g>
<!-- Node16 -->
<g id="node16" class="node"><title>Node16</title>
<g id="a_node16"><a xlink:href="vcs__VolPhase_8cpp.html" target="_top" xlink:title="vcs_VolPhase.cpp">
<polygon fill="white" stroke="black" points="1556.5,-0.5 1556.5,-19.5 1654.5,-19.5 1654.5,-0.5 1556.5,-0.5"/>
<text text-anchor="middle" x="1605.5" y="-7.5" font-family="Helvetica,sans-Serif" font-size="10.00">vcs_VolPhase.cpp</text>
</a>
</g>
</g>
<!-- Node1&#45;&gt;Node16 -->
<g id="edge15" class="edge"><title>Node1&#45;&gt;Node16</title>
<path fill="none" stroke="midnightblue" d="M909.867,-63.1117C1026.8,-58.6888 1310.81,-46.0074 1547.5,-20 1550.44,-19.6772 1553.45,-19.3121 1556.49,-18.9183"/>
<polygon fill="midnightblue" stroke="midnightblue" points="909.604,-59.619 899.741,-63.4898 909.865,-66.6141 909.604,-59.619"/>
</g>
</g>
</svg>
