<?xml version="1.0" encoding="UTF-8" standalone="no"?>
<!DOCTYPE svg PUBLIC "-//W3C//DTD SVG 1.1//EN"
 "http://www.w3.org/Graphics/SVG/1.1/DTD/svg11.dtd">
<!-- Generated by graphviz version 2.38.0 (20140413.2041)
 -->
<!-- Title: vcs_prob.cpp Pages: 1 -->
<svg width="903pt" height="386pt"
 viewBox="0.00 0.00 903.00 386.00" xmlns="http://www.w3.org/2000/svg" xmlns:xlink="http://www.w3.org/1999/xlink">
<g id="graph0" class="graph" transform="scale(1 1) rotate(0) translate(4 382)">
<title>vcs_prob.cpp</title>
<polygon fill="white" stroke="none" points="-4,4 -4,-382 899,-382 899,4 -4,4"/>
<!-- Node1 -->
<g id="node1" class="node"><title>Node1</title>
<polygon fill="#bfbfbf" stroke="black" points="526,-358.5 526,-377.5 601,-377.5 601,-358.5 526,-358.5"/>
<text text-anchor="middle" x="563.5" y="-365.5" font-family="Helvetica,sans-Serif" font-size="10.00">vcs_prob.cpp</text>
</g>
<!-- Node2 -->
<g id="node2" class="node"><title>Node2</title>
<g id="a_node2"><a xlink:href="vcs__prob_8h.html" target="_top" xlink:title="Header for the Interface class for the vcs thermo equilibrium solver package,. ">
<polygon fill="white" stroke="black" points="70,-302.5 70,-321.5 193,-321.5 193,-302.5 70,-302.5"/>
<text text-anchor="middle" x="131.5" y="-309.5" font-family="Helvetica,sans-Serif" font-size="10.00">cantera/equil/vcs_prob.h</text>
</a>
</g>
</g>
<!-- Node1&#45;&gt;Node2 -->
<g id="edge1" class="edge"><title>Node1&#45;&gt;Node2</title>
<path fill="none" stroke="midnightblue" d="M525.818,-362.329C461.879,-354.397 327.782,-337.738 203.174,-322.082"/>
<polygon fill="midnightblue" stroke="midnightblue" points="203.431,-318.587 193.073,-320.813 202.558,-325.533 203.431,-318.587"/>
</g>
<!-- Node12 -->
<g id="node12" class="node"><title>Node12</title>
<g id="a_node12"><a xlink:href="vcs__VolPhase_8h.html" target="_top" xlink:title="Header for the object representing each phase within vcs. ">
<polygon fill="white" stroke="black" points="211.5,-302.5 211.5,-321.5 357.5,-321.5 357.5,-302.5 211.5,-302.5"/>
<text text-anchor="middle" x="284.5" y="-309.5" font-family="Helvetica,sans-Serif" font-size="10.00">cantera/equil/vcs_VolPhase.h</text>
</a>
</g>
</g>
<!-- Node1&#45;&gt;Node12 -->
<g id="edge12" class="edge"><title>Node1&#45;&gt;Node12</title>
<path fill="none" stroke="midnightblue" d="M525.873,-359.717C477.704,-350.394 393.905,-334.175 338.818,-323.513"/>
<polygon fill="midnightblue" stroke="midnightblue" points="339.365,-320.054 328.882,-321.59 338.035,-326.927 339.365,-320.054"/>
</g>
<!-- Node14 -->
<g id="node14" class="node"><title>Node14</title>
<g id="a_node14"><a xlink:href="vcs__species__thermo_8h.html" target="_top" xlink:title="cantera/equil/vcs_species\l_thermo.h">
<polygon fill="white" stroke="black" points="483.5,-56.5 483.5,-86.5 613.5,-86.5 613.5,-56.5 483.5,-56.5"/>
<text text-anchor="start" x="491.5" y="-74.5" font-family="Helvetica,sans-Serif" font-size="10.00">cantera/equil/vcs_species</text>
<text text-anchor="middle" x="548.5" y="-63.5" font-family="Helvetica,sans-Serif" font-size="10.00">_thermo.h</text>
</a>
</g>
</g>
<!-- Node1&#45;&gt;Node14 -->
<g id="edge16" class="edge"><title>Node1&#45;&gt;Node14</title>
<path fill="none" stroke="midnightblue" d="M594.435,-358.369C614.235,-351.429 639.18,-339.844 655.5,-322 678.144,-297.241 682.5,-285.053 682.5,-251.5 682.5,-251.5 682.5,-251.5 682.5,-188 682.5,-141.141 634.905,-109.111 596.445,-90.8791"/>
<polygon fill="midnightblue" stroke="midnightblue" points="597.451,-87.4917 586.899,-86.5404 594.555,-93.8644 597.451,-87.4917"/>
</g>
<!-- Node15 -->
<g id="node15" class="node"><title>Node15</title>
<g id="a_node15"><a xlink:href="vcs__internal_8h.html" target="_top" xlink:title="Internal declarations for the VCSnonideal package. ">
<polygon fill="white" stroke="black" points="352.5,-241 352.5,-260 488.5,-260 488.5,-241 352.5,-241"/>
<text text-anchor="middle" x="420.5" y="-248" font-family="Helvetica,sans-Serif" font-size="10.00">cantera/equil/vcs_internal.h</text>
</a>
</g>
</g>
<!-- Node1&#45;&gt;Node15 -->
<g id="edge18" class="edge"><title>Node1&#45;&gt;Node15</title>
<path fill="none" stroke="midnightblue" d="M537.407,-358.432C517.553,-351.006 490.354,-338.8 470.5,-322 453.023,-307.211 438.617,-285.007 429.831,-269.481"/>
<polygon fill="midnightblue" stroke="midnightblue" points="432.74,-267.504 424.892,-260.387 426.589,-270.845 432.74,-267.504"/>
</g>
<!-- Node16 -->
<g id="node16" class="node"><title>Node16</title>
<g id="a_node16"><a xlink:href="vcs__defs_8h.html" target="_top" xlink:title="Defines and definitions within the vcs package. ">
<polygon fill="white" stroke="black" points="711,-302.5 711,-321.5 834,-321.5 834,-302.5 711,-302.5"/>
<text text-anchor="middle" x="772.5" y="-309.5" font-family="Helvetica,sans-Serif" font-size="10.00">cantera/equil/vcs_defs.h</text>
</a>
</g>
</g>
<!-- Node1&#45;&gt;Node16 -->
<g id="edge20" class="edge"><title>Node1&#45;&gt;Node16</title>
<path fill="none" stroke="midnightblue" d="M596.617,-358.444C632.618,-349.142 690.27,-334.246 729.686,-324.062"/>
<polygon fill="midnightblue" stroke="midnightblue" points="730.732,-327.407 739.538,-321.516 728.981,-320.629 730.732,-327.407"/>
</g>
<!-- Node17 -->
<g id="node17" class="node"><title>Node17</title>
<g id="a_node17"><a xlink:href="MolalityVPSSTP_8h.html" target="_top" xlink:title="Header for intermediate ThermoPhase object for phases which employ molality based activity coefficien...">
<polygon fill="white" stroke="black" points="480,-302.5 480,-321.5 647,-321.5 647,-302.5 480,-302.5"/>
<text text-anchor="middle" x="563.5" y="-309.5" font-family="Helvetica,sans-Serif" font-size="10.00">cantera/thermo/MolalityVPSSTP.h</text>
</a>
</g>
</g>
<!-- Node1&#45;&gt;Node17 -->
<g id="edge21" class="edge"><title>Node1&#45;&gt;Node17</title>
<path fill="none" stroke="midnightblue" d="M563.5,-358.083C563.5,-351.006 563.5,-340.861 563.5,-331.986"/>
<polygon fill="midnightblue" stroke="midnightblue" points="567,-331.751 563.5,-321.751 560,-331.751 567,-331.751"/>
</g>
<!-- Node25 -->
<g id="node25" class="node"><title>Node25</title>
<polygon fill="white" stroke="#bfbfbf" points="852,-302.5 852,-321.5 895,-321.5 895,-302.5 852,-302.5"/>
<text text-anchor="middle" x="873.5" y="-309.5" font-family="Helvetica,sans-Serif" font-size="10.00">cstdio</text>
</g>
<!-- Node1&#45;&gt;Node25 -->
<g id="edge33" class="edge"><title>Node1&#45;&gt;Node25</title>
<path fill="none" stroke="midnightblue" d="M601.395,-362.525C653.602,-356.008 750.703,-342.626 842.006,-322.105"/>
<polygon fill="midnightblue" stroke="midnightblue" points="842.99,-325.47 851.961,-319.833 841.433,-318.646 842.99,-325.47"/>
</g>
<!-- Node3 -->
<g id="node3" class="node"><title>Node3</title>
<g id="a_node3"><a xlink:href="Array_8h.html" target="_top" xlink:title="Header file for class Cantera::Array2D. ">
<polygon fill="white" stroke="black" points="78,-241 78,-260 185,-260 185,-241 78,-241"/>
<text text-anchor="middle" x="131.5" y="-248" font-family="Helvetica,sans-Serif" font-size="10.00">cantera/base/Array.h</text>
</a>
</g>
</g>
<!-- Node2&#45;&gt;Node3 -->
<g id="edge2" class="edge"><title>Node2&#45;&gt;Node3</title>
<path fill="none" stroke="midnightblue" d="M131.5,-302.475C131.5,-294.08 131.5,-280.981 131.5,-270.163"/>
<polygon fill="midnightblue" stroke="midnightblue" points="135,-270.009 131.5,-260.009 128,-270.009 135,-270.009"/>
</g>
<!-- Node4 -->
<g id="node4" class="node"><title>Node4</title>
<g id="a_node4"><a xlink:href="utilities_8h.html" target="_top" xlink:title="Various templated functions that carry out common vector operations (see Templated Utility Functions)...">
<polygon fill="white" stroke="black" points="30.5,-179.5 30.5,-198.5 86.5,-198.5 86.5,-179.5 30.5,-179.5"/>
<text text-anchor="middle" x="58.5" y="-186.5" font-family="Helvetica,sans-Serif" font-size="10.00">utilities.h</text>
</a>
</g>
</g>
<!-- Node3&#45;&gt;Node4 -->
<g id="edge3" class="edge"><title>Node3&#45;&gt;Node4</title>
<path fill="none" stroke="midnightblue" d="M121.041,-240.975C109.549,-231.608 90.8702,-216.384 76.9132,-205.008"/>
<polygon fill="midnightblue" stroke="midnightblue" points="78.9024,-202.114 68.9397,-198.509 74.4798,-207.54 78.9024,-202.114"/>
</g>
<!-- Node10 -->
<g id="node10" class="node"><title>Node10</title>
<polygon fill="white" stroke="#bfbfbf" points="104.5,-179.5 104.5,-198.5 158.5,-198.5 158.5,-179.5 104.5,-179.5"/>
<text text-anchor="middle" x="131.5" y="-186.5" font-family="Helvetica,sans-Serif" font-size="10.00">iostream</text>
</g>
<!-- Node3&#45;&gt;Node10 -->
<g id="edge10" class="edge"><title>Node3&#45;&gt;Node10</title>
<path fill="none" stroke="midnightblue" d="M131.5,-240.975C131.5,-232.58 131.5,-219.481 131.5,-208.663"/>
<polygon fill="midnightblue" stroke="midnightblue" points="135,-208.509 131.5,-198.509 128,-208.509 135,-208.509"/>
</g>
<!-- Node11 -->
<g id="node11" class="node"><title>Node11</title>
<polygon fill="white" stroke="#bfbfbf" points="176.5,-179.5 176.5,-198.5 222.5,-198.5 222.5,-179.5 176.5,-179.5"/>
<text text-anchor="middle" x="199.5" y="-186.5" font-family="Helvetica,sans-Serif" font-size="10.00">cstring</text>
</g>
<!-- Node3&#45;&gt;Node11 -->
<g id="edge11" class="edge"><title>Node3&#45;&gt;Node11</title>
<path fill="none" stroke="midnightblue" d="M141.243,-240.975C151.847,-231.697 169.019,-216.671 181.979,-205.331"/>
<polygon fill="midnightblue" stroke="midnightblue" points="184.554,-207.728 189.775,-198.509 179.945,-202.46 184.554,-207.728"/>
</g>
<!-- Node5 -->
<g id="node5" class="node"><title>Node5</title>
<g id="a_node5"><a xlink:href="ct__defs_8h.html" target="_top" xlink:title="This file contains definitions of terms that are used in internal routines and are unlikely to need m...">
<polygon fill="white" stroke="red" points="275,-62 275,-81 332,-81 332,-62 275,-62"/>
<text text-anchor="middle" x="303.5" y="-69" font-family="Helvetica,sans-Serif" font-size="10.00">ct_defs.h</text>
</a>
</g>
</g>
<!-- Node4&#45;&gt;Node5 -->
<g id="edge4" class="edge"><title>Node4&#45;&gt;Node5</title>
<path fill="none" stroke="midnightblue" d="M62.45,-179.348C69.3267,-165.285 84.86,-137.578 106.5,-123 154.821,-90.4481 222.7,-78.8789 264.847,-74.7671"/>
<polygon fill="midnightblue" stroke="midnightblue" points="265.326,-78.2386 274.98,-73.8742 264.711,-71.2656 265.326,-78.2386"/>
</g>
<!-- Node7 -->
<g id="node7" class="node"><title>Node7</title>
<g id="a_node7"><a xlink:href="global_8h.html" target="_top" xlink:title="This file contains definitions for utility functions and text for modules, inputfiles, logs, textlogs, (see Input File Handling, Diagnostic Output, and Writing messages to the screen). ">
<polygon fill="white" stroke="red" points="278.5,-123.5 278.5,-142.5 328.5,-142.5 328.5,-123.5 278.5,-123.5"/>
<text text-anchor="middle" x="303.5" y="-130.5" font-family="Helvetica,sans-Serif" font-size="10.00">global.h</text>
</a>
</g>
</g>
<!-- Node4&#45;&gt;Node7 -->
<g id="edge6" class="edge"><title>Node4&#45;&gt;Node7</title>
<path fill="none" stroke="midnightblue" d="M86.7641,-181.046C89.7116,-180.345 92.6651,-179.651 95.5,-179 156.247,-165.043 227.26,-149.939 268.627,-141.261"/>
<polygon fill="midnightblue" stroke="midnightblue" points="269.41,-144.672 278.481,-139.197 267.975,-137.821 269.41,-144.672"/>
</g>
<!-- Node8 -->
<g id="node8" class="node"><title>Node8</title>
<polygon fill="white" stroke="#bfbfbf" points="0,-123.5 0,-142.5 59,-142.5 59,-123.5 0,-123.5"/>
<text text-anchor="middle" x="29.5" y="-130.5" font-family="Helvetica,sans-Serif" font-size="10.00">stdexcept</text>
</g>
<!-- Node4&#45;&gt;Node8 -->
<g id="edge8" class="edge"><title>Node4&#45;&gt;Node8</title>
<path fill="none" stroke="midnightblue" d="M53.7112,-179.083C49.7416,-171.691 43.9749,-160.953 39.0652,-151.811"/>
<polygon fill="midnightblue" stroke="midnightblue" points="42.0145,-149.905 34.1997,-142.751 35.8475,-153.217 42.0145,-149.905"/>
</g>
<!-- Node9 -->
<g id="node9" class="node"><title>Node9</title>
<polygon fill="white" stroke="#bfbfbf" points="116,-123.5 116,-142.5 167,-142.5 167,-123.5 116,-123.5"/>
<text text-anchor="middle" x="141.5" y="-130.5" font-family="Helvetica,sans-Serif" font-size="10.00">numeric</text>
</g>
<!-- Node4&#45;&gt;Node9 -->
<g id="edge9" class="edge"><title>Node4&#45;&gt;Node9</title>
<path fill="none" stroke="midnightblue" d="M71.8354,-179.324C84.662,-170.979 104.285,-158.212 119.44,-148.352"/>
<polygon fill="midnightblue" stroke="midnightblue" points="121.724,-151.042 128.198,-142.655 117.907,-145.174 121.724,-151.042"/>
</g>
<!-- Node6 -->
<g id="node6" class="node"><title>Node6</title>
<polygon fill="white" stroke="#bfbfbf" points="403,-0.5 403,-19.5 448,-19.5 448,-0.5 403,-0.5"/>
<text text-anchor="middle" x="425.5" y="-7.5" font-family="Helvetica,sans-Serif" font-size="10.00">cstdlib</text>
</g>
<!-- Node5&#45;&gt;Node6 -->
<g id="edge5" class="edge"><title>Node5&#45;&gt;Node6</title>
<path fill="none" stroke="midnightblue" d="M320.98,-61.9751C341.363,-52.0338 375.275,-35.4947 398.925,-23.961"/>
<polygon fill="midnightblue" stroke="midnightblue" points="400.599,-27.0385 408.053,-19.5091 397.531,-20.7468 400.599,-27.0385"/>
</g>
<!-- Node7&#45;&gt;Node5 -->
<g id="edge7" class="edge"><title>Node7&#45;&gt;Node5</title>
<path fill="none" stroke="midnightblue" d="M303.5,-123.475C303.5,-115.08 303.5,-101.981 303.5,-91.1631"/>
<polygon fill="midnightblue" stroke="midnightblue" points="307,-91.0091 303.5,-81.0091 300,-91.0091 307,-91.0091"/>
</g>
<!-- Node12&#45;&gt;Node3 -->
<g id="edge15" class="edge"><title>Node12&#45;&gt;Node3</title>
<path fill="none" stroke="midnightblue" d="M262.579,-302.475C236.448,-292.313 192.588,-275.256 162.87,-263.7"/>
<polygon fill="midnightblue" stroke="midnightblue" points="163.969,-260.372 153.381,-260.009 161.432,-266.896 163.969,-260.372"/>
</g>
<!-- Node13 -->
<g id="node13" class="node"><title>Node13</title>
<g id="a_node13"><a xlink:href="vcs__SpeciesProperties_8h.html" target="_top" xlink:title="cantera/equil/vcs_Species\lProperties.h">
<polygon fill="white" stroke="black" points="203,-235.5 203,-265.5 334,-265.5 334,-235.5 203,-235.5"/>
<text text-anchor="start" x="211" y="-253.5" font-family="Helvetica,sans-Serif" font-size="10.00">cantera/equil/vcs_Species</text>
<text text-anchor="middle" x="268.5" y="-242.5" font-family="Helvetica,sans-Serif" font-size="10.00">Properties.h</text>
</a>
</g>
</g>
<!-- Node12&#45;&gt;Node13 -->
<g id="edge13" class="edge"><title>Node12&#45;&gt;Node13</title>
<path fill="none" stroke="midnightblue" d="M282.208,-302.475C280.304,-295.396 277.5,-284.97 274.924,-275.39"/>
<polygon fill="midnightblue" stroke="midnightblue" points="278.248,-274.271 272.271,-265.523 271.488,-276.089 278.248,-274.271"/>
</g>
<!-- Node13&#45;&gt;Node5 -->
<g id="edge14" class="edge"><title>Node13&#45;&gt;Node5</title>
<path fill="none" stroke="midnightblue" d="M266.032,-235.435C262.419,-211.647 257.354,-162.233 269.5,-123 273.337,-110.605 281.313,-98.4846 288.576,-89.2259"/>
<polygon fill="midnightblue" stroke="midnightblue" points="291.457,-91.2359 295.162,-81.3103 286.076,-86.7586 291.457,-91.2359"/>
</g>
<!-- Node14&#45;&gt;Node6 -->
<g id="edge17" class="edge"><title>Node14&#45;&gt;Node6</title>
<path fill="none" stroke="midnightblue" d="M519.351,-56.3993C499.082,-46.5945 472.259,-33.6194 452.481,-24.052"/>
<polygon fill="midnightblue" stroke="midnightblue" points="453.924,-20.8618 443.398,-19.6578 450.876,-27.1632 453.924,-20.8618"/>
</g>
<!-- Node15&#45;&gt;Node7 -->
<g id="edge19" class="edge"><title>Node15&#45;&gt;Node7</title>
<path fill="none" stroke="midnightblue" d="M411.706,-240.819C392.141,-221.504 344.766,-174.737 319.69,-149.983"/>
<polygon fill="midnightblue" stroke="midnightblue" points="321.971,-147.317 312.396,-142.782 317.054,-152.298 321.971,-147.317"/>
</g>
<!-- Node18 -->
<g id="node18" class="node"><title>Node18</title>
<g id="a_node18"><a xlink:href="VPStandardStateTP_8h.html" target="_top" xlink:title="Header file for a derived class of ThermoPhase that handles variable pressure standard state methods ...">
<polygon fill="white" stroke="black" points="507,-241 507,-260 620,-260 620,-241 507,-241"/>
<text text-anchor="middle" x="563.5" y="-248" font-family="Helvetica,sans-Serif" font-size="10.00">VPStandardStateTP.h</text>
</a>
</g>
</g>
<!-- Node17&#45;&gt;Node18 -->
<g id="edge22" class="edge"><title>Node17&#45;&gt;Node18</title>
<path fill="none" stroke="midnightblue" d="M563.5,-302.475C563.5,-294.08 563.5,-280.981 563.5,-270.163"/>
<polygon fill="midnightblue" stroke="midnightblue" points="567,-270.009 563.5,-260.009 560,-270.009 567,-270.009"/>
</g>
<!-- Node19 -->
<g id="node19" class="node"><title>Node19</title>
<g id="a_node19"><a xlink:href="ThermoPhase_8h.html" target="_top" xlink:title="Header file for class ThermoPhase, the base class for phases with thermodynamic properties, and the text for the Module thermoprops (see Thermodynamic Properties and class ThermoPhase). ">
<polygon fill="white" stroke="black" points="379.5,-179.5 379.5,-198.5 465.5,-198.5 465.5,-179.5 379.5,-179.5"/>
<text text-anchor="middle" x="422.5" y="-186.5" font-family="Helvetica,sans-Serif" font-size="10.00">ThermoPhase.h</text>
</a>
</g>
</g>
<!-- Node18&#45;&gt;Node19 -->
<g id="edge23" class="edge"><title>Node18&#45;&gt;Node19</title>
<path fill="none" stroke="midnightblue" d="M543.298,-240.975C519.426,-230.901 479.498,-214.053 452.127,-202.502"/>
<polygon fill="midnightblue" stroke="midnightblue" points="453.238,-199.172 442.664,-198.509 450.517,-205.622 453.238,-199.172"/>
</g>
<!-- Node22 -->
<g id="node22" class="node"><title>Node22</title>
<g id="a_node22"><a xlink:href="VPSSMgr_8h.html" target="_top" xlink:title="Declaration file for a virtual base class that manages the calculation of standard state properties f...">
<polygon fill="white" stroke="black" points="492.5,-179.5 492.5,-198.5 560.5,-198.5 560.5,-179.5 492.5,-179.5"/>
<text text-anchor="middle" x="526.5" y="-186.5" font-family="Helvetica,sans-Serif" font-size="10.00">VPSSMgr.h</text>
</a>
</g>
</g>
<!-- Node18&#45;&gt;Node22 -->
<g id="edge27" class="edge"><title>Node18&#45;&gt;Node22</title>
<path fill="none" stroke="midnightblue" d="M558.199,-240.975C552.759,-232.227 544.141,-218.369 537.264,-207.309"/>
<polygon fill="midnightblue" stroke="midnightblue" points="540.044,-205.153 531.791,-198.509 534.1,-208.849 540.044,-205.153"/>
</g>
<!-- Node24 -->
<g id="node24" class="node"><title>Node24</title>
<g id="a_node24"><a xlink:href="PDSS_8h.html" target="_top" xlink:title="Declarations for the virtual base class PDSS (pressure dependent standard state) which handles calcul...">
<polygon fill="white" stroke="black" points="579,-179.5 579,-198.5 632,-198.5 632,-179.5 579,-179.5"/>
<text text-anchor="middle" x="605.5" y="-186.5" font-family="Helvetica,sans-Serif" font-size="10.00">PDSS.h</text>
</a>
</g>
</g>
<!-- Node18&#45;&gt;Node24 -->
<g id="edge30" class="edge"><title>Node18&#45;&gt;Node24</title>
<path fill="none" stroke="midnightblue" d="M569.518,-240.975C575.755,-232.138 585.673,-218.089 593.518,-206.975"/>
<polygon fill="midnightblue" stroke="midnightblue" points="596.586,-208.697 599.494,-198.509 590.867,-204.66 596.586,-208.697"/>
</g>
<!-- Node19&#45;&gt;Node7 -->
<g id="edge26" class="edge"><title>Node19&#45;&gt;Node7</title>
<path fill="none" stroke="midnightblue" d="M403.644,-179.444C384.234,-170.636 353.77,-156.812 331.535,-146.722"/>
<polygon fill="midnightblue" stroke="midnightblue" points="332.82,-143.462 322.268,-142.516 329.928,-149.836 332.82,-143.462"/>
</g>
<!-- Node20 -->
<g id="node20" class="node"><title>Node20</title>
<g id="a_node20"><a xlink:href="Phase_8h.html" target="_top" xlink:title="Header file for class Phase. ">
<polygon fill="white" stroke="red" points="347,-123.5 347,-142.5 400,-142.5 400,-123.5 347,-123.5"/>
<text text-anchor="middle" x="373.5" y="-130.5" font-family="Helvetica,sans-Serif" font-size="10.00">Phase.h</text>
</a>
</g>
</g>
<!-- Node19&#45;&gt;Node20 -->
<g id="edge24" class="edge"><title>Node19&#45;&gt;Node20</title>
<path fill="none" stroke="midnightblue" d="M414.409,-179.083C407.345,-171.298 396.912,-159.801 388.351,-150.367"/>
<polygon fill="midnightblue" stroke="midnightblue" points="390.753,-147.805 381.441,-142.751 385.569,-152.509 390.753,-147.805"/>
</g>
<!-- Node21 -->
<g id="node21" class="node"><title>Node21</title>
<g id="a_node21"><a xlink:href="MultiSpeciesThermo_8h.html" target="_top" xlink:title="Header for a general species thermodynamic property manager for a phase (see MultiSpeciesThermo). ">
<polygon fill="white" stroke="red" points="418.5,-123.5 418.5,-142.5 532.5,-142.5 532.5,-123.5 418.5,-123.5"/>
<text text-anchor="middle" x="475.5" y="-130.5" font-family="Helvetica,sans-Serif" font-size="10.00">MultiSpeciesThermo.h</text>
</a>
</g>
</g>
<!-- Node19&#45;&gt;Node21 -->
<g id="edge25" class="edge"><title>Node19&#45;&gt;Node21</title>
<path fill="none" stroke="midnightblue" d="M431.252,-179.083C438.97,-171.22 450.405,-159.569 459.717,-150.081"/>
<polygon fill="midnightblue" stroke="midnightblue" points="462.404,-152.34 466.911,-142.751 457.408,-147.436 462.404,-152.34"/>
</g>
<!-- Node22&#45;&gt;Node7 -->
<g id="edge29" class="edge"><title>Node22&#45;&gt;Node7</title>
<path fill="none" stroke="midnightblue" d="M492.294,-180.127C456.386,-171.803 398.041,-158.108 338.657,-143.247"/>
<polygon fill="midnightblue" stroke="midnightblue" points="339.284,-139.796 328.733,-140.754 337.579,-146.585 339.284,-139.796"/>
</g>
<!-- Node23 -->
<g id="node23" class="node"><title>Node23</title>
<g id="a_node23"><a xlink:href="mix__defs_8h.html" target="_top" xlink:title="mix_defs.h">
<polygon fill="white" stroke="black" points="551,-123.5 551,-142.5 616,-142.5 616,-123.5 551,-123.5"/>
<text text-anchor="middle" x="583.5" y="-130.5" font-family="Helvetica,sans-Serif" font-size="10.00">mix_defs.h</text>
</a>
</g>
</g>
<!-- Node22&#45;&gt;Node23 -->
<g id="edge28" class="edge"><title>Node22&#45;&gt;Node23</title>
<path fill="none" stroke="midnightblue" d="M535.658,-179.324C544.001,-171.42 556.532,-159.548 566.677,-149.938"/>
<polygon fill="midnightblue" stroke="midnightblue" points="569.323,-152.252 574.175,-142.834 564.509,-147.171 569.323,-152.252"/>
</g>
<!-- Node24&#45;&gt;Node5 -->
<g id="edge31" class="edge"><title>Node24&#45;&gt;Node5</title>
<path fill="none" stroke="midnightblue" d="M612.499,-179.369C622.592,-165.828 638.558,-139.442 624.5,-123 606.343,-101.764 424.059,-83.1532 342.54,-75.8218"/>
<polygon fill="midnightblue" stroke="midnightblue" points="342.464,-72.3013 332.194,-74.9033 341.845,-79.2739 342.464,-72.3013"/>
</g>
<!-- Node24&#45;&gt;Node23 -->
<g id="edge32" class="edge"><title>Node24&#45;&gt;Node23</title>
<path fill="none" stroke="midnightblue" d="M601.867,-179.083C598.888,-171.77 594.574,-161.181 590.875,-152.103"/>
<polygon fill="midnightblue" stroke="midnightblue" points="594.08,-150.691 587.065,-142.751 587.597,-153.333 594.08,-150.691"/>
</g>
</g>
</svg>
