<?xml version="1.0" encoding="UTF-8" standalone="no"?>
<!DOCTYPE svg PUBLIC "-//W3C//DTD SVG 1.1//EN"
 "http://www.w3.org/Graphics/SVG/1.1/DTD/svg11.dtd">
<!-- Generated by graphviz version 2.26.3 (20100126.1600)
 -->
<!-- Title: vcs_prob.cpp Pages: 1 -->
<svg width="1174pt" height="576pt"
 viewBox="0.00 0.00 1174.00 576.00" xmlns="http://www.w3.org/2000/svg" xmlns:xlink="http://www.w3.org/1999/xlink">
<g id="graph1" class="graph" transform="scale(1 1) rotate(0) translate(4 572)">
<title>vcs_prob.cpp</title>
<polygon fill="white" stroke="white" points="-4,5 -4,-572 1171,-572 1171,5 -4,5"/>
<!-- Node1 -->
<g id="node1" class="node"><title>Node1</title>
<polygon fill="#bfbfbf" stroke="black" points="705.5,-547 705.5,-567 778.5,-567 778.5,-547 705.5,-547"/>
<text text-anchor="middle" x="742" y="-554" font-family="FreeSans" font-size="10.00">vcs_prob.cpp</text>
</g>
<!-- Node2 -->
<g id="node3" class="node"><title>Node2</title>
<a xlink:href="vcs__prob_8h.html" target="_top" xlink:title="Header for the Interface class for the vcs thermo equilibrium solver package,. ">
<polygon fill="white" stroke="black" points="159.5,-129 159.5,-149 280.5,-149 280.5,-129 159.5,-129"/>
<text text-anchor="middle" x="220" y="-136" font-family="FreeSans" font-size="10.00">cantera/equil/vcs_prob.h</text>
</a>
</g>
<!-- Node1&#45;&gt;Node2 -->
<g id="edge2" class="edge"><title>Node1&#45;&gt;Node2</title>
<path fill="none" stroke="midnightblue" d="M705.203,-554.621C600.089,-546.825 306,-517.63 306,-435 306,-435 306,-435 306,-255 306,-212.655 268.562,-175.69 243.089,-155.44"/>
<polygon fill="midnightblue" stroke="midnightblue" points="245.047,-152.531 234.98,-149.229 240.791,-158.089 245.047,-152.531"/>
</g>
<!-- Node8 -->
<g id="node16" class="node"><title>Node8</title>
<a xlink:href="vcs__VolPhase_8h.html" target="_top" xlink:title="Header for the object representing each phase within vcs. ">
<polygon fill="white" stroke="black" points="-0.5,-129 -0.5,-149 142.5,-149 142.5,-129 -0.5,-129"/>
<text text-anchor="middle" x="71" y="-136" font-family="FreeSans" font-size="10.00">cantera/equil/vcs_VolPhase.h</text>
</a>
</g>
<!-- Node1&#45;&gt;Node8 -->
<g id="edge16" class="edge"><title>Node1&#45;&gt;Node8</title>
<path fill="none" stroke="midnightblue" d="M705.492,-555.733C636.285,-552.638 481.679,-542.389 356,-510 269.686,-487.756 170,-524.134 170,-435 170,-435 170,-435 170,-255 170,-210.371 127.078,-174.222 97.7582,-154.734"/>
<polygon fill="midnightblue" stroke="midnightblue" points="99.4676,-151.673 89.1581,-149.23 95.6943,-157.569 99.4676,-151.673"/>
</g>
<!-- Node10 -->
<g id="node23" class="node"><title>Node10</title>
<a xlink:href="vcs__species__thermo_8h.html" target="_top" xlink:title="cantera/equil/vcs_species\l_thermo.h">
<polygon fill="white" stroke="black" points="1014.5,-419 1014.5,-451 1141.5,-451 1141.5,-419 1014.5,-419"/>
<text text-anchor="start" x="1022.5" y="-438" font-family="FreeSans" font-size="10.00">cantera/equil/vcs_species</text>
<text text-anchor="middle" x="1078" y="-426" font-family="FreeSans" font-size="10.00">_thermo.h</text>
</a>
</g>
<!-- Node1&#45;&gt;Node10 -->
<g id="edge26" class="edge"><title>Node1&#45;&gt;Node10</title>
<path fill="none" stroke="midnightblue" d="M778.554,-551.783C819.598,-545.17 887.694,-531.914 943,-510 961.143,-502.811 963.992,-497.568 981,-488 1000.09,-477.264 1021.43,-465.568 1039.23,-455.902"/>
<polygon fill="midnightblue" stroke="midnightblue" points="1041.05,-458.891 1048.18,-451.048 1037.72,-452.738 1041.05,-458.891"/>
</g>
<!-- Node12 -->
<g id="node27" class="node"><title>Node12</title>
<a xlink:href="vcs__internal_8h.html" target="_top" xlink:title="Internal declarations for the VCSnonideal package. ">
<polygon fill="white" stroke="black" points="681,-187 681,-207 815,-207 815,-187 681,-187"/>
<text text-anchor="middle" x="748" y="-194" font-family="FreeSans" font-size="10.00">cantera/equil/vcs_internal.h</text>
</a>
</g>
<!-- Node1&#45;&gt;Node12 -->
<g id="edge30" class="edge"><title>Node1&#45;&gt;Node12</title>
<path fill="none" stroke="midnightblue" d="M736.556,-546.889C726.048,-526.402 704,-478.259 704,-435 704,-435 704,-435 704,-313 704,-276.788 722.977,-238.11 736.005,-215.822"/>
<polygon fill="midnightblue" stroke="midnightblue" points="739.123,-217.43 741.317,-207.065 733.138,-213.799 739.123,-217.43"/>
</g>
<!-- Node19 -->
<g id="node45" class="node"><title>Node19</title>
<a xlink:href="ThermoPhase_8h.html" target="_top" xlink:title="Header file for class ThermoPhase, the base class for phases with thermodynamic properties, and the text for the Module thermoprops (see Thermodynamic Properties and class ThermoPhase). ">
<polygon fill="white" stroke="black" points="754,-361 754,-381 906,-381 906,-361 754,-361"/>
<text text-anchor="middle" x="830" y="-368" font-family="FreeSans" font-size="10.00">cantera/thermo/ThermoPhase.h</text>
</a>
</g>
<!-- Node1&#45;&gt;Node19 -->
<g id="edge52" class="edge"><title>Node1&#45;&gt;Node19</title>
<path fill="none" stroke="midnightblue" d="M743.597,-546.892C747.715,-522.991 760.293,-461.726 787,-418 793.62,-407.161 802.955,-396.588 811.235,-388.224"/>
<polygon fill="midnightblue" stroke="midnightblue" points="813.708,-390.701 818.436,-381.219 808.827,-385.683 813.708,-390.701"/>
</g>
<!-- Node32 -->
<g id="node83" class="node"><title>Node32</title>
<a xlink:href="MolalityVPSSTP_8h.html" target="_top" xlink:title="Header for intermediate ThermoPhase object for phases which employ molality based activity coefficien...">
<polygon fill="white" stroke="black" points="770,-489 770,-509 934,-509 934,-489 770,-489"/>
<text text-anchor="middle" x="852" y="-496" font-family="FreeSans" font-size="10.00">cantera/thermo/MolalityVPSSTP.h</text>
</a>
</g>
<!-- Node1&#45;&gt;Node32 -->
<g id="edge102" class="edge"><title>Node1&#45;&gt;Node32</title>
<path fill="none" stroke="midnightblue" d="M761.161,-546.897C778.405,-537.804 803.976,-524.322 823.598,-513.976"/>
<polygon fill="midnightblue" stroke="midnightblue" points="825.477,-516.942 832.69,-509.182 822.212,-510.75 825.477,-516.942"/>
</g>
<!-- Node36 -->
<g id="node94" class="node"><title>Node36</title>
<polygon fill="white" stroke="#bfbfbf" points="990,-489 990,-509 1032,-509 1032,-489 990,-489"/>
<text text-anchor="middle" x="1011" y="-496" font-family="FreeSans" font-size="10.00">cstdio</text>
</g>
<!-- Node1&#45;&gt;Node36 -->
<g id="edge116" class="edge"><title>Node1&#45;&gt;Node36</title>
<path fill="none" stroke="midnightblue" d="M778.751,-550.866C825.067,-542.85 906.969,-527.727 976,-510 977.249,-509.679 978.52,-509.34 979.801,-508.988"/>
<polygon fill="midnightblue" stroke="midnightblue" points="981.018,-512.279 989.632,-506.111 979.052,-505.561 981.018,-512.279"/>
</g>
<!-- Node3 -->
<g id="node5" class="node"><title>Node3</title>
<a xlink:href="vcs__DoubleStarStar_8h.html" target="_top" xlink:title="Header file for class DoubleStarStar. ">
<polygon fill="white" stroke="black" points="16,-65 16,-85 126,-85 126,-65 16,-65"/>
<text text-anchor="middle" x="71" y="-72" font-family="FreeSans" font-size="10.00">vcs_DoubleStarStar.h</text>
</a>
</g>
<!-- Node2&#45;&gt;Node3 -->
<g id="edge4" class="edge"><title>Node2&#45;&gt;Node3</title>
<path fill="none" stroke="midnightblue" d="M196.391,-128.859C171.433,-118.139 131.88,-101.15 103.879,-89.1225"/>
<polygon fill="midnightblue" stroke="midnightblue" points="105.069,-85.8243 94.499,-85.0935 102.306,-92.2561 105.069,-85.8243"/>
</g>
<!-- Node5 -->
<g id="node9" class="node"><title>Node5</title>
<a xlink:href="vcs__IntStarStar_8h.html" target="_top" xlink:title="Header file for class IntStarStar. ">
<polygon fill="white" stroke="black" points="289.5,-65 289.5,-85 380.5,-85 380.5,-65 289.5,-65"/>
<text text-anchor="middle" x="335" y="-72" font-family="FreeSans" font-size="10.00">vcs_IntStarStar.h</text>
</a>
</g>
<!-- Node2&#45;&gt;Node5 -->
<g id="edge8" class="edge"><title>Node2&#45;&gt;Node5</title>
<path fill="none" stroke="midnightblue" d="M238.222,-128.859C256.98,-118.42 286.42,-102.036 307.907,-90.0779"/>
<polygon fill="midnightblue" stroke="midnightblue" points="309.827,-93.0148 316.863,-85.0935 306.423,-86.8982 309.827,-93.0148"/>
</g>
<!-- Node6 -->
<g id="node12" class="node"><title>Node6</title>
<a xlink:href="vcs__defs_8h.html" target="_top" xlink:title="Defines and definitions within the vcs package. ">
<polygon fill="white" stroke="black" points="674,-65 674,-85 794,-85 794,-65 674,-65"/>
<text text-anchor="middle" x="734" y="-72" font-family="FreeSans" font-size="10.00">cantera/equil/vcs_defs.h</text>
</a>
</g>
<!-- Node2&#45;&gt;Node6 -->
<g id="edge12" class="edge"><title>Node2&#45;&gt;Node6</title>
<path fill="none" stroke="midnightblue" d="M280.727,-131.439C376.525,-119.511 562.234,-96.3871 663.678,-83.756"/>
<polygon fill="midnightblue" stroke="midnightblue" points="664.334,-87.2015 673.825,-82.4926 663.469,-80.2551 664.334,-87.2015"/>
</g>
<!-- Node7 -->
<g id="node14" class="node"><title>Node7</title>
<polygon fill="white" stroke="#bfbfbf" points="388,-1 388,-21 428,-21 428,-1 388,-1"/>
<text text-anchor="middle" x="408" y="-8" font-family="FreeSans" font-size="10.00">string</text>
</g>
<!-- Node2&#45;&gt;Node7 -->
<g id="edge14" class="edge"><title>Node2&#45;&gt;Node7</title>
<path fill="none" stroke="midnightblue" d="M280.019,-128.966C322.241,-120.712 373.815,-107.818 389,-92 404.49,-75.8636 408.193,-49.6095 408.7,-31.3833"/>
<polygon fill="midnightblue" stroke="midnightblue" points="412.2,-31.2275 408.68,-21.2345 405.2,-31.2414 412.2,-31.2275"/>
</g>
<!-- Node4 -->
<g id="node7" class="node"><title>Node4</title>
<polygon fill="white" stroke="#bfbfbf" points="249.5,-1 249.5,-21 292.5,-21 292.5,-1 249.5,-1"/>
<text text-anchor="middle" x="271" y="-8" font-family="FreeSans" font-size="10.00">vector</text>
</g>
<!-- Node3&#45;&gt;Node4 -->
<g id="edge6" class="edge"><title>Node3&#45;&gt;Node4</title>
<path fill="none" stroke="midnightblue" d="M102.691,-64.859C140.144,-52.8741 202.084,-33.053 239.468,-21.0902"/>
<polygon fill="midnightblue" stroke="midnightblue" points="240.863,-24.3189 249.32,-17.9376 238.729,-17.6519 240.863,-24.3189"/>
</g>
<!-- Node5&#45;&gt;Node4 -->
<g id="edge10" class="edge"><title>Node5&#45;&gt;Node4</title>
<path fill="none" stroke="midnightblue" d="M324.717,-64.7173C314.862,-54.8623 299.804,-39.804 288.136,-28.1356"/>
<polygon fill="midnightblue" stroke="midnightblue" points="290.592,-25.6424 281.046,-21.0462 285.642,-30.5922 290.592,-25.6424"/>
</g>
<!-- Node8&#45;&gt;Node3 -->
<g id="edge18" class="edge"><title>Node8&#45;&gt;Node3</title>
<path fill="none" stroke="midnightblue" d="M71,-128.717C71,-119.707 71,-106.347 71,-95.2054"/>
<polygon fill="midnightblue" stroke="midnightblue" points="74.5001,-95.0461 71,-85.0462 67.5001,-95.0462 74.5001,-95.0461"/>
</g>
<!-- Node9 -->
<g id="node19" class="node"><title>Node9</title>
<a xlink:href="vcs__SpeciesProperties_8h.html" target="_top" xlink:title="cantera/equil/vcs_Species\lProperties.h">
<polygon fill="white" stroke="black" points="143.5,-59 143.5,-91 272.5,-91 272.5,-59 143.5,-59"/>
<text text-anchor="start" x="151.5" y="-78" font-family="FreeSans" font-size="10.00">cantera/equil/vcs_Species</text>
<text text-anchor="middle" x="208" y="-66" font-family="FreeSans" font-size="10.00">Properties.h</text>
</a>
</g>
<!-- Node8&#45;&gt;Node9 -->
<g id="edge20" class="edge"><title>Node8&#45;&gt;Node9</title>
<path fill="none" stroke="midnightblue" d="M92.7081,-128.859C111.891,-119.898 140.453,-106.555 164.348,-95.3923"/>
<polygon fill="midnightblue" stroke="midnightblue" points="166.005,-98.4812 173.584,-91.0776 163.042,-92.1391 166.005,-98.4812"/>
</g>
<!-- Node9&#45;&gt;Node4 -->
<g id="edge22" class="edge"><title>Node9&#45;&gt;Node4</title>
<path fill="none" stroke="midnightblue" d="M223.898,-58.8501C233.01,-49.5925 244.454,-37.9672 253.78,-28.4936"/>
<polygon fill="midnightblue" stroke="midnightblue" points="256.497,-30.7229 261.017,-21.141 251.508,-25.8122 256.497,-30.7229"/>
</g>
<!-- Node9&#45;&gt;Node7 -->
<g id="edge24" class="edge"><title>Node9&#45;&gt;Node7</title>
<path fill="none" stroke="midnightblue" d="M258.21,-58.9327C296.007,-46.8378 346.544,-30.6658 378.182,-20.5419"/>
<polygon fill="midnightblue" stroke="midnightblue" points="379.292,-23.8616 387.749,-17.4803 377.158,-17.1946 379.292,-23.8616"/>
</g>
<!-- Node11 -->
<g id="node25" class="node"><title>Node11</title>
<polygon fill="white" stroke="#bfbfbf" points="1044,-1 1044,-21 1088,-21 1088,-1 1044,-1"/>
<text text-anchor="middle" x="1066" y="-8" font-family="FreeSans" font-size="10.00">cstdlib</text>
</g>
<!-- Node10&#45;&gt;Node11 -->
<g id="edge28" class="edge"><title>Node10&#45;&gt;Node11</title>
<path fill="none" stroke="midnightblue" d="M1100.21,-418.723C1126.28,-397.551 1166,-357.919 1166,-313 1166,-313 1166,-313 1166,-139 1166,-89.9773 1119.89,-48.5095 1090.29,-26.9417"/>
<polygon fill="midnightblue" stroke="midnightblue" points="1092.26,-24.047 1082.07,-21.1483 1088.23,-29.7693 1092.26,-24.047"/>
</g>
<!-- Node12&#45;&gt;Node6 -->
<g id="edge34" class="edge"><title>Node12&#45;&gt;Node6</title>
<path fill="none" stroke="midnightblue" d="M746.806,-186.598C744.48,-166.329 739.306,-121.238 736.295,-94.9969"/>
<polygon fill="midnightblue" stroke="midnightblue" points="739.769,-94.5681 735.151,-85.0324 732.814,-95.3662 739.769,-94.5681"/>
</g>
<!-- Node13 -->
<g id="node29" class="node"><title>Node13</title>
<polygon fill="white" stroke="#bfbfbf" points="659.5,-129 659.5,-149 704.5,-149 704.5,-129 659.5,-129"/>
<text text-anchor="middle" x="682" y="-136" font-family="FreeSans" font-size="10.00">cstring</text>
</g>
<!-- Node12&#45;&gt;Node13 -->
<g id="edge32" class="edge"><title>Node12&#45;&gt;Node13</title>
<path fill="none" stroke="midnightblue" d="M736.504,-186.897C726.875,-178.435 712.919,-166.172 701.54,-156.172"/>
<polygon fill="midnightblue" stroke="midnightblue" points="703.631,-153.35 693.809,-149.378 699.01,-158.608 703.631,-153.35"/>
</g>
<!-- Node14 -->
<g id="node32" class="node"><title>Node14</title>
<a xlink:href="global_8h.html" target="_top" xlink:title="This file contains definitions for utility functions and text for modules, inputfiles, logs, textlogs, (see Input File Handling, Diagnostic Output, and Writing messages to the screen). ">
<polygon fill="white" stroke="black" points="798,-129 798,-149 906,-149 906,-129 798,-129"/>
<text text-anchor="middle" x="852" y="-136" font-family="FreeSans" font-size="10.00">cantera/base/global.h</text>
</a>
</g>
<!-- Node12&#45;&gt;Node14 -->
<g id="edge36" class="edge"><title>Node12&#45;&gt;Node14</title>
<path fill="none" stroke="midnightblue" d="M766.115,-186.897C782.345,-177.846 806.376,-164.444 824.894,-154.117"/>
<polygon fill="midnightblue" stroke="midnightblue" points="826.714,-157.109 833.743,-149.182 823.305,-150.996 826.714,-157.109"/>
</g>
<!-- Node15 -->
<g id="node34" class="node"><title>Node15</title>
<a xlink:href="ct__defs_8h.html" target="_top" xlink:title="This file contains definitions of terms that are used in internal routines and are unlikely to need m...">
<polygon fill="white" stroke="black" points="824,-65 824,-85 880,-85 880,-65 824,-65"/>
<text text-anchor="middle" x="852" y="-72" font-family="FreeSans" font-size="10.00">ct_defs.h</text>
</a>
</g>
<!-- Node14&#45;&gt;Node15 -->
<g id="edge38" class="edge"><title>Node14&#45;&gt;Node15</title>
<path fill="none" stroke="midnightblue" d="M852,-128.717C852,-119.707 852,-106.347 852,-95.2054"/>
<polygon fill="midnightblue" stroke="midnightblue" points="855.5,-95.0461 852,-85.0462 848.5,-95.0462 855.5,-95.0461"/>
</g>
<!-- Node15&#45;&gt;Node4 -->
<g id="edge46" class="edge"><title>Node15&#45;&gt;Node4</title>
<path fill="none" stroke="midnightblue" d="M826.91,-64.9502C819.337,-62.2851 810.927,-59.684 803,-58 618.006,-18.7006 567.303,-39.5823 379,-22 353.315,-19.6017 324.222,-16.6234 302.708,-14.371"/>
<polygon fill="midnightblue" stroke="midnightblue" points="302.817,-10.8632 292.505,-13.2978 302.084,-17.8248 302.817,-10.8632"/>
</g>
<!-- Node15&#45;&gt;Node7 -->
<g id="edge50" class="edge"><title>Node15&#45;&gt;Node7</title>
<path fill="none" stroke="midnightblue" d="M826.366,-64.9412C818.925,-62.3411 810.722,-59.777 803,-58 669.44,-27.2643 505.581,-15.9372 438.66,-12.3979"/>
<polygon fill="midnightblue" stroke="midnightblue" points="438.572,-8.88894 428.407,-11.8771 438.216,-15.8799 438.572,-8.88894"/>
</g>
<!-- Node15&#45;&gt;Node11 -->
<g id="edge44" class="edge"><title>Node15&#45;&gt;Node11</title>
<path fill="none" stroke="midnightblue" d="M880.418,-66.5013C920.331,-54.5646 992.757,-32.9044 1034.35,-20.4664"/>
<polygon fill="midnightblue" stroke="midnightblue" points="1035.39,-23.807 1043.97,-17.5885 1033.39,-17.1005 1035.39,-23.807"/>
</g>
<!-- Node16 -->
<g id="node36" class="node"><title>Node16</title>
<a xlink:href="config_8h_source.html" target="_top" xlink:title="config.h">
<polygon fill="white" stroke="black" points="762,-1 762,-21 812,-21 812,-1 762,-1"/>
<text text-anchor="middle" x="787" y="-8" font-family="FreeSans" font-size="10.00">config.h</text>
</a>
</g>
<!-- Node15&#45;&gt;Node16 -->
<g id="edge40" class="edge"><title>Node15&#45;&gt;Node16</title>
<path fill="none" stroke="midnightblue" d="M841.557,-64.7173C831.548,-54.8623 816.254,-39.804 804.403,-28.1356"/>
<polygon fill="midnightblue" stroke="midnightblue" points="806.784,-25.5683 797.203,-21.0462 801.873,-30.5562 806.784,-25.5683"/>
</g>
<!-- Node17 -->
<g id="node38" class="node"><title>Node17</title>
<polygon fill="white" stroke="#bfbfbf" points="830,-1 830,-21 874,-21 874,-1 830,-1"/>
<text text-anchor="middle" x="852" y="-8" font-family="FreeSans" font-size="10.00">cmath</text>
</g>
<!-- Node15&#45;&gt;Node17 -->
<g id="edge42" class="edge"><title>Node15&#45;&gt;Node17</title>
<path fill="none" stroke="midnightblue" d="M852,-64.7173C852,-55.707 852,-42.3472 852,-31.2054"/>
<polygon fill="midnightblue" stroke="midnightblue" points="855.5,-31.0461 852,-21.0462 848.5,-31.0462 855.5,-31.0461"/>
</g>
<!-- Node18 -->
<g id="node42" class="node"><title>Node18</title>
<polygon fill="white" stroke="#bfbfbf" points="891.5,-1 891.5,-21 926.5,-21 926.5,-1 891.5,-1"/>
<text text-anchor="middle" x="909" y="-8" font-family="FreeSans" font-size="10.00">map</text>
</g>
<!-- Node15&#45;&gt;Node18 -->
<g id="edge48" class="edge"><title>Node15&#45;&gt;Node18</title>
<path fill="none" stroke="midnightblue" d="M861.158,-64.7173C869.768,-55.05 882.837,-40.3757 893.141,-28.806"/>
<polygon fill="midnightblue" stroke="midnightblue" points="896.015,-30.8417 900.053,-21.0462 890.788,-26.186 896.015,-30.8417"/>
</g>
<!-- Node20 -->
<g id="node47" class="node"><title>Node20</title>
<a xlink:href="Phase_8h.html" target="_top" xlink:title="Header file for class Phase. ">
<polygon fill="white" stroke="black" points="780.5,-303 780.5,-323 831.5,-323 831.5,-303 780.5,-303"/>
<text text-anchor="middle" x="806" y="-310" font-family="FreeSans" font-size="10.00">Phase.h</text>
</a>
</g>
<!-- Node19&#45;&gt;Node20 -->
<g id="edge54" class="edge"><title>Node19&#45;&gt;Node20</title>
<path fill="none" stroke="midnightblue" d="M825.82,-360.897C822.624,-353.175 818.118,-342.286 814.21,-332.841"/>
<polygon fill="midnightblue" stroke="midnightblue" points="817.352,-331.28 810.294,-323.378 810.884,-333.956 817.352,-331.28"/>
</g>
<!-- Node31 -->
<g id="node80" class="node"><title>Node31</title>
<a xlink:href="SpeciesThermo_8h.html" target="_top" xlink:title="Virtual base class for the calculation of multiple&#45;species thermodynamic reference&#45;state property man...">
<polygon fill="white" stroke="black" points="888,-303 888,-323 980,-323 980,-303 888,-303"/>
<text text-anchor="middle" x="934" y="-310" font-family="FreeSans" font-size="10.00">SpeciesThermo.h</text>
</a>
</g>
<!-- Node19&#45;&gt;Node31 -->
<g id="edge98" class="edge"><title>Node19&#45;&gt;Node31</title>
<path fill="none" stroke="midnightblue" d="M848.115,-360.897C864.345,-351.846 888.376,-338.444 906.894,-328.117"/>
<polygon fill="midnightblue" stroke="midnightblue" points="908.714,-331.109 915.743,-323.182 905.305,-324.996 908.714,-331.109"/>
</g>
<!-- Node21 -->
<g id="node49" class="node"><title>Node21</title>
<a xlink:href="vec__functions_8h.html" target="_top" xlink:title="Templates for operations on vector&#45;like objects. ">
<polygon fill="white" stroke="black" points="438,-187 438,-207 580,-207 580,-187 438,-187"/>
<text text-anchor="middle" x="509" y="-194" font-family="FreeSans" font-size="10.00">cantera/base/vec_functions.h</text>
</a>
</g>
<!-- Node20&#45;&gt;Node21 -->
<g id="edge56" class="edge"><title>Node20&#45;&gt;Node21</title>
<path fill="none" stroke="midnightblue" d="M780.421,-303.01C727.24,-282.238 604.667,-234.365 544.133,-210.722"/>
<polygon fill="midnightblue" stroke="midnightblue" points="545.211,-207.386 534.623,-207.008 542.664,-213.906 545.211,-207.386"/>
</g>
<!-- Node27 -->
<g id="node65" class="node"><title>Node27</title>
<a xlink:href="ctml_8h.html" target="_top" xlink:title="CTML (&quot;Cantera Markup Language&quot;) is the variant of XML that Cantera uses to store data...">
<polygon fill="white" stroke="black" points="731.5,-245 731.5,-265 832.5,-265 832.5,-245 731.5,-245"/>
<text text-anchor="middle" x="782" y="-252" font-family="FreeSans" font-size="10.00">cantera/base/ctml.h</text>
</a>
</g>
<!-- Node20&#45;&gt;Node27 -->
<g id="edge76" class="edge"><title>Node20&#45;&gt;Node27</title>
<path fill="none" stroke="midnightblue" d="M801.82,-302.897C798.624,-295.175 794.118,-284.286 790.21,-274.841"/>
<polygon fill="midnightblue" stroke="midnightblue" points="793.352,-273.28 786.294,-265.378 786.884,-275.956 793.352,-273.28"/>
</g>
<!-- Node30 -->
<g id="node77" class="node"><title>Node30</title>
<a xlink:href="Elements_8h.html" target="_top" xlink:title="Contains the LookupWtElements function and the definitions of element constraint types. ">
<polygon fill="white" stroke="black" points="850,-245 850,-265 982,-265 982,-245 850,-245"/>
<text text-anchor="middle" x="916" y="-252" font-family="FreeSans" font-size="10.00">cantera/thermo/Elements.h</text>
</a>
</g>
<!-- Node20&#45;&gt;Node30 -->
<g id="edge94" class="edge"><title>Node20&#45;&gt;Node30</title>
<path fill="none" stroke="midnightblue" d="M825.161,-302.897C842.405,-293.804 867.976,-280.322 887.598,-269.976"/>
<polygon fill="midnightblue" stroke="midnightblue" points="889.477,-272.942 896.69,-265.182 886.212,-266.75 889.477,-272.942"/>
</g>
<!-- Node21&#45;&gt;Node13 -->
<g id="edge74" class="edge"><title>Node21&#45;&gt;Node13</title>
<path fill="none" stroke="midnightblue" d="M540.089,-186.921C566.931,-178.173 606.977,-165.01 649.853,-150.355"/>
<polygon fill="midnightblue" stroke="midnightblue" points="651.008,-153.659 659.333,-147.106 648.738,-147.037 651.008,-153.659"/>
</g>
<!-- Node21&#45;&gt;Node15 -->
<g id="edge58" class="edge"><title>Node21&#45;&gt;Node15</title>
<path fill="none" stroke="midnightblue" d="M505.222,-186.636C500.515,-171.7 494.71,-144.147 509,-128 552.623,-78.71 738.881,-106.871 803,-92 807.463,-90.965 812.087,-89.67 816.632,-88.2592"/>
<polygon fill="midnightblue" stroke="midnightblue" points="817.967,-91.5043 826.362,-85.0417 815.769,-84.8581 817.967,-91.5043"/>
</g>
<!-- Node22 -->
<g id="node52" class="node"><title>Node22</title>
<a xlink:href="utilities_8h.html" target="_top" xlink:title="Various templated functions that carry out common vector operations (see Templated Utility Functions)...">
<polygon fill="white" stroke="black" points="588,-129 588,-149 642,-149 642,-129 588,-129"/>
<text text-anchor="middle" x="615" y="-136" font-family="FreeSans" font-size="10.00">utilities.h</text>
</a>
</g>
<!-- Node21&#45;&gt;Node22 -->
<g id="edge60" class="edge"><title>Node21&#45;&gt;Node22</title>
<path fill="none" stroke="midnightblue" d="M527.464,-186.897C544.006,-177.846 568.498,-164.444 587.372,-154.117"/>
<polygon fill="midnightblue" stroke="midnightblue" points="589.3,-157.052 596.392,-149.182 585.939,-150.911 589.3,-157.052"/>
</g>
<!-- Node23 -->
<g id="node55" class="node"><title>Node23</title>
<polygon fill="white" stroke="#bfbfbf" points="512,-65 512,-85 568,-85 568,-65 512,-65"/>
<text text-anchor="middle" x="540" y="-72" font-family="FreeSans" font-size="10.00">algorithm</text>
</g>
<!-- Node21&#45;&gt;Node23 -->
<g id="edge70" class="edge"><title>Node21&#45;&gt;Node23</title>
<path fill="none" stroke="midnightblue" d="M437.969,-193.197C373.619,-187.003 293.599,-170.731 327,-128 337.82,-114.157 443.597,-92.7527 501.899,-81.8659"/>
<polygon fill="midnightblue" stroke="midnightblue" points="502.66,-85.2845 511.856,-80.0226 501.386,-78.4014 502.66,-85.2845"/>
</g>
<!-- Node24 -->
<g id="node57" class="node"><title>Node24</title>
<polygon fill="white" stroke="#bfbfbf" points="335.5,-129 335.5,-149 386.5,-149 386.5,-129 335.5,-129"/>
<text text-anchor="middle" x="361" y="-136" font-family="FreeSans" font-size="10.00">numeric</text>
</g>
<!-- Node21&#45;&gt;Node24 -->
<g id="edge66" class="edge"><title>Node21&#45;&gt;Node24</title>
<path fill="none" stroke="midnightblue" d="M483.22,-186.897C459.175,-177.474 423.097,-163.335 396.366,-152.86"/>
<polygon fill="midnightblue" stroke="midnightblue" points="397.568,-149.572 386.981,-149.182 395.014,-156.089 397.568,-149.572"/>
</g>
<!-- Node25 -->
<g id="node59" class="node"><title>Node25</title>
<polygon fill="white" stroke="#bfbfbf" points="403.5,-129 403.5,-149 462.5,-149 462.5,-129 403.5,-129"/>
<text text-anchor="middle" x="433" y="-136" font-family="FreeSans" font-size="10.00">functional</text>
</g>
<!-- Node21&#45;&gt;Node25 -->
<g id="edge68" class="edge"><title>Node21&#45;&gt;Node25</title>
<path fill="none" stroke="midnightblue" d="M495.762,-186.897C484.389,-178.218 467.774,-165.538 454.497,-155.405"/>
<polygon fill="midnightblue" stroke="midnightblue" points="456.414,-152.466 446.341,-149.182 452.168,-158.031 456.414,-152.466"/>
</g>
<!-- Node26 -->
<g id="node62" class="node"><title>Node26</title>
<polygon fill="white" stroke="#bfbfbf" points="517.5,-129 517.5,-149 570.5,-149 570.5,-129 517.5,-129"/>
<text text-anchor="middle" x="544" y="-136" font-family="FreeSans" font-size="10.00">iostream</text>
</g>
<!-- Node21&#45;&gt;Node26 -->
<g id="edge72" class="edge"><title>Node21&#45;&gt;Node26</title>
<path fill="none" stroke="midnightblue" d="M515.097,-186.897C519.905,-178.928 526.749,-167.587 532.57,-157.941"/>
<polygon fill="midnightblue" stroke="midnightblue" points="535.568,-159.748 537.738,-149.378 529.574,-156.131 535.568,-159.748"/>
</g>
<!-- Node22&#45;&gt;Node15 -->
<g id="edge62" class="edge"><title>Node22&#45;&gt;Node15</title>
<path fill="none" stroke="midnightblue" d="M642.073,-130.525C645.077,-129.645 648.098,-128.786 651,-128 718.009,-109.847 736.342,-111.403 803,-92 806.877,-90.8715 810.899,-89.6167 814.897,-88.3145"/>
<polygon fill="midnightblue" stroke="midnightblue" points="816.323,-91.5279 824.687,-85.0248 814.093,-84.8925 816.323,-91.5279"/>
</g>
<!-- Node22&#45;&gt;Node23 -->
<g id="edge64" class="edge"><title>Node22&#45;&gt;Node23</title>
<path fill="none" stroke="midnightblue" d="M602.95,-128.717C591.291,-118.768 573.418,-103.517 559.691,-91.8032"/>
<polygon fill="midnightblue" stroke="midnightblue" points="561.652,-88.875 551.773,-85.0462 557.108,-94.1998 561.652,-88.875"/>
</g>
<!-- Node27&#45;&gt;Node15 -->
<g id="edge78" class="edge"><title>Node27&#45;&gt;Node15</title>
<path fill="none" stroke="midnightblue" d="M814.348,-244.906C834.924,-237.263 861.146,-225.13 880,-208 902.284,-187.754 906.927,-179.005 915,-150 917.622,-140.58 919.127,-136.864 915,-128 907.676,-112.268 893.13,-99.5379 879.859,-90.5002"/>
<polygon fill="midnightblue" stroke="midnightblue" points="881.721,-87.5368 871.41,-85.1 877.951,-93.4349 881.721,-87.5368"/>
</g>
<!-- Node28 -->
<g id="node68" class="node"><title>Node28</title>
<a xlink:href="xml_8h.html" target="_top" xlink:title="Classes providing support for XML data files. ">
<polygon fill="white" stroke="red" points="832.5,-187 832.5,-207 871.5,-207 871.5,-187 832.5,-187"/>
<text text-anchor="middle" x="852" y="-194" font-family="FreeSans" font-size="10.00">xml.h</text>
</a>
</g>
<!-- Node27&#45;&gt;Node28 -->
<g id="edge80" class="edge"><title>Node27&#45;&gt;Node28</title>
<path fill="none" stroke="midnightblue" d="M794.193,-244.897C804.505,-236.353 819.495,-223.933 831.626,-213.881"/>
<polygon fill="midnightblue" stroke="midnightblue" points="834.008,-216.453 839.475,-207.378 829.542,-211.063 834.008,-216.453"/>
</g>
<!-- Node29 -->
<g id="node71" class="node"><title>Node29</title>
<a xlink:href="Array_8h.html" target="_top" xlink:title="Header file for class Cantera::Array2D. ">
<polygon fill="white" stroke="red" points="616.5,-187 616.5,-207 663.5,-207 663.5,-187 616.5,-187"/>
<text text-anchor="middle" x="640" y="-194" font-family="FreeSans" font-size="10.00">Array.h</text>
</a>
</g>
<!-- Node27&#45;&gt;Node29 -->
<g id="edge84" class="edge"><title>Node27&#45;&gt;Node29</title>
<path fill="none" stroke="midnightblue" d="M757.265,-244.897C733.873,-235.342 698.613,-220.94 672.866,-210.424"/>
<polygon fill="midnightblue" stroke="midnightblue" points="674.089,-207.143 663.508,-206.602 671.442,-213.623 674.089,-207.143"/>
</g>
<!-- Node28&#45;&gt;Node14 -->
<g id="edge82" class="edge"><title>Node28&#45;&gt;Node14</title>
<path fill="none" stroke="midnightblue" d="M852,-186.897C852,-179.339 852,-168.748 852,-159.446"/>
<polygon fill="midnightblue" stroke="midnightblue" points="855.5,-159.378 852,-149.378 848.5,-159.378 855.5,-159.378"/>
</g>
<!-- Node29&#45;&gt;Node13 -->
<g id="edge92" class="edge"><title>Node29&#45;&gt;Node13</title>
<path fill="none" stroke="midnightblue" d="M647.316,-186.897C653.146,-178.846 661.468,-167.353 668.5,-157.643"/>
<polygon fill="midnightblue" stroke="midnightblue" points="671.455,-159.53 674.485,-149.378 665.785,-155.424 671.455,-159.53"/>
</g>
<!-- Node29&#45;&gt;Node15 -->
<g id="edge86" class="edge"><title>Node29&#45;&gt;Node15</title>
<path fill="none" stroke="midnightblue" d="M657.71,-186.808C694.981,-165.36 781.684,-115.465 825.559,-90.2159"/>
<polygon fill="midnightblue" stroke="midnightblue" points="827.568,-93.0984 834.489,-85.077 824.076,-87.0313 827.568,-93.0984"/>
</g>
<!-- Node29&#45;&gt;Node22 -->
<g id="edge88" class="edge"><title>Node29&#45;&gt;Node22</title>
<path fill="none" stroke="midnightblue" d="M635.645,-186.897C632.317,-179.175 627.623,-168.286 623.552,-158.841"/>
<polygon fill="midnightblue" stroke="midnightblue" points="626.646,-157.175 619.473,-149.378 620.217,-159.946 626.646,-157.175"/>
</g>
<!-- Node29&#45;&gt;Node26 -->
<g id="edge90" class="edge"><title>Node29&#45;&gt;Node26</title>
<path fill="none" stroke="midnightblue" d="M623.278,-186.897C608.502,-177.97 586.721,-164.811 569.726,-154.543"/>
<polygon fill="midnightblue" stroke="midnightblue" points="571.221,-151.357 560.852,-149.182 567.602,-157.349 571.221,-151.357"/>
</g>
<!-- Node30&#45;&gt;Node15 -->
<g id="edge96" class="edge"><title>Node30&#45;&gt;Node15</title>
<path fill="none" stroke="midnightblue" d="M925.673,-244.777C933.403,-235.855 943.64,-222.151 948,-208 958.469,-174.021 966.072,-158.62 948,-128 935.47,-106.769 911.053,-93.456 889.981,-85.4826"/>
<polygon fill="midnightblue" stroke="midnightblue" points="890.876,-82.0878 880.281,-82.0859 888.563,-88.6944 890.876,-82.0878"/>
</g>
<!-- Node31&#45;&gt;Node15 -->
<g id="edge100" class="edge"><title>Node31&#45;&gt;Node15</title>
<path fill="none" stroke="midnightblue" d="M953.504,-302.97C966.779,-294.954 983.287,-282.357 991,-266 1008.74,-228.373 1026.31,-203.508 966,-128 947.121,-104.363 915.268,-90.7847 890.024,-83.3023"/>
<polygon fill="midnightblue" stroke="midnightblue" points="890.937,-79.9234 880.366,-80.6355 889.074,-86.6709 890.937,-79.9234"/>
</g>
<!-- Node33 -->
<g id="node85" class="node"><title>Node33</title>
<a xlink:href="VPStandardStateTP_8h.html" target="_top" xlink:title="Header file for a derived class of ThermoPhase that handles variable pressure standard state methods ...">
<polygon fill="white" stroke="black" points="796,-425 796,-445 908,-445 908,-425 796,-425"/>
<text text-anchor="middle" x="852" y="-432" font-family="FreeSans" font-size="10.00">VPStandardStateTP.h</text>
</a>
</g>
<!-- Node32&#45;&gt;Node33 -->
<g id="edge104" class="edge"><title>Node32&#45;&gt;Node33</title>
<path fill="none" stroke="midnightblue" d="M852,-488.717C852,-479.707 852,-466.347 852,-455.205"/>
<polygon fill="midnightblue" stroke="midnightblue" points="855.5,-455.046 852,-445.046 848.5,-455.046 855.5,-455.046"/>
</g>
<!-- Node33&#45;&gt;Node19 -->
<g id="edge106" class="edge"><title>Node33&#45;&gt;Node19</title>
<path fill="none" stroke="midnightblue" d="M848.465,-424.717C845.303,-415.519 840.584,-401.789 836.707,-390.512"/>
<polygon fill="midnightblue" stroke="midnightblue" points="840.014,-389.365 833.453,-381.046 833.394,-391.641 840.014,-389.365"/>
</g>
<!-- Node34 -->
<g id="node88" class="node"><title>Node34</title>
<a xlink:href="VPSSMgr_8h.html" target="_top" xlink:title="Declaration file for a virtual base class that manages the calculation of standard state properties f...">
<polygon fill="white" stroke="black" points="1037.5,-187 1037.5,-207 1104.5,-207 1104.5,-187 1037.5,-187"/>
<text text-anchor="middle" x="1071" y="-194" font-family="FreeSans" font-size="10.00">VPSSMgr.h</text>
</a>
</g>
<!-- Node33&#45;&gt;Node34 -->
<g id="edge108" class="edge"><title>Node33&#45;&gt;Node34</title>
<path fill="none" stroke="midnightblue" d="M867.726,-424.73C894.69,-406.613 950.553,-366.824 989,-324 1019.94,-289.539 1047.19,-242.245 1061.13,-216.183"/>
<polygon fill="midnightblue" stroke="midnightblue" points="1064.24,-217.784 1065.8,-207.305 1058.05,-214.523 1064.24,-217.784"/>
</g>
<!-- Node34&#45;&gt;Node14 -->
<g id="edge114" class="edge"><title>Node34&#45;&gt;Node14</title>
<path fill="none" stroke="midnightblue" d="M1037.26,-188.065C1000.46,-178.318 941.269,-162.642 899.718,-151.638"/>
<polygon fill="midnightblue" stroke="midnightblue" points="900.386,-148.194 889.823,-149.017 898.593,-154.961 900.386,-148.194"/>
</g>
<!-- Node34&#45;&gt;Node15 -->
<g id="edge110" class="edge"><title>Node34&#45;&gt;Node15</title>
<path fill="none" stroke="midnightblue" d="M1066.81,-186.964C1060.03,-171.932 1045.22,-143.666 1024,-128 984.016,-98.4863 927.325,-85.1878 890.119,-79.348"/>
<polygon fill="midnightblue" stroke="midnightblue" points="890.574,-75.8773 880.172,-77.8914 889.56,-82.8035 890.574,-75.8773"/>
</g>
<!-- Node35 -->
<g id="node91" class="node"><title>Node35</title>
<a xlink:href="mix__defs_8h.html" target="_top" xlink:title="mix_defs.h">
<polygon fill="white" stroke="black" points="1076,-129 1076,-149 1138,-149 1138,-129 1076,-129"/>
<text text-anchor="middle" x="1107" y="-136" font-family="FreeSans" font-size="10.00">mix_defs.h</text>
</a>
</g>
<!-- Node34&#45;&gt;Node35 -->
<g id="edge112" class="edge"><title>Node34&#45;&gt;Node35</title>
<path fill="none" stroke="midnightblue" d="M1077.27,-186.897C1082.22,-178.928 1089.26,-167.587 1095.24,-157.941"/>
<polygon fill="midnightblue" stroke="midnightblue" points="1098.26,-159.72 1100.56,-149.378 1092.31,-156.028 1098.26,-159.72"/>
</g>
</g>
</svg>
