<?xml version="1.0" encoding="UTF-8" standalone="no"?>
<!DOCTYPE svg PUBLIC "-//W3C//DTD SVG 1.1//EN"
 "http://www.w3.org/Graphics/SVG/1.1/DTD/svg11.dtd">
<!-- Generated by graphviz version 2.36.0 (20140111.2315)
 -->
<!-- Title: vcs_MultiPhaseEquil.h Pages: 1 -->
<svg width="1044pt" height="476pt"
 viewBox="0.00 0.00 1044.00 476.00" xmlns="http://www.w3.org/2000/svg" xmlns:xlink="http://www.w3.org/1999/xlink">
<g id="graph0" class="graph" transform="scale(1 1) rotate(0) translate(4 472)">
<title>vcs_MultiPhaseEquil.h</title>
<polygon fill="white" stroke="none" points="-4,4 -4,-472 1040,-472 1040,4 -4,4"/>
<!-- Node1 -->
<g id="node1" class="node"><title>Node1</title>
<polygon fill="#bfbfbf" stroke="black" points="623.5,-448.5 623.5,-467.5 736.5,-467.5 736.5,-448.5 623.5,-448.5"/>
<text text-anchor="middle" x="680" y="-455.5" font-family="FreeSans" font-size="10.00">vcs_MultiPhaseEquil.h</text>
</g>
<!-- Node2 -->
<g id="node2" class="node"><title>Node2</title>
<g id="a_node2"><a xlink:href="MultiPhase_8h.html" target="_top" xlink:title="Headers for the MultiPhase object that is used to set up multiphase equilibrium problems (see Equilfu...">
<polygon fill="white" stroke="black" points="538,-392.5 538,-411.5 610,-411.5 610,-392.5 538,-392.5"/>
<text text-anchor="middle" x="574" y="-399.5" font-family="FreeSans" font-size="10.00">MultiPhase.h</text>
</a>
</g>
</g>
<!-- Node1&#45;&gt;Node2 -->
<g id="edge1" class="edge"><title>Node1&#45;&gt;Node2</title>
<path fill="none" stroke="midnightblue" d="M662.969,-448.324C645.97,-439.664 619.624,-426.242 600.007,-416.249"/>
<polygon fill="midnightblue" stroke="midnightblue" points="601.488,-413.075 590.988,-411.655 598.31,-419.312 601.488,-413.075"/>
</g>
<!-- Node28 -->
<g id="node28" class="node"><title>Node28</title>
<g id="a_node28"><a xlink:href="vcs__solve_8h.html" target="_top" xlink:title="Header file for the internal object that holds the vcs equilibrium problem (see Class VCS_SOLVE and E...">
<polygon fill="white" stroke="black" points="760.5,-336.5 760.5,-355.5 825.5,-355.5 825.5,-336.5 760.5,-336.5"/>
<text text-anchor="middle" x="793" y="-343.5" font-family="FreeSans" font-size="10.00">vcs_solve.h</text>
</a>
</g>
</g>
<!-- Node1&#45;&gt;Node28 -->
<g id="edge39" class="edge"><title>Node1&#45;&gt;Node28</title>
<path fill="none" stroke="midnightblue" d="M688.867,-448.368C707.845,-429.894 752.636,-386.293 776.827,-362.744"/>
<polygon fill="midnightblue" stroke="midnightblue" points="779.45,-365.075 784.174,-355.591 774.567,-360.059 779.45,-365.075"/>
</g>
<!-- Node31 -->
<g id="node31" class="node"><title>Node31</title>
<g id="a_node31"><a xlink:href="vcs__prob_8h.html" target="_top" xlink:title="Header for the Interface class for the vcs thermo equilibrium solver package,. ">
<polygon fill="white" stroke="black" points="649,-392.5 649,-411.5 711,-411.5 711,-392.5 649,-392.5"/>
<text text-anchor="middle" x="680" y="-399.5" font-family="FreeSans" font-size="10.00">vcs_prob.h</text>
</a>
</g>
</g>
<!-- Node1&#45;&gt;Node31 -->
<g id="edge45" class="edge"><title>Node1&#45;&gt;Node31</title>
<path fill="none" stroke="midnightblue" d="M680,-448.083C680,-441.006 680,-430.861 680,-421.986"/>
<polygon fill="midnightblue" stroke="midnightblue" points="683.5,-421.751 680,-411.751 676.5,-421.751 683.5,-421.751"/>
</g>
<!-- Node3 -->
<g id="node3" class="node"><title>Node3</title>
<g id="a_node3"><a xlink:href="DenseMatrix_8h.html" target="_top" xlink:title="Headers for the DenseMatrix object, which deals with dense rectangular matrices and description of th...">
<polygon fill="white" stroke="black" points="496.5,-336.5 496.5,-355.5 651.5,-355.5 651.5,-336.5 496.5,-336.5"/>
<text text-anchor="middle" x="574" y="-343.5" font-family="FreeSans" font-size="10.00">cantera/numerics/DenseMatrix.h</text>
</a>
</g>
</g>
<!-- Node2&#45;&gt;Node3 -->
<g id="edge2" class="edge"><title>Node2&#45;&gt;Node3</title>
<path fill="none" stroke="midnightblue" d="M574,-392.083C574,-385.006 574,-374.861 574,-365.986"/>
<polygon fill="midnightblue" stroke="midnightblue" points="577.5,-365.751 574,-355.751 570.5,-365.751 577.5,-365.751"/>
</g>
<!-- Node21 -->
<g id="node21" class="node"><title>Node21</title>
<g id="a_node21"><a xlink:href="ThermoPhase_8h.html" target="_top" xlink:title="Header file for class ThermoPhase, the base class for phases with thermodynamic properties, and the text for the Module thermoprops (see Thermodynamic Properties and class ThermoPhase). ">
<polygon fill="white" stroke="black" points="326,-336.5 326,-355.5 478,-355.5 478,-336.5 326,-336.5"/>
<text text-anchor="middle" x="402" y="-343.5" font-family="FreeSans" font-size="10.00">cantera/thermo/ThermoPhase.h</text>
</a>
</g>
</g>
<!-- Node2&#45;&gt;Node21 -->
<g id="edge24" class="edge"><title>Node2&#45;&gt;Node21</title>
<path fill="none" stroke="midnightblue" d="M546.746,-392.444C517.559,-383.28 471.079,-368.688 438.691,-358.519"/>
<polygon fill="midnightblue" stroke="midnightblue" points="439.716,-355.173 429.126,-355.516 437.619,-361.851 439.716,-355.173"/>
</g>
<!-- Node4 -->
<g id="node4" class="node"><title>Node4</title>
<g id="a_node4"><a xlink:href="ct__defs_8h.html" target="_top" xlink:title="This file contains definitions of terms that are used in internal routines and are unlikely to need m...">
<polygon fill="white" stroke="black" points="438,-56.5 438,-75.5 552,-75.5 552,-56.5 438,-56.5"/>
<text text-anchor="middle" x="495" y="-63.5" font-family="FreeSans" font-size="10.00">cantera/base/ct_defs.h</text>
</a>
</g>
</g>
<!-- Node3&#45;&gt;Node4 -->
<g id="edge3" class="edge"><title>Node3&#45;&gt;Node4</title>
<path fill="none" stroke="midnightblue" d="M576.127,-336.464C582.212,-310.803 598.59,-232.173 588,-168 583.721,-142.068 585.44,-132.506 569,-112 557.89,-98.142 541.278,-87.4918 526.606,-80.0396"/>
<polygon fill="midnightblue" stroke="midnightblue" points="527.854,-76.7568 517.322,-75.6026 524.835,-83.0726 527.854,-76.7568"/>
</g>
<!-- Node13 -->
<g id="node13" class="node"><title>Node13</title>
<g id="a_node13"><a xlink:href="ctexceptions_8h.html" target="_top" xlink:title="Definitions for the classes that are thrown when Cantera experiences an error condition (also contain...">
<polygon fill="white" stroke="black" points="371.5,-168.5 371.5,-187.5 508.5,-187.5 508.5,-168.5 371.5,-168.5"/>
<text text-anchor="middle" x="440" y="-175.5" font-family="FreeSans" font-size="10.00">cantera/base/ctexceptions.h</text>
</a>
</g>
</g>
<!-- Node3&#45;&gt;Node13 -->
<g id="edge12" class="edge"><title>Node3&#45;&gt;Node13</title>
<path fill="none" stroke="midnightblue" d="M567.338,-336.42C551.851,-316.514 512.141,-265.707 478,-224 470.13,-214.386 461.171,-203.762 453.929,-195.251"/>
<polygon fill="midnightblue" stroke="midnightblue" points="456.519,-192.894 447.364,-187.561 451.195,-197.439 456.519,-192.894"/>
</g>
<!-- Node16 -->
<g id="node16" class="node"><title>Node16</title>
<g id="a_node16"><a xlink:href="Array_8h.html" target="_top" xlink:title="Header file for class Cantera::Array2D. ">
<polygon fill="white" stroke="black" points="602.5,-280.5 602.5,-299.5 707.5,-299.5 707.5,-280.5 602.5,-280.5"/>
<text text-anchor="middle" x="655" y="-287.5" font-family="FreeSans" font-size="10.00">cantera/base/Array.h</text>
</a>
</g>
</g>
<!-- Node3&#45;&gt;Node16 -->
<g id="edge16" class="edge"><title>Node3&#45;&gt;Node16</title>
<path fill="none" stroke="midnightblue" d="M587.014,-336.324C599.532,-327.979 618.682,-315.212 633.471,-305.352"/>
<polygon fill="midnightblue" stroke="midnightblue" points="635.639,-308.114 642.018,-299.655 631.756,-302.289 635.639,-308.114"/>
</g>
<!-- Node5 -->
<g id="node5" class="node"><title>Node5</title>
<g id="a_node5"><a xlink:href="config_8h_source.html" target="_top" xlink:title="config.h">
<polygon fill="white" stroke="black" points="253,-0.5 253,-19.5 303,-19.5 303,-0.5 253,-0.5"/>
<text text-anchor="middle" x="278" y="-7.5" font-family="FreeSans" font-size="10.00">config.h</text>
</a>
</g>
</g>
<!-- Node4&#45;&gt;Node5 -->
<g id="edge4" class="edge"><title>Node4&#45;&gt;Node5</title>
<path fill="none" stroke="midnightblue" d="M459.53,-56.4741C424.646,-48.0459 369.63,-34.6376 313.067,-20.2413"/>
<polygon fill="midnightblue" stroke="midnightblue" points="313.793,-16.8146 303.238,-17.7337 312.062,-23.5973 313.793,-16.8146"/>
</g>
<!-- Node6 -->
<g id="node6" class="node"><title>Node6</title>
<polygon fill="white" stroke="#bfbfbf" points="321,-0.5 321,-19.5 365,-19.5 365,-0.5 321,-0.5"/>
<text text-anchor="middle" x="343" y="-7.5" font-family="FreeSans" font-size="10.00">cmath</text>
</g>
<!-- Node4&#45;&gt;Node6 -->
<g id="edge5" class="edge"><title>Node4&#45;&gt;Node6</title>
<path fill="none" stroke="midnightblue" d="M470.915,-56.4435C445.006,-47.239 403.677,-32.5565 375.04,-22.3826"/>
<polygon fill="midnightblue" stroke="midnightblue" points="376.08,-19.038 365.486,-18.9883 373.737,-25.6341 376.08,-19.038"/>
</g>
<!-- Node7 -->
<g id="node7" class="node"><title>Node7</title>
<polygon fill="white" stroke="#bfbfbf" points="383,-0.5 383,-19.5 427,-19.5 427,-0.5 383,-0.5"/>
<text text-anchor="middle" x="405" y="-7.5" font-family="FreeSans" font-size="10.00">cstdlib</text>
</g>
<!-- Node4&#45;&gt;Node7 -->
<g id="edge6" class="edge"><title>Node4&#45;&gt;Node7</title>
<path fill="none" stroke="midnightblue" d="M480.54,-56.324C466.5,-47.9002 444.952,-34.9709 428.457,-25.0741"/>
<polygon fill="midnightblue" stroke="midnightblue" points="429.8,-21.7983 419.424,-19.6545 426.198,-27.8007 429.8,-21.7983"/>
</g>
<!-- Node8 -->
<g id="node8" class="node"><title>Node8</title>
<polygon fill="white" stroke="#bfbfbf" points="445.5,-0.5 445.5,-19.5 488.5,-19.5 488.5,-0.5 445.5,-0.5"/>
<text text-anchor="middle" x="467" y="-7.5" font-family="FreeSans" font-size="10.00">vector</text>
</g>
<!-- Node4&#45;&gt;Node8 -->
<g id="edge7" class="edge"><title>Node4&#45;&gt;Node8</title>
<path fill="none" stroke="midnightblue" d="M490.376,-56.083C486.544,-48.6913 480.976,-37.9533 476.235,-28.8111"/>
<polygon fill="midnightblue" stroke="midnightblue" points="479.248,-27.0175 471.538,-19.7511 473.034,-30.2398 479.248,-27.0175"/>
</g>
<!-- Node9 -->
<g id="node9" class="node"><title>Node9</title>
<polygon fill="white" stroke="#bfbfbf" points="506.5,-0.5 506.5,-19.5 541.5,-19.5 541.5,-0.5 506.5,-0.5"/>
<text text-anchor="middle" x="524" y="-7.5" font-family="FreeSans" font-size="10.00">map</text>
</g>
<!-- Node4&#45;&gt;Node9 -->
<g id="edge8" class="edge"><title>Node4&#45;&gt;Node9</title>
<path fill="none" stroke="midnightblue" d="M499.789,-56.083C503.758,-48.6913 509.525,-37.9533 514.435,-28.8111"/>
<polygon fill="midnightblue" stroke="midnightblue" points="517.653,-30.217 519.3,-19.7511 511.486,-26.9051 517.653,-30.217"/>
</g>
<!-- Node10 -->
<g id="node10" class="node"><title>Node10</title>
<polygon fill="white" stroke="#bfbfbf" points="560,-0.5 560,-19.5 600,-19.5 600,-0.5 560,-0.5"/>
<text text-anchor="middle" x="580" y="-7.5" font-family="FreeSans" font-size="10.00">string</text>
</g>
<!-- Node4&#45;&gt;Node10 -->
<g id="edge9" class="edge"><title>Node4&#45;&gt;Node10</title>
<path fill="none" stroke="midnightblue" d="M508.657,-56.324C521.916,-47.9002 542.268,-34.9709 557.846,-25.0741"/>
<polygon fill="midnightblue" stroke="midnightblue" points="559.813,-27.9711 566.377,-19.6545 556.06,-22.0626 559.813,-27.9711"/>
</g>
<!-- Node11 -->
<g id="node11" class="node"><title>Node11</title>
<polygon fill="white" stroke="#bfbfbf" points="618,-0.5 618,-19.5 674,-19.5 674,-0.5 618,-0.5"/>
<text text-anchor="middle" x="646" y="-7.5" font-family="FreeSans" font-size="10.00">algorithm</text>
</g>
<!-- Node4&#45;&gt;Node11 -->
<g id="edge10" class="edge"><title>Node4&#45;&gt;Node11</title>
<path fill="none" stroke="midnightblue" d="M518.926,-56.4435C544.219,-47.3986 584.302,-33.064 612.68,-22.9158"/>
<polygon fill="midnightblue" stroke="midnightblue" points="613.948,-26.1794 622.186,-19.5164 611.591,-19.5882 613.948,-26.1794"/>
</g>
<!-- Node12 -->
<g id="node12" class="node"><title>Node12</title>
<polygon fill="white" stroke="#bfbfbf" points="692.5,-0.5 692.5,-19.5 743.5,-19.5 743.5,-0.5 692.5,-0.5"/>
<text text-anchor="middle" x="718" y="-7.5" font-family="FreeSans" font-size="10.00">memory</text>
</g>
<!-- Node4&#45;&gt;Node12 -->
<g id="edge11" class="edge"><title>Node4&#45;&gt;Node12</title>
<path fill="none" stroke="midnightblue" d="M530.872,-56.467C568.533,-47.4851 629.463,-32.8882 682,-20 682.211,-19.9482 682.423,-19.8962 682.636,-19.844"/>
<polygon fill="midnightblue" stroke="midnightblue" points="683.573,-23.2177 692.441,-17.4194 681.893,-16.4223 683.573,-23.2177"/>
</g>
<!-- Node14 -->
<g id="node14" class="node"><title>Node14</title>
<g id="a_node14"><a xlink:href="fmt_8h.html" target="_top" xlink:title="Wrapper for either system&#45;installed or local headers for fmt. ">
<polygon fill="white" stroke="red" points="446.5,-112.5 446.5,-131.5 543.5,-131.5 543.5,-112.5 446.5,-112.5"/>
<text text-anchor="middle" x="495" y="-119.5" font-family="FreeSans" font-size="10.00">cantera/base/fmt.h</text>
</a>
</g>
</g>
<!-- Node13&#45;&gt;Node14 -->
<g id="edge13" class="edge"><title>Node13&#45;&gt;Node14</title>
<path fill="none" stroke="midnightblue" d="M449.082,-168.083C457.171,-160.141 469.195,-148.335 478.91,-138.797"/>
<polygon fill="midnightblue" stroke="midnightblue" points="481.403,-141.254 486.087,-131.751 476.499,-136.26 481.403,-141.254"/>
</g>
<!-- Node15 -->
<g id="node15" class="node"><title>Node15</title>
<polygon fill="white" stroke="#bfbfbf" points="371,-112.5 371,-131.5 429,-131.5 429,-112.5 371,-112.5"/>
<text text-anchor="middle" x="400" y="-119.5" font-family="FreeSans" font-size="10.00">exception</text>
</g>
<!-- Node13&#45;&gt;Node15 -->
<g id="edge15" class="edge"><title>Node13&#45;&gt;Node15</title>
<path fill="none" stroke="midnightblue" d="M433.395,-168.083C427.745,-160.455 419.455,-149.264 412.549,-139.941"/>
<polygon fill="midnightblue" stroke="midnightblue" points="415.247,-137.703 406.482,-131.751 409.622,-141.87 415.247,-137.703"/>
</g>
<!-- Node14&#45;&gt;Node4 -->
<g id="edge14" class="edge"><title>Node14&#45;&gt;Node4</title>
<path fill="none" stroke="midnightblue" d="M495,-112.083C495,-105.006 495,-94.8611 495,-85.9865"/>
<polygon fill="midnightblue" stroke="midnightblue" points="498.5,-85.751 495,-75.7511 491.5,-85.7511 498.5,-85.751"/>
</g>
<!-- Node17 -->
<g id="node17" class="node"><title>Node17</title>
<g id="a_node17"><a xlink:href="utilities_8h.html" target="_top" xlink:title="Various templated functions that carry out common vector operations (see Templated Utility Functions)...">
<polygon fill="white" stroke="red" points="775,-224.5 775,-243.5 829,-243.5 829,-224.5 775,-224.5"/>
<text text-anchor="middle" x="802" y="-231.5" font-family="FreeSans" font-size="10.00">utilities.h</text>
</a>
</g>
</g>
<!-- Node16&#45;&gt;Node17 -->
<g id="edge17" class="edge"><title>Node16&#45;&gt;Node17</title>
<path fill="none" stroke="midnightblue" d="M678.293,-280.444C702.807,-271.438 741.596,-257.189 769.2,-247.049"/>
<polygon fill="midnightblue" stroke="midnightblue" points="770.637,-250.25 778.816,-243.516 768.223,-243.679 770.637,-250.25"/>
</g>
<!-- Node19 -->
<g id="node19" class="node"><title>Node19</title>
<polygon fill="white" stroke="#bfbfbf" points="602.5,-224.5 602.5,-243.5 655.5,-243.5 655.5,-224.5 602.5,-224.5"/>
<text text-anchor="middle" x="629" y="-231.5" font-family="FreeSans" font-size="10.00">iostream</text>
</g>
<!-- Node16&#45;&gt;Node19 -->
<g id="edge22" class="edge"><title>Node16&#45;&gt;Node19</title>
<path fill="none" stroke="midnightblue" d="M650.707,-280.083C647.148,-272.691 641.978,-261.953 637.576,-252.811"/>
<polygon fill="midnightblue" stroke="midnightblue" points="640.705,-251.243 633.213,-243.751 634.398,-254.279 640.705,-251.243"/>
</g>
<!-- Node20 -->
<g id="node20" class="node"><title>Node20</title>
<polygon fill="white" stroke="#bfbfbf" points="673.5,-224.5 673.5,-243.5 718.5,-243.5 718.5,-224.5 673.5,-224.5"/>
<text text-anchor="middle" x="696" y="-231.5" font-family="FreeSans" font-size="10.00">cstring</text>
</g>
<!-- Node16&#45;&gt;Node20 -->
<g id="edge23" class="edge"><title>Node16&#45;&gt;Node20</title>
<path fill="none" stroke="midnightblue" d="M661.77,-280.083C667.562,-272.455 676.058,-261.264 683.138,-251.941"/>
<polygon fill="midnightblue" stroke="midnightblue" points="686.096,-253.832 689.356,-243.751 680.521,-249.599 686.096,-253.832"/>
</g>
<!-- Node17&#45;&gt;Node4 -->
<g id="edge18" class="edge"><title>Node17&#45;&gt;Node4</title>
<path fill="none" stroke="midnightblue" d="M791.379,-224.293C764.693,-202.76 692.089,-146.273 624,-112 595.944,-97.8779 562.397,-86.325 536.546,-78.4621"/>
<polygon fill="midnightblue" stroke="midnightblue" points="537.272,-75.0265 526.689,-75.5285 535.275,-81.7357 537.272,-75.0265"/>
</g>
<!-- Node18 -->
<g id="node18" class="node"><title>Node18</title>
<g id="a_node18"><a xlink:href="global_8h.html" target="_top" xlink:title="This file contains definitions for utility functions and text for modules, inputfiles, logs, textlogs, (see Input File Handling, Diagnostic Output, and Writing messages to the screen). ">
<polygon fill="white" stroke="black" points="529,-168.5 529,-187.5 579,-187.5 579,-168.5 529,-168.5"/>
<text text-anchor="middle" x="554" y="-175.5" font-family="FreeSans" font-size="10.00">global.h</text>
</a>
</g>
</g>
<!-- Node17&#45;&gt;Node18 -->
<g id="edge19" class="edge"><title>Node17&#45;&gt;Node18</title>
<path fill="none" stroke="midnightblue" d="M774.655,-226.989C770.095,-225.989 765.414,-224.964 761,-224 700.551,-210.795 630.151,-195.511 588.988,-186.583"/>
<polygon fill="midnightblue" stroke="midnightblue" points="589.691,-183.155 579.177,-184.456 588.208,-189.996 589.691,-183.155"/>
</g>
<!-- Node18&#45;&gt;Node4 -->
<g id="edge20" class="edge"><title>Node18&#45;&gt;Node4</title>
<path fill="none" stroke="midnightblue" d="M555.913,-168.446C558.355,-155.462 561.244,-130.351 552,-112 545.356,-98.8099 532.857,-88.2687 521.253,-80.7141"/>
<polygon fill="midnightblue" stroke="midnightblue" points="523.035,-77.7012 512.666,-75.5247 519.415,-83.6923 523.035,-77.7012"/>
</g>
<!-- Node18&#45;&gt;Node14 -->
<g id="edge21" class="edge"><title>Node18&#45;&gt;Node14</title>
<path fill="none" stroke="midnightblue" d="M544.521,-168.324C535.799,-160.341 522.657,-148.313 512.102,-138.653"/>
<polygon fill="midnightblue" stroke="midnightblue" points="514.392,-136.004 504.652,-131.834 509.666,-141.167 514.392,-136.004"/>
</g>
<!-- Node21&#45;&gt;Node18 -->
<g id="edge38" class="edge"><title>Node21&#45;&gt;Node18</title>
<path fill="none" stroke="midnightblue" d="M417.282,-336.475C431.196,-328.26 451.824,-314.908 467,-300 500.078,-267.507 529.479,-221.209 544.141,-196.359"/>
<polygon fill="midnightblue" stroke="midnightblue" points="547.186,-198.085 549.175,-187.679 541.131,-194.573 547.186,-198.085"/>
</g>
<!-- Node22 -->
<g id="node22" class="node"><title>Node22</title>
<g id="a_node22"><a xlink:href="Phase_8h.html" target="_top" xlink:title="Header file for class Phase. ">
<polygon fill="white" stroke="black" points="227.5,-224.5 227.5,-243.5 278.5,-243.5 278.5,-224.5 227.5,-224.5"/>
<text text-anchor="middle" x="253" y="-231.5" font-family="FreeSans" font-size="10.00">Phase.h</text>
</a>
</g>
</g>
<!-- Node21&#45;&gt;Node22 -->
<g id="edge25" class="edge"><title>Node21&#45;&gt;Node22</title>
<path fill="none" stroke="midnightblue" d="M388.673,-336.287C375.215,-327.401 353.911,-313.098 336,-300 313.354,-283.44 288.071,-263.408 271.427,-249.998"/>
<polygon fill="midnightblue" stroke="midnightblue" points="273.547,-247.211 263.571,-243.643 269.144,-252.654 273.547,-247.211"/>
</g>
<!-- Node26 -->
<g id="node26" class="node"><title>Node26</title>
<g id="a_node26"><a xlink:href="MultiSpeciesThermo_8h.html" target="_top" xlink:title="Header for a general species thermodynamic property manager for a phase (see MultiSpeciesThermo). ">
<polygon fill="white" stroke="black" points="345.5,-280.5 345.5,-299.5 458.5,-299.5 458.5,-280.5 345.5,-280.5"/>
<text text-anchor="middle" x="402" y="-287.5" font-family="FreeSans" font-size="10.00">MultiSpeciesThermo.h</text>
</a>
</g>
</g>
<!-- Node21&#45;&gt;Node26 -->
<g id="edge33" class="edge"><title>Node21&#45;&gt;Node26</title>
<path fill="none" stroke="midnightblue" d="M402,-336.083C402,-329.006 402,-318.861 402,-309.986"/>
<polygon fill="midnightblue" stroke="midnightblue" points="405.5,-309.751 402,-299.751 398.5,-309.751 405.5,-309.751"/>
</g>
<!-- Node22&#45;&gt;Node13 -->
<g id="edge26" class="edge"><title>Node22&#45;&gt;Node13</title>
<path fill="none" stroke="midnightblue" d="M278.609,-225.605C310.062,-216.522 363.753,-201.018 400.505,-190.405"/>
<polygon fill="midnightblue" stroke="midnightblue" points="401.752,-193.688 410.389,-187.551 399.81,-186.963 401.752,-193.688"/>
</g>
<!-- Node23 -->
<g id="node23" class="node"><title>Node23</title>
<g id="a_node23"><a xlink:href="Elements_8h.html" target="_top" xlink:title="Contains the getElementWeight function and the definitions of element constraint types. ">
<polygon fill="white" stroke="black" points="183,-112.5 183,-131.5 315,-131.5 315,-112.5 183,-112.5"/>
<text text-anchor="middle" x="249" y="-119.5" font-family="FreeSans" font-size="10.00">cantera/thermo/Elements.h</text>
</a>
</g>
</g>
<!-- Node22&#45;&gt;Node23 -->
<g id="edge27" class="edge"><title>Node22&#45;&gt;Node23</title>
<path fill="none" stroke="midnightblue" d="M252.686,-224.368C252.041,-206.617 250.552,-165.666 249.676,-141.597"/>
<polygon fill="midnightblue" stroke="midnightblue" points="253.174,-141.458 249.312,-131.591 246.178,-141.712 253.174,-141.458"/>
</g>
<!-- Node24 -->
<g id="node24" class="node"><title>Node24</title>
<g id="a_node24"><a xlink:href="Species_8h.html" target="_top" xlink:title="Declaration for class Cantera::Species. ">
<polygon fill="white" stroke="black" points="-0.5,-112.5 -0.5,-131.5 126.5,-131.5 126.5,-112.5 -0.5,-112.5"/>
<text text-anchor="middle" x="63" y="-119.5" font-family="FreeSans" font-size="10.00">cantera/thermo/Species.h</text>
</a>
</g>
</g>
<!-- Node22&#45;&gt;Node24 -->
<g id="edge29" class="edge"><title>Node22&#45;&gt;Node24</title>
<path fill="none" stroke="midnightblue" d="M227.205,-233.647C190.051,-233.131 121.598,-226.54 82,-188 69.6348,-175.965 65.2028,-156.365 63.6718,-141.83"/>
<polygon fill="midnightblue" stroke="midnightblue" points="67.1399,-141.241 62.9699,-131.501 60.156,-141.715 67.1399,-141.241"/>
</g>
<!-- Node25 -->
<g id="node25" class="node"><title>Node25</title>
<g id="a_node25"><a xlink:href="ValueCache_8h.html" target="_top" xlink:title="cantera/base/ValueCache.h">
<polygon fill="white" stroke="red" points="91,-168.5 91,-187.5 225,-187.5 225,-168.5 91,-168.5"/>
<text text-anchor="middle" x="158" y="-175.5" font-family="FreeSans" font-size="10.00">cantera/base/ValueCache.h</text>
</a>
</g>
</g>
<!-- Node22&#45;&gt;Node25 -->
<g id="edge31" class="edge"><title>Node22&#45;&gt;Node25</title>
<path fill="none" stroke="midnightblue" d="M237.737,-224.324C222.779,-215.822 199.745,-202.729 182.273,-192.797"/>
<polygon fill="midnightblue" stroke="midnightblue" points="183.649,-189.553 173.226,-187.655 180.19,-195.639 183.649,-189.553"/>
</g>
<!-- Node23&#45;&gt;Node4 -->
<g id="edge28" class="edge"><title>Node23&#45;&gt;Node4</title>
<path fill="none" stroke="midnightblue" d="M287.979,-112.444C330.894,-103.023 399.946,-87.8656 446.369,-77.6752"/>
<polygon fill="midnightblue" stroke="midnightblue" points="447.186,-81.0792 456.203,-75.5164 445.685,-74.242 447.186,-81.0792"/>
</g>
<!-- Node24&#45;&gt;Node4 -->
<g id="edge30" class="edge"><title>Node24&#45;&gt;Node4</title>
<path fill="none" stroke="midnightblue" d="M126.743,-113.032C207.403,-102.95 345.696,-85.6631 427.912,-75.386"/>
<polygon fill="midnightblue" stroke="midnightblue" points="428.41,-78.8511 437.898,-74.1377 427.542,-71.9052 428.41,-78.8511"/>
</g>
<!-- Node25&#45;&gt;Node4 -->
<g id="edge32" class="edge"><title>Node25&#45;&gt;Node4</title>
<path fill="none" stroke="midnightblue" d="M157.336,-168.327C156.779,-154.235 157.955,-126.485 174,-112 210.238,-79.2842 344.818,-70.2443 427.783,-67.8153"/>
<polygon fill="midnightblue" stroke="midnightblue" points="427.981,-71.3114 437.884,-67.5447 427.794,-64.3139 427.981,-71.3114"/>
</g>
<!-- Node27 -->
<g id="node27" class="node"><title>Node27</title>
<g id="a_node27"><a xlink:href="SpeciesThermoInterpType_8h.html" target="_top" xlink:title="Pure Virtual Base class for individual species reference state thermodynamic managers and text for th...">
<polygon fill="white" stroke="red" points="332.5,-224.5 332.5,-243.5 469.5,-243.5 469.5,-224.5 332.5,-224.5"/>
<text text-anchor="middle" x="401" y="-231.5" font-family="FreeSans" font-size="10.00">SpeciesThermoInterpType.h</text>
</a>
</g>
</g>
<!-- Node26&#45;&gt;Node27 -->
<g id="edge34" class="edge"><title>Node26&#45;&gt;Node27</title>
<path fill="none" stroke="midnightblue" d="M401.835,-280.083C401.704,-273.006 401.516,-262.861 401.352,-253.986"/>
<polygon fill="midnightblue" stroke="midnightblue" points="404.847,-253.685 401.162,-243.751 397.848,-253.814 404.847,-253.685"/>
</g>
<!-- Node27&#45;&gt;Node4 -->
<g id="edge35" class="edge"><title>Node27&#45;&gt;Node4</title>
<path fill="none" stroke="midnightblue" d="M390.01,-224.365C380.547,-216.171 367.564,-202.917 362,-188 350.194,-156.352 342.312,-139.446 362,-112 377.24,-90.7547 403.058,-79.4126 427.914,-73.4048"/>
<polygon fill="midnightblue" stroke="midnightblue" points="428.699,-76.8161 437.735,-71.2836 427.221,-69.9738 428.699,-76.8161"/>
</g>
<!-- Node27&#45;&gt;Node13 -->
<g id="edge36" class="edge"><title>Node27&#45;&gt;Node13</title>
<path fill="none" stroke="midnightblue" d="M407.44,-224.083C412.949,-216.455 421.031,-205.264 427.765,-195.941"/>
<polygon fill="midnightblue" stroke="midnightblue" points="430.662,-197.907 433.68,-187.751 424.987,-193.809 430.662,-197.907"/>
</g>
<!-- Node27&#45;&gt;Node18 -->
<g id="edge37" class="edge"><title>Node27&#45;&gt;Node18</title>
<path fill="none" stroke="midnightblue" d="M425.243,-224.444C450.871,-215.399 491.485,-201.064 520.238,-190.916"/>
<polygon fill="midnightblue" stroke="midnightblue" points="521.605,-194.145 529.87,-187.516 519.275,-187.544 521.605,-194.145"/>
</g>
<!-- Node28&#45;&gt;Node4 -->
<g id="edge40" class="edge"><title>Node28&#45;&gt;Node4</title>
<path fill="none" stroke="midnightblue" d="M816.845,-336.408C833.722,-329.162 855.645,-317.197 869,-300 887.46,-276.228 888,-265.098 888,-235 888,-235 888,-235 888,-177 888,-110.183 674.671,-82.1123 562.359,-71.9639"/>
<polygon fill="midnightblue" stroke="midnightblue" points="562.414,-68.4553 552.146,-71.0652 561.8,-75.4284 562.414,-68.4553"/>
</g>
<!-- Node28&#45;&gt;Node16 -->
<g id="edge44" class="edge"><title>Node28&#45;&gt;Node16</title>
<path fill="none" stroke="midnightblue" d="M771.133,-336.444C748.221,-327.478 712.025,-313.314 686.134,-303.183"/>
<polygon fill="midnightblue" stroke="midnightblue" points="687.352,-299.901 676.764,-299.516 684.801,-306.42 687.352,-299.901"/>
</g>
<!-- Node29 -->
<g id="node29" class="node"><title>Node29</title>
<g id="a_node29"><a xlink:href="vcs__defs_8h.html" target="_top" xlink:title="Defines and definitions within the vcs package. ">
<polygon fill="white" stroke="black" points="916,-280.5 916,-299.5 1036,-299.5 1036,-280.5 916,-280.5"/>
<text text-anchor="middle" x="976" y="-287.5" font-family="FreeSans" font-size="10.00">cantera/equil/vcs_defs.h</text>
</a>
</g>
</g>
<!-- Node28&#45;&gt;Node29 -->
<g id="edge41" class="edge"><title>Node28&#45;&gt;Node29</title>
<path fill="none" stroke="midnightblue" d="M821.997,-336.444C853.185,-327.241 902.93,-312.562 937.408,-302.388"/>
<polygon fill="midnightblue" stroke="midnightblue" points="938.538,-305.704 947.139,-299.516 936.557,-298.99 938.538,-305.704"/>
</g>
<!-- Node30 -->
<g id="node30" class="node"><title>Node30</title>
<g id="a_node30"><a xlink:href="vcs__internal_8h.html" target="_top" xlink:title="Internal declarations for the VCSnonideal package. ">
<polygon fill="white" stroke="black" points="726,-280.5 726,-299.5 860,-299.5 860,-280.5 726,-280.5"/>
<text text-anchor="middle" x="793" y="-287.5" font-family="FreeSans" font-size="10.00">cantera/equil/vcs_internal.h</text>
</a>
</g>
</g>
<!-- Node28&#45;&gt;Node30 -->
<g id="edge42" class="edge"><title>Node28&#45;&gt;Node30</title>
<path fill="none" stroke="midnightblue" d="M793,-336.083C793,-329.006 793,-318.861 793,-309.986"/>
<polygon fill="midnightblue" stroke="midnightblue" points="796.5,-309.751 793,-299.751 789.5,-309.751 796.5,-309.751"/>
</g>
<!-- Node30&#45;&gt;Node18 -->
<g id="edge43" class="edge"><title>Node30&#45;&gt;Node18</title>
<path fill="none" stroke="midnightblue" d="M786.73,-280.389C776.069,-266.386 753.017,-238.762 727,-224 683.271,-199.187 625.605,-187.758 589.154,-182.71"/>
<polygon fill="midnightblue" stroke="midnightblue" points="589.381,-179.21 579.014,-181.394 588.48,-186.152 589.381,-179.21"/>
</g>
<!-- Node31&#45;&gt;Node16 -->
<g id="edge46" class="edge"><title>Node31&#45;&gt;Node16</title>
<path fill="none" stroke="midnightblue" d="M678.038,-392.368C674.004,-374.617 664.697,-333.666 659.227,-309.597"/>
<polygon fill="midnightblue" stroke="midnightblue" points="662.582,-308.567 656.953,-299.591 655.756,-310.118 662.582,-308.567"/>
</g>
</g>
</svg>
