<?xml version="1.0" encoding="UTF-8" standalone="no"?>
<!DOCTYPE svg PUBLIC "-//W3C//DTD SVG 1.1//EN"
 "http://www.w3.org/Graphics/SVG/1.1/DTD/svg11.dtd">
<!-- Generated by graphviz version 2.36.0 (20140111.2315)
 -->
<!-- Title: vcs_inest.cpp Pages: 1 -->
<svg width="650pt" height="376pt"
 viewBox="0.00 0.00 650.00 376.00" xmlns="http://www.w3.org/2000/svg" xmlns:xlink="http://www.w3.org/1999/xlink">
<g id="graph0" class="graph" transform="scale(1 1) rotate(0) translate(4 372)">
<title>vcs_inest.cpp</title>
<polygon fill="white" stroke="none" points="-4,4 -4,-372 646,-372 646,4 -4,4"/>
<!-- Node1 -->
<g id="node1" class="node"><title>Node1</title>
<polygon fill="#bfbfbf" stroke="black" points="393,-348.5 393,-367.5 467,-367.5 467,-348.5 393,-348.5"/>
<text text-anchor="middle" x="430" y="-355.5" font-family="FreeSans" font-size="10.00">vcs_inest.cpp</text>
</g>
<!-- Node2 -->
<g id="node2" class="node"><title>Node2</title>
<g id="a_node2"><a xlink:href="vcs__solve_8h.html" target="_top" xlink:title="Header file for the internal object that holds the vcs equilibrium problem (see Class VCS_SOLVE and e...">
<polygon fill="white" stroke="black" points="216,-292.5 216,-311.5 340,-311.5 340,-292.5 216,-292.5"/>
<text text-anchor="middle" x="278" y="-299.5" font-family="FreeSans" font-size="10.00">cantera/equil/vcs_solve.h</text>
</a>
</g>
</g>
<!-- Node1&#45;&gt;Node2 -->
<g id="edge1" class="edge"><title>Node1&#45;&gt;Node2</title>
<path fill="none" stroke="midnightblue" d="M405.915,-348.444C380.455,-339.399 340.106,-325.064 311.541,-314.916"/>
<polygon fill="midnightblue" stroke="midnightblue" points="312.567,-311.566 301.972,-311.516 310.223,-318.162 312.567,-311.566"/>
</g>
<!-- Node22 -->
<g id="node22" class="node"><title>Node22</title>
<g id="a_node22"><a xlink:href="vcs__VolPhase_8h.html" target="_top" xlink:title="Header for the object representing each phase within vcs. ">
<polygon fill="white" stroke="black" points="358.5,-292.5 358.5,-311.5 501.5,-311.5 501.5,-292.5 358.5,-292.5"/>
<text text-anchor="middle" x="430" y="-299.5" font-family="FreeSans" font-size="10.00">cantera/equil/vcs_VolPhase.h</text>
</a>
</g>
</g>
<!-- Node1&#45;&gt;Node22 -->
<g id="edge24" class="edge"><title>Node1&#45;&gt;Node22</title>
<path fill="none" stroke="midnightblue" d="M430,-348.083C430,-341.006 430,-330.861 430,-321.986"/>
<polygon fill="midnightblue" stroke="midnightblue" points="433.5,-321.751 430,-311.751 426.5,-321.751 433.5,-321.751"/>
</g>
<!-- Node24 -->
<g id="node24" class="node"><title>Node24</title>
<g id="a_node24"><a xlink:href="clockWC_8h.html" target="_top" xlink:title="Declarations for a simple class that implements an Ansi C wall clock timer (see Cantera::clockWC). ">
<polygon fill="white" stroke="black" points="520,-292.5 520,-311.5 642,-311.5 642,-292.5 520,-292.5"/>
<text text-anchor="middle" x="581" y="-299.5" font-family="FreeSans" font-size="10.00">cantera/base/clockWC.h</text>
</a>
</g>
</g>
<!-- Node1&#45;&gt;Node24 -->
<g id="edge28" class="edge"><title>Node1&#45;&gt;Node24</title>
<path fill="none" stroke="midnightblue" d="M453.926,-348.444C479.219,-339.399 519.302,-325.064 547.68,-314.916"/>
<polygon fill="midnightblue" stroke="midnightblue" points="548.948,-318.179 557.186,-311.516 546.591,-311.588 548.948,-318.179"/>
</g>
<!-- Node3 -->
<g id="node3" class="node"><title>Node3</title>
<g id="a_node3"><a xlink:href="ct__defs_8h.html" target="_top" xlink:title="This file contains definitions of terms that are used in internal routines and are unlikely to need m...">
<polygon fill="white" stroke="black" points="185,-56.5 185,-75.5 299,-75.5 299,-56.5 185,-56.5"/>
<text text-anchor="middle" x="242" y="-63.5" font-family="FreeSans" font-size="10.00">cantera/base/ct_defs.h</text>
</a>
</g>
</g>
<!-- Node2&#45;&gt;Node3 -->
<g id="edge2" class="edge"><title>Node2&#45;&gt;Node3</title>
<path fill="none" stroke="midnightblue" d="M259.611,-292.471C245.899,-284.997 228.185,-272.71 220,-256 191.95,-198.735 218.709,-120.371 233.57,-85.2854"/>
<polygon fill="midnightblue" stroke="midnightblue" points="236.895,-86.4195 237.727,-75.8573 230.49,-83.5958 236.895,-86.4195"/>
</g>
<!-- Node12 -->
<g id="node12" class="node"><title>Node12</title>
<g id="a_node12"><a xlink:href="vcs__defs_8h.html" target="_top" xlink:title="Defines and definitions within the vcs package. ">
<polygon fill="white" stroke="black" points="229,-236.5 229,-255.5 349,-255.5 349,-236.5 229,-236.5"/>
<text text-anchor="middle" x="289" y="-243.5" font-family="FreeSans" font-size="10.00">cantera/equil/vcs_defs.h</text>
</a>
</g>
</g>
<!-- Node2&#45;&gt;Node12 -->
<g id="edge11" class="edge"><title>Node2&#45;&gt;Node12</title>
<path fill="none" stroke="midnightblue" d="M279.816,-292.083C281.274,-284.927 283.371,-274.635 285.193,-265.691"/>
<polygon fill="midnightblue" stroke="midnightblue" points="288.651,-266.248 287.217,-255.751 281.792,-264.851 288.651,-266.248"/>
</g>
<!-- Node13 -->
<g id="node13" class="node"><title>Node13</title>
<g id="a_node13"><a xlink:href="vcs__internal_8h.html" target="_top" xlink:title="Internal declarations for the VCSnonideal package. ">
<polygon fill="white" stroke="black" points="39,-180.5 39,-199.5 173,-199.5 173,-180.5 39,-180.5"/>
<text text-anchor="middle" x="106" y="-187.5" font-family="FreeSans" font-size="10.00">cantera/equil/vcs_internal.h</text>
</a>
</g>
</g>
<!-- Node2&#45;&gt;Node13 -->
<g id="edge12" class="edge"><title>Node2&#45;&gt;Node13</title>
<path fill="none" stroke="midnightblue" d="M257.438,-292.373C238.534,-284.088 210.033,-270.69 187,-256 163.656,-241.111 139.172,-220.696 123.316,-206.742"/>
<polygon fill="midnightblue" stroke="midnightblue" points="125.248,-203.776 115.456,-199.73 120.588,-208.999 125.248,-203.776"/>
</g>
<!-- Node16 -->
<g id="node16" class="node"><title>Node16</title>
<g id="a_node16"><a xlink:href="Array_8h.html" target="_top" xlink:title="Header file for class Cantera::Array2D. ">
<polygon fill="white" stroke="black" points="367.5,-236.5 367.5,-255.5 472.5,-255.5 472.5,-236.5 367.5,-236.5"/>
<text text-anchor="middle" x="420" y="-243.5" font-family="FreeSans" font-size="10.00">cantera/base/Array.h</text>
</a>
</g>
</g>
<!-- Node2&#45;&gt;Node16 -->
<g id="edge16" class="edge"><title>Node2&#45;&gt;Node16</title>
<path fill="none" stroke="midnightblue" d="M300.5,-292.444C324.077,-283.478 361.322,-269.314 387.964,-259.183"/>
<polygon fill="midnightblue" stroke="midnightblue" points="389.502,-262.342 397.605,-255.516 387.014,-255.8 389.502,-262.342"/>
</g>
<!-- Node4 -->
<g id="node4" class="node"><title>Node4</title>
<g id="a_node4"><a xlink:href="config_8h_source.html" target="_top" xlink:title="config.h">
<polygon fill="white" stroke="black" points="0,-0.5 0,-19.5 50,-19.5 50,-0.5 0,-0.5"/>
<text text-anchor="middle" x="25" y="-7.5" font-family="FreeSans" font-size="10.00">config.h</text>
</a>
</g>
</g>
<!-- Node3&#45;&gt;Node4 -->
<g id="edge3" class="edge"><title>Node3&#45;&gt;Node4</title>
<path fill="none" stroke="midnightblue" d="M206.53,-56.4741C171.646,-48.0459 116.63,-34.6376 60.0667,-20.2413"/>
<polygon fill="midnightblue" stroke="midnightblue" points="60.793,-16.8146 50.2381,-17.7337 59.0624,-23.5973 60.793,-16.8146"/>
</g>
<!-- Node5 -->
<g id="node5" class="node"><title>Node5</title>
<polygon fill="white" stroke="#bfbfbf" points="68,-0.5 68,-19.5 112,-19.5 112,-0.5 68,-0.5"/>
<text text-anchor="middle" x="90" y="-7.5" font-family="FreeSans" font-size="10.00">cmath</text>
</g>
<!-- Node3&#45;&gt;Node5 -->
<g id="edge4" class="edge"><title>Node3&#45;&gt;Node5</title>
<path fill="none" stroke="midnightblue" d="M217.915,-56.4435C192.006,-47.239 150.677,-32.5565 122.04,-22.3826"/>
<polygon fill="midnightblue" stroke="midnightblue" points="123.08,-19.038 112.486,-18.9883 120.737,-25.6341 123.08,-19.038"/>
</g>
<!-- Node6 -->
<g id="node6" class="node"><title>Node6</title>
<polygon fill="white" stroke="#bfbfbf" points="130,-0.5 130,-19.5 174,-19.5 174,-0.5 130,-0.5"/>
<text text-anchor="middle" x="152" y="-7.5" font-family="FreeSans" font-size="10.00">cstdlib</text>
</g>
<!-- Node3&#45;&gt;Node6 -->
<g id="edge5" class="edge"><title>Node3&#45;&gt;Node6</title>
<path fill="none" stroke="midnightblue" d="M227.54,-56.324C213.5,-47.9002 191.952,-34.9709 175.457,-25.0741"/>
<polygon fill="midnightblue" stroke="midnightblue" points="176.8,-21.7983 166.424,-19.6545 173.198,-27.8007 176.8,-21.7983"/>
</g>
<!-- Node7 -->
<g id="node7" class="node"><title>Node7</title>
<polygon fill="white" stroke="#bfbfbf" points="192.5,-0.5 192.5,-19.5 235.5,-19.5 235.5,-0.5 192.5,-0.5"/>
<text text-anchor="middle" x="214" y="-7.5" font-family="FreeSans" font-size="10.00">vector</text>
</g>
<!-- Node3&#45;&gt;Node7 -->
<g id="edge6" class="edge"><title>Node3&#45;&gt;Node7</title>
<path fill="none" stroke="midnightblue" d="M237.376,-56.083C233.544,-48.6913 227.976,-37.9533 223.235,-28.8111"/>
<polygon fill="midnightblue" stroke="midnightblue" points="226.248,-27.0175 218.538,-19.7511 220.034,-30.2398 226.248,-27.0175"/>
</g>
<!-- Node8 -->
<g id="node8" class="node"><title>Node8</title>
<polygon fill="white" stroke="#bfbfbf" points="253.5,-0.5 253.5,-19.5 288.5,-19.5 288.5,-0.5 253.5,-0.5"/>
<text text-anchor="middle" x="271" y="-7.5" font-family="FreeSans" font-size="10.00">map</text>
</g>
<!-- Node3&#45;&gt;Node8 -->
<g id="edge7" class="edge"><title>Node3&#45;&gt;Node8</title>
<path fill="none" stroke="midnightblue" d="M246.789,-56.083C250.758,-48.6913 256.525,-37.9533 261.435,-28.8111"/>
<polygon fill="midnightblue" stroke="midnightblue" points="264.653,-30.217 266.3,-19.7511 258.486,-26.9051 264.653,-30.217"/>
</g>
<!-- Node9 -->
<g id="node9" class="node"><title>Node9</title>
<polygon fill="white" stroke="#bfbfbf" points="307,-0.5 307,-19.5 347,-19.5 347,-0.5 307,-0.5"/>
<text text-anchor="middle" x="327" y="-7.5" font-family="FreeSans" font-size="10.00">string</text>
</g>
<!-- Node3&#45;&gt;Node9 -->
<g id="edge8" class="edge"><title>Node3&#45;&gt;Node9</title>
<path fill="none" stroke="midnightblue" d="M255.657,-56.324C268.916,-47.9002 289.268,-34.9709 304.846,-25.0741"/>
<polygon fill="midnightblue" stroke="midnightblue" points="306.813,-27.9711 313.377,-19.6545 303.06,-22.0626 306.813,-27.9711"/>
</g>
<!-- Node10 -->
<g id="node10" class="node"><title>Node10</title>
<polygon fill="white" stroke="#bfbfbf" points="365,-0.5 365,-19.5 421,-19.5 421,-0.5 365,-0.5"/>
<text text-anchor="middle" x="393" y="-7.5" font-family="FreeSans" font-size="10.00">algorithm</text>
</g>
<!-- Node3&#45;&gt;Node10 -->
<g id="edge9" class="edge"><title>Node3&#45;&gt;Node10</title>
<path fill="none" stroke="midnightblue" d="M265.926,-56.4435C291.219,-47.3986 331.302,-33.064 359.68,-22.9158"/>
<polygon fill="midnightblue" stroke="midnightblue" points="360.948,-26.1794 369.186,-19.5164 358.591,-19.5882 360.948,-26.1794"/>
</g>
<!-- Node11 -->
<g id="node11" class="node"><title>Node11</title>
<polygon fill="white" stroke="#bfbfbf" points="439.5,-0.5 439.5,-19.5 490.5,-19.5 490.5,-0.5 439.5,-0.5"/>
<text text-anchor="middle" x="465" y="-7.5" font-family="FreeSans" font-size="10.00">memory</text>
</g>
<!-- Node3&#45;&gt;Node11 -->
<g id="edge10" class="edge"><title>Node3&#45;&gt;Node11</title>
<path fill="none" stroke="midnightblue" d="M277.872,-56.467C315.533,-47.4851 376.463,-32.8882 429,-20 429.211,-19.9482 429.423,-19.8962 429.636,-19.844"/>
<polygon fill="midnightblue" stroke="midnightblue" points="430.573,-23.2177 439.441,-17.4194 428.893,-16.4223 430.573,-23.2177"/>
</g>
<!-- Node14 -->
<g id="node14" class="node"><title>Node14</title>
<g id="a_node14"><a xlink:href="global_8h.html" target="_top" xlink:title="This file contains definitions for utility functions and text for modules, inputfiles, logs, textlogs, (see Input File Handling, Diagnostic Output, and Writing messages to the screen). ">
<polygon fill="white" stroke="black" points="63,-118.5 63,-137.5 171,-137.5 171,-118.5 63,-118.5"/>
<text text-anchor="middle" x="117" y="-125.5" font-family="FreeSans" font-size="10.00">cantera/base/global.h</text>
</a>
</g>
</g>
<!-- Node13&#45;&gt;Node14 -->
<g id="edge13" class="edge"><title>Node13&#45;&gt;Node14</title>
<path fill="none" stroke="midnightblue" d="M107.576,-180.403C109.144,-171.849 111.601,-158.45 113.613,-147.476"/>
<polygon fill="midnightblue" stroke="midnightblue" points="117.066,-148.048 115.427,-137.581 110.181,-146.785 117.066,-148.048"/>
</g>
<!-- Node14&#45;&gt;Node3 -->
<g id="edge14" class="edge"><title>Node14&#45;&gt;Node3</title>
<path fill="none" stroke="midnightblue" d="M134.909,-118.403C155.887,-108.334 190.85,-91.5522 215.093,-79.9151"/>
<polygon fill="midnightblue" stroke="midnightblue" points="216.623,-83.0633 224.124,-75.5806 213.594,-76.7526 216.623,-83.0633"/>
</g>
<!-- Node15 -->
<g id="node15" class="node"><title>Node15</title>
<polygon fill="white" stroke="#bfbfbf" points="63.5,-56.5 63.5,-75.5 166.5,-75.5 166.5,-56.5 63.5,-56.5"/>
<text text-anchor="middle" x="115" y="-63.5" font-family="FreeSans" font-size="10.00">cantera/ext/format.h</text>
</g>
<!-- Node14&#45;&gt;Node15 -->
<g id="edge15" class="edge"><title>Node14&#45;&gt;Node15</title>
<path fill="none" stroke="midnightblue" d="M116.713,-118.403C116.431,-109.938 115.991,-96.7283 115.627,-85.8199"/>
<polygon fill="midnightblue" stroke="midnightblue" points="119.117,-85.4584 115.286,-75.5806 112.121,-85.6917 119.117,-85.4584"/>
</g>
<!-- Node17 -->
<g id="node17" class="node"><title>Node17</title>
<g id="a_node17"><a xlink:href="utilities_8h.html" target="_top" xlink:title="Various templated functions that carry out common vector operations (see Templated Utility Functions)...">
<polygon fill="white" stroke="black" points="272,-180.5 272,-199.5 326,-199.5 326,-180.5 272,-180.5"/>
<text text-anchor="middle" x="299" y="-187.5" font-family="FreeSans" font-size="10.00">utilities.h</text>
</a>
</g>
</g>
<!-- Node16&#45;&gt;Node17 -->
<g id="edge17" class="edge"><title>Node16&#45;&gt;Node17</title>
<path fill="none" stroke="midnightblue" d="M400.827,-236.444C381.091,-227.636 350.115,-213.812 327.507,-203.722"/>
<polygon fill="midnightblue" stroke="midnightblue" points="328.641,-200.396 318.083,-199.516 325.789,-206.788 328.641,-200.396"/>
</g>
<!-- Node20 -->
<g id="node20" class="node"><title>Node20</title>
<polygon fill="white" stroke="#bfbfbf" points="349.5,-180.5 349.5,-199.5 402.5,-199.5 402.5,-180.5 349.5,-180.5"/>
<text text-anchor="middle" x="376" y="-187.5" font-family="FreeSans" font-size="10.00">iostream</text>
</g>
<!-- Node16&#45;&gt;Node20 -->
<g id="edge22" class="edge"><title>Node16&#45;&gt;Node20</title>
<path fill="none" stroke="midnightblue" d="M412.734,-236.083C406.455,-228.377 397.212,-217.033 389.569,-207.653"/>
<polygon fill="midnightblue" stroke="midnightblue" points="392.161,-205.293 383.131,-199.751 386.734,-209.714 392.161,-205.293"/>
</g>
<!-- Node21 -->
<g id="node21" class="node"><title>Node21</title>
<polygon fill="white" stroke="#bfbfbf" points="420.5,-180.5 420.5,-199.5 465.5,-199.5 465.5,-180.5 420.5,-180.5"/>
<text text-anchor="middle" x="443" y="-187.5" font-family="FreeSans" font-size="10.00">cstring</text>
</g>
<!-- Node16&#45;&gt;Node21 -->
<g id="edge23" class="edge"><title>Node16&#45;&gt;Node21</title>
<path fill="none" stroke="midnightblue" d="M423.798,-236.083C426.913,-228.77 431.423,-218.181 435.289,-209.103"/>
<polygon fill="midnightblue" stroke="midnightblue" points="438.574,-210.323 439.273,-199.751 432.134,-207.58 438.574,-210.323"/>
</g>
<!-- Node17&#45;&gt;Node3 -->
<g id="edge18" class="edge"><title>Node17&#45;&gt;Node3</title>
<path fill="none" stroke="midnightblue" d="M289.452,-180.27C280.772,-171.812 268.247,-158.21 261,-144 251.537,-125.444 246.623,-101.929 244.186,-85.797"/>
<polygon fill="midnightblue" stroke="midnightblue" points="247.609,-84.9821 242.82,-75.5312 240.67,-85.9055 247.609,-84.9821"/>
</g>
<!-- Node17&#45;&gt;Node14 -->
<g id="edge19" class="edge"><title>Node17&#45;&gt;Node14</title>
<path fill="none" stroke="midnightblue" d="M272.924,-180.403C241.434,-170.022 188.302,-152.506 152.942,-140.849"/>
<polygon fill="midnightblue" stroke="midnightblue" points="153.621,-137.388 143.028,-137.581 151.429,-144.036 153.621,-137.388"/>
</g>
<!-- Node18 -->
<g id="node18" class="node"><title>Node18</title>
<polygon fill="white" stroke="#bfbfbf" points="270,-118.5 270,-137.5 328,-137.5 328,-118.5 270,-118.5"/>
<text text-anchor="middle" x="299" y="-125.5" font-family="FreeSans" font-size="10.00">stdexcept</text>
</g>
<!-- Node17&#45;&gt;Node18 -->
<g id="edge20" class="edge"><title>Node17&#45;&gt;Node18</title>
<path fill="none" stroke="midnightblue" d="M299,-180.403C299,-171.938 299,-158.728 299,-147.82"/>
<polygon fill="midnightblue" stroke="midnightblue" points="302.5,-147.581 299,-137.581 295.5,-147.581 302.5,-147.581"/>
</g>
<!-- Node19 -->
<g id="node19" class="node"><title>Node19</title>
<polygon fill="white" stroke="#bfbfbf" points="346.5,-118.5 346.5,-137.5 397.5,-137.5 397.5,-118.5 346.5,-118.5"/>
<text text-anchor="middle" x="372" y="-125.5" font-family="FreeSans" font-size="10.00">numeric</text>
</g>
<!-- Node17&#45;&gt;Node19 -->
<g id="edge21" class="edge"><title>Node17&#45;&gt;Node19</title>
<path fill="none" stroke="midnightblue" d="M309.459,-180.403C320.951,-170.958 339.63,-155.606 353.587,-144.134"/>
<polygon fill="midnightblue" stroke="midnightblue" points="356.057,-146.634 361.56,-137.581 351.612,-141.226 356.057,-146.634"/>
</g>
<!-- Node22&#45;&gt;Node16 -->
<g id="edge27" class="edge"><title>Node22&#45;&gt;Node16</title>
<path fill="none" stroke="midnightblue" d="M428.349,-292.083C427.024,-284.927 425.118,-274.635 423.461,-265.691"/>
<polygon fill="midnightblue" stroke="midnightblue" points="426.883,-264.947 421.621,-255.751 420,-266.221 426.883,-264.947"/>
</g>
<!-- Node23 -->
<g id="node23" class="node"><title>Node23</title>
<g id="a_node23"><a xlink:href="vcs__SpeciesProperties_8h.html" target="_top" xlink:title="cantera/equil/vcs_Species\lProperties.h">
<polygon fill="white" stroke="black" points="425.5,-113 425.5,-143 554.5,-143 554.5,-113 425.5,-113"/>
<text text-anchor="start" x="433.5" y="-131" font-family="FreeSans" font-size="10.00">cantera/equil/vcs_Species</text>
<text text-anchor="middle" x="490" y="-120" font-family="FreeSans" font-size="10.00">Properties.h</text>
</a>
</g>
</g>
<!-- Node22&#45;&gt;Node23 -->
<g id="edge25" class="edge"><title>Node22&#45;&gt;Node23</title>
<path fill="none" stroke="midnightblue" d="M444.952,-292.41C456.988,-284.597 473.148,-271.877 481,-256 497.191,-223.262 496.231,-179.877 493.514,-153.227"/>
<polygon fill="midnightblue" stroke="midnightblue" points="496.983,-152.756 492.332,-143.237 490.031,-153.579 496.983,-152.756"/>
</g>
<!-- Node23&#45;&gt;Node3 -->
<g id="edge26" class="edge"><title>Node23&#45;&gt;Node3</title>
<path fill="none" stroke="midnightblue" d="M431.855,-112.933C387.641,-102.236 327.691,-87.7317 287.074,-77.905"/>
<polygon fill="midnightblue" stroke="midnightblue" points="287.728,-74.4624 277.186,-75.5127 286.082,-81.2661 287.728,-74.4624"/>
</g>
<!-- Node25 -->
<g id="node25" class="node"><title>Node25</title>
<polygon fill="white" stroke="#bfbfbf" points="559.5,-236.5 559.5,-255.5 602.5,-255.5 602.5,-236.5 559.5,-236.5"/>
<text text-anchor="middle" x="581" y="-243.5" font-family="FreeSans" font-size="10.00">time.h</text>
</g>
<!-- Node24&#45;&gt;Node25 -->
<g id="edge29" class="edge"><title>Node24&#45;&gt;Node25</title>
<path fill="none" stroke="midnightblue" d="M581,-292.083C581,-285.006 581,-274.861 581,-265.986"/>
<polygon fill="midnightblue" stroke="midnightblue" points="584.5,-265.751 581,-255.751 577.5,-265.751 584.5,-265.751"/>
</g>
</g>
</svg>
