<?xml version="1.0" encoding="UTF-8" standalone="no"?>
<!DOCTYPE svg PUBLIC "-//W3C//DTD SVG 1.1//EN"
 "http://www.w3.org/Graphics/SVG/1.1/DTD/svg11.dtd">
<!-- Generated by graphviz version 2.40.1 (20161225.0304)
 -->
<!-- Title: vcs_prob.cpp Pages: 1 -->
<svg width="1035pt" height="442pt"
 viewBox="0.00 0.00 1035.00 442.00" xmlns="http://www.w3.org/2000/svg" xmlns:xlink="http://www.w3.org/1999/xlink">
<g id="graph0" class="graph" transform="scale(1 1) rotate(0) translate(4 438)">
<title>vcs_prob.cpp</title>
<polygon fill="#ffffff" stroke="transparent" points="-4,4 -4,-438 1031,-438 1031,4 -4,4"/>
<!-- Node0 -->
<g id="node1" class="node">
<title>Node0</title>
<polygon fill="#bfbfbf" stroke="#000000" points="565,-414.5 565,-433.5 645,-433.5 645,-414.5 565,-414.5"/>
<text text-anchor="middle" x="605" y="-421.5" font-family="Helvetica,sans-Serif" font-size="10.00" fill="#000000">vcs_prob.cpp</text>
</g>
<!-- Node1 -->
<g id="node2" class="node">
<title>Node1</title>
<g id="a_node2"><a xlink:href="vcs__VolPhase_8h.html" target="_top" xlink:title="Header for the object representing each phase within vcs. ">
<polygon fill="#ffffff" stroke="#000000" points="0,-302.5 0,-321.5 158,-321.5 158,-302.5 0,-302.5"/>
<text text-anchor="middle" x="79" y="-309.5" font-family="Helvetica,sans-Serif" font-size="10.00" fill="#000000">cantera/equil/vcs_VolPhase.h</text>
</a>
</g>
</g>
<!-- Node0&#45;&gt;Node1 -->
<g id="edge1" class="edge">
<title>Node0&#45;&gt;Node1</title>
<path fill="none" stroke="#191970" d="M564.7858,-419.8879C505.646,-413.4145 391.9481,-399.3437 297,-378 232.1727,-363.4273 158.5286,-339.5508 115.5702,-324.8621"/>
<polygon fill="#191970" stroke="#191970" points="116.4452,-321.4618 105.8505,-321.516 114.1666,-328.0805 116.4452,-321.4618"/>
</g>
<!-- Node22 -->
<g id="node20" class="node">
<title>Node22</title>
<g id="a_node20"><a xlink:href="vcs__species__thermo_8h.html" target="_top" xlink:title="cantera/equil/vcs_species\l_thermo.h">
<polygon fill="#ffffff" stroke="#000000" points="814,-56.5 814,-86.5 956,-86.5 956,-56.5 814,-56.5"/>
<text text-anchor="start" x="822" y="-74.5" font-family="Helvetica,sans-Serif" font-size="10.00" fill="#000000">cantera/equil/vcs_species</text>
<text text-anchor="middle" x="885" y="-63.5" font-family="Helvetica,sans-Serif" font-size="10.00" fill="#000000">_thermo.h</text>
</a>
</g>
</g>
<!-- Node0&#45;&gt;Node22 -->
<g id="edge21" class="edge">
<title>Node0&#45;&gt;Node22</title>
<path fill="none" stroke="#191970" d="M645.0045,-420.8415C727.8869,-413.952 912.465,-396.6869 934,-378 957.0548,-357.9943 953,-342.5246 953,-312 953,-312 953,-312 953,-189 953,-152.0554 927.5056,-116.3008 907.7376,-94.13"/>
<polygon fill="#191970" stroke="#191970" points="910.1314,-91.5636 900.7715,-86.5994 904.9927,-96.317 910.1314,-91.5636"/>
</g>
<!-- Node23 -->
<g id="node21" class="node">
<title>Node23</title>
<g id="a_node21"><a xlink:href="vcs__internal_8h.html" target="_top" xlink:title="Internal declarations for the VCSnonideal package. ">
<polygon fill="#ffffff" stroke="#000000" points="214,-302.5 214,-321.5 366,-321.5 366,-302.5 214,-302.5"/>
<text text-anchor="middle" x="290" y="-309.5" font-family="Helvetica,sans-Serif" font-size="10.00" fill="#000000">cantera/equil/vcs_internal.h</text>
</a>
</g>
</g>
<!-- Node0&#45;&gt;Node23 -->
<g id="edge23" class="edge">
<title>Node0&#45;&gt;Node23</title>
<path fill="none" stroke="#191970" d="M564.8807,-422.512C494.4861,-419.1261 352.6138,-408.6045 315,-378 301.2159,-366.7846 295.0261,-347.0939 292.2499,-332.1305"/>
<polygon fill="#191970" stroke="#191970" points="295.6513,-331.2069 290.7231,-321.8281 288.727,-332.2332 295.6513,-331.2069"/>
</g>
<!-- Node24 -->
<g id="node22" class="node">
<title>Node24</title>
<g id="a_node22"><a xlink:href="vcs__defs_8h.html" target="_top" xlink:title="Defines and definitions within the vcs package. ">
<polygon fill="#ffffff" stroke="#000000" points="422.5,-302.5 422.5,-321.5 557.5,-321.5 557.5,-302.5 422.5,-302.5"/>
<text text-anchor="middle" x="490" y="-309.5" font-family="Helvetica,sans-Serif" font-size="10.00" fill="#000000">cantera/equil/vcs_defs.h</text>
</a>
</g>
</g>
<!-- Node0&#45;&gt;Node24 -->
<g id="edge25" class="edge">
<title>Node0&#45;&gt;Node24</title>
<path fill="none" stroke="#191970" d="M595.1952,-414.4509C575.5902,-395.3574 531.3484,-352.2697 506.9485,-328.5063"/>
<polygon fill="#191970" stroke="#191970" points="509.3859,-325.9946 499.78,-321.5249 504.502,-331.0093 509.3859,-325.9946"/>
</g>
<!-- Node25 -->
<g id="node23" class="node">
<title>Node25</title>
<g id="a_node23"><a xlink:href="vcs__solve_8h.html" target="_top" xlink:title="Header file for the internal object that holds the vcs equilibrium problem (see Class VCS_SOLVE and E...">
<polygon fill="#ffffff" stroke="#000000" points="324,-358.5 324,-377.5 464,-377.5 464,-358.5 324,-358.5"/>
<text text-anchor="middle" x="394" y="-365.5" font-family="Helvetica,sans-Serif" font-size="10.00" fill="#000000">cantera/equil/vcs_solve.h</text>
</a>
</g>
</g>
<!-- Node0&#45;&gt;Node25 -->
<g id="edge26" class="edge">
<title>Node0&#45;&gt;Node25</title>
<path fill="none" stroke="#191970" d="M568.7278,-414.3733C533.0342,-404.9001 478.4121,-390.4032 439.7549,-380.1435"/>
<polygon fill="#191970" stroke="#191970" points="440.3621,-376.6835 429.7989,-377.5011 438.5664,-383.4493 440.3621,-376.6835"/>
</g>
<!-- Node26 -->
<g id="node24" class="node">
<title>Node26</title>
<g id="a_node24"><a xlink:href="MolalityVPSSTP_8h.html" target="_top" xlink:title="Header for intermediate ThermoPhase object for phases which employ molality based activity coefficien...">
<polygon fill="#ffffff" stroke="#000000" points="747,-358.5 747,-377.5 925,-377.5 925,-358.5 747,-358.5"/>
<text text-anchor="middle" x="836" y="-365.5" font-family="Helvetica,sans-Serif" font-size="10.00" fill="#000000">cantera/thermo/MolalityVPSSTP.h</text>
</a>
</g>
</g>
<!-- Node0&#45;&gt;Node26 -->
<g id="edge31" class="edge">
<title>Node0&#45;&gt;Node26</title>
<path fill="none" stroke="#191970" d="M644.4478,-414.4369C683.8156,-404.8932 744.4034,-390.2052 786.8708,-379.9101"/>
<polygon fill="#191970" stroke="#191970" points="787.821,-383.2812 796.7149,-377.5237 786.1717,-376.4783 787.821,-383.2812"/>
</g>
<!-- Node45 -->
<g id="node31" class="node">
<title>Node45</title>
<g id="a_node31"><a xlink:href="MultiPhase_8h.html" target="_top" xlink:title="Headers for the MultiPhase object that is used to set up multiphase equilibrium problems (see Equilfu...">
<polygon fill="#ffffff" stroke="#000000" points="583,-358.5 583,-377.5 729,-377.5 729,-358.5 583,-358.5"/>
<text text-anchor="middle" x="656" y="-365.5" font-family="Helvetica,sans-Serif" font-size="10.00" fill="#000000">cantera/equil/MultiPhase.h</text>
</a>
</g>
</g>
<!-- Node0&#45;&gt;Node45 -->
<g id="edge40" class="edge">
<title>Node0&#45;&gt;Node45</title>
<path fill="none" stroke="#191970" d="M613.8835,-414.2455C621.1966,-406.2155 631.7391,-394.6394 640.4467,-385.0781"/>
<polygon fill="#191970" stroke="#191970" points="643.0727,-387.3928 647.2183,-377.6427 637.8972,-382.6795 643.0727,-387.3928"/>
</g>
<!-- Node47 -->
<g id="node33" class="node">
<title>Node47</title>
<polygon fill="#ffffff" stroke="#bfbfbf" points="981,-358.5 981,-377.5 1027,-377.5 1027,-358.5 981,-358.5"/>
<text text-anchor="middle" x="1004" y="-365.5" font-family="Helvetica,sans-Serif" font-size="10.00" fill="#000000">cstdio</text>
</g>
<!-- Node0&#45;&gt;Node47 -->
<g id="edge46" class="edge">
<title>Node0&#45;&gt;Node47</title>
<path fill="none" stroke="#191970" d="M645.1965,-420.7128C712.3119,-414.8184 851.2462,-400.8841 967,-378 968.2484,-377.7532 969.5168,-377.4874 970.7952,-377.207"/>
<polygon fill="#191970" stroke="#191970" points="971.7246,-380.5833 980.6266,-374.8383 970.085,-373.778 971.7246,-380.5833"/>
</g>
<!-- Node2 -->
<g id="node3" class="node">
<title>Node2</title>
<g id="a_node3"><a xlink:href="vcs__SpeciesProperties_8h.html" target="_top" xlink:title="cantera/equil/vcs_Species\lProperties.h">
<polygon fill="#ffffff" stroke="#000000" points="7.5,-235.5 7.5,-265.5 150.5,-265.5 150.5,-235.5 7.5,-235.5"/>
<text text-anchor="start" x="15.5" y="-253.5" font-family="Helvetica,sans-Serif" font-size="10.00" fill="#000000">cantera/equil/vcs_Species</text>
<text text-anchor="middle" x="79" y="-242.5" font-family="Helvetica,sans-Serif" font-size="10.00" fill="#000000">Properties.h</text>
</a>
</g>
</g>
<!-- Node1&#45;&gt;Node2 -->
<g id="edge2" class="edge">
<title>Node1&#45;&gt;Node2</title>
<path fill="none" stroke="#191970" d="M79,-302.3906C79,-295.2234 79,-285.0862 79,-275.671"/>
<polygon fill="#191970" stroke="#191970" points="82.5001,-275.5446 79,-265.5446 75.5001,-275.5446 82.5001,-275.5446"/>
</g>
<!-- Node12 -->
<g id="node13" class="node">
<title>Node12</title>
<g id="a_node13"><a xlink:href="Array_8h.html" target="_top" xlink:title="Header file for class Cantera::Array2D. ">
<polygon fill="#ffffff" stroke="#000000" points="169,-241 169,-260 285,-260 285,-241 169,-241"/>
<text text-anchor="middle" x="227" y="-248" font-family="Helvetica,sans-Serif" font-size="10.00" fill="#000000">cantera/base/Array.h</text>
</a>
</g>
</g>
<!-- Node1&#45;&gt;Node12 -->
<g id="edge12" class="edge">
<title>Node1&#45;&gt;Node12</title>
<path fill="none" stroke="#191970" d="M102.125,-302.3906C126.9967,-292.0554 166.7298,-275.5447 194.6844,-263.9284"/>
<polygon fill="#191970" stroke="#191970" points="196.146,-267.1113 204.0374,-260.0419 193.4598,-260.6472 196.146,-267.1113"/>
</g>
<!-- Node3 -->
<g id="node4" class="node">
<title>Node3</title>
<g id="a_node4"><a xlink:href="ct__defs_8h.html" target="_top" xlink:title="This file contains definitions of terms that are used in internal routines and are unlikely to need m...">
<polygon fill="#ffffff" stroke="#000000" points="330.5,-62 330.5,-81 457.5,-81 457.5,-62 330.5,-62"/>
<text text-anchor="middle" x="394" y="-69" font-family="Helvetica,sans-Serif" font-size="10.00" fill="#000000">cantera/base/ct_defs.h</text>
</a>
</g>
</g>
<!-- Node2&#45;&gt;Node3 -->
<g id="edge3" class="edge">
<title>Node2&#45;&gt;Node3</title>
<path fill="none" stroke="#191970" d="M76.7605,-235.4599C73.7186,-208.7837 71.7222,-153.16 102,-123 132.0169,-93.0998 244.1609,-80.3586 320.405,-75.0722"/>
<polygon fill="#191970" stroke="#191970" points="320.7011,-78.5603 330.4468,-74.4043 320.2365,-71.5757 320.7011,-78.5603"/>
</g>
<!-- Node4 -->
<g id="node5" class="node">
<title>Node4</title>
<g id="a_node5"><a xlink:href="config_8h_source.html" target="_top" xlink:title="config.h">
<polygon fill="#ffffff" stroke="#000000" points="520.5,-.5 520.5,-19.5 575.5,-19.5 575.5,-.5 520.5,-.5"/>
<text text-anchor="middle" x="548" y="-7.5" font-family="Helvetica,sans-Serif" font-size="10.00" fill="#000000">config.h</text>
</a>
</g>
</g>
<!-- Node3&#45;&gt;Node4 -->
<g id="edge4" class="edge">
<title>Node3&#45;&gt;Node4</title>
<path fill="none" stroke="#191970" d="M418.0625,-61.8906C444.0556,-51.5103 485.6478,-34.9004 514.7547,-23.2766"/>
<polygon fill="#191970" stroke="#191970" points="516.1177,-26.5011 524.1065,-19.5419 513.5215,-20.0003 516.1177,-26.5011"/>
</g>
<!-- Node5 -->
<g id="node6" class="node">
<title>Node5</title>
<polygon fill="#ffffff" stroke="#bfbfbf" points="593.5,-.5 593.5,-19.5 640.5,-19.5 640.5,-.5 593.5,-.5"/>
<text text-anchor="middle" x="617" y="-7.5" font-family="Helvetica,sans-Serif" font-size="10.00" fill="#000000">cmath</text>
</g>
<!-- Node3&#45;&gt;Node5 -->
<g id="edge5" class="edge">
<title>Node3&#45;&gt;Node5</title>
<path fill="none" stroke="#191970" d="M430.5132,-61.9457C466.8117,-52.3717 524.3142,-37.0014 583.3596,-20.1257"/>
<polygon fill="#191970" stroke="#191970" points="584.5844,-23.4156 593.2318,-17.294 582.6543,-16.6869 584.5844,-23.4156"/>
</g>
<!-- Node6 -->
<g id="node7" class="node">
<title>Node6</title>
<polygon fill="#ffffff" stroke="#bfbfbf" points="793.5,-.5 793.5,-19.5 842.5,-19.5 842.5,-.5 793.5,-.5"/>
<text text-anchor="middle" x="818" y="-7.5" font-family="Helvetica,sans-Serif" font-size="10.00" fill="#000000">cstdlib</text>
</g>
<!-- Node3&#45;&gt;Node6 -->
<g id="edge6" class="edge">
<title>Node3&#45;&gt;Node6</title>
<path fill="none" stroke="#191970" d="M457.9362,-62.2262C548.596,-49.0763 711.4111,-25.4604 782.8154,-15.1034"/>
<polygon fill="#191970" stroke="#191970" points="783.6731,-18.5157 793.0671,-13.6164 782.6683,-11.5882 783.6731,-18.5157"/>
</g>
<!-- Node7 -->
<g id="node8" class="node">
<title>Node7</title>
<polygon fill="#ffffff" stroke="#bfbfbf" points="178.5,-.5 178.5,-19.5 225.5,-19.5 225.5,-.5 178.5,-.5"/>
<text text-anchor="middle" x="202" y="-7.5" font-family="Helvetica,sans-Serif" font-size="10.00" fill="#000000">vector</text>
</g>
<!-- Node3&#45;&gt;Node7 -->
<g id="edge7" class="edge">
<title>Node3&#45;&gt;Node7</title>
<path fill="none" stroke="#191970" d="M364,-61.8906C329.1014,-50.7122 271.6488,-32.3094 235.3702,-20.6889"/>
<polygon fill="#191970" stroke="#191970" points="236.3266,-17.3201 225.7355,-17.6028 234.1912,-23.9865 236.3266,-17.3201"/>
</g>
<!-- Node8 -->
<g id="node9" class="node">
<title>Node8</title>
<polygon fill="#ffffff" stroke="#bfbfbf" points="244,-.5 244,-19.5 282,-19.5 282,-.5 244,-.5"/>
<text text-anchor="middle" x="263" y="-7.5" font-family="Helvetica,sans-Serif" font-size="10.00" fill="#000000">map</text>
</g>
<!-- Node3&#45;&gt;Node8 -->
<g id="edge8" class="edge">
<title>Node3&#45;&gt;Node8</title>
<path fill="none" stroke="#191970" d="M373.5313,-61.8906C351.4237,-51.5119 316.0507,-34.9055 291.2915,-23.2819"/>
<polygon fill="#191970" stroke="#191970" points="292.588,-20.0241 282.0485,-18.9426 289.6132,-26.3606 292.588,-20.0241"/>
</g>
<!-- Node9 -->
<g id="node10" class="node">
<title>Node9</title>
<polygon fill="#ffffff" stroke="#bfbfbf" points="300,-.5 300,-19.5 344,-19.5 344,-.5 300,-.5"/>
<text text-anchor="middle" x="322" y="-7.5" font-family="Helvetica,sans-Serif" font-size="10.00" fill="#000000">string</text>
</g>
<!-- Node3&#45;&gt;Node9 -->
<g id="edge9" class="edge">
<title>Node3&#45;&gt;Node9</title>
<path fill="none" stroke="#191970" d="M382.75,-61.8906C371.614,-52.3786 354.354,-37.6357 341.0732,-26.2917"/>
<polygon fill="#191970" stroke="#191970" points="343.2856,-23.5784 333.4086,-19.7449 338.7392,-28.9011 343.2856,-23.5784"/>
</g>
<!-- Node10 -->
<g id="node11" class="node">
<title>Node10</title>
<polygon fill="#ffffff" stroke="#bfbfbf" points="362,-.5 362,-19.5 426,-19.5 426,-.5 362,-.5"/>
<text text-anchor="middle" x="394" y="-7.5" font-family="Helvetica,sans-Serif" font-size="10.00" fill="#000000">algorithm</text>
</g>
<!-- Node3&#45;&gt;Node10 -->
<g id="edge10" class="edge">
<title>Node3&#45;&gt;Node10</title>
<path fill="none" stroke="#191970" d="M394,-61.8906C394,-53.3657 394,-40.6392 394,-29.9235"/>
<polygon fill="#191970" stroke="#191970" points="397.5001,-29.7448 394,-19.7449 390.5001,-29.7449 397.5001,-29.7448"/>
</g>
<!-- Node11 -->
<g id="node12" class="node">
<title>Node11</title>
<polygon fill="#ffffff" stroke="#bfbfbf" points="444,-.5 444,-19.5 502,-19.5 502,-.5 444,-.5"/>
<text text-anchor="middle" x="473" y="-7.5" font-family="Helvetica,sans-Serif" font-size="10.00" fill="#000000">memory</text>
</g>
<!-- Node3&#45;&gt;Node11 -->
<g id="edge11" class="edge">
<title>Node3&#45;&gt;Node11</title>
<path fill="none" stroke="#191970" d="M406.3438,-61.8906C418.7503,-52.2324 438.0843,-37.1812 452.7413,-25.771"/>
<polygon fill="#191970" stroke="#191970" points="455.0021,-28.4466 460.7429,-19.5419 450.7021,-22.923 455.0021,-28.4466"/>
</g>
<!-- Node13 -->
<g id="node14" class="node">
<title>Node13</title>
<g id="a_node14"><a xlink:href="utilities_8h.html" target="_top" xlink:title="Various templated functions that carry out common vector operations (see Templated Utility Functions)...">
<polygon fill="#ffffff" stroke="#000000" points="117,-179.5 117,-198.5 179,-198.5 179,-179.5 117,-179.5"/>
<text text-anchor="middle" x="148" y="-186.5" font-family="Helvetica,sans-Serif" font-size="10.00" fill="#000000">utilities.h</text>
</a>
</g>
</g>
<!-- Node12&#45;&gt;Node13 -->
<g id="edge13" class="edge">
<title>Node12&#45;&gt;Node13</title>
<path fill="none" stroke="#191970" d="M214.6563,-240.8906C202.2497,-231.2324 182.9157,-216.1812 168.2587,-204.771"/>
<polygon fill="#191970" stroke="#191970" points="170.2979,-201.923 160.2571,-198.5419 165.9979,-207.4466 170.2979,-201.923"/>
</g>
<!-- Node20 -->
<g id="node18" class="node">
<title>Node20</title>
<polygon fill="#ffffff" stroke="#bfbfbf" points="197,-179.5 197,-198.5 257,-198.5 257,-179.5 197,-179.5"/>
<text text-anchor="middle" x="227" y="-186.5" font-family="Helvetica,sans-Serif" font-size="10.00" fill="#000000">iostream</text>
</g>
<!-- Node12&#45;&gt;Node20 -->
<g id="edge19" class="edge">
<title>Node12&#45;&gt;Node20</title>
<path fill="none" stroke="#191970" d="M227,-240.8906C227,-232.3657 227,-219.6392 227,-208.9235"/>
<polygon fill="#191970" stroke="#191970" points="230.5001,-208.7448 227,-198.7449 223.5001,-208.7449 230.5001,-208.7448"/>
</g>
<!-- Node21 -->
<g id="node19" class="node">
<title>Node21</title>
<polygon fill="#ffffff" stroke="#bfbfbf" points="275,-179.5 275,-198.5 325,-198.5 325,-179.5 275,-179.5"/>
<text text-anchor="middle" x="300" y="-186.5" font-family="Helvetica,sans-Serif" font-size="10.00" fill="#000000">cstring</text>
</g>
<!-- Node12&#45;&gt;Node21 -->
<g id="edge20" class="edge">
<title>Node12&#45;&gt;Node21</title>
<path fill="none" stroke="#191970" d="M238.4063,-240.8906C249.6969,-231.3786 267.1967,-216.6357 280.6619,-205.2917"/>
<polygon fill="#191970" stroke="#191970" points="283.0402,-207.8646 288.4329,-198.7449 278.5301,-202.5111 283.0402,-207.8646"/>
</g>
<!-- Node13&#45;&gt;Node3 -->
<g id="edge14" class="edge">
<title>Node13&#45;&gt;Node3</title>
<path fill="none" stroke="#191970" d="M173.2229,-179.4773C196.1298,-170.6323 230.7107,-156.7863 260,-143 298.4594,-124.8974 341.6169,-101.2419 368.3058,-86.2049"/>
<polygon fill="#191970" stroke="#191970" points="370.3771,-89.0542 377.3542,-81.0811 366.9279,-82.963 370.3771,-89.0542"/>
</g>
<!-- Node14 -->
<g id="node15" class="node">
<title>Node14</title>
<g id="a_node15"><a xlink:href="global_8h.html" target="_top" xlink:title="This file contains definitions for utility functions and text for modules, inputfiles, logs, textlogs, (see Input File Handling, Diagnostic Output, and Writing messages to the screen). ">
<polygon fill="#ffffff" stroke="#ff0000" points="310,-123.5 310,-142.5 366,-142.5 366,-123.5 310,-123.5"/>
<text text-anchor="middle" x="338" y="-130.5" font-family="Helvetica,sans-Serif" font-size="10.00" fill="#000000">global.h</text>
</a>
</g>
</g>
<!-- Node13&#45;&gt;Node14 -->
<g id="edge15" class="edge">
<title>Node13&#45;&gt;Node14</title>
<path fill="none" stroke="#191970" d="M179.3746,-179.7527C212.471,-169.998 264.6348,-154.6234 300.03,-144.1912"/>
<polygon fill="#191970" stroke="#191970" points="301.3847,-147.4408 309.9872,-141.2564 299.4056,-140.7264 301.3847,-147.4408"/>
</g>
<!-- Node18 -->
<g id="node16" class="node">
<title>Node18</title>
<polygon fill="#ffffff" stroke="#bfbfbf" points="111.5,-123.5 111.5,-142.5 176.5,-142.5 176.5,-123.5 111.5,-123.5"/>
<text text-anchor="middle" x="144" y="-130.5" font-family="Helvetica,sans-Serif" font-size="10.00" fill="#000000">stdexcept</text>
</g>
<!-- Node13&#45;&gt;Node18 -->
<g id="edge17" class="edge">
<title>Node13&#45;&gt;Node18</title>
<path fill="none" stroke="#191970" d="M147.3033,-179.2455C146.7813,-171.9382 146.0496,-161.6944 145.4075,-152.7046"/>
<polygon fill="#191970" stroke="#191970" points="148.8924,-152.3679 144.6888,-142.6427 141.9102,-152.8667 148.8924,-152.3679"/>
</g>
<!-- Node19 -->
<g id="node17" class="node">
<title>Node19</title>
<polygon fill="#ffffff" stroke="#bfbfbf" points="195,-123.5 195,-142.5 251,-142.5 251,-123.5 195,-123.5"/>
<text text-anchor="middle" x="223" y="-130.5" font-family="Helvetica,sans-Serif" font-size="10.00" fill="#000000">numeric</text>
</g>
<!-- Node13&#45;&gt;Node19 -->
<g id="edge18" class="edge">
<title>Node13&#45;&gt;Node19</title>
<path fill="none" stroke="#191970" d="M161.064,-179.2455C172.3562,-170.814 188.8845,-158.4729 202.0271,-148.6598"/>
<polygon fill="#191970" stroke="#191970" points="204.1669,-151.4301 210.0857,-142.6427 199.9789,-145.8211 204.1669,-151.4301"/>
</g>
<!-- Node14&#45;&gt;Node3 -->
<g id="edge16" class="edge">
<title>Node14&#45;&gt;Node3</title>
<path fill="none" stroke="#191970" d="M346.75,-123.3906C355.1662,-114.1478 368.0797,-99.966 378.281,-88.7628"/>
<polygon fill="#191970" stroke="#191970" points="380.9818,-90.9953 385.1266,-81.2449 375.806,-86.2824 380.9818,-90.9953"/>
</g>
<!-- Node22&#45;&gt;Node6 -->
<g id="edge22" class="edge">
<title>Node22&#45;&gt;Node6</title>
<path fill="none" stroke="#191970" d="M868.4382,-56.2977C858.6535,-47.3163 846.2526,-35.9334 836.1957,-26.702"/>
<polygon fill="#191970" stroke="#191970" points="838.4613,-24.0307 828.7275,-19.8469 833.7278,-29.1876 838.4613,-24.0307"/>
</g>
<!-- Node23&#45;&gt;Node14 -->
<g id="edge24" class="edge">
<title>Node23&#45;&gt;Node14</title>
<path fill="none" stroke="#191970" d="M294.9526,-302.3464C304.4931,-283.2173 325.2495,-238.894 334,-199 337.3479,-183.7366 338.2664,-166.0442 338.3925,-152.8217"/>
<polygon fill="#191970" stroke="#191970" points="341.891,-152.5082 338.3404,-142.526 334.8911,-152.5436 341.891,-152.5082"/>
</g>
<!-- Node25&#45;&gt;Node3 -->
<g id="edge27" class="edge">
<title>Node25&#45;&gt;Node3</title>
<path fill="none" stroke="#191970" d="M394,-358.2511C394,-338.1182 394,-290.4826 394,-250.5 394,-250.5 394,-250.5 394,-189 394,-154.6399 394,-114.628 394,-91.2764"/>
<polygon fill="#191970" stroke="#191970" points="397.5001,-91.2489 394,-81.2489 390.5001,-91.249 397.5001,-91.2489"/>
</g>
<!-- Node25&#45;&gt;Node12 -->
<g id="edge30" class="edge">
<title>Node25&#45;&gt;Node12</title>
<path fill="none" stroke="#191970" d="M323.7554,-359.974C276.3454,-352.9439 219.8146,-340.8527 205,-322 192.7914,-306.4636 202.8641,-284.1405 213.0466,-268.5848"/>
<polygon fill="#191970" stroke="#191970" points="215.9799,-270.4984 218.887,-260.3102 210.261,-266.4618 215.9799,-270.4984"/>
</g>
<!-- Node25&#45;&gt;Node23 -->
<g id="edge29" class="edge">
<title>Node25&#45;&gt;Node23</title>
<path fill="none" stroke="#191970" d="M375.8846,-358.2455C359.555,-349.4527 335.329,-336.4079 316.7661,-326.4125"/>
<polygon fill="#191970" stroke="#191970" points="318.3719,-323.3021 307.9078,-321.6427 315.0532,-329.4654 318.3719,-323.3021"/>
</g>
<!-- Node25&#45;&gt;Node24 -->
<g id="edge28" class="edge">
<title>Node25&#45;&gt;Node24</title>
<path fill="none" stroke="#191970" d="M410.7219,-358.2455C425.5889,-349.5731 447.5466,-336.7645 464.5858,-326.825"/>
<polygon fill="#191970" stroke="#191970" points="466.5955,-329.7047 473.4697,-321.6427 463.0683,-323.6582 466.5955,-329.7047"/>
</g>
<!-- Node27 -->
<g id="node25" class="node">
<title>Node27</title>
<g id="a_node25"><a xlink:href="VPStandardStateTP_8h.html" target="_top" xlink:title="Header file for a derived class of ThermoPhase that handles variable pressure standard state methods ...">
<polygon fill="#ffffff" stroke="#000000" points="807,-302.5 807,-321.5 925,-321.5 925,-302.5 807,-302.5"/>
<text text-anchor="middle" x="866" y="-309.5" font-family="Helvetica,sans-Serif" font-size="10.00" fill="#000000">VPStandardStateTP.h</text>
</a>
</g>
</g>
<!-- Node26&#45;&gt;Node27 -->
<g id="edge32" class="edge">
<title>Node26&#45;&gt;Node27</title>
<path fill="none" stroke="#191970" d="M841.2256,-358.2455C845.3123,-350.617 851.1135,-339.7881 856.075,-330.5267"/>
<polygon fill="#191970" stroke="#191970" points="859.1972,-332.1103 860.8343,-321.6427 853.0268,-328.8047 859.1972,-332.1103"/>
</g>
<!-- Node28 -->
<g id="node26" class="node">
<title>Node28</title>
<g id="a_node26"><a xlink:href="ThermoPhase_8h.html" target="_top" xlink:title="Header file for class ThermoPhase, the base class for phases with thermodynamic properties, and the text for the Module thermoprops (see Thermodynamic Properties and class ThermoPhase). ">
<polygon fill="#ffffff" stroke="#000000" points="731,-241 731,-260 823,-260 823,-241 731,-241"/>
<text text-anchor="middle" x="777" y="-248" font-family="Helvetica,sans-Serif" font-size="10.00" fill="#000000">ThermoPhase.h</text>
</a>
</g>
</g>
<!-- Node27&#45;&gt;Node28 -->
<g id="edge33" class="edge">
<title>Node27&#45;&gt;Node28</title>
<path fill="none" stroke="#191970" d="M852.0938,-302.3906C837.9862,-292.6421 815.9276,-277.3994 799.3615,-265.9521"/>
<polygon fill="#191970" stroke="#191970" points="801.0253,-262.8474 790.8086,-260.0419 797.0458,-268.6063 801.0253,-262.8474"/>
</g>
<!-- Node44 -->
<g id="node30" class="node">
<title>Node44</title>
<g id="a_node30"><a xlink:href="PDSS_8h.html" target="_top" xlink:title="Declarations for the virtual base class PDSS (pressure dependent standard state) which handles calcul...">
<polygon fill="#ffffff" stroke="#000000" points="841.5,-241 841.5,-260 892.5,-260 892.5,-241 841.5,-241"/>
<text text-anchor="middle" x="867" y="-248" font-family="Helvetica,sans-Serif" font-size="10.00" fill="#000000">PDSS.h</text>
</a>
</g>
</g>
<!-- Node27&#45;&gt;Node44 -->
<g id="edge38" class="edge">
<title>Node27&#45;&gt;Node44</title>
<path fill="none" stroke="#191970" d="M866.1563,-302.3906C866.2949,-293.8657 866.5018,-281.1392 866.676,-270.4235"/>
<polygon fill="#191970" stroke="#191970" points="870.1784,-270.3005 866.8415,-260.2449 863.1793,-270.1866 870.1784,-270.3005"/>
</g>
<!-- Node28&#45;&gt;Node14 -->
<g id="edge37" class="edge">
<title>Node28&#45;&gt;Node14</title>
<path fill="none" stroke="#191970" d="M741.4466,-240.984C659.9316,-219.1662 460.1379,-165.6907 376.1624,-143.2143"/>
<polygon fill="#191970" stroke="#191970" points="376.8412,-139.7729 366.2763,-140.5682 375.0313,-146.5348 376.8412,-139.7729"/>
</g>
<!-- Node29 -->
<g id="node27" class="node">
<title>Node29</title>
<g id="a_node27"><a xlink:href="Phase_8h.html" target="_top" xlink:title="Header file for class Phase. ">
<polygon fill="#ffffff" stroke="#ff0000" points="783.5,-179.5 783.5,-198.5 838.5,-198.5 838.5,-179.5 783.5,-179.5"/>
<text text-anchor="middle" x="811" y="-186.5" font-family="Helvetica,sans-Serif" font-size="10.00" fill="#000000">Phase.h</text>
</a>
</g>
</g>
<!-- Node28&#45;&gt;Node29 -->
<g id="edge34" class="edge">
<title>Node28&#45;&gt;Node29</title>
<path fill="none" stroke="#191970" d="M782.3125,-240.8906C787.2239,-232.0068 794.6579,-218.5601 800.7275,-207.5811"/>
<polygon fill="#191970" stroke="#191970" points="803.8373,-209.1899 805.6126,-198.7449 797.7112,-205.8031 803.8373,-209.1899"/>
</g>
<!-- Node41 -->
<g id="node29" class="node">
<title>Node41</title>
<g id="a_node29"><a xlink:href="MultiSpeciesThermo_8h.html" target="_top" xlink:title="Header for a general species thermodynamic property manager for a phase (see MultiSpeciesThermo). ">
<polygon fill="#ffffff" stroke="#ff0000" points="640.5,-179.5 640.5,-198.5 765.5,-198.5 765.5,-179.5 640.5,-179.5"/>
<text text-anchor="middle" x="703" y="-186.5" font-family="Helvetica,sans-Serif" font-size="10.00" fill="#000000">MultiSpeciesThermo.h</text>
</a>
</g>
</g>
<!-- Node28&#45;&gt;Node41 -->
<g id="edge36" class="edge">
<title>Node28&#45;&gt;Node41</title>
<path fill="none" stroke="#191970" d="M765.4375,-240.8906C753.9921,-231.3786 736.2527,-216.6357 722.603,-205.2917"/>
<polygon fill="#191970" stroke="#191970" points="724.6533,-202.4447 714.7255,-198.7449 720.1792,-207.8283 724.6533,-202.4447"/>
</g>
<!-- Node30 -->
<g id="node28" class="node">
<title>Node30</title>
<g id="a_node28"><a xlink:href="ctexceptions_8h.html" target="_top" xlink:title="Definitions for the classes that are thrown when Cantera experiences an error condition (also contain...">
<polygon fill="#ffffff" stroke="#ff0000" points="610,-123.5 610,-142.5 764,-142.5 764,-123.5 610,-123.5"/>
<text text-anchor="middle" x="687" y="-130.5" font-family="Helvetica,sans-Serif" font-size="10.00" fill="#000000">cantera/base/ctexceptions.h</text>
</a>
</g>
</g>
<!-- Node29&#45;&gt;Node30 -->
<g id="edge35" class="edge">
<title>Node29&#45;&gt;Node30</title>
<path fill="none" stroke="#191970" d="M789.6836,-179.3733C769.7784,-170.3838 739.8564,-156.8706 717.44,-146.7471"/>
<polygon fill="#191970" stroke="#191970" points="718.5925,-143.4272 708.0382,-142.5011 715.7113,-149.8068 718.5925,-143.4272"/>
</g>
<!-- Node44&#45;&gt;Node3 -->
<g id="edge39" class="edge">
<title>Node44&#45;&gt;Node3</title>
<path fill="none" stroke="#191970" d="M866.4375,-240.885C865.1734,-226.3334 861.0944,-198.3643 848,-179 824.6972,-144.5392 811.5045,-138.747 773,-123 719.2582,-101.0215 562.0804,-85.0384 467.8629,-77.1158"/>
<polygon fill="#191970" stroke="#191970" points="468.078,-73.6217 457.8226,-76.2819 467.4986,-80.5976 468.078,-73.6217"/>
</g>
<!-- Node45&#45;&gt;Node28 -->
<g id="edge45" class="edge">
<title>Node45&#45;&gt;Node28</title>
<path fill="none" stroke="#191970" d="M699.5155,-358.4365C720.6527,-351.6458 744.7222,-340.3649 760,-322 772.0819,-307.4768 775.8749,-285.8356 776.9255,-270.1683"/>
<polygon fill="#191970" stroke="#191970" points="780.4293,-270.1205 777.2852,-260.003 773.4337,-269.8729 780.4293,-270.1205"/>
</g>
<!-- Node46 -->
<g id="node32" class="node">
<title>Node46</title>
<g id="a_node32"><a xlink:href="DenseMatrix_8h.html" target="_top" xlink:title="Headers for the DenseMatrix object, which deals with dense rectangular matrices and description of th...">
<polygon fill="#ffffff" stroke="#000000" points="575.5,-302.5 575.5,-321.5 750.5,-321.5 750.5,-302.5 575.5,-302.5"/>
<text text-anchor="middle" x="663" y="-309.5" font-family="Helvetica,sans-Serif" font-size="10.00" fill="#000000">cantera/numerics/DenseMatrix.h</text>
</a>
</g>
</g>
<!-- Node45&#45;&gt;Node46 -->
<g id="edge41" class="edge">
<title>Node45&#45;&gt;Node46</title>
<path fill="none" stroke="#191970" d="M657.2193,-358.2455C658.1327,-350.9382 659.4132,-340.6944 660.5369,-331.7046"/>
<polygon fill="#191970" stroke="#191970" points="664.0272,-331.9996 661.7947,-321.6427 657.0813,-331.1313 664.0272,-331.9996"/>
</g>
<!-- Node46&#45;&gt;Node3 -->
<g id="edge42" class="edge">
<title>Node46&#45;&gt;Node3</title>
<path fill="none" stroke="#191970" d="M652.1217,-302.2742C610.9676,-265.4803 464.5089,-134.5386 412.4935,-88.0341"/>
<polygon fill="#191970" stroke="#191970" points="414.5067,-85.1392 404.7189,-81.0833 409.8411,-90.3577 414.5067,-85.1392"/>
</g>
<!-- Node46&#45;&gt;Node12 -->
<g id="edge44" class="edge">
<title>Node46&#45;&gt;Node12</title>
<path fill="none" stroke="#191970" d="M595.3534,-302.4581C513.6118,-290.928 376.882,-271.6416 294.9878,-260.09"/>
<polygon fill="#191970" stroke="#191970" points="295.4256,-256.6172 285.0347,-258.6861 294.4478,-263.5486 295.4256,-256.6172"/>
</g>
<!-- Node46&#45;&gt;Node30 -->
<g id="edge43" class="edge">
<title>Node46&#45;&gt;Node30</title>
<path fill="none" stroke="#191970" d="M656.5285,-302.1994C642.4417,-279.542 611.8252,-222.1743 632,-179 637.9463,-166.2749 649.3358,-155.8307 660.215,-148.129"/>
<polygon fill="#191970" stroke="#191970" points="662.277,-150.9622 668.7167,-142.5491 658.436,-145.1101 662.277,-150.9622"/>
</g>
</g>
</svg>
