<?xml version="1.0" encoding="UTF-8" standalone="no"?>
<!DOCTYPE svg PUBLIC "-//W3C//DTD SVG 1.1//EN"
 "http://www.w3.org/Graphics/SVG/1.1/DTD/svg11.dtd">
<!-- Generated by graphviz version 2.38.0 (20151222.1943)
 -->
<!-- Title: VPSSMgr_Water_ConstVol.cpp Pages: 1 -->
<svg width="1214pt" height="386pt"
 viewBox="0.00 0.00 1214.00 386.00" xmlns="http://www.w3.org/2000/svg" xmlns:xlink="http://www.w3.org/1999/xlink">
<g id="graph0" class="graph" transform="scale(1 1) rotate(0) translate(4 382)">
<title>VPSSMgr_Water_ConstVol.cpp</title>
<polygon fill="white" stroke="none" points="-4,4 -4,-382 1210,-382 1210,4 -4,4"/>
<!-- Node1 -->
<g id="node1" class="node"><title>Node1</title>
<polygon fill="#bfbfbf" stroke="black" points="370.5,-358.5 370.5,-377.5 522.5,-377.5 522.5,-358.5 370.5,-358.5"/>
<text text-anchor="middle" x="446.5" y="-365.5" font-family="FreeSans" font-size="10.00">VPSSMgr_Water_ConstVol.cpp</text>
</g>
<!-- Node2 -->
<g id="node2" class="node"><title>Node2</title>
<g id="a_node2"><a xlink:href="VPSSMgr__Water__ConstVol_8h.html" target="_top" xlink:title="Declaration file for a derived class that handles the calculation of standard state thermo properties...">
<polygon fill="white" stroke="black" points="428.5,-291.5 428.5,-321.5 556.5,-321.5 556.5,-291.5 428.5,-291.5"/>
<text text-anchor="start" x="436.5" y="-309.5" font-family="FreeSans" font-size="10.00">cantera/thermo/VPSSMgr</text>
<text text-anchor="middle" x="492.5" y="-298.5" font-family="FreeSans" font-size="10.00">_Water_ConstVol.h</text>
</a>
</g>
</g>
<!-- Node1&#45;&gt;Node2 -->
<g id="edge1" class="edge"><title>Node1&#45;&gt;Node2</title>
<path fill="none" stroke="midnightblue" d="M453.091,-358.475C458.913,-350.944 467.663,-339.626 475.44,-329.566"/>
<polygon fill="midnightblue" stroke="midnightblue" points="478.311,-331.575 481.659,-321.523 472.773,-327.294 478.311,-331.575"/>
</g>
<!-- Node9 -->
<g id="node9" class="node"><title>Node9</title>
<g id="a_node9"><a xlink:href="PDSS__Water_8h.html" target="_top" xlink:title="Implementation of a pressure dependent standard state virtual function for a Pure Water Phase (see Sp...">
<polygon fill="white" stroke="black" points="177.5,-224.5 177.5,-254.5 289.5,-254.5 289.5,-224.5 177.5,-224.5"/>
<text text-anchor="start" x="185.5" y="-242.5" font-family="FreeSans" font-size="10.00">cantera/thermo/PDSS</text>
<text text-anchor="middle" x="233.5" y="-231.5" font-family="FreeSans" font-size="10.00">_Water.h</text>
</a>
</g>
</g>
<!-- Node1&#45;&gt;Node9 -->
<g id="edge8" class="edge"><title>Node1&#45;&gt;Node9</title>
<path fill="none" stroke="midnightblue" d="M431.86,-358.305C397.935,-338.158 313.264,-287.871 266.253,-259.952"/>
<polygon fill="midnightblue" stroke="midnightblue" points="267.765,-256.779 257.38,-254.682 264.19,-262.798 267.765,-256.779"/>
</g>
<!-- Node14 -->
<g id="node14" class="node"><title>Node14</title>
<g id="a_node14"><a xlink:href="PDSS__ConstVol_8h.html" target="_top" xlink:title="Declarations for the class PDSS_ConstVol (pressure dependent standard state) which handles calculatio...">
<polygon fill="white" stroke="black" points="132.5,-291.5 132.5,-321.5 244.5,-321.5 244.5,-291.5 132.5,-291.5"/>
<text text-anchor="start" x="140.5" y="-309.5" font-family="FreeSans" font-size="10.00">cantera/thermo/PDSS</text>
<text text-anchor="middle" x="188.5" y="-298.5" font-family="FreeSans" font-size="10.00">_ConstVol.h</text>
</a>
</g>
</g>
<!-- Node1&#45;&gt;Node14 -->
<g id="edge17" class="edge"><title>Node1&#45;&gt;Node14</title>
<path fill="none" stroke="midnightblue" d="M409.535,-358.475C369.255,-349.186 303.997,-334.136 254.807,-322.792"/>
<polygon fill="midnightblue" stroke="midnightblue" points="255.413,-319.34 244.883,-320.503 253.84,-326.161 255.413,-319.34"/>
</g>
<!-- Node15 -->
<g id="node15" class="node"><title>Node15</title>
<g id="a_node15"><a xlink:href="GeneralSpeciesThermo_8h.html" target="_top" xlink:title="Headers for a completely general species thermodynamic property manager for a phase (see Managers for...">
<polygon fill="white" stroke="black" points="324,-224.5 324,-254.5 477,-254.5 477,-224.5 324,-224.5"/>
<text text-anchor="start" x="332" y="-242.5" font-family="FreeSans" font-size="10.00">cantera/thermo/GeneralSpecies</text>
<text text-anchor="middle" x="400.5" y="-231.5" font-family="FreeSans" font-size="10.00">Thermo.h</text>
</a>
</g>
</g>
<!-- Node1&#45;&gt;Node15 -->
<g id="edge19" class="edge"><title>Node1&#45;&gt;Node15</title>
<path fill="none" stroke="midnightblue" d="M440.265,-358.462C434.15,-349.712 424.971,-335.512 419.5,-322 411.985,-303.441 407.055,-281.245 404.105,-264.707"/>
<polygon fill="midnightblue" stroke="midnightblue" points="407.542,-264.038 402.444,-254.75 400.637,-265.19 407.542,-264.038"/>
</g>
<!-- Node19 -->
<g id="node19" class="node"><title>Node19</title>
<g id="a_node19"><a xlink:href="VPStandardStateTP_8h.html" target="_top" xlink:title="Header file for a derived class of ThermoPhase that handles variable pressure standard state methods ...">
<polygon fill="white" stroke="black" points="575,-291.5 575,-321.5 712,-321.5 712,-291.5 575,-291.5"/>
<text text-anchor="start" x="583" y="-309.5" font-family="FreeSans" font-size="10.00">cantera/thermo/VPStandard</text>
<text text-anchor="middle" x="643.5" y="-298.5" font-family="FreeSans" font-size="10.00">StateTP.h</text>
</a>
</g>
</g>
<!-- Node1&#45;&gt;Node19 -->
<g id="edge25" class="edge"><title>Node1&#45;&gt;Node19</title>
<path fill="none" stroke="midnightblue" d="M474.725,-358.475C504.024,-349.626 550.633,-335.549 587.454,-324.428"/>
<polygon fill="midnightblue" stroke="midnightblue" points="588.51,-327.765 597.071,-321.523 586.486,-321.064 588.51,-327.765"/>
</g>
<!-- Node26 -->
<g id="node26" class="node"><title>Node26</title>
<g id="a_node26"><a xlink:href="ctml_8h.html" target="_top" xlink:title="CTML (&quot;Cantera Markup Language&quot;) is the variant of XML that Cantera uses to store data...">
<polygon fill="white" stroke="black" points="990,-230 990,-249 1091,-249 1091,-230 990,-230"/>
<text text-anchor="middle" x="1040.5" y="-237" font-family="FreeSans" font-size="10.00">cantera/base/ctml.h</text>
</a>
</g>
</g>
<!-- Node1&#45;&gt;Node26 -->
<g id="edge39" class="edge"><title>Node1&#45;&gt;Node26</title>
<path fill="none" stroke="midnightblue" d="M507.723,-358.496C563.439,-350.39 647.833,-337.191 720.5,-322 822.351,-300.708 940.631,-268.641 1000.85,-251.78"/>
<polygon fill="midnightblue" stroke="midnightblue" points="1002.02,-255.086 1010.7,-249.011 1000.13,-248.347 1002.02,-255.086"/>
</g>
<!-- Node3 -->
<g id="node3" class="node"><title>Node3</title>
<g id="a_node3"><a xlink:href="VPSSMgr_8h.html" target="_top" xlink:title="Declaration file for a virtual base class that manages the calculation of standard state properties f...">
<polygon fill="white" stroke="black" points="515,-230 515,-249 582,-249 582,-230 515,-230"/>
<text text-anchor="middle" x="548.5" y="-237" font-family="FreeSans" font-size="10.00">VPSSMgr.h</text>
</a>
</g>
</g>
<!-- Node2&#45;&gt;Node3 -->
<g id="edge2" class="edge"><title>Node2&#45;&gt;Node3</title>
<path fill="none" stroke="midnightblue" d="M504.651,-291.396C513.383,-281.261 525.18,-267.567 534.339,-256.937"/>
<polygon fill="midnightblue" stroke="midnightblue" points="537.134,-259.055 541.009,-249.195 531.831,-254.486 537.134,-259.055"/>
</g>
<!-- Node4 -->
<g id="node4" class="node"><title>Node4</title>
<g id="a_node4"><a xlink:href="mix__defs_8h.html" target="_top" xlink:title="mix_defs.h">
<polygon fill="white" stroke="black" points="128.5,-112.5 128.5,-131.5 190.5,-131.5 190.5,-112.5 128.5,-112.5"/>
<text text-anchor="middle" x="159.5" y="-119.5" font-family="FreeSans" font-size="10.00">mix_defs.h</text>
</a>
</g>
</g>
<!-- Node3&#45;&gt;Node4 -->
<g id="edge3" class="edge"><title>Node3&#45;&gt;Node4</title>
<path fill="none" stroke="midnightblue" d="M514.848,-230.64C505.365,-228.456 495.034,-226.107 485.5,-224 410.088,-207.338 388.139,-214.234 315.5,-188 297.55,-181.517 294.892,-175.859 277.5,-168 250.052,-155.597 218.083,-143.547 194.349,-135.043"/>
<polygon fill="midnightblue" stroke="midnightblue" points="195.313,-131.672 184.719,-131.625 192.972,-138.268 195.313,-131.672"/>
</g>
<!-- Node5 -->
<g id="node5" class="node"><title>Node5</title>
<g id="a_node5"><a xlink:href="global_8h.html" target="_top" xlink:title="This file contains definitions for utility functions and text for modules, inputfiles, logs, textlogs, (see Input File Handling, Diagnostic Output, and Writing messages to the screen). ">
<polygon fill="white" stroke="black" points="904.5,-112.5 904.5,-131.5 1012.5,-131.5 1012.5,-112.5 904.5,-112.5"/>
<text text-anchor="middle" x="958.5" y="-119.5" font-family="FreeSans" font-size="10.00">cantera/base/global.h</text>
</a>
</g>
</g>
<!-- Node3&#45;&gt;Node5 -->
<g id="edge4" class="edge"><title>Node3&#45;&gt;Node5</title>
<path fill="none" stroke="midnightblue" d="M577.127,-229.941C622.358,-216.468 713.165,-189.619 790.5,-168 833.061,-156.102 881.869,-143.1 915.869,-134.145"/>
<polygon fill="midnightblue" stroke="midnightblue" points="917.141,-137.43 925.922,-131.502 915.361,-130.66 917.141,-137.43"/>
</g>
<!-- Node6 -->
<g id="node6" class="node"><title>Node6</title>
<g id="a_node6"><a xlink:href="ct__defs_8h.html" target="_top" xlink:title="This file contains definitions of terms that are used in internal routines and are unlikely to need m...">
<polygon fill="white" stroke="red" points="447.5,-56.5 447.5,-75.5 503.5,-75.5 503.5,-56.5 447.5,-56.5"/>
<text text-anchor="middle" x="475.5" y="-63.5" font-family="FreeSans" font-size="10.00">ct_defs.h</text>
</a>
</g>
</g>
<!-- Node5&#45;&gt;Node6 -->
<g id="edge5" class="edge"><title>Node5&#45;&gt;Node6</title>
<path fill="none" stroke="midnightblue" d="M904.395,-113.265C901.048,-112.825 897.729,-112.4 894.5,-112 754.712,-94.6693 588.192,-77.9538 514.216,-70.7307"/>
<polygon fill="midnightblue" stroke="midnightblue" points="514.28,-67.2204 503.987,-69.7349 513.601,-74.1875 514.28,-67.2204"/>
</g>
<!-- Node8 -->
<g id="node8" class="node"><title>Node8</title>
<polygon fill="white" stroke="#bfbfbf" points="996,-56.5 996,-75.5 1099,-75.5 1099,-56.5 996,-56.5"/>
<text text-anchor="middle" x="1047.5" y="-63.5" font-family="FreeSans" font-size="10.00">cantera/ext/format.h</text>
</g>
<!-- Node5&#45;&gt;Node8 -->
<g id="edge7" class="edge"><title>Node5&#45;&gt;Node8</title>
<path fill="none" stroke="midnightblue" d="M972.799,-112.324C986.683,-103.9 1007.99,-90.9709 1024.3,-81.0741"/>
<polygon fill="midnightblue" stroke="midnightblue" points="1026.5,-83.8341 1033.24,-75.6545 1022.87,-77.8495 1026.5,-83.8341"/>
</g>
<!-- Node7 -->
<g id="node7" class="node"><title>Node7</title>
<g id="a_node7"><a xlink:href="config_8h_source.html" target="_top" xlink:title="config.h">
<polygon fill="white" stroke="black" points="330.5,-0.5 330.5,-19.5 380.5,-19.5 380.5,-0.5 330.5,-0.5"/>
<text text-anchor="middle" x="355.5" y="-7.5" font-family="FreeSans" font-size="10.00">config.h</text>
</a>
</g>
</g>
<!-- Node6&#45;&gt;Node7 -->
<g id="edge6" class="edge"><title>Node6&#45;&gt;Node7</title>
<path fill="none" stroke="midnightblue" d="M456.486,-56.4435C436.912,-47.6356 406.192,-33.8116 383.771,-23.722"/>
<polygon fill="midnightblue" stroke="midnightblue" points="384.981,-20.4284 374.425,-19.5164 382.108,-26.8119 384.981,-20.4284"/>
</g>
<!-- Node10 -->
<g id="node10" class="node"><title>Node10</title>
<g id="a_node10"><a xlink:href="PDSS_8h.html" target="_top" xlink:title="Declarations for the virtual base class PDSS (pressure dependent standard state) which handles calcul...">
<polygon fill="white" stroke="black" points="125,-168.5 125,-187.5 176,-187.5 176,-168.5 125,-168.5"/>
<text text-anchor="middle" x="150.5" y="-175.5" font-family="FreeSans" font-size="10.00">PDSS.h</text>
</a>
</g>
</g>
<!-- Node9&#45;&gt;Node10 -->
<g id="edge9" class="edge"><title>Node9&#45;&gt;Node10</title>
<path fill="none" stroke="midnightblue" d="M213.83,-224.399C200.899,-215.129 184.014,-203.025 170.932,-193.647"/>
<polygon fill="midnightblue" stroke="midnightblue" points="172.744,-190.639 162.577,-187.658 168.665,-196.329 172.744,-190.639"/>
</g>
<!-- Node11 -->
<g id="node11" class="node"><title>Node11</title>
<g id="a_node11"><a xlink:href="WaterPropsIAPWS_8h.html" target="_top" xlink:title="Headers for a class for calculating the equation of state of water from the IAPWS 1995 Formulation ba...">
<polygon fill="white" stroke="black" points="0,-168.5 0,-187.5 107,-187.5 107,-168.5 0,-168.5"/>
<text text-anchor="middle" x="53.5" y="-175.5" font-family="FreeSans" font-size="10.00">WaterPropsIAPWS.h</text>
</a>
</g>
</g>
<!-- Node9&#45;&gt;Node11 -->
<g id="edge12" class="edge"><title>Node9&#45;&gt;Node11</title>
<path fill="none" stroke="midnightblue" d="M190.843,-224.399C159.874,-214.163 118.452,-200.47 89.2222,-190.808"/>
<polygon fill="midnightblue" stroke="midnightblue" points="90.0221,-187.386 79.4288,-187.571 87.8251,-194.033 90.0221,-187.386"/>
</g>
<!-- Node13 -->
<g id="node13" class="node"><title>Node13</title>
<g id="a_node13"><a xlink:href="WaterProps_8h.html" target="_top" xlink:title="Header for a class used to house several approximation routines for properties of water...">
<polygon fill="white" stroke="black" points="194.5,-168.5 194.5,-187.5 268.5,-187.5 268.5,-168.5 194.5,-168.5"/>
<text text-anchor="middle" x="231.5" y="-175.5" font-family="FreeSans" font-size="10.00">WaterProps.h</text>
</a>
</g>
</g>
<!-- Node9&#45;&gt;Node13 -->
<g id="edge15" class="edge"><title>Node9&#45;&gt;Node13</title>
<path fill="none" stroke="midnightblue" d="M233.026,-224.399C232.759,-216.466 232.423,-206.458 232.134,-197.858"/>
<polygon fill="midnightblue" stroke="midnightblue" points="235.625,-197.535 231.791,-187.658 228.629,-197.77 235.625,-197.535"/>
</g>
<!-- Node10&#45;&gt;Node4 -->
<g id="edge11" class="edge"><title>Node10&#45;&gt;Node4</title>
<path fill="none" stroke="midnightblue" d="M151.986,-168.083C153.179,-160.927 154.894,-150.635 156.385,-141.691"/>
<polygon fill="midnightblue" stroke="midnightblue" points="159.85,-142.19 158.041,-131.751 152.945,-141.04 159.85,-142.19"/>
</g>
<!-- Node10&#45;&gt;Node6 -->
<g id="edge10" class="edge"><title>Node10&#45;&gt;Node6</title>
<path fill="none" stroke="midnightblue" d="M140.455,-168.125C126.469,-154.721 104.453,-129.069 119.5,-112 140.283,-88.4243 349.508,-74.055 437.175,-69.0271"/>
<polygon fill="midnightblue" stroke="midnightblue" points="437.455,-72.5169 447.243,-68.4602 437.062,-65.528 437.455,-72.5169"/>
</g>
<!-- Node12 -->
<g id="node12" class="node"><title>Node12</title>
<g id="a_node12"><a xlink:href="WaterPropsIAPWSphi_8h.html" target="_top" xlink:title="Header for Lowest level of the classes which support a real water model (see class WaterPropsIAPWS an...">
<polygon fill="white" stroke="black" points="177,-56.5 177,-75.5 296,-75.5 296,-56.5 177,-56.5"/>
<text text-anchor="middle" x="236.5" y="-63.5" font-family="FreeSans" font-size="10.00">WaterPropsIAPWSphi.h</text>
</a>
</g>
</g>
<!-- Node11&#45;&gt;Node12 -->
<g id="edge13" class="edge"><title>Node11&#45;&gt;Node12</title>
<path fill="none" stroke="midnightblue" d="M55.5015,-168.464C59.2023,-154.569 68.4389,-127.097 86.5,-112 109.073,-93.1315 139.364,-82.174 166.815,-75.811"/>
<polygon fill="midnightblue" stroke="midnightblue" points="167.74,-79.1923 176.781,-73.6684 166.269,-72.3486 167.74,-79.1923"/>
</g>
<!-- Node12&#45;&gt;Node7 -->
<g id="edge14" class="edge"><title>Node12&#45;&gt;Node7</title>
<path fill="none" stroke="midnightblue" d="M255.356,-56.4435C274.766,-47.6356 305.23,-33.8116 327.465,-23.722"/>
<polygon fill="midnightblue" stroke="midnightblue" points="329.072,-26.836 336.732,-19.5164 326.18,-20.4615 329.072,-26.836"/>
</g>
<!-- Node13&#45;&gt;Node6 -->
<g id="edge16" class="edge"><title>Node13&#45;&gt;Node6</title>
<path fill="none" stroke="midnightblue" d="M229.328,-168.128C226.509,-154.257 223.471,-127.427 237.5,-112 263.723,-83.165 376.759,-72.4944 437.135,-68.8013"/>
<polygon fill="midnightblue" stroke="midnightblue" points="437.629,-72.2788 447.411,-68.2091 437.226,-65.2904 437.629,-72.2788"/>
</g>
<!-- Node14&#45;&gt;Node10 -->
<g id="edge18" class="edge"><title>Node14&#45;&gt;Node10</title>
<path fill="none" stroke="midnightblue" d="M182.159,-291.115C177.912,-281.118 172.406,-267.413 168.5,-255 162.409,-235.641 157.288,-212.94 154.084,-197.422"/>
<polygon fill="midnightblue" stroke="midnightblue" points="157.501,-196.66 152.104,-187.543 150.637,-198.036 157.501,-196.66"/>
</g>
<!-- Node16 -->
<g id="node16" class="node"><title>Node16</title>
<g id="a_node16"><a xlink:href="SpeciesThermo_8h.html" target="_top" xlink:title="Virtual base class for the calculation of multiple&#45;species thermodynamic reference&#45;state property man...">
<polygon fill="white" stroke="black" points="480.5,-168.5 480.5,-187.5 572.5,-187.5 572.5,-168.5 480.5,-168.5"/>
<text text-anchor="middle" x="526.5" y="-175.5" font-family="FreeSans" font-size="10.00">SpeciesThermo.h</text>
</a>
</g>
</g>
<!-- Node15&#45;&gt;Node16 -->
<g id="edge20" class="edge"><title>Node15&#45;&gt;Node16</title>
<path fill="none" stroke="midnightblue" d="M430.36,-224.399C451.123,-214.595 478.6,-201.619 498.861,-192.052"/>
<polygon fill="midnightblue" stroke="midnightblue" points="500.618,-195.093 508.166,-187.658 497.629,-188.763 500.618,-195.093"/>
</g>
<!-- Node17 -->
<g id="node17" class="node"><title>Node17</title>
<g id="a_node17"><a xlink:href="SpeciesThermoInterpType_8h.html" target="_top" xlink:title="Pure Virtual Base class for individual species reference state thermodynamic managers and text for th...">
<polygon fill="white" stroke="black" points="325,-168.5 325,-187.5 462,-187.5 462,-168.5 325,-168.5"/>
<text text-anchor="middle" x="393.5" y="-175.5" font-family="FreeSans" font-size="10.00">SpeciesThermoInterpType.h</text>
</a>
</g>
</g>
<!-- Node15&#45;&gt;Node17 -->
<g id="edge22" class="edge"><title>Node15&#45;&gt;Node17</title>
<path fill="none" stroke="midnightblue" d="M398.841,-224.399C397.908,-216.466 396.73,-206.458 395.719,-197.858"/>
<polygon fill="midnightblue" stroke="midnightblue" points="399.163,-197.18 394.519,-187.658 392.211,-197.998 399.163,-197.18"/>
</g>
<!-- Node16&#45;&gt;Node6 -->
<g id="edge21" class="edge"><title>Node16&#45;&gt;Node6</title>
<path fill="none" stroke="midnightblue" d="M496.619,-168.387C478.96,-161.587 458.049,-150.15 447.5,-132 438.383,-116.314 449.098,-97.099 459.801,-83.644"/>
<polygon fill="midnightblue" stroke="midnightblue" points="462.745,-85.5886 466.623,-75.729 457.443,-81.0182 462.745,-85.5886"/>
</g>
<!-- Node17&#45;&gt;Node6 -->
<g id="edge23" class="edge"><title>Node17&#45;&gt;Node6</title>
<path fill="none" stroke="midnightblue" d="M399.788,-168.097C408.714,-155.509 425.626,-131.83 440.5,-112 447.64,-102.48 455.794,-91.9764 462.434,-83.5127"/>
<polygon fill="midnightblue" stroke="midnightblue" points="465.262,-85.5793 468.7,-75.5579 459.763,-81.2479 465.262,-85.5793"/>
</g>
<!-- Node18 -->
<g id="node18" class="node"><title>Node18</title>
<g id="a_node18"><a xlink:href="speciesThermoTypes_8h.html" target="_top" xlink:title="Contains const definitions for types of species reference&#45;state thermodynamics managers (see Species ...">
<polygon fill="white" stroke="black" points="247,-112.5 247,-131.5 362,-131.5 362,-112.5 247,-112.5"/>
<text text-anchor="middle" x="304.5" y="-119.5" font-family="FreeSans" font-size="10.00">speciesThermoTypes.h</text>
</a>
</g>
</g>
<!-- Node17&#45;&gt;Node18 -->
<g id="edge24" class="edge"><title>Node17&#45;&gt;Node18</title>
<path fill="none" stroke="midnightblue" d="M379.201,-168.324C365.317,-159.9 344.008,-146.971 327.696,-137.074"/>
<polygon fill="midnightblue" stroke="midnightblue" points="329.129,-133.85 318.764,-131.655 325.498,-139.834 329.129,-133.85"/>
</g>
<!-- Node19&#45;&gt;Node3 -->
<g id="edge38" class="edge"><title>Node19&#45;&gt;Node3</title>
<path fill="none" stroke="midnightblue" d="M622.886,-291.396C607.103,-280.597 585.413,-265.756 569.527,-254.887"/>
<polygon fill="midnightblue" stroke="midnightblue" points="571.163,-251.765 560.933,-249.007 567.21,-257.542 571.163,-251.765"/>
</g>
<!-- Node20 -->
<g id="node20" class="node"><title>Node20</title>
<g id="a_node20"><a xlink:href="ThermoPhase_8h.html" target="_top" xlink:title="Header file for class ThermoPhase, the base class for phases with thermodynamic properties, and the text for the Module thermoprops (see Thermodynamic Properties and class ThermoPhase). ">
<polygon fill="white" stroke="black" points="618.5,-230 618.5,-249 702.5,-249 702.5,-230 618.5,-230"/>
<text text-anchor="middle" x="660.5" y="-237" font-family="FreeSans" font-size="10.00">ThermoPhase.h</text>
</a>
</g>
</g>
<!-- Node19&#45;&gt;Node20 -->
<g id="edge26" class="edge"><title>Node19&#45;&gt;Node20</title>
<path fill="none" stroke="midnightblue" d="M647.189,-291.396C649.656,-281.963 652.929,-269.448 655.612,-259.189"/>
<polygon fill="midnightblue" stroke="midnightblue" points="659.082,-259.755 658.226,-249.195 652.31,-257.984 659.082,-259.755"/>
</g>
<!-- Node20&#45;&gt;Node5 -->
<g id="edge37" class="edge"><title>Node20&#45;&gt;Node5</title>
<path fill="none" stroke="midnightblue" d="M682.898,-229.819C735.34,-209.493 866.226,-158.764 926.809,-135.283"/>
<polygon fill="midnightblue" stroke="midnightblue" points="928.189,-138.502 936.248,-131.624 925.659,-131.975 928.189,-138.502"/>
</g>
<!-- Node20&#45;&gt;Node16 -->
<g id="edge36" class="edge"><title>Node20&#45;&gt;Node16</title>
<path fill="none" stroke="midnightblue" d="M641.301,-229.975C618.713,-219.945 581.001,-203.2 554.999,-191.655"/>
<polygon fill="midnightblue" stroke="midnightblue" points="556.223,-188.369 545.663,-187.509 553.382,-194.766 556.223,-188.369"/>
</g>
<!-- Node21 -->
<g id="node21" class="node"><title>Node21</title>
<g id="a_node21"><a xlink:href="Phase_8h.html" target="_top" xlink:title="Header file for class Phase. ">
<polygon fill="white" stroke="black" points="649,-168.5 649,-187.5 700,-187.5 700,-168.5 649,-168.5"/>
<text text-anchor="middle" x="674.5" y="-175.5" font-family="FreeSans" font-size="10.00">Phase.h</text>
</a>
</g>
</g>
<!-- Node20&#45;&gt;Node21 -->
<g id="edge27" class="edge"><title>Node20&#45;&gt;Node21</title>
<path fill="none" stroke="midnightblue" d="M662.506,-229.975C664.502,-221.492 667.628,-208.204 670.189,-197.322"/>
<polygon fill="midnightblue" stroke="midnightblue" points="673.614,-198.045 672.498,-187.509 666.8,-196.442 673.614,-198.045"/>
</g>
<!-- Node22 -->
<g id="node22" class="node"><title>Node22</title>
<g id="a_node22"><a xlink:href="ctexceptions_8h.html" target="_top" xlink:title="Definitions for the classes that are thrown when Cantera experiences an error condition (also contain...">
<polygon fill="white" stroke="red" points="1069,-112.5 1069,-131.5 1206,-131.5 1206,-112.5 1069,-112.5"/>
<text text-anchor="middle" x="1137.5" y="-119.5" font-family="FreeSans" font-size="10.00">cantera/base/ctexceptions.h</text>
</a>
</g>
</g>
<!-- Node21&#45;&gt;Node22 -->
<g id="edge28" class="edge"><title>Node21&#45;&gt;Node22</title>
<path fill="none" stroke="midnightblue" d="M700.052,-174.02C767.453,-166.159 952.179,-144.614 1058.79,-132.18"/>
<polygon fill="midnightblue" stroke="midnightblue" points="1059.33,-135.641 1068.86,-131.006 1058.52,-128.688 1059.33,-135.641"/>
</g>
<!-- Node23 -->
<g id="node23" class="node"><title>Node23</title>
<g id="a_node23"><a xlink:href="Elements_8h.html" target="_top" xlink:title="Contains the LookupWtElements function and the definitions of element constraint types. ">
<polygon fill="white" stroke="black" points="608.5,-112.5 608.5,-131.5 740.5,-131.5 740.5,-112.5 608.5,-112.5"/>
<text text-anchor="middle" x="674.5" y="-119.5" font-family="FreeSans" font-size="10.00">cantera/thermo/Elements.h</text>
</a>
</g>
</g>
<!-- Node21&#45;&gt;Node23 -->
<g id="edge30" class="edge"><title>Node21&#45;&gt;Node23</title>
<path fill="none" stroke="midnightblue" d="M674.5,-168.083C674.5,-161.006 674.5,-150.861 674.5,-141.986"/>
<polygon fill="midnightblue" stroke="midnightblue" points="678,-141.751 674.5,-131.751 671,-141.751 678,-141.751"/>
</g>
<!-- Node24 -->
<g id="node24" class="node"><title>Node24</title>
<g id="a_node24"><a xlink:href="Species_8h.html" target="_top" xlink:title="Declaration for class Cantera::Species. ">
<polygon fill="white" stroke="black" points="759,-112.5 759,-131.5 886,-131.5 886,-112.5 759,-112.5"/>
<text text-anchor="middle" x="822.5" y="-119.5" font-family="FreeSans" font-size="10.00">cantera/thermo/Species.h</text>
</a>
</g>
</g>
<!-- Node21&#45;&gt;Node24 -->
<g id="edge32" class="edge"><title>Node21&#45;&gt;Node24</title>
<path fill="none" stroke="midnightblue" d="M697.951,-168.444C722.633,-159.438 761.685,-145.189 789.477,-135.049"/>
<polygon fill="midnightblue" stroke="midnightblue" points="790.964,-138.232 799.159,-131.516 788.565,-131.656 790.964,-138.232"/>
</g>
<!-- Node25 -->
<g id="node25" class="node"><title>Node25</title>
<g id="a_node25"><a xlink:href="ValueCache_8h.html" target="_top" xlink:title="cantera/base/ValueCache.h">
<polygon fill="white" stroke="red" points="456.5,-112.5 456.5,-131.5 590.5,-131.5 590.5,-112.5 456.5,-112.5"/>
<text text-anchor="middle" x="523.5" y="-119.5" font-family="FreeSans" font-size="10.00">cantera/base/ValueCache.h</text>
</a>
</g>
</g>
<!-- Node21&#45;&gt;Node25 -->
<g id="edge34" class="edge"><title>Node21&#45;&gt;Node25</title>
<path fill="none" stroke="midnightblue" d="M650.574,-168.444C625.281,-159.399 585.198,-145.064 556.82,-134.916"/>
<polygon fill="midnightblue" stroke="midnightblue" points="557.909,-131.588 547.314,-131.516 555.552,-138.179 557.909,-131.588"/>
</g>
<!-- Node22&#45;&gt;Node8 -->
<g id="edge29" class="edge"><title>Node22&#45;&gt;Node8</title>
<path fill="none" stroke="midnightblue" d="M1123.04,-112.324C1109,-103.9 1087.45,-90.9709 1070.96,-81.0741"/>
<polygon fill="midnightblue" stroke="midnightblue" points="1072.3,-77.7983 1061.92,-75.6545 1068.7,-83.8007 1072.3,-77.7983"/>
</g>
<!-- Node23&#45;&gt;Node6 -->
<g id="edge31" class="edge"><title>Node23&#45;&gt;Node6</title>
<path fill="none" stroke="midnightblue" d="M642.968,-112.444C607.906,-102.929 551.276,-87.5622 513.72,-77.3713"/>
<polygon fill="midnightblue" stroke="midnightblue" points="514.235,-73.8844 503.667,-74.6433 512.401,-80.6401 514.235,-73.8844"/>
</g>
<!-- Node24&#45;&gt;Node6 -->
<g id="edge33" class="edge"><title>Node24&#45;&gt;Node6</title>
<path fill="none" stroke="midnightblue" d="M767.517,-112.444C696.701,-101.423 575.427,-82.5507 513.829,-72.9647"/>
<polygon fill="midnightblue" stroke="midnightblue" points="514.178,-69.477 503.759,-71.3976 513.101,-76.3937 514.178,-69.477"/>
</g>
<!-- Node25&#45;&gt;Node6 -->
<g id="edge35" class="edge"><title>Node25&#45;&gt;Node6</title>
<path fill="none" stroke="midnightblue" d="M515.574,-112.083C508.654,-104.298 498.435,-92.8015 490.048,-83.3665"/>
<polygon fill="midnightblue" stroke="midnightblue" points="492.538,-80.8999 483.279,-75.7511 487.306,-85.5505 492.538,-80.8999"/>
</g>
<!-- Node26&#45;&gt;Node6 -->
<g id="edge40" class="edge"><title>Node26&#45;&gt;Node6</title>
<path fill="none" stroke="midnightblue" d="M1042.37,-229.822C1046.78,-206.73 1055.07,-143.402 1021.5,-112 984.54,-77.4317 631.666,-69.2387 513.696,-67.4584"/>
<polygon fill="midnightblue" stroke="midnightblue" points="513.721,-63.9585 503.671,-67.3142 513.62,-70.9578 513.721,-63.9585"/>
</g>
<!-- Node27 -->
<g id="node27" class="node"><title>Node27</title>
<g id="a_node27"><a xlink:href="xml_8h.html" target="_top" xlink:title="Classes providing support for XML data files. ">
<polygon fill="white" stroke="black" points="1069,-168.5 1069,-187.5 1108,-187.5 1108,-168.5 1069,-168.5"/>
<text text-anchor="middle" x="1088.5" y="-175.5" font-family="FreeSans" font-size="10.00">xml.h</text>
</a>
</g>
</g>
<!-- Node26&#45;&gt;Node27 -->
<g id="edge41" class="edge"><title>Node26&#45;&gt;Node27</title>
<path fill="none" stroke="midnightblue" d="M1047.38,-229.975C1054.65,-220.962 1066.3,-206.525 1075.34,-195.312"/>
<polygon fill="midnightblue" stroke="midnightblue" points="1078.08,-197.49 1081.64,-187.509 1072.63,-193.095 1078.08,-197.49"/>
</g>
<!-- Node27&#45;&gt;Node5 -->
<g id="edge43" class="edge"><title>Node27&#45;&gt;Node5</title>
<path fill="none" stroke="midnightblue" d="M1068.76,-168.799C1047.44,-159.943 1013.22,-145.73 988.557,-135.485"/>
<polygon fill="midnightblue" stroke="midnightblue" points="989.87,-132.241 979.292,-131.637 987.184,-138.705 989.87,-132.241"/>
</g>
<!-- Node27&#45;&gt;Node22 -->
<g id="edge42" class="edge"><title>Node27&#45;&gt;Node22</title>
<path fill="none" stroke="midnightblue" d="M1096.59,-168.083C1103.66,-160.298 1114.09,-148.801 1122.65,-139.367"/>
<polygon fill="midnightblue" stroke="midnightblue" points="1125.43,-141.509 1129.56,-131.751 1120.25,-136.805 1125.43,-141.509"/>
</g>
</g>
</svg>
