<?xml version="1.0" encoding="UTF-8" standalone="no"?>
<!DOCTYPE svg PUBLIC "-//W3C//DTD SVG 1.1//EN"
 "http://www.w3.org/Graphics/SVG/1.1/DTD/svg11.dtd">
<!-- Generated by graphviz version 2.36.0 (20140111.2315)
 -->
<!-- Title: VPSSMgr_General.cpp Pages: 1 -->
<svg width="1252pt" height="388pt"
 viewBox="0.00 0.00 1252.00 388.00" xmlns="http://www.w3.org/2000/svg" xmlns:xlink="http://www.w3.org/1999/xlink">
<g id="graph0" class="graph" transform="scale(1 1) rotate(0) translate(4 384)">
<title>VPSSMgr_General.cpp</title>
<polygon fill="white" stroke="none" points="-4,4 -4,-384 1248,-384 1248,4 -4,4"/>
<!-- Node1 -->
<g id="node1" class="node"><title>Node1</title>
<polygon fill="#bfbfbf" stroke="black" points="607,-360.5 607,-379.5 723,-379.5 723,-360.5 607,-360.5"/>
<text text-anchor="middle" x="665" y="-367.5" font-family="FreeSans" font-size="10.00">VPSSMgr_General.cpp</text>
</g>
<!-- Node2 -->
<g id="node2" class="node"><title>Node2</title>
<g id="a_node2"><a xlink:href="VPSSMgr__General_8h.html" target="_top" xlink:title="Declaration file for a derived class that handles the calculation of standard state thermo properties...">
<polygon fill="white" stroke="black" points="47,-293 47,-323 175,-323 175,-293 47,-293"/>
<text text-anchor="start" x="55" y="-311" font-family="FreeSans" font-size="10.00">cantera/thermo/VPSSMgr</text>
<text text-anchor="middle" x="111" y="-300" font-family="FreeSans" font-size="10.00">_General.h</text>
</a>
</g>
</g>
<!-- Node1&#45;&gt;Node2 -->
<g id="edge1" class="edge"><title>Node1&#45;&gt;Node2</title>
<path fill="none" stroke="midnightblue" d="M606.63,-365.606C517.738,-359.982 342.957,-347.139 184.927,-324.033"/>
<polygon fill="midnightblue" stroke="midnightblue" points="185.428,-320.569 175.024,-322.568 184.404,-327.494 185.428,-320.569"/>
</g>
<!-- Node10 -->
<g id="node10" class="node"><title>Node10</title>
<g id="a_node10"><a xlink:href="ctml_8h.html" target="_top" xlink:title="CTML (&quot;Cantera Markup Language&quot;) is the variant of XML that Cantera uses to store data...">
<polygon fill="white" stroke="black" points="55.5,-230.5 55.5,-249.5 156.5,-249.5 156.5,-230.5 55.5,-230.5"/>
<text text-anchor="middle" x="106" y="-237.5" font-family="FreeSans" font-size="10.00">cantera/base/ctml.h</text>
</a>
</g>
</g>
<!-- Node1&#45;&gt;Node10 -->
<g id="edge9" class="edge"><title>Node1&#45;&gt;Node10</title>
<path fill="none" stroke="midnightblue" d="M606.971,-369.229C458.955,-369.209 76.2934,-365.14 38,-324 16.3345,-300.724 53.7976,-271.585 81.1676,-254.751"/>
<polygon fill="midnightblue" stroke="midnightblue" points="83.1434,-257.648 89.9627,-249.54 79.5752,-251.626 83.1434,-257.648"/>
</g>
<!-- Node14 -->
<g id="node14" class="node"><title>Node14</title>
<g id="a_node14"><a xlink:href="VPStandardStateTP_8h.html" target="_top" xlink:title="Header file for a derived class of ThermoPhase that handles variable pressure standard state methods ...">
<polygon fill="white" stroke="black" points="193.5,-293 193.5,-323 330.5,-323 330.5,-293 193.5,-293"/>
<text text-anchor="start" x="201.5" y="-311" font-family="FreeSans" font-size="10.00">cantera/thermo/VPStandard</text>
<text text-anchor="middle" x="262" y="-300" font-family="FreeSans" font-size="10.00">StateTP.h</text>
</a>
</g>
</g>
<!-- Node1&#45;&gt;Node14 -->
<g id="edge17" class="edge"><title>Node1&#45;&gt;Node14</title>
<path fill="none" stroke="midnightblue" d="M606.739,-361.868C543.692,-353.94 439.964,-340.287 340.762,-324.075"/>
<polygon fill="midnightblue" stroke="midnightblue" points="341.304,-320.617 330.868,-322.447 340.167,-327.524 341.304,-320.617"/>
</g>
<!-- Node21 -->
<g id="node21" class="node"><title>Node21</title>
<g id="a_node21"><a xlink:href="PDSS__IdealGas_8h.html" target="_top" xlink:title="Declarations for the class PDSS_IdealGas (pressure dependent standard state) which handles calculatio...">
<polygon fill="white" stroke="black" points="349,-293 349,-323 461,-323 461,-293 349,-293"/>
<text text-anchor="start" x="357" y="-311" font-family="FreeSans" font-size="10.00">cantera/thermo/PDSS</text>
<text text-anchor="middle" x="405" y="-300" font-family="FreeSans" font-size="10.00">_IdealGas.h</text>
</a>
</g>
</g>
<!-- Node1&#45;&gt;Node21 -->
<g id="edge31" class="edge"><title>Node1&#45;&gt;Node21</title>
<path fill="none" stroke="midnightblue" d="M628.024,-360.467C587.364,-351.084 521.208,-335.817 471.486,-324.343"/>
<polygon fill="midnightblue" stroke="midnightblue" points="471.988,-320.867 461.457,-322.029 470.414,-327.688 471.988,-320.867"/>
</g>
<!-- Node23 -->
<g id="node23" class="node"><title>Node23</title>
<g id="a_node23"><a xlink:href="PDSS__Water_8h.html" target="_top" xlink:title="Implementation of a pressure dependent standard state virtual function for a Pure Water Phase (see Sp...">
<polygon fill="white" stroke="black" points="999,-293 999,-323 1111,-323 1111,-293 999,-293"/>
<text text-anchor="start" x="1007" y="-311" font-family="FreeSans" font-size="10.00">cantera/thermo/PDSS</text>
<text text-anchor="middle" x="1055" y="-300" font-family="FreeSans" font-size="10.00">_Water.h</text>
</a>
</g>
</g>
<!-- Node1&#45;&gt;Node23 -->
<g id="edge35" class="edge"><title>Node1&#45;&gt;Node23</title>
<path fill="none" stroke="midnightblue" d="M723.182,-362.439C788.217,-354.753 896.544,-340.895 989,-324 989.101,-323.982 989.202,-323.963 989.304,-323.944"/>
<polygon fill="midnightblue" stroke="midnightblue" points="989.742,-327.424 998.898,-322.094 988.416,-320.551 989.742,-327.424"/>
</g>
<!-- Node27 -->
<g id="node27" class="node"><title>Node27</title>
<g id="a_node27"><a xlink:href="PDSS__ConstVol_8h.html" target="_top" xlink:title="Declarations for the class PDSS_ConstVol (pressure dependent standard state) which handles calculatio...">
<polygon fill="white" stroke="black" points="479,-293 479,-323 591,-323 591,-293 479,-293"/>
<text text-anchor="start" x="487" y="-311" font-family="FreeSans" font-size="10.00">cantera/thermo/PDSS</text>
<text text-anchor="middle" x="535" y="-300" font-family="FreeSans" font-size="10.00">_ConstVol.h</text>
</a>
</g>
</g>
<!-- Node1&#45;&gt;Node27 -->
<g id="edge42" class="edge"><title>Node1&#45;&gt;Node27</title>
<path fill="none" stroke="midnightblue" d="M646.374,-360.403C627.78,-351.822 598.622,-338.364 574.804,-327.371"/>
<polygon fill="midnightblue" stroke="midnightblue" points="576.185,-324.154 565.638,-323.141 573.251,-330.509 576.185,-324.154"/>
</g>
<!-- Node28 -->
<g id="node28" class="node"><title>Node28</title>
<g id="a_node28"><a xlink:href="PDSS__SSVol_8h.html" target="_top" xlink:title="Declarations for the class PDSS_SSVol (pressure dependent standard state) which handles calculations ...">
<polygon fill="white" stroke="black" points="609,-293 609,-323 721,-323 721,-293 609,-293"/>
<text text-anchor="start" x="617" y="-311" font-family="FreeSans" font-size="10.00">cantera/thermo/PDSS</text>
<text text-anchor="middle" x="665" y="-300" font-family="FreeSans" font-size="10.00">_SSVol.h</text>
</a>
</g>
</g>
<!-- Node1&#45;&gt;Node28 -->
<g id="edge44" class="edge"><title>Node1&#45;&gt;Node28</title>
<path fill="none" stroke="midnightblue" d="M665,-360.403C665,-353.341 665,-342.975 665,-333.399"/>
<polygon fill="midnightblue" stroke="midnightblue" points="668.5,-333.141 665,-323.141 661.5,-333.141 668.5,-333.141"/>
</g>
<!-- Node29 -->
<g id="node29" class="node"><title>Node29</title>
<g id="a_node29"><a xlink:href="PDSS__HKFT_8h.html" target="_top" xlink:title="Declarations for the class PDSS_HKFT (pressure dependent standard state) which handles calculations f...">
<polygon fill="white" stroke="black" points="739,-293 739,-323 851,-323 851,-293 739,-293"/>
<text text-anchor="start" x="747" y="-311" font-family="FreeSans" font-size="10.00">cantera/thermo/PDSS</text>
<text text-anchor="middle" x="795" y="-300" font-family="FreeSans" font-size="10.00">_HKFT.h</text>
</a>
</g>
</g>
<!-- Node1&#45;&gt;Node29 -->
<g id="edge46" class="edge"><title>Node1&#45;&gt;Node29</title>
<path fill="none" stroke="midnightblue" d="M683.626,-360.403C702.22,-351.822 731.378,-338.364 755.196,-327.371"/>
<polygon fill="midnightblue" stroke="midnightblue" points="756.749,-330.509 764.362,-323.141 753.815,-324.154 756.749,-330.509"/>
</g>
<!-- Node30 -->
<g id="node30" class="node"><title>Node30</title>
<g id="a_node30"><a xlink:href="PDSS__IonsFromNeutral_8h.html" target="_top" xlink:title="Declarations for the class PDSS_IonsFromNeutral ( which handles calculations for a single ion in a fl...">
<polygon fill="white" stroke="black" points="869,-293 869,-323 981,-323 981,-293 869,-293"/>
<text text-anchor="start" x="877" y="-311" font-family="FreeSans" font-size="10.00">cantera/thermo/PDSS</text>
<text text-anchor="middle" x="925" y="-300" font-family="FreeSans" font-size="10.00">_IonsFromNeutral.h</text>
</a>
</g>
</g>
<!-- Node1&#45;&gt;Node30 -->
<g id="edge48" class="edge"><title>Node1&#45;&gt;Node30</title>
<path fill="none" stroke="midnightblue" d="M701.976,-360.467C742.636,-351.084 808.792,-335.817 858.514,-324.343"/>
<polygon fill="midnightblue" stroke="midnightblue" points="859.586,-327.688 868.543,-322.029 858.012,-320.867 859.586,-327.688"/>
</g>
<!-- Node31 -->
<g id="node31" class="node"><title>Node31</title>
<g id="a_node31"><a xlink:href="GeneralSpeciesThermo_8h.html" target="_top" xlink:title="Headers for a completely general species thermodynamic property manager for a phase (see Managers for...">
<polygon fill="white" stroke="black" points="834.5,-225 834.5,-255 987.5,-255 987.5,-225 834.5,-225"/>
<text text-anchor="start" x="842.5" y="-243" font-family="FreeSans" font-size="10.00">cantera/thermo/GeneralSpecies</text>
<text text-anchor="middle" x="911" y="-232" font-family="FreeSans" font-size="10.00">Thermo.h</text>
</a>
</g>
</g>
<!-- Node1&#45;&gt;Node31 -->
<g id="edge50" class="edge"><title>Node1&#45;&gt;Node31</title>
<path fill="none" stroke="midnightblue" d="M723.387,-367.497C840.016,-363.89 1092.91,-352.802 1119,-324 1160.07,-278.658 1072.07,-257.698 998.154,-248.277"/>
<polygon fill="midnightblue" stroke="midnightblue" points="998.181,-244.755 987.832,-247.023 997.337,-251.704 998.181,-244.755"/>
</g>
<!-- Node34 -->
<g id="node34" class="node"><title>Node34</title>
<g id="a_node34"><a xlink:href="utilities_8h.html" target="_top" xlink:title="Various templated functions that carry out common vector operations (see Templated Utility Functions)...">
<polygon fill="white" stroke="black" points="1122.5,-168.5 1122.5,-187.5 1235.5,-187.5 1235.5,-168.5 1122.5,-168.5"/>
<text text-anchor="middle" x="1179" y="-175.5" font-family="FreeSans" font-size="10.00">cantera/base/utilities.h</text>
</a>
</g>
</g>
<!-- Node1&#45;&gt;Node34 -->
<g id="edge55" class="edge"><title>Node1&#45;&gt;Node34</title>
<path fill="none" stroke="midnightblue" d="M723.046,-367.134C842.592,-362.774 1107.73,-350.235 1139,-324 1176.59,-292.456 1180.55,-229.088 1179.99,-197.617"/>
<polygon fill="midnightblue" stroke="midnightblue" points="1183.49,-197.453 1179.64,-187.583 1176.49,-197.7 1183.49,-197.453"/>
</g>
<!-- Node3 -->
<g id="node3" class="node"><title>Node3</title>
<g id="a_node3"><a xlink:href="VPSSMgr_8h.html" target="_top" xlink:title="Declaration file for a virtual base class that manages the calculation of standard state properties f...">
<polygon fill="white" stroke="black" points="183.5,-230.5 183.5,-249.5 250.5,-249.5 250.5,-230.5 183.5,-230.5"/>
<text text-anchor="middle" x="217" y="-237.5" font-family="FreeSans" font-size="10.00">VPSSMgr.h</text>
</a>
</g>
</g>
<!-- Node2&#45;&gt;Node3 -->
<g id="edge2" class="edge"><title>Node2&#45;&gt;Node3</title>
<path fill="none" stroke="midnightblue" d="M133.74,-292.841C151.663,-281.681 176.531,-266.198 194.415,-255.063"/>
<polygon fill="midnightblue" stroke="midnightblue" points="196.417,-257.939 203.056,-249.682 192.717,-251.996 196.417,-257.939"/>
</g>
<!-- Node4 -->
<g id="node4" class="node"><title>Node4</title>
<g id="a_node4"><a xlink:href="mix__defs_8h.html" target="_top" xlink:title="mix_defs.h">
<polygon fill="white" stroke="black" points="230,-168.5 230,-187.5 292,-187.5 292,-168.5 230,-168.5"/>
<text text-anchor="middle" x="261" y="-175.5" font-family="FreeSans" font-size="10.00">mix_defs.h</text>
</a>
</g>
</g>
<!-- Node3&#45;&gt;Node4 -->
<g id="edge3" class="edge"><title>Node3&#45;&gt;Node4</title>
<path fill="none" stroke="midnightblue" d="M223.304,-230.403C229.904,-221.403 240.437,-207.041 248.693,-195.782"/>
<polygon fill="midnightblue" stroke="midnightblue" points="251.616,-197.714 254.708,-187.581 245.971,-193.575 251.616,-197.714"/>
</g>
<!-- Node5 -->
<g id="node5" class="node"><title>Node5</title>
<g id="a_node5"><a xlink:href="global_8h.html" target="_top" xlink:title="This file contains definitions for utility functions and text for modules, inputfiles, logs, textlogs, (see Input File Handling, Diagnostic Output, and Writing messages to the screen). ">
<polygon fill="white" stroke="black" points="134,-112.5 134,-131.5 242,-131.5 242,-112.5 134,-112.5"/>
<text text-anchor="middle" x="188" y="-119.5" font-family="FreeSans" font-size="10.00">cantera/base/global.h</text>
</a>
</g>
</g>
<!-- Node3&#45;&gt;Node5 -->
<g id="edge4" class="edge"><title>Node3&#45;&gt;Node5</title>
<path fill="none" stroke="midnightblue" d="M214.82,-230.281C210.116,-211.463 198.924,-166.697 192.585,-141.34"/>
<polygon fill="midnightblue" stroke="midnightblue" points="195.947,-140.357 190.126,-131.505 189.156,-142.055 195.947,-140.357"/>
</g>
<!-- Node6 -->
<g id="node6" class="node"><title>Node6</title>
<g id="a_node6"><a xlink:href="ct__defs_8h.html" target="_top" xlink:title="This file contains definitions of terms that are used in internal routines and are unlikely to need m...">
<polygon fill="white" stroke="red" points="642,-56.5 642,-75.5 698,-75.5 698,-56.5 642,-56.5"/>
<text text-anchor="middle" x="670" y="-63.5" font-family="FreeSans" font-size="10.00">ct_defs.h</text>
</a>
</g>
</g>
<!-- Node5&#45;&gt;Node6 -->
<g id="edge5" class="edge"><title>Node5&#45;&gt;Node6</title>
<path fill="none" stroke="midnightblue" d="M242.28,-113.123C245.228,-112.734 248.15,-112.357 251,-112 390.769,-94.5164 557.298,-77.878 631.28,-70.7025"/>
<polygon fill="midnightblue" stroke="midnightblue" points="631.893,-74.1597 641.51,-69.7135 631.219,-67.1921 631.893,-74.1597"/>
</g>
<!-- Node9 -->
<g id="node9" class="node"><title>Node9</title>
<polygon fill="white" stroke="#bfbfbf" points="130.5,-56.5 130.5,-75.5 233.5,-75.5 233.5,-56.5 130.5,-56.5"/>
<text text-anchor="middle" x="182" y="-63.5" font-family="FreeSans" font-size="10.00">cantera/ext/format.h</text>
</g>
<!-- Node5&#45;&gt;Node9 -->
<g id="edge8" class="edge"><title>Node5&#45;&gt;Node9</title>
<path fill="none" stroke="midnightblue" d="M187.009,-112.083C186.214,-104.927 185.071,-94.6353 184.077,-85.6911"/>
<polygon fill="midnightblue" stroke="midnightblue" points="187.555,-85.3034 182.972,-75.7511 180.598,-86.0765 187.555,-85.3034"/>
</g>
<!-- Node7 -->
<g id="node7" class="node"><title>Node7</title>
<g id="a_node7"><a xlink:href="config_8h_source.html" target="_top" xlink:title="config.h">
<polygon fill="white" stroke="black" points="780,-0.5 780,-19.5 830,-19.5 830,-0.5 780,-0.5"/>
<text text-anchor="middle" x="805" y="-7.5" font-family="FreeSans" font-size="10.00">config.h</text>
</a>
</g>
</g>
<!-- Node6&#45;&gt;Node7 -->
<g id="edge6" class="edge"><title>Node6&#45;&gt;Node7</title>
<path fill="none" stroke="midnightblue" d="M691.391,-56.4435C713.707,-47.5171 748.903,-33.4387 774.208,-23.3168"/>
<polygon fill="midnightblue" stroke="midnightblue" points="775.724,-26.4801 783.709,-19.5164 773.124,-19.9807 775.724,-26.4801"/>
</g>
<!-- Node8 -->
<g id="node8" class="node"><title>Node8</title>
<polygon fill="white" stroke="#bfbfbf" points="468,-0.5 468,-19.5 508,-19.5 508,-0.5 468,-0.5"/>
<text text-anchor="middle" x="488" y="-7.5" font-family="FreeSans" font-size="10.00">string</text>
</g>
<!-- Node6&#45;&gt;Node8 -->
<g id="edge7" class="edge"><title>Node6&#45;&gt;Node8</title>
<path fill="none" stroke="midnightblue" d="M641.961,-56.6808C608.436,-46.7339 552.55,-30.1521 518.127,-19.9387"/>
<polygon fill="midnightblue" stroke="midnightblue" points="518.764,-16.477 508.181,-16.9879 516.773,-23.1879 518.764,-16.477"/>
</g>
<!-- Node10&#45;&gt;Node6 -->
<g id="edge10" class="edge"><title>Node10&#45;&gt;Node6</title>
<path fill="none" stroke="midnightblue" d="M104.119,-230.289C99.6793,-207.108 91.3072,-143.535 125,-112 161.88,-77.4811 514.116,-69.2553 631.873,-67.4626"/>
<polygon fill="midnightblue" stroke="midnightblue" points="631.931,-70.9622 641.88,-67.3173 631.83,-63.963 631.931,-70.9622"/>
</g>
<!-- Node11 -->
<g id="node11" class="node"><title>Node11</title>
<g id="a_node11"><a xlink:href="xml_8h.html" target="_top" xlink:title="Classes providing support for XML data files. ">
<polygon fill="white" stroke="black" points="134.5,-168.5 134.5,-187.5 173.5,-187.5 173.5,-168.5 134.5,-168.5"/>
<text text-anchor="middle" x="154" y="-175.5" font-family="FreeSans" font-size="10.00">xml.h</text>
</a>
</g>
</g>
<!-- Node10&#45;&gt;Node11 -->
<g id="edge11" class="edge"><title>Node10&#45;&gt;Node11</title>
<path fill="none" stroke="midnightblue" d="M112.877,-230.403C120.149,-221.314 131.795,-206.756 140.841,-195.449"/>
<polygon fill="midnightblue" stroke="midnightblue" points="143.622,-197.576 147.136,-187.581 138.155,-193.203 143.622,-197.576"/>
</g>
<!-- Node11&#45;&gt;Node5 -->
<g id="edge16" class="edge"><title>Node11&#45;&gt;Node5</title>
<path fill="none" stroke="midnightblue" d="M159.614,-168.083C164.367,-160.534 171.318,-149.495 177.152,-140.23"/>
<polygon fill="midnightblue" stroke="midnightblue" points="180.124,-142.078 182.49,-131.751 174.2,-138.349 180.124,-142.078"/>
</g>
<!-- Node12 -->
<g id="node12" class="node"><title>Node12</title>
<g id="a_node12"><a xlink:href="ctexceptions_8h.html" target="_top" xlink:title="Definitions for the classes that are thrown when Cantera experiences an error condition (also contain...">
<polygon fill="white" stroke="black" points="0,-112.5 0,-131.5 78,-131.5 78,-112.5 0,-112.5"/>
<text text-anchor="middle" x="39" y="-119.5" font-family="FreeSans" font-size="10.00">ctexceptions.h</text>
</a>
</g>
</g>
<!-- Node11&#45;&gt;Node12 -->
<g id="edge12" class="edge"><title>Node11&#45;&gt;Node12</title>
<path fill="none" stroke="midnightblue" d="M135.778,-168.444C117.104,-159.675 87.844,-145.935 66.3826,-135.858"/>
<polygon fill="midnightblue" stroke="midnightblue" points="67.6763,-132.599 57.1368,-131.516 64.7009,-138.935 67.6763,-132.599"/>
</g>
<!-- Node12&#45;&gt;Node8 -->
<g id="edge14" class="edge"><title>Node12&#45;&gt;Node8</title>
<path fill="none" stroke="midnightblue" d="M46.6141,-112.467C60.0384,-98.0557 89.4923,-69.1779 121,-56 181.679,-30.6214 380.373,-17.0384 457.246,-12.6285"/>
<polygon fill="midnightblue" stroke="midnightblue" points="457.885,-16.0983 467.673,-12.0441 457.493,-9.10927 457.885,-16.0983"/>
</g>
<!-- Node12&#45;&gt;Node9 -->
<g id="edge15" class="edge"><title>Node12&#45;&gt;Node9</title>
<path fill="none" stroke="midnightblue" d="M61.6588,-112.444C85.4019,-103.478 122.909,-89.314 149.738,-79.1827"/>
<polygon fill="midnightblue" stroke="midnightblue" points="151.329,-82.3235 159.447,-75.5164 148.856,-75.7749 151.329,-82.3235"/>
</g>
<!-- Node13 -->
<g id="node13" class="node"><title>Node13</title>
<polygon fill="white" stroke="#bfbfbf" points="10,-56.5 10,-75.5 68,-75.5 68,-56.5 10,-56.5"/>
<text text-anchor="middle" x="39" y="-63.5" font-family="FreeSans" font-size="10.00">exception</text>
</g>
<!-- Node12&#45;&gt;Node13 -->
<g id="edge13" class="edge"><title>Node12&#45;&gt;Node13</title>
<path fill="none" stroke="midnightblue" d="M39,-112.083C39,-105.006 39,-94.8611 39,-85.9865"/>
<polygon fill="midnightblue" stroke="midnightblue" points="42.5001,-85.751 39,-75.7511 35.5001,-85.7511 42.5001,-85.751"/>
</g>
<!-- Node14&#45;&gt;Node3 -->
<g id="edge30" class="edge"><title>Node14&#45;&gt;Node3</title>
<path fill="none" stroke="midnightblue" d="M252.236,-292.679C245.358,-282.592 236.113,-269.033 228.819,-258.335"/>
<polygon fill="midnightblue" stroke="midnightblue" points="231.545,-256.119 223.019,-249.828 225.761,-260.062 231.545,-256.119"/>
</g>
<!-- Node15 -->
<g id="node15" class="node"><title>Node15</title>
<g id="a_node15"><a xlink:href="ThermoPhase_8h.html" target="_top" xlink:title="Header file for class ThermoPhase, the base class for phases with thermodynamic properties, and the text for the Module thermoprops (see Thermodynamic Properties and class ThermoPhase). ">
<polygon fill="white" stroke="black" points="305,-230.5 305,-249.5 389,-249.5 389,-230.5 305,-230.5"/>
<text text-anchor="middle" x="347" y="-237.5" font-family="FreeSans" font-size="10.00">ThermoPhase.h</text>
</a>
</g>
</g>
<!-- Node14&#45;&gt;Node15 -->
<g id="edge18" class="edge"><title>Node14&#45;&gt;Node15</title>
<path fill="none" stroke="midnightblue" d="M280.444,-292.679C294.353,-281.879 313.389,-267.098 327.54,-256.11"/>
<polygon fill="midnightblue" stroke="midnightblue" points="329.878,-258.726 335.63,-249.828 325.585,-253.197 329.878,-258.726"/>
</g>
<!-- Node15&#45;&gt;Node5 -->
<g id="edge29" class="edge"><title>Node15&#45;&gt;Node5</title>
<path fill="none" stroke="midnightblue" d="M343.372,-230.35C336.79,-215.621 321.539,-185.562 300,-168 280.846,-152.382 255.57,-141.604 233.877,-134.52"/>
<polygon fill="midnightblue" stroke="midnightblue" points="234.785,-131.138 224.197,-131.522 232.714,-137.824 234.785,-131.138"/>
</g>
<!-- Node16 -->
<g id="node16" class="node"><title>Node16</title>
<g id="a_node16"><a xlink:href="Phase_8h.html" target="_top" xlink:title="Header file for class Phase. ">
<polygon fill="white" stroke="black" points="348.5,-168.5 348.5,-187.5 399.5,-187.5 399.5,-168.5 348.5,-168.5"/>
<text text-anchor="middle" x="374" y="-175.5" font-family="FreeSans" font-size="10.00">Phase.h</text>
</a>
</g>
</g>
<!-- Node15&#45;&gt;Node16 -->
<g id="edge19" class="edge"><title>Node15&#45;&gt;Node16</title>
<path fill="none" stroke="midnightblue" d="M350.868,-230.403C354.798,-221.671 361,-207.889 365.993,-196.794"/>
<polygon fill="midnightblue" stroke="midnightblue" points="369.227,-198.136 370.139,-187.581 362.843,-195.264 369.227,-198.136"/>
</g>
<!-- Node20 -->
<g id="node20" class="node"><title>Node20</title>
<g id="a_node20"><a xlink:href="SpeciesThermo_8h.html" target="_top" xlink:title="Virtual base class for the calculation of multiple&#45;species thermodynamic reference&#45;state property man...">
<polygon fill="white" stroke="black" points="694,-168.5 694,-187.5 786,-187.5 786,-168.5 694,-168.5"/>
<text text-anchor="middle" x="740" y="-175.5" font-family="FreeSans" font-size="10.00">SpeciesThermo.h</text>
</a>
</g>
</g>
<!-- Node15&#45;&gt;Node20 -->
<g id="edge27" class="edge"><title>Node15&#45;&gt;Node20</title>
<path fill="none" stroke="midnightblue" d="M389.058,-232.579C460.028,-221.744 603.607,-199.823 683.363,-187.647"/>
<polygon fill="midnightblue" stroke="midnightblue" points="684.351,-191.037 693.708,-186.068 683.294,-184.117 684.351,-191.037"/>
</g>
<!-- Node16&#45;&gt;Node12 -->
<g id="edge20" class="edge"><title>Node16&#45;&gt;Node12</title>
<path fill="none" stroke="midnightblue" d="M348.269,-172.852C292.705,-163.896 160.687,-142.615 88.4019,-130.963"/>
<polygon fill="midnightblue" stroke="midnightblue" points="88.6162,-127.453 78.1866,-129.317 87.5021,-134.364 88.6162,-127.453"/>
</g>
<!-- Node17 -->
<g id="node17" class="node"><title>Node17</title>
<g id="a_node17"><a xlink:href="Elements_8h.html" target="_top" xlink:title="Contains the LookupWtElements function and the definitions of element constraint types. ">
<polygon fill="white" stroke="black" points="260,-112.5 260,-131.5 392,-131.5 392,-112.5 260,-112.5"/>
<text text-anchor="middle" x="326" y="-119.5" font-family="FreeSans" font-size="10.00">cantera/thermo/Elements.h</text>
</a>
</g>
</g>
<!-- Node16&#45;&gt;Node17 -->
<g id="edge21" class="edge"><title>Node16&#45;&gt;Node17</title>
<path fill="none" stroke="midnightblue" d="M366.074,-168.083C359.154,-160.298 348.935,-148.801 340.548,-139.367"/>
<polygon fill="midnightblue" stroke="midnightblue" points="343.038,-136.9 333.779,-131.751 337.806,-141.55 343.038,-136.9"/>
</g>
<!-- Node18 -->
<g id="node18" class="node"><title>Node18</title>
<g id="a_node18"><a xlink:href="Species_8h.html" target="_top" xlink:title="Declaration for class Cantera::Species. ">
<polygon fill="white" stroke="black" points="410.5,-112.5 410.5,-131.5 537.5,-131.5 537.5,-112.5 410.5,-112.5"/>
<text text-anchor="middle" x="474" y="-119.5" font-family="FreeSans" font-size="10.00">cantera/thermo/Species.h</text>
</a>
</g>
</g>
<!-- Node16&#45;&gt;Node18 -->
<g id="edge23" class="edge"><title>Node16&#45;&gt;Node18</title>
<path fill="none" stroke="midnightblue" d="M390.067,-168.324C405.958,-159.743 430.507,-146.486 448.958,-136.522"/>
<polygon fill="midnightblue" stroke="midnightblue" points="450.837,-139.486 457.973,-131.655 447.511,-133.326 450.837,-139.486"/>
</g>
<!-- Node19 -->
<g id="node19" class="node"><title>Node19</title>
<g id="a_node19"><a xlink:href="ValueCache_8h.html" target="_top" xlink:title="cantera/base/ValueCache.h">
<polygon fill="white" stroke="red" points="556,-112.5 556,-131.5 690,-131.5 690,-112.5 556,-112.5"/>
<text text-anchor="middle" x="623" y="-119.5" font-family="FreeSans" font-size="10.00">cantera/base/ValueCache.h</text>
</a>
</g>
</g>
<!-- Node16&#45;&gt;Node19 -->
<g id="edge25" class="edge"><title>Node16&#45;&gt;Node19</title>
<path fill="none" stroke="midnightblue" d="M399.71,-171.424C440.598,-162.557 521.161,-145.086 573.512,-133.732"/>
<polygon fill="midnightblue" stroke="midnightblue" points="574.555,-137.088 583.586,-131.548 573.071,-130.247 574.555,-137.088"/>
</g>
<!-- Node17&#45;&gt;Node6 -->
<g id="edge22" class="edge"><title>Node17&#45;&gt;Node6</title>
<path fill="none" stroke="midnightblue" d="M380.508,-112.444C450.711,-101.423 570.937,-82.5507 632.003,-72.9647"/>
<polygon fill="midnightblue" stroke="midnightblue" points="632.65,-76.4061 641.986,-71.3976 631.564,-69.4908 632.65,-76.4061"/>
</g>
<!-- Node18&#45;&gt;Node6 -->
<g id="edge24" class="edge"><title>Node18&#45;&gt;Node6</title>
<path fill="none" stroke="midnightblue" d="M505.057,-112.444C539.491,-102.956 595.048,-87.65 632.039,-77.4588"/>
<polygon fill="midnightblue" stroke="midnightblue" points="633.235,-80.7595 641.946,-74.729 631.376,-74.011 633.235,-80.7595"/>
</g>
<!-- Node19&#45;&gt;Node6 -->
<g id="edge26" class="edge"><title>Node19&#45;&gt;Node6</title>
<path fill="none" stroke="midnightblue" d="M630.761,-112.083C637.537,-104.298 647.543,-92.8015 655.755,-83.3665"/>
<polygon fill="midnightblue" stroke="midnightblue" points="658.458,-85.592 662.383,-75.7511 653.178,-80.9963 658.458,-85.592"/>
</g>
<!-- Node20&#45;&gt;Node6 -->
<g id="edge28" class="edge"><title>Node20&#45;&gt;Node6</title>
<path fill="none" stroke="midnightblue" d="M741.015,-168.315C742.119,-155.159 742.509,-129.826 732,-112 724.064,-98.5395 710.354,-87.9562 697.842,-80.4442"/>
<polygon fill="midnightblue" stroke="midnightblue" points="699.477,-77.3488 689.042,-75.5199 696.059,-83.4575 699.477,-77.3488"/>
</g>
<!-- Node22 -->
<g id="node22" class="node"><title>Node22</title>
<g id="a_node22"><a xlink:href="PDSS_8h.html" target="_top" xlink:title="Declarations for the virtual base class PDSS (pressure dependent standard state) which handles calcul...">
<polygon fill="white" stroke="black" points="647.5,-230.5 647.5,-249.5 698.5,-249.5 698.5,-230.5 647.5,-230.5"/>
<text text-anchor="middle" x="673" y="-237.5" font-family="FreeSans" font-size="10.00">PDSS.h</text>
</a>
</g>
</g>
<!-- Node21&#45;&gt;Node22 -->
<g id="edge32" class="edge"><title>Node21&#45;&gt;Node22</title>
<path fill="none" stroke="midnightblue" d="M461.182,-293.164C514.296,-280.084 592.372,-260.856 637.405,-249.766"/>
<polygon fill="midnightblue" stroke="midnightblue" points="638.427,-253.119 647.3,-247.329 636.753,-246.322 638.427,-253.119"/>
</g>
<!-- Node22&#45;&gt;Node4 -->
<g id="edge34" class="edge"><title>Node22&#45;&gt;Node4</title>
<path fill="none" stroke="midnightblue" d="M647.228,-235.247C577.892,-225.149 386.922,-197.338 302.296,-185.014"/>
<polygon fill="midnightblue" stroke="midnightblue" points="302.679,-181.533 292.279,-183.555 301.67,-188.46 302.679,-181.533"/>
</g>
<!-- Node22&#45;&gt;Node6 -->
<g id="edge33" class="edge"><title>Node22&#45;&gt;Node6</title>
<path fill="none" stroke="midnightblue" d="M697.359,-230.458C731.286,-218.319 789.275,-196.599 795,-188 825.708,-141.88 748.214,-99.7231 701.826,-79.5333"/>
<polygon fill="midnightblue" stroke="midnightblue" points="703.023,-76.2393 692.449,-75.5649 700.294,-82.6857 703.023,-76.2393"/>
</g>
<!-- Node23&#45;&gt;Node22 -->
<g id="edge36" class="edge"><title>Node23&#45;&gt;Node22</title>
<path fill="none" stroke="midnightblue" d="M998.903,-293.88C995.558,-293.213 992.239,-292.58 989,-292 868.535,-270.416 835.066,-284.303 716,-256 712.13,-255.08 708.12,-253.942 704.175,-252.708"/>
<polygon fill="midnightblue" stroke="midnightblue" points="705.212,-249.364 694.618,-249.51 702.99,-256.002 705.212,-249.364"/>
</g>
<!-- Node24 -->
<g id="node24" class="node"><title>Node24</title>
<g id="a_node24"><a xlink:href="WaterPropsIAPWS_8h.html" target="_top" xlink:title="Headers for a class for calculating the equation of state of water from the IAPWS 1995 Formulation ba...">
<polygon fill="white" stroke="black" points="997.5,-168.5 997.5,-187.5 1104.5,-187.5 1104.5,-168.5 997.5,-168.5"/>
<text text-anchor="middle" x="1051" y="-175.5" font-family="FreeSans" font-size="10.00">WaterPropsIAPWS.h</text>
</a>
</g>
</g>
<!-- Node23&#45;&gt;Node24 -->
<g id="edge37" class="edge"><title>Node23&#45;&gt;Node24</title>
<path fill="none" stroke="midnightblue" d="M1054.56,-292.813C1053.83,-269.67 1052.4,-223.785 1051.59,-197.904"/>
<polygon fill="midnightblue" stroke="midnightblue" points="1055.08,-197.46 1051.27,-187.574 1048.08,-197.678 1055.08,-197.46"/>
</g>
<!-- Node26 -->
<g id="node26" class="node"><title>Node26</title>
<g id="a_node26"><a xlink:href="WaterProps_8h.html" target="_top" xlink:title="Header for a class used to house several approximation routines for properties of water...">
<polygon fill="white" stroke="black" points="725,-230.5 725,-249.5 799,-249.5 799,-230.5 725,-230.5"/>
<text text-anchor="middle" x="762" y="-237.5" font-family="FreeSans" font-size="10.00">WaterProps.h</text>
</a>
</g>
</g>
<!-- Node23&#45;&gt;Node26 -->
<g id="edge40" class="edge"><title>Node23&#45;&gt;Node26</title>
<path fill="none" stroke="midnightblue" d="M998.837,-294.206C995.509,-293.457 992.211,-292.717 989,-292 916.171,-275.731 897.745,-272.643 825,-256 819.243,-254.683 813.195,-253.275 807.219,-251.868"/>
<polygon fill="midnightblue" stroke="midnightblue" points="807.831,-248.416 797.294,-249.519 806.219,-255.228 807.831,-248.416"/>
</g>
<!-- Node25 -->
<g id="node25" class="node"><title>Node25</title>
<g id="a_node25"><a xlink:href="WaterPropsIAPWSphi_8h.html" target="_top" xlink:title="Header for Lowest level of the classes which support a real water model (see class WaterPropsIAPWS an...">
<polygon fill="white" stroke="black" points="880.5,-56.5 880.5,-75.5 999.5,-75.5 999.5,-56.5 880.5,-56.5"/>
<text text-anchor="middle" x="940" y="-63.5" font-family="FreeSans" font-size="10.00">WaterPropsIAPWSphi.h</text>
</a>
</g>
</g>
<!-- Node24&#45;&gt;Node25 -->
<g id="edge38" class="edge"><title>Node24&#45;&gt;Node25</title>
<path fill="none" stroke="midnightblue" d="M1045.19,-168.454C1036.16,-155.48 1017.81,-130.382 999,-112 987.546,-100.808 973.303,-89.8744 961.682,-81.5874"/>
<polygon fill="midnightblue" stroke="midnightblue" points="963.599,-78.6573 953.395,-75.8057 959.593,-84.3981 963.599,-78.6573"/>
</g>
<!-- Node25&#45;&gt;Node7 -->
<g id="edge39" class="edge"><title>Node25&#45;&gt;Node7</title>
<path fill="none" stroke="midnightblue" d="M918.609,-56.4435C896.293,-47.5171 861.097,-33.4387 835.792,-23.3168"/>
<polygon fill="midnightblue" stroke="midnightblue" points="836.876,-19.9807 826.291,-19.5164 834.276,-26.4801 836.876,-19.9807"/>
</g>
<!-- Node26&#45;&gt;Node6 -->
<g id="edge41" class="edge"><title>Node26&#45;&gt;Node6</title>
<path fill="none" stroke="midnightblue" d="M738.075,-230.429C719.887,-222.499 696.153,-208.765 685,-188 668.748,-157.742 708.697,-144.949 699,-112 695.988,-101.765 689.845,-91.6599 683.986,-83.627"/>
<polygon fill="midnightblue" stroke="midnightblue" points="686.586,-81.2694 677.673,-75.5413 681.068,-85.5773 686.586,-81.2694"/>
</g>
<!-- Node27&#45;&gt;Node22 -->
<g id="edge43" class="edge"><title>Node27&#45;&gt;Node22</title>
<path fill="none" stroke="midnightblue" d="M564.604,-292.841C588.688,-281.323 622.402,-265.199 645.811,-254.004"/>
<polygon fill="midnightblue" stroke="midnightblue" points="647.336,-257.154 654.847,-249.682 644.316,-250.839 647.336,-257.154"/>
</g>
<!-- Node28&#45;&gt;Node22 -->
<g id="edge45" class="edge"><title>Node28&#45;&gt;Node22</title>
<path fill="none" stroke="midnightblue" d="M666.736,-292.679C667.897,-283.101 669.437,-270.394 670.7,-259.977"/>
<polygon fill="midnightblue" stroke="midnightblue" points="674.201,-260.177 671.93,-249.828 667.252,-259.334 674.201,-260.177"/>
</g>
<!-- Node29&#45;&gt;Node22 -->
<g id="edge47" class="edge"><title>Node29&#45;&gt;Node22</title>
<path fill="none" stroke="midnightblue" d="M768.828,-292.841C747.82,-281.476 718.525,-265.628 697.87,-254.454"/>
<polygon fill="midnightblue" stroke="midnightblue" points="699.509,-251.362 689.048,-249.682 696.178,-257.519 699.509,-251.362"/>
</g>
<!-- Node30&#45;&gt;Node22 -->
<g id="edge49" class="edge"><title>Node30&#45;&gt;Node22</title>
<path fill="none" stroke="midnightblue" d="M868.513,-293.863C816.814,-281.722 744.206,-264.34 716,-256 712.638,-255.006 709.15,-253.906 705.682,-252.767"/>
<polygon fill="midnightblue" stroke="midnightblue" points="706.67,-249.407 696.076,-249.508 704.421,-256.036 706.67,-249.407"/>
</g>
<!-- Node31&#45;&gt;Node20 -->
<g id="edge51" class="edge"><title>Node31&#45;&gt;Node20</title>
<path fill="none" stroke="midnightblue" d="M870.908,-224.933C841.455,-214.598 801.875,-200.711 773.972,-190.92"/>
<polygon fill="midnightblue" stroke="midnightblue" points="774.856,-187.521 764.261,-187.513 772.538,-194.126 774.856,-187.521"/>
</g>
<!-- Node32 -->
<g id="node32" class="node"><title>Node32</title>
<g id="a_node32"><a xlink:href="SpeciesThermoInterpType_8h.html" target="_top" xlink:title="Pure Virtual Base class for individual species reference state thermodynamic managers and text for th...">
<polygon fill="white" stroke="black" points="842.5,-168.5 842.5,-187.5 979.5,-187.5 979.5,-168.5 842.5,-168.5"/>
<text text-anchor="middle" x="911" y="-175.5" font-family="FreeSans" font-size="10.00">SpeciesThermoInterpType.h</text>
</a>
</g>
</g>
<!-- Node31&#45;&gt;Node32 -->
<g id="edge52" class="edge"><title>Node31&#45;&gt;Node32</title>
<path fill="none" stroke="midnightblue" d="M911,-224.781C911,-216.781 911,-206.689 911,-198.017"/>
<polygon fill="midnightblue" stroke="midnightblue" points="914.5,-197.73 911,-187.731 907.5,-197.731 914.5,-197.73"/>
</g>
<!-- Node32&#45;&gt;Node6 -->
<g id="edge53" class="edge"><title>Node32&#45;&gt;Node6</title>
<path fill="none" stroke="midnightblue" d="M901.46,-168.157C886.066,-154.326 854.298,-127.55 823,-112 785.859,-93.5466 739.8,-81.2817 707.976,-74.2811"/>
<polygon fill="midnightblue" stroke="midnightblue" points="708.682,-70.8532 698.172,-72.192 707.223,-77.6995 708.682,-70.8532"/>
</g>
<!-- Node33 -->
<g id="node33" class="node"><title>Node33</title>
<g id="a_node33"><a xlink:href="speciesThermoTypes_8h.html" target="_top" xlink:title="Contains const definitions for types of species reference&#45;state thermodynamics managers (see Species ...">
<polygon fill="white" stroke="black" points="875.5,-112.5 875.5,-131.5 990.5,-131.5 990.5,-112.5 875.5,-112.5"/>
<text text-anchor="middle" x="933" y="-119.5" font-family="FreeSans" font-size="10.00">speciesThermoTypes.h</text>
</a>
</g>
</g>
<!-- Node32&#45;&gt;Node33 -->
<g id="edge54" class="edge"><title>Node32&#45;&gt;Node33</title>
<path fill="none" stroke="midnightblue" d="M914.633,-168.083C917.612,-160.77 921.926,-150.181 925.625,-141.103"/>
<polygon fill="midnightblue" stroke="midnightblue" points="928.903,-142.333 929.435,-131.751 922.42,-139.691 928.903,-142.333"/>
</g>
<!-- Node34&#45;&gt;Node5 -->
<g id="edge57" class="edge"><title>Node34&#45;&gt;Node5</title>
<path fill="none" stroke="midnightblue" d="M1122.16,-168.904C1119.06,-168.571 1115.99,-168.266 1113,-168 734.417,-134.357 634.578,-166.581 252.487,-132.037"/>
<polygon fill="midnightblue" stroke="midnightblue" points="252.533,-128.527 242.256,-131.103 251.896,-135.498 252.533,-128.527"/>
</g>
<!-- Node34&#45;&gt;Node6 -->
<g id="edge56" class="edge"><title>Node34&#45;&gt;Node6</title>
<path fill="none" stroke="midnightblue" d="M1159.45,-168.39C1126.84,-154.387 1059.01,-126.764 999,-112 895.543,-86.5467 770,-74.3915 708.176,-69.5994"/>
<polygon fill="midnightblue" stroke="midnightblue" points="708.337,-66.1017 698.103,-68.8405 707.811,-73.0819 708.337,-66.1017"/>
</g>
<!-- Node35 -->
<g id="node35" class="node"><title>Node35</title>
<polygon fill="white" stroke="#bfbfbf" points="1117,-112.5 1117,-131.5 1175,-131.5 1175,-112.5 1117,-112.5"/>
<text text-anchor="middle" x="1146" y="-119.5" font-family="FreeSans" font-size="10.00">stdexcept</text>
</g>
<!-- Node34&#45;&gt;Node35 -->
<g id="edge58" class="edge"><title>Node34&#45;&gt;Node35</title>
<path fill="none" stroke="midnightblue" d="M1173.55,-168.083C1168.99,-160.613 1162.33,-149.724 1156.71,-140.52"/>
<polygon fill="midnightblue" stroke="midnightblue" points="1159.55,-138.459 1151.35,-131.751 1153.58,-142.109 1159.55,-138.459"/>
</g>
<!-- Node36 -->
<g id="node36" class="node"><title>Node36</title>
<polygon fill="white" stroke="#bfbfbf" points="1193.5,-112.5 1193.5,-131.5 1244.5,-131.5 1244.5,-112.5 1193.5,-112.5"/>
<text text-anchor="middle" x="1219" y="-119.5" font-family="FreeSans" font-size="10.00">numeric</text>
</g>
<!-- Node34&#45;&gt;Node36 -->
<g id="edge59" class="edge"><title>Node34&#45;&gt;Node36</title>
<path fill="none" stroke="midnightblue" d="M1185.61,-168.083C1191.26,-160.455 1199.54,-149.264 1206.45,-139.941"/>
<polygon fill="midnightblue" stroke="midnightblue" points="1209.38,-141.87 1212.52,-131.751 1203.75,-137.703 1209.38,-141.87"/>
</g>
</g>
</svg>
