<?xml version="1.0" encoding="UTF-8" standalone="no"?>
<!DOCTYPE svg PUBLIC "-//W3C//DTD SVG 1.1//EN"
 "http://www.w3.org/Graphics/SVG/1.1/DTD/svg11.dtd">
<!-- Generated by graphviz version 2.36.0 (20140111.2315)
 -->
<!-- Title: VPSSMgr_General.cpp Pages: 1 -->
<svg width="1172pt" height="488pt"
 viewBox="0.00 0.00 1171.97 488.00" xmlns="http://www.w3.org/2000/svg" xmlns:xlink="http://www.w3.org/1999/xlink">
<g id="graph0" class="graph" transform="scale(1 1) rotate(0) translate(4 484)">
<title>VPSSMgr_General.cpp</title>
<polygon fill="white" stroke="none" points="-4,4 -4,-484 1167.97,-484 1167.97,4 -4,4"/>
<!-- Node1 -->
<g id="node1" class="node"><title>Node1</title>
<polygon fill="#bfbfbf" stroke="black" points="571,-460.5 571,-479.5 687,-479.5 687,-460.5 571,-460.5"/>
<text text-anchor="middle" x="629" y="-467.5" font-family="FreeSans" font-size="10.00">VPSSMgr_General.cpp</text>
</g>
<!-- Node2 -->
<g id="node2" class="node"><title>Node2</title>
<g id="a_node2"><a xlink:href="VPSSMgr__General_8h.html" target="_top" xlink:title="Declaration file for a derived class that handles the calculation of standard state thermo properties...">
<polygon fill="white" stroke="black" points="232,-393 232,-423 360,-423 360,-393 232,-393"/>
<text text-anchor="start" x="240" y="-411" font-family="FreeSans" font-size="10.00">cantera/thermo/VPSSMgr</text>
<text text-anchor="middle" x="296" y="-400" font-family="FreeSans" font-size="10.00">_General.h</text>
</a>
</g>
</g>
<!-- Node1&#45;&gt;Node2 -->
<g id="edge1" class="edge"><title>Node1&#45;&gt;Node2</title>
<path fill="none" stroke="midnightblue" d="M576.623,-460.429C526.21,-452.068 447.571,-438.735 370.015,-424.16"/>
<polygon fill="midnightblue" stroke="midnightblue" points="370.547,-420.699 360.072,-422.283 369.249,-427.577 370.547,-420.699"/>
</g>
<!-- Node9 -->
<g id="node9" class="node"><title>Node9</title>
<g id="a_node9"><a xlink:href="ctml_8h.html" target="_top" xlink:title="CTML (&quot;Cantera Markup Language&quot;) is the variant of XML that Cantera uses to store data...">
<polygon fill="white" stroke="black" points="-0.5,-280.5 -0.5,-299.5 100.5,-299.5 100.5,-280.5 -0.5,-280.5"/>
<text text-anchor="middle" x="50" y="-287.5" font-family="FreeSans" font-size="10.00">cantera/base/ctml.h</text>
</a>
</g>
</g>
<!-- Node1&#45;&gt;Node9 -->
<g id="edge9" class="edge"><title>Node1&#45;&gt;Node9</title>
<path fill="none" stroke="midnightblue" d="M570.827,-468.414C434.451,-466.472 102.901,-458.244 67,-424 36.0698,-394.497 40.7647,-338.89 45.8915,-309.806"/>
<polygon fill="midnightblue" stroke="midnightblue" points="49.3738,-310.237 47.8737,-299.749 42.5059,-308.884 49.3738,-310.237"/>
</g>
<!-- Node13 -->
<g id="node13" class="node"><title>Node13</title>
<g id="a_node13"><a xlink:href="VPStandardStateTP_8h.html" target="_top" xlink:title="Header file for a derived class of ThermoPhase that handles variable pressure standard state methods ...">
<polygon fill="white" stroke="black" points="76.5,-393 76.5,-423 213.5,-423 213.5,-393 76.5,-393"/>
<text text-anchor="start" x="84.5" y="-411" font-family="FreeSans" font-size="10.00">cantera/thermo/VPStandard</text>
<text text-anchor="middle" x="145" y="-400" font-family="FreeSans" font-size="10.00">StateTP.h</text>
</a>
</g>
</g>
<!-- Node1&#45;&gt;Node13 -->
<g id="edge16" class="edge"><title>Node1&#45;&gt;Node13</title>
<path fill="none" stroke="midnightblue" d="M570.99,-464.034C494.035,-457.122 353.762,-443.395 223.973,-424.071"/>
<polygon fill="midnightblue" stroke="midnightblue" points="224.262,-420.575 213.852,-422.549 223.221,-427.497 224.262,-420.575"/>
</g>
<!-- Node21 -->
<g id="node21" class="node"><title>Node21</title>
<g id="a_node21"><a xlink:href="PDSS__IdealGas_8h.html" target="_top" xlink:title="Declarations for the class PDSS_IdealGas (pressure dependent standard state) which handles calculatio...">
<polygon fill="white" stroke="black" points="378,-393 378,-423 490,-423 490,-393 378,-393"/>
<text text-anchor="start" x="386" y="-411" font-family="FreeSans" font-size="10.00">cantera/thermo/PDSS</text>
<text text-anchor="middle" x="434" y="-400" font-family="FreeSans" font-size="10.00">_IdealGas.h</text>
</a>
</g>
</g>
<!-- Node1&#45;&gt;Node21 -->
<g id="edge33" class="edge"><title>Node1&#45;&gt;Node21</title>
<path fill="none" stroke="midnightblue" d="M601.061,-460.403C572.087,-451.488 526.011,-437.311 489.58,-426.101"/>
<polygon fill="midnightblue" stroke="midnightblue" points="490.169,-422.621 479.582,-423.025 488.111,-429.311 490.169,-422.621"/>
</g>
<!-- Node23 -->
<g id="node23" class="node"><title>Node23</title>
<g id="a_node23"><a xlink:href="PDSS__Water_8h.html" target="_top" xlink:title="Implementation of a pressure dependent standard state virtual function for a Pure Water Phase (see Sp...">
<polygon fill="white" stroke="black" points="1028,-393 1028,-423 1140,-423 1140,-393 1028,-393"/>
<text text-anchor="start" x="1036" y="-411" font-family="FreeSans" font-size="10.00">cantera/thermo/PDSS</text>
<text text-anchor="middle" x="1084" y="-400" font-family="FreeSans" font-size="10.00">_Water.h</text>
</a>
</g>
</g>
<!-- Node1&#45;&gt;Node23 -->
<g id="edge37" class="edge"><title>Node1&#45;&gt;Node23</title>
<path fill="none" stroke="midnightblue" d="M687.276,-464.243C763.593,-457.559 901.398,-443.934 1018,-424 1018.1,-423.983 1018.2,-423.965 1018.3,-423.948"/>
<polygon fill="midnightblue" stroke="midnightblue" points="1018.71,-427.432 1027.91,-422.182 1017.45,-420.547 1018.71,-427.432"/>
</g>
<!-- Node27 -->
<g id="node27" class="node"><title>Node27</title>
<g id="a_node27"><a xlink:href="PDSS__ConstVol_8h.html" target="_top" xlink:title="Declarations for the class PDSS_ConstVol (pressure dependent standard state) which handles calculatio...">
<polygon fill="white" stroke="black" points="508,-393 508,-423 620,-423 620,-393 508,-393"/>
<text text-anchor="start" x="516" y="-411" font-family="FreeSans" font-size="10.00">cantera/thermo/PDSS</text>
<text text-anchor="middle" x="564" y="-400" font-family="FreeSans" font-size="10.00">_ConstVol.h</text>
</a>
</g>
</g>
<!-- Node1&#45;&gt;Node27 -->
<g id="edge44" class="edge"><title>Node1&#45;&gt;Node27</title>
<path fill="none" stroke="midnightblue" d="M619.687,-460.403C611.131,-452.505 598.1,-440.477 586.794,-430.041"/>
<polygon fill="midnightblue" stroke="midnightblue" points="589.041,-427.352 579.319,-423.141 584.293,-432.495 589.041,-427.352"/>
</g>
<!-- Node28 -->
<g id="node28" class="node"><title>Node28</title>
<g id="a_node28"><a xlink:href="PDSS__SSVol_8h.html" target="_top" xlink:title="Declarations for the class PDSS_SSVol (pressure dependent standard state) which handles calculations ...">
<polygon fill="white" stroke="black" points="638,-393 638,-423 750,-423 750,-393 638,-393"/>
<text text-anchor="start" x="646" y="-411" font-family="FreeSans" font-size="10.00">cantera/thermo/PDSS</text>
<text text-anchor="middle" x="694" y="-400" font-family="FreeSans" font-size="10.00">_SSVol.h</text>
</a>
</g>
</g>
<!-- Node1&#45;&gt;Node28 -->
<g id="edge46" class="edge"><title>Node1&#45;&gt;Node28</title>
<path fill="none" stroke="midnightblue" d="M638.313,-460.403C646.869,-452.505 659.9,-440.477 671.206,-430.041"/>
<polygon fill="midnightblue" stroke="midnightblue" points="673.707,-432.495 678.681,-423.141 668.959,-427.352 673.707,-432.495"/>
</g>
<!-- Node29 -->
<g id="node29" class="node"><title>Node29</title>
<g id="a_node29"><a xlink:href="PDSS__HKFT_8h.html" target="_top" xlink:title="Declarations for the class PDSS_HKFT (pressure dependent standard state) which handles calculations f...">
<polygon fill="white" stroke="black" points="768,-393 768,-423 880,-423 880,-393 768,-393"/>
<text text-anchor="start" x="776" y="-411" font-family="FreeSans" font-size="10.00">cantera/thermo/PDSS</text>
<text text-anchor="middle" x="824" y="-400" font-family="FreeSans" font-size="10.00">_HKFT.h</text>
</a>
</g>
</g>
<!-- Node1&#45;&gt;Node29 -->
<g id="edge48" class="edge"><title>Node1&#45;&gt;Node29</title>
<path fill="none" stroke="midnightblue" d="M656.939,-460.403C685.913,-451.488 731.989,-437.311 768.42,-426.101"/>
<polygon fill="midnightblue" stroke="midnightblue" points="769.889,-429.311 778.418,-423.025 767.831,-422.621 769.889,-429.311"/>
</g>
<!-- Node30 -->
<g id="node30" class="node"><title>Node30</title>
<g id="a_node30"><a xlink:href="PDSS__IonsFromNeutral_8h.html" target="_top" xlink:title="Declarations for the class PDSS_IonsFromNeutral ( which handles calculations for a single ion in a fl...">
<polygon fill="white" stroke="black" points="898,-393 898,-423 1010,-423 1010,-393 898,-393"/>
<text text-anchor="start" x="906" y="-411" font-family="FreeSans" font-size="10.00">cantera/thermo/PDSS</text>
<text text-anchor="middle" x="954" y="-400" font-family="FreeSans" font-size="10.00">_IonsFromNeutral.h</text>
</a>
</g>
</g>
<!-- Node1&#45;&gt;Node30 -->
<g id="edge50" class="edge"><title>Node1&#45;&gt;Node30</title>
<path fill="none" stroke="midnightblue" d="M682.722,-460.494C735.209,-451.988 817.296,-438.167 888,-424 888.101,-423.98 888.202,-423.96 888.303,-423.939"/>
<polygon fill="midnightblue" stroke="midnightblue" points="888.787,-427.413 897.873,-421.963 887.371,-420.558 888.787,-427.413"/>
</g>
<!-- Node31 -->
<g id="node31" class="node"><title>Node31</title>
<g id="a_node31"><a xlink:href="utilities_8h.html" target="_top" xlink:title="Various templated functions that carry out common vector operations (see Templated Utility Functions)...">
<polygon fill="white" stroke="black" points="862.5,-224.5 862.5,-243.5 975.5,-243.5 975.5,-224.5 862.5,-224.5"/>
<text text-anchor="middle" x="919" y="-231.5" font-family="FreeSans" font-size="10.00">cantera/base/utilities.h</text>
</a>
</g>
</g>
<!-- Node1&#45;&gt;Node31 -->
<g id="edge52" class="edge"><title>Node1&#45;&gt;Node31</title>
<path fill="none" stroke="midnightblue" d="M687.283,-468.283C816.356,-466.091 1117.36,-457.412 1148,-424 1218,-347.671 1037.09,-274.742 955.978,-246.887"/>
<polygon fill="midnightblue" stroke="midnightblue" points="956.741,-243.45 946.146,-243.564 954.499,-250.082 956.741,-243.45"/>
</g>
<!-- Node3 -->
<g id="node3" class="node"><title>Node3</title>
<g id="a_node3"><a xlink:href="VPSSMgr_8h.html" target="_top" xlink:title="Declaration file for a virtual base class that manages the calculation of standard state properties f...">
<polygon fill="white" stroke="black" points="466.5,-336.5 466.5,-355.5 533.5,-355.5 533.5,-336.5 466.5,-336.5"/>
<text text-anchor="middle" x="500" y="-343.5" font-family="FreeSans" font-size="10.00">VPSSMgr.h</text>
</a>
</g>
</g>
<!-- Node2&#45;&gt;Node3 -->
<g id="edge2" class="edge"><title>Node2&#45;&gt;Node3</title>
<path fill="none" stroke="midnightblue" d="M343.829,-392.933C379.582,-382.417 427.844,-368.222 461.21,-358.409"/>
<polygon fill="midnightblue" stroke="midnightblue" points="462.451,-361.692 471.057,-355.513 460.476,-354.977 462.451,-361.692"/>
</g>
<!-- Node4 -->
<g id="node4" class="node"><title>Node4</title>
<g id="a_node4"><a xlink:href="mix__defs_8h.html" target="_top" xlink:title="mix_defs.h">
<polygon fill="white" stroke="black" points="604,-280.5 604,-299.5 666,-299.5 666,-280.5 604,-280.5"/>
<text text-anchor="middle" x="635" y="-287.5" font-family="FreeSans" font-size="10.00">mix_defs.h</text>
</a>
</g>
</g>
<!-- Node3&#45;&gt;Node4 -->
<g id="edge3" class="edge"><title>Node3&#45;&gt;Node4</title>
<path fill="none" stroke="midnightblue" d="M521.391,-336.444C543.707,-327.517 578.903,-313.439 604.208,-303.317"/>
<polygon fill="midnightblue" stroke="midnightblue" points="605.724,-306.48 613.709,-299.516 603.124,-299.981 605.724,-306.48"/>
</g>
<!-- Node5 -->
<g id="node5" class="node"><title>Node5</title>
<g id="a_node5"><a xlink:href="global_8h.html" target="_top" xlink:title="This file contains definitions for utility functions and text for modules, inputfiles, logs, textlogs, (see Input File Handling, Diagnostic Output, and Writing messages to the screen). ">
<polygon fill="white" stroke="black" points="546,-168.5 546,-187.5 654,-187.5 654,-168.5 546,-168.5"/>
<text text-anchor="middle" x="600" y="-175.5" font-family="FreeSans" font-size="10.00">cantera/base/global.h</text>
</a>
</g>
</g>
<!-- Node3&#45;&gt;Node5 -->
<g id="edge4" class="edge"><title>Node3&#45;&gt;Node5</title>
<path fill="none" stroke="midnightblue" d="M513.117,-336.4C524.699,-328.23 541.354,-314.99 552,-300 575.036,-267.564 589.088,-222.521 595.619,-197.547"/>
<polygon fill="midnightblue" stroke="midnightblue" points="599.075,-198.151 598.096,-187.602 592.283,-196.46 599.075,-198.151"/>
</g>
<!-- Node6 -->
<g id="node6" class="node"><title>Node6</title>
<g id="a_node6"><a xlink:href="ct__defs_8h.html" target="_top" xlink:title="This file contains definitions of terms that are used in internal routines and are unlikely to need m...">
<polygon fill="white" stroke="red" points="546,-56.5 546,-75.5 602,-75.5 602,-56.5 546,-56.5"/>
<text text-anchor="middle" x="574" y="-63.5" font-family="FreeSans" font-size="10.00">ct_defs.h</text>
</a>
</g>
</g>
<!-- Node5&#45;&gt;Node6 -->
<g id="edge5" class="edge"><title>Node5&#45;&gt;Node6</title>
<path fill="none" stroke="midnightblue" d="M609.583,-168.152C621.927,-155.629 640.705,-132.027 631,-112 624.603,-98.7996 612.248,-88.3032 600.671,-80.7794"/>
<polygon fill="midnightblue" stroke="midnightblue" points="602.454,-77.7678 592.082,-75.6099 598.845,-83.7653 602.454,-77.7678"/>
</g>
<!-- Node8 -->
<g id="node8" class="node"><title>Node8</title>
<g id="a_node8"><a xlink:href="fmt_8h.html" target="_top" xlink:title="Wrapper for either system&#45;installed or local headers for fmt. ">
<polygon fill="white" stroke="red" points="525.5,-112.5 525.5,-131.5 622.5,-131.5 622.5,-112.5 525.5,-112.5"/>
<text text-anchor="middle" x="574" y="-119.5" font-family="FreeSans" font-size="10.00">cantera/base/fmt.h</text>
</a>
</g>
</g>
<!-- Node5&#45;&gt;Node8 -->
<g id="edge7" class="edge"><title>Node5&#45;&gt;Node8</title>
<path fill="none" stroke="midnightblue" d="M595.707,-168.083C592.148,-160.691 586.978,-149.953 582.576,-140.811"/>
<polygon fill="midnightblue" stroke="midnightblue" points="585.705,-139.243 578.213,-131.751 579.398,-142.279 585.705,-139.243"/>
</g>
<!-- Node7 -->
<g id="node7" class="node"><title>Node7</title>
<g id="a_node7"><a xlink:href="config_8h_source.html" target="_top" xlink:title="config.h">
<polygon fill="white" stroke="black" points="668,-0.5 668,-19.5 718,-19.5 718,-0.5 668,-0.5"/>
<text text-anchor="middle" x="693" y="-7.5" font-family="FreeSans" font-size="10.00">config.h</text>
</a>
</g>
</g>
<!-- Node6&#45;&gt;Node7 -->
<g id="edge6" class="edge"><title>Node6&#45;&gt;Node7</title>
<path fill="none" stroke="midnightblue" d="M592.856,-56.4435C612.266,-47.6356 642.73,-33.8116 664.965,-23.722"/>
<polygon fill="midnightblue" stroke="midnightblue" points="666.572,-26.836 674.232,-19.5164 663.68,-20.4615 666.572,-26.836"/>
</g>
<!-- Node8&#45;&gt;Node6 -->
<g id="edge8" class="edge"><title>Node8&#45;&gt;Node6</title>
<path fill="none" stroke="midnightblue" d="M574,-112.083C574,-105.006 574,-94.8611 574,-85.9865"/>
<polygon fill="midnightblue" stroke="midnightblue" points="577.5,-85.751 574,-75.7511 570.5,-85.7511 577.5,-85.751"/>
</g>
<!-- Node9&#45;&gt;Node6 -->
<g id="edge10" class="edge"><title>Node9&#45;&gt;Node6</title>
<path fill="none" stroke="midnightblue" d="M47.6579,-280.417C40.4133,-251.758 21.5923,-158.559 69,-112 102.118,-79.4745 423.544,-69.9971 535.657,-67.6685"/>
<polygon fill="midnightblue" stroke="midnightblue" points="535.909,-71.1643 545.837,-67.465 535.769,-64.1657 535.909,-71.1643"/>
</g>
<!-- Node10 -->
<g id="node10" class="node"><title>Node10</title>
<g id="a_node10"><a xlink:href="xml_8h.html" target="_top" xlink:title="Classes providing support for XML data files. ">
<polygon fill="white" stroke="black" points="470.5,-224.5 470.5,-243.5 509.5,-243.5 509.5,-224.5 470.5,-224.5"/>
<text text-anchor="middle" x="490" y="-231.5" font-family="FreeSans" font-size="10.00">xml.h</text>
</a>
</g>
</g>
<!-- Node9&#45;&gt;Node10 -->
<g id="edge11" class="edge"><title>Node9&#45;&gt;Node10</title>
<path fill="none" stroke="midnightblue" d="M100.788,-286.578C176.992,-282.258 325.444,-271.187 460.375,-243.71"/>
<polygon fill="midnightblue" stroke="midnightblue" points="461.396,-247.073 470.478,-241.616 459.976,-240.219 461.396,-247.073"/>
</g>
<!-- Node10&#45;&gt;Node5 -->
<g id="edge15" class="edge"><title>Node10&#45;&gt;Node5</title>
<path fill="none" stroke="midnightblue" d="M507.673,-224.324C525.394,-215.625 552.903,-202.12 573.288,-192.113"/>
<polygon fill="midnightblue" stroke="midnightblue" points="574.936,-195.203 582.37,-187.655 571.851,-188.919 574.936,-195.203"/>
</g>
<!-- Node11 -->
<g id="node11" class="node"><title>Node11</title>
<g id="a_node11"><a xlink:href="ctexceptions_8h.html" target="_top" xlink:title="Definitions for the classes that are thrown when Cantera experiences an error condition (also contain...">
<polygon fill="white" stroke="black" points="450,-168.5 450,-187.5 528,-187.5 528,-168.5 450,-168.5"/>
<text text-anchor="middle" x="489" y="-175.5" font-family="FreeSans" font-size="10.00">ctexceptions.h</text>
</a>
</g>
</g>
<!-- Node10&#45;&gt;Node11 -->
<g id="edge12" class="edge"><title>Node10&#45;&gt;Node11</title>
<path fill="none" stroke="midnightblue" d="M489.835,-224.083C489.704,-217.006 489.516,-206.861 489.352,-197.986"/>
<polygon fill="midnightblue" stroke="midnightblue" points="492.847,-197.685 489.162,-187.751 485.848,-197.814 492.847,-197.685"/>
</g>
<!-- Node11&#45;&gt;Node8 -->
<g id="edge13" class="edge"><title>Node11&#45;&gt;Node8</title>
<path fill="none" stroke="midnightblue" d="M502.657,-168.324C515.916,-159.9 536.268,-146.971 551.846,-137.074"/>
<polygon fill="midnightblue" stroke="midnightblue" points="553.813,-139.971 560.377,-131.655 550.06,-134.063 553.813,-139.971"/>
</g>
<!-- Node12 -->
<g id="node12" class="node"><title>Node12</title>
<polygon fill="white" stroke="#bfbfbf" points="450,-112.5 450,-131.5 508,-131.5 508,-112.5 450,-112.5"/>
<text text-anchor="middle" x="479" y="-119.5" font-family="FreeSans" font-size="10.00">exception</text>
</g>
<!-- Node11&#45;&gt;Node12 -->
<g id="edge14" class="edge"><title>Node11&#45;&gt;Node12</title>
<path fill="none" stroke="midnightblue" d="M487.349,-168.083C486.024,-160.927 484.118,-150.635 482.461,-141.691"/>
<polygon fill="midnightblue" stroke="midnightblue" points="485.883,-140.947 480.621,-131.751 479,-142.221 485.883,-140.947"/>
</g>
<!-- Node13&#45;&gt;Node3 -->
<g id="edge32" class="edge"><title>Node13&#45;&gt;Node3</title>
<path fill="none" stroke="midnightblue" d="M213.883,-393.641C216.963,-393.079 220.013,-392.53 223,-392 305.248,-377.414 401.573,-362.181 456.228,-353.71"/>
<polygon fill="midnightblue" stroke="midnightblue" points="456.914,-357.146 466.261,-352.159 455.844,-350.228 456.914,-357.146"/>
</g>
<!-- Node14 -->
<g id="node14" class="node"><title>Node14</title>
<g id="a_node14"><a xlink:href="ThermoPhase_8h.html" target="_top" xlink:title="Header file for class ThermoPhase, the base class for phases with thermodynamic properties, and the text for the Module thermoprops (see Thermodynamic Properties and class ThermoPhase). ">
<polygon fill="white" stroke="black" points="289,-336.5 289,-355.5 373,-355.5 373,-336.5 289,-336.5"/>
<text text-anchor="middle" x="331" y="-343.5" font-family="FreeSans" font-size="10.00">ThermoPhase.h</text>
</a>
</g>
</g>
<!-- Node13&#45;&gt;Node14 -->
<g id="edge17" class="edge"><title>Node13&#45;&gt;Node14</title>
<path fill="none" stroke="midnightblue" d="M188.609,-392.933C220.926,-382.508 264.453,-368.467 294.843,-358.663"/>
<polygon fill="midnightblue" stroke="midnightblue" points="296.168,-361.914 304.611,-355.513 294.019,-355.252 296.168,-361.914"/>
</g>
<!-- Node14&#45;&gt;Node5 -->
<g id="edge31" class="edge"><title>Node14&#45;&gt;Node5</title>
<path fill="none" stroke="midnightblue" d="M357.416,-336.395C380.456,-328.403 414.416,-315.432 442,-300 478.616,-279.514 484.666,-269.48 518,-244 540.123,-227.09 565.151,-207.127 581.674,-193.829"/>
<polygon fill="midnightblue" stroke="midnightblue" points="583.892,-196.537 589.479,-187.534 579.498,-191.088 583.892,-196.537"/>
</g>
<!-- Node15 -->
<g id="node15" class="node"><title>Node15</title>
<g id="a_node15"><a xlink:href="Phase_8h.html" target="_top" xlink:title="Header file for class Phase. ">
<polygon fill="white" stroke="black" points="246.5,-224.5 246.5,-243.5 297.5,-243.5 297.5,-224.5 246.5,-224.5"/>
<text text-anchor="middle" x="272" y="-231.5" font-family="FreeSans" font-size="10.00">Phase.h</text>
</a>
</g>
</g>
<!-- Node14&#45;&gt;Node15 -->
<g id="edge18" class="edge"><title>Node14&#45;&gt;Node15</title>
<path fill="none" stroke="midnightblue" d="M326.37,-336.368C316.72,-318.376 294.286,-276.55 281.454,-252.627"/>
<polygon fill="midnightblue" stroke="midnightblue" points="284.419,-250.749 276.608,-243.591 278.25,-254.058 284.419,-250.749"/>
</g>
<!-- Node19 -->
<g id="node19" class="node"><title>Node19</title>
<g id="a_node19"><a xlink:href="MultiSpeciesThermo_8h.html" target="_top" xlink:title="Header for a general species thermodynamic property manager for a phase (see MultiSpeciesThermo). ">
<polygon fill="white" stroke="black" points="320.5,-280.5 320.5,-299.5 433.5,-299.5 433.5,-280.5 320.5,-280.5"/>
<text text-anchor="middle" x="377" y="-287.5" font-family="FreeSans" font-size="10.00">MultiSpeciesThermo.h</text>
</a>
</g>
</g>
<!-- Node14&#45;&gt;Node19 -->
<g id="edge26" class="edge"><title>Node14&#45;&gt;Node19</title>
<path fill="none" stroke="midnightblue" d="M338.596,-336.083C345.227,-328.298 355.021,-316.801 363.058,-307.367"/>
<polygon fill="midnightblue" stroke="midnightblue" points="365.725,-309.633 369.545,-299.751 360.396,-305.094 365.725,-309.633"/>
</g>
<!-- Node15&#45;&gt;Node11 -->
<g id="edge19" class="edge"><title>Node15&#45;&gt;Node11</title>
<path fill="none" stroke="midnightblue" d="M297.607,-226.17C300.437,-225.43 303.278,-224.695 306,-224 352.797,-212.054 406.474,-198.921 443.536,-189.944"/>
<polygon fill="midnightblue" stroke="midnightblue" points="444.633,-193.279 453.53,-187.526 442.987,-186.476 444.633,-193.279"/>
</g>
<!-- Node16 -->
<g id="node16" class="node"><title>Node16</title>
<g id="a_node16"><a xlink:href="Elements_8h.html" target="_top" xlink:title="Contains the getElementWeight function and the definitions of element constraint types. ">
<polygon fill="white" stroke="black" points="78,-112.5 78,-131.5 210,-131.5 210,-112.5 78,-112.5"/>
<text text-anchor="middle" x="144" y="-119.5" font-family="FreeSans" font-size="10.00">cantera/thermo/Elements.h</text>
</a>
</g>
</g>
<!-- Node15&#45;&gt;Node16 -->
<g id="edge20" class="edge"><title>Node15&#45;&gt;Node16</title>
<path fill="none" stroke="midnightblue" d="M261.956,-224.368C240.272,-205.733 188.838,-161.532 161.61,-138.134"/>
<polygon fill="midnightblue" stroke="midnightblue" points="163.863,-135.455 153.997,-131.591 159.3,-140.764 163.863,-135.455"/>
</g>
<!-- Node17 -->
<g id="node17" class="node"><title>Node17</title>
<g id="a_node17"><a xlink:href="Species_8h.html" target="_top" xlink:title="Declaration for class Cantera::Species. ">
<polygon fill="white" stroke="black" points="228.5,-112.5 228.5,-131.5 355.5,-131.5 355.5,-112.5 228.5,-112.5"/>
<text text-anchor="middle" x="292" y="-119.5" font-family="FreeSans" font-size="10.00">cantera/thermo/Species.h</text>
</a>
</g>
</g>
<!-- Node15&#45;&gt;Node17 -->
<g id="edge22" class="edge"><title>Node15&#45;&gt;Node17</title>
<path fill="none" stroke="midnightblue" d="M265.508,-224.478C256.805,-211.954 243.292,-187.906 251,-168 255.454,-156.498 264.368,-146.131 272.749,-138.255"/>
<polygon fill="midnightblue" stroke="midnightblue" points="275.237,-140.729 280.459,-131.51 270.628,-135.46 275.237,-140.729"/>
</g>
<!-- Node18 -->
<g id="node18" class="node"><title>Node18</title>
<g id="a_node18"><a xlink:href="ValueCache_8h.html" target="_top" xlink:title="cantera/base/ValueCache.h">
<polygon fill="white" stroke="red" points="260,-168.5 260,-187.5 394,-187.5 394,-168.5 260,-168.5"/>
<text text-anchor="middle" x="327" y="-175.5" font-family="FreeSans" font-size="10.00">cantera/base/ValueCache.h</text>
</a>
</g>
</g>
<!-- Node15&#45;&gt;Node18 -->
<g id="edge24" class="edge"><title>Node15&#45;&gt;Node18</title>
<path fill="none" stroke="midnightblue" d="M281.082,-224.083C289.171,-216.141 301.195,-204.335 310.91,-194.797"/>
<polygon fill="midnightblue" stroke="midnightblue" points="313.403,-197.254 318.087,-187.751 308.499,-192.26 313.403,-197.254"/>
</g>
<!-- Node16&#45;&gt;Node6 -->
<g id="edge21" class="edge"><title>Node16&#45;&gt;Node6</title>
<path fill="none" stroke="midnightblue" d="M210.245,-112.681C301.408,-101.232 462.558,-80.9951 535.827,-71.7938"/>
<polygon fill="midnightblue" stroke="midnightblue" points="536.495,-75.2375 545.981,-70.5187 535.623,-68.2921 536.495,-75.2375"/>
</g>
<!-- Node17&#45;&gt;Node6 -->
<g id="edge23" class="edge"><title>Node17&#45;&gt;Node6</title>
<path fill="none" stroke="midnightblue" d="M336.684,-112.444C391.605,-101.927 483.873,-84.2583 535.696,-74.3347"/>
<polygon fill="midnightblue" stroke="midnightblue" points="536.643,-77.7172 545.806,-72.3989 535.326,-70.8421 536.643,-77.7172"/>
</g>
<!-- Node18&#45;&gt;Node6 -->
<g id="edge25" class="edge"><title>Node18&#45;&gt;Node6</title>
<path fill="none" stroke="midnightblue" d="M335.152,-168.488C348.893,-154.627 378.107,-127.203 408,-112 449.004,-91.1463 500.776,-79.0947 535.504,-72.8035"/>
<polygon fill="midnightblue" stroke="midnightblue" points="536.45,-76.1917 545.704,-71.0326 535.253,-69.2948 536.45,-76.1917"/>
</g>
<!-- Node20 -->
<g id="node20" class="node"><title>Node20</title>
<g id="a_node20"><a xlink:href="SpeciesThermoInterpType_8h.html" target="_top" xlink:title="Pure Virtual Base class for individual species reference state thermodynamic managers and text for th...">
<polygon fill="white" stroke="red" points="315.5,-224.5 315.5,-243.5 452.5,-243.5 452.5,-224.5 315.5,-224.5"/>
<text text-anchor="middle" x="384" y="-231.5" font-family="FreeSans" font-size="10.00">SpeciesThermoInterpType.h</text>
</a>
</g>
</g>
<!-- Node19&#45;&gt;Node20 -->
<g id="edge27" class="edge"><title>Node19&#45;&gt;Node20</title>
<path fill="none" stroke="midnightblue" d="M378.156,-280.083C379.084,-272.927 380.418,-262.635 381.577,-253.691"/>
<polygon fill="midnightblue" stroke="midnightblue" points="385.051,-254.118 382.866,-243.751 378.109,-253.218 385.051,-254.118"/>
</g>
<!-- Node20&#45;&gt;Node5 -->
<g id="edge30" class="edge"><title>Node20&#45;&gt;Node5</title>
<path fill="none" stroke="midnightblue" d="M418.226,-224.444C455.512,-215.122 515.269,-200.183 556.011,-189.997"/>
<polygon fill="midnightblue" stroke="midnightblue" points="557.082,-193.337 565.934,-187.516 555.384,-186.546 557.082,-193.337"/>
</g>
<!-- Node20&#45;&gt;Node6 -->
<g id="edge28" class="edge"><title>Node20&#45;&gt;Node6</title>
<path fill="none" stroke="midnightblue" d="M387.659,-224.231C398.753,-197.797 431.816,-120.193 441,-112 467.407,-88.4434 506.634,-77.1326 535.65,-71.7543"/>
<polygon fill="midnightblue" stroke="midnightblue" points="536.56,-75.1502 545.835,-70.0296 535.391,-68.2484 536.56,-75.1502"/>
</g>
<!-- Node20&#45;&gt;Node11 -->
<g id="edge29" class="edge"><title>Node20&#45;&gt;Node11</title>
<path fill="none" stroke="midnightblue" d="M400.87,-224.324C417.709,-215.664 443.807,-202.242 463.238,-192.249"/>
<polygon fill="midnightblue" stroke="midnightblue" points="464.88,-195.341 472.172,-187.655 461.678,-189.116 464.88,-195.341"/>
</g>
<!-- Node22 -->
<g id="node22" class="node"><title>Node22</title>
<g id="a_node22"><a xlink:href="PDSS_8h.html" target="_top" xlink:title="Declarations for the virtual base class PDSS (pressure dependent standard state) which handles calcul...">
<polygon fill="white" stroke="black" points="668.5,-336.5 668.5,-355.5 719.5,-355.5 719.5,-336.5 668.5,-336.5"/>
<text text-anchor="middle" x="694" y="-343.5" font-family="FreeSans" font-size="10.00">PDSS.h</text>
</a>
</g>
</g>
<!-- Node21&#45;&gt;Node22 -->
<g id="edge34" class="edge"><title>Node21&#45;&gt;Node22</title>
<path fill="none" stroke="midnightblue" d="M490.096,-394.055C541.231,-382.254 615.211,-365.182 658.58,-355.174"/>
<polygon fill="midnightblue" stroke="midnightblue" points="659.436,-358.568 668.393,-352.909 657.862,-351.748 659.436,-358.568"/>
</g>
<!-- Node22&#45;&gt;Node4 -->
<g id="edge36" class="edge"><title>Node22&#45;&gt;Node4</title>
<path fill="none" stroke="midnightblue" d="M684.521,-336.324C675.799,-328.341 662.657,-316.313 652.102,-306.653"/>
<polygon fill="midnightblue" stroke="midnightblue" points="654.392,-304.004 644.652,-299.834 649.666,-309.167 654.392,-304.004"/>
</g>
<!-- Node22&#45;&gt;Node6 -->
<g id="edge35" class="edge"><title>Node22&#45;&gt;Node6</title>
<path fill="none" stroke="midnightblue" d="M694,-336.442C694,-317.936 694,-272.812 694,-235 694,-235 694,-235 694,-177 694,-129.08 641.357,-96.3821 605.806,-79.7644"/>
<polygon fill="midnightblue" stroke="midnightblue" points="606.847,-76.3959 596.29,-75.5045 603.987,-82.7849 606.847,-76.3959"/>
</g>
<!-- Node23&#45;&gt;Node22 -->
<g id="edge38" class="edge"><title>Node23&#45;&gt;Node22</title>
<path fill="none" stroke="midnightblue" d="M1027.9,-393.905C1024.55,-393.232 1021.24,-392.591 1018,-392 903.238,-371.054 873.539,-372.123 758,-356 748.796,-354.716 738.847,-353.32 729.601,-352.02"/>
<polygon fill="midnightblue" stroke="midnightblue" points="729.926,-348.531 719.536,-350.604 728.95,-355.463 729.926,-348.531"/>
</g>
<!-- Node24 -->
<g id="node24" class="node"><title>Node24</title>
<g id="a_node24"><a xlink:href="WaterPropsIAPWS_8h.html" target="_top" xlink:title="Headers for a class for calculating the equation of state of water from the IAPWS 1995 Formulation ba...">
<polygon fill="white" stroke="black" points="890.5,-112.5 890.5,-131.5 997.5,-131.5 997.5,-112.5 890.5,-112.5"/>
<text text-anchor="middle" x="944" y="-119.5" font-family="FreeSans" font-size="10.00">WaterPropsIAPWS.h</text>
</a>
</g>
</g>
<!-- Node23&#45;&gt;Node24 -->
<g id="edge39" class="edge"><title>Node23&#45;&gt;Node24</title>
<path fill="none" stroke="midnightblue" d="M1027.9,-393.918C951.471,-374.434 824,-335.3 824,-291 824,-291 824,-291 824,-233 824,-185.08 876.643,-152.382 912.194,-135.764"/>
<polygon fill="midnightblue" stroke="midnightblue" points="914.013,-138.785 921.71,-131.504 911.153,-132.396 914.013,-138.785"/>
</g>
<!-- Node26 -->
<g id="node26" class="node"><title>Node26</title>
<g id="a_node26"><a xlink:href="WaterProps_8h.html" target="_top" xlink:title="Header for a class used to house several approximation routines for properties of water...">
<polygon fill="white" stroke="black" points="722,-280.5 722,-299.5 796,-299.5 796,-280.5 722,-280.5"/>
<text text-anchor="middle" x="759" y="-287.5" font-family="FreeSans" font-size="10.00">WaterProps.h</text>
</a>
</g>
</g>
<!-- Node23&#45;&gt;Node26 -->
<g id="edge42" class="edge"><title>Node23&#45;&gt;Node26</title>
<path fill="none" stroke="midnightblue" d="M1027.87,-394.035C1024.54,-393.329 1021.23,-392.645 1018,-392 926.004,-373.598 890.544,-404.11 810,-356 791.211,-344.777 776.703,-323.842 768.046,-308.759"/>
<polygon fill="midnightblue" stroke="midnightblue" points="771.06,-306.975 763.217,-299.853 764.907,-310.312 771.06,-306.975"/>
</g>
<!-- Node25 -->
<g id="node25" class="node"><title>Node25</title>
<g id="a_node25"><a xlink:href="WaterPropsIAPWSphi_8h.html" target="_top" xlink:title="Header for Lowest level of the classes which support a real water model (see class WaterPropsIAPWS an...">
<polygon fill="white" stroke="black" points="752.5,-56.5 752.5,-75.5 871.5,-75.5 871.5,-56.5 752.5,-56.5"/>
<text text-anchor="middle" x="812" y="-63.5" font-family="FreeSans" font-size="10.00">WaterPropsIAPWSphi.h</text>
</a>
</g>
</g>
<!-- Node24&#45;&gt;Node25 -->
<g id="edge40" class="edge"><title>Node24&#45;&gt;Node25</title>
<path fill="none" stroke="midnightblue" d="M923.084,-112.444C901.264,-103.517 866.85,-89.4387 842.108,-79.3168"/>
<polygon fill="midnightblue" stroke="midnightblue" points="843.399,-76.0634 832.818,-75.5164 840.748,-82.5422 843.399,-76.0634"/>
</g>
<!-- Node25&#45;&gt;Node7 -->
<g id="edge41" class="edge"><title>Node25&#45;&gt;Node7</title>
<path fill="none" stroke="midnightblue" d="M793.144,-56.4435C773.734,-47.6356 743.27,-33.8116 721.035,-23.722"/>
<polygon fill="midnightblue" stroke="midnightblue" points="722.32,-20.4615 711.768,-19.5164 719.428,-26.836 722.32,-20.4615"/>
</g>
<!-- Node26&#45;&gt;Node6 -->
<g id="edge43" class="edge"><title>Node26&#45;&gt;Node6</title>
<path fill="none" stroke="midnightblue" d="M759.154,-280.262C759.168,-251.906 755.329,-161.431 708,-112 682.95,-85.8372 642.242,-74.8843 612.258,-70.2995"/>
<polygon fill="midnightblue" stroke="midnightblue" points="612.522,-66.8034 602.143,-68.9289 611.582,-73.74 612.522,-66.8034"/>
</g>
<!-- Node27&#45;&gt;Node22 -->
<g id="edge45" class="edge"><title>Node27&#45;&gt;Node22</title>
<path fill="none" stroke="midnightblue" d="M594.479,-392.933C616.118,-382.946 644.947,-369.64 666.006,-359.92"/>
<polygon fill="midnightblue" stroke="midnightblue" points="667.754,-362.969 675.367,-355.6 664.82,-356.613 667.754,-362.969"/>
</g>
<!-- Node28&#45;&gt;Node22 -->
<g id="edge47" class="edge"><title>Node28&#45;&gt;Node22</title>
<path fill="none" stroke="midnightblue" d="M694,-392.781C694,-384.781 694,-374.689 694,-366.017"/>
<polygon fill="midnightblue" stroke="midnightblue" points="697.5,-365.73 694,-355.731 690.5,-365.731 697.5,-365.73"/>
</g>
<!-- Node29&#45;&gt;Node22 -->
<g id="edge49" class="edge"><title>Node29&#45;&gt;Node22</title>
<path fill="none" stroke="midnightblue" d="M793.521,-392.933C771.882,-382.946 743.053,-369.64 721.994,-359.92"/>
<polygon fill="midnightblue" stroke="midnightblue" points="723.18,-356.613 712.633,-355.6 720.246,-362.969 723.18,-356.613"/>
</g>
<!-- Node30&#45;&gt;Node22 -->
<g id="edge51" class="edge"><title>Node30&#45;&gt;Node22</title>
<path fill="none" stroke="midnightblue" d="M897.904,-394.055C846.769,-382.254 772.789,-365.182 729.42,-355.174"/>
<polygon fill="midnightblue" stroke="midnightblue" points="730.138,-351.748 719.607,-352.909 728.564,-358.568 730.138,-351.748"/>
</g>
<!-- Node31&#45;&gt;Node5 -->
<g id="edge54" class="edge"><title>Node31&#45;&gt;Node5</title>
<path fill="none" stroke="midnightblue" d="M868.454,-224.444C811.988,-214.885 720.626,-199.419 660.431,-189.23"/>
<polygon fill="midnightblue" stroke="midnightblue" points="660.754,-185.735 650.31,-187.516 659.586,-192.636 660.754,-185.735"/>
</g>
<!-- Node31&#45;&gt;Node6 -->
<g id="edge53" class="edge"><title>Node31&#45;&gt;Node6</title>
<path fill="none" stroke="midnightblue" d="M910.491,-224.475C887.922,-202.364 823.816,-142.756 759,-112 711.231,-89.3329 650.928,-77.4232 612.406,-71.6775"/>
<polygon fill="midnightblue" stroke="midnightblue" points="612.54,-68.1614 602.147,-70.2165 611.553,-75.0915 612.54,-68.1614"/>
</g>
<!-- Node32 -->
<g id="node32" class="node"><title>Node32</title>
<polygon fill="white" stroke="#bfbfbf" points="890,-168.5 890,-187.5 948,-187.5 948,-168.5 890,-168.5"/>
<text text-anchor="middle" x="919" y="-175.5" font-family="FreeSans" font-size="10.00">stdexcept</text>
</g>
<!-- Node31&#45;&gt;Node32 -->
<g id="edge55" class="edge"><title>Node31&#45;&gt;Node32</title>
<path fill="none" stroke="midnightblue" d="M919,-224.083C919,-217.006 919,-206.861 919,-197.986"/>
<polygon fill="midnightblue" stroke="midnightblue" points="922.5,-197.751 919,-187.751 915.5,-197.751 922.5,-197.751"/>
</g>
<!-- Node33 -->
<g id="node33" class="node"><title>Node33</title>
<polygon fill="white" stroke="#bfbfbf" points="966.5,-168.5 966.5,-187.5 1017.5,-187.5 1017.5,-168.5 966.5,-168.5"/>
<text text-anchor="middle" x="992" y="-175.5" font-family="FreeSans" font-size="10.00">numeric</text>
</g>
<!-- Node31&#45;&gt;Node33 -->
<g id="edge56" class="edge"><title>Node31&#45;&gt;Node33</title>
<path fill="none" stroke="midnightblue" d="M930.729,-224.324C941.837,-216.107 958.742,-203.602 971.983,-193.807"/>
<polygon fill="midnightblue" stroke="midnightblue" points="974.1,-196.595 980.058,-187.834 969.937,-190.967 974.1,-196.595"/>
</g>
</g>
</svg>
