<?xml version="1.0" encoding="UTF-8" standalone="no"?>
<!DOCTYPE svg PUBLIC "-//W3C//DTD SVG 1.1//EN"
 "http://www.w3.org/Graphics/SVG/1.1/DTD/svg11.dtd">
<!-- Generated by graphviz version 2.28.0 (20120425.2022)
 -->
<!-- Title: VPSSMgr_ConstVol.cpp Pages: 1 -->
<svg width="1007pt" height="500pt"
 viewBox="0.00 0.00 1007.00 500.00" xmlns="http://www.w3.org/2000/svg" xmlns:xlink="http://www.w3.org/1999/xlink">
<g id="graph1" class="graph" transform="scale(1 1) rotate(0) translate(4 496)">
<title>VPSSMgr_ConstVol.cpp</title>
<polygon fill="white" stroke="white" points="-4,5 -4,-496 1004,-496 1004,5 -4,5"/>
<!-- Node1 -->
<g id="node1" class="node"><title>Node1</title>
<polygon fill="#bfbfbf" stroke="black" points="290.5,-472.5 290.5,-491.5 415.5,-491.5 415.5,-472.5 290.5,-472.5"/>
<text text-anchor="middle" x="353" y="-479.5" font-family="FreeSans" font-size="10.00">VPSSMgr_ConstVol.cpp</text>
</g>
<!-- Node2 -->
<g id="node3" class="node"><title>Node2</title>
<a xlink:href="VPSSMgr__ConstVol_8h.html" target="_top" xlink:title="Declarations for a derived class for the calculation of multiple&#45;species thermodynamic property manag...">
<polygon fill="white" stroke="black" points="-0.5,-405 -0.5,-435 130.5,-435 130.5,-405 -0.5,-405"/>
<text text-anchor="start" x="7.5" y="-423" font-family="FreeSans" font-size="10.00">cantera/thermo/VPSSMgr</text>
<text text-anchor="middle" x="65" y="-412" font-family="FreeSans" font-size="10.00">_ConstVol.h</text>
</a>
</g>
<!-- Node1&#45;&gt;Node2 -->
<g id="edge2" class="edge"><title>Node1&#45;&gt;Node2</title>
<path fill="none" stroke="midnightblue" d="M312.042,-472.467C267.526,-463.193 195.418,-448.17 140.569,-436.743"/>
<polygon fill="midnightblue" stroke="midnightblue" points="141.042,-433.267 130.538,-434.654 139.614,-440.12 141.042,-433.267"/>
</g>
<!-- Node12 -->
<g id="node24" class="node"><title>Node12</title>
<a xlink:href="xml_8h.html" target="_top" xlink:title="Classes providing support for XML data files. ">
<polygon fill="white" stroke="black" points="389,-174.5 389,-193.5 491,-193.5 491,-174.5 389,-174.5"/>
<text text-anchor="middle" x="440" y="-181.5" font-family="FreeSans" font-size="10.00">cantera/base/xml.h</text>
</a>
</g>
<!-- Node1&#45;&gt;Node12 -->
<g id="edge24" class="edge"><title>Node1&#45;&gt;Node12</title>
<path fill="none" stroke="midnightblue" d="M407.668,-472.47C468.096,-459.57 557,-428.741 557,-359 557,-359 557,-359 557,-301 557,-251.585 503.718,-216.037 469.067,-198.144"/>
<polygon fill="midnightblue" stroke="midnightblue" points="470.361,-194.879 459.847,-193.569 467.249,-201.149 470.361,-194.879"/>
</g>
<!-- Node16 -->
<g id="node34" class="node"><title>Node16</title>
<a xlink:href="VPStandardStateTP_8h.html" target="_top" xlink:title="Header file for a derived class of ThermoPhase that handles variable pressure standard state methods ...">
<polygon fill="white" stroke="black" points="282,-405 282,-435 424,-435 424,-405 282,-405"/>
<text text-anchor="start" x="290" y="-423" font-family="FreeSans" font-size="10.00">cantera/thermo/VPStandard</text>
<text text-anchor="middle" x="353" y="-412" font-family="FreeSans" font-size="10.00">StateTP.h</text>
</a>
</g>
<!-- Node1&#45;&gt;Node16 -->
<g id="edge36" class="edge"><title>Node1&#45;&gt;Node16</title>
<path fill="none" stroke="midnightblue" d="M353,-472.403C353,-465.341 353,-454.975 353,-445.399"/>
<polygon fill="midnightblue" stroke="midnightblue" points="356.5,-445.141 353,-435.141 349.5,-445.141 356.5,-445.141"/>
</g>
<!-- Node23 -->
<g id="node54" class="node"><title>Node23</title>
<a xlink:href="SpeciesThermoFactory_8h.html" target="_top" xlink:title="Header for factory to build instances of classes that manage the standard&#45;state thermodynamic propert...">
<polygon fill="white" stroke="black" points="547,-169 547,-199 707,-199 707,-169 547,-169"/>
<text text-anchor="start" x="555" y="-187" font-family="FreeSans" font-size="10.00">cantera/thermo/SpeciesThermo</text>
<text text-anchor="middle" x="627" y="-176" font-family="FreeSans" font-size="10.00">Factory.h</text>
</a>
</g>
<!-- Node1&#45;&gt;Node23 -->
<g id="edge62" class="edge"><title>Node1&#45;&gt;Node23</title>
<path fill="none" stroke="midnightblue" d="M415.784,-477.971C492.153,-470.517 611,-445.088 611,-359 611,-359 611,-359 611,-301 611,-269.059 617.027,-232.63 621.683,-209.254"/>
<polygon fill="midnightblue" stroke="midnightblue" points="625.164,-209.701 623.762,-199.2 618.309,-208.283 625.164,-209.701"/>
</g>
<!-- Node28 -->
<g id="node68" class="node"><title>Node28</title>
<a xlink:href="PDSS__ConstVol_8h.html" target="_top" xlink:title="Declarations for the class PDSS_ConstVol (pressure dependent standard state) which handles calculatio...">
<polygon fill="white" stroke="black" points="148.5,-405 148.5,-435 263.5,-435 263.5,-405 148.5,-405"/>
<text text-anchor="start" x="156.5" y="-423" font-family="FreeSans" font-size="10.00">cantera/thermo/PDSS</text>
<text text-anchor="middle" x="206" y="-412" font-family="FreeSans" font-size="10.00">_ConstVol.h</text>
</a>
</g>
<!-- Node1&#45;&gt;Node28 -->
<g id="edge80" class="edge"><title>Node1&#45;&gt;Node28</title>
<path fill="none" stroke="midnightblue" d="M331.938,-472.403C310.563,-463.679 276.84,-449.914 249.669,-438.824"/>
<polygon fill="midnightblue" stroke="midnightblue" points="250.943,-435.564 240.362,-435.025 248.298,-442.045 250.943,-435.564"/>
</g>
<!-- Node3 -->
<g id="node5" class="node"><title>Node3</title>
<a xlink:href="ct__defs_8h.html" target="_top" xlink:title="This file contains definitions of terms that are used in internal routines and are unlikely to need m...">
<polygon fill="white" stroke="black" points="282.5,-56.5 282.5,-75.5 401.5,-75.5 401.5,-56.5 282.5,-56.5"/>
<text text-anchor="middle" x="342" y="-63.5" font-family="FreeSans" font-size="10.00">cantera/base/ct_defs.h</text>
</a>
</g>
<!-- Node2&#45;&gt;Node3 -->
<g id="edge4" class="edge"><title>Node2&#45;&gt;Node3</title>
<path fill="none" stroke="midnightblue" d="M56.5048,-404.92C44.4956,-383.641 24,-341.661 24,-303 24,-303 24,-303 24,-183 24,-143.355 44.092,-132.543 78,-112 109.867,-92.6939 205.309,-79.9235 272.231,-73.0724"/>
<polygon fill="midnightblue" stroke="midnightblue" points="272.698,-76.5432 282.3,-72.064 272.001,-69.578 272.698,-76.5432"/>
</g>
<!-- Node10 -->
<g id="node19" class="node"><title>Node10</title>
<a xlink:href="VPSSMgr_8h.html" target="_top" xlink:title="Declaration file for a virtual base class that manages the calculation of standard state properties f...">
<polygon fill="white" stroke="black" points="62,-348.5 62,-367.5 130,-367.5 130,-348.5 62,-348.5"/>
<text text-anchor="middle" x="96" y="-355.5" font-family="FreeSans" font-size="10.00">VPSSMgr.h</text>
</a>
</g>
<!-- Node2&#45;&gt;Node10 -->
<g id="edge18" class="edge"><title>Node2&#45;&gt;Node10</title>
<path fill="none" stroke="midnightblue" d="M72.3466,-404.781C76.6655,-396.422 82.1651,-385.777 86.7742,-376.856"/>
<polygon fill="midnightblue" stroke="midnightblue" points="90.0085,-378.221 91.4892,-367.731 83.7895,-375.008 90.0085,-378.221"/>
</g>
<!-- Node4 -->
<g id="node7" class="node"><title>Node4</title>
<a xlink:href="config_8h_source.html" target="_top" xlink:title="config.h">
<polygon fill="white" stroke="black" points="577.5,-0.5 577.5,-19.5 628.5,-19.5 628.5,-0.5 577.5,-0.5"/>
<text text-anchor="middle" x="603" y="-7.5" font-family="FreeSans" font-size="10.00">config.h</text>
</a>
</g>
<!-- Node3&#45;&gt;Node4 -->
<g id="edge6" class="edge"><title>Node3&#45;&gt;Node4</title>
<path fill="none" stroke="midnightblue" d="M383.356,-56.4435C434.11,-45.9428 519.322,-28.3128 567.327,-18.3807"/>
<polygon fill="midnightblue" stroke="midnightblue" points="568.181,-21.7781 577.265,-16.3245 566.763,-14.9233 568.181,-21.7781"/>
</g>
<!-- Node5 -->
<g id="node9" class="node"><title>Node5</title>
<polygon fill="white" stroke="#bfbfbf" points="243,-0.5 243,-19.5 287,-19.5 287,-0.5 243,-0.5"/>
<text text-anchor="middle" x="265" y="-7.5" font-family="FreeSans" font-size="10.00">cmath</text>
</g>
<!-- Node3&#45;&gt;Node5 -->
<g id="edge8" class="edge"><title>Node3&#45;&gt;Node5</title>
<path fill="none" stroke="midnightblue" d="M329.629,-56.324C317.842,-48.0577 299.868,-35.4527 285.864,-25.6322"/>
<polygon fill="midnightblue" stroke="midnightblue" points="287.538,-22.5307 277.341,-19.6545 283.518,-28.2619 287.538,-22.5307"/>
</g>
<!-- Node6 -->
<g id="node11" class="node"><title>Node6</title>
<polygon fill="white" stroke="#bfbfbf" points="305.5,-0.5 305.5,-19.5 350.5,-19.5 350.5,-0.5 305.5,-0.5"/>
<text text-anchor="middle" x="328" y="-7.5" font-family="FreeSans" font-size="10.00">cstdlib</text>
</g>
<!-- Node3&#45;&gt;Node6 -->
<g id="edge10" class="edge"><title>Node3&#45;&gt;Node6</title>
<path fill="none" stroke="midnightblue" d="M339.688,-56.083C337.833,-48.9272 335.165,-38.6353 332.846,-29.6911"/>
<polygon fill="midnightblue" stroke="midnightblue" points="336.166,-28.5527 330.269,-19.7511 329.391,-30.3094 336.166,-28.5527"/>
</g>
<!-- Node7 -->
<g id="node13" class="node"><title>Node7</title>
<polygon fill="white" stroke="#bfbfbf" points="776,-0.5 776,-19.5 820,-19.5 820,-0.5 776,-0.5"/>
<text text-anchor="middle" x="798" y="-7.5" font-family="FreeSans" font-size="10.00">vector</text>
</g>
<!-- Node3&#45;&gt;Node7 -->
<g id="edge12" class="edge"><title>Node3&#45;&gt;Node7</title>
<path fill="none" stroke="midnightblue" d="M401.614,-57.9404C499.176,-46.3871 689.676,-23.8279 765.619,-14.8346"/>
<polygon fill="midnightblue" stroke="midnightblue" points="766.449,-18.2609 775.968,-13.6091 765.625,-11.3095 766.449,-18.2609"/>
</g>
<!-- Node8 -->
<g id="node15" class="node"><title>Node8</title>
<polygon fill="white" stroke="#bfbfbf" points="369,-0.5 369,-19.5 405,-19.5 405,-0.5 369,-0.5"/>
<text text-anchor="middle" x="387" y="-7.5" font-family="FreeSans" font-size="10.00">map</text>
</g>
<!-- Node3&#45;&gt;Node8 -->
<g id="edge14" class="edge"><title>Node3&#45;&gt;Node8</title>
<path fill="none" stroke="midnightblue" d="M349.431,-56.083C355.853,-48.3768 365.306,-37.0333 373.122,-27.6531"/>
<polygon fill="midnightblue" stroke="midnightblue" points="375.994,-29.674 379.707,-19.7511 370.617,-25.1927 375.994,-29.674"/>
</g>
<!-- Node9 -->
<g id="node17" class="node"><title>Node9</title>
<polygon fill="white" stroke="#bfbfbf" points="423.5,-0.5 423.5,-19.5 464.5,-19.5 464.5,-0.5 423.5,-0.5"/>
<text text-anchor="middle" x="444" y="-7.5" font-family="FreeSans" font-size="10.00">string</text>
</g>
<!-- Node3&#45;&gt;Node9 -->
<g id="edge16" class="edge"><title>Node3&#45;&gt;Node9</title>
<path fill="none" stroke="midnightblue" d="M358.388,-56.324C374.671,-47.7034 399.867,-34.3643 418.716,-24.3855"/>
<polygon fill="midnightblue" stroke="midnightblue" points="420.452,-27.4267 427.653,-19.6545 417.177,-21.2402 420.452,-27.4267"/>
</g>
<!-- Node10&#45;&gt;Node3 -->
<g id="edge20" class="edge"><title>Node10&#45;&gt;Node3</title>
<path fill="none" stroke="midnightblue" d="M91.4146,-348.44C82.1341,-330.29 62,-286.378 62,-247 62,-247 62,-247 62,-183 62,-92.2067 189.211,-71.1076 272.143,-66.9996"/>
<polygon fill="midnightblue" stroke="midnightblue" points="272.434,-70.4905 282.276,-66.5704 272.137,-63.4968 272.434,-70.4905"/>
</g>
<!-- Node11 -->
<g id="node22" class="node"><title>Node11</title>
<a xlink:href="mix__defs_8h.html" target="_top" xlink:title="mix_defs.h">
<polygon fill="white" stroke="black" points="90.5,-292.5 90.5,-311.5 155.5,-311.5 155.5,-292.5 90.5,-292.5"/>
<text text-anchor="middle" x="123" y="-299.5" font-family="FreeSans" font-size="10.00">mix_defs.h</text>
</a>
</g>
<!-- Node10&#45;&gt;Node11 -->
<g id="edge22" class="edge"><title>Node10&#45;&gt;Node11</title>
<path fill="none" stroke="midnightblue" d="M100.459,-348.083C104.154,-340.691 109.523,-329.953 114.094,-320.811"/>
<polygon fill="midnightblue" stroke="midnightblue" points="117.283,-322.261 118.624,-311.751 111.022,-319.13 117.283,-322.261"/>
</g>
<!-- Node13 -->
<g id="node26" class="node"><title>Node13</title>
<a xlink:href="ctexceptions_8h.html" target="_top" xlink:title="Definitions for the classes that are thrown when Cantera experiences an error condition (also contain...">
<polygon fill="white" stroke="black" points="575,-112.5 575,-131.5 655,-131.5 655,-112.5 575,-112.5"/>
<text text-anchor="middle" x="615" y="-119.5" font-family="FreeSans" font-size="10.00">ctexceptions.h</text>
</a>
</g>
<!-- Node12&#45;&gt;Node13 -->
<g id="edge26" class="edge"><title>Node12&#45;&gt;Node13</title>
<path fill="none" stroke="midnightblue" d="M465.073,-174.403C495.352,-164.022 546.44,-146.506 580.441,-134.849"/>
<polygon fill="midnightblue" stroke="midnightblue" points="581.649,-138.135 589.973,-131.581 579.379,-131.513 581.649,-138.135"/>
</g>
<!-- Node15 -->
<g id="node31" class="node"><title>Node15</title>
<a xlink:href="global_8h.html" target="_top" xlink:title="This file contains definitions for utility functions and text for modules, inputfiles, logs, textlogs, HTML_logs (see Input File Handling, Diagnostic Output, Writing messages to the screen and Writing HTML Logfiles). ">
<polygon fill="white" stroke="black" points="389,-112.5 389,-131.5 441,-131.5 441,-112.5 389,-112.5"/>
<text text-anchor="middle" x="415" y="-119.5" font-family="FreeSans" font-size="10.00">global.h</text>
</a>
</g>
<!-- Node12&#45;&gt;Node15 -->
<g id="edge32" class="edge"><title>Node12&#45;&gt;Node15</title>
<path fill="none" stroke="midnightblue" d="M436.418,-174.403C432.817,-165.76 427.154,-152.17 422.556,-141.134"/>
<polygon fill="midnightblue" stroke="midnightblue" points="425.652,-139.465 418.575,-131.581 419.191,-142.158 425.652,-139.465"/>
</g>
<!-- Node13&#45;&gt;Node9 -->
<g id="edge30" class="edge"><title>Node13&#45;&gt;Node9</title>
<path fill="none" stroke="midnightblue" d="M574.934,-113.641C535.425,-105.616 478.736,-91.79 463,-76 450.951,-63.9092 446.457,-44.6257 444.825,-30.197"/>
<polygon fill="midnightblue" stroke="midnightblue" points="448.29,-29.6013 444.04,-19.8964 441.31,-30.1336 448.29,-29.6013"/>
</g>
<!-- Node14 -->
<g id="node28" class="node"><title>Node14</title>
<polygon fill="white" stroke="#bfbfbf" points="472,-56.5 472,-75.5 532,-75.5 532,-56.5 472,-56.5"/>
<text text-anchor="middle" x="502" y="-63.5" font-family="FreeSans" font-size="10.00">exception</text>
</g>
<!-- Node13&#45;&gt;Node14 -->
<g id="edge28" class="edge"><title>Node13&#45;&gt;Node14</title>
<path fill="none" stroke="midnightblue" d="M597.095,-112.444C578.746,-103.675 549.995,-89.9355 528.906,-79.8579"/>
<polygon fill="midnightblue" stroke="midnightblue" points="530.353,-76.6703 519.821,-75.5164 527.335,-82.9862 530.353,-76.6703"/>
</g>
<!-- Node15&#45;&gt;Node3 -->
<g id="edge34" class="edge"><title>Node15&#45;&gt;Node3</title>
<path fill="none" stroke="midnightblue" d="M403.271,-112.324C392.163,-104.107 375.258,-91.6017 362.017,-81.8069"/>
<polygon fill="midnightblue" stroke="midnightblue" points="364.063,-78.9671 353.942,-75.8339 359.9,-84.5948 364.063,-78.9671"/>
</g>
<!-- Node16&#45;&gt;Node10 -->
<g id="edge60" class="edge"><title>Node16&#45;&gt;Node10</title>
<path fill="none" stroke="midnightblue" d="M292.745,-404.933C246.007,-394.021 182.301,-379.148 140.201,-369.319"/>
<polygon fill="midnightblue" stroke="midnightblue" points="140.783,-365.861 130.249,-366.996 139.191,-372.678 140.783,-365.861"/>
</g>
<!-- Node17 -->
<g id="node36" class="node"><title>Node17</title>
<a xlink:href="ThermoPhase_8h.html" target="_top" xlink:title="Header file for class ThermoPhase, the base class for phases with thermodynamic properties, and the text for the Module thermoprops (see Thermodynamic Properties and class ThermoPhase). ">
<polygon fill="white" stroke="black" points="308.5,-348.5 308.5,-367.5 397.5,-367.5 397.5,-348.5 308.5,-348.5"/>
<text text-anchor="middle" x="353" y="-355.5" font-family="FreeSans" font-size="10.00">ThermoPhase.h</text>
</a>
</g>
<!-- Node16&#45;&gt;Node17 -->
<g id="edge38" class="edge"><title>Node16&#45;&gt;Node17</title>
<path fill="none" stroke="midnightblue" d="M353,-404.781C353,-396.781 353,-386.689 353,-378.017"/>
<polygon fill="midnightblue" stroke="midnightblue" points="356.5,-377.73 353,-367.731 349.5,-377.731 356.5,-377.73"/>
</g>
<!-- Node18 -->
<g id="node38" class="node"><title>Node18</title>
<a xlink:href="Phase_8h.html" target="_top" xlink:title="Header file for class Phase. ">
<polygon fill="white" stroke="black" points="278.5,-292.5 278.5,-311.5 331.5,-311.5 331.5,-292.5 278.5,-292.5"/>
<text text-anchor="middle" x="305" y="-299.5" font-family="FreeSans" font-size="10.00">Phase.h</text>
</a>
</g>
<!-- Node17&#45;&gt;Node18 -->
<g id="edge40" class="edge"><title>Node17&#45;&gt;Node18</title>
<path fill="none" stroke="midnightblue" d="M345.074,-348.083C338.154,-340.298 327.935,-328.801 319.548,-319.367"/>
<polygon fill="midnightblue" stroke="midnightblue" points="322.038,-316.9 312.779,-311.751 316.806,-321.55 322.038,-316.9"/>
</g>
<!-- Node22 -->
<g id="node50" class="node"><title>Node22</title>
<a xlink:href="SpeciesThermo_8h.html" target="_top" xlink:title="Virtual base class for the calculation of multiple&#45;species thermodynamic reference&#45;state property man...">
<polygon fill="white" stroke="black" points="459.5,-112.5 459.5,-131.5 556.5,-131.5 556.5,-112.5 459.5,-112.5"/>
<text text-anchor="middle" x="508" y="-119.5" font-family="FreeSans" font-size="10.00">SpeciesThermo.h</text>
</a>
</g>
<!-- Node17&#45;&gt;Node22 -->
<g id="edge56" class="edge"><title>Node17&#45;&gt;Node22</title>
<path fill="none" stroke="midnightblue" d="M376.924,-348.41C411.042,-334.743 472.576,-304.522 500,-256 520.416,-219.877 516.15,-169.078 511.766,-141.905"/>
<polygon fill="midnightblue" stroke="midnightblue" points="515.167,-141.04 509.952,-131.817 508.277,-142.279 515.167,-141.04"/>
</g>
<!-- Node19 -->
<g id="node40" class="node"><title>Node19</title>
<a xlink:href="vec__functions_8h.html" target="_top" xlink:title="Templates for operations on vector&#45;like objects. ">
<polygon fill="white" stroke="red" points="147.5,-174.5 147.5,-193.5 294.5,-193.5 294.5,-174.5 147.5,-174.5"/>
<text text-anchor="middle" x="221" y="-181.5" font-family="FreeSans" font-size="10.00">cantera/base/vec_functions.h</text>
</a>
</g>
<!-- Node18&#45;&gt;Node19 -->
<g id="edge42" class="edge"><title>Node18&#45;&gt;Node19</title>
<path fill="none" stroke="midnightblue" d="M278.256,-293.741C259.607,-287.158 235.998,-275.439 224,-256 214.396,-240.439 214.907,-219.096 217.04,-203.884"/>
<polygon fill="midnightblue" stroke="midnightblue" points="220.556,-204.098 218.847,-193.642 213.663,-202.882 220.556,-204.098"/>
</g>
<!-- Node20 -->
<g id="node43" class="node"><title>Node20</title>
<a xlink:href="ctml_8h.html" target="_top" xlink:title="CTML (&quot;Cantera Markup Language&quot;) is the variant of XML that Cantera uses to store data...">
<polygon fill="white" stroke="red" points="233,-236.5 233,-255.5 337,-255.5 337,-236.5 233,-236.5"/>
<text text-anchor="middle" x="285" y="-243.5" font-family="FreeSans" font-size="10.00">cantera/base/ctml.h</text>
</a>
</g>
<!-- Node18&#45;&gt;Node20 -->
<g id="edge46" class="edge"><title>Node18&#45;&gt;Node20</title>
<path fill="none" stroke="midnightblue" d="M301.697,-292.083C299.018,-284.849 295.151,-274.409 291.814,-265.397"/>
<polygon fill="midnightblue" stroke="midnightblue" points="294.996,-263.913 288.241,-255.751 288.432,-266.344 294.996,-263.913"/>
</g>
<!-- Node21 -->
<g id="node47" class="node"><title>Node21</title>
<a xlink:href="Elements_8h.html" target="_top" xlink:title="Contains the LookupWtElements function and the definitions of element constraint types. ">
<polygon fill="white" stroke="black" points="355,-236.5 355,-255.5 491,-255.5 491,-236.5 355,-236.5"/>
<text text-anchor="middle" x="423" y="-243.5" font-family="FreeSans" font-size="10.00">cantera/thermo/Elements.h</text>
</a>
</g>
<!-- Node18&#45;&gt;Node21 -->
<g id="edge52" class="edge"><title>Node18&#45;&gt;Node21</title>
<path fill="none" stroke="midnightblue" d="M323.697,-292.444C342.944,-283.636 373.152,-269.812 395.2,-259.722"/>
<polygon fill="midnightblue" stroke="midnightblue" points="396.753,-262.86 404.39,-255.516 393.84,-256.495 396.753,-262.86"/>
</g>
<!-- Node19&#45;&gt;Node3 -->
<g id="edge44" class="edge"><title>Node19&#45;&gt;Node3</title>
<path fill="none" stroke="midnightblue" d="M230.095,-174.281C250.428,-154.788 299.805,-107.452 325.636,-82.6879"/>
<polygon fill="midnightblue" stroke="midnightblue" points="328.332,-84.9517 333.129,-75.5048 323.488,-79.8986 328.332,-84.9517"/>
</g>
<!-- Node20&#45;&gt;Node3 -->
<g id="edge48" class="edge"><title>Node20&#45;&gt;Node3</title>
<path fill="none" stroke="midnightblue" d="M288.697,-236.465C292.521,-227.481 298.546,-212.883 303,-200 316.904,-159.785 330.208,-111.668 337.107,-85.7537"/>
<polygon fill="midnightblue" stroke="midnightblue" points="340.564,-86.3672 339.73,-75.8052 333.796,-84.5824 340.564,-86.3672"/>
</g>
<!-- Node20&#45;&gt;Node12 -->
<g id="edge50" class="edge"><title>Node20&#45;&gt;Node12</title>
<path fill="none" stroke="midnightblue" d="M307.208,-236.403C333.681,-226.156 378.114,-208.956 408.22,-197.302"/>
<polygon fill="midnightblue" stroke="midnightblue" points="409.771,-200.455 417.833,-193.581 407.244,-193.927 409.771,-200.455"/>
</g>
<!-- Node21&#45;&gt;Node3 -->
<g id="edge54" class="edge"><title>Node21&#45;&gt;Node3</title>
<path fill="none" stroke="midnightblue" d="M412.28,-236.46C402.517,-228.136 388.383,-214.625 380,-200 358.578,-162.629 348.52,-112.331 344.418,-85.5692"/>
<polygon fill="midnightblue" stroke="midnightblue" points="347.88,-85.0556 343.009,-75.6471 340.95,-86.04 347.88,-85.0556"/>
</g>
<!-- Node22&#45;&gt;Node3 -->
<g id="edge58" class="edge"><title>Node22&#45;&gt;Node3</title>
<path fill="none" stroke="midnightblue" d="M481.697,-112.444C453.649,-103.32 409.056,-88.8133 377.816,-78.6509"/>
<polygon fill="midnightblue" stroke="midnightblue" points="378.772,-75.2816 368.18,-75.5164 376.607,-81.9383 378.772,-75.2816"/>
</g>
<!-- Node23&#45;&gt;Node13 -->
<g id="edge66" class="edge"><title>Node23&#45;&gt;Node13</title>
<path fill="none" stroke="midnightblue" d="M624.156,-168.781C622.538,-160.691 620.492,-150.462 618.745,-141.725"/>
<polygon fill="midnightblue" stroke="midnightblue" points="622.139,-140.85 616.746,-131.731 615.275,-142.223 622.139,-140.85"/>
</g>
<!-- Node23&#45;&gt;Node22 -->
<g id="edge64" class="edge"><title>Node23&#45;&gt;Node22</title>
<path fill="none" stroke="midnightblue" d="M599.1,-168.933C579.471,-159.036 553.379,-145.88 534.151,-136.185"/>
<polygon fill="midnightblue" stroke="midnightblue" points="535.562,-132.977 525.057,-131.6 532.41,-139.227 535.562,-132.977"/>
</g>
<!-- Node24 -->
<g id="node58" class="node"><title>Node24</title>
<a xlink:href="FactoryBase_8h.html" target="_top" xlink:title="File contains the FactoryBase class declarations. ">
<polygon fill="white" stroke="black" points="855,-56.5 855,-75.5 999,-75.5 999,-56.5 855,-56.5"/>
<text text-anchor="middle" x="927" y="-63.5" font-family="FreeSans" font-size="10.00">cantera/base/FactoryBase.h</text>
</a>
</g>
<!-- Node23&#45;&gt;Node24 -->
<g id="edge68" class="edge"><title>Node23&#45;&gt;Node24</title>
<path fill="none" stroke="midnightblue" d="M691.755,-168.9C727.336,-160.179 771.86,-147.653 810,-132 844.764,-117.733 882.297,-95.5519 905.227,-81.1495"/>
<polygon fill="midnightblue" stroke="midnightblue" points="907.267,-83.9998 913.828,-75.6804 903.511,-78.0928 907.267,-83.9998"/>
</g>
<!-- Node25 -->
<g id="node61" class="node"><title>Node25</title>
<a xlink:href="ct__thread_8h.html" target="_top" xlink:title="cantera/base/ct_thread.h">
<polygon fill="white" stroke="black" points="673,-112.5 673,-131.5 801,-131.5 801,-112.5 673,-112.5"/>
<text text-anchor="middle" x="737" y="-119.5" font-family="FreeSans" font-size="10.00">cantera/base/ct_thread.h</text>
</a>
</g>
<!-- Node23&#45;&gt;Node25 -->
<g id="edge72" class="edge"><title>Node23&#45;&gt;Node25</title>
<path fill="none" stroke="midnightblue" d="M652.79,-168.933C670.686,-159.171 694.393,-146.24 712.093,-136.586"/>
<polygon fill="midnightblue" stroke="midnightblue" points="714.13,-139.461 721.233,-131.6 710.778,-133.316 714.13,-139.461"/>
</g>
<!-- Node24&#45;&gt;Node7 -->
<g id="edge70" class="edge"><title>Node24&#45;&gt;Node7</title>
<path fill="none" stroke="midnightblue" d="M906.56,-56.4435C885.33,-47.5566 851.901,-33.5632 827.745,-23.4514"/>
<polygon fill="midnightblue" stroke="midnightblue" points="828.921,-20.1493 818.345,-19.5164 826.218,-26.6064 828.921,-20.1493"/>
</g>
<!-- Node25&#45;&gt;Node4 -->
<g id="edge74" class="edge"><title>Node25&#45;&gt;Node4</title>
<path fill="none" stroke="midnightblue" d="M730.591,-112.23C720.604,-98.9632 700.257,-73.4877 679,-56 663.898,-43.576 644.982,-32.3628 629.799,-24.2372"/>
<polygon fill="midnightblue" stroke="midnightblue" points="631.381,-21.1148 620.896,-19.5937 628.144,-27.3214 631.381,-21.1148"/>
</g>
<!-- Node26 -->
<g id="node64" class="node"><title>Node26</title>
<polygon fill="white" stroke="#bfbfbf" points="727,-56.5 727,-75.5 837,-75.5 837,-56.5 727,-56.5"/>
<text text-anchor="middle" x="782" y="-63.5" font-family="FreeSans" font-size="10.00">boost/shared_ptr.hpp</text>
</g>
<!-- Node25&#45;&gt;Node26 -->
<g id="edge76" class="edge"><title>Node25&#45;&gt;Node26</title>
<path fill="none" stroke="midnightblue" d="M744.431,-112.083C750.853,-104.377 760.306,-93.0333 768.122,-83.6531"/>
<polygon fill="midnightblue" stroke="midnightblue" points="770.994,-85.674 774.707,-75.7511 765.617,-81.1927 770.994,-85.674"/>
</g>
<!-- Node27 -->
<g id="node66" class="node"><title>Node27</title>
<polygon fill="white" stroke="#bfbfbf" points="549.5,-56.5 549.5,-75.5 670.5,-75.5 670.5,-56.5 549.5,-56.5"/>
<text text-anchor="middle" x="610" y="-63.5" font-family="FreeSans" font-size="10.00">boost/thread/mutex.hpp</text>
</g>
<!-- Node25&#45;&gt;Node27 -->
<g id="edge78" class="edge"><title>Node25&#45;&gt;Node27</title>
<path fill="none" stroke="midnightblue" d="M716.876,-112.444C695.976,-103.557 663.065,-89.5632 639.284,-79.4514"/>
<polygon fill="midnightblue" stroke="midnightblue" points="640.602,-76.2085 630.029,-75.5164 637.862,-82.6504 640.602,-76.2085"/>
</g>
<!-- Node29 -->
<g id="node70" class="node"><title>Node29</title>
<a xlink:href="PDSS_8h.html" target="_top" xlink:title="Declarations for the virtual base class PDSS (pressure dependent standard state) which handles calcul...">
<polygon fill="white" stroke="black" points="158,-348.5 158,-367.5 210,-367.5 210,-348.5 158,-348.5"/>
<text text-anchor="middle" x="184" y="-355.5" font-family="FreeSans" font-size="10.00">PDSS.h</text>
</a>
</g>
<!-- Node28&#45;&gt;Node29 -->
<g id="edge82" class="edge"><title>Node28&#45;&gt;Node29</title>
<path fill="none" stroke="midnightblue" d="M200.786,-404.781C197.754,-396.512 193.902,-386.006 190.653,-377.145"/>
<polygon fill="midnightblue" stroke="midnightblue" points="193.93,-375.914 187.201,-367.731 187.358,-378.324 193.93,-375.914"/>
</g>
<!-- Node29&#45;&gt;Node3 -->
<g id="edge84" class="edge"><title>Node29&#45;&gt;Node3</title>
<path fill="none" stroke="midnightblue" d="M181.275,-348.241C171.719,-317.455 140.188,-215.252 138,-200 135.98,-185.922 130.499,-180.083 138,-168 169.881,-116.641 236.495,-90.5979 284.953,-77.9542"/>
<polygon fill="midnightblue" stroke="midnightblue" points="285.836,-81.3415 294.693,-75.5279 284.144,-74.5491 285.836,-81.3415"/>
</g>
<!-- Node29&#45;&gt;Node11 -->
<g id="edge86" class="edge"><title>Node29&#45;&gt;Node11</title>
<path fill="none" stroke="midnightblue" d="M174.199,-348.324C165.182,-340.341 151.594,-328.313 140.682,-318.653"/>
<polygon fill="midnightblue" stroke="midnightblue" points="142.787,-315.842 132.979,-311.834 138.147,-321.083 142.787,-315.842"/>
</g>
</g>
</svg>
