<?xml version="1.0" encoding="UTF-8" standalone="no"?>
<!DOCTYPE svg PUBLIC "-//W3C//DTD SVG 1.1//EN"
 "http://www.w3.org/Graphics/SVG/1.1/DTD/svg11.dtd">
<!-- Generated by graphviz version 2.26.3 (20100126.1600)
 -->
<!-- Title: VPSSMgr_IdealGas.cpp Pages: 1 -->
<svg width="1175pt" height="344pt"
 viewBox="0.00 0.00 1175.00 344.00" xmlns="http://www.w3.org/2000/svg" xmlns:xlink="http://www.w3.org/1999/xlink">
<g id="graph1" class="graph" transform="scale(1 1) rotate(0) translate(4 340)">
<title>VPSSMgr_IdealGas.cpp</title>
<polygon fill="white" stroke="white" points="-4,5 -4,-340 1172,-340 1172,5 -4,5"/>
<!-- Node1 -->
<g id="node1" class="node"><title>Node1</title>
<polygon fill="#bfbfbf" stroke="black" points="264.5,-315 264.5,-335 385.5,-335 385.5,-315 264.5,-315"/>
<text text-anchor="middle" x="325" y="-322" font-family="FreeSans" font-size="10.00">VPSSMgr_IdealGas.cpp</text>
</g>
<!-- Node2 -->
<g id="node3" class="node"><title>Node2</title>
<a xlink:href="VPSSMgr__IdealGas_8h.html" target="_top" xlink:title="Declaration file for a derived class that handles the calculation of standard state thermo properties...">
<polygon fill="white" stroke="black" points="0,-245 0,-277 128,-277 128,-245 0,-245"/>
<text text-anchor="start" x="8" y="-264" font-family="FreeSans" font-size="10.00">cantera/thermo/VPSSMgr</text>
<text text-anchor="middle" x="64" y="-252" font-family="FreeSans" font-size="10.00">_IdealGas.h</text>
</a>
</g>
<!-- Node1&#45;&gt;Node2 -->
<g id="edge2" class="edge"><title>Node1&#45;&gt;Node2</title>
<path fill="none" stroke="midnightblue" d="M283.932,-314.93C244.931,-305.366 185.396,-290.768 138.1,-279.17"/>
<polygon fill="midnightblue" stroke="midnightblue" points="138.751,-275.726 128.205,-276.744 137.084,-282.525 138.751,-275.726"/>
</g>
<!-- Node14 -->
<g id="node31" class="node"><title>Node14</title>
<a xlink:href="utilities_8h.html" target="_top" xlink:title="Various templated functions that carry out common vector operations (see Templated Utility Functions)...">
<polygon fill="white" stroke="black" points="538.5,-117 538.5,-137 651.5,-137 651.5,-117 538.5,-117"/>
<text text-anchor="middle" x="595" y="-124" font-family="FreeSans" font-size="10.00">cantera/base/utilities.h</text>
</a>
</g>
<!-- Node1&#45;&gt;Node14 -->
<g id="edge34" class="edge"><title>Node1&#45;&gt;Node14</title>
<path fill="none" stroke="midnightblue" d="M351,-314.836C371.371,-306.337 400.014,-293.186 423,-278 485.39,-236.782 548.997,-174.567 578.319,-144.498"/>
<polygon fill="midnightblue" stroke="midnightblue" points="580.897,-146.866 585.333,-137.245 575.865,-142 580.897,-146.866"/>
</g>
<!-- Node16 -->
<g id="node36" class="node"><title>Node16</title>
<a xlink:href="xml_8h.html" target="_top" xlink:title="Classes providing support for XML data files. ">
<polygon fill="white" stroke="black" points="215,-181 215,-201 313,-201 313,-181 215,-181"/>
<text text-anchor="middle" x="264" y="-188" font-family="FreeSans" font-size="10.00">cantera/base/xml.h</text>
</a>
</g>
<!-- Node1&#45;&gt;Node16 -->
<g id="edge40" class="edge"><title>Node1&#45;&gt;Node16</title>
<path fill="none" stroke="midnightblue" d="M320.415,-314.928C310.303,-292.714 285.941,-239.199 272.783,-210.294"/>
<polygon fill="midnightblue" stroke="midnightblue" points="275.967,-208.84 268.638,-201.189 269.596,-211.74 275.967,-208.84"/>
</g>
<!-- Node19 -->
<g id="node44" class="node"><title>Node19</title>
<a xlink:href="ctml_8h.html" target="_top" xlink:title="CTML (&quot;Cantera Markup Language&quot;) is the variant of XML that Cantera uses to store data...">
<polygon fill="white" stroke="black" points="313.5,-251 313.5,-271 414.5,-271 414.5,-251 313.5,-251"/>
<text text-anchor="middle" x="364" y="-258" font-family="FreeSans" font-size="10.00">cantera/base/ctml.h</text>
</a>
</g>
<!-- Node1&#45;&gt;Node19 -->
<g id="edge50" class="edge"><title>Node1&#45;&gt;Node19</title>
<path fill="none" stroke="midnightblue" d="M331.266,-314.717C336.985,-305.332 345.581,-291.226 352.529,-279.825"/>
<polygon fill="midnightblue" stroke="midnightblue" points="355.663,-281.407 357.878,-271.046 349.686,-277.764 355.663,-281.407"/>
</g>
<!-- Node23 -->
<g id="node57" class="node"><title>Node23</title>
<a xlink:href="SpeciesThermoFactory_8h.html" target="_top" xlink:title="Header for factory to build instances of classes that manage the standard&#45;state thermodynamic propert...">
<polygon fill="white" stroke="black" points="742,-175 742,-207 894,-207 894,-175 742,-175"/>
<text text-anchor="start" x="750" y="-194" font-family="FreeSans" font-size="10.00">cantera/thermo/SpeciesThermo</text>
<text text-anchor="middle" x="818" y="-182" font-family="FreeSans" font-size="10.00">Factory.h</text>
</a>
</g>
<!-- Node1&#45;&gt;Node23 -->
<g id="edge68" class="edge"><title>Node1&#45;&gt;Node23</title>
<path fill="none" stroke="midnightblue" d="M383.315,-314.961C429.855,-306.487 496.546,-293.308 554,-278 628.189,-258.234 712.13,-229.434 765.047,-210.463"/>
<polygon fill="midnightblue" stroke="midnightblue" points="766.334,-213.72 774.558,-207.039 763.964,-207.133 766.334,-213.72"/>
</g>
<!-- Node29 -->
<g id="node73" class="node"><title>Node29</title>
<a xlink:href="PDSS__IdealGas_8h.html" target="_top" xlink:title="Declarations for the class PDSS_IdealGas (pressure dependent standard state) which handles calculatio...">
<polygon fill="white" stroke="black" points="146,-245 146,-277 258,-277 258,-245 146,-245"/>
<text text-anchor="start" x="154" y="-264" font-family="FreeSans" font-size="10.00">cantera/thermo/PDSS</text>
<text text-anchor="middle" x="202" y="-252" font-family="FreeSans" font-size="10.00">_IdealGas.h</text>
</a>
</g>
<!-- Node1&#45;&gt;Node29 -->
<g id="edge88" class="edge"><title>Node1&#45;&gt;Node29</title>
<path fill="none" stroke="midnightblue" d="M305.51,-314.859C288.516,-306.017 263.324,-292.908 242.048,-281.838"/>
<polygon fill="midnightblue" stroke="midnightblue" points="243.386,-278.589 232.899,-277.078 240.155,-284.798 243.386,-278.589"/>
</g>
<!-- Node3 -->
<g id="node5" class="node"><title>Node3</title>
<a xlink:href="ct__defs_8h.html" target="_top" xlink:title="This file contains definitions of terms that are used in internal routines and are unlikely to need m...">
<polygon fill="white" stroke="black" points="322,-59 322,-79 436,-79 436,-59 322,-59"/>
<text text-anchor="middle" x="379" y="-66" font-family="FreeSans" font-size="10.00">cantera/base/ct_defs.h</text>
</a>
</g>
<!-- Node2&#45;&gt;Node3 -->
<g id="edge4" class="edge"><title>Node2&#45;&gt;Node3</title>
<path fill="none" stroke="midnightblue" d="M56.1082,-244.731C51.5741,-234.463 46.3295,-220.771 44,-208 36.437,-166.537 34.0005,-142.219 67,-116 103.811,-86.7529 231.538,-75.5962 311.704,-71.4194"/>
<polygon fill="midnightblue" stroke="midnightblue" points="311.905,-74.9138 321.719,-70.9209 311.557,-67.9225 311.905,-74.9138"/>
</g>
<!-- Node10 -->
<g id="node19" class="node"><title>Node10</title>
<a xlink:href="PDSS_8h.html" target="_top" xlink:title="Declarations for the virtual base class PDSS (pressure dependent standard state) which handles calcul...">
<polygon fill="white" stroke="black" points="143.5,-181 143.5,-201 194.5,-201 194.5,-181 143.5,-181"/>
<text text-anchor="middle" x="169" y="-188" font-family="FreeSans" font-size="10.00">PDSS.h</text>
</a>
</g>
<!-- Node2&#45;&gt;Node10 -->
<g id="edge18" class="edge"><title>Node2&#45;&gt;Node10</title>
<path fill="none" stroke="midnightblue" d="M88.0891,-244.941C105.31,-233.46 128.366,-218.089 145.461,-206.693"/>
<polygon fill="midnightblue" stroke="midnightblue" points="147.415,-209.596 153.794,-201.137 143.532,-203.772 147.415,-209.596"/>
</g>
<!-- Node12 -->
<g id="node24" class="node"><title>Node12</title>
<a xlink:href="VPSSMgr_8h.html" target="_top" xlink:title="Declaration file for a virtual base class that manages the calculation of standard state properties f...">
<polygon fill="white" stroke="black" points="52.5,-181 52.5,-201 119.5,-201 119.5,-181 52.5,-181"/>
<text text-anchor="middle" x="86" y="-188" font-family="FreeSans" font-size="10.00">VPSSMgr.h</text>
</a>
</g>
<!-- Node2&#45;&gt;Node12 -->
<g id="edge24" class="edge"><title>Node2&#45;&gt;Node12</title>
<path fill="none" stroke="midnightblue" d="M69.1025,-244.765C72.2632,-234.708 76.3461,-221.717 79.7067,-211.024"/>
<polygon fill="midnightblue" stroke="midnightblue" points="83.1063,-211.88 82.7656,-201.291 76.4283,-209.782 83.1063,-211.88"/>
</g>
<!-- Node4 -->
<g id="node7" class="node"><title>Node4</title>
<a xlink:href="config_8h_source.html" target="_top" xlink:title="config.h">
<polygon fill="white" stroke="black" points="888,-1 888,-21 938,-21 938,-1 888,-1"/>
<text text-anchor="middle" x="913" y="-8" font-family="FreeSans" font-size="10.00">config.h</text>
</a>
</g>
<!-- Node3&#45;&gt;Node4 -->
<g id="edge6" class="edge"><title>Node3&#45;&gt;Node4</title>
<path fill="none" stroke="midnightblue" d="M436.147,-62.793C546.789,-50.7758 787.306,-24.6521 877.706,-14.8334"/>
<polygon fill="midnightblue" stroke="midnightblue" points="878.157,-18.3051 887.721,-13.7457 877.401,-11.346 878.157,-18.3051"/>
</g>
<!-- Node5 -->
<g id="node9" class="node"><title>Node5</title>
<polygon fill="white" stroke="#bfbfbf" points="295,-1 295,-21 339,-21 339,-1 295,-1"/>
<text text-anchor="middle" x="317" y="-8" font-family="FreeSans" font-size="10.00">cmath</text>
</g>
<!-- Node3&#45;&gt;Node5 -->
<g id="edge8" class="edge"><title>Node3&#45;&gt;Node5</title>
<path fill="none" stroke="midnightblue" d="M368.2,-58.8972C359.243,-50.5175 346.3,-38.4093 335.668,-28.4638"/>
<polygon fill="midnightblue" stroke="midnightblue" points="337.787,-25.6532 328.093,-21.3776 333.005,-30.7652 337.787,-25.6532"/>
</g>
<!-- Node6 -->
<g id="node11" class="node"><title>Node6</title>
<polygon fill="white" stroke="#bfbfbf" points="357,-1 357,-21 401,-21 401,-1 357,-1"/>
<text text-anchor="middle" x="379" y="-8" font-family="FreeSans" font-size="10.00">cstdlib</text>
</g>
<!-- Node3&#45;&gt;Node6 -->
<g id="edge10" class="edge"><title>Node3&#45;&gt;Node6</title>
<path fill="none" stroke="midnightblue" d="M379,-58.8972C379,-51.339 379,-40.7476 379,-31.4458"/>
<polygon fill="midnightblue" stroke="midnightblue" points="382.5,-31.3776 379,-21.3776 375.5,-31.3776 382.5,-31.3776"/>
</g>
<!-- Node7 -->
<g id="node13" class="node"><title>Node7</title>
<polygon fill="white" stroke="#bfbfbf" points="708.5,-1 708.5,-21 751.5,-21 751.5,-1 708.5,-1"/>
<text text-anchor="middle" x="730" y="-8" font-family="FreeSans" font-size="10.00">vector</text>
</g>
<!-- Node3&#45;&gt;Node7 -->
<g id="edge12" class="edge"><title>Node3&#45;&gt;Node7</title>
<path fill="none" stroke="midnightblue" d="M436.175,-59.5522C510.943,-47.1974 639.343,-25.9803 698.488,-16.2071"/>
<polygon fill="midnightblue" stroke="midnightblue" points="699.07,-19.6584 708.366,-14.5748 697.929,-12.7521 699.07,-19.6584"/>
</g>
<!-- Node8 -->
<g id="node15" class="node"><title>Node8</title>
<polygon fill="white" stroke="#bfbfbf" points="418.5,-1 418.5,-21 453.5,-21 453.5,-1 418.5,-1"/>
<text text-anchor="middle" x="436" y="-8" font-family="FreeSans" font-size="10.00">map</text>
</g>
<!-- Node3&#45;&gt;Node8 -->
<g id="edge14" class="edge"><title>Node3&#45;&gt;Node8</title>
<path fill="none" stroke="midnightblue" d="M388.929,-58.8972C397.083,-50.5996 408.83,-38.6463 418.549,-28.7569"/>
<polygon fill="midnightblue" stroke="midnightblue" points="421.288,-30.9632 425.801,-21.3776 416.296,-26.0566 421.288,-30.9632"/>
</g>
<!-- Node9 -->
<g id="node17" class="node"><title>Node9</title>
<polygon fill="white" stroke="#bfbfbf" points="579,-1 579,-21 619,-21 619,-1 579,-1"/>
<text text-anchor="middle" x="599" y="-8" font-family="FreeSans" font-size="10.00">string</text>
</g>
<!-- Node3&#45;&gt;Node9 -->
<g id="edge16" class="edge"><title>Node3&#45;&gt;Node9</title>
<path fill="none" stroke="midnightblue" d="M417.321,-58.8972C460.491,-47.5161 529.749,-29.2572 569.11,-18.8802"/>
<polygon fill="midnightblue" stroke="midnightblue" points="570.128,-22.2313 578.905,-16.2976 568.344,-15.4626 570.128,-22.2313"/>
</g>
<!-- Node10&#45;&gt;Node3 -->
<g id="edge20" class="edge"><title>Node10&#45;&gt;Node3</title>
<path fill="none" stroke="midnightblue" d="M190.914,-180.933C223.977,-165.739 282.909,-138.639 284,-138 311.148,-122.093 340.096,-100.283 358.804,-85.4711"/>
<polygon fill="midnightblue" stroke="midnightblue" points="361.014,-88.1853 366.635,-79.2047 356.64,-82.7196 361.014,-88.1853"/>
</g>
<!-- Node11 -->
<g id="node22" class="node"><title>Node11</title>
<a xlink:href="mix__defs_8h.html" target="_top" xlink:title="mix_defs.h">
<polygon fill="white" stroke="black" points="87,-117 87,-137 149,-137 149,-117 87,-117"/>
<text text-anchor="middle" x="118" y="-124" font-family="FreeSans" font-size="10.00">mix_defs.h</text>
</a>
</g>
<!-- Node10&#45;&gt;Node11 -->
<g id="edge22" class="edge"><title>Node10&#45;&gt;Node11</title>
<path fill="none" stroke="midnightblue" d="M160.806,-180.717C153.177,-171.144 141.635,-156.66 132.458,-145.144"/>
<polygon fill="midnightblue" stroke="midnightblue" points="134.975,-142.686 126.006,-137.046 129.5,-147.048 134.975,-142.686"/>
</g>
<!-- Node12&#45;&gt;Node3 -->
<g id="edge26" class="edge"><title>Node12&#45;&gt;Node3</title>
<path fill="none" stroke="midnightblue" d="M80.7394,-180.883C73.3196,-165.041 62.332,-134.304 78,-116 93.017,-98.4562 227.64,-82.9747 311.682,-74.9071"/>
<polygon fill="midnightblue" stroke="midnightblue" points="312.044,-78.3885 321.669,-73.9603 311.384,-71.4198 312.044,-78.3885"/>
</g>
<!-- Node12&#45;&gt;Node11 -->
<g id="edge28" class="edge"><title>Node12&#45;&gt;Node11</title>
<path fill="none" stroke="midnightblue" d="M91.1414,-180.717C95.7873,-171.425 102.746,-157.508 108.416,-146.168"/>
<polygon fill="midnightblue" stroke="midnightblue" points="111.635,-147.556 112.977,-137.046 105.374,-144.425 111.635,-147.556"/>
</g>
<!-- Node13 -->
<g id="node28" class="node"><title>Node13</title>
<a xlink:href="global_8h.html" target="_top" xlink:title="This file contains definitions for utility functions and text for modules, inputfiles, logs, textlogs, (see Input File Handling, Diagnostic Output, and Writing messages to the screen). ">
<polygon fill="white" stroke="black" points="167,-117 167,-137 275,-137 275,-117 167,-117"/>
<text text-anchor="middle" x="221" y="-124" font-family="FreeSans" font-size="10.00">cantera/base/global.h</text>
</a>
</g>
<!-- Node12&#45;&gt;Node13 -->
<g id="edge30" class="edge"><title>Node12&#45;&gt;Node13</title>
<path fill="none" stroke="midnightblue" d="M107.391,-180.859C129.806,-170.233 165.215,-153.446 190.543,-141.439"/>
<polygon fill="midnightblue" stroke="midnightblue" points="192.172,-144.54 199.709,-137.094 189.174,-138.215 192.172,-144.54"/>
</g>
<!-- Node13&#45;&gt;Node3 -->
<g id="edge32" class="edge"><title>Node13&#45;&gt;Node3</title>
<path fill="none" stroke="midnightblue" d="M248.521,-116.897C274.384,-107.403 313.283,-93.124 341.881,-82.6258"/>
<polygon fill="midnightblue" stroke="midnightblue" points="343.348,-85.8159 351.529,-79.0842 340.936,-79.2447 343.348,-85.8159"/>
</g>
<!-- Node14&#45;&gt;Node3 -->
<g id="edge36" class="edge"><title>Node14&#45;&gt;Node3</title>
<path fill="none" stroke="midnightblue" d="M557.376,-116.897C521.016,-107.134 465.808,-92.3095 426.45,-81.7412"/>
<polygon fill="midnightblue" stroke="midnightblue" points="427.12,-78.2973 416.555,-79.0842 425.305,-85.0578 427.12,-78.2973"/>
</g>
<!-- Node15 -->
<g id="node34" class="node"><title>Node15</title>
<polygon fill="white" stroke="#bfbfbf" points="547,-59 547,-79 603,-79 603,-59 547,-59"/>
<text text-anchor="middle" x="575" y="-66" font-family="FreeSans" font-size="10.00">algorithm</text>
</g>
<!-- Node14&#45;&gt;Node15 -->
<g id="edge38" class="edge"><title>Node14&#45;&gt;Node15</title>
<path fill="none" stroke="midnightblue" d="M591.516,-116.897C588.853,-109.175 585.099,-98.2857 581.842,-88.841"/>
<polygon fill="midnightblue" stroke="midnightblue" points="585.147,-87.6903 578.578,-79.3776 578.53,-89.9723 585.147,-87.6903"/>
</g>
<!-- Node16&#45;&gt;Node13 -->
<g id="edge48" class="edge"><title>Node16&#45;&gt;Node13</title>
<path fill="none" stroke="midnightblue" d="M257.091,-180.717C250.722,-171.238 241.118,-156.944 233.419,-145.483"/>
<polygon fill="midnightblue" stroke="midnightblue" points="236.232,-143.395 227.75,-137.046 230.422,-147.299 236.232,-143.395"/>
</g>
<!-- Node17 -->
<g id="node38" class="node"><title>Node17</title>
<a xlink:href="ctexceptions_8h.html" target="_top" xlink:title="Definitions for the classes that are thrown when Cantera experiences an error condition (also contain...">
<polygon fill="white" stroke="black" points="779,-117 779,-137 857,-137 857,-117 779,-117"/>
<text text-anchor="middle" x="818" y="-124" font-family="FreeSans" font-size="10.00">ctexceptions.h</text>
</a>
</g>
<!-- Node16&#45;&gt;Node17 -->
<g id="edge42" class="edge"><title>Node16&#45;&gt;Node17</title>
<path fill="none" stroke="midnightblue" d="M313.083,-185.938C428.215,-174.055 709.851,-144.927 768.825,-137.727"/>
<polygon fill="midnightblue" stroke="midnightblue" points="769.337,-141.19 778.784,-136.393 768.408,-134.252 769.337,-141.19"/>
</g>
<!-- Node17&#45;&gt;Node9 -->
<g id="edge46" class="edge"><title>Node17&#45;&gt;Node9</title>
<path fill="none" stroke="midnightblue" d="M797.376,-116.852C778.624,-107.533 750.259,-93.2071 726,-80 708.86,-70.6688 705.076,-67.4472 688,-58 668.004,-46.9373 645.211,-34.9115 627.698,-25.7938"/>
<polygon fill="midnightblue" stroke="midnightblue" points="629.05,-22.5526 618.562,-21.0522 625.825,-28.7656 629.05,-22.5526"/>
</g>
<!-- Node18 -->
<g id="node40" class="node"><title>Node18</title>
<polygon fill="white" stroke="#bfbfbf" points="621,-59 621,-79 679,-79 679,-59 621,-59"/>
<text text-anchor="middle" x="650" y="-66" font-family="FreeSans" font-size="10.00">exception</text>
</g>
<!-- Node17&#45;&gt;Node18 -->
<g id="edge44" class="edge"><title>Node17&#45;&gt;Node18</title>
<path fill="none" stroke="midnightblue" d="M788.737,-116.897C760.997,-107.321 719.153,-92.8742 688.674,-82.3516"/>
<polygon fill="midnightblue" stroke="midnightblue" points="689.804,-79.0392 679.209,-79.0842 687.52,-85.656 689.804,-79.0392"/>
</g>
<!-- Node19&#45;&gt;Node3 -->
<g id="edge52" class="edge"><title>Node19&#45;&gt;Node3</title>
<path fill="none" stroke="midnightblue" d="M364.785,-250.948C367.144,-220.762 374.197,-130.476 377.394,-89.5591"/>
<polygon fill="midnightblue" stroke="midnightblue" points="380.896,-89.6608 378.186,-79.4185 373.918,-89.1155 380.896,-89.6608"/>
</g>
<!-- Node19&#45;&gt;Node16 -->
<g id="edge54" class="edge"><title>Node19&#45;&gt;Node16</title>
<path fill="none" stroke="midnightblue" d="M349.672,-250.971C333.187,-239.431 305.907,-220.335 286.563,-206.794"/>
<polygon fill="midnightblue" stroke="midnightblue" points="288.5,-203.878 278.301,-201.011 284.486,-209.613 288.5,-203.878"/>
</g>
<!-- Node20 -->
<g id="node48" class="node"><title>Node20</title>
<a xlink:href="Array_8h.html" target="_top" xlink:title="Header file for class Cantera::Array2D. ">
<polygon fill="white" stroke="black" points="437.5,-181 437.5,-201 484.5,-201 484.5,-181 437.5,-181"/>
<text text-anchor="middle" x="461" y="-188" font-family="FreeSans" font-size="10.00">Array.h</text>
</a>
</g>
<!-- Node19&#45;&gt;Node20 -->
<g id="edge56" class="edge"><title>Node19&#45;&gt;Node20</title>
<path fill="none" stroke="midnightblue" d="M377.898,-250.971C393.816,-239.483 420.112,-220.507 438.86,-206.977"/>
<polygon fill="midnightblue" stroke="midnightblue" points="441.067,-209.701 447.128,-201.011 436.971,-204.024 441.067,-209.701"/>
</g>
<!-- Node20&#45;&gt;Node3 -->
<g id="edge58" class="edge"><title>Node20&#45;&gt;Node3</title>
<path fill="none" stroke="midnightblue" d="M444.061,-180.922C429.736,-171.545 409.725,-156.29 398,-138 388.489,-123.163 383.684,-103.584 381.291,-89.0738"/>
<polygon fill="midnightblue" stroke="midnightblue" points="384.751,-88.5431 379.893,-79.1278 377.819,-89.5177 384.751,-88.5431"/>
</g>
<!-- Node20&#45;&gt;Node14 -->
<g id="edge62" class="edge"><title>Node20&#45;&gt;Node14</title>
<path fill="none" stroke="midnightblue" d="M482.233,-180.859C504.482,-170.233 539.628,-153.446 564.769,-141.439"/>
<polygon fill="midnightblue" stroke="midnightblue" points="566.351,-144.562 573.867,-137.094 563.335,-138.245 566.351,-144.562"/>
</g>
<!-- Node20&#45;&gt;Node17 -->
<g id="edge60" class="edge"><title>Node20&#45;&gt;Node17</title>
<path fill="none" stroke="midnightblue" d="M484.73,-187.389C535.109,-179.626 656.658,-160.38 768.635,-138.198"/>
<polygon fill="midnightblue" stroke="midnightblue" points="769.623,-141.57 778.745,-136.182 768.254,-134.706 769.623,-141.57"/>
</g>
<!-- Node21 -->
<g id="node53" class="node"><title>Node21</title>
<polygon fill="white" stroke="#bfbfbf" points="406.5,-117 406.5,-137 459.5,-137 459.5,-117 406.5,-117"/>
<text text-anchor="middle" x="433" y="-124" font-family="FreeSans" font-size="10.00">iostream</text>
</g>
<!-- Node20&#45;&gt;Node21 -->
<g id="edge64" class="edge"><title>Node20&#45;&gt;Node21</title>
<path fill="none" stroke="midnightblue" d="M456.501,-180.717C452.477,-171.519 446.47,-157.789 441.536,-146.512"/>
<polygon fill="midnightblue" stroke="midnightblue" points="444.61,-144.805 437.395,-137.046 438.197,-147.611 444.61,-144.805"/>
</g>
<!-- Node22 -->
<g id="node55" class="node"><title>Node22</title>
<polygon fill="white" stroke="#bfbfbf" points="476.5,-117 476.5,-137 521.5,-137 521.5,-117 476.5,-117"/>
<text text-anchor="middle" x="499" y="-124" font-family="FreeSans" font-size="10.00">cstring</text>
</g>
<!-- Node20&#45;&gt;Node22 -->
<g id="edge66" class="edge"><title>Node20&#45;&gt;Node22</title>
<path fill="none" stroke="midnightblue" d="M467.105,-180.717C472.678,-171.332 481.053,-157.226 487.823,-145.825"/>
<polygon fill="midnightblue" stroke="midnightblue" points="490.939,-147.432 493.035,-137.046 484.92,-143.858 490.939,-147.432"/>
</g>
<!-- Node23&#45;&gt;Node17 -->
<g id="edge74" class="edge"><title>Node23&#45;&gt;Node17</title>
<path fill="none" stroke="midnightblue" d="M818,-174.85C818,-166.518 818,-156.269 818,-147.396"/>
<polygon fill="midnightblue" stroke="midnightblue" points="821.5,-147.141 818,-137.141 814.5,-147.141 821.5,-147.141"/>
</g>
<!-- Node24 -->
<g id="node59" class="node"><title>Node24</title>
<a xlink:href="SpeciesThermo_8h.html" target="_top" xlink:title="Virtual base class for the calculation of multiple&#45;species thermodynamic reference&#45;state property man...">
<polygon fill="white" stroke="black" points="669,-117 669,-137 761,-137 761,-117 669,-117"/>
<text text-anchor="middle" x="715" y="-124" font-family="FreeSans" font-size="10.00">SpeciesThermo.h</text>
</a>
</g>
<!-- Node23&#45;&gt;Node24 -->
<g id="edge70" class="edge"><title>Node23&#45;&gt;Node24</title>
<path fill="none" stroke="midnightblue" d="M792.009,-174.85C776.067,-164.945 755.762,-152.328 740.005,-142.537"/>
<polygon fill="midnightblue" stroke="midnightblue" points="741.662,-139.446 731.321,-137.141 737.967,-145.392 741.662,-139.446"/>
</g>
<!-- Node25 -->
<g id="node63" class="node"><title>Node25</title>
<a xlink:href="FactoryBase_8h.html" target="_top" xlink:title="File contains the FactoryBase class declarations. ">
<polygon fill="white" stroke="black" points="734.5,-59 734.5,-79 871.5,-79 871.5,-59 734.5,-59"/>
<text text-anchor="middle" x="803" y="-66" font-family="FreeSans" font-size="10.00">cantera/base/FactoryBase.h</text>
</a>
</g>
<!-- Node23&#45;&gt;Node25 -->
<g id="edge76" class="edge"><title>Node23&#45;&gt;Node25</title>
<path fill="none" stroke="midnightblue" d="M839.872,-174.903C857.136,-160.098 876.674,-137.28 866,-116 859.206,-102.455 846.452,-91.8175 834.187,-84.1136"/>
<polygon fill="midnightblue" stroke="midnightblue" points="835.838,-81.0253 825.435,-79.0228 832.319,-87.0762 835.838,-81.0253"/>
</g>
<!-- Node26 -->
<g id="node66" class="node"><title>Node26</title>
<a xlink:href="ct__thread_8h.html" target="_top" xlink:title="cantera/base/ct_thread.h">
<polygon fill="white" stroke="black" points="951.5,-117 951.5,-137 1074.5,-137 1074.5,-117 951.5,-117"/>
<text text-anchor="middle" x="1013" y="-124" font-family="FreeSans" font-size="10.00">cantera/base/ct_thread.h</text>
</a>
</g>
<!-- Node23&#45;&gt;Node26 -->
<g id="edge80" class="edge"><title>Node23&#45;&gt;Node26</title>
<path fill="none" stroke="midnightblue" d="M866.955,-174.933C899.633,-164.208 942.079,-150.277 972.782,-140.2"/>
<polygon fill="midnightblue" stroke="midnightblue" points="973.901,-143.516 982.31,-137.072 971.718,-136.865 973.901,-143.516"/>
</g>
<!-- Node24&#45;&gt;Node3 -->
<g id="edge72" class="edge"><title>Node24&#45;&gt;Node3</title>
<path fill="none" stroke="midnightblue" d="M668.807,-117.651C665.828,-117.082 662.873,-116.527 660,-116 587.029,-102.604 503.101,-88.7707 446.107,-79.6116"/>
<polygon fill="midnightblue" stroke="midnightblue" points="446.568,-76.141 436.14,-78.0135 445.46,-83.0527 446.568,-76.141"/>
</g>
<!-- Node25&#45;&gt;Node7 -->
<g id="edge78" class="edge"><title>Node25&#45;&gt;Node7</title>
<path fill="none" stroke="midnightblue" d="M790.284,-58.8972C779.531,-50.3532 763.898,-37.933 751.247,-27.8813"/>
<polygon fill="midnightblue" stroke="midnightblue" points="753.068,-24.858 743.061,-21.3776 748.714,-30.3388 753.068,-24.858"/>
</g>
<!-- Node26&#45;&gt;Node4 -->
<g id="edge82" class="edge"><title>Node26&#45;&gt;Node4</title>
<path fill="none" stroke="midnightblue" d="M1016.42,-116.694C1020.5,-102.316 1025.47,-75.9809 1014,-58 999.598,-35.4137 971.216,-23.5096 948.197,-17.3402"/>
<polygon fill="midnightblue" stroke="midnightblue" points="948.935,-13.918 938.392,-14.9621 947.285,-20.7208 948.935,-13.918"/>
</g>
<!-- Node27 -->
<g id="node69" class="node"><title>Node27</title>
<polygon fill="white" stroke="#bfbfbf" points="1061,-59 1061,-79 1167,-79 1167,-59 1061,-59"/>
<text text-anchor="middle" x="1114" y="-66" font-family="FreeSans" font-size="10.00">boost/shared_ptr.hpp</text>
</g>
<!-- Node26&#45;&gt;Node27 -->
<g id="edge84" class="edge"><title>Node26&#45;&gt;Node27</title>
<path fill="none" stroke="midnightblue" d="M1030.59,-116.897C1046.28,-107.887 1069.48,-94.5665 1087.43,-84.2586"/>
<polygon fill="midnightblue" stroke="midnightblue" points="1089.34,-87.1967 1096.27,-79.1817 1085.86,-81.1264 1089.34,-87.1967"/>
</g>
<!-- Node28 -->
<g id="node71" class="node"><title>Node28</title>
<polygon fill="white" stroke="#bfbfbf" points="888.5,-59 888.5,-79 1005.5,-79 1005.5,-59 888.5,-59"/>
<text text-anchor="middle" x="947" y="-66" font-family="FreeSans" font-size="10.00">boost/thread/mutex.hpp</text>
</g>
<!-- Node26&#45;&gt;Node28 -->
<g id="edge86" class="edge"><title>Node26&#45;&gt;Node28</title>
<path fill="none" stroke="midnightblue" d="M1001.5,-116.897C991.875,-108.435 977.919,-96.1715 966.54,-86.1719"/>
<polygon fill="midnightblue" stroke="midnightblue" points="968.631,-83.3497 958.809,-79.3776 964.01,-88.6079 968.631,-83.3497"/>
</g>
<!-- Node29&#45;&gt;Node10 -->
<g id="edge90" class="edge"><title>Node29&#45;&gt;Node10</title>
<path fill="none" stroke="midnightblue" d="M194.346,-244.765C189.506,-234.498 183.225,-221.174 178.126,-210.359"/>
<polygon fill="midnightblue" stroke="midnightblue" points="181.282,-208.844 173.852,-201.291 174.95,-211.829 181.282,-208.844"/>
</g>
</g>
</svg>
