<?xml version="1.0" encoding="UTF-8" standalone="no"?>
<!DOCTYPE svg PUBLIC "-//W3C//DTD SVG 1.1//EN"
 "http://www.w3.org/Graphics/SVG/1.1/DTD/svg11.dtd">
<!-- Generated by graphviz version 2.36.0 (20140111.2315)
 -->
<!-- Title: VPSSMgr_Water_ConstVol.cpp Pages: 1 -->
<svg width="1213pt" height="388pt"
 viewBox="0.00 0.00 1213.00 388.00" xmlns="http://www.w3.org/2000/svg" xmlns:xlink="http://www.w3.org/1999/xlink">
<g id="graph0" class="graph" transform="scale(1 1) rotate(0) translate(4 384)">
<title>VPSSMgr_Water_ConstVol.cpp</title>
<polygon fill="white" stroke="none" points="-4,4 -4,-384 1209,-384 1209,4 -4,4"/>
<!-- Node1 -->
<g id="node1" class="node"><title>Node1</title>
<polygon fill="#bfbfbf" stroke="black" points="370,-360.5 370,-379.5 522,-379.5 522,-360.5 370,-360.5"/>
<text text-anchor="middle" x="446" y="-367.5" font-family="FreeSans" font-size="10.00">VPSSMgr_Water_ConstVol.cpp</text>
</g>
<!-- Node2 -->
<g id="node2" class="node"><title>Node2</title>
<g id="a_node2"><a xlink:href="VPSSMgr__Water__ConstVol_8h.html" target="_top" xlink:title="Declaration file for a derived class that handles the calculation of standard state thermo properties...">
<polygon fill="white" stroke="black" points="428,-293 428,-323 556,-323 556,-293 428,-293"/>
<text text-anchor="start" x="436" y="-311" font-family="FreeSans" font-size="10.00">cantera/thermo/VPSSMgr</text>
<text text-anchor="middle" x="492" y="-300" font-family="FreeSans" font-size="10.00">_Water_ConstVol.h</text>
</a>
</g>
</g>
<!-- Node1&#45;&gt;Node2 -->
<g id="edge1" class="edge"><title>Node1&#45;&gt;Node2</title>
<path fill="none" stroke="midnightblue" d="M452.591,-360.403C458.413,-352.809 467.163,-341.396 474.94,-331.252"/>
<polygon fill="midnightblue" stroke="midnightblue" points="477.852,-333.206 481.159,-323.141 472.297,-328.947 477.852,-333.206"/>
</g>
<!-- Node9 -->
<g id="node9" class="node"><title>Node9</title>
<g id="a_node9"><a xlink:href="PDSS__Water_8h.html" target="_top" xlink:title="Implementation of a pressure dependent standard state virtual function for a Pure Water Phase (see Sp...">
<polygon fill="white" stroke="black" points="177,-225 177,-255 289,-255 289,-225 177,-225"/>
<text text-anchor="start" x="185" y="-243" font-family="FreeSans" font-size="10.00">cantera/thermo/PDSS</text>
<text text-anchor="middle" x="233" y="-232" font-family="FreeSans" font-size="10.00">_Water.h</text>
</a>
</g>
</g>
<!-- Node1&#45;&gt;Node9 -->
<g id="edge8" class="edge"><title>Node1&#45;&gt;Node9</title>
<path fill="none" stroke="midnightblue" d="M431.694,-360.403C397.869,-340.076 312.287,-288.646 265.23,-260.368"/>
<polygon fill="midnightblue" stroke="midnightblue" points="267.01,-257.355 256.636,-255.204 263.404,-263.355 267.01,-257.355"/>
</g>
<!-- Node14 -->
<g id="node14" class="node"><title>Node14</title>
<g id="a_node14"><a xlink:href="PDSS__ConstVol_8h.html" target="_top" xlink:title="Declarations for the class PDSS_ConstVol (pressure dependent standard state) which handles calculatio...">
<polygon fill="white" stroke="black" points="132,-293 132,-323 244,-323 244,-293 132,-293"/>
<text text-anchor="start" x="140" y="-311" font-family="FreeSans" font-size="10.00">cantera/thermo/PDSS</text>
<text text-anchor="middle" x="188" y="-300" font-family="FreeSans" font-size="10.00">_ConstVol.h</text>
</a>
</g>
</g>
<!-- Node1&#45;&gt;Node14 -->
<g id="edge17" class="edge"><title>Node1&#45;&gt;Node14</title>
<path fill="none" stroke="midnightblue" d="M409.309,-360.467C368.961,-351.084 303.314,-335.817 253.975,-324.343"/>
<polygon fill="midnightblue" stroke="midnightblue" points="254.556,-320.885 244.023,-322.029 252.97,-327.703 254.556,-320.885"/>
</g>
<!-- Node15 -->
<g id="node15" class="node"><title>Node15</title>
<g id="a_node15"><a xlink:href="GeneralSpeciesThermo_8h.html" target="_top" xlink:title="Headers for a completely general species thermodynamic property manager for a phase (see Managers for...">
<polygon fill="white" stroke="black" points="323.5,-225 323.5,-255 476.5,-255 476.5,-225 323.5,-225"/>
<text text-anchor="start" x="331.5" y="-243" font-family="FreeSans" font-size="10.00">cantera/thermo/GeneralSpecies</text>
<text text-anchor="middle" x="400" y="-232" font-family="FreeSans" font-size="10.00">Thermo.h</text>
</a>
</g>
</g>
<!-- Node1&#45;&gt;Node15 -->
<g id="edge19" class="edge"><title>Node1&#45;&gt;Node15</title>
<path fill="none" stroke="midnightblue" d="M439.754,-360.467C433.63,-351.72 424.444,-337.523 419,-324 411.347,-304.989 406.411,-282.228 403.493,-265.353"/>
<polygon fill="midnightblue" stroke="midnightblue" points="406.905,-264.529 401.859,-255.213 399.995,-265.642 406.905,-264.529"/>
</g>
<!-- Node19 -->
<g id="node19" class="node"><title>Node19</title>
<g id="a_node19"><a xlink:href="VPStandardStateTP_8h.html" target="_top" xlink:title="Header file for a derived class of ThermoPhase that handles variable pressure standard state methods ...">
<polygon fill="white" stroke="black" points="574.5,-293 574.5,-323 711.5,-323 711.5,-293 574.5,-293"/>
<text text-anchor="start" x="582.5" y="-311" font-family="FreeSans" font-size="10.00">cantera/thermo/VPStandard</text>
<text text-anchor="middle" x="643" y="-300" font-family="FreeSans" font-size="10.00">StateTP.h</text>
</a>
</g>
</g>
<!-- Node1&#45;&gt;Node19 -->
<g id="edge25" class="edge"><title>Node1&#45;&gt;Node19</title>
<path fill="none" stroke="midnightblue" d="M474.225,-360.403C503.622,-351.45 550.444,-337.19 587.322,-325.958"/>
<polygon fill="midnightblue" stroke="midnightblue" points="588.404,-329.287 596.95,-323.025 586.364,-322.591 588.404,-329.287"/>
</g>
<!-- Node26 -->
<g id="node26" class="node"><title>Node26</title>
<g id="a_node26"><a xlink:href="ctml_8h.html" target="_top" xlink:title="CTML (&quot;Cantera Markup Language&quot;) is the variant of XML that Cantera uses to store data...">
<polygon fill="white" stroke="black" points="989.5,-230.5 989.5,-249.5 1090.5,-249.5 1090.5,-230.5 989.5,-230.5"/>
<text text-anchor="middle" x="1040" y="-237.5" font-family="FreeSans" font-size="10.00">cantera/base/ctml.h</text>
</a>
</g>
</g>
<!-- Node1&#45;&gt;Node26 -->
<g id="edge39" class="edge"><title>Node1&#45;&gt;Node26</title>
<path fill="none" stroke="midnightblue" d="M507.783,-360.494C563.513,-352.432 647.602,-339.301 720,-324 822.184,-302.404 940.787,-269.572 1000.83,-252.39"/>
<polygon fill="midnightblue" stroke="midnightblue" points="1002.01,-255.694 1010.65,-249.57 1000.08,-248.966 1002.01,-255.694"/>
</g>
<!-- Node3 -->
<g id="node3" class="node"><title>Node3</title>
<g id="a_node3"><a xlink:href="VPSSMgr_8h.html" target="_top" xlink:title="Declaration file for a virtual base class that manages the calculation of standard state properties f...">
<polygon fill="white" stroke="black" points="514.5,-230.5 514.5,-249.5 581.5,-249.5 581.5,-230.5 514.5,-230.5"/>
<text text-anchor="middle" x="548" y="-237.5" font-family="FreeSans" font-size="10.00">VPSSMgr.h</text>
</a>
</g>
</g>
<!-- Node2&#45;&gt;Node3 -->
<g id="edge2" class="edge"><title>Node2&#45;&gt;Node3</title>
<path fill="none" stroke="midnightblue" d="M504.151,-292.679C512.883,-282.388 524.68,-268.484 533.839,-257.69"/>
<polygon fill="midnightblue" stroke="midnightblue" points="536.708,-259.718 540.509,-249.828 531.371,-255.189 536.708,-259.718"/>
</g>
<!-- Node4 -->
<g id="node4" class="node"><title>Node4</title>
<g id="a_node4"><a xlink:href="mix__defs_8h.html" target="_top" xlink:title="mix_defs.h">
<polygon fill="white" stroke="black" points="128,-112.5 128,-131.5 190,-131.5 190,-112.5 128,-112.5"/>
<text text-anchor="middle" x="159" y="-119.5" font-family="FreeSans" font-size="10.00">mix_defs.h</text>
</a>
</g>
</g>
<!-- Node3&#45;&gt;Node4 -->
<g id="edge3" class="edge"><title>Node3&#45;&gt;Node4</title>
<path fill="none" stroke="midnightblue" d="M514.36,-230.826C504.876,-228.566 494.543,-226.146 485,-224 409.651,-207.055 387.639,-214.234 315,-188 297.05,-181.517 294.392,-175.859 277,-168 249.552,-155.597 217.583,-143.547 193.849,-135.043"/>
<polygon fill="midnightblue" stroke="midnightblue" points="194.813,-131.672 184.219,-131.625 192.472,-138.268 194.813,-131.672"/>
</g>
<!-- Node5 -->
<g id="node5" class="node"><title>Node5</title>
<g id="a_node5"><a xlink:href="global_8h.html" target="_top" xlink:title="This file contains definitions for utility functions and text for modules, inputfiles, logs, textlogs, (see Input File Handling, Diagnostic Output, and Writing messages to the screen). ">
<polygon fill="white" stroke="black" points="904,-112.5 904,-131.5 1012,-131.5 1012,-112.5 904,-112.5"/>
<text text-anchor="middle" x="958" y="-119.5" font-family="FreeSans" font-size="10.00">cantera/base/global.h</text>
</a>
</g>
</g>
<!-- Node3&#45;&gt;Node5 -->
<g id="edge4" class="edge"><title>Node3&#45;&gt;Node5</title>
<path fill="none" stroke="midnightblue" d="M576.253,-230.475C621.35,-216.921 712.431,-189.764 790,-168 832.418,-156.098 881.057,-143.146 915.047,-134.206"/>
<polygon fill="midnightblue" stroke="midnightblue" points="916.318,-137.491 925.102,-131.566 914.541,-130.72 916.318,-137.491"/>
</g>
<!-- Node6 -->
<g id="node6" class="node"><title>Node6</title>
<g id="a_node6"><a xlink:href="ct__defs_8h.html" target="_top" xlink:title="This file contains definitions of terms that are used in internal routines and are unlikely to need m...">
<polygon fill="white" stroke="red" points="447,-56.5 447,-75.5 503,-75.5 503,-56.5 447,-56.5"/>
<text text-anchor="middle" x="475" y="-63.5" font-family="FreeSans" font-size="10.00">ct_defs.h</text>
</a>
</g>
</g>
<!-- Node5&#45;&gt;Node6 -->
<g id="edge5" class="edge"><title>Node5&#45;&gt;Node6</title>
<path fill="none" stroke="midnightblue" d="M903.895,-113.265C900.548,-112.825 897.229,-112.4 894,-112 754.212,-94.6693 587.692,-77.9538 513.716,-70.7307"/>
<polygon fill="midnightblue" stroke="midnightblue" points="513.78,-67.2204 503.487,-69.7349 513.101,-74.1875 513.78,-67.2204"/>
</g>
<!-- Node8 -->
<g id="node8" class="node"><title>Node8</title>
<polygon fill="white" stroke="#bfbfbf" points="995.5,-56.5 995.5,-75.5 1098.5,-75.5 1098.5,-56.5 995.5,-56.5"/>
<text text-anchor="middle" x="1047" y="-63.5" font-family="FreeSans" font-size="10.00">cantera/ext/format.h</text>
</g>
<!-- Node5&#45;&gt;Node8 -->
<g id="edge7" class="edge"><title>Node5&#45;&gt;Node8</title>
<path fill="none" stroke="midnightblue" d="M972.299,-112.324C986.183,-103.9 1007.49,-90.9709 1023.8,-81.0741"/>
<polygon fill="midnightblue" stroke="midnightblue" points="1026,-83.8341 1032.74,-75.6545 1022.37,-77.8495 1026,-83.8341"/>
</g>
<!-- Node7 -->
<g id="node7" class="node"><title>Node7</title>
<g id="a_node7"><a xlink:href="config_8h_source.html" target="_top" xlink:title="config.h">
<polygon fill="white" stroke="black" points="330,-0.5 330,-19.5 380,-19.5 380,-0.5 330,-0.5"/>
<text text-anchor="middle" x="355" y="-7.5" font-family="FreeSans" font-size="10.00">config.h</text>
</a>
</g>
</g>
<!-- Node6&#45;&gt;Node7 -->
<g id="edge6" class="edge"><title>Node6&#45;&gt;Node7</title>
<path fill="none" stroke="midnightblue" d="M455.986,-56.4435C436.412,-47.6356 405.692,-33.8116 383.271,-23.722"/>
<polygon fill="midnightblue" stroke="midnightblue" points="384.481,-20.4284 373.925,-19.5164 381.608,-26.8119 384.481,-20.4284"/>
</g>
<!-- Node10 -->
<g id="node10" class="node"><title>Node10</title>
<g id="a_node10"><a xlink:href="PDSS_8h.html" target="_top" xlink:title="Declarations for the virtual base class PDSS (pressure dependent standard state) which handles calcul...">
<polygon fill="white" stroke="black" points="124.5,-168.5 124.5,-187.5 175.5,-187.5 175.5,-168.5 124.5,-168.5"/>
<text text-anchor="middle" x="150" y="-175.5" font-family="FreeSans" font-size="10.00">PDSS.h</text>
</a>
</g>
</g>
<!-- Node9&#45;&gt;Node10 -->
<g id="edge9" class="edge"><title>Node9&#45;&gt;Node10</title>
<path fill="none" stroke="midnightblue" d="M213.33,-224.781C200.399,-215.433 183.514,-203.227 170.432,-193.77"/>
<polygon fill="midnightblue" stroke="midnightblue" points="172.232,-190.753 162.077,-187.731 168.131,-196.426 172.232,-190.753"/>
</g>
<!-- Node11 -->
<g id="node11" class="node"><title>Node11</title>
<g id="a_node11"><a xlink:href="WaterPropsIAPWS_8h.html" target="_top" xlink:title="Headers for a class for calculating the equation of state of water from the IAPWS 1995 Formulation ba...">
<polygon fill="white" stroke="black" points="-0.5,-168.5 -0.5,-187.5 106.5,-187.5 106.5,-168.5 -0.5,-168.5"/>
<text text-anchor="middle" x="53" y="-175.5" font-family="FreeSans" font-size="10.00">WaterPropsIAPWS.h</text>
</a>
</g>
</g>
<!-- Node9&#45;&gt;Node11 -->
<g id="edge12" class="edge"><title>Node9&#45;&gt;Node11</title>
<path fill="none" stroke="midnightblue" d="M190.798,-224.933C159.659,-214.553 117.766,-200.589 88.3747,-190.792"/>
<polygon fill="midnightblue" stroke="midnightblue" points="89.1317,-187.355 78.5381,-187.513 86.9181,-193.995 89.1317,-187.355"/>
</g>
<!-- Node13 -->
<g id="node13" class="node"><title>Node13</title>
<g id="a_node13"><a xlink:href="WaterProps_8h.html" target="_top" xlink:title="Header for a class used to house several approximation routines for properties of water...">
<polygon fill="white" stroke="black" points="194,-168.5 194,-187.5 268,-187.5 268,-168.5 194,-168.5"/>
<text text-anchor="middle" x="231" y="-175.5" font-family="FreeSans" font-size="10.00">WaterProps.h</text>
</a>
</g>
</g>
<!-- Node9&#45;&gt;Node13 -->
<g id="edge15" class="edge"><title>Node9&#45;&gt;Node13</title>
<path fill="none" stroke="midnightblue" d="M232.526,-224.781C232.256,-216.691 231.915,-206.462 231.624,-197.725"/>
<polygon fill="midnightblue" stroke="midnightblue" points="235.122,-197.608 231.291,-187.731 228.126,-197.842 235.122,-197.608"/>
</g>
<!-- Node10&#45;&gt;Node4 -->
<g id="edge11" class="edge"><title>Node10&#45;&gt;Node4</title>
<path fill="none" stroke="midnightblue" d="M151.486,-168.083C152.679,-160.927 154.394,-150.635 155.885,-141.691"/>
<polygon fill="midnightblue" stroke="midnightblue" points="159.35,-142.19 157.541,-131.751 152.445,-141.04 159.35,-142.19"/>
</g>
<!-- Node10&#45;&gt;Node6 -->
<g id="edge10" class="edge"><title>Node10&#45;&gt;Node6</title>
<path fill="none" stroke="midnightblue" d="M139.955,-168.125C125.969,-154.721 103.953,-129.069 119,-112 139.783,-88.4243 349.008,-74.055 436.675,-69.0271"/>
<polygon fill="midnightblue" stroke="midnightblue" points="436.955,-72.5169 446.743,-68.4602 436.562,-65.528 436.955,-72.5169"/>
</g>
<!-- Node12 -->
<g id="node12" class="node"><title>Node12</title>
<g id="a_node12"><a xlink:href="WaterPropsIAPWSphi_8h.html" target="_top" xlink:title="Header for Lowest level of the classes which support a real water model (see class WaterPropsIAPWS an...">
<polygon fill="white" stroke="black" points="176.5,-56.5 176.5,-75.5 295.5,-75.5 295.5,-56.5 176.5,-56.5"/>
<text text-anchor="middle" x="236" y="-63.5" font-family="FreeSans" font-size="10.00">WaterPropsIAPWSphi.h</text>
</a>
</g>
</g>
<!-- Node11&#45;&gt;Node12 -->
<g id="edge13" class="edge"><title>Node11&#45;&gt;Node12</title>
<path fill="none" stroke="midnightblue" d="M55.0015,-168.464C58.7023,-154.569 67.9389,-127.097 86,-112 108.573,-93.1315 138.864,-82.174 166.315,-75.811"/>
<polygon fill="midnightblue" stroke="midnightblue" points="167.24,-79.1923 176.281,-73.6684 165.769,-72.3486 167.24,-79.1923"/>
</g>
<!-- Node12&#45;&gt;Node7 -->
<g id="edge14" class="edge"><title>Node12&#45;&gt;Node7</title>
<path fill="none" stroke="midnightblue" d="M254.856,-56.4435C274.266,-47.6356 304.73,-33.8116 326.965,-23.722"/>
<polygon fill="midnightblue" stroke="midnightblue" points="328.572,-26.836 336.232,-19.5164 325.68,-20.4615 328.572,-26.836"/>
</g>
<!-- Node13&#45;&gt;Node6 -->
<g id="edge16" class="edge"><title>Node13&#45;&gt;Node6</title>
<path fill="none" stroke="midnightblue" d="M228.828,-168.128C226.009,-154.257 222.971,-127.427 237,-112 263.223,-83.165 376.259,-72.4944 436.635,-68.8013"/>
<polygon fill="midnightblue" stroke="midnightblue" points="437.129,-72.2788 446.911,-68.2091 436.726,-65.2904 437.129,-72.2788"/>
</g>
<!-- Node14&#45;&gt;Node10 -->
<g id="edge18" class="edge"><title>Node14&#45;&gt;Node10</title>
<path fill="none" stroke="midnightblue" d="M181.839,-292.907C177.567,-282.774 171.956,-268.714 168,-256 161.895,-236.38 156.776,-213.382 153.576,-197.662"/>
<polygon fill="midnightblue" stroke="midnightblue" points="156.971,-196.786 151.6,-187.654 150.104,-198.143 156.971,-196.786"/>
</g>
<!-- Node16 -->
<g id="node16" class="node"><title>Node16</title>
<g id="a_node16"><a xlink:href="SpeciesThermo_8h.html" target="_top" xlink:title="Virtual base class for the calculation of multiple&#45;species thermodynamic reference&#45;state property man...">
<polygon fill="white" stroke="black" points="480,-168.5 480,-187.5 572,-187.5 572,-168.5 480,-168.5"/>
<text text-anchor="middle" x="526" y="-175.5" font-family="FreeSans" font-size="10.00">SpeciesThermo.h</text>
</a>
</g>
</g>
<!-- Node15&#45;&gt;Node16 -->
<g id="edge20" class="edge"><title>Node15&#45;&gt;Node16</title>
<path fill="none" stroke="midnightblue" d="M429.541,-224.933C450.514,-214.946 478.457,-201.64 498.867,-191.92"/>
<polygon fill="midnightblue" stroke="midnightblue" points="500.416,-195.059 507.94,-187.6 497.407,-188.739 500.416,-195.059"/>
</g>
<!-- Node17 -->
<g id="node17" class="node"><title>Node17</title>
<g id="a_node17"><a xlink:href="SpeciesThermoInterpType_8h.html" target="_top" xlink:title="Pure Virtual Base class for individual species reference state thermodynamic managers and text for th...">
<polygon fill="white" stroke="black" points="324.5,-168.5 324.5,-187.5 461.5,-187.5 461.5,-168.5 324.5,-168.5"/>
<text text-anchor="middle" x="393" y="-175.5" font-family="FreeSans" font-size="10.00">SpeciesThermoInterpType.h</text>
</a>
</g>
</g>
<!-- Node15&#45;&gt;Node17 -->
<g id="edge22" class="edge"><title>Node15&#45;&gt;Node17</title>
<path fill="none" stroke="midnightblue" d="M398.341,-224.781C397.397,-216.691 396.204,-206.462 395.185,-197.725"/>
<polygon fill="midnightblue" stroke="midnightblue" points="398.654,-197.258 394.019,-187.731 391.701,-198.069 398.654,-197.258"/>
</g>
<!-- Node16&#45;&gt;Node6 -->
<g id="edge21" class="edge"><title>Node16&#45;&gt;Node6</title>
<path fill="none" stroke="midnightblue" d="M496.119,-168.387C478.46,-161.587 457.549,-150.15 447,-132 437.883,-116.314 448.598,-97.099 459.301,-83.644"/>
<polygon fill="midnightblue" stroke="midnightblue" points="462.245,-85.5886 466.123,-75.729 456.943,-81.0182 462.245,-85.5886"/>
</g>
<!-- Node17&#45;&gt;Node6 -->
<g id="edge23" class="edge"><title>Node17&#45;&gt;Node6</title>
<path fill="none" stroke="midnightblue" d="M399.288,-168.097C408.214,-155.509 425.126,-131.83 440,-112 447.14,-102.48 455.294,-91.9764 461.934,-83.5127"/>
<polygon fill="midnightblue" stroke="midnightblue" points="464.762,-85.5793 468.2,-75.5579 459.263,-81.2479 464.762,-85.5793"/>
</g>
<!-- Node18 -->
<g id="node18" class="node"><title>Node18</title>
<g id="a_node18"><a xlink:href="speciesThermoTypes_8h.html" target="_top" xlink:title="Contains const definitions for types of species reference&#45;state thermodynamics managers (see Species ...">
<polygon fill="white" stroke="black" points="246.5,-112.5 246.5,-131.5 361.5,-131.5 361.5,-112.5 246.5,-112.5"/>
<text text-anchor="middle" x="304" y="-119.5" font-family="FreeSans" font-size="10.00">speciesThermoTypes.h</text>
</a>
</g>
</g>
<!-- Node17&#45;&gt;Node18 -->
<g id="edge24" class="edge"><title>Node17&#45;&gt;Node18</title>
<path fill="none" stroke="midnightblue" d="M378.701,-168.324C364.817,-159.9 343.508,-146.971 327.196,-137.074"/>
<polygon fill="midnightblue" stroke="midnightblue" points="328.629,-133.85 318.264,-131.655 324.998,-139.834 328.629,-133.85"/>
</g>
<!-- Node19&#45;&gt;Node3 -->
<g id="edge38" class="edge"><title>Node19&#45;&gt;Node3</title>
<path fill="none" stroke="midnightblue" d="M622.386,-292.679C606.603,-281.713 584.913,-266.645 569.027,-255.609"/>
<polygon fill="midnightblue" stroke="midnightblue" points="570.643,-252.469 560.433,-249.638 566.649,-258.218 570.643,-252.469"/>
</g>
<!-- Node20 -->
<g id="node20" class="node"><title>Node20</title>
<g id="a_node20"><a xlink:href="ThermoPhase_8h.html" target="_top" xlink:title="Header file for class ThermoPhase, the base class for phases with thermodynamic properties, and the text for the Module thermoprops (see Thermodynamic Properties and class ThermoPhase). ">
<polygon fill="white" stroke="black" points="618,-230.5 618,-249.5 702,-249.5 702,-230.5 618,-230.5"/>
<text text-anchor="middle" x="660" y="-237.5" font-family="FreeSans" font-size="10.00">ThermoPhase.h</text>
</a>
</g>
</g>
<!-- Node19&#45;&gt;Node20 -->
<g id="edge26" class="edge"><title>Node19&#45;&gt;Node20</title>
<path fill="none" stroke="midnightblue" d="M646.689,-292.679C649.182,-282.999 652.499,-270.123 655.198,-259.645"/>
<polygon fill="midnightblue" stroke="midnightblue" points="658.621,-260.385 657.726,-249.828 651.842,-258.639 658.621,-260.385"/>
</g>
<!-- Node20&#45;&gt;Node5 -->
<g id="edge37" class="edge"><title>Node20&#45;&gt;Node5</title>
<path fill="none" stroke="midnightblue" d="M681.913,-230.47C734.116,-210.15 865.982,-158.819 926.617,-135.216"/>
<polygon fill="midnightblue" stroke="midnightblue" points="928.006,-138.431 936.055,-131.542 925.467,-131.908 928.006,-138.431"/>
</g>
<!-- Node20&#45;&gt;Node16 -->
<g id="edge36" class="edge"><title>Node20&#45;&gt;Node16</title>
<path fill="none" stroke="midnightblue" d="M640.801,-230.403C618.213,-220.29 580.501,-203.404 554.499,-191.761"/>
<polygon fill="midnightblue" stroke="midnightblue" points="555.721,-188.473 545.163,-187.581 552.86,-194.862 555.721,-188.473"/>
</g>
<!-- Node21 -->
<g id="node21" class="node"><title>Node21</title>
<g id="a_node21"><a xlink:href="Phase_8h.html" target="_top" xlink:title="Header file for class Phase. ">
<polygon fill="white" stroke="black" points="648.5,-168.5 648.5,-187.5 699.5,-187.5 699.5,-168.5 648.5,-168.5"/>
<text text-anchor="middle" x="674" y="-175.5" font-family="FreeSans" font-size="10.00">Phase.h</text>
</a>
</g>
</g>
<!-- Node20&#45;&gt;Node21 -->
<g id="edge27" class="edge"><title>Node20&#45;&gt;Node21</title>
<path fill="none" stroke="midnightblue" d="M662.006,-230.403C664.002,-221.849 667.128,-208.45 669.689,-197.476"/>
<polygon fill="midnightblue" stroke="midnightblue" points="673.134,-198.114 671.998,-187.581 666.317,-196.524 673.134,-198.114"/>
</g>
<!-- Node22 -->
<g id="node22" class="node"><title>Node22</title>
<g id="a_node22"><a xlink:href="ctexceptions_8h.html" target="_top" xlink:title="Definitions for the classes that are thrown when Cantera experiences an error condition (also contain...">
<polygon fill="white" stroke="red" points="1068.5,-112.5 1068.5,-131.5 1205.5,-131.5 1205.5,-112.5 1068.5,-112.5"/>
<text text-anchor="middle" x="1137" y="-119.5" font-family="FreeSans" font-size="10.00">cantera/base/ctexceptions.h</text>
</a>
</g>
</g>
<!-- Node21&#45;&gt;Node22 -->
<g id="edge28" class="edge"><title>Node21&#45;&gt;Node22</title>
<path fill="none" stroke="midnightblue" d="M699.552,-174.02C766.953,-166.159 951.679,-144.614 1058.29,-132.18"/>
<polygon fill="midnightblue" stroke="midnightblue" points="1058.83,-135.641 1068.36,-131.006 1058.02,-128.688 1058.83,-135.641"/>
</g>
<!-- Node23 -->
<g id="node23" class="node"><title>Node23</title>
<g id="a_node23"><a xlink:href="Elements_8h.html" target="_top" xlink:title="Contains the LookupWtElements function and the definitions of element constraint types. ">
<polygon fill="white" stroke="black" points="608,-112.5 608,-131.5 740,-131.5 740,-112.5 608,-112.5"/>
<text text-anchor="middle" x="674" y="-119.5" font-family="FreeSans" font-size="10.00">cantera/thermo/Elements.h</text>
</a>
</g>
</g>
<!-- Node21&#45;&gt;Node23 -->
<g id="edge30" class="edge"><title>Node21&#45;&gt;Node23</title>
<path fill="none" stroke="midnightblue" d="M674,-168.083C674,-161.006 674,-150.861 674,-141.986"/>
<polygon fill="midnightblue" stroke="midnightblue" points="677.5,-141.751 674,-131.751 670.5,-141.751 677.5,-141.751"/>
</g>
<!-- Node24 -->
<g id="node24" class="node"><title>Node24</title>
<g id="a_node24"><a xlink:href="Species_8h.html" target="_top" xlink:title="Declaration for class Cantera::Species. ">
<polygon fill="white" stroke="black" points="758.5,-112.5 758.5,-131.5 885.5,-131.5 885.5,-112.5 758.5,-112.5"/>
<text text-anchor="middle" x="822" y="-119.5" font-family="FreeSans" font-size="10.00">cantera/thermo/Species.h</text>
</a>
</g>
</g>
<!-- Node21&#45;&gt;Node24 -->
<g id="edge32" class="edge"><title>Node21&#45;&gt;Node24</title>
<path fill="none" stroke="midnightblue" d="M697.451,-168.444C722.133,-159.438 761.185,-145.189 788.977,-135.049"/>
<polygon fill="midnightblue" stroke="midnightblue" points="790.464,-138.232 798.659,-131.516 788.065,-131.656 790.464,-138.232"/>
</g>
<!-- Node25 -->
<g id="node25" class="node"><title>Node25</title>
<g id="a_node25"><a xlink:href="ValueCache_8h.html" target="_top" xlink:title="cantera/base/ValueCache.h">
<polygon fill="white" stroke="red" points="456,-112.5 456,-131.5 590,-131.5 590,-112.5 456,-112.5"/>
<text text-anchor="middle" x="523" y="-119.5" font-family="FreeSans" font-size="10.00">cantera/base/ValueCache.h</text>
</a>
</g>
</g>
<!-- Node21&#45;&gt;Node25 -->
<g id="edge34" class="edge"><title>Node21&#45;&gt;Node25</title>
<path fill="none" stroke="midnightblue" d="M650.074,-168.444C624.781,-159.399 584.698,-145.064 556.32,-134.916"/>
<polygon fill="midnightblue" stroke="midnightblue" points="557.409,-131.588 546.814,-131.516 555.052,-138.179 557.409,-131.588"/>
</g>
<!-- Node22&#45;&gt;Node8 -->
<g id="edge29" class="edge"><title>Node22&#45;&gt;Node8</title>
<path fill="none" stroke="midnightblue" d="M1122.54,-112.324C1108.5,-103.9 1086.95,-90.9709 1070.46,-81.0741"/>
<polygon fill="midnightblue" stroke="midnightblue" points="1071.8,-77.7983 1061.42,-75.6545 1068.2,-83.8007 1071.8,-77.7983"/>
</g>
<!-- Node23&#45;&gt;Node6 -->
<g id="edge31" class="edge"><title>Node23&#45;&gt;Node6</title>
<path fill="none" stroke="midnightblue" d="M642.468,-112.444C607.406,-102.929 550.776,-87.5622 513.22,-77.3713"/>
<polygon fill="midnightblue" stroke="midnightblue" points="513.735,-73.8844 503.167,-74.6433 511.901,-80.6401 513.735,-73.8844"/>
</g>
<!-- Node24&#45;&gt;Node6 -->
<g id="edge33" class="edge"><title>Node24&#45;&gt;Node6</title>
<path fill="none" stroke="midnightblue" d="M767.017,-112.444C696.201,-101.423 574.927,-82.5507 513.329,-72.9647"/>
<polygon fill="midnightblue" stroke="midnightblue" points="513.678,-69.477 503.259,-71.3976 512.601,-76.3937 513.678,-69.477"/>
</g>
<!-- Node25&#45;&gt;Node6 -->
<g id="edge35" class="edge"><title>Node25&#45;&gt;Node6</title>
<path fill="none" stroke="midnightblue" d="M515.074,-112.083C508.154,-104.298 497.935,-92.8015 489.548,-83.3665"/>
<polygon fill="midnightblue" stroke="midnightblue" points="492.038,-80.8999 482.779,-75.7511 486.806,-85.5505 492.038,-80.8999"/>
</g>
<!-- Node26&#45;&gt;Node6 -->
<g id="edge40" class="edge"><title>Node26&#45;&gt;Node6</title>
<path fill="none" stroke="midnightblue" d="M1041.88,-230.288C1046.32,-207.107 1054.7,-143.533 1021,-112 984.05,-77.421 631.169,-69.2351 513.197,-67.4575"/>
<polygon fill="midnightblue" stroke="midnightblue" points="513.221,-63.9576 503.172,-67.3135 513.121,-70.9568 513.221,-63.9576"/>
</g>
<!-- Node27 -->
<g id="node27" class="node"><title>Node27</title>
<g id="a_node27"><a xlink:href="xml_8h.html" target="_top" xlink:title="Classes providing support for XML data files. ">
<polygon fill="white" stroke="black" points="1068.5,-168.5 1068.5,-187.5 1107.5,-187.5 1107.5,-168.5 1068.5,-168.5"/>
<text text-anchor="middle" x="1088" y="-175.5" font-family="FreeSans" font-size="10.00">xml.h</text>
</a>
</g>
</g>
<!-- Node26&#45;&gt;Node27 -->
<g id="edge41" class="edge"><title>Node26&#45;&gt;Node27</title>
<path fill="none" stroke="midnightblue" d="M1046.88,-230.403C1054.15,-221.314 1065.8,-206.756 1074.84,-195.449"/>
<polygon fill="midnightblue" stroke="midnightblue" points="1077.62,-197.576 1081.14,-187.581 1072.16,-193.203 1077.62,-197.576"/>
</g>
<!-- Node27&#45;&gt;Node5 -->
<g id="edge43" class="edge"><title>Node27&#45;&gt;Node5</title>
<path fill="none" stroke="midnightblue" d="M1068.26,-168.799C1046.94,-159.943 1012.72,-145.73 988.057,-135.485"/>
<polygon fill="midnightblue" stroke="midnightblue" points="989.37,-132.241 978.792,-131.637 986.684,-138.705 989.37,-132.241"/>
</g>
<!-- Node27&#45;&gt;Node22 -->
<g id="edge42" class="edge"><title>Node27&#45;&gt;Node22</title>
<path fill="none" stroke="midnightblue" d="M1096.09,-168.083C1103.16,-160.298 1113.59,-148.801 1122.15,-139.367"/>
<polygon fill="midnightblue" stroke="midnightblue" points="1124.93,-141.509 1129.06,-131.751 1119.75,-136.805 1124.93,-141.509"/>
</g>
</g>
</svg>
