<?xml version="1.0" encoding="UTF-8" standalone="no"?>
<!DOCTYPE svg PUBLIC "-//W3C//DTD SVG 1.1//EN"
 "http://www.w3.org/Graphics/SVG/1.1/DTD/svg11.dtd">
<!-- Generated by graphviz version 2.26.3 (20100126.1600)
 -->
<!-- Title: VPSSMgr_Water_ConstVol.cpp Pages: 1 -->
<svg width="1020pt" height="390pt"
 viewBox="0.00 0.00 1020.00 390.00" xmlns="http://www.w3.org/2000/svg" xmlns:xlink="http://www.w3.org/1999/xlink">
<g id="graph1" class="graph" transform="scale(1 1) rotate(0) translate(4 386)">
<title>VPSSMgr_Water_ConstVol.cpp</title>
<polygon fill="white" stroke="white" points="-4,5 -4,-386 1017,-386 1017,5 -4,5"/>
<!-- Node1 -->
<g id="node1" class="node"><title>Node1</title>
<polygon fill="#bfbfbf" stroke="black" points="191,-361 191,-381 343,-381 343,-361 191,-361"/>
<text text-anchor="middle" x="267" y="-368" font-family="FreeSans" font-size="10.00">VPSSMgr_Water_ConstVol.cpp</text>
</g>
<!-- Node2 -->
<g id="node3" class="node"><title>Node2</title>
<a xlink:href="VPSSMgr__Water__ConstVol_8h.html" target="_top" xlink:title="Declaration file for a derived class that handles the calculation of standard state thermo properties...">
<polygon fill="white" stroke="black" points="0,-291 0,-323 128,-323 128,-291 0,-291"/>
<text text-anchor="start" x="8" y="-310" font-family="FreeSans" font-size="10.00">cantera/thermo/VPSSMgr</text>
<text text-anchor="middle" x="64" y="-298" font-family="FreeSans" font-size="10.00">_Water_ConstVol.h</text>
</a>
</g>
<!-- Node1&#45;&gt;Node2 -->
<g id="edge2" class="edge"><title>Node1&#45;&gt;Node2</title>
<path fill="none" stroke="midnightblue" d="M234.834,-360.859C205.403,-351.58 161.075,-337.605 124.949,-326.215"/>
<polygon fill="midnightblue" stroke="midnightblue" points="125.586,-322.746 114.996,-323.078 123.481,-329.423 125.586,-322.746"/>
</g>
<!-- Node13 -->
<g id="node26" class="node"><title>Node13</title>
<a xlink:href="PDSS__Water_8h.html" target="_top" xlink:title="Implementation of a pressure dependent standard state virtual function for a Pure Water Phase (see Sp...">
<polygon fill="white" stroke="black" points="146,-291 146,-323 258,-323 258,-291 146,-291"/>
<text text-anchor="start" x="154" y="-310" font-family="FreeSans" font-size="10.00">cantera/thermo/PDSS</text>
<text text-anchor="middle" x="202" y="-298" font-family="FreeSans" font-size="10.00">_Water.h</text>
</a>
</g>
<!-- Node1&#45;&gt;Node13 -->
<g id="edge26" class="edge"><title>Node1&#45;&gt;Node13</title>
<path fill="none" stroke="midnightblue" d="M256.557,-360.717C248.24,-352.528 236.275,-340.747 225.667,-330.303"/>
<polygon fill="midnightblue" stroke="midnightblue" points="227.837,-327.527 218.256,-323.005 222.926,-332.515 227.837,-327.527"/>
</g>
<!-- Node19 -->
<g id="node43" class="node"><title>Node19</title>
<a xlink:href="PDSS__ConstVol_8h.html" target="_top" xlink:title="Declarations for the class PDSS_ConstVol (pressure dependent standard state) which handles calculatio...">
<polygon fill="white" stroke="black" points="276,-291 276,-323 388,-323 388,-291 276,-291"/>
<text text-anchor="start" x="284" y="-310" font-family="FreeSans" font-size="10.00">cantera/thermo/PDSS</text>
<text text-anchor="middle" x="332" y="-298" font-family="FreeSans" font-size="10.00">_ConstVol.h</text>
</a>
</g>
<!-- Node1&#45;&gt;Node19 -->
<g id="edge48" class="edge"><title>Node1&#45;&gt;Node19</title>
<path fill="none" stroke="midnightblue" d="M277.443,-360.717C285.76,-352.528 297.725,-340.747 308.333,-330.303"/>
<polygon fill="midnightblue" stroke="midnightblue" points="311.074,-332.515 315.744,-323.005 306.163,-327.527 311.074,-332.515"/>
</g>
<!-- Node20 -->
<g id="node46" class="node"><title>Node20</title>
<a xlink:href="GeneralSpeciesThermo_8h.html" target="_top" xlink:title="Headers for a completely general species thermodynamic property manager for a phase (see Managers for...">
<polygon fill="white" stroke="black" points="512.5,-291 512.5,-323 665.5,-323 665.5,-291 512.5,-291"/>
<text text-anchor="start" x="520.5" y="-310" font-family="FreeSans" font-size="10.00">cantera/thermo/GeneralSpecies</text>
<text text-anchor="middle" x="589" y="-298" font-family="FreeSans" font-size="10.00">Thermo.h</text>
</a>
</g>
<!-- Node1&#45;&gt;Node20 -->
<g id="edge52" class="edge"><title>Node1&#45;&gt;Node20</title>
<path fill="none" stroke="midnightblue" d="M317.667,-360.93C367.057,-351.113 443.138,-335.991 502.183,-324.256"/>
<polygon fill="midnightblue" stroke="midnightblue" points="503.125,-327.637 512.251,-322.254 501.76,-320.771 503.125,-327.637"/>
</g>
<!-- Node3 -->
<g id="node5" class="node"><title>Node3</title>
<a xlink:href="VPSSMgr_8h.html" target="_top" xlink:title="Declaration file for a virtual base class that manages the calculation of standard state properties f...">
<polygon fill="white" stroke="black" points="57.5,-175 57.5,-195 124.5,-195 124.5,-175 57.5,-175"/>
<text text-anchor="middle" x="91" y="-182" font-family="FreeSans" font-size="10.00">VPSSMgr.h</text>
</a>
</g>
<!-- Node2&#45;&gt;Node3 -->
<g id="edge4" class="edge"><title>Node2&#45;&gt;Node3</title>
<path fill="none" stroke="midnightblue" d="M67.5854,-290.799C72.4866,-268.653 81.2735,-228.949 86.5774,-204.983"/>
<polygon fill="midnightblue" stroke="midnightblue" points="89.9992,-205.719 88.7428,-195.199 83.1646,-204.207 89.9992,-205.719"/>
</g>
<!-- Node4 -->
<g id="node7" class="node"><title>Node4</title>
<a xlink:href="ct__defs_8h.html" target="_top" xlink:title="This file contains definitions of terms that are used in internal routines and are unlikely to need m...">
<polygon fill="white" stroke="black" points="515,-59 515,-79 629,-79 629,-59 515,-59"/>
<text text-anchor="middle" x="572" y="-66" font-family="FreeSans" font-size="10.00">cantera/base/ct_defs.h</text>
</a>
</g>
<!-- Node3&#45;&gt;Node4 -->
<g id="edge6" class="edge"><title>Node3&#45;&gt;Node4</title>
<path fill="none" stroke="midnightblue" d="M90.5176,-174.948C90.3873,-159.63 92.6347,-130.678 110,-116 139.503,-91.0619 383.795,-77.1205 504.719,-71.6882"/>
<polygon fill="midnightblue" stroke="midnightblue" points="505.134,-75.1733 514.969,-71.2348 504.824,-68.1802 505.134,-75.1733"/>
</g>
<!-- Node11 -->
<g id="node21" class="node"><title>Node11</title>
<a xlink:href="mix__defs_8h.html" target="_top" xlink:title="mix_defs.h">
<polygon fill="white" stroke="black" points="119,-117 119,-137 181,-137 181,-117 119,-117"/>
<text text-anchor="middle" x="150" y="-124" font-family="FreeSans" font-size="10.00">mix_defs.h</text>
</a>
</g>
<!-- Node3&#45;&gt;Node11 -->
<g id="edge20" class="edge"><title>Node3&#45;&gt;Node11</title>
<path fill="none" stroke="midnightblue" d="M101.277,-174.897C109.801,-166.517 122.118,-154.409 132.235,-144.464"/>
<polygon fill="midnightblue" stroke="midnightblue" points="134.766,-146.884 139.443,-137.378 129.859,-141.892 134.766,-146.884"/>
</g>
<!-- Node12 -->
<g id="node23" class="node"><title>Node12</title>
<a xlink:href="global_8h.html" target="_top" xlink:title="This file contains definitions for utility functions and text for modules, inputfiles, logs, textlogs, (see Input File Handling, Diagnostic Output, and Writing messages to the screen). ">
<polygon fill="white" stroke="black" points="351,-117 351,-137 459,-137 459,-117 351,-117"/>
<text text-anchor="middle" x="405" y="-124" font-family="FreeSans" font-size="10.00">cantera/base/global.h</text>
</a>
</g>
<!-- Node3&#45;&gt;Node12 -->
<g id="edge22" class="edge"><title>Node3&#45;&gt;Node12</title>
<path fill="none" stroke="midnightblue" d="M124.604,-178.793C176.039,-169.292 275.208,-150.974 340.753,-138.867"/>
<polygon fill="midnightblue" stroke="midnightblue" points="341.773,-142.238 350.971,-136.98 340.502,-135.355 341.773,-142.238"/>
</g>
<!-- Node5 -->
<g id="node9" class="node"><title>Node5</title>
<a xlink:href="config_8h_source.html" target="_top" xlink:title="config.h">
<polygon fill="white" stroke="black" points="607,-1 607,-21 657,-21 657,-1 607,-1"/>
<text text-anchor="middle" x="632" y="-8" font-family="FreeSans" font-size="10.00">config.h</text>
</a>
</g>
<!-- Node4&#45;&gt;Node5 -->
<g id="edge8" class="edge"><title>Node4&#45;&gt;Node5</title>
<path fill="none" stroke="midnightblue" d="M582.451,-58.8972C591.12,-50.5175 603.646,-38.4093 613.934,-28.4638"/>
<polygon fill="midnightblue" stroke="midnightblue" points="616.507,-30.8443 621.265,-21.3776 611.642,-25.8114 616.507,-30.8443"/>
</g>
<!-- Node6 -->
<g id="node11" class="node"><title>Node6</title>
<polygon fill="white" stroke="#bfbfbf" points="675,-1 675,-21 719,-21 719,-1 675,-1"/>
<text text-anchor="middle" x="697" y="-8" font-family="FreeSans" font-size="10.00">cmath</text>
</g>
<!-- Node4&#45;&gt;Node6 -->
<g id="edge10" class="edge"><title>Node4&#45;&gt;Node6</title>
<path fill="none" stroke="midnightblue" d="M593.773,-58.8972C613.726,-49.6391 643.487,-35.83 665.934,-25.4145"/>
<polygon fill="midnightblue" stroke="midnightblue" points="667.459,-28.5656 675.057,-21.1817 664.513,-22.2158 667.459,-28.5656"/>
</g>
<!-- Node7 -->
<g id="node13" class="node"><title>Node7</title>
<polygon fill="white" stroke="#bfbfbf" points="433,-1 433,-21 477,-21 477,-1 433,-1"/>
<text text-anchor="middle" x="455" y="-8" font-family="FreeSans" font-size="10.00">cstdlib</text>
</g>
<!-- Node4&#45;&gt;Node7 -->
<g id="edge12" class="edge"><title>Node4&#45;&gt;Node7</title>
<path fill="none" stroke="midnightblue" d="M551.62,-58.8972C533.111,-49.7218 505.585,-36.0762 484.642,-25.6943"/>
<polygon fill="midnightblue" stroke="midnightblue" points="486.053,-22.4874 475.539,-21.1817 482.944,-28.759 486.053,-22.4874"/>
</g>
<!-- Node8 -->
<g id="node15" class="node"><title>Node8</title>
<polygon fill="white" stroke="#bfbfbf" points="494.5,-1 494.5,-21 537.5,-21 537.5,-1 494.5,-1"/>
<text text-anchor="middle" x="516" y="-8" font-family="FreeSans" font-size="10.00">vector</text>
</g>
<!-- Node4&#45;&gt;Node8 -->
<g id="edge14" class="edge"><title>Node4&#45;&gt;Node8</title>
<path fill="none" stroke="midnightblue" d="M562.246,-58.8972C554.234,-50.5996 542.693,-38.6463 533.145,-28.7569"/>
<polygon fill="midnightblue" stroke="midnightblue" points="535.484,-26.1406 526.02,-21.3776 530.448,-31.0027 535.484,-26.1406"/>
</g>
<!-- Node9 -->
<g id="node17" class="node"><title>Node9</title>
<polygon fill="white" stroke="#bfbfbf" points="554.5,-1 554.5,-21 589.5,-21 589.5,-1 554.5,-1"/>
<text text-anchor="middle" x="572" y="-8" font-family="FreeSans" font-size="10.00">map</text>
</g>
<!-- Node4&#45;&gt;Node9 -->
<g id="edge16" class="edge"><title>Node4&#45;&gt;Node9</title>
<path fill="none" stroke="midnightblue" d="M572,-58.8972C572,-51.339 572,-40.7476 572,-31.4458"/>
<polygon fill="midnightblue" stroke="midnightblue" points="575.5,-31.3776 572,-21.3776 568.5,-31.3776 575.5,-31.3776"/>
</g>
<!-- Node10 -->
<g id="node19" class="node"><title>Node10</title>
<polygon fill="white" stroke="#bfbfbf" points="875,-1 875,-21 915,-21 915,-1 875,-1"/>
<text text-anchor="middle" x="895" y="-8" font-family="FreeSans" font-size="10.00">string</text>
</g>
<!-- Node4&#45;&gt;Node10 -->
<g id="edge18" class="edge"><title>Node4&#45;&gt;Node10</title>
<path fill="none" stroke="midnightblue" d="M627.894,-58.9634C696.619,-46.6225 810.78,-26.123 864.841,-16.4155"/>
<polygon fill="midnightblue" stroke="midnightblue" points="865.597,-19.8359 874.821,-14.6235 864.359,-12.9461 865.597,-19.8359"/>
</g>
<!-- Node12&#45;&gt;Node4 -->
<g id="edge24" class="edge"><title>Node12&#45;&gt;Node4</title>
<path fill="none" stroke="midnightblue" d="M434.089,-116.897C461.544,-107.362 502.899,-92.9992 533.162,-82.4885"/>
<polygon fill="midnightblue" stroke="midnightblue" points="534.666,-85.6713 542.964,-79.0842 532.37,-79.0588 534.666,-85.6713"/>
</g>
<!-- Node13&#45;&gt;Node4 -->
<g id="edge28" class="edge"><title>Node13&#45;&gt;Node4</title>
<path fill="none" stroke="midnightblue" d="M162.2,-290.991C125.215,-273.698 72.4245,-242.257 49,-196 30.7637,-159.988 56.874,-135.89 92,-116 127.081,-96.1362 381.03,-79.5599 504.69,-72.5665"/>
<polygon fill="midnightblue" stroke="midnightblue" points="505.014,-76.054 514.802,-71.9996 504.622,-69.0649 505.014,-76.054"/>
</g>
<!-- Node14 -->
<g id="node29" class="node"><title>Node14</title>
<a xlink:href="PDSS_8h.html" target="_top" xlink:title="Declarations for the virtual base class PDSS (pressure dependent standard state) which handles calcul...">
<polygon fill="white" stroke="black" points="266.5,-233 266.5,-253 317.5,-253 317.5,-233 266.5,-233"/>
<text text-anchor="middle" x="292" y="-240" font-family="FreeSans" font-size="10.00">PDSS.h</text>
</a>
</g>
<!-- Node13&#45;&gt;Node14 -->
<g id="edge30" class="edge"><title>Node13&#45;&gt;Node14</title>
<path fill="none" stroke="midnightblue" d="M224.711,-290.85C238.38,-281.13 255.72,-268.799 269.375,-259.089"/>
<polygon fill="midnightblue" stroke="midnightblue" points="271.618,-261.789 277.739,-253.141 267.561,-256.084 271.618,-261.789"/>
</g>
<!-- Node15 -->
<g id="node33" class="node"><title>Node15</title>
<a xlink:href="VPStandardStateTP_8h.html" target="_top" xlink:title="Header file for a derived class of ThermoPhase that handles variable pressure standard state methods ...">
<polygon fill="white" stroke="black" points="137,-233 137,-253 249,-253 249,-233 137,-233"/>
<text text-anchor="middle" x="193" y="-240" font-family="FreeSans" font-size="10.00">VPStandardStateTP.h</text>
</a>
</g>
<!-- Node13&#45;&gt;Node15 -->
<g id="edge36" class="edge"><title>Node13&#45;&gt;Node15</title>
<path fill="none" stroke="midnightblue" d="M199.729,-290.85C198.544,-282.426 197.084,-272.041 195.827,-263.1"/>
<polygon fill="midnightblue" stroke="midnightblue" points="199.285,-262.556 194.426,-253.141 192.353,-263.531 199.285,-262.556"/>
</g>
<!-- Node14&#45;&gt;Node4 -->
<g id="edge32" class="edge"><title>Node14&#45;&gt;Node4</title>
<path fill="none" stroke="midnightblue" d="M292.806,-232.902C295.309,-208.668 305.167,-146.939 342,-116 366.301,-95.5875 446.158,-82.6165 504.981,-75.5875"/>
<polygon fill="midnightblue" stroke="midnightblue" points="505.435,-79.0584 514.964,-74.4269 504.627,-72.1052 505.435,-79.0584"/>
</g>
<!-- Node14&#45;&gt;Node11 -->
<g id="edge34" class="edge"><title>Node14&#45;&gt;Node11</title>
<path fill="none" stroke="midnightblue" d="M266.481,-234.424C233.029,-222.98 177.782,-203.311 171,-196 158.665,-182.703 153.566,-162.364 151.463,-147.209"/>
<polygon fill="midnightblue" stroke="midnightblue" points="154.943,-146.836 150.401,-137.264 147.983,-147.579 154.943,-146.836"/>
</g>
<!-- Node15&#45;&gt;Node3 -->
<g id="edge46" class="edge"><title>Node15&#45;&gt;Node3</title>
<path fill="none" stroke="midnightblue" d="M175.233,-232.897C159.388,-223.887 135.962,-210.567 117.834,-200.259"/>
<polygon fill="midnightblue" stroke="midnightblue" points="119.329,-197.082 108.906,-195.182 115.869,-203.167 119.329,-197.082"/>
</g>
<!-- Node16 -->
<g id="node35" class="node"><title>Node16</title>
<a xlink:href="ThermoPhase_8h.html" target="_top" xlink:title="Header file for class ThermoPhase, the base class for phases with thermodynamic properties, and the text for the Module thermoprops (see Thermodynamic Properties and class ThermoPhase). ">
<polygon fill="white" stroke="black" points="180,-175 180,-195 264,-195 264,-175 180,-175"/>
<text text-anchor="middle" x="222" y="-182" font-family="FreeSans" font-size="10.00">ThermoPhase.h</text>
</a>
</g>
<!-- Node15&#45;&gt;Node16 -->
<g id="edge38" class="edge"><title>Node15&#45;&gt;Node16</title>
<path fill="none" stroke="midnightblue" d="M198.051,-232.897C201.954,-225.093 207.473,-214.054 212.23,-204.54"/>
<polygon fill="midnightblue" stroke="midnightblue" points="215.47,-205.887 216.811,-195.378 209.209,-202.757 215.47,-205.887"/>
</g>
<!-- Node17 -->
<g id="node37" class="node"><title>Node17</title>
<a xlink:href="Phase_8h.html" target="_top" xlink:title="Header file for class Phase. ">
<polygon fill="white" stroke="red" points="198.5,-117 198.5,-137 249.5,-137 249.5,-117 198.5,-117"/>
<text text-anchor="middle" x="224" y="-124" font-family="FreeSans" font-size="10.00">Phase.h</text>
</a>
</g>
<!-- Node16&#45;&gt;Node17 -->
<g id="edge40" class="edge"><title>Node16&#45;&gt;Node17</title>
<path fill="none" stroke="midnightblue" d="M222.348,-174.897C222.609,-167.339 222.974,-156.748 223.295,-147.446"/>
<polygon fill="midnightblue" stroke="midnightblue" points="226.795,-147.492 223.642,-137.378 219.8,-147.251 226.795,-147.492"/>
</g>
<!-- Node18 -->
<g id="node39" class="node"><title>Node18</title>
<a xlink:href="SpeciesThermo_8h.html" target="_top" xlink:title="Virtual base class for the calculation of multiple&#45;species thermodynamic reference&#45;state property man...">
<polygon fill="white" stroke="black" points="685,-117 685,-137 777,-137 777,-117 685,-117"/>
<text text-anchor="middle" x="731" y="-124" font-family="FreeSans" font-size="10.00">SpeciesThermo.h</text>
</a>
</g>
<!-- Node16&#45;&gt;Node18 -->
<g id="edge42" class="edge"><title>Node16&#45;&gt;Node18</title>
<path fill="none" stroke="midnightblue" d="M264.229,-180.303C339.4,-171.925 501.36,-153.8 638,-138 649.861,-136.629 662.57,-135.139 674.664,-133.711"/>
<polygon fill="midnightblue" stroke="midnightblue" points="675.127,-137.181 684.647,-132.531 674.305,-130.229 675.127,-137.181"/>
</g>
<!-- Node18&#45;&gt;Node4 -->
<g id="edge44" class="edge"><title>Node18&#45;&gt;Node4</title>
<path fill="none" stroke="midnightblue" d="M703.304,-116.897C677.278,-107.403 638.133,-93.124 609.353,-82.6258"/>
<polygon fill="midnightblue" stroke="midnightblue" points="610.239,-79.2231 599.645,-79.0842 607.84,-85.7992 610.239,-79.2231"/>
</g>
<!-- Node19&#45;&gt;Node14 -->
<g id="edge50" class="edge"><title>Node19&#45;&gt;Node14</title>
<path fill="none" stroke="midnightblue" d="M321.906,-290.85C316.352,-281.963 309.433,-270.893 303.65,-261.64"/>
<polygon fill="midnightblue" stroke="midnightblue" points="306.606,-259.766 298.338,-253.141 300.67,-263.476 306.606,-259.766"/>
</g>
<!-- Node20&#45;&gt;Node4 -->
<g id="edge54" class="edge"><title>Node20&#45;&gt;Node4</title>
<path fill="none" stroke="midnightblue" d="M617.939,-290.973C631.619,-281.902 646.909,-269.3 656,-254 674.304,-223.195 673.99,-208.93 666,-174 659.617,-146.096 656.459,-137.877 638,-116 627.415,-103.456 612.769,-92.5828 599.962,-84.4635"/>
<polygon fill="midnightblue" stroke="midnightblue" points="601.411,-81.2488 591.046,-79.0536 597.779,-87.2333 601.411,-81.2488"/>
</g>
<!-- Node21 -->
<g id="node49" class="node"><title>Node21</title>
<a xlink:href="SpeciesThermoMgr_8h.html" target="_top" xlink:title="This file contains descriptions of templated subclasses of the virtual base class, SpeciesThermo, which includes SpeciesThermoDuo (see Managers for Calculating Reference&#45;State Thermodynamics and class SpeciesThermoDuo) ">
<polygon fill="white" stroke="black" points="742,-175 742,-195 850,-195 850,-175 742,-175"/>
<text text-anchor="middle" x="796" y="-182" font-family="FreeSans" font-size="10.00">SpeciesThermoMgr.h</text>
</a>
</g>
<!-- Node20&#45;&gt;Node21 -->
<g id="edge56" class="edge"><title>Node20&#45;&gt;Node21</title>
<path fill="none" stroke="midnightblue" d="M640.471,-290.938C665.484,-281.967 695.38,-269.463 720,-254 742.92,-239.605 765.394,-218.004 779.884,-202.815"/>
<polygon fill="midnightblue" stroke="midnightblue" points="782.8,-204.82 787.065,-195.122 777.683,-200.044 782.8,-204.82"/>
</g>
<!-- Node24 -->
<g id="node60" class="node"><title>Node24</title>
<a xlink:href="NasaPoly1_8h.html" target="_top" xlink:title="Header for a single&#45;species standard state object derived from SpeciesThermoInterpType based on the N...">
<polygon fill="white" stroke="black" points="362,-233 362,-253 432,-253 432,-233 362,-233"/>
<text text-anchor="middle" x="397" y="-240" font-family="FreeSans" font-size="10.00">NasaPoly1.h</text>
</a>
</g>
<!-- Node20&#45;&gt;Node24 -->
<g id="edge72" class="edge"><title>Node20&#45;&gt;Node24</title>
<path fill="none" stroke="midnightblue" d="M540.55,-290.85C508.512,-280.171 467.021,-266.34 436.891,-256.297"/>
<polygon fill="midnightblue" stroke="midnightblue" points="437.732,-252.888 427.139,-253.046 435.519,-259.529 437.732,-252.888"/>
</g>
<!-- Node26 -->
<g id="node66" class="node"><title>Node26</title>
<a xlink:href="speciesThermoTypes_8h.html" target="_top" xlink:title="Contains const definitions for types of species reference&#45;state thermodynamics managers (see Species ...">
<polygon fill="white" stroke="black" points="514.5,-117 514.5,-137 629.5,-137 629.5,-117 514.5,-117"/>
<text text-anchor="middle" x="572" y="-124" font-family="FreeSans" font-size="10.00">speciesThermoTypes.h</text>
</a>
</g>
<!-- Node20&#45;&gt;Node26 -->
<g id="edge98" class="edge"><title>Node20&#45;&gt;Node26</title>
<path fill="none" stroke="midnightblue" d="M606.388,-290.585C631.278,-265.018 671.686,-214.426 649,-174 640.826,-159.435 626.101,-148.849 611.701,-141.454"/>
<polygon fill="midnightblue" stroke="midnightblue" points="612.894,-138.147 602.356,-137.046 609.907,-144.478 612.894,-138.147"/>
</g>
<!-- Node28 -->
<g id="node70" class="node"><title>Node28</title>
<a xlink:href="Nasa9Poly1_8h.html" target="_top" xlink:title="Header for a single&#45;species standard state object derived from SpeciesThermoInterpType based on the N...">
<polygon fill="white" stroke="black" points="463.5,-233 463.5,-253 538.5,-253 538.5,-233 463.5,-233"/>
<text text-anchor="middle" x="501" y="-240" font-family="FreeSans" font-size="10.00">Nasa9Poly1.h</text>
</a>
</g>
<!-- Node20&#45;&gt;Node28 -->
<g id="edge84" class="edge"><title>Node20&#45;&gt;Node28</title>
<path fill="none" stroke="midnightblue" d="M566.794,-290.85C553.428,-281.13 536.473,-268.799 523.123,-259.089"/>
<polygon fill="midnightblue" stroke="midnightblue" points="525.09,-256.192 514.944,-253.141 520.973,-261.853 525.09,-256.192"/>
</g>
<!-- Node29 -->
<g id="node74" class="node"><title>Node29</title>
<a xlink:href="StatMech_8h.html" target="_top" xlink:title="Header for a single&#45;species standard state object derived from. ">
<polygon fill="white" stroke="black" points="556,-233 556,-253 622,-253 622,-233 556,-233"/>
<text text-anchor="middle" x="589" y="-240" font-family="FreeSans" font-size="10.00">StatMech.h</text>
</a>
</g>
<!-- Node20&#45;&gt;Node29 -->
<g id="edge90" class="edge"><title>Node20&#45;&gt;Node29</title>
<path fill="none" stroke="midnightblue" d="M589,-290.85C589,-282.518 589,-272.269 589,-263.396"/>
<polygon fill="midnightblue" stroke="midnightblue" points="592.5,-263.141 589,-253.141 585.5,-263.141 592.5,-263.141"/>
</g>
<!-- Node21&#45;&gt;Node4 -->
<g id="edge58" class="edge"><title>Node21&#45;&gt;Node4</title>
<path fill="none" stroke="midnightblue" d="M797.803,-174.585C799.755,-159.585 800.84,-131.953 786,-116 766.275,-94.7951 694.301,-82.1874 639.214,-75.4517"/>
<polygon fill="midnightblue" stroke="midnightblue" points="639.483,-71.9592 629.141,-74.2616 638.661,-78.9109 639.483,-71.9592"/>
</g>
<!-- Node21&#45;&gt;Node18 -->
<g id="edge70" class="edge"><title>Node21&#45;&gt;Node18</title>
<path fill="none" stroke="midnightblue" d="M784.678,-174.897C775.195,-166.435 761.451,-154.172 750.244,-144.172"/>
<polygon fill="midnightblue" stroke="midnightblue" points="752.422,-141.424 742.63,-137.378 747.761,-146.647 752.422,-141.424"/>
</g>
<!-- Node22 -->
<g id="node52" class="node"><title>Node22</title>
<a xlink:href="ctexceptions_8h.html" target="_top" xlink:title="Definitions for the classes that are thrown when Cantera experiences an error condition (also contain...">
<polygon fill="white" stroke="red" points="934,-59 934,-79 1012,-79 1012,-59 934,-59"/>
<text text-anchor="middle" x="973" y="-66" font-family="FreeSans" font-size="10.00">ctexceptions.h</text>
</a>
</g>
<!-- Node21&#45;&gt;Node22 -->
<g id="edge60" class="edge"><title>Node21&#45;&gt;Node22</title>
<path fill="none" stroke="midnightblue" d="M850.375,-176.759C894.247,-168.931 951.038,-155.725 966,-138 977.25,-124.673 978.01,-104.338 976.55,-89.1918"/>
<polygon fill="midnightblue" stroke="midnightblue" points="980.015,-88.6978 975.212,-79.2542 973.077,-89.6318 980.015,-88.6978"/>
</g>
<!-- Node23 -->
<g id="node55" class="node"><title>Node23</title>
<a xlink:href="stringUtils_8h.html" target="_top" xlink:title="Contains declarations for string manipulation functions within Cantera. ">
<polygon fill="white" stroke="black" points="832.5,-117 832.5,-137 957.5,-137 957.5,-117 832.5,-117"/>
<text text-anchor="middle" x="895" y="-124" font-family="FreeSans" font-size="10.00">cantera/base/stringUtils.h</text>
</a>
</g>
<!-- Node21&#45;&gt;Node23 -->
<g id="edge64" class="edge"><title>Node21&#45;&gt;Node23</title>
<path fill="none" stroke="midnightblue" d="M813.244,-174.897C828.624,-165.887 851.361,-152.567 868.955,-142.259"/>
<polygon fill="midnightblue" stroke="midnightblue" points="870.762,-145.257 877.621,-137.182 867.223,-139.217 870.762,-145.257"/>
</g>
<!-- Node22&#45;&gt;Node10 -->
<g id="edge62" class="edge"><title>Node22&#45;&gt;Node10</title>
<path fill="none" stroke="midnightblue" d="M959.413,-58.8972C947.741,-50.2178 930.69,-37.5384 917.062,-27.4053"/>
<polygon fill="midnightblue" stroke="midnightblue" points="918.806,-24.3401 908.693,-21.1817 914.629,-29.9574 918.806,-24.3401"/>
</g>
<!-- Node23&#45;&gt;Node4 -->
<g id="edge66" class="edge"><title>Node23&#45;&gt;Node4</title>
<path fill="none" stroke="midnightblue" d="M839.106,-116.963C783.122,-106.91 696.986,-91.4433 637.749,-80.8064"/>
<polygon fill="midnightblue" stroke="midnightblue" points="638.211,-77.3334 627.75,-79.0108 636.974,-84.2232 638.211,-77.3334"/>
</g>
<!-- Node23&#45;&gt;Node10 -->
<g id="edge68" class="edge"><title>Node23&#45;&gt;Node10</title>
<path fill="none" stroke="midnightblue" d="M895,-116.706C895,-97.5683 895,-56.1978 895,-31.2654"/>
<polygon fill="midnightblue" stroke="midnightblue" points="898.5,-31.1055 895,-21.1055 891.5,-31.1056 898.5,-31.1055"/>
</g>
<!-- Node24&#45;&gt;Node12 -->
<g id="edge74" class="edge"><title>Node24&#45;&gt;Node12</title>
<path fill="none" stroke="midnightblue" d="M381.462,-232.936C363.708,-220.076 338.394,-196.748 349,-174 354.967,-161.201 366.325,-150.65 377.261,-142.81"/>
<polygon fill="midnightblue" stroke="midnightblue" points="379.44,-145.564 385.829,-137.113 375.564,-139.735 379.44,-145.564"/>
</g>
<!-- Node25 -->
<g id="node63" class="node"><title>Node25</title>
<a xlink:href="SpeciesThermoInterpType_8h.html" target="_top" xlink:title="Pure Virtual Base class for individual species reference state thermodynamic managers and text for th...">
<polygon fill="white" stroke="black" points="503.5,-175 503.5,-195 640.5,-195 640.5,-175 503.5,-175"/>
<text text-anchor="middle" x="572" y="-182" font-family="FreeSans" font-size="10.00">SpeciesThermoInterpType.h</text>
</a>
</g>
<!-- Node24&#45;&gt;Node25 -->
<g id="edge76" class="edge"><title>Node24&#45;&gt;Node25</title>
<path fill="none" stroke="midnightblue" d="M427.483,-232.897C456.378,-223.321 499.966,-208.874 531.715,-198.352"/>
<polygon fill="midnightblue" stroke="midnightblue" points="533.182,-201.553 541.574,-195.084 530.98,-194.908 533.182,-201.553"/>
</g>
<!-- Node27 -->
<g id="node68" class="node"><title>Node27</title>
<polygon fill="white" stroke="#bfbfbf" points="357.5,-175 357.5,-195 410.5,-195 410.5,-175 357.5,-175"/>
<text text-anchor="middle" x="384" y="-182" font-family="FreeSans" font-size="10.00">iostream</text>
</g>
<!-- Node24&#45;&gt;Node27 -->
<g id="edge82" class="edge"><title>Node24&#45;&gt;Node27</title>
<path fill="none" stroke="midnightblue" d="M394.736,-232.897C393.023,-225.257 390.616,-214.517 388.515,-205.143"/>
<polygon fill="midnightblue" stroke="midnightblue" points="391.928,-204.37 386.326,-195.378 385.098,-205.901 391.928,-204.37"/>
</g>
<!-- Node25&#45;&gt;Node4 -->
<g id="edge78" class="edge"><title>Node25&#45;&gt;Node4</title>
<path fill="none" stroke="midnightblue" d="M547.868,-174.909C532.845,-167.206 514.766,-155.004 506,-138 494.784,-116.244 518.463,-96.6302 540.515,-83.9252"/>
<polygon fill="midnightblue" stroke="midnightblue" points="542.323,-86.9264 549.442,-79.0796 538.983,-80.7743 542.323,-86.9264"/>
</g>
<!-- Node25&#45;&gt;Node26 -->
<g id="edge80" class="edge"><title>Node25&#45;&gt;Node26</title>
<path fill="none" stroke="midnightblue" d="M572,-174.897C572,-167.339 572,-156.748 572,-147.446"/>
<polygon fill="midnightblue" stroke="midnightblue" points="575.5,-147.378 572,-137.378 568.5,-147.378 575.5,-147.378"/>
</g>
<!-- Node28&#45;&gt;Node12 -->
<g id="edge86" class="edge"><title>Node28&#45;&gt;Node12</title>
<path fill="none" stroke="midnightblue" d="M492.625,-232.92C484.723,-223.407 472.549,-208.741 462,-196 447.722,-178.754 431.458,-159.062 419.968,-145.141"/>
<polygon fill="midnightblue" stroke="midnightblue" points="422.556,-142.778 413.491,-137.293 417.157,-147.234 422.556,-142.778"/>
</g>
<!-- Node28&#45;&gt;Node25 -->
<g id="edge88" class="edge"><title>Node28&#45;&gt;Node25</title>
<path fill="none" stroke="midnightblue" d="M513.367,-232.897C523.826,-224.353 539.03,-211.933 551.335,-201.881"/>
<polygon fill="midnightblue" stroke="midnightblue" points="553.766,-204.415 559.296,-195.378 549.338,-198.994 553.766,-204.415"/>
</g>
<!-- Node29&#45;&gt;Node12 -->
<g id="edge92" class="edge"><title>Node29&#45;&gt;Node12</title>
<path fill="none" stroke="midnightblue" d="M565.933,-232.963C546.489,-224.153 518.205,-210.511 495,-196 469.465,-180.031 442.312,-158.51 424.591,-143.773"/>
<polygon fill="midnightblue" stroke="midnightblue" points="426.605,-140.894 416.699,-137.138 422.101,-146.252 426.605,-140.894"/>
</g>
<!-- Node29&#45;&gt;Node21 -->
<g id="edge96" class="edge"><title>Node29&#45;&gt;Node21</title>
<path fill="none" stroke="midnightblue" d="M622.258,-233.681C656.879,-223.981 711.352,-208.718 750.067,-197.87"/>
<polygon fill="midnightblue" stroke="midnightblue" points="751.358,-201.143 760.043,-195.075 749.47,-194.403 751.358,-201.143"/>
</g>
<!-- Node29&#45;&gt;Node25 -->
<g id="edge94" class="edge"><title>Node29&#45;&gt;Node25</title>
<path fill="none" stroke="midnightblue" d="M586.039,-232.897C583.799,-225.257 580.652,-214.517 577.904,-205.143"/>
<polygon fill="midnightblue" stroke="midnightblue" points="581.213,-203.989 575.042,-195.378 574.496,-205.958 581.213,-203.989"/>
</g>
</g>
</svg>
