<?xml version="1.0" encoding="UTF-8" standalone="no"?>
<!DOCTYPE svg PUBLIC "-//W3C//DTD SVG 1.1//EN"
 "http://www.w3.org/Graphics/SVG/1.1/DTD/svg11.dtd">
<!-- Generated by graphviz version 2.36.0 (20140111.2315)
 -->
<!-- Title: VPSSMgr_Water_HKFT.cpp Pages: 1 -->
<svg width="966pt" height="488pt"
 viewBox="0.00 0.00 966.00 488.00" xmlns="http://www.w3.org/2000/svg" xmlns:xlink="http://www.w3.org/1999/xlink">
<g id="graph0" class="graph" transform="scale(1 1) rotate(0) translate(4 484)">
<title>VPSSMgr_Water_HKFT.cpp</title>
<polygon fill="white" stroke="none" points="-4,4 -4,-484 962,-484 962,4 -4,4"/>
<!-- Node1 -->
<g id="node1" class="node"><title>Node1</title>
<polygon fill="#bfbfbf" stroke="black" points="296.5,-460.5 296.5,-479.5 435.5,-479.5 435.5,-460.5 296.5,-460.5"/>
<text text-anchor="middle" x="366" y="-467.5" font-family="FreeSans" font-size="10.00">VPSSMgr_Water_HKFT.cpp</text>
</g>
<!-- Node2 -->
<g id="node2" class="node"><title>Node2</title>
<g id="a_node2"><a xlink:href="VPSSMgr__Water__HKFT_8h.html" target="_top" xlink:title="Declaration file for a derived class that handles the calculation of standard state thermo properties...">
<polygon fill="white" stroke="black" points="453,-393 453,-423 581,-423 581,-393 453,-393"/>
<text text-anchor="start" x="461" y="-411" font-family="FreeSans" font-size="10.00">cantera/thermo/VPSSMgr</text>
<text text-anchor="middle" x="517" y="-400" font-family="FreeSans" font-size="10.00">_Water_HKFT.h</text>
</a>
</g>
</g>
<!-- Node1&#45;&gt;Node2 -->
<g id="edge1" class="edge"><title>Node1&#45;&gt;Node2</title>
<path fill="none" stroke="midnightblue" d="M387.635,-460.403C409.592,-451.679 444.232,-437.914 472.143,-426.824"/>
<polygon fill="midnightblue" stroke="midnightblue" points="473.702,-429.971 481.703,-423.025 471.117,-423.465 473.702,-429.971"/>
</g>
<!-- Node10 -->
<g id="node10" class="node"><title>Node10</title>
<g id="a_node10"><a xlink:href="PDSS__Water_8h.html" target="_top" xlink:title="Implementation of a pressure dependent standard state virtual function for a Pure Water Phase (see Sp...">
<polygon fill="white" stroke="black" points="729,-393 729,-423 841,-423 841,-393 729,-393"/>
<text text-anchor="start" x="737" y="-411" font-family="FreeSans" font-size="10.00">cantera/thermo/PDSS</text>
<text text-anchor="middle" x="785" y="-400" font-family="FreeSans" font-size="10.00">_Water.h</text>
</a>
</g>
</g>
<!-- Node1&#45;&gt;Node10 -->
<g id="edge10" class="edge"><title>Node1&#45;&gt;Node10</title>
<path fill="none" stroke="midnightblue" d="M435.625,-462.133C507.042,-454.62 621.207,-441.304 719,-424 719.101,-423.982 719.203,-423.964 719.304,-423.946"/>
<polygon fill="midnightblue" stroke="midnightblue" points="719.727,-427.428 728.906,-422.137 718.43,-420.549 719.727,-427.428"/>
</g>
<!-- Node15 -->
<g id="node15" class="node"><title>Node15</title>
<g id="a_node15"><a xlink:href="PDSS__HKFT_8h.html" target="_top" xlink:title="Declarations for the class PDSS_HKFT (pressure dependent standard state) which handles calculations f...">
<polygon fill="white" stroke="black" points="599,-393 599,-423 711,-423 711,-393 599,-393"/>
<text text-anchor="start" x="607" y="-411" font-family="FreeSans" font-size="10.00">cantera/thermo/PDSS</text>
<text text-anchor="middle" x="655" y="-400" font-family="FreeSans" font-size="10.00">_HKFT.h</text>
</a>
</g>
</g>
<!-- Node1&#45;&gt;Node15 -->
<g id="edge19" class="edge"><title>Node1&#45;&gt;Node15</title>
<path fill="none" stroke="midnightblue" d="M410.279,-460.492C453.401,-452.119 521.055,-438.755 588.678,-424.254"/>
<polygon fill="midnightblue" stroke="midnightblue" points="589.612,-427.633 598.652,-422.107 588.139,-420.79 589.612,-427.633"/>
</g>
<!-- Node16 -->
<g id="node16" class="node"><title>Node16</title>
<g id="a_node16"><a xlink:href="VPStandardStateTP_8h.html" target="_top" xlink:title="Header file for a derived class of ThermoPhase that handles variable pressure standard state methods ...">
<polygon fill="white" stroke="black" points="297.5,-393 297.5,-423 434.5,-423 434.5,-393 297.5,-393"/>
<text text-anchor="start" x="305.5" y="-411" font-family="FreeSans" font-size="10.00">cantera/thermo/VPStandard</text>
<text text-anchor="middle" x="366" y="-400" font-family="FreeSans" font-size="10.00">StateTP.h</text>
</a>
</g>
</g>
<!-- Node1&#45;&gt;Node16 -->
<g id="edge21" class="edge"><title>Node1&#45;&gt;Node16</title>
<path fill="none" stroke="midnightblue" d="M366,-460.403C366,-453.341 366,-442.975 366,-433.399"/>
<polygon fill="midnightblue" stroke="midnightblue" points="369.5,-433.141 366,-423.141 362.5,-433.141 369.5,-433.141"/>
</g>
<!-- Node23 -->
<g id="node23" class="node"><title>Node23</title>
<g id="a_node23"><a xlink:href="MultiSpeciesThermo_8h.html" target="_top" xlink:title="Header for a general species thermodynamic property manager for a phase (see MultiSpeciesThermo). ">
<polygon fill="white" stroke="black" points="244.5,-280.5 244.5,-299.5 357.5,-299.5 357.5,-280.5 244.5,-280.5"/>
<text text-anchor="middle" x="301" y="-287.5" font-family="FreeSans" font-size="10.00">MultiSpeciesThermo.h</text>
</a>
</g>
</g>
<!-- Node1&#45;&gt;Node23 -->
<g id="edge39" class="edge"><title>Node1&#45;&gt;Node23</title>
<path fill="none" stroke="midnightblue" d="M336.879,-460.441C319.357,-453.62 298.477,-442.141 288,-424 266.898,-387.464 282.338,-335.719 293.051,-308.811"/>
<polygon fill="midnightblue" stroke="midnightblue" points="296.315,-310.077 296.971,-299.503 289.864,-307.36 296.315,-310.077"/>
</g>
<!-- Node25 -->
<g id="node25" class="node"><title>Node25</title>
<g id="a_node25"><a xlink:href="xml_8h.html" target="_top" xlink:title="Classes providing support for XML data files. ">
<polygon fill="white" stroke="black" points="116,-224.5 116,-243.5 214,-243.5 214,-224.5 116,-224.5"/>
<text text-anchor="middle" x="165" y="-231.5" font-family="FreeSans" font-size="10.00">cantera/base/xml.h</text>
</a>
</g>
</g>
<!-- Node1&#45;&gt;Node25 -->
<g id="edge40" class="edge"><title>Node1&#45;&gt;Node25</title>
<path fill="none" stroke="midnightblue" d="M339.226,-460.495C319.652,-453.232 293.416,-441.207 275,-424 220.949,-373.497 185.454,-290.386 171.58,-253.558"/>
<polygon fill="midnightblue" stroke="midnightblue" points="174.696,-251.89 167.971,-243.703 168.123,-254.296 174.696,-251.89"/>
</g>
<!-- Node26 -->
<g id="node26" class="node"><title>Node26</title>
<g id="a_node26"><a xlink:href="stringUtils_8h.html" target="_top" xlink:title="Contains declarations for string manipulation functions within Cantera. ">
<polygon fill="white" stroke="black" points="-0.5,-168.5 -0.5,-187.5 124.5,-187.5 124.5,-168.5 -0.5,-168.5"/>
<text text-anchor="middle" x="62" y="-175.5" font-family="FreeSans" font-size="10.00">cantera/base/stringUtils.h</text>
</a>
</g>
</g>
<!-- Node1&#45;&gt;Node26 -->
<g id="edge43" class="edge"><title>Node1&#45;&gt;Node26</title>
<path fill="none" stroke="midnightblue" d="M296.298,-468.844C210.208,-464.551 75,-442.593 75,-347 75,-347 75,-347 75,-289 75,-256.576 69.3607,-219.146 65.5105,-197.369"/>
<polygon fill="midnightblue" stroke="midnightblue" points="68.9499,-196.72 63.6995,-187.517 62.0652,-197.985 68.9499,-196.72"/>
</g>
<!-- Node3 -->
<g id="node3" class="node"><title>Node3</title>
<g id="a_node3"><a xlink:href="VPSSMgr_8h.html" target="_top" xlink:title="Declaration file for a virtual base class that manages the calculation of standard state properties f...">
<polygon fill="white" stroke="black" points="461.5,-336.5 461.5,-355.5 528.5,-355.5 528.5,-336.5 461.5,-336.5"/>
<text text-anchor="middle" x="495" y="-343.5" font-family="FreeSans" font-size="10.00">VPSSMgr.h</text>
</a>
</g>
</g>
<!-- Node2&#45;&gt;Node3 -->
<g id="edge2" class="edge"><title>Node2&#45;&gt;Node3</title>
<path fill="none" stroke="midnightblue" d="M511.786,-392.781C508.754,-384.512 504.902,-374.006 501.653,-365.145"/>
<polygon fill="midnightblue" stroke="midnightblue" points="504.93,-363.914 498.201,-355.731 498.358,-366.324 504.93,-363.914"/>
</g>
<!-- Node4 -->
<g id="node4" class="node"><title>Node4</title>
<g id="a_node4"><a xlink:href="mix__defs_8h.html" target="_top" xlink:title="mix_defs.h">
<polygon fill="white" stroke="black" points="625,-280.5 625,-299.5 687,-299.5 687,-280.5 625,-280.5"/>
<text text-anchor="middle" x="656" y="-287.5" font-family="FreeSans" font-size="10.00">mix_defs.h</text>
</a>
</g>
</g>
<!-- Node3&#45;&gt;Node4 -->
<g id="edge3" class="edge"><title>Node3&#45;&gt;Node4</title>
<path fill="none" stroke="midnightblue" d="M520.511,-336.444C547.596,-327.359 590.59,-312.939 620.869,-302.783"/>
<polygon fill="midnightblue" stroke="midnightblue" points="622.24,-306.015 630.608,-299.516 620.014,-299.378 622.24,-306.015"/>
</g>
<!-- Node5 -->
<g id="node5" class="node"><title>Node5</title>
<g id="a_node5"><a xlink:href="global_8h.html" target="_top" xlink:title="This file contains definitions for utility functions and text for modules, inputfiles, logs, textlogs, (see Input File Handling, Diagnostic Output, and Writing messages to the screen). ">
<polygon fill="white" stroke="black" points="336,-168.5 336,-187.5 444,-187.5 444,-168.5 336,-168.5"/>
<text text-anchor="middle" x="390" y="-175.5" font-family="FreeSans" font-size="10.00">cantera/base/global.h</text>
</a>
</g>
</g>
<!-- Node3&#45;&gt;Node5 -->
<g id="edge4" class="edge"><title>Node3&#45;&gt;Node5</title>
<path fill="none" stroke="midnightblue" d="M489.355,-336.075C472.612,-309.606 423.024,-231.209 400.886,-196.21"/>
<polygon fill="midnightblue" stroke="midnightblue" points="403.723,-194.148 395.42,-187.568 397.807,-197.89 403.723,-194.148"/>
</g>
<!-- Node6 -->
<g id="node6" class="node"><title>Node6</title>
<g id="a_node6"><a xlink:href="ct__defs_8h.html" target="_top" xlink:title="This file contains definitions of terms that are used in internal routines and are unlikely to need m...">
<polygon fill="white" stroke="red" points="412,-56.5 412,-75.5 468,-75.5 468,-56.5 412,-56.5"/>
<text text-anchor="middle" x="440" y="-63.5" font-family="FreeSans" font-size="10.00">ct_defs.h</text>
</a>
</g>
</g>
<!-- Node5&#45;&gt;Node6 -->
<g id="edge5" class="edge"><title>Node5&#45;&gt;Node6</title>
<path fill="none" stroke="midnightblue" d="M381.863,-168.223C370.993,-155.38 354.277,-130.938 365,-112 373.347,-97.2584 388.662,-86.8192 403.287,-79.7321"/>
<polygon fill="midnightblue" stroke="midnightblue" points="404.997,-82.8025 412.718,-75.5474 402.158,-76.4041 404.997,-82.8025"/>
</g>
<!-- Node9 -->
<g id="node9" class="node"><title>Node9</title>
<g id="a_node9"><a xlink:href="fmt_8h.html" target="_top" xlink:title="Wrapper for either system&#45;installed or local headers for fmt. ">
<polygon fill="white" stroke="red" points="175.5,-112.5 175.5,-131.5 272.5,-131.5 272.5,-112.5 175.5,-112.5"/>
<text text-anchor="middle" x="224" y="-119.5" font-family="FreeSans" font-size="10.00">cantera/base/fmt.h</text>
</a>
</g>
</g>
<!-- Node5&#45;&gt;Node9 -->
<g id="edge8" class="edge"><title>Node5&#45;&gt;Node9</title>
<path fill="none" stroke="midnightblue" d="M363.697,-168.444C335.649,-159.32 291.056,-144.813 259.816,-134.651"/>
<polygon fill="midnightblue" stroke="midnightblue" points="260.772,-131.282 250.18,-131.516 258.607,-137.938 260.772,-131.282"/>
</g>
<!-- Node7 -->
<g id="node7" class="node"><title>Node7</title>
<g id="a_node7"><a xlink:href="config_8h_source.html" target="_top" xlink:title="config.h">
<polygon fill="white" stroke="black" points="443,-0.5 443,-19.5 493,-19.5 493,-0.5 443,-0.5"/>
<text text-anchor="middle" x="468" y="-7.5" font-family="FreeSans" font-size="10.00">config.h</text>
</a>
</g>
</g>
<!-- Node6&#45;&gt;Node7 -->
<g id="edge6" class="edge"><title>Node6&#45;&gt;Node7</title>
<path fill="none" stroke="midnightblue" d="M444.624,-56.083C448.456,-48.6913 454.024,-37.9533 458.765,-28.8111"/>
<polygon fill="midnightblue" stroke="midnightblue" points="461.966,-30.2398 463.462,-19.7511 455.752,-27.0175 461.966,-30.2398"/>
</g>
<!-- Node8 -->
<g id="node8" class="node"><title>Node8</title>
<polygon fill="white" stroke="#bfbfbf" points="217,-0.5 217,-19.5 257,-19.5 257,-0.5 217,-0.5"/>
<text text-anchor="middle" x="237" y="-7.5" font-family="FreeSans" font-size="10.00">string</text>
</g>
<!-- Node6&#45;&gt;Node8 -->
<g id="edge7" class="edge"><title>Node6&#45;&gt;Node8</title>
<path fill="none" stroke="midnightblue" d="M411.774,-57.4915C373.571,-47.3293 305.716,-29.2791 266.745,-18.9125"/>
<polygon fill="midnightblue" stroke="midnightblue" points="267.595,-15.517 257.032,-16.3286 265.796,-22.2818 267.595,-15.517"/>
</g>
<!-- Node9&#45;&gt;Node6 -->
<g id="edge9" class="edge"><title>Node9&#45;&gt;Node6</title>
<path fill="none" stroke="midnightblue" d="M258.226,-112.444C297.376,-102.656 361.301,-86.6748 401.975,-76.5064"/>
<polygon fill="midnightblue" stroke="midnightblue" points="402.933,-79.8746 411.785,-74.0537 401.235,-73.0836 402.933,-79.8746"/>
</g>
<!-- Node11 -->
<g id="node11" class="node"><title>Node11</title>
<g id="a_node11"><a xlink:href="PDSS_8h.html" target="_top" xlink:title="Declarations for the virtual base class PDSS (pressure dependent standard state) which handles calcul...">
<polygon fill="white" stroke="black" points="661.5,-336.5 661.5,-355.5 712.5,-355.5 712.5,-336.5 661.5,-336.5"/>
<text text-anchor="middle" x="687" y="-343.5" font-family="FreeSans" font-size="10.00">PDSS.h</text>
</a>
</g>
</g>
<!-- Node10&#45;&gt;Node11 -->
<g id="edge11" class="edge"><title>Node10&#45;&gt;Node11</title>
<path fill="none" stroke="midnightblue" d="M761.775,-392.781C745.972,-383.105 725.168,-370.368 709.517,-360.786"/>
<polygon fill="midnightblue" stroke="midnightblue" points="711.33,-357.792 700.974,-355.556 707.675,-363.762 711.33,-357.792"/>
</g>
<!-- Node12 -->
<g id="node12" class="node"><title>Node12</title>
<g id="a_node12"><a xlink:href="WaterPropsIAPWS_8h.html" target="_top" xlink:title="Headers for a class for calculating the equation of state of water from the IAPWS 1995 Formulation ba...">
<polygon fill="white" stroke="black" points="828.5,-280.5 828.5,-299.5 935.5,-299.5 935.5,-280.5 828.5,-280.5"/>
<text text-anchor="middle" x="882" y="-287.5" font-family="FreeSans" font-size="10.00">WaterPropsIAPWS.h</text>
</a>
</g>
</g>
<!-- Node10&#45;&gt;Node12 -->
<g id="edge14" class="edge"><title>Node10&#45;&gt;Node12</title>
<path fill="none" stroke="midnightblue" d="M796.894,-392.776C814.927,-371.211 849.102,-330.341 868.202,-307.5"/>
<polygon fill="midnightblue" stroke="midnightblue" points="870.989,-309.624 874.719,-299.707 865.619,-305.133 870.989,-309.624"/>
</g>
<!-- Node14 -->
<g id="node14" class="node"><title>Node14</title>
<g id="a_node14"><a xlink:href="WaterProps_8h.html" target="_top" xlink:title="Header for a class used to house several approximation routines for properties of water...">
<polygon fill="white" stroke="black" points="746,-112.5 746,-131.5 820,-131.5 820,-112.5 746,-112.5"/>
<text text-anchor="middle" x="783" y="-119.5" font-family="FreeSans" font-size="10.00">WaterProps.h</text>
</a>
</g>
</g>
<!-- Node10&#45;&gt;Node14 -->
<g id="edge17" class="edge"><title>Node10&#45;&gt;Node14</title>
<path fill="none" stroke="midnightblue" d="M784.798,-392.714C784.505,-370.821 784,-327.654 784,-291 784,-291 784,-291 784,-233 784,-200.947 783.57,-163.642 783.274,-141.748"/>
<polygon fill="midnightblue" stroke="midnightblue" points="786.771,-141.507 783.131,-131.558 779.772,-141.606 786.771,-141.507"/>
</g>
<!-- Node11&#45;&gt;Node4 -->
<g id="edge13" class="edge"><title>Node11&#45;&gt;Node4</title>
<path fill="none" stroke="midnightblue" d="M681.881,-336.083C677.592,-328.613 671.342,-317.724 666.058,-308.52"/>
<polygon fill="midnightblue" stroke="midnightblue" points="669.038,-306.681 661.024,-299.751 662.967,-310.166 669.038,-306.681"/>
</g>
<!-- Node11&#45;&gt;Node6 -->
<g id="edge12" class="edge"><title>Node11&#45;&gt;Node6</title>
<path fill="none" stroke="midnightblue" d="M691.181,-336.393C699.642,-318.156 718,-274.087 718,-235 718,-235 718,-235 718,-177 718,-142.844 705.231,-131.225 677,-112 645.16,-90.3178 536.704,-76.5604 478.181,-70.5343"/>
<polygon fill="midnightblue" stroke="midnightblue" points="478.507,-67.0495 468.207,-69.5324 477.807,-74.0145 478.507,-67.0495"/>
</g>
<!-- Node13 -->
<g id="node13" class="node"><title>Node13</title>
<g id="a_node13"><a xlink:href="WaterPropsIAPWSphi_8h.html" target="_top" xlink:title="Header for Lowest level of the classes which support a real water model (see class WaterPropsIAPWS an...">
<polygon fill="white" stroke="black" points="838.5,-112.5 838.5,-131.5 957.5,-131.5 957.5,-112.5 838.5,-112.5"/>
<text text-anchor="middle" x="898" y="-119.5" font-family="FreeSans" font-size="10.00">WaterPropsIAPWSphi.h</text>
</a>
</g>
</g>
<!-- Node12&#45;&gt;Node13 -->
<g id="edge15" class="edge"><title>Node12&#45;&gt;Node13</title>
<path fill="none" stroke="midnightblue" d="M882.86,-280.075C885.379,-253.945 892.775,-177.211 896.209,-141.577"/>
<polygon fill="midnightblue" stroke="midnightblue" points="899.699,-141.858 897.174,-131.568 892.731,-141.186 899.699,-141.858"/>
</g>
<!-- Node13&#45;&gt;Node7 -->
<g id="edge16" class="edge"><title>Node13&#45;&gt;Node7</title>
<path fill="none" stroke="midnightblue" d="M864.616,-112.46C784.95,-92.0802 584.31,-40.7536 503.017,-19.9579"/>
<polygon fill="midnightblue" stroke="midnightblue" points="503.816,-16.5495 493.26,-17.4619 502.081,-23.3312 503.816,-16.5495"/>
</g>
<!-- Node14&#45;&gt;Node6 -->
<g id="edge18" class="edge"><title>Node14&#45;&gt;Node6</title>
<path fill="none" stroke="midnightblue" d="M745.969,-114.368C741.27,-113.555 736.524,-112.748 732,-112 641.194,-96.9925 534.227,-80.9151 478.366,-72.6407"/>
<polygon fill="midnightblue" stroke="midnightblue" points="478.625,-69.141 468.221,-71.1404 477.601,-76.0657 478.625,-69.141"/>
</g>
<!-- Node15&#45;&gt;Node11 -->
<g id="edge20" class="edge"><title>Node15&#45;&gt;Node11</title>
<path fill="none" stroke="midnightblue" d="M662.584,-392.781C667.09,-384.332 672.841,-373.548 677.63,-364.569"/>
<polygon fill="midnightblue" stroke="midnightblue" points="680.726,-366.201 682.344,-355.731 674.55,-362.907 680.726,-366.201"/>
</g>
<!-- Node16&#45;&gt;Node3 -->
<g id="edge38" class="edge"><title>Node16&#45;&gt;Node3</title>
<path fill="none" stroke="midnightblue" d="M396.245,-392.933C417.717,-382.946 446.325,-369.64 467.221,-359.92"/>
<polygon fill="midnightblue" stroke="midnightblue" points="468.919,-362.991 476.51,-355.6 465.967,-356.644 468.919,-362.991"/>
</g>
<!-- Node17 -->
<g id="node17" class="node"><title>Node17</title>
<g id="a_node17"><a xlink:href="ThermoPhase_8h.html" target="_top" xlink:title="Header file for class ThermoPhase, the base class for phases with thermodynamic properties, and the text for the Module thermoprops (see Thermodynamic Properties and class ThermoPhase). ">
<polygon fill="white" stroke="black" points="331,-336.5 331,-355.5 415,-355.5 415,-336.5 331,-336.5"/>
<text text-anchor="middle" x="373" y="-343.5" font-family="FreeSans" font-size="10.00">ThermoPhase.h</text>
</a>
</g>
</g>
<!-- Node16&#45;&gt;Node17 -->
<g id="edge22" class="edge"><title>Node16&#45;&gt;Node17</title>
<path fill="none" stroke="midnightblue" d="M367.659,-392.781C368.603,-384.691 369.796,-374.462 370.815,-365.725"/>
<polygon fill="midnightblue" stroke="midnightblue" points="374.299,-366.069 371.981,-355.731 367.346,-365.258 374.299,-366.069"/>
</g>
<!-- Node17&#45;&gt;Node5 -->
<g id="edge37" class="edge"><title>Node17&#45;&gt;Node5</title>
<path fill="none" stroke="midnightblue" d="M373.914,-336.075C376.59,-309.945 384.448,-233.211 388.098,-197.577"/>
<polygon fill="midnightblue" stroke="midnightblue" points="391.585,-197.873 389.123,-187.568 384.622,-197.159 391.585,-197.873"/>
</g>
<!-- Node18 -->
<g id="node18" class="node"><title>Node18</title>
<g id="a_node18"><a xlink:href="Phase_8h.html" target="_top" xlink:title="Header file for class Phase. ">
<polygon fill="white" stroke="black" points="502.5,-224.5 502.5,-243.5 553.5,-243.5 553.5,-224.5 502.5,-224.5"/>
<text text-anchor="middle" x="528" y="-231.5" font-family="FreeSans" font-size="10.00">Phase.h</text>
</a>
</g>
</g>
<!-- Node17&#45;&gt;Node18 -->
<g id="edge23" class="edge"><title>Node17&#45;&gt;Node18</title>
<path fill="none" stroke="midnightblue" d="M385.163,-336.368C411.647,-317.573 474.781,-272.768 507.521,-249.533"/>
<polygon fill="midnightblue" stroke="midnightblue" points="509.764,-252.233 515.894,-243.591 505.713,-246.525 509.764,-252.233"/>
</g>
<!-- Node17&#45;&gt;Node23 -->
<g id="edge32" class="edge"><title>Node17&#45;&gt;Node23</title>
<path fill="none" stroke="midnightblue" d="M361.432,-336.324C350.58,-328.185 334.119,-315.839 321.117,-306.087"/>
<polygon fill="midnightblue" stroke="midnightblue" points="322.879,-303.034 312.779,-299.834 318.679,-308.634 322.879,-303.034"/>
</g>
<!-- Node19 -->
<g id="node19" class="node"><title>Node19</title>
<g id="a_node19"><a xlink:href="ctexceptions_8h.html" target="_top" xlink:title="Definitions for the classes that are thrown when Cantera experiences an error condition (also contain...">
<polygon fill="white" stroke="red" points="142.5,-168.5 142.5,-187.5 279.5,-187.5 279.5,-168.5 142.5,-168.5"/>
<text text-anchor="middle" x="211" y="-175.5" font-family="FreeSans" font-size="10.00">cantera/base/ctexceptions.h</text>
</a>
</g>
</g>
<!-- Node18&#45;&gt;Node19 -->
<g id="edge24" class="edge"><title>Node18&#45;&gt;Node19</title>
<path fill="none" stroke="midnightblue" d="M502.327,-228.627C452.314,-220.107 340.64,-201.084 270.999,-189.221"/>
<polygon fill="midnightblue" stroke="midnightblue" points="271.487,-185.753 261.041,-187.524 270.311,-192.654 271.487,-185.753"/>
</g>
<!-- Node20 -->
<g id="node20" class="node"><title>Node20</title>
<g id="a_node20"><a xlink:href="Elements_8h.html" target="_top" xlink:title="Contains the getElementWeight function and the definitions of element constraint types. ">
<polygon fill="white" stroke="black" points="374,-112.5 374,-131.5 506,-131.5 506,-112.5 374,-112.5"/>
<text text-anchor="middle" x="440" y="-119.5" font-family="FreeSans" font-size="10.00">cantera/thermo/Elements.h</text>
</a>
</g>
</g>
<!-- Node18&#45;&gt;Node20 -->
<g id="edge26" class="edge"><title>Node18&#45;&gt;Node20</title>
<path fill="none" stroke="midnightblue" d="M521.095,-224.368C506.508,-206.135 472.341,-163.426 453.34,-139.675"/>
<polygon fill="midnightblue" stroke="midnightblue" points="455.853,-137.214 446.873,-131.591 450.387,-141.587 455.853,-137.214"/>
</g>
<!-- Node21 -->
<g id="node21" class="node"><title>Node21</title>
<g id="a_node21"><a xlink:href="Species_8h.html" target="_top" xlink:title="Declaration for class Cantera::Species. ">
<polygon fill="white" stroke="black" points="524.5,-112.5 524.5,-131.5 651.5,-131.5 651.5,-112.5 524.5,-112.5"/>
<text text-anchor="middle" x="588" y="-119.5" font-family="FreeSans" font-size="10.00">cantera/thermo/Species.h</text>
</a>
</g>
</g>
<!-- Node18&#45;&gt;Node21 -->
<g id="edge28" class="edge"><title>Node18&#45;&gt;Node21</title>
<path fill="none" stroke="midnightblue" d="M529.29,-224.094C531.455,-211.091 536.638,-186.452 547,-168 553.118,-157.106 562.328,-146.677 570.471,-138.607"/>
<polygon fill="midnightblue" stroke="midnightblue" points="572.959,-141.071 577.815,-131.654 568.147,-135.988 572.959,-141.071"/>
</g>
<!-- Node22 -->
<g id="node22" class="node"><title>Node22</title>
<g id="a_node22"><a xlink:href="ValueCache_8h.html" target="_top" xlink:title="cantera/base/ValueCache.h">
<polygon fill="white" stroke="red" points="556,-168.5 556,-187.5 690,-187.5 690,-168.5 556,-168.5"/>
<text text-anchor="middle" x="623" y="-175.5" font-family="FreeSans" font-size="10.00">cantera/base/ValueCache.h</text>
</a>
</g>
</g>
<!-- Node18&#45;&gt;Node22 -->
<g id="edge30" class="edge"><title>Node18&#45;&gt;Node22</title>
<path fill="none" stroke="midnightblue" d="M543.263,-224.324C558.221,-215.822 581.255,-202.729 598.727,-192.797"/>
<polygon fill="midnightblue" stroke="midnightblue" points="600.81,-195.639 607.774,-187.655 597.351,-189.553 600.81,-195.639"/>
</g>
<!-- Node19&#45;&gt;Node9 -->
<g id="edge25" class="edge"><title>Node19&#45;&gt;Node9</title>
<path fill="none" stroke="midnightblue" d="M213.147,-168.083C214.869,-160.927 217.347,-150.635 219.5,-141.691"/>
<polygon fill="midnightblue" stroke="midnightblue" points="222.955,-142.293 221.893,-131.751 216.15,-140.654 222.955,-142.293"/>
</g>
<!-- Node20&#45;&gt;Node6 -->
<g id="edge27" class="edge"><title>Node20&#45;&gt;Node6</title>
<path fill="none" stroke="midnightblue" d="M440,-112.083C440,-105.006 440,-94.8611 440,-85.9865"/>
<polygon fill="midnightblue" stroke="midnightblue" points="443.5,-85.751 440,-75.7511 436.5,-85.7511 443.5,-85.751"/>
</g>
<!-- Node21&#45;&gt;Node6 -->
<g id="edge29" class="edge"><title>Node21&#45;&gt;Node6</title>
<path fill="none" stroke="midnightblue" d="M564.549,-112.444C539.867,-103.438 500.815,-89.1891 473.023,-79.049"/>
<polygon fill="midnightblue" stroke="midnightblue" points="473.935,-75.6561 463.341,-75.5164 471.536,-82.2321 473.935,-75.6561"/>
</g>
<!-- Node22&#45;&gt;Node6 -->
<g id="edge31" class="edge"><title>Node22&#45;&gt;Node6</title>
<path fill="none" stroke="midnightblue" d="M634.233,-168.436C649.938,-155.438 674.943,-130.309 660,-112 637.49,-84.4199 535.128,-73.2887 478.305,-69.1738"/>
<polygon fill="midnightblue" stroke="midnightblue" points="478.47,-65.677 468.254,-68.4847 477.991,-72.6606 478.47,-65.677"/>
</g>
<!-- Node24 -->
<g id="node24" class="node"><title>Node24</title>
<g id="a_node24"><a xlink:href="SpeciesThermoInterpType_8h.html" target="_top" xlink:title="Pure Virtual Base class for individual species reference state thermodynamic managers and text for th...">
<polygon fill="white" stroke="red" points="232.5,-224.5 232.5,-243.5 369.5,-243.5 369.5,-224.5 232.5,-224.5"/>
<text text-anchor="middle" x="301" y="-231.5" font-family="FreeSans" font-size="10.00">SpeciesThermoInterpType.h</text>
</a>
</g>
</g>
<!-- Node23&#45;&gt;Node24 -->
<g id="edge33" class="edge"><title>Node23&#45;&gt;Node24</title>
<path fill="none" stroke="midnightblue" d="M301,-280.083C301,-273.006 301,-262.861 301,-253.986"/>
<polygon fill="midnightblue" stroke="midnightblue" points="304.5,-253.751 301,-243.751 297.5,-253.751 304.5,-253.751"/>
</g>
<!-- Node24&#45;&gt;Node5 -->
<g id="edge36" class="edge"><title>Node24&#45;&gt;Node5</title>
<path fill="none" stroke="midnightblue" d="M315.299,-224.324C329.183,-215.9 350.492,-202.971 366.804,-193.074"/>
<polygon fill="midnightblue" stroke="midnightblue" points="369.002,-195.834 375.736,-187.655 365.371,-189.85 369.002,-195.834"/>
</g>
<!-- Node24&#45;&gt;Node6 -->
<g id="edge34" class="edge"><title>Node24&#45;&gt;Node6</title>
<path fill="none" stroke="midnightblue" d="M302.946,-224.189C308.172,-202.419 324.442,-145.435 358,-112 372.04,-98.0116 391.33,-87.1331 407.674,-79.5786"/>
<polygon fill="midnightblue" stroke="midnightblue" points="409.154,-82.7512 416.894,-75.5164 406.332,-76.3453 409.154,-82.7512"/>
</g>
<!-- Node24&#45;&gt;Node19 -->
<g id="edge35" class="edge"><title>Node24&#45;&gt;Node19</title>
<path fill="none" stroke="midnightblue" d="M286.54,-224.324C272.5,-215.9 250.952,-202.971 234.457,-193.074"/>
<polygon fill="midnightblue" stroke="midnightblue" points="235.8,-189.798 225.424,-187.655 232.198,-195.801 235.8,-189.798"/>
</g>
<!-- Node25&#45;&gt;Node5 -->
<g id="edge42" class="edge"><title>Node25&#45;&gt;Node5</title>
<path fill="none" stroke="midnightblue" d="M200.652,-224.444C239.656,-215.083 302.266,-200.056 344.717,-189.868"/>
<polygon fill="midnightblue" stroke="midnightblue" points="345.608,-193.254 354.515,-187.516 343.974,-186.447 345.608,-193.254"/>
</g>
<!-- Node25&#45;&gt;Node19 -->
<g id="edge41" class="edge"><title>Node25&#45;&gt;Node19</title>
<path fill="none" stroke="midnightblue" d="M172.596,-224.083C179.227,-216.298 189.021,-204.801 197.058,-195.367"/>
<polygon fill="midnightblue" stroke="midnightblue" points="199.725,-197.633 203.545,-187.751 194.396,-193.094 199.725,-197.633"/>
</g>
<!-- Node26&#45;&gt;Node6 -->
<g id="edge44" class="edge"><title>Node26&#45;&gt;Node6</title>
<path fill="none" stroke="midnightblue" d="M72.4739,-168.442C90.425,-154.258 128.746,-126.052 166,-112 246.343,-81.6954 347.535,-71.7765 401.665,-68.5461"/>
<polygon fill="midnightblue" stroke="midnightblue" points="402.051,-72.0303 411.843,-67.9852 401.666,-65.0409 402.051,-72.0303"/>
</g>
<!-- Node26&#45;&gt;Node8 -->
<g id="edge46" class="edge"><title>Node26&#45;&gt;Node8</title>
<path fill="none" stroke="midnightblue" d="M69.6544,-168.348C80.9808,-155.662 103.022,-131.413 123,-112 155.621,-80.3004 195.877,-45.5975 218.778,-26.2411"/>
<polygon fill="midnightblue" stroke="midnightblue" points="221.256,-28.7298 226.652,-19.6123 216.748,-23.3745 221.256,-28.7298"/>
</g>
<!-- Node26&#45;&gt;Node9 -->
<g id="edge45" class="edge"><title>Node26&#45;&gt;Node9</title>
<path fill="none" stroke="midnightblue" d="M87.6694,-168.444C114.923,-159.359 158.184,-144.939 188.651,-134.783"/>
<polygon fill="midnightblue" stroke="midnightblue" points="190.071,-137.999 198.451,-131.516 187.857,-131.358 190.071,-137.999"/>
</g>
</g>
</svg>
