<?xml version="1.0" encoding="UTF-8" standalone="no"?>
<!DOCTYPE svg PUBLIC "-//W3C//DTD SVG 1.1//EN"
 "http://www.w3.org/Graphics/SVG/1.1/DTD/svg11.dtd">
<!-- Generated by graphviz version 2.40.1 (20161225.0304)
 -->
<!-- Title: VPStandardStateTP.cpp Pages: 1 -->
<svg width="1338pt" height="542pt"
 viewBox="0.00 0.00 1337.60 542.00" xmlns="http://www.w3.org/2000/svg" xmlns:xlink="http://www.w3.org/1999/xlink">
<g id="graph0" class="graph" transform="scale(1 1) rotate(0) translate(4 538)">
<title>VPStandardStateTP.cpp</title>
<polygon fill="#ffffff" stroke="transparent" points="-4,4 -4,-538 1333.5973,-538 1333.5973,4 -4,4"/>
<!-- Node0 -->
<g id="node1" class="node">
<title>Node0</title>
<polygon fill="#bfbfbf" stroke="#000000" points="631.6636,-515.5 631.6636,-533.5 755.3296,-533.5 755.3296,-515.5 631.6636,-515.5"/>
<text text-anchor="middle" x="693.4966" y="-521.5" font-family="Helvetica,sans-Serif" font-size="10.00" fill="#000000">VPStandardStateTP.cpp</text>
</g>
<!-- Node1 -->
<g id="node2" class="node">
<title>Node1</title>
<g id="a_node2"><a xlink:href="VPStandardStateTP_8h.html" target="_top" xlink:title="Header file for a derived class of ThermoPhase that handles variable pressure standard state methods ...">
<polygon fill="#ffffff" stroke="#000000" points="709.5166,-330.5 709.5166,-358.5 849.4766,-358.5 849.4766,-330.5 709.5166,-330.5"/>
<text text-anchor="start" x="717.5166" y="-346.5" font-family="Helvetica,sans-Serif" font-size="10.00" fill="#000000">cantera/thermo/VPStandard</text>
<text text-anchor="middle" x="779.4966" y="-336.5" font-family="Helvetica,sans-Serif" font-size="10.00" fill="#000000">StateTP.h</text>
</a>
</g>
</g>
<!-- Node0&#45;&gt;Node1 -->
<g id="edge1" class="edge">
<title>Node0&#45;&gt;Node1</title>
<path fill="none" stroke="#191970" d="M690.581,-515.2396C684.108,-492.8301 670.8224,-434.6089 693.4966,-395 701.329,-381.3177 714.4696,-370.9797 728.1514,-363.338"/>
<polygon fill="#191970" stroke="#191970" points="729.8795,-366.3851 737.1701,-358.6977 726.6768,-360.1607 729.8795,-366.3851"/>
</g>
<!-- Node31 -->
<g id="node15" class="node">
<title>Node31</title>
<g id="a_node15"><a xlink:href="PDSS_8h.html" target="_top" xlink:title="Declarations for the virtual base class PDSS (pressure dependent standard state) which handles calcul...">
<polygon fill="#ffffff" stroke="#000000" points="556.7109,-275.5 556.7109,-293.5 608.2822,-293.5 608.2822,-275.5 556.7109,-275.5"/>
<text text-anchor="middle" x="582.4966" y="-281.5" font-family="Helvetica,sans-Serif" font-size="10.00" fill="#000000">PDSS.h</text>
</a>
</g>
</g>
<!-- Node0&#45;&gt;Node31 -->
<g id="edge22" class="edge">
<title>Node0&#45;&gt;Node31</title>
<path fill="none" stroke="#191970" d="M670.1222,-515.3466C654.2473,-507.9188 634.1011,-495.8949 622.4966,-479 584.8065,-424.1273 581.217,-341.3706 581.7283,-304.017"/>
<polygon fill="#191970" stroke="#191970" points="585.2386,-303.6653 582.0004,-293.5775 578.241,-303.4829 585.2386,-303.6653"/>
</g>
<!-- Node32 -->
<g id="node16" class="node">
<title>Node32</title>
<g id="a_node16"><a xlink:href="PDSS__Water_8h.html" target="_top" xlink:title="Implementation of a pressure dependent standard state virtual function for a Pure Water Phase (see Sp...">
<polygon fill="#ffffff" stroke="#000000" points="271.8638,-330.5 271.8638,-358.5 385.1294,-358.5 385.1294,-330.5 271.8638,-330.5"/>
<text text-anchor="start" x="279.8638" y="-346.5" font-family="Helvetica,sans-Serif" font-size="10.00" fill="#000000">cantera/thermo/PDSS</text>
<text text-anchor="middle" x="328.4966" y="-336.5" font-family="Helvetica,sans-Serif" font-size="10.00" fill="#000000">_Water.h</text>
</a>
</g>
</g>
<!-- Node0&#45;&gt;Node32 -->
<g id="edge23" class="edge">
<title>Node0&#45;&gt;Node32</title>
<path fill="none" stroke="#191970" d="M667.5446,-515.4736C643.5732,-506.8867 607.1473,-493.2026 576.4966,-479 496.9198,-442.1265 407.3314,-391.0324 360.6698,-363.6515"/>
<polygon fill="#191970" stroke="#191970" points="362.3185,-360.5607 351.9255,-358.5028 358.7668,-366.5928 362.3185,-360.5607"/>
</g>
<!-- Node36 -->
<g id="node20" class="node">
<title>Node36</title>
<g id="a_node20"><a xlink:href="IonsFromNeutralVPSSTP_8h.html" target="_top" xlink:title="Header for intermediate ThermoPhase object for phases which consist of ions whose thermodynamics is c...">
<polygon fill="#ffffff" stroke="#000000" points="813.2456,-450.5 813.2456,-478.5 973.7476,-478.5 973.7476,-450.5 813.2456,-450.5"/>
<text text-anchor="start" x="821.2456" y="-466.5" font-family="Helvetica,sans-Serif" font-size="10.00" fill="#000000">cantera/thermo/IonsFromNeutral</text>
<text text-anchor="middle" x="893.4966" y="-456.5" font-family="Helvetica,sans-Serif" font-size="10.00" fill="#000000">VPSSTP.h</text>
</a>
</g>
</g>
<!-- Node0&#45;&gt;Node36 -->
<g id="edge30" class="edge">
<title>Node0&#45;&gt;Node36</title>
<path fill="none" stroke="#191970" d="M723.8723,-515.3873C753.8656,-506.3893 800.4481,-492.4145 837.2141,-481.3847"/>
<polygon fill="#191970" stroke="#191970" points="838.244,-484.73 846.8165,-478.504 836.2325,-478.0252 838.244,-484.73"/>
</g>
<!-- Node39 -->
<g id="node23" class="node">
<title>Node39</title>
<g id="a_node23"><a xlink:href="utilities_8h.html" target="_top" xlink:title="Various templated functions that carry out common vector operations (see Templated Utility Functions)...">
<polygon fill="#ffffff" stroke="#ff0000" points="1004.0435,-220.5 1004.0435,-238.5 1058.9497,-238.5 1058.9497,-220.5 1004.0435,-220.5"/>
<text text-anchor="middle" x="1031.4966" y="-226.5" font-family="Helvetica,sans-Serif" font-size="10.00" fill="#000000">utilities.h</text>
</a>
</g>
</g>
<!-- Node0&#45;&gt;Node39 -->
<g id="edge51" class="edge">
<title>Node0&#45;&gt;Node39</title>
<path fill="none" stroke="#191970" d="M755.6437,-519.6523C828.5952,-513.1132 944.4623,-499.8272 982.4966,-479 1021.296,-457.7539 1048.4966,-448.7356 1048.4966,-404.5 1048.4966,-404.5 1048.4966,-404.5 1048.4966,-344.5 1048.4966,-310.4874 1041.1293,-271.4187 1036.0946,-248.6909"/>
<polygon fill="#191970" stroke="#191970" points="1039.4429,-247.6342 1033.7893,-238.6739 1032.6213,-249.2042 1039.4429,-247.6342"/>
</g>
<!-- Node44 -->
<g id="node26" class="node">
<title>Node44</title>
<g id="a_node26"><a xlink:href="SpeciesThermoFactory_8h.html" target="_top" xlink:title="Header for factory functions to build instances of classes that manage the standard&#45;state thermodynam...">
<polygon fill="#ffffff" stroke="#000000" points="1076.4648,-450.5 1076.4648,-478.5 1232.5283,-478.5 1232.5283,-450.5 1076.4648,-450.5"/>
<text text-anchor="start" x="1084.4648" y="-466.5" font-family="Helvetica,sans-Serif" font-size="10.00" fill="#000000">cantera/thermo/SpeciesThermo</text>
<text text-anchor="middle" x="1154.4966" y="-456.5" font-family="Helvetica,sans-Serif" font-size="10.00" fill="#000000">Factory.h</text>
</a>
</g>
</g>
<!-- Node0&#45;&gt;Node44 -->
<g id="edge39" class="edge">
<title>Node0&#45;&gt;Node44</title>
<path fill="none" stroke="#191970" d="M755.6049,-517.4876C829.0069,-509.0505 954.7904,-494.1238 1062.4966,-479 1063.7576,-478.8229 1065.028,-478.643 1066.3061,-478.4607"/>
<polygon fill="#191970" stroke="#191970" points="1066.8337,-481.9209 1076.2266,-477.0195 1065.8272,-474.9936 1066.8337,-481.9209"/>
</g>
<!-- Node45 -->
<g id="node27" class="node">
<title>Node45</title>
<g id="a_node27"><a xlink:href="PDSSFactory_8h.html" target="_top" xlink:title="cantera/thermo/PDSSFactory.h">
<polygon fill="#ffffff" stroke="#000000" points="702.3926,-395.5 702.3926,-413.5 856.6006,-413.5 856.6006,-395.5 702.3926,-395.5"/>
<text text-anchor="middle" x="779.4966" y="-401.5" font-family="Helvetica,sans-Serif" font-size="10.00" fill="#000000">cantera/thermo/PDSSFactory.h</text>
</a>
</g>
</g>
<!-- Node0&#45;&gt;Node45 -->
<g id="edge41" class="edge">
<title>Node0&#45;&gt;Node45</title>
<path fill="none" stroke="#191970" d="M699.9606,-515.4805C714.2174,-495.5873 748.5631,-447.6629 767.1136,-421.7786"/>
<polygon fill="#191970" stroke="#191970" points="769.9772,-423.7912 772.9576,-413.6242 764.2875,-419.7135 769.9772,-423.7912"/>
</g>
<!-- Node49 -->
<g id="node32" class="node">
<title>Node49</title>
<g id="a_node32"><a xlink:href="ctml_8h.html" target="_top" xlink:title="CTML (&quot;Cantera Markup Language&quot;) is the variant of XML that Cantera uses to store data...">
<polygon fill="#ffffff" stroke="#000000" points="584.8638,-220.5 584.8638,-238.5 688.1294,-238.5 688.1294,-220.5 584.8638,-220.5"/>
<text text-anchor="middle" x="636.4966" y="-226.5" font-family="Helvetica,sans-Serif" font-size="10.00" fill="#000000">cantera/base/ctml.h</text>
</a>
</g>
</g>
<!-- Node0&#45;&gt;Node49 -->
<g id="edge52" class="edge">
<title>Node0&#45;&gt;Node49</title>
<path fill="none" stroke="#191970" d="M685.571,-515.2642C669.9089,-496.032 636.4966,-449.7057 636.4966,-404.5 636.4966,-404.5 636.4966,-404.5 636.4966,-344.5 636.4966,-310.853 636.4966,-271.6686 636.4966,-248.819"/>
<polygon fill="#191970" stroke="#191970" points="639.9967,-248.742 636.4966,-238.742 632.9967,-248.7421 639.9967,-248.742"/>
</g>
<!-- Node2 -->
<g id="node3" class="node">
<title>Node2</title>
<g id="a_node3"><a xlink:href="ThermoPhase_8h.html" target="_top" xlink:title="Header file for class ThermoPhase, the base class for phases with thermodynamic properties, and the text for the Module thermoprops (see Thermodynamic Properties and class ThermoPhase). ">
<polygon fill="#ffffff" stroke="#000000" points="741.9229,-275.5 741.9229,-293.5 829.0703,-293.5 829.0703,-275.5 741.9229,-275.5"/>
<text text-anchor="middle" x="785.4966" y="-281.5" font-family="Helvetica,sans-Serif" font-size="10.00" fill="#000000">ThermoPhase.h</text>
</a>
</g>
</g>
<!-- Node1&#45;&gt;Node2 -->
<g id="edge2" class="edge">
<title>Node1&#45;&gt;Node2</title>
<path fill="none" stroke="#191970" d="M780.9185,-330.2808C781.7177,-322.2888 782.7258,-312.2079 783.5924,-303.5414"/>
<polygon fill="#191970" stroke="#191970" points="787.0757,-303.8829 784.5882,-293.5842 780.1104,-303.1863 787.0757,-303.8829"/>
</g>
<!-- Node1&#45;&gt;Node31 -->
<g id="edge20" class="edge">
<title>Node1&#45;&gt;Node31</title>
<path fill="none" stroke="#191970" d="M733.3088,-330.4327C698.2131,-319.7436 650.6354,-305.2529 618.3725,-295.4267"/>
<polygon fill="#191970" stroke="#191970" points="619.0568,-291.9764 608.4709,-292.411 617.0173,-298.6727 619.0568,-291.9764"/>
</g>
<!-- Node3 -->
<g id="node4" class="node">
<title>Node3</title>
<g id="a_node4"><a xlink:href="Phase_8h.html" target="_top" xlink:title="Header file for class Phase. ">
<polygon fill="#ffffff" stroke="#000000" points="615.1494,-165.5 615.1494,-183.5 667.8438,-183.5 667.8438,-165.5 615.1494,-165.5"/>
<text text-anchor="middle" x="641.4966" y="-171.5" font-family="Helvetica,sans-Serif" font-size="10.00" fill="#000000">Phase.h</text>
</a>
</g>
</g>
<!-- Node2&#45;&gt;Node3 -->
<g id="edge3" class="edge">
<title>Node2&#45;&gt;Node3</title>
<path fill="none" stroke="#191970" d="M773.7125,-275.4982C749.1358,-256.7244 692.1656,-213.2055 661.6503,-189.8952"/>
<polygon fill="#191970" stroke="#191970" points="663.5149,-186.9152 653.4435,-183.6261 659.2656,-192.4779 663.5149,-186.9152"/>
</g>
<!-- Node28 -->
<g id="node12" class="node">
<title>Node28</title>
<g id="a_node12"><a xlink:href="MultiSpeciesThermo_8h.html" target="_top" xlink:title="Header for a general species thermodynamic property manager for a phase (see MultiSpeciesThermo). ">
<polygon fill="#ffffff" stroke="#000000" points="823.7554,-220.5 823.7554,-238.5 939.2378,-238.5 939.2378,-220.5 823.7554,-220.5"/>
<text text-anchor="middle" x="881.4966" y="-226.5" font-family="Helvetica,sans-Serif" font-size="10.00" fill="#000000">MultiSpeciesThermo.h</text>
</a>
</g>
</g>
<!-- Node2&#45;&gt;Node28 -->
<g id="edge13" class="edge">
<title>Node2&#45;&gt;Node28</title>
<path fill="none" stroke="#191970" d="M801.349,-275.4179C816.357,-266.8195 839.125,-253.7754 856.5638,-243.7844"/>
<polygon fill="#191970" stroke="#191970" points="858.6836,-246.6037 865.6206,-238.5956 855.2038,-240.5299 858.6836,-246.6037"/>
</g>
<!-- Node21 -->
<g id="node14" class="node">
<title>Node21</title>
<g id="a_node14"><a xlink:href="global_8h.html" target="_top" xlink:title="This file contains definitions for utility functions and text for modules, inputfiles, logs, textlogs, (see Input File Handling, Diagnostic Output, and Writing messages to the screen). ">
<polygon fill="#ffffff" stroke="#ff0000" points="961.6841,-110.5 961.6841,-128.5 1073.3091,-128.5 1073.3091,-110.5 961.6841,-110.5"/>
<text text-anchor="middle" x="1017.4966" y="-116.5" font-family="Helvetica,sans-Serif" font-size="10.00" fill="#000000">cantera/base/global.h</text>
</a>
</g>
</g>
<!-- Node2&#45;&gt;Node21 -->
<g id="edge19" class="edge">
<title>Node2&#45;&gt;Node21</title>
<path fill="none" stroke="#191970" d="M829.2354,-276.1806C870.8951,-267.5772 929.9238,-253.405 948.4966,-239 982.4378,-212.6752 1002.6822,-164.6067 1011.7665,-138.1653"/>
<polygon fill="#191970" stroke="#191970" points="1015.119,-139.1736 1014.8924,-128.5812 1008.464,-137.003 1015.119,-139.1736"/>
</g>
<!-- Node4 -->
<g id="node5" class="node">
<title>Node4</title>
<g id="a_node5"><a xlink:href="ctexceptions_8h.html" target="_top" xlink:title="Definitions for the classes that are thrown when Cantera experiences an error condition (also contain...">
<polygon fill="#ffffff" stroke="#ff0000" points="765.2358,-110.5 765.2358,-128.5 905.7573,-128.5 905.7573,-110.5 765.2358,-110.5"/>
<text text-anchor="middle" x="835.4966" y="-116.5" font-family="Helvetica,sans-Serif" font-size="10.00" fill="#000000">cantera/base/ctexceptions.h</text>
</a>
</g>
</g>
<!-- Node3&#45;&gt;Node4 -->
<g id="edge4" class="edge">
<title>Node3&#45;&gt;Node4</title>
<path fill="none" stroke="#191970" d="M668.0647,-166.9678C700.4532,-157.7855 755.5718,-142.1591 793.6729,-131.3572"/>
<polygon fill="#191970" stroke="#191970" points="794.7851,-134.6799 803.4512,-128.585 792.8757,-127.9454 794.7851,-134.6799"/>
</g>
<!-- Node18 -->
<g id="node6" class="node">
<title>Node18</title>
<g id="a_node6"><a xlink:href="Elements_8h.html" target="_top" xlink:title="Contains the getElementWeight function and the definitions of element constraint types. ">
<polygon fill="#ffffff" stroke="#000000" points="573.4673,-110.5 573.4673,-128.5 709.5259,-128.5 709.5259,-110.5 573.4673,-110.5"/>
<text text-anchor="middle" x="641.4966" y="-116.5" font-family="Helvetica,sans-Serif" font-size="10.00" fill="#000000">cantera/thermo/Elements.h</text>
</a>
</g>
</g>
<!-- Node3&#45;&gt;Node18 -->
<g id="edge5" class="edge">
<title>Node3&#45;&gt;Node18</title>
<path fill="none" stroke="#191970" d="M641.4966,-165.4179C641.4966,-158.2164 641.4966,-147.8962 641.4966,-138.8632"/>
<polygon fill="#191970" stroke="#191970" points="644.9967,-138.7794 641.4966,-128.7795 637.9967,-138.7795 644.9967,-138.7794"/>
</g>
<!-- Node19 -->
<g id="node10" class="node">
<title>Node19</title>
<g id="a_node10"><a xlink:href="Species_8h.html" target="_top" xlink:title="Declaration for class Cantera::Species. ">
<polygon fill="#ffffff" stroke="#ff0000" points="269.5215,-110.5 269.5215,-128.5 399.4717,-128.5 399.4717,-110.5 269.5215,-110.5"/>
<text text-anchor="middle" x="334.4966" y="-116.5" font-family="Helvetica,sans-Serif" font-size="10.00" fill="#000000">cantera/thermo/Species.h</text>
</a>
</g>
</g>
<!-- Node3&#45;&gt;Node19 -->
<g id="edge9" class="edge">
<title>Node3&#45;&gt;Node19</title>
<path fill="none" stroke="#191970" d="M615.0562,-169.7631C566.4291,-161.0514 461.6754,-142.2845 394.8317,-130.3092"/>
<polygon fill="#191970" stroke="#191970" points="395.3105,-126.8394 384.85,-128.521 394.076,-133.7296 395.3105,-126.8394"/>
</g>
<!-- Node26 -->
<g id="node11" class="node">
<title>Node26</title>
<g id="a_node11"><a xlink:href="ValueCache_8h.html" target="_top" xlink:title="cantera/base/ValueCache.h">
<polygon fill="#ffffff" stroke="#ff0000" points="417.1563,-110.5 417.1563,-128.5 555.8369,-128.5 555.8369,-110.5 417.1563,-110.5"/>
<text text-anchor="middle" x="486.4966" y="-116.5" font-family="Helvetica,sans-Serif" font-size="10.00" fill="#000000">cantera/base/ValueCache.h</text>
</a>
</g>
</g>
<!-- Node3&#45;&gt;Node26 -->
<g id="edge11" class="edge">
<title>Node3&#45;&gt;Node26</title>
<path fill="none" stroke="#191970" d="M615.9015,-165.4179C590.1345,-156.2748 550.2004,-142.1046 521.5098,-131.924"/>
<polygon fill="#191970" stroke="#191970" points="522.4668,-128.5499 511.8721,-128.5042 520.1259,-135.1469 522.4668,-128.5499"/>
</g>
<!-- Node6 -->
<g id="node7" class="node">
<title>Node6</title>
<g id="a_node7"><a xlink:href="ct__defs_8h.html" target="_top" xlink:title="This file contains definitions of terms that are used in internal routines and are unlikely to need m...">
<polygon fill="#ffffff" stroke="#ff0000" points="458.2061,-55.5 458.2061,-73.5 514.7871,-73.5 514.7871,-55.5 458.2061,-55.5"/>
<text text-anchor="middle" x="486.4966" y="-61.5" font-family="Helvetica,sans-Serif" font-size="10.00" fill="#000000">ct_defs.h</text>
</a>
</g>
</g>
<!-- Node18&#45;&gt;Node6 -->
<g id="edge6" class="edge">
<title>Node18&#45;&gt;Node6</title>
<path fill="none" stroke="#191970" d="M615.9015,-110.4179C590.1345,-101.2748 550.2004,-87.1046 521.5098,-76.924"/>
<polygon fill="#191970" stroke="#191970" points="522.4668,-73.5499 511.8721,-73.5042 520.1259,-80.1469 522.4668,-73.5499"/>
</g>
<!-- Node7 -->
<g id="node8" class="node">
<title>Node7</title>
<g id="a_node8"><a xlink:href="config_8h_source.html" target="_top" xlink:title="config.h">
<polygon fill="#ffffff" stroke="#000000" points="417.9844,-.5 417.9844,-18.5 469.0088,-18.5 469.0088,-.5 417.9844,-.5"/>
<text text-anchor="middle" x="443.4966" y="-6.5" font-family="Helvetica,sans-Serif" font-size="10.00" fill="#000000">config.h</text>
</a>
</g>
</g>
<!-- Node6&#45;&gt;Node7 -->
<g id="edge7" class="edge">
<title>Node6&#45;&gt;Node7</title>
<path fill="none" stroke="#191970" d="M479.396,-55.4179C473.3326,-47.6624 464.4415,-36.29 457.0248,-26.8035"/>
<polygon fill="#191970" stroke="#191970" points="459.668,-24.5018 450.7514,-18.7795 454.1534,-28.8133 459.668,-24.5018"/>
</g>
<!-- Node10 -->
<g id="node9" class="node">
<title>Node10</title>
<polygon fill="#ffffff" stroke="#bfbfbf" points="507.8809,-.5 507.8809,-18.5 551.1123,-18.5 551.1123,-.5 507.8809,-.5"/>
<text text-anchor="middle" x="529.4966" y="-6.5" font-family="Helvetica,sans-Serif" font-size="10.00" fill="#000000">vector</text>
</g>
<!-- Node6&#45;&gt;Node10 -->
<g id="edge8" class="edge">
<title>Node6&#45;&gt;Node10</title>
<path fill="none" stroke="#191970" d="M493.5972,-55.4179C499.6605,-47.6624 508.5517,-36.29 515.9684,-26.8035"/>
<polygon fill="#191970" stroke="#191970" points="518.8398,-28.8133 522.2417,-18.7795 513.3251,-24.5018 518.8398,-28.8133"/>
</g>
<!-- Node19&#45;&gt;Node6 -->
<g id="edge10" class="edge">
<title>Node19&#45;&gt;Node6</title>
<path fill="none" stroke="#191970" d="M359.5963,-110.4179C384.8645,-101.2748 424.0257,-87.1046 452.1611,-76.924"/>
<polygon fill="#191970" stroke="#191970" points="453.3998,-80.198 461.6122,-73.5042 451.018,-73.6156 453.3998,-80.198"/>
</g>
<!-- Node26&#45;&gt;Node6 -->
<g id="edge12" class="edge">
<title>Node26&#45;&gt;Node6</title>
<path fill="none" stroke="#191970" d="M486.4966,-110.4179C486.4966,-103.2164 486.4966,-92.8962 486.4966,-83.8632"/>
<polygon fill="#191970" stroke="#191970" points="489.9967,-83.7794 486.4966,-73.7795 482.9967,-83.7795 489.9967,-83.7794"/>
</g>
<!-- Node29 -->
<g id="node13" class="node">
<title>Node29</title>
<g id="a_node13"><a xlink:href="SpeciesThermoInterpType_8h.html" target="_top" xlink:title="Pure Virtual Base class for individual species reference state thermodynamic managers and text for th...">
<polygon fill="#ffffff" stroke="#ff0000" points="823.6841,-165.5 823.6841,-183.5 965.3091,-183.5 965.3091,-165.5 823.6841,-165.5"/>
<text text-anchor="middle" x="894.4966" y="-171.5" font-family="Helvetica,sans-Serif" font-size="10.00" fill="#000000">SpeciesThermoInterpType.h</text>
</a>
</g>
</g>
<!-- Node28&#45;&gt;Node29 -->
<g id="edge14" class="edge">
<title>Node28&#45;&gt;Node29</title>
<path fill="none" stroke="#191970" d="M883.6433,-220.4179C885.3641,-213.1372 887.8385,-202.669 889.9901,-193.5659"/>
<polygon fill="#191970" stroke="#191970" points="893.4091,-194.3164 892.3033,-183.7795 886.5968,-192.7062 893.4091,-194.3164"/>
</g>
<!-- Node29&#45;&gt;Node4 -->
<g id="edge16" class="edge">
<title>Node29&#45;&gt;Node4</title>
<path fill="none" stroke="#191970" d="M884.7539,-165.4179C876.0949,-157.3458 863.2326,-145.3556 852.8229,-135.6517"/>
<polygon fill="#191970" stroke="#191970" points="855.1522,-133.0381 845.4509,-128.7795 850.379,-138.1584 855.1522,-133.0381"/>
</g>
<!-- Node29&#45;&gt;Node6 -->
<g id="edge15" class="edge">
<title>Node29&#45;&gt;Node6</title>
<path fill="none" stroke="#191970" d="M902.1205,-165.4244C912.6367,-151.7725 928.7647,-125.8653 914.4966,-110 888.6477,-81.2575 624.9473,-69.2526 524.7989,-65.7063"/>
<polygon fill="#191970" stroke="#191970" points="524.9135,-62.2083 514.7987,-65.3612 524.672,-69.2041 524.9135,-62.2083"/>
</g>
<!-- Node29&#45;&gt;Node21 -->
<g id="edge17" class="edge">
<title>Node29&#45;&gt;Node21</title>
<path fill="none" stroke="#191970" d="M914.8075,-165.4179C934.7487,-156.5011 965.3825,-142.803 988.0051,-132.6873"/>
<polygon fill="#191970" stroke="#191970" points="989.4553,-135.8728 997.1555,-128.5956 986.5978,-129.4826 989.4553,-135.8728"/>
</g>
<!-- Node21&#45;&gt;Node6 -->
<g id="edge18" class="edge">
<title>Node21&#45;&gt;Node6</title>
<path fill="none" stroke="#191970" d="M961.3555,-111.6973C956.6699,-111.1019 952.0035,-110.5281 947.4966,-110 790.9755,-91.6609 603.971,-74.7385 524.8544,-67.8087"/>
<polygon fill="#191970" stroke="#191970" points="525.1294,-64.3195 514.8629,-66.9365 524.5206,-71.293 525.1294,-64.3195"/>
</g>
<!-- Node31&#45;&gt;Node6 -->
<g id="edge21" class="edge">
<title>Node31&#45;&gt;Node6</title>
<path fill="none" stroke="#191970" d="M556.4057,-282.6286C488.4398,-276.1099 307.4715,-247.7706 253.4966,-129 250.0029,-121.3122 248.1281,-116.5183 253.4966,-110 277.6588,-80.663 387.9344,-69.9812 447.7081,-66.3015"/>
<polygon fill="#191970" stroke="#191970" points="448.118,-69.7837 457.8991,-65.7119 447.7136,-62.7954 448.118,-69.7837"/>
</g>
<!-- Node32&#45;&gt;Node31 -->
<g id="edge24" class="edge">
<title>Node32&#45;&gt;Node31</title>
<path fill="none" stroke="#191970" d="M385.183,-331.1095C434.6197,-319.4315 504.8133,-302.8504 546.788,-292.9351"/>
<polygon fill="#191970" stroke="#191970" points="547.6403,-296.3302 556.5678,-290.6249 546.031,-289.5177 547.6403,-296.3302"/>
</g>
<!-- Node33 -->
<g id="node17" class="node">
<title>Node33</title>
<g id="a_node17"><a xlink:href="WaterPropsIAPWS_8h.html" target="_top" xlink:title="Headers for a class for calculating the equation of state of water from the IAPWS 1995 Formulation ba...">
<polygon fill="#ffffff" stroke="#000000" points="0,-220.5 0,-238.5 108.9932,-238.5 108.9932,-220.5 0,-220.5"/>
<text text-anchor="middle" x="54.4966" y="-226.5" font-family="Helvetica,sans-Serif" font-size="10.00" fill="#000000">WaterPropsIAPWS.h</text>
</a>
</g>
</g>
<!-- Node32&#45;&gt;Node33 -->
<g id="edge25" class="edge">
<title>Node32&#45;&gt;Node33</title>
<path fill="none" stroke="#191970" d="M294.8988,-330.3987C241.3331,-307.9168 137.3467,-264.2728 85.4775,-242.5029"/>
<polygon fill="#191970" stroke="#191970" points="86.7009,-239.2207 76.1256,-238.5779 83.9919,-245.6752 86.7009,-239.2207"/>
</g>
<!-- Node35 -->
<g id="node19" class="node">
<title>Node35</title>
<g id="a_node19"><a xlink:href="WaterProps_8h.html" target="_top" xlink:title="Header for a class used to house several approximation routines for properties of water...">
<polygon fill="#ffffff" stroke="#000000" points="127.1133,-220.5 127.1133,-238.5 203.8799,-238.5 203.8799,-220.5 127.1133,-220.5"/>
<text text-anchor="middle" x="165.4966" y="-226.5" font-family="Helvetica,sans-Serif" font-size="10.00" fill="#000000">WaterProps.h</text>
</a>
</g>
</g>
<!-- Node32&#45;&gt;Node35 -->
<g id="edge28" class="edge">
<title>Node32&#45;&gt;Node35</title>
<path fill="none" stroke="#191970" d="M308.5096,-330.3987C277.715,-308.6725 218.9081,-267.183 187.1411,-244.7707"/>
<polygon fill="#191970" stroke="#191970" points="188.766,-241.6337 178.5772,-238.7286 184.7305,-247.3534 188.766,-241.6337"/>
</g>
<!-- Node34 -->
<g id="node18" class="node">
<title>Node34</title>
<g id="a_node18"><a xlink:href="WaterPropsIAPWSphi_8h.html" target="_top" xlink:title="Header for Lowest level of the classes which support a real water model (see class WaterPropsIAPWS an...">
<polygon fill="#ffffff" stroke="#000000" points="192.3276,-55.5 192.3276,-73.5 314.6655,-73.5 314.6655,-55.5 192.3276,-55.5"/>
<text text-anchor="middle" x="253.4966" y="-61.5" font-family="Helvetica,sans-Serif" font-size="10.00" fill="#000000">WaterPropsIAPWSphi.h</text>
</a>
</g>
</g>
<!-- Node33&#45;&gt;Node34 -->
<g id="edge26" class="edge">
<title>Node33&#45;&gt;Node34</title>
<path fill="none" stroke="#191970" d="M59.7133,-220.4997C72.681,-198.8104 108.4546,-143.0116 151.4966,-110 170.2724,-95.5996 194.3252,-84.5892 214.3577,-77.0091"/>
<polygon fill="#191970" stroke="#191970" points="215.6273,-80.2717 223.8281,-73.5637 213.2341,-73.6935 215.6273,-80.2717"/>
</g>
<!-- Node34&#45;&gt;Node7 -->
<g id="edge27" class="edge">
<title>Node34&#45;&gt;Node7</title>
<path fill="none" stroke="#191970" d="M284.8712,-55.4179C318.735,-45.6152 372.5608,-30.034 407.9614,-19.7865"/>
<polygon fill="#191970" stroke="#191970" points="409.2368,-23.0611 417.8693,-16.9184 407.2904,-16.3371 409.2368,-23.0611"/>
</g>
<!-- Node35&#45;&gt;Node6 -->
<g id="edge29" class="edge">
<title>Node35&#45;&gt;Node6</title>
<path fill="none" stroke="#191970" d="M164.2005,-220.4015C161.5728,-197.9946 158.2755,-139.8115 189.4966,-110 207.9633,-92.367 371.9079,-75.0913 448.0031,-67.9405"/>
<polygon fill="#191970" stroke="#191970" points="448.4997,-71.4096 458.1331,-66.9997 447.8523,-64.4395 448.4997,-71.4096"/>
</g>
<!-- Node37 -->
<g id="node21" class="node">
<title>Node37</title>
<g id="a_node21"><a xlink:href="GibbsExcessVPSSTP_8h.html" target="_top" xlink:title="Header for intermediate ThermoPhase object for phases which employ Gibbs excess free energy based for...">
<polygon fill="#ffffff" stroke="#000000" points="875.0649,-395.5 875.0649,-413.5 995.9282,-413.5 995.9282,-395.5 875.0649,-395.5"/>
<text text-anchor="middle" x="935.4966" y="-401.5" font-family="Helvetica,sans-Serif" font-size="10.00" fill="#000000">GibbsExcessVPSSTP.h</text>
</a>
</g>
</g>
<!-- Node36&#45;&gt;Node37 -->
<g id="edge31" class="edge">
<title>Node36&#45;&gt;Node37</title>
<path fill="none" stroke="#191970" d="M903.45,-450.2808C909.4174,-441.756 917.0485,-430.8545 923.3669,-421.8281"/>
<polygon fill="#191970" stroke="#191970" points="926.2703,-423.7837 929.1376,-413.5842 920.5357,-419.7694 926.2703,-423.7837"/>
</g>
<!-- Node37&#45;&gt;Node1 -->
<g id="edge32" class="edge">
<title>Node37&#45;&gt;Node1</title>
<path fill="none" stroke="#191970" d="M911.8035,-395.3873C889.0061,-386.619 853.9213,-373.1249 825.6081,-362.2352"/>
<polygon fill="#191970" stroke="#191970" points="826.497,-358.8272 815.907,-358.504 823.9841,-365.3606 826.497,-358.8272"/>
</g>
<!-- Node38 -->
<g id="node22" class="node">
<title>Node38</title>
<g id="a_node22"><a xlink:href="Array_8h.html" target="_top" xlink:title="Header file for class Cantera::Array2D. ">
<polygon fill="#ffffff" stroke="#000000" points="874.4517,-335.5 874.4517,-353.5 982.5415,-353.5 982.5415,-335.5 874.4517,-335.5"/>
<text text-anchor="middle" x="928.4966" y="-341.5" font-family="Helvetica,sans-Serif" font-size="10.00" fill="#000000">cantera/base/Array.h</text>
</a>
</g>
</g>
<!-- Node37&#45;&gt;Node38 -->
<g id="edge33" class="edge">
<title>Node37&#45;&gt;Node38</title>
<path fill="none" stroke="#191970" d="M934.4334,-395.3873C933.4569,-387.0174 931.9781,-374.3414 930.7407,-363.735"/>
<polygon fill="#191970" stroke="#191970" points="934.2051,-363.2255 929.5697,-353.6985 927.2522,-364.0367 934.2051,-363.2255"/>
</g>
<!-- Node38&#45;&gt;Node39 -->
<g id="edge34" class="edge">
<title>Node38&#45;&gt;Node39</title>
<path fill="none" stroke="#191970" d="M939.1048,-335.2548C950.1388,-325.4447 967.6974,-309.2809 981.4966,-294 995.2299,-278.792 1009.4041,-260.1815 1019.138,-246.8667"/>
<polygon fill="#191970" stroke="#191970" points="1022.0896,-248.7577 1025.1074,-238.6018 1016.4149,-244.6592 1022.0896,-248.7577"/>
</g>
<!-- Node42 -->
<g id="node24" class="node">
<title>Node42</title>
<polygon fill="#ffffff" stroke="#bfbfbf" points="918.3242,-275.5 918.3242,-293.5 972.6689,-293.5 972.6689,-275.5 918.3242,-275.5"/>
<text text-anchor="middle" x="945.4966" y="-281.5" font-family="Helvetica,sans-Serif" font-size="10.00" fill="#000000">iostream</text>
</g>
<!-- Node38&#45;&gt;Node42 -->
<g id="edge37" class="edge">
<title>Node38&#45;&gt;Node42</title>
<path fill="none" stroke="#191970" d="M931.0785,-335.3873C933.4749,-326.9293 937.1173,-314.074 940.1414,-303.4007"/>
<polygon fill="#191970" stroke="#191970" points="943.5317,-304.2739 942.8903,-293.6985 936.7968,-302.3656 943.5317,-304.2739"/>
</g>
<!-- Node43 -->
<g id="node25" class="node">
<title>Node43</title>
<polygon fill="#ffffff" stroke="#bfbfbf" points="854.77,-275.5 854.77,-293.5 900.2231,-293.5 900.2231,-275.5 854.77,-275.5"/>
<text text-anchor="middle" x="877.4966" y="-281.5" font-family="Helvetica,sans-Serif" font-size="10.00" fill="#000000">cstring</text>
</g>
<!-- Node38&#45;&gt;Node43 -->
<g id="edge38" class="edge">
<title>Node38&#45;&gt;Node43</title>
<path fill="none" stroke="#191970" d="M920.7508,-335.3873C913.1122,-326.4007 901.254,-312.4499 891.8843,-301.4267"/>
<polygon fill="#191970" stroke="#191970" points="894.4586,-299.0511 885.3153,-293.6985 889.125,-303.5847 894.4586,-299.0511"/>
</g>
<!-- Node39&#45;&gt;Node6 -->
<g id="edge35" class="edge">
<title>Node39&#45;&gt;Node6</title>
<path fill="none" stroke="#191970" d="M1003.5674,-226.3178C937.6321,-218.6029 776.3383,-198.4724 756.4966,-184 726.6263,-162.2128 748.0401,-132.2283 718.4966,-110 688.5463,-87.4657 583.2525,-73.9264 525.3601,-68.0168"/>
<polygon fill="#191970" stroke="#191970" points="525.4276,-64.5063 515.1308,-67.0016 524.7362,-71.4721 525.4276,-64.5063"/>
</g>
<!-- Node39&#45;&gt;Node21 -->
<g id="edge36" class="edge">
<title>Node39&#45;&gt;Node21</title>
<path fill="none" stroke="#191970" d="M1030.3509,-220.4982C1028.0846,-202.6913 1022.9849,-162.6225 1019.934,-138.6515"/>
<polygon fill="#191970" stroke="#191970" points="1023.3927,-138.1042 1018.6581,-128.6261 1016.4487,-138.988 1023.3927,-138.1042"/>
</g>
<!-- Node44&#45;&gt;Node29 -->
<g id="edge40" class="edge">
<title>Node44&#45;&gt;Node29</title>
<path fill="none" stroke="#191970" d="M1140.0755,-450.4475C1120.1147,-429.4182 1086.4966,-387.6023 1086.4966,-344.5 1086.4966,-344.5 1086.4966,-344.5 1086.4966,-284.5 1086.4966,-254.6154 1088.9353,-240.8198 1067.4966,-220 1052.3367,-205.2778 1004.4051,-193.35 962.8289,-185.406"/>
<polygon fill="#191970" stroke="#191970" points="963.4437,-181.9604 952.9723,-183.5729 962.1637,-188.8424 963.4437,-181.9604"/>
</g>
<!-- Node45&#45;&gt;Node1 -->
<g id="edge50" class="edge">
<title>Node45&#45;&gt;Node1</title>
<path fill="none" stroke="#191970" d="M779.4966,-395.3873C779.4966,-388.3369 779.4966,-378.2311 779.4966,-368.8806"/>
<polygon fill="#191970" stroke="#191970" points="782.9967,-368.8476 779.4966,-358.8477 775.9967,-368.8477 782.9967,-368.8476"/>
</g>
<!-- Node45&#45;&gt;Node31 -->
<g id="edge42" class="edge">
<title>Node45&#45;&gt;Node31</title>
<path fill="none" stroke="#191970" d="M763.3465,-395.4523C747.3006,-386.4036 722.0444,-372.0001 700.4966,-359 666.9829,-338.7807 628.7745,-314.4113 605.1437,-299.1822"/>
<polygon fill="#191970" stroke="#191970" points="606.8483,-296.1166 596.5489,-293.6317 603.0508,-301.997 606.8483,-296.1166"/>
</g>
<!-- Node46 -->
<g id="node28" class="node">
<title>Node46</title>
<g id="a_node28"><a xlink:href="FactoryBase_8h.html" target="_top" xlink:title="File contains the FactoryBase class declarations. ">
<polygon fill="#ffffff" stroke="#000000" points="1063.9624,-165.5 1063.9624,-183.5 1205.0308,-183.5 1205.0308,-165.5 1063.9624,-165.5"/>
<text text-anchor="middle" x="1134.4966" y="-171.5" font-family="Helvetica,sans-Serif" font-size="10.00" fill="#000000">cantera/base/FactoryBase.h</text>
</a>
</g>
</g>
<!-- Node45&#45;&gt;Node46 -->
<g id="edge43" class="edge">
<title>Node45&#45;&gt;Node46</title>
<path fill="none" stroke="#191970" d="M844.8293,-395.4931C897.7732,-387.2859 967.3985,-374.1563 991.4966,-359 1058.9139,-316.5983 1107.0951,-230.5687 1125.8439,-192.8828"/>
<polygon fill="#191970" stroke="#191970" points="1129.1258,-194.1365 1130.3431,-183.6119 1122.8282,-191.0803 1129.1258,-194.1365"/>
</g>
<!-- Node46&#45;&gt;Node4 -->
<g id="edge48" class="edge">
<title>Node46&#45;&gt;Node4</title>
<path fill="none" stroke="#191970" d="M1085.4576,-165.4795C1033.2086,-155.8684 950.4895,-140.6525 894.6605,-130.383"/>
<polygon fill="#191970" stroke="#191970" points="895.0305,-126.8924 884.5623,-128.5255 893.7641,-133.7769 895.0305,-126.8924"/>
</g>
<!-- Node46&#45;&gt;Node10 -->
<g id="edge44" class="edge">
<title>Node46&#45;&gt;Node10</title>
<path fill="none" stroke="#191970" d="M1205.2144,-166.8029C1253.1693,-159.9572 1310.47,-148.0267 1325.4966,-129 1330.7303,-122.373 1331.0812,-116.3341 1325.4966,-110 1273.9292,-51.5126 703.5879,-18.452 561.4404,-11.084"/>
<polygon fill="#191970" stroke="#191970" points="561.3853,-7.5766 551.2193,-10.5604 561.0271,-14.5675 561.3853,-7.5766"/>
</g>
<!-- Node46&#45;&gt;Node21 -->
<g id="edge49" class="edge">
<title>Node46&#45;&gt;Node21</title>
<path fill="none" stroke="#191970" d="M1115.1764,-165.4179C1096.3773,-156.5807 1067.5881,-143.0473 1046.1277,-132.9591"/>
<polygon fill="#191970" stroke="#191970" points="1047.3844,-129.6824 1036.8455,-128.5956 1044.4064,-136.0174 1047.3844,-129.6824"/>
</g>
<!-- Node47 -->
<g id="node29" class="node">
<title>Node47</title>
<polygon fill="#ffffff" stroke="#bfbfbf" points="1272.8809,-110.5 1272.8809,-128.5 1316.1123,-128.5 1316.1123,-110.5 1272.8809,-110.5"/>
<text text-anchor="middle" x="1294.4966" y="-116.5" font-family="Helvetica,sans-Serif" font-size="10.00" fill="#000000">mutex</text>
</g>
<!-- Node46&#45;&gt;Node47 -->
<g id="edge45" class="edge">
<title>Node46&#45;&gt;Node47</title>
<path fill="none" stroke="#191970" d="M1160.9173,-165.4179C1188.9873,-155.7688 1233.3446,-140.521 1263.1593,-130.2722"/>
<polygon fill="#191970" stroke="#191970" points="1264.3492,-133.5642 1272.6683,-127.0035 1262.0736,-126.9444 1264.3492,-133.5642"/>
</g>
<!-- Node22 -->
<g id="node30" class="node">
<title>Node22</title>
<polygon fill="#ffffff" stroke="#bfbfbf" points="1091.1938,-110.5 1091.1938,-128.5 1177.7993,-128.5 1177.7993,-110.5 1091.1938,-110.5"/>
<text text-anchor="middle" x="1134.4966" y="-116.5" font-family="Helvetica,sans-Serif" font-size="10.00" fill="#000000">unordered_map</text>
</g>
<!-- Node46&#45;&gt;Node22 -->
<g id="edge46" class="edge">
<title>Node46&#45;&gt;Node22</title>
<path fill="none" stroke="#191970" d="M1134.4966,-165.4179C1134.4966,-158.2164 1134.4966,-147.8962 1134.4966,-138.8632"/>
<polygon fill="#191970" stroke="#191970" points="1137.9967,-138.7794 1134.4966,-128.7795 1130.9967,-138.7795 1137.9967,-138.7794"/>
</g>
<!-- Node48 -->
<g id="node31" class="node">
<title>Node48</title>
<polygon fill="#ffffff" stroke="#bfbfbf" points="1196.0928,-110.5 1196.0928,-128.5 1254.9004,-128.5 1254.9004,-110.5 1196.0928,-110.5"/>
<text text-anchor="middle" x="1225.4966" y="-116.5" font-family="Helvetica,sans-Serif" font-size="10.00" fill="#000000">functional</text>
</g>
<!-- Node46&#45;&gt;Node48 -->
<g id="edge47" class="edge">
<title>Node46&#45;&gt;Node48</title>
<path fill="none" stroke="#191970" d="M1149.5234,-165.4179C1163.7497,-156.8195 1185.3319,-143.7754 1201.8624,-133.7844"/>
<polygon fill="#191970" stroke="#191970" points="1203.6996,-136.7637 1210.4475,-128.5956 1200.0787,-130.7729 1203.6996,-136.7637"/>
</g>
<!-- Node49&#45;&gt;Node6 -->
<g id="edge53" class="edge">
<title>Node49&#45;&gt;Node6</title>
<path fill="none" stroke="#191970" d="M584.7883,-223.396C491.2496,-211.176 299.9493,-180.3829 260.4966,-129 255.3539,-122.3022 255.1471,-116.5339 260.4966,-110 283.7092,-81.6483 389.3333,-70.5767 447.6045,-66.5703"/>
<polygon fill="#191970" stroke="#191970" points="448.1511,-70.0422 457.9034,-65.9018 447.6976,-63.0569 448.1511,-70.0422"/>
</g>
<!-- Node50 -->
<g id="node33" class="node">
<title>Node50</title>
<g id="a_node33"><a xlink:href="xml_8h.html" target="_top" xlink:title="Classes providing support for XML data files. ">
<polygon fill="#ffffff" stroke="#000000" points="765.5508,-165.5 765.5508,-183.5 805.4424,-183.5 805.4424,-165.5 765.5508,-165.5"/>
<text text-anchor="middle" x="785.4966" y="-171.5" font-family="Helvetica,sans-Serif" font-size="10.00" fill="#000000">xml.h</text>
</a>
</g>
</g>
<!-- Node49&#45;&gt;Node50 -->
<g id="edge54" class="edge">
<title>Node49&#45;&gt;Node50</title>
<path fill="none" stroke="#191970" d="M661.1009,-220.4179C687.0137,-210.8527 727.8315,-195.7858 755.5864,-185.5407"/>
<polygon fill="#191970" stroke="#191970" points="756.9998,-188.7499 765.169,-182.0035 754.5757,-182.183 756.9998,-188.7499"/>
</g>
<!-- Node50&#45;&gt;Node4 -->
<g id="edge55" class="edge">
<title>Node50&#45;&gt;Node4</title>
<path fill="none" stroke="#191970" d="M793.7531,-165.4179C800.9474,-157.5041 811.5654,-145.8243 820.2919,-136.2251"/>
<polygon fill="#191970" stroke="#191970" points="822.9238,-138.5332 827.0607,-128.7795 817.7442,-133.8245 822.9238,-138.5332"/>
</g>
<!-- Node50&#45;&gt;Node21 -->
<g id="edge56" class="edge">
<title>Node50&#45;&gt;Node21</title>
<path fill="none" stroke="#191970" d="M805.7028,-167.6062C808.6393,-166.6845 811.636,-165.7872 814.4966,-165 863.7175,-151.4555 920.47,-138.997 961.4322,-130.5544"/>
<polygon fill="#191970" stroke="#191970" points="962.1341,-133.9834 971.2294,-128.5496 960.7308,-127.1255 962.1341,-133.9834"/>
</g>
</g>
</svg>
