<?xml version="1.0" encoding="UTF-8" standalone="no"?>
<!DOCTYPE svg PUBLIC "-//W3C//DTD SVG 1.1//EN"
 "http://www.w3.org/Graphics/SVG/1.1/DTD/svg11.dtd">
<!-- Generated by graphviz version 2.40.1 (20161225.0304)
 -->
<!-- Title: Wall.h Pages: 1 -->
<svg width="646pt" height="84pt"
 viewBox="0.00 0.00 646.00 84.00" xmlns="http://www.w3.org/2000/svg" xmlns:xlink="http://www.w3.org/1999/xlink">
<g id="graph0" class="graph" transform="scale(1 1) rotate(0) translate(4 80)">
<title>Wall.h</title>
<polygon fill="#ffffff" stroke="transparent" points="-4,4 -4,-80 642,-80 642,4 -4,4"/>
<!-- Node34 -->
<g id="node1" class="node">
<title>Node34</title>
<polygon fill="#bfbfbf" stroke="#000000" points="359,-56.5 359,-75.5 406,-75.5 406,-56.5 359,-56.5"/>
<text text-anchor="middle" x="382.5" y="-63.5" font-family="Helvetica,sans-Serif" font-size="10.00" fill="#000000">Wall.h</text>
</g>
<!-- Node35 -->
<g id="node2" class="node">
<title>Node35</title>
<g id="a_node2"><a xlink:href="ConstPressureReactor_8cpp.html" target="_top" xlink:title="A constant pressure zero&#45;dimensional reactor. ">
<polygon fill="#ffffff" stroke="#000000" points="0,-.5 0,-19.5 143,-19.5 143,-.5 0,-.5"/>
<text text-anchor="middle" x="71.5" y="-7.5" font-family="Helvetica,sans-Serif" font-size="10.00" fill="#000000">ConstPressureReactor.cpp</text>
</a>
</g>
</g>
<!-- Node34&#45;&gt;Node35 -->
<g id="edge1" class="edge">
<title>Node34&#45;&gt;Node35</title>
<path fill="none" stroke="#191970" d="M348.8004,-59.9319C294.8311,-50.214 188.5762,-31.0813 124.4086,-19.527"/>
<polygon fill="#191970" stroke="#191970" points="348.4072,-63.4173 358.8692,-61.7449 349.6477,-56.5281 348.4072,-63.4173"/>
</g>
<!-- Node36 -->
<g id="node3" class="node">
<title>Node36</title>
<g id="a_node3"><a xlink:href="IdealGasReactor_8cpp.html" target="_top" xlink:title="A zero&#45;dimensional reactor. ">
<polygon fill="#ffffff" stroke="#000000" points="161.5,-.5 161.5,-19.5 277.5,-19.5 277.5,-.5 161.5,-.5"/>
<text text-anchor="middle" x="219.5" y="-7.5" font-family="Helvetica,sans-Serif" font-size="10.00" fill="#000000">IdealGasReactor.cpp</text>
</a>
</g>
</g>
<!-- Node34&#45;&gt;Node36 -->
<g id="edge2" class="edge">
<title>Node34&#45;&gt;Node36</title>
<path fill="none" stroke="#191970" d="M349.1803,-54.5528C319.1573,-44.2381 275.5253,-29.248 247.3275,-19.5604"/>
<polygon fill="#191970" stroke="#191970" points="348.2037,-57.918 358.7984,-57.8571 350.4782,-51.2978 348.2037,-57.918"/>
</g>
<!-- Node37 -->
<g id="node4" class="node">
<title>Node37</title>
<g id="a_node4"><a xlink:href="Reactor_8cpp.html" target="_top" xlink:title="A zero&#45;dimensional reactor. ">
<polygon fill="#ffffff" stroke="#000000" points="296,-.5 296,-19.5 369,-19.5 369,-.5 296,-.5"/>
<text text-anchor="middle" x="332.5" y="-7.5" font-family="Helvetica,sans-Serif" font-size="10.00" fill="#000000">Reactor.cpp</text>
</a>
</g>
</g>
<!-- Node34&#45;&gt;Node37 -->
<g id="edge3" class="edge">
<title>Node34&#45;&gt;Node37</title>
<path fill="none" stroke="#191970" d="M366.8753,-48.5004C358.3727,-38.9775 348.1782,-27.5596 341.1095,-19.6427"/>
<polygon fill="#191970" stroke="#191970" points="364.5197,-51.1172 373.7907,-56.2455 369.7413,-46.4551 364.5197,-51.1172"/>
</g>
<!-- Node38 -->
<g id="node5" class="node">
<title>Node38</title>
<g id="a_node5"><a xlink:href="ReactorNet_8cpp.html" target="_top" xlink:title="ReactorNet.cpp">
<polygon fill="#ffffff" stroke="#000000" points="387,-.5 387,-19.5 478,-19.5 478,-.5 387,-.5"/>
<text text-anchor="middle" x="432.5" y="-7.5" font-family="Helvetica,sans-Serif" font-size="10.00" fill="#000000">ReactorNet.cpp</text>
</a>
</g>
</g>
<!-- Node34&#45;&gt;Node38 -->
<g id="edge4" class="edge">
<title>Node34&#45;&gt;Node38</title>
<path fill="none" stroke="#191970" d="M398.1247,-48.5004C406.6273,-38.9775 416.8218,-27.5596 423.8905,-19.6427"/>
<polygon fill="#191970" stroke="#191970" points="395.2587,-46.4551 391.2093,-56.2455 400.4803,-51.1172 395.2587,-46.4551"/>
</g>
<!-- Node39 -->
<g id="node6" class="node">
<title>Node39</title>
<g id="a_node6"><a xlink:href="Wall_8cpp.html" target="_top" xlink:title="Wall.cpp">
<polygon fill="#ffffff" stroke="#000000" points="496.5,-.5 496.5,-19.5 554.5,-19.5 554.5,-.5 496.5,-.5"/>
<text text-anchor="middle" x="525.5" y="-7.5" font-family="Helvetica,sans-Serif" font-size="10.00" fill="#000000">Wall.cpp</text>
</a>
</g>
</g>
<!-- Node34&#45;&gt;Node39 -->
<g id="edge5" class="edge">
<title>Node34&#45;&gt;Node39</title>
<path fill="none" stroke="#191970" d="M415.5748,-53.0476C441.6155,-42.8499 477.3303,-28.8636 500.892,-19.6367"/>
<polygon fill="#191970" stroke="#191970" points="414.1487,-49.8472 406.1135,-56.7527 416.7013,-56.3652 414.1487,-49.8472"/>
</g>
<!-- Node40 -->
<g id="node7" class="node">
<title>Node40</title>
<g id="a_node7"><a xlink:href="zerodim_8h_source.html" target="_top" xlink:title="zerodim.h">
<polygon fill="#ffffff" stroke="#000000" points="573,-.5 573,-19.5 638,-19.5 638,-.5 573,-.5"/>
<text text-anchor="middle" x="605.5" y="-7.5" font-family="Helvetica,sans-Serif" font-size="10.00" fill="#000000">zerodim.h</text>
</a>
</g>
</g>
<!-- Node34&#45;&gt;Node40 -->
<g id="edge6" class="edge">
<title>Node34&#45;&gt;Node40</title>
<path fill="none" stroke="#191970" d="M416.2089,-57.535C458.6087,-46.8875 530.9222,-28.7281 572.8276,-18.2047"/>
<polygon fill="#191970" stroke="#191970" points="415.2113,-54.1768 406.3649,-60.007 416.9163,-60.966 415.2113,-54.1768"/>
</g>
</g>
</svg>
