<?xml version="1.0" encoding="UTF-8" standalone="no"?>
<!DOCTYPE svg PUBLIC "-//W3C//DTD SVG 1.1//EN"
 "http://www.w3.org/Graphics/SVG/1.1/DTD/svg11.dtd">
<!-- Generated by graphviz version 2.38.0 (20151222.1943)
 -->
<!-- Title: Wall.cpp Pages: 1 -->
<svg width="934pt" height="487pt"
 viewBox="0.00 0.00 934.37 487.00" xmlns="http://www.w3.org/2000/svg" xmlns:xlink="http://www.w3.org/1999/xlink">
<g id="graph0" class="graph" transform="scale(1 1) rotate(0) translate(4 483)">
<title>Wall.cpp</title>
<polygon fill="white" stroke="none" points="-4,4 -4,-483 930.365,-483 930.365,4 -4,4"/>
<!-- Node1 -->
<g id="node1" class="node"><title>Node1</title>
<polygon fill="#bfbfbf" stroke="black" points="554,-459.5 554,-478.5 607,-478.5 607,-459.5 554,-459.5"/>
<text text-anchor="middle" x="580.5" y="-466.5" font-family="FreeSans" font-size="10.00">Wall.cpp</text>
</g>
<!-- Node2 -->
<g id="node2" class="node"><title>Node2</title>
<g id="a_node2"><a xlink:href="Wall_8h.html" target="_top" xlink:title="Header file for class Wall. ">
<polygon fill="white" stroke="black" points="527.5,-403.5 527.5,-422.5 633.5,-422.5 633.5,-403.5 527.5,-403.5"/>
<text text-anchor="middle" x="580.5" y="-410.5" font-family="FreeSans" font-size="10.00">cantera/zeroD/Wall.h</text>
</a>
</g>
</g>
<!-- Node1&#45;&gt;Node2 -->
<g id="edge1" class="edge"><title>Node1&#45;&gt;Node2</title>
<path fill="none" stroke="midnightblue" d="M580.5,-459.083C580.5,-452.006 580.5,-441.861 580.5,-432.986"/>
<polygon fill="midnightblue" stroke="midnightblue" points="584,-432.751 580.5,-422.751 577,-432.751 584,-432.751"/>
</g>
<!-- Node7 -->
<g id="node7" class="node"><title>Node7</title>
<g id="a_node7"><a xlink:href="Func1_8h.html" target="_top" xlink:title="cantera/numerics/Func1.h">
<polygon fill="white" stroke="black" points="656.5,-347.5 656.5,-366.5 784.5,-366.5 784.5,-347.5 656.5,-347.5"/>
<text text-anchor="middle" x="720.5" y="-354.5" font-family="FreeSans" font-size="10.00">cantera/numerics/Func1.h</text>
</a>
</g>
</g>
<!-- Node1&#45;&gt;Node7 -->
<g id="edge49" class="edge"><title>Node1&#45;&gt;Node7</title>
<path fill="none" stroke="midnightblue" d="M593.032,-459.275C605.685,-450.38 625.705,-436.069 642.5,-423 663.628,-406.559 687.14,-386.748 702.771,-373.353"/>
<polygon fill="midnightblue" stroke="midnightblue" points="705.283,-375.809 710.579,-366.633 700.716,-370.503 705.283,-375.809"/>
</g>
<!-- Node17 -->
<g id="node17" class="node"><title>Node17</title>
<g id="a_node17"><a xlink:href="ReactorNet_8h.html" target="_top" xlink:title="cantera/zeroD/ReactorNet.h">
<polygon fill="white" stroke="black" points="351.5,-403.5 351.5,-422.5 487.5,-422.5 487.5,-403.5 351.5,-403.5"/>
<text text-anchor="middle" x="419.5" y="-410.5" font-family="FreeSans" font-size="10.00">cantera/zeroD/ReactorNet.h</text>
</a>
</g>
</g>
<!-- Node1&#45;&gt;Node17 -->
<g id="edge17" class="edge"><title>Node1&#45;&gt;Node17</title>
<path fill="none" stroke="midnightblue" d="M554.989,-459.444C527.904,-450.359 484.91,-435.939 454.631,-425.783"/>
<polygon fill="midnightblue" stroke="midnightblue" points="455.486,-422.378 444.892,-422.516 453.26,-429.015 455.486,-422.378"/>
</g>
<!-- Node24 -->
<g id="node24" class="node"><title>Node24</title>
<g id="a_node24"><a xlink:href="stringUtils_8h.html" target="_top" xlink:title="Contains declarations for string manipulation functions within Cantera. ">
<polygon fill="white" stroke="black" points="155,-112.5 155,-131.5 280,-131.5 280,-112.5 155,-112.5"/>
<text text-anchor="middle" x="217.5" y="-119.5" font-family="FreeSans" font-size="10.00">cantera/base/stringUtils.h</text>
</a>
</g>
</g>
<!-- Node1&#45;&gt;Node24 -->
<g id="edge53" class="edge"><title>Node1&#45;&gt;Node24</title>
<path fill="none" stroke="midnightblue" d="M553.759,-467.934C449.563,-466.969 76.5,-456.628 76.5,-358 76.5,-358 76.5,-358 76.5,-300 76.5,-260.553 163.26,-174.08 200.667,-138.631"/>
<polygon fill="midnightblue" stroke="midnightblue" points="203.359,-140.905 208.249,-131.506 198.565,-135.804 203.359,-140.905"/>
</g>
<!-- Node32 -->
<g id="node32" class="node"><title>Node32</title>
<g id="a_node32"><a xlink:href="SurfPhase_8h.html" target="_top" xlink:title="Header for a simple thermodynamics model of a surface phase derived from ThermoPhase, assuming an ideal solution model (see Thermodynamic Properties and class SurfPhase). ">
<polygon fill="white" stroke="black" points="760,-291.5 760,-310.5 897,-310.5 897,-291.5 760,-291.5"/>
<text text-anchor="middle" x="828.5" y="-298.5" font-family="FreeSans" font-size="10.00">cantera/thermo/SurfPhase.h</text>
</a>
</g>
</g>
<!-- Node1&#45;&gt;Node32 -->
<g id="edge50" class="edge"><title>Node1&#45;&gt;Node32</title>
<path fill="none" stroke="midnightblue" d="M607.189,-461.236C650.879,-448.991 738.314,-419.432 793.5,-367 807.124,-354.056 816.623,-334.616 822.253,-320.368"/>
<polygon fill="midnightblue" stroke="midnightblue" points="825.65,-321.272 825.809,-310.678 819.078,-318.86 825.65,-321.272"/>
</g>
<!-- Node3 -->
<g id="node3" class="node"><title>Node3</title>
<g id="a_node3"><a xlink:href="ctexceptions_8h.html" target="_top" xlink:title="Definitions for the classes that are thrown when Cantera experiences an error condition (also contain...">
<polygon fill="white" stroke="black" points="0,-112.5 0,-131.5 137,-131.5 137,-112.5 0,-112.5"/>
<text text-anchor="middle" x="68.5" y="-119.5" font-family="FreeSans" font-size="10.00">cantera/base/ctexceptions.h</text>
</a>
</g>
</g>
<!-- Node2&#45;&gt;Node3 -->
<g id="edge2" class="edge"><title>Node2&#45;&gt;Node3</title>
<path fill="none" stroke="midnightblue" d="M528.069,-403.463C487.414,-396.055 430.015,-383.857 381.5,-367 214.963,-309.137 116.747,-340.045 27.5,-188 17.2994,-170.622 33.4053,-151.125 48.3282,-138.058"/>
<polygon fill="midnightblue" stroke="midnightblue" points="50.8012,-140.557 56.3224,-131.514 46.3673,-135.14 50.8012,-140.557"/>
</g>
<!-- Node2&#45;&gt;Node7 -->
<g id="edge6" class="edge"><title>Node2&#45;&gt;Node7</title>
<path fill="none" stroke="midnightblue" d="M602.683,-403.444C625.928,-394.478 662.649,-380.314 688.915,-370.183"/>
<polygon fill="midnightblue" stroke="midnightblue" points="690.35,-373.381 698.42,-366.516 687.831,-366.85 690.35,-373.381"/>
</g>
<!-- Node4 -->
<g id="node4" class="node"><title>Node4</title>
<polygon fill="white" stroke="#bfbfbf" points="74.5,-56.5 74.5,-75.5 132.5,-75.5 132.5,-56.5 74.5,-56.5"/>
<text text-anchor="middle" x="103.5" y="-63.5" font-family="FreeSans" font-size="10.00">exception</text>
</g>
<!-- Node3&#45;&gt;Node4 -->
<g id="edge3" class="edge"><title>Node3&#45;&gt;Node4</title>
<path fill="none" stroke="midnightblue" d="M74.2795,-112.083C79.1724,-104.534 86.3274,-93.4948 92.3326,-84.2298"/>
<polygon fill="midnightblue" stroke="midnightblue" points="95.326,-86.0463 97.828,-75.7511 89.452,-82.239 95.326,-86.0463"/>
</g>
<!-- Node5 -->
<g id="node5" class="node"><title>Node5</title>
<polygon fill="white" stroke="#bfbfbf" points="129.5,-0.5 129.5,-19.5 169.5,-19.5 169.5,-0.5 129.5,-0.5"/>
<text text-anchor="middle" x="149.5" y="-7.5" font-family="FreeSans" font-size="10.00">string</text>
</g>
<!-- Node3&#45;&gt;Node5 -->
<g id="edge4" class="edge"><title>Node3&#45;&gt;Node5</title>
<path fill="none" stroke="midnightblue" d="M65.2454,-112.268C60.9103,-99.0512 54.9383,-73.6399 65.5,-56 77.1705,-36.5083 100.49,-24.9796 119.604,-18.4795"/>
<polygon fill="midnightblue" stroke="midnightblue" points="120.891,-21.7449 129.41,-15.445 118.822,-15.0577 120.891,-21.7449"/>
</g>
<!-- Node6 -->
<g id="node6" class="node"><title>Node6</title>
<polygon fill="white" stroke="#bfbfbf" points="189,-56.5 189,-75.5 292,-75.5 292,-56.5 189,-56.5"/>
<text text-anchor="middle" x="240.5" y="-63.5" font-family="FreeSans" font-size="10.00">cantera/ext/format.h</text>
</g>
<!-- Node3&#45;&gt;Node6 -->
<g id="edge5" class="edge"><title>Node3&#45;&gt;Node6</title>
<path fill="none" stroke="midnightblue" d="M95.7539,-112.444C124.941,-103.28 171.421,-88.6876 203.809,-78.5192"/>
<polygon fill="midnightblue" stroke="midnightblue" points="204.881,-81.8512 213.374,-75.5164 202.784,-75.1726 204.881,-81.8512"/>
</g>
<!-- Node8 -->
<g id="node8" class="node"><title>Node8</title>
<g id="a_node8"><a xlink:href="ct__defs_8h.html" target="_top" xlink:title="This file contains definitions of terms that are used in internal routines and are unlikely to need m...">
<polygon fill="white" stroke="black" points="333.5,-56.5 333.5,-75.5 447.5,-75.5 447.5,-56.5 333.5,-56.5"/>
<text text-anchor="middle" x="390.5" y="-63.5" font-family="FreeSans" font-size="10.00">cantera/base/ct_defs.h</text>
</a>
</g>
</g>
<!-- Node7&#45;&gt;Node8 -->
<g id="edge7" class="edge"><title>Node7&#45;&gt;Node8</title>
<path fill="none" stroke="midnightblue" d="M783.989,-347.485C830.39,-340.02 888.118,-327.737 905.5,-311 928.962,-288.409 925.5,-273.07 925.5,-240.5 925.5,-240.5 925.5,-240.5 925.5,-177 925.5,-82.4876 601.111,-68.4673 457.52,-66.8908"/>
<polygon fill="midnightblue" stroke="midnightblue" points="457.533,-63.3909 447.501,-66.7979 457.468,-70.3906 457.533,-63.3909"/>
</g>
<!-- Node16 -->
<g id="node16" class="node"><title>Node16</title>
<polygon fill="white" stroke="#bfbfbf" points="689,-291.5 689,-310.5 742,-310.5 742,-291.5 689,-291.5"/>
<text text-anchor="middle" x="715.5" y="-298.5" font-family="FreeSans" font-size="10.00">iostream</text>
</g>
<!-- Node7&#45;&gt;Node16 -->
<g id="edge16" class="edge"><title>Node7&#45;&gt;Node16</title>
<path fill="none" stroke="midnightblue" d="M719.674,-347.083C719.019,-340.006 718.08,-329.861 717.258,-320.986"/>
<polygon fill="midnightblue" stroke="midnightblue" points="720.717,-320.386 716.31,-310.751 713.747,-321.031 720.717,-320.386"/>
</g>
<!-- Node8&#45;&gt;Node5 -->
<g id="edge13" class="edge"><title>Node8&#45;&gt;Node5</title>
<path fill="none" stroke="midnightblue" d="M344.311,-56.464C303.362,-48.6127 241.765,-36.1115 179.679,-20.1277"/>
<polygon fill="midnightblue" stroke="midnightblue" points="180.273,-16.6657 169.713,-17.5327 178.509,-23.4398 180.273,-16.6657"/>
</g>
<!-- Node9 -->
<g id="node9" class="node"><title>Node9</title>
<g id="a_node9"><a xlink:href="config_8h_source.html" target="_top" xlink:title="config.h">
<polygon fill="white" stroke="black" points="187.5,-0.5 187.5,-19.5 237.5,-19.5 237.5,-0.5 187.5,-0.5"/>
<text text-anchor="middle" x="212.5" y="-7.5" font-family="FreeSans" font-size="10.00">config.h</text>
</a>
</g>
</g>
<!-- Node8&#45;&gt;Node9 -->
<g id="edge8" class="edge"><title>Node8&#45;&gt;Node9</title>
<path fill="none" stroke="midnightblue" d="M362.295,-56.4435C331.202,-47.0106 281.144,-31.8245 247.552,-21.6337"/>
<polygon fill="midnightblue" stroke="midnightblue" points="248.28,-18.1972 237.695,-18.6433 246.248,-24.8957 248.28,-18.1972"/>
</g>
<!-- Node10 -->
<g id="node10" class="node"><title>Node10</title>
<polygon fill="white" stroke="#bfbfbf" points="255.5,-0.5 255.5,-19.5 299.5,-19.5 299.5,-0.5 255.5,-0.5"/>
<text text-anchor="middle" x="277.5" y="-7.5" font-family="FreeSans" font-size="10.00">cmath</text>
</g>
<!-- Node8&#45;&gt;Node10 -->
<g id="edge9" class="edge"><title>Node8&#45;&gt;Node10</title>
<path fill="none" stroke="midnightblue" d="M372.595,-56.4435C354.246,-47.6751 325.495,-33.9355 304.406,-23.8579"/>
<polygon fill="midnightblue" stroke="midnightblue" points="305.853,-20.6703 295.321,-19.5164 302.835,-26.9862 305.853,-20.6703"/>
</g>
<!-- Node11 -->
<g id="node11" class="node"><title>Node11</title>
<polygon fill="white" stroke="#bfbfbf" points="317.5,-0.5 317.5,-19.5 361.5,-19.5 361.5,-0.5 317.5,-0.5"/>
<text text-anchor="middle" x="339.5" y="-7.5" font-family="FreeSans" font-size="10.00">cstdlib</text>
</g>
<!-- Node8&#45;&gt;Node11 -->
<g id="edge10" class="edge"><title>Node8&#45;&gt;Node11</title>
<path fill="none" stroke="midnightblue" d="M382.078,-56.083C374.652,-48.2195 363.648,-36.5688 354.688,-27.0813"/>
<polygon fill="midnightblue" stroke="midnightblue" points="357.176,-24.618 347.765,-19.7511 352.087,-29.4244 357.176,-24.618"/>
</g>
<!-- Node12 -->
<g id="node12" class="node"><title>Node12</title>
<polygon fill="white" stroke="#bfbfbf" points="380,-0.5 380,-19.5 423,-19.5 423,-0.5 380,-0.5"/>
<text text-anchor="middle" x="401.5" y="-7.5" font-family="FreeSans" font-size="10.00">vector</text>
</g>
<!-- Node8&#45;&gt;Node12 -->
<g id="edge11" class="edge"><title>Node8&#45;&gt;Node12</title>
<path fill="none" stroke="midnightblue" d="M392.316,-56.083C393.774,-48.9272 395.871,-38.6353 397.693,-29.6911"/>
<polygon fill="midnightblue" stroke="midnightblue" points="401.151,-30.2485 399.717,-19.7511 394.292,-28.8512 401.151,-30.2485"/>
</g>
<!-- Node13 -->
<g id="node13" class="node"><title>Node13</title>
<polygon fill="white" stroke="#bfbfbf" points="441,-0.5 441,-19.5 476,-19.5 476,-0.5 441,-0.5"/>
<text text-anchor="middle" x="458.5" y="-7.5" font-family="FreeSans" font-size="10.00">map</text>
</g>
<!-- Node8&#45;&gt;Node13 -->
<g id="edge12" class="edge"><title>Node8&#45;&gt;Node13</title>
<path fill="none" stroke="midnightblue" d="M401.425,-56.324C411.675,-48.1849 427.221,-35.8395 439.501,-26.0874"/>
<polygon fill="midnightblue" stroke="midnightblue" points="441.721,-28.7937 447.376,-19.8339 437.368,-23.3119 441.721,-28.7937"/>
</g>
<!-- Node14 -->
<g id="node14" class="node"><title>Node14</title>
<polygon fill="white" stroke="#bfbfbf" points="494.5,-0.5 494.5,-19.5 550.5,-19.5 550.5,-0.5 494.5,-0.5"/>
<text text-anchor="middle" x="522.5" y="-7.5" font-family="FreeSans" font-size="10.00">algorithm</text>
</g>
<!-- Node8&#45;&gt;Node14 -->
<g id="edge14" class="edge"><title>Node8&#45;&gt;Node14</title>
<path fill="none" stroke="midnightblue" d="M411.416,-56.4435C433.236,-47.5171 467.65,-33.4387 492.392,-23.3168"/>
<polygon fill="midnightblue" stroke="midnightblue" points="493.752,-26.5422 501.682,-19.5164 491.101,-20.0634 493.752,-26.5422"/>
</g>
<!-- Node15 -->
<g id="node15" class="node"><title>Node15</title>
<polygon fill="white" stroke="#bfbfbf" points="569,-0.5 569,-19.5 620,-19.5 620,-0.5 569,-0.5"/>
<text text-anchor="middle" x="594.5" y="-7.5" font-family="FreeSans" font-size="10.00">memory</text>
</g>
<!-- Node8&#45;&gt;Node15 -->
<g id="edge15" class="edge"><title>Node8&#45;&gt;Node15</title>
<path fill="none" stroke="midnightblue" d="M422.824,-56.4435C459.952,-46.6156 520.672,-30.5427 559.062,-20.3807"/>
<polygon fill="midnightblue" stroke="midnightblue" points="560.015,-23.7491 568.786,-17.8067 558.223,-16.9822 560.015,-23.7491"/>
</g>
<!-- Node18 -->
<g id="node18" class="node"><title>Node18</title>
<g id="a_node18"><a xlink:href="Reactor_8h.html" target="_top" xlink:title="Reactor.h">
<polygon fill="white" stroke="black" points="390.5,-347.5 390.5,-366.5 448.5,-366.5 448.5,-347.5 390.5,-347.5"/>
<text text-anchor="middle" x="419.5" y="-354.5" font-family="FreeSans" font-size="10.00">Reactor.h</text>
</a>
</g>
</g>
<!-- Node17&#45;&gt;Node18 -->
<g id="edge18" class="edge"><title>Node17&#45;&gt;Node18</title>
<path fill="none" stroke="midnightblue" d="M419.5,-403.083C419.5,-396.006 419.5,-385.861 419.5,-376.986"/>
<polygon fill="midnightblue" stroke="midnightblue" points="423,-376.751 419.5,-366.751 416,-376.751 423,-376.751"/>
</g>
<!-- Node28 -->
<g id="node28" class="node"><title>Node28</title>
<g id="a_node28"><a xlink:href="FuncEval_8h.html" target="_top" xlink:title="cantera/numerics/FuncEval.h">
<polygon fill="white" stroke="black" points="183,-168.5 183,-187.5 324,-187.5 324,-168.5 183,-168.5"/>
<text text-anchor="middle" x="253.5" y="-175.5" font-family="FreeSans" font-size="10.00">cantera/numerics/FuncEval.h</text>
</a>
</g>
</g>
<!-- Node17&#45;&gt;Node28 -->
<g id="edge38" class="edge"><title>Node17&#45;&gt;Node28</title>
<path fill="none" stroke="midnightblue" d="M397.196,-403.479C351.742,-384.731 249.33,-335.091 209.5,-255 203.365,-242.664 204.299,-236.758 209.5,-224 214.3,-212.225 223.829,-201.856 232.795,-194.049"/>
<polygon fill="midnightblue" stroke="midnightblue" points="235.15,-196.645 240.719,-187.631 230.745,-191.205 235.15,-196.645"/>
</g>
<!-- Node29 -->
<g id="node29" class="node"><title>Node29</title>
<g id="a_node29"><a xlink:href="Integrator_8h.html" target="_top" xlink:title="cantera/numerics/Integrator.h">
<polygon fill="white" stroke="black" points="219,-230 219,-249 362,-249 362,-230 219,-230"/>
<text text-anchor="middle" x="290.5" y="-237" font-family="FreeSans" font-size="10.00">cantera/numerics/Integrator.h</text>
</a>
</g>
</g>
<!-- Node17&#45;&gt;Node29 -->
<g id="edge42" class="edge"><title>Node17&#45;&gt;Node29</title>
<path fill="none" stroke="midnightblue" d="M410.885,-403.289C394.384,-386.364 357.643,-347.486 331.5,-311 319.171,-293.794 307.259,-272.641 299.482,-258.018"/>
<polygon fill="midnightblue" stroke="midnightblue" points="302.538,-256.309 294.804,-249.068 296.334,-259.551 302.538,-256.309"/>
</g>
<!-- Node30 -->
<g id="node30" class="node"><title>Node30</title>
<g id="a_node30"><a xlink:href="Array_8h.html" target="_top" xlink:title="Header file for class Cantera::Array2D. ">
<polygon fill="white" stroke="black" points="533,-347.5 533,-366.5 638,-366.5 638,-347.5 533,-347.5"/>
<text text-anchor="middle" x="585.5" y="-354.5" font-family="FreeSans" font-size="10.00">cantera/base/Array.h</text>
</a>
</g>
</g>
<!-- Node17&#45;&gt;Node30 -->
<g id="edge45" class="edge"><title>Node17&#45;&gt;Node30</title>
<path fill="none" stroke="midnightblue" d="M445.803,-403.444C473.851,-394.32 518.444,-379.813 549.684,-369.651"/>
<polygon fill="midnightblue" stroke="midnightblue" points="550.893,-372.938 559.32,-366.516 548.728,-366.282 550.893,-372.938"/>
</g>
<!-- Node19 -->
<g id="node19" class="node"><title>Node19</title>
<g id="a_node19"><a xlink:href="ReactorBase_8h.html" target="_top" xlink:title="ReactorBase.h">
<polygon fill="white" stroke="black" points="488.5,-291.5 488.5,-310.5 568.5,-310.5 568.5,-291.5 488.5,-291.5"/>
<text text-anchor="middle" x="528.5" y="-298.5" font-family="FreeSans" font-size="10.00">ReactorBase.h</text>
</a>
</g>
</g>
<!-- Node18&#45;&gt;Node19 -->
<g id="edge19" class="edge"><title>Node18&#45;&gt;Node19</title>
<path fill="none" stroke="midnightblue" d="M437.013,-347.324C454.572,-338.625 481.831,-325.12 502.031,-315.113"/>
<polygon fill="midnightblue" stroke="midnightblue" points="503.624,-318.23 511.031,-310.655 500.516,-311.958 503.624,-318.23"/>
</g>
<!-- Node22 -->
<g id="node22" class="node"><title>Node22</title>
<g id="a_node22"><a xlink:href="Kinetics_8h.html" target="_top" xlink:title="Base class for kinetics managers and also contains the kineticsmgr module documentation (see Kinetics...">
<polygon fill="white" stroke="black" points="340.5,-291.5 340.5,-310.5 470.5,-310.5 470.5,-291.5 340.5,-291.5"/>
<text text-anchor="middle" x="405.5" y="-298.5" font-family="FreeSans" font-size="10.00">cantera/kinetics/Kinetics.h</text>
</a>
</g>
</g>
<!-- Node18&#45;&gt;Node22 -->
<g id="edge24" class="edge"><title>Node18&#45;&gt;Node22</title>
<path fill="none" stroke="midnightblue" d="M417.188,-347.083C415.333,-339.927 412.665,-329.635 410.346,-320.691"/>
<polygon fill="midnightblue" stroke="midnightblue" points="413.666,-319.553 407.769,-310.751 406.891,-321.309 413.666,-319.553"/>
</g>
<!-- Node20 -->
<g id="node20" class="node"><title>Node20</title>
<g id="a_node20"><a xlink:href="ThermoPhase_8h.html" target="_top" xlink:title="Header file for class ThermoPhase, the base class for phases with thermodynamic properties, and the text for the Module thermoprops (see Thermodynamic Properties and class ThermoPhase). ">
<polygon fill="white" stroke="red" points="570.5,-230 570.5,-249 722.5,-249 722.5,-230 570.5,-230"/>
<text text-anchor="middle" x="646.5" y="-237" font-family="FreeSans" font-size="10.00">cantera/thermo/ThermoPhase.h</text>
</a>
</g>
</g>
<!-- Node19&#45;&gt;Node20 -->
<g id="edge20" class="edge"><title>Node19&#45;&gt;Node20</title>
<path fill="none" stroke="midnightblue" d="M545.407,-291.475C565.034,-281.578 597.631,-265.142 620.49,-253.615"/>
<polygon fill="midnightblue" stroke="midnightblue" points="622.272,-256.637 629.625,-249.009 619.12,-250.386 622.272,-256.637"/>
</g>
<!-- Node21 -->
<g id="node21" class="node"><title>Node21</title>
<g id="a_node21"><a xlink:href="global_8h.html" target="_top" xlink:title="This file contains definitions for utility functions and text for modules, inputfiles, logs, textlogs, (see Input File Handling, Diagnostic Output, and Writing messages to the screen). ">
<polygon fill="white" stroke="black" points="336.5,-112.5 336.5,-131.5 444.5,-131.5 444.5,-112.5 336.5,-112.5"/>
<text text-anchor="middle" x="390.5" y="-119.5" font-family="FreeSans" font-size="10.00">cantera/base/global.h</text>
</a>
</g>
</g>
<!-- Node20&#45;&gt;Node21 -->
<g id="edge21" class="edge"><title>Node20&#45;&gt;Node21</title>
<path fill="none" stroke="midnightblue" d="M599.816,-229.983C549.37,-220.201 472.802,-203.502 447.5,-188 427.973,-176.036 411.475,-155.244 401.331,-140.396"/>
<polygon fill="midnightblue" stroke="midnightblue" points="404.016,-138.107 395.615,-131.651 398.156,-141.936 404.016,-138.107"/>
</g>
<!-- Node21&#45;&gt;Node6 -->
<g id="edge23" class="edge"><title>Node21&#45;&gt;Node6</title>
<path fill="none" stroke="midnightblue" d="M366.732,-112.444C341.607,-103.399 301.789,-89.064 273.6,-78.9158"/>
<polygon fill="midnightblue" stroke="midnightblue" points="274.751,-75.6106 264.157,-75.5164 272.38,-82.1968 274.751,-75.6106"/>
</g>
<!-- Node21&#45;&gt;Node8 -->
<g id="edge22" class="edge"><title>Node21&#45;&gt;Node8</title>
<path fill="none" stroke="midnightblue" d="M390.5,-112.083C390.5,-105.006 390.5,-94.8611 390.5,-85.9865"/>
<polygon fill="midnightblue" stroke="midnightblue" points="394,-85.751 390.5,-75.7511 387,-85.7511 394,-85.751"/>
</g>
<!-- Node22&#45;&gt;Node20 -->
<g id="edge25" class="edge"><title>Node22&#45;&gt;Node20</title>
<path fill="none" stroke="midnightblue" d="M440.029,-291.475C482.712,-280.937 555.421,-262.986 602.182,-251.441"/>
<polygon fill="midnightblue" stroke="midnightblue" points="603.165,-254.804 612.035,-249.009 601.487,-248.008 603.165,-254.804"/>
</g>
<!-- Node22&#45;&gt;Node21 -->
<g id="edge37" class="edge"><title>Node22&#45;&gt;Node21</title>
<path fill="none" stroke="midnightblue" d="M404.777,-291.463C402.485,-264.428 395.351,-180.239 392.119,-142.109"/>
<polygon fill="midnightblue" stroke="midnightblue" points="395.584,-141.537 391.252,-131.868 388.609,-142.128 395.584,-141.537"/>
</g>
<!-- Node23 -->
<g id="node23" class="node"><title>Node23</title>
<g id="a_node23"><a xlink:href="StoichManager_8h.html" target="_top" xlink:title="StoichManager.h">
<polygon fill="white" stroke="black" points="37,-168.5 37,-187.5 126,-187.5 126,-168.5 37,-168.5"/>
<text text-anchor="middle" x="81.5" y="-175.5" font-family="FreeSans" font-size="10.00">StoichManager.h</text>
</a>
</g>
</g>
<!-- Node22&#45;&gt;Node23 -->
<g id="edge26" class="edge"><title>Node22&#45;&gt;Node23</title>
<path fill="none" stroke="midnightblue" d="M347.038,-291.468C307.303,-284.497 254.068,-272.839 209.5,-255 168.864,-238.734 125.972,-210.727 101.595,-193.633"/>
<polygon fill="midnightblue" stroke="midnightblue" points="103.38,-190.607 93.2022,-187.663 99.3223,-196.311 103.38,-190.607"/>
</g>
<!-- Node25 -->
<g id="node25" class="node"><title>Node25</title>
<g id="a_node25"><a xlink:href="mix__defs_8h.html" target="_top" xlink:title="cantera/thermo/mix\l_defs.h">
<polygon fill="white" stroke="black" points="778.5,-224.5 778.5,-254.5 878.5,-254.5 878.5,-224.5 778.5,-224.5"/>
<text text-anchor="start" x="786.5" y="-242.5" font-family="FreeSans" font-size="10.00">cantera/thermo/mix</text>
<text text-anchor="middle" x="828.5" y="-231.5" font-family="FreeSans" font-size="10.00">_defs.h</text>
</a>
</g>
</g>
<!-- Node22&#45;&gt;Node25 -->
<g id="edge32" class="edge"><title>Node22&#45;&gt;Node25</title>
<path fill="none" stroke="midnightblue" d="M468.635,-291.499C534.328,-282.603 640.168,-268.13 731.5,-255 743.351,-253.296 756.009,-251.435 768.137,-249.63"/>
<polygon fill="midnightblue" stroke="midnightblue" points="768.797,-253.071 778.171,-248.133 767.764,-246.148 768.797,-253.071"/>
</g>
<!-- Node26 -->
<g id="node26" class="node"><title>Node26</title>
<g id="a_node26"><a xlink:href="Reaction_8h.html" target="_top" xlink:title="cantera/kinetics/Reaction.h">
<polygon fill="white" stroke="red" points="418.5,-230 418.5,-249 552.5,-249 552.5,-230 418.5,-230"/>
<text text-anchor="middle" x="485.5" y="-237" font-family="FreeSans" font-size="10.00">cantera/kinetics/Reaction.h</text>
</a>
</g>
</g>
<!-- Node22&#45;&gt;Node26 -->
<g id="edge33" class="edge"><title>Node22&#45;&gt;Node26</title>
<path fill="none" stroke="midnightblue" d="M416.962,-291.475C429.675,-282.02 450.413,-266.596 465.753,-255.187"/>
<polygon fill="midnightblue" stroke="midnightblue" points="468.124,-257.785 474.059,-249.009 463.946,-252.169 468.124,-257.785"/>
</g>
<!-- Node23&#45;&gt;Node3 -->
<g id="edge31" class="edge"><title>Node23&#45;&gt;Node3</title>
<path fill="none" stroke="midnightblue" d="M79.3533,-168.083C77.6306,-160.927 75.1529,-150.635 72.9997,-141.691"/>
<polygon fill="midnightblue" stroke="midnightblue" points="76.3501,-140.654 70.6067,-131.751 69.5446,-142.293 76.3501,-140.654"/>
</g>
<!-- Node23&#45;&gt;Node24 -->
<g id="edge27" class="edge"><title>Node23&#45;&gt;Node24</title>
<path fill="none" stroke="midnightblue" d="M103.05,-168.444C125.531,-159.517 160.988,-145.439 186.48,-135.317"/>
<polygon fill="midnightblue" stroke="midnightblue" points="188.049,-138.46 196.051,-131.516 185.465,-131.954 188.049,-138.46"/>
</g>
<!-- Node24&#45;&gt;Node5 -->
<g id="edge30" class="edge"><title>Node24&#45;&gt;Node5</title>
<path fill="none" stroke="midnightblue" d="M208.871,-112.257C200.617,-103.576 188.175,-89.6294 179.5,-76 170.021,-61.1082 161.826,-42.7327 156.408,-29.323"/>
<polygon fill="midnightblue" stroke="midnightblue" points="159.584,-27.8362 152.686,-19.7948 153.064,-30.3829 159.584,-27.8362"/>
</g>
<!-- Node24&#45;&gt;Node6 -->
<g id="edge29" class="edge"><title>Node24&#45;&gt;Node6</title>
<path fill="none" stroke="midnightblue" d="M221.298,-112.083C224.413,-104.77 228.923,-94.1814 232.789,-85.1034"/>
<polygon fill="midnightblue" stroke="midnightblue" points="236.074,-86.3229 236.773,-75.7511 229.634,-83.5798 236.074,-86.3229"/>
</g>
<!-- Node24&#45;&gt;Node8 -->
<g id="edge28" class="edge"><title>Node24&#45;&gt;Node8</title>
<path fill="none" stroke="midnightblue" d="M244.912,-112.444C274.269,-103.28 321.019,-88.6876 353.596,-78.5192"/>
<polygon fill="midnightblue" stroke="midnightblue" points="354.713,-81.8371 363.216,-75.5164 352.627,-75.1551 354.713,-81.8371"/>
</g>
<!-- Node27 -->
<g id="node27" class="node"><title>Node27</title>
<g id="a_node27"><a xlink:href="utilities_8h.html" target="_top" xlink:title="Various templated functions that carry out common vector operations (see Templated Utility Functions)...">
<polygon fill="white" stroke="red" points="457,-168.5 457,-187.5 570,-187.5 570,-168.5 457,-168.5"/>
<text text-anchor="middle" x="513.5" y="-175.5" font-family="FreeSans" font-size="10.00">cantera/base/utilities.h</text>
</a>
</g>
</g>
<!-- Node26&#45;&gt;Node27 -->
<g id="edge34" class="edge"><title>Node26&#45;&gt;Node27</title>
<path fill="none" stroke="midnightblue" d="M489.512,-229.975C493.587,-221.315 500.018,-207.649 505.196,-196.645"/>
<polygon fill="midnightblue" stroke="midnightblue" points="508.405,-198.048 509.496,-187.509 502.071,-195.067 508.405,-198.048"/>
</g>
<!-- Node27&#45;&gt;Node8 -->
<g id="edge35" class="edge"><title>Node27&#45;&gt;Node8</title>
<path fill="none" stroke="midnightblue" d="M506.613,-168.481C495.944,-155.542 474.461,-130.489 453.5,-112 440.684,-100.696 425.059,-89.5202 412.576,-81.1341"/>
<polygon fill="midnightblue" stroke="midnightblue" points="414.401,-78.1451 404.127,-75.5586 410.545,-83.9877 414.401,-78.1451"/>
</g>
<!-- Node27&#45;&gt;Node21 -->
<g id="edge36" class="edge"><title>Node27&#45;&gt;Node21</title>
<path fill="none" stroke="midnightblue" d="M494.01,-168.444C473.858,-159.596 442.177,-145.687 419.169,-135.586"/>
<polygon fill="midnightblue" stroke="midnightblue" points="420.462,-132.332 409.899,-131.516 417.648,-138.741 420.462,-132.332"/>
</g>
<!-- Node28&#45;&gt;Node3 -->
<g id="edge40" class="edge"><title>Node28&#45;&gt;Node3</title>
<path fill="none" stroke="midnightblue" d="M224.186,-168.444C192.658,-159.241 142.369,-144.562 107.514,-134.388"/>
<polygon fill="midnightblue" stroke="midnightblue" points="108.257,-130.959 97.6767,-131.516 106.295,-137.678 108.257,-130.959"/>
</g>
<!-- Node28&#45;&gt;Node8 -->
<g id="edge39" class="edge"><title>Node28&#45;&gt;Node8</title>
<path fill="none" stroke="midnightblue" d="M262.817,-168.272C276.597,-155.491 303.384,-131.125 327.5,-112 341.059,-101.247 356.915,-89.9276 369.327,-81.3316"/>
<polygon fill="midnightblue" stroke="midnightblue" points="371.412,-84.146 377.675,-75.6007 367.45,-78.3751 371.412,-84.146"/>
</g>
<!-- Node28&#45;&gt;Node21 -->
<g id="edge41" class="edge"><title>Node28&#45;&gt;Node21</title>
<path fill="none" stroke="midnightblue" d="M275.208,-168.444C297.855,-159.517 333.572,-145.439 359.252,-135.317"/>
<polygon fill="midnightblue" stroke="midnightblue" points="360.874,-138.44 368.894,-131.516 358.307,-131.927 360.874,-138.44"/>
</g>
<!-- Node29&#45;&gt;Node21 -->
<g id="edge44" class="edge"><title>Node29&#45;&gt;Node21</title>
<path fill="none" stroke="midnightblue" d="M298.016,-229.819C314.594,-210.672 354.531,-164.544 376.101,-139.631"/>
<polygon fill="midnightblue" stroke="midnightblue" points="378.997,-141.633 382.897,-131.782 373.705,-137.051 378.997,-141.633"/>
</g>
<!-- Node29&#45;&gt;Node28 -->
<g id="edge43" class="edge"><title>Node29&#45;&gt;Node28</title>
<path fill="none" stroke="midnightblue" d="M285.199,-229.975C279.759,-221.227 271.141,-207.369 264.264,-196.309"/>
<polygon fill="midnightblue" stroke="midnightblue" points="267.044,-194.153 258.791,-187.509 261.1,-197.849 267.044,-194.153"/>
</g>
<!-- Node30&#45;&gt;Node16 -->
<g id="edge47" class="edge"><title>Node30&#45;&gt;Node16</title>
<path fill="none" stroke="midnightblue" d="M606.099,-347.444C627.493,-338.557 661.181,-324.563 685.524,-314.451"/>
<polygon fill="midnightblue" stroke="midnightblue" points="687.105,-317.585 694.997,-310.516 684.42,-311.12 687.105,-317.585"/>
</g>
<!-- Node30&#45;&gt;Node27 -->
<g id="edge46" class="edge"><title>Node30&#45;&gt;Node27</title>
<path fill="none" stroke="midnightblue" d="M597.942,-347.4C633.234,-323.004 731.441,-255.112 731.5,-255 737.897,-242.797 740.202,-234.682 731.5,-224 712.648,-200.859 637.17,-189.26 580.269,-183.7"/>
<polygon fill="midnightblue" stroke="midnightblue" points="580.52,-180.208 570.237,-182.763 579.868,-187.178 580.52,-180.208"/>
</g>
<!-- Node31 -->
<g id="node31" class="node"><title>Node31</title>
<polygon fill="white" stroke="#bfbfbf" points="587,-291.5 587,-310.5 632,-310.5 632,-291.5 587,-291.5"/>
<text text-anchor="middle" x="609.5" y="-298.5" font-family="FreeSans" font-size="10.00">cstring</text>
</g>
<!-- Node30&#45;&gt;Node31 -->
<g id="edge48" class="edge"><title>Node30&#45;&gt;Node31</title>
<path fill="none" stroke="midnightblue" d="M589.463,-347.083C592.713,-339.77 597.419,-329.181 601.454,-320.103"/>
<polygon fill="midnightblue" stroke="midnightblue" points="604.748,-321.311 605.611,-310.751 598.351,-318.468 604.748,-321.311"/>
</g>
<!-- Node32&#45;&gt;Node20 -->
<g id="edge52" class="edge"><title>Node32&#45;&gt;Node20</title>
<path fill="none" stroke="midnightblue" d="M802.424,-291.475C770.934,-281.18 717.802,-263.81 682.442,-252.25"/>
<polygon fill="midnightblue" stroke="midnightblue" points="683.12,-248.79 672.528,-249.009 680.945,-255.443 683.12,-248.79"/>
</g>
<!-- Node32&#45;&gt;Node25 -->
<g id="edge51" class="edge"><title>Node32&#45;&gt;Node25</title>
<path fill="none" stroke="midnightblue" d="M828.5,-291.475C828.5,-284.471 828.5,-274.192 828.5,-264.696"/>
<polygon fill="midnightblue" stroke="midnightblue" points="832,-264.523 828.5,-254.523 825,-264.523 832,-264.523"/>
</g>
</g>
</svg>
