<?xml version="1.0" encoding="UTF-8" standalone="no"?>
<!DOCTYPE svg PUBLIC "-//W3C//DTD SVG 1.1//EN"
 "http://www.w3.org/Graphics/SVG/1.1/DTD/svg11.dtd">
<!-- Generated by graphviz version 2.26.3 (20100126.1600)
 -->
<!-- Title: Wall.h Pages: 1 -->
<svg width="352pt" height="204pt"
 viewBox="0.00 0.00 352.00 204.00" xmlns="http://www.w3.org/2000/svg" xmlns:xlink="http://www.w3.org/1999/xlink">
<g id="graph1" class="graph" transform="scale(1 1) rotate(0) translate(4 200)">
<title>Wall.h</title>
<polygon fill="white" stroke="white" points="-4,5 -4,-200 349,-200 349,5 -4,5"/>
<!-- Node1 -->
<g id="node1" class="node"><title>Node1</title>
<polygon fill="#bfbfbf" stroke="black" points="155.5,-175 155.5,-195 198.5,-195 198.5,-175 155.5,-175"/>
<text text-anchor="middle" x="177" y="-182" font-family="FreeSans" font-size="10.00">Wall.h</text>
</g>
<!-- Node2 -->
<g id="node3" class="node"><title>Node2</title>
<a xlink:href="ct__defs_8h.html" target="_top" xlink:title="This file contains definitions of terms that are used in internal routines and are unlikely to need m...">
<polygon fill="white" stroke="black" points="124,-59 124,-79 238,-79 238,-59 124,-59"/>
<text text-anchor="middle" x="181" y="-66" font-family="FreeSans" font-size="10.00">cantera/base/ct_defs.h</text>
</a>
</g>
<!-- Node1&#45;&gt;Node2 -->
<g id="edge2" class="edge"><title>Node1&#45;&gt;Node2</title>
<path fill="none" stroke="midnightblue" d="M177.355,-174.706C178.015,-155.568 179.441,-114.198 180.301,-89.2654"/>
<polygon fill="midnightblue" stroke="midnightblue" points="183.805,-89.2202 180.652,-79.1055 176.809,-88.9789 183.805,-89.2202"/>
</g>
<!-- Node9 -->
<g id="node17" class="node"><title>Node9</title>
<a xlink:href="ctexceptions_8h.html" target="_top" xlink:title="Definitions for the classes that are thrown when Cantera experiences an error condition (also contain...">
<polygon fill="white" stroke="black" points="8.5,-117 8.5,-137 145.5,-137 145.5,-117 8.5,-117"/>
<text text-anchor="middle" x="77" y="-124" font-family="FreeSans" font-size="10.00">cantera/base/ctexceptions.h</text>
</a>
</g>
<!-- Node1&#45;&gt;Node9 -->
<g id="edge16" class="edge"><title>Node1&#45;&gt;Node9</title>
<path fill="none" stroke="midnightblue" d="M159.581,-174.897C144.047,-165.887 121.08,-152.567 103.308,-142.259"/>
<polygon fill="midnightblue" stroke="midnightblue" points="104.961,-139.171 94.5546,-137.182 101.449,-145.227 104.961,-139.171"/>
</g>
<!-- Node11 -->
<g id="node22" class="node"><title>Node11</title>
<a xlink:href="Func1_8h.html" target="_top" xlink:title="cantera/numerics/Func1.h">
<polygon fill="white" stroke="black" points="205,-117 205,-137 333,-137 333,-117 205,-117"/>
<text text-anchor="middle" x="269" y="-124" font-family="FreeSans" font-size="10.00">cantera/numerics/Func1.h</text>
</a>
</g>
<!-- Node1&#45;&gt;Node11 -->
<g id="edge22" class="edge"><title>Node1&#45;&gt;Node11</title>
<path fill="none" stroke="midnightblue" d="M193.025,-174.897C207.186,-165.97 228.059,-152.811 244.345,-142.543"/>
<polygon fill="midnightblue" stroke="midnightblue" points="246.257,-145.475 252.85,-137.182 242.524,-139.554 246.257,-145.475"/>
</g>
<!-- Node3 -->
<g id="node5" class="node"><title>Node3</title>
<a xlink:href="config_8h_source.html" target="_top" xlink:title="config.h">
<polygon fill="white" stroke="black" points="294,-1 294,-21 344,-21 344,-1 294,-1"/>
<text text-anchor="middle" x="319" y="-8" font-family="FreeSans" font-size="10.00">config.h</text>
</a>
</g>
<!-- Node2&#45;&gt;Node3 -->
<g id="edge4" class="edge"><title>Node2&#45;&gt;Node3</title>
<path fill="none" stroke="midnightblue" d="M205.038,-58.8972C227.262,-49.5565 260.509,-35.5831 285.365,-25.1363"/>
<polygon fill="midnightblue" stroke="midnightblue" points="286.912,-28.2829 294.775,-21.1817 284.2,-21.8297 286.912,-28.2829"/>
</g>
<!-- Node4 -->
<g id="node7" class="node"><title>Node4</title>
<polygon fill="white" stroke="#bfbfbf" points="58,-1 58,-21 102,-21 102,-1 58,-1"/>
<text text-anchor="middle" x="80" y="-8" font-family="FreeSans" font-size="10.00">cmath</text>
</g>
<!-- Node2&#45;&gt;Node4 -->
<g id="edge6" class="edge"><title>Node2&#45;&gt;Node4</title>
<path fill="none" stroke="midnightblue" d="M163.407,-58.8972C147.717,-49.8871 124.521,-36.5665 106.571,-26.2586"/>
<polygon fill="midnightblue" stroke="midnightblue" points="108.145,-23.1264 97.7301,-21.1817 104.659,-29.1967 108.145,-23.1264"/>
</g>
<!-- Node5 -->
<g id="node9" class="node"><title>Node5</title>
<polygon fill="white" stroke="#bfbfbf" points="120,-1 120,-21 164,-21 164,-1 120,-1"/>
<text text-anchor="middle" x="142" y="-8" font-family="FreeSans" font-size="10.00">cstdlib</text>
</g>
<!-- Node2&#45;&gt;Node5 -->
<g id="edge8" class="edge"><title>Node2&#45;&gt;Node5</title>
<path fill="none" stroke="midnightblue" d="M174.207,-58.8972C168.848,-50.9283 161.223,-39.5874 154.736,-29.9413"/>
<polygon fill="midnightblue" stroke="midnightblue" points="157.463,-27.723 148.978,-21.3776 151.654,-31.6291 157.463,-27.723"/>
</g>
<!-- Node6 -->
<g id="node11" class="node"><title>Node6</title>
<polygon fill="white" stroke="#bfbfbf" points="181.5,-1 181.5,-21 224.5,-21 224.5,-1 181.5,-1"/>
<text text-anchor="middle" x="203" y="-8" font-family="FreeSans" font-size="10.00">vector</text>
</g>
<!-- Node2&#45;&gt;Node6 -->
<g id="edge10" class="edge"><title>Node2&#45;&gt;Node6</title>
<path fill="none" stroke="midnightblue" d="M184.832,-58.8972C187.761,-51.1747 191.892,-40.2857 195.474,-30.841"/>
<polygon fill="midnightblue" stroke="midnightblue" points="198.79,-31.9689 199.064,-21.3776 192.245,-29.4863 198.79,-31.9689"/>
</g>
<!-- Node7 -->
<g id="node13" class="node"><title>Node7</title>
<polygon fill="white" stroke="#bfbfbf" points="241.5,-1 241.5,-21 276.5,-21 276.5,-1 241.5,-1"/>
<text text-anchor="middle" x="259" y="-8" font-family="FreeSans" font-size="10.00">map</text>
</g>
<!-- Node2&#45;&gt;Node7 -->
<g id="edge12" class="edge"><title>Node2&#45;&gt;Node7</title>
<path fill="none" stroke="midnightblue" d="M194.587,-58.8972C206.259,-50.2178 223.31,-37.5384 236.938,-27.4053"/>
<polygon fill="midnightblue" stroke="midnightblue" points="239.371,-29.9574 245.307,-21.1817 235.194,-24.3401 239.371,-29.9574"/>
</g>
<!-- Node8 -->
<g id="node15" class="node"><title>Node8</title>
<polygon fill="white" stroke="#bfbfbf" points="0,-1 0,-21 40,-21 40,-1 0,-1"/>
<text text-anchor="middle" x="20" y="-8" font-family="FreeSans" font-size="10.00">string</text>
</g>
<!-- Node2&#45;&gt;Node8 -->
<g id="edge14" class="edge"><title>Node2&#45;&gt;Node8</title>
<path fill="none" stroke="midnightblue" d="M152.357,-58.9916C127.514,-50.269 90.3656,-37.1268 49.7994,-22.2522"/>
<polygon fill="midnightblue" stroke="midnightblue" points="50.8552,-18.9114 40.2617,-18.7459 48.4399,-25.4815 50.8552,-18.9114"/>
</g>
<!-- Node9&#45;&gt;Node8 -->
<g id="edge20" class="edge"><title>Node9&#45;&gt;Node8</title>
<path fill="none" stroke="midnightblue" d="M66.5476,-116.701C57.9993,-107.732 46.1886,-94.0021 39,-80 31.1192,-64.6496 26.1973,-45.6481 23.3433,-31.4742"/>
<polygon fill="midnightblue" stroke="midnightblue" points="26.725,-30.5099 21.4807,-21.304 19.8395,-31.7709 26.725,-30.5099"/>
</g>
<!-- Node10 -->
<g id="node19" class="node"><title>Node10</title>
<polygon fill="white" stroke="#bfbfbf" points="48,-59 48,-79 106,-79 106,-59 48,-59"/>
<text text-anchor="middle" x="77" y="-66" font-family="FreeSans" font-size="10.00">exception</text>
</g>
<!-- Node9&#45;&gt;Node10 -->
<g id="edge18" class="edge"><title>Node9&#45;&gt;Node10</title>
<path fill="none" stroke="midnightblue" d="M77,-116.897C77,-109.339 77,-98.7476 77,-89.4458"/>
<polygon fill="midnightblue" stroke="midnightblue" points="80.5001,-89.3776 77,-79.3776 73.5001,-89.3776 80.5001,-89.3776"/>
</g>
<!-- Node11&#45;&gt;Node2 -->
<g id="edge24" class="edge"><title>Node11&#45;&gt;Node2</title>
<path fill="none" stroke="midnightblue" d="M253.672,-116.897C240.252,-108.052 220.53,-95.0539 205.016,-84.829"/>
<polygon fill="midnightblue" stroke="midnightblue" points="206.724,-81.7625 196.448,-79.1817 202.872,-87.6072 206.724,-81.7625"/>
</g>
<!-- Node12 -->
<g id="node25" class="node"><title>Node12</title>
<polygon fill="white" stroke="#bfbfbf" points="255.5,-59 255.5,-79 308.5,-79 308.5,-59 255.5,-59"/>
<text text-anchor="middle" x="282" y="-66" font-family="FreeSans" font-size="10.00">iostream</text>
</g>
<!-- Node11&#45;&gt;Node12 -->
<g id="edge26" class="edge"><title>Node11&#45;&gt;Node12</title>
<path fill="none" stroke="midnightblue" d="M271.264,-116.897C272.977,-109.257 275.384,-98.517 277.485,-89.1429"/>
<polygon fill="midnightblue" stroke="midnightblue" points="280.902,-89.901 279.674,-79.3776 274.072,-88.37 280.902,-89.901"/>
</g>
</g>
</svg>
