<?xml version="1.0" encoding="UTF-8" standalone="no"?>
<!DOCTYPE svg PUBLIC "-//W3C//DTD SVG 1.1//EN"
 "http://www.w3.org/Graphics/SVG/1.1/DTD/svg11.dtd">
<!-- Generated by graphviz version 2.38.0 (20140413.2041)
 -->
<!-- Title: Wall.cpp Pages: 1 -->
<svg width="926pt" height="487pt"
 viewBox="0.00 0.00 926.46 487.00" xmlns="http://www.w3.org/2000/svg" xmlns:xlink="http://www.w3.org/1999/xlink">
<g id="graph0" class="graph" transform="scale(1 1) rotate(0) translate(4 483)">
<title>Wall.cpp</title>
<polygon fill="white" stroke="none" points="-4,4 -4,-483 922.463,-483 922.463,4 -4,4"/>
<!-- Node1 -->
<g id="node1" class="node"><title>Node1</title>
<polygon fill="#bfbfbf" stroke="black" points="581.5,-459.5 581.5,-478.5 636.5,-478.5 636.5,-459.5 581.5,-459.5"/>
<text text-anchor="middle" x="609" y="-466.5" font-family="Helvetica,sans-Serif" font-size="10.00">Wall.cpp</text>
</g>
<!-- Node2 -->
<g id="node2" class="node"><title>Node2</title>
<g id="a_node2"><a xlink:href="Wall_8h.html" target="_top" xlink:title="Header file for class Wall. ">
<polygon fill="white" stroke="black" points="554.5,-403.5 554.5,-422.5 663.5,-422.5 663.5,-403.5 554.5,-403.5"/>
<text text-anchor="middle" x="609" y="-410.5" font-family="Helvetica,sans-Serif" font-size="10.00">cantera/zeroD/Wall.h</text>
</a>
</g>
</g>
<!-- Node1&#45;&gt;Node2 -->
<g id="edge1" class="edge"><title>Node1&#45;&gt;Node2</title>
<path fill="none" stroke="midnightblue" d="M609,-459.083C609,-452.006 609,-441.861 609,-432.986"/>
<polygon fill="midnightblue" stroke="midnightblue" points="612.5,-432.751 609,-422.751 605.5,-432.751 612.5,-432.751"/>
</g>
<!-- Node9 -->
<g id="node9" class="node"><title>Node9</title>
<g id="a_node9"><a xlink:href="Func1_8h.html" target="_top" xlink:title="cantera/numerics/Func1.h">
<polygon fill="white" stroke="black" points="0,-347.5 0,-366.5 130,-366.5 130,-347.5 0,-347.5"/>
<text text-anchor="middle" x="65" y="-354.5" font-family="Helvetica,sans-Serif" font-size="10.00">cantera/numerics/Func1.h</text>
</a>
</g>
</g>
<!-- Node1&#45;&gt;Node9 -->
<g id="edge48" class="edge"><title>Node1&#45;&gt;Node9</title>
<path fill="none" stroke="midnightblue" d="M581.101,-465.792C523.544,-460.896 387.671,-447.571 276,-423 211.847,-408.885 139.032,-384.54 97.8991,-369.986"/>
<polygon fill="midnightblue" stroke="midnightblue" points="98.9881,-366.659 88.3934,-366.597 96.6373,-373.252 98.9881,-366.659"/>
</g>
<!-- Node17 -->
<g id="node17" class="node"><title>Node17</title>
<g id="a_node17"><a xlink:href="ReactorNet_8h.html" target="_top" xlink:title="cantera/zeroD/ReactorNet.h">
<polygon fill="white" stroke="black" points="285,-403.5 285,-422.5 425,-422.5 425,-403.5 285,-403.5"/>
<text text-anchor="middle" x="355" y="-410.5" font-family="Helvetica,sans-Serif" font-size="10.00">cantera/zeroD/ReactorNet.h</text>
</a>
</g>
</g>
<!-- Node1&#45;&gt;Node17 -->
<g id="edge21" class="edge"><title>Node1&#45;&gt;Node17</title>
<path fill="none" stroke="midnightblue" d="M581.334,-462.118C539.057,-453.13 457.735,-435.841 404.954,-424.62"/>
<polygon fill="midnightblue" stroke="midnightblue" points="405.631,-421.186 395.122,-422.53 404.176,-428.033 405.631,-421.186"/>
</g>
<!-- Node21 -->
<g id="node21" class="node"><title>Node21</title>
<g id="a_node21"><a xlink:href="stringUtils_8h.html" target="_top" xlink:title="Contains declarations for string manipulation functions within Cantera. ">
<polygon fill="white" stroke="red" points="739,-112.5 739,-131.5 867,-131.5 867,-112.5 739,-112.5"/>
<text text-anchor="middle" x="803" y="-119.5" font-family="Helvetica,sans-Serif" font-size="10.00">cantera/base/stringUtils.h</text>
</a>
</g>
</g>
<!-- Node1&#45;&gt;Node21 -->
<g id="edge52" class="edge"><title>Node1&#45;&gt;Node21</title>
<path fill="none" stroke="midnightblue" d="M636.694,-464.216C712.538,-453.082 918,-417.435 918,-358 918,-358 918,-358 918,-238.5 918,-206.049 919.852,-192.865 899,-168 886.026,-152.53 866.546,-142.055 848.517,-135.136"/>
<polygon fill="midnightblue" stroke="midnightblue" points="849.295,-131.698 838.701,-131.648 846.952,-138.294 849.295,-131.698"/>
</g>
<!-- Node29 -->
<g id="node29" class="node"><title>Node29</title>
<g id="a_node29"><a xlink:href="SurfPhase_8h.html" target="_top" xlink:title="Header for a simple thermodynamics model of a surface phase derived from ThermoPhase, assuming an ideal solution model (see Thermodynamic Properties and class SurfPhase). ">
<polygon fill="white" stroke="black" points="697.5,-291.5 697.5,-310.5 836.5,-310.5 836.5,-291.5 697.5,-291.5"/>
<text text-anchor="middle" x="767" y="-298.5" font-family="Helvetica,sans-Serif" font-size="10.00">cantera/thermo/SurfPhase.h</text>
</a>
</g>
</g>
<!-- Node1&#45;&gt;Node29 -->
<g id="edge49" class="edge"><title>Node1&#45;&gt;Node29</title>
<path fill="none" stroke="midnightblue" d="M628.954,-459.451C660.042,-445.073 719.709,-413.038 751,-367 760.289,-353.333 764.195,-334.796 765.832,-321.015"/>
<polygon fill="midnightblue" stroke="midnightblue" points="769.344,-321.039 766.743,-310.769 762.371,-320.42 769.344,-321.039"/>
</g>
<!-- Node3 -->
<g id="node3" class="node"><title>Node3</title>
<g id="a_node3"><a xlink:href="ctexceptions_8h.html" target="_top" xlink:title="Definitions for the classes that are thrown when Cantera experiences an error condition (also contain...">
<polygon fill="white" stroke="black" points="527,-112.5 527,-131.5 667,-131.5 667,-112.5 527,-112.5"/>
<text text-anchor="middle" x="597" y="-119.5" font-family="Helvetica,sans-Serif" font-size="10.00">cantera/base/ctexceptions.h</text>
</a>
</g>
</g>
<!-- Node2&#45;&gt;Node3 -->
<g id="edge2" class="edge"><title>Node2&#45;&gt;Node3</title>
<path fill="none" stroke="midnightblue" d="M643.382,-403.495C672.659,-395.694 715.495,-382.945 751,-367 795.362,-347.078 820.974,-353.28 845,-311 849.392,-303.272 845.914,-299.842 845,-291 841.872,-260.74 847.596,-249.495 831,-224 819.359,-206.117 772.197,-177.315 753,-168 720.76,-152.357 682.07,-141.153 651.286,-133.837"/>
<polygon fill="midnightblue" stroke="midnightblue" points="651.701,-130.341 641.17,-131.504 650.128,-137.162 651.701,-130.341"/>
</g>
<!-- Node2&#45;&gt;Node9 -->
<g id="edge8" class="edge"><title>Node2&#45;&gt;Node9</title>
<path fill="none" stroke="midnightblue" d="M554.319,-407.222C468.511,-399.623 296.731,-384.005 140.619,-367.153"/>
<polygon fill="midnightblue" stroke="midnightblue" points="140.678,-363.639 130.36,-366.041 139.924,-370.598 140.678,-363.639"/>
</g>
<!-- Node11 -->
<g id="node11" class="node"><title>Node11</title>
<g id="a_node11"><a xlink:href="ReactorBase_8h.html" target="_top" xlink:title="cantera/zeroD/ReactorBase.h">
<polygon fill="white" stroke="black" points="533,-291.5 533,-310.5 679,-310.5 679,-291.5 533,-291.5"/>
<text text-anchor="middle" x="606" y="-298.5" font-family="Helvetica,sans-Serif" font-size="10.00">cantera/zeroD/ReactorBase.h</text>
</a>
</g>
</g>
<!-- Node2&#45;&gt;Node11 -->
<g id="edge11" class="edge"><title>Node2&#45;&gt;Node11</title>
<path fill="none" stroke="midnightblue" d="M599.712,-403.395C591.419,-395.025 579.856,-381.483 575,-367 569.196,-349.692 580.098,-330.982 590.537,-318.1"/>
<polygon fill="midnightblue" stroke="midnightblue" points="593.194,-320.378 597.15,-310.549 587.928,-315.766 593.194,-320.378"/>
</g>
<!-- Node16 -->
<g id="node16" class="node"><title>Node16</title>
<g id="a_node16"><a xlink:href="ReactorSurface_8h.html" target="_top" xlink:title="Header file for class ReactorSurface. ">
<polygon fill="white" stroke="black" points="584,-347.5 584,-366.5 742,-366.5 742,-347.5 584,-347.5"/>
<text text-anchor="middle" x="663" y="-354.5" font-family="Helvetica,sans-Serif" font-size="10.00">cantera/zeroD/ReactorSurface.h</text>
</a>
</g>
</g>
<!-- Node2&#45;&gt;Node16 -->
<g id="edge19" class="edge"><title>Node2&#45;&gt;Node16</title>
<path fill="none" stroke="midnightblue" d="M617.917,-403.083C625.78,-395.22 637.431,-383.569 646.919,-374.081"/>
<polygon fill="midnightblue" stroke="midnightblue" points="649.653,-376.297 654.249,-366.751 644.703,-371.347 649.653,-376.297"/>
</g>
<!-- Node4 -->
<g id="node4" class="node"><title>Node4</title>
<g id="a_node4"><a xlink:href="fmt_8h.html" target="_top" xlink:title="Wrapper for either system&#45;installed or local headers for fmt. ">
<polygon fill="white" stroke="black" points="548,-56.5 548,-75.5 646,-75.5 646,-56.5 548,-56.5"/>
<text text-anchor="middle" x="597" y="-63.5" font-family="Helvetica,sans-Serif" font-size="10.00">cantera/base/fmt.h</text>
</a>
</g>
</g>
<!-- Node3&#45;&gt;Node4 -->
<g id="edge3" class="edge"><title>Node3&#45;&gt;Node4</title>
<path fill="none" stroke="midnightblue" d="M597,-112.083C597,-105.006 597,-94.8611 597,-85.9865"/>
<polygon fill="midnightblue" stroke="midnightblue" points="600.5,-85.751 597,-75.7511 593.5,-85.7511 600.5,-85.751"/>
</g>
<!-- Node8 -->
<g id="node8" class="node"><title>Node8</title>
<polygon fill="white" stroke="#bfbfbf" points="470.5,-56.5 470.5,-75.5 529.5,-75.5 529.5,-56.5 470.5,-56.5"/>
<text text-anchor="middle" x="500" y="-63.5" font-family="Helvetica,sans-Serif" font-size="10.00">exception</text>
</g>
<!-- Node3&#45;&gt;Node8 -->
<g id="edge7" class="edge"><title>Node3&#45;&gt;Node8</title>
<path fill="none" stroke="midnightblue" d="M581.415,-112.324C566.001,-103.743 542.188,-90.486 524.29,-80.5224"/>
<polygon fill="midnightblue" stroke="midnightblue" points="525.986,-77.4606 515.546,-75.6545 522.581,-83.5767 525.986,-77.4606"/>
</g>
<!-- Node5 -->
<g id="node5" class="node"><title>Node5</title>
<g id="a_node5"><a xlink:href="ct__defs_8h.html" target="_top" xlink:title="This file contains definitions of terms that are used in internal routines and are unlikely to need m...">
<polygon fill="white" stroke="red" points="369.5,-0.5 369.5,-19.5 426.5,-19.5 426.5,-0.5 369.5,-0.5"/>
<text text-anchor="middle" x="398" y="-7.5" font-family="Helvetica,sans-Serif" font-size="10.00">ct_defs.h</text>
</a>
</g>
</g>
<!-- Node4&#45;&gt;Node5 -->
<g id="edge4" class="edge"><title>Node4&#45;&gt;Node5</title>
<path fill="none" stroke="midnightblue" d="M565.468,-56.4435C530.606,-46.9836 474.422,-31.7377 436.866,-21.5465"/>
<polygon fill="midnightblue" stroke="midnightblue" points="437.368,-18.0562 426.8,-18.8151 435.534,-24.8119 437.368,-18.0562"/>
</g>
<!-- Node6 -->
<g id="node6" class="node"><title>Node6</title>
<polygon fill="white" stroke="#bfbfbf" points="608,-0.5 608,-19.5 678,-19.5 678,-0.5 608,-0.5"/>
<text text-anchor="middle" x="643" y="-7.5" font-family="Helvetica,sans-Serif" font-size="10.00">fmt/format.h</text>
</g>
<!-- Node4&#45;&gt;Node6 -->
<g id="edge5" class="edge"><title>Node4&#45;&gt;Node6</title>
<path fill="none" stroke="midnightblue" d="M604.596,-56.083C611.227,-48.2982 621.021,-36.8015 629.058,-27.3665"/>
<polygon fill="midnightblue" stroke="midnightblue" points="631.725,-29.6332 635.545,-19.7511 626.396,-25.0939 631.725,-29.6332"/>
</g>
<!-- Node7 -->
<g id="node7" class="node"><title>Node7</title>
<polygon fill="white" stroke="#bfbfbf" points="512.5,-0.5 512.5,-19.5 589.5,-19.5 589.5,-0.5 512.5,-0.5"/>
<text text-anchor="middle" x="551" y="-7.5" font-family="Helvetica,sans-Serif" font-size="10.00">fmt/ostream.h</text>
</g>
<!-- Node4&#45;&gt;Node7 -->
<g id="edge6" class="edge"><title>Node4&#45;&gt;Node7</title>
<path fill="none" stroke="midnightblue" d="M589.404,-56.083C582.773,-48.2982 572.979,-36.8015 564.942,-27.3665"/>
<polygon fill="midnightblue" stroke="midnightblue" points="567.604,-25.0939 558.455,-19.7511 562.275,-29.6332 567.604,-25.0939"/>
</g>
<!-- Node9&#45;&gt;Node5 -->
<g id="edge9" class="edge"><title>Node9&#45;&gt;Node5</title>
<path fill="none" stroke="midnightblue" d="M56.3534,-347.465C48.1835,-338.937 36.1449,-325.101 29,-311 14.3323,-282.053 10,-272.951 10,-240.5 10,-240.5 10,-240.5 10,-121 10,-48.8857 261.224,-21.6037 359.37,-13.697"/>
<polygon fill="midnightblue" stroke="midnightblue" points="359.772,-17.1763 369.469,-12.9086 359.227,-10.1976 359.772,-17.1763"/>
</g>
<!-- Node10 -->
<g id="node10" class="node"><title>Node10</title>
<polygon fill="white" stroke="#bfbfbf" points="38,-291.5 38,-310.5 92,-310.5 92,-291.5 38,-291.5"/>
<text text-anchor="middle" x="65" y="-298.5" font-family="Helvetica,sans-Serif" font-size="10.00">iostream</text>
</g>
<!-- Node9&#45;&gt;Node10 -->
<g id="edge10" class="edge"><title>Node9&#45;&gt;Node10</title>
<path fill="none" stroke="midnightblue" d="M65,-347.083C65,-340.006 65,-329.861 65,-320.986"/>
<polygon fill="midnightblue" stroke="midnightblue" points="68.5001,-320.751 65,-310.751 61.5001,-320.751 68.5001,-320.751"/>
</g>
<!-- Node12 -->
<g id="node12" class="node"><title>Node12</title>
<g id="a_node12"><a xlink:href="ThermoPhase_8h.html" target="_top" xlink:title="Header file for class ThermoPhase, the base class for phases with thermodynamic properties, and the text for the Module thermoprops (see Thermodynamic Properties and class ThermoPhase). ">
<polygon fill="white" stroke="black" points="511,-230 511,-249 665,-249 665,-230 511,-230"/>
<text text-anchor="middle" x="588" y="-237" font-family="Helvetica,sans-Serif" font-size="10.00">cantera/thermo/ThermoPhase.h</text>
</a>
</g>
</g>
<!-- Node11&#45;&gt;Node12 -->
<g id="edge12" class="edge"><title>Node11&#45;&gt;Node12</title>
<path fill="none" stroke="midnightblue" d="M603.421,-291.475C600.855,-282.992 596.835,-269.704 593.543,-258.822"/>
<polygon fill="midnightblue" stroke="midnightblue" points="596.82,-257.567 590.574,-249.009 590.12,-259.594 596.82,-257.567"/>
</g>
<!-- Node13 -->
<g id="node13" class="node"><title>Node13</title>
<g id="a_node13"><a xlink:href="Phase_8h.html" target="_top" xlink:title="Header file for class Phase. ">
<polygon fill="white" stroke="red" points="558.5,-168.5 558.5,-187.5 611.5,-187.5 611.5,-168.5 558.5,-168.5"/>
<text text-anchor="middle" x="585" y="-175.5" font-family="Helvetica,sans-Serif" font-size="10.00">Phase.h</text>
</a>
</g>
</g>
<!-- Node12&#45;&gt;Node13 -->
<g id="edge13" class="edge"><title>Node12&#45;&gt;Node13</title>
<path fill="none" stroke="midnightblue" d="M587.57,-229.975C587.147,-221.58 586.486,-208.481 585.941,-197.663"/>
<polygon fill="midnightblue" stroke="midnightblue" points="589.428,-197.32 585.429,-187.509 582.437,-197.673 589.428,-197.32"/>
</g>
<!-- Node14 -->
<g id="node14" class="node"><title>Node14</title>
<g id="a_node14"><a xlink:href="MultiSpeciesThermo_8h.html" target="_top" xlink:title="Header for a general species thermodynamic property manager for a phase (see MultiSpeciesThermo). ">
<polygon fill="white" stroke="red" points="630,-168.5 630,-187.5 744,-187.5 744,-168.5 630,-168.5"/>
<text text-anchor="middle" x="687" y="-175.5" font-family="Helvetica,sans-Serif" font-size="10.00">MultiSpeciesThermo.h</text>
</a>
</g>
</g>
<!-- Node12&#45;&gt;Node14 -->
<g id="edge15" class="edge"><title>Node12&#45;&gt;Node14</title>
<path fill="none" stroke="midnightblue" d="M602.184,-229.975C618.358,-220.255 645.026,-204.227 664.143,-192.737"/>
<polygon fill="midnightblue" stroke="midnightblue" points="666.074,-195.66 672.842,-187.509 662.468,-189.661 666.074,-195.66"/>
</g>
<!-- Node15 -->
<g id="node15" class="node"><title>Node15</title>
<g id="a_node15"><a xlink:href="global_8h.html" target="_top" xlink:title="This file contains definitions for utility functions and text for modules, inputfiles, logs, textlogs, (see Input File Handling, Diagnostic Output, and Writing messages to the screen). ">
<polygon fill="white" stroke="black" points="399,-112.5 399,-131.5 509,-131.5 509,-112.5 399,-112.5"/>
<text text-anchor="middle" x="454" y="-119.5" font-family="Helvetica,sans-Serif" font-size="10.00">cantera/base/global.h</text>
</a>
</g>
</g>
<!-- Node12&#45;&gt;Node15 -->
<g id="edge16" class="edge"><title>Node12&#45;&gt;Node15</title>
<path fill="none" stroke="midnightblue" d="M577.928,-229.819C555.326,-210.337 500.32,-162.925 471.803,-138.345"/>
<polygon fill="midnightblue" stroke="midnightblue" points="474.048,-135.66 464.189,-131.782 469.478,-140.962 474.048,-135.66"/>
</g>
<!-- Node13&#45;&gt;Node3 -->
<g id="edge14" class="edge"><title>Node13&#45;&gt;Node3</title>
<path fill="none" stroke="midnightblue" d="M586.982,-168.083C588.572,-160.927 590.859,-150.635 592.846,-141.691"/>
<polygon fill="midnightblue" stroke="midnightblue" points="596.303,-142.272 595.055,-131.751 589.469,-140.754 596.303,-142.272"/>
</g>
<!-- Node15&#45;&gt;Node4 -->
<g id="edge18" class="edge"><title>Node15&#45;&gt;Node4</title>
<path fill="none" stroke="midnightblue" d="M476.659,-112.444C500.402,-103.478 537.909,-89.314 564.738,-79.1827"/>
<polygon fill="midnightblue" stroke="midnightblue" points="566.329,-82.3235 574.447,-75.5164 563.856,-75.7749 566.329,-82.3235"/>
</g>
<!-- Node15&#45;&gt;Node5 -->
<g id="edge17" class="edge"><title>Node15&#45;&gt;Node5</title>
<path fill="none" stroke="midnightblue" d="M449.606,-112.368C440.446,-94.376 419.153,-52.5503 406.974,-28.6267"/>
<polygon fill="midnightblue" stroke="midnightblue" points="410.03,-26.9152 402.374,-19.5914 403.792,-30.091 410.03,-26.9152"/>
</g>
<!-- Node16&#45;&gt;Node11 -->
<g id="edge20" class="edge"><title>Node16&#45;&gt;Node11</title>
<path fill="none" stroke="midnightblue" d="M653.842,-347.324C645.499,-339.42 632.968,-327.548 622.823,-317.938"/>
<polygon fill="midnightblue" stroke="midnightblue" points="624.991,-315.171 615.325,-310.834 620.177,-320.252 624.991,-315.171"/>
</g>
<!-- Node18 -->
<g id="node18" class="node"><title>Node18</title>
<g id="a_node18"><a xlink:href="Reactor_8h.html" target="_top" xlink:title="Reactor.h">
<polygon fill="white" stroke="black" points="419.5,-347.5 419.5,-366.5 478.5,-366.5 478.5,-347.5 419.5,-347.5"/>
<text text-anchor="middle" x="449" y="-354.5" font-family="Helvetica,sans-Serif" font-size="10.00">Reactor.h</text>
</a>
</g>
</g>
<!-- Node17&#45;&gt;Node18 -->
<g id="edge22" class="edge"><title>Node17&#45;&gt;Node18</title>
<path fill="none" stroke="midnightblue" d="M370.103,-403.324C384.903,-394.822 407.694,-381.729 424.982,-371.797"/>
<polygon fill="midnightblue" stroke="midnightblue" points="427.007,-374.671 433.935,-366.655 423.52,-368.601 427.007,-374.671"/>
</g>
<!-- Node25 -->
<g id="node25" class="node"><title>Node25</title>
<g id="a_node25"><a xlink:href="FuncEval_8h.html" target="_top" xlink:title="cantera/numerics/FuncEval.h">
<polygon fill="white" stroke="black" points="311,-168.5 311,-187.5 455,-187.5 455,-168.5 311,-168.5"/>
<text text-anchor="middle" x="383" y="-175.5" font-family="Helvetica,sans-Serif" font-size="10.00">cantera/numerics/FuncEval.h</text>
</a>
</g>
</g>
<!-- Node17&#45;&gt;Node25 -->
<g id="edge37" class="edge"><title>Node17&#45;&gt;Node25</title>
<path fill="none" stroke="midnightblue" d="M354.155,-403.29C352.551,-382.224 351.052,-327.562 374,-291 388.943,-267.192 412.954,-279.898 426,-255 432.394,-242.796 431.128,-236.788 426,-224 421.32,-212.328 412.009,-201.969 403.244,-194.141"/>
<polygon fill="midnightblue" stroke="midnightblue" points="405.424,-191.401 395.497,-187.698 400.948,-196.783 405.424,-191.401"/>
</g>
<!-- Node26 -->
<g id="node26" class="node"><title>Node26</title>
<g id="a_node26"><a xlink:href="Integrator_8h.html" target="_top" xlink:title="cantera/numerics/Integrator.h">
<polygon fill="white" stroke="black" points="273,-230 273,-249 417,-249 417,-230 273,-230"/>
<text text-anchor="middle" x="345" y="-237" font-family="Helvetica,sans-Serif" font-size="10.00">cantera/numerics/Integrator.h</text>
</a>
</g>
</g>
<!-- Node17&#45;&gt;Node26 -->
<g id="edge41" class="edge"><title>Node17&#45;&gt;Node26</title>
<path fill="none" stroke="midnightblue" d="M351.4,-403.222C347.944,-394.285 342.967,-379.942 341,-367 335.243,-329.118 339.185,-284.148 342.284,-259.324"/>
<polygon fill="midnightblue" stroke="midnightblue" points="345.788,-259.531 343.651,-249.154 338.85,-258.598 345.788,-259.531"/>
</g>
<!-- Node27 -->
<g id="node27" class="node"><title>Node27</title>
<g id="a_node27"><a xlink:href="Array_8h.html" target="_top" xlink:title="Header file for class Cantera::Array2D. ">
<polygon fill="white" stroke="black" points="148.5,-347.5 148.5,-366.5 255.5,-366.5 255.5,-347.5 148.5,-347.5"/>
<text text-anchor="middle" x="202" y="-354.5" font-family="Helvetica,sans-Serif" font-size="10.00">cantera/base/Array.h</text>
</a>
</g>
</g>
<!-- Node17&#45;&gt;Node27 -->
<g id="edge44" class="edge"><title>Node17&#45;&gt;Node27</title>
<path fill="none" stroke="midnightblue" d="M330.757,-403.444C305.129,-394.399 264.515,-380.064 235.762,-369.916"/>
<polygon fill="midnightblue" stroke="midnightblue" points="236.725,-366.544 226.13,-366.516 234.395,-373.145 236.725,-366.544"/>
</g>
<!-- Node18&#45;&gt;Node11 -->
<g id="edge23" class="edge"><title>Node18&#45;&gt;Node11</title>
<path fill="none" stroke="midnightblue" d="M473.877,-347.444C500.289,-338.359 542.215,-323.939 571.742,-313.783"/>
<polygon fill="midnightblue" stroke="midnightblue" points="572.921,-317.079 581.239,-310.516 570.645,-310.459 572.921,-317.079"/>
</g>
<!-- Node19 -->
<g id="node19" class="node"><title>Node19</title>
<g id="a_node19"><a xlink:href="Kinetics_8h.html" target="_top" xlink:title="Base class for kinetics managers and also contains the kineticsmgr module documentation (see Kinetics...">
<polygon fill="white" stroke="black" points="383,-291.5 383,-310.5 515,-310.5 515,-291.5 383,-291.5"/>
<text text-anchor="middle" x="449" y="-298.5" font-family="Helvetica,sans-Serif" font-size="10.00">cantera/kinetics/Kinetics.h</text>
</a>
</g>
</g>
<!-- Node18&#45;&gt;Node19 -->
<g id="edge24" class="edge"><title>Node18&#45;&gt;Node19</title>
<path fill="none" stroke="midnightblue" d="M449,-347.083C449,-340.006 449,-329.861 449,-320.986"/>
<polygon fill="midnightblue" stroke="midnightblue" points="452.5,-320.751 449,-310.751 445.5,-320.751 452.5,-320.751"/>
</g>
<!-- Node19&#45;&gt;Node12 -->
<g id="edge25" class="edge"><title>Node19&#45;&gt;Node12</title>
<path fill="none" stroke="midnightblue" d="M468.915,-291.475C492.449,-281.401 531.81,-264.553 558.793,-253.002"/>
<polygon fill="midnightblue" stroke="midnightblue" points="560.306,-256.162 568.122,-249.009 557.551,-249.727 560.306,-256.162"/>
</g>
<!-- Node19&#45;&gt;Node15 -->
<g id="edge36" class="edge"><title>Node19&#45;&gt;Node15</title>
<path fill="none" stroke="midnightblue" d="M451.32,-291.354C456.683,-270.272 469.109,-214.541 464,-168 463.027,-159.14 461.008,-149.472 459.037,-141.375"/>
<polygon fill="midnightblue" stroke="midnightblue" points="462.383,-140.333 456.482,-131.533 455.607,-142.092 462.383,-140.333"/>
</g>
<!-- Node20 -->
<g id="node20" class="node"><title>Node20</title>
<g id="a_node20"><a xlink:href="StoichManager_8h.html" target="_top" xlink:title="StoichManager.h">
<polygon fill="white" stroke="black" points="800,-168.5 800,-187.5 890,-187.5 890,-168.5 800,-168.5"/>
<text text-anchor="middle" x="845" y="-175.5" font-family="Helvetica,sans-Serif" font-size="10.00">StoichManager.h</text>
</a>
</g>
</g>
<!-- Node19&#45;&gt;Node20 -->
<g id="edge26" class="edge"><title>Node19&#45;&gt;Node20</title>
<path fill="none" stroke="midnightblue" d="M508.032,-291.499C564.493,-282.777 645.178,-268.599 674,-255 693.712,-245.7 692.928,-234.55 712,-224 739.236,-208.934 772.39,-197.702 798.783,-190.228"/>
<polygon fill="midnightblue" stroke="midnightblue" points="799.826,-193.571 808.541,-187.547 797.971,-186.821 799.826,-193.571"/>
</g>
<!-- Node22 -->
<g id="node22" class="node"><title>Node22</title>
<g id="a_node22"><a xlink:href="mix__defs_8h.html" target="_top" xlink:title="cantera/thermo/mix\l_defs.h">
<polygon fill="white" stroke="black" points="721.5,-224.5 721.5,-254.5 822.5,-254.5 822.5,-224.5 721.5,-224.5"/>
<text text-anchor="start" x="729.5" y="-242.5" font-family="Helvetica,sans-Serif" font-size="10.00">cantera/thermo/mix</text>
<text text-anchor="middle" x="772" y="-231.5" font-family="Helvetica,sans-Serif" font-size="10.00">_defs.h</text>
</a>
</g>
</g>
<!-- Node19&#45;&gt;Node22 -->
<g id="edge31" class="edge"><title>Node19&#45;&gt;Node22</title>
<path fill="none" stroke="midnightblue" d="M502.006,-291.5C554.257,-282.945 636.314,-269.041 707,-255 708.453,-254.711 709.923,-254.415 711.406,-254.113"/>
<polygon fill="midnightblue" stroke="midnightblue" points="712.231,-257.517 721.306,-252.049 710.802,-250.664 712.231,-257.517"/>
</g>
<!-- Node23 -->
<g id="node23" class="node"><title>Node23</title>
<g id="a_node23"><a xlink:href="Reaction_8h.html" target="_top" xlink:title="cantera/kinetics/Reaction.h">
<polygon fill="white" stroke="red" points="119,-230 119,-249 255,-249 255,-230 119,-230"/>
<text text-anchor="middle" x="187" y="-237" font-family="Helvetica,sans-Serif" font-size="10.00">cantera/kinetics/Reaction.h</text>
</a>
</g>
</g>
<!-- Node19&#45;&gt;Node23 -->
<g id="edge32" class="edge"><title>Node19&#45;&gt;Node23</title>
<path fill="none" stroke="midnightblue" d="M411.462,-291.475C364.769,-280.871 285.02,-262.76 234.223,-251.224"/>
<polygon fill="midnightblue" stroke="midnightblue" points="234.995,-247.811 224.469,-249.009 233.445,-254.637 234.995,-247.811"/>
</g>
<!-- Node20&#45;&gt;Node3 -->
<g id="edge30" class="edge"><title>Node20&#45;&gt;Node3</title>
<path fill="none" stroke="midnightblue" d="M805.704,-168.444C762.441,-159.023 692.827,-143.866 646.027,-133.675"/>
<polygon fill="midnightblue" stroke="midnightblue" points="646.628,-130.224 636.112,-131.516 645.139,-137.064 646.628,-130.224"/>
</g>
<!-- Node20&#45;&gt;Node21 -->
<g id="edge27" class="edge"><title>Node20&#45;&gt;Node21</title>
<path fill="none" stroke="midnightblue" d="M838.065,-168.083C832.071,-160.377 823.248,-149.033 815.952,-139.653"/>
<polygon fill="midnightblue" stroke="midnightblue" points="818.709,-137.496 809.806,-131.751 813.183,-141.793 818.709,-137.496"/>
</g>
<!-- Node21&#45;&gt;Node4 -->
<g id="edge29" class="edge"><title>Node21&#45;&gt;Node4</title>
<path fill="none" stroke="midnightblue" d="M770.359,-112.444C734.95,-103.162 678.291,-88.3093 639.447,-78.127"/>
<polygon fill="midnightblue" stroke="midnightblue" points="640.049,-74.6666 629.489,-75.5164 638.274,-81.4378 640.049,-74.6666"/>
</g>
<!-- Node21&#45;&gt;Node5 -->
<g id="edge28" class="edge"><title>Node21&#45;&gt;Node5</title>
<path fill="none" stroke="midnightblue" d="M787.062,-112.466C760.452,-98.5737 704.964,-71.1052 655,-56 579.506,-33.1766 487.82,-20.5829 436.89,-14.8615"/>
<polygon fill="midnightblue" stroke="midnightblue" points="436.982,-11.3508 426.661,-13.7437 436.221,-18.3094 436.982,-11.3508"/>
</g>
<!-- Node24 -->
<g id="node24" class="node"><title>Node24</title>
<g id="a_node24"><a xlink:href="utilities_8h.html" target="_top" xlink:title="Various templated functions that carry out common vector operations (see Templated Utility Functions)...">
<polygon fill="white" stroke="red" points="134.5,-168.5 134.5,-187.5 249.5,-187.5 249.5,-168.5 134.5,-168.5"/>
<text text-anchor="middle" x="192" y="-175.5" font-family="Helvetica,sans-Serif" font-size="10.00">cantera/base/utilities.h</text>
</a>
</g>
</g>
<!-- Node23&#45;&gt;Node24 -->
<g id="edge33" class="edge"><title>Node23&#45;&gt;Node24</title>
<path fill="none" stroke="midnightblue" d="M187.716,-229.975C188.422,-221.58 189.523,-208.481 190.432,-197.663"/>
<polygon fill="midnightblue" stroke="midnightblue" points="193.935,-197.767 191.285,-187.509 186.96,-197.181 193.935,-197.767"/>
</g>
<!-- Node24&#45;&gt;Node5 -->
<g id="edge34" class="edge"><title>Node24&#45;&gt;Node5</title>
<path fill="none" stroke="midnightblue" d="M202.785,-168.309C236.019,-141.528 337.15,-60.0347 379.274,-26.09"/>
<polygon fill="midnightblue" stroke="midnightblue" points="381.731,-28.605 387.321,-19.6051 377.339,-23.1544 381.731,-28.605"/>
</g>
<!-- Node24&#45;&gt;Node15 -->
<g id="edge35" class="edge"><title>Node24&#45;&gt;Node15</title>
<path fill="none" stroke="midnightblue" d="M233.515,-168.444C279.412,-158.984 353.38,-143.738 402.826,-133.547"/>
<polygon fill="midnightblue" stroke="midnightblue" points="403.592,-136.963 412.68,-131.516 402.179,-130.107 403.592,-136.963"/>
</g>
<!-- Node25&#45;&gt;Node3 -->
<g id="edge39" class="edge"><title>Node25&#45;&gt;Node3</title>
<path fill="none" stroke="midnightblue" d="M416.909,-168.444C453.849,-159.122 513.054,-144.183 553.418,-133.997"/>
<polygon fill="midnightblue" stroke="midnightblue" points="554.41,-137.357 563.25,-131.516 552.697,-130.57 554.41,-137.357"/>
</g>
<!-- Node25&#45;&gt;Node5 -->
<g id="edge38" class="edge"><title>Node25&#45;&gt;Node5</title>
<path fill="none" stroke="midnightblue" d="M383.806,-168.075C386.168,-141.945 393.101,-65.2106 396.321,-29.577"/>
<polygon fill="midnightblue" stroke="midnightblue" points="399.812,-29.8425 397.226,-19.5681 392.84,-29.2125 399.812,-29.8425"/>
</g>
<!-- Node25&#45;&gt;Node15 -->
<g id="edge40" class="edge"><title>Node25&#45;&gt;Node15</title>
<path fill="none" stroke="midnightblue" d="M394.407,-168.324C405.109,-160.185 421.341,-147.839 434.163,-138.087"/>
<polygon fill="midnightblue" stroke="midnightblue" points="436.544,-140.673 442.385,-131.834 432.307,-135.102 436.544,-140.673"/>
</g>
<!-- Node26&#45;&gt;Node15 -->
<g id="edge43" class="edge"><title>Node26&#45;&gt;Node15</title>
<path fill="none" stroke="midnightblue" d="M332.963,-229.922C315.335,-216.309 286.215,-189.135 302,-168 321.987,-141.239 357.185,-129.738 388.68,-125.042"/>
<polygon fill="midnightblue" stroke="midnightblue" points="389.281,-128.494 398.752,-123.746 388.387,-121.551 389.281,-128.494"/>
</g>
<!-- Node26&#45;&gt;Node25 -->
<g id="edge42" class="edge"><title>Node26&#45;&gt;Node25</title>
<path fill="none" stroke="midnightblue" d="M350.444,-229.975C356.088,-221.138 365.061,-207.089 372.159,-195.975"/>
<polygon fill="midnightblue" stroke="midnightblue" points="375.133,-197.821 377.566,-187.509 369.233,-194.053 375.133,-197.821"/>
</g>
<!-- Node27&#45;&gt;Node10 -->
<g id="edge46" class="edge"><title>Node27&#45;&gt;Node10</title>
<path fill="none" stroke="midnightblue" d="M180.292,-347.444C157.645,-338.517 121.928,-324.439 96.2482,-314.317"/>
<polygon fill="midnightblue" stroke="midnightblue" points="97.1934,-310.927 86.6065,-310.516 94.6264,-317.44 97.1934,-310.927"/>
</g>
<!-- Node27&#45;&gt;Node24 -->
<g id="edge45" class="edge"><title>Node27&#45;&gt;Node24</title>
<path fill="none" stroke="midnightblue" d="M189.719,-347.457C168.618,-331.933 126.186,-296.804 110,-255 105.025,-242.152 102.982,-235.856 110,-224 118.973,-208.84 135.067,-198.448 150.635,-191.504"/>
<polygon fill="midnightblue" stroke="midnightblue" points="152.248,-194.627 160.191,-187.615 149.61,-188.143 152.248,-194.627"/>
</g>
<!-- Node28 -->
<g id="node28" class="node"><title>Node28</title>
<polygon fill="white" stroke="#bfbfbf" points="179,-291.5 179,-310.5 225,-310.5 225,-291.5 179,-291.5"/>
<text text-anchor="middle" x="202" y="-298.5" font-family="Helvetica,sans-Serif" font-size="10.00">cstring</text>
</g>
<!-- Node27&#45;&gt;Node28 -->
<g id="edge47" class="edge"><title>Node27&#45;&gt;Node28</title>
<path fill="none" stroke="midnightblue" d="M202,-347.083C202,-340.006 202,-329.861 202,-320.986"/>
<polygon fill="midnightblue" stroke="midnightblue" points="205.5,-320.751 202,-310.751 198.5,-320.751 205.5,-320.751"/>
</g>
<!-- Node29&#45;&gt;Node12 -->
<g id="edge51" class="edge"><title>Node29&#45;&gt;Node12</title>
<path fill="none" stroke="midnightblue" d="M741.354,-291.475C710.383,-281.18 658.127,-263.81 623.349,-252.25"/>
<polygon fill="midnightblue" stroke="midnightblue" points="624.192,-248.842 613.599,-249.009 621.984,-255.485 624.192,-248.842"/>
</g>
<!-- Node29&#45;&gt;Node22 -->
<g id="edge50" class="edge"><title>Node29&#45;&gt;Node22</title>
<path fill="none" stroke="midnightblue" d="M767.716,-291.475C768.305,-284.471 769.169,-274.192 769.967,-264.696"/>
<polygon fill="midnightblue" stroke="midnightblue" points="773.472,-264.781 770.822,-254.523 766.496,-264.195 773.472,-264.781"/>
</g>
</g>
</svg>
