<?xml version="1.0" encoding="UTF-8" standalone="no"?>
<!DOCTYPE svg PUBLIC "-//W3C//DTD SVG 1.1//EN"
 "http://www.w3.org/Graphics/SVG/1.1/DTD/svg11.dtd">
<!-- Generated by graphviz version 2.38.0 (20140413.2041)
 -->
<!-- Title: Water.cpp Pages: 1 -->
<svg width="427pt" height="364pt"
 viewBox="0.00 0.00 426.97 364.00" xmlns="http://www.w3.org/2000/svg" xmlns:xlink="http://www.w3.org/1999/xlink">
<g id="graph0" class="graph" transform="scale(1 1) rotate(0) translate(4 360)">
<title>Water.cpp</title>
<polygon fill="white" stroke="none" points="-4,4 -4,-360 422.967,-360 422.967,4 -4,4"/>
<!-- Node1 -->
<g id="node1" class="node"><title>Node1</title>
<polygon fill="#bfbfbf" stroke="black" points="129.467,-336.5 129.467,-355.5 191.467,-355.5 191.467,-336.5 129.467,-336.5"/>
<text text-anchor="middle" x="160.467" y="-343.5" font-family="Helvetica,sans-Serif" font-size="10.00">Water.cpp</text>
</g>
<!-- Node2 -->
<g id="node2" class="node"><title>Node2</title>
<g id="a_node2"><a xlink:href="Water_8h.html" target="_top" xlink:title="Water.h">
<polygon fill="white" stroke="black" points="93.9667,-280.5 93.9667,-299.5 144.967,-299.5 144.967,-280.5 93.9667,-280.5"/>
<text text-anchor="middle" x="119.467" y="-287.5" font-family="Helvetica,sans-Serif" font-size="10.00">Water.h</text>
</a>
</g>
</g>
<!-- Node1&#45;&gt;Node2 -->
<g id="edge1" class="edge"><title>Node1&#45;&gt;Node2</title>
<path fill="none" stroke="midnightblue" d="M153.696,-336.083C147.905,-328.455 139.408,-317.264 132.329,-307.941"/>
<polygon fill="midnightblue" stroke="midnightblue" points="134.946,-305.599 126.111,-299.751 129.371,-309.832 134.946,-305.599"/>
</g>
<!-- Node10 -->
<g id="node10" class="node"><title>Node10</title>
<g id="a_node10"><a xlink:href="stringUtils_8h.html" target="_top" xlink:title="Contains declarations for string manipulation functions within Cantera. ">
<polygon fill="white" stroke="black" points="177.467,-168.5 177.467,-187.5 305.467,-187.5 305.467,-168.5 177.467,-168.5"/>
<text text-anchor="middle" x="241.467" y="-175.5" font-family="Helvetica,sans-Serif" font-size="10.00">cantera/base/stringUtils.h</text>
</a>
</g>
</g>
<!-- Node1&#45;&gt;Node10 -->
<g id="edge10" class="edge"><title>Node1&#45;&gt;Node10</title>
<path fill="none" stroke="midnightblue" d="M164.822,-336.075C177.682,-309.719 215.665,-231.878 232.849,-196.661"/>
<polygon fill="midnightblue" stroke="midnightblue" points="236.046,-198.09 237.286,-187.568 229.755,-195.02 236.046,-198.09"/>
</g>
<!-- Node3 -->
<g id="node3" class="node"><title>Node3</title>
<g id="a_node3"><a xlink:href="Sub_8h.html" target="_top" xlink:title="cantera/tpx/Sub.h">
<polygon fill="white" stroke="black" points="42.4667,-224.5 42.4667,-243.5 136.467,-243.5 136.467,-224.5 42.4667,-224.5"/>
<text text-anchor="middle" x="89.4667" y="-231.5" font-family="Helvetica,sans-Serif" font-size="10.00">cantera/tpx/Sub.h</text>
</a>
</g>
</g>
<!-- Node2&#45;&gt;Node3 -->
<g id="edge2" class="edge"><title>Node2&#45;&gt;Node3</title>
<path fill="none" stroke="midnightblue" d="M114.513,-280.083C110.363,-272.613 104.314,-261.724 99.1999,-252.52"/>
<polygon fill="midnightblue" stroke="midnightblue" points="102.244,-250.793 94.3284,-243.751 96.1253,-254.192 102.244,-250.793"/>
</g>
<!-- Node4 -->
<g id="node4" class="node"><title>Node4</title>
<g id="a_node4"><a xlink:href="ctexceptions_8h.html" target="_top" xlink:title="Definitions for the classes that are thrown when Cantera experiences an error condition (also contain...">
<polygon fill="white" stroke="black" points="19.4667,-168.5 19.4667,-187.5 159.467,-187.5 159.467,-168.5 19.4667,-168.5"/>
<text text-anchor="middle" x="89.4667" y="-175.5" font-family="Helvetica,sans-Serif" font-size="10.00">cantera/base/ctexceptions.h</text>
</a>
</g>
</g>
<!-- Node3&#45;&gt;Node4 -->
<g id="edge3" class="edge"><title>Node3&#45;&gt;Node4</title>
<path fill="none" stroke="midnightblue" d="M89.4667,-224.083C89.4667,-217.006 89.4667,-206.861 89.4667,-197.986"/>
<polygon fill="midnightblue" stroke="midnightblue" points="92.9668,-197.751 89.4667,-187.751 85.9668,-197.751 92.9668,-197.751"/>
</g>
<!-- Node8 -->
<g id="node8" class="node"><title>Node8</title>
<polygon fill="white" stroke="#bfbfbf" points="38.4667,-0.5 38.4667,-19.5 94.4667,-19.5 94.4667,-0.5 38.4667,-0.5"/>
<text text-anchor="middle" x="66.4667" y="-7.5" font-family="Helvetica,sans-Serif" font-size="10.00">algorithm</text>
</g>
<!-- Node3&#45;&gt;Node8 -->
<g id="edge9" class="edge"><title>Node3&#45;&gt;Node8</title>
<path fill="none" stroke="midnightblue" d="M59.5859,-224.387C41.9271,-217.587 21.016,-206.15 10.4667,-188 -20.9188,-134.002 27.2979,-60.334 52.5891,-27.7148"/>
<polygon fill="midnightblue" stroke="midnightblue" points="55.5221,-29.651 59.0294,-19.6535 50.0531,-25.2817 55.5221,-29.651"/>
</g>
<!-- Node5 -->
<g id="node5" class="node"><title>Node5</title>
<g id="a_node5"><a xlink:href="fmt_8h.html" target="_top" xlink:title="Wrapper for either system&#45;installed or local headers for fmt. ">
<polygon fill="white" stroke="red" points="97.4667,-112.5 97.4667,-131.5 195.467,-131.5 195.467,-112.5 97.4667,-112.5"/>
<text text-anchor="middle" x="146.467" y="-119.5" font-family="Helvetica,sans-Serif" font-size="10.00">cantera/base/fmt.h</text>
</a>
</g>
</g>
<!-- Node4&#45;&gt;Node5 -->
<g id="edge4" class="edge"><title>Node4&#45;&gt;Node5</title>
<path fill="none" stroke="midnightblue" d="M98.6247,-168.324C106.968,-160.42 119.499,-148.548 129.644,-138.938"/>
<polygon fill="midnightblue" stroke="midnightblue" points="132.29,-141.252 137.142,-131.834 127.475,-136.171 132.29,-141.252"/>
</g>
<!-- Node9 -->
<g id="node9" class="node"><title>Node9</title>
<polygon fill="white" stroke="#bfbfbf" points="19.9667,-112.5 19.9667,-131.5 78.9667,-131.5 78.9667,-112.5 19.9667,-112.5"/>
<text text-anchor="middle" x="49.4667" y="-119.5" font-family="Helvetica,sans-Serif" font-size="10.00">exception</text>
</g>
<!-- Node4&#45;&gt;Node9 -->
<g id="edge8" class="edge"><title>Node4&#45;&gt;Node9</title>
<path fill="none" stroke="midnightblue" d="M82.8615,-168.083C77.2114,-160.455 68.9218,-149.264 62.0154,-139.941"/>
<polygon fill="midnightblue" stroke="midnightblue" points="64.7137,-137.703 55.9489,-131.751 59.0888,-141.87 64.7137,-137.703"/>
</g>
<!-- Node6 -->
<g id="node6" class="node"><title>Node6</title>
<g id="a_node6"><a xlink:href="ct__defs_8h.html" target="_top" xlink:title="This file contains definitions of terms that are used in internal routines and are unlikely to need m...">
<polygon fill="white" stroke="red" points="146.967,-56.5 146.967,-75.5 203.967,-75.5 203.967,-56.5 146.967,-56.5"/>
<text text-anchor="middle" x="175.467" y="-63.5" font-family="Helvetica,sans-Serif" font-size="10.00">ct_defs.h</text>
</a>
</g>
</g>
<!-- Node5&#45;&gt;Node6 -->
<g id="edge5" class="edge"><title>Node5&#45;&gt;Node6</title>
<path fill="none" stroke="midnightblue" d="M151.255,-112.083C155.225,-104.691 160.992,-93.9533 165.901,-84.8111"/>
<polygon fill="midnightblue" stroke="midnightblue" points="169.119,-86.217 170.767,-75.7511 162.952,-82.9051 169.119,-86.217"/>
</g>
<!-- Node7 -->
<g id="node7" class="node"><title>Node7</title>
<polygon fill="white" stroke="#bfbfbf" points="187.967,-0.5 187.967,-19.5 228.967,-19.5 228.967,-0.5 187.967,-0.5"/>
<text text-anchor="middle" x="208.467" y="-7.5" font-family="Helvetica,sans-Serif" font-size="10.00">string</text>
</g>
<!-- Node6&#45;&gt;Node7 -->
<g id="edge6" class="edge"><title>Node6&#45;&gt;Node7</title>
<path fill="none" stroke="midnightblue" d="M180.916,-56.083C185.481,-48.6127 192.135,-37.7244 197.76,-28.5199"/>
<polygon fill="midnightblue" stroke="midnightblue" points="200.891,-30.109 203.119,-19.7511 194.918,-26.4588 200.891,-30.109"/>
</g>
<!-- Node6&#45;&gt;Node8 -->
<g id="edge7" class="edge"><title>Node6&#45;&gt;Node8</title>
<path fill="none" stroke="midnightblue" d="M157.954,-56.324C140.394,-47.6247 113.135,-34.1202 92.9354,-24.113"/>
<polygon fill="midnightblue" stroke="midnightblue" points="94.4503,-20.9575 83.9359,-19.6545 91.3428,-27.23 94.4503,-20.9575"/>
</g>
<!-- Node10&#45;&gt;Node5 -->
<g id="edge12" class="edge"><title>Node10&#45;&gt;Node5</title>
<path fill="none" stroke="midnightblue" d="M226.203,-168.324C211.245,-159.822 188.212,-146.729 170.74,-136.797"/>
<polygon fill="midnightblue" stroke="midnightblue" points="172.115,-133.553 161.692,-131.655 168.656,-139.639 172.115,-133.553"/>
</g>
<!-- Node10&#45;&gt;Node6 -->
<g id="edge11" class="edge"><title>Node10&#45;&gt;Node6</title>
<path fill="none" stroke="midnightblue" d="M236.824,-168.5C229.953,-156.002 216.583,-131.987 204.467,-112 198.796,-102.645 192.209,-92.3797 186.747,-84.0187"/>
<polygon fill="midnightblue" stroke="midnightblue" points="189.588,-81.9686 181.168,-75.5381 183.74,-85.8159 189.588,-81.9686"/>
</g>
<!-- Node10&#45;&gt;Node7 -->
<g id="edge14" class="edge"><title>Node10&#45;&gt;Node7</title>
<path fill="none" stroke="midnightblue" d="M239.692,-168.075C234.498,-141.945 219.243,-65.2106 212.16,-29.577"/>
<polygon fill="midnightblue" stroke="midnightblue" points="215.553,-28.6937 210.17,-19.5681 208.687,-30.0586 215.553,-28.6937"/>
</g>
<!-- Node11 -->
<g id="node11" class="node"><title>Node11</title>
<polygon fill="white" stroke="#bfbfbf" points="289.967,-112.5 289.967,-131.5 418.967,-131.5 418.967,-112.5 289.967,-112.5"/>
<text text-anchor="middle" x="354.467" y="-119.5" font-family="Helvetica,sans-Serif" font-size="10.00">boost/algorithm/string.hpp</text>
</g>
<!-- Node10&#45;&gt;Node11 -->
<g id="edge13" class="edge"><title>Node10&#45;&gt;Node11</title>
<path fill="none" stroke="midnightblue" d="M259.372,-168.444C277.721,-159.675 306.472,-145.935 327.56,-135.858"/>
<polygon fill="midnightblue" stroke="midnightblue" points="329.132,-138.986 336.645,-131.516 326.113,-132.67 329.132,-138.986"/>
</g>
</g>
</svg>
