<?xml version="1.0" encoding="UTF-8" standalone="no"?>
<!DOCTYPE svg PUBLIC "-//W3C//DTD SVG 1.1//EN"
 "http://www.w3.org/Graphics/SVG/1.1/DTD/svg11.dtd">
<!-- Generated by graphviz version 2.40.1 (20161225.0304)
 -->
<!-- Title: WaterProps.h Pages: 1 -->
<svg width="1041pt" height="140pt"
 viewBox="0.00 0.00 1041.00 140.00" xmlns="http://www.w3.org/2000/svg" xmlns:xlink="http://www.w3.org/1999/xlink">
<g id="graph0" class="graph" transform="scale(1 1) rotate(0) translate(4 136)">
<title>WaterProps.h</title>
<polygon fill="#ffffff" stroke="transparent" points="-4,4 -4,-136 1037,-136 1037,4 -4,4"/>
<!-- Node10 -->
<g id="node1" class="node">
<title>Node10</title>
<polygon fill="#bfbfbf" stroke="#000000" points="293.5,-112.5 293.5,-131.5 374.5,-131.5 374.5,-112.5 293.5,-112.5"/>
<text text-anchor="middle" x="334" y="-119.5" font-family="Helvetica,sans-Serif" font-size="10.00" fill="#000000">WaterProps.h</text>
</g>
<!-- Node11 -->
<g id="node2" class="node">
<title>Node11</title>
<g id="a_node2"><a xlink:href="WaterProps_8cpp.html" target="_top" xlink:title="WaterProps.cpp">
<polygon fill="#ffffff" stroke="#000000" points="0,-.5 0,-19.5 92,-19.5 92,-.5 0,-.5"/>
<text text-anchor="middle" x="46" y="-7.5" font-family="Helvetica,sans-Serif" font-size="10.00" fill="#000000">WaterProps.cpp</text>
</a>
</g>
</g>
<!-- Node10&#45;&gt;Node11 -->
<g id="edge1" class="edge">
<title>Node10&#45;&gt;Node11</title>
<path fill="none" stroke="#191970" d="M299.8633,-108.7246C241.0215,-85.8417 121.8736,-39.5064 70.4926,-19.5249"/>
<polygon fill="#191970" stroke="#191970" points="298.8566,-112.0884 309.4453,-112.4509 301.3938,-105.5644 298.8566,-112.0884"/>
</g>
<!-- Node12 -->
<g id="node3" class="node">
<title>Node12</title>
<g id="a_node3"><a xlink:href="PDSS__HKFT_8h.html" target="_top" xlink:title="Declarations for the class PDSS_HKFT (pressure dependent standard state) which handles calculations f...">
<polygon fill="#ffffff" stroke="#000000" points="230,-56.5 230,-75.5 310,-75.5 310,-56.5 230,-56.5"/>
<text text-anchor="middle" x="270" y="-63.5" font-family="Helvetica,sans-Serif" font-size="10.00" fill="#000000">PDSS_HKFT.h</text>
</a>
</g>
</g>
<!-- Node10&#45;&gt;Node12 -->
<g id="edge2" class="edge">
<title>Node10&#45;&gt;Node12</title>
<path fill="none" stroke="#191970" d="M315.3086,-105.645C304.1781,-95.9058 290.4337,-83.8795 281.0202,-75.6427"/>
<polygon fill="#191970" stroke="#191970" points="313.0215,-108.2945 322.8521,-112.2455 317.631,-103.0264 313.0215,-108.2945"/>
</g>
<!-- Node15 -->
<g id="node6" class="node">
<title>Node15</title>
<g id="a_node6"><a xlink:href="PDSS__Water_8h.html" target="_top" xlink:title="Implementation of a pressure dependent standard state virtual function for a Pure Water Phase (see Sp...">
<polygon fill="#ffffff" stroke="#000000" points="357,-56.5 357,-75.5 441,-75.5 441,-56.5 357,-56.5"/>
<text text-anchor="middle" x="399" y="-63.5" font-family="Helvetica,sans-Serif" font-size="10.00" fill="#000000">PDSS_Water.h</text>
</a>
</g>
</g>
<!-- Node10&#45;&gt;Node15 -->
<g id="edge5" class="edge">
<title>Node10&#45;&gt;Node15</title>
<path fill="none" stroke="#191970" d="M352.9835,-105.645C364.2879,-95.9058 378.247,-83.8795 387.8076,-75.6427"/>
<polygon fill="#191970" stroke="#191970" points="350.6138,-103.0668 345.3221,-112.2455 355.1827,-108.3701 350.6138,-103.0668"/>
</g>
<!-- Node21 -->
<g id="node12" class="node">
<title>Node21</title>
<g id="a_node12"><a xlink:href="WaterSSTP_8h.html" target="_top" xlink:title="Declares a ThermoPhase class consisting of pure water (see Thermodynamic Properties and class WaterSS...">
<polygon fill="#ffffff" stroke="#000000" points="833.5,-56.5 833.5,-75.5 910.5,-75.5 910.5,-56.5 833.5,-56.5"/>
<text text-anchor="middle" x="872" y="-63.5" font-family="Helvetica,sans-Serif" font-size="10.00" fill="#000000">WaterSSTP.h</text>
</a>
</g>
</g>
<!-- Node10&#45;&gt;Node21 -->
<g id="edge14" class="edge">
<title>Node10&#45;&gt;Node21</title>
<path fill="none" stroke="#191970" d="M385.106,-116.6804C492.209,-105.5321 738.148,-79.9326 833.3632,-70.0217"/>
<polygon fill="#191970" stroke="#191970" points="384.4629,-113.2284 374.879,-117.7449 385.1877,-120.1907 384.4629,-113.2284"/>
</g>
<!-- Node13 -->
<g id="node4" class="node">
<title>Node13</title>
<g id="a_node4"><a xlink:href="PDSS__HKFT_8cpp.html" target="_top" xlink:title="Definitions for the class PDSS_HKFT (pressure dependent standard state) which handles calculations fo...">
<polygon fill="#ffffff" stroke="#000000" points="224,-.5 224,-19.5 316,-19.5 316,-.5 224,-.5"/>
<text text-anchor="middle" x="270" y="-7.5" font-family="Helvetica,sans-Serif" font-size="10.00" fill="#000000">PDSS_HKFT.cpp</text>
</a>
</g>
</g>
<!-- Node12&#45;&gt;Node13 -->
<g id="edge3" class="edge">
<title>Node12&#45;&gt;Node13</title>
<path fill="none" stroke="#191970" d="M270,-46.1575C270,-37.155 270,-26.9199 270,-19.6427"/>
<polygon fill="#191970" stroke="#191970" points="266.5001,-46.2455 270,-56.2455 273.5001,-46.2456 266.5001,-46.2455"/>
</g>
<!-- Node14 -->
<g id="node5" class="node">
<title>Node14</title>
<g id="a_node5"><a xlink:href="PDSSFactory_8cpp.html" target="_top" xlink:title="PDSSFactory.cpp">
<polygon fill="#ffffff" stroke="#000000" points="110,-.5 110,-19.5 206,-19.5 206,-.5 110,-.5"/>
<text text-anchor="middle" x="158" y="-7.5" font-family="Helvetica,sans-Serif" font-size="10.00" fill="#000000">PDSSFactory.cpp</text>
</a>
</g>
</g>
<!-- Node12&#45;&gt;Node14 -->
<g id="edge4" class="edge">
<title>Node12&#45;&gt;Node14</title>
<path fill="none" stroke="#191970" d="M241.6737,-51.8368C221.4279,-41.7139 194.7358,-28.3679 177.0022,-19.5011"/>
<polygon fill="#191970" stroke="#191970" points="240.237,-55.0316 250.7465,-56.3733 243.3675,-48.7706 240.237,-55.0316"/>
</g>
<!-- Node15&#45;&gt;Node11 -->
<g id="edge12" class="edge">
<title>Node15&#45;&gt;Node11</title>
<path fill="none" stroke="#191970" d="M347.088,-58.416C287.5765,-49.6221 187.1349,-34.4758 101,-20 98.1287,-19.5175 95.1751,-19.0107 92.1978,-18.492"/>
<polygon fill="#191970" stroke="#191970" points="346.5912,-61.8805 356.9948,-59.8771 347.6125,-54.9554 346.5912,-61.8805"/>
</g>
<!-- Node15&#45;&gt;Node13 -->
<g id="edge8" class="edge">
<title>Node15&#45;&gt;Node13</title>
<path fill="none" stroke="#191970" d="M367.6329,-52.3833C344.1716,-42.1985 312.6815,-28.5284 291.8865,-19.5011"/>
<polygon fill="#191970" stroke="#191970" points="366.2574,-55.6017 376.8241,-56.3733 369.0449,-49.1806 366.2574,-55.6017"/>
</g>
<!-- Node15&#45;&gt;Node14 -->
<g id="edge10" class="edge">
<title>Node15&#45;&gt;Node14</title>
<path fill="none" stroke="#191970" d="M347.8412,-54.1125C303.4696,-43.8021 240.0832,-29.0733 198.9858,-19.5237"/>
<polygon fill="#191970" stroke="#191970" points="347.3118,-57.5826 357.8445,-56.4369 348.8962,-50.7643 347.3118,-57.5826"/>
</g>
<!-- Node16 -->
<g id="node7" class="node">
<title>Node16</title>
<g id="a_node7"><a xlink:href="DebyeHuckel_8cpp.html" target="_top" xlink:title="Declarations for the DebyeHuckel ThermoPhase object, which models dilute electrolyte solutions (see T...">
<polygon fill="#ffffff" stroke="#000000" points="482,-.5 482,-19.5 584,-19.5 584,-.5 482,-.5"/>
<text text-anchor="middle" x="533" y="-7.5" font-family="Helvetica,sans-Serif" font-size="10.00" fill="#000000">DebyeHuckel.cpp</text>
</a>
</g>
</g>
<!-- Node15&#45;&gt;Node16 -->
<g id="edge6" class="edge">
<title>Node15&#45;&gt;Node16</title>
<path fill="none" stroke="#191970" d="M431.5828,-52.3833C455.9536,-42.1985 488.6642,-28.5284 510.2652,-19.5011"/>
<polygon fill="#191970" stroke="#191970" points="429.9125,-49.2879 422.0354,-56.3733 432.6117,-55.7466 429.9125,-49.2879"/>
</g>
<!-- Node17 -->
<g id="node8" class="node">
<title>Node17</title>
<g id="a_node8"><a xlink:href="HMWSoln_8cpp.html" target="_top" xlink:title="Definitions for the HMWSoln ThermoPhase object, which models concentrated electrolyte solutions (see ...">
<polygon fill="#ffffff" stroke="#000000" points="602.5,-.5 602.5,-19.5 685.5,-19.5 685.5,-.5 602.5,-.5"/>
<text text-anchor="middle" x="644" y="-7.5" font-family="Helvetica,sans-Serif" font-size="10.00" fill="#000000">HMWSoln.cpp</text>
</a>
</g>
</g>
<!-- Node15&#45;&gt;Node17 -->
<g id="edge7" class="edge">
<title>Node15&#45;&gt;Node17</title>
<path fill="none" stroke="#191970" d="M450.7233,-54.1775C495.8445,-43.8641 560.4665,-29.0934 602.3339,-19.5237"/>
<polygon fill="#191970" stroke="#191970" points="449.8073,-50.7966 440.8386,-56.4369 451.3671,-57.6206 449.8073,-50.7966"/>
</g>
<!-- Node18 -->
<g id="node9" class="node">
<title>Node18</title>
<g id="a_node9"><a xlink:href="PDSS__Water_8cpp.html" target="_top" xlink:title="PDSS_Water.cpp">
<polygon fill="#ffffff" stroke="#000000" points="703.5,-.5 703.5,-19.5 798.5,-19.5 798.5,-.5 703.5,-.5"/>
<text text-anchor="middle" x="751" y="-7.5" font-family="Helvetica,sans-Serif" font-size="10.00" fill="#000000">PDSS_Water.cpp</text>
</a>
</g>
</g>
<!-- Node15&#45;&gt;Node18 -->
<g id="edge9" class="edge">
<title>Node15&#45;&gt;Node18</title>
<path fill="none" stroke="#191970" d="M451.2374,-58.1609C510.2371,-49.2357 609.0963,-34.066 694,-20 697.0727,-19.4909 700.237,-18.9585 703.4258,-18.4159"/>
<polygon fill="#191970" stroke="#191970" points="450.4178,-54.7449 441.0528,-59.6994 451.4634,-61.6663 450.4178,-54.7449"/>
</g>
<!-- Node19 -->
<g id="node10" class="node">
<title>Node19</title>
<g id="a_node10"><a xlink:href="VPStandardStateTP_8cpp.html" target="_top" xlink:title="Definition file for a derived class of ThermoPhase that handles variable pressure standard state meth...">
<polygon fill="#ffffff" stroke="#000000" points="334.5,-.5 334.5,-19.5 463.5,-19.5 463.5,-.5 334.5,-.5"/>
<text text-anchor="middle" x="399" y="-7.5" font-family="Helvetica,sans-Serif" font-size="10.00" fill="#000000">VPStandardStateTP.cpp</text>
</a>
</g>
</g>
<!-- Node15&#45;&gt;Node19 -->
<g id="edge11" class="edge">
<title>Node15&#45;&gt;Node19</title>
<path fill="none" stroke="#191970" d="M399,-46.1575C399,-37.155 399,-26.9199 399,-19.6427"/>
<polygon fill="#191970" stroke="#191970" points="395.5001,-46.2455 399,-56.2455 402.5001,-46.2456 395.5001,-46.2455"/>
</g>
<!-- Node20 -->
<g id="node11" class="node">
<title>Node20</title>
<g id="a_node11"><a xlink:href="WaterTransport_8cpp.html" target="_top" xlink:title="WaterTransport.cpp">
<polygon fill="#ffffff" stroke="#000000" points="817,-.5 817,-19.5 927,-19.5 927,-.5 817,-.5"/>
<text text-anchor="middle" x="872" y="-7.5" font-family="Helvetica,sans-Serif" font-size="10.00" fill="#000000">WaterTransport.cpp</text>
</a>
</g>
</g>
<!-- Node15&#45;&gt;Node20 -->
<g id="edge13" class="edge">
<title>Node15&#45;&gt;Node20</title>
<path fill="none" stroke="#191970" d="M451.0709,-60.8093C528.709,-52.9161 679.3642,-37.0062 807,-20 810.1689,-19.5778 813.4222,-19.1283 816.7035,-18.6625"/>
<polygon fill="#191970" stroke="#191970" points="450.6599,-57.333 441.0637,-61.8234 451.3657,-64.2973 450.6599,-57.333"/>
</g>
<!-- Node21&#45;&gt;Node20 -->
<g id="edge16" class="edge">
<title>Node21&#45;&gt;Node20</title>
<path fill="none" stroke="#191970" d="M872,-46.1575C872,-37.155 872,-26.9199 872,-19.6427"/>
<polygon fill="#191970" stroke="#191970" points="868.5001,-46.2455 872,-56.2455 875.5001,-46.2456 868.5001,-46.2455"/>
</g>
<!-- Node22 -->
<g id="node13" class="node">
<title>Node22</title>
<g id="a_node13"><a xlink:href="WaterSSTP_8cpp.html" target="_top" xlink:title="Definitions for a ThermoPhase class consisting of pure water (see Thermodynamic Properties and class ...">
<polygon fill="#ffffff" stroke="#000000" points="945,-.5 945,-19.5 1033,-19.5 1033,-.5 945,-.5"/>
<text text-anchor="middle" x="989" y="-7.5" font-family="Helvetica,sans-Serif" font-size="10.00" fill="#000000">WaterSSTP.cpp</text>
</a>
</g>
</g>
<!-- Node21&#45;&gt;Node22 -->
<g id="edge15" class="edge">
<title>Node21&#45;&gt;Node22</title>
<path fill="none" stroke="#191970" d="M901.3042,-51.9741C922.488,-41.8348 950.5403,-28.408 969.1494,-19.5011"/>
<polygon fill="#191970" stroke="#191970" points="899.622,-48.8989 892.113,-56.3733 902.6441,-55.2129 899.622,-48.8989"/>
</g>
</g>
</svg>
