<?xml version="1.0" encoding="UTF-8" standalone="no"?>
<!DOCTYPE svg PUBLIC "-//W3C//DTD SVG 1.1//EN"
 "http://www.w3.org/Graphics/SVG/1.1/DTD/svg11.dtd">
<!-- Generated by graphviz version 2.36.0 (20140111.2315)
 -->
<!-- Title: xml.cpp Pages: 1 -->
<svg width="423pt" height="252pt"
 viewBox="0.00 0.00 423.00 252.00" xmlns="http://www.w3.org/2000/svg" xmlns:xlink="http://www.w3.org/1999/xlink">
<g id="graph0" class="graph" transform="scale(1 1) rotate(0) translate(4 248)">
<title>xml.cpp</title>
<polygon fill="white" stroke="none" points="-4,4 -4,-248 419,-248 419,4 -4,4"/>
<!-- Node1 -->
<g id="node1" class="node"><title>Node1</title>
<polygon fill="#bfbfbf" stroke="black" points="192,-224.5 192,-243.5 242,-243.5 242,-224.5 192,-224.5"/>
<text text-anchor="middle" x="217" y="-231.5" font-family="FreeSans" font-size="10.00">xml.cpp</text>
</g>
<!-- Node2 -->
<g id="node2" class="node"><title>Node2</title>
<g id="a_node2"><a xlink:href="config_8h_source.html" target="_top" xlink:title="cantera/base/config.h">
<polygon fill="white" stroke="black" points="0,-0.5 0,-19.5 108,-19.5 108,-0.5 0,-0.5"/>
<text text-anchor="middle" x="54" y="-7.5" font-family="FreeSans" font-size="10.00">cantera/base/config.h</text>
</a>
</g>
</g>
<!-- Node1&#45;&gt;Node2 -->
<g id="edge1" class="edge"><title>Node1&#45;&gt;Node2</title>
<path fill="none" stroke="midnightblue" d="M192,-228.14C168.768,-222.378 134.723,-210.565 114,-188 71.8037,-142.052 59.146,-65.2832 55.4588,-29.906"/>
<polygon fill="midnightblue" stroke="midnightblue" points="58.913,-29.242 54.5225,-19.5997 51.9417,-29.8754 58.913,-29.242"/>
</g>
<!-- Node3 -->
<g id="node3" class="node"><title>Node3</title>
<polygon fill="white" stroke="#bfbfbf" points="284,-168.5 284,-187.5 334,-187.5 334,-168.5 284,-168.5"/>
<text text-anchor="middle" x="309" y="-175.5" font-family="FreeSans" font-size="10.00">sstream</text>
</g>
<!-- Node1&#45;&gt;Node3 -->
<g id="edge2" class="edge"><title>Node1&#45;&gt;Node3</title>
<path fill="none" stroke="midnightblue" d="M231.781,-224.324C246.267,-215.822 268.573,-202.729 285.493,-192.797"/>
<polygon fill="midnightblue" stroke="midnightblue" points="287.403,-195.735 294.255,-187.655 283.859,-189.698 287.403,-195.735"/>
</g>
<!-- Node4 -->
<g id="node4" class="node"><title>Node4</title>
<polygon fill="white" stroke="#bfbfbf" points="352,-168.5 352,-187.5 408,-187.5 408,-168.5 352,-168.5"/>
<text text-anchor="middle" x="380" y="-175.5" font-family="FreeSans" font-size="10.00">algorithm</text>
</g>
<!-- Node1&#45;&gt;Node4 -->
<g id="edge3" class="edge"><title>Node1&#45;&gt;Node4</title>
<path fill="none" stroke="midnightblue" d="M242.112,-224.681C269.59,-215.578 313.842,-200.917 344.782,-190.667"/>
<polygon fill="midnightblue" stroke="midnightblue" points="345.93,-193.974 354.322,-187.507 343.728,-187.329 345.93,-193.974"/>
</g>
<!-- Node5 -->
<g id="node5" class="node"><title>Node5</title>
<g id="a_node5"><a xlink:href="xml_8h.html" target="_top" xlink:title="Classes providing support for XML data files. ">
<polygon fill="white" stroke="black" points="130,-168.5 130,-187.5 228,-187.5 228,-168.5 130,-168.5"/>
<text text-anchor="middle" x="179" y="-175.5" font-family="FreeSans" font-size="10.00">cantera/base/xml.h</text>
</a>
</g>
</g>
<!-- Node1&#45;&gt;Node5 -->
<g id="edge4" class="edge"><title>Node1&#45;&gt;Node5</title>
<path fill="none" stroke="midnightblue" d="M210.725,-224.083C205.358,-216.455 197.482,-205.264 190.921,-195.941"/>
<polygon fill="midnightblue" stroke="midnightblue" points="193.775,-193.915 185.158,-187.751 188.051,-197.943 193.775,-193.915"/>
</g>
<!-- Node9 -->
<g id="node9" class="node"><title>Node9</title>
<g id="a_node9"><a xlink:href="global_8h.html" target="_top" xlink:title="This file contains definitions for utility functions and text for modules, inputfiles, logs, textlogs, (see Input File Handling, Diagnostic Output, and Writing messages to the screen). ">
<polygon fill="white" stroke="black" points="125,-112.5 125,-131.5 175,-131.5 175,-112.5 125,-112.5"/>
<text text-anchor="middle" x="150" y="-119.5" font-family="FreeSans" font-size="10.00">global.h</text>
</a>
</g>
</g>
<!-- Node1&#45;&gt;Node9 -->
<g id="edge16" class="edge"><title>Node1&#45;&gt;Node9</title>
<path fill="none" stroke="midnightblue" d="M191.989,-228.958C169.097,-223.788 136.503,-212.389 121,-188 111.119,-172.455 122.577,-152.975 133.874,-139.413"/>
<polygon fill="midnightblue" stroke="midnightblue" points="136.615,-141.599 140.695,-131.822 131.408,-136.921 136.615,-141.599"/>
</g>
<!-- Node15 -->
<g id="node15" class="node"><title>Node15</title>
<g id="a_node15"><a xlink:href="stringUtils_8h.html" target="_top" xlink:title="Contains declarations for string manipulation functions within Cantera. ">
<polygon fill="white" stroke="black" points="193.5,-112.5 193.5,-131.5 318.5,-131.5 318.5,-112.5 193.5,-112.5"/>
<text text-anchor="middle" x="256" y="-119.5" font-family="FreeSans" font-size="10.00">cantera/base/stringUtils.h</text>
</a>
</g>
</g>
<!-- Node1&#45;&gt;Node15 -->
<g id="edge17" class="edge"><title>Node1&#45;&gt;Node15</title>
<path fill="none" stroke="midnightblue" d="M220.904,-224.476C224.941,-215.501 231.302,-200.91 236,-188 241.678,-172.398 247.153,-154.323 250.934,-141.2"/>
<polygon fill="midnightblue" stroke="midnightblue" points="254.323,-142.08 253.68,-131.504 247.588,-140.172 254.323,-142.08"/>
</g>
<!-- Node6 -->
<g id="node6" class="node"><title>Node6</title>
<g id="a_node6"><a xlink:href="ctexceptions_8h.html" target="_top" xlink:title="Definitions for the classes that are thrown when Cantera experiences an error condition (also contain...">
<polygon fill="white" stroke="black" points="337,-112.5 337,-131.5 415,-131.5 415,-112.5 337,-112.5"/>
<text text-anchor="middle" x="376" y="-119.5" font-family="FreeSans" font-size="10.00">ctexceptions.h</text>
</a>
</g>
</g>
<!-- Node5&#45;&gt;Node6 -->
<g id="edge5" class="edge"><title>Node5&#45;&gt;Node6</title>
<path fill="none" stroke="midnightblue" d="M210.215,-168.444C243.933,-159.201 297.8,-144.436 334.932,-134.257"/>
<polygon fill="midnightblue" stroke="midnightblue" points="336.212,-137.536 344.931,-131.516 334.361,-130.785 336.212,-137.536"/>
</g>
<!-- Node5&#45;&gt;Node9 -->
<g id="edge8" class="edge"><title>Node5&#45;&gt;Node9</title>
<path fill="none" stroke="midnightblue" d="M174.211,-168.083C170.242,-160.691 164.475,-149.953 159.565,-140.811"/>
<polygon fill="midnightblue" stroke="midnightblue" points="162.514,-138.905 154.7,-131.751 156.347,-142.217 162.514,-138.905"/>
</g>
<!-- Node7 -->
<g id="node7" class="node"><title>Node7</title>
<polygon fill="white" stroke="#bfbfbf" points="300,-56.5 300,-75.5 358,-75.5 358,-56.5 300,-56.5"/>
<text text-anchor="middle" x="329" y="-63.5" font-family="FreeSans" font-size="10.00">exception</text>
</g>
<!-- Node6&#45;&gt;Node7 -->
<g id="edge6" class="edge"><title>Node6&#45;&gt;Node7</title>
<path fill="none" stroke="midnightblue" d="M368.239,-112.083C361.463,-104.298 351.457,-92.8015 343.245,-83.3665"/>
<polygon fill="midnightblue" stroke="midnightblue" points="345.822,-80.9963 336.617,-75.7511 340.542,-85.592 345.822,-80.9963"/>
</g>
<!-- Node8 -->
<g id="node8" class="node"><title>Node8</title>
<polygon fill="white" stroke="#bfbfbf" points="366,-0.5 366,-19.5 406,-19.5 406,-0.5 366,-0.5"/>
<text text-anchor="middle" x="386" y="-7.5" font-family="FreeSans" font-size="10.00">string</text>
</g>
<!-- Node6&#45;&gt;Node8 -->
<g id="edge7" class="edge"><title>Node6&#45;&gt;Node8</title>
<path fill="none" stroke="midnightblue" d="M376.785,-112.368C378.398,-94.617 382.121,-53.6664 384.309,-29.5974"/>
<polygon fill="midnightblue" stroke="midnightblue" points="387.799,-29.8673 385.219,-19.5914 380.828,-29.2334 387.799,-29.8673"/>
</g>
<!-- Node10 -->
<g id="node10" class="node"><title>Node10</title>
<g id="a_node10"><a xlink:href="ct__defs_8h.html" target="_top" xlink:title="This file contains definitions of terms that are used in internal routines and are unlikely to need m...">
<polygon fill="white" stroke="black" points="179,-56.5 179,-75.5 235,-75.5 235,-56.5 179,-56.5"/>
<text text-anchor="middle" x="207" y="-63.5" font-family="FreeSans" font-size="10.00">ct_defs.h</text>
</a>
</g>
</g>
<!-- Node9&#45;&gt;Node10 -->
<g id="edge9" class="edge"><title>Node9&#45;&gt;Node10</title>
<path fill="none" stroke="midnightblue" d="M159.158,-112.324C167.501,-104.42 180.032,-92.5482 190.177,-82.9377"/>
<polygon fill="midnightblue" stroke="midnightblue" points="192.823,-85.2522 197.675,-75.8339 188.009,-80.1705 192.823,-85.2522"/>
</g>
<!-- Node10&#45;&gt;Node2 -->
<g id="edge10" class="edge"><title>Node10&#45;&gt;Node2</title>
<path fill="none" stroke="midnightblue" d="M182.757,-56.4435C157.129,-47.3986 116.515,-33.064 87.7616,-22.9158"/>
<polygon fill="midnightblue" stroke="midnightblue" points="88.7247,-19.5442 78.1299,-19.5164 86.3949,-26.1452 88.7247,-19.5442"/>
</g>
<!-- Node10&#45;&gt;Node8 -->
<g id="edge15" class="edge"><title>Node10&#45;&gt;Node8</title>
<path fill="none" stroke="midnightblue" d="M235.363,-56.4435C268.329,-46.4985 322.492,-30.1587 356.101,-20.02"/>
<polygon fill="midnightblue" stroke="midnightblue" points="357.262,-23.3256 365.825,-17.0865 355.24,-16.6239 357.262,-23.3256"/>
</g>
<!-- Node11 -->
<g id="node11" class="node"><title>Node11</title>
<polygon fill="white" stroke="#bfbfbf" points="180,-0.5 180,-19.5 224,-19.5 224,-0.5 180,-0.5"/>
<text text-anchor="middle" x="202" y="-7.5" font-family="FreeSans" font-size="10.00">cmath</text>
</g>
<!-- Node10&#45;&gt;Node11 -->
<g id="edge11" class="edge"><title>Node10&#45;&gt;Node11</title>
<path fill="none" stroke="midnightblue" d="M206.174,-56.083C205.519,-49.0059 204.58,-38.8611 203.758,-29.9865"/>
<polygon fill="midnightblue" stroke="midnightblue" points="207.217,-29.3858 202.81,-19.7511 200.247,-30.0312 207.217,-29.3858"/>
</g>
<!-- Node12 -->
<g id="node12" class="node"><title>Node12</title>
<polygon fill="white" stroke="#bfbfbf" points="242,-0.5 242,-19.5 286,-19.5 286,-0.5 242,-0.5"/>
<text text-anchor="middle" x="264" y="-7.5" font-family="FreeSans" font-size="10.00">cstdlib</text>
</g>
<!-- Node10&#45;&gt;Node12 -->
<g id="edge12" class="edge"><title>Node10&#45;&gt;Node12</title>
<path fill="none" stroke="midnightblue" d="M216.158,-56.324C224.501,-48.4196 237.032,-36.5482 247.177,-26.9377"/>
<polygon fill="midnightblue" stroke="midnightblue" points="249.823,-29.2522 254.675,-19.8339 245.009,-24.1705 249.823,-29.2522"/>
</g>
<!-- Node13 -->
<g id="node13" class="node"><title>Node13</title>
<polygon fill="white" stroke="#bfbfbf" points="304.5,-0.5 304.5,-19.5 347.5,-19.5 347.5,-0.5 304.5,-0.5"/>
<text text-anchor="middle" x="326" y="-7.5" font-family="FreeSans" font-size="10.00">vector</text>
</g>
<!-- Node10&#45;&gt;Node13 -->
<g id="edge13" class="edge"><title>Node10&#45;&gt;Node13</title>
<path fill="none" stroke="midnightblue" d="M225.856,-56.4435C245.266,-47.6356 275.73,-33.8116 297.965,-23.722"/>
<polygon fill="midnightblue" stroke="midnightblue" points="299.572,-26.836 307.232,-19.5164 296.68,-20.4615 299.572,-26.836"/>
</g>
<!-- Node14 -->
<g id="node14" class="node"><title>Node14</title>
<polygon fill="white" stroke="#bfbfbf" points="126.5,-0.5 126.5,-19.5 161.5,-19.5 161.5,-0.5 126.5,-0.5"/>
<text text-anchor="middle" x="144" y="-7.5" font-family="FreeSans" font-size="10.00">map</text>
</g>
<!-- Node10&#45;&gt;Node14 -->
<g id="edge14" class="edge"><title>Node10&#45;&gt;Node14</title>
<path fill="none" stroke="midnightblue" d="M196.878,-56.324C187.474,-48.2631 173.256,-36.0765 161.931,-26.3695"/>
<polygon fill="midnightblue" stroke="midnightblue" points="164.177,-23.6844 154.306,-19.8339 159.621,-28.9993 164.177,-23.6844"/>
</g>
<!-- Node15&#45;&gt;Node8 -->
<g id="edge19" class="edge"><title>Node15&#45;&gt;Node8</title>
<path fill="none" stroke="midnightblue" d="M258.69,-112.321C263.3,-98.7141 273.9,-72.24 291,-56 301.002,-46.5007 332.319,-32.5285 356.289,-22.6785"/>
<polygon fill="midnightblue" stroke="midnightblue" points="357.749,-25.8633 365.703,-18.8644 355.121,-19.3755 357.749,-25.8633"/>
</g>
<!-- Node15&#45;&gt;Node10 -->
<g id="edge18" class="edge"><title>Node15&#45;&gt;Node10</title>
<path fill="none" stroke="midnightblue" d="M247.909,-112.083C240.845,-104.298 230.412,-92.8015 221.851,-83.3665"/>
<polygon fill="midnightblue" stroke="midnightblue" points="224.253,-80.8047 214.941,-75.7511 219.069,-85.5087 224.253,-80.8047"/>
</g>
</g>
</svg>
