<?xml version="1.0" encoding="UTF-8" standalone="no"?>
<!DOCTYPE svg PUBLIC "-//W3C//DTD SVG 1.1//EN"
 "http://www.w3.org/Graphics/SVG/1.1/DTD/svg11.dtd">
<!-- Generated by graphviz version 2.40.1 (20161225.0304)
 -->
<!-- Title: xml.h Pages: 1 -->
<svg width="573pt" height="247pt"
 viewBox="0.00 0.00 572.85 247.00" xmlns="http://www.w3.org/2000/svg" xmlns:xlink="http://www.w3.org/1999/xlink">
<g id="graph0" class="graph" transform="scale(1 1) rotate(0) translate(4 243)">
<title>xml.h</title>
<polygon fill="#ffffff" stroke="transparent" points="-4,4 -4,-243 568.8545,-243 568.8545,4 -4,4"/>
<!-- Node0 -->
<g id="node1" class="node">
<title>Node0</title>
<polygon fill="#bfbfbf" stroke="#000000" points="190.8521,-220.5 190.8521,-238.5 230.7437,-238.5 230.7437,-220.5 190.8521,-220.5"/>
<text text-anchor="middle" x="210.7979" y="-226.5" font-family="Helvetica,sans-Serif" font-size="10.00" fill="#000000">xml.h</text>
</g>
<!-- Node1 -->
<g id="node2" class="node">
<title>Node1</title>
<g id="a_node2"><a xlink:href="ctexceptions_8h.html" target="_top" xlink:title="Definitions for the classes that are thrown when Cantera experiences an error condition (also contain...">
<polygon fill="#ffffff" stroke="#000000" points="129.835,-165.5 129.835,-183.5 209.7607,-183.5 209.7607,-165.5 129.835,-165.5"/>
<text text-anchor="middle" x="169.7979" y="-171.5" font-family="Helvetica,sans-Serif" font-size="10.00" fill="#000000">ctexceptions.h</text>
</a>
</g>
</g>
<!-- Node0&#45;&gt;Node1 -->
<g id="edge1" class="edge">
<title>Node0&#45;&gt;Node1</title>
<path fill="none" stroke="#191970" d="M204.0275,-220.4179C198.2462,-212.6624 189.7686,-201.29 182.6968,-191.8035"/>
<polygon fill="#191970" stroke="#191970" points="185.4981,-189.7051 176.7153,-183.7795 179.8858,-193.8888 185.4981,-189.7051"/>
</g>
<!-- Node15 -->
<g id="node16" class="node">
<title>Node15</title>
<g id="a_node16"><a xlink:href="global_8h.html" target="_top" xlink:title="This file contains definitions for utility functions and text for modules, inputfiles, logs, textlogs, (see Input File Handling, Diagnostic Output, and Writing messages to the screen). ">
<polygon fill="#ffffff" stroke="#000000" points="227.2832,-165.5 227.2832,-183.5 278.3125,-183.5 278.3125,-165.5 227.2832,-165.5"/>
<text text-anchor="middle" x="252.7979" y="-171.5" font-family="Helvetica,sans-Serif" font-size="10.00" fill="#000000">global.h</text>
</a>
</g>
</g>
<!-- Node0&#45;&gt;Node15 -->
<g id="edge15" class="edge">
<title>Node0&#45;&gt;Node15</title>
<path fill="none" stroke="#191970" d="M217.7333,-220.4179C223.6557,-212.6624 232.34,-201.29 239.5843,-191.8035"/>
<polygon fill="#191970" stroke="#191970" points="242.4242,-193.8514 245.7117,-183.7795 236.8609,-189.6029 242.4242,-193.8514"/>
</g>
<!-- Node2 -->
<g id="node3" class="node">
<title>Node2</title>
<g id="a_node3"><a xlink:href="fmt_8h.html" target="_top" xlink:title="Wrapper for either system&#45;installed or local headers for fmt. ">
<polygon fill="#ffffff" stroke="#000000" points="162.3867,-110.5 162.3867,-128.5 261.209,-128.5 261.209,-110.5 162.3867,-110.5"/>
<text text-anchor="middle" x="211.7979" y="-116.5" font-family="Helvetica,sans-Serif" font-size="10.00" fill="#000000">cantera/base/fmt.h</text>
</a>
</g>
</g>
<!-- Node1&#45;&gt;Node2 -->
<g id="edge2" class="edge">
<title>Node1&#45;&gt;Node2</title>
<path fill="none" stroke="#191970" d="M176.7333,-165.4179C182.6557,-157.6624 191.34,-146.29 198.5843,-136.8035"/>
<polygon fill="#191970" stroke="#191970" points="201.4242,-138.8514 204.7117,-128.7795 195.8609,-134.6029 201.4242,-138.8514"/>
</g>
<!-- Node14 -->
<g id="node15" class="node">
<title>Node14</title>
<polygon fill="#ffffff" stroke="#bfbfbf" points="85.394,-110.5 85.394,-128.5 144.2017,-128.5 144.2017,-110.5 85.394,-110.5"/>
<text text-anchor="middle" x="114.7979" y="-116.5" font-family="Helvetica,sans-Serif" font-size="10.00" fill="#000000">exception</text>
</g>
<!-- Node1&#45;&gt;Node14 -->
<g id="edge14" class="edge">
<title>Node1&#45;&gt;Node14</title>
<path fill="none" stroke="#191970" d="M160.7157,-165.4179C152.7228,-157.425 140.8882,-145.5903 131.2356,-135.9377"/>
<polygon fill="#191970" stroke="#191970" points="133.6233,-133.3757 124.0773,-128.7795 128.6735,-138.3254 133.6233,-133.3757"/>
</g>
<!-- Node3 -->
<g id="node4" class="node">
<title>Node3</title>
<g id="a_node4"><a xlink:href="ct__defs_8h.html" target="_top" xlink:title="This file contains definitions of terms that are used in internal routines and are unlikely to need m...">
<polygon fill="#ffffff" stroke="#000000" points="286.5073,-55.5 286.5073,-73.5 343.0884,-73.5 343.0884,-55.5 286.5073,-55.5"/>
<text text-anchor="middle" x="314.7979" y="-61.5" font-family="Helvetica,sans-Serif" font-size="10.00" fill="#000000">ct_defs.h</text>
</a>
</g>
</g>
<!-- Node2&#45;&gt;Node3 -->
<g id="edge3" class="edge">
<title>Node2&#45;&gt;Node3</title>
<path fill="none" stroke="#191970" d="M228.8062,-110.4179C245.1322,-101.7001 270.0169,-88.4122 288.8233,-78.3699"/>
<polygon fill="#191970" stroke="#191970" points="290.5917,-81.3934 297.7642,-73.5956 287.2944,-75.2186 290.5917,-81.3934"/>
</g>
<!-- Node12 -->
<g id="node13" class="node">
<title>Node12</title>
<polygon fill="#ffffff" stroke="#bfbfbf" points="0,-55.5 0,-73.5 121.5957,-73.5 121.5957,-55.5 0,-55.5"/>
<text text-anchor="middle" x="60.7979" y="-61.5" font-family="Helvetica,sans-Serif" font-size="10.00" fill="#000000">cantera/ext/fmt/format.h</text>
</g>
<!-- Node2&#45;&gt;Node12 -->
<g id="edge12" class="edge">
<title>Node2&#45;&gt;Node12</title>
<path fill="none" stroke="#191970" d="M186.8633,-110.4179C161.8709,-101.3147 123.1972,-87.2283 95.2743,-77.0576"/>
<polygon fill="#191970" stroke="#191970" points="96.1125,-73.6381 85.5185,-73.5042 93.7168,-80.2153 96.1125,-73.6381"/>
</g>
<!-- Node13 -->
<g id="node14" class="node">
<title>Node13</title>
<polygon fill="#ffffff" stroke="#bfbfbf" points="139.1084,-55.5 139.1084,-73.5 268.4873,-73.5 268.4873,-55.5 139.1084,-55.5"/>
<text text-anchor="middle" x="203.7979" y="-61.5" font-family="Helvetica,sans-Serif" font-size="10.00" fill="#000000">cantera/ext/fmt/ostream.h</text>
</g>
<!-- Node2&#45;&gt;Node13 -->
<g id="edge13" class="edge">
<title>Node2&#45;&gt;Node13</title>
<path fill="none" stroke="#191970" d="M210.4768,-110.4179C209.4293,-103.2164 207.9282,-92.8962 206.6143,-83.8632"/>
<polygon fill="#191970" stroke="#191970" points="210.0506,-83.1715 205.1476,-73.7795 203.1235,-84.1791 210.0506,-83.1715"/>
</g>
<!-- Node4 -->
<g id="node5" class="node">
<title>Node4</title>
<g id="a_node5"><a xlink:href="config_8h_source.html" target="_top" xlink:title="config.h">
<polygon fill="#ffffff" stroke="#000000" points="71.2856,-.5 71.2856,-18.5 122.3101,-18.5 122.3101,-.5 71.2856,-.5"/>
<text text-anchor="middle" x="96.7979" y="-6.5" font-family="Helvetica,sans-Serif" font-size="10.00" fill="#000000">config.h</text>
</a>
</g>
</g>
<!-- Node3&#45;&gt;Node4 -->
<g id="edge4" class="edge">
<title>Node3&#45;&gt;Node4</title>
<path fill="none" stroke="#191970" d="M286.1227,-57.1038C283.3107,-56.3886 280.4996,-55.6776 277.7979,-55 215.6131,-39.4029 197.5358,-36.3252 132.362,-19.3549"/>
<polygon fill="#191970" stroke="#191970" points="132.9539,-15.892 122.3936,-16.7472 131.1822,-22.6641 132.9539,-15.892"/>
</g>
<!-- Node5 -->
<g id="node6" class="node">
<title>Node5</title>
<polygon fill="#ffffff" stroke="#bfbfbf" points="140.1821,-.5 140.1821,-18.5 183.4136,-18.5 183.4136,-.5 140.1821,-.5"/>
<text text-anchor="middle" x="161.7979" y="-6.5" font-family="Helvetica,sans-Serif" font-size="10.00" fill="#000000">cmath</text>
</g>
<!-- Node3&#45;&gt;Node5 -->
<g id="edge5" class="edge">
<title>Node3&#45;&gt;Node5</title>
<path fill="none" stroke="#191970" d="M289.533,-55.4179C263.1115,-45.9199 221.5993,-30.9972 193.1138,-20.7574"/>
<polygon fill="#191970" stroke="#191970" points="194.222,-17.4365 183.6276,-17.3473 191.854,-24.0238 194.222,-17.4365"/>
</g>
<!-- Node6 -->
<g id="node7" class="node">
<title>Node6</title>
<polygon fill="#ffffff" stroke="#bfbfbf" points="201.6255,-.5 201.6255,-18.5 245.9702,-18.5 245.9702,-.5 201.6255,-.5"/>
<text text-anchor="middle" x="223.7979" y="-6.5" font-family="Helvetica,sans-Serif" font-size="10.00" fill="#000000">cstdlib</text>
</g>
<!-- Node3&#45;&gt;Node6 -->
<g id="edge6" class="edge">
<title>Node3&#45;&gt;Node6</title>
<path fill="none" stroke="#191970" d="M299.7711,-55.4179C285.5447,-46.8195 263.9626,-33.7754 247.4321,-23.7844"/>
<polygon fill="#191970" stroke="#191970" points="249.2157,-20.7729 238.847,-18.5956 245.5949,-26.7637 249.2157,-20.7729"/>
</g>
<!-- Node7 -->
<g id="node8" class="node">
<title>Node7</title>
<polygon fill="#ffffff" stroke="#bfbfbf" points="264.1821,-.5 264.1821,-18.5 307.4136,-18.5 307.4136,-.5 264.1821,-.5"/>
<text text-anchor="middle" x="285.7979" y="-6.5" font-family="Helvetica,sans-Serif" font-size="10.00" fill="#000000">vector</text>
</g>
<!-- Node3&#45;&gt;Node7 -->
<g id="edge7" class="edge">
<title>Node3&#45;&gt;Node7</title>
<path fill="none" stroke="#191970" d="M310.0091,-55.4179C306.045,-47.8998 300.2888,-36.9829 295.3836,-27.6799"/>
<polygon fill="#191970" stroke="#191970" points="298.4508,-25.9927 290.6907,-18.7795 292.2588,-29.2576 298.4508,-25.9927"/>
</g>
<!-- Node8 -->
<g id="node9" class="node">
<title>Node8</title>
<polygon fill="#ffffff" stroke="#bfbfbf" points="325.0713,-.5 325.0713,-18.5 360.5244,-18.5 360.5244,-.5 325.0713,-.5"/>
<text text-anchor="middle" x="342.7979" y="-6.5" font-family="Helvetica,sans-Serif" font-size="10.00" fill="#000000">map</text>
</g>
<!-- Node3&#45;&gt;Node8 -->
<g id="edge8" class="edge">
<title>Node3&#45;&gt;Node8</title>
<path fill="none" stroke="#191970" d="M319.4215,-55.4179C323.2086,-47.9789 328.6898,-37.2123 333.3928,-27.9742"/>
<polygon fill="#191970" stroke="#191970" points="336.656,-29.279 338.0738,-18.7795 330.4178,-26.1032 336.656,-29.279"/>
</g>
<!-- Node9 -->
<g id="node10" class="node">
<title>Node9</title>
<polygon fill="#ffffff" stroke="#bfbfbf" points="378.5713,-.5 378.5713,-18.5 419.0244,-18.5 419.0244,-.5 378.5713,-.5"/>
<text text-anchor="middle" x="398.7979" y="-6.5" font-family="Helvetica,sans-Serif" font-size="10.00" fill="#000000">string</text>
</g>
<!-- Node3&#45;&gt;Node9 -->
<g id="edge9" class="edge">
<title>Node3&#45;&gt;Node9</title>
<path fill="none" stroke="#191970" d="M328.6687,-55.4179C341.5576,-46.9788 360.9872,-34.257 376.1292,-24.3426"/>
<polygon fill="#191970" stroke="#191970" points="378.4574,-27.0017 384.9064,-18.5956 374.6229,-21.1454 378.4574,-27.0017"/>
</g>
<!-- Node10 -->
<g id="node11" class="node">
<title>Node10</title>
<polygon fill="#ffffff" stroke="#bfbfbf" points="437.2339,-.5 437.2339,-18.5 494.3618,-18.5 494.3618,-.5 437.2339,-.5"/>
<text text-anchor="middle" x="465.7979" y="-6.5" font-family="Helvetica,sans-Serif" font-size="10.00" fill="#000000">algorithm</text>
</g>
<!-- Node3&#45;&gt;Node10 -->
<g id="edge10" class="edge">
<title>Node3&#45;&gt;Node10</title>
<path fill="none" stroke="#191970" d="M339.7324,-55.4179C364.7248,-46.3147 403.3985,-32.2283 431.3214,-22.0576"/>
<polygon fill="#191970" stroke="#191970" points="432.879,-25.2153 441.0772,-18.5042 430.4832,-18.6381 432.879,-25.2153"/>
</g>
<!-- Node11 -->
<g id="node12" class="node">
<title>Node11</title>
<polygon fill="#ffffff" stroke="#bfbfbf" points="512.7412,-.5 512.7412,-18.5 564.8545,-18.5 564.8545,-.5 512.7412,-.5"/>
<text text-anchor="middle" x="538.7979" y="-6.5" font-family="Helvetica,sans-Serif" font-size="10.00" fill="#000000">memory</text>
</g>
<!-- Node3&#45;&gt;Node11 -->
<g id="edge11" class="edge">
<title>Node3&#45;&gt;Node11</title>
<path fill="none" stroke="#191970" d="M343.3585,-57.8945C378.5414,-49.6986 440.3788,-35.1035 502.4808,-19.2879"/>
<polygon fill="#191970" stroke="#191970" points="503.6248,-22.608 512.4461,-16.7399 501.8907,-15.8262 503.6248,-22.608"/>
</g>
<!-- Node15&#45;&gt;Node2 -->
<g id="edge17" class="edge">
<title>Node15&#45;&gt;Node2</title>
<path fill="none" stroke="#191970" d="M246.0275,-165.4179C240.2462,-157.6624 231.7686,-146.29 224.6968,-136.8035"/>
<polygon fill="#191970" stroke="#191970" points="227.4981,-134.7051 218.7153,-128.7795 221.8858,-138.8888 227.4981,-134.7051"/>
</g>
<!-- Node15&#45;&gt;Node3 -->
<g id="edge16" class="edge">
<title>Node15&#45;&gt;Node3</title>
<path fill="none" stroke="#191970" d="M257.8716,-165.4982C268.0899,-147.369 291.3141,-106.1647 304.728,-82.3659"/>
<polygon fill="#191970" stroke="#191970" points="307.7929,-84.0562 309.654,-73.6261 301.6948,-80.6191 307.7929,-84.0562"/>
</g>
</g>
</svg>
