<?xml version="1.0" encoding="UTF-8" standalone="no"?>
<!DOCTYPE svg PUBLIC "-//W3C//DTD SVG 1.1//EN"
 "http://www.w3.org/Graphics/SVG/1.1/DTD/svg11.dtd">
<!-- Generated by graphviz version 2.38.0 (20151222.1943)
 -->
<!-- Title: xml.h Pages: 1 -->
<svg width="4345pt" height="140pt"
 viewBox="0.00 0.00 4345.00 140.00" xmlns="http://www.w3.org/2000/svg" xmlns:xlink="http://www.w3.org/1999/xlink">
<g id="graph0" class="graph" transform="scale(1 1) rotate(0) translate(4 136)">
<title>xml.h</title>
<polygon fill="white" stroke="none" points="-4,4 -4,-136 4341,-136 4341,4 -4,4"/>
<!-- Node1 -->
<g id="node1" class="node"><title>Node1</title>
<polygon fill="#bfbfbf" stroke="black" points="775,-112.5 775,-131.5 814,-131.5 814,-112.5 775,-112.5"/>
<text text-anchor="middle" x="794.5" y="-119.5" font-family="FreeSans" font-size="10.00">xml.h</text>
</g>
<!-- Node2 -->
<g id="node2" class="node"><title>Node2</title>
<g id="a_node2"><a xlink:href="global_8cpp.html" target="_top" xlink:title="global.cpp">
<polygon fill="white" stroke="black" points="240.5,-56.5 240.5,-75.5 300.5,-75.5 300.5,-56.5 240.5,-56.5"/>
<text text-anchor="middle" x="270.5" y="-63.5" font-family="FreeSans" font-size="10.00">global.cpp</text>
</a>
</g>
</g>
<!-- Node1&#45;&gt;Node2 -->
<g id="edge1" class="edge"><title>Node1&#45;&gt;Node2</title>
<path fill="none" stroke="midnightblue" d="M764.714,-119.631C688.54,-115.828 480.584,-103.55 309.5,-76 306.619,-75.536 303.633,-74.982 300.655,-74.3801"/>
<polygon fill="midnightblue" stroke="midnightblue" points="764.818,-123.14 774.976,-120.131 765.159,-116.148 764.818,-123.14"/>
</g>
<!-- Node3 -->
<g id="node3" class="node"><title>Node3</title>
<g id="a_node3"><a xlink:href="xml_8cpp.html" target="_top" xlink:title="Classes providing support for XML data files. ">
<polygon fill="white" stroke="black" points="318.5,-56.5 318.5,-75.5 368.5,-75.5 368.5,-56.5 318.5,-56.5"/>
<text text-anchor="middle" x="343.5" y="-63.5" font-family="FreeSans" font-size="10.00">xml.cpp</text>
</a>
</g>
</g>
<!-- Node1&#45;&gt;Node3 -->
<g id="edge2" class="edge"><title>Node1&#45;&gt;Node3</title>
<path fill="none" stroke="midnightblue" d="M764.709,-119.337C695.987,-115.164 521.241,-102.622 377.5,-76 374.618,-75.4662 371.622,-74.8162 368.655,-74.1123"/>
<polygon fill="midnightblue" stroke="midnightblue" points="764.617,-122.838 774.807,-119.936 765.032,-115.85 764.617,-122.838"/>
</g>
<!-- Node4 -->
<g id="node4" class="node"><title>Node4</title>
<g id="a_node4"><a xlink:href="KineticsFactory_8cpp.html" target="_top" xlink:title="KineticsFactory.cpp">
<polygon fill="white" stroke="black" points="387,-56.5 387,-75.5 488,-75.5 488,-56.5 387,-56.5"/>
<text text-anchor="middle" x="437.5" y="-63.5" font-family="FreeSans" font-size="10.00">KineticsFactory.cpp</text>
</a>
</g>
</g>
<!-- Node1&#45;&gt;Node4 -->
<g id="edge3" class="edge"><title>Node1&#45;&gt;Node4</title>
<path fill="none" stroke="midnightblue" d="M764.681,-116.489C703.608,-107.252 563.702,-86.0894 488.138,-74.6595"/>
<polygon fill="midnightblue" stroke="midnightblue" points="764.387,-119.985 774.798,-118.02 765.434,-113.063 764.387,-119.985"/>
</g>
<!-- Node5 -->
<g id="node5" class="node"><title>Node5</title>
<g id="a_node5"><a xlink:href="Sim1D_8cpp.html" target="_top" xlink:title="Sim1D.cpp">
<polygon fill="white" stroke="black" points="506.5,-56.5 506.5,-75.5 570.5,-75.5 570.5,-56.5 506.5,-56.5"/>
<text text-anchor="middle" x="538.5" y="-63.5" font-family="FreeSans" font-size="10.00">Sim1D.cpp</text>
</a>
</g>
</g>
<!-- Node1&#45;&gt;Node5 -->
<g id="edge4" class="edge"><title>Node1&#45;&gt;Node5</title>
<path fill="none" stroke="midnightblue" d="M764.951,-114.911C723.491,-106.344 645.703,-90.194 579.5,-76 576.65,-75.3889 573.689,-74.749 570.723,-74.1043"/>
<polygon fill="midnightblue" stroke="midnightblue" points="764.42,-118.375 774.921,-116.969 765.835,-111.519 764.42,-118.375"/>
</g>
<!-- Node6 -->
<g id="node6" class="node"><title>Node6</title>
<g id="a_node6"><a xlink:href="MaskellSolidSolnPhase_8cpp.html" target="_top" xlink:title="Implementation file for an ideal solid solution model with incompressible thermodynamics (see Thermod...">
<polygon fill="white" stroke="black" points="588.5,-56.5 588.5,-75.5 724.5,-75.5 724.5,-56.5 588.5,-56.5"/>
<text text-anchor="middle" x="656.5" y="-63.5" font-family="FreeSans" font-size="10.00">MaskellSolidSolnPhase.cpp</text>
</a>
</g>
</g>
<!-- Node1&#45;&gt;Node6 -->
<g id="edge5" class="edge"><title>Node1&#45;&gt;Node6</title>
<path fill="none" stroke="midnightblue" d="M765.399,-109.613C739.455,-99.4605 702.045,-84.8219 678.517,-75.6152"/>
<polygon fill="midnightblue" stroke="midnightblue" points="764.14,-112.878 774.728,-113.263 766.691,-106.36 764.14,-112.878"/>
</g>
<!-- Node7 -->
<g id="node7" class="node"><title>Node7</title>
<g id="a_node7"><a xlink:href="PureFluidPhase_8cpp.html" target="_top" xlink:title="Definitions for a ThermoPhase object for a pure fluid phase consisting of gas, liquid, mixed&#45;gas&#45;liquid and supercritical fluid (see Thermodynamic Properties and class PureFluidPhase). ">
<polygon fill="white" stroke="black" points="743,-56.5 743,-75.5 846,-75.5 846,-56.5 743,-56.5"/>
<text text-anchor="middle" x="794.5" y="-63.5" font-family="FreeSans" font-size="10.00">PureFluidPhase.cpp</text>
</a>
</g>
</g>
<!-- Node1&#45;&gt;Node7 -->
<g id="edge6" class="edge"><title>Node1&#45;&gt;Node7</title>
<path fill="none" stroke="midnightblue" d="M794.5,-101.805C794.5,-92.9102 794.5,-82.7798 794.5,-75.7511"/>
<polygon fill="midnightblue" stroke="midnightblue" points="791,-102.083 794.5,-112.083 798,-102.083 791,-102.083"/>
</g>
<!-- Node8 -->
<g id="node8" class="node"><title>Node8</title>
<g id="a_node8"><a xlink:href="VPSSMgr_8cpp.html" target="_top" xlink:title="Definition file for a virtual base class that manages the calculation of standard state properties fo...">
<polygon fill="white" stroke="black" points="864,-56.5 864,-75.5 941,-75.5 941,-56.5 864,-56.5"/>
<text text-anchor="middle" x="902.5" y="-63.5" font-family="FreeSans" font-size="10.00">VPSSMgr.cpp</text>
</a>
</g>
</g>
<!-- Node1&#45;&gt;Node8 -->
<g id="edge7" class="edge"><title>Node1&#45;&gt;Node8</title>
<path fill="none" stroke="midnightblue" d="M821.048,-107.726C841.046,-97.7271 867.887,-84.3065 885.191,-75.6545"/>
<polygon fill="midnightblue" stroke="midnightblue" points="819.231,-104.721 811.852,-112.324 822.362,-110.982 819.231,-104.721"/>
</g>
<!-- Node9 -->
<g id="node9" class="node"><title>Node9</title>
<g id="a_node9"><a xlink:href="VPSSMgr__Water__HKFT_8cpp.html" target="_top" xlink:title="Definition file for a derived class that handles the calculation of standard state thermo properties ...">
<polygon fill="white" stroke="black" points="959,-56.5 959,-75.5 1098,-75.5 1098,-56.5 959,-56.5"/>
<text text-anchor="middle" x="1028.5" y="-63.5" font-family="FreeSans" font-size="10.00">VPSSMgr_Water_HKFT.cpp</text>
</a>
</g>
</g>
<!-- Node1&#45;&gt;Node9 -->
<g id="edge8" class="edge"><title>Node1&#45;&gt;Node9</title>
<path fill="none" stroke="midnightblue" d="M824.044,-114.182C866.565,-104.37 944.99,-86.2714 991.373,-75.5679"/>
<polygon fill="midnightblue" stroke="midnightblue" points="823.005,-110.83 814.048,-116.489 824.579,-117.651 823.005,-110.83"/>
</g>
<!-- Node10 -->
<g id="node10" class="node"><title>Node10</title>
<g id="a_node10"><a xlink:href="ctml_8h.html" target="_top" xlink:title="CTML (&quot;Cantera Markup Language&quot;) is the variant of XML that Cantera uses to store data...">
<polygon fill="white" stroke="red" points="2214,-56.5 2214,-75.5 2257,-75.5 2257,-56.5 2214,-56.5"/>
<text text-anchor="middle" x="2235.5" y="-63.5" font-family="FreeSans" font-size="10.00">ctml.h</text>
</a>
</g>
</g>
<!-- Node1&#45;&gt;Node10 -->
<g id="edge9" class="edge"><title>Node1&#45;&gt;Node10</title>
<path fill="none" stroke="midnightblue" d="M824.1,-119.891C1013.35,-112.799 2051.15,-73.9082 2214,-67.8058"/>
<polygon fill="midnightblue" stroke="midnightblue" points="823.912,-116.395 814.051,-120.267 824.175,-123.39 823.912,-116.395"/>
</g>
<!-- Node49 -->
<g id="node49" class="node"><title>Node49</title>
<g id="a_node49"><a xlink:href="ThermoFactory_8h.html" target="_top" xlink:title="Headers for the factory class that can create known ThermoPhase objects (see Thermodynamic Properties...">
<polygon fill="white" stroke="red" points="1116,-56.5 1116,-75.5 1205,-75.5 1205,-56.5 1116,-56.5"/>
<text text-anchor="middle" x="1160.5" y="-63.5" font-family="FreeSans" font-size="10.00">ThermoFactory.h</text>
</a>
</g>
</g>
<!-- Node1&#45;&gt;Node49 -->
<g id="edge48" class="edge"><title>Node1&#45;&gt;Node49</title>
<path fill="none" stroke="midnightblue" d="M824.433,-116.905C880.05,-109.247 1003.08,-92.0751 1106.5,-76 1109.51,-75.5329 1112.6,-75.0419 1115.72,-74.5404"/>
<polygon fill="midnightblue" stroke="midnightblue" points="823.665,-113.478 814.234,-118.307 824.618,-120.412 823.665,-113.478"/>
</g>
<!-- Node50 -->
<g id="node50" class="node"><title>Node50</title>
<g id="a_node50"><a xlink:href="LiquidTranInteraction_8h.html" target="_top" xlink:title="Header file defining the class LiquidTranInteraction and classes which derive from LiquidTranInteract...">
<polygon fill="white" stroke="red" points="2275,-56.5 2275,-75.5 2390,-75.5 2390,-56.5 2275,-56.5"/>
<text text-anchor="middle" x="2332.5" y="-63.5" font-family="FreeSans" font-size="10.00">LiquidTranInteraction.h</text>
</a>
</g>
</g>
<!-- Node1&#45;&gt;Node50 -->
<g id="edge65" class="edge"><title>Node1&#45;&gt;Node50</title>
<path fill="none" stroke="midnightblue" d="M824.464,-121.228C977.512,-122.152 1687.29,-123.552 2265.5,-76 2268.54,-75.7499 2271.66,-75.4578 2274.8,-75.1347"/>
<polygon fill="midnightblue" stroke="midnightblue" points="824.053,-117.725 814.03,-121.16 824.007,-124.725 824.053,-117.725"/>
</g>
<!-- Node11 -->
<g id="node11" class="node"><title>Node11</title>
<g id="a_node11"><a xlink:href="application_8cpp.html" target="_top" xlink:title="application.cpp">
<polygon fill="white" stroke="black" points="4005,-0.5 4005,-19.5 4086,-19.5 4086,-0.5 4005,-0.5"/>
<text text-anchor="middle" x="4045.5" y="-7.5" font-family="FreeSans" font-size="10.00">application.cpp</text>
</a>
</g>
</g>
<!-- Node10&#45;&gt;Node11 -->
<g id="edge10" class="edge"><title>Node10&#45;&gt;Node11</title>
<path fill="none" stroke="midnightblue" d="M2267.38,-56.1665C2662.07,2.76135 3616.99,-58.5463 3996.5,-20 3999.25,-19.7203 4002.08,-19.3699 4004.93,-18.9709"/>
<polygon fill="midnightblue" stroke="midnightblue" points="2266.65,-52.7373 2257.3,-57.7171 2267.71,-59.6559 2266.65,-52.7373"/>
</g>
<!-- Node12 -->
<g id="node12" class="node"><title>Node12</title>
<g id="a_node12"><a xlink:href="ct2ctml_8cpp.html" target="_top" xlink:title="Driver for the system call to the python executable that converts cti files to ctml files (see Input ...">
<polygon fill="white" stroke="black" points="4104,-0.5 4104,-19.5 4171,-19.5 4171,-0.5 4104,-0.5"/>
<text text-anchor="middle" x="4137.5" y="-7.5" font-family="FreeSans" font-size="10.00">ct2ctml.cpp</text>
</a>
</g>
</g>
<!-- Node10&#45;&gt;Node12 -->
<g id="edge11" class="edge"><title>Node10&#45;&gt;Node12</title>
<path fill="none" stroke="midnightblue" d="M2267.33,-56.1764C2683.8,5.83763 3694.71,-66.4495 4095.5,-20 4098.17,-19.6909 4100.91,-19.2908 4103.67,-18.8314"/>
<polygon fill="midnightblue" stroke="midnightblue" points="2266.65,-52.739 2257.3,-57.7142 2267.71,-59.6581 2266.65,-52.739"/>
</g>
<!-- Node13 -->
<g id="node13" class="node"><title>Node13</title>
<g id="a_node13"><a xlink:href="ctml_8cpp.html" target="_top" xlink:title="Definitions for functions to read and write CTML. ">
<polygon fill="white" stroke="black" points="4189,-0.5 4189,-19.5 4242,-19.5 4242,-0.5 4189,-0.5"/>
<text text-anchor="middle" x="4215.5" y="-7.5" font-family="FreeSans" font-size="10.00">ctml.cpp</text>
</a>
</g>
</g>
<!-- Node10&#45;&gt;Node13 -->
<g id="edge12" class="edge"><title>Node10&#45;&gt;Node13</title>
<path fill="none" stroke="midnightblue" d="M2267.46,-56.1586C2702.74,8.40932 3762.05,-76.9401 4180.5,-20 4183.24,-19.6278 4186.06,-19.1177 4188.87,-18.528"/>
<polygon fill="midnightblue" stroke="midnightblue" points="2266.65,-52.7415 2257.3,-57.7119 2267.71,-59.6612 2266.65,-52.7415"/>
</g>
<!-- Node14 -->
<g id="node14" class="node"><title>Node14</title>
<g id="a_node14"><a xlink:href="stringUtils_8cpp.html" target="_top" xlink:title="Contains definitions for string manipulation functions within Cantera. ">
<polygon fill="white" stroke="black" points="4260,-0.5 4260,-19.5 4337,-19.5 4337,-0.5 4260,-0.5"/>
<text text-anchor="middle" x="4298.5" y="-7.5" font-family="FreeSans" font-size="10.00">stringUtils.cpp</text>
</a>
</g>
</g>
<!-- Node10&#45;&gt;Node14 -->
<g id="edge13" class="edge"><title>Node10&#45;&gt;Node14</title>
<path fill="none" stroke="midnightblue" d="M2267.5,-56.1514C2718.4,10.8836 3815.79,-65.3294 4251.5,-20 4254.23,-19.7163 4257.03,-19.3562 4259.85,-18.9441"/>
<polygon fill="midnightblue" stroke="midnightblue" points="2266.65,-52.7399 2257.3,-57.7101 2267.71,-59.6596 2266.65,-52.7399"/>
</g>
<!-- Node15 -->
<g id="node15" class="node"><title>Node15</title>
<g id="a_node15"><a xlink:href="importKinetics_8cpp.html" target="_top" xlink:title="Declarations of global routines for the importing of kinetics data from XML files (see Input File Han...">
<polygon fill="white" stroke="black" points="1056.5,-0.5 1056.5,-19.5 1152.5,-19.5 1152.5,-0.5 1056.5,-0.5"/>
<text text-anchor="middle" x="1104.5" y="-7.5" font-family="FreeSans" font-size="10.00">importKinetics.cpp</text>
</a>
</g>
</g>
<!-- Node10&#45;&gt;Node15 -->
<g id="edge14" class="edge"><title>Node10&#45;&gt;Node15</title>
<path fill="none" stroke="midnightblue" d="M2203.84,-64.9981C2074.29,-64.711 1571.97,-60.8689 1161.5,-20 1158.61,-19.7122 1155.64,-19.374 1152.65,-19.0007"/>
<polygon fill="midnightblue" stroke="midnightblue" points="2203.87,-68.4981 2213.87,-65.0146 2203.88,-61.4981 2203.87,-68.4981"/>
</g>
<!-- Node16 -->
<g id="node16" class="node"><title>Node16</title>
<g id="a_node16"><a xlink:href="Reaction_8cpp.html" target="_top" xlink:title="Reaction.cpp">
<polygon fill="white" stroke="black" points="2045,-0.5 2045,-19.5 2118,-19.5 2118,-0.5 2045,-0.5"/>
<text text-anchor="middle" x="2081.5" y="-7.5" font-family="FreeSans" font-size="10.00">Reaction.cpp</text>
</a>
</g>
</g>
<!-- Node10&#45;&gt;Node16 -->
<g id="edge15" class="edge"><title>Node10&#45;&gt;Node16</title>
<path fill="none" stroke="midnightblue" d="M2204.1,-53.9907C2175.06,-43.8081 2132.5,-28.8819 2105.92,-19.5637"/>
<polygon fill="midnightblue" stroke="midnightblue" points="2203.17,-57.3715 2213.76,-57.3776 2205.48,-50.7658 2203.17,-57.3715"/>
</g>
<!-- Node17 -->
<g id="node17" class="node"><title>Node17</title>
<g id="a_node17"><a xlink:href="boundaries1D_8cpp.html" target="_top" xlink:title="boundaries1D.cpp">
<polygon fill="white" stroke="black" points="2136,-0.5 2136,-19.5 2229,-19.5 2229,-0.5 2136,-0.5"/>
<text text-anchor="middle" x="2182.5" y="-7.5" font-family="FreeSans" font-size="10.00">boundaries1D.cpp</text>
</a>
</g>
</g>
<!-- Node10&#45;&gt;Node17 -->
<g id="edge16" class="edge"><title>Node10&#45;&gt;Node17</title>
<path fill="none" stroke="midnightblue" d="M2219.52,-48.7175C2210.18,-39.1997 2198.75,-27.5608 2191.09,-19.7511"/>
<polygon fill="midnightblue" stroke="midnightblue" points="2217.25,-51.3978 2226.75,-56.083 2222.24,-46.4945 2217.25,-51.3978"/>
</g>
<!-- Node18 -->
<g id="node18" class="node"><title>Node18</title>
<g id="a_node18"><a xlink:href="Domain1D_8cpp.html" target="_top" xlink:title="Domain1D.cpp">
<polygon fill="white" stroke="black" points="2247.5,-0.5 2247.5,-19.5 2327.5,-19.5 2327.5,-0.5 2247.5,-0.5"/>
<text text-anchor="middle" x="2287.5" y="-7.5" font-family="FreeSans" font-size="10.00">Domain1D.cpp</text>
</a>
</g>
</g>
<!-- Node10&#45;&gt;Node18 -->
<g id="edge17" class="edge"><title>Node10&#45;&gt;Node18</title>
<path fill="none" stroke="midnightblue" d="M2251.18,-48.7175C2260.34,-39.1997 2271.55,-27.5608 2279.07,-19.7511"/>
<polygon fill="midnightblue" stroke="midnightblue" points="2248.5,-46.452 2244.09,-56.083 2253.54,-51.3075 2248.5,-46.452"/>
</g>
<!-- Node19 -->
<g id="node19" class="node"><title>Node19</title>
<g id="a_node19"><a xlink:href="OneDim_8cpp.html" target="_top" xlink:title="OneDim.cpp">
<polygon fill="white" stroke="black" points="2345.5,-0.5 2345.5,-19.5 2415.5,-19.5 2415.5,-0.5 2345.5,-0.5"/>
<text text-anchor="middle" x="2380.5" y="-7.5" font-family="FreeSans" font-size="10.00">OneDim.cpp</text>
</a>
</g>
</g>
<!-- Node10&#45;&gt;Node19 -->
<g id="edge18" class="edge"><title>Node10&#45;&gt;Node19</title>
<path fill="none" stroke="midnightblue" d="M2266.64,-53.4013C2293.82,-43.281 2332.64,-28.8234 2357.2,-19.677"/>
<polygon fill="midnightblue" stroke="midnightblue" points="2265.36,-50.1457 2257.21,-56.9157 2267.8,-56.7055 2265.36,-50.1457"/>
</g>
<!-- Node20 -->
<g id="node20" class="node"><title>Node20</title>
<g id="a_node20"><a xlink:href="StFlow_8cpp.html" target="_top" xlink:title="StFlow.cpp">
<polygon fill="white" stroke="black" points="2434,-0.5 2434,-19.5 2499,-19.5 2499,-0.5 2434,-0.5"/>
<text text-anchor="middle" x="2466.5" y="-7.5" font-family="FreeSans" font-size="10.00">StFlow.cpp</text>
</a>
</g>
</g>
<!-- Node10&#45;&gt;Node20 -->
<g id="edge19" class="edge"><title>Node10&#45;&gt;Node20</title>
<path fill="none" stroke="midnightblue" d="M2267,-55.769C2310.2,-44.8802 2388.98,-27.6984 2433.72,-18.0421"/>
<polygon fill="midnightblue" stroke="midnightblue" points="2265.89,-52.4412 2257.08,-58.3264 2267.64,-59.2197 2265.89,-52.4412"/>
</g>
<!-- Node21 -->
<g id="node21" class="node"><title>Node21</title>
<g id="a_node21"><a xlink:href="ConstDensityThermo_8cpp.html" target="_top" xlink:title="Declarations for a Thermo manager for incompressible ThermoPhases (see Thermodynamic Properties and C...">
<polygon fill="white" stroke="black" points="2517.5,-0.5 2517.5,-19.5 2641.5,-19.5 2641.5,-0.5 2517.5,-0.5"/>
<text text-anchor="middle" x="2579.5" y="-7.5" font-family="FreeSans" font-size="10.00">ConstDensityThermo.cpp</text>
</a>
</g>
</g>
<!-- Node10&#45;&gt;Node21 -->
<g id="edge20" class="edge"><title>Node10&#45;&gt;Node21</title>
<path fill="none" stroke="midnightblue" d="M2267.07,-55.9725C2326.45,-43.8142 2444.18,-28.1432 2517.22,-18.805"/>
<polygon fill="midnightblue" stroke="midnightblue" points="2266.07,-52.6065 2257.03,-58.1224 2267.54,-59.4514 2266.07,-52.6065"/>
</g>
<!-- Node22 -->
<g id="node22" class="node"><title>Node22</title>
<g id="a_node22"><a xlink:href="DebyeHuckel_8cpp.html" target="_top" xlink:title="Declarations for the DebyeHuckel ThermoPhase object, which models dilute electrolyte solutions (see T...">
<polygon fill="white" stroke="black" points="1170.5,-0.5 1170.5,-19.5 1262.5,-19.5 1262.5,-0.5 1170.5,-0.5"/>
<text text-anchor="middle" x="1216.5" y="-7.5" font-family="FreeSans" font-size="10.00">DebyeHuckel.cpp</text>
</a>
</g>
</g>
<!-- Node10&#45;&gt;Node22 -->
<g id="edge21" class="edge"><title>Node10&#45;&gt;Node22</title>
<path fill="none" stroke="midnightblue" d="M2203.6,-64.8472C2082.03,-63.9819 1636.24,-58.2266 1271.5,-20 1268.61,-19.6974 1265.65,-19.3422 1262.66,-18.9508"/>
<polygon fill="midnightblue" stroke="midnightblue" points="2203.69,-68.3477 2213.71,-64.9129 2203.73,-61.3478 2203.69,-68.3477"/>
</g>
<!-- Node23 -->
<g id="node23" class="node"><title>Node23</title>
<g id="a_node23"><a xlink:href="Elements_8cpp.html" target="_top" xlink:title="This file contains a database of atomic weights. ">
<polygon fill="white" stroke="black" points="2659.5,-0.5 2659.5,-19.5 2733.5,-19.5 2733.5,-0.5 2659.5,-0.5"/>
<text text-anchor="middle" x="2696.5" y="-7.5" font-family="FreeSans" font-size="10.00">Elements.cpp</text>
</a>
</g>
</g>
<!-- Node10&#45;&gt;Node23 -->
<g id="edge22" class="edge"><title>Node10&#45;&gt;Node23</title>
<path fill="none" stroke="midnightblue" d="M2266.98,-56.0627C2435.99,-23.9451 2483.64,-44.0628 2650.5,-20 2653.4,-19.5819 2656.39,-19.1033 2659.4,-18.5897"/>
<polygon fill="midnightblue" stroke="midnightblue" points="2266.16,-52.6579 2257,-57.9929 2267.48,-59.5306 2266.16,-52.6579"/>
</g>
<!-- Node24 -->
<g id="node24" class="node"><title>Node24</title>
<g id="a_node24"><a xlink:href="FixedChemPotSSTP_8cpp.html" target="_top" xlink:title="Definition file for the FixedChemPotSSTP class, which represents a fixed&#45;composition incompressible s...">
<polygon fill="white" stroke="black" points="1281,-0.5 1281,-19.5 1406,-19.5 1406,-0.5 1281,-0.5"/>
<text text-anchor="middle" x="1343.5" y="-7.5" font-family="FreeSans" font-size="10.00">FixedChemPotSSTP.cpp</text>
</a>
</g>
</g>
<!-- Node10&#45;&gt;Node24 -->
<g id="edge23" class="edge"><title>Node10&#45;&gt;Node24</title>
<path fill="none" stroke="midnightblue" d="M2203.88,-64.0566C2094.48,-60.6239 1721.96,-47.5294 1415.5,-20 1412.49,-19.7295 1409.41,-19.4306 1406.3,-19.1111"/>
<polygon fill="midnightblue" stroke="midnightblue" points="2203.82,-67.5563 2213.92,-64.3676 2204.03,-60.5596 2203.82,-67.5563"/>
</g>
<!-- Node25 -->
<g id="node25" class="node"><title>Node25</title>
<g id="a_node25"><a xlink:href="HMWSoln__input_8cpp.html" target="_top" xlink:title="Definitions for the HMWSoln ThermoPhase object, which models concentrated electrolyte solutions (see ...">
<polygon fill="white" stroke="black" points="1424.5,-0.5 1424.5,-19.5 1528.5,-19.5 1528.5,-0.5 1424.5,-0.5"/>
<text text-anchor="middle" x="1476.5" y="-7.5" font-family="FreeSans" font-size="10.00">HMWSoln_input.cpp</text>
</a>
</g>
</g>
<!-- Node10&#45;&gt;Node25 -->
<g id="edge24" class="edge"><title>Node10&#45;&gt;Node25</title>
<path fill="none" stroke="midnightblue" d="M2203.49,-63.8725C2104.33,-60.1797 1793.57,-47.0984 1537.5,-20 1534.63,-19.6958 1531.68,-19.3557 1528.71,-18.9906"/>
<polygon fill="midnightblue" stroke="midnightblue" points="2203.61,-67.3793 2213.73,-64.2485 2203.87,-60.384 2203.61,-67.3793"/>
</g>
<!-- Node26 -->
<g id="node26" class="node"><title>Node26</title>
<g id="a_node26"><a xlink:href="IdealMolalSoln_8cpp.html" target="_top" xlink:title="ThermoPhase object for the ideal molal equation of state (see Thermodynamic Properties and class Idea...">
<polygon fill="white" stroke="black" points="1546.5,-0.5 1546.5,-19.5 1644.5,-19.5 1644.5,-0.5 1546.5,-0.5"/>
<text text-anchor="middle" x="1595.5" y="-7.5" font-family="FreeSans" font-size="10.00">IdealMolalSoln.cpp</text>
</a>
</g>
</g>
<!-- Node10&#45;&gt;Node26 -->
<g id="edge25" class="edge"><title>Node10&#45;&gt;Node26</title>
<path fill="none" stroke="midnightblue" d="M2203.66,-63.3993C2115.82,-58.7976 1862.72,-44.2845 1653.5,-20 1650.56,-19.6593 1647.55,-19.2803 1644.51,-18.876"/>
<polygon fill="midnightblue" stroke="midnightblue" points="2203.61,-66.9011 2213.77,-63.9234 2203.97,-59.9105 2203.61,-66.9011"/>
</g>
<!-- Node27 -->
<g id="node27" class="node"><title>Node27</title>
<g id="a_node27"><a xlink:href="IdealSolidSolnPhase_8cpp.html" target="_top" xlink:title="Implementation file for an ideal solid solution model with incompressible thermodynamics (see Thermod...">
<polygon fill="white" stroke="black" points="1662.5,-0.5 1662.5,-19.5 1786.5,-19.5 1786.5,-0.5 1662.5,-0.5"/>
<text text-anchor="middle" x="1724.5" y="-7.5" font-family="FreeSans" font-size="10.00">IdealSolidSolnPhase.cpp</text>
</a>
</g>
</g>
<!-- Node10&#45;&gt;Node27 -->
<g id="edge26" class="edge"><title>Node10&#45;&gt;Node27</title>
<path fill="none" stroke="midnightblue" d="M2203.69,-62.0129C2131.21,-55.1481 1948.25,-37.4895 1795.5,-20 1792.66,-19.6749 1789.76,-19.3356 1786.83,-18.9872"/>
<polygon fill="midnightblue" stroke="midnightblue" points="2203.68,-65.5269 2213.96,-62.9833 2204.33,-58.558 2203.68,-65.5269"/>
</g>
<!-- Node28 -->
<g id="node28" class="node"><title>Node28</title>
<g id="a_node28"><a xlink:href="LatticePhase_8cpp.html" target="_top" xlink:title="Definitions for a simple thermodynamics model of a bulk phase derived from ThermoPhase, assuming a lattice of solid atoms (see Thermodynamic Properties and class LatticePhase). ">
<polygon fill="white" stroke="black" points="1805,-0.5 1805,-19.5 1896,-19.5 1896,-0.5 1805,-0.5"/>
<text text-anchor="middle" x="1850.5" y="-7.5" font-family="FreeSans" font-size="10.00">LatticePhase.cpp</text>
</a>
</g>
</g>
<!-- Node10&#45;&gt;Node28 -->
<g id="edge27" class="edge"><title>Node10&#45;&gt;Node28</title>
<path fill="none" stroke="midnightblue" d="M2203.6,-60.9867C2144.51,-53.4816 2014.08,-36.5771 1904.5,-20 1901.77,-19.5877 1898.97,-19.1534 1896.15,-18.7072"/>
<polygon fill="midnightblue" stroke="midnightblue" points="2203.42,-64.4919 2213.78,-62.2765 2204.3,-57.5474 2203.42,-64.4919"/>
</g>
<!-- Node29 -->
<g id="node29" class="node"><title>Node29</title>
<g id="a_node29"><a xlink:href="LatticeSolidPhase_8cpp.html" target="_top" xlink:title="Definitions for a simple thermodynamics model of a bulk solid phase derived from ThermoPhase, assuming an ideal solution model based on a lattice of solid atoms (see Thermodynamic Properties and class LatticeSolidPhase). ">
<polygon fill="white" stroke="black" points="1914,-0.5 1914,-19.5 2027,-19.5 2027,-0.5 1914,-0.5"/>
<text text-anchor="middle" x="1970.5" y="-7.5" font-family="FreeSans" font-size="10.00">LatticeSolidPhase.cpp</text>
</a>
</g>
</g>
<!-- Node10&#45;&gt;Node29 -->
<g id="edge28" class="edge"><title>Node10&#45;&gt;Node29</title>
<path fill="none" stroke="midnightblue" d="M2203.73,-58.5259C2155.9,-48.7791 2065.35,-30.3277 2012.24,-19.5062"/>
<polygon fill="midnightblue" stroke="midnightblue" points="2203.32,-62.0137 2213.81,-60.581 2204.71,-55.1547 2203.32,-62.0137"/>
</g>
<!-- Node30 -->
<g id="node30" class="node"><title>Node30</title>
<g id="a_node30"><a xlink:href="MargulesVPSSTP_8cpp.html" target="_top" xlink:title="Definitions for ThermoPhase object for phases which employ excess Gibbs free energy formulations rela...">
<polygon fill="white" stroke="black" points="0,-0.5 0,-19.5 113,-19.5 113,-0.5 0,-0.5"/>
<text text-anchor="middle" x="56.5" y="-7.5" font-family="FreeSans" font-size="10.00">MargulesVPSSTP.cpp</text>
</a>
</g>
</g>
<!-- Node10&#45;&gt;Node30 -->
<g id="edge29" class="edge"><title>Node10&#45;&gt;Node30</title>
<path fill="none" stroke="midnightblue" d="M2203.9,-64.8325C1973.68,-63.537 551.515,-54.2303 121.5,-20 118.774,-19.783 115.989,-19.5277 113.178,-19.243"/>
<polygon fill="midnightblue" stroke="midnightblue" points="2203.93,-68.3327 2213.95,-64.8882 2203.97,-61.3328 2203.93,-68.3327"/>
</g>
<!-- Node31 -->
<g id="node31" class="node"><title>Node31</title>
<g id="a_node31"><a xlink:href="MetalSHEelectrons_8cpp.html" target="_top" xlink:title="Definition file for the MetalSHEElectrons class, which represents the electrons in a metal that are c...">
<polygon fill="white" stroke="black" points="131,-0.5 131,-19.5 248,-19.5 248,-0.5 131,-0.5"/>
<text text-anchor="middle" x="189.5" y="-7.5" font-family="FreeSans" font-size="10.00">MetalSHEelectrons.cpp</text>
</a>
</g>
</g>
<!-- Node10&#45;&gt;Node31 -->
<g id="edge30" class="edge"><title>Node10&#45;&gt;Node31</title>
<path fill="none" stroke="midnightblue" d="M2203.54,-64.7593C1980.81,-63.0091 657.656,-51.407 256.5,-20 253.809,-19.7893 251.06,-19.5438 248.287,-19.2715"/>
<polygon fill="midnightblue" stroke="midnightblue" points="2203.84,-68.2617 2213.87,-64.8396 2203.9,-61.2619 2203.84,-68.2617"/>
</g>
<!-- Node32 -->
<g id="node32" class="node"><title>Node32</title>
<g id="a_node32"><a xlink:href="MineralEQ3_8cpp.html" target="_top" xlink:title="Definition file for the MineralEQ3 class, which represents a fixed&#45;composition incompressible substan...">
<polygon fill="white" stroke="black" points="266,-0.5 266,-19.5 351,-19.5 351,-0.5 266,-0.5"/>
<text text-anchor="middle" x="308.5" y="-7.5" font-family="FreeSans" font-size="10.00">MineralEQ3.cpp</text>
</a>
</g>
</g>
<!-- Node10&#45;&gt;Node32 -->
<g id="edge31" class="edge"><title>Node10&#45;&gt;Node32</title>
<path fill="none" stroke="midnightblue" d="M2203.84,-64.8942C1988.68,-64.0773 738.275,-57.7469 359.5,-20 356.727,-19.7236 353.877,-19.3822 351.01,-18.9955"/>
<polygon fill="midnightblue" stroke="midnightblue" points="2203.83,-68.3941 2213.85,-64.931 2203.86,-61.3942 2203.83,-68.3941"/>
</g>
<!-- Node33 -->
<g id="node33" class="node"><title>Node33</title>
<g id="a_node33"><a xlink:href="MixedSolventElectrolyte_8cpp.html" target="_top" xlink:title="see Thermodynamic Properties and class MixedSolventElectrolyte ). ">
<polygon fill="white" stroke="black" points="369,-0.5 369,-19.5 506,-19.5 506,-0.5 369,-0.5"/>
<text text-anchor="middle" x="437.5" y="-7.5" font-family="FreeSans" font-size="10.00">MixedSolventElectrolyte.cpp</text>
</a>
</g>
</g>
<!-- Node10&#45;&gt;Node33 -->
<g id="edge32" class="edge"><title>Node10&#45;&gt;Node33</title>
<path fill="none" stroke="midnightblue" d="M2203.46,-65.2205C2031.02,-66.186 1195.92,-68.061 515.5,-20 512.509,-19.7887 509.455,-19.5473 506.373,-19.2824"/>
<polygon fill="midnightblue" stroke="midnightblue" points="2203.65,-68.7195 2213.63,-65.1601 2203.61,-61.7196 2203.65,-68.7195"/>
</g>
<!-- Node34 -->
<g id="node34" class="node"><title>Node34</title>
<g id="a_node34"><a xlink:href="MixtureFugacityTP_8cpp.html" target="_top" xlink:title="Methods file for a derived class of ThermoPhase that handles non&#45;ideal mixtures based on the fugacity...">
<polygon fill="white" stroke="black" points="2751.5,-0.5 2751.5,-19.5 2867.5,-19.5 2867.5,-0.5 2751.5,-0.5"/>
<text text-anchor="middle" x="2809.5" y="-7.5" font-family="FreeSans" font-size="10.00">MixtureFugacityTP.cpp</text>
</a>
</g>
</g>
<!-- Node10&#45;&gt;Node34 -->
<g id="edge33" class="edge"><title>Node10&#45;&gt;Node34</title>
<path fill="none" stroke="midnightblue" d="M2267.39,-56.0021C2476.34,-17.996 2534.36,-41.8153 2742.5,-20 2745.42,-19.6942 2748.41,-19.3622 2751.42,-19.0122"/>
<polygon fill="midnightblue" stroke="midnightblue" points="2266.52,-52.6028 2257.32,-57.859 2267.79,-59.4866 2266.52,-52.6028"/>
</g>
<!-- Node35 -->
<g id="node35" class="node"><title>Node35</title>
<g id="a_node35"><a xlink:href="MolalityVPSSTP_8cpp.html" target="_top" xlink:title="Definitions for intermediate ThermoPhase object for phases which employ molality based activity coeff...">
<polygon fill="white" stroke="black" points="2886,-0.5 2886,-19.5 2993,-19.5 2993,-0.5 2886,-0.5"/>
<text text-anchor="middle" x="2939.5" y="-7.5" font-family="FreeSans" font-size="10.00">MolalityVPSSTP.cpp</text>
</a>
</g>
</g>
<!-- Node10&#45;&gt;Node35 -->
<g id="edge34" class="edge"><title>Node10&#45;&gt;Node35</title>
<path fill="none" stroke="midnightblue" d="M2267.33,-56.0527C2535.16,-9.53072 2609.15,-46.9259 2876.5,-20 2879.58,-19.69 2882.74,-19.3402 2885.92,-18.9629"/>
<polygon fill="midnightblue" stroke="midnightblue" points="2266.55,-52.6356 2257.31,-57.8162 2267.77,-59.5297 2266.55,-52.6356"/>
</g>
<!-- Node36 -->
<g id="node36" class="node"><title>Node36</title>
<g id="a_node36"><a xlink:href="Mu0Poly_8cpp.html" target="_top" xlink:title="Definitions for a single&#45;species standard state object derived from SpeciesThermoInterpType based on ...">
<polygon fill="white" stroke="black" points="3011.5,-0.5 3011.5,-19.5 3083.5,-19.5 3083.5,-0.5 3011.5,-0.5"/>
<text text-anchor="middle" x="3047.5" y="-7.5" font-family="FreeSans" font-size="10.00">Mu0Poly.cpp</text>
</a>
</g>
</g>
<!-- Node10&#45;&gt;Node36 -->
<g id="edge35" class="edge"><title>Node10&#45;&gt;Node36</title>
<path fill="none" stroke="midnightblue" d="M2267.41,-56.0655C2590.1,-1.73873 2679.73,-59.1396 3001.5,-20 3004.73,-19.607 3008.08,-19.117 3011.42,-18.5701"/>
<polygon fill="midnightblue" stroke="midnightblue" points="2266.58,-52.6576 2257.31,-57.7903 2267.75,-59.5578 2266.58,-52.6576"/>
</g>
<!-- Node37 -->
<g id="node37" class="node"><title>Node37</title>
<g id="a_node37"><a xlink:href="PDSS_8cpp.html" target="_top" xlink:title="Implementation of a pressure dependent standard state virtual function (see class PDSS)...">
<polygon fill="white" stroke="black" points="3101.5,-0.5 3101.5,-19.5 3163.5,-19.5 3163.5,-0.5 3101.5,-0.5"/>
<text text-anchor="middle" x="3132.5" y="-7.5" font-family="FreeSans" font-size="10.00">PDSS.cpp</text>
</a>
</g>
</g>
<!-- Node10&#45;&gt;Node37 -->
<g id="edge36" class="edge"><title>Node10&#45;&gt;Node37</title>
<path fill="none" stroke="midnightblue" d="M2267.29,-56.0995C2630.08,4.00376 2731.11,-68.1327 3092.5,-20 3095.32,-19.6241 3098.24,-19.1459 3101.15,-18.6067"/>
<polygon fill="midnightblue" stroke="midnightblue" points="2266.59,-52.6687 2257.31,-57.7763 2267.75,-59.572 2266.59,-52.6687"/>
</g>
<!-- Node38 -->
<g id="node38" class="node"><title>Node38</title>
<g id="a_node38"><a xlink:href="PDSS__ConstVol_8cpp.html" target="_top" xlink:title="Implementation of a pressure dependent standard state virtual function. ">
<polygon fill="white" stroke="black" points="3182,-0.5 3182,-19.5 3287,-19.5 3287,-0.5 3182,-0.5"/>
<text text-anchor="middle" x="3234.5" y="-7.5" font-family="FreeSans" font-size="10.00">PDSS_ConstVol.cpp</text>
</a>
</g>
</g>
<!-- Node10&#45;&gt;Node38 -->
<g id="edge37" class="edge"><title>Node10&#45;&gt;Node38</title>
<path fill="none" stroke="midnightblue" d="M2267.36,-56.0945C2665.21,9.37469 2774.11,-56.7205 3172.5,-20 3175.53,-19.7205 3178.64,-19.3944 3181.78,-19.0354"/>
<polygon fill="midnightblue" stroke="midnightblue" points="2266.59,-52.673 2257.3,-57.7663 2267.74,-59.5781 2266.59,-52.673"/>
</g>
<!-- Node39 -->
<g id="node39" class="node"><title>Node39</title>
<g id="a_node39"><a xlink:href="PDSS__HKFT_8cpp.html" target="_top" xlink:title="Definitions for the class PDSS_HKFT (pressure dependent standard state) which handles calculations fo...">
<polygon fill="white" stroke="black" points="3305.5,-0.5 3305.5,-19.5 3397.5,-19.5 3397.5,-0.5 3305.5,-0.5"/>
<text text-anchor="middle" x="3351.5" y="-7.5" font-family="FreeSans" font-size="10.00">PDSS_HKFT.cpp</text>
</a>
</g>
</g>
<!-- Node10&#45;&gt;Node39 -->
<g id="edge38" class="edge"><title>Node10&#45;&gt;Node39</title>
<path fill="none" stroke="midnightblue" d="M2267.36,-56.1057C2719.28,17.2154 2842.94,-64.1024 3295.5,-20 3298.73,-19.6848 3302.07,-19.3014 3305.41,-18.8724"/>
<polygon fill="midnightblue" stroke="midnightblue" points="2266.6,-52.6826 2257.3,-57.754 2267.74,-59.5904 2266.6,-52.6826"/>
</g>
<!-- Node40 -->
<g id="node40" class="node"><title>Node40</title>
<g id="a_node40"><a xlink:href="PDSS__IdealGas_8cpp.html" target="_top" xlink:title="Implementation of a pressure dependent standard state virtual function. ">
<polygon fill="white" stroke="black" points="3416,-0.5 3416,-19.5 3521,-19.5 3521,-0.5 3416,-0.5"/>
<text text-anchor="middle" x="3468.5" y="-7.5" font-family="FreeSans" font-size="10.00">PDSS_IdealGas.cpp</text>
</a>
</g>
</g>
<!-- Node10&#45;&gt;Node40 -->
<g id="edge39" class="edge"><title>Node10&#45;&gt;Node40</title>
<path fill="none" stroke="midnightblue" d="M2267.32,-56.1198C2768.06,24.4009 2904.42,-64.2199 3406.5,-20 3409.53,-19.7328 3412.65,-19.4164 3415.78,-19.0647"/>
<polygon fill="midnightblue" stroke="midnightblue" points="2266.61,-52.6885 2257.3,-57.7451 2267.73,-59.5981 2266.61,-52.6885"/>
</g>
<!-- Node41 -->
<g id="node41" class="node"><title>Node41</title>
<g id="a_node41"><a xlink:href="PDSS__IonsFromNeutral_8cpp.html" target="_top" xlink:title="Implementation of a pressure dependent standard state virtual function. ">
<polygon fill="white" stroke="black" points="3539.5,-0.5 3539.5,-19.5 3677.5,-19.5 3677.5,-0.5 3539.5,-0.5"/>
<text text-anchor="middle" x="3608.5" y="-7.5" font-family="FreeSans" font-size="10.00">PDSS_IonsFromNeutral.cpp</text>
</a>
</g>
</g>
<!-- Node10&#45;&gt;Node41 -->
<g id="edge40" class="edge"><title>Node10&#45;&gt;Node41</title>
<path fill="none" stroke="midnightblue" d="M2267.52,-56.1322C2559.64,-11.8798 3253.28,-39.9004 3530.5,-20 3533.36,-19.795 3536.27,-19.5631 3539.21,-19.3101"/>
<polygon fill="midnightblue" stroke="midnightblue" points="2266.64,-52.7282 2257.3,-57.7371 2267.72,-59.6434 2266.64,-52.7282"/>
</g>
<!-- Node42 -->
<g id="node42" class="node"><title>Node42</title>
<g id="a_node42"><a xlink:href="PDSS__SSVol_8cpp.html" target="_top" xlink:title="Implementation of a pressure dependent standard state virtual function. ">
<polygon fill="white" stroke="black" points="3695.5,-0.5 3695.5,-19.5 3789.5,-19.5 3789.5,-0.5 3695.5,-0.5"/>
<text text-anchor="middle" x="3742.5" y="-7.5" font-family="FreeSans" font-size="10.00">PDSS_SSVol.cpp</text>
</a>
</g>
</g>
<!-- Node10&#45;&gt;Node42 -->
<g id="edge41" class="edge"><title>Node10&#45;&gt;Node42</title>
<path fill="none" stroke="midnightblue" d="M2267.29,-56.1727C2593.67,-7.04921 3375.19,-48.8283 3686.5,-20 3689.34,-19.7367 3692.26,-19.4175 3695.2,-19.0586"/>
<polygon fill="midnightblue" stroke="midnightblue" points="2266.64,-52.7322 2257.3,-57.7289 2267.72,-59.6489 2266.64,-52.7322"/>
</g>
<!-- Node43 -->
<g id="node43" class="node"><title>Node43</title>
<g id="a_node43"><a xlink:href="PDSS__Water_8cpp.html" target="_top" xlink:title="PDSS_Water.cpp">
<polygon fill="white" stroke="black" points="3807.5,-0.5 3807.5,-19.5 3899.5,-19.5 3899.5,-0.5 3807.5,-0.5"/>
<text text-anchor="middle" x="3853.5" y="-7.5" font-family="FreeSans" font-size="10.00">PDSS_Water.cpp</text>
</a>
</g>
</g>
<!-- Node10&#45;&gt;Node43 -->
<g id="edge42" class="edge"><title>Node10&#45;&gt;Node43</title>
<path fill="none" stroke="midnightblue" d="M2267.28,-56.1766C2618.32,-3.48895 3462.44,-51.2896 3798.5,-20 3801.39,-19.7309 3804.36,-19.4013 3807.35,-19.029"/>
<polygon fill="midnightblue" stroke="midnightblue" points="2266.64,-52.7339 2257.3,-57.7241 2267.72,-59.6514 2266.64,-52.7339"/>
</g>
<!-- Node44 -->
<g id="node44" class="node"><title>Node44</title>
<g id="a_node44"><a xlink:href="Phase_8cpp.html" target="_top" xlink:title="Definition file for class Phase. ">
<polygon fill="white" stroke="black" points="524.5,-0.5 524.5,-19.5 586.5,-19.5 586.5,-0.5 524.5,-0.5"/>
<text text-anchor="middle" x="555.5" y="-7.5" font-family="FreeSans" font-size="10.00">Phase.cpp</text>
</a>
</g>
</g>
<!-- Node10&#45;&gt;Node44 -->
<g id="edge43" class="edge"><title>Node10&#45;&gt;Node44</title>
<path fill="none" stroke="midnightblue" d="M2203.87,-64.9688C2004.86,-64.6464 923.498,-61.0058 595.5,-20 592.675,-19.6468 589.756,-19.1842 586.842,-18.6551"/>
<polygon fill="midnightblue" stroke="midnightblue" points="2203.95,-68.4688 2213.95,-64.9834 2203.96,-61.4688 2203.95,-68.4688"/>
</g>
<!-- Node45 -->
<g id="node45" class="node"><title>Node45</title>
<g id="a_node45"><a xlink:href="PhaseCombo__Interaction_8cpp.html" target="_top" xlink:title="PhaseCombo_Interaction.cpp">
<polygon fill="white" stroke="black" points="605,-0.5 605,-19.5 748,-19.5 748,-0.5 605,-0.5"/>
<text text-anchor="middle" x="676.5" y="-7.5" font-family="FreeSans" font-size="10.00">PhaseCombo_Interaction.cpp</text>
</a>
</g>
</g>
<!-- Node10&#45;&gt;Node45 -->
<g id="edge44" class="edge"><title>Node10&#45;&gt;Node45</title>
<path fill="none" stroke="midnightblue" d="M2203.34,-64.9933C2045.36,-64.7565 1335.79,-61.3285 756.5,-20 753.712,-19.8011 750.871,-19.5783 748.003,-19.3366"/>
<polygon fill="midnightblue" stroke="midnightblue" points="2203.75,-68.4936 2213.75,-65.0053 2203.76,-61.4936 2203.75,-68.4936"/>
</g>
<!-- Node46 -->
<g id="node46" class="node"><title>Node46</title>
<g id="a_node46"><a xlink:href="RedlichKisterVPSSTP_8cpp.html" target="_top" xlink:title="Definitions for ThermoPhase object for phases which employ excess Gibbs free energy formulations rela...">
<polygon fill="white" stroke="black" points="766,-0.5 766,-19.5 897,-19.5 897,-0.5 766,-0.5"/>
<text text-anchor="middle" x="831.5" y="-7.5" font-family="FreeSans" font-size="10.00">RedlichKisterVPSSTP.cpp</text>
</a>
</g>
</g>
<!-- Node10&#45;&gt;Node46 -->
<g id="edge45" class="edge"><title>Node10&#45;&gt;Node46</title>
<path fill="none" stroke="midnightblue" d="M2203.79,-64.9467C2056.32,-64.4849 1422.92,-60.1409 905.5,-20 902.79,-19.7898 900.027,-19.5535 897.238,-19.2968"/>
<polygon fill="midnightblue" stroke="midnightblue" points="2203.93,-68.447 2213.94,-64.9746 2203.95,-61.447 2203.93,-68.447"/>
</g>
<!-- Node47 -->
<g id="node47" class="node"><title>Node47</title>
<g id="a_node47"><a xlink:href="RedlichKwongMFTP_8cpp.html" target="_top" xlink:title="Definition file for a derived class of ThermoPhase that assumes either an ideal gas or ideal solution...">
<polygon fill="white" stroke="black" points="915,-0.5 915,-19.5 1038,-19.5 1038,-0.5 915,-0.5"/>
<text text-anchor="middle" x="976.5" y="-7.5" font-family="FreeSans" font-size="10.00">RedlichKwongMFTP.cpp</text>
</a>
</g>
</g>
<!-- Node10&#45;&gt;Node47 -->
<g id="edge46" class="edge"><title>Node10&#45;&gt;Node47</title>
<path fill="none" stroke="midnightblue" d="M2203.71,-64.8246C2065.81,-63.847 1505.64,-57.6403 1047.5,-20 1044.4,-19.7457 1041.24,-19.4551 1038.04,-19.138"/>
<polygon fill="midnightblue" stroke="midnightblue" points="2203.96,-68.3262 2213.98,-64.893 2204,-61.3263 2203.96,-68.3262"/>
</g>
<!-- Node48 -->
<g id="node48" class="node"><title>Node48</title>
<g id="a_node48"><a xlink:href="Species_8cpp_source.html" target="_top" xlink:title="Species.cpp">
<polygon fill="white" stroke="black" points="3918,-0.5 3918,-19.5 3987,-19.5 3987,-0.5 3918,-0.5"/>
<text text-anchor="middle" x="3952.5" y="-7.5" font-family="FreeSans" font-size="10.00">Species.cpp</text>
</a>
</g>
</g>
<!-- Node10&#45;&gt;Node48 -->
<g id="edge47" class="edge"><title>Node10&#45;&gt;Node48</title>
<path fill="none" stroke="midnightblue" d="M2267.43,-56.1584C2642.79,-0.120799 3548.86,-60.3887 3908.5,-20 3911.44,-19.6693 3914.48,-19.2385 3917.53,-18.7446"/>
<polygon fill="midnightblue" stroke="midnightblue" points="2266.65,-52.7375 2257.3,-57.72 2267.71,-59.6558 2266.65,-52.7375"/>
</g>
<!-- Node49&#45;&gt;Node15 -->
<g id="edge49" class="edge"><title>Node49&#45;&gt;Node15</title>
<path fill="none" stroke="midnightblue" d="M1144.17,-49.2533C1134.24,-39.6731 1121.91,-27.7906 1113.66,-19.8339"/>
<polygon fill="midnightblue" stroke="midnightblue" points="1141.87,-51.902 1151.5,-56.324 1146.73,-46.8631 1141.87,-51.902"/>
</g>
<!-- Node49&#45;&gt;Node22 -->
<g id="edge50" class="edge"><title>Node49&#45;&gt;Node22</title>
<path fill="none" stroke="midnightblue" d="M1176.83,-49.2533C1186.76,-39.6731 1199.09,-27.7906 1207.34,-19.8339"/>
<polygon fill="midnightblue" stroke="midnightblue" points="1174.27,-46.8631 1169.5,-56.324 1179.13,-51.902 1174.27,-46.8631"/>
</g>
<!-- Node49&#45;&gt;Node24 -->
<g id="edge51" class="edge"><title>Node49&#45;&gt;Node24</title>
<path fill="none" stroke="midnightblue" d="M1199.24,-53.5677C1233.76,-43.381 1283.51,-28.7034 1314.64,-19.5164"/>
<polygon fill="midnightblue" stroke="midnightblue" points="1198.1,-50.2564 1189.5,-56.4435 1200.08,-56.9702 1198.1,-50.2564"/>
</g>
<!-- Node49&#45;&gt;Node25 -->
<g id="edge52" class="edge"><title>Node49&#45;&gt;Node25</title>
<path fill="none" stroke="midnightblue" d="M1215.07,-55.6746C1274.6,-45.5025 1369.06,-29.3604 1426.65,-19.5182"/>
<polygon fill="midnightblue" stroke="midnightblue" points="1214.37,-52.2431 1205.1,-57.3776 1215.55,-59.1431 1214.37,-52.2431"/>
</g>
<!-- Node49&#45;&gt;Node26 -->
<g id="edge53" class="edge"><title>Node49&#45;&gt;Node26</title>
<path fill="none" stroke="midnightblue" d="M1215.2,-59.0812C1288.61,-50.9973 1423.05,-35.7053 1537.5,-20 1540.43,-19.5983 1543.44,-19.172 1546.47,-18.732"/>
<polygon fill="midnightblue" stroke="midnightblue" points="1214.81,-55.6027 1205.25,-60.1734 1215.57,-62.5609 1214.81,-55.6027"/>
</g>
<!-- Node49&#45;&gt;Node27 -->
<g id="edge54" class="edge"><title>Node49&#45;&gt;Node27</title>
<path fill="none" stroke="midnightblue" d="M1215.16,-60.6406C1306.18,-53.2404 1494.51,-37.3271 1653.5,-20 1656.34,-19.6904 1659.24,-19.3637 1662.18,-19.0257"/>
<polygon fill="midnightblue" stroke="midnightblue" points="1214.76,-57.1613 1205.08,-61.4579 1215.33,-64.1384 1214.76,-57.1613"/>
</g>
<!-- Node49&#45;&gt;Node28 -->
<g id="edge55" class="edge"><title>Node49&#45;&gt;Node28</title>
<path fill="none" stroke="midnightblue" d="M1215.5,-62.7979C1325.79,-58.0076 1581.76,-45.0087 1795.5,-20 1798.58,-19.6402 1801.74,-19.2297 1804.93,-18.7868"/>
<polygon fill="midnightblue" stroke="midnightblue" points="1215.12,-59.3105 1205.28,-63.2359 1215.42,-66.3041 1215.12,-59.3105"/>
</g>
<!-- Node49&#45;&gt;Node29 -->
<g id="edge56" class="edge"><title>Node49&#45;&gt;Node29</title>
<path fill="none" stroke="midnightblue" d="M1215.35,-63.0941C1338.7,-58.4985 1647.35,-45.2739 1904.5,-20 1907.49,-19.7059 1910.56,-19.3787 1913.65,-19.0282"/>
<polygon fill="midnightblue" stroke="midnightblue" points="1214.9,-59.608 1205.04,-63.474 1215.16,-66.6032 1214.9,-59.608"/>
</g>
<!-- Node49&#45;&gt;Node30 -->
<g id="edge57" class="edge"><title>Node49&#45;&gt;Node30</title>
<path fill="none" stroke="midnightblue" d="M1105.72,-56.0795C668.93,-12.594 554.608,-57.8017 121.5,-20 118.776,-19.7623 115.992,-19.49 113.182,-19.1918"/>
<polygon fill="midnightblue" stroke="midnightblue" points="1105.47,-59.5719 1115.77,-57.09 1106.17,-52.607 1105.47,-59.5719"/>
</g>
<!-- Node49&#45;&gt;Node31 -->
<g id="edge58" class="edge"><title>Node49&#45;&gt;Node31</title>
<path fill="none" stroke="midnightblue" d="M1105.67,-56.0661C728.685,-17.479 629.845,-52.9125 256.5,-20 253.811,-19.763 251.064,-19.4959 248.292,-19.206"/>
<polygon fill="midnightblue" stroke="midnightblue" points="1105.46,-59.5627 1115.77,-57.1101 1106.18,-52.5998 1105.46,-59.5627"/>
</g>
<!-- Node49&#45;&gt;Node32 -->
<g id="edge59" class="edge"><title>Node49&#45;&gt;Node32</title>
<path fill="none" stroke="midnightblue" d="M1105.39,-56.03C774.21,-21.3551 686.437,-56.5768 359.5,-20 356.73,-19.6901 353.883,-19.3233 351.018,-18.9179"/>
<polygon fill="midnightblue" stroke="midnightblue" points="1105.45,-59.5558 1115.77,-57.1303 1106.19,-52.5948 1105.45,-59.5558"/>
</g>
<!-- Node49&#45;&gt;Node33 -->
<g id="edge60" class="edge"><title>Node49&#45;&gt;Node33</title>
<path fill="none" stroke="midnightblue" d="M1105.55,-56.0224C843.282,-26.7477 774.311,-42.7972 515.5,-20 512.513,-19.7369 509.463,-19.4525 506.383,-19.1525"/>
<polygon fill="midnightblue" stroke="midnightblue" points="1105.43,-59.5315 1115.76,-57.1744 1106.22,-52.5756 1105.43,-59.5315"/>
</g>
<!-- Node49&#45;&gt;Node44 -->
<g id="edge61" class="edge"><title>Node49&#45;&gt;Node44</title>
<path fill="none" stroke="midnightblue" d="M1105.53,-56.012C878.619,-29.9411 817.458,-52.5982 595.5,-20 592.683,-19.5863 589.77,-19.0821 586.859,-18.5259"/>
<polygon fill="midnightblue" stroke="midnightblue" points="1105.42,-59.5231 1115.76,-57.2073 1106.23,-52.5704 1105.42,-59.5231"/>
</g>
<!-- Node49&#45;&gt;Node45 -->
<g id="edge62" class="edge"><title>Node49&#45;&gt;Node45</title>
<path fill="none" stroke="midnightblue" d="M1105.8,-55.9836C949.851,-35.1938 908.789,-36.3979 756.5,-20 753.721,-19.7007 750.888,-19.3933 748.026,-19.0808"/>
<polygon fill="midnightblue" stroke="midnightblue" points="1105.37,-59.4574 1115.74,-57.3188 1106.3,-52.5196 1105.37,-59.4574"/>
</g>
<!-- Node49&#45;&gt;Node46 -->
<g id="edge63" class="edge"><title>Node49&#45;&gt;Node46</title>
<path fill="none" stroke="midnightblue" d="M1105.8,-55.8882C1022.27,-42.102 937.206,-28.2129 883.971,-19.5389"/>
<polygon fill="midnightblue" stroke="midnightblue" points="1105.28,-59.349 1115.71,-57.525 1106.42,-52.4425 1105.28,-59.349"/>
</g>
<!-- Node49&#45;&gt;Node47 -->
<g id="edge64" class="edge"><title>Node49&#45;&gt;Node47</title>
<path fill="none" stroke="midnightblue" d="M1121.55,-53.5677C1086.84,-43.381 1036.82,-28.7034 1005.52,-19.5164"/>
<polygon fill="midnightblue" stroke="midnightblue" points="1120.76,-56.9858 1131.34,-56.4435 1122.73,-50.2691 1120.76,-56.9858"/>
</g>
</g>
</svg>
